<svg xmlns="http://www.w3.org/2000/svg" width="300" height="300" viewBox="0 0 300 300">
<path d="M 141.0 112.0 L 141.0 112.0 L 142.0 112.0 L 143.0 113.0 L 146.0 116.0 L 150.0 122.0 L 152.0 125.0 " stroke="black" fill="none" stroke-width="5.0" stroke-linecap="round" stroke-linejoin="round" />
<path d="M 126.0 139.0 L 126.0 139.0 L 128.0 139.0 L 131.0 138.0 L 138.0 138.0 L 148.0 138.0 L 160.0 138.0 L 170.0 137.0 L 175.0 137.0 L 175.0 137.0 " stroke="black" fill="none" stroke-width="5.0" stroke-linecap="round" stroke-linejoin="round" />
<path d="M 150.0 144.0 L 151.0 144.0 L 151.0 144.0 L 152.0 144.0 L 152.0 146.0 L 149.0 150.0 L 145.0 155.0 L 140.0 161.0 L 136.0 166.0 L 135.0 168.0 L 137.0 170.0 L 144.0 171.0 L 151.0 171.0 L 152.0 171.0 " stroke="black" fill="none" stroke-width="5.0" stroke-linecap="round" stroke-linejoin="round" />
<path d="M 168.0 162.0 L 168.0 162.0 L 168.0 162.0 L 168.0 163.0 L 167.0 165.0 L 163.0 169.0 L 157.0 176.0 L 149.0 183.0 L 142.0 189.0 L 136.0 194.0 L 134.0 196.0 L 134.0 197.0 L 138.0 198.0 L 145.0 198.0 L 153.0 198.0 L 162.0 198.0 L 169.0 198.0 L 176.0 197.0 L 178.0 196.0 " stroke="black" fill="none" stroke-width="5.0" stroke-linecap="round" stroke-linejoin="round" />
<path d="M 182.0 188.0 L 182.0 188.0 L 182.0 189.0 L 182.0 190.0 L 184.0 192.0 L 187.0 197.0 L 191.0 205.0 L 193.0 212.0 L 194.0 214.0 " stroke="black" fill="none" stroke-width="5.0" stroke-linecap="round" stroke-linejoin="round" />
</svg>