<svg xmlns="http://www.w3.org/2000/svg" width="300" height="300" viewBox="0 0 300 300">
<path d="M 149.0 109.0 L 149.0 109.0 L 149.0 109.0 L 149.0 109.0 L 149.0 110.0 L 147.0 113.0 L 138.0 124.0 L 121.0 145.0 L 107.0 159.0 " stroke="black" fill="none" stroke-width="5.0" stroke-linecap="round" stroke-linejoin="round" />
<path d="M 158.0 108.0 L 158.0 108.0 L 158.0 108.0 L 162.0 111.0 L 174.0 120.0 L 188.0 131.0 L 197.0 139.0 " stroke="black" fill="none" stroke-width="5.0" stroke-linecap="round" stroke-linejoin="round" />
<path d="M 145.0 143.0 L 145.0 143.0 L 145.0 142.0 L 147.0 142.0 L 149.0 142.0 L 156.0 140.0 L 165.0 139.0 L 171.0 139.0 " stroke="black" fill="none" stroke-width="5.0" stroke-linecap="round" stroke-linejoin="round" />
<path d="M 141.0 163.0 L 141.0 163.0 L 142.0 163.0 L 143.0 163.0 L 146.0 163.0 L 152.0 163.0 L 161.0 162.0 L 169.0 161.0 L 173.0 161.0 L 174.0 162.0 L 173.0 165.0 L 168.0 170.0 L 162.0 178.0 L 158.0 185.0 L 155.0 189.0 " stroke="black" fill="none" stroke-width="5.0" stroke-linecap="round" stroke-linejoin="round" />
<path d="M 139.0 190.0 L 139.0 190.0 L 139.0 190.0 L 139.0 190.0 L 140.0 190.0 L 144.0 192.0 L 151.0 195.0 L 159.0 198.0 L 163.0 200.0 " stroke="black" fill="none" stroke-width="5.0" stroke-linecap="round" stroke-linejoin="round" />
</svg>