<svg xmlns="http://www.w3.org/2000/svg" width="300" height="300" viewBox="0 0 300 300">
<path d="M 126.0 105.0 L 126.0 105.0 L 126.0 104.0 L 126.0 104.0 L 126.0 103.0 L 127.0 103.0 L 127.0 103.0 L 130.0 103.0 L 133.0 102.0 L 137.0 102.0 L 142.0 101.0 L 149.0 101.0 L 154.0 101.0 L 161.0 101.0 L 164.0 101.0 L 169.0 100.0 L 172.0 100.0 L 174.0 100.0 L 176.0 100.0 L 177.0 100.0 L 178.0 100.0 L 179.0 101.0 L 180.0 101.0 L 181.0 101.0 L 183.0 101.0 L 184.0 102.0 L 184.0 102.0 L 185.0 102.0 L 185.0 103.0 L 185.0 104.0 L 185.0 107.0 L 184.0 110.0 L 184.0 113.0 L 183.0 115.0 " stroke="black" fill="none" stroke-width="5.0" stroke-linecap="round" stroke-linejoin="round" />
<path d="M 128.0 120.0 L 128.0 121.0 L 128.0 121.0 L 128.0 122.0 L 129.0 122.0 L 135.0 122.0 L 146.0 122.0 L 157.0 121.0 L 167.0 121.0 L 175.0 121.0 L 178.0 121.0 L 179.0 121.0 L 178.0 121.0 " stroke="black" fill="none" stroke-width="5.0" stroke-linecap="round" stroke-linejoin="round" />
<path d="M 129.0 103.0 L 129.0 103.0 L 129.0 103.0 L 129.0 105.0 L 129.0 110.0 L 128.0 122.0 L 124.0 141.0 L 117.0 161.0 L 112.0 175.0 L 111.0 181.0 L 111.0 181.0 L 111.0 181.0 " stroke="black" fill="none" stroke-width="5.0" stroke-linecap="round" stroke-linejoin="round" />
<path d="M 143.0 131.0 L 143.0 131.0 L 143.0 131.0 L 143.0 131.0 L 143.0 131.0 L 144.0 133.0 L 146.0 136.0 L 147.0 137.0 " stroke="black" fill="none" stroke-width="5.0" stroke-linecap="round" stroke-linejoin="round" />
<path d="M 160.0 127.0 L 160.0 127.0 L 160.0 127.0 L 160.0 129.0 L 160.0 132.0 L 159.0 136.0 L 158.0 140.0 " stroke="black" fill="none" stroke-width="5.0" stroke-linecap="round" stroke-linejoin="round" />
<path d="M 139.0 146.0 L 139.0 146.0 L 139.0 146.0 L 139.0 146.0 L 140.0 146.0 L 146.0 146.0 L 156.0 146.0 L 165.0 145.0 L 170.0 145.0 L 171.0 145.0 " stroke="black" fill="none" stroke-width="5.0" stroke-linecap="round" stroke-linejoin="round" />
<path d="M 132.0 167.0 L 134.0 168.0 L 137.0 169.0 L 144.0 169.0 L 155.0 169.0 L 165.0 167.0 L 173.0 167.0 L 176.0 167.0 L 176.0 167.0 L 176.0 167.0 " stroke="black" fill="none" stroke-width="5.0" stroke-linecap="round" stroke-linejoin="round" />
<path d="M 150.0 145.0 L 150.0 145.0 L 150.0 145.0 L 150.0 145.0 L 149.0 147.0 L 149.0 155.0 L 149.0 170.0 L 148.0 183.0 L 148.0 189.0 L 148.0 189.0 " stroke="black" fill="none" stroke-width="5.0" stroke-linecap="round" stroke-linejoin="round" />
<path d="M 161.0 144.0 L 161.0 144.0 L 161.0 144.0 L 161.0 147.0 L 163.0 156.0 L 165.0 170.0 L 165.0 183.0 L 165.0 191.0 L 165.0 193.0 " stroke="black" fill="none" stroke-width="5.0" stroke-linecap="round" stroke-linejoin="round" />
</svg>