<svg xmlns="http://www.w3.org/2000/svg" width="300" height="300" viewBox="0 0 300 300">
<path d="M 126.0 114.0 L 126.0 114.0 L 125.0 116.0 L 124.0 118.0 L 124.0 121.0 L 124.0 126.0 L 125.0 138.0 L 125.0 155.0 L 125.0 169.0 L 125.0 176.0 L 125.0 177.0 " stroke="black" fill="none" stroke-width="5.0" stroke-linecap="round" stroke-linejoin="round" />
<path d="M 143.0 118.0 L 143.0 120.0 L 143.0 123.0 L 143.0 129.0 L 144.0 139.0 L 145.0 155.0 L 146.0 169.0 L 146.0 177.0 L 146.0 180.0 L 146.0 180.0 " stroke="black" fill="none" stroke-width="5.0" stroke-linecap="round" stroke-linejoin="round" />
<path d="M 115.0 140.0 L 115.0 140.0 L 115.0 140.0 L 116.0 140.0 L 120.0 140.0 L 129.0 140.0 L 139.0 140.0 L 146.0 140.0 L 148.0 141.0 L 150.0 141.0 " stroke="black" fill="none" stroke-width="5.0" stroke-linecap="round" stroke-linejoin="round" />
<path d="M 129.0 154.0 L 129.0 154.0 L 129.0 154.0 L 130.0 154.0 L 134.0 154.0 L 140.0 154.0 L 144.0 154.0 L 145.0 154.0 " stroke="black" fill="none" stroke-width="5.0" stroke-linecap="round" stroke-linejoin="round" />
<path d="M 129.0 164.0 L 130.0 164.0 L 131.0 164.0 L 134.0 165.0 L 138.0 165.0 L 143.0 165.0 L 144.0 165.0 " stroke="black" fill="none" stroke-width="5.0" stroke-linecap="round" stroke-linejoin="round" />
<path d="M 112.0 184.0 L 113.0 184.0 L 115.0 185.0 L 120.0 185.0 L 130.0 185.0 L 141.0 185.0 L 148.0 184.0 L 152.0 184.0 L 152.0 184.0 " stroke="black" fill="none" stroke-width="5.0" stroke-linecap="round" stroke-linejoin="round" />
<path d="M 128.0 189.0 L 128.0 189.0 L 128.0 189.0 L 128.0 191.0 L 127.0 194.0 L 125.0 200.0 L 124.0 203.0 " stroke="black" fill="none" stroke-width="5.0" stroke-linecap="round" stroke-linejoin="round" />
<path d="M 141.0 195.0 L 144.0 196.0 L 147.0 198.0 L 152.0 202.0 L 154.0 203.0 " stroke="black" fill="none" stroke-width="5.0" stroke-linecap="round" stroke-linejoin="round" />
<path d="M 171.0 123.0 L 171.0 123.0 L 171.0 124.0 L 171.0 126.0 L 169.0 130.0 L 166.0 134.0 L 163.0 137.0 L 161.0 139.0 L 160.0 139.0 L 160.0 141.0 L 160.0 147.0 L 160.0 156.0 L 161.0 168.0 L 161.0 181.0 L 163.0 190.0 L 164.0 195.0 L 165.0 196.0 L 165.0 196.0 " stroke="black" fill="none" stroke-width="5.0" stroke-linecap="round" stroke-linejoin="round" />
<path d="M 163.0 149.0 L 163.0 149.0 L 163.0 149.0 L 164.0 150.0 L 167.0 150.0 L 175.0 150.0 L 183.0 150.0 L 190.0 149.0 L 191.0 149.0 " stroke="black" fill="none" stroke-width="5.0" stroke-linecap="round" stroke-linejoin="round" />
<path d="M 178.0 151.0 L 178.0 151.0 L 178.0 153.0 L 179.0 158.0 L 180.0 167.0 L 182.0 182.0 L 184.0 195.0 L 185.0 201.0 L 185.0 202.0 L 185.0 201.0 L 185.0 197.0 " stroke="black" fill="none" stroke-width="5.0" stroke-linecap="round" stroke-linejoin="round" />
</svg>