<svg xmlns="http://www.w3.org/2000/svg" width="300" height="300" viewBox="0 0 300 300">
<path d="M 124.0 110.0 L 124.0 110.0 L 124.0 110.0 L 124.0 110.0 L 124.0 112.0 L 124.0 120.0 L 124.0 137.0 L 124.0 155.0 L 124.0 168.0 L 124.0 176.0 L 124.0 182.0 L 124.0 185.0 L 124.0 185.0 " stroke="black" fill="none" stroke-width="5.0" stroke-linecap="round" stroke-linejoin="round" />
<path d="M 139.0 115.0 L 139.0 116.0 L 139.0 117.0 L 139.0 121.0 L 140.0 132.0 L 141.0 149.0 L 143.0 165.0 L 143.0 178.0 L 143.0 184.0 L 143.0 186.0 " stroke="black" fill="none" stroke-width="5.0" stroke-linecap="round" stroke-linejoin="round" />
<path d="M 116.0 138.0 L 116.0 138.0 L 117.0 138.0 L 118.0 138.0 L 124.0 138.0 L 135.0 135.0 L 145.0 133.0 L 149.0 133.0 L 150.0 133.0 " stroke="black" fill="none" stroke-width="5.0" stroke-linecap="round" stroke-linejoin="round" />
<path d="M 128.0 152.0 L 128.0 152.0 L 128.0 153.0 L 129.0 153.0 L 132.0 153.0 L 137.0 153.0 L 141.0 152.0 L 143.0 152.0 L 143.0 152.0 " stroke="black" fill="none" stroke-width="5.0" stroke-linecap="round" stroke-linejoin="round" />
<path d="M 128.0 165.0 L 128.0 166.0 L 129.0 166.0 L 131.0 167.0 L 135.0 167.0 L 140.0 166.0 " stroke="black" fill="none" stroke-width="5.0" stroke-linecap="round" stroke-linejoin="round" />
<path d="M 112.0 189.0 L 113.0 189.0 L 114.0 189.0 L 119.0 189.0 L 129.0 188.0 L 140.0 188.0 L 149.0 187.0 L 153.0 187.0 L 153.0 187.0 " stroke="black" fill="none" stroke-width="5.0" stroke-linecap="round" stroke-linejoin="round" />
<path d="M 130.0 195.0 L 130.0 195.0 L 130.0 195.0 L 129.0 195.0 L 129.0 197.0 L 128.0 202.0 L 128.0 204.0 " stroke="black" fill="none" stroke-width="5.0" stroke-linecap="round" stroke-linejoin="round" />
<path d="M 141.0 195.0 L 141.0 196.0 L 141.0 197.0 L 143.0 199.0 L 147.0 203.0 L 148.0 204.0 " stroke="black" fill="none" stroke-width="5.0" stroke-linecap="round" stroke-linejoin="round" />
<path d="M 171.0 124.0 L 171.0 124.0 L 171.0 125.0 L 171.0 126.0 L 171.0 127.0 L 171.0 129.0 L 170.0 130.0 L 169.0 132.0 L 166.0 135.0 L 164.0 137.0 L 162.0 138.0 L 161.0 138.0 L 161.0 139.0 L 161.0 141.0 L 161.0 146.0 L 161.0 155.0 L 162.0 170.0 L 164.0 186.0 L 165.0 196.0 L 165.0 201.0 L 165.0 204.0 L 165.0 204.0 L 165.0 203.0 " stroke="black" fill="none" stroke-width="5.0" stroke-linecap="round" stroke-linejoin="round" />
<path d="M 166.0 152.0 L 166.0 152.0 L 166.0 152.0 L 167.0 152.0 L 171.0 151.0 L 178.0 150.0 L 184.0 150.0 L 188.0 150.0 L 189.0 150.0 " stroke="black" fill="none" stroke-width="5.0" stroke-linecap="round" stroke-linejoin="round" />
<path d="M 178.0 155.0 L 178.0 155.0 L 177.0 155.0 L 177.0 156.0 L 178.0 159.0 L 180.0 168.0 L 183.0 181.0 L 185.0 194.0 L 186.0 201.0 L 186.0 204.0 L 186.0 204.0 " stroke="black" fill="none" stroke-width="5.0" stroke-linecap="round" stroke-linejoin="round" />
</svg>