<svg xmlns="http://www.w3.org/2000/svg" width="300" height="300" viewBox="0 0 300 300">
<path d="M 128.0 120.0 L 128.0 120.0 L 128.0 120.0 L 127.0 121.0 L 127.0 123.0 L 127.0 130.0 L 127.0 146.0 L 127.0 167.0 L 127.0 181.0 L 127.0 186.0 L 127.0 186.0 " stroke="black" fill="none" stroke-width="5.0" stroke-linecap="round" stroke-linejoin="round" />
<path d="M 143.0 124.0 L 143.0 124.0 L 142.0 126.0 L 142.0 127.0 L 142.0 131.0 L 143.0 141.0 L 145.0 157.0 L 146.0 173.0 L 146.0 184.0 L 146.0 186.0 " stroke="black" fill="none" stroke-width="5.0" stroke-linecap="round" stroke-linejoin="round" />
<path d="M 121.0 144.0 L 121.0 144.0 L 121.0 144.0 L 121.0 144.0 L 123.0 144.0 L 130.0 143.0 L 139.0 142.0 L 146.0 142.0 L 150.0 142.0 L 151.0 142.0 " stroke="black" fill="none" stroke-width="5.0" stroke-linecap="round" stroke-linejoin="round" />
<path d="M 129.0 156.0 L 130.0 156.0 L 131.0 156.0 L 133.0 157.0 L 137.0 157.0 L 141.0 156.0 L 144.0 156.0 L 145.0 156.0 " stroke="black" fill="none" stroke-width="5.0" stroke-linecap="round" stroke-linejoin="round" />
<path d="M 130.0 167.0 L 130.0 168.0 L 130.0 169.0 L 132.0 169.0 L 137.0 169.0 L 142.0 168.0 L 145.0 168.0 " stroke="black" fill="none" stroke-width="5.0" stroke-linecap="round" stroke-linejoin="round" />
<path d="M 117.0 190.0 L 118.0 190.0 L 120.0 190.0 L 124.0 190.0 L 133.0 189.0 L 144.0 188.0 L 152.0 187.0 L 155.0 187.0 L 156.0 187.0 " stroke="black" fill="none" stroke-width="5.0" stroke-linecap="round" stroke-linejoin="round" />
<path d="M 132.0 195.0 L 132.0 195.0 L 132.0 195.0 L 132.0 195.0 L 132.0 197.0 L 130.0 201.0 L 128.0 206.0 " stroke="black" fill="none" stroke-width="5.0" stroke-linecap="round" stroke-linejoin="round" />
<path d="M 145.0 194.0 L 145.0 194.0 L 145.0 195.0 L 146.0 197.0 L 148.0 202.0 L 149.0 203.0 " stroke="black" fill="none" stroke-width="5.0" stroke-linecap="round" stroke-linejoin="round" />
<path d="M 170.0 130.0 L 170.0 130.0 L 171.0 130.0 L 171.0 131.0 L 171.0 133.0 L 169.0 136.0 L 165.0 140.0 L 162.0 143.0 L 159.0 144.0 L 157.0 145.0 L 157.0 147.0 L 157.0 152.0 L 159.0 161.0 L 160.0 174.0 L 160.0 188.0 L 161.0 198.0 L 161.0 204.0 L 161.0 207.0 " stroke="black" fill="none" stroke-width="5.0" stroke-linecap="round" stroke-linejoin="round" />
<path d="M 161.0 158.0 L 161.0 158.0 L 161.0 158.0 L 161.0 158.0 L 164.0 158.0 L 172.0 157.0 L 181.0 156.0 L 188.0 156.0 L 188.0 156.0 " stroke="black" fill="none" stroke-width="5.0" stroke-linecap="round" stroke-linejoin="round" />
<path d="M 176.0 156.0 L 176.0 156.0 L 176.0 156.0 L 177.0 157.0 L 178.0 165.0 L 181.0 180.0 L 183.0 195.0 L 185.0 204.0 L 186.0 206.0 L 186.0 206.0 " stroke="black" fill="none" stroke-width="5.0" stroke-linecap="round" stroke-linejoin="round" />
</svg>