<svg xmlns="http://www.w3.org/2000/svg" width="300" height="300" viewBox="0 0 300 300">
<path d="M 142.0 107.0 L 142.0 107.0 L 141.0 107.0 L 141.0 108.0 L 141.0 110.0 L 144.0 114.0 L 147.0 120.0 L 149.0 122.0 " stroke="black" fill="none" stroke-width="5.0" stroke-linecap="round" stroke-linejoin="round" />
<path d="M 134.0 130.0 L 135.0 130.0 L 136.0 131.0 L 138.0 131.0 L 144.0 130.0 L 151.0 128.0 L 156.0 127.0 L 158.0 126.0 L 159.0 129.0 L 155.0 137.0 L 153.0 141.0 L 144.0 156.0 L 138.0 166.0 L 132.0 173.0 " stroke="black" fill="none" stroke-width="5.0" stroke-linecap="round" stroke-linejoin="round" />
<path d="M 114.0 182.0 L 114.0 181.0 L 114.0 181.0 L 114.0 180.0 L 115.0 180.0 L 121.0 178.0 L 129.0 177.0 L 137.0 176.0 L 145.0 177.0 L 152.0 180.0 L 162.0 184.0 L 175.0 188.0 L 186.0 189.0 L 194.0 188.0 L 198.0 185.0 " stroke="black" fill="none" stroke-width="5.0" stroke-linecap="round" stroke-linejoin="round" />
</svg>