<svg xmlns="http://www.w3.org/2000/svg" width="300" height="300" viewBox="0 0 300 300">
<path d="M 145.0 110.0 L 145.0 110.0 L 145.0 110.0 L 146.0 112.0 L 148.0 117.0 L 151.0 123.0 L 153.0 126.0 " stroke="black" fill="none" stroke-width="5.0" stroke-linecap="round" stroke-linejoin="round" />
<path d="M 129.0 140.0 L 131.0 140.0 L 133.0 140.0 L 137.0 140.0 L 145.0 139.0 L 155.0 136.0 L 163.0 135.0 L 167.0 135.0 L 167.0 138.0 L 163.0 144.0 L 157.0 153.0 L 150.0 162.0 L 144.0 170.0 L 141.0 173.0 " stroke="black" fill="none" stroke-width="5.0" stroke-linecap="round" stroke-linejoin="round" />
<path d="M 119.0 183.0 L 119.0 183.0 L 118.0 182.0 L 118.0 181.0 L 120.0 180.0 L 125.0 177.0 L 133.0 176.0 L 142.0 176.0 L 151.0 177.0 L 162.0 180.0 L 176.0 183.0 L 187.0 184.0 L 196.0 183.0 " stroke="black" fill="none" stroke-width="5.0" stroke-linecap="round" stroke-linejoin="round" />
</svg>