<svg xmlns="http://www.w3.org/2000/svg" width="300" height="300" viewBox="0 0 300 300">
<path d="M 141.0 112.0 L 141.0 112.0 L 141.0 112.0 L 141.0 112.0 L 141.0 113.0 L 143.0 116.0 L 147.0 122.0 L 152.0 128.0 " stroke="black" fill="none" stroke-width="5.0" stroke-linecap="round" stroke-linejoin="round" />
<path d="M 124.0 140.0 L 124.0 140.0 L 125.0 140.0 L 127.0 139.0 L 134.0 137.0 L 144.0 135.0 L 153.0 133.0 L 159.0 133.0 L 161.0 133.0 L 161.0 133.0 L 159.0 136.0 L 156.0 140.0 L 153.0 146.0 L 149.0 153.0 L 144.0 160.0 L 139.0 167.0 L 138.0 169.0 " stroke="black" fill="none" stroke-width="5.0" stroke-linecap="round" stroke-linejoin="round" />
<path d="M 111.0 185.0 L 112.0 185.0 L 112.0 184.0 L 114.0 183.0 L 117.0 181.0 L 123.0 178.0 L 132.0 177.0 L 143.0 177.0 L 152.0 181.0 L 161.0 183.0 L 171.0 185.0 L 183.0 186.0 L 194.0 186.0 L 202.0 186.0 L 203.0 185.0 " stroke="black" fill="none" stroke-width="5.0" stroke-linecap="round" stroke-linejoin="round" />
</svg>