<svg xmlns="http://www.w3.org/2000/svg" width="300" height="300" viewBox="0 0 300 300">
<path d="M 143.0 107.0 L 143.0 107.0 L 143.0 107.0 L 144.0 107.0 L 146.0 111.0 L 149.0 117.0 L 151.0 120.0 " stroke="black" fill="none" stroke-width="5.0" stroke-linecap="round" stroke-linejoin="round" />
<path d="M 137.0 133.0 L 139.0 133.0 L 142.0 133.0 L 147.0 131.0 L 152.0 129.0 L 157.0 129.0 L 159.0 129.0 L 160.0 130.0 L 160.0 135.0 L 156.0 141.0 L 151.0 149.0 L 144.0 158.0 L 138.0 165.0 L 136.0 166.0 " stroke="black" fill="none" stroke-width="5.0" stroke-linecap="round" stroke-linejoin="round" />
<path d="M 113.0 178.0 L 114.0 177.0 L 115.0 176.0 L 118.0 174.0 L 125.0 172.0 L 134.0 170.0 L 143.0 169.0 L 150.0 171.0 L 159.0 176.0 L 168.0 181.0 L 179.0 184.0 L 189.0 184.0 L 196.0 181.0 " stroke="black" fill="none" stroke-width="5.0" stroke-linecap="round" stroke-linejoin="round" />
</svg>