<svg xmlns="http://www.w3.org/2000/svg" width="300" height="300" viewBox="0 0 300 300">
<path d="M 141.0 114.0 L 141.0 114.0 L 141.0 114.0 L 140.0 115.0 L 141.0 117.0 L 145.0 121.0 L 149.0 127.0 L 150.0 129.0 " stroke="black" fill="none" stroke-width="5.0" stroke-linecap="round" stroke-linejoin="round" />
<path d="M 132.0 144.0 L 132.0 144.0 L 133.0 144.0 L 135.0 143.0 L 140.0 143.0 L 146.0 141.0 L 153.0 140.0 L 157.0 139.0 L 158.0 139.0 L 158.0 142.0 L 154.0 148.0 L 150.0 156.0 L 144.0 166.0 L 137.0 177.0 L 133.0 181.0 " stroke="black" fill="none" stroke-width="5.0" stroke-linecap="round" stroke-linejoin="round" />
<path d="M 109.0 195.0 L 109.0 195.0 L 110.0 194.0 L 111.0 193.0 L 115.0 191.0 L 122.0 188.0 L 132.0 187.0 L 142.0 188.0 L 151.0 192.0 L 162.0 197.0 L 173.0 201.0 L 185.0 202.0 L 195.0 201.0 L 200.0 197.0 L 202.0 196.0 " stroke="black" fill="none" stroke-width="5.0" stroke-linecap="round" stroke-linejoin="round" />
</svg>