<svg xmlns="http://www.w3.org/2000/svg" width="300" height="300" viewBox="0 0 300 300">
<path d="M 144.0 119.0 L 144.0 120.0 L 145.0 122.0 L 146.0 125.0 L 149.0 130.0 L 151.0 134.0 " stroke="black" fill="none" stroke-width="5.0" stroke-linecap="round" stroke-linejoin="round" />
<path d="M 132.0 144.0 L 133.0 144.0 L 134.0 144.0 L 137.0 144.0 L 141.0 143.0 L 146.0 142.0 L 151.0 142.0 L 155.0 141.0 L 155.0 142.0 L 154.0 146.0 L 153.0 148.0 L 149.0 156.0 L 144.0 164.0 L 140.0 169.0 L 135.0 175.0 L 135.0 176.0 " stroke="black" fill="none" stroke-width="5.0" stroke-linecap="round" stroke-linejoin="round" />
<path d="M 116.0 187.0 L 119.0 186.0 L 119.0 186.0 L 121.0 185.0 L 124.0 183.0 L 128.0 182.0 L 132.0 181.0 L 140.0 181.0 L 145.0 181.0 L 155.0 185.0 L 166.0 190.0 L 176.0 191.0 L 185.0 191.0 L 192.0 190.0 L 200.0 186.0 " stroke="black" fill="none" stroke-width="5.0" stroke-linecap="round" stroke-linejoin="round" />
</svg>