<svg xmlns="http://www.w3.org/2000/svg" width="300" height="300" viewBox="0 0 300 300">
<path d="M 137.0 112.0 L 137.0 112.0 L 137.0 112.0 L 137.0 113.0 L 138.0 115.0 L 141.0 119.0 L 145.0 125.0 L 145.0 126.0 " stroke="black" fill="none" stroke-width="5.0" stroke-linecap="round" stroke-linejoin="round" />
<path d="M 123.0 136.0 L 123.0 136.0 L 123.0 136.0 L 124.0 136.0 L 129.0 136.0 L 139.0 134.0 L 149.0 133.0 L 156.0 132.0 L 158.0 133.0 L 158.0 135.0 L 156.0 140.0 L 152.0 146.0 L 147.0 154.0 L 140.0 163.0 L 134.0 172.0 L 133.0 175.0 " stroke="black" fill="none" stroke-width="5.0" stroke-linecap="round" stroke-linejoin="round" />
<path d="M 112.0 183.0 L 112.0 183.0 L 112.0 183.0 L 112.0 183.0 L 112.0 182.0 L 116.0 180.0 L 123.0 178.0 L 132.0 178.0 L 141.0 178.0 L 149.0 180.0 L 157.0 183.0 L 166.0 186.0 L 176.0 187.0 L 184.0 187.0 L 189.0 185.0 " stroke="black" fill="none" stroke-width="5.0" stroke-linecap="round" stroke-linejoin="round" />
</svg>