<svg xmlns="http://www.w3.org/2000/svg" width="300" height="300" viewBox="0 0 300 300">
<path d="M 144.0 111.0 L 144.0 111.0 L 144.0 111.0 L 144.0 111.0 L 144.0 111.0 L 147.0 115.0 L 150.0 121.0 L 152.0 124.0 " stroke="black" fill="none" stroke-width="5.0" stroke-linecap="round" stroke-linejoin="round" />
<path d="M 124.0 138.0 L 124.0 138.0 L 125.0 138.0 L 126.0 138.0 L 130.0 137.0 L 139.0 135.0 L 151.0 131.0 L 159.0 129.0 L 163.0 129.0 L 163.0 131.0 L 163.0 134.0 L 161.0 138.0 L 157.0 143.0 L 152.0 150.0 L 147.0 158.0 L 142.0 165.0 L 141.0 169.0 " stroke="black" fill="none" stroke-width="5.0" stroke-linecap="round" stroke-linejoin="round" />
<path d="M 113.0 187.0 L 113.0 187.0 L 113.0 187.0 L 113.0 187.0 L 114.0 186.0 L 119.0 184.0 L 127.0 181.0 L 135.0 180.0 L 143.0 180.0 L 150.0 182.0 L 158.0 185.0 L 167.0 187.0 L 178.0 189.0 L 188.0 189.0 L 194.0 189.0 " stroke="black" fill="none" stroke-width="5.0" stroke-linecap="round" stroke-linejoin="round" />
</svg>