<svg xmlns="http://www.w3.org/2000/svg" width="300" height="300" viewBox="0 0 300 300">
<path d="M 143.0 111.0 L 143.0 111.0 L 143.0 111.0 L 143.0 111.0 L 143.0 112.0 L 144.0 114.0 L 147.0 118.0 L 151.0 124.0 " stroke="black" fill="none" stroke-width="5.0" stroke-linecap="round" stroke-linejoin="round" />
<path d="M 128.0 138.0 L 129.0 138.0 L 131.0 138.0 L 134.0 138.0 L 138.0 138.0 L 144.0 138.0 L 151.0 138.0 L 157.0 137.0 L 160.0 137.0 L 160.0 139.0 L 157.0 145.0 L 152.0 153.0 L 146.0 162.0 L 140.0 169.0 L 138.0 171.0 " stroke="black" fill="none" stroke-width="5.0" stroke-linecap="round" stroke-linejoin="round" />
<path d="M 113.0 186.0 L 113.0 185.0 L 113.0 185.0 L 113.0 184.0 L 115.0 183.0 L 119.0 181.0 L 126.0 180.0 L 136.0 179.0 L 146.0 179.0 L 156.0 182.0 L 165.0 185.0 L 176.0 188.0 L 186.0 189.0 L 193.0 187.0 L 196.0 184.0 " stroke="black" fill="none" stroke-width="5.0" stroke-linecap="round" stroke-linejoin="round" />
</svg>