<svg xmlns="http://www.w3.org/2000/svg" width="300" height="300" viewBox="0 0 300 300">
<path d="M 143.0 109.0 L 143.0 109.0 L 143.0 108.0 L 143.0 108.0 L 143.0 108.0 L 144.0 110.0 L 147.0 116.0 L 150.0 123.0 L 153.0 130.0 " stroke="black" fill="none" stroke-width="5.0" stroke-linecap="round" stroke-linejoin="round" />
<path d="M 133.0 136.0 L 133.0 136.0 L 133.0 136.0 L 133.0 136.0 L 135.0 136.0 L 141.0 136.0 L 150.0 135.0 L 158.0 134.0 L 163.0 134.0 L 165.0 134.0 L 165.0 135.0 L 165.0 136.0 L 163.0 138.0 L 160.0 142.0 L 156.0 148.0 L 151.0 155.0 L 145.0 163.0 L 140.0 169.0 L 138.0 172.0 L 138.0 172.0 " stroke="black" fill="none" stroke-width="5.0" stroke-linecap="round" stroke-linejoin="round" />
<path d="M 116.0 185.0 L 116.0 185.0 L 116.0 185.0 L 118.0 183.0 L 124.0 181.0 L 132.0 178.0 L 139.0 177.0 L 152.0 181.0 L 161.0 184.0 L 171.0 186.0 L 181.0 187.0 L 189.0 187.0 L 192.0 186.0 " stroke="black" fill="none" stroke-width="5.0" stroke-linecap="round" stroke-linejoin="round" />
</svg>