<svg xmlns="http://www.w3.org/2000/svg" width="300" height="300" viewBox="0 0 300 300">
<path d="M 144.0 115.0 L 144.0 115.0 L 144.0 115.0 L 144.0 115.0 L 144.0 116.0 L 146.0 119.0 L 150.0 122.0 L 152.0 124.0 " stroke="black" fill="none" stroke-width="5.0" stroke-linecap="round" stroke-linejoin="round" />
<path d="M 125.0 141.0 L 126.0 141.0 L 126.0 141.0 L 128.0 141.0 L 134.0 141.0 L 142.0 140.0 L 152.0 138.0 L 160.0 137.0 L 163.0 136.0 L 163.0 136.0 L 162.0 139.0 L 159.0 143.0 L 155.0 149.0 L 150.0 156.0 L 143.0 164.0 L 136.0 172.0 L 134.0 174.0 " stroke="black" fill="none" stroke-width="5.0" stroke-linecap="round" stroke-linejoin="round" />
<path d="M 112.0 187.0 L 112.0 187.0 L 113.0 186.0 L 114.0 185.0 L 116.0 183.0 L 120.0 181.0 L 125.0 180.0 L 132.0 180.0 L 138.0 181.0 L 145.0 185.0 L 152.0 189.0 L 161.0 191.0 L 172.0 191.0 L 183.0 189.0 " stroke="black" fill="none" stroke-width="5.0" stroke-linecap="round" stroke-linejoin="round" />
</svg>