<svg xmlns="http://www.w3.org/2000/svg" width="300" height="300" viewBox="0 0 300 300">
<path d="M 141.0 115.0 L 141.0 115.0 L 140.0 115.0 L 140.0 115.0 L 143.0 120.0 L 148.0 126.0 L 150.0 129.0 " stroke="black" fill="none" stroke-width="5.0" stroke-linecap="round" stroke-linejoin="round" />
<path d="M 132.0 140.0 L 132.0 140.0 L 132.0 140.0 L 132.0 140.0 L 138.0 140.0 L 146.0 139.0 L 155.0 138.0 L 161.0 137.0 L 164.0 137.0 L 165.0 139.0 L 165.0 142.0 L 163.0 146.0 L 160.0 150.0 L 156.0 155.0 L 151.0 161.0 L 146.0 167.0 L 145.0 169.0 " stroke="black" fill="none" stroke-width="5.0" stroke-linecap="round" stroke-linejoin="round" />
<path d="M 116.0 185.0 L 116.0 185.0 L 116.0 185.0 L 116.0 185.0 L 118.0 184.0 L 125.0 181.0 L 135.0 177.0 L 144.0 176.0 L 151.0 176.0 L 156.0 180.0 L 163.0 184.0 L 173.0 189.0 L 185.0 193.0 L 197.0 194.0 L 205.0 194.0 L 213.0 191.0 L 214.0 190.0 " stroke="black" fill="none" stroke-width="5.0" stroke-linecap="round" stroke-linejoin="round" />
</svg>