<svg xmlns="http://www.w3.org/2000/svg" width="300" height="300" viewBox="0 0 300 300">
<path d="M 143.0 110.0 L 143.0 111.0 L 143.0 111.0 L 143.0 112.0 L 144.0 117.0 L 148.0 123.0 L 149.0 125.0 " stroke="black" fill="none" stroke-width="5.0" stroke-linecap="round" stroke-linejoin="round" />
<path d="M 134.0 138.0 L 134.0 138.0 L 134.0 138.0 L 135.0 138.0 L 139.0 138.0 L 146.0 136.0 L 154.0 135.0 L 159.0 135.0 L 161.0 135.0 L 161.0 136.0 L 160.0 140.0 L 156.0 146.0 L 152.0 154.0 L 148.0 162.0 L 143.0 168.0 L 143.0 169.0 " stroke="black" fill="none" stroke-width="5.0" stroke-linecap="round" stroke-linejoin="round" />
<path d="M 117.0 184.0 L 117.0 184.0 L 116.0 184.0 L 116.0 183.0 L 116.0 182.0 L 122.0 180.0 L 131.0 176.0 L 141.0 173.0 L 150.0 172.0 L 157.0 173.0 L 164.0 176.0 L 173.0 180.0 L 183.0 183.0 L 192.0 183.0 L 199.0 181.0 " stroke="black" fill="none" stroke-width="5.0" stroke-linecap="round" stroke-linejoin="round" />
</svg>