<svg xmlns="http://www.w3.org/2000/svg" width="300" height="300" viewBox="0 0 300 300">
<path d="M 145.0 107.0 L 145.0 107.0 L 145.0 107.0 L 145.0 109.0 L 146.0 113.0 L 148.0 118.0 L 149.0 123.0 " stroke="black" fill="none" stroke-width="5.0" stroke-linecap="round" stroke-linejoin="round" />
<path d="M 131.0 131.0 L 131.0 131.0 L 132.0 132.0 L 135.0 133.0 L 141.0 133.0 L 147.0 133.0 L 153.0 132.0 L 159.0 131.0 L 161.0 132.0 L 161.0 134.0 L 159.0 138.0 L 156.0 143.0 L 151.0 149.0 L 146.0 157.0 L 138.0 168.0 L 135.0 172.0 " stroke="black" fill="none" stroke-width="5.0" stroke-linecap="round" stroke-linejoin="round" />
<path d="M 113.0 181.0 L 114.0 181.0 L 115.0 181.0 L 116.0 180.0 L 118.0 179.0 L 121.0 177.0 L 124.0 176.0 L 128.0 175.0 L 136.0 175.0 L 145.0 177.0 L 152.0 181.0 L 158.0 184.0 L 168.0 187.0 L 177.0 188.0 L 192.0 186.0 " stroke="black" fill="none" stroke-width="5.0" stroke-linecap="round" stroke-linejoin="round" />
</svg>