<svg xmlns="http://www.w3.org/2000/svg" width="300" height="300" viewBox="0 0 300 300">
<path d="M 138.0 110.0 L 138.0 110.0 L 138.0 110.0 L 138.0 111.0 L 140.0 115.0 L 144.0 121.0 " stroke="black" fill="none" stroke-width="5.0" stroke-linecap="round" stroke-linejoin="round" />
<path d="M 130.0 134.0 L 131.0 134.0 L 134.0 134.0 L 138.0 134.0 L 144.0 132.0 L 150.0 130.0 L 155.0 129.0 L 157.0 129.0 L 158.0 130.0 L 158.0 134.0 L 155.0 140.0 L 150.0 148.0 L 145.0 157.0 L 139.0 164.0 L 138.0 165.0 " stroke="black" fill="none" stroke-width="5.0" stroke-linecap="round" stroke-linejoin="round" />
<path d="M 119.0 180.0 L 119.0 179.0 L 119.0 178.0 L 120.0 177.0 L 122.0 176.0 L 124.0 175.0 L 127.0 173.0 L 132.0 172.0 L 138.0 172.0 L 144.0 175.0 L 151.0 179.0 L 159.0 183.0 L 171.0 186.0 L 183.0 186.0 L 194.0 184.0 L 197.0 182.0 " stroke="black" fill="none" stroke-width="5.0" stroke-linecap="round" stroke-linejoin="round" />
</svg>