<svg xmlns="http://www.w3.org/2000/svg" width="300" height="300" viewBox="0 0 300 300">
<path d="M 141.0 110.0 L 141.0 111.0 L 141.0 113.0 L 141.0 116.0 L 144.0 121.0 L 146.0 125.0 L 147.0 125.0 " stroke="black" fill="none" stroke-width="5.0" stroke-linecap="round" stroke-linejoin="round" />
<path d="M 128.0 137.0 L 128.0 138.0 L 128.0 139.0 L 128.0 139.0 L 130.0 139.0 L 137.0 138.0 L 144.0 136.0 L 150.0 135.0 L 153.0 134.0 L 155.0 134.0 L 155.0 136.0 L 154.0 140.0 L 152.0 145.0 L 149.0 152.0 L 144.0 159.0 L 138.0 167.0 L 132.0 172.0 L 129.0 175.0 L 128.0 175.0 " stroke="black" fill="none" stroke-width="5.0" stroke-linecap="round" stroke-linejoin="round" />
<path d="M 116.0 182.0 L 116.0 182.0 L 116.0 182.0 L 116.0 182.0 L 116.0 181.0 L 119.0 180.0 L 125.0 178.0 L 133.0 176.0 L 141.0 176.0 L 147.0 177.0 L 154.0 181.0 L 162.0 186.0 L 172.0 189.0 L 183.0 190.0 L 192.0 189.0 L 198.0 185.0 L 200.0 182.0 " stroke="black" fill="none" stroke-width="5.0" stroke-linecap="round" stroke-linejoin="round" />
</svg>