<svg xmlns="http://www.w3.org/2000/svg" width="300" height="300" viewBox="0 0 300 300">
<path d="M 126.0 104.0 L 126.0 104.0 L 126.0 104.0 L 126.0 104.0 L 127.0 107.0 L 130.0 112.0 L 131.0 114.0 " stroke="black" fill="none" stroke-width="5.0" stroke-linecap="round" stroke-linejoin="round" />
<path d="M 113.0 122.0 L 114.0 122.0 L 114.0 122.0 L 115.0 122.0 L 119.0 122.0 L 126.0 122.0 L 135.0 120.0 L 142.0 119.0 " stroke="black" fill="none" stroke-width="5.0" stroke-linecap="round" stroke-linejoin="round" />
<path d="M 122.0 130.0 L 122.0 130.0 L 122.0 131.0 L 122.0 132.0 L 120.0 136.0 L 115.0 144.0 L 112.0 150.0 L 111.0 151.0 " stroke="black" fill="none" stroke-width="5.0" stroke-linecap="round" stroke-linejoin="round" />
<path d="M 137.0 132.0 L 137.0 132.0 L 137.0 132.0 L 137.0 133.0 L 140.0 135.0 L 144.0 138.0 L 146.0 140.0 " stroke="black" fill="none" stroke-width="5.0" stroke-linecap="round" stroke-linejoin="round" />
<path d="M 138.0 142.0 L 138.0 142.0 L 138.0 142.0 L 138.0 144.0 L 136.0 151.0 L 133.0 163.0 L 126.0 179.0 L 118.0 193.0 L 113.0 200.0 L 111.0 201.0 " stroke="black" fill="none" stroke-width="5.0" stroke-linecap="round" stroke-linejoin="round" />
<path d="M 119.0 153.0 L 119.0 153.0 L 120.0 153.0 L 123.0 158.0 L 131.0 170.0 L 140.0 184.0 L 144.0 194.0 L 146.0 196.0 " stroke="black" fill="none" stroke-width="5.0" stroke-linecap="round" stroke-linejoin="round" />
<path d="M 160.0 112.0 L 160.0 114.0 L 160.0 117.0 L 160.0 122.0 L 159.0 129.0 L 156.0 137.0 L 154.0 141.0 " stroke="black" fill="none" stroke-width="5.0" stroke-linecap="round" stroke-linejoin="round" />
<path d="M 159.0 125.0 L 159.0 125.0 L 160.0 125.0 L 164.0 125.0 L 170.0 124.0 L 177.0 123.0 L 181.0 123.0 L 182.0 123.0 " stroke="black" fill="none" stroke-width="5.0" stroke-linecap="round" stroke-linejoin="round" />
<path d="M 176.0 127.0 L 176.0 128.0 L 175.0 128.0 L 175.0 130.0 L 175.0 133.0 L 174.0 142.0 L 170.0 158.0 L 165.0 174.0 L 160.0 184.0 L 159.0 185.0 " stroke="black" fill="none" stroke-width="5.0" stroke-linecap="round" stroke-linejoin="round" />
<path d="M 158.0 142.0 L 158.0 142.0 L 159.0 143.0 L 160.0 146.0 L 166.0 155.0 L 175.0 169.0 L 184.0 184.0 L 189.0 193.0 L 191.0 196.0 L 192.0 197.0 L 192.0 197.0 " stroke="black" fill="none" stroke-width="5.0" stroke-linecap="round" stroke-linejoin="round" />
</svg>