<svg xmlns="http://www.w3.org/2000/svg" width="300" height="300" viewBox="0 0 300 300">
<path d="M 138.0 112.0 L 137.0 113.0 L 135.0 115.0 L 132.0 120.0 L 124.0 130.0 L 115.0 144.0 L 110.0 152.0 L 109.0 153.0 " stroke="black" fill="none" stroke-width="5.0" stroke-linecap="round" stroke-linejoin="round" />
<path d="M 149.0 110.0 L 149.0 110.0 L 150.0 110.0 L 150.0 110.0 L 150.0 110.0 L 151.0 109.0 L 153.0 108.0 L 157.0 108.0 L 162.0 110.0 L 170.0 118.0 L 179.0 131.0 L 188.0 144.0 L 194.0 151.0 L 194.0 153.0 L 194.0 153.0 " stroke="black" fill="none" stroke-width="5.0" stroke-linecap="round" stroke-linejoin="round" />
<path d="M 139.0 133.0 L 139.0 133.0 L 139.0 133.0 L 139.0 133.0 L 141.0 133.0 L 149.0 133.0 L 159.0 132.0 L 164.0 132.0 L 165.0 132.0 " stroke="black" fill="none" stroke-width="5.0" stroke-linecap="round" stroke-linejoin="round" />
<path d="M 150.0 137.0 L 150.0 137.0 L 150.0 137.0 L 151.0 137.0 L 151.0 138.0 L 149.0 143.0 L 147.0 148.0 L 144.0 156.0 L 144.0 159.0 L 145.0 160.0 L 149.0 160.0 L 154.0 160.0 L 158.0 160.0 L 161.0 161.0 L 164.0 164.0 L 167.0 169.0 L 169.0 179.0 L 171.0 188.0 L 171.0 195.0 L 171.0 197.0 L 170.0 198.0 L 166.0 197.0 L 157.0 195.0 L 149.0 192.0 " stroke="black" fill="none" stroke-width="5.0" stroke-linecap="round" stroke-linejoin="round" />
</svg>