<svg xmlns="http://www.w3.org/2000/svg" width="300" height="300" viewBox="0 0 300 300">
<path d="M 133.0 119.0 L 133.0 119.0 L 132.0 120.0 L 131.0 121.0 L 130.0 124.0 L 126.0 132.0 L 119.0 143.0 L 112.0 153.0 L 110.0 155.0 " stroke="black" fill="none" stroke-width="5.0" stroke-linecap="round" stroke-linejoin="round" />
<path d="M 152.0 116.0 L 152.0 116.0 L 152.0 117.0 L 152.0 117.0 L 152.0 117.0 L 155.0 116.0 L 159.0 114.0 L 163.0 113.0 L 166.0 112.0 L 171.0 114.0 L 178.0 122.0 L 186.0 136.0 L 193.0 150.0 L 198.0 158.0 L 199.0 160.0 L 199.0 160.0 " stroke="black" fill="none" stroke-width="5.0" stroke-linecap="round" stroke-linejoin="round" />
<path d="M 137.0 144.0 L 138.0 144.0 L 139.0 144.0 L 143.0 144.0 L 150.0 144.0 L 159.0 143.0 L 166.0 143.0 L 167.0 144.0 " stroke="black" fill="none" stroke-width="5.0" stroke-linecap="round" stroke-linejoin="round" />
<path d="M 152.0 150.0 L 152.0 150.0 L 151.0 150.0 L 150.0 151.0 L 149.0 152.0 L 147.0 155.0 L 145.0 159.0 L 142.0 163.0 L 140.0 167.0 L 139.0 169.0 L 142.0 171.0 L 149.0 171.0 L 156.0 171.0 L 162.0 171.0 L 170.0 173.0 L 172.0 178.0 L 174.0 186.0 L 175.0 194.0 L 176.0 201.0 L 176.0 205.0 L 176.0 206.0 L 172.0 206.0 L 164.0 205.0 L 152.0 203.0 L 148.0 202.0 " stroke="black" fill="none" stroke-width="5.0" stroke-linecap="round" stroke-linejoin="round" />
</svg>