<svg xmlns="http://www.w3.org/2000/svg" width="300" height="300" viewBox="0 0 300 300">
<path d="M 132.0 116.0 L 132.0 116.0 L 132.0 116.0 L 131.0 116.0 L 130.0 118.0 L 127.0 122.0 L 121.0 131.0 L 114.0 141.0 L 110.0 146.0 " stroke="black" fill="none" stroke-width="5.0" stroke-linecap="round" stroke-linejoin="round" />
<path d="M 153.0 110.0 L 153.0 110.0 L 153.0 110.0 L 153.0 110.0 L 155.0 109.0 L 158.0 107.0 L 162.0 106.0 L 167.0 106.0 L 173.0 110.0 L 180.0 118.0 L 189.0 129.0 L 196.0 141.0 L 200.0 148.0 L 201.0 150.0 L 201.0 150.0 L 201.0 150.0 " stroke="black" fill="none" stroke-width="5.0" stroke-linecap="round" stroke-linejoin="round" />
<path d="M 139.0 137.0 L 139.0 137.0 L 139.0 137.0 L 139.0 137.0 L 145.0 136.0 L 154.0 136.0 L 164.0 136.0 L 171.0 136.0 L 172.0 136.0 L 171.0 137.0 " stroke="black" fill="none" stroke-width="5.0" stroke-linecap="round" stroke-linejoin="round" />
<path d="M 152.0 141.0 L 152.0 141.0 L 152.0 141.0 L 152.0 141.0 L 150.0 142.0 L 148.0 147.0 L 145.0 153.0 L 142.0 159.0 L 141.0 162.0 L 143.0 163.0 L 149.0 163.0 L 156.0 163.0 L 162.0 162.0 L 166.0 161.0 L 170.0 162.0 L 172.0 167.0 L 174.0 175.0 L 176.0 184.0 L 178.0 193.0 L 178.0 197.0 L 178.0 200.0 L 176.0 200.0 L 172.0 200.0 L 163.0 200.0 L 152.0 195.0 " stroke="black" fill="none" stroke-width="5.0" stroke-linecap="round" stroke-linejoin="round" />
</svg>