<svg xmlns="http://www.w3.org/2000/svg" width="300" height="300" viewBox="0 0 300 300">
<path d="M 133.0 118.0 L 133.0 118.0 L 133.0 120.0 L 132.0 122.0 L 130.0 125.0 L 127.0 130.0 L 122.0 138.0 L 116.0 148.0 L 115.0 150.0 " stroke="black" fill="none" stroke-width="5.0" stroke-linecap="round" stroke-linejoin="round" />
<path d="M 151.0 112.0 L 151.0 112.0 L 151.0 112.0 L 152.0 112.0 L 153.0 112.0 L 156.0 110.0 L 160.0 108.0 L 164.0 106.0 L 168.0 105.0 L 173.0 109.0 L 180.0 117.0 L 188.0 129.0 L 193.0 139.0 L 196.0 145.0 L 196.0 146.0 L 196.0 146.0 " stroke="black" fill="none" stroke-width="5.0" stroke-linecap="round" stroke-linejoin="round" />
<path d="M 142.0 139.0 L 142.0 139.0 L 142.0 139.0 L 145.0 139.0 L 151.0 138.0 L 161.0 137.0 L 168.0 137.0 L 171.0 138.0 L 171.0 138.0 " stroke="black" fill="none" stroke-width="5.0" stroke-linecap="round" stroke-linejoin="round" />
<path d="M 155.0 144.0 L 155.0 144.0 L 154.0 144.0 L 153.0 144.0 L 151.0 147.0 L 147.0 152.0 L 143.0 158.0 L 138.0 164.0 L 137.0 166.0 L 137.0 167.0 L 142.0 167.0 L 148.0 167.0 L 155.0 166.0 L 161.0 165.0 L 164.0 165.0 L 166.0 167.0 L 167.0 174.0 L 168.0 184.0 L 170.0 193.0 L 172.0 198.0 L 172.0 200.0 L 172.0 200.0 L 166.0 199.0 L 157.0 196.0 L 146.0 193.0 L 143.0 192.0 " stroke="black" fill="none" stroke-width="5.0" stroke-linecap="round" stroke-linejoin="round" />
</svg>