<svg xmlns="http://www.w3.org/2000/svg" width="300" height="300" viewBox="0 0 300 300">
<path d="M 138.0 119.0 L 138.0 119.0 L 137.0 119.0 L 137.0 120.0 L 135.0 122.0 L 132.0 127.0 L 126.0 136.0 L 120.0 146.0 L 115.0 152.0 L 114.0 153.0 " stroke="black" fill="none" stroke-width="5.0" stroke-linecap="round" stroke-linejoin="round" />
<path d="M 152.0 115.0 L 152.0 115.0 L 152.0 115.0 L 152.0 115.0 L 154.0 114.0 L 157.0 113.0 L 161.0 111.0 L 165.0 110.0 L 169.0 110.0 L 175.0 115.0 L 184.0 124.0 L 192.0 134.0 L 198.0 142.0 L 200.0 146.0 L 200.0 147.0 L 200.0 147.0 " stroke="black" fill="none" stroke-width="5.0" stroke-linecap="round" stroke-linejoin="round" />
<path d="M 143.0 140.0 L 143.0 140.0 L 143.0 140.0 L 145.0 140.0 L 151.0 139.0 L 159.0 138.0 L 165.0 138.0 L 167.0 139.0 L 167.0 140.0 " stroke="black" fill="none" stroke-width="5.0" stroke-linecap="round" stroke-linejoin="round" />
<path d="M 153.0 145.0 L 153.0 145.0 L 153.0 145.0 L 153.0 145.0 L 152.0 146.0 L 150.0 150.0 L 146.0 155.0 L 142.0 160.0 L 140.0 163.0 L 140.0 165.0 L 144.0 165.0 L 149.0 165.0 L 155.0 165.0 L 160.0 165.0 L 165.0 165.0 L 169.0 165.0 L 171.0 168.0 L 172.0 174.0 L 174.0 181.0 L 174.0 190.0 L 174.0 198.0 L 174.0 203.0 L 172.0 205.0 L 166.0 205.0 L 157.0 204.0 L 144.0 200.0 L 140.0 198.0 " stroke="black" fill="none" stroke-width="5.0" stroke-linecap="round" stroke-linejoin="round" />
</svg>