<svg xmlns="http://www.w3.org/2000/svg" width="300" height="300" viewBox="0 0 300 300">
<path d="M 115.0 123.0 L 115.0 123.0 L 115.0 123.0 L 115.0 123.0 L 115.0 123.0 L 115.0 123.0 L 115.0 123.0 L 115.0 125.0 L 115.0 133.0 L 115.0 144.0 L 114.0 158.0 L 114.0 169.0 L 113.0 175.0 L 113.0 176.0 L 113.0 176.0 L 113.0 174.0 " stroke="black" fill="none" stroke-width="5.0" stroke-linecap="round" stroke-linejoin="round" />
<path d="M 117.0 122.0 L 117.0 122.0 L 117.0 122.0 L 117.0 122.0 L 117.0 122.0 L 119.0 122.0 L 122.0 122.0 L 126.0 122.0 L 129.0 121.0 L 132.0 121.0 L 134.0 123.0 L 136.0 130.0 L 138.0 141.0 L 139.0 153.0 L 141.0 164.0 L 142.0 172.0 L 142.0 176.0 L 142.0 176.0 L 142.0 174.0 " stroke="black" fill="none" stroke-width="5.0" stroke-linecap="round" stroke-linejoin="round" />
<path d="M 121.0 147.0 L 121.0 147.0 L 121.0 147.0 L 121.0 147.0 L 123.0 147.0 L 128.0 147.0 L 134.0 148.0 L 140.0 148.0 " stroke="black" fill="none" stroke-width="5.0" stroke-linecap="round" stroke-linejoin="round" />
<path d="M 113.0 179.0 L 113.0 180.0 L 113.0 180.0 L 116.0 181.0 L 124.0 181.0 L 135.0 180.0 L 137.0 180.0 " stroke="black" fill="none" stroke-width="5.0" stroke-linecap="round" stroke-linejoin="round" />
<path d="M 158.0 104.0 L 158.0 104.0 L 159.0 104.0 L 160.0 104.0 L 162.0 105.0 L 166.0 106.0 L 170.0 108.0 L 170.0 109.0 " stroke="black" fill="none" stroke-width="5.0" stroke-linecap="round" stroke-linejoin="round" />
<path d="M 150.0 118.0 L 151.0 118.0 L 151.0 119.0 L 154.0 119.0 L 159.0 119.0 L 169.0 119.0 L 178.0 119.0 L 184.0 119.0 L 187.0 119.0 L 187.0 119.0 " stroke="black" fill="none" stroke-width="5.0" stroke-linecap="round" stroke-linejoin="round" />
<path d="M 159.0 121.0 L 160.0 121.0 L 160.0 121.0 L 161.0 121.0 L 161.0 122.0 L 162.0 126.0 L 163.0 133.0 L 164.0 139.0 L 164.0 141.0 " stroke="black" fill="none" stroke-width="5.0" stroke-linecap="round" stroke-linejoin="round" />
<path d="M 178.0 121.0 L 178.0 121.0 L 178.0 122.0 L 178.0 124.0 L 178.0 126.0 L 178.0 131.0 L 177.0 137.0 " stroke="black" fill="none" stroke-width="5.0" stroke-linecap="round" stroke-linejoin="round" />
<path d="M 147.0 144.0 L 147.0 144.0 L 147.0 144.0 L 147.0 144.0 L 150.0 144.0 L 158.0 144.0 L 173.0 143.0 L 185.0 142.0 L 192.0 141.0 L 194.0 141.0 L 194.0 141.0 " stroke="black" fill="none" stroke-width="5.0" stroke-linecap="round" stroke-linejoin="round" />
<path d="M 157.0 156.0 L 157.0 156.0 L 158.0 156.0 L 159.0 156.0 L 163.0 157.0 L 170.0 157.0 L 178.0 157.0 L 184.0 157.0 L 188.0 157.0 L 189.0 157.0 L 190.0 158.0 L 190.0 161.0 L 191.0 167.0 L 193.0 175.0 L 195.0 183.0 L 196.0 190.0 L 197.0 193.0 L 198.0 194.0 L 198.0 194.0 " stroke="black" fill="none" stroke-width="5.0" stroke-linecap="round" stroke-linejoin="round" />
<path d="M 158.0 159.0 L 158.0 159.0 L 158.0 160.0 L 158.0 161.0 L 158.0 165.0 L 158.0 174.0 L 158.0 184.0 L 158.0 191.0 L 158.0 194.0 " stroke="black" fill="none" stroke-width="5.0" stroke-linecap="round" stroke-linejoin="round" />
<path d="M 162.0 173.0 L 163.0 173.0 L 165.0 173.0 L 169.0 173.0 L 174.0 174.0 L 180.0 175.0 L 186.0 175.0 L 190.0 175.0 L 191.0 176.0 L 191.0 177.0 " stroke="black" fill="none" stroke-width="5.0" stroke-linecap="round" stroke-linejoin="round" />
<path d="M 161.0 198.0 L 163.0 198.0 L 164.0 199.0 L 167.0 200.0 L 173.0 200.0 L 182.0 200.0 L 191.0 200.0 L 197.0 201.0 L 198.0 201.0 " stroke="black" fill="none" stroke-width="5.0" stroke-linecap="round" stroke-linejoin="round" />
</svg>