<svg xmlns="http://www.w3.org/2000/svg" width="300" height="300" viewBox="0 0 300 300">
<path d="M 125.0 121.0 L 126.0 123.0 L 128.0 123.0 L 132.0 124.0 L 143.0 125.0 L 157.0 125.0 L 171.0 125.0 L 178.0 125.0 " stroke="black" fill="none" stroke-width="5.0" stroke-linecap="round" stroke-linejoin="round" />
<path d="M 149.0 100.0 L 149.0 101.0 L 149.0 101.0 L 148.0 103.0 L 148.0 107.0 L 148.0 118.0 L 149.0 142.0 L 149.0 174.0 L 148.0 197.0 L 148.0 204.0 " stroke="black" fill="none" stroke-width="5.0" stroke-linecap="round" stroke-linejoin="round" />
<path d="M 135.0 135.0 L 135.0 135.0 L 134.0 135.0 L 133.0 136.0 L 132.0 137.0 L 130.0 141.0 L 126.0 148.0 L 121.0 154.0 L 119.0 155.0 " stroke="black" fill="none" stroke-width="5.0" stroke-linecap="round" stroke-linejoin="round" />
<path d="M 130.0 147.0 L 130.0 147.0 L 130.0 147.0 L 130.0 149.0 L 133.0 151.0 L 140.0 154.0 L 143.0 156.0 " stroke="black" fill="none" stroke-width="5.0" stroke-linecap="round" stroke-linejoin="round" />
<path d="M 163.0 134.0 L 163.0 136.0 L 162.0 138.0 L 161.0 141.0 L 158.0 145.0 L 155.0 150.0 L 153.0 152.0 " stroke="black" fill="none" stroke-width="5.0" stroke-linecap="round" stroke-linejoin="round" />
<path d="M 155.0 146.0 L 155.0 146.0 L 155.0 146.0 L 156.0 146.0 L 160.0 148.0 L 167.0 151.0 L 175.0 156.0 L 179.0 160.0 " stroke="black" fill="none" stroke-width="5.0" stroke-linecap="round" stroke-linejoin="round" />
<path d="M 148.0 164.0 L 148.0 164.0 L 148.0 164.0 L 147.0 164.0 L 147.0 164.0 L 146.0 165.0 L 141.0 168.0 L 130.0 176.0 L 114.0 186.0 L 106.0 190.0 " stroke="black" fill="none" stroke-width="5.0" stroke-linecap="round" stroke-linejoin="round" />
<path d="M 150.0 165.0 L 151.0 166.0 L 155.0 168.0 L 162.0 173.0 L 172.0 180.0 L 182.0 187.0 L 189.0 191.0 " stroke="black" fill="none" stroke-width="5.0" stroke-linecap="round" stroke-linejoin="round" />
</svg>