<svg xmlns="http://www.w3.org/2000/svg" width="300" height="300" viewBox="0 0 300 300">
<path d="M 122.0 118.0 L 123.0 119.0 L 123.0 120.0 L 125.0 120.0 L 130.0 120.0 L 140.0 119.0 L 154.0 117.0 L 166.0 116.0 L 176.0 116.0 L 181.0 116.0 L 182.0 116.0 L 180.0 116.0 " stroke="black" fill="none" stroke-width="5.0" stroke-linecap="round" stroke-linejoin="round" />
<path d="M 150.0 97.0 L 150.0 96.0 L 150.0 96.0 L 150.0 97.0 L 150.0 107.0 L 151.0 129.0 L 152.0 153.0 L 152.0 172.0 L 153.0 183.0 L 154.0 187.0 L 154.0 189.0 L 154.0 189.0 L 154.0 188.0 " stroke="black" fill="none" stroke-width="5.0" stroke-linecap="round" stroke-linejoin="round" />
<path d="M 139.0 127.0 L 139.0 127.0 L 139.0 129.0 L 138.0 130.0 L 137.0 132.0 L 136.0 135.0 L 135.0 140.0 L 132.0 145.0 L 128.0 149.0 L 127.0 150.0 " stroke="black" fill="none" stroke-width="5.0" stroke-linecap="round" stroke-linejoin="round" />
<path d="M 136.0 140.0 L 136.0 140.0 L 136.0 140.0 L 137.0 141.0 L 141.0 143.0 L 146.0 145.0 L 147.0 146.0 " stroke="black" fill="none" stroke-width="5.0" stroke-linecap="round" stroke-linejoin="round" />
<path d="M 165.0 129.0 L 165.0 130.0 L 165.0 131.0 L 164.0 132.0 L 163.0 135.0 L 160.0 139.0 L 157.0 144.0 L 154.0 147.0 " stroke="black" fill="none" stroke-width="5.0" stroke-linecap="round" stroke-linejoin="round" />
<path d="M 159.0 139.0 L 160.0 139.0 L 161.0 140.0 L 163.0 141.0 L 167.0 142.0 L 171.0 144.0 L 172.0 144.0 " stroke="black" fill="none" stroke-width="5.0" stroke-linecap="round" stroke-linejoin="round" />
<path d="M 152.0 151.0 L 152.0 151.0 L 151.0 151.0 L 149.0 152.0 L 145.0 155.0 L 139.0 162.0 L 130.0 170.0 L 120.0 178.0 L 113.0 183.0 L 112.0 184.0 " stroke="black" fill="none" stroke-width="5.0" stroke-linecap="round" stroke-linejoin="round" />
<path d="M 151.0 151.0 L 151.0 151.0 L 151.0 151.0 L 151.0 152.0 L 156.0 157.0 L 168.0 168.0 L 184.0 182.0 L 195.0 190.0 L 199.0 193.0 L 200.0 193.0 " stroke="black" fill="none" stroke-width="5.0" stroke-linecap="round" stroke-linejoin="round" />
</svg>