<svg xmlns="http://www.w3.org/2000/svg" width="300" height="300" viewBox="0 0 300 300">
<path d="M 122.0 116.0 L 122.0 116.0 L 122.0 116.0 L 122.0 117.0 L 124.0 117.0 L 132.0 118.0 L 146.0 118.0 L 160.0 118.0 L 168.0 118.0 L 170.0 118.0 L 170.0 118.0 " stroke="black" fill="none" stroke-width="5.0" stroke-linecap="round" stroke-linejoin="round" />
<path d="M 147.0 103.0 L 147.0 103.0 L 147.0 103.0 L 147.0 103.0 L 146.0 104.0 L 147.0 112.0 L 148.0 136.0 L 149.0 166.0 L 149.0 185.0 L 150.0 193.0 L 151.0 196.0 L 151.0 196.0 " stroke="black" fill="none" stroke-width="5.0" stroke-linecap="round" stroke-linejoin="round" />
<path d="M 136.0 133.0 L 136.0 133.0 L 135.0 132.0 L 135.0 133.0 L 135.0 136.0 L 132.0 143.0 L 128.0 152.0 L 124.0 157.0 " stroke="black" fill="none" stroke-width="5.0" stroke-linecap="round" stroke-linejoin="round" />
<path d="M 135.0 142.0 L 135.0 142.0 L 135.0 143.0 L 135.0 143.0 L 138.0 145.0 L 142.0 147.0 " stroke="black" fill="none" stroke-width="5.0" stroke-linecap="round" stroke-linejoin="round" />
<path d="M 161.0 134.0 L 161.0 134.0 L 161.0 134.0 L 161.0 134.0 L 161.0 134.0 L 161.0 137.0 L 158.0 145.0 L 153.0 155.0 " stroke="black" fill="none" stroke-width="5.0" stroke-linecap="round" stroke-linejoin="round" />
<path d="M 158.0 146.0 L 158.0 146.0 L 158.0 146.0 L 159.0 146.0 L 162.0 146.0 L 169.0 148.0 L 173.0 151.0 " stroke="black" fill="none" stroke-width="5.0" stroke-linecap="round" stroke-linejoin="round" />
<path d="M 152.0 158.0 L 152.0 158.0 L 152.0 158.0 L 151.0 158.0 L 149.0 161.0 L 144.0 167.0 L 135.0 176.0 L 124.0 185.0 L 116.0 190.0 " stroke="black" fill="none" stroke-width="5.0" stroke-linecap="round" stroke-linejoin="round" />
<path d="M 147.0 165.0 L 147.0 165.0 L 147.0 165.0 L 148.0 165.0 L 154.0 169.0 L 167.0 177.0 L 180.0 186.0 L 188.0 191.0 L 189.0 193.0 " stroke="black" fill="none" stroke-width="5.0" stroke-linecap="round" stroke-linejoin="round" />
</svg>