<svg xmlns="http://www.w3.org/2000/svg" width="300" height="300" viewBox="0 0 300 300">
<path d="M 138.0 105.0 L 138.0 105.0 L 137.0 106.0 L 136.0 107.0 L 135.0 110.0 L 132.0 116.0 L 125.0 124.0 L 117.0 133.0 L 115.0 135.0 " stroke="black" fill="none" stroke-width="5.0" stroke-linecap="round" stroke-linejoin="round" />
<path d="M 132.0 122.0 L 132.0 122.0 L 132.0 123.0 L 132.0 123.0 L 132.0 124.0 L 133.0 129.0 L 134.0 139.0 L 135.0 155.0 L 136.0 172.0 L 136.0 185.0 L 134.0 191.0 L 131.0 192.0 L 126.0 192.0 L 117.0 189.0 L 109.0 186.0 " stroke="black" fill="none" stroke-width="5.0" stroke-linecap="round" stroke-linejoin="round" />
<path d="M 107.0 153.0 L 107.0 153.0 L 109.0 153.0 L 112.0 153.0 L 124.0 153.0 L 145.0 153.0 L 163.0 152.0 L 172.0 151.0 " stroke="black" fill="none" stroke-width="5.0" stroke-linecap="round" stroke-linejoin="round" />
<path d="M 151.0 118.0 L 151.0 119.0 L 151.0 121.0 L 152.0 128.0 L 155.0 145.0 L 161.0 170.0 L 165.0 188.0 L 169.0 196.0 L 173.0 195.0 " stroke="black" fill="none" stroke-width="5.0" stroke-linecap="round" stroke-linejoin="round" />
<path d="M 172.0 163.0 L 172.0 163.0 L 172.0 165.0 L 171.0 167.0 L 168.0 173.0 L 162.0 182.0 L 157.0 188.0 " stroke="black" fill="none" stroke-width="5.0" stroke-linecap="round" stroke-linejoin="round" />
<path d="M 112.0 176.0 L 113.0 176.0 L 114.0 176.0 L 120.0 175.0 L 134.0 170.0 L 149.0 164.0 L 152.0 163.0 " stroke="black" fill="none" stroke-width="5.0" stroke-linecap="round" stroke-linejoin="round" />
<path d="M 175.0 121.0 L 177.0 126.0 L 181.0 131.0 L 184.0 134.0 " stroke="black" fill="none" stroke-width="5.0" stroke-linecap="round" stroke-linejoin="round" />
</svg>