<svg xmlns="http://www.w3.org/2000/svg" width="300" height="300" viewBox="0 0 300 300">
<path d="M 123.0 111.0 L 123.0 111.0 L 124.0 111.0 L 125.0 111.0 L 127.0 111.0 L 132.0 111.0 L 140.0 110.0 L 149.0 108.0 L 156.0 106.0 L 161.0 105.0 L 165.0 105.0 L 166.0 105.0 L 166.0 107.0 L 167.0 111.0 L 169.0 119.0 L 173.0 132.0 L 178.0 146.0 L 183.0 155.0 L 186.0 157.0 L 189.0 157.0 L 193.0 150.0 L 196.0 142.0 L 196.0 138.0 " stroke="black" fill="none" stroke-width="5.0" stroke-linecap="round" stroke-linejoin="round" />
<path d="M 170.0 124.0 L 171.0 124.0 L 171.0 125.0 L 172.0 126.0 L 176.0 128.0 L 181.0 130.0 L 184.0 132.0 L 185.0 132.0 " stroke="black" fill="none" stroke-width="5.0" stroke-linecap="round" stroke-linejoin="round" />
<path d="M 178.0 125.0 L 178.0 125.0 L 178.0 125.0 L 178.0 125.0 L 179.0 122.0 L 181.0 120.0 " stroke="black" fill="none" stroke-width="5.0" stroke-linecap="round" stroke-linejoin="round" />
<path d="M 135.0 125.0 L 135.0 125.0 L 135.0 126.0 L 135.0 126.0 L 135.0 129.0 L 132.0 136.0 L 126.0 144.0 L 119.0 153.0 L 113.0 157.0 " stroke="black" fill="none" stroke-width="5.0" stroke-linecap="round" stroke-linejoin="round" />
<path d="M 128.0 143.0 L 128.0 143.0 L 128.0 143.0 L 128.0 143.0 L 128.0 145.0 L 129.0 153.0 L 129.0 167.0 L 129.0 181.0 L 129.0 187.0 L 129.0 187.0 " stroke="black" fill="none" stroke-width="5.0" stroke-linecap="round" stroke-linejoin="round" />
<path d="M 147.0 131.0 L 147.0 132.0 L 147.0 133.0 L 147.0 136.0 L 148.0 144.0 L 149.0 159.0 L 150.0 176.0 L 150.0 187.0 L 150.0 191.0 L 150.0 191.0 " stroke="black" fill="none" stroke-width="5.0" stroke-linecap="round" stroke-linejoin="round" />
<path d="M 117.0 161.0 L 117.0 161.0 L 118.0 161.0 L 121.0 161.0 L 129.0 160.0 L 141.0 157.0 L 152.0 155.0 L 158.0 153.0 L 160.0 152.0 L 160.0 152.0 L 160.0 152.0 L 161.0 153.0 L 161.0 154.0 L 162.0 156.0 L 163.0 159.0 L 166.0 166.0 L 170.0 177.0 L 174.0 188.0 L 180.0 196.0 L 185.0 202.0 L 189.0 206.0 L 193.0 206.0 L 196.0 205.0 L 199.0 200.0 L 200.0 194.0 L 200.0 192.0 " stroke="black" fill="none" stroke-width="5.0" stroke-linecap="round" stroke-linejoin="round" />
<path d="M 174.0 172.0 L 174.0 172.0 L 174.0 173.0 L 174.0 174.0 L 177.0 176.0 L 181.0 179.0 L 185.0 182.0 L 187.0 183.0 " stroke="black" fill="none" stroke-width="5.0" stroke-linecap="round" stroke-linejoin="round" />
<path d="M 180.0 177.0 L 180.0 177.0 L 180.0 177.0 L 180.0 177.0 L 180.0 175.0 L 184.0 171.0 " stroke="black" fill="none" stroke-width="5.0" stroke-linecap="round" stroke-linejoin="round" />
</svg>