<svg xmlns="http://www.w3.org/2000/svg" width="300" height="300" viewBox="0 0 300 300">
<path d="M 133.0 103.0 L 133.0 103.0 L 133.0 103.0 L 133.0 103.0 L 133.0 103.0 L 133.0 103.0 L 132.0 107.0 L 129.0 116.0 L 122.0 128.0 L 116.0 138.0 L 114.0 140.0 " stroke="black" fill="none" stroke-width="5.0" stroke-linecap="round" stroke-linejoin="round" />
<path d="M 130.0 118.0 L 130.0 118.0 L 131.0 118.0 L 132.0 118.0 L 135.0 118.0 L 139.0 118.0 L 146.0 118.0 L 153.0 117.0 L 160.0 117.0 L 166.0 117.0 L 169.0 117.0 L 170.0 117.0 L 170.0 117.0 L 170.0 117.0 L 171.0 118.0 L 171.0 119.0 L 171.0 119.0 " stroke="black" fill="none" stroke-width="5.0" stroke-linecap="round" stroke-linejoin="round" />
<path d="M 134.0 136.0 L 134.0 136.0 L 134.0 136.0 L 134.0 136.0 L 134.0 136.0 L 137.0 136.0 L 142.0 136.0 L 148.0 136.0 L 154.0 136.0 L 158.0 137.0 L 161.0 137.0 L 162.0 137.0 L 163.0 138.0 L 165.0 143.0 L 168.0 154.0 L 171.0 167.0 L 174.0 181.0 L 176.0 191.0 L 178.0 198.0 L 178.0 202.0 L 176.0 204.0 L 173.0 205.0 L 166.0 205.0 L 156.0 202.0 " stroke="black" fill="none" stroke-width="5.0" stroke-linecap="round" stroke-linejoin="round" />
<path d="M 137.0 141.0 L 137.0 141.0 L 136.0 141.0 L 135.0 142.0 L 133.0 145.0 L 131.0 153.0 L 129.0 164.0 L 128.0 175.0 L 128.0 182.0 L 133.0 184.0 L 141.0 185.0 L 152.0 185.0 L 162.0 185.0 L 178.0 184.0 L 180.0 184.0 L 180.0 184.0 " stroke="black" fill="none" stroke-width="5.0" stroke-linecap="round" stroke-linejoin="round" />
<path d="M 115.0 159.0 L 115.0 159.0 L 116.0 159.0 L 119.0 159.0 L 126.0 159.0 L 140.0 159.0 L 157.0 159.0 L 167.0 157.0 L 170.0 157.0 " stroke="black" fill="none" stroke-width="5.0" stroke-linecap="round" stroke-linejoin="round" />
<path d="M 147.0 143.0 L 147.0 143.0 L 147.0 145.0 L 147.0 148.0 L 148.0 153.0 " stroke="black" fill="none" stroke-width="5.0" stroke-linecap="round" stroke-linejoin="round" />
<path d="M 146.0 165.0 L 147.0 167.0 L 149.0 170.0 L 151.0 174.0 L 154.0 177.0 " stroke="black" fill="none" stroke-width="5.0" stroke-linecap="round" stroke-linejoin="round" />
</svg>