<svg xmlns="http://www.w3.org/2000/svg" width="300" height="300" viewBox="0 0 300 300">
<path d="M 138.0 102.0 L 138.0 102.0 L 138.0 102.0 L 137.0 102.0 L 137.0 104.0 L 135.0 110.0 L 132.0 121.0 L 127.0 133.0 L 123.0 141.0 L 122.0 141.0 " stroke="black" fill="none" stroke-width="5.0" stroke-linecap="round" stroke-linejoin="round" />
<path d="M 139.0 116.0 L 139.0 117.0 L 138.0 117.0 L 137.0 117.0 L 137.0 117.0 L 142.0 117.0 L 150.0 117.0 L 160.0 116.0 L 171.0 115.0 L 177.0 114.0 L 179.0 113.0 L 179.0 113.0 L 178.0 113.0 " stroke="black" fill="none" stroke-width="5.0" stroke-linecap="round" stroke-linejoin="round" />
<path d="M 141.0 134.0 L 141.0 134.0 L 141.0 134.0 L 140.0 134.0 L 141.0 134.0 L 145.0 134.0 L 152.0 133.0 L 159.0 133.0 L 165.0 132.0 L 168.0 132.0 L 169.0 132.0 L 169.0 133.0 L 170.0 137.0 L 172.0 147.0 L 175.0 163.0 L 178.0 178.0 L 179.0 188.0 L 179.0 194.0 L 178.0 196.0 L 176.0 197.0 L 171.0 197.0 L 164.0 196.0 L 156.0 194.0 L 154.0 194.0 " stroke="black" fill="none" stroke-width="5.0" stroke-linecap="round" stroke-linejoin="round" />
<path d="M 141.0 141.0 L 141.0 141.0 L 140.0 141.0 L 139.0 143.0 L 139.0 148.0 L 138.0 158.0 L 136.0 170.0 L 135.0 178.0 L 134.0 181.0 L 134.0 182.0 L 137.0 182.0 L 143.0 182.0 L 152.0 181.0 L 162.0 180.0 L 172.0 179.0 L 181.0 179.0 L 186.0 179.0 L 187.0 180.0 L 187.0 180.0 " stroke="black" fill="none" stroke-width="5.0" stroke-linecap="round" stroke-linejoin="round" />
<path d="M 121.0 158.0 L 121.0 158.0 L 122.0 158.0 L 125.0 158.0 L 135.0 157.0 L 151.0 155.0 L 168.0 154.0 L 180.0 152.0 L 184.0 151.0 L 182.0 152.0 " stroke="black" fill="none" stroke-width="5.0" stroke-linecap="round" stroke-linejoin="round" />
<path d="M 155.0 139.0 L 155.0 139.0 L 155.0 139.0 L 155.0 139.0 L 155.0 142.0 L 156.0 149.0 L 157.0 157.0 " stroke="black" fill="none" stroke-width="5.0" stroke-linecap="round" stroke-linejoin="round" />
<path d="M 154.0 163.0 L 155.0 164.0 L 156.0 166.0 L 158.0 168.0 L 161.0 171.0 L 163.0 173.0 " stroke="black" fill="none" stroke-width="5.0" stroke-linecap="round" stroke-linejoin="round" />
</svg>