<svg xmlns="http://www.w3.org/2000/svg" width="300" height="300" viewBox="0 0 300 300">
<path d="M 138.0 100.0 L 138.0 100.0 L 138.0 100.0 L 138.0 99.0 L 138.0 99.0 L 138.0 100.0 L 142.0 105.0 L 147.0 111.0 " stroke="black" fill="none" stroke-width="5.0" stroke-linecap="round" stroke-linejoin="round" />
<path d="M 112.0 122.0 L 112.0 122.0 L 113.0 122.0 L 115.0 123.0 L 122.0 123.0 L 137.0 122.0 L 154.0 121.0 L 164.0 120.0 L 168.0 120.0 L 168.0 121.0 " stroke="black" fill="none" stroke-width="5.0" stroke-linecap="round" stroke-linejoin="round" />
<path d="M 116.0 128.0 L 116.0 129.0 L 116.0 131.0 L 115.0 137.0 L 114.0 152.0 L 111.0 173.0 L 108.0 190.0 L 106.0 198.0 L 106.0 200.0 L 106.0 199.0 " stroke="black" fill="none" stroke-width="5.0" stroke-linecap="round" stroke-linejoin="round" />
<path d="M 130.0 141.0 L 131.0 141.0 L 132.0 141.0 L 133.0 141.0 L 137.0 141.0 L 144.0 139.0 L 151.0 138.0 L 155.0 137.0 L 157.0 137.0 L 158.0 140.0 L 158.0 146.0 L 159.0 152.0 L 160.0 157.0 L 160.0 160.0 L 160.0 160.0 " stroke="black" fill="none" stroke-width="5.0" stroke-linecap="round" stroke-linejoin="round" />
<path d="M 120.0 152.0 L 121.0 152.0 L 123.0 152.0 L 130.0 152.0 L 142.0 152.0 L 154.0 151.0 L 162.0 151.0 L 166.0 151.0 L 167.0 151.0 L 166.0 152.0 L 164.0 152.0 " stroke="black" fill="none" stroke-width="5.0" stroke-linecap="round" stroke-linejoin="round" />
<path d="M 129.0 164.0 L 129.0 165.0 L 130.0 165.0 L 135.0 166.0 L 144.0 166.0 L 155.0 165.0 L 163.0 164.0 L 166.0 164.0 " stroke="black" fill="none" stroke-width="5.0" stroke-linecap="round" stroke-linejoin="round" />
<path d="M 146.0 131.0 L 146.0 131.0 L 146.0 131.0 L 146.0 131.0 L 146.0 132.0 L 147.0 142.0 L 147.0 162.0 L 147.0 180.0 L 147.0 185.0 " stroke="black" fill="none" stroke-width="5.0" stroke-linecap="round" stroke-linejoin="round" />
<path d="M 127.0 186.0 L 127.0 186.0 L 127.0 186.0 L 127.0 186.0 L 127.0 187.0 L 129.0 191.0 L 131.0 199.0 L 133.0 204.0 " stroke="black" fill="none" stroke-width="5.0" stroke-linecap="round" stroke-linejoin="round" />
<path d="M 131.0 186.0 L 131.0 186.0 L 132.0 186.0 L 137.0 186.0 L 145.0 185.0 L 154.0 185.0 L 162.0 186.0 L 168.0 189.0 L 172.0 192.0 L 173.0 197.0 L 173.0 201.0 L 173.0 205.0 L 172.0 207.0 " stroke="black" fill="none" stroke-width="5.0" stroke-linecap="round" stroke-linejoin="round" />
<path d="M 137.0 209.0 L 137.0 209.0 L 137.0 210.0 L 140.0 210.0 L 147.0 211.0 L 158.0 211.0 L 168.0 211.0 L 173.0 211.0 " stroke="black" fill="none" stroke-width="5.0" stroke-linecap="round" stroke-linejoin="round" />
</svg>