<svg xmlns="http://www.w3.org/2000/svg" width="300" height="300" viewBox="0 0 300 300">
<path d="M 113.0 141.0 L 115.0 141.0 L 116.0 141.0 L 119.0 141.0 L 125.0 141.0 L 132.0 140.0 L 134.0 140.0 " stroke="black" fill="none" stroke-width="5.0" stroke-linecap="round" stroke-linejoin="round" />
<path d="M 106.0 173.0 L 109.0 173.0 L 113.0 172.0 L 120.0 170.0 L 130.0 167.0 L 137.0 165.0 " stroke="black" fill="none" stroke-width="5.0" stroke-linecap="round" stroke-linejoin="round" />
<path d="M 121.0 130.0 L 121.0 130.0 L 121.0 130.0 L 121.0 133.0 L 121.0 143.0 L 121.0 156.0 L 121.0 161.0 " stroke="black" fill="none" stroke-width="5.0" stroke-linecap="round" stroke-linejoin="round" />
<path d="M 152.0 115.0 L 152.0 115.0 L 152.0 115.0 L 152.0 116.0 L 154.0 116.0 L 161.0 117.0 L 172.0 117.0 L 180.0 117.0 L 182.0 117.0 " stroke="black" fill="none" stroke-width="5.0" stroke-linecap="round" stroke-linejoin="round" />
<path d="M 149.0 132.0 L 149.0 132.0 L 149.0 132.0 L 148.0 132.0 L 148.0 133.0 L 148.0 136.0 L 148.0 144.0 L 149.0 152.0 L 150.0 156.0 L 151.0 156.0 " stroke="black" fill="none" stroke-width="5.0" stroke-linecap="round" stroke-linejoin="round" />
<path d="M 150.0 129.0 L 150.0 129.0 L 151.0 130.0 L 151.0 130.0 L 154.0 130.0 L 160.0 130.0 L 168.0 130.0 L 175.0 130.0 L 181.0 132.0 L 184.0 136.0 L 186.0 142.0 L 187.0 151.0 L 189.0 158.0 L 189.0 162.0 L 189.0 162.0 " stroke="black" fill="none" stroke-width="5.0" stroke-linecap="round" stroke-linejoin="round" />
<path d="M 153.0 143.0 L 153.0 143.0 L 153.0 143.0 L 154.0 143.0 L 158.0 143.0 L 167.0 143.0 L 176.0 143.0 L 182.0 144.0 L 184.0 145.0 L 184.0 145.0 " stroke="black" fill="none" stroke-width="5.0" stroke-linecap="round" stroke-linejoin="round" />
<path d="M 152.0 161.0 L 152.0 161.0 L 153.0 162.0 L 156.0 162.0 L 162.0 163.0 L 172.0 163.0 L 181.0 163.0 L 186.0 163.0 L 187.0 163.0 " stroke="black" fill="none" stroke-width="5.0" stroke-linecap="round" stroke-linejoin="round" />
<path d="M 138.0 185.0 L 138.0 185.0 L 140.0 185.0 L 142.0 185.0 L 148.0 185.0 L 159.0 186.0 L 175.0 186.0 L 187.0 186.0 L 195.0 186.0 L 198.0 187.0 " stroke="black" fill="none" stroke-width="5.0" stroke-linecap="round" stroke-linejoin="round" />
</svg>