<svg xmlns="http://www.w3.org/2000/svg" width="300" height="300" viewBox="0 0 300 300">
<path d="M 119.0 108.0 L 119.0 108.0 L 120.0 107.0 L 120.0 107.0 L 120.0 107.0 L 120.0 109.0 L 120.0 114.0 L 120.0 121.0 L 120.0 127.0 L 120.0 132.0 L 120.0 133.0 " stroke="black" fill="none" stroke-width="5.0" stroke-linecap="round" stroke-linejoin="round" />
<path d="M 106.0 122.0 L 106.0 122.0 L 106.0 122.0 L 106.0 122.0 L 108.0 122.0 L 112.0 122.0 L 114.0 121.0 " stroke="black" fill="none" stroke-width="5.0" stroke-linecap="round" stroke-linejoin="round" />
<path d="M 134.0 106.0 L 134.0 106.0 L 133.0 107.0 L 133.0 109.0 L 133.0 114.0 L 133.0 120.0 L 133.0 127.0 L 133.0 132.0 L 133.0 133.0 " stroke="black" fill="none" stroke-width="5.0" stroke-linecap="round" stroke-linejoin="round" />
<path d="M 133.0 116.0 L 133.0 117.0 L 133.0 118.0 L 133.0 118.0 L 135.0 119.0 L 137.0 119.0 L 141.0 119.0 L 142.0 119.0 " stroke="black" fill="none" stroke-width="5.0" stroke-linecap="round" stroke-linejoin="round" />
<path d="M 111.0 137.0 L 111.0 137.0 L 112.0 136.0 L 112.0 136.0 L 112.0 136.0 L 112.0 136.0 L 112.0 139.0 L 110.0 146.0 L 107.0 153.0 L 106.0 156.0 " stroke="black" fill="none" stroke-width="5.0" stroke-linecap="round" stroke-linejoin="round" />
<path d="M 110.0 146.0 L 110.0 146.0 L 110.0 146.0 L 111.0 146.0 L 112.0 146.0 L 117.0 145.0 L 125.0 145.0 L 133.0 144.0 L 138.0 144.0 L 141.0 144.0 L 143.0 145.0 L 144.0 148.0 L 145.0 155.0 L 147.0 166.0 L 149.0 179.0 L 150.0 189.0 L 151.0 196.0 L 151.0 200.0 L 149.0 202.0 L 145.0 202.0 L 137.0 200.0 L 132.0 198.0 " stroke="black" fill="none" stroke-width="5.0" stroke-linecap="round" stroke-linejoin="round" />
<path d="M 112.0 163.0 L 112.0 163.0 L 111.0 165.0 L 111.0 167.0 L 111.0 171.0 L 111.0 175.0 L 112.0 177.0 " stroke="black" fill="none" stroke-width="5.0" stroke-linecap="round" stroke-linejoin="round" />
<path d="M 114.0 163.0 L 114.0 163.0 L 114.0 163.0 L 114.0 163.0 L 116.0 163.0 L 119.0 163.0 L 124.0 163.0 L 127.0 163.0 L 130.0 164.0 L 132.0 167.0 L 133.0 171.0 L 134.0 175.0 L 134.0 177.0 L 134.0 178.0 " stroke="black" fill="none" stroke-width="5.0" stroke-linecap="round" stroke-linejoin="round" />
<path d="M 115.0 180.0 L 115.0 180.0 L 117.0 181.0 L 122.0 181.0 L 129.0 180.0 L 132.0 180.0 " stroke="black" fill="none" stroke-width="5.0" stroke-linecap="round" stroke-linejoin="round" />
<path d="M 157.0 114.0 L 157.0 114.0 L 157.0 114.0 L 157.0 114.0 L 157.0 114.0 L 157.0 114.0 L 157.0 118.0 L 154.0 129.0 L 149.0 145.0 L 146.0 155.0 L 146.0 155.0 " stroke="black" fill="none" stroke-width="5.0" stroke-linecap="round" stroke-linejoin="round" />
<path d="M 156.0 133.0 L 156.0 133.0 L 157.0 133.0 L 158.0 132.0 L 164.0 131.0 L 173.0 130.0 L 181.0 130.0 L 185.0 129.0 " stroke="black" fill="none" stroke-width="5.0" stroke-linecap="round" stroke-linejoin="round" />
<path d="M 177.0 133.0 L 177.0 133.0 L 176.0 133.0 L 176.0 136.0 L 176.0 143.0 L 176.0 157.0 L 173.0 175.0 L 169.0 190.0 L 166.0 198.0 L 164.0 200.0 " stroke="black" fill="none" stroke-width="5.0" stroke-linecap="round" stroke-linejoin="round" />
<path d="M 155.0 147.0 L 155.0 147.0 L 156.0 148.0 L 159.0 154.0 L 169.0 169.0 L 180.0 187.0 L 188.0 199.0 L 191.0 205.0 L 193.0 207.0 L 193.0 207.0 L 193.0 206.0 " stroke="black" fill="none" stroke-width="5.0" stroke-linecap="round" stroke-linejoin="round" />
</svg>