<svg xmlns="http://www.w3.org/2000/svg" width="300" height="300" viewBox="0 0 300 300">
<path d="M 134.0 108.0 L 134.0 108.0 L 134.0 108.0 L 134.0 108.0 L 135.0 108.0 L 140.0 108.0 L 150.0 108.0 L 159.0 107.0 L 166.0 107.0 L 167.0 107.0 " stroke="black" fill="none" stroke-width="5.0" stroke-linecap="round" stroke-linejoin="round" />
<path d="M 123.0 127.0 L 123.0 127.0 L 123.0 128.0 L 123.0 130.0 L 123.0 134.0 L 123.0 138.0 L 123.0 138.0 " stroke="black" fill="none" stroke-width="5.0" stroke-linecap="round" stroke-linejoin="round" />
<path d="M 122.0 124.0 L 122.0 124.0 L 122.0 124.0 L 123.0 124.0 L 125.0 124.0 L 133.0 124.0 L 145.0 122.0 L 157.0 120.0 L 168.0 118.0 L 177.0 118.0 L 183.0 118.0 L 185.0 119.0 L 186.0 121.0 L 187.0 126.0 L 187.0 131.0 L 187.0 136.0 L 187.0 141.0 L 186.0 142.0 " stroke="black" fill="none" stroke-width="5.0" stroke-linecap="round" stroke-linejoin="round" />
<path d="M 150.0 108.0 L 150.0 109.0 L 150.0 110.0 L 151.0 114.0 L 152.0 123.0 L 153.0 131.0 L 153.0 134.0 " stroke="black" fill="none" stroke-width="5.0" stroke-linecap="round" stroke-linejoin="round" />
<path d="M 136.0 132.0 L 136.0 132.0 L 136.0 132.0 L 136.0 133.0 L 137.0 133.0 L 141.0 133.0 L 142.0 133.0 " stroke="black" fill="none" stroke-width="5.0" stroke-linecap="round" stroke-linejoin="round" />
<path d="M 135.0 142.0 L 135.0 142.0 L 136.0 142.0 L 137.0 142.0 L 139.0 142.0 L 141.0 141.0 " stroke="black" fill="none" stroke-width="5.0" stroke-linecap="round" stroke-linejoin="round" />
<path d="M 162.0 129.0 L 164.0 129.0 L 165.0 129.0 L 167.0 129.0 L 169.0 129.0 L 171.0 128.0 L 171.0 128.0 " stroke="black" fill="none" stroke-width="5.0" stroke-linecap="round" stroke-linejoin="round" />
<path d="M 162.0 136.0 L 162.0 136.0 L 164.0 136.0 L 165.0 136.0 L 168.0 137.0 L 171.0 138.0 L 174.0 139.0 " stroke="black" fill="none" stroke-width="5.0" stroke-linecap="round" stroke-linejoin="round" />
<path d="M 127.0 155.0 L 127.0 155.0 L 127.0 156.0 L 127.0 156.0 L 127.0 157.0 L 127.0 159.0 L 127.0 161.0 " stroke="black" fill="none" stroke-width="5.0" stroke-linecap="round" stroke-linejoin="round" />
<path d="M 129.0 154.0 L 129.0 154.0 L 130.0 154.0 L 132.0 153.0 L 134.0 153.0 L 137.0 153.0 L 140.0 153.0 L 142.0 153.0 L 144.0 156.0 L 145.0 159.0 L 145.0 162.0 L 145.0 164.0 L 145.0 164.0 " stroke="black" fill="none" stroke-width="5.0" stroke-linecap="round" stroke-linejoin="round" />
<path d="M 130.0 164.0 L 130.0 164.0 L 130.0 165.0 L 130.0 165.0 L 133.0 165.0 L 139.0 165.0 L 142.0 164.0 " stroke="black" fill="none" stroke-width="5.0" stroke-linecap="round" stroke-linejoin="round" />
<path d="M 150.0 152.0 L 150.0 152.0 L 150.0 152.0 L 150.0 153.0 L 151.0 155.0 L 151.0 159.0 L 151.0 161.0 L 151.0 162.0 " stroke="black" fill="none" stroke-width="5.0" stroke-linecap="round" stroke-linejoin="round" />
<path d="M 151.0 153.0 L 151.0 152.0 L 151.0 152.0 L 152.0 151.0 L 154.0 150.0 L 156.0 150.0 L 159.0 151.0 L 161.0 153.0 L 163.0 156.0 L 163.0 159.0 L 163.0 161.0 L 163.0 162.0 " stroke="black" fill="none" stroke-width="5.0" stroke-linecap="round" stroke-linejoin="round" />
<path d="M 153.0 162.0 L 153.0 162.0 L 153.0 162.0 L 154.0 163.0 L 157.0 163.0 L 160.0 163.0 " stroke="black" fill="none" stroke-width="5.0" stroke-linecap="round" stroke-linejoin="round" />
<path d="M 168.0 152.0 L 168.0 152.0 L 168.0 153.0 L 169.0 155.0 L 169.0 157.0 L 170.0 159.0 L 170.0 161.0 L 170.0 161.0 " stroke="black" fill="none" stroke-width="5.0" stroke-linecap="round" stroke-linejoin="round" />
<path d="M 169.0 153.0 L 169.0 153.0 L 169.0 152.0 L 171.0 151.0 L 173.0 150.0 L 176.0 150.0 L 180.0 150.0 L 183.0 153.0 L 185.0 155.0 L 186.0 157.0 L 186.0 159.0 L 185.0 161.0 L 184.0 161.0 " stroke="black" fill="none" stroke-width="5.0" stroke-linecap="round" stroke-linejoin="round" />
<path d="M 172.0 162.0 L 173.0 162.0 L 173.0 163.0 L 175.0 163.0 L 178.0 163.0 L 182.0 163.0 " stroke="black" fill="none" stroke-width="5.0" stroke-linecap="round" stroke-linejoin="round" />
<path d="M 122.0 177.0 L 123.0 177.0 L 124.0 178.0 L 128.0 178.0 L 135.0 178.0 L 147.0 178.0 L 160.0 178.0 L 172.0 178.0 L 179.0 178.0 L 180.0 178.0 L 180.0 178.0 " stroke="black" fill="none" stroke-width="5.0" stroke-linecap="round" stroke-linejoin="round" />
<path d="M 131.0 185.0 L 131.0 185.0 L 131.0 186.0 L 131.0 187.0 L 131.0 190.0 L 129.0 193.0 L 125.0 198.0 L 123.0 200.0 " stroke="black" fill="none" stroke-width="5.0" stroke-linecap="round" stroke-linejoin="round" />
<path d="M 132.0 194.0 L 132.0 194.0 L 134.0 194.0 L 137.0 194.0 L 142.0 195.0 L 148.0 196.0 " stroke="black" fill="none" stroke-width="5.0" stroke-linecap="round" stroke-linejoin="round" />
<path d="M 173.0 184.0 L 173.0 184.0 L 173.0 184.0 L 172.0 185.0 L 171.0 187.0 L 168.0 191.0 L 164.0 195.0 " stroke="black" fill="none" stroke-width="5.0" stroke-linecap="round" stroke-linejoin="round" />
<path d="M 167.0 192.0 L 169.0 192.0 L 171.0 192.0 L 174.0 192.0 L 178.0 193.0 L 181.0 195.0 L 182.0 197.0 " stroke="black" fill="none" stroke-width="5.0" stroke-linecap="round" stroke-linejoin="round" />
<path d="M 152.0 182.0 L 152.0 182.0 L 152.0 184.0 L 153.0 188.0 L 154.0 194.0 L 155.0 201.0 L 155.0 205.0 " stroke="black" fill="none" stroke-width="5.0" stroke-linecap="round" stroke-linejoin="round" />
<path d="M 112.0 212.0 L 112.0 212.0 L 112.0 212.0 L 113.0 212.0 L 123.0 212.0 L 143.0 212.0 L 163.0 211.0 L 177.0 210.0 L 184.0 210.0 L 185.0 210.0 L 185.0 210.0 " stroke="black" fill="none" stroke-width="5.0" stroke-linecap="round" stroke-linejoin="round" />
</svg>