<svg xmlns="http://www.w3.org/2000/svg" width="300" height="300" viewBox="0 0 300 300">
<path d="M 134.0 102.0 L 134.0 102.0 L 134.0 102.0 L 134.0 102.0 L 134.0 102.0 L 139.0 103.0 L 147.0 103.0 L 157.0 103.0 L 164.0 103.0 L 167.0 103.0 " stroke="black" fill="none" stroke-width="5.0" stroke-linecap="round" stroke-linejoin="round" />
<path d="M 117.0 118.0 L 117.0 118.0 L 118.0 118.0 L 118.0 118.0 L 118.0 118.0 L 118.0 118.0 L 119.0 120.0 L 119.0 122.0 L 119.0 124.0 " stroke="black" fill="none" stroke-width="5.0" stroke-linecap="round" stroke-linejoin="round" />
<path d="M 117.0 115.0 L 117.0 115.0 L 117.0 115.0 L 117.0 115.0 L 118.0 115.0 L 124.0 115.0 L 134.0 115.0 L 147.0 114.0 L 159.0 114.0 L 167.0 114.0 L 175.0 114.0 L 182.0 114.0 L 186.0 115.0 L 189.0 116.0 L 190.0 118.0 L 191.0 120.0 L 191.0 123.0 L 191.0 126.0 L 191.0 129.0 L 190.0 131.0 L 190.0 132.0 " stroke="black" fill="none" stroke-width="5.0" stroke-linecap="round" stroke-linejoin="round" />
<path d="M 151.0 105.0 L 151.0 105.0 L 151.0 105.0 L 151.0 105.0 L 151.0 109.0 L 152.0 115.0 L 153.0 121.0 " stroke="black" fill="none" stroke-width="5.0" stroke-linecap="round" stroke-linejoin="round" />
<path d="M 135.0 120.0 L 135.0 120.0 L 135.0 120.0 L 135.0 120.0 L 136.0 121.0 L 139.0 121.0 L 142.0 121.0 " stroke="black" fill="none" stroke-width="5.0" stroke-linecap="round" stroke-linejoin="round" />
<path d="M 134.0 128.0 L 134.0 128.0 L 134.0 129.0 L 134.0 129.0 L 135.0 129.0 L 139.0 129.0 L 146.0 127.0 " stroke="black" fill="none" stroke-width="5.0" stroke-linecap="round" stroke-linejoin="round" />
<path d="M 162.0 121.0 L 163.0 121.0 L 164.0 122.0 L 165.0 122.0 L 167.0 122.0 L 170.0 121.0 L 172.0 121.0 L 172.0 121.0 " stroke="black" fill="none" stroke-width="5.0" stroke-linecap="round" stroke-linejoin="round" />
<path d="M 166.0 127.0 L 166.0 127.0 L 167.0 129.0 L 169.0 130.0 L 171.0 131.0 L 174.0 132.0 " stroke="black" fill="none" stroke-width="5.0" stroke-linecap="round" stroke-linejoin="round" />
<path d="M 123.0 142.0 L 124.0 142.0 L 124.0 142.0 L 124.0 142.0 L 124.0 143.0 L 124.0 145.0 L 124.0 147.0 L 124.0 148.0 L 124.0 149.0 " stroke="black" fill="none" stroke-width="5.0" stroke-linecap="round" stroke-linejoin="round" />
<path d="M 126.0 140.0 L 127.0 140.0 L 127.0 140.0 L 128.0 140.0 L 130.0 140.0 L 133.0 140.0 L 137.0 140.0 L 139.0 142.0 L 141.0 144.0 L 142.0 146.0 L 142.0 148.0 L 142.0 150.0 " stroke="black" fill="none" stroke-width="5.0" stroke-linecap="round" stroke-linejoin="round" />
<path d="M 125.0 150.0 L 125.0 150.0 L 126.0 150.0 L 127.0 150.0 L 130.0 151.0 L 134.0 151.0 L 139.0 151.0 " stroke="black" fill="none" stroke-width="5.0" stroke-linecap="round" stroke-linejoin="round" />
<path d="M 148.0 142.0 L 148.0 142.0 L 148.0 142.0 L 148.0 142.0 L 148.0 142.0 L 148.0 143.0 L 148.0 145.0 L 148.0 146.0 " stroke="black" fill="none" stroke-width="5.0" stroke-linecap="round" stroke-linejoin="round" />
<path d="M 149.0 139.0 L 149.0 139.0 L 149.0 139.0 L 149.0 139.0 L 150.0 139.0 L 152.0 139.0 L 154.0 139.0 L 156.0 140.0 L 158.0 142.0 L 159.0 145.0 L 160.0 148.0 L 160.0 149.0 " stroke="black" fill="none" stroke-width="5.0" stroke-linecap="round" stroke-linejoin="round" />
<path d="M 150.0 148.0 L 150.0 148.0 L 150.0 148.0 L 150.0 148.0 L 151.0 148.0 L 155.0 148.0 L 158.0 148.0 " stroke="black" fill="none" stroke-width="5.0" stroke-linecap="round" stroke-linejoin="round" />
<path d="M 167.0 141.0 L 167.0 141.0 L 167.0 141.0 L 167.0 141.0 L 168.0 143.0 L 168.0 145.0 L 169.0 147.0 L 170.0 149.0 L 170.0 149.0 " stroke="black" fill="none" stroke-width="5.0" stroke-linecap="round" stroke-linejoin="round" />
<path d="M 169.0 140.0 L 169.0 140.0 L 170.0 139.0 L 171.0 139.0 L 174.0 138.0 L 177.0 138.0 L 180.0 139.0 L 182.0 141.0 L 183.0 144.0 L 184.0 146.0 L 183.0 148.0 L 182.0 149.0 " stroke="black" fill="none" stroke-width="5.0" stroke-linecap="round" stroke-linejoin="round" />
<path d="M 169.0 148.0 L 169.0 148.0 L 169.0 148.0 L 170.0 149.0 L 173.0 149.0 L 176.0 149.0 " stroke="black" fill="none" stroke-width="5.0" stroke-linecap="round" stroke-linejoin="round" />
<path d="M 122.0 162.0 L 122.0 162.0 L 123.0 162.0 L 125.0 162.0 L 133.0 162.0 L 146.0 162.0 L 160.0 162.0 L 172.0 161.0 L 179.0 160.0 L 180.0 160.0 L 178.0 161.0 L 177.0 161.0 " stroke="black" fill="none" stroke-width="5.0" stroke-linecap="round" stroke-linejoin="round" />
<path d="M 139.0 167.0 L 139.0 167.0 L 139.0 167.0 L 139.0 167.0 L 139.0 168.0 L 136.0 172.0 L 131.0 179.0 L 125.0 186.0 L 123.0 188.0 " stroke="black" fill="none" stroke-width="5.0" stroke-linecap="round" stroke-linejoin="round" />
<path d="M 137.0 176.0 L 137.0 176.0 L 136.0 176.0 L 136.0 177.0 L 137.0 178.0 L 141.0 181.0 L 146.0 184.0 " stroke="black" fill="none" stroke-width="5.0" stroke-linecap="round" stroke-linejoin="round" />
<path d="M 173.0 170.0 L 173.0 170.0 L 173.0 171.0 L 173.0 171.0 L 173.0 173.0 L 171.0 176.0 L 168.0 180.0 L 164.0 184.0 " stroke="black" fill="none" stroke-width="5.0" stroke-linecap="round" stroke-linejoin="round" />
<path d="M 167.0 179.0 L 168.0 179.0 L 169.0 179.0 L 172.0 180.0 L 176.0 181.0 L 180.0 182.0 L 183.0 184.0 L 184.0 184.0 " stroke="black" fill="none" stroke-width="5.0" stroke-linecap="round" stroke-linejoin="round" />
<path d="M 157.0 164.0 L 157.0 164.0 L 156.0 165.0 L 155.0 167.0 L 155.0 174.0 L 157.0 181.0 L 157.0 189.0 L 157.0 191.0 " stroke="black" fill="none" stroke-width="5.0" stroke-linecap="round" stroke-linejoin="round" />
<path d="M 115.0 200.0 L 115.0 200.0 L 115.0 200.0 L 115.0 201.0 L 121.0 201.0 L 134.0 200.0 L 152.0 200.0 L 169.0 199.0 L 181.0 199.0 L 191.0 199.0 L 194.0 198.0 L 195.0 198.0 L 194.0 198.0 " stroke="black" fill="none" stroke-width="5.0" stroke-linecap="round" stroke-linejoin="round" />
</svg>