<svg xmlns="http://www.w3.org/2000/svg" width="300" height="300" viewBox="0 0 300 300">
<path d="M 120.0 113.0 L 120.0 113.0 L 120.0 114.0 L 120.0 114.0 L 120.0 116.0 L 118.0 122.0 L 114.0 132.0 L 109.0 144.0 L 102.0 153.0 L 99.0 156.0 L 99.0 156.0 " stroke="black" fill="none" stroke-width="5.0" stroke-linecap="round" stroke-linejoin="round" />
<path d="M 116.0 135.0 L 116.0 135.0 L 116.0 135.0 L 117.0 135.0 L 117.0 138.0 L 117.0 144.0 L 117.0 155.0 L 116.0 164.0 L 116.0 169.0 L 115.0 169.0 " stroke="black" fill="none" stroke-width="5.0" stroke-linecap="round" stroke-linejoin="round" />
<path d="M 130.0 134.0 L 130.0 133.0 L 130.0 133.0 L 130.0 133.0 L 131.0 139.0 L 131.0 148.0 L 131.0 154.0 L 131.0 155.0 " stroke="black" fill="none" stroke-width="5.0" stroke-linecap="round" stroke-linejoin="round" />
<path d="M 148.0 110.0 L 148.0 110.0 L 148.0 110.0 L 148.0 110.0 L 148.0 112.0 L 147.0 119.0 L 144.0 127.0 L 140.0 133.0 L 139.0 133.0 " stroke="black" fill="none" stroke-width="5.0" stroke-linecap="round" stroke-linejoin="round" />
<path d="M 149.0 119.0 L 150.0 119.0 L 151.0 119.0 L 154.0 119.0 L 159.0 119.0 L 163.0 119.0 L 164.0 119.0 " stroke="black" fill="none" stroke-width="5.0" stroke-linecap="round" stroke-linejoin="round" />
<path d="M 160.0 122.0 L 160.0 123.0 L 161.0 125.0 L 161.0 128.0 L 160.0 134.0 L 158.0 141.0 L 153.0 149.0 L 148.0 156.0 L 142.0 160.0 L 141.0 161.0 " stroke="black" fill="none" stroke-width="5.0" stroke-linecap="round" stroke-linejoin="round" />
<path d="M 145.0 137.0 L 145.0 137.0 L 145.0 137.0 L 145.0 138.0 L 149.0 143.0 L 158.0 151.0 L 167.0 159.0 L 174.0 163.0 L 175.0 163.0 " stroke="black" fill="none" stroke-width="5.0" stroke-linecap="round" stroke-linejoin="round" />
<path d="M 119.0 176.0 L 120.0 176.0 L 120.0 177.0 L 120.0 180.0 L 119.0 185.0 L 116.0 192.0 L 113.0 197.0 " stroke="black" fill="none" stroke-width="5.0" stroke-linecap="round" stroke-linejoin="round" />
<path d="M 132.0 183.0 L 132.0 184.0 L 131.0 185.0 L 130.0 187.0 L 130.0 190.0 L 131.0 194.0 L 135.0 196.0 L 141.0 198.0 L 148.0 198.0 L 155.0 198.0 L 162.0 197.0 L 167.0 195.0 L 170.0 194.0 L 171.0 191.0 L 170.0 188.0 L 167.0 185.0 " stroke="black" fill="none" stroke-width="5.0" stroke-linecap="round" stroke-linejoin="round" />
<path d="M 148.0 174.0 L 148.0 176.0 L 148.0 179.0 L 150.0 184.0 L 151.0 185.0 " stroke="black" fill="none" stroke-width="5.0" stroke-linecap="round" stroke-linejoin="round" />
<path d="M 181.0 175.0 L 182.0 177.0 L 183.0 180.0 L 186.0 183.0 L 189.0 188.0 " stroke="black" fill="none" stroke-width="5.0" stroke-linecap="round" stroke-linejoin="round" />
</svg>