<svg xmlns="http://www.w3.org/2000/svg" width="300" height="300" viewBox="0 0 300 300">
<path d="M 134.0 112.0 L 134.0 112.0 L 134.0 112.0 L 135.0 112.0 L 135.0 112.0 L 136.0 113.0 L 136.0 115.0 L 133.0 121.0 L 126.0 131.0 L 115.0 142.0 L 113.0 145.0 " stroke="black" fill="none" stroke-width="5.0" stroke-linecap="round" stroke-linejoin="round" />
<path d="M 114.0 153.0 L 115.0 153.0 L 117.0 153.0 L 124.0 153.0 L 137.0 152.0 L 149.0 151.0 L 152.0 151.0 " stroke="black" fill="none" stroke-width="5.0" stroke-linecap="round" stroke-linejoin="round" />
<path d="M 134.0 133.0 L 133.0 133.0 L 132.0 134.0 L 132.0 137.0 L 132.0 143.0 L 135.0 158.0 L 136.0 175.0 L 136.0 194.0 " stroke="black" fill="none" stroke-width="5.0" stroke-linecap="round" stroke-linejoin="round" />
<path d="M 133.0 153.0 L 133.0 153.0 L 133.0 153.0 L 133.0 153.0 L 131.0 156.0 L 127.0 163.0 L 117.0 173.0 L 108.0 183.0 L 106.0 186.0 " stroke="black" fill="none" stroke-width="5.0" stroke-linecap="round" stroke-linejoin="round" />
<path d="M 132.0 160.0 L 134.0 160.0 L 137.0 161.0 L 143.0 165.0 L 150.0 172.0 L 156.0 178.0 " stroke="black" fill="none" stroke-width="5.0" stroke-linecap="round" stroke-linejoin="round" />
<path d="M 159.0 136.0 L 159.0 136.0 L 159.0 136.0 L 159.0 136.0 L 159.0 135.0 L 160.0 138.0 L 160.0 145.0 L 161.0 153.0 L 162.0 156.0 " stroke="black" fill="none" stroke-width="5.0" stroke-linecap="round" stroke-linejoin="round" />
<path d="M 162.0 136.0 L 163.0 136.0 L 165.0 136.0 L 167.0 137.0 L 172.0 137.0 L 177.0 137.0 L 182.0 136.0 L 186.0 136.0 L 189.0 139.0 L 190.0 146.0 L 191.0 153.0 L 191.0 157.0 L 191.0 157.0 " stroke="black" fill="none" stroke-width="5.0" stroke-linecap="round" stroke-linejoin="round" />
<path d="M 164.0 160.0 L 165.0 160.0 L 168.0 161.0 L 172.0 161.0 L 179.0 161.0 L 187.0 161.0 L 191.0 161.0 " stroke="black" fill="none" stroke-width="5.0" stroke-linecap="round" stroke-linejoin="round" />
</svg>