<svg xmlns="http://www.w3.org/2000/svg" width="300" height="300" viewBox="0 0 300 300">
<path d="M 135.0 119.0 L 135.0 119.0 L 135.0 119.0 L 135.0 120.0 L 134.0 121.0 L 133.0 124.0 L 129.0 129.0 L 122.0 137.0 L 114.0 146.0 " stroke="black" fill="none" stroke-width="5.0" stroke-linecap="round" stroke-linejoin="round" />
<path d="M 110.0 155.0 L 110.0 155.0 L 111.0 155.0 L 111.0 155.0 L 114.0 155.0 L 121.0 155.0 L 132.0 155.0 L 143.0 154.0 L 148.0 154.0 " stroke="black" fill="none" stroke-width="5.0" stroke-linecap="round" stroke-linejoin="round" />
<path d="M 131.0 136.0 L 131.0 136.0 L 130.0 136.0 L 130.0 138.0 L 130.0 145.0 L 132.0 157.0 L 134.0 173.0 L 135.0 185.0 L 136.0 191.0 L 136.0 192.0 " stroke="black" fill="none" stroke-width="5.0" stroke-linecap="round" stroke-linejoin="round" />
<path d="M 133.0 157.0 L 132.0 157.0 L 131.0 157.0 L 130.0 158.0 L 128.0 161.0 L 124.0 166.0 L 118.0 174.0 L 113.0 180.0 " stroke="black" fill="none" stroke-width="5.0" stroke-linecap="round" stroke-linejoin="round" />
<path d="M 135.0 160.0 L 135.0 160.0 L 135.0 160.0 L 137.0 161.0 L 141.0 166.0 L 147.0 175.0 L 152.0 183.0 " stroke="black" fill="none" stroke-width="5.0" stroke-linecap="round" stroke-linejoin="round" />
<path d="M 160.0 141.0 L 160.0 142.0 L 160.0 145.0 L 160.0 150.0 L 161.0 155.0 L 162.0 160.0 L 162.0 161.0 " stroke="black" fill="none" stroke-width="5.0" stroke-linecap="round" stroke-linejoin="round" />
<path d="M 159.0 141.0 L 159.0 140.0 L 160.0 140.0 L 162.0 139.0 L 166.0 139.0 L 172.0 139.0 L 178.0 141.0 L 181.0 144.0 L 184.0 150.0 L 186.0 156.0 L 187.0 161.0 L 187.0 164.0 L 187.0 164.0 " stroke="black" fill="none" stroke-width="5.0" stroke-linecap="round" stroke-linejoin="round" />
<path d="M 160.0 165.0 L 160.0 166.0 L 160.0 167.0 L 162.0 168.0 L 170.0 169.0 L 182.0 167.0 L 189.0 165.0 " stroke="black" fill="none" stroke-width="5.0" stroke-linecap="round" stroke-linejoin="round" />
</svg>