<svg xmlns="http://www.w3.org/2000/svg" width="300" height="300" viewBox="0 0 300 300">
<path d="M 130.0 114.0 L 130.0 115.0 L 130.0 116.0 L 130.0 117.0 L 129.0 119.0 L 127.0 123.0 L 122.0 129.0 L 115.0 137.0 " stroke="black" fill="none" stroke-width="5.0" stroke-linecap="round" stroke-linejoin="round" />
<path d="M 132.0 131.0 L 132.0 132.0 L 132.0 133.0 L 131.0 135.0 L 130.0 139.0 L 126.0 145.0 L 119.0 155.0 L 109.0 167.0 L 102.0 176.0 L 99.0 178.0 " stroke="black" fill="none" stroke-width="5.0" stroke-linecap="round" stroke-linejoin="round" />
<path d="M 121.0 155.0 L 121.0 155.0 L 121.0 158.0 L 121.0 165.0 L 121.0 177.0 L 122.0 189.0 L 122.0 197.0 L 122.0 199.0 " stroke="black" fill="none" stroke-width="5.0" stroke-linecap="round" stroke-linejoin="round" />
<path d="M 147.0 121.0 L 148.0 121.0 L 151.0 121.0 L 155.0 121.0 L 161.0 120.0 L 165.0 120.0 L 166.0 120.0 " stroke="black" fill="none" stroke-width="5.0" stroke-linecap="round" stroke-linejoin="round" />
<path d="M 141.0 139.0 L 142.0 139.0 L 144.0 139.0 L 148.0 139.0 L 155.0 139.0 L 162.0 139.0 L 166.0 139.0 " stroke="black" fill="none" stroke-width="5.0" stroke-linecap="round" stroke-linejoin="round" />
<path d="M 154.0 113.0 L 154.0 113.0 L 154.0 113.0 L 154.0 114.0 L 154.0 119.0 L 155.0 129.0 L 155.0 134.0 " stroke="black" fill="none" stroke-width="5.0" stroke-linecap="round" stroke-linejoin="round" />
<path d="M 142.0 156.0 L 142.0 156.0 L 142.0 156.0 L 144.0 156.0 L 149.0 156.0 L 157.0 156.0 L 163.0 156.0 L 164.0 156.0 " stroke="black" fill="none" stroke-width="5.0" stroke-linecap="round" stroke-linejoin="round" />
<path d="M 130.0 184.0 L 130.0 184.0 L 132.0 184.0 L 135.0 185.0 L 142.0 185.0 L 152.0 186.0 L 162.0 186.0 L 168.0 186.0 L 169.0 187.0 " stroke="black" fill="none" stroke-width="5.0" stroke-linecap="round" stroke-linejoin="round" />
<path d="M 151.0 148.0 L 151.0 148.0 L 151.0 149.0 L 151.0 153.0 L 152.0 162.0 L 152.0 172.0 L 152.0 178.0 " stroke="black" fill="none" stroke-width="5.0" stroke-linecap="round" stroke-linejoin="round" />
<path d="M 178.0 126.0 L 178.0 126.0 L 179.0 126.0 L 182.0 126.0 L 187.0 126.0 L 193.0 126.0 L 197.0 126.0 L 197.0 126.0 " stroke="black" fill="none" stroke-width="5.0" stroke-linecap="round" stroke-linejoin="round" />
<path d="M 175.0 142.0 L 176.0 142.0 L 177.0 143.0 L 180.0 143.0 L 187.0 144.0 L 195.0 145.0 L 201.0 145.0 L 203.0 145.0 " stroke="black" fill="none" stroke-width="5.0" stroke-linecap="round" stroke-linejoin="round" />
<path d="M 190.0 146.0 L 190.0 146.0 L 190.0 147.0 L 190.0 151.0 L 192.0 158.0 L 194.0 170.0 L 196.0 185.0 L 197.0 196.0 L 197.0 202.0 L 197.0 204.0 L 195.0 204.0 L 190.0 203.0 L 181.0 199.0 " stroke="black" fill="none" stroke-width="5.0" stroke-linecap="round" stroke-linejoin="round" />
</svg>