<svg xmlns="http://www.w3.org/2000/svg" width="300" height="300" viewBox="0 0 300 300">
<path d="M 120.0 111.0 L 120.0 111.0 L 120.0 110.0 L 120.0 110.0 L 120.0 110.0 L 120.0 109.0 L 120.0 110.0 L 120.0 114.0 L 119.0 122.0 L 118.0 139.0 L 116.0 156.0 L 115.0 166.0 L 115.0 167.0 L 116.0 165.0 " stroke="black" fill="none" stroke-width="5.0" stroke-linecap="round" stroke-linejoin="round" />
<path d="M 122.0 110.0 L 122.0 110.0 L 123.0 110.0 L 123.0 111.0 L 124.0 111.0 L 127.0 111.0 L 131.0 111.0 L 134.0 111.0 L 136.0 111.0 L 137.0 111.0 L 138.0 113.0 L 139.0 119.0 L 140.0 130.0 L 141.0 144.0 L 141.0 156.0 L 141.0 164.0 L 141.0 167.0 L 141.0 168.0 L 141.0 166.0 L 141.0 165.0 " stroke="black" fill="none" stroke-width="5.0" stroke-linecap="round" stroke-linejoin="round" />
<path d="M 122.0 133.0 L 122.0 133.0 L 123.0 133.0 L 123.0 133.0 L 125.0 133.0 L 129.0 133.0 L 134.0 134.0 L 138.0 134.0 L 140.0 135.0 " stroke="black" fill="none" stroke-width="5.0" stroke-linecap="round" stroke-linejoin="round" />
<path d="M 121.0 148.0 L 122.0 148.0 L 123.0 149.0 L 125.0 149.0 L 129.0 149.0 L 134.0 150.0 L 137.0 150.0 L 139.0 150.0 " stroke="black" fill="none" stroke-width="5.0" stroke-linecap="round" stroke-linejoin="round" />
<path d="M 112.0 168.0 L 113.0 168.0 L 114.0 169.0 L 117.0 170.0 L 123.0 171.0 L 131.0 171.0 L 137.0 170.0 L 138.0 170.0 " stroke="black" fill="none" stroke-width="5.0" stroke-linecap="round" stroke-linejoin="round" />
<path d="M 122.0 171.0 L 122.0 171.0 L 122.0 172.0 L 122.0 173.0 L 122.0 175.0 L 120.0 178.0 L 119.0 182.0 L 117.0 185.0 " stroke="black" fill="none" stroke-width="5.0" stroke-linecap="round" stroke-linejoin="round" />
<path d="M 131.0 173.0 L 132.0 176.0 L 134.0 179.0 L 137.0 183.0 L 139.0 186.0 L 141.0 188.0 " stroke="black" fill="none" stroke-width="5.0" stroke-linecap="round" stroke-linejoin="round" />
<path d="M 152.0 121.0 L 152.0 122.0 L 152.0 122.0 L 152.0 123.0 L 155.0 123.0 L 163.0 123.0 L 175.0 123.0 L 184.0 124.0 L 188.0 124.0 L 188.0 124.0 L 188.0 124.0 " stroke="black" fill="none" stroke-width="5.0" stroke-linecap="round" stroke-linejoin="round" />
<path d="M 173.0 110.0 L 173.0 110.0 L 174.0 110.0 L 174.0 113.0 L 176.0 122.0 L 179.0 143.0 L 185.0 165.0 L 192.0 180.0 L 197.0 188.0 L 200.0 190.0 L 202.0 190.0 L 202.0 189.0 " stroke="black" fill="none" stroke-width="5.0" stroke-linecap="round" stroke-linejoin="round" />
<path d="M 160.0 144.0 L 161.0 144.0 L 161.0 144.0 L 161.0 144.0 L 161.0 146.0 L 162.0 150.0 L 162.0 158.0 L 163.0 167.0 L 163.0 173.0 L 163.0 175.0 L 163.0 174.0 " stroke="black" fill="none" stroke-width="5.0" stroke-linecap="round" stroke-linejoin="round" />
<path d="M 163.0 159.0 L 164.0 159.0 L 164.0 159.0 L 165.0 159.0 L 167.0 159.0 L 170.0 159.0 L 173.0 160.0 L 174.0 160.0 " stroke="black" fill="none" stroke-width="5.0" stroke-linecap="round" stroke-linejoin="round" />
<path d="M 153.0 153.0 L 153.0 153.0 L 153.0 155.0 L 152.0 159.0 L 152.0 165.0 L 152.0 172.0 L 153.0 175.0 " stroke="black" fill="none" stroke-width="5.0" stroke-linecap="round" stroke-linejoin="round" />
<path d="M 149.0 178.0 L 150.0 178.0 L 152.0 180.0 L 156.0 180.0 L 164.0 180.0 L 174.0 180.0 L 178.0 179.0 " stroke="black" fill="none" stroke-width="5.0" stroke-linecap="round" stroke-linejoin="round" />
<path d="M 156.0 113.0 L 156.0 113.0 L 156.0 113.0 L 156.0 113.0 L 157.0 113.0 L 160.0 113.0 L 166.0 113.0 L 167.0 113.0 " stroke="black" fill="none" stroke-width="5.0" stroke-linecap="round" stroke-linejoin="round" />
<path d="M 189.0 107.0 L 189.0 108.0 L 190.0 109.0 L 191.0 112.0 L 193.0 114.0 L 195.0 116.0 " stroke="black" fill="none" stroke-width="5.0" stroke-linecap="round" stroke-linejoin="round" />
</svg>