<svg xmlns="http://www.w3.org/2000/svg" width="300" height="300" viewBox="0 0 300 300">
<path d="M 117.0 116.0 L 117.0 116.0 L 117.0 116.0 L 117.0 116.0 L 117.0 116.0 L 117.0 121.0 L 117.0 132.0 L 117.0 150.0 L 117.0 166.0 L 118.0 176.0 L 119.0 179.0 L 119.0 180.0 L 119.0 178.0 " stroke="black" fill="none" stroke-width="5.0" stroke-linecap="round" stroke-linejoin="round" />
<path d="M 120.0 117.0 L 120.0 117.0 L 120.0 117.0 L 120.0 117.0 L 122.0 117.0 L 124.0 117.0 L 126.0 117.0 L 129.0 117.0 L 131.0 119.0 L 133.0 124.0 L 136.0 133.0 L 139.0 148.0 L 142.0 163.0 L 143.0 173.0 L 144.0 178.0 L 144.0 179.0 L 144.0 179.0 L 143.0 178.0 " stroke="black" fill="none" stroke-width="5.0" stroke-linecap="round" stroke-linejoin="round" />
<path d="M 119.0 141.0 L 119.0 141.0 L 119.0 141.0 L 119.0 141.0 L 120.0 141.0 L 123.0 141.0 L 128.0 141.0 L 132.0 141.0 L 136.0 141.0 L 138.0 141.0 L 138.0 141.0 " stroke="black" fill="none" stroke-width="5.0" stroke-linecap="round" stroke-linejoin="round" />
<path d="M 122.0 159.0 L 122.0 159.0 L 123.0 160.0 L 125.0 161.0 L 129.0 162.0 L 134.0 162.0 L 139.0 162.0 L 142.0 162.0 " stroke="black" fill="none" stroke-width="5.0" stroke-linecap="round" stroke-linejoin="round" />
<path d="M 120.0 180.0 L 120.0 180.0 L 120.0 180.0 L 121.0 181.0 L 123.0 181.0 L 130.0 182.0 L 137.0 182.0 L 141.0 181.0 L 142.0 181.0 " stroke="black" fill="none" stroke-width="5.0" stroke-linecap="round" stroke-linejoin="round" />
<path d="M 128.0 185.0 L 128.0 185.0 L 128.0 185.0 L 127.0 186.0 L 126.0 189.0 L 125.0 194.0 L 124.0 198.0 " stroke="black" fill="none" stroke-width="5.0" stroke-linecap="round" stroke-linejoin="round" />
<path d="M 139.0 186.0 L 139.0 186.0 L 140.0 188.0 L 142.0 191.0 L 144.0 195.0 " stroke="black" fill="none" stroke-width="5.0" stroke-linecap="round" stroke-linejoin="round" />
<path d="M 150.0 133.0 L 150.0 133.0 L 150.0 133.0 L 150.0 133.0 L 153.0 133.0 L 161.0 133.0 L 174.0 133.0 L 187.0 133.0 L 194.0 133.0 L 195.0 133.0 L 194.0 133.0 " stroke="black" fill="none" stroke-width="5.0" stroke-linecap="round" stroke-linejoin="round" />
<path d="M 176.0 109.0 L 176.0 109.0 L 176.0 109.0 L 176.0 110.0 L 177.0 120.0 L 182.0 142.0 L 187.0 165.0 L 192.0 183.0 L 196.0 191.0 L 200.0 192.0 L 204.0 189.0 L 207.0 181.0 " stroke="black" fill="none" stroke-width="5.0" stroke-linecap="round" stroke-linejoin="round" />
<path d="M 161.0 153.0 L 161.0 153.0 L 161.0 153.0 L 161.0 153.0 L 161.0 153.0 L 162.0 157.0 L 163.0 167.0 L 165.0 177.0 L 166.0 183.0 L 166.0 184.0 " stroke="black" fill="none" stroke-width="5.0" stroke-linecap="round" stroke-linejoin="round" />
<path d="M 167.0 167.0 L 167.0 167.0 L 167.0 167.0 L 168.0 167.0 L 171.0 167.0 L 176.0 166.0 L 180.0 166.0 L 181.0 166.0 " stroke="black" fill="none" stroke-width="5.0" stroke-linecap="round" stroke-linejoin="round" />
<path d="M 156.0 167.0 L 156.0 167.0 L 156.0 169.0 L 156.0 172.0 L 158.0 178.0 L 159.0 184.0 " stroke="black" fill="none" stroke-width="5.0" stroke-linecap="round" stroke-linejoin="round" />
<path d="M 154.0 189.0 L 154.0 189.0 L 155.0 189.0 L 158.0 189.0 L 166.0 189.0 L 177.0 189.0 L 184.0 189.0 " stroke="black" fill="none" stroke-width="5.0" stroke-linecap="round" stroke-linejoin="round" />
<path d="M 160.0 117.0 L 161.0 117.0 L 161.0 118.0 L 163.0 118.0 L 168.0 118.0 L 171.0 118.0 " stroke="black" fill="none" stroke-width="5.0" stroke-linecap="round" stroke-linejoin="round" />
<path d="M 192.0 113.0 L 192.0 113.0 L 193.0 114.0 L 194.0 116.0 L 196.0 119.0 L 197.0 121.0 " stroke="black" fill="none" stroke-width="5.0" stroke-linecap="round" stroke-linejoin="round" />
</svg>