<svg xmlns="http://www.w3.org/2000/svg" width="300" height="300" viewBox="0 0 300 300">
<path d="M 125.0 147.0 L 125.0 147.0 L 125.0 147.0 L 125.0 149.0 L 125.0 152.0 L 125.0 158.0 L 125.0 167.0 L 125.0 177.0 L 123.0 184.0 L 122.0 187.0 L 122.0 189.0 L 124.0 190.0 L 130.0 191.0 L 139.0 192.0 L 150.0 193.0 L 160.0 193.0 L 171.0 194.0 L 179.0 195.0 L 182.0 195.0 L 182.0 195.0 L 181.0 195.0 L 180.0 194.0 " stroke="black" fill="none" stroke-width="5.0" stroke-linecap="round" stroke-linejoin="round" />
<path d="M 155.0 127.0 L 155.0 130.0 L 154.0 137.0 L 154.0 149.0 L 156.0 165.0 L 157.0 179.0 L 158.0 188.0 L 158.0 191.0 " stroke="black" fill="none" stroke-width="5.0" stroke-linecap="round" stroke-linejoin="round" />
<path d="M 188.0 151.0 L 188.0 158.0 L 189.0 166.0 L 190.0 176.0 L 191.0 185.0 L 192.0 191.0 L 192.0 192.0 " stroke="black" fill="none" stroke-width="5.0" stroke-linecap="round" stroke-linejoin="round" />
</svg>