<svg xmlns="http://www.w3.org/2000/svg" width="300" height="300" viewBox="0 0 300 300">
<path d="M 118.0 138.0 L 119.0 138.0 L 120.0 138.0 L 120.0 138.0 L 121.0 140.0 L 122.0 146.0 L 122.0 157.0 L 122.0 168.0 L 121.0 176.0 L 120.0 179.0 L 120.0 179.0 L 123.0 179.0 L 131.0 179.0 L 142.0 180.0 L 155.0 181.0 L 167.0 182.0 L 174.0 182.0 L 177.0 183.0 " stroke="black" fill="none" stroke-width="5.0" stroke-linecap="round" stroke-linejoin="round" />
<path d="M 147.0 110.0 L 147.0 110.0 L 147.0 110.0 L 147.0 113.0 L 147.0 128.0 L 148.0 150.0 L 148.0 164.0 L 148.0 169.0 " stroke="black" fill="none" stroke-width="5.0" stroke-linecap="round" stroke-linejoin="round" />
<path d="M 174.0 139.0 L 174.0 140.0 L 174.0 142.0 L 175.0 149.0 L 178.0 163.0 L 180.0 178.0 L 182.0 186.0 L 182.0 187.0 " stroke="black" fill="none" stroke-width="5.0" stroke-linecap="round" stroke-linejoin="round" />
</svg>