<svg xmlns="http://www.w3.org/2000/svg" width="300" height="300" viewBox="0 0 300 300">
<path d="M 115.0 150.0 L 115.0 150.0 L 115.0 150.0 L 114.0 150.0 L 113.0 153.0 L 113.0 162.0 L 114.0 176.0 L 114.0 187.0 L 114.0 194.0 L 114.0 196.0 L 117.0 196.0 L 123.0 194.0 L 133.0 193.0 L 145.0 193.0 L 156.0 193.0 L 167.0 193.0 L 176.0 193.0 L 179.0 193.0 L 178.0 193.0 L 175.0 193.0 " stroke="black" fill="none" stroke-width="5.0" stroke-linecap="round" stroke-linejoin="round" />
<path d="M 150.0 126.0 L 150.0 127.0 L 149.0 128.0 L 149.0 135.0 L 149.0 148.0 L 150.0 164.0 L 150.0 175.0 L 151.0 180.0 L 151.0 180.0 " stroke="black" fill="none" stroke-width="5.0" stroke-linecap="round" stroke-linejoin="round" />
<path d="M 184.0 148.0 L 184.0 148.0 L 184.0 150.0 L 184.0 153.0 L 184.0 163.0 L 187.0 176.0 L 188.0 187.0 L 189.0 193.0 L 189.0 195.0 L 189.0 195.0 L 189.0 194.0 " stroke="black" fill="none" stroke-width="5.0" stroke-linecap="round" stroke-linejoin="round" />
</svg>