<svg xmlns="http://www.w3.org/2000/svg" width="300" height="300" viewBox="0 0 300 300">
<path d="M 126.0 115.0 L 126.0 115.0 L 126.0 115.0 L 126.0 116.0 L 128.0 120.0 L 130.0 125.0 L 132.0 130.0 L 132.0 130.0 " stroke="black" fill="none" stroke-width="5.0" stroke-linecap="round" stroke-linejoin="round" />
<path d="M 114.0 139.0 L 114.0 139.0 L 115.0 139.0 L 116.0 139.0 L 119.0 138.0 L 125.0 138.0 L 134.0 138.0 L 141.0 138.0 L 144.0 137.0 " stroke="black" fill="none" stroke-width="5.0" stroke-linecap="round" stroke-linejoin="round" />
<path d="M 124.0 144.0 L 124.0 144.0 L 124.0 144.0 L 124.0 144.0 L 124.0 146.0 L 123.0 152.0 L 123.0 162.0 L 121.0 176.0 L 118.0 188.0 L 116.0 193.0 L 115.0 194.0 L 115.0 193.0 " stroke="black" fill="none" stroke-width="5.0" stroke-linecap="round" stroke-linejoin="round" />
<path d="M 126.0 160.0 L 126.0 160.0 L 126.0 160.0 L 127.0 160.0 L 129.0 160.0 L 132.0 160.0 L 136.0 160.0 L 139.0 160.0 L 142.0 161.0 L 144.0 165.0 L 146.0 172.0 L 147.0 181.0 L 148.0 189.0 L 149.0 195.0 L 149.0 197.0 L 147.0 198.0 L 143.0 197.0 L 136.0 193.0 " stroke="black" fill="none" stroke-width="5.0" stroke-linecap="round" stroke-linejoin="round" />
<path d="M 161.0 120.0 L 161.0 120.0 L 161.0 120.0 L 161.0 120.0 L 161.0 123.0 L 159.0 130.0 L 157.0 142.0 L 153.0 152.0 L 151.0 155.0 " stroke="black" fill="none" stroke-width="5.0" stroke-linecap="round" stroke-linejoin="round" />
<path d="M 162.0 134.0 L 163.0 134.0 L 164.0 133.0 L 169.0 133.0 L 176.0 133.0 L 183.0 133.0 L 188.0 134.0 L 189.0 134.0 " stroke="black" fill="none" stroke-width="5.0" stroke-linecap="round" stroke-linejoin="round" />
<path d="M 168.0 144.0 L 168.0 144.0 L 168.0 144.0 L 168.0 144.0 L 168.0 146.0 L 168.0 152.0 L 168.0 163.0 L 168.0 174.0 L 168.0 180.0 L 169.0 180.0 " stroke="black" fill="none" stroke-width="5.0" stroke-linecap="round" stroke-linejoin="round" />
<path d="M 185.0 144.0 L 185.0 144.0 L 184.0 144.0 L 184.0 147.0 L 185.0 153.0 L 187.0 163.0 L 189.0 174.0 L 189.0 180.0 L 189.0 183.0 L 189.0 183.0 " stroke="black" fill="none" stroke-width="5.0" stroke-linecap="round" stroke-linejoin="round" />
<path d="M 158.0 154.0 L 158.0 154.0 L 158.0 154.0 L 158.0 154.0 L 162.0 154.0 L 171.0 153.0 L 181.0 152.0 L 189.0 152.0 L 193.0 152.0 L 194.0 153.0 L 194.0 153.0 L 194.0 154.0 " stroke="black" fill="none" stroke-width="5.0" stroke-linecap="round" stroke-linejoin="round" />
<path d="M 171.0 164.0 L 171.0 165.0 L 172.0 165.0 L 174.0 165.0 L 178.0 165.0 L 183.0 165.0 L 187.0 165.0 L 189.0 165.0 L 189.0 165.0 L 188.0 165.0 " stroke="black" fill="none" stroke-width="5.0" stroke-linecap="round" stroke-linejoin="round" />
<path d="M 171.0 172.0 L 172.0 172.0 L 173.0 172.0 L 175.0 173.0 L 179.0 173.0 L 183.0 173.0 L 187.0 174.0 L 188.0 174.0 " stroke="black" fill="none" stroke-width="5.0" stroke-linecap="round" stroke-linejoin="round" />
<path d="M 156.0 185.0 L 156.0 185.0 L 157.0 185.0 L 159.0 185.0 L 167.0 185.0 L 180.0 185.0 L 191.0 185.0 L 197.0 185.0 L 198.0 186.0 L 198.0 187.0 " stroke="black" fill="none" stroke-width="5.0" stroke-linecap="round" stroke-linejoin="round" />
<path d="M 174.0 190.0 L 174.0 190.0 L 174.0 191.0 L 173.0 191.0 L 172.0 194.0 L 170.0 200.0 L 169.0 205.0 " stroke="black" fill="none" stroke-width="5.0" stroke-linecap="round" stroke-linejoin="round" />
<path d="M 187.0 191.0 L 187.0 191.0 L 187.0 191.0 L 188.0 193.0 L 192.0 198.0 L 195.0 202.0 " stroke="black" fill="none" stroke-width="5.0" stroke-linecap="round" stroke-linejoin="round" />
</svg>