<svg xmlns="http://www.w3.org/2000/svg" width="300" height="300" viewBox="0 0 300 300">
<path d="M 114.0 122.0 L 114.0 122.0 L 114.0 123.0 L 114.0 123.0 L 115.0 125.0 L 121.0 126.0 L 130.0 129.0 " stroke="black" fill="none" stroke-width="5.0" stroke-linecap="round" stroke-linejoin="round" />
<path d="M 108.0 158.0 L 109.0 158.0 L 110.0 158.0 L 113.0 158.0 L 121.0 158.0 L 123.0 158.0 " stroke="black" fill="none" stroke-width="5.0" stroke-linecap="round" stroke-linejoin="round" />
<path d="M 101.0 190.0 L 101.0 190.0 L 101.0 190.0 L 103.0 190.0 L 113.0 185.0 L 124.0 180.0 " stroke="black" fill="none" stroke-width="5.0" stroke-linecap="round" stroke-linejoin="round" />
<path d="M 145.0 150.0 L 145.0 150.0 L 145.0 150.0 L 145.0 150.0 L 149.0 149.0 L 157.0 147.0 L 167.0 145.0 L 175.0 144.0 L 182.0 143.0 L 185.0 143.0 L 186.0 146.0 L 186.0 151.0 L 184.0 156.0 L 183.0 161.0 " stroke="black" fill="none" stroke-width="5.0" stroke-linecap="round" stroke-linejoin="round" />
<path d="M 169.0 134.0 L 169.0 134.0 L 170.0 135.0 L 170.0 136.0 L 171.0 141.0 L 172.0 149.0 L 172.0 160.0 L 172.0 162.0 " stroke="black" fill="none" stroke-width="5.0" stroke-linecap="round" stroke-linejoin="round" />
<path d="M 153.0 123.0 L 153.0 124.0 L 153.0 126.0 L 153.0 129.0 L 153.0 135.0 L 153.0 146.0 L 153.0 162.0 L 153.0 178.0 L 155.0 189.0 L 159.0 194.0 L 167.0 196.0 L 178.0 197.0 L 188.0 198.0 L 195.0 199.0 L 200.0 199.0 L 203.0 197.0 L 204.0 192.0 L 205.0 184.0 L 205.0 174.0 " stroke="black" fill="none" stroke-width="5.0" stroke-linecap="round" stroke-linejoin="round" />
</svg>