<svg xmlns="http://www.w3.org/2000/svg" width="300" height="300" viewBox="0 0 300 300">
<path d="M 121.0 113.0 L 122.0 113.0 L 122.0 113.0 L 123.0 113.0 L 123.0 113.0 L 124.0 113.0 L 126.0 113.0 L 130.0 113.0 L 135.0 113.0 L 138.0 113.0 L 141.0 113.0 L 142.0 113.0 L 143.0 116.0 L 143.0 120.0 L 144.0 126.0 L 145.0 133.0 L 145.0 140.0 L 145.0 142.0 " stroke="black" fill="none" stroke-width="5.0" stroke-linecap="round" stroke-linejoin="round" />
<path d="M 123.0 126.0 L 123.0 126.0 L 124.0 126.0 L 125.0 125.0 L 128.0 125.0 L 135.0 125.0 L 141.0 125.0 " stroke="black" fill="none" stroke-width="5.0" stroke-linecap="round" stroke-linejoin="round" />
<path d="M 116.0 141.0 L 117.0 141.0 L 118.0 141.0 L 122.0 142.0 L 129.0 142.0 L 137.0 142.0 L 139.0 142.0 " stroke="black" fill="none" stroke-width="5.0" stroke-linecap="round" stroke-linejoin="round" />
<path d="M 118.0 115.0 L 118.0 115.0 L 118.0 115.0 L 118.0 115.0 L 118.0 115.0 L 118.0 121.0 L 118.0 138.0 L 118.0 163.0 L 116.0 182.0 L 116.0 190.0 L 116.0 192.0 " stroke="black" fill="none" stroke-width="5.0" stroke-linecap="round" stroke-linejoin="round" />
<path d="M 160.0 109.0 L 160.0 109.0 L 160.0 110.0 L 160.0 110.0 L 160.0 110.0 L 162.0 110.0 L 166.0 110.0 L 171.0 110.0 L 175.0 110.0 L 178.0 111.0 L 180.0 111.0 L 182.0 112.0 L 183.0 115.0 L 183.0 122.0 L 185.0 134.0 L 187.0 150.0 L 190.0 168.0 L 193.0 184.0 L 195.0 195.0 L 195.0 201.0 L 195.0 203.0 L 195.0 203.0 L 190.0 204.0 L 180.0 204.0 L 167.0 203.0 " stroke="black" fill="none" stroke-width="5.0" stroke-linecap="round" stroke-linejoin="round" />
<path d="M 155.0 115.0 L 155.0 115.0 L 155.0 115.0 L 155.0 115.0 L 155.0 115.0 L 155.0 117.0 L 154.0 124.0 L 154.0 134.0 L 155.0 142.0 L 159.0 145.0 L 166.0 145.0 L 173.0 142.0 L 174.0 142.0 " stroke="black" fill="none" stroke-width="5.0" stroke-linecap="round" stroke-linejoin="round" />
<path d="M 155.0 130.0 L 155.0 130.0 L 157.0 130.0 L 161.0 131.0 L 169.0 131.0 L 174.0 132.0 " stroke="black" fill="none" stroke-width="5.0" stroke-linecap="round" stroke-linejoin="round" />
<path d="M 137.0 153.0 L 137.0 153.0 L 137.0 153.0 L 137.0 153.0 L 139.0 153.0 L 145.0 153.0 L 155.0 153.0 L 163.0 153.0 L 166.0 153.0 " stroke="black" fill="none" stroke-width="5.0" stroke-linecap="round" stroke-linejoin="round" />
<path d="M 154.0 155.0 L 154.0 155.0 L 154.0 155.0 L 154.0 156.0 L 154.0 157.0 L 155.0 162.0 L 157.0 172.0 L 159.0 184.0 L 160.0 192.0 L 160.0 195.0 " stroke="black" fill="none" stroke-width="5.0" stroke-linecap="round" stroke-linejoin="round" />
<path d="M 144.0 155.0 L 143.0 155.0 L 143.0 155.0 L 142.0 156.0 L 142.0 160.0 L 142.0 168.0 L 142.0 175.0 L 142.0 178.0 " stroke="black" fill="none" stroke-width="5.0" stroke-linecap="round" stroke-linejoin="round" />
<path d="M 145.0 165.0 L 145.0 165.0 L 146.0 165.0 L 147.0 165.0 L 149.0 165.0 L 152.0 165.0 L 155.0 165.0 L 156.0 165.0 " stroke="black" fill="none" stroke-width="5.0" stroke-linecap="round" stroke-linejoin="round" />
<path d="M 144.0 176.0 L 146.0 177.0 L 149.0 177.0 L 154.0 178.0 L 157.0 178.0 " stroke="black" fill="none" stroke-width="5.0" stroke-linecap="round" stroke-linejoin="round" />
<path d="M 131.0 186.0 L 132.0 186.0 L 134.0 186.0 L 140.0 186.0 L 150.0 186.0 L 162.0 186.0 L 173.0 186.0 L 177.0 186.0 " stroke="black" fill="none" stroke-width="5.0" stroke-linecap="round" stroke-linejoin="round" />
</svg>