<svg xmlns="http://www.w3.org/2000/svg" width="300" height="300" viewBox="0 0 300 300">
<path d="M 121.0 109.0 L 121.0 109.0 L 121.0 110.0 L 122.0 110.0 L 124.0 110.0 L 126.0 110.0 L 130.0 110.0 L 133.0 109.0 L 135.0 109.0 L 137.0 109.0 L 138.0 109.0 L 139.0 110.0 L 140.0 113.0 L 140.0 119.0 L 141.0 125.0 L 141.0 130.0 L 141.0 131.0 " stroke="black" fill="none" stroke-width="5.0" stroke-linecap="round" stroke-linejoin="round" />
<path d="M 120.0 121.0 L 120.0 121.0 L 121.0 121.0 L 121.0 122.0 L 123.0 122.0 L 126.0 122.0 L 131.0 122.0 L 135.0 122.0 L 136.0 122.0 " stroke="black" fill="none" stroke-width="5.0" stroke-linecap="round" stroke-linejoin="round" />
<path d="M 115.0 135.0 L 116.0 135.0 L 117.0 135.0 L 122.0 136.0 L 129.0 136.0 L 135.0 136.0 " stroke="black" fill="none" stroke-width="5.0" stroke-linecap="round" stroke-linejoin="round" />
<path d="M 114.0 111.0 L 114.0 111.0 L 114.0 111.0 L 114.0 111.0 L 114.0 115.0 L 115.0 129.0 L 116.0 152.0 L 117.0 171.0 L 117.0 183.0 L 117.0 189.0 L 118.0 191.0 L 118.0 190.0 " stroke="black" fill="none" stroke-width="5.0" stroke-linecap="round" stroke-linejoin="round" />
<path d="M 158.0 108.0 L 158.0 108.0 L 158.0 108.0 L 158.0 109.0 L 159.0 109.0 L 162.0 109.0 L 166.0 109.0 L 170.0 109.0 L 173.0 109.0 L 177.0 111.0 L 178.0 114.0 L 180.0 123.0 L 182.0 139.0 L 186.0 159.0 L 189.0 176.0 L 191.0 186.0 L 191.0 192.0 L 191.0 194.0 L 189.0 195.0 L 184.0 195.0 L 174.0 194.0 L 171.0 193.0 " stroke="black" fill="none" stroke-width="5.0" stroke-linecap="round" stroke-linejoin="round" />
<path d="M 155.0 111.0 L 155.0 111.0 L 155.0 111.0 L 155.0 111.0 L 154.0 111.0 L 154.0 112.0 L 154.0 115.0 L 154.0 121.0 L 153.0 128.0 L 154.0 135.0 L 158.0 139.0 L 164.0 140.0 L 169.0 138.0 L 172.0 136.0 L 173.0 136.0 " stroke="black" fill="none" stroke-width="5.0" stroke-linecap="round" stroke-linejoin="round" />
<path d="M 158.0 124.0 L 158.0 124.0 L 158.0 124.0 L 160.0 124.0 L 164.0 124.0 L 171.0 124.0 L 176.0 125.0 " stroke="black" fill="none" stroke-width="5.0" stroke-linecap="round" stroke-linejoin="round" />
<path d="M 134.0 154.0 L 134.0 154.0 L 134.0 154.0 L 135.0 154.0 L 136.0 154.0 L 140.0 154.0 L 147.0 154.0 L 154.0 154.0 L 160.0 153.0 L 162.0 153.0 L 162.0 153.0 " stroke="black" fill="none" stroke-width="5.0" stroke-linecap="round" stroke-linejoin="round" />
<path d="M 152.0 154.0 L 152.0 154.0 L 152.0 154.0 L 152.0 154.0 L 152.0 154.0 L 153.0 160.0 L 154.0 171.0 L 156.0 181.0 L 157.0 187.0 L 157.0 189.0 " stroke="black" fill="none" stroke-width="5.0" stroke-linecap="round" stroke-linejoin="round" />
<path d="M 143.0 158.0 L 143.0 158.0 L 143.0 159.0 L 143.0 161.0 L 142.0 164.0 L 142.0 168.0 L 142.0 172.0 " stroke="black" fill="none" stroke-width="5.0" stroke-linecap="round" stroke-linejoin="round" />
<path d="M 145.0 163.0 L 145.0 163.0 L 145.0 163.0 L 145.0 163.0 L 146.0 164.0 L 148.0 164.0 L 151.0 165.0 L 152.0 165.0 " stroke="black" fill="none" stroke-width="5.0" stroke-linecap="round" stroke-linejoin="round" />
<path d="M 145.0 171.0 L 145.0 172.0 L 145.0 172.0 L 147.0 173.0 L 150.0 173.0 L 151.0 173.0 " stroke="black" fill="none" stroke-width="5.0" stroke-linecap="round" stroke-linejoin="round" />
<path d="M 133.0 179.0 L 133.0 179.0 L 133.0 179.0 L 133.0 179.0 L 137.0 178.0 L 145.0 178.0 L 156.0 178.0 L 165.0 178.0 L 171.0 178.0 L 172.0 178.0 L 171.0 178.0 L 170.0 178.0 " stroke="black" fill="none" stroke-width="5.0" stroke-linecap="round" stroke-linejoin="round" />
</svg>