<svg xmlns="http://www.w3.org/2000/svg" width="300" height="300" viewBox="0 0 300 300">
<path d="M 122.0 110.0 L 122.0 110.0 L 122.0 110.0 L 121.0 110.0 L 121.0 110.0 L 123.0 110.0 L 127.0 110.0 L 131.0 109.0 L 136.0 109.0 L 139.0 109.0 L 141.0 109.0 L 142.0 109.0 L 142.0 113.0 L 142.0 118.0 L 143.0 124.0 L 143.0 128.0 L 143.0 131.0 " stroke="black" fill="none" stroke-width="5.0" stroke-linecap="round" stroke-linejoin="round" />
<path d="M 122.0 125.0 L 122.0 125.0 L 122.0 125.0 L 122.0 125.0 L 122.0 125.0 L 126.0 125.0 L 131.0 124.0 L 135.0 124.0 " stroke="black" fill="none" stroke-width="5.0" stroke-linecap="round" stroke-linejoin="round" />
<path d="M 116.0 137.0 L 116.0 137.0 L 116.0 137.0 L 117.0 137.0 L 121.0 137.0 L 130.0 137.0 L 140.0 136.0 " stroke="black" fill="none" stroke-width="5.0" stroke-linecap="round" stroke-linejoin="round" />
<path d="M 117.0 112.0 L 117.0 112.0 L 117.0 112.0 L 117.0 112.0 L 117.0 112.0 L 117.0 117.0 L 117.0 134.0 L 116.0 157.0 L 114.0 176.0 L 114.0 187.0 L 114.0 190.0 L 114.0 190.0 " stroke="black" fill="none" stroke-width="5.0" stroke-linecap="round" stroke-linejoin="round" />
<path d="M 155.0 112.0 L 155.0 112.0 L 156.0 111.0 L 156.0 111.0 L 157.0 111.0 L 158.0 111.0 L 160.0 111.0 L 163.0 111.0 L 167.0 112.0 L 171.0 113.0 L 173.0 114.0 L 175.0 115.0 L 176.0 115.0 L 177.0 116.0 L 179.0 120.0 L 181.0 126.0 L 184.0 137.0 L 186.0 152.0 L 188.0 165.0 L 190.0 178.0 L 190.0 185.0 L 190.0 187.0 L 188.0 187.0 L 184.0 187.0 L 178.0 187.0 L 170.0 186.0 " stroke="black" fill="none" stroke-width="5.0" stroke-linecap="round" stroke-linejoin="round" />
<path d="M 154.0 113.0 L 154.0 113.0 L 154.0 113.0 L 154.0 113.0 L 154.0 113.0 L 154.0 114.0 L 154.0 120.0 L 154.0 126.0 L 156.0 133.0 L 161.0 136.0 L 166.0 136.0 L 171.0 137.0 L 172.0 137.0 " stroke="black" fill="none" stroke-width="5.0" stroke-linecap="round" stroke-linejoin="round" />
<path d="M 158.0 125.0 L 158.0 125.0 L 158.0 125.0 L 159.0 125.0 L 161.0 125.0 L 165.0 125.0 L 170.0 126.0 L 176.0 127.0 " stroke="black" fill="none" stroke-width="5.0" stroke-linecap="round" stroke-linejoin="round" />
<path d="M 129.0 152.0 L 129.0 152.0 L 130.0 152.0 L 130.0 152.0 L 133.0 152.0 L 139.0 151.0 L 147.0 150.0 L 154.0 150.0 L 158.0 150.0 L 160.0 150.0 L 160.0 150.0 " stroke="black" fill="none" stroke-width="5.0" stroke-linecap="round" stroke-linejoin="round" />
<path d="M 150.0 152.0 L 150.0 152.0 L 150.0 152.0 L 150.0 152.0 L 150.0 152.0 L 150.0 157.0 L 152.0 167.0 L 153.0 178.0 L 154.0 185.0 L 154.0 187.0 " stroke="black" fill="none" stroke-width="5.0" stroke-linecap="round" stroke-linejoin="round" />
<path d="M 139.0 154.0 L 139.0 154.0 L 139.0 154.0 L 139.0 155.0 L 139.0 158.0 L 139.0 163.0 L 139.0 167.0 " stroke="black" fill="none" stroke-width="5.0" stroke-linecap="round" stroke-linejoin="round" />
<path d="M 142.0 160.0 L 142.0 160.0 L 142.0 160.0 L 143.0 161.0 L 145.0 161.0 L 147.0 161.0 L 149.0 161.0 " stroke="black" fill="none" stroke-width="5.0" stroke-linecap="round" stroke-linejoin="round" />
<path d="M 142.0 166.0 L 142.0 167.0 L 142.0 168.0 L 144.0 168.0 L 147.0 168.0 L 148.0 168.0 " stroke="black" fill="none" stroke-width="5.0" stroke-linecap="round" stroke-linejoin="round" />
<path d="M 130.0 176.0 L 131.0 176.0 L 131.0 176.0 L 133.0 176.0 L 140.0 176.0 L 149.0 176.0 L 158.0 176.0 L 161.0 176.0 " stroke="black" fill="none" stroke-width="5.0" stroke-linecap="round" stroke-linejoin="round" />
</svg>