<svg xmlns="http://www.w3.org/2000/svg" width="300" height="300" viewBox="0 0 300 300">
<path d="M 118.0 107.0 L 118.0 107.0 L 118.0 107.0 L 118.0 107.0 L 119.0 107.0 L 121.0 107.0 L 125.0 107.0 L 131.0 107.0 L 135.0 107.0 L 137.0 107.0 L 138.0 108.0 L 138.0 111.0 L 139.0 117.0 L 141.0 125.0 L 142.0 132.0 L 142.0 138.0 L 142.0 139.0 " stroke="black" fill="none" stroke-width="5.0" stroke-linecap="round" stroke-linejoin="round" />
<path d="M 120.0 125.0 L 120.0 125.0 L 120.0 125.0 L 121.0 125.0 L 127.0 125.0 L 136.0 125.0 " stroke="black" fill="none" stroke-width="5.0" stroke-linecap="round" stroke-linejoin="round" />
<path d="M 115.0 139.0 L 117.0 139.0 L 119.0 139.0 L 124.0 139.0 L 131.0 139.0 L 139.0 139.0 " stroke="black" fill="none" stroke-width="5.0" stroke-linecap="round" stroke-linejoin="round" />
<path d="M 117.0 110.0 L 117.0 110.0 L 117.0 111.0 L 118.0 112.0 L 118.0 118.0 L 118.0 136.0 L 118.0 159.0 L 117.0 177.0 L 116.0 188.0 L 117.0 194.0 L 118.0 195.0 L 119.0 195.0 " stroke="black" fill="none" stroke-width="5.0" stroke-linecap="round" stroke-linejoin="round" />
<path d="M 154.0 109.0 L 154.0 109.0 L 154.0 109.0 L 154.0 109.0 L 156.0 109.0 L 159.0 109.0 L 165.0 109.0 L 171.0 109.0 L 174.0 109.0 L 176.0 109.0 L 177.0 109.0 L 179.0 112.0 L 181.0 122.0 L 184.0 138.0 L 187.0 156.0 L 189.0 172.0 L 191.0 185.0 L 191.0 194.0 L 190.0 198.0 L 188.0 199.0 L 184.0 199.0 L 174.0 196.0 " stroke="black" fill="none" stroke-width="5.0" stroke-linecap="round" stroke-linejoin="round" />
<path d="M 157.0 112.0 L 157.0 112.0 L 157.0 112.0 L 157.0 112.0 L 157.0 113.0 L 157.0 119.0 L 157.0 127.0 L 157.0 134.0 L 158.0 138.0 L 162.0 141.0 L 170.0 141.0 L 177.0 140.0 L 180.0 140.0 " stroke="black" fill="none" stroke-width="5.0" stroke-linecap="round" stroke-linejoin="round" />
<path d="M 160.0 124.0 L 161.0 124.0 L 162.0 125.0 L 164.0 125.0 L 169.0 126.0 L 176.0 127.0 L 179.0 127.0 " stroke="black" fill="none" stroke-width="5.0" stroke-linecap="round" stroke-linejoin="round" />
<path d="M 138.0 151.0 L 138.0 151.0 L 136.0 151.0 L 135.0 152.0 L 135.0 152.0 L 135.0 152.0 L 136.0 152.0 L 139.0 152.0 L 143.0 152.0 L 149.0 152.0 L 155.0 152.0 L 161.0 152.0 L 163.0 152.0 " stroke="black" fill="none" stroke-width="5.0" stroke-linecap="round" stroke-linejoin="round" />
<path d="M 153.0 156.0 L 153.0 156.0 L 153.0 156.0 L 153.0 157.0 L 153.0 162.0 L 154.0 172.0 L 155.0 186.0 L 156.0 196.0 L 157.0 200.0 L 157.0 201.0 " stroke="black" fill="none" stroke-width="5.0" stroke-linecap="round" stroke-linejoin="round" />
<path d="M 142.0 155.0 L 142.0 155.0 L 141.0 155.0 L 141.0 155.0 L 141.0 159.0 L 140.0 167.0 L 140.0 176.0 L 140.0 180.0 " stroke="black" fill="none" stroke-width="5.0" stroke-linecap="round" stroke-linejoin="round" />
<path d="M 144.0 160.0 L 144.0 160.0 L 144.0 161.0 L 144.0 161.0 L 145.0 161.0 L 148.0 161.0 L 151.0 161.0 L 152.0 161.0 " stroke="black" fill="none" stroke-width="5.0" stroke-linecap="round" stroke-linejoin="round" />
<path d="M 142.0 169.0 L 142.0 169.0 L 143.0 169.0 L 146.0 169.0 L 150.0 169.0 L 153.0 169.0 " stroke="black" fill="none" stroke-width="5.0" stroke-linecap="round" stroke-linejoin="round" />
<path d="M 127.0 181.0 L 127.0 181.0 L 129.0 182.0 L 137.0 183.0 L 150.0 183.0 L 162.0 183.0 L 169.0 183.0 " stroke="black" fill="none" stroke-width="5.0" stroke-linecap="round" stroke-linejoin="round" />
</svg>