<svg xmlns="http://www.w3.org/2000/svg" width="300" height="300" viewBox="0 0 300 300">
<path d="M 120.0 131.0 L 120.0 131.0 L 120.0 132.0 L 120.0 133.0 L 119.0 137.0 L 119.0 148.0 L 121.0 160.0 L 121.0 168.0 L 122.0 170.0 L 122.0 170.0 " stroke="black" fill="none" stroke-width="5.0" stroke-linecap="round" stroke-linejoin="round" />
<path d="M 122.0 133.0 L 123.0 133.0 L 123.0 132.0 L 125.0 132.0 L 129.0 131.0 L 137.0 130.0 L 148.0 130.0 L 158.0 129.0 L 164.0 129.0 L 168.0 130.0 L 170.0 134.0 L 171.0 141.0 L 171.0 150.0 L 172.0 159.0 L 173.0 165.0 L 173.0 168.0 L 173.0 168.0 " stroke="black" fill="none" stroke-width="5.0" stroke-linecap="round" stroke-linejoin="round" />
<path d="M 128.0 151.0 L 128.0 151.0 L 129.0 151.0 L 133.0 151.0 L 142.0 150.0 L 152.0 149.0 L 160.0 148.0 L 162.0 147.0 " stroke="black" fill="none" stroke-width="5.0" stroke-linecap="round" stroke-linejoin="round" />
<path d="M 138.0 108.0 L 138.0 108.0 L 138.0 109.0 L 137.0 114.0 L 137.0 127.0 L 139.0 146.0 L 140.0 161.0 L 140.0 167.0 L 140.0 168.0 " stroke="black" fill="none" stroke-width="5.0" stroke-linecap="round" stroke-linejoin="round" />
<path d="M 152.0 106.0 L 152.0 107.0 L 152.0 110.0 L 152.0 117.0 L 152.0 134.0 L 153.0 152.0 L 154.0 164.0 " stroke="black" fill="none" stroke-width="5.0" stroke-linecap="round" stroke-linejoin="round" />
<path d="M 104.0 174.0 L 104.0 174.0 L 104.0 175.0 L 105.0 175.0 L 111.0 175.0 L 128.0 175.0 L 148.0 173.0 L 165.0 172.0 L 178.0 171.0 L 184.0 171.0 L 185.0 171.0 L 184.0 171.0 " stroke="black" fill="none" stroke-width="5.0" stroke-linecap="round" stroke-linejoin="round" />
<path d="M 135.0 187.0 L 135.0 187.0 L 135.0 187.0 L 134.0 189.0 L 133.0 192.0 L 131.0 198.0 L 130.0 204.0 L 130.0 205.0 " stroke="black" fill="none" stroke-width="5.0" stroke-linecap="round" stroke-linejoin="round" />
<path d="M 162.0 190.0 L 164.0 192.0 L 166.0 194.0 L 169.0 198.0 L 171.0 201.0 L 173.0 203.0 L 173.0 204.0 " stroke="black" fill="none" stroke-width="5.0" stroke-linecap="round" stroke-linejoin="round" />
</svg>