<svg xmlns="http://www.w3.org/2000/svg" width="300" height="300" viewBox="0 0 300 300">
<path d="M 125.0 117.0 L 125.0 116.0 L 125.0 115.0 L 125.0 115.0 L 124.0 117.0 L 124.0 124.0 L 124.0 134.0 L 122.0 168.0 L 120.0 186.0 L 120.0 192.0 L 120.0 193.0 L 120.0 192.0 " stroke="black" fill="none" stroke-width="5.0" stroke-linecap="round" stroke-linejoin="round" />
<path d="M 127.0 115.0 L 128.0 115.0 L 129.0 114.0 L 133.0 114.0 L 138.0 113.0 L 147.0 113.0 L 154.0 113.0 L 161.0 113.0 L 163.0 113.0 L 165.0 113.0 L 167.0 114.0 L 171.0 124.0 L 175.0 139.0 L 178.0 153.0 L 181.0 174.0 L 183.0 189.0 L 184.0 194.0 L 184.0 197.0 L 183.0 201.0 L 178.0 202.0 L 171.0 201.0 L 168.0 199.0 " stroke="black" fill="none" stroke-width="5.0" stroke-linecap="round" stroke-linejoin="round" />
<path d="M 140.0 130.0 L 140.0 131.0 L 141.0 133.0 L 141.0 134.0 L 142.0 139.0 L 143.0 141.0 L 145.0 143.0 " stroke="black" fill="none" stroke-width="5.0" stroke-linecap="round" stroke-linejoin="round" />
<path d="M 153.0 130.0 L 153.0 131.0 L 153.0 132.0 L 153.0 134.0 L 153.0 139.0 L 153.0 143.0 L 153.0 145.0 " stroke="black" fill="none" stroke-width="5.0" stroke-linecap="round" stroke-linejoin="round" />
<path d="M 137.0 149.0 L 137.0 149.0 L 137.0 149.0 L 137.0 149.0 L 138.0 148.0 L 145.0 147.0 L 154.0 147.0 L 160.0 147.0 L 165.0 148.0 L 165.0 149.0 " stroke="black" fill="none" stroke-width="5.0" stroke-linecap="round" stroke-linejoin="round" />
<path d="M 149.0 153.0 L 149.0 153.0 L 149.0 153.0 L 150.0 153.0 L 150.0 153.0 L 150.0 156.0 L 151.0 162.0 L 151.0 172.0 L 151.0 174.0 " stroke="black" fill="none" stroke-width="5.0" stroke-linecap="round" stroke-linejoin="round" />
<path d="M 140.0 165.0 L 140.0 165.0 L 140.0 164.0 L 140.0 164.0 L 140.0 165.0 L 140.0 167.0 L 141.0 170.0 L 142.0 177.0 L 145.0 181.0 L 148.0 182.0 L 154.0 182.0 L 161.0 182.0 L 166.0 182.0 L 168.0 181.0 L 169.0 180.0 L 169.0 177.0 L 169.0 170.0 L 168.0 166.0 " stroke="black" fill="none" stroke-width="5.0" stroke-linecap="round" stroke-linejoin="round" />
</svg>