<svg xmlns="http://www.w3.org/2000/svg" width="300" height="300" viewBox="0 0 300 300">
<path d="M 119.0 121.0 L 119.0 121.0 L 121.0 122.0 L 122.0 124.0 L 123.0 126.0 L 125.0 130.0 " stroke="black" fill="none" stroke-width="5.0" stroke-linecap="round" stroke-linejoin="round" />
<path d="M 115.0 146.0 L 115.0 146.0 L 115.0 146.0 L 116.0 146.0 L 117.0 146.0 L 118.0 146.0 L 121.0 146.0 L 123.0 146.0 L 126.0 147.0 L 126.0 149.0 L 126.0 152.0 L 124.0 155.0 L 121.0 157.0 L 119.0 159.0 L 118.0 161.0 L 117.0 164.0 L 117.0 168.0 L 118.0 172.0 L 119.0 175.0 L 119.0 177.0 " stroke="black" fill="none" stroke-width="5.0" stroke-linecap="round" stroke-linejoin="round" />
<path d="M 101.0 190.0 L 101.0 190.0 L 100.0 190.0 L 100.0 190.0 L 105.0 188.0 L 113.0 184.0 L 124.0 181.0 L 135.0 180.0 L 144.0 182.0 L 152.0 186.0 L 162.0 190.0 L 173.0 191.0 L 183.0 189.0 L 188.0 186.0 " stroke="black" fill="none" stroke-width="5.0" stroke-linecap="round" stroke-linejoin="round" />
<path d="M 148.0 110.0 L 148.0 110.0 L 148.0 111.0 L 148.0 111.0 L 148.0 114.0 L 149.0 117.0 L 150.0 120.0 " stroke="black" fill="none" stroke-width="5.0" stroke-linecap="round" stroke-linejoin="round" />
<path d="M 164.0 106.0 L 164.0 106.0 L 164.0 106.0 L 164.0 107.0 L 163.0 112.0 L 160.0 117.0 " stroke="black" fill="none" stroke-width="5.0" stroke-linecap="round" stroke-linejoin="round" />
<path d="M 141.0 128.0 L 141.0 128.0 L 141.0 129.0 L 141.0 129.0 L 145.0 129.0 L 154.0 127.0 L 164.0 125.0 L 172.0 124.0 L 174.0 124.0 " stroke="black" fill="none" stroke-width="5.0" stroke-linecap="round" stroke-linejoin="round" />
<path d="M 159.0 128.0 L 159.0 128.0 L 159.0 128.0 L 158.0 129.0 L 156.0 130.0 L 153.0 134.0 L 148.0 140.0 L 143.0 146.0 L 139.0 149.0 L 138.0 149.0 " stroke="black" fill="none" stroke-width="5.0" stroke-linecap="round" stroke-linejoin="round" />
<path d="M 154.0 137.0 L 154.0 137.0 L 154.0 137.0 L 155.0 139.0 L 159.0 144.0 L 163.0 153.0 L 167.0 163.0 L 168.0 169.0 L 168.0 173.0 L 166.0 174.0 L 160.0 174.0 L 155.0 172.0 " stroke="black" fill="none" stroke-width="5.0" stroke-linecap="round" stroke-linejoin="round" />
<path d="M 158.0 144.0 L 158.0 144.0 L 159.0 143.0 L 159.0 143.0 L 159.0 144.0 L 157.0 146.0 L 153.0 150.0 L 148.0 155.0 L 142.0 159.0 " stroke="black" fill="none" stroke-width="5.0" stroke-linecap="round" stroke-linejoin="round" />
<path d="M 161.0 151.0 L 161.0 151.0 L 161.0 153.0 L 160.0 154.0 L 158.0 156.0 L 156.0 159.0 L 152.0 163.0 L 146.0 167.0 " stroke="black" fill="none" stroke-width="5.0" stroke-linecap="round" stroke-linejoin="round" />
<path d="M 161.0 152.0 L 162.0 152.0 L 164.0 150.0 L 167.0 148.0 L 171.0 145.0 L 176.0 143.0 L 180.0 141.0 L 183.0 140.0 L 183.0 140.0 " stroke="black" fill="none" stroke-width="5.0" stroke-linecap="round" stroke-linejoin="round" />
<path d="M 168.0 151.0 L 169.0 152.0 L 171.0 153.0 L 177.0 156.0 L 186.0 162.0 L 194.0 168.0 L 198.0 172.0 " stroke="black" fill="none" stroke-width="5.0" stroke-linecap="round" stroke-linejoin="round" />
</svg>