<svg xmlns="http://www.w3.org/2000/svg" width="300" height="300" viewBox="0 0 300 300">
<path d="M 115.0 101.0 L 115.0 101.0 L 116.0 101.0 L 116.0 100.0 L 116.0 100.0 L 116.0 103.0 L 116.0 109.0 L 116.0 114.0 L 116.0 118.0 L 116.0 118.0 " stroke="black" fill="none" stroke-width="5.0" stroke-linecap="round" stroke-linejoin="round" />
<path d="M 115.0 101.0 L 116.0 101.0 L 117.0 101.0 L 118.0 101.0 L 120.0 101.0 L 123.0 101.0 L 126.0 101.0 L 129.0 102.0 L 132.0 105.0 L 133.0 109.0 L 134.0 113.0 L 134.0 116.0 L 135.0 118.0 " stroke="black" fill="none" stroke-width="5.0" stroke-linecap="round" stroke-linejoin="round" />
<path d="M 114.0 117.0 L 115.0 118.0 L 115.0 118.0 L 117.0 119.0 L 123.0 119.0 L 130.0 119.0 L 135.0 119.0 " stroke="black" fill="none" stroke-width="5.0" stroke-linecap="round" stroke-linejoin="round" />
<path d="M 149.0 104.0 L 149.0 104.0 L 149.0 104.0 L 149.0 105.0 L 150.0 108.0 L 150.0 113.0 L 150.0 116.0 L 151.0 118.0 " stroke="black" fill="none" stroke-width="5.0" stroke-linecap="round" stroke-linejoin="round" />
<path d="M 150.0 105.0 L 150.0 105.0 L 150.0 105.0 L 150.0 105.0 L 151.0 105.0 L 154.0 105.0 L 159.0 104.0 L 164.0 104.0 L 169.0 105.0 L 172.0 109.0 L 174.0 113.0 L 175.0 116.0 L 175.0 118.0 L 175.0 118.0 " stroke="black" fill="none" stroke-width="5.0" stroke-linecap="round" stroke-linejoin="round" />
<path d="M 152.0 120.0 L 152.0 121.0 L 154.0 121.0 L 157.0 122.0 L 163.0 122.0 L 170.0 122.0 L 173.0 122.0 " stroke="black" fill="none" stroke-width="5.0" stroke-linecap="round" stroke-linejoin="round" />
<path d="M 121.0 134.0 L 121.0 134.0 L 122.0 134.0 L 124.0 134.0 L 127.0 134.0 L 135.0 135.0 L 148.0 136.0 L 161.0 137.0 L 170.0 138.0 L 173.0 139.0 L 173.0 139.0 " stroke="black" fill="none" stroke-width="5.0" stroke-linecap="round" stroke-linejoin="round" />
<path d="M 117.0 137.0 L 117.0 137.0 L 117.0 138.0 L 117.0 142.0 L 115.0 152.0 L 112.0 169.0 L 109.0 186.0 L 106.0 196.0 L 105.0 200.0 L 105.0 200.0 L 105.0 200.0 " stroke="black" fill="none" stroke-width="5.0" stroke-linecap="round" stroke-linejoin="round" />
<path d="M 125.0 149.0 L 125.0 149.0 L 125.0 149.0 L 126.0 149.0 L 128.0 149.0 L 132.0 149.0 L 137.0 149.0 L 141.0 149.0 L 143.0 149.0 L 143.0 149.0 " stroke="black" fill="none" stroke-width="5.0" stroke-linecap="round" stroke-linejoin="round" />
<path d="M 133.0 151.0 L 133.0 152.0 L 133.0 152.0 L 133.0 153.0 L 133.0 155.0 L 134.0 158.0 L 134.0 159.0 " stroke="black" fill="none" stroke-width="5.0" stroke-linecap="round" stroke-linejoin="round" />
<path d="M 116.0 162.0 L 118.0 162.0 L 120.0 162.0 L 125.0 163.0 L 133.0 163.0 L 143.0 162.0 L 148.0 161.0 L 150.0 161.0 L 150.0 161.0 " stroke="black" fill="none" stroke-width="5.0" stroke-linecap="round" stroke-linejoin="round" />
<path d="M 141.0 163.0 L 141.0 163.0 L 141.0 164.0 L 141.0 165.0 L 141.0 168.0 L 141.0 177.0 L 142.0 189.0 L 143.0 200.0 L 144.0 207.0 L 144.0 208.0 L 144.0 207.0 " stroke="black" fill="none" stroke-width="5.0" stroke-linecap="round" stroke-linejoin="round" />
<path d="M 125.0 165.0 L 125.0 165.0 L 125.0 167.0 L 125.0 168.0 L 125.0 172.0 L 124.0 178.0 L 124.0 183.0 L 123.0 186.0 " stroke="black" fill="none" stroke-width="5.0" stroke-linecap="round" stroke-linejoin="round" />
<path d="M 125.0 173.0 L 127.0 173.0 L 128.0 173.0 L 131.0 173.0 L 135.0 173.0 L 138.0 173.0 L 139.0 173.0 " stroke="black" fill="none" stroke-width="5.0" stroke-linecap="round" stroke-linejoin="round" />
<path d="M 124.0 182.0 L 126.0 182.0 L 130.0 182.0 L 135.0 182.0 L 138.0 182.0 " stroke="black" fill="none" stroke-width="5.0" stroke-linecap="round" stroke-linejoin="round" />
<path d="M 113.0 191.0 L 114.0 191.0 L 117.0 191.0 L 122.0 192.0 L 131.0 192.0 L 139.0 192.0 " stroke="black" fill="none" stroke-width="5.0" stroke-linecap="round" stroke-linejoin="round" />
<path d="M 155.0 149.0 L 155.0 149.0 L 155.0 149.0 L 155.0 149.0 L 155.0 149.0 L 155.0 150.0 L 155.0 155.0 L 153.0 164.0 L 151.0 172.0 L 150.0 174.0 " stroke="black" fill="none" stroke-width="5.0" stroke-linecap="round" stroke-linejoin="round" />
<path d="M 156.0 157.0 L 156.0 157.0 L 157.0 157.0 L 158.0 157.0 L 160.0 157.0 L 164.0 157.0 L 169.0 158.0 L 174.0 158.0 L 174.0 159.0 " stroke="black" fill="none" stroke-width="5.0" stroke-linecap="round" stroke-linejoin="round" />
<path d="M 169.0 162.0 L 170.0 163.0 L 170.0 164.0 L 171.0 166.0 L 171.0 170.0 L 170.0 178.0 L 167.0 190.0 L 164.0 200.0 L 161.0 206.0 " stroke="black" fill="none" stroke-width="5.0" stroke-linecap="round" stroke-linejoin="round" />
<path d="M 154.0 174.0 L 155.0 174.0 L 157.0 174.0 L 159.0 175.0 L 164.0 183.0 L 171.0 195.0 L 178.0 206.0 L 182.0 213.0 L 183.0 215.0 L 183.0 215.0 " stroke="black" fill="none" stroke-width="5.0" stroke-linecap="round" stroke-linejoin="round" />
</svg>