<svg xmlns="http://www.w3.org/2000/svg" width="300" height="300" viewBox="0 0 300 300">
<path d="M 150.0 113.0 L 150.0 113.0 L 150.0 113.0 L 151.0 113.0 L 151.0 113.0 L 151.0 113.0 L 150.0 115.0 L 145.0 122.0 L 132.0 135.0 L 116.0 148.0 L 108.0 154.0 " stroke="black" fill="none" stroke-width="5.0" stroke-linecap="round" stroke-linejoin="round" />
<path d="M 148.0 116.0 L 148.0 116.0 L 148.0 116.0 L 147.0 117.0 L 147.0 117.0 L 148.0 118.0 L 152.0 120.0 L 159.0 123.0 L 171.0 129.0 L 184.0 134.0 L 192.0 138.0 L 194.0 141.0 " stroke="black" fill="none" stroke-width="5.0" stroke-linecap="round" stroke-linejoin="round" />
<path d="M 134.0 149.0 L 134.0 149.0 L 135.0 149.0 L 136.0 149.0 L 139.0 148.0 L 148.0 148.0 L 159.0 148.0 L 166.0 147.0 L 168.0 147.0 " stroke="black" fill="none" stroke-width="5.0" stroke-linecap="round" stroke-linejoin="round" />
<path d="M 124.0 170.0 L 124.0 171.0 L 124.0 172.0 L 124.0 172.0 L 124.0 174.0 L 125.0 179.0 L 125.0 188.0 L 126.0 196.0 L 127.0 199.0 L 128.0 199.0 " stroke="black" fill="none" stroke-width="5.0" stroke-linecap="round" stroke-linejoin="round" />
<path d="M 127.0 169.0 L 128.0 170.0 L 129.0 170.0 L 133.0 170.0 L 141.0 170.0 L 152.0 169.0 L 162.0 168.0 L 171.0 168.0 L 176.0 170.0 L 178.0 177.0 L 179.0 184.0 L 179.0 190.0 L 179.0 194.0 L 179.0 196.0 " stroke="black" fill="none" stroke-width="5.0" stroke-linecap="round" stroke-linejoin="round" />
<path d="M 130.0 202.0 L 130.0 203.0 L 131.0 204.0 L 133.0 204.0 L 141.0 204.0 L 153.0 204.0 L 166.0 203.0 L 174.0 202.0 L 175.0 201.0 " stroke="black" fill="none" stroke-width="5.0" stroke-linecap="round" stroke-linejoin="round" />
</svg>