<svg xmlns="http://www.w3.org/2000/svg" width="300" height="300" viewBox="0 0 300 300">
<path d="M 148.0 107.0 L 148.0 107.0 L 148.0 108.0 L 148.0 108.0 L 147.0 109.0 L 145.0 113.0 L 137.0 123.0 L 123.0 140.0 L 111.0 152.0 L 107.0 155.0 " stroke="black" fill="none" stroke-width="5.0" stroke-linecap="round" stroke-linejoin="round" />
<path d="M 147.0 111.0 L 147.0 111.0 L 147.0 111.0 L 147.0 112.0 L 149.0 114.0 L 156.0 121.0 L 169.0 130.0 L 180.0 139.0 L 181.0 141.0 " stroke="black" fill="none" stroke-width="5.0" stroke-linecap="round" stroke-linejoin="round" />
<path d="M 132.0 143.0 L 132.0 143.0 L 132.0 142.0 L 132.0 142.0 L 137.0 142.0 L 147.0 142.0 L 157.0 141.0 L 163.0 141.0 " stroke="black" fill="none" stroke-width="5.0" stroke-linecap="round" stroke-linejoin="round" />
<path d="M 123.0 165.0 L 123.0 165.0 L 123.0 165.0 L 123.0 165.0 L 123.0 166.0 L 124.0 172.0 L 126.0 179.0 L 127.0 184.0 " stroke="black" fill="none" stroke-width="5.0" stroke-linecap="round" stroke-linejoin="round" />
<path d="M 127.0 157.0 L 127.0 157.0 L 127.0 157.0 L 127.0 157.0 L 128.0 157.0 L 133.0 157.0 L 143.0 156.0 L 155.0 156.0 L 164.0 155.0 L 170.0 155.0 L 173.0 156.0 L 176.0 166.0 L 177.0 175.0 L 178.0 182.0 L 178.0 186.0 L 178.0 188.0 " stroke="black" fill="none" stroke-width="5.0" stroke-linecap="round" stroke-linejoin="round" />
<path d="M 129.0 190.0 L 129.0 190.0 L 129.0 190.0 L 129.0 190.0 L 132.0 190.0 L 144.0 191.0 L 160.0 191.0 L 173.0 191.0 L 176.0 192.0 " stroke="black" fill="none" stroke-width="5.0" stroke-linecap="round" stroke-linejoin="round" />
</svg>