<svg xmlns="http://www.w3.org/2000/svg" width="300" height="300" viewBox="0 0 300 300">
<path d="M 151.0 112.0 L 151.0 112.0 L 151.0 112.0 L 151.0 112.0 L 151.0 112.0 L 150.0 113.0 L 146.0 117.0 L 136.0 128.0 L 122.0 141.0 L 111.0 151.0 L 107.0 154.0 L 107.0 154.0 " stroke="black" fill="none" stroke-width="5.0" stroke-linecap="round" stroke-linejoin="round" />
<path d="M 151.0 113.0 L 151.0 113.0 L 151.0 113.0 L 151.0 113.0 L 151.0 113.0 L 155.0 117.0 L 164.0 125.0 L 176.0 135.0 L 184.0 142.0 L 186.0 146.0 " stroke="black" fill="none" stroke-width="5.0" stroke-linecap="round" stroke-linejoin="round" />
<path d="M 137.0 141.0 L 137.0 141.0 L 137.0 141.0 L 137.0 141.0 L 138.0 141.0 L 146.0 141.0 L 157.0 140.0 L 165.0 139.0 L 168.0 140.0 " stroke="black" fill="none" stroke-width="5.0" stroke-linecap="round" stroke-linejoin="round" />
<path d="M 126.0 161.0 L 126.0 162.0 L 126.0 162.0 L 127.0 163.0 L 127.0 167.0 L 127.0 175.0 L 128.0 182.0 L 129.0 186.0 " stroke="black" fill="none" stroke-width="5.0" stroke-linecap="round" stroke-linejoin="round" />
<path d="M 128.0 157.0 L 128.0 157.0 L 128.0 157.0 L 129.0 157.0 L 136.0 156.0 L 148.0 155.0 L 160.0 155.0 L 167.0 155.0 L 172.0 155.0 L 174.0 156.0 L 175.0 158.0 L 176.0 163.0 L 177.0 170.0 L 178.0 178.0 L 179.0 183.0 L 180.0 186.0 " stroke="black" fill="none" stroke-width="5.0" stroke-linecap="round" stroke-linejoin="round" />
<path d="M 129.0 188.0 L 129.0 188.0 L 129.0 188.0 L 129.0 188.0 L 134.0 188.0 L 147.0 189.0 L 162.0 189.0 L 174.0 190.0 L 181.0 190.0 " stroke="black" fill="none" stroke-width="5.0" stroke-linecap="round" stroke-linejoin="round" />
</svg>