<svg xmlns="http://www.w3.org/2000/svg" width="300" height="300" viewBox="0 0 300 300">
<path d="M 151.0 107.0 L 151.0 107.0 L 151.0 107.0 L 150.0 108.0 L 149.0 111.0 L 146.0 117.0 L 138.0 128.0 L 127.0 140.0 L 116.0 149.0 L 114.0 150.0 " stroke="black" fill="none" stroke-width="5.0" stroke-linecap="round" stroke-linejoin="round" />
<path d="M 152.0 116.0 L 152.0 116.0 L 152.0 117.0 L 152.0 117.0 L 155.0 119.0 L 162.0 124.0 L 174.0 133.0 L 183.0 142.0 L 185.0 144.0 " stroke="black" fill="none" stroke-width="5.0" stroke-linecap="round" stroke-linejoin="round" />
<path d="M 139.0 147.0 L 139.0 147.0 L 141.0 147.0 L 144.0 148.0 L 152.0 147.0 L 162.0 146.0 L 168.0 146.0 L 169.0 146.0 " stroke="black" fill="none" stroke-width="5.0" stroke-linecap="round" stroke-linejoin="round" />
<path d="M 132.0 170.0 L 132.0 171.0 L 132.0 173.0 L 132.0 178.0 L 132.0 184.0 L 133.0 189.0 L 134.0 191.0 " stroke="black" fill="none" stroke-width="5.0" stroke-linecap="round" stroke-linejoin="round" />
<path d="M 134.0 169.0 L 134.0 169.0 L 135.0 169.0 L 137.0 169.0 L 141.0 169.0 L 149.0 168.0 L 158.0 167.0 L 166.0 167.0 L 173.0 168.0 L 176.0 171.0 L 178.0 176.0 L 178.0 183.0 L 178.0 189.0 L 177.0 193.0 " stroke="black" fill="none" stroke-width="5.0" stroke-linecap="round" stroke-linejoin="round" />
<path d="M 136.0 196.0 L 136.0 196.0 L 136.0 197.0 L 137.0 197.0 L 145.0 198.0 L 158.0 197.0 L 176.0 196.0 " stroke="black" fill="none" stroke-width="5.0" stroke-linecap="round" stroke-linejoin="round" />
</svg>