<svg xmlns="http://www.w3.org/2000/svg" width="300" height="300" viewBox="0 0 300 300">
<path d="M 122.0 122.0 L 122.0 122.0 L 122.0 122.0 L 122.0 123.0 L 122.0 127.0 L 123.0 131.0 " stroke="black" fill="none" stroke-width="5.0" stroke-linecap="round" stroke-linejoin="round" />
<path d="M 123.0 120.0 L 123.0 120.0 L 124.0 120.0 L 125.0 120.0 L 129.0 119.0 L 137.0 118.0 L 147.0 116.0 L 157.0 115.0 L 166.0 115.0 L 174.0 115.0 L 181.0 115.0 L 186.0 116.0 L 188.0 117.0 L 189.0 118.0 L 189.0 121.0 L 189.0 125.0 L 186.0 131.0 L 185.0 135.0 " stroke="black" fill="none" stroke-width="5.0" stroke-linecap="round" stroke-linejoin="round" />
<path d="M 155.0 102.0 L 155.0 102.0 L 155.0 102.0 L 155.0 102.0 L 155.0 105.0 " stroke="black" fill="none" stroke-width="5.0" stroke-linecap="round" stroke-linejoin="round" />
<path d="M 139.0 131.0 L 139.0 131.0 L 139.0 131.0 L 139.0 131.0 L 139.0 135.0 L 140.0 141.0 L 141.0 146.0 L 143.0 149.0 " stroke="black" fill="none" stroke-width="5.0" stroke-linecap="round" stroke-linejoin="round" />
<path d="M 141.0 131.0 L 141.0 131.0 L 141.0 131.0 L 141.0 131.0 L 142.0 130.0 L 144.0 130.0 L 148.0 129.0 L 153.0 129.0 L 158.0 129.0 L 162.0 129.0 L 165.0 131.0 L 166.0 136.0 L 167.0 142.0 L 168.0 149.0 L 168.0 153.0 L 168.0 155.0 " stroke="black" fill="none" stroke-width="5.0" stroke-linecap="round" stroke-linejoin="round" />
<path d="M 143.0 141.0 L 143.0 141.0 L 143.0 141.0 L 144.0 141.0 L 148.0 141.0 L 154.0 142.0 L 161.0 143.0 L 165.0 143.0 " stroke="black" fill="none" stroke-width="5.0" stroke-linecap="round" stroke-linejoin="round" />
<path d="M 141.0 153.0 L 142.0 153.0 L 144.0 154.0 L 149.0 155.0 L 157.0 155.0 L 166.0 156.0 L 167.0 157.0 " stroke="black" fill="none" stroke-width="5.0" stroke-linecap="round" stroke-linejoin="round" />
<path d="M 146.0 165.0 L 146.0 166.0 L 145.0 166.0 L 145.0 167.0 L 145.0 169.0 L 144.0 174.0 L 142.0 182.0 L 139.0 189.0 L 138.0 195.0 L 138.0 197.0 L 140.0 199.0 L 147.0 201.0 L 156.0 204.0 L 166.0 205.0 L 173.0 206.0 L 174.0 206.0 " stroke="black" fill="none" stroke-width="5.0" stroke-linecap="round" stroke-linejoin="round" />
<path d="M 162.0 168.0 L 162.0 168.0 L 161.0 169.0 L 160.0 171.0 L 160.0 177.0 L 158.0 188.0 L 153.0 203.0 L 146.0 215.0 L 144.0 217.0 " stroke="black" fill="none" stroke-width="5.0" stroke-linecap="round" stroke-linejoin="round" />
<path d="M 122.0 185.0 L 122.0 185.0 L 122.0 185.0 L 124.0 185.0 L 128.0 185.0 L 141.0 185.0 L 161.0 185.0 L 182.0 186.0 L 189.0 186.0 " stroke="black" fill="none" stroke-width="5.0" stroke-linecap="round" stroke-linejoin="round" />
</svg>