<svg xmlns="http://www.w3.org/2000/svg" width="300" height="300" viewBox="0 0 300 300">
<path d="M 118.0 111.0 L 118.0 111.0 L 118.0 111.0 L 118.0 111.0 L 118.0 111.0 L 119.0 112.0 L 123.0 115.0 L 124.0 115.0 " stroke="black" fill="none" stroke-width="5.0" stroke-linecap="round" stroke-linejoin="round" />
<path d="M 136.0 102.0 L 136.0 101.0 L 136.0 100.0 L 136.0 100.0 L 136.0 102.0 L 136.0 111.0 L 134.0 127.0 L 127.0 148.0 L 118.0 170.0 L 110.0 187.0 " stroke="black" fill="none" stroke-width="5.0" stroke-linecap="round" stroke-linejoin="round" />
<path d="M 123.0 126.0 L 123.0 126.0 L 123.0 127.0 L 124.0 127.0 L 127.0 127.0 L 135.0 125.0 L 143.0 124.0 L 150.0 123.0 L 153.0 122.0 L 155.0 122.0 L 155.0 126.0 L 155.0 132.0 L 155.0 138.0 L 155.0 139.0 " stroke="black" fill="none" stroke-width="5.0" stroke-linecap="round" stroke-linejoin="round" />
<path d="M 134.0 145.0 L 134.0 145.0 L 134.0 145.0 L 134.0 145.0 L 135.0 144.0 L 139.0 143.0 L 144.0 142.0 L 150.0 142.0 L 156.0 142.0 L 160.0 142.0 L 163.0 142.0 L 164.0 144.0 L 164.0 148.0 L 164.0 152.0 " stroke="black" fill="none" stroke-width="5.0" stroke-linecap="round" stroke-linejoin="round" />
<path d="M 132.0 158.0 L 132.0 158.0 L 132.0 158.0 L 134.0 158.0 L 137.0 158.0 L 143.0 158.0 L 151.0 158.0 L 160.0 158.0 L 167.0 158.0 L 172.0 158.0 L 177.0 158.0 L 180.0 157.0 L 182.0 160.0 L 185.0 166.0 L 187.0 174.0 L 189.0 182.0 L 192.0 191.0 L 194.0 199.0 L 195.0 204.0 L 195.0 207.0 L 194.0 208.0 L 188.0 208.0 L 181.0 207.0 " stroke="black" fill="none" stroke-width="5.0" stroke-linecap="round" stroke-linejoin="round" />
<path d="M 133.0 173.0 L 133.0 173.0 L 133.0 173.0 L 132.0 173.0 L 132.0 176.0 L 133.0 181.0 L 134.0 186.0 " stroke="black" fill="none" stroke-width="5.0" stroke-linecap="round" stroke-linejoin="round" />
<path d="M 149.0 174.0 L 149.0 174.0 L 149.0 175.0 L 149.0 176.0 L 149.0 180.0 L 150.0 183.0 " stroke="black" fill="none" stroke-width="5.0" stroke-linecap="round" stroke-linejoin="round" />
<path d="M 159.0 173.0 L 159.0 174.0 L 159.0 175.0 L 159.0 177.0 L 161.0 182.0 L 162.0 186.0 " stroke="black" fill="none" stroke-width="5.0" stroke-linecap="round" stroke-linejoin="round" />
<path d="M 173.0 179.0 L 173.0 180.0 L 174.0 183.0 L 176.0 188.0 L 178.0 194.0 " stroke="black" fill="none" stroke-width="5.0" stroke-linecap="round" stroke-linejoin="round" />
</svg>