<svg xmlns="http://www.w3.org/2000/svg" width="300" height="300" viewBox="0 0 300 300">
<path d="M 129.0 112.0 L 129.0 112.0 L 129.0 112.0 L 129.0 113.0 L 131.0 116.0 L 134.0 121.0 L 139.0 126.0 L 140.0 126.0 " stroke="black" fill="none" stroke-width="5.0" stroke-linecap="round" stroke-linejoin="round" />
<path d="M 146.0 101.0 L 146.0 101.0 L 146.0 101.0 L 146.0 101.0 L 146.0 103.0 L 145.0 109.0 L 143.0 124.0 L 137.0 144.0 L 130.0 161.0 L 123.0 173.0 L 119.0 178.0 L 119.0 179.0 " stroke="black" fill="none" stroke-width="5.0" stroke-linecap="round" stroke-linejoin="round" />
<path d="M 129.0 133.0 L 129.0 133.0 L 129.0 133.0 L 129.0 133.0 L 130.0 133.0 L 131.0 132.0 L 136.0 131.0 L 143.0 129.0 L 150.0 128.0 L 155.0 127.0 L 158.0 127.0 L 159.0 127.0 L 159.0 128.0 L 159.0 132.0 L 159.0 137.0 L 159.0 140.0 L 159.0 141.0 " stroke="black" fill="none" stroke-width="5.0" stroke-linecap="round" stroke-linejoin="round" />
<path d="M 138.0 145.0 L 138.0 145.0 L 138.0 145.0 L 138.0 145.0 L 140.0 145.0 L 145.0 144.0 L 152.0 142.0 L 160.0 141.0 L 165.0 140.0 L 168.0 140.0 L 168.0 140.0 L 169.0 141.0 L 169.0 144.0 L 169.0 148.0 L 168.0 150.0 " stroke="black" fill="none" stroke-width="5.0" stroke-linecap="round" stroke-linejoin="round" />
<path d="M 137.0 156.0 L 137.0 156.0 L 137.0 156.0 L 137.0 156.0 L 137.0 156.0 L 143.0 156.0 L 153.0 156.0 L 166.0 155.0 L 175.0 155.0 L 180.0 156.0 L 181.0 157.0 L 183.0 159.0 L 185.0 161.0 L 187.0 167.0 L 189.0 176.0 L 191.0 185.0 L 191.0 191.0 L 191.0 194.0 L 190.0 195.0 L 187.0 196.0 L 178.0 196.0 L 172.0 196.0 " stroke="black" fill="none" stroke-width="5.0" stroke-linecap="round" stroke-linejoin="round" />
<path d="M 141.0 171.0 L 141.0 171.0 L 141.0 171.0 L 141.0 172.0 L 141.0 175.0 L 141.0 178.0 L 141.0 181.0 " stroke="black" fill="none" stroke-width="5.0" stroke-linecap="round" stroke-linejoin="round" />
<path d="M 151.0 167.0 L 151.0 167.0 L 151.0 167.0 L 151.0 168.0 L 151.0 171.0 L 152.0 177.0 L 154.0 182.0 L 154.0 183.0 " stroke="black" fill="none" stroke-width="5.0" stroke-linecap="round" stroke-linejoin="round" />
<path d="M 159.0 170.0 L 159.0 170.0 L 159.0 171.0 L 159.0 172.0 L 159.0 174.0 L 160.0 178.0 L 160.0 179.0 " stroke="black" fill="none" stroke-width="5.0" stroke-linecap="round" stroke-linejoin="round" />
<path d="M 171.0 168.0 L 171.0 168.0 L 171.0 170.0 L 172.0 171.0 L 173.0 175.0 L 175.0 180.0 L 176.0 185.0 " stroke="black" fill="none" stroke-width="5.0" stroke-linecap="round" stroke-linejoin="round" />
</svg>