<svg xmlns="http://www.w3.org/2000/svg" width="300" height="300" viewBox="0 0 300 300">
<path d="M 122.0 110.0 L 122.0 110.0 L 122.0 110.0 L 122.0 110.0 L 122.0 111.0 L 122.0 113.0 L 124.0 116.0 " stroke="black" fill="none" stroke-width="5.0" stroke-linecap="round" stroke-linejoin="round" />
<path d="M 113.0 131.0 L 113.0 131.0 L 113.0 131.0 L 114.0 131.0 L 114.0 132.0 L 117.0 132.0 L 123.0 131.0 L 129.0 130.0 L 133.0 129.0 L 135.0 129.0 L 135.0 131.0 L 134.0 134.0 L 131.0 138.0 L 126.0 143.0 L 120.0 149.0 L 113.0 156.0 L 106.0 163.0 L 103.0 167.0 L 102.0 167.0 " stroke="black" fill="none" stroke-width="5.0" stroke-linecap="round" stroke-linejoin="round" />
<path d="M 121.0 152.0 L 121.0 152.0 L 121.0 152.0 L 122.0 152.0 L 122.0 153.0 L 123.0 156.0 L 124.0 164.0 L 125.0 174.0 L 126.0 183.0 L 126.0 187.0 L 126.0 188.0 " stroke="black" fill="none" stroke-width="5.0" stroke-linecap="round" stroke-linejoin="round" />
<path d="M 124.0 157.0 L 124.0 157.0 L 124.0 157.0 L 124.0 157.0 L 125.0 157.0 L 131.0 159.0 L 138.0 161.0 L 139.0 162.0 " stroke="black" fill="none" stroke-width="5.0" stroke-linecap="round" stroke-linejoin="round" />
<path d="M 139.0 145.0 L 139.0 145.0 L 139.0 145.0 L 138.0 146.0 L 137.0 151.0 L 136.0 153.0 " stroke="black" fill="none" stroke-width="5.0" stroke-linecap="round" stroke-linejoin="round" />
<path d="M 152.0 125.0 L 152.0 125.0 L 152.0 125.0 L 152.0 125.0 L 154.0 125.0 L 157.0 125.0 L 162.0 124.0 L 166.0 124.0 L 169.0 124.0 L 171.0 124.0 L 173.0 124.0 L 176.0 129.0 L 178.0 139.0 L 181.0 156.0 L 184.0 175.0 L 185.0 187.0 L 186.0 194.0 L 186.0 197.0 L 185.0 198.0 L 180.0 198.0 L 171.0 194.0 L 168.0 193.0 " stroke="black" fill="none" stroke-width="5.0" stroke-linecap="round" stroke-linejoin="round" />
<path d="M 155.0 131.0 L 155.0 131.0 L 155.0 131.0 L 155.0 131.0 L 155.0 137.0 L 154.0 150.0 L 151.0 168.0 L 147.0 184.0 L 145.0 192.0 " stroke="black" fill="none" stroke-width="5.0" stroke-linecap="round" stroke-linejoin="round" />
</svg>