<svg xmlns="http://www.w3.org/2000/svg" width="300" height="300" viewBox="0 0 300 300">
<path d="M 122.0 114.0 L 122.0 115.0 L 122.0 117.0 L 124.0 121.0 L 127.0 126.0 L 128.0 127.0 " stroke="black" fill="none" stroke-width="5.0" stroke-linecap="round" stroke-linejoin="round" />
<path d="M 111.0 140.0 L 111.0 140.0 L 112.0 140.0 L 113.0 140.0 L 114.0 140.0 L 117.0 140.0 L 122.0 140.0 L 127.0 140.0 L 130.0 140.0 L 131.0 141.0 L 130.0 144.0 L 125.0 148.0 L 120.0 154.0 L 114.0 161.0 L 108.0 169.0 L 103.0 175.0 L 103.0 175.0 " stroke="black" fill="none" stroke-width="5.0" stroke-linecap="round" stroke-linejoin="round" />
<path d="M 104.0 175.0 L 104.0 174.0 " stroke="black" fill="none" stroke-width="5.0" stroke-linecap="round" stroke-linejoin="round" />
<path d="M 119.0 158.0 L 119.0 158.0 L 119.0 158.0 L 120.0 159.0 L 120.0 160.0 L 121.0 165.0 L 121.0 176.0 L 121.0 189.0 L 121.0 196.0 L 121.0 198.0 " stroke="black" fill="none" stroke-width="5.0" stroke-linecap="round" stroke-linejoin="round" />
<path d="M 121.0 162.0 L 121.0 162.0 L 122.0 163.0 L 122.0 163.0 L 123.0 163.0 L 126.0 165.0 L 130.0 168.0 L 136.0 171.0 L 138.0 173.0 " stroke="black" fill="none" stroke-width="5.0" stroke-linecap="round" stroke-linejoin="round" />
<path d="M 135.0 152.0 L 134.0 152.0 L 133.0 153.0 L 132.0 155.0 L 131.0 159.0 L 130.0 161.0 " stroke="black" fill="none" stroke-width="5.0" stroke-linecap="round" stroke-linejoin="round" />
<path d="M 148.0 132.0 L 148.0 132.0 L 148.0 132.0 L 149.0 132.0 L 152.0 132.0 L 158.0 132.0 L 165.0 132.0 L 172.0 131.0 L 175.0 131.0 L 177.0 131.0 L 178.0 136.0 L 180.0 145.0 L 183.0 160.0 L 187.0 177.0 L 188.0 191.0 L 188.0 200.0 L 187.0 206.0 L 183.0 208.0 L 178.0 208.0 L 170.0 205.0 " stroke="black" fill="none" stroke-width="5.0" stroke-linecap="round" stroke-linejoin="round" />
<path d="M 158.0 136.0 L 159.0 136.0 L 160.0 136.0 L 160.0 136.0 L 160.0 140.0 L 159.0 153.0 L 154.0 172.0 L 147.0 192.0 L 145.0 199.0 " stroke="black" fill="none" stroke-width="5.0" stroke-linecap="round" stroke-linejoin="round" />
</svg>