<svg xmlns="http://www.w3.org/2000/svg" width="300" height="300" viewBox="0 0 300 300">
<path d="M 123.0 128.0 L 123.0 128.0 L 123.0 128.0 L 123.0 128.0 L 123.0 128.0 L 124.0 133.0 L 124.0 147.0 L 124.0 166.0 L 124.0 178.0 L 124.0 181.0 L 125.0 179.0 " stroke="black" fill="none" stroke-width="5.0" stroke-linecap="round" stroke-linejoin="round" />
<path d="M 123.0 151.0 L 123.0 151.0 L 123.0 151.0 L 123.0 151.0 L 124.0 151.0 L 129.0 151.0 L 137.0 152.0 L 144.0 153.0 " stroke="black" fill="none" stroke-width="5.0" stroke-linecap="round" stroke-linejoin="round" />
<path d="M 108.0 146.0 L 108.0 147.0 L 108.0 150.0 L 108.0 155.0 L 108.0 165.0 L 108.0 175.0 L 109.0 182.0 L 109.0 183.0 " stroke="black" fill="none" stroke-width="5.0" stroke-linecap="round" stroke-linejoin="round" />
<path d="M 98.0 185.0 L 98.0 185.0 L 98.0 185.0 L 98.0 185.0 L 102.0 186.0 L 114.0 186.0 L 130.0 185.0 L 140.0 185.0 " stroke="black" fill="none" stroke-width="5.0" stroke-linecap="round" stroke-linejoin="round" />
<path d="M 155.0 127.0 L 155.0 127.0 L 155.0 127.0 L 156.0 126.0 L 156.0 126.0 L 156.0 131.0 L 155.0 141.0 L 154.0 156.0 L 154.0 173.0 L 157.0 186.0 L 163.0 193.0 L 172.0 195.0 L 180.0 195.0 L 186.0 194.0 L 189.0 193.0 L 189.0 191.0 L 189.0 186.0 L 187.0 180.0 " stroke="black" fill="none" stroke-width="5.0" stroke-linecap="round" stroke-linejoin="round" />
<path d="M 158.0 150.0 L 158.0 150.0 L 161.0 150.0 L 167.0 150.0 L 178.0 149.0 L 184.0 148.0 " stroke="black" fill="none" stroke-width="5.0" stroke-linecap="round" stroke-linejoin="round" />
</svg>