<svg xmlns="http://www.w3.org/2000/svg" width="300" height="300" viewBox="0 0 300 300">
<path d="M 128.0 121.0 L 128.0 121.0 L 128.0 122.0 L 128.0 122.0 L 128.0 128.0 L 128.0 143.0 L 128.0 159.0 L 128.0 169.0 L 129.0 173.0 L 130.0 173.0 " stroke="black" fill="none" stroke-width="5.0" stroke-linecap="round" stroke-linejoin="round" />
<path d="M 128.0 147.0 L 128.0 147.0 L 128.0 147.0 L 129.0 147.0 L 130.0 147.0 L 133.0 147.0 L 139.0 146.0 L 144.0 146.0 L 145.0 146.0 " stroke="black" fill="none" stroke-width="5.0" stroke-linecap="round" stroke-linejoin="round" />
<path d="M 116.0 141.0 L 116.0 141.0 L 116.0 141.0 L 116.0 142.0 L 116.0 150.0 L 116.0 163.0 L 117.0 174.0 L 117.0 178.0 " stroke="black" fill="none" stroke-width="5.0" stroke-linecap="round" stroke-linejoin="round" />
<path d="M 105.0 181.0 L 105.0 181.0 L 105.0 181.0 L 105.0 182.0 L 111.0 182.0 L 126.0 182.0 L 143.0 181.0 L 147.0 181.0 " stroke="black" fill="none" stroke-width="5.0" stroke-linecap="round" stroke-linejoin="round" />
<path d="M 155.0 117.0 L 155.0 117.0 L 155.0 117.0 L 155.0 117.0 L 155.0 120.0 L 155.0 130.0 L 155.0 150.0 L 155.0 171.0 L 156.0 185.0 L 160.0 189.0 L 166.0 191.0 L 175.0 192.0 L 183.0 193.0 L 188.0 194.0 L 190.0 194.0 L 191.0 194.0 L 191.0 191.0 L 191.0 185.0 L 190.0 180.0 " stroke="black" fill="none" stroke-width="5.0" stroke-linecap="round" stroke-linejoin="round" />
<path d="M 158.0 151.0 L 158.0 151.0 L 158.0 151.0 L 160.0 151.0 L 170.0 152.0 L 185.0 153.0 " stroke="black" fill="none" stroke-width="5.0" stroke-linecap="round" stroke-linejoin="round" />
</svg>