<svg xmlns="http://www.w3.org/2000/svg" width="300" height="300" viewBox="0 0 300 300">
<path d="M 125.0 124.0 L 125.0 124.0 L 125.0 124.0 L 125.0 124.0 L 125.0 128.0 L 126.0 137.0 L 127.0 152.0 L 128.0 167.0 L 129.0 174.0 L 130.0 176.0 " stroke="black" fill="none" stroke-width="5.0" stroke-linecap="round" stroke-linejoin="round" />
<path d="M 130.0 153.0 L 130.0 153.0 L 130.0 153.0 L 131.0 153.0 L 132.0 153.0 L 134.0 153.0 L 139.0 153.0 L 143.0 153.0 " stroke="black" fill="none" stroke-width="5.0" stroke-linecap="round" stroke-linejoin="round" />
<path d="M 115.0 142.0 L 115.0 142.0 L 115.0 142.0 L 115.0 145.0 L 115.0 152.0 L 116.0 164.0 L 117.0 172.0 " stroke="black" fill="none" stroke-width="5.0" stroke-linecap="round" stroke-linejoin="round" />
<path d="M 106.0 180.0 L 106.0 180.0 L 106.0 180.0 L 108.0 180.0 L 116.0 181.0 L 130.0 181.0 L 141.0 181.0 L 146.0 181.0 " stroke="black" fill="none" stroke-width="5.0" stroke-linecap="round" stroke-linejoin="round" />
<path d="M 157.0 125.0 L 157.0 125.0 L 157.0 125.0 L 157.0 126.0 L 157.0 133.0 L 157.0 149.0 L 158.0 167.0 L 161.0 181.0 L 165.0 188.0 L 174.0 189.0 L 184.0 187.0 L 191.0 185.0 L 191.0 184.0 " stroke="black" fill="none" stroke-width="5.0" stroke-linecap="round" stroke-linejoin="round" />
<path d="M 160.0 156.0 L 160.0 156.0 L 161.0 156.0 L 163.0 157.0 L 170.0 157.0 L 183.0 156.0 L 186.0 156.0 " stroke="black" fill="none" stroke-width="5.0" stroke-linecap="round" stroke-linejoin="round" />
</svg>