<svg xmlns="http://www.w3.org/2000/svg" width="300" height="300" viewBox="0 0 300 300">
<path d="M 112.0 124.0 L 112.0 124.0 L 113.0 125.0 L 114.0 126.0 L 118.0 126.0 L 126.0 126.0 L 135.0 125.0 L 141.0 124.0 " stroke="black" fill="none" stroke-width="5.0" stroke-linecap="round" stroke-linejoin="round" />
<path d="M 124.0 102.0 L 124.0 102.0 L 124.0 102.0 L 124.0 102.0 L 124.0 106.0 L 125.0 115.0 L 128.0 134.0 L 131.0 158.0 L 133.0 176.0 L 133.0 186.0 L 133.0 191.0 L 133.0 193.0 L 131.0 193.0 L 126.0 190.0 L 117.0 187.0 L 108.0 183.0 L 104.0 181.0 " stroke="black" fill="none" stroke-width="5.0" stroke-linecap="round" stroke-linejoin="round" />
<path d="M 105.0 162.0 L 105.0 162.0 L 106.0 162.0 L 108.0 162.0 L 115.0 161.0 L 128.0 158.0 L 140.0 154.0 " stroke="black" fill="none" stroke-width="5.0" stroke-linecap="round" stroke-linejoin="round" />
<path d="M 163.0 114.0 L 163.0 114.0 L 164.0 114.0 L 165.0 114.0 L 165.0 115.0 L 162.0 117.0 L 156.0 124.0 L 148.0 132.0 L 140.0 140.0 " stroke="black" fill="none" stroke-width="5.0" stroke-linecap="round" stroke-linejoin="round" />
<path d="M 165.0 115.0 L 165.0 115.0 L 166.0 115.0 L 166.0 115.0 L 170.0 117.0 L 178.0 122.0 L 188.0 130.0 L 194.0 135.0 L 196.0 138.0 " stroke="black" fill="none" stroke-width="5.0" stroke-linecap="round" stroke-linejoin="round" />
<path d="M 156.0 144.0 L 156.0 144.0 L 156.0 144.0 L 158.0 144.0 L 165.0 143.0 L 175.0 141.0 L 182.0 141.0 L 183.0 141.0 " stroke="black" fill="none" stroke-width="5.0" stroke-linecap="round" stroke-linejoin="round" />
<path d="M 147.0 166.0 L 146.0 166.0 L 146.0 167.0 L 146.0 168.0 L 146.0 172.0 L 147.0 180.0 L 149.0 188.0 L 150.0 193.0 L 151.0 194.0 " stroke="black" fill="none" stroke-width="5.0" stroke-linecap="round" stroke-linejoin="round" />
<path d="M 149.0 164.0 L 150.0 164.0 L 150.0 164.0 L 153.0 164.0 L 160.0 163.0 L 172.0 161.0 L 182.0 160.0 L 189.0 160.0 L 193.0 165.0 L 195.0 173.0 L 195.0 181.0 L 196.0 186.0 L 196.0 188.0 L 196.0 188.0 " stroke="black" fill="none" stroke-width="5.0" stroke-linecap="round" stroke-linejoin="round" />
<path d="M 151.0 195.0 L 151.0 195.0 L 151.0 195.0 L 156.0 195.0 L 169.0 195.0 L 185.0 195.0 L 193.0 195.0 L 194.0 195.0 " stroke="black" fill="none" stroke-width="5.0" stroke-linecap="round" stroke-linejoin="round" />
</svg>