<svg xmlns="http://www.w3.org/2000/svg" width="300" height="300" viewBox="0 0 300 300">
<path d="M 117.0 126.0 L 117.0 126.0 L 117.0 126.0 L 117.0 127.0 L 118.0 128.0 L 118.0 131.0 L 120.0 133.0 " stroke="black" fill="none" stroke-width="5.0" stroke-linecap="round" stroke-linejoin="round" />
<path d="M 113.0 149.0 L 114.0 149.0 L 115.0 149.0 L 115.0 149.0 L 117.0 149.0 L 120.0 150.0 L 123.0 150.0 L 125.0 151.0 L 125.0 153.0 L 124.0 156.0 L 121.0 159.0 L 118.0 162.0 L 116.0 165.0 L 116.0 168.0 L 116.0 171.0 L 117.0 174.0 L 118.0 179.0 L 119.0 183.0 L 119.0 187.0 " stroke="black" fill="none" stroke-width="5.0" stroke-linecap="round" stroke-linejoin="round" />
<path d="M 106.0 195.0 L 106.0 195.0 L 105.0 194.0 L 105.0 194.0 L 106.0 193.0 L 111.0 191.0 L 118.0 189.0 L 128.0 189.0 L 138.0 191.0 L 147.0 196.0 L 157.0 200.0 L 170.0 202.0 L 183.0 202.0 L 191.0 199.0 L 193.0 198.0 " stroke="black" fill="none" stroke-width="5.0" stroke-linecap="round" stroke-linejoin="round" />
<path d="M 150.0 113.0 L 150.0 113.0 L 150.0 113.0 L 151.0 114.0 L 151.0 116.0 L 153.0 120.0 L 154.0 124.0 " stroke="black" fill="none" stroke-width="5.0" stroke-linecap="round" stroke-linejoin="round" />
<path d="M 166.0 111.0 L 166.0 111.0 L 166.0 112.0 L 166.0 113.0 L 165.0 116.0 L 163.0 121.0 L 161.0 124.0 " stroke="black" fill="none" stroke-width="5.0" stroke-linecap="round" stroke-linejoin="round" />
<path d="M 145.0 127.0 L 145.0 127.0 L 145.0 127.0 L 145.0 127.0 L 148.0 128.0 L 155.0 128.0 L 164.0 127.0 L 172.0 126.0 L 174.0 126.0 " stroke="black" fill="none" stroke-width="5.0" stroke-linecap="round" stroke-linejoin="round" />
<path d="M 159.0 131.0 L 159.0 131.0 L 159.0 131.0 L 158.0 132.0 L 156.0 134.0 L 153.0 137.0 L 150.0 139.0 L 149.0 140.0 L 149.0 141.0 L 151.0 142.0 L 156.0 143.0 L 161.0 143.0 L 166.0 143.0 L 171.0 143.0 L 174.0 143.0 L 176.0 145.0 L 178.0 151.0 L 179.0 159.0 L 181.0 167.0 L 183.0 172.0 L 184.0 176.0 L 184.0 176.0 L 184.0 176.0 " stroke="black" fill="none" stroke-width="5.0" stroke-linecap="round" stroke-linejoin="round" />
<path d="M 151.0 142.0 L 151.0 142.0 L 151.0 142.0 L 150.0 145.0 L 149.0 152.0 L 148.0 163.0 L 147.0 171.0 L 147.0 172.0 " stroke="black" fill="none" stroke-width="5.0" stroke-linecap="round" stroke-linejoin="round" />
<path d="M 151.0 152.0 L 151.0 152.0 L 152.0 152.0 L 153.0 152.0 L 156.0 151.0 L 162.0 151.0 L 170.0 151.0 L 176.0 152.0 L 179.0 154.0 L 178.0 155.0 " stroke="black" fill="none" stroke-width="5.0" stroke-linecap="round" stroke-linejoin="round" />
<path d="M 154.0 160.0 L 155.0 160.0 L 157.0 161.0 L 161.0 162.0 L 168.0 162.0 L 175.0 163.0 L 178.0 164.0 L 179.0 165.0 " stroke="black" fill="none" stroke-width="5.0" stroke-linecap="round" stroke-linejoin="round" />
<path d="M 148.0 172.0 L 149.0 173.0 L 151.0 174.0 L 157.0 175.0 L 168.0 176.0 L 178.0 176.0 L 185.0 176.0 L 185.0 176.0 " stroke="black" fill="none" stroke-width="5.0" stroke-linecap="round" stroke-linejoin="round" />
</svg>