<svg xmlns="http://www.w3.org/2000/svg" width="300" height="300" viewBox="0 0 300 300">
<path d="M 118.0 121.0 L 118.0 121.0 L 119.0 122.0 L 119.0 123.0 L 120.0 124.0 L 122.0 128.0 " stroke="black" fill="none" stroke-width="5.0" stroke-linecap="round" stroke-linejoin="round" />
<path d="M 112.0 146.0 L 112.0 146.0 L 112.0 146.0 L 113.0 146.0 L 114.0 146.0 L 116.0 146.0 L 119.0 147.0 L 122.0 147.0 L 123.0 148.0 L 123.0 150.0 L 122.0 152.0 L 120.0 156.0 L 118.0 159.0 L 117.0 162.0 L 116.0 165.0 L 117.0 169.0 L 119.0 174.0 L 119.0 178.0 L 119.0 181.0 L 119.0 182.0 " stroke="black" fill="none" stroke-width="5.0" stroke-linecap="round" stroke-linejoin="round" />
<path d="M 104.0 189.0 L 104.0 189.0 L 105.0 188.0 L 105.0 187.0 L 107.0 186.0 L 111.0 185.0 L 118.0 184.0 L 128.0 184.0 L 139.0 187.0 L 150.0 191.0 L 162.0 195.0 L 175.0 196.0 L 187.0 196.0 L 192.0 195.0 " stroke="black" fill="none" stroke-width="5.0" stroke-linecap="round" stroke-linejoin="round" />
<path d="M 147.0 107.0 L 147.0 107.0 L 147.0 107.0 L 147.0 107.0 L 148.0 107.0 L 149.0 109.0 L 150.0 110.0 " stroke="black" fill="none" stroke-width="5.0" stroke-linecap="round" stroke-linejoin="round" />
<path d="M 163.0 103.0 L 163.0 103.0 L 163.0 103.0 L 163.0 103.0 L 164.0 104.0 L 164.0 107.0 L 162.0 112.0 L 161.0 113.0 " stroke="black" fill="none" stroke-width="5.0" stroke-linecap="round" stroke-linejoin="round" />
<path d="M 144.0 120.0 L 144.0 120.0 L 144.0 120.0 L 144.0 120.0 L 145.0 120.0 L 148.0 120.0 L 157.0 120.0 L 166.0 120.0 L 174.0 120.0 L 176.0 120.0 L 176.0 120.0 " stroke="black" fill="none" stroke-width="5.0" stroke-linecap="round" stroke-linejoin="round" />
<path d="M 155.0 124.0 L 155.0 124.0 L 155.0 124.0 L 155.0 123.0 L 156.0 122.0 L 156.0 122.0 L 156.0 122.0 L 156.0 124.0 L 154.0 129.0 L 152.0 134.0 L 150.0 138.0 L 149.0 140.0 L 148.0 141.0 L 149.0 141.0 L 153.0 141.0 L 158.0 141.0 L 164.0 141.0 L 171.0 141.0 L 175.0 141.0 L 178.0 141.0 L 178.0 141.0 L 179.0 141.0 L 180.0 145.0 L 182.0 153.0 L 184.0 164.0 L 186.0 176.0 L 188.0 184.0 L 188.0 186.0 L 188.0 186.0 " stroke="black" fill="none" stroke-width="5.0" stroke-linecap="round" stroke-linejoin="round" />
<path d="M 147.0 144.0 L 147.0 144.0 L 147.0 144.0 L 147.0 145.0 L 147.0 148.0 L 147.0 156.0 L 147.0 166.0 L 147.0 172.0 " stroke="black" fill="none" stroke-width="5.0" stroke-linecap="round" stroke-linejoin="round" />
<path d="M 150.0 153.0 L 150.0 152.0 L 150.0 152.0 L 150.0 152.0 L 152.0 152.0 L 157.0 152.0 L 165.0 152.0 L 172.0 153.0 L 177.0 154.0 L 177.0 155.0 " stroke="black" fill="none" stroke-width="5.0" stroke-linecap="round" stroke-linejoin="round" />
<path d="M 150.0 162.0 L 150.0 162.0 L 150.0 162.0 L 150.0 163.0 L 154.0 163.0 L 162.0 164.0 L 172.0 165.0 L 179.0 165.0 L 181.0 166.0 L 181.0 166.0 " stroke="black" fill="none" stroke-width="5.0" stroke-linecap="round" stroke-linejoin="round" />
<path d="M 150.0 182.0 L 150.0 182.0 L 151.0 182.0 L 152.0 182.0 L 159.0 182.0 L 171.0 183.0 L 181.0 183.0 L 182.0 183.0 " stroke="black" fill="none" stroke-width="5.0" stroke-linecap="round" stroke-linejoin="round" />
</svg>