<svg xmlns="http://www.w3.org/2000/svg" width="300" height="300" viewBox="0 0 300 300">
<path d="M 117.0 133.0 L 117.0 133.0 L 117.0 133.0 L 117.0 133.0 L 117.0 133.0 L 117.0 136.0 L 117.0 141.0 L 117.0 147.0 L 117.0 151.0 L 117.0 151.0 " stroke="black" fill="none" stroke-width="5.0" stroke-linecap="round" stroke-linejoin="round" />
<path d="M 117.0 133.0 L 117.0 133.0 L 117.0 133.0 L 118.0 133.0 L 120.0 133.0 L 125.0 133.0 L 130.0 133.0 L 134.0 133.0 L 137.0 133.0 L 139.0 137.0 L 141.0 144.0 L 141.0 150.0 L 141.0 153.0 " stroke="black" fill="none" stroke-width="5.0" stroke-linecap="round" stroke-linejoin="round" />
<path d="M 115.0 154.0 L 115.0 154.0 L 115.0 154.0 L 115.0 154.0 L 117.0 155.0 L 125.0 155.0 L 137.0 155.0 " stroke="black" fill="none" stroke-width="5.0" stroke-linecap="round" stroke-linejoin="round" />
<path d="M 156.0 110.0 L 156.0 110.0 L 155.0 111.0 L 154.0 114.0 L 154.0 121.0 L 152.0 129.0 L 152.0 134.0 " stroke="black" fill="none" stroke-width="5.0" stroke-linecap="round" stroke-linejoin="round" />
<path d="M 156.0 118.0 L 156.0 118.0 L 156.0 118.0 L 158.0 118.0 L 163.0 117.0 L 170.0 116.0 L 176.0 115.0 L 180.0 115.0 L 182.0 119.0 L 183.0 124.0 L 183.0 131.0 L 182.0 137.0 L 181.0 140.0 " stroke="black" fill="none" stroke-width="5.0" stroke-linecap="round" stroke-linejoin="round" />
<path d="M 164.0 131.0 L 164.0 131.0 L 165.0 131.0 L 165.0 131.0 L 165.0 136.0 L 162.0 147.0 L 157.0 160.0 L 151.0 174.0 L 145.0 184.0 L 144.0 185.0 " stroke="black" fill="none" stroke-width="5.0" stroke-linecap="round" stroke-linejoin="round" />
<path d="M 157.0 157.0 L 158.0 157.0 L 158.0 157.0 L 159.0 158.0 L 165.0 162.0 L 175.0 172.0 L 186.0 183.0 L 192.0 188.0 L 192.0 189.0 " stroke="black" fill="none" stroke-width="5.0" stroke-linecap="round" stroke-linejoin="round" />
</svg>