<svg xmlns="http://www.w3.org/2000/svg" width="300" height="300" viewBox="0 0 300 300">
<path d="M 137.0 108.0 L 137.0 108.0 L 137.0 108.0 L 136.0 109.0 L 135.0 111.0 L 134.0 116.0 L 132.0 124.0 L 125.0 140.0 L 117.0 155.0 L 109.0 165.0 L 107.0 167.0 " stroke="black" fill="none" stroke-width="5.0" stroke-linecap="round" stroke-linejoin="round" />
<path d="M 127.0 140.0 L 127.0 140.0 L 126.0 140.0 L 126.0 140.0 L 126.0 147.0 L 126.0 161.0 L 127.0 177.0 L 127.0 186.0 L 128.0 189.0 " stroke="black" fill="none" stroke-width="5.0" stroke-linecap="round" stroke-linejoin="round" />
<path d="M 159.0 103.0 L 159.0 103.0 L 159.0 103.0 L 159.0 103.0 L 159.0 103.0 L 157.0 105.0 L 153.0 111.0 L 151.0 115.0 " stroke="black" fill="none" stroke-width="5.0" stroke-linecap="round" stroke-linejoin="round" />
<path d="M 154.0 110.0 L 154.0 110.0 L 155.0 110.0 L 156.0 110.0 L 159.0 109.0 L 163.0 109.0 L 168.0 109.0 L 172.0 111.0 L 174.0 112.0 L 174.0 113.0 L 170.0 116.0 L 165.0 121.0 L 162.0 124.0 " stroke="black" fill="none" stroke-width="5.0" stroke-linecap="round" stroke-linejoin="round" />
<path d="M 144.0 127.0 L 144.0 127.0 L 144.0 128.0 L 144.0 130.0 L 144.0 135.0 L 146.0 141.0 L 146.0 142.0 " stroke="black" fill="none" stroke-width="5.0" stroke-linecap="round" stroke-linejoin="round" />
<path d="M 146.0 126.0 L 146.0 126.0 L 147.0 126.0 L 151.0 126.0 L 158.0 126.0 L 169.0 127.0 L 178.0 127.0 L 184.0 128.0 L 187.0 130.0 L 187.0 135.0 L 187.0 141.0 L 186.0 146.0 L 185.0 148.0 " stroke="black" fill="none" stroke-width="5.0" stroke-linecap="round" stroke-linejoin="round" />
<path d="M 148.0 144.0 L 147.0 144.0 L 147.0 145.0 L 149.0 145.0 L 156.0 145.0 L 168.0 145.0 L 178.0 145.0 L 182.0 147.0 " stroke="black" fill="none" stroke-width="5.0" stroke-linecap="round" stroke-linejoin="round" />
<path d="M 161.0 129.0 L 161.0 129.0 L 161.0 129.0 L 161.0 129.0 L 162.0 132.0 L 163.0 139.0 L 163.0 146.0 " stroke="black" fill="none" stroke-width="5.0" stroke-linecap="round" stroke-linejoin="round" />
<path d="M 165.0 145.0 L 165.0 145.0 L 165.0 145.0 L 165.0 145.0 L 164.0 146.0 L 159.0 149.0 L 152.0 154.0 L 146.0 160.0 L 144.0 162.0 " stroke="black" fill="none" stroke-width="5.0" stroke-linecap="round" stroke-linejoin="round" />
<path d="M 160.0 152.0 L 160.0 152.0 L 160.0 152.0 L 161.0 153.0 L 165.0 158.0 L 169.0 167.0 L 172.0 179.0 L 173.0 189.0 L 173.0 196.0 L 172.0 197.0 L 169.0 197.0 L 163.0 195.0 L 159.0 192.0 " stroke="black" fill="none" stroke-width="5.0" stroke-linecap="round" stroke-linejoin="round" />
<path d="M 164.0 163.0 L 164.0 163.0 L 165.0 163.0 L 165.0 163.0 L 165.0 163.0 L 162.0 165.0 L 158.0 170.0 L 152.0 175.0 L 149.0 178.0 " stroke="black" fill="none" stroke-width="5.0" stroke-linecap="round" stroke-linejoin="round" />
<path d="M 166.0 172.0 L 166.0 173.0 L 166.0 174.0 L 163.0 176.0 L 160.0 179.0 L 154.0 184.0 L 150.0 187.0 " stroke="black" fill="none" stroke-width="5.0" stroke-linecap="round" stroke-linejoin="round" />
<path d="M 167.0 171.0 L 169.0 171.0 L 172.0 169.0 L 178.0 166.0 L 185.0 162.0 L 189.0 160.0 L 190.0 160.0 " stroke="black" fill="none" stroke-width="5.0" stroke-linecap="round" stroke-linejoin="round" />
<path d="M 174.0 168.0 L 175.0 168.0 L 177.0 168.0 L 179.0 171.0 L 185.0 176.0 L 192.0 185.0 L 199.0 191.0 L 203.0 194.0 L 204.0 195.0 " stroke="black" fill="none" stroke-width="5.0" stroke-linecap="round" stroke-linejoin="round" />
</svg>