<svg xmlns="http://www.w3.org/2000/svg" width="300" height="300" viewBox="0 0 300 300">
<path d="M 122.0 114.0 L 122.0 114.0 L 122.0 114.0 L 121.0 114.0 L 121.0 114.0 L 121.0 115.0 L 121.0 120.0 L 120.0 129.0 L 116.0 141.0 L 112.0 153.0 L 108.0 161.0 L 108.0 164.0 L 108.0 165.0 L 112.0 167.0 L 118.0 169.0 L 125.0 174.0 L 130.0 179.0 L 133.0 183.0 L 134.0 184.0 L 134.0 185.0 " stroke="black" fill="none" stroke-width="5.0" stroke-linecap="round" stroke-linejoin="round" />
<path d="M 132.0 138.0 L 132.0 137.0 L 132.0 136.0 L 132.0 135.0 L 132.0 139.0 L 131.0 147.0 L 127.0 160.0 L 121.0 177.0 L 116.0 187.0 L 115.0 190.0 " stroke="black" fill="none" stroke-width="5.0" stroke-linecap="round" stroke-linejoin="round" />
<path d="M 106.0 151.0 L 106.0 151.0 L 106.0 151.0 L 109.0 150.0 L 117.0 150.0 L 130.0 151.0 L 140.0 151.0 " stroke="black" fill="none" stroke-width="5.0" stroke-linecap="round" stroke-linejoin="round" />
<path d="M 152.0 107.0 L 152.0 107.0 L 151.0 107.0 L 151.0 107.0 L 151.0 107.0 L 154.0 107.0 L 159.0 107.0 L 165.0 107.0 L 171.0 107.0 L 175.0 107.0 L 178.0 108.0 L 180.0 110.0 L 180.0 115.0 L 181.0 120.0 L 181.0 123.0 L 181.0 124.0 " stroke="black" fill="none" stroke-width="5.0" stroke-linecap="round" stroke-linejoin="round" />
<path d="M 161.0 111.0 L 161.0 111.0 L 161.0 112.0 L 161.0 112.0 L 161.0 114.0 L 161.0 116.0 L 162.0 119.0 L 162.0 121.0 " stroke="black" fill="none" stroke-width="5.0" stroke-linecap="round" stroke-linejoin="round" />
<path d="M 151.0 127.0 L 151.0 127.0 L 152.0 127.0 L 153.0 127.0 L 155.0 127.0 L 161.0 127.0 L 170.0 127.0 L 178.0 127.0 L 180.0 127.0 " stroke="black" fill="none" stroke-width="5.0" stroke-linecap="round" stroke-linejoin="round" />
<path d="M 149.0 114.0 L 149.0 114.0 L 149.0 114.0 L 149.0 115.0 L 149.0 117.0 L 149.0 124.0 L 148.0 144.0 L 144.0 168.0 L 140.0 186.0 L 138.0 191.0 L 138.0 192.0 " stroke="black" fill="none" stroke-width="5.0" stroke-linecap="round" stroke-linejoin="round" />
<path d="M 151.0 146.0 L 151.0 146.0 L 152.0 146.0 L 152.0 146.0 L 153.0 148.0 L 154.0 153.0 L 155.0 161.0 L 156.0 174.0 L 157.0 186.0 L 157.0 193.0 L 157.0 194.0 L 157.0 194.0 " stroke="black" fill="none" stroke-width="5.0" stroke-linecap="round" stroke-linejoin="round" />
<path d="M 153.0 144.0 L 153.0 144.0 L 153.0 143.0 L 153.0 143.0 L 155.0 142.0 L 159.0 142.0 L 165.0 142.0 L 170.0 143.0 L 174.0 145.0 L 177.0 146.0 L 180.0 149.0 L 183.0 155.0 L 187.0 166.0 L 190.0 181.0 L 192.0 194.0 L 193.0 198.0 L 193.0 198.0 L 193.0 197.0 " stroke="black" fill="none" stroke-width="5.0" stroke-linecap="round" stroke-linejoin="round" />
<path d="M 155.0 158.0 L 156.0 158.0 L 157.0 159.0 L 160.0 159.0 L 165.0 160.0 L 175.0 160.0 L 183.0 160.0 L 187.0 160.0 L 187.0 161.0 " stroke="black" fill="none" stroke-width="5.0" stroke-linecap="round" stroke-linejoin="round" />
<path d="M 156.0 175.0 L 157.0 175.0 L 158.0 176.0 L 161.0 177.0 L 169.0 178.0 L 178.0 178.0 L 184.0 178.0 " stroke="black" fill="none" stroke-width="5.0" stroke-linecap="round" stroke-linejoin="round" />
<path d="M 158.0 201.0 L 160.0 202.0 L 163.0 204.0 L 171.0 206.0 L 182.0 206.0 L 191.0 205.0 L 195.0 204.0 " stroke="black" fill="none" stroke-width="5.0" stroke-linecap="round" stroke-linejoin="round" />
</svg>