<svg xmlns="http://www.w3.org/2000/svg" width="300" height="300" viewBox="0 0 300 300">
<path d="M 131.0 109.0 L 131.0 109.0 L 131.0 109.0 L 131.0 110.0 L 131.0 113.0 L 128.0 121.0 L 122.0 134.0 L 113.0 152.0 L 103.0 166.0 L 99.0 170.0 " stroke="black" fill="none" stroke-width="5.0" stroke-linecap="round" stroke-linejoin="round" />
<path d="M 119.0 144.0 L 119.0 144.0 L 119.0 144.0 L 119.0 144.0 L 120.0 145.0 L 120.0 154.0 L 119.0 169.0 L 117.0 185.0 L 117.0 191.0 " stroke="black" fill="none" stroke-width="5.0" stroke-linecap="round" stroke-linejoin="round" />
<path d="M 136.0 136.0 L 136.0 135.0 L 136.0 134.0 L 136.0 133.0 L 136.0 133.0 L 136.0 134.0 L 136.0 142.0 L 135.0 153.0 L 134.0 165.0 L 134.0 174.0 L 137.0 177.0 L 143.0 176.0 L 147.0 173.0 " stroke="black" fill="none" stroke-width="5.0" stroke-linecap="round" stroke-linejoin="round" />
<path d="M 136.0 152.0 L 136.0 153.0 L 135.0 154.0 L 139.0 154.0 L 146.0 151.0 L 148.0 150.0 " stroke="black" fill="none" stroke-width="5.0" stroke-linecap="round" stroke-linejoin="round" />
<path d="M 159.0 114.0 L 159.0 114.0 L 159.0 114.0 L 159.0 114.0 L 162.0 114.0 L 168.0 114.0 L 175.0 112.0 " stroke="black" fill="none" stroke-width="5.0" stroke-linecap="round" stroke-linejoin="round" />
<path d="M 167.0 119.0 L 167.0 120.0 L 165.0 121.0 L 163.0 123.0 L 161.0 126.0 L 159.0 129.0 L 159.0 132.0 L 160.0 133.0 L 165.0 133.0 L 170.0 132.0 L 175.0 131.0 L 179.0 131.0 L 181.0 132.0 L 183.0 135.0 L 185.0 142.0 L 187.0 153.0 L 188.0 166.0 L 189.0 174.0 L 190.0 176.0 " stroke="black" fill="none" stroke-width="5.0" stroke-linecap="round" stroke-linejoin="round" />
<path d="M 161.0 136.0 L 160.0 137.0 L 158.0 140.0 L 157.0 146.0 L 157.0 158.0 L 158.0 171.0 L 160.0 180.0 L 160.0 181.0 " stroke="black" fill="none" stroke-width="5.0" stroke-linecap="round" stroke-linejoin="round" />
<path d="M 163.0 149.0 L 163.0 150.0 L 163.0 150.0 L 165.0 150.0 L 170.0 151.0 L 177.0 151.0 L 183.0 151.0 L 184.0 151.0 " stroke="black" fill="none" stroke-width="5.0" stroke-linecap="round" stroke-linejoin="round" />
<path d="M 162.0 161.0 L 162.0 162.0 L 162.0 162.0 L 165.0 163.0 L 171.0 163.0 L 179.0 163.0 L 182.0 162.0 " stroke="black" fill="none" stroke-width="5.0" stroke-linecap="round" stroke-linejoin="round" />
<path d="M 162.0 178.0 L 163.0 179.0 L 166.0 180.0 L 172.0 180.0 L 178.0 179.0 L 181.0 178.0 " stroke="black" fill="none" stroke-width="5.0" stroke-linecap="round" stroke-linejoin="round" />
<path d="M 167.0 184.0 L 167.0 184.0 L 167.0 185.0 L 167.0 186.0 L 167.0 188.0 L 165.0 193.0 L 163.0 198.0 " stroke="black" fill="none" stroke-width="5.0" stroke-linecap="round" stroke-linejoin="round" />
<path d="M 182.0 185.0 L 182.0 185.0 L 181.0 185.0 L 181.0 185.0 L 182.0 187.0 L 185.0 192.0 L 190.0 200.0 " stroke="black" fill="none" stroke-width="5.0" stroke-linecap="round" stroke-linejoin="round" />
</svg>