<svg xmlns="http://www.w3.org/2000/svg" width="300" height="300" viewBox="0 0 300 300">
<path d="M 161.0 102.0 L 161.0 102.0 L 161.0 102.0 L 161.0 102.0 L 161.0 102.0 L 161.0 102.0 L 158.0 103.0 L 148.0 110.0 L 145.0 112.0 " stroke="black" fill="none" stroke-width="5.0" stroke-linecap="round" stroke-linejoin="round" />
<path d="M 126.0 127.0 L 126.0 127.0 L 126.0 127.0 L 126.0 127.0 L 133.0 126.0 L 145.0 125.0 L 159.0 123.0 L 171.0 122.0 L 178.0 122.0 L 180.0 122.0 L 179.0 122.0 L 177.0 123.0 " stroke="black" fill="none" stroke-width="5.0" stroke-linecap="round" stroke-linejoin="round" />
<path d="M 133.0 140.0 L 133.0 140.0 L 133.0 140.0 L 132.0 140.0 L 132.0 142.0 L 132.0 148.0 L 132.0 155.0 L 133.0 160.0 L 134.0 162.0 " stroke="black" fill="none" stroke-width="5.0" stroke-linecap="round" stroke-linejoin="round" />
<path d="M 134.0 139.0 L 134.0 139.0 L 134.0 139.0 L 134.0 139.0 L 136.0 139.0 L 143.0 138.0 L 154.0 137.0 L 164.0 136.0 L 170.0 137.0 L 173.0 140.0 L 174.0 145.0 L 175.0 152.0 L 175.0 158.0 L 175.0 162.0 L 175.0 165.0 L 175.0 166.0 " stroke="black" fill="none" stroke-width="5.0" stroke-linecap="round" stroke-linejoin="round" />
<path d="M 140.0 153.0 L 140.0 153.0 L 140.0 153.0 L 141.0 153.0 L 142.0 153.0 L 148.0 153.0 L 157.0 153.0 L 166.0 152.0 L 170.0 153.0 " stroke="black" fill="none" stroke-width="5.0" stroke-linecap="round" stroke-linejoin="round" />
<path d="M 135.0 164.0 L 135.0 164.0 L 136.0 165.0 L 139.0 166.0 L 146.0 167.0 L 157.0 167.0 L 167.0 167.0 L 172.0 166.0 " stroke="black" fill="none" stroke-width="5.0" stroke-linecap="round" stroke-linejoin="round" />
<path d="M 150.0 118.0 L 150.0 118.0 L 150.0 118.0 L 150.0 118.0 L 150.0 120.0 L 152.0 134.0 L 153.0 157.0 L 153.0 178.0 L 154.0 188.0 L 155.0 192.0 L 156.0 192.0 " stroke="black" fill="none" stroke-width="5.0" stroke-linecap="round" stroke-linejoin="round" />
<path d="M 135.0 177.0 L 135.0 177.0 L 136.0 177.0 L 138.0 177.0 L 143.0 178.0 L 152.0 179.0 L 163.0 180.0 L 170.0 181.0 L 173.0 181.0 L 171.0 181.0 " stroke="black" fill="none" stroke-width="5.0" stroke-linecap="round" stroke-linejoin="round" />
<path d="M 121.0 193.0 L 122.0 193.0 L 124.0 193.0 L 130.0 194.0 L 144.0 195.0 L 162.0 196.0 L 178.0 198.0 L 187.0 199.0 L 190.0 200.0 L 191.0 201.0 L 191.0 201.0 " stroke="black" fill="none" stroke-width="5.0" stroke-linecap="round" stroke-linejoin="round" />
</svg>