<svg xmlns="http://www.w3.org/2000/svg" width="300" height="300" viewBox="0 0 300 300">
<path d="M 161.0 97.0 L 161.0 97.0 L 162.0 97.0 L 162.0 97.0 L 161.0 98.0 L 158.0 101.0 L 151.0 105.0 L 145.0 109.0 " stroke="black" fill="none" stroke-width="5.0" stroke-linecap="round" stroke-linejoin="round" />
<path d="M 117.0 131.0 L 118.0 131.0 L 120.0 130.0 L 126.0 128.0 L 139.0 127.0 L 155.0 127.0 L 170.0 125.0 L 182.0 123.0 L 188.0 122.0 L 188.0 122.0 " stroke="black" fill="none" stroke-width="5.0" stroke-linecap="round" stroke-linejoin="round" />
<path d="M 134.0 142.0 L 134.0 142.0 L 134.0 142.0 L 134.0 143.0 L 135.0 147.0 L 136.0 152.0 L 136.0 157.0 " stroke="black" fill="none" stroke-width="5.0" stroke-linecap="round" stroke-linejoin="round" />
<path d="M 134.0 141.0 L 134.0 141.0 L 135.0 141.0 L 135.0 141.0 L 138.0 140.0 L 144.0 139.0 L 154.0 138.0 L 162.0 137.0 L 168.0 137.0 L 172.0 139.0 L 174.0 143.0 L 176.0 150.0 L 176.0 157.0 L 175.0 163.0 L 174.0 167.0 L 174.0 167.0 " stroke="black" fill="none" stroke-width="5.0" stroke-linecap="round" stroke-linejoin="round" />
<path d="M 139.0 153.0 L 139.0 153.0 L 139.0 153.0 L 140.0 153.0 L 145.0 153.0 L 155.0 153.0 L 165.0 152.0 L 171.0 152.0 L 171.0 152.0 " stroke="black" fill="none" stroke-width="5.0" stroke-linecap="round" stroke-linejoin="round" />
<path d="M 135.0 166.0 L 135.0 166.0 L 136.0 166.0 L 139.0 166.0 L 145.0 166.0 L 155.0 167.0 L 167.0 166.0 L 172.0 165.0 " stroke="black" fill="none" stroke-width="5.0" stroke-linecap="round" stroke-linejoin="round" />
<path d="M 149.0 113.0 L 149.0 113.0 L 149.0 114.0 L 149.0 117.0 L 150.0 129.0 L 153.0 148.0 L 156.0 172.0 L 156.0 191.0 L 156.0 199.0 L 156.0 200.0 " stroke="black" fill="none" stroke-width="5.0" stroke-linecap="round" stroke-linejoin="round" />
<path d="M 138.0 187.0 L 139.0 187.0 L 143.0 187.0 L 149.0 186.0 L 159.0 185.0 L 169.0 184.0 L 173.0 185.0 L 173.0 186.0 " stroke="black" fill="none" stroke-width="5.0" stroke-linecap="round" stroke-linejoin="round" />
<path d="M 120.0 206.0 L 121.0 206.0 L 122.0 207.0 L 129.0 207.0 L 144.0 206.0 L 162.0 205.0 L 178.0 205.0 L 188.0 205.0 L 191.0 205.0 L 191.0 205.0 " stroke="black" fill="none" stroke-width="5.0" stroke-linecap="round" stroke-linejoin="round" />
</svg>