<svg xmlns="http://www.w3.org/2000/svg" width="300" height="300" viewBox="0 0 300 300">
<path d="M 159.0 103.0 L 159.0 103.0 L 159.0 103.0 L 159.0 103.0 L 159.0 103.0 L 157.0 105.0 L 151.0 110.0 L 140.0 119.0 " stroke="black" fill="none" stroke-width="5.0" stroke-linecap="round" stroke-linejoin="round" />
<path d="M 132.0 131.0 L 132.0 131.0 L 134.0 131.0 L 136.0 131.0 L 143.0 131.0 L 153.0 129.0 L 165.0 126.0 L 175.0 124.0 L 177.0 124.0 " stroke="black" fill="none" stroke-width="5.0" stroke-linecap="round" stroke-linejoin="round" />
<path d="M 139.0 140.0 L 139.0 140.0 L 139.0 140.0 L 139.0 145.0 L 139.0 151.0 L 140.0 155.0 L 140.0 156.0 " stroke="black" fill="none" stroke-width="5.0" stroke-linecap="round" stroke-linejoin="round" />
<path d="M 138.0 142.0 L 138.0 142.0 L 139.0 142.0 L 141.0 142.0 L 146.0 141.0 L 155.0 139.0 L 165.0 137.0 L 171.0 137.0 L 175.0 139.0 L 176.0 144.0 L 177.0 150.0 L 177.0 156.0 L 177.0 161.0 L 177.0 162.0 " stroke="black" fill="none" stroke-width="5.0" stroke-linecap="round" stroke-linejoin="round" />
<path d="M 144.0 152.0 L 145.0 152.0 L 147.0 152.0 L 150.0 152.0 L 157.0 152.0 L 164.0 152.0 L 169.0 152.0 " stroke="black" fill="none" stroke-width="5.0" stroke-linecap="round" stroke-linejoin="round" />
<path d="M 143.0 165.0 L 143.0 165.0 L 146.0 167.0 L 151.0 167.0 L 160.0 166.0 L 170.0 164.0 L 172.0 164.0 " stroke="black" fill="none" stroke-width="5.0" stroke-linecap="round" stroke-linejoin="round" />
<path d="M 151.0 123.0 L 151.0 124.0 L 151.0 128.0 L 151.0 139.0 L 154.0 159.0 L 156.0 180.0 L 157.0 195.0 L 157.0 198.0 L 157.0 199.0 " stroke="black" fill="none" stroke-width="5.0" stroke-linecap="round" stroke-linejoin="round" />
<path d="M 137.0 190.0 L 137.0 190.0 L 140.0 190.0 L 146.0 190.0 L 156.0 188.0 L 169.0 187.0 L 177.0 187.0 " stroke="black" fill="none" stroke-width="5.0" stroke-linecap="round" stroke-linejoin="round" />
<path d="M 126.0 204.0 L 127.0 204.0 L 130.0 205.0 L 135.0 206.0 L 146.0 206.0 L 161.0 206.0 L 177.0 205.0 L 185.0 204.0 " stroke="black" fill="none" stroke-width="5.0" stroke-linecap="round" stroke-linejoin="round" />
</svg>