<svg xmlns="http://www.w3.org/2000/svg" width="300" height="300" viewBox="0 0 300 300">
<path d="M 159.0 105.0 L 159.0 105.0 L 159.0 104.0 L 159.0 104.0 L 159.0 103.0 L 158.0 104.0 L 153.0 108.0 L 141.0 116.0 L 130.0 123.0 " stroke="black" fill="none" stroke-width="5.0" stroke-linecap="round" stroke-linejoin="round" />
<path d="M 123.0 136.0 L 123.0 136.0 L 123.0 136.0 L 123.0 135.0 L 128.0 133.0 L 141.0 131.0 L 156.0 128.0 L 169.0 127.0 L 174.0 127.0 L 174.0 127.0 " stroke="black" fill="none" stroke-width="5.0" stroke-linecap="round" stroke-linejoin="round" />
<path d="M 130.0 149.0 L 130.0 149.0 L 130.0 149.0 L 130.0 150.0 L 130.0 154.0 L 130.0 160.0 L 132.0 166.0 L 133.0 169.0 " stroke="black" fill="none" stroke-width="5.0" stroke-linecap="round" stroke-linejoin="round" />
<path d="M 130.0 146.0 L 130.0 146.0 L 130.0 146.0 L 133.0 146.0 L 141.0 144.0 L 150.0 142.0 L 159.0 141.0 L 166.0 141.0 L 169.0 141.0 L 172.0 143.0 L 173.0 149.0 L 173.0 157.0 L 173.0 163.0 L 172.0 167.0 L 172.0 168.0 " stroke="black" fill="none" stroke-width="5.0" stroke-linecap="round" stroke-linejoin="round" />
<path d="M 137.0 157.0 L 137.0 157.0 L 136.0 157.0 L 136.0 157.0 L 141.0 157.0 L 149.0 156.0 L 158.0 156.0 L 165.0 156.0 " stroke="black" fill="none" stroke-width="5.0" stroke-linecap="round" stroke-linejoin="round" />
<path d="M 134.0 172.0 L 134.0 172.0 L 137.0 173.0 L 142.0 173.0 L 150.0 173.0 L 160.0 171.0 L 169.0 169.0 L 170.0 169.0 " stroke="black" fill="none" stroke-width="5.0" stroke-linecap="round" stroke-linejoin="round" />
<path d="M 149.0 118.0 L 149.0 118.0 L 149.0 119.0 L 149.0 124.0 L 149.0 139.0 L 151.0 165.0 L 153.0 184.0 L 155.0 191.0 L 157.0 192.0 L 157.0 192.0 " stroke="black" fill="none" stroke-width="5.0" stroke-linecap="round" stroke-linejoin="round" />
<path d="M 129.0 182.0 L 129.0 182.0 L 130.0 182.0 L 132.0 182.0 L 139.0 182.0 L 149.0 181.0 L 159.0 181.0 L 167.0 181.0 L 169.0 183.0 L 169.0 184.0 " stroke="black" fill="none" stroke-width="5.0" stroke-linecap="round" stroke-linejoin="round" />
<path d="M 118.0 198.0 L 119.0 198.0 L 120.0 199.0 L 127.0 199.0 L 143.0 199.0 L 161.0 198.0 L 177.0 198.0 L 187.0 198.0 L 189.0 198.0 " stroke="black" fill="none" stroke-width="5.0" stroke-linecap="round" stroke-linejoin="round" />
</svg>