<svg xmlns="http://www.w3.org/2000/svg" width="300" height="300" viewBox="0 0 300 300">
<path d="M 142.0 102.0 L 142.0 101.0 L 142.0 100.0 L 142.0 100.0 L 144.0 104.0 L 148.0 111.0 L 150.0 114.0 " stroke="black" fill="none" stroke-width="5.0" stroke-linecap="round" stroke-linejoin="round" />
<path d="M 117.0 124.0 L 117.0 124.0 L 118.0 124.0 L 123.0 124.0 L 135.0 123.0 L 151.0 123.0 L 165.0 124.0 L 176.0 125.0 " stroke="black" fill="none" stroke-width="5.0" stroke-linecap="round" stroke-linejoin="round" />
<path d="M 138.0 135.0 L 138.0 135.0 L 137.0 135.0 L 136.0 137.0 L 135.0 139.0 L 132.0 144.0 L 125.0 152.0 L 115.0 163.0 L 110.0 167.0 " stroke="black" fill="none" stroke-width="5.0" stroke-linecap="round" stroke-linejoin="round" />
<path d="M 125.0 158.0 L 125.0 158.0 L 125.0 158.0 L 125.0 158.0 L 125.0 161.0 L 125.0 169.0 L 125.0 181.0 L 124.0 191.0 L 123.0 192.0 " stroke="black" fill="none" stroke-width="5.0" stroke-linecap="round" stroke-linejoin="round" />
<path d="M 157.0 137.0 L 157.0 137.0 L 157.0 136.0 L 157.0 136.0 L 157.0 136.0 L 157.0 136.0 L 156.0 139.0 L 152.0 144.0 L 145.0 154.0 L 135.0 165.0 L 131.0 168.0 " stroke="black" fill="none" stroke-width="5.0" stroke-linecap="round" stroke-linejoin="round" />
<path d="M 152.0 147.0 L 152.0 147.0 L 153.0 146.0 L 154.0 146.0 L 154.0 145.0 L 156.0 145.0 L 158.0 145.0 L 162.0 145.0 L 166.0 146.0 L 169.0 147.0 L 170.0 149.0 L 170.0 153.0 L 167.0 161.0 L 160.0 171.0 L 151.0 182.0 L 140.0 192.0 L 138.0 194.0 " stroke="black" fill="none" stroke-width="5.0" stroke-linecap="round" stroke-linejoin="round" />
<path d="M 150.0 156.0 L 150.0 156.0 L 150.0 156.0 L 150.0 156.0 L 151.0 156.0 L 152.0 157.0 L 155.0 160.0 L 158.0 161.0 " stroke="black" fill="none" stroke-width="5.0" stroke-linecap="round" stroke-linejoin="round" />
<path d="M 143.0 169.0 L 143.0 169.0 L 143.0 169.0 L 143.0 169.0 L 145.0 171.0 L 152.0 178.0 L 163.0 188.0 L 178.0 198.0 L 190.0 203.0 L 196.0 205.0 " stroke="black" fill="none" stroke-width="5.0" stroke-linecap="round" stroke-linejoin="round" />
</svg>