<svg xmlns="http://www.w3.org/2000/svg" width="300" height="300" viewBox="0 0 300 300">
<path d="M 143.0 103.0 L 143.0 104.0 L 143.0 104.0 L 144.0 106.0 L 145.0 110.0 L 148.0 114.0 L 150.0 117.0 " stroke="black" fill="none" stroke-width="5.0" stroke-linecap="round" stroke-linejoin="round" />
<path d="M 113.0 127.0 L 113.0 127.0 L 116.0 127.0 L 128.0 126.0 L 147.0 124.0 L 163.0 122.0 L 173.0 122.0 L 176.0 123.0 " stroke="black" fill="none" stroke-width="5.0" stroke-linecap="round" stroke-linejoin="round" />
<path d="M 136.0 134.0 L 136.0 134.0 L 136.0 134.0 L 136.0 134.0 L 135.0 135.0 L 134.0 139.0 L 130.0 149.0 L 121.0 163.0 L 113.0 175.0 L 111.0 177.0 " stroke="black" fill="none" stroke-width="5.0" stroke-linecap="round" stroke-linejoin="round" />
<path d="M 128.0 154.0 L 128.0 154.0 L 128.0 154.0 L 128.0 155.0 L 128.0 161.0 L 129.0 177.0 L 129.0 195.0 L 129.0 203.0 L 129.0 203.0 " stroke="black" fill="none" stroke-width="5.0" stroke-linecap="round" stroke-linejoin="round" />
<path d="M 158.0 134.0 L 158.0 134.0 L 158.0 135.0 L 158.0 136.0 L 156.0 140.0 L 153.0 147.0 L 149.0 156.0 L 145.0 161.0 " stroke="black" fill="none" stroke-width="5.0" stroke-linecap="round" stroke-linejoin="round" />
<path d="M 155.0 145.0 L 156.0 145.0 L 157.0 145.0 L 159.0 145.0 L 161.0 146.0 L 163.0 147.0 L 166.0 147.0 L 167.0 149.0 L 168.0 153.0 L 167.0 160.0 L 164.0 172.0 L 159.0 185.0 L 154.0 195.0 L 151.0 200.0 " stroke="black" fill="none" stroke-width="5.0" stroke-linecap="round" stroke-linejoin="round" />
<path d="M 153.0 156.0 L 153.0 156.0 L 153.0 157.0 L 154.0 158.0 L 156.0 160.0 L 159.0 162.0 L 162.0 163.0 " stroke="black" fill="none" stroke-width="5.0" stroke-linecap="round" stroke-linejoin="round" />
<path d="M 144.0 170.0 L 143.0 170.0 L 143.0 170.0 L 145.0 174.0 L 157.0 187.0 L 177.0 201.0 L 190.0 207.0 " stroke="black" fill="none" stroke-width="5.0" stroke-linecap="round" stroke-linejoin="round" />
</svg>