<svg xmlns="http://www.w3.org/2000/svg" width="300" height="300" viewBox="0 0 300 300">
<path d="M 115.0 114.0 L 115.0 114.0 L 116.0 114.0 L 117.0 115.0 L 119.0 117.0 L 122.0 119.0 L 125.0 120.0 " stroke="black" fill="none" stroke-width="5.0" stroke-linecap="round" stroke-linejoin="round" />
<path d="M 143.0 107.0 L 143.0 107.0 L 142.0 107.0 L 141.0 107.0 L 141.0 109.0 L 140.0 112.0 L 138.0 116.0 L 137.0 118.0 " stroke="black" fill="none" stroke-width="5.0" stroke-linecap="round" stroke-linejoin="round" />
<path d="M 130.0 103.0 L 130.0 103.0 L 130.0 103.0 L 130.0 103.0 L 130.0 104.0 L 130.0 110.0 L 128.0 121.0 L 122.0 134.0 L 117.0 141.0 L 116.0 141.0 " stroke="black" fill="none" stroke-width="5.0" stroke-linecap="round" stroke-linejoin="round" />
<path d="M 126.0 124.0 L 126.0 124.0 L 126.0 124.0 L 127.0 125.0 L 131.0 128.0 L 139.0 134.0 L 147.0 140.0 " stroke="black" fill="none" stroke-width="5.0" stroke-linecap="round" stroke-linejoin="round" />
<path d="M 150.0 113.0 L 150.0 114.0 L 150.0 114.0 L 150.0 116.0 L 151.0 118.0 " stroke="black" fill="none" stroke-width="5.0" stroke-linecap="round" stroke-linejoin="round" />
<path d="M 174.0 111.0 L 174.0 112.0 L 174.0 113.0 L 174.0 115.0 L 173.0 118.0 L 171.0 122.0 L 168.0 124.0 " stroke="black" fill="none" stroke-width="5.0" stroke-linecap="round" stroke-linejoin="round" />
<path d="M 161.0 103.0 L 161.0 103.0 L 161.0 103.0 L 161.0 103.0 L 161.0 103.0 L 161.0 106.0 L 159.0 117.0 L 156.0 131.0 L 153.0 140.0 " stroke="black" fill="none" stroke-width="5.0" stroke-linecap="round" stroke-linejoin="round" />
<path d="M 159.0 124.0 L 160.0 124.0 L 162.0 125.0 L 165.0 127.0 L 170.0 131.0 L 177.0 137.0 L 181.0 142.0 L 183.0 144.0 " stroke="black" fill="none" stroke-width="5.0" stroke-linecap="round" stroke-linejoin="round" />
<path d="M 110.0 152.0 L 110.0 152.0 L 111.0 152.0 L 111.0 152.0 L 111.0 152.0 L 113.0 156.0 L 114.0 160.0 L 115.0 162.0 " stroke="black" fill="none" stroke-width="5.0" stroke-linecap="round" stroke-linejoin="round" />
<path d="M 111.0 152.0 L 113.0 152.0 L 115.0 151.0 L 118.0 151.0 L 123.0 151.0 L 132.0 151.0 L 143.0 151.0 L 154.0 150.0 L 163.0 149.0 L 171.0 149.0 L 176.0 150.0 L 180.0 152.0 L 183.0 153.0 L 184.0 154.0 L 184.0 155.0 L 184.0 157.0 L 182.0 161.0 L 182.0 162.0 " stroke="black" fill="none" stroke-width="5.0" stroke-linecap="round" stroke-linejoin="round" />
<path d="M 135.0 159.0 L 135.0 159.0 L 134.0 160.0 L 134.0 162.0 L 134.0 165.0 L 135.0 169.0 L 135.0 170.0 " stroke="black" fill="none" stroke-width="5.0" stroke-linecap="round" stroke-linejoin="round" />
<path d="M 135.0 161.0 L 135.0 161.0 L 135.0 161.0 L 137.0 161.0 L 140.0 161.0 L 146.0 161.0 L 153.0 160.0 L 159.0 160.0 L 163.0 161.0 L 164.0 163.0 L 164.0 166.0 L 164.0 170.0 L 164.0 172.0 L 163.0 172.0 " stroke="black" fill="none" stroke-width="5.0" stroke-linecap="round" stroke-linejoin="round" />
<path d="M 136.0 174.0 L 136.0 174.0 L 136.0 174.0 L 137.0 175.0 L 142.0 176.0 L 151.0 176.0 L 158.0 176.0 " stroke="black" fill="none" stroke-width="5.0" stroke-linecap="round" stroke-linejoin="round" />
<path d="M 149.0 181.0 L 149.0 181.0 L 149.0 182.0 L 149.0 182.0 L 147.0 183.0 L 145.0 185.0 L 143.0 187.0 " stroke="black" fill="none" stroke-width="5.0" stroke-linecap="round" stroke-linejoin="round" />
<path d="M 127.0 189.0 L 127.0 189.0 L 127.0 189.0 L 127.0 190.0 L 127.0 193.0 L 129.0 200.0 L 131.0 207.0 L 132.0 210.0 L 133.0 210.0 " stroke="black" fill="none" stroke-width="5.0" stroke-linecap="round" stroke-linejoin="round" />
<path d="M 131.0 191.0 L 131.0 191.0 L 133.0 191.0 L 137.0 191.0 L 144.0 191.0 L 153.0 190.0 L 162.0 190.0 L 169.0 190.0 L 174.0 193.0 L 177.0 198.0 L 177.0 203.0 L 177.0 207.0 L 176.0 210.0 L 175.0 210.0 " stroke="black" fill="none" stroke-width="5.0" stroke-linecap="round" stroke-linejoin="round" />
<path d="M 131.0 211.0 L 131.0 212.0 L 131.0 213.0 L 132.0 213.0 L 138.0 213.0 L 148.0 213.0 L 159.0 214.0 L 168.0 215.0 L 173.0 216.0 L 174.0 216.0 L 174.0 215.0 " stroke="black" fill="none" stroke-width="5.0" stroke-linecap="round" stroke-linejoin="round" />
</svg>