<svg xmlns="http://www.w3.org/2000/svg" width="300" height="300" viewBox="0 0 300 300">
<path d="M 108.0 128.0 L 108.0 128.0 L 108.0 128.0 L 109.0 128.0 L 115.0 128.0 L 127.0 127.0 " stroke="black" fill="none" stroke-width="5.0" stroke-linecap="round" stroke-linejoin="round" />
<path d="M 118.0 111.0 L 118.0 111.0 L 118.0 111.0 L 118.0 112.0 L 118.0 116.0 L 120.0 130.0 L 122.0 152.0 L 122.0 170.0 L 123.0 182.0 L 123.0 188.0 L 123.0 191.0 L 121.0 192.0 L 117.0 191.0 L 110.0 187.0 L 108.0 186.0 " stroke="black" fill="none" stroke-width="5.0" stroke-linecap="round" stroke-linejoin="round" />
<path d="M 100.0 165.0 L 100.0 165.0 L 99.0 166.0 L 100.0 166.0 L 108.0 164.0 L 124.0 160.0 L 135.0 157.0 " stroke="black" fill="none" stroke-width="5.0" stroke-linecap="round" stroke-linejoin="round" />
<path d="M 159.0 110.0 L 159.0 110.0 L 159.0 110.0 L 158.0 111.0 L 156.0 114.0 L 151.0 120.0 L 144.0 127.0 L 140.0 130.0 " stroke="black" fill="none" stroke-width="5.0" stroke-linecap="round" stroke-linejoin="round" />
<path d="M 151.0 119.0 L 151.0 119.0 L 152.0 119.0 L 153.0 119.0 L 156.0 119.0 L 160.0 120.0 L 165.0 122.0 L 169.0 124.0 L 170.0 128.0 L 168.0 132.0 L 162.0 137.0 L 154.0 143.0 L 146.0 147.0 L 144.0 148.0 " stroke="black" fill="none" stroke-width="5.0" stroke-linecap="round" stroke-linejoin="round" />
<path d="M 150.0 128.0 L 150.0 128.0 L 150.0 128.0 L 150.0 128.0 L 150.0 128.0 L 152.0 129.0 L 154.0 129.0 " stroke="black" fill="none" stroke-width="5.0" stroke-linecap="round" stroke-linejoin="round" />
<path d="M 142.0 139.0 L 143.0 139.0 L 146.0 139.0 L 149.0 139.0 L 153.0 139.0 " stroke="black" fill="none" stroke-width="5.0" stroke-linecap="round" stroke-linejoin="round" />
<path d="M 158.0 142.0 L 158.0 142.0 L 158.0 142.0 L 158.0 142.0 L 156.0 144.0 L 153.0 149.0 L 147.0 157.0 L 138.0 165.0 " stroke="black" fill="none" stroke-width="5.0" stroke-linecap="round" stroke-linejoin="round" />
<path d="M 152.0 154.0 L 152.0 154.0 L 152.0 154.0 L 154.0 154.0 L 156.0 154.0 L 161.0 154.0 L 168.0 154.0 L 173.0 154.0 L 176.0 155.0 L 176.0 155.0 " stroke="black" fill="none" stroke-width="5.0" stroke-linecap="round" stroke-linejoin="round" />
<path d="M 140.0 172.0 L 140.0 172.0 L 140.0 172.0 L 142.0 173.0 L 147.0 173.0 L 156.0 172.0 L 165.0 171.0 L 173.0 171.0 L 177.0 171.0 " stroke="black" fill="none" stroke-width="5.0" stroke-linecap="round" stroke-linejoin="round" />
<path d="M 157.0 159.0 L 157.0 159.0 L 157.0 159.0 L 157.0 160.0 L 158.0 164.0 L 159.0 172.0 L 160.0 180.0 L 161.0 187.0 " stroke="black" fill="none" stroke-width="5.0" stroke-linecap="round" stroke-linejoin="round" />
<path d="M 143.0 181.0 L 143.0 181.0 L 142.0 181.0 L 142.0 181.0 L 142.0 181.0 L 142.0 184.0 L 142.0 188.0 L 142.0 193.0 L 142.0 196.0 L 145.0 197.0 L 151.0 197.0 L 159.0 197.0 L 168.0 197.0 L 177.0 197.0 L 181.0 197.0 " stroke="black" fill="none" stroke-width="5.0" stroke-linecap="round" stroke-linejoin="round" />
<path d="M 185.0 186.0 L 185.0 186.0 L 185.0 187.0 L 185.0 190.0 L 185.0 194.0 L 186.0 197.0 " stroke="black" fill="none" stroke-width="5.0" stroke-linecap="round" stroke-linejoin="round" />
</svg>