<svg xmlns="http://www.w3.org/2000/svg" width="300" height="300" viewBox="0 0 300 300">
<path d="M 128.0 110.0 L 128.0 110.0 L 128.0 110.0 L 128.0 110.0 L 128.0 110.0 L 128.0 110.0 L 127.0 113.0 L 125.0 116.0 L 122.0 119.0 L 121.0 121.0 L 121.0 122.0 L 122.0 123.0 L 125.0 123.0 L 130.0 123.0 L 134.0 123.0 L 137.0 123.0 L 140.0 122.0 L 141.0 122.0 L 141.0 122.0 L 141.0 122.0 L 142.0 125.0 L 142.0 129.0 L 142.0 134.0 L 142.0 138.0 L 142.0 140.0 L 142.0 140.0 " stroke="black" fill="none" stroke-width="5.0" stroke-linecap="round" stroke-linejoin="round" />
<path d="M 120.0 140.0 L 120.0 140.0 L 120.0 140.0 L 120.0 140.0 L 121.0 140.0 L 124.0 139.0 L 130.0 139.0 L 136.0 138.0 L 141.0 138.0 L 142.0 138.0 " stroke="black" fill="none" stroke-width="5.0" stroke-linecap="round" stroke-linejoin="round" />
<path d="M 120.0 129.0 L 120.0 129.0 L 120.0 129.0 L 121.0 129.0 L 121.0 129.0 L 121.0 133.0 L 120.0 144.0 L 116.0 161.0 L 110.0 180.0 L 106.0 191.0 L 105.0 195.0 L 105.0 195.0 " stroke="black" fill="none" stroke-width="5.0" stroke-linecap="round" stroke-linejoin="round" />
<path d="M 129.0 150.0 L 129.0 150.0 L 129.0 150.0 L 129.0 150.0 L 129.0 150.0 L 129.0 152.0 L 127.0 156.0 L 122.0 163.0 L 116.0 171.0 L 112.0 177.0 " stroke="black" fill="none" stroke-width="5.0" stroke-linecap="round" stroke-linejoin="round" />
<path d="M 122.0 165.0 L 122.0 166.0 L 121.0 167.0 L 121.0 169.0 L 121.0 174.0 L 122.0 182.0 L 123.0 190.0 L 124.0 195.0 " stroke="black" fill="none" stroke-width="5.0" stroke-linecap="round" stroke-linejoin="round" />
<path d="M 139.0 150.0 L 139.0 150.0 L 139.0 150.0 L 139.0 151.0 L 139.0 153.0 L 141.0 155.0 L 142.0 156.0 " stroke="black" fill="none" stroke-width="5.0" stroke-linecap="round" stroke-linejoin="round" />
<path d="M 130.0 163.0 L 131.0 164.0 L 133.0 164.0 L 135.0 164.0 L 139.0 164.0 L 143.0 164.0 L 146.0 164.0 L 147.0 164.0 " stroke="black" fill="none" stroke-width="5.0" stroke-linecap="round" stroke-linejoin="round" />
<path d="M 131.0 174.0 L 131.0 174.0 L 133.0 174.0 L 135.0 174.0 L 138.0 174.0 L 142.0 174.0 L 145.0 174.0 L 146.0 174.0 L 147.0 175.0 " stroke="black" fill="none" stroke-width="5.0" stroke-linecap="round" stroke-linejoin="round" />
<path d="M 130.0 185.0 L 132.0 185.0 L 134.0 185.0 L 137.0 185.0 L 140.0 185.0 L 144.0 185.0 L 146.0 186.0 " stroke="black" fill="none" stroke-width="5.0" stroke-linecap="round" stroke-linejoin="round" />
<path d="M 121.0 204.0 L 121.0 204.0 L 123.0 205.0 L 127.0 205.0 L 134.0 205.0 L 143.0 204.0 L 149.0 204.0 L 150.0 204.0 " stroke="black" fill="none" stroke-width="5.0" stroke-linecap="round" stroke-linejoin="round" />
<path d="M 140.0 170.0 L 140.0 170.0 L 139.0 171.0 L 139.0 174.0 L 141.0 183.0 L 142.0 193.0 L 142.0 198.0 " stroke="black" fill="none" stroke-width="5.0" stroke-linecap="round" stroke-linejoin="round" />
<path d="M 157.0 120.0 L 157.0 120.0 L 157.0 120.0 L 157.0 120.0 L 158.0 120.0 L 161.0 120.0 L 167.0 120.0 L 173.0 120.0 L 177.0 120.0 L 177.0 120.0 " stroke="black" fill="none" stroke-width="5.0" stroke-linecap="round" stroke-linejoin="round" />
<path d="M 168.0 123.0 L 167.0 123.0 L 166.0 124.0 L 165.0 126.0 L 162.0 129.0 L 160.0 132.0 L 160.0 135.0 L 161.0 135.0 L 164.0 136.0 L 169.0 136.0 L 174.0 136.0 L 177.0 137.0 L 179.0 138.0 L 181.0 139.0 L 182.0 144.0 L 184.0 154.0 L 186.0 167.0 L 188.0 176.0 L 189.0 180.0 L 189.0 180.0 L 189.0 180.0 " stroke="black" fill="none" stroke-width="5.0" stroke-linecap="round" stroke-linejoin="round" />
<path d="M 157.0 134.0 L 157.0 134.0 L 157.0 134.0 L 157.0 134.0 L 157.0 137.0 L 157.0 148.0 L 156.0 164.0 L 156.0 174.0 L 157.0 177.0 " stroke="black" fill="none" stroke-width="5.0" stroke-linecap="round" stroke-linejoin="round" />
<path d="M 162.0 152.0 L 163.0 152.0 L 164.0 152.0 L 167.0 152.0 L 171.0 152.0 L 177.0 152.0 L 181.0 152.0 L 182.0 153.0 " stroke="black" fill="none" stroke-width="5.0" stroke-linecap="round" stroke-linejoin="round" />
<path d="M 159.0 166.0 L 159.0 166.0 L 159.0 166.0 L 160.0 167.0 L 165.0 167.0 L 173.0 167.0 L 179.0 167.0 L 181.0 167.0 " stroke="black" fill="none" stroke-width="5.0" stroke-linecap="round" stroke-linejoin="round" />
<path d="M 161.0 182.0 L 162.0 182.0 L 163.0 182.0 L 165.0 182.0 L 169.0 182.0 L 176.0 182.0 L 182.0 183.0 L 186.0 183.0 L 187.0 184.0 " stroke="black" fill="none" stroke-width="5.0" stroke-linecap="round" stroke-linejoin="round" />
<path d="M 173.0 188.0 L 173.0 189.0 L 172.0 191.0 L 171.0 194.0 L 170.0 199.0 L 169.0 203.0 L 169.0 205.0 " stroke="black" fill="none" stroke-width="5.0" stroke-linecap="round" stroke-linejoin="round" />
<path d="M 182.0 187.0 L 182.0 187.0 L 183.0 187.0 L 184.0 188.0 L 187.0 191.0 L 191.0 197.0 L 191.0 199.0 " stroke="black" fill="none" stroke-width="5.0" stroke-linecap="round" stroke-linejoin="round" />
</svg>