<svg xmlns="http://www.w3.org/2000/svg" width="300" height="300" viewBox="0 0 300 300">
<path d="M 115.0 115.0 L 116.0 115.0 L 116.0 115.0 L 116.0 116.0 L 116.0 119.0 L 116.0 126.0 L 116.0 138.0 L 116.0 153.0 L 114.0 167.0 L 114.0 176.0 L 114.0 179.0 L 115.0 176.0 L 115.0 172.0 " stroke="black" fill="none" stroke-width="5.0" stroke-linecap="round" stroke-linejoin="round" />
<path d="M 116.0 114.0 L 116.0 114.0 L 116.0 114.0 L 116.0 114.0 L 119.0 114.0 L 124.0 114.0 L 130.0 113.0 L 134.0 113.0 L 138.0 113.0 L 139.0 114.0 L 141.0 120.0 L 142.0 132.0 L 144.0 149.0 L 145.0 164.0 L 146.0 173.0 L 146.0 177.0 L 146.0 177.0 L 145.0 175.0 " stroke="black" fill="none" stroke-width="5.0" stroke-linecap="round" stroke-linejoin="round" />
<path d="M 123.0 136.0 L 123.0 136.0 L 123.0 136.0 L 123.0 137.0 L 124.0 137.0 L 128.0 137.0 L 134.0 137.0 L 139.0 136.0 L 142.0 136.0 L 143.0 136.0 " stroke="black" fill="none" stroke-width="5.0" stroke-linecap="round" stroke-linejoin="round" />
<path d="M 122.0 152.0 L 122.0 152.0 L 124.0 153.0 L 125.0 153.0 L 129.0 153.0 L 134.0 153.0 L 138.0 153.0 L 140.0 153.0 " stroke="black" fill="none" stroke-width="5.0" stroke-linecap="round" stroke-linejoin="round" />
<path d="M 115.0 177.0 L 115.0 177.0 L 117.0 177.0 L 119.0 177.0 L 124.0 177.0 L 131.0 176.0 L 137.0 176.0 L 142.0 176.0 L 143.0 176.0 " stroke="black" fill="none" stroke-width="5.0" stroke-linecap="round" stroke-linejoin="round" />
<path d="M 126.0 178.0 L 126.0 178.0 L 127.0 178.0 L 127.0 178.0 L 127.0 179.0 L 126.0 182.0 L 124.0 188.0 L 122.0 192.0 L 122.0 193.0 " stroke="black" fill="none" stroke-width="5.0" stroke-linecap="round" stroke-linejoin="round" />
<path d="M 137.0 180.0 L 137.0 180.0 L 137.0 180.0 L 137.0 182.0 L 140.0 185.0 L 143.0 188.0 " stroke="black" fill="none" stroke-width="5.0" stroke-linecap="round" stroke-linejoin="round" />
<path d="M 156.0 126.0 L 156.0 126.0 L 156.0 127.0 L 156.0 129.0 L 157.0 136.0 L 158.0 144.0 L 159.0 150.0 L 160.0 154.0 L 160.0 154.0 " stroke="black" fill="none" stroke-width="5.0" stroke-linecap="round" stroke-linejoin="round" />
<path d="M 170.0 107.0 L 170.0 107.0 L 170.0 107.0 L 170.0 108.0 L 172.0 112.0 L 176.0 127.0 L 182.0 152.0 L 186.0 173.0 L 188.0 187.0 L 188.0 193.0 L 188.0 196.0 L 185.0 197.0 L 178.0 197.0 L 168.0 194.0 L 166.0 193.0 " stroke="black" fill="none" stroke-width="5.0" stroke-linecap="round" stroke-linejoin="round" />
</svg>