<svg xmlns="http://www.w3.org/2000/svg" width="300" height="300" viewBox="0 0 300 300">
<path d="M 118.0 117.0 L 118.0 118.0 L 118.0 120.0 L 118.0 124.0 L 118.0 132.0 L 118.0 144.0 L 118.0 156.0 L 118.0 164.0 L 118.0 165.0 L 118.0 165.0 " stroke="black" fill="none" stroke-width="5.0" stroke-linecap="round" stroke-linejoin="round" />
<path d="M 121.0 119.0 L 121.0 119.0 L 121.0 119.0 L 122.0 119.0 L 124.0 119.0 L 128.0 119.0 L 132.0 120.0 L 135.0 120.0 L 137.0 121.0 L 138.0 124.0 L 139.0 131.0 L 140.0 143.0 L 141.0 156.0 L 142.0 166.0 L 143.0 172.0 L 143.0 174.0 L 143.0 174.0 L 143.0 174.0 " stroke="black" fill="none" stroke-width="5.0" stroke-linecap="round" stroke-linejoin="round" />
<path d="M 124.0 138.0 L 124.0 138.0 L 124.0 138.0 L 124.0 138.0 L 126.0 138.0 L 131.0 138.0 L 136.0 138.0 L 139.0 138.0 L 140.0 139.0 " stroke="black" fill="none" stroke-width="5.0" stroke-linecap="round" stroke-linejoin="round" />
<path d="M 122.0 153.0 L 122.0 153.0 L 122.0 154.0 L 124.0 154.0 L 130.0 154.0 L 136.0 154.0 L 140.0 154.0 L 141.0 155.0 " stroke="black" fill="none" stroke-width="5.0" stroke-linecap="round" stroke-linejoin="round" />
<path d="M 117.0 176.0 L 117.0 176.0 L 117.0 177.0 L 119.0 178.0 L 125.0 178.0 L 134.0 178.0 L 141.0 176.0 L 144.0 176.0 " stroke="black" fill="none" stroke-width="5.0" stroke-linecap="round" stroke-linejoin="round" />
<path d="M 127.0 176.0 L 127.0 176.0 L 127.0 176.0 L 127.0 178.0 L 126.0 182.0 L 124.0 189.0 L 122.0 193.0 " stroke="black" fill="none" stroke-width="5.0" stroke-linecap="round" stroke-linejoin="round" />
<path d="M 138.0 182.0 L 138.0 182.0 L 138.0 182.0 L 140.0 185.0 L 143.0 190.0 L 144.0 191.0 " stroke="black" fill="none" stroke-width="5.0" stroke-linecap="round" stroke-linejoin="round" />
<path d="M 159.0 132.0 L 160.0 136.0 L 160.0 141.0 L 161.0 147.0 L 162.0 153.0 L 162.0 154.0 " stroke="black" fill="none" stroke-width="5.0" stroke-linecap="round" stroke-linejoin="round" />
<path d="M 173.0 111.0 L 173.0 110.0 L 174.0 110.0 L 176.0 112.0 L 178.0 124.0 L 182.0 147.0 L 185.0 170.0 L 188.0 185.0 L 189.0 194.0 L 189.0 197.0 L 189.0 197.0 L 184.0 196.0 L 174.0 196.0 L 167.0 195.0 " stroke="black" fill="none" stroke-width="5.0" stroke-linecap="round" stroke-linejoin="round" />
</svg>