<svg xmlns="http://www.w3.org/2000/svg" width="300" height="300" viewBox="0 0 300 300">
<path d="M 126.0 113.0 L 126.0 113.0 L 126.0 113.0 L 128.0 113.0 L 133.0 112.0 L 144.0 110.0 L 156.0 108.0 L 166.0 107.0 L 171.0 107.0 L 172.0 107.0 " stroke="black" fill="none" stroke-width="5.0" stroke-linecap="round" stroke-linejoin="round" />
<path d="M 131.0 115.0 L 131.0 115.0 L 131.0 115.0 L 131.0 115.0 L 131.0 115.0 L 131.0 115.0 L 131.0 120.0 L 131.0 135.0 L 129.0 154.0 L 128.0 167.0 L 128.0 170.0 L 128.0 170.0 " stroke="black" fill="none" stroke-width="5.0" stroke-linecap="round" stroke-linejoin="round" />
<path d="M 133.0 133.0 L 133.0 133.0 L 133.0 134.0 L 133.0 134.0 L 137.0 135.0 L 148.0 134.0 L 161.0 132.0 L 171.0 131.0 L 174.0 131.0 " stroke="black" fill="none" stroke-width="5.0" stroke-linecap="round" stroke-linejoin="round" />
<path d="M 138.0 147.0 L 138.0 147.0 L 138.0 148.0 L 138.0 148.0 L 143.0 149.0 L 154.0 148.0 L 166.0 147.0 L 175.0 147.0 L 177.0 147.0 " stroke="black" fill="none" stroke-width="5.0" stroke-linecap="round" stroke-linejoin="round" />
<path d="M 151.0 115.0 L 151.0 114.0 L 151.0 114.0 L 151.0 113.0 L 151.0 117.0 L 152.0 129.0 L 153.0 145.0 L 154.0 157.0 L 155.0 162.0 L 155.0 162.0 " stroke="black" fill="none" stroke-width="5.0" stroke-linecap="round" stroke-linejoin="round" />
<path d="M 134.0 165.0 L 134.0 166.0 L 134.0 167.0 L 137.0 167.0 L 144.0 167.0 L 152.0 167.0 L 162.0 166.0 L 170.0 165.0 L 176.0 165.0 L 180.0 165.0 L 182.0 168.0 L 183.0 172.0 L 184.0 178.0 L 186.0 187.0 L 187.0 194.0 L 188.0 200.0 L 188.0 203.0 L 187.0 204.0 L 181.0 203.0 L 170.0 199.0 " stroke="black" fill="none" stroke-width="5.0" stroke-linecap="round" stroke-linejoin="round" />
<path d="M 117.0 177.0 L 117.0 177.0 L 117.0 180.0 L 117.0 184.0 L 117.0 190.0 L 117.0 191.0 " stroke="black" fill="none" stroke-width="5.0" stroke-linecap="round" stroke-linejoin="round" />
<path d="M 141.0 176.0 L 141.0 176.0 L 140.0 177.0 L 140.0 179.0 L 140.0 183.0 L 140.0 185.0 " stroke="black" fill="none" stroke-width="5.0" stroke-linecap="round" stroke-linejoin="round" />
<path d="M 153.0 180.0 L 153.0 180.0 L 153.0 180.0 L 153.0 180.0 L 153.0 180.0 L 153.0 181.0 L 154.0 185.0 " stroke="black" fill="none" stroke-width="5.0" stroke-linecap="round" stroke-linejoin="round" />
<path d="M 169.0 177.0 L 169.0 177.0 L 170.0 178.0 L 171.0 180.0 L 173.0 185.0 L 174.0 187.0 " stroke="black" fill="none" stroke-width="5.0" stroke-linecap="round" stroke-linejoin="round" />
</svg>