<svg xmlns="http://www.w3.org/2000/svg" width="300" height="300" viewBox="0 0 300 300">
<path d="M 130.0 103.0 L 130.0 103.0 L 130.0 103.0 L 130.0 103.0 L 130.0 103.0 L 133.0 103.0 L 141.0 103.0 L 152.0 102.0 L 162.0 101.0 L 169.0 101.0 L 171.0 103.0 L 171.0 103.0 " stroke="black" fill="none" stroke-width="5.0" stroke-linecap="round" stroke-linejoin="round" />
<path d="M 133.0 107.0 L 133.0 107.0 L 132.0 106.0 L 132.0 106.0 L 132.0 107.0 L 132.0 116.0 L 132.0 131.0 L 132.0 145.0 L 132.0 151.0 L 132.0 152.0 L 132.0 150.0 " stroke="black" fill="none" stroke-width="5.0" stroke-linecap="round" stroke-linejoin="round" />
<path d="M 137.0 120.0 L 137.0 120.0 L 136.0 120.0 L 136.0 120.0 L 136.0 120.0 L 141.0 121.0 L 148.0 121.0 L 157.0 121.0 L 163.0 121.0 L 167.0 121.0 L 168.0 121.0 " stroke="black" fill="none" stroke-width="5.0" stroke-linecap="round" stroke-linejoin="round" />
<path d="M 135.0 135.0 L 136.0 135.0 L 137.0 135.0 L 141.0 135.0 L 148.0 135.0 L 157.0 135.0 L 164.0 135.0 L 169.0 136.0 L 169.0 136.0 " stroke="black" fill="none" stroke-width="5.0" stroke-linecap="round" stroke-linejoin="round" />
<path d="M 149.0 106.0 L 149.0 106.0 L 149.0 106.0 L 149.0 106.0 L 149.0 106.0 L 149.0 111.0 L 150.0 125.0 L 152.0 141.0 L 153.0 149.0 L 154.0 152.0 " stroke="black" fill="none" stroke-width="5.0" stroke-linecap="round" stroke-linejoin="round" />
<path d="M 137.0 152.0 L 137.0 152.0 L 137.0 152.0 L 138.0 152.0 L 142.0 152.0 L 148.0 152.0 L 156.0 151.0 L 163.0 150.0 L 170.0 150.0 L 175.0 150.0 L 178.0 150.0 L 180.0 151.0 L 180.0 153.0 L 181.0 155.0 L 182.0 159.0 L 184.0 165.0 L 185.0 172.0 L 187.0 180.0 L 188.0 186.0 L 189.0 191.0 L 189.0 195.0 L 189.0 196.0 L 188.0 196.0 L 184.0 196.0 L 175.0 194.0 L 170.0 191.0 " stroke="black" fill="none" stroke-width="5.0" stroke-linecap="round" stroke-linejoin="round" />
<path d="M 122.0 170.0 L 122.0 170.0 L 122.0 170.0 L 122.0 171.0 L 122.0 174.0 L 122.0 180.0 L 122.0 182.0 " stroke="black" fill="none" stroke-width="5.0" stroke-linecap="round" stroke-linejoin="round" />
<path d="M 140.0 170.0 L 140.0 170.0 L 140.0 170.0 L 140.0 170.0 L 140.0 171.0 L 140.0 174.0 L 140.0 178.0 L 140.0 179.0 " stroke="black" fill="none" stroke-width="5.0" stroke-linecap="round" stroke-linejoin="round" />
<path d="M 150.0 169.0 L 150.0 170.0 L 150.0 171.0 L 150.0 172.0 L 151.0 176.0 L 151.0 178.0 " stroke="black" fill="none" stroke-width="5.0" stroke-linecap="round" stroke-linejoin="round" />
<path d="M 166.0 169.0 L 166.0 170.0 L 166.0 172.0 L 167.0 175.0 L 169.0 180.0 L 169.0 182.0 " stroke="black" fill="none" stroke-width="5.0" stroke-linecap="round" stroke-linejoin="round" />
</svg>