<svg xmlns="http://www.w3.org/2000/svg" width="300" height="300" viewBox="0 0 300 300">
<path d="M 128.0 110.0 L 128.0 110.0 L 128.0 110.0 L 129.0 110.0 L 136.0 110.0 L 145.0 110.0 L 156.0 110.0 L 163.0 110.0 L 164.0 110.0 " stroke="black" fill="none" stroke-width="5.0" stroke-linecap="round" stroke-linejoin="round" />
<path d="M 128.0 117.0 L 128.0 117.0 L 128.0 117.0 L 128.0 121.0 L 128.0 131.0 L 128.0 149.0 L 128.0 164.0 L 128.0 170.0 L 128.0 170.0 " stroke="black" fill="none" stroke-width="5.0" stroke-linecap="round" stroke-linejoin="round" />
<path d="M 134.0 132.0 L 134.0 132.0 L 134.0 132.0 L 135.0 133.0 L 139.0 133.0 L 147.0 133.0 L 157.0 132.0 L 165.0 130.0 L 168.0 130.0 L 168.0 130.0 L 167.0 131.0 " stroke="black" fill="none" stroke-width="5.0" stroke-linecap="round" stroke-linejoin="round" />
<path d="M 136.0 151.0 L 136.0 151.0 L 136.0 151.0 L 139.0 152.0 L 146.0 152.0 L 158.0 152.0 L 168.0 152.0 L 171.0 152.0 " stroke="black" fill="none" stroke-width="5.0" stroke-linecap="round" stroke-linejoin="round" />
<path d="M 149.0 116.0 L 149.0 116.0 L 149.0 116.0 L 149.0 116.0 L 149.0 120.0 L 151.0 132.0 L 153.0 149.0 L 154.0 161.0 L 154.0 162.0 " stroke="black" fill="none" stroke-width="5.0" stroke-linecap="round" stroke-linejoin="round" />
<path d="M 132.0 165.0 L 132.0 167.0 L 132.0 168.0 L 135.0 168.0 L 141.0 168.0 L 149.0 168.0 L 158.0 167.0 L 166.0 166.0 L 171.0 165.0 L 174.0 163.0 L 176.0 167.0 L 178.0 175.0 L 180.0 184.0 L 182.0 192.0 L 184.0 197.0 L 185.0 201.0 L 185.0 204.0 L 185.0 205.0 L 182.0 206.0 L 176.0 204.0 L 170.0 202.0 " stroke="black" fill="none" stroke-width="5.0" stroke-linecap="round" stroke-linejoin="round" />
<path d="M 124.0 182.0 L 124.0 182.0 L 123.0 182.0 L 123.0 184.0 L 124.0 189.0 L 126.0 195.0 " stroke="black" fill="none" stroke-width="5.0" stroke-linecap="round" stroke-linejoin="round" />
<path d="M 141.0 183.0 L 141.0 183.0 L 140.0 185.0 L 140.0 188.0 L 140.0 191.0 L 141.0 194.0 " stroke="black" fill="none" stroke-width="5.0" stroke-linecap="round" stroke-linejoin="round" />
<path d="M 149.0 184.0 L 150.0 184.0 L 150.0 184.0 L 150.0 185.0 L 151.0 189.0 L 152.0 194.0 " stroke="black" fill="none" stroke-width="5.0" stroke-linecap="round" stroke-linejoin="round" />
<path d="M 171.0 183.0 L 171.0 184.0 L 172.0 188.0 L 173.0 193.0 L 175.0 198.0 L 176.0 200.0 " stroke="black" fill="none" stroke-width="5.0" stroke-linecap="round" stroke-linejoin="round" />
</svg>