<svg xmlns="http://www.w3.org/2000/svg" width="300" height="300" viewBox="0 0 300 300">
<path d="M 129.0 106.0 L 130.0 106.0 L 132.0 106.0 L 135.0 106.0 L 141.0 106.0 L 150.0 106.0 L 161.0 105.0 L 171.0 104.0 " stroke="black" fill="none" stroke-width="5.0" stroke-linecap="round" stroke-linejoin="round" />
<path d="M 125.0 112.0 L 125.0 112.0 L 125.0 112.0 L 125.0 112.0 L 124.0 114.0 L 124.0 123.0 L 125.0 140.0 L 125.0 157.0 L 125.0 165.0 L 126.0 165.0 " stroke="black" fill="none" stroke-width="5.0" stroke-linecap="round" stroke-linejoin="round" />
<path d="M 133.0 126.0 L 133.0 126.0 L 132.0 126.0 L 132.0 126.0 L 135.0 126.0 L 142.0 126.0 L 151.0 127.0 L 160.0 128.0 L 165.0 128.0 L 166.0 128.0 " stroke="black" fill="none" stroke-width="5.0" stroke-linecap="round" stroke-linejoin="round" />
<path d="M 131.0 145.0 L 131.0 145.0 L 131.0 146.0 L 131.0 146.0 L 133.0 147.0 L 141.0 147.0 L 153.0 147.0 L 164.0 147.0 L 168.0 148.0 " stroke="black" fill="none" stroke-width="5.0" stroke-linecap="round" stroke-linejoin="round" />
<path d="M 148.0 111.0 L 148.0 111.0 L 148.0 111.0 L 148.0 111.0 L 148.0 113.0 L 148.0 124.0 L 149.0 141.0 L 150.0 155.0 L 151.0 161.0 L 151.0 161.0 " stroke="black" fill="none" stroke-width="5.0" stroke-linecap="round" stroke-linejoin="round" />
<path d="M 127.0 164.0 L 127.0 164.0 L 127.0 166.0 L 128.0 167.0 L 134.0 167.0 L 144.0 166.0 L 156.0 165.0 L 164.0 164.0 L 169.0 164.0 L 172.0 164.0 L 173.0 165.0 L 175.0 170.0 L 178.0 179.0 L 180.0 191.0 L 181.0 201.0 L 182.0 208.0 L 182.0 210.0 L 182.0 210.0 L 179.0 210.0 L 173.0 209.0 L 165.0 206.0 " stroke="black" fill="none" stroke-width="5.0" stroke-linecap="round" stroke-linejoin="round" />
<path d="M 123.0 177.0 L 123.0 177.0 L 123.0 177.0 L 122.0 178.0 L 122.0 183.0 L 122.0 191.0 L 122.0 192.0 " stroke="black" fill="none" stroke-width="5.0" stroke-linecap="round" stroke-linejoin="round" />
<path d="M 135.0 180.0 L 135.0 180.0 L 135.0 181.0 L 136.0 183.0 L 137.0 187.0 L 139.0 190.0 " stroke="black" fill="none" stroke-width="5.0" stroke-linecap="round" stroke-linejoin="round" />
<path d="M 147.0 177.0 L 147.0 177.0 L 147.0 178.0 L 148.0 180.0 L 149.0 186.0 L 150.0 187.0 " stroke="black" fill="none" stroke-width="5.0" stroke-linecap="round" stroke-linejoin="round" />
<path d="M 161.0 179.0 L 161.0 179.0 L 161.0 180.0 L 162.0 183.0 L 164.0 187.0 L 166.0 191.0 " stroke="black" fill="none" stroke-width="5.0" stroke-linecap="round" stroke-linejoin="round" />
</svg>