<svg xmlns="http://www.w3.org/2000/svg" width="300" height="300" viewBox="0 0 300 300">
<path d="M 132.0 105.0 L 132.0 105.0 L 132.0 105.0 L 132.0 108.0 L 132.0 114.0 L 132.0 123.0 L 134.0 131.0 L 135.0 134.0 " stroke="black" fill="none" stroke-width="5.0" stroke-linecap="round" stroke-linejoin="round" />
<path d="M 114.0 123.0 L 114.0 123.0 L 115.0 122.0 L 116.0 122.0 L 120.0 121.0 L 132.0 120.0 L 150.0 119.0 L 166.0 117.0 L 176.0 116.0 L 181.0 116.0 L 181.0 116.0 L 180.0 116.0 " stroke="black" fill="none" stroke-width="5.0" stroke-linecap="round" stroke-linejoin="round" />
<path d="M 159.0 102.0 L 159.0 102.0 L 159.0 102.0 L 160.0 103.0 L 161.0 110.0 L 161.0 122.0 L 160.0 131.0 " stroke="black" fill="none" stroke-width="5.0" stroke-linecap="round" stroke-linejoin="round" />
<path d="M 139.0 142.0 L 139.0 142.0 L 139.0 142.0 L 139.0 142.0 L 139.0 142.0 L 137.0 147.0 L 132.0 157.0 L 123.0 169.0 L 116.0 178.0 L 114.0 180.0 " stroke="black" fill="none" stroke-width="5.0" stroke-linecap="round" stroke-linejoin="round" />
<path d="M 131.0 159.0 L 131.0 159.0 L 131.0 159.0 L 131.0 159.0 L 131.0 160.0 L 132.0 167.0 L 132.0 178.0 L 133.0 188.0 L 134.0 194.0 " stroke="black" fill="none" stroke-width="5.0" stroke-linecap="round" stroke-linejoin="round" />
<path d="M 151.0 145.0 L 151.0 145.0 L 151.0 144.0 L 151.0 144.0 L 151.0 145.0 L 151.0 152.0 L 151.0 165.0 L 151.0 179.0 L 154.0 187.0 L 159.0 192.0 L 166.0 193.0 L 174.0 193.0 L 180.0 193.0 L 183.0 191.0 L 185.0 188.0 L 186.0 184.0 L 186.0 176.0 L 185.0 174.0 " stroke="black" fill="none" stroke-width="5.0" stroke-linecap="round" stroke-linejoin="round" />
<path d="M 151.0 165.0 L 151.0 165.0 L 151.0 165.0 L 154.0 165.0 L 163.0 163.0 L 175.0 161.0 L 178.0 161.0 " stroke="black" fill="none" stroke-width="5.0" stroke-linecap="round" stroke-linejoin="round" />
</svg>