<svg xmlns="http://www.w3.org/2000/svg" width="300" height="300" viewBox="0 0 300 300">
<path d="M 134.0 110.0 L 134.0 111.0 L 134.0 112.0 L 133.0 114.0 L 131.0 119.0 L 127.0 126.0 L 120.0 136.0 L 115.0 142.0 " stroke="black" fill="none" stroke-width="5.0" stroke-linecap="round" stroke-linejoin="round" />
<path d="M 134.0 120.0 L 134.0 120.0 L 134.0 121.0 L 134.0 121.0 L 136.0 122.0 L 139.0 122.0 L 142.0 122.0 L 145.0 123.0 L 147.0 124.0 L 148.0 127.0 L 148.0 134.0 L 145.0 145.0 L 140.0 158.0 L 133.0 171.0 L 127.0 179.0 L 124.0 180.0 " stroke="black" fill="none" stroke-width="5.0" stroke-linecap="round" stroke-linejoin="round" />
<path d="M 129.0 136.0 L 129.0 136.0 L 129.0 136.0 L 129.0 136.0 L 130.0 137.0 L 134.0 139.0 L 138.0 140.0 " stroke="black" fill="none" stroke-width="5.0" stroke-linecap="round" stroke-linejoin="round" />
<path d="M 120.0 153.0 L 120.0 153.0 L 121.0 154.0 L 122.0 155.0 L 126.0 155.0 L 131.0 155.0 " stroke="black" fill="none" stroke-width="5.0" stroke-linecap="round" stroke-linejoin="round" />
<path d="M 155.0 141.0 L 155.0 141.0 L 155.0 141.0 L 159.0 140.0 L 166.0 139.0 L 176.0 138.0 " stroke="black" fill="none" stroke-width="5.0" stroke-linecap="round" stroke-linejoin="round" />
<path d="M 168.0 121.0 L 168.0 121.0 L 168.0 122.0 L 167.0 124.0 L 166.0 129.0 L 165.0 139.0 L 161.0 155.0 L 155.0 171.0 L 153.0 175.0 " stroke="black" fill="none" stroke-width="5.0" stroke-linecap="round" stroke-linejoin="round" />
<path d="M 169.0 150.0 L 169.0 150.0 L 171.0 151.0 L 176.0 155.0 L 184.0 162.0 L 188.0 165.0 " stroke="black" fill="none" stroke-width="5.0" stroke-linecap="round" stroke-linejoin="round" />
<path d="M 191.0 119.0 L 191.0 122.0 L 192.0 127.0 L 193.0 131.0 " stroke="black" fill="none" stroke-width="5.0" stroke-linecap="round" stroke-linejoin="round" />
<path d="M 116.0 194.0 L 116.0 194.0 L 116.0 194.0 L 116.0 194.0 L 117.0 197.0 L 119.0 202.0 L 119.0 204.0 " stroke="black" fill="none" stroke-width="5.0" stroke-linecap="round" stroke-linejoin="round" />
<path d="M 149.0 187.0 L 149.0 187.0 L 149.0 188.0 L 150.0 189.0 L 151.0 193.0 L 152.0 198.0 L 153.0 201.0 " stroke="black" fill="none" stroke-width="5.0" stroke-linecap="round" stroke-linejoin="round" />
<path d="M 168.0 188.0 L 169.0 188.0 L 169.0 189.0 L 170.0 191.0 L 172.0 194.0 L 172.0 196.0 " stroke="black" fill="none" stroke-width="5.0" stroke-linecap="round" stroke-linejoin="round" />
<path d="M 195.0 180.0 L 195.0 180.0 L 195.0 181.0 L 196.0 183.0 L 197.0 187.0 L 198.0 192.0 " stroke="black" fill="none" stroke-width="5.0" stroke-linecap="round" stroke-linejoin="round" />
</svg>