<svg xmlns="http://www.w3.org/2000/svg" width="300" height="300" viewBox="0 0 300 300">
<path d="M 109.0 121.0 L 109.0 121.0 L 109.0 121.0 L 110.0 121.0 L 115.0 121.0 L 122.0 121.0 L 131.0 121.0 " stroke="black" fill="none" stroke-width="5.0" stroke-linecap="round" stroke-linejoin="round" />
<path d="M 118.0 102.0 L 118.0 102.0 L 118.0 102.0 L 118.0 102.0 L 118.0 108.0 L 119.0 122.0 L 120.0 145.0 L 121.0 164.0 L 121.0 177.0 L 121.0 185.0 L 121.0 187.0 " stroke="black" fill="none" stroke-width="5.0" stroke-linecap="round" stroke-linejoin="round" />
<path d="M 118.0 133.0 L 118.0 133.0 L 118.0 133.0 L 118.0 134.0 L 117.0 136.0 L 113.0 141.0 L 108.0 150.0 L 102.0 160.0 L 98.0 165.0 L 97.0 165.0 " stroke="black" fill="none" stroke-width="5.0" stroke-linecap="round" stroke-linejoin="round" />
<path d="M 120.0 136.0 L 120.0 136.0 L 120.0 136.0 L 123.0 139.0 L 130.0 147.0 L 137.0 154.0 " stroke="black" fill="none" stroke-width="5.0" stroke-linecap="round" stroke-linejoin="round" />
<path d="M 147.0 106.0 L 147.0 106.0 L 146.0 108.0 L 145.0 112.0 L 146.0 123.0 L 147.0 141.0 L 148.0 161.0 L 148.0 175.0 L 148.0 182.0 L 148.0 183.0 " stroke="black" fill="none" stroke-width="5.0" stroke-linecap="round" stroke-linejoin="round" />
<path d="M 146.0 105.0 L 146.0 105.0 L 145.0 106.0 L 146.0 107.0 L 150.0 107.0 L 155.0 106.0 L 162.0 105.0 L 168.0 105.0 L 173.0 105.0 L 177.0 106.0 L 180.0 108.0 L 183.0 115.0 L 187.0 129.0 L 191.0 151.0 L 195.0 171.0 L 197.0 184.0 L 198.0 189.0 L 198.0 191.0 L 195.0 191.0 L 188.0 188.0 L 181.0 184.0 " stroke="black" fill="none" stroke-width="5.0" stroke-linecap="round" stroke-linejoin="round" />
<path d="M 160.0 128.0 L 160.0 128.0 L 160.0 129.0 L 161.0 129.0 L 168.0 130.0 L 175.0 130.0 L 179.0 130.0 " stroke="black" fill="none" stroke-width="5.0" stroke-linecap="round" stroke-linejoin="round" />
<path d="M 158.0 149.0 L 158.0 150.0 L 157.0 151.0 L 157.0 153.0 L 157.0 156.0 L 159.0 160.0 L 160.0 162.0 " stroke="black" fill="none" stroke-width="5.0" stroke-linecap="round" stroke-linejoin="round" />
<path d="M 160.0 149.0 L 160.0 149.0 L 162.0 149.0 L 164.0 148.0 L 167.0 147.0 L 172.0 147.0 L 176.0 148.0 L 179.0 151.0 L 180.0 155.0 L 180.0 158.0 L 180.0 160.0 " stroke="black" fill="none" stroke-width="5.0" stroke-linecap="round" stroke-linejoin="round" />
<path d="M 161.0 163.0 L 161.0 163.0 L 162.0 164.0 L 165.0 165.0 L 170.0 165.0 L 176.0 165.0 " stroke="black" fill="none" stroke-width="5.0" stroke-linecap="round" stroke-linejoin="round" />
</svg>