<svg xmlns="http://www.w3.org/2000/svg" width="300" height="300" viewBox="0 0 300 300">
<path d="M 133.0 115.0 L 133.0 115.0 L 133.0 115.0 L 133.0 115.0 L 132.0 116.0 L 131.0 118.0 L 128.0 122.0 L 124.0 128.0 L 121.0 134.0 L 120.0 139.0 L 123.0 140.0 L 127.0 141.0 " stroke="black" fill="none" stroke-width="5.0" stroke-linecap="round" stroke-linejoin="round" />
<path d="M 137.0 129.0 L 137.0 129.0 L 136.0 129.0 L 135.0 129.0 L 133.0 131.0 L 129.0 136.0 L 124.0 144.0 L 118.0 154.0 L 115.0 162.0 L 114.0 166.0 L 115.0 167.0 L 120.0 167.0 L 126.0 164.0 " stroke="black" fill="none" stroke-width="5.0" stroke-linecap="round" stroke-linejoin="round" />
<path d="M 135.0 156.0 L 135.0 157.0 L 135.0 158.0 L 135.0 160.0 L 136.0 164.0 L 138.0 169.0 L 139.0 172.0 " stroke="black" fill="none" stroke-width="5.0" stroke-linecap="round" stroke-linejoin="round" />
<path d="M 109.0 182.0 L 109.0 182.0 L 109.0 182.0 L 109.0 184.0 L 109.0 188.0 L 111.0 195.0 L 113.0 200.0 " stroke="black" fill="none" stroke-width="5.0" stroke-linecap="round" stroke-linejoin="round" />
<path d="M 118.0 181.0 L 118.0 181.0 L 118.0 181.0 L 118.0 182.0 L 119.0 185.0 L 122.0 190.0 L 123.0 192.0 " stroke="black" fill="none" stroke-width="5.0" stroke-linecap="round" stroke-linejoin="round" />
<path d="M 132.0 183.0 L 132.0 184.0 L 133.0 188.0 L 134.0 191.0 L 136.0 194.0 L 139.0 196.0 " stroke="black" fill="none" stroke-width="5.0" stroke-linecap="round" stroke-linejoin="round" />
<path d="M 157.0 110.0 L 158.0 110.0 L 158.0 110.0 L 159.0 110.0 L 159.0 111.0 L 157.0 114.0 L 154.0 117.0 L 150.0 120.0 L 148.0 122.0 L 147.0 125.0 L 146.0 129.0 L 147.0 138.0 L 149.0 147.0 L 150.0 154.0 L 151.0 157.0 L 151.0 157.0 " stroke="black" fill="none" stroke-width="5.0" stroke-linecap="round" stroke-linejoin="round" />
<path d="M 149.0 130.0 L 149.0 130.0 L 150.0 130.0 L 151.0 130.0 L 156.0 129.0 L 162.0 127.0 L 168.0 127.0 L 172.0 130.0 L 176.0 136.0 L 178.0 144.0 L 179.0 149.0 L 179.0 152.0 L 179.0 152.0 " stroke="black" fill="none" stroke-width="5.0" stroke-linecap="round" stroke-linejoin="round" />
<path d="M 152.0 140.0 L 152.0 140.0 L 152.0 140.0 L 154.0 140.0 L 158.0 140.0 L 164.0 140.0 L 169.0 140.0 L 172.0 140.0 L 172.0 140.0 " stroke="black" fill="none" stroke-width="5.0" stroke-linecap="round" stroke-linejoin="round" />
<path d="M 150.0 155.0 L 151.0 156.0 L 153.0 157.0 L 158.0 157.0 L 166.0 157.0 L 172.0 156.0 L 173.0 156.0 " stroke="black" fill="none" stroke-width="5.0" stroke-linecap="round" stroke-linejoin="round" />
<path d="M 148.0 172.0 L 148.0 172.0 L 148.0 174.0 L 148.0 178.0 L 148.0 183.0 L 148.0 189.0 L 148.0 190.0 " stroke="black" fill="none" stroke-width="5.0" stroke-linecap="round" stroke-linejoin="round" />
<path d="M 149.0 170.0 L 150.0 170.0 L 150.0 170.0 L 154.0 170.0 L 161.0 169.0 L 171.0 169.0 L 179.0 169.0 L 183.0 173.0 L 186.0 182.0 L 187.0 191.0 L 187.0 197.0 L 187.0 199.0 L 185.0 199.0 L 180.0 197.0 " stroke="black" fill="none" stroke-width="5.0" stroke-linecap="round" stroke-linejoin="round" />
<path d="M 166.0 158.0 L 166.0 158.0 L 166.0 158.0 L 166.0 158.0 L 166.0 159.0 L 166.0 161.0 L 166.0 169.0 L 167.0 184.0 L 167.0 198.0 L 167.0 204.0 L 167.0 204.0 " stroke="black" fill="none" stroke-width="5.0" stroke-linecap="round" stroke-linejoin="round" />
</svg>