<svg xmlns="http://www.w3.org/2000/svg" width="300" height="300" viewBox="0 0 300 300">
<path d="M 123.0 122.0 L 123.0 122.0 L 123.0 123.0 L 123.0 123.0 L 124.0 124.0 L 124.0 126.0 L 122.0 129.0 L 119.0 135.0 L 114.0 141.0 L 111.0 145.0 L 110.0 146.0 L 110.0 147.0 L 111.0 148.0 L 114.0 149.0 L 118.0 150.0 L 120.0 150.0 " stroke="black" fill="none" stroke-width="5.0" stroke-linecap="round" stroke-linejoin="round" />
<path d="M 130.0 139.0 L 130.0 139.0 L 130.0 139.0 L 129.0 140.0 L 126.0 142.0 L 123.0 146.0 L 117.0 152.0 L 111.0 160.0 L 108.0 166.0 L 107.0 168.0 L 109.0 169.0 L 115.0 169.0 L 122.0 168.0 L 129.0 166.0 L 131.0 165.0 " stroke="black" fill="none" stroke-width="5.0" stroke-linecap="round" stroke-linejoin="round" />
<path d="M 133.0 157.0 L 133.0 157.0 L 133.0 157.0 L 133.0 157.0 L 133.0 158.0 L 134.0 163.0 L 135.0 170.0 L 137.0 176.0 " stroke="black" fill="none" stroke-width="5.0" stroke-linecap="round" stroke-linejoin="round" />
<path d="M 106.0 182.0 L 106.0 182.0 L 106.0 182.0 L 106.0 183.0 L 106.0 187.0 L 106.0 191.0 L 107.0 196.0 " stroke="black" fill="none" stroke-width="5.0" stroke-linecap="round" stroke-linejoin="round" />
<path d="M 114.0 180.0 L 114.0 181.0 L 114.0 182.0 L 115.0 184.0 L 116.0 189.0 L 118.0 193.0 " stroke="black" fill="none" stroke-width="5.0" stroke-linecap="round" stroke-linejoin="round" />
<path d="M 125.0 180.0 L 125.0 183.0 L 126.0 187.0 L 127.0 191.0 L 128.0 194.0 " stroke="black" fill="none" stroke-width="5.0" stroke-linecap="round" stroke-linejoin="round" />
<path d="M 154.0 117.0 L 154.0 117.0 L 154.0 117.0 L 153.0 117.0 L 153.0 118.0 L 151.0 119.0 L 150.0 121.0 L 148.0 122.0 L 147.0 123.0 L 147.0 124.0 L 146.0 125.0 L 146.0 127.0 L 146.0 132.0 L 146.0 137.0 L 147.0 142.0 L 148.0 145.0 L 148.0 146.0 " stroke="black" fill="none" stroke-width="5.0" stroke-linecap="round" stroke-linejoin="round" />
<path d="M 147.0 126.0 L 147.0 126.0 L 147.0 126.0 L 149.0 126.0 L 152.0 126.0 L 159.0 126.0 L 165.0 126.0 L 170.0 126.0 L 174.0 126.0 L 176.0 128.0 L 178.0 132.0 L 179.0 138.0 L 179.0 144.0 L 179.0 149.0 L 179.0 150.0 " stroke="black" fill="none" stroke-width="5.0" stroke-linecap="round" stroke-linejoin="round" />
<path d="M 153.0 139.0 L 153.0 139.0 L 153.0 139.0 L 154.0 139.0 L 155.0 139.0 L 161.0 139.0 L 170.0 139.0 L 177.0 139.0 L 179.0 140.0 L 179.0 140.0 " stroke="black" fill="none" stroke-width="5.0" stroke-linecap="round" stroke-linejoin="round" />
<path d="M 150.0 152.0 L 151.0 152.0 L 154.0 153.0 L 160.0 154.0 L 169.0 154.0 L 176.0 153.0 " stroke="black" fill="none" stroke-width="5.0" stroke-linecap="round" stroke-linejoin="round" />
<path d="M 146.0 169.0 L 146.0 169.0 L 145.0 170.0 L 145.0 173.0 L 145.0 178.0 L 145.0 183.0 L 146.0 185.0 " stroke="black" fill="none" stroke-width="5.0" stroke-linecap="round" stroke-linejoin="round" />
<path d="M 147.0 165.0 L 147.0 165.0 L 148.0 165.0 L 151.0 165.0 L 158.0 164.0 L 169.0 163.0 L 178.0 163.0 L 184.0 163.0 L 187.0 167.0 L 189.0 173.0 L 190.0 181.0 L 191.0 188.0 L 191.0 192.0 L 190.0 193.0 L 187.0 194.0 L 181.0 194.0 L 180.0 193.0 " stroke="black" fill="none" stroke-width="5.0" stroke-linecap="round" stroke-linejoin="round" />
<path d="M 160.0 153.0 L 160.0 153.0 L 160.0 153.0 L 160.0 155.0 L 160.0 163.0 L 163.0 179.0 L 165.0 196.0 L 165.0 207.0 L 166.0 210.0 L 166.0 210.0 " stroke="black" fill="none" stroke-width="5.0" stroke-linecap="round" stroke-linejoin="round" />
</svg>