<svg xmlns="http://www.w3.org/2000/svg" width="300" height="300" viewBox="0 0 300 300">
<path d="M 127.0 111.0 L 127.0 111.0 L 127.0 111.0 L 127.0 111.0 L 128.0 111.0 L 133.0 111.0 L 143.0 110.0 L 154.0 110.0 L 163.0 110.0 L 170.0 110.0 L 175.0 110.0 L 178.0 110.0 L 178.0 110.0 L 179.0 110.0 L 179.0 111.0 L 179.0 111.0 L 180.0 113.0 L 180.0 117.0 L 180.0 122.0 L 180.0 127.0 L 180.0 131.0 L 180.0 132.0 " stroke="black" fill="none" stroke-width="5.0" stroke-linecap="round" stroke-linejoin="round" />
<path d="M 156.0 116.0 L 156.0 117.0 L 156.0 118.0 L 156.0 121.0 L 156.0 124.0 L 156.0 125.0 " stroke="black" fill="none" stroke-width="5.0" stroke-linecap="round" stroke-linejoin="round" />
<path d="M 132.0 134.0 L 132.0 134.0 L 133.0 134.0 L 135.0 134.0 L 142.0 134.0 L 154.0 133.0 L 167.0 132.0 L 173.0 132.0 L 174.0 132.0 " stroke="black" fill="none" stroke-width="5.0" stroke-linecap="round" stroke-linejoin="round" />
<path d="M 138.0 116.0 L 138.0 117.0 L 137.0 118.0 L 136.0 121.0 L 134.0 128.0 L 131.0 141.0 L 122.0 158.0 L 112.0 172.0 L 106.0 179.0 L 105.0 180.0 " stroke="black" fill="none" stroke-width="5.0" stroke-linecap="round" stroke-linejoin="round" />
<path d="M 136.0 150.0 L 136.0 150.0 L 136.0 149.0 L 136.0 149.0 L 137.0 149.0 L 137.0 153.0 L 137.0 163.0 L 137.0 177.0 L 137.0 190.0 L 137.0 196.0 L 137.0 196.0 " stroke="black" fill="none" stroke-width="5.0" stroke-linecap="round" stroke-linejoin="round" />
<path d="M 139.0 151.0 L 139.0 151.0 L 139.0 151.0 L 139.0 151.0 L 141.0 151.0 L 147.0 150.0 L 154.0 149.0 L 163.0 149.0 L 170.0 149.0 L 174.0 149.0 L 176.0 153.0 L 178.0 162.0 L 178.0 172.0 L 179.0 182.0 L 180.0 189.0 L 180.0 192.0 L 180.0 192.0 L 180.0 192.0 " stroke="black" fill="none" stroke-width="5.0" stroke-linecap="round" stroke-linejoin="round" />
<path d="M 144.0 163.0 L 143.0 163.0 L 143.0 163.0 L 144.0 163.0 L 149.0 163.0 L 159.0 163.0 L 168.0 163.0 L 174.0 164.0 L 176.0 165.0 L 174.0 166.0 L 171.0 166.0 " stroke="black" fill="none" stroke-width="5.0" stroke-linecap="round" stroke-linejoin="round" />
<path d="M 145.0 178.0 L 144.0 178.0 L 145.0 178.0 L 148.0 179.0 L 155.0 179.0 L 164.0 180.0 L 171.0 180.0 L 174.0 181.0 L 174.0 183.0 " stroke="black" fill="none" stroke-width="5.0" stroke-linecap="round" stroke-linejoin="round" />
<path d="M 141.0 196.0 L 141.0 196.0 L 141.0 197.0 L 143.0 198.0 L 150.0 198.0 L 160.0 198.0 L 171.0 197.0 L 177.0 196.0 L 177.0 196.0 " stroke="black" fill="none" stroke-width="5.0" stroke-linecap="round" stroke-linejoin="round" />
</svg>