<svg xmlns="http://www.w3.org/2000/svg" width="300" height="300" viewBox="0 0 300 300">
<path d="M 132.0 111.0 L 134.0 111.0 L 136.0 111.0 L 141.0 111.0 L 148.0 111.0 L 156.0 111.0 L 164.0 111.0 L 168.0 111.0 L 170.0 110.0 L 169.0 110.0 " stroke="black" fill="none" stroke-width="5.0" stroke-linecap="round" stroke-linejoin="round" />
<path d="M 153.0 116.0 L 153.0 116.0 L 153.0 116.0 L 153.0 116.0 L 152.0 116.0 L 151.0 118.0 L 147.0 124.0 L 140.0 134.0 L 136.0 141.0 L 135.0 144.0 L 142.0 144.0 L 154.0 144.0 L 164.0 142.0 L 171.0 141.0 L 172.0 141.0 " stroke="black" fill="none" stroke-width="5.0" stroke-linecap="round" stroke-linejoin="round" />
<path d="M 167.0 132.0 L 169.0 132.0 L 170.0 134.0 L 173.0 139.0 L 175.0 144.0 L 178.0 149.0 L 179.0 151.0 " stroke="black" fill="none" stroke-width="5.0" stroke-linecap="round" stroke-linejoin="round" />
<path d="M 136.0 163.0 L 137.0 163.0 L 137.0 163.0 L 140.0 163.0 L 146.0 163.0 L 154.0 163.0 L 160.0 163.0 L 163.0 163.0 L 163.0 163.0 " stroke="black" fill="none" stroke-width="5.0" stroke-linecap="round" stroke-linejoin="round" />
<path d="M 116.0 185.0 L 117.0 185.0 L 120.0 186.0 L 130.0 186.0 L 147.0 187.0 L 162.0 187.0 L 176.0 187.0 L 185.0 187.0 L 187.0 187.0 " stroke="black" fill="none" stroke-width="5.0" stroke-linecap="round" stroke-linejoin="round" />
<path d="M 153.0 148.0 L 153.0 148.0 L 153.0 149.0 L 153.0 152.0 L 154.0 162.0 L 155.0 175.0 L 155.0 182.0 L 155.0 183.0 " stroke="black" fill="none" stroke-width="5.0" stroke-linecap="round" stroke-linejoin="round" />
</svg>