<svg xmlns="http://www.w3.org/2000/svg" width="300" height="300" viewBox="0 0 300 300">
<path d="M 115.0 129.0 L 115.0 129.0 L 115.0 129.0 L 115.0 129.0 L 120.0 129.0 L 128.0 129.0 L 137.0 129.0 L 140.0 129.0 " stroke="black" fill="none" stroke-width="5.0" stroke-linecap="round" stroke-linejoin="round" />
<path d="M 125.0 134.0 L 125.0 134.0 L 125.0 134.0 L 126.0 134.0 L 126.0 136.0 L 127.0 142.0 L 127.0 150.0 L 127.0 159.0 L 128.0 163.0 L 128.0 164.0 " stroke="black" fill="none" stroke-width="5.0" stroke-linecap="round" stroke-linejoin="round" />
<path d="M 109.0 168.0 L 109.0 168.0 L 109.0 168.0 L 110.0 169.0 L 113.0 169.0 L 122.0 169.0 L 135.0 169.0 L 146.0 168.0 L 147.0 168.0 " stroke="black" fill="none" stroke-width="5.0" stroke-linecap="round" stroke-linejoin="round" />
<path d="M 154.0 109.0 L 154.0 109.0 L 155.0 109.0 L 156.0 109.0 L 160.0 109.0 L 168.0 108.0 L 176.0 107.0 L 181.0 107.0 L 181.0 107.0 " stroke="black" fill="none" stroke-width="5.0" stroke-linecap="round" stroke-linejoin="round" />
<path d="M 166.0 112.0 L 166.0 112.0 L 166.0 112.0 L 166.0 112.0 L 165.0 115.0 L 163.0 121.0 L 160.0 128.0 L 158.0 133.0 L 158.0 136.0 L 160.0 137.0 L 164.0 138.0 L 168.0 138.0 L 172.0 139.0 L 177.0 140.0 L 180.0 142.0 L 184.0 145.0 L 187.0 150.0 L 189.0 160.0 L 192.0 173.0 L 193.0 186.0 L 194.0 194.0 L 194.0 198.0 L 190.0 199.0 L 184.0 200.0 L 173.0 199.0 L 160.0 195.0 " stroke="black" fill="none" stroke-width="5.0" stroke-linecap="round" stroke-linejoin="round" />
</svg>