<svg xmlns="http://www.w3.org/2000/svg" width="300" height="300" viewBox="0 0 300 300">
<path d="M 122.0 130.0 L 122.0 130.0 L 122.0 131.0 L 122.0 131.0 L 122.0 133.0 L 122.0 136.0 L 122.0 142.0 L 123.0 149.0 L 124.0 154.0 " stroke="black" fill="none" stroke-width="5.0" stroke-linecap="round" stroke-linejoin="round" />
<path d="M 127.0 127.0 L 127.0 127.0 L 126.0 128.0 L 127.0 128.0 L 131.0 127.0 L 141.0 126.0 L 150.0 126.0 L 158.0 126.0 L 167.0 126.0 L 170.0 126.0 L 175.0 127.0 L 176.0 129.0 L 177.0 133.0 L 177.0 139.0 L 176.0 144.0 L 175.0 152.0 L 175.0 156.0 L 174.0 157.0 " stroke="black" fill="none" stroke-width="5.0" stroke-linecap="round" stroke-linejoin="round" />
<path d="M 127.0 158.0 L 127.0 159.0 L 127.0 160.0 L 128.0 160.0 L 132.0 161.0 L 135.0 161.0 L 149.0 161.0 L 159.0 160.0 L 171.0 159.0 L 173.0 158.0 " stroke="black" fill="none" stroke-width="5.0" stroke-linecap="round" stroke-linejoin="round" />
<path d="M 147.0 103.0 L 147.0 103.0 L 148.0 103.0 L 148.0 103.0 L 148.0 106.0 L 148.0 115.0 L 148.0 136.0 L 148.0 176.0 L 147.0 192.0 L 146.0 203.0 L 146.0 206.0 L 146.0 207.0 L 146.0 204.0 " stroke="black" fill="none" stroke-width="5.0" stroke-linecap="round" stroke-linejoin="round" />
</svg>