<svg xmlns="http://www.w3.org/2000/svg" width="300" height="300" viewBox="0 0 300 300">
<path d="M 128.0 135.0 L 128.0 135.0 L 127.0 135.0 L 126.0 135.0 L 126.0 140.0 L 127.0 147.0 L 128.0 154.0 " stroke="black" fill="none" stroke-width="5.0" stroke-linecap="round" stroke-linejoin="round" />
<path d="M 132.0 132.0 L 132.0 132.0 L 132.0 133.0 L 133.0 133.0 L 139.0 132.0 L 150.0 129.0 L 162.0 127.0 L 172.0 127.0 L 178.0 127.0 L 181.0 128.0 L 182.0 130.0 L 183.0 134.0 L 184.0 142.0 L 184.0 150.0 L 183.0 157.0 L 182.0 160.0 " stroke="black" fill="none" stroke-width="5.0" stroke-linecap="round" stroke-linejoin="round" />
<path d="M 129.0 161.0 L 129.0 162.0 L 128.0 163.0 L 129.0 164.0 L 138.0 164.0 L 154.0 162.0 L 170.0 161.0 L 179.0 161.0 L 181.0 161.0 " stroke="black" fill="none" stroke-width="5.0" stroke-linecap="round" stroke-linejoin="round" />
<path d="M 152.0 105.0 L 152.0 105.0 L 152.0 103.0 L 151.0 103.0 L 152.0 111.0 L 154.0 133.0 L 155.0 164.0 L 156.0 188.0 L 156.0 200.0 L 157.0 204.0 L 157.0 204.0 L 157.0 202.0 " stroke="black" fill="none" stroke-width="5.0" stroke-linecap="round" stroke-linejoin="round" />
</svg>