<svg xmlns="http://www.w3.org/2000/svg" width="300" height="300" viewBox="0 0 300 300">
<path d="M 120.0 135.0 L 120.0 135.0 L 120.0 135.0 L 120.0 135.0 L 120.0 137.0 L 121.0 141.0 L 121.0 148.0 L 122.0 153.0 " stroke="black" fill="none" stroke-width="5.0" stroke-linecap="round" stroke-linejoin="round" />
<path d="M 122.0 134.0 L 122.0 134.0 L 123.0 134.0 L 124.0 134.0 L 128.0 134.0 L 138.0 133.0 L 151.0 132.0 L 161.0 132.0 L 168.0 132.0 L 172.0 133.0 L 174.0 137.0 L 174.0 141.0 L 174.0 147.0 L 174.0 152.0 L 173.0 157.0 L 172.0 160.0 " stroke="black" fill="none" stroke-width="5.0" stroke-linecap="round" stroke-linejoin="round" />
<path d="M 124.0 159.0 L 124.0 159.0 L 126.0 160.0 L 129.0 160.0 L 136.0 160.0 L 149.0 159.0 L 161.0 158.0 L 170.0 157.0 L 173.0 157.0 " stroke="black" fill="none" stroke-width="5.0" stroke-linecap="round" stroke-linejoin="round" />
<path d="M 146.0 107.0 L 146.0 107.0 L 146.0 107.0 L 146.0 108.0 L 146.0 118.0 L 147.0 138.0 L 147.0 164.0 L 147.0 185.0 L 147.0 195.0 L 148.0 198.0 L 149.0 198.0 L 149.0 198.0 " stroke="black" fill="none" stroke-width="5.0" stroke-linecap="round" stroke-linejoin="round" />
</svg>