<svg xmlns="http://www.w3.org/2000/svg" width="300" height="300" viewBox="0 0 300 300">
<path d="M 132.0 112.0 L 132.0 113.0 L 132.0 114.0 L 132.0 115.0 L 132.0 117.0 L 131.0 119.0 L 129.0 122.0 L 125.0 127.0 L 120.0 131.0 L 115.0 135.0 L 112.0 136.0 L 111.0 138.0 L 111.0 140.0 L 113.0 144.0 L 114.0 152.0 L 115.0 163.0 L 116.0 175.0 L 116.0 183.0 L 117.0 186.0 L 117.0 186.0 " stroke="black" fill="none" stroke-width="5.0" stroke-linecap="round" stroke-linejoin="round" />
<path d="M 119.0 137.0 L 119.0 137.0 L 120.0 137.0 L 121.0 137.0 L 124.0 137.0 L 132.0 137.0 L 143.0 136.0 L 152.0 136.0 L 160.0 136.0 L 166.0 136.0 L 170.0 136.0 L 173.0 136.0 L 175.0 139.0 L 177.0 145.0 L 178.0 154.0 L 179.0 165.0 L 181.0 176.0 L 182.0 183.0 L 182.0 186.0 L 182.0 187.0 " stroke="black" fill="none" stroke-width="5.0" stroke-linecap="round" stroke-linejoin="round" />
<path d="M 125.0 159.0 L 125.0 159.0 L 127.0 159.0 L 130.0 159.0 L 136.0 159.0 L 145.0 159.0 L 156.0 159.0 L 164.0 159.0 L 169.0 160.0 L 170.0 160.0 " stroke="black" fill="none" stroke-width="5.0" stroke-linecap="round" stroke-linejoin="round" />
<path d="M 118.0 189.0 L 119.0 189.0 L 122.0 190.0 L 131.0 191.0 L 146.0 191.0 L 158.0 191.0 L 168.0 191.0 L 174.0 191.0 " stroke="black" fill="none" stroke-width="5.0" stroke-linecap="round" stroke-linejoin="round" />
</svg>