<svg xmlns="http://www.w3.org/2000/svg" width="300" height="300" viewBox="0 0 300 300">
<path d="M 119.0 113.0 L 119.0 113.0 L 119.0 113.0 L 119.0 113.0 L 121.0 112.0 L 131.0 112.0 L 149.0 112.0 L 166.0 111.0 L 176.0 111.0 L 178.0 111.0 L 178.0 111.0 " stroke="black" fill="none" stroke-width="5.0" stroke-linecap="round" stroke-linejoin="round" />
<path d="M 118.0 118.0 L 118.0 118.0 L 118.0 118.0 L 118.0 118.0 L 118.0 118.0 L 118.0 121.0 L 117.0 132.0 L 115.0 152.0 L 111.0 173.0 L 107.0 187.0 L 106.0 192.0 L 106.0 193.0 L 106.0 192.0 " stroke="black" fill="none" stroke-width="5.0" stroke-linecap="round" stroke-linejoin="round" />
<path d="M 130.0 128.0 L 130.0 128.0 L 130.0 129.0 L 130.0 129.0 L 132.0 129.0 L 136.0 129.0 L 141.0 128.0 L 147.0 128.0 L 148.0 128.0 " stroke="black" fill="none" stroke-width="5.0" stroke-linecap="round" stroke-linejoin="round" />
<path d="M 126.0 145.0 L 126.0 145.0 L 126.0 146.0 L 126.0 147.0 L 127.0 150.0 L 128.0 152.0 " stroke="black" fill="none" stroke-width="5.0" stroke-linecap="round" stroke-linejoin="round" />
<path d="M 129.0 144.0 L 129.0 144.0 L 129.0 144.0 L 130.0 143.0 L 132.0 142.0 L 136.0 141.0 L 140.0 141.0 L 144.0 143.0 L 147.0 146.0 L 148.0 149.0 L 148.0 151.0 L 148.0 153.0 L 148.0 153.0 " stroke="black" fill="none" stroke-width="5.0" stroke-linecap="round" stroke-linejoin="round" />
<path d="M 131.0 154.0 L 131.0 154.0 L 131.0 155.0 L 132.0 155.0 L 136.0 156.0 L 142.0 156.0 L 143.0 156.0 " stroke="black" fill="none" stroke-width="5.0" stroke-linecap="round" stroke-linejoin="round" />
<path d="M 124.0 173.0 L 124.0 173.0 L 124.0 173.0 L 124.0 173.0 L 124.0 173.0 L 124.0 173.0 L 123.0 176.0 L 121.0 181.0 L 117.0 187.0 " stroke="black" fill="none" stroke-width="5.0" stroke-linecap="round" stroke-linejoin="round" />
<path d="M 130.0 183.0 L 130.0 183.0 L 130.0 183.0 L 129.0 183.0 L 129.0 184.0 L 128.0 185.0 L 128.0 188.0 L 128.0 191.0 L 132.0 194.0 L 137.0 194.0 L 143.0 194.0 L 147.0 192.0 L 149.0 190.0 L 149.0 189.0 L 148.0 187.0 L 148.0 187.0 " stroke="black" fill="none" stroke-width="5.0" stroke-linecap="round" stroke-linejoin="round" />
<path d="M 137.0 179.0 L 137.0 179.0 L 137.0 179.0 L 137.0 179.0 L 138.0 180.0 L 139.0 182.0 " stroke="black" fill="none" stroke-width="5.0" stroke-linecap="round" stroke-linejoin="round" />
<path d="M 155.0 176.0 L 155.0 177.0 L 155.0 181.0 L 155.0 183.0 " stroke="black" fill="none" stroke-width="5.0" stroke-linecap="round" stroke-linejoin="round" />
<path d="M 153.0 96.0 L 153.0 96.0 L 153.0 97.0 L 154.0 103.0 L 158.0 120.0 L 166.0 147.0 L 176.0 174.0 L 183.0 187.0 L 187.0 192.0 L 187.0 192.0 " stroke="black" fill="none" stroke-width="5.0" stroke-linecap="round" stroke-linejoin="round" />
<path d="M 186.0 163.0 L 184.0 165.0 L 181.0 167.0 L 178.0 171.0 L 172.0 178.0 L 164.0 185.0 " stroke="black" fill="none" stroke-width="5.0" stroke-linecap="round" stroke-linejoin="round" />
<path d="M 172.0 91.0 L 172.0 91.0 L 172.0 93.0 L 174.0 97.0 L 178.0 104.0 L 180.0 105.0 " stroke="black" fill="none" stroke-width="5.0" stroke-linecap="round" stroke-linejoin="round" />
</svg>