<svg xmlns="http://www.w3.org/2000/svg" width="300" height="300" viewBox="0 0 300 300">
<path d="M 117.0 111.0 L 119.0 111.0 L 119.0 111.0 L 120.0 111.0 L 122.0 110.0 L 125.0 110.0 L 129.0 109.0 L 135.0 109.0 L 137.0 109.0 " stroke="black" fill="none" stroke-width="5.0" stroke-linecap="round" stroke-linejoin="round" />
<path d="M 117.0 123.0 L 117.0 123.0 L 119.0 124.0 L 119.0 124.0 L 120.0 125.0 L 123.0 125.0 L 126.0 124.0 L 132.0 123.0 L 136.0 123.0 L 137.0 124.0 " stroke="black" fill="none" stroke-width="5.0" stroke-linecap="round" stroke-linejoin="round" />
<path d="M 107.0 141.0 L 108.0 141.0 L 111.0 141.0 L 115.0 141.0 L 122.0 142.0 L 135.0 142.0 L 142.0 142.0 L 143.0 142.0 " stroke="black" fill="none" stroke-width="5.0" stroke-linecap="round" stroke-linejoin="round" />
<path d="M 124.0 101.0 L 124.0 99.0 L 124.0 99.0 L 126.0 109.0 L 127.0 119.0 L 127.0 133.0 L 127.0 140.0 " stroke="black" fill="none" stroke-width="5.0" stroke-linecap="round" stroke-linejoin="round" />
<path d="M 113.0 152.0 L 113.0 152.0 L 114.0 153.0 L 114.0 156.0 L 114.0 163.0 L 114.0 172.0 L 113.0 182.0 L 113.0 188.0 L 113.0 188.0 L 113.0 187.0 " stroke="black" fill="none" stroke-width="5.0" stroke-linecap="round" stroke-linejoin="round" />
<path d="M 114.0 152.0 L 116.0 151.0 L 117.0 151.0 L 119.0 151.0 L 122.0 151.0 L 125.0 151.0 L 131.0 151.0 L 136.0 151.0 L 139.0 151.0 L 142.0 153.0 L 144.0 164.0 L 145.0 173.0 L 147.0 184.0 L 147.0 194.0 L 147.0 197.0 L 147.0 198.0 L 142.0 197.0 L 135.0 194.0 L 131.0 191.0 L 129.0 190.0 " stroke="black" fill="none" stroke-width="5.0" stroke-linecap="round" stroke-linejoin="round" />
<path d="M 119.0 161.0 L 121.0 161.0 L 124.0 162.0 L 127.0 162.0 L 132.0 163.0 L 140.0 163.0 L 143.0 163.0 L 143.0 163.0 " stroke="black" fill="none" stroke-width="5.0" stroke-linecap="round" stroke-linejoin="round" />
<path d="M 122.0 173.0 L 125.0 174.0 L 132.0 174.0 L 141.0 174.0 L 146.0 172.0 " stroke="black" fill="none" stroke-width="5.0" stroke-linecap="round" stroke-linejoin="round" />
<path d="M 165.0 107.0 L 165.0 106.0 L 166.0 106.0 L 166.0 105.0 L 166.0 105.0 L 164.0 108.0 L 159.0 112.0 L 155.0 115.0 L 150.0 119.0 " stroke="black" fill="none" stroke-width="5.0" stroke-linecap="round" stroke-linejoin="round" />
<path d="M 152.0 122.0 L 153.0 122.0 L 154.0 123.0 L 155.0 125.0 L 156.0 128.0 L 156.0 131.0 L 158.0 133.0 " stroke="black" fill="none" stroke-width="5.0" stroke-linecap="round" stroke-linejoin="round" />
<path d="M 165.0 117.0 L 167.0 117.0 L 167.0 117.0 L 168.0 118.0 L 168.0 121.0 L 168.0 124.0 L 168.0 126.0 " stroke="black" fill="none" stroke-width="5.0" stroke-linecap="round" stroke-linejoin="round" />
<path d="M 179.0 114.0 L 179.0 115.0 L 179.0 118.0 L 178.0 123.0 L 177.0 128.0 L 176.0 130.0 " stroke="black" fill="none" stroke-width="5.0" stroke-linecap="round" stroke-linejoin="round" />
<path d="M 155.0 139.0 L 156.0 139.0 L 157.0 140.0 L 159.0 140.0 L 162.0 140.0 L 165.0 140.0 L 172.0 140.0 L 177.0 139.0 L 179.0 139.0 L 181.0 139.0 L 182.0 141.0 L 183.0 144.0 L 185.0 149.0 L 186.0 156.0 L 186.0 159.0 " stroke="black" fill="none" stroke-width="5.0" stroke-linecap="round" stroke-linejoin="round" />
<path d="M 155.0 147.0 L 155.0 147.0 L 155.0 147.0 L 155.0 147.0 L 155.0 147.0 L 156.0 147.0 L 165.0 147.0 L 176.0 147.0 L 183.0 148.0 L 187.0 148.0 L 187.0 148.0 " stroke="black" fill="none" stroke-width="5.0" stroke-linecap="round" stroke-linejoin="round" />
<path d="M 156.0 159.0 L 156.0 159.0 L 157.0 160.0 L 158.0 161.0 L 164.0 162.0 L 174.0 161.0 L 181.0 159.0 L 187.0 159.0 L 187.0 159.0 " stroke="black" fill="none" stroke-width="5.0" stroke-linecap="round" stroke-linejoin="round" />
<path d="M 168.0 145.0 L 168.0 145.0 L 168.0 145.0 L 167.0 144.0 L 167.0 145.0 L 168.0 150.0 L 173.0 163.0 L 176.0 173.0 L 178.0 181.0 L 180.0 193.0 L 181.0 196.0 L 181.0 196.0 L 180.0 196.0 L 172.0 194.0 L 161.0 190.0 " stroke="black" fill="none" stroke-width="5.0" stroke-linecap="round" stroke-linejoin="round" />
</svg>