<svg xmlns="http://www.w3.org/2000/svg" width="300" height="300" viewBox="0 0 300 300">
<path d="M 141.0 107.0 L 141.0 107.0 L 142.0 108.0 L 143.0 109.0 L 145.0 112.0 L 148.0 116.0 L 150.0 118.0 " stroke="black" fill="none" stroke-width="5.0" stroke-linecap="round" stroke-linejoin="round" />
<path d="M 123.0 128.0 L 123.0 128.0 L 123.0 128.0 L 123.0 128.0 L 126.0 128.0 L 133.0 128.0 L 146.0 127.0 L 158.0 125.0 L 167.0 124.0 L 169.0 124.0 " stroke="black" fill="none" stroke-width="5.0" stroke-linecap="round" stroke-linejoin="round" />
<path d="M 127.0 136.0 L 127.0 136.0 L 127.0 136.0 L 127.0 136.0 L 127.0 140.0 L 126.0 152.0 L 122.0 170.0 L 116.0 188.0 L 113.0 195.0 L 113.0 196.0 " stroke="black" fill="none" stroke-width="5.0" stroke-linecap="round" stroke-linejoin="round" />
<path d="M 146.0 139.0 L 146.0 139.0 L 146.0 139.0 L 146.0 139.0 L 146.0 139.0 L 146.0 140.0 L 146.0 144.0 L 147.0 150.0 L 149.0 156.0 L 152.0 159.0 L 155.0 159.0 L 159.0 157.0 L 161.0 155.0 " stroke="black" fill="none" stroke-width="5.0" stroke-linecap="round" stroke-linejoin="round" />
<path d="M 162.0 136.0 L 162.0 136.0 L 162.0 136.0 L 162.0 137.0 L 162.0 141.0 L 163.0 148.0 L 163.0 152.0 " stroke="black" fill="none" stroke-width="5.0" stroke-linecap="round" stroke-linejoin="round" />
<path d="M 137.0 150.0 L 137.0 150.0 L 137.0 150.0 L 139.0 150.0 L 146.0 149.0 L 159.0 146.0 L 170.0 143.0 L 176.0 143.0 L 176.0 144.0 " stroke="black" fill="none" stroke-width="5.0" stroke-linecap="round" stroke-linejoin="round" />
<path d="M 145.0 173.0 L 145.0 173.0 L 145.0 173.0 L 145.0 174.0 L 147.0 174.0 L 152.0 174.0 L 158.0 174.0 L 163.0 173.0 L 166.0 173.0 L 166.0 175.0 L 164.0 180.0 L 159.0 187.0 L 153.0 194.0 L 146.0 203.0 L 140.0 208.0 " stroke="black" fill="none" stroke-width="5.0" stroke-linecap="round" stroke-linejoin="round" />
<path d="M 139.0 183.0 L 139.0 183.0 L 139.0 183.0 L 141.0 186.0 L 149.0 192.0 L 162.0 201.0 L 175.0 207.0 L 180.0 209.0 " stroke="black" fill="none" stroke-width="5.0" stroke-linecap="round" stroke-linejoin="round" />
</svg>