<svg xmlns="http://www.w3.org/2000/svg" width="300" height="300" viewBox="0 0 300 300">
<path d="M 141.0 109.0 L 141.0 109.0 L 141.0 108.0 L 141.0 107.0 L 141.0 107.0 L 142.0 108.0 L 144.0 112.0 L 147.0 115.0 " stroke="black" fill="none" stroke-width="5.0" stroke-linecap="round" stroke-linejoin="round" />
<path d="M 127.0 126.0 L 127.0 126.0 L 127.0 126.0 L 128.0 126.0 L 133.0 126.0 L 144.0 126.0 L 156.0 125.0 L 164.0 125.0 L 168.0 125.0 " stroke="black" fill="none" stroke-width="5.0" stroke-linecap="round" stroke-linejoin="round" />
<path d="M 133.0 144.0 L 133.0 144.0 L 133.0 144.0 L 135.0 144.0 L 141.0 144.0 L 149.0 143.0 L 157.0 142.0 L 161.0 141.0 L 161.0 141.0 " stroke="black" fill="none" stroke-width="5.0" stroke-linecap="round" stroke-linejoin="round" />
<path d="M 134.0 160.0 L 134.0 160.0 L 134.0 161.0 L 136.0 162.0 L 142.0 161.0 L 150.0 159.0 L 157.0 158.0 L 160.0 158.0 " stroke="black" fill="none" stroke-width="5.0" stroke-linecap="round" stroke-linejoin="round" />
<path d="M 126.0 181.0 L 126.0 181.0 L 126.0 181.0 L 125.0 181.0 L 125.0 181.0 L 125.0 183.0 L 125.0 189.0 L 126.0 195.0 L 127.0 199.0 " stroke="black" fill="none" stroke-width="5.0" stroke-linecap="round" stroke-linejoin="round" />
<path d="M 125.0 183.0 L 125.0 183.0 L 125.0 183.0 L 125.0 182.0 L 126.0 182.0 L 131.0 181.0 L 139.0 180.0 L 150.0 178.0 L 160.0 177.0 L 167.0 176.0 L 172.0 177.0 L 175.0 180.0 L 176.0 184.0 L 176.0 188.0 L 177.0 193.0 L 177.0 197.0 L 177.0 200.0 " stroke="black" fill="none" stroke-width="5.0" stroke-linecap="round" stroke-linejoin="round" />
<path d="M 128.0 205.0 L 128.0 206.0 L 127.0 206.0 L 128.0 206.0 L 137.0 207.0 L 150.0 207.0 L 163.0 207.0 L 172.0 206.0 L 174.0 206.0 " stroke="black" fill="none" stroke-width="5.0" stroke-linecap="round" stroke-linejoin="round" />
</svg>