<svg xmlns="http://www.w3.org/2000/svg" width="300" height="300" viewBox="0 0 300 300">
<path d="M 140.0 106.0 L 140.0 106.0 L 140.0 106.0 L 140.0 106.0 L 140.0 108.0 L 143.0 112.0 L 148.0 116.0 L 151.0 119.0 " stroke="black" fill="none" stroke-width="5.0" stroke-linecap="round" stroke-linejoin="round" />
<path d="M 125.0 126.0 L 125.0 126.0 L 125.0 127.0 L 126.0 127.0 L 130.0 127.0 L 141.0 127.0 L 154.0 127.0 L 165.0 126.0 L 171.0 126.0 L 173.0 126.0 " stroke="black" fill="none" stroke-width="5.0" stroke-linecap="round" stroke-linejoin="round" />
<path d="M 136.0 148.0 L 136.0 148.0 L 136.0 148.0 L 136.0 148.0 L 137.0 148.0 L 142.0 148.0 L 149.0 148.0 L 157.0 148.0 L 161.0 148.0 L 162.0 149.0 " stroke="black" fill="none" stroke-width="5.0" stroke-linecap="round" stroke-linejoin="round" />
<path d="M 134.0 165.0 L 134.0 165.0 L 135.0 165.0 L 138.0 166.0 L 143.0 166.0 L 151.0 165.0 L 158.0 165.0 L 160.0 165.0 " stroke="black" fill="none" stroke-width="5.0" stroke-linecap="round" stroke-linejoin="round" />
<path d="M 123.0 184.0 L 123.0 184.0 L 123.0 184.0 L 123.0 184.0 L 124.0 187.0 L 125.0 194.0 L 126.0 201.0 L 127.0 203.0 " stroke="black" fill="none" stroke-width="5.0" stroke-linecap="round" stroke-linejoin="round" />
<path d="M 124.0 183.0 L 125.0 183.0 L 126.0 183.0 L 130.0 183.0 L 138.0 182.0 L 149.0 182.0 L 159.0 182.0 L 167.0 183.0 L 171.0 185.0 L 173.0 188.0 L 174.0 193.0 L 175.0 200.0 L 175.0 206.0 L 176.0 210.0 L 176.0 210.0 " stroke="black" fill="none" stroke-width="5.0" stroke-linecap="round" stroke-linejoin="round" />
<path d="M 134.0 211.0 L 134.0 211.0 L 135.0 211.0 L 137.0 211.0 L 144.0 211.0 L 157.0 211.0 L 170.0 210.0 L 177.0 209.0 " stroke="black" fill="none" stroke-width="5.0" stroke-linecap="round" stroke-linejoin="round" />
</svg>