<svg xmlns="http://www.w3.org/2000/svg" width="300" height="300" viewBox="0 0 300 300">
<path d="M 116.0 121.0 L 116.0 121.0 L 116.0 121.0 L 117.0 121.0 L 119.0 122.0 L 123.0 126.0 L 128.0 129.0 " stroke="black" fill="none" stroke-width="5.0" stroke-linecap="round" stroke-linejoin="round" />
<path d="M 112.0 149.0 L 112.0 149.0 L 113.0 150.0 L 114.0 150.0 L 118.0 150.0 L 122.0 150.0 " stroke="black" fill="none" stroke-width="5.0" stroke-linecap="round" stroke-linejoin="round" />
<path d="M 104.0 183.0 L 104.0 183.0 L 104.0 183.0 L 106.0 183.0 L 112.0 180.0 L 122.0 175.0 " stroke="black" fill="none" stroke-width="5.0" stroke-linecap="round" stroke-linejoin="round" />
<path d="M 147.0 116.0 L 147.0 116.0 L 147.0 116.0 L 147.0 116.0 L 147.0 117.0 L 148.0 120.0 L 150.0 123.0 L 151.0 125.0 " stroke="black" fill="none" stroke-width="5.0" stroke-linecap="round" stroke-linejoin="round" />
<path d="M 137.0 139.0 L 137.0 139.0 L 137.0 139.0 L 137.0 140.0 L 143.0 140.0 L 151.0 139.0 L 159.0 137.0 L 162.0 137.0 L 163.0 137.0 " stroke="black" fill="none" stroke-width="5.0" stroke-linecap="round" stroke-linejoin="round" />
<path d="M 147.0 142.0 L 147.0 142.0 L 147.0 142.0 L 146.0 142.0 L 146.0 143.0 L 145.0 150.0 L 144.0 164.0 L 141.0 179.0 L 138.0 188.0 L 137.0 190.0 " stroke="black" fill="none" stroke-width="5.0" stroke-linecap="round" stroke-linejoin="round" />
<path d="M 149.0 157.0 L 149.0 157.0 L 150.0 157.0 L 151.0 157.0 L 153.0 157.0 L 156.0 157.0 L 158.0 157.0 L 161.0 158.0 L 164.0 163.0 L 168.0 172.0 L 171.0 181.0 L 172.0 188.0 L 172.0 191.0 L 170.0 192.0 L 165.0 192.0 L 157.0 189.0 L 155.0 188.0 " stroke="black" fill="none" stroke-width="5.0" stroke-linecap="round" stroke-linejoin="round" />
<path d="M 176.0 122.0 L 176.0 122.0 L 175.0 123.0 L 175.0 125.0 L 173.0 131.0 L 171.0 141.0 L 167.0 152.0 L 166.0 155.0 " stroke="black" fill="none" stroke-width="5.0" stroke-linecap="round" stroke-linejoin="round" />
<path d="M 176.0 135.0 L 178.0 135.0 L 181.0 135.0 L 185.0 135.0 L 191.0 135.0 L 196.0 135.0 L 199.0 135.0 " stroke="black" fill="none" stroke-width="5.0" stroke-linecap="round" stroke-linejoin="round" />
<path d="M 181.0 152.0 L 182.0 152.0 L 183.0 153.0 L 186.0 154.0 L 189.0 154.0 L 191.0 154.0 L 193.0 155.0 L 194.0 156.0 L 193.0 158.0 L 191.0 162.0 L 189.0 165.0 L 190.0 171.0 L 193.0 177.0 L 200.0 188.0 L 202.0 192.0 L 202.0 194.0 L 202.0 196.0 L 199.0 199.0 L 194.0 201.0 L 191.0 201.0 " stroke="black" fill="none" stroke-width="5.0" stroke-linecap="round" stroke-linejoin="round" />
<path d="M 178.0 181.0 L 179.0 181.0 L 181.0 181.0 L 187.0 180.0 L 198.0 177.0 L 210.0 174.0 L 217.0 174.0 L 218.0 174.0 " stroke="black" fill="none" stroke-width="5.0" stroke-linecap="round" stroke-linejoin="round" />
</svg>