<svg xmlns="http://www.w3.org/2000/svg" width="300" height="300" viewBox="0 0 300 300">
<path d="M 113.0 120.0 L 113.0 120.0 L 113.0 120.0 L 113.0 120.0 L 114.0 122.0 L 117.0 124.0 L 122.0 128.0 L 126.0 131.0 " stroke="black" fill="none" stroke-width="5.0" stroke-linecap="round" stroke-linejoin="round" />
<path d="M 108.0 156.0 L 108.0 156.0 L 108.0 156.0 L 108.0 156.0 L 110.0 156.0 L 115.0 155.0 L 121.0 154.0 L 122.0 154.0 " stroke="black" fill="none" stroke-width="5.0" stroke-linecap="round" stroke-linejoin="round" />
<path d="M 100.0 185.0 L 101.0 185.0 L 102.0 185.0 L 107.0 184.0 L 115.0 180.0 L 121.0 177.0 " stroke="black" fill="none" stroke-width="5.0" stroke-linecap="round" stroke-linejoin="round" />
<path d="M 140.0 141.0 L 140.0 141.0 L 140.0 141.0 L 140.0 141.0 L 141.0 140.0 L 145.0 140.0 L 149.0 139.0 L 152.0 139.0 " stroke="black" fill="none" stroke-width="5.0" stroke-linecap="round" stroke-linejoin="round" />
<path d="M 147.0 145.0 L 147.0 145.0 L 147.0 145.0 L 147.0 145.0 L 147.0 147.0 L 147.0 152.0 L 147.0 160.0 L 147.0 165.0 " stroke="black" fill="none" stroke-width="5.0" stroke-linecap="round" stroke-linejoin="round" />
<path d="M 134.0 173.0 L 134.0 174.0 L 135.0 175.0 L 138.0 176.0 L 145.0 176.0 L 154.0 173.0 L 158.0 172.0 " stroke="black" fill="none" stroke-width="5.0" stroke-linecap="round" stroke-linejoin="round" />
<path d="M 177.0 110.0 L 177.0 110.0 L 177.0 110.0 L 177.0 110.0 L 177.0 110.0 L 176.0 111.0 L 174.0 115.0 L 172.0 119.0 L 171.0 122.0 L 171.0 124.0 L 174.0 125.0 L 177.0 125.0 L 182.0 124.0 L 186.0 124.0 L 189.0 123.0 L 192.0 122.0 L 193.0 122.0 L 193.0 123.0 L 194.0 126.0 L 194.0 131.0 L 195.0 136.0 L 195.0 140.0 L 195.0 141.0 " stroke="black" fill="none" stroke-width="5.0" stroke-linecap="round" stroke-linejoin="round" />
<path d="M 171.0 134.0 L 171.0 134.0 L 171.0 134.0 L 171.0 134.0 L 172.0 134.0 L 176.0 134.0 L 183.0 134.0 L 189.0 134.0 L 192.0 134.0 L 192.0 134.0 " stroke="black" fill="none" stroke-width="5.0" stroke-linecap="round" stroke-linejoin="round" />
<path d="M 168.0 147.0 L 168.0 147.0 L 169.0 146.0 L 171.0 146.0 L 175.0 146.0 L 181.0 145.0 L 189.0 145.0 L 193.0 144.0 L 194.0 144.0 " stroke="black" fill="none" stroke-width="5.0" stroke-linecap="round" stroke-linejoin="round" />
<path d="M 174.0 129.0 L 174.0 129.0 L 174.0 129.0 L 174.0 129.0 L 174.0 131.0 L 174.0 139.0 L 174.0 152.0 L 174.0 163.0 L 175.0 170.0 L 175.0 173.0 L 176.0 173.0 L 178.0 173.0 L 181.0 173.0 L 187.0 173.0 L 193.0 173.0 L 198.0 173.0 L 201.0 173.0 L 204.0 173.0 L 205.0 174.0 L 206.0 175.0 L 207.0 177.0 L 208.0 182.0 L 210.0 188.0 L 211.0 192.0 L 211.0 195.0 L 211.0 196.0 L 211.0 196.0 L 206.0 196.0 L 202.0 195.0 " stroke="black" fill="none" stroke-width="5.0" stroke-linecap="round" stroke-linejoin="round" />
<path d="M 177.0 157.0 L 177.0 157.0 L 177.0 157.0 L 179.0 157.0 L 182.0 157.0 L 188.0 157.0 L 193.0 157.0 " stroke="black" fill="none" stroke-width="5.0" stroke-linecap="round" stroke-linejoin="round" />
<path d="M 163.0 183.0 L 163.0 183.0 L 163.0 183.0 L 163.0 183.0 L 163.0 183.0 L 163.0 187.0 L 163.0 190.0 L 163.0 192.0 " stroke="black" fill="none" stroke-width="5.0" stroke-linecap="round" stroke-linejoin="round" />
<path d="M 173.0 184.0 L 174.0 183.0 L 174.0 183.0 L 175.0 183.0 L 175.0 184.0 L 176.0 187.0 L 176.0 190.0 L 176.0 191.0 " stroke="black" fill="none" stroke-width="5.0" stroke-linecap="round" stroke-linejoin="round" />
<path d="M 184.0 185.0 L 184.0 185.0 L 184.0 185.0 L 184.0 185.0 L 184.0 185.0 L 185.0 185.0 L 185.0 188.0 " stroke="black" fill="none" stroke-width="5.0" stroke-linecap="round" stroke-linejoin="round" />
<path d="M 198.0 183.0 L 198.0 185.0 L 198.0 187.0 L 199.0 190.0 L 199.0 191.0 " stroke="black" fill="none" stroke-width="5.0" stroke-linecap="round" stroke-linejoin="round" />
</svg>