<svg xmlns="http://www.w3.org/2000/svg" width="300" height="300" viewBox="0 0 300 300">
<path d="M 115.0 116.0 L 116.0 117.0 L 118.0 118.0 L 121.0 119.0 L 124.0 121.0 L 128.0 122.0 L 129.0 123.0 " stroke="black" fill="none" stroke-width="5.0" stroke-linecap="round" stroke-linejoin="round" />
<path d="M 109.0 144.0 L 109.0 144.0 L 109.0 144.0 L 109.0 144.0 L 110.0 144.0 L 116.0 144.0 L 123.0 144.0 " stroke="black" fill="none" stroke-width="5.0" stroke-linecap="round" stroke-linejoin="round" />
<path d="M 98.0 180.0 L 98.0 180.0 L 98.0 180.0 L 98.0 181.0 L 100.0 181.0 L 109.0 177.0 L 121.0 172.0 L 128.0 168.0 " stroke="black" fill="none" stroke-width="5.0" stroke-linecap="round" stroke-linejoin="round" />
<path d="M 139.0 115.0 L 139.0 115.0 L 139.0 114.0 L 139.0 114.0 L 139.0 113.0 L 142.0 113.0 L 146.0 112.0 L 150.0 112.0 L 152.0 111.0 " stroke="black" fill="none" stroke-width="5.0" stroke-linecap="round" stroke-linejoin="round" />
<path d="M 139.0 120.0 L 139.0 120.0 L 139.0 120.0 L 139.0 120.0 L 138.0 120.0 L 137.0 120.0 L 135.0 124.0 L 133.0 128.0 L 133.0 132.0 L 135.0 133.0 L 141.0 133.0 L 148.0 133.0 L 153.0 132.0 L 155.0 131.0 " stroke="black" fill="none" stroke-width="5.0" stroke-linecap="round" stroke-linejoin="round" />
<path d="M 146.0 119.0 L 146.0 119.0 L 145.0 119.0 L 145.0 120.0 L 145.0 122.0 L 143.0 128.0 L 139.0 138.0 L 134.0 147.0 L 132.0 150.0 " stroke="black" fill="none" stroke-width="5.0" stroke-linecap="round" stroke-linejoin="round" />
<path d="M 145.0 135.0 L 145.0 135.0 L 145.0 134.0 L 144.0 134.0 L 144.0 136.0 L 145.0 141.0 L 147.0 146.0 L 150.0 149.0 L 154.0 149.0 L 158.0 148.0 L 160.0 144.0 L 161.0 141.0 L 161.0 139.0 " stroke="black" fill="none" stroke-width="5.0" stroke-linecap="round" stroke-linejoin="round" />
<path d="M 164.0 117.0 L 165.0 117.0 L 167.0 117.0 L 170.0 117.0 L 174.0 117.0 L 178.0 117.0 L 182.0 117.0 L 182.0 117.0 " stroke="black" fill="none" stroke-width="5.0" stroke-linecap="round" stroke-linejoin="round" />
<path d="M 167.0 119.0 L 167.0 119.0 L 166.0 120.0 L 165.0 120.0 L 164.0 121.0 L 163.0 123.0 L 162.0 127.0 L 161.0 130.0 L 163.0 132.0 L 170.0 132.0 L 177.0 131.0 L 183.0 131.0 L 186.0 131.0 " stroke="black" fill="none" stroke-width="5.0" stroke-linecap="round" stroke-linejoin="round" />
<path d="M 174.0 120.0 L 174.0 120.0 L 173.0 120.0 L 173.0 120.0 L 172.0 123.0 L 170.0 129.0 L 167.0 138.0 L 163.0 144.0 L 163.0 146.0 " stroke="black" fill="none" stroke-width="5.0" stroke-linecap="round" stroke-linejoin="round" />
<path d="M 176.0 128.0 L 176.0 128.0 L 176.0 130.0 L 175.0 133.0 L 174.0 138.0 L 176.0 144.0 L 180.0 148.0 L 185.0 149.0 L 190.0 147.0 " stroke="black" fill="none" stroke-width="5.0" stroke-linecap="round" stroke-linejoin="round" />
<path d="M 146.0 157.0 L 146.0 157.0 L 146.0 158.0 L 146.0 159.0 L 147.0 159.0 L 152.0 159.0 L 159.0 159.0 L 166.0 159.0 L 171.0 159.0 L 173.0 159.0 L 173.0 161.0 L 174.0 164.0 L 175.0 170.0 L 176.0 176.0 L 177.0 182.0 L 177.0 185.0 " stroke="black" fill="none" stroke-width="5.0" stroke-linecap="round" stroke-linejoin="round" />
<path d="M 147.0 156.0 L 146.0 158.0 L 145.0 160.0 L 144.0 166.0 L 144.0 175.0 L 144.0 182.0 L 144.0 185.0 " stroke="black" fill="none" stroke-width="5.0" stroke-linecap="round" stroke-linejoin="round" />
<path d="M 148.0 170.0 L 148.0 170.0 L 150.0 171.0 L 152.0 171.0 L 156.0 172.0 L 163.0 172.0 L 169.0 172.0 L 170.0 173.0 " stroke="black" fill="none" stroke-width="5.0" stroke-linecap="round" stroke-linejoin="round" />
<path d="M 146.0 189.0 L 146.0 190.0 L 147.0 191.0 L 151.0 191.0 L 160.0 192.0 L 171.0 192.0 L 173.0 192.0 " stroke="black" fill="none" stroke-width="5.0" stroke-linecap="round" stroke-linejoin="round" />
</svg>