<svg xmlns="http://www.w3.org/2000/svg" width="300" height="300" viewBox="0 0 300 300">
<path d="M 115.0 117.0 L 116.0 118.0 L 117.0 120.0 L 120.0 121.0 L 124.0 122.0 L 124.0 122.0 " stroke="black" fill="none" stroke-width="5.0" stroke-linecap="round" stroke-linejoin="round" />
<path d="M 108.0 146.0 L 108.0 146.0 L 109.0 146.0 L 112.0 146.0 L 117.0 145.0 L 120.0 145.0 " stroke="black" fill="none" stroke-width="5.0" stroke-linecap="round" stroke-linejoin="round" />
<path d="M 104.0 180.0 L 105.0 180.0 L 106.0 180.0 L 109.0 178.0 L 117.0 174.0 " stroke="black" fill="none" stroke-width="5.0" stroke-linecap="round" stroke-linejoin="round" />
<path d="M 139.0 112.0 L 139.0 112.0 L 139.0 112.0 L 139.0 112.0 L 141.0 112.0 L 146.0 111.0 L 153.0 109.0 L 157.0 109.0 L 158.0 109.0 " stroke="black" fill="none" stroke-width="5.0" stroke-linecap="round" stroke-linejoin="round" />
<path d="M 141.0 117.0 L 141.0 117.0 L 141.0 117.0 L 141.0 117.0 L 140.0 118.0 L 139.0 121.0 L 136.0 127.0 L 134.0 133.0 L 136.0 138.0 L 144.0 139.0 L 155.0 138.0 L 162.0 135.0 L 163.0 134.0 " stroke="black" fill="none" stroke-width="5.0" stroke-linecap="round" stroke-linejoin="round" />
<path d="M 148.0 116.0 L 148.0 116.0 L 148.0 116.0 L 148.0 116.0 L 148.0 120.0 L 146.0 130.0 L 140.0 143.0 L 134.0 154.0 L 133.0 155.0 " stroke="black" fill="none" stroke-width="5.0" stroke-linecap="round" stroke-linejoin="round" />
<path d="M 149.0 138.0 L 149.0 138.0 L 148.0 139.0 L 148.0 140.0 L 148.0 141.0 L 148.0 144.0 L 150.0 148.0 L 155.0 151.0 L 160.0 152.0 L 166.0 151.0 L 169.0 149.0 L 170.0 146.0 L 169.0 142.0 L 168.0 141.0 " stroke="black" fill="none" stroke-width="5.0" stroke-linecap="round" stroke-linejoin="round" />
<path d="M 176.0 112.0 L 176.0 112.0 L 176.0 112.0 L 178.0 112.0 L 183.0 112.0 L 189.0 111.0 L 192.0 111.0 " stroke="black" fill="none" stroke-width="5.0" stroke-linecap="round" stroke-linejoin="round" />
<path d="M 179.0 115.0 L 179.0 115.0 L 179.0 115.0 L 179.0 115.0 L 178.0 115.0 L 177.0 117.0 L 175.0 122.0 L 174.0 128.0 L 174.0 132.0 L 178.0 135.0 L 186.0 135.0 L 193.0 135.0 L 198.0 135.0 L 198.0 135.0 " stroke="black" fill="none" stroke-width="5.0" stroke-linecap="round" stroke-linejoin="round" />
<path d="M 187.0 118.0 L 187.0 118.0 L 185.0 119.0 L 185.0 119.0 L 184.0 121.0 L 182.0 126.0 L 180.0 134.0 L 178.0 141.0 L 177.0 145.0 " stroke="black" fill="none" stroke-width="5.0" stroke-linecap="round" stroke-linejoin="round" />
<path d="M 187.0 130.0 L 187.0 130.0 L 187.0 130.0 L 187.0 131.0 L 187.0 132.0 L 189.0 136.0 L 192.0 142.0 L 197.0 145.0 L 201.0 146.0 " stroke="black" fill="none" stroke-width="5.0" stroke-linecap="round" stroke-linejoin="round" />
<path d="M 154.0 161.0 L 154.0 161.0 L 154.0 161.0 L 154.0 161.0 L 156.0 161.0 L 160.0 161.0 L 170.0 161.0 L 180.0 160.0 L 186.0 159.0 L 189.0 159.0 L 190.0 160.0 L 191.0 164.0 L 192.0 170.0 L 194.0 176.0 L 195.0 182.0 L 195.0 185.0 " stroke="black" fill="none" stroke-width="5.0" stroke-linecap="round" stroke-linejoin="round" />
<path d="M 155.0 164.0 L 155.0 165.0 L 154.0 167.0 L 153.0 172.0 L 153.0 179.0 L 153.0 186.0 L 153.0 189.0 " stroke="black" fill="none" stroke-width="5.0" stroke-linecap="round" stroke-linejoin="round" />
<path d="M 156.0 175.0 L 157.0 175.0 L 157.0 175.0 L 158.0 175.0 L 165.0 175.0 L 175.0 175.0 L 184.0 175.0 L 188.0 175.0 L 188.0 176.0 " stroke="black" fill="none" stroke-width="5.0" stroke-linecap="round" stroke-linejoin="round" />
<path d="M 154.0 194.0 L 154.0 194.0 L 155.0 194.0 L 158.0 195.0 L 167.0 195.0 L 181.0 195.0 L 191.0 194.0 " stroke="black" fill="none" stroke-width="5.0" stroke-linecap="round" stroke-linejoin="round" />
</svg>