<svg xmlns="http://www.w3.org/2000/svg" width="300" height="300" viewBox="0 0 300 300">
<path d="M 135.0 103.0 L 135.0 103.0 L 134.0 103.0 L 134.0 104.0 L 134.0 108.0 L 134.0 119.0 L 135.0 138.0 L 135.0 155.0 L 135.0 164.0 L 135.0 166.0 " stroke="black" fill="none" stroke-width="5.0" stroke-linecap="round" stroke-linejoin="round" />
<path d="M 156.0 105.0 L 156.0 105.0 L 156.0 105.0 L 156.0 105.0 L 156.0 108.0 L 157.0 119.0 L 159.0 137.0 L 160.0 156.0 L 161.0 167.0 L 161.0 170.0 L 161.0 170.0 " stroke="black" fill="none" stroke-width="5.0" stroke-linecap="round" stroke-linejoin="round" />
<path d="M 117.0 126.0 L 117.0 126.0 L 117.0 126.0 L 119.0 126.0 L 128.0 126.0 L 145.0 126.0 L 159.0 128.0 L 169.0 129.0 L 173.0 129.0 L 172.0 129.0 L 171.0 129.0 " stroke="black" fill="none" stroke-width="5.0" stroke-linecap="round" stroke-linejoin="round" />
<path d="M 139.0 145.0 L 139.0 145.0 L 139.0 145.0 L 139.0 145.0 L 142.0 145.0 L 146.0 145.0 L 152.0 145.0 L 158.0 145.0 L 160.0 145.0 " stroke="black" fill="none" stroke-width="5.0" stroke-linecap="round" stroke-linejoin="round" />
<path d="M 140.0 159.0 L 141.0 159.0 L 142.0 159.0 L 147.0 160.0 L 150.0 160.0 L 153.0 160.0 L 156.0 160.0 L 156.0 161.0 " stroke="black" fill="none" stroke-width="5.0" stroke-linecap="round" stroke-linejoin="round" />
<path d="M 119.0 175.0 L 121.0 175.0 L 125.0 175.0 L 131.0 175.0 L 142.0 175.0 L 158.0 175.0 L 165.0 175.0 L 171.0 175.0 L 174.0 175.0 L 174.0 175.0 " stroke="black" fill="none" stroke-width="5.0" stroke-linecap="round" stroke-linejoin="round" />
<path d="M 142.0 184.0 L 142.0 184.0 L 142.0 184.0 L 141.0 184.0 L 140.0 186.0 L 139.0 190.0 L 135.0 199.0 " stroke="black" fill="none" stroke-width="5.0" stroke-linecap="round" stroke-linejoin="round" />
<path d="M 159.0 188.0 L 161.0 187.0 L 164.0 187.0 L 167.0 189.0 L 172.0 196.0 L 176.0 202.0 L 177.0 206.0 " stroke="black" fill="none" stroke-width="5.0" stroke-linecap="round" stroke-linejoin="round" />
</svg>