<svg xmlns="http://www.w3.org/2000/svg" width="300" height="300" viewBox="0 0 300 300">
<path d="M 140.0 101.0 L 140.0 101.0 L 140.0 101.0 L 140.0 101.0 L 140.0 103.0 L 140.0 116.0 L 140.0 141.0 L 141.0 160.0 L 141.0 168.0 L 143.0 168.0 " stroke="black" fill="none" stroke-width="5.0" stroke-linecap="round" stroke-linejoin="round" />
<path d="M 157.0 105.0 L 157.0 107.0 L 157.0 111.0 L 158.0 121.0 L 160.0 139.0 L 163.0 156.0 L 164.0 167.0 L 164.0 170.0 " stroke="black" fill="none" stroke-width="5.0" stroke-linecap="round" stroke-linejoin="round" />
<path d="M 121.0 120.0 L 121.0 120.0 L 122.0 120.0 L 127.0 120.0 L 139.0 120.0 L 154.0 121.0 L 164.0 121.0 L 169.0 122.0 L 169.0 122.0 " stroke="black" fill="none" stroke-width="5.0" stroke-linecap="round" stroke-linejoin="round" />
<path d="M 138.0 140.0 L 138.0 140.0 L 139.0 140.0 L 143.0 140.0 L 149.0 140.0 L 157.0 140.0 L 161.0 139.0 L 161.0 140.0 " stroke="black" fill="none" stroke-width="5.0" stroke-linecap="round" stroke-linejoin="round" />
<path d="M 146.0 155.0 L 148.0 155.0 L 150.0 155.0 L 154.0 155.0 L 158.0 155.0 L 160.0 155.0 " stroke="black" fill="none" stroke-width="5.0" stroke-linecap="round" stroke-linejoin="round" />
<path d="M 115.0 176.0 L 116.0 176.0 L 117.0 176.0 L 125.0 177.0 L 143.0 177.0 L 160.0 177.0 L 173.0 175.0 L 180.0 174.0 L 180.0 174.0 " stroke="black" fill="none" stroke-width="5.0" stroke-linecap="round" stroke-linejoin="round" />
<path d="M 140.0 186.0 L 140.0 186.0 L 140.0 186.0 L 135.0 196.0 L 131.0 204.0 L 130.0 206.0 " stroke="black" fill="none" stroke-width="5.0" stroke-linecap="round" stroke-linejoin="round" />
<path d="M 169.0 190.0 L 170.0 191.0 L 172.0 194.0 L 175.0 198.0 L 178.0 202.0 " stroke="black" fill="none" stroke-width="5.0" stroke-linecap="round" stroke-linejoin="round" />
</svg>