<svg xmlns="http://www.w3.org/2000/svg" width="300" height="300" viewBox="0 0 300 300">
<path d="M 133.0 103.0 L 133.0 103.0 L 133.0 103.0 L 132.0 103.0 L 132.0 105.0 L 132.0 113.0 L 132.0 127.0 L 132.0 144.0 L 132.0 157.0 L 132.0 164.0 L 132.0 167.0 L 132.0 167.0 " stroke="black" fill="none" stroke-width="5.0" stroke-linecap="round" stroke-linejoin="round" />
<path d="M 154.0 106.0 L 154.0 106.0 L 154.0 106.0 L 154.0 106.0 L 154.0 109.0 L 155.0 117.0 L 157.0 134.0 L 159.0 152.0 L 160.0 167.0 L 160.0 173.0 L 160.0 173.0 " stroke="black" fill="none" stroke-width="5.0" stroke-linecap="round" stroke-linejoin="round" />
<path d="M 118.0 121.0 L 118.0 121.0 L 119.0 121.0 L 121.0 121.0 L 130.0 121.0 L 144.0 122.0 L 158.0 122.0 L 168.0 122.0 L 173.0 122.0 L 173.0 122.0 " stroke="black" fill="none" stroke-width="5.0" stroke-linecap="round" stroke-linejoin="round" />
<path d="M 135.0 140.0 L 135.0 140.0 L 135.0 140.0 L 137.0 140.0 L 141.0 140.0 L 148.0 140.0 L 153.0 140.0 L 154.0 140.0 " stroke="black" fill="none" stroke-width="5.0" stroke-linecap="round" stroke-linejoin="round" />
<path d="M 135.0 153.0 L 136.0 153.0 L 138.0 154.0 L 142.0 154.0 L 148.0 155.0 L 153.0 155.0 " stroke="black" fill="none" stroke-width="5.0" stroke-linecap="round" stroke-linejoin="round" />
<path d="M 109.0 172.0 L 109.0 172.0 L 109.0 172.0 L 111.0 173.0 L 119.0 174.0 L 135.0 174.0 L 152.0 175.0 L 165.0 175.0 L 174.0 176.0 L 176.0 176.0 L 177.0 177.0 " stroke="black" fill="none" stroke-width="5.0" stroke-linecap="round" stroke-linejoin="round" />
<path d="M 134.0 188.0 L 134.0 188.0 L 134.0 189.0 L 134.0 191.0 L 132.0 197.0 L 130.0 203.0 " stroke="black" fill="none" stroke-width="5.0" stroke-linecap="round" stroke-linejoin="round" />
<path d="M 165.0 189.0 L 165.0 190.0 L 166.0 193.0 L 168.0 197.0 L 171.0 204.0 L 172.0 206.0 " stroke="black" fill="none" stroke-width="5.0" stroke-linecap="round" stroke-linejoin="round" />
</svg>