<svg xmlns="http://www.w3.org/2000/svg" width="300" height="300" viewBox="0 0 300 300">
<path d="M 137.0 109.0 L 137.0 109.0 L 136.0 109.0 L 136.0 109.0 L 135.0 109.0 L 135.0 110.0 L 135.0 115.0 L 136.0 127.0 L 136.0 146.0 L 136.0 163.0 L 135.0 172.0 L 135.0 174.0 L 135.0 174.0 " stroke="black" fill="none" stroke-width="5.0" stroke-linecap="round" stroke-linejoin="round" />
<path d="M 159.0 112.0 L 159.0 112.0 L 159.0 112.0 L 159.0 111.0 L 159.0 111.0 L 160.0 111.0 L 160.0 116.0 L 161.0 130.0 L 163.0 149.0 L 163.0 165.0 L 164.0 174.0 L 164.0 178.0 L 164.0 179.0 L 163.0 177.0 " stroke="black" fill="none" stroke-width="5.0" stroke-linecap="round" stroke-linejoin="round" />
<path d="M 122.0 131.0 L 122.0 131.0 L 122.0 131.0 L 122.0 131.0 L 127.0 131.0 L 137.0 130.0 L 149.0 130.0 L 159.0 130.0 L 166.0 131.0 L 168.0 131.0 L 169.0 131.0 L 167.0 131.0 L 165.0 131.0 " stroke="black" fill="none" stroke-width="5.0" stroke-linecap="round" stroke-linejoin="round" />
<path d="M 140.0 146.0 L 140.0 146.0 L 140.0 146.0 L 141.0 146.0 L 143.0 146.0 L 147.0 146.0 L 152.0 146.0 L 157.0 146.0 L 161.0 146.0 L 162.0 146.0 L 161.0 146.0 " stroke="black" fill="none" stroke-width="5.0" stroke-linecap="round" stroke-linejoin="round" />
<path d="M 141.0 157.0 L 141.0 157.0 L 142.0 157.0 L 145.0 157.0 L 148.0 157.0 L 153.0 157.0 L 158.0 158.0 L 160.0 158.0 L 160.0 158.0 " stroke="black" fill="none" stroke-width="5.0" stroke-linecap="round" stroke-linejoin="round" />
<path d="M 113.0 176.0 L 114.0 176.0 L 116.0 176.0 L 119.0 176.0 L 128.0 176.0 L 143.0 176.0 L 158.0 176.0 L 169.0 178.0 L 178.0 180.0 L 182.0 182.0 L 182.0 182.0 L 182.0 182.0 L 181.0 182.0 " stroke="black" fill="none" stroke-width="5.0" stroke-linecap="round" stroke-linejoin="round" />
<path d="M 145.0 187.0 L 145.0 187.0 L 145.0 187.0 L 144.0 187.0 L 144.0 188.0 L 142.0 191.0 L 139.0 196.0 L 139.0 197.0 " stroke="black" fill="none" stroke-width="5.0" stroke-linecap="round" stroke-linejoin="round" />
<path d="M 160.0 188.0 L 161.0 189.0 L 163.0 193.0 L 167.0 198.0 L 170.0 204.0 L 172.0 209.0 L 173.0 210.0 " stroke="black" fill="none" stroke-width="5.0" stroke-linecap="round" stroke-linejoin="round" />
</svg>