<svg xmlns="http://www.w3.org/2000/svg" width="300" height="300" viewBox="0 0 300 300">
<path d="M 115.0 129.0 L 115.0 129.0 L 115.0 129.0 L 115.0 130.0 L 116.0 132.0 L 116.0 134.0 " stroke="black" fill="none" stroke-width="5.0" stroke-linecap="round" stroke-linejoin="round" />
<path d="M 110.0 148.0 L 110.0 148.0 L 111.0 148.0 L 112.0 148.0 L 113.0 148.0 L 115.0 148.0 L 118.0 149.0 L 120.0 150.0 L 121.0 152.0 L 121.0 155.0 L 118.0 158.0 L 115.0 160.0 L 113.0 163.0 L 111.0 166.0 L 111.0 170.0 L 111.0 174.0 L 112.0 178.0 L 112.0 180.0 " stroke="black" fill="none" stroke-width="5.0" stroke-linecap="round" stroke-linejoin="round" />
<path d="M 100.0 188.0 L 100.0 187.0 L 99.0 187.0 L 99.0 186.0 L 100.0 185.0 L 104.0 184.0 L 110.0 183.0 L 116.0 182.0 L 122.0 182.0 L 130.0 185.0 L 138.0 188.0 L 149.0 191.0 L 162.0 193.0 L 175.0 194.0 L 185.0 194.0 L 189.0 194.0 " stroke="black" fill="none" stroke-width="5.0" stroke-linecap="round" stroke-linejoin="round" />
<path d="M 151.0 112.0 L 151.0 112.0 L 151.0 112.0 L 151.0 112.0 L 155.0 112.0 L 160.0 112.0 L 165.0 112.0 L 168.0 113.0 L 169.0 114.0 L 168.0 117.0 L 165.0 122.0 L 161.0 125.0 L 160.0 126.0 " stroke="black" fill="none" stroke-width="5.0" stroke-linecap="round" stroke-linejoin="round" />
<path d="M 152.0 121.0 L 152.0 121.0 L 152.0 121.0 L 152.0 121.0 L 153.0 122.0 L 155.0 124.0 L 159.0 126.0 L 160.0 128.0 " stroke="black" fill="none" stroke-width="5.0" stroke-linecap="round" stroke-linejoin="round" />
<path d="M 144.0 130.0 L 144.0 130.0 L 145.0 130.0 L 147.0 131.0 L 150.0 133.0 L 156.0 133.0 L 164.0 133.0 L 171.0 133.0 L 176.0 133.0 L 178.0 135.0 L 180.0 140.0 L 182.0 148.0 L 185.0 158.0 L 188.0 168.0 L 188.0 174.0 L 188.0 177.0 L 185.0 178.0 L 178.0 178.0 L 171.0 175.0 " stroke="black" fill="none" stroke-width="5.0" stroke-linecap="round" stroke-linejoin="round" />
<path d="M 145.0 132.0 L 144.0 132.0 L 144.0 132.0 L 142.0 137.0 L 141.0 148.0 L 139.0 164.0 L 138.0 172.0 L 138.0 172.0 " stroke="black" fill="none" stroke-width="5.0" stroke-linecap="round" stroke-linejoin="round" />
<path d="M 148.0 145.0 L 148.0 145.0 L 148.0 145.0 L 148.0 145.0 L 148.0 146.0 L 153.0 146.0 L 162.0 146.0 L 171.0 146.0 L 176.0 146.0 L 177.0 146.0 " stroke="black" fill="none" stroke-width="5.0" stroke-linecap="round" stroke-linejoin="round" />
<path d="M 146.0 159.0 L 146.0 159.0 L 147.0 160.0 L 150.0 161.0 L 158.0 161.0 L 169.0 161.0 L 176.0 161.0 L 176.0 161.0 " stroke="black" fill="none" stroke-width="5.0" stroke-linecap="round" stroke-linejoin="round" />
<path d="M 157.0 134.0 L 157.0 134.0 L 157.0 134.0 L 157.0 135.0 L 156.0 140.0 L 158.0 154.0 L 160.0 172.0 L 161.0 185.0 L 162.0 188.0 " stroke="black" fill="none" stroke-width="5.0" stroke-linecap="round" stroke-linejoin="round" />
</svg>