<svg xmlns="http://www.w3.org/2000/svg" width="300" height="300" viewBox="0 0 300 300">
<path d="M 124.0 128.0 L 124.0 129.0 L 124.0 129.0 L 125.0 129.0 L 127.0 130.0 L 132.0 130.0 L 145.0 130.0 L 161.0 128.0 L 172.0 127.0 L 175.0 127.0 " stroke="black" fill="none" stroke-width="5.0" stroke-linecap="round" stroke-linejoin="round" />
<path d="M 153.0 103.0 L 153.0 103.0 L 153.0 104.0 L 151.0 108.0 L 149.0 120.0 L 144.0 140.0 L 137.0 162.0 L 129.0 175.0 L 123.0 182.0 L 119.0 183.0 " stroke="black" fill="none" stroke-width="5.0" stroke-linecap="round" stroke-linejoin="round" />
<path d="M 148.0 140.0 L 148.0 140.0 L 149.0 141.0 L 150.0 144.0 L 156.0 153.0 L 166.0 166.0 L 176.0 176.0 L 184.0 182.0 L 189.0 184.0 L 189.0 184.0 " stroke="black" fill="none" stroke-width="5.0" stroke-linecap="round" stroke-linejoin="round" />
</svg>