<svg xmlns="http://www.w3.org/2000/svg" width="300" height="300" viewBox="0 0 300 300">
<path d="M 132.0 113.0 L 132.0 113.0 L 132.0 113.0 L 132.0 113.0 L 132.0 112.0 L 131.0 112.0 L 130.0 114.0 L 126.0 118.0 L 119.0 127.0 L 117.0 130.0 " stroke="black" fill="none" stroke-width="5.0" stroke-linecap="round" stroke-linejoin="round" />
<path d="M 110.0 151.0 L 110.0 151.0 L 110.0 151.0 L 110.0 151.0 L 112.0 151.0 L 120.0 150.0 L 132.0 148.0 L 140.0 147.0 " stroke="black" fill="none" stroke-width="5.0" stroke-linecap="round" stroke-linejoin="round" />
<path d="M 129.0 121.0 L 128.0 121.0 L 127.0 122.0 L 126.0 126.0 L 126.0 138.0 L 127.0 158.0 L 127.0 176.0 L 127.0 187.0 L 128.0 191.0 L 128.0 191.0 " stroke="black" fill="none" stroke-width="5.0" stroke-linecap="round" stroke-linejoin="round" />
<path d="M 127.0 152.0 L 127.0 152.0 L 127.0 152.0 L 127.0 152.0 L 127.0 152.0 L 126.0 155.0 L 121.0 161.0 L 113.0 170.0 L 106.0 178.0 L 105.0 179.0 " stroke="black" fill="none" stroke-width="5.0" stroke-linecap="round" stroke-linejoin="round" />
<path d="M 126.0 156.0 L 127.0 156.0 L 128.0 156.0 L 131.0 157.0 L 134.0 162.0 L 139.0 168.0 L 142.0 171.0 " stroke="black" fill="none" stroke-width="5.0" stroke-linecap="round" stroke-linejoin="round" />
<path d="M 157.0 118.0 L 157.0 119.0 L 157.0 119.0 L 156.0 120.0 L 155.0 123.0 L 153.0 128.0 L 150.0 134.0 L 149.0 136.0 " stroke="black" fill="none" stroke-width="5.0" stroke-linecap="round" stroke-linejoin="round" />
<path d="M 169.0 118.0 L 169.0 119.0 L 169.0 120.0 L 170.0 121.0 L 172.0 124.0 L 176.0 128.0 L 180.0 131.0 L 182.0 134.0 " stroke="black" fill="none" stroke-width="5.0" stroke-linecap="round" stroke-linejoin="round" />
<path d="M 154.0 140.0 L 154.0 140.0 L 154.0 140.0 L 154.0 140.0 L 154.0 141.0 L 154.0 144.0 L 154.0 149.0 L 154.0 153.0 L 154.0 154.0 " stroke="black" fill="none" stroke-width="5.0" stroke-linecap="round" stroke-linejoin="round" />
<path d="M 155.0 140.0 L 155.0 139.0 L 155.0 139.0 L 155.0 139.0 L 157.0 138.0 L 161.0 137.0 L 167.0 137.0 L 171.0 138.0 L 175.0 141.0 L 177.0 146.0 L 178.0 152.0 L 179.0 156.0 L 179.0 158.0 " stroke="black" fill="none" stroke-width="5.0" stroke-linecap="round" stroke-linejoin="round" />
<path d="M 154.0 160.0 L 154.0 160.0 L 154.0 160.0 L 155.0 160.0 L 159.0 160.0 L 166.0 160.0 L 173.0 160.0 L 177.0 161.0 " stroke="black" fill="none" stroke-width="5.0" stroke-linecap="round" stroke-linejoin="round" />
<path d="M 158.0 162.0 L 158.0 163.0 L 158.0 163.0 L 158.0 164.0 L 158.0 166.0 L 157.0 172.0 L 154.0 182.0 L 152.0 191.0 L 151.0 193.0 " stroke="black" fill="none" stroke-width="5.0" stroke-linecap="round" stroke-linejoin="round" />
<path d="M 166.0 164.0 L 166.0 165.0 L 166.0 166.0 L 165.0 170.0 L 165.0 177.0 L 167.0 185.0 L 169.0 191.0 L 174.0 195.0 L 182.0 197.0 L 189.0 197.0 L 194.0 196.0 L 196.0 194.0 L 197.0 191.0 L 197.0 187.0 L 197.0 179.0 " stroke="black" fill="none" stroke-width="5.0" stroke-linecap="round" stroke-linejoin="round" />
</svg>