<svg xmlns="http://www.w3.org/2000/svg" width="300" height="300" viewBox="0 0 300 300">
<path d="M 135.0 103.0 L 135.0 103.0 L 135.0 103.0 L 135.0 105.0 L 135.0 109.0 L 136.0 116.0 L 136.0 123.0 L 136.0 128.0 L 136.0 129.0 " stroke="black" fill="none" stroke-width="5.0" stroke-linecap="round" stroke-linejoin="round" />
<path d="M 117.0 118.0 L 118.0 118.0 L 119.0 118.0 L 122.0 118.0 L 131.0 118.0 L 143.0 116.0 L 156.0 114.0 L 166.0 113.0 L 174.0 113.0 L 177.0 113.0 L 178.0 113.0 L 178.0 114.0 " stroke="black" fill="none" stroke-width="5.0" stroke-linecap="round" stroke-linejoin="round" />
<path d="M 159.0 101.0 L 160.0 100.0 L 160.0 100.0 L 161.0 100.0 L 161.0 108.0 L 161.0 118.0 L 161.0 127.0 L 161.0 130.0 " stroke="black" fill="none" stroke-width="5.0" stroke-linecap="round" stroke-linejoin="round" />
<path d="M 135.0 139.0 L 137.0 139.0 L 138.0 139.0 L 140.0 138.0 L 144.0 138.0 L 149.0 137.0 L 154.0 137.0 L 157.0 137.0 L 158.0 137.0 " stroke="black" fill="none" stroke-width="5.0" stroke-linecap="round" stroke-linejoin="round" />
<path d="M 113.0 154.0 L 113.0 154.0 L 113.0 154.0 L 115.0 154.0 L 124.0 154.0 L 138.0 154.0 L 153.0 154.0 L 166.0 153.0 L 174.0 152.0 L 179.0 152.0 L 179.0 152.0 " stroke="black" fill="none" stroke-width="5.0" stroke-linecap="round" stroke-linejoin="round" />
<path d="M 147.0 128.0 L 147.0 129.0 L 147.0 133.0 L 148.0 140.0 L 148.0 147.0 L 148.0 152.0 L 148.0 153.0 " stroke="black" fill="none" stroke-width="5.0" stroke-linecap="round" stroke-linejoin="round" />
<path d="M 167.0 133.0 L 167.0 133.0 L 167.0 135.0 L 165.0 138.0 L 161.0 143.0 L 153.0 151.0 L 142.0 160.0 L 130.0 171.0 L 120.0 179.0 L 116.0 183.0 L 115.0 185.0 L 115.0 185.0 " stroke="black" fill="none" stroke-width="5.0" stroke-linecap="round" stroke-linejoin="round" />
<path d="M 141.0 167.0 L 141.0 167.0 L 141.0 168.0 L 141.0 168.0 L 142.0 169.0 L 144.0 169.0 L 148.0 169.0 L 155.0 169.0 L 161.0 168.0 L 165.0 167.0 L 169.0 166.0 L 171.0 166.0 L 172.0 170.0 L 174.0 177.0 L 177.0 186.0 L 179.0 194.0 L 180.0 200.0 L 180.0 202.0 L 180.0 202.0 " stroke="black" fill="none" stroke-width="5.0" stroke-linecap="round" stroke-linejoin="round" />
<path d="M 137.0 171.0 L 137.0 171.0 L 137.0 172.0 L 136.0 173.0 L 136.0 177.0 L 136.0 183.0 L 137.0 190.0 L 137.0 195.0 " stroke="black" fill="none" stroke-width="5.0" stroke-linecap="round" stroke-linejoin="round" />
<path d="M 140.0 183.0 L 140.0 183.0 L 141.0 183.0 L 143.0 183.0 L 148.0 183.0 L 154.0 183.0 L 160.0 183.0 L 166.0 184.0 L 169.0 185.0 L 169.0 185.0 " stroke="black" fill="none" stroke-width="5.0" stroke-linecap="round" stroke-linejoin="round" />
<path d="M 140.0 203.0 L 143.0 204.0 L 147.0 205.0 L 152.0 205.0 L 160.0 205.0 L 168.0 205.0 L 173.0 205.0 L 174.0 205.0 " stroke="black" fill="none" stroke-width="5.0" stroke-linecap="round" stroke-linejoin="round" />
</svg>