<svg xmlns="http://www.w3.org/2000/svg" width="300" height="300" viewBox="0 0 300 300">
<path d="M 134.0 110.0 L 134.0 110.0 L 135.0 110.0 L 135.0 110.0 L 135.0 110.0 L 135.0 111.0 L 134.0 115.0 L 130.0 125.0 L 121.0 140.0 L 110.0 155.0 L 103.0 164.0 L 102.0 164.0 " stroke="black" fill="none" stroke-width="5.0" stroke-linecap="round" stroke-linejoin="round" />
<path d="M 122.0 144.0 L 122.0 144.0 L 121.0 144.0 L 121.0 145.0 L 121.0 150.0 L 121.0 164.0 L 121.0 181.0 L 120.0 191.0 " stroke="black" fill="none" stroke-width="5.0" stroke-linecap="round" stroke-linejoin="round" />
<path d="M 151.0 122.0 L 151.0 122.0 L 151.0 122.0 L 151.0 122.0 L 152.0 122.0 L 157.0 122.0 L 164.0 122.0 L 171.0 122.0 L 176.0 122.0 L 179.0 122.0 L 180.0 127.0 L 181.0 136.0 L 182.0 144.0 L 183.0 150.0 L 183.0 153.0 L 183.0 153.0 " stroke="black" fill="none" stroke-width="5.0" stroke-linecap="round" stroke-linejoin="round" />
<path d="M 141.0 140.0 L 141.0 140.0 L 141.0 140.0 L 141.0 140.0 L 143.0 140.0 L 152.0 140.0 L 166.0 140.0 L 180.0 140.0 L 189.0 138.0 L 193.0 138.0 L 193.0 138.0 " stroke="black" fill="none" stroke-width="5.0" stroke-linecap="round" stroke-linejoin="round" />
<path d="M 148.0 154.0 L 148.0 154.0 L 148.0 154.0 L 150.0 154.0 L 154.0 154.0 L 163.0 154.0 L 174.0 154.0 L 182.0 154.0 " stroke="black" fill="none" stroke-width="5.0" stroke-linecap="round" stroke-linejoin="round" />
<path d="M 166.0 126.0 L 166.0 126.0 L 166.0 127.0 L 166.0 127.0 L 166.0 130.0 L 166.0 139.0 L 163.0 154.0 L 157.0 172.0 L 149.0 187.0 L 141.0 196.0 " stroke="black" fill="none" stroke-width="5.0" stroke-linecap="round" stroke-linejoin="round" />
</svg>