<svg xmlns="http://www.w3.org/2000/svg" width="300" height="300" viewBox="0 0 300 300">
<path d="M 127.0 118.0 L 127.0 118.0 L 127.0 118.0 L 127.0 118.0 L 127.0 118.0 L 127.0 118.0 L 127.0 124.0 L 126.0 138.0 L 123.0 159.0 L 120.0 175.0 L 119.0 181.0 L 119.0 181.0 " stroke="black" fill="none" stroke-width="5.0" stroke-linecap="round" stroke-linejoin="round" />
<path d="M 131.0 116.0 L 131.0 116.0 L 131.0 116.0 L 131.0 116.0 L 131.0 116.0 L 132.0 116.0 L 135.0 116.0 L 142.0 116.0 L 152.0 115.0 L 161.0 115.0 L 166.0 115.0 L 167.0 115.0 L 167.0 119.0 L 168.0 128.0 L 171.0 142.0 L 174.0 155.0 L 176.0 166.0 L 177.0 173.0 L 177.0 178.0 L 177.0 180.0 L 174.0 180.0 L 169.0 180.0 L 160.0 179.0 L 157.0 178.0 " stroke="black" fill="none" stroke-width="5.0" stroke-linecap="round" stroke-linejoin="round" />
<path d="M 135.0 132.0 L 135.0 132.0 L 136.0 133.0 L 138.0 133.0 L 145.0 133.0 L 154.0 134.0 L 162.0 134.0 L 166.0 135.0 L 166.0 136.0 " stroke="black" fill="none" stroke-width="5.0" stroke-linecap="round" stroke-linejoin="round" />
<path d="M 130.0 152.0 L 130.0 152.0 L 131.0 153.0 L 134.0 153.0 L 143.0 154.0 L 156.0 155.0 L 167.0 155.0 L 170.0 155.0 " stroke="black" fill="none" stroke-width="5.0" stroke-linecap="round" stroke-linejoin="round" />
</svg>