<svg xmlns="http://www.w3.org/2000/svg" width="300" height="300" viewBox="0 0 300 300">
<path d="M 125.0 113.0 L 125.0 113.0 L 125.0 113.0 L 126.0 113.0 L 126.0 113.0 L 127.0 115.0 L 127.0 119.0 L 127.0 132.0 L 126.0 152.0 L 123.0 173.0 L 121.0 189.0 L 120.0 193.0 " stroke="black" fill="none" stroke-width="5.0" stroke-linecap="round" stroke-linejoin="round" />
<path d="M 127.0 113.0 L 127.0 113.0 L 127.0 113.0 L 128.0 113.0 L 130.0 113.0 L 136.0 113.0 L 145.0 113.0 L 153.0 112.0 L 158.0 111.0 L 161.0 111.0 L 162.0 111.0 L 163.0 115.0 L 165.0 125.0 L 168.0 140.0 L 172.0 157.0 L 176.0 171.0 L 178.0 180.0 L 178.0 185.0 L 178.0 187.0 L 174.0 187.0 L 166.0 187.0 L 158.0 188.0 " stroke="black" fill="none" stroke-width="5.0" stroke-linecap="round" stroke-linejoin="round" />
<path d="M 134.0 140.0 L 134.0 140.0 L 134.0 140.0 L 135.0 140.0 L 143.0 139.0 L 153.0 138.0 L 162.0 137.0 L 165.0 137.0 " stroke="black" fill="none" stroke-width="5.0" stroke-linecap="round" stroke-linejoin="round" />
<path d="M 134.0 161.0 L 134.0 162.0 L 136.0 163.0 L 141.0 163.0 L 150.0 161.0 L 162.0 159.0 L 167.0 158.0 " stroke="black" fill="none" stroke-width="5.0" stroke-linecap="round" stroke-linejoin="round" />
</svg>