<svg xmlns="http://www.w3.org/2000/svg" width="300" height="300" viewBox="0 0 300 300">
<path d="M 163.0 99.0 L 163.0 99.0 L 163.0 99.0 L 163.0 99.0 L 163.0 99.0 L 163.0 100.0 L 161.0 103.0 L 154.0 112.0 L 142.0 124.0 L 132.0 132.0 L 130.0 133.0 " stroke="black" fill="none" stroke-width="5.0" stroke-linecap="round" stroke-linejoin="round" />
<path d="M 156.0 111.0 L 156.0 112.0 L 156.0 112.0 L 157.0 113.0 L 159.0 114.0 L 164.0 116.0 L 168.0 119.0 L 170.0 121.0 L 171.0 124.0 L 171.0 127.0 L 169.0 132.0 L 163.0 137.0 L 156.0 144.0 L 146.0 151.0 L 135.0 157.0 L 131.0 158.0 " stroke="black" fill="none" stroke-width="5.0" stroke-linecap="round" stroke-linejoin="round" />
<path d="M 145.0 126.0 L 145.0 126.0 L 145.0 126.0 L 146.0 127.0 L 147.0 129.0 L 150.0 133.0 L 153.0 139.0 " stroke="black" fill="none" stroke-width="5.0" stroke-linecap="round" stroke-linejoin="round" />
<path d="M 176.0 141.0 L 176.0 141.0 L 176.0 141.0 L 176.0 141.0 L 174.0 142.0 L 169.0 148.0 L 159.0 157.0 L 146.0 168.0 L 133.0 176.0 " stroke="black" fill="none" stroke-width="5.0" stroke-linecap="round" stroke-linejoin="round" />
<path d="M 161.0 156.0 L 161.0 156.0 L 161.0 156.0 L 162.0 156.0 L 164.0 156.0 L 168.0 157.0 L 173.0 159.0 L 177.0 161.0 L 178.0 165.0 L 176.0 171.0 L 170.0 179.0 L 161.0 188.0 L 151.0 197.0 L 140.0 202.0 L 136.0 202.0 " stroke="black" fill="none" stroke-width="5.0" stroke-linecap="round" stroke-linejoin="round" />
<path d="M 150.0 168.0 L 150.0 169.0 L 151.0 170.0 L 152.0 172.0 L 156.0 177.0 L 161.0 182.0 " stroke="black" fill="none" stroke-width="5.0" stroke-linecap="round" stroke-linejoin="round" />
</svg>