<svg xmlns="http://www.w3.org/2000/svg" width="300" height="300" viewBox="0 0 300 300">
<path d="M 167.0 101.0 L 167.0 101.0 L 167.0 101.0 L 167.0 101.0 L 167.0 101.0 L 166.0 101.0 L 161.0 105.0 L 152.0 115.0 L 139.0 127.0 L 130.0 136.0 L 129.0 137.0 " stroke="black" fill="none" stroke-width="5.0" stroke-linecap="round" stroke-linejoin="round" />
<path d="M 157.0 113.0 L 157.0 113.0 L 157.0 113.0 L 157.0 113.0 L 157.0 114.0 L 160.0 115.0 L 163.0 116.0 L 167.0 118.0 L 169.0 120.0 L 169.0 122.0 L 167.0 127.0 L 160.0 134.0 L 151.0 145.0 L 139.0 157.0 L 133.0 162.0 " stroke="black" fill="none" stroke-width="5.0" stroke-linecap="round" stroke-linejoin="round" />
<path d="M 146.0 129.0 L 146.0 129.0 L 146.0 130.0 L 146.0 131.0 L 148.0 133.0 L 150.0 135.0 " stroke="black" fill="none" stroke-width="5.0" stroke-linecap="round" stroke-linejoin="round" />
<path d="M 168.0 145.0 L 169.0 144.0 L 169.0 144.0 L 169.0 144.0 L 167.0 146.0 L 162.0 151.0 L 154.0 159.0 L 141.0 171.0 L 126.0 183.0 L 121.0 187.0 " stroke="black" fill="none" stroke-width="5.0" stroke-linecap="round" stroke-linejoin="round" />
<path d="M 152.0 162.0 L 152.0 162.0 L 153.0 162.0 L 155.0 162.0 L 159.0 162.0 L 163.0 164.0 L 168.0 165.0 L 171.0 168.0 L 172.0 172.0 L 171.0 178.0 L 164.0 187.0 L 155.0 197.0 L 146.0 206.0 L 139.0 210.0 " stroke="black" fill="none" stroke-width="5.0" stroke-linecap="round" stroke-linejoin="round" />
<path d="M 139.0 182.0 L 139.0 182.0 L 140.0 182.0 L 142.0 182.0 L 148.0 187.0 L 154.0 191.0 " stroke="black" fill="none" stroke-width="5.0" stroke-linecap="round" stroke-linejoin="round" />
</svg>