<svg xmlns="http://www.w3.org/2000/svg" width="300" height="300" viewBox="0 0 300 300">
<path d="M 133.0 113.0 L 133.0 113.0 L 133.0 113.0 L 133.0 114.0 L 132.0 115.0 L 130.0 119.0 L 123.0 126.0 L 114.0 135.0 L 107.0 141.0 " stroke="black" fill="none" stroke-width="5.0" stroke-linecap="round" stroke-linejoin="round" />
<path d="M 133.0 133.0 L 133.0 133.0 L 133.0 133.0 L 133.0 133.0 L 133.0 133.0 L 132.0 134.0 L 129.0 138.0 L 126.0 141.0 L 121.0 145.0 L 110.0 154.0 L 100.0 161.0 L 96.0 163.0 " stroke="black" fill="none" stroke-width="5.0" stroke-linecap="round" stroke-linejoin="round" />
<path d="M 120.0 148.0 L 120.0 148.0 L 120.0 148.0 L 121.0 148.0 L 121.0 148.0 L 121.0 149.0 L 121.0 150.0 L 121.0 151.0 L 121.0 156.0 L 120.0 166.0 L 118.0 179.0 L 115.0 189.0 L 113.0 192.0 " stroke="black" fill="none" stroke-width="5.0" stroke-linecap="round" stroke-linejoin="round" />
<path d="M 155.0 115.0 L 155.0 115.0 L 155.0 115.0 L 155.0 115.0 L 156.0 116.0 L 159.0 120.0 L 163.0 125.0 " stroke="black" fill="none" stroke-width="5.0" stroke-linecap="round" stroke-linejoin="round" />
<path d="M 141.0 137.0 L 141.0 137.0 L 142.0 137.0 L 143.0 137.0 L 148.0 137.0 L 158.0 137.0 L 168.0 137.0 L 175.0 137.0 " stroke="black" fill="none" stroke-width="5.0" stroke-linecap="round" stroke-linejoin="round" />
<path d="M 144.0 153.0 L 146.0 153.0 L 148.0 153.0 L 152.0 153.0 L 157.0 153.0 L 163.0 154.0 L 165.0 154.0 " stroke="black" fill="none" stroke-width="5.0" stroke-linecap="round" stroke-linejoin="round" />
<path d="M 130.0 183.0 L 130.0 183.0 L 131.0 183.0 L 134.0 183.0 L 143.0 184.0 L 160.0 186.0 L 177.0 190.0 L 187.0 191.0 L 189.0 192.0 " stroke="black" fill="none" stroke-width="5.0" stroke-linecap="round" stroke-linejoin="round" />
<path d="M 153.0 140.0 L 153.0 140.0 L 153.0 140.0 L 154.0 142.0 L 154.0 150.0 L 155.0 161.0 L 156.0 171.0 L 156.0 175.0 " stroke="black" fill="none" stroke-width="5.0" stroke-linecap="round" stroke-linejoin="round" />
</svg>