<svg xmlns="http://www.w3.org/2000/svg" width="300" height="300" viewBox="0 0 300 300">
<path d="M 130.0 110.0 L 130.0 110.0 L 131.0 111.0 L 131.0 112.0 L 131.0 113.0 L 130.0 114.0 L 128.0 118.0 L 123.0 124.0 L 115.0 132.0 L 110.0 137.0 " stroke="black" fill="none" stroke-width="5.0" stroke-linecap="round" stroke-linejoin="round" />
<path d="M 131.0 133.0 L 131.0 133.0 L 131.0 132.0 L 132.0 132.0 L 132.0 132.0 L 132.0 132.0 L 131.0 134.0 L 128.0 138.0 L 123.0 144.0 L 115.0 153.0 L 106.0 163.0 L 98.0 171.0 L 96.0 173.0 " stroke="black" fill="none" stroke-width="5.0" stroke-linecap="round" stroke-linejoin="round" />
<path d="M 121.0 146.0 L 121.0 146.0 L 121.0 146.0 L 121.0 146.0 L 121.0 148.0 L 121.0 154.0 L 121.0 166.0 L 121.0 178.0 L 121.0 185.0 L 121.0 189.0 L 121.0 189.0 " stroke="black" fill="none" stroke-width="5.0" stroke-linecap="round" stroke-linejoin="round" />
<path d="M 150.0 115.0 L 150.0 115.0 L 150.0 115.0 L 151.0 117.0 L 153.0 120.0 L 156.0 123.0 " stroke="black" fill="none" stroke-width="5.0" stroke-linecap="round" stroke-linejoin="round" />
<path d="M 141.0 133.0 L 141.0 133.0 L 141.0 133.0 L 142.0 133.0 L 148.0 133.0 L 157.0 133.0 L 168.0 133.0 L 176.0 133.0 L 178.0 133.0 " stroke="black" fill="none" stroke-width="5.0" stroke-linecap="round" stroke-linejoin="round" />
<path d="M 145.0 155.0 L 145.0 155.0 L 145.0 155.0 L 145.0 155.0 L 146.0 155.0 L 155.0 155.0 L 166.0 155.0 L 174.0 155.0 " stroke="black" fill="none" stroke-width="5.0" stroke-linecap="round" stroke-linejoin="round" />
<path d="M 132.0 185.0 L 132.0 185.0 L 134.0 185.0 L 137.0 185.0 L 147.0 186.0 L 161.0 186.0 L 176.0 187.0 L 183.0 188.0 " stroke="black" fill="none" stroke-width="5.0" stroke-linecap="round" stroke-linejoin="round" />
<path d="M 158.0 139.0 L 158.0 138.0 L 159.0 138.0 L 159.0 138.0 L 159.0 138.0 L 159.0 143.0 L 160.0 155.0 L 160.0 168.0 L 161.0 177.0 L 161.0 181.0 " stroke="black" fill="none" stroke-width="5.0" stroke-linecap="round" stroke-linejoin="round" />
</svg>