<svg xmlns="http://www.w3.org/2000/svg" width="300" height="300" viewBox="0 0 300 300">
<path d="M 140.0 100.0 L 140.0 100.0 L 141.0 100.0 L 141.0 100.0 L 141.0 100.0 L 141.0 103.0 L 132.0 123.0 L 124.0 133.0 L 123.0 135.0 " stroke="black" fill="none" stroke-width="5.0" stroke-linecap="round" stroke-linejoin="round" />
<path d="M 142.0 115.0 L 142.0 115.0 L 143.0 115.0 L 145.0 115.0 L 149.0 115.0 L 155.0 116.0 L 161.0 117.0 L 165.0 118.0 L 167.0 119.0 L 167.0 122.0 L 164.0 127.0 L 157.0 136.0 L 147.0 147.0 L 132.0 161.0 L 117.0 172.0 L 112.0 173.0 " stroke="black" fill="none" stroke-width="5.0" stroke-linecap="round" stroke-linejoin="round" />
<path d="M 138.0 130.0 L 138.0 130.0 L 138.0 130.0 L 139.0 131.0 L 143.0 135.0 L 153.0 141.0 L 169.0 150.0 L 180.0 155.0 L 187.0 158.0 " stroke="black" fill="none" stroke-width="5.0" stroke-linecap="round" stroke-linejoin="round" />
<path d="M 144.0 164.0 L 144.0 164.0 L 144.0 165.0 L 146.0 166.0 L 149.0 168.0 L 154.0 170.0 L 160.0 171.0 L 161.0 172.0 " stroke="black" fill="none" stroke-width="5.0" stroke-linecap="round" stroke-linejoin="round" />
<path d="M 136.0 187.0 L 136.0 187.0 L 137.0 188.0 L 139.0 189.0 L 146.0 190.0 L 155.0 191.0 L 163.0 192.0 L 166.0 194.0 " stroke="black" fill="none" stroke-width="5.0" stroke-linecap="round" stroke-linejoin="round" />
</svg>