<svg xmlns="http://www.w3.org/2000/svg" width="300" height="300" viewBox="0 0 300 300">
<path d="M 118.0 123.0 L 118.0 123.0 L 118.0 123.0 L 118.0 124.0 L 118.0 125.0 L 118.0 128.0 L 117.0 136.0 L 116.0 148.0 L 115.0 156.0 L 119.0 158.0 L 127.0 153.0 L 131.0 150.0 " stroke="black" fill="none" stroke-width="5.0" stroke-linecap="round" stroke-linejoin="round" />
<path d="M 137.0 115.0 L 137.0 114.0 L 136.0 114.0 L 136.0 113.0 L 136.0 114.0 L 136.0 122.0 L 136.0 140.0 L 135.0 167.0 L 134.0 189.0 L 134.0 196.0 L 134.0 196.0 " stroke="black" fill="none" stroke-width="5.0" stroke-linecap="round" stroke-linejoin="round" />
<path d="M 159.0 109.0 L 159.0 109.0 L 159.0 109.0 L 159.0 108.0 L 158.0 110.0 L 156.0 118.0 L 151.0 132.0 L 145.0 146.0 L 144.0 148.0 " stroke="black" fill="none" stroke-width="5.0" stroke-linecap="round" stroke-linejoin="round" />
<path d="M 155.0 127.0 L 155.0 126.0 L 157.0 125.0 L 161.0 124.0 L 169.0 124.0 L 177.0 124.0 L 183.0 124.0 " stroke="black" fill="none" stroke-width="5.0" stroke-linecap="round" stroke-linejoin="round" />
<path d="M 177.0 128.0 L 177.0 128.0 L 176.0 131.0 L 175.0 136.0 L 173.0 145.0 L 169.0 159.0 L 163.0 176.0 L 157.0 189.0 L 156.0 190.0 " stroke="black" fill="none" stroke-width="5.0" stroke-linecap="round" stroke-linejoin="round" />
<path d="M 152.0 143.0 L 152.0 143.0 L 152.0 143.0 L 155.0 148.0 L 164.0 164.0 L 176.0 184.0 L 184.0 197.0 L 187.0 202.0 " stroke="black" fill="none" stroke-width="5.0" stroke-linecap="round" stroke-linejoin="round" />
</svg>