<svg xmlns="http://www.w3.org/2000/svg" width="300" height="300" viewBox="0 0 300 300">
<path d="M 119.0 119.0 L 119.0 119.0 L 120.0 121.0 L 120.0 123.0 L 119.0 129.0 L 118.0 139.0 L 117.0 150.0 L 117.0 157.0 L 118.0 160.0 L 123.0 158.0 L 129.0 154.0 L 132.0 151.0 " stroke="black" fill="none" stroke-width="5.0" stroke-linecap="round" stroke-linejoin="round" />
<path d="M 135.0 113.0 L 135.0 113.0 L 134.0 113.0 L 134.0 113.0 L 133.0 116.0 L 133.0 129.0 L 133.0 153.0 L 133.0 174.0 L 133.0 188.0 L 133.0 194.0 L 134.0 195.0 L 134.0 195.0 " stroke="black" fill="none" stroke-width="5.0" stroke-linecap="round" stroke-linejoin="round" />
<path d="M 153.0 109.0 L 153.0 109.0 L 153.0 109.0 L 154.0 110.0 L 154.0 113.0 L 154.0 119.0 L 151.0 131.0 L 146.0 142.0 L 142.0 149.0 " stroke="black" fill="none" stroke-width="5.0" stroke-linecap="round" stroke-linejoin="round" />
<path d="M 152.0 126.0 L 152.0 126.0 L 152.0 126.0 L 154.0 126.0 L 159.0 126.0 L 168.0 125.0 L 178.0 125.0 L 184.0 125.0 L 184.0 125.0 " stroke="black" fill="none" stroke-width="5.0" stroke-linecap="round" stroke-linejoin="round" />
<path d="M 175.0 128.0 L 175.0 128.0 L 175.0 130.0 L 174.0 134.0 L 174.0 142.0 L 172.0 154.0 L 169.0 167.0 L 164.0 181.0 L 160.0 189.0 L 156.0 191.0 " stroke="black" fill="none" stroke-width="5.0" stroke-linecap="round" stroke-linejoin="round" />
<path d="M 151.0 142.0 L 151.0 141.0 L 152.0 141.0 L 154.0 144.0 L 158.0 153.0 L 166.0 169.0 L 175.0 183.0 L 183.0 192.0 L 187.0 196.0 L 190.0 198.0 L 191.0 198.0 L 191.0 198.0 " stroke="black" fill="none" stroke-width="5.0" stroke-linecap="round" stroke-linejoin="round" />
</svg>