<svg xmlns="http://www.w3.org/2000/svg" width="300" height="300" viewBox="0 0 300 300">
<path d="M 144.0 103.0 L 144.0 103.0 L 144.0 103.0 L 144.0 103.0 L 144.0 106.0 L 147.0 110.0 L 150.0 115.0 " stroke="black" fill="none" stroke-width="5.0" stroke-linecap="round" stroke-linejoin="round" />
<path d="M 115.0 122.0 L 116.0 122.0 L 118.0 122.0 L 122.0 123.0 L 133.0 123.0 L 150.0 122.0 L 167.0 122.0 L 176.0 122.0 L 179.0 123.0 L 179.0 123.0 " stroke="black" fill="none" stroke-width="5.0" stroke-linecap="round" stroke-linejoin="round" />
<path d="M 125.0 145.0 L 125.0 145.0 L 126.0 145.0 L 126.0 146.0 L 126.0 154.0 L 126.0 165.0 L 126.0 171.0 L 126.0 172.0 " stroke="black" fill="none" stroke-width="5.0" stroke-linecap="round" stroke-linejoin="round" />
<path d="M 124.0 144.0 L 127.0 143.0 L 129.0 143.0 L 133.0 142.0 L 139.0 142.0 L 149.0 143.0 L 159.0 144.0 L 167.0 145.0 L 172.0 146.0 L 176.0 149.0 L 178.0 154.0 L 179.0 162.0 L 181.0 169.0 L 181.0 175.0 L 181.0 178.0 L 180.0 179.0 L 176.0 179.0 L 169.0 177.0 L 161.0 173.0 L 158.0 170.0 " stroke="black" fill="none" stroke-width="5.0" stroke-linecap="round" stroke-linejoin="round" />
<path d="M 148.0 122.0 L 148.0 122.0 L 148.0 122.0 L 147.0 123.0 L 147.0 125.0 L 148.0 137.0 L 151.0 160.0 L 152.0 183.0 L 153.0 197.0 L 153.0 204.0 L 153.0 205.0 L 153.0 205.0 L 153.0 203.0 " stroke="black" fill="none" stroke-width="5.0" stroke-linecap="round" stroke-linejoin="round" />
</svg>