<svg xmlns="http://www.w3.org/2000/svg" width="300" height="300" viewBox="0 0 300 300">
<path d="M 144.0 106.0 L 145.0 107.0 L 146.0 109.0 L 148.0 114.0 L 151.0 120.0 " stroke="black" fill="none" stroke-width="5.0" stroke-linecap="round" stroke-linejoin="round" />
<path d="M 119.0 125.0 L 120.0 125.0 L 125.0 125.0 L 132.0 124.0 L 143.0 124.0 L 155.0 124.0 L 167.0 124.0 L 176.0 123.0 L 178.0 122.0 " stroke="black" fill="none" stroke-width="5.0" stroke-linecap="round" stroke-linejoin="round" />
<path d="M 124.0 150.0 L 124.0 149.0 L 125.0 149.0 L 125.0 149.0 L 125.0 154.0 L 125.0 164.0 L 124.0 175.0 L 124.0 179.0 L 124.0 179.0 " stroke="black" fill="none" stroke-width="5.0" stroke-linecap="round" stroke-linejoin="round" />
<path d="M 127.0 147.0 L 128.0 147.0 L 130.0 147.0 L 133.0 147.0 L 139.0 147.0 L 148.0 147.0 L 157.0 147.0 L 165.0 147.0 L 170.0 147.0 L 174.0 152.0 L 176.0 160.0 L 178.0 170.0 L 179.0 179.0 L 180.0 183.0 L 180.0 185.0 L 177.0 185.0 L 171.0 185.0 L 165.0 181.0 " stroke="black" fill="none" stroke-width="5.0" stroke-linecap="round" stroke-linejoin="round" />
<path d="M 145.0 123.0 L 145.0 123.0 L 145.0 123.0 L 145.0 123.0 L 145.0 128.0 L 147.0 146.0 L 149.0 174.0 L 150.0 198.0 L 150.0 207.0 L 150.0 210.0 L 150.0 210.0 L 150.0 209.0 " stroke="black" fill="none" stroke-width="5.0" stroke-linecap="round" stroke-linejoin="round" />
</svg>