<svg xmlns="http://www.w3.org/2000/svg" width="300" height="300" viewBox="0 0 300 300">
<path d="M 132.0 113.0 L 133.0 113.0 L 134.0 113.0 L 139.0 113.0 L 148.0 113.0 L 158.0 112.0 L 166.0 112.0 L 171.0 113.0 L 173.0 114.0 L 173.0 115.0 L 173.0 115.0 L 171.0 117.0 L 169.0 120.0 L 165.0 124.0 L 162.0 129.0 L 159.0 134.0 L 157.0 137.0 L 156.0 140.0 L 156.0 141.0 L 156.0 141.0 L 158.0 142.0 L 160.0 143.0 L 163.0 144.0 L 167.0 145.0 L 171.0 145.0 L 175.0 146.0 L 178.0 146.0 L 180.0 147.0 L 181.0 148.0 L 181.0 150.0 L 181.0 154.0 L 182.0 159.0 L 184.0 167.0 L 187.0 176.0 L 189.0 184.0 L 191.0 189.0 L 191.0 191.0 L 191.0 191.0 L 191.0 190.0 L 186.0 190.0 L 177.0 190.0 L 166.0 192.0 " stroke="black" fill="none" stroke-width="5.0" stroke-linecap="round" stroke-linejoin="round" />
<path d="M 145.0 119.0 L 145.0 119.0 L 145.0 120.0 L 144.0 122.0 L 142.0 129.0 L 135.0 149.0 L 124.0 178.0 L 115.0 195.0 " stroke="black" fill="none" stroke-width="5.0" stroke-linecap="round" stroke-linejoin="round" />
</svg>