<svg xmlns="http://www.w3.org/2000/svg" width="300" height="300" viewBox="0 0 300 300">
<path d="M 128.0 113.0 L 128.0 113.0 L 129.0 113.0 L 130.0 113.0 L 135.0 113.0 L 143.0 113.0 L 154.0 113.0 L 165.0 112.0 L 174.0 111.0 L 180.0 111.0 L 181.0 111.0 L 182.0 113.0 L 182.0 114.0 L 182.0 115.0 L 181.0 116.0 L 180.0 118.0 L 177.0 122.0 L 174.0 126.0 L 170.0 130.0 L 167.0 135.0 L 165.0 138.0 L 165.0 140.0 L 165.0 140.0 L 165.0 140.0 L 166.0 141.0 L 168.0 142.0 L 171.0 143.0 L 175.0 144.0 L 180.0 144.0 L 184.0 144.0 L 187.0 144.0 L 189.0 144.0 L 189.0 145.0 L 190.0 148.0 L 190.0 152.0 L 191.0 160.0 L 193.0 172.0 L 195.0 183.0 L 197.0 191.0 L 198.0 196.0 L 198.0 197.0 L 198.0 196.0 L 195.0 196.0 L 185.0 195.0 L 181.0 194.0 " stroke="black" fill="none" stroke-width="5.0" stroke-linecap="round" stroke-linejoin="round" />
<path d="M 144.0 119.0 L 144.0 118.0 L 144.0 118.0 L 144.0 117.0 L 144.0 117.0 L 144.0 120.0 L 144.0 133.0 L 140.0 154.0 L 132.0 177.0 L 126.0 191.0 L 124.0 195.0 L 124.0 195.0 " stroke="black" fill="none" stroke-width="5.0" stroke-linecap="round" stroke-linejoin="round" />
</svg>