<svg xmlns="http://www.w3.org/2000/svg" width="300" height="300" viewBox="0 0 300 300">
<path d="M 132.0 108.0 L 132.0 108.0 L 132.0 108.0 L 133.0 108.0 L 134.0 108.0 L 140.0 107.0 L 151.0 105.0 L 163.0 103.0 L 171.0 101.0 L 173.0 101.0 L 173.0 101.0 L 172.0 101.0 " stroke="black" fill="none" stroke-width="5.0" stroke-linecap="round" stroke-linejoin="round" />
<path d="M 151.0 108.0 L 151.0 108.0 L 151.0 108.0 L 151.0 109.0 L 151.0 111.0 L 151.0 117.0 L 151.0 123.0 L 152.0 128.0 L 152.0 129.0 " stroke="black" fill="none" stroke-width="5.0" stroke-linecap="round" stroke-linejoin="round" />
<path d="M 154.0 117.0 L 154.0 117.0 L 154.0 118.0 L 155.0 118.0 L 158.0 119.0 L 162.0 119.0 L 166.0 119.0 L 168.0 119.0 " stroke="black" fill="none" stroke-width="5.0" stroke-linecap="round" stroke-linejoin="round" />
<path d="M 137.0 120.0 L 137.0 120.0 L 137.0 120.0 L 137.0 122.0 L 138.0 125.0 L 139.0 129.0 L 139.0 130.0 " stroke="black" fill="none" stroke-width="5.0" stroke-linecap="round" stroke-linejoin="round" />
<path d="M 124.0 135.0 L 124.0 135.0 L 124.0 136.0 L 125.0 136.0 L 130.0 137.0 L 156.0 135.0 L 169.0 135.0 L 177.0 135.0 L 180.0 136.0 L 181.0 136.0 L 181.0 136.0 L 178.0 136.0 " stroke="black" fill="none" stroke-width="5.0" stroke-linecap="round" stroke-linejoin="round" />
<path d="M 140.0 143.0 L 140.0 143.0 L 140.0 142.0 L 140.0 142.0 L 140.0 143.0 L 139.0 148.0 L 139.0 155.0 L 138.0 161.0 L 138.0 165.0 L 140.0 166.0 L 144.0 166.0 L 149.0 166.0 L 155.0 166.0 L 161.0 166.0 L 168.0 166.0 L 172.0 166.0 L 174.0 166.0 L 176.0 169.0 L 177.0 174.0 L 178.0 180.0 L 180.0 185.0 L 182.0 191.0 L 183.0 196.0 L 184.0 201.0 L 184.0 203.0 L 184.0 204.0 L 182.0 205.0 L 178.0 205.0 L 168.0 202.0 L 165.0 201.0 " stroke="black" fill="none" stroke-width="5.0" stroke-linecap="round" stroke-linejoin="round" />
<path d="M 142.0 153.0 L 142.0 153.0 L 142.0 153.0 L 143.0 153.0 L 149.0 153.0 L 159.0 153.0 L 166.0 154.0 L 169.0 155.0 " stroke="black" fill="none" stroke-width="5.0" stroke-linecap="round" stroke-linejoin="round" />
<path d="M 124.0 178.0 L 124.0 178.0 L 124.0 178.0 L 124.0 178.0 L 124.0 182.0 L 124.0 189.0 L 124.0 193.0 " stroke="black" fill="none" stroke-width="5.0" stroke-linecap="round" stroke-linejoin="round" />
<path d="M 142.0 183.0 L 142.0 183.0 L 142.0 183.0 L 142.0 183.0 L 143.0 183.0 L 143.0 186.0 L 144.0 190.0 " stroke="black" fill="none" stroke-width="5.0" stroke-linecap="round" stroke-linejoin="round" />
<path d="M 152.0 181.0 L 152.0 181.0 L 153.0 182.0 L 153.0 184.0 L 154.0 187.0 L 155.0 190.0 L 155.0 191.0 " stroke="black" fill="none" stroke-width="5.0" stroke-linecap="round" stroke-linejoin="round" />
<path d="M 169.0 183.0 L 169.0 185.0 L 171.0 188.0 L 172.0 192.0 L 173.0 195.0 " stroke="black" fill="none" stroke-width="5.0" stroke-linecap="round" stroke-linejoin="round" />
</svg>