<svg xmlns="http://www.w3.org/2000/svg" width="300" height="300" viewBox="0 0 300 300">
<path d="M 132.0 109.0 L 132.0 109.0 L 132.0 109.0 L 132.0 109.0 L 134.0 110.0 L 140.0 110.0 L 151.0 110.0 L 164.0 110.0 L 175.0 109.0 L 180.0 108.0 L 181.0 108.0 L 180.0 108.0 L 178.0 108.0 " stroke="black" fill="none" stroke-width="5.0" stroke-linecap="round" stroke-linejoin="round" />
<path d="M 155.0 115.0 L 155.0 115.0 L 155.0 115.0 L 155.0 116.0 L 155.0 118.0 L 155.0 123.0 L 156.0 132.0 L 157.0 139.0 L 157.0 142.0 L 157.0 142.0 " stroke="black" fill="none" stroke-width="5.0" stroke-linecap="round" stroke-linejoin="round" />
<path d="M 157.0 124.0 L 157.0 125.0 L 157.0 125.0 L 159.0 126.0 L 162.0 127.0 L 167.0 127.0 L 172.0 127.0 L 176.0 127.0 L 176.0 127.0 " stroke="black" fill="none" stroke-width="5.0" stroke-linecap="round" stroke-linejoin="round" />
<path d="M 139.0 126.0 L 139.0 126.0 L 139.0 126.0 L 139.0 128.0 L 140.0 133.0 L 141.0 138.0 L 141.0 139.0 " stroke="black" fill="none" stroke-width="5.0" stroke-linecap="round" stroke-linejoin="round" />
<path d="M 127.0 144.0 L 127.0 144.0 L 127.0 144.0 L 130.0 145.0 L 138.0 146.0 L 152.0 146.0 L 167.0 145.0 L 179.0 145.0 L 186.0 145.0 L 190.0 145.0 L 192.0 145.0 L 192.0 145.0 L 192.0 146.0 " stroke="black" fill="none" stroke-width="5.0" stroke-linecap="round" stroke-linejoin="round" />
<path d="M 140.0 150.0 L 140.0 150.0 L 140.0 150.0 L 139.0 150.0 L 139.0 154.0 L 138.0 161.0 L 137.0 168.0 L 137.0 172.0 L 138.0 174.0 L 142.0 174.0 L 149.0 173.0 L 155.0 173.0 L 162.0 173.0 L 168.0 173.0 L 171.0 173.0 L 174.0 173.0 L 176.0 173.0 L 178.0 175.0 L 180.0 180.0 L 183.0 186.0 L 184.0 193.0 L 186.0 198.0 L 186.0 202.0 L 186.0 203.0 L 186.0 204.0 L 185.0 204.0 L 180.0 204.0 L 171.0 204.0 L 168.0 204.0 " stroke="black" fill="none" stroke-width="5.0" stroke-linecap="round" stroke-linejoin="round" />
<path d="M 142.0 159.0 L 142.0 159.0 L 142.0 159.0 L 142.0 159.0 L 144.0 159.0 L 149.0 159.0 L 157.0 159.0 L 164.0 159.0 L 169.0 160.0 L 170.0 160.0 " stroke="black" fill="none" stroke-width="5.0" stroke-linecap="round" stroke-linejoin="round" />
<path d="M 130.0 190.0 L 130.0 190.0 L 130.0 190.0 L 129.0 190.0 L 129.0 191.0 L 129.0 194.0 L 129.0 196.0 " stroke="black" fill="none" stroke-width="5.0" stroke-linecap="round" stroke-linejoin="round" />
<path d="M 144.0 189.0 L 144.0 189.0 L 144.0 189.0 L 144.0 189.0 L 144.0 191.0 L 144.0 194.0 L 144.0 195.0 " stroke="black" fill="none" stroke-width="5.0" stroke-linecap="round" stroke-linejoin="round" />
<path d="M 152.0 187.0 L 152.0 187.0 L 152.0 187.0 L 152.0 186.0 L 152.0 186.0 L 153.0 188.0 L 154.0 192.0 " stroke="black" fill="none" stroke-width="5.0" stroke-linecap="round" stroke-linejoin="round" />
<path d="M 165.0 186.0 L 165.0 186.0 L 166.0 188.0 L 167.0 191.0 L 169.0 195.0 " stroke="black" fill="none" stroke-width="5.0" stroke-linecap="round" stroke-linejoin="round" />
</svg>