<svg xmlns="http://www.w3.org/2000/svg" width="300" height="300" viewBox="0 0 300 300">
<path d="M 139.0 111.0 L 139.0 111.0 L 139.0 111.0 L 139.0 111.0 L 138.0 112.0 L 138.0 113.0 L 138.0 116.0 L 134.0 126.0 L 124.0 144.0 L 113.0 159.0 L 107.0 163.0 " stroke="black" fill="none" stroke-width="5.0" stroke-linecap="round" stroke-linejoin="round" />
<path d="M 128.0 143.0 L 128.0 143.0 L 127.0 144.0 L 127.0 147.0 L 127.0 154.0 L 128.0 167.0 L 128.0 182.0 L 128.0 189.0 " stroke="black" fill="none" stroke-width="5.0" stroke-linecap="round" stroke-linejoin="round" />
<path d="M 147.0 124.0 L 147.0 124.0 L 147.0 124.0 L 150.0 124.0 L 159.0 124.0 L 170.0 124.0 L 180.0 123.0 L 185.0 122.0 L 189.0 122.0 L 190.0 121.0 " stroke="black" fill="none" stroke-width="5.0" stroke-linecap="round" stroke-linejoin="round" />
<path d="M 178.0 125.0 L 178.0 125.0 L 178.0 125.0 L 178.0 125.0 L 178.0 128.0 L 180.0 137.0 L 183.0 153.0 L 186.0 169.0 L 188.0 181.0 L 188.0 187.0 L 188.0 190.0 L 187.0 191.0 L 184.0 191.0 L 179.0 191.0 L 171.0 191.0 L 162.0 190.0 " stroke="black" fill="none" stroke-width="5.0" stroke-linecap="round" stroke-linejoin="round" />
<path d="M 149.0 149.0 L 149.0 149.0 L 149.0 149.0 L 149.0 151.0 L 149.0 154.0 L 150.0 157.0 L 150.0 160.0 " stroke="black" fill="none" stroke-width="5.0" stroke-linecap="round" stroke-linejoin="round" />
<path d="M 151.0 150.0 L 151.0 150.0 L 151.0 150.0 L 151.0 149.0 L 152.0 149.0 L 156.0 148.0 L 160.0 148.0 L 165.0 151.0 L 169.0 155.0 L 171.0 159.0 L 172.0 162.0 L 172.0 165.0 L 172.0 165.0 " stroke="black" fill="none" stroke-width="5.0" stroke-linecap="round" stroke-linejoin="round" />
<path d="M 154.0 167.0 L 154.0 167.0 L 155.0 167.0 L 157.0 168.0 L 162.0 168.0 L 170.0 168.0 L 172.0 168.0 " stroke="black" fill="none" stroke-width="5.0" stroke-linecap="round" stroke-linejoin="round" />
</svg>