<svg xmlns="http://www.w3.org/2000/svg" width="300" height="300" viewBox="0 0 300 300">
<path d="M 135.0 107.0 L 135.0 107.0 L 135.0 106.0 L 135.0 106.0 L 135.0 106.0 L 134.0 111.0 L 128.0 121.0 L 118.0 136.0 L 107.0 151.0 L 102.0 156.0 " stroke="black" fill="none" stroke-width="5.0" stroke-linecap="round" stroke-linejoin="round" />
<path d="M 122.0 130.0 L 122.0 130.0 L 123.0 130.0 L 123.0 130.0 L 123.0 131.0 L 124.0 135.0 L 124.0 145.0 L 122.0 161.0 L 120.0 176.0 L 119.0 184.0 " stroke="black" fill="none" stroke-width="5.0" stroke-linecap="round" stroke-linejoin="round" />
<path d="M 150.0 111.0 L 150.0 111.0 L 150.0 111.0 L 150.0 111.0 L 150.0 111.0 L 153.0 111.0 L 160.0 111.0 L 172.0 111.0 L 183.0 111.0 L 189.0 111.0 L 191.0 111.0 L 191.0 111.0 " stroke="black" fill="none" stroke-width="5.0" stroke-linecap="round" stroke-linejoin="round" />
<path d="M 176.0 114.0 L 176.0 114.0 L 176.0 114.0 L 175.0 114.0 L 175.0 116.0 L 176.0 121.0 L 179.0 134.0 L 182.0 152.0 L 184.0 168.0 L 185.0 180.0 L 185.0 188.0 L 185.0 193.0 L 184.0 195.0 L 181.0 196.0 L 174.0 195.0 L 164.0 191.0 L 162.0 190.0 " stroke="black" fill="none" stroke-width="5.0" stroke-linecap="round" stroke-linejoin="round" />
<path d="M 146.0 146.0 L 146.0 147.0 L 146.0 147.0 L 146.0 149.0 L 146.0 152.0 L 146.0 156.0 L 146.0 156.0 " stroke="black" fill="none" stroke-width="5.0" stroke-linecap="round" stroke-linejoin="round" />
<path d="M 147.0 143.0 L 147.0 143.0 L 146.0 143.0 L 146.0 143.0 L 146.0 143.0 L 148.0 143.0 L 151.0 143.0 L 155.0 143.0 L 158.0 143.0 L 161.0 143.0 L 162.0 143.0 L 163.0 144.0 L 164.0 148.0 L 165.0 153.0 L 165.0 159.0 L 165.0 163.0 L 165.0 164.0 L 165.0 164.0 " stroke="black" fill="none" stroke-width="5.0" stroke-linecap="round" stroke-linejoin="round" />
<path d="M 146.0 161.0 L 146.0 161.0 L 146.0 162.0 L 146.0 162.0 L 149.0 163.0 L 155.0 164.0 L 162.0 164.0 L 164.0 164.0 " stroke="black" fill="none" stroke-width="5.0" stroke-linecap="round" stroke-linejoin="round" />
</svg>