<svg xmlns="http://www.w3.org/2000/svg" width="300" height="300" viewBox="0 0 300 300">
<path d="M 138.0 113.0 L 138.0 113.0 L 138.0 114.0 L 137.0 117.0 L 135.0 124.0 L 128.0 136.0 L 118.0 152.0 L 107.0 163.0 L 103.0 167.0 " stroke="black" fill="none" stroke-width="5.0" stroke-linecap="round" stroke-linejoin="round" />
<path d="M 125.0 142.0 L 125.0 142.0 L 126.0 142.0 L 126.0 142.0 L 126.0 146.0 L 127.0 157.0 L 127.0 171.0 L 127.0 182.0 L 127.0 185.0 " stroke="black" fill="none" stroke-width="5.0" stroke-linecap="round" stroke-linejoin="round" />
<path d="M 148.0 124.0 L 148.0 124.0 L 148.0 124.0 L 148.0 124.0 L 150.0 125.0 L 156.0 125.0 L 166.0 124.0 L 175.0 122.0 L 181.0 121.0 L 184.0 121.0 L 184.0 121.0 " stroke="black" fill="none" stroke-width="5.0" stroke-linecap="round" stroke-linejoin="round" />
<path d="M 173.0 126.0 L 173.0 126.0 L 172.0 126.0 L 171.0 126.0 L 172.0 130.0 L 175.0 141.0 L 180.0 156.0 L 183.0 172.0 L 186.0 184.0 L 187.0 189.0 L 187.0 191.0 L 185.0 191.0 L 180.0 191.0 L 169.0 189.0 L 158.0 186.0 " stroke="black" fill="none" stroke-width="5.0" stroke-linecap="round" stroke-linejoin="round" />
<path d="M 148.0 151.0 L 148.0 151.0 L 148.0 151.0 L 148.0 151.0 L 148.0 151.0 L 148.0 152.0 L 148.0 155.0 L 149.0 156.0 " stroke="black" fill="none" stroke-width="5.0" stroke-linecap="round" stroke-linejoin="round" />
<path d="M 150.0 149.0 L 150.0 149.0 L 150.0 149.0 L 150.0 149.0 L 150.0 149.0 L 152.0 149.0 L 156.0 149.0 L 160.0 149.0 L 163.0 150.0 L 166.0 152.0 L 167.0 154.0 L 167.0 157.0 L 167.0 159.0 " stroke="black" fill="none" stroke-width="5.0" stroke-linecap="round" stroke-linejoin="round" />
<path d="M 152.0 161.0 L 152.0 161.0 L 152.0 162.0 L 153.0 163.0 L 157.0 163.0 L 165.0 162.0 L 167.0 161.0 " stroke="black" fill="none" stroke-width="5.0" stroke-linecap="round" stroke-linejoin="round" />
</svg>