<svg xmlns="http://www.w3.org/2000/svg" width="300" height="300" viewBox="0 0 300 300">
<path d="M 137.0 110.0 L 137.0 109.0 L 137.0 109.0 L 137.0 108.0 L 137.0 109.0 L 135.0 115.0 L 130.0 127.0 L 118.0 146.0 L 108.0 161.0 L 105.0 166.0 " stroke="black" fill="none" stroke-width="5.0" stroke-linecap="round" stroke-linejoin="round" />
<path d="M 124.0 142.0 L 124.0 142.0 L 124.0 142.0 L 125.0 143.0 L 125.0 150.0 L 125.0 167.0 L 125.0 183.0 L 125.0 188.0 " stroke="black" fill="none" stroke-width="5.0" stroke-linecap="round" stroke-linejoin="round" />
<path d="M 149.0 118.0 L 148.0 118.0 L 148.0 118.0 L 147.0 119.0 L 148.0 119.0 L 156.0 118.0 L 169.0 117.0 L 183.0 116.0 L 193.0 116.0 L 194.0 116.0 " stroke="black" fill="none" stroke-width="5.0" stroke-linecap="round" stroke-linejoin="round" />
<path d="M 177.0 126.0 L 177.0 126.0 L 176.0 126.0 L 175.0 126.0 L 175.0 129.0 L 178.0 139.0 L 181.0 157.0 L 184.0 176.0 L 185.0 188.0 L 185.0 193.0 L 184.0 194.0 L 179.0 195.0 L 169.0 193.0 L 162.0 191.0 " stroke="black" fill="none" stroke-width="5.0" stroke-linecap="round" stroke-linejoin="round" />
<path d="M 147.0 148.0 L 147.0 148.0 L 146.0 150.0 L 146.0 153.0 L 147.0 159.0 L 147.0 162.0 " stroke="black" fill="none" stroke-width="5.0" stroke-linecap="round" stroke-linejoin="round" />
<path d="M 148.0 149.0 L 148.0 148.0 L 149.0 147.0 L 150.0 146.0 L 153.0 146.0 L 157.0 146.0 L 160.0 146.0 L 163.0 149.0 L 165.0 153.0 L 166.0 159.0 L 167.0 165.0 L 167.0 167.0 " stroke="black" fill="none" stroke-width="5.0" stroke-linecap="round" stroke-linejoin="round" />
<path d="M 146.0 166.0 L 146.0 166.0 L 147.0 167.0 L 150.0 168.0 L 156.0 168.0 L 166.0 168.0 L 169.0 167.0 " stroke="black" fill="none" stroke-width="5.0" stroke-linecap="round" stroke-linejoin="round" />
</svg>