<svg xmlns="http://www.w3.org/2000/svg" width="300" height="300" viewBox="0 0 300 300">
<path d="M 137.0 102.0 L 137.0 104.0 L 137.0 107.0 L 137.0 112.0 L 137.0 119.0 L 138.0 127.0 L 138.0 128.0 " stroke="black" fill="none" stroke-width="5.0" stroke-linecap="round" stroke-linejoin="round" />
<path d="M 118.0 119.0 L 119.0 118.0 L 120.0 118.0 L 125.0 117.0 L 137.0 116.0 L 151.0 115.0 L 164.0 114.0 L 172.0 113.0 L 175.0 112.0 L 176.0 112.0 L 174.0 113.0 " stroke="black" fill="none" stroke-width="5.0" stroke-linecap="round" stroke-linejoin="round" />
<path d="M 157.0 100.0 L 157.0 101.0 L 157.0 103.0 L 157.0 108.0 L 158.0 117.0 L 158.0 124.0 " stroke="black" fill="none" stroke-width="5.0" stroke-linecap="round" stroke-linejoin="round" />
<path d="M 123.0 147.0 L 123.0 147.0 L 123.0 147.0 L 123.0 147.0 L 123.0 150.0 L 123.0 161.0 L 123.0 178.0 L 123.0 193.0 L 123.0 198.0 L 123.0 198.0 L 124.0 197.0 " stroke="black" fill="none" stroke-width="5.0" stroke-linecap="round" stroke-linejoin="round" />
<path d="M 124.0 149.0 L 124.0 149.0 L 125.0 149.0 L 127.0 149.0 L 130.0 149.0 L 135.0 149.0 L 139.0 150.0 L 143.0 151.0 L 146.0 157.0 L 150.0 168.0 L 153.0 183.0 L 155.0 196.0 L 156.0 203.0 L 156.0 204.0 L 153.0 205.0 L 146.0 202.0 " stroke="black" fill="none" stroke-width="5.0" stroke-linecap="round" stroke-linejoin="round" />
<path d="M 121.0 136.0 L 122.0 137.0 L 122.0 139.0 L 124.0 142.0 L 125.0 143.0 " stroke="black" fill="none" stroke-width="5.0" stroke-linecap="round" stroke-linejoin="round" />
<path d="M 143.0 138.0 L 142.0 138.0 L 141.0 139.0 L 140.0 140.0 L 139.0 142.0 " stroke="black" fill="none" stroke-width="5.0" stroke-linecap="round" stroke-linejoin="round" />
<path d="M 130.0 135.0 L 130.0 135.0 L 130.0 134.0 L 130.0 134.0 L 131.0 140.0 L 135.0 158.0 L 137.0 180.0 L 138.0 192.0 L 139.0 196.0 L 139.0 196.0 " stroke="black" fill="none" stroke-width="5.0" stroke-linecap="round" stroke-linejoin="round" />
<path d="M 132.0 168.0 L 132.0 169.0 L 132.0 169.0 L 132.0 170.0 L 131.0 174.0 L 128.0 179.0 L 127.0 182.0 " stroke="black" fill="none" stroke-width="5.0" stroke-linecap="round" stroke-linejoin="round" />
<path d="M 138.0 168.0 L 138.0 169.0 L 139.0 172.0 L 141.0 176.0 L 145.0 181.0 L 147.0 183.0 " stroke="black" fill="none" stroke-width="5.0" stroke-linecap="round" stroke-linejoin="round" />
<path d="M 155.0 138.0 L 155.0 138.0 L 155.0 137.0 L 155.0 137.0 L 155.0 137.0 L 155.0 144.0 L 154.0 154.0 L 152.0 162.0 " stroke="black" fill="none" stroke-width="5.0" stroke-linecap="round" stroke-linejoin="round" />
<path d="M 156.0 149.0 L 156.0 149.0 L 157.0 149.0 L 162.0 148.0 L 168.0 148.0 L 173.0 148.0 L 174.0 148.0 " stroke="black" fill="none" stroke-width="5.0" stroke-linecap="round" stroke-linejoin="round" />
<path d="M 170.0 152.0 L 170.0 152.0 L 169.0 152.0 L 169.0 154.0 L 168.0 158.0 L 168.0 169.0 L 167.0 186.0 L 164.0 200.0 L 161.0 207.0 L 160.0 207.0 " stroke="black" fill="none" stroke-width="5.0" stroke-linecap="round" stroke-linejoin="round" />
<path d="M 155.0 165.0 L 155.0 166.0 L 157.0 167.0 L 160.0 172.0 L 168.0 183.0 L 180.0 198.0 L 188.0 207.0 L 191.0 211.0 L 192.0 212.0 L 192.0 212.0 " stroke="black" fill="none" stroke-width="5.0" stroke-linecap="round" stroke-linejoin="round" />
</svg>