<svg xmlns="http://www.w3.org/2000/svg" width="300" height="300" viewBox="0 0 300 300">
<path d="M 168.0 114.0 L 168.0 115.0 L 167.0 115.0 L 167.0 116.0 L 165.0 118.0 L 161.0 123.0 L 153.0 133.0 L 141.0 145.0 L 135.0 150.0 " stroke="black" fill="none" stroke-width="5.0" stroke-linecap="round" stroke-linejoin="round" />
<path d="M 123.0 170.0 L 123.0 170.0 L 123.0 170.0 L 123.0 170.0 L 123.0 170.0 L 127.0 170.0 L 137.0 170.0 L 153.0 169.0 L 169.0 169.0 L 180.0 169.0 " stroke="black" fill="none" stroke-width="5.0" stroke-linecap="round" stroke-linejoin="round" />
<path d="M 159.0 137.0 L 159.0 136.0 L 159.0 135.0 L 159.0 134.0 L 159.0 134.0 L 159.0 136.0 L 159.0 147.0 L 160.0 170.0 L 161.0 198.0 L 161.0 212.0 L 161.0 214.0 " stroke="black" fill="none" stroke-width="5.0" stroke-linecap="round" stroke-linejoin="round" />
</svg>