<svg xmlns="http://www.w3.org/2000/svg" width="300" height="300" viewBox="0 0 300 300">
<path d="M 129.0 113.0 L 129.0 113.0 L 128.0 113.0 L 127.0 114.0 L 126.0 116.0 L 123.0 122.0 L 117.0 132.0 L 110.0 140.0 " stroke="black" fill="none" stroke-width="5.0" stroke-linecap="round" stroke-linejoin="round" />
<path d="M 134.0 127.0 L 134.0 127.0 L 134.0 128.0 L 133.0 129.0 L 132.0 132.0 L 130.0 137.0 L 125.0 146.0 L 115.0 161.0 L 105.0 173.0 L 102.0 178.0 L 102.0 178.0 " stroke="black" fill="none" stroke-width="5.0" stroke-linecap="round" stroke-linejoin="round" />
<path d="M 121.0 152.0 L 121.0 152.0 L 122.0 152.0 L 122.0 153.0 L 122.0 158.0 L 123.0 170.0 L 123.0 185.0 L 122.0 195.0 L 122.0 199.0 " stroke="black" fill="none" stroke-width="5.0" stroke-linecap="round" stroke-linejoin="round" />
<path d="M 163.0 107.0 L 163.0 107.0 L 163.0 108.0 L 163.0 110.0 L 164.0 116.0 L 165.0 125.0 L 165.0 135.0 L 165.0 140.0 L 165.0 142.0 " stroke="black" fill="none" stroke-width="5.0" stroke-linecap="round" stroke-linejoin="round" />
<path d="M 166.0 122.0 L 166.0 122.0 L 167.0 122.0 L 167.0 122.0 L 169.0 123.0 L 174.0 123.0 L 179.0 123.0 L 182.0 123.0 " stroke="black" fill="none" stroke-width="5.0" stroke-linecap="round" stroke-linejoin="round" />
<path d="M 151.0 118.0 L 151.0 118.0 L 151.0 120.0 L 151.0 125.0 L 151.0 133.0 L 152.0 142.0 L 152.0 145.0 " stroke="black" fill="none" stroke-width="5.0" stroke-linecap="round" stroke-linejoin="round" />
<path d="M 140.0 148.0 L 140.0 148.0 L 141.0 148.0 L 144.0 148.0 L 152.0 148.0 L 165.0 147.0 L 178.0 147.0 L 186.0 147.0 L 188.0 148.0 L 188.0 149.0 " stroke="black" fill="none" stroke-width="5.0" stroke-linecap="round" stroke-linejoin="round" />
<path d="M 161.0 148.0 L 161.0 148.0 L 161.0 148.0 L 161.0 149.0 L 161.0 152.0 L 162.0 159.0 L 163.0 168.0 L 163.0 176.0 L 163.0 180.0 L 163.0 181.0 " stroke="black" fill="none" stroke-width="5.0" stroke-linecap="round" stroke-linejoin="round" />
<path d="M 163.0 166.0 L 165.0 166.0 L 167.0 166.0 L 171.0 166.0 L 175.0 166.0 L 178.0 166.0 L 180.0 167.0 " stroke="black" fill="none" stroke-width="5.0" stroke-linecap="round" stroke-linejoin="round" />
<path d="M 141.0 163.0 L 141.0 163.0 L 141.0 163.0 L 142.0 163.0 L 142.0 166.0 L 142.0 172.0 L 141.0 181.0 L 137.0 190.0 L 136.0 193.0 " stroke="black" fill="none" stroke-width="5.0" stroke-linecap="round" stroke-linejoin="round" />
<path d="M 140.0 181.0 L 141.0 181.0 L 142.0 181.0 L 145.0 183.0 L 152.0 187.0 L 163.0 194.0 L 174.0 200.0 L 183.0 203.0 L 190.0 204.0 L 194.0 204.0 L 196.0 205.0 " stroke="black" fill="none" stroke-width="5.0" stroke-linecap="round" stroke-linejoin="round" />
</svg>