<svg xmlns="http://www.w3.org/2000/svg" width="300" height="300" viewBox="0 0 300 300">
<path d="M 111.0 126.0 L 111.0 126.0 L 111.0 126.0 L 111.0 126.0 L 113.0 126.0 L 117.0 127.0 L 122.0 127.0 L 127.0 127.0 L 129.0 127.0 L 130.0 127.0 " stroke="black" fill="none" stroke-width="5.0" stroke-linecap="round" stroke-linejoin="round" />
<path d="M 117.0 107.0 L 117.0 107.0 L 117.0 106.0 L 117.0 106.0 L 117.0 107.0 L 117.0 116.0 L 117.0 135.0 L 117.0 157.0 L 117.0 173.0 L 117.0 184.0 L 118.0 188.0 L 118.0 189.0 L 118.0 189.0 " stroke="black" fill="none" stroke-width="5.0" stroke-linecap="round" stroke-linejoin="round" />
<path d="M 113.0 135.0 L 114.0 135.0 L 114.0 134.0 L 114.0 134.0 L 114.0 135.0 L 113.0 138.0 L 110.0 144.0 L 105.0 152.0 L 100.0 161.0 L 96.0 166.0 L 96.0 167.0 " stroke="black" fill="none" stroke-width="5.0" stroke-linecap="round" stroke-linejoin="round" />
<path d="M 118.0 138.0 L 118.0 138.0 L 119.0 138.0 L 121.0 139.0 L 126.0 146.0 L 131.0 155.0 L 135.0 162.0 L 136.0 164.0 " stroke="black" fill="none" stroke-width="5.0" stroke-linecap="round" stroke-linejoin="round" />
<path d="M 151.0 115.0 L 151.0 116.0 L 151.0 117.0 L 151.0 120.0 L 151.0 125.0 L 151.0 130.0 L 151.0 134.0 L 151.0 135.0 " stroke="black" fill="none" stroke-width="5.0" stroke-linecap="round" stroke-linejoin="round" />
<path d="M 150.0 125.0 L 150.0 125.0 L 150.0 125.0 L 151.0 125.0 L 152.0 126.0 L 154.0 126.0 L 157.0 126.0 L 159.0 126.0 " stroke="black" fill="none" stroke-width="5.0" stroke-linecap="round" stroke-linejoin="round" />
<path d="M 137.0 139.0 L 137.0 139.0 L 137.0 139.0 L 139.0 139.0 L 143.0 139.0 L 150.0 139.0 L 158.0 139.0 L 163.0 139.0 L 165.0 138.0 L 164.0 138.0 " stroke="black" fill="none" stroke-width="5.0" stroke-linecap="round" stroke-linejoin="round" />
<path d="M 151.0 139.0 L 151.0 139.0 L 151.0 139.0 L 151.0 139.0 L 152.0 141.0 L 154.0 149.0 L 155.0 162.0 L 156.0 174.0 L 156.0 181.0 L 156.0 183.0 L 155.0 183.0 L 152.0 180.0 L 148.0 176.0 L 144.0 173.0 " stroke="black" fill="none" stroke-width="5.0" stroke-linecap="round" stroke-linejoin="round" />
<path d="M 146.0 152.0 L 145.0 152.0 L 144.0 153.0 L 142.0 156.0 L 139.0 161.0 L 136.0 167.0 L 135.0 172.0 L 135.0 173.0 " stroke="black" fill="none" stroke-width="5.0" stroke-linecap="round" stroke-linejoin="round" />
<path d="M 163.0 155.0 L 163.0 156.0 L 164.0 159.0 L 167.0 163.0 L 169.0 168.0 L 170.0 170.0 " stroke="black" fill="none" stroke-width="5.0" stroke-linecap="round" stroke-linejoin="round" />
<path d="M 177.0 130.0 L 178.0 130.0 L 178.0 130.0 L 180.0 130.0 L 184.0 130.0 L 188.0 129.0 L 191.0 129.0 L 193.0 128.0 L 193.0 130.0 L 193.0 136.0 L 191.0 148.0 L 187.0 162.0 L 182.0 173.0 L 177.0 181.0 L 174.0 183.0 L 172.0 182.0 " stroke="black" fill="none" stroke-width="5.0" stroke-linecap="round" stroke-linejoin="round" />
<path d="M 176.0 145.0 L 176.0 146.0 L 178.0 148.0 L 181.0 152.0 L 188.0 159.0 L 196.0 168.0 L 202.0 174.0 L 205.0 178.0 L 206.0 180.0 L 206.0 180.0 L 206.0 178.0 L 205.0 176.0 " stroke="black" fill="none" stroke-width="5.0" stroke-linecap="round" stroke-linejoin="round" />
</svg>