<svg xmlns="http://www.w3.org/2000/svg" width="300" height="300" viewBox="0 0 300 300">
<path d="M 106.0 123.0 L 107.0 123.0 L 107.0 123.0 L 107.0 124.0 L 108.0 124.0 L 110.0 125.0 L 115.0 125.0 L 121.0 125.0 L 125.0 124.0 " stroke="black" fill="none" stroke-width="5.0" stroke-linecap="round" stroke-linejoin="round" />
<path d="M 117.0 105.0 L 117.0 105.0 L 118.0 105.0 L 118.0 106.0 L 118.0 110.0 L 118.0 119.0 L 118.0 134.0 L 118.0 152.0 L 117.0 168.0 L 117.0 179.0 L 116.0 184.0 L 116.0 184.0 " stroke="black" fill="none" stroke-width="5.0" stroke-linecap="round" stroke-linejoin="round" />
<path d="M 117.0 133.0 L 117.0 133.0 L 117.0 133.0 L 117.0 133.0 L 117.0 134.0 L 115.0 137.0 L 111.0 144.0 L 106.0 153.0 L 100.0 161.0 L 99.0 163.0 " stroke="black" fill="none" stroke-width="5.0" stroke-linecap="round" stroke-linejoin="round" />
<path d="M 118.0 140.0 L 118.0 140.0 L 118.0 140.0 L 119.0 140.0 L 122.0 142.0 L 128.0 151.0 L 135.0 161.0 L 139.0 167.0 L 140.0 168.0 " stroke="black" fill="none" stroke-width="5.0" stroke-linecap="round" stroke-linejoin="round" />
<path d="M 152.0 109.0 L 152.0 109.0 L 152.0 109.0 L 152.0 110.0 L 152.0 112.0 L 152.0 117.0 L 152.0 124.0 L 153.0 128.0 L 153.0 130.0 " stroke="black" fill="none" stroke-width="5.0" stroke-linecap="round" stroke-linejoin="round" />
<path d="M 154.0 118.0 L 154.0 118.0 L 154.0 119.0 L 156.0 119.0 L 158.0 119.0 L 161.0 119.0 L 164.0 119.0 L 164.0 120.0 " stroke="black" fill="none" stroke-width="5.0" stroke-linecap="round" stroke-linejoin="round" />
<path d="M 140.0 138.0 L 140.0 138.0 L 140.0 138.0 L 142.0 138.0 L 147.0 138.0 L 154.0 137.0 L 161.0 137.0 L 165.0 137.0 L 165.0 138.0 " stroke="black" fill="none" stroke-width="5.0" stroke-linecap="round" stroke-linejoin="round" />
<path d="M 153.0 137.0 L 153.0 137.0 L 153.0 137.0 L 153.0 137.0 L 153.0 138.0 L 154.0 146.0 L 156.0 161.0 L 158.0 177.0 L 159.0 187.0 L 159.0 191.0 L 157.0 191.0 L 153.0 189.0 L 149.0 185.0 L 145.0 181.0 " stroke="black" fill="none" stroke-width="5.0" stroke-linecap="round" stroke-linejoin="round" />
<path d="M 146.0 151.0 L 146.0 151.0 L 145.0 151.0 L 145.0 152.0 L 144.0 155.0 L 142.0 163.0 L 139.0 171.0 L 138.0 175.0 " stroke="black" fill="none" stroke-width="5.0" stroke-linecap="round" stroke-linejoin="round" />
<path d="M 161.0 152.0 L 161.0 152.0 L 162.0 153.0 L 163.0 156.0 L 167.0 163.0 L 171.0 173.0 L 174.0 179.0 " stroke="black" fill="none" stroke-width="5.0" stroke-linecap="round" stroke-linejoin="round" />
<path d="M 181.0 135.0 L 181.0 135.0 L 181.0 135.0 L 182.0 135.0 L 184.0 135.0 L 187.0 135.0 L 189.0 135.0 L 191.0 135.0 L 192.0 139.0 L 192.0 146.0 L 191.0 157.0 L 188.0 168.0 L 185.0 176.0 L 183.0 179.0 L 183.0 179.0 " stroke="black" fill="none" stroke-width="5.0" stroke-linecap="round" stroke-linejoin="round" />
<path d="M 181.0 146.0 L 181.0 146.0 L 181.0 147.0 L 182.0 149.0 L 187.0 155.0 L 194.0 166.0 L 200.0 175.0 L 204.0 179.0 L 204.0 180.0 L 203.0 177.0 " stroke="black" fill="none" stroke-width="5.0" stroke-linecap="round" stroke-linejoin="round" />
</svg>