<svg xmlns="http://www.w3.org/2000/svg" width="300" height="300" viewBox="0 0 300 300">
<path d="M 129.0 111.0 L 129.0 111.0 L 129.0 111.0 L 129.0 111.0 L 129.0 111.0 L 133.0 111.0 L 141.0 109.0 L 151.0 108.0 L 160.0 107.0 L 165.0 107.0 L 166.0 107.0 L 166.0 107.0 " stroke="black" fill="none" stroke-width="5.0" stroke-linecap="round" stroke-linejoin="round" />
<path d="M 137.0 123.0 L 137.0 123.0 L 138.0 123.0 L 140.0 123.0 L 145.0 123.0 L 152.0 123.0 L 157.0 123.0 L 158.0 123.0 " stroke="black" fill="none" stroke-width="5.0" stroke-linecap="round" stroke-linejoin="round" />
<path d="M 115.0 143.0 L 115.0 143.0 L 115.0 143.0 L 118.0 143.0 L 129.0 142.0 L 146.0 141.0 L 161.0 141.0 L 171.0 141.0 L 176.0 141.0 L 176.0 142.0 " stroke="black" fill="none" stroke-width="5.0" stroke-linecap="round" stroke-linejoin="round" />
<path d="M 144.0 101.0 L 144.0 101.0 L 144.0 101.0 L 144.0 101.0 L 144.0 103.0 L 145.0 113.0 L 147.0 128.0 " stroke="black" fill="none" stroke-width="5.0" stroke-linecap="round" stroke-linejoin="round" />
<path d="M 146.0 141.0 L 146.0 141.0 L 146.0 141.0 L 146.0 141.0 L 146.0 141.0 L 145.0 141.0 L 142.0 145.0 L 135.0 152.0 L 128.0 159.0 L 124.0 163.0 L 124.0 164.0 L 130.0 164.0 L 137.0 164.0 L 143.0 164.0 L 145.0 164.0 " stroke="black" fill="none" stroke-width="5.0" stroke-linecap="round" stroke-linejoin="round" />
<path d="M 152.0 157.0 L 152.0 157.0 L 152.0 158.0 L 151.0 158.0 L 150.0 159.0 L 147.0 162.0 L 142.0 167.0 L 134.0 173.0 L 128.0 178.0 L 127.0 179.0 L 130.0 180.0 L 136.0 180.0 L 144.0 179.0 L 152.0 178.0 L 156.0 177.0 " stroke="black" fill="none" stroke-width="5.0" stroke-linecap="round" stroke-linejoin="round" />
<path d="M 157.0 169.0 L 157.0 169.0 L 158.0 169.0 L 158.0 169.0 L 160.0 172.0 L 162.0 178.0 L 164.0 184.0 L 164.0 186.0 " stroke="black" fill="none" stroke-width="5.0" stroke-linecap="round" stroke-linejoin="round" />
<path d="M 143.0 184.0 L 143.0 184.0 L 143.0 184.0 L 143.0 184.0 L 143.0 185.0 L 144.0 190.0 L 145.0 199.0 L 146.0 206.0 L 146.0 210.0 L 146.0 211.0 L 144.0 211.0 L 139.0 209.0 L 138.0 208.0 " stroke="black" fill="none" stroke-width="5.0" stroke-linecap="round" stroke-linejoin="round" />
<path d="M 126.0 189.0 L 126.0 189.0 L 124.0 190.0 L 122.0 192.0 L 119.0 195.0 L 117.0 199.0 L 116.0 201.0 " stroke="black" fill="none" stroke-width="5.0" stroke-linecap="round" stroke-linejoin="round" />
<path d="M 158.0 193.0 L 160.0 194.0 L 162.0 195.0 L 165.0 198.0 L 168.0 203.0 L 171.0 207.0 L 172.0 211.0 L 172.0 211.0 " stroke="black" fill="none" stroke-width="5.0" stroke-linecap="round" stroke-linejoin="round" />
</svg>