<svg xmlns="http://www.w3.org/2000/svg" width="300" height="300" viewBox="0 0 300 300">
<path d="M 137.0 107.0 L 137.0 107.0 L 137.0 107.0 L 137.0 108.0 L 137.0 109.0 L 137.0 111.0 L 136.0 114.0 L 136.0 119.0 L 135.0 123.0 L 136.0 126.0 L 140.0 127.0 L 147.0 127.0 L 151.0 126.0 " stroke="black" fill="none" stroke-width="5.0" stroke-linecap="round" stroke-linejoin="round" />
<path d="M 152.0 106.0 L 152.0 106.0 L 152.0 106.0 L 152.0 107.0 L 152.0 112.0 L 152.0 119.0 L 152.0 126.0 " stroke="black" fill="none" stroke-width="5.0" stroke-linecap="round" stroke-linejoin="round" />
<path d="M 114.0 115.0 L 114.0 115.0 L 114.0 116.0 L 119.0 116.0 L 133.0 116.0 L 149.0 116.0 L 163.0 116.0 L 172.0 117.0 L 176.0 117.0 L 176.0 117.0 L 175.0 117.0 " stroke="black" fill="none" stroke-width="5.0" stroke-linecap="round" stroke-linejoin="round" />
<path d="M 114.0 139.0 L 114.0 139.0 L 115.0 139.0 L 117.0 139.0 L 124.0 139.0 L 135.0 139.0 L 150.0 139.0 L 163.0 140.0 L 172.0 140.0 L 176.0 139.0 L 177.0 139.0 " stroke="black" fill="none" stroke-width="5.0" stroke-linecap="round" stroke-linejoin="round" />
<path d="M 124.0 154.0 L 124.0 154.0 L 124.0 154.0 L 124.0 154.0 L 124.0 155.0 L 125.0 160.0 L 126.0 166.0 L 127.0 171.0 L 128.0 172.0 L 128.0 172.0 " stroke="black" fill="none" stroke-width="5.0" stroke-linecap="round" stroke-linejoin="round" />
<path d="M 124.0 152.0 L 125.0 152.0 L 126.0 152.0 L 127.0 152.0 L 132.0 152.0 L 140.0 152.0 L 149.0 151.0 L 157.0 150.0 L 162.0 152.0 L 165.0 156.0 L 168.0 161.0 L 169.0 164.0 L 170.0 167.0 L 171.0 169.0 L 171.0 170.0 L 171.0 170.0 " stroke="black" fill="none" stroke-width="5.0" stroke-linecap="round" stroke-linejoin="round" />
<path d="M 131.0 164.0 L 131.0 164.0 L 133.0 164.0 L 136.0 164.0 L 143.0 164.0 L 151.0 164.0 L 159.0 164.0 L 161.0 164.0 " stroke="black" fill="none" stroke-width="5.0" stroke-linecap="round" stroke-linejoin="round" />
<path d="M 143.0 155.0 L 143.0 156.0 L 143.0 159.0 L 143.0 163.0 L 144.0 168.0 L 145.0 169.0 " stroke="black" fill="none" stroke-width="5.0" stroke-linecap="round" stroke-linejoin="round" />
<path d="M 124.0 178.0 L 124.0 178.0 L 124.0 178.0 L 126.0 178.0 L 131.0 178.0 L 142.0 178.0 L 154.0 178.0 L 162.0 177.0 L 167.0 177.0 L 167.0 177.0 " stroke="black" fill="none" stroke-width="5.0" stroke-linecap="round" stroke-linejoin="round" />
<path d="M 139.0 186.0 L 139.0 186.0 L 139.0 186.0 L 139.0 186.0 L 138.0 188.0 L 137.0 191.0 L 136.0 195.0 L 135.0 196.0 " stroke="black" fill="none" stroke-width="5.0" stroke-linecap="round" stroke-linejoin="round" />
<path d="M 158.0 185.0 L 160.0 186.0 L 162.0 188.0 L 166.0 191.0 L 170.0 196.0 L 174.0 200.0 L 175.0 202.0 " stroke="black" fill="none" stroke-width="5.0" stroke-linecap="round" stroke-linejoin="round" />
</svg>