<svg xmlns="http://www.w3.org/2000/svg" width="300" height="300" viewBox="0 0 300 300">
<path d="M 139.0 104.0 L 139.0 104.0 L 139.0 104.0 L 139.0 104.0 L 139.0 104.0 L 139.0 105.0 L 139.0 109.0 L 138.0 118.0 L 138.0 130.0 L 138.0 131.0 L 138.0 131.0 L 142.0 130.0 L 148.0 130.0 L 154.0 130.0 L 156.0 130.0 " stroke="black" fill="none" stroke-width="5.0" stroke-linecap="round" stroke-linejoin="round" />
<path d="M 156.0 105.0 L 156.0 105.0 L 156.0 105.0 L 156.0 106.0 L 156.0 112.0 L 156.0 122.0 L 156.0 130.0 L 156.0 133.0 " stroke="black" fill="none" stroke-width="5.0" stroke-linecap="round" stroke-linejoin="round" />
<path d="M 115.0 119.0 L 116.0 119.0 L 117.0 119.0 L 120.0 119.0 L 128.0 119.0 L 143.0 119.0 L 158.0 120.0 L 170.0 120.0 L 178.0 120.0 L 180.0 121.0 L 178.0 122.0 " stroke="black" fill="none" stroke-width="5.0" stroke-linecap="round" stroke-linejoin="round" />
<path d="M 119.0 145.0 L 119.0 145.0 L 120.0 145.0 L 120.0 145.0 L 124.0 145.0 L 133.0 145.0 L 147.0 146.0 L 161.0 146.0 L 170.0 146.0 L 172.0 146.0 " stroke="black" fill="none" stroke-width="5.0" stroke-linecap="round" stroke-linejoin="round" />
<path d="M 127.0 162.0 L 127.0 162.0 L 127.0 163.0 L 126.0 164.0 L 126.0 168.0 L 128.0 174.0 L 129.0 178.0 L 130.0 178.0 " stroke="black" fill="none" stroke-width="5.0" stroke-linecap="round" stroke-linejoin="round" />
<path d="M 127.0 161.0 L 128.0 161.0 L 128.0 163.0 L 130.0 161.0 L 135.0 159.0 L 143.0 158.0 L 152.0 157.0 L 159.0 157.0 L 164.0 158.0 L 167.0 162.0 L 168.0 167.0 L 169.0 172.0 L 169.0 176.0 L 169.0 178.0 L 167.0 178.0 " stroke="black" fill="none" stroke-width="5.0" stroke-linecap="round" stroke-linejoin="round" />
<path d="M 134.0 168.0 L 134.0 168.0 L 134.0 168.0 L 133.0 169.0 L 133.0 169.0 L 134.0 169.0 L 138.0 169.0 L 144.0 169.0 L 151.0 169.0 L 156.0 169.0 " stroke="black" fill="none" stroke-width="5.0" stroke-linecap="round" stroke-linejoin="round" />
<path d="M 145.0 161.0 L 145.0 161.0 L 145.0 161.0 L 145.0 162.0 L 145.0 165.0 L 146.0 170.0 L 146.0 174.0 " stroke="black" fill="none" stroke-width="5.0" stroke-linecap="round" stroke-linejoin="round" />
<path d="M 131.0 181.0 L 131.0 181.0 L 131.0 181.0 L 132.0 182.0 L 137.0 182.0 L 146.0 181.0 L 155.0 180.0 L 161.0 180.0 L 163.0 180.0 " stroke="black" fill="none" stroke-width="5.0" stroke-linecap="round" stroke-linejoin="round" />
<path d="M 138.0 191.0 L 137.0 191.0 L 136.0 191.0 L 134.0 192.0 L 133.0 194.0 L 131.0 199.0 L 131.0 202.0 " stroke="black" fill="none" stroke-width="5.0" stroke-linecap="round" stroke-linejoin="round" />
<path d="M 158.0 192.0 L 159.0 192.0 L 161.0 194.0 L 163.0 198.0 L 167.0 204.0 L 169.0 208.0 " stroke="black" fill="none" stroke-width="5.0" stroke-linecap="round" stroke-linejoin="round" />
</svg>