<svg xmlns="http://www.w3.org/2000/svg" width="300" height="300" viewBox="0 0 300 300">
<path d="M 134.0 112.0 L 134.0 112.0 L 134.0 112.0 L 134.0 113.0 L 134.0 115.0 L 133.0 118.0 L 129.0 125.0 L 116.0 142.0 L 110.0 149.0 L 109.0 149.0 " stroke="black" fill="none" stroke-width="5.0" stroke-linecap="round" stroke-linejoin="round" />
<path d="M 138.0 132.0 L 138.0 132.0 L 137.0 132.0 L 137.0 132.0 L 136.0 135.0 L 131.0 142.0 L 117.0 161.0 L 109.0 171.0 L 104.0 178.0 L 103.0 179.0 " stroke="black" fill="none" stroke-width="5.0" stroke-linecap="round" stroke-linejoin="round" />
<path d="M 125.0 150.0 L 125.0 150.0 L 125.0 150.0 L 125.0 151.0 L 125.0 155.0 L 126.0 169.0 L 126.0 182.0 L 126.0 189.0 " stroke="black" fill="none" stroke-width="5.0" stroke-linecap="round" stroke-linejoin="round" />
<path d="M 157.0 108.0 L 157.0 108.0 L 157.0 108.0 L 157.0 108.0 L 157.0 108.0 L 157.0 109.0 L 157.0 111.0 L 155.0 114.0 L 152.0 119.0 L 151.0 124.0 L 151.0 127.0 L 154.0 127.0 L 155.0 127.0 " stroke="black" fill="none" stroke-width="5.0" stroke-linecap="round" stroke-linejoin="round" />
<path d="M 168.0 116.0 L 168.0 116.0 L 167.0 117.0 L 166.0 118.0 L 164.0 120.0 L 161.0 123.0 L 156.0 129.0 L 152.0 137.0 L 149.0 143.0 L 149.0 146.0 L 152.0 146.0 L 159.0 146.0 L 166.0 145.0 L 172.0 143.0 L 173.0 143.0 " stroke="black" fill="none" stroke-width="5.0" stroke-linecap="round" stroke-linejoin="round" />
<path d="M 171.0 139.0 L 172.0 138.0 L 172.0 138.0 L 174.0 140.0 L 177.0 145.0 L 180.0 152.0 L 180.0 153.0 " stroke="black" fill="none" stroke-width="5.0" stroke-linecap="round" stroke-linejoin="round" />
<path d="M 154.0 150.0 L 154.0 150.0 L 155.0 149.0 L 155.0 149.0 L 155.0 149.0 L 153.0 153.0 L 149.0 163.0 L 145.0 170.0 L 142.0 174.0 L 141.0 175.0 " stroke="black" fill="none" stroke-width="5.0" stroke-linecap="round" stroke-linejoin="round" />
<path d="M 151.0 162.0 L 152.0 162.0 L 154.0 162.0 L 156.0 162.0 L 160.0 161.0 L 164.0 159.0 L 166.0 159.0 L 167.0 161.0 L 166.0 167.0 L 164.0 173.0 L 158.0 183.0 L 152.0 191.0 L 150.0 194.0 " stroke="black" fill="none" stroke-width="5.0" stroke-linecap="round" stroke-linejoin="round" />
<path d="M 146.0 166.0 L 147.0 167.0 L 149.0 168.0 L 154.0 174.0 L 163.0 184.0 L 172.0 195.0 L 177.0 201.0 L 179.0 204.0 L 179.0 204.0 L 179.0 203.0 " stroke="black" fill="none" stroke-width="5.0" stroke-linecap="round" stroke-linejoin="round" />
</svg>