<svg xmlns="http://www.w3.org/2000/svg" width="300" height="300" viewBox="0 0 300 300">
<path d="M 133.0 114.0 L 133.0 114.0 L 133.0 114.0 L 132.0 114.0 L 132.0 114.0 L 131.0 116.0 L 130.0 121.0 L 125.0 129.0 L 117.0 140.0 L 111.0 146.0 L 110.0 147.0 " stroke="black" fill="none" stroke-width="5.0" stroke-linecap="round" stroke-linejoin="round" />
<path d="M 117.0 118.0 L 117.0 118.0 L 117.0 118.0 L 117.0 118.0 L 118.0 118.0 L 121.0 125.0 L 125.0 142.0 L 130.0 163.0 L 133.0 181.0 L 134.0 191.0 L 134.0 196.0 L 132.0 197.0 L 127.0 197.0 L 119.0 194.0 L 114.0 190.0 " stroke="black" fill="none" stroke-width="5.0" stroke-linecap="round" stroke-linejoin="round" />
<path d="M 126.0 152.0 L 126.0 152.0 L 126.0 152.0 L 126.0 153.0 L 125.0 155.0 L 121.0 159.0 L 113.0 169.0 L 104.0 180.0 L 99.0 186.0 " stroke="black" fill="none" stroke-width="5.0" stroke-linecap="round" stroke-linejoin="round" />
<path d="M 146.0 115.0 L 146.0 115.0 L 146.0 115.0 L 146.0 116.0 L 146.0 119.0 L 146.0 123.0 L 146.0 127.0 L 146.0 128.0 " stroke="black" fill="none" stroke-width="5.0" stroke-linecap="round" stroke-linejoin="round" />
<path d="M 146.0 115.0 L 147.0 115.0 L 148.0 114.0 L 150.0 114.0 L 155.0 113.0 L 163.0 113.0 L 173.0 112.0 L 182.0 112.0 L 188.0 113.0 L 192.0 115.0 L 193.0 119.0 L 193.0 123.0 L 193.0 128.0 L 193.0 131.0 L 192.0 132.0 " stroke="black" fill="none" stroke-width="5.0" stroke-linecap="round" stroke-linejoin="round" />
<path d="M 152.0 131.0 L 152.0 131.0 L 152.0 131.0 L 152.0 131.0 L 156.0 131.0 L 164.0 131.0 L 176.0 130.0 L 184.0 130.0 L 187.0 130.0 L 187.0 131.0 " stroke="black" fill="none" stroke-width="5.0" stroke-linecap="round" stroke-linejoin="round" />
<path d="M 160.0 118.0 L 160.0 118.0 L 160.0 118.0 L 160.0 118.0 L 160.0 120.0 L 160.0 124.0 L 160.0 129.0 " stroke="black" fill="none" stroke-width="5.0" stroke-linecap="round" stroke-linejoin="round" />
<path d="M 176.0 116.0 L 176.0 116.0 L 176.0 116.0 L 175.0 118.0 L 174.0 123.0 L 173.0 129.0 " stroke="black" fill="none" stroke-width="5.0" stroke-linecap="round" stroke-linejoin="round" />
<path d="M 156.0 134.0 L 156.0 135.0 L 156.0 135.0 L 156.0 137.0 L 154.0 142.0 L 150.0 148.0 L 146.0 154.0 L 144.0 157.0 " stroke="black" fill="none" stroke-width="5.0" stroke-linecap="round" stroke-linejoin="round" />
<path d="M 154.0 148.0 L 154.0 148.0 L 154.0 148.0 L 154.0 148.0 L 154.0 147.0 L 157.0 147.0 L 163.0 146.0 L 171.0 146.0 L 178.0 146.0 L 184.0 146.0 L 188.0 146.0 L 190.0 146.0 L 191.0 147.0 L 193.0 149.0 L 194.0 153.0 L 195.0 159.0 L 196.0 170.0 L 197.0 182.0 L 198.0 191.0 L 199.0 197.0 L 199.0 200.0 L 199.0 203.0 L 198.0 204.0 L 195.0 205.0 L 189.0 205.0 L 183.0 202.0 " stroke="black" fill="none" stroke-width="5.0" stroke-linecap="round" stroke-linejoin="round" />
<path d="M 152.0 165.0 L 152.0 165.0 L 152.0 166.0 L 152.0 168.0 L 152.0 172.0 L 152.0 177.0 L 153.0 178.0 " stroke="black" fill="none" stroke-width="5.0" stroke-linecap="round" stroke-linejoin="round" />
<path d="M 152.0 166.0 L 152.0 166.0 L 152.0 166.0 L 153.0 166.0 L 156.0 166.0 L 162.0 166.0 L 169.0 165.0 L 174.0 165.0 L 178.0 168.0 L 179.0 171.0 L 180.0 174.0 L 180.0 177.0 L 179.0 178.0 L 178.0 179.0 " stroke="black" fill="none" stroke-width="5.0" stroke-linecap="round" stroke-linejoin="round" />
<path d="M 152.0 179.0 L 152.0 179.0 L 152.0 179.0 L 152.0 180.0 L 154.0 180.0 L 160.0 180.0 L 169.0 180.0 L 176.0 180.0 L 179.0 180.0 " stroke="black" fill="none" stroke-width="5.0" stroke-linecap="round" stroke-linejoin="round" />
<path d="M 163.0 156.0 L 163.0 156.0 L 163.0 156.0 L 163.0 160.0 L 164.0 168.0 L 165.0 177.0 L 166.0 183.0 L 166.0 186.0 " stroke="black" fill="none" stroke-width="5.0" stroke-linecap="round" stroke-linejoin="round" />
<path d="M 152.0 192.0 L 152.0 192.0 L 152.0 192.0 L 152.0 192.0 L 153.0 191.0 L 154.0 191.0 L 158.0 191.0 L 165.0 191.0 L 174.0 190.0 L 182.0 189.0 L 186.0 189.0 L 187.0 189.0 L 187.0 189.0 " stroke="black" fill="none" stroke-width="5.0" stroke-linecap="round" stroke-linejoin="round" />
<path d="M 186.0 183.0 L 186.0 183.0 L 186.0 183.0 L 186.0 183.0 L 186.0 184.0 L 187.0 187.0 L 189.0 190.0 " stroke="black" fill="none" stroke-width="5.0" stroke-linecap="round" stroke-linejoin="round" />
</svg>