<svg xmlns="http://www.w3.org/2000/svg" width="300" height="300" viewBox="0 0 300 300">
<path d="M 135.0 105.0 L 135.0 105.0 L 134.0 105.0 L 134.0 106.0 L 135.0 108.0 L 139.0 112.0 L 143.0 115.0 " stroke="black" fill="none" stroke-width="5.0" stroke-linecap="round" stroke-linejoin="round" />
<path d="M 159.0 102.0 L 159.0 103.0 L 158.0 104.0 L 158.0 107.0 L 157.0 110.0 L 155.0 114.0 L 153.0 117.0 " stroke="black" fill="none" stroke-width="5.0" stroke-linecap="round" stroke-linejoin="round" />
<path d="M 127.0 126.0 L 128.0 126.0 L 128.0 126.0 L 130.0 126.0 L 135.0 126.0 L 145.0 126.0 L 157.0 125.0 L 167.0 125.0 L 172.0 125.0 L 173.0 126.0 L 172.0 126.0 " stroke="black" fill="none" stroke-width="5.0" stroke-linecap="round" stroke-linejoin="round" />
<path d="M 135.0 144.0 L 136.0 144.0 L 136.0 144.0 L 137.0 144.0 L 139.0 144.0 L 143.0 144.0 L 150.0 144.0 L 156.0 143.0 L 159.0 143.0 " stroke="black" fill="none" stroke-width="5.0" stroke-linecap="round" stroke-linejoin="round" />
<path d="M 115.0 161.0 L 115.0 161.0 L 115.0 161.0 L 115.0 161.0 L 120.0 161.0 L 135.0 161.0 L 152.0 161.0 L 165.0 161.0 L 172.0 161.0 L 173.0 161.0 " stroke="black" fill="none" stroke-width="5.0" stroke-linecap="round" stroke-linejoin="round" />
<path d="M 148.0 128.0 L 148.0 130.0 L 149.0 135.0 L 150.0 144.0 L 150.0 152.0 L 150.0 158.0 " stroke="black" fill="none" stroke-width="5.0" stroke-linecap="round" stroke-linejoin="round" />
<path d="M 111.0 185.0 L 111.0 185.0 L 111.0 185.0 L 113.0 185.0 L 124.0 185.0 L 145.0 185.0 L 162.0 186.0 L 172.0 187.0 L 176.0 187.0 " stroke="black" fill="none" stroke-width="5.0" stroke-linecap="round" stroke-linejoin="round" />
<path d="M 149.0 166.0 L 149.0 166.0 L 149.0 166.0 L 148.0 167.0 L 147.0 171.0 L 144.0 181.0 L 137.0 195.0 L 127.0 208.0 L 123.0 212.0 " stroke="black" fill="none" stroke-width="5.0" stroke-linecap="round" stroke-linejoin="round" />
<path d="M 156.0 199.0 L 156.0 199.0 L 157.0 199.0 L 158.0 199.0 L 161.0 201.0 L 170.0 206.0 L 179.0 212.0 L 182.0 215.0 " stroke="black" fill="none" stroke-width="5.0" stroke-linecap="round" stroke-linejoin="round" />
</svg>