<svg xmlns="http://www.w3.org/2000/svg" width="300" height="300" viewBox="0 0 300 300">
<path d="M 129.0 126.0 L 129.0 127.0 L 128.0 128.0 L 125.0 131.0 L 121.0 139.0 L 115.0 151.0 L 109.0 162.0 L 108.0 165.0 L 108.0 165.0 " stroke="black" fill="none" stroke-width="5.0" stroke-linecap="round" stroke-linejoin="round" />
<path d="M 148.0 118.0 L 148.0 118.0 L 148.0 118.0 L 148.0 118.0 L 149.0 117.0 L 151.0 117.0 L 154.0 117.0 L 158.0 118.0 L 164.0 124.0 L 172.0 134.0 L 181.0 144.0 L 187.0 151.0 L 190.0 154.0 L 190.0 155.0 L 190.0 155.0 " stroke="black" fill="none" stroke-width="5.0" stroke-linecap="round" stroke-linejoin="round" />
<path d="M 147.0 146.0 L 147.0 146.0 L 147.0 146.0 L 147.0 147.0 L 147.0 149.0 L 145.0 154.0 L 140.0 164.0 L 132.0 178.0 L 126.0 188.0 L 124.0 192.0 L 124.0 193.0 L 129.0 194.0 L 137.0 194.0 L 147.0 194.0 L 156.0 194.0 L 165.0 193.0 L 169.0 192.0 L 169.0 192.0 " stroke="black" fill="none" stroke-width="5.0" stroke-linecap="round" stroke-linejoin="round" />
<path d="M 166.0 174.0 L 166.0 175.0 L 166.0 177.0 L 168.0 180.0 L 171.0 185.0 L 176.0 191.0 L 179.0 196.0 L 181.0 199.0 " stroke="black" fill="none" stroke-width="5.0" stroke-linecap="round" stroke-linejoin="round" />
</svg>