<svg xmlns="http://www.w3.org/2000/svg" width="300" height="300" viewBox="0 0 300 300">
<path d="M 117.0 124.0 L 117.0 124.0 L 117.0 124.0 L 117.0 124.0 L 122.0 124.0 L 130.0 124.0 L 135.0 124.0 " stroke="black" fill="none" stroke-width="5.0" stroke-linecap="round" stroke-linejoin="round" />
<path d="M 116.0 145.0 L 116.0 145.0 L 116.0 144.0 L 117.0 144.0 L 119.0 144.0 L 123.0 144.0 L 129.0 144.0 L 134.0 144.0 " stroke="black" fill="none" stroke-width="5.0" stroke-linecap="round" stroke-linejoin="round" />
<path d="M 105.0 167.0 L 105.0 167.0 L 105.0 167.0 L 107.0 167.0 L 115.0 167.0 L 128.0 167.0 L 140.0 167.0 L 144.0 167.0 " stroke="black" fill="none" stroke-width="5.0" stroke-linecap="round" stroke-linejoin="round" />
<path d="M 125.0 132.0 L 125.0 132.0 L 125.0 132.0 L 125.0 132.0 L 125.0 134.0 L 125.0 143.0 L 126.0 156.0 " stroke="black" fill="none" stroke-width="5.0" stroke-linecap="round" stroke-linejoin="round" />
<path d="M 157.0 112.0 L 157.0 112.0 L 157.0 112.0 L 157.0 114.0 L 156.0 118.0 L 153.0 128.0 L 148.0 139.0 " stroke="black" fill="none" stroke-width="5.0" stroke-linecap="round" stroke-linejoin="round" />
<path d="M 158.0 125.0 L 158.0 125.0 L 158.0 125.0 L 159.0 125.0 L 163.0 125.0 L 171.0 125.0 L 178.0 126.0 L 182.0 128.0 " stroke="black" fill="none" stroke-width="5.0" stroke-linecap="round" stroke-linejoin="round" />
<path d="M 148.0 147.0 L 148.0 147.0 L 148.0 147.0 L 150.0 148.0 L 157.0 148.0 L 169.0 148.0 L 180.0 148.0 L 187.0 148.0 L 189.0 148.0 " stroke="black" fill="none" stroke-width="5.0" stroke-linecap="round" stroke-linejoin="round" />
<path d="M 168.0 115.0 L 168.0 113.0 L 168.0 112.0 L 168.0 112.0 L 168.0 115.0 L 168.0 130.0 L 168.0 151.0 L 168.0 175.0 L 167.0 189.0 L 167.0 194.0 L 167.0 194.0 " stroke="black" fill="none" stroke-width="5.0" stroke-linecap="round" stroke-linejoin="round" />
<path d="M 167.0 150.0 L 167.0 150.0 L 167.0 150.0 L 166.0 150.0 L 163.0 152.0 L 157.0 159.0 L 147.0 172.0 L 137.0 185.0 L 136.0 187.0 " stroke="black" fill="none" stroke-width="5.0" stroke-linecap="round" stroke-linejoin="round" />
<path d="M 170.0 149.0 L 171.0 149.0 L 173.0 150.0 L 179.0 157.0 L 188.0 169.0 L 196.0 182.0 L 199.0 190.0 " stroke="black" fill="none" stroke-width="5.0" stroke-linecap="round" stroke-linejoin="round" />
</svg>