<svg xmlns="http://www.w3.org/2000/svg" width="300" height="300" viewBox="0 0 300 300">
<path d="M 115.0 118.0 L 115.0 119.0 L 115.0 122.0 L 115.0 125.0 L 115.0 130.0 L 115.0 136.0 L 114.0 147.0 L 111.0 172.0 L 110.0 183.0 L 109.0 187.0 L 109.0 187.0 L 109.0 186.0 " stroke="black" fill="none" stroke-width="5.0" stroke-linecap="round" stroke-linejoin="round" />
<path d="M 115.0 122.0 L 115.0 122.0 L 116.0 122.0 L 117.0 122.0 L 118.0 121.0 L 120.0 120.0 L 122.0 120.0 L 124.0 120.0 L 128.0 122.0 L 129.0 124.0 L 131.0 126.0 L 132.0 128.0 L 133.0 135.0 L 136.0 151.0 L 137.0 163.0 L 138.0 175.0 L 138.0 183.0 L 139.0 189.0 L 138.0 190.0 L 134.0 189.0 L 127.0 187.0 L 125.0 187.0 " stroke="black" fill="none" stroke-width="5.0" stroke-linecap="round" stroke-linejoin="round" />
<path d="M 115.0 141.0 L 116.0 140.0 L 117.0 139.0 L 119.0 139.0 L 122.0 139.0 L 128.0 140.0 L 136.0 141.0 L 137.0 142.0 " stroke="black" fill="none" stroke-width="5.0" stroke-linecap="round" stroke-linejoin="round" />
<path d="M 114.0 160.0 L 116.0 160.0 L 117.0 160.0 L 119.0 160.0 L 123.0 160.0 L 131.0 160.0 L 133.0 160.0 " stroke="black" fill="none" stroke-width="5.0" stroke-linecap="round" stroke-linejoin="round" />
<path d="M 153.0 113.0 L 153.0 113.0 L 153.0 113.0 L 154.0 113.0 L 155.0 115.0 L 156.0 118.0 L 156.0 119.0 " stroke="black" fill="none" stroke-width="5.0" stroke-linecap="round" stroke-linejoin="round" />
<path d="M 176.0 110.0 L 176.0 110.0 L 176.0 110.0 L 176.0 111.0 L 176.0 112.0 L 175.0 115.0 L 174.0 120.0 " stroke="black" fill="none" stroke-width="5.0" stroke-linecap="round" stroke-linejoin="round" />
<path d="M 152.0 129.0 L 152.0 129.0 L 152.0 129.0 L 152.0 129.0 L 155.0 129.0 L 162.0 128.0 L 170.0 128.0 L 177.0 128.0 L 181.0 128.0 L 182.0 129.0 " stroke="black" fill="none" stroke-width="5.0" stroke-linecap="round" stroke-linejoin="round" />
<path d="M 146.0 143.0 L 146.0 143.0 L 146.0 143.0 L 148.0 143.0 L 154.0 143.0 L 164.0 143.0 L 176.0 142.0 L 183.0 142.0 L 187.0 142.0 L 187.0 142.0 " stroke="black" fill="none" stroke-width="5.0" stroke-linecap="round" stroke-linejoin="round" />
<path d="M 166.0 109.0 L 166.0 109.0 L 167.0 109.0 L 167.0 108.0 L 168.0 108.0 L 168.0 108.0 L 169.0 110.0 L 169.0 119.0 L 167.0 130.0 L 161.0 143.0 L 156.0 153.0 L 151.0 161.0 L 148.0 164.0 " stroke="black" fill="none" stroke-width="5.0" stroke-linecap="round" stroke-linejoin="round" />
<path d="M 176.0 147.0 L 176.0 146.0 L 176.0 146.0 L 176.0 145.0 L 178.0 146.0 L 181.0 149.0 L 185.0 155.0 L 189.0 160.0 L 191.0 163.0 " stroke="black" fill="none" stroke-width="5.0" stroke-linecap="round" stroke-linejoin="round" />
<path d="M 161.0 154.0 L 161.0 154.0 L 161.0 154.0 L 162.0 154.0 L 166.0 154.0 L 172.0 154.0 L 177.0 154.0 L 179.0 154.0 " stroke="black" fill="none" stroke-width="5.0" stroke-linecap="round" stroke-linejoin="round" />
<path d="M 158.0 158.0 L 158.0 158.0 L 158.0 158.0 L 158.0 158.0 L 158.0 158.0 L 158.0 161.0 L 158.0 167.0 L 158.0 173.0 L 158.0 177.0 " stroke="black" fill="none" stroke-width="5.0" stroke-linecap="round" stroke-linejoin="round" />
<path d="M 161.0 163.0 L 161.0 163.0 L 161.0 163.0 L 161.0 164.0 L 163.0 164.0 L 167.0 164.0 L 172.0 164.0 L 177.0 164.0 L 179.0 164.0 L 180.0 164.0 " stroke="black" fill="none" stroke-width="5.0" stroke-linecap="round" stroke-linejoin="round" />
<path d="M 161.0 171.0 L 161.0 171.0 L 162.0 171.0 L 164.0 171.0 L 169.0 171.0 L 175.0 170.0 L 180.0 170.0 L 180.0 170.0 " stroke="black" fill="none" stroke-width="5.0" stroke-linecap="round" stroke-linejoin="round" />
<path d="M 167.0 157.0 L 168.0 157.0 L 168.0 158.0 L 168.0 159.0 L 168.0 162.0 L 169.0 166.0 L 169.0 172.0 L 170.0 177.0 L 170.0 178.0 " stroke="black" fill="none" stroke-width="5.0" stroke-linecap="round" stroke-linejoin="round" />
<path d="M 158.0 180.0 L 159.0 180.0 L 160.0 180.0 L 162.0 180.0 L 166.0 180.0 L 172.0 179.0 L 179.0 178.0 L 184.0 178.0 L 188.0 179.0 L 190.0 181.0 L 191.0 184.0 L 192.0 188.0 L 192.0 192.0 L 192.0 195.0 L 192.0 197.0 L 190.0 198.0 L 185.0 198.0 L 184.0 198.0 " stroke="black" fill="none" stroke-width="5.0" stroke-linecap="round" stroke-linejoin="round" />
<path d="M 154.0 185.0 L 154.0 185.0 L 154.0 187.0 L 154.0 188.0 L 154.0 190.0 L 154.0 191.0 " stroke="black" fill="none" stroke-width="5.0" stroke-linecap="round" stroke-linejoin="round" />
<path d="M 161.0 187.0 L 161.0 187.0 L 161.0 188.0 L 161.0 190.0 L 161.0 191.0 " stroke="black" fill="none" stroke-width="5.0" stroke-linecap="round" stroke-linejoin="round" />
<path d="M 169.0 187.0 L 169.0 187.0 L 169.0 187.0 L 169.0 189.0 L 169.0 191.0 L 169.0 194.0 " stroke="black" fill="none" stroke-width="5.0" stroke-linecap="round" stroke-linejoin="round" />
<path d="M 178.0 188.0 L 178.0 188.0 L 179.0 188.0 L 179.0 189.0 L 180.0 191.0 L 180.0 194.0 " stroke="black" fill="none" stroke-width="5.0" stroke-linecap="round" stroke-linejoin="round" />
</svg>