<svg xmlns="http://www.w3.org/2000/svg" width="300" height="300" viewBox="0 0 300 300">
<path d="M 117.0 118.0 L 117.0 118.0 L 117.0 120.0 L 117.0 123.0 L 117.0 128.0 L 117.0 133.0 L 117.0 134.0 " stroke="black" fill="none" stroke-width="5.0" stroke-linecap="round" stroke-linejoin="round" />
<path d="M 119.0 117.0 L 119.0 117.0 L 119.0 118.0 L 123.0 118.0 L 134.0 116.0 L 150.0 114.0 L 163.0 114.0 L 172.0 114.0 L 178.0 115.0 L 182.0 116.0 L 184.0 119.0 L 185.0 123.0 L 185.0 128.0 L 185.0 132.0 " stroke="black" fill="none" stroke-width="5.0" stroke-linecap="round" stroke-linejoin="round" />
<path d="M 149.0 99.0 L 149.0 99.0 L 149.0 101.0 L 149.0 105.0 L 151.0 111.0 " stroke="black" fill="none" stroke-width="5.0" stroke-linecap="round" stroke-linejoin="round" />
<path d="M 135.0 135.0 L 135.0 135.0 L 135.0 135.0 L 136.0 136.0 L 136.0 141.0 L 137.0 146.0 L 137.0 147.0 " stroke="black" fill="none" stroke-width="5.0" stroke-linecap="round" stroke-linejoin="round" />
<path d="M 137.0 134.0 L 137.0 134.0 L 140.0 133.0 L 145.0 132.0 L 152.0 131.0 L 158.0 130.0 L 163.0 131.0 L 166.0 133.0 L 168.0 138.0 L 168.0 143.0 L 167.0 147.0 L 166.0 149.0 " stroke="black" fill="none" stroke-width="5.0" stroke-linecap="round" stroke-linejoin="round" />
<path d="M 138.0 152.0 L 138.0 152.0 L 138.0 152.0 L 139.0 152.0 L 144.0 152.0 L 153.0 152.0 L 161.0 150.0 L 164.0 150.0 " stroke="black" fill="none" stroke-width="5.0" stroke-linecap="round" stroke-linejoin="round" />
<path d="M 149.0 155.0 L 149.0 155.0 L 149.0 155.0 L 149.0 156.0 L 146.0 158.0 L 142.0 163.0 L 135.0 169.0 " stroke="black" fill="none" stroke-width="5.0" stroke-linecap="round" stroke-linejoin="round" />
<path d="M 126.0 176.0 L 126.0 176.0 L 125.0 176.0 L 125.0 178.0 L 125.0 182.0 L 125.0 188.0 L 127.0 193.0 L 128.0 195.0 " stroke="black" fill="none" stroke-width="5.0" stroke-linecap="round" stroke-linejoin="round" />
<path d="M 126.0 172.0 L 126.0 172.0 L 126.0 172.0 L 126.0 172.0 L 129.0 172.0 L 139.0 171.0 L 152.0 170.0 L 164.0 170.0 L 171.0 170.0 L 175.0 171.0 L 177.0 174.0 L 178.0 180.0 L 179.0 187.0 L 179.0 192.0 L 179.0 195.0 " stroke="black" fill="none" stroke-width="5.0" stroke-linecap="round" stroke-linejoin="round" />
<path d="M 136.0 201.0 L 136.0 201.0 L 136.0 201.0 L 137.0 202.0 L 150.0 202.0 L 169.0 202.0 L 182.0 200.0 L 185.0 200.0 " stroke="black" fill="none" stroke-width="5.0" stroke-linecap="round" stroke-linejoin="round" />
</svg>