<svg xmlns="http://www.w3.org/2000/svg" width="300" height="300" viewBox="0 0 300 300">
<path d="M 111.0 115.0 L 111.0 115.0 L 111.0 115.0 L 111.0 115.0 L 111.0 115.0 L 111.0 115.0 L 111.0 115.0 L 111.0 115.0 L 111.0 115.0 L 111.0 115.0 L 111.0 115.0 L 111.0 115.0 L 111.0 117.0 L 112.0 120.0 L 113.0 125.0 L 113.0 126.0 " stroke="black" fill="none" stroke-width="5.0" stroke-linecap="round" stroke-linejoin="round" />
<path d="M 118.0 111.0 L 118.0 111.0 L 118.0 111.0 L 118.0 111.0 L 118.0 111.0 L 118.0 112.0 L 118.0 112.0 L 119.0 112.0 L 120.0 112.0 L 123.0 112.0 L 128.0 112.0 L 134.0 111.0 L 140.0 111.0 L 146.0 111.0 L 152.0 110.0 L 157.0 110.0 L 162.0 111.0 L 167.0 111.0 L 172.0 112.0 L 176.0 112.0 L 180.0 112.0 L 182.0 113.0 L 182.0 114.0 L 182.0 114.0 L 182.0 115.0 L 182.0 118.0 L 182.0 121.0 L 182.0 126.0 L 181.0 129.0 " stroke="black" fill="none" stroke-width="5.0" stroke-linecap="round" stroke-linejoin="round" />
<path d="M 147.0 94.0 L 147.0 94.0 L 147.0 94.0 L 147.0 94.0 L 147.0 95.0 L 148.0 98.0 L 151.0 103.0 L 152.0 105.0 " stroke="black" fill="none" stroke-width="5.0" stroke-linecap="round" stroke-linejoin="round" />
<path d="M 137.0 129.0 L 137.0 129.0 L 137.0 129.0 L 137.0 129.0 L 137.0 129.0 L 137.0 129.0 L 137.0 130.0 L 137.0 134.0 L 138.0 141.0 L 139.0 150.0 L 140.0 152.0 " stroke="black" fill="none" stroke-width="5.0" stroke-linecap="round" stroke-linejoin="round" />
<path d="M 142.0 126.0 L 142.0 126.0 L 142.0 126.0 L 143.0 126.0 L 145.0 126.0 L 148.0 126.0 L 151.0 126.0 L 154.0 126.0 L 157.0 127.0 L 159.0 128.0 L 160.0 131.0 L 161.0 136.0 L 162.0 142.0 L 163.0 147.0 L 163.0 150.0 L 163.0 150.0 " stroke="black" fill="none" stroke-width="5.0" stroke-linecap="round" stroke-linejoin="round" />
<path d="M 145.0 150.0 L 145.0 150.0 L 145.0 150.0 L 145.0 150.0 L 145.0 150.0 L 146.0 150.0 L 150.0 150.0 L 154.0 150.0 L 158.0 150.0 L 160.0 150.0 " stroke="black" fill="none" stroke-width="5.0" stroke-linecap="round" stroke-linejoin="round" />
<path d="M 152.0 156.0 L 152.0 156.0 L 152.0 156.0 L 152.0 156.0 L 152.0 157.0 L 152.0 158.0 L 150.0 163.0 L 149.0 166.0 " stroke="black" fill="none" stroke-width="5.0" stroke-linecap="round" stroke-linejoin="round" />
<path d="M 137.0 173.0 L 137.0 173.0 L 136.0 176.0 L 135.0 180.0 L 135.0 185.0 L 136.0 190.0 L 138.0 194.0 L 138.0 195.0 " stroke="black" fill="none" stroke-width="5.0" stroke-linecap="round" stroke-linejoin="round" />
<path d="M 139.0 171.0 L 139.0 171.0 L 139.0 171.0 L 140.0 171.0 L 140.0 171.0 L 142.0 171.0 L 146.0 171.0 L 153.0 171.0 L 161.0 171.0 L 168.0 171.0 L 173.0 171.0 L 177.0 172.0 L 178.0 176.0 L 180.0 182.0 L 181.0 188.0 L 182.0 193.0 L 183.0 196.0 L 183.0 197.0 " stroke="black" fill="none" stroke-width="5.0" stroke-linecap="round" stroke-linejoin="round" />
<path d="M 139.0 201.0 L 139.0 201.0 L 139.0 202.0 L 139.0 202.0 L 139.0 202.0 L 141.0 202.0 L 146.0 202.0 L 153.0 202.0 L 160.0 202.0 L 166.0 202.0 L 170.0 202.0 L 173.0 202.0 L 176.0 202.0 L 179.0 202.0 L 181.0 202.0 " stroke="black" fill="none" stroke-width="5.0" stroke-linecap="round" stroke-linejoin="round" />
</svg>