<svg xmlns="http://www.w3.org/2000/svg" width="300" height="300" viewBox="0 0 300 300">
<path d="M 117.0 111.0 L 117.0 111.0 L 117.0 111.0 L 117.0 111.0 L 117.0 113.0 L 117.0 118.0 L 119.0 124.0 L 119.0 128.0 " stroke="black" fill="none" stroke-width="5.0" stroke-linecap="round" stroke-linejoin="round" />
<path d="M 119.0 111.0 L 119.0 111.0 L 119.0 111.0 L 120.0 111.0 L 122.0 111.0 L 127.0 111.0 L 138.0 111.0 L 151.0 111.0 L 163.0 111.0 L 172.0 111.0 L 177.0 111.0 L 179.0 112.0 L 180.0 115.0 L 180.0 121.0 L 180.0 127.0 L 180.0 131.0 L 180.0 132.0 " stroke="black" fill="none" stroke-width="5.0" stroke-linecap="round" stroke-linejoin="round" />
<path d="M 145.0 93.0 L 145.0 93.0 L 145.0 93.0 L 145.0 94.0 L 145.0 98.0 L 146.0 101.0 " stroke="black" fill="none" stroke-width="5.0" stroke-linecap="round" stroke-linejoin="round" />
<path d="M 134.0 129.0 L 134.0 129.0 L 134.0 129.0 L 134.0 129.0 L 134.0 131.0 L 134.0 135.0 L 135.0 140.0 L 136.0 143.0 L 137.0 143.0 " stroke="black" fill="none" stroke-width="5.0" stroke-linecap="round" stroke-linejoin="round" />
<path d="M 136.0 129.0 L 136.0 129.0 L 137.0 129.0 L 139.0 129.0 L 143.0 129.0 L 149.0 128.0 L 156.0 128.0 L 160.0 129.0 L 163.0 132.0 L 164.0 137.0 L 164.0 142.0 L 164.0 144.0 L 164.0 145.0 " stroke="black" fill="none" stroke-width="5.0" stroke-linecap="round" stroke-linejoin="round" />
<path d="M 138.0 145.0 L 138.0 145.0 L 138.0 146.0 L 140.0 147.0 L 147.0 147.0 L 155.0 147.0 L 161.0 147.0 " stroke="black" fill="none" stroke-width="5.0" stroke-linecap="round" stroke-linejoin="round" />
<path d="M 149.0 154.0 L 149.0 154.0 L 149.0 154.0 L 150.0 154.0 L 150.0 154.0 L 149.0 155.0 L 147.0 157.0 L 143.0 161.0 L 142.0 162.0 " stroke="black" fill="none" stroke-width="5.0" stroke-linecap="round" stroke-linejoin="round" />
<path d="M 128.0 171.0 L 128.0 171.0 L 128.0 171.0 L 128.0 171.0 L 128.0 175.0 L 130.0 183.0 L 132.0 193.0 L 134.0 200.0 L 135.0 200.0 " stroke="black" fill="none" stroke-width="5.0" stroke-linecap="round" stroke-linejoin="round" />
<path d="M 134.0 171.0 L 134.0 171.0 L 135.0 171.0 L 138.0 170.0 L 145.0 169.0 L 153.0 168.0 L 160.0 169.0 L 166.0 171.0 L 171.0 173.0 L 175.0 175.0 L 177.0 179.0 L 178.0 185.0 L 178.0 192.0 L 178.0 198.0 L 178.0 202.0 L 178.0 203.0 " stroke="black" fill="none" stroke-width="5.0" stroke-linecap="round" stroke-linejoin="round" />
<path d="M 141.0 204.0 L 141.0 204.0 L 141.0 204.0 L 142.0 204.0 L 145.0 205.0 L 154.0 206.0 L 167.0 206.0 L 176.0 204.0 L 179.0 204.0 L 179.0 204.0 " stroke="black" fill="none" stroke-width="5.0" stroke-linecap="round" stroke-linejoin="round" />
</svg>