<svg xmlns="http://www.w3.org/2000/svg" width="300" height="300" viewBox="0 0 300 300">
<path d="M 159.0 88.0 L 159.0 88.0 L 159.0 88.0 L 159.0 89.0 L 159.0 89.0 L 158.0 90.0 L 154.0 94.0 L 142.0 102.0 L 127.0 111.0 L 124.0 112.0 " stroke="black" fill="none" stroke-width="5.0" stroke-linecap="round" stroke-linejoin="round" />
<path d="M 130.0 114.0 L 130.0 114.0 L 131.0 114.0 L 132.0 115.0 L 134.0 116.0 L 136.0 118.0 " stroke="black" fill="none" stroke-width="5.0" stroke-linecap="round" stroke-linejoin="round" />
<path d="M 146.0 108.0 L 146.0 108.0 L 146.0 108.0 L 146.0 109.0 L 146.0 111.0 L 148.0 114.0 " stroke="black" fill="none" stroke-width="5.0" stroke-linecap="round" stroke-linejoin="round" />
<path d="M 161.0 105.0 L 161.0 105.0 L 161.0 105.0 L 161.0 107.0 L 160.0 110.0 L 160.0 111.0 " stroke="black" fill="none" stroke-width="5.0" stroke-linecap="round" stroke-linejoin="round" />
<path d="M 115.0 131.0 L 115.0 131.0 L 115.0 131.0 L 115.0 132.0 L 115.0 136.0 L 116.0 139.0 L 116.0 140.0 " stroke="black" fill="none" stroke-width="5.0" stroke-linecap="round" stroke-linejoin="round" />
<path d="M 114.0 129.0 L 114.0 129.0 L 114.0 129.0 L 114.0 129.0 L 115.0 129.0 L 122.0 129.0 L 136.0 127.0 L 149.0 126.0 L 159.0 126.0 L 165.0 128.0 L 170.0 129.0 L 174.0 130.0 L 178.0 130.0 L 180.0 130.0 L 181.0 131.0 L 182.0 134.0 L 182.0 139.0 L 181.0 144.0 L 180.0 147.0 " stroke="black" fill="none" stroke-width="5.0" stroke-linecap="round" stroke-linejoin="round" />
<path d="M 132.0 139.0 L 132.0 138.0 L 132.0 138.0 L 132.0 137.0 L 132.0 137.0 L 132.0 139.0 L 130.0 144.0 L 127.0 148.0 L 127.0 149.0 " stroke="black" fill="none" stroke-width="5.0" stroke-linecap="round" stroke-linejoin="round" />
<path d="M 139.0 143.0 L 139.0 144.0 L 139.0 144.0 L 139.0 145.0 L 143.0 146.0 L 150.0 148.0 L 157.0 149.0 L 163.0 149.0 L 165.0 148.0 " stroke="black" fill="none" stroke-width="5.0" stroke-linecap="round" stroke-linejoin="round" />
<path d="M 148.0 133.0 L 148.0 133.0 L 148.0 133.0 L 148.0 134.0 L 149.0 136.0 L 151.0 138.0 L 152.0 139.0 " stroke="black" fill="none" stroke-width="5.0" stroke-linecap="round" stroke-linejoin="round" />
<path d="M 163.0 133.0 L 163.0 134.0 L 164.0 136.0 L 166.0 139.0 L 167.0 141.0 " stroke="black" fill="none" stroke-width="5.0" stroke-linecap="round" stroke-linejoin="round" />
<path d="M 145.0 152.0 L 145.0 152.0 L 145.0 152.0 L 145.0 152.0 L 144.0 154.0 L 140.0 160.0 L 135.0 170.0 L 130.0 176.0 " stroke="black" fill="none" stroke-width="5.0" stroke-linecap="round" stroke-linejoin="round" />
<path d="M 144.0 161.0 L 144.0 161.0 L 144.0 161.0 L 145.0 161.0 L 149.0 161.0 L 155.0 161.0 L 160.0 161.0 L 164.0 162.0 L 166.0 164.0 L 167.0 167.0 L 166.0 172.0 L 161.0 181.0 L 153.0 192.0 L 144.0 202.0 L 135.0 209.0 L 134.0 210.0 " stroke="black" fill="none" stroke-width="5.0" stroke-linecap="round" stroke-linejoin="round" />
<path d="M 138.0 176.0 L 138.0 176.0 L 139.0 176.0 L 141.0 175.0 L 146.0 178.0 L 156.0 185.0 L 168.0 195.0 L 178.0 201.0 L 181.0 203.0 " stroke="black" fill="none" stroke-width="5.0" stroke-linecap="round" stroke-linejoin="round" />
</svg>