<svg xmlns="http://www.w3.org/2000/svg" width="300" height="300" viewBox="0 0 300 300">
<path d="M 162.0 99.0 L 162.0 99.0 L 162.0 100.0 L 161.0 101.0 L 159.0 102.0 L 157.0 104.0 L 151.0 107.0 L 138.0 113.0 L 134.0 115.0 " stroke="black" fill="none" stroke-width="5.0" stroke-linecap="round" stroke-linejoin="round" />
<path d="M 137.0 125.0 L 137.0 125.0 L 137.0 126.0 L 137.0 127.0 L 137.0 130.0 L 141.0 134.0 " stroke="black" fill="none" stroke-width="5.0" stroke-linecap="round" stroke-linejoin="round" />
<path d="M 152.0 122.0 L 152.0 123.0 L 152.0 124.0 L 152.0 126.0 L 153.0 129.0 " stroke="black" fill="none" stroke-width="5.0" stroke-linecap="round" stroke-linejoin="round" />
<path d="M 171.0 116.0 L 171.0 119.0 L 171.0 123.0 L 170.0 128.0 L 168.0 132.0 " stroke="black" fill="none" stroke-width="5.0" stroke-linecap="round" stroke-linejoin="round" />
<path d="M 118.0 148.0 L 118.0 149.0 L 118.0 150.0 L 119.0 153.0 L 120.0 157.0 L 120.0 158.0 " stroke="black" fill="none" stroke-width="5.0" stroke-linecap="round" stroke-linejoin="round" />
<path d="M 118.0 148.0 L 119.0 148.0 L 120.0 148.0 L 123.0 148.0 L 128.0 148.0 L 138.0 146.0 L 150.0 143.0 L 162.0 140.0 L 173.0 139.0 L 182.0 139.0 L 188.0 140.0 L 190.0 142.0 L 191.0 145.0 L 192.0 149.0 L 192.0 154.0 L 192.0 157.0 " stroke="black" fill="none" stroke-width="5.0" stroke-linecap="round" stroke-linejoin="round" />
<path d="M 140.0 156.0 L 140.0 156.0 L 140.0 156.0 L 140.0 156.0 L 139.0 158.0 L 137.0 162.0 L 136.0 163.0 " stroke="black" fill="none" stroke-width="5.0" stroke-linecap="round" stroke-linejoin="round" />
<path d="M 147.0 159.0 L 147.0 160.0 L 147.0 160.0 L 146.0 161.0 L 146.0 162.0 L 146.0 164.0 L 146.0 166.0 L 149.0 167.0 L 155.0 168.0 L 163.0 168.0 L 170.0 167.0 L 174.0 166.0 " stroke="black" fill="none" stroke-width="5.0" stroke-linecap="round" stroke-linejoin="round" />
<path d="M 160.0 150.0 L 160.0 150.0 L 160.0 150.0 L 161.0 150.0 L 162.0 152.0 L 163.0 154.0 " stroke="black" fill="none" stroke-width="5.0" stroke-linecap="round" stroke-linejoin="round" />
<path d="M 174.0 150.0 L 174.0 150.0 L 176.0 151.0 L 178.0 153.0 L 180.0 155.0 " stroke="black" fill="none" stroke-width="5.0" stroke-linecap="round" stroke-linejoin="round" />
<path d="M 150.0 176.0 L 150.0 176.0 L 150.0 176.0 L 150.0 177.0 L 149.0 178.0 L 146.0 182.0 L 140.0 187.0 L 139.0 189.0 " stroke="black" fill="none" stroke-width="5.0" stroke-linecap="round" stroke-linejoin="round" />
<path d="M 148.0 182.0 L 149.0 182.0 L 152.0 182.0 L 156.0 182.0 L 161.0 181.0 L 165.0 181.0 L 167.0 181.0 L 167.0 182.0 L 165.0 186.0 L 159.0 192.0 L 151.0 200.0 L 143.0 208.0 L 139.0 211.0 " stroke="black" fill="none" stroke-width="5.0" stroke-linecap="round" stroke-linejoin="round" />
<path d="M 148.0 186.0 L 148.0 185.0 L 148.0 185.0 L 148.0 185.0 L 149.0 185.0 L 152.0 186.0 L 160.0 192.0 L 171.0 200.0 L 181.0 207.0 " stroke="black" fill="none" stroke-width="5.0" stroke-linecap="round" stroke-linejoin="round" />
</svg>