<svg xmlns="http://www.w3.org/2000/svg" width="300" height="300" viewBox="0 0 300 300">
<path d="M 121.0 109.0 L 121.0 109.0 L 121.0 109.0 L 121.0 109.0 L 122.0 110.0 L 123.0 112.0 L 126.0 114.0 " stroke="black" fill="none" stroke-width="5.0" stroke-linecap="round" stroke-linejoin="round" />
<path d="M 109.0 125.0 L 109.0 125.0 L 109.0 125.0 L 109.0 126.0 L 111.0 126.0 L 118.0 126.0 L 128.0 124.0 L 137.0 123.0 L 142.0 123.0 " stroke="black" fill="none" stroke-width="5.0" stroke-linecap="round" stroke-linejoin="round" />
<path d="M 115.0 128.0 L 116.0 128.0 L 116.0 128.0 L 117.0 128.0 L 117.0 129.0 L 118.0 133.0 L 119.0 137.0 " stroke="black" fill="none" stroke-width="5.0" stroke-linecap="round" stroke-linejoin="round" />
<path d="M 132.0 126.0 L 132.0 126.0 L 132.0 127.0 L 132.0 128.0 L 131.0 131.0 L 131.0 134.0 " stroke="black" fill="none" stroke-width="5.0" stroke-linecap="round" stroke-linejoin="round" />
<path d="M 109.0 142.0 L 109.0 142.0 L 109.0 141.0 L 109.0 141.0 L 111.0 141.0 L 118.0 140.0 L 129.0 140.0 L 137.0 139.0 L 142.0 139.0 L 143.0 139.0 " stroke="black" fill="none" stroke-width="5.0" stroke-linecap="round" stroke-linejoin="round" />
<path d="M 115.0 153.0 L 115.0 153.0 L 115.0 153.0 L 115.0 153.0 L 115.0 153.0 L 115.0 153.0 L 115.0 158.0 L 114.0 171.0 L 112.0 184.0 L 111.0 193.0 L 111.0 194.0 " stroke="black" fill="none" stroke-width="5.0" stroke-linecap="round" stroke-linejoin="round" />
<path d="M 115.0 151.0 L 116.0 150.0 L 117.0 150.0 L 118.0 150.0 L 121.0 149.0 L 124.0 149.0 L 129.0 149.0 L 132.0 149.0 L 135.0 149.0 L 137.0 152.0 L 139.0 158.0 L 140.0 168.0 L 142.0 181.0 L 143.0 192.0 L 143.0 198.0 L 143.0 200.0 L 141.0 201.0 L 136.0 199.0 L 130.0 196.0 " stroke="black" fill="none" stroke-width="5.0" stroke-linecap="round" stroke-linejoin="round" />
<path d="M 120.0 160.0 L 120.0 160.0 L 121.0 160.0 L 121.0 160.0 L 124.0 161.0 L 128.0 161.0 L 133.0 161.0 L 134.0 161.0 " stroke="black" fill="none" stroke-width="5.0" stroke-linecap="round" stroke-linejoin="round" />
<path d="M 116.0 174.0 L 116.0 174.0 L 117.0 175.0 L 118.0 175.0 L 124.0 176.0 L 133.0 176.0 " stroke="black" fill="none" stroke-width="5.0" stroke-linecap="round" stroke-linejoin="round" />
<path d="M 154.0 114.0 L 154.0 114.0 L 154.0 114.0 L 155.0 114.0 L 155.0 114.0 L 155.0 116.0 L 155.0 120.0 L 156.0 127.0 L 156.0 133.0 L 156.0 137.0 L 156.0 138.0 L 156.0 138.0 L 157.0 138.0 L 158.0 137.0 L 161.0 136.0 L 166.0 136.0 L 170.0 136.0 L 174.0 136.0 L 177.0 136.0 L 178.0 138.0 L 178.0 142.0 L 178.0 146.0 L 178.0 149.0 L 177.0 150.0 L 176.0 151.0 L 172.0 152.0 L 166.0 153.0 L 161.0 153.0 L 157.0 153.0 L 155.0 153.0 L 155.0 152.0 L 155.0 152.0 L 155.0 151.0 L 155.0 153.0 L 156.0 158.0 L 156.0 164.0 L 156.0 171.0 L 157.0 180.0 L 160.0 189.0 L 163.0 197.0 L 169.0 201.0 L 176.0 203.0 L 183.0 203.0 L 189.0 200.0 L 192.0 196.0 L 193.0 193.0 " stroke="black" fill="none" stroke-width="5.0" stroke-linecap="round" stroke-linejoin="round" />
<path d="M 160.0 163.0 L 160.0 163.0 L 160.0 163.0 L 160.0 163.0 L 162.0 163.0 L 167.0 163.0 L 174.0 162.0 L 176.0 162.0 " stroke="black" fill="none" stroke-width="5.0" stroke-linecap="round" stroke-linejoin="round" />
<path d="M 160.0 173.0 L 162.0 174.0 L 164.0 175.0 L 167.0 176.0 L 171.0 176.0 L 175.0 176.0 L 177.0 175.0 " stroke="black" fill="none" stroke-width="5.0" stroke-linecap="round" stroke-linejoin="round" />
<path d="M 160.0 185.0 L 161.0 186.0 L 163.0 186.0 L 169.0 187.0 L 177.0 185.0 L 180.0 184.0 " stroke="black" fill="none" stroke-width="5.0" stroke-linecap="round" stroke-linejoin="round" />
<path d="M 158.0 119.0 L 158.0 119.0 L 159.0 119.0 L 159.0 120.0 L 162.0 120.0 L 169.0 120.0 L 177.0 119.0 " stroke="black" fill="none" stroke-width="5.0" stroke-linecap="round" stroke-linejoin="round" />
</svg>