<svg xmlns="http://www.w3.org/2000/svg" width="300" height="300" viewBox="0 0 300 300">
<path d="M 120.0 118.0 L 121.0 119.0 L 121.0 119.0 L 121.0 119.0 L 121.0 120.0 L 120.0 121.0 L 118.0 122.0 L 116.0 124.0 L 113.0 126.0 L 112.0 127.0 L 111.0 128.0 L 111.0 131.0 L 111.0 134.0 L 112.0 140.0 L 113.0 147.0 L 113.0 155.0 L 114.0 163.0 L 115.0 168.0 L 115.0 169.0 L 115.0 169.0 " stroke="black" fill="none" stroke-width="5.0" stroke-linecap="round" stroke-linejoin="round" />
<path d="M 114.0 134.0 L 114.0 134.0 L 115.0 134.0 L 115.0 133.0 L 116.0 133.0 L 117.0 133.0 L 119.0 133.0 L 121.0 133.0 L 123.0 133.0 L 125.0 133.0 L 127.0 134.0 L 129.0 136.0 L 131.0 140.0 L 133.0 147.0 L 135.0 156.0 L 136.0 165.0 L 137.0 170.0 L 137.0 171.0 L 137.0 171.0 " stroke="black" fill="none" stroke-width="5.0" stroke-linecap="round" stroke-linejoin="round" />
<path d="M 119.0 149.0 L 119.0 149.0 L 120.0 149.0 L 121.0 149.0 L 123.0 149.0 L 127.0 149.0 L 132.0 149.0 " stroke="black" fill="none" stroke-width="5.0" stroke-linecap="round" stroke-linejoin="round" />
<path d="M 117.0 170.0 L 117.0 170.0 L 119.0 172.0 L 122.0 173.0 L 129.0 173.0 L 138.0 172.0 " stroke="black" fill="none" stroke-width="5.0" stroke-linecap="round" stroke-linejoin="round" />
<path d="M 155.0 112.0 L 155.0 112.0 L 155.0 112.0 L 154.0 113.0 L 154.0 115.0 L 151.0 119.0 L 147.0 126.0 L 142.0 131.0 L 140.0 133.0 " stroke="black" fill="none" stroke-width="5.0" stroke-linecap="round" stroke-linejoin="round" />
<path d="M 152.0 122.0 L 152.0 122.0 L 152.0 122.0 L 153.0 122.0 L 157.0 122.0 L 164.0 122.0 L 171.0 122.0 L 176.0 122.0 L 178.0 122.0 " stroke="black" fill="none" stroke-width="5.0" stroke-linecap="round" stroke-linejoin="round" />
<path d="M 139.0 148.0 L 139.0 148.0 L 141.0 148.0 L 146.0 148.0 L 156.0 147.0 L 169.0 145.0 L 181.0 144.0 L 188.0 144.0 L 188.0 144.0 " stroke="black" fill="none" stroke-width="5.0" stroke-linecap="round" stroke-linejoin="round" />
<path d="M 163.0 107.0 L 163.0 107.0 L 163.0 108.0 L 164.0 112.0 L 166.0 122.0 L 168.0 134.0 L 169.0 143.0 L 169.0 145.0 " stroke="black" fill="none" stroke-width="5.0" stroke-linecap="round" stroke-linejoin="round" />
<path d="M 152.0 164.0 L 152.0 164.0 L 152.0 165.0 L 151.0 167.0 L 151.0 173.0 L 151.0 181.0 L 152.0 187.0 L 152.0 190.0 " stroke="black" fill="none" stroke-width="5.0" stroke-linecap="round" stroke-linejoin="round" />
<path d="M 153.0 161.0 L 154.0 161.0 L 155.0 161.0 L 158.0 161.0 L 164.0 160.0 L 172.0 159.0 L 180.0 159.0 L 186.0 160.0 L 189.0 164.0 L 191.0 170.0 L 192.0 178.0 L 192.0 186.0 L 192.0 190.0 L 192.0 192.0 L 192.0 192.0 " stroke="black" fill="none" stroke-width="5.0" stroke-linecap="round" stroke-linejoin="round" />
<path d="M 156.0 193.0 L 156.0 193.0 L 156.0 193.0 L 156.0 194.0 L 157.0 195.0 L 165.0 196.0 L 176.0 196.0 L 187.0 194.0 L 192.0 194.0 L 193.0 194.0 L 193.0 194.0 " stroke="black" fill="none" stroke-width="5.0" stroke-linecap="round" stroke-linejoin="round" />
</svg>