<svg xmlns="http://www.w3.org/2000/svg" width="300" height="300" viewBox="0 0 300 300">
<path d="M 126.0 104.0 L 126.0 104.0 L 126.0 104.0 L 126.0 104.0 L 126.0 105.0 L 127.0 107.0 L 129.0 111.0 L 131.0 112.0 " stroke="black" fill="none" stroke-width="5.0" stroke-linecap="round" stroke-linejoin="round" />
<path d="M 108.0 119.0 L 108.0 119.0 L 109.0 119.0 L 110.0 119.0 L 114.0 119.0 L 123.0 119.0 L 133.0 118.0 L 140.0 118.0 L 141.0 118.0 " stroke="black" fill="none" stroke-width="5.0" stroke-linecap="round" stroke-linejoin="round" />
<path d="M 119.0 122.0 L 119.0 122.0 L 119.0 122.0 L 120.0 121.0 L 120.0 121.0 L 120.0 121.0 L 120.0 125.0 L 120.0 129.0 L 119.0 132.0 L 120.0 135.0 L 126.0 136.0 L 134.0 136.0 L 139.0 136.0 " stroke="black" fill="none" stroke-width="5.0" stroke-linecap="round" stroke-linejoin="round" />
<path d="M 164.0 108.0 L 164.0 108.0 L 165.0 107.0 L 165.0 106.0 L 165.0 106.0 L 164.0 107.0 L 161.0 111.0 L 156.0 116.0 L 152.0 119.0 " stroke="black" fill="none" stroke-width="5.0" stroke-linecap="round" stroke-linejoin="round" />
<path d="M 160.0 113.0 L 161.0 113.0 L 162.0 113.0 L 163.0 113.0 L 166.0 113.0 L 170.0 114.0 L 173.0 116.0 L 174.0 119.0 L 174.0 122.0 L 169.0 128.0 L 162.0 134.0 L 156.0 139.0 L 153.0 140.0 " stroke="black" fill="none" stroke-width="5.0" stroke-linecap="round" stroke-linejoin="round" />
<path d="M 154.0 119.0 L 154.0 119.0 L 155.0 119.0 L 155.0 119.0 L 157.0 120.0 L 161.0 121.0 L 163.0 122.0 L 164.0 122.0 " stroke="black" fill="none" stroke-width="5.0" stroke-linecap="round" stroke-linejoin="round" />
<path d="M 152.0 129.0 L 152.0 130.0 L 153.0 130.0 L 156.0 130.0 L 162.0 130.0 L 165.0 130.0 " stroke="black" fill="none" stroke-width="5.0" stroke-linecap="round" stroke-linejoin="round" />
<path d="M 167.0 144.0 L 167.0 144.0 L 167.0 144.0 L 167.0 144.0 L 165.0 145.0 L 161.0 145.0 L 154.0 147.0 L 143.0 149.0 L 131.0 152.0 L 124.0 153.0 " stroke="black" fill="none" stroke-width="5.0" stroke-linecap="round" stroke-linejoin="round" />
<path d="M 129.0 167.0 L 129.0 167.0 L 129.0 167.0 L 129.0 168.0 L 136.0 168.0 L 147.0 167.0 L 156.0 165.0 L 161.0 165.0 L 162.0 165.0 " stroke="black" fill="none" stroke-width="5.0" stroke-linecap="round" stroke-linejoin="round" />
<path d="M 113.0 193.0 L 113.0 193.0 L 113.0 193.0 L 113.0 193.0 L 113.0 193.0 L 115.0 193.0 L 121.0 194.0 L 136.0 194.0 L 154.0 195.0 L 170.0 195.0 L 176.0 195.0 " stroke="black" fill="none" stroke-width="5.0" stroke-linecap="round" stroke-linejoin="round" />
<path d="M 146.0 149.0 L 146.0 149.0 L 145.0 150.0 L 145.0 157.0 L 145.0 170.0 L 145.0 183.0 L 146.0 189.0 " stroke="black" fill="none" stroke-width="5.0" stroke-linecap="round" stroke-linejoin="round" />
</svg>