<svg xmlns="http://www.w3.org/2000/svg" width="300" height="300" viewBox="0 0 300 300">
<path d="M 122.0 104.0 L 123.0 104.0 L 124.0 106.0 L 125.0 108.0 L 128.0 110.0 L 128.0 111.0 " stroke="black" fill="none" stroke-width="5.0" stroke-linecap="round" stroke-linejoin="round" />
<path d="M 107.0 116.0 L 107.0 116.0 L 107.0 117.0 L 107.0 117.0 L 109.0 117.0 L 115.0 117.0 L 126.0 116.0 L 137.0 115.0 L 140.0 115.0 " stroke="black" fill="none" stroke-width="5.0" stroke-linecap="round" stroke-linejoin="round" />
<path d="M 117.0 118.0 L 117.0 118.0 L 117.0 118.0 L 117.0 118.0 L 117.0 118.0 L 117.0 120.0 L 117.0 124.0 L 116.0 131.0 L 116.0 137.0 L 117.0 140.0 L 122.0 141.0 L 131.0 142.0 " stroke="black" fill="none" stroke-width="5.0" stroke-linecap="round" stroke-linejoin="round" />
<path d="M 158.0 101.0 L 158.0 101.0 L 158.0 101.0 L 158.0 101.0 L 158.0 101.0 L 157.0 102.0 L 154.0 109.0 L 148.0 118.0 L 145.0 124.0 " stroke="black" fill="none" stroke-width="5.0" stroke-linecap="round" stroke-linejoin="round" />
<path d="M 154.0 110.0 L 154.0 110.0 L 154.0 109.0 L 154.0 109.0 L 156.0 109.0 L 159.0 109.0 L 163.0 109.0 L 168.0 110.0 L 170.0 112.0 L 171.0 115.0 L 170.0 122.0 L 166.0 131.0 L 160.0 140.0 L 155.0 147.0 " stroke="black" fill="none" stroke-width="5.0" stroke-linecap="round" stroke-linejoin="round" />
<path d="M 150.0 118.0 L 150.0 118.0 L 150.0 118.0 L 150.0 118.0 L 151.0 118.0 L 153.0 119.0 L 158.0 120.0 L 161.0 121.0 " stroke="black" fill="none" stroke-width="5.0" stroke-linecap="round" stroke-linejoin="round" />
<path d="M 148.0 130.0 L 148.0 130.0 L 148.0 130.0 L 150.0 130.0 L 155.0 130.0 L 160.0 130.0 " stroke="black" fill="none" stroke-width="5.0" stroke-linecap="round" stroke-linejoin="round" />
<path d="M 124.0 157.0 L 124.0 157.0 L 124.0 157.0 L 124.0 157.0 L 126.0 157.0 L 132.0 157.0 L 142.0 157.0 L 153.0 157.0 L 161.0 156.0 L 166.0 155.0 L 167.0 155.0 L 167.0 155.0 " stroke="black" fill="none" stroke-width="5.0" stroke-linecap="round" stroke-linejoin="round" />
<path d="M 134.0 170.0 L 134.0 170.0 L 135.0 170.0 L 138.0 170.0 L 143.0 170.0 L 149.0 170.0 L 155.0 170.0 L 157.0 170.0 " stroke="black" fill="none" stroke-width="5.0" stroke-linecap="round" stroke-linejoin="round" />
<path d="M 121.0 188.0 L 121.0 188.0 L 121.0 188.0 L 122.0 188.0 L 126.0 188.0 L 137.0 188.0 L 152.0 188.0 L 165.0 188.0 L 173.0 188.0 L 176.0 188.0 " stroke="black" fill="none" stroke-width="5.0" stroke-linecap="round" stroke-linejoin="round" />
<path d="M 146.0 161.0 L 146.0 161.0 L 146.0 161.0 L 146.0 163.0 L 147.0 172.0 L 148.0 181.0 " stroke="black" fill="none" stroke-width="5.0" stroke-linecap="round" stroke-linejoin="round" />
</svg>