<svg xmlns="http://www.w3.org/2000/svg" width="300" height="300" viewBox="0 0 300 300">
<path d="M 122.0 124.0 L 122.0 124.0 L 123.0 124.0 L 123.0 125.0 L 123.0 125.0 L 123.0 127.0 L 123.0 132.0 L 123.0 140.0 L 120.0 153.0 L 117.0 167.0 L 114.0 178.0 L 112.0 184.0 L 111.0 185.0 L 110.0 186.0 L 111.0 187.0 L 115.0 189.0 L 121.0 191.0 L 128.0 193.0 L 135.0 194.0 " stroke="black" fill="none" stroke-width="5.0" stroke-linecap="round" stroke-linejoin="round" />
<path d="M 134.0 142.0 L 134.0 142.0 L 133.0 142.0 L 133.0 143.0 L 132.0 148.0 L 130.0 160.0 L 125.0 179.0 L 117.0 195.0 L 112.0 203.0 " stroke="black" fill="none" stroke-width="5.0" stroke-linecap="round" stroke-linejoin="round" />
<path d="M 99.0 164.0 L 100.0 164.0 L 103.0 164.0 L 110.0 164.0 L 122.0 164.0 L 136.0 162.0 " stroke="black" fill="none" stroke-width="5.0" stroke-linecap="round" stroke-linejoin="round" />
<path d="M 165.0 110.0 L 165.0 110.0 L 165.0 110.0 L 164.0 110.0 L 163.0 111.0 L 161.0 114.0 L 154.0 120.0 L 147.0 126.0 " stroke="black" fill="none" stroke-width="5.0" stroke-linecap="round" stroke-linejoin="round" />
<path d="M 144.0 136.0 L 143.0 137.0 L 142.0 137.0 L 141.0 138.0 L 145.0 138.0 L 153.0 135.0 L 163.0 133.0 L 173.0 132.0 L 181.0 131.0 L 182.0 131.0 " stroke="black" fill="none" stroke-width="5.0" stroke-linecap="round" stroke-linejoin="round" />
<path d="M 161.0 121.0 L 161.0 121.0 L 161.0 122.0 L 161.0 123.0 L 161.0 125.0 L 158.0 131.0 L 153.0 141.0 L 146.0 153.0 L 144.0 155.0 " stroke="black" fill="none" stroke-width="5.0" stroke-linecap="round" stroke-linejoin="round" />
<path d="M 167.0 134.0 L 168.0 134.0 L 169.0 134.0 L 171.0 135.0 L 175.0 138.0 L 179.0 141.0 L 184.0 144.0 L 185.0 145.0 " stroke="black" fill="none" stroke-width="5.0" stroke-linecap="round" stroke-linejoin="round" />
<path d="M 153.0 149.0 L 153.0 149.0 L 153.0 149.0 L 153.0 151.0 L 154.0 155.0 L 154.0 159.0 L 155.0 161.0 " stroke="black" fill="none" stroke-width="5.0" stroke-linecap="round" stroke-linejoin="round" />
<path d="M 154.0 152.0 L 154.0 152.0 L 154.0 152.0 L 156.0 151.0 L 161.0 150.0 L 167.0 150.0 L 171.0 150.0 L 175.0 152.0 L 176.0 155.0 L 176.0 159.0 L 176.0 161.0 " stroke="black" fill="none" stroke-width="5.0" stroke-linecap="round" stroke-linejoin="round" />
<path d="M 154.0 162.0 L 155.0 162.0 L 155.0 163.0 L 157.0 164.0 L 162.0 165.0 L 169.0 165.0 L 172.0 165.0 " stroke="black" fill="none" stroke-width="5.0" stroke-linecap="round" stroke-linejoin="round" />
<path d="M 146.0 174.0 L 145.0 174.0 L 145.0 175.0 L 144.0 177.0 L 144.0 182.0 L 145.0 192.0 L 146.0 202.0 L 147.0 205.0 " stroke="black" fill="none" stroke-width="5.0" stroke-linecap="round" stroke-linejoin="round" />
<path d="M 145.0 174.0 L 145.0 174.0 L 145.0 174.0 L 147.0 175.0 L 152.0 175.0 L 161.0 174.0 L 170.0 172.0 L 177.0 171.0 L 182.0 171.0 L 184.0 172.0 L 186.0 174.0 L 188.0 177.0 L 190.0 183.0 L 191.0 189.0 L 193.0 196.0 L 193.0 201.0 L 193.0 205.0 L 193.0 207.0 L 190.0 208.0 L 185.0 208.0 L 180.0 206.0 " stroke="black" fill="none" stroke-width="5.0" stroke-linecap="round" stroke-linejoin="round" />
<path d="M 155.0 187.0 L 155.0 188.0 L 155.0 190.0 L 155.0 192.0 L 156.0 194.0 L 156.0 195.0 " stroke="black" fill="none" stroke-width="5.0" stroke-linecap="round" stroke-linejoin="round" />
<path d="M 157.0 187.0 L 157.0 187.0 L 158.0 186.0 L 160.0 186.0 L 163.0 185.0 L 167.0 185.0 L 171.0 186.0 L 175.0 188.0 L 177.0 190.0 L 178.0 194.0 L 178.0 197.0 " stroke="black" fill="none" stroke-width="5.0" stroke-linecap="round" stroke-linejoin="round" />
<path d="M 158.0 199.0 L 159.0 199.0 L 159.0 199.0 L 161.0 199.0 L 165.0 199.0 L 171.0 200.0 " stroke="black" fill="none" stroke-width="5.0" stroke-linecap="round" stroke-linejoin="round" />
</svg>