<svg xmlns="http://www.w3.org/2000/svg" width="300" height="300" viewBox="0 0 300 300">
<path d="M 122.0 135.0 L 123.0 135.0 L 123.0 135.0 L 123.0 135.0 L 123.0 135.0 L 123.0 139.0 L 123.0 150.0 L 122.0 167.0 L 122.0 180.0 L 122.0 186.0 L 123.0 185.0 L 123.0 184.0 " stroke="black" fill="none" stroke-width="5.0" stroke-linecap="round" stroke-linejoin="round" />
<path d="M 131.0 132.0 L 132.0 132.0 L 133.0 132.0 L 136.0 132.0 L 142.0 131.0 L 151.0 130.0 L 160.0 129.0 L 169.0 129.0 L 175.0 129.0 L 179.0 133.0 L 181.0 137.0 L 181.0 144.0 L 182.0 153.0 L 182.0 163.0 L 182.0 173.0 L 182.0 180.0 L 182.0 182.0 L 181.0 183.0 L 181.0 183.0 " stroke="black" fill="none" stroke-width="5.0" stroke-linecap="round" stroke-linejoin="round" />
<path d="M 135.0 152.0 L 134.0 152.0 L 134.0 152.0 L 134.0 152.0 L 140.0 152.0 L 149.0 151.0 L 159.0 151.0 L 169.0 152.0 L 175.0 152.0 L 177.0 152.0 " stroke="black" fill="none" stroke-width="5.0" stroke-linecap="round" stroke-linejoin="round" />
<path d="M 147.0 108.0 L 147.0 107.0 L 147.0 107.0 L 146.0 107.0 L 146.0 116.0 L 147.0 138.0 L 148.0 162.0 L 149.0 172.0 L 149.0 174.0 L 149.0 173.0 " stroke="black" fill="none" stroke-width="5.0" stroke-linecap="round" stroke-linejoin="round" />
<path d="M 160.0 103.0 L 160.0 103.0 L 160.0 104.0 L 160.0 108.0 L 160.0 119.0 L 161.0 137.0 L 162.0 157.0 L 162.0 171.0 L 162.0 176.0 " stroke="black" fill="none" stroke-width="5.0" stroke-linecap="round" stroke-linejoin="round" />
<path d="M 124.0 187.0 L 125.0 187.0 L 127.0 187.0 L 131.0 187.0 L 139.0 188.0 L 151.0 188.0 L 163.0 189.0 L 173.0 190.0 L 178.0 191.0 L 179.0 192.0 L 179.0 193.0 L 179.0 193.0 " stroke="black" fill="none" stroke-width="5.0" stroke-linecap="round" stroke-linejoin="round" />
</svg>