<svg xmlns="http://www.w3.org/2000/svg" width="300" height="300" viewBox="0 0 300 300">
<path d="M 121.0 111.0 L 121.0 111.0 L 121.0 111.0 L 122.0 112.0 L 122.0 113.0 L 123.0 114.0 L 124.0 116.0 L 125.0 118.0 L 125.0 119.0 " stroke="black" fill="none" stroke-width="5.0" stroke-linecap="round" stroke-linejoin="round" />
<path d="M 112.0 127.0 L 112.0 127.0 L 113.0 128.0 L 114.0 128.0 L 115.0 129.0 L 118.0 129.0 L 122.0 129.0 L 129.0 129.0 L 136.0 128.0 L 138.0 127.0 " stroke="black" fill="none" stroke-width="5.0" stroke-linecap="round" stroke-linejoin="round" />
<path d="M 112.0 147.0 L 113.0 147.0 L 114.0 147.0 L 115.0 147.0 L 119.0 147.0 L 125.0 147.0 L 131.0 147.0 L 132.0 147.0 " stroke="black" fill="none" stroke-width="5.0" stroke-linecap="round" stroke-linejoin="round" />
<path d="M 112.0 159.0 L 112.0 159.0 L 112.0 159.0 L 112.0 159.0 L 112.0 159.0 L 114.0 159.0 L 120.0 159.0 L 127.0 159.0 L 129.0 159.0 " stroke="black" fill="none" stroke-width="5.0" stroke-linecap="round" stroke-linejoin="round" />
<path d="M 107.0 178.0 L 107.0 178.0 L 107.0 179.0 L 107.0 181.0 L 108.0 184.0 L 109.0 188.0 " stroke="black" fill="none" stroke-width="5.0" stroke-linecap="round" stroke-linejoin="round" />
<path d="M 109.0 174.0 L 110.0 174.0 L 110.0 174.0 L 111.0 175.0 L 114.0 175.0 L 120.0 174.0 L 126.0 174.0 L 131.0 176.0 L 134.0 179.0 L 135.0 183.0 L 136.0 187.0 L 137.0 190.0 L 137.0 191.0 " stroke="black" fill="none" stroke-width="5.0" stroke-linecap="round" stroke-linejoin="round" />
<path d="M 113.0 189.0 L 113.0 189.0 L 113.0 190.0 L 113.0 190.0 L 117.0 190.0 L 124.0 191.0 L 132.0 191.0 " stroke="black" fill="none" stroke-width="5.0" stroke-linecap="round" stroke-linejoin="round" />
<path d="M 160.0 114.0 L 160.0 114.0 L 160.0 114.0 L 160.0 114.0 L 160.0 115.0 L 160.0 117.0 L 161.0 120.0 " stroke="black" fill="none" stroke-width="5.0" stroke-linecap="round" stroke-linejoin="round" />
<path d="M 151.0 131.0 L 151.0 131.0 L 151.0 131.0 L 151.0 131.0 L 151.0 131.0 L 153.0 132.0 L 157.0 132.0 L 161.0 133.0 L 165.0 133.0 L 167.0 133.0 L 168.0 133.0 L 169.0 134.0 L 169.0 138.0 L 169.0 145.0 L 170.0 156.0 L 171.0 169.0 L 172.0 182.0 L 173.0 193.0 L 173.0 199.0 L 173.0 201.0 L 170.0 200.0 L 164.0 196.0 L 157.0 192.0 " stroke="black" fill="none" stroke-width="5.0" stroke-linecap="round" stroke-linejoin="round" />
<path d="M 147.0 152.0 L 147.0 152.0 L 147.0 153.0 L 147.0 153.0 L 149.0 154.0 L 152.0 154.0 L 156.0 154.0 L 158.0 155.0 L 159.0 156.0 L 159.0 159.0 L 155.0 163.0 L 149.0 170.0 L 142.0 177.0 L 138.0 180.0 " stroke="black" fill="none" stroke-width="5.0" stroke-linecap="round" stroke-linejoin="round" />
<path d="M 175.0 150.0 L 175.0 150.0 L 175.0 150.0 L 175.0 150.0 L 176.0 150.0 L 181.0 150.0 L 188.0 148.0 L 194.0 146.0 L 196.0 146.0 " stroke="black" fill="none" stroke-width="5.0" stroke-linecap="round" stroke-linejoin="round" />
<path d="M 181.0 150.0 L 180.0 150.0 L 180.0 150.0 L 179.0 151.0 L 181.0 156.0 L 187.0 167.0 L 195.0 181.0 L 201.0 193.0 L 202.0 194.0 " stroke="black" fill="none" stroke-width="5.0" stroke-linecap="round" stroke-linejoin="round" />
</svg>