<svg xmlns="http://www.w3.org/2000/svg" width="300" height="300" viewBox="0 0 300 300">
<path d="M 130.0 110.0 L 130.0 110.0 L 130.0 110.0 L 130.0 110.0 L 133.0 110.0 L 140.0 110.0 L 151.0 109.0 L 160.0 109.0 L 166.0 108.0 L 167.0 108.0 L 167.0 108.0 L 167.0 108.0 L 167.0 108.0 " stroke="black" fill="none" stroke-width="5.0" stroke-linecap="round" stroke-linejoin="round" />
<path d="M 141.0 123.0 L 141.0 123.0 L 141.0 124.0 L 142.0 124.0 L 143.0 124.0 L 145.0 124.0 L 150.0 124.0 L 156.0 124.0 L 160.0 123.0 L 161.0 123.0 " stroke="black" fill="none" stroke-width="5.0" stroke-linecap="round" stroke-linejoin="round" />
<path d="M 128.0 140.0 L 128.0 140.0 L 127.0 140.0 L 127.0 140.0 L 131.0 140.0 L 141.0 140.0 L 154.0 140.0 L 166.0 140.0 L 173.0 140.0 L 175.0 140.0 " stroke="black" fill="none" stroke-width="5.0" stroke-linecap="round" stroke-linejoin="round" />
<path d="M 150.0 98.0 L 150.0 98.0 L 150.0 98.0 L 150.0 101.0 L 150.0 110.0 L 152.0 123.0 L 153.0 134.0 " stroke="black" fill="none" stroke-width="5.0" stroke-linecap="round" stroke-linejoin="round" />
<path d="M 138.0 155.0 L 138.0 157.0 L 137.0 160.0 L 136.0 165.0 L 135.0 172.0 L 134.0 181.0 L 134.0 189.0 L 134.0 192.0 L 134.0 192.0 L 134.0 192.0 " stroke="black" fill="none" stroke-width="5.0" stroke-linecap="round" stroke-linejoin="round" />
<path d="M 140.0 152.0 L 141.0 152.0 L 141.0 152.0 L 142.0 152.0 L 145.0 152.0 L 149.0 152.0 L 156.0 152.0 L 162.0 151.0 L 167.0 151.0 L 171.0 152.0 L 174.0 158.0 L 177.0 168.0 L 179.0 179.0 L 181.0 189.0 L 181.0 196.0 L 180.0 200.0 L 178.0 202.0 L 172.0 202.0 L 164.0 198.0 " stroke="black" fill="none" stroke-width="5.0" stroke-linecap="round" stroke-linejoin="round" />
<path d="M 145.0 162.0 L 145.0 162.0 L 145.0 162.0 L 145.0 162.0 L 147.0 162.0 L 153.0 162.0 L 159.0 162.0 L 164.0 162.0 L 167.0 162.0 L 167.0 162.0 " stroke="black" fill="none" stroke-width="5.0" stroke-linecap="round" stroke-linejoin="round" />
<path d="M 145.0 173.0 L 145.0 173.0 L 146.0 174.0 L 149.0 175.0 L 155.0 175.0 L 163.0 175.0 L 170.0 175.0 L 171.0 175.0 " stroke="black" fill="none" stroke-width="5.0" stroke-linecap="round" stroke-linejoin="round" />
</svg>