<svg xmlns="http://www.w3.org/2000/svg" width="300" height="300" viewBox="0 0 300 300">
<path d="M 129.0 112.0 L 129.0 112.0 L 129.0 112.0 L 130.0 112.0 L 132.0 113.0 L 137.0 113.0 L 145.0 113.0 L 156.0 111.0 L 163.0 110.0 L 166.0 109.0 L 166.0 109.0 " stroke="black" fill="none" stroke-width="5.0" stroke-linecap="round" stroke-linejoin="round" />
<path d="M 140.0 126.0 L 140.0 126.0 L 142.0 127.0 L 144.0 127.0 L 149.0 127.0 L 155.0 128.0 L 158.0 128.0 " stroke="black" fill="none" stroke-width="5.0" stroke-linecap="round" stroke-linejoin="round" />
<path d="M 122.0 143.0 L 123.0 143.0 L 123.0 143.0 L 126.0 143.0 L 135.0 143.0 L 149.0 143.0 L 164.0 143.0 L 175.0 143.0 L 176.0 144.0 " stroke="black" fill="none" stroke-width="5.0" stroke-linecap="round" stroke-linejoin="round" />
<path d="M 147.0 97.0 L 147.0 97.0 L 148.0 97.0 L 148.0 97.0 L 149.0 103.0 L 150.0 119.0 L 151.0 134.0 L 151.0 140.0 " stroke="black" fill="none" stroke-width="5.0" stroke-linecap="round" stroke-linejoin="round" />
<path d="M 137.0 158.0 L 137.0 158.0 L 137.0 159.0 L 137.0 160.0 L 137.0 163.0 L 136.0 168.0 L 135.0 176.0 L 132.0 185.0 L 130.0 191.0 L 129.0 192.0 L 129.0 191.0 " stroke="black" fill="none" stroke-width="5.0" stroke-linecap="round" stroke-linejoin="round" />
<path d="M 140.0 153.0 L 140.0 153.0 L 140.0 153.0 L 140.0 154.0 L 143.0 154.0 L 149.0 154.0 L 155.0 154.0 L 161.0 154.0 L 165.0 154.0 L 167.0 154.0 L 170.0 156.0 L 172.0 160.0 L 175.0 167.0 L 178.0 177.0 L 178.0 187.0 L 179.0 195.0 L 178.0 200.0 L 176.0 201.0 L 170.0 201.0 L 161.0 196.0 " stroke="black" fill="none" stroke-width="5.0" stroke-linecap="round" stroke-linejoin="round" />
<path d="M 145.0 164.0 L 145.0 164.0 L 145.0 165.0 L 147.0 165.0 L 153.0 167.0 L 163.0 168.0 L 169.0 168.0 L 171.0 168.0 " stroke="black" fill="none" stroke-width="5.0" stroke-linecap="round" stroke-linejoin="round" />
<path d="M 138.0 179.0 L 138.0 179.0 L 138.0 180.0 L 140.0 181.0 L 146.0 182.0 L 158.0 182.0 L 167.0 181.0 " stroke="black" fill="none" stroke-width="5.0" stroke-linecap="round" stroke-linejoin="round" />
</svg>