<svg xmlns="http://www.w3.org/2000/svg" width="300" height="300" viewBox="0 0 300 300">
<path d="M 133.0 112.0 L 133.0 112.0 L 134.0 112.0 L 138.0 113.0 L 146.0 113.0 L 157.0 113.0 L 166.0 113.0 L 172.0 113.0 " stroke="black" fill="none" stroke-width="5.0" stroke-linecap="round" stroke-linejoin="round" />
<path d="M 139.0 130.0 L 139.0 130.0 L 139.0 130.0 L 139.0 130.0 L 140.0 130.0 L 143.0 130.0 L 150.0 131.0 L 161.0 132.0 L 168.0 134.0 " stroke="black" fill="none" stroke-width="5.0" stroke-linecap="round" stroke-linejoin="round" />
<path d="M 124.0 147.0 L 124.0 147.0 L 124.0 147.0 L 126.0 147.0 L 133.0 147.0 L 146.0 147.0 L 159.0 148.0 L 170.0 150.0 L 173.0 151.0 " stroke="black" fill="none" stroke-width="5.0" stroke-linecap="round" stroke-linejoin="round" />
<path d="M 150.0 100.0 L 150.0 100.0 L 150.0 100.0 L 150.0 105.0 L 151.0 120.0 L 151.0 136.0 L 151.0 143.0 " stroke="black" fill="none" stroke-width="5.0" stroke-linecap="round" stroke-linejoin="round" />
<path d="M 134.0 161.0 L 134.0 161.0 L 134.0 162.0 L 134.0 163.0 L 134.0 167.0 L 133.0 178.0 L 131.0 191.0 L 130.0 198.0 " stroke="black" fill="none" stroke-width="5.0" stroke-linecap="round" stroke-linejoin="round" />
<path d="M 137.0 161.0 L 137.0 161.0 L 137.0 161.0 L 137.0 161.0 L 140.0 161.0 L 145.0 161.0 L 152.0 161.0 L 159.0 161.0 L 164.0 162.0 L 168.0 162.0 L 170.0 163.0 L 171.0 167.0 L 172.0 174.0 L 174.0 183.0 L 175.0 192.0 L 176.0 198.0 L 176.0 201.0 L 175.0 202.0 L 170.0 202.0 L 163.0 201.0 L 161.0 200.0 " stroke="black" fill="none" stroke-width="5.0" stroke-linecap="round" stroke-linejoin="round" />
<path d="M 141.0 172.0 L 141.0 172.0 L 142.0 172.0 L 145.0 172.0 L 150.0 172.0 L 158.0 173.0 L 166.0 175.0 L 168.0 175.0 " stroke="black" fill="none" stroke-width="5.0" stroke-linecap="round" stroke-linejoin="round" />
<path d="M 141.0 185.0 L 141.0 185.0 L 143.0 186.0 L 146.0 186.0 L 154.0 187.0 L 164.0 187.0 L 168.0 188.0 " stroke="black" fill="none" stroke-width="5.0" stroke-linecap="round" stroke-linejoin="round" />
</svg>