<svg xmlns="http://www.w3.org/2000/svg" width="300" height="300" viewBox="0 0 300 300">
<path d="M 125.0 111.0 L 126.0 111.0 L 127.0 111.0 L 130.0 110.0 L 139.0 109.0 L 152.0 107.0 L 162.0 106.0 L 166.0 106.0 " stroke="black" fill="none" stroke-width="5.0" stroke-linecap="round" stroke-linejoin="round" />
<path d="M 137.0 124.0 L 137.0 124.0 L 137.0 124.0 L 139.0 124.0 L 143.0 124.0 L 150.0 123.0 L 159.0 123.0 L 162.0 123.0 " stroke="black" fill="none" stroke-width="5.0" stroke-linecap="round" stroke-linejoin="round" />
<path d="M 116.0 146.0 L 116.0 146.0 L 118.0 146.0 L 123.0 146.0 L 134.0 145.0 L 151.0 145.0 L 166.0 145.0 L 176.0 145.0 " stroke="black" fill="none" stroke-width="5.0" stroke-linecap="round" stroke-linejoin="round" />
<path d="M 147.0 95.0 L 147.0 95.0 L 147.0 96.0 L 147.0 103.0 L 148.0 120.0 L 149.0 137.0 L 150.0 147.0 " stroke="black" fill="none" stroke-width="5.0" stroke-linecap="round" stroke-linejoin="round" />
<path d="M 128.0 164.0 L 128.0 164.0 L 127.0 164.0 L 127.0 164.0 L 126.0 167.0 L 126.0 176.0 L 126.0 189.0 L 126.0 200.0 L 126.0 207.0 L 126.0 208.0 " stroke="black" fill="none" stroke-width="5.0" stroke-linecap="round" stroke-linejoin="round" />
<path d="M 128.0 162.0 L 128.0 162.0 L 130.0 161.0 L 133.0 161.0 L 137.0 161.0 L 143.0 161.0 L 150.0 161.0 L 156.0 161.0 L 162.0 162.0 L 167.0 165.0 L 171.0 170.0 L 174.0 179.0 L 177.0 191.0 L 178.0 201.0 L 179.0 208.0 L 179.0 212.0 L 176.0 215.0 L 171.0 216.0 L 163.0 215.0 L 161.0 214.0 " stroke="black" fill="none" stroke-width="5.0" stroke-linecap="round" stroke-linejoin="round" />
<path d="M 130.0 175.0 L 130.0 175.0 L 130.0 175.0 L 130.0 175.0 L 133.0 175.0 L 141.0 175.0 L 151.0 175.0 L 160.0 175.0 L 161.0 175.0 " stroke="black" fill="none" stroke-width="5.0" stroke-linecap="round" stroke-linejoin="round" />
<path d="M 131.0 193.0 L 131.0 193.0 L 132.0 193.0 L 133.0 193.0 L 138.0 193.0 L 147.0 193.0 L 159.0 193.0 L 168.0 193.0 L 171.0 193.0 " stroke="black" fill="none" stroke-width="5.0" stroke-linecap="round" stroke-linejoin="round" />
</svg>