<svg xmlns="http://www.w3.org/2000/svg" width="300" height="300" viewBox="0 0 300 300">
<path d="M 112.0 116.0 L 113.0 116.0 L 114.0 116.0 L 115.0 116.0 L 116.0 116.0 L 120.0 116.0 L 128.0 115.0 L 137.0 114.0 L 143.0 114.0 L 144.0 114.0 " stroke="black" fill="none" stroke-width="5.0" stroke-linecap="round" stroke-linejoin="round" />
<path d="M 116.0 123.0 L 116.0 123.0 L 116.0 123.0 L 116.0 123.0 L 116.0 123.0 L 116.0 123.0 L 116.0 125.0 L 116.0 130.0 L 115.0 142.0 L 114.0 157.0 L 113.0 170.0 L 115.0 177.0 L 119.0 180.0 L 127.0 181.0 L 137.0 181.0 L 142.0 182.0 " stroke="black" fill="none" stroke-width="5.0" stroke-linecap="round" stroke-linejoin="round" />
<path d="M 132.0 120.0 L 132.0 120.0 L 132.0 121.0 L 132.0 122.0 L 132.0 124.0 L 132.0 126.0 L 132.0 129.0 L 133.0 132.0 L 133.0 134.0 " stroke="black" fill="none" stroke-width="5.0" stroke-linecap="round" stroke-linejoin="round" />
<path d="M 122.0 136.0 L 122.0 136.0 L 122.0 136.0 L 122.0 136.0 L 123.0 136.0 L 124.0 136.0 L 126.0 136.0 L 129.0 136.0 L 132.0 136.0 L 136.0 136.0 L 138.0 136.0 L 140.0 136.0 L 142.0 137.0 L 143.0 141.0 L 143.0 145.0 L 143.0 149.0 L 143.0 152.0 L 143.0 152.0 " stroke="black" fill="none" stroke-width="5.0" stroke-linecap="round" stroke-linejoin="round" />
<path d="M 118.0 152.0 L 118.0 152.0 L 118.0 152.0 L 119.0 152.0 L 120.0 152.0 L 123.0 152.0 L 129.0 152.0 L 135.0 152.0 L 137.0 152.0 " stroke="black" fill="none" stroke-width="5.0" stroke-linecap="round" stroke-linejoin="round" />
<path d="M 131.0 154.0 L 131.0 155.0 L 130.0 157.0 L 130.0 160.0 L 130.0 165.0 L 131.0 172.0 L 132.0 178.0 " stroke="black" fill="none" stroke-width="5.0" stroke-linecap="round" stroke-linejoin="round" />
<path d="M 159.0 107.0 L 159.0 107.0 L 159.0 107.0 L 159.0 107.0 L 159.0 109.0 L 159.0 112.0 L 159.0 116.0 L 157.0 122.0 L 155.0 127.0 L 153.0 129.0 " stroke="black" fill="none" stroke-width="5.0" stroke-linecap="round" stroke-linejoin="round" />
<path d="M 161.0 117.0 L 161.0 117.0 L 161.0 117.0 L 161.0 117.0 L 161.0 118.0 L 164.0 118.0 L 170.0 118.0 L 178.0 118.0 L 185.0 117.0 L 190.0 116.0 L 191.0 116.0 L 191.0 116.0 " stroke="black" fill="none" stroke-width="5.0" stroke-linecap="round" stroke-linejoin="round" />
<path d="M 165.0 134.0 L 165.0 134.0 L 166.0 134.0 L 167.0 134.0 L 167.0 137.0 L 167.0 141.0 L 167.0 146.0 L 167.0 149.0 L 167.0 150.0 " stroke="black" fill="none" stroke-width="5.0" stroke-linecap="round" stroke-linejoin="round" />
<path d="M 166.0 133.0 L 166.0 133.0 L 167.0 133.0 L 167.0 133.0 L 168.0 133.0 L 170.0 133.0 L 173.0 133.0 L 176.0 133.0 L 180.0 134.0 L 183.0 135.0 L 185.0 138.0 L 185.0 142.0 L 185.0 148.0 L 185.0 151.0 L 185.0 152.0 " stroke="black" fill="none" stroke-width="5.0" stroke-linecap="round" stroke-linejoin="round" />
<path d="M 169.0 152.0 L 169.0 152.0 L 170.0 152.0 L 171.0 152.0 L 173.0 152.0 L 176.0 152.0 L 180.0 152.0 L 184.0 153.0 L 185.0 153.0 " stroke="black" fill="none" stroke-width="5.0" stroke-linecap="round" stroke-linejoin="round" />
<path d="M 153.0 166.0 L 153.0 166.0 L 153.0 168.0 L 154.0 172.0 L 154.0 178.0 L 154.0 184.0 L 154.0 187.0 L 154.0 187.0 " stroke="black" fill="none" stroke-width="5.0" stroke-linecap="round" stroke-linejoin="round" />
<path d="M 154.0 166.0 L 154.0 166.0 L 155.0 166.0 L 155.0 166.0 L 156.0 166.0 L 157.0 166.0 L 158.0 167.0 L 161.0 167.0 L 164.0 168.0 L 167.0 170.0 L 169.0 174.0 L 170.0 179.0 L 170.0 183.0 L 170.0 186.0 L 170.0 186.0 " stroke="black" fill="none" stroke-width="5.0" stroke-linecap="round" stroke-linejoin="round" />
<path d="M 154.0 188.0 L 155.0 188.0 L 156.0 189.0 L 157.0 189.0 L 160.0 189.0 L 165.0 190.0 L 169.0 190.0 " stroke="black" fill="none" stroke-width="5.0" stroke-linecap="round" stroke-linejoin="round" />
<path d="M 182.0 166.0 L 182.0 166.0 L 182.0 167.0 L 182.0 167.0 L 182.0 168.0 L 182.0 170.0 L 182.0 176.0 L 183.0 184.0 L 184.0 189.0 L 184.0 191.0 " stroke="black" fill="none" stroke-width="5.0" stroke-linecap="round" stroke-linejoin="round" />
<path d="M 185.0 167.0 L 185.0 167.0 L 185.0 168.0 L 186.0 168.0 L 188.0 169.0 L 190.0 169.0 L 192.0 169.0 L 195.0 169.0 L 198.0 170.0 L 200.0 173.0 L 201.0 178.0 L 202.0 183.0 L 202.0 188.0 L 202.0 190.0 L 202.0 191.0 " stroke="black" fill="none" stroke-width="5.0" stroke-linecap="round" stroke-linejoin="round" />
<path d="M 184.0 190.0 L 184.0 190.0 L 184.0 191.0 L 185.0 192.0 L 190.0 192.0 L 197.0 192.0 L 200.0 192.0 " stroke="black" fill="none" stroke-width="5.0" stroke-linecap="round" stroke-linejoin="round" />
</svg>