<svg xmlns="http://www.w3.org/2000/svg" width="300" height="300" viewBox="0 0 300 300">
<path d="M 123.0 124.0 L 123.0 124.0 L 123.0 124.0 L 125.0 124.0 L 137.0 123.0 L 154.0 121.0 L 169.0 120.0 L 173.0 120.0 " stroke="black" fill="none" stroke-width="5.0" stroke-linecap="round" stroke-linejoin="round" />
<path d="M 148.0 110.0 L 148.0 110.0 L 148.0 110.0 L 147.0 111.0 L 145.0 116.0 L 139.0 131.0 L 130.0 151.0 L 119.0 166.0 L 114.0 172.0 L 111.0 176.0 " stroke="black" fill="none" stroke-width="5.0" stroke-linecap="round" stroke-linejoin="round" />
<path d="M 133.0 155.0 L 133.0 155.0 L 133.0 157.0 L 133.0 161.0 L 133.0 170.0 L 133.0 184.0 L 133.0 194.0 L 133.0 196.0 " stroke="black" fill="none" stroke-width="5.0" stroke-linecap="round" stroke-linejoin="round" />
<path d="M 147.0 161.0 L 147.0 162.0 L 148.0 163.0 L 151.0 163.0 L 157.0 164.0 L 165.0 164.0 L 171.0 163.0 " stroke="black" fill="none" stroke-width="5.0" stroke-linecap="round" stroke-linejoin="round" />
<path d="M 143.0 195.0 L 143.0 195.0 L 143.0 195.0 L 147.0 195.0 L 157.0 196.0 L 171.0 196.0 L 181.0 196.0 L 182.0 196.0 " stroke="black" fill="none" stroke-width="5.0" stroke-linecap="round" stroke-linejoin="round" />
<path d="M 160.0 151.0 L 160.0 151.0 L 160.0 151.0 L 160.0 154.0 L 160.0 165.0 L 161.0 180.0 L 160.0 195.0 L 160.0 197.0 " stroke="black" fill="none" stroke-width="5.0" stroke-linecap="round" stroke-linejoin="round" />
</svg>