<svg xmlns="http://www.w3.org/2000/svg" width="300" height="300" viewBox="0 0 300 300">
<path d="M 133.0 107.0 L 133.0 107.0 L 133.0 107.0 L 133.0 106.0 L 133.0 106.0 L 132.0 108.0 L 128.0 113.0 L 121.0 121.0 L 118.0 123.0 " stroke="black" fill="none" stroke-width="5.0" stroke-linecap="round" stroke-linejoin="round" />
<path d="M 118.0 130.0 L 118.0 130.0 L 118.0 130.0 L 118.0 131.0 L 120.0 133.0 L 122.0 135.0 " stroke="black" fill="none" stroke-width="5.0" stroke-linecap="round" stroke-linejoin="round" />
<path d="M 133.0 122.0 L 133.0 123.0 L 133.0 124.0 L 133.0 126.0 L 133.0 129.0 " stroke="black" fill="none" stroke-width="5.0" stroke-linecap="round" stroke-linejoin="round" />
<path d="M 144.0 119.0 L 144.0 120.0 L 145.0 122.0 L 145.0 125.0 L 145.0 128.0 " stroke="black" fill="none" stroke-width="5.0" stroke-linecap="round" stroke-linejoin="round" />
<path d="M 112.0 153.0 L 112.0 153.0 L 113.0 153.0 L 118.0 153.0 L 130.0 152.0 L 144.0 149.0 L 149.0 149.0 " stroke="black" fill="none" stroke-width="5.0" stroke-linecap="round" stroke-linejoin="round" />
<path d="M 133.0 139.0 L 132.0 139.0 L 132.0 139.0 L 131.0 141.0 L 133.0 148.0 L 136.0 162.0 L 137.0 178.0 L 137.0 189.0 L 137.0 192.0 " stroke="black" fill="none" stroke-width="5.0" stroke-linecap="round" stroke-linejoin="round" />
<path d="M 135.0 156.0 L 135.0 156.0 L 134.0 156.0 L 133.0 156.0 L 131.0 157.0 L 128.0 163.0 L 121.0 173.0 L 113.0 184.0 L 109.0 189.0 " stroke="black" fill="none" stroke-width="5.0" stroke-linecap="round" stroke-linejoin="round" />
<path d="M 138.0 156.0 L 138.0 156.0 L 138.0 156.0 L 138.0 157.0 L 144.0 164.0 L 154.0 174.0 L 160.0 180.0 " stroke="black" fill="none" stroke-width="5.0" stroke-linecap="round" stroke-linejoin="round" />
<path d="M 169.0 115.0 L 169.0 115.0 L 169.0 115.0 L 169.0 115.0 L 169.0 116.0 L 167.0 120.0 L 164.0 126.0 L 161.0 130.0 " stroke="black" fill="none" stroke-width="5.0" stroke-linecap="round" stroke-linejoin="round" />
<path d="M 183.0 134.0 L 183.0 134.0 L 182.0 136.0 L 181.0 137.0 L 180.0 140.0 L 178.0 144.0 L 172.0 151.0 L 170.0 153.0 " stroke="black" fill="none" stroke-width="5.0" stroke-linecap="round" stroke-linejoin="round" />
<path d="M 197.0 165.0 L 196.0 165.0 L 195.0 166.0 L 194.0 168.0 L 191.0 173.0 L 184.0 181.0 L 181.0 184.0 " stroke="black" fill="none" stroke-width="5.0" stroke-linecap="round" stroke-linejoin="round" />
</svg>