<svg xmlns="http://www.w3.org/2000/svg" width="300" height="300" viewBox="0 0 300 300">
<path d="M 148.0 116.0 L 148.0 116.0 L 148.0 116.0 L 148.0 117.0 L 148.0 118.0 L 148.0 122.0 L 149.0 131.0 L 150.0 146.0 L 151.0 161.0 L 151.0 172.0 L 151.0 177.0 L 152.0 178.0 L 152.0 178.0 " stroke="black" fill="none" stroke-width="5.0" stroke-linecap="round" stroke-linejoin="round" />
<path d="M 138.0 141.0 L 138.0 141.0 L 138.0 141.0 L 139.0 141.0 L 139.0 143.0 L 136.0 147.0 L 130.0 154.0 L 124.0 161.0 L 123.0 163.0 " stroke="black" fill="none" stroke-width="5.0" stroke-linecap="round" stroke-linejoin="round" />
<path d="M 171.0 140.0 L 171.0 140.0 L 172.0 140.0 L 173.0 141.0 L 176.0 144.0 L 181.0 149.0 L 188.0 155.0 L 189.0 157.0 " stroke="black" fill="none" stroke-width="5.0" stroke-linecap="round" stroke-linejoin="round" />
<path d="M 180.0 173.0 L 180.0 174.0 L 180.0 175.0 L 180.0 176.0 L 180.0 178.0 L 175.0 182.0 L 165.0 189.0 L 148.0 198.0 L 128.0 207.0 L 124.0 208.0 " stroke="black" fill="none" stroke-width="5.0" stroke-linecap="round" stroke-linejoin="round" />
</svg>