<svg xmlns="http://www.w3.org/2000/svg" width="300" height="300" viewBox="0 0 300 300">
<path d="M 117.0 122.0 L 117.0 123.0 L 118.0 124.0 L 120.0 127.0 L 125.0 132.0 L 128.0 134.0 " stroke="black" fill="none" stroke-width="5.0" stroke-linecap="round" stroke-linejoin="round" />
<path d="M 110.0 150.0 L 110.0 150.0 L 111.0 151.0 L 112.0 153.0 L 117.0 157.0 L 122.0 159.0 " stroke="black" fill="none" stroke-width="5.0" stroke-linecap="round" stroke-linejoin="round" />
<path d="M 103.0 188.0 L 103.0 188.0 L 103.0 188.0 L 103.0 188.0 L 110.0 187.0 L 120.0 184.0 " stroke="black" fill="none" stroke-width="5.0" stroke-linecap="round" stroke-linejoin="round" />
<path d="M 156.0 116.0 L 156.0 116.0 L 156.0 116.0 L 156.0 116.0 L 156.0 117.0 L 156.0 117.0 L 156.0 119.0 L 154.0 125.0 L 150.0 135.0 L 145.0 143.0 " stroke="black" fill="none" stroke-width="5.0" stroke-linecap="round" stroke-linejoin="round" />
<path d="M 153.0 126.0 L 153.0 126.0 L 153.0 126.0 L 153.0 127.0 L 155.0 127.0 L 159.0 127.0 L 165.0 127.0 L 170.0 127.0 L 172.0 129.0 L 173.0 134.0 L 172.0 140.0 L 167.0 148.0 L 161.0 155.0 L 154.0 162.0 L 146.0 169.0 L 142.0 172.0 " stroke="black" fill="none" stroke-width="5.0" stroke-linecap="round" stroke-linejoin="round" />
<path d="M 152.0 144.0 L 152.0 144.0 L 153.0 144.0 L 154.0 145.0 L 159.0 148.0 L 170.0 152.0 L 184.0 156.0 L 194.0 159.0 " stroke="black" fill="none" stroke-width="5.0" stroke-linecap="round" stroke-linejoin="round" />
<path d="M 149.0 176.0 L 149.0 176.0 L 149.0 176.0 L 149.0 178.0 L 149.0 182.0 L 149.0 189.0 L 150.0 194.0 " stroke="black" fill="none" stroke-width="5.0" stroke-linecap="round" stroke-linejoin="round" />
<path d="M 153.0 172.0 L 154.0 172.0 L 154.0 172.0 L 156.0 172.0 L 161.0 172.0 L 168.0 172.0 L 175.0 171.0 L 179.0 172.0 L 181.0 176.0 L 182.0 183.0 L 183.0 191.0 L 183.0 197.0 L 184.0 199.0 " stroke="black" fill="none" stroke-width="5.0" stroke-linecap="round" stroke-linejoin="round" />
<path d="M 152.0 200.0 L 152.0 200.0 L 152.0 201.0 L 152.0 202.0 L 155.0 202.0 L 165.0 202.0 L 176.0 202.0 L 178.0 202.0 " stroke="black" fill="none" stroke-width="5.0" stroke-linecap="round" stroke-linejoin="round" />
</svg>