<svg xmlns="http://www.w3.org/2000/svg" width="300" height="300" viewBox="0 0 300 300">
<path d="M 116.0 119.0 L 116.0 119.0 L 116.0 119.0 L 116.0 120.0 L 117.0 121.0 L 121.0 124.0 L 127.0 127.0 " stroke="black" fill="none" stroke-width="5.0" stroke-linecap="round" stroke-linejoin="round" />
<path d="M 110.0 150.0 L 111.0 150.0 L 112.0 150.0 L 114.0 150.0 L 120.0 150.0 L 127.0 150.0 L 129.0 150.0 " stroke="black" fill="none" stroke-width="5.0" stroke-linecap="round" stroke-linejoin="round" />
<path d="M 100.0 182.0 L 100.0 182.0 L 102.0 183.0 L 107.0 183.0 L 119.0 178.0 L 132.0 171.0 " stroke="black" fill="none" stroke-width="5.0" stroke-linecap="round" stroke-linejoin="round" />
<path d="M 152.0 114.0 L 152.0 114.0 L 152.0 114.0 L 152.0 114.0 L 152.0 114.0 L 152.0 114.0 L 152.0 116.0 L 149.0 122.0 L 144.0 130.0 " stroke="black" fill="none" stroke-width="5.0" stroke-linecap="round" stroke-linejoin="round" />
<path d="M 150.0 122.0 L 150.0 122.0 L 151.0 122.0 L 152.0 122.0 L 155.0 122.0 L 160.0 122.0 L 166.0 122.0 L 170.0 122.0 L 171.0 125.0 L 170.0 128.0 L 165.0 135.0 L 158.0 142.0 L 148.0 151.0 L 139.0 157.0 L 137.0 158.0 " stroke="black" fill="none" stroke-width="5.0" stroke-linecap="round" stroke-linejoin="round" />
<path d="M 148.0 134.0 L 148.0 134.0 L 148.0 134.0 L 148.0 135.0 L 150.0 136.0 L 159.0 139.0 L 172.0 142.0 L 183.0 147.0 L 185.0 149.0 " stroke="black" fill="none" stroke-width="5.0" stroke-linecap="round" stroke-linejoin="round" />
<path d="M 144.0 165.0 L 144.0 165.0 L 144.0 166.0 L 144.0 169.0 L 144.0 175.0 L 145.0 181.0 L 146.0 186.0 L 146.0 186.0 " stroke="black" fill="none" stroke-width="5.0" stroke-linecap="round" stroke-linejoin="round" />
<path d="M 147.0 160.0 L 148.0 160.0 L 149.0 160.0 L 151.0 159.0 L 156.0 158.0 L 164.0 157.0 L 171.0 157.0 L 177.0 158.0 L 180.0 162.0 L 182.0 168.0 L 184.0 176.0 L 184.0 182.0 L 184.0 185.0 L 184.0 186.0 " stroke="black" fill="none" stroke-width="5.0" stroke-linecap="round" stroke-linejoin="round" />
<path d="M 148.0 189.0 L 148.0 189.0 L 148.0 189.0 L 150.0 189.0 L 157.0 189.0 L 171.0 188.0 L 182.0 187.0 L 185.0 187.0 " stroke="black" fill="none" stroke-width="5.0" stroke-linecap="round" stroke-linejoin="round" />
</svg>