<svg xmlns="http://www.w3.org/2000/svg" width="300" height="300" viewBox="0 0 300 300">
<path d="M 121.0 122.0 L 121.0 123.0 L 121.0 125.0 L 122.0 127.0 L 126.0 129.0 L 130.0 129.0 " stroke="black" fill="none" stroke-width="5.0" stroke-linecap="round" stroke-linejoin="round" />
<path d="M 114.0 147.0 L 115.0 147.0 L 116.0 148.0 L 118.0 148.0 L 123.0 148.0 L 130.0 147.0 L 133.0 147.0 " stroke="black" fill="none" stroke-width="5.0" stroke-linecap="round" stroke-linejoin="round" />
<path d="M 107.0 169.0 L 107.0 169.0 L 107.0 170.0 L 108.0 171.0 L 113.0 171.0 L 124.0 167.0 L 128.0 166.0 " stroke="black" fill="none" stroke-width="5.0" stroke-linecap="round" stroke-linejoin="round" />
<path d="M 155.0 111.0 L 155.0 111.0 L 155.0 112.0 L 155.0 112.0 L 155.0 114.0 L 152.0 120.0 L 146.0 130.0 L 139.0 139.0 " stroke="black" fill="none" stroke-width="5.0" stroke-linecap="round" stroke-linejoin="round" />
<path d="M 151.0 122.0 L 151.0 122.0 L 151.0 123.0 L 152.0 123.0 L 157.0 122.0 L 163.0 122.0 L 168.0 122.0 L 170.0 123.0 L 171.0 126.0 L 168.0 132.0 L 162.0 139.0 L 154.0 148.0 L 146.0 154.0 L 142.0 156.0 " stroke="black" fill="none" stroke-width="5.0" stroke-linecap="round" stroke-linejoin="round" />
<path d="M 150.0 132.0 L 150.0 132.0 L 150.0 132.0 L 153.0 134.0 L 161.0 138.0 L 173.0 144.0 L 184.0 149.0 L 189.0 152.0 L 189.0 153.0 " stroke="black" fill="none" stroke-width="5.0" stroke-linecap="round" stroke-linejoin="round" />
<path d="M 147.0 163.0 L 147.0 164.0 L 147.0 165.0 L 147.0 168.0 L 147.0 176.0 L 148.0 183.0 L 149.0 187.0 " stroke="black" fill="none" stroke-width="5.0" stroke-linecap="round" stroke-linejoin="round" />
<path d="M 150.0 161.0 L 150.0 161.0 L 150.0 161.0 L 151.0 161.0 L 153.0 161.0 L 160.0 160.0 L 170.0 159.0 L 178.0 159.0 L 183.0 163.0 L 185.0 170.0 L 186.0 178.0 L 186.0 183.0 L 186.0 185.0 L 186.0 187.0 " stroke="black" fill="none" stroke-width="5.0" stroke-linecap="round" stroke-linejoin="round" />
<path d="M 153.0 192.0 L 153.0 192.0 L 153.0 192.0 L 162.0 193.0 L 175.0 193.0 L 186.0 192.0 L 189.0 192.0 " stroke="black" fill="none" stroke-width="5.0" stroke-linecap="round" stroke-linejoin="round" />
</svg>