<svg xmlns="http://www.w3.org/2000/svg" width="300" height="300" viewBox="0 0 300 300">
<path d="M 130.0 114.0 L 130.0 114.0 L 130.0 114.0 L 130.0 114.0 L 130.0 116.0 L 133.0 121.0 L 138.0 126.0 L 139.0 127.0 " stroke="black" fill="none" stroke-width="5.0" stroke-linecap="round" stroke-linejoin="round" />
<path d="M 162.0 114.0 L 162.0 115.0 L 162.0 116.0 L 162.0 118.0 L 162.0 122.0 L 160.0 130.0 L 158.0 133.0 " stroke="black" fill="none" stroke-width="5.0" stroke-linecap="round" stroke-linejoin="round" />
<path d="M 133.0 145.0 L 133.0 145.0 L 133.0 145.0 L 133.0 145.0 L 135.0 145.0 L 144.0 145.0 L 155.0 144.0 L 161.0 144.0 L 162.0 144.0 " stroke="black" fill="none" stroke-width="5.0" stroke-linecap="round" stroke-linejoin="round" />
<path d="M 112.0 168.0 L 112.0 168.0 L 113.0 169.0 L 118.0 169.0 L 132.0 168.0 L 150.0 166.0 L 165.0 165.0 L 174.0 165.0 L 175.0 166.0 " stroke="black" fill="none" stroke-width="5.0" stroke-linecap="round" stroke-linejoin="round" />
<path d="M 141.0 108.0 L 141.0 108.0 L 141.0 108.0 L 141.0 117.0 L 145.0 141.0 L 149.0 170.0 L 151.0 189.0 L 151.0 199.0 L 152.0 204.0 L 152.0 205.0 " stroke="black" fill="none" stroke-width="5.0" stroke-linecap="round" stroke-linejoin="round" />
</svg>