<svg xmlns="http://www.w3.org/2000/svg" width="300" height="300" viewBox="0 0 300 300">
<path d="M 120.0 120.0 L 120.0 120.0 L 120.0 120.0 L 120.0 120.0 L 120.0 120.0 L 120.0 120.0 L 120.0 125.0 L 120.0 137.0 L 119.0 153.0 L 119.0 162.0 L 119.0 164.0 " stroke="black" fill="none" stroke-width="5.0" stroke-linecap="round" stroke-linejoin="round" />
<path d="M 126.0 114.0 L 126.0 114.0 L 126.0 114.0 L 126.0 114.0 L 130.0 114.0 L 139.0 114.0 L 151.0 114.0 L 161.0 114.0 L 170.0 114.0 L 174.0 115.0 L 176.0 117.0 L 177.0 120.0 L 178.0 127.0 L 179.0 138.0 L 180.0 152.0 L 181.0 163.0 L 181.0 170.0 L 181.0 172.0 " stroke="black" fill="none" stroke-width="5.0" stroke-linecap="round" stroke-linejoin="round" />
<path d="M 139.0 137.0 L 139.0 137.0 L 139.0 137.0 L 139.0 137.0 L 139.0 137.0 L 139.0 139.0 L 139.0 142.0 L 140.0 145.0 " stroke="black" fill="none" stroke-width="5.0" stroke-linecap="round" stroke-linejoin="round" />
<path d="M 143.0 134.0 L 143.0 134.0 L 143.0 134.0 L 143.0 134.0 L 143.0 134.0 L 146.0 134.0 L 150.0 134.0 L 156.0 134.0 L 161.0 136.0 L 164.0 140.0 L 164.0 146.0 L 164.0 151.0 L 164.0 154.0 L 162.0 155.0 " stroke="black" fill="none" stroke-width="5.0" stroke-linecap="round" stroke-linejoin="round" />
<path d="M 143.0 150.0 L 143.0 150.0 L 143.0 150.0 L 143.0 150.0 L 145.0 150.0 L 152.0 151.0 L 160.0 152.0 L 163.0 153.0 " stroke="black" fill="none" stroke-width="5.0" stroke-linecap="round" stroke-linejoin="round" />
<path d="M 123.0 172.0 L 123.0 172.0 L 124.0 172.0 L 126.0 172.0 L 130.0 173.0 L 142.0 174.0 L 158.0 176.0 L 171.0 178.0 L 178.0 180.0 " stroke="black" fill="none" stroke-width="5.0" stroke-linecap="round" stroke-linejoin="round" />
</svg>