<svg xmlns="http://www.w3.org/2000/svg" width="300" height="300" viewBox="0 0 300 300">
<path d="M 127.0 118.0 L 127.0 118.0 L 126.0 118.0 L 125.0 118.0 L 125.0 119.0 L 125.0 124.0 L 125.0 138.0 L 125.0 156.0 L 125.0 169.0 L 125.0 173.0 L 125.0 172.0 L 125.0 171.0 " stroke="black" fill="none" stroke-width="5.0" stroke-linecap="round" stroke-linejoin="round" />
<path d="M 129.0 118.0 L 129.0 118.0 L 129.0 118.0 L 129.0 118.0 L 132.0 118.0 L 140.0 118.0 L 152.0 117.0 L 163.0 116.0 L 171.0 116.0 L 176.0 118.0 L 179.0 119.0 L 180.0 120.0 L 180.0 121.0 L 181.0 123.0 L 182.0 128.0 L 183.0 138.0 L 184.0 151.0 L 185.0 163.0 L 186.0 170.0 L 186.0 174.0 L 185.0 175.0 " stroke="black" fill="none" stroke-width="5.0" stroke-linecap="round" stroke-linejoin="round" />
<path d="M 144.0 142.0 L 144.0 142.0 L 143.0 142.0 L 143.0 142.0 L 143.0 144.0 L 143.0 147.0 L 144.0 150.0 L 144.0 152.0 " stroke="black" fill="none" stroke-width="5.0" stroke-linecap="round" stroke-linejoin="round" />
<path d="M 144.0 141.0 L 144.0 141.0 L 145.0 141.0 L 145.0 140.0 L 148.0 140.0 L 151.0 140.0 L 156.0 139.0 L 159.0 139.0 L 162.0 140.0 L 164.0 143.0 L 165.0 147.0 L 165.0 152.0 L 165.0 156.0 L 164.0 157.0 " stroke="black" fill="none" stroke-width="5.0" stroke-linecap="round" stroke-linejoin="round" />
<path d="M 149.0 155.0 L 149.0 155.0 L 149.0 156.0 L 150.0 157.0 L 160.0 157.0 L 162.0 157.0 " stroke="black" fill="none" stroke-width="5.0" stroke-linecap="round" stroke-linejoin="round" />
<path d="M 133.0 180.0 L 134.0 180.0 L 135.0 181.0 L 139.0 182.0 L 147.0 182.0 L 159.0 182.0 L 171.0 182.0 L 177.0 182.0 L 180.0 183.0 " stroke="black" fill="none" stroke-width="5.0" stroke-linecap="round" stroke-linejoin="round" />
</svg>