<svg xmlns="http://www.w3.org/2000/svg" width="300" height="300" viewBox="0 0 300 300">
<path d="M 124.0 125.0 L 124.0 125.0 L 123.0 126.0 L 123.0 126.0 L 122.0 126.0 L 122.0 131.0 L 122.0 142.0 L 122.0 155.0 L 122.0 171.0 L 125.0 180.0 " stroke="black" fill="none" stroke-width="5.0" stroke-linecap="round" stroke-linejoin="round" />
<path d="M 124.0 123.0 L 125.0 124.0 L 128.0 125.0 L 132.0 125.0 L 137.0 124.0 L 146.0 122.0 L 158.0 122.0 L 163.0 122.0 L 168.0 123.0 L 173.0 126.0 L 178.0 133.0 L 180.0 143.0 L 182.0 152.0 L 184.0 170.0 L 185.0 179.0 L 186.0 182.0 L 186.0 183.0 " stroke="black" fill="none" stroke-width="5.0" stroke-linecap="round" stroke-linejoin="round" />
<path d="M 142.0 145.0 L 142.0 145.0 L 142.0 144.0 L 142.0 144.0 L 142.0 145.0 L 143.0 152.0 L 144.0 155.0 L 144.0 156.0 " stroke="black" fill="none" stroke-width="5.0" stroke-linecap="round" stroke-linejoin="round" />
<path d="M 144.0 144.0 L 144.0 144.0 L 143.0 144.0 L 143.0 144.0 L 144.0 144.0 L 147.0 144.0 L 150.0 144.0 L 154.0 144.0 L 157.0 145.0 L 158.0 146.0 L 160.0 150.0 L 161.0 154.0 L 161.0 159.0 " stroke="black" fill="none" stroke-width="5.0" stroke-linecap="round" stroke-linejoin="round" />
<path d="M 144.0 163.0 L 144.0 163.0 L 144.0 163.0 L 145.0 164.0 L 152.0 164.0 L 157.0 164.0 L 161.0 164.0 L 162.0 164.0 " stroke="black" fill="none" stroke-width="5.0" stroke-linecap="round" stroke-linejoin="round" />
<path d="M 129.0 193.0 L 130.0 193.0 L 136.0 193.0 L 142.0 192.0 L 150.0 191.0 L 167.0 189.0 L 174.0 187.0 L 180.0 185.0 L 181.0 185.0 " stroke="black" fill="none" stroke-width="5.0" stroke-linecap="round" stroke-linejoin="round" />
</svg>