<svg xmlns="http://www.w3.org/2000/svg" width="300" height="300" viewBox="0 0 300 300">
<path d="M 140.0 103.0 L 140.0 103.0 L 141.0 105.0 L 142.0 108.0 L 142.0 109.0 " stroke="black" fill="none" stroke-width="5.0" stroke-linecap="round" stroke-linejoin="round" />
<path d="M 158.0 101.0 L 158.0 102.0 L 158.0 103.0 L 158.0 106.0 L 158.0 110.0 L 158.0 112.0 " stroke="black" fill="none" stroke-width="5.0" stroke-linecap="round" stroke-linejoin="round" />
<path d="M 131.0 116.0 L 131.0 116.0 L 132.0 117.0 L 134.0 117.0 L 142.0 117.0 L 154.0 116.0 L 164.0 116.0 L 170.0 116.0 L 170.0 116.0 " stroke="black" fill="none" stroke-width="5.0" stroke-linecap="round" stroke-linejoin="round" />
<path d="M 134.0 131.0 L 135.0 131.0 L 137.0 131.0 L 140.0 131.0 L 145.0 131.0 L 153.0 131.0 L 160.0 131.0 L 163.0 131.0 L 163.0 131.0 " stroke="black" fill="none" stroke-width="5.0" stroke-linecap="round" stroke-linejoin="round" />
<path d="M 123.0 146.0 L 125.0 146.0 L 128.0 146.0 L 134.0 146.0 L 144.0 146.0 L 158.0 146.0 L 168.0 145.0 " stroke="black" fill="none" stroke-width="5.0" stroke-linecap="round" stroke-linejoin="round" />
<path d="M 151.0 119.0 L 151.0 119.0 L 151.0 119.0 L 151.0 122.0 L 152.0 130.0 L 153.0 135.0 " stroke="black" fill="none" stroke-width="5.0" stroke-linecap="round" stroke-linejoin="round" />
<path d="M 146.0 145.0 L 145.0 145.0 L 143.0 147.0 L 141.0 149.0 L 136.0 153.0 L 128.0 160.0 L 121.0 166.0 L 118.0 168.0 L 119.0 168.0 " stroke="black" fill="none" stroke-width="5.0" stroke-linecap="round" stroke-linejoin="round" />
<path d="M 158.0 150.0 L 159.0 150.0 L 160.0 151.0 L 162.0 152.0 L 167.0 154.0 L 172.0 158.0 L 176.0 160.0 " stroke="black" fill="none" stroke-width="5.0" stroke-linecap="round" stroke-linejoin="round" />
<path d="M 138.0 159.0 L 138.0 159.0 L 138.0 159.0 L 138.0 160.0 L 139.0 161.0 L 145.0 161.0 L 152.0 160.0 L 159.0 160.0 L 163.0 159.0 L 164.0 159.0 " stroke="black" fill="none" stroke-width="5.0" stroke-linecap="round" stroke-linejoin="round" />
<path d="M 134.0 173.0 L 134.0 173.0 L 134.0 174.0 L 135.0 174.0 L 137.0 174.0 L 141.0 173.0 L 145.0 173.0 L 150.0 172.0 L 155.0 172.0 L 158.0 172.0 L 161.0 171.0 L 162.0 171.0 L 163.0 172.0 L 164.0 175.0 L 165.0 180.0 L 165.0 184.0 L 166.0 187.0 L 166.0 188.0 L 166.0 189.0 " stroke="black" fill="none" stroke-width="5.0" stroke-linecap="round" stroke-linejoin="round" />
<path d="M 136.0 181.0 L 136.0 181.0 L 136.0 181.0 L 136.0 181.0 L 139.0 181.0 L 146.0 181.0 L 154.0 181.0 L 161.0 180.0 L 163.0 180.0 L 163.0 181.0 " stroke="black" fill="none" stroke-width="5.0" stroke-linecap="round" stroke-linejoin="round" />
<path d="M 130.0 191.0 L 130.0 191.0 L 130.0 191.0 L 133.0 191.0 L 141.0 191.0 L 151.0 191.0 L 158.0 189.0 L 160.0 189.0 " stroke="black" fill="none" stroke-width="5.0" stroke-linecap="round" stroke-linejoin="round" />
<path d="M 135.0 180.0 L 135.0 180.0 L 135.0 180.0 L 135.0 180.0 L 134.0 183.0 L 133.0 190.0 L 131.0 200.0 L 131.0 210.0 L 135.0 216.0 L 142.0 217.0 L 150.0 216.0 L 155.0 213.0 L 157.0 212.0 " stroke="black" fill="none" stroke-width="5.0" stroke-linecap="round" stroke-linejoin="round" />
<path d="M 148.0 196.0 L 148.0 196.0 L 150.0 197.0 L 154.0 199.0 L 161.0 204.0 L 169.0 209.0 L 173.0 212.0 L 176.0 215.0 " stroke="black" fill="none" stroke-width="5.0" stroke-linecap="round" stroke-linejoin="round" />
<path d="M 166.0 209.0 L 167.0 209.0 L 169.0 208.0 L 172.0 206.0 L 178.0 201.0 L 181.0 198.0 " stroke="black" fill="none" stroke-width="5.0" stroke-linecap="round" stroke-linejoin="round" />
</svg>