<svg xmlns="http://www.w3.org/2000/svg" width="300" height="300" viewBox="0 0 300 300">
<path d="M 134.0 111.0 L 134.0 111.0 L 134.0 111.0 L 134.0 112.0 L 133.0 114.0 L 129.0 119.0 L 122.0 127.0 L 115.0 134.0 L 114.0 135.0 " stroke="black" fill="none" stroke-width="5.0" stroke-linecap="round" stroke-linejoin="round" />
<path d="M 135.0 126.0 L 135.0 126.0 L 135.0 126.0 L 135.0 127.0 L 135.0 129.0 L 133.0 133.0 L 128.0 141.0 L 120.0 151.0 L 111.0 159.0 L 103.0 164.0 L 102.0 165.0 " stroke="black" fill="none" stroke-width="5.0" stroke-linecap="round" stroke-linejoin="round" />
<path d="M 130.0 146.0 L 130.0 146.0 L 130.0 146.0 L 130.0 147.0 L 130.0 151.0 L 130.0 160.0 L 130.0 174.0 L 130.0 184.0 L 130.0 188.0 " stroke="black" fill="none" stroke-width="5.0" stroke-linecap="round" stroke-linejoin="round" />
<path d="M 151.0 119.0 L 151.0 119.0 L 152.0 119.0 L 153.0 119.0 L 158.0 119.0 L 164.0 118.0 L 172.0 117.0 L 177.0 116.0 L 179.0 116.0 L 180.0 118.0 L 180.0 122.0 L 178.0 125.0 L 177.0 126.0 " stroke="black" fill="none" stroke-width="5.0" stroke-linecap="round" stroke-linejoin="round" />
<path d="M 151.0 121.0 L 151.0 122.0 L 150.0 122.0 L 149.0 123.0 L 149.0 129.0 L 149.0 141.0 L 147.0 159.0 L 144.0 174.0 L 143.0 180.0 L 142.0 181.0 " stroke="black" fill="none" stroke-width="5.0" stroke-linecap="round" stroke-linejoin="round" />
<path d="M 164.0 105.0 L 164.0 105.0 L 164.0 105.0 L 163.0 106.0 L 163.0 108.0 L 163.0 114.0 L 164.0 126.0 L 165.0 137.0 " stroke="black" fill="none" stroke-width="5.0" stroke-linecap="round" stroke-linejoin="round" />
<path d="M 157.0 143.0 L 158.0 143.0 L 160.0 144.0 L 165.0 144.0 L 172.0 144.0 L 177.0 144.0 L 180.0 144.0 L 181.0 145.0 L 180.0 149.0 L 178.0 156.0 L 173.0 165.0 L 168.0 174.0 L 163.0 180.0 " stroke="black" fill="none" stroke-width="5.0" stroke-linecap="round" stroke-linejoin="round" />
<path d="M 156.0 144.0 L 156.0 144.0 L 156.0 144.0 L 158.0 147.0 L 165.0 156.0 L 178.0 171.0 L 187.0 182.0 L 193.0 187.0 L 194.0 189.0 L 194.0 189.0 " stroke="black" fill="none" stroke-width="5.0" stroke-linecap="round" stroke-linejoin="round" />
</svg>