<svg xmlns="http://www.w3.org/2000/svg" width="300" height="300" viewBox="0 0 300 300">
<path d="M 140.0 114.0 L 140.0 114.0 L 140.0 114.0 L 139.0 114.0 L 139.0 114.0 L 138.0 116.0 L 135.0 122.0 L 127.0 132.0 L 125.0 135.0 " stroke="black" fill="none" stroke-width="5.0" stroke-linecap="round" stroke-linejoin="round" />
<path d="M 141.0 129.0 L 141.0 129.0 L 141.0 129.0 L 140.0 129.0 L 140.0 129.0 L 139.0 131.0 L 137.0 134.0 L 132.0 143.0 L 122.0 156.0 L 111.0 169.0 L 105.0 175.0 L 105.0 175.0 " stroke="black" fill="none" stroke-width="5.0" stroke-linecap="round" stroke-linejoin="round" />
<path d="M 128.0 150.0 L 128.0 150.0 L 128.0 150.0 L 128.0 151.0 L 129.0 155.0 L 130.0 167.0 L 131.0 181.0 L 131.0 187.0 " stroke="black" fill="none" stroke-width="5.0" stroke-linecap="round" stroke-linejoin="round" />
<path d="M 154.0 120.0 L 155.0 120.0 L 155.0 121.0 L 158.0 121.0 L 165.0 119.0 L 174.0 118.0 L 181.0 117.0 L 185.0 117.0 L 186.0 119.0 L 186.0 122.0 L 184.0 126.0 L 183.0 129.0 " stroke="black" fill="none" stroke-width="5.0" stroke-linecap="round" stroke-linejoin="round" />
<path d="M 156.0 121.0 L 156.0 121.0 L 156.0 121.0 L 156.0 121.0 L 156.0 124.0 L 155.0 135.0 L 153.0 155.0 L 150.0 173.0 L 148.0 180.0 " stroke="black" fill="none" stroke-width="5.0" stroke-linecap="round" stroke-linejoin="round" />
<path d="M 167.0 106.0 L 167.0 106.0 L 167.0 106.0 L 167.0 106.0 L 167.0 111.0 L 169.0 124.0 L 171.0 141.0 " stroke="black" fill="none" stroke-width="5.0" stroke-linecap="round" stroke-linejoin="round" />
<path d="M 161.0 152.0 L 161.0 152.0 L 161.0 152.0 L 161.0 152.0 L 163.0 151.0 L 169.0 150.0 L 177.0 149.0 L 184.0 148.0 L 188.0 148.0 L 189.0 149.0 L 189.0 151.0 L 188.0 156.0 L 185.0 163.0 L 180.0 172.0 L 173.0 181.0 L 171.0 183.0 " stroke="black" fill="none" stroke-width="5.0" stroke-linecap="round" stroke-linejoin="round" />
<path d="M 162.0 155.0 L 162.0 155.0 L 163.0 156.0 L 169.0 163.0 L 181.0 176.0 L 192.0 188.0 L 198.0 195.0 L 199.0 197.0 " stroke="black" fill="none" stroke-width="5.0" stroke-linecap="round" stroke-linejoin="round" />
</svg>