<svg xmlns="http://www.w3.org/2000/svg" width="300" height="300" viewBox="0 0 300 300">
<path d="M 123.0 124.0 L 123.0 124.0 L 123.0 124.0 L 124.0 124.0 L 131.0 124.0 L 144.0 123.0 L 159.0 121.0 L 169.0 119.0 L 170.0 119.0 " stroke="black" fill="none" stroke-width="5.0" stroke-linecap="round" stroke-linejoin="round" />
<path d="M 150.0 101.0 L 150.0 102.0 L 149.0 104.0 L 147.0 111.0 L 143.0 126.0 L 136.0 150.0 L 127.0 171.0 L 116.0 185.0 L 115.0 187.0 " stroke="black" fill="none" stroke-width="5.0" stroke-linecap="round" stroke-linejoin="round" />
<path d="M 146.0 128.0 L 146.0 128.0 L 146.0 128.0 L 146.0 127.0 L 150.0 134.0 L 160.0 150.0 L 173.0 169.0 L 182.0 179.0 L 186.0 185.0 " stroke="black" fill="none" stroke-width="5.0" stroke-linecap="round" stroke-linejoin="round" />
<path d="M 137.0 171.0 L 138.0 171.0 L 139.0 171.0 L 142.0 173.0 L 149.0 177.0 " stroke="black" fill="none" stroke-width="5.0" stroke-linecap="round" stroke-linejoin="round" />
</svg>