<svg xmlns="http://www.w3.org/2000/svg" width="300" height="300" viewBox="0 0 300 300">
<path d="M 126.0 126.0 L 128.0 128.0 L 130.0 128.0 L 137.0 128.0 L 148.0 127.0 L 160.0 125.0 L 170.0 124.0 L 176.0 122.0 L 177.0 122.0 " stroke="black" fill="none" stroke-width="5.0" stroke-linecap="round" stroke-linejoin="round" />
<path d="M 149.0 108.0 L 149.0 109.0 L 148.0 110.0 L 147.0 112.0 L 146.0 118.0 L 144.0 131.0 L 137.0 152.0 L 121.0 174.0 L 112.0 183.0 L 111.0 183.0 " stroke="black" fill="none" stroke-width="5.0" stroke-linecap="round" stroke-linejoin="round" />
<path d="M 153.0 134.0 L 153.0 134.0 L 153.0 134.0 L 154.0 134.0 L 154.0 134.0 L 158.0 139.0 L 165.0 151.0 L 176.0 168.0 L 187.0 179.0 L 192.0 184.0 " stroke="black" fill="none" stroke-width="5.0" stroke-linecap="round" stroke-linejoin="round" />
<path d="M 136.0 158.0 L 136.0 159.0 L 136.0 161.0 L 138.0 164.0 L 143.0 168.0 L 147.0 173.0 L 150.0 174.0 " stroke="black" fill="none" stroke-width="5.0" stroke-linecap="round" stroke-linejoin="round" />
</svg>