<svg xmlns="http://www.w3.org/2000/svg" width="300" height="300" viewBox="0 0 300 300">
<path d="M 116.0 119.0 L 116.0 119.0 L 116.0 119.0 L 117.0 119.0 L 118.0 119.0 L 119.0 119.0 L 122.0 119.0 L 127.0 119.0 L 131.0 118.0 L 135.0 117.0 L 137.0 117.0 L 138.0 117.0 L 139.0 120.0 L 139.0 127.0 L 140.0 135.0 L 140.0 141.0 L 141.0 144.0 L 141.0 144.0 " stroke="black" fill="none" stroke-width="5.0" stroke-linecap="round" stroke-linejoin="round" />
<path d="M 106.0 135.0 L 106.0 135.0 L 106.0 135.0 L 106.0 135.0 L 110.0 134.0 L 118.0 133.0 L 129.0 132.0 L 140.0 131.0 L 145.0 131.0 L 146.0 131.0 L 146.0 131.0 " stroke="black" fill="none" stroke-width="5.0" stroke-linecap="round" stroke-linejoin="round" />
<path d="M 111.0 148.0 L 111.0 148.0 L 112.0 148.0 L 115.0 148.0 L 124.0 146.0 L 134.0 145.0 L 140.0 145.0 L 141.0 145.0 " stroke="black" fill="none" stroke-width="5.0" stroke-linecap="round" stroke-linejoin="round" />
<path d="M 126.0 125.0 L 126.0 125.0 L 126.0 126.0 L 124.0 128.0 L 123.0 132.0 L 121.0 140.0 L 117.0 154.0 L 111.0 168.0 L 106.0 177.0 L 103.0 182.0 L 103.0 182.0 " stroke="black" fill="none" stroke-width="5.0" stroke-linecap="round" stroke-linejoin="round" />
<path d="M 114.0 161.0 L 115.0 161.0 L 115.0 161.0 L 115.0 161.0 L 115.0 162.0 L 116.0 166.0 L 117.0 174.0 L 118.0 181.0 L 119.0 185.0 L 119.0 185.0 " stroke="black" fill="none" stroke-width="5.0" stroke-linecap="round" stroke-linejoin="round" />
<path d="M 119.0 161.0 L 119.0 161.0 L 119.0 161.0 L 120.0 161.0 L 122.0 160.0 L 126.0 160.0 L 132.0 159.0 L 137.0 159.0 L 140.0 159.0 L 143.0 162.0 L 144.0 167.0 L 145.0 173.0 L 145.0 178.0 L 145.0 181.0 L 145.0 182.0 " stroke="black" fill="none" stroke-width="5.0" stroke-linecap="round" stroke-linejoin="round" />
<path d="M 121.0 185.0 L 122.0 185.0 L 125.0 186.0 L 131.0 186.0 L 141.0 184.0 L 143.0 184.0 " stroke="black" fill="none" stroke-width="5.0" stroke-linecap="round" stroke-linejoin="round" />
<path d="M 159.0 111.0 L 159.0 111.0 L 159.0 111.0 L 159.0 112.0 L 159.0 115.0 L 160.0 120.0 L 161.0 123.0 " stroke="black" fill="none" stroke-width="5.0" stroke-linecap="round" stroke-linejoin="round" />
<path d="M 172.0 110.0 L 172.0 110.0 L 172.0 111.0 L 172.0 113.0 L 172.0 117.0 L 172.0 123.0 L 171.0 124.0 " stroke="black" fill="none" stroke-width="5.0" stroke-linecap="round" stroke-linejoin="round" />
<path d="M 155.0 132.0 L 155.0 132.0 L 155.0 132.0 L 156.0 132.0 L 161.0 132.0 L 169.0 132.0 L 178.0 130.0 L 183.0 129.0 L 185.0 129.0 L 185.0 129.0 " stroke="black" fill="none" stroke-width="5.0" stroke-linecap="round" stroke-linejoin="round" />
<path d="M 158.0 148.0 L 160.0 148.0 L 163.0 148.0 L 168.0 148.0 L 175.0 147.0 L 181.0 147.0 L 184.0 147.0 L 184.0 147.0 " stroke="black" fill="none" stroke-width="5.0" stroke-linecap="round" stroke-linejoin="round" />
<path d="M 151.0 163.0 L 151.0 163.0 L 153.0 164.0 L 158.0 165.0 L 169.0 165.0 L 182.0 163.0 L 190.0 162.0 L 192.0 162.0 " stroke="black" fill="none" stroke-width="5.0" stroke-linecap="round" stroke-linejoin="round" />
<path d="M 170.0 133.0 L 170.0 133.0 L 170.0 134.0 L 170.0 135.0 L 170.0 139.0 L 171.0 146.0 L 173.0 160.0 L 175.0 174.0 L 176.0 186.0 L 176.0 192.0 L 176.0 193.0 L 176.0 193.0 " stroke="black" fill="none" stroke-width="5.0" stroke-linecap="round" stroke-linejoin="round" />
</svg>