<svg xmlns="http://www.w3.org/2000/svg" width="300" height="300" viewBox="0 0 300 300">
<path d="M 134.0 106.0 L 134.0 106.0 L 134.0 106.0 L 134.0 106.0 L 134.0 107.0 L 134.0 112.0 L 135.0 118.0 L 135.0 123.0 L 136.0 126.0 L 136.0 126.0 " stroke="black" fill="none" stroke-width="5.0" stroke-linecap="round" stroke-linejoin="round" />
<path d="M 121.0 116.0 L 121.0 117.0 L 121.0 117.0 L 122.0 118.0 L 124.0 118.0 L 128.0 118.0 L 137.0 117.0 L 148.0 116.0 L 156.0 116.0 L 165.0 115.0 L 172.0 114.0 L 177.0 114.0 L 179.0 114.0 L 177.0 115.0 " stroke="black" fill="none" stroke-width="5.0" stroke-linecap="round" stroke-linejoin="round" />
<path d="M 157.0 103.0 L 157.0 103.0 L 158.0 105.0 L 158.0 109.0 L 159.0 115.0 L 159.0 121.0 L 159.0 124.0 " stroke="black" fill="none" stroke-width="5.0" stroke-linecap="round" stroke-linejoin="round" />
<path d="M 128.0 137.0 L 128.0 137.0 L 129.0 137.0 L 129.0 137.0 L 129.0 138.0 L 130.0 142.0 L 131.0 147.0 L 132.0 150.0 L 132.0 151.0 " stroke="black" fill="none" stroke-width="5.0" stroke-linecap="round" stroke-linejoin="round" />
<path d="M 129.0 136.0 L 129.0 136.0 L 129.0 136.0 L 130.0 136.0 L 130.0 136.0 L 134.0 135.0 L 142.0 134.0 L 151.0 132.0 L 158.0 132.0 L 163.0 132.0 L 166.0 133.0 L 167.0 137.0 L 167.0 143.0 L 167.0 149.0 L 167.0 152.0 L 167.0 153.0 " stroke="black" fill="none" stroke-width="5.0" stroke-linecap="round" stroke-linejoin="round" />
<path d="M 135.0 143.0 L 135.0 143.0 L 136.0 143.0 L 138.0 144.0 L 143.0 144.0 L 150.0 143.0 L 157.0 143.0 L 160.0 142.0 L 160.0 142.0 " stroke="black" fill="none" stroke-width="5.0" stroke-linecap="round" stroke-linejoin="round" />
<path d="M 132.0 152.0 L 134.0 153.0 L 135.0 154.0 L 139.0 155.0 L 147.0 155.0 L 155.0 155.0 L 160.0 155.0 " stroke="black" fill="none" stroke-width="5.0" stroke-linecap="round" stroke-linejoin="round" />
<path d="M 119.0 165.0 L 120.0 165.0 L 121.0 166.0 L 125.0 166.0 L 134.0 167.0 L 148.0 167.0 L 160.0 167.0 L 168.0 167.0 L 173.0 167.0 L 174.0 167.0 L 174.0 167.0 " stroke="black" fill="none" stroke-width="5.0" stroke-linecap="round" stroke-linejoin="round" />
<path d="M 145.0 156.0 L 144.0 156.0 L 144.0 157.0 L 142.0 159.0 L 140.0 163.0 L 135.0 168.0 L 130.0 176.0 L 125.0 181.0 L 123.0 183.0 " stroke="black" fill="none" stroke-width="5.0" stroke-linecap="round" stroke-linejoin="round" />
<path d="M 160.0 168.0 L 162.0 169.0 L 165.0 171.0 L 169.0 174.0 L 173.0 178.0 L 177.0 181.0 L 179.0 183.0 L 179.0 183.0 " stroke="black" fill="none" stroke-width="5.0" stroke-linecap="round" stroke-linejoin="round" />
<path d="M 134.0 176.0 L 134.0 176.0 L 135.0 176.0 L 136.0 176.0 L 138.0 176.0 L 142.0 176.0 L 149.0 176.0 L 156.0 175.0 L 161.0 175.0 L 163.0 175.0 L 164.0 176.0 L 165.0 180.0 L 167.0 186.0 L 170.0 193.0 L 172.0 197.0 L 172.0 200.0 L 172.0 200.0 " stroke="black" fill="none" stroke-width="5.0" stroke-linecap="round" stroke-linejoin="round" />
<path d="M 133.0 175.0 L 133.0 176.0 L 133.0 179.0 L 132.0 185.0 L 132.0 193.0 L 133.0 198.0 L 135.0 200.0 " stroke="black" fill="none" stroke-width="5.0" stroke-linecap="round" stroke-linejoin="round" />
<path d="M 135.0 187.0 L 135.0 187.0 L 136.0 187.0 L 138.0 187.0 L 144.0 188.0 L 152.0 189.0 L 160.0 189.0 L 165.0 190.0 L 165.0 190.0 " stroke="black" fill="none" stroke-width="5.0" stroke-linecap="round" stroke-linejoin="round" />
<path d="M 135.0 202.0 L 137.0 203.0 L 140.0 204.0 L 146.0 205.0 L 154.0 205.0 L 162.0 204.0 L 166.0 204.0 " stroke="black" fill="none" stroke-width="5.0" stroke-linecap="round" stroke-linejoin="round" />
</svg>