<svg xmlns="http://www.w3.org/2000/svg" width="300" height="300" viewBox="0 0 300 300">
<path d="M 122.0 109.0 L 122.0 109.0 L 122.0 109.0 L 122.0 110.0 L 124.0 114.0 L 127.0 118.0 " stroke="black" fill="none" stroke-width="5.0" stroke-linecap="round" stroke-linejoin="round" />
<path d="M 113.0 130.0 L 113.0 130.0 L 113.0 130.0 L 115.0 130.0 L 120.0 132.0 L 128.0 133.0 L 135.0 133.0 L 139.0 132.0 L 139.0 132.0 " stroke="black" fill="none" stroke-width="5.0" stroke-linecap="round" stroke-linejoin="round" />
<path d="M 115.0 147.0 L 115.0 147.0 L 115.0 147.0 L 115.0 147.0 L 116.0 147.0 L 119.0 147.0 L 125.0 147.0 L 131.0 147.0 L 135.0 147.0 L 135.0 147.0 " stroke="black" fill="none" stroke-width="5.0" stroke-linecap="round" stroke-linejoin="round" />
<path d="M 112.0 159.0 L 112.0 160.0 L 112.0 160.0 L 114.0 160.0 L 118.0 160.0 L 125.0 160.0 L 131.0 160.0 L 132.0 160.0 " stroke="black" fill="none" stroke-width="5.0" stroke-linecap="round" stroke-linejoin="round" />
<path d="M 108.0 177.0 L 108.0 177.0 L 108.0 178.0 L 107.0 178.0 L 107.0 180.0 L 108.0 185.0 L 109.0 191.0 L 110.0 194.0 " stroke="black" fill="none" stroke-width="5.0" stroke-linecap="round" stroke-linejoin="round" />
<path d="M 108.0 178.0 L 108.0 178.0 L 108.0 178.0 L 109.0 178.0 L 110.0 178.0 L 114.0 177.0 L 122.0 177.0 L 131.0 177.0 L 137.0 178.0 L 141.0 183.0 L 141.0 189.0 L 141.0 194.0 L 140.0 197.0 L 139.0 197.0 " stroke="black" fill="none" stroke-width="5.0" stroke-linecap="round" stroke-linejoin="round" />
<path d="M 113.0 197.0 L 113.0 197.0 L 113.0 197.0 L 114.0 197.0 L 120.0 197.0 L 131.0 196.0 " stroke="black" fill="none" stroke-width="5.0" stroke-linecap="round" stroke-linejoin="round" />
<path d="M 154.0 122.0 L 154.0 122.0 L 154.0 122.0 L 154.0 122.0 L 156.0 122.0 L 161.0 123.0 L 167.0 123.0 L 172.0 124.0 L 175.0 125.0 L 177.0 127.0 L 179.0 131.0 L 181.0 139.0 L 184.0 153.0 L 187.0 167.0 L 189.0 179.0 L 190.0 185.0 L 191.0 189.0 L 191.0 190.0 L 188.0 192.0 L 183.0 195.0 L 174.0 196.0 L 162.0 195.0 " stroke="black" fill="none" stroke-width="5.0" stroke-linecap="round" stroke-linejoin="round" />
<path d="M 153.0 144.0 L 153.0 144.0 L 153.0 144.0 L 153.0 144.0 L 156.0 144.0 L 161.0 144.0 L 166.0 143.0 L 167.0 143.0 " stroke="black" fill="none" stroke-width="5.0" stroke-linecap="round" stroke-linejoin="round" />
<path d="M 151.0 162.0 L 151.0 162.0 L 151.0 162.0 L 151.0 163.0 L 151.0 165.0 L 151.0 167.0 L 152.0 170.0 L 152.0 171.0 " stroke="black" fill="none" stroke-width="5.0" stroke-linecap="round" stroke-linejoin="round" />
<path d="M 153.0 161.0 L 153.0 161.0 L 153.0 161.0 L 154.0 161.0 L 155.0 161.0 L 158.0 161.0 L 163.0 160.0 L 169.0 160.0 L 172.0 162.0 L 174.0 166.0 L 175.0 170.0 L 174.0 173.0 " stroke="black" fill="none" stroke-width="5.0" stroke-linecap="round" stroke-linejoin="round" />
<path d="M 155.0 175.0 L 155.0 176.0 L 155.0 176.0 L 155.0 176.0 L 157.0 176.0 L 162.0 176.0 L 170.0 174.0 L 174.0 172.0 " stroke="black" fill="none" stroke-width="5.0" stroke-linecap="round" stroke-linejoin="round" />
</svg>