<svg xmlns="http://www.w3.org/2000/svg" width="300" height="300" viewBox="0 0 300 300">
<path d="M 131.0 114.0 L 131.0 114.0 L 131.0 114.0 L 131.0 114.0 L 133.0 114.0 L 141.0 114.0 L 152.0 114.0 L 163.0 114.0 L 169.0 114.0 L 171.0 114.0 L 171.0 114.0 L 170.0 114.0 " stroke="black" fill="none" stroke-width="5.0" stroke-linecap="round" stroke-linejoin="round" />
<path d="M 140.0 135.0 L 140.0 135.0 L 140.0 134.0 L 141.0 134.0 L 147.0 134.0 L 154.0 135.0 L 162.0 136.0 L 166.0 137.0 L 166.0 137.0 " stroke="black" fill="none" stroke-width="5.0" stroke-linecap="round" stroke-linejoin="round" />
<path d="M 151.0 106.0 L 151.0 106.0 L 151.0 108.0 L 151.0 111.0 L 151.0 119.0 L 153.0 128.0 L 153.0 135.0 " stroke="black" fill="none" stroke-width="5.0" stroke-linecap="round" stroke-linejoin="round" />
<path d="M 125.0 154.0 L 125.0 154.0 L 124.0 155.0 L 124.0 155.0 L 123.0 157.0 L 121.0 162.0 L 118.0 169.0 L 115.0 176.0 " stroke="black" fill="none" stroke-width="5.0" stroke-linecap="round" stroke-linejoin="round" />
<path d="M 139.0 163.0 L 139.0 163.0 L 139.0 164.0 L 139.0 165.0 L 138.0 167.0 L 137.0 170.0 L 136.0 176.0 L 136.0 182.0 L 139.0 186.0 L 145.0 189.0 L 154.0 190.0 L 165.0 191.0 L 177.0 191.0 L 184.0 189.0 L 186.0 188.0 L 186.0 187.0 L 183.0 185.0 L 182.0 184.0 " stroke="black" fill="none" stroke-width="5.0" stroke-linecap="round" stroke-linejoin="round" />
<path d="M 158.0 157.0 L 158.0 157.0 L 158.0 158.0 L 159.0 160.0 L 160.0 165.0 L 163.0 169.0 L 163.0 171.0 " stroke="black" fill="none" stroke-width="5.0" stroke-linecap="round" stroke-linejoin="round" />
<path d="M 190.0 157.0 L 190.0 157.0 L 191.0 159.0 L 193.0 161.0 L 196.0 166.0 L 196.0 167.0 " stroke="black" fill="none" stroke-width="5.0" stroke-linecap="round" stroke-linejoin="round" />
</svg>