<svg xmlns="http://www.w3.org/2000/svg" width="300" height="300" viewBox="0 0 300 300">
<path d="M 134.0 100.0 L 134.0 100.0 L 134.0 100.0 L 134.0 100.0 L 134.0 100.0 L 134.0 102.0 L 134.0 105.0 L 134.0 110.0 L 135.0 116.0 " stroke="black" fill="none" stroke-width="5.0" stroke-linecap="round" stroke-linejoin="round" />
<path d="M 118.0 107.0 L 118.0 107.0 L 119.0 107.0 L 119.0 107.0 L 122.0 107.0 L 130.0 107.0 L 144.0 108.0 L 160.0 108.0 L 174.0 108.0 L 187.0 107.0 L 189.0 106.0 " stroke="black" fill="none" stroke-width="5.0" stroke-linecap="round" stroke-linejoin="round" />
<path d="M 165.0 96.0 L 166.0 96.0 L 166.0 96.0 L 166.0 99.0 L 167.0 108.0 L 167.0 117.0 L 167.0 119.0 " stroke="black" fill="none" stroke-width="5.0" stroke-linecap="round" stroke-linejoin="round" />
<path d="M 125.0 130.0 L 125.0 130.0 L 125.0 130.0 L 126.0 130.0 L 127.0 130.0 L 129.0 130.0 L 134.0 130.0 L 139.0 131.0 L 143.0 131.0 L 145.0 132.0 L 147.0 134.0 L 148.0 137.0 L 148.0 142.0 L 149.0 147.0 L 149.0 151.0 L 149.0 152.0 " stroke="black" fill="none" stroke-width="5.0" stroke-linecap="round" stroke-linejoin="round" />
<path d="M 127.0 142.0 L 127.0 142.0 L 128.0 142.0 L 129.0 143.0 L 133.0 143.0 L 138.0 143.0 L 143.0 143.0 L 144.0 143.0 " stroke="black" fill="none" stroke-width="5.0" stroke-linecap="round" stroke-linejoin="round" />
<path d="M 123.0 151.0 L 123.0 151.0 L 123.0 151.0 L 125.0 151.0 L 131.0 151.0 L 140.0 151.0 L 147.0 152.0 " stroke="black" fill="none" stroke-width="5.0" stroke-linecap="round" stroke-linejoin="round" />
<path d="M 124.0 132.0 L 124.0 131.0 L 124.0 130.0 L 124.0 130.0 L 124.0 129.0 L 124.0 132.0 L 124.0 140.0 L 124.0 153.0 L 124.0 170.0 L 124.0 186.0 L 123.0 198.0 L 122.0 207.0 L 122.0 211.0 L 122.0 212.0 L 122.0 212.0 " stroke="black" fill="none" stroke-width="5.0" stroke-linecap="round" stroke-linejoin="round" />
<path d="M 159.0 129.0 L 159.0 129.0 L 159.0 129.0 L 160.0 130.0 L 163.0 130.0 L 167.0 130.0 L 173.0 130.0 L 177.0 131.0 L 180.0 131.0 L 181.0 131.0 L 182.0 133.0 L 183.0 135.0 L 184.0 139.0 L 186.0 145.0 L 188.0 154.0 L 191.0 168.0 L 193.0 181.0 L 194.0 191.0 L 194.0 198.0 L 194.0 202.0 L 194.0 204.0 L 192.0 205.0 L 189.0 205.0 L 182.0 204.0 " stroke="black" fill="none" stroke-width="5.0" stroke-linecap="round" stroke-linejoin="round" />
<path d="M 163.0 132.0 L 163.0 132.0 L 163.0 132.0 L 163.0 132.0 L 163.0 132.0 L 163.0 132.0 L 163.0 134.0 L 163.0 139.0 L 163.0 145.0 L 163.0 150.0 L 163.0 153.0 L 164.0 155.0 L 166.0 156.0 L 169.0 156.0 L 173.0 156.0 L 177.0 156.0 L 180.0 155.0 " stroke="black" fill="none" stroke-width="5.0" stroke-linecap="round" stroke-linejoin="round" />
<path d="M 165.0 144.0 L 165.0 144.0 L 166.0 144.0 L 167.0 143.0 L 170.0 143.0 L 175.0 143.0 L 180.0 144.0 L 181.0 144.0 " stroke="black" fill="none" stroke-width="5.0" stroke-linecap="round" stroke-linejoin="round" />
<path d="M 145.0 165.0 L 145.0 165.0 L 145.0 165.0 L 146.0 165.0 L 149.0 165.0 L 154.0 165.0 L 160.0 165.0 L 164.0 165.0 L 165.0 165.0 " stroke="black" fill="none" stroke-width="5.0" stroke-linecap="round" stroke-linejoin="round" />
<path d="M 140.0 173.0 L 140.0 173.0 L 139.0 173.0 L 139.0 173.0 L 139.0 175.0 L 139.0 178.0 L 140.0 182.0 L 142.0 184.0 L 142.0 184.0 " stroke="black" fill="none" stroke-width="5.0" stroke-linecap="round" stroke-linejoin="round" />
<path d="M 142.0 172.0 L 142.0 172.0 L 142.0 172.0 L 143.0 173.0 L 144.0 173.0 L 148.0 174.0 L 153.0 174.0 L 160.0 174.0 L 166.0 174.0 L 171.0 175.0 L 174.0 177.0 L 175.0 180.0 L 176.0 184.0 L 175.0 187.0 L 174.0 188.0 " stroke="black" fill="none" stroke-width="5.0" stroke-linecap="round" stroke-linejoin="round" />
<path d="M 149.0 176.0 L 149.0 176.0 L 149.0 177.0 L 149.0 179.0 L 150.0 181.0 " stroke="black" fill="none" stroke-width="5.0" stroke-linecap="round" stroke-linejoin="round" />
<path d="M 168.0 181.0 L 168.0 181.0 L 167.0 182.0 L 166.0 183.0 L 165.0 184.0 " stroke="black" fill="none" stroke-width="5.0" stroke-linecap="round" stroke-linejoin="round" />
<path d="M 148.0 188.0 L 148.0 188.0 L 148.0 188.0 L 150.0 188.0 L 155.0 188.0 L 162.0 187.0 " stroke="black" fill="none" stroke-width="5.0" stroke-linecap="round" stroke-linejoin="round" />
<path d="M 155.0 159.0 L 155.0 160.0 L 155.0 161.0 L 155.0 162.0 L 155.0 166.0 L 157.0 176.0 L 159.0 188.0 L 160.0 198.0 L 161.0 203.0 L 161.0 203.0 L 160.0 202.0 " stroke="black" fill="none" stroke-width="5.0" stroke-linecap="round" stroke-linejoin="round" />
<path d="M 158.0 191.0 L 158.0 191.0 L 158.0 191.0 L 157.0 191.0 L 156.0 192.0 L 154.0 194.0 L 150.0 196.0 L 147.0 199.0 L 146.0 200.0 " stroke="black" fill="none" stroke-width="5.0" stroke-linecap="round" stroke-linejoin="round" />
<path d="M 163.0 191.0 L 164.0 192.0 L 167.0 194.0 L 171.0 197.0 L 175.0 200.0 L 178.0 202.0 L 179.0 203.0 " stroke="black" fill="none" stroke-width="5.0" stroke-linecap="round" stroke-linejoin="round" />
</svg>