<svg xmlns="http://www.w3.org/2000/svg" width="300" height="300" viewBox="0 0 300 300">
<path d="M 124.0 114.0 L 124.0 114.0 L 125.0 114.0 L 126.0 114.0 L 133.0 114.0 L 147.0 114.0 L 160.0 114.0 L 170.0 114.0 L 172.0 114.0 " stroke="black" fill="none" stroke-width="5.0" stroke-linecap="round" stroke-linejoin="round" />
<path d="M 150.0 120.0 L 150.0 120.0 L 150.0 120.0 L 150.0 120.0 L 151.0 120.0 L 151.0 120.0 L 149.0 125.0 L 143.0 134.0 L 141.0 136.0 " stroke="black" fill="none" stroke-width="5.0" stroke-linecap="round" stroke-linejoin="round" />
<path d="M 119.0 144.0 L 119.0 144.0 L 119.0 144.0 L 119.0 144.0 L 119.0 148.0 L 119.0 159.0 L 119.0 175.0 L 119.0 185.0 L 119.0 188.0 " stroke="black" fill="none" stroke-width="5.0" stroke-linecap="round" stroke-linejoin="round" />
<path d="M 125.0 138.0 L 126.0 137.0 L 127.0 137.0 L 129.0 137.0 L 135.0 137.0 L 143.0 137.0 L 152.0 137.0 L 161.0 137.0 L 168.0 137.0 L 173.0 137.0 L 176.0 137.0 L 178.0 141.0 L 181.0 150.0 L 184.0 165.0 L 186.0 178.0 L 188.0 187.0 L 188.0 191.0 " stroke="black" fill="none" stroke-width="5.0" stroke-linecap="round" stroke-linejoin="round" />
<path d="M 143.0 141.0 L 142.0 142.0 L 141.0 144.0 L 141.0 152.0 L 143.0 165.0 L 144.0 179.0 L 144.0 188.0 L 144.0 189.0 " stroke="black" fill="none" stroke-width="5.0" stroke-linecap="round" stroke-linejoin="round" />
<path d="M 158.0 144.0 L 159.0 145.0 L 159.0 149.0 L 160.0 156.0 L 162.0 166.0 L 165.0 175.0 L 165.0 181.0 " stroke="black" fill="none" stroke-width="5.0" stroke-linecap="round" stroke-linejoin="round" />
<path d="M 147.0 157.0 L 147.0 157.0 L 146.0 157.0 L 146.0 157.0 L 148.0 158.0 L 153.0 158.0 L 159.0 158.0 L 162.0 159.0 " stroke="black" fill="none" stroke-width="5.0" stroke-linecap="round" stroke-linejoin="round" />
<path d="M 146.0 174.0 L 146.0 174.0 L 147.0 175.0 L 150.0 176.0 L 157.0 176.0 L 160.0 176.0 " stroke="black" fill="none" stroke-width="5.0" stroke-linecap="round" stroke-linejoin="round" />
<path d="M 115.0 195.0 L 117.0 196.0 L 123.0 196.0 L 139.0 197.0 L 159.0 195.0 L 177.0 194.0 L 184.0 194.0 " stroke="black" fill="none" stroke-width="5.0" stroke-linecap="round" stroke-linejoin="round" />
</svg>