<svg xmlns="http://www.w3.org/2000/svg" width="300" height="300" viewBox="0 0 300 300">
<path d="M 124.0 115.0 L 125.0 115.0 L 125.0 115.0 L 126.0 116.0 L 127.0 118.0 L 129.0 121.0 L 131.0 125.0 " stroke="black" fill="none" stroke-width="5.0" stroke-linecap="round" stroke-linejoin="round" />
<path d="M 115.0 133.0 L 116.0 133.0 L 116.0 133.0 L 119.0 134.0 L 125.0 133.0 L 134.0 131.0 L 141.0 130.0 L 144.0 130.0 L 144.0 130.0 " stroke="black" fill="none" stroke-width="5.0" stroke-linecap="round" stroke-linejoin="round" />
<path d="M 126.0 136.0 L 126.0 136.0 L 126.0 135.0 L 125.0 135.0 L 125.0 136.0 L 124.0 142.0 L 122.0 154.0 L 119.0 169.0 L 116.0 181.0 L 115.0 186.0 L 115.0 186.0 " stroke="black" fill="none" stroke-width="5.0" stroke-linecap="round" stroke-linejoin="round" />
<path d="M 127.0 152.0 L 127.0 152.0 L 128.0 152.0 L 130.0 151.0 L 131.0 151.0 L 133.0 151.0 L 136.0 151.0 L 138.0 151.0 L 141.0 152.0 L 143.0 155.0 L 145.0 161.0 L 146.0 169.0 L 148.0 178.0 L 148.0 183.0 L 148.0 186.0 L 148.0 188.0 L 145.0 188.0 L 139.0 187.0 L 136.0 186.0 " stroke="black" fill="none" stroke-width="5.0" stroke-linecap="round" stroke-linejoin="round" />
<path d="M 159.0 123.0 L 159.0 123.0 L 158.0 124.0 L 157.0 126.0 L 156.0 132.0 L 153.0 141.0 L 149.0 150.0 L 148.0 153.0 " stroke="black" fill="none" stroke-width="5.0" stroke-linecap="round" stroke-linejoin="round" />
<path d="M 161.0 124.0 L 161.0 124.0 L 163.0 124.0 L 165.0 126.0 L 170.0 134.0 L 176.0 144.0 L 182.0 151.0 L 184.0 155.0 L 185.0 155.0 " stroke="black" fill="none" stroke-width="5.0" stroke-linecap="round" stroke-linejoin="round" />
<path d="M 162.0 153.0 L 163.0 154.0 L 164.0 155.0 L 166.0 156.0 L 170.0 158.0 L 174.0 160.0 L 175.0 161.0 " stroke="black" fill="none" stroke-width="5.0" stroke-linecap="round" stroke-linejoin="round" />
<path d="M 158.0 170.0 L 158.0 171.0 L 159.0 173.0 L 163.0 176.0 L 170.0 180.0 L 177.0 183.0 " stroke="black" fill="none" stroke-width="5.0" stroke-linecap="round" stroke-linejoin="round" />
</svg>