<svg xmlns="http://www.w3.org/2000/svg" width="300" height="300" viewBox="0 0 300 300">
<path d="M 122.0 110.0 L 122.0 110.0 L 123.0 109.0 L 123.0 109.0 L 124.0 109.0 L 125.0 111.0 L 128.0 115.0 L 131.0 119.0 " stroke="black" fill="none" stroke-width="5.0" stroke-linecap="round" stroke-linejoin="round" />
<path d="M 110.0 132.0 L 110.0 132.0 L 110.0 132.0 L 110.0 132.0 L 114.0 132.0 L 123.0 131.0 L 133.0 130.0 L 139.0 129.0 L 140.0 129.0 L 141.0 131.0 " stroke="black" fill="none" stroke-width="5.0" stroke-linecap="round" stroke-linejoin="round" />
<path d="M 119.0 142.0 L 120.0 142.0 L 120.0 141.0 L 120.0 141.0 L 120.0 143.0 L 118.0 150.0 L 114.0 166.0 L 110.0 186.0 L 107.0 197.0 L 106.0 198.0 " stroke="black" fill="none" stroke-width="5.0" stroke-linecap="round" stroke-linejoin="round" />
<path d="M 116.0 157.0 L 116.0 157.0 L 117.0 158.0 L 117.0 158.0 L 118.0 158.0 L 121.0 158.0 L 125.0 157.0 L 130.0 156.0 L 134.0 159.0 L 137.0 167.0 L 139.0 176.0 L 140.0 184.0 L 140.0 190.0 L 139.0 192.0 L 137.0 193.0 L 123.0 189.0 " stroke="black" fill="none" stroke-width="5.0" stroke-linecap="round" stroke-linejoin="round" />
<path d="M 159.0 123.0 L 159.0 123.0 L 159.0 123.0 L 159.0 123.0 L 158.0 125.0 L 155.0 133.0 L 149.0 145.0 L 142.0 156.0 L 140.0 158.0 " stroke="black" fill="none" stroke-width="5.0" stroke-linecap="round" stroke-linejoin="round" />
<path d="M 160.0 122.0 L 160.0 122.0 L 160.0 122.0 L 164.0 125.0 L 172.0 132.0 L 181.0 141.0 L 186.0 147.0 " stroke="black" fill="none" stroke-width="5.0" stroke-linecap="round" stroke-linejoin="round" />
<path d="M 159.0 152.0 L 159.0 153.0 L 161.0 154.0 L 166.0 157.0 L 172.0 161.0 L 176.0 164.0 L 177.0 165.0 " stroke="black" fill="none" stroke-width="5.0" stroke-linecap="round" stroke-linejoin="round" />
<path d="M 154.0 172.0 L 154.0 173.0 L 156.0 175.0 L 160.0 179.0 L 166.0 184.0 L 175.0 189.0 L 179.0 190.0 " stroke="black" fill="none" stroke-width="5.0" stroke-linecap="round" stroke-linejoin="round" />
</svg>