<svg xmlns="http://www.w3.org/2000/svg" width="300" height="300" viewBox="0 0 300 300">
<path d="M 124.0 113.0 L 124.0 113.0 L 124.0 113.0 L 124.0 113.0 L 124.0 113.0 L 124.0 114.0 L 126.0 118.0 L 131.0 123.0 " stroke="black" fill="none" stroke-width="5.0" stroke-linecap="round" stroke-linejoin="round" />
<path d="M 111.0 134.0 L 111.0 134.0 L 111.0 134.0 L 110.0 134.0 L 114.0 134.0 L 124.0 134.0 L 135.0 133.0 L 142.0 133.0 L 143.0 132.0 " stroke="black" fill="none" stroke-width="5.0" stroke-linecap="round" stroke-linejoin="round" />
<path d="M 120.0 140.0 L 120.0 140.0 L 119.0 140.0 L 119.0 142.0 L 117.0 145.0 L 116.0 154.0 L 114.0 166.0 L 111.0 178.0 L 110.0 183.0 L 110.0 183.0 " stroke="black" fill="none" stroke-width="5.0" stroke-linecap="round" stroke-linejoin="round" />
<path d="M 118.0 153.0 L 118.0 153.0 L 119.0 153.0 L 120.0 153.0 L 124.0 153.0 L 128.0 153.0 L 132.0 153.0 L 135.0 154.0 L 138.0 159.0 L 140.0 165.0 L 142.0 180.0 L 143.0 188.0 L 143.0 191.0 L 143.0 191.0 L 139.0 189.0 L 131.0 184.0 " stroke="black" fill="none" stroke-width="5.0" stroke-linecap="round" stroke-linejoin="round" />
<path d="M 157.0 120.0 L 157.0 120.0 L 157.0 120.0 L 157.0 120.0 L 156.0 122.0 L 154.0 129.0 L 150.0 140.0 L 145.0 149.0 " stroke="black" fill="none" stroke-width="5.0" stroke-linecap="round" stroke-linejoin="round" />
<path d="M 159.0 120.0 L 159.0 120.0 L 159.0 120.0 L 160.0 120.0 L 161.0 120.0 L 166.0 124.0 L 168.0 125.0 L 180.0 136.0 L 184.0 141.0 " stroke="black" fill="none" stroke-width="5.0" stroke-linecap="round" stroke-linejoin="round" />
<path d="M 160.0 152.0 L 161.0 152.0 L 161.0 152.0 L 162.0 152.0 L 163.0 153.0 L 167.0 154.0 L 172.0 155.0 L 177.0 157.0 " stroke="black" fill="none" stroke-width="5.0" stroke-linecap="round" stroke-linejoin="round" />
<path d="M 160.0 169.0 L 161.0 169.0 L 163.0 170.0 L 166.0 172.0 L 172.0 175.0 L 179.0 178.0 L 182.0 180.0 " stroke="black" fill="none" stroke-width="5.0" stroke-linecap="round" stroke-linejoin="round" />
</svg>