<svg xmlns="http://www.w3.org/2000/svg" width="300" height="300" viewBox="0 0 300 300">
<path d="M 122.0 107.0 L 124.0 107.0 L 125.0 109.0 L 126.0 114.0 L 128.0 120.0 L 131.0 124.0 " stroke="black" fill="none" stroke-width="5.0" stroke-linecap="round" stroke-linejoin="round" />
<path d="M 108.0 127.0 L 108.0 128.0 L 108.0 128.0 L 111.0 128.0 L 120.0 128.0 L 133.0 128.0 L 140.0 128.0 L 142.0 128.0 " stroke="black" fill="none" stroke-width="5.0" stroke-linecap="round" stroke-linejoin="round" />
<path d="M 119.0 135.0 L 119.0 135.0 L 119.0 135.0 L 119.0 136.0 L 118.0 141.0 L 115.0 152.0 L 110.0 171.0 L 106.0 186.0 L 105.0 191.0 L 106.0 191.0 " stroke="black" fill="none" stroke-width="5.0" stroke-linecap="round" stroke-linejoin="round" />
<path d="M 115.0 153.0 L 115.0 152.0 L 115.0 152.0 L 115.0 151.0 L 117.0 151.0 L 121.0 151.0 L 127.0 151.0 L 132.0 152.0 L 137.0 156.0 L 139.0 165.0 L 140.0 176.0 L 141.0 184.0 L 141.0 188.0 L 139.0 188.0 L 133.0 189.0 L 126.0 185.0 L 122.0 181.0 " stroke="black" fill="none" stroke-width="5.0" stroke-linecap="round" stroke-linejoin="round" />
<path d="M 161.0 116.0 L 161.0 116.0 L 162.0 116.0 L 162.0 116.0 L 161.0 120.0 L 157.0 128.0 L 149.0 141.0 L 143.0 149.0 " stroke="black" fill="none" stroke-width="5.0" stroke-linecap="round" stroke-linejoin="round" />
<path d="M 163.0 120.0 L 163.0 120.0 L 164.0 121.0 L 165.0 122.0 L 169.0 125.0 L 176.0 130.0 L 182.0 135.0 L 187.0 139.0 " stroke="black" fill="none" stroke-width="5.0" stroke-linecap="round" stroke-linejoin="round" />
<path d="M 161.0 153.0 L 162.0 154.0 L 164.0 155.0 L 168.0 157.0 L 173.0 160.0 L 179.0 162.0 L 183.0 164.0 " stroke="black" fill="none" stroke-width="5.0" stroke-linecap="round" stroke-linejoin="round" />
<path d="M 156.0 178.0 L 156.0 179.0 L 158.0 181.0 L 163.0 184.0 L 174.0 187.0 L 183.0 189.0 " stroke="black" fill="none" stroke-width="5.0" stroke-linecap="round" stroke-linejoin="round" />
</svg>