<svg xmlns="http://www.w3.org/2000/svg" width="300" height="300" viewBox="0 0 300 300">
<path d="M 124.0 111.0 L 124.0 111.0 L 124.0 112.0 L 124.0 114.0 L 126.0 119.0 L 129.0 122.0 " stroke="black" fill="none" stroke-width="5.0" stroke-linecap="round" stroke-linejoin="round" />
<path d="M 113.0 131.0 L 114.0 131.0 L 115.0 131.0 L 119.0 131.0 L 126.0 130.0 L 135.0 129.0 L 142.0 129.0 L 143.0 129.0 " stroke="black" fill="none" stroke-width="5.0" stroke-linecap="round" stroke-linejoin="round" />
<path d="M 124.0 136.0 L 124.0 136.0 L 124.0 136.0 L 123.0 138.0 L 122.0 143.0 L 121.0 155.0 L 119.0 169.0 L 117.0 181.0 L 116.0 187.0 L 116.0 187.0 " stroke="black" fill="none" stroke-width="5.0" stroke-linecap="round" stroke-linejoin="round" />
<path d="M 122.0 154.0 L 122.0 154.0 L 122.0 154.0 L 124.0 153.0 L 127.0 152.0 L 130.0 152.0 L 135.0 153.0 L 139.0 158.0 L 143.0 167.0 L 146.0 176.0 L 146.0 183.0 L 146.0 188.0 L 143.0 190.0 L 139.0 190.0 L 133.0 188.0 L 131.0 186.0 " stroke="black" fill="none" stroke-width="5.0" stroke-linecap="round" stroke-linejoin="round" />
<path d="M 154.0 122.0 L 154.0 122.0 L 154.0 122.0 L 154.0 122.0 L 154.0 123.0 L 154.0 125.0 L 152.0 132.0 L 147.0 141.0 L 144.0 146.0 " stroke="black" fill="none" stroke-width="5.0" stroke-linecap="round" stroke-linejoin="round" />
<path d="M 158.0 123.0 L 158.0 123.0 L 159.0 124.0 L 162.0 126.0 L 168.0 131.0 L 176.0 138.0 L 182.0 144.0 L 184.0 147.0 " stroke="black" fill="none" stroke-width="5.0" stroke-linecap="round" stroke-linejoin="round" />
<path d="M 158.0 153.0 L 159.0 154.0 L 160.0 155.0 L 161.0 156.0 L 165.0 158.0 L 171.0 160.0 " stroke="black" fill="none" stroke-width="5.0" stroke-linecap="round" stroke-linejoin="round" />
<path d="M 158.0 179.0 L 160.0 179.0 L 163.0 180.0 L 167.0 182.0 L 173.0 182.0 " stroke="black" fill="none" stroke-width="5.0" stroke-linecap="round" stroke-linejoin="round" />
</svg>