<svg xmlns="http://www.w3.org/2000/svg" width="300" height="300" viewBox="0 0 300 300">
<path d="M 129.0 114.0 L 129.0 114.0 L 129.0 114.0 L 130.0 115.0 L 130.0 116.0 L 129.0 118.0 L 125.0 122.0 L 119.0 129.0 L 113.0 135.0 L 111.0 136.0 " stroke="black" fill="none" stroke-width="5.0" stroke-linecap="round" stroke-linejoin="round" />
<path d="M 132.0 131.0 L 132.0 131.0 L 132.0 131.0 L 132.0 131.0 L 132.0 131.0 L 131.0 133.0 L 126.0 138.0 L 118.0 147.0 L 109.0 156.0 L 103.0 163.0 L 100.0 165.0 L 100.0 165.0 " stroke="black" fill="none" stroke-width="5.0" stroke-linecap="round" stroke-linejoin="round" />
<path d="M 119.0 151.0 L 120.0 151.0 L 120.0 151.0 L 120.0 153.0 L 120.0 159.0 L 121.0 170.0 L 121.0 181.0 L 120.0 189.0 " stroke="black" fill="none" stroke-width="5.0" stroke-linecap="round" stroke-linejoin="round" />
<path d="M 143.0 116.0 L 143.0 116.0 L 143.0 116.0 L 143.0 116.0 L 143.0 117.0 L 143.0 118.0 L 143.0 122.0 L 143.0 126.0 L 143.0 130.0 L 144.0 133.0 L 147.0 134.0 L 152.0 134.0 L 156.0 134.0 L 160.0 133.0 L 161.0 132.0 " stroke="black" fill="none" stroke-width="5.0" stroke-linecap="round" stroke-linejoin="round" />
<path d="M 151.0 114.0 L 151.0 114.0 L 151.0 114.0 L 151.0 114.0 L 151.0 116.0 L 151.0 119.0 L 152.0 124.0 " stroke="black" fill="none" stroke-width="5.0" stroke-linecap="round" stroke-linejoin="round" />
<path d="M 160.0 116.0 L 160.0 117.0 L 160.0 119.0 L 160.0 123.0 L 160.0 129.0 L 160.0 131.0 " stroke="black" fill="none" stroke-width="5.0" stroke-linecap="round" stroke-linejoin="round" />
<path d="M 141.0 148.0 L 141.0 148.0 L 141.0 148.0 L 141.0 148.0 L 144.0 148.0 L 150.0 147.0 L 156.0 146.0 L 159.0 146.0 L 159.0 146.0 " stroke="black" fill="none" stroke-width="5.0" stroke-linecap="round" stroke-linejoin="round" />
<path d="M 145.0 157.0 L 145.0 157.0 L 145.0 159.0 L 145.0 162.0 L 144.0 169.0 L 143.0 178.0 L 143.0 184.0 L 144.0 185.0 " stroke="black" fill="none" stroke-width="5.0" stroke-linecap="round" stroke-linejoin="round" />
<path d="M 155.0 158.0 L 155.0 158.0 L 155.0 158.0 L 155.0 159.0 L 155.0 163.0 L 157.0 170.0 L 160.0 176.0 L 165.0 177.0 L 167.0 176.0 " stroke="black" fill="none" stroke-width="5.0" stroke-linecap="round" stroke-linejoin="round" />
<path d="M 175.0 114.0 L 175.0 115.0 L 175.0 116.0 L 174.0 119.0 L 173.0 127.0 L 171.0 139.0 L 168.0 148.0 " stroke="black" fill="none" stroke-width="5.0" stroke-linecap="round" stroke-linejoin="round" />
<path d="M 174.0 129.0 L 174.0 129.0 L 176.0 130.0 L 180.0 131.0 L 185.0 131.0 L 190.0 131.0 L 193.0 131.0 " stroke="black" fill="none" stroke-width="5.0" stroke-linecap="round" stroke-linejoin="round" />
<path d="M 188.0 135.0 L 188.0 135.0 L 187.0 136.0 L 187.0 137.0 L 187.0 141.0 L 186.0 151.0 L 185.0 167.0 L 181.0 183.0 L 178.0 194.0 L 176.0 197.0 L 176.0 198.0 " stroke="black" fill="none" stroke-width="5.0" stroke-linecap="round" stroke-linejoin="round" />
<path d="M 171.0 157.0 L 173.0 160.0 L 177.0 166.0 L 184.0 177.0 L 193.0 190.0 L 199.0 199.0 L 202.0 204.0 L 203.0 205.0 L 202.0 205.0 " stroke="black" fill="none" stroke-width="5.0" stroke-linecap="round" stroke-linejoin="round" />
</svg>