<svg xmlns="http://www.w3.org/2000/svg" width="300" height="300" viewBox="0 0 300 300">
<path d="M 128.0 116.0 L 128.0 116.0 L 128.0 116.0 L 128.0 116.0 L 127.0 116.0 L 126.0 118.0 L 124.0 123.0 L 118.0 132.0 L 111.0 142.0 L 106.0 149.0 " stroke="black" fill="none" stroke-width="5.0" stroke-linecap="round" stroke-linejoin="round" />
<path d="M 132.0 135.0 L 131.0 135.0 L 130.0 136.0 L 129.0 138.0 L 127.0 142.0 L 122.0 150.0 L 114.0 163.0 L 105.0 175.0 L 100.0 182.0 L 100.0 182.0 " stroke="black" fill="none" stroke-width="5.0" stroke-linecap="round" stroke-linejoin="round" />
<path d="M 119.0 156.0 L 119.0 157.0 L 119.0 158.0 L 119.0 161.0 L 119.0 168.0 L 121.0 180.0 L 121.0 190.0 L 121.0 193.0 " stroke="black" fill="none" stroke-width="5.0" stroke-linecap="round" stroke-linejoin="round" />
<path d="M 140.0 118.0 L 140.0 118.0 L 140.0 118.0 L 140.0 119.0 L 140.0 121.0 L 140.0 124.0 L 139.0 130.0 L 139.0 136.0 L 139.0 140.0 L 141.0 143.0 L 146.0 144.0 L 152.0 144.0 L 159.0 142.0 L 163.0 142.0 L 164.0 141.0 " stroke="black" fill="none" stroke-width="5.0" stroke-linecap="round" stroke-linejoin="round" />
<path d="M 150.0 116.0 L 150.0 118.0 L 150.0 122.0 L 150.0 127.0 L 150.0 134.0 L 150.0 135.0 " stroke="black" fill="none" stroke-width="5.0" stroke-linecap="round" stroke-linejoin="round" />
<path d="M 162.0 119.0 L 162.0 120.0 L 162.0 122.0 L 162.0 126.0 L 162.0 131.0 L 163.0 137.0 L 163.0 138.0 " stroke="black" fill="none" stroke-width="5.0" stroke-linecap="round" stroke-linejoin="round" />
<path d="M 138.0 158.0 L 138.0 158.0 L 138.0 158.0 L 138.0 158.0 L 140.0 157.0 L 147.0 157.0 L 154.0 155.0 L 159.0 155.0 L 160.0 155.0 " stroke="black" fill="none" stroke-width="5.0" stroke-linecap="round" stroke-linejoin="round" />
<path d="M 145.0 167.0 L 145.0 167.0 L 144.0 168.0 L 143.0 170.0 L 143.0 174.0 L 143.0 180.0 L 142.0 188.0 L 141.0 193.0 L 141.0 194.0 " stroke="black" fill="none" stroke-width="5.0" stroke-linecap="round" stroke-linejoin="round" />
<path d="M 154.0 167.0 L 154.0 167.0 L 154.0 167.0 L 154.0 168.0 L 154.0 174.0 L 154.0 183.0 L 157.0 190.0 L 162.0 192.0 L 166.0 190.0 " stroke="black" fill="none" stroke-width="5.0" stroke-linecap="round" stroke-linejoin="round" />
<path d="M 177.0 120.0 L 177.0 120.0 L 177.0 120.0 L 177.0 121.0 L 174.0 125.0 L 173.0 134.0 L 170.0 147.0 L 168.0 152.0 " stroke="black" fill="none" stroke-width="5.0" stroke-linecap="round" stroke-linejoin="round" />
<path d="M 175.0 138.0 L 176.0 138.0 L 178.0 138.0 L 182.0 137.0 L 188.0 135.0 L 194.0 135.0 L 197.0 134.0 " stroke="black" fill="none" stroke-width="5.0" stroke-linecap="round" stroke-linejoin="round" />
<path d="M 192.0 139.0 L 192.0 139.0 L 192.0 139.0 L 192.0 139.0 L 192.0 142.0 L 192.0 151.0 L 191.0 167.0 L 187.0 185.0 L 184.0 195.0 L 183.0 198.0 L 183.0 198.0 " stroke="black" fill="none" stroke-width="5.0" stroke-linecap="round" stroke-linejoin="round" />
<path d="M 177.0 155.0 L 177.0 153.0 L 177.0 153.0 L 180.0 155.0 L 186.0 168.0 L 193.0 185.0 L 200.0 199.0 L 204.0 206.0 L 206.0 207.0 L 206.0 208.0 " stroke="black" fill="none" stroke-width="5.0" stroke-linecap="round" stroke-linejoin="round" />
</svg>