<svg xmlns="http://www.w3.org/2000/svg" width="300" height="300" viewBox="0 0 300 300">
<path d="M 119.0 109.0 L 119.0 109.0 L 119.0 109.0 L 120.0 110.0 L 120.0 112.0 L 120.0 118.0 L 121.0 125.0 L 121.0 131.0 L 121.0 132.0 " stroke="black" fill="none" stroke-width="5.0" stroke-linecap="round" stroke-linejoin="round" />
<path d="M 135.0 109.0 L 135.0 109.0 L 134.0 111.0 L 134.0 115.0 L 134.0 120.0 L 134.0 127.0 L 134.0 135.0 " stroke="black" fill="none" stroke-width="5.0" stroke-linecap="round" stroke-linejoin="round" />
<path d="M 111.0 121.0 L 111.0 121.0 L 111.0 121.0 L 113.0 121.0 L 120.0 119.0 L 131.0 119.0 L 140.0 120.0 L 144.0 121.0 " stroke="black" fill="none" stroke-width="5.0" stroke-linecap="round" stroke-linejoin="round" />
<path d="M 105.0 140.0 L 105.0 140.0 L 105.0 140.0 L 105.0 140.0 L 106.0 139.0 L 113.0 139.0 L 125.0 138.0 L 139.0 138.0 L 147.0 140.0 L 150.0 141.0 " stroke="black" fill="none" stroke-width="5.0" stroke-linecap="round" stroke-linejoin="round" />
<path d="M 115.0 152.0 L 114.0 153.0 L 114.0 154.0 L 113.0 159.0 L 112.0 170.0 L 111.0 183.0 L 110.0 190.0 L 110.0 191.0 " stroke="black" fill="none" stroke-width="5.0" stroke-linecap="round" stroke-linejoin="round" />
<path d="M 117.0 150.0 L 118.0 149.0 L 120.0 149.0 L 123.0 148.0 L 127.0 147.0 L 131.0 147.0 L 133.0 147.0 L 135.0 150.0 L 138.0 156.0 L 141.0 166.0 L 143.0 179.0 L 145.0 188.0 L 145.0 192.0 L 145.0 193.0 L 141.0 193.0 L 135.0 190.0 L 131.0 188.0 " stroke="black" fill="none" stroke-width="5.0" stroke-linecap="round" stroke-linejoin="round" />
<path d="M 118.0 160.0 L 119.0 160.0 L 120.0 160.0 L 122.0 160.0 L 128.0 160.0 L 136.0 160.0 L 140.0 160.0 " stroke="black" fill="none" stroke-width="5.0" stroke-linecap="round" stroke-linejoin="round" />
<path d="M 115.0 172.0 L 116.0 172.0 L 117.0 173.0 L 123.0 174.0 L 134.0 174.0 L 141.0 173.0 " stroke="black" fill="none" stroke-width="5.0" stroke-linecap="round" stroke-linejoin="round" />
<path d="M 159.0 109.0 L 159.0 109.0 L 159.0 109.0 L 159.0 109.0 L 159.0 112.0 L 157.0 122.0 L 153.0 136.0 L 150.0 144.0 " stroke="black" fill="none" stroke-width="5.0" stroke-linecap="round" stroke-linejoin="round" />
<path d="M 156.0 126.0 L 157.0 126.0 L 158.0 126.0 L 160.0 125.0 L 167.0 124.0 L 174.0 124.0 L 180.0 124.0 L 182.0 125.0 " stroke="black" fill="none" stroke-width="5.0" stroke-linecap="round" stroke-linejoin="round" />
<path d="M 179.0 130.0 L 178.0 131.0 L 177.0 132.0 L 177.0 134.0 L 177.0 138.0 L 177.0 146.0 L 176.0 158.0 L 171.0 174.0 L 164.0 187.0 L 161.0 191.0 " stroke="black" fill="none" stroke-width="5.0" stroke-linecap="round" stroke-linejoin="round" />
<path d="M 156.0 151.0 L 156.0 151.0 L 157.0 151.0 L 159.0 151.0 L 165.0 156.0 L 175.0 166.0 L 185.0 181.0 L 191.0 191.0 L 193.0 193.0 L 193.0 193.0 " stroke="black" fill="none" stroke-width="5.0" stroke-linecap="round" stroke-linejoin="round" />
</svg>