<svg xmlns="http://www.w3.org/2000/svg" width="300" height="300" viewBox="0 0 300 300">
<path d="M 138.0 104.0 L 137.0 105.0 L 136.0 109.0 L 134.0 115.0 L 130.0 122.0 L 125.0 127.0 L 122.0 129.0 " stroke="black" fill="none" stroke-width="5.0" stroke-linecap="round" stroke-linejoin="round" />
<path d="M 135.0 114.0 L 135.0 114.0 L 135.0 114.0 L 135.0 114.0 L 136.0 114.0 L 138.0 114.0 L 144.0 114.0 L 151.0 114.0 L 159.0 114.0 L 165.0 114.0 L 170.0 114.0 L 173.0 114.0 L 173.0 115.0 L 173.0 118.0 L 173.0 124.0 L 174.0 131.0 L 174.0 141.0 L 175.0 150.0 L 176.0 155.0 L 176.0 158.0 L 175.0 158.0 L 172.0 158.0 L 164.0 155.0 L 161.0 155.0 " stroke="black" fill="none" stroke-width="5.0" stroke-linecap="round" stroke-linejoin="round" />
<path d="M 149.0 117.0 L 149.0 117.0 L 149.0 117.0 L 149.0 118.0 L 148.0 119.0 L 147.0 122.0 L 144.0 128.0 L 139.0 136.0 L 138.0 137.0 " stroke="black" fill="none" stroke-width="5.0" stroke-linecap="round" stroke-linejoin="round" />
<path d="M 159.0 119.0 L 159.0 119.0 L 159.0 119.0 L 160.0 121.0 L 160.0 125.0 L 157.0 134.0 L 153.0 142.0 " stroke="black" fill="none" stroke-width="5.0" stroke-linecap="round" stroke-linejoin="round" />
<path d="M 118.0 162.0 L 118.0 162.0 L 118.0 162.0 L 119.0 162.0 L 119.0 163.0 L 119.0 164.0 L 118.0 168.0 L 115.0 173.0 " stroke="black" fill="none" stroke-width="5.0" stroke-linecap="round" stroke-linejoin="round" />
<path d="M 131.0 177.0 L 131.0 177.0 L 130.0 178.0 L 130.0 179.0 L 129.0 181.0 L 128.0 183.0 L 128.0 187.0 L 128.0 190.0 L 130.0 192.0 L 134.0 194.0 L 140.0 195.0 L 148.0 196.0 L 158.0 198.0 L 168.0 199.0 L 177.0 199.0 L 185.0 199.0 L 190.0 199.0 L 190.0 199.0 L 190.0 199.0 L 190.0 198.0 L 189.0 193.0 L 186.0 187.0 " stroke="black" fill="none" stroke-width="5.0" stroke-linecap="round" stroke-linejoin="round" />
<path d="M 157.0 168.0 L 157.0 168.0 L 157.0 168.0 L 157.0 169.0 L 157.0 173.0 L 160.0 180.0 " stroke="black" fill="none" stroke-width="5.0" stroke-linecap="round" stroke-linejoin="round" />
<path d="M 196.0 169.0 L 196.0 169.0 L 197.0 170.0 L 198.0 172.0 L 200.0 175.0 L 203.0 181.0 " stroke="black" fill="none" stroke-width="5.0" stroke-linecap="round" stroke-linejoin="round" />
</svg>