<svg xmlns="http://www.w3.org/2000/svg" width="300" height="300" viewBox="0 0 300 300">
<path d="M 136.0 101.0 L 136.0 101.0 L 135.0 103.0 L 133.0 106.0 L 132.0 109.0 L 128.0 116.0 L 121.0 128.0 L 117.0 131.0 L 116.0 132.0 " stroke="black" fill="none" stroke-width="5.0" stroke-linecap="round" stroke-linejoin="round" />
<path d="M 132.0 117.0 L 132.0 117.0 L 131.0 117.0 L 131.0 117.0 L 132.0 117.0 L 136.0 116.0 L 141.0 116.0 L 150.0 116.0 L 155.0 116.0 L 162.0 116.0 L 169.0 116.0 L 171.0 116.0 L 173.0 116.0 L 173.0 119.0 L 174.0 123.0 L 176.0 135.0 L 177.0 142.0 L 178.0 148.0 L 180.0 157.0 L 181.0 163.0 L 181.0 165.0 L 181.0 167.0 L 181.0 167.0 L 175.0 167.0 L 170.0 166.0 L 162.0 165.0 " stroke="black" fill="none" stroke-width="5.0" stroke-linecap="round" stroke-linejoin="round" />
<path d="M 147.0 122.0 L 147.0 122.0 L 147.0 122.0 L 146.0 122.0 L 145.0 122.0 L 145.0 124.0 L 142.0 132.0 L 137.0 142.0 L 134.0 148.0 L 133.0 151.0 " stroke="black" fill="none" stroke-width="5.0" stroke-linecap="round" stroke-linejoin="round" />
<path d="M 158.0 120.0 L 158.0 120.0 L 158.0 122.0 L 158.0 124.0 L 156.0 130.0 L 153.0 140.0 L 149.0 149.0 L 147.0 154.0 " stroke="black" fill="none" stroke-width="5.0" stroke-linecap="round" stroke-linejoin="round" />
<path d="M 118.0 167.0 L 120.0 168.0 L 120.0 169.0 L 120.0 171.0 L 119.0 174.0 L 116.0 179.0 L 111.0 186.0 L 108.0 191.0 " stroke="black" fill="none" stroke-width="5.0" stroke-linecap="round" stroke-linejoin="round" />
<path d="M 131.0 181.0 L 131.0 181.0 L 132.0 181.0 L 132.0 181.0 L 132.0 183.0 L 132.0 185.0 L 132.0 190.0 L 132.0 195.0 L 134.0 198.0 L 141.0 200.0 L 151.0 200.0 L 161.0 200.0 L 167.0 200.0 L 175.0 199.0 L 178.0 197.0 L 178.0 196.0 L 178.0 195.0 L 175.0 192.0 L 172.0 190.0 " stroke="black" fill="none" stroke-width="5.0" stroke-linecap="round" stroke-linejoin="round" />
<path d="M 150.0 178.0 L 150.0 178.0 L 150.0 178.0 L 150.0 178.0 L 150.0 178.0 L 151.0 178.0 L 153.0 183.0 L 155.0 186.0 " stroke="black" fill="none" stroke-width="5.0" stroke-linecap="round" stroke-linejoin="round" />
<path d="M 184.0 179.0 L 184.0 179.0 L 185.0 180.0 L 187.0 182.0 L 189.0 185.0 L 190.0 187.0 " stroke="black" fill="none" stroke-width="5.0" stroke-linecap="round" stroke-linejoin="round" />
</svg>