<svg xmlns="http://www.w3.org/2000/svg" width="300" height="300" viewBox="0 0 300 300">
<path d="M 129.0 109.0 L 129.0 109.0 L 129.0 109.0 L 129.0 109.0 L 131.0 109.0 L 140.0 109.0 L 153.0 108.0 L 163.0 107.0 L 165.0 107.0 " stroke="black" fill="none" stroke-width="5.0" stroke-linecap="round" stroke-linejoin="round" />
<path d="M 127.0 113.0 L 127.0 113.0 L 127.0 113.0 L 127.0 115.0 L 126.0 121.0 L 124.0 133.0 L 122.0 141.0 L 122.0 144.0 L 122.0 144.0 " stroke="black" fill="none" stroke-width="5.0" stroke-linecap="round" stroke-linejoin="round" />
<path d="M 128.0 124.0 L 128.0 125.0 L 130.0 125.0 L 131.0 125.0 L 133.0 125.0 L 137.0 125.0 L 140.0 125.0 L 142.0 128.0 L 145.0 132.0 L 146.0 136.0 L 146.0 140.0 L 146.0 141.0 L 145.0 142.0 L 141.0 142.0 L 137.0 139.0 " stroke="black" fill="none" stroke-width="5.0" stroke-linecap="round" stroke-linejoin="round" />
<path d="M 142.0 91.0 L 142.0 91.0 L 142.0 92.0 L 145.0 101.0 L 153.0 121.0 L 163.0 143.0 L 171.0 153.0 L 174.0 155.0 L 175.0 155.0 " stroke="black" fill="none" stroke-width="5.0" stroke-linecap="round" stroke-linejoin="round" />
<path d="M 173.0 135.0 L 172.0 135.0 L 171.0 135.0 L 168.0 135.0 L 165.0 140.0 L 160.0 147.0 L 157.0 150.0 " stroke="black" fill="none" stroke-width="5.0" stroke-linecap="round" stroke-linejoin="round" />
<path d="M 166.0 94.0 L 166.0 94.0 L 166.0 94.0 L 168.0 96.0 L 171.0 101.0 " stroke="black" fill="none" stroke-width="5.0" stroke-linecap="round" stroke-linejoin="round" />
<path d="M 130.0 166.0 L 130.0 166.0 L 129.0 166.0 L 129.0 167.0 L 129.0 170.0 L 129.0 176.0 L 131.0 181.0 " stroke="black" fill="none" stroke-width="5.0" stroke-linecap="round" stroke-linejoin="round" />
<path d="M 131.0 163.0 L 132.0 163.0 L 133.0 163.0 L 135.0 163.0 L 142.0 163.0 L 152.0 161.0 L 163.0 160.0 L 172.0 161.0 L 176.0 163.0 L 177.0 167.0 L 177.0 171.0 L 176.0 175.0 L 175.0 177.0 L 174.0 178.0 " stroke="black" fill="none" stroke-width="5.0" stroke-linecap="round" stroke-linejoin="round" />
<path d="M 143.0 163.0 L 143.0 163.0 L 142.0 164.0 L 142.0 165.0 L 143.0 167.0 " stroke="black" fill="none" stroke-width="5.0" stroke-linecap="round" stroke-linejoin="round" />
<path d="M 159.0 162.0 L 159.0 162.0 L 159.0 164.0 L 159.0 166.0 L 159.0 170.0 L 157.0 174.0 L 157.0 176.0 " stroke="black" fill="none" stroke-width="5.0" stroke-linecap="round" stroke-linejoin="round" />
<path d="M 117.0 184.0 L 118.0 184.0 L 120.0 185.0 L 129.0 185.0 L 144.0 185.0 L 161.0 183.0 L 177.0 183.0 L 186.0 183.0 L 191.0 183.0 L 191.0 183.0 L 191.0 183.0 L 190.0 183.0 " stroke="black" fill="none" stroke-width="5.0" stroke-linecap="round" stroke-linejoin="round" />
</svg>