<svg xmlns="http://www.w3.org/2000/svg" width="300" height="300" viewBox="0 0 300 300">
<path d="M 142.0 94.0 L 142.0 94.0 L 142.0 94.0 L 142.0 94.0 L 142.0 96.0 L 145.0 100.0 L 148.0 105.0 L 150.0 108.0 " stroke="black" fill="none" stroke-width="5.0" stroke-linecap="round" stroke-linejoin="round" />
<path d="M 124.0 113.0 L 125.0 113.0 L 126.0 114.0 L 128.0 114.0 L 134.0 114.0 L 145.0 114.0 L 157.0 114.0 L 165.0 114.0 L 169.0 115.0 L 169.0 117.0 " stroke="black" fill="none" stroke-width="5.0" stroke-linecap="round" stroke-linejoin="round" />
<path d="M 138.0 117.0 L 138.0 117.0 L 138.0 117.0 L 138.0 117.0 L 138.0 120.0 L 139.0 125.0 L 141.0 129.0 L 143.0 130.0 " stroke="black" fill="none" stroke-width="5.0" stroke-linecap="round" stroke-linejoin="round" />
<path d="M 153.0 118.0 L 153.0 118.0 L 153.0 119.0 L 153.0 120.0 L 153.0 123.0 L 153.0 126.0 " stroke="black" fill="none" stroke-width="5.0" stroke-linecap="round" stroke-linejoin="round" />
<path d="M 118.0 131.0 L 118.0 131.0 L 119.0 131.0 L 123.0 132.0 L 134.0 132.0 L 150.0 133.0 L 164.0 133.0 L 172.0 134.0 L 176.0 135.0 L 176.0 135.0 L 176.0 135.0 " stroke="black" fill="none" stroke-width="5.0" stroke-linecap="round" stroke-linejoin="round" />
<path d="M 135.0 144.0 L 135.0 143.0 L 135.0 143.0 L 135.0 142.0 L 135.0 142.0 L 136.0 146.0 L 137.0 151.0 L 138.0 155.0 L 138.0 158.0 L 139.0 158.0 " stroke="black" fill="none" stroke-width="5.0" stroke-linecap="round" stroke-linejoin="round" />
<path d="M 137.0 143.0 L 137.0 143.0 L 137.0 143.0 L 138.0 143.0 L 140.0 143.0 L 145.0 143.0 L 151.0 143.0 L 157.0 144.0 L 161.0 145.0 L 165.0 149.0 L 166.0 154.0 L 168.0 162.0 L 168.0 162.0 " stroke="black" fill="none" stroke-width="5.0" stroke-linecap="round" stroke-linejoin="round" />
<path d="M 139.0 154.0 L 139.0 154.0 L 139.0 154.0 L 139.0 155.0 L 144.0 155.0 L 151.0 155.0 L 157.0 155.0 L 160.0 155.0 L 160.0 156.0 " stroke="black" fill="none" stroke-width="5.0" stroke-linecap="round" stroke-linejoin="round" />
<path d="M 139.0 161.0 L 140.0 162.0 L 141.0 162.0 L 145.0 163.0 L 151.0 164.0 L 158.0 165.0 L 163.0 165.0 " stroke="black" fill="none" stroke-width="5.0" stroke-linecap="round" stroke-linejoin="round" />
<path d="M 122.0 170.0 L 122.0 170.0 L 122.0 170.0 L 121.0 172.0 L 117.0 177.0 L 112.0 186.0 L 111.0 188.0 " stroke="black" fill="none" stroke-width="5.0" stroke-linecap="round" stroke-linejoin="round" />
<path d="M 134.0 180.0 L 134.0 180.0 L 134.0 180.0 L 133.0 180.0 L 133.0 180.0 L 132.0 184.0 L 131.0 190.0 L 131.0 196.0 L 134.0 202.0 L 143.0 204.0 L 154.0 204.0 L 165.0 204.0 L 174.0 204.0 L 182.0 204.0 L 186.0 204.0 L 187.0 202.0 L 187.0 200.0 L 184.0 196.0 L 182.0 194.0 " stroke="black" fill="none" stroke-width="5.0" stroke-linecap="round" stroke-linejoin="round" />
<path d="M 152.0 178.0 L 152.0 178.0 L 152.0 178.0 L 153.0 179.0 L 154.0 182.0 L 156.0 186.0 L 156.0 187.0 " stroke="black" fill="none" stroke-width="5.0" stroke-linecap="round" stroke-linejoin="round" />
<path d="M 185.0 173.0 L 185.0 173.0 L 187.0 174.0 L 189.0 177.0 L 193.0 183.0 L 195.0 189.0 " stroke="black" fill="none" stroke-width="5.0" stroke-linecap="round" stroke-linejoin="round" />
</svg>