<svg xmlns="http://www.w3.org/2000/svg" width="300" height="300" viewBox="0 0 300 300">
<path d="M 123.0 108.0 L 123.0 108.0 L 123.0 108.0 L 123.0 108.0 L 127.0 108.0 L 136.0 108.0 L 147.0 108.0 L 156.0 107.0 L 163.0 106.0 L 169.0 106.0 L 173.0 106.0 L 176.0 106.0 L 178.0 106.0 L 179.0 106.0 L 180.0 106.0 L 181.0 107.0 L 181.0 109.0 L 181.0 112.0 L 182.0 117.0 L 182.0 122.0 L 183.0 125.0 L 183.0 126.0 " stroke="black" fill="none" stroke-width="5.0" stroke-linecap="round" stroke-linejoin="round" />
<path d="M 120.0 129.0 L 120.0 129.0 L 120.0 129.0 L 120.0 129.0 L 121.0 129.0 L 124.0 128.0 L 132.0 127.0 L 144.0 127.0 L 157.0 127.0 L 166.0 127.0 L 171.0 127.0 L 171.0 127.0 " stroke="black" fill="none" stroke-width="5.0" stroke-linecap="round" stroke-linejoin="round" />
<path d="M 120.0 115.0 L 120.0 114.0 L 120.0 113.0 L 120.0 112.0 L 120.0 111.0 L 120.0 110.0 L 120.0 113.0 L 119.0 122.0 L 117.0 137.0 L 112.0 158.0 L 106.0 179.0 L 101.0 193.0 L 99.0 199.0 L 98.0 201.0 " stroke="black" fill="none" stroke-width="5.0" stroke-linecap="round" stroke-linejoin="round" />
<path d="M 134.0 146.0 L 134.0 146.0 L 134.0 146.0 L 134.0 146.0 L 134.0 147.0 L 132.0 150.0 L 127.0 155.0 L 121.0 159.0 " stroke="black" fill="none" stroke-width="5.0" stroke-linecap="round" stroke-linejoin="round" />
<path d="M 138.0 155.0 L 138.0 156.0 L 137.0 157.0 L 137.0 158.0 L 136.0 159.0 L 135.0 160.0 L 133.0 163.0 L 128.0 168.0 L 121.0 175.0 L 114.0 181.0 L 111.0 182.0 " stroke="black" fill="none" stroke-width="5.0" stroke-linecap="round" stroke-linejoin="round" />
<path d="M 126.0 172.0 L 126.0 172.0 L 126.0 172.0 L 126.0 173.0 L 126.0 176.0 L 126.0 183.0 L 126.0 192.0 L 125.0 201.0 L 125.0 204.0 " stroke="black" fill="none" stroke-width="5.0" stroke-linecap="round" stroke-linejoin="round" />
<path d="M 151.0 142.0 L 151.0 142.0 L 151.0 143.0 L 150.0 144.0 L 150.0 146.0 L 148.0 149.0 L 146.0 153.0 L 145.0 154.0 " stroke="black" fill="none" stroke-width="5.0" stroke-linecap="round" stroke-linejoin="round" />
<path d="M 147.0 150.0 L 147.0 150.0 L 148.0 150.0 L 150.0 150.0 L 153.0 150.0 L 158.0 149.0 L 162.0 149.0 L 165.0 149.0 L 165.0 149.0 " stroke="black" fill="none" stroke-width="5.0" stroke-linecap="round" stroke-linejoin="round" />
<path d="M 147.0 160.0 L 147.0 160.0 L 147.0 160.0 L 147.0 160.0 L 147.0 160.0 L 147.0 160.0 L 147.0 162.0 L 147.0 167.0 L 147.0 172.0 L 147.0 175.0 " stroke="black" fill="none" stroke-width="5.0" stroke-linecap="round" stroke-linejoin="round" />
<path d="M 149.0 160.0 L 150.0 160.0 L 151.0 160.0 L 153.0 160.0 L 155.0 159.0 L 157.0 159.0 L 160.0 159.0 L 163.0 160.0 L 165.0 163.0 L 167.0 168.0 L 168.0 173.0 L 169.0 176.0 L 169.0 177.0 " stroke="black" fill="none" stroke-width="5.0" stroke-linecap="round" stroke-linejoin="round" />
<path d="M 151.0 168.0 L 151.0 168.0 L 151.0 168.0 L 152.0 168.0 L 155.0 168.0 L 159.0 168.0 L 163.0 168.0 L 165.0 168.0 " stroke="black" fill="none" stroke-width="5.0" stroke-linecap="round" stroke-linejoin="round" />
<path d="M 149.0 176.0 L 150.0 177.0 L 151.0 177.0 L 154.0 177.0 L 159.0 177.0 L 164.0 177.0 L 166.0 178.0 " stroke="black" fill="none" stroke-width="5.0" stroke-linecap="round" stroke-linejoin="round" />
<path d="M 152.0 180.0 L 152.0 180.0 L 152.0 180.0 L 152.0 180.0 L 152.0 181.0 L 150.0 184.0 L 146.0 190.0 L 142.0 195.0 " stroke="black" fill="none" stroke-width="5.0" stroke-linecap="round" stroke-linejoin="round" />
<path d="M 152.0 188.0 L 153.0 188.0 L 154.0 188.0 L 158.0 188.0 L 162.0 188.0 L 167.0 188.0 L 170.0 188.0 L 170.0 189.0 L 169.0 192.0 L 165.0 197.0 L 160.0 202.0 L 154.0 207.0 L 153.0 208.0 " stroke="black" fill="none" stroke-width="5.0" stroke-linecap="round" stroke-linejoin="round" />
<path d="M 148.0 191.0 L 149.0 192.0 L 152.0 194.0 L 157.0 197.0 L 165.0 200.0 L 174.0 205.0 L 180.0 210.0 L 181.0 213.0 L 182.0 215.0 " stroke="black" fill="none" stroke-width="5.0" stroke-linecap="round" stroke-linejoin="round" />
</svg>