<svg xmlns="http://www.w3.org/2000/svg" width="300" height="300" viewBox="0 0 300 300">
<path d="M 118.0 115.0 L 118.0 115.0 L 118.0 115.0 L 118.0 115.0 L 118.0 115.0 L 118.0 116.0 L 116.0 123.0 L 112.0 134.0 L 109.0 141.0 " stroke="black" fill="none" stroke-width="5.0" stroke-linecap="round" stroke-linejoin="round" />
<path d="M 134.0 113.0 L 134.0 113.0 L 135.0 115.0 L 136.0 117.0 L 139.0 121.0 L 143.0 126.0 L 145.0 130.0 " stroke="black" fill="none" stroke-width="5.0" stroke-linecap="round" stroke-linejoin="round" />
<path d="M 127.0 137.0 L 127.0 137.0 L 127.0 137.0 L 127.0 137.0 L 126.0 137.0 L 124.0 141.0 L 120.0 149.0 L 114.0 159.0 L 108.0 167.0 " stroke="black" fill="none" stroke-width="5.0" stroke-linecap="round" stroke-linejoin="round" />
<path d="M 128.0 137.0 L 129.0 138.0 L 131.0 140.0 L 135.0 144.0 L 140.0 149.0 L 145.0 154.0 L 148.0 159.0 " stroke="black" fill="none" stroke-width="5.0" stroke-linecap="round" stroke-linejoin="round" />
<path d="M 118.0 162.0 L 118.0 162.0 L 118.0 163.0 L 118.0 165.0 L 118.0 172.0 L 118.0 180.0 L 119.0 185.0 L 119.0 186.0 " stroke="black" fill="none" stroke-width="5.0" stroke-linecap="round" stroke-linejoin="round" />
<path d="M 119.0 161.0 L 119.0 161.0 L 120.0 161.0 L 122.0 161.0 L 124.0 161.0 L 128.0 161.0 L 132.0 161.0 L 135.0 161.0 L 138.0 161.0 L 141.0 162.0 L 142.0 165.0 L 143.0 171.0 L 143.0 179.0 L 143.0 185.0 L 143.0 187.0 " stroke="black" fill="none" stroke-width="5.0" stroke-linecap="round" stroke-linejoin="round" />
<path d="M 120.0 189.0 L 120.0 189.0 L 120.0 190.0 L 122.0 191.0 L 127.0 191.0 L 135.0 189.0 L 137.0 189.0 " stroke="black" fill="none" stroke-width="5.0" stroke-linecap="round" stroke-linejoin="round" />
<path d="M 158.0 107.0 L 158.0 107.0 L 158.0 108.0 L 158.0 112.0 L 156.0 118.0 L 154.0 128.0 L 152.0 137.0 L 152.0 138.0 " stroke="black" fill="none" stroke-width="5.0" stroke-linecap="round" stroke-linejoin="round" />
<path d="M 157.0 119.0 L 157.0 119.0 L 158.0 118.0 L 160.0 118.0 L 164.0 116.0 L 170.0 116.0 L 175.0 115.0 L 179.0 115.0 L 182.0 118.0 L 183.0 123.0 L 183.0 129.0 L 182.0 135.0 L 182.0 139.0 " stroke="black" fill="none" stroke-width="5.0" stroke-linecap="round" stroke-linejoin="round" />
<path d="M 167.0 126.0 L 167.0 127.0 L 167.0 128.0 L 167.0 132.0 L 165.0 143.0 L 162.0 159.0 L 156.0 177.0 L 153.0 191.0 L 152.0 194.0 " stroke="black" fill="none" stroke-width="5.0" stroke-linecap="round" stroke-linejoin="round" />
<path d="M 158.0 162.0 L 159.0 162.0 L 161.0 162.0 L 164.0 164.0 L 170.0 171.0 L 180.0 182.0 L 187.0 192.0 L 190.0 197.0 L 190.0 199.0 " stroke="black" fill="none" stroke-width="5.0" stroke-linecap="round" stroke-linejoin="round" />
</svg>