<svg xmlns="http://www.w3.org/2000/svg" width="300" height="300" viewBox="0 0 300 300">
<path d="M 122.0 120.0 L 122.0 121.0 L 122.0 121.0 L 122.0 123.0 L 121.0 125.0 L 117.0 131.0 L 112.0 140.0 L 107.0 148.0 " stroke="black" fill="none" stroke-width="5.0" stroke-linecap="round" stroke-linejoin="round" />
<path d="M 137.0 124.0 L 137.0 124.0 L 137.0 125.0 L 138.0 126.0 L 140.0 128.0 L 143.0 132.0 L 147.0 136.0 L 149.0 138.0 " stroke="black" fill="none" stroke-width="5.0" stroke-linecap="round" stroke-linejoin="round" />
<path d="M 129.0 141.0 L 129.0 141.0 L 129.0 141.0 L 129.0 142.0 L 127.0 145.0 L 122.0 152.0 L 114.0 162.0 L 107.0 170.0 L 104.0 174.0 L 104.0 174.0 " stroke="black" fill="none" stroke-width="5.0" stroke-linecap="round" stroke-linejoin="round" />
<path d="M 129.0 148.0 L 129.0 148.0 L 130.0 148.0 L 131.0 148.0 L 134.0 149.0 L 138.0 153.0 L 143.0 157.0 L 146.0 160.0 L 147.0 162.0 " stroke="black" fill="none" stroke-width="5.0" stroke-linecap="round" stroke-linejoin="round" />
<path d="M 117.0 170.0 L 117.0 170.0 L 117.0 170.0 L 117.0 171.0 L 117.0 171.0 L 117.0 174.0 L 117.0 179.0 L 118.0 184.0 L 118.0 188.0 L 118.0 188.0 " stroke="black" fill="none" stroke-width="5.0" stroke-linecap="round" stroke-linejoin="round" />
<path d="M 119.0 167.0 L 121.0 167.0 L 122.0 167.0 L 124.0 167.0 L 128.0 167.0 L 132.0 167.0 L 136.0 166.0 L 139.0 166.0 L 142.0 168.0 L 144.0 173.0 L 145.0 180.0 L 145.0 185.0 L 145.0 187.0 L 145.0 188.0 " stroke="black" fill="none" stroke-width="5.0" stroke-linecap="round" stroke-linejoin="round" />
<path d="M 117.0 190.0 L 117.0 190.0 L 118.0 190.0 L 121.0 190.0 L 128.0 191.0 L 137.0 191.0 L 141.0 191.0 " stroke="black" fill="none" stroke-width="5.0" stroke-linecap="round" stroke-linejoin="round" />
<path d="M 160.0 118.0 L 160.0 118.0 L 160.0 118.0 L 160.0 120.0 L 160.0 124.0 L 158.0 132.0 L 155.0 141.0 L 154.0 146.0 L 153.0 146.0 " stroke="black" fill="none" stroke-width="5.0" stroke-linecap="round" stroke-linejoin="round" />
<path d="M 160.0 132.0 L 160.0 132.0 L 161.0 132.0 L 164.0 132.0 L 170.0 131.0 L 177.0 130.0 L 183.0 130.0 L 186.0 130.0 L 188.0 132.0 L 188.0 136.0 L 188.0 141.0 L 187.0 145.0 L 186.0 148.0 L 185.0 148.0 " stroke="black" fill="none" stroke-width="5.0" stroke-linecap="round" stroke-linejoin="round" />
<path d="M 168.0 141.0 L 168.0 141.0 L 168.0 141.0 L 168.0 141.0 L 168.0 143.0 L 167.0 151.0 L 163.0 164.0 L 158.0 180.0 L 154.0 191.0 L 153.0 194.0 " stroke="black" fill="none" stroke-width="5.0" stroke-linecap="round" stroke-linejoin="round" />
<path d="M 166.0 168.0 L 167.0 169.0 L 168.0 170.0 L 171.0 173.0 L 178.0 178.0 L 187.0 185.0 L 194.0 191.0 L 198.0 194.0 L 199.0 195.0 " stroke="black" fill="none" stroke-width="5.0" stroke-linecap="round" stroke-linejoin="round" />
</svg>