<svg xmlns="http://www.w3.org/2000/svg" width="300" height="300" viewBox="0 0 300 300">
<path d="M 110.0 126.0 L 110.0 126.0 L 111.0 127.0 L 113.0 127.0 L 117.0 127.0 L 123.0 127.0 L 128.0 127.0 L 132.0 127.0 L 132.0 126.0 " stroke="black" fill="none" stroke-width="5.0" stroke-linecap="round" stroke-linejoin="round" />
<path d="M 118.0 107.0 L 118.0 107.0 L 118.0 107.0 L 118.0 107.0 L 118.0 108.0 L 118.0 117.0 L 121.0 138.0 L 122.0 160.0 L 122.0 174.0 L 120.0 182.0 L 119.0 186.0 L 117.0 188.0 L 114.0 188.0 L 110.0 186.0 L 104.0 182.0 L 100.0 177.0 " stroke="black" fill="none" stroke-width="5.0" stroke-linecap="round" stroke-linejoin="round" />
<path d="M 100.0 165.0 L 101.0 165.0 L 103.0 165.0 L 109.0 164.0 L 118.0 162.0 L 128.0 160.0 L 130.0 159.0 " stroke="black" fill="none" stroke-width="5.0" stroke-linecap="round" stroke-linejoin="round" />
<path d="M 152.0 120.0 L 152.0 120.0 L 152.0 121.0 L 152.0 122.0 L 152.0 126.0 L 153.0 140.0 L 153.0 161.0 L 151.0 180.0 L 150.0 192.0 L 149.0 194.0 L 149.0 192.0 " stroke="black" fill="none" stroke-width="5.0" stroke-linecap="round" stroke-linejoin="round" />
<path d="M 140.0 138.0 L 139.0 138.0 L 139.0 138.0 L 139.0 138.0 L 143.0 138.0 L 148.0 138.0 L 152.0 138.0 L 153.0 139.0 " stroke="black" fill="none" stroke-width="5.0" stroke-linecap="round" stroke-linejoin="round" />
<path d="M 141.0 155.0 L 143.0 156.0 L 145.0 157.0 L 148.0 157.0 L 151.0 157.0 L 152.0 157.0 " stroke="black" fill="none" stroke-width="5.0" stroke-linecap="round" stroke-linejoin="round" />
<path d="M 130.0 176.0 L 132.0 177.0 L 136.0 178.0 L 143.0 178.0 L 153.0 177.0 L 154.0 176.0 " stroke="black" fill="none" stroke-width="5.0" stroke-linecap="round" stroke-linejoin="round" />
<path d="M 167.0 119.0 L 167.0 119.0 L 167.0 120.0 L 167.0 121.0 L 167.0 122.0 L 167.0 127.0 L 169.0 141.0 L 171.0 164.0 L 172.0 185.0 L 173.0 196.0 L 174.0 199.0 L 174.0 198.0 " stroke="black" fill="none" stroke-width="5.0" stroke-linecap="round" stroke-linejoin="round" />
<path d="M 173.0 137.0 L 173.0 137.0 L 174.0 137.0 L 174.0 136.0 L 176.0 136.0 L 180.0 136.0 L 185.0 136.0 L 190.0 136.0 L 192.0 137.0 " stroke="black" fill="none" stroke-width="5.0" stroke-linecap="round" stroke-linejoin="round" />
<path d="M 176.0 155.0 L 176.0 155.0 L 178.0 156.0 L 181.0 156.0 L 185.0 156.0 L 189.0 156.0 L 193.0 156.0 L 194.0 156.0 " stroke="black" fill="none" stroke-width="5.0" stroke-linecap="round" stroke-linejoin="round" />
<path d="M 176.0 178.0 L 177.0 178.0 L 179.0 179.0 L 184.0 179.0 L 190.0 179.0 L 198.0 179.0 L 201.0 179.0 " stroke="black" fill="none" stroke-width="5.0" stroke-linecap="round" stroke-linejoin="round" />
</svg>