<svg xmlns="http://www.w3.org/2000/svg" width="300" height="300" viewBox="0 0 300 300">
<path d="M 134.0 115.0 L 134.0 115.0 L 134.0 115.0 L 134.0 115.0 L 134.0 115.0 L 134.0 116.0 L 137.0 116.0 L 145.0 116.0 L 153.0 116.0 L 159.0 115.0 L 163.0 115.0 L 165.0 115.0 L 166.0 115.0 L 167.0 117.0 L 169.0 122.0 L 170.0 128.0 L 171.0 135.0 L 171.0 143.0 L 172.0 148.0 L 172.0 151.0 " stroke="black" fill="none" stroke-width="5.0" stroke-linecap="round" stroke-linejoin="round" />
<path d="M 117.0 134.0 L 122.0 134.0 L 127.0 134.0 L 136.0 133.0 L 150.0 132.0 L 165.0 130.0 L 176.0 130.0 L 182.0 130.0 L 182.0 130.0 " stroke="black" fill="none" stroke-width="5.0" stroke-linecap="round" stroke-linejoin="round" />
<path d="M 124.0 157.0 L 125.0 158.0 L 127.0 159.0 L 133.0 159.0 L 145.0 157.0 L 158.0 155.0 L 168.0 154.0 L 171.0 154.0 " stroke="black" fill="none" stroke-width="5.0" stroke-linecap="round" stroke-linejoin="round" />
<path d="M 151.0 121.0 L 151.0 123.0 L 147.0 138.0 L 141.0 153.0 L 133.0 168.0 L 123.0 181.0 L 115.0 191.0 L 114.0 193.0 " stroke="black" fill="none" stroke-width="5.0" stroke-linecap="round" stroke-linejoin="round" />
<path d="M 133.0 171.0 L 133.0 171.0 L 133.0 173.0 L 133.0 176.0 L 134.0 180.0 L 136.0 187.0 L 138.0 194.0 L 139.0 200.0 " stroke="black" fill="none" stroke-width="5.0" stroke-linecap="round" stroke-linejoin="round" />
<path d="M 137.0 175.0 L 137.0 175.0 L 138.0 175.0 L 140.0 174.0 L 146.0 173.0 L 155.0 172.0 L 164.0 172.0 L 171.0 173.0 L 176.0 176.0 L 179.0 181.0 L 180.0 188.0 L 180.0 194.0 L 180.0 199.0 L 180.0 201.0 " stroke="black" fill="none" stroke-width="5.0" stroke-linecap="round" stroke-linejoin="round" />
<path d="M 141.0 203.0 L 141.0 203.0 L 141.0 204.0 L 145.0 205.0 L 154.0 205.0 L 169.0 205.0 L 182.0 203.0 " stroke="black" fill="none" stroke-width="5.0" stroke-linecap="round" stroke-linejoin="round" />
</svg>