<svg xmlns="http://www.w3.org/2000/svg" width="300" height="300" viewBox="0 0 300 300">
<path d="M 127.0 117.0 L 127.0 117.0 L 127.0 118.0 L 128.0 118.0 L 130.0 118.0 L 137.0 118.0 L 147.0 116.0 L 156.0 114.0 L 161.0 113.0 L 162.0 113.0 L 163.0 114.0 L 163.0 117.0 L 163.0 122.0 L 165.0 129.0 L 166.0 137.0 L 167.0 142.0 L 167.0 143.0 L 167.0 143.0 " stroke="black" fill="none" stroke-width="5.0" stroke-linecap="round" stroke-linejoin="round" />
<path d="M 111.0 134.0 L 112.0 134.0 L 113.0 134.0 L 116.0 134.0 L 125.0 133.0 L 142.0 132.0 L 159.0 130.0 L 172.0 129.0 L 178.0 128.0 L 178.0 128.0 L 175.0 131.0 " stroke="black" fill="none" stroke-width="5.0" stroke-linecap="round" stroke-linejoin="round" />
<path d="M 124.0 149.0 L 124.0 149.0 L 124.0 149.0 L 124.0 149.0 L 130.0 148.0 L 143.0 147.0 L 156.0 145.0 L 165.0 144.0 L 167.0 144.0 " stroke="black" fill="none" stroke-width="5.0" stroke-linecap="round" stroke-linejoin="round" />
<path d="M 148.0 122.0 L 148.0 122.0 L 148.0 122.0 L 147.0 122.0 L 146.0 127.0 L 142.0 140.0 L 134.0 158.0 L 124.0 172.0 L 115.0 181.0 L 110.0 183.0 " stroke="black" fill="none" stroke-width="5.0" stroke-linecap="round" stroke-linejoin="round" />
<path d="M 137.0 163.0 L 136.0 163.0 L 135.0 165.0 L 134.0 166.0 L 134.0 169.0 L 135.0 176.0 L 138.0 184.0 L 140.0 189.0 L 140.0 190.0 " stroke="black" fill="none" stroke-width="5.0" stroke-linecap="round" stroke-linejoin="round" />
<path d="M 135.0 163.0 L 135.0 163.0 L 135.0 163.0 L 139.0 163.0 L 146.0 162.0 L 156.0 161.0 L 164.0 161.0 L 170.0 161.0 L 172.0 163.0 L 174.0 165.0 L 175.0 169.0 L 175.0 175.0 L 175.0 182.0 L 175.0 187.0 L 174.0 189.0 " stroke="black" fill="none" stroke-width="5.0" stroke-linecap="round" stroke-linejoin="round" />
<path d="M 142.0 191.0 L 141.0 191.0 L 141.0 191.0 L 141.0 192.0 L 146.0 192.0 L 156.0 192.0 L 167.0 192.0 L 175.0 192.0 L 177.0 192.0 " stroke="black" fill="none" stroke-width="5.0" stroke-linecap="round" stroke-linejoin="round" />
</svg>