<svg xmlns="http://www.w3.org/2000/svg" width="300" height="300" viewBox="0 0 300 300">
<path d="M 133.0 116.0 L 133.0 116.0 L 133.0 116.0 L 133.0 116.0 L 134.0 116.0 L 136.0 116.0 L 143.0 116.0 L 153.0 116.0 L 161.0 116.0 L 165.0 116.0 L 166.0 116.0 L 166.0 118.0 L 167.0 126.0 L 169.0 134.0 L 170.0 142.0 L 171.0 146.0 L 171.0 146.0 " stroke="black" fill="none" stroke-width="5.0" stroke-linecap="round" stroke-linejoin="round" />
<path d="M 115.0 133.0 L 116.0 133.0 L 117.0 133.0 L 121.0 133.0 L 131.0 133.0 L 148.0 132.0 L 164.0 131.0 L 175.0 131.0 L 180.0 131.0 L 181.0 131.0 L 179.0 131.0 L 178.0 131.0 " stroke="black" fill="none" stroke-width="5.0" stroke-linecap="round" stroke-linejoin="round" />
<path d="M 129.0 148.0 L 129.0 148.0 L 129.0 148.0 L 129.0 148.0 L 132.0 148.0 L 142.0 148.0 L 156.0 147.0 L 167.0 146.0 L 171.0 146.0 " stroke="black" fill="none" stroke-width="5.0" stroke-linecap="round" stroke-linejoin="round" />
<path d="M 150.0 121.0 L 150.0 121.0 L 150.0 122.0 L 149.0 126.0 L 144.0 138.0 L 136.0 155.0 L 127.0 170.0 L 118.0 180.0 L 115.0 183.0 " stroke="black" fill="none" stroke-width="5.0" stroke-linecap="round" stroke-linejoin="round" />
<path d="M 135.0 164.0 L 135.0 165.0 L 135.0 167.0 L 135.0 169.0 L 136.0 175.0 L 137.0 183.0 L 139.0 191.0 L 140.0 194.0 " stroke="black" fill="none" stroke-width="5.0" stroke-linecap="round" stroke-linejoin="round" />
<path d="M 138.0 162.0 L 138.0 162.0 L 138.0 162.0 L 139.0 162.0 L 142.0 162.0 L 149.0 162.0 L 158.0 161.0 L 167.0 161.0 L 173.0 162.0 L 176.0 167.0 L 177.0 175.0 L 177.0 183.0 L 177.0 189.0 L 177.0 194.0 L 177.0 195.0 " stroke="black" fill="none" stroke-width="5.0" stroke-linecap="round" stroke-linejoin="round" />
<path d="M 139.0 198.0 L 139.0 198.0 L 139.0 198.0 L 138.0 198.0 L 141.0 199.0 L 151.0 199.0 L 167.0 199.0 L 178.0 198.0 " stroke="black" fill="none" stroke-width="5.0" stroke-linecap="round" stroke-linejoin="round" />
</svg>