<svg xmlns="http://www.w3.org/2000/svg" width="300" height="300" viewBox="0 0 300 300">
<path d="M 128.0 111.0 L 128.0 111.0 L 128.0 111.0 L 128.0 111.0 L 128.0 111.0 L 131.0 111.0 L 138.0 111.0 L 147.0 111.0 L 155.0 111.0 L 159.0 110.0 L 162.0 111.0 L 163.0 114.0 L 164.0 121.0 L 165.0 129.0 L 166.0 137.0 L 167.0 141.0 L 167.0 143.0 " stroke="black" fill="none" stroke-width="5.0" stroke-linecap="round" stroke-linejoin="round" />
<path d="M 110.0 130.0 L 110.0 130.0 L 111.0 130.0 L 113.0 130.0 L 119.0 130.0 L 133.0 130.0 L 151.0 129.0 L 167.0 128.0 L 175.0 128.0 L 178.0 128.0 L 178.0 129.0 " stroke="black" fill="none" stroke-width="5.0" stroke-linecap="round" stroke-linejoin="round" />
<path d="M 120.0 147.0 L 120.0 147.0 L 121.0 147.0 L 124.0 147.0 L 133.0 147.0 L 147.0 147.0 L 160.0 146.0 L 166.0 145.0 " stroke="black" fill="none" stroke-width="5.0" stroke-linecap="round" stroke-linejoin="round" />
<path d="M 145.0 117.0 L 145.0 117.0 L 145.0 117.0 L 145.0 117.0 L 144.0 125.0 L 139.0 141.0 L 129.0 160.0 L 116.0 177.0 L 107.0 188.0 L 106.0 190.0 " stroke="black" fill="none" stroke-width="5.0" stroke-linecap="round" stroke-linejoin="round" />
<path d="M 129.0 164.0 L 129.0 164.0 L 129.0 165.0 L 129.0 167.0 L 129.0 174.0 L 129.0 185.0 L 130.0 194.0 L 131.0 198.0 " stroke="black" fill="none" stroke-width="5.0" stroke-linecap="round" stroke-linejoin="round" />
<path d="M 132.0 164.0 L 133.0 164.0 L 135.0 163.0 L 141.0 163.0 L 149.0 162.0 L 157.0 162.0 L 163.0 162.0 L 168.0 165.0 L 172.0 168.0 L 175.0 175.0 L 176.0 182.0 L 177.0 189.0 L 177.0 193.0 L 176.0 196.0 " stroke="black" fill="none" stroke-width="5.0" stroke-linecap="round" stroke-linejoin="round" />
<path d="M 133.0 202.0 L 134.0 202.0 L 136.0 203.0 L 144.0 203.0 L 156.0 203.0 L 167.0 202.0 L 174.0 201.0 " stroke="black" fill="none" stroke-width="5.0" stroke-linecap="round" stroke-linejoin="round" />
</svg>