<svg xmlns="http://www.w3.org/2000/svg" width="300" height="300" viewBox="0 0 300 300">
<path d="M 130.0 108.0 L 130.0 108.0 L 130.0 108.0 L 129.0 108.0 L 129.0 110.0 L 129.0 116.0 L 130.0 127.0 L 132.0 137.0 L 132.0 140.0 " stroke="black" fill="none" stroke-width="5.0" stroke-linecap="round" stroke-linejoin="round" />
<path d="M 128.0 108.0 L 131.0 107.0 L 135.0 106.0 L 142.0 105.0 L 150.0 105.0 L 157.0 105.0 L 164.0 105.0 L 169.0 105.0 L 172.0 106.0 L 175.0 109.0 L 177.0 115.0 L 177.0 124.0 L 178.0 134.0 L 179.0 142.0 L 180.0 143.0 " stroke="black" fill="none" stroke-width="5.0" stroke-linecap="round" stroke-linejoin="round" />
<path d="M 138.0 127.0 L 138.0 127.0 L 138.0 128.0 L 139.0 128.0 L 148.0 127.0 L 160.0 126.0 L 171.0 125.0 L 173.0 125.0 " stroke="black" fill="none" stroke-width="5.0" stroke-linecap="round" stroke-linejoin="round" />
<path d="M 148.0 111.0 L 148.0 111.0 L 148.0 110.0 L 148.0 111.0 L 151.0 131.0 L 153.0 141.0 " stroke="black" fill="none" stroke-width="5.0" stroke-linecap="round" stroke-linejoin="round" />
<path d="M 134.0 147.0 L 135.0 147.0 L 137.0 148.0 L 143.0 148.0 L 154.0 148.0 L 167.0 147.0 L 171.0 147.0 " stroke="black" fill="none" stroke-width="5.0" stroke-linecap="round" stroke-linejoin="round" />
<path d="M 129.0 167.0 L 129.0 167.0 L 129.0 167.0 L 129.0 167.0 L 131.0 167.0 L 139.0 167.0 L 150.0 167.0 L 161.0 166.0 L 170.0 166.0 L 175.0 165.0 L 178.0 165.0 L 180.0 165.0 L 182.0 167.0 L 184.0 172.0 L 185.0 180.0 L 187.0 189.0 L 188.0 197.0 L 189.0 202.0 L 189.0 204.0 L 187.0 204.0 L 182.0 203.0 L 172.0 201.0 " stroke="black" fill="none" stroke-width="5.0" stroke-linecap="round" stroke-linejoin="round" />
<path d="M 150.0 152.0 L 149.0 152.0 L 148.0 152.0 L 147.0 155.0 L 146.0 166.0 L 143.0 185.0 L 139.0 203.0 L 137.0 209.0 " stroke="black" fill="none" stroke-width="5.0" stroke-linecap="round" stroke-linejoin="round" />
</svg>