<svg xmlns="http://www.w3.org/2000/svg" width="300" height="300" viewBox="0 0 300 300">
<path d="M 121.0 113.0 L 121.0 113.0 L 122.0 114.0 L 122.0 116.0 L 122.0 118.0 L 122.0 121.0 L 122.0 126.0 L 121.0 130.0 L 121.0 134.0 L 121.0 136.0 L 125.0 136.0 L 132.0 136.0 L 142.0 135.0 L 150.0 135.0 L 158.0 135.0 L 164.0 136.0 L 167.0 136.0 L 168.0 136.0 L 167.0 137.0 L 166.0 137.0 " stroke="black" fill="none" stroke-width="5.0" stroke-linecap="round" stroke-linejoin="round" />
<path d="M 144.0 107.0 L 144.0 107.0 L 144.0 107.0 L 144.0 108.0 L 144.0 113.0 L 144.0 120.0 L 144.0 127.0 L 144.0 128.0 " stroke="black" fill="none" stroke-width="5.0" stroke-linecap="round" stroke-linejoin="round" />
<path d="M 167.0 116.0 L 167.0 116.0 L 167.0 116.0 L 167.0 118.0 L 169.0 124.0 L 169.0 133.0 L 169.0 137.0 " stroke="black" fill="none" stroke-width="5.0" stroke-linecap="round" stroke-linejoin="round" />
<path d="M 134.0 150.0 L 134.0 150.0 L 135.0 150.0 L 138.0 150.0 L 143.0 150.0 L 149.0 150.0 L 154.0 150.0 L 157.0 150.0 L 157.0 150.0 " stroke="black" fill="none" stroke-width="5.0" stroke-linecap="round" stroke-linejoin="round" />
<path d="M 127.0 161.0 L 127.0 161.0 L 128.0 162.0 L 128.0 163.0 L 128.0 165.0 L 129.0 167.0 L 130.0 170.0 L 131.0 172.0 L 131.0 172.0 " stroke="black" fill="none" stroke-width="5.0" stroke-linecap="round" stroke-linejoin="round" />
<path d="M 129.0 161.0 L 129.0 161.0 L 130.0 162.0 L 131.0 163.0 L 135.0 163.0 L 141.0 162.0 L 149.0 161.0 L 156.0 161.0 L 160.0 161.0 L 162.0 164.0 L 162.0 167.0 L 162.0 170.0 L 161.0 171.0 " stroke="black" fill="none" stroke-width="5.0" stroke-linecap="round" stroke-linejoin="round" />
<path d="M 131.0 172.0 L 132.0 173.0 L 134.0 174.0 L 138.0 175.0 L 145.0 175.0 L 151.0 175.0 L 156.0 174.0 L 157.0 174.0 " stroke="black" fill="none" stroke-width="5.0" stroke-linecap="round" stroke-linejoin="round" />
<path d="M 132.0 177.0 L 132.0 177.0 L 133.0 178.0 L 133.0 179.0 L 134.0 182.0 L 135.0 185.0 L 137.0 186.0 " stroke="black" fill="none" stroke-width="5.0" stroke-linecap="round" stroke-linejoin="round" />
<path d="M 158.0 173.0 L 158.0 175.0 L 157.0 176.0 L 156.0 180.0 L 154.0 185.0 L 153.0 188.0 " stroke="black" fill="none" stroke-width="5.0" stroke-linecap="round" stroke-linejoin="round" />
<path d="M 119.0 191.0 L 119.0 191.0 L 120.0 191.0 L 122.0 191.0 L 130.0 192.0 L 142.0 193.0 L 154.0 193.0 L 164.0 193.0 L 172.0 193.0 L 177.0 193.0 L 179.0 193.0 L 179.0 193.0 L 179.0 193.0 " stroke="black" fill="none" stroke-width="5.0" stroke-linecap="round" stroke-linejoin="round" />
</svg>