<svg xmlns="http://www.w3.org/2000/svg" width="300" height="300" viewBox="0 0 300 300">
<path d="M 114.0 113.0 L 114.0 113.0 L 114.0 113.0 L 114.0 114.0 L 115.0 114.0 L 116.0 114.0 L 119.0 114.0 L 124.0 114.0 L 129.0 114.0 L 133.0 114.0 L 136.0 114.0 L 137.0 114.0 L 138.0 114.0 L 138.0 117.0 L 138.0 122.0 L 138.0 126.0 L 138.0 128.0 " stroke="black" fill="none" stroke-width="5.0" stroke-linecap="round" stroke-linejoin="round" />
<path d="M 111.0 133.0 L 111.0 133.0 L 111.0 133.0 L 111.0 133.0 L 112.0 133.0 L 118.0 133.0 L 127.0 131.0 L 134.0 131.0 " stroke="black" fill="none" stroke-width="5.0" stroke-linecap="round" stroke-linejoin="round" />
<path d="M 111.0 119.0 L 111.0 119.0 L 111.0 119.0 L 111.0 120.0 L 110.0 124.0 L 109.0 138.0 L 106.0 160.0 L 102.0 177.0 L 100.0 185.0 L 100.0 185.0 " stroke="black" fill="none" stroke-width="5.0" stroke-linecap="round" stroke-linejoin="round" />
<path d="M 118.0 145.0 L 118.0 145.0 L 119.0 145.0 L 119.0 145.0 L 119.0 145.0 L 119.0 148.0 L 119.0 154.0 L 119.0 160.0 L 120.0 163.0 " stroke="black" fill="none" stroke-width="5.0" stroke-linecap="round" stroke-linejoin="round" />
<path d="M 129.0 144.0 L 129.0 144.0 L 129.0 144.0 L 129.0 144.0 L 129.0 146.0 L 130.0 152.0 L 131.0 159.0 L 131.0 161.0 " stroke="black" fill="none" stroke-width="5.0" stroke-linecap="round" stroke-linejoin="round" />
<path d="M 113.0 155.0 L 113.0 155.0 L 113.0 155.0 L 113.0 155.0 L 117.0 155.0 L 125.0 155.0 L 133.0 154.0 L 138.0 154.0 L 139.0 154.0 " stroke="black" fill="none" stroke-width="5.0" stroke-linecap="round" stroke-linejoin="round" />
<path d="M 109.0 168.0 L 109.0 168.0 L 109.0 169.0 L 111.0 169.0 L 116.0 169.0 L 127.0 168.0 L 136.0 166.0 L 140.0 165.0 " stroke="black" fill="none" stroke-width="5.0" stroke-linecap="round" stroke-linejoin="round" />
<path d="M 120.0 173.0 L 120.0 173.0 L 120.0 173.0 L 120.0 173.0 L 120.0 174.0 L 118.0 179.0 L 116.0 185.0 L 116.0 187.0 " stroke="black" fill="none" stroke-width="5.0" stroke-linecap="round" stroke-linejoin="round" />
<path d="M 131.0 176.0 L 132.0 177.0 L 133.0 179.0 L 136.0 182.0 L 138.0 184.0 " stroke="black" fill="none" stroke-width="5.0" stroke-linecap="round" stroke-linejoin="round" />
<path d="M 152.0 116.0 L 152.0 116.0 L 152.0 116.0 L 152.0 117.0 L 152.0 121.0 L 151.0 128.0 L 151.0 130.0 " stroke="black" fill="none" stroke-width="5.0" stroke-linecap="round" stroke-linejoin="round" />
<path d="M 153.0 118.0 L 153.0 118.0 L 154.0 118.0 L 155.0 116.0 L 158.0 115.0 L 161.0 114.0 L 163.0 114.0 L 165.0 116.0 L 166.0 120.0 L 167.0 124.0 L 168.0 128.0 L 171.0 131.0 L 174.0 132.0 L 175.0 133.0 " stroke="black" fill="none" stroke-width="5.0" stroke-linecap="round" stroke-linejoin="round" />
<path d="M 153.0 144.0 L 153.0 145.0 L 154.0 145.0 L 155.0 145.0 L 158.0 145.0 L 162.0 145.0 L 166.0 145.0 L 169.0 145.0 L 170.0 147.0 L 170.0 153.0 L 166.0 163.0 L 161.0 175.0 L 157.0 184.0 L 156.0 187.0 " stroke="black" fill="none" stroke-width="5.0" stroke-linecap="round" stroke-linejoin="round" />
<path d="M 151.0 155.0 L 151.0 155.0 L 151.0 155.0 L 151.0 155.0 L 154.0 158.0 L 164.0 168.0 L 177.0 183.0 L 185.0 194.0 L 187.0 200.0 L 187.0 202.0 L 187.0 202.0 " stroke="black" fill="none" stroke-width="5.0" stroke-linecap="round" stroke-linejoin="round" />
</svg>