<svg xmlns="http://www.w3.org/2000/svg" width="300" height="300" viewBox="0 0 300 300">
<path d="M 123.0 110.0 L 123.0 110.0 L 123.0 110.0 L 123.0 111.0 L 124.0 112.0 L 126.0 114.0 L 128.0 116.0 " stroke="black" fill="none" stroke-width="5.0" stroke-linecap="round" stroke-linejoin="round" />
<path d="M 108.0 121.0 L 108.0 121.0 L 109.0 121.0 L 109.0 121.0 L 112.0 121.0 L 120.0 120.0 L 131.0 120.0 L 140.0 120.0 " stroke="black" fill="none" stroke-width="5.0" stroke-linecap="round" stroke-linejoin="round" />
<path d="M 115.0 125.0 L 115.0 126.0 L 116.0 127.0 L 116.0 129.0 L 117.0 133.0 L 118.0 139.0 L 119.0 142.0 " stroke="black" fill="none" stroke-width="5.0" stroke-linecap="round" stroke-linejoin="round" />
<path d="M 131.0 124.0 L 132.0 125.0 L 132.0 126.0 L 132.0 129.0 L 132.0 134.0 L 132.0 141.0 L 131.0 144.0 " stroke="black" fill="none" stroke-width="5.0" stroke-linecap="round" stroke-linejoin="round" />
<path d="M 108.0 146.0 L 109.0 146.0 L 110.0 145.0 L 112.0 145.0 L 119.0 144.0 L 130.0 144.0 L 141.0 145.0 L 144.0 146.0 " stroke="black" fill="none" stroke-width="5.0" stroke-linecap="round" stroke-linejoin="round" />
<path d="M 111.0 158.0 L 112.0 158.0 L 113.0 158.0 L 117.0 158.0 L 123.0 158.0 L 132.0 158.0 L 140.0 158.0 L 144.0 158.0 " stroke="black" fill="none" stroke-width="5.0" stroke-linecap="round" stroke-linejoin="round" />
<path d="M 128.0 147.0 L 128.0 146.0 L 128.0 146.0 L 128.0 147.0 L 129.0 154.0 L 132.0 167.0 L 134.0 182.0 L 135.0 191.0 L 136.0 194.0 L 136.0 194.0 " stroke="black" fill="none" stroke-width="5.0" stroke-linecap="round" stroke-linejoin="round" />
<path d="M 130.0 165.0 L 129.0 166.0 L 127.0 168.0 L 124.0 170.0 L 122.0 173.0 L 118.0 178.0 L 113.0 183.0 L 109.0 186.0 " stroke="black" fill="none" stroke-width="5.0" stroke-linecap="round" stroke-linejoin="round" />
<path d="M 135.0 167.0 L 135.0 167.0 L 135.0 167.0 L 135.0 167.0 L 138.0 169.0 L 145.0 175.0 L 151.0 182.0 " stroke="black" fill="none" stroke-width="5.0" stroke-linecap="round" stroke-linejoin="round" />
<path d="M 165.0 118.0 L 165.0 118.0 L 166.0 119.0 L 166.0 119.0 L 167.0 120.0 L 167.0 120.0 L 166.0 122.0 L 163.0 125.0 L 158.0 128.0 L 155.0 131.0 L 152.0 132.0 L 151.0 132.0 L 151.0 133.0 L 151.0 135.0 L 151.0 140.0 L 152.0 148.0 L 152.0 160.0 L 153.0 173.0 L 153.0 185.0 L 153.0 192.0 L 152.0 193.0 " stroke="black" fill="none" stroke-width="5.0" stroke-linecap="round" stroke-linejoin="round" />
<path d="M 159.0 144.0 L 159.0 144.0 L 159.0 144.0 L 159.0 144.0 L 165.0 143.0 L 174.0 142.0 L 184.0 142.0 L 190.0 143.0 L 191.0 144.0 " stroke="black" fill="none" stroke-width="5.0" stroke-linecap="round" stroke-linejoin="round" />
<path d="M 176.0 147.0 L 176.0 147.0 L 175.0 147.0 L 175.0 148.0 L 176.0 153.0 L 178.0 163.0 L 181.0 179.0 L 183.0 194.0 L 185.0 203.0 L 185.0 204.0 " stroke="black" fill="none" stroke-width="5.0" stroke-linecap="round" stroke-linejoin="round" />
</svg>