<svg xmlns="http://www.w3.org/2000/svg" width="300" height="300" viewBox="0 0 300 300">
<path d="M 107.0 151.0 L 107.0 151.0 L 107.0 151.0 L 108.0 151.0 L 111.0 151.0 L 117.0 150.0 L 125.0 150.0 L 132.0 149.0 L 136.0 149.0 L 137.0 149.0 " stroke="black" fill="none" stroke-width="5.0" stroke-linecap="round" stroke-linejoin="round" />
<path d="M 118.0 117.0 L 118.0 118.0 L 118.0 120.0 L 118.0 125.0 L 118.0 138.0 L 119.0 158.0 L 120.0 178.0 L 121.0 192.0 L 121.0 198.0 L 122.0 200.0 L 123.0 200.0 " stroke="black" fill="none" stroke-width="5.0" stroke-linecap="round" stroke-linejoin="round" />
<path d="M 105.0 133.0 L 106.0 135.0 L 108.0 137.0 L 110.0 140.0 L 113.0 143.0 " stroke="black" fill="none" stroke-width="5.0" stroke-linecap="round" stroke-linejoin="round" />
<path d="M 131.0 132.0 L 130.0 135.0 L 127.0 138.0 L 125.0 143.0 L 121.0 150.0 " stroke="black" fill="none" stroke-width="5.0" stroke-linecap="round" stroke-linejoin="round" />
<path d="M 113.0 162.0 L 113.0 162.0 L 113.0 162.0 L 113.0 162.0 L 113.0 163.0 L 111.0 167.0 L 107.0 177.0 L 102.0 187.0 L 100.0 192.0 " stroke="black" fill="none" stroke-width="5.0" stroke-linecap="round" stroke-linejoin="round" />
<path d="M 125.0 166.0 L 126.0 166.0 L 127.0 167.0 L 131.0 172.0 L 136.0 181.0 L 139.0 187.0 " stroke="black" fill="none" stroke-width="5.0" stroke-linecap="round" stroke-linejoin="round" />
<path d="M 151.0 124.0 L 151.0 124.0 L 151.0 124.0 L 151.0 125.0 L 153.0 125.0 L 157.0 125.0 L 163.0 125.0 L 168.0 125.0 L 169.0 125.0 " stroke="black" fill="none" stroke-width="5.0" stroke-linecap="round" stroke-linejoin="round" />
<path d="M 149.0 141.0 L 149.0 141.0 L 151.0 141.0 L 153.0 141.0 L 159.0 141.0 L 165.0 141.0 L 169.0 141.0 L 170.0 141.0 " stroke="black" fill="none" stroke-width="5.0" stroke-linecap="round" stroke-linejoin="round" />
<path d="M 143.0 155.0 L 144.0 155.0 L 146.0 156.0 L 152.0 157.0 L 161.0 157.0 L 171.0 156.0 L 178.0 155.0 " stroke="black" fill="none" stroke-width="5.0" stroke-linecap="round" stroke-linejoin="round" />
<path d="M 157.0 118.0 L 157.0 118.0 L 157.0 119.0 L 157.0 125.0 L 159.0 139.0 L 161.0 154.0 L 162.0 159.0 " stroke="black" fill="none" stroke-width="5.0" stroke-linecap="round" stroke-linejoin="round" />
<path d="M 150.0 171.0 L 150.0 171.0 L 149.0 171.0 L 148.0 172.0 L 148.0 176.0 L 148.0 185.0 L 149.0 195.0 L 149.0 203.0 L 149.0 206.0 L 149.0 206.0 " stroke="black" fill="none" stroke-width="5.0" stroke-linecap="round" stroke-linejoin="round" />
<path d="M 150.0 171.0 L 150.0 171.0 L 150.0 171.0 L 151.0 171.0 L 154.0 170.0 L 160.0 169.0 L 166.0 168.0 L 170.0 168.0 L 173.0 171.0 L 175.0 176.0 L 178.0 183.0 L 180.0 192.0 L 183.0 200.0 L 184.0 206.0 L 184.0 208.0 L 183.0 209.0 L 179.0 209.0 L 174.0 208.0 " stroke="black" fill="none" stroke-width="5.0" stroke-linecap="round" stroke-linejoin="round" />
<path d="M 155.0 181.0 L 155.0 181.0 L 156.0 181.0 L 157.0 181.0 L 160.0 181.0 L 166.0 181.0 L 172.0 181.0 " stroke="black" fill="none" stroke-width="5.0" stroke-linecap="round" stroke-linejoin="round" />
<path d="M 154.0 193.0 L 155.0 193.0 L 157.0 194.0 L 163.0 195.0 L 172.0 194.0 L 177.0 193.0 " stroke="black" fill="none" stroke-width="5.0" stroke-linecap="round" stroke-linejoin="round" />
</svg>