<svg xmlns="http://www.w3.org/2000/svg" width="300" height="300" viewBox="0 0 300 300">
<path d="M 127.0 112.0 L 127.0 112.0 L 127.0 113.0 L 127.0 114.0 L 127.0 117.0 L 127.0 125.0 L 128.0 142.0 L 129.0 163.0 L 129.0 180.0 L 129.0 189.0 L 130.0 190.0 L 131.0 188.0 " stroke="black" fill="none" stroke-width="5.0" stroke-linecap="round" stroke-linejoin="round" />
<path d="M 125.0 148.0 L 125.0 148.0 L 125.0 148.0 L 125.0 148.0 L 124.0 149.0 L 120.0 155.0 L 115.0 162.0 L 110.0 169.0 L 109.0 170.0 " stroke="black" fill="none" stroke-width="5.0" stroke-linecap="round" stroke-linejoin="round" />
<path d="M 130.0 151.0 L 130.0 151.0 L 131.0 151.0 L 133.0 153.0 L 138.0 157.0 L 142.0 161.0 " stroke="black" fill="none" stroke-width="5.0" stroke-linecap="round" stroke-linejoin="round" />
<path d="M 153.0 117.0 L 153.0 117.0 L 153.0 117.0 L 156.0 117.0 L 162.0 117.0 L 170.0 117.0 L 177.0 116.0 L 179.0 116.0 " stroke="black" fill="none" stroke-width="5.0" stroke-linecap="round" stroke-linejoin="round" />
<path d="M 151.0 119.0 L 151.0 119.0 L 151.0 121.0 L 151.0 124.0 L 151.0 132.0 L 152.0 142.0 L 153.0 150.0 L 153.0 153.0 " stroke="black" fill="none" stroke-width="5.0" stroke-linecap="round" stroke-linejoin="round" />
<path d="M 155.0 130.0 L 155.0 130.0 L 156.0 130.0 L 158.0 130.0 L 163.0 130.0 L 170.0 130.0 L 175.0 130.0 L 178.0 130.0 L 178.0 131.0 " stroke="black" fill="none" stroke-width="5.0" stroke-linecap="round" stroke-linejoin="round" />
<path d="M 154.0 142.0 L 154.0 142.0 L 155.0 142.0 L 158.0 142.0 L 163.0 142.0 L 171.0 142.0 L 177.0 143.0 L 179.0 143.0 " stroke="black" fill="none" stroke-width="5.0" stroke-linecap="round" stroke-linejoin="round" />
<path d="M 144.0 155.0 L 148.0 155.0 L 153.0 156.0 L 161.0 156.0 L 171.0 155.0 L 178.0 154.0 L 180.0 154.0 " stroke="black" fill="none" stroke-width="5.0" stroke-linecap="round" stroke-linejoin="round" />
<path d="M 153.0 158.0 L 153.0 158.0 L 153.0 158.0 L 153.0 158.0 L 153.0 159.0 L 152.0 165.0 L 150.0 178.0 L 150.0 189.0 L 153.0 193.0 L 161.0 192.0 L 167.0 187.0 " stroke="black" fill="none" stroke-width="5.0" stroke-linecap="round" stroke-linejoin="round" />
<path d="M 188.0 163.0 L 188.0 163.0 L 186.0 165.0 L 184.0 166.0 L 182.0 169.0 L 180.0 173.0 L 179.0 174.0 " stroke="black" fill="none" stroke-width="5.0" stroke-linecap="round" stroke-linejoin="round" />
<path d="M 158.0 160.0 L 159.0 160.0 L 161.0 161.0 L 167.0 168.0 L 178.0 180.0 L 188.0 191.0 L 194.0 197.0 L 197.0 199.0 L 198.0 200.0 L 198.0 200.0 L 198.0 200.0 " stroke="black" fill="none" stroke-width="5.0" stroke-linecap="round" stroke-linejoin="round" />
</svg>