<svg xmlns="http://www.w3.org/2000/svg" width="300" height="300" viewBox="0 0 300 300">
<path d="M 124.0 107.0 L 124.0 106.0 L 125.0 105.0 L 125.0 104.0 L 125.0 106.0 L 125.0 121.0 L 126.0 147.0 L 126.0 175.0 L 125.0 194.0 L 125.0 200.0 L 126.0 197.0 " stroke="black" fill="none" stroke-width="5.0" stroke-linecap="round" stroke-linejoin="round" />
<path d="M 116.0 148.0 L 118.0 148.0 L 118.0 148.0 L 119.0 149.0 L 118.0 153.0 L 114.0 161.0 L 107.0 173.0 L 102.0 180.0 " stroke="black" fill="none" stroke-width="5.0" stroke-linecap="round" stroke-linejoin="round" />
<path d="M 129.0 152.0 L 129.0 152.0 L 129.0 151.0 L 129.0 151.0 L 131.0 152.0 L 135.0 161.0 L 139.0 166.0 " stroke="black" fill="none" stroke-width="5.0" stroke-linecap="round" stroke-linejoin="round" />
<path d="M 149.0 111.0 L 149.0 111.0 L 149.0 111.0 L 151.0 111.0 L 158.0 110.0 L 167.0 109.0 L 175.0 109.0 L 179.0 110.0 L 179.0 110.0 " stroke="black" fill="none" stroke-width="5.0" stroke-linecap="round" stroke-linejoin="round" />
<path d="M 150.0 115.0 L 150.0 115.0 L 150.0 115.0 L 150.0 116.0 L 150.0 123.0 L 151.0 139.0 L 152.0 155.0 L 152.0 160.0 L 152.0 160.0 " stroke="black" fill="none" stroke-width="5.0" stroke-linecap="round" stroke-linejoin="round" />
<path d="M 153.0 124.0 L 153.0 124.0 L 154.0 124.0 L 155.0 125.0 L 162.0 125.0 L 171.0 124.0 L 178.0 122.0 L 180.0 122.0 " stroke="black" fill="none" stroke-width="5.0" stroke-linecap="round" stroke-linejoin="round" />
<path d="M 152.0 142.0 L 152.0 142.0 L 154.0 143.0 L 159.0 143.0 L 168.0 143.0 L 177.0 139.0 L 179.0 139.0 " stroke="black" fill="none" stroke-width="5.0" stroke-linecap="round" stroke-linejoin="round" />
<path d="M 136.0 160.0 L 137.0 160.0 L 140.0 161.0 L 148.0 161.0 L 161.0 161.0 L 175.0 159.0 L 183.0 157.0 " stroke="black" fill="none" stroke-width="5.0" stroke-linecap="round" stroke-linejoin="round" />
<path d="M 151.0 164.0 L 151.0 164.0 L 151.0 165.0 L 150.0 168.0 L 148.0 176.0 L 146.0 185.0 L 146.0 193.0 L 151.0 196.0 L 160.0 194.0 " stroke="black" fill="none" stroke-width="5.0" stroke-linecap="round" stroke-linejoin="round" />
<path d="M 192.0 160.0 L 190.0 160.0 L 189.0 161.0 L 187.0 163.0 L 182.0 170.0 L 176.0 178.0 " stroke="black" fill="none" stroke-width="5.0" stroke-linecap="round" stroke-linejoin="round" />
<path d="M 156.0 167.0 L 158.0 168.0 L 161.0 170.0 L 170.0 176.0 L 182.0 185.0 L 193.0 194.0 L 199.0 199.0 L 201.0 201.0 L 201.0 201.0 " stroke="black" fill="none" stroke-width="5.0" stroke-linecap="round" stroke-linejoin="round" />
</svg>