<svg xmlns="http://www.w3.org/2000/svg" width="300" height="300" viewBox="0 0 300 300">
<path d="M 135.0 114.0 L 135.0 114.0 L 135.0 115.0 L 135.0 117.0 L 135.0 122.0 L 135.0 130.0 L 136.0 138.0 L 136.0 140.0 " stroke="black" fill="none" stroke-width="5.0" stroke-linecap="round" stroke-linejoin="round" />
<path d="M 119.0 129.0 L 119.0 129.0 L 119.0 129.0 L 119.0 129.0 L 119.0 129.0 L 122.0 129.0 L 130.0 129.0 L 143.0 130.0 L 157.0 130.0 L 168.0 130.0 L 175.0 129.0 L 178.0 129.0 L 178.0 129.0 L 177.0 129.0 " stroke="black" fill="none" stroke-width="5.0" stroke-linecap="round" stroke-linejoin="round" />
<path d="M 160.0 114.0 L 160.0 114.0 L 160.0 114.0 L 160.0 114.0 L 160.0 117.0 L 161.0 127.0 L 161.0 138.0 L 161.0 143.0 " stroke="black" fill="none" stroke-width="5.0" stroke-linecap="round" stroke-linejoin="round" />
<path d="M 151.0 137.0 L 151.0 137.0 L 151.0 137.0 L 151.0 137.0 L 151.0 141.0 L 152.0 146.0 L 153.0 148.0 " stroke="black" fill="none" stroke-width="5.0" stroke-linecap="round" stroke-linejoin="round" />
<path d="M 121.0 152.0 L 121.0 152.0 L 121.0 152.0 L 123.0 152.0 L 128.0 152.0 L 139.0 152.0 L 153.0 152.0 L 165.0 152.0 L 175.0 152.0 L 181.0 152.0 L 182.0 151.0 " stroke="black" fill="none" stroke-width="5.0" stroke-linecap="round" stroke-linejoin="round" />
<path d="M 142.0 155.0 L 142.0 155.0 L 142.0 155.0 L 141.0 157.0 L 140.0 161.0 L 138.0 170.0 L 135.0 182.0 L 133.0 190.0 L 133.0 191.0 " stroke="black" fill="none" stroke-width="5.0" stroke-linecap="round" stroke-linejoin="round" />
<path d="M 142.0 163.0 L 142.0 163.0 L 142.0 164.0 L 142.0 165.0 L 143.0 165.0 L 147.0 165.0 L 152.0 165.0 L 157.0 165.0 L 162.0 165.0 L 165.0 165.0 L 167.0 167.0 L 169.0 171.0 L 172.0 178.0 L 174.0 186.0 L 175.0 192.0 L 176.0 194.0 L 175.0 194.0 L 171.0 194.0 L 162.0 193.0 L 157.0 192.0 " stroke="black" fill="none" stroke-width="5.0" stroke-linecap="round" stroke-linejoin="round" />
</svg>