<svg xmlns="http://www.w3.org/2000/svg" width="300" height="300" viewBox="0 0 300 300">
<path d="M 124.0 114.0 L 124.0 114.0 L 124.0 114.0 L 124.0 114.0 L 124.0 118.0 L 124.0 131.0 L 125.0 151.0 L 125.0 169.0 L 125.0 179.0 L 125.0 184.0 L 125.0 184.0 L 125.0 183.0 " stroke="black" fill="none" stroke-width="5.0" stroke-linecap="round" stroke-linejoin="round" />
<path d="M 141.0 114.0 L 141.0 114.0 L 140.0 114.0 L 140.0 116.0 L 140.0 124.0 L 142.0 142.0 L 144.0 162.0 L 145.0 175.0 L 146.0 180.0 L 146.0 180.0 L 146.0 180.0 " stroke="black" fill="none" stroke-width="5.0" stroke-linecap="round" stroke-linejoin="round" />
<path d="M 113.0 132.0 L 114.0 131.0 L 114.0 131.0 L 117.0 131.0 L 124.0 131.0 L 135.0 131.0 L 145.0 131.0 L 149.0 131.0 L 150.0 132.0 " stroke="black" fill="none" stroke-width="5.0" stroke-linecap="round" stroke-linejoin="round" />
<path d="M 130.0 147.0 L 130.0 147.0 L 130.0 147.0 L 132.0 147.0 L 136.0 147.0 L 142.0 146.0 L 145.0 146.0 " stroke="black" fill="none" stroke-width="5.0" stroke-linecap="round" stroke-linejoin="round" />
<path d="M 127.0 159.0 L 128.0 160.0 L 130.0 161.0 L 133.0 161.0 L 137.0 161.0 L 142.0 161.0 L 142.0 161.0 " stroke="black" fill="none" stroke-width="5.0" stroke-linecap="round" stroke-linejoin="round" />
<path d="M 108.0 187.0 L 109.0 187.0 L 111.0 187.0 L 117.0 187.0 L 130.0 187.0 L 145.0 186.0 L 153.0 185.0 L 154.0 185.0 " stroke="black" fill="none" stroke-width="5.0" stroke-linecap="round" stroke-linejoin="round" />
<path d="M 127.0 191.0 L 127.0 191.0 L 127.0 191.0 L 127.0 191.0 L 127.0 193.0 L 126.0 197.0 L 124.0 202.0 L 124.0 202.0 " stroke="black" fill="none" stroke-width="5.0" stroke-linecap="round" stroke-linejoin="round" />
<path d="M 141.0 193.0 L 141.0 194.0 L 141.0 195.0 L 142.0 198.0 L 144.0 201.0 " stroke="black" fill="none" stroke-width="5.0" stroke-linecap="round" stroke-linejoin="round" />
<path d="M 159.0 127.0 L 159.0 127.0 L 160.0 126.0 L 160.0 126.0 L 160.0 127.0 L 160.0 136.0 L 161.0 154.0 L 160.0 176.0 L 159.0 194.0 L 158.0 203.0 L 158.0 203.0 " stroke="black" fill="none" stroke-width="5.0" stroke-linecap="round" stroke-linejoin="round" />
<path d="M 159.0 129.0 L 159.0 129.0 L 159.0 129.0 L 160.0 129.0 L 162.0 129.0 L 166.0 129.0 L 171.0 129.0 L 175.0 131.0 L 178.0 137.0 L 182.0 150.0 L 186.0 170.0 L 188.0 187.0 L 189.0 198.0 L 189.0 204.0 L 188.0 206.0 L 186.0 206.0 L 180.0 205.0 L 171.0 199.0 " stroke="black" fill="none" stroke-width="5.0" stroke-linecap="round" stroke-linejoin="round" />
<path d="M 164.0 153.0 L 164.0 153.0 L 165.0 154.0 L 167.0 154.0 L 172.0 154.0 L 179.0 153.0 L 183.0 153.0 " stroke="black" fill="none" stroke-width="5.0" stroke-linecap="round" stroke-linejoin="round" />
<path d="M 161.0 171.0 L 163.0 172.0 L 167.0 173.0 L 174.0 174.0 L 182.0 173.0 L 184.0 173.0 " stroke="black" fill="none" stroke-width="5.0" stroke-linecap="round" stroke-linejoin="round" />
</svg>