<svg xmlns="http://www.w3.org/2000/svg" width="300" height="300" viewBox="0 0 300 300">
<path d="M 114.0 132.0 L 115.0 132.0 L 116.0 132.0 L 120.0 132.0 L 128.0 132.0 L 136.0 132.0 L 139.0 131.0 " stroke="black" fill="none" stroke-width="5.0" stroke-linecap="round" stroke-linejoin="round" />
<path d="M 126.0 113.0 L 126.0 113.0 L 126.0 113.0 L 125.0 114.0 L 126.0 124.0 L 129.0 145.0 L 131.0 167.0 L 131.0 181.0 L 131.0 190.0 L 130.0 193.0 L 128.0 193.0 L 123.0 191.0 L 114.0 186.0 L 106.0 181.0 " stroke="black" fill="none" stroke-width="5.0" stroke-linecap="round" stroke-linejoin="round" />
<path d="M 106.0 162.0 L 106.0 162.0 L 106.0 162.0 L 108.0 162.0 L 115.0 161.0 L 129.0 158.0 L 142.0 156.0 L 147.0 155.0 " stroke="black" fill="none" stroke-width="5.0" stroke-linecap="round" stroke-linejoin="round" />
<path d="M 163.0 114.0 L 163.0 114.0 L 163.0 116.0 L 163.0 120.0 L 164.0 125.0 L 166.0 131.0 L 167.0 133.0 " stroke="black" fill="none" stroke-width="5.0" stroke-linecap="round" stroke-linejoin="round" />
<path d="M 149.0 136.0 L 149.0 136.0 L 149.0 136.0 L 151.0 136.0 L 159.0 136.0 L 171.0 135.0 L 180.0 134.0 L 182.0 134.0 " stroke="black" fill="none" stroke-width="5.0" stroke-linecap="round" stroke-linejoin="round" />
<path d="M 153.0 157.0 L 153.0 157.0 L 153.0 156.0 L 154.0 156.0 L 154.0 158.0 L 154.0 168.0 L 153.0 181.0 L 153.0 191.0 L 153.0 193.0 " stroke="black" fill="none" stroke-width="5.0" stroke-linecap="round" stroke-linejoin="round" />
<path d="M 154.0 154.0 L 155.0 154.0 L 156.0 154.0 L 158.0 154.0 L 163.0 153.0 L 169.0 152.0 L 175.0 151.0 L 177.0 153.0 L 178.0 158.0 L 178.0 168.0 L 179.0 181.0 L 184.0 191.0 L 191.0 196.0 L 198.0 194.0 L 200.0 190.0 " stroke="black" fill="none" stroke-width="5.0" stroke-linecap="round" stroke-linejoin="round" />
</svg>