<svg xmlns="http://www.w3.org/2000/svg" width="300" height="300" viewBox="0 0 300 300">
<path d="M 116.0 127.0 L 116.0 127.0 L 117.0 128.0 L 120.0 128.0 L 127.0 128.0 L 134.0 127.0 L 138.0 126.0 " stroke="black" fill="none" stroke-width="5.0" stroke-linecap="round" stroke-linejoin="round" />
<path d="M 124.0 108.0 L 124.0 108.0 L 124.0 109.0 L 124.0 112.0 L 125.0 122.0 L 127.0 140.0 L 129.0 159.0 L 129.0 172.0 L 129.0 180.0 L 129.0 183.0 L 129.0 183.0 L 126.0 183.0 L 120.0 180.0 L 112.0 176.0 L 107.0 173.0 " stroke="black" fill="none" stroke-width="5.0" stroke-linecap="round" stroke-linejoin="round" />
<path d="M 105.0 159.0 L 105.0 159.0 L 105.0 159.0 L 107.0 159.0 L 114.0 157.0 L 127.0 153.0 L 136.0 150.0 " stroke="black" fill="none" stroke-width="5.0" stroke-linecap="round" stroke-linejoin="round" />
<path d="M 155.0 115.0 L 155.0 115.0 L 156.0 115.0 L 157.0 117.0 L 158.0 118.0 L 160.0 120.0 L 161.0 121.0 " stroke="black" fill="none" stroke-width="5.0" stroke-linecap="round" stroke-linejoin="round" />
<path d="M 147.0 129.0 L 147.0 129.0 L 147.0 129.0 L 147.0 129.0 L 152.0 128.0 L 161.0 127.0 L 172.0 126.0 L 178.0 126.0 L 179.0 126.0 " stroke="black" fill="none" stroke-width="5.0" stroke-linecap="round" stroke-linejoin="round" />
<path d="M 149.0 148.0 L 149.0 148.0 L 149.0 148.0 L 149.0 149.0 L 149.0 154.0 L 149.0 166.0 L 148.0 178.0 L 148.0 185.0 L 148.0 187.0 " stroke="black" fill="none" stroke-width="5.0" stroke-linecap="round" stroke-linejoin="round" />
<path d="M 150.0 144.0 L 150.0 144.0 L 151.0 143.0 L 152.0 143.0 L 156.0 142.0 L 161.0 141.0 L 166.0 140.0 L 171.0 141.0 L 173.0 145.0 L 175.0 152.0 L 177.0 162.0 L 179.0 172.0 L 183.0 181.0 L 188.0 185.0 L 193.0 186.0 L 198.0 186.0 L 202.0 180.0 L 203.0 177.0 " stroke="black" fill="none" stroke-width="5.0" stroke-linecap="round" stroke-linejoin="round" />
</svg>