<svg xmlns="http://www.w3.org/2000/svg" width="300" height="300" viewBox="0 0 300 300">
<path d="M 137.0 96.0 L 137.0 96.0 L 137.0 97.0 L 136.0 99.0 L 136.0 103.0 L 136.0 109.0 L 137.0 116.0 L 138.0 119.0 " stroke="black" fill="none" stroke-width="5.0" stroke-linecap="round" stroke-linejoin="round" />
<path d="M 118.0 111.0 L 118.0 111.0 L 118.0 111.0 L 119.0 111.0 L 125.0 111.0 L 140.0 109.0 L 156.0 105.0 L 170.0 104.0 L 178.0 105.0 L 180.0 106.0 L 180.0 107.0 " stroke="black" fill="none" stroke-width="5.0" stroke-linecap="round" stroke-linejoin="round" />
<path d="M 158.0 92.0 L 158.0 92.0 L 158.0 92.0 L 158.0 94.0 L 158.0 101.0 L 159.0 111.0 L 159.0 120.0 L 159.0 122.0 " stroke="black" fill="none" stroke-width="5.0" stroke-linecap="round" stroke-linejoin="round" />
<path d="M 148.0 130.0 L 148.0 130.0 L 148.0 130.0 L 148.0 130.0 L 148.0 130.0 L 148.0 132.0 L 148.0 136.0 L 149.0 141.0 L 151.0 146.0 L 153.0 148.0 L 155.0 148.0 L 157.0 146.0 L 159.0 145.0 L 160.0 144.0 L 162.0 143.0 L 163.0 141.0 L 163.0 138.0 L 163.0 135.0 L 162.0 130.0 L 162.0 129.0 " stroke="black" fill="none" stroke-width="5.0" stroke-linecap="round" stroke-linejoin="round" />
<path d="M 129.0 139.0 L 128.0 139.0 L 127.0 139.0 L 132.0 139.0 L 144.0 139.0 L 157.0 137.0 L 168.0 135.0 L 171.0 135.0 " stroke="black" fill="none" stroke-width="5.0" stroke-linecap="round" stroke-linejoin="round" />
<path d="M 135.0 130.0 L 135.0 130.0 L 135.0 130.0 L 135.0 130.0 L 134.0 131.0 L 134.0 134.0 L 134.0 141.0 L 134.0 150.0 L 136.0 156.0 L 143.0 158.0 L 152.0 157.0 L 161.0 155.0 L 166.0 154.0 L 168.0 154.0 " stroke="black" fill="none" stroke-width="5.0" stroke-linecap="round" stroke-linejoin="round" />
<path d="M 122.0 171.0 L 122.0 171.0 L 122.0 172.0 L 122.0 173.0 L 127.0 173.0 L 140.0 173.0 L 157.0 172.0 L 168.0 172.0 L 173.0 172.0 L 173.0 172.0 " stroke="black" fill="none" stroke-width="5.0" stroke-linecap="round" stroke-linejoin="round" />
<path d="M 148.0 160.0 L 148.0 160.0 L 147.0 160.0 L 147.0 160.0 L 146.0 160.0 L 146.0 167.0 L 148.0 180.0 L 149.0 194.0 L 149.0 202.0 L 149.0 204.0 " stroke="black" fill="none" stroke-width="5.0" stroke-linecap="round" stroke-linejoin="round" />
<path d="M 147.0 177.0 L 145.0 178.0 L 144.0 179.0 L 142.0 180.0 L 139.0 181.0 L 134.0 186.0 L 124.0 192.0 L 116.0 199.0 L 115.0 200.0 " stroke="black" fill="none" stroke-width="5.0" stroke-linecap="round" stroke-linejoin="round" />
<path d="M 150.0 178.0 L 152.0 179.0 L 155.0 182.0 L 163.0 186.0 L 174.0 192.0 L 183.0 198.0 L 187.0 201.0 " stroke="black" fill="none" stroke-width="5.0" stroke-linecap="round" stroke-linejoin="round" />
</svg>