<svg xmlns="http://www.w3.org/2000/svg" width="300" height="300" viewBox="0 0 300 300">
<path d="M 119.0 125.0 L 119.0 125.0 L 122.0 128.0 L 126.0 130.0 L 126.0 131.0 " stroke="black" fill="none" stroke-width="5.0" stroke-linecap="round" stroke-linejoin="round" />
<path d="M 111.0 149.0 L 112.0 149.0 L 113.0 149.0 L 116.0 150.0 L 121.0 152.0 L 124.0 153.0 " stroke="black" fill="none" stroke-width="5.0" stroke-linecap="round" stroke-linejoin="round" />
<path d="M 100.0 189.0 L 100.0 189.0 L 100.0 189.0 L 103.0 189.0 L 111.0 185.0 L 123.0 178.0 " stroke="black" fill="none" stroke-width="5.0" stroke-linecap="round" stroke-linejoin="round" />
<path d="M 149.0 120.0 L 151.0 120.0 L 153.0 120.0 L 157.0 121.0 L 163.0 121.0 L 169.0 121.0 L 171.0 121.0 " stroke="black" fill="none" stroke-width="5.0" stroke-linecap="round" stroke-linejoin="round" />
<path d="M 149.0 134.0 L 149.0 134.0 L 149.0 134.0 L 150.0 134.0 L 153.0 134.0 L 160.0 134.0 L 167.0 134.0 L 172.0 134.0 " stroke="black" fill="none" stroke-width="5.0" stroke-linecap="round" stroke-linejoin="round" />
<path d="M 144.0 150.0 L 144.0 150.0 L 146.0 151.0 L 151.0 151.0 L 160.0 151.0 L 171.0 151.0 L 179.0 151.0 " stroke="black" fill="none" stroke-width="5.0" stroke-linecap="round" stroke-linejoin="round" />
<path d="M 160.0 110.0 L 160.0 111.0 L 160.0 113.0 L 160.0 120.0 L 161.0 132.0 L 161.0 144.0 " stroke="black" fill="none" stroke-width="5.0" stroke-linecap="round" stroke-linejoin="round" />
<path d="M 144.0 167.0 L 144.0 167.0 L 143.0 168.0 L 142.0 169.0 L 142.0 176.0 L 141.0 186.0 L 141.0 196.0 L 141.0 201.0 L 141.0 201.0 " stroke="black" fill="none" stroke-width="5.0" stroke-linecap="round" stroke-linejoin="round" />
<path d="M 143.0 166.0 L 143.0 166.0 L 143.0 166.0 L 144.0 166.0 L 147.0 166.0 L 152.0 165.0 L 159.0 164.0 L 166.0 163.0 L 170.0 164.0 L 174.0 169.0 L 177.0 180.0 L 179.0 192.0 L 181.0 202.0 L 182.0 207.0 L 182.0 208.0 L 179.0 208.0 L 170.0 207.0 L 165.0 205.0 " stroke="black" fill="none" stroke-width="5.0" stroke-linecap="round" stroke-linejoin="round" />
<path d="M 146.0 179.0 L 146.0 179.0 L 145.0 179.0 L 145.0 180.0 L 145.0 180.0 L 150.0 180.0 L 158.0 180.0 L 166.0 180.0 L 171.0 180.0 L 171.0 180.0 " stroke="black" fill="none" stroke-width="5.0" stroke-linecap="round" stroke-linejoin="round" />
<path d="M 144.0 193.0 L 145.0 193.0 L 146.0 193.0 L 150.0 193.0 L 156.0 194.0 L 165.0 194.0 L 173.0 194.0 " stroke="black" fill="none" stroke-width="5.0" stroke-linecap="round" stroke-linejoin="round" />
</svg>