<svg xmlns="http://www.w3.org/2000/svg" width="300" height="300" viewBox="0 0 300 300">
<path d="M 124.0 110.0 L 125.0 110.0 L 125.0 110.0 L 126.0 110.0 L 129.0 112.0 L 132.0 115.0 L 135.0 117.0 " stroke="black" fill="none" stroke-width="5.0" stroke-linecap="round" stroke-linejoin="round" />
<path d="M 117.0 136.0 L 118.0 136.0 L 119.0 136.0 L 122.0 137.0 L 127.0 138.0 L 128.0 138.0 " stroke="black" fill="none" stroke-width="5.0" stroke-linecap="round" stroke-linejoin="round" />
<path d="M 105.0 176.0 L 105.0 176.0 L 105.0 176.0 L 105.0 176.0 L 107.0 175.0 L 115.0 172.0 L 125.0 167.0 " stroke="black" fill="none" stroke-width="5.0" stroke-linecap="round" stroke-linejoin="round" />
<path d="M 150.0 111.0 L 150.0 111.0 L 150.0 111.0 L 151.0 111.0 L 154.0 111.0 L 160.0 111.0 L 166.0 111.0 L 169.0 111.0 " stroke="black" fill="none" stroke-width="5.0" stroke-linecap="round" stroke-linejoin="round" />
<path d="M 149.0 124.0 L 151.0 125.0 L 153.0 125.0 L 157.0 125.0 L 162.0 125.0 L 167.0 125.0 L 168.0 125.0 " stroke="black" fill="none" stroke-width="5.0" stroke-linecap="round" stroke-linejoin="round" />
<path d="M 140.0 141.0 L 140.0 141.0 L 140.0 141.0 L 140.0 141.0 L 142.0 141.0 L 151.0 141.0 L 164.0 141.0 L 173.0 141.0 " stroke="black" fill="none" stroke-width="5.0" stroke-linecap="round" stroke-linejoin="round" />
<path d="M 154.0 99.0 L 154.0 99.0 L 154.0 99.0 L 155.0 104.0 L 157.0 118.0 L 159.0 134.0 L 159.0 140.0 " stroke="black" fill="none" stroke-width="5.0" stroke-linecap="round" stroke-linejoin="round" />
<path d="M 147.0 161.0 L 147.0 161.0 L 147.0 160.0 L 147.0 160.0 L 147.0 160.0 L 146.0 164.0 L 146.0 175.0 L 144.0 191.0 L 143.0 199.0 L 143.0 200.0 " stroke="black" fill="none" stroke-width="5.0" stroke-linecap="round" stroke-linejoin="round" />
<path d="M 148.0 156.0 L 148.0 156.0 L 148.0 156.0 L 149.0 155.0 L 153.0 155.0 L 159.0 154.0 L 165.0 154.0 L 170.0 154.0 L 174.0 158.0 L 178.0 165.0 L 181.0 176.0 L 185.0 187.0 L 186.0 197.0 L 187.0 203.0 L 186.0 205.0 L 182.0 205.0 L 174.0 201.0 L 169.0 198.0 " stroke="black" fill="none" stroke-width="5.0" stroke-linecap="round" stroke-linejoin="round" />
<path d="M 152.0 162.0 L 153.0 162.0 L 154.0 163.0 L 156.0 163.0 L 160.0 163.0 L 168.0 163.0 L 174.0 163.0 L 177.0 163.0 " stroke="black" fill="none" stroke-width="5.0" stroke-linecap="round" stroke-linejoin="round" />
<path d="M 151.0 177.0 L 152.0 177.0 L 154.0 178.0 L 157.0 179.0 L 164.0 180.0 L 175.0 179.0 L 179.0 178.0 " stroke="black" fill="none" stroke-width="5.0" stroke-linecap="round" stroke-linejoin="round" />
</svg>