<svg xmlns="http://www.w3.org/2000/svg" width="300" height="300" viewBox="0 0 300 300">
<path d="M 114.0 127.0 L 115.0 128.0 L 116.0 129.0 L 117.0 131.0 L 119.0 133.0 L 121.0 137.0 L 122.0 138.0 " stroke="black" fill="none" stroke-width="5.0" stroke-linecap="round" stroke-linejoin="round" />
<path d="M 112.0 149.0 L 112.0 149.0 L 113.0 149.0 L 113.0 149.0 L 115.0 149.0 L 118.0 150.0 L 121.0 152.0 L 122.0 154.0 L 121.0 158.0 L 118.0 161.0 L 115.0 163.0 L 114.0 165.0 L 113.0 167.0 L 113.0 169.0 L 114.0 172.0 L 115.0 175.0 L 116.0 176.0 " stroke="black" fill="none" stroke-width="5.0" stroke-linecap="round" stroke-linejoin="round" />
<path d="M 103.0 192.0 L 103.0 192.0 L 102.0 192.0 L 102.0 192.0 L 101.0 191.0 L 101.0 191.0 L 102.0 189.0 L 106.0 188.0 L 111.0 187.0 L 118.0 187.0 L 128.0 189.0 L 141.0 191.0 L 154.0 194.0 L 166.0 196.0 L 178.0 196.0 L 186.0 196.0 L 188.0 195.0 " stroke="black" fill="none" stroke-width="5.0" stroke-linecap="round" stroke-linejoin="round" />
<path d="M 147.0 113.0 L 147.0 113.0 L 147.0 113.0 L 147.0 114.0 L 148.0 114.0 L 153.0 114.0 L 159.0 113.0 L 164.0 112.0 L 167.0 112.0 L 167.0 112.0 " stroke="black" fill="none" stroke-width="5.0" stroke-linecap="round" stroke-linejoin="round" />
<path d="M 140.0 123.0 L 140.0 123.0 L 140.0 124.0 L 140.0 124.0 L 145.0 124.0 L 153.0 124.0 L 164.0 122.0 L 174.0 121.0 L 178.0 121.0 " stroke="black" fill="none" stroke-width="5.0" stroke-linecap="round" stroke-linejoin="round" />
<path d="M 156.0 103.0 L 156.0 103.0 L 156.0 103.0 L 156.0 103.0 L 156.0 106.0 L 157.0 112.0 L 158.0 120.0 " stroke="black" fill="none" stroke-width="5.0" stroke-linecap="round" stroke-linejoin="round" />
<path d="M 147.0 135.0 L 147.0 135.0 L 147.0 135.0 L 148.0 135.0 L 148.0 138.0 L 148.0 141.0 L 148.0 142.0 " stroke="black" fill="none" stroke-width="5.0" stroke-linecap="round" stroke-linejoin="round" />
<path d="M 147.0 134.0 L 147.0 134.0 L 147.0 134.0 L 148.0 133.0 L 149.0 133.0 L 153.0 133.0 L 159.0 133.0 L 165.0 133.0 L 170.0 133.0 L 172.0 136.0 L 172.0 140.0 L 172.0 143.0 L 169.0 145.0 L 168.0 146.0 " stroke="black" fill="none" stroke-width="5.0" stroke-linecap="round" stroke-linejoin="round" />
<path d="M 148.0 145.0 L 148.0 145.0 L 149.0 145.0 L 149.0 146.0 L 152.0 146.0 L 157.0 146.0 L 163.0 146.0 L 166.0 146.0 " stroke="black" fill="none" stroke-width="5.0" stroke-linecap="round" stroke-linejoin="round" />
<path d="M 150.0 150.0 L 150.0 150.0 L 150.0 150.0 L 150.0 151.0 L 149.0 152.0 L 147.0 154.0 L 143.0 158.0 L 139.0 162.0 L 137.0 163.0 " stroke="black" fill="none" stroke-width="5.0" stroke-linecap="round" stroke-linejoin="round" />
<path d="M 147.0 156.0 L 147.0 156.0 L 147.0 157.0 L 147.0 158.0 L 146.0 161.0 L 145.0 167.0 L 145.0 174.0 L 148.0 178.0 L 153.0 179.0 L 158.0 175.0 " stroke="black" fill="none" stroke-width="5.0" stroke-linecap="round" stroke-linejoin="round" />
<path d="M 179.0 153.0 L 179.0 153.0 L 178.0 155.0 L 176.0 158.0 L 174.0 161.0 L 172.0 163.0 L 171.0 164.0 " stroke="black" fill="none" stroke-width="5.0" stroke-linecap="round" stroke-linejoin="round" />
<path d="M 157.0 155.0 L 158.0 155.0 L 159.0 155.0 L 160.0 155.0 L 163.0 158.0 L 170.0 167.0 L 178.0 179.0 L 183.0 186.0 L 185.0 188.0 L 185.0 188.0 L 185.0 188.0 " stroke="black" fill="none" stroke-width="5.0" stroke-linecap="round" stroke-linejoin="round" />
</svg>