<svg xmlns="http://www.w3.org/2000/svg" width="300" height="300" viewBox="0 0 300 300">
<path d="M 122.0 110.0 L 122.0 110.0 L 122.0 110.0 L 122.0 110.0 L 122.0 110.0 L 122.0 110.0 L 125.0 112.0 L 127.0 114.0 " stroke="black" fill="none" stroke-width="5.0" stroke-linecap="round" stroke-linejoin="round" />
<path d="M 107.0 129.0 L 107.0 129.0 L 107.0 129.0 L 108.0 129.0 L 113.0 129.0 L 123.0 128.0 L 134.0 126.0 L 141.0 125.0 L 143.0 125.0 " stroke="black" fill="none" stroke-width="5.0" stroke-linecap="round" stroke-linejoin="round" />
<path d="M 116.0 131.0 L 116.0 131.0 L 115.0 132.0 L 115.0 133.0 L 115.0 137.0 L 116.0 142.0 L 116.0 143.0 " stroke="black" fill="none" stroke-width="5.0" stroke-linecap="round" stroke-linejoin="round" />
<path d="M 133.0 131.0 L 133.0 131.0 L 133.0 131.0 L 133.0 131.0 L 133.0 132.0 L 132.0 136.0 L 132.0 140.0 " stroke="black" fill="none" stroke-width="5.0" stroke-linecap="round" stroke-linejoin="round" />
<path d="M 107.0 151.0 L 107.0 151.0 L 107.0 151.0 L 107.0 151.0 L 108.0 150.0 L 114.0 150.0 L 124.0 149.0 L 135.0 148.0 L 141.0 148.0 L 142.0 148.0 " stroke="black" fill="none" stroke-width="5.0" stroke-linecap="round" stroke-linejoin="round" />
<path d="M 105.0 166.0 L 105.0 166.0 L 106.0 166.0 L 107.0 166.0 L 111.0 166.0 L 119.0 166.0 L 132.0 166.0 L 141.0 165.0 L 147.0 165.0 " stroke="black" fill="none" stroke-width="5.0" stroke-linecap="round" stroke-linejoin="round" />
<path d="M 126.0 148.0 L 126.0 148.0 L 126.0 150.0 L 126.0 153.0 L 127.0 162.0 L 129.0 177.0 L 131.0 190.0 L 132.0 198.0 L 132.0 198.0 " stroke="black" fill="none" stroke-width="5.0" stroke-linecap="round" stroke-linejoin="round" />
<path d="M 128.0 168.0 L 128.0 168.0 L 127.0 168.0 L 126.0 169.0 L 124.0 171.0 L 120.0 176.0 L 115.0 183.0 L 109.0 190.0 L 108.0 191.0 " stroke="black" fill="none" stroke-width="5.0" stroke-linecap="round" stroke-linejoin="round" />
<path d="M 125.0 171.0 L 125.0 171.0 L 126.0 172.0 L 131.0 175.0 L 139.0 182.0 L 147.0 188.0 L 152.0 192.0 L 153.0 193.0 " stroke="black" fill="none" stroke-width="5.0" stroke-linecap="round" stroke-linejoin="round" />
<path d="M 164.0 117.0 L 164.0 117.0 L 164.0 117.0 L 164.0 117.0 L 164.0 119.0 L 162.0 122.0 L 159.0 126.0 L 155.0 130.0 L 152.0 133.0 L 151.0 135.0 L 151.0 137.0 L 152.0 141.0 L 154.0 148.0 L 156.0 159.0 L 157.0 175.0 L 157.0 188.0 L 158.0 196.0 L 158.0 197.0 L 158.0 195.0 L 158.0 194.0 " stroke="black" fill="none" stroke-width="5.0" stroke-linecap="round" stroke-linejoin="round" />
<path d="M 157.0 149.0 L 157.0 149.0 L 157.0 149.0 L 158.0 148.0 L 164.0 147.0 L 172.0 146.0 L 179.0 144.0 L 182.0 144.0 L 183.0 144.0 " stroke="black" fill="none" stroke-width="5.0" stroke-linecap="round" stroke-linejoin="round" />
<path d="M 169.0 147.0 L 170.0 147.0 L 170.0 147.0 L 170.0 148.0 L 171.0 150.0 L 173.0 158.0 L 176.0 171.0 L 179.0 186.0 L 181.0 196.0 L 181.0 200.0 L 181.0 200.0 L 180.0 198.0 " stroke="black" fill="none" stroke-width="5.0" stroke-linecap="round" stroke-linejoin="round" />
</svg>