<svg xmlns="http://www.w3.org/2000/svg" width="300" height="300" viewBox="0 0 300 300">
<path d="M 122.0 116.0 L 123.0 116.0 L 124.0 117.0 L 124.0 119.0 L 125.0 123.0 L 128.0 127.0 L 130.0 130.0 " stroke="black" fill="none" stroke-width="5.0" stroke-linecap="round" stroke-linejoin="round" />
<path d="M 112.0 139.0 L 112.0 139.0 L 112.0 139.0 L 112.0 139.0 L 113.0 139.0 L 116.0 139.0 L 122.0 138.0 L 130.0 137.0 L 136.0 137.0 L 139.0 137.0 L 140.0 137.0 L 140.0 137.0 " stroke="black" fill="none" stroke-width="5.0" stroke-linecap="round" stroke-linejoin="round" />
<path d="M 116.0 153.0 L 116.0 153.0 L 116.0 153.0 L 116.0 153.0 L 118.0 153.0 L 122.0 153.0 L 128.0 153.0 L 133.0 152.0 L 135.0 152.0 L 135.0 153.0 L 134.0 153.0 " stroke="black" fill="none" stroke-width="5.0" stroke-linecap="round" stroke-linejoin="round" />
<path d="M 115.0 166.0 L 116.0 167.0 L 118.0 167.0 L 121.0 167.0 L 126.0 166.0 L 131.0 166.0 L 133.0 166.0 L 133.0 166.0 " stroke="black" fill="none" stroke-width="5.0" stroke-linecap="round" stroke-linejoin="round" />
<path d="M 108.0 181.0 L 108.0 181.0 L 108.0 182.0 L 108.0 184.0 L 108.0 187.0 L 109.0 190.0 L 110.0 192.0 L 110.0 193.0 " stroke="black" fill="none" stroke-width="5.0" stroke-linecap="round" stroke-linejoin="round" />
<path d="M 110.0 181.0 L 112.0 181.0 L 114.0 180.0 L 117.0 179.0 L 121.0 179.0 L 127.0 178.0 L 133.0 178.0 L 137.0 178.0 L 140.0 182.0 L 141.0 186.0 L 141.0 190.0 L 140.0 193.0 L 139.0 195.0 " stroke="black" fill="none" stroke-width="5.0" stroke-linecap="round" stroke-linejoin="round" />
<path d="M 113.0 197.0 L 113.0 197.0 L 113.0 198.0 L 115.0 199.0 L 122.0 199.0 L 133.0 198.0 L 141.0 196.0 " stroke="black" fill="none" stroke-width="5.0" stroke-linecap="round" stroke-linejoin="round" />
<path d="M 152.0 127.0 L 152.0 127.0 L 152.0 127.0 L 153.0 127.0 L 155.0 127.0 L 162.0 127.0 L 172.0 127.0 L 183.0 126.0 L 191.0 125.0 L 193.0 124.0 L 192.0 124.0 " stroke="black" fill="none" stroke-width="5.0" stroke-linecap="round" stroke-linejoin="round" />
<path d="M 153.0 131.0 L 153.0 131.0 L 153.0 131.0 L 153.0 131.0 L 152.0 134.0 L 152.0 144.0 L 152.0 160.0 L 150.0 176.0 L 148.0 187.0 L 147.0 193.0 L 148.0 194.0 L 149.0 193.0 " stroke="black" fill="none" stroke-width="5.0" stroke-linecap="round" stroke-linejoin="round" />
<path d="M 156.0 158.0 L 156.0 158.0 L 156.0 158.0 L 156.0 158.0 L 156.0 158.0 L 157.0 158.0 L 160.0 158.0 L 163.0 158.0 L 166.0 157.0 L 168.0 157.0 L 169.0 157.0 L 171.0 160.0 L 172.0 166.0 L 174.0 175.0 L 175.0 182.0 L 175.0 187.0 L 175.0 187.0 L 172.0 187.0 L 167.0 186.0 L 162.0 184.0 " stroke="black" fill="none" stroke-width="5.0" stroke-linecap="round" stroke-linejoin="round" />
<path d="M 177.0 113.0 L 177.0 113.0 L 177.0 113.0 L 177.0 114.0 L 177.0 119.0 L 181.0 136.0 L 190.0 160.0 L 197.0 178.0 L 203.0 188.0 L 208.0 190.0 L 211.0 191.0 L 212.0 187.0 L 212.0 186.0 " stroke="black" fill="none" stroke-width="5.0" stroke-linecap="round" stroke-linejoin="round" />
<path d="M 206.0 154.0 L 206.0 154.0 L 204.0 155.0 L 201.0 160.0 L 196.0 170.0 L 188.0 184.0 L 181.0 194.0 L 178.0 197.0 " stroke="black" fill="none" stroke-width="5.0" stroke-linecap="round" stroke-linejoin="round" />
<path d="M 195.0 107.0 L 195.0 108.0 L 195.0 109.0 L 197.0 111.0 L 201.0 114.0 " stroke="black" fill="none" stroke-width="5.0" stroke-linecap="round" stroke-linejoin="round" />
</svg>