<svg xmlns="http://www.w3.org/2000/svg" width="300" height="300" viewBox="0 0 300 300">
<path d="M 118.0 109.0 L 118.0 109.0 L 119.0 109.0 L 121.0 109.0 L 125.0 109.0 L 131.0 109.0 L 135.0 109.0 L 137.0 110.0 L 138.0 113.0 L 134.0 117.0 L 130.0 122.0 L 128.0 127.0 L 128.0 132.0 L 132.0 138.0 L 137.0 143.0 L 142.0 147.0 L 143.0 151.0 L 143.0 154.0 L 139.0 156.0 L 134.0 157.0 L 129.0 157.0 " stroke="black" fill="none" stroke-width="5.0" stroke-linecap="round" stroke-linejoin="round" />
<path d="M 116.0 111.0 L 116.0 111.0 L 116.0 111.0 L 116.0 112.0 L 116.0 125.0 L 118.0 153.0 L 121.0 181.0 L 122.0 196.0 L 123.0 198.0 L 124.0 198.0 " stroke="black" fill="none" stroke-width="5.0" stroke-linecap="round" stroke-linejoin="round" />
<path d="M 153.0 117.0 L 153.0 117.0 L 153.0 117.0 L 154.0 117.0 L 155.0 117.0 L 160.0 116.0 L 166.0 116.0 L 173.0 116.0 L 175.0 117.0 " stroke="black" fill="none" stroke-width="5.0" stroke-linecap="round" stroke-linejoin="round" />
<path d="M 145.0 134.0 L 145.0 134.0 L 149.0 135.0 L 157.0 135.0 L 168.0 135.0 L 178.0 134.0 L 183.0 133.0 L 183.0 133.0 " stroke="black" fill="none" stroke-width="5.0" stroke-linecap="round" stroke-linejoin="round" />
<path d="M 160.0 103.0 L 160.0 105.0 L 160.0 109.0 L 163.0 117.0 L 166.0 126.0 " stroke="black" fill="none" stroke-width="5.0" stroke-linecap="round" stroke-linejoin="round" />
<path d="M 153.0 143.0 L 153.0 143.0 L 153.0 143.0 L 153.0 143.0 L 153.0 143.0 L 152.0 148.0 L 150.0 155.0 L 150.0 158.0 " stroke="black" fill="none" stroke-width="5.0" stroke-linecap="round" stroke-linejoin="round" />
<path d="M 172.0 139.0 L 172.0 139.0 L 172.0 139.0 L 172.0 139.0 L 173.0 142.0 L 176.0 146.0 L 181.0 150.0 L 185.0 153.0 L 186.0 153.0 " stroke="black" fill="none" stroke-width="5.0" stroke-linecap="round" stroke-linejoin="round" />
<path d="M 163.0 151.0 L 163.0 151.0 L 163.0 150.0 L 163.0 150.0 L 162.0 154.0 L 158.0 162.0 L 152.0 172.0 L 147.0 180.0 " stroke="black" fill="none" stroke-width="5.0" stroke-linecap="round" stroke-linejoin="round" />
<path d="M 156.0 164.0 L 157.0 164.0 L 159.0 164.0 L 162.0 164.0 L 167.0 164.0 L 172.0 163.0 L 176.0 163.0 L 178.0 163.0 L 179.0 166.0 L 177.0 172.0 L 171.0 183.0 L 164.0 193.0 L 158.0 202.0 L 154.0 206.0 " stroke="black" fill="none" stroke-width="5.0" stroke-linecap="round" stroke-linejoin="round" />
<path d="M 153.0 175.0 L 153.0 175.0 L 153.0 175.0 L 154.0 174.0 L 154.0 174.0 L 156.0 174.0 L 163.0 180.0 L 176.0 194.0 L 190.0 208.0 L 200.0 216.0 L 203.0 218.0 " stroke="black" fill="none" stroke-width="5.0" stroke-linecap="round" stroke-linejoin="round" />
</svg>