<svg xmlns="http://www.w3.org/2000/svg" width="300" height="300" viewBox="0 0 300 300">
<path d="M 162.0 93.0 L 163.0 93.0 L 163.0 93.0 L 163.0 93.0 L 163.0 94.0 L 159.0 96.0 L 150.0 101.0 L 135.0 109.0 L 133.0 111.0 " stroke="black" fill="none" stroke-width="5.0" stroke-linecap="round" stroke-linejoin="round" />
<path d="M 118.0 124.0 L 118.0 124.0 L 119.0 124.0 L 122.0 124.0 L 133.0 124.0 L 150.0 122.0 L 168.0 119.0 L 184.0 117.0 L 188.0 118.0 L 188.0 118.0 " stroke="black" fill="none" stroke-width="5.0" stroke-linecap="round" stroke-linejoin="round" />
<path d="M 138.0 131.0 L 138.0 131.0 L 138.0 132.0 L 137.0 134.0 L 137.0 138.0 L 137.0 143.0 L 137.0 147.0 L 137.0 151.0 L 137.0 151.0 " stroke="black" fill="none" stroke-width="5.0" stroke-linecap="round" stroke-linejoin="round" />
<path d="M 121.0 141.0 L 122.0 141.0 L 123.0 141.0 L 124.0 141.0 L 126.0 141.0 L 129.0 141.0 L 131.0 142.0 " stroke="black" fill="none" stroke-width="5.0" stroke-linecap="round" stroke-linejoin="round" />
<path d="M 114.0 155.0 L 114.0 155.0 L 115.0 155.0 L 117.0 156.0 L 122.0 156.0 L 131.0 156.0 L 133.0 156.0 " stroke="black" fill="none" stroke-width="5.0" stroke-linecap="round" stroke-linejoin="round" />
<path d="M 158.0 128.0 L 159.0 128.0 L 159.0 128.0 L 159.0 129.0 L 159.0 133.0 L 159.0 141.0 L 159.0 149.0 L 163.0 156.0 L 168.0 159.0 L 173.0 159.0 L 176.0 157.0 L 176.0 156.0 " stroke="black" fill="none" stroke-width="5.0" stroke-linecap="round" stroke-linejoin="round" />
<path d="M 158.0 141.0 L 159.0 141.0 L 161.0 142.0 L 164.0 143.0 L 169.0 143.0 L 173.0 144.0 " stroke="black" fill="none" stroke-width="5.0" stroke-linecap="round" stroke-linejoin="round" />
<path d="M 148.0 107.0 L 148.0 107.0 L 148.0 107.0 L 148.0 106.0 L 148.0 108.0 L 148.0 116.0 L 149.0 139.0 L 150.0 177.0 L 150.0 190.0 L 151.0 196.0 L 152.0 198.0 L 152.0 197.0 L 150.0 193.0 " stroke="black" fill="none" stroke-width="5.0" stroke-linecap="round" stroke-linejoin="round" />
<path d="M 145.0 162.0 L 145.0 162.0 L 145.0 162.0 L 144.0 162.0 L 144.0 162.0 L 140.0 165.0 L 134.0 170.0 L 124.0 176.0 L 111.0 185.0 L 108.0 188.0 " stroke="black" fill="none" stroke-width="5.0" stroke-linecap="round" stroke-linejoin="round" />
<path d="M 148.0 164.0 L 149.0 165.0 L 152.0 168.0 L 157.0 171.0 L 166.0 178.0 L 176.0 186.0 L 182.0 191.0 L 185.0 194.0 L 185.0 196.0 L 185.0 196.0 " stroke="black" fill="none" stroke-width="5.0" stroke-linecap="round" stroke-linejoin="round" />
</svg>