<svg xmlns="http://www.w3.org/2000/svg" width="300" height="300" viewBox="0 0 300 300">
<path d="M 114.0 117.0 L 114.0 117.0 L 114.0 117.0 L 115.0 118.0 L 115.0 118.0 L 115.0 120.0 L 115.0 122.0 L 115.0 129.0 L 115.0 141.0 L 112.0 159.0 L 110.0 175.0 L 108.0 187.0 L 107.0 190.0 " stroke="black" fill="none" stroke-width="5.0" stroke-linecap="round" stroke-linejoin="round" />
<path d="M 116.0 114.0 L 117.0 114.0 L 118.0 114.0 L 119.0 114.0 L 120.0 114.0 L 121.0 114.0 L 123.0 114.0 L 125.0 114.0 L 127.0 114.0 L 128.0 115.0 L 130.0 116.0 L 131.0 119.0 L 133.0 127.0 L 135.0 140.0 L 137.0 157.0 L 139.0 171.0 L 140.0 180.0 L 140.0 185.0 L 139.0 187.0 L 136.0 187.0 L 128.0 186.0 L 126.0 185.0 " stroke="black" fill="none" stroke-width="5.0" stroke-linecap="round" stroke-linejoin="round" />
<path d="M 118.0 140.0 L 118.0 140.0 L 119.0 140.0 L 121.0 140.0 L 122.0 140.0 L 126.0 139.0 L 132.0 138.0 L 134.0 138.0 " stroke="black" fill="none" stroke-width="5.0" stroke-linecap="round" stroke-linejoin="round" />
<path d="M 116.0 158.0 L 116.0 159.0 L 115.0 160.0 L 116.0 160.0 L 122.0 161.0 L 132.0 160.0 " stroke="black" fill="none" stroke-width="5.0" stroke-linecap="round" stroke-linejoin="round" />
<path d="M 151.0 112.0 L 151.0 112.0 L 151.0 111.0 L 151.0 111.0 L 151.0 111.0 L 151.0 114.0 L 152.0 121.0 L 152.0 129.0 L 153.0 133.0 " stroke="black" fill="none" stroke-width="5.0" stroke-linecap="round" stroke-linejoin="round" />
<path d="M 153.0 111.0 L 153.0 111.0 L 154.0 110.0 L 156.0 110.0 L 158.0 110.0 L 161.0 109.0 L 166.0 109.0 L 170.0 109.0 L 173.0 110.0 L 176.0 113.0 L 177.0 119.0 L 178.0 125.0 L 179.0 131.0 L 179.0 135.0 L 179.0 135.0 " stroke="black" fill="none" stroke-width="5.0" stroke-linecap="round" stroke-linejoin="round" />
<path d="M 154.0 125.0 L 154.0 125.0 L 154.0 125.0 L 155.0 125.0 L 157.0 124.0 L 162.0 123.0 L 167.0 123.0 L 172.0 122.0 L 174.0 122.0 " stroke="black" fill="none" stroke-width="5.0" stroke-linecap="round" stroke-linejoin="round" />
<path d="M 152.0 135.0 L 152.0 136.0 L 153.0 136.0 L 156.0 137.0 L 164.0 137.0 L 174.0 136.0 L 182.0 135.0 " stroke="black" fill="none" stroke-width="5.0" stroke-linecap="round" stroke-linejoin="round" />
<path d="M 150.0 149.0 L 150.0 150.0 L 148.0 150.0 L 148.0 150.0 L 151.0 150.0 L 160.0 150.0 L 172.0 150.0 L 184.0 149.0 L 191.0 148.0 L 192.0 148.0 " stroke="black" fill="none" stroke-width="5.0" stroke-linecap="round" stroke-linejoin="round" />
<path d="M 162.0 149.0 L 162.0 149.0 L 162.0 149.0 L 161.0 149.0 L 159.0 152.0 L 156.0 159.0 L 152.0 168.0 L 150.0 173.0 " stroke="black" fill="none" stroke-width="5.0" stroke-linecap="round" stroke-linejoin="round" />
<path d="M 159.0 160.0 L 160.0 160.0 L 160.0 160.0 L 162.0 160.0 L 166.0 160.0 L 172.0 160.0 L 177.0 160.0 L 182.0 160.0 L 185.0 161.0 L 188.0 164.0 L 190.0 170.0 L 191.0 177.0 L 193.0 186.0 L 194.0 193.0 L 194.0 196.0 L 194.0 198.0 L 191.0 199.0 L 186.0 199.0 L 178.0 196.0 " stroke="black" fill="none" stroke-width="5.0" stroke-linecap="round" stroke-linejoin="round" />
<path d="M 165.0 161.0 L 165.0 161.0 L 166.0 161.0 L 166.0 162.0 L 166.0 163.0 L 165.0 168.0 L 160.0 177.0 L 155.0 186.0 L 154.0 187.0 " stroke="black" fill="none" stroke-width="5.0" stroke-linecap="round" stroke-linejoin="round" />
<path d="M 178.0 162.0 L 178.0 163.0 L 178.0 166.0 L 178.0 172.0 L 175.0 186.0 L 169.0 199.0 L 167.0 201.0 " stroke="black" fill="none" stroke-width="5.0" stroke-linecap="round" stroke-linejoin="round" />
</svg>