<svg xmlns="http://www.w3.org/2000/svg" width="300" height="300" viewBox="0 0 300 300">
<path d="M 122.0 119.0 L 123.0 119.0 L 124.0 119.0 L 130.0 119.0 L 141.0 118.0 L 155.0 117.0 L 167.0 116.0 L 171.0 116.0 " stroke="black" fill="none" stroke-width="5.0" stroke-linecap="round" stroke-linejoin="round" />
<path d="M 149.0 103.0 L 149.0 103.0 L 149.0 103.0 L 149.0 103.0 L 149.0 103.0 L 147.0 109.0 L 141.0 121.0 L 131.0 142.0 L 117.0 163.0 L 107.0 179.0 L 102.0 184.0 L 102.0 184.0 " stroke="black" fill="none" stroke-width="5.0" stroke-linecap="round" stroke-linejoin="round" />
<path d="M 137.0 143.0 L 137.0 143.0 L 136.0 143.0 L 135.0 145.0 L 135.0 152.0 L 135.0 164.0 L 134.0 177.0 L 134.0 186.0 L 134.0 189.0 L 134.0 189.0 " stroke="black" fill="none" stroke-width="5.0" stroke-linecap="round" stroke-linejoin="round" />
<path d="M 138.0 144.0 L 138.0 144.0 L 138.0 143.0 L 139.0 141.0 L 141.0 140.0 L 146.0 139.0 L 152.0 139.0 L 158.0 139.0 L 163.0 139.0 L 167.0 139.0 L 169.0 142.0 L 172.0 150.0 L 175.0 163.0 L 178.0 178.0 L 180.0 187.0 L 180.0 191.0 L 178.0 192.0 L 174.0 192.0 L 167.0 190.0 L 161.0 187.0 " stroke="black" fill="none" stroke-width="5.0" stroke-linecap="round" stroke-linejoin="round" />
<path d="M 144.0 153.0 L 144.0 153.0 L 144.0 153.0 L 146.0 153.0 L 151.0 153.0 L 159.0 153.0 L 166.0 153.0 L 170.0 153.0 L 171.0 154.0 " stroke="black" fill="none" stroke-width="5.0" stroke-linecap="round" stroke-linejoin="round" />
<path d="M 139.0 171.0 L 139.0 171.0 L 142.0 172.0 L 150.0 172.0 L 162.0 171.0 L 168.0 170.0 " stroke="black" fill="none" stroke-width="5.0" stroke-linecap="round" stroke-linejoin="round" />
</svg>