<svg xmlns="http://www.w3.org/2000/svg" width="300" height="300" viewBox="0 0 300 300">
<path d="M 125.0 122.0 L 125.0 122.0 L 126.0 122.0 L 127.0 123.0 L 132.0 123.0 L 141.0 123.0 L 155.0 123.0 L 167.0 121.0 L 175.0 119.0 L 176.0 119.0 " stroke="black" fill="none" stroke-width="5.0" stroke-linecap="round" stroke-linejoin="round" />
<path d="M 148.0 111.0 L 148.0 111.0 L 148.0 111.0 L 147.0 113.0 L 146.0 117.0 L 142.0 129.0 L 133.0 148.0 L 120.0 165.0 L 111.0 174.0 " stroke="black" fill="none" stroke-width="5.0" stroke-linecap="round" stroke-linejoin="round" />
<path d="M 136.0 146.0 L 136.0 146.0 L 135.0 147.0 L 135.0 150.0 L 135.0 159.0 L 134.0 172.0 L 134.0 183.0 L 134.0 189.0 " stroke="black" fill="none" stroke-width="5.0" stroke-linecap="round" stroke-linejoin="round" />
<path d="M 141.0 141.0 L 141.0 141.0 L 142.0 141.0 L 143.0 141.0 L 146.0 141.0 L 152.0 141.0 L 158.0 140.0 L 164.0 139.0 L 167.0 139.0 L 170.0 143.0 L 172.0 152.0 L 175.0 165.0 L 178.0 178.0 L 180.0 187.0 L 180.0 193.0 L 180.0 195.0 L 176.0 197.0 L 168.0 197.0 L 163.0 197.0 " stroke="black" fill="none" stroke-width="5.0" stroke-linecap="round" stroke-linejoin="round" />
<path d="M 142.0 155.0 L 142.0 155.0 L 142.0 155.0 L 144.0 155.0 L 150.0 155.0 L 159.0 156.0 L 166.0 156.0 L 168.0 157.0 " stroke="black" fill="none" stroke-width="5.0" stroke-linecap="round" stroke-linejoin="round" />
<path d="M 140.0 174.0 L 140.0 174.0 L 143.0 174.0 L 156.0 174.0 L 168.0 172.0 L 176.0 171.0 " stroke="black" fill="none" stroke-width="5.0" stroke-linecap="round" stroke-linejoin="round" />
</svg>