<svg xmlns="http://www.w3.org/2000/svg" width="300" height="300" viewBox="0 0 300 300">
<path d="M 126.0 122.0 L 126.0 122.0 L 126.0 122.0 L 126.0 122.0 L 131.0 124.0 L 142.0 124.0 L 153.0 122.0 L 163.0 121.0 L 168.0 120.0 " stroke="black" fill="none" stroke-width="5.0" stroke-linecap="round" stroke-linejoin="round" />
<path d="M 148.0 105.0 L 148.0 106.0 L 148.0 109.0 L 147.0 114.0 L 142.0 124.0 L 135.0 138.0 L 124.0 152.0 L 115.0 162.0 L 113.0 164.0 " stroke="black" fill="none" stroke-width="5.0" stroke-linecap="round" stroke-linejoin="round" />
<path d="M 135.0 146.0 L 135.0 146.0 L 134.0 146.0 L 134.0 146.0 L 133.0 151.0 L 133.0 161.0 L 131.0 176.0 L 131.0 187.0 L 131.0 190.0 " stroke="black" fill="none" stroke-width="5.0" stroke-linecap="round" stroke-linejoin="round" />
<path d="M 139.0 141.0 L 138.0 141.0 L 138.0 141.0 L 137.0 141.0 L 140.0 141.0 L 145.0 141.0 L 153.0 140.0 L 160.0 138.0 L 165.0 138.0 L 168.0 138.0 L 169.0 138.0 L 169.0 142.0 L 171.0 149.0 L 173.0 159.0 L 176.0 170.0 L 178.0 181.0 L 178.0 188.0 L 178.0 192.0 L 177.0 193.0 L 174.0 194.0 L 168.0 193.0 L 161.0 191.0 L 158.0 189.0 " stroke="black" fill="none" stroke-width="5.0" stroke-linecap="round" stroke-linejoin="round" />
<path d="M 138.0 157.0 L 138.0 157.0 L 138.0 157.0 L 138.0 157.0 L 139.0 157.0 L 145.0 157.0 L 154.0 157.0 L 163.0 157.0 L 169.0 158.0 L 170.0 159.0 " stroke="black" fill="none" stroke-width="5.0" stroke-linecap="round" stroke-linejoin="round" />
<path d="M 135.0 173.0 L 135.0 173.0 L 135.0 173.0 L 136.0 173.0 L 140.0 173.0 L 149.0 173.0 L 160.0 173.0 L 165.0 173.0 " stroke="black" fill="none" stroke-width="5.0" stroke-linecap="round" stroke-linejoin="round" />
</svg>