<svg xmlns="http://www.w3.org/2000/svg" width="300" height="300" viewBox="0 0 300 300">
<path d="M 116.0 111.0 L 116.0 111.0 L 116.0 111.0 L 116.0 112.0 L 115.0 114.0 L 114.0 118.0 L 113.0 123.0 L 113.0 127.0 L 115.0 129.0 L 121.0 129.0 L 129.0 129.0 L 132.0 129.0 " stroke="black" fill="none" stroke-width="5.0" stroke-linecap="round" stroke-linejoin="round" />
<path d="M 132.0 110.0 L 132.0 110.0 L 132.0 110.0 L 131.0 111.0 L 131.0 114.0 L 131.0 123.0 L 132.0 142.0 L 132.0 162.0 L 133.0 178.0 L 133.0 189.0 L 134.0 192.0 L 134.0 193.0 L 134.0 191.0 " stroke="black" fill="none" stroke-width="5.0" stroke-linecap="round" stroke-linejoin="round" />
<path d="M 111.0 151.0 L 111.0 151.0 L 111.0 151.0 L 112.0 152.0 L 115.0 152.0 L 121.0 152.0 L 127.0 151.0 L 131.0 150.0 L 132.0 150.0 " stroke="black" fill="none" stroke-width="5.0" stroke-linecap="round" stroke-linejoin="round" />
<path d="M 111.0 153.0 L 111.0 153.0 L 111.0 153.0 L 111.0 155.0 L 110.0 162.0 L 109.0 175.0 L 108.0 189.0 L 107.0 195.0 L 107.0 195.0 " stroke="black" fill="none" stroke-width="5.0" stroke-linecap="round" stroke-linejoin="round" />
<path d="M 164.0 101.0 L 164.0 101.0 L 164.0 102.0 L 164.0 103.0 L 162.0 107.0 L 158.0 113.0 L 153.0 120.0 L 148.0 125.0 L 147.0 126.0 " stroke="black" fill="none" stroke-width="5.0" stroke-linecap="round" stroke-linejoin="round" />
<path d="M 160.0 110.0 L 160.0 110.0 L 160.0 110.0 L 161.0 110.0 L 161.0 110.0 L 164.0 111.0 L 168.0 113.0 L 172.0 115.0 L 174.0 117.0 L 175.0 120.0 L 174.0 125.0 L 170.0 131.0 L 164.0 138.0 L 158.0 143.0 L 156.0 144.0 " stroke="black" fill="none" stroke-width="5.0" stroke-linecap="round" stroke-linejoin="round" />
<path d="M 156.0 121.0 L 156.0 121.0 L 156.0 122.0 L 158.0 122.0 L 160.0 123.0 L 163.0 124.0 L 164.0 124.0 " stroke="black" fill="none" stroke-width="5.0" stroke-linecap="round" stroke-linejoin="round" />
<path d="M 151.0 131.0 L 152.0 132.0 L 153.0 132.0 L 155.0 133.0 L 159.0 133.0 L 162.0 133.0 " stroke="black" fill="none" stroke-width="5.0" stroke-linecap="round" stroke-linejoin="round" />
<path d="M 146.0 158.0 L 146.0 158.0 L 147.0 158.0 L 149.0 158.0 L 157.0 158.0 L 170.0 157.0 L 181.0 156.0 L 187.0 156.0 L 188.0 156.0 " stroke="black" fill="none" stroke-width="5.0" stroke-linecap="round" stroke-linejoin="round" />
<path d="M 168.0 141.0 L 168.0 140.0 L 168.0 139.0 L 168.0 139.0 L 169.0 139.0 L 170.0 146.0 L 173.0 159.0 L 176.0 176.0 L 178.0 190.0 L 179.0 197.0 L 179.0 200.0 L 177.0 200.0 L 172.0 199.0 L 164.0 194.0 " stroke="black" fill="none" stroke-width="5.0" stroke-linecap="round" stroke-linejoin="round" />
<path d="M 153.0 173.0 L 153.0 173.0 L 154.0 174.0 L 156.0 177.0 L 161.0 179.0 L 164.0 180.0 " stroke="black" fill="none" stroke-width="5.0" stroke-linecap="round" stroke-linejoin="round" />
</svg>