<svg xmlns="http://www.w3.org/2000/svg" width="300" height="300" viewBox="0 0 300 300">
<path d="M 122.0 112.0 L 122.0 112.0 L 123.0 112.0 L 123.0 112.0 L 123.0 113.0 L 124.0 114.0 L 124.0 116.0 L 123.0 119.0 L 123.0 122.0 L 124.0 125.0 L 128.0 126.0 L 133.0 127.0 L 137.0 127.0 " stroke="black" fill="none" stroke-width="5.0" stroke-linecap="round" stroke-linejoin="round" />
<path d="M 138.0 110.0 L 138.0 110.0 L 137.0 109.0 L 137.0 109.0 L 137.0 109.0 L 137.0 116.0 L 138.0 129.0 L 140.0 147.0 L 141.0 163.0 L 143.0 175.0 L 145.0 181.0 L 145.0 184.0 L 145.0 183.0 L 145.0 183.0 " stroke="black" fill="none" stroke-width="5.0" stroke-linecap="round" stroke-linejoin="round" />
<path d="M 118.0 150.0 L 118.0 150.0 L 118.0 150.0 L 119.0 150.0 L 123.0 150.0 L 130.0 150.0 L 136.0 149.0 L 139.0 149.0 " stroke="black" fill="none" stroke-width="5.0" stroke-linecap="round" stroke-linejoin="round" />
<path d="M 118.0 152.0 L 118.0 152.0 L 118.0 153.0 L 117.0 157.0 L 116.0 166.0 L 114.0 177.0 L 113.0 183.0 L 113.0 185.0 " stroke="black" fill="none" stroke-width="5.0" stroke-linecap="round" stroke-linejoin="round" />
<path d="M 167.0 104.0 L 168.0 104.0 L 168.0 104.0 L 168.0 105.0 L 167.0 107.0 L 164.0 111.0 L 159.0 116.0 L 154.0 122.0 L 149.0 125.0 L 149.0 125.0 " stroke="black" fill="none" stroke-width="5.0" stroke-linecap="round" stroke-linejoin="round" />
<path d="M 161.0 111.0 L 161.0 111.0 L 162.0 112.0 L 164.0 112.0 L 166.0 113.0 L 169.0 114.0 L 172.0 115.0 L 174.0 116.0 L 174.0 118.0 L 174.0 121.0 L 171.0 126.0 L 165.0 133.0 L 160.0 139.0 L 156.0 142.0 L 155.0 143.0 " stroke="black" fill="none" stroke-width="5.0" stroke-linecap="round" stroke-linejoin="round" />
<path d="M 155.0 122.0 L 155.0 123.0 L 155.0 123.0 L 156.0 124.0 L 158.0 124.0 L 160.0 124.0 L 161.0 124.0 " stroke="black" fill="none" stroke-width="5.0" stroke-linecap="round" stroke-linejoin="round" />
<path d="M 149.0 133.0 L 149.0 133.0 L 149.0 133.0 L 149.0 133.0 L 150.0 133.0 L 153.0 133.0 L 156.0 133.0 " stroke="black" fill="none" stroke-width="5.0" stroke-linecap="round" stroke-linejoin="round" />
<path d="M 155.0 153.0 L 155.0 153.0 L 155.0 153.0 L 156.0 153.0 L 157.0 154.0 L 162.0 154.0 L 170.0 154.0 L 180.0 154.0 L 187.0 152.0 L 190.0 151.0 L 190.0 151.0 L 189.0 151.0 " stroke="black" fill="none" stroke-width="5.0" stroke-linecap="round" stroke-linejoin="round" />
<path d="M 171.0 137.0 L 171.0 137.0 L 171.0 137.0 L 171.0 140.0 L 174.0 149.0 L 178.0 164.0 L 180.0 177.0 L 181.0 187.0 L 181.0 192.0 L 181.0 193.0 L 179.0 193.0 L 175.0 192.0 L 169.0 188.0 " stroke="black" fill="none" stroke-width="5.0" stroke-linecap="round" stroke-linejoin="round" />
<path d="M 156.0 169.0 L 157.0 169.0 L 158.0 170.0 L 159.0 171.0 L 163.0 172.0 L 169.0 174.0 " stroke="black" fill="none" stroke-width="5.0" stroke-linecap="round" stroke-linejoin="round" />
</svg>