<svg xmlns="http://www.w3.org/2000/svg" width="300" height="300" viewBox="0 0 300 300">
<path d="M 118.0 114.0 L 118.0 114.0 L 118.0 114.0 L 118.0 114.0 L 119.0 115.0 L 119.0 118.0 L 119.0 123.0 L 119.0 128.0 L 119.0 132.0 L 119.0 134.0 L 122.0 134.0 L 127.0 134.0 L 133.0 133.0 L 135.0 133.0 " stroke="black" fill="none" stroke-width="5.0" stroke-linecap="round" stroke-linejoin="round" />
<path d="M 139.0 114.0 L 139.0 114.0 L 139.0 114.0 L 139.0 114.0 L 139.0 114.0 L 140.0 123.0 L 141.0 144.0 L 143.0 166.0 L 144.0 179.0 L 145.0 185.0 L 145.0 186.0 " stroke="black" fill="none" stroke-width="5.0" stroke-linecap="round" stroke-linejoin="round" />
<path d="M 119.0 153.0 L 119.0 153.0 L 119.0 153.0 L 120.0 153.0 L 121.0 153.0 L 125.0 153.0 L 131.0 153.0 L 137.0 153.0 L 138.0 153.0 " stroke="black" fill="none" stroke-width="5.0" stroke-linecap="round" stroke-linejoin="round" />
<path d="M 119.0 153.0 L 119.0 153.0 L 119.0 154.0 L 119.0 157.0 L 118.0 168.0 L 115.0 183.0 L 114.0 188.0 " stroke="black" fill="none" stroke-width="5.0" stroke-linecap="round" stroke-linejoin="round" />
<path d="M 172.0 104.0 L 172.0 104.0 L 172.0 104.0 L 172.0 104.0 L 172.0 104.0 L 172.0 104.0 L 169.0 107.0 L 162.0 114.0 L 154.0 123.0 L 153.0 124.0 " stroke="black" fill="none" stroke-width="5.0" stroke-linecap="round" stroke-linejoin="round" />
<path d="M 165.0 111.0 L 165.0 111.0 L 165.0 111.0 L 166.0 111.0 L 168.0 111.0 L 172.0 111.0 L 175.0 112.0 L 178.0 114.0 L 178.0 118.0 L 178.0 122.0 L 173.0 129.0 L 166.0 137.0 L 158.0 145.0 L 156.0 147.0 " stroke="black" fill="none" stroke-width="5.0" stroke-linecap="round" stroke-linejoin="round" />
<path d="M 160.0 121.0 L 160.0 121.0 L 161.0 122.0 L 162.0 123.0 L 164.0 123.0 L 167.0 124.0 L 168.0 124.0 " stroke="black" fill="none" stroke-width="5.0" stroke-linecap="round" stroke-linejoin="round" />
<path d="M 154.0 131.0 L 154.0 131.0 L 154.0 131.0 L 156.0 132.0 L 161.0 132.0 L 167.0 132.0 " stroke="black" fill="none" stroke-width="5.0" stroke-linecap="round" stroke-linejoin="round" />
<path d="M 149.0 157.0 L 149.0 158.0 L 149.0 158.0 L 149.0 159.0 L 152.0 159.0 L 162.0 159.0 L 175.0 158.0 L 185.0 158.0 L 191.0 158.0 L 193.0 158.0 " stroke="black" fill="none" stroke-width="5.0" stroke-linecap="round" stroke-linejoin="round" />
<path d="M 170.0 133.0 L 171.0 133.0 L 171.0 133.0 L 171.0 133.0 L 173.0 137.0 L 177.0 149.0 L 181.0 165.0 L 184.0 179.0 L 186.0 187.0 L 186.0 189.0 L 186.0 189.0 L 186.0 188.0 L 181.0 188.0 L 173.0 188.0 L 167.0 188.0 " stroke="black" fill="none" stroke-width="5.0" stroke-linecap="round" stroke-linejoin="round" />
<path d="M 160.0 169.0 L 161.0 170.0 L 162.0 171.0 L 164.0 173.0 L 167.0 175.0 L 170.0 176.0 " stroke="black" fill="none" stroke-width="5.0" stroke-linecap="round" stroke-linejoin="round" />
</svg>