<svg xmlns="http://www.w3.org/2000/svg" width="300" height="300" viewBox="0 0 300 300">
<path d="M 118.0 115.0 L 118.0 115.0 L 118.0 115.0 L 118.0 116.0 L 118.0 116.0 L 117.0 119.0 L 116.0 123.0 L 115.0 128.0 L 115.0 132.0 L 117.0 135.0 L 121.0 135.0 L 127.0 135.0 " stroke="black" fill="none" stroke-width="5.0" stroke-linecap="round" stroke-linejoin="round" />
<path d="M 132.0 116.0 L 132.0 116.0 L 131.0 116.0 L 131.0 116.0 L 131.0 118.0 L 131.0 128.0 L 132.0 147.0 L 133.0 167.0 L 134.0 181.0 L 135.0 188.0 L 135.0 188.0 L 135.0 188.0 " stroke="black" fill="none" stroke-width="5.0" stroke-linecap="round" stroke-linejoin="round" />
<path d="M 110.0 152.0 L 111.0 152.0 L 111.0 152.0 L 113.0 152.0 L 116.0 152.0 L 121.0 152.0 L 128.0 152.0 L 130.0 151.0 " stroke="black" fill="none" stroke-width="5.0" stroke-linecap="round" stroke-linejoin="round" />
<path d="M 113.0 155.0 L 113.0 155.0 L 113.0 155.0 L 113.0 156.0 L 113.0 161.0 L 113.0 172.0 L 112.0 183.0 L 112.0 185.0 " stroke="black" fill="none" stroke-width="5.0" stroke-linecap="round" stroke-linejoin="round" />
<path d="M 159.0 109.0 L 159.0 109.0 L 159.0 109.0 L 159.0 109.0 L 159.0 110.0 L 157.0 114.0 L 153.0 122.0 L 147.0 132.0 L 144.0 137.0 " stroke="black" fill="none" stroke-width="5.0" stroke-linecap="round" stroke-linejoin="round" />
<path d="M 156.0 116.0 L 157.0 116.0 L 157.0 116.0 L 158.0 116.0 L 160.0 117.0 L 163.0 117.0 L 165.0 119.0 L 167.0 121.0 L 168.0 125.0 L 166.0 131.0 L 161.0 141.0 L 156.0 149.0 L 155.0 150.0 " stroke="black" fill="none" stroke-width="5.0" stroke-linecap="round" stroke-linejoin="round" />
<path d="M 152.0 126.0 L 152.0 126.0 L 152.0 126.0 L 152.0 126.0 L 153.0 126.0 L 156.0 127.0 L 159.0 128.0 L 160.0 131.0 " stroke="black" fill="none" stroke-width="5.0" stroke-linecap="round" stroke-linejoin="round" />
<path d="M 149.0 137.0 L 149.0 137.0 L 149.0 137.0 L 150.0 137.0 L 154.0 137.0 L 157.0 137.0 " stroke="black" fill="none" stroke-width="5.0" stroke-linecap="round" stroke-linejoin="round" />
<path d="M 145.0 161.0 L 145.0 161.0 L 145.0 161.0 L 144.0 161.0 L 144.0 161.0 L 149.0 162.0 L 160.0 162.0 L 174.0 161.0 L 185.0 161.0 L 189.0 161.0 L 190.0 161.0 " stroke="black" fill="none" stroke-width="5.0" stroke-linecap="round" stroke-linejoin="round" />
<path d="M 166.0 142.0 L 166.0 141.0 L 166.0 140.0 L 166.0 140.0 L 167.0 142.0 L 169.0 153.0 L 172.0 169.0 L 175.0 184.0 L 176.0 192.0 L 176.0 196.0 L 176.0 197.0 L 173.0 197.0 L 168.0 197.0 L 160.0 196.0 " stroke="black" fill="none" stroke-width="5.0" stroke-linecap="round" stroke-linejoin="round" />
<path d="M 150.0 177.0 L 150.0 177.0 L 150.0 177.0 L 152.0 177.0 L 157.0 178.0 L 166.0 179.0 " stroke="black" fill="none" stroke-width="5.0" stroke-linecap="round" stroke-linejoin="round" />
</svg>