<svg xmlns="http://www.w3.org/2000/svg" width="300" height="300" viewBox="0 0 300 300">
<path d="M 132.0 112.0 L 132.0 112.0 L 132.0 112.0 L 132.0 112.0 L 132.0 112.0 L 132.0 113.0 L 132.0 118.0 L 132.0 126.0 L 133.0 133.0 L 134.0 134.0 " stroke="black" fill="none" stroke-width="5.0" stroke-linecap="round" stroke-linejoin="round" />
<path d="M 131.0 113.0 L 131.0 113.0 L 131.0 113.0 L 131.0 113.0 L 131.0 113.0 L 136.0 113.0 L 144.0 112.0 L 154.0 111.0 L 163.0 111.0 L 168.0 111.0 L 170.0 112.0 L 170.0 115.0 L 170.0 121.0 L 170.0 128.0 L 170.0 134.0 L 170.0 138.0 L 170.0 139.0 " stroke="black" fill="none" stroke-width="5.0" stroke-linecap="round" stroke-linejoin="round" />
<path d="M 139.0 124.0 L 139.0 124.0 L 139.0 124.0 L 139.0 124.0 L 140.0 124.0 L 144.0 124.0 L 152.0 124.0 L 159.0 124.0 L 164.0 124.0 L 166.0 124.0 L 167.0 124.0 " stroke="black" fill="none" stroke-width="5.0" stroke-linecap="round" stroke-linejoin="round" />
<path d="M 132.0 140.0 L 137.0 140.0 L 138.0 140.0 L 142.0 140.0 L 149.0 140.0 L 156.0 140.0 L 163.0 140.0 L 167.0 140.0 L 167.0 140.0 " stroke="black" fill="none" stroke-width="5.0" stroke-linecap="round" stroke-linejoin="round" />
<path d="M 112.0 154.0 L 113.0 154.0 L 116.0 154.0 L 117.0 155.0 L 120.0 155.0 L 137.0 155.0 L 144.0 155.0 L 162.0 152.0 L 173.0 151.0 L 178.0 151.0 L 186.0 151.0 L 186.0 151.0 L 184.0 151.0 L 184.0 152.0 " stroke="black" fill="none" stroke-width="5.0" stroke-linecap="round" stroke-linejoin="round" />
<path d="M 145.0 161.0 L 145.0 164.0 L 145.0 163.0 L 145.0 162.0 L 145.0 165.0 L 146.0 173.0 L 147.0 183.0 L 148.0 190.0 L 149.0 192.0 " stroke="black" fill="none" stroke-width="5.0" stroke-linecap="round" stroke-linejoin="round" />
<path d="M 148.0 172.0 L 148.0 172.0 L 148.0 172.0 L 148.0 172.0 L 150.0 172.0 L 156.0 172.0 L 163.0 172.0 L 167.0 172.0 L 168.0 172.0 " stroke="black" fill="none" stroke-width="5.0" stroke-linecap="round" stroke-linejoin="round" />
<path d="M 127.0 169.0 L 127.0 169.0 L 127.0 169.0 L 127.0 170.0 L 126.0 174.0 L 123.0 182.0 L 120.0 190.0 L 118.0 196.0 " stroke="black" fill="none" stroke-width="5.0" stroke-linecap="round" stroke-linejoin="round" />
<path d="M 123.0 186.0 L 123.0 186.0 L 123.0 186.0 L 123.0 186.0 L 124.0 187.0 L 133.0 190.0 L 147.0 194.0 L 162.0 199.0 L 171.0 201.0 L 176.0 202.0 L 176.0 202.0 L 176.0 202.0 " stroke="black" fill="none" stroke-width="5.0" stroke-linecap="round" stroke-linejoin="round" />
</svg>