<svg xmlns="http://www.w3.org/2000/svg" width="300" height="300" viewBox="0 0 300 300">
<path d="M 126.0 128.0 L 126.0 128.0 L 126.0 129.0 L 126.0 129.0 L 126.0 130.0 L 126.0 132.0 L 123.0 135.0 L 119.0 139.0 L 116.0 144.0 L 115.0 147.0 L 114.0 149.0 L 117.0 150.0 L 120.0 150.0 L 121.0 150.0 " stroke="black" fill="none" stroke-width="5.0" stroke-linecap="round" stroke-linejoin="round" />
<path d="M 135.0 143.0 L 135.0 143.0 L 133.0 143.0 L 132.0 144.0 L 131.0 145.0 L 128.0 148.0 L 123.0 153.0 L 117.0 159.0 L 113.0 164.0 L 112.0 168.0 L 114.0 169.0 L 118.0 169.0 L 123.0 168.0 L 127.0 168.0 L 128.0 168.0 " stroke="black" fill="none" stroke-width="5.0" stroke-linecap="round" stroke-linejoin="round" />
<path d="M 135.0 162.0 L 135.0 162.0 L 135.0 162.0 L 135.0 163.0 L 135.0 167.0 L 136.0 173.0 L 137.0 177.0 " stroke="black" fill="none" stroke-width="5.0" stroke-linecap="round" stroke-linejoin="round" />
<path d="M 105.0 187.0 L 105.0 187.0 L 105.0 187.0 L 105.0 189.0 L 105.0 192.0 L 106.0 194.0 " stroke="black" fill="none" stroke-width="5.0" stroke-linecap="round" stroke-linejoin="round" />
<path d="M 115.0 186.0 L 115.0 186.0 L 116.0 186.0 L 116.0 187.0 L 117.0 189.0 L 117.0 192.0 " stroke="black" fill="none" stroke-width="5.0" stroke-linecap="round" stroke-linejoin="round" />
<path d="M 126.0 183.0 L 126.0 184.0 L 127.0 185.0 L 128.0 189.0 L 130.0 193.0 L 130.0 194.0 " stroke="black" fill="none" stroke-width="5.0" stroke-linecap="round" stroke-linejoin="round" />
<path d="M 159.0 127.0 L 159.0 127.0 L 159.0 127.0 L 159.0 128.0 L 158.0 129.0 L 157.0 131.0 L 154.0 133.0 L 151.0 137.0 L 149.0 138.0 " stroke="black" fill="none" stroke-width="5.0" stroke-linecap="round" stroke-linejoin="round" />
<path d="M 165.0 138.0 L 165.0 138.0 L 165.0 138.0 L 164.0 139.0 L 163.0 140.0 L 160.0 142.0 L 155.0 147.0 L 149.0 152.0 L 146.0 154.0 " stroke="black" fill="none" stroke-width="5.0" stroke-linecap="round" stroke-linejoin="round" />
<path d="M 157.0 150.0 L 157.0 150.0 L 158.0 150.0 L 158.0 151.0 L 158.0 155.0 L 158.0 163.0 L 158.0 176.0 L 158.0 189.0 L 158.0 196.0 L 158.0 198.0 " stroke="black" fill="none" stroke-width="5.0" stroke-linecap="round" stroke-linejoin="round" />
<path d="M 178.0 129.0 L 178.0 129.0 L 178.0 129.0 L 178.0 129.0 L 178.0 131.0 L 177.0 137.0 L 175.0 145.0 L 172.0 152.0 L 171.0 153.0 " stroke="black" fill="none" stroke-width="5.0" stroke-linecap="round" stroke-linejoin="round" />
<path d="M 178.0 143.0 L 178.0 143.0 L 180.0 143.0 L 183.0 144.0 L 186.0 146.0 L 187.0 146.0 " stroke="black" fill="none" stroke-width="5.0" stroke-linecap="round" stroke-linejoin="round" />
<path d="M 198.0 129.0 L 198.0 129.0 L 198.0 130.0 L 197.0 131.0 L 197.0 134.0 L 196.0 139.0 L 194.0 144.0 " stroke="black" fill="none" stroke-width="5.0" stroke-linecap="round" stroke-linejoin="round" />
<path d="M 197.0 141.0 L 197.0 141.0 L 199.0 142.0 L 202.0 143.0 L 205.0 144.0 L 206.0 144.0 " stroke="black" fill="none" stroke-width="5.0" stroke-linecap="round" stroke-linejoin="round" />
<path d="M 190.0 156.0 L 190.0 156.0 L 190.0 157.0 L 190.0 159.0 L 190.0 165.0 L 190.0 174.0 L 190.0 184.0 L 191.0 188.0 L 191.0 189.0 " stroke="black" fill="none" stroke-width="5.0" stroke-linecap="round" stroke-linejoin="round" />
<path d="M 191.0 171.0 L 191.0 171.0 L 192.0 171.0 L 193.0 170.0 L 196.0 170.0 L 199.0 169.0 L 202.0 169.0 L 202.0 169.0 " stroke="black" fill="none" stroke-width="5.0" stroke-linecap="round" stroke-linejoin="round" />
<path d="M 176.0 163.0 L 176.0 163.0 L 176.0 163.0 L 176.0 165.0 L 176.0 169.0 L 175.0 177.0 L 174.0 185.0 L 173.0 190.0 " stroke="black" fill="none" stroke-width="5.0" stroke-linecap="round" stroke-linejoin="round" />
<path d="M 175.0 180.0 L 175.0 180.0 L 177.0 180.0 L 180.0 182.0 L 186.0 186.0 L 194.0 191.0 L 201.0 196.0 L 204.0 199.0 L 205.0 200.0 L 205.0 200.0 " stroke="black" fill="none" stroke-width="5.0" stroke-linecap="round" stroke-linejoin="round" />
</svg>