<svg xmlns="http://www.w3.org/2000/svg" width="300" height="300" viewBox="0 0 300 300">
<path d="M 132.0 111.0 L 132.0 111.0 L 132.0 111.0 L 132.0 112.0 L 134.0 112.0 L 142.0 112.0 L 154.0 110.0 L 163.0 109.0 L 168.0 109.0 L 169.0 109.0 " stroke="black" fill="none" stroke-width="5.0" stroke-linecap="round" stroke-linejoin="round" />
<path d="M 130.0 138.0 L 130.0 138.0 L 129.0 138.0 L 129.0 139.0 L 129.0 145.0 L 129.0 156.0 L 130.0 170.0 L 130.0 183.0 L 131.0 188.0 L 132.0 189.0 " stroke="black" fill="none" stroke-width="5.0" stroke-linecap="round" stroke-linejoin="round" />
<path d="M 133.0 140.0 L 133.0 140.0 L 133.0 139.0 L 134.0 139.0 L 135.0 138.0 L 139.0 137.0 L 147.0 137.0 L 156.0 137.0 L 165.0 137.0 L 173.0 137.0 L 179.0 137.0 L 181.0 138.0 L 183.0 143.0 L 185.0 152.0 L 187.0 164.0 L 189.0 175.0 L 191.0 185.0 L 191.0 191.0 L 191.0 194.0 L 190.0 196.0 L 186.0 197.0 L 177.0 198.0 L 171.0 198.0 " stroke="black" fill="none" stroke-width="5.0" stroke-linecap="round" stroke-linejoin="round" />
<path d="M 140.0 124.0 L 140.0 124.0 L 140.0 124.0 L 140.0 124.0 L 139.0 125.0 L 139.0 125.0 L 139.0 125.0 L 137.0 128.0 L 134.0 132.0 " stroke="black" fill="none" stroke-width="5.0" stroke-linecap="round" stroke-linejoin="round" />
<path d="M 169.0 119.0 L 170.0 119.0 L 170.0 119.0 L 172.0 120.0 L 174.0 122.0 L 178.0 126.0 L 179.0 127.0 " stroke="black" fill="none" stroke-width="5.0" stroke-linecap="round" stroke-linejoin="round" />
<path d="M 153.0 116.0 L 153.0 116.0 L 153.0 116.0 L 153.0 116.0 L 153.0 116.0 L 153.0 118.0 L 154.0 131.0 L 156.0 154.0 L 158.0 175.0 L 158.0 188.0 L 159.0 193.0 L 159.0 194.0 L 158.0 194.0 " stroke="black" fill="none" stroke-width="5.0" stroke-linecap="round" stroke-linejoin="round" />
<path d="M 142.0 149.0 L 142.0 149.0 L 142.0 149.0 L 141.0 149.0 L 144.0 152.0 L 148.0 158.0 L 149.0 159.0 " stroke="black" fill="none" stroke-width="5.0" stroke-linecap="round" stroke-linejoin="round" />
<path d="M 152.0 150.0 L 151.0 150.0 L 149.0 152.0 L 147.0 154.0 L 145.0 157.0 L 142.0 161.0 " stroke="black" fill="none" stroke-width="5.0" stroke-linecap="round" stroke-linejoin="round" />
<path d="M 140.0 167.0 L 141.0 168.0 L 143.0 169.0 L 146.0 172.0 L 150.0 176.0 " stroke="black" fill="none" stroke-width="5.0" stroke-linecap="round" stroke-linejoin="round" />
<path d="M 151.0 170.0 L 150.0 171.0 L 147.0 173.0 L 145.0 174.0 L 142.0 177.0 L 139.0 179.0 " stroke="black" fill="none" stroke-width="5.0" stroke-linecap="round" stroke-linejoin="round" />
<path d="M 162.0 151.0 L 162.0 151.0 L 163.0 151.0 L 165.0 153.0 L 171.0 157.0 L 176.0 161.0 L 178.0 162.0 " stroke="black" fill="none" stroke-width="5.0" stroke-linecap="round" stroke-linejoin="round" />
<path d="M 180.0 152.0 L 179.0 152.0 L 178.0 152.0 L 178.0 152.0 L 176.0 153.0 L 174.0 157.0 L 169.0 162.0 " stroke="black" fill="none" stroke-width="5.0" stroke-linecap="round" stroke-linejoin="round" />
<path d="M 169.0 166.0 L 169.0 168.0 L 169.0 171.0 L 173.0 175.0 L 178.0 177.0 " stroke="black" fill="none" stroke-width="5.0" stroke-linecap="round" stroke-linejoin="round" />
<path d="M 184.0 172.0 L 183.0 173.0 L 180.0 174.0 L 177.0 177.0 L 172.0 182.0 L 168.0 186.0 " stroke="black" fill="none" stroke-width="5.0" stroke-linecap="round" stroke-linejoin="round" />
</svg>