<svg xmlns="http://www.w3.org/2000/svg" width="300" height="300" viewBox="0 0 300 300">
<path d="M 117.0 112.0 L 117.0 112.0 L 117.0 112.0 L 117.0 112.0 L 118.0 112.0 L 122.0 111.0 L 133.0 111.0 L 148.0 111.0 L 163.0 111.0 L 173.0 111.0 L 180.0 111.0 L 183.0 110.0 L 185.0 109.0 L 185.0 109.0 L 185.0 109.0 " stroke="black" fill="none" stroke-width="5.0" stroke-linecap="round" stroke-linejoin="round" />
<path d="M 141.0 116.0 L 141.0 116.0 L 141.0 116.0 L 141.0 116.0 L 140.0 116.0 L 140.0 116.0 L 140.0 121.0 L 140.0 135.0 L 140.0 154.0 L 140.0 169.0 L 140.0 175.0 L 140.0 175.0 L 140.0 175.0 " stroke="black" fill="none" stroke-width="5.0" stroke-linecap="round" stroke-linejoin="round" />
<path d="M 158.0 115.0 L 158.0 115.0 L 158.0 115.0 L 158.0 115.0 L 158.0 115.0 L 158.0 116.0 L 158.0 119.0 L 159.0 131.0 L 159.0 148.0 L 160.0 163.0 L 161.0 173.0 L 161.0 177.0 L 161.0 178.0 L 161.0 177.0 " stroke="black" fill="none" stroke-width="5.0" stroke-linecap="round" stroke-linejoin="round" />
<path d="M 138.0 178.0 L 138.0 178.0 L 138.0 178.0 L 138.0 178.0 L 140.0 178.0 L 146.0 178.0 L 153.0 178.0 L 159.0 178.0 L 161.0 178.0 " stroke="black" fill="none" stroke-width="5.0" stroke-linecap="round" stroke-linejoin="round" />
<path d="M 111.0 142.0 L 111.0 142.0 L 111.0 142.0 L 111.0 142.0 L 110.0 144.0 L 110.0 154.0 L 110.0 170.0 L 110.0 186.0 L 110.0 196.0 L 110.0 200.0 L 111.0 200.0 " stroke="black" fill="none" stroke-width="5.0" stroke-linecap="round" stroke-linejoin="round" />
<path d="M 112.0 144.0 L 114.0 144.0 L 117.0 144.0 L 122.0 144.0 L 132.0 142.0 L 145.0 142.0 L 159.0 141.0 L 172.0 141.0 L 183.0 141.0 L 190.0 141.0 L 194.0 142.0 L 195.0 144.0 L 196.0 149.0 L 197.0 157.0 L 199.0 169.0 L 201.0 183.0 L 202.0 194.0 L 202.0 201.0 L 203.0 205.0 L 203.0 206.0 L 203.0 206.0 L 203.0 205.0 " stroke="black" fill="none" stroke-width="5.0" stroke-linecap="round" stroke-linejoin="round" />
</svg>