<svg xmlns="http://www.w3.org/2000/svg" width="300" height="300" viewBox="0 0 300 300">
<path d="M 115.0 114.0 L 115.0 114.0 L 115.0 114.0 L 116.0 114.0 L 118.0 114.0 L 122.0 114.0 L 126.0 114.0 L 129.0 115.0 L 131.0 115.0 L 131.0 117.0 L 128.0 120.0 L 125.0 125.0 L 124.0 130.0 L 125.0 136.0 L 129.0 142.0 L 133.0 148.0 L 135.0 151.0 L 135.0 152.0 L 135.0 153.0 L 131.0 153.0 L 126.0 153.0 L 125.0 153.0 " stroke="black" fill="none" stroke-width="5.0" stroke-linecap="round" stroke-linejoin="round" />
<path d="M 112.0 114.0 L 111.0 114.0 L 110.0 114.0 L 110.0 117.0 L 110.0 132.0 L 112.0 158.0 L 113.0 181.0 L 113.0 196.0 L 113.0 202.0 L 114.0 202.0 L 114.0 202.0 " stroke="black" fill="none" stroke-width="5.0" stroke-linecap="round" stroke-linejoin="round" />
<path d="M 159.0 108.0 L 159.0 108.0 L 159.0 108.0 L 158.0 108.0 L 158.0 110.0 L 156.0 113.0 L 152.0 120.0 L 146.0 129.0 L 144.0 133.0 " stroke="black" fill="none" stroke-width="5.0" stroke-linecap="round" stroke-linejoin="round" />
<path d="M 160.0 108.0 L 160.0 108.0 L 160.0 108.0 L 164.0 110.0 L 172.0 116.0 L 179.0 121.0 L 184.0 125.0 " stroke="black" fill="none" stroke-width="5.0" stroke-linecap="round" stroke-linejoin="round" />
<path d="M 154.0 130.0 L 154.0 130.0 L 154.0 130.0 L 154.0 130.0 L 154.0 130.0 L 157.0 130.0 L 163.0 129.0 L 168.0 128.0 L 171.0 128.0 " stroke="black" fill="none" stroke-width="5.0" stroke-linecap="round" stroke-linejoin="round" />
<path d="M 151.0 147.0 L 152.0 147.0 L 153.0 147.0 L 155.0 147.0 L 160.0 146.0 L 165.0 145.0 L 169.0 145.0 L 171.0 144.0 L 172.0 144.0 L 171.0 146.0 L 167.0 152.0 L 160.0 159.0 L 156.0 164.0 " stroke="black" fill="none" stroke-width="5.0" stroke-linecap="round" stroke-linejoin="round" />
<path d="M 146.0 166.0 L 146.0 166.0 L 146.0 167.0 L 146.0 167.0 L 149.0 167.0 L 157.0 167.0 L 167.0 165.0 L 174.0 164.0 L 176.0 164.0 L 176.0 164.0 " stroke="black" fill="none" stroke-width="5.0" stroke-linecap="round" stroke-linejoin="round" />
<path d="M 139.0 179.0 L 139.0 179.0 L 140.0 180.0 L 142.0 180.0 L 149.0 180.0 L 161.0 178.0 L 174.0 176.0 L 180.0 175.0 L 181.0 175.0 " stroke="black" fill="none" stroke-width="5.0" stroke-linecap="round" stroke-linejoin="round" />
<path d="M 158.0 184.0 L 159.0 184.0 L 159.0 184.0 L 158.0 185.0 L 155.0 187.0 L 152.0 191.0 L 149.0 197.0 L 147.0 201.0 L 147.0 204.0 L 148.0 206.0 L 154.0 206.0 L 164.0 206.0 L 174.0 204.0 L 180.0 203.0 " stroke="black" fill="none" stroke-width="5.0" stroke-linecap="round" stroke-linejoin="round" />
<path d="M 176.0 195.0 L 177.0 196.0 L 179.0 198.0 L 182.0 203.0 L 186.0 210.0 L 189.0 216.0 " stroke="black" fill="none" stroke-width="5.0" stroke-linecap="round" stroke-linejoin="round" />
</svg>