<svg xmlns="http://www.w3.org/2000/svg" width="300" height="300" viewBox="0 0 300 300">
<path d="M 118.0 110.0 L 118.0 111.0 L 119.0 112.0 L 121.0 112.0 L 126.0 112.0 L 131.0 112.0 L 134.0 112.0 L 134.0 112.0 L 134.0 113.0 L 132.0 115.0 L 129.0 118.0 L 127.0 122.0 L 126.0 126.0 L 127.0 129.0 L 130.0 132.0 L 134.0 136.0 L 136.0 139.0 L 136.0 141.0 L 136.0 142.0 L 132.0 142.0 L 128.0 143.0 L 125.0 144.0 " stroke="black" fill="none" stroke-width="5.0" stroke-linecap="round" stroke-linejoin="round" />
<path d="M 113.0 116.0 L 113.0 116.0 L 113.0 116.0 L 112.0 117.0 L 111.0 120.0 L 112.0 130.0 L 114.0 150.0 L 115.0 175.0 L 115.0 192.0 L 115.0 199.0 L 115.0 200.0 " stroke="black" fill="none" stroke-width="5.0" stroke-linecap="round" stroke-linejoin="round" />
<path d="M 165.0 109.0 L 165.0 110.0 L 163.0 112.0 L 161.0 116.0 L 157.0 121.0 L 151.0 128.0 L 146.0 134.0 " stroke="black" fill="none" stroke-width="5.0" stroke-linecap="round" stroke-linejoin="round" />
<path d="M 167.0 109.0 L 167.0 109.0 L 167.0 109.0 L 168.0 109.0 L 170.0 110.0 L 175.0 114.0 L 182.0 120.0 L 187.0 124.0 L 188.0 125.0 " stroke="black" fill="none" stroke-width="5.0" stroke-linecap="round" stroke-linejoin="round" />
<path d="M 159.0 131.0 L 160.0 131.0 L 161.0 131.0 L 162.0 131.0 L 164.0 131.0 L 169.0 131.0 L 174.0 131.0 L 176.0 131.0 " stroke="black" fill="none" stroke-width="5.0" stroke-linecap="round" stroke-linejoin="round" />
<path d="M 156.0 143.0 L 157.0 143.0 L 158.0 143.0 L 161.0 143.0 L 165.0 143.0 L 169.0 143.0 L 173.0 143.0 L 174.0 144.0 L 174.0 147.0 L 170.0 151.0 L 167.0 156.0 L 165.0 158.0 " stroke="black" fill="none" stroke-width="5.0" stroke-linecap="round" stroke-linejoin="round" />
<path d="M 153.0 159.0 L 153.0 159.0 L 154.0 159.0 L 155.0 159.0 L 160.0 159.0 L 169.0 159.0 L 178.0 159.0 L 183.0 158.0 L 184.0 158.0 " stroke="black" fill="none" stroke-width="5.0" stroke-linecap="round" stroke-linejoin="round" />
<path d="M 144.0 174.0 L 144.0 174.0 L 145.0 174.0 L 147.0 174.0 L 154.0 173.0 L 167.0 171.0 L 181.0 170.0 L 188.0 169.0 L 190.0 169.0 " stroke="black" fill="none" stroke-width="5.0" stroke-linecap="round" stroke-linejoin="round" />
<path d="M 162.0 175.0 L 162.0 175.0 L 162.0 176.0 L 161.0 178.0 L 159.0 180.0 L 157.0 183.0 L 153.0 188.0 L 150.0 192.0 L 150.0 195.0 L 151.0 196.0 L 159.0 196.0 L 169.0 196.0 L 180.0 195.0 L 186.0 195.0 " stroke="black" fill="none" stroke-width="5.0" stroke-linecap="round" stroke-linejoin="round" />
<path d="M 186.0 185.0 L 186.0 185.0 L 186.0 185.0 L 187.0 186.0 L 190.0 192.0 L 194.0 200.0 L 195.0 202.0 " stroke="black" fill="none" stroke-width="5.0" stroke-linecap="round" stroke-linejoin="round" />
</svg>