<svg xmlns="http://www.w3.org/2000/svg" width="300" height="300" viewBox="0 0 300 300">
<path d="M 120.0 101.0 L 120.0 101.0 L 120.0 101.0 L 120.0 101.0 L 121.0 101.0 L 126.0 101.0 L 132.0 101.0 L 138.0 101.0 L 140.0 101.0 " stroke="black" fill="none" stroke-width="5.0" stroke-linecap="round" stroke-linejoin="round" />
<path d="M 121.0 116.0 L 122.0 117.0 L 122.0 117.0 L 124.0 117.0 L 127.0 117.0 L 132.0 117.0 L 138.0 117.0 L 140.0 117.0 " stroke="black" fill="none" stroke-width="5.0" stroke-linecap="round" stroke-linejoin="round" />
<path d="M 113.0 139.0 L 113.0 139.0 L 113.0 139.0 L 116.0 140.0 L 125.0 140.0 L 135.0 140.0 L 143.0 140.0 L 145.0 140.0 " stroke="black" fill="none" stroke-width="5.0" stroke-linecap="round" stroke-linejoin="round" />
<path d="M 133.0 108.0 L 133.0 108.0 L 132.0 108.0 L 132.0 111.0 L 132.0 118.0 L 133.0 127.0 L 133.0 129.0 " stroke="black" fill="none" stroke-width="5.0" stroke-linecap="round" stroke-linejoin="round" />
<path d="M 165.0 98.0 L 165.0 98.0 L 165.0 98.0 L 164.0 99.0 L 163.0 100.0 L 161.0 101.0 L 159.0 103.0 L 157.0 105.0 L 156.0 108.0 L 156.0 113.0 L 156.0 119.0 L 157.0 127.0 L 157.0 133.0 L 158.0 136.0 L 158.0 137.0 " stroke="black" fill="none" stroke-width="5.0" stroke-linecap="round" stroke-linejoin="round" />
<path d="M 158.0 108.0 L 158.0 108.0 L 158.0 108.0 L 159.0 108.0 L 163.0 108.0 L 168.0 108.0 L 173.0 109.0 L 177.0 109.0 L 180.0 111.0 L 183.0 115.0 L 184.0 122.0 L 185.0 130.0 L 186.0 137.0 L 186.0 141.0 L 186.0 141.0 L 185.0 141.0 " stroke="black" fill="none" stroke-width="5.0" stroke-linecap="round" stroke-linejoin="round" />
<path d="M 160.0 125.0 L 160.0 125.0 L 160.0 125.0 L 161.0 125.0 L 167.0 125.0 L 174.0 125.0 L 181.0 124.0 L 184.0 124.0 L 185.0 124.0 L 185.0 124.0 " stroke="black" fill="none" stroke-width="5.0" stroke-linecap="round" stroke-linejoin="round" />
<path d="M 158.0 142.0 L 160.0 142.0 L 164.0 142.0 L 170.0 142.0 L 179.0 142.0 L 182.0 142.0 " stroke="black" fill="none" stroke-width="5.0" stroke-linecap="round" stroke-linejoin="round" />
<path d="M 117.0 158.0 L 117.0 158.0 L 117.0 158.0 L 117.0 159.0 L 123.0 159.0 L 137.0 159.0 L 155.0 159.0 L 171.0 159.0 L 181.0 158.0 L 185.0 158.0 L 185.0 158.0 L 185.0 158.0 L 184.0 158.0 " stroke="black" fill="none" stroke-width="5.0" stroke-linecap="round" stroke-linejoin="round" />
<path d="M 146.0 160.0 L 145.0 160.0 L 144.0 160.0 L 143.0 161.0 L 141.0 162.0 L 137.0 166.0 L 130.0 173.0 L 122.0 181.0 L 116.0 187.0 L 114.0 189.0 " stroke="black" fill="none" stroke-width="5.0" stroke-linecap="round" stroke-linejoin="round" />
<path d="M 133.0 181.0 L 133.0 181.0 L 133.0 181.0 L 133.0 182.0 L 133.0 188.0 L 134.0 196.0 L 136.0 202.0 L 136.0 203.0 " stroke="black" fill="none" stroke-width="5.0" stroke-linecap="round" stroke-linejoin="round" />
<path d="M 137.0 179.0 L 137.0 179.0 L 137.0 178.0 L 140.0 178.0 L 147.0 178.0 L 157.0 177.0 L 165.0 177.0 L 172.0 178.0 L 176.0 183.0 L 178.0 189.0 L 179.0 193.0 L 179.0 196.0 L 179.0 197.0 L 178.0 198.0 " stroke="black" fill="none" stroke-width="5.0" stroke-linecap="round" stroke-linejoin="round" />
<path d="M 140.0 204.0 L 140.0 204.0 L 140.0 204.0 L 140.0 205.0 L 141.0 205.0 L 147.0 206.0 L 159.0 206.0 L 174.0 207.0 L 181.0 207.0 L 183.0 207.0 L 183.0 206.0 " stroke="black" fill="none" stroke-width="5.0" stroke-linecap="round" stroke-linejoin="round" />
</svg>