<svg xmlns="http://www.w3.org/2000/svg" width="300" height="300" viewBox="0 0 300 300">
<path d="M 131.0 114.0 L 131.0 114.0 L 132.0 114.0 L 132.0 114.0 L 132.0 114.0 L 132.0 118.0 L 129.0 124.0 L 123.0 135.0 L 115.0 145.0 L 107.0 153.0 L 106.0 155.0 " stroke="black" fill="none" stroke-width="5.0" stroke-linecap="round" stroke-linejoin="round" />
<path d="M 126.0 137.0 L 126.0 136.0 L 126.0 136.0 L 126.0 135.0 L 126.0 135.0 L 126.0 135.0 L 126.0 135.0 L 127.0 135.0 L 130.0 135.0 L 133.0 136.0 L 136.0 138.0 L 138.0 139.0 L 140.0 140.0 L 140.0 142.0 L 140.0 146.0 L 136.0 153.0 L 129.0 163.0 L 121.0 172.0 L 114.0 179.0 L 111.0 181.0 " stroke="black" fill="none" stroke-width="5.0" stroke-linecap="round" stroke-linejoin="round" />
<path d="M 116.0 153.0 L 117.0 153.0 L 117.0 153.0 L 119.0 155.0 L 124.0 157.0 L 128.0 158.0 " stroke="black" fill="none" stroke-width="5.0" stroke-linecap="round" stroke-linejoin="round" />
<path d="M 154.0 114.0 L 154.0 114.0 L 154.0 113.0 L 155.0 113.0 L 155.0 113.0 L 155.0 121.0 L 157.0 135.0 L 159.0 156.0 L 160.0 174.0 L 161.0 186.0 L 161.0 189.0 L 161.0 189.0 " stroke="black" fill="none" stroke-width="5.0" stroke-linecap="round" stroke-linejoin="round" />
<path d="M 160.0 143.0 L 160.0 143.0 L 160.0 143.0 L 162.0 144.0 L 169.0 148.0 L 180.0 153.0 L 189.0 157.0 L 192.0 158.0 " stroke="black" fill="none" stroke-width="5.0" stroke-linecap="round" stroke-linejoin="round" />
</svg>