<svg xmlns="http://www.w3.org/2000/svg" width="300" height="300" viewBox="0 0 300 300">
<path d="M 122.0 143.0 L 122.0 142.0 L 122.0 142.0 L 122.0 141.0 L 122.0 141.0 L 122.0 143.0 L 123.0 151.0 L 125.0 162.0 L 128.0 174.0 L 130.0 180.0 L 133.0 180.0 L 136.0 177.0 L 140.0 170.0 L 144.0 161.0 L 149.0 154.0 L 151.0 149.0 L 152.0 147.0 L 152.0 146.0 L 152.0 146.0 L 153.0 149.0 L 156.0 156.0 L 160.0 165.0 L 165.0 174.0 L 170.0 178.0 L 173.0 179.0 L 176.0 174.0 L 179.0 165.0 L 180.0 155.0 L 182.0 146.0 L 183.0 141.0 L 184.0 140.0 L 184.0 140.0 L 184.0 141.0 " stroke="black" fill="none" stroke-width="5.0" stroke-linecap="round" stroke-linejoin="round" />
</svg>