<svg xmlns="http://www.w3.org/2000/svg" width="300" height="300" viewBox="0 0 300 300">
<path d="M 129.0 113.0 L 129.0 113.0 L 129.0 113.0 L 129.0 113.0 L 128.0 114.0 L 128.0 122.0 L 127.0 141.0 L 126.0 166.0 L 125.0 184.0 L 125.0 189.0 L 125.0 189.0 L 125.0 189.0 " stroke="black" fill="none" stroke-width="5.0" stroke-linecap="round" stroke-linejoin="round" />
<path d="M 136.0 110.0 L 136.0 110.0 L 136.0 110.0 L 138.0 110.0 L 144.0 111.0 L 154.0 115.0 L 164.0 119.0 L 174.0 126.0 L 180.0 133.0 L 183.0 141.0 L 183.0 149.0 L 180.0 157.0 L 174.0 166.0 L 166.0 176.0 L 155.0 185.0 L 143.0 191.0 L 130.0 192.0 L 124.0 191.0 " stroke="black" fill="none" stroke-width="5.0" stroke-linecap="round" stroke-linejoin="round" />
</svg>