<svg xmlns="http://www.w3.org/2000/svg" width="300" height="300" viewBox="0 0 300 300">
<path d="M 128.0 111.0 L 128.0 111.0 L 128.0 111.0 L 128.0 111.0 L 127.0 113.0 L 126.0 126.0 L 124.0 150.0 L 121.0 172.0 L 120.0 185.0 L 120.0 188.0 L 121.0 188.0 " stroke="black" fill="none" stroke-width="5.0" stroke-linecap="round" stroke-linejoin="round" />
<path d="M 133.0 107.0 L 133.0 107.0 L 133.0 107.0 L 133.0 107.0 L 138.0 107.0 L 148.0 110.0 L 159.0 115.0 L 168.0 122.0 L 171.0 131.0 L 170.0 137.0 L 166.0 143.0 L 161.0 147.0 L 154.0 149.0 L 146.0 150.0 L 137.0 150.0 L 132.0 150.0 L 129.0 150.0 L 129.0 150.0 L 132.0 150.0 L 138.0 149.0 L 147.0 149.0 L 155.0 152.0 L 164.0 157.0 L 172.0 164.0 L 176.0 171.0 L 177.0 178.0 L 175.0 184.0 L 170.0 190.0 L 162.0 196.0 L 153.0 200.0 L 144.0 202.0 L 133.0 202.0 L 122.0 198.0 L 118.0 196.0 " stroke="black" fill="none" stroke-width="5.0" stroke-linecap="round" stroke-linejoin="round" />
</svg>