<svg xmlns="http://www.w3.org/2000/svg" width="300" height="300" viewBox="0 0 300 300">
<path d="M 148.0 122.0 L 148.0 122.0 L 148.0 123.0 L 148.0 124.0 L 148.0 124.0 L 148.0 125.0 L 147.0 126.0 L 147.0 127.0 L 146.0 127.0 L 146.0 127.0 L 145.0 126.0 L 145.0 124.0 L 146.0 122.0 L 147.0 122.0 L 148.0 122.0 L 148.0 122.0 L 149.0 122.0 L 149.0 122.0 L 148.0 123.0 L 147.0 123.0 L 146.0 123.0 L 146.0 123.0 L 147.0 123.0 L 148.0 123.0 L 148.0 123.0 L 148.0 123.0 " stroke="black" fill="none" stroke-width="5.0" stroke-linecap="round" stroke-linejoin="round" />
<path d="M 112.0 152.0 L 112.0 152.0 L 112.0 152.0 L 113.0 152.0 L 120.0 152.0 L 133.0 152.0 L 148.0 152.0 L 161.0 153.0 L 171.0 153.0 L 177.0 153.0 L 179.0 153.0 L 179.0 153.0 L 176.0 154.0 " stroke="black" fill="none" stroke-width="5.0" stroke-linecap="round" stroke-linejoin="round" />
<path d="M 145.0 173.0 L 145.0 173.0 L 145.0 173.0 L 145.0 173.0 L 145.0 173.0 L 145.0 174.0 L 145.0 175.0 L 145.0 176.0 L 145.0 177.0 L 145.0 177.0 L 144.0 177.0 L 143.0 176.0 L 143.0 175.0 L 143.0 173.0 L 144.0 173.0 L 145.0 172.0 L 146.0 173.0 L 147.0 174.0 L 147.0 176.0 L 147.0 177.0 L 146.0 177.0 L 145.0 177.0 L 145.0 176.0 L 145.0 175.0 L 146.0 175.0 L 146.0 174.0 L 147.0 174.0 L 147.0 174.0 L 147.0 174.0 " stroke="black" fill="none" stroke-width="5.0" stroke-linecap="round" stroke-linejoin="round" />
</svg>