<svg xmlns="http://www.w3.org/2000/svg" width="300" height="300" viewBox="0 0 300 300">
<path d="M 125.0 117.0 L 125.0 117.0 L 125.0 117.0 L 124.0 118.0 L 123.0 119.0 L 123.0 121.0 L 123.0 125.0 L 123.0 131.0 L 126.0 135.0 L 131.0 137.0 L 137.0 137.0 L 142.0 133.0 L 144.0 127.0 L 144.0 122.0 L 143.0 118.0 L 139.0 116.0 L 135.0 116.0 L 131.0 116.0 L 129.0 116.0 L 128.0 116.0 " stroke="black" fill="none" stroke-width="5.0" stroke-linecap="round" stroke-linejoin="round" />
<path d="M 171.0 117.0 L 171.0 117.0 L 171.0 118.0 L 171.0 118.0 L 170.0 119.0 L 168.0 121.0 L 164.0 126.0 L 157.0 135.0 L 149.0 147.0 L 139.0 160.0 L 129.0 172.0 L 122.0 182.0 L 118.0 186.0 L 118.0 186.0 " stroke="black" fill="none" stroke-width="5.0" stroke-linecap="round" stroke-linejoin="round" />
<path d="M 159.0 170.0 L 159.0 170.0 L 159.0 170.0 L 159.0 170.0 L 159.0 170.0 L 159.0 172.0 L 159.0 175.0 L 160.0 180.0 L 163.0 184.0 L 169.0 185.0 L 175.0 184.0 L 180.0 180.0 L 183.0 175.0 L 183.0 170.0 L 181.0 167.0 L 177.0 165.0 L 171.0 165.0 L 166.0 167.0 L 165.0 167.0 " stroke="black" fill="none" stroke-width="5.0" stroke-linecap="round" stroke-linejoin="round" />
</svg>