<svg xmlns="http://www.w3.org/2000/svg" width="300" height="300" viewBox="0 0 300 300">
<path d="M 126.0 105.0 L 126.0 105.0 L 126.0 105.0 L 126.0 105.0 L 126.0 107.0 L 125.0 114.0 L 124.0 133.0 L 122.0 161.0 L 119.0 183.0 L 119.0 194.0 L 119.0 195.0 L 120.0 192.0 " stroke="black" fill="none" stroke-width="5.0" stroke-linecap="round" stroke-linejoin="round" />
<path d="M 131.0 106.0 L 131.0 106.0 L 131.0 105.0 L 132.0 105.0 L 136.0 104.0 L 146.0 104.0 L 159.0 108.0 L 171.0 114.0 L 176.0 120.0 L 178.0 127.0 L 176.0 134.0 L 172.0 140.0 L 165.0 146.0 L 155.0 150.0 L 143.0 152.0 L 129.0 152.0 L 126.0 152.0 " stroke="black" fill="none" stroke-width="5.0" stroke-linecap="round" stroke-linejoin="round" />
</svg>