<svg xmlns="http://www.w3.org/2000/svg" width="300" height="300" viewBox="0 0 300 300">
<path d="M 133.0 132.0 L 133.0 132.0 L 133.0 132.0 L 132.0 132.0 L 132.0 133.0 L 132.0 134.0 L 134.0 137.0 L 138.0 142.0 L 142.0 147.0 L 145.0 151.0 L 146.0 153.0 L 146.0 153.0 L 146.0 153.0 L 144.0 154.0 L 141.0 157.0 L 136.0 161.0 L 129.0 167.0 L 125.0 170.0 " stroke="black" fill="none" stroke-width="5.0" stroke-linecap="round" stroke-linejoin="round" />
<path d="M 149.0 131.0 L 149.0 131.0 L 149.0 131.0 L 149.0 131.0 L 149.0 132.0 L 151.0 134.0 L 155.0 140.0 L 159.0 146.0 L 163.0 151.0 L 165.0 154.0 L 165.0 155.0 L 165.0 156.0 L 164.0 158.0 L 161.0 162.0 L 157.0 166.0 L 151.0 171.0 L 149.0 173.0 " stroke="black" fill="none" stroke-width="5.0" stroke-linecap="round" stroke-linejoin="round" />
</svg>