<svg xmlns="http://www.w3.org/2000/svg" width="300" height="300" viewBox="0 0 300 300">
<path d="M 137.0 103.0 L 137.0 103.0 L 137.0 103.0 L 137.0 103.0 L 138.0 103.0 L 139.0 103.0 L 140.0 103.0 L 143.0 103.0 L 146.0 103.0 L 148.0 103.0 L 149.0 103.0 L 150.0 103.0 L 151.0 104.0 L 151.0 107.0 L 151.0 111.0 L 151.0 118.0 L 151.0 125.0 L 151.0 133.0 L 151.0 140.0 L 151.0 147.0 L 151.0 153.0 L 151.0 159.0 L 151.0 164.0 L 151.0 169.0 L 151.0 173.0 L 151.0 177.0 L 151.0 181.0 L 151.0 184.0 L 151.0 187.0 L 151.0 190.0 L 151.0 191.0 L 151.0 192.0 L 151.0 192.0 L 151.0 192.0 L 151.0 192.0 L 150.0 192.0 L 148.0 192.0 L 146.0 192.0 L 141.0 192.0 L 136.0 192.0 " stroke="black" fill="none" stroke-width="5.0" stroke-linecap="round" stroke-linejoin="round" />
</svg>