<svg xmlns="http://www.w3.org/2000/svg" width="300" height="300" viewBox="0 0 300 300">
<path d="M 157.0 137.0 L 157.0 137.0 L 157.0 137.0 L 157.0 137.0 L 157.0 137.0 L 157.0 136.0 L 155.0 133.0 L 152.0 130.0 L 149.0 128.0 L 145.0 128.0 L 141.0 129.0 L 137.0 132.0 L 133.0 138.0 L 131.0 145.0 L 130.0 155.0 L 131.0 165.0 L 133.0 171.0 L 137.0 172.0 L 143.0 172.0 L 149.0 169.0 L 154.0 163.0 L 158.0 158.0 L 161.0 152.0 L 162.0 147.0 L 162.0 142.0 L 162.0 138.0 L 162.0 135.0 L 162.0 134.0 L 162.0 134.0 L 161.0 135.0 L 161.0 139.0 L 161.0 146.0 L 162.0 156.0 L 167.0 167.0 L 173.0 175.0 L 180.0 177.0 " stroke="black" fill="none" stroke-width="5.0" stroke-linecap="round" stroke-linejoin="round" />
<path d="M 150.0 191.0 L 150.0 191.0 L 148.0 192.0 L 146.0 192.0 L 142.0 193.0 L 136.0 192.0 L 128.0 189.0 L 120.0 182.0 L 114.0 171.0 L 110.0 158.0 L 109.0 147.0 L 111.0 136.0 L 116.0 126.0 L 123.0 118.0 L 132.0 114.0 L 144.0 113.0 L 156.0 113.0 L 167.0 115.0 L 178.0 121.0 L 183.0 130.0 L 187.0 140.0 L 190.0 149.0 L 190.0 157.0 L 190.0 165.0 L 188.0 174.0 L 183.0 184.0 L 176.0 191.0 L 165.0 196.0 L 152.0 197.0 L 145.0 194.0 " stroke="black" fill="none" stroke-width="5.0" stroke-linecap="round" stroke-linejoin="round" />
</svg>