<svg xmlns="http://www.w3.org/2000/svg" width="300" height="300" viewBox="0 0 300 300">
<path d="M 167.0 108.0 L 167.0 108.0 L 167.0 108.0 L 167.0 108.0 L 166.0 110.0 L 166.0 115.0 L 166.0 130.0 L 165.0 156.0 L 164.0 178.0 L 164.0 191.0 L 164.0 193.0 L 164.0 192.0 L 164.0 191.0 L 163.0 188.0 L 161.0 183.0 L 159.0 178.0 L 157.0 172.0 L 154.0 166.0 L 151.0 161.0 L 147.0 157.0 L 142.0 156.0 L 137.0 156.0 L 133.0 157.0 L 131.0 159.0 L 129.0 162.0 L 128.0 169.0 L 128.0 180.0 L 132.0 191.0 L 137.0 198.0 L 144.0 200.0 L 152.0 199.0 L 155.0 196.0 " stroke="black" fill="none" stroke-width="5.0" stroke-linecap="round" stroke-linejoin="round" />
</svg>