<svg xmlns="http://www.w3.org/2000/svg" width="300" height="300" viewBox="0 0 300 300">
<path d="M 109.0 191.0 L 109.0 192.0 L 109.0 194.0 L 109.0 196.0 L 109.0 196.0 L 109.0 195.0 L 110.0 191.0 L 111.0 185.0 L 113.0 175.0 L 116.0 160.0 L 119.0 145.0 L 123.0 131.0 L 126.0 122.0 L 128.0 118.0 L 131.0 114.0 L 133.0 111.0 L 135.0 110.0 L 137.0 110.0 L 140.0 114.0 L 144.0 122.0 L 149.0 134.0 L 156.0 151.0 L 163.0 170.0 L 170.0 188.0 L 176.0 199.0 L 178.0 202.0 L 180.0 201.0 L 183.0 193.0 L 187.0 176.0 L 191.0 152.0 L 193.0 126.0 L 193.0 111.0 L 193.0 109.0 L 193.0 113.0 " stroke="black" fill="none" stroke-width="5.0" stroke-linecap="round" stroke-linejoin="round" />
</svg>