<svg xmlns="http://www.w3.org/2000/svg" width="300" height="300" viewBox="0 0 300 300">
<path d="M 149.0 114.0 L 149.0 114.0 L 149.0 113.0 L 148.0 113.0 L 146.0 113.0 L 142.0 113.0 L 137.0 118.0 L 129.0 127.0 L 123.0 141.0 L 120.0 155.0 L 122.0 168.0 L 128.0 179.0 L 139.0 185.0 L 151.0 187.0 L 162.0 186.0 L 171.0 180.0 L 178.0 171.0 L 181.0 160.0 L 181.0 148.0 L 180.0 136.0 L 177.0 125.0 L 173.0 118.0 L 167.0 112.0 L 161.0 109.0 L 154.0 110.0 L 148.0 113.0 L 145.0 115.0 " stroke="black" fill="none" stroke-width="5.0" stroke-linecap="round" stroke-linejoin="round" />
<path d="M 158.0 168.0 L 159.0 168.0 L 159.0 168.0 L 162.0 169.0 L 170.0 179.0 L 181.0 191.0 L 189.0 197.0 " stroke="black" fill="none" stroke-width="5.0" stroke-linecap="round" stroke-linejoin="round" />
</svg>