<svg xmlns="http://www.w3.org/2000/svg" width="300" height="300" viewBox="0 0 300 300">
<path d="M 129.0 114.0 L 129.0 114.0 L 130.0 114.0 L 135.0 113.0 L 144.0 111.0 L 153.0 109.0 L 157.0 108.0 " stroke="black" fill="none" stroke-width="5.0" stroke-linecap="round" stroke-linejoin="round" />
<path d="M 131.0 117.0 L 131.0 117.0 L 131.0 118.0 L 130.0 120.0 L 130.0 126.0 L 129.0 137.0 L 129.0 145.0 L 129.0 149.0 L 129.0 150.0 L 130.0 148.0 L 134.0 145.0 L 141.0 144.0 L 149.0 144.0 L 156.0 147.0 L 162.0 152.0 L 165.0 159.0 L 165.0 166.0 L 164.0 172.0 L 160.0 178.0 L 154.0 182.0 L 147.0 183.0 L 138.0 181.0 L 130.0 175.0 " stroke="black" fill="none" stroke-width="5.0" stroke-linecap="round" stroke-linejoin="round" />
</svg>