<svg xmlns="http://www.w3.org/2000/svg" width="300" height="300" viewBox="0 0 300 300">
<path d="M 154.0 141.0 L 154.0 141.0 L 154.0 141.0 L 154.0 140.0 L 154.0 139.0 L 154.0 137.0 L 154.0 135.0 L 152.0 132.0 L 148.0 130.0 L 142.0 129.0 L 136.0 130.0 L 131.0 135.0 L 128.0 142.0 L 127.0 155.0 L 129.0 169.0 L 133.0 178.0 L 140.0 179.0 L 148.0 176.0 L 154.0 167.0 L 157.0 157.0 L 159.0 149.0 L 159.0 143.0 L 159.0 140.0 L 159.0 139.0 L 159.0 139.0 L 160.0 142.0 L 164.0 151.0 L 171.0 161.0 L 179.0 169.0 L 182.0 170.0 " stroke="black" fill="none" stroke-width="5.0" stroke-linecap="round" stroke-linejoin="round" />
</svg>