<svg xmlns="http://www.w3.org/2000/svg" width="300" height="300" viewBox="0 0 300 300">
<path d="M 134.0 110.0 L 134.0 110.0 L 134.0 110.0 L 133.0 109.0 L 133.0 109.0 L 135.0 108.0 L 141.0 107.0 L 149.0 108.0 L 157.0 112.0 L 163.0 117.0 L 165.0 123.0 L 166.0 129.0 L 164.0 134.0 L 161.0 138.0 L 157.0 141.0 L 152.0 144.0 L 148.0 146.0 L 145.0 149.0 L 145.0 152.0 L 145.0 156.0 L 146.0 160.0 L 147.0 164.0 L 148.0 168.0 L 148.0 171.0 " stroke="black" fill="none" stroke-width="5.0" stroke-linecap="round" stroke-linejoin="round" />
<path d="M 146.0 186.0 L 146.0 186.0 L 146.0 187.0 L 146.0 188.0 L 147.0 190.0 " stroke="black" fill="none" stroke-width="5.0" stroke-linecap="round" stroke-linejoin="round" />
</svg>