<svg xmlns="http://www.w3.org/2000/svg" width="300" height="300" viewBox="0 0 300 300">
<path d="M 159.0 112.0 L 159.0 112.0 L 159.0 112.0 L 159.0 112.0 L 159.0 112.0 L 157.0 112.0 L 152.0 114.0 L 145.0 119.0 L 136.0 126.0 L 129.0 135.0 L 127.0 140.0 L 131.0 145.0 L 140.0 148.0 L 151.0 151.0 L 160.0 157.0 L 164.0 162.0 L 165.0 167.0 L 163.0 172.0 L 159.0 176.0 L 153.0 179.0 L 144.0 181.0 L 135.0 181.0 L 126.0 178.0 L 124.0 174.0 " stroke="black" fill="none" stroke-width="5.0" stroke-linecap="round" stroke-linejoin="round" />
<path d="M 145.0 102.0 L 145.0 102.0 L 144.0 102.0 L 144.0 105.0 L 144.0 118.0 L 146.0 144.0 L 147.0 171.0 L 147.0 194.0 L 147.0 208.0 L 147.0 212.0 L 147.0 213.0 L 146.0 210.0 " stroke="black" fill="none" stroke-width="5.0" stroke-linecap="round" stroke-linejoin="round" />
</svg>