<svg xmlns="http://www.w3.org/2000/svg" width="300" height="300" viewBox="0 0 300 300">
<path d="M 125.0 109.0 L 125.0 109.0 L 125.0 109.0 L 125.0 109.0 L 125.0 113.0 L 124.0 123.0 L 123.0 144.0 L 120.0 168.0 L 119.0 186.0 L 119.0 191.0 L 120.0 191.0 " stroke="black" fill="none" stroke-width="5.0" stroke-linecap="round" stroke-linejoin="round" />
<path d="M 132.0 107.0 L 132.0 107.0 L 132.0 107.0 L 132.0 107.0 L 132.0 107.0 L 138.0 107.0 L 148.0 109.0 L 158.0 115.0 L 167.0 122.0 L 171.0 128.0 L 171.0 133.0 L 170.0 137.0 L 165.0 141.0 L 158.0 145.0 L 149.0 149.0 L 138.0 152.0 L 128.0 153.0 L 122.0 153.0 L 119.0 153.0 L 119.0 153.0 L 123.0 153.0 L 132.0 157.0 L 141.0 161.0 L 152.0 167.0 L 162.0 174.0 L 172.0 181.0 L 178.0 186.0 L 179.0 188.0 L 180.0 188.0 L 180.0 188.0 " stroke="black" fill="none" stroke-width="5.0" stroke-linecap="round" stroke-linejoin="round" />
</svg>