<svg xmlns="http://www.w3.org/2000/svg" width="300" height="300" viewBox="0 0 300 300">
<path d="M 147.0 121.0 L 147.0 121.0 L 147.0 121.0 L 147.0 121.0 L 147.0 121.0 L 148.0 121.0 L 148.0 121.0 L 148.0 122.0 L 148.0 124.0 L 148.0 125.0 L 147.0 126.0 L 146.0 126.0 L 145.0 125.0 L 145.0 124.0 L 145.0 123.0 L 146.0 123.0 L 147.0 123.0 L 148.0 123.0 L 149.0 124.0 L 149.0 125.0 L 148.0 126.0 L 147.0 126.0 L 146.0 125.0 L 146.0 124.0 L 146.0 123.0 L 146.0 123.0 L 146.0 123.0 L 147.0 123.0 L 148.0 123.0 L 148.0 123.0 L 148.0 123.0 L 147.0 124.0 L 147.0 124.0 " stroke="black" fill="none" stroke-width="5.0" stroke-linecap="round" stroke-linejoin="round" />
<path d="M 149.0 175.0 L 149.0 175.0 L 149.0 175.0 L 149.0 175.0 L 149.0 175.0 L 149.0 175.0 L 149.0 176.0 L 148.0 176.0 L 148.0 176.0 L 147.0 176.0 L 146.0 176.0 L 145.0 174.0 L 145.0 172.0 L 146.0 171.0 L 148.0 171.0 L 150.0 172.0 L 150.0 174.0 L 151.0 176.0 L 150.0 177.0 L 148.0 177.0 L 146.0 177.0 L 145.0 177.0 L 145.0 175.0 L 145.0 173.0 L 147.0 172.0 L 149.0 172.0 L 150.0 173.0 L 151.0 175.0 L 151.0 177.0 L 151.0 178.0 " stroke="black" fill="none" stroke-width="5.0" stroke-linecap="round" stroke-linejoin="round" />
</svg>