<svg xmlns="http://www.w3.org/2000/svg" width="300" height="300" viewBox="0 0 300 300">
<path d="M 108.0 125.0 L 108.0 125.0 L 108.0 126.0 L 108.0 126.0 L 108.0 127.0 L 108.0 130.0 L 110.0 139.0 L 112.0 155.0 L 115.0 174.0 L 118.0 187.0 L 121.0 190.0 L 124.0 189.0 L 127.0 185.0 L 131.0 176.0 L 135.0 164.0 L 139.0 152.0 L 143.0 142.0 L 146.0 135.0 L 148.0 129.0 L 148.0 125.0 L 148.0 125.0 L 149.0 128.0 L 151.0 140.0 L 154.0 154.0 L 158.0 170.0 L 163.0 182.0 L 169.0 189.0 L 174.0 189.0 L 177.0 185.0 L 180.0 174.0 L 182.0 160.0 L 184.0 146.0 L 186.0 137.0 L 186.0 135.0 L 186.0 135.0 L 186.0 136.0 " stroke="black" fill="none" stroke-width="5.0" stroke-linecap="round" stroke-linejoin="round" />
</svg>