<svg xmlns="http://www.w3.org/2000/svg" width="300" height="300" viewBox="0 0 300 300">
<path d="M 150.0 195.0 L 150.0 195.0 L 150.0 195.0 L 150.0 193.0 L 151.0 184.0 L 151.0 164.0 L 151.0 141.0 L 151.0 127.0 L 151.0 124.0 " stroke="black" fill="none" stroke-width="5.0" stroke-linecap="round" stroke-linejoin="round" />
<path d="M 150.0 101.0 L 150.0 101.0 L 150.0 101.0 L 150.0 101.0 L 150.0 101.0 L 150.0 101.0 L 150.0 101.0 L 150.0 101.0 L 150.0 101.0 L 151.0 101.0 L 152.0 101.0 L 152.0 102.0 L 152.0 103.0 L 151.0 103.0 L 149.0 104.0 L 148.0 104.0 L 147.0 103.0 L 147.0 102.0 L 147.0 101.0 L 148.0 100.0 L 149.0 100.0 L 149.0 100.0 L 149.0 100.0 L 149.0 101.0 L 149.0 102.0 L 149.0 102.0 " stroke="black" fill="none" stroke-width="5.0" stroke-linecap="round" stroke-linejoin="round" />
</svg>