<svg xmlns="http://www.w3.org/2000/svg" width="300" height="300" viewBox="0 0 300 300">
<path d="M 119.0 128.0 L 119.0 128.0 L 120.0 128.0 L 120.0 128.0 L 125.0 128.0 L 137.0 128.0 L 153.0 128.0 L 167.0 128.0 L 176.0 128.0 L 179.0 128.0 L 179.0 128.0 " stroke="black" fill="none" stroke-width="5.0" stroke-linecap="round" stroke-linejoin="round" />
<path d="M 148.0 100.0 L 148.0 100.0 L 147.0 100.0 L 147.0 104.0 L 147.0 115.0 L 149.0 132.0 L 150.0 149.0 L 151.0 159.0 L 151.0 162.0 L 151.0 162.0 " stroke="black" fill="none" stroke-width="5.0" stroke-linecap="round" stroke-linejoin="round" />
<path d="M 116.0 187.0 L 116.0 187.0 L 116.0 187.0 L 116.0 187.0 L 117.0 188.0 L 125.0 188.0 L 143.0 189.0 L 161.0 189.0 L 175.0 189.0 L 183.0 188.0 L 186.0 188.0 L 186.0 188.0 L 186.0 188.0 " stroke="black" fill="none" stroke-width="5.0" stroke-linecap="round" stroke-linejoin="round" />
</svg>