<svg xmlns="http://www.w3.org/2000/svg" width="300" height="300" viewBox="0 0 300 300">
<path d="M 152.0 128.0 L 152.0 128.0 L 152.0 128.0 L 153.0 128.0 L 153.0 128.0 L 153.0 128.0 L 153.0 128.0 L 150.0 127.0 L 145.0 126.0 L 139.0 126.0 L 133.0 128.0 L 128.0 131.0 L 125.0 137.0 L 124.0 145.0 L 125.0 154.0 L 130.0 160.0 L 139.0 162.0 L 149.0 162.0 L 156.0 159.0 L 158.0 158.0 " stroke="black" fill="none" stroke-width="5.0" stroke-linecap="round" stroke-linejoin="round" />
<path d="M 159.0 117.0 L 159.0 117.0 L 159.0 117.0 L 159.0 117.0 L 160.0 120.0 L 160.0 135.0 L 161.0 161.0 L 161.0 184.0 L 161.0 199.0 L 162.0 205.0 L 162.0 207.0 L 162.0 206.0 L 162.0 205.0 " stroke="black" fill="none" stroke-width="5.0" stroke-linecap="round" stroke-linejoin="round" />
</svg>