<svg xmlns="http://www.w3.org/2000/svg" width="300" height="300" viewBox="0 0 300 300">
<path d="M 138.0 95.0 L 138.0 95.0 L 138.0 95.0 L 138.0 95.0 L 139.0 95.0 L 140.0 95.0 L 142.0 95.0 L 145.0 95.0 L 147.0 96.0 L 149.0 96.0 L 150.0 98.0 L 150.0 98.0 L 151.0 104.0 L 152.0 108.0 L 152.0 112.0 L 152.0 116.0 L 152.0 119.0 L 152.0 122.0 L 152.0 125.0 L 153.0 127.0 L 153.0 129.0 L 153.0 131.0 L 153.0 132.0 L 153.0 133.0 L 154.0 133.0 L 154.0 134.0 L 154.0 135.0 L 154.0 135.0 L 155.0 136.0 L 156.0 136.0 L 157.0 137.0 L 158.0 138.0 L 159.0 139.0 L 160.0 140.0 L 161.0 141.0 L 163.0 143.0 L 163.0 143.0 L 164.0 144.0 L 164.0 145.0 L 165.0 146.0 L 165.0 147.0 L 165.0 147.0 L 164.0 148.0 L 162.0 149.0 L 161.0 150.0 L 159.0 151.0 L 157.0 152.0 L 156.0 153.0 L 155.0 153.0 L 154.0 154.0 L 153.0 155.0 L 153.0 156.0 L 152.0 156.0 L 152.0 157.0 L 152.0 158.0 L 152.0 159.0 L 152.0 161.0 L 152.0 163.0 L 152.0 165.0 L 153.0 167.0 L 153.0 170.0 L 153.0 173.0 L 154.0 176.0 L 154.0 179.0 L 154.0 182.0 L 154.0 185.0 L 154.0 187.0 L 154.0 189.0 L 154.0 192.0 L 154.0 194.0 L 153.0 197.0 L 153.0 199.0 L 152.0 201.0 L 152.0 202.0 L 151.0 203.0 L 150.0 205.0 L 148.0 206.0 L 146.0 206.0 L 141.0 206.0 L 138.0 205.0 " stroke="black" fill="none" stroke-width="5.0" stroke-linecap="round" stroke-linejoin="round" />
</svg>