<svg xmlns="http://www.w3.org/2000/svg" width="300" height="300" viewBox="0 0 300 300">
<path d="M 142.0 111.0 L 142.0 111.0 L 142.0 111.0 L 142.0 111.0 L 142.0 111.0 L 143.0 111.0 L 148.0 111.0 L 155.0 110.0 L 162.0 109.0 L 165.0 109.0 " stroke="black" fill="none" stroke-width="5.0" stroke-linecap="round" stroke-linejoin="round" />
<path d="M 142.0 117.0 L 142.0 117.0 L 142.0 117.0 L 142.0 117.0 L 142.0 119.0 L 142.0 125.0 L 142.0 137.0 L 143.0 152.0 L 143.0 166.0 L 143.0 175.0 L 143.0 183.0 L 143.0 188.0 L 143.0 191.0 L 143.0 192.0 L 144.0 192.0 L 146.0 192.0 L 148.0 193.0 L 152.0 194.0 L 157.0 195.0 L 162.0 197.0 L 167.0 197.0 L 168.0 197.0 " stroke="black" fill="none" stroke-width="5.0" stroke-linecap="round" stroke-linejoin="round" />
</svg>