<svg xmlns="http://www.w3.org/2000/svg" width="300" height="300" viewBox="0 0 300 300">
<path d="M 132.0 113.0 L 132.0 113.0 L 132.0 113.0 L 132.0 113.0 L 136.0 113.0 L 146.0 112.0 L 158.0 111.0 L 167.0 111.0 L 173.0 111.0 L 174.0 112.0 L 174.0 115.0 L 170.0 120.0 L 166.0 129.0 L 160.0 141.0 L 153.0 153.0 L 147.0 163.0 L 140.0 172.0 L 133.0 182.0 L 127.0 188.0 L 124.0 192.0 L 124.0 192.0 L 124.0 192.0 L 129.0 192.0 L 138.0 192.0 L 148.0 192.0 L 159.0 192.0 L 170.0 190.0 L 178.0 187.0 L 182.0 187.0 L 182.0 187.0 " stroke="black" fill="none" stroke-width="5.0" stroke-linecap="round" stroke-linejoin="round" />
</svg>