<svg xmlns="http://www.w3.org/2000/svg" width="300" height="300" viewBox="0 0 300 300">
<path d="M 139.0 114.0 L 139.0 114.0 L 139.0 114.0 L 139.0 114.0 L 141.0 115.0 L 144.0 116.0 L 150.0 119.0 L 155.0 123.0 L 158.0 129.0 L 158.0 135.0 L 155.0 140.0 L 150.0 144.0 L 143.0 146.0 L 138.0 146.0 L 135.0 147.0 L 135.0 147.0 L 138.0 146.0 L 145.0 146.0 L 151.0 148.0 L 157.0 152.0 L 161.0 159.0 L 162.0 166.0 L 162.0 172.0 L 158.0 177.0 L 152.0 182.0 L 144.0 184.0 L 134.0 184.0 L 123.0 180.0 L 118.0 177.0 " stroke="black" fill="none" stroke-width="5.0" stroke-linecap="round" stroke-linejoin="round" />
</svg>