<svg xmlns="http://www.w3.org/2000/svg" width="300" height="300" viewBox="0 0 300 300">
<path d="M 151.0 93.0 L 151.0 94.0 L 151.0 95.0 L 151.0 98.0 L 151.0 102.0 L 151.0 108.0 L 151.0 111.0 " stroke="black" fill="none" stroke-width="5.0" stroke-linecap="round" stroke-linejoin="round" />
<path d="M 140.0 103.0 L 140.0 103.0 L 140.0 103.0 L 141.0 104.0 L 142.0 106.0 L 145.0 109.0 L 146.0 110.0 " stroke="black" fill="none" stroke-width="5.0" stroke-linecap="round" stroke-linejoin="round" />
<path d="M 163.0 104.0 L 163.0 104.0 L 162.0 104.0 L 162.0 104.0 L 161.0 105.0 L 159.0 106.0 L 156.0 109.0 L 152.0 112.0 L 150.0 113.0 " stroke="black" fill="none" stroke-width="5.0" stroke-linecap="round" stroke-linejoin="round" />
<path d="M 149.0 112.0 L 148.0 112.0 L 148.0 112.0 L 147.0 113.0 L 145.0 114.0 L 142.0 117.0 L 140.0 121.0 L 139.0 122.0 " stroke="black" fill="none" stroke-width="5.0" stroke-linecap="round" stroke-linejoin="round" />
<path d="M 151.0 113.0 L 151.0 113.0 L 151.0 113.0 L 152.0 114.0 L 155.0 116.0 L 160.0 121.0 L 164.0 126.0 L 165.0 127.0 " stroke="black" fill="none" stroke-width="5.0" stroke-linecap="round" stroke-linejoin="round" />
</svg>