<svg xmlns="http://www.w3.org/2000/svg" width="300" height="300" viewBox="0 0 300 300">
<path d="M 139.0 123.0 L 139.0 123.0 L 139.0 123.0 L 139.0 124.0 L 139.0 125.0 L 139.0 126.0 L 139.0 129.0 L 137.0 133.0 L 134.0 139.0 L 130.0 144.0 L 127.0 148.0 L 125.0 150.0 L 124.0 151.0 L 124.0 151.0 L 124.0 151.0 L 124.0 150.0 L 126.0 150.0 L 129.0 153.0 L 133.0 158.0 L 138.0 163.0 L 143.0 168.0 L 146.0 171.0 L 147.0 172.0 L 147.0 172.0 L 147.0 172.0 " stroke="black" fill="none" stroke-width="5.0" stroke-linecap="round" stroke-linejoin="round" />
<path d="M 156.0 126.0 L 157.0 126.0 L 157.0 126.0 L 157.0 126.0 L 157.0 127.0 L 158.0 128.0 L 157.0 131.0 L 155.0 136.0 L 152.0 143.0 L 150.0 148.0 L 148.0 150.0 L 148.0 151.0 L 148.0 151.0 L 148.0 151.0 L 148.0 150.0 L 148.0 150.0 L 148.0 150.0 L 150.0 150.0 L 152.0 151.0 L 155.0 154.0 L 160.0 159.0 L 165.0 165.0 L 169.0 169.0 L 170.0 171.0 L 170.0 171.0 " stroke="black" fill="none" stroke-width="5.0" stroke-linecap="round" stroke-linejoin="round" />
</svg>