<svg xmlns="http://www.w3.org/2000/svg" width="300" height="300" viewBox="0 0 300 300">
<path d="M 124.0 111.0 L 124.0 111.0 L 125.0 111.0 L 126.0 111.0 L 133.0 111.0 L 143.0 111.0 L 151.0 110.0 L 157.0 110.0 L 159.0 110.0 " stroke="black" fill="none" stroke-width="5.0" stroke-linecap="round" stroke-linejoin="round" />
<path d="M 118.0 118.0 L 118.0 118.0 L 118.0 118.0 L 118.0 119.0 L 118.0 120.0 L 118.0 125.0 L 118.0 137.0 L 118.0 153.0 L 117.0 169.0 L 116.0 183.0 L 115.0 192.0 L 115.0 197.0 L 116.0 198.0 L 120.0 198.0 L 127.0 200.0 L 137.0 201.0 L 147.0 202.0 L 155.0 202.0 L 159.0 202.0 " stroke="black" fill="none" stroke-width="5.0" stroke-linecap="round" stroke-linejoin="round" />
<path d="M 120.0 154.0 L 120.0 154.0 L 120.0 154.0 L 122.0 155.0 L 132.0 156.0 L 148.0 157.0 L 160.0 157.0 L 163.0 156.0 " stroke="black" fill="none" stroke-width="5.0" stroke-linecap="round" stroke-linejoin="round" />
</svg>