<svg xmlns="http://www.w3.org/2000/svg" width="300" height="300" viewBox="0 0 300 300">
<path d="M 145.0 117.0 L 145.0 117.0 L 145.0 117.0 L 145.0 117.0 L 145.0 117.0 L 145.0 117.0 L 145.0 118.0 L 145.0 119.0 L 145.0 120.0 L 145.0 121.0 L 144.0 121.0 L 144.0 120.0 L 144.0 119.0 L 144.0 118.0 L 146.0 118.0 L 148.0 118.0 L 149.0 119.0 L 149.0 120.0 L 149.0 122.0 L 148.0 122.0 L 147.0 122.0 L 147.0 122.0 L 146.0 122.0 L 146.0 122.0 L 146.0 122.0 " stroke="black" fill="none" stroke-width="5.0" stroke-linecap="round" stroke-linejoin="round" />
<path d="M 146.0 176.0 L 146.0 176.0 L 146.0 176.0 L 146.0 176.0 L 146.0 177.0 L 147.0 177.0 L 147.0 178.0 L 147.0 180.0 L 146.0 181.0 L 145.0 182.0 L 144.0 182.0 L 143.0 180.0 L 142.0 178.0 L 143.0 176.0 L 144.0 176.0 L 146.0 175.0 L 149.0 177.0 L 150.0 179.0 L 150.0 181.0 L 150.0 183.0 L 149.0 184.0 L 147.0 185.0 L 145.0 185.0 L 144.0 184.0 L 144.0 182.0 L 144.0 180.0 L 144.0 179.0 L 144.0 178.0 L 144.0 178.0 L 145.0 177.0 L 146.0 177.0 L 147.0 176.0 L 147.0 176.0 L 148.0 176.0 L 148.0 176.0 L 149.0 176.0 L 149.0 177.0 L 150.0 180.0 L 150.0 183.0 L 150.0 188.0 L 147.0 195.0 L 141.0 200.0 L 138.0 202.0 " stroke="black" fill="none" stroke-width="5.0" stroke-linecap="round" stroke-linejoin="round" />
</svg>