<svg xmlns="http://www.w3.org/2000/svg" width="300" height="300" viewBox="0 0 300 300">
<path d="M 149.0 195.0 L 149.0 195.0 L 149.0 195.0 L 149.0 195.0 L 149.0 195.0 L 149.0 195.0 L 149.0 195.0 L 149.0 195.0 L 149.0 196.0 L 149.0 196.0 L 148.0 197.0 L 147.0 197.0 L 146.0 197.0 L 146.0 196.0 L 146.0 195.0 L 148.0 194.0 L 150.0 194.0 L 152.0 194.0 L 153.0 196.0 L 153.0 198.0 L 153.0 200.0 L 151.0 201.0 L 148.0 201.0 L 145.0 199.0 L 144.0 198.0 L 143.0 197.0 L 143.0 196.0 L 145.0 195.0 L 148.0 195.0 L 150.0 195.0 L 151.0 196.0 L 151.0 197.0 L 151.0 198.0 L 151.0 199.0 L 150.0 199.0 L 150.0 199.0 L 150.0 199.0 L 150.0 198.0 L 150.0 197.0 " stroke="black" fill="none" stroke-width="5.0" stroke-linecap="round" stroke-linejoin="round" />
</svg>