<svg xmlns="http://www.w3.org/2000/svg" width="300" height="300" viewBox="0 0 300 300">
<path d="M 149.0 114.0 L 149.0 114.0 L 149.0 114.0 L 149.0 115.0 L 149.0 116.0 L 149.0 117.0 L 149.0 118.0 L 148.0 119.0 L 147.0 119.0 L 146.0 117.0 L 145.0 115.0 L 145.0 114.0 L 146.0 113.0 L 148.0 112.0 L 150.0 112.0 L 151.0 114.0 L 151.0 116.0 L 151.0 118.0 L 150.0 118.0 L 149.0 117.0 L 149.0 116.0 L 149.0 115.0 " stroke="black" fill="none" stroke-width="5.0" stroke-linecap="round" stroke-linejoin="round" />
<path d="M 150.0 136.0 L 150.0 136.0 L 150.0 136.0 L 150.0 137.0 L 150.0 139.0 L 150.0 146.0 L 152.0 158.0 L 152.0 172.0 L 151.0 184.0 L 148.0 191.0 L 144.0 194.0 L 139.0 195.0 L 133.0 193.0 L 127.0 184.0 " stroke="black" fill="none" stroke-width="5.0" stroke-linecap="round" stroke-linejoin="round" />
</svg>