<svg xmlns="http://www.w3.org/2000/svg" width="300" height="300" viewBox="0 0 300 300">
<path d="M 133.0 101.0 L 133.0 101.0 L 133.0 101.0 L 133.0 100.0 L 132.0 101.0 L 132.0 107.0 L 132.0 120.0 L 130.0 142.0 L 128.0 166.0 L 126.0 182.0 L 125.0 189.0 L 125.0 188.0 " stroke="black" fill="none" stroke-width="5.0" stroke-linecap="round" stroke-linejoin="round" />
<path d="M 167.0 119.0 L 167.0 120.0 L 168.0 121.0 L 168.0 122.0 L 167.0 124.0 L 163.0 129.0 L 156.0 137.0 L 147.0 146.0 L 139.0 151.0 L 133.0 154.0 L 131.0 154.0 L 131.0 154.0 L 131.0 154.0 L 132.0 155.0 L 134.0 156.0 L 137.0 158.0 L 141.0 161.0 L 148.0 168.0 L 157.0 178.0 L 168.0 188.0 L 176.0 194.0 L 179.0 197.0 L 180.0 198.0 L 180.0 198.0 L 179.0 197.0 " stroke="black" fill="none" stroke-width="5.0" stroke-linecap="round" stroke-linejoin="round" />
</svg>