<svg xmlns="http://www.w3.org/2000/svg" width="300" height="300" viewBox="0 0 300 300">
<path d="M 154.0 99.0 L 154.0 98.0 L 154.0 98.0 L 154.0 98.0 L 154.0 98.0 L 154.0 99.0 L 154.0 110.0 L 156.0 134.0 L 158.0 162.0 L 159.0 184.0 L 159.0 195.0 L 160.0 200.0 L 160.0 200.0 L 160.0 200.0 " stroke="black" fill="none" stroke-width="5.0" stroke-linecap="round" stroke-linejoin="round" />
<path d="M 150.0 100.0 L 150.0 100.0 L 150.0 100.0 L 150.0 100.0 L 150.0 100.0 L 150.0 100.0 L 148.0 100.0 L 145.0 101.0 L 140.0 102.0 L 134.0 105.0 L 128.0 109.0 L 122.0 114.0 L 119.0 118.0 L 119.0 124.0 L 121.0 133.0 L 126.0 141.0 L 133.0 146.0 L 141.0 148.0 L 148.0 148.0 L 151.0 147.0 " stroke="black" fill="none" stroke-width="5.0" stroke-linecap="round" stroke-linejoin="round" />
<path d="M 155.0 101.0 L 155.0 101.0 L 155.0 101.0 L 155.0 101.0 L 155.0 101.0 L 155.0 101.0 L 156.0 101.0 L 158.0 101.0 L 159.0 101.0 L 161.0 101.0 L 163.0 102.0 L 164.0 104.0 L 165.0 108.0 L 166.0 115.0 L 168.0 126.0 L 170.0 139.0 L 172.0 152.0 L 173.0 163.0 L 174.0 173.0 L 175.0 181.0 L 176.0 188.0 L 176.0 193.0 L 177.0 195.0 L 177.0 195.0 L 177.0 195.0 L 177.0 194.0 " stroke="black" fill="none" stroke-width="5.0" stroke-linecap="round" stroke-linejoin="round" />
<path d="M 123.0 117.0 L 123.0 117.0 L 123.0 117.0 L 123.0 117.0 L 123.0 118.0 L 123.0 119.0 L 123.0 122.0 L 123.0 126.0 L 124.0 132.0 L 124.0 136.0 L 125.0 138.0 L 125.0 138.0 L 125.0 136.0 L 125.0 131.0 L 126.0 126.0 L 126.0 123.0 L 126.0 120.0 L 126.0 119.0 L 126.0 119.0 L 126.0 119.0 L 126.0 122.0 L 127.0 128.0 L 128.0 133.0 L 128.0 137.0 L 129.0 138.0 L 129.0 139.0 L 129.0 135.0 L 129.0 129.0 L 129.0 123.0 L 129.0 119.0 L 129.0 117.0 L 129.0 117.0 L 129.0 117.0 L 130.0 121.0 L 131.0 127.0 L 132.0 134.0 L 133.0 139.0 L 133.0 141.0 L 133.0 141.0 L 133.0 138.0 L 133.0 132.0 L 133.0 125.0 L 132.0 120.0 L 132.0 116.0 L 132.0 115.0 L 132.0 115.0 L 132.0 116.0 L 133.0 122.0 L 135.0 130.0 L 136.0 137.0 L 137.0 142.0 L 137.0 144.0 L 137.0 143.0 L 137.0 136.0 L 137.0 127.0 L 137.0 120.0 L 137.0 114.0 L 137.0 113.0 L 137.0 113.0 L 138.0 119.0 L 140.0 127.0 L 141.0 135.0 L 141.0 142.0 L 142.0 144.0 L 142.0 144.0 L 142.0 138.0 L 142.0 130.0 L 142.0 122.0 L 142.0 114.0 L 142.0 110.0 L 142.0 108.0 L 142.0 109.0 L 143.0 116.0 L 145.0 125.0 L 146.0 133.0 L 146.0 140.0 L 147.0 142.0 L 147.0 142.0 L 147.0 137.0 L 147.0 128.0 L 147.0 120.0 L 147.0 113.0 L 147.0 110.0 L 147.0 109.0 L 147.0 109.0 L 147.0 111.0 L 148.0 117.0 L 148.0 126.0 L 149.0 135.0 L 149.0 141.0 L 149.0 141.0 L 149.0 139.0 L 149.0 131.0 L 149.0 123.0 L 149.0 116.0 L 149.0 111.0 L 149.0 110.0 L 149.0 110.0 L 149.0 113.0 L 149.0 118.0 L 150.0 124.0 L 150.0 129.0 L 150.0 132.0 L 150.0 133.0 L 149.0 133.0 " stroke="black" fill="none" stroke-width="5.0" stroke-linecap="round" stroke-linejoin="round" />
<path d="M 127.0 113.0 L 127.0 113.0 L 127.0 113.0 L 128.0 113.0 L 128.0 113.0 L 128.0 113.0 L 129.0 113.0 L 130.0 112.0 L 133.0 110.0 L 137.0 108.0 L 140.0 106.0 L 143.0 104.0 L 144.0 103.0 L 145.0 103.0 L 146.0 103.0 L 146.0 103.0 L 146.0 103.0 L 146.0 103.0 L 145.0 104.0 L 144.0 106.0 L 142.0 107.0 L 139.0 109.0 L 137.0 111.0 L 134.0 112.0 L 132.0 113.0 L 131.0 113.0 L 130.0 113.0 L 129.0 113.0 L 129.0 113.0 L 131.0 113.0 L 134.0 112.0 L 137.0 110.0 L 140.0 109.0 L 143.0 107.0 L 145.0 106.0 L 147.0 105.0 L 148.0 105.0 L 149.0 104.0 L 149.0 104.0 L 149.0 104.0 L 149.0 104.0 L 149.0 104.0 L 149.0 104.0 L 149.0 104.0 L 149.0 105.0 L 149.0 108.0 L 149.0 111.0 L 148.0 116.0 L 148.0 119.0 L 148.0 121.0 L 148.0 122.0 L 148.0 122.0 L 148.0 118.0 L 149.0 114.0 L 149.0 111.0 L 150.0 109.0 L 150.0 107.0 L 150.0 107.0 L 150.0 107.0 L 150.0 107.0 L 150.0 108.0 L 150.0 113.0 L 150.0 119.0 L 151.0 126.0 L 151.0 133.0 L 151.0 138.0 L 151.0 141.0 L 151.0 144.0 L 151.0 145.0 L 151.0 145.0 L 151.0 145.0 L 151.0 144.0 L 151.0 144.0 L 151.0 144.0 L 151.0 143.0 L 151.0 143.0 L 151.0 143.0 L 151.0 143.0 L 151.0 143.0 L 151.0 143.0 L 151.0 143.0 L 151.0 143.0 L 151.0 143.0 L 151.0 143.0 L 151.0 143.0 L 151.0 143.0 L 151.0 143.0 L 151.0 143.0 L 151.0 143.0 L 151.0 143.0 L 150.0 143.0 L 149.0 143.0 L 148.0 143.0 L 148.0 143.0 L 147.0 143.0 L 146.0 143.0 L 146.0 143.0 L 146.0 143.0 L 146.0 143.0 L 146.0 143.0 " stroke="black" fill="none" stroke-width="5.0" stroke-linecap="round" stroke-linejoin="round" />
</svg>