<svg xmlns="http://www.w3.org/2000/svg" width="300" height="300" viewBox="0 0 300 300">
<path d="M 151.0 106.0 L 151.0 105.0 L 151.0 104.0 L 151.0 104.0 L 151.0 104.0 L 151.0 106.0 L 150.0 119.0 L 148.0 141.0 L 146.0 158.0 L 146.0 165.0 " stroke="black" fill="none" stroke-width="5.0" stroke-linecap="round" stroke-linejoin="round" />
<path d="M 147.0 182.0 L 147.0 182.0 L 147.0 182.0 L 147.0 182.0 L 148.0 183.0 L 148.0 184.0 L 148.0 185.0 L 148.0 185.0 L 148.0 185.0 L 147.0 185.0 L 147.0 184.0 L 147.0 183.0 L 148.0 182.0 L 148.0 182.0 L 149.0 182.0 L 149.0 183.0 L 149.0 183.0 L 149.0 184.0 L 149.0 184.0 L 149.0 182.0 L 149.0 181.0 L 149.0 180.0 L 150.0 180.0 " stroke="black" fill="none" stroke-width="5.0" stroke-linecap="round" stroke-linejoin="round" />
</svg>