<svg xmlns="http://www.w3.org/2000/svg" width="300" height="300" viewBox="0 0 300 300">
<path d="M 129.0 104.0 L 129.0 104.0 L 129.0 104.0 L 129.0 104.0 L 129.0 104.0 L 129.0 105.0 L 133.0 111.0 L 139.0 120.0 L 144.0 129.0 L 147.0 134.0 L 148.0 136.0 " stroke="black" fill="none" stroke-width="5.0" stroke-linecap="round" stroke-linejoin="round" />
<path d="M 171.0 113.0 L 171.0 114.0 L 170.0 115.0 L 169.0 116.0 L 167.0 119.0 L 163.0 123.0 L 158.0 127.0 L 153.0 131.0 L 150.0 133.0 L 150.0 134.0 L 150.0 134.0 L 151.0 135.0 L 152.0 137.0 L 153.0 142.0 L 154.0 150.0 L 154.0 163.0 L 155.0 178.0 L 155.0 188.0 L 157.0 193.0 L 157.0 194.0 L 157.0 193.0 " stroke="black" fill="none" stroke-width="5.0" stroke-linecap="round" stroke-linejoin="round" />
</svg>