<svg xmlns="http://www.w3.org/2000/svg" width="300" height="300" viewBox="0 0 300 300">
<path d="M 146.0 94.0 L 146.0 94.0 L 145.0 94.0 L 145.0 94.0 L 145.0 94.0 L 144.0 94.0 L 144.0 94.0 L 143.0 94.0 L 143.0 94.0 L 143.0 93.0 L 144.0 92.0 L 145.0 92.0 L 146.0 92.0 L 147.0 93.0 L 147.0 94.0 L 147.0 96.0 L 147.0 97.0 L 146.0 97.0 L 145.0 97.0 L 145.0 96.0 L 145.0 94.0 L 145.0 93.0 L 145.0 92.0 L 145.0 91.0 L 147.0 91.0 L 148.0 91.0 L 149.0 93.0 L 150.0 96.0 L 150.0 100.0 L 147.0 106.0 L 142.0 111.0 " stroke="black" fill="none" stroke-width="5.0" stroke-linecap="round" stroke-linejoin="round" />
</svg>