<svg xmlns="http://www.w3.org/2000/svg" width="300" height="300" viewBox="0 0 300 300">
<path d="M 149.0 104.0 L 149.0 104.0 L 149.0 104.0 L 149.0 104.0 L 150.0 106.0 L 150.0 110.0 L 150.0 117.0 L 151.0 126.0 L 151.0 137.0 L 152.0 147.0 L 152.0 155.0 L 152.0 161.0 L 152.0 166.0 L 152.0 170.0 L 152.0 174.0 L 152.0 177.0 L 152.0 180.0 L 151.0 183.0 L 151.0 186.0 L 151.0 188.0 L 150.0 190.0 L 150.0 192.0 L 149.0 193.0 L 148.0 195.0 L 147.0 196.0 L 145.0 197.0 L 143.0 197.0 L 140.0 197.0 L 136.0 195.0 L 131.0 190.0 " stroke="black" fill="none" stroke-width="5.0" stroke-linecap="round" stroke-linejoin="round" />
</svg>