<svg xmlns="http://www.w3.org/2000/svg" width="300" height="300" viewBox="0 0 300 300">
<path d="M 123.0 102.0 L 123.0 102.0 L 123.0 102.0 L 123.0 102.0 L 123.0 102.0 L 123.0 102.0 L 123.0 103.0 L 123.0 109.0 L 123.0 116.0 L 123.0 121.0 " stroke="black" fill="none" stroke-width="5.0" stroke-linecap="round" stroke-linejoin="round" />
<path d="M 124.0 102.0 L 124.0 102.0 L 124.0 102.0 L 125.0 102.0 L 125.0 102.0 L 127.0 102.0 L 132.0 102.0 L 140.0 101.0 L 150.0 101.0 L 157.0 101.0 L 164.0 102.0 L 169.0 103.0 L 171.0 103.0 L 172.0 104.0 L 173.0 106.0 L 173.0 111.0 L 173.0 116.0 L 173.0 121.0 " stroke="black" fill="none" stroke-width="5.0" stroke-linecap="round" stroke-linejoin="round" />
<path d="M 150.0 104.0 L 150.0 104.0 L 150.0 104.0 L 150.0 105.0 L 150.0 111.0 L 150.0 126.0 L 151.0 147.0 L 151.0 168.0 L 151.0 184.0 L 151.0 195.0 L 151.0 200.0 L 151.0 200.0 L 151.0 199.0 L 150.0 196.0 " stroke="black" fill="none" stroke-width="5.0" stroke-linecap="round" stroke-linejoin="round" />
</svg>