<svg xmlns="http://www.w3.org/2000/svg" width="300" height="300" viewBox="0 0 300 300">
<path d="M 155.0 133.0 L 155.0 133.0 L 155.0 133.0 L 156.0 133.0 L 156.0 133.0 L 156.0 133.0 L 156.0 132.0 L 154.0 131.0 L 151.0 130.0 L 147.0 129.0 L 142.0 129.0 L 137.0 132.0 L 133.0 136.0 L 132.0 141.0 L 132.0 147.0 L 134.0 152.0 L 139.0 156.0 L 144.0 158.0 L 150.0 158.0 L 154.0 157.0 L 157.0 155.0 L 157.0 155.0 L 157.0 154.0 L 155.0 155.0 L 153.0 156.0 L 150.0 158.0 L 146.0 161.0 L 141.0 164.0 L 136.0 169.0 L 132.0 175.0 L 131.0 182.0 L 135.0 187.0 L 141.0 190.0 L 149.0 191.0 L 156.0 191.0 L 162.0 189.0 " stroke="black" fill="none" stroke-width="5.0" stroke-linecap="round" stroke-linejoin="round" />
<path d="M 156.0 98.0 L 156.0 98.0 L 156.0 98.0 L 156.0 100.0 L 153.0 104.0 L 149.0 108.0 " stroke="black" fill="none" stroke-width="5.0" stroke-linecap="round" stroke-linejoin="round" />
</svg>