<svg xmlns="http://www.w3.org/2000/svg" width="300" height="300" viewBox="0 0 300 300">
<path d="M 131.0 129.0 L 131.0 129.0 L 131.0 129.0 L 131.0 129.0 L 131.0 129.0 L 131.0 128.0 L 133.0 126.0 L 135.0 123.0 L 138.0 121.0 L 140.0 120.0 L 142.0 120.0 L 144.0 120.0 L 146.0 123.0 L 149.0 127.0 L 151.0 132.0 L 154.0 139.0 L 156.0 145.0 L 159.0 151.0 L 162.0 156.0 L 164.0 161.0 L 166.0 165.0 L 168.0 169.0 L 170.0 172.0 L 172.0 176.0 L 173.0 180.0 L 174.0 183.0 L 175.0 186.0 L 175.0 187.0 L 176.0 188.0 L 176.0 188.0 L 176.0 189.0 L 176.0 189.0 L 176.0 189.0 L 176.0 189.0 L 175.0 189.0 L 174.0 189.0 L 171.0 189.0 L 169.0 189.0 L 165.0 189.0 L 161.0 189.0 L 156.0 189.0 L 151.0 189.0 L 146.0 189.0 L 142.0 188.0 L 139.0 188.0 L 135.0 188.0 L 132.0 187.0 L 129.0 187.0 L 127.0 186.0 L 125.0 186.0 L 124.0 185.0 L 123.0 185.0 L 122.0 185.0 L 122.0 185.0 L 122.0 185.0 L 122.0 185.0 L 122.0 185.0 L 121.0 185.0 L 121.0 185.0 L 121.0 185.0 L 121.0 185.0 L 121.0 185.0 L 121.0 184.0 L 122.0 181.0 L 124.0 178.0 L 126.0 173.0 L 129.0 169.0 L 132.0 165.0 L 135.0 161.0 L 138.0 157.0 L 140.0 154.0 L 142.0 151.0 L 144.0 148.0 L 145.0 145.0 L 147.0 143.0 L 148.0 141.0 L 150.0 139.0 L 152.0 137.0 L 153.0 135.0 L 154.0 133.0 L 156.0 131.0 L 157.0 130.0 L 159.0 128.0 L 160.0 127.0 L 161.0 127.0 L 162.0 126.0 L 163.0 126.0 L 164.0 125.0 L 165.0 124.0 L 166.0 124.0 L 167.0 124.0 L 168.0 124.0 L 170.0 124.0 L 171.0 126.0 L 172.0 128.0 L 174.0 130.0 L 175.0 131.0 L 175.0 132.0 " stroke="black" fill="none" stroke-width="5.0" stroke-linecap="round" stroke-linejoin="round" />
</svg>