<svg xmlns="http://www.w3.org/2000/svg" width="300" height="300" viewBox="0 0 300 300">
<path d="M 126.0 133.0 L 126.0 133.0 L 126.0 133.0 L 126.0 133.0 L 126.0 133.0 L 125.0 136.0 L 124.0 146.0 L 124.0 163.0 L 124.0 179.0 L 124.0 188.0 L 125.0 191.0 L 125.0 191.0 L 128.0 188.0 L 133.0 182.0 L 139.0 173.0 L 145.0 165.0 L 151.0 157.0 L 156.0 150.0 L 159.0 144.0 L 162.0 140.0 L 162.0 140.0 L 162.0 140.0 L 162.0 141.0 L 162.0 145.0 L 163.0 152.0 L 164.0 162.0 L 166.0 175.0 L 168.0 187.0 L 169.0 195.0 L 170.0 198.0 L 170.0 199.0 " stroke="black" fill="none" stroke-width="5.0" stroke-linecap="round" stroke-linejoin="round" />
</svg>