<svg xmlns="http://www.w3.org/2000/svg" width="300" height="300" viewBox="0 0 300 300">
<path d="M 141.0 137.0 L 141.0 137.0 L 141.0 137.0 L 141.0 137.0 L 141.0 137.0 L 140.0 137.0 L 139.0 138.0 L 136.0 141.0 L 132.0 147.0 L 129.0 156.0 L 129.0 167.0 L 133.0 177.0 L 139.0 183.0 L 149.0 184.0 L 159.0 180.0 L 166.0 173.0 L 170.0 166.0 L 172.0 158.0 L 170.0 149.0 L 166.0 141.0 L 161.0 135.0 L 156.0 132.0 L 151.0 131.0 L 147.0 131.0 L 144.0 132.0 " stroke="black" fill="none" stroke-width="5.0" stroke-linecap="round" stroke-linejoin="round" />
<path d="M 152.0 102.0 L 152.0 102.0 L 151.0 102.0 L 151.0 102.0 L 150.0 103.0 L 146.0 107.0 L 143.0 111.0 " stroke="black" fill="none" stroke-width="5.0" stroke-linecap="round" stroke-linejoin="round" />
</svg>