<svg xmlns="http://www.w3.org/2000/svg" width="300" height="300" viewBox="0 0 300 300">
<path d="M 161.0 115.0 L 161.0 115.0 L 161.0 115.0 L 160.0 115.0 L 159.0 115.0 L 157.0 115.0 L 155.0 114.0 L 152.0 114.0 L 148.0 114.0 L 143.0 115.0 L 137.0 117.0 L 131.0 119.0 L 125.0 122.0 L 121.0 125.0 L 117.0 129.0 L 114.0 134.0 L 111.0 141.0 L 109.0 147.0 L 108.0 154.0 L 107.0 160.0 L 107.0 166.0 L 108.0 172.0 L 110.0 178.0 L 113.0 184.0 L 117.0 189.0 L 122.0 193.0 L 130.0 195.0 L 139.0 196.0 L 147.0 195.0 L 153.0 191.0 L 157.0 186.0 L 160.0 180.0 L 162.0 174.0 L 163.0 169.0 L 163.0 164.0 L 162.0 160.0 L 160.0 155.0 L 157.0 152.0 L 154.0 148.0 L 150.0 145.0 L 146.0 143.0 L 140.0 141.0 L 133.0 141.0 L 126.0 141.0 L 119.0 143.0 L 114.0 144.0 L 110.0 145.0 L 107.0 146.0 L 106.0 146.0 " stroke="black" fill="none" stroke-width="5.0" stroke-linecap="round" stroke-linejoin="round" />
</svg>