<svg xmlns="http://www.w3.org/2000/svg" width="300" height="300" viewBox="0 0 300 300">
<path d="M 133.0 112.0 L 133.0 112.0 L 133.0 112.0 L 133.0 112.0 L 133.0 112.0 L 132.0 117.0 L 132.0 133.0 L 133.0 161.0 L 134.0 183.0 L 134.0 192.0 L 134.0 192.0 " stroke="black" fill="none" stroke-width="5.0" stroke-linecap="round" stroke-linejoin="round" />
<path d="M 137.0 150.0 L 137.0 150.0 L 137.0 150.0 L 138.0 150.0 L 145.0 150.0 L 158.0 150.0 L 171.0 150.0 L 176.0 150.0 " stroke="black" fill="none" stroke-width="5.0" stroke-linecap="round" stroke-linejoin="round" />
<path d="M 172.0 115.0 L 172.0 115.0 L 172.0 115.0 L 172.0 116.0 L 174.0 128.0 L 178.0 150.0 L 181.0 174.0 L 183.0 188.0 L 184.0 194.0 L 184.0 195.0 " stroke="black" fill="none" stroke-width="5.0" stroke-linecap="round" stroke-linejoin="round" />
<path d="M 110.0 102.0 L 110.0 102.0 L 109.0 102.0 L 107.0 105.0 L 104.0 111.0 " stroke="black" fill="none" stroke-width="5.0" stroke-linecap="round" stroke-linejoin="round" />
</svg>