<svg xmlns="http://www.w3.org/2000/svg" width="300" height="300" viewBox="0 0 300 300">
<path d="M 156.0 112.0 L 156.0 112.0 L 156.0 112.0 L 155.0 112.0 L 154.0 112.0 L 152.0 112.0 L 151.0 112.0 L 148.0 114.0 L 144.0 116.0 L 139.0 119.0 L 134.0 123.0 L 130.0 129.0 L 127.0 135.0 L 126.0 140.0 L 126.0 144.0 L 126.0 148.0 L 127.0 153.0 L 130.0 157.0 L 133.0 160.0 L 137.0 163.0 L 141.0 165.0 L 145.0 167.0 L 149.0 169.0 L 152.0 171.0 L 155.0 173.0 L 157.0 177.0 L 157.0 180.0 L 157.0 184.0 L 157.0 188.0 L 155.0 190.0 L 153.0 193.0 L 149.0 194.0 L 145.0 195.0 L 142.0 194.0 " stroke="black" fill="none" stroke-width="5.0" stroke-linecap="round" stroke-linejoin="round" />
</svg>