<svg xmlns="http://www.w3.org/2000/svg" width="300" height="300" viewBox="0 0 300 300">
<path d="M 128.0 118.0 L 128.0 118.0 L 128.0 118.0 L 127.0 119.0 L 132.0 119.0 L 143.0 119.0 L 156.0 118.0 L 165.0 117.0 L 167.0 117.0 " stroke="black" fill="none" stroke-width="5.0" stroke-linecap="round" stroke-linejoin="round" />
<path d="M 126.0 124.0 L 126.0 124.0 L 126.0 124.0 L 126.0 124.0 L 126.0 124.0 L 126.0 126.0 L 129.0 133.0 L 133.0 143.0 L 137.0 152.0 L 140.0 157.0 L 141.0 159.0 L 142.0 160.0 L 142.0 160.0 L 142.0 160.0 L 142.0 159.0 L 142.0 159.0 L 142.0 159.0 L 142.0 159.0 L 141.0 159.0 L 140.0 159.0 L 138.0 161.0 L 136.0 164.0 L 132.0 169.0 L 127.0 175.0 L 123.0 181.0 L 120.0 185.0 L 119.0 188.0 L 118.0 189.0 L 118.0 190.0 L 118.0 191.0 L 118.0 192.0 L 119.0 192.0 L 123.0 193.0 L 131.0 194.0 L 141.0 195.0 L 152.0 195.0 L 161.0 195.0 L 168.0 196.0 L 172.0 197.0 L 174.0 197.0 L 175.0 197.0 L 175.0 197.0 L 175.0 197.0 " stroke="black" fill="none" stroke-width="5.0" stroke-linecap="round" stroke-linejoin="round" />
</svg>