<svg xmlns="http://www.w3.org/2000/svg" width="300" height="300" viewBox="0 0 300 300">
<path d="M 147.0 138.0 L 147.0 138.0 L 147.0 138.0 L 147.0 137.0 L 146.0 136.0 L 144.0 136.0 L 141.0 138.0 L 135.0 142.0 L 130.0 148.0 L 127.0 157.0 L 128.0 168.0 L 134.0 177.0 L 144.0 182.0 L 153.0 183.0 L 161.0 179.0 L 166.0 173.0 L 169.0 166.0 L 170.0 159.0 L 170.0 151.0 L 169.0 146.0 L 167.0 142.0 L 163.0 139.0 L 158.0 137.0 L 153.0 135.0 L 149.0 134.0 L 145.0 134.0 L 144.0 135.0 " stroke="black" fill="none" stroke-width="5.0" stroke-linecap="round" stroke-linejoin="round" />
<path d="M 151.0 185.0 L 151.0 185.0 L 151.0 186.0 L 151.0 188.0 L 152.0 193.0 L 152.0 201.0 L 153.0 208.0 L 153.0 209.0 " stroke="black" fill="none" stroke-width="5.0" stroke-linecap="round" stroke-linejoin="round" />
</svg>