<svg xmlns="http://www.w3.org/2000/svg" width="300" height="300" viewBox="0 0 300 300">
<path d="M 154.0 103.0 L 153.0 103.0 L 153.0 103.0 L 152.0 103.0 L 152.0 103.0 L 151.0 103.0 L 149.0 104.0 L 147.0 106.0 L 145.0 110.0 L 142.0 115.0 L 140.0 122.0 L 140.0 130.0 L 139.0 139.0 L 139.0 148.0 L 139.0 158.0 L 137.0 168.0 L 135.0 176.0 L 132.0 184.0 L 126.0 191.0 L 120.0 195.0 L 114.0 195.0 " stroke="black" fill="none" stroke-width="5.0" stroke-linecap="round" stroke-linejoin="round" />
<path d="M 142.0 141.0 L 142.0 141.0 L 142.0 141.0 L 142.0 141.0 L 142.0 140.0 L 144.0 137.0 L 149.0 133.0 L 155.0 130.0 L 161.0 129.0 L 167.0 133.0 L 172.0 139.0 L 176.0 147.0 L 178.0 156.0 L 177.0 164.0 L 174.0 171.0 L 169.0 177.0 L 164.0 180.0 L 157.0 181.0 L 150.0 180.0 L 145.0 176.0 L 142.0 169.0 " stroke="black" fill="none" stroke-width="5.0" stroke-linecap="round" stroke-linejoin="round" />
</svg>