<svg xmlns="http://www.w3.org/2000/svg" width="300" height="300" viewBox="0 0 300 300">
<path d="M 163.0 114.0 L 163.0 114.0 L 162.0 114.0 L 161.0 114.0 L 160.0 113.0 L 158.0 112.0 L 156.0 111.0 L 152.0 111.0 L 148.0 110.0 L 142.0 110.0 L 136.0 112.0 L 131.0 116.0 L 125.0 121.0 L 121.0 128.0 L 118.0 138.0 L 117.0 148.0 L 116.0 159.0 L 116.0 169.0 L 118.0 178.0 L 123.0 185.0 L 129.0 191.0 L 139.0 195.0 L 149.0 195.0 L 160.0 192.0 L 164.0 189.0 " stroke="black" fill="none" stroke-width="5.0" stroke-linecap="round" stroke-linejoin="round" />
<path d="M 147.0 150.0 L 147.0 150.0 L 147.0 150.0 L 147.0 150.0 L 147.0 150.0 L 147.0 150.0 L 148.0 150.0 L 148.0 151.0 L 148.0 152.0 L 148.0 154.0 L 147.0 154.0 L 146.0 155.0 L 144.0 154.0 L 144.0 153.0 L 144.0 151.0 L 145.0 149.0 L 146.0 148.0 L 148.0 148.0 L 149.0 150.0 L 150.0 152.0 L 150.0 153.0 L 149.0 154.0 L 147.0 154.0 L 147.0 154.0 L 147.0 153.0 L 147.0 152.0 L 148.0 152.0 L 148.0 152.0 " stroke="black" fill="none" stroke-width="5.0" stroke-linecap="round" stroke-linejoin="round" />
</svg>