<svg xmlns="http://www.w3.org/2000/svg" width="300" height="300" viewBox="0 0 300 300">
<path d="M 139.0 123.0 L 139.0 123.0 L 139.0 123.0 L 138.0 123.0 L 138.0 123.0 L 138.0 124.0 L 138.0 127.0 L 137.0 133.0 L 135.0 143.0 L 132.0 152.0 L 130.0 158.0 L 128.0 161.0 L 128.0 163.0 L 128.0 163.0 L 129.0 164.0 L 132.0 164.0 L 137.0 164.0 L 142.0 164.0 L 148.0 164.0 L 153.0 164.0 L 157.0 164.0 L 160.0 165.0 L 162.0 165.0 L 163.0 165.0 L 163.0 166.0 L 163.0 167.0 L 163.0 170.0 L 163.0 173.0 L 163.0 177.0 L 161.0 183.0 L 159.0 190.0 L 156.0 196.0 L 154.0 200.0 L 153.0 201.0 " stroke="black" fill="none" stroke-width="5.0" stroke-linecap="round" stroke-linejoin="round" />
</svg>