<svg xmlns="http://www.w3.org/2000/svg" width="300" height="300" viewBox="0 0 300 300">
<path d="M 128.0 115.0 L 128.0 115.0 L 128.0 115.0 L 128.0 115.0 L 129.0 117.0 L 133.0 124.0 L 139.0 134.0 L 145.0 143.0 L 147.0 145.0 " stroke="black" fill="none" stroke-width="5.0" stroke-linecap="round" stroke-linejoin="round" />
<path d="M 168.0 117.0 L 168.0 117.0 L 167.0 118.0 L 166.0 120.0 L 164.0 122.0 L 161.0 127.0 L 156.0 133.0 L 152.0 139.0 L 149.0 143.0 L 148.0 144.0 L 148.0 144.0 L 148.0 144.0 L 148.0 144.0 L 148.0 144.0 L 149.0 144.0 L 149.0 148.0 L 150.0 156.0 L 151.0 169.0 L 152.0 184.0 L 153.0 196.0 L 153.0 203.0 L 154.0 204.0 L 154.0 203.0 " stroke="black" fill="none" stroke-width="5.0" stroke-linecap="round" stroke-linejoin="round" />
</svg>