<svg xmlns="http://www.w3.org/2000/svg" width="300" height="300" viewBox="0 0 300 300">
<path d="M 131.0 112.0 L 131.0 111.0 L 130.0 111.0 L 130.0 110.0 L 129.0 113.0 L 129.0 124.0 L 129.0 142.0 L 129.0 165.0 L 127.0 185.0 L 127.0 194.0 L 127.0 196.0 L 127.0 195.0 " stroke="black" fill="none" stroke-width="5.0" stroke-linecap="round" stroke-linejoin="round" />
<path d="M 163.0 126.0 L 163.0 126.0 L 164.0 127.0 L 164.0 128.0 L 163.0 131.0 L 160.0 135.0 L 155.0 142.0 L 147.0 150.0 L 139.0 156.0 L 133.0 159.0 L 130.0 159.0 L 130.0 159.0 L 131.0 159.0 L 131.0 159.0 L 133.0 159.0 L 136.0 160.0 L 140.0 163.0 L 148.0 169.0 L 158.0 177.0 L 168.0 185.0 L 176.0 191.0 L 179.0 195.0 L 181.0 196.0 L 181.0 197.0 L 181.0 197.0 " stroke="black" fill="none" stroke-width="5.0" stroke-linecap="round" stroke-linejoin="round" />
</svg>