<svg xmlns="http://www.w3.org/2000/svg" width="300" height="300" viewBox="0 0 300 300">
<path d="M 142.0 109.0 L 142.0 109.0 L 142.0 109.0 L 142.0 109.0 L 141.0 109.0 L 141.0 109.0 L 139.0 113.0 L 137.0 122.0 L 135.0 140.0 L 135.0 160.0 L 139.0 172.0 L 147.0 179.0 L 155.0 179.0 L 161.0 174.0 L 165.0 165.0 L 168.0 154.0 L 169.0 142.0 L 169.0 129.0 L 167.0 116.0 L 164.0 109.0 L 160.0 106.0 L 156.0 104.0 L 153.0 104.0 L 151.0 105.0 L 151.0 106.0 " stroke="black" fill="none" stroke-width="5.0" stroke-linecap="round" stroke-linejoin="round" />
<path d="M 138.0 146.0 L 138.0 146.0 L 138.0 146.0 L 139.0 146.0 L 144.0 146.0 L 153.0 145.0 L 163.0 144.0 " stroke="black" fill="none" stroke-width="5.0" stroke-linecap="round" stroke-linejoin="round" />
</svg>