<svg xmlns="http://www.w3.org/2000/svg" width="300" height="300" viewBox="0 0 300 300">
<path d="M 109.0 180.0 L 109.0 180.0 L 109.0 180.0 L 109.0 180.0 L 109.0 180.0 L 109.0 180.0 L 110.0 180.0 L 112.0 180.0 L 116.0 180.0 L 120.0 180.0 L 123.0 179.0 L 126.0 178.0 L 126.0 178.0 L 127.0 176.0 L 125.0 174.0 L 123.0 170.0 L 121.0 165.0 L 119.0 159.0 L 117.0 153.0 L 116.0 145.0 L 116.0 139.0 L 116.0 133.0 L 117.0 126.0 L 119.0 120.0 L 123.0 115.0 L 128.0 111.0 L 135.0 109.0 L 142.0 107.0 L 151.0 107.0 L 159.0 108.0 L 168.0 113.0 L 175.0 119.0 L 181.0 125.0 L 183.0 132.0 L 184.0 140.0 L 183.0 147.0 L 181.0 154.0 L 177.0 162.0 L 174.0 170.0 L 173.0 176.0 L 173.0 180.0 L 175.0 181.0 L 181.0 182.0 L 189.0 182.0 L 192.0 182.0 " stroke="black" fill="none" stroke-width="5.0" stroke-linecap="round" stroke-linejoin="round" />
</svg>