<svg xmlns="http://www.w3.org/2000/svg" width="300" height="300" viewBox="0 0 300 300">
<path d="M 156.0 112.0 L 156.0 112.0 L 155.0 112.0 L 153.0 112.0 L 151.0 111.0 L 149.0 111.0 L 145.0 111.0 L 140.0 114.0 L 135.0 119.0 L 132.0 125.0 L 131.0 131.0 L 133.0 137.0 L 137.0 141.0 L 142.0 144.0 L 149.0 145.0 L 155.0 146.0 L 160.0 147.0 L 165.0 149.0 L 169.0 154.0 L 172.0 159.0 L 173.0 165.0 L 173.0 170.0 L 171.0 176.0 L 168.0 182.0 L 165.0 186.0 L 160.0 188.0 L 154.0 188.0 L 147.0 184.0 L 140.0 178.0 L 136.0 174.0 L 135.0 171.0 L 135.0 165.0 L 137.0 159.0 L 140.0 153.0 L 144.0 149.0 L 146.0 147.0 " stroke="black" fill="none" stroke-width="5.0" stroke-linecap="round" stroke-linejoin="round" />
</svg>