<svg xmlns="http://www.w3.org/2000/svg" width="300" height="300" viewBox="0 0 300 300">
<path d="M 128.0 127.0 L 128.0 127.0 L 127.0 127.0 L 127.0 127.0 L 127.0 127.0 L 128.0 125.0 L 133.0 120.0 L 140.0 114.0 L 147.0 109.0 L 153.0 106.0 L 158.0 106.0 L 164.0 108.0 L 169.0 113.0 L 175.0 119.0 L 179.0 128.0 L 182.0 139.0 L 182.0 150.0 L 181.0 161.0 L 179.0 173.0 L 175.0 184.0 L 170.0 192.0 L 163.0 198.0 L 155.0 201.0 L 145.0 201.0 L 133.0 198.0 L 123.0 190.0 L 116.0 179.0 " stroke="black" fill="none" stroke-width="5.0" stroke-linecap="round" stroke-linejoin="round" />
<path d="M 147.0 154.0 L 147.0 154.0 L 147.0 154.0 L 147.0 154.0 L 147.0 154.0 L 147.0 154.0 L 148.0 154.0 L 148.0 155.0 L 148.0 156.0 L 146.0 157.0 L 145.0 158.0 L 144.0 158.0 L 144.0 157.0 L 144.0 155.0 L 145.0 154.0 L 147.0 154.0 L 148.0 154.0 L 149.0 155.0 L 149.0 156.0 L 149.0 158.0 L 147.0 158.0 L 146.0 159.0 L 146.0 159.0 L 145.0 159.0 " stroke="black" fill="none" stroke-width="5.0" stroke-linecap="round" stroke-linejoin="round" />
</svg>