<svg xmlns="http://www.w3.org/2000/svg" width="300" height="300" viewBox="0 0 300 300">
<path d="M 128.0 139.0 L 128.0 139.0 L 128.0 139.0 L 128.0 139.0 L 128.0 139.0 L 127.0 140.0 L 126.0 144.0 L 125.0 152.0 L 124.0 163.0 L 126.0 173.0 L 131.0 178.0 L 139.0 177.0 L 146.0 171.0 L 150.0 163.0 L 152.0 156.0 L 152.0 150.0 L 152.0 147.0 L 151.0 147.0 L 151.0 148.0 L 152.0 153.0 L 154.0 160.0 L 158.0 167.0 L 164.0 173.0 L 170.0 175.0 L 176.0 175.0 L 179.0 170.0 L 181.0 162.0 L 181.0 153.0 L 180.0 145.0 L 179.0 142.0 L 177.0 141.0 " stroke="black" fill="none" stroke-width="5.0" stroke-linecap="round" stroke-linejoin="round" />
<path d="M 105.0 140.0 L 105.0 140.0 L 105.0 140.0 L 107.0 140.0 L 118.0 138.0 L 139.0 136.0 L 162.0 135.0 L 179.0 133.0 L 189.0 132.0 L 193.0 131.0 L 194.0 130.0 " stroke="black" fill="none" stroke-width="5.0" stroke-linecap="round" stroke-linejoin="round" />
</svg>