<svg xmlns="http://www.w3.org/2000/svg" width="300" height="300" viewBox="0 0 300 300">
<path d="M 138.0 124.0 L 138.0 124.0 L 137.0 124.0 L 136.0 124.0 L 135.0 124.0 L 133.0 125.0 L 129.0 127.0 L 125.0 130.0 L 119.0 136.0 L 115.0 142.0 L 114.0 150.0 L 115.0 157.0 L 118.0 163.0 L 124.0 167.0 L 133.0 168.0 L 144.0 167.0 L 153.0 162.0 L 157.0 158.0 L 158.0 155.0 " stroke="black" fill="none" stroke-width="5.0" stroke-linecap="round" stroke-linejoin="round" />
<path d="M 157.0 117.0 L 157.0 117.0 L 157.0 117.0 L 157.0 120.0 L 157.0 129.0 L 158.0 145.0 L 159.0 165.0 L 159.0 184.0 L 160.0 197.0 L 161.0 204.0 L 162.0 206.0 L 162.0 206.0 L 161.0 204.0 " stroke="black" fill="none" stroke-width="5.0" stroke-linecap="round" stroke-linejoin="round" />
</svg>