<svg xmlns="http://www.w3.org/2000/svg" width="300" height="300" viewBox="0 0 300 300">
<path d="M 135.0 139.0 L 135.0 139.0 L 135.0 139.0 L 135.0 139.0 L 134.0 138.0 L 133.0 137.0 L 132.0 136.0 L 131.0 133.0 L 130.0 130.0 L 129.0 125.0 L 129.0 120.0 L 132.0 115.0 L 137.0 111.0 L 143.0 108.0 L 149.0 107.0 L 154.0 107.0 L 159.0 108.0 L 163.0 111.0 L 166.0 114.0 L 169.0 118.0 L 170.0 122.0 L 170.0 127.0 L 170.0 132.0 L 169.0 137.0 L 166.0 142.0 L 163.0 146.0 L 160.0 149.0 L 156.0 152.0 L 153.0 155.0 L 150.0 158.0 L 148.0 161.0 L 146.0 164.0 L 144.0 168.0 L 143.0 172.0 L 142.0 176.0 L 142.0 182.0 L 144.0 186.0 L 147.0 190.0 L 152.0 193.0 L 157.0 195.0 L 164.0 195.0 L 171.0 193.0 L 177.0 191.0 L 182.0 187.0 L 184.0 184.0 L 184.0 180.0 L 183.0 175.0 L 181.0 169.0 L 178.0 164.0 " stroke="black" fill="none" stroke-width="5.0" stroke-linecap="round" stroke-linejoin="round" />
</svg>