<svg xmlns="http://www.w3.org/2000/svg" width="300" height="300" viewBox="0 0 300 300">
<path d="M 150.0 122.0 L 149.0 123.0 L 148.0 123.0 L 147.0 124.0 L 145.0 124.0 L 141.0 126.0 L 136.0 129.0 L 129.0 135.0 L 123.0 143.0 L 120.0 151.0 L 120.0 159.0 L 126.0 167.0 L 136.0 172.0 L 147.0 175.0 L 157.0 176.0 L 166.0 174.0 L 175.0 169.0 L 180.0 162.0 L 183.0 155.0 L 183.0 148.0 L 181.0 140.0 L 178.0 133.0 L 173.0 127.0 L 167.0 124.0 L 160.0 122.0 L 152.0 122.0 L 148.0 121.0 L 147.0 121.0 " stroke="black" fill="none" stroke-width="5.0" stroke-linecap="round" stroke-linejoin="round" />
<path d="M 152.0 98.0 L 152.0 96.0 L 151.0 95.0 L 151.0 94.0 L 151.0 96.0 L 151.0 106.0 L 151.0 126.0 L 153.0 158.0 L 154.0 185.0 L 155.0 199.0 L 157.0 203.0 L 158.0 203.0 L 158.0 203.0 L 157.0 199.0 " stroke="black" fill="none" stroke-width="5.0" stroke-linecap="round" stroke-linejoin="round" />
</svg>