<svg xmlns="http://www.w3.org/2000/svg" width="300" height="300" viewBox="0 0 300 300">
<path d="M 141.0 109.0 L 141.0 109.0 L 141.0 109.0 L 141.0 109.0 L 144.0 109.0 L 148.0 109.0 L 154.0 109.0 L 158.0 109.0 L 162.0 110.0 L 165.0 111.0 L 166.0 112.0 L 166.0 114.0 L 165.0 116.0 L 163.0 119.0 L 160.0 123.0 L 157.0 128.0 L 155.0 132.0 L 153.0 137.0 L 150.0 142.0 L 148.0 146.0 L 146.0 150.0 L 145.0 154.0 L 144.0 157.0 L 144.0 162.0 L 144.0 167.0 L 144.0 172.0 L 144.0 176.0 L 146.0 180.0 L 147.0 184.0 L 150.0 188.0 L 152.0 191.0 L 155.0 193.0 L 157.0 195.0 L 159.0 195.0 L 160.0 196.0 L 161.0 197.0 L 162.0 198.0 L 162.0 200.0 L 162.0 201.0 L 162.0 203.0 L 161.0 205.0 L 159.0 207.0 L 157.0 211.0 L 154.0 214.0 " stroke="black" fill="none" stroke-width="5.0" stroke-linecap="round" stroke-linejoin="round" />
</svg>