<svg xmlns="http://www.w3.org/2000/svg" width="300" height="300" viewBox="0 0 300 300">
<path d="M 150.0 126.0 L 150.0 126.0 L 150.0 126.0 L 149.0 126.0 L 148.0 126.0 L 145.0 126.0 L 140.0 128.0 L 134.0 132.0 L 128.0 138.0 L 123.0 146.0 L 121.0 153.0 L 123.0 161.0 L 130.0 168.0 L 139.0 174.0 L 150.0 178.0 L 162.0 179.0 L 172.0 177.0 L 181.0 172.0 L 187.0 165.0 L 190.0 159.0 L 190.0 152.0 L 188.0 144.0 L 184.0 137.0 L 179.0 130.0 L 174.0 125.0 L 168.0 122.0 L 161.0 120.0 L 155.0 120.0 L 152.0 120.0 L 151.0 120.0 L 151.0 120.0 " stroke="black" fill="none" stroke-width="5.0" stroke-linecap="round" stroke-linejoin="round" />
<path d="M 155.0 101.0 L 155.0 101.0 L 155.0 100.0 L 155.0 100.0 L 155.0 102.0 L 155.0 110.0 L 156.0 130.0 L 157.0 157.0 L 157.0 181.0 L 158.0 197.0 L 159.0 202.0 L 159.0 203.0 L 159.0 203.0 L 159.0 201.0 " stroke="black" fill="none" stroke-width="5.0" stroke-linecap="round" stroke-linejoin="round" />
</svg>