<svg xmlns="http://www.w3.org/2000/svg" width="300" height="300" viewBox="0 0 300 300">
<path d="M 129.0 101.0 L 129.0 101.0 L 129.0 101.0 L 129.0 101.0 L 128.0 101.0 L 128.0 106.0 L 129.0 121.0 L 130.0 142.0 L 130.0 159.0 L 129.0 168.0 L 129.0 171.0 L 129.0 171.0 L 129.0 170.0 L 129.0 165.0 L 132.0 157.0 L 135.0 150.0 L 140.0 144.0 L 145.0 139.0 L 152.0 138.0 L 159.0 138.0 L 166.0 142.0 L 172.0 148.0 L 176.0 156.0 L 177.0 166.0 L 177.0 176.0 L 175.0 184.0 L 170.0 191.0 L 163.0 197.0 L 155.0 202.0 L 146.0 204.0 L 137.0 203.0 L 128.0 196.0 L 121.0 187.0 L 121.0 185.0 " stroke="black" fill="none" stroke-width="5.0" stroke-linecap="round" stroke-linejoin="round" />
</svg>