<svg xmlns="http://www.w3.org/2000/svg" width="300" height="300" viewBox="0 0 300 300">
<path d="M 129.0 135.0 L 129.0 135.0 L 129.0 135.0 L 129.0 135.0 L 129.0 135.0 L 129.0 136.0 L 129.0 138.0 L 128.0 144.0 L 128.0 153.0 L 128.0 163.0 L 131.0 169.0 L 136.0 172.0 L 142.0 173.0 L 147.0 170.0 L 152.0 165.0 L 155.0 158.0 L 158.0 152.0 L 159.0 146.0 L 159.0 140.0 L 159.0 137.0 L 159.0 135.0 L 159.0 135.0 L 159.0 135.0 L 159.0 135.0 L 159.0 136.0 L 159.0 137.0 L 158.0 140.0 L 157.0 144.0 L 157.0 149.0 L 157.0 155.0 L 158.0 161.0 L 160.0 168.0 L 163.0 173.0 L 166.0 177.0 L 169.0 178.0 L 172.0 178.0 L 176.0 176.0 L 179.0 174.0 L 182.0 171.0 L 186.0 167.0 L 188.0 162.0 L 190.0 157.0 L 192.0 151.0 L 192.0 146.0 L 193.0 143.0 L 193.0 140.0 L 193.0 139.0 L 193.0 139.0 L 193.0 139.0 L 193.0 140.0 L 193.0 140.0 L 193.0 140.0 L 193.0 142.0 L 193.0 145.0 L 193.0 148.0 L 193.0 154.0 L 193.0 160.0 L 192.0 169.0 L 190.0 178.0 L 187.0 187.0 L 181.0 195.0 L 172.0 200.0 L 160.0 205.0 L 147.0 206.0 L 139.0 203.0 " stroke="black" fill="none" stroke-width="5.0" stroke-linecap="round" stroke-linejoin="round" />
</svg>