<svg xmlns="http://www.w3.org/2000/svg" width="300" height="300" viewBox="0 0 300 300">
<path d="M 153.0 141.0 L 153.0 141.0 L 153.0 139.0 L 153.0 138.0 L 153.0 137.0 L 153.0 135.0 L 152.0 132.0 L 149.0 130.0 L 145.0 129.0 L 140.0 129.0 L 135.0 132.0 L 130.0 138.0 L 127.0 147.0 L 126.0 158.0 L 126.0 169.0 L 131.0 178.0 L 137.0 181.0 L 144.0 181.0 L 150.0 176.0 L 154.0 170.0 L 157.0 163.0 L 159.0 156.0 L 161.0 150.0 L 161.0 146.0 L 161.0 144.0 L 161.0 144.0 L 161.0 145.0 L 161.0 149.0 L 163.0 159.0 L 169.0 171.0 L 176.0 180.0 L 178.0 181.0 " stroke="black" fill="none" stroke-width="5.0" stroke-linecap="round" stroke-linejoin="round" />
<path d="M 154.0 95.0 L 154.0 95.0 L 155.0 95.0 L 155.0 96.0 L 155.0 97.0 L 154.0 101.0 L 152.0 104.0 " stroke="black" fill="none" stroke-width="5.0" stroke-linecap="round" stroke-linejoin="round" />
</svg>