<svg xmlns="http://www.w3.org/2000/svg" width="300" height="300" viewBox="0 0 300 300">
<path d="M 131.0 109.0 L 131.0 109.0 L 131.0 109.0 L 131.0 109.0 L 135.0 109.0 L 144.0 109.0 L 155.0 109.0 L 162.0 109.0 L 165.0 109.0 L 165.0 109.0 " stroke="black" fill="none" stroke-width="5.0" stroke-linecap="round" stroke-linejoin="round" />
<path d="M 148.0 114.0 L 148.0 114.0 L 148.0 114.0 L 148.0 114.0 L 147.0 114.0 L 147.0 116.0 L 147.0 124.0 L 147.0 139.0 L 147.0 157.0 L 147.0 171.0 L 147.0 180.0 L 147.0 184.0 L 147.0 184.0 L 147.0 182.0 " stroke="black" fill="none" stroke-width="5.0" stroke-linecap="round" stroke-linejoin="round" />
<path d="M 125.0 190.0 L 125.0 190.0 L 125.0 190.0 L 128.0 190.0 L 137.0 190.0 L 150.0 189.0 L 161.0 189.0 L 166.0 189.0 L 167.0 189.0 " stroke="black" fill="none" stroke-width="5.0" stroke-linecap="round" stroke-linejoin="round" />
</svg>