<svg xmlns="http://www.w3.org/2000/svg" width="300" height="300" viewBox="0 0 300 300">
<path d="M 128.0 116.0 L 129.0 116.0 L 129.0 117.0 L 130.0 117.0 L 132.0 119.0 L 135.0 124.0 L 141.0 133.0 L 149.0 148.0 L 155.0 164.0 L 158.0 177.0 L 160.0 186.0 L 160.0 193.0 L 160.0 199.0 L 159.0 201.0 L 158.0 202.0 " stroke="black" fill="none" stroke-width="5.0" stroke-linecap="round" stroke-linejoin="round" />
<path d="M 140.0 136.0 L 140.0 136.0 L 140.0 136.0 L 139.0 136.0 L 139.0 136.0 L 137.0 137.0 L 133.0 142.0 L 127.0 150.0 L 121.0 157.0 L 120.0 158.0 " stroke="black" fill="none" stroke-width="5.0" stroke-linecap="round" stroke-linejoin="round" />
<path d="M 149.0 150.0 L 149.0 150.0 L 149.0 150.0 L 149.0 151.0 L 148.0 152.0 L 146.0 156.0 L 142.0 163.0 L 135.0 171.0 L 133.0 173.0 " stroke="black" fill="none" stroke-width="5.0" stroke-linecap="round" stroke-linejoin="round" />
</svg>