<svg xmlns="http://www.w3.org/2000/svg" width="300" height="300" viewBox="0 0 300 300">
<path d="M 148.0 101.0 L 148.0 101.0 L 148.0 101.0 L 148.0 101.0 L 147.0 102.0 L 146.0 105.0 L 144.0 113.0 L 140.0 130.0 L 134.0 155.0 L 127.0 179.0 L 123.0 191.0 L 123.0 193.0 " stroke="black" fill="none" stroke-width="5.0" stroke-linecap="round" stroke-linejoin="round" />
<path d="M 151.0 107.0 L 151.0 107.0 L 151.0 106.0 L 151.0 106.0 L 153.0 107.0 L 160.0 118.0 L 171.0 143.0 L 181.0 169.0 L 186.0 185.0 L 188.0 193.0 L 189.0 197.0 L 189.0 198.0 " stroke="black" fill="none" stroke-width="5.0" stroke-linecap="round" stroke-linejoin="round" />
<path d="M 136.0 162.0 L 136.0 162.0 L 136.0 162.0 L 139.0 162.0 L 149.0 161.0 L 162.0 161.0 L 169.0 161.0 " stroke="black" fill="none" stroke-width="5.0" stroke-linecap="round" stroke-linejoin="round" />
<path d="M 124.0 100.0 L 124.0 100.0 L 124.0 100.0 L 123.0 101.0 L 122.0 104.0 L 118.0 113.0 L 115.0 120.0 " stroke="black" fill="none" stroke-width="5.0" stroke-linecap="round" stroke-linejoin="round" />
</svg>