<svg xmlns="http://www.w3.org/2000/svg" width="300" height="300" viewBox="0 0 300 300">
<path d="M 129.0 107.0 L 129.0 107.0 L 129.0 107.0 L 129.0 106.0 L 128.0 106.0 L 128.0 109.0 L 128.0 121.0 L 129.0 143.0 L 129.0 166.0 L 128.0 178.0 L 128.0 181.0 L 128.0 181.0 " stroke="black" fill="none" stroke-width="5.0" stroke-linecap="round" stroke-linejoin="round" />
<path d="M 160.0 121.0 L 160.0 121.0 L 160.0 121.0 L 160.0 121.0 L 160.0 121.0 L 160.0 122.0 L 160.0 123.0 L 157.0 128.0 L 151.0 135.0 L 144.0 142.0 L 138.0 148.0 L 133.0 151.0 L 131.0 152.0 L 131.0 152.0 L 132.0 152.0 L 135.0 152.0 L 139.0 153.0 L 142.0 154.0 L 146.0 156.0 L 151.0 159.0 L 157.0 163.0 L 163.0 165.0 L 168.0 167.0 L 172.0 168.0 L 175.0 169.0 L 176.0 169.0 L 177.0 169.0 L 177.0 169.0 L 176.0 169.0 L 176.0 169.0 L 176.0 169.0 L 176.0 169.0 " stroke="black" fill="none" stroke-width="5.0" stroke-linecap="round" stroke-linejoin="round" />
<path d="M 178.0 170.0 L 178.0 170.0 L 178.0 170.0 L 178.0 170.0 L 178.0 169.0 L 178.0 169.0 L 177.0 169.0 L 176.0 170.0 L 171.0 176.0 L 162.0 186.0 L 151.0 201.0 L 146.0 206.0 " stroke="black" fill="none" stroke-width="5.0" stroke-linecap="round" stroke-linejoin="round" />
</svg>