<svg xmlns="http://www.w3.org/2000/svg" width="300" height="300" viewBox="0 0 300 300">
<path d="M 120.0 107.0 L 120.0 107.0 L 120.0 107.0 L 121.0 107.0 L 129.0 107.0 L 144.0 106.0 L 158.0 104.0 L 165.0 104.0 L 167.0 103.0 " stroke="black" fill="none" stroke-width="5.0" stroke-linecap="round" stroke-linejoin="round" />
<path d="M 123.0 117.0 L 123.0 117.0 L 123.0 117.0 L 123.0 117.0 L 122.0 120.0 L 123.0 134.0 L 124.0 155.0 L 124.0 173.0 L 124.0 186.0 L 124.0 191.0 L 124.0 191.0 " stroke="black" fill="none" stroke-width="5.0" stroke-linecap="round" stroke-linejoin="round" />
<path d="M 128.0 148.0 L 128.0 148.0 L 128.0 148.0 L 129.0 148.0 L 137.0 147.0 L 147.0 147.0 L 155.0 147.0 L 161.0 147.0 L 165.0 147.0 L 166.0 147.0 L 166.0 147.0 L 166.0 147.0 L 165.0 147.0 " stroke="black" fill="none" stroke-width="5.0" stroke-linecap="round" stroke-linejoin="round" />
<path d="M 165.0 150.0 L 165.0 150.0 L 166.0 150.0 L 166.0 152.0 L 167.0 155.0 L 168.0 160.0 L 169.0 164.0 " stroke="black" fill="none" stroke-width="5.0" stroke-linecap="round" stroke-linejoin="round" />
</svg>