<svg xmlns="http://www.w3.org/2000/svg" width="300" height="300" viewBox="0 0 300 300">
<path d="M 125.0 108.0 L 125.0 107.0 L 125.0 107.0 L 125.0 106.0 L 125.0 106.0 L 124.0 109.0 L 124.0 122.0 L 124.0 145.0 L 122.0 169.0 L 122.0 181.0 L 122.0 185.0 L 122.0 184.0 " stroke="black" fill="none" stroke-width="5.0" stroke-linecap="round" stroke-linejoin="round" />
<path d="M 129.0 106.0 L 129.0 106.0 L 129.0 106.0 L 128.0 106.0 L 133.0 106.0 L 143.0 105.0 L 155.0 105.0 L 165.0 109.0 L 172.0 114.0 L 175.0 120.0 L 176.0 126.0 L 174.0 132.0 L 168.0 137.0 L 159.0 141.0 L 148.0 144.0 L 136.0 146.0 L 126.0 147.0 " stroke="black" fill="none" stroke-width="5.0" stroke-linecap="round" stroke-linejoin="round" />
</svg>