<svg xmlns="http://www.w3.org/2000/svg" width="300" height="300" viewBox="0 0 300 300">
<path d="M 132.0 115.0 L 132.0 115.0 L 132.0 115.0 L 132.0 115.0 L 132.0 116.0 L 131.0 122.0 L 130.0 135.0 L 129.0 153.0 L 129.0 169.0 L 130.0 177.0 L 131.0 179.0 " stroke="black" fill="none" stroke-width="5.0" stroke-linecap="round" stroke-linejoin="round" />
<path d="M 156.0 120.0 L 156.0 120.0 L 156.0 120.0 L 155.0 120.0 L 154.0 121.0 L 152.0 122.0 L 147.0 126.0 L 139.0 135.0 L 131.0 146.0 L 130.0 148.0 " stroke="black" fill="none" stroke-width="5.0" stroke-linecap="round" stroke-linejoin="round" />
<path d="M 139.0 139.0 L 139.0 139.0 L 139.0 138.0 L 141.0 139.0 L 146.0 147.0 L 153.0 160.0 L 158.0 174.0 L 159.0 181.0 " stroke="black" fill="none" stroke-width="5.0" stroke-linecap="round" stroke-linejoin="round" />
</svg>