<svg xmlns="http://www.w3.org/2000/svg" width="300" height="300" viewBox="0 0 300 300">
<path d="M 123.0 121.0 L 123.0 121.0 L 123.0 121.0 L 123.0 121.0 L 125.0 121.0 L 129.0 120.0 L 135.0 119.0 L 139.0 118.0 L 142.0 118.0 L 144.0 118.0 L 146.0 120.0 L 147.0 124.0 L 148.0 129.0 L 150.0 136.0 L 152.0 146.0 L 154.0 156.0 L 157.0 165.0 L 161.0 174.0 L 166.0 182.0 L 171.0 187.0 L 177.0 190.0 L 183.0 191.0 L 187.0 191.0 L 189.0 189.0 " stroke="black" fill="none" stroke-width="5.0" stroke-linecap="round" stroke-linejoin="round" />
<path d="M 169.0 124.0 L 169.0 124.0 L 169.0 124.0 L 169.0 125.0 L 169.0 127.0 L 166.0 134.0 L 159.0 146.0 L 149.0 163.0 L 136.0 180.0 L 125.0 191.0 L 122.0 193.0 " stroke="black" fill="none" stroke-width="5.0" stroke-linecap="round" stroke-linejoin="round" />
</svg>