<svg xmlns="http://www.w3.org/2000/svg" width="300" height="300" viewBox="0 0 300 300">
<path d="M 122.0 114.0 L 122.0 114.0 L 121.0 114.0 L 120.0 115.0 L 120.0 117.0 L 119.0 121.0 L 119.0 129.0 L 119.0 138.0 L 119.0 147.0 L 119.0 154.0 L 120.0 160.0 L 122.0 164.0 L 126.0 166.0 L 130.0 168.0 L 134.0 168.0 L 138.0 168.0 L 142.0 166.0 L 147.0 159.0 L 149.0 152.0 L 151.0 144.0 L 153.0 137.0 L 153.0 133.0 L 154.0 129.0 L 155.0 126.0 L 155.0 124.0 L 155.0 122.0 L 155.0 122.0 L 155.0 122.0 L 155.0 122.0 L 155.0 122.0 L 155.0 122.0 L 155.0 122.0 L 155.0 122.0 L 155.0 123.0 L 155.0 125.0 L 154.0 128.0 L 154.0 132.0 L 153.0 138.0 L 153.0 146.0 L 153.0 153.0 L 154.0 159.0 L 156.0 163.0 L 158.0 166.0 L 160.0 167.0 L 163.0 168.0 L 167.0 168.0 L 170.0 167.0 L 174.0 165.0 L 178.0 161.0 L 181.0 157.0 L 183.0 152.0 L 185.0 147.0 L 186.0 141.0 L 187.0 136.0 L 187.0 131.0 L 188.0 127.0 L 188.0 125.0 L 188.0 125.0 L 188.0 125.0 L 188.0 125.0 L 188.0 125.0 L 188.0 125.0 L 188.0 125.0 L 188.0 125.0 L 188.0 125.0 L 188.0 126.0 L 188.0 128.0 L 188.0 132.0 L 188.0 137.0 L 188.0 142.0 L 188.0 148.0 L 188.0 154.0 L 188.0 160.0 L 188.0 166.0 L 188.0 171.0 L 188.0 176.0 L 187.0 181.0 L 186.0 185.0 L 184.0 189.0 L 182.0 192.0 L 179.0 196.0 L 176.0 198.0 L 172.0 201.0 L 166.0 203.0 L 159.0 206.0 L 152.0 207.0 L 145.0 207.0 L 141.0 205.0 " stroke="black" fill="none" stroke-width="5.0" stroke-linecap="round" stroke-linejoin="round" />
</svg>