<svg xmlns="http://www.w3.org/2000/svg" width="300" height="300" viewBox="0 0 300 300">
<path d="M 130.0 120.0 L 130.0 120.0 L 130.0 121.0 L 131.0 122.0 L 132.0 125.0 L 136.0 132.0 L 140.0 139.0 L 143.0 143.0 L 144.0 144.0 " stroke="black" fill="none" stroke-width="5.0" stroke-linecap="round" stroke-linejoin="round" />
<path d="M 160.0 124.0 L 161.0 124.0 L 162.0 124.0 L 162.0 124.0 L 162.0 124.0 L 162.0 125.0 L 161.0 127.0 L 158.0 131.0 L 154.0 135.0 L 151.0 139.0 L 150.0 141.0 L 149.0 142.0 L 149.0 142.0 L 149.0 142.0 L 149.0 141.0 L 149.0 141.0 L 149.0 141.0 L 149.0 141.0 L 149.0 141.0 L 149.0 143.0 L 150.0 149.0 L 151.0 161.0 L 151.0 175.0 L 152.0 185.0 L 152.0 189.0 L 152.0 189.0 L 152.0 187.0 L 152.0 186.0 " stroke="black" fill="none" stroke-width="5.0" stroke-linecap="round" stroke-linejoin="round" />
<path d="M 135.0 94.0 L 135.0 94.0 L 135.0 94.0 L 135.0 94.0 L 135.0 94.0 L 135.0 94.0 L 135.0 94.0 L 135.0 94.0 L 135.0 95.0 L 134.0 96.0 L 133.0 96.0 L 133.0 95.0 L 132.0 94.0 L 132.0 93.0 L 133.0 93.0 L 135.0 92.0 L 136.0 92.0 L 136.0 93.0 L 136.0 94.0 L 136.0 94.0 L 136.0 95.0 L 135.0 95.0 L 134.0 95.0 L 134.0 95.0 " stroke="black" fill="none" stroke-width="5.0" stroke-linecap="round" stroke-linejoin="round" />
<path d="M 159.0 98.0 L 159.0 98.0 L 159.0 98.0 L 159.0 98.0 L 159.0 98.0 L 159.0 99.0 L 159.0 100.0 L 159.0 100.0 L 159.0 100.0 L 158.0 100.0 L 157.0 100.0 L 157.0 99.0 L 157.0 98.0 L 157.0 98.0 L 159.0 97.0 L 160.0 97.0 L 161.0 98.0 L 161.0 98.0 L 161.0 99.0 L 160.0 99.0 L 159.0 99.0 L 158.0 99.0 " stroke="black" fill="none" stroke-width="5.0" stroke-linecap="round" stroke-linejoin="round" />
</svg>