<svg xmlns="http://www.w3.org/2000/svg" width="300" height="300" viewBox="0 0 300 300">
<path d="M 131.0 132.0 L 131.0 132.0 L 131.0 132.0 L 130.0 133.0 L 130.0 134.0 L 129.0 139.0 L 129.0 151.0 L 129.0 169.0 L 133.0 187.0 L 141.0 197.0 L 150.0 198.0 L 160.0 196.0 L 169.0 187.0 L 174.0 176.0 L 177.0 163.0 L 177.0 149.0 L 174.0 139.0 L 172.0 134.0 L 171.0 135.0 " stroke="black" fill="none" stroke-width="5.0" stroke-linecap="round" stroke-linejoin="round" />
<path d="M 155.0 103.0 L 155.0 103.0 L 155.0 102.0 L 155.0 102.0 L 155.0 102.0 L 155.0 102.0 L 154.0 106.0 L 153.0 112.0 L 150.0 119.0 " stroke="black" fill="none" stroke-width="5.0" stroke-linecap="round" stroke-linejoin="round" />
<path d="M 138.0 107.0 L 138.0 107.0 L 138.0 107.0 L 138.0 107.0 L 138.0 107.0 L 138.0 108.0 L 138.0 109.0 L 138.0 109.0 L 138.0 109.0 L 138.0 109.0 L 137.0 109.0 L 137.0 109.0 L 137.0 109.0 L 137.0 109.0 L 137.0 109.0 L 137.0 109.0 L 137.0 109.0 L 137.0 109.0 " stroke="black" fill="none" stroke-width="5.0" stroke-linecap="round" stroke-linejoin="round" />
<path d="M 168.0 110.0 L 168.0 110.0 L 168.0 110.0 L 169.0 110.0 L 169.0 110.0 L 170.0 111.0 L 170.0 111.0 L 170.0 112.0 L 170.0 113.0 L 169.0 113.0 L 168.0 113.0 L 167.0 113.0 L 167.0 112.0 L 167.0 112.0 L 167.0 111.0 L 167.0 111.0 L 167.0 111.0 L 167.0 111.0 L 168.0 111.0 L 168.0 111.0 " stroke="black" fill="none" stroke-width="5.0" stroke-linecap="round" stroke-linejoin="round" />
</svg>