<svg xmlns="http://www.w3.org/2000/svg" width="300" height="300" viewBox="0 0 300 300">
<path d="M 135.0 95.0 L 135.0 95.0 L 135.0 96.0 L 135.0 97.0 L 135.0 98.0 L 134.0 100.0 L 134.0 100.0 L 134.0 100.0 L 133.0 100.0 L 133.0 99.0 L 133.0 97.0 L 134.0 96.0 L 135.0 96.0 L 137.0 96.0 L 137.0 96.0 L 137.0 98.0 L 137.0 100.0 L 135.0 100.0 " stroke="black" fill="none" stroke-width="5.0" stroke-linecap="round" stroke-linejoin="round" />
<path d="M 153.0 87.0 L 153.0 87.0 L 153.0 87.0 L 153.0 88.0 L 153.0 90.0 L 151.0 97.0 L 146.0 109.0 L 142.0 116.0 " stroke="black" fill="none" stroke-width="5.0" stroke-linecap="round" stroke-linejoin="round" />
<path d="M 165.0 100.0 L 165.0 100.0 L 166.0 100.0 L 166.0 100.0 L 167.0 101.0 L 167.0 101.0 L 167.0 102.0 L 166.0 103.0 L 164.0 104.0 L 163.0 104.0 L 162.0 104.0 L 162.0 103.0 L 162.0 102.0 L 164.0 101.0 L 165.0 101.0 L 166.0 101.0 L 166.0 101.0 L 166.0 103.0 L 166.0 103.0 L 165.0 103.0 L 163.0 103.0 L 163.0 103.0 L 162.0 102.0 L 162.0 102.0 " stroke="black" fill="none" stroke-width="5.0" stroke-linecap="round" stroke-linejoin="round" />
</svg>