<svg xmlns="http://www.w3.org/2000/svg" width="300" height="300" viewBox="0 0 300 300">
<path d="M 146.0 125.0 L 146.0 125.0 L 144.0 125.0 L 141.0 126.0 L 137.0 128.0 L 131.0 131.0 L 124.0 137.0 L 119.0 144.0 L 116.0 153.0 L 116.0 162.0 L 122.0 170.0 L 132.0 177.0 L 144.0 180.0 L 156.0 181.0 L 167.0 178.0 L 176.0 172.0 L 181.0 165.0 L 183.0 158.0 L 182.0 150.0 L 178.0 142.0 L 172.0 135.0 L 165.0 130.0 L 158.0 127.0 L 152.0 126.0 L 146.0 128.0 L 144.0 129.0 " stroke="black" fill="none" stroke-width="5.0" stroke-linecap="round" stroke-linejoin="round" />
<path d="M 147.0 96.0 L 147.0 96.0 L 147.0 96.0 L 146.0 96.0 L 146.0 99.0 L 146.0 112.0 L 147.0 135.0 L 148.0 160.0 L 148.0 183.0 L 147.0 198.0 L 147.0 204.0 L 147.0 206.0 " stroke="black" fill="none" stroke-width="5.0" stroke-linecap="round" stroke-linejoin="round" />
</svg>