<svg xmlns="http://www.w3.org/2000/svg" width="300" height="300" viewBox="0 0 300 300">
<path d="M 155.0 112.0 L 155.0 112.0 L 155.0 112.0 L 155.0 111.0 L 155.0 111.0 L 154.0 109.0 L 153.0 108.0 L 150.0 106.0 L 147.0 104.0 L 144.0 103.0 L 140.0 102.0 L 136.0 102.0 L 132.0 104.0 L 129.0 106.0 L 127.0 110.0 L 125.0 116.0 L 125.0 122.0 L 126.0 129.0 L 129.0 134.0 L 133.0 138.0 L 138.0 140.0 L 142.0 141.0 L 146.0 142.0 L 148.0 145.0 L 150.0 151.0 L 150.0 157.0 L 151.0 163.0 L 151.0 167.0 L 151.0 169.0 L 151.0 170.0 " stroke="black" fill="none" stroke-width="5.0" stroke-linecap="round" stroke-linejoin="round" />
<path d="M 147.0 194.0 L 147.0 194.0 L 147.0 194.0 L 147.0 195.0 L 147.0 195.0 L 147.0 195.0 L 147.0 195.0 L 146.0 196.0 L 146.0 196.0 L 145.0 195.0 L 144.0 193.0 L 144.0 192.0 L 146.0 191.0 L 148.0 191.0 L 150.0 192.0 L 151.0 195.0 L 151.0 197.0 L 151.0 198.0 L 150.0 198.0 L 148.0 198.0 L 147.0 195.0 L 146.0 193.0 L 146.0 192.0 L 148.0 191.0 L 149.0 190.0 L 150.0 190.0 L 150.0 190.0 " stroke="black" fill="none" stroke-width="5.0" stroke-linecap="round" stroke-linejoin="round" />
</svg>