<svg xmlns="http://www.w3.org/2000/svg" width="300" height="300" viewBox="0 0 300 300">
<path d="M 112.0 198.0 L 113.0 198.0 L 113.0 198.0 L 114.0 198.0 L 114.0 199.0 L 114.0 200.0 L 113.0 201.0 L 112.0 201.0 L 111.0 201.0 L 110.0 201.0 L 110.0 199.0 L 110.0 198.0 L 110.0 197.0 L 111.0 196.0 L 112.0 196.0 L 113.0 197.0 L 113.0 199.0 L 113.0 200.0 L 113.0 200.0 L 113.0 200.0 L 112.0 200.0 L 112.0 200.0 L 112.0 199.0 L 112.0 199.0 L 112.0 199.0 L 112.0 199.0 " stroke="black" fill="none" stroke-width="5.0" stroke-linecap="round" stroke-linejoin="round" />
<path d="M 140.0 202.0 L 140.0 202.0 L 140.0 202.0 L 140.0 202.0 L 140.0 202.0 L 140.0 202.0 L 140.0 202.0 L 139.0 202.0 L 139.0 202.0 L 138.0 202.0 L 138.0 202.0 L 138.0 201.0 L 139.0 201.0 L 140.0 201.0 L 141.0 201.0 L 142.0 202.0 L 142.0 203.0 L 142.0 204.0 L 141.0 204.0 L 140.0 204.0 L 139.0 204.0 L 139.0 203.0 L 139.0 202.0 L 140.0 202.0 L 141.0 201.0 L 142.0 201.0 L 142.0 201.0 L 142.0 201.0 L 141.0 202.0 L 140.0 202.0 " stroke="black" fill="none" stroke-width="5.0" stroke-linecap="round" stroke-linejoin="round" />
<path d="M 161.0 205.0 L 161.0 205.0 L 161.0 205.0 L 161.0 205.0 L 161.0 205.0 L 161.0 206.0 L 161.0 206.0 L 161.0 206.0 L 161.0 206.0 L 161.0 207.0 L 160.0 207.0 L 160.0 206.0 L 160.0 205.0 L 161.0 205.0 L 163.0 204.0 L 164.0 204.0 L 165.0 204.0 L 165.0 205.0 L 165.0 206.0 L 164.0 206.0 L 162.0 206.0 L 162.0 206.0 L 161.0 205.0 L 161.0 204.0 L 162.0 203.0 L 164.0 202.0 L 165.0 202.0 L 166.0 202.0 L 167.0 203.0 L 167.0 204.0 L 167.0 205.0 " stroke="black" fill="none" stroke-width="5.0" stroke-linecap="round" stroke-linejoin="round" />
<path d="M 188.0 204.0 L 188.0 204.0 L 188.0 204.0 L 188.0 205.0 L 188.0 205.0 L 188.0 205.0 L 187.0 205.0 L 187.0 206.0 L 187.0 206.0 L 187.0 206.0 L 187.0 205.0 L 187.0 204.0 L 188.0 204.0 L 189.0 204.0 L 191.0 204.0 L 191.0 205.0 L 192.0 205.0 L 192.0 206.0 L 191.0 206.0 L 190.0 206.0 L 189.0 206.0 L 189.0 205.0 L 189.0 204.0 L 190.0 204.0 L 190.0 203.0 L 191.0 203.0 L 191.0 203.0 L 191.0 203.0 L 191.0 204.0 " stroke="black" fill="none" stroke-width="5.0" stroke-linecap="round" stroke-linejoin="round" />
</svg>