<svg xmlns="http://www.w3.org/2000/svg" width="300" height="300" viewBox="0 0 300 300">
<path d="M 109.0 152.0 L 109.0 152.0 L 109.0 152.0 L 109.0 153.0 L 109.0 153.0 L 109.0 153.0 L 109.0 154.0 L 109.0 156.0 L 108.0 157.0 L 106.0 158.0 L 105.0 158.0 L 103.0 158.0 L 103.0 156.0 L 103.0 154.0 L 104.0 152.0 L 106.0 150.0 L 109.0 150.0 L 112.0 151.0 L 113.0 154.0 L 113.0 158.0 L 112.0 161.0 L 109.0 162.0 L 107.0 162.0 L 104.0 161.0 L 103.0 158.0 L 103.0 154.0 L 103.0 152.0 L 105.0 151.0 L 107.0 151.0 L 109.0 152.0 L 110.0 155.0 L 111.0 157.0 L 111.0 158.0 L 109.0 158.0 L 108.0 158.0 L 108.0 157.0 L 108.0 156.0 L 109.0 156.0 L 109.0 156.0 L 109.0 156.0 " stroke="black" fill="none" stroke-width="5.0" stroke-linecap="round" stroke-linejoin="round" />
<path d="M 200.0 158.0 L 200.0 158.0 L 200.0 158.0 L 200.0 158.0 L 200.0 159.0 L 199.0 159.0 L 198.0 159.0 L 197.0 160.0 L 196.0 160.0 L 196.0 160.0 L 196.0 158.0 L 196.0 157.0 L 197.0 155.0 L 199.0 155.0 L 201.0 155.0 L 202.0 156.0 L 203.0 158.0 L 203.0 160.0 L 202.0 162.0 L 200.0 163.0 L 198.0 163.0 L 197.0 161.0 L 196.0 158.0 L 196.0 155.0 L 198.0 154.0 L 200.0 153.0 L 201.0 154.0 L 202.0 157.0 L 203.0 159.0 L 202.0 160.0 L 200.0 161.0 L 199.0 161.0 L 199.0 159.0 L 199.0 157.0 L 200.0 155.0 L 201.0 154.0 L 202.0 154.0 L 202.0 155.0 " stroke="black" fill="none" stroke-width="5.0" stroke-linecap="round" stroke-linejoin="round" />
</svg>