<svg xmlns="http://www.w3.org/2000/svg" width="300" height="300" viewBox="0 0 300 300">
<path d="M 140.0 98.0 L 140.0 98.0 L 140.0 98.0 L 143.0 97.0 L 148.0 96.0 L 152.0 95.0 L 156.0 95.0 L 157.0 95.0 " stroke="black" fill="none" stroke-width="5.0" stroke-linecap="round" stroke-linejoin="round" />
<path d="M 140.0 104.0 L 140.0 104.0 L 140.0 103.0 L 140.0 103.0 L 140.0 105.0 L 140.0 109.0 L 139.0 113.0 L 139.0 115.0 L 140.0 116.0 L 144.0 116.0 L 150.0 117.0 L 155.0 119.0 L 159.0 123.0 L 160.0 128.0 L 160.0 131.0 L 158.0 134.0 L 155.0 137.0 L 150.0 139.0 L 145.0 139.0 L 138.0 136.0 L 133.0 132.0 " stroke="black" fill="none" stroke-width="5.0" stroke-linecap="round" stroke-linejoin="round" />
</svg>