<svg xmlns="http://www.w3.org/2000/svg" width="300" height="300" viewBox="0 0 300 300">
<path d="M 186.0 91.0 L 185.0 91.0 L 185.0 91.0 L 185.0 91.0 L 184.0 91.0 L 182.0 92.0 L 181.0 95.0 L 179.0 99.0 L 177.0 106.0 L 176.0 112.0 L 176.0 117.0 L 177.0 121.0 L 179.0 122.0 L 182.0 123.0 L 184.0 121.0 L 185.0 119.0 L 185.0 116.0 L 185.0 115.0 L 185.0 114.0 L 184.0 113.0 L 183.0 113.0 L 181.0 113.0 L 179.0 113.0 L 177.0 115.0 L 175.0 116.0 L 175.0 117.0 L 175.0 118.0 L 177.0 119.0 L 179.0 119.0 L 180.0 119.0 L 181.0 119.0 L 182.0 119.0 L 182.0 118.0 L 182.0 118.0 L 182.0 118.0 " stroke="black" fill="none" stroke-width="5.0" stroke-linecap="round" stroke-linejoin="round" />
<path d="M 204.0 93.0 L 204.0 93.0 L 205.0 93.0 L 205.0 92.0 L 205.0 92.0 L 205.0 92.0 L 204.0 94.0 L 202.0 97.0 L 200.0 103.0 L 198.0 109.0 L 198.0 116.0 L 198.0 122.0 L 200.0 126.0 L 202.0 126.0 L 205.0 126.0 L 207.0 122.0 L 208.0 119.0 L 208.0 116.0 L 208.0 114.0 L 207.0 113.0 L 205.0 113.0 L 203.0 114.0 L 201.0 116.0 L 200.0 117.0 L 199.0 118.0 L 199.0 119.0 L 199.0 119.0 L 199.0 119.0 L 199.0 119.0 L 200.0 119.0 L 201.0 118.0 L 201.0 117.0 L 201.0 117.0 L 201.0 117.0 L 201.0 117.0 L 201.0 119.0 L 201.0 120.0 L 202.0 121.0 " stroke="black" fill="none" stroke-width="5.0" stroke-linecap="round" stroke-linejoin="round" />
</svg>