<svg xmlns="http://www.w3.org/2000/svg" width="300" height="300" viewBox="0 0 300 300">
<path d="M 123.0 130.0 L 124.0 130.0 L 124.0 130.0 L 126.0 129.0 L 132.0 129.0 L 144.0 129.0 L 157.0 129.0 L 165.0 129.0 L 168.0 130.0 " stroke="black" fill="none" stroke-width="5.0" stroke-linecap="round" stroke-linejoin="round" />
<path d="M 117.0 177.0 L 117.0 177.0 L 117.0 177.0 L 117.0 177.0 L 118.0 176.0 L 126.0 176.0 L 142.0 175.0 L 159.0 174.0 L 170.0 174.0 L 174.0 174.0 " stroke="black" fill="none" stroke-width="5.0" stroke-linecap="round" stroke-linejoin="round" />
<path d="M 146.0 103.0 L 146.0 103.0 L 146.0 102.0 L 146.0 102.0 L 146.0 104.0 L 146.0 113.0 L 148.0 129.0 L 149.0 152.0 L 149.0 176.0 L 149.0 193.0 L 150.0 202.0 L 150.0 206.0 L 150.0 206.0 L 150.0 206.0 " stroke="black" fill="none" stroke-width="5.0" stroke-linecap="round" stroke-linejoin="round" />
</svg>