<svg xmlns="http://www.w3.org/2000/svg" width="300" height="300" viewBox="0 0 300 300">
<path d="M 121.0 127.0 L 121.0 127.0 L 121.0 128.0 L 123.0 131.0 L 132.0 139.0 L 146.0 153.0 L 160.0 170.0 L 170.0 180.0 L 176.0 186.0 L 177.0 190.0 " stroke="black" fill="none" stroke-width="5.0" stroke-linecap="round" stroke-linejoin="round" />
<path d="M 173.0 132.0 L 173.0 132.0 L 173.0 132.0 L 173.0 132.0 L 172.0 132.0 L 171.0 133.0 L 167.0 138.0 L 157.0 150.0 L 142.0 167.0 L 125.0 183.0 L 119.0 186.0 " stroke="black" fill="none" stroke-width="5.0" stroke-linecap="round" stroke-linejoin="round" />
<path d="M 148.0 125.0 L 148.0 125.0 L 148.0 125.0 L 148.0 125.0 L 148.0 126.0 L 147.0 126.0 L 146.0 127.0 L 145.0 127.0 L 143.0 127.0 L 143.0 126.0 L 143.0 124.0 L 143.0 122.0 L 144.0 121.0 L 146.0 120.0 L 148.0 120.0 L 149.0 120.0 L 149.0 122.0 L 149.0 123.0 L 149.0 124.0 L 147.0 125.0 L 146.0 125.0 L 144.0 124.0 L 144.0 123.0 L 144.0 122.0 L 145.0 121.0 L 147.0 121.0 L 148.0 121.0 L 149.0 122.0 L 149.0 122.0 L 149.0 123.0 L 148.0 123.0 L 148.0 123.0 L 148.0 122.0 L 147.0 122.0 " stroke="black" fill="none" stroke-width="5.0" stroke-linecap="round" stroke-linejoin="round" />
<path d="M 116.0 155.0 L 116.0 155.0 L 116.0 155.0 L 116.0 155.0 L 116.0 155.0 L 116.0 155.0 L 116.0 156.0 L 115.0 156.0 L 114.0 156.0 L 114.0 155.0 L 114.0 154.0 L 115.0 152.0 L 117.0 152.0 L 119.0 152.0 L 121.0 154.0 L 121.0 156.0 L 120.0 158.0 L 118.0 159.0 L 115.0 158.0 L 113.0 156.0 L 112.0 153.0 L 112.0 151.0 L 114.0 150.0 L 116.0 150.0 L 117.0 150.0 L 118.0 150.0 L 118.0 152.0 " stroke="black" fill="none" stroke-width="5.0" stroke-linecap="round" stroke-linejoin="round" />
<path d="M 149.0 191.0 L 149.0 191.0 L 149.0 191.0 L 149.0 191.0 L 149.0 190.0 L 149.0 190.0 L 149.0 190.0 L 148.0 190.0 L 148.0 190.0 L 147.0 190.0 L 146.0 190.0 L 145.0 189.0 L 145.0 188.0 L 145.0 186.0 L 146.0 185.0 L 148.0 184.0 L 150.0 185.0 L 152.0 187.0 L 153.0 189.0 L 153.0 192.0 L 153.0 194.0 L 151.0 195.0 L 149.0 195.0 L 148.0 193.0 L 147.0 190.0 L 146.0 187.0 L 146.0 185.0 L 148.0 184.0 L 149.0 184.0 L 151.0 184.0 L 151.0 185.0 L 152.0 187.0 L 152.0 189.0 L 151.0 190.0 L 149.0 190.0 " stroke="black" fill="none" stroke-width="5.0" stroke-linecap="round" stroke-linejoin="round" />
<path d="M 178.0 154.0 L 178.0 154.0 L 178.0 154.0 L 178.0 155.0 L 178.0 156.0 L 178.0 157.0 L 177.0 157.0 L 177.0 158.0 L 176.0 158.0 L 176.0 158.0 L 176.0 157.0 L 176.0 156.0 L 178.0 155.0 L 179.0 155.0 L 180.0 155.0 L 181.0 157.0 L 181.0 158.0 L 180.0 160.0 L 179.0 160.0 L 177.0 160.0 L 176.0 160.0 L 176.0 159.0 L 176.0 157.0 L 177.0 156.0 L 180.0 156.0 L 182.0 157.0 L 184.0 158.0 L 184.0 159.0 L 184.0 160.0 L 182.0 160.0 L 180.0 160.0 L 179.0 159.0 L 178.0 158.0 L 178.0 157.0 L 178.0 156.0 L 179.0 155.0 " stroke="black" fill="none" stroke-width="5.0" stroke-linecap="round" stroke-linejoin="round" />
</svg>