<svg xmlns="http://www.w3.org/2000/svg" width="300" height="300" viewBox="0 0 300 300">
<path d="M 81.0 161.0 L 81.0 161.0 L 81.0 161.0 L 82.0 161.0 L 84.0 161.0 L 87.0 161.0 L 95.0 161.0 L 104.0 161.0 L 114.0 161.0 L 122.0 161.0 L 130.0 161.0 L 138.0 161.0 L 144.0 161.0 L 150.0 161.0 L 155.0 160.0 L 159.0 160.0 L 163.0 160.0 L 167.0 160.0 L 171.0 160.0 L 175.0 160.0 L 178.0 160.0 L 181.0 160.0 L 184.0 160.0 L 186.0 160.0 L 188.0 160.0 L 190.0 160.0 L 192.0 160.0 L 194.0 160.0 L 197.0 160.0 L 198.0 160.0 L 199.0 160.0 L 200.0 160.0 L 201.0 160.0 L 202.0 160.0 L 202.0 160.0 L 203.0 160.0 L 203.0 160.0 L 203.0 160.0 " stroke="black" fill="none" stroke-width="5.0" stroke-linecap="round" stroke-linejoin="round" />
</svg>