<svg xmlns="http://www.w3.org/2000/svg" width="300" height="300" viewBox="0 0 300 300">
<path d="M 103.0 96.0 L 103.0 96.0 L 103.0 96.0 L 103.0 95.0 L 103.0 95.0 L 104.0 95.0 L 104.0 95.0 L 104.0 95.0 L 104.0 96.0 L 104.0 97.0 L 104.0 97.0 L 104.0 98.0 L 104.0 98.0 L 104.0 98.0 L 104.0 97.0 L 104.0 96.0 L 104.0 95.0 L 104.0 95.0 L 105.0 95.0 L 105.0 96.0 L 106.0 97.0 L 106.0 98.0 L 105.0 99.0 L 104.0 100.0 L 103.0 100.0 L 102.0 99.0 L 102.0 97.0 L 102.0 95.0 L 102.0 95.0 L 102.0 94.0 L 102.0 94.0 L 103.0 95.0 L 103.0 96.0 L 103.0 96.0 L 103.0 97.0 L 103.0 97.0 L 102.0 97.0 L 102.0 96.0 L 102.0 96.0 L 102.0 96.0 L 103.0 96.0 L 103.0 96.0 L 104.0 96.0 L 104.0 97.0 L 104.0 98.0 L 103.0 98.0 L 102.0 97.0 L 101.0 96.0 L 101.0 95.0 L 101.0 94.0 L 101.0 93.0 L 102.0 93.0 L 103.0 92.0 L 104.0 92.0 L 105.0 92.0 L 106.0 92.0 L 107.0 94.0 L 107.0 97.0 L 107.0 101.0 L 107.0 106.0 L 105.0 113.0 L 102.0 117.0 " stroke="black" fill="none" stroke-width="5.0" stroke-linecap="round" stroke-linejoin="round" />
</svg>