<svg xmlns="http://www.w3.org/2000/svg" width="300" height="300" viewBox="0 0 300 300">
<path d="M 149.0 162.0 L 149.0 163.0 L 147.0 165.0 L 145.0 165.0 L 144.0 165.0 L 142.0 165.0 L 140.0 163.0 L 139.0 159.0 L 139.0 155.0 L 139.0 151.0 L 141.0 148.0 L 145.0 146.0 L 149.0 144.0 L 153.0 144.0 L 156.0 147.0 L 158.0 152.0 L 159.0 156.0 L 159.0 160.0 L 157.0 162.0 L 154.0 163.0 L 151.0 162.0 L 148.0 160.0 L 145.0 157.0 L 144.0 154.0 L 144.0 152.0 L 146.0 150.0 L 149.0 149.0 L 153.0 149.0 L 156.0 151.0 L 157.0 154.0 L 157.0 158.0 L 155.0 161.0 L 152.0 163.0 L 149.0 163.0 L 146.0 161.0 L 145.0 158.0 L 144.0 154.0 L 145.0 152.0 L 147.0 150.0 L 151.0 150.0 L 154.0 152.0 L 155.0 154.0 L 155.0 157.0 L 150.0 160.0 L 147.0 160.0 L 145.0 159.0 L 144.0 156.0 L 145.0 154.0 L 148.0 153.0 L 151.0 153.0 L 154.0 154.0 L 154.0 156.0 L 155.0 158.0 L 153.0 159.0 L 151.0 159.0 L 148.0 159.0 L 146.0 158.0 L 146.0 156.0 L 146.0 154.0 L 148.0 153.0 L 150.0 152.0 L 152.0 152.0 L 153.0 154.0 L 153.0 157.0 L 152.0 158.0 L 150.0 159.0 L 148.0 159.0 L 146.0 158.0 L 146.0 155.0 L 146.0 153.0 L 148.0 152.0 L 151.0 152.0 L 153.0 153.0 L 153.0 155.0 L 153.0 157.0 L 151.0 159.0 L 148.0 160.0 L 145.0 160.0 L 144.0 158.0 L 143.0 154.0 L 143.0 150.0 L 146.0 148.0 L 150.0 147.0 L 154.0 149.0 L 157.0 153.0 L 158.0 156.0 L 158.0 160.0 L 157.0 162.0 L 153.0 163.0 L 149.0 163.0 L 144.0 161.0 L 141.0 158.0 L 139.0 154.0 L 139.0 151.0 L 141.0 147.0 L 147.0 145.0 L 152.0 144.0 L 158.0 144.0 L 162.0 148.0 L 163.0 153.0 L 164.0 158.0 L 162.0 162.0 L 158.0 164.0 L 154.0 164.0 L 150.0 164.0 L 148.0 164.0 " stroke="black" fill="none" stroke-width="5.0" stroke-linecap="round" stroke-linejoin="round" />
</svg>