<svg xmlns="http://www.w3.org/2000/svg" width="300" height="300" viewBox="0 0 300 300">
<path d="M 142.0 181.0 L 142.0 181.0 L 143.0 181.0 L 145.0 181.0 L 149.0 181.0 L 153.0 180.0 L 156.0 179.0 L 158.0 179.0 " stroke="black" fill="none" stroke-width="5.0" stroke-linecap="round" stroke-linejoin="round" />
<path d="M 141.0 185.0 L 141.0 185.0 L 141.0 185.0 L 141.0 185.0 L 141.0 187.0 L 140.0 191.0 L 140.0 196.0 L 140.0 199.0 L 140.0 200.0 L 142.0 200.0 L 147.0 200.0 L 153.0 202.0 L 158.0 204.0 L 161.0 207.0 L 162.0 211.0 L 161.0 215.0 L 158.0 218.0 L 154.0 221.0 L 149.0 222.0 L 144.0 222.0 L 138.0 219.0 L 133.0 214.0 L 133.0 212.0 " stroke="black" fill="none" stroke-width="5.0" stroke-linecap="round" stroke-linejoin="round" />
</svg>