<svg xmlns="http://www.w3.org/2000/svg" width="300" height="300" viewBox="0 0 300 300">
<path d="M 147.0 115.0 L 147.0 115.0 L 147.0 115.0 L 147.0 116.0 L 147.0 116.0 L 147.0 117.0 L 147.0 118.0 L 147.0 119.0 L 146.0 119.0 L 146.0 119.0 L 146.0 119.0 L 146.0 118.0 L 146.0 116.0 L 146.0 115.0 L 147.0 115.0 L 147.0 115.0 L 148.0 115.0 L 148.0 116.0 L 148.0 117.0 L 148.0 117.0 L 147.0 117.0 L 147.0 117.0 L 146.0 117.0 " stroke="black" fill="none" stroke-width="5.0" stroke-linecap="round" stroke-linejoin="round" />
<path d="M 147.0 139.0 L 147.0 139.0 L 147.0 139.0 L 147.0 139.0 L 147.0 142.0 L 147.0 149.0 L 148.0 160.0 L 149.0 172.0 L 149.0 181.0 L 150.0 185.0 L 150.0 185.0 L 150.0 185.0 " stroke="black" fill="none" stroke-width="5.0" stroke-linecap="round" stroke-linejoin="round" />
<path d="M 175.0 121.0 L 175.0 121.0 L 175.0 122.0 L 175.0 122.0 L 175.0 123.0 L 176.0 124.0 L 176.0 125.0 L 176.0 126.0 L 176.0 126.0 L 175.0 125.0 L 175.0 124.0 L 175.0 122.0 L 175.0 121.0 L 175.0 121.0 L 175.0 121.0 L 175.0 121.0 L 175.0 121.0 L 175.0 121.0 L 175.0 121.0 L 175.0 121.0 L 175.0 121.0 L 175.0 121.0 " stroke="black" fill="none" stroke-width="5.0" stroke-linecap="round" stroke-linejoin="round" />
<path d="M 176.0 144.0 L 176.0 144.0 L 176.0 143.0 L 176.0 142.0 L 176.0 143.0 L 176.0 149.0 L 177.0 158.0 L 178.0 169.0 L 178.0 180.0 L 179.0 186.0 L 179.0 189.0 L 179.0 188.0 L 179.0 187.0 " stroke="black" fill="none" stroke-width="5.0" stroke-linecap="round" stroke-linejoin="round" />
<path d="M 118.0 117.0 L 118.0 117.0 L 118.0 117.0 L 118.0 117.0 L 118.0 117.0 L 119.0 117.0 L 119.0 118.0 L 119.0 119.0 L 119.0 119.0 L 119.0 119.0 L 119.0 119.0 L 119.0 118.0 L 119.0 118.0 L 119.0 118.0 L 119.0 118.0 L 119.0 118.0 L 119.0 118.0 L 119.0 118.0 L 119.0 118.0 L 119.0 117.0 L 119.0 117.0 L 119.0 117.0 L 119.0 117.0 " stroke="black" fill="none" stroke-width="5.0" stroke-linecap="round" stroke-linejoin="round" />
<path d="M 120.0 135.0 L 120.0 135.0 L 120.0 135.0 L 120.0 137.0 L 121.0 140.0 L 121.0 148.0 L 121.0 159.0 L 121.0 172.0 L 121.0 181.0 L 121.0 187.0 L 121.0 187.0 L 121.0 187.0 L 121.0 185.0 " stroke="black" fill="none" stroke-width="5.0" stroke-linecap="round" stroke-linejoin="round" />
</svg>