<svg xmlns="http://www.w3.org/2000/svg" width="300" height="300" viewBox="0 0 300 300">
<path d="M 192.0 103.0 L 192.0 103.0 L 192.0 103.0 L 192.0 103.0 L 193.0 103.0 L 193.0 103.0 L 192.0 103.0 L 188.0 108.0 L 180.0 117.0 L 166.0 131.0 L 151.0 149.0 L 138.0 164.0 L 129.0 174.0 L 124.0 182.0 L 121.0 185.0 L 121.0 186.0 L 121.0 186.0 " stroke="black" fill="none" stroke-width="5.0" stroke-linecap="round" stroke-linejoin="round" />
<path d="M 191.0 103.0 L 191.0 103.0 L 191.0 103.0 L 191.0 103.0 L 191.0 103.0 L 191.0 103.0 L 190.0 103.0 L 188.0 103.0 L 183.0 104.0 L 178.0 105.0 L 172.0 106.0 L 170.0 106.0 " stroke="black" fill="none" stroke-width="5.0" stroke-linecap="round" stroke-linejoin="round" />
<path d="M 191.0 102.0 L 191.0 102.0 L 192.0 102.0 L 192.0 102.0 L 193.0 103.0 L 193.0 106.0 L 193.0 111.0 L 193.0 119.0 L 194.0 125.0 L 194.0 127.0 " stroke="black" fill="none" stroke-width="5.0" stroke-linecap="round" stroke-linejoin="round" />
</svg>