<svg xmlns="http://www.w3.org/2000/svg" width="300" height="300" viewBox="0 0 300 300">
<path d="M 109.0 117.0 L 109.0 117.0 L 109.0 117.0 L 109.0 118.0 L 113.0 122.0 L 125.0 132.0 L 146.0 150.0 L 164.0 166.0 L 179.0 180.0 L 190.0 189.0 L 194.0 193.0 L 195.0 193.0 L 194.0 192.0 " stroke="black" fill="none" stroke-width="5.0" stroke-linecap="round" stroke-linejoin="round" />
<path d="M 107.0 112.0 L 107.0 112.0 L 107.0 112.0 L 107.0 112.0 L 107.0 112.0 L 107.0 113.0 L 107.0 115.0 L 108.0 120.0 L 108.0 129.0 L 109.0 140.0 L 109.0 145.0 L 109.0 145.0 " stroke="black" fill="none" stroke-width="5.0" stroke-linecap="round" stroke-linejoin="round" />
<path d="M 109.0 116.0 L 109.0 116.0 L 109.0 116.0 L 109.0 116.0 L 109.0 116.0 L 112.0 116.0 L 119.0 117.0 L 129.0 118.0 L 137.0 120.0 L 139.0 120.0 " stroke="black" fill="none" stroke-width="5.0" stroke-linecap="round" stroke-linejoin="round" />
</svg>