<svg xmlns="http://www.w3.org/2000/svg" width="300" height="300" viewBox="0 0 300 300">
<path d="M 138.0 199.0 L 138.0 199.0 L 138.0 199.0 L 138.0 199.0 L 138.0 199.0 L 139.0 199.0 L 144.0 198.0 L 150.0 198.0 L 156.0 198.0 L 161.0 198.0 L 164.0 198.0 L 164.0 198.0 L 164.0 198.0 L 163.0 200.0 L 161.0 203.0 L 158.0 207.0 L 154.0 212.0 L 151.0 216.0 L 149.0 218.0 " stroke="black" fill="none" stroke-width="5.0" stroke-linecap="round" stroke-linejoin="round" />
<path d="M 132.0 204.0 L 132.0 204.0 L 132.0 204.0 L 132.0 204.0 L 132.0 204.0 L 134.0 205.0 L 137.0 208.0 L 142.0 212.0 L 147.0 215.0 L 149.0 216.0 " stroke="black" fill="none" stroke-width="5.0" stroke-linecap="round" stroke-linejoin="round" />
<path d="M 133.0 200.0 L 133.0 200.0 L 133.0 200.0 L 133.0 200.0 L 133.0 200.0 L 133.0 200.0 L 135.0 202.0 L 137.0 205.0 L 138.0 207.0 L 139.0 208.0 L 140.0 209.0 L 140.0 209.0 L 139.0 207.0 L 138.0 205.0 L 138.0 203.0 L 137.0 201.0 L 137.0 200.0 L 137.0 200.0 L 138.0 200.0 L 140.0 203.0 L 142.0 206.0 L 143.0 208.0 L 144.0 209.0 L 144.0 210.0 L 144.0 210.0 L 144.0 207.0 L 143.0 204.0 L 143.0 202.0 L 143.0 200.0 L 143.0 200.0 L 143.0 202.0 L 144.0 205.0 L 145.0 208.0 L 146.0 209.0 L 146.0 209.0 L 147.0 209.0 L 147.0 208.0 L 147.0 204.0 L 147.0 202.0 L 148.0 200.0 L 148.0 199.0 L 148.0 200.0 L 149.0 204.0 L 150.0 207.0 L 150.0 209.0 L 150.0 210.0 L 151.0 210.0 L 151.0 206.0 L 152.0 204.0 L 152.0 202.0 L 153.0 202.0 L 153.0 203.0 L 153.0 205.0 L 153.0 206.0 L 153.0 207.0 L 153.0 207.0 L 154.0 207.0 L 155.0 207.0 L 156.0 205.0 L 157.0 204.0 L 158.0 204.0 L 158.0 203.0 L 159.0 203.0 L 159.0 203.0 L 157.0 204.0 L 154.0 206.0 L 152.0 208.0 L 151.0 209.0 L 150.0 209.0 L 151.0 209.0 L 154.0 207.0 L 156.0 205.0 L 157.0 204.0 L 158.0 204.0 L 159.0 204.0 L 159.0 204.0 " stroke="black" fill="none" stroke-width="5.0" stroke-linecap="round" stroke-linejoin="round" />
<path d="M 148.0 181.0 L 148.0 181.0 L 148.0 181.0 L 148.0 181.0 L 148.0 181.0 L 147.0 181.0 L 147.0 181.0 L 146.0 181.0 L 144.0 181.0 L 144.0 180.0 L 143.0 178.0 L 143.0 176.0 L 144.0 174.0 L 146.0 173.0 L 148.0 172.0 L 150.0 172.0 L 151.0 174.0 L 151.0 177.0 L 150.0 179.0 L 149.0 181.0 L 147.0 181.0 L 145.0 181.0 L 144.0 179.0 L 144.0 177.0 L 144.0 176.0 L 146.0 175.0 L 148.0 174.0 L 150.0 174.0 L 150.0 175.0 L 150.0 176.0 L 150.0 176.0 L 149.0 177.0 L 148.0 177.0 " stroke="black" fill="none" stroke-width="5.0" stroke-linecap="round" stroke-linejoin="round" />
<path d="M 150.0 145.0 L 150.0 145.0 L 150.0 145.0 L 150.0 146.0 L 150.0 146.0 L 149.0 146.0 L 149.0 146.0 L 148.0 146.0 L 147.0 146.0 L 146.0 144.0 L 146.0 141.0 L 146.0 139.0 L 146.0 137.0 L 147.0 136.0 L 149.0 136.0 L 150.0 136.0 L 152.0 138.0 L 152.0 140.0 L 152.0 142.0 L 152.0 143.0 L 150.0 144.0 L 149.0 144.0 L 147.0 143.0 L 147.0 143.0 L 147.0 142.0 L 148.0 141.0 L 150.0 141.0 L 151.0 141.0 L 151.0 141.0 L 151.0 142.0 L 150.0 143.0 L 150.0 143.0 " stroke="black" fill="none" stroke-width="5.0" stroke-linecap="round" stroke-linejoin="round" />
<path d="M 149.0 105.0 L 149.0 105.0 L 149.0 105.0 L 149.0 105.0 L 149.0 105.0 L 149.0 105.0 L 148.0 106.0 L 147.0 106.0 L 147.0 106.0 L 146.0 106.0 L 146.0 105.0 L 146.0 104.0 L 146.0 103.0 L 148.0 102.0 L 150.0 102.0 L 151.0 104.0 L 152.0 106.0 L 152.0 107.0 L 152.0 109.0 L 151.0 109.0 L 149.0 109.0 L 147.0 108.0 L 146.0 106.0 L 146.0 103.0 L 146.0 101.0 L 147.0 101.0 L 149.0 100.0 L 151.0 101.0 L 152.0 102.0 L 153.0 103.0 L 153.0 104.0 L 152.0 105.0 " stroke="black" fill="none" stroke-width="5.0" stroke-linecap="round" stroke-linejoin="round" />
</svg>