<svg xmlns="http://www.w3.org/2000/svg" width="300" height="300" viewBox="0 0 300 300">
<path d="M 147.0 94.0 L 147.0 94.0 L 147.0 94.0 L 147.0 94.0 L 147.0 94.0 L 145.0 96.0 L 142.0 99.0 L 137.0 105.0 L 130.0 110.0 L 126.0 114.0 L 124.0 116.0 L 125.0 116.0 L 129.0 117.0 L 135.0 117.0 L 142.0 117.0 L 149.0 117.0 L 155.0 117.0 L 160.0 117.0 L 163.0 116.0 L 164.0 116.0 L 164.0 115.0 L 164.0 115.0 L 163.0 115.0 L 163.0 115.0 L 163.0 115.0 L 161.0 114.0 L 159.0 112.0 L 157.0 109.0 L 154.0 105.0 L 153.0 100.0 L 151.0 96.0 L 150.0 94.0 L 150.0 93.0 L 150.0 93.0 L 150.0 93.0 " stroke="black" fill="none" stroke-width="5.0" stroke-linecap="round" stroke-linejoin="round" />
<path d="M 134.0 109.0 L 134.0 109.0 L 133.0 109.0 L 133.0 109.0 L 133.0 109.0 L 133.0 111.0 L 134.0 113.0 L 135.0 115.0 L 136.0 116.0 L 136.0 117.0 L 137.0 116.0 L 138.0 113.0 L 140.0 109.0 L 140.0 107.0 L 140.0 107.0 L 141.0 107.0 L 142.0 110.0 L 142.0 112.0 L 143.0 113.0 L 143.0 114.0 L 143.0 114.0 L 143.0 112.0 L 143.0 109.0 L 143.0 107.0 L 143.0 106.0 L 144.0 105.0 L 144.0 107.0 L 145.0 109.0 L 146.0 111.0 L 146.0 112.0 L 146.0 112.0 L 146.0 111.0 L 146.0 109.0 L 146.0 106.0 L 146.0 104.0 L 146.0 104.0 L 147.0 104.0 L 148.0 106.0 L 148.0 107.0 L 149.0 108.0 L 149.0 108.0 L 149.0 108.0 L 149.0 107.0 L 149.0 105.0 L 149.0 103.0 L 148.0 101.0 L 148.0 101.0 L 148.0 103.0 L 149.0 105.0 L 150.0 108.0 L 150.0 109.0 L 151.0 110.0 L 151.0 111.0 L 151.0 111.0 L 151.0 108.0 L 150.0 104.0 L 150.0 101.0 L 149.0 99.0 L 149.0 98.0 L 149.0 97.0 L 149.0 97.0 L 150.0 102.0 L 152.0 106.0 L 153.0 110.0 L 154.0 112.0 L 154.0 113.0 L 154.0 113.0 L 154.0 112.0 L 154.0 110.0 L 153.0 109.0 L 152.0 108.0 L 152.0 107.0 L 152.0 107.0 L 152.0 107.0 L 152.0 107.0 L 152.0 107.0 " stroke="black" fill="none" stroke-width="5.0" stroke-linecap="round" stroke-linejoin="round" />
<path d="M 146.0 109.0 L 146.0 109.0 L 146.0 109.0 L 146.0 110.0 L 146.0 110.0 L 147.0 111.0 L 148.0 111.0 L 149.0 111.0 L 150.0 111.0 L 150.0 111.0 L 150.0 111.0 " stroke="black" fill="none" stroke-width="5.0" stroke-linecap="round" stroke-linejoin="round" />
<path d="M 146.0 141.0 L 146.0 141.0 L 146.0 141.0 L 146.0 142.0 L 146.0 142.0 L 146.0 142.0 L 146.0 142.0 L 146.0 142.0 L 146.0 142.0 L 145.0 142.0 L 144.0 141.0 L 144.0 139.0 L 144.0 138.0 L 144.0 137.0 L 145.0 136.0 L 147.0 136.0 L 149.0 138.0 L 150.0 140.0 L 151.0 141.0 L 151.0 143.0 L 150.0 143.0 L 148.0 143.0 L 146.0 143.0 L 144.0 141.0 L 143.0 139.0 L 143.0 138.0 L 144.0 136.0 L 146.0 136.0 L 148.0 136.0 L 150.0 138.0 L 151.0 140.0 L 151.0 142.0 L 151.0 143.0 L 149.0 144.0 L 147.0 144.0 L 146.0 144.0 L 146.0 142.0 L 146.0 141.0 L 146.0 141.0 " stroke="black" fill="none" stroke-width="5.0" stroke-linecap="round" stroke-linejoin="round" />
<path d="M 144.0 172.0 L 144.0 172.0 L 144.0 172.0 L 144.0 173.0 L 144.0 173.0 L 144.0 173.0 L 144.0 172.0 L 144.0 171.0 L 146.0 171.0 L 147.0 171.0 L 149.0 171.0 L 150.0 171.0 L 150.0 173.0 L 150.0 176.0 L 148.0 177.0 L 146.0 177.0 L 144.0 177.0 L 142.0 174.0 L 142.0 172.0 L 142.0 169.0 L 143.0 168.0 L 146.0 167.0 L 148.0 168.0 L 150.0 169.0 L 151.0 171.0 L 151.0 173.0 L 151.0 174.0 L 149.0 174.0 L 148.0 174.0 L 147.0 174.0 L 146.0 174.0 L 146.0 174.0 " stroke="black" fill="none" stroke-width="5.0" stroke-linecap="round" stroke-linejoin="round" />
<path d="M 145.0 202.0 L 145.0 202.0 L 144.0 202.0 L 144.0 203.0 L 144.0 203.0 L 143.0 204.0 L 143.0 204.0 L 143.0 204.0 L 142.0 204.0 L 141.0 204.0 L 141.0 203.0 L 141.0 202.0 L 141.0 200.0 L 143.0 199.0 L 145.0 198.0 L 147.0 198.0 L 149.0 200.0 L 150.0 203.0 L 150.0 205.0 L 149.0 206.0 L 147.0 206.0 L 145.0 206.0 L 143.0 204.0 L 143.0 202.0 L 143.0 200.0 L 144.0 199.0 L 145.0 198.0 L 146.0 198.0 L 147.0 198.0 " stroke="black" fill="none" stroke-width="5.0" stroke-linecap="round" stroke-linejoin="round" />
</svg>