<svg xmlns="http://www.w3.org/2000/svg" width="300" height="300" viewBox="0 0 300 300">
<path d="M 110.0 111.0 L 110.0 111.0 L 110.0 111.0 L 110.0 111.0 L 116.0 111.0 L 126.0 111.0 L 135.0 111.0 L 141.0 113.0 " stroke="black" fill="none" stroke-width="5.0" stroke-linecap="round" stroke-linejoin="round" />
<path d="M 123.0 119.0 L 123.0 119.0 L 123.0 119.0 L 123.0 119.0 L 123.0 119.0 L 123.0 126.0 L 124.0 143.0 L 125.0 167.0 L 126.0 185.0 L 126.0 198.0 L 126.0 204.0 L 126.0 205.0 L 126.0 204.0 " stroke="black" fill="none" stroke-width="5.0" stroke-linecap="round" stroke-linejoin="round" />
<path d="M 145.0 140.0 L 145.0 140.0 L 145.0 140.0 L 145.0 140.0 L 145.0 139.0 L 150.0 139.0 L 158.0 138.0 L 165.0 137.0 L 169.0 137.0 L 169.0 138.0 " stroke="black" fill="none" stroke-width="5.0" stroke-linecap="round" stroke-linejoin="round" />
<path d="M 146.0 149.0 L 146.0 149.0 L 146.0 148.0 L 146.0 148.0 L 146.0 148.0 L 146.0 151.0 L 146.0 161.0 L 146.0 178.0 L 146.0 193.0 L 149.0 202.0 L 153.0 205.0 L 159.0 204.0 L 166.0 202.0 L 169.0 201.0 " stroke="black" fill="none" stroke-width="5.0" stroke-linecap="round" stroke-linejoin="round" />
<path d="M 147.0 172.0 L 147.0 172.0 L 147.0 172.0 L 149.0 172.0 L 155.0 172.0 L 166.0 172.0 L 168.0 172.0 " stroke="black" fill="none" stroke-width="5.0" stroke-linecap="round" stroke-linejoin="round" />
<path d="M 182.0 143.0 L 181.0 143.0 L 181.0 145.0 L 181.0 151.0 L 182.0 163.0 L 184.0 177.0 L 186.0 190.0 L 188.0 198.0 L 191.0 202.0 L 196.0 204.0 L 201.0 204.0 L 205.0 202.0 L 206.0 202.0 " stroke="black" fill="none" stroke-width="5.0" stroke-linecap="round" stroke-linejoin="round" />
</svg>