<svg xmlns="http://www.w3.org/2000/svg" width="300" height="300" viewBox="0 0 300 300">
<path d="M 115.0 129.0 L 115.0 129.0 L 115.0 130.0 L 115.0 130.0 L 115.0 132.0 L 113.0 135.0 L 108.0 140.0 L 103.0 145.0 L 98.0 149.0 L 96.0 151.0 L 97.0 153.0 L 101.0 156.0 L 105.0 161.0 L 109.0 165.0 L 111.0 168.0 L 111.0 169.0 " stroke="black" fill="none" stroke-width="5.0" stroke-linecap="round" stroke-linejoin="round" />
<path d="M 100.0 152.0 L 100.0 152.0 L 100.0 152.0 L 100.0 152.0 L 103.0 152.0 L 111.0 152.0 L 126.0 152.0 L 142.0 152.0 L 156.0 152.0 L 166.0 152.0 L 174.0 151.0 L 181.0 151.0 L 185.0 150.0 L 188.0 150.0 L 189.0 150.0 L 189.0 150.0 L 189.0 149.0 " stroke="black" fill="none" stroke-width="5.0" stroke-linecap="round" stroke-linejoin="round" />
</svg>