<svg xmlns="http://www.w3.org/2000/svg" width="300" height="300" viewBox="0 0 300 300">
<path d="M 101.0 149.0 L 101.0 149.0 L 101.0 149.0 L 101.0 149.0 L 101.0 149.0 L 103.0 149.0 L 111.0 149.0 L 128.0 149.0 L 146.0 149.0 L 161.0 149.0 L 172.0 149.0 L 179.0 149.0 L 183.0 149.0 L 185.0 149.0 L 185.0 149.0 L 185.0 149.0 " stroke="black" fill="none" stroke-width="5.0" stroke-linecap="round" stroke-linejoin="round" />
<path d="M 180.0 134.0 L 180.0 134.0 L 179.0 134.0 L 179.0 134.0 L 179.0 134.0 L 179.0 136.0 L 183.0 138.0 L 187.0 142.0 L 192.0 146.0 L 195.0 149.0 L 196.0 150.0 L 196.0 150.0 L 196.0 151.0 L 193.0 153.0 L 188.0 158.0 L 181.0 163.0 L 174.0 167.0 " stroke="black" fill="none" stroke-width="5.0" stroke-linecap="round" stroke-linejoin="round" />
</svg>