<svg xmlns="http://www.w3.org/2000/svg" width="300" height="300" viewBox="0 0 300 300">
<path d="M 115.0 107.0 L 115.0 107.0 L 115.0 107.0 L 115.0 107.0 L 119.0 107.0 L 127.0 106.0 L 135.0 106.0 L 140.0 106.0 L 142.0 106.0 L 142.0 106.0 " stroke="black" fill="none" stroke-width="5.0" stroke-linecap="round" stroke-linejoin="round" />
<path d="M 129.0 110.0 L 129.0 110.0 L 129.0 110.0 L 128.0 111.0 L 128.0 113.0 L 128.0 120.0 L 129.0 131.0 L 130.0 140.0 L 130.0 145.0 " stroke="black" fill="none" stroke-width="5.0" stroke-linecap="round" stroke-linejoin="round" />
<path d="M 150.0 142.0 L 150.0 142.0 L 150.0 142.0 L 150.0 142.0 L 150.0 142.0 L 150.0 142.0 L 150.0 141.0 L 150.0 141.0 L 151.0 138.0 L 153.0 132.0 L 155.0 125.0 L 156.0 118.0 L 157.0 113.0 L 159.0 109.0 L 159.0 107.0 L 160.0 107.0 L 160.0 107.0 L 160.0 109.0 L 162.0 114.0 L 165.0 121.0 L 168.0 128.0 L 170.0 134.0 L 172.0 137.0 L 173.0 138.0 L 173.0 136.0 L 174.0 128.0 L 176.0 119.0 L 178.0 111.0 L 180.0 106.0 L 182.0 105.0 L 182.0 105.0 L 184.0 111.0 L 187.0 118.0 L 189.0 127.0 L 192.0 135.0 L 194.0 142.0 L 196.0 146.0 L 196.0 146.0 L 196.0 146.0 " stroke="black" fill="none" stroke-width="5.0" stroke-linecap="round" stroke-linejoin="round" />
</svg>