<svg xmlns="http://www.w3.org/2000/svg" width="300" height="300" viewBox="0 0 300 300">
<path d="M 105.0 116.0 L 105.0 116.0 L 105.0 116.0 L 105.0 116.0 L 105.0 118.0 L 106.0 127.0 L 110.0 145.0 L 113.0 164.0 L 115.0 176.0 L 118.0 180.0 L 120.0 180.0 L 123.0 177.0 L 126.0 171.0 L 130.0 163.0 L 134.0 153.0 L 137.0 142.0 L 140.0 130.0 L 143.0 120.0 L 144.0 116.0 L 145.0 115.0 L 145.0 116.0 L 145.0 116.0 L 145.0 117.0 " stroke="black" fill="none" stroke-width="5.0" stroke-linecap="round" stroke-linejoin="round" />
<path d="M 162.0 120.0 L 162.0 120.0 L 161.0 120.0 L 161.0 121.0 L 164.0 121.0 L 171.0 121.0 L 179.0 121.0 L 185.0 120.0 L 187.0 120.0 " stroke="black" fill="none" stroke-width="5.0" stroke-linecap="round" stroke-linejoin="round" />
<path d="M 173.0 126.0 L 173.0 126.0 L 173.0 125.0 L 174.0 125.0 L 174.0 125.0 L 174.0 125.0 L 175.0 130.0 L 175.0 142.0 L 176.0 158.0 L 177.0 171.0 L 178.0 176.0 L 178.0 176.0 L 177.0 175.0 " stroke="black" fill="none" stroke-width="5.0" stroke-linecap="round" stroke-linejoin="round" />
<path d="M 160.0 181.0 L 160.0 181.0 L 160.0 181.0 L 160.0 181.0 L 163.0 181.0 L 170.0 181.0 L 179.0 181.0 L 187.0 181.0 L 190.0 180.0 " stroke="black" fill="none" stroke-width="5.0" stroke-linecap="round" stroke-linejoin="round" />
</svg>