<svg xmlns="http://www.w3.org/2000/svg" width="300" height="300" viewBox="0 0 300 300">
<path d="M 149.0 100.0 L 149.0 100.0 L 149.0 100.0 L 149.0 100.0 L 148.0 102.0 L 144.0 105.0 L 139.0 112.0 L 132.0 119.0 L 131.0 121.0 " stroke="black" fill="none" stroke-width="5.0" stroke-linecap="round" stroke-linejoin="round" />
<path d="M 151.0 101.0 L 151.0 101.0 L 151.0 101.0 L 151.0 101.0 L 151.0 101.0 L 153.0 104.0 L 159.0 109.0 L 166.0 115.0 L 170.0 120.0 L 171.0 121.0 " stroke="black" fill="none" stroke-width="5.0" stroke-linecap="round" stroke-linejoin="round" />
<path d="M 149.0 104.0 L 149.0 104.0 L 149.0 104.0 L 149.0 106.0 L 149.0 110.0 L 149.0 119.0 L 149.0 133.0 L 150.0 148.0 L 150.0 161.0 L 150.0 164.0 L 150.0 179.0 L 150.0 186.0 L 150.0 190.0 L 150.0 192.0 L 150.0 192.0 L 149.0 192.0 " stroke="black" fill="none" stroke-width="5.0" stroke-linecap="round" stroke-linejoin="round" />
<path d="M 136.0 176.0 L 136.0 176.0 L 136.0 176.0 L 136.0 176.0 L 137.0 179.0 L 140.0 185.0 L 144.0 192.0 L 148.0 197.0 L 149.0 199.0 L 151.0 199.0 L 153.0 196.0 L 158.0 190.0 L 163.0 184.0 L 168.0 179.0 L 169.0 179.0 " stroke="black" fill="none" stroke-width="5.0" stroke-linecap="round" stroke-linejoin="round" />
</svg>