<svg xmlns="http://www.w3.org/2000/svg" width="300" height="300" viewBox="0 0 300 300">
<path d="M 190.0 138.0 L 190.0 138.0 L 190.0 138.0 L 190.0 137.0 L 190.0 137.0 L 190.0 138.0 L 190.0 142.0 L 190.0 151.0 L 190.0 160.0 L 190.0 165.0 L 191.0 166.0 L 191.0 166.0 " stroke="black" fill="none" stroke-width="5.0" stroke-linecap="round" stroke-linejoin="round" />
<path d="M 192.0 137.0 L 192.0 137.0 L 192.0 137.0 L 192.0 137.0 L 192.0 137.0 L 195.0 137.0 L 198.0 139.0 L 202.0 142.0 L 206.0 144.0 L 208.0 147.0 L 210.0 149.0 L 210.0 151.0 L 208.0 153.0 L 205.0 156.0 L 201.0 159.0 L 197.0 163.0 L 194.0 165.0 L 191.0 167.0 " stroke="black" fill="none" stroke-width="5.0" stroke-linecap="round" stroke-linejoin="round" />
<path d="M 194.0 142.0 L 194.0 142.0 L 194.0 142.0 L 194.0 142.0 L 194.0 142.0 L 194.0 144.0 L 194.0 149.0 L 194.0 155.0 L 194.0 159.0 L 195.0 161.0 L 195.0 160.0 L 195.0 155.0 L 195.0 150.0 L 195.0 145.0 L 195.0 142.0 L 195.0 141.0 L 195.0 140.0 L 196.0 141.0 L 196.0 145.0 L 197.0 150.0 L 198.0 154.0 L 198.0 157.0 L 198.0 158.0 L 199.0 158.0 L 199.0 153.0 L 200.0 149.0 L 200.0 146.0 L 200.0 145.0 L 201.0 146.0 L 202.0 147.0 L 202.0 149.0 L 203.0 150.0 L 204.0 152.0 L 204.0 153.0 L 204.0 153.0 L 204.0 153.0 L 204.0 151.0 " stroke="black" fill="none" stroke-width="5.0" stroke-linecap="round" stroke-linejoin="round" />
<path d="M 111.0 151.0 L 111.0 151.0 L 111.0 151.0 L 111.0 151.0 L 111.0 152.0 L 111.0 152.0 L 111.0 152.0 L 110.0 152.0 L 109.0 152.0 L 108.0 152.0 L 108.0 151.0 L 108.0 150.0 L 108.0 149.0 L 110.0 149.0 L 111.0 149.0 L 113.0 150.0 L 114.0 152.0 L 114.0 154.0 L 114.0 155.0 L 113.0 155.0 L 111.0 155.0 L 110.0 154.0 L 109.0 153.0 L 109.0 151.0 L 111.0 150.0 L 112.0 149.0 L 113.0 149.0 L 114.0 150.0 L 114.0 151.0 L 113.0 153.0 L 112.0 154.0 L 112.0 154.0 " stroke="black" fill="none" stroke-width="5.0" stroke-linecap="round" stroke-linejoin="round" />
<path d="M 141.0 153.0 L 141.0 153.0 L 141.0 153.0 L 141.0 153.0 L 141.0 153.0 L 141.0 153.0 L 141.0 154.0 L 140.0 154.0 L 138.0 154.0 L 137.0 154.0 L 137.0 153.0 L 137.0 152.0 L 137.0 151.0 L 139.0 150.0 L 141.0 150.0 L 142.0 152.0 L 143.0 154.0 L 143.0 156.0 L 142.0 158.0 L 141.0 158.0 L 139.0 158.0 L 139.0 156.0 L 139.0 154.0 L 139.0 153.0 L 140.0 153.0 L 141.0 153.0 L 142.0 153.0 " stroke="black" fill="none" stroke-width="5.0" stroke-linecap="round" stroke-linejoin="round" />
<path d="M 166.0 154.0 L 166.0 154.0 L 166.0 154.0 L 167.0 154.0 L 167.0 154.0 L 167.0 155.0 L 167.0 155.0 L 165.0 156.0 L 164.0 156.0 L 163.0 156.0 L 163.0 154.0 L 163.0 153.0 L 164.0 152.0 L 166.0 152.0 L 168.0 152.0 L 169.0 154.0 L 170.0 156.0 L 170.0 158.0 L 168.0 159.0 L 167.0 159.0 L 165.0 158.0 L 165.0 157.0 L 165.0 156.0 L 165.0 156.0 L 165.0 156.0 L 166.0 156.0 " stroke="black" fill="none" stroke-width="5.0" stroke-linecap="round" stroke-linejoin="round" />
</svg>