<svg xmlns="http://www.w3.org/2000/svg" width="300" height="300" viewBox="0 0 300 300">
<path d="M 121.0 118.0 L 121.0 118.0 L 121.0 118.0 L 121.0 118.0 L 121.0 118.0 L 121.0 118.0 L 121.0 120.0 L 121.0 121.0 L 121.0 121.0 L 121.0 121.0 L 121.0 121.0 L 121.0 121.0 L 120.0 120.0 L 120.0 119.0 L 120.0 119.0 L 120.0 118.0 L 120.0 118.0 L 120.0 118.0 L 120.0 118.0 " stroke="black" fill="none" stroke-width="5.0" stroke-linecap="round" stroke-linejoin="round" />
<path d="M 121.0 140.0 L 121.0 140.0 L 121.0 140.0 L 121.0 140.0 L 120.0 140.0 L 120.0 143.0 L 121.0 152.0 L 122.0 165.0 L 122.0 179.0 L 123.0 187.0 L 123.0 190.0 L 123.0 188.0 L 122.0 186.0 " stroke="black" fill="none" stroke-width="5.0" stroke-linecap="round" stroke-linejoin="round" />
<path d="M 148.0 142.0 L 148.0 142.0 L 148.0 142.0 L 148.0 142.0 L 149.0 144.0 L 152.0 154.0 L 156.0 169.0 L 160.0 181.0 L 163.0 187.0 L 165.0 187.0 L 167.0 183.0 L 170.0 177.0 L 173.0 167.0 L 174.0 155.0 L 176.0 145.0 L 177.0 140.0 L 177.0 139.0 L 177.0 139.0 L 177.0 141.0 " stroke="black" fill="none" stroke-width="5.0" stroke-linecap="round" stroke-linejoin="round" />
</svg>