<svg xmlns="http://www.w3.org/2000/svg" width="300" height="300" viewBox="0 0 300 300">
<path d="M 105.0 118.0 L 105.0 118.0 L 104.0 118.0 L 104.0 121.0 L 105.0 130.0 L 108.0 145.0 L 112.0 163.0 L 117.0 175.0 L 121.0 181.0 L 125.0 183.0 L 128.0 183.0 L 132.0 179.0 L 135.0 171.0 L 138.0 160.0 L 141.0 149.0 L 144.0 138.0 L 147.0 128.0 L 148.0 120.0 L 149.0 116.0 L 150.0 115.0 L 150.0 116.0 L 150.0 116.0 L 150.0 117.0 L 150.0 118.0 " stroke="black" fill="none" stroke-width="5.0" stroke-linecap="round" stroke-linejoin="round" />
<path d="M 160.0 118.0 L 161.0 118.0 L 162.0 118.0 L 163.0 119.0 L 166.0 119.0 L 171.0 119.0 L 175.0 119.0 L 178.0 119.0 L 179.0 119.0 " stroke="black" fill="none" stroke-width="5.0" stroke-linecap="round" stroke-linejoin="round" />
<path d="M 169.0 120.0 L 169.0 120.0 L 169.0 121.0 L 169.0 122.0 L 169.0 123.0 L 169.0 128.0 L 169.0 139.0 L 170.0 153.0 L 171.0 167.0 L 171.0 177.0 L 172.0 184.0 L 173.0 185.0 L 173.0 184.0 L 170.0 181.0 " stroke="black" fill="none" stroke-width="5.0" stroke-linecap="round" stroke-linejoin="round" />
<path d="M 159.0 187.0 L 159.0 187.0 L 159.0 187.0 L 159.0 187.0 L 163.0 187.0 L 170.0 187.0 L 178.0 186.0 L 180.0 186.0 " stroke="black" fill="none" stroke-width="5.0" stroke-linecap="round" stroke-linejoin="round" />
<path d="M 191.0 121.0 L 191.0 121.0 L 191.0 121.0 L 192.0 121.0 L 194.0 121.0 L 198.0 121.0 L 202.0 121.0 L 205.0 121.0 L 206.0 121.0 " stroke="black" fill="none" stroke-width="5.0" stroke-linecap="round" stroke-linejoin="round" />
<path d="M 198.0 124.0 L 198.0 124.0 L 198.0 125.0 L 198.0 125.0 L 198.0 127.0 L 199.0 133.0 L 199.0 145.0 L 200.0 160.0 L 201.0 172.0 L 202.0 178.0 L 202.0 180.0 L 202.0 180.0 L 202.0 180.0 " stroke="black" fill="none" stroke-width="5.0" stroke-linecap="round" stroke-linejoin="round" />
<path d="M 193.0 185.0 L 193.0 185.0 L 193.0 185.0 L 194.0 185.0 L 197.0 185.0 L 203.0 185.0 L 209.0 185.0 L 212.0 185.0 " stroke="black" fill="none" stroke-width="5.0" stroke-linecap="round" stroke-linejoin="round" />
</svg>