<svg xmlns="http://www.w3.org/2000/svg" width="300" height="300" viewBox="0 0 300 300">
<path d="M 142.0 122.0 L 142.0 122.0 L 142.0 122.0 L 141.0 123.0 L 141.0 129.0 L 141.0 146.0 L 141.0 167.0 L 141.0 181.0 L 142.0 183.0 " stroke="black" fill="none" stroke-width="5.0" stroke-linecap="round" stroke-linejoin="round" />
<path d="M 145.0 127.0 L 145.0 127.0 L 145.0 127.0 L 145.0 127.0 L 148.0 127.0 L 155.0 127.0 L 164.0 130.0 L 172.0 134.0 L 175.0 138.0 L 175.0 141.0 L 168.0 144.0 L 158.0 149.0 L 148.0 154.0 L 145.0 154.0 " stroke="black" fill="none" stroke-width="5.0" stroke-linecap="round" stroke-linejoin="round" />
<path d="M 154.0 197.0 L 152.0 198.0 L 148.0 200.0 L 143.0 200.0 L 136.0 200.0 L 129.0 196.0 L 120.0 188.0 L 112.0 177.0 L 106.0 164.0 L 104.0 151.0 L 104.0 139.0 L 108.0 127.0 L 116.0 119.0 L 128.0 114.0 L 143.0 111.0 L 157.0 112.0 L 172.0 118.0 L 183.0 128.0 L 189.0 137.0 L 191.0 147.0 L 191.0 158.0 L 190.0 167.0 L 185.0 175.0 L 177.0 184.0 L 165.0 192.0 L 155.0 196.0 " stroke="black" fill="none" stroke-width="5.0" stroke-linecap="round" stroke-linejoin="round" />
</svg>