<svg xmlns="http://www.w3.org/2000/svg" width="300" height="300" viewBox="0 0 300 300">
<path d="M 109.0 185.0 L 109.0 184.0 L 108.0 183.0 L 108.0 180.0 L 108.0 175.0 L 108.0 168.0 L 108.0 159.0 L 111.0 149.0 L 115.0 138.0 L 119.0 131.0 L 124.0 124.0 L 128.0 119.0 L 133.0 115.0 L 139.0 112.0 L 144.0 110.0 L 148.0 109.0 L 152.0 109.0 L 155.0 110.0 L 159.0 112.0 L 164.0 117.0 L 168.0 124.0 L 172.0 134.0 L 176.0 145.0 L 178.0 158.0 L 179.0 168.0 L 180.0 178.0 L 180.0 187.0 L 180.0 191.0 L 180.0 192.0 L 180.0 191.0 " stroke="black" fill="none" stroke-width="5.0" stroke-linecap="round" stroke-linejoin="round" />
</svg>