<svg xmlns="http://www.w3.org/2000/svg" width="300" height="300" viewBox="0 0 300 300">
<path d="M 116.0 143.0 L 116.0 143.0 L 116.0 143.0 L 115.0 143.0 L 115.0 143.0 L 115.0 143.0 L 117.0 143.0 L 121.0 143.0 L 125.0 142.0 L 129.0 141.0 L 132.0 141.0 L 133.0 141.0 L 134.0 141.0 L 134.0 141.0 L 134.0 143.0 L 135.0 147.0 L 136.0 154.0 L 137.0 162.0 L 140.0 171.0 L 142.0 177.0 L 145.0 180.0 L 147.0 181.0 L 150.0 180.0 L 153.0 176.0 L 157.0 170.0 L 162.0 161.0 L 168.0 150.0 L 175.0 138.0 L 179.0 129.0 L 181.0 125.0 L 182.0 123.0 L 182.0 123.0 L 182.0 123.0 L 182.0 123.0 " stroke="black" fill="none" stroke-width="5.0" stroke-linecap="round" stroke-linejoin="round" />
<path d="M 148.0 107.0 L 148.0 107.0 L 148.0 107.0 L 148.0 107.0 L 149.0 109.0 L 151.0 111.0 L 152.0 114.0 L 152.0 117.0 L 150.0 119.0 L 147.0 120.0 L 145.0 121.0 L 144.0 121.0 L 146.0 122.0 L 151.0 124.0 L 154.0 126.0 L 156.0 129.0 L 156.0 132.0 L 153.0 135.0 L 147.0 137.0 L 140.0 137.0 " stroke="black" fill="none" stroke-width="5.0" stroke-linecap="round" stroke-linejoin="round" />
</svg>