<svg xmlns="http://www.w3.org/2000/svg" width="300" height="300" viewBox="0 0 300 300">
<path d="M 159.0 98.0 L 159.0 98.0 L 159.0 98.0 L 159.0 98.0 L 159.0 98.0 L 159.0 98.0 L 158.0 98.0 L 155.0 99.0 L 153.0 102.0 L 151.0 106.0 L 149.0 111.0 L 149.0 121.0 L 149.0 126.0 L 149.0 132.0 L 149.0 138.0 L 149.0 144.0 L 149.0 149.0 L 149.0 154.0 L 149.0 159.0 L 149.0 163.0 L 148.0 168.0 L 148.0 172.0 L 148.0 177.0 L 147.0 181.0 L 147.0 184.0 L 146.0 188.0 L 145.0 191.0 L 144.0 194.0 L 143.0 196.0 L 141.0 196.0 L 139.0 197.0 L 135.0 197.0 L 132.0 197.0 L 129.0 195.0 " stroke="black" fill="none" stroke-width="5.0" stroke-linecap="round" stroke-linejoin="round" />
<path d="M 152.0 134.0 L 152.0 134.0 L 152.0 134.0 L 152.0 133.0 L 151.0 133.0 L 149.0 133.0 L 146.0 134.0 L 142.0 137.0 L 137.0 141.0 L 132.0 147.0 L 129.0 153.0 L 129.0 160.0 L 134.0 167.0 L 141.0 171.0 L 149.0 174.0 L 156.0 174.0 L 163.0 171.0 L 168.0 166.0 L 171.0 162.0 L 173.0 158.0 L 173.0 153.0 L 172.0 149.0 L 168.0 145.0 L 164.0 140.0 L 159.0 136.0 L 155.0 133.0 L 151.0 132.0 L 149.0 131.0 L 148.0 131.0 L 148.0 131.0 " stroke="black" fill="none" stroke-width="5.0" stroke-linecap="round" stroke-linejoin="round" />
</svg>