<svg xmlns="http://www.w3.org/2000/svg" width="300" height="300" viewBox="0 0 300 300">
<path d="M 127.0 103.0 L 127.0 103.0 L 128.0 103.0 L 129.0 103.0 L 134.0 103.0 L 144.0 103.0 L 158.0 102.0 L 171.0 101.0 L 180.0 100.0 L 183.0 99.0 L 183.0 99.0 " stroke="black" fill="none" stroke-width="5.0" stroke-linecap="round" stroke-linejoin="round" />
<path d="M 128.0 107.0 L 128.0 107.0 L 128.0 106.0 L 128.0 106.0 L 128.0 105.0 L 128.0 109.0 L 128.0 118.0 L 128.0 135.0 L 126.0 157.0 L 125.0 174.0 L 124.0 186.0 L 123.0 195.0 L 123.0 202.0 L 123.0 206.0 L 122.0 207.0 L 122.0 207.0 L 122.0 207.0 L 121.0 205.0 L 118.0 202.0 L 115.0 198.0 L 112.0 194.0 L 109.0 189.0 L 107.0 186.0 L 106.0 184.0 L 105.0 184.0 L 104.0 184.0 L 102.0 185.0 L 100.0 188.0 L 98.0 192.0 L 95.0 195.0 " stroke="black" fill="none" stroke-width="5.0" stroke-linecap="round" stroke-linejoin="round" />
</svg>