<svg xmlns="http://www.w3.org/2000/svg" width="300" height="300" viewBox="0 0 300 300">
<path d="M 124.0 127.0 L 124.0 127.0 L 124.0 127.0 L 126.0 127.0 L 134.0 127.0 L 146.0 126.0 L 158.0 126.0 L 167.0 126.0 L 173.0 127.0 L 177.0 127.0 L 178.0 127.0 L 179.0 127.0 L 179.0 127.0 " stroke="black" fill="none" stroke-width="5.0" stroke-linecap="round" stroke-linejoin="round" />
<path d="M 122.0 152.0 L 122.0 152.0 L 122.0 152.0 L 123.0 152.0 L 130.0 152.0 L 143.0 152.0 L 157.0 151.0 L 169.0 150.0 L 176.0 148.0 L 178.0 148.0 L 177.0 148.0 " stroke="black" fill="none" stroke-width="5.0" stroke-linecap="round" stroke-linejoin="round" />
<path d="M 121.0 167.0 L 121.0 167.0 L 121.0 167.0 L 122.0 167.0 L 128.0 167.0 L 140.0 167.0 L 154.0 167.0 L 167.0 167.0 L 176.0 167.0 L 180.0 167.0 L 180.0 167.0 L 180.0 167.0 " stroke="black" fill="none" stroke-width="5.0" stroke-linecap="round" stroke-linejoin="round" />
</svg>