<svg xmlns="http://www.w3.org/2000/svg" width="300" height="300" viewBox="0 0 300 300">
<path d="M 128.0 120.0 L 128.0 120.0 L 128.0 120.0 L 128.0 120.0 L 128.0 120.0 L 129.0 121.0 L 136.0 124.0 L 147.0 128.0 L 158.0 133.0 L 166.0 137.0 L 170.0 139.0 L 170.0 140.0 L 170.0 140.0 L 169.0 141.0 L 168.0 142.0 L 164.0 145.0 L 159.0 149.0 L 153.0 154.0 L 144.0 161.0 L 135.0 167.0 L 129.0 171.0 L 128.0 172.0 " stroke="black" fill="none" stroke-width="5.0" stroke-linecap="round" stroke-linejoin="round" />
<path d="M 121.0 190.0 L 121.0 190.0 L 121.0 190.0 L 121.0 190.0 L 122.0 190.0 L 128.0 190.0 L 140.0 190.0 L 155.0 189.0 L 166.0 189.0 L 173.0 188.0 L 177.0 188.0 L 178.0 187.0 L 178.0 187.0 " stroke="black" fill="none" stroke-width="5.0" stroke-linecap="round" stroke-linejoin="round" />
</svg>