<svg xmlns="http://www.w3.org/2000/svg" width="300" height="300" viewBox="0 0 300 300">
<path d="M 155.0 118.0 L 155.0 118.0 L 155.0 118.0 L 155.0 118.0 L 156.0 118.0 L 156.0 118.0 L 156.0 119.0 L 153.0 123.0 L 147.0 130.0 L 139.0 139.0 L 131.0 146.0 L 126.0 150.0 L 125.0 151.0 L 128.0 152.0 L 134.0 155.0 L 142.0 159.0 L 152.0 164.0 L 159.0 168.0 L 163.0 169.0 L 164.0 169.0 L 164.0 169.0 " stroke="black" fill="none" stroke-width="5.0" stroke-linecap="round" stroke-linejoin="round" />
<path d="M 120.0 188.0 L 120.0 188.0 L 120.0 188.0 L 120.0 188.0 L 121.0 188.0 L 124.0 187.0 L 133.0 187.0 L 146.0 187.0 L 159.0 187.0 L 170.0 187.0 L 175.0 187.0 L 176.0 187.0 L 174.0 187.0 " stroke="black" fill="none" stroke-width="5.0" stroke-linecap="round" stroke-linejoin="round" />
</svg>