<svg xmlns="http://www.w3.org/2000/svg" width="300" height="300" viewBox="0 0 300 300">
<path d="M 139.0 116.0 L 139.0 116.0 L 139.0 117.0 L 139.0 117.0 L 142.0 120.0 L 149.0 126.0 L 159.0 132.0 L 169.0 137.0 L 173.0 139.0 L 173.0 139.0 L 173.0 139.0 L 171.0 141.0 L 167.0 144.0 L 161.0 149.0 L 153.0 155.0 L 145.0 161.0 L 140.0 164.0 " stroke="black" fill="none" stroke-width="5.0" stroke-linecap="round" stroke-linejoin="round" />
<path d="M 131.0 182.0 L 131.0 182.0 L 131.0 182.0 L 131.0 182.0 L 135.0 182.0 L 144.0 182.0 L 157.0 181.0 L 167.0 180.0 L 171.0 180.0 L 172.0 180.0 L 170.0 181.0 " stroke="black" fill="none" stroke-width="5.0" stroke-linecap="round" stroke-linejoin="round" />
<path d="M 125.0 196.0 L 125.0 196.0 L 125.0 196.0 L 125.0 196.0 L 130.0 196.0 L 140.0 196.0 L 152.0 196.0 L 164.0 196.0 L 171.0 196.0 L 174.0 196.0 L 174.0 196.0 L 173.0 197.0 " stroke="black" fill="none" stroke-width="5.0" stroke-linecap="round" stroke-linejoin="round" />
</svg>