<svg xmlns="http://www.w3.org/2000/svg" width="300" height="300" viewBox="0 0 300 300">
<path d="M 121.0 112.0 L 121.0 114.0 L 121.0 116.0 L 121.0 122.0 L 121.0 135.0 L 121.0 157.0 L 122.0 179.0 L 122.0 194.0 L 123.0 199.0 L 123.0 200.0 " stroke="black" fill="none" stroke-width="5.0" stroke-linecap="round" stroke-linejoin="round" />
<path d="M 126.0 109.0 L 126.0 109.0 L 126.0 109.0 L 128.0 109.0 L 134.0 108.0 L 143.0 108.0 L 151.0 109.0 L 157.0 111.0 L 161.0 112.0 L 163.0 113.0 L 164.0 113.0 L 165.0 115.0 L 167.0 122.0 L 170.0 137.0 L 172.0 155.0 L 174.0 173.0 L 176.0 187.0 L 177.0 195.0 L 178.0 200.0 L 179.0 202.0 L 178.0 202.0 L 177.0 201.0 " stroke="black" fill="none" stroke-width="5.0" stroke-linecap="round" stroke-linejoin="round" />
</svg>