<svg xmlns="http://www.w3.org/2000/svg" width="300" height="300" viewBox="0 0 300 300">
<path d="M 122.0 135.0 L 122.0 135.0 L 123.0 135.0 L 125.0 135.0 L 132.0 135.0 L 144.0 134.0 L 155.0 133.0 L 164.0 132.0 L 169.0 132.0 L 170.0 132.0 L 170.0 132.0 " stroke="black" fill="none" stroke-width="5.0" stroke-linecap="round" stroke-linejoin="round" />
<path d="M 120.0 163.0 L 120.0 163.0 L 121.0 163.0 L 125.0 163.0 L 136.0 162.0 L 149.0 161.0 L 162.0 160.0 L 170.0 159.0 L 172.0 159.0 L 172.0 159.0 " stroke="black" fill="none" stroke-width="5.0" stroke-linecap="round" stroke-linejoin="round" />
<path d="M 165.0 117.0 L 165.0 117.0 L 165.0 117.0 L 165.0 117.0 L 165.0 118.0 L 163.0 121.0 L 159.0 130.0 L 149.0 148.0 L 136.0 169.0 L 127.0 182.0 L 124.0 187.0 L 123.0 189.0 " stroke="black" fill="none" stroke-width="5.0" stroke-linecap="round" stroke-linejoin="round" />
</svg>