<svg xmlns="http://www.w3.org/2000/svg" width="300" height="300" viewBox="0 0 300 300">
<path d="M 212.0 90.0 L 212.0 90.0 L 211.0 90.0 L 210.0 91.0 L 209.0 91.0 L 207.0 94.0 L 203.0 98.0 L 198.0 106.0 L 190.0 115.0 L 181.0 126.0 L 172.0 134.0 L 164.0 143.0 L 156.0 150.0 L 150.0 156.0 L 145.0 162.0 L 140.0 168.0 L 135.0 172.0 L 131.0 177.0 L 127.0 182.0 L 123.0 186.0 L 118.0 190.0 L 115.0 194.0 L 112.0 196.0 L 110.0 199.0 L 108.0 202.0 L 106.0 204.0 L 105.0 206.0 L 104.0 207.0 L 104.0 208.0 L 104.0 208.0 L 104.0 208.0 L 103.0 209.0 " stroke="black" fill="none" stroke-width="5.0" stroke-linecap="round" stroke-linejoin="round" />
</svg>