<svg xmlns="http://www.w3.org/2000/svg" width="300" height="300" viewBox="0 0 300 300">
<path d="M 121.0 110.0 L 121.0 110.0 L 122.0 110.0 L 124.0 111.0 L 135.0 111.0 L 151.0 111.0 L 166.0 111.0 L 175.0 111.0 L 179.0 111.0 L 178.0 112.0 " stroke="black" fill="none" stroke-width="5.0" stroke-linecap="round" stroke-linejoin="round" />
<path d="M 115.0 151.0 L 115.0 151.0 L 115.0 151.0 L 115.0 151.0 L 118.0 151.0 L 130.0 151.0 L 149.0 151.0 L 165.0 151.0 L 176.0 151.0 L 180.0 151.0 L 181.0 150.0 " stroke="black" fill="none" stroke-width="5.0" stroke-linecap="round" stroke-linejoin="round" />
<path d="M 148.0 129.0 L 148.0 129.0 L 148.0 129.0 L 148.0 129.0 L 148.0 136.0 L 149.0 152.0 L 150.0 171.0 L 150.0 183.0 L 151.0 188.0 L 151.0 189.0 L 151.0 189.0 " stroke="black" fill="none" stroke-width="5.0" stroke-linecap="round" stroke-linejoin="round" />
</svg>