<svg xmlns="http://www.w3.org/2000/svg" width="300" height="300" viewBox="0 0 300 300">
<path d="M 122.0 126.0 L 122.0 125.0 L 122.0 124.0 L 122.0 123.0 L 122.0 121.0 L 122.0 120.0 L 122.0 119.0 L 122.0 119.0 L 122.0 122.0 L 122.0 130.0 L 122.0 143.0 L 123.0 159.0 L 126.0 173.0 L 133.0 184.0 L 142.0 190.0 L 151.0 191.0 L 160.0 191.0 L 168.0 188.0 L 173.0 183.0 L 178.0 175.0 L 180.0 165.0 L 182.0 154.0 L 183.0 143.0 L 184.0 135.0 L 184.0 131.0 L 184.0 130.0 L 184.0 130.0 L 184.0 130.0 L 184.0 129.0 L 184.0 129.0 " stroke="black" fill="none" stroke-width="5.0" stroke-linecap="round" stroke-linejoin="round" />
</svg>