<svg xmlns="http://www.w3.org/2000/svg" width="300" height="300" viewBox="0 0 300 300">
<path d="M 140.0 118.0 L 140.0 118.0 L 140.0 118.0 L 140.0 118.0 L 139.0 120.0 L 137.0 124.0 L 130.0 135.0 L 119.0 149.0 L 110.0 159.0 L 105.0 163.0 L 102.0 165.0 L 102.0 165.0 L 102.0 165.0 L 102.0 166.0 L 105.0 169.0 L 109.0 172.0 L 114.0 176.0 L 121.0 182.0 L 129.0 187.0 L 137.0 190.0 L 141.0 191.0 L 142.0 192.0 L 142.0 192.0 L 141.0 191.0 " stroke="black" fill="none" stroke-width="5.0" stroke-linecap="round" stroke-linejoin="round" />
<path d="M 155.0 125.0 L 155.0 125.0 L 155.0 125.0 L 156.0 125.0 L 156.0 126.0 L 156.0 127.0 L 156.0 128.0 L 154.0 132.0 L 151.0 136.0 L 148.0 142.0 L 144.0 147.0 L 140.0 152.0 L 136.0 156.0 L 133.0 160.0 L 131.0 162.0 L 129.0 163.0 L 128.0 164.0 L 128.0 164.0 L 128.0 164.0 L 128.0 164.0 L 128.0 164.0 L 129.0 164.0 L 130.0 164.0 L 133.0 165.0 L 138.0 168.0 L 145.0 171.0 L 152.0 176.0 L 158.0 180.0 L 163.0 184.0 L 167.0 187.0 L 169.0 189.0 L 171.0 190.0 L 171.0 191.0 L 171.0 191.0 L 171.0 191.0 " stroke="black" fill="none" stroke-width="5.0" stroke-linecap="round" stroke-linejoin="round" />
</svg>