<svg xmlns="http://www.w3.org/2000/svg" width="300" height="300" viewBox="0 0 300 300">
<path d="M 161.0 107.0 L 161.0 107.0 L 161.0 107.0 L 162.0 107.0 L 163.0 107.0 L 163.0 107.0 L 163.0 107.0 L 161.0 107.0 L 159.0 107.0 L 156.0 109.0 L 153.0 110.0 L 151.0 112.0 L 149.0 115.0 L 147.0 119.0 L 146.0 123.0 L 146.0 129.0 L 146.0 135.0 L 146.0 141.0 L 146.0 147.0 L 147.0 152.0 L 148.0 157.0 L 148.0 162.0 L 148.0 166.0 L 148.0 171.0 L 147.0 175.0 L 147.0 180.0 L 146.0 184.0 L 145.0 187.0 L 144.0 191.0 L 142.0 194.0 L 140.0 197.0 L 137.0 199.0 L 133.0 201.0 L 128.0 201.0 L 127.0 201.0 " stroke="black" fill="none" stroke-width="5.0" stroke-linecap="round" stroke-linejoin="round" />
</svg>