<svg xmlns="http://www.w3.org/2000/svg" width="300" height="300" viewBox="0 0 300 300">
<path d="M 87.0 89.0 L 87.0 89.0 L 87.0 89.0 L 86.0 89.0 L 86.0 89.0 L 86.0 89.0 L 86.0 92.0 L 86.0 96.0 L 86.0 102.0 L 86.0 108.0 L 86.0 114.0 L 86.0 120.0 L 86.0 125.0 L 87.0 130.0 L 87.0 135.0 L 87.0 140.0 L 87.0 145.0 L 87.0 150.0 L 87.0 154.0 L 87.0 158.0 L 87.0 162.0 L 87.0 165.0 L 87.0 169.0 L 87.0 173.0 L 87.0 176.0 L 87.0 180.0 L 87.0 184.0 L 87.0 187.0 L 87.0 191.0 L 87.0 193.0 L 87.0 195.0 L 87.0 198.0 L 87.0 200.0 L 87.0 202.0 L 87.0 205.0 L 87.0 208.0 L 87.0 211.0 L 87.0 213.0 L 87.0 215.0 L 87.0 217.0 L 87.0 217.0 L 87.0 217.0 L 87.0 217.0 " stroke="black" fill="none" stroke-width="5.0" stroke-linecap="round" stroke-linejoin="round" />
<path d="M 91.0 85.0 L 91.0 85.0 L 91.0 86.0 L 92.0 86.0 L 93.0 87.0 L 96.0 88.0 L 100.0 91.0 L 105.0 94.0 L 110.0 96.0 L 116.0 99.0 L 120.0 101.0 L 125.0 104.0 L 129.0 106.0 L 133.0 108.0 L 138.0 110.0 L 142.0 113.0 L 146.0 114.0 L 150.0 116.0 L 153.0 118.0 L 156.0 119.0 L 159.0 121.0 L 163.0 123.0 L 166.0 125.0 L 170.0 127.0 L 173.0 129.0 L 176.0 130.0 L 179.0 132.0 L 182.0 133.0 L 185.0 135.0 L 188.0 137.0 L 190.0 138.0 L 192.0 139.0 L 194.0 140.0 L 196.0 141.0 L 198.0 142.0 L 200.0 143.0 L 203.0 144.0 L 204.0 145.0 L 206.0 145.0 L 207.0 146.0 L 208.0 147.0 L 209.0 147.0 L 210.0 148.0 L 211.0 148.0 L 211.0 148.0 L 211.0 148.0 " stroke="black" fill="none" stroke-width="5.0" stroke-linecap="round" stroke-linejoin="round" />
<path d="M 89.0 219.0 L 89.0 219.0 L 89.0 219.0 L 89.0 219.0 L 89.0 219.0 L 89.0 219.0 L 91.0 218.0 L 93.0 217.0 L 97.0 216.0 L 102.0 214.0 L 108.0 212.0 L 113.0 209.0 L 118.0 206.0 L 124.0 204.0 L 129.0 201.0 L 134.0 199.0 L 139.0 197.0 L 142.0 195.0 L 144.0 194.0 L 146.0 193.0 L 149.0 191.0 L 153.0 189.0 L 158.0 186.0 L 162.0 184.0 L 165.0 183.0 L 168.0 182.0 L 171.0 181.0 L 174.0 180.0 L 177.0 178.0 L 180.0 176.0 L 183.0 174.0 L 186.0 172.0 L 189.0 170.0 L 192.0 169.0 L 194.0 168.0 L 196.0 167.0 L 197.0 166.0 L 199.0 165.0 L 201.0 164.0 L 202.0 162.0 L 204.0 161.0 L 205.0 160.0 L 207.0 159.0 L 208.0 158.0 L 209.0 157.0 L 210.0 156.0 L 211.0 155.0 L 212.0 154.0 L 213.0 153.0 L 214.0 153.0 L 215.0 152.0 L 215.0 152.0 L 216.0 152.0 L 216.0 152.0 L 216.0 152.0 L 216.0 152.0 L 216.0 152.0 L 216.0 152.0 " stroke="black" fill="none" stroke-width="5.0" stroke-linecap="round" stroke-linejoin="round" />
<path d="M 98.125 99.375 L 98.125 99.375 L 98.125 99.375 L 98.125 100.0 L 98.125 100.0 L 98.125 100.0 L 98.125 100.625 L 98.125 100.625 L 98.125 101.25 L 98.125 101.875 L 98.125 103.125 L 98.125 104.375 L 98.125 105.0 L 98.125 105.625 L 98.125 106.25 L 98.125 106.25 L 98.125 106.25 L 98.125 105.625 L 97.5 104.375 L 97.5 103.125 L 96.875 101.875 L 96.25 100.0 L 96.25 98.75 L 95.625 97.5 L 95.0 96.25 L 95.0 95.625 L 95.0 95.625 L 94.375 95.0 L 94.375 95.0 L 94.375 95.0 L 94.375 94.375 L 94.375 94.375 L 94.375 94.375 L 94.375 96.25 L 94.375 98.75 L 94.375 102.5 L 94.375 105.0 L 94.375 106.25 L 94.375 106.875 L 94.375 106.25 L 94.375 103.75 L 94.375 100.0 L 94.375 96.875 L 94.375 94.375 L 94.375 92.5 L 94.375 91.875 L 94.375 91.875 L 94.375 91.875 L 94.375 92.5 L 93.75 94.375 L 93.75 98.75 L 93.75 103.125 L 93.75 107.5 L 93.75 112.5 L 94.375 118.75 L 95.625 124.375 L 96.25 126.875 L 96.25 127.5 L 96.25 126.25 L 96.25 123.125 L 96.25 118.75 L 95.625 114.375 L 95.625 110.625 L 95.625 107.5 L 95.625 104.375 L 95.625 103.125 L 95.625 102.5 L 95.625 105.625 L 95.625 111.25 L 95.625 117.5 L 96.25 123.75 L 96.25 130.625 L 96.25 139.375 L 96.875 148.125 L 97.5 155.0 L 97.5 158.75 L 97.5 161.25 L 97.5 163.75 L 97.5 166.25 L 97.5 168.125 L 98.125 170.0 L 98.125 171.25 L 98.125 173.125 L 98.125 174.375 L 98.125 176.875 L 98.125 178.75 L 98.125 180.0 L 98.125 181.25 L 98.125 181.25 L 98.125 181.25 L 98.125 181.25 " stroke="black" fill="none" stroke-width="13.0" stroke-linecap="round" stroke-linejoin="round" />
<path d="M 190.625 150.0 L 190.625 150.0 L 190.625 150.0 L 190.625 150.0 L 190.625 150.0 L 190.625 150.625 L 191.875 150.625 L 193.75 150.625 L 195.0 150.625 L 196.25 151.25 L 197.5 151.25 L 198.125 151.25 L 199.375 151.875 L 200.625 151.875 L 201.25 151.875 L 201.875 151.875 L 202.5 152.5 L 202.5 152.5 L 203.125 152.5 L 203.125 152.5 L 203.75 152.5 L 204.375 152.5 L 204.375 152.5 L 204.375 152.5 L 205.0 152.5 L 205.0 152.5 L 205.625 153.125 L 205.625 153.125 L 206.25 153.125 L 206.25 153.125 L 206.875 153.125 " stroke="black" fill="none" stroke-width="13.0" stroke-linecap="round" stroke-linejoin="round" />
<path d="M 206.25 151.25 L 206.25 151.25 L 206.25 151.25 L 206.25 151.25 L 206.25 151.25 L 205.625 151.25 L 205.625 151.25 L 205.625 151.25 L 205.625 151.25 L 205.625 151.25 L 205.625 151.25 L 205.625 151.25 L 205.625 151.25 " stroke="black" fill="none" stroke-width="13.0" stroke-linecap="round" stroke-linejoin="round" />
<path d="M 198.125 148.125 L 198.125 148.125 L 198.125 148.75 L 198.125 148.75 L 198.125 149.375 L 198.125 149.375 L 198.75 150.0 L 198.75 150.0 L 199.375 150.625 L 200.0 150.625 L 200.625 150.625 L 201.25 151.25 L 201.875 151.25 L 202.5 151.25 L 203.125 151.25 L 203.75 151.25 L 204.375 151.25 L 205.0 151.25 L 205.625 151.25 L 206.25 151.875 L 206.25 151.875 L 206.875 151.875 L 207.5 151.875 L 207.5 151.875 L 208.125 151.875 L 208.75 151.875 L 208.75 151.875 L 208.75 151.875 L 208.75 151.875 L 208.75 151.875 L 208.75 151.875 L 209.375 152.5 L 209.375 152.5 L 209.375 152.5 L 209.375 152.5 L 209.375 152.5 L 209.375 152.5 L 209.375 152.5 L 209.375 152.5 " stroke="black" fill="none" stroke-width="13.0" stroke-linecap="round" stroke-linejoin="round" />
<path d="M 97.5 150.0 L 97.5 148.125 L 97.5 146.25 L 97.5 145.0 L 97.5 145.0 L 97.5 146.875 L 97.5 151.25 L 96.875 157.5 L 96.875 164.375 L 96.875 171.875 L 96.875 178.125 L 97.5 181.25 L 97.5 181.25 L 97.5 180.625 L 97.5 178.75 L 98.125 174.375 L 98.125 168.125 L 98.125 161.875 L 98.125 155.0 L 98.125 148.125 L 98.125 143.125 L 97.5 139.375 L 96.875 136.25 L 96.875 134.375 L 96.25 131.875 L 96.25 130.0 L 96.25 128.75 L 96.25 128.125 L 96.25 128.125 L 96.25 127.5 L 96.25 127.5 L 96.25 127.5 L 96.25 127.5 L 96.25 129.375 L 96.25 133.75 L 96.25 140.625 L 95.625 149.375 L 95.625 158.125 L 95.625 163.75 L 95.625 166.875 L 96.25 168.75 L 96.875 170.0 L 96.875 171.875 L 96.875 173.125 L 96.875 174.375 L 96.875 175.0 L 96.875 176.25 L 96.875 177.5 L 96.875 179.375 L 96.875 180.625 L 96.875 181.875 L 96.875 182.5 L 96.875 183.75 L 96.875 185.0 L 96.875 186.25 L 96.875 187.5 L 96.875 188.75 L 96.875 190.625 L 96.875 192.5 L 96.875 193.75 L 96.875 194.375 L 96.875 195.625 L 96.875 196.25 L 96.875 197.5 L 96.875 199.375 L 96.875 200.625 L 96.875 201.875 L 96.875 202.5 L 96.875 203.125 L 96.875 204.375 L 96.875 205.0 L 96.875 205.625 L 96.875 205.625 L 96.875 206.25 L 96.875 206.875 L 96.25 206.875 L 96.25 206.875 L 96.25 207.5 L 96.25 207.5 L 96.25 207.5 L 96.25 207.5 L 96.25 207.5 L 96.25 207.5 L 96.25 207.5 L 96.25 207.5 L 96.25 207.5 L 96.25 207.5 L 95.625 207.5 L 95.625 207.5 L 95.625 208.125 L 95.625 208.125 L 95.625 208.125 L 95.625 208.125 L 95.625 208.125 L 95.625 208.125 L 95.0 208.75 L 95.0 208.75 L 95.0 208.75 L 95.0 209.375 L 95.0 209.375 L 94.375 209.375 L 94.375 209.375 L 94.375 209.375 L 94.375 210.0 L 94.375 210.0 L 94.375 210.0 L 94.375 210.0 L 94.375 210.0 L 94.375 210.0 L 94.375 210.0 L 94.375 210.0 L 94.375 210.0 L 94.375 210.0 L 94.375 210.0 L 94.375 210.0 L 94.375 210.0 L 94.375 209.375 L 95.625 208.75 L 96.875 206.875 L 98.75 205.0 L 100.625 203.125 L 101.875 201.875 L 103.125 201.25 L 104.375 200.0 L 105.625 200.0 L 106.25 199.375 L 106.875 198.75 L 107.5 198.75 L 108.125 198.125 L 108.75 197.5 L 110.0 196.875 L 111.25 196.875 L 111.875 196.25 L 113.125 195.625 L 113.75 195.625 L 114.375 195.625 L 115.0 195.0 L 115.625 195.0 L 116.25 195.0 L 116.875 194.375 L 116.875 194.375 L 117.5 194.375 L 117.5 194.375 L 116.25 195.0 L 115.0 195.625 L 113.125 196.875 L 111.25 198.125 L 109.375 199.375 L 107.5 200.0 L 106.25 200.625 L 105.625 201.25 L 104.375 202.5 L 103.125 203.125 L 103.125 203.75 L 103.125 203.75 L 103.125 203.75 L 103.125 203.75 L 103.125 203.75 L 104.375 203.75 L 105.625 203.125 L 106.875 202.5 L 108.75 201.875 L 110.625 201.25 L 112.5 200.625 L 114.375 200.0 L 116.25 200.0 L 117.5 199.375 L 119.375 198.75 L 120.625 198.125 L 121.875 197.5 L 123.125 196.875 L 124.375 196.25 L 126.25 195.625 L 127.5 195.0 L 128.75 194.375 L 130.0 194.375 L 131.25 193.125 L 133.125 192.5 L 134.375 191.875 L 136.25 191.25 L 137.5 190.625 L 139.375 190.0 L 140.625 189.375 L 142.5 188.75 L 143.75 188.125 L 145.0 187.5 L 146.25 186.875 L 146.875 186.875 L 147.5 186.25 L 148.75 185.625 L 149.375 185.625 L 150.0 185.0 L 151.25 184.375 L 151.875 184.375 L 152.5 183.75 L 153.125 183.75 L 154.375 183.125 L 155.0 182.5 L 155.625 182.5 L 156.25 181.875 L 157.5 181.25 L 158.125 181.25 L 159.375 180.625 L 160.625 180.0 L 161.25 179.375 L 162.5 178.125 L 163.75 177.5 L 165.0 176.25 L 166.25 175.0 L 168.125 173.75 L 169.375 173.125 L 170.625 171.875 L 171.25 171.25 L 171.875 170.625 L 173.125 170.0 L 173.75 169.375 L 174.375 168.75 L 175.0 168.125 L 175.625 167.5 L 176.25 167.5 L 176.875 166.875 L 177.5 166.25 L 178.125 165.625 L 179.375 165.0 L 180.0 164.375 L 180.625 163.75 L 181.25 163.125 L 181.875 162.5 L 182.5 162.5 L 183.125 161.875 L 184.375 161.25 L 185.0 160.625 L 186.25 160.625 L 186.875 160.0 L 188.125 159.375 L 188.75 159.375 L 190.0 158.75 L 190.625 158.75 L 191.25 158.75 L 191.875 158.125 L 192.5 158.125 L 193.125 158.125 L 193.75 158.125 L 193.75 158.125 L 194.375 158.125 L 194.375 158.125 L 194.375 158.125 L 195.0 158.125 L 195.0 158.125 L 195.625 158.125 L 195.625 158.125 L 196.25 158.125 L 196.25 158.125 L 196.25 158.125 L 196.25 158.125 L 196.25 158.125 " stroke="black" fill="none" stroke-width="16.0" stroke-linecap="round" stroke-linejoin="round" />
<path d="M 102.5 103.75 L 102.5 103.75 L 102.5 103.75 L 102.5 103.75 L 102.5 103.75 L 102.5 103.75 L 102.5 104.375 L 103.75 105.0 L 107.5 106.875 L 112.5 110.0 L 117.5 113.75 L 120.625 116.25 L 123.125 117.5 L 124.375 118.125 L 126.25 118.75 L 127.5 119.375 L 128.75 120.625 L 130.625 121.25 L 132.5 122.5 L 134.375 123.125 L 136.875 123.75 L 138.125 124.375 L 138.125 124.375 L 138.125 124.375 L 136.875 124.375 L 133.75 123.125 L 130.0 121.875 L 126.875 119.375 L 123.125 116.875 L 119.375 114.375 L 116.25 111.875 L 113.75 109.375 L 111.875 106.875 L 111.25 105.625 L 110.625 105.0 L 110.625 105.0 L 110.625 105.0 L 110.625 105.0 L 110.625 105.0 L 112.5 105.0 L 115.0 106.25 L 118.125 106.875 L 121.25 108.125 L 124.375 110.0 L 126.875 111.875 L 129.375 113.75 L 131.25 115.0 L 133.75 116.25 L 135.625 117.5 L 136.875 118.125 L 138.75 119.375 L 140.0 120.625 L 141.25 121.875 L 142.5 122.5 L 144.375 123.125 L 146.25 123.75 L 148.125 125.0 L 150.0 126.25 L 151.25 127.5 L 153.125 128.125 L 154.375 129.375 L 155.625 130.0 L 156.875 130.625 L 158.75 131.875 L 160.0 132.5 L 161.25 133.125 L 162.5 133.75 L 163.75 134.375 L 165.625 135.0 L 166.875 135.625 L 168.125 136.25 L 170.0 136.875 L 171.25 137.5 L 172.5 137.5 L 173.75 138.125 L 175.0 138.75 L 176.25 139.375 L 176.875 139.375 L 178.125 140.0 L 178.75 140.625 L 179.375 140.625 L 180.0 141.25 L 180.0 141.25 L 180.0 141.25 L 180.0 141.25 L 180.0 141.25 L 180.0 141.25 L 178.75 141.25 L 176.875 141.25 L 175.0 140.0 L 173.125 139.375 L 171.25 138.75 L 169.375 137.5 L 168.75 137.5 L 168.75 137.5 L 169.375 137.5 L 171.875 139.375 L 174.375 140.625 L 176.875 141.875 L 178.75 143.125 L 180.625 143.75 L 182.5 145.0 L 184.375 146.25 L 186.25 147.5 L 188.125 148.75 L 188.75 149.375 L 188.75 149.375 L 188.75 149.375 L 188.75 150.0 L 189.375 150.0 L 189.375 150.0 L 189.375 150.0 L 189.375 150.0 L 189.375 150.0 L 189.375 150.0 L 189.375 150.0 L 189.375 150.0 L 189.375 150.0 L 189.375 150.0 L 189.375 149.375 L 189.375 148.75 L 188.75 148.125 L 188.125 147.5 L 186.875 146.875 L 185.625 146.25 L 185.0 145.625 L 184.375 145.625 L 183.75 145.625 L 183.75 145.625 L 183.75 145.625 L 183.125 145.625 L 181.875 145.625 L 179.375 146.875 L 175.625 147.5 L 170.625 147.5 L 163.75 147.5 L 156.25 147.5 L 149.375 146.25 L 144.375 144.375 L 141.25 142.5 L 138.75 139.375 L 136.25 136.875 L 133.125 133.75 L 130.625 131.25 L 128.125 128.125 L 126.25 125.0 L 123.75 122.5 L 121.25 120.0 L 119.375 118.75 L 117.5 118.75 L 115.625 122.5 L 113.75 129.375 L 111.875 139.375 L 110.625 152.5 L 110.0 164.375 L 109.375 173.75 L 108.75 176.25 L 108.75 175.625 L 108.75 171.25 L 108.75 161.875 L 108.125 150.625 L 106.875 138.125 L 105.625 125.625 L 104.375 118.75 L 104.375 117.5 L 104.375 120.0 L 103.75 127.5 L 104.375 141.25 L 105.625 157.5 L 106.875 174.375 L 106.875 187.5 L 107.5 191.25 L 108.125 190.625 L 108.75 186.25 L 108.75 174.375 L 108.75 156.875 L 108.75 138.125 L 110.625 123.75 L 113.125 118.125 L 114.375 117.5 L 114.375 120.625 L 114.375 128.125 L 113.75 140.0 L 112.5 155.0 L 111.25 171.25 L 110.0 183.75 L 110.0 185.0 L 110.0 181.875 L 111.875 174.375 L 114.375 161.25 L 116.25 148.75 L 118.75 136.25 L 121.25 128.75 L 122.5 128.125 L 122.5 135.0 L 123.125 151.25 L 123.125 168.125 L 122.5 183.75 L 121.25 190.625 L 121.25 190.625 L 121.25 188.125 L 123.75 180.0 L 125.0 165.625 L 126.875 148.75 L 129.375 133.75 L 131.25 129.375 L 131.875 130.0 L 131.875 137.5 L 131.875 152.5 L 130.625 169.375 L 130.0 183.125 L 129.375 188.125 L 129.375 187.5 L 131.25 183.125 L 134.375 173.125 L 138.125 160.0 L 142.5 148.125 L 145.0 142.5 L 145.625 141.875 L 145.625 143.75 L 145.0 152.5 L 144.375 165.625 L 142.5 176.875 L 141.875 181.25 L 141.875 181.25 L 143.125 177.5 L 146.25 168.75 L 149.375 158.125 L 151.25 148.125 L 151.875 141.875 L 152.5 140.625 L 152.5 141.875 L 152.5 148.125 L 152.5 160.0 L 152.5 170.0 L 152.5 175.0 L 152.5 175.625 L 153.125 173.75 L 155.0 168.125 L 156.875 159.375 L 158.125 151.25 L 159.375 147.5 L 160.625 148.125 L 162.5 154.375 L 165.0 160.0 L 166.875 163.75 L 168.75 164.375 L 170.0 163.75 L 171.25 161.25 L 171.875 157.5 L 172.5 155.0 L 173.125 152.5 L 173.125 151.875 L 173.125 151.875 L 173.125 151.875 L 172.5 153.125 L 170.0 153.75 L 166.875 155.0 L 161.875 155.0 L 156.25 152.5 L 151.25 148.125 L 148.125 143.75 L 146.25 140.625 L 145.625 136.875 L 145.0 133.125 L 145.0 132.5 L 145.0 132.5 L 148.125 135.625 L 154.375 141.875 L 161.25 147.5 L 167.5 151.875 L 170.0 152.5 L 170.0 152.5 L 169.375 152.5 L 166.875 150.625 L 161.875 146.25 L 156.875 140.625 L 151.25 136.25 L 147.5 133.75 L 145.625 134.375 L 145.625 136.25 L 145.625 136.875 L 146.25 136.875 L 146.25 136.875 " stroke="black" fill="none" stroke-width="16.0" stroke-linecap="round" stroke-linejoin="round" />
<path d="M 93.75 98.75 L 93.75 98.75 L 93.75 98.75 L 93.75 98.75 L 93.75 98.75 L 93.125 98.75 L 93.125 98.75 L 93.125 98.75 L 93.125 98.125 L 93.125 97.5 L 93.125 96.875 L 93.125 95.625 L 93.125 95.0 L 93.125 93.75 L 93.125 93.125 L 93.125 92.5 L 93.125 91.25 L 92.5 90.625 L 92.5 90.0 L 92.5 89.375 L 92.5 88.75 L 92.5 88.125 L 92.5 88.125 L 92.5 88.125 L 92.5 88.125 L 92.5 88.125 L 92.5 88.125 L 92.5 88.125 L 92.5 88.125 L 92.5 88.125 L 92.5 88.125 L 92.5 88.125 L 92.5 88.125 L 92.5 88.125 L 91.875 88.125 L 91.875 87.5 L 91.25 87.5 L 91.25 86.875 L 90.625 86.25 L 90.625 86.25 L 90.0 86.25 L 90.0 85.625 L 90.0 85.625 L 90.0 85.625 L 90.0 85.625 L 90.0 85.625 L 89.375 85.625 L 89.375 85.625 L 89.375 85.0 L 89.375 85.0 L 89.375 85.0 L 89.375 85.0 L 88.75 85.0 L 88.75 85.0 L 88.75 84.375 L 88.75 84.375 L 88.75 84.375 L 88.75 84.375 L 88.75 84.375 L 88.75 84.375 L 88.75 85.625 L 88.75 86.25 L 88.75 87.5 L 88.75 89.375 L 88.75 90.0 L 88.75 91.25 L 88.75 91.875 L 88.75 92.5 L 88.75 93.125 L 89.375 93.75 L 89.375 93.75 L 89.375 94.375 L 89.375 94.375 L 89.375 94.375 L 89.375 94.375 L 89.375 94.375 L 89.375 94.375 L 89.375 93.75 L 89.375 93.75 L 89.375 93.125 L 89.375 91.875 L 88.75 91.25 L 88.75 90.0 L 88.75 88.75 L 88.75 87.5 L 88.125 86.875 L 88.125 86.25 L 88.125 85.625 L 88.125 85.0 L 88.125 85.0 L 88.125 85.0 L 88.125 85.0 L 88.125 85.0 L 88.125 85.0 L 88.125 85.0 L 88.125 85.0 L 88.125 85.0 L 88.125 85.625 L 88.125 85.625 L 88.125 86.875 L 88.125 88.125 L 88.125 89.375 L 88.125 90.625 L 88.125 91.875 L 88.125 93.125 L 88.125 93.75 L 88.125 94.375 L 88.125 94.375 L 88.75 94.375 L 88.75 94.375 L 88.75 94.375 L 88.75 94.375 L 88.75 94.375 L 88.75 94.375 L 88.75 94.375 L 88.75 94.375 " stroke="black" fill="none" stroke-width="7.0" stroke-linecap="round" stroke-linejoin="round" />
</svg>