<svg xmlns="http://www.w3.org/2000/svg" width="300" height="300" viewBox="0 0 300 300">
<path d="M 83.5 88.0 L 83.5 88.0 L 83.5 88.0 L 83.5 88.0 L 83.5 88.0 L 85.0 87.5 L 87.5 87.5 L 91.0 87.5 L 95.0 88.0 L 100.0 88.0 L 103.5 88.5 L 107.0 88.5 L 109.0 89.0 L 111.0 89.0 L 113.5 89.5 L 116.0 89.5 L 119.5 89.5 L 124.5 89.0 L 128.5 88.5 L 131.5 88.5 L 134.0 88.5 L 136.5 88.5 L 139.0 89.0 L 142.0 89.0 L 145.5 89.5 L 148.0 89.5 L 151.0 89.5 L 153.0 89.5 L 155.0 89.5 L 157.5 89.5 L 160.5 89.5 L 163.5 89.5 L 166.5 89.5 L 169.5 89.5 L 172.0 89.5 L 174.0 89.5 L 176.5 89.0 L 179.0 89.0 L 181.5 89.0 L 183.5 89.0 L 186.0 89.0 L 188.5 88.5 L 191.0 88.5 L 192.5 88.5 L 194.0 88.5 L 195.0 88.5 L 196.5 88.5 L 198.5 88.5 L 200.5 88.0 L 202.0 88.0 L 203.5 87.5 L 204.5 87.5 L 206.0 87.5 L 207.0 87.5 L 208.0 87.5 L 209.0 87.5 L 210.0 87.5 L 210.5 87.5 L 211.0 87.5 L 212.0 87.5 L 213.0 87.5 L 213.5 87.5 L 214.0 87.5 L 214.0 87.5 L 214.5 87.5 L 214.5 87.5 L 214.5 87.5 L 214.5 87.5 L 214.5 87.5 " stroke="black" fill="none" stroke-width="5.0" stroke-linecap="round" stroke-linejoin="round" />
<path d="M 82.5 91.0 L 82.5 91.0 L 82.5 91.0 L 83.0 91.5 L 83.5 92.0 L 84.0 93.0 L 85.0 95.0 L 87.0 98.5 L 89.5 104.0 L 93.0 111.0 L 96.0 117.0 L 99.0 122.5 L 102.0 127.5 L 104.5 132.0 L 107.0 137.5 L 110.0 144.0 L 112.0 148.5 L 114.5 152.0 L 116.5 155.0 L 118.0 158.5 L 120.0 162.5 L 121.5 166.5 L 123.5 169.5 L 125.0 172.5 L 127.0 175.0 L 128.5 177.5 L 129.5 180.5 L 130.5 183.5 L 132.0 186.0 L 133.0 188.5 L 134.5 190.0 L 136.0 191.5 L 137.0 193.5 L 138.5 196.0 L 139.5 198.5 L 141.0 201.0 L 142.0 202.5 L 143.0 204.5 L 144.5 206.5 L 145.0 208.0 L 146.0 209.5 L 147.0 211.0 L 147.5 212.0 L 148.0 212.5 L 148.5 213.5 L 149.0 214.0 L 149.0 214.5 L 149.5 215.0 L 149.5 216.0 L 150.0 216.0 L 150.0 216.5 L 150.0 216.5 L 150.0 216.5 " stroke="black" fill="none" stroke-width="5.0" stroke-linecap="round" stroke-linejoin="round" />
<path d="M 215.5 90.0 L 215.5 90.0 L 215.5 90.0 L 215.5 90.0 L 215.5 90.0 L 215.0 90.5 L 214.0 92.5 L 212.5 95.5 L 210.5 100.0 L 208.0 104.0 L 206.0 108.0 L 204.5 111.5 L 203.0 114.5 L 201.5 118.0 L 200.0 121.5 L 198.0 125.5 L 196.5 129.5 L 195.0 133.5 L 194.0 137.0 L 193.0 140.5 L 191.5 144.0 L 190.5 147.0 L 189.0 151.0 L 187.5 154.5 L 186.0 157.5 L 185.0 160.0 L 183.5 163.0 L 182.0 166.0 L 180.0 169.5 L 178.5 172.5 L 177.5 174.5 L 177.0 176.5 L 176.0 178.0 L 175.0 180.0 L 174.0 182.5 L 172.5 184.5 L 171.5 186.5 L 170.5 188.0 L 169.5 189.5 L 168.5 190.5 L 167.5 192.0 L 166.5 194.0 L 165.5 196.0 L 164.5 197.5 L 163.5 199.0 L 162.5 200.5 L 161.5 202.5 L 160.5 204.0 L 159.5 205.5 L 159.0 206.5 L 158.5 207.0 L 158.5 208.0 L 158.0 209.0 L 157.5 210.0 L 156.5 211.0 L 156.0 212.0 L 155.5 212.5 L 155.5 213.0 L 155.0 213.5 L 154.5 214.0 L 154.5 214.5 L 154.0 215.0 L 153.5 215.5 L 153.5 216.0 L 153.5 216.0 L 153.5 216.0 L 153.0 216.5 L 153.0 216.5 L 153.0 217.0 L 153.0 217.0 L 153.0 217.0 L 153.0 217.0 L 153.0 217.0 L 153.0 217.0 L 153.0 217.0 L 153.0 217.0 L 153.0 217.0 " stroke="black" fill="none" stroke-width="5.0" stroke-linecap="round" stroke-linejoin="round" />
</svg>