<svg xmlns="http://www.w3.org/2000/svg" width="300" height="300" viewBox="0 0 300 300">
<path d="M 149.0 94.0 L 149.0 94.0 L 148.0 94.0 L 147.0 94.0 L 146.0 95.0 L 144.0 96.0 L 141.0 97.0 L 136.0 99.0 L 131.0 101.0 L 124.0 105.0 L 118.0 108.0 L 113.0 112.0 L 110.0 115.0 L 107.0 120.0 L 104.0 125.0 L 102.0 130.0 L 101.0 135.0 L 100.0 140.0 L 99.0 145.0 L 99.0 152.0 L 99.0 158.0 L 99.0 164.0 L 100.0 169.0 L 102.0 175.0 L 104.0 180.0 L 106.0 186.0 L 109.0 191.0 L 113.0 194.0 L 117.0 198.0 L 124.0 201.0 L 130.0 204.0 L 137.0 207.0 L 143.0 209.0 L 148.0 211.0 L 154.0 211.0 L 161.0 211.0 L 167.0 211.0 L 174.0 211.0 L 181.0 208.0 L 187.0 205.0 L 193.0 201.0 L 198.0 197.0 L 201.0 194.0 L 204.0 189.0 L 206.0 183.0 L 208.0 176.0 L 209.0 169.0 L 210.0 161.0 L 211.0 154.0 L 211.0 146.0 L 210.0 139.0 L 209.0 133.0 L 207.0 127.0 L 205.0 122.0 L 202.0 118.0 L 198.0 113.0 L 195.0 108.0 L 192.0 104.0 L 189.0 102.0 L 185.0 99.0 L 180.0 98.0 L 175.0 96.0 L 170.0 95.0 L 165.0 94.0 L 156.0 93.0 L 153.0 93.0 L 150.0 93.0 L 147.0 94.0 L 146.0 95.0 L 145.0 95.0 " stroke="black" fill="none" stroke-width="5.0" stroke-linecap="round" stroke-linejoin="round" />
</svg>