<svg xmlns="http://www.w3.org/2000/svg" width="300" height="300" viewBox="0 0 300 300">
<path d="M 148.0 87.0 L 148.0 87.0 L 148.0 87.0 L 147.0 87.0 L 147.0 88.0 L 146.0 89.0 L 145.0 91.0 L 143.0 95.0 L 141.0 100.0 L 139.0 106.0 L 136.0 111.0 L 133.0 116.0 L 130.0 122.0 L 126.0 128.0 L 124.0 133.0 L 121.0 139.0 L 118.0 144.0 L 116.0 148.0 L 114.0 152.0 L 111.0 157.0 L 110.0 160.0 L 108.0 163.0 L 107.0 166.0 L 106.0 169.0 L 105.0 172.0 L 104.0 176.0 L 102.0 179.0 L 101.0 182.0 L 100.0 185.0 L 99.0 187.0 L 98.0 189.0 L 97.0 191.0 L 96.0 193.0 L 95.0 195.0 L 95.0 197.0 L 94.0 199.0 L 93.0 201.0 L 92.0 202.0 L 92.0 203.0 L 91.0 205.0 L 90.0 206.0 L 90.0 207.0 L 89.0 208.0 L 89.0 209.0 L 89.0 209.0 L 88.0 210.0 L 88.0 211.0 L 88.0 212.0 L 87.0 212.0 " stroke="black" fill="none" stroke-width="5.0" stroke-linecap="round" stroke-linejoin="round" />
<path d="M 149.0 84.0 L 149.0 84.0 L 149.0 84.0 L 149.0 85.0 L 149.0 85.0 L 150.0 87.0 L 152.0 92.0 L 157.0 99.0 L 162.0 108.0 L 167.0 117.0 L 172.0 126.0 L 176.0 133.0 L 180.0 139.0 L 184.0 145.0 L 187.0 151.0 L 189.0 156.0 L 191.0 161.0 L 193.0 166.0 L 194.0 170.0 L 196.0 174.0 L 198.0 178.0 L 200.0 183.0 L 202.0 186.0 L 203.0 190.0 L 205.0 193.0 L 206.0 197.0 L 208.0 200.0 L 210.0 203.0 L 212.0 206.0 L 213.0 209.0 L 215.0 212.0 L 216.0 214.0 L 217.0 216.0 L 218.0 217.0 L 218.0 217.0 L 218.0 217.0 L 218.0 216.0 " stroke="black" fill="none" stroke-width="5.0" stroke-linecap="round" stroke-linejoin="round" />
<path d="M 90.0 214.0 L 90.0 214.0 L 90.0 214.0 L 90.0 214.0 L 90.0 214.0 L 91.0 214.0 L 92.0 214.0 L 96.0 214.0 L 101.0 214.0 L 107.0 214.0 L 112.0 214.0 L 116.0 214.0 L 121.0 214.0 L 126.0 214.0 L 131.0 214.0 L 136.0 214.0 L 141.0 214.0 L 145.0 214.0 L 149.0 214.0 L 152.0 214.0 L 156.0 214.0 L 159.0 213.0 L 162.0 213.0 L 166.0 213.0 L 169.0 213.0 L 172.0 213.0 L 176.0 213.0 L 179.0 213.0 L 181.0 213.0 L 184.0 213.0 L 186.0 213.0 L 189.0 213.0 L 190.0 213.0 L 192.0 213.0 L 194.0 214.0 L 195.0 214.0 L 197.0 214.0 L 198.0 214.0 L 199.0 215.0 L 200.0 215.0 L 201.0 215.0 L 202.0 216.0 L 204.0 216.0 L 205.0 216.0 L 206.0 216.0 L 208.0 216.0 L 209.0 216.0 L 210.0 217.0 L 211.0 217.0 L 213.0 217.0 L 213.0 217.0 L 214.0 217.0 L 215.0 218.0 L 216.0 218.0 L 216.0 218.0 L 216.0 218.0 " stroke="black" fill="none" stroke-width="5.0" stroke-linecap="round" stroke-linejoin="round" />
</svg>