<svg xmlns="http://www.w3.org/2000/svg" width="300" height="300" viewBox="0 0 300 300">
<path d="M 85.71428571428574 87.14285714285715 L 85.71428571428574 86.42857142857146 L 85.71428571428574 86.42857142857146 L 85.71428571428574 85.71428571428574 L 85.71428571428574 85.71428571428574 L 85.71428571428574 86.42857142857146 L 85.71428571428574 89.28571428571432 L 85.71428571428574 94.28571428571432 L 85.71428571428574 100.71428571428574 L 85.71428571428574 107.85714285714288 L 85.71428571428574 114.28571428571432 L 86.42857142857146 120.71428571428574 L 86.42857142857146 125.71428571428574 L 86.42857142857146 130.00000000000006 L 86.42857142857146 134.28571428571433 L 86.42857142857146 139.28571428571433 L 86.42857142857146 143.5714285714286 L 86.42857142857146 148.5714285714286 L 86.42857142857146 152.8571428571429 L 86.42857142857146 156.42857142857144 L 86.42857142857146 160.00000000000006 L 86.42857142857146 163.5714285714286 L 86.42857142857146 167.14285714285717 L 86.42857142857146 171.42857142857144 L 85.71428571428574 175.00000000000006 L 85.71428571428574 178.5714285714286 L 85.71428571428574 182.14285714285717 L 85.71428571428574 184.28571428571433 L 85.71428571428574 186.42857142857144 L 85.71428571428574 189.28571428571433 L 85.71428571428574 192.14285714285722 L 85.71428571428574 195.00000000000006 L 85.71428571428574 197.8571428571429 L 85.71428571428574 200.00000000000006 L 85.71428571428574 201.4285714285715 L 85.71428571428574 203.5714285714286 L 85.71428571428574 206.4285714285715 L 85.71428571428574 208.5714285714286 L 85.71428571428574 210.71428571428578 L 85.71428571428574 212.14285714285722 L 85.71428571428574 213.5714285714286 L 85.71428571428574 215.71428571428578 L 85.71428571428574 217.14285714285722 L 85.71428571428574 217.8571428571429 L 85.71428571428574 219.28571428571433 L 85.71428571428574 219.28571428571433 L 85.71428571428574 219.28571428571433 " stroke="black" fill="none" stroke-width="5.0" stroke-linecap="round" stroke-linejoin="round" />
<path d="M 87.85714285714288 86.42857142857146 L 87.85714285714288 86.42857142857146 L 87.85714285714288 85.71428571428574 L 87.85714285714288 85.71428571428574 L 88.5714285714286 85.71428571428574 L 90.71428571428574 85.00000000000001 L 95.00000000000001 85.00000000000001 L 99.28571428571432 85.00000000000001 L 104.28571428571432 85.71428571428574 L 108.5714285714286 86.42857142857146 L 112.14285714285718 87.85714285714288 L 115.71428571428574 87.85714285714288 L 118.5714285714286 87.85714285714288 L 121.42857142857146 87.85714285714288 L 124.28571428571432 87.14285714285715 L 127.14285714285718 86.42857142857146 L 130.71428571428572 86.42857142857146 L 133.5714285714286 86.42857142857146 L 137.14285714285717 86.42857142857146 L 140.71428571428572 85.71428571428574 L 143.5714285714286 85.71428571428574 L 145.71428571428572 85.71428571428574 L 147.8571428571429 85.71428571428574 L 149.28571428571433 86.42857142857146 L 150.71428571428572 86.42857142857146 L 151.42857142857144 86.42857142857146 L 152.8571428571429 86.42857142857146 L 154.28571428571433 85.71428571428574 L 155.71428571428572 85.71428571428574 L 157.14285714285717 85.71428571428574 L 159.28571428571433 85.71428571428574 L 160.71428571428572 85.71428571428574 L 162.8571428571429 85.71428571428574 L 165.00000000000006 85.71428571428574 L 167.14285714285717 85.71428571428574 L 168.5714285714286 85.71428571428574 L 170.71428571428572 85.71428571428574 L 172.8571428571429 85.71428571428574 L 174.28571428571433 85.71428571428574 L 176.42857142857144 85.71428571428574 L 177.8571428571429 85.71428571428574 L 179.28571428571433 85.71428571428574 L 180.00000000000006 85.71428571428574 L 181.42857142857144 85.71428571428574 L 182.14285714285717 85.71428571428574 L 183.5714285714286 85.71428571428574 L 184.28571428571433 85.71428571428574 L 185.71428571428578 85.71428571428574 L 187.14285714285717 85.71428571428574 L 188.5714285714286 85.71428571428574 L 190.00000000000006 85.71428571428574 L 191.42857142857144 85.71428571428574 L 192.14285714285722 85.71428571428574 L 193.5714285714286 85.71428571428574 L 195.00000000000006 85.71428571428574 L 196.4285714285715 85.71428571428574 L 197.8571428571429 85.71428571428574 L 198.5714285714286 85.71428571428574 L 200.00000000000006 85.71428571428574 L 200.71428571428578 85.71428571428574 L 202.14285714285722 85.71428571428574 L 202.8571428571429 85.71428571428574 L 203.5714285714286 86.42857142857146 L 204.28571428571433 86.42857142857146 L 205.00000000000006 86.42857142857146 L 205.71428571428578 86.42857142857146 L 206.4285714285715 86.42857142857146 L 207.14285714285722 86.42857142857146 L 207.14285714285722 87.14285714285715 L 207.8571428571429 87.14285714285715 L 207.8571428571429 87.14285714285715 L 208.5714285714286 87.14285714285715 L 209.28571428571433 87.14285714285715 L 210.00000000000006 87.14285714285715 L 210.00000000000006 87.14285714285715 L 210.71428571428578 87.14285714285715 L 210.71428571428578 87.85714285714288 L 211.4285714285715 87.85714285714288 L 212.14285714285722 87.85714285714288 L 212.14285714285722 87.85714285714288 L 212.8571428571429 87.85714285714288 L 212.8571428571429 87.85714285714288 L 213.5714285714286 87.85714285714288 " stroke="black" fill="none" stroke-width="5.0" stroke-linecap="round" stroke-linejoin="round" />
<path d="M 215.71428571428578 87.85714285714288 L 215.71428571428578 87.85714285714288 L 215.71428571428578 87.85714285714288 L 215.71428571428578 87.14285714285715 L 216.4285714285715 87.14285714285715 L 216.4285714285715 86.42857142857146 L 216.4285714285715 86.42857142857146 L 216.4285714285715 89.28571428571432 L 216.4285714285715 94.28571428571432 L 216.4285714285715 100.71428571428574 L 217.14285714285722 108.5714285714286 L 217.14285714285722 115.71428571428574 L 217.14285714285722 120.71428571428574 L 217.8571428571429 125.00000000000001 L 217.8571428571429 130.00000000000006 L 217.8571428571429 133.5714285714286 L 217.8571428571429 137.14285714285717 L 217.8571428571429 140.71428571428572 L 217.8571428571429 144.28571428571433 L 217.8571428571429 148.5714285714286 L 217.8571428571429 152.8571428571429 L 217.14285714285722 157.8571428571429 L 217.14285714285722 162.14285714285717 L 217.14285714285722 165.71428571428572 L 217.14285714285722 168.5714285714286 L 217.14285714285722 172.14285714285717 L 217.14285714285722 175.00000000000006 L 217.14285714285722 178.5714285714286 L 217.14285714285722 181.42857142857144 L 217.14285714285722 184.28571428571433 L 217.14285714285722 186.42857142857144 L 217.14285714285722 189.28571428571433 L 217.14285714285722 192.14285714285722 L 217.14285714285722 194.28571428571433 L 216.4285714285715 197.14285714285722 L 216.4285714285715 199.28571428571433 L 216.4285714285715 201.4285714285715 L 216.4285714285715 203.5714285714286 L 216.4285714285715 205.71428571428578 L 216.4285714285715 207.8571428571429 L 216.4285714285715 209.28571428571433 L 216.4285714285715 210.71428571428578 L 216.4285714285715 212.14285714285722 L 216.4285714285715 212.8571428571429 L 216.4285714285715 213.5714285714286 L 216.4285714285715 214.28571428571433 L 216.4285714285715 214.28571428571433 L 216.4285714285715 215.00000000000006 L 216.4285714285715 215.00000000000006 L 216.4285714285715 215.00000000000006 " stroke="black" fill="none" stroke-width="5.0" stroke-linecap="round" stroke-linejoin="round" />
<path d="M 85.71428571428574 218.5714285714286 L 85.71428571428574 218.5714285714286 L 85.00000000000001 219.28571428571433 L 85.00000000000001 219.28571428571433 L 85.00000000000001 219.28571428571433 L 86.42857142857146 219.28571428571433 L 89.28571428571432 219.28571428571433 L 92.14285714285715 219.28571428571433 L 96.42857142857146 219.28571428571433 L 100.71428571428574 219.28571428571433 L 105.71428571428574 219.28571428571433 L 110.71428571428574 219.28571428571433 L 115.00000000000001 219.28571428571433 L 119.28571428571432 219.28571428571433 L 122.14285714285718 219.28571428571433 L 125.00000000000001 219.28571428571433 L 127.85714285714288 219.28571428571433 L 130.71428571428572 219.28571428571433 L 133.5714285714286 218.5714285714286 L 137.8571428571429 218.5714285714286 L 143.5714285714286 217.8571428571429 L 150.00000000000006 217.8571428571429 L 155.71428571428572 217.14285714285722 L 160.00000000000006 217.14285714285722 L 163.5714285714286 217.14285714285722 L 167.14285714285717 217.14285714285722 L 170.71428571428572 217.14285714285722 L 173.5714285714286 217.14285714285722 L 176.42857142857144 217.14285714285722 L 177.8571428571429 217.14285714285722 L 180.00000000000006 217.14285714285722 L 181.42857142857144 217.14285714285722 L 182.8571428571429 217.14285714285722 L 184.28571428571433 217.14285714285722 L 186.42857142857144 217.14285714285722 L 188.5714285714286 217.14285714285722 L 190.71428571428578 217.14285714285722 L 192.8571428571429 217.14285714285722 L 195.00000000000006 217.14285714285722 L 197.14285714285722 217.14285714285722 L 199.28571428571433 217.14285714285722 L 201.4285714285715 217.14285714285722 L 203.5714285714286 217.14285714285722 L 205.00000000000006 216.4285714285715 L 206.4285714285715 216.4285714285715 L 207.8571428571429 216.4285714285715 L 208.5714285714286 216.4285714285715 L 210.00000000000006 216.4285714285715 L 210.71428571428578 216.4285714285715 L 212.14285714285722 216.4285714285715 L 212.8571428571429 215.71428571428578 L 213.5714285714286 215.71428571428578 L 215.00000000000006 215.71428571428578 L 215.71428571428578 215.71428571428578 L 216.4285714285715 215.71428571428578 L 216.4285714285715 215.71428571428578 L 216.4285714285715 215.71428571428578 L 216.4285714285715 215.71428571428578 L 216.4285714285715 215.71428571428578 " stroke="black" fill="none" stroke-width="5.0" stroke-linecap="round" stroke-linejoin="round" />
<path d="M 125.71428571428574 138.5714285714286 L 125.00000000000001 137.14285714285717 L 124.28571428571432 135.71428571428572 L 123.5714285714286 132.8571428571429 L 123.5714285714286 132.14285714285717 " stroke="black" fill="none" stroke-width="9.0" stroke-linecap="round" stroke-linejoin="round" />
<path d="M 123.5714285714286 126.42857142857146 L 124.28571428571432 123.5714285714286 L 125.00000000000001 121.42857142857146 L 125.00000000000001 120.00000000000001 L 125.00000000000001 120.71428571428574 L 125.00000000000001 130.71428571428572 L 124.28571428571432 147.8571428571429 L 122.85714285714288 165.71428571428572 L 120.71428571428574 178.5714285714286 L 119.28571428571432 185.00000000000006 L 119.28571428571432 185.00000000000006 L 120.00000000000001 179.28571428571433 L 122.14285714285718 167.14285714285717 L 123.5714285714286 153.5714285714286 L 125.71428571428574 141.42857142857144 L 125.71428571428574 132.14285714285717 L 125.71428571428574 130.71428571428572 L 125.71428571428574 136.42857142857144 L 125.00000000000001 148.5714285714286 L 125.00000000000001 154.28571428571433 " stroke="black" fill="none" stroke-width="9.0" stroke-linecap="round" stroke-linejoin="round" />
<path d="M 130.71428571428572 132.8571428571429 L 130.71428571428572 132.8571428571429 L 129.28571428571433 131.42857142857144 L 127.85714285714288 131.42857142857144 L 127.14285714285718 134.28571428571433 L 127.14285714285718 147.14285714285717 L 127.14285714285718 171.42857142857144 L 127.14285714285718 189.28571428571433 L 127.14285714285718 190.71428571428578 L 127.85714285714288 188.5714285714286 L 128.5714285714286 183.5714285714286 L 130.00000000000006 173.5714285714286 L 132.8571428571429 160.71428571428572 L 135.00000000000006 145.71428571428572 L 137.8571428571429 131.42857142857144 L 139.28571428571433 122.14285714285718 L 139.28571428571433 121.42857142857146 L 139.28571428571433 126.42857142857146 L 140.71428571428572 140.00000000000006 L 141.42857142857144 156.42857142857144 L 142.8571428571429 170.00000000000006 L 143.5714285714286 179.28571428571433 L 144.28571428571433 180.00000000000006 L 145.00000000000006 175.71428571428578 L 147.14285714285717 163.5714285714286 L 150.00000000000006 145.71428571428572 L 151.42857142857144 129.28571428571433 L 152.14285714285717 120.71428571428574 L 152.14285714285717 120.71428571428574 L 151.42857142857144 127.14285714285718 L 150.71428571428572 142.14285714285717 L 150.71428571428572 160.00000000000006 L 150.71428571428572 176.42857142857144 L 150.71428571428572 185.71428571428578 L 151.42857142857144 186.42857142857144 L 152.8571428571429 186.42857142857144 " stroke="black" fill="none" stroke-width="15.0" stroke-linecap="round" stroke-linejoin="round" />
<path d="M 170.00000000000006 133.5714285714286 L 169.28571428571433 133.5714285714286 L 168.5714285714286 133.5714285714286 L 168.5714285714286 133.5714285714286 L 168.5714285714286 143.5714285714286 L 168.5714285714286 168.5714285714286 L 169.28571428571433 192.14285714285722 L 169.28571428571433 196.4285714285715 L 170.00000000000006 195.00000000000006 L 172.14285714285717 191.42857142857144 L 174.28571428571433 183.5714285714286 L 176.42857142857144 169.28571428571433 L 177.14285714285717 152.14285714285717 L 177.8571428571429 134.28571428571433 L 177.8571428571429 120.00000000000001 L 177.8571428571429 116.42857142857146 L 178.5714285714286 120.71428571428574 L 180.71428571428578 135.00000000000006 L 182.8571428571429 156.42857142857144 L 185.00000000000006 177.14285714285717 L 185.00000000000006 190.00000000000006 L 185.71428571428578 194.28571428571433 L 186.42857142857144 194.28571428571433 L 187.14285714285717 190.71428571428578 L 189.28571428571433 180.71428571428578 L 190.71428571428578 164.28571428571433 L 192.14285714285722 146.42857142857144 L 192.14285714285722 131.42857142857144 L 192.8571428571429 127.85714285714288 L 193.5714285714286 130.00000000000006 L 194.28571428571433 137.14285714285717 L 195.00000000000006 147.14285714285717 L 195.00000000000006 155.71428571428572 " stroke="black" fill="none" stroke-width="17.0" stroke-linecap="round" stroke-linejoin="round" />
<path d="M 198.5714285714286 116.42857142857146 L 198.5714285714286 115.71428571428574 L 198.5714285714286 115.71428571428574 L 198.5714285714286 115.00000000000001 L 198.5714285714286 115.71428571428574 L 199.28571428571433 123.5714285714286 L 200.00000000000006 138.5714285714286 L 200.00000000000006 155.71428571428572 L 200.00000000000006 170.71428571428572 L 198.5714285714286 184.28571428571433 L 198.5714285714286 192.14285714285722 L 198.5714285714286 194.28571428571433 L 199.28571428571433 192.8571428571429 L 199.28571428571433 189.28571428571433 " stroke="black" fill="none" stroke-width="17.0" stroke-linecap="round" stroke-linejoin="round" />
<path d="M 208.5714285714286 119.28571428571432 L 208.5714285714286 119.28571428571432 L 207.8571428571429 119.28571428571432 L 207.14285714285722 119.28571428571432 L 207.14285714285722 123.5714285714286 L 207.14285714285722 137.8571428571429 L 207.14285714285722 159.28571428571433 L 207.8571428571429 178.5714285714286 L 207.14285714285722 187.14285714285717 L 207.14285714285722 187.8571428571429 L 207.14285714285722 187.8571428571429 " stroke="black" fill="none" stroke-width="17.0" stroke-linecap="round" stroke-linejoin="round" />
<path d="M 210.00000000000006 117.85714285714288 L 210.00000000000006 117.85714285714288 L 210.00000000000006 117.85714285714288 L 209.28571428571433 118.5714285714286 L 209.28571428571433 125.71428571428574 L 209.28571428571433 145.00000000000006 L 209.28571428571433 165.71428571428572 L 209.28571428571433 179.28571428571433 L 209.28571428571433 180.71428571428578 " stroke="black" fill="none" stroke-width="17.0" stroke-linecap="round" stroke-linejoin="round" />
<path d="M 105.71428571428574 106.42857142857146 L 105.71428571428574 106.42857142857146 L 104.28571428571432 106.42857142857146 L 103.5714285714286 108.5714285714286 L 103.5714285714286 114.28571428571432 L 103.5714285714286 127.85714285714288 L 104.28571428571432 147.14285714285717 L 104.28571428571432 162.8571428571429 L 103.5714285714286 169.28571428571433 L 103.5714285714286 169.28571428571433 L 103.5714285714286 166.42857142857144 L 103.5714285714286 163.5714285714286 " stroke="black" fill="none" stroke-width="17.0" stroke-linecap="round" stroke-linejoin="round" />
<path d="M 100.00000000000001 102.85714285714288 L 100.00000000000001 102.85714285714288 L 100.00000000000001 102.85714285714288 L 100.00000000000001 102.85714285714288 L 100.00000000000001 103.5714285714286 L 100.00000000000001 110.00000000000001 L 100.00000000000001 120.00000000000001 L 100.00000000000001 130.00000000000006 L 100.00000000000001 138.5714285714286 L 99.28571428571432 145.71428571428572 L 99.28571428571432 152.8571428571429 L 99.28571428571432 157.8571428571429 L 99.28571428571432 158.5714285714286 L 99.28571428571432 158.5714285714286 L 99.28571428571432 155.71428571428572 L 99.28571428571432 150.00000000000006 L 99.28571428571432 143.5714285714286 L 99.28571428571432 135.71428571428572 L 99.28571428571432 127.85714285714288 L 99.28571428571432 119.28571428571432 L 98.5714285714286 112.85714285714288 L 98.5714285714286 108.5714285714286 L 97.85714285714288 106.42857142857146 L 97.85714285714288 106.42857142857146 L 97.14285714285715 106.42857142857146 L 97.14285714285715 107.14285714285715 L 97.14285714285715 107.14285714285715 L 97.14285714285715 109.28571428571432 L 96.42857142857146 114.28571428571432 L 95.71428571428574 122.14285714285718 L 95.71428571428574 131.42857142857144 L 95.71428571428574 143.5714285714286 L 95.71428571428574 152.8571428571429 L 97.14285714285715 157.14285714285717 L 97.14285714285715 157.8571428571429 L 97.85714285714288 156.42857142857144 L 97.85714285714288 152.8571428571429 L 97.85714285714288 146.42857142857144 L 97.14285714285715 140.71428571428572 L 97.14285714285715 135.00000000000006 L 97.14285714285715 129.28571428571433 L 97.14285714285715 122.85714285714288 L 97.14285714285715 117.85714285714288 L 96.42857142857146 112.85714285714288 L 95.71428571428574 110.00000000000001 L 95.00000000000001 110.00000000000001 L 95.00000000000001 110.71428571428574 L 95.00000000000001 115.00000000000001 L 95.00000000000001 122.14285714285718 L 95.71428571428574 131.42857142857144 L 97.14285714285715 140.71428571428572 L 97.85714285714288 150.71428571428572 L 97.85714285714288 158.5714285714286 L 98.5714285714286 165.71428571428572 L 98.5714285714286 171.42857142857144 L 98.5714285714286 174.28571428571433 L 98.5714285714286 175.00000000000006 L 98.5714285714286 175.00000000000006 L 98.5714285714286 174.28571428571433 L 98.5714285714286 174.28571428571433 L 98.5714285714286 173.5714285714286 L 98.5714285714286 171.42857142857144 L 98.5714285714286 167.8571428571429 L 98.5714285714286 163.5714285714286 L 98.5714285714286 160.00000000000006 L 98.5714285714286 157.8571428571429 L 98.5714285714286 157.14285714285717 L 98.5714285714286 157.14285714285717 L 97.85714285714288 159.28571428571433 L 97.85714285714288 164.28571428571433 L 97.14285714285715 170.71428571428572 L 97.14285714285715 176.42857142857144 L 97.14285714285715 179.28571428571433 L 97.14285714285715 182.14285714285717 L 97.14285714285715 183.5714285714286 L 97.14285714285715 185.00000000000006 L 97.14285714285715 185.71428571428578 L 97.14285714285715 185.71428571428578 L 97.14285714285715 184.28571428571433 L 97.14285714285715 179.28571428571433 L 97.14285714285715 172.8571428571429 L 97.14285714285715 164.28571428571433 L 97.14285714285715 155.00000000000006 L 96.42857142857146 150.00000000000006 L 96.42857142857146 149.28571428571433 L 96.42857142857146 150.71428571428572 L 96.42857142857146 156.42857142857144 L 96.42857142857146 162.14285714285717 L 96.42857142857146 167.14285714285717 L 96.42857142857146 172.8571428571429 L 97.14285714285715 177.8571428571429 L 97.14285714285715 182.8571428571429 L 97.14285714285715 185.71428571428578 L 97.14285714285715 187.8571428571429 L 97.14285714285715 189.28571428571433 L 97.14285714285715 190.00000000000006 L 97.14285714285715 191.42857142857144 L 97.14285714285715 192.8571428571429 L 96.42857142857146 195.00000000000006 L 96.42857142857146 197.14285714285722 L 96.42857142857146 198.5714285714286 L 96.42857142857146 199.28571428571433 L 96.42857142857146 200.71428571428578 L 96.42857142857146 202.14285714285722 L 97.14285714285715 203.5714285714286 L 97.14285714285715 204.28571428571433 L 97.14285714285715 205.00000000000006 L 97.14285714285715 205.00000000000006 L 97.14285714285715 205.00000000000006 L 97.14285714285715 205.71428571428578 L 97.14285714285715 206.4285714285715 L 97.14285714285715 206.4285714285715 L 97.14285714285715 207.14285714285722 L 97.14285714285715 207.14285714285722 L 97.14285714285715 207.14285714285722 L 97.14285714285715 207.14285714285722 L 97.14285714285715 207.14285714285722 L 97.14285714285715 205.71428571428578 L 97.14285714285715 202.8571428571429 L 97.14285714285715 197.8571428571429 L 96.42857142857146 192.8571428571429 L 95.71428571428574 187.8571428571429 L 95.71428571428574 184.28571428571433 L 95.00000000000001 182.14285714285717 L 95.00000000000001 180.00000000000006 L 95.00000000000001 179.28571428571433 L 95.00000000000001 178.5714285714286 L 95.00000000000001 177.8571428571429 L 95.00000000000001 177.8571428571429 L 95.00000000000001 177.8571428571429 L 95.00000000000001 178.5714285714286 L 95.00000000000001 178.5714285714286 L 95.00000000000001 178.5714285714286 L 95.00000000000001 178.5714285714286 L 95.00000000000001 178.5714285714286 L 95.00000000000001 179.28571428571433 L 95.00000000000001 181.42857142857144 L 95.00000000000001 184.28571428571433 L 95.00000000000001 187.14285714285717 L 95.00000000000001 191.42857142857144 L 95.00000000000001 195.00000000000006 L 95.00000000000001 197.8571428571429 L 95.71428571428574 199.28571428571433 L 95.71428571428574 200.71428571428578 L 95.71428571428574 201.4285714285715 L 95.71428571428574 202.14285714285722 L 95.71428571428574 202.8571428571429 L 95.71428571428574 203.5714285714286 L 95.71428571428574 204.28571428571433 L 95.71428571428574 205.00000000000006 L 95.71428571428574 205.00000000000006 L 95.71428571428574 205.71428571428578 L 95.71428571428574 206.4285714285715 L 95.71428571428574 207.14285714285722 L 95.71428571428574 207.8571428571429 L 95.71428571428574 207.8571428571429 L 95.71428571428574 208.5714285714286 L 95.71428571428574 209.28571428571433 L 95.71428571428574 210.00000000000006 L 95.71428571428574 210.00000000000006 L 95.71428571428574 210.71428571428578 L 95.71428571428574 210.71428571428578 L 95.71428571428574 210.71428571428578 L 95.71428571428574 210.71428571428578 L 95.71428571428574 210.71428571428578 L 95.71428571428574 210.71428571428578 L 95.71428571428574 211.4285714285715 L 95.71428571428574 211.4285714285715 L 95.00000000000001 211.4285714285715 L 95.00000000000001 211.4285714285715 L 95.00000000000001 211.4285714285715 L 95.00000000000001 211.4285714285715 L 95.00000000000001 211.4285714285715 L 95.00000000000001 211.4285714285715 L 95.00000000000001 211.4285714285715 L 95.00000000000001 211.4285714285715 L 95.00000000000001 211.4285714285715 L 95.00000000000001 211.4285714285715 L 95.00000000000001 211.4285714285715 L 95.00000000000001 211.4285714285715 L 95.00000000000001 211.4285714285715 L 95.00000000000001 211.4285714285715 L 95.00000000000001 211.4285714285715 L 95.00000000000001 211.4285714285715 L 95.00000000000001 211.4285714285715 L 95.00000000000001 211.4285714285715 L 95.00000000000001 211.4285714285715 L 95.00000000000001 211.4285714285715 L 95.00000000000001 210.71428571428578 L 95.71428571428574 210.00000000000006 L 96.42857142857146 210.00000000000006 L 97.14285714285715 209.28571428571433 L 97.85714285714288 208.5714285714286 L 98.5714285714286 208.5714285714286 L 99.28571428571432 208.5714285714286 L 100.71428571428574 208.5714285714286 L 102.14285714285715 208.5714285714286 L 102.85714285714288 208.5714285714286 L 104.28571428571432 208.5714285714286 L 105.00000000000001 208.5714285714286 L 106.42857142857146 208.5714285714286 L 107.85714285714288 209.28571428571433 L 108.5714285714286 209.28571428571433 L 110.00000000000001 209.28571428571433 L 111.42857142857146 209.28571428571433 L 112.14285714285718 209.28571428571433 L 113.5714285714286 209.28571428571433 L 114.28571428571432 209.28571428571433 L 115.71428571428574 209.28571428571433 L 116.42857142857146 209.28571428571433 L 117.14285714285718 209.28571428571433 L 117.85714285714288 209.28571428571433 L 119.28571428571432 209.28571428571433 L 120.00000000000001 209.28571428571433 L 121.42857142857146 209.28571428571433 L 122.14285714285718 209.28571428571433 L 123.5714285714286 209.28571428571433 L 125.00000000000001 209.28571428571433 L 125.71428571428574 209.28571428571433 L 127.14285714285718 209.28571428571433 L 127.85714285714288 208.5714285714286 L 129.28571428571433 208.5714285714286 L 130.00000000000006 208.5714285714286 L 131.42857142857144 208.5714285714286 L 132.14285714285717 208.5714285714286 L 133.5714285714286 208.5714285714286 L 134.28571428571433 208.5714285714286 L 135.00000000000006 208.5714285714286 L 136.42857142857144 208.5714285714286 L 137.14285714285717 208.5714285714286 L 138.5714285714286 208.5714285714286 L 139.28571428571433 208.5714285714286 L 140.71428571428572 208.5714285714286 L 141.42857142857144 208.5714285714286 L 142.8571428571429 209.28571428571433 L 144.28571428571433 209.28571428571433 L 145.71428571428572 209.28571428571433 L 147.14285714285717 209.28571428571433 L 148.5714285714286 209.28571428571433 L 150.00000000000006 209.28571428571433 L 151.42857142857144 209.28571428571433 L 152.14285714285717 209.28571428571433 L 153.5714285714286 209.28571428571433 L 154.28571428571433 209.28571428571433 L 155.71428571428572 209.28571428571433 L 156.42857142857144 209.28571428571433 L 157.14285714285717 209.28571428571433 L 157.8571428571429 209.28571428571433 L 158.5714285714286 209.28571428571433 L 158.5714285714286 209.28571428571433 L 159.28571428571433 209.28571428571433 L 159.28571428571433 209.28571428571433 L 159.28571428571433 209.28571428571433 L 159.28571428571433 209.28571428571433 L 159.28571428571433 209.28571428571433 L 158.5714285714286 209.28571428571433 L 158.5714285714286 209.28571428571433 L 158.5714285714286 209.28571428571433 L 158.5714285714286 209.28571428571433 L 158.5714285714286 209.28571428571433 L 158.5714285714286 209.28571428571433 L 158.5714285714286 209.28571428571433 L 159.28571428571433 209.28571428571433 L 160.71428571428572 209.28571428571433 L 163.5714285714286 208.5714285714286 L 166.42857142857144 208.5714285714286 L 169.28571428571433 208.5714285714286 L 170.71428571428572 208.5714285714286 L 172.14285714285717 208.5714285714286 L 172.14285714285717 208.5714285714286 L 172.14285714285717 208.5714285714286 L 172.14285714285717 208.5714285714286 L 172.8571428571429 208.5714285714286 L 173.5714285714286 208.5714285714286 L 174.28571428571433 208.5714285714286 L 175.00000000000006 208.5714285714286 L 175.71428571428578 208.5714285714286 L 176.42857142857144 208.5714285714286 L 177.14285714285717 208.5714285714286 L 178.5714285714286 208.5714285714286 L 179.28571428571433 208.5714285714286 L 180.00000000000006 208.5714285714286 L 181.42857142857144 208.5714285714286 L 182.14285714285717 208.5714285714286 L 182.8571428571429 208.5714285714286 L 184.28571428571433 208.5714285714286 L 185.71428571428578 209.28571428571433 L 186.42857142857144 209.28571428571433 L 187.14285714285717 209.28571428571433 L 188.5714285714286 209.28571428571433 L 189.28571428571433 209.28571428571433 L 190.71428571428578 209.28571428571433 L 191.42857142857144 210.00000000000006 L 192.14285714285722 210.00000000000006 L 193.5714285714286 210.00000000000006 L 194.28571428571433 210.00000000000006 L 195.00000000000006 210.00000000000006 L 195.71428571428578 210.00000000000006 L 196.4285714285715 210.00000000000006 L 197.14285714285722 210.00000000000006 L 197.8571428571429 210.00000000000006 L 198.5714285714286 210.00000000000006 L 199.28571428571433 210.00000000000006 L 200.00000000000006 210.00000000000006 L 201.4285714285715 210.00000000000006 L 202.14285714285722 210.00000000000006 L 202.8571428571429 210.00000000000006 L 202.8571428571429 210.00000000000006 L 203.5714285714286 210.00000000000006 L 204.28571428571433 210.00000000000006 L 205.00000000000006 210.00000000000006 L 205.00000000000006 210.00000000000006 L 205.71428571428578 210.00000000000006 L 206.4285714285715 210.00000000000006 L 206.4285714285715 210.00000000000006 L 207.14285714285722 210.00000000000006 L 207.14285714285722 210.00000000000006 L 207.8571428571429 210.00000000000006 L 207.8571428571429 210.00000000000006 L 207.8571428571429 210.00000000000006 L 208.5714285714286 210.00000000000006 L 208.5714285714286 210.00000000000006 L 208.5714285714286 210.00000000000006 L 209.28571428571433 210.00000000000006 L 209.28571428571433 210.00000000000006 " stroke="black" fill="none" stroke-width="17.0" stroke-linecap="round" stroke-linejoin="round" />
<path d="M 202.14285714285722 166.42857142857144 L 202.14285714285722 166.42857142857144 L 202.14285714285722 167.14285714285717 L 201.4285714285715 167.8571428571429 L 201.4285714285715 170.71428571428572 L 202.14285714285722 176.42857142857144 L 202.8571428571429 182.8571428571429 L 203.5714285714286 189.28571428571433 L 204.28571428571433 193.5714285714286 L 205.00000000000006 197.14285714285722 L 205.00000000000006 199.28571428571433 L 205.00000000000006 200.00000000000006 L 205.00000000000006 200.00000000000006 L 205.00000000000006 199.28571428571433 L 205.71428571428578 198.5714285714286 L 205.71428571428578 197.8571428571429 L 205.71428571428578 197.14285714285722 L 205.71428571428578 197.14285714285722 L 205.71428571428578 197.14285714285722 L 205.71428571428578 197.14285714285722 L 205.71428571428578 197.14285714285722 L 205.71428571428578 197.14285714285722 L 205.71428571428578 197.14285714285722 L 205.71428571428578 197.14285714285722 L 205.71428571428578 197.14285714285722 L 205.71428571428578 196.4285714285715 L 205.71428571428578 195.71428571428578 L 205.71428571428578 193.5714285714286 L 206.4285714285715 190.00000000000006 L 206.4285714285715 186.42857142857144 L 206.4285714285715 184.28571428571433 L 207.14285714285722 184.28571428571433 L 207.14285714285722 187.14285714285717 L 207.14285714285722 192.8571428571429 L 207.14285714285722 198.5714285714286 L 207.14285714285722 202.14285714285722 L 207.14285714285722 203.5714285714286 L 207.14285714285722 203.5714285714286 L 205.71428571428578 202.14285714285722 L 205.00000000000006 200.71428571428578 " stroke="black" fill="none" stroke-width="17.0" stroke-linecap="round" stroke-linejoin="round" />
<path d="M 105.00000000000001 191.42857142857144 L 105.00000000000001 191.42857142857144 L 104.28571428571432 191.42857142857144 L 107.14285714285715 194.28571428571433 L 118.5714285714286 198.5714285714286 L 136.42857142857144 200.71428571428578 L 155.00000000000006 200.71428571428578 L 169.28571428571433 200.71428571428578 L 181.42857142857144 200.71428571428578 L 188.5714285714286 200.71428571428578 L 190.71428571428578 200.71428571428578 L 190.71428571428578 200.71428571428578 L 189.28571428571433 201.4285714285715 L 186.42857142857144 202.14285714285722 L 181.42857142857144 202.8571428571429 L 174.28571428571433 202.14285714285722 L 163.5714285714286 200.00000000000006 L 150.00000000000006 198.5714285714286 L 133.5714285714286 197.14285714285722 L 121.42857142857146 195.71428571428578 L 115.71428571428574 195.00000000000006 L 115.00000000000001 195.00000000000006 L 118.5714285714286 195.00000000000006 L 130.00000000000006 195.71428571428578 L 145.71428571428572 197.14285714285722 L 161.42857142857144 197.14285714285722 L 175.00000000000006 195.00000000000006 L 178.5714285714286 193.5714285714286 L 177.14285714285717 193.5714285714286 L 170.00000000000006 193.5714285714286 L 160.00000000000006 193.5714285714286 L 147.14285714285717 192.8571428571429 L 130.00000000000006 188.5714285714286 L 113.5714285714286 182.14285714285717 L 102.85714285714288 175.00000000000006 L 99.28571428571432 172.14285714285717 L 99.28571428571432 172.14285714285717 L 104.28571428571432 172.14285714285717 L 113.5714285714286 172.14285714285717 L 125.71428571428574 172.8571428571429 L 141.42857142857144 173.5714285714286 L 157.8571428571429 175.00000000000006 L 168.5714285714286 177.14285714285717 L 170.00000000000006 177.8571428571429 L 165.71428571428572 179.28571428571433 L 156.42857142857144 181.42857142857144 L 142.8571428571429 182.8571428571429 L 125.00000000000001 182.8571428571429 L 107.85714285714288 180.71428571428578 L 95.71428571428574 177.14285714285717 L 94.28571428571432 176.42857142857144 L 99.28571428571432 176.42857142857144 L 112.14285714285718 178.5714285714286 L 128.5714285714286 182.14285714285717 L 147.14285714285717 184.28571428571433 L 161.42857142857144 183.5714285714286 L 167.8571428571429 182.14285714285717 L 167.8571428571429 181.42857142857144 L 163.5714285714286 181.42857142857144 L 154.28571428571433 181.42857142857144 L 143.5714285714286 180.71428571428578 L 131.42857142857144 180.00000000000006 L 119.28571428571432 177.14285714285717 L 113.5714285714286 172.8571428571429 L 113.5714285714286 170.00000000000006 L 120.71428571428574 168.5714285714286 L 133.5714285714286 167.8571428571429 L 148.5714285714286 165.71428571428572 L 154.28571428571433 165.00000000000006 " stroke="black" fill="none" stroke-width="17.0" stroke-linecap="round" stroke-linejoin="round" />
<path d="M 107.85714285714288 157.14285714285717 L 106.42857142857146 157.14285714285717 L 105.71428571428574 157.8571428571429 L 107.14285714285715 157.8571428571429 L 115.00000000000001 158.5714285714286 L 130.00000000000006 160.71428571428572 L 149.28571428571433 162.14285714285717 L 164.28571428571433 162.14285714285717 L 172.14285714285717 160.71428571428572 L 175.00000000000006 160.71428571428572 L 175.00000000000006 160.71428571428572 L 174.28571428571433 161.42857142857144 L 170.00000000000006 162.8571428571429 L 162.14285714285717 164.28571428571433 L 152.8571428571429 164.28571428571433 L 140.71428571428572 162.8571428571429 L 125.71428571428574 157.14285714285717 L 113.5714285714286 149.28571428571433 L 107.85714285714288 145.00000000000006 L 106.42857142857146 144.28571428571433 L 109.28571428571432 145.71428571428572 L 117.14285714285718 150.00000000000006 L 128.5714285714286 152.8571428571429 L 142.8571428571429 155.00000000000006 L 156.42857142857144 154.28571428571433 L 165.71428571428572 151.42857142857144 L 169.28571428571433 150.71428571428572 L 168.5714285714286 150.71428571428572 L 165.00000000000006 151.42857142857144 L 157.8571428571429 152.8571428571429 L 148.5714285714286 153.5714285714286 L 137.8571428571429 152.8571428571429 L 125.71428571428574 148.5714285714286 L 117.14285714285718 142.8571428571429 L 112.14285714285718 139.28571428571433 L 111.42857142857146 138.5714285714286 L 114.28571428571432 139.28571428571433 L 122.14285714285718 140.71428571428572 L 136.42857142857144 144.28571428571433 L 152.14285714285717 147.14285714285717 L 165.71428571428572 149.28571428571433 L 172.14285714285717 149.28571428571433 L 172.14285714285717 149.28571428571433 L 169.28571428571433 148.5714285714286 L 161.42857142857144 147.8571428571429 L 152.14285714285717 146.42857142857144 L 139.28571428571433 143.5714285714286 L 122.85714285714288 137.14285714285717 L 111.42857142857146 131.42857142857144 L 106.42857142857146 129.28571428571433 L 107.14285714285715 129.28571428571433 L 112.85714285714288 129.28571428571433 L 124.28571428571432 129.28571428571433 L 138.5714285714286 129.28571428571433 L 152.8571428571429 130.71428571428572 L 162.8571428571429 131.42857142857144 L 165.71428571428572 131.42857142857144 L 165.00000000000006 131.42857142857144 " stroke="black" fill="none" stroke-width="17.0" stroke-linecap="round" stroke-linejoin="round" />
<path d="M 92.14285714285715 99.28571428571432 L 92.14285714285715 99.28571428571432 L 92.14285714285715 99.28571428571432 L 92.14285714285715 99.28571428571432 L 92.14285714285715 99.28571428571432 L 92.14285714285715 99.28571428571432 L 92.14285714285715 99.28571428571432 L 92.14285714285715 100.00000000000001 L 92.85714285714288 100.71428571428574 L 92.85714285714288 101.42857142857146 L 92.85714285714288 102.14285714285715 L 92.85714285714288 102.14285714285715 L 93.5714285714286 102.85714285714288 L 93.5714285714286 102.85714285714288 L 93.5714285714286 102.85714285714288 L 93.5714285714286 103.5714285714286 L 93.5714285714286 103.5714285714286 L 93.5714285714286 103.5714285714286 L 93.5714285714286 103.5714285714286 L 93.5714285714286 102.85714285714288 L 93.5714285714286 101.42857142857146 L 93.5714285714286 100.00000000000001 L 93.5714285714286 98.5714285714286 L 93.5714285714286 97.85714285714288 L 93.5714285714286 97.14285714285715 L 93.5714285714286 96.42857142857146 L 93.5714285714286 95.71428571428574 L 93.5714285714286 95.00000000000001 L 93.5714285714286 94.28571428571432 L 93.5714285714286 94.28571428571432 L 93.5714285714286 94.28571428571432 L 93.5714285714286 93.5714285714286 L 93.5714285714286 93.5714285714286 L 93.5714285714286 93.5714285714286 L 93.5714285714286 93.5714285714286 L 93.5714285714286 93.5714285714286 L 93.5714285714286 93.5714285714286 L 93.5714285714286 93.5714285714286 L 93.5714285714286 93.5714285714286 L 93.5714285714286 93.5714285714286 L 93.5714285714286 93.5714285714286 L 93.5714285714286 93.5714285714286 L 95.00000000000001 93.5714285714286 L 97.14285714285715 94.28571428571432 L 99.28571428571432 95.00000000000001 L 101.42857142857146 95.71428571428574 L 102.85714285714288 95.71428571428574 L 105.00000000000001 96.42857142857146 L 106.42857142857146 96.42857142857146 L 107.85714285714288 96.42857142857146 L 109.28571428571432 96.42857142857146 L 110.71428571428574 96.42857142857146 L 112.14285714285718 96.42857142857146 L 113.5714285714286 96.42857142857146 L 115.00000000000001 96.42857142857146 L 117.14285714285718 96.42857142857146 L 118.5714285714286 96.42857142857146 L 120.00000000000001 96.42857142857146 L 121.42857142857146 96.42857142857146 L 122.14285714285718 96.42857142857146 L 123.5714285714286 96.42857142857146 L 124.28571428571432 97.14285714285715 L 125.71428571428574 97.85714285714288 L 126.42857142857146 97.85714285714288 L 127.85714285714288 98.5714285714286 L 128.5714285714286 98.5714285714286 L 130.00000000000006 98.5714285714286 L 130.71428571428572 99.28571428571432 L 132.14285714285717 99.28571428571432 L 133.5714285714286 100.00000000000001 L 135.00000000000006 100.00000000000001 L 135.71428571428572 100.00000000000001 L 136.42857142857144 100.00000000000001 L 137.14285714285717 100.00000000000001 L 137.14285714285717 100.00000000000001 L 137.14285714285717 100.00000000000001 L 135.00000000000006 100.00000000000001 L 132.14285714285717 100.00000000000001 L 128.5714285714286 99.28571428571432 L 124.28571428571432 99.28571428571432 L 120.71428571428574 99.28571428571432 L 117.85714285714288 99.28571428571432 L 114.28571428571432 99.28571428571432 L 112.85714285714288 99.28571428571432 L 111.42857142857146 98.5714285714286 L 111.42857142857146 98.5714285714286 L 111.42857142857146 98.5714285714286 L 112.14285714285718 99.28571428571432 L 114.28571428571432 102.14285714285715 L 115.71428571428574 106.42857142857146 L 117.14285714285718 112.85714285714288 L 117.85714285714288 120.71428571428574 L 117.85714285714288 127.14285714285718 L 117.85714285714288 129.28571428571433 L 118.5714285714286 128.5714285714286 L 120.00000000000001 122.14285714285718 L 120.71428571428574 114.28571428571432 L 121.42857142857146 106.42857142857146 L 121.42857142857146 102.14285714285715 L 121.42857142857146 101.42857142857146 L 121.42857142857146 101.42857142857146 L 121.42857142857146 102.85714285714288 L 121.42857142857146 104.28571428571432 L 122.85714285714288 110.00000000000001 L 125.00000000000001 118.5714285714286 L 127.14285714285718 126.42857142857146 L 127.85714285714288 130.00000000000006 L 127.85714285714288 130.00000000000006 " stroke="black" fill="none" stroke-width="17.0" stroke-linecap="round" stroke-linejoin="round" />
<path d="M 129.28571428571433 117.14285714285718 L 129.28571428571433 117.14285714285718 L 129.28571428571433 116.42857142857146 L 130.00000000000006 116.42857142857146 L 135.71428571428572 115.71428571428574 L 144.28571428571433 115.71428571428574 L 153.5714285714286 115.71428571428574 L 161.42857142857144 116.42857142857146 L 167.14285714285717 117.14285714285718 L 170.00000000000006 117.14285714285718 L 170.71428571428572 117.85714285714288 L 170.71428571428572 117.85714285714288 L 170.00000000000006 117.85714285714288 L 168.5714285714286 117.85714285714288 L 166.42857142857144 117.85714285714288 L 162.14285714285717 117.85714285714288 L 157.8571428571429 117.85714285714288 L 152.8571428571429 117.85714285714288 L 147.14285714285717 117.85714285714288 L 141.42857142857144 117.14285714285718 L 136.42857142857144 115.71428571428574 L 133.5714285714286 115.71428571428574 L 133.5714285714286 115.00000000000001 L 136.42857142857144 115.00000000000001 L 142.8571428571429 115.00000000000001 L 150.00000000000006 115.71428571428574 L 157.14285714285717 115.71428571428574 L 164.28571428571433 116.42857142857146 L 170.00000000000006 117.14285714285718 L 172.14285714285717 117.85714285714288 L 172.8571428571429 117.85714285714288 L 171.42857142857144 117.85714285714288 " stroke="black" fill="none" stroke-width="17.0" stroke-linecap="round" stroke-linejoin="round" />
<path d="M 133.5714285714286 102.85714285714288 L 133.5714285714286 102.85714285714288 L 132.8571428571429 102.85714285714288 L 132.8571428571429 102.85714285714288 L 135.71428571428572 102.85714285714288 L 142.14285714285717 102.85714285714288 L 151.42857142857144 102.85714285714288 L 160.00000000000006 102.85714285714288 L 167.14285714285717 102.85714285714288 L 171.42857142857144 102.85714285714288 L 172.14285714285717 102.85714285714288 L 172.14285714285717 102.85714285714288 L 170.71428571428572 102.85714285714288 L 168.5714285714286 103.5714285714286 L 165.71428571428572 103.5714285714286 L 162.8571428571429 104.28571428571432 L 158.5714285714286 104.28571428571432 L 153.5714285714286 104.28571428571432 L 148.5714285714286 104.28571428571432 L 143.5714285714286 103.5714285714286 L 139.28571428571433 102.14285714285715 L 136.42857142857144 101.42857142857146 L 134.28571428571433 100.71428571428574 L 132.8571428571429 99.28571428571432 L 132.14285714285717 98.5714285714286 L 131.42857142857144 98.5714285714286 L 130.71428571428572 97.85714285714288 L 130.71428571428572 97.14285714285715 L 130.00000000000006 97.14285714285715 L 130.00000000000006 97.14285714285715 L 129.28571428571433 96.42857142857146 L 129.28571428571433 96.42857142857146 L 129.28571428571433 95.71428571428574 L 129.28571428571433 95.71428571428574 L 129.28571428571433 95.71428571428574 L 132.14285714285717 95.00000000000001 L 137.14285714285717 95.00000000000001 L 142.8571428571429 94.28571428571432 L 148.5714285714286 94.28571428571432 L 152.8571428571429 94.28571428571432 L 155.71428571428572 95.00000000000001 L 158.5714285714286 95.00000000000001 L 160.71428571428572 95.71428571428574 L 162.14285714285717 95.71428571428574 L 162.8571428571429 95.71428571428574 L 163.5714285714286 95.71428571428574 L 163.5714285714286 95.71428571428574 L 163.5714285714286 95.71428571428574 L 164.28571428571433 95.71428571428574 L 164.28571428571433 95.71428571428574 L 164.28571428571433 95.71428571428574 L 165.00000000000006 95.71428571428574 L 165.00000000000006 95.71428571428574 L 165.00000000000006 95.71428571428574 L 165.00000000000006 95.71428571428574 L 165.00000000000006 95.71428571428574 L 165.00000000000006 95.71428571428574 L 165.00000000000006 95.71428571428574 L 165.00000000000006 96.42857142857146 " stroke="black" fill="none" stroke-width="17.0" stroke-linecap="round" stroke-linejoin="round" />
<path d="M 165.00000000000006 98.5714285714286 L 165.00000000000006 98.5714285714286 L 165.00000000000006 98.5714285714286 L 165.00000000000006 98.5714285714286 L 165.00000000000006 98.5714285714286 L 167.14285714285717 98.5714285714286 L 171.42857142857144 99.28571428571432 L 175.71428571428578 99.28571428571432 L 179.28571428571433 99.28571428571432 L 180.71428571428578 99.28571428571432 L 181.42857142857144 100.00000000000001 " stroke="black" fill="none" stroke-width="17.0" stroke-linecap="round" stroke-linejoin="round" />
<path d="M 180.71428571428578 105.00000000000001 L 180.71428571428578 105.00000000000001 L 180.71428571428578 105.00000000000001 L 181.42857142857144 105.00000000000001 L 181.42857142857144 105.71428571428574 L 182.14285714285717 109.28571428571432 L 182.8571428571429 115.00000000000001 L 183.5714285714286 120.00000000000001 L 183.5714285714286 123.5714285714286 L 184.28571428571433 125.00000000000001 L 184.28571428571433 125.00000000000001 " stroke="black" fill="none" stroke-width="17.0" stroke-linecap="round" stroke-linejoin="round" />
<path d="M 172.14285714285717 100.00000000000001 L 171.42857142857144 100.00000000000001 L 170.71428571428572 100.00000000000001 L 170.00000000000006 100.00000000000001 L 170.00000000000006 100.00000000000001 L 170.00000000000006 99.28571428571432 L 172.14285714285717 98.5714285714286 L 176.42857142857144 98.5714285714286 L 180.00000000000006 98.5714285714286 L 183.5714285714286 98.5714285714286 L 185.71428571428578 98.5714285714286 L 187.8571428571429 99.28571428571432 L 189.28571428571433 99.28571428571432 L 190.00000000000006 100.00000000000001 L 190.71428571428578 100.00000000000001 L 190.71428571428578 100.00000000000001 L 190.71428571428578 100.00000000000001 L 190.00000000000006 100.00000000000001 " stroke="black" fill="none" stroke-width="17.0" stroke-linecap="round" stroke-linejoin="round" />
<path d="M 172.14285714285717 95.00000000000001 L 172.14285714285717 95.00000000000001 L 172.14285714285717 95.00000000000001 L 171.42857142857144 95.00000000000001 L 171.42857142857144 95.00000000000001 L 172.14285714285717 94.28571428571432 L 174.28571428571433 94.28571428571432 L 177.8571428571429 94.28571428571432 L 181.42857142857144 94.28571428571432 L 185.00000000000006 94.28571428571432 L 187.8571428571429 94.28571428571432 L 190.71428571428578 95.00000000000001 L 192.14285714285722 95.71428571428574 L 193.5714285714286 95.71428571428574 L 194.28571428571433 95.71428571428574 L 195.00000000000006 95.71428571428574 L 195.00000000000006 95.71428571428574 L 195.00000000000006 95.71428571428574 L 195.71428571428578 96.42857142857146 L 196.4285714285715 97.14285714285715 L 197.14285714285722 97.14285714285715 L 197.14285714285722 97.14285714285715 L 197.8571428571429 97.14285714285715 L 198.5714285714286 97.85714285714288 L 199.28571428571433 97.85714285714288 L 200.00000000000006 97.85714285714288 L 200.71428571428578 97.85714285714288 L 200.71428571428578 97.85714285714288 L 201.4285714285715 98.5714285714286 L 202.14285714285722 98.5714285714286 L 202.8571428571429 98.5714285714286 L 202.8571428571429 98.5714285714286 L 203.5714285714286 98.5714285714286 L 204.28571428571433 98.5714285714286 L 204.28571428571433 98.5714285714286 L 204.28571428571433 98.5714285714286 L 204.28571428571433 100.00000000000001 L 204.28571428571433 100.71428571428574 L 204.28571428571433 103.5714285714286 L 202.8571428571429 105.71428571428574 L 202.8571428571429 108.5714285714286 L 202.14285714285722 110.00000000000001 L 202.14285714285722 111.42857142857146 L 201.4285714285715 111.42857142857146 L 201.4285714285715 111.42857142857146 L 200.71428571428578 110.71428571428574 L 200.00000000000006 108.5714285714286 L 198.5714285714286 106.42857142857146 L 197.8571428571429 104.28571428571432 L 196.4285714285715 102.14285714285715 L 194.28571428571433 100.71428571428574 L 193.5714285714286 100.00000000000001 L 192.14285714285722 99.28571428571432 L 192.14285714285722 99.28571428571432 L 192.14285714285722 99.28571428571432 L 192.8571428571429 100.00000000000001 L 195.00000000000006 100.71428571428574 L 197.14285714285722 100.71428571428574 L 199.28571428571433 100.71428571428574 L 201.4285714285715 100.71428571428574 L 202.8571428571429 100.00000000000001 L 204.28571428571433 99.28571428571432 L 204.28571428571433 98.5714285714286 L 204.28571428571433 97.85714285714288 L 204.28571428571433 97.14285714285715 L 204.28571428571433 97.14285714285715 L 203.5714285714286 97.14285714285715 L 203.5714285714286 97.14285714285715 L 202.8571428571429 97.14285714285715 L 202.8571428571429 96.42857142857146 L 202.8571428571429 96.42857142857146 L 202.8571428571429 96.42857142857146 L 202.8571428571429 95.71428571428574 L 202.8571428571429 95.00000000000001 L 202.8571428571429 95.00000000000001 L 202.8571428571429 94.28571428571432 L 202.8571428571429 94.28571428571432 L 203.5714285714286 95.00000000000001 L 203.5714285714286 96.42857142857146 L 204.28571428571433 99.28571428571432 L 205.00000000000006 101.42857142857146 L 205.71428571428578 103.5714285714286 L 205.71428571428578 105.00000000000001 L 205.71428571428578 105.00000000000001 L 205.71428571428578 105.71428571428574 L 206.4285714285715 105.00000000000001 L 206.4285714285715 102.85714285714288 L 206.4285714285715 100.71428571428574 L 206.4285714285715 98.5714285714286 L 206.4285714285715 96.42857142857146 L 207.14285714285722 95.71428571428574 L 207.14285714285722 94.28571428571432 L 207.14285714285722 94.28571428571432 L 207.14285714285722 94.28571428571432 L 207.8571428571429 95.71428571428574 L 208.5714285714286 98.5714285714286 L 209.28571428571433 102.14285714285715 L 209.28571428571433 105.00000000000001 L 210.00000000000006 106.42857142857146 L 210.00000000000006 107.14285714285715 L 210.00000000000006 107.14285714285715 L 210.00000000000006 105.00000000000001 L 210.00000000000006 102.14285714285715 L 210.00000000000006 100.00000000000001 L 210.00000000000006 97.85714285714288 L 210.00000000000006 96.42857142857146 L 210.00000000000006 95.00000000000001 L 210.00000000000006 95.00000000000001 L 210.00000000000006 95.00000000000001 L 210.00000000000006 96.42857142857146 L 210.00000000000006 99.28571428571432 L 210.00000000000006 102.85714285714288 L 210.00000000000006 105.00000000000001 L 210.00000000000006 105.71428571428574 " stroke="black" fill="none" stroke-width="17.0" stroke-linecap="round" stroke-linejoin="round" />
</svg>