<svg xmlns="http://www.w3.org/2000/svg" width="300" height="300" viewBox="0 0 300 300">
<circle cx="14.444444444444446" cy="116.1111111111111" r="2.5" fill="black" />
<path d="M 147.22222222222223 86.11111111111111 L 147.22222222222223 86.11111111111111 L 146.66666666666669 86.11111111111111 L 146.11111111111111 86.11111111111111 L 145.55555555555557 86.11111111111111 L 145.00000000000003 87.22222222222223 L 144.44444444444446 87.77777777777777 L 143.8888888888889 88.88888888888889 L 143.33333333333334 90.0 L 142.22222222222223 91.66666666666667 L 141.11111111111111 92.77777777777777 L 140.00000000000003 94.44444444444444 L 138.8888888888889 96.11111111111111 L 137.22222222222223 97.77777777777777 L 135.55555555555557 99.44444444444444 L 133.8888888888889 101.11111111111111 L 132.22222222222223 102.77777777777777 L 130.55555555555557 104.44444444444444 L 128.8888888888889 106.11111111111111 L 127.22222222222221 107.77777777777779 L 126.1111111111111 109.44444444444444 L 124.44444444444444 111.11111111111111 L 123.33333333333333 112.77777777777779 L 121.66666666666667 115.00000000000001 L 120.00000000000001 116.66666666666667 L 118.33333333333333 118.33333333333333 L 116.1111111111111 120.00000000000001 L 114.44444444444444 121.66666666666667 L 112.22222222222221 123.33333333333333 L 110.55555555555556 125.55555555555556 L 108.33333333333333 127.22222222222221 L 106.66666666666667 128.8888888888889 L 105.0 130.55555555555557 L 103.88888888888889 131.66666666666669 L 102.77777777777777 133.33333333333334 L 101.66666666666667 134.44444444444446 L 100.55555555555556 135.55555555555557 L 100.0 136.11111111111111 L 98.88888888888889 137.22222222222223 L 98.33333333333333 138.33333333333334 L 97.22222222222223 140.00000000000003 L 96.11111111111111 140.55555555555557 L 95.55555555555556 141.66666666666669 L 94.44444444444444 142.7777777777778 L 93.88888888888889 143.33333333333334 L 92.77777777777777 144.44444444444446 L 91.66666666666667 145.00000000000003 L 91.11111111111111 145.55555555555557 L 90.55555555555556 146.11111111111111 L 89.44444444444444 146.66666666666669 L 88.88888888888889 147.22222222222223 L 88.33333333333333 147.22222222222223 L 87.77777777777777 147.7777777777778 L 87.22222222222223 148.33333333333334 L 86.66666666666667 148.33333333333334 L 86.66666666666667 148.8888888888889 L 86.11111111111111 148.8888888888889 L 86.11111111111111 148.8888888888889 L 86.11111111111111 148.8888888888889 L 86.11111111111111 148.8888888888889 L 86.11111111111111 149.44444444444446 L 85.55555555555556 149.44444444444446 L 85.55555555555556 149.44444444444446 " stroke="black" fill="none" stroke-width="5.0" stroke-linecap="round" stroke-linejoin="round" />
<path d="M 86.11111111111111 151.11111111111111 L 86.11111111111111 151.11111111111111 L 85.55555555555556 151.11111111111111 L 85.55555555555556 151.11111111111111 L 85.0 151.11111111111111 L 85.0 151.11111111111111 L 86.11111111111111 152.22222222222223 L 88.33333333333333 153.8888888888889 L 91.11111111111111 156.66666666666669 L 93.88888888888889 159.44444444444446 L 96.66666666666667 162.7777777777778 L 100.0 166.11111111111114 L 103.33333333333333 169.44444444444446 L 105.55555555555556 172.22222222222223 L 108.33333333333333 175.00000000000003 L 111.66666666666667 177.7777777777778 L 113.8888888888889 180.00000000000003 L 116.66666666666667 182.22222222222223 L 119.44444444444444 185.00000000000003 L 122.22222222222221 187.7777777777778 L 123.8888888888889 190.00000000000003 L 126.1111111111111 192.22222222222223 L 127.22222222222221 193.8888888888889 L 128.8888888888889 196.11111111111114 L 130.55555555555557 197.22222222222223 L 132.22222222222223 198.8888888888889 L 133.8888888888889 200.00000000000003 L 135.55555555555557 201.66666666666669 L 137.7777777777778 203.33333333333334 L 139.44444444444446 205.00000000000003 L 140.55555555555557 206.11111111111114 L 142.22222222222223 207.22222222222223 L 143.8888888888889 208.33333333333334 L 145.00000000000003 209.44444444444446 L 146.11111111111111 210.55555555555557 L 147.22222222222223 211.66666666666669 L 147.7777777777778 213.33333333333334 L 148.33333333333334 213.8888888888889 L 148.8888888888889 214.44444444444446 L 149.44444444444446 215.00000000000003 L 149.44444444444446 215.55555555555557 L 150.00000000000003 215.55555555555557 L 150.00000000000003 216.11111111111114 L 150.00000000000003 216.11111111111114 L 150.00000000000003 216.11111111111114 L 150.00000000000003 216.11111111111114 " stroke="black" fill="none" stroke-width="5.0" stroke-linecap="round" stroke-linejoin="round" />
<path d="M 147.7777777777778 83.33333333333333 L 147.7777777777778 83.33333333333333 L 147.7777777777778 83.33333333333333 L 147.7777777777778 83.33333333333333 L 148.33333333333334 83.33333333333333 L 148.33333333333334 83.33333333333333 L 148.8888888888889 83.33333333333333 L 149.44444444444446 84.44444444444444 L 151.11111111111111 85.55555555555556 L 153.33333333333334 87.77777777777777 L 156.66666666666669 90.0 L 160.00000000000003 92.77777777777777 L 163.33333333333334 95.55555555555556 L 166.11111111111114 97.77777777777777 L 169.44444444444446 100.0 L 172.22222222222223 102.22222222222223 L 174.44444444444446 104.44444444444444 L 176.11111111111114 106.66666666666667 L 178.33333333333334 108.88888888888889 L 180.55555555555557 110.55555555555556 L 182.7777777777778 112.77777777777779 L 185.00000000000003 114.44444444444444 L 187.22222222222223 116.66666666666667 L 190.00000000000003 118.33333333333333 L 192.22222222222223 120.00000000000001 L 193.8888888888889 122.22222222222221 L 195.00000000000003 123.8888888888889 L 196.66666666666669 125.00000000000001 L 198.33333333333334 126.1111111111111 L 199.44444444444446 127.77777777777779 L 200.55555555555557 128.8888888888889 L 201.66666666666669 130.00000000000003 L 202.7777777777778 131.66666666666669 L 203.8888888888889 132.7777777777778 L 204.44444444444446 133.33333333333334 L 205.55555555555557 134.44444444444446 L 206.11111111111114 135.55555555555557 L 207.22222222222223 136.11111111111111 L 208.33333333333334 137.7777777777778 L 209.44444444444446 138.33333333333334 L 210.00000000000003 139.44444444444446 L 211.11111111111114 140.00000000000003 L 211.66666666666669 141.11111111111111 L 212.7777777777778 141.66666666666669 L 213.33333333333334 142.7777777777778 L 214.44444444444446 143.33333333333334 L 215.00000000000003 143.8888888888889 L 215.55555555555557 144.44444444444446 L 216.11111111111114 145.00000000000003 L 216.66666666666669 145.00000000000003 L 217.22222222222223 146.11111111111111 L 217.7777777777778 146.66666666666669 L 218.33333333333334 147.22222222222223 L 218.8888888888889 147.7777777777778 L 218.8888888888889 148.33333333333334 L 219.44444444444446 148.33333333333334 L 219.44444444444446 148.33333333333334 L 219.44444444444446 148.33333333333334 " stroke="black" fill="none" stroke-width="5.0" stroke-linecap="round" stroke-linejoin="round" />
<path d="M 151.66666666666669 213.8888888888889 L 151.66666666666669 213.8888888888889 L 152.22222222222223 213.8888888888889 L 152.22222222222223 213.8888888888889 L 152.7777777777778 213.33333333333334 L 153.33333333333334 212.7777777777778 L 154.44444444444446 211.66666666666669 L 156.11111111111111 210.55555555555557 L 158.33333333333334 208.33333333333334 L 160.55555555555557 206.11111111111114 L 163.33333333333334 204.44444444444446 L 165.55555555555557 202.22222222222223 L 167.7777777777778 200.55555555555557 L 169.44444444444446 198.8888888888889 L 171.66666666666669 197.22222222222223 L 173.33333333333334 195.55555555555557 L 174.44444444444446 194.44444444444446 L 175.55555555555557 193.33333333333334 L 176.66666666666669 192.22222222222223 L 177.7777777777778 191.11111111111114 L 179.44444444444446 190.00000000000003 L 181.11111111111114 188.33333333333334 L 182.22222222222223 186.66666666666669 L 183.8888888888889 185.00000000000003 L 186.11111111111114 183.8888888888889 L 187.7777777777778 182.22222222222223 L 190.00000000000003 181.11111111111114 L 191.66666666666669 179.44444444444446 L 193.33333333333334 177.7777777777778 L 194.44444444444446 176.66666666666669 L 195.55555555555557 175.55555555555557 L 196.66666666666669 175.00000000000003 L 197.7777777777778 173.8888888888889 L 198.8888888888889 172.22222222222223 L 200.00000000000003 171.11111111111114 L 200.55555555555557 170.55555555555557 L 201.66666666666669 169.44444444444446 L 202.22222222222223 168.33333333333334 L 203.33333333333334 167.22222222222223 L 204.44444444444446 166.11111111111114 L 205.00000000000003 165.00000000000003 L 206.11111111111114 163.8888888888889 L 207.22222222222223 162.7777777777778 L 207.7777777777778 162.22222222222223 L 208.8888888888889 161.11111111111111 L 209.44444444444446 160.00000000000003 L 210.55555555555557 158.8888888888889 L 211.66666666666669 157.7777777777778 L 212.22222222222223 157.22222222222223 L 213.33333333333334 156.11111111111111 L 213.8888888888889 156.11111111111111 L 214.44444444444446 155.55555555555557 L 215.00000000000003 155.00000000000003 L 215.55555555555557 155.00000000000003 L 216.11111111111114 154.44444444444446 L 216.66666666666669 154.44444444444446 L 217.22222222222223 153.8888888888889 L 217.7777777777778 153.33333333333334 L 217.7777777777778 152.7777777777778 L 218.33333333333334 152.7777777777778 L 218.8888888888889 152.22222222222223 L 218.8888888888889 152.22222222222223 L 218.8888888888889 151.66666666666669 L 219.44444444444446 151.66666666666669 L 219.44444444444446 151.66666666666669 L 219.44444444444446 151.66666666666669 L 219.44444444444446 151.66666666666669 " stroke="black" fill="none" stroke-width="5.0" stroke-linecap="round" stroke-linejoin="round" />
<path d="M 93.5714285714286 149.28571428571433 L 93.5714285714286 149.28571428571433 L 93.5714285714286 149.28571428571433 L 93.5714285714286 149.28571428571433 L 94.28571428571432 149.28571428571433 L 94.28571428571432 149.28571428571433 L 94.28571428571432 149.28571428571433 L 94.28571428571432 149.28571428571433 L 94.28571428571432 149.28571428571433 L 94.28571428571432 149.28571428571433 L 94.28571428571432 150.00000000000006 L 95.00000000000001 150.71428571428572 L 95.71428571428574 151.42857142857144 L 96.42857142857146 152.8571428571429 L 97.14285714285715 154.28571428571433 L 99.28571428571432 155.71428571428572 L 100.71428571428574 157.14285714285717 L 102.14285714285715 158.5714285714286 L 103.5714285714286 159.28571428571433 L 105.00000000000001 160.71428571428572 L 106.42857142857146 162.14285714285717 L 108.5714285714286 163.5714285714286 L 110.71428571428574 165.00000000000006 L 112.14285714285718 166.42857142857144 L 113.5714285714286 167.8571428571429 L 114.28571428571432 169.28571428571433 L 115.71428571428574 170.71428571428572 L 116.42857142857146 172.14285714285717 L 117.14285714285718 172.8571428571429 L 117.85714285714288 174.28571428571433 L 119.28571428571432 175.00000000000006 L 119.28571428571432 175.71428571428578 L 120.00000000000001 175.71428571428578 L 120.71428571428574 176.42857142857144 L 122.14285714285718 177.8571428571429 L 122.85714285714288 178.5714285714286 L 123.5714285714286 179.28571428571433 L 125.00000000000001 180.00000000000006 L 125.71428571428574 181.42857142857144 L 127.14285714285718 182.14285714285717 L 127.85714285714288 183.5714285714286 L 129.28571428571433 184.28571428571433 L 130.71428571428572 185.00000000000006 L 131.42857142857144 185.71428571428578 L 132.8571428571429 187.14285714285717 L 134.28571428571433 188.5714285714286 L 135.71428571428572 190.00000000000006 L 136.42857142857144 190.71428571428578 L 137.8571428571429 192.14285714285722 L 138.5714285714286 192.8571428571429 L 139.28571428571433 193.5714285714286 L 140.00000000000006 194.28571428571433 L 140.71428571428572 195.00000000000006 L 142.14285714285717 195.71428571428578 L 142.8571428571429 197.14285714285722 L 143.5714285714286 197.8571428571429 L 144.28571428571433 199.28571428571433 L 145.00000000000006 200.00000000000006 L 145.71428571428572 200.71428571428578 L 147.14285714285717 202.14285714285722 L 147.8571428571429 202.8571428571429 L 147.8571428571429 203.5714285714286 L 148.5714285714286 204.28571428571433 L 149.28571428571433 204.28571428571433 L 150.00000000000006 205.00000000000006 L 150.71428571428572 205.71428571428578 L 151.42857142857144 206.4285714285715 L 151.42857142857144 206.4285714285715 L 151.42857142857144 206.4285714285715 L 151.42857142857144 207.14285714285722 L 152.14285714285717 207.14285714285722 L 152.14285714285717 207.14285714285722 L 152.14285714285717 207.14285714285722 L 152.14285714285717 207.14285714285722 L 152.14285714285717 207.14285714285722 L 152.14285714285717 207.14285714285722 L 152.14285714285717 207.14285714285722 L 152.14285714285717 207.14285714285722 " stroke="black" fill="none" stroke-width="14.0" stroke-linecap="round" stroke-linejoin="round" />
<path d="M 152.14285714285717 201.4285714285715 L 152.14285714285717 201.4285714285715 L 152.14285714285717 201.4285714285715 L 152.14285714285717 202.14285714285722 L 152.8571428571429 202.14285714285722 L 154.28571428571433 201.4285714285715 L 156.42857142857144 199.28571428571433 L 159.28571428571433 197.8571428571429 L 160.71428571428572 196.4285714285715 L 162.14285714285717 195.00000000000006 L 163.5714285714286 194.28571428571433 L 164.28571428571433 193.5714285714286 L 165.00000000000006 192.8571428571429 L 165.71428571428572 192.14285714285722 L 167.14285714285717 191.42857142857144 L 168.5714285714286 190.71428571428578 L 169.28571428571433 190.00000000000006 L 170.71428571428572 189.28571428571433 L 172.14285714285717 187.8571428571429 L 173.5714285714286 187.14285714285717 L 175.00000000000006 186.42857142857144 L 176.42857142857144 185.71428571428578 L 177.14285714285717 185.00000000000006 L 177.8571428571429 184.28571428571433 L 178.5714285714286 183.5714285714286 L 179.28571428571433 182.8571428571429 L 180.00000000000006 181.42857142857144 L 180.71428571428578 180.71428571428578 L 181.42857142857144 180.00000000000006 L 181.42857142857144 179.28571428571433 L 182.14285714285717 177.8571428571429 L 182.8571428571429 177.14285714285717 L 183.5714285714286 176.42857142857144 L 184.28571428571433 175.71428571428578 L 184.28571428571433 175.00000000000006 L 185.00000000000006 174.28571428571433 L 185.71428571428578 173.5714285714286 L 186.42857142857144 172.8571428571429 L 186.42857142857144 172.14285714285717 L 187.14285714285717 171.42857142857144 L 187.8571428571429 170.00000000000006 L 189.28571428571433 169.28571428571433 L 190.00000000000006 167.8571428571429 L 191.42857142857144 167.14285714285717 L 192.14285714285722 166.42857142857144 L 192.8571428571429 165.71428571428572 L 194.28571428571433 165.00000000000006 L 195.00000000000006 164.28571428571433 L 195.71428571428578 163.5714285714286 L 196.4285714285715 163.5714285714286 L 197.14285714285722 162.8571428571429 L 197.8571428571429 162.14285714285717 L 198.5714285714286 161.42857142857144 L 199.28571428571433 161.42857142857144 L 200.00000000000006 160.71428571428572 L 200.71428571428578 160.71428571428572 L 201.4285714285715 160.00000000000006 L 202.14285714285722 160.00000000000006 L 202.8571428571429 159.28571428571433 L 203.5714285714286 158.5714285714286 L 204.28571428571433 158.5714285714286 L 205.00000000000006 157.8571428571429 L 205.71428571428578 157.8571428571429 L 206.4285714285715 157.14285714285717 L 206.4285714285715 156.42857142857144 L 207.14285714285722 156.42857142857144 L 207.8571428571429 155.71428571428572 L 208.5714285714286 155.00000000000006 L 208.5714285714286 155.00000000000006 L 209.28571428571433 154.28571428571433 L 209.28571428571433 154.28571428571433 L 210.00000000000006 153.5714285714286 L 210.00000000000006 153.5714285714286 L 210.00000000000006 152.8571428571429 L 210.71428571428578 152.8571428571429 L 210.71428571428578 152.8571428571429 L 210.71428571428578 152.8571428571429 L 210.71428571428578 152.14285714285717 L 210.71428571428578 152.14285714285717 " stroke="black" fill="none" stroke-width="14.0" stroke-linecap="round" stroke-linejoin="round" />
<path d="M 150.71428571428572 95.00000000000001 L 150.71428571428572 95.00000000000001 L 150.00000000000006 95.00000000000001 L 150.00000000000006 95.00000000000001 L 150.00000000000006 94.28571428571432 L 150.00000000000006 94.28571428571432 L 150.00000000000006 94.28571428571432 L 149.28571428571433 94.28571428571432 L 149.28571428571433 94.28571428571432 L 149.28571428571433 94.28571428571432 L 150.00000000000006 95.00000000000001 L 150.71428571428572 95.71428571428574 L 151.42857142857144 96.42857142857146 L 152.8571428571429 97.85714285714288 L 154.28571428571433 99.28571428571432 L 155.71428571428572 100.71428571428574 L 157.14285714285717 102.14285714285715 L 157.8571428571429 103.5714285714286 L 159.28571428571433 104.28571428571432 L 160.00000000000006 105.71428571428574 L 161.42857142857144 107.14285714285715 L 162.8571428571429 107.85714285714288 L 163.5714285714286 109.28571428571432 L 165.00000000000006 110.00000000000001 L 165.71428571428572 111.42857142857146 L 167.14285714285717 112.14285714285718 L 167.8571428571429 112.85714285714288 L 169.28571428571433 113.5714285714286 L 170.00000000000006 114.28571428571432 L 171.42857142857144 115.00000000000001 L 172.14285714285717 115.71428571428574 L 173.5714285714286 117.14285714285718 L 174.28571428571433 117.85714285714288 L 175.71428571428578 119.28571428571432 L 176.42857142857144 120.00000000000001 L 177.8571428571429 120.71428571428574 L 179.28571428571433 122.14285714285718 L 180.00000000000006 122.85714285714288 L 181.42857142857144 123.5714285714286 L 182.14285714285717 124.28571428571432 L 182.14285714285717 124.28571428571432 L 182.14285714285717 124.28571428571432 L 182.14285714285717 124.28571428571432 L 180.00000000000006 123.5714285714286 L 177.8571428571429 121.42857142857146 L 175.00000000000006 119.28571428571432 L 172.14285714285717 117.14285714285718 L 169.28571428571433 115.00000000000001 L 167.14285714285717 112.85714285714288 L 165.71428571428572 111.42857142857146 L 163.5714285714286 109.28571428571432 L 162.8571428571429 107.85714285714288 L 161.42857142857144 107.14285714285715 L 161.42857142857144 105.71428571428574 L 161.42857142857144 105.71428571428574 L 161.42857142857144 105.71428571428574 L 161.42857142857144 105.71428571428574 L 161.42857142857144 105.71428571428574 L 161.42857142857144 105.71428571428574 L 162.14285714285717 105.71428571428574 L 164.28571428571433 107.14285714285715 L 167.14285714285717 109.28571428571432 L 170.00000000000006 111.42857142857146 L 172.8571428571429 113.5714285714286 L 175.00000000000006 115.71428571428574 L 177.8571428571429 117.85714285714288 L 180.00000000000006 119.28571428571432 L 181.42857142857144 121.42857142857146 L 182.8571428571429 122.85714285714288 L 184.28571428571433 125.00000000000001 L 185.71428571428578 126.42857142857146 L 186.42857142857144 127.85714285714288 L 187.8571428571429 129.28571428571433 L 188.5714285714286 130.00000000000006 L 189.28571428571433 130.00000000000006 L 189.28571428571433 130.00000000000006 L 189.28571428571433 130.00000000000006 L 189.28571428571433 130.00000000000006 L 189.28571428571433 130.00000000000006 L 189.28571428571433 130.00000000000006 L 189.28571428571433 130.00000000000006 L 189.28571428571433 130.00000000000006 L 190.00000000000006 130.71428571428572 L 190.71428571428578 130.71428571428572 L 191.42857142857144 131.42857142857144 L 192.14285714285722 132.14285714285717 L 192.8571428571429 132.8571428571429 L 195.00000000000006 134.28571428571433 L 196.4285714285715 135.71428571428572 L 197.8571428571429 137.14285714285717 L 199.28571428571433 137.8571428571429 L 200.71428571428578 138.5714285714286 L 201.4285714285715 139.28571428571433 L 202.8571428571429 140.00000000000006 L 203.5714285714286 140.71428571428572 L 205.00000000000006 141.42857142857144 L 205.71428571428578 142.14285714285717 L 206.4285714285715 142.14285714285717 L 207.14285714285722 142.8571428571429 L 207.8571428571429 143.5714285714286 L 208.5714285714286 143.5714285714286 L 208.5714285714286 144.28571428571433 L 209.28571428571433 144.28571428571433 L 209.28571428571433 144.28571428571433 L 209.28571428571433 144.28571428571433 L 209.28571428571433 144.28571428571433 " stroke="black" fill="none" stroke-width="14.0" stroke-linecap="round" stroke-linejoin="round" />
<path d="M 99.28571428571432 148.5714285714286 L 99.28571428571432 148.5714285714286 L 99.28571428571432 148.5714285714286 L 99.28571428571432 149.28571428571433 L 98.5714285714286 150.00000000000006 L 98.5714285714286 150.00000000000006 L 98.5714285714286 150.00000000000006 L 99.28571428571432 150.00000000000006 L 100.71428571428574 149.28571428571433 L 102.14285714285715 147.8571428571429 L 103.5714285714286 147.14285714285717 L 105.00000000000001 145.71428571428572 L 106.42857142857146 145.00000000000006 L 107.14285714285715 143.5714285714286 L 107.85714285714288 142.8571428571429 L 108.5714285714286 142.14285714285717 L 110.00000000000001 141.42857142857144 L 111.42857142857146 140.71428571428572 L 112.14285714285718 139.28571428571433 L 113.5714285714286 138.5714285714286 L 114.28571428571432 137.8571428571429 L 115.00000000000001 137.14285714285717 L 115.71428571428574 135.71428571428572 L 116.42857142857146 135.00000000000006 L 117.85714285714288 133.5714285714286 L 119.28571428571432 132.14285714285717 L 120.00000000000001 131.42857142857144 L 121.42857142857146 130.00000000000006 L 122.14285714285718 129.28571428571433 L 123.5714285714286 127.85714285714288 L 123.5714285714286 127.14285714285718 L 124.28571428571432 126.42857142857146 L 124.28571428571432 126.42857142857146 L 123.5714285714286 127.85714285714288 L 122.14285714285718 129.28571428571433 L 120.71428571428574 130.71428571428572 L 119.28571428571432 132.14285714285717 L 117.85714285714288 133.5714285714286 L 116.42857142857146 135.00000000000006 L 114.28571428571432 136.42857142857144 L 112.85714285714288 137.8571428571429 L 111.42857142857146 139.28571428571433 L 109.28571428571432 140.71428571428572 L 107.85714285714288 141.42857142857144 L 107.14285714285715 142.14285714285717 L 105.71428571428574 142.8571428571429 L 105.00000000000001 142.8571428571429 L 104.28571428571432 142.8571428571429 L 104.28571428571432 142.8571428571429 L 104.28571428571432 142.8571428571429 L 104.28571428571432 142.8571428571429 L 104.28571428571432 142.8571428571429 L 104.28571428571432 142.8571428571429 L 104.28571428571432 142.8571428571429 L 104.28571428571432 142.8571428571429 L 105.00000000000001 142.14285714285717 L 105.71428571428574 141.42857142857144 L 107.14285714285715 140.00000000000006 L 108.5714285714286 138.5714285714286 L 110.00000000000001 137.14285714285717 L 112.14285714285718 135.71428571428572 L 113.5714285714286 134.28571428571433 L 114.28571428571432 132.8571428571429 L 115.71428571428574 131.42857142857144 L 116.42857142857146 130.00000000000006 L 117.14285714285718 129.28571428571433 L 117.85714285714288 129.28571428571433 L 118.5714285714286 128.5714285714286 L 119.28571428571432 127.85714285714288 L 120.00000000000001 127.14285714285718 L 120.00000000000001 126.42857142857146 L 120.71428571428574 125.71428571428574 L 121.42857142857146 125.00000000000001 L 122.14285714285718 124.28571428571432 L 122.85714285714288 123.5714285714286 L 123.5714285714286 122.14285714285718 L 125.00000000000001 121.42857142857146 L 125.71428571428574 120.71428571428574 L 127.14285714285718 120.00000000000001 L 128.5714285714286 119.28571428571432 L 130.00000000000006 117.85714285714288 L 131.42857142857144 117.14285714285718 L 132.8571428571429 115.71428571428574 L 134.28571428571433 115.00000000000001 L 135.71428571428572 113.5714285714286 L 137.14285714285717 112.14285714285718 L 138.5714285714286 110.71428571428574 L 140.00000000000006 110.00000000000001 L 141.42857142857144 108.5714285714286 L 142.8571428571429 107.14285714285715 L 143.5714285714286 106.42857142857146 L 145.00000000000006 105.00000000000001 L 145.71428571428572 104.28571428571432 L 147.14285714285717 103.5714285714286 L 147.14285714285717 102.85714285714288 L 147.8571428571429 102.14285714285715 L 147.8571428571429 102.14285714285715 L 147.8571428571429 102.14285714285715 L 147.8571428571429 102.14285714285715 L 147.8571428571429 102.14285714285715 L 147.8571428571429 102.14285714285715 L 146.42857142857144 103.5714285714286 L 145.00000000000006 105.00000000000001 L 143.5714285714286 106.42857142857146 L 142.14285714285717 108.5714285714286 L 140.00000000000006 110.00000000000001 L 137.14285714285717 111.42857142857146 L 135.00000000000006 112.85714285714288 L 133.5714285714286 114.28571428571432 L 132.8571428571429 114.28571428571432 L 132.8571428571429 114.28571428571432 L 132.8571428571429 114.28571428571432 L 132.8571428571429 114.28571428571432 L 132.8571428571429 114.28571428571432 L 133.5714285714286 114.28571428571432 L 133.5714285714286 114.28571428571432 L 134.28571428571433 113.5714285714286 L 135.71428571428572 112.14285714285718 L 137.8571428571429 110.00000000000001 L 140.00000000000006 107.14285714285715 L 142.14285714285717 104.28571428571432 L 144.28571428571433 102.85714285714288 L 145.00000000000006 101.42857142857146 L 145.71428571428572 100.71428571428574 L 145.71428571428572 100.71428571428574 L 146.42857142857144 100.00000000000001 L 146.42857142857144 100.00000000000001 L 146.42857142857144 100.00000000000001 L 146.42857142857144 100.00000000000001 L 146.42857142857144 100.00000000000001 L 146.42857142857144 100.00000000000001 L 146.42857142857144 100.00000000000001 L 146.42857142857144 100.00000000000001 L 146.42857142857144 100.00000000000001 L 146.42857142857144 100.00000000000001 L 146.42857142857144 101.42857142857146 L 146.42857142857144 101.42857142857146 " stroke="black" fill="none" stroke-width="14.0" stroke-linecap="round" stroke-linejoin="round" />
<path d="M 112.85714285714288 151.42857142857144 L 112.14285714285718 151.42857142857144 L 111.42857142857146 152.14285714285717 L 111.42857142857146 152.8571428571429 L 111.42857142857146 155.00000000000006 L 115.00000000000001 159.28571428571433 L 122.14285714285718 167.8571428571429 L 130.71428571428572 176.42857142857144 L 135.71428571428572 180.00000000000006 L 136.42857142857144 180.71428571428578 L 136.42857142857144 180.00000000000006 L 135.71428571428572 179.28571428571433 L 132.14285714285717 176.42857142857144 L 127.14285714285718 170.71428571428572 L 122.14285714285718 164.28571428571433 L 117.14285714285718 157.14285714285717 L 114.28571428571432 152.14285714285717 L 114.28571428571432 151.42857142857144 L 115.00000000000001 152.14285714285717 L 119.28571428571432 157.8571428571429 L 127.14285714285718 167.14285714285717 L 135.71428571428572 176.42857142857144 L 143.5714285714286 183.5714285714286 L 147.14285714285717 186.42857142857144 L 147.8571428571429 187.14285714285717 L 147.8571428571429 187.14285714285717 L 146.42857142857144 185.71428571428578 L 142.8571428571429 182.14285714285717 L 137.14285714285717 175.71428571428578 L 131.42857142857144 168.5714285714286 L 125.00000000000001 160.00000000000006 L 120.71428571428574 153.5714285714286 L 120.71428571428574 152.14285714285717 L 120.71428571428574 152.8571428571429 L 122.85714285714288 155.71428571428572 L 130.71428571428572 165.00000000000006 L 140.00000000000006 176.42857142857144 L 148.5714285714286 185.71428571428578 L 152.14285714285717 190.00000000000006 L 152.14285714285717 190.71428571428578 L 152.14285714285717 189.28571428571433 L 150.00000000000006 187.14285714285717 L 145.00000000000006 180.00000000000006 L 137.14285714285717 170.00000000000006 L 128.5714285714286 158.5714285714286 L 121.42857142857146 149.28571428571433 L 120.00000000000001 147.14285714285717 L 120.00000000000001 147.8571428571429 L 120.71428571428574 148.5714285714286 L 127.14285714285718 155.71428571428572 L 137.8571428571429 167.8571428571429 L 149.28571428571433 180.00000000000006 L 156.42857142857144 187.14285714285717 L 157.8571428571429 188.5714285714286 L 157.8571428571429 188.5714285714286 L 156.42857142857144 187.14285714285717 L 152.14285714285717 182.8571428571429 L 145.00000000000006 174.28571428571433 L 135.71428571428572 163.5714285714286 L 125.71428571428574 150.71428571428572 L 120.00000000000001 143.5714285714286 L 119.28571428571432 141.42857142857144 L 119.28571428571432 142.14285714285717 L 120.71428571428574 143.5714285714286 L 130.00000000000006 151.42857142857144 L 141.42857142857144 162.14285714285717 L 152.14285714285717 172.8571428571429 L 159.28571428571433 179.28571428571433 L 160.71428571428572 181.42857142857144 L 161.42857142857144 181.42857142857144 L 160.71428571428572 180.71428571428578 L 157.8571428571429 177.14285714285717 L 151.42857142857144 170.00000000000006 L 144.28571428571433 160.00000000000006 L 135.71428571428572 148.5714285714286 L 128.5714285714286 140.00000000000006 L 126.42857142857146 137.14285714285717 L 125.71428571428574 136.42857142857144 L 126.42857142857146 136.42857142857144 L 130.00000000000006 139.28571428571433 L 140.71428571428572 149.28571428571433 L 153.5714285714286 162.8571428571429 L 165.00000000000006 175.71428571428578 L 169.28571428571433 180.00000000000006 L 170.00000000000006 180.00000000000006 L 169.28571428571433 179.28571428571433 L 166.42857142857144 175.71428571428578 L 158.5714285714286 165.71428571428572 L 150.00000000000006 155.00000000000006 L 140.71428571428572 142.8571428571429 L 134.28571428571433 133.5714285714286 L 133.5714285714286 132.8571428571429 L 134.28571428571433 134.28571428571433 L 140.71428571428572 140.00000000000006 L 150.71428571428572 151.42857142857144 L 160.00000000000006 160.71428571428572 L 167.8571428571429 166.42857142857144 L 170.71428571428572 168.5714285714286 L 171.42857142857144 169.28571428571433 L 171.42857142857144 168.5714285714286 L 170.00000000000006 167.14285714285717 L 164.28571428571433 160.71428571428572 L 156.42857142857144 150.71428571428572 L 147.8571428571429 137.8571428571429 L 140.71428571428572 126.42857142857146 L 138.5714285714286 123.5714285714286 L 139.28571428571433 125.00000000000001 L 140.00000000000006 125.71428571428574 L 142.14285714285717 128.5714285714286 L 150.00000000000006 137.8571428571429 L 163.5714285714286 153.5714285714286 L 177.8571428571429 169.28571428571433 L 182.14285714285717 174.28571428571433 L 182.8571428571429 174.28571428571433 L 181.42857142857144 172.8571428571429 L 177.8571428571429 166.42857142857144 L 170.71428571428572 156.42857142857144 L 161.42857142857144 145.00000000000006 L 151.42857142857144 132.14285714285717 L 144.28571428571433 122.14285714285718 L 142.8571428571429 120.00000000000001 L 144.28571428571433 121.42857142857146 L 150.00000000000006 129.28571428571433 L 159.28571428571433 141.42857142857144 L 168.5714285714286 151.42857142857144 L 176.42857142857144 157.8571428571429 L 179.28571428571433 160.71428571428572 L 180.00000000000006 161.42857142857144 L 180.00000000000006 161.42857142857144 L 177.8571428571429 159.28571428571433 L 172.14285714285717 151.42857142857144 L 165.00000000000006 142.14285714285717 L 155.71428571428572 130.00000000000006 L 150.00000000000006 121.42857142857146 L 148.5714285714286 120.00000000000001 L 150.00000000000006 120.71428571428574 L 155.00000000000006 126.42857142857146 L 165.71428571428572 137.8571428571429 L 177.8571428571429 150.71428571428572 L 185.00000000000006 159.28571428571433 L 187.14285714285717 162.14285714285717 L 187.14285714285717 162.14285714285717 L 185.71428571428578 159.28571428571433 L 181.42857142857144 152.8571428571429 L 175.00000000000006 143.5714285714286 L 167.14285714285717 133.5714285714286 L 157.8571428571429 122.14285714285718 L 153.5714285714286 116.42857142857146 L 154.28571428571433 117.14285714285718 L 157.8571428571429 120.71428571428574 L 165.71428571428572 128.5714285714286 L 175.00000000000006 137.14285714285717 L 182.8571428571429 144.28571428571433 L 187.8571428571429 147.8571428571429 L 190.00000000000006 148.5714285714286 L 190.00000000000006 148.5714285714286 L 188.5714285714286 147.8571428571429 L 185.00000000000006 143.5714285714286 L 179.28571428571433 136.42857142857144 L 170.71428571428572 127.14285714285718 L 161.42857142857144 115.71428571428574 L 157.8571428571429 111.42857142857146 L 157.8571428571429 112.14285714285718 L 164.28571428571433 118.5714285714286 L 174.28571428571433 129.28571428571433 L 184.28571428571433 140.00000000000006 L 192.14285714285722 147.8571428571429 L 197.8571428571429 152.8571428571429 L 200.71428571428578 155.71428571428572 L 201.4285714285715 155.71428571428572 L 201.4285714285715 154.28571428571433 L 197.14285714285722 149.28571428571433 L 192.14285714285722 142.8571428571429 L 186.42857142857144 136.42857142857144 L 182.14285714285717 132.14285714285717 L 180.00000000000006 130.00000000000006 L 179.28571428571433 130.00000000000006 L 182.14285714285717 132.8571428571429 L 187.14285714285717 137.8571428571429 L 192.14285714285722 142.8571428571429 L 195.71428571428578 145.71428571428572 L 196.4285714285715 146.42857142857144 L 196.4285714285715 147.14285714285717 L 196.4285714285715 146.42857142857144 L 195.71428571428578 145.71428571428572 L 195.00000000000006 145.71428571428572 L 193.5714285714286 145.00000000000006 L 191.42857142857144 144.28571428571433 L 188.5714285714286 143.5714285714286 L 185.00000000000006 142.14285714285717 L 180.71428571428578 140.71428571428572 L 175.71428571428578 137.14285714285717 L 170.00000000000006 132.8571428571429 L 164.28571428571433 127.14285714285718 L 160.71428571428572 122.85714285714288 L 157.8571428571429 119.28571428571432 L 155.71428571428572 117.85714285714288 L 153.5714285714286 115.71428571428574 L 151.42857142857144 115.00000000000001 L 150.71428571428572 114.28571428571432 L 150.71428571428572 114.28571428571432 L 150.71428571428572 114.28571428571432 L 150.71428571428572 114.28571428571432 L 150.71428571428572 114.28571428571432 L 150.71428571428572 114.28571428571432 L 150.71428571428572 114.28571428571432 L 151.42857142857144 114.28571428571432 L 151.42857142857144 114.28571428571432 " stroke="black" fill="none" stroke-width="14.0" stroke-linecap="round" stroke-linejoin="round" />
</svg>