<svg xmlns="http://www.w3.org/2000/svg" width="300" height="300" viewBox="0 0 300 300">
<path d="M 79.0 84.0 L 79.0 84.0 L 79.0 84.0 L 79.0 84.0 L 79.0 84.0 L 82.0 85.0 L 90.0 91.0 L 102.0 101.0 L 116.0 115.0 L 129.0 128.0 L 143.0 140.0 L 153.0 150.0 L 162.0 158.0 L 170.0 166.0 L 179.0 173.0 L 185.0 179.0 L 190.0 184.0 L 196.0 189.0 L 201.0 195.0 L 205.0 199.0 L 208.0 202.0 L 211.0 204.0 L 213.0 207.0 L 216.0 210.0 L 219.0 214.0 L 221.0 216.0 L 221.0 217.0 L 221.0 217.0 L 220.0 216.0 L 218.0 213.0 " stroke="black" fill="none" stroke-width="5.0" stroke-linecap="round" stroke-linejoin="round" />
<path d="M 213.0 83.0 L 213.0 83.0 L 213.0 83.0 L 212.0 84.0 L 211.0 86.0 L 208.0 89.0 L 204.0 94.0 L 198.0 101.0 L 191.0 109.0 L 185.0 117.0 L 179.0 123.0 L 174.0 129.0 L 168.0 135.0 L 163.0 140.0 L 158.0 145.0 L 153.0 149.0 L 149.0 153.0 L 145.0 157.0 L 141.0 162.0 L 137.0 166.0 L 133.0 169.0 L 130.0 173.0 L 127.0 176.0 L 124.0 179.0 L 120.0 183.0 L 117.0 185.0 L 114.0 187.0 L 111.0 190.0 L 109.0 193.0 L 106.0 195.0 L 104.0 198.0 L 103.0 200.0 L 101.0 202.0 L 100.0 203.0 L 98.0 205.0 L 96.0 207.0 L 95.0 209.0 L 93.0 210.0 L 92.0 211.0 L 91.0 212.0 L 90.0 214.0 L 89.0 215.0 L 87.0 216.0 L 87.0 217.0 L 86.0 218.0 L 85.0 219.0 L 85.0 220.0 L 85.0 220.0 L 85.0 220.0 L 85.0 220.0 L 85.0 220.0 " stroke="black" fill="none" stroke-width="5.0" stroke-linecap="round" stroke-linejoin="round" />
</svg>