<svg xmlns="http://www.w3.org/2000/svg" width="300" height="300" viewBox="0 0 300 300">
<path d="M 183.0 107.0 L 183.0 107.0 L 183.0 107.0 L 183.0 107.0 L 183.0 107.0 L 183.0 107.0 L 181.0 107.0 L 177.0 107.0 L 170.0 106.0 L 160.0 106.0 L 153.0 106.0 L 149.0 106.0 L 149.0 106.0 " stroke="black" fill="none" stroke-width="5.0" stroke-linecap="round" stroke-linejoin="round" />
<path d="M 188.0 111.0 L 188.0 111.0 L 188.0 111.0 L 188.0 111.0 L 188.0 111.0 L 189.0 113.0 L 191.0 120.0 L 193.0 130.0 L 194.0 138.0 " stroke="black" fill="none" stroke-width="5.0" stroke-linecap="round" stroke-linejoin="round" />
<path d="M 185.0 111.0 L 185.0 111.0 L 185.0 111.0 L 184.0 112.0 L 183.0 113.0 L 182.0 114.0 L 179.0 118.0 L 173.0 126.0 L 164.0 137.0 L 154.0 148.0 L 148.0 154.0 L 143.0 158.0 L 140.0 161.0 L 140.0 162.0 L 140.0 162.0 L 140.0 162.0 " stroke="black" fill="none" stroke-width="5.0" stroke-linecap="round" stroke-linejoin="round" />
<path d="M 135.0 161.0 L 134.0 161.0 L 133.0 161.0 L 131.0 161.0 L 129.0 161.0 L 127.0 161.0 L 124.0 161.0 L 120.0 161.0 L 116.0 162.0 L 113.0 164.0 L 110.0 167.0 L 108.0 170.0 L 107.0 175.0 L 107.0 181.0 L 109.0 188.0 L 113.0 195.0 L 119.0 199.0 L 126.0 202.0 L 133.0 203.0 L 140.0 203.0 L 147.0 201.0 L 152.0 197.0 L 154.0 192.0 L 155.0 185.0 L 155.0 179.0 L 152.0 174.0 L 149.0 169.0 L 146.0 166.0 L 143.0 163.0 L 139.0 162.0 L 135.0 161.0 L 132.0 161.0 L 131.0 161.0 L 131.0 161.0 " stroke="black" fill="none" stroke-width="5.0" stroke-linecap="round" stroke-linejoin="round" />
</svg>