<svg xmlns="http://www.w3.org/2000/svg" width="300" height="300" viewBox="0 0 300 300">
<path d="M 133.0 162.0 L 133.0 162.0 L 132.0 162.0 L 131.0 162.0 L 130.0 162.0 L 129.0 162.0 L 128.0 161.0 L 127.0 159.0 L 126.0 157.0 L 124.0 154.0 L 123.0 150.0 L 123.0 147.0 L 123.0 143.0 L 123.0 139.0 L 124.0 136.0 L 125.0 134.0 L 128.0 132.0 L 131.0 130.0 L 135.0 129.0 L 139.0 128.0 L 144.0 128.0 L 148.0 128.0 L 152.0 128.0 L 156.0 129.0 L 159.0 131.0 L 163.0 133.0 L 165.0 136.0 L 168.0 139.0 L 170.0 143.0 L 172.0 146.0 L 172.0 150.0 L 172.0 154.0 L 171.0 158.0 L 168.0 161.0 L 165.0 164.0 L 160.0 167.0 L 157.0 168.0 " stroke="black" fill="none" stroke-width="5.0" stroke-linecap="round" stroke-linejoin="round" />
<path d="M 137.0 151.0 L 137.0 151.0 L 137.0 151.0 L 137.0 151.0 L 137.0 151.0 L 137.0 152.0 L 137.0 153.0 L 138.0 156.0 L 139.0 159.0 L 139.0 162.0 L 140.0 165.0 L 140.0 166.0 L 140.0 167.0 L 140.0 167.0 L 140.0 167.0 L 140.0 167.0 L 138.0 166.0 L 135.0 165.0 L 131.0 164.0 L 126.0 163.0 L 119.0 163.0 L 118.0 163.0 " stroke="black" fill="none" stroke-width="5.0" stroke-linecap="round" stroke-linejoin="round" />
</svg>