<svg xmlns="http://www.w3.org/2000/svg" width="300" height="300" viewBox="0 0 300 300">
<path d="M 128.0 100.0 L 128.0 100.0 L 128.0 101.0 L 129.0 105.0 L 132.0 113.0 L 138.0 123.0 L 144.0 133.0 L 150.0 141.0 L 153.0 147.0 L 156.0 152.0 L 158.0 156.0 L 160.0 159.0 L 161.0 161.0 L 162.0 163.0 L 162.0 163.0 L 162.0 163.0 L 162.0 163.0 L 162.0 163.0 L 162.0 164.0 L 159.0 167.0 L 157.0 170.0 L 153.0 175.0 L 150.0 182.0 L 145.0 189.0 L 140.0 197.0 L 135.0 204.0 L 132.0 209.0 L 131.0 212.0 L 130.0 212.0 L 130.0 212.0 " stroke="black" fill="none" stroke-width="5.0" stroke-linecap="round" stroke-linejoin="round" />
<path d="M 142.0 100.0 L 142.0 100.0 L 142.0 100.0 L 142.0 99.0 L 142.0 99.0 L 143.0 100.0 L 145.0 103.0 L 148.0 108.0 L 152.0 116.0 L 156.0 123.0 L 161.0 131.0 L 165.0 137.0 L 168.0 142.0 L 171.0 146.0 L 174.0 150.0 L 177.0 153.0 L 179.0 157.0 L 180.0 159.0 L 180.0 160.0 L 180.0 160.0 L 180.0 160.0 L 180.0 160.0 L 180.0 160.0 L 180.0 161.0 L 179.0 163.0 L 177.0 166.0 L 174.0 171.0 L 170.0 177.0 L 165.0 185.0 L 159.0 194.0 L 154.0 201.0 L 151.0 206.0 L 150.0 208.0 L 149.0 208.0 " stroke="black" fill="none" stroke-width="5.0" stroke-linecap="round" stroke-linejoin="round" />
</svg>