<svg xmlns="http://www.w3.org/2000/svg" width="300" height="300" viewBox="0 0 300 300">
<path d="M 120.0 122.0 L 120.0 122.0 L 120.0 122.0 L 120.5 122.0 L 122.5 123.0 L 126.0 125.0 L 131.5 128.0 L 137.0 130.5 L 142.5 132.5 L 147.0 134.5 L 150.5 135.5 L 153.0 137.0 L 156.0 138.5 L 159.0 140.5 L 161.5 141.5 L 164.0 143.0 L 166.0 143.5 L 168.0 144.0 L 169.5 144.5 L 171.5 145.5 L 173.5 146.0 L 175.0 146.5 L 176.5 147.5 L 178.0 148.0 L 178.5 148.0 L 179.0 148.5 L 179.0 148.5 L 179.0 148.5 L 179.0 148.5 " stroke="black" fill="none" stroke-width="5.0" stroke-linecap="round" stroke-linejoin="round" />
<path d="M 179.0 150.0 L 179.0 150.0 L 179.0 150.0 L 179.0 150.0 L 179.0 150.0 L 179.0 150.0 L 177.5 151.0 L 174.5 153.0 L 170.5 155.5 L 166.0 158.0 L 161.5 160.5 L 157.5 162.5 L 154.0 164.5 L 151.5 166.5 L 149.5 168.0 L 147.5 169.5 L 145.5 170.5 L 143.5 172.0 L 141.5 173.5 L 139.0 174.5 L 137.5 175.5 L 136.0 176.0 L 134.5 176.5 L 133.5 177.0 L 131.5 178.0 L 129.5 179.0 L 128.0 180.0 L 126.5 180.5 L 125.5 180.5 L 125.5 181.0 L 125.5 181.0 L 125.5 181.0 L 125.5 181.0 L 125.5 181.0 " stroke="black" fill="none" stroke-width="5.0" stroke-linecap="round" stroke-linejoin="round" />
<path d="M 120.0 126.5 L 120.0 126.5 L 119.5 126.5 L 119.5 126.5 L 119.5 127.5 L 121.5 130.0 L 124.5 134.5 L 127.5 140.5 L 130.0 145.5 L 131.5 148.5 L 132.5 149.0 L 132.5 149.0 " stroke="black" fill="none" stroke-width="5.0" stroke-linecap="round" stroke-linejoin="round" />
<path d="M 131.5 151.0 L 131.5 151.0 L 131.5 151.0 L 131.5 151.0 L 131.5 151.0 L 131.5 151.0 L 131.5 152.5 L 131.0 156.0 L 130.0 162.0 L 128.5 168.5 L 127.0 173.5 L 126.0 177.0 L 125.5 179.0 L 125.5 179.5 L 125.5 179.0 L 125.5 178.5 " stroke="black" fill="none" stroke-width="5.0" stroke-linecap="round" stroke-linejoin="round" />
<path d="M 135.0 151.5 L 135.0 151.5 L 135.0 151.5 L 135.0 151.5 L 135.0 151.5 L 136.0 151.5 L 138.5 151.5 L 142.5 151.5 L 147.0 151.5 L 151.5 151.0 L 155.5 150.5 L 159.5 150.0 L 163.0 150.0 L 166.0 150.0 L 168.5 150.0 L 170.5 150.0 L 172.5 150.0 L 173.5 150.0 L 174.0 150.0 L 174.0 150.0 L 174.0 150.0 L 174.0 150.0 " stroke="black" fill="none" stroke-width="5.0" stroke-linecap="round" stroke-linejoin="round" />
<path d="M 134.5 156.5 L 134.5 156.5 L 134.5 156.0 L 134.5 156.0 L 134.5 156.0 L 134.5 157.0 L 133.5 162.0 L 131.5 168.5 L 130.5 175.0 L 130.0 177.0 L 130.0 176.5 L 131.5 172.5 L 133.0 167.0 L 135.0 162.0 L 136.5 157.5 L 138.0 155.5 L 138.0 155.0 L 138.0 156.0 L 138.0 159.5 L 137.0 164.5 L 136.0 170.0 L 135.0 175.0 L 134.5 177.5 L 134.5 177.5 L 135.0 174.0 L 137.5 168.0 L 139.5 162.0 L 141.5 158.0 L 142.5 156.5 L 142.5 156.5 L 142.5 157.5 L 141.5 161.5 L 140.5 166.5 L 140.0 170.5 L 139.5 173.0 L 139.5 173.5 L 140.0 171.0 L 142.5 165.5 L 144.5 160.0 L 145.5 156.0 L 146.0 154.5 L 146.0 154.5 L 146.0 157.0 L 145.0 161.5 L 144.0 166.0 L 143.5 169.0 L 143.0 170.5 L 143.0 170.5 L 143.5 167.5 L 144.5 163.5 L 145.5 160.5 L 146.0 158.5 L 146.5 158.0 L 146.0 158.0 L 145.0 158.0 L 143.5 158.0 L 142.0 158.0 L 140.5 158.0 L 139.5 157.5 L 138.5 157.0 L 138.5 157.0 L 138.5 157.0 L 140.5 157.0 L 143.5 156.5 L 146.5 156.0 L 150.0 156.0 L 154.0 156.0 L 157.0 156.5 L 160.0 157.5 L 162.0 157.5 L 163.0 157.5 L 163.0 157.0 L 163.0 157.0 L 162.0 157.0 L 159.5 157.0 L 157.0 157.5 L 153.5 158.0 L 150.0 159.0 L 146.0 160.5 L 144.0 161.0 L 144.0 161.0 L 145.5 161.0 L 149.0 160.0 L 152.5 158.5 L 156.0 157.5 L 159.0 156.0 L 161.5 155.5 L 162.5 155.0 L 162.5 155.0 L 162.0 155.0 L 159.0 156.5 L 155.0 159.0 L 151.0 162.0 L 147.0 165.0 L 145.0 166.5 L 145.0 166.5 L 147.5 166.0 L 152.5 163.5 L 158.0 160.5 L 162.5 158.5 L 164.5 157.5 L 165.5 157.0 L 165.0 157.0 L 164.5 157.0 L 164.0 157.5 L 162.0 158.0 L 159.5 159.0 L 156.0 160.0 L 152.0 162.0 L 148.5 163.5 L 146.0 164.0 L 145.0 164.0 L 145.5 164.0 L 147.0 163.0 L 149.5 161.0 L 152.5 159.5 L 156.5 157.5 L 159.5 156.0 L 161.0 155.5 L 161.0 155.5 L 160.5 155.5 L 158.0 156.0 L 154.5 157.0 L 151.0 158.0 L 147.0 158.5 L 143.0 159.0 L 139.5 159.0 L 137.5 159.0 L 137.0 159.0 L 137.5 159.0 L 138.5 158.5 L 140.5 158.0 L 143.0 157.0 L 146.5 156.5 L 151.0 156.0 L 157.0 155.5 L 162.0 155.5 L 165.5 155.5 L 167.5 155.5 L 167.5 155.5 L 168.0 155.5 L 168.0 155.5 L 168.0 155.5 L 168.0 155.5 L 168.0 155.5 L 168.0 155.5 L 168.0 155.5 L 167.0 155.0 L 165.5 155.0 L 163.5 154.5 L 161.0 154.5 L 159.0 154.0 L 157.5 154.0 L 157.0 154.0 L 157.0 154.0 L 160.0 153.5 L 164.0 153.5 L 167.0 153.0 L 169.5 152.5 L 170.5 152.5 L 170.5 152.5 L 170.5 152.5 L 169.0 152.5 L 166.0 152.5 L 163.0 153.5 L 159.0 154.5 L 155.0 155.5 L 151.0 156.0 L 147.5 156.5 L 144.5 157.0 L 142.0 157.5 L 141.0 157.5 L 141.0 157.5 L 141.0 157.5 L 141.0 157.5 L 141.0 157.5 L 141.0 157.5 L 141.5 157.5 L 141.5 157.5 L 141.5 157.5 L 142.0 157.5 L 144.5 157.0 L 149.0 157.0 L 155.5 156.0 L 160.5 155.0 L 162.0 154.5 L 161.5 154.5 L 158.5 155.5 L 154.5 157.0 L 150.5 157.5 L 146.0 157.5 L 142.0 157.0 L 141.0 156.5 " stroke="black" fill="none" stroke-width="5.0" stroke-linecap="round" stroke-linejoin="round" />
</svg>