<svg xmlns="http://www.w3.org/2000/svg" width="300" height="300" viewBox="0 0 300 300">
<path d="M 128.0 102.0 L 129.0 102.0 L 129.0 102.0 L 129.0 102.0 L 131.0 102.0 L 136.0 102.0 L 144.0 102.0 L 152.0 102.0 L 159.0 102.0 L 161.0 102.0 L 162.0 102.0 " stroke="black" fill="none" stroke-width="5.0" stroke-linecap="round" stroke-linejoin="round" />
<path d="M 129.0 105.0 L 129.0 105.0 L 129.0 105.0 L 128.0 105.0 L 128.0 106.0 L 128.0 114.0 L 128.0 128.0 L 129.0 145.0 L 129.0 161.0 L 129.0 173.0 L 130.0 184.0 L 131.0 192.0 L 132.0 196.0 L 133.0 197.0 L 133.0 197.0 L 132.0 197.0 " stroke="black" fill="none" stroke-width="5.0" stroke-linecap="round" stroke-linejoin="round" />
<path d="M 142.0 107.0 L 142.0 107.0 L 142.0 107.0 L 142.0 106.0 L 142.0 106.0 L 142.0 109.0 L 143.0 120.0 L 145.0 138.0 L 147.0 158.0 L 148.0 171.0 L 149.0 181.0 L 150.0 188.0 L 150.0 190.0 L 150.0 190.0 " stroke="black" fill="none" stroke-width="5.0" stroke-linecap="round" stroke-linejoin="round" />
<path d="M 132.0 195.0 L 132.0 195.0 L 132.0 195.0 L 134.0 195.0 L 139.0 195.0 L 147.0 196.0 L 157.0 197.0 L 164.0 197.0 L 166.0 198.0 L 166.0 198.0 " stroke="black" fill="none" stroke-width="5.0" stroke-linecap="round" stroke-linejoin="round" />
</svg>