<svg xmlns="http://www.w3.org/2000/svg" width="300" height="300" viewBox="0 0 300 300">
<path d="M 178.0 125.0 L 178.0 127.0 L 178.0 131.0 L 178.0 137.0 L 178.0 146.0 L 178.0 156.0 L 178.0 164.0 L 178.0 168.0 L 178.0 168.0 " stroke="black" fill="none" stroke-width="5.0" stroke-linecap="round" stroke-linejoin="round" />
<path d="M 180.0 124.0 L 180.0 125.0 L 180.0 125.0 L 180.0 126.0 L 184.0 128.0 L 189.0 131.0 L 195.0 135.0 L 201.0 137.0 L 205.0 140.0 L 208.0 142.0 L 209.0 144.0 L 209.0 146.0 L 208.0 148.0 L 205.0 150.0 L 202.0 153.0 L 198.0 157.0 L 194.0 160.0 L 188.0 165.0 L 182.0 168.0 L 178.0 170.0 L 178.0 170.0 " stroke="black" fill="none" stroke-width="5.0" stroke-linecap="round" stroke-linejoin="round" />
<path d="M 184.0 131.0 L 184.0 131.0 L 184.0 131.0 L 184.0 131.0 L 184.0 131.0 L 184.0 132.0 L 184.0 137.0 L 184.0 146.0 L 185.0 157.0 L 185.0 164.0 L 185.0 165.0 L 185.0 165.0 L 185.0 161.0 L 185.0 155.0 L 185.0 148.0 L 185.0 143.0 L 185.0 139.0 L 185.0 135.0 L 185.0 133.0 L 185.0 132.0 L 185.0 132.0 L 185.0 136.0 L 185.0 143.0 L 185.0 150.0 L 185.0 156.0 L 185.0 160.0 L 185.0 162.0 L 185.0 161.0 L 185.0 154.0 L 185.0 145.0 L 185.0 138.0 L 185.0 134.0 L 185.0 133.0 L 185.0 133.0 L 185.0 137.0 L 183.0 143.0 L 183.0 150.0 L 181.0 157.0 L 181.0 160.0 L 181.0 161.0 L 181.0 161.0 L 181.0 158.0 L 181.0 152.0 L 181.0 145.0 L 181.0 138.0 L 182.0 134.0 L 182.0 132.0 L 182.0 132.0 L 182.0 132.0 L 182.0 133.0 L 181.0 137.0 L 181.0 145.0 L 179.0 154.0 L 178.0 161.0 L 178.0 163.0 L 178.0 164.0 L 178.0 160.0 L 179.0 153.0 L 179.0 146.0 L 180.0 138.0 L 180.0 133.0 L 180.0 131.0 L 180.0 131.0 L 180.0 132.0 L 181.0 137.0 L 181.0 146.0 L 182.0 155.0 L 182.0 164.0 L 182.0 168.0 L 182.0 168.0 L 183.0 165.0 L 185.0 156.0 L 186.0 147.0 L 187.0 139.0 L 188.0 134.0 L 189.0 134.0 L 189.0 134.0 L 189.0 141.0 L 189.0 149.0 L 189.0 156.0 L 189.0 161.0 L 189.0 162.0 L 190.0 161.0 L 191.0 155.0 L 192.0 147.0 L 192.0 142.0 L 193.0 138.0 L 193.0 138.0 L 193.0 139.0 L 193.0 144.0 L 193.0 150.0 L 193.0 154.0 L 193.0 156.0 L 193.0 157.0 L 193.0 155.0 L 194.0 150.0 L 195.0 147.0 L 196.0 144.0 L 196.0 142.0 L 197.0 142.0 L 197.0 142.0 L 197.0 143.0 L 197.0 146.0 L 197.0 148.0 L 197.0 150.0 L 197.0 152.0 L 197.0 152.0 L 197.0 150.0 L 197.0 147.0 L 197.0 145.0 L 197.0 144.0 L 197.0 143.0 L 197.0 143.0 L 198.0 143.0 L 198.0 143.0 L 198.0 143.0 L 198.0 143.0 L 198.0 143.0 L 198.0 143.0 L 198.0 143.0 L 196.0 143.0 L 194.0 143.0 L 193.0 142.0 L 192.0 141.0 L 191.0 141.0 L 190.0 141.0 L 190.0 141.0 L 192.0 141.0 L 195.0 143.0 L 199.0 146.0 L 202.0 147.0 L 204.0 148.0 L 205.0 149.0 L 204.0 149.0 L 201.0 148.0 L 198.0 145.0 L 195.0 142.0 L 193.0 139.0 L 192.0 137.0 L 192.0 137.0 L 192.0 137.0 L 195.0 138.0 L 198.0 140.0 L 200.0 141.0 L 203.0 142.0 L 204.0 143.0 L 205.0 143.0 L 205.0 143.0 L 205.0 143.0 L 205.0 143.0 L 204.0 143.0 L 203.0 143.0 L 203.0 143.0 L 203.0 143.0 L 203.0 142.0 L 202.0 142.0 L 202.0 142.0 L 202.0 142.0 L 201.0 143.0 L 199.0 145.0 L 197.0 148.0 L 195.0 151.0 L 194.0 153.0 L 194.0 154.0 L 194.0 154.0 L 194.0 154.0 L 197.0 154.0 L 200.0 152.0 L 203.0 150.0 L 204.0 149.0 L 204.0 149.0 L 203.0 149.0 L 200.0 152.0 L 196.0 155.0 L 195.0 156.0 " stroke="black" fill="none" stroke-width="5.0" stroke-linecap="round" stroke-linejoin="round" />
<path d="M 106.0 152.0 L 106.0 152.0 L 106.0 152.0 L 106.0 152.0 L 106.0 152.0 L 108.0 152.0 L 111.0 151.0 L 118.0 151.0 L 124.0 150.0 L 131.0 150.0 L 136.0 150.0 L 140.0 150.0 L 144.0 150.0 L 148.0 150.0 L 152.0 150.0 L 156.0 150.0 L 160.0 149.0 L 163.0 149.0 L 166.0 149.0 L 169.0 149.0 L 172.0 149.0 L 174.0 149.0 L 177.0 149.0 L 178.0 149.0 L 180.0 149.0 L 182.0 149.0 L 184.0 149.0 L 185.0 149.0 L 186.0 149.0 L 186.0 149.0 L 186.0 149.0 L 186.0 149.0 " stroke="black" fill="none" stroke-width="5.0" stroke-linecap="round" stroke-linejoin="round" />
</svg>