<svg xmlns="http://www.w3.org/2000/svg" width="300" height="300" viewBox="0 0 300 300">
<path d="M 152.0 107.0 L 152.0 107.0 L 152.0 108.0 L 151.0 109.0 L 150.0 110.0 L 147.0 113.0 L 144.0 116.0 L 140.0 118.0 L 137.0 120.0 L 136.0 120.0 L 136.0 121.0 L 136.0 123.0 L 136.0 127.0 L 136.0 135.0 L 136.0 146.0 L 135.0 157.0 L 134.0 167.0 L 133.0 176.0 L 132.0 182.0 L 132.0 186.0 L 132.0 187.0 L 132.0 187.0 L 132.0 187.0 L 132.0 187.0 L 132.0 186.0 L 130.0 186.0 L 130.0 185.0 " stroke="black" fill="none" stroke-width="5.0" stroke-linecap="round" stroke-linejoin="round" />
<path d="M 130.0 188.0 L 132.0 188.0 L 133.0 188.0 L 135.0 188.0 L 138.0 189.0 L 144.0 191.0 L 150.0 195.0 L 156.0 198.0 L 157.0 199.0 " stroke="black" fill="none" stroke-width="5.0" stroke-linecap="round" stroke-linejoin="round" />
<path d="M 148.0 120.0 L 148.0 120.0 L 148.0 120.0 L 148.0 120.0 L 148.0 120.0 L 148.0 123.0 L 148.0 132.0 L 148.0 148.0 L 148.0 165.0 L 148.0 178.0 L 148.0 186.0 L 148.0 191.0 L 148.0 191.0 L 148.0 191.0 " stroke="black" fill="none" stroke-width="5.0" stroke-linecap="round" stroke-linejoin="round" />
</svg>