<svg xmlns="http://www.w3.org/2000/svg" width="300" height="300" viewBox="0 0 300 300">
<path d="M 150.0 110.0 L 150.0 110.0 L 150.0 110.0 L 150.0 110.0 L 149.0 110.0 L 147.0 111.0 L 143.0 115.0 L 137.0 122.0 L 130.0 133.0 L 125.0 146.0 L 124.0 159.0 L 128.0 171.0 L 135.0 180.0 L 143.0 185.0 L 147.0 187.0 " stroke="black" fill="none" stroke-width="5.0" stroke-linecap="round" stroke-linejoin="round" />
<path d="M 151.0 111.0 L 151.0 111.0 L 151.0 111.0 L 151.0 111.0 L 151.0 111.0 L 151.0 111.0 L 151.0 111.0 L 151.0 112.0 L 149.0 115.0 L 147.0 118.0 L 146.0 122.0 L 144.0 125.0 L 142.0 128.0 L 141.0 132.0 L 140.0 135.0 L 139.0 139.0 L 138.0 142.0 L 137.0 145.0 L 137.0 148.0 L 137.0 151.0 L 137.0 154.0 L 137.0 156.0 L 137.0 159.0 L 138.0 162.0 L 138.0 165.0 L 139.0 167.0 L 139.0 170.0 L 140.0 173.0 L 141.0 176.0 L 142.0 181.0 L 144.0 185.0 L 146.0 187.0 L 148.0 189.0 L 149.0 189.0 " stroke="black" fill="none" stroke-width="5.0" stroke-linecap="round" stroke-linejoin="round" />
</svg>