<svg xmlns="http://www.w3.org/2000/svg" width="300" height="300" viewBox="0 0 300 300">
<path d="M 145.0 115.0 L 145.0 115.0 L 145.0 115.0 L 145.0 115.0 L 145.0 115.0 L 145.0 115.0 L 147.0 116.0 L 151.0 119.0 L 156.0 124.0 L 161.0 130.0 L 164.0 137.0 L 166.0 143.0 L 167.0 149.0 L 167.0 155.0 L 166.0 161.0 L 164.0 165.0 L 161.0 170.0 L 158.0 175.0 L 154.0 180.0 L 149.0 183.0 L 144.0 185.0 L 143.0 185.0 " stroke="black" fill="none" stroke-width="5.0" stroke-linecap="round" stroke-linejoin="round" />
<path d="M 143.0 116.0 L 143.0 116.0 L 143.0 116.0 L 143.0 116.0 L 143.0 117.0 L 143.0 119.0 L 144.0 122.0 L 146.0 128.0 L 147.0 134.0 L 148.0 140.0 L 149.0 145.0 L 150.0 150.0 L 150.0 154.0 L 150.0 158.0 L 150.0 162.0 L 150.0 165.0 L 149.0 168.0 L 149.0 171.0 L 148.0 174.0 L 146.0 178.0 L 144.0 182.0 L 142.0 185.0 L 140.0 187.0 L 139.0 187.0 " stroke="black" fill="none" stroke-width="5.0" stroke-linecap="round" stroke-linejoin="round" />
</svg>