<svg xmlns="http://www.w3.org/2000/svg" width="300" height="300" viewBox="0 0 300 300">
<path d="M 145.0 121.0 L 145.0 121.0 L 144.0 122.0 L 142.0 122.0 L 140.0 123.0 L 137.0 124.0 L 133.0 127.0 L 128.0 130.0 L 124.0 135.0 L 121.0 140.0 L 119.0 146.0 L 120.0 154.0 L 124.0 160.0 L 131.0 166.0 L 138.0 169.0 L 146.0 171.0 L 153.0 171.0 L 159.0 169.0 L 164.0 165.0 L 168.0 160.0 L 172.0 155.0 L 173.0 150.0 L 173.0 144.0 L 171.0 138.0 L 167.0 133.0 L 164.0 130.0 L 160.0 128.0 L 157.0 125.0 L 153.0 123.0 L 151.0 122.0 L 149.0 121.0 L 148.0 121.0 L 147.0 121.0 L 147.0 121.0 " stroke="black" fill="none" stroke-width="5.0" stroke-linecap="round" stroke-linejoin="round" />
<path d="M 141.0 106.0 L 141.0 106.0 L 141.0 106.0 L 141.0 106.0 L 141.0 107.0 L 142.0 109.0 L 146.0 112.0 L 150.0 116.0 L 153.0 119.0 L 154.0 121.0 L 155.0 122.0 L 155.0 122.0 L 154.0 124.0 L 151.0 126.0 L 148.0 130.0 L 144.0 135.0 L 141.0 138.0 " stroke="black" fill="none" stroke-width="5.0" stroke-linecap="round" stroke-linejoin="round" />
</svg>