<svg xmlns="http://www.w3.org/2000/svg" width="300" height="300" viewBox="0 0 300 300">
<path d="M 116.0 155.0 L 117.0 155.0 L 118.0 155.0 L 119.0 155.0 L 121.0 157.0 L 126.0 162.0 L 134.0 169.0 L 142.0 177.0 L 147.0 182.0 L 150.0 185.0 " stroke="black" fill="none" stroke-width="5.0" stroke-linecap="round" stroke-linejoin="round" />
<path d="M 117.0 154.0 L 117.0 154.0 L 117.0 154.0 L 117.0 155.0 L 117.0 155.0 L 117.0 156.0 L 117.0 158.0 L 117.0 162.0 L 116.0 168.0 L 115.0 173.0 L 114.0 178.0 L 113.0 182.0 L 113.0 186.0 L 113.0 188.0 L 113.0 188.0 L 113.0 188.0 L 113.0 188.0 L 113.0 188.0 L 113.0 187.0 L 113.0 187.0 L 115.0 187.0 L 117.0 187.0 L 120.0 187.0 L 124.0 187.0 L 128.0 187.0 L 134.0 187.0 L 139.0 187.0 L 144.0 187.0 L 146.0 187.0 L 148.0 187.0 L 148.0 187.0 L 148.0 187.0 L 148.0 187.0 L 148.0 187.0 " stroke="black" fill="none" stroke-width="5.0" stroke-linecap="round" stroke-linejoin="round" />
<path d="M 116.0 180.0 L 116.0 180.0 L 117.0 180.0 L 118.0 180.0 L 118.0 180.0 L 118.0 180.0 L 118.0 180.0 L 118.0 180.0 L 119.0 182.0 L 120.0 183.0 L 120.0 184.0 L 120.0 184.0 L 120.0 182.0 L 118.0 178.0 L 117.0 175.0 L 117.0 173.0 L 117.0 172.0 L 117.0 172.0 L 118.0 175.0 L 120.0 178.0 L 122.0 181.0 L 122.0 182.0 L 123.0 183.0 L 123.0 183.0 L 123.0 180.0 L 121.0 176.0 L 119.0 171.0 L 117.0 167.0 L 117.0 165.0 L 117.0 167.0 L 121.0 173.0 L 125.0 178.0 L 128.0 182.0 L 129.0 183.0 L 129.0 183.0 L 128.0 180.0 L 126.0 174.0 L 123.0 168.0 L 121.0 163.0 L 120.0 161.0 L 119.0 160.0 L 121.0 163.0 L 127.0 173.0 L 132.0 181.0 L 137.0 186.0 L 138.0 187.0 L 138.0 187.0 L 136.0 183.0 L 132.0 177.0 L 128.0 170.0 L 125.0 164.0 L 123.0 161.0 L 123.0 161.0 L 125.0 164.0 L 132.0 172.0 L 137.0 180.0 L 141.0 185.0 L 143.0 186.0 L 143.0 186.0 L 142.0 185.0 L 139.0 181.0 L 135.0 177.0 L 132.0 172.0 L 130.0 169.0 L 130.0 167.0 L 133.0 170.0 L 137.0 176.0 L 141.0 180.0 L 143.0 182.0 L 144.0 183.0 L 144.0 183.0 " stroke="black" fill="none" stroke-width="5.0" stroke-linecap="round" stroke-linejoin="round" />
<path d="M 118.0 183.0 L 118.0 183.0 L 118.0 183.0 L 118.0 183.0 L 118.0 183.0 L 117.0 183.0 L 117.0 183.0 L 118.0 183.0 L 120.0 182.0 L 124.0 182.0 L 127.0 181.0 L 130.0 181.0 " stroke="black" fill="none" stroke-width="5.0" stroke-linecap="round" stroke-linejoin="round" />
<path d="M 181.0 108.0 L 181.0 108.0 L 181.0 107.0 L 181.0 106.0 L 181.0 106.0 L 181.0 106.0 L 180.0 107.0 L 174.0 114.0 L 164.0 123.0 L 153.0 135.0 L 143.0 146.0 L 136.0 155.0 L 129.0 161.0 L 125.0 166.0 L 122.0 169.0 L 121.0 170.0 L 121.0 170.0 L 122.0 168.0 " stroke="black" fill="none" stroke-width="5.0" stroke-linecap="round" stroke-linejoin="round" />
<path d="M 189.0 122.0 L 189.0 122.0 L 189.0 122.0 L 189.0 122.0 L 190.0 122.0 L 190.0 122.0 L 185.0 128.0 L 173.0 141.0 L 158.0 157.0 L 148.0 169.0 L 143.0 177.0 L 139.0 183.0 L 136.0 186.0 L 136.0 186.0 L 136.0 183.0 " stroke="black" fill="none" stroke-width="5.0" stroke-linecap="round" stroke-linejoin="round" />
<path d="M 185.0 109.0 L 185.0 109.0 L 185.0 109.0 L 185.0 109.0 L 184.0 109.0 L 184.0 109.0 L 184.0 109.0 L 184.0 110.0 L 185.0 112.0 L 187.0 114.0 L 189.0 116.0 L 190.0 118.0 L 191.0 119.0 L 191.0 120.0 L 191.0 120.0 " stroke="black" fill="none" stroke-width="5.0" stroke-linecap="round" stroke-linejoin="round" />
<path d="M 184.0 113.0 L 184.0 113.0 L 184.0 113.0 L 183.0 113.0 L 183.0 112.0 L 181.0 113.0 L 175.0 118.0 L 162.0 131.0 L 148.0 146.0 L 140.0 156.0 L 137.0 159.0 L 137.0 159.0 L 138.0 158.0 L 143.0 154.0 L 148.0 147.0 L 154.0 139.0 L 162.0 130.0 L 170.0 121.0 L 176.0 116.0 L 178.0 114.0 L 178.0 114.0 L 177.0 115.0 L 174.0 118.0 L 167.0 124.0 L 158.0 133.0 L 149.0 145.0 L 141.0 156.0 L 136.0 163.0 L 135.0 164.0 L 135.0 164.0 L 138.0 161.0 L 145.0 154.0 L 153.0 144.0 L 163.0 132.0 L 173.0 122.0 L 178.0 118.0 L 179.0 117.0 L 179.0 117.0 L 176.0 120.0 L 167.0 128.0 L 155.0 140.0 L 144.0 154.0 L 133.0 166.0 L 127.0 172.0 L 127.0 172.0 L 131.0 170.0 L 140.0 162.0 L 148.0 153.0 L 157.0 142.0 L 169.0 129.0 L 177.0 122.0 L 179.0 120.0 L 180.0 120.0 L 179.0 121.0 L 175.0 124.0 L 166.0 133.0 L 156.0 145.0 L 147.0 158.0 L 141.0 166.0 L 140.0 168.0 L 141.0 167.0 L 146.0 161.0 L 152.0 153.0 L 161.0 143.0 L 174.0 129.0 L 184.0 119.0 L 186.0 117.0 L 186.0 118.0 L 183.0 120.0 L 177.0 126.0 L 169.0 135.0 L 159.0 147.0 L 149.0 158.0 L 144.0 166.0 L 143.0 167.0 L 143.0 167.0 L 146.0 164.0 L 151.0 158.0 L 158.0 148.0 L 168.0 138.0 L 178.0 127.0 L 184.0 121.0 L 185.0 120.0 L 185.0 121.0 L 184.0 121.0 L 182.0 123.0 L 177.0 128.0 L 168.0 139.0 L 156.0 152.0 L 146.0 164.0 L 141.0 171.0 L 140.0 172.0 L 141.0 171.0 L 145.0 167.0 L 152.0 158.0 L 159.0 149.0 L 168.0 138.0 L 177.0 129.0 L 181.0 125.0 L 182.0 124.0 L 182.0 125.0 L 178.0 130.0 L 169.0 140.0 L 159.0 151.0 L 150.0 161.0 L 143.0 169.0 L 140.0 172.0 L 140.0 172.0 L 143.0 169.0 L 149.0 161.0 L 157.0 151.0 L 167.0 139.0 L 176.0 127.0 L 180.0 123.0 L 180.0 123.0 L 178.0 124.0 L 171.0 129.0 L 161.0 139.0 L 149.0 151.0 L 137.0 163.0 L 132.0 170.0 L 132.0 170.0 L 134.0 168.0 L 140.0 163.0 L 146.0 155.0 L 152.0 148.0 L 156.0 141.0 L 158.0 138.0 L 155.0 142.0 L 148.0 149.0 L 142.0 156.0 L 137.0 161.0 L 132.0 165.0 L 128.0 168.0 L 126.0 168.0 L 127.0 168.0 L 132.0 165.0 L 138.0 161.0 L 142.0 158.0 L 146.0 155.0 L 148.0 153.0 L 148.0 153.0 L 144.0 157.0 L 138.0 163.0 L 134.0 167.0 L 132.0 169.0 L 132.0 169.0 L 134.0 167.0 L 140.0 161.0 L 147.0 154.0 L 154.0 146.0 L 159.0 141.0 L 163.0 138.0 L 166.0 136.0 L 169.0 134.0 L 171.0 132.0 L 174.0 129.0 L 177.0 127.0 L 178.0 126.0 L 178.0 125.0 L 179.0 125.0 L 180.0 124.0 L 181.0 123.0 L 182.0 121.0 L 183.0 120.0 L 183.0 120.0 L 183.0 120.0 L 183.0 120.0 L 183.0 119.0 L 183.0 119.0 L 183.0 119.0 L 183.0 119.0 L 183.0 118.0 L 183.0 118.0 L 183.0 118.0 L 183.0 118.0 " stroke="black" fill="none" stroke-width="5.0" stroke-linecap="round" stroke-linejoin="round" />
</svg>