<svg xmlns="http://www.w3.org/2000/svg" width="300" height="300" viewBox="0 0 300 300">
<path d="M 105.0 104.0 L 105.0 104.0 L 105.0 104.0 L 105.0 105.0 L 105.0 107.0 L 105.0 109.0 L 105.0 115.0 L 106.0 123.0 L 106.0 133.0 L 106.0 140.0 L 106.0 143.0 L 106.0 143.0 L 107.0 142.0 L 109.0 139.0 L 113.0 135.0 L 118.0 131.0 L 123.0 127.0 L 129.0 122.0 L 135.0 116.0 L 141.0 111.0 L 145.0 108.0 L 147.0 107.0 L 147.0 106.0 L 147.0 106.0 L 147.0 106.0 L 147.0 106.0 L 147.0 106.0 L 147.0 106.0 L 147.0 106.0 L 145.0 106.0 L 141.0 106.0 L 135.0 105.0 L 128.0 104.0 L 122.0 104.0 L 116.0 104.0 L 112.0 103.0 L 107.0 102.0 L 104.0 101.0 L 104.0 101.0 L 104.0 101.0 L 105.0 101.0 L 105.0 101.0 " stroke="black" fill="none" stroke-width="5.0" stroke-linecap="round" stroke-linejoin="round" />
<path d="M 109.0 132.0 L 109.0 132.0 L 109.0 131.0 L 109.0 131.0 L 110.0 131.0 L 111.0 130.0 L 112.0 129.0 L 113.0 127.0 L 116.0 124.0 L 120.0 120.0 L 124.0 116.0 L 128.0 112.0 L 129.0 110.0 L 130.0 110.0 L 130.0 110.0 L 130.0 110.0 L 130.0 110.0 L 131.0 110.0 L 131.0 110.0 L 131.0 110.0 L 131.0 110.0 L 131.0 110.0 L 132.0 110.0 L 132.0 110.0 L 133.0 110.0 L 133.0 110.0 L 133.0 110.0 L 133.0 110.0 L 133.0 111.0 L 131.0 113.0 L 128.0 117.0 L 124.0 121.0 L 120.0 125.0 L 117.0 128.0 L 115.0 129.0 L 115.0 130.0 L 115.0 130.0 L 115.0 130.0 L 115.0 129.0 L 116.0 128.0 L 120.0 126.0 L 124.0 122.0 L 128.0 119.0 L 133.0 115.0 L 137.0 112.0 L 139.0 110.0 L 141.0 108.0 L 141.0 108.0 L 141.0 108.0 L 140.0 108.0 L 138.0 109.0 L 136.0 111.0 L 134.0 113.0 L 131.0 115.0 L 129.0 117.0 L 126.0 118.0 L 124.0 119.0 L 123.0 119.0 L 123.0 119.0 L 123.0 118.0 L 126.0 116.0 L 129.0 113.0 L 131.0 110.0 L 132.0 108.0 L 133.0 107.0 L 133.0 107.0 L 129.0 107.0 L 125.0 109.0 L 120.0 109.0 L 115.0 109.0 L 110.0 109.0 L 108.0 109.0 L 107.0 108.0 L 107.0 108.0 L 109.0 108.0 L 116.0 108.0 L 124.0 108.0 L 131.0 109.0 L 136.0 109.0 L 138.0 109.0 L 137.0 109.0 L 131.0 108.0 L 124.0 108.0 L 118.0 107.0 L 113.0 107.0 L 110.0 106.0 L 109.0 106.0 L 109.0 106.0 L 110.0 106.0 L 111.0 106.0 L 114.0 107.0 L 116.0 108.0 L 117.0 109.0 L 117.0 112.0 L 116.0 116.0 L 115.0 119.0 L 112.0 121.0 L 110.0 122.0 L 109.0 120.0 L 108.0 116.0 L 108.0 111.0 L 108.0 108.0 L 108.0 107.0 L 108.0 107.0 L 109.0 111.0 L 109.0 117.0 L 110.0 123.0 L 111.0 128.0 L 111.0 130.0 L 111.0 129.0 L 111.0 123.0 L 111.0 115.0 L 111.0 109.0 L 111.0 104.0 L 111.0 103.0 L 112.0 104.0 L 113.0 109.0 L 115.0 112.0 L 116.0 115.0 L 116.0 117.0 L 117.0 118.0 L 117.0 119.0 L 117.0 119.0 L 117.0 116.0 L 117.0 111.0 L 116.0 108.0 L 116.0 106.0 L 116.0 106.0 L 117.0 109.0 L 118.0 114.0 L 120.0 117.0 L 121.0 119.0 L 121.0 120.0 L 120.0 118.0 L 119.0 114.0 L 118.0 112.0 L 118.0 110.0 L 118.0 109.0 L 119.0 108.0 L 120.0 108.0 L 121.0 109.0 L 122.0 110.0 L 123.0 110.0 L 123.0 110.0 " stroke="black" fill="none" stroke-width="5.0" stroke-linecap="round" stroke-linejoin="round" />
<path d="M 115.0 125.0 L 115.0 125.0 L 115.0 124.0 L 115.0 123.0 L 115.0 123.0 L 118.0 126.0 L 126.0 136.0 L 142.0 151.0 L 158.0 168.0 L 168.0 178.0 L 173.0 184.0 L 174.0 185.0 L 175.0 185.0 L 172.0 184.0 " stroke="black" fill="none" stroke-width="5.0" stroke-linecap="round" stroke-linejoin="round" />
<path d="M 134.0 117.0 L 134.0 117.0 L 134.0 118.0 L 134.0 119.0 L 137.0 122.0 L 146.0 129.0 L 160.0 143.0 L 175.0 157.0 L 185.0 165.0 L 189.0 169.0 L 191.0 170.0 L 191.0 171.0 " stroke="black" fill="none" stroke-width="5.0" stroke-linecap="round" stroke-linejoin="round" />
<path d="M 179.0 188.0 L 179.0 188.0 L 178.0 187.0 L 178.0 187.0 L 178.0 186.0 L 178.0 186.0 L 180.0 184.0 L 183.0 182.0 L 186.0 180.0 L 189.0 177.0 L 190.0 176.0 " stroke="black" fill="none" stroke-width="5.0" stroke-linecap="round" stroke-linejoin="round" />
<path d="M 128.0 128.0 L 127.0 130.0 L 127.0 131.0 L 127.0 131.0 L 127.0 131.0 L 133.0 135.0 L 145.0 146.0 L 158.0 159.0 L 167.0 169.0 L 172.0 174.0 L 173.0 175.0 L 173.0 175.0 L 172.0 174.0 L 166.0 169.0 L 159.0 162.0 L 152.0 153.0 L 144.0 145.0 L 137.0 136.0 L 132.0 131.0 L 131.0 130.0 L 131.0 130.0 L 135.0 134.0 L 145.0 144.0 L 155.0 154.0 L 166.0 167.0 L 175.0 177.0 L 179.0 181.0 L 180.0 180.0 L 176.0 175.0 L 169.0 167.0 L 160.0 158.0 L 150.0 149.0 L 140.0 139.0 L 135.0 135.0 L 135.0 134.0 L 137.0 137.0 L 145.0 146.0 L 153.0 155.0 L 162.0 165.0 L 170.0 175.0 L 175.0 181.0 L 176.0 182.0 L 174.0 180.0 L 167.0 172.0 L 158.0 162.0 L 149.0 152.0 L 140.0 141.0 L 134.0 135.0 L 133.0 133.0 L 133.0 133.0 L 134.0 135.0 L 141.0 142.0 L 152.0 154.0 L 164.0 167.0 L 174.0 178.0 L 177.0 181.0 L 177.0 181.0 L 176.0 180.0 L 175.0 179.0 L 175.0 179.0 L 175.0 179.0 L 175.0 179.0 L 175.0 179.0 L 175.0 179.0 L 175.0 179.0 L 175.0 179.0 L 175.0 179.0 L 175.0 179.0 L 175.0 179.0 L 175.0 179.0 L 175.0 179.0 L 175.0 179.0 L 175.0 179.0 L 175.0 179.0 L 175.0 179.0 L 175.0 180.0 L 175.0 181.0 L 176.0 182.0 L 176.0 183.0 L 176.0 183.0 L 176.0 184.0 L 176.0 184.0 L 176.0 184.0 L 177.0 184.0 L 177.0 185.0 L 178.0 185.0 L 178.0 185.0 L 178.0 185.0 L 178.0 185.0 L 179.0 185.0 L 179.0 185.0 L 179.0 185.0 L 179.0 185.0 L 179.0 185.0 L 179.0 185.0 L 179.0 185.0 L 179.0 185.0 L 179.0 185.0 L 179.0 185.0 L 179.0 185.0 L 179.0 185.0 L 179.0 185.0 L 179.0 186.0 L 179.0 186.0 L 180.0 186.0 L 181.0 185.0 L 182.0 184.0 L 183.0 183.0 L 184.0 181.0 L 185.0 180.0 L 185.0 179.0 L 186.0 178.0 L 187.0 177.0 L 187.0 177.0 L 188.0 176.0 L 189.0 176.0 L 189.0 176.0 L 189.0 176.0 L 190.0 176.0 L 190.0 176.0 L 190.0 176.0 L 190.0 176.0 L 190.0 176.0 L 189.0 175.0 L 187.0 173.0 L 182.0 170.0 L 175.0 164.0 L 168.0 159.0 L 162.0 154.0 L 157.0 149.0 L 152.0 143.0 L 148.0 137.0 L 144.0 132.0 L 139.0 128.0 L 136.0 125.0 L 136.0 125.0 L 136.0 125.0 L 141.0 131.0 L 150.0 140.0 L 158.0 150.0 L 167.0 160.0 L 174.0 166.0 L 175.0 167.0 L 174.0 166.0 L 169.0 160.0 L 161.0 152.0 L 153.0 143.0 L 142.0 133.0 L 131.0 123.0 L 125.0 118.0 L 125.0 118.0 L 128.0 120.0 L 136.0 128.0 L 146.0 139.0 L 157.0 150.0 L 170.0 164.0 L 179.0 174.0 L 181.0 176.0 L 181.0 175.0 L 178.0 173.0 L 169.0 166.0 L 158.0 157.0 L 146.0 145.0 L 133.0 132.0 L 123.0 123.0 L 122.0 122.0 L 122.0 123.0 L 127.0 128.0 L 140.0 140.0 L 154.0 154.0 L 167.0 167.0 L 176.0 177.0 L 180.0 181.0 L 180.0 181.0 L 179.0 180.0 L 172.0 173.0 L 161.0 164.0 L 151.0 154.0 L 141.0 144.0 L 134.0 138.0 L 134.0 138.0 L 134.0 138.0 L 135.0 139.0 L 140.0 144.0 L 152.0 154.0 L 164.0 166.0 L 175.0 178.0 L 180.0 183.0 L 180.0 182.0 L 178.0 178.0 L 172.0 171.0 L 164.0 163.0 L 155.0 155.0 L 149.0 148.0 L 147.0 145.0 L 148.0 145.0 L 154.0 149.0 L 166.0 158.0 L 176.0 167.0 L 183.0 172.0 L 184.0 173.0 L 183.0 173.0 L 179.0 168.0 L 172.0 162.0 L 165.0 156.0 L 158.0 150.0 L 154.0 146.0 L 154.0 146.0 L 159.0 150.0 L 170.0 159.0 L 179.0 167.0 L 186.0 173.0 L 188.0 175.0 L 188.0 175.0 L 185.0 172.0 L 180.0 167.0 L 174.0 163.0 L 169.0 159.0 L 166.0 157.0 L 166.0 156.0 L 168.0 158.0 L 173.0 161.0 L 176.0 164.0 L 178.0 166.0 L 179.0 167.0 L 180.0 167.0 L 177.0 165.0 L 172.0 161.0 L 166.0 156.0 L 159.0 150.0 L 155.0 146.0 L 154.0 145.0 L 158.0 148.0 L 168.0 157.0 L 176.0 164.0 L 183.0 170.0 L 188.0 174.0 L 189.0 175.0 L 188.0 175.0 L 184.0 171.0 L 176.0 165.0 L 167.0 157.0 L 157.0 148.0 L 150.0 140.0 L 147.0 136.0 L 147.0 136.0 L 148.0 138.0 L 155.0 145.0 L 165.0 156.0 L 175.0 165.0 L 182.0 172.0 L 183.0 173.0 L 181.0 172.0 L 173.0 165.0 L 163.0 155.0 L 152.0 145.0 L 138.0 132.0 L 124.0 120.0 L 118.0 114.0 L 115.0 111.0 L 115.0 110.0 L 115.0 110.0 L 115.0 110.0 L 119.0 113.0 L 128.0 121.0 L 137.0 128.0 L 142.0 133.0 L 142.0 133.0 L 139.0 130.0 L 133.0 122.0 L 128.0 117.0 L 124.0 112.0 L 121.0 110.0 L 121.0 110.0 L 121.0 110.0 L 122.0 111.0 L 126.0 115.0 L 128.0 117.0 L 129.0 119.0 L 130.0 119.0 L 130.0 118.0 L 128.0 116.0 L 127.0 115.0 L 127.0 114.0 L 127.0 114.0 L 127.0 115.0 L 128.0 116.0 " stroke="black" fill="none" stroke-width="5.0" stroke-linecap="round" stroke-linejoin="round" />
<path d="M 175.0 172.0 L 175.0 172.0 L 175.0 172.0 L 175.0 171.0 L 175.0 171.0 L 175.0 171.0 L 176.0 171.0 " stroke="black" fill="none" stroke-width="5.0" stroke-linecap="round" stroke-linejoin="round" />
</svg>