<svg xmlns="http://www.w3.org/2000/svg" width="300" height="300" viewBox="0 0 300 300">
<path d="M 119.0 131.0 L 119.0 131.0 L 120.0 133.0 L 120.0 135.0 L 120.0 141.0 L 122.0 151.0 L 123.0 161.0 L 124.0 168.0 L 124.0 169.0 " stroke="black" fill="none" stroke-width="5.0" stroke-linecap="round" stroke-linejoin="round" />
<path d="M 119.0 130.0 L 119.0 130.0 L 118.0 130.0 L 116.0 131.0 L 115.0 133.0 L 113.0 134.0 L 111.0 136.0 L 107.0 139.0 L 103.0 142.0 L 99.0 146.0 L 95.0 149.0 L 92.0 151.0 L 91.0 151.0 L 91.0 151.0 L 91.0 151.0 L 91.0 151.0 L 92.0 152.0 L 93.0 153.0 L 96.0 155.0 L 99.0 158.0 L 104.0 161.0 L 109.0 166.0 L 114.0 170.0 L 118.0 173.0 L 120.0 174.0 L 121.0 174.0 L 120.0 174.0 " stroke="black" fill="none" stroke-width="5.0" stroke-linecap="round" stroke-linejoin="round" />
<path d="M 98.0 150.0 L 98.0 150.0 L 98.0 150.0 L 97.0 150.0 L 97.0 150.0 L 98.0 152.0 L 101.0 156.0 L 104.0 159.0 L 107.0 162.0 L 108.0 163.0 L 108.0 163.0 L 107.0 162.0 L 104.0 159.0 L 102.0 155.0 L 100.0 153.0 L 99.0 151.0 L 98.0 149.0 L 98.0 149.0 L 102.0 153.0 L 106.0 159.0 L 111.0 165.0 L 114.0 170.0 L 116.0 172.0 L 116.0 172.0 L 116.0 171.0 L 114.0 167.0 L 111.0 162.0 L 109.0 157.0 L 107.0 153.0 L 106.0 151.0 L 106.0 151.0 L 107.0 151.0 L 109.0 156.0 L 113.0 160.0 L 115.0 164.0 L 117.0 167.0 L 118.0 168.0 L 118.0 169.0 L 118.0 167.0 L 116.0 162.0 L 114.0 157.0 L 112.0 151.0 L 111.0 147.0 L 111.0 145.0 L 111.0 145.0 L 111.0 150.0 L 114.0 159.0 L 116.0 167.0 L 118.0 172.0 L 119.0 173.0 L 119.0 172.0 L 119.0 166.0 L 117.0 159.0 L 116.0 153.0 L 115.0 147.0 L 114.0 144.0 L 114.0 143.0 L 114.0 143.0 L 114.0 147.0 L 116.0 154.0 L 117.0 161.0 L 118.0 167.0 L 119.0 170.0 L 119.0 170.0 L 119.0 168.0 L 118.0 162.0 L 117.0 156.0 L 116.0 152.0 L 116.0 150.0 " stroke="black" fill="none" stroke-width="5.0" stroke-linecap="round" stroke-linejoin="round" />
<path d="M 101.0 148.0 L 101.0 148.0 L 100.0 148.0 L 99.0 149.0 L 99.0 149.0 L 99.0 149.0 L 101.0 149.0 L 105.0 146.0 L 109.0 143.0 L 113.0 141.0 L 115.0 139.0 L 116.0 137.0 L 116.0 137.0 L 116.0 137.0 L 113.0 140.0 L 110.0 143.0 L 106.0 147.0 L 103.0 150.0 L 101.0 152.0 L 101.0 153.0 L 102.0 151.0 L 107.0 146.0 L 112.0 141.0 L 115.0 137.0 L 117.0 135.0 L 117.0 134.0 L 117.0 134.0 L 117.0 135.0 L 116.0 137.0 L 115.0 141.0 L 113.0 145.0 L 112.0 150.0 L 111.0 154.0 L 111.0 155.0 L 112.0 154.0 L 114.0 148.0 L 115.0 142.0 L 116.0 138.0 L 116.0 136.0 L 116.0 136.0 L 116.0 138.0 L 117.0 144.0 L 118.0 151.0 L 118.0 159.0 L 119.0 164.0 L 119.0 165.0 L 119.0 164.0 L 119.0 159.0 L 119.0 155.0 L 119.0 155.0 " stroke="black" fill="none" stroke-width="5.0" stroke-linecap="round" stroke-linejoin="round" />
<path d="M 115.0 158.0 L 115.0 158.0 L 115.0 158.0 L 115.0 158.0 L 115.0 158.0 L 115.0 158.0 L 115.0 160.0 L 116.0 162.0 L 117.0 165.0 L 118.0 167.0 L 119.0 169.0 L 120.0 170.0 L 120.0 170.0 L 120.0 170.0 L 120.0 170.0 L 120.0 170.0 L 120.0 170.0 L 120.0 170.0 L 120.0 170.0 L 120.0 168.0 L 120.0 167.0 L 120.0 165.0 L 120.0 164.0 L 120.0 163.0 L 120.0 163.0 L 120.0 163.0 L 121.0 165.0 L 121.0 166.0 L 122.0 168.0 L 122.0 168.0 L 122.0 169.0 L 122.0 169.0 " stroke="black" fill="none" stroke-width="5.0" stroke-linecap="round" stroke-linejoin="round" />
<path d="M 163.0 133.0 L 163.0 133.0 L 163.0 133.0 L 163.0 133.0 L 163.0 134.0 L 163.0 138.0 L 163.0 146.0 L 164.0 158.0 L 164.0 168.0 L 165.0 175.0 L 165.0 178.0 L 166.0 179.0 L 166.0 179.0 L 166.0 178.0 " stroke="black" fill="none" stroke-width="5.0" stroke-linecap="round" stroke-linejoin="round" />
<path d="M 165.0 131.0 L 165.0 131.0 L 165.0 131.0 L 165.0 131.0 L 166.0 131.0 L 170.0 133.0 L 178.0 137.0 L 186.0 143.0 L 193.0 147.0 L 197.0 149.0 L 199.0 150.0 L 199.0 150.0 L 200.0 151.0 L 200.0 153.0 L 199.0 154.0 L 198.0 155.0 L 197.0 156.0 L 194.0 157.0 L 192.0 159.0 L 189.0 161.0 L 185.0 164.0 L 179.0 168.0 L 172.0 172.0 L 166.0 176.0 L 164.0 178.0 L 163.0 178.0 " stroke="black" fill="none" stroke-width="5.0" stroke-linecap="round" stroke-linejoin="round" />
<path d="M 168.0 137.0 L 168.0 137.0 L 168.0 137.0 L 168.0 137.0 L 168.0 137.0 L 168.0 139.0 L 168.0 146.0 L 168.0 157.0 L 168.0 167.0 L 168.0 172.0 L 168.0 172.0 L 168.0 171.0 L 168.0 165.0 L 168.0 158.0 L 168.0 151.0 L 168.0 144.0 L 169.0 138.0 L 169.0 133.0 L 169.0 132.0 L 169.0 131.0 L 169.0 135.0 L 169.0 145.0 L 169.0 156.0 L 169.0 166.0 L 169.0 174.0 L 169.0 176.0 L 169.0 175.0 L 170.0 170.0 L 170.0 161.0 L 171.0 151.0 L 171.0 143.0 L 172.0 139.0 L 172.0 138.0 L 172.0 138.0 L 172.0 140.0 L 172.0 146.0 L 173.0 154.0 L 174.0 161.0 L 175.0 165.0 L 175.0 167.0 L 175.0 165.0 L 175.0 160.0 L 175.0 154.0 L 175.0 148.0 L 175.0 143.0 L 175.0 141.0 L 175.0 141.0 L 175.0 143.0 L 175.0 146.0 L 175.0 149.0 L 175.0 150.0 L 175.0 151.0 L 174.0 151.0 L 173.0 149.0 L 171.0 146.0 L 171.0 143.0 L 170.0 139.0 L 170.0 137.0 L 170.0 137.0 L 172.0 137.0 L 176.0 140.0 L 181.0 144.0 L 187.0 148.0 L 191.0 152.0 L 193.0 154.0 L 194.0 154.0 L 194.0 154.0 L 192.0 153.0 L 189.0 151.0 L 185.0 149.0 L 182.0 147.0 L 180.0 146.0 L 177.0 145.0 L 176.0 145.0 L 175.0 145.0 L 176.0 146.0 L 178.0 148.0 L 182.0 149.0 L 186.0 150.0 L 189.0 150.0 L 190.0 150.0 L 191.0 150.0 L 191.0 150.0 L 187.0 152.0 L 182.0 154.0 L 177.0 158.0 L 173.0 161.0 L 172.0 163.0 L 171.0 163.0 L 173.0 160.0 L 176.0 156.0 L 178.0 153.0 L 180.0 150.0 L 181.0 149.0 L 181.0 149.0 L 181.0 149.0 L 180.0 152.0 L 177.0 156.0 L 176.0 159.0 L 175.0 161.0 L 176.0 161.0 L 182.0 158.0 L 187.0 155.0 L 192.0 152.0 L 194.0 151.0 L 194.0 150.0 L 194.0 150.0 L 192.0 151.0 L 189.0 154.0 L 186.0 157.0 L 183.0 160.0 L 181.0 162.0 L 180.0 163.0 L 180.0 163.0 L 183.0 162.0 L 187.0 159.0 L 191.0 157.0 L 194.0 154.0 L 195.0 153.0 L 196.0 153.0 L 194.0 153.0 L 190.0 154.0 L 186.0 157.0 L 181.0 160.0 L 177.0 162.0 L 175.0 163.0 L 174.0 164.0 L 174.0 164.0 L 175.0 164.0 L 178.0 163.0 L 181.0 162.0 L 184.0 160.0 L 186.0 158.0 L 187.0 158.0 " stroke="black" fill="none" stroke-width="5.0" stroke-linecap="round" stroke-linejoin="round" />
<path d="M 119.0 145.0 L 119.0 145.0 L 120.0 145.0 L 122.0 145.0 L 128.0 145.0 L 138.0 145.0 L 151.0 145.0 L 161.0 146.0 L 168.0 147.0 L 171.0 149.0 L 171.0 149.0 L 170.0 149.0 L 169.0 149.0 " stroke="black" fill="none" stroke-width="5.0" stroke-linecap="round" stroke-linejoin="round" />
<path d="M 118.0 154.0 L 118.0 154.0 L 119.0 154.0 L 123.0 155.0 L 131.0 155.0 L 142.0 155.0 L 154.0 155.0 L 164.0 155.0 L 169.0 155.0 L 171.0 154.0 L 171.0 154.0 " stroke="black" fill="none" stroke-width="5.0" stroke-linecap="round" stroke-linejoin="round" />
<path d="M 124.0 150.0 L 124.0 150.0 L 124.0 150.0 L 124.0 150.0 L 128.0 149.0 L 135.0 148.0 L 144.0 148.0 L 152.0 149.0 L 158.0 151.0 L 161.0 151.0 L 163.0 151.0 L 163.0 151.0 L 161.0 151.0 L 158.0 151.0 L 154.0 151.0 L 149.0 151.0 L 143.0 151.0 L 134.0 152.0 L 126.0 152.0 L 120.0 152.0 L 119.0 152.0 L 119.0 152.0 L 124.0 152.0 L 131.0 151.0 L 139.0 150.0 L 147.0 150.0 L 155.0 149.0 L 161.0 148.0 L 164.0 148.0 L 165.0 148.0 L 165.0 148.0 L 164.0 148.0 L 161.0 149.0 L 158.0 150.0 L 153.0 151.0 L 146.0 152.0 L 140.0 153.0 L 134.0 153.0 L 132.0 153.0 L 132.0 153.0 L 136.0 153.0 L 144.0 152.0 L 151.0 151.0 L 159.0 150.0 L 165.0 149.0 L 167.0 149.0 L 168.0 149.0 L 168.0 149.0 " stroke="black" fill="none" stroke-width="5.0" stroke-linecap="round" stroke-linejoin="round" />
</svg>