<svg xmlns="http://www.w3.org/2000/svg" width="300" height="300" viewBox="0 0 300 300">
<path d="M 80.0 180.0 L 80.0 180.0 L 80.0 180.0 L 80.0 181.0 L 80.0 181.0 L 81.0 181.0 L 84.0 182.0 L 90.0 183.0 L 97.0 184.0 L 104.0 184.0 L 111.0 185.0 L 118.0 185.0 L 125.0 185.0 L 130.0 185.0 L 136.0 185.0 L 141.0 185.0 L 146.0 185.0 L 151.0 185.0 L 154.0 185.0 L 158.0 185.0 L 161.0 185.0 L 164.0 185.0 L 167.0 185.0 L 171.0 185.0 L 175.0 185.0 L 179.0 185.0 L 183.0 184.0 L 187.0 184.0 L 190.0 183.0 L 193.0 183.0 L 195.0 183.0 L 197.0 183.0 L 199.0 183.0 L 201.0 183.0 L 203.0 183.0 L 205.0 183.0 L 207.0 182.0 L 209.0 182.0 L 211.0 182.0 L 212.0 182.0 L 214.0 182.0 L 216.0 182.0 L 217.0 182.0 L 217.0 182.0 L 218.0 182.0 L 219.0 182.0 L 219.0 182.0 L 219.0 182.0 L 219.0 182.0 L 219.0 182.0 " stroke="black" fill="none" stroke-width="5.0" stroke-linecap="round" stroke-linejoin="round" />
</svg>