<svg xmlns="http://www.w3.org/2000/svg" width="300" height="300" viewBox="0 0 300 300">
<path d="M 147.0 106.0 L 147.0 106.0 L 147.0 106.0 L 147.0 107.0 L 147.0 109.0 L 147.0 116.0 L 147.0 126.0 L 148.0 135.0 L 148.0 139.0 " stroke="black" fill="none" stroke-width="5.0" stroke-linecap="round" stroke-linejoin="round" />
<path d="M 147.0 122.0 L 148.0 123.0 L 148.0 123.0 L 150.0 124.0 L 155.0 124.0 L 161.0 124.0 L 167.0 124.0 L 168.0 124.0 " stroke="black" fill="none" stroke-width="5.0" stroke-linecap="round" stroke-linejoin="round" />
<path d="M 125.0 145.0 L 125.0 146.0 L 125.0 148.0 L 124.0 154.0 L 123.0 165.0 L 123.0 178.0 L 123.0 186.0 L 124.0 188.0 L 124.0 189.0 " stroke="black" fill="none" stroke-width="5.0" stroke-linecap="round" stroke-linejoin="round" />
<path d="M 126.0 147.0 L 126.0 147.0 L 127.0 147.0 L 128.0 147.0 L 132.0 146.0 L 139.0 146.0 L 161.0 147.0 L 170.0 147.0 L 177.0 148.0 L 180.0 151.0 L 182.0 156.0 L 183.0 166.0 L 185.0 180.0 L 186.0 191.0 L 187.0 198.0 L 187.0 200.0 " stroke="black" fill="none" stroke-width="5.0" stroke-linecap="round" stroke-linejoin="round" />
<path d="M 140.0 162.0 L 140.0 162.0 L 140.0 162.0 L 141.0 162.0 L 145.0 164.0 L 151.0 171.0 L 157.0 179.0 L 162.0 185.0 L 164.0 186.0 " stroke="black" fill="none" stroke-width="5.0" stroke-linecap="round" stroke-linejoin="round" />
<path d="M 163.0 160.0 L 162.0 160.0 L 161.0 161.0 L 159.0 163.0 L 155.0 170.0 L 149.0 181.0 L 145.0 187.0 " stroke="black" fill="none" stroke-width="5.0" stroke-linecap="round" stroke-linejoin="round" />
<path d="M 151.0 156.0 L 151.0 156.0 L 150.0 156.0 L 150.0 156.0 L 151.0 160.0 " stroke="black" fill="none" stroke-width="5.0" stroke-linecap="round" stroke-linejoin="round" />
<path d="M 135.0 170.0 L 135.0 170.0 L 135.0 170.0 L 135.0 170.0 L 135.0 173.0 L 137.0 174.0 " stroke="black" fill="none" stroke-width="5.0" stroke-linecap="round" stroke-linejoin="round" />
<path d="M 167.0 171.0 L 167.0 171.0 L 167.0 173.0 L 167.0 175.0 L 168.0 178.0 L 168.0 179.0 " stroke="black" fill="none" stroke-width="5.0" stroke-linecap="round" stroke-linejoin="round" />
<path d="M 152.0 186.0 L 152.0 186.0 L 153.0 186.0 L 155.0 187.0 L 156.0 189.0 " stroke="black" fill="none" stroke-width="5.0" stroke-linecap="round" stroke-linejoin="round" />
<path d="M 126.0 195.0 L 126.0 195.0 L 127.0 196.0 L 130.0 197.0 L 141.0 197.0 L 156.0 198.0 L 172.0 200.0 L 184.0 201.0 L 189.0 202.0 L 189.0 202.0 L 188.0 201.0 L 188.0 200.0 " stroke="black" fill="none" stroke-width="5.0" stroke-linecap="round" stroke-linejoin="round" />
</svg>