<svg xmlns="http://www.w3.org/2000/svg" width="300" height="300" viewBox="0 0 300 300">
<path d="M 130.0 111.0 L 130.0 111.0 L 130.0 111.0 L 130.0 112.0 L 130.0 115.0 L 129.0 124.0 L 127.0 143.0 L 125.0 161.0 L 124.0 172.0 L 125.0 174.0 L 126.0 173.0 " stroke="black" fill="none" stroke-width="5.0" stroke-linecap="round" stroke-linejoin="round" />
<path d="M 137.0 107.0 L 137.0 107.0 L 137.0 107.0 L 137.0 107.0 L 140.0 107.0 L 147.0 106.0 L 155.0 106.0 L 161.0 106.0 L 165.0 107.0 L 168.0 110.0 L 170.0 117.0 L 172.0 131.0 L 173.0 147.0 L 174.0 162.0 L 174.0 170.0 L 174.0 175.0 L 174.0 175.0 L 174.0 175.0 " stroke="black" fill="none" stroke-width="5.0" stroke-linecap="round" stroke-linejoin="round" />
<path d="M 131.0 139.0 L 131.0 139.0 L 131.0 139.0 L 132.0 138.0 L 139.0 137.0 L 151.0 136.0 L 162.0 136.0 L 170.0 136.0 L 172.0 136.0 L 172.0 136.0 L 171.0 136.0 " stroke="black" fill="none" stroke-width="5.0" stroke-linecap="round" stroke-linejoin="round" />
<path d="M 133.0 154.0 L 133.0 154.0 L 133.0 154.0 L 135.0 155.0 L 143.0 155.0 L 153.0 155.0 L 162.0 154.0 L 167.0 154.0 L 168.0 154.0 " stroke="black" fill="none" stroke-width="5.0" stroke-linecap="round" stroke-linejoin="round" />
<path d="M 124.0 175.0 L 124.0 175.0 L 124.0 176.0 L 124.0 177.0 L 127.0 177.0 L 136.0 177.0 L 148.0 177.0 L 159.0 177.0 L 166.0 177.0 L 168.0 177.0 " stroke="black" fill="none" stroke-width="5.0" stroke-linecap="round" stroke-linejoin="round" />
<path d="M 134.0 181.0 L 134.0 182.0 L 134.0 183.0 L 133.0 183.0 L 133.0 185.0 L 130.0 189.0 L 126.0 196.0 L 123.0 198.0 " stroke="black" fill="none" stroke-width="5.0" stroke-linecap="round" stroke-linejoin="round" />
<path d="M 150.0 181.0 L 150.0 182.0 L 150.0 184.0 L 150.0 186.0 L 150.0 189.0 L 150.0 193.0 L 152.0 196.0 L 154.0 200.0 L 159.0 203.0 L 167.0 204.0 L 176.0 204.0 L 186.0 202.0 L 193.0 199.0 L 197.0 195.0 L 199.0 192.0 L 200.0 188.0 L 200.0 183.0 L 200.0 182.0 " stroke="black" fill="none" stroke-width="5.0" stroke-linecap="round" stroke-linejoin="round" />
</svg>