<svg xmlns="http://www.w3.org/2000/svg" width="300" height="300" viewBox="0 0 300 300">
<path d="M 126.0 107.0 L 126.0 107.0 L 126.0 107.0 L 126.0 107.0 L 128.0 107.0 L 137.0 107.0 L 150.0 106.0 L 161.0 105.0 L 165.0 105.0 L 166.0 104.0 L 166.0 104.0 " stroke="black" fill="none" stroke-width="5.0" stroke-linecap="round" stroke-linejoin="round" />
<path d="M 118.0 130.0 L 118.0 130.0 L 117.0 131.0 L 117.0 131.0 L 116.0 134.0 L 116.0 145.0 L 116.0 161.0 L 115.0 175.0 L 115.0 182.0 L 116.0 183.0 L 116.0 182.0 " stroke="black" fill="none" stroke-width="5.0" stroke-linecap="round" stroke-linejoin="round" />
<path d="M 117.0 128.0 L 117.0 128.0 L 117.0 127.0 L 118.0 127.0 L 121.0 126.0 L 129.0 126.0 L 141.0 125.0 L 152.0 125.0 L 161.0 125.0 L 169.0 125.0 L 174.0 124.0 L 176.0 124.0 L 178.0 127.0 L 180.0 134.0 L 182.0 143.0 L 184.0 156.0 L 185.0 168.0 L 186.0 177.0 L 187.0 183.0 L 187.0 188.0 L 186.0 190.0 L 184.0 192.0 L 179.0 191.0 L 172.0 187.0 " stroke="black" fill="none" stroke-width="5.0" stroke-linecap="round" stroke-linejoin="round" />
<path d="M 146.0 109.0 L 146.0 109.0 L 146.0 109.0 L 146.0 109.0 L 146.0 109.0 L 146.0 110.0 L 146.0 114.0 L 146.0 124.0 L 146.0 142.0 L 147.0 160.0 L 147.0 172.0 L 148.0 178.0 L 148.0 180.0 L 148.0 180.0 L 148.0 178.0 " stroke="black" fill="none" stroke-width="5.0" stroke-linecap="round" stroke-linejoin="round" />
<path d="M 130.0 143.0 L 130.0 143.0 L 131.0 144.0 L 132.0 145.0 L 134.0 148.0 L 136.0 150.0 " stroke="black" fill="none" stroke-width="5.0" stroke-linecap="round" stroke-linejoin="round" />
<path d="M 122.0 171.0 L 122.0 171.0 L 122.0 171.0 L 124.0 171.0 L 128.0 169.0 L 133.0 166.0 " stroke="black" fill="none" stroke-width="5.0" stroke-linecap="round" stroke-linejoin="round" />
<path d="M 154.0 151.0 L 154.0 151.0 L 154.0 151.0 L 155.0 150.0 L 157.0 148.0 L 160.0 145.0 L 161.0 144.0 " stroke="black" fill="none" stroke-width="5.0" stroke-linecap="round" stroke-linejoin="round" />
<path d="M 156.0 161.0 L 156.0 161.0 L 156.0 163.0 L 159.0 166.0 L 163.0 171.0 L 169.0 174.0 L 172.0 176.0 " stroke="black" fill="none" stroke-width="5.0" stroke-linecap="round" stroke-linejoin="round" />
</svg>