<svg xmlns="http://www.w3.org/2000/svg" width="300" height="300" viewBox="0 0 300 300">
<path d="M 122.0 128.0 L 121.0 129.0 L 121.0 129.0 L 120.0 134.0 L 120.0 144.0 L 121.0 157.0 L 123.0 166.0 L 124.0 168.0 L 124.0 168.0 " stroke="black" fill="none" stroke-width="5.0" stroke-linecap="round" stroke-linejoin="round" />
<path d="M 123.0 123.0 L 123.0 123.0 L 124.0 123.0 L 126.0 123.0 L 134.0 123.0 L 147.0 123.0 L 160.0 123.0 L 170.0 125.0 L 176.0 126.0 L 180.0 128.0 L 182.0 132.0 L 183.0 140.0 L 184.0 152.0 L 186.0 163.0 L 186.0 169.0 L 186.0 172.0 L 186.0 172.0 " stroke="black" fill="none" stroke-width="5.0" stroke-linecap="round" stroke-linejoin="round" />
<path d="M 141.0 127.0 L 141.0 127.0 L 141.0 127.0 L 141.0 127.0 L 142.0 136.0 L 144.0 151.0 L 145.0 163.0 L 146.0 165.0 " stroke="black" fill="none" stroke-width="5.0" stroke-linecap="round" stroke-linejoin="round" />
<path d="M 161.0 127.0 L 161.0 127.0 L 161.0 129.0 L 162.0 133.0 L 163.0 142.0 L 164.0 154.0 L 164.0 164.0 " stroke="black" fill="none" stroke-width="5.0" stroke-linecap="round" stroke-linejoin="round" />
<path d="M 98.0 177.0 L 98.0 177.0 L 98.0 177.0 L 99.0 177.0 L 104.0 177.0 L 119.0 177.0 L 143.0 177.0 L 167.0 177.0 L 187.0 176.0 L 200.0 174.0 L 207.0 173.0 L 210.0 172.0 L 211.0 172.0 L 211.0 172.0 L 210.0 172.0 L 210.0 172.0 L 210.0 172.0 " stroke="black" fill="none" stroke-width="5.0" stroke-linecap="round" stroke-linejoin="round" />
</svg>