<svg xmlns="http://www.w3.org/2000/svg" width="300" height="300" viewBox="0 0 300 300">
<path d="M 113.0 127.0 L 113.0 127.0 L 113.0 127.0 L 114.0 128.0 L 115.0 129.0 L 118.0 129.0 L 124.0 130.0 L 130.0 131.0 L 134.0 132.0 L 135.0 134.0 L 133.0 137.0 L 128.0 142.0 L 124.0 146.0 L 121.0 149.0 L 119.0 152.0 L 118.0 153.0 L 118.0 155.0 L 121.0 155.0 L 125.0 156.0 L 129.0 157.0 L 133.0 158.0 L 135.0 160.0 L 135.0 163.0 L 134.0 169.0 L 130.0 175.0 L 125.0 182.0 L 120.0 188.0 L 116.0 192.0 L 112.0 194.0 " stroke="black" fill="none" stroke-width="5.0" stroke-linecap="round" stroke-linejoin="round" />
<path d="M 102.0 173.0 L 103.0 173.0 L 104.0 174.0 L 106.0 176.0 L 112.0 179.0 L 124.0 184.0 L 140.0 189.0 L 156.0 193.0 L 170.0 195.0 L 182.0 195.0 L 190.0 196.0 L 195.0 197.0 L 196.0 197.0 L 196.0 196.0 " stroke="black" fill="none" stroke-width="5.0" stroke-linecap="round" stroke-linejoin="round" />
</svg>