<svg xmlns="http://www.w3.org/2000/svg" width="300" height="300" viewBox="0 0 300 300">
<path d="M 132.0 115.0 L 132.0 115.0 L 133.0 115.0 L 134.0 115.0 L 137.0 115.0 L 144.0 115.0 L 152.0 115.0 L 159.0 115.0 L 164.0 115.0 L 166.0 115.0 L 166.0 116.0 L 166.0 118.0 L 165.0 121.0 L 163.0 125.0 L 160.0 129.0 L 156.0 135.0 L 152.0 142.0 L 146.0 150.0 L 141.0 158.0 L 137.0 165.0 L 134.0 171.0 L 132.0 175.0 L 132.0 179.0 L 132.0 181.0 L 137.0 183.0 L 143.0 186.0 L 151.0 188.0 L 159.0 189.0 L 168.0 189.0 L 176.0 189.0 L 180.0 187.0 L 183.0 185.0 L 183.0 183.0 L 183.0 177.0 L 183.0 168.0 " stroke="black" fill="none" stroke-width="5.0" stroke-linecap="round" stroke-linejoin="round" />
</svg>