<svg xmlns="http://www.w3.org/2000/svg" width="300" height="300" viewBox="0 0 300 300">
<path d="M 136.0 108.0 L 136.0 108.0 L 137.0 108.0 L 138.0 108.0 L 141.0 108.0 L 145.0 108.0 L 151.0 108.0 L 156.0 107.0 L 159.0 107.0 L 161.0 109.0 L 163.0 114.0 L 163.0 119.0 L 163.0 122.0 L 163.0 123.0 " stroke="black" fill="none" stroke-width="5.0" stroke-linecap="round" stroke-linejoin="round" />
<path d="M 114.0 124.0 L 114.0 124.0 L 114.0 125.0 L 116.0 125.0 L 124.0 125.0 L 139.0 125.0 L 154.0 125.0 L 165.0 126.0 L 174.0 126.0 L 179.0 126.0 L 179.0 125.0 " stroke="black" fill="none" stroke-width="5.0" stroke-linecap="round" stroke-linejoin="round" />
<path d="M 143.0 96.0 L 143.0 96.0 L 143.0 96.0 L 143.0 99.0 L 143.0 108.0 L 143.0 118.0 L 142.0 120.0 " stroke="black" fill="none" stroke-width="5.0" stroke-linecap="round" stroke-linejoin="round" />
<path d="M 128.0 137.0 L 128.0 137.0 L 128.0 139.0 L 128.0 141.0 L 128.0 146.0 L 129.0 150.0 L 130.0 153.0 L 131.0 153.0 " stroke="black" fill="none" stroke-width="5.0" stroke-linecap="round" stroke-linejoin="round" />
<path d="M 132.0 137.0 L 132.0 137.0 L 132.0 137.0 L 135.0 137.0 L 141.0 136.0 L 148.0 136.0 L 154.0 137.0 L 158.0 139.0 L 159.0 142.0 L 160.0 145.0 L 160.0 149.0 L 159.0 151.0 L 159.0 152.0 " stroke="black" fill="none" stroke-width="5.0" stroke-linecap="round" stroke-linejoin="round" />
<path d="M 129.0 154.0 L 129.0 155.0 L 129.0 156.0 L 131.0 157.0 L 139.0 157.0 L 151.0 155.0 L 160.0 154.0 L 162.0 153.0 " stroke="black" fill="none" stroke-width="5.0" stroke-linecap="round" stroke-linejoin="round" />
<path d="M 126.0 168.0 L 127.0 169.0 L 128.0 169.0 L 130.0 170.0 L 136.0 170.0 L 145.0 170.0 L 154.0 169.0 L 159.0 169.0 L 161.0 168.0 L 161.0 168.0 " stroke="black" fill="none" stroke-width="5.0" stroke-linecap="round" stroke-linejoin="round" />
<path d="M 133.0 172.0 L 133.0 172.0 L 133.0 172.0 L 134.0 172.0 L 134.0 172.0 L 131.0 174.0 L 127.0 178.0 L 122.0 182.0 L 120.0 185.0 L 121.0 187.0 L 129.0 188.0 L 142.0 189.0 L 154.0 189.0 L 164.0 189.0 L 169.0 189.0 L 170.0 188.0 L 169.0 188.0 " stroke="black" fill="none" stroke-width="5.0" stroke-linecap="round" stroke-linejoin="round" />
<path d="M 147.0 154.0 L 147.0 154.0 L 146.0 155.0 L 146.0 159.0 L 147.0 168.0 L 149.0 183.0 L 150.0 196.0 L 150.0 205.0 L 150.0 207.0 L 150.0 207.0 " stroke="black" fill="none" stroke-width="5.0" stroke-linecap="round" stroke-linejoin="round" />
</svg>