<svg xmlns="http://www.w3.org/2000/svg" width="300" height="300" viewBox="0 0 300 300">
<path d="M 123.0 111.0 L 123.0 111.0 L 123.0 111.0 L 123.0 111.0 L 126.0 111.0 L 133.0 111.0 L 144.0 110.0 L 153.0 109.0 L 160.0 109.0 L 163.0 109.0 L 165.0 109.0 L 166.0 110.0 L 167.0 112.0 L 168.0 114.0 L 169.0 117.0 L 170.0 121.0 L 171.0 126.0 L 171.0 129.0 " stroke="black" fill="none" stroke-width="5.0" stroke-linecap="round" stroke-linejoin="round" />
<path d="M 123.0 137.0 L 123.0 137.0 L 124.0 137.0 L 129.0 136.0 L 139.0 135.0 L 152.0 134.0 L 165.0 134.0 L 171.0 134.0 " stroke="black" fill="none" stroke-width="5.0" stroke-linecap="round" stroke-linejoin="round" />
<path d="M 118.0 115.0 L 118.0 116.0 L 118.0 119.0 L 118.0 124.0 L 118.0 137.0 L 116.0 155.0 L 112.0 174.0 L 107.0 189.0 L 103.0 197.0 L 102.0 198.0 " stroke="black" fill="none" stroke-width="5.0" stroke-linecap="round" stroke-linejoin="round" />
</svg>