<svg xmlns="http://www.w3.org/2000/svg" width="300" height="300" viewBox="0 0 300 300">
<path d="M 125.0 109.0 L 125.0 109.0 L 126.0 109.0 L 127.0 109.0 L 131.0 108.0 L 139.0 108.0 L 151.0 107.0 L 165.0 105.0 L 174.0 103.0 L 178.0 103.0 " stroke="black" fill="none" stroke-width="5.0" stroke-linecap="round" stroke-linejoin="round" />
<path d="M 150.0 91.0 L 150.0 91.0 L 150.0 92.0 L 149.0 95.0 L 149.0 101.0 L 151.0 112.0 L 153.0 127.0 L 154.0 138.0 L 154.0 144.0 " stroke="black" fill="none" stroke-width="5.0" stroke-linecap="round" stroke-linejoin="round" />
<path d="M 136.0 116.0 L 136.0 116.0 L 135.0 117.0 L 135.0 117.0 L 135.0 119.0 L 134.0 123.0 L 131.0 129.0 L 127.0 135.0 L 125.0 136.0 " stroke="black" fill="none" stroke-width="5.0" stroke-linecap="round" stroke-linejoin="round" />
<path d="M 136.0 126.0 L 136.0 127.0 L 137.0 129.0 L 139.0 130.0 L 142.0 132.0 L 143.0 133.0 " stroke="black" fill="none" stroke-width="5.0" stroke-linecap="round" stroke-linejoin="round" />
<path d="M 168.0 117.0 L 168.0 118.0 L 167.0 119.0 L 167.0 121.0 L 165.0 124.0 L 163.0 128.0 L 159.0 133.0 L 158.0 134.0 " stroke="black" fill="none" stroke-width="5.0" stroke-linecap="round" stroke-linejoin="round" />
<path d="M 163.0 128.0 L 163.0 128.0 L 165.0 128.0 L 167.0 128.0 L 171.0 129.0 L 177.0 131.0 L 180.0 132.0 " stroke="black" fill="none" stroke-width="5.0" stroke-linecap="round" stroke-linejoin="round" />
<path d="M 151.0 142.0 L 151.0 142.0 L 151.0 142.0 L 151.0 142.0 L 150.0 142.0 L 148.0 143.0 L 143.0 148.0 L 130.0 155.0 L 115.0 163.0 L 108.0 166.0 " stroke="black" fill="none" stroke-width="5.0" stroke-linecap="round" stroke-linejoin="round" />
<path d="M 153.0 143.0 L 153.0 143.0 L 153.0 143.0 L 154.0 144.0 L 158.0 146.0 L 167.0 151.0 L 178.0 156.0 L 186.0 161.0 L 191.0 163.0 " stroke="black" fill="none" stroke-width="5.0" stroke-linecap="round" stroke-linejoin="round" />
<path d="M 153.0 152.0 L 153.0 153.0 L 153.0 153.0 L 153.0 154.0 L 153.0 156.0 L 150.0 160.0 L 145.0 167.0 L 138.0 173.0 " stroke="black" fill="none" stroke-width="5.0" stroke-linecap="round" stroke-linejoin="round" />
<path d="M 151.0 162.0 L 151.0 162.0 L 151.0 162.0 L 152.0 162.0 L 156.0 162.0 L 160.0 163.0 L 164.0 163.0 L 167.0 164.0 L 169.0 166.0 L 169.0 169.0 L 167.0 175.0 L 161.0 183.0 L 151.0 193.0 L 138.0 202.0 L 130.0 206.0 L 130.0 206.0 " stroke="black" fill="none" stroke-width="5.0" stroke-linecap="round" stroke-linejoin="round" />
<path d="M 139.0 171.0 L 139.0 171.0 L 140.0 172.0 L 141.0 172.0 L 146.0 175.0 L 157.0 180.0 L 172.0 187.0 L 186.0 192.0 L 193.0 194.0 L 194.0 195.0 " stroke="black" fill="none" stroke-width="5.0" stroke-linecap="round" stroke-linejoin="round" />
</svg>