<svg xmlns="http://www.w3.org/2000/svg" width="300" height="300" viewBox="0 0 300 300">
<path d="M 131.0 110.0 L 132.0 110.0 L 133.0 110.0 L 136.0 110.0 L 144.0 110.0 L 153.0 110.0 L 161.0 111.0 L 166.0 112.0 L 169.0 113.0 L 170.0 115.0 L 170.0 118.0 L 167.0 121.0 L 161.0 125.0 L 154.0 128.0 L 148.0 132.0 L 143.0 136.0 L 141.0 138.0 L 141.0 140.0 L 144.0 144.0 L 148.0 149.0 L 153.0 156.0 L 156.0 165.0 L 160.0 174.0 L 161.0 182.0 L 162.0 187.0 L 160.0 188.0 L 155.0 189.0 L 150.0 189.0 L 144.0 188.0 L 139.0 187.0 " stroke="black" fill="none" stroke-width="5.0" stroke-linecap="round" stroke-linejoin="round" />
<path d="M 111.0 156.0 L 111.0 156.0 L 113.0 156.0 L 116.0 155.0 L 126.0 154.0 L 141.0 153.0 L 158.0 152.0 L 173.0 151.0 L 184.0 149.0 L 190.0 149.0 L 191.0 148.0 L 191.0 148.0 L 191.0 148.0 L 190.0 148.0 L 190.0 147.0 " stroke="black" fill="none" stroke-width="5.0" stroke-linecap="round" stroke-linejoin="round" />
</svg>