<svg xmlns="http://www.w3.org/2000/svg" width="300" height="300" viewBox="0 0 300 300">
<path d="M 131.0 116.0 L 132.0 116.0 L 133.0 116.0 L 139.0 117.0 L 149.0 117.0 L 161.0 117.0 L 168.0 116.0 " stroke="black" fill="none" stroke-width="5.0" stroke-linecap="round" stroke-linejoin="round" />
<path d="M 150.0 101.0 L 150.0 101.0 L 150.0 102.0 L 150.0 105.0 L 151.0 113.0 L 152.0 124.0 L 152.0 129.0 " stroke="black" fill="none" stroke-width="5.0" stroke-linecap="round" stroke-linejoin="round" />
<path d="M 130.0 141.0 L 131.0 141.0 L 133.0 141.0 L 136.0 141.0 L 145.0 140.0 L 156.0 138.0 L 165.0 138.0 L 170.0 139.0 L 171.0 141.0 L 168.0 145.0 L 163.0 151.0 L 156.0 157.0 L 148.0 165.0 L 136.0 176.0 L 122.0 186.0 L 109.0 191.0 L 102.0 192.0 " stroke="black" fill="none" stroke-width="5.0" stroke-linecap="round" stroke-linejoin="round" />
<path d="M 118.0 152.0 L 119.0 152.0 L 122.0 154.0 L 130.0 163.0 L 148.0 180.0 L 166.0 193.0 L 181.0 199.0 L 191.0 201.0 L 193.0 201.0 " stroke="black" fill="none" stroke-width="5.0" stroke-linecap="round" stroke-linejoin="round" />
</svg>