<svg xmlns="http://www.w3.org/2000/svg" width="300" height="300" viewBox="0 0 300 300">
<path d="M 129.0 110.0 L 129.0 110.0 L 129.0 110.0 L 129.0 110.0 L 133.0 109.0 L 142.0 109.0 L 153.0 107.0 L 159.0 107.0 L 160.0 107.0 L 159.0 108.0 " stroke="black" fill="none" stroke-width="5.0" stroke-linecap="round" stroke-linejoin="round" />
<path d="M 131.0 124.0 L 132.0 124.0 L 134.0 125.0 L 137.0 125.0 L 142.0 125.0 L 149.0 124.0 L 154.0 124.0 L 157.0 123.0 " stroke="black" fill="none" stroke-width="5.0" stroke-linecap="round" stroke-linejoin="round" />
<path d="M 112.0 141.0 L 113.0 142.0 L 115.0 142.0 L 123.0 142.0 L 138.0 140.0 L 154.0 140.0 L 166.0 139.0 L 174.0 140.0 L 175.0 141.0 " stroke="black" fill="none" stroke-width="5.0" stroke-linecap="round" stroke-linejoin="round" />
<path d="M 149.0 97.0 L 148.0 98.0 L 148.0 99.0 L 148.0 107.0 L 149.0 121.0 L 149.0 135.0 " stroke="black" fill="none" stroke-width="5.0" stroke-linecap="round" stroke-linejoin="round" />
<path d="M 128.0 157.0 L 128.0 157.0 L 128.0 157.0 L 128.0 157.0 L 128.0 160.0 L 127.0 170.0 L 125.0 185.0 L 123.0 198.0 L 122.0 203.0 L 122.0 203.0 L 122.0 202.0 " stroke="black" fill="none" stroke-width="5.0" stroke-linecap="round" stroke-linejoin="round" />
<path d="M 132.0 152.0 L 132.0 152.0 L 132.0 152.0 L 132.0 152.0 L 134.0 152.0 L 139.0 152.0 L 146.0 152.0 L 153.0 152.0 L 159.0 154.0 L 163.0 156.0 L 165.0 160.0 L 167.0 166.0 L 169.0 176.0 L 171.0 188.0 L 172.0 198.0 L 172.0 204.0 L 171.0 206.0 L 167.0 206.0 L 160.0 206.0 L 149.0 204.0 " stroke="black" fill="none" stroke-width="5.0" stroke-linecap="round" stroke-linejoin="round" />
<path d="M 127.0 166.0 L 127.0 166.0 L 127.0 166.0 L 131.0 166.0 L 140.0 166.0 L 151.0 166.0 L 158.0 166.0 L 161.0 166.0 L 161.0 166.0 " stroke="black" fill="none" stroke-width="5.0" stroke-linecap="round" stroke-linejoin="round" />
<path d="M 128.0 182.0 L 128.0 181.0 L 129.0 181.0 L 132.0 181.0 L 141.0 181.0 L 153.0 181.0 L 163.0 181.0 L 165.0 181.0 " stroke="black" fill="none" stroke-width="5.0" stroke-linecap="round" stroke-linejoin="round" />
</svg>