<svg xmlns="http://www.w3.org/2000/svg" width="300" height="300" viewBox="0 0 300 300">
<path d="M 111.0 142.0 L 111.0 142.0 L 111.0 142.0 L 111.0 142.0 L 111.0 144.0 L 110.0 148.0 L 108.0 155.0 L 104.0 163.0 L 101.0 167.0 " stroke="black" fill="none" stroke-width="5.0" stroke-linecap="round" stroke-linejoin="round" />
<path d="M 125.0 158.0 L 125.0 158.0 L 125.0 158.0 L 125.0 158.0 L 125.0 159.0 L 124.0 161.0 L 124.0 165.0 L 124.0 172.0 L 124.0 181.0 L 126.0 188.0 L 133.0 192.0 L 145.0 194.0 L 158.0 195.0 L 169.0 196.0 L 179.0 197.0 L 185.0 196.0 L 189.0 193.0 L 190.0 190.0 L 191.0 187.0 L 191.0 184.0 L 190.0 181.0 L 188.0 177.0 " stroke="black" fill="none" stroke-width="5.0" stroke-linecap="round" stroke-linejoin="round" />
<path d="M 150.0 141.0 L 150.0 141.0 L 150.0 142.0 L 152.0 147.0 L 155.0 156.0 L 158.0 163.0 " stroke="black" fill="none" stroke-width="5.0" stroke-linecap="round" stroke-linejoin="round" />
<path d="M 193.0 143.0 L 194.0 143.0 L 195.0 145.0 L 197.0 149.0 L 201.0 155.0 L 204.0 162.0 L 205.0 165.0 " stroke="black" fill="none" stroke-width="5.0" stroke-linecap="round" stroke-linejoin="round" />
</svg>