<svg xmlns="http://www.w3.org/2000/svg" width="300" height="300" viewBox="0 0 300 300">
<path d="M 139.0 96.0 L 139.0 96.0 L 139.0 96.0 L 139.0 97.0 L 141.0 100.0 L 145.0 105.0 L 147.0 107.0 " stroke="black" fill="none" stroke-width="5.0" stroke-linecap="round" stroke-linejoin="round" />
<path d="M 120.0 120.0 L 121.0 120.0 L 124.0 120.0 L 132.0 120.0 L 146.0 120.0 L 159.0 120.0 L 167.0 120.0 L 170.0 120.0 L 171.0 119.0 " stroke="black" fill="none" stroke-width="5.0" stroke-linecap="round" stroke-linejoin="round" />
<path d="M 116.0 126.0 L 116.0 126.0 L 116.0 126.0 L 116.0 126.0 L 116.0 126.0 L 116.0 128.0 L 116.0 136.0 L 114.0 151.0 L 110.0 173.0 L 106.0 192.0 L 103.0 203.0 L 102.0 207.0 L 102.0 207.0 L 102.0 206.0 " stroke="black" fill="none" stroke-width="5.0" stroke-linecap="round" stroke-linejoin="round" />
</svg>