<svg xmlns="http://www.w3.org/2000/svg" width="300" height="300" viewBox="0 0 300 300">
<path d="M 121.0 117.0 L 122.0 116.0 L 122.0 115.0 L 123.0 114.0 L 123.0 114.0 L 123.0 117.0 L 123.0 126.0 L 122.0 141.0 L 118.0 164.0 L 113.0 185.0 L 110.0 193.0 L 110.0 194.0 " stroke="black" fill="none" stroke-width="5.0" stroke-linecap="round" stroke-linejoin="round" />
<path d="M 125.0 113.0 L 125.0 113.0 L 126.0 113.0 L 129.0 113.0 L 137.0 111.0 L 149.0 108.0 L 159.0 107.0 L 164.0 107.0 L 167.0 109.0 L 169.0 113.0 L 170.0 119.0 L 171.0 129.0 L 173.0 144.0 L 177.0 160.0 L 181.0 174.0 L 187.0 185.0 L 194.0 193.0 L 200.0 199.0 L 205.0 202.0 L 208.0 199.0 L 209.0 191.0 L 209.0 188.0 " stroke="black" fill="none" stroke-width="5.0" stroke-linecap="round" stroke-linejoin="round" />
<path d="M 137.0 134.0 L 137.0 134.0 L 137.0 134.0 L 139.0 134.0 L 145.0 133.0 L 152.0 131.0 L 153.0 131.0 " stroke="black" fill="none" stroke-width="5.0" stroke-linecap="round" stroke-linejoin="round" />
<path d="M 134.0 152.0 L 134.0 153.0 L 134.0 154.0 L 134.0 156.0 L 134.0 158.0 L 134.0 159.0 " stroke="black" fill="none" stroke-width="5.0" stroke-linecap="round" stroke-linejoin="round" />
<path d="M 136.0 147.0 L 136.0 147.0 L 136.0 147.0 L 138.0 147.0 L 141.0 146.0 L 147.0 146.0 L 154.0 146.0 L 160.0 149.0 L 162.0 151.0 L 162.0 153.0 L 160.0 155.0 L 159.0 155.0 " stroke="black" fill="none" stroke-width="5.0" stroke-linecap="round" stroke-linejoin="round" />
<path d="M 137.0 159.0 L 137.0 159.0 L 137.0 159.0 L 139.0 160.0 L 144.0 160.0 L 151.0 160.0 L 152.0 160.0 " stroke="black" fill="none" stroke-width="5.0" stroke-linecap="round" stroke-linejoin="round" />
<path d="M 148.0 131.0 L 148.0 131.0 L 147.0 132.0 L 147.0 134.0 L 147.0 137.0 L 147.0 145.0 L 148.0 156.0 L 148.0 169.0 L 148.0 178.0 L 147.0 180.0 " stroke="black" fill="none" stroke-width="5.0" stroke-linecap="round" stroke-linejoin="round" />
<path d="M 128.0 181.0 L 128.0 182.0 L 128.0 183.0 L 131.0 183.0 L 139.0 183.0 L 150.0 181.0 L 159.0 180.0 L 163.0 179.0 " stroke="black" fill="none" stroke-width="5.0" stroke-linecap="round" stroke-linejoin="round" />
<path d="M 162.0 167.0 L 164.0 168.0 L 166.0 171.0 L 169.0 176.0 L 171.0 183.0 L 174.0 187.0 L 174.0 188.0 " stroke="black" fill="none" stroke-width="5.0" stroke-linecap="round" stroke-linejoin="round" />
</svg>