<svg xmlns="http://www.w3.org/2000/svg" width="300" height="300" viewBox="0 0 300 300">
<path d="M 132.0 107.0 L 132.0 107.0 L 132.0 107.0 L 134.0 107.0 L 141.0 107.0 L 153.0 106.0 L 164.0 104.0 L 169.0 104.0 L 170.0 104.0 " stroke="black" fill="none" stroke-width="5.0" stroke-linecap="round" stroke-linejoin="round" />
<path d="M 108.0 150.0 L 109.0 150.0 L 110.0 150.0 L 113.0 150.0 L 122.0 149.0 L 138.0 149.0 L 159.0 147.0 L 179.0 144.0 L 189.0 142.0 L 190.0 142.0 " stroke="black" fill="none" stroke-width="5.0" stroke-linecap="round" stroke-linejoin="round" />
<path d="M 148.0 104.0 L 148.0 104.0 L 148.0 104.0 L 148.0 105.0 L 149.0 112.0 L 151.0 129.0 L 154.0 154.0 L 157.0 176.0 L 158.0 192.0 L 159.0 201.0 L 159.0 205.0 L 159.0 205.0 L 159.0 205.0 " stroke="black" fill="none" stroke-width="5.0" stroke-linecap="round" stroke-linejoin="round" />
</svg>