<svg xmlns="http://www.w3.org/2000/svg" width="300" height="300" viewBox="0 0 300 300">
<path d="M 124.0 106.0 L 124.0 106.0 L 124.0 106.0 L 125.0 107.0 L 127.0 110.0 L 129.0 113.0 L 129.0 114.0 " stroke="black" fill="none" stroke-width="5.0" stroke-linecap="round" stroke-linejoin="round" />
<path d="M 111.0 120.0 L 111.0 121.0 L 112.0 122.0 L 113.0 122.0 L 117.0 122.0 L 127.0 122.0 L 138.0 120.0 L 144.0 120.0 L 145.0 120.0 " stroke="black" fill="none" stroke-width="5.0" stroke-linecap="round" stroke-linejoin="round" />
<path d="M 119.0 125.0 L 119.0 125.0 L 119.0 126.0 L 119.0 129.0 L 119.0 133.0 L 120.0 137.0 L 121.0 140.0 " stroke="black" fill="none" stroke-width="5.0" stroke-linecap="round" stroke-linejoin="round" />
<path d="M 135.0 122.0 L 134.0 122.0 L 134.0 123.0 L 133.0 124.0 L 132.0 128.0 L 132.0 135.0 L 132.0 138.0 " stroke="black" fill="none" stroke-width="5.0" stroke-linecap="round" stroke-linejoin="round" />
<path d="M 109.0 144.0 L 109.0 144.0 L 109.0 143.0 L 110.0 143.0 L 117.0 143.0 L 129.0 142.0 L 142.0 142.0 L 147.0 142.0 L 148.0 142.0 " stroke="black" fill="none" stroke-width="5.0" stroke-linecap="round" stroke-linejoin="round" />
<path d="M 118.0 155.0 L 118.0 155.0 L 118.0 155.0 L 118.0 155.0 L 118.0 155.0 L 118.0 160.0 L 118.0 172.0 L 117.0 189.0 L 116.0 200.0 L 116.0 203.0 L 117.0 203.0 " stroke="black" fill="none" stroke-width="5.0" stroke-linecap="round" stroke-linejoin="round" />
<path d="M 121.0 155.0 L 121.0 155.0 L 122.0 155.0 L 124.0 154.0 L 126.0 153.0 L 131.0 153.0 L 135.0 153.0 L 139.0 153.0 L 142.0 156.0 L 144.0 161.0 L 146.0 171.0 L 148.0 183.0 L 149.0 194.0 L 150.0 199.0 L 150.0 201.0 L 148.0 202.0 L 142.0 201.0 L 139.0 200.0 " stroke="black" fill="none" stroke-width="5.0" stroke-linecap="round" stroke-linejoin="round" />
<path d="M 121.0 163.0 L 121.0 163.0 L 122.0 163.0 L 124.0 164.0 L 129.0 165.0 L 134.0 165.0 L 138.0 165.0 L 139.0 165.0 " stroke="black" fill="none" stroke-width="5.0" stroke-linecap="round" stroke-linejoin="round" />
<path d="M 120.0 178.0 L 121.0 178.0 L 123.0 179.0 L 128.0 180.0 L 137.0 179.0 L 139.0 179.0 " stroke="black" fill="none" stroke-width="5.0" stroke-linecap="round" stroke-linejoin="round" />
<path d="M 154.0 111.0 L 154.0 111.0 L 154.0 111.0 L 154.0 111.0 L 154.0 114.0 L 155.0 118.0 L 156.0 123.0 L 157.0 126.0 L 158.0 128.0 L 161.0 128.0 L 165.0 127.0 L 170.0 127.0 L 174.0 128.0 L 176.0 130.0 L 177.0 133.0 L 177.0 136.0 L 176.0 138.0 L 173.0 140.0 L 170.0 141.0 L 166.0 141.0 L 162.0 141.0 L 160.0 141.0 L 159.0 141.0 L 159.0 142.0 L 159.0 145.0 L 159.0 150.0 L 160.0 160.0 L 162.0 174.0 L 165.0 187.0 L 169.0 196.0 L 176.0 201.0 L 182.0 204.0 L 188.0 205.0 L 192.0 202.0 L 193.0 200.0 " stroke="black" fill="none" stroke-width="5.0" stroke-linecap="round" stroke-linejoin="round" />
<path d="M 161.0 155.0 L 163.0 155.0 L 164.0 156.0 L 167.0 156.0 L 172.0 156.0 L 177.0 156.0 L 181.0 155.0 " stroke="black" fill="none" stroke-width="5.0" stroke-linecap="round" stroke-linejoin="round" />
<path d="M 161.0 167.0 L 162.0 168.0 L 164.0 169.0 L 168.0 169.0 L 175.0 169.0 L 180.0 168.0 L 182.0 168.0 " stroke="black" fill="none" stroke-width="5.0" stroke-linecap="round" stroke-linejoin="round" />
<path d="M 164.0 182.0 L 165.0 183.0 L 168.0 185.0 L 174.0 185.0 L 183.0 184.0 L 185.0 183.0 " stroke="black" fill="none" stroke-width="5.0" stroke-linecap="round" stroke-linejoin="round" />
<path d="M 155.0 116.0 L 155.0 116.0 L 155.0 116.0 L 155.0 116.0 L 158.0 116.0 L 165.0 116.0 L 175.0 116.0 " stroke="black" fill="none" stroke-width="5.0" stroke-linecap="round" stroke-linejoin="round" />
</svg>