<svg xmlns="http://www.w3.org/2000/svg" width="300" height="300" viewBox="0 0 300 300">
<path d="M 129.0 113.0 L 129.0 113.0 L 129.0 113.0 L 129.0 114.0 L 129.0 117.0 L 129.0 122.0 L 126.0 130.0 L 121.0 138.0 L 117.0 145.0 L 113.0 149.0 L 111.0 152.0 L 110.0 153.0 L 110.0 154.0 L 110.0 154.0 L 111.0 154.0 L 112.0 154.0 L 114.0 157.0 L 117.0 161.0 L 121.0 167.0 L 126.0 175.0 L 131.0 182.0 L 135.0 187.0 L 137.0 191.0 L 138.0 193.0 L 138.0 193.0 L 138.0 193.0 " stroke="black" fill="none" stroke-width="5.0" stroke-linecap="round" stroke-linejoin="round" />
<path d="M 149.0 117.0 L 149.0 117.0 L 149.0 117.0 L 149.0 117.0 L 149.0 118.0 L 148.0 118.0 L 148.0 120.0 L 147.0 123.0 L 145.0 128.0 L 143.0 135.0 L 140.0 141.0 L 137.0 146.0 L 135.0 149.0 L 134.0 152.0 L 133.0 153.0 L 133.0 153.0 L 133.0 153.0 L 133.0 153.0 L 133.0 153.0 L 133.0 153.0 L 133.0 153.0 L 134.0 154.0 L 136.0 156.0 L 138.0 159.0 L 141.0 164.0 L 144.0 170.0 L 147.0 176.0 L 150.0 181.0 L 153.0 185.0 L 156.0 189.0 L 157.0 192.0 L 158.0 193.0 L 158.0 193.0 L 158.0 193.0 " stroke="black" fill="none" stroke-width="5.0" stroke-linecap="round" stroke-linejoin="round" />
<path d="M 169.0 122.0 L 169.0 122.0 L 169.0 122.0 L 169.0 122.0 L 169.0 123.0 L 169.0 124.0 L 168.0 127.0 L 167.0 131.0 L 164.0 136.0 L 161.0 142.0 L 158.0 147.0 L 156.0 149.0 L 155.0 150.0 L 155.0 150.0 L 155.0 150.0 L 155.0 150.0 L 156.0 150.0 L 157.0 150.0 L 158.0 151.0 L 160.0 153.0 L 163.0 156.0 L 166.0 161.0 L 171.0 167.0 L 177.0 173.0 L 182.0 179.0 L 186.0 185.0 L 188.0 188.0 L 189.0 189.0 L 189.0 189.0 L 189.0 189.0 L 189.0 189.0 L 188.0 189.0 L 188.0 188.0 " stroke="black" fill="none" stroke-width="5.0" stroke-linecap="round" stroke-linejoin="round" />
</svg>