<svg xmlns="http://www.w3.org/2000/svg" width="300" height="300" viewBox="0 0 300 300">
<path d="M 141.0 99.0 L 141.0 99.0 L 141.0 99.0 L 141.0 100.0 L 144.0 104.0 L 148.0 110.0 L 150.0 114.0 " stroke="black" fill="none" stroke-width="5.0" stroke-linecap="round" stroke-linejoin="round" />
<path d="M 117.0 122.0 L 119.0 122.0 L 121.0 122.0 L 128.0 121.0 L 138.0 120.0 L 150.0 120.0 L 163.0 119.0 L 172.0 118.0 L 175.0 118.0 L 175.0 118.0 " stroke="black" fill="none" stroke-width="5.0" stroke-linecap="round" stroke-linejoin="round" />
<path d="M 137.0 125.0 L 137.0 125.0 L 137.0 125.0 L 136.0 126.0 L 136.0 131.0 L 138.0 138.0 L 140.0 144.0 L 141.0 145.0 " stroke="black" fill="none" stroke-width="5.0" stroke-linecap="round" stroke-linejoin="round" />
<path d="M 160.0 124.0 L 161.0 126.0 L 161.0 129.0 L 161.0 134.0 L 161.0 139.0 L 160.0 145.0 L 159.0 147.0 " stroke="black" fill="none" stroke-width="5.0" stroke-linecap="round" stroke-linejoin="round" />
<path d="M 121.0 151.0 L 122.0 151.0 L 123.0 150.0 L 126.0 150.0 L 134.0 149.0 L 146.0 148.0 L 161.0 148.0 L 173.0 147.0 L 180.0 146.0 L 184.0 146.0 L 184.0 146.0 " stroke="black" fill="none" stroke-width="5.0" stroke-linecap="round" stroke-linejoin="round" />
<path d="M 133.0 171.0 L 133.0 171.0 L 133.0 171.0 L 135.0 172.0 L 142.0 172.0 L 152.0 171.0 L 163.0 171.0 L 171.0 171.0 L 175.0 171.0 " stroke="black" fill="none" stroke-width="5.0" stroke-linecap="round" stroke-linejoin="round" />
<path d="M 152.0 146.0 L 152.0 146.0 L 152.0 147.0 L 152.0 153.0 L 155.0 167.0 L 157.0 184.0 L 159.0 197.0 L 159.0 202.0 L 160.0 204.0 L 160.0 203.0 L 160.0 201.0 " stroke="black" fill="none" stroke-width="5.0" stroke-linecap="round" stroke-linejoin="round" />
</svg>