<svg xmlns="http://www.w3.org/2000/svg" width="300" height="300" viewBox="0 0 300 300">
<path d="M 135.0 110.0 L 135.0 110.0 L 135.0 112.0 L 136.0 114.0 L 136.0 120.0 L 137.0 134.0 L 137.0 153.0 L 134.0 171.0 L 130.0 183.0 L 128.0 186.0 " stroke="black" fill="none" stroke-width="5.0" stroke-linecap="round" stroke-linejoin="round" />
<path d="M 117.0 129.0 L 117.0 129.0 L 117.0 130.0 L 119.0 130.0 L 123.0 130.0 L 130.0 130.0 L 135.0 130.0 " stroke="black" fill="none" stroke-width="5.0" stroke-linecap="round" stroke-linejoin="round" />
<path d="M 119.0 147.0 L 120.0 147.0 L 121.0 147.0 L 124.0 148.0 L 129.0 148.0 L 132.0 148.0 " stroke="black" fill="none" stroke-width="5.0" stroke-linecap="round" stroke-linejoin="round" />
<path d="M 108.0 165.0 L 109.0 166.0 L 111.0 166.0 L 119.0 167.0 L 130.0 164.0 " stroke="black" fill="none" stroke-width="5.0" stroke-linecap="round" stroke-linejoin="round" />
<path d="M 157.0 111.0 L 157.0 111.0 L 157.0 111.0 L 157.0 110.0 L 157.0 110.0 L 158.0 113.0 L 159.0 121.0 L 160.0 136.0 L 161.0 160.0 L 161.0 182.0 L 162.0 197.0 L 163.0 202.0 L 163.0 201.0 L 163.0 200.0 " stroke="black" fill="none" stroke-width="5.0" stroke-linecap="round" stroke-linejoin="round" />
<path d="M 160.0 130.0 L 160.0 130.0 L 161.0 130.0 L 161.0 130.0 L 163.0 130.0 L 167.0 130.0 L 172.0 131.0 L 176.0 131.0 L 178.0 131.0 " stroke="black" fill="none" stroke-width="5.0" stroke-linecap="round" stroke-linejoin="round" />
<path d="M 160.0 152.0 L 160.0 152.0 L 161.0 152.0 L 164.0 153.0 L 170.0 153.0 L 176.0 153.0 L 181.0 153.0 L 182.0 153.0 " stroke="black" fill="none" stroke-width="5.0" stroke-linecap="round" stroke-linejoin="round" />
<path d="M 161.0 174.0 L 161.0 175.0 L 162.0 176.0 L 165.0 178.0 L 174.0 178.0 L 185.0 178.0 L 189.0 178.0 " stroke="black" fill="none" stroke-width="5.0" stroke-linecap="round" stroke-linejoin="round" />
</svg>