<svg xmlns="http://www.w3.org/2000/svg" width="300" height="300" viewBox="0 0 300 300">
<path d="M 118.0 105.0 L 118.0 105.0 L 118.0 105.0 L 118.0 105.0 L 119.0 105.0 L 121.0 105.0 L 125.0 105.0 L 128.0 105.0 L 131.0 105.0 L 133.0 105.0 L 135.0 107.0 L 136.0 113.0 L 136.0 120.0 L 137.0 125.0 L 137.0 129.0 L 137.0 129.0 " stroke="black" fill="none" stroke-width="5.0" stroke-linecap="round" stroke-linejoin="round" />
<path d="M 116.0 116.0 L 116.0 116.0 L 116.0 116.0 L 116.0 116.0 L 117.0 117.0 L 121.0 117.0 L 126.0 117.0 L 130.0 118.0 L 132.0 118.0 " stroke="black" fill="none" stroke-width="5.0" stroke-linecap="round" stroke-linejoin="round" />
<path d="M 110.0 129.0 L 110.0 129.0 L 110.0 129.0 L 111.0 129.0 L 116.0 129.0 L 126.0 129.0 L 129.0 130.0 " stroke="black" fill="none" stroke-width="5.0" stroke-linecap="round" stroke-linejoin="round" />
<path d="M 111.0 107.0 L 111.0 106.0 L 111.0 105.0 L 111.0 105.0 L 111.0 105.0 L 111.0 106.0 L 111.0 115.0 L 110.0 133.0 L 108.0 160.0 L 107.0 180.0 L 107.0 189.0 L 107.0 191.0 L 107.0 191.0 " stroke="black" fill="none" stroke-width="5.0" stroke-linecap="round" stroke-linejoin="round" />
<path d="M 150.0 106.0 L 150.0 106.0 L 150.0 106.0 L 150.0 106.0 L 153.0 106.0 L 159.0 106.0 L 165.0 106.0 L 169.0 106.0 L 171.0 106.0 L 172.0 110.0 L 174.0 120.0 L 177.0 136.0 L 180.0 155.0 L 182.0 170.0 L 182.0 180.0 L 182.0 188.0 L 181.0 191.0 L 177.0 191.0 L 171.0 189.0 L 164.0 184.0 " stroke="black" fill="none" stroke-width="5.0" stroke-linecap="round" stroke-linejoin="round" />
<path d="M 153.0 111.0 L 153.0 111.0 L 153.0 111.0 L 153.0 110.0 L 153.0 110.0 L 153.0 110.0 L 153.0 110.0 L 153.0 112.0 L 153.0 117.0 L 152.0 125.0 L 152.0 131.0 L 154.0 135.0 L 157.0 136.0 L 162.0 136.0 L 167.0 136.0 L 171.0 136.0 L 171.0 136.0 " stroke="black" fill="none" stroke-width="5.0" stroke-linecap="round" stroke-linejoin="round" />
<path d="M 156.0 121.0 L 156.0 121.0 L 156.0 121.0 L 156.0 121.0 L 156.0 121.0 L 156.0 121.0 L 157.0 121.0 L 159.0 121.0 L 162.0 121.0 L 167.0 121.0 L 171.0 121.0 " stroke="black" fill="none" stroke-width="5.0" stroke-linecap="round" stroke-linejoin="round" />
</svg>