<svg xmlns="http://www.w3.org/2000/svg" width="300" height="300" viewBox="0 0 300 300">
<path d="M 159.0 99.0 L 159.0 99.0 L 159.0 99.0 L 159.0 99.0 L 158.0 101.0 L 153.0 106.0 L 145.0 112.0 L 143.0 114.0 " stroke="black" fill="none" stroke-width="5.0" stroke-linecap="round" stroke-linejoin="round" />
<path d="M 126.0 133.0 L 126.0 133.0 L 126.0 133.0 L 128.0 132.0 L 134.0 131.0 L 145.0 129.0 L 159.0 127.0 L 172.0 126.0 L 180.0 125.0 L 181.0 125.0 " stroke="black" fill="none" stroke-width="5.0" stroke-linecap="round" stroke-linejoin="round" />
<path d="M 153.0 110.0 L 153.0 110.0 L 152.0 111.0 L 152.0 113.0 L 153.0 121.0 L 155.0 132.0 L 157.0 142.0 L 157.0 147.0 L 157.0 148.0 " stroke="black" fill="none" stroke-width="5.0" stroke-linecap="round" stroke-linejoin="round" />
<path d="M 156.0 124.0 L 156.0 124.0 L 155.0 125.0 L 153.0 126.0 L 150.0 128.0 L 145.0 133.0 L 136.0 141.0 L 124.0 149.0 L 117.0 154.0 L 116.0 155.0 " stroke="black" fill="none" stroke-width="5.0" stroke-linecap="round" stroke-linejoin="round" />
<path d="M 160.0 127.0 L 161.0 129.0 L 165.0 133.0 L 173.0 140.0 L 183.0 147.0 L 190.0 151.0 " stroke="black" fill="none" stroke-width="5.0" stroke-linecap="round" stroke-linejoin="round" />
<path d="M 153.0 151.0 L 153.0 151.0 L 152.0 151.0 L 151.0 152.0 L 148.0 154.0 L 140.0 160.0 L 128.0 169.0 L 116.0 177.0 L 114.0 179.0 " stroke="black" fill="none" stroke-width="5.0" stroke-linecap="round" stroke-linejoin="round" />
<path d="M 154.0 153.0 L 155.0 153.0 L 157.0 154.0 L 162.0 158.0 L 171.0 165.0 L 180.0 170.0 L 184.0 174.0 L 185.0 174.0 " stroke="black" fill="none" stroke-width="5.0" stroke-linecap="round" stroke-linejoin="round" />
<path d="M 152.0 166.0 L 152.0 166.0 L 152.0 166.0 L 153.0 167.0 L 155.0 174.0 L 159.0 187.0 L 163.0 201.0 L 165.0 211.0 L 165.0 214.0 L 164.0 214.0 L 161.0 211.0 L 155.0 207.0 L 150.0 204.0 " stroke="black" fill="none" stroke-width="5.0" stroke-linecap="round" stroke-linejoin="round" />
<path d="M 140.0 181.0 L 140.0 181.0 L 140.0 181.0 L 141.0 181.0 L 143.0 181.0 L 147.0 181.0 L 147.0 181.0 " stroke="black" fill="none" stroke-width="5.0" stroke-linecap="round" stroke-linejoin="round" />
<path d="M 130.0 200.0 L 130.0 200.0 L 130.0 200.0 L 131.0 200.0 L 136.0 199.0 L 145.0 195.0 " stroke="black" fill="none" stroke-width="5.0" stroke-linecap="round" stroke-linejoin="round" />
<path d="M 163.0 185.0 L 165.0 185.0 L 167.0 184.0 L 170.0 183.0 L 175.0 181.0 L 177.0 180.0 " stroke="black" fill="none" stroke-width="5.0" stroke-linecap="round" stroke-linejoin="round" />
<path d="M 171.0 196.0 L 173.0 198.0 L 176.0 201.0 L 181.0 204.0 L 187.0 207.0 L 188.0 208.0 " stroke="black" fill="none" stroke-width="5.0" stroke-linecap="round" stroke-linejoin="round" />
</svg>