<svg xmlns="http://www.w3.org/2000/svg" width="300" height="300" viewBox="0 0 300 300">
<path d="M 131.0 101.0 L 131.0 101.0 L 131.0 102.0 L 130.0 106.0 L 128.0 113.0 L 126.0 123.0 L 124.0 131.0 " stroke="black" fill="none" stroke-width="5.0" stroke-linecap="round" stroke-linejoin="round" />
<path d="M 135.0 114.0 L 137.0 114.0 L 138.0 114.0 L 142.0 114.0 L 148.0 113.0 L 158.0 113.0 L 168.0 112.0 L 174.0 112.0 L 177.0 112.0 L 177.0 116.0 L 177.0 123.0 L 177.0 130.0 L 177.0 133.0 " stroke="black" fill="none" stroke-width="5.0" stroke-linecap="round" stroke-linejoin="round" />
<path d="M 152.0 127.0 L 152.0 128.0 L 151.0 130.0 L 150.0 132.0 L 149.0 138.0 L 147.0 149.0 L 143.0 164.0 L 135.0 181.0 L 126.0 191.0 L 120.0 195.0 L 119.0 195.0 " stroke="black" fill="none" stroke-width="5.0" stroke-linecap="round" stroke-linejoin="round" />
<path d="M 146.0 162.0 L 146.0 162.0 L 146.0 162.0 L 146.0 163.0 L 149.0 167.0 L 160.0 177.0 L 177.0 191.0 L 191.0 202.0 L 199.0 207.0 L 202.0 208.0 L 202.0 208.0 " stroke="black" fill="none" stroke-width="5.0" stroke-linecap="round" stroke-linejoin="round" />
</svg>