<svg xmlns="http://www.w3.org/2000/svg" width="300" height="300" viewBox="0 0 300 300">
<path d="M 147.0 98.0 L 147.0 98.0 L 147.0 98.0 L 147.0 98.0 L 147.0 99.0 L 148.0 100.0 L 148.0 105.0 L 149.0 114.0 L 150.0 123.0 L 150.0 129.0 L 150.0 130.0 " stroke="black" fill="none" stroke-width="5.0" stroke-linecap="round" stroke-linejoin="round" />
<path d="M 151.0 114.0 L 151.0 114.0 L 151.0 115.0 L 151.0 115.0 L 154.0 116.0 L 161.0 116.0 L 168.0 116.0 L 173.0 116.0 L 175.0 116.0 " stroke="black" fill="none" stroke-width="5.0" stroke-linecap="round" stroke-linejoin="round" />
<path d="M 132.0 138.0 L 132.0 138.0 L 132.0 138.0 L 132.0 138.0 L 133.0 138.0 L 137.0 138.0 L 147.0 138.0 L 157.0 137.0 L 165.0 137.0 L 168.0 137.0 L 169.0 137.0 L 168.0 141.0 L 165.0 147.0 L 161.0 154.0 L 155.0 163.0 L 148.0 173.0 L 140.0 184.0 L 130.0 193.0 L 121.0 198.0 L 114.0 199.0 L 113.0 199.0 " stroke="black" fill="none" stroke-width="5.0" stroke-linecap="round" stroke-linejoin="round" />
<path d="M 126.0 157.0 L 126.0 157.0 L 127.0 158.0 L 129.0 161.0 L 135.0 168.0 L 145.0 178.0 L 159.0 189.0 L 174.0 198.0 L 183.0 203.0 L 188.0 206.0 L 190.0 206.0 " stroke="black" fill="none" stroke-width="5.0" stroke-linecap="round" stroke-linejoin="round" />
</svg>