<svg xmlns="http://www.w3.org/2000/svg" width="300" height="300" viewBox="0 0 300 300">
<path d="M 116.0 127.0 L 116.0 127.0 L 116.0 127.0 L 115.0 128.0 L 115.0 132.0 L 116.0 143.0 L 118.0 159.0 L 120.0 173.0 L 120.0 178.0 L 120.0 178.0 " stroke="black" fill="none" stroke-width="5.0" stroke-linecap="round" stroke-linejoin="round" />
<path d="M 123.0 125.0 L 124.0 125.0 L 125.0 125.0 L 126.0 126.0 L 129.0 126.0 L 135.0 126.0 L 144.0 126.0 L 153.0 126.0 L 161.0 125.0 L 166.0 125.0 L 169.0 126.0 L 172.0 130.0 L 175.0 139.0 L 178.0 149.0 L 180.0 159.0 L 182.0 169.0 L 183.0 176.0 L 183.0 181.0 L 181.0 182.0 L 175.0 181.0 L 166.0 178.0 L 163.0 177.0 " stroke="black" fill="none" stroke-width="5.0" stroke-linecap="round" stroke-linejoin="round" />
<path d="M 146.0 91.0 L 146.0 91.0 L 146.0 91.0 L 146.0 92.0 L 146.0 95.0 L 146.0 101.0 L 147.0 114.0 L 149.0 132.0 L 150.0 150.0 L 150.0 164.0 L 151.0 176.0 L 151.0 185.0 L 152.0 195.0 L 152.0 203.0 L 152.0 208.0 L 152.0 210.0 L 152.0 209.0 L 152.0 207.0 " stroke="black" fill="none" stroke-width="5.0" stroke-linecap="round" stroke-linejoin="round" />
</svg>