<svg xmlns="http://www.w3.org/2000/svg" width="300" height="300" viewBox="0 0 300 300">
<path d="M 139.0 95.0 L 139.0 95.0 L 139.0 95.0 L 139.0 96.0 L 138.0 97.0 L 138.0 101.0 L 138.0 108.0 L 139.0 114.0 L 140.0 115.0 " stroke="black" fill="none" stroke-width="5.0" stroke-linecap="round" stroke-linejoin="round" />
<path d="M 155.0 94.0 L 155.0 94.0 L 155.0 95.0 L 156.0 97.0 L 156.0 101.0 L 157.0 109.0 L 157.0 116.0 L 157.0 120.0 " stroke="black" fill="none" stroke-width="5.0" stroke-linecap="round" stroke-linejoin="round" />
<path d="M 126.0 102.0 L 126.0 102.0 L 126.0 103.0 L 127.0 106.0 L 129.0 109.0 L 130.0 111.0 " stroke="black" fill="none" stroke-width="5.0" stroke-linecap="round" stroke-linejoin="round" />
<path d="M 171.0 106.0 L 171.0 107.0 L 170.0 109.0 L 169.0 112.0 L 167.0 115.0 " stroke="black" fill="none" stroke-width="5.0" stroke-linecap="round" stroke-linejoin="round" />
<path d="M 105.0 122.0 L 106.0 122.0 L 108.0 123.0 L 113.0 123.0 L 124.0 123.0 L 140.0 123.0 L 158.0 122.0 L 175.0 122.0 L 187.0 122.0 L 190.0 122.0 L 190.0 122.0 " stroke="black" fill="none" stroke-width="5.0" stroke-linecap="round" stroke-linejoin="round" />
<path d="M 147.0 124.0 L 147.0 124.0 L 147.0 124.0 L 146.0 124.0 L 146.0 124.0 L 146.0 124.0 L 146.0 124.0 L 146.0 129.0 L 146.0 143.0 L 147.0 162.0 L 147.0 179.0 L 147.0 189.0 L 147.0 196.0 L 147.0 201.0 L 146.0 203.0 L 146.0 203.0 " stroke="black" fill="none" stroke-width="5.0" stroke-linecap="round" stroke-linejoin="round" />
<path d="M 123.0 150.0 L 123.0 150.0 L 123.0 150.0 L 123.0 150.0 L 123.0 150.0 L 123.0 156.0 L 122.0 170.0 L 120.0 190.0 L 119.0 204.0 L 119.0 207.0 L 120.0 207.0 " stroke="black" fill="none" stroke-width="5.0" stroke-linecap="round" stroke-linejoin="round" />
<path d="M 124.0 148.0 L 124.0 148.0 L 124.0 148.0 L 125.0 148.0 L 129.0 148.0 L 138.0 148.0 L 148.0 147.0 L 157.0 146.0 L 163.0 146.0 L 166.0 148.0 L 169.0 150.0 L 172.0 157.0 L 176.0 168.0 L 178.0 180.0 L 179.0 191.0 L 179.0 200.0 L 179.0 208.0 L 177.0 213.0 L 174.0 214.0 L 171.0 213.0 L 170.0 211.0 " stroke="black" fill="none" stroke-width="5.0" stroke-linecap="round" stroke-linejoin="round" />
<path d="M 128.0 130.0 L 128.0 130.0 L 128.0 130.0 L 128.0 130.0 L 127.0 130.0 L 127.0 131.0 L 124.0 134.0 L 121.0 138.0 " stroke="black" fill="none" stroke-width="5.0" stroke-linecap="round" stroke-linejoin="round" />
<path d="M 161.0 128.0 L 161.0 129.0 L 161.0 130.0 L 164.0 132.0 L 167.0 135.0 L 168.0 136.0 " stroke="black" fill="none" stroke-width="5.0" stroke-linecap="round" stroke-linejoin="round" />
<path d="M 138.0 166.0 L 138.0 166.0 L 138.0 166.0 L 138.0 167.0 L 138.0 167.0 L 138.0 168.0 L 137.0 171.0 L 135.0 176.0 L 133.0 179.0 " stroke="black" fill="none" stroke-width="5.0" stroke-linecap="round" stroke-linejoin="round" />
<path d="M 160.0 169.0 L 161.0 170.0 L 162.0 173.0 L 165.0 177.0 L 169.0 183.0 L 171.0 186.0 " stroke="black" fill="none" stroke-width="5.0" stroke-linecap="round" stroke-linejoin="round" />
</svg>