<svg xmlns="http://www.w3.org/2000/svg" width="300" height="300" viewBox="0 0 300 300">
<path d="M 129.0 131.0 L 129.0 131.0 L 130.0 131.0 L 130.0 131.0 L 131.0 131.0 L 135.0 131.0 L 144.0 131.0 L 156.0 130.0 L 164.0 129.0 L 166.0 129.0 L 166.0 131.0 " stroke="black" fill="none" stroke-width="5.0" stroke-linecap="round" stroke-linejoin="round" />
<path d="M 108.0 180.0 L 109.0 180.0 L 111.0 179.0 L 121.0 178.0 L 138.0 177.0 L 156.0 177.0 L 172.0 177.0 L 186.0 177.0 L 191.0 176.0 L 191.0 176.0 " stroke="black" fill="none" stroke-width="5.0" stroke-linecap="round" stroke-linejoin="round" />
<path d="M 150.0 106.0 L 150.0 106.0 L 150.0 107.0 L 150.0 112.0 L 150.0 131.0 L 151.0 153.0 L 152.0 165.0 L 152.0 170.0 " stroke="black" fill="none" stroke-width="5.0" stroke-linecap="round" stroke-linejoin="round" />
</svg>