<svg xmlns="http://www.w3.org/2000/svg" width="300" height="300" viewBox="0 0 300 300">
<path d="M 141.0 105.0 L 141.0 105.0 L 141.0 104.0 L 141.0 104.0 L 141.0 103.0 L 141.0 103.0 L 141.0 104.0 L 139.0 108.0 L 135.0 113.0 L 131.0 118.0 L 126.0 121.0 L 124.0 124.0 L 124.0 126.0 L 124.0 130.0 L 125.0 138.0 L 126.0 150.0 L 126.0 165.0 L 125.0 177.0 L 124.0 183.0 L 124.0 183.0 L 124.0 183.0 " stroke="black" fill="none" stroke-width="5.0" stroke-linecap="round" stroke-linejoin="round" />
<path d="M 127.0 122.0 L 128.0 122.0 L 128.0 123.0 L 130.0 124.0 L 135.0 124.0 L 144.0 122.0 L 153.0 120.0 L 160.0 119.0 L 164.0 119.0 L 167.0 119.0 L 168.0 120.0 L 169.0 124.0 L 171.0 132.0 L 175.0 146.0 L 179.0 162.0 L 181.0 176.0 L 183.0 186.0 L 183.0 191.0 L 183.0 192.0 L 183.0 192.0 " stroke="black" fill="none" stroke-width="5.0" stroke-linecap="round" stroke-linejoin="round" />
<path d="M 130.0 144.0 L 130.0 144.0 L 131.0 144.0 L 132.0 144.0 L 138.0 144.0 L 150.0 144.0 L 161.0 144.0 L 169.0 144.0 L 171.0 144.0 L 170.0 144.0 " stroke="black" fill="none" stroke-width="5.0" stroke-linecap="round" stroke-linejoin="round" />
<path d="M 132.0 165.0 L 132.0 165.0 L 132.0 166.0 L 137.0 166.0 L 147.0 166.0 L 160.0 166.0 L 171.0 166.0 L 175.0 166.0 L 175.0 167.0 " stroke="black" fill="none" stroke-width="5.0" stroke-linecap="round" stroke-linejoin="round" />
<path d="M 125.0 190.0 L 125.0 190.0 L 126.0 191.0 L 129.0 192.0 L 137.0 193.0 L 150.0 194.0 L 164.0 194.0 L 175.0 194.0 L 179.0 192.0 " stroke="black" fill="none" stroke-width="5.0" stroke-linecap="round" stroke-linejoin="round" />
</svg>