<svg xmlns="http://www.w3.org/2000/svg" width="300" height="300" viewBox="0 0 300 300">
<path d="M 132.0 103.0 L 132.0 103.0 L 131.0 103.0 L 131.0 104.0 L 130.0 109.0 L 130.0 120.0 L 131.0 131.0 L 132.0 137.0 L 133.0 137.0 " stroke="black" fill="none" stroke-width="5.0" stroke-linecap="round" stroke-linejoin="round" />
<path d="M 135.0 104.0 L 135.0 104.0 L 135.0 104.0 L 136.0 104.0 L 140.0 103.0 L 147.0 102.0 L 154.0 101.0 L 160.0 101.0 L 165.0 101.0 L 167.0 101.0 L 169.0 102.0 L 170.0 107.0 L 170.0 116.0 L 170.0 127.0 L 171.0 136.0 L 171.0 140.0 L 171.0 141.0 " stroke="black" fill="none" stroke-width="5.0" stroke-linecap="round" stroke-linejoin="round" />
<path d="M 150.0 120.0 L 150.0 120.0 L 150.0 120.0 L 150.0 121.0 L 150.0 123.0 L 150.0 127.0 L 151.0 133.0 L 151.0 137.0 " stroke="black" fill="none" stroke-width="5.0" stroke-linecap="round" stroke-linejoin="round" />
<path d="M 151.0 121.0 L 151.0 121.0 L 151.0 121.0 L 152.0 121.0 L 155.0 121.0 L 159.0 121.0 L 163.0 121.0 L 167.0 121.0 L 168.0 121.0 L 168.0 121.0 " stroke="black" fill="none" stroke-width="5.0" stroke-linecap="round" stroke-linejoin="round" />
<path d="M 120.0 143.0 L 120.0 143.0 L 120.0 143.0 L 121.0 143.0 L 123.0 143.0 L 130.0 143.0 L 143.0 143.0 L 156.0 143.0 L 167.0 143.0 L 174.0 143.0 L 178.0 143.0 L 179.0 143.0 L 179.0 143.0 L 179.0 144.0 L 179.0 148.0 L 179.0 152.0 L 179.0 152.0 " stroke="black" fill="none" stroke-width="5.0" stroke-linecap="round" stroke-linejoin="round" />
<path d="M 118.0 146.0 L 118.0 146.0 L 118.0 146.0 L 118.0 146.0 L 118.0 150.0 L 118.0 153.0 " stroke="black" fill="none" stroke-width="5.0" stroke-linecap="round" stroke-linejoin="round" />
<path d="M 139.0 154.0 L 139.0 154.0 L 138.0 154.0 L 138.0 157.0 L 137.0 164.0 L 136.0 177.0 L 135.0 191.0 L 135.0 197.0 L 136.0 199.0 L 137.0 198.0 " stroke="black" fill="none" stroke-width="5.0" stroke-linecap="round" stroke-linejoin="round" />
<path d="M 140.0 154.0 L 140.0 154.0 L 140.0 154.0 L 140.0 154.0 L 143.0 154.0 L 148.0 153.0 L 152.0 153.0 L 157.0 154.0 L 160.0 156.0 L 164.0 162.0 L 168.0 170.0 L 170.0 180.0 L 171.0 187.0 L 171.0 193.0 L 170.0 195.0 L 167.0 197.0 L 163.0 198.0 L 157.0 198.0 L 156.0 198.0 " stroke="black" fill="none" stroke-width="5.0" stroke-linecap="round" stroke-linejoin="round" />
<path d="M 139.0 167.0 L 139.0 167.0 L 139.0 167.0 L 139.0 168.0 L 141.0 168.0 L 147.0 169.0 L 155.0 168.0 L 160.0 168.0 L 161.0 168.0 " stroke="black" fill="none" stroke-width="5.0" stroke-linecap="round" stroke-linejoin="round" />
<path d="M 141.0 182.0 L 141.0 182.0 L 141.0 182.0 L 144.0 182.0 L 152.0 183.0 L 161.0 183.0 L 165.0 183.0 " stroke="black" fill="none" stroke-width="5.0" stroke-linecap="round" stroke-linejoin="round" />
</svg>