<svg xmlns="http://www.w3.org/2000/svg" width="300" height="300" viewBox="0 0 300 300">
<path d="M 123.0 116.0 L 123.0 116.0 L 123.0 116.0 L 124.0 116.0 L 130.0 116.0 L 142.0 117.0 L 154.0 117.0 L 161.0 116.0 L 162.0 116.0 " stroke="black" fill="none" stroke-width="5.0" stroke-linecap="round" stroke-linejoin="round" />
<path d="M 150.0 121.0 L 150.0 121.0 L 149.0 122.0 L 148.0 123.0 L 144.0 126.0 L 139.0 131.0 " stroke="black" fill="none" stroke-width="5.0" stroke-linecap="round" stroke-linejoin="round" />
<path d="M 110.0 140.0 L 110.0 140.0 L 110.0 140.0 L 110.0 141.0 L 110.0 150.0 L 110.0 165.0 L 112.0 180.0 L 113.0 186.0 L 114.0 187.0 L 115.0 186.0 " stroke="black" fill="none" stroke-width="5.0" stroke-linecap="round" stroke-linejoin="round" />
<path d="M 110.0 138.0 L 110.0 138.0 L 111.0 138.0 L 113.0 138.0 L 122.0 138.0 L 138.0 138.0 L 153.0 138.0 L 163.0 138.0 L 169.0 140.0 L 174.0 144.0 L 178.0 151.0 L 181.0 162.0 L 184.0 174.0 L 187.0 184.0 L 188.0 191.0 L 188.0 194.0 L 185.0 196.0 L 178.0 196.0 L 166.0 195.0 L 159.0 193.0 " stroke="black" fill="none" stroke-width="5.0" stroke-linecap="round" stroke-linejoin="round" />
<path d="M 131.0 140.0 L 131.0 140.0 L 131.0 140.0 L 131.0 143.0 L 131.0 154.0 L 133.0 173.0 L 134.0 186.0 L 136.0 188.0 " stroke="black" fill="none" stroke-width="5.0" stroke-linecap="round" stroke-linejoin="round" />
<path d="M 144.0 141.0 L 144.0 141.0 L 143.0 141.0 L 143.0 143.0 L 144.0 151.0 L 147.0 167.0 L 150.0 182.0 L 151.0 191.0 " stroke="black" fill="none" stroke-width="5.0" stroke-linecap="round" stroke-linejoin="round" />
</svg>