<svg xmlns="http://www.w3.org/2000/svg" width="300" height="300" viewBox="0 0 300 300">
<path d="M 135.0 116.0 L 135.0 116.0 L 135.0 116.0 L 135.0 117.0 L 134.0 118.0 L 131.0 123.0 L 126.0 128.0 L 121.0 133.0 L 117.0 136.0 L 115.0 137.0 L 114.0 139.0 L 114.0 142.0 L 115.0 148.0 L 116.0 159.0 L 116.0 171.0 L 117.0 180.0 L 118.0 183.0 L 119.0 183.0 " stroke="black" fill="none" stroke-width="5.0" stroke-linecap="round" stroke-linejoin="round" />
<path d="M 118.0 142.0 L 118.0 142.0 L 119.0 142.0 L 120.0 142.0 L 124.0 142.0 L 135.0 141.0 L 149.0 140.0 L 161.0 139.0 L 169.0 139.0 L 175.0 139.0 L 179.0 141.0 L 182.0 146.0 L 185.0 153.0 L 186.0 163.0 L 188.0 172.0 L 188.0 180.0 L 189.0 185.0 L 189.0 186.0 " stroke="black" fill="none" stroke-width="5.0" stroke-linecap="round" stroke-linejoin="round" />
<path d="M 139.0 147.0 L 139.0 147.0 L 139.0 147.0 L 140.0 149.0 L 141.0 156.0 L 142.0 163.0 " stroke="black" fill="none" stroke-width="5.0" stroke-linecap="round" stroke-linejoin="round" />
<path d="M 158.0 143.0 L 158.0 143.0 L 158.0 144.0 L 158.0 148.0 L 158.0 158.0 L 158.0 172.0 L 158.0 178.0 " stroke="black" fill="none" stroke-width="5.0" stroke-linecap="round" stroke-linejoin="round" />
<path d="M 93.0 191.0 L 93.0 191.0 L 93.0 191.0 L 96.0 191.0 L 110.0 191.0 L 136.0 191.0 L 163.0 191.0 L 185.0 190.0 L 197.0 190.0 L 202.0 190.0 L 206.0 190.0 L 207.0 191.0 L 207.0 191.0 L 207.0 191.0 " stroke="black" fill="none" stroke-width="5.0" stroke-linecap="round" stroke-linejoin="round" />
</svg>