<svg xmlns="http://www.w3.org/2000/svg" width="300" height="300" viewBox="0 0 300 300">
<path d="M 123.0 116.0 L 123.0 116.0 L 123.0 116.0 L 125.0 116.0 L 132.0 116.0 L 144.0 115.0 L 155.0 114.0 L 162.0 113.0 L 164.0 113.0 L 165.0 113.0 L 164.0 114.0 L 163.0 118.0 L 161.0 124.0 L 158.0 132.0 L 154.0 142.0 L 147.0 154.0 L 138.0 167.0 L 128.0 176.0 L 121.0 183.0 L 115.0 186.0 L 114.0 186.0 " stroke="black" fill="none" stroke-width="5.0" stroke-linecap="round" stroke-linejoin="round" />
<path d="M 119.0 138.0 L 119.0 138.0 L 120.0 138.0 L 122.0 138.0 L 128.0 146.0 L 142.0 161.0 L 158.0 174.0 L 170.0 179.0 L 179.0 182.0 L 183.0 183.0 L 184.0 185.0 " stroke="black" fill="none" stroke-width="5.0" stroke-linecap="round" stroke-linejoin="round" />
</svg>