<svg xmlns="http://www.w3.org/2000/svg" width="300" height="300" viewBox="0 0 300 300">
<path d="M 116.0 119.0 L 117.0 119.0 L 117.0 119.0 L 117.0 119.0 L 117.0 120.0 L 117.0 125.0 L 116.0 138.0 L 115.0 156.0 L 113.0 173.0 L 113.0 182.0 L 113.0 184.0 L 114.0 185.0 L 117.0 185.0 L 123.0 185.0 L 131.0 185.0 L 139.0 184.0 L 142.0 183.0 " stroke="black" fill="none" stroke-width="5.0" stroke-linecap="round" stroke-linejoin="round" />
<path d="M 115.0 154.0 L 115.0 154.0 L 115.0 154.0 L 117.0 154.0 L 122.0 154.0 L 134.0 154.0 " stroke="black" fill="none" stroke-width="5.0" stroke-linecap="round" stroke-linejoin="round" />
<path d="M 153.0 118.0 L 153.0 118.0 L 153.0 119.0 L 153.0 119.0 L 153.0 122.0 L 153.0 132.0 L 153.0 150.0 L 153.0 168.0 L 155.0 180.0 L 158.0 187.0 L 162.0 189.0 L 169.0 191.0 L 178.0 191.0 L 185.0 191.0 L 191.0 191.0 L 195.0 189.0 L 197.0 187.0 L 197.0 185.0 L 198.0 184.0 L 198.0 182.0 L 197.0 177.0 " stroke="black" fill="none" stroke-width="5.0" stroke-linecap="round" stroke-linejoin="round" />
<path d="M 156.0 146.0 L 156.0 146.0 L 156.0 147.0 L 158.0 148.0 L 167.0 148.0 L 183.0 145.0 L 189.0 143.0 " stroke="black" fill="none" stroke-width="5.0" stroke-linecap="round" stroke-linejoin="round" />
</svg>