<svg xmlns="http://www.w3.org/2000/svg" width="300" height="300" viewBox="0 0 300 300">
<path d="M 116.0 113.0 L 116.0 113.0 L 117.0 113.0 L 117.0 114.0 L 117.0 119.0 L 118.0 132.0 L 118.0 152.0 L 118.0 172.0 L 117.0 183.0 L 117.0 186.0 L 117.0 186.0 " stroke="black" fill="none" stroke-width="5.0" stroke-linecap="round" stroke-linejoin="round" />
<path d="M 124.0 112.0 L 125.0 112.0 L 126.0 113.0 L 129.0 113.0 L 134.0 114.0 L 143.0 114.0 L 153.0 114.0 L 164.0 114.0 L 172.0 114.0 L 176.0 114.0 L 177.0 114.0 L 177.0 114.0 L 177.0 114.0 L 177.0 115.0 L 178.0 118.0 L 181.0 125.0 L 184.0 136.0 L 188.0 151.0 L 193.0 165.0 L 196.0 178.0 L 198.0 188.0 L 199.0 195.0 L 199.0 200.0 L 196.0 203.0 L 192.0 204.0 L 183.0 205.0 L 171.0 201.0 " stroke="black" fill="none" stroke-width="5.0" stroke-linecap="round" stroke-linejoin="round" />
<path d="M 136.0 140.0 L 136.0 140.0 L 136.0 140.0 L 136.0 140.0 L 139.0 144.0 L 143.0 153.0 L 148.0 162.0 L 150.0 167.0 L 151.0 167.0 " stroke="black" fill="none" stroke-width="5.0" stroke-linecap="round" stroke-linejoin="round" />
<path d="M 150.0 144.0 L 150.0 144.0 L 150.0 144.0 L 149.0 144.0 L 148.0 145.0 L 144.0 149.0 L 138.0 156.0 L 137.0 158.0 " stroke="black" fill="none" stroke-width="5.0" stroke-linecap="round" stroke-linejoin="round" />
<path d="M 158.0 138.0 L 158.0 138.0 L 158.0 138.0 L 159.0 140.0 L 164.0 149.0 L 170.0 159.0 L 175.0 166.0 L 177.0 168.0 " stroke="black" fill="none" stroke-width="5.0" stroke-linecap="round" stroke-linejoin="round" />
<path d="M 178.0 144.0 L 178.0 144.0 L 177.0 144.0 L 176.0 145.0 L 174.0 147.0 L 169.0 155.0 L 162.0 167.0 " stroke="black" fill="none" stroke-width="5.0" stroke-linecap="round" stroke-linejoin="round" />
</svg>