<svg xmlns="http://www.w3.org/2000/svg" width="300" height="300" viewBox="0 0 300 300">
<path d="M 117.0 122.0 L 117.0 123.0 L 118.0 124.0 L 118.0 126.0 L 118.0 129.0 L 118.0 136.0 L 118.0 149.0 L 118.0 166.0 L 119.0 179.0 L 119.0 184.0 L 120.0 185.0 " stroke="black" fill="none" stroke-width="5.0" stroke-linecap="round" stroke-linejoin="round" />
<path d="M 126.0 119.0 L 126.0 119.0 L 126.0 119.0 L 130.0 118.0 L 138.0 116.0 L 148.0 116.0 L 157.0 116.0 L 163.0 117.0 L 168.0 119.0 L 171.0 121.0 L 175.0 126.0 L 177.0 135.0 L 178.0 148.0 L 179.0 160.0 L 180.0 169.0 L 180.0 173.0 L 181.0 175.0 L 181.0 175.0 " stroke="black" fill="none" stroke-width="5.0" stroke-linecap="round" stroke-linejoin="round" />
<path d="M 123.0 183.0 L 123.0 183.0 L 123.0 183.0 L 124.0 183.0 L 128.0 183.0 L 138.0 183.0 L 153.0 183.0 L 169.0 182.0 L 180.0 180.0 L 182.0 180.0 L 182.0 180.0 " stroke="black" fill="none" stroke-width="5.0" stroke-linecap="round" stroke-linejoin="round" />
</svg>