<svg xmlns="http://www.w3.org/2000/svg" width="300" height="300" viewBox="0 0 300 300">
<path d="M 138.0 95.0 L 138.0 95.0 L 138.0 95.0 L 138.0 95.0 L 138.0 96.0 L 137.0 97.0 L 135.0 98.0 L 133.0 101.0 L 130.0 103.0 L 129.0 106.0 L 128.0 108.0 L 128.0 112.0 L 129.0 117.0 L 130.0 123.0 L 131.0 129.0 L 132.0 134.0 L 133.0 137.0 L 134.0 137.0 " stroke="black" fill="none" stroke-width="5.0" stroke-linecap="round" stroke-linejoin="round" />
<path d="M 131.0 107.0 L 131.0 107.0 L 132.0 107.0 L 134.0 107.0 L 137.0 107.0 L 144.0 107.0 L 150.0 106.0 L 156.0 107.0 L 160.0 109.0 L 163.0 112.0 L 165.0 116.0 L 165.0 123.0 L 165.0 130.0 L 165.0 135.0 L 165.0 135.0 " stroke="black" fill="none" stroke-width="5.0" stroke-linecap="round" stroke-linejoin="round" />
<path d="M 137.0 117.0 L 137.0 117.0 L 137.0 118.0 L 139.0 118.0 L 143.0 118.0 L 150.0 118.0 L 155.0 117.0 L 158.0 117.0 L 159.0 117.0 " stroke="black" fill="none" stroke-width="5.0" stroke-linecap="round" stroke-linejoin="round" />
<path d="M 137.0 125.0 L 137.0 126.0 L 137.0 126.0 L 138.0 126.0 L 143.0 126.0 L 150.0 126.0 L 157.0 125.0 L 161.0 125.0 " stroke="black" fill="none" stroke-width="5.0" stroke-linecap="round" stroke-linejoin="round" />
<path d="M 135.0 138.0 L 135.0 138.0 L 137.0 138.0 L 141.0 138.0 L 150.0 138.0 L 159.0 137.0 L 161.0 137.0 " stroke="black" fill="none" stroke-width="5.0" stroke-linecap="round" stroke-linejoin="round" />
<path d="M 125.0 150.0 L 125.0 150.0 L 125.0 150.0 L 125.0 152.0 L 125.0 155.0 L 125.0 160.0 L 126.0 163.0 L 126.0 164.0 " stroke="black" fill="none" stroke-width="5.0" stroke-linecap="round" stroke-linejoin="round" />
<path d="M 127.0 149.0 L 127.0 149.0 L 128.0 149.0 L 129.0 149.0 L 134.0 149.0 L 143.0 149.0 L 153.0 148.0 L 163.0 148.0 L 169.0 148.0 L 172.0 150.0 L 173.0 153.0 L 173.0 158.0 L 173.0 163.0 L 172.0 166.0 L 172.0 167.0 " stroke="black" fill="none" stroke-width="5.0" stroke-linecap="round" stroke-linejoin="round" />
<path d="M 135.0 160.0 L 135.0 160.0 L 135.0 160.0 L 136.0 161.0 L 142.0 161.0 L 152.0 161.0 L 162.0 160.0 L 166.0 160.0 " stroke="black" fill="none" stroke-width="5.0" stroke-linecap="round" stroke-linejoin="round" />
<path d="M 146.0 151.0 L 146.0 151.0 L 146.0 151.0 L 146.0 154.0 L 146.0 161.0 L 147.0 166.0 " stroke="black" fill="none" stroke-width="5.0" stroke-linecap="round" stroke-linejoin="round" />
<path d="M 129.0 172.0 L 129.0 172.0 L 130.0 172.0 L 131.0 172.0 L 135.0 172.0 L 146.0 172.0 L 160.0 172.0 L 169.0 172.0 L 173.0 173.0 " stroke="black" fill="none" stroke-width="5.0" stroke-linecap="round" stroke-linejoin="round" />
<path d="M 124.0 183.0 L 124.0 183.0 L 124.0 183.0 L 126.0 183.0 L 134.0 183.0 L 147.0 183.0 L 160.0 184.0 L 169.0 185.0 L 171.0 186.0 L 171.0 186.0 " stroke="black" fill="none" stroke-width="5.0" stroke-linecap="round" stroke-linejoin="round" />
<path d="M 137.0 183.0 L 137.0 183.0 L 137.0 184.0 L 137.0 185.0 L 137.0 188.0 L 136.0 193.0 L 134.0 201.0 " stroke="black" fill="none" stroke-width="5.0" stroke-linecap="round" stroke-linejoin="round" />
<path d="M 158.0 185.0 L 158.0 185.0 L 158.0 185.0 L 157.0 185.0 L 158.0 189.0 L 159.0 198.0 L 161.0 206.0 L 162.0 211.0 " stroke="black" fill="none" stroke-width="5.0" stroke-linecap="round" stroke-linejoin="round" />
</svg>