<svg xmlns="http://www.w3.org/2000/svg" width="300" height="300" viewBox="0 0 300 300">
<path d="M 133.0 104.0 L 133.0 104.0 L 133.0 105.0 L 134.0 108.0 L 135.0 113.0 L 138.0 118.0 L 140.0 119.0 " stroke="black" fill="none" stroke-width="5.0" stroke-linecap="round" stroke-linejoin="round" />
<path d="M 162.0 104.0 L 162.0 104.0 L 162.0 106.0 L 162.0 108.0 L 161.0 111.0 L 158.0 116.0 L 155.0 120.0 " stroke="black" fill="none" stroke-width="5.0" stroke-linecap="round" stroke-linejoin="round" />
<path d="M 123.0 127.0 L 123.0 127.0 L 123.0 127.0 L 126.0 127.0 L 136.0 127.0 L 151.0 127.0 L 164.0 127.0 L 173.0 127.0 L 175.0 128.0 L 175.0 128.0 " stroke="black" fill="none" stroke-width="5.0" stroke-linecap="round" stroke-linejoin="round" />
<path d="M 129.0 145.0 L 129.0 145.0 L 129.0 145.0 L 131.0 144.0 L 137.0 144.0 L 149.0 144.0 L 160.0 145.0 L 168.0 145.0 L 169.0 146.0 L 169.0 146.0 " stroke="black" fill="none" stroke-width="5.0" stroke-linecap="round" stroke-linejoin="round" />
<path d="M 105.0 170.0 L 108.0 170.0 L 112.0 171.0 L 125.0 172.0 L 146.0 172.0 L 164.0 172.0 L 180.0 172.0 L 190.0 172.0 L 193.0 172.0 " stroke="black" fill="none" stroke-width="5.0" stroke-linecap="round" stroke-linejoin="round" />
<path d="M 148.0 130.0 L 148.0 130.0 L 148.0 130.0 L 148.0 130.0 L 148.0 130.0 L 148.0 137.0 L 149.0 150.0 L 151.0 170.0 L 152.0 187.0 L 153.0 198.0 L 153.0 202.0 L 154.0 203.0 L 154.0 202.0 L 154.0 200.0 " stroke="black" fill="none" stroke-width="5.0" stroke-linecap="round" stroke-linejoin="round" />
</svg>