<svg xmlns="http://www.w3.org/2000/svg" width="300" height="300" viewBox="0 0 300 300">
<path d="M 140.0 98.0 L 140.0 98.0 L 140.0 98.0 L 139.0 98.0 L 139.0 99.0 L 139.0 100.0 L 138.0 102.0 L 136.0 107.0 L 134.0 112.0 L 133.0 115.0 L 134.0 117.0 L 139.0 117.0 L 146.0 117.0 L 152.0 116.0 L 156.0 115.0 L 159.0 115.0 L 161.0 116.0 L 164.0 120.0 L 167.0 130.0 L 170.0 144.0 L 173.0 161.0 L 176.0 174.0 L 178.0 184.0 L 179.0 190.0 L 179.0 192.0 L 178.0 193.0 L 173.0 193.0 L 166.0 191.0 L 158.0 187.0 " stroke="black" fill="none" stroke-width="5.0" stroke-linecap="round" stroke-linejoin="round" />
<path d="M 136.0 120.0 L 136.0 120.0 L 135.0 120.0 L 135.0 120.0 L 135.0 125.0 L 134.0 138.0 L 134.0 152.0 L 134.0 158.0 L 135.0 158.0 " stroke="black" fill="none" stroke-width="5.0" stroke-linecap="round" stroke-linejoin="round" />
<path d="M 138.0 139.0 L 138.0 139.0 L 137.0 139.0 L 137.0 139.0 L 140.0 139.0 L 147.0 138.0 L 155.0 138.0 L 160.0 138.0 L 162.0 138.0 L 162.0 139.0 " stroke="black" fill="none" stroke-width="5.0" stroke-linecap="round" stroke-linejoin="round" />
<path d="M 139.0 150.0 L 139.0 151.0 L 141.0 151.0 L 144.0 151.0 L 152.0 151.0 L 159.0 151.0 L 164.0 150.0 " stroke="black" fill="none" stroke-width="5.0" stroke-linecap="round" stroke-linejoin="round" />
<path d="M 112.0 168.0 L 112.0 169.0 L 113.0 169.0 L 113.0 170.0 L 116.0 170.0 L 125.0 170.0 L 141.0 168.0 L 158.0 167.0 L 170.0 165.0 L 178.0 165.0 L 184.0 164.0 L 186.0 164.0 L 186.0 164.0 L 186.0 164.0 L 184.0 164.0 " stroke="black" fill="none" stroke-width="5.0" stroke-linecap="round" stroke-linejoin="round" />
<path d="M 194.0 141.0 L 194.0 141.0 L 194.0 141.0 L 194.0 142.0 L 193.0 142.0 L 190.0 146.0 L 181.0 153.0 L 163.0 167.0 L 142.0 184.0 L 126.0 194.0 L 122.0 196.0 " stroke="black" fill="none" stroke-width="5.0" stroke-linecap="round" stroke-linejoin="round" />
</svg>