<svg xmlns="http://www.w3.org/2000/svg" width="300" height="300" viewBox="0 0 300 300">
<path d="M 132.0 112.0 L 132.0 112.0 L 132.0 113.0 L 132.0 113.0 L 139.0 113.0 L 150.0 112.0 L 161.0 111.0 L 168.0 110.0 L 170.0 110.0 L 169.0 111.0 " stroke="black" fill="none" stroke-width="5.0" stroke-linecap="round" stroke-linejoin="round" />
<path d="M 150.0 117.0 L 150.0 118.0 L 150.0 118.0 L 150.0 119.0 L 149.0 121.0 L 146.0 125.0 L 141.0 132.0 " stroke="black" fill="none" stroke-width="5.0" stroke-linecap="round" stroke-linejoin="round" />
<path d="M 122.0 140.0 L 122.0 140.0 L 121.0 140.0 L 120.0 141.0 L 119.0 145.0 L 120.0 155.0 L 122.0 169.0 L 122.0 184.0 L 123.0 192.0 L 124.0 192.0 " stroke="black" fill="none" stroke-width="5.0" stroke-linecap="round" stroke-linejoin="round" />
<path d="M 124.0 137.0 L 124.0 137.0 L 124.0 137.0 L 125.0 137.0 L 130.0 137.0 L 141.0 137.0 L 154.0 137.0 L 165.0 138.0 L 172.0 138.0 L 176.0 138.0 L 178.0 140.0 L 180.0 144.0 L 182.0 151.0 L 183.0 162.0 L 185.0 187.0 L 186.0 192.0 L 185.0 193.0 L 185.0 193.0 " stroke="black" fill="none" stroke-width="5.0" stroke-linecap="round" stroke-linejoin="round" />
<path d="M 144.0 143.0 L 144.0 143.0 L 143.0 143.0 L 143.0 143.0 L 142.0 146.0 L 142.0 156.0 L 142.0 170.0 L 142.0 182.0 L 143.0 186.0 L 144.0 186.0 " stroke="black" fill="none" stroke-width="5.0" stroke-linecap="round" stroke-linejoin="round" />
<path d="M 160.0 142.0 L 160.0 143.0 L 160.0 145.0 L 160.0 153.0 L 161.0 166.0 L 163.0 180.0 L 163.0 186.0 L 163.0 188.0 " stroke="black" fill="none" stroke-width="5.0" stroke-linecap="round" stroke-linejoin="round" />
<path d="M 143.0 162.0 L 143.0 162.0 L 143.0 163.0 L 146.0 163.0 L 152.0 163.0 L 158.0 161.0 L 161.0 161.0 L 162.0 161.0 " stroke="black" fill="none" stroke-width="5.0" stroke-linecap="round" stroke-linejoin="round" />
<path d="M 147.0 175.0 L 148.0 176.0 L 149.0 177.0 L 154.0 177.0 L 159.0 177.0 L 163.0 176.0 " stroke="black" fill="none" stroke-width="5.0" stroke-linecap="round" stroke-linejoin="round" />
<path d="M 122.0 195.0 L 125.0 196.0 L 132.0 197.0 L 145.0 197.0 L 159.0 197.0 L 171.0 197.0 L 179.0 197.0 L 180.0 197.0 L 179.0 197.0 L 178.0 197.0 " stroke="black" fill="none" stroke-width="5.0" stroke-linecap="round" stroke-linejoin="round" />
</svg>