<svg xmlns="http://www.w3.org/2000/svg" width="300" height="300" viewBox="0 0 300 300">
<path d="M 136.0 108.0 L 136.0 108.0 L 136.0 108.0 L 135.0 108.0 L 133.0 110.0 L 126.0 116.0 L 116.0 127.0 L 111.0 132.0 " stroke="black" fill="none" stroke-width="5.0" stroke-linecap="round" stroke-linejoin="round" />
<path d="M 171.0 111.0 L 172.0 111.0 L 172.0 111.0 L 175.0 113.0 L 181.0 119.0 L 189.0 127.0 L 196.0 133.0 L 196.0 134.0 " stroke="black" fill="none" stroke-width="5.0" stroke-linecap="round" stroke-linejoin="round" />
<path d="M 178.0 122.0 L 178.0 122.0 L 177.0 124.0 L 175.0 127.0 L 173.0 135.0 L 167.0 146.0 L 158.0 158.0 L 145.0 171.0 L 131.0 181.0 L 120.0 188.0 L 112.0 191.0 L 111.0 191.0 " stroke="black" fill="none" stroke-width="5.0" stroke-linecap="round" stroke-linejoin="round" />
<path d="M 133.0 124.0 L 133.0 124.0 L 133.0 124.0 L 133.0 124.0 L 133.0 127.0 L 137.0 138.0 L 149.0 158.0 L 167.0 183.0 L 183.0 198.0 L 193.0 204.0 L 198.0 207.0 L 198.0 208.0 " stroke="black" fill="none" stroke-width="5.0" stroke-linecap="round" stroke-linejoin="round" />
</svg>