<svg xmlns="http://www.w3.org/2000/svg" width="300" height="300" viewBox="0 0 300 300">
<path d="M 163.0 97.0 L 163.0 97.0 L 163.0 98.0 L 163.0 99.0 L 161.0 101.0 L 157.0 105.0 L 151.0 110.0 L 143.0 115.0 L 134.0 118.0 L 129.0 120.0 L 127.0 121.0 L 128.0 122.0 L 129.0 126.0 L 130.0 133.0 L 130.0 144.0 L 128.0 161.0 L 125.0 177.0 L 123.0 186.0 L 121.0 190.0 L 121.0 190.0 " stroke="black" fill="none" stroke-width="5.0" stroke-linecap="round" stroke-linejoin="round" />
<path d="M 148.0 129.0 L 148.0 129.0 L 148.0 129.0 L 148.0 129.0 L 147.0 132.0 L 147.0 139.0 L 145.0 152.0 L 145.0 165.0 L 145.0 175.0 L 147.0 181.0 L 151.0 182.0 L 156.0 180.0 L 162.0 174.0 L 164.0 171.0 " stroke="black" fill="none" stroke-width="5.0" stroke-linecap="round" stroke-linejoin="round" />
<path d="M 161.0 159.0 L 161.0 160.0 L 161.0 161.0 L 162.0 165.0 L 167.0 172.0 L 173.0 181.0 L 177.0 186.0 " stroke="black" fill="none" stroke-width="5.0" stroke-linecap="round" stroke-linejoin="round" />
<path d="M 166.0 123.0 L 167.0 123.0 L 168.0 125.0 L 170.0 131.0 L 178.0 149.0 L 188.0 172.0 L 195.0 187.0 L 198.0 191.0 L 199.0 193.0 " stroke="black" fill="none" stroke-width="5.0" stroke-linecap="round" stroke-linejoin="round" />
</svg>