<svg xmlns="http://www.w3.org/2000/svg" width="300" height="300" viewBox="0 0 300 300">
<path d="M 132.0 107.0 L 132.0 107.0 L 132.0 107.0 L 133.0 108.0 L 140.0 108.0 L 150.0 107.0 L 159.0 105.0 L 163.0 105.0 L 164.0 105.0 " stroke="black" fill="none" stroke-width="5.0" stroke-linecap="round" stroke-linejoin="round" />
<path d="M 134.0 113.0 L 134.0 113.0 L 134.0 113.0 L 133.0 114.0 L 132.0 117.0 L 131.0 126.0 L 130.0 139.0 L 130.0 150.0 L 131.0 155.0 L 131.0 156.0 " stroke="black" fill="none" stroke-width="5.0" stroke-linecap="round" stroke-linejoin="round" />
<path d="M 133.0 127.0 L 133.0 127.0 L 133.0 127.0 L 133.0 127.0 L 134.0 128.0 L 141.0 128.0 L 150.0 128.0 L 158.0 128.0 L 161.0 128.0 L 162.0 128.0 " stroke="black" fill="none" stroke-width="5.0" stroke-linecap="round" stroke-linejoin="round" />
<path d="M 134.0 141.0 L 134.0 141.0 L 134.0 141.0 L 135.0 141.0 L 141.0 141.0 L 150.0 141.0 L 157.0 141.0 L 160.0 142.0 " stroke="black" fill="none" stroke-width="5.0" stroke-linecap="round" stroke-linejoin="round" />
<path d="M 113.0 159.0 L 114.0 159.0 L 116.0 160.0 L 121.0 160.0 L 132.0 160.0 L 148.0 159.0 L 162.0 157.0 L 170.0 156.0 L 172.0 156.0 L 172.0 156.0 " stroke="black" fill="none" stroke-width="5.0" stroke-linecap="round" stroke-linejoin="round" />
<path d="M 128.0 160.0 L 128.0 160.0 L 128.0 160.0 L 128.0 160.0 L 127.0 164.0 L 126.0 173.0 L 126.0 184.0 L 128.0 192.0 L 134.0 194.0 L 141.0 192.0 " stroke="black" fill="none" stroke-width="5.0" stroke-linecap="round" stroke-linejoin="round" />
<path d="M 176.0 164.0 L 176.0 164.0 L 174.0 165.0 L 172.0 167.0 L 169.0 169.0 L 165.0 173.0 L 160.0 179.0 L 157.0 181.0 " stroke="black" fill="none" stroke-width="5.0" stroke-linecap="round" stroke-linejoin="round" />
<path d="M 125.0 161.0 L 125.0 161.0 L 125.0 161.0 L 126.0 163.0 L 133.0 168.0 L 150.0 180.0 L 170.0 189.0 L 182.0 194.0 L 187.0 196.0 " stroke="black" fill="none" stroke-width="5.0" stroke-linecap="round" stroke-linejoin="round" />
</svg>