<svg xmlns="http://www.w3.org/2000/svg" width="300" height="300" viewBox="0 0 300 300">
<path d="M 139.0 97.0 L 139.0 97.0 L 139.0 97.0 L 138.0 97.0 L 138.0 98.0 L 136.0 99.0 L 134.0 102.0 L 131.0 105.0 L 128.0 108.0 L 126.0 110.0 L 125.0 112.0 L 125.0 117.0 L 126.0 124.0 L 127.0 133.0 L 128.0 140.0 L 129.0 143.0 L 130.0 144.0 " stroke="black" fill="none" stroke-width="5.0" stroke-linecap="round" stroke-linejoin="round" />
<path d="M 131.0 113.0 L 131.0 113.0 L 131.0 113.0 L 132.0 112.0 L 137.0 111.0 L 145.0 110.0 L 154.0 109.0 L 159.0 109.0 L 162.0 110.0 L 164.0 112.0 L 165.0 118.0 L 165.0 126.0 L 165.0 136.0 L 165.0 143.0 L 165.0 147.0 L 165.0 147.0 " stroke="black" fill="none" stroke-width="5.0" stroke-linecap="round" stroke-linejoin="round" />
<path d="M 133.0 124.0 L 133.0 124.0 L 133.0 124.0 L 133.0 125.0 L 139.0 125.0 L 149.0 125.0 L 157.0 124.0 L 161.0 124.0 L 161.0 124.0 " stroke="black" fill="none" stroke-width="5.0" stroke-linecap="round" stroke-linejoin="round" />
<path d="M 134.0 144.0 L 134.0 144.0 L 133.0 145.0 L 136.0 145.0 L 146.0 145.0 L 158.0 141.0 L 163.0 140.0 " stroke="black" fill="none" stroke-width="5.0" stroke-linecap="round" stroke-linejoin="round" />
<path d="M 145.0 112.0 L 145.0 112.0 L 144.0 112.0 L 144.0 112.0 L 143.0 118.0 L 141.0 132.0 L 136.0 150.0 L 128.0 167.0 L 119.0 178.0 L 114.0 181.0 " stroke="black" fill="none" stroke-width="5.0" stroke-linecap="round" stroke-linejoin="round" />
<path d="M 144.0 149.0 L 144.0 149.0 L 143.0 149.0 L 143.0 149.0 L 143.0 151.0 L 144.0 156.0 L 145.0 165.0 L 147.0 176.0 L 149.0 184.0 L 154.0 188.0 L 163.0 189.0 L 175.0 189.0 L 185.0 189.0 L 192.0 189.0 L 196.0 189.0 L 200.0 187.0 L 202.0 184.0 L 202.0 180.0 L 202.0 176.0 L 200.0 169.0 L 199.0 168.0 " stroke="black" fill="none" stroke-width="5.0" stroke-linecap="round" stroke-linejoin="round" />
<path d="M 170.0 158.0 L 170.0 158.0 L 170.0 158.0 L 169.0 158.0 L 169.0 158.0 L 168.0 159.0 L 167.0 161.0 L 165.0 167.0 L 164.0 173.0 L 164.0 177.0 L 170.0 178.0 L 176.0 175.0 L 182.0 173.0 L 183.0 173.0 " stroke="black" fill="none" stroke-width="5.0" stroke-linecap="round" stroke-linejoin="round" />
<path d="M 183.0 167.0 L 183.0 168.0 L 184.0 169.0 L 187.0 173.0 L 190.0 178.0 L 191.0 181.0 " stroke="black" fill="none" stroke-width="5.0" stroke-linecap="round" stroke-linejoin="round" />
</svg>