<svg xmlns="http://www.w3.org/2000/svg" width="300" height="300" viewBox="0 0 300 300">
<path d="M 119.0 113.0 L 119.0 113.0 L 119.0 113.0 L 119.0 113.0 L 119.0 113.0 L 121.0 113.0 L 127.0 112.0 L 138.0 111.0 L 150.0 109.0 L 158.0 109.0 L 163.0 110.0 L 167.0 112.0 L 169.0 117.0 L 170.0 124.0 L 170.0 132.0 L 171.0 139.0 L 171.0 143.0 L 171.0 144.0 " stroke="black" fill="none" stroke-width="5.0" stroke-linecap="round" stroke-linejoin="round" />
<path d="M 119.0 151.0 L 119.0 151.0 L 120.0 151.0 L 122.0 150.0 L 131.0 149.0 L 145.0 147.0 L 158.0 146.0 L 165.0 146.0 L 168.0 146.0 " stroke="black" fill="none" stroke-width="5.0" stroke-linecap="round" stroke-linejoin="round" />
<path d="M 116.0 160.0 L 116.0 160.0 L 116.0 161.0 L 115.0 163.0 L 115.0 169.0 L 115.0 179.0 L 116.0 189.0 L 118.0 196.0 L 122.0 200.0 L 128.0 200.0 L 138.0 200.0 L 150.0 200.0 L 160.0 201.0 L 172.0 203.0 L 183.0 203.0 L 190.0 200.0 L 193.0 197.0 L 194.0 193.0 L 194.0 187.0 L 194.0 176.0 L 193.0 173.0 " stroke="black" fill="none" stroke-width="5.0" stroke-linecap="round" stroke-linejoin="round" />
</svg>