<svg xmlns="http://www.w3.org/2000/svg" width="300" height="300" viewBox="0 0 300 300">
<path d="M 111.0 106.0 L 111.0 106.0 L 111.0 106.0 L 111.0 106.0 L 114.0 107.0 L 123.0 107.0 L 136.0 108.0 L 149.0 108.0 L 157.0 108.0 L 162.0 108.0 L 166.0 108.0 L 168.0 108.0 L 170.0 108.0 L 172.0 109.0 L 173.0 109.0 L 174.0 109.0 L 175.0 110.0 L 176.0 110.0 L 176.0 112.0 L 177.0 115.0 L 177.0 119.0 L 177.0 124.0 L 178.0 129.0 L 178.0 131.0 L 178.0 132.0 " stroke="black" fill="none" stroke-width="5.0" stroke-linecap="round" stroke-linejoin="round" />
<path d="M 111.0 108.0 L 111.0 108.0 L 111.0 108.0 L 111.0 109.0 L 111.0 113.0 L 112.0 121.0 L 113.0 127.0 " stroke="black" fill="none" stroke-width="5.0" stroke-linecap="round" stroke-linejoin="round" />
<path d="M 112.0 129.0 L 112.0 129.0 L 112.0 130.0 L 112.0 130.0 L 113.0 131.0 L 119.0 131.0 L 126.0 131.0 " stroke="black" fill="none" stroke-width="5.0" stroke-linecap="round" stroke-linejoin="round" />
<path d="M 158.0 134.0 L 158.0 134.0 L 158.0 134.0 L 159.0 134.0 L 160.0 134.0 L 163.0 134.0 L 169.0 134.0 L 172.0 134.0 " stroke="black" fill="none" stroke-width="5.0" stroke-linecap="round" stroke-linejoin="round" />
<path d="M 155.0 117.0 L 155.0 117.0 L 155.0 117.0 L 155.0 117.0 L 155.0 117.0 L 155.0 117.0 L 155.0 122.0 L 155.0 136.0 L 155.0 156.0 L 155.0 170.0 L 156.0 174.0 " stroke="black" fill="none" stroke-width="5.0" stroke-linecap="round" stroke-linejoin="round" />
<path d="M 134.0 117.0 L 134.0 117.0 L 134.0 117.0 L 133.0 118.0 L 133.0 123.0 L 134.0 136.0 L 136.0 153.0 L 137.0 169.0 L 137.0 183.0 L 139.0 191.0 L 142.0 196.0 L 148.0 200.0 L 155.0 202.0 L 162.0 203.0 L 171.0 204.0 L 181.0 205.0 L 188.0 206.0 L 193.0 202.0 L 194.0 198.0 L 194.0 192.0 L 194.0 183.0 " stroke="black" fill="none" stroke-width="5.0" stroke-linecap="round" stroke-linejoin="round" />
<path d="M 154.0 147.0 L 155.0 147.0 L 155.0 147.0 L 156.0 146.0 L 158.0 146.0 L 161.0 146.0 L 166.0 146.0 L 170.0 146.0 L 172.0 146.0 L 175.0 148.0 L 177.0 154.0 L 178.0 162.0 L 178.0 170.0 L 179.0 176.0 L 179.0 178.0 L 179.0 177.0 " stroke="black" fill="none" stroke-width="5.0" stroke-linecap="round" stroke-linejoin="round" />
<path d="M 158.0 162.0 L 158.0 162.0 L 159.0 162.0 L 160.0 162.0 L 162.0 162.0 L 166.0 162.0 L 171.0 162.0 L 176.0 163.0 " stroke="black" fill="none" stroke-width="5.0" stroke-linecap="round" stroke-linejoin="round" />
<path d="M 157.0 178.0 L 158.0 178.0 L 159.0 179.0 L 162.0 180.0 L 167.0 181.0 L 172.0 180.0 " stroke="black" fill="none" stroke-width="5.0" stroke-linecap="round" stroke-linejoin="round" />
<path d="M 115.0 148.0 L 117.0 148.0 L 119.0 148.0 L 122.0 148.0 L 129.0 148.0 L 135.0 148.0 L 138.0 148.0 " stroke="black" fill="none" stroke-width="5.0" stroke-linecap="round" stroke-linejoin="round" />
<path d="M 113.0 151.0 L 113.0 151.0 L 113.0 152.0 L 113.0 152.0 L 113.0 155.0 L 113.0 160.0 L 113.0 167.0 L 113.0 174.0 L 116.0 178.0 L 122.0 180.0 L 129.0 181.0 L 135.0 181.0 " stroke="black" fill="none" stroke-width="5.0" stroke-linecap="round" stroke-linejoin="round" />
<path d="M 112.0 163.0 L 113.0 163.0 L 114.0 163.0 L 118.0 164.0 L 128.0 164.0 L 134.0 164.0 " stroke="black" fill="none" stroke-width="5.0" stroke-linecap="round" stroke-linejoin="round" />
</svg>