<svg xmlns="http://www.w3.org/2000/svg" width="300" height="300" viewBox="0 0 300 300">
<path d="M 130.0 114.0 L 129.0 114.0 L 129.0 114.0 L 128.0 114.0 L 128.0 115.0 L 128.0 120.0 L 128.0 132.0 L 128.0 149.0 L 128.0 161.0 L 128.0 165.0 L 128.0 165.0 " stroke="black" fill="none" stroke-width="5.0" stroke-linecap="round" stroke-linejoin="round" />
<path d="M 138.0 110.0 L 138.0 110.0 L 138.0 110.0 L 138.0 110.0 L 140.0 110.0 L 145.0 109.0 L 152.0 109.0 L 159.0 109.0 L 165.0 109.0 L 169.0 110.0 L 172.0 113.0 L 175.0 121.0 L 177.0 133.0 L 179.0 149.0 L 180.0 162.0 L 181.0 169.0 L 182.0 173.0 L 181.0 173.0 L 180.0 173.0 " stroke="black" fill="none" stroke-width="5.0" stroke-linecap="round" stroke-linejoin="round" />
<path d="M 137.0 131.0 L 138.0 131.0 L 139.0 131.0 L 143.0 130.0 L 148.0 130.0 L 157.0 130.0 L 165.0 132.0 L 171.0 133.0 L 174.0 134.0 L 174.0 134.0 " stroke="black" fill="none" stroke-width="5.0" stroke-linecap="round" stroke-linejoin="round" />
<path d="M 137.0 151.0 L 137.0 151.0 L 138.0 150.0 L 141.0 150.0 L 147.0 149.0 L 156.0 149.0 L 166.0 149.0 L 171.0 150.0 L 172.0 151.0 L 171.0 152.0 " stroke="black" fill="none" stroke-width="5.0" stroke-linecap="round" stroke-linejoin="round" />
<path d="M 128.0 171.0 L 128.0 172.0 L 130.0 173.0 L 137.0 174.0 L 150.0 173.0 L 164.0 172.0 L 172.0 172.0 L 174.0 172.0 " stroke="black" fill="none" stroke-width="5.0" stroke-linecap="round" stroke-linejoin="round" />
<path d="M 146.0 176.0 L 146.0 176.0 L 146.0 176.0 L 146.0 176.0 L 146.0 176.0 L 146.0 179.0 L 143.0 187.0 L 139.0 195.0 L 138.0 198.0 " stroke="black" fill="none" stroke-width="5.0" stroke-linecap="round" stroke-linejoin="round" />
<path d="M 166.0 180.0 L 166.0 180.0 L 167.0 180.0 L 169.0 181.0 L 173.0 186.0 L 178.0 194.0 L 182.0 202.0 L 183.0 203.0 " stroke="black" fill="none" stroke-width="5.0" stroke-linecap="round" stroke-linejoin="round" />
</svg>