<svg xmlns="http://www.w3.org/2000/svg" width="300" height="300" viewBox="0 0 300 300">
<path d="M 142.0 101.0 L 142.0 101.0 L 142.0 101.0 L 142.0 101.0 L 142.0 101.0 L 144.0 106.0 L 148.0 113.0 L 149.0 117.0 " stroke="black" fill="none" stroke-width="5.0" stroke-linecap="round" stroke-linejoin="round" />
<path d="M 107.0 126.0 L 108.0 126.0 L 110.0 127.0 L 113.0 127.0 L 121.0 126.0 L 135.0 125.0 L 151.0 124.0 L 164.0 124.0 L 171.0 124.0 L 174.0 124.0 " stroke="black" fill="none" stroke-width="5.0" stroke-linecap="round" stroke-linejoin="round" />
<path d="M 128.0 133.0 L 128.0 133.0 L 128.0 133.0 L 128.0 133.0 L 128.0 135.0 L 125.0 140.0 L 119.0 149.0 L 109.0 162.0 L 98.0 174.0 L 91.0 180.0 L 91.0 180.0 " stroke="black" fill="none" stroke-width="5.0" stroke-linecap="round" stroke-linejoin="round" />
<path d="M 119.0 155.0 L 119.0 155.0 L 118.0 155.0 L 118.0 156.0 L 117.0 157.0 L 117.0 163.0 L 116.0 175.0 L 116.0 189.0 L 117.0 198.0 L 123.0 199.0 L 134.0 194.0 " stroke="black" fill="none" stroke-width="5.0" stroke-linecap="round" stroke-linejoin="round" />
<path d="M 177.0 145.0 L 177.0 145.0 L 176.0 146.0 L 176.0 147.0 L 174.0 149.0 L 171.0 153.0 L 164.0 160.0 L 158.0 165.0 " stroke="black" fill="none" stroke-width="5.0" stroke-linecap="round" stroke-linejoin="round" />
<path d="M 144.0 138.0 L 143.0 138.0 L 142.0 137.0 L 141.0 137.0 L 143.0 140.0 L 148.0 149.0 L 158.0 165.0 L 170.0 184.0 L 179.0 197.0 L 184.0 203.0 L 185.0 205.0 L 185.0 204.0 L 185.0 204.0 " stroke="black" fill="none" stroke-width="5.0" stroke-linecap="round" stroke-linejoin="round" />
</svg>