<svg xmlns="http://www.w3.org/2000/svg" width="300" height="300" viewBox="0 0 300 300">
<path d="M 129.0 107.0 L 130.0 107.0 L 130.0 107.0 L 132.0 107.0 L 137.0 107.0 L 144.0 107.0 L 151.0 106.0 L 159.0 105.0 L 165.0 104.0 L 170.0 104.0 L 172.0 105.0 L 173.0 107.0 L 174.0 109.0 L 175.0 116.0 L 178.0 130.0 L 180.0 147.0 L 183.0 163.0 L 185.0 175.0 L 185.0 184.0 L 185.0 191.0 L 184.0 196.0 L 179.0 199.0 L 173.0 200.0 L 164.0 198.0 L 159.0 195.0 " stroke="black" fill="none" stroke-width="5.0" stroke-linecap="round" stroke-linejoin="round" />
<path d="M 131.0 113.0 L 131.0 113.0 L 131.0 112.0 L 131.0 112.0 L 131.0 113.0 L 131.0 119.0 L 130.0 132.0 L 128.0 146.0 L 126.0 159.0 L 125.0 166.0 L 128.0 169.0 L 134.0 170.0 L 145.0 171.0 L 158.0 171.0 L 172.0 171.0 L 187.0 170.0 L 196.0 170.0 L 199.0 169.0 L 199.0 168.0 " stroke="black" fill="none" stroke-width="5.0" stroke-linecap="round" stroke-linejoin="round" />
<path d="M 109.0 139.0 L 109.0 139.0 L 109.0 139.0 L 111.0 139.0 L 124.0 139.0 L 149.0 138.0 L 170.0 137.0 L 185.0 135.0 L 190.0 135.0 L 190.0 135.0 " stroke="black" fill="none" stroke-width="5.0" stroke-linecap="round" stroke-linejoin="round" />
<path d="M 150.0 114.0 L 150.0 114.0 L 150.0 114.0 L 150.0 114.0 L 150.0 114.0 L 151.0 122.0 L 150.0 141.0 L 145.0 165.0 L 135.0 185.0 L 128.0 193.0 " stroke="black" fill="none" stroke-width="5.0" stroke-linecap="round" stroke-linejoin="round" />
</svg>