<svg xmlns="http://www.w3.org/2000/svg" width="300" height="300" viewBox="0 0 300 300">
<path d="M 157.0 100.0 L 157.0 100.0 L 157.0 100.0 L 156.0 101.0 L 153.0 104.0 L 144.0 111.0 L 132.0 119.0 L 127.0 121.0 " stroke="black" fill="none" stroke-width="5.0" stroke-linecap="round" stroke-linejoin="round" />
<path d="M 143.0 116.0 L 143.0 116.0 L 143.0 117.0 L 143.0 120.0 L 145.0 123.0 L 147.0 126.0 " stroke="black" fill="none" stroke-width="5.0" stroke-linecap="round" stroke-linejoin="round" />
<path d="M 155.0 113.0 L 155.0 114.0 L 155.0 116.0 L 156.0 119.0 L 156.0 121.0 " stroke="black" fill="none" stroke-width="5.0" stroke-linecap="round" stroke-linejoin="round" />
<path d="M 172.0 113.0 L 172.0 113.0 L 172.0 113.0 L 172.0 114.0 L 171.0 115.0 L 165.0 118.0 L 155.0 126.0 L 139.0 138.0 L 124.0 148.0 L 119.0 150.0 " stroke="black" fill="none" stroke-width="5.0" stroke-linecap="round" stroke-linejoin="round" />
<path d="M 154.0 131.0 L 154.0 131.0 L 154.0 131.0 L 154.0 131.0 L 155.0 132.0 L 157.0 139.0 L 162.0 153.0 L 166.0 169.0 L 167.0 182.0 L 167.0 189.0 L 165.0 192.0 L 160.0 193.0 L 153.0 190.0 L 149.0 187.0 " stroke="black" fill="none" stroke-width="5.0" stroke-linecap="round" stroke-linejoin="round" />
<path d="M 155.0 143.0 L 155.0 143.0 L 156.0 143.0 L 157.0 143.0 L 157.0 143.0 L 157.0 144.0 L 155.0 147.0 L 150.0 152.0 L 142.0 158.0 L 132.0 165.0 L 127.0 167.0 " stroke="black" fill="none" stroke-width="5.0" stroke-linecap="round" stroke-linejoin="round" />
<path d="M 163.0 157.0 L 163.0 157.0 L 163.0 157.0 L 163.0 158.0 L 162.0 159.0 L 159.0 163.0 L 150.0 171.0 L 136.0 182.0 L 118.0 191.0 L 114.0 192.0 " stroke="black" fill="none" stroke-width="5.0" stroke-linecap="round" stroke-linejoin="round" />
</svg>