<svg xmlns="http://www.w3.org/2000/svg" width="300" height="300" viewBox="0 0 300 300">
<path d="M 137.0 97.0 L 137.0 97.0 L 137.0 97.0 L 136.0 97.0 L 136.0 100.0 L 136.0 110.0 L 136.0 124.0 L 136.0 135.0 L 137.0 138.0 L 137.0 138.0 " stroke="black" fill="none" stroke-width="5.0" stroke-linecap="round" stroke-linejoin="round" />
<path d="M 140.0 99.0 L 140.0 99.0 L 139.0 99.0 L 139.0 99.0 L 140.0 99.0 L 144.0 99.0 L 149.0 99.0 L 155.0 99.0 L 159.0 100.0 L 162.0 102.0 L 164.0 108.0 L 166.0 116.0 L 168.0 125.0 L 169.0 132.0 L 170.0 136.0 L 170.0 137.0 L 170.0 137.0 " stroke="black" fill="none" stroke-width="5.0" stroke-linecap="round" stroke-linejoin="round" />
<path d="M 140.0 112.0 L 140.0 112.0 L 139.0 112.0 L 138.0 112.0 L 139.0 112.0 L 146.0 113.0 L 154.0 113.0 L 161.0 113.0 L 165.0 114.0 L 166.0 114.0 " stroke="black" fill="none" stroke-width="5.0" stroke-linecap="round" stroke-linejoin="round" />
<path d="M 139.0 126.0 L 140.0 128.0 L 141.0 129.0 L 145.0 129.0 L 153.0 129.0 L 161.0 128.0 L 165.0 128.0 " stroke="black" fill="none" stroke-width="5.0" stroke-linecap="round" stroke-linejoin="round" />
<path d="M 137.0 141.0 L 137.0 141.0 L 139.0 141.0 L 144.0 142.0 L 152.0 142.0 L 158.0 142.0 " stroke="black" fill="none" stroke-width="5.0" stroke-linecap="round" stroke-linejoin="round" />
<path d="M 118.0 136.0 L 118.0 136.0 L 118.0 138.0 L 118.0 140.0 L 118.0 143.0 L 118.0 147.0 L 118.0 152.0 L 118.0 155.0 L 121.0 157.0 L 127.0 158.0 L 134.0 158.0 L 140.0 158.0 L 144.0 158.0 L 146.0 158.0 L 146.0 158.0 L 146.0 158.0 L 146.0 158.0 L 145.0 158.0 L 145.0 158.0 L 145.0 158.0 L 145.0 158.0 L 145.0 159.0 L 145.0 163.0 L 145.0 171.0 L 147.0 183.0 L 148.0 194.0 L 151.0 204.0 L 152.0 209.0 L 153.0 211.0 L 153.0 211.0 L 152.0 210.0 " stroke="black" fill="none" stroke-width="5.0" stroke-linecap="round" stroke-linejoin="round" />
<path d="M 118.0 175.0 L 118.0 175.0 L 118.0 175.0 L 118.0 175.0 L 120.0 175.0 L 126.0 175.0 L 135.0 175.0 L 141.0 175.0 " stroke="black" fill="none" stroke-width="5.0" stroke-linecap="round" stroke-linejoin="round" />
<path d="M 118.0 179.0 L 118.0 180.0 L 118.0 181.0 L 118.0 185.0 L 117.0 194.0 L 114.0 203.0 L 114.0 204.0 " stroke="black" fill="none" stroke-width="5.0" stroke-linecap="round" stroke-linejoin="round" />
<path d="M 186.0 131.0 L 186.0 131.0 L 185.0 131.0 L 185.0 131.0 L 185.0 133.0 L 185.0 137.0 L 186.0 144.0 L 187.0 150.0 L 188.0 153.0 L 188.0 155.0 " stroke="black" fill="none" stroke-width="5.0" stroke-linecap="round" stroke-linejoin="round" />
<path d="M 162.0 157.0 L 162.0 157.0 L 162.0 157.0 L 162.0 158.0 L 162.0 158.0 L 167.0 158.0 L 175.0 158.0 L 182.0 157.0 L 187.0 156.0 L 188.0 156.0 " stroke="black" fill="none" stroke-width="5.0" stroke-linecap="round" stroke-linejoin="round" />
<path d="M 163.0 160.0 L 163.0 160.0 L 163.0 160.0 L 163.0 161.0 L 163.0 165.0 L 165.0 176.0 L 166.0 191.0 L 167.0 203.0 L 168.0 208.0 L 168.0 208.0 " stroke="black" fill="none" stroke-width="5.0" stroke-linecap="round" stroke-linejoin="round" />
<path d="M 167.0 174.0 L 167.0 174.0 L 167.0 174.0 L 167.0 174.0 L 168.0 174.0 L 171.0 175.0 L 178.0 175.0 L 184.0 175.0 L 188.0 175.0 L 190.0 175.0 " stroke="black" fill="none" stroke-width="5.0" stroke-linecap="round" stroke-linejoin="round" />
<path d="M 189.0 175.0 L 189.0 175.0 L 189.0 176.0 L 189.0 178.0 L 191.0 183.0 L 195.0 193.0 L 198.0 205.0 L 202.0 213.0 L 203.0 216.0 L 203.0 216.0 L 203.0 215.0 " stroke="black" fill="none" stroke-width="5.0" stroke-linecap="round" stroke-linejoin="round" />
</svg>