<svg xmlns="http://www.w3.org/2000/svg" width="300" height="300" viewBox="0 0 300 300">
<path d="M 136.0 116.0 L 136.0 116.0 L 137.0 116.0 L 137.0 116.0 L 140.0 117.0 L 146.0 117.0 L 154.0 116.0 L 161.0 115.0 L 164.0 115.0 L 165.0 115.0 " stroke="black" fill="none" stroke-width="5.0" stroke-linecap="round" stroke-linejoin="round" />
<path d="M 118.0 141.0 L 120.0 140.0 L 123.0 140.0 L 130.0 139.0 L 142.0 137.0 L 156.0 137.0 L 170.0 137.0 L 182.0 137.0 L 189.0 137.0 L 192.0 137.0 L 192.0 137.0 " stroke="black" fill="none" stroke-width="5.0" stroke-linecap="round" stroke-linejoin="round" />
<path d="M 153.0 100.0 L 153.0 100.0 L 153.0 100.0 L 153.0 103.0 L 153.0 116.0 L 154.0 136.0 L 155.0 155.0 L 155.0 166.0 L 155.0 172.0 L 156.0 175.0 L 156.0 175.0 L 156.0 174.0 " stroke="black" fill="none" stroke-width="5.0" stroke-linecap="round" stroke-linejoin="round" />
<path d="M 155.0 154.0 L 155.0 154.0 L 156.0 154.0 L 156.0 154.0 L 158.0 154.0 L 163.0 155.0 L 170.0 155.0 L 176.0 155.0 L 179.0 155.0 L 180.0 156.0 " stroke="black" fill="none" stroke-width="5.0" stroke-linecap="round" stroke-linejoin="round" />
<path d="M 134.0 153.0 L 133.0 153.0 L 130.0 156.0 L 128.0 163.0 L 125.0 172.0 L 121.0 180.0 L 120.0 183.0 " stroke="black" fill="none" stroke-width="5.0" stroke-linecap="round" stroke-linejoin="round" />
<path d="M 128.0 172.0 L 128.0 172.0 L 129.0 172.0 L 131.0 172.0 L 138.0 174.0 L 150.0 179.0 L 165.0 185.0 L 177.0 188.0 L 186.0 190.0 L 192.0 191.0 L 194.0 191.0 L 194.0 191.0 L 194.0 191.0 L 194.0 190.0 " stroke="black" fill="none" stroke-width="5.0" stroke-linecap="round" stroke-linejoin="round" />
</svg>