<svg xmlns="http://www.w3.org/2000/svg" width="300" height="300" viewBox="0 0 300 300">
<path d="M 122.0 116.0 L 122.0 116.0 L 122.0 116.0 L 122.0 116.0 L 123.0 116.0 L 131.0 115.0 L 146.0 115.0 L 161.0 114.0 L 171.0 114.0 L 176.0 114.0 L 178.0 115.0 L 178.0 115.0 L 178.0 115.0 L 178.0 115.0 " stroke="black" fill="none" stroke-width="5.0" stroke-linecap="round" stroke-linejoin="round" />
<path d="M 120.0 122.0 L 120.0 122.0 L 121.0 122.0 L 121.0 122.0 L 121.0 122.0 L 121.0 122.0 L 121.0 122.0 L 121.0 129.0 L 119.0 142.0 L 117.0 160.0 L 115.0 176.0 L 114.0 188.0 L 114.0 194.0 L 114.0 197.0 L 116.0 198.0 L 117.0 200.0 L 120.0 200.0 L 123.0 201.0 L 130.0 201.0 L 140.0 202.0 L 152.0 203.0 L 162.0 203.0 L 170.0 203.0 L 174.0 203.0 L 175.0 203.0 L 175.0 203.0 L 175.0 203.0 " stroke="black" fill="none" stroke-width="5.0" stroke-linecap="round" stroke-linejoin="round" />
<path d="M 128.0 144.0 L 128.0 144.0 L 128.0 144.0 L 128.0 144.0 L 128.0 144.0 L 129.0 144.0 L 131.0 144.0 L 136.0 144.0 L 144.0 144.0 L 153.0 144.0 L 161.0 143.0 L 167.0 143.0 L 171.0 143.0 L 174.0 144.0 L 175.0 148.0 L 176.0 155.0 L 176.0 161.0 L 177.0 166.0 L 177.0 167.0 " stroke="black" fill="none" stroke-width="5.0" stroke-linecap="round" stroke-linejoin="round" />
<path d="M 117.0 163.0 L 117.0 163.0 L 118.0 163.0 L 120.0 163.0 L 128.0 163.0 L 141.0 163.0 L 155.0 163.0 L 165.0 163.0 L 171.0 163.0 L 172.0 163.0 L 172.0 163.0 " stroke="black" fill="none" stroke-width="5.0" stroke-linecap="round" stroke-linejoin="round" />
<path d="M 150.0 116.0 L 150.0 116.0 L 150.0 116.0 L 150.0 116.0 L 151.0 116.0 L 151.0 116.0 L 152.0 119.0 L 152.0 125.0 L 152.0 134.0 L 152.0 139.0 " stroke="black" fill="none" stroke-width="5.0" stroke-linecap="round" stroke-linejoin="round" />
<path d="M 149.0 162.0 L 149.0 162.0 L 149.0 162.0 L 149.0 163.0 L 149.0 164.0 L 149.0 169.0 L 151.0 178.0 L 152.0 187.0 L 152.0 194.0 L 152.0 197.0 " stroke="black" fill="none" stroke-width="5.0" stroke-linecap="round" stroke-linejoin="round" />
</svg>