<svg xmlns="http://www.w3.org/2000/svg" width="300" height="300" viewBox="0 0 300 300">
<path d="M 135.0 121.0 L 135.0 121.0 L 135.0 121.0 L 135.0 122.0 L 135.0 122.0 L 136.0 121.0 L 139.0 119.0 L 141.0 117.0 L 144.0 116.0 L 147.0 116.0 L 152.0 118.0 L 157.0 128.0 L 165.0 144.0 L 174.0 162.0 L 180.0 175.0 L 185.0 182.0 L 188.0 187.0 L 190.0 190.0 L 190.0 191.0 L 190.0 191.0 " stroke="black" fill="none" stroke-width="5.0" stroke-linecap="round" stroke-linejoin="round" />
<path d="M 154.0 130.0 L 154.0 130.0 L 154.0 130.0 L 154.0 130.0 L 154.0 130.0 L 154.0 131.0 L 151.0 136.0 L 142.0 148.0 L 130.0 165.0 L 120.0 180.0 L 115.0 187.0 L 114.0 188.0 " stroke="black" fill="none" stroke-width="5.0" stroke-linecap="round" stroke-linejoin="round" />
</svg>