<svg xmlns="http://www.w3.org/2000/svg" width="300" height="300" viewBox="0 0 300 300">
<path d="M 148.0 99.0 L 148.0 99.0 L 148.0 99.0 L 148.0 99.0 L 148.0 99.0 L 148.0 99.0 L 146.0 100.0 L 141.0 106.0 L 131.0 116.0 L 117.0 129.0 L 106.0 139.0 L 103.0 142.0 " stroke="black" fill="none" stroke-width="5.0" stroke-linecap="round" stroke-linejoin="round" />
<path d="M 149.0 104.0 L 149.0 104.0 L 149.0 104.0 L 148.0 104.0 L 148.0 104.0 L 152.0 106.0 L 160.0 112.0 L 171.0 121.0 L 179.0 129.0 " stroke="black" fill="none" stroke-width="5.0" stroke-linecap="round" stroke-linejoin="round" />
<path d="M 136.0 123.0 L 136.0 123.0 L 136.0 123.0 L 136.0 124.0 L 136.0 124.0 L 136.0 124.0 L 139.0 124.0 L 144.0 124.0 L 151.0 124.0 L 157.0 123.0 " stroke="black" fill="none" stroke-width="5.0" stroke-linecap="round" stroke-linejoin="round" />
<path d="M 130.0 140.0 L 130.0 140.0 L 130.0 140.0 L 132.0 140.0 L 135.0 140.0 L 142.0 139.0 L 149.0 138.0 L 154.0 137.0 L 157.0 137.0 L 158.0 137.0 L 158.0 140.0 L 159.0 146.0 L 160.0 153.0 L 160.0 158.0 L 161.0 162.0 L 161.0 163.0 " stroke="black" fill="none" stroke-width="5.0" stroke-linecap="round" stroke-linejoin="round" />
<path d="M 132.0 151.0 L 132.0 151.0 L 132.0 151.0 L 134.0 151.0 L 140.0 151.0 L 149.0 150.0 L 156.0 150.0 " stroke="black" fill="none" stroke-width="5.0" stroke-linecap="round" stroke-linejoin="round" />
<path d="M 124.0 166.0 L 124.0 166.0 L 124.0 166.0 L 125.0 167.0 L 127.0 167.0 L 136.0 167.0 L 148.0 167.0 L 154.0 167.0 " stroke="black" fill="none" stroke-width="5.0" stroke-linecap="round" stroke-linejoin="round" />
<path d="M 127.0 143.0 L 127.0 143.0 L 127.0 142.0 L 126.0 142.0 L 126.0 144.0 L 125.0 152.0 L 124.0 165.0 L 123.0 181.0 L 123.0 192.0 L 126.0 194.0 L 132.0 195.0 L 139.0 192.0 L 145.0 189.0 " stroke="black" fill="none" stroke-width="5.0" stroke-linecap="round" stroke-linejoin="round" />
<path d="M 171.0 171.0 L 171.0 171.0 L 171.0 172.0 L 170.0 172.0 L 170.0 173.0 L 168.0 175.0 L 163.0 180.0 " stroke="black" fill="none" stroke-width="5.0" stroke-linecap="round" stroke-linejoin="round" />
<path d="M 131.0 172.0 L 131.0 172.0 L 131.0 171.0 L 130.0 171.0 L 133.0 173.0 L 142.0 180.0 L 157.0 190.0 L 173.0 198.0 L 181.0 202.0 L 184.0 204.0 L 184.0 204.0 L 183.0 204.0 " stroke="black" fill="none" stroke-width="5.0" stroke-linecap="round" stroke-linejoin="round" />
</svg>