<svg xmlns="http://www.w3.org/2000/svg" width="300" height="300" viewBox="0 0 300 300">
<path d="M 117.0 110.0 L 117.0 110.0 L 117.0 110.0 L 117.0 110.0 L 119.0 110.0 L 123.0 110.0 L 127.0 110.0 L 131.0 110.0 L 133.0 110.0 L 135.0 110.0 L 136.0 113.0 L 137.0 118.0 L 139.0 127.0 L 141.0 140.0 L 143.0 153.0 L 146.0 166.0 L 148.0 176.0 L 148.0 182.0 L 148.0 184.0 L 144.0 184.0 L 137.0 182.0 L 124.0 178.0 " stroke="black" fill="none" stroke-width="5.0" stroke-linecap="round" stroke-linejoin="round" />
<path d="M 119.0 136.0 L 119.0 136.0 L 120.0 137.0 L 122.0 138.0 L 124.0 140.0 L 126.0 141.0 " stroke="black" fill="none" stroke-width="5.0" stroke-linecap="round" stroke-linejoin="round" />
<path d="M 110.0 158.0 L 111.0 158.0 L 112.0 158.0 L 113.0 158.0 L 117.0 158.0 L 123.0 155.0 L 125.0 154.0 " stroke="black" fill="none" stroke-width="5.0" stroke-linecap="round" stroke-linejoin="round" />
<path d="M 153.0 109.0 L 154.0 109.0 L 155.0 109.0 L 156.0 109.0 L 157.0 109.0 L 159.0 109.0 L 163.0 109.0 L 168.0 109.0 L 172.0 109.0 L 176.0 109.0 L 178.0 110.0 L 178.0 113.0 L 179.0 119.0 L 182.0 131.0 L 186.0 150.0 L 190.0 168.0 L 192.0 181.0 L 193.0 188.0 L 193.0 193.0 L 190.0 195.0 L 185.0 196.0 L 177.0 195.0 L 166.0 190.0 " stroke="black" fill="none" stroke-width="5.0" stroke-linecap="round" stroke-linejoin="round" />
<path d="M 156.0 139.0 L 157.0 139.0 L 158.0 139.0 L 160.0 139.0 L 164.0 141.0 L 170.0 143.0 L 173.0 144.0 " stroke="black" fill="none" stroke-width="5.0" stroke-linecap="round" stroke-linejoin="round" />
<path d="M 157.0 164.0 L 159.0 164.0 L 163.0 164.0 L 169.0 164.0 L 172.0 163.0 " stroke="black" fill="none" stroke-width="5.0" stroke-linecap="round" stroke-linejoin="round" />
</svg>