<svg xmlns="http://www.w3.org/2000/svg" width="300" height="300" viewBox="0 0 300 300">
<path d="M 129.0 126.0 L 130.0 127.0 L 132.0 131.0 L 136.0 141.0 L 141.0 150.0 L 142.0 151.0 " stroke="black" fill="none" stroke-width="5.0" stroke-linecap="round" stroke-linejoin="round" />
<path d="M 173.0 121.0 L 174.0 122.0 L 174.0 125.0 L 174.0 131.0 L 172.0 139.0 L 168.0 146.0 L 167.0 147.0 " stroke="black" fill="none" stroke-width="5.0" stroke-linecap="round" stroke-linejoin="round" />
<path d="M 155.0 107.0 L 155.0 107.0 L 156.0 108.0 L 156.0 113.0 L 156.0 126.0 L 153.0 144.0 L 147.0 164.0 L 139.0 180.0 L 132.0 188.0 L 128.0 191.0 " stroke="black" fill="none" stroke-width="5.0" stroke-linecap="round" stroke-linejoin="round" />
<path d="M 148.0 162.0 L 148.0 165.0 L 150.0 169.0 L 157.0 177.0 L 169.0 187.0 L 184.0 194.0 L 193.0 197.0 L 196.0 199.0 " stroke="black" fill="none" stroke-width="5.0" stroke-linecap="round" stroke-linejoin="round" />
</svg>