<svg xmlns="http://www.w3.org/2000/svg" width="300" height="300" viewBox="0 0 300 300">
<path d="M 140.0 109.0 L 139.0 110.0 L 139.0 110.0 L 138.0 111.0 L 137.0 115.0 L 135.0 122.0 L 130.0 132.0 L 124.0 142.0 L 117.0 151.0 " stroke="black" fill="none" stroke-width="5.0" stroke-linecap="round" stroke-linejoin="round" />
<path d="M 138.0 127.0 L 138.0 127.0 L 138.0 127.0 L 139.0 127.0 L 141.0 126.0 L 145.0 126.0 L 152.0 126.0 L 161.0 126.0 L 166.0 126.0 L 170.0 127.0 L 171.0 130.0 L 170.0 134.0 L 168.0 141.0 L 163.0 149.0 L 155.0 158.0 L 143.0 170.0 L 127.0 183.0 L 115.0 189.0 L 113.0 190.0 " stroke="black" fill="none" stroke-width="5.0" stroke-linecap="round" stroke-linejoin="round" />
<path d="M 136.0 139.0 L 136.0 139.0 L 136.0 140.0 L 139.0 144.0 L 146.0 153.0 L 161.0 168.0 L 178.0 182.0 L 188.0 190.0 L 192.0 195.0 " stroke="black" fill="none" stroke-width="5.0" stroke-linecap="round" stroke-linejoin="round" />
</svg>