<svg xmlns="http://www.w3.org/2000/svg" width="300" height="300" viewBox="0 0 300 300">
<path d="M 140.0 94.0 L 140.0 94.0 L 141.0 94.0 L 141.0 97.0 L 143.0 101.0 L 144.0 105.0 L 145.0 107.0 " stroke="black" fill="none" stroke-width="5.0" stroke-linecap="round" stroke-linejoin="round" />
<path d="M 113.0 114.0 L 114.0 114.0 L 114.0 114.0 L 115.0 114.0 L 116.0 114.0 L 121.0 114.0 L 134.0 113.0 L 150.0 112.0 L 163.0 111.0 L 171.0 110.0 L 174.0 109.0 L 174.0 109.0 L 174.0 109.0 " stroke="black" fill="none" stroke-width="5.0" stroke-linecap="round" stroke-linejoin="round" />
<path d="M 139.0 121.0 L 139.0 121.0 L 139.0 122.0 L 139.0 123.0 L 139.0 124.0 L 140.0 125.0 L 141.0 127.0 L 142.0 128.0 " stroke="black" fill="none" stroke-width="5.0" stroke-linecap="round" stroke-linejoin="round" />
<path d="M 152.0 125.0 L 152.0 125.0 L 152.0 125.0 L 152.0 125.0 L 152.0 125.0 L 151.0 126.0 L 150.0 128.0 L 148.0 130.0 L 147.0 131.0 L 147.0 132.0 L 146.0 133.0 L 146.0 134.0 L 146.0 137.0 L 146.0 141.0 L 147.0 147.0 L 148.0 151.0 L 148.0 152.0 " stroke="black" fill="none" stroke-width="5.0" stroke-linecap="round" stroke-linejoin="round" />
<path d="M 114.0 127.0 L 114.0 127.0 L 114.0 127.0 L 114.0 127.0 L 114.0 127.0 L 115.0 127.0 L 120.0 127.0 L 123.0 127.0 L 126.0 127.0 L 128.0 127.0 L 131.0 129.0 L 132.0 134.0 L 133.0 139.0 L 134.0 143.0 L 134.0 145.0 L 134.0 146.0 L 133.0 146.0 L 131.0 146.0 L 128.0 146.0 L 126.0 146.0 " stroke="black" fill="none" stroke-width="5.0" stroke-linecap="round" stroke-linejoin="round" />
<path d="M 122.0 132.0 L 122.0 131.0 L 122.0 131.0 L 122.0 131.0 L 121.0 132.0 L 116.0 137.0 L 110.0 145.0 L 107.0 149.0 " stroke="black" fill="none" stroke-width="5.0" stroke-linecap="round" stroke-linejoin="round" />
<path d="M 165.0 123.0 L 166.0 123.0 L 166.0 124.0 L 166.0 124.0 L 166.0 125.0 L 166.0 125.0 L 164.0 126.0 L 163.0 126.0 L 162.0 126.0 L 161.0 127.0 L 160.0 128.0 L 160.0 131.0 L 159.0 136.0 L 159.0 143.0 L 159.0 150.0 L 160.0 153.0 L 163.0 154.0 L 167.0 152.0 L 171.0 148.0 " stroke="black" fill="none" stroke-width="5.0" stroke-linecap="round" stroke-linejoin="round" />
<path d="M 164.0 131.0 L 165.0 131.0 L 167.0 132.0 L 169.0 135.0 L 174.0 141.0 L 180.0 146.0 L 184.0 150.0 L 187.0 151.0 " stroke="black" fill="none" stroke-width="5.0" stroke-linecap="round" stroke-linejoin="round" />
<path d="M 132.0 161.0 L 132.0 162.0 L 132.0 162.0 L 132.0 165.0 L 132.0 171.0 L 131.0 182.0 L 128.0 194.0 L 124.0 202.0 L 123.0 203.0 " stroke="black" fill="none" stroke-width="5.0" stroke-linecap="round" stroke-linejoin="round" />
<path d="M 134.0 174.0 L 134.0 174.0 L 134.0 174.0 L 134.0 174.0 L 135.0 174.0 L 140.0 174.0 L 148.0 174.0 L 157.0 175.0 L 163.0 175.0 L 164.0 176.0 " stroke="black" fill="none" stroke-width="5.0" stroke-linecap="round" stroke-linejoin="round" />
<path d="M 134.0 186.0 L 134.0 186.0 L 135.0 186.0 L 138.0 187.0 L 145.0 187.0 L 156.0 187.0 L 166.0 187.0 L 170.0 187.0 " stroke="black" fill="none" stroke-width="5.0" stroke-linecap="round" stroke-linejoin="round" />
<path d="M 167.0 162.0 L 167.0 162.0 L 167.0 162.0 L 167.0 163.0 L 167.0 166.0 L 167.0 174.0 L 170.0 186.0 L 172.0 199.0 L 173.0 208.0 L 173.0 211.0 L 173.0 211.0 " stroke="black" fill="none" stroke-width="5.0" stroke-linecap="round" stroke-linejoin="round" />
</svg>