<svg xmlns="http://www.w3.org/2000/svg" width="300" height="300" viewBox="0 0 300 300">
<path d="M 141.0 98.0 L 141.0 98.0 L 141.0 99.0 L 142.0 101.0 L 145.0 105.0 L 146.0 107.0 " stroke="black" fill="none" stroke-width="5.0" stroke-linecap="round" stroke-linejoin="round" />
<path d="M 125.0 115.0 L 125.0 116.0 L 125.0 116.0 L 127.0 116.0 L 136.0 116.0 L 147.0 114.0 L 156.0 114.0 L 163.0 113.0 L 164.0 113.0 " stroke="black" fill="none" stroke-width="5.0" stroke-linecap="round" stroke-linejoin="round" />
<path d="M 137.0 117.0 L 137.0 117.0 L 137.0 117.0 L 137.0 118.0 L 137.0 120.0 L 139.0 125.0 L 141.0 131.0 " stroke="black" fill="none" stroke-width="5.0" stroke-linecap="round" stroke-linejoin="round" />
<path d="M 157.0 116.0 L 157.0 118.0 L 156.0 120.0 L 156.0 124.0 L 155.0 131.0 L 155.0 136.0 " stroke="black" fill="none" stroke-width="5.0" stroke-linecap="round" stroke-linejoin="round" />
<path d="M 121.0 138.0 L 121.0 138.0 L 121.0 139.0 L 121.0 139.0 L 125.0 140.0 L 137.0 140.0 L 153.0 139.0 L 167.0 138.0 L 175.0 138.0 L 179.0 138.0 L 179.0 138.0 L 179.0 138.0 " stroke="black" fill="none" stroke-width="5.0" stroke-linecap="round" stroke-linejoin="round" />
<path d="M 130.0 154.0 L 130.0 154.0 L 130.0 154.0 L 130.0 154.0 L 135.0 154.0 L 143.0 155.0 L 153.0 155.0 L 161.0 154.0 L 165.0 154.0 L 166.0 154.0 L 167.0 157.0 L 167.0 161.0 L 167.0 168.0 L 168.0 176.0 L 170.0 184.0 L 171.0 191.0 L 172.0 193.0 L 172.0 194.0 " stroke="black" fill="none" stroke-width="5.0" stroke-linecap="round" stroke-linejoin="round" />
<path d="M 126.0 156.0 L 126.0 157.0 L 125.0 159.0 L 125.0 163.0 L 125.0 173.0 L 124.0 185.0 L 124.0 193.0 L 124.0 193.0 " stroke="black" fill="none" stroke-width="5.0" stroke-linecap="round" stroke-linejoin="round" />
<path d="M 128.0 174.0 L 128.0 174.0 L 130.0 174.0 L 134.0 175.0 L 143.0 176.0 L 153.0 176.0 L 160.0 176.0 L 162.0 176.0 L 162.0 176.0 " stroke="black" fill="none" stroke-width="5.0" stroke-linecap="round" stroke-linejoin="round" />
<path d="M 124.0 195.0 L 124.0 195.0 L 124.0 196.0 L 127.0 196.0 L 138.0 196.0 L 152.0 196.0 L 163.0 196.0 L 166.0 196.0 " stroke="black" fill="none" stroke-width="5.0" stroke-linecap="round" stroke-linejoin="round" />
</svg>