<svg xmlns="http://www.w3.org/2000/svg" width="300" height="300" viewBox="0 0 300 300">
<path d="M 124.0 115.0 L 124.0 115.0 L 124.0 117.0 L 124.0 120.0 L 124.0 128.0 L 124.0 145.0 L 124.0 166.0 L 123.0 183.0 L 121.0 191.0 L 121.0 191.0 " stroke="black" fill="none" stroke-width="5.0" stroke-linecap="round" stroke-linejoin="round" />
<path d="M 128.0 116.0 L 128.0 116.0 L 128.0 116.0 L 129.0 116.0 L 134.0 116.0 L 145.0 116.0 L 156.0 116.0 L 166.0 118.0 L 172.0 119.0 L 175.0 122.0 L 178.0 127.0 L 182.0 139.0 L 186.0 156.0 L 188.0 173.0 L 189.0 185.0 L 190.0 192.0 L 190.0 196.0 L 189.0 196.0 " stroke="black" fill="none" stroke-width="5.0" stroke-linecap="round" stroke-linejoin="round" />
<path d="M 131.0 150.0 L 132.0 150.0 L 133.0 150.0 L 137.0 151.0 L 148.0 151.0 L 163.0 151.0 L 175.0 151.0 L 180.0 153.0 L 180.0 154.0 L 179.0 155.0 " stroke="black" fill="none" stroke-width="5.0" stroke-linecap="round" stroke-linejoin="round" />
<path d="M 124.0 195.0 L 126.0 195.0 L 128.0 196.0 L 133.0 198.0 L 145.0 199.0 L 163.0 199.0 L 180.0 199.0 L 189.0 197.0 L 191.0 196.0 L 191.0 196.0 " stroke="black" fill="none" stroke-width="5.0" stroke-linecap="round" stroke-linejoin="round" />
</svg>