<svg xmlns="http://www.w3.org/2000/svg" width="300" height="300" viewBox="0 0 300 300">
<path d="M 133.0 110.0 L 133.0 110.0 L 133.0 110.0 L 133.0 110.0 L 133.0 111.0 L 133.0 117.0 L 134.0 135.0 L 134.0 159.0 L 134.0 178.0 L 133.0 184.0 L 133.0 185.0 L 133.0 185.0 " stroke="black" fill="none" stroke-width="5.0" stroke-linecap="round" stroke-linejoin="round" />
<path d="M 112.0 131.0 L 113.0 131.0 L 114.0 131.0 L 115.0 131.0 L 118.0 131.0 L 124.0 130.0 L 130.0 129.0 L 133.0 128.0 L 134.0 128.0 " stroke="black" fill="none" stroke-width="5.0" stroke-linecap="round" stroke-linejoin="round" />
<path d="M 115.0 150.0 L 117.0 150.0 L 118.0 150.0 L 120.0 150.0 L 124.0 149.0 L 129.0 148.0 L 134.0 148.0 " stroke="black" fill="none" stroke-width="5.0" stroke-linecap="round" stroke-linejoin="round" />
<path d="M 103.0 173.0 L 103.0 173.0 L 103.0 173.0 L 103.0 173.0 L 106.0 173.0 L 116.0 173.0 L 129.0 171.0 " stroke="black" fill="none" stroke-width="5.0" stroke-linecap="round" stroke-linejoin="round" />
<path d="M 152.0 113.0 L 152.0 113.0 L 152.0 113.0 L 152.0 113.0 L 153.0 115.0 L 153.0 123.0 L 154.0 140.0 L 155.0 161.0 L 155.0 179.0 L 156.0 187.0 L 157.0 188.0 L 157.0 187.0 " stroke="black" fill="none" stroke-width="5.0" stroke-linecap="round" stroke-linejoin="round" />
<path d="M 156.0 132.0 L 156.0 132.0 L 156.0 133.0 L 156.0 133.0 L 160.0 133.0 L 166.0 133.0 L 172.0 133.0 L 176.0 133.0 L 177.0 134.0 " stroke="black" fill="none" stroke-width="5.0" stroke-linecap="round" stroke-linejoin="round" />
<path d="M 158.0 151.0 L 159.0 151.0 L 160.0 152.0 L 163.0 152.0 L 168.0 153.0 L 173.0 153.0 L 177.0 153.0 " stroke="black" fill="none" stroke-width="5.0" stroke-linecap="round" stroke-linejoin="round" />
<path d="M 160.0 164.0 L 160.0 165.0 L 162.0 166.0 L 166.0 166.0 L 174.0 166.0 L 182.0 166.0 " stroke="black" fill="none" stroke-width="5.0" stroke-linecap="round" stroke-linejoin="round" />
<path d="M 100.0 193.0 L 99.0 193.0 L 99.0 193.0 L 99.0 193.0 L 105.0 193.0 L 123.0 193.0 L 149.0 193.0 L 168.0 192.0 L 184.0 191.0 L 194.0 191.0 L 198.0 191.0 L 198.0 191.0 L 198.0 191.0 " stroke="black" fill="none" stroke-width="5.0" stroke-linecap="round" stroke-linejoin="round" />
</svg>