<svg xmlns="http://www.w3.org/2000/svg" width="300" height="300" viewBox="0 0 300 300">
<path d="M 124.0 110.0 L 124.0 110.0 L 126.0 110.0 L 131.0 110.0 L 144.0 110.0 L 159.0 109.0 L 171.0 108.0 L 176.0 108.0 L 176.0 108.0 L 174.0 108.0 " stroke="black" fill="none" stroke-width="5.0" stroke-linecap="round" stroke-linejoin="round" />
<path d="M 129.0 117.0 L 129.0 117.0 L 129.0 117.0 L 128.0 117.0 L 128.0 121.0 L 127.0 135.0 L 126.0 155.0 L 123.0 173.0 L 122.0 184.0 L 122.0 188.0 L 122.0 189.0 " stroke="black" fill="none" stroke-width="5.0" stroke-linecap="round" stroke-linejoin="round" />
<path d="M 134.0 134.0 L 134.0 134.0 L 135.0 134.0 L 138.0 134.0 L 145.0 134.0 L 157.0 132.0 L 168.0 131.0 L 175.0 131.0 L 177.0 131.0 L 176.0 131.0 " stroke="black" fill="none" stroke-width="5.0" stroke-linecap="round" stroke-linejoin="round" />
<path d="M 133.0 150.0 L 133.0 150.0 L 133.0 150.0 L 136.0 150.0 L 144.0 150.0 L 157.0 150.0 L 170.0 150.0 L 177.0 150.0 L 179.0 150.0 L 179.0 150.0 " stroke="black" fill="none" stroke-width="5.0" stroke-linecap="round" stroke-linejoin="round" />
<path d="M 145.0 157.0 L 145.0 157.0 L 144.0 158.0 L 143.0 159.0 L 143.0 164.0 L 143.0 176.0 L 145.0 188.0 L 148.0 195.0 L 154.0 196.0 L 161.0 190.0 L 165.0 186.0 " stroke="black" fill="none" stroke-width="5.0" stroke-linecap="round" stroke-linejoin="round" />
<path d="M 188.0 160.0 L 188.0 160.0 L 187.0 161.0 L 186.0 163.0 L 184.0 166.0 L 182.0 170.0 L 181.0 173.0 " stroke="black" fill="none" stroke-width="5.0" stroke-linecap="round" stroke-linejoin="round" />
<path d="M 157.0 159.0 L 157.0 159.0 L 158.0 159.0 L 159.0 159.0 L 164.0 164.0 L 176.0 178.0 L 190.0 192.0 L 197.0 200.0 L 199.0 202.0 L 200.0 203.0 L 200.0 203.0 L 200.0 202.0 L 200.0 200.0 " stroke="black" fill="none" stroke-width="5.0" stroke-linecap="round" stroke-linejoin="round" />
</svg>