<svg xmlns="http://www.w3.org/2000/svg" width="300" height="300" viewBox="0 0 300 300">
<path d="M 129.0 122.0 L 130.0 122.0 L 130.0 122.0 L 131.0 122.0 L 137.0 121.0 L 150.0 121.0 L 164.0 120.0 L 175.0 120.0 " stroke="black" fill="none" stroke-width="5.0" stroke-linecap="round" stroke-linejoin="round" />
<path d="M 134.0 155.0 L 135.0 155.0 L 137.0 155.0 L 141.0 155.0 L 149.0 155.0 L 159.0 153.0 L 168.0 152.0 " stroke="black" fill="none" stroke-width="5.0" stroke-linecap="round" stroke-linejoin="round" />
<path d="M 109.0 189.0 L 110.0 189.0 L 112.0 189.0 L 119.0 189.0 L 136.0 188.0 L 156.0 188.0 L 176.0 188.0 L 191.0 188.0 L 195.0 188.0 " stroke="black" fill="none" stroke-width="5.0" stroke-linecap="round" stroke-linejoin="round" />
<path d="M 147.0 129.0 L 147.0 131.0 L 147.0 137.0 L 148.0 150.0 L 150.0 167.0 L 151.0 178.0 " stroke="black" fill="none" stroke-width="5.0" stroke-linecap="round" stroke-linejoin="round" />
<path d="M 176.0 165.0 L 178.0 167.0 L 179.0 169.0 L 182.0 173.0 L 185.0 177.0 " stroke="black" fill="none" stroke-width="5.0" stroke-linecap="round" stroke-linejoin="round" />
</svg>