<svg xmlns="http://www.w3.org/2000/svg" width="300" height="300" viewBox="0 0 300 300">
<path d="M 111.0 116.0 L 112.0 116.0 L 112.0 116.0 L 113.0 118.0 L 113.0 122.0 L 113.0 128.0 L 114.0 132.0 " stroke="black" fill="none" stroke-width="5.0" stroke-linecap="round" stroke-linejoin="round" />
<path d="M 111.0 116.0 L 112.0 116.0 L 112.0 116.0 L 114.0 116.0 L 117.0 117.0 L 127.0 117.0 L 142.0 116.0 L 158.0 114.0 L 171.0 113.0 L 180.0 113.0 L 185.0 113.0 L 188.0 114.0 L 190.0 116.0 L 192.0 119.0 L 193.0 124.0 L 194.0 130.0 L 194.0 136.0 L 194.0 138.0 " stroke="black" fill="none" stroke-width="5.0" stroke-linecap="round" stroke-linejoin="round" />
<path d="M 146.0 95.0 L 146.0 95.0 L 147.0 95.0 L 148.0 98.0 L 150.0 105.0 L 151.0 107.0 " stroke="black" fill="none" stroke-width="5.0" stroke-linecap="round" stroke-linejoin="round" />
<path d="M 138.0 143.0 L 138.0 143.0 L 138.0 142.0 L 138.0 141.0 L 140.0 140.0 L 143.0 138.0 L 146.0 137.0 L 150.0 135.0 L 154.0 135.0 L 158.0 140.0 L 164.0 150.0 L 173.0 166.0 L 182.0 182.0 L 188.0 192.0 L 191.0 198.0 L 192.0 201.0 L 193.0 202.0 L 192.0 202.0 " stroke="black" fill="none" stroke-width="5.0" stroke-linecap="round" stroke-linejoin="round" />
<path d="M 145.0 158.0 L 145.0 158.0 L 145.0 158.0 L 145.0 157.0 L 144.0 157.0 L 142.0 160.0 L 135.0 168.0 L 125.0 182.0 L 115.0 194.0 L 112.0 198.0 " stroke="black" fill="none" stroke-width="5.0" stroke-linecap="round" stroke-linejoin="round" />
</svg>