<svg xmlns="http://www.w3.org/2000/svg" width="300" height="300" viewBox="0 0 300 300">
<path d="M 126.0 107.0 L 126.0 107.0 L 126.0 107.0 L 126.0 107.0 L 126.0 107.0 L 126.0 110.0 L 126.0 118.0 L 126.0 132.0 L 124.0 150.0 L 117.0 172.0 L 111.0 190.0 L 110.0 194.0 " stroke="black" fill="none" stroke-width="5.0" stroke-linecap="round" stroke-linejoin="round" />
<path d="M 131.0 131.0 L 131.0 131.0 L 131.0 131.0 L 131.0 131.0 L 134.0 131.0 L 141.0 132.0 L 151.0 132.0 L 159.0 132.0 L 165.0 132.0 L 168.0 131.0 L 169.0 129.0 L 169.0 129.0 L 168.0 128.0 L 167.0 125.0 L 166.0 118.0 L 165.0 110.0 L 165.0 109.0 " stroke="black" fill="none" stroke-width="5.0" stroke-linecap="round" stroke-linejoin="round" />
<path d="M 131.0 154.0 L 131.0 154.0 L 131.0 154.0 L 131.0 154.0 L 131.0 154.0 L 135.0 155.0 L 143.0 156.0 L 152.0 157.0 L 159.0 157.0 L 163.0 155.0 L 164.0 154.0 L 164.0 155.0 L 166.0 160.0 L 169.0 171.0 L 175.0 185.0 L 182.0 198.0 L 189.0 206.0 L 194.0 210.0 L 195.0 211.0 " stroke="black" fill="none" stroke-width="5.0" stroke-linecap="round" stroke-linejoin="round" />
</svg>