<svg xmlns="http://www.w3.org/2000/svg" width="300" height="300" viewBox="0 0 300 300">
<path d="M 161.0 98.0 L 161.0 98.0 L 161.0 98.0 L 162.0 98.0 L 162.0 98.0 L 162.0 100.0 L 160.0 103.0 L 156.0 107.0 L 150.0 112.0 L 143.0 116.0 L 137.0 118.0 L 133.0 118.0 L 131.0 119.0 L 131.0 120.0 L 131.0 122.0 L 131.0 126.0 L 131.0 133.0 L 129.0 146.0 L 125.0 163.0 L 123.0 180.0 L 122.0 187.0 L 122.0 188.0 L 122.0 188.0 " stroke="black" fill="none" stroke-width="5.0" stroke-linecap="round" stroke-linejoin="round" />
<path d="M 132.0 137.0 L 132.0 137.0 L 132.0 137.0 L 134.0 137.0 L 143.0 138.0 L 158.0 139.0 L 172.0 139.0 L 178.0 139.0 L 178.0 139.0 L 176.0 139.0 " stroke="black" fill="none" stroke-width="5.0" stroke-linecap="round" stroke-linejoin="round" />
<path d="M 156.0 138.0 L 156.0 138.0 L 156.0 138.0 L 156.0 140.0 L 158.0 149.0 L 161.0 166.0 L 163.0 185.0 L 165.0 199.0 L 165.0 204.0 L 165.0 205.0 L 165.0 202.0 " stroke="black" fill="none" stroke-width="5.0" stroke-linecap="round" stroke-linejoin="round" />
</svg>