<svg xmlns="http://www.w3.org/2000/svg" width="300" height="300" viewBox="0 0 300 300">
<path d="M 110.0 148.0 L 110.0 149.0 L 110.0 151.0 L 110.0 154.0 L 111.0 160.0 L 111.0 169.0 L 111.0 178.0 L 111.0 184.0 L 111.0 187.0 L 112.0 188.0 L 115.0 189.0 L 122.0 189.0 L 132.0 190.0 L 145.0 191.0 L 158.0 192.0 L 169.0 193.0 L 179.0 193.0 L 185.0 193.0 L 188.0 193.0 L 188.0 194.0 L 188.0 194.0 L 188.0 194.0 " stroke="black" fill="none" stroke-width="5.0" stroke-linecap="round" stroke-linejoin="round" />
<path d="M 147.0 129.0 L 147.0 129.0 L 147.0 130.0 L 146.0 132.0 L 147.0 140.0 L 149.0 155.0 L 150.0 172.0 L 151.0 184.0 L 151.0 187.0 L 151.0 187.0 " stroke="black" fill="none" stroke-width="5.0" stroke-linecap="round" stroke-linejoin="round" />
<path d="M 188.0 153.0 L 188.0 153.0 L 188.0 154.0 L 188.0 157.0 L 189.0 165.0 L 191.0 178.0 L 192.0 188.0 L 193.0 194.0 L 193.0 194.0 " stroke="black" fill="none" stroke-width="5.0" stroke-linecap="round" stroke-linejoin="round" />
</svg>