<svg xmlns="http://www.w3.org/2000/svg" width="300" height="300" viewBox="0 0 300 300">
<path d="M 122.0 122.0 L 122.0 122.0 L 122.0 122.0 L 122.0 122.0 L 126.0 122.0 L 139.0 122.0 L 159.0 122.0 L 177.0 122.0 L 184.0 121.0 " stroke="black" fill="none" stroke-width="5.0" stroke-linecap="round" stroke-linejoin="round" />
<path d="M 152.0 101.0 L 152.0 101.0 L 152.0 102.0 L 152.0 104.0 L 154.0 113.0 L 160.0 135.0 L 168.0 164.0 L 179.0 189.0 L 187.0 200.0 L 193.0 202.0 L 197.0 198.0 L 198.0 193.0 " stroke="black" fill="none" stroke-width="5.0" stroke-linecap="round" stroke-linejoin="round" />
<path d="M 188.0 157.0 L 188.0 157.0 L 188.0 157.0 L 187.0 157.0 L 184.0 159.0 L 174.0 166.0 L 157.0 179.0 L 140.0 190.0 L 133.0 193.0 " stroke="black" fill="none" stroke-width="5.0" stroke-linecap="round" stroke-linejoin="round" />
<path d="M 175.0 104.0 L 175.0 104.0 L 178.0 107.0 L 182.0 111.0 L 184.0 112.0 " stroke="black" fill="none" stroke-width="5.0" stroke-linecap="round" stroke-linejoin="round" />
</svg>