<svg xmlns="http://www.w3.org/2000/svg" width="300" height="300" viewBox="0 0 300 300">
<path d="M 117.0 137.0 L 120.0 137.0 L 128.0 137.0 L 141.0 138.0 L 157.0 138.0 L 172.0 137.0 L 183.0 137.0 L 186.0 136.0 " stroke="black" fill="none" stroke-width="5.0" stroke-linecap="round" stroke-linejoin="round" />
<path d="M 129.0 178.0 L 130.0 178.0 L 130.0 178.0 L 133.0 178.0 L 138.0 179.0 L 148.0 179.0 L 163.0 179.0 L 177.0 178.0 L 181.0 178.0 " stroke="black" fill="none" stroke-width="5.0" stroke-linecap="round" stroke-linejoin="round" />
<path d="M 149.0 107.0 L 149.0 107.0 L 149.0 107.0 L 148.0 107.0 L 148.0 111.0 L 149.0 118.0 L 150.0 130.0 L 152.0 146.0 L 152.0 160.0 L 153.0 170.0 L 154.0 175.0 L 154.0 176.0 " stroke="black" fill="none" stroke-width="5.0" stroke-linecap="round" stroke-linejoin="round" />
</svg>