<svg xmlns="http://www.w3.org/2000/svg" width="300" height="300" viewBox="0 0 300 300">
<path d="M 137.0 97.0 L 137.0 97.0 L 137.0 97.0 L 137.0 97.0 L 137.0 97.0 L 137.0 97.0 L 136.0 103.0 L 131.0 113.0 L 122.0 126.0 L 115.0 132.0 L 114.0 133.0 " stroke="black" fill="none" stroke-width="5.0" stroke-linecap="round" stroke-linejoin="round" />
<path d="M 137.0 112.0 L 137.0 112.0 L 137.0 112.0 L 137.0 112.0 L 141.0 112.0 L 150.0 112.0 L 163.0 111.0 L 174.0 108.0 L 178.0 107.0 L 179.0 107.0 " stroke="black" fill="none" stroke-width="5.0" stroke-linecap="round" stroke-linejoin="round" />
<path d="M 141.0 128.0 L 141.0 128.0 L 141.0 128.0 L 142.0 128.0 L 148.0 128.0 L 158.0 128.0 L 169.0 127.0 L 174.0 126.0 L 175.0 126.0 " stroke="black" fill="none" stroke-width="5.0" stroke-linecap="round" stroke-linejoin="round" />
<path d="M 131.0 147.0 L 131.0 147.0 L 132.0 147.0 L 133.0 148.0 L 138.0 148.0 L 147.0 148.0 L 159.0 146.0 L 171.0 144.0 L 179.0 142.0 L 184.0 141.0 L 184.0 141.0 L 185.0 145.0 L 187.0 154.0 L 191.0 169.0 L 197.0 185.0 L 203.0 196.0 L 209.0 201.0 L 213.0 202.0 L 215.0 201.0 L 216.0 194.0 L 216.0 182.0 L 215.0 179.0 " stroke="black" fill="none" stroke-width="5.0" stroke-linecap="round" stroke-linejoin="round" />
</svg>