<svg xmlns="http://www.w3.org/2000/svg" width="300" height="300" viewBox="0 0 300 300">
<path d="M 131.0 111.0 L 131.0 111.0 L 132.0 111.0 L 133.0 111.0 L 138.0 112.0 L 147.0 112.0 L 154.0 112.0 L 159.0 112.0 L 160.0 112.0 " stroke="black" fill="none" stroke-width="5.0" stroke-linecap="round" stroke-linejoin="round" />
<path d="M 105.0 145.0 L 106.0 145.0 L 107.0 145.0 L 111.0 144.0 L 122.0 143.0 L 141.0 142.0 L 161.0 142.0 L 178.0 142.0 L 188.0 142.0 L 191.0 142.0 " stroke="black" fill="none" stroke-width="5.0" stroke-linecap="round" stroke-linejoin="round" />
<path d="M 145.0 145.0 L 145.0 145.0 L 145.0 145.0 L 145.0 147.0 L 145.0 159.0 L 147.0 177.0 L 149.0 192.0 L 150.0 200.0 L 150.0 203.0 L 150.0 204.0 L 149.0 204.0 " stroke="black" fill="none" stroke-width="5.0" stroke-linecap="round" stroke-linejoin="round" />
<path d="M 133.0 166.0 L 133.0 166.0 L 133.0 167.0 L 133.0 167.0 L 131.0 169.0 L 125.0 175.0 L 117.0 183.0 L 109.0 190.0 L 107.0 193.0 " stroke="black" fill="none" stroke-width="5.0" stroke-linecap="round" stroke-linejoin="round" />
<path d="M 154.0 168.0 L 156.0 168.0 L 158.0 170.0 L 162.0 174.0 L 169.0 182.0 L 178.0 190.0 L 185.0 197.0 L 189.0 200.0 L 189.0 201.0 " stroke="black" fill="none" stroke-width="5.0" stroke-linecap="round" stroke-linejoin="round" />
</svg>