<svg xmlns="http://www.w3.org/2000/svg" width="300" height="300" viewBox="0 0 300 300">
<path d="M 123.0 107.0 L 123.0 107.0 L 123.0 107.0 L 123.0 107.0 L 126.0 107.0 L 132.0 107.0 L 142.0 106.0 L 152.0 105.0 L 160.0 105.0 L 165.0 105.0 L 168.0 105.0 L 171.0 105.0 L 172.0 105.0 L 172.0 105.0 L 172.0 106.0 L 173.0 108.0 L 173.0 113.0 L 174.0 118.0 L 174.0 124.0 L 174.0 129.0 L 175.0 131.0 L 175.0 132.0 L 175.0 132.0 L 172.0 132.0 L 167.0 132.0 L 160.0 132.0 L 153.0 131.0 L 147.0 130.0 L 141.0 129.0 L 136.0 129.0 L 131.0 129.0 L 128.0 129.0 L 125.0 129.0 L 124.0 129.0 L 124.0 129.0 L 125.0 130.0 L 126.0 134.0 L 126.0 138.0 L 125.0 142.0 L 124.0 146.0 L 122.0 150.0 L 122.0 151.0 L 122.0 152.0 L 124.0 152.0 L 131.0 152.0 L 140.0 152.0 L 151.0 152.0 L 161.0 152.0 L 172.0 152.0 L 180.0 153.0 L 184.0 155.0 L 187.0 160.0 L 188.0 167.0 L 190.0 175.0 L 192.0 183.0 L 193.0 190.0 L 193.0 194.0 L 192.0 198.0 L 188.0 199.0 L 180.0 198.0 L 166.0 195.0 L 161.0 193.0 " stroke="black" fill="none" stroke-width="5.0" stroke-linecap="round" stroke-linejoin="round" />
</svg>