<svg xmlns="http://www.w3.org/2000/svg" width="300" height="300" viewBox="0 0 300 300">
<path d="M 122.0 118.0 L 122.0 118.0 L 122.0 118.0 L 122.0 119.0 L 122.0 123.0 L 122.0 134.0 L 121.0 152.0 L 120.0 169.0 L 120.0 180.0 L 121.0 182.0 L 122.0 179.0 " stroke="black" fill="none" stroke-width="5.0" stroke-linecap="round" stroke-linejoin="round" />
<path d="M 129.0 115.0 L 129.0 115.0 L 129.0 115.0 L 130.0 115.0 L 133.0 115.0 L 141.0 115.0 L 154.0 113.0 L 165.0 112.0 L 173.0 112.0 L 178.0 115.0 L 181.0 123.0 L 186.0 138.0 L 190.0 155.0 L 193.0 168.0 L 195.0 180.0 L 195.0 187.0 L 195.0 190.0 L 192.0 191.0 L 185.0 191.0 L 175.0 188.0 L 164.0 184.0 " stroke="black" fill="none" stroke-width="5.0" stroke-linecap="round" stroke-linejoin="round" />
<path d="M 156.0 100.0 L 156.0 99.0 L 157.0 98.0 L 157.0 98.0 L 157.0 97.0 L 157.0 100.0 L 155.0 107.0 L 151.0 118.0 L 144.0 133.0 L 139.0 142.0 L 138.0 143.0 " stroke="black" fill="none" stroke-width="5.0" stroke-linecap="round" stroke-linejoin="round" />
<path d="M 153.0 124.0 L 153.0 124.0 L 153.0 125.0 L 154.0 126.0 L 158.0 129.0 L 168.0 133.0 L 175.0 137.0 " stroke="black" fill="none" stroke-width="5.0" stroke-linecap="round" stroke-linejoin="round" />
<path d="M 158.0 141.0 L 158.0 141.0 L 158.0 141.0 L 159.0 140.0 L 159.0 140.0 L 158.0 144.0 L 155.0 152.0 L 151.0 162.0 L 147.0 169.0 " stroke="black" fill="none" stroke-width="5.0" stroke-linecap="round" stroke-linejoin="round" />
<path d="M 156.0 157.0 L 156.0 157.0 L 157.0 157.0 L 160.0 158.0 L 165.0 161.0 L 173.0 166.0 L 180.0 171.0 L 181.0 172.0 " stroke="black" fill="none" stroke-width="5.0" stroke-linecap="round" stroke-linejoin="round" />
</svg>