<svg xmlns="http://www.w3.org/2000/svg" width="300" height="300" viewBox="0 0 300 300">
<path d="M 125.0 108.0 L 125.0 108.0 L 124.0 107.0 L 124.0 108.0 L 124.0 114.0 L 123.0 131.0 L 121.0 156.0 L 117.0 179.0 L 114.0 190.0 L 114.0 190.0 L 115.0 189.0 " stroke="black" fill="none" stroke-width="5.0" stroke-linecap="round" stroke-linejoin="round" />
<path d="M 130.0 104.0 L 130.0 104.0 L 131.0 104.0 L 132.0 104.0 L 135.0 103.0 L 143.0 102.0 L 151.0 102.0 L 158.0 102.0 L 162.0 102.0 L 165.0 103.0 L 167.0 104.0 L 169.0 110.0 L 173.0 124.0 L 178.0 144.0 L 182.0 161.0 L 184.0 174.0 L 185.0 183.0 L 186.0 188.0 L 184.0 190.0 L 179.0 191.0 L 171.0 190.0 L 162.0 188.0 " stroke="black" fill="none" stroke-width="5.0" stroke-linecap="round" stroke-linejoin="round" />
<path d="M 135.0 127.0 L 135.0 127.0 L 135.0 127.0 L 135.0 127.0 L 139.0 127.0 L 149.0 127.0 L 160.0 126.0 L 167.0 126.0 " stroke="black" fill="none" stroke-width="5.0" stroke-linecap="round" stroke-linejoin="round" />
<path d="M 125.0 151.0 L 125.0 151.0 L 125.0 151.0 L 126.0 151.0 L 135.0 151.0 L 152.0 152.0 L 168.0 153.0 L 172.0 153.0 " stroke="black" fill="none" stroke-width="5.0" stroke-linecap="round" stroke-linejoin="round" />
<path d="M 149.0 108.0 L 149.0 108.0 L 148.0 108.0 L 147.0 108.0 L 147.0 115.0 L 149.0 135.0 L 153.0 162.0 L 154.0 182.0 L 154.0 194.0 L 153.0 199.0 L 152.0 200.0 " stroke="black" fill="none" stroke-width="5.0" stroke-linecap="round" stroke-linejoin="round" />
</svg>