<svg xmlns="http://www.w3.org/2000/svg" width="300" height="300" viewBox="0 0 300 300">
<path d="M 153.0 95.0 L 153.0 95.0 L 154.0 95.0 L 154.0 95.0 L 154.0 95.0 L 153.0 97.0 L 149.0 102.0 L 143.0 109.0 L 142.0 110.0 " stroke="black" fill="none" stroke-width="5.0" stroke-linecap="round" stroke-linejoin="round" />
<path d="M 147.0 108.0 L 147.0 108.0 L 147.0 108.0 L 147.0 108.0 L 148.0 108.0 L 151.0 108.0 L 156.0 107.0 L 161.0 107.0 L 164.0 107.0 L 165.0 107.0 L 164.0 111.0 L 159.0 117.0 L 153.0 124.0 L 151.0 126.0 " stroke="black" fill="none" stroke-width="5.0" stroke-linecap="round" stroke-linejoin="round" />
<path d="M 134.0 133.0 L 134.0 133.0 L 134.0 133.0 L 134.0 133.0 L 134.0 136.0 L 134.0 143.0 L 131.0 156.0 L 127.0 173.0 L 124.0 186.0 L 123.0 189.0 L 123.0 189.0 " stroke="black" fill="none" stroke-width="5.0" stroke-linecap="round" stroke-linejoin="round" />
<path d="M 137.0 129.0 L 137.0 129.0 L 137.0 129.0 L 138.0 129.0 L 141.0 128.0 L 147.0 127.0 L 155.0 126.0 L 163.0 126.0 L 168.0 126.0 L 172.0 127.0 L 174.0 129.0 L 177.0 133.0 L 179.0 140.0 L 182.0 154.0 L 184.0 169.0 L 186.0 183.0 L 187.0 191.0 L 187.0 195.0 L 185.0 196.0 L 181.0 196.0 L 174.0 195.0 L 169.0 193.0 " stroke="black" fill="none" stroke-width="5.0" stroke-linecap="round" stroke-linejoin="round" />
<path d="M 139.0 142.0 L 139.0 142.0 L 139.0 142.0 L 139.0 142.0 L 144.0 142.0 L 153.0 141.0 L 159.0 141.0 L 164.0 140.0 L 171.0 140.0 " stroke="black" fill="none" stroke-width="5.0" stroke-linecap="round" stroke-linejoin="round" />
<path d="M 133.0 159.0 L 133.0 159.0 L 133.0 159.0 L 134.0 159.0 L 139.0 159.0 L 149.0 158.0 L 161.0 156.0 L 172.0 156.0 " stroke="black" fill="none" stroke-width="5.0" stroke-linecap="round" stroke-linejoin="round" />
<path d="M 153.0 127.0 L 153.0 127.0 L 153.0 127.0 L 153.0 130.0 L 155.0 138.0 L 156.0 148.0 L 156.0 155.0 " stroke="black" fill="none" stroke-width="5.0" stroke-linecap="round" stroke-linejoin="round" />
</svg>