<svg xmlns="http://www.w3.org/2000/svg" width="300" height="300" viewBox="0 0 300 300">
<path d="M 126.0 115.0 L 126.0 115.0 L 126.0 115.0 L 126.0 115.0 L 127.0 115.0 L 133.0 115.0 L 145.0 115.0 L 157.0 115.0 L 167.0 114.0 L 173.0 114.0 L 174.0 114.0 L 174.0 114.0 " stroke="black" fill="none" stroke-width="5.0" stroke-linecap="round" stroke-linejoin="round" />
<path d="M 143.0 124.0 L 143.0 124.0 L 143.0 124.0 L 142.0 124.0 L 142.0 125.0 L 141.0 129.0 L 140.0 142.0 L 137.0 162.0 L 133.0 180.0 L 131.0 189.0 L 131.0 191.0 L 131.0 191.0 " stroke="black" fill="none" stroke-width="5.0" stroke-linecap="round" stroke-linejoin="round" />
<path d="M 115.0 194.0 L 117.0 194.0 L 120.0 194.0 L 124.0 193.0 L 133.0 193.0 L 142.0 192.0 L 150.0 190.0 L 152.0 190.0 " stroke="black" fill="none" stroke-width="5.0" stroke-linecap="round" stroke-linejoin="round" />
<path d="M 151.0 163.0 L 151.0 163.0 L 151.0 165.0 L 152.0 167.0 L 153.0 171.0 L 155.0 175.0 " stroke="black" fill="none" stroke-width="5.0" stroke-linecap="round" stroke-linejoin="round" />
<path d="M 144.0 144.0 L 144.0 144.0 L 144.0 144.0 L 144.0 144.0 L 145.0 144.0 L 149.0 144.0 L 156.0 144.0 L 162.0 143.0 L 168.0 143.0 L 170.0 143.0 L 171.0 148.0 L 172.0 159.0 L 173.0 171.0 L 177.0 182.0 L 182.0 190.0 L 187.0 193.0 L 192.0 195.0 L 197.0 195.0 L 201.0 196.0 L 203.0 195.0 L 204.0 193.0 " stroke="black" fill="none" stroke-width="5.0" stroke-linecap="round" stroke-linejoin="round" />
</svg>