<svg xmlns="http://www.w3.org/2000/svg" width="300" height="300" viewBox="0 0 300 300">
<path d="M 113.0 124.0 L 114.0 124.0 L 115.0 124.0 L 115.0 124.0 L 115.0 125.0 L 115.0 128.0 L 115.0 133.0 L 114.0 139.0 L 113.0 145.0 L 113.0 148.0 L 115.0 150.0 L 121.0 150.0 L 130.0 150.0 L 141.0 149.0 L 152.0 149.0 L 160.0 148.0 L 167.0 147.0 L 170.0 147.0 L 171.0 147.0 " stroke="black" fill="none" stroke-width="5.0" stroke-linecap="round" stroke-linejoin="round" />
<path d="M 165.0 124.0 L 167.0 126.0 L 168.0 130.0 L 169.0 137.0 L 171.0 145.0 L 172.0 152.0 " stroke="black" fill="none" stroke-width="5.0" stroke-linecap="round" stroke-linejoin="round" />
<path d="M 137.0 104.0 L 137.0 104.0 L 137.0 104.0 L 138.0 107.0 L 140.0 115.0 L 142.0 132.0 L 143.0 153.0 L 142.0 173.0 L 139.0 187.0 L 137.0 192.0 " stroke="black" fill="none" stroke-width="5.0" stroke-linecap="round" stroke-linejoin="round" />
</svg>