<svg xmlns="http://www.w3.org/2000/svg" width="300" height="300" viewBox="0 0 300 300">
<path d="M 160.0 100.0 L 160.0 100.0 L 160.0 100.0 L 160.0 100.0 L 160.0 100.0 L 159.0 100.0 L 154.0 105.0 L 142.0 114.0 L 132.0 122.0 " stroke="black" fill="none" stroke-width="5.0" stroke-linecap="round" stroke-linejoin="round" />
<path d="M 135.0 137.0 L 135.0 137.0 L 137.0 137.0 L 140.0 137.0 L 147.0 137.0 L 155.0 137.0 L 161.0 137.0 " stroke="black" fill="none" stroke-width="5.0" stroke-linecap="round" stroke-linejoin="round" />
<path d="M 107.0 163.0 L 107.0 163.0 L 107.0 164.0 L 110.0 165.0 L 121.0 165.0 L 141.0 164.0 L 160.0 164.0 L 176.0 164.0 L 185.0 164.0 L 185.0 164.0 " stroke="black" fill="none" stroke-width="5.0" stroke-linecap="round" stroke-linejoin="round" />
<path d="M 146.0 122.0 L 146.0 122.0 L 146.0 122.0 L 146.0 122.0 L 146.0 122.0 L 146.0 125.0 L 146.0 133.0 L 145.0 149.0 L 144.0 166.0 L 143.0 180.0 L 142.0 191.0 L 144.0 198.0 L 149.0 202.0 L 156.0 203.0 L 165.0 204.0 L 175.0 206.0 L 184.0 207.0 L 191.0 208.0 L 194.0 207.0 L 195.0 203.0 L 195.0 198.0 L 194.0 190.0 " stroke="black" fill="none" stroke-width="5.0" stroke-linecap="round" stroke-linejoin="round" />
</svg>