<svg xmlns="http://www.w3.org/2000/svg" width="300" height="300" viewBox="0 0 300 300">
<path d="M 128.0 113.0 L 128.0 113.0 L 128.0 114.0 L 127.0 114.0 L 127.0 116.0 L 127.0 120.0 L 127.0 126.0 L 127.0 131.0 L 128.0 132.0 " stroke="black" fill="none" stroke-width="5.0" stroke-linecap="round" stroke-linejoin="round" />
<path d="M 130.0 113.0 L 130.0 113.0 L 130.0 113.0 L 133.0 112.0 L 139.0 112.0 L 147.0 111.0 L 155.0 111.0 L 160.0 111.0 L 163.0 113.0 L 165.0 115.0 L 167.0 121.0 L 167.0 128.0 L 167.0 133.0 L 167.0 137.0 L 166.0 138.0 L 165.0 139.0 " stroke="black" fill="none" stroke-width="5.0" stroke-linecap="round" stroke-linejoin="round" />
<path d="M 130.0 136.0 L 130.0 136.0 L 130.0 136.0 L 130.0 137.0 L 131.0 137.0 L 138.0 137.0 L 148.0 136.0 L 156.0 135.0 L 161.0 135.0 L 162.0 135.0 " stroke="black" fill="none" stroke-width="5.0" stroke-linecap="round" stroke-linejoin="round" />
<path d="M 146.0 143.0 L 146.0 143.0 L 146.0 143.0 L 145.0 146.0 L 146.0 154.0 L 148.0 166.0 L 149.0 176.0 L 149.0 183.0 L 149.0 185.0 L 149.0 185.0 " stroke="black" fill="none" stroke-width="5.0" stroke-linecap="round" stroke-linejoin="round" />
<path d="M 150.0 164.0 L 150.0 165.0 L 151.0 165.0 L 152.0 166.0 L 157.0 166.0 L 163.0 166.0 L 167.0 166.0 L 169.0 166.0 " stroke="black" fill="none" stroke-width="5.0" stroke-linecap="round" stroke-linejoin="round" />
<path d="M 124.0 155.0 L 124.0 155.0 L 124.0 155.0 L 124.0 156.0 L 124.0 163.0 L 122.0 175.0 L 119.0 185.0 L 117.0 189.0 " stroke="black" fill="none" stroke-width="5.0" stroke-linecap="round" stroke-linejoin="round" />
<path d="M 125.0 177.0 L 126.0 177.0 L 128.0 178.0 L 134.0 181.0 L 146.0 184.0 L 159.0 187.0 L 171.0 190.0 L 180.0 191.0 L 184.0 192.0 L 187.0 192.0 L 187.0 192.0 L 187.0 192.0 L 187.0 191.0 " stroke="black" fill="none" stroke-width="5.0" stroke-linecap="round" stroke-linejoin="round" />
</svg>