<svg xmlns="http://www.w3.org/2000/svg" width="300" height="300" viewBox="0 0 300 300">
<path d="M 117.0 131.0 L 117.0 133.0 L 117.0 138.0 L 117.0 146.0 L 119.0 153.0 L 121.0 157.0 L 121.0 157.0 " stroke="black" fill="none" stroke-width="5.0" stroke-linecap="round" stroke-linejoin="round" />
<path d="M 119.0 134.0 L 119.0 134.0 L 120.0 134.0 L 123.0 133.0 L 133.0 131.0 L 147.0 130.0 L 161.0 130.0 L 171.0 130.0 L 177.0 131.0 L 181.0 136.0 L 183.0 143.0 L 184.0 150.0 L 184.0 156.0 L 183.0 160.0 L 182.0 161.0 " stroke="black" fill="none" stroke-width="5.0" stroke-linecap="round" stroke-linejoin="round" />
<path d="M 115.0 165.0 L 116.0 165.0 L 117.0 165.0 L 125.0 165.0 L 142.0 163.0 L 160.0 161.0 L 172.0 161.0 L 176.0 161.0 " stroke="black" fill="none" stroke-width="5.0" stroke-linecap="round" stroke-linejoin="round" />
<path d="M 145.0 111.0 L 145.0 111.0 L 145.0 110.0 L 145.0 110.0 L 145.0 118.0 L 146.0 137.0 L 149.0 160.0 L 150.0 177.0 L 151.0 186.0 L 152.0 188.0 L 152.0 188.0 " stroke="black" fill="none" stroke-width="5.0" stroke-linecap="round" stroke-linejoin="round" />
<path d="M 117.0 193.0 L 118.0 193.0 L 119.0 194.0 L 124.0 194.0 L 135.0 194.0 L 152.0 194.0 L 169.0 193.0 L 180.0 193.0 L 185.0 193.0 " stroke="black" fill="none" stroke-width="5.0" stroke-linecap="round" stroke-linejoin="round" />
<path d="M 184.0 184.0 L 184.0 184.0 L 185.0 184.0 L 188.0 188.0 L 191.0 197.0 L 195.0 206.0 L 196.0 209.0 " stroke="black" fill="none" stroke-width="5.0" stroke-linecap="round" stroke-linejoin="round" />
</svg>