<svg xmlns="http://www.w3.org/2000/svg" width="300" height="300" viewBox="0 0 300 300">
<path d="M 129.0 106.0 L 129.0 106.0 L 129.0 106.0 L 129.0 106.0 L 131.0 106.0 L 138.0 106.0 L 148.0 105.0 L 157.0 105.0 L 162.0 105.0 L 164.0 106.0 L 164.0 106.0 L 163.0 108.0 L 161.0 112.0 L 159.0 118.0 L 155.0 123.0 L 154.0 125.0 " stroke="black" fill="none" stroke-width="5.0" stroke-linecap="round" stroke-linejoin="round" />
<path d="M 144.0 122.0 L 144.0 122.0 L 144.0 123.0 L 144.0 123.0 L 145.0 125.0 L 148.0 128.0 L 153.0 131.0 L 155.0 132.0 " stroke="black" fill="none" stroke-width="5.0" stroke-linecap="round" stroke-linejoin="round" />
<path d="M 113.0 135.0 L 113.0 135.0 L 113.0 135.0 L 114.0 134.0 L 116.0 134.0 L 125.0 134.0 L 143.0 134.0 L 161.0 133.0 L 176.0 132.0 L 185.0 132.0 L 187.0 132.0 L 187.0 134.0 L 185.0 138.0 L 181.0 142.0 L 177.0 146.0 " stroke="black" fill="none" stroke-width="5.0" stroke-linecap="round" stroke-linejoin="round" />
<path d="M 151.0 137.0 L 151.0 136.0 L 151.0 135.0 L 151.0 135.0 L 152.0 134.0 L 153.0 134.0 L 155.0 141.0 L 159.0 156.0 L 162.0 176.0 L 164.0 190.0 L 164.0 196.0 L 164.0 197.0 L 159.0 197.0 L 152.0 196.0 L 142.0 192.0 L 135.0 188.0 " stroke="black" fill="none" stroke-width="5.0" stroke-linecap="round" stroke-linejoin="round" />
<path d="M 153.0 139.0 L 153.0 139.0 L 153.0 140.0 L 151.0 142.0 L 147.0 148.0 L 138.0 160.0 L 123.0 175.0 L 110.0 188.0 L 103.0 193.0 " stroke="black" fill="none" stroke-width="5.0" stroke-linecap="round" stroke-linejoin="round" />
</svg>