<svg xmlns="http://www.w3.org/2000/svg" width="300" height="300" viewBox="0 0 300 300">
<path d="M 141.0 99.0 L 141.0 99.0 L 141.0 99.0 L 141.0 99.0 L 141.0 101.0 L 144.0 105.0 L 148.0 110.0 L 149.0 112.0 " stroke="black" fill="none" stroke-width="5.0" stroke-linecap="round" stroke-linejoin="round" />
<path d="M 121.0 122.0 L 121.0 122.0 L 122.0 123.0 L 124.0 123.0 L 134.0 123.0 L 150.0 123.0 L 165.0 121.0 L 172.0 121.0 L 172.0 121.0 " stroke="black" fill="none" stroke-width="5.0" stroke-linecap="round" stroke-linejoin="round" />
<path d="M 119.0 125.0 L 119.0 126.0 L 118.0 128.0 L 118.0 132.0 L 117.0 141.0 L 115.0 155.0 L 113.0 173.0 L 109.0 189.0 L 106.0 198.0 L 105.0 203.0 L 104.0 204.0 " stroke="black" fill="none" stroke-width="5.0" stroke-linecap="round" stroke-linejoin="round" />
<path d="M 123.0 140.0 L 123.0 140.0 L 123.0 140.0 L 123.0 140.0 L 124.0 140.0 L 129.0 140.0 L 137.0 139.0 L 148.0 139.0 L 157.0 138.0 L 163.0 137.0 L 167.0 137.0 L 169.0 137.0 L 169.0 139.0 L 170.0 142.0 L 171.0 147.0 L 171.0 151.0 L 172.0 154.0 L 172.0 155.0 " stroke="black" fill="none" stroke-width="5.0" stroke-linecap="round" stroke-linejoin="round" />
<path d="M 122.0 156.0 L 122.0 156.0 L 123.0 157.0 L 126.0 157.0 L 134.0 157.0 L 147.0 157.0 L 159.0 156.0 L 168.0 156.0 L 171.0 155.0 L 171.0 155.0 " stroke="black" fill="none" stroke-width="5.0" stroke-linecap="round" stroke-linejoin="round" />
<path d="M 141.0 125.0 L 141.0 125.0 L 141.0 126.0 L 141.0 128.0 L 141.0 133.0 L 142.0 143.0 L 142.0 152.0 L 142.0 154.0 " stroke="black" fill="none" stroke-width="5.0" stroke-linecap="round" stroke-linejoin="round" />
<path d="M 153.0 125.0 L 153.0 126.0 L 153.0 128.0 L 153.0 132.0 L 154.0 140.0 L 156.0 147.0 L 156.0 153.0 " stroke="black" fill="none" stroke-width="5.0" stroke-linecap="round" stroke-linejoin="round" />
<path d="M 128.0 167.0 L 128.0 167.0 L 128.0 167.0 L 128.0 167.0 L 128.0 167.0 L 128.0 172.0 L 128.0 183.0 L 127.0 196.0 L 129.0 204.0 L 134.0 207.0 L 140.0 206.0 L 145.0 203.0 L 147.0 202.0 " stroke="black" fill="none" stroke-width="5.0" stroke-linecap="round" stroke-linejoin="round" />
<path d="M 130.0 187.0 L 131.0 186.0 L 133.0 186.0 L 138.0 186.0 L 145.0 185.0 L 148.0 184.0 " stroke="black" fill="none" stroke-width="5.0" stroke-linecap="round" stroke-linejoin="round" />
<path d="M 154.0 164.0 L 154.0 164.0 L 154.0 164.0 L 154.0 164.0 L 153.0 167.0 L 153.0 174.0 L 155.0 186.0 L 158.0 197.0 L 161.0 206.0 L 167.0 210.0 L 174.0 210.0 L 179.0 209.0 L 183.0 206.0 L 185.0 202.0 L 185.0 202.0 " stroke="black" fill="none" stroke-width="5.0" stroke-linecap="round" stroke-linejoin="round" />
<path d="M 155.0 183.0 L 155.0 183.0 L 156.0 183.0 L 162.0 183.0 L 174.0 183.0 L 182.0 183.0 " stroke="black" fill="none" stroke-width="5.0" stroke-linecap="round" stroke-linejoin="round" />
</svg>