<svg xmlns="http://www.w3.org/2000/svg" width="300" height="300" viewBox="0 0 300 300">
<path d="M 142.0 112.0 L 142.0 112.0 L 142.0 112.0 L 142.0 112.0 L 142.0 113.0 L 141.0 116.0 L 138.0 126.0 L 130.0 141.0 L 120.0 155.0 L 113.0 161.0 L 112.0 161.0 " stroke="black" fill="none" stroke-width="5.0" stroke-linecap="round" stroke-linejoin="round" />
<path d="M 139.0 134.0 L 139.0 134.0 L 139.0 134.0 L 139.0 134.0 L 141.0 134.0 L 145.0 134.0 L 153.0 134.0 L 159.0 134.0 L 163.0 134.0 L 165.0 135.0 L 165.0 139.0 L 165.0 143.0 L 162.0 150.0 L 158.0 158.0 L 150.0 167.0 L 141.0 176.0 L 131.0 181.0 L 124.0 183.0 " stroke="black" fill="none" stroke-width="5.0" stroke-linecap="round" stroke-linejoin="round" />
<path d="M 127.0 128.0 L 127.0 128.0 L 127.0 128.0 L 128.0 130.0 L 133.0 137.0 L 143.0 152.0 L 157.0 170.0 L 171.0 187.0 L 181.0 198.0 L 188.0 203.0 L 191.0 204.0 " stroke="black" fill="none" stroke-width="5.0" stroke-linecap="round" stroke-linejoin="round" />
</svg>