<svg xmlns="http://www.w3.org/2000/svg" width="300" height="300" viewBox="0 0 300 300">
<path d="M 134.0 111.0 L 134.0 111.0 L 134.0 111.0 L 134.0 111.0 L 133.0 112.0 L 133.0 118.0 L 133.0 135.0 L 133.0 156.0 L 133.0 170.0 L 132.0 178.0 L 135.0 183.0 L 141.0 186.0 L 148.0 188.0 L 156.0 188.0 L 161.0 188.0 L 163.0 187.0 " stroke="black" fill="none" stroke-width="5.0" stroke-linecap="round" stroke-linejoin="round" />
<path d="M 164.0 114.0 L 164.0 115.0 L 164.0 117.0 L 164.0 120.0 L 164.0 127.0 L 167.0 140.0 L 169.0 158.0 L 170.0 175.0 L 171.0 182.0 L 171.0 183.0 " stroke="black" fill="none" stroke-width="5.0" stroke-linecap="round" stroke-linejoin="round" />
<path d="M 107.0 134.0 L 107.0 134.0 L 108.0 134.0 L 111.0 134.0 L 126.0 134.0 L 151.0 136.0 L 173.0 137.0 L 186.0 137.0 L 189.0 137.0 L 188.0 138.0 L 186.0 139.0 " stroke="black" fill="none" stroke-width="5.0" stroke-linecap="round" stroke-linejoin="round" />
<path d="M 139.0 156.0 L 139.0 156.0 L 139.0 156.0 L 139.0 156.0 L 143.0 156.0 L 153.0 157.0 L 165.0 157.0 L 168.0 157.0 " stroke="black" fill="none" stroke-width="5.0" stroke-linecap="round" stroke-linejoin="round" />
</svg>