<svg xmlns="http://www.w3.org/2000/svg" width="300" height="300" viewBox="0 0 300 300">
<path d="M 135.0 106.0 L 136.0 106.0 L 136.0 106.0 L 137.0 106.0 L 137.0 108.0 L 137.0 113.0 L 132.0 123.0 L 122.0 137.0 L 112.0 147.0 " stroke="black" fill="none" stroke-width="5.0" stroke-linecap="round" stroke-linejoin="round" />
<path d="M 135.0 124.0 L 135.0 124.0 L 134.0 124.0 L 134.0 125.0 L 135.0 125.0 L 142.0 125.0 L 153.0 124.0 L 165.0 122.0 L 172.0 122.0 " stroke="black" fill="none" stroke-width="5.0" stroke-linecap="round" stroke-linejoin="round" />
<path d="M 109.0 162.0 L 109.0 162.0 L 109.0 162.0 L 109.0 162.0 L 113.0 162.0 L 128.0 161.0 L 149.0 160.0 L 166.0 159.0 L 179.0 158.0 " stroke="black" fill="none" stroke-width="5.0" stroke-linecap="round" stroke-linejoin="round" />
<path d="M 152.0 97.0 L 152.0 97.0 L 152.0 97.0 L 152.0 98.0 L 152.0 105.0 L 153.0 124.0 L 154.0 153.0 L 155.0 179.0 L 155.0 192.0 L 155.0 197.0 L 155.0 199.0 L 155.0 199.0 L 155.0 196.0 L 155.0 191.0 L 155.0 189.0 " stroke="black" fill="none" stroke-width="5.0" stroke-linecap="round" stroke-linejoin="round" />
</svg>