<svg xmlns="http://www.w3.org/2000/svg" width="300" height="300" viewBox="0 0 300 300">
<path d="M 128.0 109.0 L 128.0 109.0 L 129.0 108.0 L 130.0 107.0 L 130.0 106.0 L 131.0 105.0 L 131.0 105.0 L 131.0 106.0 L 128.0 113.0 L 124.0 124.0 L 118.0 137.0 L 114.0 145.0 L 112.0 147.0 " stroke="black" fill="none" stroke-width="5.0" stroke-linecap="round" stroke-linejoin="round" />
<path d="M 129.0 123.0 L 129.0 123.0 L 129.0 123.0 L 129.0 123.0 L 130.0 123.0 L 134.0 123.0 L 143.0 122.0 L 152.0 121.0 L 160.0 120.0 L 165.0 120.0 L 167.0 120.0 L 168.0 121.0 L 170.0 124.0 L 172.0 131.0 L 175.0 143.0 L 179.0 160.0 L 182.0 175.0 L 184.0 187.0 L 185.0 193.0 L 185.0 195.0 L 182.0 196.0 L 173.0 197.0 L 159.0 196.0 L 150.0 194.0 " stroke="black" fill="none" stroke-width="5.0" stroke-linecap="round" stroke-linejoin="round" />
</svg>