<svg xmlns="http://www.w3.org/2000/svg" width="300" height="300" viewBox="0 0 300 300">
<path d="M 136.0 105.0 L 136.0 105.0 L 136.0 105.0 L 136.0 105.0 L 136.0 106.0 L 136.0 112.0 L 134.0 123.0 L 129.0 134.0 L 127.0 137.0 " stroke="black" fill="none" stroke-width="5.0" stroke-linecap="round" stroke-linejoin="round" />
<path d="M 144.0 101.0 L 144.0 101.0 L 144.0 101.0 L 145.0 101.0 L 147.0 101.0 L 153.0 101.0 L 161.0 101.0 L 168.0 101.0 L 171.0 103.0 L 171.0 109.0 L 170.0 118.0 L 169.0 128.0 L 171.0 133.0 L 178.0 135.0 L 184.0 133.0 " stroke="black" fill="none" stroke-width="5.0" stroke-linecap="round" stroke-linejoin="round" />
<path d="M 141.0 148.0 L 142.0 148.0 L 143.0 148.0 L 146.0 147.0 L 151.0 146.0 L 158.0 146.0 L 165.0 146.0 L 170.0 146.0 L 171.0 149.0 L 170.0 153.0 L 166.0 160.0 L 160.0 168.0 L 152.0 179.0 L 142.0 189.0 L 132.0 195.0 L 126.0 197.0 " stroke="black" fill="none" stroke-width="5.0" stroke-linecap="round" stroke-linejoin="round" />
<path d="M 129.0 156.0 L 130.0 157.0 L 133.0 161.0 L 137.0 165.0 L 146.0 173.0 L 160.0 184.0 L 178.0 194.0 L 190.0 200.0 L 196.0 203.0 L 196.0 204.0 " stroke="black" fill="none" stroke-width="5.0" stroke-linecap="round" stroke-linejoin="round" />
</svg>