<svg xmlns="http://www.w3.org/2000/svg" width="300" height="300" viewBox="0 0 300 300">
<path d="M 167.0 104.0 L 167.0 104.0 L 167.0 104.0 L 167.0 104.0 L 165.0 104.0 L 161.0 108.0 L 151.0 115.0 L 139.0 123.0 L 136.0 124.0 " stroke="black" fill="none" stroke-width="5.0" stroke-linecap="round" stroke-linejoin="round" />
<path d="M 142.0 133.0 L 142.0 133.0 L 144.0 133.0 L 146.0 133.0 L 151.0 132.0 L 158.0 130.0 L 164.0 128.0 L 167.0 127.0 " stroke="black" fill="none" stroke-width="5.0" stroke-linecap="round" stroke-linejoin="round" />
<path d="M 112.0 156.0 L 112.0 156.0 L 112.0 156.0 L 113.0 156.0 L 122.0 156.0 L 141.0 155.0 L 160.0 154.0 L 175.0 153.0 L 184.0 153.0 L 187.0 152.0 " stroke="black" fill="none" stroke-width="5.0" stroke-linecap="round" stroke-linejoin="round" />
<path d="M 153.0 105.0 L 153.0 106.0 L 153.0 108.0 L 153.0 116.0 L 156.0 133.0 L 159.0 157.0 L 160.0 177.0 L 161.0 188.0 L 161.0 191.0 L 161.0 192.0 " stroke="black" fill="none" stroke-width="5.0" stroke-linecap="round" stroke-linejoin="round" />
<path d="M 156.0 160.0 L 156.0 161.0 L 155.0 161.0 L 152.0 163.0 L 147.0 168.0 L 138.0 175.0 L 127.0 182.0 L 118.0 187.0 L 116.0 188.0 " stroke="black" fill="none" stroke-width="5.0" stroke-linecap="round" stroke-linejoin="round" />
<path d="M 157.0 165.0 L 160.0 165.0 L 163.0 166.0 L 168.0 167.0 L 173.0 171.0 L 181.0 176.0 L 190.0 182.0 L 196.0 187.0 L 201.0 192.0 L 204.0 195.0 L 205.0 196.0 " stroke="black" fill="none" stroke-width="5.0" stroke-linecap="round" stroke-linejoin="round" />
</svg>