<svg xmlns="http://www.w3.org/2000/svg" width="300" height="300" viewBox="0 0 300 300">
<path d="M 119.0 117.0 L 119.0 117.0 L 119.0 117.0 L 119.0 117.0 L 119.0 117.0 L 119.0 121.0 L 119.0 136.0 L 118.0 160.0 L 116.0 180.0 L 116.0 185.0 L 117.0 183.0 " stroke="black" fill="none" stroke-width="5.0" stroke-linecap="round" stroke-linejoin="round" />
<path d="M 122.0 117.0 L 124.0 117.0 L 125.0 117.0 L 128.0 117.0 L 134.0 117.0 L 145.0 117.0 L 156.0 116.0 L 167.0 116.0 L 174.0 118.0 L 179.0 121.0 L 183.0 128.0 L 188.0 139.0 L 191.0 152.0 L 195.0 166.0 L 197.0 177.0 L 198.0 185.0 L 198.0 191.0 L 198.0 194.0 L 195.0 196.0 L 189.0 196.0 L 179.0 192.0 L 176.0 190.0 " stroke="black" fill="none" stroke-width="5.0" stroke-linecap="round" stroke-linejoin="round" />
<path d="M 152.0 105.0 L 152.0 105.0 L 152.0 105.0 L 151.0 106.0 L 151.0 109.0 L 149.0 114.0 L 146.0 123.0 L 143.0 134.0 L 140.0 144.0 L 139.0 150.0 L 142.0 152.0 L 148.0 152.0 L 156.0 151.0 L 162.0 149.0 L 165.0 148.0 " stroke="black" fill="none" stroke-width="5.0" stroke-linecap="round" stroke-linejoin="round" />
<path d="M 162.0 139.0 L 163.0 140.0 L 164.0 143.0 L 168.0 152.0 L 174.0 164.0 L 178.0 171.0 L 179.0 172.0 " stroke="black" fill="none" stroke-width="5.0" stroke-linecap="round" stroke-linejoin="round" />
</svg>