<svg xmlns="http://www.w3.org/2000/svg" width="300" height="300" viewBox="0 0 300 300">
<path d="M 147.0 106.0 L 147.0 106.0 L 147.0 106.0 L 147.0 106.0 L 147.0 106.0 L 147.0 107.0 L 147.0 111.0 L 147.0 117.0 L 147.0 125.0 L 147.0 133.0 L 147.0 140.0 L 147.0 146.0 L 147.0 152.0 L 147.0 156.0 L 146.0 160.0 L 146.0 163.0 L 146.0 167.0 L 146.0 171.0 L 146.0 174.0 L 146.0 178.0 L 145.0 181.0 L 145.0 184.0 L 145.0 186.0 L 145.0 189.0 L 144.0 191.0 L 142.0 193.0 L 141.0 194.0 L 138.0 195.0 L 134.0 195.0 L 129.0 195.0 L 123.0 195.0 " stroke="black" fill="none" stroke-width="5.0" stroke-linecap="round" stroke-linejoin="round" />
</svg>