<svg xmlns="http://www.w3.org/2000/svg" width="300" height="300" viewBox="0 0 300 300">
<path d="M 128.0 114.0 L 128.0 114.0 L 129.0 114.0 L 130.0 114.0 L 134.0 114.0 L 141.0 114.0 L 150.0 113.0 L 160.0 112.0 L 166.0 112.0 L 169.0 112.0 L 169.0 113.0 L 169.0 115.0 L 170.0 119.0 L 172.0 126.0 L 174.0 133.0 L 175.0 139.0 L 175.0 142.0 " stroke="black" fill="none" stroke-width="5.0" stroke-linecap="round" stroke-linejoin="round" />
<path d="M 103.0 130.0 L 103.0 130.0 L 103.0 130.0 L 105.0 130.0 L 114.0 129.0 L 131.0 127.0 L 150.0 126.0 L 164.0 126.0 L 176.0 126.0 L 184.0 126.0 L 186.0 126.0 L 186.0 126.0 L 185.0 127.0 " stroke="black" fill="none" stroke-width="5.0" stroke-linecap="round" stroke-linejoin="round" />
<path d="M 125.0 142.0 L 125.0 142.0 L 125.0 142.0 L 127.0 142.0 L 132.0 142.0 L 143.0 142.0 L 156.0 140.0 L 166.0 139.0 L 170.0 139.0 L 171.0 140.0 " stroke="black" fill="none" stroke-width="5.0" stroke-linecap="round" stroke-linejoin="round" />
<path d="M 133.0 155.0 L 135.0 155.0 L 137.0 155.0 L 143.0 155.0 L 152.0 155.0 L 161.0 155.0 L 168.0 154.0 L 169.0 154.0 " stroke="black" fill="none" stroke-width="5.0" stroke-linecap="round" stroke-linejoin="round" />
<path d="M 115.0 176.0 L 115.0 176.0 L 116.0 176.0 L 119.0 177.0 L 129.0 177.0 L 146.0 176.0 L 165.0 173.0 L 178.0 172.0 L 187.0 172.0 L 189.0 172.0 " stroke="black" fill="none" stroke-width="5.0" stroke-linecap="round" stroke-linejoin="round" />
<path d="M 145.0 102.0 L 145.0 101.0 L 145.0 101.0 L 145.0 101.0 L 146.0 103.0 L 148.0 118.0 L 153.0 145.0 L 157.0 174.0 L 159.0 192.0 L 160.0 203.0 L 163.0 209.0 L 163.0 212.0 L 163.0 212.0 L 163.0 211.0 " stroke="black" fill="none" stroke-width="5.0" stroke-linecap="round" stroke-linejoin="round" />
</svg>