<svg xmlns="http://www.w3.org/2000/svg" width="300" height="300" viewBox="0 0 300 300">
<path d="M 131.0 107.0 L 131.0 107.0 L 130.0 108.0 L 129.0 110.0 L 128.0 116.0 L 127.0 128.0 L 127.0 141.0 L 127.0 147.0 L 128.0 148.0 L 129.0 148.0 " stroke="black" fill="none" stroke-width="5.0" stroke-linecap="round" stroke-linejoin="round" />
<path d="M 136.0 105.0 L 137.0 105.0 L 139.0 105.0 L 142.0 104.0 L 149.0 104.0 L 156.0 103.0 L 162.0 103.0 L 166.0 107.0 L 168.0 115.0 L 168.0 126.0 L 168.0 136.0 L 168.0 143.0 L 168.0 146.0 " stroke="black" fill="none" stroke-width="5.0" stroke-linecap="round" stroke-linejoin="round" />
<path d="M 135.0 124.0 L 135.0 124.0 L 135.0 125.0 L 137.0 125.0 L 141.0 125.0 L 149.0 125.0 L 156.0 125.0 L 160.0 125.0 " stroke="black" fill="none" stroke-width="5.0" stroke-linecap="round" stroke-linejoin="round" />
<path d="M 129.0 144.0 L 128.0 146.0 L 128.0 147.0 L 131.0 147.0 L 140.0 146.0 L 152.0 144.0 L 161.0 143.0 " stroke="black" fill="none" stroke-width="5.0" stroke-linecap="round" stroke-linejoin="round" />
<path d="M 148.0 108.0 L 148.0 109.0 L 147.0 110.0 L 147.0 112.0 L 147.0 117.0 L 147.0 130.0 L 147.0 149.0 L 147.0 166.0 L 146.0 176.0 L 146.0 181.0 L 146.0 185.0 L 146.0 185.0 L 146.0 184.0 L 146.0 182.0 " stroke="black" fill="none" stroke-width="5.0" stroke-linecap="round" stroke-linejoin="round" />
<path d="M 129.0 168.0 L 129.0 168.0 L 129.0 168.0 L 130.0 168.0 L 134.0 168.0 L 143.0 168.0 L 152.0 168.0 L 158.0 168.0 L 161.0 168.0 L 161.0 168.0 L 160.0 168.0 " stroke="black" fill="none" stroke-width="5.0" stroke-linecap="round" stroke-linejoin="round" />
<path d="M 110.0 190.0 L 110.0 190.0 L 112.0 190.0 L 116.0 191.0 L 126.0 191.0 L 140.0 191.0 L 155.0 191.0 L 166.0 192.0 L 174.0 192.0 L 179.0 192.0 L 180.0 192.0 L 180.0 192.0 L 179.0 192.0 " stroke="black" fill="none" stroke-width="5.0" stroke-linecap="round" stroke-linejoin="round" />
</svg>