<svg xmlns="http://www.w3.org/2000/svg" width="300" height="300" viewBox="0 0 300 300">
<path d="M 126.0 115.0 L 126.0 115.0 L 126.0 115.0 L 127.0 115.0 L 131.0 115.0 L 138.0 115.0 L 147.0 115.0 L 156.0 115.0 L 164.0 115.0 L 171.0 115.0 L 176.0 115.0 L 178.0 115.0 L 178.0 115.0 L 178.0 115.0 L 179.0 117.0 L 180.0 123.0 L 182.0 133.0 L 184.0 147.0 L 186.0 162.0 L 187.0 174.0 L 187.0 184.0 L 187.0 189.0 L 186.0 190.0 L 183.0 191.0 L 175.0 188.0 L 167.0 185.0 " stroke="black" fill="none" stroke-width="5.0" stroke-linecap="round" stroke-linejoin="round" />
<path d="M 148.0 119.0 L 147.0 120.0 L 146.0 123.0 L 144.0 130.0 L 141.0 143.0 L 134.0 161.0 L 128.0 176.0 L 124.0 184.0 L 124.0 185.0 " stroke="black" fill="none" stroke-width="5.0" stroke-linecap="round" stroke-linejoin="round" />
</svg>