<svg xmlns="http://www.w3.org/2000/svg" width="300" height="300" viewBox="0 0 300 300">
<path d="M 194.0 95.0 L 194.0 95.0 L 194.0 95.0 L 194.0 95.0 L 194.0 95.0 L 194.0 95.0 L 195.0 95.0 L 197.0 94.0 L 201.0 94.0 L 205.0 94.0 L 209.0 94.0 L 212.0 94.0 L 214.0 94.0 L 214.0 94.0 L 214.0 94.0 L 214.0 94.0 L 213.0 95.0 L 212.0 97.0 L 210.0 100.0 L 209.0 102.0 L 207.0 105.0 L 206.0 108.0 L 204.0 111.0 L 203.0 115.0 L 202.0 118.0 L 201.0 121.0 L 201.0 125.0 L 200.0 129.0 L 200.0 132.0 L 200.0 136.0 L 200.0 139.0 L 200.0 143.0 L 200.0 146.0 L 200.0 150.0 L 200.0 154.0 L 201.0 158.0 L 202.0 162.0 L 202.0 165.0 L 203.0 169.0 L 204.0 173.0 L 205.0 177.0 L 206.0 181.0 L 208.0 185.0 L 210.0 189.0 L 212.0 192.0 L 214.0 195.0 L 215.0 197.0 L 216.0 199.0 L 216.0 199.0 L 216.0 199.0 " stroke="black" fill="none" stroke-width="5.0" stroke-linecap="round" stroke-linejoin="round" />
<path d="M 190.0 98.0 L 190.0 98.0 L 190.0 99.0 L 189.0 100.0 L 189.0 102.0 L 189.0 107.0 L 189.0 115.0 L 189.0 125.0 L 189.0 135.0 L 190.0 143.0 L 191.0 150.0 L 191.0 156.0 L 191.0 160.0 L 191.0 165.0 L 192.0 170.0 L 192.0 174.0 L 192.0 178.0 L 192.0 181.0 L 192.0 184.0 L 192.0 186.0 L 193.0 189.0 L 193.0 191.0 L 194.0 194.0 L 194.0 196.0 L 194.0 197.0 L 194.0 198.0 L 194.0 199.0 L 194.0 199.0 L 194.0 200.0 L 194.0 200.0 L 194.0 200.0 L 194.0 200.0 L 195.0 200.0 L 196.0 200.0 L 197.0 200.0 L 199.0 200.0 L 201.0 200.0 L 204.0 200.0 L 208.0 200.0 L 211.0 200.0 L 214.0 200.0 L 216.0 200.0 L 216.0 200.0 " stroke="black" fill="none" stroke-width="5.0" stroke-linecap="round" stroke-linejoin="round" />
<path d="M 192.0 104.0 L 192.0 103.0 L 192.0 102.0 L 192.0 102.0 L 192.0 102.0 L 192.0 104.0 L 192.0 110.0 L 193.0 117.0 L 193.0 123.0 L 194.0 125.0 L 194.0 126.0 L 194.0 122.0 L 194.0 115.0 L 194.0 109.0 L 194.0 103.0 L 194.0 100.0 L 194.0 99.0 L 194.0 99.0 L 194.0 103.0 L 194.0 110.0 L 194.0 119.0 L 194.0 127.0 L 194.0 133.0 L 194.0 134.0 L 194.0 131.0 L 194.0 123.0 L 195.0 115.0 L 195.0 108.0 L 195.0 103.0 L 196.0 101.0 L 196.0 100.0 L 196.0 100.0 L 196.0 101.0 L 195.0 103.0 L 195.0 104.0 L 194.0 105.0 L 194.0 106.0 L 193.0 106.0 L 193.0 106.0 L 194.0 104.0 L 196.0 103.0 L 198.0 102.0 L 200.0 101.0 L 202.0 100.0 L 204.0 100.0 L 206.0 100.0 L 207.0 100.0 L 208.0 100.0 L 208.0 100.0 L 208.0 100.0 L 206.0 101.0 L 204.0 102.0 L 202.0 102.0 L 200.0 103.0 L 198.0 104.0 L 197.0 104.0 L 197.0 104.0 L 197.0 104.0 L 198.0 104.0 L 200.0 104.0 L 203.0 103.0 L 204.0 103.0 L 205.0 102.0 L 206.0 102.0 L 206.0 102.0 L 205.0 102.0 L 202.0 103.0 L 200.0 103.0 L 197.0 104.0 L 195.0 104.0 L 194.0 103.0 L 194.0 103.0 L 194.0 102.0 L 194.0 101.0 L 195.0 100.0 L 196.0 100.0 L 198.0 99.0 L 199.0 99.0 L 200.0 99.0 L 202.0 99.0 L 203.0 99.0 L 203.0 99.0 L 204.0 99.0 L 205.0 99.0 L 205.0 99.0 L 205.0 99.0 L 204.0 100.0 L 203.0 100.0 L 202.0 100.0 L 201.0 100.0 L 200.0 101.0 L 200.0 101.0 L 200.0 101.0 L 201.0 100.0 L 203.0 100.0 L 204.0 99.0 L 205.0 99.0 L 205.0 99.0 L 205.0 99.0 L 204.0 101.0 L 202.0 105.0 L 199.0 109.0 L 197.0 113.0 L 196.0 115.0 L 195.0 116.0 L 195.0 116.0 L 195.0 116.0 L 196.0 113.0 L 197.0 111.0 L 198.0 110.0 L 198.0 109.0 L 198.0 109.0 L 198.0 113.0 L 198.0 120.0 L 197.0 129.0 L 196.0 137.0 L 196.0 141.0 L 196.0 142.0 L 196.0 141.0 L 197.0 135.0 L 197.0 128.0 L 197.0 122.0 L 197.0 116.0 L 197.0 113.0 L 197.0 111.0 L 197.0 111.0 L 197.0 113.0 L 197.0 118.0 L 196.0 127.0 L 195.0 139.0 L 195.0 149.0 L 195.0 157.0 L 195.0 159.0 L 195.0 159.0 L 195.0 157.0 L 195.0 151.0 L 195.0 144.0 L 195.0 137.0 L 195.0 131.0 L 195.0 129.0 L 194.0 128.0 L 194.0 135.0 L 194.0 145.0 L 194.0 156.0 L 194.0 169.0 L 195.0 178.0 L 195.0 183.0 L 195.0 183.0 L 195.0 182.0 L 195.0 178.0 L 195.0 171.0 L 195.0 164.0 L 195.0 158.0 L 195.0 154.0 L 195.0 153.0 L 195.0 153.0 L 195.0 157.0 L 195.0 163.0 L 195.0 170.0 L 195.0 177.0 L 195.0 182.0 L 195.0 186.0 L 195.0 190.0 L 195.0 193.0 L 196.0 194.0 L 196.0 195.0 L 196.0 195.0 L 196.0 195.0 L 196.0 195.0 L 196.0 195.0 L 196.0 195.0 L 196.0 195.0 L 196.0 196.0 L 196.0 196.0 L 196.0 196.0 L 196.0 196.0 L 196.0 196.0 L 196.0 196.0 L 196.0 197.0 L 196.0 197.0 L 196.0 197.0 L 197.0 197.0 L 199.0 197.0 L 201.0 197.0 L 203.0 197.0 L 206.0 197.0 L 207.0 197.0 L 208.0 197.0 L 209.0 197.0 L 209.0 197.0 L 209.0 197.0 L 209.0 197.0 L 207.0 196.0 L 205.0 194.0 L 203.0 191.0 L 200.0 187.0 L 199.0 181.0 L 198.0 174.0 L 196.0 167.0 L 196.0 163.0 L 196.0 162.0 L 196.0 162.0 L 196.0 164.0 L 197.0 169.0 L 198.0 177.0 L 199.0 183.0 L 200.0 189.0 L 200.0 192.0 L 200.0 192.0 L 200.0 190.0 L 200.0 185.0 L 200.0 177.0 L 199.0 169.0 L 198.0 163.0 L 198.0 161.0 L 198.0 160.0 L 198.0 164.0 L 198.0 171.0 L 198.0 179.0 L 198.0 187.0 L 198.0 192.0 L 198.0 193.0 L 198.0 191.0 L 199.0 185.0 L 199.0 177.0 L 199.0 170.0 L 198.0 162.0 L 198.0 157.0 L 198.0 154.0 L 198.0 155.0 L 198.0 161.0 L 199.0 170.0 L 201.0 179.0 L 203.0 187.0 L 205.0 193.0 L 207.0 195.0 L 207.0 195.0 L 207.0 193.0 L 207.0 188.0 L 205.0 183.0 L 204.0 180.0 L 203.0 178.0 L 203.0 176.0 L 203.0 176.0 L 203.0 178.0 L 203.0 182.0 L 205.0 187.0 L 206.0 190.0 L 207.0 193.0 L 208.0 193.0 L 208.0 193.0 L 208.0 191.0 L 207.0 188.0 L 207.0 187.0 L 206.0 186.0 L 206.0 186.0 L 206.0 186.0 L 205.0 186.0 " stroke="black" fill="none" stroke-width="5.0" stroke-linecap="round" stroke-linejoin="round" />
<path d="M 201.0 106.0 L 201.0 106.0 L 201.0 106.0 L 201.0 106.0 L 201.0 106.0 L 201.0 106.0 L 201.0 107.0 L 200.0 110.0 L 199.0 114.0 L 199.0 117.0 L 199.0 118.0 L 199.0 118.0 " stroke="black" fill="none" stroke-width="5.0" stroke-linecap="round" stroke-linejoin="round" />
</svg>