<svg xmlns="http://www.w3.org/2000/svg" width="300" height="300" viewBox="0 0 300 300">
<path d="M 123.0 128.0 L 123.0 128.0 L 123.0 128.0 L 123.0 128.0 L 124.0 128.0 L 131.0 128.0 L 144.0 128.0 L 158.0 128.0 L 172.0 127.0 L 182.0 127.0 L 187.0 126.0 L 188.0 126.0 L 188.0 126.0 L 186.0 126.0 " stroke="black" fill="none" stroke-width="5.0" stroke-linecap="round" stroke-linejoin="round" />
<path d="M 162.0 110.0 L 162.0 110.0 L 162.0 110.0 L 162.0 111.0 L 162.0 111.0 L 162.0 113.0 L 162.0 117.0 L 163.0 126.0 L 164.0 140.0 L 164.0 155.0 L 163.0 166.0 L 161.0 172.0 L 158.0 175.0 L 153.0 176.0 L 148.0 175.0 L 143.0 173.0 L 139.0 169.0 L 138.0 167.0 L 138.0 162.0 L 140.0 158.0 L 145.0 155.0 L 153.0 154.0 L 160.0 156.0 L 166.0 163.0 L 169.0 173.0 L 167.0 185.0 L 161.0 193.0 L 155.0 198.0 L 150.0 200.0 L 148.0 200.0 " stroke="black" fill="none" stroke-width="5.0" stroke-linecap="round" stroke-linejoin="round" />
</svg>