<svg xmlns="http://www.w3.org/2000/svg" width="300" height="300" viewBox="0 0 300 300">
<path d="M 210.0 97.0 L 211.0 97.0 L 211.0 97.0 L 212.0 96.0 L 212.0 96.0 L 212.0 97.0 L 210.0 99.0 L 208.0 102.0 L 204.0 106.0 L 201.0 109.0 L 198.0 113.0 L 197.0 115.0 L 196.0 116.0 L 196.0 117.0 L 196.0 117.0 L 196.0 117.0 L 196.0 117.0 L 196.0 118.0 L 196.0 119.0 L 196.0 120.0 L 196.0 123.0 L 196.0 126.0 L 196.0 132.0 L 196.0 137.0 L 196.0 143.0 L 196.0 148.0 L 196.0 153.0 L 196.0 158.0 L 195.0 162.0 L 195.0 166.0 L 195.0 168.0 L 195.0 169.0 L 195.0 171.0 L 195.0 173.0 L 195.0 175.0 L 195.0 178.0 L 195.0 179.0 L 195.0 181.0 L 195.0 182.0 L 195.0 182.0 L 195.0 183.0 L 195.0 183.0 L 195.0 183.0 L 195.0 183.0 L 195.0 183.0 L 195.0 183.0 L 195.0 183.0 L 195.0 183.0 L 195.0 184.0 L 196.0 184.0 L 197.0 185.0 L 198.0 187.0 L 200.0 189.0 L 203.0 192.0 L 206.0 195.0 L 209.0 199.0 L 212.0 202.0 L 213.0 204.0 L 214.0 204.0 L 214.0 204.0 L 214.0 204.0 L 213.0 203.0 L 212.0 202.0 " stroke="black" fill="none" stroke-width="5.0" stroke-linecap="round" stroke-linejoin="round" />
<path d="M 201.0 85.0 L 201.0 85.0 L 201.0 85.0 L 202.0 86.0 L 202.0 87.0 L 204.0 88.0 L 206.0 90.0 L 209.0 92.0 L 211.0 94.0 L 211.0 95.0 " stroke="black" fill="none" stroke-width="5.0" stroke-linecap="round" stroke-linejoin="round" />
<path d="M 200.0 85.0 L 200.0 85.0 L 200.0 85.0 L 200.0 85.0 L 200.0 86.0 L 200.0 86.0 L 200.0 87.0 L 199.0 88.0 L 198.0 90.0 L 196.0 92.0 L 193.0 95.0 L 191.0 98.0 L 189.0 100.0 L 187.0 102.0 L 186.0 103.0 L 186.0 103.0 L 185.0 103.0 L 185.0 103.0 L 185.0 103.0 L 185.0 103.0 L 185.0 103.0 L 185.0 103.0 L 185.0 103.0 L 185.0 103.0 L 185.0 103.0 L 185.0 104.0 L 185.0 106.0 L 185.0 108.0 L 185.0 112.0 L 185.0 117.0 L 185.0 122.0 L 184.0 126.0 L 183.0 131.0 L 183.0 136.0 L 183.0 140.0 L 182.0 145.0 L 181.0 149.0 L 181.0 152.0 L 181.0 156.0 L 180.0 159.0 L 180.0 161.0 L 180.0 164.0 L 180.0 167.0 L 180.0 169.0 L 180.0 172.0 L 180.0 174.0 L 180.0 177.0 L 180.0 179.0 L 179.0 181.0 L 179.0 183.0 L 179.0 185.0 L 179.0 186.0 L 179.0 187.0 L 179.0 188.0 L 179.0 189.0 L 179.0 190.0 L 179.0 190.0 L 179.0 190.0 L 179.0 190.0 L 179.0 190.0 L 179.0 190.0 L 179.0 191.0 L 180.0 191.0 L 182.0 193.0 L 184.0 194.0 L 186.0 195.0 L 189.0 197.0 L 192.0 200.0 L 194.0 202.0 L 197.0 204.0 L 199.0 206.0 L 200.0 207.0 L 202.0 208.0 L 203.0 208.0 L 204.0 209.0 L 205.0 210.0 L 205.0 210.0 L 205.0 210.0 L 205.0 210.0 L 205.0 210.0 L 205.0 210.0 L 205.0 210.0 L 204.0 210.0 " stroke="black" fill="none" stroke-width="5.0" stroke-linecap="round" stroke-linejoin="round" />
<path d="M 211.0 201.0 L 211.0 201.0 L 211.0 201.0 L 211.0 201.0 L 211.0 202.0 L 211.0 203.0 L 210.0 204.0 L 208.0 206.0 L 206.0 208.0 " stroke="black" fill="none" stroke-width="5.0" stroke-linecap="round" stroke-linejoin="round" />
</svg>