<svg xmlns="http://www.w3.org/2000/svg" width="300" height="300" viewBox="0 0 300 300">
<path d="M 131.0 118.0 L 131.0 119.0 L 131.0 119.0 L 133.0 120.0 L 138.0 120.0 L 148.0 120.0 L 159.0 120.0 L 168.0 120.0 L 172.0 120.0 L 174.0 122.0 L 172.0 127.0 L 169.0 135.0 L 163.0 144.0 L 156.0 156.0 L 147.0 167.0 L 133.0 179.0 L 118.0 188.0 L 115.0 189.0 " stroke="black" fill="none" stroke-width="5.0" stroke-linecap="round" stroke-linejoin="round" />
<path d="M 148.0 169.0 L 148.0 170.0 L 149.0 171.0 L 153.0 173.0 L 161.0 178.0 L 174.0 185.0 L 184.0 191.0 L 187.0 192.0 " stroke="black" fill="none" stroke-width="5.0" stroke-linecap="round" stroke-linejoin="round" />
<path d="M 185.0 108.0 L 185.0 108.0 L 185.0 108.0 L 185.0 108.0 L 185.0 109.0 L 187.0 112.0 L 189.0 117.0 " stroke="black" fill="none" stroke-width="5.0" stroke-linecap="round" stroke-linejoin="round" />
<path d="M 197.0 104.0 L 197.0 104.0 L 197.0 107.0 L 198.0 110.0 L 199.0 113.0 L 200.0 117.0 " stroke="black" fill="none" stroke-width="5.0" stroke-linecap="round" stroke-linejoin="round" />
</svg>