<svg xmlns="http://www.w3.org/2000/svg" width="300" height="300" viewBox="0 0 300 300">
<path d="M 116.0 123.0 L 116.0 123.0 L 116.0 124.0 L 116.0 124.0 L 116.0 125.0 L 117.0 125.0 L 124.0 125.0 L 133.0 124.0 L 141.0 122.0 L 144.0 121.0 " stroke="black" fill="none" stroke-width="5.0" stroke-linecap="round" stroke-linejoin="round" />
<path d="M 133.0 108.0 L 133.0 108.0 L 132.0 108.0 L 132.0 108.0 L 131.0 110.0 L 130.0 118.0 L 128.0 134.0 L 124.0 154.0 L 118.0 172.0 L 113.0 185.0 L 111.0 189.0 " stroke="black" fill="none" stroke-width="5.0" stroke-linecap="round" stroke-linejoin="round" />
<path d="M 146.0 140.0 L 146.0 140.0 L 147.0 140.0 L 148.0 140.0 L 153.0 139.0 L 162.0 138.0 L 172.0 136.0 L 178.0 136.0 L 180.0 136.0 L 180.0 136.0 L 178.0 137.0 " stroke="black" fill="none" stroke-width="5.0" stroke-linecap="round" stroke-linejoin="round" />
<path d="M 142.0 171.0 L 142.0 171.0 L 142.0 171.0 L 142.0 172.0 L 142.0 172.0 L 141.0 173.0 L 140.0 175.0 L 138.0 179.0 L 137.0 183.0 L 137.0 187.0 L 137.0 190.0 L 143.0 193.0 L 152.0 194.0 L 166.0 192.0 L 180.0 187.0 L 185.0 185.0 " stroke="black" fill="none" stroke-width="5.0" stroke-linecap="round" stroke-linejoin="round" />
</svg>