<svg xmlns="http://www.w3.org/2000/svg" width="300" height="300" viewBox="0 0 300 300">
<path d="M 139.0 117.0 L 139.0 117.0 L 139.0 117.0 L 139.0 117.0 L 143.0 119.0 L 150.0 122.0 L 156.0 126.0 " stroke="black" fill="none" stroke-width="5.0" stroke-linecap="round" stroke-linejoin="round" />
<path d="M 134.0 141.0 L 135.0 141.0 L 137.0 142.0 L 140.0 143.0 L 145.0 145.0 L 151.0 146.0 L 156.0 146.0 L 158.0 147.0 L 159.0 148.0 L 158.0 150.0 L 155.0 152.0 L 151.0 156.0 L 147.0 160.0 L 142.0 165.0 L 136.0 172.0 L 130.0 179.0 L 125.0 184.0 L 122.0 187.0 L 121.0 189.0 L 120.0 190.0 L 119.0 190.0 L 119.0 189.0 L 121.0 186.0 L 124.0 183.0 L 128.0 180.0 L 132.0 177.0 L 137.0 175.0 L 143.0 174.0 L 148.0 174.0 L 153.0 177.0 L 158.0 182.0 L 165.0 186.0 L 173.0 188.0 L 181.0 188.0 L 184.0 187.0 " stroke="black" fill="none" stroke-width="5.0" stroke-linecap="round" stroke-linejoin="round" />
</svg>