<svg xmlns="http://www.w3.org/2000/svg" width="300" height="300" viewBox="0 0 300 300">
<path d="M 154.0 112.0 L 155.0 112.0 L 155.0 112.0 L 155.0 111.0 L 155.0 113.0 L 155.0 120.0 L 154.0 135.0 L 151.0 150.0 L 146.0 164.0 L 139.0 174.0 L 132.0 180.0 L 126.0 182.0 L 119.0 182.0 L 115.0 178.0 L 112.0 171.0 L 111.0 163.0 L 111.0 157.0 L 115.0 150.0 L 124.0 143.0 L 134.0 137.0 L 146.0 135.0 L 157.0 135.0 L 166.0 141.0 L 175.0 149.0 L 180.0 158.0 L 183.0 168.0 L 183.0 176.0 L 183.0 183.0 L 181.0 187.0 L 180.0 188.0 " stroke="black" fill="none" stroke-width="5.0" stroke-linecap="round" stroke-linejoin="round" />
<path d="M 130.0 115.0 L 130.0 115.0 L 130.0 115.0 L 130.0 118.0 L 131.0 129.0 L 137.0 150.0 L 144.0 170.0 L 150.0 179.0 L 152.0 180.0 " stroke="black" fill="none" stroke-width="5.0" stroke-linecap="round" stroke-linejoin="round" />
</svg>