<svg xmlns="http://www.w3.org/2000/svg" width="300" height="300" viewBox="0 0 300 300">
<path d="M 114.0 108.0 L 114.0 108.0 L 114.0 108.0 L 115.0 108.0 L 120.0 108.0 L 134.0 107.0 L 152.0 106.0 L 166.0 105.0 L 177.0 104.0 L 183.0 103.0 L 183.0 103.0 " stroke="black" fill="none" stroke-width="5.0" stroke-linecap="round" stroke-linejoin="round" />
<path d="M 114.0 127.0 L 114.0 127.0 L 114.0 127.0 L 114.0 127.0 L 115.0 127.0 L 121.0 127.0 L 134.0 127.0 L 150.0 127.0 L 163.0 127.0 L 174.0 127.0 L 180.0 127.0 L 183.0 126.0 L 184.0 126.0 " stroke="black" fill="none" stroke-width="5.0" stroke-linecap="round" stroke-linejoin="round" />
<path d="M 149.0 130.0 L 149.0 130.0 L 149.0 131.0 L 149.0 133.0 L 149.0 138.0 L 150.0 148.0 L 151.0 163.0 L 152.0 178.0 L 152.0 191.0 L 153.0 197.0 L 153.0 200.0 L 153.0 200.0 L 153.0 199.0 " stroke="black" fill="none" stroke-width="5.0" stroke-linecap="round" stroke-linejoin="round" />
</svg>