<svg xmlns="http://www.w3.org/2000/svg" width="300" height="300" viewBox="0 0 300 300">
<path d="M 127.0 133.0 L 127.0 133.0 L 127.0 133.0 L 127.0 133.0 L 131.0 133.0 L 141.0 133.0 L 156.0 133.0 L 169.0 133.0 L 177.0 133.0 L 178.0 133.0 " stroke="black" fill="none" stroke-width="5.0" stroke-linecap="round" stroke-linejoin="round" />
<path d="M 153.0 109.0 L 153.0 109.0 L 153.0 109.0 L 153.0 113.0 L 153.0 126.0 L 156.0 147.0 L 158.0 167.0 L 158.0 180.0 L 157.0 189.0 L 155.0 193.0 L 154.0 193.0 L 151.0 193.0 L 143.0 189.0 L 132.0 181.0 L 127.0 177.0 " stroke="black" fill="none" stroke-width="5.0" stroke-linecap="round" stroke-linejoin="round" />
<path d="M 152.0 137.0 L 152.0 137.0 L 152.0 137.0 L 152.0 137.0 L 152.0 137.0 L 149.0 140.0 L 142.0 148.0 L 128.0 162.0 L 113.0 177.0 L 110.0 180.0 " stroke="black" fill="none" stroke-width="5.0" stroke-linecap="round" stroke-linejoin="round" />
</svg>