<svg xmlns="http://www.w3.org/2000/svg" width="300" height="300" viewBox="0 0 300 300">
<path d="M 160.0 108.0 L 160.0 108.0 L 160.0 108.0 L 160.0 108.0 L 160.0 108.0 L 159.0 109.0 L 156.0 112.0 L 150.0 119.0 L 143.0 129.0 L 135.0 140.0 L 128.0 148.0 L 124.0 154.0 L 122.0 160.0 L 122.0 167.0 L 126.0 173.0 L 135.0 180.0 L 146.0 186.0 L 156.0 191.0 L 165.0 193.0 L 167.0 193.0 " stroke="black" fill="none" stroke-width="5.0" stroke-linecap="round" stroke-linejoin="round" />
<path d="M 160.0 124.0 L 161.0 124.0 L 161.0 125.0 L 162.0 127.0 L 164.0 132.0 L 166.0 136.0 L 166.0 137.0 " stroke="black" fill="none" stroke-width="5.0" stroke-linecap="round" stroke-linejoin="round" />
<path d="M 171.0 122.0 L 171.0 122.0 L 171.0 124.0 L 173.0 127.0 L 175.0 131.0 L 177.0 134.0 " stroke="black" fill="none" stroke-width="5.0" stroke-linecap="round" stroke-linejoin="round" />
</svg>