<svg xmlns="http://www.w3.org/2000/svg" width="300" height="300" viewBox="0 0 300 300">
<path d="M 124.0 112.0 L 124.0 112.0 L 124.0 112.0 L 123.0 112.0 L 122.0 113.0 L 121.0 115.0 L 120.0 121.0 L 119.0 137.0 L 118.0 159.0 L 118.0 178.0 L 118.0 189.0 L 118.0 192.0 L 119.0 192.0 L 119.0 190.0 L 119.0 184.0 L 121.0 177.0 L 125.0 171.0 L 129.0 168.0 L 135.0 167.0 L 140.0 168.0 " stroke="black" fill="none" stroke-width="5.0" stroke-linecap="round" stroke-linejoin="round" />
<path d="M 144.0 138.0 L 143.0 138.0 L 142.0 138.0 L 142.0 138.0 L 145.0 138.0 L 154.0 137.0 L 166.0 136.0 L 175.0 136.0 L 179.0 136.0 " stroke="black" fill="none" stroke-width="5.0" stroke-linecap="round" stroke-linejoin="round" />
<path d="M 161.0 118.0 L 161.0 118.0 L 161.0 118.0 L 161.0 118.0 L 161.0 125.0 L 163.0 141.0 L 164.0 161.0 L 164.0 176.0 L 161.0 186.0 L 158.0 192.0 L 153.0 194.0 L 150.0 193.0 L 146.0 189.0 L 145.0 184.0 L 145.0 180.0 L 147.0 175.0 L 152.0 171.0 L 159.0 170.0 L 169.0 172.0 L 179.0 178.0 L 184.0 184.0 L 188.0 186.0 L 188.0 186.0 " stroke="black" fill="none" stroke-width="5.0" stroke-linecap="round" stroke-linejoin="round" />
<path d="M 185.0 114.0 L 186.0 114.0 L 187.0 115.0 L 188.0 118.0 L 189.0 121.0 L 189.0 123.0 " stroke="black" fill="none" stroke-width="5.0" stroke-linecap="round" stroke-linejoin="round" />
<path d="M 196.0 113.0 L 197.0 114.0 L 199.0 115.0 L 200.0 119.0 L 201.0 123.0 L 201.0 125.0 " stroke="black" fill="none" stroke-width="5.0" stroke-linecap="round" stroke-linejoin="round" />
</svg>