<svg xmlns="http://www.w3.org/2000/svg" width="300" height="300" viewBox="0 0 300 300">
<path d="M 115.0 161.0 L 115.0 161.0 L 115.0 161.0 L 115.0 161.0 L 115.0 161.0 L 116.0 160.0 L 118.0 156.0 L 122.0 151.0 L 127.0 144.0 L 131.0 139.0 L 135.0 136.0 L 139.0 135.0 L 143.0 136.0 L 149.0 142.0 L 157.0 151.0 L 167.0 160.0 L 177.0 167.0 L 185.0 171.0 L 189.0 173.0 L 191.0 174.0 L 191.0 174.0 L 190.0 174.0 " stroke="black" fill="none" stroke-width="5.0" stroke-linecap="round" stroke-linejoin="round" />
<path d="M 167.0 126.0 L 167.0 127.0 L 167.0 127.0 L 167.0 128.0 L 167.0 129.0 L 167.0 131.0 L 169.0 134.0 L 172.0 137.0 L 178.0 137.0 L 183.0 135.0 L 185.0 129.0 L 185.0 124.0 L 183.0 121.0 L 178.0 120.0 L 174.0 121.0 L 172.0 122.0 " stroke="black" fill="none" stroke-width="5.0" stroke-linecap="round" stroke-linejoin="round" />
</svg>