<svg xmlns="http://www.w3.org/2000/svg" width="300" height="300" viewBox="0 0 300 300">
<path d="M 141.0 104.0 L 140.0 105.0 L 139.0 107.0 L 138.0 110.0 L 135.0 116.0 L 131.0 125.0 L 125.0 133.0 L 124.0 136.0 " stroke="black" fill="none" stroke-width="5.0" stroke-linecap="round" stroke-linejoin="round" />
<path d="M 144.0 116.0 L 144.0 116.0 L 146.0 116.0 L 150.0 116.0 L 155.0 116.0 L 162.0 116.0 L 167.0 117.0 L 171.0 118.0 L 173.0 120.0 L 173.0 125.0 L 169.0 133.0 L 163.0 144.0 L 157.0 154.0 L 151.0 163.0 L 150.0 164.0 " stroke="black" fill="none" stroke-width="5.0" stroke-linecap="round" stroke-linejoin="round" />
<path d="M 134.0 166.0 L 134.0 166.0 L 134.0 166.0 L 136.0 166.0 L 141.0 166.0 L 151.0 166.0 L 163.0 168.0 L 175.0 170.0 L 182.0 173.0 L 184.0 175.0 " stroke="black" fill="none" stroke-width="5.0" stroke-linecap="round" stroke-linejoin="round" />
</svg>