<svg xmlns="http://www.w3.org/2000/svg" width="300" height="300" viewBox="0 0 300 300">
<path d="M 142.0 107.0 L 142.0 107.0 L 141.0 107.0 L 141.0 107.0 L 141.0 109.0 L 143.0 114.0 L 147.0 120.0 L 148.0 122.0 " stroke="black" fill="none" stroke-width="5.0" stroke-linecap="round" stroke-linejoin="round" />
<path d="M 130.0 131.0 L 130.0 131.0 L 130.0 131.0 L 132.0 131.0 L 139.0 131.0 L 149.0 129.0 L 157.0 128.0 L 161.0 128.0 L 162.0 131.0 L 160.0 136.0 L 155.0 143.0 L 148.0 150.0 L 139.0 159.0 L 125.0 171.0 L 112.0 180.0 L 105.0 185.0 L 105.0 185.0 " stroke="black" fill="none" stroke-width="5.0" stroke-linecap="round" stroke-linejoin="round" />
<path d="M 145.0 157.0 L 145.0 157.0 L 145.0 157.0 L 145.0 157.0 L 145.0 158.0 L 146.0 160.0 L 147.0 169.0 L 148.0 182.0 L 148.0 194.0 L 148.0 198.0 " stroke="black" fill="none" stroke-width="5.0" stroke-linecap="round" stroke-linejoin="round" />
<path d="M 151.0 167.0 L 151.0 167.0 L 151.0 169.0 L 152.0 170.0 L 155.0 171.0 L 163.0 174.0 L 172.0 179.0 L 181.0 183.0 " stroke="black" fill="none" stroke-width="5.0" stroke-linecap="round" stroke-linejoin="round" />
</svg>