<svg xmlns="http://www.w3.org/2000/svg" width="300" height="300" viewBox="0 0 300 300">
<path d="M 127.0 110.0 L 127.0 110.0 L 127.0 110.0 L 127.0 110.0 L 127.0 111.0 L 127.0 115.0 L 127.0 124.0 L 128.0 138.0 L 128.0 151.0 L 127.0 161.0 L 125.0 169.0 L 123.0 173.0 L 120.0 178.0 L 117.0 180.0 L 115.0 181.0 L 112.0 181.0 L 109.0 180.0 L 107.0 177.0 L 105.0 174.0 L 105.0 170.0 L 105.0 165.0 L 105.0 160.0 L 108.0 156.0 L 112.0 154.0 L 116.0 152.0 L 121.0 152.0 L 124.0 152.0 L 126.0 155.0 L 127.0 159.0 L 128.0 164.0 L 128.0 169.0 L 128.0 174.0 L 128.0 180.0 L 130.0 186.0 L 134.0 192.0 L 140.0 196.0 L 147.0 199.0 L 155.0 200.0 L 162.0 200.0 L 169.0 199.0 L 174.0 196.0 L 176.0 191.0 " stroke="black" fill="none" stroke-width="5.0" stroke-linecap="round" stroke-linejoin="round" />
<path d="M 114.0 130.0 L 114.0 130.0 L 114.0 130.0 L 114.0 130.0 L 115.0 131.0 L 119.0 131.0 L 128.0 131.0 L 137.0 129.0 L 143.0 127.0 " stroke="black" fill="none" stroke-width="5.0" stroke-linecap="round" stroke-linejoin="round" />
<path d="M 171.0 129.0 L 172.0 129.0 L 173.0 130.0 L 175.0 131.0 L 179.0 134.0 L 185.0 139.0 L 189.0 146.0 L 190.0 151.0 " stroke="black" fill="none" stroke-width="5.0" stroke-linecap="round" stroke-linejoin="round" />
</svg>