<svg xmlns="http://www.w3.org/2000/svg" width="300" height="300" viewBox="0 0 300 300">
<path d="M 115.0 127.0 L 115.0 127.0 L 115.0 127.0 L 115.0 127.0 L 115.0 127.0 L 117.0 127.0 L 126.0 127.0 L 141.0 126.0 L 154.0 126.0 L 164.0 126.0 L 171.0 127.0 L 176.0 129.0 L 179.0 133.0 L 180.0 141.0 L 180.0 153.0 L 181.0 165.0 L 182.0 174.0 L 183.0 177.0 L 183.0 177.0 " stroke="black" fill="none" stroke-width="5.0" stroke-linecap="round" stroke-linejoin="round" />
<path d="M 111.0 177.0 L 111.0 177.0 L 112.0 177.0 L 114.0 178.0 L 120.0 178.0 L 133.0 178.0 L 148.0 179.0 L 161.0 179.0 L 169.0 179.0 L 175.0 178.0 L 178.0 176.0 " stroke="black" fill="none" stroke-width="5.0" stroke-linecap="round" stroke-linejoin="round" />
<path d="M 178.0 102.0 L 178.0 102.0 L 178.0 102.0 L 178.0 103.0 L 180.0 107.0 L 182.0 112.0 L 183.0 115.0 " stroke="black" fill="none" stroke-width="5.0" stroke-linecap="round" stroke-linejoin="round" />
<path d="M 192.0 102.0 L 192.0 102.0 L 192.0 105.0 L 193.0 108.0 L 194.0 112.0 L 194.0 113.0 " stroke="black" fill="none" stroke-width="5.0" stroke-linecap="round" stroke-linejoin="round" />
</svg>