<svg xmlns="http://www.w3.org/2000/svg" width="300" height="300" viewBox="0 0 300 300">
<path d="M 129.0 119.0 L 129.0 119.0 L 129.0 119.0 L 129.0 119.0 L 129.0 119.0 L 129.0 118.0 L 129.0 118.0 L 129.0 122.0 L 129.0 132.0 L 129.0 144.0 L 129.0 164.0 L 129.0 173.0 L 129.0 176.0 L 130.0 176.0 " stroke="black" fill="none" stroke-width="5.0" stroke-linecap="round" stroke-linejoin="round" />
<path d="M 150.0 91.0 L 150.0 90.0 L 150.0 89.0 L 150.0 89.0 L 150.0 89.0 L 150.0 95.0 L 150.0 110.0 L 151.0 131.0 L 151.0 155.0 L 152.0 176.0 L 152.0 190.0 L 153.0 199.0 L 153.0 203.0 L 153.0 205.0 L 153.0 205.0 L 153.0 205.0 " stroke="black" fill="none" stroke-width="5.0" stroke-linecap="round" stroke-linejoin="round" />
</svg>