<svg xmlns="http://www.w3.org/2000/svg" width="300" height="300" viewBox="0 0 300 300">
<path d="M 120.0 119.0 L 121.0 119.0 L 121.0 119.0 L 122.0 119.0 L 123.0 119.0 L 128.0 119.0 L 137.0 118.0 L 149.0 117.0 L 161.0 116.0 L 171.0 116.0 L 178.0 115.0 L 182.0 115.0 L 184.0 115.0 L 184.0 115.0 L 182.0 119.0 L 179.0 126.0 L 175.0 135.0 L 173.0 137.0 " stroke="black" fill="none" stroke-width="5.0" stroke-linecap="round" stroke-linejoin="round" />
<path d="M 149.0 135.0 L 149.0 135.0 L 149.0 135.0 L 149.0 135.0 L 149.0 138.0 L 150.0 148.0 L 151.0 161.0 L 151.0 171.0 L 151.0 174.0 " stroke="black" fill="none" stroke-width="5.0" stroke-linecap="round" stroke-linejoin="round" />
<path d="M 117.0 177.0 L 117.0 177.0 L 119.0 177.0 L 120.0 177.0 L 123.0 177.0 L 131.0 177.0 L 144.0 177.0 L 158.0 177.0 L 172.0 178.0 L 185.0 178.0 L 191.0 178.0 L 193.0 178.0 L 193.0 178.0 " stroke="black" fill="none" stroke-width="5.0" stroke-linecap="round" stroke-linejoin="round" />
</svg>