<svg xmlns="http://www.w3.org/2000/svg" width="300" height="300" viewBox="0 0 300 300">
<path d="M 161.0 128.0 L 161.0 128.0 L 161.0 128.0 L 161.0 128.0 L 158.0 132.0 L 152.0 138.0 L 140.0 149.0 L 125.0 159.0 L 118.0 163.0 " stroke="black" fill="none" stroke-width="5.0" stroke-linecap="round" stroke-linejoin="round" />
<path d="M 174.0 152.0 L 174.0 152.0 L 174.0 153.0 L 173.0 154.0 L 170.0 156.0 L 164.0 162.0 L 154.0 171.0 L 140.0 183.0 L 128.0 191.0 " stroke="black" fill="none" stroke-width="5.0" stroke-linecap="round" stroke-linejoin="round" />
<path d="M 133.0 134.0 L 133.0 134.0 L 133.0 133.0 L 134.0 133.0 L 138.0 139.0 L 147.0 155.0 L 158.0 176.0 L 165.0 190.0 L 167.0 196.0 L 167.0 198.0 " stroke="black" fill="none" stroke-width="5.0" stroke-linecap="round" stroke-linejoin="round" />
<path d="M 177.0 121.0 L 177.0 122.0 L 177.0 123.0 L 177.0 125.0 L 177.0 128.0 " stroke="black" fill="none" stroke-width="5.0" stroke-linecap="round" stroke-linejoin="round" />
<path d="M 187.0 118.0 L 187.0 120.0 L 187.0 122.0 L 187.0 125.0 L 187.0 128.0 " stroke="black" fill="none" stroke-width="5.0" stroke-linecap="round" stroke-linejoin="round" />
</svg>