<svg xmlns="http://www.w3.org/2000/svg" width="300" height="300" viewBox="0 0 300 300">
<path d="M 127.0 127.0 L 127.0 127.0 L 127.0 127.0 L 127.0 127.0 L 128.0 128.0 L 134.0 128.0 L 146.0 127.0 L 159.0 127.0 L 169.0 126.0 L 175.0 126.0 L 176.0 127.0 L 176.0 130.0 L 175.0 135.0 L 172.0 142.0 L 168.0 150.0 L 162.0 159.0 L 153.0 170.0 L 141.0 183.0 L 128.0 191.0 " stroke="black" fill="none" stroke-width="5.0" stroke-linecap="round" stroke-linejoin="round" />
<path d="M 189.0 109.0 L 189.0 109.0 L 188.0 109.0 L 187.0 109.0 L 187.0 109.0 L 186.0 110.0 L 186.0 112.0 L 186.0 115.0 L 189.0 117.0 L 192.0 118.0 L 196.0 118.0 L 199.0 115.0 L 202.0 111.0 L 202.0 107.0 L 201.0 105.0 L 196.0 104.0 L 192.0 104.0 L 190.0 104.0 " stroke="black" fill="none" stroke-width="5.0" stroke-linecap="round" stroke-linejoin="round" />
</svg>