<svg xmlns="http://www.w3.org/2000/svg" width="300" height="300" viewBox="0 0 300 300">
<path d="M 123.0 116.0 L 123.0 117.0 L 122.0 118.0 L 121.0 120.0 L 119.0 123.0 L 117.0 130.0 L 116.0 141.0 L 115.0 157.0 L 114.0 171.0 L 114.0 179.0 L 115.0 184.0 L 116.0 186.0 L 116.0 186.0 L 117.0 184.0 L 118.0 178.0 L 120.0 172.0 L 123.0 167.0 L 127.0 165.0 L 131.0 164.0 " stroke="black" fill="none" stroke-width="5.0" stroke-linecap="round" stroke-linejoin="round" />
<path d="M 149.0 122.0 L 149.0 122.0 L 150.0 122.0 L 155.0 122.0 L 163.0 121.0 L 170.0 121.0 L 172.0 120.0 " stroke="black" fill="none" stroke-width="5.0" stroke-linecap="round" stroke-linejoin="round" />
<path d="M 151.0 159.0 L 151.0 159.0 L 150.0 159.0 L 149.0 160.0 L 147.0 163.0 L 145.0 169.0 L 144.0 178.0 L 146.0 186.0 L 154.0 190.0 L 167.0 190.0 L 181.0 186.0 " stroke="black" fill="none" stroke-width="5.0" stroke-linecap="round" stroke-linejoin="round" />
</svg>