<svg xmlns="http://www.w3.org/2000/svg" width="300" height="300" viewBox="0 0 300 300">
<path d="M 146.0 99.0 L 146.0 99.0 L 146.0 99.0 L 146.0 101.0 L 146.0 105.0 L 146.0 111.0 L 146.0 112.0 " stroke="black" fill="none" stroke-width="5.0" stroke-linecap="round" stroke-linejoin="round" />
<path d="M 110.0 127.0 L 108.0 127.0 L 107.0 127.0 L 106.0 127.0 L 107.0 127.0 L 115.0 127.0 L 128.0 126.0 L 146.0 125.0 L 164.0 125.0 L 179.0 124.0 L 186.0 123.0 L 188.0 123.0 L 188.0 123.0 L 188.0 123.0 L 188.0 123.0 " stroke="black" fill="none" stroke-width="5.0" stroke-linecap="round" stroke-linejoin="round" />
<path d="M 125.0 147.0 L 126.0 147.0 L 126.0 147.0 L 129.0 147.0 L 133.0 147.0 L 142.0 147.0 L 153.0 146.0 L 161.0 145.0 L 165.0 144.0 L 165.0 144.0 " stroke="black" fill="none" stroke-width="5.0" stroke-linecap="round" stroke-linejoin="round" />
</svg>