<svg xmlns="http://www.w3.org/2000/svg" width="300" height="300" viewBox="0 0 300 300">
<path d="M 123.0 114.0 L 123.0 114.0 L 123.0 114.0 L 123.0 113.0 L 122.0 113.0 L 121.0 116.0 L 120.0 124.0 L 118.0 138.0 L 117.0 155.0 L 117.0 170.0 L 119.0 181.0 L 121.0 190.0 L 124.0 197.0 L 125.0 202.0 L 126.0 202.0 L 126.0 202.0 L 126.0 197.0 L 127.0 191.0 L 128.0 187.0 L 131.0 183.0 L 134.0 182.0 L 138.0 181.0 L 144.0 180.0 " stroke="black" fill="none" stroke-width="5.0" stroke-linecap="round" stroke-linejoin="round" />
<path d="M 146.0 141.0 L 146.0 141.0 L 146.0 141.0 L 146.0 141.0 L 149.0 141.0 L 158.0 140.0 L 171.0 139.0 L 179.0 138.0 " stroke="black" fill="none" stroke-width="5.0" stroke-linecap="round" stroke-linejoin="round" />
<path d="M 164.0 115.0 L 164.0 115.0 L 164.0 115.0 L 164.0 118.0 L 166.0 129.0 L 169.0 149.0 L 170.0 172.0 L 167.0 191.0 L 161.0 203.0 L 157.0 207.0 " stroke="black" fill="none" stroke-width="5.0" stroke-linecap="round" stroke-linejoin="round" />
<path d="M 182.0 117.0 L 182.0 117.0 L 182.0 117.0 L 183.0 118.0 L 185.0 122.0 L 187.0 126.0 L 188.0 128.0 " stroke="black" fill="none" stroke-width="5.0" stroke-linecap="round" stroke-linejoin="round" />
<path d="M 191.0 115.0 L 192.0 117.0 L 193.0 119.0 L 194.0 122.0 L 196.0 124.0 L 196.0 125.0 " stroke="black" fill="none" stroke-width="5.0" stroke-linecap="round" stroke-linejoin="round" />
</svg>