<svg xmlns="http://www.w3.org/2000/svg" width="300" height="300" viewBox="0 0 300 300">
<path d="M 130.0 129.0 L 131.0 129.0 L 131.0 130.0 L 131.0 132.0 L 130.0 137.0 L 126.0 146.0 L 121.0 159.0 L 114.0 174.0 L 109.0 183.0 L 108.0 185.0 " stroke="black" fill="none" stroke-width="5.0" stroke-linecap="round" stroke-linejoin="round" />
<path d="M 157.0 125.0 L 157.0 126.0 L 157.0 127.0 L 159.0 129.0 L 163.0 136.0 L 170.0 147.0 L 177.0 162.0 L 181.0 175.0 L 184.0 184.0 L 185.0 190.0 L 186.0 192.0 L 186.0 192.0 " stroke="black" fill="none" stroke-width="5.0" stroke-linecap="round" stroke-linejoin="round" />
<path d="M 173.0 108.0 L 173.0 108.0 L 172.0 109.0 L 171.0 109.0 L 170.0 110.0 L 170.0 112.0 L 170.0 115.0 L 171.0 119.0 L 175.0 123.0 L 180.0 124.0 L 185.0 123.0 L 188.0 118.0 L 189.0 113.0 L 189.0 108.0 L 186.0 106.0 L 182.0 105.0 L 178.0 105.0 L 175.0 106.0 " stroke="black" fill="none" stroke-width="5.0" stroke-linecap="round" stroke-linejoin="round" />
</svg>