<svg xmlns="http://www.w3.org/2000/svg" width="300" height="300" viewBox="0 0 300 300">
<path d="M 144.0 108.0 L 144.0 108.0 L 144.0 108.0 L 144.0 111.0 L 144.0 117.0 L 145.0 123.0 L 146.0 126.0 " stroke="black" fill="none" stroke-width="5.0" stroke-linecap="round" stroke-linejoin="round" />
<path d="M 130.0 132.0 L 130.0 132.0 L 130.0 132.0 L 131.0 132.0 L 135.0 132.0 L 142.0 132.0 L 152.0 131.0 L 159.0 129.0 L 162.0 129.0 L 163.0 129.0 L 163.0 132.0 L 161.0 137.0 L 158.0 144.0 L 154.0 152.0 L 148.0 161.0 L 140.0 173.0 L 129.0 184.0 L 121.0 189.0 L 115.0 189.0 L 115.0 188.0 " stroke="black" fill="none" stroke-width="5.0" stroke-linecap="round" stroke-linejoin="round" />
<path d="M 126.0 148.0 L 126.0 148.0 L 127.0 148.0 L 129.0 151.0 L 138.0 162.0 L 153.0 177.0 L 169.0 187.0 L 180.0 191.0 L 185.0 194.0 L 187.0 195.0 " stroke="black" fill="none" stroke-width="5.0" stroke-linecap="round" stroke-linejoin="round" />
</svg>