<svg xmlns="http://www.w3.org/2000/svg" width="300" height="300" viewBox="0 0 300 300">
<path d="M 93.0 94.0 L 93.0 94.0 L 93.0 94.0 L 93.0 94.0 L 93.0 94.0 L 94.0 98.0 L 96.0 105.0 L 97.0 113.0 L 98.0 123.0 L 100.0 133.0 L 101.0 141.0 L 101.0 149.0 L 101.0 156.0 L 101.0 162.0 L 100.0 167.0 L 100.0 172.0 L 100.0 176.0 L 100.0 181.0 L 99.0 185.0 L 98.0 189.0 L 97.0 193.0 L 96.0 196.0 L 95.0 199.0 L 94.0 201.0 L 93.0 203.0 L 92.0 205.0 L 91.0 207.0 L 90.0 208.0 L 89.0 208.0 " stroke="black" fill="none" stroke-width="5.0" stroke-linecap="round" stroke-linejoin="round" />
<path d="M 98.0 96.0 L 98.0 96.0 L 98.0 96.0 L 98.0 95.0 L 99.0 95.0 L 101.0 95.0 L 104.0 95.0 L 109.0 95.0 L 113.0 96.0 L 116.0 96.0 L 118.0 96.0 " stroke="black" fill="none" stroke-width="5.0" stroke-linecap="round" stroke-linejoin="round" />
<path d="M 117.0 99.0 L 117.0 99.0 L 117.0 99.0 L 117.0 100.0 L 117.0 103.0 L 117.0 108.0 L 118.0 116.0 L 119.0 127.0 L 120.0 138.0 L 120.0 149.0 L 121.0 157.0 L 121.0 164.0 L 121.0 170.0 L 121.0 176.0 L 121.0 182.0 L 121.0 188.0 L 121.0 193.0 L 121.0 198.0 L 121.0 202.0 L 121.0 204.0 L 121.0 207.0 L 121.0 209.0 L 121.0 210.0 L 121.0 211.0 L 121.0 212.0 L 121.0 212.0 L 121.0 212.0 " stroke="black" fill="none" stroke-width="5.0" stroke-linecap="round" stroke-linejoin="round" />
<path d="M 90.0 212.0 L 90.0 212.0 L 90.0 212.0 L 91.0 213.0 L 95.0 213.0 L 103.0 213.0 L 111.0 213.0 L 117.0 213.0 L 120.0 213.0 " stroke="black" fill="none" stroke-width="5.0" stroke-linecap="round" stroke-linejoin="round" />
</svg>