<svg xmlns="http://www.w3.org/2000/svg" width="300" height="300" viewBox="0 0 300 300">
<path d="M 123.0 125.0 L 123.0 125.0 L 124.0 125.0 L 124.0 125.0 L 126.0 125.0 L 131.0 125.0 L 142.0 125.0 L 153.0 125.0 L 162.0 124.0 L 168.0 124.0 L 172.0 126.0 L 174.0 129.0 L 175.0 134.0 L 176.0 141.0 L 177.0 150.0 L 177.0 160.0 L 178.0 169.0 L 176.0 175.0 L 173.0 180.0 L 168.0 182.0 L 162.0 182.0 L 156.0 179.0 " stroke="black" fill="none" stroke-width="5.0" stroke-linecap="round" stroke-linejoin="round" />
<path d="M 152.0 106.0 L 152.0 106.0 L 152.0 106.0 L 152.0 106.0 L 152.0 107.0 L 150.0 114.0 L 143.0 130.0 L 132.0 153.0 L 119.0 172.0 L 113.0 182.0 L 111.0 184.0 " stroke="black" fill="none" stroke-width="5.0" stroke-linecap="round" stroke-linejoin="round" />
</svg>