<svg xmlns="http://www.w3.org/2000/svg" width="300" height="300" viewBox="0 0 300 300">
<path d="M 160.0 104.0 L 160.0 104.0 L 160.0 103.0 L 161.0 103.0 L 161.0 103.0 L 161.0 103.0 L 159.0 105.0 L 153.0 111.0 L 140.0 121.0 L 128.0 129.0 " stroke="black" fill="none" stroke-width="5.0" stroke-linecap="round" stroke-linejoin="round" />
<path d="M 112.0 152.0 L 112.0 152.0 L 112.0 152.0 L 113.0 152.0 L 117.0 152.0 L 129.0 151.0 L 147.0 150.0 L 165.0 149.0 L 178.0 146.0 L 181.0 145.0 " stroke="black" fill="none" stroke-width="5.0" stroke-linecap="round" stroke-linejoin="round" />
<path d="M 148.0 117.0 L 148.0 118.0 L 148.0 119.0 L 148.0 122.0 L 149.0 128.0 L 150.0 141.0 L 150.0 156.0 L 147.0 170.0 L 141.0 183.0 L 135.0 192.0 " stroke="black" fill="none" stroke-width="5.0" stroke-linecap="round" stroke-linejoin="round" />
</svg>