<svg xmlns="http://www.w3.org/2000/svg" width="300" height="300" viewBox="0 0 300 300">
<path d="M 119.0 114.0 L 119.0 114.0 L 119.0 114.0 L 119.0 114.0 L 119.0 114.0 L 118.0 115.0 L 118.0 119.0 L 117.0 129.0 L 116.0 144.0 L 115.0 156.0 L 115.0 163.0 L 115.0 164.0 L 115.0 163.0 L 115.0 158.0 L 116.0 152.0 L 119.0 145.0 L 123.0 139.0 L 131.0 133.0 L 140.0 128.0 L 151.0 125.0 L 161.0 124.0 L 170.0 128.0 L 176.0 136.0 L 179.0 145.0 L 179.0 152.0 L 177.0 159.0 L 172.0 165.0 L 163.0 171.0 L 152.0 177.0 L 140.0 180.0 L 131.0 181.0 " stroke="black" fill="none" stroke-width="5.0" stroke-linecap="round" stroke-linejoin="round" />
<path d="M 148.0 107.0 L 148.0 106.0 L 148.0 105.0 L 148.0 105.0 L 148.0 107.0 L 149.0 119.0 L 149.0 143.0 L 148.0 168.0 L 144.0 189.0 L 140.0 200.0 L 137.0 202.0 " stroke="black" fill="none" stroke-width="5.0" stroke-linecap="round" stroke-linejoin="round" />
</svg>