<svg xmlns="http://www.w3.org/2000/svg" width="300" height="300" viewBox="0 0 300 300">
<path d="M 109.0 140.0 L 109.0 140.0 L 109.0 140.0 L 110.0 140.0 L 117.0 140.0 L 133.0 138.0 L 151.0 136.0 L 164.0 134.0 L 171.0 134.0 L 173.0 135.0 L 173.0 137.0 L 172.0 142.0 L 167.0 148.0 L 160.0 155.0 L 158.0 157.0 " stroke="black" fill="none" stroke-width="5.0" stroke-linecap="round" stroke-linejoin="round" />
<path d="M 129.0 113.0 L 129.0 113.0 L 129.0 113.0 L 128.0 117.0 L 127.0 128.0 L 126.0 147.0 L 124.0 168.0 L 124.0 182.0 L 125.0 190.0 L 131.0 193.0 L 140.0 195.0 L 153.0 196.0 L 167.0 196.0 L 179.0 195.0 L 182.0 195.0 " stroke="black" fill="none" stroke-width="5.0" stroke-linecap="round" stroke-linejoin="round" />
<path d="M 180.0 116.0 L 180.0 116.0 L 180.0 116.0 L 180.0 116.0 L 180.0 116.0 L 181.0 120.0 L 182.0 125.0 L 183.0 127.0 " stroke="black" fill="none" stroke-width="5.0" stroke-linecap="round" stroke-linejoin="round" />
<path d="M 192.0 113.0 L 192.0 115.0 L 192.0 117.0 L 194.0 121.0 L 194.0 127.0 L 194.0 129.0 " stroke="black" fill="none" stroke-width="5.0" stroke-linecap="round" stroke-linejoin="round" />
</svg>