<svg xmlns="http://www.w3.org/2000/svg" width="300" height="300" viewBox="0 0 300 300">
<path d="M 123.0 113.0 L 123.0 113.0 L 124.0 113.0 L 124.0 113.0 L 128.0 112.0 L 139.0 109.0 L 150.0 107.0 L 159.0 106.0 L 163.0 106.0 L 163.0 107.0 L 161.0 111.0 L 157.0 116.0 L 152.0 123.0 L 147.0 133.0 L 140.0 145.0 L 133.0 157.0 L 127.0 164.0 L 124.0 167.0 L 124.0 167.0 L 124.0 165.0 L 126.0 163.0 L 129.0 159.0 L 133.0 155.0 L 137.0 151.0 L 144.0 146.0 L 152.0 141.0 L 164.0 138.0 L 175.0 141.0 L 183.0 149.0 L 188.0 159.0 L 189.0 168.0 L 187.0 176.0 L 182.0 184.0 L 174.0 192.0 L 163.0 198.0 L 154.0 199.0 " stroke="black" fill="none" stroke-width="5.0" stroke-linecap="round" stroke-linejoin="round" />
</svg>