<svg xmlns="http://www.w3.org/2000/svg" width="300" height="300" viewBox="0 0 300 300">
<path d="M 113.0 120.0 L 114.0 121.0 L 115.0 121.0 L 117.0 121.0 L 123.0 121.0 L 131.0 120.0 L 139.0 119.0 L 144.0 118.0 L 145.0 119.0 L 142.0 124.0 L 136.0 132.0 L 129.0 142.0 L 121.0 154.0 L 115.0 163.0 L 111.0 169.0 L 110.0 171.0 L 110.0 170.0 L 111.0 167.0 L 114.0 162.0 L 118.0 157.0 L 124.0 150.0 L 131.0 143.0 L 142.0 134.0 L 155.0 126.0 L 166.0 122.0 L 175.0 122.0 L 182.0 127.0 L 187.0 134.0 L 189.0 143.0 L 189.0 153.0 L 187.0 163.0 L 183.0 172.0 L 178.0 179.0 L 175.0 181.0 " stroke="black" fill="none" stroke-width="5.0" stroke-linecap="round" stroke-linejoin="round" />
<path d="M 132.0 94.0 L 132.0 96.0 L 131.0 101.0 L 131.0 112.0 L 132.0 132.0 L 134.0 157.0 L 135.0 176.0 L 135.0 188.0 L 136.0 191.0 L 136.0 192.0 L 136.0 190.0 " stroke="black" fill="none" stroke-width="5.0" stroke-linecap="round" stroke-linejoin="round" />
</svg>