<svg xmlns="http://www.w3.org/2000/svg" width="300" height="300" viewBox="0 0 300 300">
<path d="M 138.0 109.0 L 138.0 109.0 L 138.0 109.0 L 138.0 109.0 L 138.0 109.0 L 138.0 110.0 L 137.0 113.0 L 134.0 122.0 L 126.0 138.0 L 115.0 154.0 L 109.0 160.0 " stroke="black" fill="none" stroke-width="5.0" stroke-linecap="round" stroke-linejoin="round" />
<path d="M 138.0 128.0 L 138.0 128.0 L 138.0 128.0 L 138.0 127.0 L 141.0 127.0 L 146.0 127.0 L 152.0 128.0 L 157.0 130.0 L 160.0 132.0 L 161.0 135.0 L 160.0 143.0 L 155.0 154.0 L 148.0 167.0 L 139.0 182.0 L 128.0 194.0 L 120.0 199.0 " stroke="black" fill="none" stroke-width="5.0" stroke-linecap="round" stroke-linejoin="round" />
<path d="M 132.0 157.0 L 132.0 157.0 L 132.0 157.0 L 136.0 160.0 L 145.0 168.0 L 156.0 175.0 L 163.0 181.0 " stroke="black" fill="none" stroke-width="5.0" stroke-linecap="round" stroke-linejoin="round" />
<path d="M 165.0 113.0 L 165.0 113.0 L 166.0 113.0 L 167.0 113.0 L 168.0 113.0 L 169.0 117.0 L 171.0 122.0 L 172.0 128.0 L 172.0 129.0 " stroke="black" fill="none" stroke-width="5.0" stroke-linecap="round" stroke-linejoin="round" />
<path d="M 183.0 108.0 L 183.0 109.0 L 183.0 111.0 L 184.0 114.0 L 185.0 119.0 " stroke="black" fill="none" stroke-width="5.0" stroke-linecap="round" stroke-linejoin="round" />
</svg>