<svg xmlns="http://www.w3.org/2000/svg" width="300" height="300" viewBox="0 0 300 300">
<path d="M 124.0 126.0 L 124.0 126.0 L 124.0 126.0 L 125.0 126.0 L 128.0 128.0 L 133.0 132.0 L 136.0 135.0 " stroke="black" fill="none" stroke-width="5.0" stroke-linecap="round" stroke-linejoin="round" />
<path d="M 109.0 150.0 L 109.0 150.0 L 109.0 150.0 L 111.0 150.0 L 116.0 153.0 L 124.0 157.0 L 127.0 158.0 " stroke="black" fill="none" stroke-width="5.0" stroke-linecap="round" stroke-linejoin="round" />
<path d="M 182.0 138.0 L 182.0 138.0 L 182.0 139.0 L 182.0 141.0 L 181.0 145.0 L 177.0 154.0 L 167.0 167.0 L 151.0 184.0 L 133.0 198.0 L 117.0 204.0 " stroke="black" fill="none" stroke-width="5.0" stroke-linecap="round" stroke-linejoin="round" />
<path d="M 179.0 106.0 L 179.0 106.0 L 179.0 107.0 L 179.0 109.0 L 180.0 113.0 L 181.0 115.0 " stroke="black" fill="none" stroke-width="5.0" stroke-linecap="round" stroke-linejoin="round" />
<path d="M 192.0 102.0 L 192.0 102.0 L 192.0 102.0 L 192.0 102.0 L 193.0 104.0 L 194.0 111.0 L 194.0 115.0 " stroke="black" fill="none" stroke-width="5.0" stroke-linecap="round" stroke-linejoin="round" />
</svg>