<svg xmlns="http://www.w3.org/2000/svg" width="300" height="300" viewBox="0 0 300 300">
<path d="M 125.0 124.0 L 125.0 124.0 L 125.0 124.0 L 125.0 124.0 L 124.0 125.0 L 124.0 127.0 L 123.0 135.0 L 122.0 149.0 L 122.0 167.0 L 123.0 182.0 L 124.0 189.0 L 125.0 190.0 L 125.0 189.0 L 126.0 184.0 L 128.0 179.0 L 132.0 174.0 L 136.0 171.0 L 140.0 169.0 L 143.0 168.0 " stroke="black" fill="none" stroke-width="5.0" stroke-linecap="round" stroke-linejoin="round" />
<path d="M 151.0 129.0 L 151.0 129.0 L 151.0 129.0 L 152.0 129.0 L 158.0 129.0 L 167.0 129.0 L 174.0 129.0 L 178.0 129.0 L 178.0 129.0 L 177.0 129.0 " stroke="black" fill="none" stroke-width="5.0" stroke-linecap="round" stroke-linejoin="round" />
<path d="M 146.0 149.0 L 146.0 149.0 L 146.0 149.0 L 146.0 149.0 L 150.0 149.0 L 160.0 149.0 L 173.0 148.0 L 183.0 147.0 L 186.0 147.0 L 186.0 147.0 " stroke="black" fill="none" stroke-width="5.0" stroke-linecap="round" stroke-linejoin="round" />
<path d="M 163.0 135.0 L 163.0 135.0 L 163.0 134.0 L 164.0 134.0 L 164.0 135.0 L 165.0 142.0 L 166.0 156.0 L 166.0 172.0 L 165.0 185.0 L 162.0 192.0 L 158.0 193.0 L 154.0 192.0 L 151.0 189.0 L 150.0 185.0 L 151.0 181.0 L 154.0 177.0 L 160.0 175.0 L 168.0 175.0 L 179.0 180.0 L 189.0 185.0 L 194.0 187.0 L 195.0 188.0 " stroke="black" fill="none" stroke-width="5.0" stroke-linecap="round" stroke-linejoin="round" />
</svg>