<svg xmlns="http://www.w3.org/2000/svg" width="300" height="300" viewBox="0 0 300 300">
<path d="M 116.0 132.0 L 117.0 132.0 L 118.0 132.0 L 120.0 132.0 L 124.0 132.0 L 133.0 131.0 L 147.0 128.0 L 161.0 127.0 L 176.0 127.0 L 186.0 127.0 L 192.0 127.0 L 193.0 128.0 L 193.0 129.0 L 192.0 129.0 L 191.0 129.0 " stroke="black" fill="none" stroke-width="5.0" stroke-linecap="round" stroke-linejoin="round" />
<path d="M 162.0 112.0 L 162.0 112.0 L 162.0 113.0 L 162.0 115.0 L 164.0 120.0 L 170.0 147.0 L 171.0 160.0 L 170.0 168.0 L 168.0 171.0 L 164.0 171.0 L 158.0 168.0 L 153.0 163.0 " stroke="black" fill="none" stroke-width="5.0" stroke-linecap="round" stroke-linejoin="round" />
<path d="M 138.0 114.0 L 138.0 115.0 L 137.0 118.0 L 136.0 123.0 L 134.0 132.0 L 132.0 145.0 L 132.0 160.0 L 133.0 174.0 L 135.0 183.0 L 138.0 189.0 L 141.0 193.0 L 147.0 196.0 L 155.0 197.0 L 166.0 196.0 L 177.0 193.0 L 182.0 191.0 " stroke="black" fill="none" stroke-width="5.0" stroke-linecap="round" stroke-linejoin="round" />
<path d="M 192.0 105.0 L 192.0 105.0 L 192.0 105.0 L 192.0 105.0 L 192.0 105.0 L 192.0 106.0 L 193.0 111.0 L 193.0 112.0 " stroke="black" fill="none" stroke-width="5.0" stroke-linecap="round" stroke-linejoin="round" />
<path d="M 203.0 103.0 L 203.0 103.0 L 205.0 106.0 L 206.0 110.0 L 207.0 116.0 L 207.0 117.0 " stroke="black" fill="none" stroke-width="5.0" stroke-linecap="round" stroke-linejoin="round" />
</svg>