<svg xmlns="http://www.w3.org/2000/svg" width="300" height="300" viewBox="0 0 300 300">
<path d="M 148.0 110.0 L 147.0 110.0 L 145.0 110.0 L 144.0 110.0 L 140.0 111.0 L 134.0 114.0 L 126.0 119.0 L 117.0 127.0 L 110.0 138.0 L 107.0 150.0 L 107.0 163.0 L 110.0 174.0 L 118.0 182.0 L 130.0 187.0 L 145.0 190.0 L 157.0 190.0 L 168.0 188.0 L 177.0 183.0 L 183.0 175.0 L 187.0 166.0 L 188.0 156.0 L 189.0 146.0 L 186.0 137.0 L 183.0 129.0 L 180.0 124.0 L 176.0 120.0 L 170.0 115.0 L 165.0 111.0 L 158.0 109.0 L 152.0 108.0 L 149.0 109.0 L 147.0 110.0 L 147.0 111.0 " stroke="black" fill="none" stroke-width="5.0" stroke-linecap="round" stroke-linejoin="round" />
</svg>