<svg xmlns="http://www.w3.org/2000/svg" width="300" height="300" viewBox="0 0 300 300">
<path d="M 110.0 122.0 L 110.0 122.0 L 110.0 122.0 L 110.0 122.0 L 110.0 123.0 L 113.0 123.0 L 121.0 123.0 L 133.0 122.0 L 141.0 120.0 L 143.0 120.0 " stroke="black" fill="none" stroke-width="5.0" stroke-linecap="round" stroke-linejoin="round" />
<path d="M 125.0 108.0 L 125.0 108.0 L 126.0 107.0 L 126.0 107.0 L 126.0 111.0 L 126.0 121.0 L 124.0 141.0 L 120.0 163.0 L 115.0 182.0 L 110.0 191.0 L 109.0 193.0 " stroke="black" fill="none" stroke-width="5.0" stroke-linecap="round" stroke-linejoin="round" />
<path d="M 149.0 137.0 L 149.0 137.0 L 149.0 138.0 L 150.0 138.0 L 155.0 138.0 L 163.0 136.0 L 172.0 135.0 L 177.0 134.0 L 179.0 134.0 " stroke="black" fill="none" stroke-width="5.0" stroke-linecap="round" stroke-linejoin="round" />
<path d="M 145.0 169.0 L 145.0 169.0 L 144.0 170.0 L 144.0 170.0 L 144.0 171.0 L 143.0 172.0 L 141.0 175.0 L 141.0 180.0 L 141.0 185.0 L 147.0 189.0 L 158.0 189.0 L 171.0 186.0 L 183.0 183.0 L 189.0 180.0 L 190.0 178.0 " stroke="black" fill="none" stroke-width="5.0" stroke-linecap="round" stroke-linejoin="round" />
<path d="M 182.0 108.0 L 182.0 108.0 L 182.0 109.0 L 183.0 111.0 L 184.0 114.0 L 185.0 117.0 " stroke="black" fill="none" stroke-width="5.0" stroke-linecap="round" stroke-linejoin="round" />
<path d="M 192.0 103.0 L 192.0 103.0 L 192.0 103.0 L 193.0 103.0 L 194.0 104.0 L 195.0 109.0 L 196.0 114.0 " stroke="black" fill="none" stroke-width="5.0" stroke-linecap="round" stroke-linejoin="round" />
</svg>