<svg xmlns="http://www.w3.org/2000/svg" width="300" height="300" viewBox="0 0 300 300">
<path d="M 135.0 122.0 L 135.0 122.0 L 135.0 122.0 L 135.0 122.0 L 136.0 122.0 L 140.0 122.0 L 149.0 121.0 L 160.0 121.0 L 168.0 121.0 L 172.0 123.0 L 173.0 124.0 L 173.0 124.0 L 170.0 126.0 L 166.0 128.0 L 160.0 131.0 L 153.0 135.0 L 146.0 141.0 L 139.0 148.0 L 133.0 156.0 L 130.0 165.0 L 130.0 172.0 L 135.0 179.0 L 144.0 184.0 L 155.0 186.0 L 168.0 185.0 L 172.0 184.0 " stroke="black" fill="none" stroke-width="5.0" stroke-linecap="round" stroke-linejoin="round" />
<path d="M 170.0 135.0 L 170.0 135.0 L 171.0 135.0 L 172.0 135.0 L 172.0 135.0 L 173.0 136.0 L 174.0 139.0 L 175.0 143.0 L 175.0 146.0 " stroke="black" fill="none" stroke-width="5.0" stroke-linecap="round" stroke-linejoin="round" />
<path d="M 182.0 133.0 L 182.0 133.0 L 183.0 134.0 L 184.0 137.0 L 185.0 140.0 L 185.0 143.0 " stroke="black" fill="none" stroke-width="5.0" stroke-linecap="round" stroke-linejoin="round" />
</svg>