<svg xmlns="http://www.w3.org/2000/svg" width="300" height="300" viewBox="0 0 300 300">
<path d="M 211.0 93.0 L 210.0 93.0 L 209.0 93.0 L 208.0 94.0 L 207.0 95.0 L 206.0 98.0 L 204.0 102.0 L 202.0 109.0 L 200.0 116.0 L 199.0 124.0 L 197.0 131.0 L 197.0 138.0 L 197.0 144.0 L 197.0 149.0 L 197.0 154.0 L 197.0 159.0 L 197.0 164.0 L 197.0 169.0 L 198.0 173.0 L 200.0 178.0 L 201.0 182.0 L 203.0 187.0 L 205.0 192.0 L 207.0 196.0 L 209.0 199.0 L 212.0 202.0 L 213.0 204.0 L 214.0 205.0 L 214.0 205.0 L 214.0 205.0 " stroke="black" fill="none" stroke-width="5.0" stroke-linecap="round" stroke-linejoin="round" />
<path d="M 188.0 93.0 L 188.0 93.0 L 188.0 93.0 L 188.0 93.0 L 191.0 92.0 L 196.0 91.0 L 201.0 90.0 L 205.0 90.0 L 208.0 91.0 L 209.0 91.0 " stroke="black" fill="none" stroke-width="5.0" stroke-linecap="round" stroke-linejoin="round" />
<path d="M 187.0 94.0 L 187.0 94.0 L 187.0 94.0 L 186.0 94.0 L 186.0 96.0 L 186.0 101.0 L 186.0 109.0 L 186.0 119.0 L 186.0 127.0 L 186.0 134.0 L 186.0 141.0 L 186.0 146.0 L 186.0 151.0 L 186.0 155.0 L 186.0 159.0 L 186.0 164.0 L 186.0 168.0 L 186.0 171.0 L 186.0 175.0 L 186.0 178.0 L 187.0 181.0 L 187.0 184.0 L 187.0 188.0 L 187.0 190.0 L 187.0 193.0 L 187.0 195.0 L 187.0 198.0 L 187.0 199.0 L 187.0 201.0 L 187.0 202.0 L 187.0 203.0 L 187.0 204.0 L 187.0 204.0 L 187.0 204.0 L 188.0 204.0 L 190.0 204.0 L 192.0 204.0 L 195.0 205.0 L 198.0 205.0 L 201.0 206.0 L 203.0 206.0 L 205.0 206.0 L 207.0 206.0 L 208.0 206.0 L 209.0 206.0 L 209.0 206.0 " stroke="black" fill="none" stroke-width="5.0" stroke-linecap="round" stroke-linejoin="round" />
</svg>