<svg xmlns="http://www.w3.org/2000/svg" width="300" height="300" viewBox="0 0 300 300">
<path d="M 124.0 130.0 L 124.0 130.0 L 125.0 130.0 L 129.0 131.0 L 139.0 131.0 L 150.0 130.0 L 162.0 130.0 L 170.0 130.0 L 175.0 130.0 L 176.0 134.0 L 176.0 141.0 L 175.0 149.0 L 170.0 158.0 L 164.0 167.0 L 155.0 177.0 L 142.0 186.0 " stroke="black" fill="none" stroke-width="5.0" stroke-linecap="round" stroke-linejoin="round" />
<path d="M 184.0 107.0 L 185.0 107.0 L 185.0 108.0 L 186.0 109.0 L 187.0 111.0 L 188.0 115.0 L 188.0 117.0 " stroke="black" fill="none" stroke-width="5.0" stroke-linecap="round" stroke-linejoin="round" />
<path d="M 196.0 106.0 L 197.0 107.0 L 197.0 108.0 L 198.0 111.0 L 199.0 115.0 L 199.0 115.0 " stroke="black" fill="none" stroke-width="5.0" stroke-linecap="round" stroke-linejoin="round" />
</svg>