<svg xmlns="http://www.w3.org/2000/svg" width="300" height="300" viewBox="0 0 300 300">
<path d="M 204.0 97.0 L 204.0 97.0 L 204.0 97.0 L 204.0 98.0 L 204.0 98.0 L 204.0 98.0 L 203.0 99.0 L 202.0 101.0 L 200.0 105.0 L 197.0 109.0 L 194.0 112.0 L 192.0 114.0 L 191.0 115.0 L 191.0 116.0 L 191.0 117.0 L 191.0 118.0 L 191.0 120.0 L 191.0 123.0 L 191.0 127.0 L 191.0 133.0 L 191.0 140.0 L 191.0 148.0 L 190.0 154.0 L 190.0 161.0 L 190.0 167.0 L 190.0 171.0 L 190.0 174.0 L 190.0 176.0 L 190.0 178.0 L 190.0 180.0 L 189.0 182.0 L 189.0 183.0 L 189.0 183.0 L 189.0 183.0 L 189.0 183.0 L 189.0 183.0 L 189.0 183.0 L 189.0 183.0 L 189.0 183.0 L 189.0 183.0 L 189.0 183.0 L 190.0 183.0 L 192.0 186.0 L 196.0 190.0 L 199.0 195.0 L 204.0 200.0 L 207.0 204.0 L 210.0 206.0 L 212.0 207.0 L 212.0 207.0 L 212.0 207.0 L 212.0 206.0 " stroke="black" fill="none" stroke-width="5.0" stroke-linecap="round" stroke-linejoin="round" />
</svg>