<svg xmlns="http://www.w3.org/2000/svg" width="300" height="300" viewBox="0 0 300 300">
<path d="M 124.0 124.0 L 124.0 124.0 L 125.0 124.0 L 126.0 124.0 L 130.0 125.0 L 140.0 125.0 L 151.0 123.0 L 161.0 120.0 L 166.0 117.0 L 166.0 117.0 " stroke="black" fill="none" stroke-width="5.0" stroke-linecap="round" stroke-linejoin="round" />
<path d="M 149.0 109.0 L 149.0 111.0 L 149.0 113.0 L 150.0 116.0 L 152.0 121.0 L 156.0 127.0 L 161.0 132.0 L 165.0 136.0 L 167.0 139.0 L 167.0 141.0 L 167.0 143.0 L 164.0 145.0 L 161.0 148.0 L 157.0 151.0 L 154.0 153.0 " stroke="black" fill="none" stroke-width="5.0" stroke-linecap="round" stroke-linejoin="round" />
<path d="M 131.0 152.0 L 132.0 152.0 L 132.0 152.0 L 132.0 152.0 L 132.0 152.0 L 132.0 152.0 L 132.0 152.0 L 130.0 153.0 L 126.0 157.0 L 122.0 164.0 L 120.0 172.0 L 119.0 178.0 L 124.0 182.0 L 135.0 185.0 L 148.0 185.0 L 160.0 182.0 L 168.0 179.0 L 171.0 177.0 L 171.0 177.0 " stroke="black" fill="none" stroke-width="5.0" stroke-linecap="round" stroke-linejoin="round" />
<path d="M 182.0 99.0 L 182.0 99.0 L 182.0 99.0 L 182.0 99.0 L 182.0 98.0 L 182.0 98.0 L 183.0 101.0 L 185.0 106.0 L 186.0 110.0 " stroke="black" fill="none" stroke-width="5.0" stroke-linecap="round" stroke-linejoin="round" />
<path d="M 192.0 97.0 L 192.0 97.0 L 192.0 97.0 L 193.0 98.0 L 194.0 101.0 L 195.0 107.0 L 195.0 109.0 " stroke="black" fill="none" stroke-width="5.0" stroke-linecap="round" stroke-linejoin="round" />
</svg>