<svg xmlns="http://www.w3.org/2000/svg" width="300" height="300" viewBox="0 0 300 300">
<path d="M 119.0 115.0 L 119.0 115.0 L 119.0 115.0 L 119.0 115.0 L 119.0 115.0 L 119.0 117.0 L 119.0 123.0 L 118.0 136.0 L 118.0 154.0 L 118.0 171.0 L 120.0 179.0 L 125.0 184.0 L 135.0 187.0 L 146.0 189.0 L 159.0 189.0 L 170.0 189.0 L 178.0 188.0 L 181.0 186.0 L 182.0 185.0 " stroke="black" fill="none" stroke-width="5.0" stroke-linecap="round" stroke-linejoin="round" />
<path d="M 123.0 145.0 L 123.0 145.0 L 124.0 145.0 L 125.0 146.0 L 130.0 146.0 L 144.0 146.0 L 161.0 140.0 L 165.0 139.0 " stroke="black" fill="none" stroke-width="5.0" stroke-linecap="round" stroke-linejoin="round" />
<path d="M 170.0 111.0 L 170.0 112.0 L 171.0 113.0 L 171.0 115.0 L 173.0 119.0 L 174.0 124.0 L 175.0 125.0 " stroke="black" fill="none" stroke-width="5.0" stroke-linecap="round" stroke-linejoin="round" />
<path d="M 183.0 109.0 L 183.0 109.0 L 183.0 111.0 L 183.0 113.0 L 185.0 116.0 L 185.0 118.0 " stroke="black" fill="none" stroke-width="5.0" stroke-linecap="round" stroke-linejoin="round" />
</svg>