<svg xmlns="http://www.w3.org/2000/svg" width="300" height="300" viewBox="0 0 300 300">
<path d="M 134.0 102.0 L 134.0 102.0 L 134.0 102.0 L 135.0 102.0 L 141.0 102.0 L 150.0 102.0 L 157.0 102.0 L 162.0 102.0 L 163.0 102.0 " stroke="black" fill="none" stroke-width="5.0" stroke-linecap="round" stroke-linejoin="round" />
<path d="M 136.0 106.0 L 136.0 106.0 L 136.0 106.0 L 136.0 107.0 L 136.0 108.0 L 136.0 112.0 L 135.0 120.0 L 135.0 130.0 L 134.0 139.0 L 134.0 148.0 L 133.0 155.0 L 132.0 161.0 L 131.0 166.0 L 131.0 172.0 L 131.0 177.0 L 131.0 181.0 L 131.0 184.0 L 131.0 187.0 L 131.0 190.0 L 131.0 193.0 L 131.0 195.0 L 131.0 197.0 L 131.0 198.0 L 131.0 198.0 L 131.0 198.0 L 131.0 198.0 L 131.0 199.0 L 131.0 199.0 L 131.0 200.0 L 131.0 200.0 L 131.0 200.0 L 131.0 200.0 L 131.0 200.0 L 131.0 200.0 L 132.0 201.0 L 135.0 201.0 L 140.0 201.0 L 145.0 202.0 L 151.0 202.0 L 156.0 203.0 L 160.0 204.0 L 163.0 204.0 L 164.0 204.0 L 164.0 204.0 " stroke="black" fill="none" stroke-width="5.0" stroke-linecap="round" stroke-linejoin="round" />
<path d="M 152.0 107.0 L 152.0 107.0 L 152.0 107.0 L 152.0 106.0 L 152.0 106.0 L 152.0 107.0 L 152.0 110.0 L 152.0 117.0 L 151.0 126.0 L 151.0 136.0 L 151.0 144.0 L 150.0 151.0 L 150.0 156.0 L 150.0 161.0 L 149.0 166.0 L 149.0 170.0 L 149.0 173.0 L 149.0 176.0 L 149.0 179.0 L 149.0 183.0 L 149.0 187.0 L 149.0 189.0 L 149.0 191.0 L 149.0 193.0 L 149.0 194.0 L 149.0 195.0 L 149.0 195.0 L 149.0 195.0 L 149.0 195.0 L 149.0 195.0 " stroke="black" fill="none" stroke-width="5.0" stroke-linecap="round" stroke-linejoin="round" />
</svg>