<svg xmlns="http://www.w3.org/2000/svg" width="300" height="300" viewBox="0 0 300 300">
<path d="M 115.0 128.0 L 116.0 128.0 L 117.0 128.0 L 120.0 128.0 L 131.0 128.0 L 148.0 127.0 L 163.0 126.0 L 174.0 126.0 L 179.0 126.0 L 180.0 126.0 L 180.0 127.0 " stroke="black" fill="none" stroke-width="5.0" stroke-linecap="round" stroke-linejoin="round" />
<path d="M 147.0 108.0 L 147.0 108.0 L 147.0 108.0 L 147.0 107.0 L 147.0 107.0 L 147.0 110.0 L 148.0 123.0 L 151.0 144.0 L 152.0 163.0 L 153.0 175.0 L 153.0 182.0 L 152.0 185.0 L 150.0 186.0 L 145.0 186.0 L 139.0 183.0 L 133.0 178.0 " stroke="black" fill="none" stroke-width="5.0" stroke-linecap="round" stroke-linejoin="round" />
<path d="M 130.0 150.0 L 130.0 150.0 L 130.0 150.0 L 130.0 150.0 L 127.0 151.0 L 122.0 157.0 L 114.0 167.0 L 107.0 176.0 L 106.0 180.0 " stroke="black" fill="none" stroke-width="5.0" stroke-linecap="round" stroke-linejoin="round" />
<path d="M 165.0 155.0 L 166.0 155.0 L 168.0 157.0 L 172.0 160.0 L 178.0 166.0 L 185.0 173.0 L 189.0 178.0 L 190.0 181.0 L 190.0 181.0 " stroke="black" fill="none" stroke-width="5.0" stroke-linecap="round" stroke-linejoin="round" />
</svg>