<svg xmlns="http://www.w3.org/2000/svg" width="300" height="300" viewBox="0 0 300 300">
<path d="M 126.0 131.0 L 126.0 131.0 L 126.0 131.0 L 126.0 131.0 L 126.0 131.0 L 127.0 131.0 L 132.0 134.0 L 142.0 141.0 L 153.0 150.0 L 163.0 156.0 L 168.0 160.0 L 170.0 162.0 L 170.0 164.0 L 169.0 166.0 L 166.0 169.0 L 162.0 173.0 L 155.0 178.0 L 148.0 184.0 L 146.0 185.0 " stroke="black" fill="none" stroke-width="5.0" stroke-linecap="round" stroke-linejoin="round" />
<path d="M 147.0 115.0 L 147.0 115.0 L 147.0 115.0 L 147.0 116.0 L 149.0 119.0 L 151.0 123.0 L 152.0 124.0 " stroke="black" fill="none" stroke-width="5.0" stroke-linecap="round" stroke-linejoin="round" />
<path d="M 159.0 114.0 L 159.0 114.0 L 160.0 116.0 L 162.0 119.0 L 165.0 124.0 L 167.0 127.0 " stroke="black" fill="none" stroke-width="5.0" stroke-linecap="round" stroke-linejoin="round" />
</svg>