<svg xmlns="http://www.w3.org/2000/svg" width="300" height="300" viewBox="0 0 300 300">
<path d="M 121.0 123.0 L 121.0 123.0 L 121.0 123.0 L 121.0 123.0 L 122.0 124.0 L 125.0 124.0 L 130.0 124.0 L 135.0 123.0 L 139.0 122.0 L 143.0 121.0 L 145.0 120.0 L 146.0 120.0 L 146.0 119.0 L 146.0 119.0 L 146.0 120.0 L 144.0 121.0 L 143.0 123.0 L 142.0 124.0 L 141.0 126.0 L 139.0 129.0 L 137.0 133.0 L 135.0 137.0 L 131.0 142.0 L 128.0 149.0 L 125.0 155.0 L 123.0 161.0 L 123.0 168.0 L 124.0 174.0 L 128.0 181.0 L 134.0 186.0 L 141.0 187.0 L 149.0 186.0 L 156.0 182.0 L 162.0 175.0 L 167.0 168.0 L 171.0 160.0 L 172.0 154.0 L 173.0 148.0 L 174.0 143.0 L 174.0 139.0 L 175.0 136.0 L 175.0 136.0 L 175.0 135.0 L 175.0 135.0 L 175.0 136.0 L 175.0 136.0 L 175.0 136.0 L 175.0 137.0 L 175.0 137.0 L 175.0 139.0 L 175.0 143.0 L 176.0 149.0 L 178.0 156.0 L 182.0 162.0 L 186.0 166.0 L 189.0 168.0 " stroke="black" fill="none" stroke-width="5.0" stroke-linecap="round" stroke-linejoin="round" />
<path d="M 184.0 120.0 L 184.0 120.0 L 184.0 120.0 L 184.0 120.0 L 184.0 120.0 L 184.0 120.0 L 184.0 120.0 L 184.0 123.0 L 186.0 127.0 L 190.0 130.0 L 195.0 131.0 L 198.0 129.0 L 200.0 125.0 L 200.0 120.0 L 199.0 116.0 L 196.0 114.0 L 193.0 114.0 L 190.0 114.0 L 188.0 116.0 L 187.0 117.0 " stroke="black" fill="none" stroke-width="5.0" stroke-linecap="round" stroke-linejoin="round" />
</svg>