<svg xmlns="http://www.w3.org/2000/svg" width="300" height="300" viewBox="0 0 300 300">
<path d="M 114.0 123.0 L 114.0 123.0 L 114.0 123.0 L 114.0 123.0 L 115.0 123.0 L 119.0 123.0 L 131.0 123.0 L 146.0 123.0 L 159.0 123.0 L 167.0 122.0 L 172.0 122.0 L 174.0 123.0 L 175.0 126.0 L 175.0 132.0 L 175.0 141.0 L 175.0 152.0 L 175.0 165.0 L 175.0 175.0 L 175.0 179.0 L 174.0 180.0 " stroke="black" fill="none" stroke-width="5.0" stroke-linecap="round" stroke-linejoin="round" />
<path d="M 108.0 174.0 L 108.0 174.0 L 109.0 174.0 L 110.0 174.0 L 115.0 174.0 L 128.0 173.0 L 145.0 173.0 L 159.0 173.0 L 168.0 173.0 L 170.0 173.0 L 170.0 173.0 " stroke="black" fill="none" stroke-width="5.0" stroke-linecap="round" stroke-linejoin="round" />
</svg>