<svg xmlns="http://www.w3.org/2000/svg" width="300" height="300" viewBox="0 0 300 300">
<path d="M 93.5714285714286 118.5714285714286 L 93.5714285714286 119.28571428571432 L 93.5714285714286 120.00000000000001 L 94.28571428571432 120.71428571428574 L 95.00000000000001 122.85714285714288 L 96.42857142857146 126.42857142857146 L 98.5714285714286 130.71428571428572 L 100.71428571428574 135.71428571428572 L 103.5714285714286 139.28571428571433 L 105.71428571428574 142.14285714285717 L 107.14285714285715 145.00000000000006 L 107.85714285714288 147.14285714285717 L 108.5714285714286 148.5714285714286 L 108.5714285714286 149.28571428571433 L 109.28571428571432 149.28571428571433 L 109.28571428571432 150.00000000000006 L 109.28571428571432 150.00000000000006 L 109.28571428571432 150.00000000000006 L 109.28571428571432 150.00000000000006 L 109.28571428571432 150.00000000000006 L 109.28571428571432 150.00000000000006 L 109.28571428571432 150.71428571428572 L 108.5714285714286 151.42857142857144 L 107.85714285714288 152.14285714285717 L 106.42857142857146 153.5714285714286 L 105.00000000000001 156.42857142857144 L 102.85714285714288 159.28571428571433 L 99.28571428571432 164.28571428571433 L 95.00000000000001 171.42857142857144 L 91.42857142857146 176.42857142857144 L 90.00000000000001 178.5714285714286 " stroke="black" fill="none" stroke-width="5.0" stroke-linecap="round" stroke-linejoin="round" />
<path d="M 107.14285714285715 118.5714285714286 L 107.14285714285715 118.5714285714286 L 107.14285714285715 119.28571428571432 L 107.14285714285715 120.00000000000001 L 107.85714285714288 121.42857142857146 L 108.5714285714286 122.85714285714288 L 110.00000000000001 125.00000000000001 L 112.14285714285718 127.85714285714288 L 113.5714285714286 131.42857142857144 L 115.71428571428574 133.5714285714286 L 117.14285714285718 136.42857142857144 L 118.5714285714286 139.28571428571433 L 119.28571428571432 141.42857142857144 L 120.71428571428574 143.5714285714286 L 121.42857142857146 144.28571428571433 L 122.14285714285718 145.71428571428572 L 122.14285714285718 146.42857142857144 L 122.85714285714288 147.14285714285717 L 122.85714285714288 147.8571428571429 L 122.85714285714288 147.8571428571429 L 122.85714285714288 148.5714285714286 L 122.85714285714288 148.5714285714286 L 122.85714285714288 149.28571428571433 L 122.85714285714288 149.28571428571433 L 122.85714285714288 150.00000000000006 L 122.85714285714288 150.00000000000006 L 122.85714285714288 150.71428571428572 L 122.85714285714288 151.42857142857144 L 122.85714285714288 152.14285714285717 L 121.42857142857146 153.5714285714286 L 120.71428571428574 156.42857142857144 L 118.5714285714286 160.71428571428572 L 115.00000000000001 167.14285714285717 L 110.71428571428574 175.00000000000006 L 105.71428571428574 183.5714285714286 L 100.00000000000001 190.00000000000006 L 98.5714285714286 192.14285714285722 " stroke="black" fill="none" stroke-width="5.0" stroke-linecap="round" stroke-linejoin="round" />
</svg>