<svg xmlns="http://www.w3.org/2000/svg" width="300" height="300" viewBox="0 0 300 300">
<path d="M 118.0 125.0 L 119.0 125.0 L 119.0 125.0 L 120.0 125.0 L 121.0 125.0 L 125.0 124.0 L 133.0 122.0 L 140.0 121.0 L 146.0 120.0 L 149.0 120.0 L 148.0 123.0 L 145.0 128.0 L 139.0 136.0 L 133.0 144.0 L 127.0 152.0 L 121.0 160.0 L 117.0 166.0 L 115.0 170.0 L 114.0 170.0 L 115.0 170.0 L 116.0 167.0 L 119.0 162.0 L 124.0 157.0 L 132.0 150.0 L 143.0 143.0 L 155.0 136.0 L 166.0 132.0 L 177.0 132.0 L 185.0 137.0 L 191.0 144.0 L 194.0 150.0 L 195.0 157.0 L 193.0 165.0 L 188.0 172.0 L 181.0 179.0 L 171.0 185.0 L 164.0 185.0 " stroke="black" fill="none" stroke-width="5.0" stroke-linecap="round" stroke-linejoin="round" />
<path d="M 141.0 94.0 L 140.0 94.0 L 140.0 94.0 L 139.0 95.0 L 139.0 103.0 L 139.0 126.0 L 139.0 157.0 L 139.0 183.0 L 139.0 196.0 L 140.0 199.0 L 141.0 199.0 " stroke="black" fill="none" stroke-width="5.0" stroke-linecap="round" stroke-linejoin="round" />
</svg>