<svg xmlns="http://www.w3.org/2000/svg" width="300" height="300" viewBox="0 0 300 300">
<path d="M 123.0 122.0 L 123.0 122.0 L 123.0 122.0 L 123.0 122.0 L 124.0 122.0 L 131.0 122.0 L 144.0 122.0 L 158.0 121.0 L 169.0 121.0 L 178.0 121.0 L 182.0 122.0 L 182.0 124.0 L 181.0 128.0 L 178.0 135.0 L 173.0 142.0 L 170.0 145.0 " stroke="black" fill="none" stroke-width="5.0" stroke-linecap="round" stroke-linejoin="round" />
<path d="M 149.0 137.0 L 149.0 137.0 L 149.0 137.0 L 149.0 137.0 L 149.0 138.0 L 149.0 144.0 L 149.0 155.0 L 149.0 167.0 L 149.0 175.0 L 149.0 177.0 " stroke="black" fill="none" stroke-width="5.0" stroke-linecap="round" stroke-linejoin="round" />
<path d="M 116.0 181.0 L 116.0 181.0 L 116.0 182.0 L 119.0 182.0 L 129.0 182.0 L 163.0 183.0 L 178.0 183.0 L 187.0 184.0 L 191.0 184.0 L 192.0 185.0 " stroke="black" fill="none" stroke-width="5.0" stroke-linecap="round" stroke-linejoin="round" />
<path d="M 183.0 98.0 L 183.0 99.0 L 183.0 100.0 L 184.0 103.0 L 186.0 105.0 L 186.0 106.0 " stroke="black" fill="none" stroke-width="5.0" stroke-linecap="round" stroke-linejoin="round" />
<path d="M 193.0 96.0 L 193.0 97.0 L 194.0 99.0 L 195.0 102.0 L 197.0 106.0 L 197.0 107.0 " stroke="black" fill="none" stroke-width="5.0" stroke-linecap="round" stroke-linejoin="round" />
</svg>