<svg xmlns="http://www.w3.org/2000/svg" width="300" height="300" viewBox="0 0 300 300">
<path d="M 124.0 115.0 L 124.0 115.0 L 124.0 115.0 L 124.0 116.0 L 123.0 119.0 L 123.0 128.0 L 124.0 144.0 L 124.0 161.0 L 124.0 173.0 L 124.0 181.0 L 124.0 184.0 L 123.0 184.0 L 123.0 184.0 " stroke="black" fill="none" stroke-width="5.0" stroke-linecap="round" stroke-linejoin="round" />
<path d="M 147.0 124.0 L 147.0 124.0 L 147.0 124.0 L 147.0 124.0 L 147.0 128.0 L 147.0 139.0 L 148.0 155.0 L 148.0 168.0 L 148.0 175.0 L 148.0 176.0 L 148.0 175.0 " stroke="black" fill="none" stroke-width="5.0" stroke-linecap="round" stroke-linejoin="round" />
<path d="M 167.0 100.0 L 167.0 100.0 L 167.0 100.0 L 167.0 100.0 L 167.0 103.0 L 167.0 114.0 L 169.0 135.0 L 170.0 158.0 L 171.0 178.0 L 172.0 189.0 L 173.0 195.0 L 173.0 197.0 L 173.0 197.0 L 173.0 196.0 L 173.0 195.0 " stroke="black" fill="none" stroke-width="5.0" stroke-linecap="round" stroke-linejoin="round" />
</svg>