<svg xmlns="http://www.w3.org/2000/svg" width="300" height="300" viewBox="0 0 300 300">
<path d="M 111.0 132.0 L 111.0 132.0 L 111.0 132.0 L 113.0 133.0 L 116.0 132.0 L 123.0 130.0 L 132.0 127.0 L 140.0 125.0 L 144.0 125.0 L 145.0 125.0 L 144.0 128.0 L 142.0 133.0 L 139.0 138.0 L 135.0 146.0 L 131.0 154.0 L 126.0 163.0 L 121.0 171.0 L 117.0 179.0 L 115.0 184.0 L 114.0 186.0 L 114.0 187.0 L 114.0 186.0 L 115.0 185.0 L 117.0 181.0 L 119.0 175.0 L 122.0 169.0 L 126.0 163.0 L 131.0 155.0 L 138.0 147.0 L 144.0 141.0 L 150.0 137.0 L 157.0 134.0 L 166.0 132.0 L 175.0 134.0 L 182.0 142.0 L 187.0 150.0 L 190.0 160.0 L 192.0 170.0 L 192.0 182.0 L 190.0 191.0 L 186.0 198.0 L 180.0 202.0 L 173.0 202.0 L 168.0 198.0 L 167.0 190.0 L 171.0 181.0 L 178.0 171.0 L 188.0 162.0 L 197.0 156.0 L 204.0 153.0 L 210.0 152.0 L 215.0 152.0 L 217.0 153.0 L 217.0 154.0 " stroke="black" fill="none" stroke-width="5.0" stroke-linecap="round" stroke-linejoin="round" />
<path d="M 136.0 99.0 L 136.0 98.0 L 136.0 98.0 L 136.0 98.0 L 136.0 98.0 L 136.0 102.0 L 136.0 114.0 L 136.0 138.0 L 136.0 165.0 L 136.0 184.0 L 137.0 193.0 L 138.0 196.0 L 138.0 196.0 L 138.0 191.0 " stroke="black" fill="none" stroke-width="5.0" stroke-linecap="round" stroke-linejoin="round" />
</svg>