<svg xmlns="http://www.w3.org/2000/svg" width="300" height="300" viewBox="0 0 300 300">
<path d="M 129.0 121.0 L 129.0 121.0 L 129.0 122.0 L 130.0 122.0 L 131.0 123.0 L 134.0 123.0 L 139.0 124.0 L 144.0 124.0 L 149.0 124.0 L 152.0 124.0 L 154.0 124.0 L 154.0 124.0 L 154.0 124.0 L 152.0 125.0 L 150.0 127.0 L 148.0 131.0 L 145.0 135.0 L 142.0 140.0 L 138.0 146.0 L 134.0 153.0 L 131.0 160.0 L 129.0 168.0 L 128.0 176.0 L 128.0 183.0 L 132.0 187.0 L 139.0 189.0 L 147.0 189.0 L 154.0 186.0 L 160.0 181.0 L 166.0 174.0 L 171.0 165.0 L 175.0 155.0 L 176.0 145.0 L 177.0 137.0 L 177.0 134.0 L 177.0 133.0 L 176.0 133.0 L 176.0 133.0 L 176.0 133.0 L 176.0 133.0 L 176.0 133.0 L 176.0 133.0 L 176.0 133.0 L 176.0 133.0 L 176.0 133.0 L 176.0 133.0 L 176.0 133.0 L 176.0 133.0 L 176.0 133.0 L 176.0 133.0 L 176.0 133.0 L 176.0 134.0 L 176.0 137.0 L 176.0 141.0 L 178.0 150.0 L 181.0 161.0 L 188.0 168.0 L 194.0 170.0 L 196.0 170.0 " stroke="black" fill="none" stroke-width="5.0" stroke-linecap="round" stroke-linejoin="round" />
</svg>