<svg xmlns="http://www.w3.org/2000/svg" width="300" height="300" viewBox="0 0 300 300">
<path d="M 128.0 125.0 L 128.0 125.0 L 127.0 125.0 L 127.0 125.0 L 127.0 125.0 L 127.0 126.0 L 131.0 131.0 L 137.0 138.0 L 141.0 143.0 " stroke="black" fill="none" stroke-width="5.0" stroke-linecap="round" stroke-linejoin="round" />
<path d="M 161.0 131.0 L 161.0 131.0 L 161.0 131.0 L 161.0 131.0 L 159.0 131.0 L 156.0 133.0 L 151.0 138.0 L 142.0 146.0 L 133.0 156.0 L 126.0 165.0 L 124.0 175.0 L 129.0 183.0 L 139.0 187.0 L 153.0 188.0 L 168.0 187.0 L 178.0 186.0 " stroke="black" fill="none" stroke-width="5.0" stroke-linecap="round" stroke-linejoin="round" />
<path d="M 171.0 115.0 L 171.0 115.0 L 172.0 115.0 L 173.0 115.0 L 174.0 118.0 L 176.0 123.0 L 177.0 130.0 L 177.0 132.0 " stroke="black" fill="none" stroke-width="5.0" stroke-linecap="round" stroke-linejoin="round" />
<path d="M 181.0 112.0 L 182.0 112.0 L 183.0 112.0 L 184.0 115.0 L 186.0 123.0 L 187.0 133.0 L 187.0 135.0 " stroke="black" fill="none" stroke-width="5.0" stroke-linecap="round" stroke-linejoin="round" />
</svg>