<svg xmlns="http://www.w3.org/2000/svg" width="300" height="300" viewBox="0 0 300 300">
<path d="M 114.0 114.0 L 114.0 114.0 L 114.0 115.0 L 113.0 117.0 L 113.0 119.0 L 112.0 126.0 L 112.0 139.0 L 111.0 156.0 L 111.0 172.0 L 111.0 183.0 L 113.0 187.0 L 113.0 188.0 L 114.0 186.0 L 115.0 181.0 L 117.0 173.0 L 121.0 166.0 L 126.0 162.0 L 132.0 160.0 L 134.0 160.0 " stroke="black" fill="none" stroke-width="5.0" stroke-linecap="round" stroke-linejoin="round" />
<path d="M 140.0 132.0 L 140.0 132.0 L 140.0 132.0 L 141.0 132.0 L 147.0 132.0 L 158.0 130.0 L 171.0 128.0 L 179.0 126.0 L 181.0 126.0 L 180.0 127.0 " stroke="black" fill="none" stroke-width="5.0" stroke-linecap="round" stroke-linejoin="round" />
<path d="M 161.0 114.0 L 162.0 114.0 L 162.0 114.0 L 163.0 114.0 L 164.0 116.0 L 165.0 124.0 L 165.0 140.0 L 164.0 157.0 L 161.0 172.0 L 157.0 184.0 L 153.0 190.0 L 150.0 192.0 L 146.0 191.0 L 144.0 186.0 L 143.0 180.0 L 143.0 174.0 L 145.0 170.0 L 150.0 168.0 L 159.0 167.0 L 171.0 171.0 L 183.0 178.0 L 190.0 186.0 L 192.0 190.0 L 192.0 192.0 " stroke="black" fill="none" stroke-width="5.0" stroke-linecap="round" stroke-linejoin="round" />
</svg>