<svg xmlns="http://www.w3.org/2000/svg" width="300" height="300" viewBox="0 0 300 300">
<path d="M 124.0 115.0 L 124.0 115.0 L 124.0 116.0 L 125.0 117.0 L 127.0 117.0 L 132.0 117.0 L 144.0 116.0 L 156.0 115.0 L 167.0 116.0 L 173.0 118.0 L 176.0 120.0 L 177.0 122.0 L 177.0 125.0 L 177.0 133.0 L 175.0 143.0 L 171.0 156.0 L 165.0 169.0 L 156.0 182.0 L 148.0 190.0 " stroke="black" fill="none" stroke-width="5.0" stroke-linecap="round" stroke-linejoin="round" />
<path d="M 124.0 141.0 L 124.0 141.0 L 126.0 141.0 L 126.0 140.0 L 127.0 140.0 L 128.0 140.0 L 131.0 140.0 L 138.0 141.0 L 148.0 141.0 L 158.0 141.0 L 166.0 141.0 L 172.0 141.0 L 175.0 140.0 L 175.0 140.0 " stroke="black" fill="none" stroke-width="5.0" stroke-linecap="round" stroke-linejoin="round" />
</svg>