<svg xmlns="http://www.w3.org/2000/svg" width="300" height="300" viewBox="0 0 300 300">
<path d="M 151.0 109.0 L 151.0 109.0 L 150.0 110.0 L 148.0 112.0 L 144.0 118.0 L 139.0 130.0 L 133.0 148.0 L 131.0 162.0 L 130.0 172.0 L 130.0 180.0 L 129.0 186.0 L 129.0 189.0 L 129.0 189.0 L 129.0 188.0 L 129.0 184.0 L 129.0 179.0 L 131.0 173.0 L 134.0 167.0 L 139.0 162.0 L 145.0 156.0 L 152.0 152.0 L 157.0 150.0 L 160.0 150.0 L 162.0 154.0 L 163.0 160.0 L 164.0 168.0 L 165.0 176.0 L 167.0 184.0 L 171.0 191.0 L 177.0 195.0 L 183.0 196.0 L 190.0 195.0 L 196.0 190.0 L 197.0 187.0 " stroke="black" fill="none" stroke-width="5.0" stroke-linecap="round" stroke-linejoin="round" />
</svg>