<svg xmlns="http://www.w3.org/2000/svg" width="300" height="300" viewBox="0 0 300 300">
<path d="M 118.0 128.0 L 118.0 128.0 L 119.0 128.0 L 121.0 129.0 L 128.0 129.0 L 144.0 129.0 L 163.0 127.0 L 179.0 126.0 L 186.0 125.0 " stroke="black" fill="none" stroke-width="5.0" stroke-linecap="round" stroke-linejoin="round" />
<path d="M 167.0 110.0 L 167.0 110.0 L 167.0 110.0 L 167.0 110.0 L 167.0 113.0 L 167.0 126.0 L 167.0 147.0 L 164.0 168.0 L 156.0 184.0 L 146.0 197.0 " stroke="black" fill="none" stroke-width="5.0" stroke-linecap="round" stroke-linejoin="round" />
<path d="M 135.0 111.0 L 135.0 111.0 L 135.0 111.0 L 135.0 113.0 L 135.0 124.0 L 135.0 142.0 L 135.0 150.0 " stroke="black" fill="none" stroke-width="5.0" stroke-linecap="round" stroke-linejoin="round" />
<path d="M 185.0 102.0 L 185.0 102.0 L 185.0 104.0 L 185.0 106.0 L 186.0 109.0 L 187.0 110.0 " stroke="black" fill="none" stroke-width="5.0" stroke-linecap="round" stroke-linejoin="round" />
<path d="M 196.0 98.0 L 196.0 98.0 L 197.0 100.0 L 198.0 104.0 L 199.0 108.0 L 200.0 111.0 " stroke="black" fill="none" stroke-width="5.0" stroke-linecap="round" stroke-linejoin="round" />
</svg>