<svg xmlns="http://www.w3.org/2000/svg" width="300" height="300" viewBox="0 0 300 300">
<path d="M 123.0 137.0 L 123.0 137.0 L 123.0 137.0 L 123.0 137.0 L 123.0 137.0 L 126.0 136.0 L 136.0 133.0 L 152.0 131.0 L 167.0 131.0 L 174.0 136.0 L 175.0 145.0 L 170.0 156.0 L 161.0 167.0 L 150.0 177.0 L 138.0 185.0 L 126.0 187.0 " stroke="black" fill="none" stroke-width="5.0" stroke-linecap="round" stroke-linejoin="round" />
<path d="M 179.0 113.0 L 179.0 113.0 L 180.0 114.0 L 181.0 115.0 L 183.0 117.0 L 185.0 121.0 L 186.0 125.0 " stroke="black" fill="none" stroke-width="5.0" stroke-linecap="round" stroke-linejoin="round" />
<path d="M 191.0 111.0 L 191.0 111.0 L 192.0 111.0 L 193.0 114.0 L 195.0 121.0 L 196.0 127.0 " stroke="black" fill="none" stroke-width="5.0" stroke-linecap="round" stroke-linejoin="round" />
</svg>