<svg xmlns="http://www.w3.org/2000/svg" width="300" height="300" viewBox="0 0 300 300">
<path d="M 107.0 164.0 L 107.0 164.0 L 107.0 164.0 L 107.0 165.0 L 107.0 165.0 L 107.0 163.0 L 107.0 159.0 L 111.0 152.0 L 116.0 142.0 L 122.0 134.0 L 128.0 129.0 L 132.0 126.0 L 135.0 126.0 L 138.0 126.0 L 142.0 130.0 L 149.0 136.0 L 157.0 145.0 L 168.0 156.0 L 179.0 165.0 L 186.0 171.0 L 189.0 174.0 L 189.0 174.0 L 187.0 174.0 L 187.0 174.0 " stroke="black" fill="none" stroke-width="5.0" stroke-linecap="round" stroke-linejoin="round" />
<path d="M 165.0 110.0 L 165.0 110.0 L 165.0 110.0 L 165.0 110.0 L 165.0 112.0 L 167.0 115.0 L 168.0 119.0 L 169.0 119.0 " stroke="black" fill="none" stroke-width="5.0" stroke-linecap="round" stroke-linejoin="round" />
<path d="M 177.0 106.0 L 177.0 106.0 L 178.0 109.0 L 179.0 112.0 L 180.0 116.0 L 181.0 117.0 " stroke="black" fill="none" stroke-width="5.0" stroke-linecap="round" stroke-linejoin="round" />
</svg>