<svg xmlns="http://www.w3.org/2000/svg" width="300" height="300" viewBox="0 0 300 300">
<path d="M 120.0 124.0 L 120.0 124.0 L 120.0 124.0 L 121.0 125.0 L 127.0 126.0 L 141.0 126.0 L 156.0 124.0 L 169.0 122.0 L 176.0 120.0 L 178.0 119.0 " stroke="black" fill="none" stroke-width="5.0" stroke-linecap="round" stroke-linejoin="round" />
<path d="M 148.0 114.0 L 148.0 114.0 L 148.0 114.0 L 148.0 114.0 L 150.0 116.0 L 155.0 121.0 L 162.0 127.0 L 168.0 132.0 L 172.0 136.0 L 174.0 138.0 L 174.0 140.0 L 170.0 144.0 L 164.0 148.0 L 160.0 150.0 " stroke="black" fill="none" stroke-width="5.0" stroke-linecap="round" stroke-linejoin="round" />
<path d="M 138.0 159.0 L 138.0 159.0 L 138.0 159.0 L 137.0 160.0 L 137.0 160.0 L 134.0 162.0 L 131.0 166.0 L 127.0 172.0 L 124.0 180.0 L 126.0 187.0 L 136.0 193.0 L 149.0 195.0 L 162.0 195.0 L 172.0 194.0 L 176.0 194.0 " stroke="black" fill="none" stroke-width="5.0" stroke-linecap="round" stroke-linejoin="round" />
</svg>