<svg xmlns="http://www.w3.org/2000/svg" width="300" height="300" viewBox="0 0 300 300">
<path d="M 149.0 154.0 L 149.0 154.0 L 149.0 154.0 L 148.0 154.0 L 148.0 155.0 L 148.0 155.0 L 148.0 155.0 L 148.0 155.0 L 147.0 156.0 L 147.0 156.0 L 146.0 156.0 L 145.0 156.0 L 144.0 156.0 L 144.0 155.0 L 143.0 153.0 L 143.0 151.0 L 144.0 149.0 L 145.0 147.0 L 146.0 146.0 L 148.0 145.0 L 151.0 145.0 L 153.0 145.0 L 154.0 148.0 L 155.0 151.0 L 156.0 154.0 L 156.0 156.0 L 155.0 157.0 L 153.0 158.0 L 150.0 158.0 L 148.0 158.0 L 146.0 157.0 L 145.0 156.0 L 145.0 155.0 L 145.0 152.0 L 145.0 150.0 L 146.0 149.0 L 148.0 148.0 L 149.0 147.0 L 151.0 147.0 L 153.0 148.0 L 154.0 150.0 L 154.0 153.0 L 153.0 156.0 L 152.0 158.0 L 150.0 158.0 L 149.0 158.0 L 147.0 156.0 L 147.0 153.0 L 147.0 151.0 L 147.0 150.0 L 149.0 150.0 L 151.0 150.0 L 152.0 151.0 L 153.0 153.0 L 153.0 154.0 L 153.0 154.0 L 151.0 155.0 L 149.0 154.0 L 148.0 152.0 L 148.0 150.0 L 148.0 149.0 L 148.0 149.0 L 149.0 149.0 L 150.0 150.0 L 150.0 151.0 L 150.0 152.0 L 150.0 152.0 " stroke="black" fill="none" stroke-width="5.0" stroke-linecap="round" stroke-linejoin="round" />
</svg>