<svg xmlns="http://www.w3.org/2000/svg" width="300" height="300" viewBox="0 0 300 300">
<path d="M 125.0 136.0 L 125.0 136.0 L 125.0 136.0 L 125.0 136.0 L 127.0 136.0 L 133.0 136.0 L 144.0 135.0 L 155.0 133.0 L 165.0 133.0 L 170.0 133.0 L 174.0 135.0 L 175.0 137.0 L 176.0 142.0 L 177.0 152.0 L 178.0 166.0 L 179.0 180.0 L 180.0 190.0 L 179.0 196.0 L 177.0 197.0 L 172.0 198.0 L 165.0 196.0 L 160.0 193.0 " stroke="black" fill="none" stroke-width="5.0" stroke-linecap="round" stroke-linejoin="round" />
<path d="M 153.0 114.0 L 153.0 115.0 L 152.0 118.0 L 150.0 123.0 L 146.0 134.0 L 140.0 150.0 L 132.0 166.0 L 123.0 178.0 L 118.0 185.0 L 117.0 185.0 " stroke="black" fill="none" stroke-width="5.0" stroke-linecap="round" stroke-linejoin="round" />
</svg>