<svg xmlns="http://www.w3.org/2000/svg" width="300" height="300" viewBox="0 0 300 300">
<path d="M 115.0 119.0 L 115.0 119.0 L 115.0 119.0 L 116.0 120.0 L 126.0 120.0 L 142.0 117.0 L 152.0 115.0 L 155.0 115.0 " stroke="black" fill="none" stroke-width="5.0" stroke-linecap="round" stroke-linejoin="round" />
<path d="M 137.0 103.0 L 137.0 103.0 L 137.0 103.0 L 137.0 103.0 L 137.0 103.0 L 137.0 106.0 L 134.0 116.0 L 129.0 134.0 L 124.0 151.0 L 120.0 163.0 L 117.0 167.0 L 117.0 168.0 L 117.0 167.0 L 118.0 163.0 L 121.0 159.0 L 125.0 155.0 L 130.0 152.0 L 136.0 148.0 L 144.0 145.0 L 150.0 144.0 L 155.0 144.0 L 158.0 146.0 L 159.0 151.0 L 160.0 157.0 L 161.0 165.0 L 163.0 173.0 L 166.0 180.0 L 169.0 184.0 L 171.0 186.0 L 171.0 186.0 " stroke="black" fill="none" stroke-width="5.0" stroke-linecap="round" stroke-linejoin="round" />
<path d="M 176.0 147.0 L 176.0 147.0 L 176.0 147.0 L 176.0 147.0 L 176.0 148.0 L 173.0 149.0 L 166.0 154.0 L 155.0 163.0 L 144.0 174.0 L 138.0 186.0 L 141.0 193.0 L 150.0 197.0 L 161.0 199.0 L 172.0 199.0 L 178.0 199.0 " stroke="black" fill="none" stroke-width="5.0" stroke-linecap="round" stroke-linejoin="round" />
</svg>