<svg xmlns="http://www.w3.org/2000/svg" width="300" height="300" viewBox="0 0 300 300">
<path d="M 121.0 114.0 L 121.0 114.0 L 121.0 114.0 L 120.0 115.0 L 120.0 116.0 L 118.0 119.0 L 116.0 128.0 L 115.0 143.0 L 113.0 159.0 L 113.0 175.0 L 113.0 187.0 L 114.0 192.0 L 115.0 194.0 L 116.0 194.0 L 116.0 193.0 L 116.0 191.0 L 116.0 186.0 L 118.0 182.0 L 122.0 176.0 L 126.0 172.0 L 130.0 172.0 L 133.0 172.0 L 134.0 174.0 " stroke="black" fill="none" stroke-width="5.0" stroke-linecap="round" stroke-linejoin="round" />
<path d="M 134.0 139.0 L 134.0 139.0 L 135.0 139.0 L 138.0 139.0 L 147.0 139.0 L 161.0 137.0 L 173.0 136.0 L 178.0 136.0 L 179.0 136.0 " stroke="black" fill="none" stroke-width="5.0" stroke-linecap="round" stroke-linejoin="round" />
<path d="M 157.0 116.0 L 157.0 116.0 L 157.0 116.0 L 158.0 117.0 L 160.0 125.0 L 163.0 144.0 L 164.0 164.0 L 164.0 179.0 L 161.0 190.0 L 158.0 196.0 L 154.0 198.0 L 150.0 197.0 L 146.0 193.0 L 144.0 187.0 L 143.0 182.0 L 145.0 176.0 L 149.0 172.0 L 156.0 171.0 L 166.0 174.0 L 177.0 183.0 L 185.0 190.0 L 187.0 193.0 L 187.0 193.0 " stroke="black" fill="none" stroke-width="5.0" stroke-linecap="round" stroke-linejoin="round" />
<path d="M 178.0 112.0 L 178.0 112.0 L 178.0 112.0 L 177.0 113.0 L 177.0 115.0 L 177.0 119.0 L 178.0 122.0 L 181.0 124.0 L 186.0 123.0 L 190.0 119.0 L 191.0 114.0 L 191.0 111.0 L 188.0 109.0 L 183.0 109.0 L 181.0 110.0 " stroke="black" fill="none" stroke-width="5.0" stroke-linecap="round" stroke-linejoin="round" />
</svg>