<svg xmlns="http://www.w3.org/2000/svg" width="300" height="300" viewBox="0 0 300 300">
<path d="M 120.0 135.0 L 120.0 135.0 L 121.0 135.0 L 122.0 135.0 L 127.0 135.0 L 137.0 134.0 L 150.0 133.0 L 159.0 132.0 L 165.0 132.0 L 168.0 132.0 L 169.0 133.0 L 169.0 138.0 L 170.0 146.0 L 170.0 159.0 L 170.0 172.0 L 170.0 183.0 L 170.0 191.0 L 168.0 194.0 L 164.0 195.0 L 156.0 194.0 L 146.0 189.0 " stroke="black" fill="none" stroke-width="5.0" stroke-linecap="round" stroke-linejoin="round" />
<path d="M 145.0 117.0 L 145.0 117.0 L 145.0 117.0 L 144.0 119.0 L 141.0 127.0 L 136.0 146.0 L 125.0 170.0 L 115.0 187.0 L 110.0 194.0 " stroke="black" fill="none" stroke-width="5.0" stroke-linecap="round" stroke-linejoin="round" />
<path d="M 170.0 109.0 L 170.0 109.0 L 170.0 109.0 L 171.0 109.0 L 172.0 110.0 L 174.0 113.0 L 177.0 118.0 L 178.0 119.0 " stroke="black" fill="none" stroke-width="5.0" stroke-linecap="round" stroke-linejoin="round" />
<path d="M 181.0 106.0 L 181.0 106.0 L 181.0 106.0 L 182.0 107.0 L 183.0 111.0 L 186.0 116.0 L 186.0 118.0 " stroke="black" fill="none" stroke-width="5.0" stroke-linecap="round" stroke-linejoin="round" />
</svg>