<svg xmlns="http://www.w3.org/2000/svg" width="300" height="300" viewBox="0 0 300 300">
<path d="M 126.0 124.0 L 126.0 124.0 L 126.0 124.0 L 126.0 124.0 L 126.0 124.0 L 128.0 124.0 L 134.0 124.0 L 144.0 124.0 L 155.0 124.0 L 162.0 124.0 L 167.0 126.0 L 169.0 129.0 L 170.0 135.0 L 171.0 145.0 L 172.0 158.0 L 174.0 170.0 L 175.0 176.0 L 176.0 178.0 L 176.0 178.0 L 175.0 178.0 " stroke="black" fill="none" stroke-width="5.0" stroke-linecap="round" stroke-linejoin="round" />
<path d="M 122.0 153.0 L 122.0 153.0 L 122.0 153.0 L 123.0 153.0 L 130.0 153.0 L 143.0 154.0 L 155.0 154.0 L 163.0 154.0 L 165.0 154.0 L 164.0 155.0 " stroke="black" fill="none" stroke-width="5.0" stroke-linecap="round" stroke-linejoin="round" />
<path d="M 115.0 184.0 L 115.0 184.0 L 116.0 185.0 L 116.0 185.0 L 119.0 186.0 L 129.0 186.0 L 144.0 184.0 L 157.0 184.0 L 167.0 184.0 L 174.0 184.0 L 177.0 185.0 L 178.0 185.0 L 176.0 185.0 " stroke="black" fill="none" stroke-width="5.0" stroke-linecap="round" stroke-linejoin="round" />
</svg>