<svg xmlns="http://www.w3.org/2000/svg" width="300" height="300" viewBox="0 0 300 300">
<path d="M 160.0 105.0 L 159.0 106.0 L 159.0 106.0 L 158.0 107.0 L 157.0 109.0 L 154.0 113.0 L 147.0 120.0 L 135.0 129.0 L 132.0 131.0 " stroke="black" fill="none" stroke-width="5.0" stroke-linecap="round" stroke-linejoin="round" />
<path d="M 114.0 151.0 L 114.0 151.0 L 114.0 151.0 L 114.0 151.0 L 114.0 151.0 L 121.0 151.0 L 138.0 149.0 L 161.0 147.0 L 177.0 146.0 L 184.0 146.0 L 184.0 148.0 " stroke="black" fill="none" stroke-width="5.0" stroke-linecap="round" stroke-linejoin="round" />
<path d="M 148.0 122.0 L 148.0 122.0 L 148.0 122.0 L 148.0 123.0 L 148.0 126.0 L 148.0 135.0 L 148.0 150.0 L 145.0 167.0 L 136.0 185.0 L 130.0 193.0 " stroke="black" fill="none" stroke-width="5.0" stroke-linecap="round" stroke-linejoin="round" />
<path d="M 172.0 118.0 L 172.0 118.0 L 172.0 118.0 L 172.0 119.0 L 172.0 120.0 L 174.0 122.0 L 176.0 126.0 L 176.0 127.0 " stroke="black" fill="none" stroke-width="5.0" stroke-linecap="round" stroke-linejoin="round" />
<path d="M 186.0 116.0 L 186.0 119.0 L 186.0 122.0 L 187.0 126.0 L 187.0 127.0 " stroke="black" fill="none" stroke-width="5.0" stroke-linecap="round" stroke-linejoin="round" />
</svg>