<svg xmlns="http://www.w3.org/2000/svg" width="300" height="300" viewBox="0 0 300 300">
<path d="M 124.0 122.0 L 124.0 123.0 L 124.0 123.0 L 124.0 123.0 L 126.0 123.0 L 133.0 123.0 L 147.0 123.0 L 160.0 122.0 L 170.0 121.0 L 172.0 120.0 " stroke="black" fill="none" stroke-width="5.0" stroke-linecap="round" stroke-linejoin="round" />
<path d="M 120.0 154.0 L 119.0 155.0 L 117.0 157.0 L 114.0 159.0 L 112.0 163.0 L 111.0 168.0 L 112.0 176.0 L 120.0 183.0 L 134.0 187.0 L 152.0 187.0 L 168.0 185.0 L 180.0 183.0 L 186.0 180.0 " stroke="black" fill="none" stroke-width="5.0" stroke-linecap="round" stroke-linejoin="round" />
<path d="M 185.0 107.0 L 185.0 107.0 L 185.0 106.0 L 185.0 106.0 L 186.0 106.0 L 187.0 108.0 L 190.0 114.0 L 192.0 120.0 L 193.0 122.0 " stroke="black" fill="none" stroke-width="5.0" stroke-linecap="round" stroke-linejoin="round" />
<path d="M 195.0 101.0 L 195.0 101.0 L 196.0 101.0 L 197.0 104.0 L 199.0 109.0 L 202.0 114.0 L 202.0 117.0 " stroke="black" fill="none" stroke-width="5.0" stroke-linecap="round" stroke-linejoin="round" />
</svg>