<svg xmlns="http://www.w3.org/2000/svg" width="300" height="300" viewBox="0 0 300 300">
<path d="M 127.0 114.0 L 127.0 114.0 L 127.0 114.0 L 127.0 114.0 L 127.0 114.0 L 127.0 116.0 L 126.0 121.0 L 122.0 133.0 L 116.0 146.0 L 110.0 154.0 " stroke="black" fill="none" stroke-width="5.0" stroke-linecap="round" stroke-linejoin="round" />
<path d="M 129.0 130.0 L 129.0 130.0 L 129.0 130.0 L 129.0 130.0 L 129.0 130.0 L 135.0 131.0 L 147.0 131.0 L 160.0 130.0 L 170.0 128.0 L 174.0 126.0 " stroke="black" fill="none" stroke-width="5.0" stroke-linecap="round" stroke-linejoin="round" />
<path d="M 150.0 137.0 L 150.0 137.0 L 150.0 137.0 L 150.0 138.0 L 151.0 139.0 L 151.0 145.0 L 149.0 158.0 L 142.0 175.0 L 131.0 192.0 L 125.0 197.0 " stroke="black" fill="none" stroke-width="5.0" stroke-linecap="round" stroke-linejoin="round" />
<path d="M 171.0 106.0 L 171.0 106.0 L 172.0 106.0 L 173.0 108.0 L 174.0 113.0 L 176.0 119.0 " stroke="black" fill="none" stroke-width="5.0" stroke-linecap="round" stroke-linejoin="round" />
<path d="M 184.0 102.0 L 184.0 103.0 L 185.0 105.0 L 186.0 108.0 L 187.0 113.0 L 187.0 113.0 " stroke="black" fill="none" stroke-width="5.0" stroke-linecap="round" stroke-linejoin="round" />
</svg>