<svg xmlns="http://www.w3.org/2000/svg" width="300" height="300" viewBox="0 0 300 300">
<path d="M 122.0 135.0 L 122.0 135.0 L 122.0 135.0 L 127.0 135.0 L 137.0 135.0 L 148.0 135.0 L 152.0 135.0 " stroke="black" fill="none" stroke-width="5.0" stroke-linecap="round" stroke-linejoin="round" />
<path d="M 137.0 121.0 L 136.0 121.0 L 134.0 121.0 L 134.0 124.0 L 134.0 134.0 L 138.0 151.0 L 140.0 168.0 L 140.0 181.0 L 137.0 191.0 L 133.0 197.0 L 128.0 200.0 L 123.0 200.0 L 118.0 195.0 L 114.0 187.0 L 112.0 181.0 L 113.0 175.0 L 119.0 170.0 L 132.0 164.0 L 149.0 160.0 L 164.0 161.0 L 175.0 167.0 L 179.0 175.0 L 180.0 182.0 L 177.0 190.0 L 169.0 199.0 L 162.0 205.0 " stroke="black" fill="none" stroke-width="5.0" stroke-linecap="round" stroke-linejoin="round" />
<path d="M 175.0 119.0 L 175.0 119.0 L 175.0 119.0 L 176.0 120.0 L 181.0 125.0 L 187.0 133.0 L 190.0 138.0 " stroke="black" fill="none" stroke-width="5.0" stroke-linecap="round" stroke-linejoin="round" />
</svg>