<svg xmlns="http://www.w3.org/2000/svg" width="300" height="300" viewBox="0 0 300 300">
<path d="M 127.0 122.0 L 127.0 122.0 L 128.0 122.0 L 131.0 122.0 L 137.0 122.0 L 148.0 122.0 L 161.0 120.0 L 170.0 118.0 L 171.0 117.0 " stroke="black" fill="none" stroke-width="5.0" stroke-linecap="round" stroke-linejoin="round" />
<path d="M 124.0 143.0 L 126.0 144.0 L 131.0 144.0 L 140.0 144.0 L 153.0 143.0 L 167.0 141.0 L 178.0 139.0 L 179.0 138.0 " stroke="black" fill="none" stroke-width="5.0" stroke-linecap="round" stroke-linejoin="round" />
<path d="M 144.0 111.0 L 144.0 111.0 L 144.0 111.0 L 145.0 112.0 L 147.0 119.0 L 153.0 130.0 L 160.0 141.0 L 167.0 148.0 L 170.0 153.0 L 170.0 156.0 L 170.0 160.0 L 167.0 164.0 L 162.0 166.0 L 156.0 168.0 L 153.0 168.0 " stroke="black" fill="none" stroke-width="5.0" stroke-linecap="round" stroke-linejoin="round" />
<path d="M 129.0 168.0 L 129.0 168.0 L 130.0 168.0 L 130.0 168.0 L 130.0 169.0 L 129.0 170.0 L 126.0 172.0 L 123.0 175.0 L 120.0 181.0 L 119.0 189.0 L 122.0 196.0 L 131.0 201.0 L 144.0 203.0 L 156.0 202.0 L 165.0 200.0 L 169.0 198.0 " stroke="black" fill="none" stroke-width="5.0" stroke-linecap="round" stroke-linejoin="round" />
<path d="M 185.0 106.0 L 185.0 106.0 L 185.0 106.0 L 185.0 106.0 L 185.0 107.0 L 187.0 110.0 L 189.0 114.0 L 191.0 118.0 L 191.0 120.0 " stroke="black" fill="none" stroke-width="5.0" stroke-linecap="round" stroke-linejoin="round" />
<path d="M 194.0 105.0 L 194.0 105.0 L 195.0 106.0 L 196.0 107.0 L 198.0 111.0 L 199.0 114.0 L 199.0 115.0 " stroke="black" fill="none" stroke-width="5.0" stroke-linecap="round" stroke-linejoin="round" />
</svg>