<svg xmlns="http://www.w3.org/2000/svg" width="300" height="300" viewBox="0 0 300 300">
<path d="M 119.0 119.0 L 119.0 119.0 L 119.0 120.0 L 119.0 120.0 L 118.0 122.0 L 118.0 127.0 L 118.0 134.0 L 118.0 138.0 " stroke="black" fill="none" stroke-width="5.0" stroke-linecap="round" stroke-linejoin="round" />
<path d="M 126.0 114.0 L 126.0 114.0 L 126.0 114.0 L 128.0 114.0 L 134.0 114.0 L 147.0 115.0 L 159.0 116.0 L 169.0 117.0 L 179.0 123.0 L 181.0 127.0 L 181.0 133.0 L 181.0 142.0 L 178.0 153.0 L 171.0 165.0 L 162.0 176.0 L 150.0 185.0 " stroke="black" fill="none" stroke-width="5.0" stroke-linecap="round" stroke-linejoin="round" />
<path d="M 185.0 93.0 L 185.0 93.0 L 185.0 93.0 L 185.0 93.0 L 185.0 93.0 L 185.0 94.0 L 186.0 99.0 L 188.0 105.0 L 189.0 106.0 " stroke="black" fill="none" stroke-width="5.0" stroke-linecap="round" stroke-linejoin="round" />
<path d="M 195.0 91.0 L 196.0 91.0 L 196.0 91.0 L 197.0 91.0 L 200.0 95.0 L 202.0 102.0 " stroke="black" fill="none" stroke-width="5.0" stroke-linecap="round" stroke-linejoin="round" />
</svg>