<svg xmlns="http://www.w3.org/2000/svg" width="300" height="300" viewBox="0 0 300 300">
<path d="M 135.0 122.0 L 135.0 122.0 L 135.0 122.0 L 135.0 122.0 L 137.0 122.0 L 144.0 122.0 L 153.0 122.0 L 163.0 122.0 L 169.0 122.0 L 172.0 123.0 L 173.0 125.0 L 172.0 128.0 L 170.0 134.0 L 166.0 141.0 L 160.0 149.0 L 152.0 159.0 L 141.0 170.0 L 129.0 180.0 L 123.0 185.0 L 122.0 184.0 L 122.0 183.0 " stroke="black" fill="none" stroke-width="5.0" stroke-linecap="round" stroke-linejoin="round" />
<path d="M 135.0 145.0 L 136.0 145.0 L 136.0 145.0 L 138.0 146.0 L 143.0 152.0 L 154.0 164.0 L 168.0 175.0 L 181.0 182.0 L 187.0 185.0 L 188.0 186.0 " stroke="black" fill="none" stroke-width="5.0" stroke-linecap="round" stroke-linejoin="round" />
</svg>