<svg xmlns="http://www.w3.org/2000/svg" width="300" height="300" viewBox="0 0 300 300">
<path d="M 137.0 123.0 L 137.0 123.0 L 137.0 123.0 L 137.0 123.0 L 137.0 123.0 L 137.0 123.0 L 141.0 123.0 L 147.0 123.0 L 154.0 123.0 L 159.0 123.0 L 162.0 124.0 L 163.0 126.0 L 163.0 131.0 L 163.0 137.0 L 163.0 144.0 L 163.0 148.0 L 163.0 150.0 L 162.0 150.0 L 158.0 151.0 L 153.0 151.0 L 148.0 151.0 L 143.0 151.0 L 138.0 150.0 L 134.0 150.0 L 132.0 150.0 L 132.0 150.0 L 132.0 150.0 L 132.0 150.0 L 132.0 150.0 L 132.0 154.0 L 131.0 159.0 L 128.0 167.0 L 122.0 178.0 L 118.0 186.0 L 115.0 189.0 " stroke="black" fill="none" stroke-width="5.0" stroke-linecap="round" stroke-linejoin="round" />
</svg>