<svg xmlns="http://www.w3.org/2000/svg" width="300" height="300" viewBox="0 0 300 300">
<path d="M 125.0 120.0 L 125.0 120.0 L 125.0 120.0 L 125.0 122.0 L 124.0 126.0 L 122.0 137.0 L 119.0 155.0 L 117.0 174.0 L 117.0 182.0 L 117.0 183.0 L 118.0 179.0 " stroke="black" fill="none" stroke-width="5.0" stroke-linecap="round" stroke-linejoin="round" />
<path d="M 130.0 118.0 L 130.0 118.0 L 130.0 118.0 L 130.0 118.0 L 131.0 117.0 L 138.0 117.0 L 148.0 117.0 L 158.0 117.0 L 166.0 117.0 L 172.0 121.0 L 175.0 129.0 L 177.0 143.0 L 178.0 159.0 L 179.0 171.0 L 180.0 179.0 L 180.0 183.0 L 179.0 184.0 L 177.0 182.0 " stroke="black" fill="none" stroke-width="5.0" stroke-linecap="round" stroke-linejoin="round" />
<path d="M 143.0 148.0 L 143.0 148.0 L 143.0 148.0 L 144.0 149.0 L 148.0 152.0 L 154.0 155.0 L 155.0 156.0 " stroke="black" fill="none" stroke-width="5.0" stroke-linecap="round" stroke-linejoin="round" />
<path d="M 114.0 185.0 L 115.0 185.0 L 115.0 185.0 L 118.0 187.0 L 128.0 188.0 L 144.0 188.0 L 160.0 188.0 L 170.0 188.0 L 172.0 189.0 " stroke="black" fill="none" stroke-width="5.0" stroke-linecap="round" stroke-linejoin="round" />
</svg>