<svg xmlns="http://www.w3.org/2000/svg" width="300" height="300" viewBox="0 0 300 300">
<path d="M 123.0 135.0 L 123.0 135.0 L 124.0 135.0 L 125.0 135.0 L 128.0 136.0 L 137.0 136.0 L 152.0 135.0 L 165.0 135.0 L 175.0 135.0 L 178.0 135.0 " stroke="black" fill="none" stroke-width="5.0" stroke-linecap="round" stroke-linejoin="round" />
<path d="M 148.0 116.0 L 148.0 116.0 L 148.0 116.0 L 148.0 119.0 L 149.0 128.0 L 152.0 147.0 L 155.0 167.0 L 156.0 179.0 L 156.0 185.0 L 154.0 188.0 L 152.0 188.0 L 146.0 186.0 L 141.0 182.0 " stroke="black" fill="none" stroke-width="5.0" stroke-linecap="round" stroke-linejoin="round" />
<path d="M 130.0 157.0 L 130.0 157.0 L 130.0 157.0 L 130.0 157.0 L 130.0 158.0 L 127.0 162.0 L 120.0 171.0 L 113.0 182.0 L 110.0 186.0 " stroke="black" fill="none" stroke-width="5.0" stroke-linecap="round" stroke-linejoin="round" />
<path d="M 173.0 161.0 L 173.0 161.0 L 174.0 162.0 L 176.0 164.0 L 179.0 168.0 L 185.0 175.0 L 190.0 183.0 L 193.0 188.0 L 194.0 189.0 " stroke="black" fill="none" stroke-width="5.0" stroke-linecap="round" stroke-linejoin="round" />
</svg>