<svg xmlns="http://www.w3.org/2000/svg" width="300" height="300" viewBox="0 0 300 300">
<path d="M 132.0 123.0 L 132.0 124.0 L 133.0 127.0 L 135.0 131.0 L 139.0 136.0 L 145.0 141.0 L 146.0 141.0 " stroke="black" fill="none" stroke-width="5.0" stroke-linecap="round" stroke-linejoin="round" />
<path d="M 174.0 122.0 L 172.0 123.0 L 171.0 124.0 L 168.0 127.0 L 165.0 132.0 L 160.0 139.0 L 156.0 144.0 L 153.0 147.0 L 151.0 148.0 L 151.0 148.0 L 151.0 148.0 L 151.0 147.0 L 151.0 147.0 L 151.0 147.0 L 151.0 147.0 L 151.0 149.0 L 151.0 155.0 L 152.0 165.0 L 153.0 179.0 L 153.0 192.0 L 153.0 199.0 L 153.0 201.0 " stroke="black" fill="none" stroke-width="5.0" stroke-linecap="round" stroke-linejoin="round" />
</svg>