<svg xmlns="http://www.w3.org/2000/svg" width="300" height="300" viewBox="0 0 300 300">
<path d="M 125.0 128.0 L 125.0 129.0 L 126.0 129.0 L 128.0 130.0 L 137.0 130.0 L 153.0 130.0 L 168.0 129.0 L 180.0 129.0 L 183.0 128.0 L 180.0 130.0 " stroke="black" fill="none" stroke-width="5.0" stroke-linecap="round" stroke-linejoin="round" />
<path d="M 156.0 115.0 L 156.0 115.0 L 156.0 115.0 L 156.0 115.0 L 156.0 115.0 L 153.0 120.0 L 148.0 130.0 L 140.0 146.0 L 133.0 160.0 L 130.0 168.0 L 130.0 170.0 L 135.0 171.0 L 144.0 171.0 L 155.0 171.0 L 165.0 171.0 L 172.0 171.0 L 174.0 170.0 " stroke="black" fill="none" stroke-width="5.0" stroke-linecap="round" stroke-linejoin="round" />
<path d="M 172.0 155.0 L 172.0 155.0 L 173.0 155.0 L 175.0 158.0 L 180.0 164.0 L 185.0 173.0 L 189.0 180.0 L 190.0 185.0 L 190.0 186.0 " stroke="black" fill="none" stroke-width="5.0" stroke-linecap="round" stroke-linejoin="round" />
</svg>