<svg xmlns="http://www.w3.org/2000/svg" width="300" height="300" viewBox="0 0 300 300">
<path d="M 130.0 119.0 L 130.0 119.0 L 131.0 120.0 L 131.0 120.0 L 133.0 120.0 L 135.0 120.0 L 141.0 120.0 L 149.0 120.0 L 156.0 120.0 L 160.0 121.0 L 161.0 122.0 L 160.0 126.0 L 157.0 130.0 L 152.0 137.0 L 146.0 144.0 L 140.0 150.0 L 135.0 156.0 L 133.0 158.0 L 133.0 158.0 L 137.0 158.0 L 141.0 157.0 L 146.0 156.0 L 152.0 155.0 L 157.0 154.0 L 162.0 153.0 L 166.0 153.0 L 168.0 153.0 L 170.0 157.0 L 172.0 164.0 L 174.0 174.0 L 176.0 183.0 L 176.0 191.0 L 175.0 195.0 L 171.0 198.0 L 164.0 199.0 L 153.0 199.0 L 144.0 198.0 " stroke="black" fill="none" stroke-width="5.0" stroke-linecap="round" stroke-linejoin="round" />
</svg>