<svg xmlns="http://www.w3.org/2000/svg" width="300" height="300" viewBox="0 0 300 300">
<path d="M 133.0 122.0 L 133.0 122.0 L 133.0 122.0 L 133.0 122.0 L 133.0 122.0 L 132.0 126.0 L 128.0 133.0 L 122.0 142.0 L 119.0 148.0 L 118.0 150.0 L 124.0 150.0 L 134.0 150.0 L 145.0 149.0 L 155.0 149.0 L 164.0 149.0 L 171.0 149.0 L 175.0 148.0 L 176.0 149.0 L 176.0 153.0 L 177.0 162.0 L 178.0 173.0 L 178.0 182.0 L 178.0 189.0 L 178.0 192.0 L 176.0 194.0 L 172.0 194.0 L 165.0 194.0 L 157.0 191.0 " stroke="black" fill="none" stroke-width="5.0" stroke-linecap="round" stroke-linejoin="round" />
<path d="M 155.0 122.0 L 155.0 123.0 L 155.0 124.0 L 153.0 128.0 L 150.0 138.0 L 143.0 154.0 L 133.0 173.0 L 121.0 188.0 L 115.0 193.0 " stroke="black" fill="none" stroke-width="5.0" stroke-linecap="round" stroke-linejoin="round" />
</svg>