<svg xmlns="http://www.w3.org/2000/svg" width="300" height="300" viewBox="0 0 300 300">
<path d="M 131.0 125.0 L 131.0 125.0 L 131.0 125.0 L 131.0 125.0 L 131.0 125.0 L 135.0 125.0 L 143.0 125.0 L 154.0 124.0 L 163.0 124.0 L 166.0 124.0 " stroke="black" fill="none" stroke-width="5.0" stroke-linecap="round" stroke-linejoin="round" />
<path d="M 128.0 130.0 L 128.0 130.0 L 128.0 130.0 L 128.0 130.0 L 128.0 131.0 L 128.0 134.0 L 127.0 142.0 L 126.0 151.0 L 125.0 157.0 L 128.0 158.0 L 136.0 158.0 L 145.0 156.0 L 154.0 155.0 L 161.0 155.0 L 165.0 156.0 L 168.0 158.0 L 169.0 162.0 L 169.0 168.0 L 168.0 176.0 L 165.0 185.0 L 161.0 190.0 L 160.0 191.0 " stroke="black" fill="none" stroke-width="5.0" stroke-linecap="round" stroke-linejoin="round" />
<path d="M 148.0 132.0 L 148.0 132.0 L 148.0 132.0 L 147.0 132.0 L 147.0 133.0 L 146.0 140.0 L 142.0 156.0 L 135.0 176.0 L 126.0 191.0 L 123.0 193.0 " stroke="black" fill="none" stroke-width="5.0" stroke-linecap="round" stroke-linejoin="round" />
</svg>