<svg xmlns="http://www.w3.org/2000/svg" width="300" height="300" viewBox="0 0 300 300">
<path d="M 142.0 117.0 L 142.0 117.0 L 142.0 117.0 L 142.0 117.0 L 142.0 118.0 L 142.0 124.0 L 139.0 135.0 L 133.0 150.0 L 126.0 163.0 L 122.0 170.0 L 120.0 172.0 L 120.0 172.0 L 124.0 174.0 L 131.0 180.0 L 138.0 185.0 L 144.0 190.0 L 147.0 192.0 L 147.0 192.0 " stroke="black" fill="none" stroke-width="5.0" stroke-linecap="round" stroke-linejoin="round" />
<path d="M 159.0 124.0 L 159.0 124.0 L 159.0 124.0 L 159.0 124.0 L 159.0 127.0 L 157.0 134.0 L 155.0 145.0 L 151.0 157.0 L 148.0 165.0 L 146.0 169.0 L 146.0 169.0 L 147.0 169.0 L 150.0 172.0 L 154.0 176.0 L 159.0 179.0 L 165.0 182.0 L 168.0 183.0 " stroke="black" fill="none" stroke-width="5.0" stroke-linecap="round" stroke-linejoin="round" />
</svg>