<svg xmlns="http://www.w3.org/2000/svg" width="300" height="300" viewBox="0 0 300 300">
<path d="M 129.0 108.0 L 129.0 108.0 L 130.0 108.0 L 130.0 109.0 L 130.0 109.0 L 130.0 111.0 L 129.0 114.0 L 125.0 123.0 L 117.0 138.0 L 107.0 157.0 L 99.0 169.0 L 98.0 170.0 " stroke="black" fill="none" stroke-width="5.0" stroke-linecap="round" stroke-linejoin="round" />
<path d="M 118.0 142.0 L 118.0 142.0 L 119.0 141.0 L 119.0 141.0 L 119.0 144.0 L 119.0 153.0 L 119.0 168.0 L 119.0 185.0 L 119.0 188.0 " stroke="black" fill="none" stroke-width="5.0" stroke-linecap="round" stroke-linejoin="round" />
<path d="M 144.0 125.0 L 144.0 125.0 L 143.0 126.0 L 143.0 127.0 L 143.0 127.0 L 146.0 127.0 L 152.0 126.0 L 162.0 124.0 L 172.0 122.0 L 174.0 122.0 " stroke="black" fill="none" stroke-width="5.0" stroke-linecap="round" stroke-linejoin="round" />
<path d="M 132.0 157.0 L 132.0 157.0 L 132.0 157.0 L 133.0 157.0 L 138.0 157.0 L 149.0 155.0 L 163.0 153.0 L 173.0 151.0 " stroke="black" fill="none" stroke-width="5.0" stroke-linecap="round" stroke-linejoin="round" />
<path d="M 155.0 127.0 L 155.0 129.0 L 154.0 134.0 L 155.0 145.0 L 156.0 159.0 L 158.0 171.0 L 158.0 174.0 " stroke="black" fill="none" stroke-width="5.0" stroke-linecap="round" stroke-linejoin="round" />
<path d="M 138.0 184.0 L 138.0 184.0 L 139.0 185.0 L 145.0 185.0 L 158.0 185.0 L 175.0 184.0 L 179.0 184.0 " stroke="black" fill="none" stroke-width="5.0" stroke-linecap="round" stroke-linejoin="round" />
</svg>