<svg xmlns="http://www.w3.org/2000/svg" width="300" height="300" viewBox="0 0 300 300">
<path d="M 127.0 119.0 L 127.0 119.0 L 127.0 120.0 L 130.0 120.0 L 142.0 119.0 L 161.0 116.0 L 177.0 114.0 " stroke="black" fill="none" stroke-width="5.0" stroke-linecap="round" stroke-linejoin="round" />
<path d="M 160.0 124.0 L 160.0 124.0 L 159.0 125.0 L 158.0 126.0 L 157.0 128.0 L 152.0 134.0 L 142.0 146.0 L 126.0 160.0 L 118.0 166.0 " stroke="black" fill="none" stroke-width="5.0" stroke-linecap="round" stroke-linejoin="round" />
<path d="M 148.0 147.0 L 150.0 148.0 L 151.0 149.0 L 152.0 153.0 L 154.0 161.0 L 155.0 173.0 L 157.0 184.0 L 158.0 188.0 " stroke="black" fill="none" stroke-width="5.0" stroke-linecap="round" stroke-linejoin="round" />
<path d="M 152.0 151.0 L 153.0 151.0 L 155.0 151.0 L 160.0 153.0 L 172.0 155.0 L 186.0 159.0 L 196.0 164.0 L 197.0 166.0 " stroke="black" fill="none" stroke-width="5.0" stroke-linecap="round" stroke-linejoin="round" />
</svg>