<svg xmlns="http://www.w3.org/2000/svg" width="300" height="300" viewBox="0 0 300 300">
<path d="M 135.0 115.0 L 135.0 115.0 L 135.0 115.0 L 136.0 115.0 L 136.0 115.0 L 136.0 116.0 L 135.0 123.0 L 130.0 136.0 L 119.0 153.0 L 108.0 166.0 L 104.0 169.0 " stroke="black" fill="none" stroke-width="5.0" stroke-linecap="round" stroke-linejoin="round" />
<path d="M 128.0 149.0 L 128.0 149.0 L 128.0 149.0 L 127.0 149.0 L 127.0 151.0 L 127.0 159.0 L 128.0 175.0 L 129.0 189.0 L 130.0 193.0 " stroke="black" fill="none" stroke-width="5.0" stroke-linecap="round" stroke-linejoin="round" />
<path d="M 146.0 150.0 L 146.0 150.0 L 146.0 150.0 L 146.0 150.0 L 150.0 150.0 L 160.0 149.0 L 172.0 147.0 L 180.0 147.0 " stroke="black" fill="none" stroke-width="5.0" stroke-linecap="round" stroke-linejoin="round" />
<path d="M 141.0 180.0 L 142.0 180.0 L 145.0 180.0 L 153.0 178.0 L 169.0 174.0 L 186.0 171.0 L 197.0 170.0 " stroke="black" fill="none" stroke-width="5.0" stroke-linecap="round" stroke-linejoin="round" />
</svg>