<svg xmlns="http://www.w3.org/2000/svg" width="300" height="300" viewBox="0 0 300 300">
<path d="M 137.0 105.0 L 137.0 107.0 L 136.0 108.0 L 136.0 112.0 L 135.0 118.0 L 132.0 127.0 L 124.0 139.0 L 116.0 149.0 " stroke="black" fill="none" stroke-width="5.0" stroke-linecap="round" stroke-linejoin="round" />
<path d="M 137.0 124.0 L 137.0 124.0 L 137.0 124.0 L 138.0 124.0 L 142.0 124.0 L 151.0 123.0 L 162.0 123.0 L 171.0 122.0 L 177.0 121.0 L 178.0 121.0 " stroke="black" fill="none" stroke-width="5.0" stroke-linecap="round" stroke-linejoin="round" />
<path d="M 151.0 127.0 L 151.0 127.0 L 151.0 127.0 L 150.0 127.0 L 150.0 131.0 L 150.0 140.0 L 150.0 157.0 L 150.0 180.0 L 150.0 197.0 L 150.0 203.0 L 150.0 202.0 " stroke="black" fill="none" stroke-width="5.0" stroke-linecap="round" stroke-linejoin="round" />
<path d="M 155.0 154.0 L 155.0 154.0 L 155.0 154.0 L 156.0 154.0 L 160.0 154.0 L 168.0 154.0 L 176.0 154.0 L 181.0 153.0 " stroke="black" fill="none" stroke-width="5.0" stroke-linecap="round" stroke-linejoin="round" />
<path d="M 152.0 172.0 L 154.0 173.0 L 157.0 174.0 L 167.0 173.0 L 178.0 171.0 L 185.0 170.0 " stroke="black" fill="none" stroke-width="5.0" stroke-linecap="round" stroke-linejoin="round" />
</svg>