<svg xmlns="http://www.w3.org/2000/svg" width="300" height="300" viewBox="0 0 300 300">
<path d="M 123.0 121.0 L 124.0 121.0 L 124.0 121.0 L 125.0 121.0 L 125.0 121.0 L 126.0 122.0 L 126.0 126.0 L 124.0 136.0 L 119.0 149.0 L 111.0 163.0 L 103.0 173.0 " stroke="black" fill="none" stroke-width="5.0" stroke-linecap="round" stroke-linejoin="round" />
<path d="M 120.0 150.0 L 120.0 150.0 L 119.0 151.0 L 119.0 151.0 L 119.0 154.0 L 121.0 163.0 L 123.0 176.0 L 126.0 188.0 L 127.0 193.0 " stroke="black" fill="none" stroke-width="5.0" stroke-linecap="round" stroke-linejoin="round" />
<path d="M 145.0 141.0 L 145.0 141.0 L 145.0 141.0 L 145.0 141.0 L 145.0 143.0 L 145.0 150.0 L 145.0 162.0 L 143.0 175.0 L 143.0 184.0 L 143.0 188.0 L 148.0 189.0 L 157.0 189.0 L 170.0 188.0 L 181.0 188.0 L 186.0 188.0 " stroke="black" fill="none" stroke-width="5.0" stroke-linecap="round" stroke-linejoin="round" />
<path d="M 163.0 131.0 L 163.0 130.0 L 163.0 128.0 L 163.0 128.0 L 163.0 130.0 L 164.0 140.0 L 165.0 157.0 L 165.0 176.0 L 165.0 189.0 " stroke="black" fill="none" stroke-width="5.0" stroke-linecap="round" stroke-linejoin="round" />
<path d="M 189.0 149.0 L 189.0 149.0 L 189.0 150.0 L 189.0 154.0 L 191.0 163.0 L 193.0 174.0 L 194.0 182.0 L 194.0 184.0 " stroke="black" fill="none" stroke-width="5.0" stroke-linecap="round" stroke-linejoin="round" />
</svg>