<svg xmlns="http://www.w3.org/2000/svg" width="300" height="300" viewBox="0 0 300 300">
<path d="M 136.0 116.0 L 136.0 116.0 L 136.0 116.0 L 136.0 116.0 L 135.0 117.0 L 135.0 119.0 L 133.0 124.0 L 127.0 136.0 L 117.0 152.0 L 109.0 164.0 L 106.0 169.0 L 106.0 169.0 " stroke="black" fill="none" stroke-width="5.0" stroke-linecap="round" stroke-linejoin="round" />
<path d="M 126.0 145.0 L 126.0 145.0 L 126.0 145.0 L 126.0 145.0 L 126.0 147.0 L 126.0 155.0 L 126.0 169.0 L 126.0 185.0 L 126.0 194.0 L 126.0 197.0 L 127.0 197.0 " stroke="black" fill="none" stroke-width="5.0" stroke-linecap="round" stroke-linejoin="round" />
<path d="M 146.0 136.0 L 146.0 136.0 L 146.0 136.0 L 146.0 136.0 L 150.0 136.0 L 158.0 136.0 L 169.0 136.0 L 177.0 136.0 L 180.0 135.0 L 180.0 135.0 " stroke="black" fill="none" stroke-width="5.0" stroke-linecap="round" stroke-linejoin="round" />
<path d="M 166.0 111.0 L 167.0 112.0 L 168.0 113.0 L 168.0 117.0 L 168.0 128.0 L 167.0 145.0 L 162.0 165.0 L 157.0 181.0 L 153.0 192.0 L 151.0 196.0 " stroke="black" fill="none" stroke-width="5.0" stroke-linecap="round" stroke-linejoin="round" />
<path d="M 144.0 154.0 L 144.0 154.0 L 145.0 155.0 L 147.0 157.0 L 152.0 166.0 L 161.0 182.0 L 175.0 200.0 L 186.0 212.0 L 191.0 217.0 L 194.0 219.0 L 194.0 219.0 " stroke="black" fill="none" stroke-width="5.0" stroke-linecap="round" stroke-linejoin="round" />
</svg>