<svg xmlns="http://www.w3.org/2000/svg" width="300" height="300" viewBox="0 0 300 300">
<path d="M 125.0 132.0 L 125.0 132.0 L 125.0 132.0 L 127.0 132.0 L 132.0 131.0 L 143.0 129.0 L 156.0 126.0 L 166.0 126.0 L 170.0 127.0 L 172.0 133.0 L 173.0 142.0 L 174.0 156.0 L 175.0 172.0 L 179.0 189.0 L 185.0 196.0 L 192.0 198.0 L 199.0 192.0 L 202.0 187.0 " stroke="black" fill="none" stroke-width="5.0" stroke-linecap="round" stroke-linejoin="round" />
<path d="M 144.0 107.0 L 144.0 107.0 L 143.0 108.0 L 142.0 111.0 L 140.0 123.0 L 135.0 145.0 L 125.0 170.0 L 115.0 189.0 " stroke="black" fill="none" stroke-width="5.0" stroke-linecap="round" stroke-linejoin="round" />
<path d="M 118.0 158.0 L 121.0 161.0 L 125.0 167.0 L 132.0 175.0 L 140.0 182.0 " stroke="black" fill="none" stroke-width="5.0" stroke-linecap="round" stroke-linejoin="round" />
</svg>