<svg xmlns="http://www.w3.org/2000/svg" width="300" height="300" viewBox="0 0 300 300">
<path d="M 162.0 104.0 L 162.0 104.0 L 162.0 105.0 L 162.0 105.0 L 160.0 107.0 L 154.0 112.0 L 141.0 122.0 L 134.0 126.0 " stroke="black" fill="none" stroke-width="5.0" stroke-linecap="round" stroke-linejoin="round" />
<path d="M 133.0 137.0 L 133.0 137.0 L 133.0 136.0 L 134.0 136.0 L 138.0 140.0 L 142.0 144.0 " stroke="black" fill="none" stroke-width="5.0" stroke-linecap="round" stroke-linejoin="round" />
<path d="M 171.0 131.0 L 171.0 132.0 L 171.0 134.0 L 169.0 137.0 L 166.0 144.0 L 162.0 150.0 " stroke="black" fill="none" stroke-width="5.0" stroke-linecap="round" stroke-linejoin="round" />
<path d="M 117.0 164.0 L 117.0 165.0 L 117.0 165.0 L 119.0 166.0 L 129.0 166.0 L 147.0 163.0 L 163.0 161.0 L 175.0 160.0 L 176.0 160.0 " stroke="black" fill="none" stroke-width="5.0" stroke-linecap="round" stroke-linejoin="round" />
<path d="M 147.0 126.0 L 147.0 125.0 L 146.0 124.0 L 146.0 124.0 L 147.0 132.0 L 151.0 154.0 L 155.0 179.0 L 156.0 196.0 L 156.0 203.0 L 155.0 206.0 L 151.0 206.0 L 143.0 202.0 L 137.0 199.0 " stroke="black" fill="none" stroke-width="5.0" stroke-linecap="round" stroke-linejoin="round" />
</svg>