<svg xmlns="http://www.w3.org/2000/svg" width="300" height="300" viewBox="0 0 300 300">
<path d="M 140.0 100.0 L 140.0 100.0 L 140.0 101.0 L 140.0 102.0 L 141.0 105.0 L 143.0 108.0 L 143.0 109.0 " stroke="black" fill="none" stroke-width="5.0" stroke-linecap="round" stroke-linejoin="round" />
<path d="M 121.0 118.0 L 121.0 118.0 L 121.0 118.0 L 123.0 118.0 L 130.0 118.0 L 143.0 117.0 L 156.0 116.0 L 166.0 115.0 L 171.0 115.0 L 172.0 114.0 L 170.0 114.0 L 169.0 115.0 " stroke="black" fill="none" stroke-width="5.0" stroke-linecap="round" stroke-linejoin="round" />
<path d="M 131.0 131.0 L 131.0 131.0 L 131.0 131.0 L 131.0 131.0 L 131.0 131.0 L 131.0 134.0 L 132.0 139.0 L 133.0 142.0 L 134.0 144.0 L 134.0 144.0 " stroke="black" fill="none" stroke-width="5.0" stroke-linecap="round" stroke-linejoin="round" />
<path d="M 131.0 131.0 L 132.0 131.0 L 134.0 131.0 L 135.0 131.0 L 139.0 131.0 L 146.0 130.0 L 153.0 129.0 L 159.0 129.0 L 163.0 129.0 L 164.0 131.0 L 164.0 135.0 L 164.0 140.0 L 163.0 143.0 L 162.0 144.0 " stroke="black" fill="none" stroke-width="5.0" stroke-linecap="round" stroke-linejoin="round" />
<path d="M 134.0 145.0 L 134.0 145.0 L 134.0 145.0 L 134.0 146.0 L 138.0 146.0 L 146.0 146.0 L 155.0 145.0 L 161.0 145.0 L 163.0 145.0 L 163.0 145.0 " stroke="black" fill="none" stroke-width="5.0" stroke-linecap="round" stroke-linejoin="round" />
<path d="M 133.0 159.0 L 133.0 159.0 L 133.0 160.0 L 133.0 161.0 L 136.0 161.0 L 143.0 161.0 L 150.0 161.0 L 156.0 160.0 L 158.0 160.0 L 158.0 160.0 L 155.0 162.0 L 151.0 165.0 L 148.0 168.0 L 147.0 172.0 L 147.0 177.0 L 149.0 183.0 L 152.0 189.0 L 155.0 195.0 L 157.0 199.0 L 157.0 203.0 L 156.0 204.0 L 153.0 205.0 L 149.0 205.0 L 144.0 203.0 L 141.0 202.0 " stroke="black" fill="none" stroke-width="5.0" stroke-linecap="round" stroke-linejoin="round" />
<path d="M 112.0 184.0 L 113.0 184.0 L 113.0 184.0 L 117.0 184.0 L 128.0 184.0 L 145.0 183.0 L 160.0 182.0 L 172.0 182.0 L 180.0 181.0 L 184.0 181.0 L 184.0 181.0 L 184.0 181.0 L 184.0 181.0 " stroke="black" fill="none" stroke-width="5.0" stroke-linecap="round" stroke-linejoin="round" />
</svg>