<svg xmlns="http://www.w3.org/2000/svg" width="300" height="300" viewBox="0 0 300 300">
<path d="M 127.85714285714288 120.00000000000001 L 128.5714285714286 120.71428571428574 L 128.5714285714286 121.42857142857146 L 129.28571428571433 121.42857142857146 L 130.71428571428572 121.42857142857146 L 136.42857142857144 121.42857142857146 L 145.00000000000006 120.00000000000001 L 153.5714285714286 119.28571428571432 L 160.71428571428572 118.5714285714286 L 164.28571428571433 118.5714285714286 L 165.71428571428572 118.5714285714286 L 165.00000000000006 120.71428571428574 L 162.8571428571429 123.5714285714286 L 160.00000000000006 127.14285714285718 L 156.42857142857144 131.42857142857144 L 153.5714285714286 135.00000000000006 L 152.14285714285717 138.5714285714286 L 152.14285714285717 142.14285714285717 L 154.28571428571433 145.00000000000006 L 157.14285714285717 147.14285714285717 L 161.42857142857144 150.71428571428572 L 167.14285714285717 157.14285714285717 L 172.14285714285717 165.71428571428572 L 175.71428571428578 173.5714285714286 L 177.14285714285717 177.8571428571429 L 177.14285714285717 180.00000000000006 L 174.28571428571433 181.42857142857144 L 167.8571428571429 182.14285714285717 L 159.28571428571433 182.14285714285717 L 157.14285714285717 182.14285714285717 " stroke="black" fill="none" stroke-width="5.0" stroke-linecap="round" stroke-linejoin="round" />
<path d="M 136.42857142857144 121.42857142857146 L 136.42857142857144 121.42857142857146 L 136.42857142857144 121.42857142857146 L 136.42857142857144 122.14285714285718 L 136.42857142857144 125.71428571428574 L 135.71428571428572 137.8571428571429 L 132.8571428571429 157.8571428571429 L 127.14285714285718 177.14285714285717 " stroke="black" fill="none" stroke-width="5.0" stroke-linecap="round" stroke-linejoin="round" />
</svg>