<svg xmlns="http://www.w3.org/2000/svg" width="300" height="300" viewBox="0 0 300 300">
<path d="M 136.0 121.0 L 136.0 121.0 L 135.0 121.0 L 135.0 121.0 L 135.0 123.0 L 135.0 137.0 L 135.0 161.0 L 135.0 182.0 L 136.0 187.0 " stroke="black" fill="none" stroke-width="5.0" stroke-linecap="round" stroke-linejoin="round" />
<path d="M 143.0 114.0 L 143.0 114.0 L 143.0 114.0 L 143.0 114.0 L 143.0 114.0 L 146.0 114.0 L 149.0 114.0 L 154.0 114.0 L 158.0 114.0 L 162.0 115.0 L 165.0 121.0 L 168.0 135.0 L 170.0 155.0 L 172.0 173.0 L 173.0 183.0 L 173.0 187.0 L 172.0 187.0 L 172.0 187.0 " stroke="black" fill="none" stroke-width="5.0" stroke-linecap="round" stroke-linejoin="round" />
<path d="M 143.0 146.0 L 143.0 146.0 L 142.0 146.0 L 143.0 146.0 L 149.0 146.0 L 157.0 144.0 L 163.0 144.0 L 167.0 143.0 L 167.0 144.0 " stroke="black" fill="none" stroke-width="5.0" stroke-linecap="round" stroke-linejoin="round" />
<path d="M 143.0 161.0 L 143.0 162.0 L 143.0 163.0 L 144.0 164.0 L 151.0 164.0 L 158.0 163.0 L 163.0 161.0 L 164.0 161.0 " stroke="black" fill="none" stroke-width="5.0" stroke-linecap="round" stroke-linejoin="round" />
<path d="M 142.0 178.0 L 142.0 178.0 L 142.0 178.0 L 142.0 178.0 L 142.0 178.0 L 145.0 178.0 L 156.0 177.0 L 171.0 175.0 " stroke="black" fill="none" stroke-width="5.0" stroke-linecap="round" stroke-linejoin="round" />
<path d="M 113.0 195.0 L 115.0 195.0 L 119.0 195.0 L 130.0 195.0 L 154.0 191.0 L 180.0 188.0 L 194.0 187.0 " stroke="black" fill="none" stroke-width="5.0" stroke-linecap="round" stroke-linejoin="round" />
</svg>