<svg xmlns="http://www.w3.org/2000/svg" width="300" height="300" viewBox="0 0 300 300">
<path d="M 144.0 101.0 L 144.0 101.0 L 144.0 101.0 L 144.0 101.0 L 145.0 103.0 L 148.0 107.0 L 150.0 110.0 " stroke="black" fill="none" stroke-width="5.0" stroke-linecap="round" stroke-linejoin="round" />
<path d="M 128.0 117.0 L 128.0 117.0 L 128.0 117.0 L 129.0 118.0 L 133.0 118.0 L 142.0 117.0 L 154.0 116.0 L 165.0 115.0 L 174.0 115.0 L 179.0 114.0 L 179.0 114.0 " stroke="black" fill="none" stroke-width="5.0" stroke-linecap="round" stroke-linejoin="round" />
<path d="M 140.0 129.0 L 140.0 129.0 L 140.0 128.0 L 140.0 127.0 L 139.0 126.0 L 139.0 127.0 L 139.0 131.0 L 140.0 136.0 L 141.0 140.0 L 141.0 141.0 " stroke="black" fill="none" stroke-width="5.0" stroke-linecap="round" stroke-linejoin="round" />
<path d="M 140.0 129.0 L 140.0 129.0 L 139.0 129.0 L 139.0 129.0 L 139.0 129.0 L 143.0 129.0 L 149.0 127.0 L 155.0 127.0 L 160.0 127.0 L 164.0 130.0 L 165.0 135.0 L 165.0 139.0 L 165.0 141.0 L 165.0 142.0 " stroke="black" fill="none" stroke-width="5.0" stroke-linecap="round" stroke-linejoin="round" />
<path d="M 140.0 143.0 L 140.0 143.0 L 140.0 143.0 L 140.0 143.0 L 144.0 144.0 L 152.0 144.0 L 159.0 143.0 L 160.0 143.0 " stroke="black" fill="none" stroke-width="5.0" stroke-linecap="round" stroke-linejoin="round" />
<path d="M 122.0 157.0 L 122.0 158.0 L 122.0 159.0 L 122.0 161.0 L 122.0 166.0 L 124.0 170.0 L 124.0 172.0 " stroke="black" fill="none" stroke-width="5.0" stroke-linecap="round" stroke-linejoin="round" />
<path d="M 122.0 159.0 L 123.0 159.0 L 125.0 159.0 L 128.0 159.0 L 135.0 158.0 L 146.0 157.0 L 158.0 155.0 L 169.0 155.0 L 178.0 155.0 L 182.0 157.0 L 184.0 159.0 L 185.0 163.0 L 185.0 167.0 L 184.0 171.0 L 184.0 172.0 " stroke="black" fill="none" stroke-width="5.0" stroke-linecap="round" stroke-linejoin="round" />
<path d="M 145.0 171.0 L 145.0 171.0 L 145.0 171.0 L 146.0 171.0 L 148.0 171.0 L 155.0 171.0 L 163.0 170.0 L 170.0 169.0 L 172.0 169.0 " stroke="black" fill="none" stroke-width="5.0" stroke-linecap="round" stroke-linejoin="round" />
<path d="M 156.0 173.0 L 156.0 173.0 L 155.0 173.0 L 155.0 173.0 L 155.0 176.0 L 158.0 182.0 L 161.0 191.0 L 164.0 201.0 L 165.0 207.0 L 165.0 209.0 L 163.0 209.0 L 157.0 207.0 L 149.0 203.0 L 147.0 202.0 " stroke="black" fill="none" stroke-width="5.0" stroke-linecap="round" stroke-linejoin="round" />
</svg>