<svg xmlns="http://www.w3.org/2000/svg" width="300" height="300" viewBox="0 0 300 300">
<path d="M 153.0 115.0 L 153.0 115.0 L 154.0 115.0 L 154.0 115.0 L 155.0 115.0 L 155.0 115.0 L 151.0 120.0 L 142.0 132.0 L 126.0 148.0 L 116.0 157.0 L 116.0 157.0 " stroke="black" fill="none" stroke-width="5.0" stroke-linecap="round" stroke-linejoin="round" />
<path d="M 155.0 119.0 L 155.0 119.0 L 155.0 119.0 L 155.0 119.0 L 158.0 121.0 L 165.0 127.0 L 174.0 136.0 L 180.0 143.0 " stroke="black" fill="none" stroke-width="5.0" stroke-linecap="round" stroke-linejoin="round" />
<path d="M 140.0 148.0 L 140.0 148.0 L 140.0 148.0 L 140.0 147.0 L 141.0 147.0 L 147.0 146.0 L 156.0 145.0 L 163.0 145.0 L 165.0 145.0 " stroke="black" fill="none" stroke-width="5.0" stroke-linecap="round" stroke-linejoin="round" />
<path d="M 134.0 164.0 L 134.0 164.0 L 134.0 165.0 L 134.0 166.0 L 135.0 166.0 L 142.0 166.0 L 152.0 165.0 L 161.0 164.0 L 165.0 164.0 L 166.0 164.0 L 165.0 168.0 L 161.0 176.0 L 157.0 184.0 L 153.0 192.0 L 151.0 195.0 " stroke="black" fill="none" stroke-width="5.0" stroke-linecap="round" stroke-linejoin="round" />
<path d="M 135.0 193.0 L 135.0 193.0 L 137.0 193.0 L 138.0 193.0 L 142.0 193.0 L 150.0 196.0 L 160.0 200.0 L 167.0 204.0 " stroke="black" fill="none" stroke-width="5.0" stroke-linecap="round" stroke-linejoin="round" />
</svg>