<svg xmlns="http://www.w3.org/2000/svg" width="300" height="300" viewBox="0 0 300 300">
<path d="M 124.0 134.0 L 124.0 134.0 L 124.0 134.0 L 124.0 134.0 L 124.0 138.0 L 125.0 146.0 L 126.0 155.0 " stroke="black" fill="none" stroke-width="5.0" stroke-linecap="round" stroke-linejoin="round" />
<path d="M 122.0 133.0 L 122.0 133.0 L 123.0 133.0 L 128.0 132.0 L 139.0 131.0 L 153.0 130.0 L 165.0 130.0 L 176.0 131.0 L 184.0 133.0 L 189.0 135.0 L 191.0 140.0 L 191.0 147.0 L 190.0 155.0 L 189.0 161.0 L 189.0 161.0 " stroke="black" fill="none" stroke-width="5.0" stroke-linecap="round" stroke-linejoin="round" />
<path d="M 122.0 163.0 L 122.0 163.0 L 123.0 163.0 L 129.0 163.0 L 145.0 164.0 L 164.0 164.0 L 177.0 165.0 L 181.0 165.0 " stroke="black" fill="none" stroke-width="5.0" stroke-linecap="round" stroke-linejoin="round" />
<path d="M 152.0 94.0 L 151.0 94.0 L 150.0 96.0 L 150.0 107.0 L 152.0 135.0 L 155.0 170.0 L 156.0 196.0 L 156.0 209.0 L 157.0 214.0 L 157.0 215.0 " stroke="black" fill="none" stroke-width="5.0" stroke-linecap="round" stroke-linejoin="round" />
</svg>