<svg xmlns="http://www.w3.org/2000/svg" width="300" height="300" viewBox="0 0 300 300">
<path d="M 156.0 100.0 L 156.0 100.0 L 156.0 100.0 L 156.0 100.0 L 154.0 102.0 L 151.0 106.0 L 144.0 113.0 L 139.0 117.0 " stroke="black" fill="none" stroke-width="5.0" stroke-linecap="round" stroke-linejoin="round" />
<path d="M 117.0 136.0 L 118.0 136.0 L 119.0 136.0 L 123.0 136.0 L 133.0 134.0 L 149.0 132.0 L 163.0 130.0 L 173.0 128.0 L 178.0 128.0 L 178.0 128.0 " stroke="black" fill="none" stroke-width="5.0" stroke-linecap="round" stroke-linejoin="round" />
<path d="M 147.0 115.0 L 147.0 115.0 L 147.0 115.0 L 147.0 115.0 L 146.0 116.0 L 146.0 122.0 L 148.0 138.0 L 149.0 161.0 L 149.0 180.0 L 149.0 192.0 L 150.0 196.0 L 150.0 198.0 L 150.0 198.0 L 150.0 195.0 " stroke="black" fill="none" stroke-width="5.0" stroke-linecap="round" stroke-linejoin="round" />
<path d="M 134.0 146.0 L 134.0 146.0 L 134.0 146.0 L 134.0 146.0 L 134.0 147.0 L 134.0 152.0 L 134.0 160.0 L 134.0 166.0 L 135.0 169.0 L 135.0 170.0 " stroke="black" fill="none" stroke-width="5.0" stroke-linecap="round" stroke-linejoin="round" />
<path d="M 122.0 157.0 L 122.0 157.0 L 122.0 157.0 L 122.0 158.0 L 124.0 158.0 L 128.0 158.0 L 132.0 158.0 L 135.0 158.0 L 136.0 158.0 " stroke="black" fill="none" stroke-width="5.0" stroke-linecap="round" stroke-linejoin="round" />
<path d="M 118.0 171.0 L 118.0 171.0 L 119.0 172.0 L 121.0 172.0 L 127.0 172.0 L 134.0 170.0 L 137.0 170.0 " stroke="black" fill="none" stroke-width="5.0" stroke-linecap="round" stroke-linejoin="round" />
<path d="M 160.0 143.0 L 160.0 143.0 L 160.0 143.0 L 160.0 144.0 L 160.0 146.0 L 160.0 149.0 L 160.0 157.0 L 161.0 165.0 L 163.0 171.0 L 167.0 175.0 L 172.0 175.0 L 176.0 174.0 L 178.0 172.0 L 178.0 172.0 " stroke="black" fill="none" stroke-width="5.0" stroke-linecap="round" stroke-linejoin="round" />
<path d="M 160.0 157.0 L 161.0 157.0 L 162.0 158.0 L 164.0 158.0 L 168.0 158.0 L 174.0 158.0 L 181.0 158.0 " stroke="black" fill="none" stroke-width="5.0" stroke-linecap="round" stroke-linejoin="round" />
</svg>