<svg xmlns="http://www.w3.org/2000/svg" width="300" height="300" viewBox="0 0 300 300">
<path d="M 133.0 109.0 L 133.0 109.0 L 133.0 109.0 L 133.0 109.0 L 133.0 110.0 L 131.0 112.0 L 128.0 119.0 L 121.0 133.0 L 111.0 149.0 L 101.0 162.0 L 95.0 167.0 L 95.0 167.0 " stroke="black" fill="none" stroke-width="5.0" stroke-linecap="round" stroke-linejoin="round" />
<path d="M 119.0 142.0 L 119.0 142.0 L 119.0 142.0 L 119.0 142.0 L 119.0 145.0 L 119.0 156.0 L 120.0 174.0 L 120.0 190.0 L 120.0 198.0 L 120.0 198.0 " stroke="black" fill="none" stroke-width="5.0" stroke-linecap="round" stroke-linejoin="round" />
<path d="M 163.0 117.0 L 163.0 117.0 L 163.0 117.0 L 162.0 118.0 L 159.0 122.0 L 153.0 128.0 L 145.0 136.0 " stroke="black" fill="none" stroke-width="5.0" stroke-linecap="round" stroke-linejoin="round" />
<path d="M 129.0 156.0 L 129.0 156.0 L 129.0 157.0 L 131.0 158.0 L 139.0 158.0 L 153.0 157.0 L 168.0 155.0 L 181.0 154.0 L 188.0 153.0 L 188.0 153.0 L 187.0 153.0 " stroke="black" fill="none" stroke-width="5.0" stroke-linecap="round" stroke-linejoin="round" />
<path d="M 157.0 125.0 L 157.0 125.0 L 157.0 125.0 L 157.0 126.0 L 157.0 132.0 L 160.0 149.0 L 162.0 172.0 L 164.0 190.0 L 165.0 199.0 L 165.0 201.0 L 166.0 201.0 L 166.0 198.0 L 165.0 197.0 " stroke="black" fill="none" stroke-width="5.0" stroke-linecap="round" stroke-linejoin="round" />
</svg>