<svg xmlns="http://www.w3.org/2000/svg" width="300" height="300" viewBox="0 0 300 300">
<path d="M 123.0 119.0 L 123.0 119.0 L 124.0 119.0 L 124.0 119.0 L 124.0 119.0 L 124.0 119.0 L 124.0 125.0 L 124.0 141.0 L 124.0 161.0 L 124.0 174.0 L 124.0 176.0 " stroke="black" fill="none" stroke-width="5.0" stroke-linecap="round" stroke-linejoin="round" />
<path d="M 107.0 177.0 L 107.0 177.0 L 109.0 177.0 L 115.0 177.0 L 128.0 176.0 L 143.0 173.0 " stroke="black" fill="none" stroke-width="5.0" stroke-linecap="round" stroke-linejoin="round" />
<path d="M 148.0 139.0 L 148.0 139.0 L 148.0 139.0 L 148.0 142.0 L 150.0 146.0 " stroke="black" fill="none" stroke-width="5.0" stroke-linecap="round" stroke-linejoin="round" />
<path d="M 169.0 116.0 L 170.0 116.0 L 170.0 117.0 L 171.0 120.0 L 171.0 130.0 L 170.0 146.0 L 166.0 163.0 L 159.0 178.0 L 153.0 187.0 " stroke="black" fill="none" stroke-width="5.0" stroke-linecap="round" stroke-linejoin="round" />
<path d="M 168.0 161.0 L 168.0 161.0 L 170.0 161.0 L 173.0 162.0 L 182.0 169.0 L 191.0 181.0 L 199.0 190.0 L 201.0 191.0 " stroke="black" fill="none" stroke-width="5.0" stroke-linecap="round" stroke-linejoin="round" />
</svg>