<svg xmlns="http://www.w3.org/2000/svg" width="300" height="300" viewBox="0 0 300 300">
<path d="M 134.0 114.0 L 134.0 114.0 L 134.0 114.0 L 135.0 114.0 L 142.0 114.0 L 153.0 114.0 L 164.0 113.0 L 166.0 113.0 " stroke="black" fill="none" stroke-width="5.0" stroke-linecap="round" stroke-linejoin="round" />
<path d="M 117.0 146.0 L 117.0 146.0 L 117.0 146.0 L 118.0 146.0 L 125.0 146.0 L 139.0 146.0 L 155.0 146.0 L 168.0 146.0 L 177.0 144.0 L 179.0 143.0 " stroke="black" fill="none" stroke-width="5.0" stroke-linecap="round" stroke-linejoin="round" />
<path d="M 148.0 115.0 L 148.0 115.0 L 148.0 116.0 L 147.0 119.0 L 148.0 129.0 L 151.0 148.0 L 154.0 167.0 L 155.0 182.0 L 155.0 191.0 L 154.0 195.0 L 152.0 197.0 L 150.0 198.0 L 145.0 198.0 L 136.0 194.0 L 130.0 191.0 " stroke="black" fill="none" stroke-width="5.0" stroke-linecap="round" stroke-linejoin="round" />
</svg>