<svg xmlns="http://www.w3.org/2000/svg" width="300" height="300" viewBox="0 0 300 300">
<path d="M 124.0 111.0 L 124.0 111.0 L 125.0 111.0 L 127.0 111.0 L 129.0 111.0 L 133.0 111.0 L 143.0 111.0 L 158.0 109.0 L 172.0 108.0 L 175.0 108.0 " stroke="black" fill="none" stroke-width="5.0" stroke-linecap="round" stroke-linejoin="round" />
<path d="M 128.0 126.0 L 128.0 126.0 L 128.0 126.0 L 128.0 126.0 L 128.0 126.0 L 128.0 128.0 L 128.0 131.0 L 130.0 134.0 " stroke="black" fill="none" stroke-width="5.0" stroke-linecap="round" stroke-linejoin="round" />
<path d="M 128.0 124.0 L 128.0 124.0 L 128.0 124.0 L 128.0 124.0 L 130.0 124.0 L 136.0 123.0 L 143.0 122.0 L 152.0 122.0 L 161.0 122.0 L 168.0 123.0 L 171.0 124.0 L 172.0 127.0 L 172.0 132.0 L 171.0 136.0 L 171.0 138.0 " stroke="black" fill="none" stroke-width="5.0" stroke-linecap="round" stroke-linejoin="round" />
<path d="M 129.0 139.0 L 129.0 139.0 L 129.0 139.0 L 129.0 139.0 L 135.0 139.0 L 145.0 139.0 L 157.0 138.0 L 165.0 138.0 L 170.0 139.0 " stroke="black" fill="none" stroke-width="5.0" stroke-linecap="round" stroke-linejoin="round" />
<path d="M 124.0 157.0 L 124.0 157.0 L 124.0 157.0 L 124.0 157.0 L 125.0 156.0 L 131.0 156.0 L 141.0 155.0 L 151.0 154.0 L 159.0 153.0 L 165.0 153.0 L 168.0 153.0 L 168.0 153.0 L 169.0 156.0 L 171.0 161.0 L 174.0 168.0 L 176.0 174.0 L 177.0 178.0 " stroke="black" fill="none" stroke-width="5.0" stroke-linecap="round" stroke-linejoin="round" />
<path d="M 112.0 170.0 L 112.0 170.0 L 112.0 171.0 L 113.0 171.0 L 117.0 171.0 L 130.0 169.0 L 146.0 168.0 L 161.0 166.0 L 175.0 165.0 L 184.0 164.0 L 186.0 164.0 " stroke="black" fill="none" stroke-width="5.0" stroke-linecap="round" stroke-linejoin="round" />
<path d="M 128.0 182.0 L 128.0 182.0 L 128.0 182.0 L 129.0 182.0 L 134.0 182.0 L 148.0 180.0 L 165.0 179.0 L 178.0 179.0 L 181.0 179.0 " stroke="black" fill="none" stroke-width="5.0" stroke-linecap="round" stroke-linejoin="round" />
<path d="M 146.0 101.0 L 146.0 101.0 L 145.0 100.0 L 144.0 99.0 L 144.0 99.0 L 145.0 105.0 L 149.0 120.0 L 153.0 145.0 L 157.0 176.0 L 160.0 199.0 L 161.0 209.0 L 162.0 213.0 L 161.0 215.0 L 157.0 215.0 L 149.0 211.0 L 137.0 207.0 L 131.0 206.0 " stroke="black" fill="none" stroke-width="5.0" stroke-linecap="round" stroke-linejoin="round" />
</svg>