<svg xmlns="http://www.w3.org/2000/svg" width="300" height="300" viewBox="0 0 300 300">
<path d="M 145.0 97.0 L 145.0 97.0 L 145.0 97.0 L 144.0 97.0 L 144.0 98.0 L 147.0 103.0 L 149.0 107.0 " stroke="black" fill="none" stroke-width="5.0" stroke-linecap="round" stroke-linejoin="round" />
<path d="M 121.0 119.0 L 121.0 119.0 L 121.0 119.0 L 122.0 120.0 L 125.0 120.0 L 133.0 120.0 L 146.0 120.0 L 159.0 119.0 L 170.0 118.0 L 176.0 118.0 " stroke="black" fill="none" stroke-width="5.0" stroke-linecap="round" stroke-linejoin="round" />
<path d="M 132.0 135.0 L 132.0 135.0 L 131.0 135.0 L 131.0 135.0 L 131.0 138.0 L 133.0 143.0 L 134.0 147.0 L 135.0 148.0 " stroke="black" fill="none" stroke-width="5.0" stroke-linecap="round" stroke-linejoin="round" />
<path d="M 135.0 134.0 L 135.0 134.0 L 135.0 134.0 L 135.0 134.0 L 137.0 134.0 L 144.0 133.0 L 153.0 132.0 L 161.0 132.0 L 166.0 133.0 L 168.0 136.0 L 170.0 141.0 L 170.0 146.0 L 171.0 149.0 L 171.0 150.0 " stroke="black" fill="none" stroke-width="5.0" stroke-linecap="round" stroke-linejoin="round" />
<path d="M 135.0 152.0 L 135.0 152.0 L 135.0 152.0 L 137.0 153.0 L 145.0 153.0 L 156.0 153.0 L 167.0 153.0 L 172.0 153.0 " stroke="black" fill="none" stroke-width="5.0" stroke-linecap="round" stroke-linejoin="round" />
<path d="M 150.0 157.0 L 151.0 157.0 L 151.0 158.0 L 151.0 160.0 L 152.0 163.0 L 153.0 171.0 L 155.0 184.0 L 156.0 197.0 L 156.0 205.0 L 156.0 207.0 L 154.0 207.0 L 151.0 205.0 L 145.0 201.0 L 141.0 199.0 " stroke="black" fill="none" stroke-width="5.0" stroke-linecap="round" stroke-linejoin="round" />
<path d="M 135.0 172.0 L 135.0 172.0 L 134.0 173.0 L 131.0 176.0 L 125.0 183.0 L 117.0 193.0 L 114.0 196.0 " stroke="black" fill="none" stroke-width="5.0" stroke-linecap="round" stroke-linejoin="round" />
<path d="M 180.0 177.0 L 181.0 178.0 L 184.0 182.0 L 188.0 189.0 L 193.0 198.0 L 194.0 201.0 " stroke="black" fill="none" stroke-width="5.0" stroke-linecap="round" stroke-linejoin="round" />
</svg>