<svg xmlns="http://www.w3.org/2000/svg" width="300" height="300" viewBox="0 0 300 300">
<path d="M 135.0 118.0 L 135.0 118.0 L 136.0 119.0 L 138.0 119.0 L 142.0 119.0 L 148.0 120.0 L 155.0 121.0 L 159.0 122.0 L 160.0 123.0 L 159.0 125.0 L 155.0 128.0 L 151.0 132.0 L 148.0 136.0 L 145.0 139.0 L 143.0 142.0 L 143.0 146.0 L 145.0 154.0 L 148.0 163.0 L 152.0 172.0 L 154.0 181.0 L 155.0 186.0 L 155.0 189.0 L 154.0 190.0 L 150.0 190.0 L 145.0 190.0 L 137.0 188.0 L 135.0 187.0 " stroke="black" fill="none" stroke-width="5.0" stroke-linecap="round" stroke-linejoin="round" />
<path d="M 118.0 157.0 L 119.0 157.0 L 119.0 157.0 L 120.0 157.0 L 124.0 158.0 L 128.0 158.0 L 132.0 159.0 L 134.0 159.0 L 135.0 159.0 L 135.0 161.0 L 134.0 164.0 L 130.0 168.0 L 123.0 174.0 L 115.0 181.0 L 108.0 187.0 L 105.0 189.0 " stroke="black" fill="none" stroke-width="5.0" stroke-linecap="round" stroke-linejoin="round" />
<path d="M 173.0 145.0 L 173.0 145.0 L 172.0 145.0 L 171.0 145.0 L 169.0 146.0 L 167.0 149.0 L 164.0 152.0 L 161.0 154.0 L 159.0 156.0 L 158.0 157.0 L 161.0 160.0 L 167.0 164.0 L 175.0 168.0 L 183.0 173.0 L 189.0 177.0 L 192.0 178.0 L 192.0 178.0 " stroke="black" fill="none" stroke-width="5.0" stroke-linecap="round" stroke-linejoin="round" />
<path d="M 124.0 201.0 L 124.0 201.0 L 124.0 201.0 L 124.0 201.0 L 129.0 201.0 L 140.0 199.0 L 154.0 197.0 L 170.0 195.0 L 183.0 194.0 L 190.0 193.0 L 191.0 193.0 L 191.0 193.0 " stroke="black" fill="none" stroke-width="5.0" stroke-linecap="round" stroke-linejoin="round" />
</svg>