<svg xmlns="http://www.w3.org/2000/svg" width="300" height="300" viewBox="0 0 300 300">
<path d="M 135.0 112.0 L 134.0 114.0 L 134.0 114.0 L 133.0 118.0 L 131.0 122.0 L 127.0 130.0 L 121.0 141.0 L 113.0 152.0 L 106.0 161.0 L 104.0 164.0 " stroke="black" fill="none" stroke-width="5.0" stroke-linecap="round" stroke-linejoin="round" />
<path d="M 119.0 146.0 L 119.0 146.0 L 119.0 146.0 L 119.0 146.0 L 119.0 148.0 L 120.0 155.0 L 121.0 170.0 L 121.0 186.0 L 121.0 194.0 L 121.0 196.0 " stroke="black" fill="none" stroke-width="5.0" stroke-linecap="round" stroke-linejoin="round" />
<path d="M 147.0 126.0 L 147.0 127.0 L 146.0 128.0 L 146.0 132.0 L 145.0 140.0 L 144.0 154.0 L 141.0 173.0 L 137.0 187.0 L 136.0 191.0 L 135.0 191.0 " stroke="black" fill="none" stroke-width="5.0" stroke-linecap="round" stroke-linejoin="round" />
<path d="M 147.0 129.0 L 147.0 129.0 L 147.0 129.0 L 148.0 129.0 L 154.0 126.0 L 162.0 123.0 L 169.0 122.0 L 174.0 121.0 L 178.0 122.0 L 179.0 126.0 L 181.0 135.0 L 182.0 149.0 L 185.0 165.0 L 189.0 180.0 L 194.0 191.0 L 198.0 194.0 L 202.0 194.0 L 205.0 191.0 L 205.0 185.0 " stroke="black" fill="none" stroke-width="5.0" stroke-linecap="round" stroke-linejoin="round" />
<path d="M 156.0 144.0 L 156.0 144.0 L 156.0 144.0 L 156.0 144.0 L 157.0 144.0 L 160.0 143.0 L 165.0 143.0 L 169.0 143.0 L 171.0 143.0 " stroke="black" fill="none" stroke-width="5.0" stroke-linecap="round" stroke-linejoin="round" />
<path d="M 154.0 159.0 L 154.0 159.0 L 154.0 160.0 L 154.0 162.0 L 154.0 164.0 L 154.0 166.0 L 155.0 166.0 " stroke="black" fill="none" stroke-width="5.0" stroke-linecap="round" stroke-linejoin="round" />
<path d="M 155.0 157.0 L 155.0 157.0 L 156.0 157.0 L 158.0 156.0 L 161.0 156.0 L 166.0 156.0 L 171.0 156.0 L 176.0 159.0 L 179.0 163.0 L 180.0 167.0 L 180.0 170.0 L 179.0 172.0 L 176.0 172.0 L 174.0 172.0 " stroke="black" fill="none" stroke-width="5.0" stroke-linecap="round" stroke-linejoin="round" />
<path d="M 162.0 145.0 L 162.0 145.0 L 162.0 145.0 L 162.0 150.0 L 164.0 159.0 L 166.0 171.0 L 168.0 181.0 L 168.0 189.0 L 168.0 192.0 L 168.0 192.0 " stroke="black" fill="none" stroke-width="5.0" stroke-linecap="round" stroke-linejoin="round" />
</svg>