<svg xmlns="http://www.w3.org/2000/svg" width="300" height="300" viewBox="0 0 300 300">
<path d="M 137.0 117.0 L 137.0 117.0 L 137.0 117.0 L 137.0 116.0 L 137.0 116.0 L 136.0 117.0 L 134.0 122.0 L 129.0 131.0 L 120.0 146.0 L 111.0 160.0 L 108.0 166.0 " stroke="black" fill="none" stroke-width="5.0" stroke-linecap="round" stroke-linejoin="round" />
<path d="M 128.0 138.0 L 128.0 139.0 L 128.0 140.0 L 128.0 143.0 L 129.0 151.0 L 130.0 166.0 L 130.0 182.0 L 130.0 190.0 " stroke="black" fill="none" stroke-width="5.0" stroke-linecap="round" stroke-linejoin="round" />
<path d="M 157.0 120.0 L 157.0 120.0 L 157.0 120.0 L 157.0 119.0 L 157.0 119.0 L 156.0 124.0 L 153.0 134.0 L 149.0 145.0 " stroke="black" fill="none" stroke-width="5.0" stroke-linecap="round" stroke-linejoin="round" />
<path d="M 157.0 132.0 L 158.0 132.0 L 158.0 132.0 L 160.0 132.0 L 164.0 131.0 L 172.0 130.0 L 182.0 130.0 L 188.0 129.0 " stroke="black" fill="none" stroke-width="5.0" stroke-linecap="round" stroke-linejoin="round" />
<path d="M 170.0 137.0 L 170.0 137.0 L 170.0 137.0 L 170.0 137.0 L 170.0 138.0 L 170.0 145.0 L 172.0 160.0 L 174.0 179.0 L 174.0 193.0 L 174.0 195.0 " stroke="black" fill="none" stroke-width="5.0" stroke-linecap="round" stroke-linejoin="round" />
<path d="M 176.0 152.0 L 176.0 152.0 L 176.0 152.0 L 175.0 153.0 L 175.0 153.0 L 179.0 153.0 L 185.0 152.0 L 191.0 152.0 L 194.0 152.0 " stroke="black" fill="none" stroke-width="5.0" stroke-linecap="round" stroke-linejoin="round" />
<path d="M 174.0 169.0 L 175.0 169.0 L 175.0 170.0 L 176.0 171.0 L 178.0 171.0 L 183.0 171.0 L 189.0 171.0 L 196.0 171.0 L 197.0 171.0 " stroke="black" fill="none" stroke-width="5.0" stroke-linecap="round" stroke-linejoin="round" />
</svg>