<svg xmlns="http://www.w3.org/2000/svg" width="300" height="300" viewBox="0 0 300 300">
<path d="M 149.0 101.0 L 149.0 102.0 L 149.0 102.0 L 149.0 104.0 L 147.0 107.0 L 145.0 110.0 L 133.0 125.0 L 119.0 136.0 L 115.0 138.0 " stroke="black" fill="none" stroke-width="5.0" stroke-linecap="round" stroke-linejoin="round" />
<path d="M 152.0 105.0 L 152.0 105.0 L 152.0 105.0 L 152.0 105.0 L 152.0 105.0 L 154.0 107.0 L 162.0 113.0 L 175.0 122.0 L 187.0 131.0 L 191.0 134.0 " stroke="black" fill="none" stroke-width="5.0" stroke-linecap="round" stroke-linejoin="round" />
<path d="M 142.0 136.0 L 142.0 136.0 L 141.0 136.0 L 141.0 136.0 L 144.0 137.0 L 152.0 137.0 L 162.0 138.0 L 168.0 138.0 " stroke="black" fill="none" stroke-width="5.0" stroke-linecap="round" stroke-linejoin="round" />
<path d="M 130.0 156.0 L 130.0 156.0 L 130.0 156.0 L 130.0 156.0 L 131.0 156.0 L 137.0 156.0 L 151.0 156.0 L 169.0 156.0 L 184.0 155.0 L 187.0 155.0 " stroke="black" fill="none" stroke-width="5.0" stroke-linecap="round" stroke-linejoin="round" />
<path d="M 155.0 141.0 L 155.0 141.0 L 155.0 141.0 L 155.0 141.0 L 155.0 143.0 L 156.0 152.0 L 159.0 169.0 L 161.0 187.0 L 162.0 198.0 L 162.0 201.0 L 162.0 201.0 L 157.0 197.0 L 150.0 192.0 " stroke="black" fill="none" stroke-width="5.0" stroke-linecap="round" stroke-linejoin="round" />
<path d="M 141.0 167.0 L 140.0 167.0 L 139.0 168.0 L 138.0 169.0 L 136.0 172.0 L 131.0 179.0 L 123.0 187.0 " stroke="black" fill="none" stroke-width="5.0" stroke-linecap="round" stroke-linejoin="round" />
<path d="M 168.0 172.0 L 169.0 172.0 L 171.0 173.0 L 173.0 176.0 L 178.0 182.0 L 186.0 193.0 L 193.0 205.0 L 195.0 209.0 " stroke="black" fill="none" stroke-width="5.0" stroke-linecap="round" stroke-linejoin="round" />
</svg>