<svg xmlns="http://www.w3.org/2000/svg" width="300" height="300" viewBox="0 0 300 300">
<path d="M 135.0 107.0 L 135.0 107.0 L 135.0 107.0 L 135.0 107.0 L 134.0 107.0 L 134.0 107.0 L 134.0 107.0 L 133.0 111.0 L 128.0 123.0 L 118.0 145.0 L 107.0 165.0 L 101.0 174.0 " stroke="black" fill="none" stroke-width="5.0" stroke-linecap="round" stroke-linejoin="round" />
<path d="M 122.0 144.0 L 122.0 144.0 L 122.0 144.0 L 122.0 144.0 L 122.0 144.0 L 123.0 152.0 L 124.0 167.0 L 124.0 183.0 L 124.0 187.0 " stroke="black" fill="none" stroke-width="5.0" stroke-linecap="round" stroke-linejoin="round" />
<path d="M 158.0 115.0 L 158.0 115.0 L 158.0 115.0 L 158.0 115.0 L 158.0 115.0 L 157.0 118.0 L 153.0 123.0 L 150.0 129.0 L 147.0 133.0 L 145.0 136.0 L 144.0 138.0 L 144.0 143.0 L 145.0 152.0 L 145.0 166.0 L 145.0 179.0 L 145.0 187.0 L 145.0 189.0 L 145.0 189.0 " stroke="black" fill="none" stroke-width="5.0" stroke-linecap="round" stroke-linejoin="round" />
<path d="M 148.0 141.0 L 148.0 140.0 L 148.0 140.0 L 148.0 140.0 L 148.0 140.0 L 152.0 139.0 L 159.0 138.0 L 165.0 138.0 L 171.0 138.0 L 174.0 138.0 L 177.0 139.0 L 179.0 146.0 L 182.0 160.0 L 185.0 176.0 L 186.0 188.0 L 187.0 194.0 L 187.0 196.0 L 187.0 196.0 " stroke="black" fill="none" stroke-width="5.0" stroke-linecap="round" stroke-linejoin="round" />
<path d="M 151.0 168.0 L 151.0 168.0 L 150.0 170.0 L 150.0 170.0 L 150.0 170.0 L 154.0 170.0 L 162.0 169.0 L 171.0 168.0 L 179.0 167.0 L 182.0 167.0 L 183.0 168.0 " stroke="black" fill="none" stroke-width="5.0" stroke-linecap="round" stroke-linejoin="round" />
<path d="M 148.0 198.0 L 148.0 198.0 L 148.0 198.0 L 148.0 199.0 L 150.0 199.0 L 157.0 199.0 L 169.0 199.0 L 180.0 199.0 L 189.0 200.0 L 192.0 199.0 " stroke="black" fill="none" stroke-width="5.0" stroke-linecap="round" stroke-linejoin="round" />
</svg>