<svg xmlns="http://www.w3.org/2000/svg" width="300" height="300" viewBox="0 0 300 300">
<path d="M 132.0 109.0 L 132.0 109.0 L 132.0 109.0 L 132.0 109.0 L 131.0 109.0 L 131.0 112.0 L 128.0 120.0 L 121.0 135.0 L 111.0 150.0 L 103.0 164.0 L 98.0 170.0 L 97.0 171.0 " stroke="black" fill="none" stroke-width="5.0" stroke-linecap="round" stroke-linejoin="round" />
<path d="M 120.0 144.0 L 120.0 144.0 L 120.0 144.0 L 120.0 144.0 L 120.0 144.0 L 120.0 147.0 L 120.0 159.0 L 119.0 178.0 L 117.0 193.0 L 117.0 197.0 L 117.0 197.0 " stroke="black" fill="none" stroke-width="5.0" stroke-linecap="round" stroke-linejoin="round" />
<path d="M 147.0 116.0 L 147.0 116.0 L 148.0 116.0 L 149.0 117.0 L 151.0 117.0 L 155.0 117.0 L 160.0 116.0 L 165.0 116.0 L 168.0 116.0 L 170.0 117.0 L 170.0 121.0 L 170.0 125.0 L 169.0 128.0 L 169.0 128.0 " stroke="black" fill="none" stroke-width="5.0" stroke-linecap="round" stroke-linejoin="round" />
<path d="M 136.0 133.0 L 136.0 133.0 L 136.0 133.0 L 137.0 134.0 L 142.0 134.0 L 153.0 135.0 L 166.0 135.0 L 178.0 135.0 L 185.0 135.0 L 186.0 135.0 L 186.0 135.0 L 186.0 135.0 " stroke="black" fill="none" stroke-width="5.0" stroke-linecap="round" stroke-linejoin="round" />
<path d="M 147.0 142.0 L 147.0 142.0 L 147.0 142.0 L 147.0 142.0 L 147.0 142.0 L 147.0 143.0 L 145.0 149.0 L 140.0 158.0 L 133.0 166.0 L 130.0 170.0 " stroke="black" fill="none" stroke-width="5.0" stroke-linecap="round" stroke-linejoin="round" />
<path d="M 145.0 154.0 L 147.0 154.0 L 149.0 154.0 L 151.0 154.0 L 156.0 154.0 L 162.0 154.0 L 169.0 154.0 L 174.0 153.0 L 175.0 153.0 " stroke="black" fill="none" stroke-width="5.0" stroke-linecap="round" stroke-linejoin="round" />
<path d="M 135.0 177.0 L 135.0 177.0 L 136.0 178.0 L 139.0 178.0 L 146.0 178.0 L 158.0 177.0 L 168.0 176.0 L 176.0 176.0 L 178.0 176.0 " stroke="black" fill="none" stroke-width="5.0" stroke-linecap="round" stroke-linejoin="round" />
<path d="M 158.0 159.0 L 158.0 159.0 L 158.0 160.0 L 158.0 162.0 L 158.0 166.0 L 156.0 175.0 L 151.0 189.0 L 145.0 201.0 L 142.0 207.0 L 142.0 207.0 " stroke="black" fill="none" stroke-width="5.0" stroke-linecap="round" stroke-linejoin="round" />
<path d="M 158.0 187.0 L 161.0 188.0 L 164.0 191.0 L 170.0 198.0 L 178.0 208.0 L 184.0 214.0 L 185.0 214.0 " stroke="black" fill="none" stroke-width="5.0" stroke-linecap="round" stroke-linejoin="round" />
</svg>