<svg xmlns="http://www.w3.org/2000/svg" width="300" height="300" viewBox="0 0 300 300">
<path d="M 130.0 109.0 L 130.0 109.0 L 130.0 111.0 L 130.0 114.0 L 129.0 119.0 L 128.0 128.0 L 123.0 141.0 L 115.0 156.0 L 107.0 167.0 L 102.0 172.0 L 102.0 172.0 " stroke="black" fill="none" stroke-width="5.0" stroke-linecap="round" stroke-linejoin="round" />
<path d="M 122.0 143.0 L 122.0 143.0 L 122.0 143.0 L 122.0 143.0 L 122.0 146.0 L 122.0 155.0 L 122.0 172.0 L 122.0 189.0 L 121.0 197.0 " stroke="black" fill="none" stroke-width="5.0" stroke-linecap="round" stroke-linejoin="round" />
<path d="M 144.0 124.0 L 144.0 124.0 L 143.0 123.0 L 143.0 123.0 L 143.0 123.0 L 145.0 126.0 L 146.0 131.0 L 147.0 132.0 " stroke="black" fill="none" stroke-width="5.0" stroke-linecap="round" stroke-linejoin="round" />
<path d="M 166.0 121.0 L 166.0 125.0 L 165.0 128.0 L 164.0 132.0 L 163.0 135.0 " stroke="black" fill="none" stroke-width="5.0" stroke-linecap="round" stroke-linejoin="round" />
<path d="M 143.0 140.0 L 144.0 140.0 L 146.0 140.0 L 150.0 141.0 L 157.0 141.0 L 164.0 141.0 L 167.0 141.0 " stroke="black" fill="none" stroke-width="5.0" stroke-linecap="round" stroke-linejoin="round" />
<path d="M 128.0 158.0 L 128.0 159.0 L 128.0 159.0 L 137.0 160.0 L 153.0 160.0 L 168.0 161.0 L 177.0 162.0 L 179.0 162.0 " stroke="black" fill="none" stroke-width="5.0" stroke-linecap="round" stroke-linejoin="round" />
<path d="M 153.0 111.0 L 154.0 111.0 L 154.0 111.0 L 155.0 114.0 L 155.0 124.0 L 156.0 142.0 L 156.0 165.0 L 157.0 185.0 L 157.0 196.0 L 157.0 200.0 L 157.0 201.0 L 157.0 200.0 " stroke="black" fill="none" stroke-width="5.0" stroke-linecap="round" stroke-linejoin="round" />
</svg>