<svg xmlns="http://www.w3.org/2000/svg" width="300" height="300" viewBox="0 0 300 300">
<path d="M 125.0 108.0 L 125.0 109.0 L 125.0 109.0 L 125.0 111.0 L 125.0 113.0 L 124.0 119.0 L 120.0 131.0 L 112.0 147.0 L 104.0 162.0 L 101.0 166.0 " stroke="black" fill="none" stroke-width="5.0" stroke-linecap="round" stroke-linejoin="round" />
<path d="M 114.0 139.0 L 114.0 139.0 L 114.0 139.0 L 115.0 138.0 L 115.0 138.0 L 115.0 141.0 L 116.0 153.0 L 116.0 172.0 L 116.0 190.0 L 117.0 194.0 " stroke="black" fill="none" stroke-width="5.0" stroke-linecap="round" stroke-linejoin="round" />
<path d="M 142.0 117.0 L 142.0 117.0 L 142.0 118.0 L 144.0 118.0 L 150.0 118.0 L 158.0 116.0 L 165.0 115.0 L 167.0 115.0 " stroke="black" fill="none" stroke-width="5.0" stroke-linecap="round" stroke-linejoin="round" />
<path d="M 130.0 135.0 L 131.0 135.0 L 133.0 135.0 L 139.0 135.0 L 152.0 134.0 L 165.0 133.0 L 174.0 133.0 L 175.0 133.0 " stroke="black" fill="none" stroke-width="5.0" stroke-linecap="round" stroke-linejoin="round" />
<path d="M 151.0 105.0 L 151.0 107.0 L 151.0 112.0 L 153.0 120.0 L 154.0 127.0 " stroke="black" fill="none" stroke-width="5.0" stroke-linecap="round" stroke-linejoin="round" />
<path d="M 137.0 155.0 L 137.0 155.0 L 138.0 155.0 L 141.0 155.0 L 148.0 155.0 L 157.0 155.0 L 164.0 154.0 L 166.0 154.0 " stroke="black" fill="none" stroke-width="5.0" stroke-linecap="round" stroke-linejoin="round" />
<path d="M 129.0 183.0 L 130.0 183.0 L 133.0 184.0 L 138.0 185.0 L 148.0 185.0 L 159.0 184.0 L 171.0 184.0 L 176.0 184.0 " stroke="black" fill="none" stroke-width="5.0" stroke-linecap="round" stroke-linejoin="round" />
<path d="M 151.0 143.0 L 151.0 143.0 L 151.0 143.0 L 151.0 147.0 L 151.0 158.0 L 152.0 172.0 L 152.0 175.0 " stroke="black" fill="none" stroke-width="5.0" stroke-linecap="round" stroke-linejoin="round" />
</svg>