<svg xmlns="http://www.w3.org/2000/svg" width="300" height="300" viewBox="0 0 300 300">
<path d="M 127.0 114.0 L 128.0 114.0 L 129.0 113.0 L 130.0 113.0 L 130.0 113.0 L 130.0 117.0 L 125.0 126.0 L 117.0 141.0 L 106.0 158.0 L 96.0 170.0 L 93.0 172.0 " stroke="black" fill="none" stroke-width="5.0" stroke-linecap="round" stroke-linejoin="round" />
<path d="M 117.0 147.0 L 117.0 147.0 L 117.0 147.0 L 117.0 147.0 L 117.0 147.0 L 117.0 151.0 L 118.0 165.0 L 118.0 182.0 L 118.0 191.0 " stroke="black" fill="none" stroke-width="5.0" stroke-linecap="round" stroke-linejoin="round" />
<path d="M 147.0 126.0 L 147.0 126.0 L 147.0 126.0 L 147.0 126.0 L 147.0 126.0 L 148.0 126.0 L 152.0 126.0 L 158.0 125.0 L 164.0 125.0 L 169.0 125.0 L 171.0 125.0 L 172.0 130.0 L 173.0 139.0 L 174.0 150.0 L 175.0 157.0 L 175.0 161.0 " stroke="black" fill="none" stroke-width="5.0" stroke-linecap="round" stroke-linejoin="round" />
<path d="M 134.0 147.0 L 134.0 147.0 L 134.0 147.0 L 133.0 147.0 L 136.0 147.0 L 146.0 147.0 L 160.0 145.0 L 172.0 144.0 L 180.0 144.0 L 182.0 146.0 L 182.0 146.0 " stroke="black" fill="none" stroke-width="5.0" stroke-linecap="round" stroke-linejoin="round" />
<path d="M 139.0 162.0 L 139.0 162.0 L 140.0 162.0 L 146.0 162.0 L 157.0 161.0 L 169.0 160.0 L 174.0 159.0 " stroke="black" fill="none" stroke-width="5.0" stroke-linecap="round" stroke-linejoin="round" />
<path d="M 156.0 131.0 L 156.0 131.0 L 156.0 131.0 L 156.0 131.0 L 156.0 135.0 L 156.0 150.0 L 152.0 174.0 L 145.0 196.0 L 140.0 206.0 " stroke="black" fill="none" stroke-width="5.0" stroke-linecap="round" stroke-linejoin="round" />
</svg>