<svg xmlns="http://www.w3.org/2000/svg" width="300" height="300" viewBox="0 0 300 300">
<path d="M 131.0 117.0 L 131.0 117.0 L 131.0 117.0 L 131.0 117.0 L 131.0 117.0 L 131.0 117.0 L 130.0 122.0 L 126.0 135.0 L 117.0 156.0 L 105.0 174.0 " stroke="black" fill="none" stroke-width="5.0" stroke-linecap="round" stroke-linejoin="round" />
<path d="M 121.0 148.0 L 122.0 148.0 L 122.0 148.0 L 122.0 148.0 L 122.0 154.0 L 122.0 169.0 L 123.0 187.0 L 123.0 191.0 " stroke="black" fill="none" stroke-width="5.0" stroke-linecap="round" stroke-linejoin="round" />
<path d="M 145.0 131.0 L 145.0 131.0 L 145.0 130.0 L 145.0 130.0 L 146.0 139.0 L 147.0 155.0 L 148.0 169.0 L 148.0 175.0 " stroke="black" fill="none" stroke-width="5.0" stroke-linecap="round" stroke-linejoin="round" />
<path d="M 130.0 187.0 L 130.0 187.0 L 130.0 187.0 L 131.0 187.0 L 136.0 186.0 L 150.0 183.0 L 164.0 179.0 " stroke="black" fill="none" stroke-width="5.0" stroke-linecap="round" stroke-linejoin="round" />
<path d="M 160.0 149.0 L 160.0 149.0 L 160.0 148.0 L 161.0 148.0 L 163.0 149.0 L 166.0 152.0 L 167.0 154.0 " stroke="black" fill="none" stroke-width="5.0" stroke-linecap="round" stroke-linejoin="round" />
<path d="M 182.0 124.0 L 182.0 124.0 L 182.0 123.0 L 183.0 124.0 L 183.0 136.0 L 182.0 157.0 L 178.0 178.0 L 173.0 190.0 L 171.0 193.0 " stroke="black" fill="none" stroke-width="5.0" stroke-linecap="round" stroke-linejoin="round" />
<path d="M 181.0 166.0 L 181.0 166.0 L 182.0 167.0 L 185.0 169.0 L 192.0 174.0 L 200.0 183.0 L 204.0 189.0 " stroke="black" fill="none" stroke-width="5.0" stroke-linecap="round" stroke-linejoin="round" />
</svg>