<svg xmlns="http://www.w3.org/2000/svg" width="300" height="300" viewBox="0 0 300 300">
<path d="M 140.0 108.0 L 140.0 108.0 L 140.0 108.0 L 139.0 108.0 L 138.0 111.0 L 134.0 120.0 L 124.0 139.0 L 110.0 160.0 " stroke="black" fill="none" stroke-width="5.0" stroke-linecap="round" stroke-linejoin="round" />
<path d="M 125.0 142.0 L 126.0 142.0 L 126.0 142.0 L 127.0 143.0 L 128.0 151.0 L 130.0 164.0 L 133.0 180.0 " stroke="black" fill="none" stroke-width="5.0" stroke-linecap="round" stroke-linejoin="round" />
<path d="M 157.0 108.0 L 157.0 108.0 L 157.0 108.0 L 158.0 109.0 L 160.0 111.0 L 163.0 114.0 L 164.0 115.0 " stroke="black" fill="none" stroke-width="5.0" stroke-linecap="round" stroke-linejoin="round" />
<path d="M 148.0 124.0 L 148.0 124.0 L 148.0 124.0 L 150.0 124.0 L 160.0 123.0 L 171.0 122.0 L 179.0 122.0 L 181.0 123.0 L 181.0 124.0 " stroke="black" fill="none" stroke-width="5.0" stroke-linecap="round" stroke-linejoin="round" />
<path d="M 153.0 137.0 L 153.0 137.0 L 155.0 137.0 L 159.0 136.0 L 166.0 135.0 L 173.0 135.0 L 178.0 134.0 L 178.0 134.0 " stroke="black" fill="none" stroke-width="5.0" stroke-linecap="round" stroke-linejoin="round" />
<path d="M 150.0 149.0 L 151.0 149.0 L 152.0 150.0 L 158.0 150.0 L 166.0 149.0 L 174.0 149.0 " stroke="black" fill="none" stroke-width="5.0" stroke-linecap="round" stroke-linejoin="round" />
<path d="M 144.0 167.0 L 144.0 167.0 L 144.0 168.0 L 144.0 168.0 L 144.0 170.0 L 145.0 174.0 L 146.0 179.0 L 147.0 180.0 " stroke="black" fill="none" stroke-width="5.0" stroke-linecap="round" stroke-linejoin="round" />
<path d="M 146.0 164.0 L 146.0 164.0 L 148.0 164.0 L 151.0 164.0 L 157.0 163.0 L 166.0 163.0 L 174.0 163.0 L 179.0 166.0 L 181.0 172.0 L 182.0 178.0 L 182.0 182.0 L 182.0 183.0 " stroke="black" fill="none" stroke-width="5.0" stroke-linecap="round" stroke-linejoin="round" />
<path d="M 150.0 185.0 L 150.0 185.0 L 150.0 185.0 L 150.0 185.0 L 154.0 185.0 L 165.0 185.0 L 176.0 184.0 L 181.0 184.0 " stroke="black" fill="none" stroke-width="5.0" stroke-linecap="round" stroke-linejoin="round" />
</svg>