<svg xmlns="http://www.w3.org/2000/svg" width="300" height="300" viewBox="0 0 300 300">
<path d="M 131.0 111.0 L 131.0 112.0 L 131.0 112.0 L 131.0 112.0 L 131.0 113.0 L 131.0 114.0 L 131.0 116.0 L 130.0 123.0 L 124.0 136.0 L 115.0 152.0 L 107.0 167.0 L 103.0 175.0 L 103.0 176.0 " stroke="black" fill="none" stroke-width="5.0" stroke-linecap="round" stroke-linejoin="round" />
<path d="M 122.0 143.0 L 122.0 143.0 L 122.0 143.0 L 122.0 143.0 L 122.0 143.0 L 122.0 145.0 L 122.0 154.0 L 121.0 169.0 L 119.0 182.0 L 118.0 187.0 " stroke="black" fill="none" stroke-width="5.0" stroke-linecap="round" stroke-linejoin="round" />
<path d="M 147.0 115.0 L 147.0 115.0 L 147.0 115.0 L 147.0 116.0 L 151.0 116.0 L 159.0 116.0 L 168.0 115.0 L 175.0 115.0 L 180.0 115.0 L 181.0 115.0 L 181.0 117.0 L 182.0 124.0 L 184.0 138.0 L 188.0 155.0 L 190.0 170.0 L 192.0 181.0 L 192.0 188.0 L 192.0 192.0 L 189.0 192.0 L 184.0 192.0 L 172.0 190.0 L 165.0 189.0 " stroke="black" fill="none" stroke-width="5.0" stroke-linecap="round" stroke-linejoin="round" />
<path d="M 146.0 138.0 L 146.0 138.0 L 146.0 138.0 L 146.0 138.0 L 149.0 137.0 L 155.0 136.0 L 162.0 136.0 L 166.0 136.0 L 166.0 136.0 " stroke="black" fill="none" stroke-width="5.0" stroke-linecap="round" stroke-linejoin="round" />
<path d="M 140.0 153.0 L 140.0 153.0 L 140.0 153.0 L 140.0 154.0 L 140.0 154.0 L 140.0 155.0 L 141.0 157.0 L 141.0 161.0 L 142.0 165.0 L 142.0 165.0 " stroke="black" fill="none" stroke-width="5.0" stroke-linecap="round" stroke-linejoin="round" />
<path d="M 141.0 153.0 L 141.0 153.0 L 141.0 153.0 L 141.0 153.0 L 143.0 153.0 L 148.0 153.0 L 155.0 152.0 L 161.0 152.0 L 166.0 152.0 L 169.0 153.0 L 170.0 156.0 L 170.0 160.0 L 170.0 165.0 L 170.0 168.0 L 169.0 169.0 L 169.0 170.0 " stroke="black" fill="none" stroke-width="5.0" stroke-linecap="round" stroke-linejoin="round" />
<path d="M 142.0 171.0 L 141.0 172.0 L 141.0 173.0 L 143.0 173.0 L 152.0 173.0 L 164.0 173.0 L 172.0 173.0 L 175.0 173.0 " stroke="black" fill="none" stroke-width="5.0" stroke-linecap="round" stroke-linejoin="round" />
</svg>