<svg xmlns="http://www.w3.org/2000/svg" width="300" height="300" viewBox="0 0 300 300">
<path d="M 135.0 108.0 L 135.0 109.0 L 135.0 109.0 L 135.0 112.0 L 133.0 119.0 L 128.0 132.0 L 119.0 150.0 L 109.0 164.0 L 105.0 170.0 " stroke="black" fill="none" stroke-width="5.0" stroke-linecap="round" stroke-linejoin="round" />
<path d="M 125.0 142.0 L 125.0 142.0 L 125.0 141.0 L 126.0 141.0 L 126.0 145.0 L 127.0 156.0 L 127.0 172.0 L 127.0 186.0 L 127.0 189.0 " stroke="black" fill="none" stroke-width="5.0" stroke-linecap="round" stroke-linejoin="round" />
<path d="M 162.0 106.0 L 162.0 106.0 L 162.0 106.0 L 162.0 107.0 L 161.0 109.0 L 158.0 113.0 L 153.0 120.0 L 146.0 128.0 " stroke="black" fill="none" stroke-width="5.0" stroke-linecap="round" stroke-linejoin="round" />
<path d="M 155.0 118.0 L 155.0 118.0 L 155.0 118.0 L 155.0 119.0 L 157.0 119.0 L 161.0 119.0 L 164.0 120.0 L 167.0 121.0 L 168.0 123.0 L 167.0 126.0 L 163.0 132.0 L 156.0 139.0 L 149.0 146.0 L 147.0 147.0 " stroke="black" fill="none" stroke-width="5.0" stroke-linecap="round" stroke-linejoin="round" />
<path d="M 150.0 129.0 L 150.0 129.0 L 151.0 130.0 L 151.0 132.0 L 152.0 134.0 L 153.0 135.0 " stroke="black" fill="none" stroke-width="5.0" stroke-linecap="round" stroke-linejoin="round" />
<path d="M 169.0 140.0 L 169.0 140.0 L 170.0 140.0 L 170.0 140.0 L 170.0 142.0 L 168.0 145.0 L 163.0 150.0 L 156.0 159.0 L 146.0 168.0 L 139.0 174.0 " stroke="black" fill="none" stroke-width="5.0" stroke-linecap="round" stroke-linejoin="round" />
<path d="M 160.0 156.0 L 160.0 156.0 L 160.0 156.0 L 161.0 156.0 L 163.0 156.0 L 170.0 156.0 L 177.0 156.0 L 182.0 156.0 L 184.0 158.0 L 184.0 162.0 L 180.0 168.0 L 174.0 177.0 L 166.0 186.0 L 158.0 194.0 L 156.0 195.0 " stroke="black" fill="none" stroke-width="5.0" stroke-linecap="round" stroke-linejoin="round" />
<path d="M 158.0 166.0 L 159.0 166.0 L 161.0 168.0 L 165.0 172.0 L 172.0 178.0 L 175.0 180.0 " stroke="black" fill="none" stroke-width="5.0" stroke-linecap="round" stroke-linejoin="round" />
</svg>