<svg xmlns="http://www.w3.org/2000/svg" width="300" height="300" viewBox="0 0 300 300">
<path d="M 132.14285714285717 118.5714285714286 L 132.8571428571429 118.5714285714286 L 134.28571428571433 119.28571428571432 L 139.28571428571433 119.28571428571432 L 149.28571428571433 118.5714285714286 L 162.14285714285717 116.42857142857146 L 167.14285714285717 115.71428571428574 " stroke="black" fill="none" stroke-width="5.0" stroke-linecap="round" stroke-linejoin="round" />
<path d="M 147.8571428571429 96.42857142857146 L 147.8571428571429 97.14285714285715 L 147.8571428571429 97.85714285714288 L 147.8571428571429 100.71428571428574 L 147.8571428571429 109.28571428571432 L 148.5714285714286 125.00000000000001 L 150.00000000000006 145.71428571428572 L 150.71428571428572 166.42857142857144 L 151.42857142857144 182.14285714285717 L 152.14285714285717 189.28571428571433 " stroke="black" fill="none" stroke-width="5.0" stroke-linecap="round" stroke-linejoin="round" />
<path d="M 140.00000000000006 130.00000000000006 L 140.00000000000006 130.00000000000006 L 140.00000000000006 130.00000000000006 L 140.00000000000006 130.00000000000006 L 139.28571428571433 131.42857142857144 L 137.14285714285717 136.42857142857144 L 131.42857142857144 146.42857142857144 L 127.85714285714288 150.71428571428572 " stroke="black" fill="none" stroke-width="5.0" stroke-linecap="round" stroke-linejoin="round" />
<path d="M 135.00000000000006 142.8571428571429 L 135.71428571428572 142.8571428571429 L 136.42857142857144 142.8571428571429 L 138.5714285714286 143.5714285714286 L 141.42857142857144 145.71428571428572 L 143.5714285714286 147.14285714285717 " stroke="black" fill="none" stroke-width="5.0" stroke-linecap="round" stroke-linejoin="round" />
<path d="M 159.28571428571433 128.5714285714286 L 159.28571428571433 129.28571428571433 L 158.5714285714286 130.00000000000006 L 157.8571428571429 132.8571428571429 L 156.42857142857144 137.14285714285717 L 155.00000000000006 143.5714285714286 L 154.28571428571433 145.00000000000006 " stroke="black" fill="none" stroke-width="5.0" stroke-linecap="round" stroke-linejoin="round" />
<path d="M 157.14285714285717 136.42857142857144 L 157.8571428571429 136.42857142857144 L 159.28571428571433 137.14285714285717 L 162.8571428571429 138.5714285714286 L 168.5714285714286 141.42857142857144 L 173.5714285714286 143.5714285714286 " stroke="black" fill="none" stroke-width="5.0" stroke-linecap="round" stroke-linejoin="round" />
<path d="M 147.14285714285717 155.71428571428572 L 147.14285714285717 155.71428571428572 L 146.42857142857144 156.42857142857144 L 145.71428571428572 157.14285714285717 L 143.5714285714286 159.28571428571433 L 137.8571428571429 165.00000000000006 L 127.85714285714288 175.00000000000006 L 121.42857142857146 180.71428571428578 " stroke="black" fill="none" stroke-width="5.0" stroke-linecap="round" stroke-linejoin="round" />
<path d="M 148.5714285714286 157.8571428571429 L 148.5714285714286 157.8571428571429 L 148.5714285714286 157.8571428571429 L 150.00000000000006 158.5714285714286 L 152.8571428571429 160.00000000000006 L 163.5714285714286 165.71428571428572 L 179.28571428571433 173.5714285714286 L 190.71428571428578 178.5714285714286 L 194.28571428571433 180.71428571428578 " stroke="black" fill="none" stroke-width="5.0" stroke-linecap="round" stroke-linejoin="round" />
</svg>