<svg xmlns="http://www.w3.org/2000/svg" width="300" height="300" viewBox="0 0 300 300">
<path d="M 132.0 115.0 L 131.0 115.0 L 130.0 115.0 L 129.0 116.0 L 128.0 118.0 L 126.0 123.0 L 121.0 132.0 L 113.0 146.0 L 105.0 159.0 L 100.0 165.0 L 100.0 166.0 " stroke="black" fill="none" stroke-width="5.0" stroke-linecap="round" stroke-linejoin="round" />
<path d="M 118.0 140.0 L 118.0 139.0 L 119.0 139.0 L 119.0 138.0 L 119.0 138.0 L 120.0 142.0 L 121.0 154.0 L 122.0 171.0 L 122.0 184.0 L 123.0 191.0 L 124.0 192.0 " stroke="black" fill="none" stroke-width="5.0" stroke-linecap="round" stroke-linejoin="round" />
<path d="M 146.0 129.0 L 146.0 129.0 L 145.0 129.0 L 145.0 129.0 L 145.0 134.0 L 145.0 144.0 L 145.0 156.0 L 146.0 164.0 L 146.0 166.0 L 147.0 166.0 " stroke="black" fill="none" stroke-width="5.0" stroke-linecap="round" stroke-linejoin="round" />
<path d="M 148.0 129.0 L 148.0 129.0 L 148.0 130.0 L 149.0 130.0 L 153.0 130.0 L 159.0 129.0 L 166.0 128.0 L 172.0 128.0 L 177.0 128.0 L 180.0 129.0 L 182.0 135.0 L 183.0 146.0 L 184.0 155.0 L 185.0 162.0 L 186.0 166.0 L 186.0 167.0 " stroke="black" fill="none" stroke-width="5.0" stroke-linecap="round" stroke-linejoin="round" />
<path d="M 149.0 153.0 L 149.0 153.0 L 148.0 153.0 L 148.0 153.0 L 150.0 153.0 L 159.0 153.0 L 171.0 151.0 L 179.0 151.0 L 182.0 151.0 L 182.0 153.0 L 182.0 153.0 " stroke="black" fill="none" stroke-width="5.0" stroke-linecap="round" stroke-linejoin="round" />
<path d="M 147.0 172.0 L 147.0 172.0 L 147.0 172.0 L 149.0 172.0 L 155.0 171.0 L 166.0 171.0 L 176.0 171.0 L 182.0 171.0 L 184.0 171.0 L 185.0 172.0 " stroke="black" fill="none" stroke-width="5.0" stroke-linecap="round" stroke-linejoin="round" />
<path d="M 146.0 189.0 L 146.0 189.0 L 146.0 189.0 L 146.0 189.0 L 150.0 189.0 L 163.0 189.0 L 181.0 187.0 L 192.0 187.0 L 196.0 187.0 L 197.0 187.0 " stroke="black" fill="none" stroke-width="5.0" stroke-linecap="round" stroke-linejoin="round" />
</svg>