<svg xmlns="http://www.w3.org/2000/svg" width="300" height="300" viewBox="0 0 300 300">
<path d="M 134.0 109.0 L 134.0 109.0 L 134.0 109.0 L 133.0 110.0 L 132.0 112.0 L 130.0 118.0 L 125.0 129.0 L 117.0 146.0 L 108.0 160.0 L 102.0 167.0 L 100.0 169.0 " stroke="black" fill="none" stroke-width="5.0" stroke-linecap="round" stroke-linejoin="round" />
<path d="M 120.0 146.0 L 120.0 146.0 L 120.0 146.0 L 120.0 145.0 L 120.0 145.0 L 120.0 148.0 L 120.0 156.0 L 120.0 170.0 L 120.0 182.0 L 120.0 189.0 L 120.0 190.0 " stroke="black" fill="none" stroke-width="5.0" stroke-linecap="round" stroke-linejoin="round" />
<path d="M 139.0 133.0 L 139.0 135.0 L 139.0 137.0 L 139.0 140.0 L 139.0 144.0 L 139.0 147.0 " stroke="black" fill="none" stroke-width="5.0" stroke-linecap="round" stroke-linejoin="round" />
<path d="M 139.0 133.0 L 139.0 133.0 L 139.0 133.0 L 142.0 133.0 L 149.0 132.0 L 160.0 131.0 L 170.0 131.0 L 179.0 131.0 L 185.0 131.0 L 189.0 132.0 L 190.0 137.0 L 191.0 141.0 L 191.0 145.0 L 190.0 147.0 " stroke="black" fill="none" stroke-width="5.0" stroke-linecap="round" stroke-linejoin="round" />
<path d="M 160.0 116.0 L 160.0 116.0 L 160.0 117.0 L 161.0 121.0 L 162.0 128.0 L 163.0 131.0 " stroke="black" fill="none" stroke-width="5.0" stroke-linecap="round" stroke-linejoin="round" />
<path d="M 151.0 151.0 L 151.0 151.0 L 151.0 151.0 L 152.0 151.0 L 155.0 151.0 L 162.0 151.0 L 171.0 150.0 L 178.0 150.0 L 181.0 150.0 " stroke="black" fill="none" stroke-width="5.0" stroke-linecap="round" stroke-linejoin="round" />
<path d="M 161.0 155.0 L 161.0 155.0 L 161.0 155.0 L 161.0 157.0 L 163.0 162.0 L 166.0 174.0 L 168.0 187.0 L 169.0 198.0 L 169.0 203.0 L 169.0 206.0 L 166.0 206.0 L 160.0 206.0 L 151.0 202.0 L 149.0 201.0 " stroke="black" fill="none" stroke-width="5.0" stroke-linecap="round" stroke-linejoin="round" />
</svg>