<svg xmlns="http://www.w3.org/2000/svg" width="300" height="300" viewBox="0 0 300 300">
<path d="M 136.0 103.0 L 136.0 103.0 L 136.0 103.0 L 136.0 103.0 L 136.0 103.0 L 135.0 105.0 L 134.0 111.0 L 125.0 131.0 L 116.0 146.0 L 111.0 151.0 L 105.0 157.0 " stroke="black" fill="none" stroke-width="5.0" stroke-linecap="round" stroke-linejoin="round" />
<path d="M 121.0 136.0 L 122.0 137.0 L 123.0 139.0 L 123.0 141.0 L 122.0 143.0 L 122.0 154.0 L 122.0 169.0 L 122.0 178.0 L 122.0 185.0 L 122.0 185.0 " stroke="black" fill="none" stroke-width="5.0" stroke-linecap="round" stroke-linejoin="round" />
<path d="M 144.0 111.0 L 144.0 111.0 L 144.0 111.0 L 144.0 111.0 L 143.0 111.0 L 143.0 113.0 L 142.0 120.0 L 141.0 130.0 L 141.0 138.0 L 142.0 142.0 L 146.0 143.0 L 150.0 141.0 L 152.0 140.0 " stroke="black" fill="none" stroke-width="5.0" stroke-linecap="round" stroke-linejoin="round" />
<path d="M 141.0 125.0 L 141.0 128.0 L 141.0 128.0 L 142.0 128.0 L 148.0 126.0 L 154.0 125.0 L 158.0 124.0 L 159.0 123.0 " stroke="black" fill="none" stroke-width="5.0" stroke-linecap="round" stroke-linejoin="round" />
<path d="M 162.0 99.0 L 162.0 99.0 L 162.0 99.0 L 162.0 102.0 L 163.0 113.0 L 164.0 128.0 L 166.0 142.0 L 171.0 147.0 L 177.0 147.0 L 182.0 144.0 L 182.0 143.0 " stroke="black" fill="none" stroke-width="5.0" stroke-linecap="round" stroke-linejoin="round" />
<path d="M 168.0 127.0 L 171.0 126.0 L 173.0 126.0 L 178.0 127.0 L 181.0 128.0 L 184.0 128.0 " stroke="black" fill="none" stroke-width="5.0" stroke-linecap="round" stroke-linejoin="round" />
<path d="M 152.0 152.0 L 153.0 152.0 L 153.0 152.0 L 153.0 152.0 L 153.0 153.0 L 151.0 155.0 L 149.0 156.0 L 145.0 159.0 L 144.0 160.0 L 142.0 162.0 L 141.0 167.0 L 141.0 170.0 L 141.0 177.0 L 142.0 185.0 L 142.0 187.0 L 143.0 188.0 " stroke="black" fill="none" stroke-width="5.0" stroke-linecap="round" stroke-linejoin="round" />
<path d="M 143.0 163.0 L 143.0 163.0 L 143.0 163.0 L 145.0 163.0 L 148.0 163.0 L 157.0 163.0 L 163.0 163.0 L 170.0 164.0 L 174.0 165.0 L 176.0 168.0 L 179.0 175.0 L 180.0 180.0 L 182.0 187.0 L 182.0 192.0 L 182.0 193.0 L 182.0 193.0 " stroke="black" fill="none" stroke-width="5.0" stroke-linecap="round" stroke-linejoin="round" />
<path d="M 145.0 174.0 L 145.0 176.0 L 145.0 176.0 L 148.0 177.0 L 156.0 177.0 L 163.0 176.0 L 172.0 176.0 L 174.0 178.0 L 174.0 180.0 " stroke="black" fill="none" stroke-width="5.0" stroke-linecap="round" stroke-linejoin="round" />
<path d="M 144.0 197.0 L 145.0 198.0 L 147.0 198.0 L 155.0 199.0 L 162.0 199.0 L 173.0 198.0 L 180.0 198.0 L 180.0 198.0 " stroke="black" fill="none" stroke-width="5.0" stroke-linecap="round" stroke-linejoin="round" />
</svg>