<svg xmlns="http://www.w3.org/2000/svg" width="300" height="300" viewBox="0 0 300 300">
<path d="M 134.0 111.0 L 133.0 113.0 L 132.0 116.0 L 131.0 121.0 L 127.0 129.0 L 119.0 144.0 L 108.0 161.0 L 100.0 171.0 " stroke="black" fill="none" stroke-width="5.0" stroke-linecap="round" stroke-linejoin="round" />
<path d="M 121.0 140.0 L 121.0 140.0 L 121.0 141.0 L 121.0 144.0 L 121.0 152.0 L 121.0 167.0 L 119.0 184.0 L 117.0 195.0 " stroke="black" fill="none" stroke-width="5.0" stroke-linecap="round" stroke-linejoin="round" />
<path d="M 148.0 114.0 L 148.0 114.0 L 148.0 114.0 L 148.0 115.0 L 148.0 117.0 L 148.0 118.0 L 147.0 121.0 L 147.0 125.0 L 146.0 127.0 L 149.0 128.0 L 156.0 129.0 L 167.0 127.0 L 178.0 127.0 L 185.0 128.0 L 188.0 128.0 " stroke="black" fill="none" stroke-width="5.0" stroke-linecap="round" stroke-linejoin="round" />
<path d="M 167.0 108.0 L 167.0 108.0 L 167.0 108.0 L 167.0 110.0 L 167.0 115.0 L 168.0 121.0 L 168.0 123.0 " stroke="black" fill="none" stroke-width="5.0" stroke-linecap="round" stroke-linejoin="round" />
<path d="M 188.0 112.0 L 188.0 116.0 L 188.0 121.0 L 188.0 126.0 L 188.0 127.0 " stroke="black" fill="none" stroke-width="5.0" stroke-linecap="round" stroke-linejoin="round" />
<path d="M 155.0 137.0 L 155.0 137.0 L 155.0 138.0 L 155.0 141.0 L 154.0 147.0 L 150.0 156.0 L 143.0 167.0 L 134.0 178.0 L 130.0 181.0 " stroke="black" fill="none" stroke-width="5.0" stroke-linecap="round" stroke-linejoin="round" />
<path d="M 149.0 156.0 L 149.0 156.0 L 149.0 156.0 L 149.0 158.0 L 149.0 164.0 L 149.0 176.0 L 149.0 187.0 L 149.0 192.0 " stroke="black" fill="none" stroke-width="5.0" stroke-linecap="round" stroke-linejoin="round" />
<path d="M 172.0 142.0 L 172.0 141.0 L 172.0 141.0 L 173.0 141.0 L 175.0 143.0 L 177.0 146.0 L 178.0 148.0 " stroke="black" fill="none" stroke-width="5.0" stroke-linecap="round" stroke-linejoin="round" />
<path d="M 161.0 156.0 L 161.0 156.0 L 161.0 156.0 L 162.0 156.0 L 166.0 156.0 L 173.0 156.0 L 181.0 156.0 L 182.0 156.0 " stroke="black" fill="none" stroke-width="5.0" stroke-linecap="round" stroke-linejoin="round" />
<path d="M 166.0 167.0 L 167.0 168.0 L 167.0 168.0 L 168.0 168.0 L 170.0 168.0 L 172.0 169.0 L 176.0 169.0 L 181.0 169.0 L 183.0 169.0 " stroke="black" fill="none" stroke-width="5.0" stroke-linecap="round" stroke-linejoin="round" />
<path d="M 165.0 180.0 L 166.0 180.0 L 168.0 179.0 L 171.0 179.0 L 174.0 179.0 L 177.0 179.0 L 180.0 179.0 L 182.0 179.0 " stroke="black" fill="none" stroke-width="5.0" stroke-linecap="round" stroke-linejoin="round" />
<path d="M 155.0 197.0 L 155.0 198.0 L 156.0 198.0 L 157.0 199.0 L 161.0 199.0 L 170.0 199.0 L 182.0 198.0 L 191.0 198.0 L 192.0 198.0 " stroke="black" fill="none" stroke-width="5.0" stroke-linecap="round" stroke-linejoin="round" />
<path d="M 173.0 163.0 L 173.0 163.0 L 174.0 163.0 L 174.0 164.0 L 175.0 167.0 L 175.0 175.0 L 176.0 185.0 L 176.0 189.0 " stroke="black" fill="none" stroke-width="5.0" stroke-linecap="round" stroke-linejoin="round" />
</svg>