<svg xmlns="http://www.w3.org/2000/svg" width="300" height="300" viewBox="0 0 300 300">
<path d="M 125.0 104.0 L 125.0 104.0 L 125.0 105.0 L 125.0 105.0 L 125.0 108.0 L 122.0 116.0 L 115.0 132.0 L 105.0 149.0 L 101.0 155.0 " stroke="black" fill="none" stroke-width="5.0" stroke-linecap="round" stroke-linejoin="round" />
<path d="M 116.0 133.0 L 116.0 133.0 L 116.0 133.0 L 116.0 133.0 L 116.0 134.0 L 117.0 143.0 L 119.0 163.0 L 119.0 183.0 L 119.0 194.0 L 119.0 196.0 " stroke="black" fill="none" stroke-width="5.0" stroke-linecap="round" stroke-linejoin="round" />
<path d="M 148.0 104.0 L 148.0 104.0 L 148.0 104.0 L 148.0 105.0 L 147.0 107.0 L 145.0 111.0 L 143.0 115.0 L 141.0 118.0 L 140.0 119.0 L 140.0 120.0 L 144.0 120.0 L 150.0 120.0 L 156.0 119.0 L 161.0 118.0 L 166.0 117.0 L 170.0 117.0 L 173.0 116.0 L 174.0 116.0 L 175.0 116.0 L 176.0 117.0 L 177.0 119.0 L 178.0 123.0 L 178.0 128.0 L 178.0 133.0 L 178.0 136.0 " stroke="black" fill="none" stroke-width="5.0" stroke-linecap="round" stroke-linejoin="round" />
<path d="M 141.0 137.0 L 141.0 137.0 L 141.0 137.0 L 141.0 137.0 L 144.0 137.0 L 151.0 137.0 L 161.0 135.0 L 171.0 134.0 L 174.0 133.0 " stroke="black" fill="none" stroke-width="5.0" stroke-linecap="round" stroke-linejoin="round" />
<path d="M 145.0 121.0 L 145.0 121.0 L 144.0 122.0 L 143.0 124.0 L 142.0 130.0 L 140.0 144.0 L 136.0 162.0 L 130.0 178.0 L 126.0 185.0 L 126.0 186.0 " stroke="black" fill="none" stroke-width="5.0" stroke-linecap="round" stroke-linejoin="round" />
<path d="M 141.0 155.0 L 141.0 155.0 L 141.0 155.0 L 141.0 155.0 L 141.0 155.0 L 142.0 163.0 L 142.0 178.0 L 143.0 189.0 L 144.0 192.0 " stroke="black" fill="none" stroke-width="5.0" stroke-linecap="round" stroke-linejoin="round" />
<path d="M 142.0 152.0 L 142.0 152.0 L 143.0 152.0 L 144.0 152.0 L 149.0 151.0 L 158.0 149.0 L 167.0 148.0 L 174.0 148.0 L 179.0 149.0 L 183.0 152.0 L 185.0 157.0 L 188.0 166.0 L 189.0 178.0 L 189.0 188.0 L 189.0 195.0 L 188.0 198.0 L 185.0 198.0 L 177.0 199.0 L 175.0 198.0 " stroke="black" fill="none" stroke-width="5.0" stroke-linecap="round" stroke-linejoin="round" />
<path d="M 147.0 167.0 L 147.0 167.0 L 147.0 167.0 L 147.0 167.0 L 148.0 168.0 L 156.0 168.0 L 168.0 168.0 L 177.0 168.0 L 178.0 168.0 " stroke="black" fill="none" stroke-width="5.0" stroke-linecap="round" stroke-linejoin="round" />
<path d="M 154.0 151.0 L 154.0 151.0 L 154.0 151.0 L 154.0 157.0 L 155.0 172.0 L 156.0 187.0 L 157.0 195.0 L 158.0 195.0 " stroke="black" fill="none" stroke-width="5.0" stroke-linecap="round" stroke-linejoin="round" />
<path d="M 164.0 152.0 L 164.0 154.0 L 165.0 157.0 L 166.0 164.0 L 168.0 178.0 L 170.0 192.0 L 170.0 198.0 " stroke="black" fill="none" stroke-width="5.0" stroke-linecap="round" stroke-linejoin="round" />
</svg>