<svg xmlns="http://www.w3.org/2000/svg" width="300" height="300" viewBox="0 0 300 300">
<path d="M 125.0 105.0 L 125.0 105.0 L 124.0 105.0 L 124.0 105.0 L 124.0 109.0 L 123.0 119.0 L 117.0 138.0 L 106.0 159.0 L 97.0 171.0 " stroke="black" fill="none" stroke-width="5.0" stroke-linecap="round" stroke-linejoin="round" />
<path d="M 115.0 143.0 L 115.0 142.0 L 115.0 142.0 L 115.0 142.0 L 116.0 147.0 L 116.0 162.0 L 116.0 182.0 L 116.0 191.0 " stroke="black" fill="none" stroke-width="5.0" stroke-linecap="round" stroke-linejoin="round" />
<path d="M 143.0 109.0 L 143.0 109.0 L 143.0 109.0 L 143.0 109.0 L 145.0 109.0 L 150.0 108.0 L 158.0 106.0 L 165.0 105.0 L 168.0 105.0 L 168.0 105.0 " stroke="black" fill="none" stroke-width="5.0" stroke-linecap="round" stroke-linejoin="round" />
<path d="M 139.0 121.0 L 139.0 121.0 L 139.0 121.0 L 138.0 122.0 L 138.0 123.0 L 138.0 127.0 L 138.0 133.0 L 139.0 139.0 L 140.0 142.0 " stroke="black" fill="none" stroke-width="5.0" stroke-linecap="round" stroke-linejoin="round" />
<path d="M 141.0 117.0 L 141.0 117.0 L 141.0 117.0 L 142.0 117.0 L 144.0 117.0 L 148.0 116.0 L 156.0 115.0 L 163.0 114.0 L 170.0 114.0 L 174.0 114.0 L 176.0 116.0 L 179.0 119.0 L 181.0 125.0 L 183.0 131.0 L 183.0 137.0 L 183.0 142.0 L 183.0 144.0 L 180.0 145.0 L 176.0 146.0 L 170.0 146.0 L 165.0 146.0 " stroke="black" fill="none" stroke-width="5.0" stroke-linecap="round" stroke-linejoin="round" />
<path d="M 147.0 125.0 L 147.0 126.0 L 147.0 127.0 L 147.0 127.0 L 152.0 126.0 L 162.0 124.0 L 173.0 122.0 L 181.0 122.0 L 183.0 122.0 " stroke="black" fill="none" stroke-width="5.0" stroke-linecap="round" stroke-linejoin="round" />
<path d="M 149.0 136.0 L 149.0 136.0 L 150.0 136.0 L 151.0 136.0 L 153.0 136.0 L 158.0 135.0 L 168.0 134.0 L 178.0 133.0 " stroke="black" fill="none" stroke-width="5.0" stroke-linecap="round" stroke-linejoin="round" />
<path d="M 156.0 94.0 L 156.0 94.0 L 156.0 93.0 L 156.0 93.0 L 157.0 98.0 L 158.0 111.0 L 158.0 131.0 L 159.0 145.0 L 159.0 149.0 " stroke="black" fill="none" stroke-width="5.0" stroke-linecap="round" stroke-linejoin="round" />
<path d="M 173.0 92.0 L 174.0 92.0 L 175.0 92.0 L 176.0 93.0 L 178.0 95.0 " stroke="black" fill="none" stroke-width="5.0" stroke-linecap="round" stroke-linejoin="round" />
<path d="M 141.0 160.0 L 140.0 161.0 L 140.0 162.0 L 141.0 162.0 L 147.0 161.0 L 160.0 159.0 L 176.0 158.0 L 190.0 158.0 L 194.0 158.0 " stroke="black" fill="none" stroke-width="5.0" stroke-linecap="round" stroke-linejoin="round" />
<path d="M 172.0 147.0 L 172.0 147.0 L 172.0 147.0 L 172.0 147.0 L 174.0 154.0 L 177.0 166.0 L 180.0 178.0 L 181.0 187.0 L 181.0 194.0 L 181.0 197.0 L 179.0 198.0 L 174.0 198.0 L 167.0 196.0 L 165.0 195.0 " stroke="black" fill="none" stroke-width="5.0" stroke-linecap="round" stroke-linejoin="round" />
<path d="M 155.0 170.0 L 155.0 170.0 L 155.0 173.0 L 156.0 175.0 L 161.0 178.0 " stroke="black" fill="none" stroke-width="5.0" stroke-linecap="round" stroke-linejoin="round" />
</svg>