<svg xmlns="http://www.w3.org/2000/svg" width="300" height="300" viewBox="0 0 300 300">
<path d="M 138.0 107.0 L 138.0 106.0 L 138.0 106.0 L 137.0 106.0 L 137.0 105.0 L 136.0 105.0 L 136.0 109.0 L 134.0 118.0 L 127.0 133.0 L 115.0 152.0 L 105.0 167.0 L 102.0 169.0 " stroke="black" fill="none" stroke-width="5.0" stroke-linecap="round" stroke-linejoin="round" />
<path d="M 125.0 143.0 L 125.0 143.0 L 125.0 143.0 L 126.0 146.0 L 128.0 158.0 L 130.0 175.0 L 130.0 187.0 L 130.0 190.0 " stroke="black" fill="none" stroke-width="5.0" stroke-linecap="round" stroke-linejoin="round" />
<path d="M 161.0 97.0 L 161.0 97.0 L 162.0 98.0 L 163.0 99.0 L 165.0 103.0 L 167.0 107.0 L 167.0 108.0 " stroke="black" fill="none" stroke-width="5.0" stroke-linecap="round" stroke-linejoin="round" />
<path d="M 146.0 118.0 L 145.0 118.0 L 145.0 118.0 L 145.0 118.0 L 151.0 117.0 L 160.0 115.0 L 171.0 113.0 L 178.0 113.0 L 180.0 113.0 " stroke="black" fill="none" stroke-width="5.0" stroke-linecap="round" stroke-linejoin="round" />
<path d="M 154.0 120.0 L 154.0 120.0 L 154.0 122.0 L 154.0 124.0 L 155.0 126.0 " stroke="black" fill="none" stroke-width="5.0" stroke-linecap="round" stroke-linejoin="round" />
<path d="M 169.0 118.0 L 169.0 120.0 L 169.0 122.0 L 168.0 125.0 L 167.0 129.0 L 167.0 131.0 " stroke="black" fill="none" stroke-width="5.0" stroke-linecap="round" stroke-linejoin="round" />
<path d="M 143.0 136.0 L 142.0 136.0 L 141.0 136.0 L 141.0 136.0 L 143.0 135.0 L 149.0 135.0 L 159.0 133.0 L 172.0 132.0 L 182.0 130.0 L 187.0 130.0 L 189.0 130.0 L 189.0 130.0 L 189.0 131.0 L 190.0 136.0 L 191.0 142.0 L 191.0 148.0 L 191.0 150.0 " stroke="black" fill="none" stroke-width="5.0" stroke-linecap="round" stroke-linejoin="round" />
<path d="M 143.0 137.0 L 143.0 137.0 L 143.0 137.0 L 143.0 139.0 L 143.0 143.0 L 143.0 149.0 " stroke="black" fill="none" stroke-width="5.0" stroke-linecap="round" stroke-linejoin="round" />
<path d="M 163.0 141.0 L 163.0 141.0 L 163.0 141.0 L 163.0 141.0 L 163.0 143.0 L 165.0 146.0 " stroke="black" fill="none" stroke-width="5.0" stroke-linecap="round" stroke-linejoin="round" />
<path d="M 152.0 152.0 L 152.0 152.0 L 153.0 152.0 L 156.0 152.0 L 165.0 152.0 L 176.0 152.0 L 183.0 151.0 " stroke="black" fill="none" stroke-width="5.0" stroke-linecap="round" stroke-linejoin="round" />
<path d="M 162.0 157.0 L 162.0 157.0 L 162.0 157.0 L 161.0 157.0 L 161.0 158.0 L 160.0 162.0 L 159.0 172.0 L 158.0 183.0 L 157.0 189.0 " stroke="black" fill="none" stroke-width="5.0" stroke-linecap="round" stroke-linejoin="round" />
<path d="M 163.0 165.0 L 163.0 165.0 L 163.0 165.0 L 163.0 165.0 L 163.0 165.0 L 163.0 165.0 L 165.0 165.0 L 168.0 165.0 L 174.0 165.0 L 179.0 165.0 L 182.0 165.0 L 184.0 165.0 L 185.0 165.0 L 186.0 165.0 L 186.0 165.0 L 186.0 165.0 L 186.0 165.0 L 186.0 168.0 L 187.0 172.0 L 189.0 177.0 L 190.0 184.0 L 191.0 189.0 L 192.0 191.0 L 192.0 191.0 L 188.0 190.0 L 182.0 189.0 " stroke="black" fill="none" stroke-width="5.0" stroke-linecap="round" stroke-linejoin="round" />
</svg>