<svg xmlns="http://www.w3.org/2000/svg" width="300" height="300" viewBox="0 0 300 300">
<path d="M 134.0 115.0 L 134.0 115.0 L 135.0 115.0 L 135.0 115.0 L 135.0 118.0 L 132.0 126.0 L 125.0 140.0 L 114.0 157.0 L 104.0 169.0 L 101.0 172.0 " stroke="black" fill="none" stroke-width="5.0" stroke-linecap="round" stroke-linejoin="round" />
<path d="M 124.0 145.0 L 124.0 145.0 L 125.0 144.0 L 125.0 144.0 L 126.0 147.0 L 127.0 155.0 L 128.0 168.0 L 130.0 179.0 L 131.0 183.0 " stroke="black" fill="none" stroke-width="5.0" stroke-linecap="round" stroke-linejoin="round" />
<path d="M 151.0 114.0 L 151.0 114.0 L 151.0 114.0 L 151.0 114.0 L 151.0 114.0 L 150.0 118.0 L 145.0 127.0 L 139.0 138.0 L 138.0 140.0 " stroke="black" fill="none" stroke-width="5.0" stroke-linecap="round" stroke-linejoin="round" />
<path d="M 148.0 125.0 L 149.0 125.0 L 150.0 124.0 L 153.0 124.0 L 158.0 123.0 L 164.0 122.0 L 169.0 122.0 L 171.0 121.0 " stroke="black" fill="none" stroke-width="5.0" stroke-linecap="round" stroke-linejoin="round" />
<path d="M 148.0 138.0 L 148.0 138.0 L 148.0 138.0 L 148.0 138.0 L 148.0 138.0 L 148.0 142.0 L 149.0 146.0 L 149.0 149.0 " stroke="black" fill="none" stroke-width="5.0" stroke-linecap="round" stroke-linejoin="round" />
<path d="M 149.0 137.0 L 149.0 136.0 L 150.0 135.0 L 151.0 134.0 L 154.0 133.0 L 159.0 133.0 L 164.0 133.0 L 168.0 134.0 L 170.0 136.0 L 172.0 140.0 L 173.0 144.0 L 173.0 146.0 L 173.0 147.0 " stroke="black" fill="none" stroke-width="5.0" stroke-linecap="round" stroke-linejoin="round" />
<path d="M 152.0 145.0 L 153.0 145.0 L 154.0 145.0 L 156.0 145.0 L 160.0 145.0 L 166.0 144.0 L 170.0 143.0 L 172.0 143.0 " stroke="black" fill="none" stroke-width="5.0" stroke-linecap="round" stroke-linejoin="round" />
<path d="M 150.0 153.0 L 151.0 153.0 L 152.0 153.0 L 155.0 153.0 L 161.0 152.0 L 168.0 151.0 L 170.0 151.0 " stroke="black" fill="none" stroke-width="5.0" stroke-linecap="round" stroke-linejoin="round" />
<path d="M 140.0 165.0 L 140.0 165.0 L 140.0 165.0 L 142.0 165.0 L 146.0 165.0 L 157.0 163.0 L 171.0 160.0 L 181.0 158.0 L 185.0 158.0 " stroke="black" fill="none" stroke-width="5.0" stroke-linecap="round" stroke-linejoin="round" />
<path d="M 154.0 167.0 L 154.0 167.0 L 153.0 167.0 L 152.0 169.0 L 151.0 172.0 L 149.0 177.0 L 147.0 183.0 " stroke="black" fill="none" stroke-width="5.0" stroke-linecap="round" stroke-linejoin="round" />
<path d="M 154.0 173.0 L 154.0 173.0 L 155.0 173.0 L 156.0 173.0 L 160.0 172.0 L 168.0 170.0 L 177.0 169.0 L 182.0 168.0 L 185.0 169.0 L 187.0 174.0 L 187.0 180.0 L 189.0 187.0 L 190.0 193.0 L 190.0 198.0 L 190.0 200.0 L 187.0 200.0 L 182.0 200.0 L 179.0 199.0 " stroke="black" fill="none" stroke-width="5.0" stroke-linecap="round" stroke-linejoin="round" />
<path d="M 161.0 172.0 L 162.0 173.0 L 162.0 175.0 L 162.0 179.0 L 160.0 185.0 L 156.0 194.0 L 152.0 202.0 " stroke="black" fill="none" stroke-width="5.0" stroke-linecap="round" stroke-linejoin="round" />
<path d="M 177.0 169.0 L 177.0 170.0 L 177.0 170.0 L 177.0 174.0 L 177.0 185.0 L 169.0 204.0 " stroke="black" fill="none" stroke-width="5.0" stroke-linecap="round" stroke-linejoin="round" />
</svg>