<svg xmlns="http://www.w3.org/2000/svg" width="300" height="300" viewBox="0 0 300 300">
<path d="M 128.0 114.0 L 128.0 114.0 L 129.0 114.0 L 129.0 114.0 L 130.0 114.0 L 130.0 117.0 L 128.0 125.0 L 122.0 140.0 L 112.0 159.0 L 102.0 173.0 L 101.0 175.0 " stroke="black" fill="none" stroke-width="5.0" stroke-linecap="round" stroke-linejoin="round" />
<path d="M 121.0 145.0 L 121.0 145.0 L 121.0 145.0 L 121.0 144.0 L 122.0 144.0 L 122.0 146.0 L 122.0 153.0 L 122.0 167.0 L 122.0 185.0 L 121.0 198.0 L 121.0 202.0 " stroke="black" fill="none" stroke-width="5.0" stroke-linecap="round" stroke-linejoin="round" />
<path d="M 140.0 139.0 L 139.0 139.0 L 139.0 138.0 L 139.0 138.0 L 138.0 141.0 L 138.0 148.0 L 137.0 157.0 L 137.0 165.0 L 139.0 169.0 L 141.0 171.0 L 146.0 170.0 L 150.0 166.0 L 151.0 165.0 " stroke="black" fill="none" stroke-width="5.0" stroke-linecap="round" stroke-linejoin="round" />
<path d="M 138.0 152.0 L 138.0 152.0 L 138.0 152.0 L 139.0 152.0 L 141.0 152.0 L 144.0 152.0 L 147.0 151.0 " stroke="black" fill="none" stroke-width="5.0" stroke-linecap="round" stroke-linejoin="round" />
<path d="M 156.0 117.0 L 156.0 117.0 L 156.0 117.0 L 156.0 117.0 L 157.0 117.0 L 163.0 116.0 L 170.0 114.0 L 176.0 113.0 L 179.0 113.0 " stroke="black" fill="none" stroke-width="5.0" stroke-linecap="round" stroke-linejoin="round" />
<path d="M 169.0 119.0 L 168.0 120.0 L 166.0 121.0 L 164.0 123.0 L 162.0 126.0 L 160.0 129.0 L 159.0 132.0 L 159.0 134.0 L 160.0 135.0 L 165.0 135.0 L 171.0 135.0 L 177.0 135.0 L 181.0 135.0 L 184.0 134.0 L 185.0 134.0 L 186.0 138.0 L 187.0 144.0 L 189.0 153.0 L 190.0 162.0 L 191.0 169.0 L 192.0 172.0 L 192.0 172.0 " stroke="black" fill="none" stroke-width="5.0" stroke-linecap="round" stroke-linejoin="round" />
<path d="M 158.0 137.0 L 158.0 137.0 L 157.0 140.0 L 156.0 145.0 L 156.0 156.0 L 156.0 167.0 L 156.0 174.0 L 156.0 176.0 " stroke="black" fill="none" stroke-width="5.0" stroke-linecap="round" stroke-linejoin="round" />
<path d="M 162.0 151.0 L 162.0 151.0 L 162.0 151.0 L 165.0 150.0 L 171.0 150.0 L 178.0 149.0 L 183.0 149.0 L 185.0 149.0 " stroke="black" fill="none" stroke-width="5.0" stroke-linecap="round" stroke-linejoin="round" />
<path d="M 160.0 161.0 L 161.0 162.0 L 163.0 163.0 L 166.0 163.0 L 173.0 163.0 L 180.0 162.0 L 185.0 160.0 L 186.0 160.0 " stroke="black" fill="none" stroke-width="5.0" stroke-linecap="round" stroke-linejoin="round" />
<path d="M 158.0 177.0 L 158.0 177.0 L 160.0 178.0 L 163.0 178.0 L 170.0 178.0 L 180.0 176.0 L 187.0 175.0 L 189.0 175.0 " stroke="black" fill="none" stroke-width="5.0" stroke-linecap="round" stroke-linejoin="round" />
<path d="M 173.0 181.0 L 173.0 181.0 L 173.0 181.0 L 173.0 181.0 L 173.0 184.0 L 171.0 191.0 L 168.0 198.0 L 167.0 200.0 " stroke="black" fill="none" stroke-width="5.0" stroke-linecap="round" stroke-linejoin="round" />
<path d="M 182.0 183.0 L 182.0 183.0 L 183.0 183.0 L 186.0 184.0 L 191.0 190.0 L 195.0 197.0 " stroke="black" fill="none" stroke-width="5.0" stroke-linecap="round" stroke-linejoin="round" />
</svg>