<svg xmlns="http://www.w3.org/2000/svg" width="300" height="300" viewBox="0 0 300 300">
<path d="M 138.0 108.0 L 138.0 108.0 L 138.0 109.0 L 138.0 110.0 L 136.0 113.0 L 132.0 123.0 L 122.0 145.0 L 109.0 169.0 L 100.0 183.0 " stroke="black" fill="none" stroke-width="5.0" stroke-linecap="round" stroke-linejoin="round" />
<path d="M 121.0 151.0 L 121.0 151.0 L 121.0 151.0 L 121.0 150.0 L 121.0 150.0 L 121.0 158.0 L 122.0 182.0 L 122.0 211.0 " stroke="black" fill="none" stroke-width="5.0" stroke-linecap="round" stroke-linejoin="round" />
<path d="M 161.0 106.0 L 161.0 106.0 L 161.0 108.0 L 161.0 111.0 L 161.0 114.0 " stroke="black" fill="none" stroke-width="5.0" stroke-linecap="round" stroke-linejoin="round" />
<path d="M 175.0 104.0 L 175.0 103.0 L 175.0 103.0 L 175.0 103.0 L 175.0 105.0 L 174.0 111.0 L 171.0 118.0 L 170.0 120.0 " stroke="black" fill="none" stroke-width="5.0" stroke-linecap="round" stroke-linejoin="round" />
<path d="M 152.0 123.0 L 152.0 124.0 L 152.0 125.0 L 153.0 126.0 L 160.0 126.0 L 173.0 123.0 L 184.0 121.0 L 185.0 120.0 " stroke="black" fill="none" stroke-width="5.0" stroke-linecap="round" stroke-linejoin="round" />
<path d="M 154.0 138.0 L 154.0 138.0 L 154.0 138.0 L 156.0 138.0 L 161.0 138.0 L 171.0 137.0 L 180.0 136.0 L 184.0 136.0 " stroke="black" fill="none" stroke-width="5.0" stroke-linecap="round" stroke-linejoin="round" />
<path d="M 146.0 153.0 L 147.0 153.0 L 150.0 154.0 L 157.0 154.0 L 169.0 152.0 L 183.0 151.0 L 192.0 151.0 " stroke="black" fill="none" stroke-width="5.0" stroke-linecap="round" stroke-linejoin="round" />
<path d="M 169.0 125.0 L 169.0 126.0 L 170.0 128.0 L 170.0 130.0 L 170.0 136.0 L 170.0 143.0 L 170.0 149.0 " stroke="black" fill="none" stroke-width="5.0" stroke-linecap="round" stroke-linejoin="round" />
<path d="M 161.0 156.0 L 161.0 156.0 L 162.0 156.0 L 162.0 156.0 L 162.0 158.0 L 160.0 163.0 L 154.0 173.0 L 145.0 183.0 " stroke="black" fill="none" stroke-width="5.0" stroke-linecap="round" stroke-linejoin="round" />
<path d="M 157.0 172.0 L 158.0 172.0 L 158.0 171.0 L 159.0 171.0 L 160.0 172.0 L 161.0 177.0 L 163.0 187.0 L 165.0 198.0 L 166.0 207.0 L 166.0 212.0 L 164.0 214.0 L 161.0 214.0 L 157.0 212.0 L 153.0 208.0 " stroke="black" fill="none" stroke-width="5.0" stroke-linecap="round" stroke-linejoin="round" />
<path d="M 142.0 191.0 L 143.0 191.0 L 145.0 191.0 L 150.0 190.0 L 160.0 188.0 L 174.0 186.0 L 189.0 184.0 L 197.0 181.0 " stroke="black" fill="none" stroke-width="5.0" stroke-linecap="round" stroke-linejoin="round" />
<path d="M 176.0 158.0 L 175.0 158.0 L 174.0 159.0 L 175.0 168.0 L 181.0 187.0 L 187.0 206.0 L 191.0 218.0 L 192.0 221.0 " stroke="black" fill="none" stroke-width="5.0" stroke-linecap="round" stroke-linejoin="round" />
<path d="M 196.0 197.0 L 195.0 197.0 L 195.0 197.0 L 194.0 197.0 L 192.0 197.0 L 188.0 200.0 L 179.0 206.0 L 176.0 207.0 " stroke="black" fill="none" stroke-width="5.0" stroke-linecap="round" stroke-linejoin="round" />
<path d="M 148.0 205.0 L 148.0 205.0 L 148.0 205.0 L 148.0 205.0 L 149.0 205.0 L 152.0 204.0 L 163.0 202.0 L 170.0 201.0 " stroke="black" fill="none" stroke-width="5.0" stroke-linecap="round" stroke-linejoin="round" />
<path d="M 192.0 163.0 L 193.0 167.0 L 195.0 173.0 L 198.0 180.0 " stroke="black" fill="none" stroke-width="5.0" stroke-linecap="round" stroke-linejoin="round" />
</svg>