<svg xmlns="http://www.w3.org/2000/svg" width="300" height="300" viewBox="0 0 300 300">
<path d="M 159.0 115.0 L 159.0 115.0 L 160.0 115.0 L 160.0 115.0 L 160.0 116.0 L 159.0 118.0 L 156.0 122.0 L 151.0 126.0 L 145.0 129.0 L 141.0 132.0 L 138.0 133.0 L 137.0 133.0 L 137.0 133.0 L 137.0 136.0 L 137.0 140.0 L 138.0 147.0 L 138.0 157.0 L 139.0 167.0 L 139.0 175.0 L 140.0 179.0 L 141.0 179.0 L 141.0 179.0 " stroke="black" fill="none" stroke-width="5.0" stroke-linecap="round" stroke-linejoin="round" />
<path d="M 139.0 146.0 L 139.0 146.0 L 139.0 145.0 L 140.0 145.0 L 144.0 144.0 L 152.0 143.0 L 165.0 141.0 L 175.0 140.0 L 178.0 141.0 L 178.0 142.0 " stroke="black" fill="none" stroke-width="5.0" stroke-linecap="round" stroke-linejoin="round" />
<path d="M 165.0 144.0 L 165.0 144.0 L 165.0 145.0 L 165.0 147.0 L 165.0 153.0 L 165.0 163.0 L 165.0 173.0 L 165.0 175.0 " stroke="black" fill="none" stroke-width="5.0" stroke-linecap="round" stroke-linejoin="round" />
<path d="M 118.0 185.0 L 118.0 185.0 L 117.0 186.0 L 117.0 186.0 L 126.0 186.0 L 144.0 185.0 L 165.0 183.0 L 180.0 182.0 L 186.0 182.0 " stroke="black" fill="none" stroke-width="5.0" stroke-linecap="round" stroke-linejoin="round" />
<path d="M 145.0 196.0 L 145.0 196.0 L 145.0 196.0 L 144.0 198.0 L 142.0 201.0 L 140.0 207.0 L 139.0 210.0 " stroke="black" fill="none" stroke-width="5.0" stroke-linecap="round" stroke-linejoin="round" />
<path d="M 172.0 196.0 L 172.0 197.0 L 173.0 199.0 L 174.0 203.0 L 177.0 209.0 L 180.0 215.0 " stroke="black" fill="none" stroke-width="5.0" stroke-linecap="round" stroke-linejoin="round" />
</svg>