<svg xmlns="http://www.w3.org/2000/svg" width="300" height="300" viewBox="0 0 300 300">
<path d="M 123.0 118.0 L 123.0 118.0 L 123.0 118.0 L 123.0 120.0 L 122.0 123.0 L 123.0 128.0 L 124.0 131.0 " stroke="black" fill="none" stroke-width="5.0" stroke-linecap="round" stroke-linejoin="round" />
<path d="M 126.0 117.0 L 126.0 117.0 L 126.0 117.0 L 130.0 117.0 L 139.0 115.0 L 150.0 113.0 L 163.0 112.0 L 174.0 112.0 L 183.0 112.0 L 188.0 114.0 L 190.0 116.0 L 190.0 120.0 L 190.0 125.0 L 188.0 129.0 L 188.0 130.0 " stroke="black" fill="none" stroke-width="5.0" stroke-linecap="round" stroke-linejoin="round" />
<path d="M 141.0 132.0 L 141.0 132.0 L 141.0 132.0 L 141.0 132.0 L 141.0 132.0 L 141.0 134.0 L 141.0 139.0 L 141.0 147.0 L 142.0 153.0 L 142.0 154.0 " stroke="black" fill="none" stroke-width="5.0" stroke-linecap="round" stroke-linejoin="round" />
<path d="M 144.0 131.0 L 143.0 131.0 L 143.0 131.0 L 143.0 131.0 L 145.0 130.0 L 149.0 129.0 L 155.0 128.0 L 162.0 128.0 L 168.0 129.0 L 171.0 131.0 L 173.0 136.0 L 173.0 142.0 L 173.0 147.0 L 174.0 151.0 L 174.0 152.0 " stroke="black" fill="none" stroke-width="5.0" stroke-linecap="round" stroke-linejoin="round" />
<path d="M 146.0 144.0 L 146.0 144.0 L 146.0 144.0 L 148.0 145.0 L 153.0 145.0 L 162.0 144.0 L 168.0 144.0 L 169.0 144.0 " stroke="black" fill="none" stroke-width="5.0" stroke-linecap="round" stroke-linejoin="round" />
<path d="M 146.0 159.0 L 147.0 159.0 L 148.0 160.0 L 152.0 160.0 L 157.0 160.0 L 164.0 159.0 L 166.0 159.0 " stroke="black" fill="none" stroke-width="5.0" stroke-linecap="round" stroke-linejoin="round" />
<path d="M 157.0 164.0 L 158.0 164.0 L 158.0 164.0 L 158.0 165.0 L 159.0 167.0 L 160.0 172.0 L 160.0 173.0 " stroke="black" fill="none" stroke-width="5.0" stroke-linecap="round" stroke-linejoin="round" />
<path d="M 127.0 182.0 L 127.0 182.0 L 128.0 182.0 L 128.0 182.0 L 129.0 182.0 L 135.0 182.0 L 148.0 181.0 L 167.0 179.0 L 183.0 178.0 L 191.0 178.0 L 192.0 179.0 L 192.0 179.0 " stroke="black" fill="none" stroke-width="5.0" stroke-linecap="round" stroke-linejoin="round" />
<path d="M 148.0 191.0 L 148.0 191.0 L 148.0 191.0 L 148.0 191.0 L 148.0 191.0 L 146.0 196.0 L 143.0 203.0 L 142.0 204.0 " stroke="black" fill="none" stroke-width="5.0" stroke-linecap="round" stroke-linejoin="round" />
<path d="M 169.0 190.0 L 170.0 190.0 L 171.0 192.0 L 174.0 195.0 L 178.0 200.0 L 181.0 203.0 " stroke="black" fill="none" stroke-width="5.0" stroke-linecap="round" stroke-linejoin="round" />
</svg>