<svg xmlns="http://www.w3.org/2000/svg" width="300" height="300" viewBox="0 0 300 300">
<path d="M 126.0 106.0 L 126.0 106.0 L 127.0 106.0 L 128.0 106.0 L 128.0 106.0 L 128.0 108.0 L 128.0 111.0 L 121.0 125.0 L 116.0 134.0 L 110.0 144.0 L 100.0 160.0 L 95.0 167.0 L 94.0 168.0 " stroke="black" fill="none" stroke-width="5.0" stroke-linecap="round" stroke-linejoin="round" />
<path d="M 114.0 143.0 L 115.0 143.0 L 115.0 143.0 L 115.0 143.0 L 115.0 144.0 L 115.0 150.0 L 115.0 167.0 L 115.0 182.0 L 115.0 189.0 L 115.0 194.0 L 115.0 194.0 " stroke="black" fill="none" stroke-width="5.0" stroke-linecap="round" stroke-linejoin="round" />
<path d="M 139.0 119.0 L 139.0 119.0 L 139.0 118.0 L 139.0 118.0 L 139.0 120.0 L 139.0 126.0 L 139.0 129.0 L 139.0 132.0 L 139.0 134.0 " stroke="black" fill="none" stroke-width="5.0" stroke-linecap="round" stroke-linejoin="round" />
<path d="M 144.0 117.0 L 144.0 117.0 L 144.0 117.0 L 145.0 117.0 L 145.0 117.0 L 146.0 117.0 L 147.0 117.0 L 148.0 117.0 L 150.0 117.0 L 151.0 117.0 L 153.0 117.0 L 154.0 118.0 L 155.0 119.0 L 157.0 126.0 L 157.0 128.0 L 157.0 133.0 L 157.0 135.0 " stroke="black" fill="none" stroke-width="5.0" stroke-linecap="round" stroke-linejoin="round" />
<path d="M 143.0 137.0 L 143.0 137.0 L 144.0 137.0 L 146.0 137.0 L 148.0 137.0 L 152.0 137.0 L 154.0 137.0 " stroke="black" fill="none" stroke-width="5.0" stroke-linecap="round" stroke-linejoin="round" />
<path d="M 163.0 119.0 L 163.0 120.0 L 163.0 120.0 L 163.0 120.0 L 164.0 121.0 L 164.0 123.0 L 165.0 127.0 L 165.0 132.0 L 166.0 134.0 L 166.0 135.0 " stroke="black" fill="none" stroke-width="5.0" stroke-linecap="round" stroke-linejoin="round" />
<path d="M 165.0 117.0 L 165.0 117.0 L 167.0 117.0 L 167.0 117.0 L 169.0 117.0 L 171.0 117.0 L 173.0 117.0 L 175.0 117.0 L 178.0 117.0 L 180.0 119.0 L 181.0 122.0 L 183.0 129.0 L 183.0 132.0 L 183.0 135.0 L 183.0 135.0 " stroke="black" fill="none" stroke-width="5.0" stroke-linecap="round" stroke-linejoin="round" />
<path d="M 165.0 135.0 L 165.0 136.0 L 166.0 136.0 L 167.0 136.0 L 168.0 136.0 L 170.0 137.0 L 176.0 136.0 L 181.0 135.0 L 183.0 135.0 " stroke="black" fill="none" stroke-width="5.0" stroke-linecap="round" stroke-linejoin="round" />
<path d="M 140.0 148.0 L 140.0 148.0 L 140.0 148.0 L 140.0 148.0 L 141.0 148.0 L 143.0 148.0 L 148.0 148.0 L 154.0 148.0 L 164.0 147.0 L 175.0 147.0 L 182.0 147.0 L 185.0 147.0 L 186.0 147.0 L 185.0 147.0 " stroke="black" fill="none" stroke-width="5.0" stroke-linecap="round" stroke-linejoin="round" />
<path d="M 140.0 149.0 L 140.0 149.0 L 140.0 150.0 L 139.0 151.0 L 138.0 156.0 L 137.0 164.0 L 134.0 178.0 L 130.0 191.0 L 129.0 192.0 L 127.0 196.0 L 127.0 196.0 " stroke="black" fill="none" stroke-width="5.0" stroke-linecap="round" stroke-linejoin="round" />
<path d="M 147.0 156.0 L 147.0 156.0 L 148.0 156.0 L 148.0 156.0 L 149.0 156.0 L 150.0 156.0 L 152.0 156.0 L 156.0 156.0 L 160.0 156.0 L 161.0 156.0 " stroke="black" fill="none" stroke-width="5.0" stroke-linecap="round" stroke-linejoin="round" />
<path d="M 153.0 159.0 L 154.0 159.0 L 154.0 159.0 L 155.0 160.0 L 155.0 162.0 L 155.0 165.0 L 155.0 167.0 " stroke="black" fill="none" stroke-width="5.0" stroke-linecap="round" stroke-linejoin="round" />
<path d="M 144.0 167.0 L 144.0 167.0 L 144.0 167.0 L 144.0 167.0 L 146.0 167.0 L 150.0 167.0 L 155.0 167.0 L 161.0 167.0 L 165.0 167.0 L 166.0 167.0 " stroke="black" fill="none" stroke-width="5.0" stroke-linecap="round" stroke-linejoin="round" />
<path d="M 156.0 167.0 L 157.0 167.0 L 158.0 168.0 L 158.0 169.0 L 158.0 171.0 L 159.0 174.0 L 160.0 179.0 L 161.0 190.0 L 163.0 195.0 L 163.0 197.0 L 163.0 197.0 " stroke="black" fill="none" stroke-width="5.0" stroke-linecap="round" stroke-linejoin="round" />
<path d="M 148.0 171.0 L 148.0 171.0 L 147.0 172.0 L 147.0 173.0 L 146.0 175.0 L 146.0 181.0 L 146.0 184.0 L 146.0 186.0 " stroke="black" fill="none" stroke-width="5.0" stroke-linecap="round" stroke-linejoin="round" />
<path d="M 147.0 177.0 L 148.0 178.0 L 148.0 178.0 L 150.0 178.0 L 152.0 178.0 L 153.0 178.0 L 156.0 178.0 L 157.0 178.0 " stroke="black" fill="none" stroke-width="5.0" stroke-linecap="round" stroke-linejoin="round" />
<path d="M 147.0 183.0 L 147.0 183.0 L 149.0 183.0 L 151.0 183.0 L 153.0 183.0 L 154.0 183.0 " stroke="black" fill="none" stroke-width="5.0" stroke-linecap="round" stroke-linejoin="round" />
<path d="M 138.0 192.0 L 139.0 192.0 L 141.0 192.0 L 143.0 192.0 L 148.0 192.0 L 154.0 191.0 L 156.0 190.0 " stroke="black" fill="none" stroke-width="5.0" stroke-linecap="round" stroke-linejoin="round" />
<path d="M 173.0 153.0 L 174.0 153.0 L 175.0 153.0 L 175.0 152.0 L 175.0 152.0 L 175.0 154.0 L 175.0 160.0 L 172.0 168.0 L 168.0 175.0 L 166.0 178.0 " stroke="black" fill="none" stroke-width="5.0" stroke-linecap="round" stroke-linejoin="round" />
<path d="M 172.0 164.0 L 173.0 164.0 L 174.0 165.0 L 175.0 165.0 L 178.0 165.0 L 182.0 164.0 L 186.0 163.0 L 189.0 163.0 L 190.0 163.0 " stroke="black" fill="none" stroke-width="5.0" stroke-linecap="round" stroke-linejoin="round" />
<path d="M 184.0 166.0 L 184.0 167.0 L 183.0 168.0 L 183.0 169.0 L 182.0 171.0 L 182.0 176.0 L 180.0 184.0 L 176.0 192.0 L 173.0 196.0 " stroke="black" fill="none" stroke-width="5.0" stroke-linecap="round" stroke-linejoin="round" />
<path d="M 169.0 174.0 L 170.0 174.0 L 171.0 174.0 L 174.0 175.0 L 179.0 179.0 L 185.0 187.0 L 192.0 197.0 L 196.0 202.0 L 198.0 203.0 L 198.0 203.0 L 198.0 202.0 " stroke="black" fill="none" stroke-width="5.0" stroke-linecap="round" stroke-linejoin="round" />
</svg>