<svg xmlns="http://www.w3.org/2000/svg" width="300" height="300" viewBox="0 0 300 300">
<path d="M 110.0 125.0 L 110.0 125.0 L 110.0 125.0 L 110.0 125.0 L 114.0 125.0 L 123.0 125.0 L 131.0 124.0 L 135.0 124.0 " stroke="black" fill="none" stroke-width="5.0" stroke-linecap="round" stroke-linejoin="round" />
<path d="M 127.0 112.0 L 127.0 112.0 L 126.0 112.0 L 126.0 112.0 L 125.0 113.0 L 124.0 118.0 L 121.0 127.0 L 118.0 135.0 " stroke="black" fill="none" stroke-width="5.0" stroke-linecap="round" stroke-linejoin="round" />
<path d="M 106.0 145.0 L 106.0 145.0 L 106.0 145.0 L 106.0 145.0 L 106.0 147.0 L 106.0 150.0 L 106.0 157.0 L 107.0 161.0 L 107.0 161.0 " stroke="black" fill="none" stroke-width="5.0" stroke-linecap="round" stroke-linejoin="round" />
<path d="M 108.0 144.0 L 108.0 144.0 L 108.0 144.0 L 108.0 144.0 L 109.0 144.0 L 113.0 143.0 L 121.0 141.0 L 130.0 140.0 L 136.0 139.0 L 139.0 141.0 L 140.0 147.0 L 140.0 155.0 L 140.0 161.0 L 140.0 164.0 " stroke="black" fill="none" stroke-width="5.0" stroke-linecap="round" stroke-linejoin="round" />
<path d="M 107.0 164.0 L 107.0 164.0 L 107.0 164.0 L 108.0 165.0 L 114.0 165.0 L 125.0 165.0 L 136.0 163.0 L 139.0 162.0 " stroke="black" fill="none" stroke-width="5.0" stroke-linecap="round" stroke-linejoin="round" />
<path d="M 115.0 166.0 L 115.0 166.0 L 115.0 166.0 L 115.0 166.0 L 115.0 167.0 L 114.0 172.0 L 113.0 182.0 L 110.0 193.0 L 108.0 198.0 " stroke="black" fill="none" stroke-width="5.0" stroke-linecap="round" stroke-linejoin="round" />
<path d="M 126.0 167.0 L 126.0 167.0 L 126.0 167.0 L 125.0 167.0 L 125.0 169.0 L 126.0 173.0 L 127.0 181.0 L 129.0 188.0 L 132.0 195.0 L 138.0 198.0 L 145.0 199.0 L 153.0 200.0 L 161.0 200.0 L 170.0 200.0 L 178.0 199.0 L 184.0 197.0 L 187.0 195.0 L 188.0 194.0 L 188.0 193.0 L 189.0 189.0 L 189.0 181.0 L 189.0 176.0 " stroke="black" fill="none" stroke-width="5.0" stroke-linecap="round" stroke-linejoin="round" />
<path d="M 158.0 117.0 L 158.0 117.0 L 158.0 117.0 L 158.0 117.0 L 158.0 117.0 L 157.0 117.0 L 156.0 120.0 L 152.0 126.0 L 149.0 132.0 " stroke="black" fill="none" stroke-width="5.0" stroke-linecap="round" stroke-linejoin="round" />
<path d="M 169.0 117.0 L 169.0 117.0 L 170.0 119.0 L 171.0 120.0 L 174.0 122.0 L 178.0 125.0 L 181.0 128.0 L 181.0 128.0 " stroke="black" fill="none" stroke-width="5.0" stroke-linecap="round" stroke-linejoin="round" />
<path d="M 154.0 144.0 L 154.0 144.0 L 154.0 144.0 L 154.0 144.0 L 157.0 144.0 L 162.0 143.0 L 167.0 142.0 L 170.0 142.0 L 173.0 143.0 L 175.0 146.0 L 177.0 153.0 L 178.0 163.0 L 179.0 173.0 L 180.0 180.0 L 180.0 183.0 L 177.0 183.0 L 172.0 182.0 L 166.0 177.0 L 165.0 176.0 " stroke="black" fill="none" stroke-width="5.0" stroke-linecap="round" stroke-linejoin="round" />
<path d="M 162.0 146.0 L 162.0 146.0 L 162.0 146.0 L 162.0 146.0 L 161.0 150.0 L 159.0 161.0 L 155.0 175.0 " stroke="black" fill="none" stroke-width="5.0" stroke-linecap="round" stroke-linejoin="round" />
</svg>