<svg xmlns="http://www.w3.org/2000/svg" width="300" height="300" viewBox="0 0 300 300">
<path d="M 131.0 116.0 L 131.0 116.0 L 131.0 116.0 L 131.0 116.0 L 131.0 116.0 L 131.0 117.0 L 129.0 120.0 L 124.0 131.0 L 115.0 144.0 L 111.0 151.0 L 111.0 151.0 " stroke="black" fill="none" stroke-width="5.0" stroke-linecap="round" stroke-linejoin="round" />
<path d="M 150.0 111.0 L 150.0 111.0 L 150.0 111.0 L 150.0 111.0 L 150.0 111.0 L 150.0 111.0 L 151.0 111.0 L 153.0 110.0 L 155.0 109.0 L 157.0 108.0 L 160.0 108.0 L 165.0 111.0 L 172.0 120.0 L 180.0 131.0 L 188.0 141.0 L 193.0 145.0 L 194.0 146.0 L 195.0 146.0 " stroke="black" fill="none" stroke-width="5.0" stroke-linecap="round" stroke-linejoin="round" />
<path d="M 133.0 145.0 L 133.0 145.0 L 133.0 145.0 L 136.0 145.0 L 144.0 144.0 L 154.0 143.0 L 162.0 142.0 L 167.0 142.0 L 169.0 142.0 L 169.0 142.0 L 169.0 142.0 " stroke="black" fill="none" stroke-width="5.0" stroke-linecap="round" stroke-linejoin="round" />
<path d="M 147.0 149.0 L 147.0 149.0 L 145.0 150.0 L 144.0 152.0 L 142.0 155.0 L 140.0 158.0 L 138.0 162.0 L 137.0 166.0 L 136.0 168.0 L 136.0 170.0 L 138.0 170.0 L 143.0 170.0 L 148.0 170.0 L 155.0 169.0 L 160.0 169.0 L 165.0 168.0 L 169.0 168.0 L 170.0 168.0 L 172.0 171.0 L 173.0 176.0 L 174.0 184.0 L 175.0 191.0 L 176.0 196.0 L 176.0 199.0 L 176.0 200.0 L 174.0 200.0 L 170.0 200.0 L 154.0 198.0 " stroke="black" fill="none" stroke-width="5.0" stroke-linecap="round" stroke-linejoin="round" />
</svg>