<svg xmlns="http://www.w3.org/2000/svg" width="300" height="300" viewBox="0 0 300 300">
<path d="M 146.42857142857144 107.14285714285715 L 146.42857142857144 107.14285714285715 L 146.42857142857144 107.14285714285715 L 145.71428571428572 107.14285714285715 L 145.00000000000006 109.28571428571432 L 143.5714285714286 115.00000000000001 L 140.71428571428572 124.28571428571432 L 138.5714285714286 128.5714285714286 " stroke="black" fill="none" stroke-width="5.0" stroke-linecap="round" stroke-linejoin="round" />
<path d="M 146.42857142857144 118.5714285714286 L 146.42857142857144 118.5714285714286 L 146.42857142857144 118.5714285714286 L 147.14285714285717 118.5714285714286 L 150.00000000000006 118.5714285714286 L 155.00000000000006 117.85714285714288 L 161.42857142857144 117.14285714285718 L 165.71428571428572 117.14285714285718 L 168.5714285714286 118.5714285714286 L 168.5714285714286 120.71428571428574 L 167.14285714285717 124.28571428571432 L 164.28571428571433 129.28571428571433 L 160.00000000000006 135.71428571428572 L 155.00000000000006 142.8571428571429 L 147.8571428571429 152.14285714285717 L 137.8571428571429 162.14285714285717 L 128.5714285714286 170.00000000000006 L 122.85714285714288 174.28571428571433 " stroke="black" fill="none" stroke-width="5.0" stroke-linecap="round" stroke-linejoin="round" />
<path d="M 146.42857142857144 131.42857142857144 L 146.42857142857144 131.42857142857144 L 146.42857142857144 132.8571428571429 L 149.28571428571433 135.00000000000006 L 155.71428571428572 140.00000000000006 L 167.14285714285717 146.42857142857144 L 177.14285714285717 151.42857142857144 L 182.14285714285717 153.5714285714286 " stroke="black" fill="none" stroke-width="5.0" stroke-linecap="round" stroke-linejoin="round" />
<path d="M 149.28571428571433 165.71428571428572 L 149.28571428571433 166.42857142857144 L 150.00000000000006 167.14285714285717 L 151.42857142857144 169.28571428571433 L 155.00000000000006 172.14285714285717 L 158.5714285714286 174.28571428571433 " stroke="black" fill="none" stroke-width="5.0" stroke-linecap="round" stroke-linejoin="round" />
<path d="M 145.71428571428572 182.8571428571429 L 146.42857142857144 183.5714285714286 L 148.5714285714286 184.28571428571433 L 153.5714285714286 187.14285714285717 L 158.5714285714286 188.5714285714286 " stroke="black" fill="none" stroke-width="5.0" stroke-linecap="round" stroke-linejoin="round" />
</svg>