<svg xmlns="http://www.w3.org/2000/svg" width="300" height="300" viewBox="0 0 300 300">
<path d="M 135.0 119.0 L 135.0 119.0 L 135.0 118.0 L 135.0 118.0 L 135.0 118.0 L 135.0 123.0 L 135.0 140.0 L 134.0 160.0 L 134.0 175.0 L 134.0 176.0 " stroke="black" fill="none" stroke-width="5.0" stroke-linecap="round" stroke-linejoin="round" />
<path d="M 139.0 121.0 L 139.0 121.0 L 139.0 121.0 L 139.0 121.0 L 139.0 121.0 L 139.0 121.0 L 142.0 121.0 L 146.0 121.0 L 151.0 121.0 L 156.0 121.0 L 160.0 121.0 L 163.0 125.0 L 165.0 134.0 L 167.0 149.0 L 169.0 164.0 L 171.0 173.0 L 172.0 177.0 L 172.0 178.0 " stroke="black" fill="none" stroke-width="5.0" stroke-linecap="round" stroke-linejoin="round" />
<path d="M 138.0 141.0 L 138.0 141.0 L 139.0 141.0 L 141.0 141.0 L 145.0 141.0 L 154.0 140.0 L 162.0 140.0 L 165.0 140.0 " stroke="black" fill="none" stroke-width="5.0" stroke-linecap="round" stroke-linejoin="round" />
<path d="M 139.0 155.0 L 139.0 156.0 L 140.0 156.0 L 142.0 156.0 L 148.0 156.0 L 156.0 156.0 L 162.0 156.0 L 164.0 156.0 " stroke="black" fill="none" stroke-width="5.0" stroke-linecap="round" stroke-linejoin="round" />
<path d="M 141.0 167.0 L 141.0 167.0 L 141.0 167.0 L 144.0 167.0 L 150.0 167.0 L 158.0 167.0 L 164.0 167.0 L 164.0 167.0 " stroke="black" fill="none" stroke-width="5.0" stroke-linecap="round" stroke-linejoin="round" />
<path d="M 113.0 185.0 L 113.0 185.0 L 115.0 185.0 L 122.0 185.0 L 138.0 184.0 L 155.0 183.0 L 168.0 183.0 L 178.0 184.0 L 181.0 185.0 " stroke="black" fill="none" stroke-width="5.0" stroke-linecap="round" stroke-linejoin="round" />
<path d="M 140.0 195.0 L 140.0 195.0 L 140.0 195.0 L 140.0 197.0 L 140.0 201.0 L 139.0 207.0 " stroke="black" fill="none" stroke-width="5.0" stroke-linecap="round" stroke-linejoin="round" />
<path d="M 167.0 195.0 L 167.0 195.0 L 170.0 197.0 L 174.0 202.0 L 179.0 210.0 L 180.0 214.0 " stroke="black" fill="none" stroke-width="5.0" stroke-linecap="round" stroke-linejoin="round" />
</svg>