<svg xmlns="http://www.w3.org/2000/svg" width="300" height="300" viewBox="0 0 300 300">
<path d="M 132.0 112.0 L 132.0 113.0 L 132.0 113.0 L 134.0 114.0 L 142.0 114.0 L 153.0 114.0 L 163.0 113.0 L 166.0 113.0 " stroke="black" fill="none" stroke-width="5.0" stroke-linecap="round" stroke-linejoin="round" />
<path d="M 132.0 136.0 L 132.0 136.0 L 132.0 135.0 L 131.0 134.0 L 131.0 133.0 L 131.0 136.0 L 130.0 148.0 L 129.0 168.0 L 127.0 190.0 L 127.0 202.0 L 128.0 202.0 " stroke="black" fill="none" stroke-width="5.0" stroke-linecap="round" stroke-linejoin="round" />
<path d="M 136.0 135.0 L 136.0 135.0 L 136.0 135.0 L 136.0 135.0 L 139.0 135.0 L 147.0 134.0 L 156.0 134.0 L 163.0 134.0 L 169.0 134.0 L 174.0 135.0 L 178.0 141.0 L 181.0 152.0 L 183.0 167.0 L 184.0 181.0 L 184.0 191.0 L 184.0 198.0 L 182.0 202.0 L 178.0 204.0 L 172.0 204.0 L 168.0 203.0 " stroke="black" fill="none" stroke-width="5.0" stroke-linecap="round" stroke-linejoin="round" />
<path d="M 116.0 161.0 L 117.0 161.0 L 118.0 162.0 L 124.0 162.0 L 137.0 162.0 L 156.0 162.0 L 174.0 162.0 L 186.0 163.0 L 190.0 164.0 " stroke="black" fill="none" stroke-width="5.0" stroke-linecap="round" stroke-linejoin="round" />
<path d="M 138.0 147.0 L 138.0 147.0 L 138.0 147.0 L 139.0 147.0 L 147.0 147.0 L 161.0 146.0 L 174.0 146.0 L 176.0 146.0 " stroke="black" fill="none" stroke-width="5.0" stroke-linecap="round" stroke-linejoin="round" />
<path d="M 151.0 120.0 L 151.0 121.0 L 151.0 124.0 L 152.0 131.0 L 153.0 141.0 L 155.0 151.0 L 155.0 155.0 " stroke="black" fill="none" stroke-width="5.0" stroke-linecap="round" stroke-linejoin="round" />
</svg>