<svg xmlns="http://www.w3.org/2000/svg" width="300" height="300" viewBox="0 0 300 300">
<path d="M 116.0 132.0 L 116.0 133.0 L 116.0 133.0 L 118.0 135.0 L 124.0 137.0 L 128.0 139.0 " stroke="black" fill="none" stroke-width="5.0" stroke-linecap="round" stroke-linejoin="round" />
<path d="M 104.0 174.0 L 105.0 174.0 L 106.0 174.0 L 111.0 172.0 L 124.0 166.0 " stroke="black" fill="none" stroke-width="5.0" stroke-linecap="round" stroke-linejoin="round" />
<path d="M 160.0 111.0 L 160.0 112.0 L 160.0 113.0 L 158.0 116.0 L 155.0 122.0 L 148.0 132.0 L 139.0 145.0 " stroke="black" fill="none" stroke-width="5.0" stroke-linecap="round" stroke-linejoin="round" />
<circle cx="133.0" cy="151.0" r="2.5" fill="black" />
<path d="M 161.0 114.0 L 161.0 114.0 L 161.0 114.0 L 161.0 114.0 L 164.0 117.0 L 172.0 122.0 L 183.0 131.0 L 191.0 139.0 " stroke="black" fill="none" stroke-width="5.0" stroke-linecap="round" stroke-linejoin="round" />
<path d="M 152.0 145.0 L 152.0 145.0 L 152.0 146.0 L 154.0 146.0 L 162.0 145.0 L 173.0 143.0 L 179.0 143.0 " stroke="black" fill="none" stroke-width="5.0" stroke-linecap="round" stroke-linejoin="round" />
<path d="M 147.0 164.0 L 147.0 164.0 L 147.0 165.0 L 148.0 165.0 L 152.0 164.0 L 160.0 163.0 L 167.0 162.0 L 173.0 161.0 L 176.0 161.0 L 177.0 161.0 L 176.0 164.0 L 173.0 170.0 L 170.0 176.0 L 166.0 184.0 L 162.0 191.0 L 162.0 192.0 " stroke="black" fill="none" stroke-width="5.0" stroke-linecap="round" stroke-linejoin="round" />
<path d="M 150.0 189.0 L 150.0 189.0 L 150.0 190.0 L 150.0 191.0 L 152.0 192.0 L 158.0 195.0 L 169.0 198.0 L 181.0 201.0 " stroke="black" fill="none" stroke-width="5.0" stroke-linecap="round" stroke-linejoin="round" />
</svg>