<svg xmlns="http://www.w3.org/2000/svg" width="300" height="300" viewBox="0 0 300 300">
<path d="M 112.0 120.0 L 112.0 120.0 L 112.0 120.0 L 112.0 120.0 L 114.0 120.0 L 119.0 120.0 L 128.0 120.0 L 136.0 119.0 L 140.0 118.0 " stroke="black" fill="none" stroke-width="5.0" stroke-linecap="round" stroke-linejoin="round" />
<path d="M 129.0 107.0 L 129.0 107.0 L 128.0 107.0 L 128.0 107.0 L 127.0 112.0 L 125.0 120.0 L 122.0 131.0 L 121.0 133.0 " stroke="black" fill="none" stroke-width="5.0" stroke-linecap="round" stroke-linejoin="round" />
<path d="M 109.0 140.0 L 109.0 140.0 L 109.0 141.0 L 108.0 144.0 L 108.0 149.0 L 109.0 155.0 L 110.0 158.0 L 110.0 159.0 " stroke="black" fill="none" stroke-width="5.0" stroke-linecap="round" stroke-linejoin="round" />
<path d="M 111.0 140.0 L 111.0 140.0 L 111.0 140.0 L 111.0 140.0 L 112.0 140.0 L 117.0 139.0 L 124.0 139.0 L 132.0 138.0 L 137.0 137.0 L 140.0 137.0 L 141.0 141.0 L 142.0 147.0 L 142.0 153.0 L 142.0 157.0 L 142.0 160.0 L 142.0 160.0 " stroke="black" fill="none" stroke-width="5.0" stroke-linecap="round" stroke-linejoin="round" />
<path d="M 111.0 161.0 L 111.0 161.0 L 111.0 161.0 L 113.0 162.0 L 118.0 162.0 L 127.0 161.0 L 135.0 160.0 " stroke="black" fill="none" stroke-width="5.0" stroke-linecap="round" stroke-linejoin="round" />
<path d="M 115.0 167.0 L 115.0 167.0 L 115.0 167.0 L 115.0 167.0 L 115.0 167.0 L 115.0 169.0 L 114.0 175.0 L 113.0 186.0 L 111.0 197.0 L 110.0 203.0 " stroke="black" fill="none" stroke-width="5.0" stroke-linecap="round" stroke-linejoin="round" />
<circle cx="110.0" cy="203.0" r="2.5" fill="black" />
<path d="M 132.0 167.0 L 132.0 167.0 L 131.0 167.0 L 131.0 168.0 L 131.0 170.0 L 132.0 176.0 L 134.0 184.0 L 137.0 192.0 L 140.0 199.0 L 145.0 204.0 L 153.0 206.0 L 165.0 207.0 L 177.0 207.0 L 187.0 206.0 L 193.0 205.0 L 196.0 204.0 L 197.0 203.0 L 198.0 200.0 L 199.0 195.0 L 199.0 186.0 L 199.0 173.0 L 198.0 165.0 " stroke="black" fill="none" stroke-width="5.0" stroke-linecap="round" stroke-linejoin="round" />
<path d="M 151.0 146.0 L 151.0 146.0 L 151.0 146.0 L 152.0 146.0 L 160.0 146.0 L 172.0 145.0 L 182.0 144.0 L 184.0 144.0 " stroke="black" fill="none" stroke-width="5.0" stroke-linecap="round" stroke-linejoin="round" />
<path d="M 165.0 115.0 L 165.0 115.0 L 165.0 115.0 L 165.0 115.0 L 165.0 120.0 L 167.0 138.0 L 170.0 164.0 L 171.0 183.0 L 172.0 192.0 L 173.0 194.0 L 174.0 194.0 L 174.0 192.0 " stroke="black" fill="none" stroke-width="5.0" stroke-linecap="round" stroke-linejoin="round" />
</svg>