<svg xmlns="http://www.w3.org/2000/svg" width="300" height="300" viewBox="0 0 300 300">
<path d="M 131.0 111.0 L 131.0 111.0 L 131.0 110.0 L 131.0 111.0 L 130.0 117.0 L 123.0 132.0 L 111.0 153.0 L 99.0 168.0 L 96.0 171.0 " stroke="black" fill="none" stroke-width="5.0" stroke-linecap="round" stroke-linejoin="round" />
<path d="M 119.0 145.0 L 119.0 144.0 L 119.0 144.0 L 119.0 144.0 L 119.0 148.0 L 120.0 160.0 L 121.0 180.0 L 121.0 198.0 L 121.0 203.0 " stroke="black" fill="none" stroke-width="5.0" stroke-linecap="round" stroke-linejoin="round" />
<path d="M 148.0 115.0 L 148.0 115.0 L 148.0 115.0 L 148.0 115.0 L 152.0 115.0 L 159.0 114.0 L 166.0 114.0 L 168.0 114.0 " stroke="black" fill="none" stroke-width="5.0" stroke-linecap="round" stroke-linejoin="round" />
<path d="M 158.0 118.0 L 158.0 118.0 L 158.0 119.0 L 158.0 119.0 L 158.0 120.0 L 157.0 123.0 L 154.0 127.0 " stroke="black" fill="none" stroke-width="5.0" stroke-linecap="round" stroke-linejoin="round" />
<path d="M 146.0 130.0 L 146.0 130.0 L 146.0 130.0 L 145.0 130.0 L 145.0 131.0 L 145.0 135.0 L 146.0 143.0 L 147.0 149.0 L 148.0 151.0 " stroke="black" fill="none" stroke-width="5.0" stroke-linecap="round" stroke-linejoin="round" />
<path d="M 148.0 126.0 L 148.0 126.0 L 148.0 126.0 L 148.0 125.0 L 149.0 125.0 L 153.0 125.0 L 160.0 125.0 L 168.0 124.0 L 172.0 123.0 L 175.0 124.0 L 177.0 129.0 L 179.0 137.0 L 181.0 145.0 L 182.0 150.0 L 182.0 152.0 " stroke="black" fill="none" stroke-width="5.0" stroke-linecap="round" stroke-linejoin="round" />
<path d="M 152.0 136.0 L 152.0 136.0 L 152.0 136.0 L 152.0 135.0 L 154.0 135.0 L 157.0 134.0 L 163.0 133.0 L 169.0 133.0 L 173.0 133.0 L 173.0 134.0 " stroke="black" fill="none" stroke-width="5.0" stroke-linecap="round" stroke-linejoin="round" />
<path d="M 153.0 143.0 L 153.0 143.0 L 153.0 144.0 L 153.0 144.0 L 156.0 144.0 L 163.0 143.0 L 171.0 142.0 L 176.0 141.0 L 176.0 141.0 " stroke="black" fill="none" stroke-width="5.0" stroke-linecap="round" stroke-linejoin="round" />
<path d="M 138.0 156.0 L 138.0 156.0 L 138.0 156.0 L 137.0 157.0 L 137.0 159.0 L 139.0 161.0 L 140.0 162.0 " stroke="black" fill="none" stroke-width="5.0" stroke-linecap="round" stroke-linejoin="round" />
<path d="M 140.0 156.0 L 140.0 156.0 L 140.0 156.0 L 140.0 156.0 L 144.0 154.0 L 152.0 152.0 L 164.0 150.0 L 176.0 149.0 L 185.0 149.0 L 191.0 150.0 L 193.0 150.0 L 194.0 152.0 L 193.0 155.0 L 191.0 158.0 " stroke="black" fill="none" stroke-width="5.0" stroke-linecap="round" stroke-linejoin="round" />
<path d="M 154.0 161.0 L 154.0 161.0 L 154.0 161.0 L 155.0 161.0 L 155.0 162.0 L 155.0 164.0 L 155.0 167.0 " stroke="black" fill="none" stroke-width="5.0" stroke-linecap="round" stroke-linejoin="round" />
<path d="M 159.0 164.0 L 159.0 164.0 L 160.0 164.0 L 161.0 165.0 L 165.0 167.0 L 170.0 169.0 L 176.0 169.0 " stroke="black" fill="none" stroke-width="5.0" stroke-linecap="round" stroke-linejoin="round" />
<path d="M 171.0 156.0 L 172.0 156.0 L 172.0 156.0 L 173.0 158.0 L 175.0 161.0 L 177.0 162.0 " stroke="black" fill="none" stroke-width="5.0" stroke-linecap="round" stroke-linejoin="round" />
<path d="M 181.0 156.0 L 181.0 156.0 L 181.0 158.0 L 181.0 159.0 L 182.0 161.0 " stroke="black" fill="none" stroke-width="5.0" stroke-linecap="round" stroke-linejoin="round" />
<path d="M 163.0 171.0 L 163.0 171.0 L 164.0 171.0 L 164.0 171.0 L 164.0 173.0 L 161.0 177.0 L 156.0 183.0 L 152.0 189.0 " stroke="black" fill="none" stroke-width="5.0" stroke-linecap="round" stroke-linejoin="round" />
<path d="M 157.0 181.0 L 158.0 181.0 L 159.0 181.0 L 162.0 180.0 L 169.0 178.0 L 177.0 177.0 L 180.0 178.0 L 181.0 182.0 L 178.0 187.0 L 172.0 194.0 L 165.0 202.0 L 158.0 208.0 " stroke="black" fill="none" stroke-width="5.0" stroke-linecap="round" stroke-linejoin="round" />
<path d="M 157.0 184.0 L 157.0 184.0 L 158.0 184.0 L 160.0 187.0 L 168.0 197.0 L 179.0 209.0 L 187.0 219.0 L 190.0 223.0 " stroke="black" fill="none" stroke-width="5.0" stroke-linecap="round" stroke-linejoin="round" />
</svg>