<svg xmlns="http://www.w3.org/2000/svg" width="300" height="300" viewBox="0 0 300 300">
<path d="M 130.0 113.0 L 130.0 113.0 L 130.0 113.0 L 129.0 113.0 L 132.0 113.0 L 141.0 113.0 L 155.0 112.0 L 169.0 110.0 L 175.0 110.0 " stroke="black" fill="none" stroke-width="5.0" stroke-linecap="round" stroke-linejoin="round" />
<path d="M 122.0 139.0 L 122.0 138.0 L 122.0 138.0 L 122.0 137.0 L 122.0 142.0 L 121.0 153.0 L 121.0 171.0 L 120.0 190.0 L 120.0 199.0 " stroke="black" fill="none" stroke-width="5.0" stroke-linecap="round" stroke-linejoin="round" />
<path d="M 127.0 140.0 L 127.0 140.0 L 127.0 140.0 L 127.0 139.0 L 131.0 139.0 L 140.0 138.0 L 153.0 136.0 L 165.0 135.0 L 180.0 137.0 L 182.0 139.0 L 184.0 142.0 L 185.0 148.0 L 189.0 158.0 L 193.0 171.0 L 196.0 185.0 L 198.0 194.0 L 198.0 199.0 L 198.0 202.0 L 194.0 202.0 L 187.0 202.0 L 182.0 200.0 " stroke="black" fill="none" stroke-width="5.0" stroke-linecap="round" stroke-linejoin="round" />
<path d="M 149.0 122.0 L 149.0 122.0 L 149.0 122.0 L 149.0 122.0 L 149.0 125.0 L 152.0 140.0 L 157.0 165.0 L 160.0 187.0 L 160.0 197.0 L 160.0 198.0 " stroke="black" fill="none" stroke-width="5.0" stroke-linecap="round" stroke-linejoin="round" />
<path d="M 137.0 159.0 L 137.0 160.0 L 137.0 161.0 L 138.0 164.0 L 142.0 170.0 L 147.0 179.0 " stroke="black" fill="none" stroke-width="5.0" stroke-linecap="round" stroke-linejoin="round" />
<path d="M 143.0 168.0 L 143.0 168.0 L 141.0 170.0 L 140.0 172.0 L 137.0 176.0 L 134.0 180.0 " stroke="black" fill="none" stroke-width="5.0" stroke-linecap="round" stroke-linejoin="round" />
<path d="M 170.0 161.0 L 171.0 162.0 L 171.0 164.0 L 173.0 166.0 L 176.0 169.0 L 180.0 174.0 L 183.0 179.0 " stroke="black" fill="none" stroke-width="5.0" stroke-linecap="round" stroke-linejoin="round" />
<path d="M 176.0 168.0 L 176.0 168.0 L 174.0 168.0 L 173.0 169.0 L 171.0 171.0 L 168.0 176.0 L 163.0 181.0 " stroke="black" fill="none" stroke-width="5.0" stroke-linecap="round" stroke-linejoin="round" />
</svg>