<svg xmlns="http://www.w3.org/2000/svg" width="300" height="300" viewBox="0 0 300 300">
<path d="M 122.0 115.0 L 123.0 115.0 L 123.0 115.0 L 123.0 116.0 L 123.0 119.0 L 124.0 123.0 L 124.0 126.0 " stroke="black" fill="none" stroke-width="5.0" stroke-linecap="round" stroke-linejoin="round" />
<path d="M 121.0 113.0 L 121.0 113.0 L 122.0 113.0 L 123.0 113.0 L 124.0 113.0 L 129.0 112.0 L 138.0 112.0 L 149.0 111.0 L 160.0 111.0 L 169.0 111.0 L 177.0 111.0 L 183.0 112.0 L 187.0 114.0 L 188.0 115.0 L 188.0 117.0 L 189.0 121.0 L 189.0 126.0 L 188.0 131.0 L 188.0 132.0 " stroke="black" fill="none" stroke-width="5.0" stroke-linecap="round" stroke-linejoin="round" />
<path d="M 138.0 131.0 L 138.0 131.0 L 137.0 131.0 L 137.0 131.0 L 137.0 131.0 L 139.0 131.0 L 143.0 131.0 L 147.0 131.0 L 149.0 131.0 L 150.0 132.0 " stroke="black" fill="none" stroke-width="5.0" stroke-linecap="round" stroke-linejoin="round" />
<path d="M 123.0 151.0 L 123.0 151.0 L 123.0 151.0 L 124.0 152.0 L 128.0 152.0 L 138.0 151.0 L 149.0 149.0 L 157.0 149.0 L 160.0 149.0 L 160.0 149.0 " stroke="black" fill="none" stroke-width="5.0" stroke-linecap="round" stroke-linejoin="round" />
<path d="M 135.0 154.0 L 135.0 154.0 L 134.0 154.0 L 134.0 154.0 L 134.0 156.0 L 133.0 162.0 L 132.0 174.0 L 132.0 186.0 L 133.0 191.0 L 134.0 191.0 " stroke="black" fill="none" stroke-width="5.0" stroke-linecap="round" stroke-linejoin="round" />
<path d="M 150.0 156.0 L 150.0 156.0 L 150.0 156.0 L 150.0 156.0 L 150.0 158.0 L 150.0 166.0 L 152.0 178.0 L 156.0 190.0 L 162.0 198.0 L 174.0 200.0 L 188.0 198.0 L 196.0 194.0 L 198.0 191.0 " stroke="black" fill="none" stroke-width="5.0" stroke-linecap="round" stroke-linejoin="round" />
<path d="M 166.0 143.0 L 167.0 143.0 L 168.0 143.0 L 173.0 143.0 L 180.0 143.0 L 187.0 143.0 L 189.0 143.0 " stroke="black" fill="none" stroke-width="5.0" stroke-linecap="round" stroke-linejoin="round" />
<path d="M 174.0 131.0 L 174.0 131.0 L 173.0 131.0 L 173.0 133.0 L 178.0 146.0 L 183.0 164.0 L 187.0 180.0 L 187.0 188.0 L 186.0 191.0 L 183.0 192.0 L 179.0 191.0 L 176.0 189.0 " stroke="black" fill="none" stroke-width="5.0" stroke-linecap="round" stroke-linejoin="round" />
<path d="M 161.0 166.0 L 161.0 166.0 L 162.0 167.0 L 166.0 170.0 L 174.0 172.0 L 179.0 173.0 " stroke="black" fill="none" stroke-width="5.0" stroke-linecap="round" stroke-linejoin="round" />
</svg>