<svg xmlns="http://www.w3.org/2000/svg" width="300" height="300" viewBox="0 0 300 300">
<path d="M 137.0 112.0 L 137.0 112.0 L 136.0 112.0 L 136.0 113.0 L 140.0 115.0 L 148.0 121.0 L 156.0 128.0 " stroke="black" fill="none" stroke-width="5.0" stroke-linecap="round" stroke-linejoin="round" />
<path d="M 119.0 146.0 L 120.0 146.0 L 121.0 146.0 L 131.0 146.0 L 149.0 144.0 L 165.0 142.0 L 174.0 142.0 L 175.0 142.0 " stroke="black" fill="none" stroke-width="5.0" stroke-linecap="round" stroke-linejoin="round" />
<path d="M 139.0 167.0 L 139.0 167.0 L 139.0 167.0 L 139.0 168.0 L 137.0 174.0 L 132.0 186.0 L 126.0 197.0 " stroke="black" fill="none" stroke-width="5.0" stroke-linecap="round" stroke-linejoin="round" />
<path d="M 164.0 167.0 L 165.0 168.0 L 167.0 169.0 L 170.0 173.0 L 175.0 180.0 L 181.0 189.0 L 185.0 195.0 " stroke="black" fill="none" stroke-width="5.0" stroke-linecap="round" stroke-linejoin="round" />
</svg>