<svg xmlns="http://www.w3.org/2000/svg" width="300" height="300" viewBox="0 0 300 300">
<path d="M 126.0 113.0 L 126.0 113.0 L 126.0 113.0 L 126.0 114.0 L 125.0 120.0 L 124.0 134.0 L 124.0 153.0 L 124.0 171.0 L 124.0 183.0 L 124.0 189.0 L 124.0 189.0 L 124.0 188.0 " stroke="black" fill="none" stroke-width="5.0" stroke-linecap="round" stroke-linejoin="round" />
<path d="M 132.0 111.0 L 132.0 111.0 L 132.0 111.0 L 133.0 111.0 L 136.0 111.0 L 145.0 111.0 L 156.0 111.0 L 165.0 111.0 L 171.0 111.0 L 173.0 111.0 L 174.0 112.0 L 176.0 118.0 L 180.0 130.0 L 186.0 148.0 L 190.0 166.0 L 191.0 179.0 L 192.0 187.0 L 192.0 192.0 L 190.0 194.0 L 185.0 195.0 L 176.0 195.0 L 168.0 191.0 " stroke="black" fill="none" stroke-width="5.0" stroke-linecap="round" stroke-linejoin="round" />
<path d="M 107.0 146.0 L 107.0 146.0 L 108.0 146.0 L 111.0 146.0 L 123.0 146.0 L 144.0 149.0 L 164.0 152.0 L 182.0 153.0 L 194.0 151.0 " stroke="black" fill="none" stroke-width="5.0" stroke-linecap="round" stroke-linejoin="round" />
<path d="M 146.0 114.0 L 146.0 114.0 L 146.0 115.0 L 146.0 118.0 L 146.0 131.0 L 147.0 154.0 L 147.0 174.0 L 147.0 183.0 L 148.0 184.0 " stroke="black" fill="none" stroke-width="5.0" stroke-linecap="round" stroke-linejoin="round" />
<path d="M 157.0 115.0 L 157.0 116.0 L 158.0 118.0 L 159.0 128.0 L 162.0 148.0 L 165.0 170.0 L 167.0 183.0 L 167.0 187.0 L 167.0 187.0 " stroke="black" fill="none" stroke-width="5.0" stroke-linecap="round" stroke-linejoin="round" />
</svg>