<svg xmlns="http://www.w3.org/2000/svg" width="300" height="300" viewBox="0 0 300 300">
<path d="M 113.0 129.0 L 113.0 129.0 L 114.0 129.0 L 115.0 131.0 L 118.0 135.0 L 124.0 139.0 L 125.0 140.0 " stroke="black" fill="none" stroke-width="5.0" stroke-linecap="round" stroke-linejoin="round" />
<path d="M 105.0 171.0 L 106.0 171.0 L 107.0 171.0 L 112.0 168.0 L 121.0 163.0 " stroke="black" fill="none" stroke-width="5.0" stroke-linecap="round" stroke-linejoin="round" />
<path d="M 147.0 113.0 L 147.0 113.0 L 147.0 112.0 L 146.0 112.0 L 146.0 117.0 L 146.0 132.0 L 143.0 159.0 L 138.0 182.0 L 135.0 192.0 L 135.0 193.0 " stroke="black" fill="none" stroke-width="5.0" stroke-linecap="round" stroke-linejoin="round" />
<path d="M 154.0 107.0 L 154.0 107.0 L 155.0 107.0 L 156.0 107.0 L 159.0 107.0 L 164.0 107.0 L 171.0 107.0 L 177.0 108.0 L 181.0 109.0 L 184.0 111.0 L 186.0 118.0 L 188.0 129.0 L 191.0 142.0 L 193.0 157.0 L 195.0 172.0 L 195.0 184.0 L 195.0 192.0 L 194.0 196.0 L 191.0 196.0 L 183.0 195.0 L 176.0 193.0 " stroke="black" fill="none" stroke-width="5.0" stroke-linecap="round" stroke-linejoin="round" />
<path d="M 158.0 128.0 L 158.0 128.0 L 158.0 129.0 L 158.0 129.0 L 161.0 130.0 L 168.0 130.0 L 174.0 129.0 " stroke="black" fill="none" stroke-width="5.0" stroke-linecap="round" stroke-linejoin="round" />
<path d="M 160.0 143.0 L 160.0 143.0 L 160.0 143.0 L 160.0 143.0 L 161.0 143.0 L 163.0 143.0 L 167.0 143.0 L 171.0 142.0 " stroke="black" fill="none" stroke-width="5.0" stroke-linecap="round" stroke-linejoin="round" />
<path d="M 164.0 122.0 L 164.0 122.0 L 164.0 123.0 L 164.0 124.0 L 165.0 127.0 L 165.0 134.0 L 165.0 137.0 " stroke="black" fill="none" stroke-width="5.0" stroke-linecap="round" stroke-linejoin="round" />
<path d="M 156.0 160.0 L 156.0 160.0 L 155.0 160.0 L 155.0 161.0 L 155.0 162.0 L 155.0 165.0 L 156.0 169.0 L 157.0 172.0 " stroke="black" fill="none" stroke-width="5.0" stroke-linecap="round" stroke-linejoin="round" />
<path d="M 158.0 158.0 L 158.0 158.0 L 158.0 158.0 L 159.0 158.0 L 161.0 158.0 L 164.0 158.0 L 169.0 158.0 L 174.0 159.0 L 178.0 161.0 L 180.0 165.0 L 180.0 170.0 L 180.0 174.0 L 180.0 174.0 " stroke="black" fill="none" stroke-width="5.0" stroke-linecap="round" stroke-linejoin="round" />
<path d="M 159.0 174.0 L 159.0 174.0 L 159.0 174.0 L 159.0 174.0 L 163.0 175.0 L 169.0 175.0 L 178.0 175.0 " stroke="black" fill="none" stroke-width="5.0" stroke-linecap="round" stroke-linejoin="round" />
</svg>