<svg xmlns="http://www.w3.org/2000/svg" width="300" height="300" viewBox="0 0 300 300">
<path d="M 132.8571428571429 127.85714285714288 L 132.8571428571429 127.85714285714288 L 132.8571428571429 127.85714285714288 L 132.8571428571429 127.85714285714288 L 132.8571428571429 128.5714285714286 L 132.8571428571429 130.71428571428572 L 132.8571428571429 136.42857142857144 L 132.8571428571429 144.28571428571433 L 132.14285714285717 150.00000000000006 L 132.14285714285717 152.14285714285717 L 132.8571428571429 152.8571428571429 L 135.71428571428572 152.8571428571429 L 142.14285714285717 152.14285714285717 L 150.00000000000006 150.71428571428572 L 160.00000000000006 149.28571428571433 L 170.00000000000006 148.5714285714286 L 175.71428571428578 147.14285714285717 L 177.14285714285717 147.14285714285717 " stroke="black" fill="none" stroke-width="5.0" stroke-linecap="round" stroke-linejoin="round" />
<path d="M 176.42857142857144 126.42857142857146 L 176.42857142857144 126.42857142857146 L 176.42857142857144 127.14285714285718 L 176.42857142857144 129.28571428571433 L 177.14285714285717 136.42857142857144 L 178.5714285714286 145.71428571428572 L 178.5714285714286 147.8571428571429 " stroke="black" fill="none" stroke-width="5.0" stroke-linecap="round" stroke-linejoin="round" />
<path d="M 130.00000000000006 175.00000000000006 L 130.00000000000006 175.00000000000006 L 130.00000000000006 175.00000000000006 L 130.00000000000006 177.14285714285717 L 130.00000000000006 181.42857142857144 L 129.28571428571433 186.42857142857144 L 129.28571428571433 191.42857142857144 L 130.00000000000006 193.5714285714286 L 134.28571428571433 194.28571428571433 L 143.5714285714286 192.8571428571429 L 154.28571428571433 190.71428571428578 L 165.71428571428572 189.28571428571433 L 175.71428571428578 189.28571428571433 L 180.00000000000006 187.8571428571429 " stroke="black" fill="none" stroke-width="5.0" stroke-linecap="round" stroke-linejoin="round" />
<path d="M 182.14285714285717 164.28571428571433 L 182.14285714285717 166.42857142857144 L 182.14285714285717 170.71428571428572 L 182.14285714285717 177.8571428571429 L 182.8571428571429 184.28571428571433 " stroke="black" fill="none" stroke-width="5.0" stroke-linecap="round" stroke-linejoin="round" />
<path d="M 152.8571428571429 122.14285714285718 L 152.8571428571429 122.85714285714288 L 152.8571428571429 125.00000000000001 L 152.8571428571429 129.28571428571433 L 152.8571428571429 136.42857142857144 L 153.5714285714286 148.5714285714286 L 154.28571428571433 165.00000000000006 L 154.28571428571433 180.00000000000006 L 155.00000000000006 189.28571428571433 L 155.00000000000006 191.42857142857144 " stroke="black" fill="none" stroke-width="5.0" stroke-linecap="round" stroke-linejoin="round" />
</svg>