<svg xmlns="http://www.w3.org/2000/svg" width="300" height="300" viewBox="0 0 300 300">
<path d="M 128.0 120.0 L 128.0 120.0 L 128.0 120.0 L 128.0 120.0 L 131.0 120.0 L 141.0 118.0 L 156.0 115.0 L 165.0 114.0 " stroke="black" fill="none" stroke-width="5.0" stroke-linecap="round" stroke-linejoin="round" />
<path d="M 152.0 104.0 L 152.0 104.0 L 152.0 104.0 L 152.0 105.0 L 152.0 109.0 L 150.0 118.0 L 148.0 123.0 " stroke="black" fill="none" stroke-width="5.0" stroke-linecap="round" stroke-linejoin="round" />
<path d="M 131.0 137.0 L 131.0 137.0 L 131.0 137.0 L 131.0 137.0 L 130.0 137.0 L 130.0 142.0 L 131.0 149.0 L 132.0 155.0 L 132.0 156.0 " stroke="black" fill="none" stroke-width="5.0" stroke-linecap="round" stroke-linejoin="round" />
<path d="M 130.0 139.0 L 130.0 139.0 L 130.0 138.0 L 132.0 137.0 L 140.0 135.0 L 150.0 133.0 L 160.0 131.0 L 168.0 130.0 L 172.0 132.0 L 173.0 137.0 L 174.0 142.0 L 173.0 146.0 L 172.0 148.0 " stroke="black" fill="none" stroke-width="5.0" stroke-linecap="round" stroke-linejoin="round" />
<path d="M 129.0 159.0 L 129.0 159.0 L 129.0 159.0 L 129.0 159.0 L 135.0 159.0 L 147.0 156.0 L 161.0 152.0 L 169.0 151.0 " stroke="black" fill="none" stroke-width="5.0" stroke-linecap="round" stroke-linejoin="round" />
<path d="M 145.0 161.0 L 145.0 161.0 L 144.0 162.0 L 142.0 166.0 L 140.0 174.0 L 136.0 185.0 L 134.0 195.0 " stroke="black" fill="none" stroke-width="5.0" stroke-linecap="round" stroke-linejoin="round" />
<path d="M 157.0 160.0 L 157.0 160.0 L 157.0 161.0 L 158.0 165.0 L 160.0 175.0 L 165.0 190.0 L 172.0 200.0 L 181.0 203.0 L 189.0 201.0 L 193.0 196.0 L 194.0 192.0 " stroke="black" fill="none" stroke-width="5.0" stroke-linecap="round" stroke-linejoin="round" />
</svg>