<svg xmlns="http://www.w3.org/2000/svg" width="300" height="300" viewBox="0 0 300 300">
<path d="M 126.0 126.0 L 126.0 126.0 L 126.0 127.0 L 126.0 128.0 L 125.0 130.0 L 125.0 136.0 L 126.0 149.0 L 127.0 162.0 L 128.0 168.0 " stroke="black" fill="none" stroke-width="5.0" stroke-linecap="round" stroke-linejoin="round" />
<path d="M 130.0 130.0 L 130.0 130.0 L 130.0 130.0 L 131.0 130.0 L 134.0 129.0 L 142.0 127.0 L 151.0 125.0 L 159.0 125.0 L 165.0 125.0 L 168.0 127.0 L 170.0 132.0 L 172.0 140.0 L 173.0 150.0 L 173.0 159.0 L 174.0 165.0 L 174.0 167.0 " stroke="black" fill="none" stroke-width="5.0" stroke-linecap="round" stroke-linejoin="round" />
<path d="M 132.0 150.0 L 132.0 150.0 L 132.0 150.0 L 132.0 150.0 L 134.0 149.0 L 144.0 148.0 L 156.0 146.0 L 167.0 145.0 L 169.0 145.0 " stroke="black" fill="none" stroke-width="5.0" stroke-linecap="round" stroke-linejoin="round" />
<path d="M 144.0 107.0 L 143.0 107.0 L 143.0 106.0 L 142.0 106.0 L 141.0 113.0 L 142.0 132.0 L 144.0 156.0 L 145.0 170.0 L 145.0 171.0 " stroke="black" fill="none" stroke-width="5.0" stroke-linecap="round" stroke-linejoin="round" />
<path d="M 157.0 106.0 L 157.0 106.0 L 158.0 106.0 L 158.0 107.0 L 158.0 113.0 L 158.0 131.0 L 158.0 155.0 L 158.0 167.0 " stroke="black" fill="none" stroke-width="5.0" stroke-linecap="round" stroke-linejoin="round" />
<path d="M 106.0 181.0 L 106.0 181.0 L 106.0 181.0 L 108.0 181.0 L 124.0 178.0 L 154.0 174.0 L 181.0 172.0 L 193.0 172.0 L 196.0 172.0 " stroke="black" fill="none" stroke-width="5.0" stroke-linecap="round" stroke-linejoin="round" />
<path d="M 144.0 186.0 L 144.0 186.0 L 143.0 185.0 L 143.0 185.0 L 141.0 189.0 L 138.0 198.0 L 136.0 204.0 " stroke="black" fill="none" stroke-width="5.0" stroke-linecap="round" stroke-linejoin="round" />
<path d="M 169.0 187.0 L 170.0 186.0 L 173.0 186.0 L 176.0 193.0 L 180.0 203.0 " stroke="black" fill="none" stroke-width="5.0" stroke-linecap="round" stroke-linejoin="round" />
</svg>