<svg xmlns="http://www.w3.org/2000/svg" width="300" height="300" viewBox="0 0 300 300">
<path d="M 135.0 107.0 L 135.0 107.0 L 135.0 107.0 L 135.0 106.0 L 135.0 106.0 L 135.0 106.0 L 134.0 110.0 L 131.0 118.0 L 124.0 132.0 L 112.0 151.0 L 102.0 164.0 L 98.0 167.0 L 98.0 167.0 " stroke="black" fill="none" stroke-width="5.0" stroke-linecap="round" stroke-linejoin="round" />
<path d="M 119.0 144.0 L 120.0 144.0 L 121.0 144.0 L 121.0 144.0 L 121.0 146.0 L 122.0 154.0 L 122.0 167.0 L 122.0 182.0 L 121.0 190.0 L 121.0 192.0 " stroke="black" fill="none" stroke-width="5.0" stroke-linecap="round" stroke-linejoin="round" />
<path d="M 150.0 111.0 L 150.0 111.0 L 150.0 112.0 L 150.0 112.0 L 152.0 112.0 L 158.0 111.0 L 166.0 110.0 L 172.0 109.0 L 176.0 109.0 L 176.0 109.0 L 176.0 109.0 " stroke="black" fill="none" stroke-width="5.0" stroke-linecap="round" stroke-linejoin="round" />
<path d="M 139.0 125.0 L 139.0 125.0 L 139.0 127.0 L 139.0 128.0 L 139.0 130.0 L 139.0 133.0 L 139.0 135.0 L 140.0 136.0 " stroke="black" fill="none" stroke-width="5.0" stroke-linecap="round" stroke-linejoin="round" />
<path d="M 140.0 126.0 L 140.0 126.0 L 141.0 126.0 L 144.0 126.0 L 150.0 125.0 L 161.0 122.0 L 171.0 121.0 L 180.0 120.0 L 185.0 121.0 L 188.0 122.0 L 190.0 124.0 L 191.0 127.0 L 191.0 131.0 L 191.0 135.0 L 190.0 137.0 L 190.0 138.0 " stroke="black" fill="none" stroke-width="5.0" stroke-linecap="round" stroke-linejoin="round" />
<path d="M 160.0 116.0 L 160.0 116.0 L 160.0 116.0 L 160.0 116.0 L 160.0 118.0 L 161.0 124.0 L 163.0 132.0 L 164.0 138.0 L 164.0 141.0 " stroke="black" fill="none" stroke-width="5.0" stroke-linecap="round" stroke-linejoin="round" />
<path d="M 149.0 135.0 L 149.0 135.0 L 149.0 135.0 L 149.0 135.0 L 150.0 135.0 L 152.0 135.0 L 153.0 135.0 " stroke="black" fill="none" stroke-width="5.0" stroke-linecap="round" stroke-linejoin="round" />
<path d="M 148.0 142.0 L 148.0 142.0 L 149.0 142.0 L 151.0 141.0 L 152.0 141.0 L 154.0 141.0 " stroke="black" fill="none" stroke-width="5.0" stroke-linecap="round" stroke-linejoin="round" />
<path d="M 168.0 131.0 L 169.0 131.0 L 171.0 131.0 L 173.0 131.0 L 176.0 130.0 L 178.0 130.0 " stroke="black" fill="none" stroke-width="5.0" stroke-linecap="round" stroke-linejoin="round" />
<path d="M 176.0 135.0 L 176.0 135.0 L 178.0 137.0 L 179.0 139.0 L 181.0 140.0 L 181.0 141.0 " stroke="black" fill="none" stroke-width="5.0" stroke-linecap="round" stroke-linejoin="round" />
<path d="M 147.0 154.0 L 147.0 154.0 L 148.0 154.0 L 150.0 154.0 L 157.0 152.0 L 167.0 150.0 L 175.0 149.0 L 178.0 148.0 " stroke="black" fill="none" stroke-width="5.0" stroke-linecap="round" stroke-linejoin="round" />
<path d="M 163.0 155.0 L 163.0 155.0 L 163.0 156.0 L 163.0 158.0 L 160.0 161.0 L 158.0 163.0 " stroke="black" fill="none" stroke-width="5.0" stroke-linecap="round" stroke-linejoin="round" />
<path d="M 143.0 165.0 L 142.0 165.0 L 142.0 165.0 L 141.0 168.0 L 141.0 174.0 L 142.0 184.0 L 143.0 192.0 L 144.0 195.0 " stroke="black" fill="none" stroke-width="5.0" stroke-linecap="round" stroke-linejoin="round" />
<path d="M 143.0 165.0 L 143.0 165.0 L 144.0 165.0 L 146.0 165.0 L 148.0 165.0 L 154.0 164.0 L 163.0 163.0 L 173.0 163.0 L 181.0 163.0 L 188.0 167.0 L 192.0 173.0 L 195.0 179.0 L 197.0 185.0 L 198.0 190.0 L 198.0 195.0 L 198.0 199.0 L 195.0 201.0 L 191.0 202.0 L 187.0 202.0 " stroke="black" fill="none" stroke-width="5.0" stroke-linecap="round" stroke-linejoin="round" />
<path d="M 156.0 165.0 L 156.0 165.0 L 156.0 166.0 L 156.0 168.0 L 156.0 174.0 L 158.0 186.0 L 159.0 199.0 L 159.0 201.0 " stroke="black" fill="none" stroke-width="5.0" stroke-linecap="round" stroke-linejoin="round" />
<path d="M 172.0 166.0 L 172.0 167.0 L 172.0 170.0 L 174.0 178.0 L 176.0 191.0 L 178.0 204.0 L 178.0 208.0 " stroke="black" fill="none" stroke-width="5.0" stroke-linecap="round" stroke-linejoin="round" />
</svg>