<svg xmlns="http://www.w3.org/2000/svg" width="300" height="300" viewBox="0 0 300 300">
<path d="M 133.0 112.0 L 133.0 112.0 L 133.0 112.0 L 133.0 112.0 L 132.0 113.0 L 130.0 116.0 L 125.0 123.0 L 123.0 125.0 " stroke="black" fill="none" stroke-width="5.0" stroke-linecap="round" stroke-linejoin="round" />
<path d="M 110.0 143.0 L 110.0 143.0 L 110.0 143.0 L 111.0 142.0 L 115.0 142.0 L 125.0 140.0 L 135.0 139.0 L 141.0 139.0 L 142.0 140.0 " stroke="black" fill="none" stroke-width="5.0" stroke-linecap="round" stroke-linejoin="round" />
<path d="M 111.0 155.0 L 111.0 155.0 L 111.0 155.0 L 111.0 155.0 L 111.0 156.0 L 113.0 167.0 L 113.0 170.0 " stroke="black" fill="none" stroke-width="5.0" stroke-linecap="round" stroke-linejoin="round" />
<path d="M 111.0 154.0 L 111.0 154.0 L 111.0 153.0 L 111.0 153.0 L 112.0 153.0 L 117.0 152.0 L 125.0 151.0 L 133.0 150.0 L 139.0 150.0 L 142.0 154.0 L 144.0 160.0 L 144.0 166.0 L 144.0 170.0 L 144.0 172.0 " stroke="black" fill="none" stroke-width="5.0" stroke-linecap="round" stroke-linejoin="round" />
<path d="M 116.0 165.0 L 116.0 165.0 L 116.0 165.0 L 117.0 165.0 L 122.0 165.0 L 129.0 164.0 L 135.0 163.0 L 139.0 163.0 " stroke="black" fill="none" stroke-width="5.0" stroke-linecap="round" stroke-linejoin="round" />
<path d="M 116.0 176.0 L 116.0 176.0 L 118.0 177.0 L 122.0 177.0 L 130.0 176.0 L 137.0 174.0 " stroke="black" fill="none" stroke-width="5.0" stroke-linecap="round" stroke-linejoin="round" />
<path d="M 126.0 126.0 L 126.0 125.0 L 126.0 124.0 L 125.0 124.0 L 126.0 131.0 L 128.0 148.0 L 129.0 171.0 L 130.0 190.0 L 131.0 196.0 L 132.0 197.0 L 132.0 197.0 " stroke="black" fill="none" stroke-width="5.0" stroke-linecap="round" stroke-linejoin="round" />
<path d="M 114.0 189.0 L 114.0 189.0 L 114.0 189.0 L 114.0 189.0 L 117.0 189.0 L 125.0 189.0 L 134.0 188.0 L 140.0 188.0 L 142.0 188.0 " stroke="black" fill="none" stroke-width="5.0" stroke-linecap="round" stroke-linejoin="round" />
<path d="M 109.0 202.0 L 110.0 202.0 L 111.0 202.0 L 116.0 202.0 L 125.0 202.0 L 136.0 202.0 L 139.0 202.0 " stroke="black" fill="none" stroke-width="5.0" stroke-linecap="round" stroke-linejoin="round" />
<path d="M 154.0 150.0 L 154.0 150.0 L 154.0 150.0 L 154.0 150.0 L 154.0 150.0 L 156.0 150.0 L 161.0 150.0 L 167.0 150.0 L 172.0 150.0 L 176.0 150.0 L 178.0 151.0 L 181.0 155.0 L 183.0 163.0 L 186.0 174.0 L 188.0 186.0 L 190.0 195.0 L 190.0 201.0 L 190.0 204.0 L 188.0 205.0 L 184.0 205.0 L 177.0 205.0 L 173.0 203.0 " stroke="black" fill="none" stroke-width="5.0" stroke-linecap="round" stroke-linejoin="round" />
<path d="M 163.0 125.0 L 163.0 124.0 L 163.0 123.0 L 163.0 123.0 L 163.0 125.0 L 163.0 140.0 L 162.0 165.0 L 158.0 195.0 L 154.0 213.0 L 154.0 215.0 " stroke="black" fill="none" stroke-width="5.0" stroke-linecap="round" stroke-linejoin="round" />
</svg>