<svg xmlns="http://www.w3.org/2000/svg" width="300" height="300" viewBox="0 0 300 300">
<path d="M 121.0 108.0 L 121.0 108.0 L 122.0 108.0 L 123.0 109.0 L 125.0 109.0 L 128.0 109.0 L 133.0 109.0 L 137.0 108.0 L 139.0 108.0 L 139.0 108.0 " stroke="black" fill="none" stroke-width="5.0" stroke-linecap="round" stroke-linejoin="round" />
<path d="M 112.0 122.0 L 112.0 122.0 L 112.0 122.0 L 112.0 122.0 L 117.0 122.0 L 126.0 121.0 L 137.0 120.0 L 144.0 119.0 L 146.0 119.0 L 146.0 119.0 " stroke="black" fill="none" stroke-width="5.0" stroke-linecap="round" stroke-linejoin="round" />
<path d="M 130.0 102.0 L 130.0 102.0 L 130.0 102.0 L 130.0 105.0 L 130.0 110.0 L 131.0 114.0 " stroke="black" fill="none" stroke-width="5.0" stroke-linecap="round" stroke-linejoin="round" />
<path d="M 122.0 121.0 L 123.0 122.0 L 123.0 124.0 L 122.0 126.0 L 121.0 128.0 L 119.0 132.0 L 119.0 133.0 " stroke="black" fill="none" stroke-width="5.0" stroke-linecap="round" stroke-linejoin="round" />
<path d="M 141.0 119.0 L 140.0 119.0 L 140.0 120.0 L 139.0 122.0 L 139.0 125.0 L 139.0 128.0 L 142.0 130.0 L 146.0 131.0 L 147.0 131.0 " stroke="black" fill="none" stroke-width="5.0" stroke-linecap="round" stroke-linejoin="round" />
<path d="M 120.0 137.0 L 121.0 137.0 L 122.0 137.0 L 123.0 136.0 L 125.0 136.0 L 129.0 135.0 L 134.0 135.0 L 137.0 135.0 L 138.0 135.0 L 139.0 136.0 " stroke="black" fill="none" stroke-width="5.0" stroke-linecap="round" stroke-linejoin="round" />
<path d="M 113.0 150.0 L 113.0 150.0 L 114.0 150.0 L 117.0 150.0 L 124.0 149.0 L 133.0 148.0 L 141.0 148.0 L 145.0 148.0 L 145.0 148.0 " stroke="black" fill="none" stroke-width="5.0" stroke-linecap="round" stroke-linejoin="round" />
<path d="M 130.0 132.0 L 131.0 133.0 L 131.0 135.0 L 131.0 137.0 L 132.0 141.0 L 132.0 144.0 " stroke="black" fill="none" stroke-width="5.0" stroke-linecap="round" stroke-linejoin="round" />
<path d="M 156.0 116.0 L 156.0 116.0 L 156.0 117.0 L 156.0 117.0 L 157.0 117.0 L 159.0 117.0 L 164.0 117.0 L 170.0 116.0 L 175.0 115.0 L 178.0 115.0 L 179.0 117.0 L 180.0 123.0 L 179.0 131.0 L 179.0 139.0 L 182.0 145.0 L 187.0 147.0 L 191.0 146.0 L 192.0 143.0 " stroke="black" fill="none" stroke-width="5.0" stroke-linecap="round" stroke-linejoin="round" />
<path d="M 165.0 106.0 L 165.0 106.0 L 166.0 106.0 L 166.0 106.0 L 166.0 107.0 L 165.0 113.0 L 163.0 124.0 L 159.0 138.0 L 155.0 150.0 L 154.0 154.0 L 153.0 154.0 " stroke="black" fill="none" stroke-width="5.0" stroke-linecap="round" stroke-linejoin="round" />
<path d="M 152.0 131.0 L 153.0 131.0 L 154.0 133.0 L 156.0 135.0 L 162.0 139.0 L 169.0 142.0 L 172.0 144.0 " stroke="black" fill="none" stroke-width="5.0" stroke-linecap="round" stroke-linejoin="round" />
<path d="M 126.0 167.0 L 126.0 167.0 L 126.0 167.0 L 126.0 167.0 L 126.0 167.0 L 126.0 167.0 L 129.0 167.0 L 135.0 166.0 L 144.0 166.0 L 153.0 165.0 L 160.0 165.0 L 165.0 164.0 L 167.0 164.0 L 168.0 164.0 L 168.0 164.0 L 168.0 164.0 L 169.0 166.0 L 171.0 169.0 L 173.0 174.0 L 175.0 182.0 L 176.0 189.0 L 176.0 194.0 L 177.0 196.0 L 177.0 196.0 L 175.0 196.0 L 170.0 195.0 L 163.0 193.0 L 156.0 192.0 " stroke="black" fill="none" stroke-width="5.0" stroke-linecap="round" stroke-linejoin="round" />
<path d="M 145.0 156.0 L 145.0 156.0 L 145.0 155.0 L 145.0 155.0 L 145.0 155.0 L 144.0 160.0 L 141.0 170.0 L 135.0 186.0 L 129.0 201.0 L 127.0 205.0 " stroke="black" fill="none" stroke-width="5.0" stroke-linecap="round" stroke-linejoin="round" />
</svg>