<svg xmlns="http://www.w3.org/2000/svg" width="300" height="300" viewBox="0 0 300 300">
<path d="M 111.0 141.0 L 110.0 141.0 L 109.0 141.0 L 108.0 141.0 L 110.0 141.0 L 119.0 141.0 L 131.0 140.0 L 137.0 139.0 " stroke="black" fill="none" stroke-width="5.0" stroke-linecap="round" stroke-linejoin="round" />
<path d="M 126.0 119.0 L 126.0 119.0 L 126.0 120.0 L 126.0 120.0 L 126.0 123.0 L 125.0 136.0 L 124.0 160.0 L 124.0 180.0 L 130.0 187.0 L 140.0 184.0 L 147.0 176.0 " stroke="black" fill="none" stroke-width="5.0" stroke-linecap="round" stroke-linejoin="round" />
<path d="M 159.0 124.0 L 159.0 124.0 L 159.0 124.0 L 160.0 125.0 L 165.0 125.0 L 173.0 123.0 L 179.0 122.0 L 183.0 122.0 L 186.0 127.0 L 189.0 139.0 L 193.0 157.0 L 196.0 173.0 L 197.0 185.0 L 197.0 191.0 L 196.0 192.0 L 193.0 192.0 L 185.0 188.0 L 175.0 185.0 " stroke="black" fill="none" stroke-width="5.0" stroke-linecap="round" stroke-linejoin="round" />
<path d="M 166.0 129.0 L 166.0 129.0 L 166.0 128.0 L 166.0 128.0 L 166.0 136.0 L 164.0 157.0 L 159.0 184.0 L 156.0 196.0 " stroke="black" fill="none" stroke-width="5.0" stroke-linecap="round" stroke-linejoin="round" />
</svg>