<svg xmlns="http://www.w3.org/2000/svg" width="300" height="300" viewBox="0 0 300 300">
<path d="M 116.0 114.0 L 116.0 114.0 L 117.0 114.0 L 117.0 114.0 L 117.0 115.0 L 117.0 118.0 L 117.0 126.0 L 117.0 142.0 L 115.0 161.0 L 114.0 171.0 L 114.0 172.0 L 114.0 171.0 " stroke="black" fill="none" stroke-width="5.0" stroke-linecap="round" stroke-linejoin="round" />
<path d="M 117.0 117.0 L 117.0 117.0 L 117.0 117.0 L 117.0 117.0 L 118.0 117.0 L 120.0 117.0 L 124.0 117.0 L 129.0 117.0 L 133.0 117.0 L 136.0 120.0 L 138.0 129.0 L 140.0 143.0 L 142.0 157.0 L 143.0 166.0 L 143.0 169.0 L 143.0 170.0 L 143.0 170.0 " stroke="black" fill="none" stroke-width="5.0" stroke-linecap="round" stroke-linejoin="round" />
<path d="M 120.0 140.0 L 120.0 140.0 L 121.0 139.0 L 122.0 139.0 L 124.0 139.0 L 129.0 139.0 L 134.0 140.0 L 138.0 140.0 L 140.0 141.0 " stroke="black" fill="none" stroke-width="5.0" stroke-linecap="round" stroke-linejoin="round" />
<path d="M 119.0 153.0 L 120.0 154.0 L 122.0 154.0 L 125.0 155.0 L 130.0 155.0 L 134.0 155.0 L 138.0 155.0 L 138.0 155.0 " stroke="black" fill="none" stroke-width="5.0" stroke-linecap="round" stroke-linejoin="round" />
<path d="M 102.0 177.0 L 102.0 177.0 L 102.0 177.0 L 103.0 178.0 L 107.0 178.0 L 115.0 178.0 L 130.0 177.0 L 143.0 177.0 L 149.0 177.0 " stroke="black" fill="none" stroke-width="5.0" stroke-linecap="round" stroke-linejoin="round" />
<path d="M 154.0 140.0 L 156.0 140.0 L 157.0 140.0 L 159.0 140.0 L 162.0 140.0 L 166.0 139.0 L 171.0 139.0 L 175.0 139.0 L 177.0 140.0 L 180.0 143.0 L 182.0 150.0 L 185.0 161.0 L 188.0 176.0 L 190.0 190.0 L 190.0 198.0 L 190.0 201.0 L 188.0 202.0 L 182.0 198.0 L 177.0 193.0 " stroke="black" fill="none" stroke-width="5.0" stroke-linecap="round" stroke-linejoin="round" />
<path d="M 167.0 113.0 L 167.0 113.0 L 167.0 115.0 L 167.0 119.0 L 166.0 131.0 L 163.0 151.0 L 158.0 176.0 L 149.0 198.0 " stroke="black" fill="none" stroke-width="5.0" stroke-linecap="round" stroke-linejoin="round" />
</svg>