<svg xmlns="http://www.w3.org/2000/svg" width="300" height="300" viewBox="0 0 300 300">
<circle cx="115.0" cy="114.0" r="2.5" fill="black" />
<path d="M 120.0 115.0 L 120.0 116.0 L 120.0 116.0 L 122.0 116.0 L 126.0 116.0 L 133.0 116.0 L 139.0 116.0 L 143.0 116.0 " stroke="black" fill="none" stroke-width="5.0" stroke-linecap="round" stroke-linejoin="round" />
<path d="M 109.0 142.0 L 109.0 142.0 L 109.0 142.0 L 110.0 142.0 L 115.0 142.0 L 125.0 142.0 L 137.0 142.0 L 144.0 142.0 L 147.0 142.0 " stroke="black" fill="none" stroke-width="5.0" stroke-linecap="round" stroke-linejoin="round" />
<path d="M 123.0 123.0 L 123.0 124.0 L 124.0 126.0 L 124.0 129.0 L 124.0 137.0 L 122.0 148.0 L 118.0 160.0 L 117.0 162.0 " stroke="black" fill="none" stroke-width="5.0" stroke-linecap="round" stroke-linejoin="round" />
<path d="M 138.0 124.0 L 138.0 124.0 L 138.0 124.0 L 137.0 125.0 L 137.0 126.0 L 137.0 132.0 L 138.0 146.0 L 139.0 166.0 L 139.0 181.0 L 139.0 184.0 " stroke="black" fill="none" stroke-width="5.0" stroke-linecap="round" stroke-linejoin="round" />
<path d="M 172.0 114.0 L 172.0 114.0 L 172.0 114.0 L 172.0 114.0 L 171.0 115.0 L 170.0 119.0 L 165.0 124.0 L 159.0 130.0 L 158.0 132.0 " stroke="black" fill="none" stroke-width="5.0" stroke-linecap="round" stroke-linejoin="round" />
<path d="M 176.0 136.0 L 176.0 137.0 L 175.0 138.0 L 175.0 139.0 L 174.0 141.0 L 170.0 144.0 L 164.0 149.0 L 160.0 151.0 " stroke="black" fill="none" stroke-width="5.0" stroke-linecap="round" stroke-linejoin="round" />
<path d="M 180.0 159.0 L 180.0 160.0 L 180.0 161.0 L 180.0 163.0 L 180.0 165.0 L 176.0 170.0 L 167.0 178.0 " stroke="black" fill="none" stroke-width="5.0" stroke-linecap="round" stroke-linejoin="round" />
</svg>