<svg xmlns="http://www.w3.org/2000/svg" width="300" height="300" viewBox="0 0 300 300">
<path d="M 122.14285714285718 117.14285714285718 L 122.85714285714288 117.14285714285718 L 122.85714285714288 117.14285714285718 L 123.5714285714286 117.14285714285718 L 123.5714285714286 118.5714285714286 L 123.5714285714286 122.14285714285718 L 120.71428571428574 130.00000000000006 L 117.85714285714288 139.28571428571433 L 115.71428571428574 142.8571428571429 " stroke="black" fill="none" stroke-width="5.0" stroke-linecap="round" stroke-linejoin="round" />
<path d="M 120.71428571428574 129.28571428571433 L 120.71428571428574 130.00000000000006 L 121.42857142857146 131.42857142857144 L 121.42857142857146 131.42857142857144 L 122.85714285714288 131.42857142857144 L 126.42857142857146 130.00000000000006 L 132.8571428571429 127.85714285714288 L 139.28571428571433 126.42857142857146 L 144.28571428571433 125.71428571428574 L 145.00000000000006 125.71428571428574 " stroke="black" fill="none" stroke-width="5.0" stroke-linecap="round" stroke-linejoin="round" />
<path d="M 110.71428571428574 157.8571428571429 L 110.71428571428574 157.8571428571429 L 111.42857142857146 157.8571428571429 L 113.5714285714286 157.8571428571429 L 121.42857142857146 155.00000000000006 L 135.71428571428572 151.42857142857144 L 149.28571428571433 149.28571428571433 " stroke="black" fill="none" stroke-width="5.0" stroke-linecap="round" stroke-linejoin="round" />
<path d="M 116.42857142857146 173.5714285714286 L 116.42857142857146 173.5714285714286 L 116.42857142857146 173.5714285714286 L 116.42857142857146 174.28571428571433 L 116.42857142857146 178.5714285714286 L 116.42857142857146 185.00000000000006 L 116.42857142857146 187.8571428571429 " stroke="black" fill="none" stroke-width="5.0" stroke-linecap="round" stroke-linejoin="round" />
<path d="M 116.42857142857146 174.28571428571433 L 117.14285714285718 174.28571428571433 L 117.85714285714288 173.5714285714286 L 120.71428571428574 172.14285714285717 L 127.14285714285718 170.00000000000006 L 137.8571428571429 167.8571428571429 L 145.00000000000006 167.14285714285717 L 147.14285714285717 167.14285714285717 L 147.8571428571429 170.00000000000006 L 148.5714285714286 175.00000000000006 L 150.00000000000006 180.71428571428578 L 150.71428571428572 186.42857142857144 L 150.71428571428572 189.28571428571433 L 149.28571428571433 191.42857142857144 L 147.14285714285717 191.42857142857144 L 143.5714285714286 190.71428571428578 " stroke="black" fill="none" stroke-width="5.0" stroke-linecap="round" stroke-linejoin="round" />
<path d="M 128.5714285714286 132.8571428571429 L 128.5714285714286 132.8571428571429 L 127.85714285714288 132.8571428571429 L 127.85714285714288 132.8571428571429 L 127.85714285714288 137.14285714285717 L 130.71428571428572 154.28571428571433 L 135.71428571428572 180.71428571428578 L 137.8571428571429 200.00000000000006 L 137.8571428571429 208.5714285714286 L 138.5714285714286 211.4285714285715 L 138.5714285714286 211.4285714285715 " stroke="black" fill="none" stroke-width="5.0" stroke-linecap="round" stroke-linejoin="round" />
<path d="M 160.71428571428572 147.14285714285717 L 160.71428571428572 147.14285714285717 L 160.71428571428572 147.14285714285717 L 160.71428571428572 148.5714285714286 L 162.14285714285717 154.28571428571433 L 162.14285714285717 155.00000000000006 " stroke="black" fill="none" stroke-width="5.0" stroke-linecap="round" stroke-linejoin="round" />
<path d="M 175.71428571428578 122.85714285714288 L 175.00000000000006 122.85714285714288 L 175.00000000000006 123.5714285714286 L 175.00000000000006 127.14285714285718 L 177.8571428571429 139.28571428571433 L 182.14285714285717 158.5714285714286 L 185.71428571428578 178.5714285714286 L 187.14285714285717 190.00000000000006 L 187.14285714285717 195.00000000000006 L 187.14285714285717 196.4285714285715 L 186.42857142857144 195.71428571428578 L 182.14285714285717 192.8571428571429 L 173.5714285714286 190.00000000000006 " stroke="black" fill="none" stroke-width="5.0" stroke-linecap="round" stroke-linejoin="round" />
</svg>