<svg xmlns="http://www.w3.org/2000/svg" width="300" height="300" viewBox="0 0 300 300">
<path d="M 119.0 136.0 L 119.0 135.0 L 119.0 134.0 L 122.0 134.0 L 127.0 134.0 L 134.0 134.0 L 137.0 133.0 " stroke="black" fill="none" stroke-width="5.0" stroke-linecap="round" stroke-linejoin="round" />
<path d="M 131.0 135.0 L 131.0 135.0 L 131.0 135.0 L 131.0 137.0 L 131.0 140.0 L 131.0 146.0 L 131.0 155.0 L 132.0 162.0 L 132.0 163.0 " stroke="black" fill="none" stroke-width="5.0" stroke-linecap="round" stroke-linejoin="round" />
<path d="M 113.0 170.0 L 113.0 170.0 L 113.0 170.0 L 114.0 171.0 L 122.0 171.0 L 136.0 171.0 L 148.0 170.0 " stroke="black" fill="none" stroke-width="5.0" stroke-linecap="round" stroke-linejoin="round" />
<path d="M 148.0 146.0 L 148.0 146.0 L 148.0 146.0 L 148.0 146.0 L 149.0 146.0 L 153.0 146.0 L 160.0 146.0 L 167.0 144.0 L 172.0 144.0 L 175.0 143.0 L 176.0 143.0 L 177.0 146.0 L 180.0 153.0 L 183.0 164.0 L 186.0 176.0 L 187.0 185.0 L 187.0 191.0 L 187.0 193.0 L 186.0 193.0 L 181.0 193.0 L 175.0 191.0 " stroke="black" fill="none" stroke-width="5.0" stroke-linecap="round" stroke-linejoin="round" />
<path d="M 163.0 120.0 L 163.0 120.0 L 163.0 120.0 L 163.0 121.0 L 162.0 128.0 L 161.0 146.0 L 157.0 173.0 L 151.0 197.0 L 147.0 205.0 " stroke="black" fill="none" stroke-width="5.0" stroke-linecap="round" stroke-linejoin="round" />
</svg>