<svg xmlns="http://www.w3.org/2000/svg" width="300" height="300" viewBox="0 0 300 300">
<path d="M 120.0 115.0 L 120.0 115.0 L 121.0 115.0 L 121.0 115.0 L 121.0 115.0 L 122.0 115.0 L 122.0 117.0 L 122.0 122.0 L 122.0 130.0 L 122.0 136.0 L 123.0 139.0 L 128.0 139.0 L 133.0 138.0 L 137.0 136.0 " stroke="black" fill="none" stroke-width="5.0" stroke-linecap="round" stroke-linejoin="round" />
<path d="M 137.0 117.0 L 137.0 116.0 L 137.0 115.0 L 137.0 115.0 L 137.0 115.0 L 138.0 117.0 L 138.0 124.0 L 139.0 131.0 L 139.0 134.0 " stroke="black" fill="none" stroke-width="5.0" stroke-linecap="round" stroke-linejoin="round" />
<path d="M 107.0 131.0 L 107.0 131.0 L 107.0 131.0 L 107.0 131.0 L 113.0 130.0 L 128.0 127.0 L 142.0 126.0 L 149.0 125.0 L 150.0 125.0 " stroke="black" fill="none" stroke-width="5.0" stroke-linecap="round" stroke-linejoin="round" />
<path d="M 120.0 153.0 L 120.0 153.0 L 120.0 154.0 L 119.0 154.0 L 119.0 155.0 L 119.0 157.0 L 119.0 159.0 L 121.0 162.0 L 121.0 163.0 " stroke="black" fill="none" stroke-width="5.0" stroke-linecap="round" stroke-linejoin="round" />
<path d="M 119.0 154.0 L 119.0 154.0 L 119.0 154.0 L 120.0 154.0 L 122.0 153.0 L 126.0 152.0 L 131.0 152.0 L 136.0 151.0 L 140.0 151.0 L 143.0 152.0 L 144.0 154.0 L 144.0 158.0 L 144.0 162.0 L 143.0 163.0 " stroke="black" fill="none" stroke-width="5.0" stroke-linecap="round" stroke-linejoin="round" />
<path d="M 121.0 167.0 L 121.0 167.0 L 121.0 168.0 L 123.0 168.0 L 129.0 167.0 L 136.0 165.0 L 141.0 164.0 L 142.0 164.0 " stroke="black" fill="none" stroke-width="5.0" stroke-linecap="round" stroke-linejoin="round" />
<path d="M 110.0 182.0 L 110.0 182.0 L 110.0 182.0 L 112.0 182.0 L 121.0 181.0 L 134.0 180.0 L 144.0 179.0 L 149.0 178.0 " stroke="black" fill="none" stroke-width="5.0" stroke-linecap="round" stroke-linejoin="round" />
<path d="M 131.0 143.0 L 131.0 143.0 L 130.0 143.0 L 130.0 143.0 L 130.0 149.0 L 132.0 166.0 L 134.0 187.0 L 134.0 202.0 L 134.0 207.0 L 134.0 207.0 " stroke="black" fill="none" stroke-width="5.0" stroke-linecap="round" stroke-linejoin="round" />
<path d="M 156.0 140.0 L 156.0 140.0 L 156.0 140.0 L 156.0 140.0 L 156.0 140.0 L 157.0 140.0 L 160.0 139.0 L 166.0 138.0 L 173.0 137.0 L 177.0 135.0 L 179.0 135.0 L 180.0 135.0 L 180.0 135.0 L 181.0 138.0 L 183.0 143.0 L 186.0 152.0 L 189.0 165.0 L 192.0 181.0 L 193.0 191.0 L 194.0 197.0 L 193.0 198.0 L 190.0 198.0 L 185.0 195.0 L 179.0 192.0 " stroke="black" fill="none" stroke-width="5.0" stroke-linecap="round" stroke-linejoin="round" />
<path d="M 170.0 114.0 L 170.0 114.0 L 169.0 114.0 L 168.0 114.0 L 167.0 120.0 L 165.0 141.0 L 161.0 175.0 L 156.0 201.0 L 154.0 209.0 " stroke="black" fill="none" stroke-width="5.0" stroke-linecap="round" stroke-linejoin="round" />
</svg>