<svg xmlns="http://www.w3.org/2000/svg" width="300" height="300" viewBox="0 0 300 300">
<path d="M 142.0 106.0 L 142.0 106.0 L 141.0 106.0 L 141.0 106.0 L 141.0 109.0 L 144.0 114.0 L 148.0 120.0 " stroke="black" fill="none" stroke-width="5.0" stroke-linecap="round" stroke-linejoin="round" />
<path d="M 161.0 106.0 L 161.0 106.0 L 161.0 107.0 L 160.0 109.0 L 159.0 115.0 L 156.0 124.0 " stroke="black" fill="none" stroke-width="5.0" stroke-linecap="round" stroke-linejoin="round" />
<path d="M 123.0 137.0 L 123.0 137.0 L 123.0 137.0 L 123.0 137.0 L 127.0 137.0 L 139.0 136.0 L 156.0 136.0 L 170.0 136.0 L 181.0 136.0 L 183.0 137.0 " stroke="black" fill="none" stroke-width="5.0" stroke-linecap="round" stroke-linejoin="round" />
<path d="M 127.0 152.0 L 127.0 152.0 L 127.0 152.0 L 127.0 152.0 L 126.0 156.0 L 124.0 171.0 L 119.0 190.0 L 116.0 202.0 L 116.0 203.0 " stroke="black" fill="none" stroke-width="5.0" stroke-linecap="round" stroke-linejoin="round" />
<path d="M 128.0 153.0 L 128.0 153.0 L 128.0 152.0 L 128.0 151.0 L 129.0 150.0 L 131.0 150.0 L 134.0 150.0 L 137.0 150.0 L 140.0 151.0 L 143.0 155.0 L 145.0 163.0 L 147.0 174.0 L 148.0 186.0 L 148.0 195.0 L 148.0 201.0 L 147.0 203.0 L 144.0 203.0 L 139.0 202.0 L 135.0 200.0 " stroke="black" fill="none" stroke-width="5.0" stroke-linecap="round" stroke-linejoin="round" />
<path d="M 128.0 167.0 L 128.0 167.0 L 128.0 167.0 L 129.0 167.0 L 132.0 167.0 L 136.0 167.0 L 142.0 168.0 L 143.0 168.0 " stroke="black" fill="none" stroke-width="5.0" stroke-linecap="round" stroke-linejoin="round" />
<path d="M 127.0 183.0 L 128.0 183.0 L 132.0 184.0 L 139.0 184.0 L 142.0 184.0 " stroke="black" fill="none" stroke-width="5.0" stroke-linecap="round" stroke-linejoin="round" />
<path d="M 160.0 153.0 L 160.0 154.0 L 159.0 156.0 L 159.0 160.0 L 161.0 166.0 L 162.0 173.0 L 162.0 174.0 " stroke="black" fill="none" stroke-width="5.0" stroke-linecap="round" stroke-linejoin="round" />
<path d="M 174.0 149.0 L 174.0 149.0 L 175.0 149.0 L 176.0 152.0 L 177.0 159.0 L 181.0 175.0 L 185.0 191.0 L 187.0 202.0 L 187.0 206.0 L 186.0 206.0 L 181.0 206.0 L 173.0 206.0 L 167.0 205.0 " stroke="black" fill="none" stroke-width="5.0" stroke-linecap="round" stroke-linejoin="round" />
</svg>