<svg xmlns="http://www.w3.org/2000/svg" width="300" height="300" viewBox="0 0 300 300">
<path d="M 137.0 111.0 L 137.0 111.0 L 137.0 111.0 L 137.0 112.0 L 136.0 114.0 L 133.0 119.0 L 127.0 129.0 L 116.0 141.0 " stroke="black" fill="none" stroke-width="5.0" stroke-linecap="round" stroke-linejoin="round" />
<path d="M 106.0 154.0 L 106.0 154.0 L 106.0 154.0 L 108.0 154.0 L 114.0 154.0 L 127.0 153.0 L 141.0 151.0 L 144.0 151.0 " stroke="black" fill="none" stroke-width="5.0" stroke-linecap="round" stroke-linejoin="round" />
<path d="M 127.0 126.0 L 127.0 127.0 L 127.0 130.0 L 128.0 140.0 L 130.0 159.0 L 133.0 180.0 L 133.0 185.0 L 133.0 185.0 " stroke="black" fill="none" stroke-width="5.0" stroke-linecap="round" stroke-linejoin="round" />
<path d="M 130.0 151.0 L 128.0 151.0 L 125.0 154.0 L 120.0 159.0 L 112.0 169.0 L 104.0 181.0 L 101.0 184.0 " stroke="black" fill="none" stroke-width="5.0" stroke-linecap="round" stroke-linejoin="round" />
<path d="M 129.0 161.0 L 133.0 163.0 L 138.0 167.0 L 145.0 173.0 L 148.0 176.0 " stroke="black" fill="none" stroke-width="5.0" stroke-linecap="round" stroke-linejoin="round" />
<path d="M 158.0 135.0 L 158.0 136.0 L 158.0 139.0 L 159.0 143.0 L 160.0 150.0 L 160.0 152.0 " stroke="black" fill="none" stroke-width="5.0" stroke-linecap="round" stroke-linejoin="round" />
<path d="M 171.0 113.0 L 171.0 113.0 L 171.0 113.0 L 172.0 113.0 L 174.0 123.0 L 178.0 144.0 L 183.0 168.0 L 187.0 185.0 L 188.0 193.0 L 189.0 197.0 L 187.0 198.0 L 182.0 197.0 L 170.0 196.0 " stroke="black" fill="none" stroke-width="5.0" stroke-linecap="round" stroke-linejoin="round" />
</svg>