<svg xmlns="http://www.w3.org/2000/svg" width="300" height="300" viewBox="0 0 300 300">
<path d="M 120.0 111.0 L 120.0 111.0 L 120.0 111.0 L 120.0 111.0 L 120.0 112.0 L 119.0 120.0 L 117.0 136.0 L 113.0 158.0 L 110.0 176.0 L 109.0 184.0 L 110.0 186.0 L 111.0 185.0 " stroke="black" fill="none" stroke-width="5.0" stroke-linecap="round" stroke-linejoin="round" />
<path d="M 121.0 114.0 L 121.0 114.0 L 121.0 114.0 L 122.0 114.0 L 124.0 114.0 L 128.0 114.0 L 131.0 114.0 L 134.0 114.0 L 135.0 114.0 L 137.0 117.0 L 138.0 127.0 L 139.0 143.0 L 140.0 160.0 L 140.0 174.0 L 139.0 182.0 L 138.0 186.0 L 135.0 186.0 L 131.0 185.0 L 124.0 181.0 L 122.0 180.0 " stroke="black" fill="none" stroke-width="5.0" stroke-linecap="round" stroke-linejoin="round" />
<path d="M 119.0 137.0 L 119.0 137.0 L 120.0 137.0 L 121.0 137.0 L 124.0 138.0 L 130.0 138.0 L 135.0 138.0 L 137.0 138.0 " stroke="black" fill="none" stroke-width="5.0" stroke-linecap="round" stroke-linejoin="round" />
<path d="M 115.0 155.0 L 116.0 155.0 L 117.0 156.0 L 120.0 156.0 L 127.0 156.0 L 133.0 155.0 " stroke="black" fill="none" stroke-width="5.0" stroke-linecap="round" stroke-linejoin="round" />
<path d="M 152.0 116.0 L 152.0 116.0 L 152.0 116.0 L 152.0 116.0 L 152.0 118.0 L 154.0 120.0 L 154.0 121.0 " stroke="black" fill="none" stroke-width="5.0" stroke-linecap="round" stroke-linejoin="round" />
<path d="M 168.0 114.0 L 168.0 114.0 L 168.0 115.0 L 168.0 116.0 L 168.0 118.0 L 168.0 120.0 L 168.0 122.0 " stroke="black" fill="none" stroke-width="5.0" stroke-linecap="round" stroke-linejoin="round" />
<path d="M 150.0 133.0 L 150.0 133.0 L 150.0 133.0 L 151.0 134.0 L 153.0 134.0 L 158.0 133.0 L 163.0 132.0 L 169.0 131.0 L 171.0 131.0 " stroke="black" fill="none" stroke-width="5.0" stroke-linecap="round" stroke-linejoin="round" />
<path d="M 146.0 147.0 L 146.0 147.0 L 146.0 147.0 L 148.0 147.0 L 152.0 147.0 L 160.0 147.0 L 169.0 145.0 L 177.0 144.0 L 181.0 143.0 " stroke="black" fill="none" stroke-width="5.0" stroke-linecap="round" stroke-linejoin="round" />
<path d="M 159.0 114.0 L 159.0 114.0 L 159.0 114.0 L 159.0 115.0 L 159.0 118.0 L 158.0 127.0 L 156.0 141.0 L 151.0 155.0 L 146.0 163.0 L 144.0 165.0 " stroke="black" fill="none" stroke-width="5.0" stroke-linecap="round" stroke-linejoin="round" />
<path d="M 168.0 144.0 L 169.0 145.0 L 172.0 148.0 L 176.0 152.0 L 181.0 155.0 L 185.0 158.0 L 188.0 159.0 " stroke="black" fill="none" stroke-width="5.0" stroke-linecap="round" stroke-linejoin="round" />
<path d="M 153.0 165.0 L 153.0 165.0 L 153.0 165.0 L 154.0 165.0 L 154.0 166.0 L 157.0 166.0 L 162.0 165.0 L 168.0 164.0 L 173.0 164.0 L 177.0 163.0 L 179.0 164.0 L 180.0 168.0 L 181.0 174.0 L 182.0 180.0 L 183.0 186.0 L 183.0 189.0 L 183.0 190.0 L 180.0 190.0 L 175.0 189.0 L 169.0 186.0 " stroke="black" fill="none" stroke-width="5.0" stroke-linecap="round" stroke-linejoin="round" />
<path d="M 165.0 152.0 L 165.0 153.0 L 164.0 154.0 L 163.0 158.0 L 161.0 166.0 L 158.0 179.0 L 154.0 193.0 L 153.0 195.0 " stroke="black" fill="none" stroke-width="5.0" stroke-linecap="round" stroke-linejoin="round" />
</svg>