<svg xmlns="http://www.w3.org/2000/svg" width="300" height="300" viewBox="0 0 300 300">
<path d="M 121.0 111.0 L 121.0 111.0 L 121.0 111.0 L 122.0 111.0 L 122.0 111.0 L 122.0 111.0 L 123.0 112.0 L 123.0 115.0 L 123.0 119.0 L 123.0 125.0 L 124.0 130.0 L 126.0 133.0 L 130.0 133.0 L 135.0 132.0 L 136.0 131.0 " stroke="black" fill="none" stroke-width="5.0" stroke-linecap="round" stroke-linejoin="round" />
<path d="M 138.0 109.0 L 138.0 109.0 L 138.0 109.0 L 137.0 108.0 L 137.0 109.0 L 137.0 114.0 L 139.0 122.0 L 139.0 126.0 " stroke="black" fill="none" stroke-width="5.0" stroke-linecap="round" stroke-linejoin="round" />
<path d="M 107.0 121.0 L 107.0 121.0 L 107.0 121.0 L 110.0 121.0 L 120.0 121.0 L 134.0 119.0 L 146.0 118.0 L 152.0 118.0 L 153.0 118.0 " stroke="black" fill="none" stroke-width="5.0" stroke-linecap="round" stroke-linejoin="round" />
<path d="M 115.0 146.0 L 115.0 146.0 L 115.0 146.0 L 115.0 146.0 L 115.0 148.0 L 115.0 150.0 L 115.0 151.0 " stroke="black" fill="none" stroke-width="5.0" stroke-linecap="round" stroke-linejoin="round" />
<path d="M 116.0 145.0 L 117.0 145.0 L 118.0 145.0 L 119.0 145.0 L 122.0 145.0 L 128.0 144.0 L 135.0 143.0 L 141.0 143.0 L 146.0 143.0 L 148.0 145.0 L 149.0 148.0 L 149.0 152.0 L 148.0 154.0 L 148.0 155.0 " stroke="black" fill="none" stroke-width="5.0" stroke-linecap="round" stroke-linejoin="round" />
<path d="M 116.0 158.0 L 115.0 159.0 L 114.0 159.0 L 114.0 160.0 L 117.0 160.0 L 125.0 159.0 L 135.0 159.0 L 143.0 159.0 L 148.0 159.0 L 150.0 158.0 " stroke="black" fill="none" stroke-width="5.0" stroke-linecap="round" stroke-linejoin="round" />
<path d="M 123.0 168.0 L 123.0 168.0 L 123.0 168.0 L 123.0 168.0 L 124.0 169.0 L 126.0 169.0 L 131.0 169.0 L 136.0 169.0 L 139.0 169.0 L 141.0 169.0 " stroke="black" fill="none" stroke-width="5.0" stroke-linecap="round" stroke-linejoin="round" />
<path d="M 123.0 182.0 L 123.0 182.0 L 124.0 182.0 L 126.0 182.0 L 129.0 182.0 L 133.0 181.0 L 138.0 181.0 L 142.0 181.0 L 144.0 181.0 " stroke="black" fill="none" stroke-width="5.0" stroke-linecap="round" stroke-linejoin="round" />
<path d="M 111.0 197.0 L 111.0 197.0 L 112.0 198.0 L 116.0 199.0 L 125.0 198.0 L 138.0 197.0 L 149.0 195.0 L 154.0 195.0 " stroke="black" fill="none" stroke-width="5.0" stroke-linecap="round" stroke-linejoin="round" />
<path d="M 131.0 136.0 L 131.0 136.0 L 130.0 136.0 L 130.0 136.0 L 129.0 142.0 L 132.0 158.0 L 135.0 178.0 L 136.0 191.0 L 136.0 192.0 " stroke="black" fill="none" stroke-width="5.0" stroke-linecap="round" stroke-linejoin="round" />
<path d="M 156.0 142.0 L 156.0 142.0 L 156.0 143.0 L 156.0 143.0 L 159.0 143.0 L 165.0 143.0 L 173.0 143.0 L 178.0 142.0 L 182.0 142.0 L 183.0 142.0 L 183.0 142.0 L 184.0 144.0 L 186.0 149.0 L 189.0 159.0 L 191.0 173.0 L 192.0 185.0 L 192.0 192.0 L 192.0 195.0 L 190.0 195.0 L 187.0 194.0 L 180.0 192.0 L 176.0 190.0 " stroke="black" fill="none" stroke-width="5.0" stroke-linecap="round" stroke-linejoin="round" />
<path d="M 173.0 116.0 L 172.0 116.0 L 172.0 116.0 L 171.0 119.0 L 171.0 135.0 L 170.0 164.0 L 165.0 190.0 L 160.0 203.0 " stroke="black" fill="none" stroke-width="5.0" stroke-linecap="round" stroke-linejoin="round" />
</svg>