<svg xmlns="http://www.w3.org/2000/svg" width="300" height="300" viewBox="0 0 300 300">
<path d="M 131.0 108.0 L 131.0 108.0 L 131.0 109.0 L 130.0 110.0 L 130.0 113.0 L 130.0 122.0 L 131.0 131.0 L 132.0 137.0 L 132.0 138.0 " stroke="black" fill="none" stroke-width="5.0" stroke-linecap="round" stroke-linejoin="round" />
<path d="M 114.0 122.0 L 114.0 122.0 L 114.0 123.0 L 114.0 123.0 L 114.0 124.0 L 117.0 127.0 L 119.0 130.0 " stroke="black" fill="none" stroke-width="5.0" stroke-linecap="round" stroke-linejoin="round" />
<path d="M 143.0 121.0 L 143.0 121.0 L 143.0 123.0 L 143.0 125.0 L 142.0 128.0 L 139.0 133.0 L 135.0 139.0 " stroke="black" fill="none" stroke-width="5.0" stroke-linecap="round" stroke-linejoin="round" />
<path d="M 113.0 148.0 L 113.0 148.0 L 113.0 148.0 L 113.0 148.0 L 113.0 148.0 L 113.0 149.0 L 113.0 155.0 L 113.0 167.0 L 112.0 181.0 L 111.0 191.0 L 110.0 193.0 " stroke="black" fill="none" stroke-width="5.0" stroke-linecap="round" stroke-linejoin="round" />
<path d="M 118.0 141.0 L 119.0 141.0 L 119.0 141.0 L 119.0 141.0 L 122.0 140.0 L 126.0 140.0 L 132.0 140.0 L 138.0 139.0 L 142.0 139.0 L 144.0 139.0 L 145.0 139.0 L 146.0 144.0 L 148.0 154.0 L 150.0 167.0 L 151.0 178.0 L 152.0 187.0 L 152.0 191.0 L 151.0 192.0 L 147.0 192.0 L 138.0 190.0 L 135.0 189.0 " stroke="black" fill="none" stroke-width="5.0" stroke-linecap="round" stroke-linejoin="round" />
<path d="M 119.0 155.0 L 119.0 155.0 L 119.0 155.0 L 120.0 155.0 L 122.0 155.0 L 129.0 155.0 L 138.0 155.0 L 143.0 155.0 L 144.0 155.0 " stroke="black" fill="none" stroke-width="5.0" stroke-linecap="round" stroke-linejoin="round" />
<path d="M 116.0 169.0 L 117.0 170.0 L 119.0 171.0 L 125.0 172.0 L 134.0 172.0 L 144.0 171.0 " stroke="black" fill="none" stroke-width="5.0" stroke-linecap="round" stroke-linejoin="round" />
<path d="M 161.0 136.0 L 161.0 136.0 L 161.0 136.0 L 161.0 137.0 L 161.0 142.0 L 161.0 150.0 L 161.0 158.0 " stroke="black" fill="none" stroke-width="5.0" stroke-linecap="round" stroke-linejoin="round" />
<path d="M 178.0 117.0 L 178.0 117.0 L 178.0 118.0 L 178.0 119.0 L 178.0 124.0 L 182.0 138.0 L 186.0 158.0 L 189.0 176.0 L 190.0 186.0 L 190.0 190.0 L 190.0 191.0 L 189.0 191.0 L 183.0 191.0 L 174.0 188.0 " stroke="black" fill="none" stroke-width="5.0" stroke-linecap="round" stroke-linejoin="round" />
</svg>