<svg xmlns="http://www.w3.org/2000/svg" width="300" height="300" viewBox="0 0 300 300">
<path d="M 120.0 120.0 L 120.0 120.0 L 120.0 120.0 L 120.0 121.0 L 120.0 123.0 L 122.0 126.0 L 123.0 128.0 " stroke="black" fill="none" stroke-width="5.0" stroke-linecap="round" stroke-linejoin="round" />
<path d="M 111.0 137.0 L 111.0 137.0 L 111.0 137.0 L 112.0 137.0 L 114.0 138.0 L 119.0 138.0 L 127.0 137.0 L 132.0 136.0 L 134.0 136.0 L 135.0 136.0 L 131.0 138.0 L 127.0 142.0 L 120.0 149.0 L 113.0 158.0 L 104.0 167.0 L 97.0 174.0 L 95.0 176.0 " stroke="black" fill="none" stroke-width="5.0" stroke-linecap="round" stroke-linejoin="round" />
<path d="M 119.0 156.0 L 119.0 156.0 L 119.0 156.0 L 119.0 158.0 L 120.0 164.0 L 120.0 174.0 L 120.0 185.0 L 120.0 191.0 " stroke="black" fill="none" stroke-width="5.0" stroke-linecap="round" stroke-linejoin="round" />
<path d="M 120.0 165.0 L 121.0 164.0 L 122.0 163.0 L 124.0 163.0 L 129.0 166.0 L 137.0 172.0 L 143.0 177.0 L 147.0 179.0 " stroke="black" fill="none" stroke-width="5.0" stroke-linecap="round" stroke-linejoin="round" />
<path d="M 135.0 167.0 L 135.0 167.0 L 135.0 167.0 L 135.0 167.0 L 135.0 167.0 L 136.0 165.0 L 141.0 160.0 " stroke="black" fill="none" stroke-width="5.0" stroke-linecap="round" stroke-linejoin="round" />
<path d="M 153.0 134.0 L 153.0 134.0 L 153.0 134.0 L 153.0 134.0 L 154.0 134.0 L 160.0 134.0 L 168.0 133.0 L 175.0 133.0 L 179.0 133.0 L 181.0 133.0 L 182.0 135.0 L 184.0 141.0 L 187.0 154.0 L 190.0 169.0 L 192.0 185.0 L 192.0 195.0 L 192.0 199.0 L 190.0 200.0 L 186.0 200.0 L 179.0 200.0 L 167.0 197.0 " stroke="black" fill="none" stroke-width="5.0" stroke-linecap="round" stroke-linejoin="round" />
<path d="M 163.0 141.0 L 163.0 140.0 L 163.0 139.0 L 163.0 139.0 L 163.0 138.0 L 163.0 146.0 L 161.0 166.0 L 154.0 189.0 L 149.0 199.0 " stroke="black" fill="none" stroke-width="5.0" stroke-linecap="round" stroke-linejoin="round" />
</svg>