<svg xmlns="http://www.w3.org/2000/svg" width="300" height="300" viewBox="0 0 300 300">
<path d="M 116.0 118.0 L 116.0 118.0 L 116.0 119.0 L 115.0 120.0 L 115.0 120.0 L 121.0 120.0 L 130.0 118.0 L 138.0 116.0 L 142.0 115.0 " stroke="black" fill="none" stroke-width="5.0" stroke-linecap="round" stroke-linejoin="round" />
<path d="M 127.0 122.0 L 127.0 122.0 L 127.0 122.0 L 127.0 122.0 L 127.0 122.0 L 127.0 122.0 L 126.0 123.0 L 122.0 130.0 L 118.0 139.0 L 115.0 146.0 L 115.0 149.0 L 120.0 149.0 L 129.0 147.0 L 137.0 145.0 L 138.0 145.0 " stroke="black" fill="none" stroke-width="5.0" stroke-linecap="round" stroke-linejoin="round" />
<path d="M 137.0 137.0 L 137.0 137.0 L 137.0 137.0 L 137.0 138.0 L 139.0 143.0 L 142.0 150.0 L 143.0 151.0 " stroke="black" fill="none" stroke-width="5.0" stroke-linecap="round" stroke-linejoin="round" />
<path d="M 115.0 163.0 L 116.0 163.0 L 117.0 163.0 L 121.0 163.0 L 127.0 163.0 L 134.0 162.0 L 138.0 162.0 L 138.0 162.0 " stroke="black" fill="none" stroke-width="5.0" stroke-linecap="round" stroke-linejoin="round" />
<path d="M 111.0 183.0 L 113.0 183.0 L 115.0 183.0 L 121.0 183.0 L 131.0 183.0 L 141.0 182.0 L 144.0 182.0 " stroke="black" fill="none" stroke-width="5.0" stroke-linecap="round" stroke-linejoin="round" />
<path d="M 130.0 151.0 L 130.0 151.0 L 130.0 151.0 L 130.0 154.0 L 132.0 162.0 L 133.0 171.0 L 133.0 175.0 " stroke="black" fill="none" stroke-width="5.0" stroke-linecap="round" stroke-linejoin="round" />
<path d="M 154.0 136.0 L 154.0 136.0 L 154.0 136.0 L 154.0 137.0 L 155.0 144.0 L 156.0 153.0 L 157.0 158.0 " stroke="black" fill="none" stroke-width="5.0" stroke-linecap="round" stroke-linejoin="round" />
<path d="M 171.0 116.0 L 171.0 116.0 L 171.0 118.0 L 171.0 120.0 L 174.0 128.0 L 178.0 145.0 L 182.0 167.0 L 184.0 185.0 L 185.0 191.0 L 185.0 193.0 L 184.0 192.0 L 178.0 190.0 L 166.0 187.0 L 160.0 186.0 " stroke="black" fill="none" stroke-width="5.0" stroke-linecap="round" stroke-linejoin="round" />
</svg>