<svg xmlns="http://www.w3.org/2000/svg" width="300" height="300" viewBox="0 0 300 300">
<path d="M 124.0 108.0 L 124.0 108.0 L 125.0 109.0 L 126.0 111.0 L 128.0 116.0 L 129.0 119.0 " stroke="black" fill="none" stroke-width="5.0" stroke-linecap="round" stroke-linejoin="round" />
<path d="M 112.0 127.0 L 112.0 127.0 L 112.0 127.0 L 112.0 128.0 L 114.0 128.0 L 119.0 127.0 L 126.0 126.0 L 133.0 125.0 L 138.0 124.0 L 138.0 124.0 " stroke="black" fill="none" stroke-width="5.0" stroke-linecap="round" stroke-linejoin="round" />
<path d="M 123.0 132.0 L 123.0 132.0 L 123.0 132.0 L 123.0 132.0 L 123.0 132.0 L 123.0 132.0 L 122.0 136.0 L 118.0 142.0 L 114.0 149.0 L 112.0 154.0 L 113.0 156.0 L 119.0 157.0 L 122.0 156.0 " stroke="black" fill="none" stroke-width="5.0" stroke-linecap="round" stroke-linejoin="round" />
<path d="M 135.0 147.0 L 135.0 147.0 L 135.0 147.0 L 135.0 147.0 L 134.0 147.0 L 133.0 150.0 L 130.0 155.0 L 124.0 164.0 L 117.0 174.0 L 114.0 178.0 " stroke="black" fill="none" stroke-width="5.0" stroke-linecap="round" stroke-linejoin="round" />
<path d="M 137.0 160.0 L 137.0 160.0 L 137.0 160.0 L 137.0 161.0 L 137.0 161.0 L 137.0 163.0 L 134.0 168.0 L 127.0 177.0 L 119.0 186.0 L 116.0 190.0 " stroke="black" fill="none" stroke-width="5.0" stroke-linecap="round" stroke-linejoin="round" />
<path d="M 128.0 177.0 L 128.0 177.0 L 128.0 177.0 L 130.0 177.0 L 133.0 181.0 L 139.0 188.0 L 143.0 194.0 " stroke="black" fill="none" stroke-width="5.0" stroke-linecap="round" stroke-linejoin="round" />
<path d="M 153.0 142.0 L 153.0 143.0 L 153.0 144.0 L 154.0 147.0 L 155.0 151.0 " stroke="black" fill="none" stroke-width="5.0" stroke-linecap="round" stroke-linejoin="round" />
<path d="M 174.0 114.0 L 173.0 114.0 L 172.0 114.0 L 172.0 117.0 L 174.0 126.0 L 178.0 144.0 L 181.0 163.0 L 183.0 178.0 L 184.0 188.0 L 184.0 192.0 L 184.0 192.0 L 181.0 191.0 L 174.0 187.0 L 168.0 185.0 " stroke="black" fill="none" stroke-width="5.0" stroke-linecap="round" stroke-linejoin="round" />
</svg>