<svg xmlns="http://www.w3.org/2000/svg" width="300" height="300" viewBox="0 0 300 300">
<path d="M 117.0 114.0 L 117.0 114.0 L 118.0 114.0 L 120.0 114.0 L 125.0 114.0 L 138.0 112.0 L 154.0 110.0 L 167.0 109.0 L 175.0 109.0 L 175.0 109.0 " stroke="black" fill="none" stroke-width="5.0" stroke-linecap="round" stroke-linejoin="round" />
<path d="M 119.0 121.0 L 119.0 121.0 L 119.0 121.0 L 120.0 121.0 L 120.0 121.0 L 120.0 123.0 L 120.0 133.0 L 118.0 151.0 L 113.0 172.0 L 109.0 185.0 " stroke="black" fill="none" stroke-width="5.0" stroke-linecap="round" stroke-linejoin="round" />
<path d="M 133.0 129.0 L 133.0 129.0 L 133.0 129.0 L 133.0 131.0 L 134.0 134.0 L 136.0 137.0 " stroke="black" fill="none" stroke-width="5.0" stroke-linecap="round" stroke-linejoin="round" />
<path d="M 144.0 128.0 L 144.0 128.0 L 144.0 128.0 L 144.0 130.0 L 143.0 134.0 L 143.0 139.0 " stroke="black" fill="none" stroke-width="5.0" stroke-linecap="round" stroke-linejoin="round" />
<path d="M 127.0 148.0 L 127.0 148.0 L 127.0 148.0 L 128.0 148.0 L 131.0 148.0 L 137.0 147.0 L 144.0 147.0 L 149.0 147.0 L 149.0 147.0 " stroke="black" fill="none" stroke-width="5.0" stroke-linecap="round" stroke-linejoin="round" />
<path d="M 129.0 159.0 L 129.0 160.0 L 129.0 161.0 L 129.0 163.0 L 129.0 165.0 L 129.0 167.0 L 129.0 169.0 L 132.0 170.0 L 138.0 170.0 L 145.0 169.0 L 148.0 169.0 " stroke="black" fill="none" stroke-width="5.0" stroke-linecap="round" stroke-linejoin="round" />
<path d="M 148.0 158.0 L 148.0 159.0 L 148.0 161.0 L 149.0 165.0 L 149.0 168.0 " stroke="black" fill="none" stroke-width="5.0" stroke-linecap="round" stroke-linejoin="round" />
<path d="M 140.0 152.0 L 140.0 152.0 L 139.0 152.0 L 139.0 152.0 L 139.0 158.0 L 138.0 172.0 L 134.0 189.0 L 133.0 194.0 " stroke="black" fill="none" stroke-width="5.0" stroke-linecap="round" stroke-linejoin="round" />
<path d="M 161.0 127.0 L 161.0 128.0 L 161.0 129.0 L 161.0 131.0 L 160.0 135.0 L 158.0 141.0 L 156.0 146.0 " stroke="black" fill="none" stroke-width="5.0" stroke-linecap="round" stroke-linejoin="round" />
<path d="M 159.0 137.0 L 160.0 137.0 L 162.0 136.0 L 165.0 135.0 L 170.0 134.0 L 176.0 134.0 L 180.0 134.0 L 182.0 135.0 L 182.0 139.0 L 180.0 143.0 L 178.0 147.0 L 177.0 148.0 " stroke="black" fill="none" stroke-width="5.0" stroke-linecap="round" stroke-linejoin="round" />
<path d="M 164.0 145.0 L 164.0 145.0 L 164.0 145.0 L 164.0 145.0 L 164.0 148.0 L 162.0 156.0 L 158.0 170.0 L 152.0 184.0 L 148.0 194.0 " stroke="black" fill="none" stroke-width="5.0" stroke-linecap="round" stroke-linejoin="round" />
<path d="M 158.0 170.0 L 158.0 170.0 L 158.0 170.0 L 160.0 171.0 L 167.0 178.0 L 180.0 188.0 L 190.0 196.0 L 193.0 198.0 " stroke="black" fill="none" stroke-width="5.0" stroke-linecap="round" stroke-linejoin="round" />
</svg>