<svg xmlns="http://www.w3.org/2000/svg" width="300" height="300" viewBox="0 0 300 300">
<path d="M 123.0 128.0 L 123.0 128.0 L 123.0 128.0 L 123.0 128.0 L 124.0 132.0 L 124.0 138.0 L 126.0 145.0 L 126.0 148.0 " stroke="black" fill="none" stroke-width="5.0" stroke-linecap="round" stroke-linejoin="round" />
<path d="M 122.0 128.0 L 122.0 128.0 L 123.0 128.0 L 124.0 128.0 L 126.0 128.0 L 132.0 128.0 L 143.0 127.0 L 155.0 126.0 L 164.0 126.0 L 170.0 126.0 L 173.0 130.0 L 173.0 136.0 L 173.0 142.0 L 172.0 146.0 L 172.0 150.0 " stroke="black" fill="none" stroke-width="5.0" stroke-linecap="round" stroke-linejoin="round" />
<path d="M 124.0 154.0 L 124.0 154.0 L 125.0 154.0 L 128.0 154.0 L 135.0 154.0 L 147.0 153.0 L 157.0 153.0 L 164.0 153.0 L 165.0 153.0 " stroke="black" fill="none" stroke-width="5.0" stroke-linecap="round" stroke-linejoin="round" />
<path d="M 149.0 109.0 L 149.0 112.0 L 149.0 118.0 L 149.0 130.0 L 148.0 146.0 L 146.0 162.0 L 140.0 176.0 L 132.0 187.0 L 128.0 193.0 " stroke="black" fill="none" stroke-width="5.0" stroke-linecap="round" stroke-linejoin="round" />
<path d="M 116.0 168.0 L 116.0 168.0 L 116.0 168.0 L 118.0 168.0 L 127.0 175.0 L 143.0 185.0 L 160.0 192.0 L 173.0 194.0 L 182.0 195.0 L 187.0 195.0 " stroke="black" fill="none" stroke-width="5.0" stroke-linecap="round" stroke-linejoin="round" />
</svg>