<svg xmlns="http://www.w3.org/2000/svg" width="300" height="300" viewBox="0 0 300 300">
<path d="M 121.0 124.0 L 121.0 124.0 L 121.0 124.0 L 121.0 124.0 L 126.0 124.0 L 142.0 123.0 L 162.0 120.0 L 176.0 118.0 " stroke="black" fill="none" stroke-width="5.0" stroke-linecap="round" stroke-linejoin="round" />
<path d="M 154.0 106.0 L 154.0 106.0 L 153.0 108.0 L 152.0 112.0 L 150.0 123.0 L 146.0 140.0 L 144.0 150.0 " stroke="black" fill="none" stroke-width="5.0" stroke-linecap="round" stroke-linejoin="round" />
<path d="M 129.0 156.0 L 128.0 156.0 L 127.0 157.0 L 126.0 159.0 L 126.0 166.0 L 126.0 179.0 L 128.0 189.0 L 130.0 192.0 " stroke="black" fill="none" stroke-width="5.0" stroke-linecap="round" stroke-linejoin="round" />
<path d="M 134.0 154.0 L 134.0 154.0 L 134.0 154.0 L 135.0 154.0 L 138.0 154.0 L 144.0 154.0 L 153.0 153.0 L 163.0 153.0 L 171.0 153.0 L 177.0 157.0 L 178.0 164.0 L 178.0 177.0 L 178.0 190.0 L 178.0 192.0 " stroke="black" fill="none" stroke-width="5.0" stroke-linecap="round" stroke-linejoin="round" />
<path d="M 133.0 190.0 L 133.0 190.0 L 133.0 190.0 L 133.0 191.0 L 137.0 191.0 L 148.0 191.0 L 164.0 190.0 L 175.0 188.0 " stroke="black" fill="none" stroke-width="5.0" stroke-linecap="round" stroke-linejoin="round" />
</svg>