<svg xmlns="http://www.w3.org/2000/svg" width="300" height="300" viewBox="0 0 300 300">
<path d="M 109.0 154.0 L 112.0 154.0 L 117.0 154.0 L 126.0 154.0 L 139.0 154.0 L 152.0 154.0 L 164.0 156.0 L 174.0 157.0 L 182.0 158.0 L 187.0 158.0 L 189.0 158.0 L 189.0 158.0 L 188.0 158.0 " stroke="black" fill="none" stroke-width="5.0" stroke-linecap="round" stroke-linejoin="round" />
<path d="M 140.0 115.0 L 140.0 115.0 L 140.0 115.0 L 140.0 114.0 L 140.0 114.0 L 140.0 114.0 L 140.0 118.0 L 139.0 131.0 L 137.0 153.0 L 136.0 174.0 L 135.0 187.0 L 135.0 192.0 L 136.0 192.0 L 136.0 191.0 L 136.0 191.0 " stroke="black" fill="none" stroke-width="5.0" stroke-linecap="round" stroke-linejoin="round" />
<path d="M 162.0 107.0 L 162.0 107.0 L 163.0 107.0 L 163.0 107.0 L 163.0 111.0 L 163.0 123.0 L 164.0 144.0 L 165.0 165.0 L 165.0 182.0 L 165.0 192.0 L 166.0 196.0 L 166.0 197.0 L 166.0 197.0 L 165.0 197.0 " stroke="black" fill="none" stroke-width="5.0" stroke-linecap="round" stroke-linejoin="round" />
</svg>