<svg xmlns="http://www.w3.org/2000/svg" width="300" height="300" viewBox="0 0 300 300">
<path d="M 132.0 120.0 L 132.0 121.0 L 132.0 122.0 L 133.0 122.0 L 138.0 121.0 L 148.0 119.0 L 158.0 117.0 L 165.0 117.0 L 168.0 119.0 L 169.0 121.0 L 168.0 125.0 L 166.0 130.0 " stroke="black" fill="none" stroke-width="5.0" stroke-linecap="round" stroke-linejoin="round" />
<path d="M 145.0 126.0 L 145.0 126.0 L 145.0 127.0 L 144.0 128.0 L 143.0 134.0 L 137.0 149.0 L 129.0 170.0 L 123.0 182.0 " stroke="black" fill="none" stroke-width="5.0" stroke-linecap="round" stroke-linejoin="round" />
<path d="M 142.0 145.0 L 142.0 145.0 L 142.0 144.0 L 145.0 142.0 L 151.0 140.0 L 159.0 139.0 L 167.0 138.0 L 171.0 138.0 L 172.0 140.0 L 172.0 146.0 L 168.0 157.0 L 162.0 169.0 L 153.0 183.0 L 148.0 191.0 " stroke="black" fill="none" stroke-width="5.0" stroke-linecap="round" stroke-linejoin="round" />
<path d="M 146.0 153.0 L 146.0 153.0 L 147.0 153.0 L 153.0 162.0 L 166.0 181.0 L 179.0 199.0 L 186.0 207.0 L 187.0 208.0 " stroke="black" fill="none" stroke-width="5.0" stroke-linecap="round" stroke-linejoin="round" />
</svg>