<svg xmlns="http://www.w3.org/2000/svg" width="300" height="300" viewBox="0 0 300 300">
<path d="M 149.0 96.0 L 149.0 96.0 L 149.0 96.0 L 149.0 96.0 L 149.0 99.0 L 147.0 104.0 L 142.0 112.0 L 138.0 117.0 " stroke="black" fill="none" stroke-width="5.0" stroke-linecap="round" stroke-linejoin="round" />
<path d="M 146.0 110.0 L 146.0 110.0 L 147.0 110.0 L 148.0 111.0 L 152.0 111.0 L 156.0 111.0 L 159.0 111.0 L 161.0 111.0 L 161.0 114.0 L 160.0 119.0 L 156.0 125.0 L 152.0 131.0 L 152.0 132.0 " stroke="black" fill="none" stroke-width="5.0" stroke-linecap="round" stroke-linejoin="round" />
<path d="M 128.0 137.0 L 128.0 137.0 L 128.0 137.0 L 130.0 137.0 L 138.0 136.0 L 153.0 135.0 L 166.0 133.0 L 173.0 132.0 L 174.0 132.0 L 173.0 132.0 L 172.0 133.0 " stroke="black" fill="none" stroke-width="5.0" stroke-linecap="round" stroke-linejoin="round" />
<path d="M 127.0 144.0 L 127.0 144.0 L 128.0 144.0 L 128.0 145.0 L 128.0 149.0 L 126.0 157.0 L 122.0 172.0 L 116.0 188.0 L 113.0 196.0 L 113.0 197.0 " stroke="black" fill="none" stroke-width="5.0" stroke-linecap="round" stroke-linejoin="round" />
<path d="M 140.0 148.0 L 140.0 148.0 L 140.0 148.0 L 140.0 148.0 L 143.0 148.0 L 147.0 147.0 L 151.0 146.0 L 155.0 146.0 L 158.0 146.0 L 159.0 147.0 L 161.0 151.0 L 162.0 158.0 L 163.0 165.0 L 163.0 171.0 L 163.0 174.0 L 162.0 176.0 L 158.0 176.0 L 153.0 174.0 L 150.0 173.0 " stroke="black" fill="none" stroke-width="5.0" stroke-linecap="round" stroke-linejoin="round" />
<path d="M 142.0 151.0 L 141.0 151.0 L 141.0 151.0 L 140.0 154.0 L 139.0 159.0 L 139.0 170.0 L 139.0 184.0 L 140.0 197.0 L 141.0 204.0 L 144.0 208.0 L 149.0 210.0 L 156.0 211.0 L 165.0 211.0 L 175.0 211.0 L 182.0 211.0 L 187.0 210.0 L 189.0 208.0 L 191.0 205.0 L 191.0 198.0 L 191.0 191.0 " stroke="black" fill="none" stroke-width="5.0" stroke-linecap="round" stroke-linejoin="round" />
</svg>