<svg xmlns="http://www.w3.org/2000/svg" width="300" height="300" viewBox="0 0 300 300">
<path d="M 132.0 106.0 L 132.0 106.0 L 131.0 106.0 L 131.0 106.0 L 131.0 106.0 L 130.0 107.0 L 130.0 109.0 L 128.0 111.0 L 124.0 115.0 L 121.0 119.0 L 117.0 122.0 L 115.0 123.0 L 115.0 124.0 L 115.0 124.0 L 115.0 124.0 L 115.0 124.0 L 115.0 124.0 L 115.0 125.0 L 115.0 126.0 L 115.0 129.0 L 115.0 132.0 L 114.0 136.0 L 113.0 142.0 L 112.0 149.0 L 110.0 158.0 L 109.0 165.0 L 108.0 169.0 L 108.0 170.0 L 109.0 171.0 L 111.0 171.0 L 114.0 172.0 L 120.0 171.0 L 128.0 168.0 L 135.0 165.0 L 139.0 163.0 " stroke="black" fill="none" stroke-width="5.0" stroke-linecap="round" stroke-linejoin="round" />
<path d="M 125.0 136.0 L 125.0 136.0 L 126.0 136.0 L 127.0 138.0 L 128.0 144.0 L 129.0 150.0 " stroke="black" fill="none" stroke-width="5.0" stroke-linecap="round" stroke-linejoin="round" />
<path d="M 143.0 133.0 L 143.0 133.0 L 143.0 135.0 L 142.0 138.0 L 142.0 146.0 L 141.0 159.0 L 136.0 177.0 L 128.0 191.0 L 122.0 197.0 " stroke="black" fill="none" stroke-width="5.0" stroke-linecap="round" stroke-linejoin="round" />
<path d="M 156.0 112.0 L 156.0 112.0 L 156.0 112.0 L 156.0 112.0 L 157.0 112.0 L 158.0 112.0 L 161.0 112.0 L 165.0 112.0 L 170.0 112.0 L 174.0 112.0 L 176.0 112.0 L 177.0 112.0 L 178.0 116.0 L 179.0 123.0 L 181.0 133.0 L 183.0 144.0 L 184.0 154.0 L 185.0 160.0 L 185.0 163.0 L 184.0 163.0 L 180.0 161.0 L 176.0 159.0 " stroke="black" fill="none" stroke-width="5.0" stroke-linecap="round" stroke-linejoin="round" />
<path d="M 154.0 114.0 L 154.0 114.0 L 154.0 114.0 L 154.0 114.0 L 154.0 116.0 L 154.0 127.0 L 155.0 149.0 L 155.0 172.0 L 155.0 187.0 L 156.0 194.0 L 157.0 194.0 L 157.0 194.0 " stroke="black" fill="none" stroke-width="5.0" stroke-linecap="round" stroke-linejoin="round" />
<path d="M 167.0 133.0 L 167.0 133.0 L 167.0 133.0 L 168.0 134.0 L 171.0 138.0 L 176.0 144.0 " stroke="black" fill="none" stroke-width="5.0" stroke-linecap="round" stroke-linejoin="round" />
</svg>