<svg xmlns="http://www.w3.org/2000/svg" width="300" height="300" viewBox="0 0 300 300">
<path d="M 98.0 151.0 L 100.0 151.0 L 102.0 151.0 L 105.0 151.0 L 111.0 151.0 L 125.0 152.0 L 147.0 154.0 L 168.0 154.0 L 184.0 155.0 L 194.0 155.0 L 198.0 155.0 L 201.0 156.0 L 201.0 156.0 L 201.0 156.0 L 201.0 156.0 L 201.0 156.0 " stroke="black" fill="none" stroke-width="5.0" stroke-linecap="round" stroke-linejoin="round" />
<path d="M 119.0 114.0 L 119.0 114.0 L 120.0 114.0 L 120.0 115.0 L 120.0 116.0 L 120.0 119.0 L 120.0 129.0 L 119.0 147.0 L 117.0 165.0 L 113.0 178.0 L 111.0 184.0 L 110.0 184.0 L 110.0 184.0 " stroke="black" fill="none" stroke-width="5.0" stroke-linecap="round" stroke-linejoin="round" />
<path d="M 143.0 112.0 L 143.0 113.0 L 143.0 114.0 L 142.0 117.0 L 142.0 124.0 L 142.0 138.0 L 142.0 157.0 L 140.0 174.0 L 140.0 186.0 L 140.0 189.0 L 140.0 189.0 " stroke="black" fill="none" stroke-width="5.0" stroke-linecap="round" stroke-linejoin="round" />
<path d="M 158.0 109.0 L 158.0 109.0 L 158.0 109.0 L 158.0 110.0 L 158.0 113.0 L 159.0 124.0 L 159.0 144.0 L 159.0 164.0 L 159.0 181.0 L 159.0 192.0 L 159.0 196.0 L 159.0 196.0 " stroke="black" fill="none" stroke-width="5.0" stroke-linecap="round" stroke-linejoin="round" />
<path d="M 180.0 108.0 L 180.0 109.0 L 179.0 110.0 L 179.0 114.0 L 179.0 124.0 L 179.0 145.0 L 181.0 166.0 L 182.0 183.0 L 182.0 192.0 L 182.0 197.0 L 182.0 199.0 L 182.0 200.0 L 182.0 199.0 " stroke="black" fill="none" stroke-width="5.0" stroke-linecap="round" stroke-linejoin="round" />
</svg>