<svg xmlns="http://www.w3.org/2000/svg" width="300" height="300" viewBox="0 0 300 300">
<path d="M 118.0 114.0 L 119.0 114.0 L 119.0 114.0 L 120.0 114.0 L 120.0 114.0 L 122.0 114.0 L 126.0 114.0 L 131.0 114.0 L 139.0 114.0 L 145.0 115.0 L 148.0 115.0 L 151.0 115.0 L 151.0 115.0 L 152.0 115.0 L 152.0 115.0 L 152.0 115.0 L 152.0 115.0 L 152.0 116.0 L 152.0 118.0 L 152.0 121.0 L 152.0 125.0 L 152.0 131.0 L 152.0 137.0 L 153.0 143.0 L 154.0 149.0 L 154.0 154.0 L 154.0 159.0 L 155.0 163.0 L 155.0 166.0 L 155.0 169.0 L 155.0 172.0 L 156.0 175.0 L 156.0 179.0 L 156.0 182.0 L 156.0 185.0 L 156.0 187.0 L 156.0 188.0 L 156.0 189.0 L 156.0 190.0 L 156.0 190.0 L 156.0 190.0 L 156.0 190.0 L 156.0 190.0 L 156.0 190.0 L 157.0 190.0 L 159.0 190.0 L 161.0 190.0 L 164.0 190.0 L 168.0 190.0 L 173.0 190.0 L 178.0 191.0 L 183.0 191.0 L 186.0 191.0 L 188.0 191.0 L 189.0 191.0 L 189.0 191.0 L 189.0 191.0 " stroke="black" fill="none" stroke-width="5.0" stroke-linecap="round" stroke-linejoin="round" />
<path d="M 113.0 184.0 L 113.0 184.0 L 113.0 184.0 L 113.0 184.0 L 113.0 185.0 L 113.0 185.0 L 113.0 185.0 L 113.0 182.0 L 113.0 179.0 L 112.0 176.0 L 112.0 172.0 L 112.0 167.0 L 112.0 162.0 L 112.0 159.0 L 112.0 156.0 L 112.0 153.0 L 111.0 151.0 L 111.0 150.0 L 111.0 150.0 L 111.0 150.0 L 111.0 150.0 L 111.0 150.0 L 111.0 151.0 L 112.0 151.0 L 115.0 151.0 L 121.0 151.0 L 128.0 151.0 L 136.0 151.0 L 143.0 151.0 L 149.0 151.0 L 154.0 151.0 L 157.0 152.0 L 161.0 152.0 L 165.0 152.0 L 168.0 152.0 L 172.0 152.0 L 174.0 152.0 L 177.0 152.0 L 180.0 152.0 L 182.0 152.0 L 184.0 153.0 L 185.0 153.0 L 187.0 153.0 L 188.0 153.0 L 189.0 153.0 L 190.0 153.0 L 190.0 152.0 L 191.0 152.0 L 191.0 152.0 L 192.0 152.0 L 192.0 152.0 L 192.0 151.0 L 192.0 151.0 L 193.0 151.0 L 193.0 151.0 L 193.0 151.0 L 194.0 150.0 L 194.0 150.0 L 194.0 150.0 L 194.0 150.0 L 195.0 149.0 L 195.0 149.0 L 195.0 149.0 L 195.0 149.0 L 195.0 149.0 L 195.0 147.0 L 195.0 144.0 L 194.0 140.0 L 194.0 135.0 L 193.0 130.0 L 193.0 126.0 L 192.0 122.0 L 192.0 118.0 L 192.0 115.0 L 192.0 114.0 L 192.0 114.0 L 192.0 114.0 L 192.0 115.0 L 192.0 115.0 L 192.0 116.0 " stroke="black" fill="none" stroke-width="5.0" stroke-linecap="round" stroke-linejoin="round" />
</svg>