<svg xmlns="http://www.w3.org/2000/svg" width="300" height="300" viewBox="0 0 300 300">
<path d="M 115.0 117.0 L 116.0 119.0 L 116.0 119.0 L 117.0 121.0 L 119.0 124.0 L 122.0 127.0 L 124.0 129.0 " stroke="black" fill="none" stroke-width="5.0" stroke-linecap="round" stroke-linejoin="round" />
<path d="M 139.0 117.0 L 139.0 117.0 L 139.0 119.0 L 139.0 122.0 L 138.0 124.0 L 138.0 128.0 L 136.0 133.0 " stroke="black" fill="none" stroke-width="5.0" stroke-linecap="round" stroke-linejoin="round" />
<path d="M 113.0 145.0 L 113.0 145.0 L 113.0 145.0 L 115.0 145.0 L 120.0 144.0 L 130.0 144.0 L 138.0 143.0 L 141.0 143.0 " stroke="black" fill="none" stroke-width="5.0" stroke-linecap="round" stroke-linejoin="round" />
<path d="M 108.0 165.0 L 108.0 165.0 L 111.0 166.0 L 117.0 167.0 L 127.0 166.0 L 138.0 165.0 L 142.0 164.0 " stroke="black" fill="none" stroke-width="5.0" stroke-linecap="round" stroke-linejoin="round" />
<path d="M 128.0 115.0 L 128.0 115.0 L 128.0 115.0 L 128.0 116.0 L 128.0 122.0 L 128.0 140.0 L 126.0 165.0 L 121.0 189.0 L 115.0 202.0 " stroke="black" fill="none" stroke-width="5.0" stroke-linecap="round" stroke-linejoin="round" />
<path d="M 155.0 122.0 L 155.0 122.0 L 156.0 122.0 L 158.0 123.0 L 163.0 123.0 L 172.0 123.0 L 180.0 121.0 L 183.0 121.0 " stroke="black" fill="none" stroke-width="5.0" stroke-linecap="round" stroke-linejoin="round" />
<path d="M 158.0 125.0 L 158.0 126.0 L 156.0 127.0 L 156.0 133.0 L 156.0 143.0 L 156.0 160.0 L 153.0 180.0 L 151.0 195.0 L 150.0 200.0 " stroke="black" fill="none" stroke-width="5.0" stroke-linecap="round" stroke-linejoin="round" />
<path d="M 166.0 144.0 L 166.0 144.0 L 167.0 144.0 L 168.0 144.0 L 172.0 144.0 L 179.0 143.0 L 184.0 143.0 L 188.0 143.0 L 188.0 147.0 L 187.0 155.0 L 184.0 166.0 L 179.0 179.0 L 174.0 189.0 L 169.0 195.0 " stroke="black" fill="none" stroke-width="5.0" stroke-linecap="round" stroke-linejoin="round" />
<path d="M 162.0 150.0 L 162.0 150.0 L 163.0 151.0 L 167.0 155.0 L 177.0 167.0 L 189.0 182.0 L 198.0 194.0 L 199.0 198.0 " stroke="black" fill="none" stroke-width="5.0" stroke-linecap="round" stroke-linejoin="round" />
</svg>