<svg xmlns="http://www.w3.org/2000/svg" width="300" height="300" viewBox="0 0 300 300">
<path d="M 129.0 119.0 L 130.0 119.0 L 130.0 120.0 L 130.0 123.0 L 130.0 132.0 L 131.0 143.0 L 132.0 159.0 L 133.0 174.0 L 134.0 180.0 L 134.0 181.0 " stroke="black" fill="none" stroke-width="5.0" stroke-linecap="round" stroke-linejoin="round" />
<path d="M 110.0 148.0 L 113.0 148.0 L 118.0 147.0 L 121.0 147.0 L 125.0 147.0 L 129.0 147.0 " stroke="black" fill="none" stroke-width="5.0" stroke-linecap="round" stroke-linejoin="round" />
<path d="M 100.0 186.0 L 102.0 185.0 L 104.0 184.0 L 109.0 184.0 L 118.0 184.0 L 130.0 183.0 L 134.0 183.0 " stroke="black" fill="none" stroke-width="5.0" stroke-linecap="round" stroke-linejoin="round" />
<path d="M 152.0 119.0 L 152.0 118.0 L 152.0 118.0 L 152.0 118.0 L 152.0 121.0 L 152.0 136.0 L 152.0 149.0 L 153.0 170.0 L 156.0 188.0 L 160.0 191.0 L 167.0 193.0 L 173.0 194.0 L 179.0 194.0 L 184.0 193.0 L 185.0 193.0 " stroke="black" fill="none" stroke-width="5.0" stroke-linecap="round" stroke-linejoin="round" />
<path d="M 153.0 151.0 L 153.0 151.0 L 154.0 151.0 L 155.0 151.0 L 160.0 151.0 L 170.0 151.0 L 178.0 151.0 " stroke="black" fill="none" stroke-width="5.0" stroke-linecap="round" stroke-linejoin="round" />
</svg>