<svg xmlns="http://www.w3.org/2000/svg" width="300" height="300" viewBox="0 0 300 300">
<path d="M 123.0 128.0 L 123.0 128.0 L 123.0 129.0 L 124.0 130.0 L 131.0 130.0 L 147.0 127.0 L 166.0 124.0 L 179.0 122.0 L 181.0 122.0 " stroke="black" fill="none" stroke-width="5.0" stroke-linecap="round" stroke-linejoin="round" />
<path d="M 151.0 112.0 L 151.0 113.0 L 151.0 113.0 L 151.0 116.0 L 147.0 126.0 L 139.0 143.0 L 127.0 161.0 L 115.0 174.0 L 111.0 178.0 " stroke="black" fill="none" stroke-width="5.0" stroke-linecap="round" stroke-linejoin="round" />
<path d="M 137.0 156.0 L 137.0 156.0 L 137.0 156.0 L 137.0 157.0 L 137.0 160.0 L 138.0 170.0 L 141.0 181.0 L 142.0 185.0 " stroke="black" fill="none" stroke-width="5.0" stroke-linecap="round" stroke-linejoin="round" />
<path d="M 139.0 154.0 L 139.0 154.0 L 140.0 153.0 L 140.0 152.0 L 142.0 152.0 L 145.0 151.0 L 152.0 151.0 L 160.0 150.0 L 168.0 149.0 L 172.0 149.0 L 175.0 153.0 L 177.0 161.0 L 178.0 171.0 L 179.0 180.0 L 179.0 183.0 " stroke="black" fill="none" stroke-width="5.0" stroke-linecap="round" stroke-linejoin="round" />
<path d="M 141.0 185.0 L 140.0 185.0 L 139.0 185.0 L 139.0 185.0 L 146.0 185.0 L 158.0 185.0 L 172.0 185.0 L 180.0 184.0 " stroke="black" fill="none" stroke-width="5.0" stroke-linecap="round" stroke-linejoin="round" />
</svg>