<svg xmlns="http://www.w3.org/2000/svg" width="300" height="300" viewBox="0 0 300 300">
<path d="M 124.0 121.0 L 124.0 121.0 L 125.0 121.0 L 129.0 121.0 L 139.0 121.0 L 152.0 120.0 L 163.0 120.0 L 168.0 120.0 L 169.0 120.0 " stroke="black" fill="none" stroke-width="5.0" stroke-linecap="round" stroke-linejoin="round" />
<path d="M 152.0 106.0 L 152.0 106.0 L 152.0 106.0 L 152.0 106.0 L 151.0 109.0 L 148.0 117.0 L 142.0 129.0 L 138.0 136.0 " stroke="black" fill="none" stroke-width="5.0" stroke-linecap="round" stroke-linejoin="round" />
<path d="M 116.0 149.0 L 116.0 149.0 L 116.0 150.0 L 116.0 153.0 L 115.0 163.0 L 115.0 178.0 L 115.0 189.0 L 117.0 193.0 L 118.0 193.0 " stroke="black" fill="none" stroke-width="5.0" stroke-linecap="round" stroke-linejoin="round" />
<path d="M 117.0 145.0 L 117.0 145.0 L 117.0 144.0 L 118.0 144.0 L 121.0 143.0 L 128.0 143.0 L 139.0 142.0 L 150.0 140.0 L 157.0 139.0 L 163.0 139.0 L 166.0 139.0 L 169.0 142.0 L 172.0 148.0 L 176.0 159.0 L 179.0 172.0 L 182.0 185.0 L 184.0 192.0 L 183.0 195.0 L 181.0 196.0 L 175.0 196.0 L 170.0 194.0 " stroke="black" fill="none" stroke-width="5.0" stroke-linecap="round" stroke-linejoin="round" />
<path d="M 136.0 146.0 L 136.0 146.0 L 136.0 146.0 L 136.0 146.0 L 136.0 146.0 L 137.0 148.0 L 139.0 152.0 L 141.0 154.0 " stroke="black" fill="none" stroke-width="5.0" stroke-linecap="round" stroke-linejoin="round" />
<path d="M 153.0 145.0 L 153.0 145.0 L 153.0 146.0 L 153.0 146.0 L 153.0 148.0 L 152.0 152.0 L 151.0 153.0 " stroke="black" fill="none" stroke-width="5.0" stroke-linecap="round" stroke-linejoin="round" />
<path d="M 132.0 161.0 L 132.0 161.0 L 132.0 161.0 L 133.0 161.0 L 138.0 161.0 L 145.0 160.0 L 151.0 160.0 L 154.0 160.0 L 155.0 160.0 " stroke="black" fill="none" stroke-width="5.0" stroke-linecap="round" stroke-linejoin="round" />
<path d="M 126.0 177.0 L 126.0 177.0 L 127.0 178.0 L 129.0 178.0 L 137.0 178.0 L 148.0 175.0 L 156.0 175.0 L 159.0 175.0 L 160.0 176.0 " stroke="black" fill="none" stroke-width="5.0" stroke-linecap="round" stroke-linejoin="round" />
<path d="M 143.0 162.0 L 143.0 162.0 L 142.0 162.0 L 142.0 162.0 L 142.0 165.0 L 143.0 174.0 L 145.0 190.0 L 145.0 204.0 L 146.0 209.0 " stroke="black" fill="none" stroke-width="5.0" stroke-linecap="round" stroke-linejoin="round" />
</svg>