<svg xmlns="http://www.w3.org/2000/svg" width="300" height="300" viewBox="0 0 300 300">
<path d="M 153.0 105.0 L 154.0 105.0 L 155.0 104.0 L 156.0 104.0 L 156.0 105.0 L 154.0 109.0 L 150.0 115.0 L 143.0 124.0 L 135.0 133.0 L 129.0 137.0 " stroke="black" fill="none" stroke-width="5.0" stroke-linecap="round" stroke-linejoin="round" />
<path d="M 151.0 118.0 L 151.0 119.0 L 151.0 119.0 L 151.0 119.0 L 153.0 120.0 L 158.0 121.0 L 163.0 122.0 L 168.0 123.0 L 169.0 125.0 L 168.0 128.0 L 162.0 134.0 L 153.0 141.0 L 141.0 151.0 L 126.0 162.0 L 117.0 167.0 L 115.0 168.0 " stroke="black" fill="none" stroke-width="5.0" stroke-linecap="round" stroke-linejoin="round" />
<path d="M 143.0 137.0 L 143.0 137.0 L 143.0 136.0 L 143.0 136.0 L 144.0 139.0 L 147.0 142.0 " stroke="black" fill="none" stroke-width="5.0" stroke-linecap="round" stroke-linejoin="round" />
<path d="M 143.0 155.0 L 143.0 155.0 L 142.0 155.0 L 142.0 156.0 L 142.0 161.0 L 142.0 171.0 L 142.0 181.0 L 143.0 187.0 " stroke="black" fill="none" stroke-width="5.0" stroke-linecap="round" stroke-linejoin="round" />
<path d="M 144.0 156.0 L 144.0 156.0 L 144.0 156.0 L 146.0 155.0 L 151.0 154.0 L 161.0 153.0 L 171.0 153.0 L 178.0 153.0 L 183.0 154.0 L 186.0 159.0 L 187.0 167.0 L 188.0 178.0 L 189.0 184.0 " stroke="black" fill="none" stroke-width="5.0" stroke-linecap="round" stroke-linejoin="round" />
<path d="M 140.0 190.0 L 140.0 190.0 L 140.0 190.0 L 143.0 190.0 L 155.0 190.0 L 175.0 190.0 L 191.0 190.0 " stroke="black" fill="none" stroke-width="5.0" stroke-linecap="round" stroke-linejoin="round" />
</svg>