<svg xmlns="http://www.w3.org/2000/svg" width="300" height="300" viewBox="0 0 300 300">
<path d="M 143.0 104.0 L 143.0 104.0 L 143.0 104.0 L 143.0 104.0 L 144.0 105.0 L 145.0 108.0 L 147.0 111.0 L 148.0 113.0 " stroke="black" fill="none" stroke-width="5.0" stroke-linecap="round" stroke-linejoin="round" />
<path d="M 117.0 116.0 L 118.0 117.0 L 121.0 118.0 L 125.0 118.0 L 132.0 116.0 L 147.0 115.0 L 161.0 115.0 L 172.0 115.0 L 179.0 116.0 " stroke="black" fill="none" stroke-width="5.0" stroke-linecap="round" stroke-linejoin="round" />
<path d="M 132.0 133.0 L 132.0 133.0 L 132.0 133.0 L 132.0 134.0 L 132.0 135.0 L 132.0 138.0 L 132.0 142.0 L 132.0 146.0 L 133.0 147.0 " stroke="black" fill="none" stroke-width="5.0" stroke-linecap="round" stroke-linejoin="round" />
<path d="M 134.0 129.0 L 134.0 129.0 L 134.0 130.0 L 134.0 130.0 L 134.0 130.0 L 136.0 130.0 L 139.0 130.0 L 145.0 130.0 L 150.0 130.0 L 155.0 129.0 L 159.0 129.0 L 161.0 129.0 L 162.0 130.0 L 162.0 132.0 L 163.0 137.0 L 163.0 143.0 L 163.0 149.0 L 164.0 153.0 L 164.0 154.0 L 164.0 154.0 " stroke="black" fill="none" stroke-width="5.0" stroke-linecap="round" stroke-linejoin="round" />
<path d="M 131.0 153.0 L 131.0 153.0 L 131.0 153.0 L 131.0 153.0 L 135.0 153.0 L 143.0 153.0 L 153.0 153.0 L 160.0 153.0 L 163.0 153.0 " stroke="black" fill="none" stroke-width="5.0" stroke-linecap="round" stroke-linejoin="round" />
<path d="M 139.0 155.0 L 139.0 155.0 L 138.0 156.0 L 137.0 157.0 L 134.0 160.0 L 127.0 166.0 L 117.0 175.0 L 107.0 184.0 " stroke="black" fill="none" stroke-width="5.0" stroke-linecap="round" stroke-linejoin="round" />
<path d="M 131.0 167.0 L 131.0 167.0 L 131.0 167.0 L 130.0 168.0 L 130.0 169.0 L 130.0 174.0 L 129.0 182.0 L 129.0 190.0 L 130.0 194.0 L 136.0 195.0 L 142.0 193.0 " stroke="black" fill="none" stroke-width="5.0" stroke-linecap="round" stroke-linejoin="round" />
<path d="M 175.0 162.0 L 175.0 162.0 L 173.0 163.0 L 172.0 164.0 L 171.0 166.0 L 169.0 169.0 L 166.0 174.0 " stroke="black" fill="none" stroke-width="5.0" stroke-linecap="round" stroke-linejoin="round" />
<path d="M 146.0 159.0 L 146.0 159.0 L 146.0 159.0 L 146.0 159.0 L 149.0 163.0 L 158.0 174.0 L 170.0 188.0 L 175.0 193.0 L 182.0 201.0 L 184.0 202.0 L 184.0 203.0 L 184.0 203.0 L 184.0 202.0 " stroke="black" fill="none" stroke-width="5.0" stroke-linecap="round" stroke-linejoin="round" />
</svg>