<svg xmlns="http://www.w3.org/2000/svg" width="300" height="300" viewBox="0 0 300 300">
<path d="M 121.0 137.0 L 121.0 137.0 L 121.0 138.0 L 121.0 140.0 L 121.0 145.0 L 121.0 152.0 L 122.0 159.0 L 123.0 162.0 " stroke="black" fill="none" stroke-width="5.0" stroke-linecap="round" stroke-linejoin="round" />
<path d="M 123.0 141.0 L 124.0 141.0 L 125.0 141.0 L 126.0 141.0 L 128.0 141.0 L 130.0 141.0 L 132.0 141.0 L 135.0 141.0 L 137.0 142.0 L 139.0 144.0 L 141.0 147.0 L 142.0 151.0 L 142.0 156.0 L 142.0 159.0 L 142.0 160.0 " stroke="black" fill="none" stroke-width="5.0" stroke-linecap="round" stroke-linejoin="round" />
<path d="M 122.0 163.0 L 123.0 163.0 L 126.0 165.0 L 130.0 165.0 L 137.0 165.0 L 143.0 164.0 " stroke="black" fill="none" stroke-width="5.0" stroke-linecap="round" stroke-linejoin="round" />
<path d="M 155.0 149.0 L 155.0 149.0 L 155.0 149.0 L 155.0 149.0 L 156.0 149.0 L 160.0 149.0 L 167.0 149.0 L 174.0 149.0 L 179.0 149.0 L 180.0 149.0 " stroke="black" fill="none" stroke-width="5.0" stroke-linecap="round" stroke-linejoin="round" />
<path d="M 131.0 187.0 L 131.0 187.0 L 131.0 187.0 L 132.0 188.0 L 137.0 188.0 L 149.0 188.0 L 165.0 188.0 L 181.0 188.0 L 192.0 189.0 L 196.0 189.0 L 197.0 189.0 " stroke="black" fill="none" stroke-width="5.0" stroke-linecap="round" stroke-linejoin="round" />
<path d="M 166.0 126.0 L 166.0 127.0 L 166.0 130.0 L 166.0 139.0 L 168.0 156.0 L 168.0 173.0 L 168.0 181.0 " stroke="black" fill="none" stroke-width="5.0" stroke-linecap="round" stroke-linejoin="round" />
</svg>