<svg xmlns="http://www.w3.org/2000/svg" width="300" height="300" viewBox="0 0 300 300">
<path d="M 138.0 111.0 L 138.0 111.0 L 138.0 111.0 L 137.0 111.0 L 137.0 111.0 L 136.0 114.0 L 134.0 121.0 L 128.0 131.0 L 125.0 136.0 " stroke="black" fill="none" stroke-width="5.0" stroke-linecap="round" stroke-linejoin="round" />
<path d="M 137.0 124.0 L 137.0 124.0 L 137.0 124.0 L 137.0 124.0 L 137.0 124.0 L 140.0 124.0 L 148.0 123.0 L 158.0 122.0 L 165.0 121.0 L 168.0 121.0 L 168.0 121.0 L 167.0 121.0 " stroke="black" fill="none" stroke-width="5.0" stroke-linecap="round" stroke-linejoin="round" />
<path d="M 117.0 148.0 L 117.0 148.0 L 117.0 148.0 L 117.0 148.0 L 118.0 148.0 L 126.0 148.0 L 140.0 147.0 L 155.0 145.0 L 165.0 145.0 L 172.0 145.0 L 176.0 144.0 L 176.0 143.0 " stroke="black" fill="none" stroke-width="5.0" stroke-linecap="round" stroke-linejoin="round" />
<path d="M 151.0 111.0 L 151.0 111.0 L 151.0 111.0 L 150.0 111.0 L 150.0 115.0 L 151.0 125.0 L 152.0 138.0 L 152.0 143.0 " stroke="black" fill="none" stroke-width="5.0" stroke-linecap="round" stroke-linejoin="round" />
<path d="M 132.0 159.0 L 131.0 159.0 L 130.0 160.0 L 130.0 162.0 L 130.0 166.0 L 132.0 173.0 L 133.0 181.0 L 133.0 186.0 " stroke="black" fill="none" stroke-width="5.0" stroke-linecap="round" stroke-linejoin="round" />
<path d="M 135.0 160.0 L 135.0 160.0 L 135.0 160.0 L 135.0 160.0 L 136.0 160.0 L 141.0 160.0 L 148.0 159.0 L 156.0 159.0 L 164.0 159.0 L 169.0 159.0 L 173.0 161.0 L 176.0 165.0 L 178.0 172.0 L 179.0 179.0 L 179.0 185.0 L 179.0 189.0 L 179.0 189.0 " stroke="black" fill="none" stroke-width="5.0" stroke-linecap="round" stroke-linejoin="round" />
<path d="M 137.0 189.0 L 136.0 189.0 L 135.0 189.0 L 135.0 189.0 L 134.0 189.0 L 141.0 190.0 L 152.0 190.0 L 165.0 190.0 L 174.0 190.0 L 179.0 190.0 L 179.0 190.0 " stroke="black" fill="none" stroke-width="5.0" stroke-linecap="round" stroke-linejoin="round" />
</svg>