<svg xmlns="http://www.w3.org/2000/svg" width="300" height="300" viewBox="0 0 300 300">
<path d="M 137.8571428571429 111.42857142857146 L 137.8571428571429 111.42857142857146 L 137.8571428571429 111.42857142857146 L 137.14285714285717 111.42857142857146 L 137.14285714285717 115.00000000000001 L 137.14285714285717 120.00000000000001 L 137.8571428571429 124.28571428571432 " stroke="black" fill="none" stroke-width="5.0" stroke-linecap="round" stroke-linejoin="round" />
<path d="M 139.28571428571433 110.00000000000001 L 140.00000000000006 110.00000000000001 L 140.00000000000006 109.28571428571432 L 142.14285714285717 108.5714285714286 L 146.42857142857144 107.14285714285715 L 152.14285714285717 105.71428571428574 L 158.5714285714286 105.00000000000001 L 162.8571428571429 105.00000000000001 L 165.71428571428572 106.42857142857146 L 167.14285714285717 109.28571428571432 L 167.8571428571429 113.5714285714286 L 167.8571428571429 119.28571428571432 L 168.5714285714286 123.5714285714286 L 168.5714285714286 125.71428571428574 " stroke="black" fill="none" stroke-width="5.0" stroke-linecap="round" stroke-linejoin="round" />
<path d="M 140.71428571428572 130.00000000000006 L 140.71428571428572 130.00000000000006 L 140.71428571428572 130.00000000000006 L 142.8571428571429 130.00000000000006 L 148.5714285714286 129.28571428571433 L 157.8571428571429 128.5714285714286 L 166.42857142857144 127.85714285714288 L 172.14285714285717 127.14285714285718 " stroke="black" fill="none" stroke-width="5.0" stroke-linecap="round" stroke-linejoin="round" />
<path d="M 156.42857142857144 132.8571428571429 L 156.42857142857144 132.8571428571429 L 157.8571428571429 132.8571428571429 L 157.8571428571429 132.8571428571429 L 156.42857142857144 134.28571428571433 L 153.5714285714286 137.8571428571429 L 150.00000000000006 143.5714285714286 L 148.5714285714286 146.42857142857144 " stroke="black" fill="none" stroke-width="5.0" stroke-linecap="round" stroke-linejoin="round" />
<path d="M 130.71428571428572 153.5714285714286 L 130.71428571428572 153.5714285714286 L 131.42857142857144 153.5714285714286 L 131.42857142857144 155.00000000000006 L 131.42857142857144 157.14285714285717 L 131.42857142857144 162.8571428571429 L 131.42857142857144 171.42857142857144 L 132.14285714285717 178.5714285714286 L 132.8571428571429 181.42857142857144 " stroke="black" fill="none" stroke-width="5.0" stroke-linecap="round" stroke-linejoin="round" />
<path d="M 132.8571428571429 152.8571428571429 L 133.5714285714286 152.8571428571429 L 134.28571428571433 152.8571428571429 L 135.00000000000006 152.14285714285717 L 137.14285714285717 152.14285714285717 L 142.14285714285717 151.42857142857144 L 150.00000000000006 150.00000000000006 L 158.5714285714286 150.00000000000006 L 165.00000000000006 150.00000000000006 L 169.28571428571433 151.42857142857144 L 172.14285714285717 152.14285714285717 L 174.28571428571433 155.00000000000006 L 176.42857142857144 158.5714285714286 L 177.8571428571429 164.28571428571433 L 179.28571428571433 170.71428571428572 L 180.00000000000006 175.71428571428578 L 180.71428571428578 179.28571428571433 " stroke="black" fill="none" stroke-width="5.0" stroke-linecap="round" stroke-linejoin="round" />
<path d="M 139.28571428571433 183.5714285714286 L 139.28571428571433 183.5714285714286 L 139.28571428571433 183.5714285714286 L 139.28571428571433 183.5714285714286 L 142.14285714285717 183.5714285714286 L 151.42857142857144 182.8571428571429 L 164.28571428571433 182.8571428571429 L 175.00000000000006 181.42857142857144 L 180.71428571428578 180.71428571428578 " stroke="black" fill="none" stroke-width="5.0" stroke-linecap="round" stroke-linejoin="round" />
</svg>