<svg xmlns="http://www.w3.org/2000/svg" width="300" height="300" viewBox="0 0 300 300">
<path d="M 125.0 109.0 L 125.0 109.0 L 125.0 109.0 L 126.0 109.0 L 129.0 109.0 L 137.0 109.0 L 148.0 109.0 L 159.0 108.0 L 166.0 108.0 L 169.0 107.0 L 169.0 107.0 L 169.0 107.0 L 168.0 108.0 L 168.0 108.0 " stroke="black" fill="none" stroke-width="5.0" stroke-linecap="round" stroke-linejoin="round" />
<path d="M 143.0 113.0 L 143.0 113.0 L 143.0 113.0 L 143.0 114.0 L 143.0 115.0 L 143.0 121.0 L 142.0 131.0 L 141.0 140.0 L 141.0 145.0 " stroke="black" fill="none" stroke-width="5.0" stroke-linecap="round" stroke-linejoin="round" />
<path d="M 121.0 126.0 L 121.0 126.0 L 121.0 126.0 L 122.0 126.0 L 125.0 126.0 L 134.0 126.0 L 146.0 126.0 L 157.0 124.0 L 165.0 124.0 L 169.0 124.0 L 170.0 128.0 L 170.0 133.0 L 170.0 139.0 L 170.0 145.0 L 170.0 147.0 L 170.0 148.0 " stroke="black" fill="none" stroke-width="5.0" stroke-linecap="round" stroke-linejoin="round" />
<path d="M 115.0 145.0 L 116.0 145.0 L 117.0 145.0 L 120.0 146.0 L 129.0 146.0 L 142.0 146.0 L 157.0 146.0 L 170.0 146.0 L 179.0 146.0 L 183.0 147.0 L 184.0 147.0 L 183.0 147.0 L 183.0 147.0 " stroke="black" fill="none" stroke-width="5.0" stroke-linecap="round" stroke-linejoin="round" />
<path d="M 124.0 161.0 L 124.0 161.0 L 124.0 162.0 L 124.0 162.0 L 124.0 165.0 L 125.0 171.0 L 126.0 178.0 L 127.0 181.0 " stroke="black" fill="none" stroke-width="5.0" stroke-linecap="round" stroke-linejoin="round" />
<path d="M 126.0 161.0 L 127.0 161.0 L 127.0 161.0 L 129.0 161.0 L 135.0 161.0 L 145.0 161.0 L 155.0 161.0 L 162.0 161.0 L 169.0 161.0 L 174.0 163.0 L 176.0 166.0 L 176.0 173.0 L 176.0 179.0 L 177.0 183.0 L 177.0 185.0 " stroke="black" fill="none" stroke-width="5.0" stroke-linecap="round" stroke-linejoin="round" />
<path d="M 126.0 188.0 L 126.0 188.0 L 127.0 188.0 L 129.0 188.0 L 134.0 188.0 L 143.0 188.0 L 156.0 188.0 L 167.0 189.0 L 174.0 189.0 L 176.0 189.0 L 177.0 189.0 " stroke="black" fill="none" stroke-width="5.0" stroke-linecap="round" stroke-linejoin="round" />
</svg>