<svg xmlns="http://www.w3.org/2000/svg" width="300" height="300" viewBox="0 0 300 300">
<path d="M 126.0 118.0 L 126.0 119.0 L 126.0 121.0 L 125.0 126.0 L 125.0 141.0 L 125.0 163.0 L 124.0 182.0 L 124.0 188.0 " stroke="black" fill="none" stroke-width="5.0" stroke-linecap="round" stroke-linejoin="round" />
<path d="M 139.0 113.0 L 139.0 113.0 L 138.0 112.0 L 137.0 112.0 L 137.0 111.0 L 138.0 111.0 L 144.0 111.0 L 152.0 111.0 L 161.0 111.0 L 168.0 111.0 L 173.0 110.0 L 175.0 110.0 L 175.0 109.0 L 176.0 109.0 L 176.0 109.0 L 177.0 111.0 L 179.0 116.0 L 182.0 126.0 L 185.0 144.0 L 189.0 163.0 L 191.0 180.0 L 191.0 193.0 L 191.0 199.0 L 189.0 202.0 L 185.0 203.0 L 176.0 203.0 L 165.0 202.0 " stroke="black" fill="none" stroke-width="5.0" stroke-linecap="round" stroke-linejoin="round" />
<path d="M 147.0 133.0 L 147.0 133.0 L 146.0 133.0 L 146.0 133.0 L 148.0 133.0 L 154.0 133.0 L 161.0 133.0 L 165.0 134.0 " stroke="black" fill="none" stroke-width="5.0" stroke-linecap="round" stroke-linejoin="round" />
<path d="M 147.0 147.0 L 147.0 147.0 L 148.0 147.0 L 150.0 147.0 L 155.0 147.0 L 164.0 146.0 " stroke="black" fill="none" stroke-width="5.0" stroke-linecap="round" stroke-linejoin="round" />
<path d="M 154.0 122.0 L 154.0 123.0 L 154.0 124.0 L 154.0 126.0 L 154.0 132.0 L 154.0 141.0 L 154.0 148.0 " stroke="black" fill="none" stroke-width="5.0" stroke-linecap="round" stroke-linejoin="round" />
<path d="M 145.0 166.0 L 145.0 166.0 L 145.0 166.0 L 145.0 166.0 L 145.0 168.0 L 145.0 171.0 L 145.0 176.0 L 145.0 177.0 " stroke="black" fill="none" stroke-width="5.0" stroke-linecap="round" stroke-linejoin="round" />
<path d="M 147.0 163.0 L 147.0 163.0 L 147.0 163.0 L 148.0 163.0 L 149.0 163.0 L 153.0 163.0 L 158.0 162.0 L 165.0 162.0 L 169.0 162.0 L 171.0 165.0 L 172.0 169.0 L 173.0 174.0 L 173.0 179.0 " stroke="black" fill="none" stroke-width="5.0" stroke-linecap="round" stroke-linejoin="round" />
<path d="M 146.0 182.0 L 146.0 182.0 L 146.0 182.0 L 146.0 182.0 L 146.0 182.0 L 151.0 182.0 L 160.0 182.0 L 166.0 182.0 " stroke="black" fill="none" stroke-width="5.0" stroke-linecap="round" stroke-linejoin="round" />
</svg>