<svg xmlns="http://www.w3.org/2000/svg" width="300" height="300" viewBox="0 0 300 300">
<path d="M 123.0 112.0 L 123.0 112.0 L 123.0 112.0 L 123.0 112.0 L 123.0 113.0 L 123.0 117.0 L 123.0 131.0 L 123.0 156.0 L 123.0 181.0 L 122.0 197.0 L 121.0 202.0 " stroke="black" fill="none" stroke-width="5.0" stroke-linecap="round" stroke-linejoin="round" />
<path d="M 141.0 113.0 L 141.0 113.0 L 141.0 113.0 L 141.0 113.0 L 142.0 113.0 L 143.0 113.0 L 147.0 113.0 L 154.0 113.0 L 164.0 113.0 L 172.0 113.0 L 178.0 112.0 L 180.0 111.0 L 180.0 111.0 L 180.0 111.0 L 181.0 111.0 L 182.0 112.0 L 183.0 114.0 L 185.0 119.0 L 187.0 128.0 L 190.0 145.0 L 193.0 166.0 L 195.0 183.0 L 196.0 195.0 L 197.0 199.0 L 197.0 199.0 L 197.0 199.0 L 193.0 199.0 L 185.0 201.0 L 174.0 203.0 L 171.0 203.0 " stroke="black" fill="none" stroke-width="5.0" stroke-linecap="round" stroke-linejoin="round" />
<path d="M 146.0 143.0 L 146.0 143.0 L 146.0 143.0 L 145.0 143.0 L 145.0 143.0 L 145.0 142.0 L 149.0 142.0 L 157.0 142.0 L 167.0 141.0 L 170.0 141.0 " stroke="black" fill="none" stroke-width="5.0" stroke-linecap="round" stroke-linejoin="round" />
<path d="M 145.0 161.0 L 145.0 161.0 L 145.0 161.0 L 144.0 161.0 L 144.0 164.0 L 144.0 169.0 L 145.0 173.0 L 146.0 174.0 " stroke="black" fill="none" stroke-width="5.0" stroke-linecap="round" stroke-linejoin="round" />
<path d="M 146.0 162.0 L 146.0 162.0 L 146.0 162.0 L 146.0 162.0 L 146.0 162.0 L 148.0 162.0 L 152.0 162.0 L 157.0 162.0 L 162.0 162.0 L 166.0 163.0 L 167.0 167.0 L 168.0 173.0 L 168.0 178.0 " stroke="black" fill="none" stroke-width="5.0" stroke-linecap="round" stroke-linejoin="round" />
<path d="M 147.0 179.0 L 147.0 179.0 L 146.0 179.0 L 148.0 179.0 L 154.0 179.0 L 163.0 179.0 L 165.0 179.0 " stroke="black" fill="none" stroke-width="5.0" stroke-linecap="round" stroke-linejoin="round" />
</svg>