<svg xmlns="http://www.w3.org/2000/svg" width="300" height="300" viewBox="0 0 300 300">
<path d="M 149.0 109.0 L 149.0 109.0 L 149.0 108.0 L 149.0 108.0 L 149.0 108.0 L 147.0 111.0 L 141.0 120.0 L 128.0 135.0 L 113.0 148.0 " stroke="black" fill="none" stroke-width="5.0" stroke-linecap="round" stroke-linejoin="round" />
<path d="M 151.0 113.0 L 151.0 113.0 L 151.0 113.0 L 151.0 113.0 L 153.0 114.0 L 164.0 121.0 L 182.0 134.0 L 193.0 143.0 L 194.0 145.0 " stroke="black" fill="none" stroke-width="5.0" stroke-linecap="round" stroke-linejoin="round" />
<path d="M 141.0 135.0 L 140.0 136.0 L 139.0 136.0 L 139.0 136.0 L 139.0 136.0 L 143.0 136.0 L 150.0 135.0 L 159.0 134.0 L 165.0 134.0 " stroke="black" fill="none" stroke-width="5.0" stroke-linecap="round" stroke-linejoin="round" />
<path d="M 126.0 160.0 L 126.0 160.0 L 126.0 161.0 L 126.0 162.0 L 127.0 164.0 L 128.0 167.0 L 128.0 170.0 " stroke="black" fill="none" stroke-width="5.0" stroke-linecap="round" stroke-linejoin="round" />
<path d="M 128.0 159.0 L 128.0 159.0 L 128.0 159.0 L 129.0 159.0 L 131.0 159.0 L 135.0 158.0 L 139.0 157.0 L 143.0 157.0 L 146.0 160.0 L 147.0 165.0 L 149.0 168.0 L 149.0 169.0 " stroke="black" fill="none" stroke-width="5.0" stroke-linecap="round" stroke-linejoin="round" />
<path d="M 128.0 172.0 L 128.0 173.0 L 130.0 174.0 L 134.0 175.0 L 141.0 176.0 L 147.0 176.0 " stroke="black" fill="none" stroke-width="5.0" stroke-linecap="round" stroke-linejoin="round" />
<path d="M 153.0 152.0 L 153.0 152.0 L 153.0 152.0 L 153.0 152.0 L 154.0 152.0 L 159.0 151.0 L 166.0 151.0 L 172.0 151.0 L 176.0 151.0 L 178.0 154.0 L 180.0 158.0 L 181.0 164.0 L 182.0 168.0 L 182.0 171.0 L 180.0 172.0 L 175.0 172.0 L 171.0 172.0 " stroke="black" fill="none" stroke-width="5.0" stroke-linecap="round" stroke-linejoin="round" />
<path d="M 156.0 154.0 L 156.0 154.0 L 156.0 154.0 L 155.0 154.0 L 155.0 154.0 L 155.0 156.0 L 157.0 166.0 L 159.0 184.0 L 161.0 200.0 " stroke="black" fill="none" stroke-width="5.0" stroke-linecap="round" stroke-linejoin="round" />
</svg>