<svg xmlns="http://www.w3.org/2000/svg" width="300" height="300" viewBox="0 0 300 300">
<path d="M 130.0 108.0 L 130.0 108.0 L 130.0 108.0 L 130.0 108.0 L 130.0 108.0 L 130.0 108.0 L 132.0 108.0 L 138.0 107.0 L 148.0 106.0 L 157.0 106.0 L 163.0 106.0 L 166.0 106.0 L 167.0 106.0 L 167.0 107.0 L 168.0 112.0 L 169.0 118.0 L 170.0 125.0 L 170.0 127.0 " stroke="black" fill="none" stroke-width="5.0" stroke-linecap="round" stroke-linejoin="round" />
<path d="M 115.0 125.0 L 115.0 125.0 L 116.0 125.0 L 116.0 125.0 L 119.0 124.0 L 130.0 122.0 L 147.0 120.0 L 165.0 118.0 L 176.0 117.0 L 181.0 117.0 " stroke="black" fill="none" stroke-width="5.0" stroke-linecap="round" stroke-linejoin="round" />
<path d="M 120.0 139.0 L 120.0 139.0 L 120.0 139.0 L 121.0 138.0 L 129.0 137.0 L 145.0 135.0 L 159.0 134.0 L 169.0 134.0 L 172.0 134.0 " stroke="black" fill="none" stroke-width="5.0" stroke-linecap="round" stroke-linejoin="round" />
<path d="M 149.0 115.0 L 149.0 115.0 L 148.0 116.0 L 147.0 119.0 L 144.0 126.0 L 136.0 139.0 L 124.0 156.0 L 114.0 168.0 L 110.0 171.0 " stroke="black" fill="none" stroke-width="5.0" stroke-linecap="round" stroke-linejoin="round" />
<path d="M 127.0 153.0 L 127.0 154.0 L 127.0 154.0 L 127.0 156.0 L 128.0 161.0 L 131.0 172.0 L 135.0 182.0 L 137.0 188.0 " stroke="black" fill="none" stroke-width="5.0" stroke-linecap="round" stroke-linejoin="round" />
<path d="M 132.0 156.0 L 132.0 156.0 L 133.0 155.0 L 135.0 154.0 L 141.0 154.0 L 149.0 153.0 L 157.0 152.0 L 165.0 152.0 L 170.0 153.0 L 175.0 156.0 L 178.0 161.0 L 180.0 169.0 L 181.0 177.0 L 181.0 183.0 " stroke="black" fill="none" stroke-width="5.0" stroke-linecap="round" stroke-linejoin="round" />
<path d="M 137.0 187.0 L 137.0 187.0 L 138.0 187.0 L 141.0 187.0 L 150.0 185.0 L 166.0 183.0 L 180.0 182.0 L 183.0 182.0 " stroke="black" fill="none" stroke-width="5.0" stroke-linecap="round" stroke-linejoin="round" />
</svg>