<svg xmlns="http://www.w3.org/2000/svg" width="300" height="300" viewBox="0 0 300 300">
<path d="M 151.0 110.0 L 152.0 110.0 L 152.0 110.0 L 152.0 111.0 L 152.0 113.0 L 149.0 118.0 L 142.0 126.0 L 130.0 138.0 L 118.0 149.0 L 115.0 151.0 " stroke="black" fill="none" stroke-width="5.0" stroke-linecap="round" stroke-linejoin="round" />
<path d="M 157.0 115.0 L 157.0 115.0 L 157.0 115.0 L 158.0 115.0 L 159.0 117.0 L 166.0 122.0 L 177.0 130.0 L 185.0 136.0 " stroke="black" fill="none" stroke-width="5.0" stroke-linecap="round" stroke-linejoin="round" />
<path d="M 139.0 145.0 L 139.0 144.0 L 139.0 144.0 L 139.0 144.0 L 143.0 144.0 L 151.0 144.0 L 162.0 144.0 L 169.0 144.0 L 170.0 144.0 " stroke="black" fill="none" stroke-width="5.0" stroke-linecap="round" stroke-linejoin="round" />
<path d="M 135.0 162.0 L 135.0 162.0 L 135.0 162.0 L 134.0 162.0 L 134.0 165.0 L 134.0 172.0 L 135.0 179.0 L 136.0 184.0 " stroke="black" fill="none" stroke-width="5.0" stroke-linecap="round" stroke-linejoin="round" />
<path d="M 136.0 161.0 L 136.0 162.0 L 137.0 162.0 L 139.0 163.0 L 145.0 163.0 L 154.0 162.0 L 163.0 161.0 L 171.0 161.0 L 175.0 163.0 L 177.0 168.0 L 178.0 175.0 L 178.0 181.0 L 178.0 185.0 L 178.0 187.0 " stroke="black" fill="none" stroke-width="5.0" stroke-linecap="round" stroke-linejoin="round" />
<path d="M 134.0 190.0 L 134.0 190.0 L 133.0 190.0 L 133.0 191.0 L 137.0 191.0 L 147.0 192.0 L 162.0 192.0 L 174.0 191.0 L 179.0 191.0 " stroke="black" fill="none" stroke-width="5.0" stroke-linecap="round" stroke-linejoin="round" />
</svg>