<svg xmlns="http://www.w3.org/2000/svg" width="300" height="300" viewBox="0 0 300 300">
<path d="M 116.0 107.0 L 116.0 107.0 L 117.0 107.0 L 117.0 107.0 L 118.0 107.0 L 120.0 107.0 L 125.0 106.0 L 131.0 105.0 L 137.0 104.0 L 140.0 104.0 L 142.0 104.0 L 142.0 108.0 L 143.0 114.0 L 144.0 122.0 L 145.0 131.0 L 145.0 137.0 L 145.0 139.0 L 145.0 139.0 L 140.0 138.0 L 134.0 135.0 L 126.0 131.0 " stroke="black" fill="none" stroke-width="5.0" stroke-linecap="round" stroke-linejoin="round" />
<path d="M 131.0 93.0 L 131.0 93.0 L 131.0 93.0 L 130.0 93.0 L 128.0 96.0 L 125.0 103.0 L 120.0 115.0 L 113.0 129.0 L 109.0 135.0 " stroke="black" fill="none" stroke-width="5.0" stroke-linecap="round" stroke-linejoin="round" />
<path d="M 153.0 112.0 L 153.0 112.0 L 153.0 113.0 L 153.0 114.0 L 153.0 116.0 L 154.0 120.0 L 154.0 123.0 " stroke="black" fill="none" stroke-width="5.0" stroke-linecap="round" stroke-linejoin="round" />
<path d="M 153.0 112.0 L 153.0 112.0 L 153.0 112.0 L 154.0 111.0 L 157.0 111.0 L 163.0 110.0 L 168.0 110.0 L 174.0 111.0 L 177.0 115.0 L 179.0 120.0 L 180.0 125.0 L 180.0 129.0 L 180.0 130.0 L 179.0 130.0 " stroke="black" fill="none" stroke-width="5.0" stroke-linecap="round" stroke-linejoin="round" />
<path d="M 156.0 128.0 L 158.0 130.0 L 160.0 132.0 L 164.0 133.0 L 170.0 133.0 L 176.0 132.0 L 177.0 132.0 " stroke="black" fill="none" stroke-width="5.0" stroke-linecap="round" stroke-linejoin="round" />
<path d="M 146.0 146.0 L 146.0 146.0 L 146.0 145.0 L 147.0 145.0 L 147.0 145.0 L 147.0 145.0 L 144.0 147.0 L 137.0 152.0 L 126.0 159.0 L 116.0 166.0 L 114.0 167.0 " stroke="black" fill="none" stroke-width="5.0" stroke-linecap="round" stroke-linejoin="round" />
<path d="M 150.0 144.0 L 150.0 144.0 L 151.0 144.0 L 153.0 144.0 L 157.0 146.0 L 163.0 151.0 L 170.0 155.0 L 176.0 159.0 L 179.0 161.0 L 179.0 161.0 " stroke="black" fill="none" stroke-width="5.0" stroke-linecap="round" stroke-linejoin="round" />
<path d="M 133.0 161.0 L 133.0 161.0 L 133.0 162.0 L 134.0 163.0 L 138.0 163.0 L 147.0 163.0 L 155.0 162.0 L 161.0 162.0 " stroke="black" fill="none" stroke-width="5.0" stroke-linecap="round" stroke-linejoin="round" />
<path d="M 124.0 178.0 L 124.0 178.0 L 124.0 178.0 L 124.0 180.0 L 124.0 183.0 L 124.0 190.0 L 124.0 197.0 L 124.0 200.0 L 124.0 200.0 " stroke="black" fill="none" stroke-width="5.0" stroke-linecap="round" stroke-linejoin="round" />
<path d="M 125.0 177.0 L 126.0 177.0 L 126.0 176.0 L 127.0 176.0 L 132.0 175.0 L 141.0 175.0 L 152.0 175.0 L 161.0 175.0 L 169.0 176.0 L 173.0 177.0 L 176.0 181.0 L 177.0 187.0 L 177.0 194.0 L 178.0 201.0 L 178.0 207.0 L 178.0 209.0 L 177.0 211.0 L 172.0 211.0 L 165.0 210.0 L 161.0 208.0 " stroke="black" fill="none" stroke-width="5.0" stroke-linecap="round" stroke-linejoin="round" />
<path d="M 127.0 189.0 L 127.0 189.0 L 127.0 189.0 L 130.0 189.0 L 139.0 189.0 L 153.0 189.0 L 165.0 189.0 L 171.0 189.0 L 171.0 190.0 " stroke="black" fill="none" stroke-width="5.0" stroke-linecap="round" stroke-linejoin="round" />
<path d="M 139.0 177.0 L 139.0 177.0 L 139.0 177.0 L 139.0 177.0 L 139.0 178.0 L 139.0 186.0 L 139.0 196.0 L 140.0 201.0 " stroke="black" fill="none" stroke-width="5.0" stroke-linecap="round" stroke-linejoin="round" />
<path d="M 152.0 176.0 L 152.0 176.0 L 152.0 178.0 L 152.0 183.0 L 153.0 192.0 L 153.0 203.0 L 154.0 206.0 " stroke="black" fill="none" stroke-width="5.0" stroke-linecap="round" stroke-linejoin="round" />
</svg>