<svg xmlns="http://www.w3.org/2000/svg" width="300" height="300" viewBox="0 0 300 300">
<path d="M 133.0 111.0 L 133.0 111.0 L 133.0 111.0 L 133.0 111.0 L 134.0 111.0 L 136.0 114.0 L 138.0 118.0 L 140.0 119.0 " stroke="black" fill="none" stroke-width="5.0" stroke-linecap="round" stroke-linejoin="round" />
<path d="M 156.0 109.0 L 156.0 110.0 L 156.0 111.0 L 155.0 113.0 L 154.0 116.0 L 154.0 117.0 " stroke="black" fill="none" stroke-width="5.0" stroke-linecap="round" stroke-linejoin="round" />
<path d="M 125.0 130.0 L 126.0 130.0 L 128.0 130.0 L 131.0 130.0 L 136.0 130.0 L 144.0 129.0 L 153.0 128.0 L 161.0 127.0 L 166.0 127.0 L 166.0 127.0 " stroke="black" fill="none" stroke-width="5.0" stroke-linecap="round" stroke-linejoin="round" />
<path d="M 128.0 147.0 L 129.0 146.0 L 131.0 146.0 L 134.0 146.0 L 140.0 145.0 L 148.0 145.0 L 154.0 144.0 L 158.0 144.0 L 159.0 144.0 " stroke="black" fill="none" stroke-width="5.0" stroke-linecap="round" stroke-linejoin="round" />
<path d="M 114.0 165.0 L 116.0 165.0 L 118.0 165.0 L 123.0 165.0 L 134.0 163.0 L 150.0 160.0 L 163.0 160.0 L 173.0 160.0 L 177.0 162.0 " stroke="black" fill="none" stroke-width="5.0" stroke-linecap="round" stroke-linejoin="round" />
<path d="M 143.0 134.0 L 143.0 134.0 L 143.0 136.0 L 143.0 141.0 L 144.0 151.0 L 146.0 160.0 " stroke="black" fill="none" stroke-width="5.0" stroke-linecap="round" stroke-linejoin="round" />
<path d="M 132.0 164.0 L 132.0 164.0 L 132.0 165.0 L 132.0 166.0 L 132.0 167.0 L 133.0 169.0 L 134.0 172.0 L 135.0 173.0 " stroke="black" fill="none" stroke-width="5.0" stroke-linecap="round" stroke-linejoin="round" />
<path d="M 152.0 163.0 L 152.0 163.0 L 152.0 163.0 L 152.0 163.0 L 152.0 165.0 L 151.0 170.0 L 151.0 171.0 " stroke="black" fill="none" stroke-width="5.0" stroke-linecap="round" stroke-linejoin="round" />
<path d="M 115.0 177.0 L 115.0 177.0 L 115.0 177.0 L 118.0 177.0 L 130.0 175.0 L 150.0 172.0 L 169.0 170.0 L 179.0 170.0 " stroke="black" fill="none" stroke-width="5.0" stroke-linecap="round" stroke-linejoin="round" />
<path d="M 130.0 189.0 L 130.0 189.0 L 129.0 189.0 L 128.0 189.0 L 128.0 189.0 L 129.0 192.0 L 130.0 196.0 L 132.0 200.0 " stroke="black" fill="none" stroke-width="5.0" stroke-linecap="round" stroke-linejoin="round" />
<path d="M 131.0 188.0 L 131.0 188.0 L 131.0 187.0 L 132.0 187.0 L 133.0 186.0 L 137.0 185.0 L 144.0 185.0 L 151.0 185.0 L 157.0 185.0 L 161.0 185.0 L 163.0 187.0 L 163.0 191.0 L 164.0 197.0 L 164.0 202.0 L 164.0 205.0 " stroke="black" fill="none" stroke-width="5.0" stroke-linecap="round" stroke-linejoin="round" />
<path d="M 136.0 203.0 L 136.0 203.0 L 137.0 203.0 L 139.0 203.0 L 145.0 203.0 L 154.0 202.0 L 163.0 202.0 L 165.0 202.0 " stroke="black" fill="none" stroke-width="5.0" stroke-linecap="round" stroke-linejoin="round" />
</svg>