<svg xmlns="http://www.w3.org/2000/svg" width="300" height="300" viewBox="0 0 300 300">
<path d="M 108.0 139.0 L 108.0 139.0 L 109.0 138.0 L 109.0 138.0 L 109.0 137.0 L 109.0 139.0 L 109.0 143.0 L 109.0 149.0 L 109.0 152.0 " stroke="black" fill="none" stroke-width="5.0" stroke-linecap="round" stroke-linejoin="round" />
<path d="M 108.0 137.0 L 108.0 137.0 L 108.0 137.0 L 108.0 137.0 L 108.0 137.0 L 111.0 137.0 L 116.0 136.0 L 121.0 136.0 L 126.0 136.0 L 129.0 138.0 L 130.0 143.0 L 130.0 149.0 L 129.0 154.0 L 128.0 156.0 " stroke="black" fill="none" stroke-width="5.0" stroke-linecap="round" stroke-linejoin="round" />
<path d="M 110.0 155.0 L 110.0 155.0 L 110.0 155.0 L 110.0 155.0 L 112.0 156.0 L 118.0 156.0 L 126.0 156.0 " stroke="black" fill="none" stroke-width="5.0" stroke-linecap="round" stroke-linejoin="round" />
<path d="M 152.0 111.0 L 152.0 111.0 L 152.0 111.0 L 152.0 111.0 L 152.0 114.0 L 150.0 121.0 L 146.0 133.0 L 140.0 145.0 L 134.0 155.0 L 133.0 157.0 " stroke="black" fill="none" stroke-width="5.0" stroke-linecap="round" stroke-linejoin="round" />
<path d="M 146.0 133.0 L 146.0 133.0 L 146.0 134.0 L 146.0 134.0 L 146.0 138.0 L 146.0 148.0 L 146.0 164.0 L 146.0 178.0 L 146.0 185.0 " stroke="black" fill="none" stroke-width="5.0" stroke-linecap="round" stroke-linejoin="round" />
<path d="M 163.0 117.0 L 163.0 117.0 L 163.0 117.0 L 163.0 118.0 L 164.0 120.0 L 166.0 124.0 L 168.0 128.0 L 168.0 129.0 " stroke="black" fill="none" stroke-width="5.0" stroke-linecap="round" stroke-linejoin="round" />
<path d="M 156.0 133.0 L 156.0 133.0 L 156.0 133.0 L 156.0 133.0 L 159.0 133.0 L 165.0 133.0 L 173.0 133.0 L 180.0 132.0 L 184.0 132.0 L 184.0 133.0 " stroke="black" fill="none" stroke-width="5.0" stroke-linecap="round" stroke-linejoin="round" />
<path d="M 160.0 147.0 L 160.0 147.0 L 160.0 147.0 L 160.0 147.0 L 163.0 147.0 L 170.0 147.0 L 176.0 147.0 L 180.0 147.0 L 181.0 148.0 " stroke="black" fill="none" stroke-width="5.0" stroke-linecap="round" stroke-linejoin="round" />
<path d="M 160.0 159.0 L 160.0 159.0 L 161.0 159.0 L 163.0 160.0 L 167.0 161.0 L 174.0 161.0 L 181.0 161.0 L 185.0 162.0 L 185.0 163.0 " stroke="black" fill="none" stroke-width="5.0" stroke-linecap="round" stroke-linejoin="round" />
<path d="M 155.0 187.0 L 155.0 187.0 L 156.0 187.0 L 159.0 187.0 L 166.0 187.0 L 177.0 187.0 L 187.0 187.0 L 194.0 188.0 " stroke="black" fill="none" stroke-width="5.0" stroke-linecap="round" stroke-linejoin="round" />
<path d="M 168.0 140.0 L 168.0 140.0 L 168.0 140.0 L 168.0 140.0 L 168.0 141.0 L 169.0 149.0 L 171.0 164.0 L 172.0 178.0 L 172.0 183.0 " stroke="black" fill="none" stroke-width="5.0" stroke-linecap="round" stroke-linejoin="round" />
</svg>