<svg xmlns="http://www.w3.org/2000/svg" width="300" height="300" viewBox="0 0 300 300">
<path d="M 111.0 137.0 L 111.0 137.0 L 110.0 138.0 L 110.0 140.0 L 110.0 145.0 L 110.0 148.0 " stroke="black" fill="none" stroke-width="5.0" stroke-linecap="round" stroke-linejoin="round" />
<path d="M 113.0 137.0 L 114.0 136.0 L 115.0 135.0 L 116.0 135.0 L 117.0 135.0 L 119.0 135.0 L 121.0 135.0 L 124.0 137.0 L 127.0 139.0 L 130.0 141.0 L 131.0 145.0 L 132.0 151.0 L 132.0 157.0 L 132.0 161.0 " stroke="black" fill="none" stroke-width="5.0" stroke-linecap="round" stroke-linejoin="round" />
<path d="M 111.0 157.0 L 111.0 158.0 L 111.0 158.0 L 114.0 159.0 L 121.0 159.0 L 130.0 159.0 L 132.0 159.0 " stroke="black" fill="none" stroke-width="5.0" stroke-linecap="round" stroke-linejoin="round" />
<path d="M 151.0 113.0 L 151.0 113.0 L 151.0 113.0 L 151.0 113.0 L 150.0 114.0 L 150.0 119.0 L 151.0 128.0 L 151.0 136.0 L 151.0 141.0 L 151.0 142.0 " stroke="black" fill="none" stroke-width="5.0" stroke-linecap="round" stroke-linejoin="round" />
<path d="M 153.0 115.0 L 153.0 115.0 L 153.0 115.0 L 154.0 115.0 L 156.0 115.0 L 162.0 114.0 L 169.0 113.0 L 176.0 112.0 L 180.0 112.0 L 183.0 113.0 L 185.0 114.0 L 187.0 119.0 L 187.0 126.0 L 187.0 133.0 L 187.0 138.0 L 187.0 139.0 " stroke="black" fill="none" stroke-width="5.0" stroke-linecap="round" stroke-linejoin="round" />
<path d="M 156.0 127.0 L 156.0 127.0 L 155.0 128.0 L 155.0 128.0 L 155.0 128.0 L 160.0 128.0 L 167.0 126.0 L 175.0 125.0 L 181.0 124.0 L 184.0 124.0 L 184.0 124.0 " stroke="black" fill="none" stroke-width="5.0" stroke-linecap="round" stroke-linejoin="round" />
<path d="M 153.0 143.0 L 153.0 143.0 L 152.0 144.0 L 153.0 145.0 L 159.0 145.0 L 169.0 145.0 L 180.0 143.0 L 183.0 143.0 " stroke="black" fill="none" stroke-width="5.0" stroke-linecap="round" stroke-linejoin="round" />
<path d="M 146.0 161.0 L 146.0 161.0 L 146.0 161.0 L 145.0 161.0 L 144.0 161.0 L 144.0 161.0 L 144.0 163.0 L 144.0 170.0 L 145.0 181.0 L 145.0 191.0 " stroke="black" fill="none" stroke-width="5.0" stroke-linecap="round" stroke-linejoin="round" />
<path d="M 148.0 162.0 L 148.0 162.0 L 148.0 162.0 L 148.0 162.0 L 149.0 162.0 L 152.0 161.0 L 160.0 159.0 L 171.0 159.0 L 181.0 159.0 L 188.0 159.0 L 193.0 160.0 L 196.0 161.0 L 197.0 165.0 L 198.0 173.0 L 198.0 184.0 L 198.0 192.0 L 199.0 197.0 L 199.0 198.0 " stroke="black" fill="none" stroke-width="5.0" stroke-linecap="round" stroke-linejoin="round" />
<path d="M 153.0 177.0 L 153.0 177.0 L 153.0 177.0 L 153.0 178.0 L 160.0 179.0 L 173.0 179.0 L 187.0 179.0 L 194.0 178.0 L 196.0 177.0 L 196.0 177.0 " stroke="black" fill="none" stroke-width="5.0" stroke-linecap="round" stroke-linejoin="round" />
<path d="M 147.0 202.0 L 147.0 203.0 L 149.0 203.0 L 155.0 203.0 L 170.0 203.0 L 186.0 202.0 L 196.0 201.0 L 197.0 201.0 " stroke="black" fill="none" stroke-width="5.0" stroke-linecap="round" stroke-linejoin="round" />
</svg>