<svg xmlns="http://www.w3.org/2000/svg" width="300" height="300" viewBox="0 0 300 300">
<path d="M 119.0 113.0 L 119.0 113.0 L 119.0 114.0 L 119.0 114.0 L 119.0 116.0 L 119.0 117.0 L 119.0 120.0 L 119.0 124.0 L 119.0 128.0 L 119.0 130.0 " stroke="black" fill="none" stroke-width="5.0" stroke-linecap="round" stroke-linejoin="round" />
<path d="M 119.0 113.0 L 119.0 113.0 L 121.0 113.0 L 122.0 112.0 L 124.0 112.0 L 126.0 112.0 L 130.0 112.0 L 133.0 112.0 L 137.0 114.0 L 140.0 117.0 L 142.0 122.0 L 142.0 127.0 L 142.0 129.0 " stroke="black" fill="none" stroke-width="5.0" stroke-linecap="round" stroke-linejoin="round" />
<path d="M 120.0 132.0 L 120.0 133.0 L 120.0 134.0 L 123.0 134.0 L 129.0 134.0 L 137.0 134.0 " stroke="black" fill="none" stroke-width="5.0" stroke-linecap="round" stroke-linejoin="round" />
<path d="M 115.0 153.0 L 115.0 153.0 L 115.0 153.0 L 115.0 155.0 L 115.0 160.0 L 114.0 171.0 L 114.0 183.0 L 113.0 189.0 L 113.0 190.0 " stroke="black" fill="none" stroke-width="5.0" stroke-linecap="round" stroke-linejoin="round" />
<path d="M 115.0 152.0 L 116.0 151.0 L 117.0 151.0 L 119.0 151.0 L 123.0 150.0 L 129.0 150.0 L 134.0 150.0 L 139.0 150.0 L 143.0 153.0 L 146.0 158.0 L 148.0 165.0 L 150.0 174.0 L 150.0 183.0 L 150.0 190.0 L 149.0 193.0 L 146.0 194.0 L 141.0 194.0 L 138.0 193.0 " stroke="black" fill="none" stroke-width="5.0" stroke-linecap="round" stroke-linejoin="round" />
<path d="M 113.0 167.0 L 114.0 167.0 L 116.0 167.0 L 119.0 168.0 L 125.0 168.0 L 134.0 166.0 L 141.0 166.0 L 144.0 165.0 " stroke="black" fill="none" stroke-width="5.0" stroke-linecap="round" stroke-linejoin="round" />
<path d="M 126.0 154.0 L 126.0 154.0 L 125.0 155.0 L 125.0 159.0 L 125.0 168.0 L 125.0 179.0 L 126.0 187.0 " stroke="black" fill="none" stroke-width="5.0" stroke-linecap="round" stroke-linejoin="round" />
<path d="M 137.0 153.0 L 137.0 153.0 L 137.0 155.0 L 137.0 160.0 L 137.0 171.0 L 137.0 185.0 L 137.0 191.0 " stroke="black" fill="none" stroke-width="5.0" stroke-linecap="round" stroke-linejoin="round" />
<path d="M 156.0 113.0 L 156.0 113.0 L 156.0 113.0 L 156.0 114.0 L 159.0 114.0 L 164.0 114.0 L 171.0 114.0 L 176.0 114.0 L 180.0 114.0 L 181.0 114.0 L 182.0 115.0 L 182.0 119.0 L 183.0 127.0 L 185.0 140.0 L 188.0 155.0 L 190.0 168.0 L 191.0 178.0 L 192.0 187.0 L 192.0 192.0 L 190.0 194.0 L 186.0 194.0 L 178.0 193.0 L 172.0 192.0 " stroke="black" fill="none" stroke-width="5.0" stroke-linecap="round" stroke-linejoin="round" />
<path d="M 159.0 137.0 L 159.0 137.0 L 160.0 137.0 L 161.0 138.0 L 165.0 138.0 L 170.0 138.0 L 174.0 138.0 " stroke="black" fill="none" stroke-width="5.0" stroke-linecap="round" stroke-linejoin="round" />
<path d="M 156.0 151.0 L 156.0 151.0 " stroke="black" fill="none" stroke-width="5.0" stroke-linecap="round" stroke-linejoin="round" />
<path d="M 157.0 152.0 L 158.0 153.0 L 158.0 155.0 L 158.0 157.0 L 158.0 160.0 L 159.0 163.0 L 159.0 163.0 " stroke="black" fill="none" stroke-width="5.0" stroke-linecap="round" stroke-linejoin="round" />
<path d="M 159.0 153.0 L 159.0 153.0 L 159.0 153.0 L 161.0 152.0 L 164.0 152.0 L 168.0 152.0 L 172.0 154.0 L 176.0 156.0 L 178.0 160.0 L 178.0 162.0 L 178.0 164.0 " stroke="black" fill="none" stroke-width="5.0" stroke-linecap="round" stroke-linejoin="round" />
<path d="M 160.0 163.0 L 160.0 163.0 L 160.0 163.0 L 160.0 164.0 L 160.0 164.0 L 160.0 165.0 L 163.0 165.0 L 168.0 165.0 L 176.0 165.0 L 177.0 165.0 " stroke="black" fill="none" stroke-width="5.0" stroke-linecap="round" stroke-linejoin="round" />
</svg>