<svg xmlns="http://www.w3.org/2000/svg" width="300" height="300" viewBox="0 0 300 300">
<path d="M 114.0 137.0 L 114.0 137.0 L 114.0 137.0 L 114.0 137.0 L 114.0 137.0 L 114.0 139.0 L 114.0 144.0 L 114.0 150.0 L 114.0 154.0 " stroke="black" fill="none" stroke-width="5.0" stroke-linecap="round" stroke-linejoin="round" />
<path d="M 114.0 137.0 L 114.0 136.0 L 114.0 136.0 L 115.0 136.0 L 116.0 136.0 L 118.0 135.0 L 121.0 135.0 L 125.0 136.0 L 128.0 137.0 L 130.0 138.0 L 132.0 140.0 L 132.0 144.0 L 132.0 149.0 L 132.0 153.0 L 132.0 154.0 " stroke="black" fill="none" stroke-width="5.0" stroke-linecap="round" stroke-linejoin="round" />
<path d="M 114.0 157.0 L 114.0 157.0 L 114.0 158.0 L 114.0 159.0 L 117.0 159.0 L 125.0 159.0 L 133.0 158.0 L 134.0 158.0 " stroke="black" fill="none" stroke-width="5.0" stroke-linecap="round" stroke-linejoin="round" />
<path d="M 159.0 113.0 L 159.0 113.0 L 159.0 113.0 L 159.0 113.0 L 159.0 113.0 L 158.0 115.0 L 158.0 118.0 L 158.0 123.0 L 158.0 127.0 L 160.0 131.0 L 163.0 132.0 L 168.0 132.0 L 172.0 132.0 L 173.0 132.0 " stroke="black" fill="none" stroke-width="5.0" stroke-linecap="round" stroke-linejoin="round" />
<path d="M 175.0 110.0 L 175.0 110.0 L 175.0 109.0 L 175.0 109.0 L 175.0 109.0 L 176.0 112.0 L 176.0 119.0 L 176.0 128.0 L 176.0 132.0 " stroke="black" fill="none" stroke-width="5.0" stroke-linecap="round" stroke-linejoin="round" />
<path d="M 145.0 120.0 L 145.0 120.0 L 145.0 120.0 L 146.0 120.0 L 151.0 120.0 L 161.0 120.0 L 174.0 120.0 L 184.0 120.0 L 188.0 120.0 L 189.0 120.0 L 189.0 120.0 " stroke="black" fill="none" stroke-width="5.0" stroke-linecap="round" stroke-linejoin="round" />
<path d="M 148.0 141.0 L 148.0 141.0 L 148.0 141.0 L 148.0 141.0 L 148.0 142.0 L 148.0 146.0 L 149.0 150.0 L 150.0 152.0 " stroke="black" fill="none" stroke-width="5.0" stroke-linecap="round" stroke-linejoin="round" />
<path d="M 149.0 140.0 L 149.0 140.0 L 149.0 140.0 L 150.0 140.0 L 153.0 140.0 L 160.0 140.0 L 169.0 140.0 L 177.0 140.0 L 183.0 140.0 L 186.0 142.0 L 187.0 146.0 L 188.0 150.0 L 188.0 152.0 L 188.0 154.0 " stroke="black" fill="none" stroke-width="5.0" stroke-linecap="round" stroke-linejoin="round" />
<path d="M 150.0 156.0 L 150.0 156.0 L 150.0 156.0 L 150.0 156.0 L 154.0 156.0 L 163.0 156.0 L 174.0 156.0 L 183.0 156.0 L 187.0 156.0 L 187.0 156.0 L 187.0 156.0 " stroke="black" fill="none" stroke-width="5.0" stroke-linecap="round" stroke-linejoin="round" />
<path d="M 153.0 165.0 L 153.0 165.0 L 154.0 166.0 L 157.0 166.0 L 165.0 166.0 L 173.0 165.0 L 178.0 165.0 L 178.0 165.0 " stroke="black" fill="none" stroke-width="5.0" stroke-linecap="round" stroke-linejoin="round" />
<path d="M 142.0 183.0 L 143.0 183.0 L 145.0 183.0 L 151.0 183.0 L 163.0 183.0 L 179.0 182.0 L 191.0 182.0 L 195.0 182.0 L 195.0 182.0 " stroke="black" fill="none" stroke-width="5.0" stroke-linecap="round" stroke-linejoin="round" />
<path d="M 169.0 137.0 L 169.0 137.0 L 169.0 137.0 L 169.0 138.0 L 169.0 142.0 L 168.0 153.0 L 164.0 168.0 L 158.0 184.0 L 152.0 195.0 L 148.0 199.0 " stroke="black" fill="none" stroke-width="5.0" stroke-linecap="round" stroke-linejoin="round" />
<path d="M 176.0 190.0 L 176.0 190.0 L 178.0 190.0 L 180.0 190.0 L 184.0 193.0 L 189.0 197.0 L 194.0 200.0 L 195.0 201.0 " stroke="black" fill="none" stroke-width="5.0" stroke-linecap="round" stroke-linejoin="round" />
</svg>