<svg xmlns="http://www.w3.org/2000/svg" width="300" height="300" viewBox="0 0 300 300">
<path d="M 120.0 118.0 L 121.0 118.0 L 121.0 118.0 L 121.0 119.0 L 122.0 121.0 L 122.0 124.0 L 123.0 128.0 L 123.0 133.0 L 123.0 134.0 " stroke="black" fill="none" stroke-width="5.0" stroke-linecap="round" stroke-linejoin="round" />
<path d="M 121.0 117.0 L 121.0 117.0 L 121.0 117.0 L 121.0 117.0 L 122.0 117.0 L 124.0 117.0 L 129.0 117.0 L 134.0 118.0 L 139.0 119.0 L 142.0 121.0 L 142.0 126.0 L 142.0 131.0 L 142.0 134.0 " stroke="black" fill="none" stroke-width="5.0" stroke-linecap="round" stroke-linejoin="round" />
<path d="M 123.0 135.0 L 123.0 135.0 L 124.0 137.0 L 127.0 138.0 L 136.0 137.0 L 144.0 136.0 " stroke="black" fill="none" stroke-width="5.0" stroke-linecap="round" stroke-linejoin="round" />
<path d="M 154.0 117.0 L 154.0 117.0 L 154.0 117.0 L 155.0 117.0 L 155.0 118.0 L 156.0 123.0 L 156.0 128.0 L 157.0 132.0 L 157.0 133.0 " stroke="black" fill="none" stroke-width="5.0" stroke-linecap="round" stroke-linejoin="round" />
<path d="M 154.0 115.0 L 154.0 115.0 L 155.0 115.0 L 156.0 115.0 L 157.0 115.0 L 160.0 115.0 L 164.0 115.0 L 168.0 116.0 L 172.0 119.0 L 174.0 124.0 L 175.0 129.0 L 176.0 133.0 " stroke="black" fill="none" stroke-width="5.0" stroke-linecap="round" stroke-linejoin="round" />
<path d="M 152.0 136.0 L 153.0 136.0 L 153.0 137.0 L 155.0 138.0 L 161.0 138.0 L 169.0 137.0 L 173.0 137.0 " stroke="black" fill="none" stroke-width="5.0" stroke-linecap="round" stroke-linejoin="round" />
<path d="M 129.0 155.0 L 129.0 155.0 L 129.0 155.0 L 129.0 155.0 L 129.0 155.0 L 130.0 155.0 L 134.0 155.0 L 145.0 155.0 L 159.0 155.0 L 170.0 155.0 L 171.0 155.0 " stroke="black" fill="none" stroke-width="5.0" stroke-linecap="round" stroke-linejoin="round" />
<path d="M 150.0 146.0 L 150.0 146.0 L 150.0 146.0 L 150.0 147.0 L 149.0 149.0 L 146.0 156.0 L 138.0 170.0 L 126.0 184.0 " stroke="black" fill="none" stroke-width="5.0" stroke-linecap="round" stroke-linejoin="round" />
<path d="M 151.0 161.0 L 152.0 161.0 L 154.0 162.0 L 157.0 165.0 L 164.0 171.0 L 174.0 177.0 L 182.0 179.0 " stroke="black" fill="none" stroke-width="5.0" stroke-linecap="round" stroke-linejoin="round" />
<path d="M 171.0 147.0 L 172.0 148.0 L 174.0 150.0 L 176.0 155.0 " stroke="black" fill="none" stroke-width="5.0" stroke-linecap="round" stroke-linejoin="round" />
<path d="M 121.0 194.0 L 121.0 194.0 L 121.0 195.0 L 121.0 197.0 L 122.0 201.0 " stroke="black" fill="none" stroke-width="5.0" stroke-linecap="round" stroke-linejoin="round" />
<path d="M 123.0 190.0 L 124.0 189.0 L 126.0 189.0 L 129.0 189.0 L 133.0 189.0 L 138.0 189.0 L 142.0 190.0 L 145.0 194.0 L 146.0 200.0 L 147.0 203.0 " stroke="black" fill="none" stroke-width="5.0" stroke-linecap="round" stroke-linejoin="round" />
<path d="M 125.0 206.0 L 126.0 206.0 L 128.0 206.0 L 133.0 206.0 L 140.0 207.0 L 142.0 207.0 " stroke="black" fill="none" stroke-width="5.0" stroke-linecap="round" stroke-linejoin="round" />
<path d="M 158.0 191.0 L 158.0 191.0 L 158.0 191.0 L 158.0 190.0 L 158.0 191.0 L 158.0 197.0 L 159.0 204.0 L 160.0 209.0 " stroke="black" fill="none" stroke-width="5.0" stroke-linecap="round" stroke-linejoin="round" />
<path d="M 159.0 191.0 L 159.0 191.0 L 161.0 190.0 L 163.0 190.0 L 167.0 190.0 L 172.0 190.0 L 177.0 191.0 L 181.0 193.0 L 185.0 198.0 L 186.0 204.0 L 187.0 209.0 L 187.0 211.0 " stroke="black" fill="none" stroke-width="5.0" stroke-linecap="round" stroke-linejoin="round" />
<path d="M 160.0 209.0 L 161.0 209.0 L 164.0 209.0 L 168.0 210.0 L 175.0 210.0 L 182.0 210.0 " stroke="black" fill="none" stroke-width="5.0" stroke-linecap="round" stroke-linejoin="round" />
</svg>