<svg xmlns="http://www.w3.org/2000/svg" width="300" height="300" viewBox="0 0 300 300">
<path d="M 126.0 117.0 L 126.0 117.0 L 126.0 117.0 L 126.0 117.0 L 125.0 117.0 L 124.0 119.0 L 124.0 131.0 L 124.0 150.0 L 124.0 168.0 L 124.0 175.0 L 125.0 176.0 " stroke="black" fill="none" stroke-width="5.0" stroke-linecap="round" stroke-linejoin="round" />
<path d="M 134.0 114.0 L 134.0 114.0 L 134.0 114.0 L 134.0 114.0 L 136.0 114.0 L 142.0 113.0 L 153.0 113.0 L 165.0 113.0 L 176.0 113.0 L 181.0 113.0 L 183.0 114.0 L 184.0 116.0 L 184.0 122.0 L 185.0 133.0 L 186.0 147.0 L 187.0 160.0 L 188.0 168.0 L 189.0 172.0 L 188.0 174.0 " stroke="black" fill="none" stroke-width="5.0" stroke-linecap="round" stroke-linejoin="round" />
<path d="M 143.0 142.0 L 143.0 142.0 L 143.0 144.0 L 143.0 146.0 L 143.0 149.0 L 143.0 152.0 " stroke="black" fill="none" stroke-width="5.0" stroke-linecap="round" stroke-linejoin="round" />
<path d="M 146.0 139.0 L 147.0 139.0 L 147.0 139.0 L 149.0 139.0 L 152.0 138.0 L 156.0 138.0 L 160.0 138.0 L 164.0 139.0 L 165.0 144.0 L 165.0 149.0 L 165.0 153.0 L 165.0 155.0 " stroke="black" fill="none" stroke-width="5.0" stroke-linecap="round" stroke-linejoin="round" />
<path d="M 147.0 154.0 L 146.0 155.0 L 145.0 155.0 L 145.0 156.0 L 150.0 156.0 L 157.0 156.0 L 163.0 155.0 " stroke="black" fill="none" stroke-width="5.0" stroke-linecap="round" stroke-linejoin="round" />
<path d="M 124.0 178.0 L 125.0 178.0 L 126.0 179.0 L 130.0 180.0 L 138.0 180.0 L 152.0 178.0 L 167.0 176.0 L 177.0 176.0 L 180.0 176.0 " stroke="black" fill="none" stroke-width="5.0" stroke-linecap="round" stroke-linejoin="round" />
</svg>