<svg xmlns="http://www.w3.org/2000/svg" width="300" height="300" viewBox="0 0 300 300">
<path d="M 109.0 131.0 L 109.0 131.0 L 109.0 131.0 L 109.0 131.0 L 109.0 134.0 L 109.0 140.0 L 109.0 150.0 L 109.0 158.0 L 109.0 162.0 L 109.0 162.0 " stroke="black" fill="none" stroke-width="5.0" stroke-linecap="round" stroke-linejoin="round" />
<path d="M 111.0 131.0 L 111.0 131.0 L 112.0 131.0 L 112.0 131.0 L 113.0 131.0 L 115.0 131.0 L 117.0 131.0 L 120.0 131.0 L 122.0 133.0 L 124.0 139.0 L 127.0 148.0 L 128.0 157.0 L 129.0 163.0 L 129.0 165.0 L 129.0 164.0 L 128.0 164.0 " stroke="black" fill="none" stroke-width="5.0" stroke-linecap="round" stroke-linejoin="round" />
<path d="M 110.0 163.0 L 110.0 163.0 L 110.0 163.0 L 111.0 164.0 L 114.0 164.0 L 122.0 164.0 L 126.0 164.0 " stroke="black" fill="none" stroke-width="5.0" stroke-linecap="round" stroke-linejoin="round" />
<path d="M 134.0 129.0 L 134.0 129.0 L 134.0 129.0 L 134.0 129.0 L 139.0 129.0 L 145.0 129.0 L 150.0 129.0 L 153.0 129.0 L 154.0 129.0 " stroke="black" fill="none" stroke-width="5.0" stroke-linecap="round" stroke-linejoin="round" />
<path d="M 133.0 144.0 L 133.0 144.0 L 133.0 144.0 L 133.0 144.0 L 134.0 144.0 L 134.0 145.0 L 135.0 150.0 L 135.0 156.0 L 136.0 160.0 L 138.0 163.0 L 141.0 164.0 L 147.0 164.0 L 152.0 164.0 L 156.0 164.0 L 158.0 163.0 L 159.0 162.0 L 159.0 159.0 L 159.0 155.0 L 157.0 151.0 " stroke="black" fill="none" stroke-width="5.0" stroke-linecap="round" stroke-linejoin="round" />
<path d="M 145.0 120.0 L 145.0 120.0 L 145.0 120.0 L 145.0 120.0 L 145.0 120.0 L 145.0 123.0 L 144.0 134.0 L 144.0 151.0 L 144.0 167.0 L 145.0 179.0 L 149.0 187.0 L 153.0 189.0 L 157.0 189.0 L 160.0 187.0 L 162.0 181.0 L 163.0 173.0 " stroke="black" fill="none" stroke-width="5.0" stroke-linecap="round" stroke-linejoin="round" />
<path d="M 165.0 111.0 L 165.0 111.0 L 165.0 111.0 L 165.0 111.0 L 167.0 111.0 L 172.0 111.0 L 178.0 111.0 L 181.0 111.0 L 182.0 112.0 " stroke="black" fill="none" stroke-width="5.0" stroke-linecap="round" stroke-linejoin="round" />
<path d="M 175.0 114.0 L 175.0 114.0 L 175.0 114.0 L 175.0 114.0 L 175.0 115.0 L 175.0 115.0 L 175.0 116.0 L 175.0 118.0 L 174.0 122.0 L 172.0 126.0 L 170.0 129.0 L 169.0 130.0 L 169.0 131.0 L 169.0 132.0 L 169.0 133.0 L 169.0 135.0 L 170.0 139.0 L 170.0 143.0 L 171.0 149.0 L 172.0 158.0 L 172.0 165.0 L 172.0 171.0 L 172.0 173.0 L 173.0 172.0 " stroke="black" fill="none" stroke-width="5.0" stroke-linecap="round" stroke-linejoin="round" />
<path d="M 170.0 134.0 L 170.0 134.0 L 170.0 134.0 L 170.0 134.0 L 170.0 134.0 L 173.0 134.0 L 176.0 134.0 L 180.0 134.0 L 183.0 134.0 L 186.0 135.0 L 188.0 138.0 L 190.0 144.0 L 192.0 153.0 L 194.0 163.0 L 195.0 170.0 L 196.0 173.0 L 195.0 173.0 " stroke="black" fill="none" stroke-width="5.0" stroke-linecap="round" stroke-linejoin="round" />
<path d="M 173.0 152.0 L 173.0 152.0 L 173.0 152.0 L 173.0 152.0 L 174.0 151.0 L 178.0 151.0 L 183.0 151.0 L 188.0 151.0 L 191.0 152.0 L 193.0 153.0 " stroke="black" fill="none" stroke-width="5.0" stroke-linecap="round" stroke-linejoin="round" />
<path d="M 178.0 161.0 L 178.0 161.0 L 179.0 162.0 L 181.0 162.0 L 183.0 162.0 L 187.0 162.0 L 190.0 162.0 L 191.0 162.0 " stroke="black" fill="none" stroke-width="5.0" stroke-linecap="round" stroke-linejoin="round" />
<path d="M 173.0 175.0 L 173.0 175.0 L 174.0 176.0 L 176.0 177.0 L 181.0 177.0 L 187.0 177.0 L 192.0 177.0 L 193.0 177.0 " stroke="black" fill="none" stroke-width="5.0" stroke-linecap="round" stroke-linejoin="round" />
<path d="M 181.0 179.0 L 181.0 180.0 L 181.0 181.0 L 180.0 183.0 L 179.0 186.0 L 178.0 189.0 L 178.0 190.0 " stroke="black" fill="none" stroke-width="5.0" stroke-linecap="round" stroke-linejoin="round" />
<path d="M 192.0 178.0 L 192.0 179.0 L 193.0 183.0 L 195.0 189.0 L 198.0 196.0 L 200.0 200.0 " stroke="black" fill="none" stroke-width="5.0" stroke-linecap="round" stroke-linejoin="round" />
</svg>