<svg xmlns="http://www.w3.org/2000/svg" width="300" height="300" viewBox="0 0 300 300">
<path d="M 123.0 105.0 L 123.0 105.0 L 123.0 107.0 L 123.0 111.0 L 122.0 120.0 L 118.0 131.0 L 113.0 141.0 L 111.0 143.0 " stroke="black" fill="none" stroke-width="5.0" stroke-linecap="round" stroke-linejoin="round" />
<path d="M 121.0 127.0 L 122.0 128.0 L 124.0 130.0 L 127.0 132.0 L 132.0 137.0 L 139.0 141.0 L 143.0 143.0 " stroke="black" fill="none" stroke-width="5.0" stroke-linecap="round" stroke-linejoin="round" />
<path d="M 164.0 103.0 L 164.0 102.0 L 164.0 102.0 L 165.0 102.0 L 165.0 104.0 L 165.0 111.0 L 161.0 122.0 L 155.0 136.0 L 152.0 142.0 " stroke="black" fill="none" stroke-width="5.0" stroke-linecap="round" stroke-linejoin="round" />
<path d="M 159.0 127.0 L 159.0 127.0 L 160.0 127.0 L 161.0 127.0 L 164.0 128.0 L 171.0 132.0 L 179.0 137.0 L 180.0 138.0 " stroke="black" fill="none" stroke-width="5.0" stroke-linecap="round" stroke-linejoin="round" />
<path d="M 127.0 164.0 L 127.0 164.0 L 127.0 164.0 L 129.0 164.0 L 134.0 164.0 L 147.0 164.0 L 161.0 162.0 L 170.0 162.0 " stroke="black" fill="none" stroke-width="5.0" stroke-linecap="round" stroke-linejoin="round" />
<path d="M 109.0 192.0 L 110.0 192.0 L 111.0 192.0 L 115.0 192.0 L 129.0 190.0 L 151.0 188.0 L 170.0 187.0 L 182.0 187.0 L 184.0 188.0 " stroke="black" fill="none" stroke-width="5.0" stroke-linecap="round" stroke-linejoin="round" />
<path d="M 147.0 95.0 L 147.0 96.0 L 147.0 98.0 L 147.0 102.0 L 147.0 113.0 L 147.0 131.0 L 147.0 155.0 L 148.0 174.0 L 148.0 183.0 L 148.0 184.0 " stroke="black" fill="none" stroke-width="5.0" stroke-linecap="round" stroke-linejoin="round" />
</svg>