<svg xmlns="http://www.w3.org/2000/svg" width="300" height="300" viewBox="0 0 300 300">
<path d="M 121.0 109.0 L 121.0 109.0 L 122.0 110.0 L 122.0 112.0 L 122.0 118.0 L 122.0 135.0 L 122.0 160.0 L 124.0 181.0 L 126.0 186.0 " stroke="black" fill="none" stroke-width="5.0" stroke-linecap="round" stroke-linejoin="round" />
<path d="M 128.0 110.0 L 128.0 110.0 L 128.0 110.0 L 128.0 110.0 L 131.0 110.0 L 139.0 109.0 L 149.0 108.0 L 159.0 108.0 L 167.0 108.0 L 173.0 110.0 L 177.0 116.0 L 181.0 128.0 L 185.0 148.0 L 189.0 169.0 L 190.0 185.0 L 191.0 188.0 " stroke="black" fill="none" stroke-width="5.0" stroke-linecap="round" stroke-linejoin="round" />
<path d="M 139.0 124.0 L 139.0 124.0 L 139.0 124.0 L 139.0 124.0 L 139.0 124.0 L 145.0 124.0 L 151.0 124.0 L 156.0 124.0 " stroke="black" fill="none" stroke-width="5.0" stroke-linecap="round" stroke-linejoin="round" />
<path d="M 131.0 135.0 L 132.0 135.0 L 134.0 136.0 L 140.0 136.0 L 150.0 136.0 L 160.0 135.0 L 163.0 135.0 " stroke="black" fill="none" stroke-width="5.0" stroke-linecap="round" stroke-linejoin="round" />
<path d="M 145.0 117.0 L 145.0 117.0 L 145.0 117.0 L 145.0 117.0 L 145.0 123.0 L 147.0 133.0 " stroke="black" fill="none" stroke-width="5.0" stroke-linecap="round" stroke-linejoin="round" />
<path d="M 140.0 147.0 L 140.0 147.0 L 140.0 147.0 L 140.0 148.0 L 140.0 151.0 L 142.0 155.0 " stroke="black" fill="none" stroke-width="5.0" stroke-linecap="round" stroke-linejoin="round" />
<path d="M 142.0 147.0 L 142.0 147.0 L 143.0 146.0 L 144.0 146.0 L 148.0 145.0 L 153.0 145.0 L 158.0 145.0 L 162.0 146.0 L 164.0 149.0 L 164.0 152.0 " stroke="black" fill="none" stroke-width="5.0" stroke-linecap="round" stroke-linejoin="round" />
<path d="M 140.0 156.0 L 140.0 156.0 L 140.0 157.0 L 144.0 157.0 L 150.0 157.0 L 156.0 156.0 L 158.0 156.0 " stroke="black" fill="none" stroke-width="5.0" stroke-linecap="round" stroke-linejoin="round" />
<path d="M 149.0 157.0 L 149.0 157.0 L 148.0 157.0 L 148.0 158.0 L 146.0 160.0 L 141.0 166.0 L 135.0 173.0 " stroke="black" fill="none" stroke-width="5.0" stroke-linecap="round" stroke-linejoin="round" />
<path d="M 144.0 168.0 L 144.0 168.0 L 144.0 169.0 L 143.0 169.0 L 143.0 170.0 L 143.0 175.0 L 144.0 180.0 L 147.0 185.0 L 151.0 185.0 L 153.0 184.0 " stroke="black" fill="none" stroke-width="5.0" stroke-linecap="round" stroke-linejoin="round" />
<path d="M 172.0 161.0 L 172.0 161.0 L 172.0 163.0 L 172.0 164.0 L 170.0 167.0 L 169.0 169.0 " stroke="black" fill="none" stroke-width="5.0" stroke-linecap="round" stroke-linejoin="round" />
<path d="M 156.0 162.0 L 157.0 163.0 L 158.0 164.0 L 162.0 166.0 L 167.0 172.0 L 173.0 179.0 L 174.0 181.0 " stroke="black" fill="none" stroke-width="5.0" stroke-linecap="round" stroke-linejoin="round" />
<path d="M 127.0 195.0 L 127.0 195.0 L 127.0 195.0 L 129.0 194.0 L 141.0 194.0 L 162.0 195.0 L 181.0 195.0 " stroke="black" fill="none" stroke-width="5.0" stroke-linecap="round" stroke-linejoin="round" />
</svg>