<svg xmlns="http://www.w3.org/2000/svg" width="300" height="300" viewBox="0 0 300 300">
<path d="M 110.0 136.0 L 110.0 136.0 L 111.0 135.0 L 112.0 135.0 L 112.0 135.0 L 113.0 135.0 L 116.0 135.0 L 121.0 134.0 L 131.0 132.0 " stroke="black" fill="none" stroke-width="8.0" stroke-linecap="round" stroke-linejoin="round" />
<path d="M 100.0 184.0 L 100.0 184.0 L 100.0 185.0 L 100.0 185.0 L 105.0 184.0 L 117.0 180.0 L 133.0 174.0 L 141.0 172.0 " stroke="black" fill="none" stroke-width="8.0" stroke-linecap="round" stroke-linejoin="round" />
<path d="M 119.0 113.0 L 119.0 113.0 L 119.0 114.0 L 119.0 117.0 L 119.0 125.0 L 119.0 143.0 L 119.0 162.0 " stroke="black" fill="none" stroke-width="8.0" stroke-linecap="round" stroke-linejoin="round" />
<path d="M 147.0 143.0 L 147.0 143.0 L 147.0 143.0 L 146.0 144.0 L 146.0 144.0 L 152.0 142.0 L 164.0 138.0 L 180.0 134.0 L 192.0 130.0 L 200.0 129.0 L 203.0 129.0 L 204.0 131.0 L 204.0 135.0 L 204.0 140.0 L 202.0 144.0 L 201.0 146.0 " stroke="black" fill="none" stroke-width="8.0" stroke-linecap="round" stroke-linejoin="round" />
<path d="M 185.0 106.0 L 185.0 106.0 L 183.0 107.0 L 182.0 113.0 L 182.0 125.0 L 182.0 139.0 L 180.0 151.0 " stroke="black" fill="none" stroke-width="8.0" stroke-linecap="round" stroke-linejoin="round" />
<path d="M 163.0 107.0 L 163.0 107.0 L 162.0 107.0 L 162.0 107.0 L 161.0 112.0 L 161.0 125.0 L 161.0 144.0 L 160.0 163.0 L 159.0 180.0 L 159.0 190.0 L 164.0 193.0 L 174.0 194.0 L 186.0 195.0 L 196.0 196.0 L 203.0 196.0 L 209.0 194.0 L 214.0 188.0 L 217.0 180.0 L 217.0 173.0 L 217.0 169.0 " stroke="black" fill="none" stroke-width="8.0" stroke-linecap="round" stroke-linejoin="round" />
</svg>