<svg xmlns="http://www.w3.org/2000/svg" width="300" height="300" viewBox="0 0 300 300">
<path d="M 124.0 128.0 L 124.0 128.0 L 124.0 128.0 L 124.0 128.0 L 133.0 128.0 L 151.0 126.0 L 172.0 124.0 L 180.0 124.0 " stroke="black" fill="none" stroke-width="5.0" stroke-linecap="round" stroke-linejoin="round" />
<path d="M 155.0 110.0 L 155.0 110.0 L 154.0 111.0 L 152.0 115.0 L 149.0 127.0 L 141.0 145.0 L 127.0 164.0 L 116.0 174.0 " stroke="black" fill="none" stroke-width="5.0" stroke-linecap="round" stroke-linejoin="round" />
<path d="M 131.0 161.0 L 131.0 161.0 L 131.0 161.0 L 131.0 161.0 L 131.0 161.0 L 131.0 164.0 L 132.0 176.0 L 134.0 194.0 L 135.0 206.0 " stroke="black" fill="none" stroke-width="5.0" stroke-linecap="round" stroke-linejoin="round" />
<path d="M 150.0 170.0 L 150.0 170.0 L 150.0 171.0 L 150.0 171.0 L 153.0 171.0 L 164.0 171.0 L 181.0 169.0 L 185.0 169.0 " stroke="black" fill="none" stroke-width="5.0" stroke-linecap="round" stroke-linejoin="round" />
<path d="M 147.0 203.0 L 147.0 203.0 L 148.0 203.0 L 151.0 203.0 L 163.0 202.0 L 181.0 200.0 L 195.0 199.0 " stroke="black" fill="none" stroke-width="5.0" stroke-linecap="round" stroke-linejoin="round" />
<path d="M 165.0 152.0 L 165.0 152.0 L 165.0 152.0 L 165.0 156.0 L 167.0 171.0 L 169.0 191.0 L 169.0 195.0 " stroke="black" fill="none" stroke-width="5.0" stroke-linecap="round" stroke-linejoin="round" />
</svg>