<svg xmlns="http://www.w3.org/2000/svg" width="300" height="300" viewBox="0 0 300 300">
<path d="M 113.0 137.0 L 115.0 137.0 L 115.0 137.0 L 117.0 137.0 L 120.0 137.0 L 124.0 137.0 L 129.0 137.0 L 132.0 137.0 " stroke="black" fill="none" stroke-width="5.0" stroke-linecap="round" stroke-linejoin="round" />
<path d="M 104.0 167.0 L 105.0 167.0 L 107.0 167.0 L 112.0 167.0 L 122.0 167.0 L 132.0 167.0 L 134.0 167.0 " stroke="black" fill="none" stroke-width="5.0" stroke-linecap="round" stroke-linejoin="round" />
<path d="M 121.0 125.0 L 121.0 127.0 L 121.0 130.0 L 122.0 136.0 L 122.0 146.0 L 123.0 158.0 L 123.0 164.0 " stroke="black" fill="none" stroke-width="5.0" stroke-linecap="round" stroke-linejoin="round" />
<path d="M 148.0 118.0 L 148.0 118.0 L 148.0 118.0 L 148.0 119.0 L 148.0 120.0 L 147.0 124.0 L 145.0 133.0 L 142.0 143.0 L 139.0 150.0 " stroke="black" fill="none" stroke-width="5.0" stroke-linecap="round" stroke-linejoin="round" />
<path d="M 147.0 131.0 L 147.0 131.0 L 148.0 131.0 L 150.0 131.0 L 153.0 131.0 L 158.0 131.0 L 164.0 131.0 L 170.0 131.0 L 175.0 131.0 L 178.0 133.0 L 180.0 137.0 L 182.0 145.0 L 184.0 158.0 L 186.0 173.0 L 188.0 185.0 L 189.0 192.0 L 190.0 195.0 L 188.0 196.0 L 182.0 197.0 L 171.0 193.0 " stroke="black" fill="none" stroke-width="5.0" stroke-linecap="round" stroke-linejoin="round" />
<path d="M 152.0 152.0 L 152.0 152.0 L 152.0 152.0 L 152.0 152.0 L 154.0 152.0 L 158.0 152.0 L 164.0 153.0 L 169.0 153.0 " stroke="black" fill="none" stroke-width="5.0" stroke-linecap="round" stroke-linejoin="round" />
<path d="M 149.0 168.0 L 149.0 168.0 L 150.0 169.0 L 152.0 169.0 L 156.0 171.0 L 164.0 171.0 L 170.0 172.0 " stroke="black" fill="none" stroke-width="5.0" stroke-linecap="round" stroke-linejoin="round" />
</svg>