<svg xmlns="http://www.w3.org/2000/svg" width="300" height="300" viewBox="0 0 300 300">
<path d="M 117.0 135.0 L 117.0 135.0 L 117.0 135.0 L 117.0 135.0 L 117.0 136.0 L 119.0 136.0 L 122.0 136.0 L 130.0 136.0 L 132.0 136.0 " stroke="black" fill="none" stroke-width="5.0" stroke-linecap="round" stroke-linejoin="round" />
<path d="M 104.0 167.0 L 104.0 168.0 L 104.0 169.0 L 104.0 169.0 L 109.0 169.0 L 119.0 168.0 L 131.0 167.0 L 135.0 166.0 " stroke="black" fill="none" stroke-width="5.0" stroke-linecap="round" stroke-linejoin="round" />
<path d="M 125.0 127.0 L 125.0 127.0 L 125.0 127.0 L 125.0 127.0 L 125.0 133.0 L 124.0 149.0 L 123.0 165.0 L 123.0 167.0 " stroke="black" fill="none" stroke-width="5.0" stroke-linecap="round" stroke-linejoin="round" />
<path d="M 163.0 111.0 L 163.0 111.0 L 162.0 113.0 L 160.0 115.0 L 157.0 120.0 L 153.0 125.0 L 150.0 129.0 L 150.0 131.0 L 153.0 132.0 L 160.0 132.0 L 169.0 132.0 L 174.0 132.0 " stroke="black" fill="none" stroke-width="5.0" stroke-linecap="round" stroke-linejoin="round" />
<path d="M 174.0 122.0 L 174.0 123.0 L 174.0 124.0 L 176.0 127.0 L 179.0 133.0 L 182.0 139.0 " stroke="black" fill="none" stroke-width="5.0" stroke-linecap="round" stroke-linejoin="round" />
<path d="M 154.0 138.0 L 154.0 138.0 L 155.0 138.0 L 156.0 138.0 L 156.0 138.0 L 156.0 138.0 L 156.0 139.0 L 154.0 142.0 L 149.0 150.0 L 148.0 152.0 " stroke="black" fill="none" stroke-width="5.0" stroke-linecap="round" stroke-linejoin="round" />
<path d="M 153.0 147.0 L 153.0 147.0 L 153.0 147.0 L 153.0 147.0 L 158.0 147.0 L 166.0 147.0 L 174.0 147.0 L 179.0 148.0 L 181.0 149.0 " stroke="black" fill="none" stroke-width="5.0" stroke-linecap="round" stroke-linejoin="round" />
<path d="M 145.0 167.0 L 144.0 167.0 L 144.0 167.0 L 143.0 167.0 L 148.0 167.0 L 159.0 167.0 L 172.0 166.0 L 182.0 166.0 L 186.0 167.0 L 187.0 167.0 " stroke="black" fill="none" stroke-width="5.0" stroke-linecap="round" stroke-linejoin="round" />
<path d="M 165.0 149.0 L 165.0 149.0 L 164.0 151.0 L 162.0 154.0 L 160.0 161.0 L 157.0 171.0 L 152.0 184.0 L 147.0 193.0 L 147.0 194.0 " stroke="black" fill="none" stroke-width="5.0" stroke-linecap="round" stroke-linejoin="round" />
<path d="M 162.0 170.0 L 162.0 170.0 L 162.0 171.0 L 168.0 175.0 L 177.0 186.0 L 187.0 197.0 L 191.0 201.0 " stroke="black" fill="none" stroke-width="5.0" stroke-linecap="round" stroke-linejoin="round" />
</svg>