<svg xmlns="http://www.w3.org/2000/svg" width="300" height="300" viewBox="0 0 300 300">
<path d="M 115.0 139.0 L 115.0 139.0 L 115.0 139.0 L 115.0 139.0 L 115.0 139.0 L 116.0 139.0 L 120.0 139.0 L 126.0 138.0 L 133.0 138.0 " stroke="black" fill="none" stroke-width="5.0" stroke-linecap="round" stroke-linejoin="round" />
<path d="M 107.0 166.0 L 107.0 166.0 L 107.0 167.0 L 110.0 167.0 L 117.0 166.0 L 128.0 165.0 L 135.0 164.0 " stroke="black" fill="none" stroke-width="5.0" stroke-linecap="round" stroke-linejoin="round" />
<path d="M 121.0 124.0 L 121.0 126.0 L 121.0 130.0 L 121.0 139.0 L 122.0 152.0 L 122.0 158.0 " stroke="black" fill="none" stroke-width="5.0" stroke-linecap="round" stroke-linejoin="round" />
<path d="M 145.0 126.0 L 145.0 126.0 L 145.0 127.0 L 146.0 127.0 L 150.0 127.0 L 161.0 126.0 L 175.0 124.0 L 184.0 124.0 L 186.0 124.0 " stroke="black" fill="none" stroke-width="5.0" stroke-linecap="round" stroke-linejoin="round" />
<path d="M 165.0 111.0 L 165.0 111.0 L 165.0 111.0 L 165.0 112.0 L 165.0 119.0 L 170.0 136.0 L 177.0 160.0 L 184.0 177.0 L 190.0 186.0 L 195.0 188.0 L 198.0 188.0 L 200.0 185.0 L 200.0 184.0 " stroke="black" fill="none" stroke-width="5.0" stroke-linecap="round" stroke-linejoin="round" />
<path d="M 193.0 150.0 L 193.0 150.0 L 193.0 150.0 L 193.0 150.0 L 191.0 155.0 L 185.0 166.0 L 177.0 179.0 L 175.0 182.0 " stroke="black" fill="none" stroke-width="5.0" stroke-linecap="round" stroke-linejoin="round" />
<path d="M 144.0 147.0 L 144.0 147.0 L 144.0 147.0 L 144.0 147.0 L 144.0 149.0 L 144.0 153.0 L 144.0 156.0 L 145.0 159.0 " stroke="black" fill="none" stroke-width="5.0" stroke-linecap="round" stroke-linejoin="round" />
<path d="M 145.0 147.0 L 145.0 147.0 L 145.0 147.0 L 145.0 147.0 L 146.0 146.0 L 149.0 146.0 L 153.0 145.0 L 157.0 145.0 L 160.0 148.0 L 161.0 152.0 L 163.0 157.0 L 163.0 159.0 L 163.0 160.0 " stroke="black" fill="none" stroke-width="5.0" stroke-linecap="round" stroke-linejoin="round" />
<path d="M 148.0 163.0 L 148.0 163.0 L 148.0 164.0 L 148.0 165.0 L 149.0 165.0 L 154.0 165.0 L 160.0 165.0 " stroke="black" fill="none" stroke-width="5.0" stroke-linecap="round" stroke-linejoin="round" />
<path d="M 144.0 180.0 L 144.0 180.0 L 144.0 180.0 L 146.0 180.0 L 152.0 180.0 L 162.0 178.0 " stroke="black" fill="none" stroke-width="5.0" stroke-linecap="round" stroke-linejoin="round" />
<path d="M 187.0 111.0 L 187.0 111.0 L 187.0 115.0 L 189.0 119.0 L 190.0 120.0 " stroke="black" fill="none" stroke-width="5.0" stroke-linecap="round" stroke-linejoin="round" />
</svg>