<svg xmlns="http://www.w3.org/2000/svg" width="300" height="300" viewBox="0 0 300 300">
<path d="M 167.0 107.0 L 167.0 107.0 L 167.0 107.0 L 167.0 107.0 L 167.0 109.0 L 164.0 111.0 L 158.0 115.0 L 147.0 122.0 L 137.0 128.0 " stroke="black" fill="none" stroke-width="5.0" stroke-linecap="round" stroke-linejoin="round" />
<path d="M 118.0 143.0 L 118.0 143.0 L 119.0 143.0 L 120.0 142.0 L 125.0 142.0 L 140.0 141.0 L 161.0 138.0 L 178.0 137.0 L 185.0 137.0 " stroke="black" fill="none" stroke-width="5.0" stroke-linecap="round" stroke-linejoin="round" />
<path d="M 143.0 152.0 L 143.0 152.0 L 143.0 154.0 L 143.0 155.0 L 143.0 159.0 L 144.0 164.0 " stroke="black" fill="none" stroke-width="5.0" stroke-linecap="round" stroke-linejoin="round" />
<path d="M 130.0 164.0 L 130.0 164.0 L 130.0 164.0 L 130.0 164.0 L 135.0 163.0 L 147.0 161.0 L 164.0 160.0 L 180.0 160.0 L 190.0 160.0 L 192.0 160.0 L 192.0 160.0 " stroke="black" fill="none" stroke-width="5.0" stroke-linecap="round" stroke-linejoin="round" />
<path d="M 171.0 150.0 L 171.0 150.0 L 170.0 150.0 L 170.0 154.0 L 170.0 164.0 L 170.0 173.0 L 170.0 176.0 " stroke="black" fill="none" stroke-width="5.0" stroke-linecap="round" stroke-linejoin="round" />
<path d="M 152.0 127.0 L 152.0 126.0 L 152.0 125.0 L 152.0 124.0 L 152.0 124.0 L 153.0 129.0 L 154.0 143.0 L 155.0 161.0 L 157.0 181.0 L 158.0 193.0 L 159.0 198.0 L 160.0 198.0 L 159.0 197.0 " stroke="black" fill="none" stroke-width="5.0" stroke-linecap="round" stroke-linejoin="round" />
<path d="M 141.0 183.0 L 141.0 183.0 L 141.0 183.0 L 141.0 183.0 L 141.0 183.0 L 145.0 183.0 L 154.0 183.0 L 166.0 183.0 L 175.0 183.0 L 177.0 183.0 " stroke="black" fill="none" stroke-width="5.0" stroke-linecap="round" stroke-linejoin="round" />
<path d="M 125.0 210.0 L 125.0 210.0 L 125.0 211.0 L 126.0 211.0 L 130.0 210.0 L 137.0 208.0 L 149.0 207.0 L 162.0 206.0 L 176.0 206.0 L 189.0 207.0 L 194.0 207.0 L 194.0 207.0 L 193.0 207.0 L 191.0 207.0 L 190.0 207.0 " stroke="black" fill="none" stroke-width="5.0" stroke-linecap="round" stroke-linejoin="round" />
</svg>