<svg xmlns="http://www.w3.org/2000/svg" width="300" height="300" viewBox="0 0 300 300">
<path d="M 115.0 138.0 L 115.0 138.0 L 116.0 138.0 L 118.0 138.0 L 122.0 139.0 L 128.0 139.0 L 133.0 138.0 " stroke="black" fill="none" stroke-width="5.0" stroke-linecap="round" stroke-linejoin="round" />
<path d="M 107.0 171.0 L 107.0 171.0 L 109.0 172.0 L 113.0 172.0 L 122.0 171.0 L 133.0 170.0 L 138.0 170.0 " stroke="black" fill="none" stroke-width="5.0" stroke-linecap="round" stroke-linejoin="round" />
<path d="M 125.0 129.0 L 125.0 129.0 L 125.0 129.0 L 125.0 135.0 L 125.0 149.0 L 125.0 165.0 " stroke="black" fill="none" stroke-width="5.0" stroke-linecap="round" stroke-linejoin="round" />
<path d="M 168.0 117.0 L 168.0 117.0 L 168.0 117.0 L 168.0 118.0 L 168.0 119.0 L 165.0 122.0 L 161.0 125.0 L 157.0 128.0 L 153.0 131.0 L 152.0 132.0 L 151.0 133.0 L 151.0 135.0 L 151.0 138.0 L 151.0 145.0 L 150.0 159.0 L 148.0 175.0 L 147.0 186.0 L 147.0 190.0 L 147.0 190.0 " stroke="black" fill="none" stroke-width="5.0" stroke-linecap="round" stroke-linejoin="round" />
<path d="M 154.0 147.0 L 154.0 147.0 L 154.0 147.0 L 154.0 147.0 L 158.0 147.0 L 168.0 146.0 L 179.0 145.0 L 187.0 145.0 L 187.0 145.0 " stroke="black" fill="none" stroke-width="5.0" stroke-linecap="round" stroke-linejoin="round" />
<path d="M 153.0 165.0 L 153.0 165.0 L 153.0 165.0 L 153.0 165.0 L 154.0 168.0 L 155.0 176.0 L 157.0 184.0 L 158.0 190.0 " stroke="black" fill="none" stroke-width="5.0" stroke-linecap="round" stroke-linejoin="round" />
<path d="M 154.0 162.0 L 155.0 162.0 L 156.0 162.0 L 159.0 162.0 L 165.0 162.0 L 174.0 161.0 L 182.0 160.0 L 187.0 160.0 L 190.0 164.0 L 191.0 170.0 L 191.0 177.0 L 191.0 182.0 L 191.0 186.0 L 191.0 186.0 " stroke="black" fill="none" stroke-width="5.0" stroke-linecap="round" stroke-linejoin="round" />
<path d="M 158.0 187.0 L 158.0 187.0 L 158.0 188.0 L 159.0 188.0 L 165.0 188.0 L 177.0 188.0 L 188.0 188.0 L 192.0 188.0 " stroke="black" fill="none" stroke-width="5.0" stroke-linecap="round" stroke-linejoin="round" />
</svg>