<svg xmlns="http://www.w3.org/2000/svg" width="300" height="300" viewBox="0 0 300 300">
<path d="M 148.0 108.0 L 148.0 108.0 L 148.0 108.0 L 148.0 108.0 L 148.0 108.0 L 148.0 108.0 L 148.0 109.0 L 148.0 112.0 L 149.0 118.0 L 150.0 125.0 " stroke="black" fill="none" stroke-width="5.0" stroke-linecap="round" stroke-linejoin="round" />
<path d="M 134.0 117.0 L 134.0 117.0 L 134.0 117.0 L 135.0 117.0 L 137.0 119.0 L 140.0 122.0 " stroke="black" fill="none" stroke-width="5.0" stroke-linecap="round" stroke-linejoin="round" />
<path d="M 170.0 115.0 L 171.0 115.0 L 171.0 115.0 L 172.0 116.0 L 172.0 118.0 L 169.0 123.0 L 165.0 128.0 " stroke="black" fill="none" stroke-width="5.0" stroke-linecap="round" stroke-linejoin="round" />
<path d="M 119.0 136.0 L 119.0 136.0 L 120.0 135.0 L 120.0 135.0 L 120.0 135.0 L 121.0 137.0 L 121.0 141.0 L 122.0 144.0 " stroke="black" fill="none" stroke-width="5.0" stroke-linecap="round" stroke-linejoin="round" />
<path d="M 121.0 135.0 L 121.0 135.0 L 121.0 135.0 L 121.0 135.0 L 123.0 135.0 L 130.0 134.0 L 142.0 132.0 L 155.0 130.0 L 166.0 129.0 L 173.0 129.0 L 178.0 129.0 L 181.0 131.0 L 183.0 134.0 L 184.0 136.0 L 185.0 139.0 L 185.0 142.0 L 185.0 147.0 L 184.0 148.0 " stroke="black" fill="none" stroke-width="5.0" stroke-linecap="round" stroke-linejoin="round" />
<path d="M 137.0 146.0 L 137.0 146.0 L 137.0 146.0 L 137.0 146.0 L 137.0 146.0 L 137.0 147.0 " stroke="black" fill="none" stroke-width="5.0" stroke-linecap="round" stroke-linejoin="round" />
<path d="M 137.0 142.0 L 138.0 142.0 L 138.0 142.0 L 140.0 141.0 L 143.0 141.0 L 148.0 141.0 L 153.0 140.0 L 159.0 140.0 L 162.0 140.0 L 164.0 143.0 L 165.0 147.0 L 165.0 151.0 L 165.0 154.0 L 165.0 154.0 " stroke="black" fill="none" stroke-width="5.0" stroke-linecap="round" stroke-linejoin="round" />
<path d="M 136.0 157.0 L 135.0 157.0 L 134.0 157.0 L 134.0 157.0 L 140.0 157.0 L 150.0 157.0 L 160.0 157.0 L 166.0 157.0 " stroke="black" fill="none" stroke-width="5.0" stroke-linecap="round" stroke-linejoin="round" />
<path d="M 137.0 178.0 L 137.0 178.0 L 136.0 178.0 L 136.0 178.0 L 140.0 177.0 L 147.0 177.0 L 155.0 176.0 L 162.0 176.0 L 164.0 176.0 " stroke="black" fill="none" stroke-width="5.0" stroke-linecap="round" stroke-linejoin="round" />
<path d="M 117.0 204.0 L 117.0 204.0 L 117.0 204.0 L 119.0 204.0 L 127.0 202.0 L 144.0 199.0 L 162.0 198.0 L 176.0 198.0 L 184.0 199.0 L 185.0 199.0 " stroke="black" fill="none" stroke-width="5.0" stroke-linecap="round" stroke-linejoin="round" />
<path d="M 152.0 162.0 L 152.0 162.0 L 152.0 163.0 L 151.0 163.0 L 151.0 163.0 L 151.0 166.0 L 151.0 173.0 L 152.0 187.0 L 153.0 196.0 " stroke="black" fill="none" stroke-width="5.0" stroke-linecap="round" stroke-linejoin="round" />
</svg>