<svg xmlns="http://www.w3.org/2000/svg" width="300" height="300" viewBox="0 0 300 300">
<path d="M 116.0 111.0 L 116.0 111.0 L 117.0 111.0 L 117.0 111.0 L 119.0 112.0 L 122.0 112.0 L 127.0 112.0 L 132.0 111.0 L 135.0 111.0 L 137.0 111.0 L 138.0 111.0 L 138.0 111.0 L 138.0 111.0 L 139.0 112.0 L 139.0 115.0 L 140.0 118.0 L 141.0 122.0 " stroke="black" fill="none" stroke-width="5.0" stroke-linecap="round" stroke-linejoin="round" />
<path d="M 115.0 129.0 L 115.0 129.0 L 116.0 129.0 L 118.0 129.0 L 123.0 129.0 L 131.0 127.0 L 137.0 126.0 L 138.0 126.0 " stroke="black" fill="none" stroke-width="5.0" stroke-linecap="round" stroke-linejoin="round" />
<path d="M 118.0 115.0 L 118.0 115.0 L 118.0 115.0 L 118.0 115.0 L 118.0 117.0 L 117.0 124.0 L 112.0 136.0 L 106.0 150.0 L 101.0 157.0 " stroke="black" fill="none" stroke-width="5.0" stroke-linecap="round" stroke-linejoin="round" />
<path d="M 117.0 141.0 L 117.0 141.0 L 117.0 141.0 L 117.0 141.0 L 117.0 141.0 L 117.0 142.0 L 118.0 146.0 L 119.0 150.0 L 119.0 151.0 " stroke="black" fill="none" stroke-width="5.0" stroke-linecap="round" stroke-linejoin="round" />
<path d="M 118.0 141.0 L 118.0 141.0 L 118.0 141.0 L 118.0 141.0 L 120.0 141.0 L 124.0 141.0 L 130.0 140.0 L 136.0 140.0 L 140.0 140.0 L 143.0 142.0 L 144.0 146.0 L 144.0 149.0 L 144.0 152.0 L 144.0 152.0 " stroke="black" fill="none" stroke-width="5.0" stroke-linecap="round" stroke-linejoin="round" />
<path d="M 118.0 158.0 L 118.0 158.0 L 118.0 159.0 L 119.0 159.0 L 123.0 159.0 L 131.0 159.0 L 139.0 158.0 " stroke="black" fill="none" stroke-width="5.0" stroke-linecap="round" stroke-linejoin="round" />
<path d="M 160.0 107.0 L 160.0 107.0 L 160.0 107.0 L 159.0 107.0 L 159.0 108.0 L 161.0 110.0 L 162.0 112.0 " stroke="black" fill="none" stroke-width="5.0" stroke-linecap="round" stroke-linejoin="round" />
<path d="M 151.0 118.0 L 151.0 118.0 L 151.0 119.0 L 153.0 119.0 L 157.0 119.0 L 164.0 119.0 L 171.0 118.0 L 175.0 118.0 " stroke="black" fill="none" stroke-width="5.0" stroke-linecap="round" stroke-linejoin="round" />
<path d="M 157.0 120.0 L 157.0 120.0 L 157.0 122.0 L 157.0 126.0 L 157.0 130.0 L 158.0 132.0 " stroke="black" fill="none" stroke-width="5.0" stroke-linecap="round" stroke-linejoin="round" />
<path d="M 170.0 119.0 L 170.0 119.0 L 170.0 120.0 L 170.0 122.0 L 170.0 125.0 L 169.0 128.0 " stroke="black" fill="none" stroke-width="5.0" stroke-linecap="round" stroke-linejoin="round" />
<path d="M 151.0 134.0 L 151.0 134.0 L 151.0 135.0 L 151.0 135.0 L 154.0 135.0 L 162.0 134.0 L 170.0 133.0 L 176.0 133.0 L 177.0 133.0 " stroke="black" fill="none" stroke-width="5.0" stroke-linecap="round" stroke-linejoin="round" />
<path d="M 149.0 149.0 L 149.0 149.0 L 149.0 149.0 L 149.0 149.0 L 151.0 148.0 L 157.0 147.0 L 168.0 144.0 L 177.0 143.0 L 182.0 143.0 L 182.0 143.0 " stroke="black" fill="none" stroke-width="5.0" stroke-linecap="round" stroke-linejoin="round" />
<path d="M 163.0 135.0 L 163.0 135.0 L 163.0 135.0 L 163.0 135.0 L 163.0 135.0 L 163.0 140.0 L 164.0 149.0 L 164.0 160.0 L 165.0 167.0 " stroke="black" fill="none" stroke-width="5.0" stroke-linecap="round" stroke-linejoin="round" />
<path d="M 134.0 180.0 L 134.0 180.0 L 134.0 180.0 L 134.0 179.0 L 134.0 178.0 L 134.0 178.0 L 136.0 178.0 L 143.0 178.0 L 152.0 178.0 L 158.0 179.0 " stroke="black" fill="none" stroke-width="5.0" stroke-linecap="round" stroke-linejoin="round" />
<path d="M 113.0 208.0 L 113.0 208.0 L 115.0 209.0 L 123.0 209.0 L 138.0 207.0 L 156.0 206.0 L 171.0 206.0 L 178.0 205.0 " stroke="black" fill="none" stroke-width="5.0" stroke-linecap="round" stroke-linejoin="round" />
<path d="M 148.0 165.0 L 148.0 165.0 L 148.0 165.0 L 148.0 168.0 L 150.0 183.0 L 151.0 200.0 L 151.0 210.0 " stroke="black" fill="none" stroke-width="5.0" stroke-linecap="round" stroke-linejoin="round" />
</svg>