<svg xmlns="http://www.w3.org/2000/svg" width="300" height="300" viewBox="0 0 300 300">
<path d="M 113.0 138.0 L 113.0 138.0 L 113.0 138.0 L 114.0 138.0 L 115.0 138.0 L 117.0 138.0 L 121.0 137.0 L 125.0 137.0 L 128.0 137.0 L 130.0 137.0 " stroke="black" fill="none" stroke-width="5.0" stroke-linecap="round" stroke-linejoin="round" />
<path d="M 107.0 165.0 L 108.0 165.0 L 109.0 165.0 L 113.0 165.0 L 119.0 165.0 L 128.0 163.0 L 136.0 162.0 L 141.0 161.0 " stroke="black" fill="none" stroke-width="5.0" stroke-linecap="round" stroke-linejoin="round" />
<path d="M 123.0 128.0 L 123.0 128.0 L 124.0 129.0 L 124.0 131.0 L 125.0 136.0 L 126.0 146.0 L 126.0 156.0 L 126.0 162.0 L 126.0 163.0 " stroke="black" fill="none" stroke-width="5.0" stroke-linecap="round" stroke-linejoin="round" />
<path d="M 160.0 107.0 L 161.0 107.0 L 161.0 107.0 L 161.0 107.0 L 161.0 108.0 L 163.0 110.0 L 166.0 112.0 L 167.0 113.0 " stroke="black" fill="none" stroke-width="5.0" stroke-linecap="round" stroke-linejoin="round" />
<path d="M 147.0 118.0 L 147.0 118.0 L 147.0 119.0 L 148.0 120.0 L 152.0 120.0 L 160.0 119.0 L 171.0 117.0 L 182.0 117.0 L 189.0 116.0 L 192.0 116.0 L 192.0 116.0 L 191.0 116.0 " stroke="black" fill="none" stroke-width="5.0" stroke-linecap="round" stroke-linejoin="round" />
<path d="M 153.0 132.0 L 153.0 132.0 L 153.0 131.0 L 153.0 131.0 L 153.0 131.0 L 153.0 131.0 L 153.0 131.0 L 153.0 131.0 L 153.0 133.0 L 153.0 136.0 L 153.0 137.0 L 153.0 138.0 " stroke="black" fill="none" stroke-width="5.0" stroke-linecap="round" stroke-linejoin="round" />
<path d="M 154.0 130.0 L 155.0 130.0 L 156.0 130.0 L 156.0 130.0 L 158.0 130.0 L 160.0 130.0 L 161.0 130.0 L 164.0 130.0 L 165.0 130.0 L 167.0 132.0 L 168.0 134.0 L 169.0 136.0 L 169.0 138.0 " stroke="black" fill="none" stroke-width="5.0" stroke-linecap="round" stroke-linejoin="round" />
<path d="M 155.0 141.0 L 156.0 141.0 L 156.0 141.0 L 157.0 141.0 L 159.0 141.0 L 163.0 141.0 L 165.0 141.0 " stroke="black" fill="none" stroke-width="5.0" stroke-linecap="round" stroke-linejoin="round" />
<path d="M 174.0 129.0 L 174.0 129.0 L 175.0 129.0 L 176.0 129.0 L 176.0 130.0 L 177.0 132.0 L 177.0 135.0 L 177.0 137.0 L 177.0 138.0 " stroke="black" fill="none" stroke-width="5.0" stroke-linecap="round" stroke-linejoin="round" />
<path d="M 176.0 130.0 L 176.0 130.0 L 176.0 130.0 L 177.0 130.0 L 178.0 130.0 L 181.0 129.0 L 184.0 129.0 L 186.0 129.0 L 189.0 131.0 L 191.0 133.0 L 192.0 135.0 L 192.0 137.0 L 193.0 138.0 " stroke="black" fill="none" stroke-width="5.0" stroke-linecap="round" stroke-linejoin="round" />
<path d="M 177.0 140.0 L 178.0 140.0 L 178.0 140.0 L 181.0 141.0 L 185.0 141.0 L 188.0 141.0 " stroke="black" fill="none" stroke-width="5.0" stroke-linecap="round" stroke-linejoin="round" />
<path d="M 162.0 150.0 L 162.0 150.0 L 162.0 151.0 L 162.0 152.0 L 162.0 156.0 L 162.0 162.0 L 162.0 168.0 L 163.0 172.0 L 163.0 174.0 L 163.0 174.0 " stroke="black" fill="none" stroke-width="5.0" stroke-linecap="round" stroke-linejoin="round" />
<path d="M 180.0 148.0 L 180.0 148.0 L 179.0 149.0 L 179.0 151.0 L 178.0 155.0 L 178.0 161.0 L 178.0 167.0 L 178.0 172.0 L 178.0 174.0 " stroke="black" fill="none" stroke-width="5.0" stroke-linecap="round" stroke-linejoin="round" />
<path d="M 154.0 157.0 L 155.0 157.0 L 156.0 157.0 L 159.0 157.0 L 165.0 156.0 L 175.0 156.0 L 183.0 155.0 L 187.0 155.0 L 188.0 156.0 L 188.0 156.0 L 186.0 157.0 " stroke="black" fill="none" stroke-width="5.0" stroke-linecap="round" stroke-linejoin="round" />
<path d="M 157.0 164.0 L 157.0 164.0 L 158.0 164.0 L 160.0 164.0 L 165.0 164.0 L 172.0 164.0 L 181.0 164.0 L 186.0 164.0 L 189.0 165.0 L 189.0 166.0 L 189.0 166.0 " stroke="black" fill="none" stroke-width="5.0" stroke-linecap="round" stroke-linejoin="round" />
<path d="M 147.0 178.0 L 147.0 178.0 L 147.0 178.0 L 150.0 178.0 L 157.0 178.0 L 171.0 177.0 L 184.0 176.0 L 192.0 176.0 L 195.0 176.0 L 196.0 177.0 " stroke="black" fill="none" stroke-width="5.0" stroke-linecap="round" stroke-linejoin="round" />
<path d="M 162.0 180.0 L 163.0 180.0 L 163.0 180.0 L 163.0 180.0 L 162.0 181.0 L 159.0 184.0 L 155.0 190.0 L 151.0 195.0 L 149.0 198.0 " stroke="black" fill="none" stroke-width="5.0" stroke-linecap="round" stroke-linejoin="round" />
<path d="M 159.0 190.0 L 159.0 190.0 L 159.0 190.0 L 159.0 190.0 L 159.0 192.0 L 159.0 196.0 L 160.0 200.0 L 164.0 202.0 L 172.0 202.0 L 174.0 202.0 " stroke="black" fill="none" stroke-width="5.0" stroke-linecap="round" stroke-linejoin="round" />
<path d="M 197.0 186.0 L 197.0 186.0 L 198.0 185.0 L 198.0 185.0 L 198.0 185.0 L 196.0 188.0 L 194.0 191.0 L 193.0 191.0 " stroke="black" fill="none" stroke-width="5.0" stroke-linecap="round" stroke-linejoin="round" />
<path d="M 174.0 182.0 L 175.0 182.0 L 176.0 182.0 L 179.0 184.0 L 184.0 189.0 L 191.0 197.0 L 196.0 203.0 L 199.0 207.0 L 199.0 208.0 L 199.0 208.0 L 199.0 207.0 L 199.0 207.0 " stroke="black" fill="none" stroke-width="5.0" stroke-linecap="round" stroke-linejoin="round" />
</svg>