<svg xmlns="http://www.w3.org/2000/svg" width="300" height="300" viewBox="0 0 300 300">
<path d="M 117.0 117.0 L 117.0 117.0 L 117.0 118.0 L 117.0 120.0 L 117.0 123.0 L 117.0 127.0 " stroke="black" fill="none" stroke-width="5.0" stroke-linecap="round" stroke-linejoin="round" />
<path d="M 119.0 114.0 L 119.0 114.0 L 120.0 114.0 L 120.0 114.0 L 123.0 115.0 L 132.0 115.0 L 145.0 113.0 L 159.0 112.0 L 169.0 112.0 L 176.0 112.0 L 182.0 112.0 L 184.0 113.0 L 185.0 117.0 L 185.0 123.0 L 185.0 128.0 L 185.0 130.0 " stroke="black" fill="none" stroke-width="5.0" stroke-linecap="round" stroke-linejoin="round" />
<path d="M 148.0 95.0 L 148.0 95.0 L 148.0 95.0 L 148.0 97.0 L 149.0 104.0 L 150.0 107.0 " stroke="black" fill="none" stroke-width="5.0" stroke-linecap="round" stroke-linejoin="round" />
<path d="M 140.0 129.0 L 140.0 129.0 L 140.0 129.0 L 140.0 131.0 L 140.0 140.0 L 140.0 153.0 L 140.0 161.0 L 141.0 164.0 " stroke="black" fill="none" stroke-width="5.0" stroke-linecap="round" stroke-linejoin="round" />
<path d="M 157.0 128.0 L 157.0 128.0 L 158.0 128.0 L 158.0 132.0 L 158.0 140.0 L 159.0 152.0 L 159.0 160.0 L 159.0 161.0 " stroke="black" fill="none" stroke-width="5.0" stroke-linecap="round" stroke-linejoin="round" />
<path d="M 131.0 141.0 L 131.0 141.0 L 131.0 141.0 L 134.0 141.0 L 141.0 140.0 L 152.0 139.0 L 163.0 139.0 L 169.0 139.0 L 170.0 139.0 L 169.0 139.0 " stroke="black" fill="none" stroke-width="5.0" stroke-linecap="round" stroke-linejoin="round" />
<path d="M 135.0 152.0 L 135.0 152.0 L 136.0 152.0 L 138.0 152.0 L 143.0 152.0 L 152.0 152.0 L 159.0 151.0 L 161.0 151.0 " stroke="black" fill="none" stroke-width="5.0" stroke-linecap="round" stroke-linejoin="round" />
<path d="M 113.0 168.0 L 114.0 168.0 L 114.0 169.0 L 118.0 169.0 L 128.0 169.0 L 146.0 168.0 L 164.0 166.0 L 174.0 165.0 L 178.0 165.0 L 178.0 165.0 " stroke="black" fill="none" stroke-width="5.0" stroke-linecap="round" stroke-linejoin="round" />
<path d="M 146.0 170.0 L 146.0 170.0 L 146.0 170.0 L 146.0 170.0 L 146.0 170.0 L 144.0 173.0 L 139.0 179.0 L 131.0 187.0 L 124.0 193.0 L 122.0 193.0 " stroke="black" fill="none" stroke-width="5.0" stroke-linecap="round" stroke-linejoin="round" />
<path d="M 159.0 170.0 L 160.0 170.0 L 161.0 171.0 L 163.0 172.0 L 167.0 176.0 L 174.0 181.0 L 179.0 185.0 L 180.0 188.0 " stroke="black" fill="none" stroke-width="5.0" stroke-linecap="round" stroke-linejoin="round" />
<path d="M 144.0 193.0 L 144.0 193.0 L 145.0 193.0 L 147.0 193.0 L 153.0 193.0 L 160.0 193.0 L 166.0 193.0 L 167.0 193.0 " stroke="black" fill="none" stroke-width="5.0" stroke-linecap="round" stroke-linejoin="round" />
<path d="M 127.0 213.0 L 130.0 213.0 L 135.0 214.0 L 145.0 215.0 L 158.0 215.0 L 170.0 214.0 L 177.0 214.0 " stroke="black" fill="none" stroke-width="5.0" stroke-linecap="round" stroke-linejoin="round" />
<path d="M 153.0 185.0 L 153.0 187.0 L 154.0 192.0 L 155.0 202.0 L 157.0 211.0 " stroke="black" fill="none" stroke-width="5.0" stroke-linecap="round" stroke-linejoin="round" />
</svg>