<svg xmlns="http://www.w3.org/2000/svg" width="300" height="300" viewBox="0 0 300 300">
<path d="M 119.0 141.0 L 119.0 141.0 L 119.0 141.0 L 119.0 141.0 L 119.0 141.0 L 121.0 142.0 L 127.0 142.0 L 133.0 143.0 L 134.0 143.0 " stroke="black" fill="none" stroke-width="5.0" stroke-linecap="round" stroke-linejoin="round" />
<path d="M 108.0 177.0 L 108.0 177.0 L 108.0 177.0 L 109.0 176.0 L 112.0 176.0 L 121.0 174.0 L 133.0 172.0 L 141.0 171.0 L 142.0 171.0 " stroke="black" fill="none" stroke-width="5.0" stroke-linecap="round" stroke-linejoin="round" />
<path d="M 125.0 135.0 L 125.0 134.0 L 125.0 133.0 L 125.0 133.0 L 125.0 136.0 L 126.0 147.0 L 126.0 161.0 " stroke="black" fill="none" stroke-width="5.0" stroke-linecap="round" stroke-linejoin="round" />
<path d="M 155.0 117.0 L 155.0 117.0 L 155.0 117.0 L 156.0 117.0 L 161.0 117.0 L 168.0 116.0 L 174.0 116.0 L 178.0 116.0 " stroke="black" fill="none" stroke-width="5.0" stroke-linecap="round" stroke-linejoin="round" />
<path d="M 168.0 108.0 L 168.0 108.0 L 168.0 108.0 L 168.0 109.0 L 168.0 112.0 L 168.0 119.0 L 168.0 123.0 " stroke="black" fill="none" stroke-width="5.0" stroke-linecap="round" stroke-linejoin="round" />
<path d="M 148.0 140.0 L 148.0 140.0 L 149.0 139.0 L 152.0 139.0 L 159.0 138.0 L 171.0 136.0 L 183.0 135.0 L 191.0 135.0 L 193.0 135.0 " stroke="black" fill="none" stroke-width="5.0" stroke-linecap="round" stroke-linejoin="round" />
<path d="M 158.0 128.0 L 158.0 128.0 L 158.0 130.0 L 158.0 134.0 L 158.0 141.0 L 159.0 147.0 " stroke="black" fill="none" stroke-width="5.0" stroke-linecap="round" stroke-linejoin="round" />
<path d="M 180.0 131.0 L 180.0 132.0 L 180.0 135.0 L 180.0 139.0 L 180.0 144.0 L 180.0 145.0 " stroke="black" fill="none" stroke-width="5.0" stroke-linecap="round" stroke-linejoin="round" />
<path d="M 153.0 156.0 L 153.0 156.0 L 153.0 156.0 L 153.0 156.0 L 155.0 155.0 L 161.0 155.0 L 170.0 154.0 L 179.0 153.0 L 184.0 152.0 L 187.0 152.0 L 188.0 152.0 L 189.0 154.0 L 190.0 156.0 L 191.0 160.0 L 193.0 166.0 L 194.0 174.0 L 196.0 182.0 L 197.0 187.0 L 197.0 188.0 " stroke="black" fill="none" stroke-width="5.0" stroke-linecap="round" stroke-linejoin="round" />
<path d="M 154.0 157.0 L 154.0 157.0 L 154.0 157.0 L 154.0 159.0 L 154.0 164.0 L 154.0 173.0 L 155.0 182.0 L 155.0 187.0 " stroke="black" fill="none" stroke-width="5.0" stroke-linecap="round" stroke-linejoin="round" />
<path d="M 157.0 166.0 L 157.0 166.0 L 158.0 166.0 L 159.0 166.0 L 164.0 166.0 L 174.0 165.0 L 183.0 165.0 L 188.0 165.0 L 189.0 165.0 " stroke="black" fill="none" stroke-width="5.0" stroke-linecap="round" stroke-linejoin="round" />
<path d="M 161.0 179.0 L 161.0 179.0 L 163.0 179.0 L 166.0 179.0 L 172.0 178.0 L 180.0 177.0 L 186.0 176.0 L 189.0 176.0 L 189.0 176.0 " stroke="black" fill="none" stroke-width="5.0" stroke-linecap="round" stroke-linejoin="round" />
<path d="M 159.0 191.0 L 160.0 191.0 L 163.0 191.0 L 167.0 191.0 L 174.0 191.0 L 182.0 191.0 L 187.0 191.0 L 188.0 191.0 " stroke="black" fill="none" stroke-width="5.0" stroke-linecap="round" stroke-linejoin="round" />
<path d="M 170.0 193.0 L 170.0 193.0 L 170.0 193.0 L 169.0 194.0 L 168.0 196.0 L 167.0 201.0 L 166.0 203.0 " stroke="black" fill="none" stroke-width="5.0" stroke-linecap="round" stroke-linejoin="round" />
<path d="M 187.0 195.0 L 189.0 197.0 L 192.0 200.0 L 195.0 204.0 L 196.0 205.0 " stroke="black" fill="none" stroke-width="5.0" stroke-linecap="round" stroke-linejoin="round" />
</svg>