<svg xmlns="http://www.w3.org/2000/svg" width="300" height="300" viewBox="0 0 300 300">
<path d="M 119.0 115.0 L 119.0 115.0 L 119.0 115.0 L 119.0 115.0 L 119.0 115.0 L 123.0 115.0 L 130.0 115.0 L 138.0 115.0 " stroke="black" fill="none" stroke-width="5.0" stroke-linecap="round" stroke-linejoin="round" />
<path d="M 108.0 133.0 L 108.0 133.0 L 108.0 133.0 L 108.0 133.0 L 111.0 133.0 L 121.0 133.0 L 135.0 133.0 L 145.0 132.0 L 150.0 132.0 " stroke="black" fill="none" stroke-width="5.0" stroke-linecap="round" stroke-linejoin="round" />
<path d="M 131.0 104.0 L 131.0 104.0 L 131.0 104.0 L 131.0 104.0 L 131.0 106.0 L 131.0 114.0 L 131.0 124.0 L 131.0 129.0 " stroke="black" fill="none" stroke-width="5.0" stroke-linecap="round" stroke-linejoin="round" />
<path d="M 119.0 135.0 L 119.0 137.0 L 120.0 139.0 L 121.0 143.0 L 123.0 146.0 L 124.0 147.0 " stroke="black" fill="none" stroke-width="5.0" stroke-linecap="round" stroke-linejoin="round" />
<path d="M 142.0 135.0 L 142.0 135.0 L 141.0 135.0 L 141.0 137.0 L 140.0 140.0 L 138.0 146.0 L 138.0 148.0 " stroke="black" fill="none" stroke-width="5.0" stroke-linecap="round" stroke-linejoin="round" />
<path d="M 113.0 153.0 L 113.0 153.0 L 113.0 153.0 L 113.0 153.0 L 116.0 153.0 L 126.0 153.0 L 139.0 153.0 L 147.0 153.0 L 150.0 153.0 L 150.0 153.0 " stroke="black" fill="none" stroke-width="5.0" stroke-linecap="round" stroke-linejoin="round" />
<path d="M 109.0 171.0 L 109.0 171.0 L 109.0 171.0 L 110.0 171.0 L 113.0 171.0 L 122.0 171.0 L 135.0 169.0 L 145.0 168.0 L 150.0 168.0 L 151.0 168.0 " stroke="black" fill="none" stroke-width="5.0" stroke-linecap="round" stroke-linejoin="round" />
<path d="M 128.0 156.0 L 128.0 156.0 L 128.0 156.0 L 128.0 157.0 L 128.0 165.0 L 129.0 179.0 L 129.0 192.0 L 130.0 198.0 " stroke="black" fill="none" stroke-width="5.0" stroke-linecap="round" stroke-linejoin="round" />
<path d="M 159.0 114.0 L 161.0 114.0 L 162.0 114.0 L 162.0 114.0 L 163.0 114.0 L 167.0 114.0 L 171.0 114.0 L 176.0 114.0 L 178.0 114.0 L 180.0 114.0 L 180.0 114.0 L 180.0 116.0 L 182.0 121.0 L 183.0 128.0 L 185.0 134.0 L 185.0 138.0 L 185.0 138.0 L 185.0 138.0 L 182.0 138.0 L 174.0 137.0 L 172.0 136.0 " stroke="black" fill="none" stroke-width="5.0" stroke-linecap="round" stroke-linejoin="round" />
<path d="M 161.0 116.0 L 161.0 117.0 L 161.0 118.0 L 161.0 120.0 L 161.0 130.0 L 161.0 150.0 L 161.0 170.0 L 160.0 184.0 L 160.0 190.0 L 160.0 191.0 L 160.0 191.0 L 160.0 190.0 " stroke="black" fill="none" stroke-width="5.0" stroke-linecap="round" stroke-linejoin="round" />
<path d="M 165.0 153.0 L 165.0 153.0 L 164.0 153.0 L 164.0 153.0 L 166.0 153.0 L 172.0 153.0 L 179.0 153.0 L 185.0 152.0 L 188.0 152.0 L 189.0 155.0 L 189.0 160.0 L 187.0 168.0 L 184.0 177.0 L 179.0 187.0 L 174.0 194.0 L 172.0 195.0 " stroke="black" fill="none" stroke-width="5.0" stroke-linecap="round" stroke-linejoin="round" />
<path d="M 165.0 160.0 L 165.0 160.0 L 165.0 160.0 L 166.0 161.0 L 171.0 167.0 L 183.0 182.0 L 194.0 198.0 L 200.0 208.0 L 202.0 212.0 L 202.0 214.0 " stroke="black" fill="none" stroke-width="5.0" stroke-linecap="round" stroke-linejoin="round" />
</svg>