<svg xmlns="http://www.w3.org/2000/svg" width="300" height="300" viewBox="0 0 300 300">
<path d="M 120.0 104.0 L 120.0 104.0 L 120.0 104.0 L 120.0 104.0 L 122.0 104.0 L 132.0 103.0 L 149.0 100.0 L 164.0 98.0 L 171.0 97.0 " stroke="black" fill="none" stroke-width="5.0" stroke-linecap="round" stroke-linejoin="round" />
<path d="M 133.0 119.0 L 133.0 119.0 L 132.0 119.0 L 134.0 119.0 L 142.0 117.0 L 154.0 116.0 L 162.0 116.0 " stroke="black" fill="none" stroke-width="5.0" stroke-linecap="round" stroke-linejoin="round" />
<path d="M 144.0 91.0 L 144.0 91.0 L 144.0 92.0 L 145.0 102.0 L 147.0 115.0 " stroke="black" fill="none" stroke-width="5.0" stroke-linecap="round" stroke-linejoin="round" />
<path d="M 111.0 140.0 L 111.0 140.0 L 111.0 140.0 L 111.0 140.0 L 111.0 141.0 L 112.0 145.0 L 112.0 146.0 " stroke="black" fill="none" stroke-width="5.0" stroke-linecap="round" stroke-linejoin="round" />
<path d="M 111.0 139.0 L 112.0 139.0 L 112.0 139.0 L 113.0 137.0 L 116.0 136.0 L 125.0 134.0 L 140.0 132.0 L 156.0 131.0 L 170.0 130.0 L 179.0 129.0 L 184.0 128.0 L 186.0 129.0 L 187.0 131.0 L 188.0 134.0 L 188.0 137.0 L 188.0 141.0 L 187.0 143.0 " stroke="black" fill="none" stroke-width="5.0" stroke-linecap="round" stroke-linejoin="round" />
<path d="M 134.0 149.0 L 134.0 149.0 L 135.0 148.0 L 137.0 148.0 L 144.0 146.0 L 155.0 145.0 L 167.0 144.0 L 172.0 143.0 " stroke="black" fill="none" stroke-width="5.0" stroke-linecap="round" stroke-linejoin="round" />
<path d="M 133.0 160.0 L 133.0 160.0 L 133.0 160.0 L 132.0 160.0 L 132.0 162.0 L 133.0 165.0 L 135.0 168.0 " stroke="black" fill="none" stroke-width="5.0" stroke-linecap="round" stroke-linejoin="round" />
<path d="M 132.0 161.0 L 133.0 161.0 L 133.0 161.0 L 137.0 161.0 L 147.0 159.0 L 158.0 157.0 L 166.0 156.0 L 169.0 158.0 L 169.0 162.0 L 169.0 166.0 L 167.0 170.0 L 166.0 171.0 " stroke="black" fill="none" stroke-width="5.0" stroke-linecap="round" stroke-linejoin="round" />
<path d="M 131.0 179.0 L 131.0 179.0 L 131.0 179.0 L 133.0 179.0 L 141.0 177.0 L 153.0 175.0 L 164.0 174.0 L 167.0 174.0 " stroke="black" fill="none" stroke-width="5.0" stroke-linecap="round" stroke-linejoin="round" />
<path d="M 137.0 178.0 L 137.0 178.0 L 137.0 178.0 L 137.0 179.0 L 137.0 184.0 L 141.0 190.0 " stroke="black" fill="none" stroke-width="5.0" stroke-linecap="round" stroke-linejoin="round" />
<path d="M 165.0 172.0 L 165.0 172.0 L 165.0 174.0 L 165.0 177.0 L 164.0 182.0 L 163.0 188.0 " stroke="black" fill="none" stroke-width="5.0" stroke-linecap="round" stroke-linejoin="round" />
<path d="M 117.0 203.0 L 117.0 204.0 L 120.0 204.0 L 133.0 204.0 L 155.0 200.0 L 175.0 199.0 L 187.0 199.0 L 191.0 199.0 L 192.0 199.0 " stroke="black" fill="none" stroke-width="5.0" stroke-linecap="round" stroke-linejoin="round" />
</svg>