<svg xmlns="http://www.w3.org/2000/svg" width="300" height="300" viewBox="0 0 300 300">
<path d="M 140.0 99.0 L 140.0 99.0 L 140.0 99.0 L 140.0 99.0 L 141.0 101.0 L 145.0 106.0 L 150.0 111.0 " stroke="black" fill="none" stroke-width="5.0" stroke-linecap="round" stroke-linejoin="round" />
<path d="M 115.0 121.0 L 115.0 121.0 L 115.0 121.0 L 117.0 121.0 L 125.0 121.0 L 140.0 120.0 L 155.0 119.0 L 165.0 119.0 L 171.0 120.0 L 173.0 121.0 L 173.0 121.0 L 173.0 121.0 " stroke="black" fill="none" stroke-width="5.0" stroke-linecap="round" stroke-linejoin="round" />
<path d="M 115.0 125.0 L 115.0 125.0 L 115.0 125.0 L 115.0 125.0 L 115.0 130.0 L 114.0 144.0 L 112.0 164.0 L 108.0 183.0 L 106.0 191.0 L 105.0 193.0 " stroke="black" fill="none" stroke-width="5.0" stroke-linecap="round" stroke-linejoin="round" />
<path d="M 121.0 137.0 L 122.0 137.0 L 122.0 137.0 L 122.0 137.0 L 124.0 136.0 L 126.0 136.0 L 132.0 136.0 L 140.0 136.0 L 148.0 136.0 L 154.0 135.0 L 158.0 135.0 L 160.0 135.0 L 160.0 136.0 L 161.0 139.0 L 162.0 144.0 L 162.0 149.0 L 162.0 153.0 L 162.0 153.0 " stroke="black" fill="none" stroke-width="5.0" stroke-linecap="round" stroke-linejoin="round" />
<path d="M 117.0 148.0 L 117.0 148.0 L 118.0 148.0 L 122.0 148.0 L 132.0 148.0 L 145.0 148.0 L 154.0 148.0 L 160.0 150.0 " stroke="black" fill="none" stroke-width="5.0" stroke-linecap="round" stroke-linejoin="round" />
<path d="M 132.0 121.0 L 132.0 121.0 L 131.0 121.0 L 131.0 124.0 L 132.0 131.0 L 133.0 141.0 L 133.0 144.0 " stroke="black" fill="none" stroke-width="5.0" stroke-linecap="round" stroke-linejoin="round" />
<path d="M 146.0 125.0 L 146.0 125.0 L 146.0 126.0 L 146.0 128.0 L 146.0 135.0 L 146.0 143.0 " stroke="black" fill="none" stroke-width="5.0" stroke-linecap="round" stroke-linejoin="round" />
<path d="M 128.0 148.0 L 128.0 148.0 L 128.0 148.0 L 128.0 148.0 L 128.0 150.0 L 127.0 154.0 L 125.0 160.0 L 125.0 165.0 L 126.0 168.0 L 131.0 169.0 L 137.0 169.0 " stroke="black" fill="none" stroke-width="5.0" stroke-linecap="round" stroke-linejoin="round" />
<path d="M 129.0 158.0 L 129.0 158.0 L 130.0 159.0 L 131.0 159.0 L 135.0 159.0 L 141.0 159.0 " stroke="black" fill="none" stroke-width="5.0" stroke-linecap="round" stroke-linejoin="round" />
<path d="M 150.0 148.0 L 150.0 148.0 L 150.0 148.0 L 149.0 149.0 L 149.0 152.0 L 149.0 157.0 L 151.0 163.0 L 155.0 167.0 L 159.0 169.0 L 160.0 169.0 " stroke="black" fill="none" stroke-width="5.0" stroke-linecap="round" stroke-linejoin="round" />
<path d="M 152.0 158.0 L 152.0 159.0 L 152.0 159.0 L 154.0 160.0 L 158.0 160.0 L 162.0 160.0 " stroke="black" fill="none" stroke-width="5.0" stroke-linecap="round" stroke-linejoin="round" />
<path d="M 133.0 180.0 L 134.0 180.0 L 136.0 181.0 L 142.0 181.0 L 150.0 181.0 L 158.0 181.0 L 159.0 181.0 " stroke="black" fill="none" stroke-width="5.0" stroke-linecap="round" stroke-linejoin="round" />
<path d="M 112.0 198.0 L 112.0 198.0 L 114.0 198.0 L 121.0 199.0 L 136.0 198.0 L 152.0 198.0 L 165.0 198.0 L 175.0 198.0 L 178.0 199.0 " stroke="black" fill="none" stroke-width="5.0" stroke-linecap="round" stroke-linejoin="round" />
<path d="M 145.0 168.0 L 145.0 168.0 L 145.0 168.0 L 145.0 168.0 L 145.0 170.0 L 147.0 179.0 L 148.0 191.0 " stroke="black" fill="none" stroke-width="5.0" stroke-linecap="round" stroke-linejoin="round" />
</svg>