<svg xmlns="http://www.w3.org/2000/svg" width="300" height="300" viewBox="0 0 300 300">
<path d="M 122.0 108.0 L 124.0 108.0 L 124.0 108.0 L 125.0 109.0 L 127.0 109.0 L 129.0 109.0 L 132.0 110.0 L 134.0 111.0 " stroke="black" fill="none" stroke-width="5.0" stroke-linecap="round" stroke-linejoin="round" />
<path d="M 119.0 125.0 L 120.0 125.0 L 122.0 126.0 L 123.0 126.0 L 126.0 126.0 L 130.0 126.0 L 133.0 126.0 L 134.0 126.0 " stroke="black" fill="none" stroke-width="5.0" stroke-linecap="round" stroke-linejoin="round" />
<path d="M 112.0 145.0 L 112.0 145.0 L 113.0 145.0 L 114.0 144.0 L 117.0 144.0 L 122.0 143.0 L 130.0 142.0 L 137.0 141.0 " stroke="black" fill="none" stroke-width="5.0" stroke-linecap="round" stroke-linejoin="round" />
<path d="M 158.0 104.0 L 158.0 104.0 L 159.0 103.0 L 160.0 103.0 L 160.0 103.0 L 157.0 106.0 L 155.0 108.0 L 150.0 113.0 L 143.0 120.0 L 141.0 121.0 " stroke="black" fill="none" stroke-width="5.0" stroke-linecap="round" stroke-linejoin="round" />
<path d="M 160.0 105.0 L 162.0 105.0 L 163.0 105.0 L 165.0 105.0 L 169.0 107.0 L 174.0 110.0 L 179.0 113.0 L 181.0 116.0 L 181.0 116.0 " stroke="black" fill="none" stroke-width="5.0" stroke-linecap="round" stroke-linejoin="round" />
<path d="M 153.0 120.0 L 153.0 120.0 L 153.0 120.0 L 153.0 120.0 L 155.0 120.0 L 158.0 120.0 L 163.0 120.0 L 167.0 120.0 L 169.0 121.0 L 169.0 121.0 " stroke="black" fill="none" stroke-width="5.0" stroke-linecap="round" stroke-linejoin="round" />
<path d="M 148.0 131.0 L 148.0 131.0 L 147.0 131.0 L 147.0 132.0 L 148.0 132.0 L 154.0 132.0 L 164.0 132.0 L 172.0 132.0 L 176.0 132.0 L 177.0 134.0 L 176.0 135.0 " stroke="black" fill="none" stroke-width="5.0" stroke-linecap="round" stroke-linejoin="round" />
<path d="M 159.0 124.0 L 159.0 124.0 L 160.0 125.0 L 160.0 126.0 L 162.0 128.0 L 164.0 135.0 L 166.0 144.0 L 167.0 152.0 L 167.0 157.0 L 167.0 158.0 L 164.0 157.0 L 160.0 155.0 L 154.0 152.0 " stroke="black" fill="none" stroke-width="5.0" stroke-linecap="round" stroke-linejoin="round" />
<path d="M 153.0 139.0 L 153.0 139.0 L 152.0 139.0 L 152.0 139.0 L 151.0 140.0 L 149.0 142.0 L 147.0 146.0 L 145.0 149.0 " stroke="black" fill="none" stroke-width="5.0" stroke-linecap="round" stroke-linejoin="round" />
<path d="M 175.0 142.0 L 176.0 142.0 L 178.0 144.0 L 180.0 147.0 L 182.0 151.0 L 185.0 155.0 L 186.0 157.0 " stroke="black" fill="none" stroke-width="5.0" stroke-linecap="round" stroke-linejoin="round" />
<path d="M 139.0 170.0 L 139.0 170.0 L 140.0 171.0 L 141.0 171.0 L 143.0 172.0 L 149.0 172.0 L 156.0 172.0 L 159.0 172.0 " stroke="black" fill="none" stroke-width="5.0" stroke-linecap="round" stroke-linejoin="round" />
<path d="M 119.0 192.0 L 119.0 192.0 L 119.0 192.0 L 120.0 192.0 L 125.0 192.0 L 137.0 193.0 L 154.0 195.0 L 168.0 197.0 L 178.0 197.0 " stroke="black" fill="none" stroke-width="5.0" stroke-linecap="round" stroke-linejoin="round" />
<path d="M 149.0 160.0 L 149.0 161.0 L 149.0 162.0 L 150.0 165.0 L 151.0 172.0 L 152.0 181.0 L 152.0 189.0 " stroke="black" fill="none" stroke-width="5.0" stroke-linecap="round" stroke-linejoin="round" />
</svg>