<svg xmlns="http://www.w3.org/2000/svg" width="300" height="300" viewBox="0 0 300 300">
<path d="M 114.0 118.0 L 114.0 119.0 L 115.0 120.0 L 115.0 120.0 L 115.0 120.0 L 115.0 120.0 L 115.0 123.0 L 115.0 129.0 L 115.0 136.0 L 119.0 140.0 L 127.0 140.0 L 129.0 139.0 " stroke="black" fill="none" stroke-width="5.0" stroke-linecap="round" stroke-linejoin="round" />
<path d="M 134.0 119.0 L 134.0 119.0 L 134.0 118.0 L 135.0 118.0 L 135.0 117.0 L 135.0 117.0 L 135.0 123.0 L 135.0 136.0 L 135.0 154.0 L 135.0 174.0 L 135.0 187.0 L 135.0 193.0 " stroke="black" fill="none" stroke-width="5.0" stroke-linecap="round" stroke-linejoin="round" />
<path d="M 109.0 161.0 L 109.0 161.0 L 109.0 161.0 L 109.0 161.0 L 111.0 161.0 L 117.0 161.0 L 129.0 161.0 L 135.0 161.0 " stroke="black" fill="none" stroke-width="5.0" stroke-linecap="round" stroke-linejoin="round" />
<path d="M 110.0 162.0 L 110.0 162.0 L 110.0 162.0 L 110.0 162.0 L 109.0 162.0 L 109.0 165.0 L 109.0 175.0 L 108.0 191.0 L 108.0 194.0 " stroke="black" fill="none" stroke-width="5.0" stroke-linecap="round" stroke-linejoin="round" />
<path d="M 165.0 127.0 L 165.0 127.0 L 165.0 127.0 L 165.0 127.0 L 165.0 128.0 L 165.0 131.0 L 165.0 136.0 L 165.0 146.0 L 162.0 159.0 L 158.0 172.0 L 156.0 180.0 L 156.0 182.0 L 156.0 182.0 L 158.0 183.0 L 161.0 185.0 L 167.0 189.0 L 177.0 193.0 L 187.0 195.0 L 192.0 196.0 " stroke="black" fill="none" stroke-width="5.0" stroke-linecap="round" stroke-linejoin="round" />
<path d="M 180.0 142.0 L 180.0 142.0 L 180.0 141.0 L 180.0 141.0 L 180.0 143.0 L 179.0 150.0 L 176.0 165.0 L 170.0 184.0 L 164.0 196.0 " stroke="black" fill="none" stroke-width="5.0" stroke-linecap="round" stroke-linejoin="round" />
<path d="M 144.0 160.0 L 145.0 160.0 L 146.0 160.0 L 149.0 160.0 L 159.0 160.0 L 177.0 160.0 L 193.0 161.0 L 196.0 162.0 " stroke="black" fill="none" stroke-width="5.0" stroke-linecap="round" stroke-linejoin="round" />
</svg>