<svg xmlns="http://www.w3.org/2000/svg" width="300" height="300" viewBox="0 0 300 300">
<path d="M 141.0 119.0 L 141.0 119.0 L 141.0 119.0 L 141.0 119.0 L 141.0 124.0 L 139.0 135.0 L 134.0 152.0 L 127.0 168.0 L 123.0 176.0 L 125.0 178.0 L 133.0 179.0 L 146.0 181.0 L 159.0 183.0 L 169.0 186.0 L 172.0 187.0 " stroke="black" fill="none" stroke-width="5.0" stroke-linecap="round" stroke-linejoin="round" />
<path d="M 172.0 128.0 L 172.0 128.0 L 172.0 128.0 L 172.0 130.0 L 170.0 138.0 L 165.0 156.0 L 155.0 182.0 L 146.0 200.0 L 144.0 202.0 " stroke="black" fill="none" stroke-width="5.0" stroke-linecap="round" stroke-linejoin="round" />
<path d="M 120.0 150.0 L 120.0 150.0 L 120.0 150.0 L 124.0 150.0 L 139.0 150.0 L 165.0 150.0 L 187.0 150.0 L 190.0 150.0 " stroke="black" fill="none" stroke-width="5.0" stroke-linecap="round" stroke-linejoin="round" />
</svg>