<svg xmlns="http://www.w3.org/2000/svg" width="300" height="300" viewBox="0 0 300 300">
<path d="M 125.00000000000001 124.28571428571432 L 125.00000000000001 125.00000000000001 L 125.00000000000001 127.14285714285718 L 124.28571428571432 130.71428571428572 L 123.5714285714286 140.00000000000006 L 122.85714285714288 152.14285714285717 L 121.42857142857146 162.8571428571429 L 119.28571428571432 170.71428571428572 L 117.85714285714288 175.71428571428578 L 117.14285714285718 176.42857142857144 L 117.14285714285718 176.42857142857144 L 117.85714285714288 176.42857142857144 L 119.28571428571432 176.42857142857144 L 121.42857142857146 177.14285714285717 L 125.71428571428574 178.5714285714286 L 132.14285714285717 180.00000000000006 L 140.00000000000006 180.71428571428578 L 145.00000000000006 181.42857142857144 L 145.71428571428572 182.14285714285717 " stroke="black" fill="none" stroke-width="5.0" stroke-linecap="round" stroke-linejoin="round" />
<path d="M 135.00000000000006 140.00000000000006 L 135.00000000000006 140.00000000000006 L 134.28571428571433 141.42857142857144 L 133.5714285714286 142.8571428571429 L 133.5714285714286 147.8571428571429 L 133.5714285714286 156.42857142857144 L 133.5714285714286 170.71428571428572 L 131.42857142857144 183.5714285714286 L 130.71428571428572 190.71428571428578 L 130.71428571428572 190.71428571428578 " stroke="black" fill="none" stroke-width="5.0" stroke-linecap="round" stroke-linejoin="round" />
<path d="M 114.28571428571432 160.00000000000006 L 114.28571428571432 160.00000000000006 L 114.28571428571432 160.71428571428572 L 115.00000000000001 161.42857142857144 L 120.71428571428574 161.42857142857144 L 132.14285714285717 159.28571428571433 L 142.14285714285717 157.8571428571429 " stroke="black" fill="none" stroke-width="5.0" stroke-linecap="round" stroke-linejoin="round" />
<path d="M 161.42857142857144 123.5714285714286 L 161.42857142857144 123.5714285714286 L 161.42857142857144 124.28571428571432 L 160.71428571428572 125.00000000000001 L 159.28571428571433 127.85714285714288 L 156.42857142857144 132.14285714285717 L 154.28571428571433 137.8571428571429 L 152.8571428571429 142.8571428571429 L 152.14285714285717 145.00000000000006 L 153.5714285714286 145.00000000000006 L 158.5714285714286 145.00000000000006 L 165.00000000000006 144.28571428571433 L 171.42857142857144 142.8571428571429 " stroke="black" fill="none" stroke-width="5.0" stroke-linecap="round" stroke-linejoin="round" />
<path d="M 175.00000000000006 135.00000000000006 L 175.00000000000006 135.00000000000006 L 174.28571428571433 136.42857142857144 L 174.28571428571433 138.5714285714286 L 176.42857142857144 142.8571428571429 L 178.5714285714286 148.5714285714286 L 180.71428571428578 152.14285714285717 " stroke="black" fill="none" stroke-width="5.0" stroke-linecap="round" stroke-linejoin="round" />
<path d="M 152.14285714285717 165.00000000000006 L 152.14285714285717 165.00000000000006 L 152.14285714285717 165.71428571428572 L 152.14285714285717 167.14285714285717 L 152.14285714285717 170.71428571428572 L 152.8571428571429 177.14285714285717 L 153.5714285714286 183.5714285714286 L 155.00000000000006 187.8571428571429 L 155.00000000000006 187.8571428571429 " stroke="black" fill="none" stroke-width="5.0" stroke-linecap="round" stroke-linejoin="round" />
<path d="M 154.28571428571433 162.8571428571429 L 154.28571428571433 162.8571428571429 L 155.00000000000006 163.5714285714286 L 157.14285714285717 163.5714285714286 L 161.42857142857144 162.8571428571429 L 167.8571428571429 161.42857142857144 L 173.5714285714286 160.71428571428572 L 176.42857142857144 160.71428571428572 L 178.5714285714286 161.42857142857144 L 179.28571428571433 164.28571428571433 L 179.28571428571433 168.5714285714286 L 180.00000000000006 176.42857142857144 L 180.00000000000006 183.5714285714286 L 180.71428571428578 187.8571428571429 L 180.71428571428578 189.28571428571433 " stroke="black" fill="none" stroke-width="5.0" stroke-linecap="round" stroke-linejoin="round" />
<path d="M 157.14285714285717 188.5714285714286 L 157.14285714285717 189.28571428571433 L 158.5714285714286 189.28571428571433 L 162.8571428571429 188.5714285714286 L 171.42857142857144 187.14285714285717 L 179.28571428571433 186.42857142857144 L 181.42857142857144 186.42857142857144 " stroke="black" fill="none" stroke-width="5.0" stroke-linecap="round" stroke-linejoin="round" />
</svg>