<svg xmlns="http://www.w3.org/2000/svg" width="300" height="300" viewBox="0 0 300 300">
<path d="M 116.0 117.0 L 116.0 117.0 L 118.0 117.0 L 119.0 117.0 L 120.0 118.0 L 120.0 126.0 L 118.0 143.0 L 113.0 167.0 L 109.0 187.0 L 109.0 193.0 " stroke="black" fill="none" stroke-width="5.0" stroke-linecap="round" stroke-linejoin="round" />
<path d="M 118.0 115.0 L 120.0 115.0 L 122.0 115.0 L 126.0 114.0 L 134.0 112.0 L 146.0 110.0 L 158.0 110.0 L 166.0 110.0 L 170.0 113.0 L 170.0 118.0 L 170.0 128.0 L 170.0 143.0 L 172.0 161.0 L 177.0 177.0 L 184.0 183.0 L 191.0 184.0 L 193.0 183.0 " stroke="black" fill="none" stroke-width="5.0" stroke-linecap="round" stroke-linejoin="round" />
<path d="M 134.0 134.0 L 134.0 134.0 L 134.0 135.0 L 134.0 135.0 L 133.0 135.0 L 135.0 135.0 L 141.0 135.0 L 149.0 133.0 L 156.0 132.0 " stroke="black" fill="none" stroke-width="5.0" stroke-linecap="round" stroke-linejoin="round" />
<path d="M 146.0 136.0 L 146.0 136.0 L 146.0 136.0 L 146.0 136.0 L 145.0 136.0 L 144.0 139.0 L 140.0 145.0 L 133.0 154.0 L 130.0 158.0 " stroke="black" fill="none" stroke-width="5.0" stroke-linecap="round" stroke-linejoin="round" />
<path d="M 139.0 147.0 L 139.0 147.0 L 139.0 147.0 L 141.0 146.0 L 144.0 146.0 L 149.0 146.0 L 152.0 147.0 L 154.0 149.0 L 154.0 155.0 L 149.0 165.0 L 143.0 177.0 L 140.0 183.0 " stroke="black" fill="none" stroke-width="5.0" stroke-linecap="round" stroke-linejoin="round" />
<path d="M 136.0 156.0 L 136.0 157.0 L 138.0 159.0 L 140.0 163.0 L 145.0 167.0 L 147.0 167.0 " stroke="black" fill="none" stroke-width="5.0" stroke-linecap="round" stroke-linejoin="round" />
</svg>