<svg xmlns="http://www.w3.org/2000/svg" width="300" height="300" viewBox="0 0 300 300">
<path d="M 131.0 118.0 L 131.0 118.0 L 131.0 119.0 L 131.0 120.0 L 132.0 120.0 L 140.0 120.0 L 154.0 119.0 L 167.0 117.0 L 174.0 116.0 L 176.0 116.0 " stroke="black" fill="none" stroke-width="5.0" stroke-linecap="round" stroke-linejoin="round" />
<path d="M 151.0 107.0 L 150.0 108.0 L 149.0 110.0 L 146.0 115.0 L 141.0 123.0 L 132.0 135.0 L 121.0 147.0 L 117.0 150.0 " stroke="black" fill="none" stroke-width="5.0" stroke-linecap="round" stroke-linejoin="round" />
<path d="M 163.0 123.0 L 163.0 123.0 L 163.0 124.0 L 163.0 124.0 L 167.0 129.0 L 177.0 138.0 L 187.0 147.0 L 189.0 149.0 " stroke="black" fill="none" stroke-width="5.0" stroke-linecap="round" stroke-linejoin="round" />
<path d="M 138.0 147.0 L 138.0 147.0 L 138.0 147.0 L 139.0 147.0 L 142.0 147.0 L 149.0 147.0 L 158.0 147.0 L 165.0 147.0 L 166.0 147.0 " stroke="black" fill="none" stroke-width="5.0" stroke-linecap="round" stroke-linejoin="round" />
<path d="M 153.0 135.0 L 152.0 135.0 L 152.0 135.0 L 151.0 136.0 L 152.0 141.0 L 153.0 150.0 L 154.0 157.0 " stroke="black" fill="none" stroke-width="5.0" stroke-linecap="round" stroke-linejoin="round" />
<path d="M 128.0 177.0 L 128.0 177.0 L 128.0 177.0 L 129.0 177.0 L 133.0 177.0 L 143.0 177.0 L 158.0 177.0 L 172.0 177.0 L 180.0 177.0 L 181.0 177.0 " stroke="black" fill="none" stroke-width="5.0" stroke-linecap="round" stroke-linejoin="round" />
<path d="M 143.0 160.0 L 143.0 162.0 L 142.0 165.0 L 142.0 172.0 L 142.0 184.0 L 141.0 194.0 " stroke="black" fill="none" stroke-width="5.0" stroke-linecap="round" stroke-linejoin="round" />
<path d="M 169.0 161.0 L 169.0 161.0 L 169.0 162.0 L 169.0 163.0 L 171.0 170.0 L 173.0 183.0 L 175.0 198.0 L 175.0 201.0 " stroke="black" fill="none" stroke-width="5.0" stroke-linecap="round" stroke-linejoin="round" />
</svg>