<svg xmlns="http://www.w3.org/2000/svg" width="300" height="300" viewBox="0 0 300 300">
<path d="M 129.0 105.0 L 129.0 105.0 L 129.0 105.0 L 129.0 105.0 L 129.0 105.0 L 130.0 105.0 L 138.0 105.0 L 149.0 103.0 L 159.0 102.0 L 161.0 102.0 " stroke="black" fill="none" stroke-width="5.0" stroke-linecap="round" stroke-linejoin="round" />
<path d="M 151.0 105.0 L 151.0 105.0 L 151.0 105.0 L 151.0 105.0 L 151.0 106.0 L 148.0 109.0 L 144.0 115.0 L 142.0 116.0 " stroke="black" fill="none" stroke-width="5.0" stroke-linecap="round" stroke-linejoin="round" />
<path d="M 131.0 121.0 L 131.0 121.0 L 131.0 121.0 L 131.0 121.0 L 130.0 122.0 L 130.0 126.0 L 131.0 135.0 L 132.0 145.0 L 132.0 151.0 L 133.0 152.0 " stroke="black" fill="none" stroke-width="5.0" stroke-linecap="round" stroke-linejoin="round" />
<path d="M 134.0 120.0 L 134.0 120.0 L 134.0 120.0 L 133.0 120.0 L 134.0 120.0 L 138.0 119.0 L 145.0 119.0 L 152.0 118.0 L 158.0 118.0 L 162.0 119.0 L 165.0 123.0 L 168.0 130.0 L 171.0 141.0 L 173.0 150.0 L 173.0 155.0 L 173.0 156.0 " stroke="black" fill="none" stroke-width="5.0" stroke-linecap="round" stroke-linejoin="round" />
<path d="M 140.0 131.0 L 139.0 131.0 L 138.0 132.0 L 138.0 132.0 L 143.0 132.0 L 150.0 131.0 L 157.0 130.0 L 162.0 130.0 L 164.0 130.0 L 164.0 130.0 " stroke="black" fill="none" stroke-width="5.0" stroke-linecap="round" stroke-linejoin="round" />
<path d="M 138.0 143.0 L 138.0 143.0 L 139.0 143.0 L 142.0 143.0 L 147.0 143.0 L 155.0 143.0 L 161.0 143.0 L 165.0 142.0 L 165.0 142.0 " stroke="black" fill="none" stroke-width="5.0" stroke-linecap="round" stroke-linejoin="round" />
<path d="M 132.0 156.0 L 133.0 157.0 L 135.0 159.0 L 142.0 159.0 L 154.0 158.0 L 166.0 157.0 L 170.0 157.0 " stroke="black" fill="none" stroke-width="5.0" stroke-linecap="round" stroke-linejoin="round" />
<path d="M 144.0 166.0 L 144.0 166.0 L 144.0 165.0 L 144.0 165.0 L 144.0 165.0 L 142.0 167.0 L 139.0 173.0 L 134.0 181.0 L 127.0 190.0 L 122.0 195.0 " stroke="black" fill="none" stroke-width="5.0" stroke-linecap="round" stroke-linejoin="round" />
<path d="M 139.0 177.0 L 140.0 177.0 L 141.0 176.0 L 144.0 176.0 L 149.0 175.0 L 155.0 174.0 L 160.0 174.0 L 163.0 174.0 L 163.0 177.0 L 162.0 181.0 L 157.0 188.0 L 150.0 196.0 L 142.0 205.0 L 132.0 213.0 L 130.0 214.0 " stroke="black" fill="none" stroke-width="5.0" stroke-linecap="round" stroke-linejoin="round" />
<path d="M 128.0 178.0 L 128.0 178.0 L 129.0 177.0 L 130.0 177.0 L 135.0 181.0 L 148.0 192.0 L 166.0 205.0 L 181.0 213.0 L 186.0 215.0 " stroke="black" fill="none" stroke-width="5.0" stroke-linecap="round" stroke-linejoin="round" />
</svg>