<svg xmlns="http://www.w3.org/2000/svg" width="300" height="300" viewBox="0 0 300 300">
<path d="M 123.0 115.0 L 123.0 115.0 L 123.0 115.0 L 124.0 115.0 L 124.0 118.0 L 124.0 125.0 L 122.0 138.0 L 119.0 157.0 L 115.0 175.0 L 112.0 185.0 L 112.0 187.0 L 113.0 186.0 L 119.0 186.0 L 127.0 186.0 L 136.0 189.0 L 142.0 192.0 " stroke="black" fill="none" stroke-width="5.0" stroke-linecap="round" stroke-linejoin="round" />
<path d="M 139.0 145.0 L 139.0 145.0 L 139.0 145.0 L 138.0 146.0 L 138.0 152.0 L 136.0 166.0 L 133.0 183.0 L 130.0 194.0 L 128.0 196.0 " stroke="black" fill="none" stroke-width="5.0" stroke-linecap="round" stroke-linejoin="round" />
<path d="M 110.0 165.0 L 110.0 165.0 L 110.0 165.0 L 112.0 165.0 L 119.0 165.0 L 132.0 164.0 L 145.0 162.0 L 147.0 161.0 " stroke="black" fill="none" stroke-width="5.0" stroke-linecap="round" stroke-linejoin="round" />
<path d="M 157.0 128.0 L 157.0 128.0 L 158.0 129.0 L 158.0 129.0 L 161.0 129.0 L 170.0 129.0 L 181.0 127.0 L 191.0 125.0 L 192.0 125.0 " stroke="black" fill="none" stroke-width="5.0" stroke-linecap="round" stroke-linejoin="round" />
<path d="M 179.0 110.0 L 179.0 110.0 L 179.0 110.0 L 178.0 112.0 L 177.0 118.0 L 174.0 131.0 L 170.0 144.0 L 169.0 147.0 " stroke="black" fill="none" stroke-width="5.0" stroke-linecap="round" stroke-linejoin="round" />
<path d="M 158.0 157.0 L 158.0 157.0 L 158.0 157.0 L 158.0 158.0 L 157.0 164.0 L 157.0 176.0 L 159.0 188.0 L 160.0 192.0 " stroke="black" fill="none" stroke-width="5.0" stroke-linecap="round" stroke-linejoin="round" />
<path d="M 161.0 155.0 L 162.0 155.0 L 163.0 155.0 L 166.0 155.0 L 171.0 155.0 L 178.0 154.0 L 184.0 153.0 L 189.0 153.0 L 193.0 156.0 L 194.0 160.0 L 195.0 167.0 L 196.0 176.0 L 197.0 183.0 L 197.0 189.0 L 197.0 191.0 " stroke="black" fill="none" stroke-width="5.0" stroke-linecap="round" stroke-linejoin="round" />
<path d="M 167.0 190.0 L 168.0 190.0 L 168.0 190.0 L 169.0 190.0 L 173.0 189.0 L 182.0 189.0 L 195.0 189.0 L 201.0 190.0 " stroke="black" fill="none" stroke-width="5.0" stroke-linecap="round" stroke-linejoin="round" />
</svg>