<svg xmlns="http://www.w3.org/2000/svg" width="300" height="300" viewBox="0 0 300 300">
<circle cx="113.0" cy="116.0" r="2.5" fill="black" />
<path d="M 116.0 113.0 L 117.0 113.0 L 117.0 113.0 L 118.0 114.0 L 118.0 117.0 L 118.0 123.0 L 117.0 134.0 L 114.0 149.0 L 110.0 163.0 L 107.0 173.0 L 105.0 178.0 L 104.0 179.0 L 105.0 179.0 L 110.0 182.0 L 117.0 184.0 L 126.0 185.0 L 133.0 186.0 L 135.0 187.0 " stroke="black" fill="none" stroke-width="5.0" stroke-linecap="round" stroke-linejoin="round" />
<path d="M 129.0 135.0 L 129.0 135.0 L 129.0 136.0 L 129.0 139.0 L 128.0 148.0 L 126.0 163.0 L 122.0 180.0 L 117.0 194.0 " stroke="black" fill="none" stroke-width="5.0" stroke-linecap="round" stroke-linejoin="round" />
<path d="M 98.0 162.0 L 98.0 162.0 L 98.0 162.0 L 101.0 162.0 L 113.0 163.0 L 131.0 163.0 L 135.0 162.0 " stroke="black" fill="none" stroke-width="5.0" stroke-linecap="round" stroke-linejoin="round" />
<path d="M 157.0 119.0 L 157.0 119.0 L 158.0 120.0 L 158.0 123.0 L 158.0 134.0 L 158.0 148.0 L 159.0 158.0 L 159.0 161.0 " stroke="black" fill="none" stroke-width="5.0" stroke-linecap="round" stroke-linejoin="round" />
<path d="M 153.0 133.0 L 152.0 134.0 L 151.0 135.0 L 150.0 137.0 L 147.0 141.0 L 142.0 147.0 L 138.0 152.0 " stroke="black" fill="none" stroke-width="5.0" stroke-linecap="round" stroke-linejoin="round" />
<path d="M 171.0 137.0 L 172.0 137.0 L 173.0 137.0 L 176.0 139.0 L 180.0 144.0 L 184.0 148.0 " stroke="black" fill="none" stroke-width="5.0" stroke-linecap="round" stroke-linejoin="round" />
<path d="M 182.0 161.0 L 182.0 162.0 L 180.0 166.0 L 177.0 171.0 L 172.0 178.0 L 163.0 187.0 L 153.0 195.0 " stroke="black" fill="none" stroke-width="5.0" stroke-linecap="round" stroke-linejoin="round" />
</svg>