<svg xmlns="http://www.w3.org/2000/svg" width="300" height="300" viewBox="0 0 300 300">
<path d="M 129.0 117.0 L 129.0 117.0 L 129.0 117.0 L 128.0 117.0 L 130.0 117.0 L 138.0 117.0 L 151.0 115.0 L 163.0 114.0 L 170.0 114.0 L 170.0 114.0 " stroke="black" fill="none" stroke-width="5.0" stroke-linecap="round" stroke-linejoin="round" />
<path d="M 148.0 103.0 L 148.0 103.0 L 148.0 102.0 L 148.0 102.0 L 148.0 103.0 L 147.0 109.0 L 143.0 119.0 L 134.0 134.0 L 121.0 149.0 L 112.0 156.0 " stroke="black" fill="none" stroke-width="5.0" stroke-linecap="round" stroke-linejoin="round" />
<path d="M 162.0 123.0 L 162.0 123.0 L 162.0 123.0 L 162.0 123.0 L 164.0 125.0 L 169.0 130.0 L 177.0 136.0 L 180.0 139.0 " stroke="black" fill="none" stroke-width="5.0" stroke-linecap="round" stroke-linejoin="round" />
<path d="M 138.0 147.0 L 138.0 147.0 L 138.0 147.0 L 137.0 147.0 L 137.0 149.0 L 137.0 156.0 L 137.0 163.0 L 138.0 167.0 L 139.0 168.0 " stroke="black" fill="none" stroke-width="5.0" stroke-linecap="round" stroke-linejoin="round" />
<path d="M 140.0 143.0 L 140.0 143.0 L 140.0 143.0 L 141.0 142.0 L 143.0 142.0 L 148.0 141.0 L 154.0 140.0 L 161.0 140.0 L 166.0 140.0 L 170.0 143.0 L 172.0 149.0 L 173.0 156.0 L 173.0 161.0 L 173.0 164.0 " stroke="black" fill="none" stroke-width="5.0" stroke-linecap="round" stroke-linejoin="round" />
<path d="M 143.0 157.0 L 143.0 157.0 L 143.0 157.0 L 144.0 157.0 L 151.0 157.0 L 159.0 155.0 L 165.0 155.0 L 167.0 155.0 L 167.0 155.0 " stroke="black" fill="none" stroke-width="5.0" stroke-linecap="round" stroke-linejoin="round" />
<path d="M 138.0 170.0 L 137.0 171.0 L 138.0 173.0 L 145.0 173.0 L 156.0 172.0 L 167.0 168.0 L 171.0 166.0 " stroke="black" fill="none" stroke-width="5.0" stroke-linecap="round" stroke-linejoin="round" />
<path d="M 149.0 124.0 L 149.0 124.0 L 149.0 124.0 L 149.0 124.0 L 149.0 125.0 L 149.0 127.0 L 149.0 132.0 L 149.0 145.0 L 149.0 162.0 L 150.0 179.0 L 152.0 189.0 L 155.0 193.0 L 159.0 195.0 L 164.0 196.0 L 171.0 198.0 L 179.0 199.0 L 185.0 199.0 L 190.0 197.0 L 192.0 194.0 L 193.0 190.0 L 193.0 184.0 L 193.0 177.0 " stroke="black" fill="none" stroke-width="5.0" stroke-linecap="round" stroke-linejoin="round" />
</svg>