<svg xmlns="http://www.w3.org/2000/svg" width="300" height="300" viewBox="0 0 300 300">
<path d="M 136.0 114.0 L 136.0 114.0 L 135.0 114.0 L 135.0 114.0 L 142.0 114.0 L 153.0 113.0 L 165.0 112.0 L 168.0 112.0 " stroke="black" fill="none" stroke-width="5.0" stroke-linecap="round" stroke-linejoin="round" />
<path d="M 143.0 130.0 L 142.0 131.0 L 141.0 131.0 L 141.0 131.0 L 144.0 131.0 L 150.0 131.0 L 157.0 130.0 L 162.0 130.0 " stroke="black" fill="none" stroke-width="5.0" stroke-linecap="round" stroke-linejoin="round" />
<path d="M 117.0 152.0 L 118.0 152.0 L 119.0 152.0 L 126.0 152.0 L 143.0 150.0 L 163.0 146.0 L 180.0 146.0 L 188.0 146.0 L 189.0 147.0 " stroke="black" fill="none" stroke-width="5.0" stroke-linecap="round" stroke-linejoin="round" />
<path d="M 155.0 101.0 L 155.0 102.0 L 155.0 104.0 L 155.0 109.0 L 154.0 120.0 L 149.0 137.0 L 139.0 157.0 L 123.0 173.0 L 115.0 181.0 " stroke="black" fill="none" stroke-width="5.0" stroke-linecap="round" stroke-linejoin="round" />
<path d="M 159.0 156.0 L 160.0 156.0 L 160.0 158.0 L 162.0 159.0 L 166.0 164.0 L 174.0 173.0 L 184.0 181.0 L 190.0 185.0 " stroke="black" fill="none" stroke-width="5.0" stroke-linecap="round" stroke-linejoin="round" />
<path d="M 142.0 177.0 L 142.0 177.0 L 142.0 177.0 L 142.0 177.0 L 143.0 177.0 L 147.0 177.0 L 153.0 177.0 L 160.0 177.0 L 161.0 177.0 " stroke="black" fill="none" stroke-width="5.0" stroke-linecap="round" stroke-linejoin="round" />
<path d="M 129.0 195.0 L 129.0 196.0 L 130.0 196.0 L 135.0 196.0 L 147.0 196.0 L 161.0 195.0 L 174.0 194.0 L 182.0 193.0 " stroke="black" fill="none" stroke-width="5.0" stroke-linecap="round" stroke-linejoin="round" />
<path d="M 150.0 160.0 L 150.0 160.0 L 150.0 160.0 L 150.0 161.0 L 151.0 168.0 L 155.0 187.0 L 156.0 209.0 L 156.0 224.0 L 156.0 230.0 L 155.0 230.0 " stroke="black" fill="none" stroke-width="5.0" stroke-linecap="round" stroke-linejoin="round" />
</svg>