<svg xmlns="http://www.w3.org/2000/svg" width="300" height="300" viewBox="0 0 300 300">
<path d="M 118.0 120.0 L 118.0 120.0 L 118.0 120.0 L 118.0 120.0 L 118.0 121.0 L 120.0 121.0 L 125.0 121.0 L 131.0 121.0 L 132.0 121.0 " stroke="black" fill="none" stroke-width="5.0" stroke-linecap="round" stroke-linejoin="round" />
<path d="M 115.0 136.0 L 116.0 136.0 L 119.0 137.0 L 122.0 137.0 L 127.0 136.0 L 131.0 135.0 " stroke="black" fill="none" stroke-width="5.0" stroke-linecap="round" stroke-linejoin="round" />
<path d="M 154.0 100.0 L 155.0 99.0 L 155.0 98.0 L 155.0 98.0 L 155.0 99.0 L 154.0 106.0 L 151.0 114.0 L 150.0 118.0 " stroke="black" fill="none" stroke-width="5.0" stroke-linecap="round" stroke-linejoin="round" />
<path d="M 154.0 108.0 L 155.0 108.0 L 156.0 107.0 L 159.0 107.0 L 164.0 106.0 L 169.0 105.0 L 174.0 105.0 L 176.0 108.0 L 176.0 114.0 L 174.0 119.0 L 173.0 123.0 " stroke="black" fill="none" stroke-width="5.0" stroke-linecap="round" stroke-linejoin="round" />
<path d="M 161.0 113.0 L 161.0 113.0 L 161.0 113.0 L 160.0 113.0 L 160.0 115.0 L 158.0 122.0 L 155.0 131.0 L 151.0 140.0 L 149.0 143.0 " stroke="black" fill="none" stroke-width="5.0" stroke-linecap="round" stroke-linejoin="round" />
<path d="M 158.0 127.0 L 159.0 128.0 L 161.0 130.0 L 167.0 132.0 L 174.0 135.0 L 178.0 138.0 " stroke="black" fill="none" stroke-width="5.0" stroke-linecap="round" stroke-linejoin="round" />
<path d="M 143.0 152.0 L 143.0 152.0 L 143.0 152.0 L 142.0 153.0 L 142.0 156.0 L 142.0 162.0 L 139.0 172.0 L 135.0 183.0 L 132.0 190.0 L 131.0 193.0 L 136.0 194.0 L 145.0 194.0 L 154.0 194.0 L 162.0 196.0 L 163.0 198.0 " stroke="black" fill="none" stroke-width="5.0" stroke-linecap="round" stroke-linejoin="round" />
<path d="M 159.0 159.0 L 159.0 159.0 L 158.0 161.0 L 157.0 165.0 L 156.0 173.0 L 154.0 187.0 L 150.0 200.0 L 150.0 202.0 " stroke="black" fill="none" stroke-width="5.0" stroke-linecap="round" stroke-linejoin="round" />
<path d="M 119.0 176.0 L 119.0 176.0 L 120.0 176.0 L 127.0 176.0 L 145.0 173.0 L 163.0 169.0 L 176.0 168.0 L 181.0 168.0 " stroke="black" fill="none" stroke-width="5.0" stroke-linecap="round" stroke-linejoin="round" />
</svg>