<svg xmlns="http://www.w3.org/2000/svg" width="300" height="300" viewBox="0 0 300 300">
<path d="M 125.0 120.0 L 126.0 120.0 L 126.0 120.0 L 128.0 121.0 L 131.0 121.0 L 142.0 121.0 L 153.0 119.0 L 160.0 119.0 L 167.0 119.0 " stroke="black" fill="none" stroke-width="5.0" stroke-linecap="round" stroke-linejoin="round" />
<path d="M 151.0 96.0 L 151.0 96.0 L 152.0 97.0 L 152.0 99.0 L 152.0 110.0 L 150.0 121.0 L 149.0 135.0 L 144.0 159.0 L 136.0 181.0 L 129.0 196.0 L 125.0 204.0 L 124.0 204.0 " stroke="black" fill="none" stroke-width="5.0" stroke-linecap="round" stroke-linejoin="round" />
<path d="M 147.0 170.0 L 147.0 170.0 L 147.0 170.0 L 148.0 170.0 L 152.0 174.0 L 163.0 184.0 L 175.0 193.0 L 181.0 196.0 " stroke="black" fill="none" stroke-width="5.0" stroke-linecap="round" stroke-linejoin="round" />
<path d="M 125.0 132.0 L 125.0 132.0 L 126.0 133.0 L 126.0 136.0 L 123.0 143.0 L 119.0 151.0 L 114.0 158.0 L 112.0 159.0 " stroke="black" fill="none" stroke-width="5.0" stroke-linecap="round" stroke-linejoin="round" />
<path d="M 121.0 146.0 L 121.0 146.0 L 122.0 148.0 L 127.0 151.0 L 133.0 155.0 L 136.0 157.0 " stroke="black" fill="none" stroke-width="5.0" stroke-linecap="round" stroke-linejoin="round" />
<path d="M 161.0 134.0 L 163.0 134.0 L 163.0 134.0 L 164.0 134.0 L 164.0 135.0 L 164.0 138.0 L 161.0 145.0 L 158.0 150.0 L 154.0 158.0 " stroke="black" fill="none" stroke-width="5.0" stroke-linecap="round" stroke-linejoin="round" />
<path d="M 157.0 148.0 L 158.0 148.0 L 159.0 147.0 L 163.0 147.0 L 167.0 148.0 L 175.0 151.0 L 180.0 154.0 L 184.0 156.0 " stroke="black" fill="none" stroke-width="5.0" stroke-linecap="round" stroke-linejoin="round" />
</svg>