<svg xmlns="http://www.w3.org/2000/svg" width="300" height="300" viewBox="0 0 300 300">
<path d="M 156.0 103.0 L 156.0 103.0 L 155.0 105.0 L 154.0 106.0 L 151.0 110.0 L 145.0 117.0 L 139.0 123.0 " stroke="black" fill="none" stroke-width="5.0" stroke-linecap="round" stroke-linejoin="round" />
<path d="M 129.0 138.0 L 130.0 138.0 L 131.0 137.0 L 136.0 135.0 L 146.0 133.0 L 157.0 130.0 L 167.0 128.0 L 171.0 127.0 " stroke="black" fill="none" stroke-width="5.0" stroke-linecap="round" stroke-linejoin="round" />
<path d="M 152.0 116.0 L 152.0 116.0 L 151.0 117.0 L 151.0 117.0 L 151.0 121.0 L 153.0 131.0 L 154.0 146.0 L 155.0 153.0 " stroke="black" fill="none" stroke-width="5.0" stroke-linecap="round" stroke-linejoin="round" />
<path d="M 151.0 135.0 L 151.0 135.0 L 150.0 136.0 L 147.0 138.0 L 141.0 144.0 L 128.0 155.0 L 113.0 165.0 L 111.0 166.0 " stroke="black" fill="none" stroke-width="5.0" stroke-linecap="round" stroke-linejoin="round" />
<path d="M 152.0 136.0 L 152.0 136.0 L 153.0 136.0 L 156.0 137.0 L 165.0 144.0 L 179.0 154.0 L 186.0 158.0 " stroke="black" fill="none" stroke-width="5.0" stroke-linecap="round" stroke-linejoin="round" />
<path d="M 148.0 158.0 L 148.0 158.0 L 148.0 158.0 L 147.0 158.0 L 147.0 159.0 L 144.0 165.0 L 139.0 174.0 L 133.0 183.0 L 130.0 187.0 L 134.0 190.0 L 147.0 193.0 L 161.0 194.0 L 173.0 193.0 " stroke="black" fill="none" stroke-width="5.0" stroke-linecap="round" stroke-linejoin="round" />
<path d="M 162.0 162.0 L 162.0 162.0 L 160.0 164.0 L 159.0 167.0 L 158.0 174.0 L 155.0 186.0 L 150.0 199.0 L 149.0 202.0 " stroke="black" fill="none" stroke-width="5.0" stroke-linecap="round" stroke-linejoin="round" />
<path d="M 121.0 179.0 L 121.0 179.0 L 122.0 179.0 L 124.0 178.0 L 137.0 178.0 L 160.0 176.0 L 180.0 174.0 L 187.0 172.0 " stroke="black" fill="none" stroke-width="5.0" stroke-linecap="round" stroke-linejoin="round" />
</svg>