<svg xmlns="http://www.w3.org/2000/svg" width="300" height="300" viewBox="0 0 300 300">
<path d="M 162.0 104.0 L 162.0 104.0 L 162.0 105.0 L 162.0 106.0 L 161.0 109.0 L 156.0 114.0 L 147.0 124.0 L 133.0 135.0 L 121.0 143.0 " stroke="black" fill="none" stroke-width="5.0" stroke-linecap="round" stroke-linejoin="round" />
<path d="M 152.0 119.0 L 152.0 119.0 L 152.0 119.0 L 152.0 119.0 L 153.0 119.0 L 155.0 119.0 L 158.0 120.0 L 161.0 123.0 L 164.0 125.0 L 165.0 128.0 L 165.0 132.0 L 161.0 136.0 L 155.0 142.0 L 146.0 149.0 L 135.0 156.0 L 131.0 157.0 " stroke="black" fill="none" stroke-width="5.0" stroke-linecap="round" stroke-linejoin="round" />
<path d="M 144.0 136.0 L 144.0 136.0 L 144.0 136.0 L 145.0 139.0 L 148.0 142.0 L 149.0 143.0 " stroke="black" fill="none" stroke-width="5.0" stroke-linecap="round" stroke-linejoin="round" />
<path d="M 175.0 150.0 L 175.0 150.0 L 175.0 150.0 L 174.0 150.0 L 172.0 151.0 L 168.0 154.0 L 150.0 169.0 L 138.0 178.0 L 133.0 181.0 " stroke="black" fill="none" stroke-width="5.0" stroke-linecap="round" stroke-linejoin="round" />
<path d="M 161.0 162.0 L 162.0 162.0 L 164.0 162.0 L 166.0 162.0 L 168.0 162.0 L 171.0 162.0 L 174.0 163.0 L 176.0 165.0 L 178.0 167.0 L 178.0 171.0 L 175.0 176.0 L 169.0 183.0 L 160.0 192.0 L 150.0 201.0 L 141.0 206.0 L 140.0 207.0 " stroke="black" fill="none" stroke-width="5.0" stroke-linecap="round" stroke-linejoin="round" />
<path d="M 146.0 179.0 L 147.0 179.0 L 148.0 179.0 L 150.0 181.0 L 153.0 184.0 L 154.0 185.0 " stroke="black" fill="none" stroke-width="5.0" stroke-linecap="round" stroke-linejoin="round" />
</svg>