<svg xmlns="http://www.w3.org/2000/svg" width="300" height="300" viewBox="0 0 300 300">
<path d="M 121.0 116.0 L 121.0 116.0 L 122.0 115.0 L 122.0 114.0 L 122.0 114.0 L 123.0 114.0 L 123.0 115.0 L 123.0 120.0 L 121.0 131.0 L 117.0 144.0 L 113.0 154.0 L 110.0 159.0 L 109.0 161.0 L 111.0 163.0 L 117.0 166.0 L 125.0 170.0 L 133.0 172.0 L 137.0 173.0 " stroke="black" fill="none" stroke-width="5.0" stroke-linecap="round" stroke-linejoin="round" />
<path d="M 136.0 128.0 L 136.0 128.0 L 136.0 128.0 L 136.0 128.0 L 136.0 131.0 L 134.0 140.0 L 129.0 157.0 L 121.0 177.0 L 117.0 185.0 " stroke="black" fill="none" stroke-width="5.0" stroke-linecap="round" stroke-linejoin="round" />
<path d="M 108.0 148.0 L 108.0 148.0 L 110.0 147.0 L 117.0 146.0 L 130.0 144.0 L 144.0 144.0 L 147.0 145.0 " stroke="black" fill="none" stroke-width="5.0" stroke-linecap="round" stroke-linejoin="round" />
<path d="M 172.0 116.0 L 172.0 116.0 L 172.0 116.0 L 172.0 116.0 L 171.0 117.0 L 169.0 118.0 L 164.0 121.0 L 159.0 123.0 L 154.0 125.0 L 152.0 126.0 L 151.0 127.0 L 151.0 127.0 L 152.0 128.0 L 152.0 131.0 L 152.0 135.0 L 152.0 139.0 L 152.0 142.0 L 152.0 145.0 L 153.0 146.0 L 156.0 146.0 L 159.0 146.0 L 164.0 145.0 L 170.0 145.0 L 177.0 144.0 L 183.0 143.0 L 186.0 143.0 L 187.0 143.0 L 188.0 149.0 L 189.0 158.0 L 190.0 166.0 L 191.0 172.0 L 191.0 175.0 L 191.0 176.0 L 187.0 177.0 L 178.0 176.0 L 173.0 175.0 " stroke="black" fill="none" stroke-width="5.0" stroke-linecap="round" stroke-linejoin="round" />
<path d="M 158.0 108.0 L 157.0 107.0 L 156.0 107.0 L 156.0 109.0 L 160.0 124.0 L 167.0 152.0 L 171.0 181.0 L 172.0 196.0 L 173.0 201.0 " stroke="black" fill="none" stroke-width="5.0" stroke-linecap="round" stroke-linejoin="round" />
<path d="M 166.0 147.0 L 166.0 147.0 L 166.0 147.0 L 165.0 148.0 L 164.0 149.0 L 161.0 154.0 L 154.0 167.0 L 139.0 186.0 L 132.0 194.0 " stroke="black" fill="none" stroke-width="5.0" stroke-linecap="round" stroke-linejoin="round" />
</svg>