<svg xmlns="http://www.w3.org/2000/svg" width="300" height="300" viewBox="0 0 300 300">
<path d="M 116.0 110.0 L 116.0 110.0 L 115.0 110.0 L 115.0 115.0 L 115.0 132.0 L 113.0 151.0 L 110.0 164.0 L 108.0 170.0 L 107.0 170.0 L 108.0 170.0 L 111.0 173.0 L 119.0 177.0 L 130.0 179.0 L 135.0 180.0 " stroke="black" fill="none" stroke-width="5.0" stroke-linecap="round" stroke-linejoin="round" />
<path d="M 133.0 128.0 L 133.0 128.0 L 133.0 128.0 L 133.0 129.0 L 133.0 137.0 L 131.0 155.0 L 126.0 178.0 L 120.0 195.0 " stroke="black" fill="none" stroke-width="5.0" stroke-linecap="round" stroke-linejoin="round" />
<path d="M 101.0 149.0 L 101.0 149.0 L 101.0 149.0 L 101.0 149.0 L 105.0 149.0 L 119.0 149.0 L 142.0 148.0 L 147.0 148.0 " stroke="black" fill="none" stroke-width="5.0" stroke-linecap="round" stroke-linejoin="round" />
<path d="M 156.0 111.0 L 156.0 111.0 L 155.0 112.0 L 154.0 112.0 L 156.0 112.0 L 163.0 112.0 L 171.0 111.0 L 177.0 111.0 L 180.0 111.0 L 180.0 113.0 L 177.0 115.0 L 173.0 119.0 L 170.0 123.0 L 168.0 128.0 L 168.0 135.0 L 169.0 142.0 L 172.0 151.0 L 177.0 161.0 L 181.0 171.0 L 184.0 180.0 L 185.0 185.0 L 185.0 187.0 L 183.0 187.0 L 176.0 188.0 L 166.0 189.0 L 156.0 189.0 " stroke="black" fill="none" stroke-width="5.0" stroke-linecap="round" stroke-linejoin="round" />
<path d="M 145.0 161.0 L 145.0 161.0 L 145.0 161.0 L 145.0 161.0 L 147.0 161.0 L 159.0 158.0 L 179.0 154.0 L 195.0 150.0 L 201.0 149.0 L 201.0 149.0 L 201.0 149.0 " stroke="black" fill="none" stroke-width="5.0" stroke-linecap="round" stroke-linejoin="round" />
</svg>