<svg xmlns="http://www.w3.org/2000/svg" width="300" height="300" viewBox="0 0 300 300">
<path d="M 125.0 109.0 L 125.0 109.0 L 125.0 109.0 L 125.0 109.0 L 125.0 109.0 L 128.0 109.0 L 137.0 109.0 L 148.0 108.0 L 159.0 107.0 L 166.0 107.0 L 167.0 107.0 L 168.0 107.0 L 166.0 107.0 " stroke="black" fill="none" stroke-width="5.0" stroke-linecap="round" stroke-linejoin="round" />
<path d="M 145.0 97.0 L 145.0 97.0 L 144.0 98.0 L 143.0 100.0 L 141.0 104.0 L 137.0 112.0 L 129.0 123.0 L 121.0 133.0 L 115.0 138.0 L 114.0 138.0 " stroke="black" fill="none" stroke-width="5.0" stroke-linecap="round" stroke-linejoin="round" />
<path d="M 157.0 109.0 L 158.0 109.0 L 159.0 110.0 L 161.0 111.0 L 166.0 115.0 L 174.0 120.0 L 182.0 124.0 L 189.0 127.0 L 191.0 127.0 L 191.0 127.0 " stroke="black" fill="none" stroke-width="5.0" stroke-linecap="round" stroke-linejoin="round" />
<path d="M 142.0 121.0 L 142.0 121.0 L 143.0 122.0 L 143.0 122.0 L 143.0 123.0 L 142.0 126.0 L 138.0 131.0 L 132.0 139.0 L 125.0 146.0 L 120.0 149.0 " stroke="black" fill="none" stroke-width="5.0" stroke-linecap="round" stroke-linejoin="round" />
<path d="M 136.0 135.0 L 136.0 135.0 L 136.0 135.0 L 136.0 136.0 L 136.0 139.0 L 136.0 145.0 L 136.0 152.0 L 136.0 156.0 L 137.0 157.0 " stroke="black" fill="none" stroke-width="5.0" stroke-linecap="round" stroke-linejoin="round" />
<path d="M 156.0 121.0 L 156.0 122.0 L 156.0 122.0 L 157.0 123.0 L 159.0 125.0 L 160.0 126.0 L 161.0 127.0 " stroke="black" fill="none" stroke-width="5.0" stroke-linecap="round" stroke-linejoin="round" />
<path d="M 148.0 131.0 L 148.0 131.0 L 149.0 131.0 L 150.0 131.0 L 153.0 132.0 L 159.0 132.0 L 165.0 132.0 L 169.0 132.0 L 171.0 132.0 L 171.0 132.0 L 170.0 132.0 " stroke="black" fill="none" stroke-width="5.0" stroke-linecap="round" stroke-linejoin="round" />
<path d="M 149.0 140.0 L 149.0 140.0 L 150.0 140.0 L 151.0 140.0 L 153.0 140.0 L 156.0 140.0 L 161.0 140.0 L 165.0 140.0 L 167.0 140.0 L 167.0 141.0 L 165.0 141.0 " stroke="black" fill="none" stroke-width="5.0" stroke-linecap="round" stroke-linejoin="round" />
<path d="M 150.0 146.0 L 151.0 146.0 L 152.0 147.0 L 155.0 147.0 L 158.0 148.0 L 161.0 148.0 L 163.0 148.0 L 163.0 148.0 " stroke="black" fill="none" stroke-width="5.0" stroke-linecap="round" stroke-linejoin="round" />
<path d="M 144.0 153.0 L 144.0 153.0 L 145.0 153.0 L 147.0 154.0 L 152.0 155.0 L 160.0 155.0 L 168.0 156.0 L 174.0 156.0 L 175.0 156.0 " stroke="black" fill="none" stroke-width="5.0" stroke-linecap="round" stroke-linejoin="round" />
<path d="M 156.0 133.0 L 157.0 133.0 L 157.0 136.0 L 158.0 140.0 L 159.0 145.0 L 160.0 151.0 " stroke="black" fill="none" stroke-width="5.0" stroke-linecap="round" stroke-linejoin="round" />
<path d="M 127.0 170.0 L 127.0 170.0 L 126.0 170.0 L 125.0 171.0 L 125.0 171.0 L 127.0 171.0 L 132.0 171.0 L 141.0 171.0 L 151.0 171.0 L 163.0 171.0 L 172.0 171.0 L 179.0 171.0 L 182.0 171.0 L 182.0 171.0 L 182.0 171.0 L 181.0 171.0 " stroke="black" fill="none" stroke-width="5.0" stroke-linecap="round" stroke-linejoin="round" />
<path d="M 159.0 160.0 L 159.0 161.0 L 160.0 162.0 L 161.0 165.0 L 163.0 172.0 L 166.0 184.0 L 168.0 194.0 L 169.0 201.0 L 169.0 204.0 L 167.0 204.0 L 162.0 204.0 L 155.0 201.0 " stroke="black" fill="none" stroke-width="5.0" stroke-linecap="round" stroke-linejoin="round" />
<path d="M 131.0 183.0 L 135.0 184.0 L 138.0 185.0 L 143.0 187.0 L 148.0 188.0 L 149.0 188.0 " stroke="black" fill="none" stroke-width="5.0" stroke-linecap="round" stroke-linejoin="round" />
</svg>