<svg xmlns="http://www.w3.org/2000/svg" width="300" height="300" viewBox="0 0 300 300">
<path d="M 127.85714285714288 115.00000000000001 L 128.5714285714286 115.00000000000001 L 129.28571428571433 115.00000000000001 L 132.14285714285717 115.00000000000001 L 139.28571428571433 115.00000000000001 L 152.8571428571429 114.28571428571432 L 167.14285714285717 112.85714285714288 L 176.42857142857144 112.14285714285718 " stroke="black" fill="none" stroke-width="5.0" stroke-linecap="round" stroke-linejoin="round" />
<path d="M 110.71428571428574 151.42857142857144 L 110.71428571428574 151.42857142857144 L 109.28571428571432 151.42857142857144 L 108.5714285714286 151.42857142857144 L 107.85714285714288 151.42857142857144 L 108.5714285714286 151.42857142857144 L 112.85714285714288 152.14285714285717 L 120.71428571428574 152.14285714285717 L 135.00000000000006 152.14285714285717 L 153.5714285714286 151.42857142857144 L 170.71428571428572 151.42857142857144 L 183.5714285714286 150.71428571428572 L 186.42857142857144 150.71428571428572 " stroke="black" fill="none" stroke-width="5.0" stroke-linecap="round" stroke-linejoin="round" />
<path d="M 150.71428571428572 121.42857142857146 L 150.71428571428572 121.42857142857146 L 150.71428571428572 120.71428571428574 L 150.71428571428572 120.71428571428574 L 150.00000000000006 125.00000000000001 L 148.5714285714286 135.71428571428572 L 144.28571428571433 151.42857142857144 L 137.14285714285717 169.28571428571433 L 128.5714285714286 185.71428571428578 L 122.14285714285718 195.71428571428578 L 120.71428571428574 197.14285714285722 " stroke="black" fill="none" stroke-width="5.0" stroke-linecap="round" stroke-linejoin="round" />
<path d="M 147.8571428571429 154.28571428571433 L 147.8571428571429 155.00000000000006 L 147.8571428571429 155.71428571428572 L 150.00000000000006 158.5714285714286 L 157.8571428571429 165.71428571428572 L 170.00000000000006 180.00000000000006 L 179.28571428571433 193.5714285714286 L 183.5714285714286 202.8571428571429 L 184.28571428571433 205.00000000000006 " stroke="black" fill="none" stroke-width="5.0" stroke-linecap="round" stroke-linejoin="round" />
</svg>