<svg xmlns="http://www.w3.org/2000/svg" width="300" height="300" viewBox="0 0 300 300">
<path d="M 123.0 114.0 L 123.0 114.0 L 123.0 114.0 L 123.0 114.0 L 123.0 114.0 L 123.0 114.0 L 123.0 116.0 L 123.0 121.0 L 123.0 133.0 L 119.0 150.0 L 115.0 164.0 L 112.0 172.0 L 111.0 174.0 L 111.0 174.0 L 112.0 176.0 L 115.0 179.0 L 121.0 182.0 L 129.0 185.0 L 135.0 187.0 L 137.0 187.0 " stroke="black" fill="none" stroke-width="5.0" stroke-linecap="round" stroke-linejoin="round" />
<path d="M 137.0 139.0 L 136.0 139.0 L 136.0 139.0 L 135.0 140.0 L 134.0 149.0 L 131.0 163.0 L 125.0 180.0 L 117.0 193.0 L 115.0 195.0 " stroke="black" fill="none" stroke-width="5.0" stroke-linecap="round" stroke-linejoin="round" />
<path d="M 107.0 163.0 L 107.0 163.0 L 107.0 163.0 L 107.0 163.0 L 109.0 163.0 L 117.0 163.0 L 131.0 162.0 L 143.0 159.0 L 145.0 159.0 " stroke="black" fill="none" stroke-width="5.0" stroke-linecap="round" stroke-linejoin="round" />
<path d="M 161.0 120.0 L 161.0 120.0 L 161.0 120.0 L 161.0 120.0 L 162.0 120.0 L 165.0 120.0 L 170.0 120.0 L 176.0 120.0 L 182.0 120.0 L 186.0 120.0 L 188.0 121.0 L 188.0 122.0 L 188.0 124.0 L 187.0 129.0 L 187.0 136.0 L 187.0 142.0 L 187.0 145.0 L 187.0 146.0 L 186.0 146.0 L 184.0 146.0 L 180.0 146.0 L 175.0 145.0 L 170.0 145.0 L 166.0 144.0 L 163.0 144.0 L 162.0 144.0 L 162.0 144.0 L 161.0 145.0 L 161.0 146.0 L 161.0 148.0 L 161.0 151.0 L 161.0 156.0 L 160.0 163.0 L 160.0 172.0 L 160.0 181.0 L 162.0 187.0 L 164.0 191.0 L 168.0 193.0 L 175.0 194.0 L 185.0 194.0 L 193.0 192.0 L 198.0 190.0 L 202.0 189.0 L 203.0 188.0 L 204.0 187.0 L 205.0 183.0 L 205.0 174.0 L 205.0 170.0 " stroke="black" fill="none" stroke-width="5.0" stroke-linecap="round" stroke-linejoin="round" />
</svg>