<svg xmlns="http://www.w3.org/2000/svg" width="300" height="300" viewBox="0 0 300 300">
<path d="M 134.0 114.0 L 134.0 114.0 L 134.0 114.0 L 135.0 115.0 L 135.0 117.0 L 135.0 120.0 L 133.0 128.0 L 130.0 137.0 L 125.0 147.0 L 121.0 153.0 L 120.0 153.0 " stroke="black" fill="none" stroke-width="5.0" stroke-linecap="round" stroke-linejoin="round" />
<path d="M 134.0 135.0 L 134.0 135.0 L 134.0 135.0 L 135.0 135.0 L 137.0 134.0 L 144.0 134.0 L 154.0 133.0 L 162.0 133.0 L 166.0 133.0 L 167.0 135.0 " stroke="black" fill="none" stroke-width="5.0" stroke-linecap="round" stroke-linejoin="round" />
<path d="M 113.0 165.0 L 113.0 165.0 L 114.0 165.0 L 117.0 165.0 L 126.0 165.0 L 142.0 163.0 L 158.0 162.0 L 167.0 161.0 L 171.0 161.0 L 171.0 161.0 " stroke="black" fill="none" stroke-width="5.0" stroke-linecap="round" stroke-linejoin="round" />
<path d="M 147.0 115.0 L 147.0 116.0 L 147.0 116.0 L 146.0 120.0 L 146.0 130.0 L 145.0 148.0 L 141.0 166.0 L 135.0 181.0 L 129.0 190.0 L 124.0 194.0 " stroke="black" fill="none" stroke-width="5.0" stroke-linecap="round" stroke-linejoin="round" />
<path d="M 144.0 166.0 L 145.0 166.0 L 146.0 167.0 L 148.0 170.0 L 155.0 178.0 L 165.0 190.0 L 175.0 199.0 L 181.0 203.0 L 184.0 204.0 L 184.0 204.0 " stroke="black" fill="none" stroke-width="5.0" stroke-linecap="round" stroke-linejoin="round" />
</svg>