<svg xmlns="http://www.w3.org/2000/svg" width="300" height="300" viewBox="0 0 300 300">
<path d="M 122.0 113.0 L 122.0 113.0 L 123.0 113.0 L 123.0 114.0 L 123.0 116.0 L 122.0 121.0 L 118.0 143.0 L 115.0 158.0 L 113.0 165.0 L 111.0 175.0 L 110.0 178.0 L 112.0 178.0 L 117.0 180.0 L 124.0 181.0 L 130.0 181.0 L 132.0 182.0 L 132.0 182.0 " stroke="black" fill="none" stroke-width="5.0" stroke-linecap="round" stroke-linejoin="round" />
<path d="M 129.0 136.0 L 129.0 136.0 L 129.0 136.0 L 128.0 140.0 L 127.0 144.0 L 125.0 154.0 L 122.0 167.0 L 119.0 181.0 L 118.0 186.0 L 118.0 186.0 L 118.0 185.0 " stroke="black" fill="none" stroke-width="5.0" stroke-linecap="round" stroke-linejoin="round" />
<path d="M 105.0 158.0 L 105.0 159.0 L 106.0 160.0 L 108.0 160.0 L 116.0 159.0 L 126.0 158.0 L 133.0 158.0 L 136.0 158.0 L 136.0 158.0 " stroke="black" fill="none" stroke-width="5.0" stroke-linecap="round" stroke-linejoin="round" />
<path d="M 146.0 120.0 L 146.0 120.0 L 146.0 120.0 L 146.0 120.0 L 146.0 120.0 L 147.0 120.0 L 150.0 120.0 L 153.0 120.0 L 156.0 120.0 L 157.0 121.0 L 157.0 123.0 L 157.0 126.0 L 157.0 129.0 L 157.0 133.0 L 158.0 137.0 L 161.0 142.0 L 162.0 145.0 L 163.0 146.0 L 163.0 149.0 L 162.0 150.0 L 157.0 151.0 L 155.0 151.0 " stroke="black" fill="none" stroke-width="5.0" stroke-linecap="round" stroke-linejoin="round" />
<path d="M 146.0 124.0 L 146.0 124.0 L 146.0 124.0 L 146.0 125.0 L 146.0 138.0 L 146.0 158.0 L 147.0 178.0 L 147.0 190.0 L 148.0 195.0 L 148.0 196.0 L 148.0 195.0 " stroke="black" fill="none" stroke-width="5.0" stroke-linecap="round" stroke-linejoin="round" />
<path d="M 158.0 162.0 L 158.0 164.0 L 158.0 166.0 L 158.0 168.0 L 158.0 170.0 L 158.0 172.0 " stroke="black" fill="none" stroke-width="5.0" stroke-linecap="round" stroke-linejoin="round" />
<path d="M 159.0 161.0 L 159.0 161.0 L 160.0 161.0 L 161.0 161.0 L 163.0 161.0 L 167.0 160.0 L 170.0 160.0 L 173.0 160.0 L 175.0 163.0 L 176.0 168.0 L 176.0 173.0 L 176.0 176.0 L 175.0 177.0 " stroke="black" fill="none" stroke-width="5.0" stroke-linecap="round" stroke-linejoin="round" />
<path d="M 160.0 175.0 L 160.0 177.0 L 161.0 178.0 L 166.0 179.0 L 172.0 179.0 L 177.0 177.0 " stroke="black" fill="none" stroke-width="5.0" stroke-linecap="round" stroke-linejoin="round" />
<path d="M 169.0 125.0 L 169.0 126.0 L 170.0 126.0 L 170.0 127.0 L 173.0 127.0 L 179.0 127.0 L 187.0 126.0 L 195.0 125.0 L 199.0 125.0 L 200.0 125.0 L 200.0 125.0 L 200.0 125.0 " stroke="black" fill="none" stroke-width="5.0" stroke-linecap="round" stroke-linejoin="round" />
<path d="M 189.0 126.0 L 189.0 126.0 L 189.0 126.0 L 189.0 126.0 L 188.0 126.0 L 188.0 131.0 L 189.0 141.0 L 192.0 158.0 L 194.0 175.0 L 195.0 188.0 L 196.0 195.0 L 196.0 197.0 L 196.0 197.0 L 194.0 197.0 L 189.0 195.0 L 182.0 194.0 L 174.0 192.0 " stroke="black" fill="none" stroke-width="5.0" stroke-linecap="round" stroke-linejoin="round" />
</svg>