<svg xmlns="http://www.w3.org/2000/svg" width="300" height="300" viewBox="0 0 300 300">
<path d="M 118.0 122.0 L 118.0 122.0 L 118.0 122.0 L 118.0 122.0 L 119.0 122.0 L 125.0 121.0 L 138.0 119.0 L 155.0 116.0 L 171.0 114.0 L 182.0 113.0 L 185.0 113.0 " stroke="black" fill="none" stroke-width="5.0" stroke-linecap="round" stroke-linejoin="round" />
<path d="M 121.0 127.0 L 121.0 127.0 L 121.0 127.0 L 121.0 127.0 L 121.0 127.0 L 122.0 128.0 L 122.0 138.0 L 121.0 156.0 L 118.0 177.0 L 115.0 192.0 L 115.0 194.0 " stroke="black" fill="none" stroke-width="5.0" stroke-linecap="round" stroke-linejoin="round" />
<path d="M 135.0 146.0 L 135.0 146.0 L 135.0 146.0 L 136.0 146.0 L 139.0 146.0 L 145.0 145.0 L 150.0 145.0 L 152.0 145.0 " stroke="black" fill="none" stroke-width="5.0" stroke-linecap="round" stroke-linejoin="round" />
<path d="M 138.0 150.0 L 138.0 150.0 L 138.0 150.0 L 138.0 150.0 L 138.0 151.0 L 137.0 156.0 L 136.0 165.0 L 134.0 175.0 L 133.0 182.0 L 137.0 184.0 L 143.0 185.0 L 150.0 183.0 L 151.0 183.0 " stroke="black" fill="none" stroke-width="5.0" stroke-linecap="round" stroke-linejoin="round" />
<path d="M 151.0 158.0 L 151.0 158.0 L 151.0 159.0 L 150.0 162.0 L 148.0 171.0 L 146.0 183.0 L 145.0 190.0 " stroke="black" fill="none" stroke-width="5.0" stroke-linecap="round" stroke-linejoin="round" />
<path d="M 128.0 168.0 L 128.0 169.0 L 129.0 169.0 L 136.0 169.0 L 148.0 166.0 L 157.0 163.0 " stroke="black" fill="none" stroke-width="5.0" stroke-linecap="round" stroke-linejoin="round" />
<circle cx="157.0" cy="109.0" r="2.5" fill="black" />
<path d="M 158.0 108.0 L 158.0 108.0 L 158.0 108.0 L 159.0 109.0 L 161.0 116.0 L 168.0 139.0 L 177.0 168.0 L 184.0 185.0 L 185.0 188.0 " stroke="black" fill="none" stroke-width="5.0" stroke-linecap="round" stroke-linejoin="round" />
<path d="M 189.0 161.0 L 189.0 161.0 L 187.0 162.0 L 184.0 164.0 L 180.0 170.0 L 171.0 180.0 L 166.0 185.0 " stroke="black" fill="none" stroke-width="5.0" stroke-linecap="round" stroke-linejoin="round" />
<path d="M 183.0 100.0 L 184.0 100.0 L 185.0 101.0 L 187.0 104.0 L 189.0 106.0 " stroke="black" fill="none" stroke-width="5.0" stroke-linecap="round" stroke-linejoin="round" />
</svg>