<svg xmlns="http://www.w3.org/2000/svg" width="300" height="300" viewBox="0 0 300 300">
<path d="M 123.0 115.0 L 123.0 115.0 L 124.0 115.0 L 124.0 115.0 L 124.0 115.0 L 124.0 121.0 L 121.0 136.0 L 116.0 157.0 L 112.0 169.0 L 112.0 171.0 L 112.0 171.0 L 117.0 171.0 L 125.0 174.0 L 133.0 177.0 L 139.0 179.0 " stroke="black" fill="none" stroke-width="5.0" stroke-linecap="round" stroke-linejoin="round" />
<path d="M 134.0 134.0 L 134.0 134.0 L 134.0 134.0 L 134.0 135.0 L 134.0 138.0 L 132.0 147.0 L 129.0 167.0 L 124.0 187.0 " stroke="black" fill="none" stroke-width="5.0" stroke-linecap="round" stroke-linejoin="round" />
<path d="M 110.0 151.0 L 111.0 151.0 L 113.0 151.0 L 119.0 151.0 L 130.0 151.0 L 136.0 151.0 " stroke="black" fill="none" stroke-width="5.0" stroke-linecap="round" stroke-linejoin="round" />
<path d="M 154.0 110.0 L 154.0 110.0 L 154.0 110.0 L 154.0 110.0 L 154.0 110.0 L 154.0 110.0 L 156.0 110.0 L 158.0 110.0 L 162.0 110.0 L 166.0 110.0 L 169.0 110.0 L 170.0 110.0 L 171.0 110.0 L 172.0 112.0 L 174.0 116.0 L 176.0 122.0 L 177.0 128.0 L 177.0 133.0 L 178.0 135.0 L 178.0 135.0 " stroke="black" fill="none" stroke-width="5.0" stroke-linecap="round" stroke-linejoin="round" />
<path d="M 144.0 122.0 L 144.0 122.0 L 144.0 122.0 L 145.0 122.0 L 150.0 122.0 L 159.0 121.0 L 169.0 120.0 L 179.0 120.0 L 184.0 120.0 L 185.0 119.0 " stroke="black" fill="none" stroke-width="5.0" stroke-linecap="round" stroke-linejoin="round" />
<path d="M 148.0 136.0 L 148.0 136.0 L 148.0 136.0 L 148.0 136.0 L 150.0 136.0 L 157.0 136.0 L 167.0 136.0 L 175.0 135.0 " stroke="black" fill="none" stroke-width="5.0" stroke-linecap="round" stroke-linejoin="round" />
<path d="M 145.0 151.0 L 145.0 151.0 L 144.0 151.0 L 143.0 151.0 L 143.0 154.0 L 145.0 158.0 L 145.0 160.0 " stroke="black" fill="none" stroke-width="5.0" stroke-linecap="round" stroke-linejoin="round" />
<path d="M 145.0 150.0 L 145.0 149.0 L 145.0 149.0 L 146.0 149.0 L 148.0 148.0 L 154.0 148.0 L 163.0 147.0 L 175.0 146.0 L 185.0 146.0 L 193.0 146.0 L 197.0 148.0 L 197.0 152.0 L 197.0 158.0 L 196.0 162.0 " stroke="black" fill="none" stroke-width="5.0" stroke-linecap="round" stroke-linejoin="round" />
<path d="M 157.0 162.0 L 157.0 162.0 L 156.0 162.0 L 156.0 162.0 L 156.0 165.0 L 157.0 168.0 L 158.0 170.0 " stroke="black" fill="none" stroke-width="5.0" stroke-linecap="round" stroke-linejoin="round" />
<path d="M 157.0 161.0 L 157.0 161.0 L 157.0 161.0 L 158.0 161.0 L 162.0 160.0 L 168.0 159.0 L 175.0 158.0 L 181.0 158.0 L 185.0 160.0 L 189.0 162.0 L 191.0 165.0 L 192.0 168.0 L 191.0 170.0 L 188.0 172.0 L 184.0 172.0 L 183.0 171.0 " stroke="black" fill="none" stroke-width="5.0" stroke-linecap="round" stroke-linejoin="round" />
<path d="M 167.0 148.0 L 167.0 148.0 L 166.0 147.0 L 166.0 147.0 L 166.0 147.0 L 167.0 155.0 L 170.0 171.0 L 173.0 188.0 L 175.0 197.0 L 175.0 198.0 " stroke="black" fill="none" stroke-width="5.0" stroke-linecap="round" stroke-linejoin="round" />
</svg>