<svg xmlns="http://www.w3.org/2000/svg" width="300" height="300" viewBox="0 0 300 300">
<path d="M 125.0 113.0 L 126.0 112.0 L 127.0 111.0 L 127.0 111.0 L 127.0 110.0 L 127.0 111.0 L 127.0 115.0 L 127.0 123.0 L 124.0 134.0 L 120.0 148.0 L 116.0 159.0 L 113.0 166.0 L 112.0 169.0 L 111.0 170.0 L 113.0 171.0 L 116.0 173.0 L 122.0 175.0 L 128.0 177.0 L 134.0 179.0 L 139.0 181.0 L 141.0 182.0 " stroke="black" fill="none" stroke-width="5.0" stroke-linecap="round" stroke-linejoin="round" />
<path d="M 137.0 131.0 L 137.0 131.0 L 137.0 131.0 L 137.0 131.0 L 136.0 135.0 L 135.0 144.0 L 132.0 159.0 L 126.0 173.0 L 120.0 182.0 L 116.0 185.0 " stroke="black" fill="none" stroke-width="5.0" stroke-linecap="round" stroke-linejoin="round" />
<path d="M 110.0 150.0 L 110.0 150.0 L 110.0 150.0 L 113.0 150.0 L 123.0 151.0 L 136.0 149.0 L 142.0 148.0 " stroke="black" fill="none" stroke-width="5.0" stroke-linecap="round" stroke-linejoin="round" />
<path d="M 151.0 112.0 L 151.0 112.0 L 151.0 112.0 L 151.0 113.0 L 151.0 115.0 L 151.0 120.0 L 151.0 125.0 L 151.0 127.0 " stroke="black" fill="none" stroke-width="5.0" stroke-linecap="round" stroke-linejoin="round" />
<path d="M 154.0 109.0 L 154.0 109.0 L 154.0 109.0 L 154.0 110.0 L 154.0 110.0 L 154.0 110.0 L 158.0 110.0 L 163.0 109.0 L 169.0 108.0 L 173.0 108.0 L 176.0 110.0 L 178.0 115.0 L 179.0 122.0 L 179.0 127.0 L 179.0 130.0 L 178.0 130.0 " stroke="black" fill="none" stroke-width="5.0" stroke-linecap="round" stroke-linejoin="round" />
<path d="M 152.0 128.0 L 152.0 128.0 L 152.0 129.0 L 153.0 130.0 L 156.0 130.0 L 163.0 130.0 L 172.0 130.0 L 180.0 130.0 L 183.0 131.0 " stroke="black" fill="none" stroke-width="5.0" stroke-linecap="round" stroke-linejoin="round" />
<path d="M 153.0 144.0 L 153.0 144.0 L 153.0 144.0 L 153.0 144.0 L 154.0 144.0 L 154.0 148.0 L 154.0 160.0 L 153.0 178.0 L 151.0 193.0 L 151.0 197.0 L 151.0 195.0 " stroke="black" fill="none" stroke-width="5.0" stroke-linecap="round" stroke-linejoin="round" />
<path d="M 152.0 143.0 L 153.0 142.0 L 153.0 142.0 L 154.0 141.0 L 157.0 141.0 L 162.0 140.0 L 168.0 139.0 L 174.0 139.0 L 178.0 141.0 L 182.0 147.0 L 186.0 158.0 L 189.0 172.0 L 191.0 187.0 L 192.0 195.0 L 192.0 199.0 L 191.0 200.0 L 186.0 200.0 L 175.0 199.0 L 172.0 198.0 " stroke="black" fill="none" stroke-width="5.0" stroke-linecap="round" stroke-linejoin="round" />
<circle cx="154.0" cy="180.0" r="2.5" fill="black" />
<path d="M 155.0 156.0 L 155.0 156.0 L 155.0 156.0 L 160.0 156.0 L 172.0 155.0 L 184.0 155.0 L 187.0 155.0 " stroke="black" fill="none" stroke-width="5.0" stroke-linecap="round" stroke-linejoin="round" />
<path d="M 156.0 172.0 L 157.0 173.0 L 159.0 174.0 L 167.0 175.0 L 179.0 174.0 L 190.0 171.0 " stroke="black" fill="none" stroke-width="5.0" stroke-linecap="round" stroke-linejoin="round" />
</svg>