<svg xmlns="http://www.w3.org/2000/svg" width="300" height="300" viewBox="0 0 300 300">
<path d="M 113.0 114.0 L 113.0 114.0 L 113.0 114.0 L 114.0 115.0 L 114.0 117.0 L 114.0 121.0 L 115.0 125.0 L 115.0 126.0 " stroke="black" fill="none" stroke-width="5.0" stroke-linecap="round" stroke-linejoin="round" />
<path d="M 111.0 115.0 L 112.0 115.0 L 114.0 115.0 L 115.0 114.0 L 118.0 114.0 L 124.0 113.0 L 134.0 111.0 L 147.0 110.0 L 158.0 110.0 L 167.0 110.0 L 176.0 111.0 L 182.0 111.0 L 187.0 112.0 L 187.0 112.0 L 187.0 113.0 L 187.0 118.0 L 187.0 121.0 L 186.0 131.0 " stroke="black" fill="none" stroke-width="5.0" stroke-linecap="round" stroke-linejoin="round" />
<path d="M 149.0 94.0 L 149.0 94.0 L 149.0 93.0 L 149.0 94.0 L 150.0 100.0 L 151.0 103.0 " stroke="black" fill="none" stroke-width="5.0" stroke-linecap="round" stroke-linejoin="round" />
<path d="M 136.0 129.0 L 136.0 129.0 L 136.0 129.0 L 136.0 130.0 L 136.0 132.0 L 133.0 134.0 L 130.0 137.0 L 127.0 139.0 L 125.0 141.0 L 125.0 146.0 L 125.0 152.0 L 126.0 160.0 L 127.0 165.0 L 128.0 166.0 " stroke="black" fill="none" stroke-width="5.0" stroke-linecap="round" stroke-linejoin="round" />
<path d="M 126.0 150.0 L 126.0 150.0 L 127.0 151.0 L 127.0 151.0 L 128.0 152.0 L 131.0 152.0 L 136.0 152.0 L 138.0 152.0 " stroke="black" fill="none" stroke-width="5.0" stroke-linecap="round" stroke-linejoin="round" />
<path d="M 155.0 128.0 L 156.0 128.0 L 157.0 128.0 L 158.0 128.0 L 160.0 128.0 L 162.0 128.0 L 164.0 128.0 L 166.0 129.0 L 168.0 130.0 L 169.0 133.0 L 170.0 141.0 L 171.0 151.0 L 173.0 161.0 L 173.0 165.0 L 173.0 166.0 " stroke="black" fill="none" stroke-width="5.0" stroke-linecap="round" stroke-linejoin="round" />
<path d="M 152.0 148.0 L 152.0 148.0 L 152.0 148.0 L 153.0 148.0 L 155.0 147.0 L 161.0 147.0 L 167.0 147.0 L 169.0 147.0 " stroke="black" fill="none" stroke-width="5.0" stroke-linecap="round" stroke-linejoin="round" />
<path d="M 128.0 167.0 L 128.0 168.0 L 128.0 169.0 L 128.0 170.0 L 133.0 171.0 L 144.0 170.0 L 158.0 168.0 L 169.0 168.0 L 170.0 168.0 " stroke="black" fill="none" stroke-width="5.0" stroke-linecap="round" stroke-linejoin="round" />
<path d="M 133.0 172.0 L 133.0 173.0 L 132.0 175.0 L 130.0 178.0 L 126.0 182.0 L 123.0 188.0 L 120.0 192.0 " stroke="black" fill="none" stroke-width="5.0" stroke-linecap="round" stroke-linejoin="round" />
<path d="M 130.0 184.0 L 130.0 184.0 L 130.0 184.0 L 130.0 184.0 L 135.0 183.0 L 145.0 183.0 L 156.0 182.0 L 165.0 182.0 L 172.0 183.0 L 176.0 185.0 L 178.0 187.0 L 180.0 190.0 L 182.0 195.0 L 183.0 202.0 L 184.0 208.0 L 184.0 214.0 L 184.0 219.0 L 182.0 221.0 L 178.0 222.0 L 171.0 222.0 " stroke="black" fill="none" stroke-width="5.0" stroke-linecap="round" stroke-linejoin="round" />
<path d="M 136.0 198.0 L 135.0 198.0 L 134.0 200.0 L 133.0 202.0 L 133.0 203.0 " stroke="black" fill="none" stroke-width="5.0" stroke-linecap="round" stroke-linejoin="round" />
<path d="M 146.0 194.0 L 146.0 194.0 L 146.0 194.0 L 146.0 195.0 L 146.0 198.0 L 147.0 202.0 L 148.0 205.0 " stroke="black" fill="none" stroke-width="5.0" stroke-linecap="round" stroke-linejoin="round" />
<path d="M 156.0 198.0 L 156.0 199.0 L 156.0 201.0 L 156.0 203.0 L 157.0 206.0 L 158.0 208.0 " stroke="black" fill="none" stroke-width="5.0" stroke-linecap="round" stroke-linejoin="round" />
<path d="M 171.0 198.0 L 171.0 199.0 L 171.0 200.0 L 171.0 204.0 L 173.0 208.0 L 174.0 211.0 " stroke="black" fill="none" stroke-width="5.0" stroke-linecap="round" stroke-linejoin="round" />
</svg>