<svg xmlns="http://www.w3.org/2000/svg" width="300" height="300" viewBox="0 0 300 300">
<path d="M 115.0 113.0 L 117.0 113.0 L 118.0 114.0 L 118.0 115.0 L 118.0 119.0 L 118.0 123.0 L 118.0 126.0 " stroke="black" fill="none" stroke-width="5.0" stroke-linecap="round" stroke-linejoin="round" />
<path d="M 120.0 109.0 L 121.0 109.0 L 122.0 109.0 L 123.0 109.0 L 127.0 109.0 L 137.0 109.0 L 149.0 109.0 L 160.0 109.0 L 170.0 109.0 L 178.0 109.0 L 183.0 109.0 L 186.0 109.0 L 186.0 113.0 L 185.0 119.0 L 184.0 125.0 L 183.0 127.0 " stroke="black" fill="none" stroke-width="5.0" stroke-linecap="round" stroke-linejoin="round" />
<path d="M 148.0 96.0 L 148.0 96.0 L 148.0 96.0 L 148.0 98.0 L 150.0 103.0 L 152.0 108.0 " stroke="black" fill="none" stroke-width="5.0" stroke-linecap="round" stroke-linejoin="round" />
<path d="M 136.0 127.0 L 136.0 127.0 L 136.0 127.0 L 135.0 127.0 L 135.0 128.0 L 135.0 133.0 L 136.0 140.0 L 137.0 144.0 L 138.0 146.0 " stroke="black" fill="none" stroke-width="5.0" stroke-linecap="round" stroke-linejoin="round" />
<path d="M 137.0 125.0 L 137.0 125.0 L 137.0 125.0 L 138.0 126.0 L 141.0 126.0 L 146.0 126.0 L 153.0 125.0 L 161.0 125.0 L 166.0 125.0 L 168.0 129.0 L 168.0 137.0 L 168.0 144.0 L 168.0 148.0 L 168.0 149.0 " stroke="black" fill="none" stroke-width="5.0" stroke-linecap="round" stroke-linejoin="round" />
<path d="M 138.0 137.0 L 138.0 137.0 L 138.0 137.0 L 137.0 137.0 L 139.0 138.0 L 144.0 139.0 L 152.0 139.0 L 158.0 139.0 L 162.0 139.0 L 162.0 139.0 " stroke="black" fill="none" stroke-width="5.0" stroke-linecap="round" stroke-linejoin="round" />
<path d="M 140.0 148.0 L 140.0 149.0 L 140.0 150.0 L 143.0 151.0 L 150.0 151.0 L 159.0 150.0 L 163.0 150.0 " stroke="black" fill="none" stroke-width="5.0" stroke-linecap="round" stroke-linejoin="round" />
<path d="M 146.0 157.0 L 146.0 157.0 L 146.0 157.0 L 146.0 157.0 L 146.0 158.0 L 143.0 163.0 L 139.0 172.0 L 135.0 183.0 L 135.0 189.0 L 144.0 193.0 L 156.0 194.0 L 167.0 195.0 L 170.0 195.0 " stroke="black" fill="none" stroke-width="5.0" stroke-linecap="round" stroke-linejoin="round" />
<path d="M 161.0 165.0 L 161.0 165.0 L 161.0 165.0 L 161.0 167.0 L 161.0 171.0 L 160.0 180.0 L 156.0 193.0 L 152.0 202.0 " stroke="black" fill="none" stroke-width="5.0" stroke-linecap="round" stroke-linejoin="round" />
<path d="M 112.0 177.0 L 112.0 177.0 L 111.0 177.0 L 111.0 176.0 L 121.0 176.0 L 145.0 177.0 L 172.0 177.0 L 185.0 177.0 " stroke="black" fill="none" stroke-width="5.0" stroke-linecap="round" stroke-linejoin="round" />
</svg>