<svg xmlns="http://www.w3.org/2000/svg" width="300" height="300" viewBox="0 0 300 300">
<path d="M 134.0 118.0 L 134.0 118.0 L 134.0 118.0 L 134.0 119.0 L 134.0 119.0 L 137.0 120.0 L 146.0 120.0 L 156.0 120.0 L 163.0 120.0 L 165.0 121.0 L 164.0 122.0 L 160.0 126.0 L 155.0 130.0 L 152.0 134.0 L 148.0 138.0 L 146.0 142.0 L 145.0 146.0 L 146.0 151.0 L 150.0 157.0 L 155.0 164.0 L 159.0 173.0 L 163.0 185.0 L 165.0 194.0 L 165.0 200.0 L 161.0 202.0 L 155.0 202.0 L 148.0 201.0 L 141.0 197.0 L 139.0 196.0 " stroke="black" fill="none" stroke-width="5.0" stroke-linecap="round" stroke-linejoin="round" />
<path d="M 107.0 164.0 L 107.0 165.0 L 107.0 165.0 L 109.0 165.0 L 119.0 166.0 L 140.0 167.0 L 168.0 166.0 L 192.0 164.0 L 204.0 163.0 L 205.0 163.0 " stroke="black" fill="none" stroke-width="5.0" stroke-linecap="round" stroke-linejoin="round" />
</svg>