<svg xmlns="http://www.w3.org/2000/svg" width="300" height="300" viewBox="0 0 300 300">
<path d="M 115.0 110.0 L 115.0 110.0 L 115.0 110.0 L 116.0 110.0 L 116.0 111.0 L 116.0 115.0 L 116.0 125.0 L 114.0 138.0 L 110.0 153.0 L 107.0 165.0 L 104.0 172.0 L 102.0 175.0 L 102.0 176.0 L 104.0 177.0 L 108.0 179.0 L 114.0 181.0 L 122.0 185.0 L 130.0 189.0 L 136.0 192.0 " stroke="black" fill="none" stroke-width="5.0" stroke-linecap="round" stroke-linejoin="round" />
<path d="M 134.0 138.0 L 134.0 138.0 L 133.0 138.0 L 132.0 139.0 L 131.0 144.0 L 129.0 156.0 L 123.0 178.0 L 117.0 195.0 L 116.0 198.0 " stroke="black" fill="none" stroke-width="5.0" stroke-linecap="round" stroke-linejoin="round" />
<path d="M 103.0 156.0 L 103.0 156.0 L 103.0 156.0 L 103.0 155.0 L 106.0 155.0 L 117.0 155.0 L 134.0 155.0 L 141.0 155.0 " stroke="black" fill="none" stroke-width="5.0" stroke-linecap="round" stroke-linejoin="round" />
<path d="M 171.0 102.0 L 171.0 102.0 L 171.0 102.0 L 171.0 102.0 L 171.0 102.0 L 169.0 105.0 L 164.0 110.0 L 159.0 115.0 " stroke="black" fill="none" stroke-width="5.0" stroke-linecap="round" stroke-linejoin="round" />
<path d="M 147.0 131.0 L 147.0 131.0 L 147.0 131.0 L 147.0 132.0 L 149.0 132.0 L 154.0 130.0 L 163.0 130.0 L 174.0 129.0 L 185.0 129.0 L 187.0 128.0 " stroke="black" fill="none" stroke-width="5.0" stroke-linecap="round" stroke-linejoin="round" />
<path d="M 168.0 115.0 L 168.0 115.0 L 168.0 115.0 L 168.0 115.0 L 168.0 117.0 L 166.0 120.0 L 162.0 126.0 L 154.0 137.0 L 146.0 148.0 L 143.0 152.0 " stroke="black" fill="none" stroke-width="5.0" stroke-linecap="round" stroke-linejoin="round" />
<path d="M 173.0 129.0 L 173.0 129.0 L 173.0 129.0 L 174.0 129.0 L 175.0 130.0 L 178.0 133.0 L 184.0 139.0 L 191.0 146.0 L 195.0 151.0 " stroke="black" fill="none" stroke-width="5.0" stroke-linecap="round" stroke-linejoin="round" />
<path d="M 158.0 145.0 L 158.0 145.0 L 158.0 145.0 L 158.0 145.0 L 158.0 145.0 L 158.0 145.0 L 158.0 147.0 L 159.0 150.0 L 159.0 152.0 " stroke="black" fill="none" stroke-width="5.0" stroke-linecap="round" stroke-linejoin="round" />
<path d="M 159.0 144.0 L 160.0 144.0 L 160.0 143.0 L 161.0 143.0 L 162.0 142.0 L 164.0 142.0 L 167.0 142.0 L 171.0 142.0 L 175.0 143.0 L 178.0 144.0 L 180.0 147.0 L 181.0 150.0 L 181.0 153.0 L 181.0 154.0 " stroke="black" fill="none" stroke-width="5.0" stroke-linecap="round" stroke-linejoin="round" />
<path d="M 161.0 156.0 L 161.0 157.0 L 161.0 158.0 L 163.0 158.0 L 167.0 159.0 L 173.0 160.0 L 176.0 160.0 " stroke="black" fill="none" stroke-width="5.0" stroke-linecap="round" stroke-linejoin="round" />
<path d="M 151.0 168.0 L 151.0 168.0 L 150.0 168.0 L 150.0 168.0 L 150.0 168.0 L 150.0 168.0 L 150.0 171.0 L 150.0 180.0 L 151.0 190.0 L 152.0 196.0 L 152.0 198.0 " stroke="black" fill="none" stroke-width="5.0" stroke-linecap="round" stroke-linejoin="round" />
<path d="M 151.0 172.0 L 151.0 172.0 L 151.0 172.0 L 152.0 172.0 L 153.0 172.0 L 158.0 172.0 L 167.0 172.0 L 177.0 172.0 L 184.0 173.0 L 190.0 175.0 L 193.0 177.0 L 195.0 178.0 L 196.0 180.0 L 197.0 186.0 L 198.0 193.0 L 199.0 201.0 L 200.0 207.0 L 200.0 209.0 L 198.0 210.0 L 194.0 210.0 L 189.0 210.0 L 185.0 209.0 " stroke="black" fill="none" stroke-width="5.0" stroke-linecap="round" stroke-linejoin="round" />
<path d="M 163.0 184.0 L 163.0 184.0 L 163.0 184.0 L 163.0 184.0 L 163.0 184.0 L 163.0 186.0 L 164.0 188.0 L 165.0 190.0 " stroke="black" fill="none" stroke-width="5.0" stroke-linecap="round" stroke-linejoin="round" />
<path d="M 163.0 185.0 L 163.0 185.0 L 163.0 185.0 L 164.0 185.0 L 167.0 185.0 L 172.0 184.0 L 177.0 184.0 L 181.0 186.0 L 183.0 189.0 L 184.0 191.0 L 184.0 193.0 " stroke="black" fill="none" stroke-width="5.0" stroke-linecap="round" stroke-linejoin="round" />
<path d="M 166.0 196.0 L 166.0 196.0 L 167.0 196.0 L 167.0 197.0 L 170.0 197.0 L 174.0 199.0 L 177.0 200.0 " stroke="black" fill="none" stroke-width="5.0" stroke-linecap="round" stroke-linejoin="round" />
</svg>