<svg xmlns="http://www.w3.org/2000/svg" width="300" height="300" viewBox="0 0 300 300">
<path d="M 120.0 116.0 L 120.0 116.0 L 120.0 116.0 L 120.0 116.0 L 120.0 117.0 L 122.0 117.0 L 126.0 117.0 L 131.0 117.0 L 135.0 117.0 L 138.0 118.0 L 138.0 120.0 L 137.0 123.0 L 134.0 126.0 L 127.0 131.0 L 124.0 133.0 L 123.0 136.0 L 124.0 140.0 L 126.0 147.0 L 130.0 155.0 L 132.0 165.0 L 135.0 175.0 L 136.0 184.0 L 136.0 189.0 L 136.0 190.0 L 135.0 190.0 L 130.0 189.0 L 123.0 185.0 L 121.0 184.0 " stroke="black" fill="none" stroke-width="5.0" stroke-linecap="round" stroke-linejoin="round" />
<path d="M 110.0 160.0 L 110.0 160.0 L 112.0 160.0 L 116.0 160.0 L 126.0 158.0 L 138.0 154.0 L 143.0 153.0 " stroke="black" fill="none" stroke-width="5.0" stroke-linecap="round" stroke-linejoin="round" />
<path d="M 160.0 114.0 L 160.0 114.0 L 160.0 114.0 L 160.0 114.0 L 160.0 115.0 L 159.0 118.0 L 156.0 122.0 L 152.0 127.0 " stroke="black" fill="none" stroke-width="5.0" stroke-linecap="round" stroke-linejoin="round" />
<path d="M 169.0 119.0 L 169.0 120.0 L 169.0 120.0 L 169.0 121.0 L 169.0 121.0 L 169.0 122.0 L 168.0 124.0 L 165.0 127.0 L 161.0 131.0 L 158.0 134.0 L 156.0 137.0 L 156.0 139.0 L 159.0 140.0 L 163.0 140.0 L 167.0 140.0 L 167.0 140.0 " stroke="black" fill="none" stroke-width="5.0" stroke-linecap="round" stroke-linejoin="round" />
<path d="M 177.0 131.0 L 177.0 131.0 L 177.0 132.0 L 177.0 133.0 L 176.0 135.0 L 174.0 137.0 L 171.0 141.0 L 165.0 146.0 L 159.0 151.0 L 155.0 155.0 L 155.0 157.0 L 161.0 157.0 L 170.0 155.0 L 177.0 153.0 L 181.0 153.0 " stroke="black" fill="none" stroke-width="5.0" stroke-linecap="round" stroke-linejoin="round" />
<path d="M 182.0 149.0 L 182.0 149.0 L 182.0 149.0 L 182.0 149.0 L 182.0 151.0 L 185.0 155.0 L 187.0 159.0 " stroke="black" fill="none" stroke-width="5.0" stroke-linecap="round" stroke-linejoin="round" />
<path d="M 166.0 160.0 L 166.0 160.0 L 167.0 159.0 L 167.0 159.0 L 168.0 160.0 L 169.0 168.0 L 170.0 178.0 L 171.0 188.0 L 171.0 194.0 L 171.0 195.0 L 168.0 195.0 L 163.0 192.0 L 158.0 188.0 " stroke="black" fill="none" stroke-width="5.0" stroke-linecap="round" stroke-linejoin="round" />
<path d="M 154.0 170.0 L 154.0 170.0 L 154.0 170.0 L 154.0 170.0 L 154.0 171.0 L 152.0 176.0 L 149.0 183.0 L 148.0 185.0 " stroke="black" fill="none" stroke-width="5.0" stroke-linecap="round" stroke-linejoin="round" />
<path d="M 181.0 175.0 L 183.0 175.0 L 186.0 175.0 L 189.0 179.0 L 193.0 187.0 L 197.0 196.0 L 198.0 200.0 " stroke="black" fill="none" stroke-width="5.0" stroke-linecap="round" stroke-linejoin="round" />
</svg>