<svg xmlns="http://www.w3.org/2000/svg" width="300" height="300" viewBox="0 0 300 300">
<path d="M 113.0 118.0 L 113.0 120.0 L 113.0 123.0 L 113.0 126.0 L 113.0 128.0 " stroke="black" fill="none" stroke-width="5.0" stroke-linecap="round" stroke-linejoin="round" />
<path d="M 113.0 115.0 L 113.0 115.0 L 113.0 115.0 L 113.0 115.0 L 114.0 115.0 L 119.0 115.0 L 129.0 114.0 L 142.0 112.0 L 154.0 111.0 L 163.0 111.0 L 170.0 111.0 L 175.0 111.0 L 178.0 112.0 L 179.0 114.0 L 180.0 116.0 L 180.0 120.0 L 180.0 124.0 L 180.0 126.0 " stroke="black" fill="none" stroke-width="5.0" stroke-linecap="round" stroke-linejoin="round" />
<path d="M 147.0 99.0 L 147.0 99.0 L 146.0 99.0 L 146.0 102.0 L 147.0 105.0 " stroke="black" fill="none" stroke-width="5.0" stroke-linecap="round" stroke-linejoin="round" />
<path d="M 129.0 133.0 L 130.0 133.0 L 130.0 134.0 L 131.0 135.0 L 132.0 140.0 L 132.0 145.0 L 133.0 149.0 L 133.0 150.0 " stroke="black" fill="none" stroke-width="5.0" stroke-linecap="round" stroke-linejoin="round" />
<path d="M 130.0 133.0 L 130.0 133.0 L 130.0 133.0 L 132.0 133.0 L 139.0 133.0 L 147.0 133.0 L 153.0 133.0 L 157.0 133.0 L 159.0 135.0 L 160.0 138.0 L 160.0 143.0 L 161.0 148.0 L 161.0 149.0 " stroke="black" fill="none" stroke-width="5.0" stroke-linecap="round" stroke-linejoin="round" />
<path d="M 134.0 150.0 L 134.0 150.0 L 134.0 150.0 L 134.0 150.0 L 134.0 150.0 L 139.0 150.0 L 148.0 150.0 L 156.0 149.0 L 157.0 149.0 " stroke="black" fill="none" stroke-width="5.0" stroke-linecap="round" stroke-linejoin="round" />
<path d="M 147.0 155.0 L 147.0 155.0 L 147.0 155.0 L 147.0 155.0 L 147.0 155.0 L 147.0 156.0 L 143.0 160.0 L 138.0 166.0 L 137.0 167.0 " stroke="black" fill="none" stroke-width="5.0" stroke-linecap="round" stroke-linejoin="round" />
<path d="M 122.0 176.0 L 122.0 176.0 L 122.0 176.0 L 122.0 176.0 L 123.0 176.0 L 123.0 179.0 L 124.0 185.0 L 125.0 191.0 L 125.0 193.0 " stroke="black" fill="none" stroke-width="5.0" stroke-linecap="round" stroke-linejoin="round" />
<path d="M 124.0 175.0 L 124.0 175.0 L 123.0 175.0 L 122.0 175.0 L 122.0 175.0 L 125.0 175.0 L 130.0 175.0 L 138.0 174.0 L 148.0 173.0 L 159.0 173.0 L 167.0 172.0 L 171.0 172.0 L 172.0 172.0 L 172.0 173.0 L 172.0 176.0 L 173.0 181.0 L 174.0 188.0 L 174.0 194.0 L 174.0 198.0 " stroke="black" fill="none" stroke-width="5.0" stroke-linecap="round" stroke-linejoin="round" />
<path d="M 130.0 200.0 L 130.0 200.0 L 129.0 201.0 L 128.0 201.0 L 129.0 201.0 L 137.0 202.0 L 150.0 202.0 L 162.0 202.0 L 170.0 202.0 " stroke="black" fill="none" stroke-width="5.0" stroke-linecap="round" stroke-linejoin="round" />
</svg>