<svg xmlns="http://www.w3.org/2000/svg" width="300" height="300" viewBox="0 0 300 300">
<path d="M 119.0 122.0 L 119.0 122.0 L 121.0 123.0 L 121.0 123.0 L 121.0 124.0 L 121.0 126.0 L 122.0 130.0 L 122.0 135.0 L 122.0 136.0 " stroke="black" fill="none" stroke-width="5.0" stroke-linecap="round" stroke-linejoin="round" />
<path d="M 122.0 117.0 L 122.0 117.0 L 123.0 117.0 L 128.0 117.0 L 138.0 115.0 L 152.0 112.0 L 165.0 110.0 L 176.0 110.0 L 183.0 110.0 L 188.0 110.0 L 192.0 110.0 L 194.0 111.0 L 196.0 113.0 L 197.0 117.0 L 197.0 123.0 L 197.0 130.0 L 196.0 134.0 " stroke="black" fill="none" stroke-width="5.0" stroke-linecap="round" stroke-linejoin="round" />
<path d="M 155.0 97.0 L 155.0 97.0 L 155.0 98.0 L 156.0 102.0 L 158.0 110.0 " stroke="black" fill="none" stroke-width="5.0" stroke-linecap="round" stroke-linejoin="round" />
<path d="M 141.0 131.0 L 141.0 131.0 L 141.0 131.0 L 140.0 131.0 L 140.0 133.0 L 139.0 135.0 L 137.0 140.0 L 133.0 145.0 " stroke="black" fill="none" stroke-width="5.0" stroke-linecap="round" stroke-linejoin="round" />
<path d="M 148.0 138.0 L 148.0 138.0 L 148.0 138.0 L 148.0 139.0 L 148.0 140.0 L 147.0 142.0 L 146.0 145.0 L 146.0 149.0 L 146.0 152.0 L 148.0 154.0 L 155.0 154.0 L 165.0 153.0 L 174.0 152.0 L 180.0 151.0 L 182.0 150.0 L 182.0 149.0 L 180.0 147.0 " stroke="black" fill="none" stroke-width="5.0" stroke-linecap="round" stroke-linejoin="round" />
<path d="M 158.0 128.0 L 158.0 128.0 L 158.0 128.0 L 159.0 129.0 L 160.0 133.0 L 163.0 137.0 " stroke="black" fill="none" stroke-width="5.0" stroke-linecap="round" stroke-linejoin="round" />
<path d="M 182.0 130.0 L 183.0 131.0 L 184.0 134.0 L 185.0 136.0 L 186.0 137.0 " stroke="black" fill="none" stroke-width="5.0" stroke-linecap="round" stroke-linejoin="round" />
<path d="M 176.0 125.0 L 176.0 125.0 L 175.0 127.0 L 174.0 129.0 L 172.0 134.0 L 167.0 142.0 L 157.0 154.0 L 146.0 167.0 " stroke="black" fill="none" stroke-width="5.0" stroke-linecap="round" stroke-linejoin="round" />
<path d="M 136.0 180.0 L 135.0 180.0 L 135.0 181.0 L 135.0 182.0 L 135.0 185.0 L 135.0 189.0 L 135.0 194.0 L 136.0 198.0 L 138.0 200.0 L 145.0 200.0 L 154.0 199.0 L 164.0 198.0 L 172.0 198.0 L 177.0 198.0 L 178.0 198.0 " stroke="black" fill="none" stroke-width="5.0" stroke-linecap="round" stroke-linejoin="round" />
<path d="M 158.0 166.0 L 158.0 166.0 L 159.0 167.0 L 160.0 169.0 L 160.0 173.0 L 161.0 182.0 L 161.0 190.0 " stroke="black" fill="none" stroke-width="5.0" stroke-linecap="round" stroke-linejoin="round" />
<path d="M 185.0 175.0 L 185.0 175.0 L 185.0 176.0 L 185.0 179.0 L 185.0 186.0 L 185.0 194.0 L 185.0 196.0 " stroke="black" fill="none" stroke-width="5.0" stroke-linecap="round" stroke-linejoin="round" />
</svg>