<svg xmlns="http://www.w3.org/2000/svg" width="300" height="300" viewBox="0 0 300 300">
<path d="M 123.0 117.0 L 123.0 117.0 L 123.0 117.0 L 123.0 117.0 L 123.0 119.0 L 123.0 123.0 L 124.0 128.0 L 124.0 130.0 " stroke="black" fill="none" stroke-width="5.0" stroke-linecap="round" stroke-linejoin="round" />
<path d="M 124.0 116.0 L 124.0 116.0 L 125.0 116.0 L 126.0 116.0 L 130.0 116.0 L 140.0 116.0 L 154.0 114.0 L 171.0 112.0 L 182.0 111.0 L 189.0 111.0 L 192.0 112.0 L 193.0 116.0 L 193.0 121.0 L 193.0 126.0 L 192.0 130.0 L 191.0 131.0 " stroke="black" fill="none" stroke-width="5.0" stroke-linecap="round" stroke-linejoin="round" />
<path d="M 158.0 99.0 L 158.0 99.0 L 158.0 98.0 L 158.0 100.0 L 159.0 106.0 L 160.0 107.0 " stroke="black" fill="none" stroke-width="5.0" stroke-linecap="round" stroke-linejoin="round" />
<path d="M 145.0 134.0 L 145.0 134.0 L 144.0 133.0 L 143.0 132.0 L 143.0 132.0 L 143.0 132.0 L 144.0 135.0 L 146.0 139.0 L 147.0 140.0 " stroke="black" fill="none" stroke-width="5.0" stroke-linecap="round" stroke-linejoin="round" />
<path d="M 129.0 148.0 L 129.0 148.0 L 130.0 148.0 L 130.0 148.0 L 131.0 148.0 L 135.0 148.0 L 143.0 148.0 L 150.0 147.0 L 154.0 147.0 L 154.0 148.0 " stroke="black" fill="none" stroke-width="5.0" stroke-linecap="round" stroke-linejoin="round" />
<path d="M 134.0 150.0 L 134.0 150.0 L 134.0 150.0 L 134.0 150.0 L 134.0 153.0 L 135.0 157.0 L 135.0 159.0 " stroke="black" fill="none" stroke-width="5.0" stroke-linecap="round" stroke-linejoin="round" />
<path d="M 147.0 149.0 L 147.0 150.0 L 146.0 151.0 L 146.0 152.0 L 145.0 154.0 L 145.0 157.0 L 145.0 158.0 " stroke="black" fill="none" stroke-width="5.0" stroke-linecap="round" stroke-linejoin="round" />
<path d="M 122.0 163.0 L 122.0 163.0 L 124.0 163.0 L 127.0 163.0 L 135.0 163.0 L 145.0 162.0 L 153.0 162.0 L 155.0 162.0 " stroke="black" fill="none" stroke-width="5.0" stroke-linecap="round" stroke-linejoin="round" />
<path d="M 131.0 177.0 L 131.0 177.0 L 131.0 176.0 L 131.0 176.0 L 131.0 176.0 L 131.0 178.0 L 130.0 185.0 L 129.0 194.0 L 127.0 203.0 L 127.0 207.0 L 127.0 207.0 " stroke="black" fill="none" stroke-width="5.0" stroke-linecap="round" stroke-linejoin="round" />
<path d="M 130.0 175.0 L 130.0 175.0 L 131.0 174.0 L 132.0 173.0 L 134.0 173.0 L 136.0 172.0 L 138.0 172.0 L 141.0 172.0 L 144.0 173.0 L 147.0 175.0 L 150.0 178.0 L 152.0 184.0 L 154.0 191.0 L 155.0 198.0 L 155.0 204.0 L 155.0 207.0 L 155.0 208.0 L 152.0 209.0 L 148.0 209.0 L 142.0 207.0 " stroke="black" fill="none" stroke-width="5.0" stroke-linecap="round" stroke-linejoin="round" />
<path d="M 133.0 183.0 L 133.0 183.0 L 134.0 182.0 L 135.0 182.0 L 137.0 182.0 L 141.0 182.0 L 145.0 183.0 L 147.0 184.0 " stroke="black" fill="none" stroke-width="5.0" stroke-linecap="round" stroke-linejoin="round" />
<path d="M 130.0 193.0 L 131.0 193.0 L 132.0 193.0 L 135.0 194.0 L 139.0 194.0 L 144.0 195.0 " stroke="black" fill="none" stroke-width="5.0" stroke-linecap="round" stroke-linejoin="round" />
<path d="M 164.0 136.0 L 164.0 136.0 L 165.0 135.0 L 165.0 135.0 L 166.0 136.0 L 166.0 138.0 L 166.0 141.0 L 166.0 144.0 L 166.0 146.0 L 166.0 147.0 L 168.0 148.0 L 171.0 148.0 L 174.0 147.0 L 178.0 147.0 L 181.0 147.0 L 183.0 149.0 L 184.0 150.0 L 184.0 153.0 L 184.0 155.0 L 182.0 157.0 L 181.0 158.0 L 178.0 159.0 L 174.0 159.0 L 170.0 159.0 L 166.0 158.0 L 164.0 158.0 L 164.0 158.0 L 164.0 158.0 L 165.0 159.0 L 166.0 163.0 L 167.0 170.0 L 167.0 179.0 L 169.0 189.0 L 171.0 196.0 L 174.0 202.0 L 178.0 206.0 L 184.0 207.0 L 190.0 206.0 L 195.0 200.0 " stroke="black" fill="none" stroke-width="5.0" stroke-linecap="round" stroke-linejoin="round" />
<path d="M 168.0 170.0 L 168.0 170.0 L 169.0 170.0 L 170.0 170.0 L 173.0 170.0 L 178.0 169.0 L 181.0 168.0 L 182.0 168.0 " stroke="black" fill="none" stroke-width="5.0" stroke-linecap="round" stroke-linejoin="round" />
<path d="M 169.0 181.0 L 169.0 181.0 L 171.0 181.0 L 173.0 181.0 L 176.0 181.0 L 180.0 181.0 L 182.0 181.0 " stroke="black" fill="none" stroke-width="5.0" stroke-linecap="round" stroke-linejoin="round" />
<path d="M 171.0 192.0 L 172.0 192.0 L 174.0 192.0 L 178.0 192.0 L 184.0 191.0 " stroke="black" fill="none" stroke-width="5.0" stroke-linecap="round" stroke-linejoin="round" />
<path d="M 164.0 138.0 L 165.0 138.0 L 167.0 138.0 L 170.0 138.0 L 175.0 138.0 L 182.0 138.0 L 184.0 138.0 " stroke="black" fill="none" stroke-width="5.0" stroke-linecap="round" stroke-linejoin="round" />
</svg>