<svg xmlns="http://www.w3.org/2000/svg" width="300" height="300" viewBox="0 0 300 300">
<path d="M 117.0 118.0 L 117.0 118.0 L 117.0 118.0 L 117.0 118.0 L 117.0 121.0 L 117.0 125.0 L 117.0 127.0 " stroke="black" fill="none" stroke-width="5.0" stroke-linecap="round" stroke-linejoin="round" />
<path d="M 117.0 114.0 L 117.0 114.0 L 117.0 115.0 L 118.0 115.0 L 123.0 115.0 L 132.0 114.0 L 145.0 112.0 L 156.0 111.0 L 165.0 110.0 L 173.0 109.0 L 180.0 108.0 L 185.0 108.0 L 186.0 108.0 L 186.0 111.0 L 186.0 114.0 L 186.0 119.0 L 186.0 125.0 L 184.0 130.0 " stroke="black" fill="none" stroke-width="5.0" stroke-linecap="round" stroke-linejoin="round" />
<path d="M 149.0 98.0 L 150.0 98.0 L 150.0 98.0 L 150.0 100.0 L 151.0 107.0 L 152.0 109.0 " stroke="black" fill="none" stroke-width="5.0" stroke-linecap="round" stroke-linejoin="round" />
<path d="M 122.0 146.0 L 122.0 146.0 L 122.0 146.0 L 122.0 146.0 L 122.0 149.0 L 119.0 156.0 L 115.0 164.0 L 110.0 170.0 " stroke="black" fill="none" stroke-width="5.0" stroke-linecap="round" stroke-linejoin="round" />
<path d="M 134.0 161.0 L 134.0 162.0 L 133.0 163.0 L 132.0 164.0 L 131.0 166.0 L 131.0 168.0 L 132.0 172.0 L 136.0 174.0 L 144.0 176.0 L 154.0 176.0 L 165.0 175.0 L 176.0 174.0 L 182.0 172.0 L 184.0 171.0 L 184.0 170.0 L 184.0 168.0 L 181.0 166.0 L 175.0 160.0 " stroke="black" fill="none" stroke-width="5.0" stroke-linecap="round" stroke-linejoin="round" />
<path d="M 149.0 142.0 L 149.0 142.0 L 148.0 142.0 L 148.0 143.0 L 148.0 146.0 L 150.0 149.0 " stroke="black" fill="none" stroke-width="5.0" stroke-linecap="round" stroke-linejoin="round" />
<path d="M 180.0 147.0 L 180.0 148.0 L 181.0 149.0 L 182.0 151.0 L 185.0 154.0 " stroke="black" fill="none" stroke-width="5.0" stroke-linecap="round" stroke-linejoin="round" />
<path d="M 168.0 139.0 L 168.0 139.0 L 168.0 140.0 L 168.0 142.0 L 166.0 147.0 L 159.0 157.0 L 147.0 173.0 L 129.0 189.0 L 120.0 194.0 " stroke="black" fill="none" stroke-width="5.0" stroke-linecap="round" stroke-linejoin="round" />
</svg>