<svg xmlns="http://www.w3.org/2000/svg" width="300" height="300" viewBox="0 0 300 300">
<path d="M 120.71428571428574 116.42857142857146 L 120.71428571428574 116.42857142857146 L 120.00000000000001 117.14285714285718 L 120.00000000000001 117.85714285714288 L 120.00000000000001 120.00000000000001 L 120.00000000000001 121.42857142857146 " stroke="black" fill="none" stroke-width="5.0" stroke-linecap="round" stroke-linejoin="round" />
<path d="M 124.28571428571432 114.28571428571432 L 125.00000000000001 114.28571428571432 L 125.71428571428574 114.28571428571432 L 127.14285714285718 113.5714285714286 L 130.00000000000006 113.5714285714286 L 136.42857142857144 112.85714285714288 L 145.71428571428572 112.14285714285718 L 155.00000000000006 111.42857142857146 L 163.5714285714286 110.71428571428574 L 172.14285714285717 109.28571428571432 L 178.5714285714286 109.28571428571432 L 182.14285714285717 109.28571428571432 L 182.8571428571429 109.28571428571432 L 182.8571428571429 110.00000000000001 L 182.8571428571429 111.42857142857146 L 182.8571428571429 113.5714285714286 L 182.14285714285717 116.42857142857146 L 181.42857142857144 119.28571428571432 L 180.71428571428578 120.00000000000001 " stroke="black" fill="none" stroke-width="5.0" stroke-linecap="round" stroke-linejoin="round" />
<path d="M 149.28571428571433 96.42857142857146 L 149.28571428571433 96.42857142857146 L 149.28571428571433 96.42857142857146 L 149.28571428571433 96.42857142857146 L 150.71428571428572 100.00000000000001 L 152.14285714285717 104.28571428571432 " stroke="black" fill="none" stroke-width="5.0" stroke-linecap="round" stroke-linejoin="round" />
<path d="M 142.14285714285717 127.14285714285718 L 142.14285714285717 127.14285714285718 L 142.14285714285717 127.14285714285718 L 141.42857142857144 127.14285714285718 L 141.42857142857144 127.14285714285718 L 140.71428571428572 130.00000000000006 L 137.8571428571429 138.5714285714286 L 131.42857142857144 151.42857142857144 L 124.28571428571432 163.5714285714286 L 119.28571428571432 172.14285714285717 " stroke="black" fill="none" stroke-width="5.0" stroke-linecap="round" stroke-linejoin="round" />
<path d="M 132.8571428571429 153.5714285714286 L 132.8571428571429 154.28571428571433 L 132.8571428571429 157.14285714285717 L 132.8571428571429 162.8571428571429 L 132.8571428571429 172.14285714285717 L 134.28571428571433 182.8571428571429 L 135.71428571428572 190.71428571428578 L 135.71428571428572 191.42857142857144 " stroke="black" fill="none" stroke-width="5.0" stroke-linecap="round" stroke-linejoin="round" />
<path d="M 152.14285714285717 133.5714285714286 L 152.14285714285717 133.5714285714286 L 152.14285714285717 133.5714285714286 L 153.5714285714286 132.8571428571429 L 158.5714285714286 131.42857142857144 L 167.14285714285717 130.00000000000006 L 173.5714285714286 130.00000000000006 L 177.8571428571429 130.00000000000006 " stroke="black" fill="none" stroke-width="5.0" stroke-linecap="round" stroke-linejoin="round" />
<path d="M 169.28571428571433 132.8571428571429 L 169.28571428571433 132.8571428571429 L 167.14285714285717 134.28571428571433 L 164.28571428571433 136.42857142857144 L 160.00000000000006 140.71428571428572 L 154.28571428571433 146.42857142857144 L 152.8571428571429 147.14285714285717 " stroke="black" fill="none" stroke-width="5.0" stroke-linecap="round" stroke-linejoin="round" />
<path d="M 147.14285714285717 152.14285714285717 L 146.42857142857144 152.14285714285717 L 145.71428571428572 152.8571428571429 L 145.00000000000006 153.5714285714286 L 145.71428571428572 156.42857142857144 L 147.8571428571429 162.8571428571429 L 148.5714285714286 173.5714285714286 L 149.28571428571433 184.28571428571433 L 150.00000000000006 190.00000000000006 " stroke="black" fill="none" stroke-width="5.0" stroke-linecap="round" stroke-linejoin="round" />
<path d="M 152.14285714285717 149.28571428571433 L 152.14285714285717 149.28571428571433 L 152.14285714285717 149.28571428571433 L 152.14285714285717 149.28571428571433 L 153.5714285714286 149.28571428571433 L 157.14285714285717 148.5714285714286 L 162.8571428571429 147.8571428571429 L 167.8571428571429 146.42857142857144 L 172.14285714285717 146.42857142857144 L 175.00000000000006 147.14285714285717 L 177.14285714285717 151.42857142857144 L 178.5714285714286 158.5714285714286 L 180.71428571428578 168.5714285714286 L 182.8571428571429 179.28571428571433 L 184.28571428571433 186.42857142857144 L 184.28571428571433 188.5714285714286 L 184.28571428571433 188.5714285714286 " stroke="black" fill="none" stroke-width="5.0" stroke-linecap="round" stroke-linejoin="round" />
<path d="M 155.00000000000006 164.28571428571433 L 155.00000000000006 164.28571428571433 L 155.00000000000006 165.00000000000006 L 155.71428571428572 165.71428571428572 L 159.28571428571433 165.00000000000006 L 167.14285714285717 164.28571428571433 L 174.28571428571433 164.28571428571433 L 177.8571428571429 164.28571428571433 " stroke="black" fill="none" stroke-width="5.0" stroke-linecap="round" stroke-linejoin="round" />
<path d="M 151.42857142857144 187.8571428571429 L 151.42857142857144 188.5714285714286 L 152.14285714285717 190.00000000000006 L 155.71428571428572 190.71428571428578 L 164.28571428571433 190.71428571428578 L 175.00000000000006 190.00000000000006 L 182.14285714285717 189.28571428571433 " stroke="black" fill="none" stroke-width="5.0" stroke-linecap="round" stroke-linejoin="round" />
</svg>