<svg xmlns="http://www.w3.org/2000/svg" width="300" height="300" viewBox="0 0 300 300">
<path d="M 122.85714285714288 122.14285714285718 L 122.85714285714288 122.14285714285718 L 122.85714285714288 122.14285714285718 L 123.5714285714286 122.14285714285718 L 123.5714285714286 121.42857142857146 L 123.5714285714286 121.42857142857146 L 123.5714285714286 124.28571428571432 L 123.5714285714286 129.28571428571433 L 124.28571428571432 132.14285714285717 " stroke="black" fill="none" stroke-width="5.0" stroke-linecap="round" stroke-linejoin="round" />
<path d="M 122.14285714285718 120.00000000000001 L 122.14285714285718 120.00000000000001 L 122.14285714285718 120.00000000000001 L 123.5714285714286 120.00000000000001 L 127.85714285714288 119.28571428571432 L 137.8571428571429 117.14285714285718 L 148.5714285714286 115.71428571428574 L 158.5714285714286 114.28571428571432 L 168.5714285714286 113.5714285714286 L 176.42857142857144 112.14285714285718 L 179.28571428571433 112.14285714285718 L 179.28571428571433 112.85714285714288 L 179.28571428571433 116.42857142857146 L 179.28571428571433 120.71428571428574 L 179.28571428571433 125.00000000000001 L 179.28571428571433 129.28571428571433 " stroke="black" fill="none" stroke-width="5.0" stroke-linecap="round" stroke-linejoin="round" />
<path d="M 148.5714285714286 97.14285714285715 L 148.5714285714286 97.85714285714288 L 148.5714285714286 98.5714285714286 L 150.71428571428572 103.5714285714286 L 151.42857142857144 107.85714285714288 " stroke="black" fill="none" stroke-width="5.0" stroke-linecap="round" stroke-linejoin="round" />
<path d="M 140.00000000000006 137.8571428571429 L 140.00000000000006 137.8571428571429 L 141.42857142857144 137.14285714285717 L 143.5714285714286 137.14285714285717 L 147.14285714285717 137.14285714285717 L 151.42857142857144 137.14285714285717 L 153.5714285714286 137.14285714285717 L 155.00000000000006 137.8571428571429 L 154.28571428571433 139.28571428571433 L 151.42857142857144 142.14285714285717 L 148.5714285714286 145.71428571428572 L 146.42857142857144 150.00000000000006 L 146.42857142857144 155.00000000000006 L 148.5714285714286 160.71428571428572 L 152.8571428571429 167.14285714285717 L 157.14285714285717 173.5714285714286 L 160.71428571428572 178.5714285714286 L 162.14285714285717 182.8571428571429 L 162.14285714285717 185.00000000000006 L 158.5714285714286 186.42857142857144 L 153.5714285714286 187.14285714285717 L 148.5714285714286 186.42857142857144 L 147.8571428571429 186.42857142857144 " stroke="black" fill="none" stroke-width="5.0" stroke-linecap="round" stroke-linejoin="round" />
<path d="M 124.28571428571432 170.71428571428572 L 124.28571428571432 170.71428571428572 L 125.00000000000001 170.71428571428572 L 130.00000000000006 170.00000000000006 L 143.5714285714286 167.14285714285717 L 172.14285714285717 161.42857142857144 L 180.00000000000006 160.71428571428572 L 182.14285714285717 160.71428571428572 " stroke="black" fill="none" stroke-width="5.0" stroke-linecap="round" stroke-linejoin="round" />
</svg>