<svg xmlns="http://www.w3.org/2000/svg" width="300" height="300" viewBox="0 0 300 300">
<path d="M 113.0 112.0 L 113.0 112.0 L 113.0 112.0 L 113.0 114.0 L 113.0 117.0 L 114.0 118.0 " stroke="black" fill="none" stroke-width="5.0" stroke-linecap="round" stroke-linejoin="round" />
<path d="M 114.0 110.0 L 114.0 110.0 L 115.0 110.0 L 117.0 110.0 L 122.0 109.0 L 134.0 106.0 L 147.0 104.0 L 158.0 103.0 L 167.0 103.0 L 175.0 104.0 L 182.0 105.0 L 186.0 106.0 L 187.0 107.0 L 187.0 110.0 L 187.0 114.0 L 187.0 118.0 L 187.0 120.0 " stroke="black" fill="none" stroke-width="5.0" stroke-linecap="round" stroke-linejoin="round" />
<path d="M 150.0 92.0 L 150.0 92.0 L 150.0 91.0 L 149.0 91.0 L 149.0 93.0 L 151.0 99.0 " stroke="black" fill="none" stroke-width="5.0" stroke-linecap="round" stroke-linejoin="round" />
<path d="M 138.0 122.0 L 138.0 122.0 L 139.0 122.0 L 142.0 122.0 L 148.0 122.0 L 156.0 120.0 L 162.0 120.0 L 164.0 120.0 " stroke="black" fill="none" stroke-width="5.0" stroke-linecap="round" stroke-linejoin="round" />
<path d="M 132.0 138.0 L 132.0 138.0 L 132.0 138.0 L 133.0 138.0 L 134.0 140.0 L 135.0 144.0 L 136.0 147.0 L 136.0 148.0 " stroke="black" fill="none" stroke-width="5.0" stroke-linecap="round" stroke-linejoin="round" />
<path d="M 134.0 135.0 L 134.0 134.0 L 135.0 133.0 L 138.0 133.0 L 143.0 133.0 L 152.0 133.0 L 161.0 132.0 L 167.0 133.0 L 169.0 137.0 L 170.0 143.0 L 169.0 147.0 L 168.0 151.0 " stroke="black" fill="none" stroke-width="5.0" stroke-linecap="round" stroke-linejoin="round" />
<path d="M 136.0 152.0 L 136.0 152.0 L 136.0 152.0 L 138.0 152.0 L 144.0 152.0 L 155.0 151.0 L 164.0 151.0 L 166.0 151.0 " stroke="black" fill="none" stroke-width="5.0" stroke-linecap="round" stroke-linejoin="round" />
<path d="M 124.0 168.0 L 124.0 168.0 L 124.0 168.0 L 124.0 169.0 L 124.0 170.0 L 124.0 174.0 L 125.0 183.0 L 126.0 191.0 L 127.0 194.0 " stroke="black" fill="none" stroke-width="5.0" stroke-linecap="round" stroke-linejoin="round" />
<path d="M 126.0 169.0 L 126.0 169.0 L 126.0 169.0 L 128.0 169.0 L 132.0 169.0 L 141.0 167.0 L 152.0 165.0 L 161.0 165.0 L 169.0 164.0 L 175.0 165.0 L 179.0 166.0 L 181.0 169.0 L 182.0 176.0 L 183.0 185.0 L 183.0 194.0 L 183.0 199.0 L 184.0 201.0 " stroke="black" fill="none" stroke-width="5.0" stroke-linecap="round" stroke-linejoin="round" />
<path d="M 136.0 189.0 L 136.0 189.0 L 136.0 189.0 L 136.0 189.0 L 139.0 188.0 L 149.0 186.0 L 162.0 185.0 L 170.0 185.0 L 172.0 185.0 " stroke="black" fill="none" stroke-width="5.0" stroke-linecap="round" stroke-linejoin="round" />
<path d="M 151.0 168.0 L 151.0 168.0 L 151.0 169.0 L 151.0 172.0 L 151.0 181.0 L 152.0 192.0 L 153.0 198.0 " stroke="black" fill="none" stroke-width="5.0" stroke-linecap="round" stroke-linejoin="round" />
<path d="M 128.0 204.0 L 128.0 205.0 L 129.0 206.0 L 134.0 206.0 L 144.0 206.0 L 157.0 204.0 L 168.0 203.0 L 175.0 203.0 L 175.0 203.0 " stroke="black" fill="none" stroke-width="5.0" stroke-linecap="round" stroke-linejoin="round" />
</svg>