<svg xmlns="http://www.w3.org/2000/svg" width="300" height="300" viewBox="0 0 300 300">
<path d="M 114.0 123.0 L 114.0 123.0 L 115.0 123.0 L 116.0 123.0 L 116.0 123.0 L 116.0 126.0 L 117.0 130.0 L 117.0 134.0 " stroke="black" fill="none" stroke-width="5.0" stroke-linecap="round" stroke-linejoin="round" />
<path d="M 117.0 122.0 L 118.0 122.0 L 119.0 122.0 L 120.0 122.0 L 123.0 122.0 L 131.0 121.0 L 142.0 119.0 L 155.0 118.0 L 168.0 118.0 L 178.0 118.0 L 183.0 119.0 L 184.0 122.0 L 184.0 126.0 L 184.0 131.0 L 182.0 135.0 " stroke="black" fill="none" stroke-width="5.0" stroke-linecap="round" stroke-linejoin="round" />
<path d="M 141.0 105.0 L 141.0 104.0 L 140.0 104.0 L 140.0 104.0 L 142.0 110.0 L 143.0 112.0 " stroke="black" fill="none" stroke-width="5.0" stroke-linecap="round" stroke-linejoin="round" />
<path d="M 140.0 141.0 L 140.0 140.0 L 140.0 139.0 L 140.0 139.0 L 140.0 141.0 L 139.0 147.0 L 137.0 154.0 L 132.0 163.0 L 126.0 171.0 L 124.0 175.0 L 125.0 177.0 L 132.0 178.0 L 141.0 180.0 L 152.0 182.0 L 161.0 185.0 L 167.0 186.0 " stroke="black" fill="none" stroke-width="5.0" stroke-linecap="round" stroke-linejoin="round" />
<path d="M 155.0 145.0 L 156.0 144.0 L 156.0 143.0 L 157.0 143.0 L 157.0 143.0 L 156.0 149.0 L 153.0 162.0 L 148.0 179.0 L 143.0 192.0 L 143.0 194.0 " stroke="black" fill="none" stroke-width="5.0" stroke-linecap="round" stroke-linejoin="round" />
<path d="M 114.0 161.0 L 114.0 161.0 L 114.0 161.0 L 119.0 161.0 L 139.0 160.0 L 162.0 158.0 L 178.0 155.0 L 182.0 155.0 " stroke="black" fill="none" stroke-width="5.0" stroke-linecap="round" stroke-linejoin="round" />
</svg>