<svg xmlns="http://www.w3.org/2000/svg" width="300" height="300" viewBox="0 0 300 300">
<path d="M 119.0 120.0 L 120.0 120.0 L 121.0 120.0 L 121.0 119.0 L 121.0 119.0 L 121.0 123.0 L 121.0 128.0 L 121.0 132.0 L 121.0 132.0 " stroke="black" fill="none" stroke-width="5.0" stroke-linecap="round" stroke-linejoin="round" />
<path d="M 118.0 118.0 L 119.0 118.0 L 120.0 118.0 L 121.0 118.0 L 125.0 117.0 L 134.0 116.0 L 148.0 114.0 L 162.0 113.0 L 174.0 112.0 L 183.0 113.0 L 186.0 116.0 L 186.0 121.0 L 184.0 129.0 L 182.0 132.0 " stroke="black" fill="none" stroke-width="5.0" stroke-linecap="round" stroke-linejoin="round" />
<path d="M 152.0 99.0 L 152.0 99.0 L 152.0 99.0 L 152.0 100.0 L 152.0 107.0 L 153.0 112.0 " stroke="black" fill="none" stroke-width="5.0" stroke-linecap="round" stroke-linejoin="round" />
<path d="M 135.0 142.0 L 135.0 142.0 L 137.0 142.0 L 139.0 141.0 L 145.0 141.0 L 155.0 139.0 L 168.0 138.0 L 173.0 138.0 " stroke="black" fill="none" stroke-width="5.0" stroke-linecap="round" stroke-linejoin="round" />
<path d="M 153.0 144.0 L 153.0 144.0 L 153.0 147.0 L 153.0 150.0 L 153.0 156.0 L 155.0 165.0 L 157.0 173.0 L 159.0 178.0 L 159.0 179.0 " stroke="black" fill="none" stroke-width="5.0" stroke-linecap="round" stroke-linejoin="round" />
<path d="M 153.0 157.0 L 154.0 157.0 L 154.0 156.0 L 155.0 156.0 L 157.0 156.0 L 162.0 156.0 L 166.0 156.0 " stroke="black" fill="none" stroke-width="5.0" stroke-linecap="round" stroke-linejoin="round" />
<path d="M 136.0 161.0 L 136.0 161.0 L 136.0 161.0 L 136.0 161.0 L 136.0 162.0 L 136.0 169.0 L 133.0 179.0 L 129.0 189.0 " stroke="black" fill="none" stroke-width="5.0" stroke-linecap="round" stroke-linejoin="round" />
<path d="M 134.0 178.0 L 134.0 178.0 L 135.0 178.0 L 137.0 178.0 L 144.0 179.0 L 158.0 184.0 L 177.0 190.0 L 190.0 197.0 L 194.0 201.0 " stroke="black" fill="none" stroke-width="5.0" stroke-linecap="round" stroke-linejoin="round" />
</svg>