<svg xmlns="http://www.w3.org/2000/svg" width="300" height="300" viewBox="0 0 300 300">
<path d="M 116.0 116.0 L 117.0 117.0 L 118.0 119.0 L 118.0 122.0 L 119.0 125.0 L 119.0 126.0 " stroke="black" fill="none" stroke-width="5.0" stroke-linecap="round" stroke-linejoin="round" />
<path d="M 117.0 113.0 L 119.0 113.0 L 121.0 113.0 L 125.0 113.0 L 132.0 111.0 L 142.0 109.0 L 152.0 108.0 L 160.0 108.0 L 168.0 108.0 L 174.0 108.0 L 177.0 108.0 L 178.0 110.0 L 178.0 114.0 L 177.0 119.0 L 177.0 123.0 L 176.0 124.0 " stroke="black" fill="none" stroke-width="5.0" stroke-linecap="round" stroke-linejoin="round" />
<path d="M 142.0 99.0 L 142.0 99.0 L 142.0 99.0 L 142.0 100.0 L 143.0 103.0 L 144.0 108.0 " stroke="black" fill="none" stroke-width="5.0" stroke-linecap="round" stroke-linejoin="round" />
<path d="M 132.0 123.0 L 133.0 123.0 L 134.0 124.0 L 135.0 124.0 L 137.0 124.0 L 140.0 124.0 L 144.0 123.0 L 146.0 122.0 " stroke="black" fill="none" stroke-width="5.0" stroke-linecap="round" stroke-linejoin="round" />
<path d="M 127.0 135.0 L 128.0 135.0 L 130.0 135.0 L 133.0 134.0 L 137.0 134.0 L 141.0 133.0 L 143.0 134.0 " stroke="black" fill="none" stroke-width="5.0" stroke-linecap="round" stroke-linejoin="round" />
<path d="M 119.0 148.0 L 122.0 148.0 L 126.0 148.0 L 132.0 148.0 L 139.0 148.0 L 146.0 148.0 " stroke="black" fill="none" stroke-width="5.0" stroke-linecap="round" stroke-linejoin="round" />
<path d="M 132.0 128.0 L 132.0 128.0 L 132.0 128.0 L 133.0 129.0 L 134.0 134.0 L 135.0 140.0 L 135.0 142.0 " stroke="black" fill="none" stroke-width="5.0" stroke-linecap="round" stroke-linejoin="round" />
<path d="M 156.0 116.0 L 156.0 116.0 L 156.0 116.0 L 156.0 116.0 L 156.0 117.0 L 155.0 120.0 L 152.0 126.0 L 151.0 128.0 " stroke="black" fill="none" stroke-width="5.0" stroke-linecap="round" stroke-linejoin="round" />
<path d="M 152.0 126.0 L 153.0 126.0 L 154.0 126.0 L 156.0 126.0 L 158.0 126.0 L 161.0 126.0 L 163.0 126.0 L 165.0 126.0 L 165.0 126.0 " stroke="black" fill="none" stroke-width="5.0" stroke-linecap="round" stroke-linejoin="round" />
<path d="M 145.0 138.0 L 145.0 138.0 L 145.0 138.0 L 148.0 138.0 L 153.0 138.0 L 160.0 138.0 L 166.0 138.0 L 169.0 138.0 " stroke="black" fill="none" stroke-width="5.0" stroke-linecap="round" stroke-linejoin="round" />
<path d="M 157.0 128.0 L 157.0 128.0 L 157.0 128.0 L 157.0 129.0 L 157.0 132.0 L 157.0 136.0 L 157.0 140.0 " stroke="black" fill="none" stroke-width="5.0" stroke-linecap="round" stroke-linejoin="round" />
<path d="M 151.0 143.0 L 151.0 143.0 L 151.0 144.0 L 151.0 145.0 L 151.0 147.0 L 151.0 149.0 L 151.0 150.0 L 152.0 152.0 L 154.0 152.0 L 158.0 152.0 L 163.0 152.0 L 168.0 152.0 L 171.0 151.0 L 172.0 150.0 L 172.0 147.0 L 171.0 143.0 " stroke="black" fill="none" stroke-width="5.0" stroke-linecap="round" stroke-linejoin="round" />
<path d="M 137.0 163.0 L 137.0 163.0 L 138.0 163.0 L 139.0 163.0 L 140.0 163.0 L 143.0 163.0 L 147.0 163.0 L 152.0 163.0 L 156.0 162.0 L 159.0 162.0 L 161.0 162.0 L 162.0 162.0 L 163.0 163.0 L 165.0 167.0 L 168.0 176.0 L 170.0 186.0 L 172.0 194.0 L 173.0 198.0 L 173.0 198.0 " stroke="black" fill="none" stroke-width="5.0" stroke-linecap="round" stroke-linejoin="round" />
<path d="M 136.0 167.0 L 136.0 167.0 L 136.0 168.0 L 135.0 169.0 L 135.0 172.0 L 135.0 177.0 L 136.0 185.0 L 137.0 191.0 " stroke="black" fill="none" stroke-width="5.0" stroke-linecap="round" stroke-linejoin="round" />
<path d="M 141.0 177.0 L 142.0 177.0 L 144.0 177.0 L 147.0 177.0 L 151.0 176.0 L 157.0 176.0 L 162.0 176.0 L 166.0 176.0 L 166.0 178.0 " stroke="black" fill="none" stroke-width="5.0" stroke-linecap="round" stroke-linejoin="round" />
<path d="M 139.0 187.0 L 139.0 187.0 L 139.0 187.0 L 139.0 187.0 L 143.0 187.0 L 150.0 186.0 L 157.0 186.0 L 162.0 186.0 L 163.0 187.0 " stroke="black" fill="none" stroke-width="5.0" stroke-linecap="round" stroke-linejoin="round" />
<path d="M 134.0 198.0 L 137.0 198.0 L 141.0 198.0 L 146.0 198.0 L 154.0 197.0 L 160.0 196.0 L 165.0 196.0 L 165.0 196.0 " stroke="black" fill="none" stroke-width="5.0" stroke-linecap="round" stroke-linejoin="round" />
<path d="M 152.0 200.0 L 152.0 200.0 L 152.0 200.0 L 152.0 201.0 L 152.0 203.0 L 152.0 207.0 L 152.0 209.0 " stroke="black" fill="none" stroke-width="5.0" stroke-linecap="round" stroke-linejoin="round" />
<path d="M 162.0 199.0 L 163.0 200.0 L 165.0 202.0 L 167.0 207.0 L 172.0 213.0 L 176.0 219.0 " stroke="black" fill="none" stroke-width="5.0" stroke-linecap="round" stroke-linejoin="round" />
</svg>