<svg xmlns="http://www.w3.org/2000/svg" width="300" height="300" viewBox="0 0 300 300">
<path d="M 123.0 117.0 L 123.0 118.0 L 123.0 119.0 L 124.0 122.0 L 124.0 125.0 L 125.0 128.0 L 125.0 129.0 " stroke="black" fill="none" stroke-width="5.0" stroke-linecap="round" stroke-linejoin="round" />
<path d="M 124.0 115.0 L 124.0 115.0 L 125.0 115.0 L 127.0 115.0 L 130.0 115.0 L 137.0 114.0 L 147.0 113.0 L 158.0 112.0 L 170.0 111.0 L 179.0 110.0 L 186.0 110.0 L 190.0 110.0 L 191.0 112.0 L 192.0 116.0 L 192.0 121.0 L 192.0 125.0 L 190.0 128.0 " stroke="black" fill="none" stroke-width="5.0" stroke-linecap="round" stroke-linejoin="round" />
<path d="M 151.0 98.0 L 151.0 98.0 L 151.0 98.0 L 151.0 98.0 L 152.0 101.0 L 154.0 106.0 " stroke="black" fill="none" stroke-width="5.0" stroke-linecap="round" stroke-linejoin="round" />
<path d="M 142.0 126.0 L 142.0 126.0 L 142.0 126.0 L 142.0 126.0 L 142.0 126.0 L 141.0 128.0 L 139.0 133.0 L 137.0 137.0 L 136.0 138.0 " stroke="black" fill="none" stroke-width="5.0" stroke-linecap="round" stroke-linejoin="round" />
<path d="M 150.0 131.0 L 150.0 131.0 L 150.0 131.0 L 150.0 131.0 L 149.0 133.0 L 148.0 136.0 L 148.0 140.0 L 150.0 143.0 L 156.0 144.0 L 165.0 144.0 L 175.0 144.0 L 180.0 143.0 L 183.0 141.0 L 183.0 141.0 " stroke="black" fill="none" stroke-width="5.0" stroke-linecap="round" stroke-linejoin="round" />
<path d="M 163.0 124.0 L 164.0 126.0 L 164.0 128.0 L 165.0 132.0 L 166.0 135.0 L 167.0 136.0 " stroke="black" fill="none" stroke-width="5.0" stroke-linecap="round" stroke-linejoin="round" />
<path d="M 182.0 125.0 L 182.0 128.0 L 183.0 131.0 L 184.0 135.0 L 184.0 137.0 " stroke="black" fill="none" stroke-width="5.0" stroke-linecap="round" stroke-linejoin="round" />
<path d="M 139.0 155.0 L 139.0 155.0 L 139.0 156.0 L 138.0 157.0 L 138.0 160.0 L 139.0 163.0 L 140.0 165.0 L 140.0 166.0 " stroke="black" fill="none" stroke-width="5.0" stroke-linecap="round" stroke-linejoin="round" />
<path d="M 139.0 158.0 L 139.0 158.0 L 138.0 158.0 L 138.0 158.0 L 141.0 157.0 L 148.0 157.0 L 158.0 156.0 L 168.0 155.0 L 176.0 155.0 L 180.0 155.0 L 181.0 157.0 L 181.0 160.0 L 181.0 164.0 L 180.0 167.0 L 179.0 168.0 " stroke="black" fill="none" stroke-width="5.0" stroke-linecap="round" stroke-linejoin="round" />
<path d="M 151.0 159.0 L 151.0 160.0 L 151.0 161.0 L 151.0 162.0 L 152.0 163.0 " stroke="black" fill="none" stroke-width="5.0" stroke-linecap="round" stroke-linejoin="round" />
<path d="M 168.0 159.0 L 168.0 160.0 L 167.0 163.0 L 167.0 166.0 L 165.0 170.0 L 163.0 172.0 " stroke="black" fill="none" stroke-width="5.0" stroke-linecap="round" stroke-linejoin="round" />
<path d="M 120.0 175.0 L 120.0 175.0 L 120.0 175.0 L 119.0 175.0 L 123.0 175.0 L 134.0 175.0 L 150.0 175.0 L 169.0 174.0 L 186.0 172.0 L 194.0 171.0 L 196.0 171.0 " stroke="black" fill="none" stroke-width="5.0" stroke-linecap="round" stroke-linejoin="round" />
<path d="M 137.0 187.0 L 137.0 187.0 L 137.0 187.0 L 139.0 187.0 L 145.0 187.0 L 156.0 186.0 L 170.0 185.0 L 181.0 185.0 L 185.0 185.0 L 185.0 185.0 " stroke="black" fill="none" stroke-width="5.0" stroke-linecap="round" stroke-linejoin="round" />
<path d="M 157.0 189.0 L 158.0 189.0 L 159.0 189.0 L 159.0 189.0 L 160.0 193.0 L 161.0 201.0 L 163.0 211.0 L 164.0 219.0 L 165.0 223.0 L 164.0 223.0 L 159.0 221.0 L 151.0 218.0 L 149.0 218.0 " stroke="black" fill="none" stroke-width="5.0" stroke-linecap="round" stroke-linejoin="round" />
</svg>