<svg xmlns="http://www.w3.org/2000/svg" width="300" height="300" viewBox="0 0 300 300">
<path d="M 127.22222222222221 104.44444444444444 L 127.22222222222221 104.44444444444444 L 127.22222222222221 104.44444444444444 L 126.66666666666667 103.88888888888889 L 126.66666666666667 103.88888888888889 L 126.66666666666667 103.88888888888889 L 127.77777777777779 103.88888888888889 L 130.55555555555557 103.88888888888889 L 137.22222222222223 103.88888888888889 L 146.11111111111111 103.88888888888889 L 153.8888888888889 103.88888888888889 L 158.8888888888889 103.88888888888889 L 163.33333333333334 103.88888888888889 L 168.33333333333334 103.88888888888889 L 172.22222222222223 103.88888888888889 L 175.55555555555557 103.88888888888889 L 177.22222222222223 103.88888888888889 L 177.7777777777778 104.44444444444444 L 178.33333333333334 104.44444444444444 L 178.33333333333334 105.0 L 178.8888888888889 105.55555555555556 L 180.00000000000003 106.66666666666667 L 180.55555555555557 109.44444444444444 L 180.55555555555557 112.77777777777779 L 180.55555555555557 117.77777777777779 L 180.55555555555557 121.66666666666667 L 180.55555555555557 122.22222222222221 " stroke="black" fill="none" stroke-width="5.0" stroke-linecap="round" stroke-linejoin="round" />
<path d="M 131.11111111111111 122.22222222222221 L 131.66666666666669 122.22222222222221 L 132.22222222222223 122.22222222222221 L 133.33333333333334 122.22222222222221 L 137.22222222222223 122.22222222222221 L 146.66666666666669 122.22222222222221 L 158.8888888888889 122.22222222222221 L 171.66666666666669 122.77777777777779 L 175.00000000000003 122.77777777777779 " stroke="black" fill="none" stroke-width="5.0" stroke-linecap="round" stroke-linejoin="round" />
<path d="M 123.8888888888889 110.55555555555556 L 123.8888888888889 110.55555555555556 L 123.8888888888889 111.66666666666667 L 123.33333333333333 113.33333333333333 L 122.77777777777779 121.1111111111111 L 121.1111111111111 136.66666666666669 L 117.77777777777779 156.66666666666669 L 113.33333333333333 175.55555555555557 L 109.44444444444444 188.8888888888889 L 106.66666666666667 197.22222222222223 L 105.0 199.44444444444446 " stroke="black" fill="none" stroke-width="5.0" stroke-linecap="round" stroke-linejoin="round" />
<path d="M 153.33333333333334 128.33333333333334 L 153.33333333333334 128.33333333333334 L 153.33333333333334 128.33333333333334 L 153.8888888888889 127.77777777777779 L 153.8888888888889 127.22222222222221 L 153.8888888888889 127.22222222222221 L 154.44444444444446 127.22222222222221 L 155.00000000000003 131.11111111111111 L 155.55555555555557 137.22222222222223 L 155.55555555555557 143.33333333333334 " stroke="black" fill="none" stroke-width="5.0" stroke-linecap="round" stroke-linejoin="round" />
<path d="M 138.8888888888889 132.22222222222223 L 138.8888888888889 132.22222222222223 L 139.44444444444446 132.7777777777778 L 140.55555555555557 132.7777777777778 L 142.7777777777778 132.7777777777778 L 144.44444444444446 132.7777777777778 " stroke="black" fill="none" stroke-width="5.0" stroke-linecap="round" stroke-linejoin="round" />
<path d="M 136.66666666666669 140.55555555555557 L 139.44444444444446 140.55555555555557 L 142.22222222222223 140.00000000000003 L 143.8888888888889 140.00000000000003 " stroke="black" fill="none" stroke-width="5.0" stroke-linecap="round" stroke-linejoin="round" />
<path d="M 163.33333333333334 130.55555555555557 L 164.44444444444446 130.55555555555557 L 165.55555555555557 130.00000000000003 L 166.66666666666669 130.00000000000003 L 168.33333333333334 129.44444444444446 L 169.44444444444446 129.44444444444446 " stroke="black" fill="none" stroke-width="5.0" stroke-linecap="round" stroke-linejoin="round" />
<path d="M 165.00000000000003 137.7777777777778 L 166.66666666666669 138.8888888888889 L 168.8888888888889 140.55555555555557 L 171.66666666666669 141.66666666666669 L 173.33333333333334 142.22222222222223 " stroke="black" fill="none" stroke-width="5.0" stroke-linecap="round" stroke-linejoin="round" />
<path d="M 130.00000000000003 151.11111111111111 L 130.00000000000003 151.11111111111111 L 130.55555555555557 151.66666666666669 L 130.55555555555557 153.33333333333334 L 130.55555555555557 156.11111111111111 L 131.11111111111111 157.22222222222223 " stroke="black" fill="none" stroke-width="5.0" stroke-linecap="round" stroke-linejoin="round" />
<path d="M 129.44444444444446 151.66666666666669 L 129.44444444444446 151.66666666666669 L 130.00000000000003 151.11111111111111 L 131.66666666666669 150.00000000000003 L 135.00000000000003 149.44444444444446 L 141.66666666666669 149.44444444444446 L 151.66666666666669 149.44444444444446 L 161.66666666666669 148.33333333333334 L 168.8888888888889 147.7777777777778 L 173.33333333333334 148.8888888888889 L 174.44444444444446 152.22222222222223 L 175.00000000000003 156.11111111111111 L 174.44444444444446 159.44444444444446 L 174.44444444444446 161.11111111111111 " stroke="black" fill="none" stroke-width="5.0" stroke-linecap="round" stroke-linejoin="round" />
<path d="M 134.44444444444446 161.66666666666669 L 134.44444444444446 161.66666666666669 L 135.00000000000003 162.22222222222223 L 136.66666666666669 162.22222222222223 L 143.33333333333334 162.22222222222223 L 153.8888888888889 162.22222222222223 L 162.22222222222223 162.7777777777778 L 165.55555555555557 163.33333333333334 L 166.66666666666669 163.33333333333334 " stroke="black" fill="none" stroke-width="5.0" stroke-linecap="round" stroke-linejoin="round" />
<path d="M 145.00000000000003 150.00000000000003 L 145.00000000000003 150.00000000000003 L 145.55555555555557 150.00000000000003 L 146.11111111111111 152.22222222222223 L 146.11111111111111 157.22222222222223 L 146.11111111111111 162.22222222222223 L 147.22222222222223 163.8888888888889 " stroke="black" fill="none" stroke-width="5.0" stroke-linecap="round" stroke-linejoin="round" />
<path d="M 156.11111111111111 151.66666666666669 L 156.11111111111111 152.22222222222223 L 156.66666666666669 153.33333333333334 L 156.66666666666669 156.11111111111111 L 156.66666666666669 160.55555555555557 " stroke="black" fill="none" stroke-width="5.0" stroke-linecap="round" stroke-linejoin="round" />
<path d="M 143.33333333333334 165.55555555555557 L 143.33333333333334 165.55555555555557 L 143.33333333333334 165.55555555555557 L 142.7777777777778 165.55555555555557 L 141.11111111111111 167.7777777777778 L 137.22222222222223 172.7777777777778 L 132.7777777777778 177.7777777777778 L 131.66666666666669 178.8888888888889 " stroke="black" fill="none" stroke-width="5.0" stroke-linecap="round" stroke-linejoin="round" />
<path d="M 141.66666666666669 170.55555555555557 L 141.66666666666669 170.55555555555557 L 141.66666666666669 170.55555555555557 L 143.33333333333334 170.00000000000003 L 148.33333333333334 170.00000000000003 L 155.55555555555557 170.00000000000003 L 162.7777777777778 170.55555555555557 L 168.33333333333334 170.55555555555557 L 171.66666666666669 170.55555555555557 L 173.8888888888889 170.55555555555557 L 175.55555555555557 172.22222222222223 L 176.11111111111114 176.11111111111114 L 177.22222222222223 183.33333333333334 L 178.8888888888889 192.22222222222223 L 180.00000000000003 198.33333333333334 L 180.55555555555557 201.66666666666669 L 180.00000000000003 203.8888888888889 L 176.66666666666669 204.44444444444446 L 170.55555555555557 203.8888888888889 " stroke="black" fill="none" stroke-width="5.0" stroke-linecap="round" stroke-linejoin="round" />
<path d="M 141.66666666666669 183.8888888888889 L 141.66666666666669 184.44444444444446 L 141.66666666666669 185.00000000000003 L 141.66666666666669 186.11111111111114 L 142.7777777777778 187.7777777777778 L 142.7777777777778 188.33333333333334 " stroke="black" fill="none" stroke-width="5.0" stroke-linecap="round" stroke-linejoin="round" />
<path d="M 142.7777777777778 182.7777777777778 L 142.7777777777778 183.33333333333334 L 142.7777777777778 183.33333333333334 L 143.33333333333334 183.33333333333334 L 145.55555555555557 183.33333333333334 L 150.00000000000003 182.22222222222223 L 155.00000000000003 182.22222222222223 L 159.44444444444446 183.33333333333334 L 161.66666666666669 186.66666666666669 L 161.66666666666669 190.00000000000003 L 161.11111111111111 192.22222222222223 L 160.00000000000003 193.8888888888889 " stroke="black" fill="none" stroke-width="5.0" stroke-linecap="round" stroke-linejoin="round" />
<path d="M 143.8888888888889 193.33333333333334 L 143.33333333333334 193.33333333333334 L 143.33333333333334 193.33333333333334 L 143.33333333333334 193.33333333333334 L 145.55555555555557 193.33333333333334 L 151.11111111111111 193.33333333333334 L 157.7777777777778 193.33333333333334 L 160.00000000000003 193.33333333333334 " stroke="black" fill="none" stroke-width="5.0" stroke-linecap="round" stroke-linejoin="round" />
<path d="M 149.44444444444446 176.11111111111114 L 149.44444444444446 176.11111111111114 L 149.44444444444446 176.66666666666669 L 148.8888888888889 177.22222222222223 L 148.8888888888889 180.55555555555557 L 148.8888888888889 187.22222222222223 L 149.44444444444446 194.44444444444446 L 150.00000000000003 198.33333333333334 " stroke="black" fill="none" stroke-width="5.0" stroke-linecap="round" stroke-linejoin="round" />
<path d="M 136.66666666666669 205.00000000000003 L 136.66666666666669 205.00000000000003 L 136.66666666666669 206.11111111111114 L 136.11111111111111 206.11111111111114 L 138.33333333333334 206.11111111111114 L 143.8888888888889 204.44444444444446 L 151.66666666666669 202.22222222222223 L 156.66666666666669 201.66666666666669 L 157.7777777777778 201.66666666666669 " stroke="black" fill="none" stroke-width="5.0" stroke-linecap="round" stroke-linejoin="round" />
<path d="M 160.55555555555557 201.66666666666669 L 160.55555555555557 201.66666666666669 L 161.66666666666669 202.7777777777778 L 162.7777777777778 203.8888888888889 L 163.8888888888889 205.55555555555557 L 164.44444444444446 206.11111111111114 " stroke="black" fill="none" stroke-width="5.0" stroke-linecap="round" stroke-linejoin="round" />
</svg>