<svg xmlns="http://www.w3.org/2000/svg" width="300" height="300" viewBox="0 0 300 300">
<path d="M 128.0 110.0 L 128.0 110.0 L 128.0 110.0 L 128.0 110.0 L 128.0 110.0 L 129.0 110.0 L 131.0 110.0 L 137.0 109.0 L 145.0 109.0 L 155.0 108.0 L 162.0 107.0 L 168.0 107.0 L 171.0 107.0 L 172.0 107.0 L 172.0 107.0 L 172.0 109.0 L 172.0 113.0 L 173.0 118.0 L 174.0 123.0 L 174.0 126.0 L 174.0 126.0 " stroke="black" fill="none" stroke-width="5.0" stroke-linecap="round" stroke-linejoin="round" />
<path d="M 126.0 128.0 L 125.0 128.0 L 124.0 128.0 L 124.0 129.0 L 129.0 129.0 L 139.0 128.0 L 151.0 126.0 L 162.0 125.0 L 169.0 124.0 L 169.0 124.0 " stroke="black" fill="none" stroke-width="5.0" stroke-linecap="round" stroke-linejoin="round" />
<path d="M 125.0 115.0 L 125.0 115.0 L 125.0 115.0 L 124.0 115.0 L 123.0 117.0 L 123.0 128.0 L 122.0 151.0 L 119.0 174.0 L 115.0 189.0 L 114.0 193.0 L 114.0 192.0 " stroke="black" fill="none" stroke-width="5.0" stroke-linecap="round" stroke-linejoin="round" />
<path d="M 144.0 137.0 L 144.0 137.0 L 144.0 137.0 L 144.0 140.0 L 144.0 146.0 L 145.0 153.0 L 146.0 157.0 " stroke="black" fill="none" stroke-width="5.0" stroke-linecap="round" stroke-linejoin="round" />
<path d="M 158.0 136.0 L 158.0 136.0 L 158.0 136.0 L 158.0 138.0 L 158.0 145.0 L 159.0 153.0 L 159.0 158.0 L 159.0 159.0 " stroke="black" fill="none" stroke-width="5.0" stroke-linecap="round" stroke-linejoin="round" />
<path d="M 133.0 150.0 L 133.0 150.0 L 133.0 150.0 L 135.0 150.0 L 143.0 150.0 L 155.0 149.0 L 167.0 148.0 L 174.0 148.0 L 174.0 149.0 L 173.0 150.0 " stroke="black" fill="none" stroke-width="5.0" stroke-linecap="round" stroke-linejoin="round" />
<path d="M 133.0 163.0 L 133.0 163.0 L 133.0 164.0 L 136.0 165.0 L 144.0 165.0 L 155.0 164.0 L 166.0 163.0 L 172.0 162.0 L 173.0 162.0 " stroke="black" fill="none" stroke-width="5.0" stroke-linecap="round" stroke-linejoin="round" />
<path d="M 144.0 166.0 L 143.0 166.0 L 143.0 166.0 L 142.0 166.0 L 141.0 167.0 L 141.0 169.0 L 140.0 176.0 L 140.0 185.0 L 140.0 192.0 L 141.0 196.0 L 146.0 196.0 L 151.0 191.0 L 155.0 188.0 " stroke="black" fill="none" stroke-width="5.0" stroke-linecap="round" stroke-linejoin="round" />
<path d="M 171.0 168.0 L 171.0 168.0 L 171.0 168.0 L 171.0 168.0 L 170.0 169.0 L 168.0 172.0 L 166.0 176.0 " stroke="black" fill="none" stroke-width="5.0" stroke-linecap="round" stroke-linejoin="round" />
<path d="M 151.0 165.0 L 151.0 166.0 L 152.0 168.0 L 156.0 174.0 L 166.0 182.0 L 176.0 190.0 L 182.0 195.0 L 184.0 197.0 L 184.0 197.0 L 183.0 196.0 " stroke="black" fill="none" stroke-width="5.0" stroke-linecap="round" stroke-linejoin="round" />
</svg>