<svg xmlns="http://www.w3.org/2000/svg" width="300" height="300" viewBox="0 0 300 300">
<path d="M 152.0 114.0 L 152.0 114.0 L 151.0 116.0 L 151.0 121.0 L 152.0 131.0 L 153.0 149.0 L 153.0 164.0 L 153.0 168.0 " stroke="black" fill="none" stroke-width="5.0" stroke-linecap="round" stroke-linejoin="round" />
<path d="M 138.0 137.0 L 138.0 137.0 L 137.0 139.0 L 134.0 142.0 L 130.0 148.0 L 124.0 154.0 L 123.0 154.0 " stroke="black" fill="none" stroke-width="5.0" stroke-linecap="round" stroke-linejoin="round" />
<path d="M 174.0 141.0 L 175.0 141.0 L 177.0 143.0 L 181.0 148.0 L 187.0 153.0 L 190.0 156.0 " stroke="black" fill="none" stroke-width="5.0" stroke-linecap="round" stroke-linejoin="round" />
<path d="M 177.0 177.0 L 177.0 177.0 L 178.0 177.0 L 178.0 177.0 L 178.0 177.0 L 178.0 178.0 L 176.0 180.0 L 167.0 187.0 L 147.0 198.0 L 120.0 207.0 " stroke="black" fill="none" stroke-width="5.0" stroke-linecap="round" stroke-linejoin="round" />
</svg>