<svg xmlns="http://www.w3.org/2000/svg" width="300" height="300" viewBox="0 0 300 300">
<path d="M 122.0 125.0 L 122.0 125.0 L 122.0 125.0 L 122.0 125.0 L 123.0 125.0 L 129.0 125.0 L 137.0 124.0 L 140.0 124.0 " stroke="black" fill="none" stroke-width="5.0" stroke-linecap="round" stroke-linejoin="round" />
<path d="M 104.0 150.0 L 104.0 150.0 L 104.0 150.0 L 108.0 150.0 L 118.0 149.0 L 133.0 147.0 L 144.0 146.0 " stroke="black" fill="none" stroke-width="5.0" stroke-linecap="round" stroke-linejoin="round" />
<path d="M 128.0 117.0 L 128.0 117.0 L 128.0 117.0 L 128.0 123.0 L 129.0 136.0 L 130.0 146.0 " stroke="black" fill="none" stroke-width="5.0" stroke-linecap="round" stroke-linejoin="round" />
<path d="M 114.0 169.0 L 114.0 169.0 L 114.0 169.0 L 116.0 169.0 L 123.0 169.0 L 132.0 168.0 L 138.0 167.0 " stroke="black" fill="none" stroke-width="5.0" stroke-linecap="round" stroke-linejoin="round" />
<path d="M 105.0 192.0 L 107.0 193.0 L 111.0 194.0 L 120.0 193.0 L 132.0 191.0 L 141.0 190.0 " stroke="black" fill="none" stroke-width="5.0" stroke-linecap="round" stroke-linejoin="round" />
<path d="M 129.0 157.0 L 128.0 157.0 L 128.0 157.0 L 127.0 162.0 L 128.0 172.0 L 128.0 181.0 " stroke="black" fill="none" stroke-width="5.0" stroke-linecap="round" stroke-linejoin="round" />
<path d="M 154.0 139.0 L 154.0 139.0 L 153.0 138.0 L 153.0 138.0 L 156.0 138.0 L 164.0 138.0 L 175.0 138.0 L 183.0 139.0 L 185.0 139.0 " stroke="black" fill="none" stroke-width="5.0" stroke-linecap="round" stroke-linejoin="round" />
<path d="M 175.0 122.0 L 175.0 122.0 L 175.0 122.0 L 176.0 122.0 L 176.0 126.0 L 178.0 137.0 L 181.0 157.0 L 185.0 177.0 L 186.0 192.0 L 187.0 199.0 L 186.0 201.0 L 182.0 201.0 L 175.0 197.0 L 173.0 196.0 " stroke="black" fill="none" stroke-width="5.0" stroke-linecap="round" stroke-linejoin="round" />
<path d="M 154.0 163.0 L 155.0 163.0 L 156.0 164.0 L 157.0 166.0 L 161.0 171.0 L 164.0 174.0 " stroke="black" fill="none" stroke-width="5.0" stroke-linecap="round" stroke-linejoin="round" />
</svg>