<svg xmlns="http://www.w3.org/2000/svg" width="300" height="300" viewBox="0 0 300 300">
<path d="M 121.0 107.0 L 121.0 107.0 L 121.0 107.0 L 121.0 107.0 L 121.0 110.0 L 121.0 114.0 L 121.0 120.0 L 121.0 125.0 L 121.0 128.0 L 122.0 129.0 L 125.0 129.0 L 131.0 129.0 L 139.0 129.0 L 148.0 129.0 L 158.0 128.0 L 167.0 128.0 L 174.0 128.0 L 178.0 128.0 L 179.0 129.0 L 179.0 129.0 L 178.0 129.0 " stroke="black" fill="none" stroke-width="5.0" stroke-linecap="round" stroke-linejoin="round" />
<path d="M 148.0 100.0 L 148.0 100.0 L 148.0 102.0 L 148.0 105.0 L 149.0 112.0 L 150.0 119.0 L 151.0 121.0 " stroke="black" fill="none" stroke-width="5.0" stroke-linecap="round" stroke-linejoin="round" />
<path d="M 178.0 105.0 L 178.0 106.0 L 178.0 107.0 L 178.0 111.0 L 178.0 117.0 L 179.0 123.0 L 179.0 126.0 " stroke="black" fill="none" stroke-width="5.0" stroke-linecap="round" stroke-linejoin="round" />
<path d="M 118.0 145.0 L 118.0 145.0 L 119.0 145.0 L 120.0 145.0 L 124.0 145.0 L 135.0 145.0 L 149.0 145.0 L 161.0 145.0 L 168.0 145.0 L 172.0 145.0 L 173.0 145.0 L 173.0 145.0 L 172.0 145.0 L 172.0 145.0 " stroke="black" fill="none" stroke-width="5.0" stroke-linecap="round" stroke-linejoin="round" />
<path d="M 142.0 146.0 L 142.0 146.0 L 142.0 147.0 L 141.0 147.0 L 140.0 149.0 L 137.0 153.0 L 130.0 163.0 L 121.0 174.0 L 115.0 182.0 L 113.0 183.0 " stroke="black" fill="none" stroke-width="5.0" stroke-linecap="round" stroke-linejoin="round" />
<path d="M 131.0 164.0 L 131.0 164.0 L 131.0 165.0 L 131.0 166.0 L 132.0 169.0 L 132.0 176.0 L 133.0 183.0 L 133.0 188.0 L 133.0 190.0 " stroke="black" fill="none" stroke-width="5.0" stroke-linecap="round" stroke-linejoin="round" />
<path d="M 134.0 166.0 L 134.0 166.0 L 134.0 166.0 L 136.0 166.0 L 142.0 166.0 L 152.0 165.0 L 161.0 165.0 L 168.0 165.0 L 173.0 165.0 L 177.0 166.0 L 178.0 169.0 L 179.0 174.0 L 179.0 181.0 L 179.0 186.0 L 179.0 188.0 L 179.0 188.0 " stroke="black" fill="none" stroke-width="5.0" stroke-linecap="round" stroke-linejoin="round" />
<path d="M 133.0 195.0 L 133.0 195.0 L 133.0 196.0 L 133.0 196.0 L 136.0 197.0 L 144.0 197.0 L 156.0 196.0 L 168.0 195.0 L 175.0 194.0 L 176.0 194.0 L 176.0 194.0 " stroke="black" fill="none" stroke-width="5.0" stroke-linecap="round" stroke-linejoin="round" />
</svg>