<svg xmlns="http://www.w3.org/2000/svg" width="300" height="300" viewBox="0 0 300 300">
<path d="M 131.0 112.0 L 131.0 112.0 L 132.0 112.0 L 135.0 112.0 L 141.0 112.0 L 153.0 112.0 L 164.0 112.0 L 170.0 112.0 L 171.0 113.0 " stroke="black" fill="none" stroke-width="5.0" stroke-linecap="round" stroke-linejoin="round" />
<path d="M 125.0 138.0 L 125.0 138.0 L 126.0 137.0 L 126.0 136.0 L 126.0 136.0 L 126.0 140.0 L 126.0 146.0 L 126.0 152.0 L 125.0 157.0 L 125.0 161.0 L 126.0 164.0 L 131.0 165.0 L 138.0 166.0 L 148.0 166.0 L 158.0 165.0 L 167.0 165.0 L 174.0 165.0 L 179.0 164.0 L 180.0 164.0 L 180.0 164.0 L 180.0 163.0 L 179.0 159.0 L 179.0 153.0 L 179.0 147.0 L 178.0 146.0 " stroke="black" fill="none" stroke-width="5.0" stroke-linecap="round" stroke-linejoin="round" />
<path d="M 149.0 100.0 L 149.0 100.0 L 149.0 102.0 L 149.0 108.0 L 149.0 121.0 L 148.0 139.0 L 148.0 155.0 L 148.0 167.0 L 148.0 176.0 L 150.0 183.0 L 153.0 189.0 L 158.0 193.0 L 168.0 194.0 L 178.0 195.0 L 186.0 195.0 L 191.0 195.0 L 195.0 194.0 L 199.0 192.0 L 201.0 189.0 L 201.0 185.0 L 201.0 179.0 L 200.0 171.0 L 200.0 168.0 " stroke="black" fill="none" stroke-width="5.0" stroke-linecap="round" stroke-linejoin="round" />
</svg>