<svg xmlns="http://www.w3.org/2000/svg" width="300" height="300" viewBox="0 0 300 300">
<path d="M 126.0 115.5 L 126.0 115.5 L 126.0 115.0 L 126.0 115.0 L 126.0 115.0 L 126.0 116.0 L 125.5 121.0 L 125.5 133.0 L 125.5 151.0 L 125.5 168.0 L 125.5 173.5 L 125.5 178.0 L 126.0 181.5 L 126.5 182.0 " stroke="black" fill="none" stroke-width="5.0" stroke-linecap="round" stroke-linejoin="round" />
<path d="M 135.5 109.5 L 135.5 109.5 L 135.5 109.5 L 135.5 109.5 L 135.5 109.5 L 137.5 109.5 L 142.5 109.5 L 150.0 109.0 L 158.5 108.5 L 166.5 108.0 L 171.5 108.0 L 174.0 109.0 L 175.5 110.5 L 176.5 112.0 L 177.5 114.0 L 179.0 119.5 L 181.0 130.0 L 183.0 143.0 L 184.5 155.5 L 186.0 165.5 L 186.5 175.0 L 187.0 184.0 L 187.0 190.5 L 186.0 193.0 L 184.0 193.5 L 180.5 193.5 L 174.5 191.5 L 173.0 191.0 " stroke="black" fill="none" stroke-width="5.0" stroke-linecap="round" stroke-linejoin="round" />
<path d="M 146.5 126.5 L 146.5 126.5 L 146.0 127.0 L 146.5 129.0 L 148.0 132.5 L 149.0 134.0 " stroke="black" fill="none" stroke-width="5.0" stroke-linecap="round" stroke-linejoin="round" />
<path d="M 159.0 126.5 L 159.0 127.0 L 158.5 129.0 L 158.0 131.5 L 157.5 135.0 L 157.0 137.0 " stroke="black" fill="none" stroke-width="5.0" stroke-linecap="round" stroke-linejoin="round" />
<path d="M 140.5 142.0 L 140.5 142.0 L 140.5 142.0 L 141.0 142.5 L 145.0 142.5 L 152.0 141.5 L 160.5 140.0 L 166.5 139.5 L 168.0 139.5 L 168.0 139.5 " stroke="black" fill="none" stroke-width="5.0" stroke-linecap="round" stroke-linejoin="round" />
<path d="M 152.0 143.0 L 152.0 143.0 L 152.0 143.5 L 152.0 145.5 L 153.0 151.0 L 153.5 158.0 L 154.0 162.5 L 154.0 164.0 " stroke="black" fill="none" stroke-width="5.0" stroke-linecap="round" stroke-linejoin="round" />
<path d="M 143.0 156.0 L 143.0 156.0 L 143.0 156.0 L 143.0 156.0 L 143.0 157.0 L 143.5 159.5 L 144.5 163.5 L 146.0 166.5 L 149.0 168.0 L 154.0 168.5 L 161.0 167.5 L 166.5 167.5 L 170.0 167.5 L 171.0 167.0 L 171.0 165.5 L 171.5 162.5 L 171.5 157.5 L 171.5 153.0 " stroke="black" fill="none" stroke-width="5.0" stroke-linecap="round" stroke-linejoin="round" />
</svg>