<svg xmlns="http://www.w3.org/2000/svg" width="300" height="300" viewBox="0 0 300 300">
<path d="M 120.0 100.0 L 120.0 100.0 L 120.0 100.0 L 121.0 101.0 L 121.0 102.0 L 122.0 104.0 L 123.0 104.0 " stroke="black" fill="none" stroke-width="5.0" stroke-linecap="round" stroke-linejoin="round" />
<path d="M 109.0 112.0 L 110.0 112.0 L 111.0 112.0 L 114.0 112.0 L 120.0 112.0 L 127.0 111.0 L 134.0 111.0 L 139.0 111.0 L 140.0 111.0 " stroke="black" fill="none" stroke-width="5.0" stroke-linecap="round" stroke-linejoin="round" />
<path d="M 112.0 126.0 L 112.0 126.0 L 112.0 127.0 L 112.0 132.0 L 112.0 137.0 L 112.0 142.0 L 112.0 143.0 " stroke="black" fill="none" stroke-width="5.0" stroke-linecap="round" stroke-linejoin="round" />
<path d="M 112.0 124.0 L 112.0 124.0 L 112.0 124.0 L 112.0 124.0 L 113.0 124.0 L 116.0 124.0 L 121.0 124.0 L 128.0 123.0 L 133.0 123.0 L 136.0 125.0 L 138.0 129.0 L 138.0 134.0 L 138.0 137.0 L 138.0 139.0 L 138.0 140.0 " stroke="black" fill="none" stroke-width="5.0" stroke-linecap="round" stroke-linejoin="round" />
<path d="M 112.0 143.0 L 112.0 143.0 L 112.0 143.0 L 112.0 143.0 L 113.0 143.0 L 117.0 142.0 L 125.0 141.0 L 133.0 140.0 L 136.0 140.0 " stroke="black" fill="none" stroke-width="5.0" stroke-linecap="round" stroke-linejoin="round" />
<path d="M 120.0 145.0 L 120.0 145.0 L 121.0 145.0 L 122.0 147.0 L 122.0 154.0 L 124.0 165.0 L 125.0 177.0 L 125.0 184.0 L 125.0 188.0 L 124.0 188.0 L 121.0 188.0 L 117.0 186.0 L 113.0 184.0 " stroke="black" fill="none" stroke-width="5.0" stroke-linecap="round" stroke-linejoin="round" />
<path d="M 109.0 156.0 L 110.0 156.0 L 110.0 156.0 L 111.0 156.0 L 110.0 158.0 L 108.0 163.0 L 103.0 171.0 L 101.0 175.0 " stroke="black" fill="none" stroke-width="5.0" stroke-linecap="round" stroke-linejoin="round" />
<path d="M 130.0 157.0 L 131.0 158.0 L 131.0 159.0 L 133.0 163.0 L 137.0 170.0 L 142.0 178.0 " stroke="black" fill="none" stroke-width="5.0" stroke-linecap="round" stroke-linejoin="round" />
<path d="M 145.0 125.0 L 145.0 126.0 L 145.0 126.0 L 146.0 126.0 L 151.0 126.0 L 161.0 125.0 L 171.0 124.0 L 177.0 124.0 " stroke="black" fill="none" stroke-width="5.0" stroke-linecap="round" stroke-linejoin="round" />
<path d="M 157.0 109.0 L 157.0 109.0 L 157.0 109.0 L 157.0 109.0 L 156.0 109.0 L 156.0 115.0 L 156.0 131.0 L 154.0 154.0 L 150.0 174.0 L 148.0 184.0 L 148.0 186.0 " stroke="black" fill="none" stroke-width="5.0" stroke-linecap="round" stroke-linejoin="round" />
<path d="M 163.0 137.0 L 163.0 137.0 L 163.0 137.0 L 163.0 137.0 L 163.0 140.0 L 164.0 149.0 L 166.0 165.0 L 170.0 180.0 L 175.0 188.0 L 180.0 189.0 L 187.0 189.0 L 193.0 188.0 L 197.0 187.0 L 198.0 185.0 L 199.0 179.0 L 199.0 174.0 " stroke="black" fill="none" stroke-width="5.0" stroke-linecap="round" stroke-linejoin="round" />
<path d="M 172.0 106.0 L 173.0 107.0 L 173.0 109.0 L 175.0 113.0 L 176.0 114.0 " stroke="black" fill="none" stroke-width="5.0" stroke-linecap="round" stroke-linejoin="round" />
</svg>