<svg xmlns="http://www.w3.org/2000/svg" width="300" height="300" viewBox="0 0 300 300">
<path d="M 135.0 109.0 L 135.0 109.0 L 135.0 109.0 L 136.0 109.0 L 136.0 109.0 L 136.0 109.0 L 136.0 110.0 L 135.0 114.0 L 130.0 122.0 L 121.0 134.0 L 110.0 146.0 L 106.0 149.0 " stroke="black" fill="none" stroke-width="5.0" stroke-linecap="round" stroke-linejoin="round" />
<path d="M 126.0 130.0 L 126.0 130.0 L 126.0 131.0 L 126.0 132.0 L 126.0 134.0 L 127.0 141.0 L 127.0 150.0 L 127.0 159.0 L 127.0 164.0 " stroke="black" fill="none" stroke-width="5.0" stroke-linecap="round" stroke-linejoin="round" />
<path d="M 143.0 128.0 L 143.0 128.0 L 144.0 129.0 L 146.0 129.0 L 153.0 128.0 L 161.0 126.0 L 169.0 125.0 L 173.0 124.0 " stroke="black" fill="none" stroke-width="5.0" stroke-linecap="round" stroke-linejoin="round" />
<path d="M 153.0 111.0 L 153.0 111.0 L 152.0 111.0 L 152.0 115.0 L 155.0 128.0 L 161.0 147.0 L 167.0 161.0 L 172.0 168.0 L 178.0 169.0 L 182.0 166.0 " stroke="black" fill="none" stroke-width="5.0" stroke-linecap="round" stroke-linejoin="round" />
<path d="M 172.0 111.0 L 172.0 111.0 L 173.0 113.0 L 175.0 116.0 L 178.0 122.0 " stroke="black" fill="none" stroke-width="5.0" stroke-linecap="round" stroke-linejoin="round" />
<path d="M 126.0 185.0 L 126.0 185.0 L 126.0 185.0 L 127.0 185.0 L 127.0 185.0 L 128.0 186.0 L 128.0 190.0 L 128.0 196.0 L 128.0 202.0 L 128.0 206.0 L 128.0 207.0 L 134.0 208.0 L 144.0 207.0 L 157.0 207.0 L 167.0 207.0 L 175.0 208.0 L 178.0 208.0 L 177.0 209.0 " stroke="black" fill="none" stroke-width="5.0" stroke-linecap="round" stroke-linejoin="round" />
<path d="M 151.0 172.0 L 151.0 172.0 L 151.0 172.0 L 151.0 172.0 L 151.0 175.0 L 152.0 184.0 L 152.0 197.0 L 152.0 204.0 " stroke="black" fill="none" stroke-width="5.0" stroke-linecap="round" stroke-linejoin="round" />
<path d="M 179.0 183.0 L 179.0 183.0 L 178.0 183.0 L 178.0 184.0 L 178.0 188.0 L 178.0 196.0 L 179.0 205.0 L 179.0 207.0 " stroke="black" fill="none" stroke-width="5.0" stroke-linecap="round" stroke-linejoin="round" />
</svg>