<svg xmlns="http://www.w3.org/2000/svg" width="300" height="300" viewBox="0 0 300 300">
<path d="M 126.0 112.0 L 126.0 112.0 L 126.0 112.0 L 126.0 112.0 L 128.0 113.0 L 134.0 113.0 L 144.0 113.0 L 155.0 113.0 L 163.0 113.0 L 168.0 113.0 L 170.0 113.0 L 170.0 114.0 L 170.0 117.0 L 170.0 124.0 L 170.0 131.0 L 171.0 136.0 L 171.0 139.0 " stroke="black" fill="none" stroke-width="5.0" stroke-linecap="round" stroke-linejoin="round" />
<path d="M 128.0 136.0 L 130.0 136.0 L 131.0 136.0 L 133.0 136.0 L 137.0 137.0 L 146.0 138.0 L 156.0 138.0 L 165.0 138.0 L 170.0 138.0 L 171.0 138.0 " stroke="black" fill="none" stroke-width="5.0" stroke-linecap="round" stroke-linejoin="round" />
<path d="M 130.0 116.0 L 130.0 116.0 L 130.0 117.0 L 130.0 118.0 L 127.0 128.0 L 121.0 149.0 L 112.0 174.0 L 105.0 190.0 L 102.0 196.0 L 101.0 196.0 " stroke="black" fill="none" stroke-width="5.0" stroke-linecap="round" stroke-linejoin="round" />
<path d="M 138.0 149.0 L 138.0 149.0 L 138.0 149.0 L 138.0 150.0 L 139.0 153.0 L 142.0 155.0 " stroke="black" fill="none" stroke-width="5.0" stroke-linecap="round" stroke-linejoin="round" />
<path d="M 154.0 148.0 L 154.0 148.0 L 154.0 148.0 L 154.0 149.0 L 154.0 151.0 L 153.0 155.0 " stroke="black" fill="none" stroke-width="5.0" stroke-linecap="round" stroke-linejoin="round" />
<path d="M 133.0 160.0 L 134.0 160.0 L 134.0 160.0 L 136.0 161.0 L 140.0 161.0 L 148.0 161.0 L 156.0 161.0 L 162.0 161.0 L 164.0 161.0 " stroke="black" fill="none" stroke-width="5.0" stroke-linecap="round" stroke-linejoin="round" />
<path d="M 124.0 176.0 L 124.0 176.0 L 125.0 176.0 L 130.0 176.0 L 139.0 176.0 L 151.0 176.0 L 162.0 175.0 L 168.0 175.0 L 170.0 176.0 L 170.0 177.0 " stroke="black" fill="none" stroke-width="5.0" stroke-linecap="round" stroke-linejoin="round" />
<path d="M 143.0 164.0 L 143.0 164.0 L 143.0 164.0 L 143.0 164.0 L 143.0 167.0 L 142.0 177.0 L 140.0 190.0 L 139.0 199.0 " stroke="black" fill="none" stroke-width="5.0" stroke-linecap="round" stroke-linejoin="round" />
<path d="M 154.0 164.0 L 154.0 164.0 L 154.0 164.0 L 154.0 165.0 L 154.0 166.0 L 154.0 170.0 L 154.0 181.0 L 156.0 196.0 L 157.0 207.0 L 158.0 210.0 " stroke="black" fill="none" stroke-width="5.0" stroke-linecap="round" stroke-linejoin="round" />
</svg>