<svg xmlns="http://www.w3.org/2000/svg" width="300" height="300" viewBox="0 0 300 300">
<path d="M 110.0 137.0 L 110.0 137.0 L 110.0 137.0 L 110.0 137.0 L 113.0 136.0 L 121.0 135.0 L 129.0 134.0 L 134.0 134.0 " stroke="black" fill="none" stroke-width="5.0" stroke-linecap="round" stroke-linejoin="round" />
<path d="M 119.0 138.0 L 120.0 138.0 L 121.0 138.0 L 121.0 139.0 L 121.0 147.0 L 121.0 157.0 L 122.0 167.0 L 123.0 169.0 " stroke="black" fill="none" stroke-width="5.0" stroke-linecap="round" stroke-linejoin="round" />
<path d="M 102.0 183.0 L 102.0 183.0 L 102.0 183.0 L 102.0 183.0 L 107.0 182.0 L 121.0 180.0 L 137.0 177.0 " stroke="black" fill="none" stroke-width="5.0" stroke-linecap="round" stroke-linejoin="round" />
<path d="M 151.0 120.0 L 151.0 120.0 L 150.0 121.0 L 150.0 121.0 L 153.0 121.0 L 161.0 121.0 L 171.0 120.0 L 178.0 120.0 L 178.0 120.0 " stroke="black" fill="none" stroke-width="5.0" stroke-linecap="round" stroke-linejoin="round" />
<path d="M 162.0 123.0 L 162.0 126.0 L 162.0 129.0 L 161.0 131.0 L 159.0 135.0 L 157.0 141.0 L 155.0 146.0 L 154.0 148.0 L 154.0 149.0 L 155.0 149.0 L 158.0 149.0 L 162.0 149.0 L 166.0 149.0 L 171.0 149.0 L 175.0 149.0 L 178.0 152.0 L 180.0 157.0 L 182.0 169.0 L 186.0 183.0 L 189.0 195.0 L 190.0 202.0 L 189.0 204.0 L 185.0 205.0 L 177.0 205.0 L 164.0 204.0 L 160.0 203.0 " stroke="black" fill="none" stroke-width="5.0" stroke-linecap="round" stroke-linejoin="round" />
</svg>