<svg xmlns="http://www.w3.org/2000/svg" width="300" height="300" viewBox="0 0 300 300">
<path d="M 111.0 142.0 L 111.0 142.0 L 111.0 142.0 L 111.0 142.0 L 112.0 142.0 L 112.0 144.0 L 112.0 150.0 L 112.0 157.0 L 112.0 165.0 L 112.0 169.0 L 112.0 170.0 L 114.0 170.0 L 120.0 169.0 L 127.0 169.0 L 134.0 169.0 L 139.0 169.0 L 141.0 169.0 " stroke="black" fill="none" stroke-width="5.0" stroke-linecap="round" stroke-linejoin="round" />
<path d="M 125.0 128.0 L 125.0 128.0 L 126.0 129.0 L 126.0 131.0 L 126.0 138.0 L 126.0 149.0 L 127.0 158.0 L 127.0 162.0 L 127.0 163.0 " stroke="black" fill="none" stroke-width="5.0" stroke-linecap="round" stroke-linejoin="round" />
<path d="M 141.0 141.0 L 141.0 142.0 L 141.0 146.0 L 141.0 151.0 L 141.0 159.0 L 142.0 165.0 " stroke="black" fill="none" stroke-width="5.0" stroke-linecap="round" stroke-linejoin="round" />
<path d="M 168.0 109.0 L 168.0 109.0 L 168.0 109.0 L 168.0 110.0 L 166.0 113.0 L 162.0 116.0 L 156.0 121.0 L 153.0 124.0 " stroke="black" fill="none" stroke-width="5.0" stroke-linecap="round" stroke-linejoin="round" />
<path d="M 151.0 134.0 L 151.0 134.0 L 151.0 135.0 L 151.0 135.0 L 152.0 135.0 L 159.0 135.0 L 170.0 135.0 L 180.0 135.0 L 185.0 134.0 L 185.0 134.0 " stroke="black" fill="none" stroke-width="5.0" stroke-linecap="round" stroke-linejoin="round" />
<path d="M 165.0 118.0 L 165.0 118.0 L 165.0 118.0 L 165.0 119.0 L 165.0 120.0 L 165.0 126.0 L 162.0 135.0 L 157.0 147.0 L 152.0 156.0 L 150.0 158.0 L 150.0 158.0 " stroke="black" fill="none" stroke-width="5.0" stroke-linecap="round" stroke-linejoin="round" />
<path d="M 176.0 137.0 L 177.0 137.0 L 178.0 138.0 L 180.0 140.0 L 184.0 142.0 L 188.0 144.0 L 191.0 146.0 L 191.0 146.0 " stroke="black" fill="none" stroke-width="5.0" stroke-linecap="round" stroke-linejoin="round" />
<path d="M 164.0 151.0 L 164.0 151.0 L 164.0 151.0 L 164.0 151.0 L 164.0 153.0 L 164.0 157.0 L 165.0 160.0 L 165.0 161.0 " stroke="black" fill="none" stroke-width="5.0" stroke-linecap="round" stroke-linejoin="round" />
<path d="M 164.0 151.0 L 164.0 151.0 L 164.0 150.0 L 165.0 150.0 L 168.0 150.0 L 172.0 149.0 L 176.0 149.0 L 180.0 149.0 L 182.0 151.0 L 183.0 155.0 L 183.0 159.0 L 183.0 162.0 L 183.0 162.0 " stroke="black" fill="none" stroke-width="5.0" stroke-linecap="round" stroke-linejoin="round" />
<path d="M 167.0 163.0 L 168.0 164.0 L 171.0 164.0 L 174.0 164.0 L 179.0 164.0 L 181.0 164.0 " stroke="black" fill="none" stroke-width="5.0" stroke-linecap="round" stroke-linejoin="round" />
<path d="M 150.0 176.0 L 150.0 176.0 L 150.0 176.0 L 149.0 178.0 L 149.0 182.0 L 149.0 190.0 L 150.0 198.0 L 150.0 201.0 L 151.0 201.0 " stroke="black" fill="none" stroke-width="5.0" stroke-linecap="round" stroke-linejoin="round" />
<path d="M 150.0 175.0 L 151.0 175.0 L 152.0 175.0 L 154.0 175.0 L 158.0 175.0 L 166.0 174.0 L 175.0 174.0 L 184.0 174.0 L 189.0 174.0 L 192.0 175.0 L 194.0 179.0 L 195.0 186.0 L 196.0 193.0 L 196.0 199.0 L 197.0 205.0 L 197.0 208.0 L 197.0 209.0 L 196.0 210.0 L 191.0 209.0 L 186.0 207.0 " stroke="black" fill="none" stroke-width="5.0" stroke-linecap="round" stroke-linejoin="round" />
<path d="M 161.0 187.0 L 161.0 187.0 L 161.0 187.0 L 161.0 188.0 L 162.0 189.0 L 162.0 191.0 L 162.0 192.0 " stroke="black" fill="none" stroke-width="5.0" stroke-linecap="round" stroke-linejoin="round" />
<path d="M 161.0 187.0 L 162.0 187.0 L 163.0 186.0 L 165.0 185.0 L 169.0 185.0 L 173.0 185.0 L 177.0 185.0 L 181.0 187.0 L 183.0 189.0 L 184.0 191.0 L 184.0 193.0 L 184.0 195.0 " stroke="black" fill="none" stroke-width="5.0" stroke-linecap="round" stroke-linejoin="round" />
<path d="M 165.0 196.0 L 166.0 196.0 L 168.0 198.0 L 172.0 198.0 L 177.0 199.0 L 183.0 199.0 " stroke="black" fill="none" stroke-width="5.0" stroke-linecap="round" stroke-linejoin="round" />
</svg>