<svg xmlns="http://www.w3.org/2000/svg" width="300" height="300" viewBox="0 0 300 300">
<path d="M 126.0 113.0 L 127.0 113.0 L 128.0 113.0 L 130.0 113.0 L 135.0 113.0 L 143.0 113.0 L 151.0 112.0 L 159.0 112.0 L 164.0 112.0 L 167.0 112.0 L 168.0 112.0 L 169.0 112.0 L 169.0 116.0 L 169.0 122.0 L 171.0 131.0 L 172.0 141.0 L 173.0 147.0 L 173.0 149.0 L 172.0 149.0 " stroke="black" fill="none" stroke-width="5.0" stroke-linecap="round" stroke-linejoin="round" />
<path d="M 125.0 150.0 L 126.0 150.0 L 128.0 151.0 L 132.0 152.0 L 141.0 152.0 L 151.0 152.0 L 161.0 151.0 L 167.0 151.0 L 168.0 150.0 " stroke="black" fill="none" stroke-width="5.0" stroke-linecap="round" stroke-linejoin="round" />
<path d="M 120.0 134.0 L 120.0 134.0 L 120.0 134.0 L 120.0 135.0 L 120.0 141.0 L 120.0 154.0 L 120.0 171.0 L 122.0 182.0 L 126.0 187.0 L 134.0 188.0 L 143.0 189.0 L 153.0 190.0 L 163.0 191.0 L 172.0 192.0 L 180.0 191.0 L 186.0 188.0 L 188.0 185.0 L 188.0 182.0 L 188.0 178.0 L 186.0 171.0 L 185.0 160.0 " stroke="black" fill="none" stroke-width="5.0" stroke-linecap="round" stroke-linejoin="round" />
</svg>