<svg xmlns="http://www.w3.org/2000/svg" width="300" height="300" viewBox="0 0 300 300">
<path d="M 132.0 111.0 L 132.0 111.0 L 131.0 113.0 L 130.0 115.0 L 128.0 121.0 L 123.0 129.0 L 115.0 140.0 " stroke="black" fill="none" stroke-width="5.0" stroke-linecap="round" stroke-linejoin="round" />
<path d="M 102.0 156.0 L 102.0 156.0 L 103.0 156.0 L 105.0 156.0 L 111.0 156.0 L 122.0 154.0 L 134.0 152.0 L 140.0 151.0 " stroke="black" fill="none" stroke-width="5.0" stroke-linecap="round" stroke-linejoin="round" />
<path d="M 126.0 129.0 L 126.0 129.0 L 126.0 130.0 L 126.0 133.0 L 126.0 145.0 L 128.0 166.0 L 128.0 188.0 L 128.0 199.0 L 128.0 202.0 " stroke="black" fill="none" stroke-width="5.0" stroke-linecap="round" stroke-linejoin="round" />
<path d="M 127.0 156.0 L 127.0 156.0 L 127.0 157.0 L 125.0 159.0 L 122.0 164.0 L 115.0 175.0 L 106.0 190.0 L 100.0 199.0 L 100.0 200.0 " stroke="black" fill="none" stroke-width="5.0" stroke-linecap="round" stroke-linejoin="round" />
<path d="M 129.0 164.0 L 132.0 167.0 L 137.0 174.0 L 145.0 186.0 L 149.0 192.0 " stroke="black" fill="none" stroke-width="5.0" stroke-linecap="round" stroke-linejoin="round" />
<path d="M 152.0 126.0 L 152.0 126.0 L 152.0 126.0 L 152.0 126.0 L 158.0 126.0 L 170.0 125.0 L 182.0 123.0 L 186.0 122.0 " stroke="black" fill="none" stroke-width="5.0" stroke-linecap="round" stroke-linejoin="round" />
<path d="M 164.0 109.0 L 164.0 109.0 L 164.0 110.0 L 164.0 113.0 L 164.0 118.0 L 163.0 128.0 L 161.0 142.0 L 156.0 153.0 L 155.0 156.0 " stroke="black" fill="none" stroke-width="5.0" stroke-linecap="round" stroke-linejoin="round" />
<path d="M 171.0 126.0 L 171.0 127.0 L 172.0 129.0 L 172.0 133.0 L 174.0 139.0 L 176.0 148.0 L 179.0 154.0 L 184.0 158.0 L 190.0 157.0 L 195.0 153.0 L 199.0 151.0 L 200.0 150.0 L 200.0 148.0 L 200.0 147.0 " stroke="black" fill="none" stroke-width="5.0" stroke-linecap="round" stroke-linejoin="round" />
<path d="M 185.0 105.0 L 185.0 107.0 L 186.0 111.0 L 187.0 115.0 " stroke="black" fill="none" stroke-width="5.0" stroke-linecap="round" stroke-linejoin="round" />
<path d="M 157.0 174.0 L 157.0 174.0 L 157.0 173.0 L 157.0 173.0 L 157.0 173.0 L 158.0 175.0 L 158.0 181.0 L 158.0 189.0 L 157.0 196.0 L 157.0 201.0 L 158.0 204.0 L 163.0 204.0 L 171.0 204.0 L 179.0 203.0 L 186.0 202.0 L 187.0 202.0 " stroke="black" fill="none" stroke-width="5.0" stroke-linecap="round" stroke-linejoin="round" />
<path d="M 171.0 166.0 L 171.0 167.0 L 171.0 168.0 L 171.0 174.0 L 172.0 185.0 L 173.0 196.0 L 173.0 198.0 " stroke="black" fill="none" stroke-width="5.0" stroke-linecap="round" stroke-linejoin="round" />
<path d="M 190.0 174.0 L 190.0 174.0 L 190.0 175.0 L 191.0 177.0 L 192.0 185.0 L 192.0 196.0 L 192.0 198.0 " stroke="black" fill="none" stroke-width="5.0" stroke-linecap="round" stroke-linejoin="round" />
</svg>