<svg xmlns="http://www.w3.org/2000/svg" width="300" height="300" viewBox="0 0 300 300">
<path d="M 122.0 130.0 L 122.0 130.0 L 122.0 130.0 L 122.0 130.0 L 122.0 130.0 L 126.0 130.0 L 136.0 130.0 L 153.0 130.0 L 168.0 129.0 L 177.0 129.0 L 178.0 129.0 " stroke="black" fill="none" stroke-width="5.0" stroke-linecap="round" stroke-linejoin="round" />
<path d="M 152.0 115.0 L 152.0 115.0 L 152.0 115.0 L 152.0 116.0 L 151.0 117.0 L 149.0 121.0 L 144.0 132.0 L 132.0 150.0 L 117.0 168.0 L 106.0 179.0 L 105.0 180.0 " stroke="black" fill="none" stroke-width="5.0" stroke-linecap="round" stroke-linejoin="round" />
<path d="M 134.0 161.0 L 134.0 161.0 L 133.0 161.0 L 133.0 161.0 L 133.0 162.0 L 133.0 162.0 L 138.0 161.0 L 146.0 160.0 L 157.0 159.0 L 168.0 158.0 L 175.0 158.0 L 175.0 158.0 " stroke="black" fill="none" stroke-width="5.0" stroke-linecap="round" stroke-linejoin="round" />
<path d="M 152.0 164.0 L 152.0 164.0 L 152.0 164.0 L 152.0 164.0 L 152.0 164.0 L 152.0 165.0 L 152.0 171.0 L 153.0 181.0 L 154.0 189.0 L 154.0 191.0 " stroke="black" fill="none" stroke-width="5.0" stroke-linecap="round" stroke-linejoin="round" />
<path d="M 120.0 200.0 L 120.0 200.0 L 118.0 200.0 L 118.0 200.0 L 121.0 200.0 L 133.0 200.0 L 148.0 199.0 L 165.0 197.0 L 180.0 195.0 L 188.0 194.0 L 191.0 194.0 L 191.0 194.0 L 189.0 195.0 " stroke="black" fill="none" stroke-width="5.0" stroke-linecap="round" stroke-linejoin="round" />
</svg>