<svg xmlns="http://www.w3.org/2000/svg" width="300" height="300" viewBox="0 0 300 300">
<path d="M 122.0 112.0 L 122.0 112.0 L 122.0 113.0 L 122.0 114.0 L 122.0 115.0 L 122.0 118.0 L 122.0 121.0 L 122.0 125.0 L 122.0 127.0 L 126.0 128.0 L 134.0 128.0 L 145.0 127.0 L 155.0 127.0 L 163.0 127.0 L 172.0 127.0 L 179.0 126.0 L 182.0 126.0 L 182.0 126.0 L 182.0 126.0 L 181.0 126.0 L 180.0 126.0 " stroke="black" fill="none" stroke-width="5.0" stroke-linecap="round" stroke-linejoin="round" />
<path d="M 150.0 103.0 L 150.0 103.0 L 150.0 104.0 L 150.0 107.0 L 151.0 112.0 L 152.0 118.0 L 152.0 119.0 " stroke="black" fill="none" stroke-width="5.0" stroke-linecap="round" stroke-linejoin="round" />
<path d="M 181.0 109.0 L 181.0 110.0 L 182.0 113.0 L 182.0 117.0 L 183.0 121.0 L 183.0 123.0 " stroke="black" fill="none" stroke-width="5.0" stroke-linecap="round" stroke-linejoin="round" />
<path d="M 120.0 146.0 L 120.0 146.0 L 120.0 146.0 L 120.0 148.0 L 120.0 151.0 L 121.0 154.0 L 122.0 156.0 L 122.0 157.0 " stroke="black" fill="none" stroke-width="5.0" stroke-linecap="round" stroke-linejoin="round" />
<path d="M 122.0 145.0 L 122.0 145.0 L 123.0 145.0 L 125.0 145.0 L 131.0 145.0 L 142.0 144.0 L 154.0 144.0 L 165.0 144.0 L 173.0 144.0 L 179.0 144.0 L 183.0 144.0 L 184.0 145.0 L 185.0 148.0 L 186.0 151.0 L 187.0 155.0 L 187.0 159.0 L 187.0 161.0 L 187.0 161.0 " stroke="black" fill="none" stroke-width="5.0" stroke-linecap="round" stroke-linejoin="round" />
<path d="M 152.0 130.0 L 152.0 130.0 L 152.0 131.0 L 152.0 132.0 L 152.0 136.0 L 154.0 141.0 " stroke="black" fill="none" stroke-width="5.0" stroke-linecap="round" stroke-linejoin="round" />
<path d="M 139.0 159.0 L 139.0 159.0 L 139.0 159.0 L 138.0 159.0 L 138.0 159.0 L 138.0 159.0 L 142.0 159.0 L 148.0 159.0 L 156.0 159.0 L 162.0 158.0 L 165.0 158.0 L 165.0 159.0 " stroke="black" fill="none" stroke-width="5.0" stroke-linecap="round" stroke-linejoin="round" />
<path d="M 123.0 170.0 L 124.0 171.0 L 125.0 171.0 L 128.0 172.0 L 134.0 172.0 L 145.0 172.0 L 157.0 171.0 L 168.0 171.0 L 175.0 170.0 L 178.0 170.0 L 178.0 170.0 L 176.0 170.0 L 176.0 170.0 " stroke="black" fill="none" stroke-width="5.0" stroke-linecap="round" stroke-linejoin="round" />
<path d="M 151.0 172.0 L 151.0 172.0 L 151.0 172.0 L 151.0 173.0 L 151.0 178.0 L 152.0 188.0 L 153.0 198.0 L 154.0 204.0 L 154.0 204.0 " stroke="black" fill="none" stroke-width="5.0" stroke-linecap="round" stroke-linejoin="round" />
<path d="M 144.0 182.0 L 142.0 182.0 L 141.0 183.0 L 139.0 184.0 L 135.0 187.0 L 130.0 193.0 L 123.0 199.0 L 118.0 204.0 L 116.0 206.0 " stroke="black" fill="none" stroke-width="5.0" stroke-linecap="round" stroke-linejoin="round" />
<path d="M 165.0 188.0 L 166.0 191.0 L 169.0 194.0 L 174.0 198.0 L 180.0 202.0 L 187.0 206.0 L 190.0 208.0 " stroke="black" fill="none" stroke-width="5.0" stroke-linecap="round" stroke-linejoin="round" />
</svg>