<svg xmlns="http://www.w3.org/2000/svg" width="300" height="300" viewBox="0 0 300 300">
<path d="M 138.0 105.0 L 138.0 105.0 L 138.0 105.0 L 138.0 105.0 L 139.0 108.0 L 142.0 112.0 L 143.0 113.0 " stroke="black" fill="none" stroke-width="5.0" stroke-linecap="round" stroke-linejoin="round" />
<path d="M 116.0 122.0 L 116.0 122.0 L 116.0 122.0 L 117.0 122.0 L 125.0 122.0 L 140.0 121.0 L 155.0 120.0 L 159.0 120.0 " stroke="black" fill="none" stroke-width="5.0" stroke-linecap="round" stroke-linejoin="round" />
<path d="M 118.0 127.0 L 118.0 127.0 L 118.0 127.0 L 118.0 127.0 L 118.0 129.0 L 118.0 138.0 L 117.0 154.0 L 115.0 174.0 L 112.0 189.0 L 111.0 197.0 L 111.0 197.0 " stroke="black" fill="none" stroke-width="5.0" stroke-linecap="round" stroke-linejoin="round" />
<path d="M 142.0 132.0 L 142.0 132.0 L 141.0 132.0 L 141.0 132.0 L 140.0 134.0 L 140.0 139.0 L 139.0 146.0 L 139.0 151.0 L 140.0 154.0 L 143.0 155.0 L 147.0 155.0 L 152.0 155.0 L 155.0 155.0 L 157.0 155.0 L 158.0 154.0 L 158.0 151.0 L 158.0 147.0 L 158.0 144.0 L 157.0 140.0 L 157.0 136.0 L 157.0 133.0 L 157.0 131.0 " stroke="black" fill="none" stroke-width="5.0" stroke-linecap="round" stroke-linejoin="round" />
<path d="M 120.0 147.0 L 119.0 147.0 L 119.0 147.0 L 119.0 147.0 L 126.0 146.0 L 140.0 144.0 L 155.0 143.0 L 165.0 142.0 L 169.0 142.0 L 169.0 143.0 " stroke="black" fill="none" stroke-width="5.0" stroke-linecap="round" stroke-linejoin="round" />
<path d="M 135.0 168.0 L 135.0 168.0 L 135.0 168.0 L 135.0 168.0 L 134.0 168.0 L 134.0 168.0 L 134.0 171.0 L 134.0 177.0 L 136.0 183.0 L 137.0 187.0 " stroke="black" fill="none" stroke-width="5.0" stroke-linecap="round" stroke-linejoin="round" />
<path d="M 136.0 170.0 L 136.0 170.0 L 136.0 170.0 L 136.0 170.0 L 139.0 169.0 L 146.0 169.0 L 154.0 168.0 L 162.0 167.0 L 167.0 167.0 L 171.0 169.0 L 173.0 174.0 L 175.0 180.0 L 175.0 185.0 L 175.0 188.0 L 173.0 189.0 L 169.0 189.0 L 165.0 188.0 " stroke="black" fill="none" stroke-width="5.0" stroke-linecap="round" stroke-linejoin="round" />
<path d="M 149.0 154.0 L 149.0 154.0 L 148.0 154.0 L 148.0 154.0 L 148.0 159.0 L 151.0 175.0 L 154.0 197.0 L 157.0 210.0 L 158.0 216.0 L 158.0 216.0 " stroke="black" fill="none" stroke-width="5.0" stroke-linecap="round" stroke-linejoin="round" />
</svg>