<svg xmlns="http://www.w3.org/2000/svg" width="300" height="300" viewBox="0 0 300 300">
<path d="M 141.0 104.0 L 141.0 105.0 L 141.0 107.0 L 140.0 110.0 L 139.0 114.0 L 136.0 121.0 L 130.0 131.0 L 121.0 139.0 L 119.0 140.0 " stroke="black" fill="none" stroke-width="5.0" stroke-linecap="round" stroke-linejoin="round" />
<path d="M 137.0 120.0 L 137.0 121.0 L 136.0 122.0 L 139.0 122.0 L 144.0 122.0 L 152.0 120.0 L 160.0 119.0 L 166.0 118.0 L 169.0 118.0 " stroke="black" fill="none" stroke-width="5.0" stroke-linecap="round" stroke-linejoin="round" />
<path d="M 135.0 141.0 L 135.0 141.0 L 136.0 141.0 L 137.0 141.0 L 142.0 140.0 L 150.0 139.0 L 157.0 139.0 L 161.0 139.0 L 161.0 139.0 " stroke="black" fill="none" stroke-width="5.0" stroke-linecap="round" stroke-linejoin="round" />
<path d="M 139.0 145.0 L 139.0 145.0 L 139.0 146.0 L 139.0 149.0 L 139.0 155.0 L 139.0 160.0 " stroke="black" fill="none" stroke-width="5.0" stroke-linecap="round" stroke-linejoin="round" />
<path d="M 119.0 169.0 L 119.0 169.0 L 120.0 169.0 L 126.0 169.0 L 141.0 168.0 L 160.0 166.0 L 173.0 166.0 L 179.0 166.0 L 179.0 167.0 " stroke="black" fill="none" stroke-width="5.0" stroke-linecap="round" stroke-linejoin="round" />
<path d="M 151.0 121.0 L 151.0 121.0 L 150.0 122.0 L 150.0 128.0 L 152.0 147.0 L 155.0 172.0 L 156.0 193.0 L 157.0 201.0 L 157.0 204.0 " stroke="black" fill="none" stroke-width="5.0" stroke-linecap="round" stroke-linejoin="round" />
</svg>