<svg xmlns="http://www.w3.org/2000/svg" width="300" height="300" viewBox="0 0 300 300">
<path d="M 121.0 126.0 L 122.0 126.0 L 122.0 127.0 L 122.0 127.0 L 124.0 127.0 L 126.0 127.0 L 130.0 127.0 L 133.0 127.0 L 134.0 127.0 L 135.0 128.0 L 135.0 131.0 L 133.0 134.0 L 130.0 138.0 L 125.0 143.0 L 121.0 148.0 L 118.0 152.0 L 117.0 154.0 L 120.0 154.0 L 124.0 153.0 L 129.0 153.0 L 133.0 152.0 L 135.0 152.0 L 137.0 153.0 L 137.0 155.0 L 135.0 160.0 L 131.0 166.0 L 126.0 173.0 L 120.0 181.0 L 114.0 188.0 L 113.0 190.0 " stroke="black" fill="none" stroke-width="5.0" stroke-linecap="round" stroke-linejoin="round" />
<path d="M 109.0 167.0 L 110.0 168.0 L 113.0 169.0 L 123.0 173.0 L 142.0 180.0 L 160.0 188.0 L 173.0 193.0 L 177.0 194.0 " stroke="black" fill="none" stroke-width="5.0" stroke-linecap="round" stroke-linejoin="round" />
<path d="M 155.0 114.0 L 155.0 114.0 L 155.0 114.0 L 155.0 114.0 L 155.0 114.0 L 158.0 114.0 L 162.0 114.0 L 166.0 114.0 L 170.0 114.0 L 173.0 117.0 L 175.0 122.0 L 178.0 128.0 L 180.0 134.0 L 180.0 138.0 L 180.0 138.0 " stroke="black" fill="none" stroke-width="5.0" stroke-linecap="round" stroke-linejoin="round" />
<path d="M 147.0 130.0 L 147.0 130.0 L 147.0 130.0 L 149.0 130.0 L 156.0 128.0 L 170.0 126.0 L 182.0 125.0 L 189.0 126.0 L 189.0 126.0 " stroke="black" fill="none" stroke-width="5.0" stroke-linecap="round" stroke-linejoin="round" />
<path d="M 155.0 142.0 L 155.0 142.0 L 156.0 143.0 L 157.0 143.0 L 164.0 143.0 L 175.0 141.0 L 184.0 139.0 L 187.0 139.0 L 187.0 140.0 " stroke="black" fill="none" stroke-width="5.0" stroke-linecap="round" stroke-linejoin="round" />
<path d="M 153.0 155.0 L 154.0 155.0 L 156.0 156.0 L 163.0 156.0 L 174.0 155.0 L 179.0 154.0 " stroke="black" fill="none" stroke-width="5.0" stroke-linecap="round" stroke-linejoin="round" />
<path d="M 144.0 172.0 L 145.0 172.0 L 149.0 172.0 L 155.0 172.0 L 168.0 171.0 L 182.0 170.0 L 192.0 170.0 L 193.0 170.0 " stroke="black" fill="none" stroke-width="5.0" stroke-linecap="round" stroke-linejoin="round" />
<path d="M 162.0 107.0 L 162.0 107.0 L 162.0 107.0 L 163.0 112.0 L 167.0 135.0 L 171.0 165.0 L 173.0 185.0 L 173.0 190.0 " stroke="black" fill="none" stroke-width="5.0" stroke-linecap="round" stroke-linejoin="round" />
</svg>