<svg xmlns="http://www.w3.org/2000/svg" width="300" height="300" viewBox="0 0 300 300">
<path d="M 142.5 106.66666666666667 L 142.5 106.66666666666667 L 142.5 106.66666666666667 L 143.33333333333331 106.66666666666667 L 143.33333333333331 107.49999999999999 L 145.0 109.99999999999999 L 146.66666666666669 112.49999999999999 " stroke="black" fill="none" stroke-width="5.0" stroke-linecap="round" stroke-linejoin="round" />
<path d="M 126.66666666666667 119.99999999999999 L 126.66666666666667 119.99999999999999 L 126.66666666666667 119.99999999999999 L 128.33333333333331 120.83333333333333 L 132.5 120.83333333333333 L 141.66666666666669 119.16666666666667 L 155.0 116.66666666666667 L 165.83333333333331 114.99999999999999 L 172.5 113.33333333333333 L 173.33333333333331 113.33333333333333 " stroke="black" fill="none" stroke-width="5.0" stroke-linecap="round" stroke-linejoin="round" />
<path d="M 140.83333333333331 122.49999999999999 L 140.0 122.49999999999999 L 140.0 122.49999999999999 L 139.16666666666669 123.33333333333333 L 139.16666666666669 125.83333333333333 L 141.66666666666669 130.0 L 143.33333333333331 132.5 " stroke="black" fill="none" stroke-width="5.0" stroke-linecap="round" stroke-linejoin="round" />
<path d="M 161.66666666666663 117.49999999999999 L 161.66666666666663 117.49999999999999 L 161.66666666666663 118.33333333333333 L 161.66666666666663 119.99999999999999 L 160.83333333333331 122.49999999999999 L 160.0 127.49999999999999 L 158.33333333333331 131.66666666666669 " stroke="black" fill="none" stroke-width="5.0" stroke-linecap="round" stroke-linejoin="round" />
<path d="M 114.16666666666667 144.16666666666669 L 114.16666666666667 144.16666666666669 L 113.33333333333333 144.16666666666669 L 113.33333333333333 145.83333333333331 L 113.33333333333333 150.0 L 114.16666666666667 154.16666666666669 L 114.99999999999999 155.83333333333331 " stroke="black" fill="none" stroke-width="5.0" stroke-linecap="round" stroke-linejoin="round" />
<path d="M 114.99999999999999 142.5 L 114.99999999999999 142.5 L 114.99999999999999 142.5 L 115.83333333333333 142.5 L 119.16666666666667 141.66666666666669 L 126.66666666666667 140.83333333333331 L 140.0 139.16666666666669 L 151.66666666666669 138.33333333333331 L 162.5 136.66666666666669 L 172.5 135.83333333333331 L 179.16666666666663 135.0 L 182.5 135.0 L 183.33333333333331 135.83333333333331 L 184.16666666666663 137.5 L 184.16666666666663 140.0 L 185.0 143.33333333333331 L 185.0 147.5 L 185.0 150.83333333333331 " stroke="black" fill="none" stroke-width="5.0" stroke-linecap="round" stroke-linejoin="round" />
<path d="M 130.0 158.33333333333331 L 130.0 158.33333333333331 L 130.0 158.33333333333331 L 129.16666666666669 158.33333333333331 L 129.16666666666669 160.83333333333331 L 129.16666666666669 165.83333333333331 L 130.0 175.0 L 131.66666666666669 181.66666666666663 " stroke="black" fill="none" stroke-width="5.0" stroke-linecap="round" stroke-linejoin="round" />
<path d="M 136.66666666666669 160.83333333333331 L 136.66666666666669 160.83333333333331 L 136.66666666666669 160.83333333333331 L 136.66666666666669 160.83333333333331 L 136.66666666666669 160.83333333333331 L 139.16666666666669 160.0 L 144.16666666666669 159.16666666666663 L 151.66666666666669 157.5 L 160.83333333333331 156.66666666666663 L 169.16666666666663 155.0 L 174.16666666666663 155.0 L 176.66666666666663 155.0 L 178.33333333333331 156.66666666666663 L 180.0 160.83333333333331 L 180.83333333333331 167.5 L 182.5 173.33333333333331 L 182.5 177.5 L 182.5 179.16666666666663 L 180.0 180.0 L 176.66666666666663 180.0 L 171.66666666666663 180.0 L 168.33333333333331 178.33333333333331 " stroke="black" fill="none" stroke-width="5.0" stroke-linecap="round" stroke-linejoin="round" />
<path d="M 150.83333333333331 140.0 L 150.83333333333331 140.0 L 150.83333333333331 139.16666666666669 L 150.83333333333331 139.16666666666669 L 150.83333333333331 139.16666666666669 L 150.83333333333331 140.83333333333331 L 150.83333333333331 147.5 L 150.83333333333331 160.83333333333331 L 150.83333333333331 180.83333333333331 L 150.83333333333331 195.83333333333331 L 150.83333333333331 202.5 L 150.83333333333331 203.33333333333331 L 150.83333333333331 202.5 L 150.83333333333331 202.5 " stroke="black" fill="none" stroke-width="5.0" stroke-linecap="round" stroke-linejoin="round" />
</svg>