<svg xmlns="http://www.w3.org/2000/svg" width="300" height="300" viewBox="0 0 300 300">
<path d="M 143.0 95.0 L 143.0 95.0 L 143.0 96.0 L 145.0 98.0 L 147.0 103.0 L 148.0 104.0 " stroke="black" fill="none" stroke-width="5.0" stroke-linecap="round" stroke-linejoin="round" />
<path d="M 122.0 113.0 L 122.0 113.0 L 123.0 113.0 L 124.0 113.0 L 130.0 113.0 L 143.0 111.0 L 156.0 110.0 L 165.0 109.0 L 168.0 109.0 " stroke="black" fill="none" stroke-width="5.0" stroke-linecap="round" stroke-linejoin="round" />
<path d="M 123.0 116.0 L 123.0 116.0 L 123.0 116.0 L 123.0 117.0 L 123.0 120.0 L 123.0 132.0 L 122.0 152.0 L 119.0 173.0 L 117.0 187.0 L 116.0 191.0 " stroke="black" fill="none" stroke-width="5.0" stroke-linecap="round" stroke-linejoin="round" />
<path d="M 145.0 123.0 L 145.0 123.0 L 145.0 123.0 L 145.0 123.0 L 145.0 123.0 L 145.0 125.0 L 145.0 129.0 L 145.0 135.0 L 145.0 140.0 L 145.0 142.0 L 148.0 143.0 L 151.0 143.0 L 155.0 141.0 L 157.0 141.0 " stroke="black" fill="none" stroke-width="5.0" stroke-linecap="round" stroke-linejoin="round" />
<path d="M 157.0 122.0 L 157.0 122.0 L 157.0 122.0 L 156.0 122.0 L 156.0 124.0 L 156.0 130.0 L 157.0 138.0 L 157.0 140.0 " stroke="black" fill="none" stroke-width="5.0" stroke-linecap="round" stroke-linejoin="round" />
<path d="M 132.0 136.0 L 132.0 136.0 L 132.0 136.0 L 132.0 135.0 L 134.0 135.0 L 140.0 134.0 L 151.0 133.0 L 164.0 131.0 L 172.0 130.0 L 173.0 130.0 " stroke="black" fill="none" stroke-width="5.0" stroke-linecap="round" stroke-linejoin="round" />
<path d="M 133.0 156.0 L 133.0 156.0 L 133.0 156.0 L 133.0 156.0 L 134.0 156.0 L 137.0 155.0 L 146.0 154.0 L 156.0 153.0 L 164.0 153.0 " stroke="black" fill="none" stroke-width="5.0" stroke-linecap="round" stroke-linejoin="round" />
<path d="M 139.0 166.0 L 139.0 168.0 L 139.0 170.0 L 138.0 174.0 L 138.0 179.0 L 139.0 181.0 " stroke="black" fill="none" stroke-width="5.0" stroke-linecap="round" stroke-linejoin="round" />
<path d="M 141.0 164.0 L 141.0 164.0 L 142.0 164.0 L 143.0 163.0 L 146.0 163.0 L 150.0 162.0 L 156.0 162.0 L 161.0 162.0 L 166.0 164.0 L 169.0 169.0 L 171.0 174.0 L 171.0 179.0 L 171.0 181.0 " stroke="black" fill="none" stroke-width="5.0" stroke-linecap="round" stroke-linejoin="round" />
<path d="M 146.0 171.0 L 146.0 171.0 L 146.0 171.0 L 146.0 171.0 L 147.0 171.0 L 151.0 171.0 L 158.0 171.0 L 161.0 171.0 " stroke="black" fill="none" stroke-width="5.0" stroke-linecap="round" stroke-linejoin="round" />
<path d="M 154.0 163.0 L 154.0 163.0 L 154.0 165.0 L 154.0 168.0 L 154.0 175.0 L 154.0 179.0 " stroke="black" fill="none" stroke-width="5.0" stroke-linecap="round" stroke-linejoin="round" />
<path d="M 144.0 189.0 L 144.0 189.0 L 144.0 189.0 L 144.0 189.0 L 148.0 189.0 L 155.0 188.0 L 164.0 186.0 L 169.0 185.0 " stroke="black" fill="none" stroke-width="5.0" stroke-linecap="round" stroke-linejoin="round" />
<path d="M 150.0 191.0 L 150.0 191.0 L 150.0 191.0 L 150.0 191.0 L 150.0 192.0 L 149.0 196.0 L 147.0 200.0 L 147.0 201.0 " stroke="black" fill="none" stroke-width="5.0" stroke-linecap="round" stroke-linejoin="round" />
<path d="M 168.0 191.0 L 168.0 191.0 L 170.0 192.0 L 173.0 194.0 L 175.0 197.0 L 176.0 198.0 " stroke="black" fill="none" stroke-width="5.0" stroke-linecap="round" stroke-linejoin="round" />
</svg>