<svg xmlns="http://www.w3.org/2000/svg" width="300" height="300" viewBox="0 0 300 300">
<path d="M 142.0 105.0 L 142.0 105.0 L 142.0 106.0 L 143.0 108.0 L 146.0 112.0 L 150.0 114.0 " stroke="black" fill="none" stroke-width="5.0" stroke-linecap="round" stroke-linejoin="round" />
<path d="M 120.0 127.0 L 120.0 127.0 L 121.0 127.0 L 124.0 127.0 L 136.0 126.0 L 152.0 124.0 L 166.0 122.0 L 171.0 121.0 " stroke="black" fill="none" stroke-width="5.0" stroke-linecap="round" stroke-linejoin="round" />
<path d="M 126.0 131.0 L 126.0 131.0 L 126.0 130.0 L 126.0 130.0 L 125.0 135.0 L 122.0 149.0 L 117.0 170.0 L 111.0 189.0 L 108.0 198.0 " stroke="black" fill="none" stroke-width="5.0" stroke-linecap="round" stroke-linejoin="round" />
<path d="M 146.0 138.0 L 146.0 138.0 L 146.0 138.0 L 146.0 137.0 L 146.0 138.0 L 145.0 141.0 L 142.0 148.0 L 135.0 159.0 L 127.0 168.0 " stroke="black" fill="none" stroke-width="5.0" stroke-linecap="round" stroke-linejoin="round" />
<path d="M 137.0 158.0 L 137.0 158.0 L 137.0 158.0 L 137.0 158.0 L 137.0 158.0 L 137.0 161.0 L 137.0 169.0 L 137.0 182.0 L 138.0 187.0 " stroke="black" fill="none" stroke-width="5.0" stroke-linecap="round" stroke-linejoin="round" />
<path d="M 152.0 150.0 L 152.0 150.0 L 152.0 150.0 L 153.0 150.0 L 158.0 150.0 L 166.0 148.0 L 174.0 148.0 L 178.0 148.0 " stroke="black" fill="none" stroke-width="5.0" stroke-linecap="round" stroke-linejoin="round" />
<path d="M 164.0 138.0 L 164.0 138.0 L 163.0 138.0 L 163.0 140.0 L 167.0 151.0 L 172.0 167.0 L 176.0 183.0 L 177.0 193.0 L 177.0 197.0 L 176.0 199.0 L 173.0 199.0 L 168.0 199.0 L 162.0 196.0 " stroke="black" fill="none" stroke-width="5.0" stroke-linecap="round" stroke-linejoin="round" />
<path d="M 150.0 172.0 L 150.0 172.0 L 150.0 173.0 L 151.0 174.0 L 154.0 176.0 L 159.0 179.0 L 162.0 181.0 " stroke="black" fill="none" stroke-width="5.0" stroke-linecap="round" stroke-linejoin="round" />
</svg>