<svg xmlns="http://www.w3.org/2000/svg" width="300" height="300" viewBox="0 0 300 300">
<path d="M 130.0 113.33333333333333 L 130.0 114.16666666666667 L 130.0 114.99999999999999 L 130.0 116.66666666666667 L 128.33333333333331 119.99999999999999 L 125.83333333333333 124.16666666666667 L 124.16666666666667 127.49999999999999 L 123.33333333333333 129.16666666666669 L 123.33333333333333 130.0 L 124.99999999999999 130.0 L 129.16666666666669 129.16666666666669 L 133.33333333333331 129.16666666666669 L 136.66666666666669 128.33333333333331 L 139.16666666666669 128.33333333333331 L 140.83333333333331 128.33333333333331 L 140.83333333333331 128.33333333333331 L 140.83333333333331 130.0 L 141.66666666666669 133.33333333333331 L 142.5 137.5 L 143.33333333333331 141.66666666666669 L 143.33333333333331 143.33333333333331 L 143.33333333333331 143.33333333333331 L 140.83333333333331 143.33333333333331 L 136.66666666666669 143.33333333333331 L 130.0 144.16666666666669 L 124.16666666666667 145.0 L 123.33333333333333 145.83333333333331 " stroke="black" fill="none" stroke-width="5.0" stroke-linecap="round" stroke-linejoin="round" />
<path d="M 120.83333333333333 133.33333333333331 L 121.66666666666667 133.33333333333331 L 121.66666666666667 134.16666666666669 L 121.66666666666667 136.66666666666669 L 121.66666666666667 144.16666666666669 L 120.83333333333333 158.33333333333331 L 119.99999999999999 174.16666666666663 L 119.99999999999999 184.16666666666663 L 119.99999999999999 186.66666666666663 " stroke="black" fill="none" stroke-width="5.0" stroke-linecap="round" stroke-linejoin="round" />
<path d="M 121.66666666666667 164.16666666666663 L 122.49999999999999 165.0 L 122.49999999999999 165.0 L 123.33333333333333 165.83333333333331 L 124.16666666666667 165.83333333333331 L 126.66666666666667 165.83333333333331 L 131.66666666666669 165.83333333333331 L 136.66666666666669 165.0 L 140.0 164.16666666666663 L 142.5 164.16666666666663 L 143.33333333333331 165.83333333333331 L 143.33333333333331 171.66666666666663 L 144.16666666666669 178.33333333333331 L 144.16666666666669 183.33333333333331 L 144.16666666666669 185.83333333333331 L 144.16666666666669 186.66666666666663 L 140.0 186.66666666666663 L 131.66666666666669 186.66666666666663 L 121.66666666666667 186.66666666666663 L 116.66666666666667 186.66666666666663 " stroke="black" fill="none" stroke-width="5.0" stroke-linecap="round" stroke-linejoin="round" />
<path d="M 156.66666666666663 119.99999999999999 L 156.66666666666663 119.99999999999999 L 156.66666666666663 120.83333333333333 L 156.66666666666663 120.83333333333333 L 158.33333333333331 120.83333333333333 L 165.83333333333331 119.99999999999999 L 175.83333333333331 118.33333333333333 " stroke="black" fill="none" stroke-width="5.0" stroke-linecap="round" stroke-linejoin="round" />
<path d="M 153.33333333333331 140.83333333333331 L 153.33333333333331 140.83333333333331 L 154.16666666666669 140.0 L 154.16666666666669 140.0 L 154.16666666666669 141.66666666666669 L 154.16666666666669 149.16666666666669 L 155.0 156.66666666666663 L 155.83333333333331 162.5 L 156.66666666666663 163.33333333333331 " stroke="black" fill="none" stroke-width="5.0" stroke-linecap="round" stroke-linejoin="round" />
<path d="M 154.16666666666669 137.5 L 154.16666666666669 137.5 L 154.16666666666669 138.33333333333331 L 154.16666666666669 138.33333333333331 L 155.83333333333331 138.33333333333331 L 161.66666666666663 136.66666666666669 L 168.33333333333331 135.0 L 174.16666666666663 135.0 L 180.0 136.66666666666669 L 183.33333333333331 140.0 L 185.83333333333331 144.16666666666669 L 187.5 151.66666666666669 L 187.5 159.16666666666663 L 186.66666666666663 166.66666666666663 L 185.83333333333331 170.0 L 184.16666666666663 170.83333333333331 L 180.83333333333331 168.33333333333331 L 178.33333333333331 166.66666666666663 " stroke="black" fill="none" stroke-width="5.0" stroke-linecap="round" stroke-linejoin="round" />
<path d="M 165.0 124.16666666666667 L 165.0 123.33333333333333 L 164.16666666666663 123.33333333333333 L 163.33333333333331 123.33333333333333 L 164.16666666666663 132.5 L 167.5 154.16666666666669 L 170.83333333333331 179.16666666666663 L 172.5 195.83333333333331 L 174.16666666666663 200.0 " stroke="black" fill="none" stroke-width="5.0" stroke-linecap="round" stroke-linejoin="round" />
</svg>