<svg xmlns="http://www.w3.org/2000/svg" width="300" height="300" viewBox="0 0 300 300">
<path d="M 143.0 100.0 L 143.0 100.0 L 143.0 100.0 L 143.0 100.0 L 143.0 100.0 L 145.0 101.0 L 148.0 105.0 L 151.0 107.0 " stroke="black" fill="none" stroke-width="5.0" stroke-linecap="round" stroke-linejoin="round" />
<path d="M 122.0 118.0 L 122.0 118.0 L 122.0 118.0 L 124.0 118.0 L 130.0 119.0 L 144.0 118.0 L 159.0 116.0 L 168.0 116.0 L 172.0 116.0 L 173.0 118.0 " stroke="black" fill="none" stroke-width="5.0" stroke-linecap="round" stroke-linejoin="round" />
<path d="M 116.0 123.0 L 116.0 123.0 L 116.0 123.0 L 116.0 123.0 L 116.0 125.0 L 116.0 133.0 L 113.0 152.0 L 106.0 175.0 L 101.0 187.0 L 100.0 189.0 " stroke="black" fill="none" stroke-width="5.0" stroke-linecap="round" stroke-linejoin="round" />
<path d="M 128.0 142.0 L 128.0 142.0 L 128.0 142.0 L 129.0 142.0 L 133.0 142.0 L 140.0 142.0 L 146.0 141.0 L 147.0 141.0 " stroke="black" fill="none" stroke-width="5.0" stroke-linecap="round" stroke-linejoin="round" />
<path d="M 138.0 126.0 L 138.0 126.0 L 138.0 126.0 L 138.0 128.0 L 138.0 138.0 L 139.0 154.0 L 139.0 170.0 L 139.0 182.0 L 139.0 185.0 L 140.0 185.0 L 140.0 185.0 " stroke="black" fill="none" stroke-width="5.0" stroke-linecap="round" stroke-linejoin="round" />
<path d="M 139.0 148.0 L 139.0 148.0 L 138.0 148.0 L 138.0 147.0 L 137.0 148.0 L 133.0 155.0 L 125.0 168.0 L 116.0 181.0 L 111.0 186.0 " stroke="black" fill="none" stroke-width="5.0" stroke-linecap="round" stroke-linejoin="round" />
<path d="M 135.0 155.0 L 135.0 154.0 L 135.0 154.0 L 137.0 154.0 L 143.0 159.0 L 149.0 165.0 L 153.0 171.0 L 154.0 172.0 " stroke="black" fill="none" stroke-width="5.0" stroke-linecap="round" stroke-linejoin="round" />
<path d="M 156.0 135.0 L 157.0 134.0 L 157.0 134.0 L 157.0 134.0 L 157.0 136.0 L 157.0 147.0 L 157.0 165.0 L 157.0 181.0 L 157.0 188.0 L 157.0 189.0 " stroke="black" fill="none" stroke-width="5.0" stroke-linecap="round" stroke-linejoin="round" />
<path d="M 156.0 136.0 L 156.0 136.0 L 156.0 135.0 L 157.0 135.0 L 159.0 135.0 L 162.0 135.0 L 165.0 135.0 L 169.0 136.0 L 172.0 140.0 L 176.0 147.0 L 179.0 160.0 L 181.0 174.0 L 182.0 183.0 L 182.0 188.0 L 182.0 190.0 L 181.0 190.0 " stroke="black" fill="none" stroke-width="5.0" stroke-linecap="round" stroke-linejoin="round" />
<path d="M 159.0 152.0 L 159.0 152.0 L 160.0 152.0 L 160.0 152.0 L 163.0 152.0 L 167.0 151.0 L 172.0 151.0 L 175.0 151.0 L 176.0 151.0 " stroke="black" fill="none" stroke-width="5.0" stroke-linecap="round" stroke-linejoin="round" />
<path d="M 160.0 163.0 L 161.0 163.0 L 162.0 163.0 L 165.0 164.0 L 169.0 164.0 L 173.0 165.0 L 177.0 165.0 L 178.0 165.0 " stroke="black" fill="none" stroke-width="5.0" stroke-linecap="round" stroke-linejoin="round" />
<path d="M 156.0 188.0 L 156.0 188.0 L 157.0 188.0 L 160.0 188.0 L 166.0 189.0 L 174.0 189.0 L 181.0 189.0 L 183.0 190.0 " stroke="black" fill="none" stroke-width="5.0" stroke-linecap="round" stroke-linejoin="round" />
</svg>