<svg xmlns="http://www.w3.org/2000/svg" width="300" height="300" viewBox="0 0 300 300">
<path d="M 119.0 135.0 L 119.0 135.0 L 119.0 135.0 L 119.0 134.0 L 119.0 136.0 L 119.0 142.0 L 119.0 150.0 L 119.0 153.0 " stroke="black" fill="none" stroke-width="5.0" stroke-linecap="round" stroke-linejoin="round" />
<path d="M 118.0 135.0 L 118.0 135.0 L 118.0 134.0 L 118.0 133.0 L 122.0 133.0 L 128.0 132.0 L 136.0 131.0 L 142.0 131.0 L 147.0 137.0 L 148.0 142.0 L 149.0 147.0 L 149.0 151.0 L 148.0 152.0 L 145.0 153.0 L 142.0 153.0 " stroke="black" fill="none" stroke-width="5.0" stroke-linecap="round" stroke-linejoin="round" />
<path d="M 130.0 111.0 L 130.0 111.0 L 130.0 111.0 L 130.0 111.0 L 130.0 112.0 L 130.0 121.0 L 132.0 144.0 L 134.0 174.0 L 135.0 194.0 L 136.0 200.0 L 137.0 201.0 " stroke="black" fill="none" stroke-width="5.0" stroke-linecap="round" stroke-linejoin="round" />
<path d="M 157.0 114.0 L 157.0 114.0 L 157.0 114.0 L 159.0 114.0 L 164.0 113.0 L 172.0 113.0 L 181.0 112.0 " stroke="black" fill="none" stroke-width="5.0" stroke-linecap="round" stroke-linejoin="round" />
<path d="M 159.0 115.0 L 159.0 115.0 L 159.0 116.0 L 159.0 119.0 L 159.0 130.0 L 160.0 145.0 L 160.0 158.0 L 161.0 162.0 L 161.0 162.0 " stroke="black" fill="none" stroke-width="5.0" stroke-linecap="round" stroke-linejoin="round" />
<path d="M 162.0 130.0 L 162.0 130.0 L 162.0 130.0 L 163.0 130.0 L 168.0 129.0 L 175.0 127.0 L 181.0 126.0 L 182.0 126.0 " stroke="black" fill="none" stroke-width="5.0" stroke-linecap="round" stroke-linejoin="round" />
<path d="M 163.0 144.0 L 163.0 144.0 L 163.0 144.0 L 165.0 144.0 L 173.0 142.0 L 181.0 141.0 L 185.0 141.0 " stroke="black" fill="none" stroke-width="5.0" stroke-linecap="round" stroke-linejoin="round" />
<path d="M 151.0 165.0 L 151.0 165.0 L 151.0 166.0 L 155.0 166.0 L 164.0 164.0 L 177.0 161.0 L 187.0 159.0 L 189.0 159.0 " stroke="black" fill="none" stroke-width="5.0" stroke-linecap="round" stroke-linejoin="round" />
<path d="M 164.0 167.0 L 164.0 167.0 L 164.0 168.0 L 163.0 171.0 L 163.0 179.0 L 164.0 188.0 L 167.0 195.0 L 172.0 198.0 L 178.0 196.0 L 180.0 194.0 " stroke="black" fill="none" stroke-width="5.0" stroke-linecap="round" stroke-linejoin="round" />
<path d="M 197.0 168.0 L 197.0 168.0 L 197.0 168.0 L 196.0 170.0 L 193.0 174.0 L 190.0 181.0 L 186.0 186.0 " stroke="black" fill="none" stroke-width="5.0" stroke-linecap="round" stroke-linejoin="round" />
<path d="M 169.0 169.0 L 169.0 169.0 L 171.0 172.0 L 177.0 178.0 L 187.0 190.0 L 195.0 201.0 L 197.0 208.0 L 197.0 210.0 " stroke="black" fill="none" stroke-width="5.0" stroke-linecap="round" stroke-linejoin="round" />
</svg>