<svg xmlns="http://www.w3.org/2000/svg" width="300" height="300" viewBox="0 0 300 300">
<path d="M 142.0 105.0 L 142.0 105.0 L 142.0 105.0 L 141.0 105.0 L 141.0 105.0 L 143.0 108.0 L 147.0 113.0 L 150.0 118.0 " stroke="black" fill="none" stroke-width="5.0" stroke-linecap="round" stroke-linejoin="round" />
<path d="M 125.0 124.0 L 126.0 124.0 L 128.0 124.0 L 130.0 124.0 L 135.0 124.0 L 145.0 123.0 L 156.0 121.0 L 164.0 120.0 L 166.0 120.0 " stroke="black" fill="none" stroke-width="5.0" stroke-linecap="round" stroke-linejoin="round" />
<path d="M 124.0 132.0 L 124.0 132.0 L 124.0 132.0 L 123.0 134.0 L 123.0 141.0 L 123.0 156.0 L 121.0 175.0 L 118.0 192.0 L 117.0 200.0 L 116.0 202.0 " stroke="black" fill="none" stroke-width="5.0" stroke-linecap="round" stroke-linejoin="round" />
<path d="M 143.0 135.0 L 143.0 135.0 L 143.0 135.0 L 143.0 135.0 L 143.0 135.0 L 143.0 136.0 L 143.0 140.0 L 143.0 146.0 L 144.0 152.0 L 146.0 155.0 L 149.0 157.0 L 153.0 157.0 L 157.0 156.0 " stroke="black" fill="none" stroke-width="5.0" stroke-linecap="round" stroke-linejoin="round" />
<path d="M 156.0 134.0 L 156.0 134.0 L 156.0 134.0 L 156.0 134.0 L 156.0 137.0 L 157.0 145.0 L 157.0 153.0 L 157.0 159.0 " stroke="black" fill="none" stroke-width="5.0" stroke-linecap="round" stroke-linejoin="round" />
<path d="M 129.0 148.0 L 129.0 148.0 L 129.0 148.0 L 129.0 147.0 L 131.0 147.0 L 136.0 146.0 L 146.0 145.0 L 156.0 144.0 L 165.0 144.0 L 170.0 144.0 L 171.0 144.0 L 171.0 144.0 L 170.0 144.0 " stroke="black" fill="none" stroke-width="5.0" stroke-linecap="round" stroke-linejoin="round" />
<path d="M 139.0 177.0 L 139.0 177.0 L 139.0 177.0 L 138.0 177.0 L 138.0 177.0 L 138.0 180.0 L 138.0 184.0 L 138.0 189.0 " stroke="black" fill="none" stroke-width="5.0" stroke-linecap="round" stroke-linejoin="round" />
<path d="M 151.0 175.0 L 151.0 175.0 L 151.0 175.0 L 151.0 176.0 L 151.0 178.0 L 152.0 181.0 L 153.0 186.0 L 154.0 188.0 " stroke="black" fill="none" stroke-width="5.0" stroke-linecap="round" stroke-linejoin="round" />
<path d="M 167.0 174.0 L 168.0 175.0 L 169.0 178.0 L 170.0 182.0 L 171.0 186.0 L 172.0 191.0 " stroke="black" fill="none" stroke-width="5.0" stroke-linecap="round" stroke-linejoin="round" />
<path d="M 192.0 177.0 L 193.0 180.0 L 194.0 184.0 L 195.0 187.0 L 196.0 189.0 " stroke="black" fill="none" stroke-width="5.0" stroke-linecap="round" stroke-linejoin="round" />
</svg>