<svg xmlns="http://www.w3.org/2000/svg" width="300" height="300" viewBox="0 0 300 300">
<path d="M 140.0 98.0 L 140.0 98.0 L 140.0 99.0 L 141.0 102.0 L 145.0 106.0 L 149.0 110.0 " stroke="black" fill="none" stroke-width="5.0" stroke-linecap="round" stroke-linejoin="round" />
<path d="M 119.0 119.0 L 120.0 119.0 L 120.0 119.0 L 124.0 119.0 L 135.0 118.0 L 152.0 116.0 L 164.0 115.0 L 168.0 115.0 L 168.0 116.0 " stroke="black" fill="none" stroke-width="5.0" stroke-linecap="round" stroke-linejoin="round" />
<path d="M 120.0 122.0 L 120.0 122.0 L 120.0 122.0 L 120.0 123.0 L 120.0 125.0 L 118.0 136.0 L 114.0 156.0 L 109.0 179.0 L 105.0 192.0 L 105.0 194.0 " stroke="black" fill="none" stroke-width="5.0" stroke-linecap="round" stroke-linejoin="round" />
<path d="M 136.0 130.0 L 136.0 130.0 L 136.0 130.0 L 136.0 130.0 L 137.0 131.0 L 138.0 134.0 L 139.0 135.0 " stroke="black" fill="none" stroke-width="5.0" stroke-linecap="round" stroke-linejoin="round" />
<path d="M 128.0 142.0 L 129.0 142.0 L 131.0 143.0 L 133.0 143.0 L 137.0 141.0 L 142.0 139.0 L 145.0 138.0 L 147.0 138.0 L 147.0 138.0 L 147.0 139.0 L 148.0 142.0 L 148.0 148.0 L 148.0 156.0 L 148.0 162.0 L 148.0 164.0 " stroke="black" fill="none" stroke-width="5.0" stroke-linecap="round" stroke-linejoin="round" />
<path d="M 131.0 154.0 L 131.0 154.0 L 131.0 154.0 L 132.0 154.0 L 136.0 154.0 L 142.0 154.0 L 147.0 153.0 " stroke="black" fill="none" stroke-width="5.0" stroke-linecap="round" stroke-linejoin="round" />
<path d="M 128.0 167.0 L 131.0 168.0 L 137.0 168.0 L 143.0 168.0 L 146.0 167.0 " stroke="black" fill="none" stroke-width="5.0" stroke-linecap="round" stroke-linejoin="round" />
<path d="M 132.0 145.0 L 132.0 145.0 L 132.0 147.0 L 131.0 150.0 L 129.0 158.0 L 127.0 171.0 L 125.0 184.0 L 125.0 191.0 L 126.0 193.0 L 132.0 191.0 L 139.0 188.0 L 145.0 185.0 L 148.0 184.0 L 150.0 184.0 L 152.0 187.0 L 154.0 190.0 L 155.0 190.0 " stroke="black" fill="none" stroke-width="5.0" stroke-linecap="round" stroke-linejoin="round" />
<path d="M 160.0 134.0 L 160.0 134.0 L 160.0 134.0 L 160.0 134.0 L 161.0 134.0 L 164.0 135.0 L 169.0 137.0 L 173.0 139.0 L 175.0 142.0 L 176.0 144.0 L 176.0 146.0 L 174.0 147.0 L 173.0 149.0 L 173.0 152.0 L 175.0 154.0 L 177.0 157.0 L 177.0 159.0 L 176.0 162.0 L 173.0 164.0 L 170.0 164.0 " stroke="black" fill="none" stroke-width="5.0" stroke-linecap="round" stroke-linejoin="round" />
<path d="M 156.0 133.0 L 156.0 135.0 L 156.0 140.0 L 158.0 154.0 L 161.0 174.0 L 164.0 192.0 L 165.0 202.0 L 166.0 205.0 " stroke="black" fill="none" stroke-width="5.0" stroke-linecap="round" stroke-linejoin="round" />
</svg>