<svg xmlns="http://www.w3.org/2000/svg" width="300" height="300" viewBox="0 0 300 300">
<path d="M 144.0 102.0 L 144.0 103.0 L 144.0 105.0 L 147.0 109.0 L 149.0 112.0 " stroke="black" fill="none" stroke-width="5.0" stroke-linecap="round" stroke-linejoin="round" />
<path d="M 120.0 123.0 L 120.0 123.0 L 121.0 123.0 L 130.0 123.0 L 148.0 121.0 L 168.0 120.0 L 180.0 120.0 " stroke="black" fill="none" stroke-width="5.0" stroke-linecap="round" stroke-linejoin="round" />
<path d="M 130.0 146.0 L 130.0 146.0 L 130.0 146.0 L 129.0 148.0 L 128.0 158.0 L 129.0 173.0 L 132.0 182.0 L 134.0 183.0 " stroke="black" fill="none" stroke-width="5.0" stroke-linecap="round" stroke-linejoin="round" />
<path d="M 131.0 150.0 L 131.0 150.0 L 131.0 150.0 L 131.0 149.0 L 136.0 148.0 L 148.0 146.0 L 162.0 144.0 L 179.0 146.0 L 183.0 154.0 L 185.0 163.0 L 186.0 172.0 L 186.0 177.0 L 184.0 179.0 L 179.0 179.0 L 171.0 176.0 " stroke="black" fill="none" stroke-width="5.0" stroke-linecap="round" stroke-linejoin="round" />
<path d="M 150.0 122.0 L 150.0 122.0 L 150.0 122.0 L 150.0 123.0 L 150.0 131.0 L 155.0 152.0 L 160.0 183.0 L 162.0 207.0 L 162.0 213.0 " stroke="black" fill="none" stroke-width="5.0" stroke-linecap="round" stroke-linejoin="round" />
</svg>