<svg xmlns="http://www.w3.org/2000/svg" width="300" height="300" viewBox="0 0 300 300">
<path d="M 144.0 101.0 L 144.0 102.0 L 146.0 104.0 L 148.0 108.0 L 150.0 113.0 L 151.0 114.0 " stroke="black" fill="none" stroke-width="5.0" stroke-linecap="round" stroke-linejoin="round" />
<path d="M 124.0 127.0 L 124.0 127.0 L 124.0 127.0 L 127.0 126.0 L 138.0 124.0 L 156.0 122.0 L 170.0 121.0 L 177.0 121.0 L 178.0 122.0 " stroke="black" fill="none" stroke-width="5.0" stroke-linecap="round" stroke-linejoin="round" />
<path d="M 129.0 130.0 L 129.0 130.0 L 128.0 130.0 L 127.0 131.0 L 126.0 139.0 L 123.0 156.0 L 118.0 176.0 L 113.0 191.0 L 113.0 194.0 " stroke="black" fill="none" stroke-width="5.0" stroke-linecap="round" stroke-linejoin="round" />
<path d="M 137.0 149.0 L 137.0 149.0 L 137.0 149.0 L 137.0 149.0 L 138.0 148.0 L 142.0 148.0 L 146.0 148.0 L 149.0 148.0 L 151.0 148.0 L 151.0 151.0 L 150.0 154.0 L 147.0 158.0 L 143.0 162.0 L 141.0 165.0 L 140.0 167.0 L 140.0 167.0 L 143.0 167.0 L 147.0 167.0 L 150.0 167.0 L 151.0 167.0 L 152.0 167.0 L 152.0 170.0 L 150.0 174.0 L 147.0 182.0 L 141.0 191.0 L 134.0 200.0 L 132.0 203.0 " stroke="black" fill="none" stroke-width="5.0" stroke-linecap="round" stroke-linejoin="round" />
<path d="M 128.0 184.0 L 129.0 184.0 L 130.0 185.0 L 133.0 187.0 L 141.0 190.0 L 154.0 196.0 L 167.0 201.0 L 176.0 205.0 L 177.0 205.0 " stroke="black" fill="none" stroke-width="5.0" stroke-linecap="round" stroke-linejoin="round" />
<path d="M 181.0 144.0 L 181.0 144.0 L 180.0 144.0 L 179.0 144.0 L 176.0 146.0 L 171.0 151.0 L 167.0 154.0 " stroke="black" fill="none" stroke-width="5.0" stroke-linecap="round" stroke-linejoin="round" />
<path d="M 166.0 165.0 L 166.0 165.0 L 166.0 165.0 L 167.0 165.0 L 171.0 165.0 L 178.0 165.0 L 183.0 165.0 L 187.0 166.0 L 187.0 167.0 " stroke="black" fill="none" stroke-width="5.0" stroke-linecap="round" stroke-linejoin="round" />
<path d="M 155.0 184.0 L 155.0 184.0 L 155.0 185.0 L 155.0 186.0 L 160.0 186.0 L 172.0 186.0 L 185.0 184.0 L 193.0 184.0 L 194.0 184.0 " stroke="black" fill="none" stroke-width="5.0" stroke-linecap="round" stroke-linejoin="round" />
<path d="M 172.0 155.0 L 172.0 154.0 L 172.0 154.0 L 173.0 154.0 L 175.0 162.0 L 175.0 173.0 L 176.0 182.0 " stroke="black" fill="none" stroke-width="5.0" stroke-linecap="round" stroke-linejoin="round" />
</svg>