<svg xmlns="http://www.w3.org/2000/svg" width="300" height="300" viewBox="0 0 300 300">
<path d="M 119.0 117.0 L 119.0 117.0 L 121.0 117.0 L 121.0 117.0 L 122.0 118.0 L 124.0 118.0 L 126.0 118.0 L 129.0 118.0 L 132.0 118.0 L 134.0 118.0 L 134.0 118.0 L 135.0 118.0 L 135.0 119.0 L 135.0 123.0 L 135.0 128.0 L 135.0 132.0 L 135.0 135.0 L 135.0 136.0 L 134.0 137.0 L 131.0 137.0 L 128.0 136.0 L 125.0 135.0 L 122.0 135.0 L 120.0 135.0 L 119.0 135.0 L 118.0 135.0 L 117.0 135.0 L 116.0 138.0 L 115.0 142.0 L 114.0 146.0 L 113.0 149.0 L 113.0 151.0 L 113.0 153.0 L 115.0 153.0 L 119.0 153.0 L 125.0 153.0 L 131.0 153.0 L 135.0 153.0 L 138.0 153.0 L 139.0 155.0 L 140.0 161.0 L 141.0 170.0 L 143.0 181.0 L 144.0 191.0 L 145.0 198.0 L 145.0 202.0 L 143.0 204.0 L 139.0 204.0 L 131.0 204.0 L 120.0 201.0 " stroke="black" fill="none" stroke-width="5.0" stroke-linecap="round" stroke-linejoin="round" />
<path d="M 115.0 168.0 L 115.0 168.0 L 116.0 169.0 L 117.0 169.0 L 121.0 169.0 L 127.0 169.0 L 129.0 169.0 " stroke="black" fill="none" stroke-width="5.0" stroke-linecap="round" stroke-linejoin="round" />
<path d="M 112.0 186.0 L 112.0 185.0 L 113.0 185.0 L 117.0 184.0 L 126.0 183.0 L 134.0 181.0 " stroke="black" fill="none" stroke-width="5.0" stroke-linecap="round" stroke-linejoin="round" />
<path d="M 158.0 119.0 L 160.0 119.0 L 160.0 119.0 L 160.0 119.0 L 161.0 119.0 L 163.0 119.0 L 165.0 119.0 L 167.0 120.0 L 169.0 120.0 L 171.0 121.0 L 172.0 123.0 L 173.0 127.0 L 173.0 132.0 L 173.0 136.0 L 173.0 138.0 L 172.0 139.0 L 169.0 139.0 L 165.0 139.0 L 161.0 137.0 L 158.0 136.0 L 156.0 135.0 L 154.0 135.0 L 154.0 135.0 L 153.0 135.0 L 153.0 138.0 L 152.0 142.0 L 152.0 147.0 L 153.0 150.0 L 156.0 152.0 L 160.0 153.0 L 164.0 153.0 L 169.0 153.0 L 173.0 153.0 L 175.0 153.0 L 178.0 154.0 L 179.0 159.0 L 181.0 167.0 L 183.0 178.0 L 185.0 190.0 L 186.0 197.0 L 187.0 202.0 L 187.0 203.0 L 184.0 203.0 L 178.0 203.0 L 169.0 201.0 L 167.0 200.0 " stroke="black" fill="none" stroke-width="5.0" stroke-linecap="round" stroke-linejoin="round" />
<path d="M 154.0 168.0 L 154.0 168.0 L 155.0 169.0 L 156.0 170.0 L 158.0 171.0 L 161.0 172.0 L 165.0 172.0 L 168.0 172.0 " stroke="black" fill="none" stroke-width="5.0" stroke-linecap="round" stroke-linejoin="round" />
<path d="M 154.0 186.0 L 154.0 186.0 L 155.0 187.0 L 160.0 187.0 L 167.0 185.0 " stroke="black" fill="none" stroke-width="5.0" stroke-linecap="round" stroke-linejoin="round" />
</svg>