<svg xmlns="http://www.w3.org/2000/svg" width="300" height="300" viewBox="0 0 300 300">
<path d="M 134.0 116.0 L 134.0 116.0 L 133.0 116.0 L 132.0 117.0 L 131.0 119.0 L 127.0 124.0 L 121.0 133.0 L 115.0 140.0 " stroke="black" fill="none" stroke-width="5.0" stroke-linecap="round" stroke-linejoin="round" />
<path d="M 138.0 129.0 L 138.0 130.0 L 137.0 130.0 L 136.0 130.0 L 135.0 132.0 L 133.0 135.0 L 129.0 144.0 L 119.0 158.0 L 108.0 171.0 L 106.0 173.0 " stroke="black" fill="none" stroke-width="5.0" stroke-linecap="round" stroke-linejoin="round" />
<path d="M 129.0 149.0 L 129.0 149.0 L 128.0 150.0 L 128.0 154.0 L 128.0 164.0 L 129.0 177.0 L 129.0 180.0 " stroke="black" fill="none" stroke-width="5.0" stroke-linecap="round" stroke-linejoin="round" />
<path d="M 149.0 116.0 L 149.0 116.0 L 149.0 116.0 L 150.0 116.0 L 154.0 116.0 L 161.0 115.0 L 167.0 115.0 " stroke="black" fill="none" stroke-width="5.0" stroke-linecap="round" stroke-linejoin="round" />
<path d="M 161.0 109.0 L 161.0 110.0 L 161.0 111.0 L 161.0 114.0 L 160.0 119.0 " stroke="black" fill="none" stroke-width="5.0" stroke-linecap="round" stroke-linejoin="round" />
<path d="M 148.0 130.0 L 148.0 130.0 L 148.0 131.0 L 148.0 132.0 L 148.0 133.0 L 148.0 137.0 L 148.0 138.0 " stroke="black" fill="none" stroke-width="5.0" stroke-linecap="round" stroke-linejoin="round" />
<path d="M 148.0 131.0 L 148.0 131.0 L 148.0 131.0 L 149.0 131.0 L 153.0 129.0 L 160.0 127.0 L 168.0 127.0 L 175.0 126.0 L 180.0 130.0 L 182.0 135.0 L 182.0 140.0 L 182.0 143.0 " stroke="black" fill="none" stroke-width="5.0" stroke-linecap="round" stroke-linejoin="round" />
<path d="M 150.0 145.0 L 150.0 145.0 L 150.0 145.0 L 150.0 146.0 L 152.0 146.0 L 159.0 144.0 L 168.0 142.0 L 175.0 142.0 L 176.0 142.0 " stroke="black" fill="none" stroke-width="5.0" stroke-linecap="round" stroke-linejoin="round" />
<path d="M 158.0 133.0 L 158.0 134.0 L 158.0 136.0 L 157.0 140.0 L 157.0 141.0 " stroke="black" fill="none" stroke-width="5.0" stroke-linecap="round" stroke-linejoin="round" />
<path d="M 166.0 130.0 L 166.0 132.0 L 166.0 136.0 L 167.0 141.0 L 167.0 143.0 " stroke="black" fill="none" stroke-width="5.0" stroke-linecap="round" stroke-linejoin="round" />
<path d="M 153.0 155.0 L 153.0 155.0 L 153.0 155.0 L 153.0 155.0 L 155.0 155.0 L 159.0 154.0 L 166.0 154.0 L 171.0 153.0 L 172.0 153.0 " stroke="black" fill="none" stroke-width="5.0" stroke-linecap="round" stroke-linejoin="round" />
<path d="M 150.0 163.0 L 150.0 163.0 L 149.0 165.0 L 148.0 167.0 L 146.0 170.0 L 144.0 174.0 L 143.0 176.0 " stroke="black" fill="none" stroke-width="5.0" stroke-linecap="round" stroke-linejoin="round" />
<path d="M 155.0 167.0 L 155.0 167.0 L 155.0 168.0 L 153.0 171.0 L 153.0 175.0 L 153.0 180.0 L 157.0 184.0 L 164.0 186.0 L 172.0 186.0 L 180.0 185.0 L 185.0 184.0 " stroke="black" fill="none" stroke-width="5.0" stroke-linecap="round" stroke-linejoin="round" />
<path d="M 174.0 164.0 L 174.0 166.0 L 174.0 168.0 L 176.0 172.0 L 179.0 176.0 " stroke="black" fill="none" stroke-width="5.0" stroke-linecap="round" stroke-linejoin="round" />
<path d="M 194.0 167.0 L 194.0 168.0 L 195.0 172.0 L 196.0 177.0 L 197.0 182.0 " stroke="black" fill="none" stroke-width="5.0" stroke-linecap="round" stroke-linejoin="round" />
</svg>