<svg xmlns="http://www.w3.org/2000/svg" width="300" height="300" viewBox="0 0 300 300">
<path d="M 128.0 113.0 L 128.0 113.0 L 128.0 113.0 L 128.0 113.0 L 128.0 114.0 L 128.0 122.0 L 129.0 141.0 L 129.0 165.0 L 128.0 185.0 L 128.0 194.0 L 129.0 198.0 L 130.0 198.0 L 129.0 194.0 L 128.0 193.0 " stroke="black" fill="none" stroke-width="5.0" stroke-linecap="round" stroke-linejoin="round" />
<path d="M 120.0 148.0 L 120.0 148.0 L 120.0 148.0 L 120.0 148.0 L 119.0 149.0 L 117.0 154.0 L 113.0 161.0 L 110.0 166.0 " stroke="black" fill="none" stroke-width="5.0" stroke-linecap="round" stroke-linejoin="round" />
<path d="M 128.0 153.0 L 129.0 153.0 L 131.0 153.0 L 133.0 154.0 L 136.0 157.0 L 139.0 162.0 L 141.0 167.0 L 142.0 168.0 " stroke="black" fill="none" stroke-width="5.0" stroke-linecap="round" stroke-linejoin="round" />
<path d="M 151.0 131.0 L 152.0 131.0 L 152.0 131.0 L 154.0 132.0 L 155.0 132.0 L 158.0 133.0 L 162.0 133.0 L 166.0 133.0 L 169.0 133.0 L 171.0 136.0 L 172.0 140.0 L 172.0 145.0 L 172.0 148.0 L 172.0 149.0 " stroke="black" fill="none" stroke-width="5.0" stroke-linecap="round" stroke-linejoin="round" />
<path d="M 143.0 153.0 L 143.0 153.0 L 143.0 153.0 L 148.0 154.0 L 157.0 154.0 L 170.0 154.0 L 179.0 154.0 L 184.0 155.0 L 185.0 155.0 " stroke="black" fill="none" stroke-width="5.0" stroke-linecap="round" stroke-linejoin="round" />
<path d="M 159.0 117.0 L 159.0 119.0 L 159.0 122.0 L 159.0 130.0 L 159.0 146.0 L 158.0 164.0 L 155.0 180.0 L 152.0 189.0 L 151.0 191.0 " stroke="black" fill="none" stroke-width="5.0" stroke-linecap="round" stroke-linejoin="round" />
<path d="M 171.0 172.0 L 172.0 173.0 L 175.0 176.0 L 179.0 180.0 L 184.0 187.0 L 189.0 194.0 L 193.0 199.0 L 194.0 200.0 " stroke="black" fill="none" stroke-width="5.0" stroke-linecap="round" stroke-linejoin="round" />
</svg>