<svg xmlns="http://www.w3.org/2000/svg" width="300" height="300" viewBox="0 0 300 300">
<path d="M 132.0 117.0 L 131.0 119.0 L 129.0 121.0 L 126.0 126.0 L 120.0 135.0 L 115.0 142.0 " stroke="black" fill="none" stroke-width="5.0" stroke-linecap="round" stroke-linejoin="round" />
<path d="M 137.0 132.0 L 136.0 133.0 L 135.0 134.0 L 133.0 136.0 L 130.0 141.0 L 124.0 151.0 L 115.0 163.0 L 106.0 176.0 L 102.0 181.0 " stroke="black" fill="none" stroke-width="5.0" stroke-linecap="round" stroke-linejoin="round" />
<path d="M 124.0 157.0 L 124.0 157.0 L 124.0 157.0 L 124.0 159.0 L 125.0 166.0 L 126.0 179.0 L 127.0 192.0 " stroke="black" fill="none" stroke-width="5.0" stroke-linecap="round" stroke-linejoin="round" />
<path d="M 148.0 124.0 L 148.0 123.0 L 148.0 122.0 L 148.0 124.0 L 148.0 133.0 L 149.0 147.0 L 149.0 164.0 L 149.0 174.0 L 150.0 177.0 L 150.0 176.0 " stroke="black" fill="none" stroke-width="5.0" stroke-linecap="round" stroke-linejoin="round" />
<path d="M 150.0 125.0 L 151.0 125.0 L 152.0 125.0 L 155.0 125.0 L 159.0 125.0 L 165.0 125.0 L 172.0 126.0 L 179.0 126.0 L 183.0 126.0 L 186.0 127.0 L 188.0 132.0 L 189.0 143.0 L 191.0 156.0 L 192.0 167.0 L 192.0 172.0 " stroke="black" fill="none" stroke-width="5.0" stroke-linecap="round" stroke-linejoin="round" />
<path d="M 160.0 149.0 L 160.0 149.0 L 160.0 149.0 L 160.0 149.0 L 160.0 150.0 L 160.0 152.0 L 161.0 155.0 L 161.0 156.0 " stroke="black" fill="none" stroke-width="5.0" stroke-linecap="round" stroke-linejoin="round" />
<path d="M 161.0 147.0 L 161.0 147.0 L 161.0 147.0 L 162.0 146.0 L 166.0 146.0 L 170.0 146.0 L 174.0 146.0 L 177.0 148.0 L 178.0 151.0 L 179.0 155.0 L 178.0 157.0 " stroke="black" fill="none" stroke-width="5.0" stroke-linecap="round" stroke-linejoin="round" />
<path d="M 161.0 157.0 L 161.0 158.0 L 162.0 158.0 L 164.0 159.0 L 168.0 159.0 L 174.0 160.0 L 178.0 159.0 L 179.0 159.0 " stroke="black" fill="none" stroke-width="5.0" stroke-linecap="round" stroke-linejoin="round" />
<path d="M 155.0 180.0 L 157.0 180.0 L 161.0 180.0 L 167.0 180.0 L 176.0 180.0 L 185.0 180.0 L 192.0 180.0 L 193.0 180.0 " stroke="black" fill="none" stroke-width="5.0" stroke-linecap="round" stroke-linejoin="round" />
</svg>