<svg xmlns="http://www.w3.org/2000/svg" width="300" height="300" viewBox="0 0 300 300">
<path d="M 125.0 122.0 L 125.0 122.0 L 124.0 122.0 L 124.0 122.0 L 124.0 122.0 L 125.0 122.0 L 131.0 121.0 L 142.0 120.0 L 155.0 119.0 L 166.0 119.0 L 172.0 119.0 L 174.0 119.0 " stroke="black" fill="none" stroke-width="5.0" stroke-linecap="round" stroke-linejoin="round" />
<path d="M 137.0 140.0 L 138.0 140.0 L 139.0 140.0 L 141.0 140.0 L 147.0 140.0 L 154.0 139.0 L 161.0 138.0 L 163.0 138.0 " stroke="black" fill="none" stroke-width="5.0" stroke-linecap="round" stroke-linejoin="round" />
<path d="M 147.0 104.0 L 147.0 104.0 L 147.0 106.0 L 148.0 114.0 L 150.0 128.0 L 151.0 134.0 " stroke="black" fill="none" stroke-width="5.0" stroke-linecap="round" stroke-linejoin="round" />
<path d="M 119.0 163.0 L 119.0 163.0 L 119.0 163.0 L 119.0 163.0 L 119.0 167.0 L 116.0 174.0 L 111.0 184.0 L 110.0 186.0 " stroke="black" fill="none" stroke-width="5.0" stroke-linecap="round" stroke-linejoin="round" />
<path d="M 139.0 181.0 L 139.0 180.0 L 139.0 180.0 L 139.0 179.0 L 139.0 179.0 L 139.0 180.0 L 139.0 184.0 L 139.0 189.0 L 139.0 193.0 L 139.0 197.0 L 141.0 201.0 L 145.0 203.0 L 152.0 204.0 L 160.0 204.0 L 168.0 204.0 L 176.0 204.0 L 183.0 204.0 L 186.0 203.0 L 188.0 200.0 L 189.0 198.0 L 188.0 197.0 L 187.0 195.0 L 184.0 191.0 L 184.0 190.0 " stroke="black" fill="none" stroke-width="5.0" stroke-linecap="round" stroke-linejoin="round" />
<path d="M 161.0 159.0 L 161.0 160.0 L 161.0 163.0 L 164.0 169.0 L 166.0 173.0 " stroke="black" fill="none" stroke-width="5.0" stroke-linecap="round" stroke-linejoin="round" />
<path d="M 195.0 161.0 L 195.0 162.0 L 195.0 166.0 L 196.0 171.0 L 196.0 173.0 " stroke="black" fill="none" stroke-width="5.0" stroke-linecap="round" stroke-linejoin="round" />
</svg>