<svg xmlns="http://www.w3.org/2000/svg" width="300" height="300" viewBox="0 0 300 300">
<path d="M 130.00000000000006 118.5714285714286 L 130.00000000000006 118.5714285714286 L 130.00000000000006 120.00000000000001 L 128.5714285714286 122.14285714285718 L 125.00000000000001 127.14285714285718 L 119.28571428571432 135.00000000000006 L 117.85714285714288 136.42857142857144 " stroke="black" fill="none" stroke-width="5.0" stroke-linecap="round" stroke-linejoin="round" />
<path d="M 135.00000000000006 132.8571428571429 L 135.00000000000006 132.8571428571429 L 134.28571428571433 133.5714285714286 L 133.5714285714286 135.71428571428572 L 131.42857142857144 138.5714285714286 L 127.85714285714288 144.28571428571433 L 121.42857142857146 152.8571428571429 L 112.85714285714288 162.14285714285717 L 108.5714285714286 165.71428571428572 " stroke="black" fill="none" stroke-width="5.0" stroke-linecap="round" stroke-linejoin="round" />
<path d="M 123.5714285714286 151.42857142857144 L 123.5714285714286 151.42857142857144 L 123.5714285714286 152.14285714285717 L 122.85714285714288 155.00000000000006 L 122.85714285714288 162.14285714285717 L 122.85714285714288 173.5714285714286 L 122.85714285714288 184.28571428571433 " stroke="black" fill="none" stroke-width="5.0" stroke-linecap="round" stroke-linejoin="round" />
<path d="M 148.5714285714286 117.14285714285718 L 148.5714285714286 117.14285714285718 L 149.28571428571433 117.14285714285718 L 150.00000000000006 116.42857142857146 L 152.8571428571429 116.42857142857146 L 157.14285714285717 115.71428571428574 L 162.14285714285717 115.00000000000001 L 165.71428571428572 115.00000000000001 L 168.5714285714286 115.00000000000001 L 170.00000000000006 115.00000000000001 L 170.71428571428572 115.00000000000001 L 171.42857142857144 117.85714285714288 L 172.14285714285717 122.85714285714288 L 172.8571428571429 127.14285714285718 L 174.28571428571433 131.42857142857144 L 174.28571428571433 133.5714285714286 " stroke="black" fill="none" stroke-width="5.0" stroke-linecap="round" stroke-linejoin="round" />
<path d="M 145.00000000000006 128.5714285714286 L 144.28571428571433 128.5714285714286 L 143.5714285714286 128.5714285714286 L 143.5714285714286 128.5714285714286 L 147.14285714285717 128.5714285714286 L 155.71428571428572 127.14285714285718 L 167.8571428571429 125.00000000000001 L 177.8571428571429 123.5714285714286 L 181.42857142857144 123.5714285714286 L 182.14285714285717 123.5714285714286 " stroke="black" fill="none" stroke-width="5.0" stroke-linecap="round" stroke-linejoin="round" />
<path d="M 150.00000000000006 140.00000000000006 L 150.00000000000006 140.00000000000006 L 150.00000000000006 140.00000000000006 L 150.00000000000006 140.00000000000006 L 152.8571428571429 140.00000000000006 L 160.71428571428572 137.8571428571429 L 170.00000000000006 136.42857142857144 L 176.42857142857144 135.71428571428572 L 177.8571428571429 135.71428571428572 " stroke="black" fill="none" stroke-width="5.0" stroke-linecap="round" stroke-linejoin="round" />
<path d="M 149.28571428571433 155.71428571428572 L 149.28571428571433 156.42857142857144 L 149.28571428571433 156.42857142857144 L 150.71428571428572 156.42857142857144 L 156.42857142857144 155.00000000000006 L 165.71428571428572 153.5714285714286 L 172.8571428571429 153.5714285714286 L 175.00000000000006 153.5714285714286 " stroke="black" fill="none" stroke-width="5.0" stroke-linecap="round" stroke-linejoin="round" />
<path d="M 140.00000000000006 176.42857142857144 L 140.71428571428572 176.42857142857144 L 142.8571428571429 176.42857142857144 L 150.00000000000006 174.28571428571433 L 163.5714285714286 171.42857142857144 L 178.5714285714286 170.00000000000006 L 185.71428571428578 170.00000000000006 " stroke="black" fill="none" stroke-width="5.0" stroke-linecap="round" stroke-linejoin="round" />
<path d="M 156.42857142857144 102.85714285714288 L 156.42857142857144 102.85714285714288 L 155.71428571428572 103.5714285714286 L 155.71428571428572 107.85714285714288 L 157.8571428571429 125.71428571428574 L 161.42857142857144 153.5714285714286 L 162.8571428571429 180.00000000000006 L 162.8571428571429 194.28571428571433 L 164.28571428571433 201.4285714285715 L 164.28571428571433 202.14285714285722 " stroke="black" fill="none" stroke-width="5.0" stroke-linecap="round" stroke-linejoin="round" />
</svg>