<svg xmlns="http://www.w3.org/2000/svg" width="300" height="300" viewBox="0 0 300 300">
<path d="M 119.0 127.0 L 120.0 128.0 L 121.0 128.0 L 121.0 129.0 L 123.0 129.0 L 124.0 129.0 L 127.0 129.0 L 130.0 128.0 L 132.0 128.0 L 133.0 128.0 L 134.0 130.0 L 134.0 134.0 L 134.0 139.0 L 134.0 144.0 L 134.0 147.0 L 134.0 148.0 L 132.0 148.0 L 128.0 148.0 L 125.0 147.0 L 122.0 147.0 L 120.0 147.0 L 119.0 147.0 L 118.0 148.0 L 118.0 150.0 L 117.0 153.0 L 117.0 157.0 L 117.0 159.0 L 118.0 161.0 L 120.0 161.0 L 123.0 161.0 L 126.0 161.0 L 130.0 161.0 L 134.0 162.0 L 136.0 163.0 L 138.0 167.0 L 140.0 173.0 L 141.0 181.0 L 141.0 188.0 L 141.0 190.0 L 138.0 191.0 L 130.0 191.0 L 119.0 190.0 L 106.0 188.0 " stroke="black" fill="none" stroke-width="5.0" stroke-linecap="round" stroke-linejoin="round" />
<path d="M 162.0 119.0 L 162.0 119.0 L 162.0 119.0 L 162.0 119.0 L 162.0 120.0 L 165.0 124.0 L 166.0 125.0 " stroke="black" fill="none" stroke-width="5.0" stroke-linecap="round" stroke-linejoin="round" />
<path d="M 150.0 138.0 L 150.0 138.0 L 150.0 138.0 L 151.0 139.0 L 157.0 139.0 L 168.0 139.0 L 179.0 137.0 L 185.0 137.0 " stroke="black" fill="none" stroke-width="5.0" stroke-linecap="round" stroke-linejoin="round" />
<path d="M 166.0 144.0 L 166.0 143.0 L 167.0 142.0 L 168.0 142.0 L 168.0 142.0 L 168.0 144.0 L 166.0 147.0 L 163.0 151.0 L 160.0 155.0 L 158.0 158.0 L 156.0 160.0 L 156.0 162.0 L 160.0 162.0 L 165.0 162.0 L 167.0 162.0 " stroke="black" fill="none" stroke-width="5.0" stroke-linecap="round" stroke-linejoin="round" />
<path d="M 181.0 154.0 L 180.0 155.0 L 179.0 157.0 L 177.0 159.0 L 173.0 164.0 L 167.0 170.0 L 159.0 178.0 L 153.0 185.0 L 152.0 188.0 L 155.0 190.0 L 163.0 190.0 L 172.0 188.0 L 179.0 186.0 L 180.0 186.0 " stroke="black" fill="none" stroke-width="5.0" stroke-linecap="round" stroke-linejoin="round" />
<path d="M 184.0 178.0 L 184.0 180.0 L 185.0 185.0 L 188.0 190.0 L 191.0 195.0 L 195.0 199.0 " stroke="black" fill="none" stroke-width="5.0" stroke-linecap="round" stroke-linejoin="round" />
</svg>