<svg xmlns="http://www.w3.org/2000/svg" width="300" height="300" viewBox="0 0 300 300">
<path d="M 133.0 114.0 L 133.0 114.0 L 133.0 114.0 L 133.0 115.0 L 132.0 117.0 L 131.0 120.0 L 128.0 126.0 L 122.0 135.0 L 119.0 139.0 " stroke="black" fill="none" stroke-width="5.0" stroke-linecap="round" stroke-linejoin="round" />
<path d="M 138.0 128.0 L 138.0 128.0 L 138.0 129.0 L 137.0 131.0 L 136.0 134.0 L 132.0 141.0 L 125.0 152.0 L 114.0 167.0 L 105.0 179.0 L 104.0 182.0 " stroke="black" fill="none" stroke-width="5.0" stroke-linecap="round" stroke-linejoin="round" />
<circle cx="103.0" cy="185.0" r="2.5" fill="black" />
<path d="M 124.0 155.0 L 124.0 155.0 L 124.0 155.0 L 124.0 155.0 L 125.0 161.0 L 125.0 174.0 L 125.0 188.0 L 125.0 191.0 " stroke="black" fill="none" stroke-width="5.0" stroke-linecap="round" stroke-linejoin="round" />
<path d="M 155.0 121.0 L 155.0 122.0 L 155.0 125.0 L 155.0 128.0 L 155.0 135.0 L 156.0 166.0 L 155.0 182.0 L 153.0 191.0 L 153.0 192.0 " stroke="black" fill="none" stroke-width="5.0" stroke-linecap="round" stroke-linejoin="round" />
<path d="M 147.0 138.0 L 147.0 138.0 L 148.0 139.0 L 149.0 139.0 L 152.0 139.0 L 153.0 139.0 " stroke="black" fill="none" stroke-width="5.0" stroke-linecap="round" stroke-linejoin="round" />
<path d="M 141.0 156.0 L 141.0 154.0 L 141.0 154.0 L 143.0 154.0 L 146.0 154.0 L 150.0 155.0 L 153.0 155.0 " stroke="black" fill="none" stroke-width="5.0" stroke-linecap="round" stroke-linejoin="round" />
<path d="M 134.0 173.0 L 134.0 173.0 L 135.0 175.0 L 138.0 176.0 L 145.0 176.0 L 154.0 174.0 " stroke="black" fill="none" stroke-width="5.0" stroke-linecap="round" stroke-linejoin="round" />
<path d="M 173.0 118.0 L 173.0 119.0 L 172.0 122.0 L 172.0 128.0 L 172.0 140.0 L 173.0 160.0 L 173.0 180.0 L 173.0 193.0 L 173.0 196.0 L 173.0 196.0 " stroke="black" fill="none" stroke-width="5.0" stroke-linecap="round" stroke-linejoin="round" />
<path d="M 174.0 142.0 L 174.0 142.0 L 174.0 141.0 L 175.0 141.0 L 178.0 140.0 L 183.0 139.0 L 189.0 139.0 L 193.0 139.0 L 193.0 139.0 " stroke="black" fill="none" stroke-width="5.0" stroke-linecap="round" stroke-linejoin="round" />
<path d="M 176.0 161.0 L 176.0 161.0 L 177.0 162.0 L 180.0 162.0 L 186.0 162.0 L 192.0 161.0 L 196.0 161.0 " stroke="black" fill="none" stroke-width="5.0" stroke-linecap="round" stroke-linejoin="round" />
<path d="M 177.0 183.0 L 179.0 183.0 L 184.0 184.0 L 192.0 184.0 L 202.0 183.0 L 203.0 183.0 " stroke="black" fill="none" stroke-width="5.0" stroke-linecap="round" stroke-linejoin="round" />
</svg>