<svg xmlns="http://www.w3.org/2000/svg" width="300" height="300" viewBox="0 0 300 300">
<path d="M 125.00000000000001 120.00000000000001 L 125.71428571428574 120.00000000000001 L 125.71428571428574 120.00000000000001 L 126.42857142857146 120.00000000000001 L 127.85714285714288 120.00000000000001 L 129.28571428571433 119.28571428571432 L 132.14285714285717 119.28571428571432 L 134.28571428571433 118.5714285714286 L 136.42857142857144 118.5714285714286 L 137.14285714285717 118.5714285714286 L 137.14285714285717 120.71428571428574 L 137.8571428571429 123.5714285714286 L 137.8571428571429 127.14285714285718 L 137.8571428571429 131.42857142857144 L 137.8571428571429 135.00000000000006 L 137.8571428571429 136.42857142857144 L 137.14285714285717 137.14285714285717 L 136.42857142857144 137.14285714285717 L 134.28571428571433 137.14285714285717 L 132.14285714285717 136.42857142857144 L 130.00000000000006 136.42857142857144 L 127.85714285714288 136.42857142857144 L 125.71428571428574 138.5714285714286 L 124.28571428571432 142.14285714285717 L 123.5714285714286 145.71428571428572 L 123.5714285714286 148.5714285714286 L 123.5714285714286 149.28571428571433 L 125.00000000000001 149.28571428571433 L 127.14285714285718 150.00000000000006 L 130.00000000000006 150.00000000000006 L 133.5714285714286 150.00000000000006 L 137.14285714285717 150.00000000000006 L 139.28571428571433 150.00000000000006 L 139.28571428571433 151.42857142857144 L 139.28571428571433 155.71428571428572 L 139.28571428571433 161.42857142857144 L 139.28571428571433 167.8571428571429 L 140.00000000000006 174.28571428571433 L 140.00000000000006 177.8571428571429 L 140.00000000000006 180.00000000000006 L 137.14285714285717 181.42857142857144 L 132.8571428571429 182.14285714285717 L 126.42857142857146 182.14285714285717 L 120.00000000000001 182.14285714285717 " stroke="black" fill="none" stroke-width="5.0" stroke-linecap="round" stroke-linejoin="round" />
<path d="M 154.28571428571433 115.00000000000001 L 154.28571428571433 115.00000000000001 L 153.5714285714286 115.00000000000001 L 152.8571428571429 115.71428571428574 L 152.8571428571429 115.71428571428574 L 155.00000000000006 115.71428571428574 L 160.71428571428572 115.00000000000001 L 168.5714285714286 113.5714285714286 L 175.00000000000006 112.85714285714288 L 176.42857142857144 112.85714285714288 " stroke="black" fill="none" stroke-width="5.0" stroke-linecap="round" stroke-linejoin="round" />
<path d="M 153.5714285714286 119.28571428571432 L 153.5714285714286 119.28571428571432 L 153.5714285714286 119.28571428571432 L 153.5714285714286 119.28571428571432 L 154.28571428571433 120.00000000000001 L 154.28571428571433 125.00000000000001 L 154.28571428571433 135.00000000000006 L 154.28571428571433 143.5714285714286 L 155.00000000000006 149.28571428571433 L 155.71428571428572 150.00000000000006 " stroke="black" fill="none" stroke-width="5.0" stroke-linecap="round" stroke-linejoin="round" />
<path d="M 155.00000000000006 127.85714285714288 L 155.00000000000006 127.85714285714288 L 155.71428571428572 128.5714285714286 L 156.42857142857144 128.5714285714286 L 157.8571428571429 128.5714285714286 L 162.14285714285717 128.5714285714286 L 168.5714285714286 127.85714285714288 L 173.5714285714286 127.14285714285718 " stroke="black" fill="none" stroke-width="5.0" stroke-linecap="round" stroke-linejoin="round" />
<path d="M 153.5714285714286 142.8571428571429 L 153.5714285714286 142.8571428571429 L 153.5714285714286 142.8571428571429 L 154.28571428571433 142.8571428571429 L 157.14285714285717 142.8571428571429 L 163.5714285714286 142.14285714285717 L 171.42857142857144 140.71428571428572 L 177.14285714285717 140.71428571428572 " stroke="black" fill="none" stroke-width="5.0" stroke-linecap="round" stroke-linejoin="round" />
<path d="M 149.28571428571433 155.71428571428572 L 149.28571428571433 155.71428571428572 L 150.00000000000006 156.42857142857144 L 152.14285714285717 156.42857142857144 L 160.00000000000006 155.00000000000006 L 171.42857142857144 152.8571428571429 L 180.71428571428578 151.42857142857144 L 185.00000000000006 151.42857142857144 " stroke="black" fill="none" stroke-width="5.0" stroke-linecap="round" stroke-linejoin="round" />
<path d="M 157.14285714285717 159.28571428571433 L 157.14285714285717 159.28571428571433 L 157.14285714285717 159.28571428571433 L 156.42857142857144 160.71428571428572 L 156.42857142857144 165.00000000000006 L 155.71428571428572 173.5714285714286 L 156.42857142857144 183.5714285714286 L 159.28571428571433 190.00000000000006 L 165.71428571428572 190.00000000000006 L 172.14285714285717 186.42857142857144 " stroke="black" fill="none" stroke-width="5.0" stroke-linecap="round" stroke-linejoin="round" />
<path d="M 192.14285714285722 160.00000000000006 L 192.14285714285722 160.00000000000006 L 192.14285714285722 159.28571428571433 L 191.42857142857144 159.28571428571433 L 189.28571428571433 161.42857142857144 L 185.71428571428578 167.8571428571429 L 184.28571428571433 170.00000000000006 " stroke="black" fill="none" stroke-width="5.0" stroke-linecap="round" stroke-linejoin="round" />
<path d="M 165.00000000000006 157.8571428571429 L 165.71428571428572 158.5714285714286 L 167.8571428571429 161.42857142857144 L 175.00000000000006 170.00000000000006 L 184.28571428571433 181.42857142857144 L 190.00000000000006 189.28571428571433 L 192.14285714285722 192.14285714285722 " stroke="black" fill="none" stroke-width="5.0" stroke-linecap="round" stroke-linejoin="round" />
</svg>