<svg xmlns="http://www.w3.org/2000/svg" width="300" height="300" viewBox="0 0 300 300">
<path d="M 121.0 116.0 L 121.0 116.0 L 122.0 116.0 L 123.0 116.0 L 124.0 116.0 L 126.0 116.0 L 127.0 116.0 L 129.0 116.0 L 132.0 117.0 L 133.0 117.0 L 134.0 117.0 L 135.0 118.0 L 136.0 119.0 L 136.0 124.0 L 136.0 129.0 L 136.0 132.0 L 136.0 135.0 L 136.0 135.0 L 136.0 136.0 L 134.0 136.0 L 129.0 136.0 L 127.0 136.0 L 125.0 136.0 L 122.0 136.0 L 121.0 138.0 L 120.0 140.0 L 119.0 142.0 L 118.0 145.0 L 118.0 146.0 L 118.0 147.0 L 119.0 148.0 L 124.0 148.0 L 127.0 148.0 L 130.0 149.0 L 134.0 150.0 L 139.0 157.0 L 141.0 163.0 L 142.0 171.0 L 142.0 178.0 L 142.0 185.0 L 140.0 187.0 L 137.0 187.0 L 131.0 187.0 L 118.0 184.0 L 108.0 180.0 " stroke="black" fill="none" stroke-width="5.0" stroke-linecap="round" stroke-linejoin="round" />
<path d="M 152.0 117.0 L 152.0 117.0 L 152.0 117.0 L 153.0 118.0 L 153.0 118.0 L 158.0 118.0 L 167.0 118.0 L 173.0 117.0 L 176.0 117.0 L 177.0 117.0 " stroke="black" fill="none" stroke-width="5.0" stroke-linecap="round" stroke-linejoin="round" />
<path d="M 148.0 134.0 L 148.0 134.0 L 148.0 134.0 L 147.0 134.0 L 147.0 134.0 L 147.0 138.0 L 148.0 148.0 L 149.0 161.0 L 150.0 174.0 L 152.0 183.0 L 152.0 188.0 L 153.0 189.0 L 153.0 189.0 " stroke="black" fill="none" stroke-width="5.0" stroke-linecap="round" stroke-linejoin="round" />
<path d="M 149.0 141.0 L 149.0 141.0 L 149.0 140.0 L 150.0 139.0 L 151.0 139.0 L 155.0 139.0 L 162.0 139.0 L 173.0 139.0 L 177.0 140.0 L 182.0 142.0 L 185.0 145.0 L 192.0 160.0 L 194.0 174.0 L 195.0 181.0 L 195.0 185.0 L 193.0 188.0 L 191.0 189.0 L 186.0 190.0 L 180.0 189.0 L 177.0 188.0 " stroke="black" fill="none" stroke-width="5.0" stroke-linecap="round" stroke-linejoin="round" />
<path d="M 152.0 128.0 L 152.0 128.0 L 152.0 127.0 L 152.0 127.0 L 152.0 127.0 L 152.0 128.0 L 151.0 130.0 L 151.0 131.0 " stroke="black" fill="none" stroke-width="5.0" stroke-linecap="round" stroke-linejoin="round" />
<path d="M 171.0 127.0 L 172.0 127.0 L 174.0 128.0 L 178.0 131.0 L 180.0 132.0 L 183.0 133.0 L 184.0 134.0 " stroke="black" fill="none" stroke-width="5.0" stroke-linecap="round" stroke-linejoin="round" />
<path d="M 160.0 126.0 L 161.0 126.0 L 161.0 126.0 L 162.0 129.0 L 164.0 137.0 L 167.0 151.0 L 169.0 165.0 L 171.0 179.0 L 173.0 185.0 L 173.0 185.0 L 173.0 185.0 " stroke="black" fill="none" stroke-width="5.0" stroke-linecap="round" stroke-linejoin="round" />
<path d="M 152.0 150.0 L 154.0 150.0 L 154.0 150.0 L 155.0 152.0 L 156.0 153.0 " stroke="black" fill="none" stroke-width="5.0" stroke-linecap="round" stroke-linejoin="round" />
<path d="M 160.0 158.0 L 162.0 160.0 L 164.0 161.0 " stroke="black" fill="none" stroke-width="5.0" stroke-linecap="round" stroke-linejoin="round" />
<path d="M 162.0 152.0 L 162.0 152.0 L 162.0 152.0 L 161.0 153.0 L 159.0 155.0 L 157.0 158.0 L 156.0 160.0 " stroke="black" fill="none" stroke-width="5.0" stroke-linecap="round" stroke-linejoin="round" />
<path d="M 154.0 168.0 L 154.0 168.0 L 155.0 169.0 L 156.0 170.0 L 157.0 171.0 L 160.0 173.0 L 162.0 176.0 L 164.0 179.0 L 165.0 181.0 " stroke="black" fill="none" stroke-width="5.0" stroke-linecap="round" stroke-linejoin="round" />
<path d="M 163.0 170.0 L 163.0 170.0 L 163.0 170.0 L 163.0 170.0 L 163.0 172.0 L 162.0 174.0 L 159.0 179.0 L 155.0 183.0 L 153.0 186.0 " stroke="black" fill="none" stroke-width="5.0" stroke-linecap="round" stroke-linejoin="round" />
<path d="M 174.0 154.0 L 175.0 154.0 L 175.0 154.0 L 176.0 154.0 L 177.0 155.0 L 179.0 157.0 L 182.0 160.0 L 183.0 161.0 " stroke="black" fill="none" stroke-width="5.0" stroke-linecap="round" stroke-linejoin="round" />
<path d="M 185.0 157.0 L 185.0 157.0 L 185.0 158.0 L 183.0 158.0 L 181.0 160.0 L 179.0 163.0 L 177.0 165.0 L 175.0 167.0 " stroke="black" fill="none" stroke-width="5.0" stroke-linecap="round" stroke-linejoin="round" />
<path d="M 176.0 174.0 L 177.0 174.0 L 178.0 173.0 L 179.0 173.0 L 182.0 176.0 L 184.0 178.0 L 185.0 180.0 L 186.0 181.0 " stroke="black" fill="none" stroke-width="5.0" stroke-linecap="round" stroke-linejoin="round" />
<path d="M 189.0 172.0 L 189.0 172.0 L 188.0 173.0 L 187.0 173.0 L 184.0 176.0 L 180.0 179.0 L 175.0 182.0 L 173.0 184.0 " stroke="black" fill="none" stroke-width="5.0" stroke-linecap="round" stroke-linejoin="round" />
</svg>