<svg xmlns="http://www.w3.org/2000/svg" width="300" height="300" viewBox="0 0 300 300">
<path d="M 137.0 107.0 L 137.0 107.0 L 137.0 107.0 L 137.0 107.0 L 137.0 107.0 L 137.0 107.0 L 136.0 109.0 L 134.0 113.0 L 129.0 122.0 L 121.0 133.0 L 118.0 137.0 " stroke="black" fill="none" stroke-width="5.0" stroke-linecap="round" stroke-linejoin="round" />
<path d="M 136.0 119.0 L 136.0 119.0 L 136.0 119.0 L 136.0 119.0 L 137.0 120.0 L 139.0 120.0 L 145.0 120.0 L 152.0 120.0 L 159.0 119.0 L 165.0 119.0 L 169.0 119.0 L 171.0 119.0 L 172.0 120.0 L 173.0 124.0 L 173.0 130.0 L 175.0 138.0 L 176.0 146.0 L 178.0 153.0 L 178.0 158.0 L 177.0 161.0 L 175.0 161.0 L 169.0 161.0 L 161.0 160.0 L 159.0 159.0 " stroke="black" fill="none" stroke-width="5.0" stroke-linecap="round" stroke-linejoin="round" />
<path d="M 146.0 122.0 L 146.0 122.0 L 146.0 122.0 L 146.0 122.0 L 146.0 122.0 L 145.0 124.0 L 142.0 133.0 L 136.0 147.0 L 132.0 155.0 " stroke="black" fill="none" stroke-width="5.0" stroke-linecap="round" stroke-linejoin="round" />
<path d="M 157.0 122.0 L 157.0 122.0 L 157.0 122.0 L 157.0 122.0 L 157.0 122.0 L 157.0 126.0 L 155.0 137.0 L 150.0 152.0 L 147.0 158.0 " stroke="black" fill="none" stroke-width="5.0" stroke-linecap="round" stroke-linejoin="round" />
<path d="M 116.0 165.0 L 116.0 165.0 L 116.0 165.0 L 116.0 165.0 L 115.0 167.0 L 113.0 174.0 L 110.0 180.0 " stroke="black" fill="none" stroke-width="5.0" stroke-linecap="round" stroke-linejoin="round" />
<path d="M 130.0 177.0 L 130.0 177.0 L 130.0 177.0 L 130.0 177.0 L 130.0 177.0 L 131.0 177.0 L 131.0 177.0 L 131.0 180.0 L 131.0 185.0 L 130.0 191.0 L 130.0 196.0 L 132.0 198.0 L 138.0 200.0 L 145.0 200.0 L 154.0 201.0 L 163.0 202.0 L 169.0 202.0 L 174.0 202.0 L 176.0 201.0 L 176.0 199.0 L 174.0 195.0 L 171.0 189.0 L 170.0 188.0 " stroke="black" fill="none" stroke-width="5.0" stroke-linecap="round" stroke-linejoin="round" />
<path d="M 149.0 174.0 L 149.0 174.0 L 149.0 175.0 L 149.0 177.0 L 150.0 182.0 L 152.0 186.0 " stroke="black" fill="none" stroke-width="5.0" stroke-linecap="round" stroke-linejoin="round" />
<path d="M 184.0 172.0 L 184.0 174.0 L 185.0 176.0 L 186.0 180.0 L 188.0 186.0 " stroke="black" fill="none" stroke-width="5.0" stroke-linecap="round" stroke-linejoin="round" />
</svg>