<svg xmlns="http://www.w3.org/2000/svg" width="300" height="300" viewBox="0 0 300 300">
<path d="M 127.0 114.0 L 127.0 114.0 L 127.0 116.0 L 127.0 118.0 L 125.0 120.0 L 121.0 125.0 L 116.0 130.0 L 112.0 134.0 L 111.0 135.0 " stroke="black" fill="none" stroke-width="5.0" stroke-linecap="round" stroke-linejoin="round" />
<path d="M 131.0 130.0 L 131.0 130.0 L 131.0 131.0 L 131.0 131.0 L 131.0 133.0 L 128.0 137.0 L 123.0 144.0 L 114.0 153.0 L 105.0 162.0 L 99.0 167.0 L 98.0 168.0 L 98.0 168.0 " stroke="black" fill="none" stroke-width="5.0" stroke-linecap="round" stroke-linejoin="round" />
<path d="M 119.0 152.0 L 120.0 152.0 L 120.0 152.0 L 120.0 153.0 L 120.0 156.0 L 120.0 163.0 L 120.0 175.0 L 120.0 186.0 L 120.0 192.0 L 120.0 193.0 " stroke="black" fill="none" stroke-width="5.0" stroke-linecap="round" stroke-linejoin="round" />
<path d="M 148.0 122.0 L 148.0 122.0 L 149.0 122.0 L 150.0 122.0 L 153.0 122.0 L 158.0 122.0 L 163.0 122.0 L 168.0 121.0 L 172.0 121.0 L 172.0 121.0 " stroke="black" fill="none" stroke-width="5.0" stroke-linecap="round" stroke-linejoin="round" />
<path d="M 140.0 140.0 L 140.0 140.0 L 142.0 141.0 L 147.0 141.0 L 156.0 141.0 L 167.0 141.0 L 178.0 141.0 L 183.0 142.0 L 184.0 142.0 " stroke="black" fill="none" stroke-width="5.0" stroke-linecap="round" stroke-linejoin="round" />
<path d="M 156.0 112.0 L 157.0 112.0 L 157.0 113.0 L 158.0 116.0 L 158.0 126.0 L 160.0 143.0 L 160.0 159.0 L 161.0 170.0 L 161.0 175.0 L 161.0 175.0 L 161.0 174.0 L 161.0 173.0 " stroke="black" fill="none" stroke-width="5.0" stroke-linecap="round" stroke-linejoin="round" />
<path d="M 160.0 158.0 L 161.0 158.0 L 162.0 159.0 L 167.0 159.0 L 173.0 159.0 L 178.0 159.0 L 181.0 159.0 L 181.0 159.0 " stroke="black" fill="none" stroke-width="5.0" stroke-linecap="round" stroke-linejoin="round" />
<path d="M 139.0 158.0 L 139.0 158.0 L 139.0 158.0 L 139.0 159.0 L 139.0 160.0 L 139.0 165.0 L 138.0 173.0 L 136.0 182.0 L 134.0 187.0 L 134.0 188.0 " stroke="black" fill="none" stroke-width="5.0" stroke-linecap="round" stroke-linejoin="round" />
<path d="M 141.0 175.0 L 141.0 175.0 L 141.0 175.0 L 143.0 176.0 L 149.0 179.0 L 157.0 184.0 L 168.0 189.0 L 178.0 195.0 L 186.0 198.0 L 191.0 201.0 L 194.0 201.0 L 195.0 202.0 L 195.0 202.0 L 195.0 202.0 " stroke="black" fill="none" stroke-width="5.0" stroke-linecap="round" stroke-linejoin="round" />
</svg>