<svg xmlns="http://www.w3.org/2000/svg" width="300" height="300" viewBox="0 0 300 300">
<path d="M 135.00000000000006 116.42857142857146 L 135.00000000000006 115.71428571428574 L 135.00000000000006 115.71428571428574 L 135.00000000000006 115.00000000000001 L 135.00000000000006 115.00000000000001 L 135.00000000000006 117.14285714285718 L 133.5714285714286 120.71428571428574 L 130.00000000000006 127.14285714285718 L 125.00000000000001 135.71428571428572 L 122.14285714285718 139.28571428571433 " stroke="black" fill="none" stroke-width="5.0" stroke-linecap="round" stroke-linejoin="round" />
<path d="M 137.8571428571429 131.42857142857144 L 137.8571428571429 132.14285714285717 L 137.8571428571429 132.8571428571429 L 137.14285714285717 133.5714285714286 L 136.42857142857144 135.71428571428572 L 134.28571428571433 139.28571428571433 L 130.00000000000006 145.71428571428572 L 123.5714285714286 154.28571428571433 L 117.85714285714288 161.42857142857144 L 114.28571428571432 165.00000000000006 " stroke="black" fill="none" stroke-width="5.0" stroke-linecap="round" stroke-linejoin="round" />
<path d="M 127.14285714285718 152.8571428571429 L 127.14285714285718 152.8571428571429 L 127.14285714285718 153.5714285714286 L 127.14285714285718 155.71428571428572 L 126.42857142857146 160.00000000000006 L 125.71428571428574 166.42857142857144 L 125.71428571428574 176.42857142857144 L 125.00000000000001 183.5714285714286 " stroke="black" fill="none" stroke-width="5.0" stroke-linecap="round" stroke-linejoin="round" />
<path d="M 155.71428571428572 114.28571428571432 L 155.71428571428572 113.5714285714286 L 155.71428571428572 113.5714285714286 L 156.42857142857144 113.5714285714286 L 157.8571428571429 115.00000000000001 L 160.00000000000006 119.28571428571432 L 161.42857142857144 121.42857142857146 " stroke="black" fill="none" stroke-width="5.0" stroke-linecap="round" stroke-linejoin="round" />
<path d="M 146.42857142857144 132.8571428571429 L 145.71428571428572 132.8571428571429 L 145.71428571428572 132.8571428571429 L 147.8571428571429 132.8571428571429 L 152.8571428571429 131.42857142857144 L 162.14285714285717 129.28571428571433 L 170.71428571428572 127.14285714285718 L 175.71428571428578 125.71428571428574 L 177.8571428571429 125.71428571428574 L 177.8571428571429 125.71428571428574 " stroke="black" fill="none" stroke-width="5.0" stroke-linecap="round" stroke-linejoin="round" />
<path d="M 149.28571428571433 150.00000000000006 L 149.28571428571433 150.00000000000006 L 149.28571428571433 150.00000000000006 L 150.71428571428572 150.00000000000006 L 155.00000000000006 149.28571428571433 L 161.42857142857144 147.8571428571429 L 167.14285714285717 147.14285714285717 L 171.42857142857144 147.14285714285717 L 171.42857142857144 147.14285714285717 " stroke="black" fill="none" stroke-width="5.0" stroke-linecap="round" stroke-linejoin="round" />
<path d="M 140.00000000000006 177.14285714285717 L 140.00000000000006 177.14285714285717 L 140.00000000000006 177.8571428571429 L 140.00000000000006 178.5714285714286 L 142.14285714285717 179.28571428571433 L 148.5714285714286 177.8571428571429 L 159.28571428571433 175.71428571428578 L 170.00000000000006 175.00000000000006 L 177.14285714285717 175.00000000000006 L 180.71428571428578 175.00000000000006 " stroke="black" fill="none" stroke-width="5.0" stroke-linecap="round" stroke-linejoin="round" />
<path d="M 157.14285714285717 132.8571428571429 L 157.14285714285717 132.8571428571429 L 157.14285714285717 133.5714285714286 L 158.5714285714286 140.71428571428572 L 160.00000000000006 155.00000000000006 L 160.00000000000006 167.8571428571429 L 160.00000000000006 172.8571428571429 " stroke="black" fill="none" stroke-width="5.0" stroke-linecap="round" stroke-linejoin="round" />
</svg>