<svg xmlns="http://www.w3.org/2000/svg" width="300" height="300" viewBox="0 0 300 300">
<path d="M 115.0 149.0 L 115.0 149.0 L 115.0 149.0 L 114.0 152.0 L 112.0 159.0 L 107.0 170.0 L 106.0 173.0 " stroke="black" fill="none" stroke-width="5.0" stroke-linecap="round" stroke-linejoin="round" />
<path d="M 135.0 160.0 L 135.0 160.0 L 135.0 160.0 L 135.0 160.0 L 135.0 160.0 L 135.0 161.0 L 135.0 163.0 L 134.0 168.0 L 134.0 175.0 L 133.0 182.0 L 135.0 188.0 L 142.0 191.0 L 152.0 193.0 L 164.0 193.0 L 176.0 194.0 L 186.0 195.0 L 192.0 196.0 L 196.0 195.0 L 198.0 193.0 L 198.0 191.0 L 198.0 188.0 L 198.0 185.0 L 197.0 180.0 L 195.0 175.0 " stroke="black" fill="none" stroke-width="5.0" stroke-linecap="round" stroke-linejoin="round" />
<path d="M 162.0 143.0 L 163.0 143.0 L 163.0 143.0 L 163.0 143.0 L 164.0 148.0 L 167.0 159.0 L 168.0 162.0 " stroke="black" fill="none" stroke-width="5.0" stroke-linecap="round" stroke-linejoin="round" />
<path d="M 201.0 143.0 L 201.0 144.0 L 202.0 145.0 L 204.0 151.0 L 207.0 158.0 L 209.0 163.0 " stroke="black" fill="none" stroke-width="5.0" stroke-linecap="round" stroke-linejoin="round" />
</svg>