<svg xmlns="http://www.w3.org/2000/svg" width="300" height="300" viewBox="0 0 300 300">
<path d="M 139.0 100.0 L 139.0 100.0 L 139.0 100.0 L 139.0 100.0 L 139.0 99.0 L 139.0 99.0 L 139.0 98.0 L 139.0 98.0 L 139.0 99.0 L 139.0 103.0 L 137.0 107.0 L 134.0 111.0 L 133.0 113.0 L 131.0 114.0 L 130.0 114.0 L 130.0 115.0 L 130.0 118.0 L 129.0 123.0 L 129.0 130.0 L 130.0 137.0 L 130.0 144.0 L 131.0 147.0 L 131.0 148.0 " stroke="black" fill="none" stroke-width="5.0" stroke-linecap="round" stroke-linejoin="round" />
<path d="M 133.0 114.0 L 133.0 114.0 L 132.0 114.0 L 132.0 114.0 L 132.0 114.0 L 135.0 114.0 L 141.0 114.0 L 148.0 113.0 L 154.0 113.0 L 158.0 113.0 L 160.0 115.0 L 162.0 121.0 L 164.0 129.0 L 166.0 138.0 L 167.0 146.0 L 167.0 147.0 " stroke="black" fill="none" stroke-width="5.0" stroke-linecap="round" stroke-linejoin="round" />
<path d="M 135.0 131.0 L 135.0 131.0 L 135.0 131.0 L 135.0 131.0 L 135.0 130.0 L 137.0 129.0 L 143.0 128.0 L 151.0 126.0 L 158.0 126.0 L 159.0 126.0 " stroke="black" fill="none" stroke-width="5.0" stroke-linecap="round" stroke-linejoin="round" />
<path d="M 140.0 139.0 L 141.0 139.0 L 142.0 139.0 L 145.0 139.0 L 152.0 138.0 L 154.0 138.0 " stroke="black" fill="none" stroke-width="5.0" stroke-linecap="round" stroke-linejoin="round" />
<path d="M 132.0 152.0 L 133.0 152.0 L 135.0 152.0 L 140.0 152.0 L 149.0 153.0 L 159.0 153.0 " stroke="black" fill="none" stroke-width="5.0" stroke-linecap="round" stroke-linejoin="round" />
<path d="M 122.0 168.0 L 122.0 168.0 L 122.0 168.0 L 122.0 168.0 L 122.0 170.0 L 120.0 176.0 L 117.0 185.0 L 113.0 193.0 L 111.0 196.0 " stroke="black" fill="none" stroke-width="5.0" stroke-linecap="round" stroke-linejoin="round" />
<path d="M 133.0 181.0 L 133.0 182.0 L 131.0 184.0 L 130.0 186.0 L 128.0 190.0 L 128.0 194.0 L 128.0 198.0 L 133.0 201.0 L 142.0 202.0 L 155.0 201.0 L 168.0 200.0 L 178.0 199.0 L 181.0 199.0 L 180.0 199.0 L 177.0 198.0 " stroke="black" fill="none" stroke-width="5.0" stroke-linecap="round" stroke-linejoin="round" />
<path d="M 150.0 171.0 L 151.0 171.0 L 152.0 172.0 L 155.0 177.0 L 159.0 184.0 " stroke="black" fill="none" stroke-width="5.0" stroke-linecap="round" stroke-linejoin="round" />
<path d="M 185.0 169.0 L 185.0 171.0 L 186.0 174.0 L 188.0 179.0 L 191.0 184.0 L 192.0 188.0 " stroke="black" fill="none" stroke-width="5.0" stroke-linecap="round" stroke-linejoin="round" />
</svg>