<svg xmlns="http://www.w3.org/2000/svg" width="300" height="300" viewBox="0 0 300 300">
<path d="M 115.0 113.0 L 115.0 114.0 L 114.0 115.0 L 114.0 115.0 L 118.0 115.0 L 126.0 114.0 L 134.0 113.0 L 137.0 112.0 " stroke="black" fill="none" stroke-width="5.0" stroke-linecap="round" stroke-linejoin="round" />
<path d="M 124.0 117.0 L 124.0 117.0 L 125.0 117.0 L 125.0 117.0 L 125.0 118.0 L 125.0 121.0 L 125.0 127.0 L 126.0 134.0 L 126.0 139.0 " stroke="black" fill="none" stroke-width="5.0" stroke-linecap="round" stroke-linejoin="round" />
<path d="M 109.0 145.0 L 111.0 145.0 L 114.0 144.0 L 119.0 143.0 L 127.0 141.0 L 136.0 140.0 L 137.0 140.0 " stroke="black" fill="none" stroke-width="5.0" stroke-linecap="round" stroke-linejoin="round" />
<circle cx="155.0" cy="116.0" r="2.5" fill="black" />
<path d="M 151.0 109.0 L 151.0 109.0 L 151.0 109.0 L 151.0 109.0 L 151.0 108.0 L 153.0 107.0 L 158.0 106.0 L 164.0 106.0 L 168.0 106.0 L 171.0 110.0 L 171.0 117.0 L 171.0 129.0 L 174.0 139.0 L 179.0 143.0 L 185.0 143.0 L 187.0 141.0 " stroke="black" fill="none" stroke-width="5.0" stroke-linecap="round" stroke-linejoin="round" />
<path d="M 159.0 116.0 L 159.0 116.0 L 159.0 116.0 L 159.0 117.0 L 159.0 120.0 L 157.0 128.0 L 153.0 139.0 L 149.0 148.0 L 148.0 150.0 " stroke="black" fill="none" stroke-width="5.0" stroke-linecap="round" stroke-linejoin="round" />
<path d="M 147.0 126.0 L 147.0 128.0 L 147.0 131.0 L 150.0 136.0 L 156.0 139.0 L 161.0 140.0 " stroke="black" fill="none" stroke-width="5.0" stroke-linecap="round" stroke-linejoin="round" />
<path d="M 119.0 168.0 L 120.0 168.0 L 120.0 170.0 L 120.0 173.0 L 117.0 178.0 L 113.0 184.0 L 109.0 189.0 " stroke="black" fill="none" stroke-width="5.0" stroke-linecap="round" stroke-linejoin="round" />
<path d="M 129.0 180.0 L 129.0 181.0 L 129.0 181.0 L 129.0 182.0 L 129.0 184.0 L 129.0 187.0 L 128.0 192.0 L 127.0 198.0 L 129.0 202.0 L 135.0 204.0 L 146.0 204.0 L 157.0 204.0 L 167.0 203.0 L 175.0 202.0 L 178.0 200.0 L 178.0 198.0 L 177.0 194.0 L 175.0 193.0 " stroke="black" fill="none" stroke-width="5.0" stroke-linecap="round" stroke-linejoin="round" />
<path d="M 151.0 168.0 L 151.0 168.0 L 152.0 170.0 L 153.0 174.0 L 156.0 180.0 L 158.0 184.0 " stroke="black" fill="none" stroke-width="5.0" stroke-linecap="round" stroke-linejoin="round" />
<path d="M 185.0 165.0 L 185.0 165.0 L 186.0 169.0 L 189.0 174.0 L 193.0 182.0 L 196.0 189.0 " stroke="black" fill="none" stroke-width="5.0" stroke-linecap="round" stroke-linejoin="round" />
</svg>