<svg xmlns="http://www.w3.org/2000/svg" width="300" height="300" viewBox="0 0 300 300">
<path d="M 120.0 121.0 L 120.0 121.0 L 120.0 121.0 L 120.0 121.0 L 120.0 122.0 L 121.0 123.0 L 121.0 125.0 L 121.0 132.0 L 122.0 148.0 L 122.0 172.0 L 123.0 189.0 L 123.0 195.0 " stroke="black" fill="none" stroke-width="5.0" stroke-linecap="round" stroke-linejoin="round" />
<path d="M 115.0 147.0 L 115.0 147.0 L 115.0 147.0 L 114.0 149.0 L 113.0 155.0 L 109.0 164.0 L 104.0 173.0 " stroke="black" fill="none" stroke-width="5.0" stroke-linecap="round" stroke-linejoin="round" />
<path d="M 123.0 154.0 L 123.0 159.0 L 126.0 164.0 L 131.0 168.0 L 135.0 169.0 " stroke="black" fill="none" stroke-width="5.0" stroke-linecap="round" stroke-linejoin="round" />
<path d="M 153.0 124.0 L 153.0 124.0 L 153.0 124.0 L 152.0 125.0 L 151.0 129.0 L 147.0 136.0 L 142.0 146.0 L 135.0 155.0 L 129.0 160.0 " stroke="black" fill="none" stroke-width="5.0" stroke-linecap="round" stroke-linejoin="round" />
<path d="M 145.0 141.0 L 145.0 141.0 L 145.0 141.0 L 145.0 141.0 L 145.0 141.0 L 145.0 145.0 L 145.0 157.0 L 145.0 176.0 L 145.0 190.0 L 145.0 192.0 " stroke="black" fill="none" stroke-width="5.0" stroke-linecap="round" stroke-linejoin="round" />
<path d="M 166.0 128.0 L 166.0 128.0 L 167.0 129.0 L 168.0 130.0 L 170.0 132.0 L 172.0 135.0 L 174.0 137.0 " stroke="black" fill="none" stroke-width="5.0" stroke-linecap="round" stroke-linejoin="round" />
<path d="M 157.0 146.0 L 157.0 146.0 L 158.0 146.0 L 159.0 145.0 L 163.0 145.0 L 170.0 145.0 L 179.0 145.0 L 185.0 145.0 " stroke="black" fill="none" stroke-width="5.0" stroke-linecap="round" stroke-linejoin="round" />
<path d="M 158.0 161.0 L 158.0 161.0 L 160.0 161.0 L 161.0 161.0 L 164.0 161.0 L 168.0 161.0 L 173.0 160.0 L 178.0 160.0 L 180.0 160.0 " stroke="black" fill="none" stroke-width="5.0" stroke-linecap="round" stroke-linejoin="round" />
<path d="M 157.0 174.0 L 157.0 174.0 L 159.0 174.0 L 163.0 174.0 L 171.0 174.0 L 179.0 174.0 L 183.0 174.0 " stroke="black" fill="none" stroke-width="5.0" stroke-linecap="round" stroke-linejoin="round" />
<path d="M 153.0 197.0 L 154.0 197.0 L 156.0 197.0 L 160.0 197.0 L 167.0 197.0 L 179.0 197.0 L 190.0 197.0 L 195.0 197.0 " stroke="black" fill="none" stroke-width="5.0" stroke-linecap="round" stroke-linejoin="round" />
<path d="M 169.0 151.0 L 169.0 151.0 L 169.0 151.0 L 169.0 152.0 L 169.0 154.0 L 170.0 163.0 L 171.0 177.0 L 171.0 193.0 L 171.0 196.0 " stroke="black" fill="none" stroke-width="5.0" stroke-linecap="round" stroke-linejoin="round" />
</svg>