<svg xmlns="http://www.w3.org/2000/svg" width="300" height="300" viewBox="0 0 300 300">
<path d="M 138.0 109.0 L 137.0 109.0 L 137.0 109.0 L 136.0 109.0 L 138.0 109.0 L 144.0 107.0 L 154.0 105.0 L 163.0 103.0 L 165.0 103.0 " stroke="black" fill="none" stroke-width="5.0" stroke-linecap="round" stroke-linejoin="round" />
<path d="M 138.0 122.0 L 138.0 122.0 L 138.0 122.0 L 138.0 125.0 L 138.0 131.0 L 140.0 136.0 L 141.0 138.0 " stroke="black" fill="none" stroke-width="5.0" stroke-linecap="round" stroke-linejoin="round" />
<path d="M 139.0 122.0 L 139.0 122.0 L 139.0 122.0 L 139.0 122.0 L 140.0 121.0 L 143.0 120.0 L 149.0 120.0 L 156.0 119.0 L 162.0 119.0 L 167.0 119.0 L 171.0 123.0 L 171.0 130.0 L 171.0 135.0 L 171.0 140.0 L 170.0 141.0 " stroke="black" fill="none" stroke-width="5.0" stroke-linecap="round" stroke-linejoin="round" />
<path d="M 144.0 132.0 L 144.0 132.0 L 143.0 132.0 L 143.0 132.0 L 146.0 131.0 L 152.0 130.0 L 160.0 130.0 L 164.0 129.0 L 165.0 129.0 " stroke="black" fill="none" stroke-width="5.0" stroke-linecap="round" stroke-linejoin="round" />
<path d="M 143.0 144.0 L 143.0 144.0 L 145.0 143.0 L 148.0 141.0 L 155.0 140.0 L 162.0 138.0 " stroke="black" fill="none" stroke-width="5.0" stroke-linecap="round" stroke-linejoin="round" />
<path d="M 153.0 96.0 L 153.0 96.0 L 153.0 96.0 L 153.0 97.0 L 153.0 108.0 L 155.0 127.0 L 158.0 145.0 L 159.0 153.0 L 159.0 155.0 " stroke="black" fill="none" stroke-width="5.0" stroke-linecap="round" stroke-linejoin="round" />
<path d="M 135.0 159.0 L 135.0 159.0 L 136.0 159.0 L 139.0 159.0 L 152.0 157.0 L 169.0 154.0 L 180.0 152.0 " stroke="black" fill="none" stroke-width="5.0" stroke-linecap="round" stroke-linejoin="round" />
<path d="M 187.0 146.0 L 188.0 147.0 L 190.0 151.0 L 193.0 155.0 L 195.0 160.0 " stroke="black" fill="none" stroke-width="5.0" stroke-linecap="round" stroke-linejoin="round" />
<path d="M 125.0 171.0 L 125.0 171.0 L 126.0 171.0 L 127.0 170.0 L 127.0 170.0 L 127.0 170.0 L 127.0 172.0 L 124.0 179.0 L 119.0 188.0 " stroke="black" fill="none" stroke-width="5.0" stroke-linecap="round" stroke-linejoin="round" />
<path d="M 145.0 178.0 L 145.0 178.0 L 145.0 178.0 L 144.0 178.0 L 144.0 178.0 L 144.0 179.0 L 143.0 183.0 L 142.0 189.0 L 141.0 195.0 L 144.0 199.0 L 151.0 200.0 L 161.0 200.0 L 171.0 200.0 L 178.0 200.0 L 183.0 200.0 L 185.0 198.0 L 186.0 196.0 L 185.0 192.0 L 183.0 190.0 " stroke="black" fill="none" stroke-width="5.0" stroke-linecap="round" stroke-linejoin="round" />
<path d="M 161.0 168.0 L 161.0 169.0 L 162.0 170.0 L 163.0 172.0 L 164.0 176.0 L 165.0 182.0 " stroke="black" fill="none" stroke-width="5.0" stroke-linecap="round" stroke-linejoin="round" />
<path d="M 199.0 173.0 L 199.0 175.0 L 200.0 178.0 L 202.0 184.0 L 205.0 189.0 " stroke="black" fill="none" stroke-width="5.0" stroke-linecap="round" stroke-linejoin="round" />
</svg>