<svg xmlns="http://www.w3.org/2000/svg" width="300" height="300" viewBox="0 0 300 300">
<path d="M 119.0 113.0 L 119.0 111.0 L 119.0 110.0 L 119.0 109.0 L 119.0 111.0 L 120.0 120.0 L 122.0 138.0 L 124.0 160.0 L 125.0 179.0 L 125.0 190.0 L 126.0 192.0 " stroke="black" fill="none" stroke-width="5.0" stroke-linecap="round" stroke-linejoin="round" />
<path d="M 115.0 146.0 L 115.0 146.0 L 115.0 146.0 L 115.0 147.0 L 115.0 150.0 L 113.0 158.0 L 109.0 166.0 L 108.0 169.0 " stroke="black" fill="none" stroke-width="5.0" stroke-linecap="round" stroke-linejoin="round" />
<path d="M 132.0 150.0 L 133.0 152.0 L 135.0 156.0 L 139.0 162.0 L 142.0 167.0 " stroke="black" fill="none" stroke-width="5.0" stroke-linecap="round" stroke-linejoin="round" />
<path d="M 159.0 117.0 L 159.0 117.0 L 159.0 117.0 L 159.0 117.0 L 159.0 119.0 L 157.0 122.0 L 154.0 129.0 L 151.0 135.0 L 151.0 139.0 L 157.0 140.0 L 168.0 139.0 L 178.0 139.0 L 183.0 139.0 " stroke="black" fill="none" stroke-width="5.0" stroke-linecap="round" stroke-linejoin="round" />
<path d="M 183.0 127.0 L 184.0 128.0 L 185.0 131.0 L 187.0 136.0 L 190.0 142.0 L 191.0 146.0 " stroke="black" fill="none" stroke-width="5.0" stroke-linecap="round" stroke-linejoin="round" />
<path d="M 156.0 157.0 L 156.0 158.0 L 155.0 159.0 L 154.0 164.0 L 155.0 172.0 L 157.0 180.0 L 159.0 185.0 L 160.0 186.0 " stroke="black" fill="none" stroke-width="5.0" stroke-linecap="round" stroke-linejoin="round" />
<path d="M 157.0 156.0 L 157.0 156.0 L 157.0 156.0 L 157.0 156.0 L 160.0 156.0 L 166.0 156.0 L 175.0 156.0 L 183.0 156.0 L 187.0 157.0 L 190.0 161.0 L 191.0 168.0 L 192.0 176.0 L 193.0 183.0 L 193.0 187.0 L 193.0 188.0 " stroke="black" fill="none" stroke-width="5.0" stroke-linecap="round" stroke-linejoin="round" />
<path d="M 159.0 187.0 L 159.0 187.0 L 159.0 188.0 L 164.0 189.0 L 175.0 189.0 L 188.0 188.0 L 193.0 188.0 " stroke="black" fill="none" stroke-width="5.0" stroke-linecap="round" stroke-linejoin="round" />
</svg>