<svg xmlns="http://www.w3.org/2000/svg" width="300" height="300" viewBox="0 0 300 300">
<path d="M 126.0 103.0 L 126.0 103.0 L 126.0 103.0 L 126.0 105.0 L 127.0 111.0 L 128.0 121.0 L 129.0 131.0 L 130.0 136.0 " stroke="black" fill="none" stroke-width="5.0" stroke-linecap="round" stroke-linejoin="round" />
<path d="M 132.0 102.0 L 132.0 102.0 L 132.0 102.0 L 132.0 102.0 L 133.0 101.0 L 139.0 101.0 L 148.0 101.0 L 160.0 101.0 L 168.0 101.0 L 174.0 101.0 L 176.0 103.0 L 177.0 111.0 L 177.0 123.0 L 177.0 133.0 L 176.0 140.0 L 176.0 141.0 " stroke="black" fill="none" stroke-width="5.0" stroke-linecap="round" stroke-linejoin="round" />
<path d="M 141.0 120.0 L 141.0 120.0 L 141.0 120.0 L 142.0 120.0 L 148.0 119.0 L 158.0 118.0 L 165.0 117.0 " stroke="black" fill="none" stroke-width="5.0" stroke-linecap="round" stroke-linejoin="round" />
<path d="M 154.0 110.0 L 154.0 110.0 L 153.0 112.0 L 152.0 116.0 L 150.0 125.0 L 148.0 134.0 " stroke="black" fill="none" stroke-width="5.0" stroke-linecap="round" stroke-linejoin="round" />
<path d="M 156.0 121.0 L 157.0 122.0 L 159.0 124.0 L 162.0 127.0 L 166.0 132.0 L 168.0 136.0 " stroke="black" fill="none" stroke-width="5.0" stroke-linecap="round" stroke-linejoin="round" />
<path d="M 134.0 145.0 L 134.0 145.0 L 134.0 146.0 L 134.0 146.0 L 139.0 146.0 L 146.0 146.0 L 157.0 145.0 L 167.0 145.0 " stroke="black" fill="none" stroke-width="5.0" stroke-linecap="round" stroke-linejoin="round" />
<path d="M 120.0 159.0 L 120.0 160.0 L 118.0 163.0 L 117.0 166.0 L 116.0 170.0 L 115.0 175.0 L 115.0 176.0 " stroke="black" fill="none" stroke-width="5.0" stroke-linecap="round" stroke-linejoin="round" />
<path d="M 133.0 163.0 L 133.0 164.0 L 133.0 164.0 L 133.0 165.0 L 133.0 166.0 L 133.0 169.0 L 133.0 174.0 L 132.0 179.0 L 132.0 183.0 L 135.0 185.0 L 140.0 187.0 L 147.0 188.0 L 155.0 189.0 L 163.0 189.0 L 172.0 190.0 L 181.0 190.0 L 187.0 190.0 L 190.0 190.0 L 190.0 190.0 L 189.0 188.0 L 186.0 183.0 L 185.0 179.0 " stroke="black" fill="none" stroke-width="5.0" stroke-linecap="round" stroke-linejoin="round" />
<path d="M 157.0 159.0 L 157.0 159.0 L 157.0 160.0 L 157.0 165.0 L 160.0 173.0 " stroke="black" fill="none" stroke-width="5.0" stroke-linecap="round" stroke-linejoin="round" />
<path d="M 196.0 160.0 L 196.0 161.0 L 197.0 163.0 L 199.0 167.0 L 202.0 171.0 L 203.0 175.0 " stroke="black" fill="none" stroke-width="5.0" stroke-linecap="round" stroke-linejoin="round" />
</svg>