<svg xmlns="http://www.w3.org/2000/svg" width="300" height="300" viewBox="0 0 300 300">
<path d="M 123.0 117.0 L 123.0 117.0 L 124.0 116.0 L 124.0 116.0 L 125.0 116.0 L 125.0 123.0 L 125.0 139.0 L 125.0 165.0 L 125.0 190.0 L 126.0 202.0 L 127.0 204.0 " stroke="black" fill="none" stroke-width="5.0" stroke-linecap="round" stroke-linejoin="round" />
<path d="M 117.0 154.0 L 117.0 155.0 L 117.0 157.0 L 117.0 161.0 L 114.0 167.0 L 110.0 177.0 L 108.0 182.0 " stroke="black" fill="none" stroke-width="5.0" stroke-linecap="round" stroke-linejoin="round" />
<path d="M 130.0 154.0 L 130.0 155.0 L 132.0 159.0 L 136.0 165.0 L 142.0 174.0 L 145.0 178.0 " stroke="black" fill="none" stroke-width="5.0" stroke-linecap="round" stroke-linejoin="round" />
<path d="M 150.0 126.0 L 150.0 126.0 L 149.0 127.0 L 149.0 128.0 L 152.0 128.0 L 158.0 127.0 L 164.0 126.0 L 169.0 126.0 L 169.0 126.0 " stroke="black" fill="none" stroke-width="5.0" stroke-linecap="round" stroke-linejoin="round" />
<path d="M 145.0 144.0 L 145.0 144.0 L 145.0 146.0 L 145.0 148.0 L 146.0 152.0 L 147.0 157.0 L 148.0 160.0 " stroke="black" fill="none" stroke-width="5.0" stroke-linecap="round" stroke-linejoin="round" />
<path d="M 147.0 144.0 L 148.0 143.0 L 149.0 142.0 L 153.0 142.0 L 160.0 140.0 L 171.0 140.0 L 179.0 141.0 L 183.0 147.0 L 184.0 153.0 L 184.0 158.0 L 181.0 160.0 " stroke="black" fill="none" stroke-width="5.0" stroke-linecap="round" stroke-linejoin="round" />
<path d="M 151.0 162.0 L 151.0 163.0 L 154.0 165.0 L 162.0 165.0 L 172.0 165.0 L 181.0 163.0 L 182.0 162.0 " stroke="black" fill="none" stroke-width="5.0" stroke-linecap="round" stroke-linejoin="round" />
<path d="M 159.0 114.0 L 159.0 114.0 L 158.0 115.0 L 158.0 118.0 L 160.0 130.0 L 163.0 153.0 L 166.0 181.0 L 167.0 199.0 L 167.0 206.0 L 167.0 207.0 " stroke="black" fill="none" stroke-width="5.0" stroke-linecap="round" stroke-linejoin="round" />
<path d="M 162.0 167.0 L 162.0 168.0 L 162.0 169.0 L 161.0 171.0 L 158.0 176.0 L 153.0 185.0 L 147.0 197.0 L 144.0 203.0 L 144.0 203.0 " stroke="black" fill="none" stroke-width="5.0" stroke-linecap="round" stroke-linejoin="round" />
<path d="M 166.0 171.0 L 168.0 172.0 L 173.0 176.0 L 182.0 185.0 L 190.0 196.0 L 195.0 204.0 L 195.0 206.0 " stroke="black" fill="none" stroke-width="5.0" stroke-linecap="round" stroke-linejoin="round" />
</svg>