<svg xmlns="http://www.w3.org/2000/svg" width="300" height="300" viewBox="0 0 300 300">
<path d="M 126.0 104.0 L 126.0 106.0 L 125.0 109.0 L 125.0 115.0 L 125.0 127.0 L 125.0 146.0 L 126.0 166.0 L 126.0 182.0 L 126.0 189.0 L 127.0 191.0 L 127.0 191.0 " stroke="black" fill="none" stroke-width="5.0" stroke-linecap="round" stroke-linejoin="round" />
<path d="M 119.0 141.0 L 119.0 141.0 L 119.0 141.0 L 119.0 141.0 L 118.0 145.0 L 114.0 152.0 L 109.0 162.0 L 105.0 167.0 " stroke="black" fill="none" stroke-width="5.0" stroke-linecap="round" stroke-linejoin="round" />
<path d="M 127.0 146.0 L 128.0 146.0 L 130.0 147.0 L 134.0 153.0 L 138.0 160.0 L 143.0 166.0 " stroke="black" fill="none" stroke-width="5.0" stroke-linecap="round" stroke-linejoin="round" />
<path d="M 158.0 104.0 L 158.0 104.0 L 158.0 105.0 L 158.0 107.0 L 158.0 111.0 L 159.0 116.0 L 160.0 121.0 L 160.0 122.0 " stroke="black" fill="none" stroke-width="5.0" stroke-linecap="round" stroke-linejoin="round" />
<path d="M 162.0 113.0 L 164.0 113.0 L 166.0 113.0 L 170.0 113.0 L 174.0 113.0 L 178.0 113.0 L 179.0 113.0 " stroke="black" fill="none" stroke-width="5.0" stroke-linecap="round" stroke-linejoin="round" />
<path d="M 149.0 127.0 L 149.0 127.0 L 149.0 127.0 L 149.0 127.0 L 149.0 128.0 L 149.0 135.0 L 150.0 143.0 L 151.0 148.0 L 151.0 148.0 " stroke="black" fill="none" stroke-width="5.0" stroke-linecap="round" stroke-linejoin="round" />
<path d="M 150.0 128.0 L 150.0 128.0 L 151.0 128.0 L 152.0 128.0 L 154.0 127.0 L 159.0 127.0 L 166.0 127.0 L 172.0 128.0 L 177.0 129.0 L 180.0 132.0 L 182.0 138.0 L 182.0 145.0 L 183.0 151.0 L 184.0 154.0 L 184.0 154.0 " stroke="black" fill="none" stroke-width="5.0" stroke-linecap="round" stroke-linejoin="round" />
<path d="M 155.0 141.0 L 155.0 141.0 L 155.0 141.0 L 155.0 141.0 L 157.0 141.0 L 162.0 141.0 L 169.0 141.0 L 175.0 141.0 L 178.0 141.0 L 179.0 142.0 L 179.0 143.0 " stroke="black" fill="none" stroke-width="5.0" stroke-linecap="round" stroke-linejoin="round" />
<path d="M 153.0 152.0 L 155.0 152.0 L 158.0 153.0 L 163.0 154.0 L 171.0 154.0 L 177.0 154.0 L 180.0 155.0 " stroke="black" fill="none" stroke-width="5.0" stroke-linecap="round" stroke-linejoin="round" />
<path d="M 152.0 170.0 L 152.0 170.0 L 152.0 170.0 L 152.0 170.0 L 152.0 170.0 L 153.0 170.0 L 160.0 171.0 L 173.0 171.0 L 184.0 171.0 L 190.0 171.0 L 192.0 171.0 L 192.0 171.0 " stroke="black" fill="none" stroke-width="5.0" stroke-linecap="round" stroke-linejoin="round" />
<path d="M 168.0 156.0 L 168.0 156.0 L 168.0 157.0 L 168.0 158.0 L 169.0 162.0 L 170.0 172.0 L 172.0 187.0 L 173.0 198.0 L 174.0 202.0 L 175.0 201.0 L 175.0 200.0 " stroke="black" fill="none" stroke-width="5.0" stroke-linecap="round" stroke-linejoin="round" />
</svg>