<svg xmlns="http://www.w3.org/2000/svg" width="300" height="300" viewBox="0 0 300 300">
<path d="M 121.0 115.0 L 121.0 115.0 L 122.0 115.0 L 122.0 116.0 L 122.0 119.0 L 122.0 132.0 L 122.0 155.0 L 122.0 180.0 L 121.0 195.0 L 121.0 200.0 L 121.0 200.0 " stroke="black" fill="none" stroke-width="5.0" stroke-linecap="round" stroke-linejoin="round" />
<path d="M 117.0 148.0 L 117.0 148.0 L 117.0 149.0 L 117.0 151.0 L 116.0 155.0 L 112.0 163.0 L 106.0 173.0 L 105.0 175.0 " stroke="black" fill="none" stroke-width="5.0" stroke-linecap="round" stroke-linejoin="round" />
<path d="M 125.0 154.0 L 125.0 155.0 L 128.0 156.0 L 133.0 159.0 L 140.0 166.0 L 144.0 173.0 " stroke="black" fill="none" stroke-width="5.0" stroke-linecap="round" stroke-linejoin="round" />
<path d="M 152.0 119.0 L 152.0 120.0 L 153.0 121.0 L 156.0 121.0 L 163.0 121.0 L 174.0 119.0 L 180.0 119.0 L 181.0 119.0 " stroke="black" fill="none" stroke-width="5.0" stroke-linecap="round" stroke-linejoin="round" />
<path d="M 144.0 143.0 L 145.0 144.0 L 148.0 145.0 L 156.0 145.0 L 171.0 143.0 L 183.0 142.0 L 188.0 141.0 " stroke="black" fill="none" stroke-width="5.0" stroke-linecap="round" stroke-linejoin="round" />
<path d="M 166.0 123.0 L 166.0 123.0 L 165.0 123.0 L 164.0 124.0 L 165.0 132.0 L 167.0 149.0 L 168.0 165.0 L 168.0 169.0 " stroke="black" fill="none" stroke-width="5.0" stroke-linecap="round" stroke-linejoin="round" />
<path d="M 152.0 173.0 L 152.0 173.0 L 152.0 175.0 L 152.0 179.0 L 152.0 187.0 L 154.0 194.0 L 154.0 195.0 " stroke="black" fill="none" stroke-width="5.0" stroke-linecap="round" stroke-linejoin="round" />
<path d="M 151.0 172.0 L 152.0 172.0 L 152.0 172.0 L 155.0 172.0 L 161.0 171.0 L 170.0 169.0 L 178.0 169.0 L 183.0 170.0 L 185.0 176.0 L 186.0 184.0 L 187.0 190.0 L 188.0 194.0 " stroke="black" fill="none" stroke-width="5.0" stroke-linecap="round" stroke-linejoin="round" />
<path d="M 154.0 198.0 L 154.0 199.0 L 154.0 201.0 L 156.0 202.0 L 166.0 201.0 L 179.0 200.0 L 187.0 199.0 " stroke="black" fill="none" stroke-width="5.0" stroke-linecap="round" stroke-linejoin="round" />
</svg>