<svg xmlns="http://www.w3.org/2000/svg" width="300" height="300" viewBox="0 0 300 300">
<path d="M 124.0 106.0 L 124.0 106.0 L 123.0 108.0 L 122.0 114.0 L 123.0 130.0 L 124.0 154.0 L 125.0 177.0 L 124.0 190.0 " stroke="black" fill="none" stroke-width="5.0" stroke-linecap="round" stroke-linejoin="round" />
<path d="M 119.0 142.0 L 119.0 142.0 L 116.0 144.0 L 114.0 148.0 L 110.0 157.0 L 107.0 165.0 " stroke="black" fill="none" stroke-width="5.0" stroke-linecap="round" stroke-linejoin="round" />
<path d="M 130.0 146.0 L 131.0 147.0 L 134.0 150.0 L 140.0 157.0 L 146.0 162.0 " stroke="black" fill="none" stroke-width="5.0" stroke-linecap="round" stroke-linejoin="round" />
<path d="M 147.0 121.0 L 147.0 121.0 L 147.0 122.0 L 147.0 122.0 L 152.0 122.0 L 162.0 120.0 L 172.0 120.0 L 174.0 119.0 " stroke="black" fill="none" stroke-width="5.0" stroke-linecap="round" stroke-linejoin="round" />
<path d="M 148.0 137.0 L 148.0 137.0 L 148.0 137.0 L 148.0 137.0 L 154.0 137.0 L 165.0 137.0 L 176.0 137.0 L 177.0 137.0 " stroke="black" fill="none" stroke-width="5.0" stroke-linecap="round" stroke-linejoin="round" />
<path d="M 159.0 108.0 L 159.0 108.0 L 159.0 109.0 L 159.0 113.0 L 161.0 121.0 L 163.0 128.0 " stroke="black" fill="none" stroke-width="5.0" stroke-linecap="round" stroke-linejoin="round" />
<path d="M 144.0 157.0 L 144.0 157.0 L 144.0 157.0 L 145.0 157.0 L 148.0 157.0 L 156.0 157.0 L 167.0 157.0 L 177.0 156.0 " stroke="black" fill="none" stroke-width="5.0" stroke-linecap="round" stroke-linejoin="round" />
<path d="M 162.0 141.0 L 162.0 143.0 L 162.0 147.0 L 165.0 158.0 L 170.0 173.0 L 174.0 188.0 L 175.0 198.0 L 175.0 202.0 L 173.0 203.0 L 169.0 203.0 L 162.0 200.0 " stroke="black" fill="none" stroke-width="5.0" stroke-linecap="round" stroke-linejoin="round" />
<path d="M 145.0 179.0 L 147.0 180.0 L 150.0 182.0 L 156.0 184.0 " stroke="black" fill="none" stroke-width="5.0" stroke-linecap="round" stroke-linejoin="round" />
</svg>