<svg xmlns="http://www.w3.org/2000/svg" width="300" height="300" viewBox="0 0 300 300">
<path d="M 130.0 111.0 L 130.0 110.0 L 130.0 110.0 L 130.0 110.0 L 130.0 110.0 L 130.0 117.0 L 130.0 133.0 L 130.0 159.0 L 130.0 183.0 L 130.0 197.0 L 130.0 200.0 L 130.0 200.0 " stroke="black" fill="none" stroke-width="5.0" stroke-linecap="round" stroke-linejoin="round" />
<path d="M 125.0 148.0 L 124.0 149.0 L 122.0 150.0 L 121.0 153.0 L 118.0 157.0 L 115.0 164.0 L 114.0 166.0 " stroke="black" fill="none" stroke-width="5.0" stroke-linecap="round" stroke-linejoin="round" />
<path d="M 135.0 150.0 L 135.0 151.0 L 136.0 153.0 L 139.0 157.0 L 143.0 163.0 " stroke="black" fill="none" stroke-width="5.0" stroke-linecap="round" stroke-linejoin="round" />
<path d="M 149.0 129.0 L 148.0 129.0 L 148.0 130.0 L 148.0 135.0 L 148.0 145.0 L 148.0 160.0 L 148.0 173.0 L 148.0 177.0 " stroke="black" fill="none" stroke-width="5.0" stroke-linecap="round" stroke-linejoin="round" />
<path d="M 150.0 124.0 L 150.0 124.0 L 150.0 124.0 L 150.0 124.0 L 151.0 124.0 L 153.0 124.0 L 156.0 124.0 L 158.0 124.0 L 161.0 126.0 L 164.0 131.0 L 167.0 142.0 L 168.0 158.0 L 169.0 170.0 L 170.0 175.0 L 170.0 176.0 L 170.0 175.0 " stroke="black" fill="none" stroke-width="5.0" stroke-linecap="round" stroke-linejoin="round" />
<path d="M 152.0 142.0 L 152.0 142.0 L 152.0 142.0 L 153.0 142.0 L 155.0 142.0 L 159.0 142.0 L 162.0 142.0 L 163.0 142.0 " stroke="black" fill="none" stroke-width="5.0" stroke-linecap="round" stroke-linejoin="round" />
<path d="M 152.0 157.0 L 153.0 157.0 L 154.0 157.0 L 156.0 157.0 L 160.0 157.0 L 163.0 157.0 L 165.0 157.0 " stroke="black" fill="none" stroke-width="5.0" stroke-linecap="round" stroke-linejoin="round" />
<path d="M 150.0 174.0 L 150.0 175.0 L 151.0 176.0 L 154.0 176.0 L 160.0 175.0 L 165.0 174.0 L 167.0 174.0 " stroke="black" fill="none" stroke-width="5.0" stroke-linecap="round" stroke-linejoin="round" />
<path d="M 156.0 178.0 L 156.0 178.0 L 156.0 177.0 L 156.0 177.0 L 156.0 180.0 L 154.0 187.0 L 153.0 193.0 " stroke="black" fill="none" stroke-width="5.0" stroke-linecap="round" stroke-linejoin="round" />
<path d="M 163.0 182.0 L 164.0 182.0 L 165.0 182.0 L 168.0 184.0 L 171.0 187.0 " stroke="black" fill="none" stroke-width="5.0" stroke-linecap="round" stroke-linejoin="round" />
<path d="M 186.0 140.0 L 186.0 140.0 L 185.0 141.0 L 185.0 145.0 L 186.0 153.0 L 188.0 160.0 L 188.0 161.0 " stroke="black" fill="none" stroke-width="5.0" stroke-linecap="round" stroke-linejoin="round" />
<path d="M 197.0 122.0 L 197.0 123.0 L 197.0 124.0 L 199.0 133.0 L 202.0 151.0 L 206.0 175.0 L 207.0 192.0 L 208.0 200.0 L 208.0 204.0 L 208.0 204.0 L 205.0 201.0 L 198.0 198.0 L 195.0 197.0 " stroke="black" fill="none" stroke-width="5.0" stroke-linecap="round" stroke-linejoin="round" />
</svg>