<svg xmlns="http://www.w3.org/2000/svg" width="300" height="300" viewBox="0 0 300 300">
<path d="M 123.0 110.0 L 123.0 111.0 L 122.0 113.0 L 122.0 120.0 L 122.0 135.0 L 123.0 159.0 L 124.0 182.0 L 125.0 194.0 " stroke="black" fill="none" stroke-width="5.0" stroke-linecap="round" stroke-linejoin="round" />
<path d="M 114.0 144.0 L 114.0 144.0 L 114.0 144.0 L 113.0 146.0 L 113.0 150.0 L 111.0 156.0 L 109.0 163.0 L 107.0 167.0 " stroke="black" fill="none" stroke-width="5.0" stroke-linecap="round" stroke-linejoin="round" />
<path d="M 131.0 146.0 L 131.0 147.0 L 133.0 150.0 L 135.0 155.0 L 140.0 162.0 L 142.0 165.0 " stroke="black" fill="none" stroke-width="5.0" stroke-linecap="round" stroke-linejoin="round" />
<path d="M 162.0 112.0 L 162.0 115.0 L 163.0 120.0 L 163.0 125.0 L 163.0 128.0 " stroke="black" fill="none" stroke-width="5.0" stroke-linecap="round" stroke-linejoin="round" />
<path d="M 151.0 118.0 L 151.0 120.0 L 152.0 123.0 L 153.0 124.0 " stroke="black" fill="none" stroke-width="5.0" stroke-linecap="round" stroke-linejoin="round" />
<path d="M 175.0 117.0 L 174.0 118.0 L 172.0 120.0 L 171.0 123.0 " stroke="black" fill="none" stroke-width="5.0" stroke-linecap="round" stroke-linejoin="round" />
<path d="M 152.0 136.0 L 151.0 138.0 L 150.0 141.0 L 150.0 149.0 L 150.0 161.0 L 150.0 176.0 L 150.0 185.0 L 150.0 188.0 " stroke="black" fill="none" stroke-width="5.0" stroke-linecap="round" stroke-linejoin="round" />
<path d="M 152.0 134.0 L 152.0 134.0 L 152.0 134.0 L 154.0 134.0 L 158.0 134.0 L 164.0 135.0 L 169.0 136.0 L 174.0 137.0 L 177.0 140.0 L 181.0 148.0 L 185.0 160.0 L 187.0 174.0 L 188.0 187.0 L 187.0 196.0 L 185.0 198.0 L 182.0 199.0 L 176.0 198.0 L 174.0 196.0 " stroke="black" fill="none" stroke-width="5.0" stroke-linecap="round" stroke-linejoin="round" />
<path d="M 152.0 153.0 L 152.0 153.0 L 152.0 153.0 L 152.0 153.0 L 155.0 153.0 L 162.0 153.0 L 171.0 154.0 L 177.0 156.0 L 178.0 157.0 " stroke="black" fill="none" stroke-width="5.0" stroke-linecap="round" stroke-linejoin="round" />
<path d="M 155.0 168.0 L 156.0 169.0 L 159.0 170.0 L 165.0 172.0 L 176.0 172.0 L 180.0 172.0 " stroke="black" fill="none" stroke-width="5.0" stroke-linecap="round" stroke-linejoin="round" />
</svg>