<svg xmlns="http://www.w3.org/2000/svg" width="300" height="300" viewBox="0 0 300 300">
<path d="M 134.0 110.0 L 134.0 110.0 L 134.0 110.0 L 134.0 110.0 L 134.0 110.0 L 134.0 111.0 L 135.0 116.0 L 136.0 125.0 " stroke="black" fill="none" stroke-width="5.0" stroke-linecap="round" stroke-linejoin="round" />
<path d="M 118.0 121.0 L 118.0 121.0 L 117.0 121.0 L 117.0 121.0 L 125.0 121.0 L 141.0 119.0 L 159.0 118.0 L 174.0 117.0 L 180.0 117.0 " stroke="black" fill="none" stroke-width="5.0" stroke-linecap="round" stroke-linejoin="round" />
<path d="M 161.0 107.0 L 161.0 107.0 L 161.0 108.0 L 161.0 110.0 L 161.0 114.0 L 161.0 120.0 " stroke="black" fill="none" stroke-width="5.0" stroke-linecap="round" stroke-linejoin="round" />
<path d="M 132.0 139.0 L 132.0 139.0 L 132.0 139.0 L 132.0 138.0 L 132.0 138.0 L 132.0 138.0 L 133.0 142.0 L 134.0 146.0 L 135.0 148.0 " stroke="black" fill="none" stroke-width="5.0" stroke-linecap="round" stroke-linejoin="round" />
<path d="M 133.0 138.0 L 133.0 137.0 L 133.0 137.0 L 135.0 137.0 L 138.0 136.0 L 144.0 135.0 L 152.0 133.0 L 160.0 133.0 L 166.0 133.0 L 169.0 134.0 L 170.0 138.0 L 170.0 145.0 L 170.0 150.0 L 170.0 153.0 " stroke="black" fill="none" stroke-width="5.0" stroke-linecap="round" stroke-linejoin="round" />
<path d="M 137.0 146.0 L 137.0 146.0 L 137.0 145.0 L 136.0 145.0 L 136.0 145.0 L 140.0 145.0 L 147.0 144.0 L 156.0 144.0 L 163.0 144.0 L 165.0 144.0 " stroke="black" fill="none" stroke-width="5.0" stroke-linecap="round" stroke-linejoin="round" />
<path d="M 135.0 155.0 L 136.0 155.0 L 136.0 155.0 L 139.0 155.0 L 144.0 155.0 L 153.0 155.0 L 162.0 155.0 L 165.0 155.0 " stroke="black" fill="none" stroke-width="5.0" stroke-linecap="round" stroke-linejoin="round" />
<path d="M 126.0 172.0 L 126.0 172.0 L 126.0 173.0 L 125.0 173.0 L 125.0 173.0 L 129.0 173.0 L 139.0 171.0 L 155.0 169.0 L 170.0 168.0 L 180.0 167.0 L 181.0 167.0 " stroke="black" fill="none" stroke-width="5.0" stroke-linecap="round" stroke-linejoin="round" />
<path d="M 150.0 158.0 L 150.0 158.0 L 151.0 158.0 L 151.0 158.0 L 151.0 159.0 L 149.0 163.0 L 143.0 171.0 L 133.0 184.0 L 123.0 194.0 L 122.0 195.0 " stroke="black" fill="none" stroke-width="5.0" stroke-linecap="round" stroke-linejoin="round" />
<path d="M 164.0 173.0 L 165.0 174.0 L 168.0 176.0 L 173.0 178.0 L 179.0 181.0 L 185.0 183.0 L 186.0 183.0 " stroke="black" fill="none" stroke-width="5.0" stroke-linecap="round" stroke-linejoin="round" />
<path d="M 153.0 182.0 L 153.0 182.0 L 153.0 182.0 L 154.0 183.0 L 154.0 185.0 L 155.0 191.0 L 158.0 201.0 L 159.0 211.0 L 160.0 217.0 L 160.0 219.0 L 157.0 219.0 L 153.0 217.0 L 152.0 216.0 " stroke="black" fill="none" stroke-width="5.0" stroke-linecap="round" stroke-linejoin="round" />
<path d="M 142.0 195.0 L 142.0 195.0 L 141.0 196.0 L 139.0 198.0 L 136.0 202.0 L 135.0 205.0 " stroke="black" fill="none" stroke-width="5.0" stroke-linecap="round" stroke-linejoin="round" />
<path d="M 168.0 197.0 L 168.0 197.0 L 169.0 198.0 L 170.0 199.0 L 172.0 203.0 L 173.0 207.0 " stroke="black" fill="none" stroke-width="5.0" stroke-linecap="round" stroke-linejoin="round" />
<path d="M 182.0 199.0 L 182.0 199.0 L 183.0 201.0 L 183.0 203.0 L 185.0 207.0 L 187.0 210.0 " stroke="black" fill="none" stroke-width="5.0" stroke-linecap="round" stroke-linejoin="round" />
</svg>