<svg xmlns="http://www.w3.org/2000/svg" width="300" height="300" viewBox="0 0 300 300">
<path d="M 130.0 102.0 L 130.0 102.0 L 130.0 102.0 L 130.0 102.0 L 130.0 103.0 L 130.0 104.0 L 128.0 107.0 L 125.0 111.0 L 122.0 115.0 L 121.0 118.0 L 121.0 120.0 L 126.0 120.0 L 132.0 119.0 L 137.0 118.0 L 139.0 117.0 " stroke="black" fill="none" stroke-width="5.0" stroke-linecap="round" stroke-linejoin="round" />
<path d="M 139.0 111.0 L 139.0 112.0 L 139.0 112.0 L 139.0 113.0 L 140.0 115.0 L 142.0 120.0 L 143.0 122.0 " stroke="black" fill="none" stroke-width="5.0" stroke-linecap="round" stroke-linejoin="round" />
<path d="M 121.0 135.0 L 121.0 135.0 L 121.0 135.0 L 121.0 135.0 L 121.0 137.0 L 121.0 145.0 L 121.0 156.0 L 121.0 163.0 L 121.0 165.0 L 121.0 165.0 " stroke="black" fill="none" stroke-width="5.0" stroke-linecap="round" stroke-linejoin="round" />
<path d="M 123.0 133.0 L 124.0 133.0 L 125.0 133.0 L 126.0 132.0 L 128.0 131.0 L 131.0 131.0 L 134.0 131.0 L 136.0 131.0 L 138.0 131.0 L 140.0 134.0 L 142.0 140.0 L 144.0 150.0 L 146.0 160.0 L 147.0 167.0 L 147.0 170.0 L 146.0 170.0 L 142.0 170.0 L 137.0 167.0 L 136.0 166.0 " stroke="black" fill="none" stroke-width="5.0" stroke-linecap="round" stroke-linejoin="round" />
<path d="M 126.0 143.0 L 127.0 142.0 L 128.0 142.0 L 131.0 142.0 L 134.0 142.0 L 138.0 142.0 L 140.0 142.0 L 140.0 142.0 " stroke="black" fill="none" stroke-width="5.0" stroke-linecap="round" stroke-linejoin="round" />
<path d="M 124.0 150.0 L 127.0 151.0 L 131.0 152.0 L 137.0 152.0 L 143.0 152.0 " stroke="black" fill="none" stroke-width="5.0" stroke-linecap="round" stroke-linejoin="round" />
<path d="M 153.0 107.0 L 153.0 107.0 L 153.0 107.0 L 153.0 107.0 L 153.0 106.0 L 153.0 108.0 L 153.0 114.0 L 154.0 120.0 L 157.0 126.0 L 160.0 129.0 L 163.0 129.0 L 165.0 128.0 " stroke="black" fill="none" stroke-width="5.0" stroke-linecap="round" stroke-linejoin="round" />
<path d="M 156.0 115.0 L 156.0 115.0 L 156.0 115.0 L 157.0 115.0 L 161.0 116.0 L 166.0 116.0 L 167.0 116.0 " stroke="black" fill="none" stroke-width="5.0" stroke-linecap="round" stroke-linejoin="round" />
<path d="M 154.0 133.0 L 154.0 133.0 L 154.0 133.0 L 154.0 134.0 L 154.0 136.0 L 154.0 140.0 L 155.0 147.0 L 159.0 155.0 L 162.0 159.0 L 166.0 161.0 L 167.0 161.0 " stroke="black" fill="none" stroke-width="5.0" stroke-linecap="round" stroke-linejoin="round" />
<path d="M 156.0 146.0 L 157.0 146.0 L 159.0 146.0 L 164.0 146.0 L 172.0 146.0 L 175.0 146.0 " stroke="black" fill="none" stroke-width="5.0" stroke-linecap="round" stroke-linejoin="round" />
<path d="M 125.0 179.0 L 126.0 179.0 L 126.0 181.0 L 125.0 184.0 L 122.0 189.0 L 118.0 195.0 L 116.0 199.0 " stroke="black" fill="none" stroke-width="5.0" stroke-linecap="round" stroke-linejoin="round" />
<path d="M 135.0 186.0 L 135.0 186.0 L 135.0 187.0 L 135.0 189.0 L 135.0 192.0 L 134.0 195.0 L 134.0 198.0 L 134.0 202.0 L 138.0 204.0 L 145.0 205.0 L 153.0 205.0 L 161.0 205.0 L 167.0 205.0 L 169.0 204.0 L 169.0 203.0 L 169.0 201.0 L 167.0 199.0 " stroke="black" fill="none" stroke-width="5.0" stroke-linecap="round" stroke-linejoin="round" />
<path d="M 151.0 185.0 L 151.0 185.0 L 151.0 185.0 L 152.0 186.0 L 153.0 189.0 L 154.0 190.0 " stroke="black" fill="none" stroke-width="5.0" stroke-linecap="round" stroke-linejoin="round" />
<path d="M 170.0 183.0 L 171.0 183.0 L 172.0 185.0 L 174.0 189.0 L 177.0 192.0 L 179.0 196.0 " stroke="black" fill="none" stroke-width="5.0" stroke-linecap="round" stroke-linejoin="round" />
</svg>