<svg xmlns="http://www.w3.org/2000/svg" width="300" height="300" viewBox="0 0 300 300">
<path d="M 136.0 100.0 L 136.0 100.0 L 135.0 100.0 L 135.0 102.0 L 134.0 110.0 L 134.0 121.0 L 136.0 128.0 L 137.0 129.0 " stroke="black" fill="none" stroke-width="5.0" stroke-linecap="round" stroke-linejoin="round" />
<path d="M 137.0 100.0 L 137.0 100.0 L 137.0 100.0 L 137.0 100.0 L 140.0 100.0 L 145.0 99.0 L 152.0 99.0 L 158.0 99.0 L 163.0 99.0 L 166.0 103.0 L 167.0 109.0 L 167.0 118.0 L 167.0 126.0 L 167.0 131.0 L 167.0 131.0 " stroke="black" fill="none" stroke-width="5.0" stroke-linecap="round" stroke-linejoin="round" />
<path d="M 140.0 115.0 L 140.0 115.0 L 141.0 115.0 L 144.0 115.0 L 150.0 114.0 L 157.0 114.0 L 162.0 114.0 L 164.0 114.0 " stroke="black" fill="none" stroke-width="5.0" stroke-linecap="round" stroke-linejoin="round" />
<path d="M 136.0 127.0 L 136.0 128.0 L 137.0 129.0 L 141.0 130.0 L 148.0 131.0 L 155.0 131.0 L 162.0 131.0 L 163.0 132.0 " stroke="black" fill="none" stroke-width="5.0" stroke-linecap="round" stroke-linejoin="round" />
<path d="M 149.0 104.0 L 149.0 104.0 L 149.0 104.0 L 149.0 106.0 L 149.0 113.0 L 150.0 127.0 L 151.0 141.0 L 152.0 150.0 L 152.0 153.0 " stroke="black" fill="none" stroke-width="5.0" stroke-linecap="round" stroke-linejoin="round" />
<path d="M 133.0 159.0 L 133.0 159.0 L 135.0 160.0 L 140.0 160.0 L 150.0 159.0 L 160.0 158.0 L 166.0 156.0 L 166.0 156.0 " stroke="black" fill="none" stroke-width="5.0" stroke-linecap="round" stroke-linejoin="round" />
<path d="M 164.0 148.0 L 165.0 149.0 L 166.0 151.0 L 167.0 156.0 L 169.0 161.0 L 170.0 166.0 L 170.0 166.0 " stroke="black" fill="none" stroke-width="5.0" stroke-linecap="round" stroke-linejoin="round" />
<path d="M 124.0 144.0 L 124.0 144.0 L 124.0 146.0 L 124.0 153.0 L 125.0 165.0 L 126.0 175.0 L 128.0 178.0 L 128.0 178.0 " stroke="black" fill="none" stroke-width="5.0" stroke-linecap="round" stroke-linejoin="round" />
<path d="M 128.0 148.0 L 129.0 147.0 L 130.0 146.0 L 134.0 145.0 L 140.0 144.0 L 148.0 144.0 L 157.0 143.0 L 165.0 142.0 L 171.0 142.0 L 175.0 145.0 L 178.0 151.0 L 180.0 159.0 L 181.0 167.0 L 182.0 172.0 L 183.0 174.0 L 182.0 175.0 L 178.0 175.0 L 170.0 174.0 L 162.0 172.0 " stroke="black" fill="none" stroke-width="5.0" stroke-linecap="round" stroke-linejoin="round" />
<path d="M 126.0 190.0 L 126.0 190.0 L 126.0 190.0 L 126.0 191.0 L 123.0 196.0 L 120.0 202.0 L 119.0 203.0 " stroke="black" fill="none" stroke-width="5.0" stroke-linecap="round" stroke-linejoin="round" />
<path d="M 143.0 195.0 L 143.0 195.0 L 142.0 195.0 L 142.0 195.0 L 142.0 195.0 L 142.0 195.0 L 142.0 196.0 L 142.0 200.0 L 143.0 205.0 L 145.0 210.0 L 149.0 213.0 L 157.0 214.0 L 166.0 214.0 L 174.0 215.0 L 179.0 215.0 L 181.0 213.0 L 181.0 211.0 L 179.0 207.0 L 177.0 203.0 " stroke="black" fill="none" stroke-width="5.0" stroke-linecap="round" stroke-linejoin="round" />
<path d="M 153.0 185.0 L 153.0 185.0 L 153.0 186.0 L 154.0 190.0 L 156.0 196.0 L 157.0 198.0 " stroke="black" fill="none" stroke-width="5.0" stroke-linecap="round" stroke-linejoin="round" />
<path d="M 192.0 192.0 L 192.0 194.0 L 194.0 197.0 L 197.0 203.0 L 200.0 211.0 " stroke="black" fill="none" stroke-width="5.0" stroke-linecap="round" stroke-linejoin="round" />
</svg>