<svg xmlns="http://www.w3.org/2000/svg" width="300" height="300" viewBox="0 0 300 300">
<path d="M 120.0 107.0 L 120.0 107.0 L 120.0 107.0 L 120.0 109.0 L 120.0 115.0 L 120.0 124.0 L 121.0 134.0 L 122.0 139.0 L 122.0 140.0 " stroke="black" fill="none" stroke-width="5.0" stroke-linecap="round" stroke-linejoin="round" />
<path d="M 119.0 108.0 L 119.0 108.0 L 120.0 108.0 L 120.0 108.0 L 121.0 108.0 L 124.0 108.0 L 127.0 108.0 L 132.0 108.0 L 136.0 108.0 L 140.0 108.0 L 142.0 110.0 L 143.0 117.0 L 144.0 126.0 L 145.0 133.0 L 146.0 138.0 L 146.0 138.0 " stroke="black" fill="none" stroke-width="5.0" stroke-linecap="round" stroke-linejoin="round" />
<path d="M 124.0 119.0 L 124.0 119.0 L 126.0 120.0 L 127.0 120.0 L 129.0 120.0 L 132.0 120.0 L 136.0 120.0 L 140.0 119.0 L 141.0 118.0 " stroke="black" fill="none" stroke-width="5.0" stroke-linecap="round" stroke-linejoin="round" />
<path d="M 123.0 127.0 L 125.0 127.0 L 126.0 128.0 L 130.0 128.0 L 137.0 127.0 L 138.0 127.0 L 139.0 127.0 " stroke="black" fill="none" stroke-width="5.0" stroke-linecap="round" stroke-linejoin="round" />
<path d="M 124.0 132.0 L 127.0 133.0 L 130.0 134.0 L 134.0 135.0 L 138.0 135.0 L 143.0 135.0 " stroke="black" fill="none" stroke-width="5.0" stroke-linecap="round" stroke-linejoin="round" />
<path d="M 110.0 149.0 L 111.0 149.0 L 111.0 149.0 L 114.0 149.0 L 122.0 148.0 L 135.0 147.0 L 146.0 146.0 L 148.0 146.0 " stroke="black" fill="none" stroke-width="5.0" stroke-linecap="round" stroke-linejoin="round" />
<path d="M 132.0 148.0 L 132.0 148.0 L 132.0 148.0 L 133.0 148.0 L 134.0 151.0 L 135.0 157.0 L 136.0 163.0 L 136.0 167.0 L 136.0 168.0 L 134.0 168.0 L 130.0 166.0 L 125.0 163.0 " stroke="black" fill="none" stroke-width="5.0" stroke-linecap="round" stroke-linejoin="round" />
<path d="M 122.0 152.0 L 122.0 152.0 L 122.0 153.0 L 122.0 156.0 L 119.0 159.0 L 116.0 163.0 L 115.0 165.0 " stroke="black" fill="none" stroke-width="5.0" stroke-linecap="round" stroke-linejoin="round" />
<path d="M 139.0 154.0 L 139.0 155.0 L 141.0 159.0 L 145.0 163.0 L 150.0 166.0 L 152.0 168.0 " stroke="black" fill="none" stroke-width="5.0" stroke-linecap="round" stroke-linejoin="round" />
<path d="M 166.0 112.0 L 165.0 114.0 L 164.0 116.0 L 162.0 119.0 L 159.0 122.0 L 158.0 123.0 " stroke="black" fill="none" stroke-width="5.0" stroke-linecap="round" stroke-linejoin="round" />
<path d="M 172.0 119.0 L 172.0 119.0 L 172.0 119.0 L 172.0 118.0 L 172.0 118.0 L 172.0 118.0 L 172.0 118.0 L 172.0 118.0 L 170.0 121.0 L 167.0 125.0 L 163.0 128.0 L 161.0 130.0 L 161.0 132.0 L 163.0 134.0 L 168.0 134.0 L 171.0 134.0 " stroke="black" fill="none" stroke-width="5.0" stroke-linecap="round" stroke-linejoin="round" />
<path d="M 179.0 124.0 L 178.0 125.0 L 177.0 126.0 L 176.0 127.0 L 173.0 129.0 L 169.0 132.0 L 164.0 136.0 L 160.0 140.0 L 159.0 142.0 L 161.0 143.0 L 167.0 143.0 L 174.0 142.0 L 179.0 141.0 L 180.0 141.0 " stroke="black" fill="none" stroke-width="5.0" stroke-linecap="round" stroke-linejoin="round" />
<path d="M 181.0 136.0 L 181.0 137.0 L 181.0 138.0 L 182.0 140.0 L 183.0 141.0 L 186.0 144.0 " stroke="black" fill="none" stroke-width="5.0" stroke-linecap="round" stroke-linejoin="round" />
<path d="M 167.0 149.0 L 167.0 149.0 L 167.0 149.0 L 168.0 149.0 L 168.0 150.0 L 169.0 152.0 L 170.0 157.0 L 171.0 165.0 L 171.0 172.0 L 171.0 176.0 L 171.0 176.0 L 168.0 175.0 L 164.0 170.0 " stroke="black" fill="none" stroke-width="5.0" stroke-linecap="round" stroke-linejoin="round" />
<path d="M 160.0 150.0 L 160.0 150.0 L 160.0 151.0 L 160.0 153.0 L 160.0 157.0 L 159.0 163.0 L 158.0 166.0 " stroke="black" fill="none" stroke-width="5.0" stroke-linecap="round" stroke-linejoin="round" />
<path d="M 183.0 157.0 L 183.0 158.0 L 183.0 161.0 L 185.0 164.0 L 187.0 167.0 " stroke="black" fill="none" stroke-width="5.0" stroke-linecap="round" stroke-linejoin="round" />
<path d="M 121.0 179.0 L 121.0 179.0 L 121.0 179.0 L 121.0 179.0 L 119.0 181.0 L 114.0 188.0 L 111.0 192.0 " stroke="black" fill="none" stroke-width="5.0" stroke-linecap="round" stroke-linejoin="round" />
<path d="M 131.0 195.0 L 131.0 195.0 L 132.0 194.0 L 132.0 194.0 L 132.0 195.0 L 131.0 198.0 L 130.0 201.0 L 130.0 205.0 L 130.0 208.0 L 131.0 210.0 L 136.0 212.0 L 143.0 213.0 L 153.0 214.0 L 163.0 214.0 L 172.0 214.0 L 180.0 214.0 L 184.0 215.0 L 185.0 215.0 L 185.0 215.0 L 184.0 214.0 L 182.0 208.0 L 178.0 199.0 " stroke="black" fill="none" stroke-width="5.0" stroke-linecap="round" stroke-linejoin="round" />
<path d="M 153.0 190.0 L 155.0 190.0 L 156.0 191.0 L 157.0 193.0 L 159.0 196.0 L 160.0 197.0 " stroke="black" fill="none" stroke-width="5.0" stroke-linecap="round" stroke-linejoin="round" />
<path d="M 193.0 181.0 L 193.0 181.0 L 195.0 183.0 L 198.0 186.0 L 201.0 191.0 L 203.0 196.0 " stroke="black" fill="none" stroke-width="5.0" stroke-linecap="round" stroke-linejoin="round" />
</svg>