<svg xmlns="http://www.w3.org/2000/svg" width="300" height="300" viewBox="0 0 300 300">
<path d="M 125.0 120.0 L 125.0 120.0 L 125.0 120.0 L 125.0 120.0 L 125.0 120.0 L 125.0 122.0 L 126.0 128.0 L 126.0 143.0 L 127.0 165.0 L 127.0 183.0 L 127.0 190.0 L 127.0 191.0 " stroke="black" fill="none" stroke-width="5.0" stroke-linecap="round" stroke-linejoin="round" />
<path d="M 121.0 149.0 L 121.0 149.0 L 121.0 150.0 L 121.0 152.0 L 119.0 154.0 L 117.0 158.0 L 113.0 164.0 L 111.0 167.0 " stroke="black" fill="none" stroke-width="5.0" stroke-linecap="round" stroke-linejoin="round" />
<path d="M 128.0 154.0 L 129.0 154.0 L 131.0 155.0 L 134.0 158.0 L 139.0 162.0 L 143.0 165.0 " stroke="black" fill="none" stroke-width="5.0" stroke-linecap="round" stroke-linejoin="round" />
<path d="M 143.0 134.0 L 143.0 134.0 L 143.0 134.0 L 143.0 133.0 L 148.0 133.0 L 157.0 133.0 L 166.0 133.0 L 172.0 133.0 L 173.0 133.0 " stroke="black" fill="none" stroke-width="5.0" stroke-linecap="round" stroke-linejoin="round" />
<path d="M 160.0 122.0 L 160.0 122.0 L 160.0 123.0 L 160.0 125.0 L 159.0 130.0 L 157.0 136.0 L 154.0 143.0 " stroke="black" fill="none" stroke-width="5.0" stroke-linecap="round" stroke-linejoin="round" />
<path d="M 149.0 146.0 L 149.0 146.0 L 149.0 146.0 L 149.0 147.0 L 149.0 151.0 L 149.0 158.0 L 151.0 168.0 L 152.0 176.0 L 152.0 180.0 " stroke="black" fill="none" stroke-width="5.0" stroke-linecap="round" stroke-linejoin="round" />
<path d="M 150.0 145.0 L 151.0 144.0 L 151.0 144.0 L 152.0 144.0 L 154.0 143.0 L 158.0 143.0 L 163.0 142.0 L 168.0 142.0 L 172.0 144.0 L 176.0 149.0 L 179.0 158.0 L 183.0 167.0 L 184.0 176.0 L 185.0 182.0 L 184.0 184.0 " stroke="black" fill="none" stroke-width="5.0" stroke-linecap="round" stroke-linejoin="round" />
<path d="M 153.0 160.0 L 153.0 160.0 L 154.0 160.0 L 154.0 160.0 L 157.0 160.0 L 163.0 159.0 L 169.0 157.0 L 174.0 157.0 L 174.0 157.0 " stroke="black" fill="none" stroke-width="5.0" stroke-linecap="round" stroke-linejoin="round" />
<path d="M 155.0 167.0 L 155.0 167.0 L 156.0 168.0 L 157.0 169.0 L 162.0 169.0 L 168.0 169.0 L 175.0 168.0 L 177.0 168.0 L 177.0 168.0 " stroke="black" fill="none" stroke-width="5.0" stroke-linecap="round" stroke-linejoin="round" />
<path d="M 153.0 178.0 L 154.0 179.0 L 157.0 179.0 L 161.0 180.0 L 168.0 180.0 L 174.0 180.0 L 178.0 181.0 L 178.0 181.0 " stroke="black" fill="none" stroke-width="5.0" stroke-linecap="round" stroke-linejoin="round" />
<path d="M 144.0 194.0 L 145.0 194.0 L 146.0 194.0 L 150.0 194.0 L 159.0 194.0 L 172.0 194.0 L 182.0 194.0 L 188.0 194.0 L 188.0 195.0 " stroke="black" fill="none" stroke-width="5.0" stroke-linecap="round" stroke-linejoin="round" />
<path d="M 162.0 198.0 L 163.0 198.0 L 163.0 199.0 L 163.0 201.0 L 163.0 206.0 L 163.0 211.0 " stroke="black" fill="none" stroke-width="5.0" stroke-linecap="round" stroke-linejoin="round" />
<path d="M 178.0 201.0 L 178.0 203.0 L 178.0 205.0 L 180.0 209.0 L 183.0 213.0 " stroke="black" fill="none" stroke-width="5.0" stroke-linecap="round" stroke-linejoin="round" />
</svg>