<svg xmlns="http://www.w3.org/2000/svg" width="300" height="300" viewBox="0 0 300 300">
<path d="M 122.0 110.0 L 122.0 110.0 L 122.0 110.0 L 123.0 110.0 L 123.0 110.0 L 123.0 110.0 L 124.0 113.0 L 125.0 125.0 L 126.0 147.0 L 127.0 168.0 L 127.0 183.0 L 128.0 188.0 " stroke="black" fill="none" stroke-width="5.0" stroke-linecap="round" stroke-linejoin="round" />
<path d="M 115.0 143.0 L 115.0 143.0 L 115.0 144.0 L 114.0 147.0 L 111.0 154.0 L 108.0 161.0 " stroke="black" fill="none" stroke-width="5.0" stroke-linecap="round" stroke-linejoin="round" />
<path d="M 134.0 145.0 L 136.0 148.0 L 138.0 152.0 L 140.0 158.0 L 142.0 161.0 " stroke="black" fill="none" stroke-width="5.0" stroke-linecap="round" stroke-linejoin="round" />
<path d="M 147.0 122.0 L 147.0 122.0 L 147.0 122.0 L 147.0 122.0 L 150.0 122.0 L 157.0 122.0 L 166.0 121.0 L 174.0 121.0 L 175.0 121.0 " stroke="black" fill="none" stroke-width="5.0" stroke-linecap="round" stroke-linejoin="round" />
<path d="M 158.0 106.0 L 158.0 107.0 L 159.0 110.0 L 160.0 118.0 L 163.0 129.0 L 165.0 140.0 L 165.0 146.0 L 165.0 148.0 " stroke="black" fill="none" stroke-width="5.0" stroke-linecap="round" stroke-linejoin="round" />
<path d="M 148.0 111.0 L 148.0 111.0 L 147.0 111.0 L 147.0 111.0 L 149.0 114.0 L 154.0 118.0 L 155.0 119.0 " stroke="black" fill="none" stroke-width="5.0" stroke-linecap="round" stroke-linejoin="round" />
<path d="M 174.0 110.0 L 173.0 112.0 L 172.0 113.0 L 170.0 116.0 L 166.0 121.0 L 165.0 122.0 " stroke="black" fill="none" stroke-width="5.0" stroke-linecap="round" stroke-linejoin="round" />
<path d="M 153.0 130.0 L 153.0 130.0 L 153.0 131.0 L 152.0 131.0 L 151.0 132.0 L 149.0 135.0 L 146.0 139.0 L 144.0 142.0 " stroke="black" fill="none" stroke-width="5.0" stroke-linecap="round" stroke-linejoin="round" />
<path d="M 167.0 130.0 L 169.0 131.0 L 173.0 133.0 L 178.0 138.0 L 183.0 144.0 L 185.0 147.0 " stroke="black" fill="none" stroke-width="5.0" stroke-linecap="round" stroke-linejoin="round" />
<path d="M 156.0 152.0 L 156.0 152.0 L 156.0 152.0 L 155.0 153.0 L 154.0 155.0 L 153.0 159.0 L 150.0 165.0 L 148.0 168.0 " stroke="black" fill="none" stroke-width="5.0" stroke-linecap="round" stroke-linejoin="round" />
<path d="M 152.0 160.0 L 152.0 160.0 L 153.0 160.0 L 154.0 160.0 L 156.0 160.0 L 161.0 161.0 L 161.0 164.0 L 161.0 170.0 L 159.0 177.0 L 156.0 184.0 L 154.0 188.0 L 153.0 188.0 " stroke="black" fill="none" stroke-width="5.0" stroke-linecap="round" stroke-linejoin="round" />
<path d="M 150.0 170.0 L 150.0 171.0 L 151.0 172.0 L 153.0 174.0 L 157.0 176.0 " stroke="black" fill="none" stroke-width="5.0" stroke-linecap="round" stroke-linejoin="round" />
<path d="M 170.0 161.0 L 170.0 161.0 L 170.0 161.0 L 171.0 161.0 L 179.0 160.0 L 184.0 160.0 L 187.0 160.0 " stroke="black" fill="none" stroke-width="5.0" stroke-linecap="round" stroke-linejoin="round" />
<path d="M 174.0 162.0 L 174.0 162.0 L 174.0 162.0 L 173.0 163.0 L 173.0 163.0 L 172.0 165.0 L 169.0 169.0 L 167.0 174.0 L 168.0 179.0 L 175.0 181.0 L 184.0 182.0 L 191.0 182.0 L 193.0 182.0 " stroke="black" fill="none" stroke-width="5.0" stroke-linecap="round" stroke-linejoin="round" />
<path d="M 179.0 155.0 L 179.0 155.0 L 178.0 155.0 L 178.0 155.0 L 178.0 156.0 L 182.0 177.0 L 184.0 191.0 L 185.0 198.0 L 185.0 200.0 " stroke="black" fill="none" stroke-width="5.0" stroke-linecap="round" stroke-linejoin="round" />
</svg>