<svg xmlns="http://www.w3.org/2000/svg" width="300" height="300" viewBox="0 0 300 300">
<path d="M 146.0 102.0 L 146.0 102.0 L 146.0 102.0 L 146.0 102.0 L 146.0 102.0 L 146.0 102.0 L 146.0 102.0 L 148.0 105.0 L 150.0 108.0 " stroke="black" fill="none" stroke-width="5.0" stroke-linecap="round" stroke-linejoin="round" />
<path d="M 132.0 119.0 L 132.0 119.0 L 132.0 119.0 L 132.0 119.0 L 132.0 119.0 L 134.0 119.0 L 142.0 119.0 L 154.0 118.0 L 165.0 117.0 L 170.0 117.0 " stroke="black" fill="none" stroke-width="5.0" stroke-linecap="round" stroke-linejoin="round" />
<path d="M 141.0 123.0 L 141.0 123.0 L 141.0 124.0 L 141.0 126.0 L 141.0 130.0 L 142.0 134.0 L 144.0 137.0 " stroke="black" fill="none" stroke-width="5.0" stroke-linecap="round" stroke-linejoin="round" />
<path d="M 158.0 121.0 L 158.0 122.0 L 158.0 123.0 L 157.0 126.0 L 156.0 132.0 L 156.0 135.0 " stroke="black" fill="none" stroke-width="5.0" stroke-linecap="round" stroke-linejoin="round" />
<path d="M 117.0 145.0 L 117.0 145.0 L 118.0 144.0 L 123.0 144.0 L 136.0 142.0 L 153.0 141.0 L 168.0 140.0 L 177.0 140.0 L 180.0 139.0 " stroke="black" fill="none" stroke-width="5.0" stroke-linecap="round" stroke-linejoin="round" />
<path d="M 137.0 157.0 L 137.0 157.0 L 137.0 157.0 L 137.0 157.0 L 137.0 157.0 L 137.0 157.0 L 137.0 157.0 L 138.0 161.0 L 139.0 168.0 L 140.0 175.0 L 140.0 177.0 " stroke="black" fill="none" stroke-width="5.0" stroke-linecap="round" stroke-linejoin="round" />
<path d="M 138.0 155.0 L 138.0 155.0 L 138.0 155.0 L 137.0 155.0 L 137.0 154.0 L 141.0 154.0 L 147.0 153.0 L 153.0 153.0 L 159.0 153.0 L 164.0 153.0 L 168.0 155.0 L 171.0 158.0 L 172.0 163.0 L 173.0 169.0 L 173.0 174.0 L 173.0 176.0 " stroke="black" fill="none" stroke-width="5.0" stroke-linecap="round" stroke-linejoin="round" />
<path d="M 146.0 164.0 L 146.0 164.0 L 145.0 165.0 L 145.0 165.0 L 145.0 165.0 L 149.0 165.0 L 156.0 165.0 L 163.0 164.0 L 168.0 164.0 L 169.0 165.0 " stroke="black" fill="none" stroke-width="5.0" stroke-linecap="round" stroke-linejoin="round" />
<path d="M 143.0 180.0 L 143.0 180.0 L 144.0 180.0 L 146.0 180.0 L 151.0 180.0 L 160.0 180.0 L 167.0 180.0 " stroke="black" fill="none" stroke-width="5.0" stroke-linecap="round" stroke-linejoin="round" />
<path d="M 126.0 189.0 L 126.0 189.0 L 126.0 189.0 L 126.0 189.0 L 126.0 189.0 L 124.0 192.0 L 122.0 196.0 L 120.0 199.0 " stroke="black" fill="none" stroke-width="5.0" stroke-linecap="round" stroke-linejoin="round" />
<path d="M 142.0 193.0 L 141.0 194.0 L 141.0 195.0 L 140.0 196.0 L 139.0 199.0 L 138.0 201.0 L 137.0 204.0 L 137.0 207.0 L 141.0 209.0 L 146.0 209.0 L 154.0 209.0 L 163.0 210.0 L 171.0 210.0 L 178.0 211.0 L 181.0 209.0 L 182.0 206.0 L 180.0 204.0 " stroke="black" fill="none" stroke-width="5.0" stroke-linecap="round" stroke-linejoin="round" />
<path d="M 161.0 189.0 L 161.0 191.0 L 161.0 194.0 L 162.0 198.0 L 163.0 199.0 " stroke="black" fill="none" stroke-width="5.0" stroke-linecap="round" stroke-linejoin="round" />
<path d="M 189.0 185.0 L 189.0 186.0 L 190.0 190.0 L 191.0 194.0 L 192.0 198.0 " stroke="black" fill="none" stroke-width="5.0" stroke-linecap="round" stroke-linejoin="round" />
</svg>