<svg xmlns="http://www.w3.org/2000/svg" width="300" height="300" viewBox="0 0 300 300">
<path d="M 140.0 103.0 L 140.0 103.0 L 140.0 103.0 L 140.0 102.0 L 140.0 102.0 L 140.0 102.0 L 143.0 105.0 L 147.0 108.0 " stroke="black" fill="none" stroke-width="5.0" stroke-linecap="round" stroke-linejoin="round" />
<path d="M 121.0 123.0 L 121.0 123.0 L 122.0 124.0 L 123.0 124.0 L 127.0 124.0 L 137.0 122.0 L 152.0 120.0 L 166.0 119.0 L 170.0 119.0 " stroke="black" fill="none" stroke-width="5.0" stroke-linecap="round" stroke-linejoin="round" />
<path d="M 121.0 124.0 L 121.0 124.0 L 121.0 124.0 L 121.0 128.0 L 121.0 144.0 L 120.0 167.0 L 116.0 188.0 L 115.0 192.0 " stroke="black" fill="none" stroke-width="5.0" stroke-linecap="round" stroke-linejoin="round" />
<path d="M 132.0 136.0 L 132.0 136.0 L 132.0 136.0 L 132.0 136.0 L 131.0 136.0 L 132.0 136.0 L 138.0 135.0 L 145.0 133.0 L 154.0 132.0 L 160.0 131.0 L 166.0 131.0 L 169.0 131.0 L 171.0 133.0 L 172.0 136.0 L 174.0 141.0 L 174.0 145.0 L 174.0 148.0 " stroke="black" fill="none" stroke-width="5.0" stroke-linecap="round" stroke-linejoin="round" />
<path d="M 125.0 153.0 L 125.0 153.0 L 125.0 153.0 L 125.0 153.0 L 125.0 153.0 L 132.0 152.0 L 146.0 150.0 L 162.0 148.0 L 172.0 148.0 L 176.0 148.0 " stroke="black" fill="none" stroke-width="5.0" stroke-linecap="round" stroke-linejoin="round" />
<path d="M 144.0 125.0 L 144.0 125.0 L 144.0 125.0 L 143.0 125.0 L 143.0 125.0 L 143.0 125.0 L 143.0 131.0 L 144.0 139.0 L 146.0 148.0 " stroke="black" fill="none" stroke-width="5.0" stroke-linecap="round" stroke-linejoin="round" />
<path d="M 154.0 126.0 L 154.0 126.0 L 155.0 126.0 L 155.0 126.0 L 156.0 126.0 L 156.0 130.0 L 157.0 137.0 L 157.0 142.0 " stroke="black" fill="none" stroke-width="5.0" stroke-linecap="round" stroke-linejoin="round" />
<path d="M 128.0 160.0 L 128.0 161.0 L 129.0 162.0 L 131.0 162.0 L 137.0 161.0 L 147.0 158.0 L 158.0 155.0 L 168.0 154.0 L 174.0 154.0 L 177.0 155.0 L 178.0 157.0 L 178.0 161.0 L 178.0 166.0 L 178.0 166.0 " stroke="black" fill="none" stroke-width="5.0" stroke-linecap="round" stroke-linejoin="round" />
<path d="M 135.0 168.0 L 135.0 168.0 L 135.0 168.0 L 135.0 168.0 L 135.0 169.0 L 133.0 173.0 L 131.0 177.0 L 131.0 179.0 " stroke="black" fill="none" stroke-width="5.0" stroke-linecap="round" stroke-linejoin="round" />
<path d="M 142.0 169.0 L 142.0 169.0 L 142.0 169.0 L 141.0 170.0 L 142.0 171.0 L 146.0 174.0 L 152.0 175.0 L 159.0 176.0 L 164.0 176.0 " stroke="black" fill="none" stroke-width="5.0" stroke-linecap="round" stroke-linejoin="round" />
<path d="M 154.0 163.0 L 154.0 164.0 L 155.0 165.0 L 157.0 167.0 L 158.0 170.0 L 159.0 171.0 " stroke="black" fill="none" stroke-width="5.0" stroke-linecap="round" stroke-linejoin="round" />
<path d="M 168.0 163.0 L 169.0 165.0 L 169.0 167.0 L 171.0 169.0 L 172.0 172.0 " stroke="black" fill="none" stroke-width="5.0" stroke-linecap="round" stroke-linejoin="round" />
<path d="M 149.0 177.0 L 148.0 178.0 L 147.0 180.0 L 144.0 184.0 L 139.0 191.0 L 135.0 197.0 L 134.0 198.0 " stroke="black" fill="none" stroke-width="5.0" stroke-linecap="round" stroke-linejoin="round" />
<path d="M 145.0 189.0 L 146.0 189.0 L 147.0 188.0 L 151.0 187.0 L 158.0 185.0 L 164.0 185.0 L 167.0 185.0 L 167.0 188.0 L 163.0 194.0 L 158.0 202.0 L 152.0 210.0 L 150.0 212.0 " stroke="black" fill="none" stroke-width="5.0" stroke-linecap="round" stroke-linejoin="round" />
<path d="M 143.0 193.0 L 144.0 193.0 L 147.0 193.0 L 153.0 199.0 L 163.0 210.0 L 174.0 219.0 L 181.0 224.0 L 182.0 225.0 " stroke="black" fill="none" stroke-width="5.0" stroke-linecap="round" stroke-linejoin="round" />
</svg>