<svg xmlns="http://www.w3.org/2000/svg" width="300" height="300" viewBox="0 0 300 300">
<path d="M 113.0 120.0 L 114.0 120.0 L 115.0 120.0 L 122.0 120.0 L 137.0 119.0 L 156.0 116.0 L 170.0 114.0 L 175.0 113.0 " stroke="black" fill="none" stroke-width="5.0" stroke-linecap="round" stroke-linejoin="round" />
<path d="M 113.0 125.0 L 114.0 125.0 L 115.0 125.0 L 115.0 126.0 L 115.0 128.0 L 115.0 135.0 L 115.0 151.0 L 113.0 174.0 L 110.0 195.0 L 110.0 203.0 " stroke="black" fill="none" stroke-width="5.0" stroke-linecap="round" stroke-linejoin="round" />
<path d="M 136.0 132.0 L 136.0 132.0 L 135.0 132.0 L 135.0 133.0 L 135.0 135.0 L 135.0 141.0 L 137.0 149.0 L 137.0 152.0 " stroke="black" fill="none" stroke-width="5.0" stroke-linecap="round" stroke-linejoin="round" />
<path d="M 136.0 143.0 L 136.0 143.0 L 136.0 143.0 L 136.0 143.0 L 137.0 143.0 L 141.0 144.0 L 146.0 144.0 " stroke="black" fill="none" stroke-width="5.0" stroke-linecap="round" stroke-linejoin="round" />
<path d="M 125.0 155.0 L 125.0 155.0 L 126.0 155.0 L 129.0 155.0 L 136.0 155.0 L 143.0 155.0 L 149.0 154.0 L 150.0 154.0 " stroke="black" fill="none" stroke-width="5.0" stroke-linecap="round" stroke-linejoin="round" />
<path d="M 140.0 153.0 L 140.0 153.0 L 140.0 153.0 L 140.0 153.0 L 140.0 153.0 L 140.0 156.0 L 141.0 161.0 L 142.0 167.0 L 142.0 171.0 L 142.0 174.0 L 142.0 174.0 L 139.0 174.0 L 135.0 173.0 " stroke="black" fill="none" stroke-width="5.0" stroke-linecap="round" stroke-linejoin="round" />
<path d="M 132.0 161.0 L 132.0 161.0 L 131.0 162.0 L 130.0 162.0 L 129.0 164.0 L 128.0 167.0 L 128.0 169.0 " stroke="black" fill="none" stroke-width="5.0" stroke-linecap="round" stroke-linejoin="round" />
<path d="M 150.0 163.0 L 151.0 166.0 L 153.0 168.0 L 154.0 172.0 " stroke="black" fill="none" stroke-width="5.0" stroke-linecap="round" stroke-linejoin="round" />
<path d="M 124.0 183.0 L 124.0 183.0 L 124.0 183.0 L 123.0 184.0 L 122.0 187.0 L 120.0 191.0 " stroke="black" fill="none" stroke-width="5.0" stroke-linecap="round" stroke-linejoin="round" />
<path d="M 131.0 188.0 L 131.0 188.0 L 131.0 188.0 L 131.0 188.0 L 131.0 188.0 L 131.0 187.0 L 131.0 187.0 L 131.0 189.0 L 131.0 193.0 L 131.0 196.0 L 134.0 199.0 L 137.0 200.0 L 141.0 201.0 L 145.0 200.0 L 148.0 198.0 L 150.0 197.0 L 151.0 195.0 L 151.0 194.0 " stroke="black" fill="none" stroke-width="5.0" stroke-linecap="round" stroke-linejoin="round" />
<path d="M 138.0 186.0 L 138.0 187.0 L 137.0 189.0 L 137.0 191.0 L 138.0 193.0 " stroke="black" fill="none" stroke-width="5.0" stroke-linecap="round" stroke-linejoin="round" />
<path d="M 153.0 185.0 L 153.0 185.0 L 154.0 187.0 L 154.0 189.0 L 155.0 192.0 " stroke="black" fill="none" stroke-width="5.0" stroke-linecap="round" stroke-linejoin="round" />
<path d="M 152.0 101.0 L 152.0 101.0 L 152.0 101.0 L 152.0 101.0 L 153.0 103.0 L 157.0 116.0 L 165.0 143.0 L 175.0 174.0 L 183.0 192.0 L 188.0 199.0 L 189.0 200.0 " stroke="black" fill="none" stroke-width="5.0" stroke-linecap="round" stroke-linejoin="round" />
<path d="M 190.0 160.0 L 188.0 162.0 L 186.0 165.0 L 184.0 170.0 L 179.0 179.0 L 172.0 190.0 " stroke="black" fill="none" stroke-width="5.0" stroke-linecap="round" stroke-linejoin="round" />
<path d="M 181.0 99.0 L 181.0 100.0 L 183.0 105.0 L 187.0 113.0 L 188.0 114.0 " stroke="black" fill="none" stroke-width="5.0" stroke-linecap="round" stroke-linejoin="round" />
</svg>