<svg xmlns="http://www.w3.org/2000/svg" width="300" height="300" viewBox="0 0 300 300">
<path d="M 142.0 99.0 L 142.0 99.0 L 142.0 99.0 L 142.0 100.0 L 141.0 103.0 L 139.0 107.0 L 136.0 112.0 L 134.0 116.0 L 132.0 118.0 L 132.0 119.0 L 132.0 119.0 L 134.0 119.0 L 139.0 118.0 L 144.0 118.0 L 149.0 117.0 L 154.0 116.0 L 158.0 116.0 L 161.0 116.0 L 162.0 116.0 L 163.0 117.0 L 164.0 117.0 L 165.0 118.0 L 166.0 120.0 L 167.0 123.0 L 168.0 129.0 L 169.0 135.0 L 169.0 138.0 L 169.0 139.0 " stroke="black" fill="none" stroke-width="5.0" stroke-linecap="round" stroke-linejoin="round" />
<path d="M 127.0 136.0 L 127.0 136.0 L 127.0 136.0 L 128.0 136.0 L 134.0 136.0 L 145.0 135.0 L 157.0 135.0 L 164.0 135.0 L 165.0 136.0 " stroke="black" fill="none" stroke-width="5.0" stroke-linecap="round" stroke-linejoin="round" />
<path d="M 130.0 119.0 L 130.0 119.0 L 130.0 120.0 L 130.0 121.0 L 128.0 126.0 L 126.0 141.0 L 121.0 168.0 L 113.0 191.0 L 107.0 203.0 L 107.0 204.0 " stroke="black" fill="none" stroke-width="5.0" stroke-linecap="round" stroke-linejoin="round" />
<path d="M 150.0 146.0 L 150.0 146.0 L 150.0 147.0 L 150.0 148.0 L 152.0 151.0 L 154.0 155.0 " stroke="black" fill="none" stroke-width="5.0" stroke-linecap="round" stroke-linejoin="round" />
<path d="M 136.0 160.0 L 137.0 160.0 L 139.0 161.0 L 145.0 161.0 L 153.0 161.0 L 161.0 160.0 L 166.0 159.0 L 167.0 159.0 L 167.0 159.0 " stroke="black" fill="none" stroke-width="5.0" stroke-linecap="round" stroke-linejoin="round" />
<path d="M 147.0 164.0 L 147.0 164.0 L 147.0 164.0 L 147.0 164.0 L 148.0 164.0 L 148.0 169.0 L 146.0 180.0 L 144.0 193.0 L 143.0 202.0 L 142.0 204.0 L 142.0 204.0 " stroke="black" fill="none" stroke-width="5.0" stroke-linecap="round" stroke-linejoin="round" />
<path d="M 151.0 178.0 L 151.0 178.0 L 152.0 177.0 L 155.0 176.0 L 159.0 175.0 L 163.0 175.0 L 167.0 175.0 L 171.0 178.0 L 174.0 182.0 L 177.0 188.0 L 180.0 197.0 L 182.0 205.0 L 182.0 210.0 L 180.0 211.0 L 173.0 208.0 L 168.0 205.0 " stroke="black" fill="none" stroke-width="5.0" stroke-linecap="round" stroke-linejoin="round" />
</svg>