<svg xmlns="http://www.w3.org/2000/svg" width="300" height="300" viewBox="0 0 300 300">
<path d="M 108.0 130.0 L 109.0 130.0 L 110.0 130.0 L 112.0 129.0 L 118.0 129.0 L 126.0 128.0 L 131.0 128.0 " stroke="black" fill="none" stroke-width="5.0" stroke-linecap="round" stroke-linejoin="round" />
<path d="M 120.0 106.0 L 119.0 106.0 L 118.0 106.0 L 117.0 107.0 L 117.0 116.0 L 121.0 134.0 L 125.0 157.0 L 128.0 174.0 L 129.0 187.0 L 129.0 194.0 L 128.0 197.0 L 125.0 197.0 L 120.0 194.0 L 113.0 188.0 " stroke="black" fill="none" stroke-width="5.0" stroke-linecap="round" stroke-linejoin="round" />
<path d="M 103.0 160.0 L 103.0 160.0 L 104.0 160.0 L 108.0 160.0 L 119.0 160.0 L 134.0 158.0 " stroke="black" fill="none" stroke-width="5.0" stroke-linecap="round" stroke-linejoin="round" />
<path d="M 154.0 117.0 L 154.0 117.0 L 154.0 117.0 L 154.0 118.0 L 154.0 119.0 L 156.0 122.0 L 159.0 126.0 " stroke="black" fill="none" stroke-width="5.0" stroke-linecap="round" stroke-linejoin="round" />
<path d="M 143.0 137.0 L 143.0 137.0 L 143.0 137.0 L 143.0 137.0 L 147.0 137.0 L 156.0 136.0 L 167.0 134.0 L 174.0 134.0 L 177.0 135.0 L 177.0 136.0 " stroke="black" fill="none" stroke-width="5.0" stroke-linecap="round" stroke-linejoin="round" />
<path d="M 148.0 157.0 L 148.0 157.0 L 148.0 157.0 L 148.0 158.0 L 148.0 165.0 L 148.0 179.0 L 148.0 192.0 L 148.0 199.0 " stroke="black" fill="none" stroke-width="5.0" stroke-linecap="round" stroke-linejoin="round" />
<path d="M 150.0 154.0 L 150.0 154.0 L 151.0 154.0 L 153.0 153.0 L 157.0 153.0 L 162.0 152.0 L 167.0 154.0 L 171.0 160.0 L 174.0 170.0 L 178.0 183.0 L 182.0 194.0 L 189.0 199.0 L 194.0 200.0 L 197.0 199.0 " stroke="black" fill="none" stroke-width="5.0" stroke-linecap="round" stroke-linejoin="round" />
</svg>