<svg xmlns="http://www.w3.org/2000/svg" width="300" height="300" viewBox="0 0 300 300">
<path d="M 122.0 127.0 L 122.0 127.0 L 122.0 127.0 L 122.0 127.0 L 122.0 127.0 L 124.0 127.0 L 127.0 127.0 L 133.0 127.0 L 138.0 127.0 " stroke="black" fill="none" stroke-width="5.0" stroke-linecap="round" stroke-linejoin="round" />
<path d="M 129.0 111.0 L 129.0 111.0 L 129.0 111.0 L 129.0 111.0 L 129.0 115.0 L 130.0 127.0 L 132.0 147.0 L 133.0 165.0 L 133.0 178.0 L 133.0 185.0 L 132.0 187.0 L 131.0 187.0 L 127.0 184.0 L 121.0 181.0 L 115.0 178.0 L 113.0 178.0 " stroke="black" fill="none" stroke-width="5.0" stroke-linecap="round" stroke-linejoin="round" />
<path d="M 113.0 158.0 L 113.0 158.0 L 114.0 158.0 L 118.0 157.0 L 127.0 154.0 L 137.0 151.0 " stroke="black" fill="none" stroke-width="5.0" stroke-linecap="round" stroke-linejoin="round" />
<path d="M 153.0 131.0 L 153.0 131.0 L 153.0 131.0 L 153.0 131.0 L 155.0 131.0 L 160.0 131.0 L 168.0 129.0 L 172.0 129.0 " stroke="black" fill="none" stroke-width="5.0" stroke-linecap="round" stroke-linejoin="round" />
<path d="M 145.0 155.0 L 145.0 155.0 L 147.0 155.0 L 152.0 155.0 L 160.0 155.0 L 171.0 155.0 L 177.0 155.0 " stroke="black" fill="none" stroke-width="5.0" stroke-linecap="round" stroke-linejoin="round" />
<path d="M 160.0 116.0 L 160.0 116.0 L 160.0 116.0 L 160.0 116.0 L 160.0 116.0 L 160.0 122.0 L 160.0 140.0 L 158.0 165.0 L 153.0 186.0 L 150.0 196.0 L 150.0 197.0 " stroke="black" fill="none" stroke-width="5.0" stroke-linecap="round" stroke-linejoin="round" />
<path d="M 166.0 161.0 L 166.0 161.0 L 167.0 162.0 L 170.0 165.0 L 177.0 173.0 L 187.0 186.0 L 193.0 195.0 L 194.0 196.0 " stroke="black" fill="none" stroke-width="5.0" stroke-linecap="round" stroke-linejoin="round" />
</svg>