<svg xmlns="http://www.w3.org/2000/svg" width="300" height="300" viewBox="0 0 300 300">
<path d="M 120.0 126.0 L 120.0 126.0 L 119.0 127.0 L 119.0 127.0 L 120.0 127.0 L 125.0 127.0 L 132.0 127.0 L 138.0 127.0 L 139.0 127.0 " stroke="black" fill="none" stroke-width="5.0" stroke-linecap="round" stroke-linejoin="round" />
<path d="M 131.0 109.0 L 131.0 109.0 L 130.0 109.0 L 130.0 112.0 L 130.0 118.0 L 131.0 133.0 L 132.0 152.0 L 132.0 169.0 L 132.0 182.0 L 132.0 190.0 L 132.0 194.0 L 132.0 194.0 L 131.0 194.0 L 126.0 192.0 L 118.0 189.0 L 111.0 185.0 " stroke="black" fill="none" stroke-width="5.0" stroke-linecap="round" stroke-linejoin="round" />
<path d="M 111.0 164.0 L 111.0 164.0 L 111.0 164.0 L 112.0 164.0 L 120.0 163.0 L 132.0 160.0 L 141.0 156.0 " stroke="black" fill="none" stroke-width="5.0" stroke-linecap="round" stroke-linejoin="round" />
<path d="M 152.0 127.0 L 152.0 127.0 L 152.0 127.0 L 153.0 127.0 L 158.0 126.0 L 166.0 125.0 L 173.0 124.0 L 179.0 123.0 L 182.0 123.0 L 184.0 123.0 L 184.0 124.0 L 184.0 127.0 L 184.0 132.0 L 183.0 137.0 L 183.0 139.0 " stroke="black" fill="none" stroke-width="5.0" stroke-linecap="round" stroke-linejoin="round" />
<path d="M 154.0 130.0 L 153.0 130.0 L 152.0 131.0 L 152.0 133.0 L 152.0 141.0 L 152.0 155.0 L 151.0 172.0 L 149.0 185.0 L 148.0 191.0 L 148.0 193.0 " stroke="black" fill="none" stroke-width="5.0" stroke-linecap="round" stroke-linejoin="round" />
<path d="M 164.0 113.0 L 164.0 113.0 L 164.0 113.0 L 164.0 113.0 L 164.0 115.0 L 164.0 122.0 L 165.0 135.0 L 165.0 147.0 L 165.0 151.0 " stroke="black" fill="none" stroke-width="5.0" stroke-linecap="round" stroke-linejoin="round" />
<path d="M 158.0 155.0 L 158.0 156.0 L 158.0 157.0 L 159.0 157.0 L 164.0 157.0 L 171.0 155.0 L 177.0 153.0 L 181.0 152.0 L 182.0 153.0 L 182.0 156.0 L 181.0 163.0 L 178.0 171.0 L 175.0 180.0 L 170.0 188.0 L 166.0 192.0 L 164.0 193.0 " stroke="black" fill="none" stroke-width="5.0" stroke-linecap="round" stroke-linejoin="round" />
<path d="M 157.0 160.0 L 157.0 160.0 L 157.0 161.0 L 159.0 163.0 L 167.0 170.0 L 180.0 183.0 L 192.0 196.0 L 198.0 205.0 L 200.0 209.0 L 201.0 210.0 L 201.0 210.0 L 201.0 209.0 " stroke="black" fill="none" stroke-width="5.0" stroke-linecap="round" stroke-linejoin="round" />
</svg>