<svg xmlns="http://www.w3.org/2000/svg" width="300" height="300" viewBox="0 0 300 300">
<path d="M 120.0 130.0 L 120.0 130.0 L 120.0 130.0 L 120.0 131.0 L 121.0 131.0 L 123.0 131.0 L 128.0 131.0 L 135.0 131.0 L 137.0 131.0 " stroke="black" fill="none" stroke-width="5.0" stroke-linecap="round" stroke-linejoin="round" />
<path d="M 130.0 116.0 L 130.0 116.0 L 130.0 116.0 L 129.0 116.0 L 129.0 120.0 L 130.0 132.0 L 133.0 150.0 L 134.0 168.0 L 135.0 182.0 L 136.0 189.0 L 136.0 190.0 L 133.0 188.0 L 126.0 183.0 L 121.0 181.0 " stroke="black" fill="none" stroke-width="5.0" stroke-linecap="round" stroke-linejoin="round" />
<path d="M 114.0 163.0 L 114.0 163.0 L 114.0 164.0 L 118.0 164.0 L 130.0 161.0 L 145.0 157.0 L 148.0 156.0 " stroke="black" fill="none" stroke-width="5.0" stroke-linecap="round" stroke-linejoin="round" />
<path d="M 149.0 144.0 L 149.0 145.0 L 149.0 146.0 L 149.0 152.0 L 149.0 164.0 L 150.0 177.0 L 151.0 184.0 " stroke="black" fill="none" stroke-width="5.0" stroke-linecap="round" stroke-linejoin="round" />
<path d="M 149.0 145.0 L 150.0 145.0 L 150.0 145.0 L 153.0 144.0 L 157.0 144.0 L 164.0 144.0 L 171.0 145.0 L 176.0 147.0 L 181.0 151.0 L 184.0 159.0 L 186.0 171.0 L 186.0 182.0 L 186.0 188.0 " stroke="black" fill="none" stroke-width="5.0" stroke-linecap="round" stroke-linejoin="round" />
<path d="M 152.0 162.0 L 152.0 162.0 L 152.0 162.0 L 153.0 162.0 L 159.0 162.0 L 171.0 162.0 L 179.0 162.0 L 184.0 163.0 L 184.0 164.0 " stroke="black" fill="none" stroke-width="5.0" stroke-linecap="round" stroke-linejoin="round" />
<path d="M 149.0 187.0 L 150.0 187.0 L 152.0 188.0 L 158.0 188.0 L 170.0 187.0 L 182.0 186.0 L 185.0 186.0 " stroke="black" fill="none" stroke-width="5.0" stroke-linecap="round" stroke-linejoin="round" />
<path d="M 160.0 116.0 L 160.0 115.0 L 160.0 113.0 L 160.0 114.0 L 161.0 126.0 L 163.0 150.0 L 164.0 176.0 L 164.0 186.0 " stroke="black" fill="none" stroke-width="5.0" stroke-linecap="round" stroke-linejoin="round" />
</svg>