<svg xmlns="http://www.w3.org/2000/svg" width="300" height="300" viewBox="0 0 300 300">
<path d="M 137.0 105.0 L 137.0 105.0 L 136.0 105.0 L 135.0 105.0 L 135.0 105.0 L 134.0 107.0 L 132.0 111.0 L 130.0 116.0 L 127.0 120.0 L 126.0 122.0 L 127.0 123.0 L 132.0 123.0 L 139.0 123.0 L 147.0 123.0 L 154.0 123.0 L 159.0 123.0 L 164.0 123.0 L 167.0 123.0 L 170.0 123.0 L 171.0 123.0 L 171.0 124.0 L 171.0 127.0 L 171.0 131.0 L 172.0 135.0 L 172.0 139.0 L 172.0 141.0 " stroke="black" fill="none" stroke-width="5.0" stroke-linecap="round" stroke-linejoin="round" />
<path d="M 125.0 142.0 L 125.0 142.0 L 127.0 142.0 L 129.0 142.0 L 133.0 142.0 L 141.0 142.0 L 150.0 142.0 L 158.0 143.0 L 165.0 143.0 L 167.0 143.0 " stroke="black" fill="none" stroke-width="5.0" stroke-linecap="round" stroke-linejoin="round" />
<path d="M 126.0 123.0 L 126.0 123.0 L 126.0 124.0 L 125.0 128.0 L 123.0 140.0 L 121.0 157.0 L 117.0 174.0 L 113.0 186.0 L 111.0 192.0 L 111.0 193.0 L 111.0 191.0 " stroke="black" fill="none" stroke-width="5.0" stroke-linecap="round" stroke-linejoin="round" />
<path d="M 133.0 163.0 L 133.0 163.0 L 133.0 163.0 L 133.0 164.0 L 134.0 164.0 L 139.0 164.0 L 147.0 164.0 L 156.0 164.0 L 164.0 164.0 L 169.0 164.0 L 172.0 163.0 L 172.0 163.0 L 171.0 163.0 " stroke="black" fill="none" stroke-width="5.0" stroke-linecap="round" stroke-linejoin="round" />
<path d="M 150.0 150.0 L 150.0 150.0 L 150.0 151.0 L 150.0 152.0 L 150.0 154.0 L 150.0 159.0 L 148.0 167.0 L 143.0 179.0 L 135.0 189.0 L 131.0 193.0 " stroke="black" fill="none" stroke-width="5.0" stroke-linecap="round" stroke-linejoin="round" />
<path d="M 149.0 168.0 L 149.0 168.0 L 149.0 168.0 L 150.0 168.0 L 152.0 169.0 L 157.0 176.0 L 165.0 185.0 L 175.0 192.0 L 182.0 196.0 L 185.0 196.0 L 185.0 196.0 " stroke="black" fill="none" stroke-width="5.0" stroke-linecap="round" stroke-linejoin="round" />
<path d="M 166.0 151.0 L 167.0 152.0 L 168.0 153.0 L 170.0 155.0 L 170.0 156.0 " stroke="black" fill="none" stroke-width="5.0" stroke-linecap="round" stroke-linejoin="round" />
</svg>