<svg xmlns="http://www.w3.org/2000/svg" width="300" height="300" viewBox="0 0 300 300">
<path d="M 111.0 131.0 L 111.0 131.0 L 111.0 131.0 L 112.0 131.0 L 118.0 131.0 L 128.0 131.0 L 133.0 131.0 " stroke="black" fill="none" stroke-width="5.0" stroke-linecap="round" stroke-linejoin="round" />
<path d="M 120.0 112.0 L 120.0 112.0 L 120.0 112.0 L 120.0 111.0 L 120.0 112.0 L 120.0 122.0 L 122.0 141.0 L 123.0 162.0 L 124.0 177.0 L 125.0 185.0 L 125.0 189.0 L 125.0 190.0 L 124.0 189.0 L 120.0 185.0 L 115.0 180.0 L 111.0 176.0 L 110.0 175.0 " stroke="black" fill="none" stroke-width="5.0" stroke-linecap="round" stroke-linejoin="round" />
<path d="M 102.0 161.0 L 103.0 161.0 L 104.0 160.0 L 107.0 160.0 L 115.0 159.0 L 127.0 157.0 L 130.0 157.0 " stroke="black" fill="none" stroke-width="5.0" stroke-linecap="round" stroke-linejoin="round" />
<path d="M 148.0 120.0 L 148.0 120.0 L 147.0 120.0 L 146.0 120.0 L 146.0 120.0 L 145.0 125.0 L 144.0 137.0 L 142.0 148.0 L 141.0 152.0 " stroke="black" fill="none" stroke-width="5.0" stroke-linecap="round" stroke-linejoin="round" />
<path d="M 148.0 120.0 L 148.0 120.0 L 148.0 120.0 L 148.0 120.0 L 150.0 120.0 L 154.0 120.0 L 158.0 120.0 L 161.0 120.0 L 164.0 122.0 L 165.0 126.0 L 165.0 133.0 L 165.0 141.0 L 168.0 147.0 L 174.0 148.0 L 180.0 146.0 " stroke="black" fill="none" stroke-width="5.0" stroke-linecap="round" stroke-linejoin="round" />
<path d="M 146.0 162.0 L 146.0 162.0 L 146.0 162.0 L 146.0 162.0 L 146.0 162.0 L 149.0 161.0 L 156.0 159.0 L 163.0 158.0 L 168.0 158.0 L 169.0 160.0 L 169.0 165.0 L 165.0 172.0 L 158.0 181.0 L 149.0 191.0 L 140.0 200.0 L 137.0 202.0 " stroke="black" fill="none" stroke-width="5.0" stroke-linecap="round" stroke-linejoin="round" />
<path d="M 141.0 168.0 L 141.0 168.0 L 141.0 170.0 L 143.0 172.0 L 149.0 177.0 L 161.0 187.0 L 175.0 199.0 L 185.0 206.0 L 186.0 207.0 " stroke="black" fill="none" stroke-width="5.0" stroke-linecap="round" stroke-linejoin="round" />
</svg>