<svg xmlns="http://www.w3.org/2000/svg" width="300" height="300" viewBox="0 0 300 300">
<path d="M 129.28571428571433 123.5714285714286 L 129.28571428571433 123.5714285714286 L 128.5714285714286 123.5714285714286 L 130.00000000000006 123.5714285714286 L 140.00000000000006 122.14285714285718 L 155.71428571428572 120.00000000000001 L 173.5714285714286 117.85714285714288 " stroke="black" fill="none" stroke-width="5.0" stroke-linecap="round" stroke-linejoin="round" />
<path d="M 130.71428571428572 127.14285714285718 L 130.71428571428572 127.14285714285718 L 130.71428571428572 127.14285714285718 L 130.71428571428572 127.14285714285718 L 130.71428571428572 130.00000000000006 L 128.5714285714286 143.5714285714286 L 123.5714285714286 165.71428571428572 L 119.28571428571432 183.5714285714286 L 119.28571428571432 186.42857142857144 " stroke="black" fill="none" stroke-width="5.0" stroke-linecap="round" stroke-linejoin="round" />
<path d="M 131.42857142857144 151.42857142857144 L 131.42857142857144 151.42857142857144 L 131.42857142857144 151.42857142857144 L 131.42857142857144 151.42857142857144 L 132.14285714285717 151.42857142857144 L 135.00000000000006 150.71428571428572 L 137.8571428571429 150.71428571428572 L 140.71428571428572 150.71428571428572 L 142.8571428571429 154.28571428571433 L 145.00000000000006 161.42857142857144 L 147.14285714285717 168.5714285714286 L 148.5714285714286 174.28571428571433 L 150.00000000000006 177.14285714285717 L 150.00000000000006 177.8571428571429 L 147.8571428571429 177.8571428571429 L 142.8571428571429 177.8571428571429 L 140.00000000000006 177.8571428571429 " stroke="black" fill="none" stroke-width="5.0" stroke-linecap="round" stroke-linejoin="round" />
<path d="M 149.28571428571433 97.14285714285715 L 149.28571428571433 98.5714285714286 L 150.00000000000006 104.28571428571432 L 155.00000000000006 123.5714285714286 L 164.28571428571433 150.00000000000006 L 172.8571428571429 170.00000000000006 L 177.14285714285717 181.42857142857144 L 177.8571428571429 184.28571428571433 " stroke="black" fill="none" stroke-width="5.0" stroke-linecap="round" stroke-linejoin="round" />
<path d="M 182.8571428571429 158.5714285714286 L 181.42857142857144 159.28571428571433 L 178.5714285714286 161.42857142857144 L 174.28571428571433 167.8571428571429 L 166.42857142857144 177.8571428571429 " stroke="black" fill="none" stroke-width="5.0" stroke-linecap="round" stroke-linejoin="round" />
<path d="M 175.71428571428578 94.28571428571432 L 175.71428571428578 95.00000000000001 L 176.42857142857144 96.42857142857146 L 179.28571428571433 100.00000000000001 " stroke="black" fill="none" stroke-width="5.0" stroke-linecap="round" stroke-linejoin="round" />
</svg>