<svg xmlns="http://www.w3.org/2000/svg" width="300" height="300" viewBox="0 0 300 300">
<path d="M 138.0 111.0 L 138.0 112.0 L 138.0 112.0 L 138.0 113.0 L 137.0 115.0 L 134.0 120.0 L 126.0 131.0 L 117.0 142.0 L 116.0 144.0 " stroke="black" fill="none" stroke-width="5.0" stroke-linecap="round" stroke-linejoin="round" />
<path d="M 132.0 128.0 L 132.0 128.0 L 132.0 129.0 L 132.0 130.0 L 133.0 137.0 L 137.0 153.0 L 140.0 172.0 L 142.0 187.0 L 142.0 196.0 L 140.0 200.0 L 138.0 201.0 L 133.0 201.0 L 126.0 196.0 L 124.0 195.0 " stroke="black" fill="none" stroke-width="5.0" stroke-linecap="round" stroke-linejoin="round" />
<path d="M 114.0 157.0 L 114.0 157.0 L 113.0 157.0 L 114.0 157.0 L 123.0 157.0 L 143.0 155.0 L 164.0 152.0 L 178.0 152.0 L 180.0 152.0 " stroke="black" fill="none" stroke-width="5.0" stroke-linecap="round" stroke-linejoin="round" />
<path d="M 150.0 117.0 L 150.0 117.0 L 150.0 117.0 L 150.0 122.0 L 153.0 141.0 L 161.0 168.0 L 167.0 188.0 L 171.0 198.0 L 174.0 202.0 " stroke="black" fill="none" stroke-width="5.0" stroke-linecap="round" stroke-linejoin="round" />
<path d="M 180.0 173.0 L 179.0 173.0 L 176.0 174.0 L 173.0 176.0 L 169.0 181.0 L 163.0 188.0 L 158.0 193.0 " stroke="black" fill="none" stroke-width="5.0" stroke-linecap="round" stroke-linejoin="round" />
<path d="M 119.0 182.0 L 119.0 182.0 L 119.0 182.0 L 122.0 182.0 L 133.0 180.0 L 148.0 175.0 L 151.0 174.0 " stroke="black" fill="none" stroke-width="5.0" stroke-linecap="round" stroke-linejoin="round" />
<path d="M 170.0 128.0 L 171.0 128.0 L 172.0 128.0 L 174.0 130.0 L 176.0 137.0 L 179.0 143.0 " stroke="black" fill="none" stroke-width="5.0" stroke-linecap="round" stroke-linejoin="round" />
</svg>