<svg xmlns="http://www.w3.org/2000/svg" width="300" height="300" viewBox="0 0 300 300">
<path d="M 167.0 98.0 L 167.0 98.0 L 165.0 99.0 L 163.0 100.0 L 160.0 103.0 L 153.0 108.0 L 142.0 116.0 L 132.0 123.0 " stroke="black" fill="none" stroke-width="5.0" stroke-linecap="round" stroke-linejoin="round" />
<path d="M 139.0 133.0 L 139.0 133.0 L 142.0 134.0 L 148.0 134.0 L 157.0 133.0 L 167.0 131.0 L 171.0 130.0 " stroke="black" fill="none" stroke-width="5.0" stroke-linecap="round" stroke-linejoin="round" />
<path d="M 119.0 160.0 L 119.0 160.0 L 119.0 160.0 L 122.0 160.0 L 135.0 160.0 L 156.0 157.0 L 172.0 155.0 L 178.0 154.0 " stroke="black" fill="none" stroke-width="5.0" stroke-linecap="round" stroke-linejoin="round" />
<path d="M 151.0 118.0 L 151.0 119.0 L 151.0 122.0 L 154.0 142.0 L 157.0 165.0 L 159.0 184.0 L 159.0 195.0 L 157.0 200.0 L 153.0 201.0 L 144.0 200.0 L 137.0 198.0 " stroke="black" fill="none" stroke-width="5.0" stroke-linecap="round" stroke-linejoin="round" />
</svg>