<svg xmlns="http://www.w3.org/2000/svg" width="300" height="300" viewBox="0 0 300 300">
<path d="M 118.0 123.0 L 118.0 123.0 L 118.0 123.0 L 119.0 123.0 L 122.0 124.0 L 129.0 124.0 L 137.0 122.0 " stroke="black" fill="none" stroke-width="5.0" stroke-linecap="round" stroke-linejoin="round" />
<path d="M 124.0 109.0 L 124.0 109.0 L 124.0 110.0 L 124.0 112.0 L 125.0 120.0 L 126.0 138.0 L 128.0 158.0 L 128.0 174.0 L 128.0 184.0 L 128.0 186.0 L 127.0 186.0 L 122.0 184.0 L 114.0 179.0 L 106.0 174.0 " stroke="black" fill="none" stroke-width="5.0" stroke-linecap="round" stroke-linejoin="round" />
<path d="M 103.0 155.0 L 103.0 155.0 L 104.0 155.0 L 106.0 155.0 L 112.0 155.0 L 134.0 151.0 " stroke="black" fill="none" stroke-width="5.0" stroke-linecap="round" stroke-linejoin="round" />
<path d="M 150.0 125.0 L 150.0 125.0 L 150.0 125.0 L 150.0 125.0 L 151.0 125.0 L 157.0 125.0 L 166.0 124.0 L 174.0 124.0 L 176.0 124.0 " stroke="black" fill="none" stroke-width="5.0" stroke-linecap="round" stroke-linejoin="round" />
<path d="M 143.0 145.0 L 143.0 145.0 L 145.0 145.0 L 147.0 145.0 L 154.0 145.0 L 165.0 145.0 L 176.0 144.0 L 183.0 144.0 L 183.0 144.0 " stroke="black" fill="none" stroke-width="5.0" stroke-linecap="round" stroke-linejoin="round" />
<path d="M 159.0 129.0 L 159.0 129.0 L 159.0 129.0 L 159.0 130.0 L 159.0 135.0 L 159.0 147.0 L 159.0 164.0 L 159.0 181.0 L 161.0 189.0 L 165.0 193.0 L 172.0 194.0 L 180.0 195.0 L 187.0 196.0 L 193.0 197.0 L 198.0 197.0 L 201.0 197.0 L 202.0 195.0 L 203.0 192.0 L 203.0 186.0 L 201.0 179.0 " stroke="black" fill="none" stroke-width="5.0" stroke-linecap="round" stroke-linejoin="round" />
</svg>