<svg xmlns="http://www.w3.org/2000/svg" width="300" height="300" viewBox="0 0 300 300">
<path d="M 116.0 130.0 L 116.0 130.0 L 116.0 131.0 L 116.0 132.0 L 117.0 132.0 L 119.0 132.0 L 126.0 131.0 L 135.0 130.0 L 140.0 130.0 " stroke="black" fill="none" stroke-width="5.0" stroke-linecap="round" stroke-linejoin="round" />
<path d="M 129.0 110.0 L 129.0 110.0 L 129.0 110.0 L 129.0 110.0 L 129.0 115.0 L 130.0 130.0 L 131.0 155.0 L 131.0 177.0 L 131.0 188.0 L 132.0 192.0 L 132.0 193.0 L 130.0 192.0 L 126.0 189.0 L 119.0 185.0 L 113.0 182.0 " stroke="black" fill="none" stroke-width="5.0" stroke-linecap="round" stroke-linejoin="round" />
<path d="M 108.0 155.0 L 108.0 155.0 L 109.0 155.0 L 110.0 155.0 L 115.0 155.0 L 129.0 154.0 L 143.0 153.0 " stroke="black" fill="none" stroke-width="5.0" stroke-linecap="round" stroke-linejoin="round" />
<path d="M 163.0 117.0 L 163.0 119.0 L 163.0 122.0 L 163.0 130.0 L 163.0 143.0 L 164.0 155.0 L 165.0 159.0 L 166.0 159.0 " stroke="black" fill="none" stroke-width="5.0" stroke-linecap="round" stroke-linejoin="round" />
<path d="M 178.0 122.0 L 178.0 121.0 L 178.0 120.0 L 178.0 120.0 L 179.0 124.0 L 180.0 137.0 L 180.0 152.0 L 180.0 161.0 " stroke="black" fill="none" stroke-width="5.0" stroke-linecap="round" stroke-linejoin="round" />
<path d="M 151.0 142.0 L 151.0 142.0 L 151.0 141.0 L 152.0 141.0 L 157.0 140.0 L 170.0 139.0 L 183.0 139.0 L 191.0 140.0 L 194.0 141.0 " stroke="black" fill="none" stroke-width="5.0" stroke-linecap="round" stroke-linejoin="round" />
<path d="M 147.0 163.0 L 147.0 163.0 L 148.0 164.0 L 152.0 164.0 L 162.0 164.0 L 177.0 162.0 L 190.0 161.0 L 195.0 161.0 L 195.0 161.0 " stroke="black" fill="none" stroke-width="5.0" stroke-linecap="round" stroke-linejoin="round" />
<path d="M 162.0 174.0 L 162.0 174.0 L 161.0 176.0 L 159.0 179.0 L 156.0 185.0 L 153.0 193.0 L 152.0 197.0 " stroke="black" fill="none" stroke-width="5.0" stroke-linecap="round" stroke-linejoin="round" />
<path d="M 179.0 180.0 L 181.0 180.0 L 183.0 181.0 L 187.0 187.0 L 192.0 195.0 L 193.0 199.0 " stroke="black" fill="none" stroke-width="5.0" stroke-linecap="round" stroke-linejoin="round" />
</svg>