<svg xmlns="http://www.w3.org/2000/svg" width="300" height="300" viewBox="0 0 300 300">
<path d="M 144.0 107.0 L 143.0 107.0 L 143.0 107.0 L 142.0 107.0 L 142.0 108.0 L 142.0 108.0 L 145.0 108.0 L 151.0 109.0 L 156.0 109.0 L 160.0 110.0 L 162.0 110.0 L 162.0 111.0 L 162.0 113.0 L 159.0 116.0 L 155.0 119.0 L 151.0 122.0 L 149.0 124.0 L 148.0 125.0 L 147.0 126.0 L 147.0 127.0 L 147.0 129.0 L 148.0 133.0 L 150.0 139.0 L 152.0 147.0 L 155.0 157.0 L 158.0 168.0 L 160.0 179.0 L 162.0 188.0 L 162.0 195.0 L 162.0 198.0 L 161.0 198.0 L 157.0 198.0 L 150.0 197.0 L 146.0 196.0 " stroke="black" fill="none" stroke-width="5.0" stroke-linecap="round" stroke-linejoin="round" />
<path d="M 137.0 149.0 L 137.0 149.0 L 137.0 149.0 L 138.0 148.0 L 142.0 148.0 L 149.0 148.0 L 159.0 148.0 L 167.0 148.0 L 170.0 148.0 " stroke="black" fill="none" stroke-width="5.0" stroke-linecap="round" stroke-linejoin="round" />
<path d="M 143.0 164.0 L 143.0 164.0 L 143.0 164.0 L 143.0 165.0 L 146.0 165.0 L 152.0 165.0 L 160.0 164.0 L 165.0 163.0 " stroke="black" fill="none" stroke-width="5.0" stroke-linecap="round" stroke-linejoin="round" />
<path d="M 142.0 180.0 L 142.0 180.0 L 142.0 180.0 L 142.0 181.0 L 144.0 181.0 L 154.0 181.0 L 167.0 180.0 L 177.0 179.0 L 178.0 179.0 " stroke="black" fill="none" stroke-width="5.0" stroke-linecap="round" stroke-linejoin="round" />
<path d="M 113.0 153.0 L 114.0 153.0 L 115.0 153.0 L 115.0 154.0 L 117.0 154.0 L 120.0 154.0 L 125.0 154.0 L 129.0 154.0 L 132.0 155.0 L 133.0 156.0 L 132.0 158.0 L 128.0 163.0 L 120.0 171.0 L 111.0 181.0 L 105.0 188.0 " stroke="black" fill="none" stroke-width="5.0" stroke-linecap="round" stroke-linejoin="round" />
<path d="M 192.0 142.0 L 192.0 141.0 L 192.0 140.0 L 192.0 139.0 L 192.0 139.0 L 192.0 141.0 L 190.0 145.0 L 187.0 150.0 L 183.0 156.0 L 178.0 161.0 L 176.0 163.0 L 175.0 165.0 L 176.0 167.0 L 179.0 171.0 L 183.0 179.0 L 189.0 191.0 L 196.0 202.0 L 200.0 208.0 " stroke="black" fill="none" stroke-width="5.0" stroke-linecap="round" stroke-linejoin="round" />
</svg>