<svg xmlns="http://www.w3.org/2000/svg" width="300" height="300" viewBox="0 0 300 300">
<path d="M 114.0 123.0 L 115.0 123.0 L 115.0 124.0 L 116.0 124.0 L 121.0 124.0 L 129.0 123.0 L 137.0 122.0 L 140.0 122.0 " stroke="black" fill="none" stroke-width="5.0" stroke-linecap="round" stroke-linejoin="round" />
<path d="M 128.0 104.0 L 128.0 104.0 L 128.0 105.0 L 128.0 110.0 L 129.0 122.0 L 132.0 142.0 L 133.0 163.0 L 133.0 178.0 L 133.0 189.0 L 133.0 194.0 L 132.0 195.0 L 130.0 195.0 L 125.0 193.0 L 117.0 190.0 L 111.0 186.0 " stroke="black" fill="none" stroke-width="5.0" stroke-linecap="round" stroke-linejoin="round" />
<path d="M 107.0 160.0 L 107.0 160.0 L 108.0 160.0 L 111.0 159.0 L 120.0 158.0 L 134.0 154.0 L 141.0 152.0 " stroke="black" fill="none" stroke-width="5.0" stroke-linecap="round" stroke-linejoin="round" />
<path d="M 168.0 106.0 L 167.0 107.0 L 165.0 109.0 L 162.0 111.0 L 157.0 114.0 L 150.0 120.0 L 149.0 121.0 " stroke="black" fill="none" stroke-width="5.0" stroke-linecap="round" stroke-linejoin="round" />
<path d="M 150.0 124.0 L 150.0 124.0 L 149.0 125.0 L 149.0 126.0 L 149.0 128.0 L 151.0 130.0 L 152.0 132.0 " stroke="black" fill="none" stroke-width="5.0" stroke-linecap="round" stroke-linejoin="round" />
<path d="M 160.0 118.0 L 160.0 118.0 L 160.0 120.0 L 160.0 122.0 L 161.0 125.0 L 161.0 128.0 " stroke="black" fill="none" stroke-width="5.0" stroke-linecap="round" stroke-linejoin="round" />
<path d="M 176.0 117.0 L 176.0 118.0 L 175.0 120.0 L 175.0 123.0 L 174.0 127.0 L 173.0 130.0 " stroke="black" fill="none" stroke-width="5.0" stroke-linecap="round" stroke-linejoin="round" />
<path d="M 150.0 144.0 L 150.0 144.0 L 150.0 144.0 L 149.0 144.0 L 150.0 144.0 L 156.0 143.0 L 165.0 141.0 L 174.0 140.0 L 178.0 140.0 L 178.0 141.0 " stroke="black" fill="none" stroke-width="5.0" stroke-linecap="round" stroke-linejoin="round" />
<path d="M 148.0 155.0 L 148.0 155.0 L 147.0 156.0 L 147.0 156.0 L 152.0 156.0 L 161.0 155.0 L 170.0 154.0 L 176.0 154.0 L 177.0 154.0 " stroke="black" fill="none" stroke-width="5.0" stroke-linecap="round" stroke-linejoin="round" />
<path d="M 162.0 144.0 L 162.0 144.0 L 162.0 144.0 L 162.0 145.0 L 162.0 146.0 L 161.0 150.0 L 157.0 158.0 L 151.0 169.0 L 144.0 179.0 L 143.0 180.0 " stroke="black" fill="none" stroke-width="5.0" stroke-linecap="round" stroke-linejoin="round" />
<path d="M 153.0 168.0 L 154.0 168.0 L 155.0 168.0 L 159.0 168.0 L 166.0 167.0 L 172.0 167.0 L 177.0 167.0 L 178.0 168.0 L 178.0 171.0 L 176.0 177.0 L 172.0 184.0 L 166.0 192.0 L 159.0 199.0 L 156.0 201.0 " stroke="black" fill="none" stroke-width="5.0" stroke-linecap="round" stroke-linejoin="round" />
<path d="M 153.0 173.0 L 153.0 173.0 L 153.0 173.0 L 154.0 173.0 L 160.0 177.0 L 173.0 188.0 L 186.0 199.0 L 194.0 206.0 L 196.0 209.0 " stroke="black" fill="none" stroke-width="5.0" stroke-linecap="round" stroke-linejoin="round" />
</svg>