<svg xmlns="http://www.w3.org/2000/svg" width="300" height="300" viewBox="0 0 300 300">
<path d="M 117.0 127.0 L 117.0 127.0 L 117.0 127.0 L 117.0 127.0 L 117.0 127.0 L 120.0 127.0 L 127.0 127.0 L 134.0 126.0 L 137.0 126.0 " stroke="black" fill="none" stroke-width="5.0" stroke-linecap="round" stroke-linejoin="round" />
<path d="M 126.0 105.0 L 126.0 105.0 L 126.0 106.0 L 125.0 107.0 L 126.0 112.0 L 129.0 124.0 L 132.0 144.0 L 134.0 165.0 L 134.0 179.0 L 134.0 187.0 L 134.0 189.0 L 132.0 190.0 L 129.0 189.0 L 122.0 186.0 L 117.0 182.0 " stroke="black" fill="none" stroke-width="5.0" stroke-linecap="round" stroke-linejoin="round" />
<path d="M 105.0 163.0 L 106.0 163.0 L 109.0 163.0 L 117.0 161.0 L 130.0 157.0 L 141.0 154.0 " stroke="black" fill="none" stroke-width="5.0" stroke-linecap="round" stroke-linejoin="round" />
<path d="M 164.0 108.0 L 164.0 108.0 L 164.0 108.0 L 164.0 108.0 L 164.0 109.0 L 161.0 112.0 L 154.0 118.0 L 152.0 120.0 " stroke="black" fill="none" stroke-width="5.0" stroke-linecap="round" stroke-linejoin="round" />
<path d="M 151.0 127.0 L 151.0 127.0 L 151.0 129.0 L 151.0 131.0 L 152.0 133.0 L 154.0 135.0 " stroke="black" fill="none" stroke-width="5.0" stroke-linecap="round" stroke-linejoin="round" />
<path d="M 165.0 119.0 L 165.0 119.0 L 165.0 120.0 L 165.0 120.0 L 165.0 123.0 L 165.0 127.0 L 165.0 130.0 " stroke="black" fill="none" stroke-width="5.0" stroke-linecap="round" stroke-linejoin="round" />
<path d="M 180.0 118.0 L 180.0 118.0 L 179.0 120.0 L 179.0 123.0 L 177.0 129.0 L 175.0 136.0 " stroke="black" fill="none" stroke-width="5.0" stroke-linecap="round" stroke-linejoin="round" />
<path d="M 150.0 153.0 L 150.0 153.0 L 150.0 153.0 L 150.0 153.0 L 152.0 153.0 L 162.0 153.0 L 176.0 151.0 L 187.0 150.0 L 191.0 150.0 " stroke="black" fill="none" stroke-width="5.0" stroke-linecap="round" stroke-linejoin="round" />
<path d="M 167.0 137.0 L 167.0 137.0 L 167.0 137.0 L 167.0 139.0 L 168.0 147.0 L 171.0 163.0 L 174.0 181.0 L 175.0 191.0 L 175.0 194.0 L 175.0 194.0 " stroke="black" fill="none" stroke-width="5.0" stroke-linecap="round" stroke-linejoin="round" />
<path d="M 171.0 158.0 L 171.0 158.0 L 170.0 159.0 L 169.0 160.0 L 166.0 165.0 L 159.0 175.0 L 151.0 187.0 L 148.0 192.0 " stroke="black" fill="none" stroke-width="5.0" stroke-linecap="round" stroke-linejoin="round" />
<path d="M 171.0 161.0 L 172.0 160.0 L 175.0 160.0 L 182.0 165.0 L 191.0 177.0 L 200.0 189.0 L 204.0 194.0 L 205.0 196.0 " stroke="black" fill="none" stroke-width="5.0" stroke-linecap="round" stroke-linejoin="round" />
</svg>