<svg xmlns="http://www.w3.org/2000/svg" width="300" height="300" viewBox="0 0 300 300">
<path d="M 142.0 97.0 L 142.0 97.0 L 142.0 97.0 L 142.0 97.0 L 142.0 97.0 L 143.0 101.0 L 144.0 107.0 L 145.0 114.0 L 145.0 118.0 " stroke="black" fill="none" stroke-width="5.0" stroke-linecap="round" stroke-linejoin="round" />
<path d="M 127.0 107.0 L 128.0 107.0 L 128.0 108.0 L 130.0 110.0 L 133.0 113.0 L 133.0 114.0 " stroke="black" fill="none" stroke-width="5.0" stroke-linecap="round" stroke-linejoin="round" />
<path d="M 160.0 107.0 L 160.0 108.0 L 160.0 110.0 L 159.0 112.0 L 158.0 116.0 L 156.0 119.0 " stroke="black" fill="none" stroke-width="5.0" stroke-linecap="round" stroke-linejoin="round" />
<path d="M 117.0 127.0 L 117.0 133.0 L 117.0 138.0 L 118.0 141.0 L 118.0 142.0 " stroke="black" fill="none" stroke-width="5.0" stroke-linecap="round" stroke-linejoin="round" />
<path d="M 116.0 122.0 L 117.0 123.0 L 118.0 123.0 L 120.0 124.0 L 125.0 124.0 L 134.0 124.0 L 146.0 123.0 L 158.0 122.0 L 168.0 122.0 L 174.0 122.0 L 178.0 122.0 L 179.0 124.0 L 180.0 128.0 L 180.0 133.0 L 180.0 139.0 L 180.0 140.0 " stroke="black" fill="none" stroke-width="5.0" stroke-linecap="round" stroke-linejoin="round" />
<path d="M 133.0 136.0 L 133.0 135.0 L 133.0 135.0 L 134.0 135.0 L 134.0 136.0 L 135.0 139.0 L 137.0 142.0 L 137.0 143.0 L 137.0 144.0 " stroke="black" fill="none" stroke-width="5.0" stroke-linecap="round" stroke-linejoin="round" />
<path d="M 135.0 135.0 L 135.0 135.0 L 136.0 135.0 L 138.0 136.0 L 142.0 136.0 L 148.0 136.0 L 153.0 136.0 L 158.0 136.0 L 161.0 137.0 L 163.0 139.0 L 164.0 142.0 L 164.0 144.0 L 163.0 146.0 " stroke="black" fill="none" stroke-width="5.0" stroke-linecap="round" stroke-linejoin="round" />
<path d="M 136.0 148.0 L 136.0 148.0 L 135.0 148.0 L 135.0 148.0 L 136.0 148.0 L 141.0 148.0 L 149.0 148.0 L 156.0 148.0 L 159.0 148.0 " stroke="black" fill="none" stroke-width="5.0" stroke-linecap="round" stroke-linejoin="round" />
<path d="M 137.0 158.0 L 137.0 158.0 L 138.0 158.0 L 141.0 158.0 L 145.0 158.0 L 151.0 158.0 L 157.0 157.0 L 159.0 157.0 " stroke="black" fill="none" stroke-width="5.0" stroke-linecap="round" stroke-linejoin="round" />
<path d="M 138.0 168.0 L 139.0 168.0 L 140.0 169.0 L 143.0 169.0 L 148.0 169.0 L 153.0 169.0 L 156.0 169.0 " stroke="black" fill="none" stroke-width="5.0" stroke-linecap="round" stroke-linejoin="round" />
<path d="M 125.0 183.0 L 127.0 183.0 L 134.0 183.0 L 142.0 183.0 L 152.0 183.0 L 162.0 181.0 L 169.0 181.0 L 172.0 181.0 " stroke="black" fill="none" stroke-width="5.0" stroke-linecap="round" stroke-linejoin="round" />
<path d="M 147.0 155.0 L 147.0 155.0 L 147.0 155.0 L 147.0 155.0 L 147.0 157.0 L 150.0 168.0 L 154.0 185.0 L 156.0 199.0 L 156.0 205.0 L 156.0 206.0 L 154.0 206.0 L 149.0 204.0 L 140.0 201.0 L 134.0 199.0 " stroke="black" fill="none" stroke-width="5.0" stroke-linecap="round" stroke-linejoin="round" />
</svg>