<svg xmlns="http://www.w3.org/2000/svg" width="300" height="300" viewBox="0 0 300 300">
<path d="M 112.0 128.0 L 112.0 128.0 L 113.0 128.0 L 114.0 128.0 L 116.0 128.0 L 118.0 128.0 L 122.0 128.0 L 127.0 128.0 L 131.0 128.0 " stroke="black" fill="none" stroke-width="5.0" stroke-linecap="round" stroke-linejoin="round" />
<path d="M 121.0 110.0 L 121.0 110.0 L 122.0 110.0 L 122.0 113.0 L 123.0 122.0 L 125.0 139.0 L 127.0 160.0 L 129.0 174.0 L 129.0 183.0 L 129.0 186.0 L 128.0 187.0 L 124.0 187.0 L 117.0 185.0 L 110.0 180.0 L 107.0 177.0 " stroke="black" fill="none" stroke-width="5.0" stroke-linecap="round" stroke-linejoin="round" />
<path d="M 103.0 158.0 L 103.0 158.0 L 103.0 158.0 L 104.0 158.0 L 110.0 157.0 L 120.0 155.0 L 131.0 152.0 L 135.0 151.0 " stroke="black" fill="none" stroke-width="5.0" stroke-linecap="round" stroke-linejoin="round" />
<path d="M 145.0 116.0 L 145.0 116.0 L 145.0 118.0 L 145.0 120.0 L 145.0 122.0 L 145.0 124.0 L 145.0 126.0 L 146.0 127.0 " stroke="black" fill="none" stroke-width="5.0" stroke-linecap="round" stroke-linejoin="round" />
<path d="M 146.0 113.0 L 147.0 113.0 L 148.0 113.0 L 150.0 113.0 L 154.0 113.0 L 160.0 113.0 L 168.0 113.0 L 175.0 113.0 L 182.0 114.0 L 187.0 115.0 L 190.0 117.0 L 190.0 120.0 L 190.0 124.0 L 190.0 128.0 L 190.0 130.0 " stroke="black" fill="none" stroke-width="5.0" stroke-linecap="round" stroke-linejoin="round" />
<path d="M 158.0 117.0 L 158.0 117.0 L 158.0 118.0 L 158.0 120.0 L 158.0 123.0 L 156.0 129.0 L 155.0 133.0 " stroke="black" fill="none" stroke-width="5.0" stroke-linecap="round" stroke-linejoin="round" />
<path d="M 171.0 116.0 L 172.0 117.0 L 172.0 118.0 L 172.0 121.0 L 172.0 125.0 L 172.0 130.0 L 174.0 134.0 L 177.0 136.0 L 181.0 136.0 " stroke="black" fill="none" stroke-width="5.0" stroke-linecap="round" stroke-linejoin="round" />
<path d="M 143.0 150.0 L 143.0 150.0 L 144.0 150.0 L 146.0 150.0 L 153.0 151.0 L 167.0 151.0 L 181.0 151.0 L 189.0 150.0 L 191.0 150.0 L 191.0 150.0 " stroke="black" fill="none" stroke-width="5.0" stroke-linecap="round" stroke-linejoin="round" />
<path d="M 162.0 136.0 L 162.0 136.0 L 163.0 136.0 L 163.0 135.0 L 164.0 137.0 L 166.0 145.0 L 168.0 161.0 L 169.0 175.0 L 169.0 185.0 L 169.0 188.0 L 169.0 188.0 " stroke="black" fill="none" stroke-width="5.0" stroke-linecap="round" stroke-linejoin="round" />
<path d="M 165.0 155.0 L 165.0 155.0 L 163.0 156.0 L 161.0 157.0 L 158.0 160.0 L 154.0 165.0 L 148.0 172.0 L 143.0 178.0 L 142.0 180.0 " stroke="black" fill="none" stroke-width="5.0" stroke-linecap="round" stroke-linejoin="round" />
<path d="M 165.0 159.0 L 166.0 160.0 L 168.0 162.0 L 173.0 168.0 L 181.0 178.0 L 188.0 189.0 L 192.0 195.0 L 194.0 197.0 L 195.0 197.0 " stroke="black" fill="none" stroke-width="5.0" stroke-linecap="round" stroke-linejoin="round" />
</svg>