<svg xmlns="http://www.w3.org/2000/svg" width="300" height="300" viewBox="0 0 300 300">
<path d="M 109.0 134.0 L 109.0 134.0 L 109.0 134.0 L 109.0 134.0 L 109.0 134.0 L 112.0 134.0 L 119.0 134.0 L 126.0 133.0 L 128.0 132.0 " stroke="black" fill="none" stroke-width="5.0" stroke-linecap="round" stroke-linejoin="round" />
<path d="M 117.0 111.0 L 116.0 111.0 L 116.0 111.0 L 116.0 116.0 L 117.0 129.0 L 120.0 151.0 L 121.0 172.0 L 121.0 189.0 L 121.0 198.0 L 122.0 202.0 L 122.0 202.0 L 118.0 202.0 L 112.0 199.0 L 106.0 195.0 " stroke="black" fill="none" stroke-width="5.0" stroke-linecap="round" stroke-linejoin="round" />
<path d="M 103.0 167.0 L 103.0 167.0 L 103.0 167.0 L 103.0 168.0 L 107.0 168.0 L 116.0 167.0 L 127.0 164.0 L 130.0 163.0 " stroke="black" fill="none" stroke-width="5.0" stroke-linecap="round" stroke-linejoin="round" />
<path d="M 153.0 126.0 L 153.0 126.0 L 153.0 127.0 L 153.0 129.0 L 154.0 134.0 L 154.0 146.0 L 154.0 162.0 L 152.0 181.0 L 148.0 196.0 L 145.0 202.0 " stroke="black" fill="none" stroke-width="5.0" stroke-linecap="round" stroke-linejoin="round" />
<path d="M 139.0 144.0 L 139.0 144.0 L 139.0 144.0 L 139.0 144.0 L 140.0 146.0 L 144.0 148.0 L 149.0 152.0 " stroke="black" fill="none" stroke-width="5.0" stroke-linecap="round" stroke-linejoin="round" />
<path d="M 136.0 175.0 L 136.0 175.0 L 136.0 175.0 L 135.0 175.0 L 136.0 175.0 L 141.0 172.0 L 150.0 167.0 " stroke="black" fill="none" stroke-width="5.0" stroke-linecap="round" stroke-linejoin="round" />
<path d="M 168.0 122.0 L 168.0 122.0 L 168.0 122.0 L 168.0 121.0 L 168.0 121.0 L 167.0 124.0 L 167.0 133.0 L 167.0 149.0 L 167.0 169.0 L 169.0 187.0 L 174.0 196.0 L 181.0 200.0 L 188.0 200.0 L 193.0 200.0 L 196.0 198.0 L 198.0 195.0 L 199.0 191.0 L 198.0 185.0 " stroke="black" fill="none" stroke-width="5.0" stroke-linecap="round" stroke-linejoin="round" />
<path d="M 170.0 147.0 L 170.0 147.0 L 170.0 147.0 L 172.0 147.0 L 176.0 144.0 L 182.0 138.0 L 186.0 134.0 L 187.0 133.0 " stroke="black" fill="none" stroke-width="5.0" stroke-linecap="round" stroke-linejoin="round" />
<path d="M 172.0 164.0 L 173.0 164.0 L 175.0 166.0 L 178.0 168.0 L 185.0 171.0 L 194.0 174.0 L 195.0 175.0 " stroke="black" fill="none" stroke-width="5.0" stroke-linecap="round" stroke-linejoin="round" />
</svg>