<svg xmlns="http://www.w3.org/2000/svg" width="300" height="300" viewBox="0 0 300 300">
<path d="M 114.0 127.0 L 115.0 127.0 L 115.0 127.0 L 116.0 127.0 L 120.0 127.0 L 127.0 127.0 L 133.0 127.0 L 134.0 127.0 " stroke="black" fill="none" stroke-width="5.0" stroke-linecap="round" stroke-linejoin="round" />
<path d="M 124.0 108.0 L 124.0 108.0 L 124.0 108.0 L 124.0 109.0 L 124.0 112.0 L 125.0 121.0 L 127.0 140.0 L 130.0 162.0 L 130.0 179.0 L 131.0 189.0 L 130.0 194.0 L 129.0 196.0 L 126.0 196.0 L 120.0 192.0 L 113.0 187.0 " stroke="black" fill="none" stroke-width="5.0" stroke-linecap="round" stroke-linejoin="round" />
<path d="M 115.0 167.0 L 115.0 167.0 L 115.0 168.0 L 115.0 168.0 L 115.0 168.0 L 121.0 166.0 L 132.0 162.0 L 140.0 158.0 " stroke="black" fill="none" stroke-width="5.0" stroke-linecap="round" stroke-linejoin="round" />
<path d="M 157.0 120.0 L 158.0 120.0 L 159.0 119.0 L 159.0 119.0 L 160.0 121.0 L 161.0 129.0 L 161.0 143.0 L 161.0 164.0 L 159.0 181.0 L 157.0 194.0 L 156.0 197.0 " stroke="black" fill="none" stroke-width="5.0" stroke-linecap="round" stroke-linejoin="round" />
<path d="M 149.0 136.0 L 149.0 136.0 L 149.0 136.0 L 150.0 136.0 L 152.0 136.0 L 155.0 136.0 L 158.0 136.0 L 160.0 136.0 L 161.0 136.0 " stroke="black" fill="none" stroke-width="5.0" stroke-linecap="round" stroke-linejoin="round" />
<path d="M 149.0 150.0 L 149.0 150.0 L 150.0 151.0 L 151.0 151.0 L 153.0 151.0 L 156.0 151.0 L 160.0 151.0 L 161.0 151.0 " stroke="black" fill="none" stroke-width="5.0" stroke-linecap="round" stroke-linejoin="round" />
<path d="M 143.0 170.0 L 144.0 170.0 L 145.0 171.0 L 148.0 171.0 L 152.0 171.0 L 158.0 171.0 L 159.0 170.0 " stroke="black" fill="none" stroke-width="5.0" stroke-linecap="round" stroke-linejoin="round" />
<path d="M 180.0 120.0 L 180.0 120.0 L 180.0 120.0 L 179.0 119.0 L 179.0 120.0 L 178.0 124.0 L 179.0 137.0 L 180.0 158.0 L 180.0 180.0 L 180.0 193.0 L 181.0 197.0 L 181.0 196.0 " stroke="black" fill="none" stroke-width="5.0" stroke-linecap="round" stroke-linejoin="round" />
<path d="M 179.0 136.0 L 179.0 136.0 L 179.0 136.0 L 179.0 136.0 L 180.0 136.0 L 183.0 136.0 L 187.0 136.0 L 192.0 135.0 L 194.0 135.0 L 195.0 135.0 " stroke="black" fill="none" stroke-width="5.0" stroke-linecap="round" stroke-linejoin="round" />
<path d="M 183.0 153.0 L 183.0 153.0 L 183.0 153.0 L 185.0 153.0 L 189.0 153.0 L 194.0 153.0 L 197.0 153.0 L 198.0 153.0 " stroke="black" fill="none" stroke-width="5.0" stroke-linecap="round" stroke-linejoin="round" />
<path d="M 181.0 172.0 L 181.0 172.0 L 182.0 173.0 L 185.0 174.0 L 192.0 174.0 L 201.0 174.0 L 206.0 172.0 " stroke="black" fill="none" stroke-width="5.0" stroke-linecap="round" stroke-linejoin="round" />
</svg>