<svg xmlns="http://www.w3.org/2000/svg" width="300" height="300" viewBox="0 0 300 300">
<path d="M 114.0 124.0 L 114.0 124.0 L 114.0 124.0 L 114.0 125.0 L 115.0 125.0 L 119.0 124.0 L 125.0 123.0 L 133.0 122.0 L 134.0 122.0 " stroke="black" fill="none" stroke-width="5.0" stroke-linecap="round" stroke-linejoin="round" />
<path d="M 125.0 101.0 L 124.0 101.0 L 123.0 102.0 L 123.0 106.0 L 124.0 118.0 L 127.0 141.0 L 129.0 166.0 L 129.0 185.0 L 129.0 195.0 L 129.0 198.0 L 128.0 199.0 L 124.0 198.0 L 117.0 194.0 L 109.0 189.0 L 107.0 187.0 " stroke="black" fill="none" stroke-width="5.0" stroke-linecap="round" stroke-linejoin="round" />
<path d="M 105.0 161.0 L 104.0 161.0 L 103.0 161.0 L 103.0 160.0 L 110.0 159.0 L 124.0 156.0 L 139.0 152.0 " stroke="black" fill="none" stroke-width="5.0" stroke-linecap="round" stroke-linejoin="round" />
<path d="M 160.0 117.0 L 160.0 118.0 L 159.0 119.0 L 159.0 119.0 L 164.0 119.0 L 170.0 119.0 L 175.0 118.0 L 179.0 118.0 L 181.0 118.0 L 182.0 118.0 L 182.0 119.0 L 183.0 123.0 L 183.0 130.0 L 183.0 138.0 L 183.0 143.0 L 183.0 146.0 " stroke="black" fill="none" stroke-width="5.0" stroke-linecap="round" stroke-linejoin="round" />
<path d="M 143.0 129.0 L 143.0 129.0 L 143.0 129.0 L 144.0 130.0 L 150.0 130.0 L 163.0 129.0 L 180.0 127.0 L 193.0 127.0 L 197.0 127.0 L 197.0 127.0 " stroke="black" fill="none" stroke-width="5.0" stroke-linecap="round" stroke-linejoin="round" />
<path d="M 154.0 143.0 L 154.0 143.0 L 155.0 143.0 L 155.0 143.0 L 158.0 144.0 L 164.0 144.0 L 173.0 144.0 L 178.0 145.0 " stroke="black" fill="none" stroke-width="5.0" stroke-linecap="round" stroke-linejoin="round" />
<path d="M 147.0 158.0 L 147.0 158.0 L 147.0 160.0 L 147.0 162.0 L 147.0 165.0 L 147.0 167.0 " stroke="black" fill="none" stroke-width="5.0" stroke-linecap="round" stroke-linejoin="round" />
<path d="M 148.0 154.0 L 148.0 154.0 L 148.0 154.0 L 149.0 154.0 L 153.0 154.0 L 162.0 153.0 L 175.0 152.0 L 186.0 152.0 L 192.0 152.0 L 196.0 153.0 L 197.0 155.0 L 197.0 159.0 L 196.0 163.0 L 195.0 166.0 " stroke="black" fill="none" stroke-width="5.0" stroke-linecap="round" stroke-linejoin="round" />
<path d="M 156.0 167.0 L 156.0 168.0 L 156.0 169.0 L 156.0 172.0 L 156.0 176.0 L 157.0 181.0 " stroke="black" fill="none" stroke-width="5.0" stroke-linecap="round" stroke-linejoin="round" />
<path d="M 157.0 168.0 L 158.0 168.0 L 160.0 168.0 L 163.0 168.0 L 170.0 168.0 L 178.0 167.0 L 184.0 167.0 L 188.0 169.0 L 190.0 173.0 L 191.0 178.0 L 191.0 182.0 L 189.0 184.0 L 186.0 185.0 L 182.0 185.0 L 178.0 183.0 " stroke="black" fill="none" stroke-width="5.0" stroke-linecap="round" stroke-linejoin="round" />
<path d="M 168.0 152.0 L 168.0 152.0 L 168.0 152.0 L 168.0 152.0 L 168.0 160.0 L 170.0 179.0 L 172.0 198.0 L 173.0 208.0 L 174.0 210.0 " stroke="black" fill="none" stroke-width="5.0" stroke-linecap="round" stroke-linejoin="round" />
</svg>