<svg xmlns="http://www.w3.org/2000/svg" width="300" height="300" viewBox="0 0 300 300">
<path d="M 116.0 132.0 L 116.0 132.0 L 116.0 132.0 L 116.0 132.0 L 121.0 131.0 L 130.0 130.0 L 139.0 129.0 " stroke="black" fill="none" stroke-width="5.0" stroke-linecap="round" stroke-linejoin="round" />
<path d="M 129.0 115.0 L 129.0 115.0 L 129.0 115.0 L 129.0 114.0 L 129.0 114.0 L 129.0 121.0 L 130.0 137.0 L 131.0 159.0 L 131.0 178.0 L 131.0 193.0 L 130.0 199.0 L 129.0 201.0 L 125.0 201.0 L 119.0 197.0 L 113.0 192.0 " stroke="black" fill="none" stroke-width="5.0" stroke-linecap="round" stroke-linejoin="round" />
<path d="M 106.0 163.0 L 106.0 163.0 L 106.0 163.0 L 109.0 163.0 L 118.0 161.0 L 135.0 158.0 L 145.0 157.0 " stroke="black" fill="none" stroke-width="5.0" stroke-linecap="round" stroke-linejoin="round" />
<path d="M 150.0 128.0 L 150.0 128.0 L 150.0 128.0 L 150.0 129.0 L 153.0 129.0 L 164.0 128.0 L 179.0 126.0 L 187.0 125.0 " stroke="black" fill="none" stroke-width="5.0" stroke-linecap="round" stroke-linejoin="round" />
<path d="M 169.0 113.0 L 169.0 113.0 L 168.0 114.0 L 167.0 116.0 L 166.0 122.0 L 161.0 136.0 L 154.0 151.0 L 149.0 160.0 " stroke="black" fill="none" stroke-width="5.0" stroke-linecap="round" stroke-linejoin="round" />
<path d="M 178.0 132.0 L 178.0 132.0 L 178.0 133.0 L 181.0 137.0 L 185.0 143.0 L 191.0 150.0 " stroke="black" fill="none" stroke-width="5.0" stroke-linecap="round" stroke-linejoin="round" />
<path d="M 156.0 156.0 L 156.0 156.0 L 156.0 156.0 L 156.0 157.0 L 156.0 161.0 L 156.0 167.0 L 157.0 173.0 L 157.0 174.0 " stroke="black" fill="none" stroke-width="5.0" stroke-linecap="round" stroke-linejoin="round" />
<path d="M 156.0 155.0 L 156.0 155.0 L 156.0 155.0 L 156.0 155.0 L 158.0 155.0 L 163.0 155.0 L 168.0 155.0 L 175.0 155.0 L 181.0 154.0 L 185.0 155.0 L 188.0 158.0 L 188.0 165.0 L 188.0 171.0 L 187.0 176.0 " stroke="black" fill="none" stroke-width="5.0" stroke-linecap="round" stroke-linejoin="round" />
<path d="M 158.0 162.0 L 158.0 162.0 L 159.0 163.0 L 161.0 164.0 L 166.0 164.0 L 172.0 164.0 L 178.0 164.0 L 180.0 164.0 " stroke="black" fill="none" stroke-width="5.0" stroke-linecap="round" stroke-linejoin="round" />
<path d="M 153.0 177.0 L 154.0 178.0 L 155.0 178.0 L 161.0 179.0 L 171.0 179.0 L 182.0 177.0 L 184.0 177.0 " stroke="black" fill="none" stroke-width="5.0" stroke-linecap="round" stroke-linejoin="round" />
<path d="M 168.0 143.0 L 167.0 143.0 L 166.0 144.0 L 166.0 147.0 L 166.0 151.0 L 167.0 159.0 L 168.0 172.0 L 168.0 186.0 L 170.0 196.0 L 172.0 203.0 L 175.0 206.0 L 178.0 208.0 L 180.0 210.0 L 184.0 212.0 L 188.0 214.0 L 193.0 214.0 L 198.0 214.0 L 203.0 213.0 L 206.0 212.0 L 209.0 211.0 L 210.0 208.0 L 210.0 203.0 L 210.0 196.0 L 210.0 193.0 " stroke="black" fill="none" stroke-width="5.0" stroke-linecap="round" stroke-linejoin="round" />
</svg>