<svg xmlns="http://www.w3.org/2000/svg" width="300" height="300" viewBox="0 0 300 300">
<path d="M 115.0 122.0 L 116.0 122.0 L 116.0 122.0 L 118.0 122.0 L 121.0 122.0 L 126.0 122.0 L 132.0 122.0 L 136.0 122.0 " stroke="black" fill="none" stroke-width="5.0" stroke-linecap="round" stroke-linejoin="round" />
<path d="M 125.0 106.0 L 125.0 106.0 L 124.0 106.0 L 124.0 109.0 L 124.0 116.0 L 125.0 132.0 L 126.0 153.0 L 127.0 171.0 L 127.0 184.0 L 126.0 191.0 L 126.0 192.0 L 123.0 192.0 L 117.0 188.0 L 108.0 183.0 L 106.0 181.0 " stroke="black" fill="none" stroke-width="5.0" stroke-linecap="round" stroke-linejoin="round" />
<path d="M 102.0 161.0 L 102.0 161.0 L 102.0 161.0 L 104.0 161.0 L 111.0 159.0 L 124.0 157.0 L 135.0 153.0 L 136.0 153.0 " stroke="black" fill="none" stroke-width="5.0" stroke-linecap="round" stroke-linejoin="round" />
<path d="M 150.0 122.0 L 151.0 122.0 L 153.0 123.0 L 157.0 123.0 L 165.0 123.0 L 174.0 123.0 L 180.0 122.0 L 181.0 122.0 " stroke="black" fill="none" stroke-width="5.0" stroke-linecap="round" stroke-linejoin="round" />
<path d="M 170.0 106.0 L 171.0 106.0 L 171.0 105.0 L 171.0 105.0 L 171.0 111.0 L 171.0 122.0 L 167.0 138.0 L 161.0 157.0 L 154.0 174.0 L 150.0 185.0 L 149.0 186.0 " stroke="black" fill="none" stroke-width="5.0" stroke-linecap="round" stroke-linejoin="round" />
<path d="M 166.0 163.0 L 167.0 164.0 L 168.0 164.0 L 172.0 167.0 L 179.0 173.0 L 188.0 180.0 L 193.0 185.0 " stroke="black" fill="none" stroke-width="5.0" stroke-linecap="round" stroke-linejoin="round" />
<path d="M 154.0 133.0 L 154.0 133.0 L 154.0 133.0 L 155.0 133.0 L 155.0 134.0 L 155.0 139.0 L 152.0 146.0 L 149.0 151.0 " stroke="black" fill="none" stroke-width="5.0" stroke-linecap="round" stroke-linejoin="round" />
<path d="M 152.0 145.0 L 152.0 145.0 L 152.0 145.0 L 153.0 145.0 L 154.0 145.0 L 157.0 148.0 L 159.0 150.0 " stroke="black" fill="none" stroke-width="5.0" stroke-linecap="round" stroke-linejoin="round" />
<path d="M 181.0 135.0 L 181.0 135.0 L 181.0 134.0 L 181.0 134.0 L 181.0 134.0 L 181.0 134.0 L 178.0 139.0 L 174.0 145.0 L 172.0 149.0 " stroke="black" fill="none" stroke-width="5.0" stroke-linecap="round" stroke-linejoin="round" />
<path d="M 178.0 145.0 L 178.0 145.0 L 178.0 145.0 L 178.0 146.0 L 181.0 148.0 L 186.0 152.0 L 192.0 157.0 L 195.0 160.0 " stroke="black" fill="none" stroke-width="5.0" stroke-linecap="round" stroke-linejoin="round" />
</svg>