<svg xmlns="http://www.w3.org/2000/svg" width="300" height="300" viewBox="0 0 300 300">
<path d="M 106.0 119.0 L 106.0 119.0 L 107.0 119.0 L 109.0 119.0 L 114.0 118.0 L 119.0 118.0 " stroke="black" fill="none" stroke-width="5.0" stroke-linecap="round" stroke-linejoin="round" />
<path d="M 111.0 103.0 L 111.0 103.0 L 111.0 103.0 L 111.0 103.0 L 111.0 103.0 L 111.0 111.0 L 113.0 127.0 L 115.0 151.0 L 116.0 171.0 L 116.0 183.0 L 116.0 188.0 L 115.0 189.0 L 113.0 188.0 L 107.0 184.0 L 102.0 180.0 " stroke="black" fill="none" stroke-width="5.0" stroke-linecap="round" stroke-linejoin="round" />
<path d="M 90.0 157.0 L 90.0 157.0 L 91.0 156.0 L 95.0 156.0 L 105.0 154.0 L 120.0 152.0 L 132.0 149.0 L 134.0 149.0 " stroke="black" fill="none" stroke-width="5.0" stroke-linecap="round" stroke-linejoin="round" />
<path d="M 144.0 107.0 L 144.0 107.0 L 144.0 107.0 L 144.0 107.0 L 144.0 107.0 L 145.0 107.0 L 150.0 106.0 L 159.0 104.0 L 167.0 102.0 L 168.0 102.0 " stroke="black" fill="none" stroke-width="5.0" stroke-linecap="round" stroke-linejoin="round" />
<path d="M 139.0 109.0 L 139.0 109.0 L 139.0 108.0 L 139.0 108.0 L 138.0 112.0 L 138.0 126.0 L 137.0 149.0 L 136.0 170.0 L 136.0 181.0 L 136.0 184.0 " stroke="black" fill="none" stroke-width="5.0" stroke-linecap="round" stroke-linejoin="round" />
<path d="M 143.0 125.0 L 143.0 125.0 L 143.0 125.0 L 143.0 125.0 L 144.0 125.0 L 146.0 125.0 L 151.0 125.0 L 157.0 124.0 L 163.0 123.0 L 165.0 123.0 L 166.0 123.0 " stroke="black" fill="none" stroke-width="5.0" stroke-linecap="round" stroke-linejoin="round" />
<path d="M 139.0 142.0 L 139.0 142.0 L 139.0 142.0 L 139.0 142.0 L 141.0 143.0 L 146.0 143.0 L 157.0 142.0 L 168.0 140.0 L 175.0 140.0 L 176.0 140.0 " stroke="black" fill="none" stroke-width="5.0" stroke-linecap="round" stroke-linejoin="round" />
<path d="M 147.0 149.0 L 147.0 149.0 L 147.0 149.0 L 147.0 149.0 L 147.0 151.0 L 147.0 160.0 L 147.0 174.0 L 147.0 186.0 L 150.0 192.0 L 156.0 190.0 L 164.0 183.0 L 165.0 181.0 " stroke="black" fill="none" stroke-width="5.0" stroke-linecap="round" stroke-linejoin="round" />
<path d="M 186.0 150.0 L 186.0 152.0 L 184.0 154.0 L 183.0 158.0 L 180.0 162.0 L 178.0 166.0 " stroke="black" fill="none" stroke-width="5.0" stroke-linecap="round" stroke-linejoin="round" />
<path d="M 159.0 153.0 L 159.0 153.0 L 159.0 153.0 L 160.0 153.0 L 166.0 160.0 L 177.0 174.0 L 187.0 188.0 L 192.0 196.0 L 193.0 200.0 " stroke="black" fill="none" stroke-width="5.0" stroke-linecap="round" stroke-linejoin="round" />
</svg>