<svg xmlns="http://www.w3.org/2000/svg" width="300" height="300" viewBox="0 0 300 300">
<path d="M 117.0 129.0 L 117.0 129.0 L 117.0 129.0 L 118.0 129.0 L 119.0 129.0 L 121.0 129.0 L 126.0 129.0 L 134.0 128.0 L 140.0 126.0 " stroke="black" fill="none" stroke-width="5.0" stroke-linecap="round" stroke-linejoin="round" />
<path d="M 125.0 112.0 L 125.0 112.0 L 125.0 112.0 L 125.0 111.0 L 125.0 112.0 L 128.0 121.0 L 132.0 140.0 L 135.0 161.0 L 136.0 175.0 L 136.0 181.0 L 135.0 182.0 L 133.0 182.0 L 129.0 180.0 L 122.0 178.0 L 118.0 177.0 " stroke="black" fill="none" stroke-width="5.0" stroke-linecap="round" stroke-linejoin="round" />
<path d="M 107.0 155.0 L 107.0 155.0 L 108.0 154.0 L 111.0 154.0 L 122.0 152.0 L 139.0 150.0 L 143.0 149.0 " stroke="black" fill="none" stroke-width="5.0" stroke-linecap="round" stroke-linejoin="round" />
<path d="M 154.0 122.0 L 154.0 122.0 L 154.0 122.0 L 154.0 122.0 L 157.0 122.0 L 165.0 122.0 L 172.0 120.0 L 175.0 120.0 " stroke="black" fill="none" stroke-width="5.0" stroke-linecap="round" stroke-linejoin="round" />
<path d="M 152.0 139.0 L 152.0 139.0 L 152.0 139.0 L 154.0 139.0 L 164.0 139.0 L 175.0 139.0 L 177.0 139.0 " stroke="black" fill="none" stroke-width="5.0" stroke-linecap="round" stroke-linejoin="round" />
<path d="M 163.0 110.0 L 163.0 110.0 L 163.0 110.0 L 163.0 111.0 L 164.0 120.0 L 167.0 135.0 L 167.0 138.0 " stroke="black" fill="none" stroke-width="5.0" stroke-linecap="round" stroke-linejoin="round" />
<path d="M 144.0 161.0 L 145.0 161.0 L 146.0 162.0 L 151.0 162.0 L 162.0 161.0 L 176.0 159.0 L 186.0 159.0 L 191.0 159.0 " stroke="black" fill="none" stroke-width="5.0" stroke-linecap="round" stroke-linejoin="round" />
<path d="M 166.0 144.0 L 166.0 144.0 L 166.0 143.0 L 166.0 143.0 L 168.0 148.0 L 172.0 159.0 L 176.0 175.0 L 179.0 187.0 L 179.0 194.0 L 179.0 196.0 L 176.0 196.0 L 170.0 194.0 L 169.0 193.0 " stroke="black" fill="none" stroke-width="5.0" stroke-linecap="round" stroke-linejoin="round" />
<path d="M 151.0 181.0 L 151.0 181.0 L 151.0 181.0 L 152.0 181.0 L 155.0 181.0 L 162.0 181.0 L 163.0 182.0 " stroke="black" fill="none" stroke-width="5.0" stroke-linecap="round" stroke-linejoin="round" />
</svg>