<svg xmlns="http://www.w3.org/2000/svg" width="300" height="300" viewBox="0 0 300 300">
<path d="M 117.14285714285718 129.28571428571433 L 117.14285714285718 129.28571428571433 L 117.14285714285718 129.28571428571433 L 117.14285714285718 129.28571428571433 L 118.5714285714286 129.28571428571433 L 121.42857142857146 129.28571428571433 L 127.85714285714288 128.5714285714286 L 133.5714285714286 127.85714285714288 " stroke="black" fill="none" stroke-width="5.0" stroke-linecap="round" stroke-linejoin="round" />
<path d="M 126.42857142857146 114.28571428571432 L 126.42857142857146 114.28571428571432 L 126.42857142857146 113.5714285714286 L 126.42857142857146 113.5714285714286 L 126.42857142857146 114.28571428571432 L 127.14285714285718 119.28571428571432 L 129.28571428571433 131.42857142857144 L 130.71428571428572 150.00000000000006 L 131.42857142857144 165.71428571428572 L 132.14285714285717 172.8571428571429 L 133.5714285714286 175.00000000000006 L 133.5714285714286 175.00000000000006 L 130.71428571428572 175.00000000000006 L 125.00000000000001 172.8571428571429 L 118.5714285714286 170.71428571428572 L 117.14285714285718 170.71428571428572 " stroke="black" fill="none" stroke-width="5.0" stroke-linecap="round" stroke-linejoin="round" />
<path d="M 115.00000000000001 148.5714285714286 L 115.00000000000001 148.5714285714286 L 115.00000000000001 148.5714285714286 L 115.00000000000001 148.5714285714286 L 115.71428571428574 148.5714285714286 L 120.71428571428574 147.8571428571429 L 130.00000000000006 145.00000000000006 L 135.71428571428572 143.5714285714286 " stroke="black" fill="none" stroke-width="5.0" stroke-linecap="round" stroke-linejoin="round" />
<path d="M 151.42857142857144 117.85714285714288 L 151.42857142857144 117.85714285714288 L 151.42857142857144 117.85714285714288 L 151.42857142857144 117.85714285714288 L 151.42857142857144 120.71428571428574 L 147.8571428571429 127.85714285714288 L 140.71428571428572 140.00000000000006 L 134.28571428571433 149.28571428571433 " stroke="black" fill="none" stroke-width="5.0" stroke-linecap="round" stroke-linejoin="round" />
<path d="M 145.00000000000006 136.42857142857144 L 145.00000000000006 136.42857142857144 L 144.28571428571433 135.71428571428572 L 144.28571428571433 136.42857142857144 L 144.28571428571433 142.14285714285717 L 146.42857142857144 152.8571428571429 L 147.8571428571429 165.00000000000006 L 149.28571428571433 172.8571428571429 " stroke="black" fill="none" stroke-width="5.0" stroke-linecap="round" stroke-linejoin="round" />
<path d="M 158.5714285714286 117.85714285714288 L 158.5714285714286 117.85714285714288 L 159.28571428571433 117.85714285714288 L 159.28571428571433 117.85714285714288 L 161.42857142857144 119.28571428571432 L 163.5714285714286 122.14285714285718 L 165.00000000000006 124.28571428571432 " stroke="black" fill="none" stroke-width="5.0" stroke-linecap="round" stroke-linejoin="round" />
<path d="M 154.28571428571433 132.14285714285717 L 155.71428571428572 132.14285714285717 L 157.8571428571429 132.14285714285717 L 162.8571428571429 130.71428571428572 L 171.42857142857144 128.5714285714286 L 178.5714285714286 127.14285714285718 L 180.71428571428578 127.14285714285718 L 181.42857142857144 127.14285714285718 " stroke="black" fill="none" stroke-width="5.0" stroke-linecap="round" stroke-linejoin="round" />
<path d="M 160.00000000000006 142.8571428571429 L 160.71428571428572 142.8571428571429 L 161.42857142857144 142.8571428571429 L 162.14285714285717 142.8571428571429 L 164.28571428571433 142.8571428571429 L 167.8571428571429 142.14285714285717 L 172.8571428571429 141.42857142857144 L 176.42857142857144 140.71428571428572 L 177.14285714285717 140.71428571428572 " stroke="black" fill="none" stroke-width="5.0" stroke-linecap="round" stroke-linejoin="round" />
<path d="M 158.5714285714286 155.00000000000006 L 159.28571428571433 155.00000000000006 L 160.71428571428572 155.00000000000006 L 164.28571428571433 155.00000000000006 L 170.00000000000006 153.5714285714286 L 176.42857142857144 152.8571428571429 L 180.00000000000006 152.14285714285717 " stroke="black" fill="none" stroke-width="5.0" stroke-linecap="round" stroke-linejoin="round" />
<path d="M 153.5714285714286 177.8571428571429 L 155.71428571428572 177.8571428571429 L 159.28571428571433 177.8571428571429 L 165.71428571428572 177.14285714285717 L 175.71428571428578 175.00000000000006 L 183.5714285714286 175.00000000000006 L 185.71428571428578 175.00000000000006 " stroke="black" fill="none" stroke-width="5.0" stroke-linecap="round" stroke-linejoin="round" />
<path d="M 168.5714285714286 135.71428571428572 L 168.5714285714286 135.71428571428572 L 168.5714285714286 135.71428571428572 L 167.8571428571429 137.14285714285717 L 169.28571428571433 143.5714285714286 L 171.42857142857144 157.8571428571429 L 172.8571428571429 174.28571428571433 L 173.5714285714286 180.00000000000006 " stroke="black" fill="none" stroke-width="5.0" stroke-linecap="round" stroke-linejoin="round" />
</svg>