<svg xmlns="http://www.w3.org/2000/svg" width="300" height="300" viewBox="0 0 300 300">
<path d="M 117.0 123.0 L 118.0 123.0 L 119.0 123.0 L 120.0 124.0 L 124.0 124.0 L 130.0 124.0 L 135.0 123.0 " stroke="black" fill="none" stroke-width="5.0" stroke-linecap="round" stroke-linejoin="round" />
<path d="M 125.0 107.0 L 125.0 108.0 L 124.0 111.0 L 124.0 124.0 L 126.0 145.0 L 128.0 164.0 L 129.0 178.0 L 129.0 187.0 L 128.0 190.0 L 127.0 191.0 L 123.0 190.0 L 117.0 187.0 L 109.0 183.0 L 106.0 180.0 " stroke="black" fill="none" stroke-width="5.0" stroke-linecap="round" stroke-linejoin="round" />
<path d="M 106.0 160.0 L 106.0 160.0 L 106.0 160.0 L 107.0 159.0 L 110.0 158.0 L 120.0 155.0 L 133.0 152.0 L 135.0 151.0 " stroke="black" fill="none" stroke-width="5.0" stroke-linecap="round" stroke-linejoin="round" />
<path d="M 150.0 114.0 L 150.0 114.0 L 150.0 114.0 L 150.0 115.0 L 150.0 120.0 L 150.0 127.0 L 151.0 133.0 L 151.0 135.0 L 151.0 136.0 " stroke="black" fill="none" stroke-width="5.0" stroke-linecap="round" stroke-linejoin="round" />
<path d="M 149.0 113.0 L 149.0 113.0 L 150.0 113.0 L 150.0 113.0 L 152.0 113.0 L 156.0 113.0 L 161.0 113.0 L 166.0 114.0 L 170.0 116.0 L 173.0 121.0 L 176.0 128.0 L 178.0 135.0 L 178.0 140.0 L 179.0 143.0 L 179.0 143.0 " stroke="black" fill="none" stroke-width="5.0" stroke-linecap="round" stroke-linejoin="round" />
<path d="M 153.0 126.0 L 153.0 126.0 L 153.0 126.0 L 156.0 126.0 L 161.0 126.0 L 167.0 126.0 L 172.0 127.0 L 174.0 129.0 " stroke="black" fill="none" stroke-width="5.0" stroke-linecap="round" stroke-linejoin="round" />
<path d="M 151.0 140.0 L 153.0 141.0 L 156.0 142.0 L 161.0 142.0 L 168.0 142.0 L 174.0 142.0 L 176.0 142.0 " stroke="black" fill="none" stroke-width="5.0" stroke-linecap="round" stroke-linejoin="round" />
<path d="M 141.0 153.0 L 141.0 153.0 L 141.0 153.0 L 141.0 153.0 L 145.0 153.0 L 154.0 153.0 L 166.0 153.0 L 176.0 153.0 L 182.0 153.0 " stroke="black" fill="none" stroke-width="5.0" stroke-linecap="round" stroke-linejoin="round" />
<path d="M 154.0 155.0 L 154.0 155.0 L 154.0 156.0 L 152.0 157.0 L 151.0 159.0 L 148.0 164.0 L 145.0 170.0 L 142.0 176.0 L 142.0 177.0 " stroke="black" fill="none" stroke-width="5.0" stroke-linecap="round" stroke-linejoin="round" />
<path d="M 151.0 164.0 L 151.0 165.0 L 151.0 165.0 L 152.0 166.0 L 156.0 166.0 L 162.0 166.0 L 169.0 165.0 L 176.0 165.0 L 181.0 165.0 L 185.0 168.0 L 187.0 173.0 L 189.0 181.0 L 190.0 189.0 L 191.0 195.0 L 191.0 198.0 L 190.0 199.0 L 187.0 200.0 L 180.0 198.0 L 175.0 197.0 " stroke="black" fill="none" stroke-width="5.0" stroke-linecap="round" stroke-linejoin="round" />
<path d="M 159.0 168.0 L 159.0 168.0 L 159.0 168.0 L 159.0 168.0 L 158.0 172.0 L 156.0 178.0 L 153.0 185.0 L 150.0 190.0 L 150.0 191.0 " stroke="black" fill="none" stroke-width="5.0" stroke-linecap="round" stroke-linejoin="round" />
<path d="M 170.0 173.0 L 170.0 175.0 L 170.0 176.0 L 169.0 177.0 L 168.0 180.0 L 165.0 186.0 L 160.0 194.0 L 155.0 201.0 " stroke="black" fill="none" stroke-width="5.0" stroke-linecap="round" stroke-linejoin="round" />
</svg>