<svg xmlns="http://www.w3.org/2000/svg" width="300" height="300" viewBox="0 0 300 300">
<path d="M 121.0 109.0 L 121.0 109.0 L 121.0 109.0 L 121.0 109.0 L 122.0 109.0 L 123.0 109.0 L 126.0 109.0 L 131.0 109.0 L 135.0 109.0 L 139.0 109.0 L 140.0 109.0 L 142.0 109.0 L 143.0 112.0 L 143.0 116.0 L 143.0 120.0 L 143.0 123.0 L 143.0 124.0 " stroke="black" fill="none" stroke-width="5.0" stroke-linecap="round" stroke-linejoin="round" />
<path d="M 119.0 126.0 L 119.0 126.0 L 119.0 126.0 L 119.0 126.0 L 119.0 126.0 L 124.0 126.0 L 130.0 126.0 L 136.0 125.0 L 141.0 125.0 L 142.0 125.0 " stroke="black" fill="none" stroke-width="5.0" stroke-linecap="round" stroke-linejoin="round" />
<path d="M 121.0 114.0 L 121.0 114.0 L 121.0 114.0 L 122.0 114.0 L 122.0 114.0 L 122.0 114.0 L 122.0 114.0 L 121.0 117.0 L 117.0 127.0 L 110.0 141.0 L 104.0 151.0 L 102.0 153.0 " stroke="black" fill="none" stroke-width="5.0" stroke-linecap="round" stroke-linejoin="round" />
<path d="M 118.0 135.0 L 118.0 135.0 L 118.0 135.0 L 118.0 135.0 L 119.0 137.0 L 120.0 140.0 L 120.0 145.0 L 121.0 149.0 " stroke="black" fill="none" stroke-width="5.0" stroke-linecap="round" stroke-linejoin="round" />
<path d="M 118.0 136.0 L 119.0 136.0 L 119.0 136.0 L 120.0 136.0 L 122.0 136.0 L 126.0 135.0 L 133.0 134.0 L 139.0 133.0 L 143.0 133.0 L 145.0 135.0 L 146.0 138.0 L 146.0 141.0 L 146.0 145.0 L 146.0 148.0 " stroke="black" fill="none" stroke-width="5.0" stroke-linecap="round" stroke-linejoin="round" />
<path d="M 119.0 153.0 L 119.0 153.0 L 119.0 153.0 L 119.0 154.0 L 124.0 154.0 L 133.0 154.0 L 141.0 152.0 " stroke="black" fill="none" stroke-width="5.0" stroke-linecap="round" stroke-linejoin="round" />
<path d="M 159.0 102.0 L 159.0 102.0 L 159.0 102.0 L 159.0 102.0 L 159.0 101.0 L 159.0 101.0 L 161.0 103.0 L 163.0 105.0 L 165.0 109.0 " stroke="black" fill="none" stroke-width="5.0" stroke-linecap="round" stroke-linejoin="round" />
<path d="M 153.0 116.0 L 153.0 116.0 L 153.0 116.0 L 153.0 116.0 L 155.0 116.0 L 161.0 116.0 L 170.0 116.0 L 177.0 116.0 L 180.0 116.0 L 180.0 116.0 " stroke="black" fill="none" stroke-width="5.0" stroke-linecap="round" stroke-linejoin="round" />
<path d="M 157.0 120.0 L 157.0 120.0 L 157.0 122.0 L 157.0 124.0 L 157.0 125.0 " stroke="black" fill="none" stroke-width="5.0" stroke-linecap="round" stroke-linejoin="round" />
<path d="M 169.0 116.0 L 170.0 117.0 L 170.0 118.0 L 171.0 121.0 L 171.0 124.0 L 170.0 129.0 L 170.0 130.0 " stroke="black" fill="none" stroke-width="5.0" stroke-linecap="round" stroke-linejoin="round" />
<path d="M 152.0 132.0 L 152.0 132.0 L 152.0 132.0 L 152.0 132.0 L 153.0 132.0 L 160.0 132.0 L 169.0 132.0 L 176.0 132.0 L 179.0 132.0 L 179.0 132.0 " stroke="black" fill="none" stroke-width="5.0" stroke-linecap="round" stroke-linejoin="round" />
<path d="M 150.0 144.0 L 150.0 144.0 L 150.0 144.0 L 151.0 144.0 L 157.0 144.0 L 168.0 144.0 L 178.0 143.0 L 183.0 143.0 L 184.0 143.0 " stroke="black" fill="none" stroke-width="5.0" stroke-linecap="round" stroke-linejoin="round" />
<path d="M 165.0 134.0 L 166.0 134.0 L 166.0 134.0 L 167.0 134.0 L 168.0 138.0 L 168.0 145.0 L 169.0 153.0 " stroke="black" fill="none" stroke-width="5.0" stroke-linecap="round" stroke-linejoin="round" />
<path d="M 156.0 159.0 L 156.0 159.0 L 156.0 159.0 L 156.0 159.0 L 156.0 159.0 L 157.0 159.0 L 156.0 159.0 L 153.0 162.0 L 145.0 167.0 L 140.0 170.0 " stroke="black" fill="none" stroke-width="5.0" stroke-linecap="round" stroke-linejoin="round" />
<path d="M 140.0 178.0 L 140.0 178.0 L 140.0 178.0 L 140.0 178.0 L 142.0 178.0 L 147.0 178.0 L 153.0 177.0 L 157.0 176.0 L 158.0 176.0 " stroke="black" fill="none" stroke-width="5.0" stroke-linecap="round" stroke-linejoin="round" />
<path d="M 127.0 191.0 L 128.0 191.0 L 128.0 191.0 L 132.0 191.0 L 141.0 191.0 L 154.0 189.0 L 165.0 187.0 L 172.0 186.0 L 173.0 186.0 " stroke="black" fill="none" stroke-width="5.0" stroke-linecap="round" stroke-linejoin="round" />
<path d="M 150.0 169.0 L 150.0 169.0 L 150.0 169.0 L 150.0 171.0 L 152.0 179.0 L 155.0 191.0 L 157.0 202.0 L 157.0 206.0 L 157.0 207.0 L 154.0 207.0 L 148.0 207.0 L 139.0 204.0 " stroke="black" fill="none" stroke-width="5.0" stroke-linecap="round" stroke-linejoin="round" />
</svg>