<svg xmlns="http://www.w3.org/2000/svg" width="300" height="300" viewBox="0 0 300 300">
<path d="M 142.0 91.0 L 142.0 91.0 L 141.0 90.0 L 141.0 90.0 L 142.0 93.0 L 145.0 99.0 L 147.0 100.0 " stroke="black" fill="none" stroke-width="5.0" stroke-linecap="round" stroke-linejoin="round" />
<path d="M 128.0 108.0 L 127.0 108.0 L 127.0 108.0 L 126.0 108.0 L 127.0 108.0 L 134.0 108.0 L 148.0 108.0 L 163.0 107.0 L 175.0 105.0 L 177.0 105.0 " stroke="black" fill="none" stroke-width="5.0" stroke-linecap="round" stroke-linejoin="round" />
<path d="M 124.0 113.0 L 124.0 113.0 L 124.0 114.0 L 123.0 121.0 L 122.0 140.0 L 117.0 168.0 L 111.0 191.0 L 109.0 200.0 " stroke="black" fill="none" stroke-width="5.0" stroke-linecap="round" stroke-linejoin="round" />
<path d="M 133.0 129.0 L 133.0 129.0 L 133.0 130.0 L 135.0 130.0 L 139.0 131.0 L 145.0 131.0 L 151.0 130.0 " stroke="black" fill="none" stroke-width="5.0" stroke-linecap="round" stroke-linejoin="round" />
<path d="M 142.0 118.0 L 142.0 118.0 L 142.0 118.0 L 142.0 120.0 L 142.0 127.0 L 143.0 139.0 L 144.0 149.0 L 145.0 152.0 " stroke="black" fill="none" stroke-width="5.0" stroke-linecap="round" stroke-linejoin="round" />
<path d="M 141.0 139.0 L 139.0 139.0 L 138.0 140.0 L 136.0 143.0 L 132.0 148.0 L 128.0 154.0 " stroke="black" fill="none" stroke-width="5.0" stroke-linecap="round" stroke-linejoin="round" />
<path d="M 148.0 137.0 L 148.0 137.0 L 147.0 138.0 L 147.0 140.0 L 148.0 145.0 L 151.0 151.0 L 155.0 156.0 " stroke="black" fill="none" stroke-width="5.0" stroke-linecap="round" stroke-linejoin="round" />
<path d="M 156.0 130.0 L 157.0 131.0 L 157.0 131.0 L 159.0 132.0 L 165.0 132.0 L 175.0 130.0 L 179.0 129.0 " stroke="black" fill="none" stroke-width="5.0" stroke-linecap="round" stroke-linejoin="round" />
<path d="M 165.0 118.0 L 165.0 118.0 L 165.0 118.0 L 166.0 122.0 L 168.0 133.0 L 169.0 146.0 L 170.0 153.0 L 170.0 155.0 " stroke="black" fill="none" stroke-width="5.0" stroke-linecap="round" stroke-linejoin="round" />
<path d="M 165.0 136.0 L 165.0 136.0 L 163.0 137.0 L 162.0 139.0 L 160.0 141.0 L 157.0 146.0 L 153.0 152.0 " stroke="black" fill="none" stroke-width="5.0" stroke-linecap="round" stroke-linejoin="round" />
<path d="M 174.0 137.0 L 175.0 139.0 L 177.0 142.0 L 181.0 147.0 L 185.0 150.0 " stroke="black" fill="none" stroke-width="5.0" stroke-linecap="round" stroke-linejoin="round" />
<path d="M 143.0 166.0 L 143.0 166.0 L 143.0 166.0 L 144.0 166.0 L 149.0 166.0 L 159.0 163.0 L 169.0 160.0 L 172.0 158.0 " stroke="black" fill="none" stroke-width="5.0" stroke-linecap="round" stroke-linejoin="round" />
<path d="M 148.0 172.0 L 149.0 172.0 L 150.0 172.0 L 154.0 172.0 L 160.0 171.0 L 164.0 171.0 L 166.0 171.0 " stroke="black" fill="none" stroke-width="5.0" stroke-linecap="round" stroke-linejoin="round" />
<path d="M 140.0 183.0 L 142.0 182.0 L 146.0 181.0 L 153.0 180.0 L 162.0 180.0 L 172.0 179.0 L 177.0 178.0 " stroke="black" fill="none" stroke-width="5.0" stroke-linecap="round" stroke-linejoin="round" />
<path d="M 156.0 165.0 L 156.0 165.0 L 156.0 165.0 L 157.0 165.0 L 159.0 168.0 L 163.0 179.0 L 166.0 193.0 L 167.0 203.0 L 166.0 206.0 L 161.0 207.0 L 151.0 204.0 " stroke="black" fill="none" stroke-width="5.0" stroke-linecap="round" stroke-linejoin="round" />
</svg>