<svg xmlns="http://www.w3.org/2000/svg" width="300" height="300" viewBox="0 0 300 300">
<path d="M 117.0 124.0 L 117.0 124.0 L 117.0 124.0 L 117.0 124.0 L 117.0 124.0 L 118.0 124.0 L 120.0 125.0 L 128.0 125.0 L 133.0 125.0 " stroke="black" fill="none" stroke-width="5.0" stroke-linecap="round" stroke-linejoin="round" />
<path d="M 125.0 111.0 L 125.0 111.0 L 125.0 111.0 L 124.0 111.0 L 124.0 111.0 L 124.0 116.0 L 126.0 133.0 L 130.0 156.0 L 132.0 174.0 L 133.0 185.0 L 133.0 190.0 L 132.0 191.0 L 128.0 191.0 L 119.0 186.0 L 110.0 181.0 " stroke="black" fill="none" stroke-width="5.0" stroke-linecap="round" stroke-linejoin="round" />
<path d="M 110.0 155.0 L 110.0 155.0 L 110.0 155.0 L 110.0 155.0 L 113.0 155.0 L 124.0 152.0 L 140.0 149.0 L 144.0 148.0 " stroke="black" fill="none" stroke-width="5.0" stroke-linecap="round" stroke-linejoin="round" />
<path d="M 150.0 123.0 L 150.0 123.0 L 150.0 123.0 L 150.0 124.0 L 151.0 124.0 L 157.0 123.0 L 166.0 121.0 L 174.0 120.0 L 179.0 120.0 L 182.0 120.0 L 182.0 123.0 L 182.0 127.0 L 182.0 133.0 L 181.0 137.0 " stroke="black" fill="none" stroke-width="5.0" stroke-linecap="round" stroke-linejoin="round" />
<path d="M 148.0 127.0 L 148.0 127.0 L 148.0 127.0 L 147.0 127.0 L 147.0 128.0 L 147.0 137.0 L 147.0 155.0 L 147.0 173.0 L 148.0 183.0 " stroke="black" fill="none" stroke-width="5.0" stroke-linecap="round" stroke-linejoin="round" />
<path d="M 159.0 103.0 L 159.0 103.0 L 159.0 101.0 L 159.0 101.0 L 160.0 101.0 L 160.0 104.0 L 160.0 111.0 L 161.0 118.0 " stroke="black" fill="none" stroke-width="5.0" stroke-linecap="round" stroke-linejoin="round" />
<path d="M 160.0 109.0 L 160.0 109.0 L 160.0 109.0 L 160.0 109.0 L 163.0 109.0 L 169.0 109.0 L 174.0 109.0 " stroke="black" fill="none" stroke-width="5.0" stroke-linecap="round" stroke-linejoin="round" />
<path d="M 163.0 118.0 L 163.0 118.0 L 163.0 118.0 L 163.0 118.0 L 163.0 120.0 L 163.0 127.0 L 166.0 135.0 L 171.0 140.0 L 175.0 141.0 L 176.0 141.0 " stroke="black" fill="none" stroke-width="5.0" stroke-linecap="round" stroke-linejoin="round" />
<path d="M 157.0 130.0 L 158.0 130.0 L 159.0 130.0 L 160.0 130.0 L 162.0 130.0 L 167.0 130.0 L 173.0 129.0 L 176.0 129.0 " stroke="black" fill="none" stroke-width="5.0" stroke-linecap="round" stroke-linejoin="round" />
<path d="M 158.0 149.0 L 158.0 149.0 L 158.0 149.0 L 158.0 149.0 L 159.0 149.0 L 163.0 149.0 L 170.0 149.0 L 177.0 148.0 L 179.0 148.0 " stroke="black" fill="none" stroke-width="5.0" stroke-linecap="round" stroke-linejoin="round" />
<path d="M 173.0 152.0 L 172.0 152.0 L 170.0 153.0 L 168.0 153.0 L 165.0 155.0 L 161.0 158.0 L 158.0 161.0 L 157.0 161.0 " stroke="black" fill="none" stroke-width="5.0" stroke-linecap="round" stroke-linejoin="round" />
<path d="M 166.0 158.0 L 166.0 158.0 L 166.0 158.0 L 167.0 159.0 L 169.0 161.0 L 173.0 167.0 L 177.0 176.0 L 178.0 185.0 L 178.0 191.0 L 176.0 193.0 L 172.0 192.0 L 169.0 189.0 " stroke="black" fill="none" stroke-width="5.0" stroke-linecap="round" stroke-linejoin="round" />
<path d="M 169.0 165.0 L 170.0 166.0 L 171.0 166.0 L 171.0 166.0 L 170.0 167.0 L 167.0 170.0 L 162.0 174.0 L 156.0 178.0 L 154.0 180.0 " stroke="black" fill="none" stroke-width="5.0" stroke-linecap="round" stroke-linejoin="round" />
<path d="M 174.0 169.0 L 174.0 170.0 L 174.0 171.0 L 173.0 172.0 L 171.0 175.0 L 167.0 179.0 L 161.0 185.0 L 158.0 188.0 " stroke="black" fill="none" stroke-width="5.0" stroke-linecap="round" stroke-linejoin="round" />
<path d="M 173.0 171.0 L 173.0 171.0 L 173.0 171.0 L 173.0 170.0 L 173.0 169.0 L 176.0 168.0 L 181.0 165.0 L 185.0 163.0 L 186.0 162.0 " stroke="black" fill="none" stroke-width="5.0" stroke-linecap="round" stroke-linejoin="round" />
<path d="M 173.0 172.0 L 173.0 172.0 L 173.0 174.0 L 174.0 175.0 L 177.0 176.0 L 183.0 179.0 L 189.0 184.0 L 194.0 188.0 L 195.0 189.0 " stroke="black" fill="none" stroke-width="5.0" stroke-linecap="round" stroke-linejoin="round" />
</svg>