<svg xmlns="http://www.w3.org/2000/svg" width="300" height="300" viewBox="0 0 300 300">
<path d="M 117.0 126.0 L 117.0 126.0 L 117.0 126.0 L 118.0 126.0 L 120.0 126.0 L 126.0 126.0 L 134.0 126.0 " stroke="black" fill="none" stroke-width="5.0" stroke-linecap="round" stroke-linejoin="round" />
<path d="M 127.0 105.0 L 127.0 105.0 L 126.0 105.0 L 125.0 106.0 L 125.0 112.0 L 126.0 125.0 L 128.0 145.0 L 129.0 165.0 L 129.0 179.0 L 129.0 186.0 L 129.0 188.0 L 127.0 187.0 L 122.0 184.0 L 114.0 181.0 " stroke="black" fill="none" stroke-width="5.0" stroke-linecap="round" stroke-linejoin="round" />
<path d="M 110.0 158.0 L 110.0 158.0 L 110.0 158.0 L 110.0 158.0 L 113.0 158.0 L 126.0 155.0 L 142.0 151.0 " stroke="black" fill="none" stroke-width="5.0" stroke-linecap="round" stroke-linejoin="round" />
<path d="M 155.0 107.0 L 155.0 108.0 L 155.0 108.0 L 155.0 109.0 L 155.0 110.0 L 156.0 112.0 L 156.0 116.0 L 157.0 120.0 L 157.0 120.0 " stroke="black" fill="none" stroke-width="5.0" stroke-linecap="round" stroke-linejoin="round" />
<path d="M 157.0 107.0 L 157.0 107.0 L 157.0 107.0 L 157.0 107.0 L 158.0 107.0 L 161.0 107.0 L 164.0 107.0 L 168.0 108.0 L 171.0 111.0 L 173.0 116.0 L 174.0 120.0 L 175.0 123.0 " stroke="black" fill="none" stroke-width="5.0" stroke-linecap="round" stroke-linejoin="round" />
<path d="M 157.0 124.0 L 157.0 125.0 L 157.0 126.0 L 159.0 126.0 L 164.0 125.0 L 171.0 124.0 " stroke="black" fill="none" stroke-width="5.0" stroke-linecap="round" stroke-linejoin="round" />
<path d="M 147.0 136.0 L 147.0 136.0 L 146.0 137.0 L 146.0 140.0 L 146.0 144.0 L 147.0 148.0 L 148.0 150.0 " stroke="black" fill="none" stroke-width="5.0" stroke-linecap="round" stroke-linejoin="round" />
<path d="M 148.0 138.0 L 148.0 138.0 L 148.0 137.0 L 148.0 137.0 L 148.0 137.0 L 149.0 137.0 L 152.0 137.0 L 155.0 137.0 L 158.0 138.0 L 160.0 142.0 L 162.0 147.0 L 163.0 151.0 L 163.0 153.0 " stroke="black" fill="none" stroke-width="5.0" stroke-linecap="round" stroke-linejoin="round" />
<path d="M 150.0 153.0 L 150.0 153.0 L 150.0 153.0 L 151.0 154.0 L 153.0 154.0 L 158.0 154.0 L 159.0 154.0 " stroke="black" fill="none" stroke-width="5.0" stroke-linecap="round" stroke-linejoin="round" />
<path d="M 169.0 136.0 L 169.0 136.0 L 169.0 136.0 L 169.0 136.0 L 169.0 136.0 L 169.0 138.0 L 170.0 144.0 L 171.0 149.0 L 171.0 151.0 " stroke="black" fill="none" stroke-width="5.0" stroke-linecap="round" stroke-linejoin="round" />
<path d="M 170.0 136.0 L 170.0 136.0 L 170.0 135.0 L 171.0 135.0 L 172.0 135.0 L 175.0 135.0 L 179.0 135.0 L 181.0 136.0 L 183.0 141.0 L 184.0 146.0 L 185.0 150.0 L 185.0 151.0 " stroke="black" fill="none" stroke-width="5.0" stroke-linecap="round" stroke-linejoin="round" />
<path d="M 170.0 151.0 L 170.0 151.0 L 170.0 151.0 L 171.0 151.0 L 176.0 151.0 L 182.0 150.0 " stroke="black" fill="none" stroke-width="5.0" stroke-linecap="round" stroke-linejoin="round" />
<path d="M 144.0 168.0 L 144.0 168.0 L 144.0 168.0 L 146.0 168.0 L 154.0 168.0 L 168.0 168.0 L 181.0 168.0 L 189.0 168.0 L 190.0 168.0 " stroke="black" fill="none" stroke-width="5.0" stroke-linecap="round" stroke-linejoin="round" />
<path d="M 163.0 155.0 L 163.0 155.0 L 164.0 155.0 L 165.0 156.0 L 166.0 164.0 L 166.0 177.0 L 167.0 189.0 L 167.0 195.0 L 167.0 196.0 " stroke="black" fill="none" stroke-width="5.0" stroke-linecap="round" stroke-linejoin="round" />
<path d="M 161.0 173.0 L 161.0 173.0 L 161.0 173.0 L 161.0 174.0 L 161.0 175.0 L 157.0 177.0 L 150.0 182.0 L 141.0 188.0 L 136.0 191.0 " stroke="black" fill="none" stroke-width="5.0" stroke-linecap="round" stroke-linejoin="round" />
<path d="M 173.0 172.0 L 173.0 173.0 L 175.0 175.0 L 180.0 180.0 L 186.0 187.0 L 190.0 193.0 " stroke="black" fill="none" stroke-width="5.0" stroke-linecap="round" stroke-linejoin="round" />
</svg>