<svg xmlns="http://www.w3.org/2000/svg" width="300" height="300" viewBox="0 0 300 300">
<path d="M 115.0 121.0 L 115.0 121.0 L 115.0 121.0 L 116.0 121.0 L 117.0 121.0 L 121.0 122.0 L 127.0 122.0 L 132.0 123.0 L 135.0 123.0 " stroke="black" fill="none" stroke-width="5.0" stroke-linecap="round" stroke-linejoin="round" />
<path d="M 122.0 108.0 L 122.0 108.0 L 122.0 108.0 L 122.0 112.0 L 123.0 125.0 L 126.0 145.0 L 128.0 165.0 L 129.0 178.0 L 130.0 187.0 L 130.0 191.0 L 130.0 191.0 L 125.0 190.0 L 116.0 186.0 L 106.0 181.0 " stroke="black" fill="none" stroke-width="5.0" stroke-linecap="round" stroke-linejoin="round" />
<path d="M 107.0 157.0 L 107.0 156.0 L 107.0 156.0 L 108.0 155.0 L 113.0 155.0 L 124.0 155.0 L 135.0 155.0 L 139.0 155.0 " stroke="black" fill="none" stroke-width="5.0" stroke-linecap="round" stroke-linejoin="round" />
<path d="M 148.0 109.0 L 148.0 109.0 L 148.0 109.0 L 149.0 110.0 L 150.0 113.0 L 152.0 116.0 L 152.0 119.0 " stroke="black" fill="none" stroke-width="5.0" stroke-linecap="round" stroke-linejoin="round" />
<path d="M 158.0 109.0 L 158.0 109.0 L 158.0 109.0 L 158.0 109.0 L 158.0 112.0 L 158.0 118.0 L 157.0 124.0 " stroke="black" fill="none" stroke-width="5.0" stroke-linecap="round" stroke-linejoin="round" />
<path d="M 145.0 125.0 L 145.0 125.0 L 145.0 125.0 L 145.0 125.0 L 147.0 125.0 L 152.0 125.0 L 161.0 125.0 L 169.0 125.0 L 173.0 125.0 L 173.0 126.0 " stroke="black" fill="none" stroke-width="5.0" stroke-linecap="round" stroke-linejoin="round" />
<path d="M 153.0 129.0 L 153.0 129.0 L 153.0 129.0 L 153.0 129.0 L 153.0 130.0 L 153.0 135.0 L 153.0 142.0 L 154.0 147.0 L 154.0 148.0 " stroke="black" fill="none" stroke-width="5.0" stroke-linecap="round" stroke-linejoin="round" />
<path d="M 163.0 128.0 L 163.0 129.0 L 163.0 130.0 L 163.0 132.0 L 163.0 135.0 L 163.0 140.0 L 165.0 144.0 L 167.0 148.0 L 167.0 148.0 " stroke="black" fill="none" stroke-width="5.0" stroke-linecap="round" stroke-linejoin="round" />
<path d="M 145.0 135.0 L 145.0 135.0 L 144.0 135.0 L 144.0 136.0 L 143.0 139.0 L 144.0 144.0 L 145.0 150.0 L 146.0 153.0 L 147.0 153.0 " stroke="black" fill="none" stroke-width="5.0" stroke-linecap="round" stroke-linejoin="round" />
<path d="M 147.0 136.0 L 147.0 136.0 L 148.0 136.0 L 150.0 136.0 L 153.0 136.0 L 158.0 136.0 L 163.0 136.0 L 168.0 137.0 L 171.0 139.0 L 174.0 142.0 L 175.0 147.0 L 176.0 153.0 L 176.0 157.0 L 176.0 158.0 " stroke="black" fill="none" stroke-width="5.0" stroke-linecap="round" stroke-linejoin="round" />
<path d="M 152.0 151.0 L 152.0 151.0 L 152.0 152.0 L 153.0 152.0 L 154.0 153.0 L 157.0 153.0 L 160.0 153.0 " stroke="black" fill="none" stroke-width="5.0" stroke-linecap="round" stroke-linejoin="round" />
<path d="M 146.0 159.0 L 146.0 159.0 L 146.0 159.0 L 148.0 160.0 L 152.0 161.0 L 160.0 161.0 L 167.0 162.0 L 171.0 162.0 " stroke="black" fill="none" stroke-width="5.0" stroke-linecap="round" stroke-linejoin="round" />
<path d="M 143.0 172.0 L 143.0 172.0 L 143.0 173.0 L 145.0 173.0 L 149.0 174.0 L 157.0 174.0 L 165.0 174.0 L 170.0 174.0 L 171.0 174.0 " stroke="black" fill="none" stroke-width="5.0" stroke-linecap="round" stroke-linejoin="round" />
<path d="M 155.0 164.0 L 155.0 164.0 L 155.0 165.0 L 155.0 166.0 L 155.0 168.0 L 155.0 173.0 L 154.0 182.0 L 153.0 190.0 L 152.0 193.0 " stroke="black" fill="none" stroke-width="5.0" stroke-linecap="round" stroke-linejoin="round" />
<path d="M 157.0 178.0 L 158.0 180.0 L 160.0 182.0 L 164.0 186.0 L 169.0 192.0 L 173.0 197.0 L 173.0 199.0 " stroke="black" fill="none" stroke-width="5.0" stroke-linecap="round" stroke-linejoin="round" />
<path d="M 183.0 119.0 L 183.0 119.0 L 183.0 119.0 L 184.0 120.0 L 187.0 120.0 L 191.0 121.0 L 196.0 123.0 L 199.0 124.0 L 201.0 127.0 L 201.0 129.0 L 200.0 131.0 L 198.0 133.0 L 196.0 136.0 L 196.0 140.0 L 197.0 145.0 L 200.0 149.0 L 202.0 151.0 L 203.0 153.0 L 203.0 154.0 L 201.0 156.0 L 196.0 157.0 L 195.0 157.0 " stroke="black" fill="none" stroke-width="5.0" stroke-linecap="round" stroke-linejoin="round" />
<path d="M 184.0 126.0 L 184.0 126.0 L 184.0 126.0 L 184.0 127.0 L 184.0 135.0 L 185.0 153.0 L 188.0 172.0 L 190.0 188.0 L 192.0 197.0 L 193.0 202.0 L 193.0 204.0 L 193.0 204.0 L 191.0 202.0 " stroke="black" fill="none" stroke-width="5.0" stroke-linecap="round" stroke-linejoin="round" />
</svg>