<svg xmlns="http://www.w3.org/2000/svg" width="300" height="300" viewBox="0 0 300 300">
<path d="M 113.0 124.0 L 113.0 124.0 L 113.0 125.0 L 114.0 125.0 L 118.0 125.0 L 124.0 125.0 L 130.0 125.0 L 133.0 125.0 L 133.0 125.0 " stroke="black" fill="none" stroke-width="5.0" stroke-linecap="round" stroke-linejoin="round" />
<path d="M 120.0 105.0 L 120.0 105.0 L 120.0 105.0 L 120.0 106.0 L 120.0 115.0 L 123.0 134.0 L 125.0 154.0 L 126.0 171.0 L 127.0 183.0 L 128.0 192.0 L 128.0 197.0 L 128.0 198.0 L 127.0 199.0 L 122.0 196.0 L 115.0 191.0 L 113.0 190.0 " stroke="black" fill="none" stroke-width="5.0" stroke-linecap="round" stroke-linejoin="round" />
<path d="M 103.0 162.0 L 103.0 162.0 L 105.0 162.0 L 109.0 161.0 L 117.0 159.0 L 127.0 156.0 L 131.0 154.0 " stroke="black" fill="none" stroke-width="5.0" stroke-linecap="round" stroke-linejoin="round" />
<path d="M 148.0 121.0 L 148.0 121.0 L 148.0 121.0 L 149.0 121.0 L 150.0 123.0 L 152.0 126.0 L 155.0 130.0 L 156.0 132.0 " stroke="black" fill="none" stroke-width="5.0" stroke-linecap="round" stroke-linejoin="round" />
<path d="M 164.0 110.0 L 164.0 111.0 L 164.0 114.0 L 164.0 118.0 L 163.0 128.0 L 161.0 142.0 L 158.0 160.0 L 154.0 177.0 L 151.0 189.0 L 150.0 194.0 L 150.0 193.0 L 150.0 192.0 " stroke="black" fill="none" stroke-width="5.0" stroke-linecap="round" stroke-linejoin="round" />
<path d="M 148.0 143.0 L 148.0 143.0 L 148.0 143.0 L 149.0 143.0 L 152.0 142.0 L 158.0 140.0 L 165.0 139.0 L 172.0 138.0 L 176.0 138.0 L 179.0 140.0 L 180.0 144.0 L 180.0 149.0 L 180.0 152.0 L 180.0 153.0 " stroke="black" fill="none" stroke-width="5.0" stroke-linecap="round" stroke-linejoin="round" />
<path d="M 159.0 155.0 L 159.0 155.0 L 160.0 155.0 L 160.0 155.0 L 162.0 156.0 L 166.0 156.0 L 173.0 155.0 L 181.0 155.0 L 186.0 154.0 L 189.0 155.0 L 190.0 157.0 L 190.0 161.0 L 190.0 164.0 L 190.0 166.0 " stroke="black" fill="none" stroke-width="5.0" stroke-linecap="round" stroke-linejoin="round" />
<path d="M 161.0 171.0 L 161.0 171.0 L 161.0 172.0 L 162.0 172.0 L 165.0 172.0 L 171.0 172.0 L 180.0 172.0 L 188.0 172.0 L 195.0 173.0 L 199.0 177.0 L 203.0 180.0 L 206.0 184.0 L 209.0 189.0 L 211.0 195.0 L 213.0 202.0 L 214.0 209.0 L 214.0 215.0 L 214.0 218.0 L 211.0 219.0 L 205.0 219.0 L 198.0 216.0 " stroke="black" fill="none" stroke-width="5.0" stroke-linecap="round" stroke-linejoin="round" />
<path d="M 163.0 186.0 L 164.0 185.0 L 164.0 185.0 L 164.0 185.0 L 164.0 188.0 L 164.0 193.0 L 163.0 197.0 L 163.0 200.0 " stroke="black" fill="none" stroke-width="5.0" stroke-linecap="round" stroke-linejoin="round" />
<path d="M 173.0 186.0 L 174.0 186.0 L 175.0 187.0 L 175.0 189.0 L 176.0 193.0 L 176.0 197.0 L 177.0 199.0 " stroke="black" fill="none" stroke-width="5.0" stroke-linecap="round" stroke-linejoin="round" />
<path d="M 183.0 190.0 L 183.0 190.0 L 183.0 191.0 L 183.0 193.0 L 184.0 195.0 L 184.0 198.0 L 184.0 199.0 " stroke="black" fill="none" stroke-width="5.0" stroke-linecap="round" stroke-linejoin="round" />
<path d="M 194.0 190.0 L 194.0 193.0 L 195.0 196.0 L 196.0 201.0 L 197.0 204.0 L 197.0 205.0 " stroke="black" fill="none" stroke-width="5.0" stroke-linecap="round" stroke-linejoin="round" />
</svg>