<svg xmlns="http://www.w3.org/2000/svg" width="300" height="300" viewBox="0 0 300 300">
<path d="M 118.0 117.0 L 118.0 117.0 L 118.0 117.0 L 119.0 118.0 L 121.0 120.0 L 125.0 123.0 L 128.0 125.0 " stroke="black" fill="none" stroke-width="5.0" stroke-linecap="round" stroke-linejoin="round" />
<path d="M 106.0 142.0 L 106.0 142.0 L 106.0 142.0 L 107.0 142.0 L 112.0 142.0 L 124.0 141.0 L 136.0 139.0 L 144.0 139.0 L 145.0 139.0 " stroke="black" fill="none" stroke-width="5.0" stroke-linecap="round" stroke-linejoin="round" />
<path d="M 116.0 149.0 L 116.0 149.0 L 116.0 149.0 L 116.0 150.0 L 116.0 153.0 L 115.0 162.0 L 112.0 177.0 L 110.0 191.0 L 109.0 199.0 L 109.0 199.0 " stroke="black" fill="none" stroke-width="5.0" stroke-linecap="round" stroke-linejoin="round" />
<path d="M 116.0 164.0 L 116.0 164.0 L 117.0 164.0 L 118.0 163.0 L 119.0 162.0 L 121.0 161.0 L 124.0 161.0 L 128.0 160.0 L 133.0 160.0 L 137.0 160.0 L 139.0 162.0 L 141.0 169.0 L 143.0 179.0 L 144.0 189.0 L 145.0 197.0 L 145.0 200.0 L 143.0 201.0 L 137.0 200.0 L 126.0 197.0 " stroke="black" fill="none" stroke-width="5.0" stroke-linecap="round" stroke-linejoin="round" />
<path d="M 164.0 118.0 L 164.0 118.0 L 164.0 118.0 L 164.0 118.0 L 164.0 119.0 L 163.0 126.0 L 158.0 139.0 L 150.0 152.0 L 145.0 159.0 " stroke="black" fill="none" stroke-width="5.0" stroke-linecap="round" stroke-linejoin="round" />
<path d="M 167.0 128.0 L 168.0 128.0 L 168.0 128.0 L 169.0 128.0 L 172.0 129.0 L 178.0 135.0 L 185.0 142.0 L 190.0 148.0 L 191.0 151.0 " stroke="black" fill="none" stroke-width="5.0" stroke-linecap="round" stroke-linejoin="round" />
<path d="M 165.0 159.0 L 165.0 159.0 L 166.0 160.0 L 168.0 160.0 L 171.0 162.0 L 176.0 164.0 L 180.0 166.0 L 183.0 168.0 " stroke="black" fill="none" stroke-width="5.0" stroke-linecap="round" stroke-linejoin="round" />
<path d="M 162.0 187.0 L 162.0 187.0 L 165.0 187.0 L 168.0 187.0 L 174.0 188.0 L 182.0 190.0 L 184.0 191.0 " stroke="black" fill="none" stroke-width="5.0" stroke-linecap="round" stroke-linejoin="round" />
</svg>