<svg xmlns="http://www.w3.org/2000/svg" width="300" height="300" viewBox="0 0 300 300">
<path d="M 115.0 118.0 L 115.0 118.0 L 115.0 118.0 L 116.0 119.0 L 118.0 119.0 L 122.0 119.0 L 127.0 118.0 L 132.0 118.0 " stroke="black" fill="none" stroke-width="5.0" stroke-linecap="round" stroke-linejoin="round" />
<path d="M 123.0 122.0 L 124.0 122.0 L 124.0 123.0 L 125.0 125.0 L 125.0 128.0 L 125.0 130.0 " stroke="black" fill="none" stroke-width="5.0" stroke-linecap="round" stroke-linejoin="round" />
<path d="M 107.0 137.0 L 107.0 137.0 L 107.0 137.0 L 108.0 137.0 L 111.0 137.0 L 120.0 136.0 L 132.0 134.0 L 143.0 134.0 L 146.0 134.0 " stroke="black" fill="none" stroke-width="5.0" stroke-linecap="round" stroke-linejoin="round" />
<path d="M 135.0 138.0 L 135.0 139.0 L 135.0 141.0 L 135.0 146.0 L 136.0 155.0 L 139.0 172.0 L 141.0 188.0 L 141.0 192.0 " stroke="black" fill="none" stroke-width="5.0" stroke-linecap="round" stroke-linejoin="round" />
<path d="M 120.0 141.0 L 120.0 140.0 L 121.0 139.0 L 121.0 139.0 L 121.0 144.0 L 120.0 153.0 L 120.0 162.0 L 119.0 167.0 " stroke="black" fill="none" stroke-width="5.0" stroke-linecap="round" stroke-linejoin="round" />
<path d="M 121.0 152.0 L 123.0 152.0 L 125.0 152.0 L 127.0 152.0 L 130.0 152.0 L 133.0 152.0 " stroke="black" fill="none" stroke-width="5.0" stroke-linecap="round" stroke-linejoin="round" />
<path d="M 121.0 160.0 L 122.0 160.0 L 124.0 161.0 L 128.0 161.0 L 132.0 162.0 L 135.0 162.0 " stroke="black" fill="none" stroke-width="5.0" stroke-linecap="round" stroke-linejoin="round" />
<path d="M 107.0 175.0 L 109.0 175.0 L 115.0 175.0 L 124.0 175.0 L 136.0 174.0 " stroke="black" fill="none" stroke-width="5.0" stroke-linecap="round" stroke-linejoin="round" />
<path d="M 158.0 118.0 L 158.0 118.0 L 159.0 117.0 L 159.0 117.0 L 159.0 120.0 L 157.0 129.0 L 153.0 139.0 " stroke="black" fill="none" stroke-width="5.0" stroke-linecap="round" stroke-linejoin="round" />
<path d="M 157.0 134.0 L 158.0 134.0 L 159.0 134.0 L 162.0 134.0 L 167.0 133.0 L 174.0 133.0 L 176.0 132.0 " stroke="black" fill="none" stroke-width="5.0" stroke-linecap="round" stroke-linejoin="round" />
<path d="M 170.0 139.0 L 170.0 138.0 L 171.0 138.0 L 171.0 137.0 L 171.0 138.0 L 171.0 145.0 L 168.0 159.0 L 161.0 178.0 L 153.0 191.0 " stroke="black" fill="none" stroke-width="5.0" stroke-linecap="round" stroke-linejoin="round" />
<path d="M 150.0 151.0 L 150.0 151.0 L 150.0 152.0 L 158.0 165.0 L 174.0 188.0 L 189.0 204.0 L 193.0 207.0 " stroke="black" fill="none" stroke-width="5.0" stroke-linecap="round" stroke-linejoin="round" />
</svg>