<svg xmlns="http://www.w3.org/2000/svg" width="300" height="300" viewBox="0 0 300 300">
<path d="M 120.0 110.0 L 120.0 112.0 L 119.0 116.0 L 119.0 124.0 L 120.0 133.0 " stroke="black" fill="none" stroke-width="5.0" stroke-linecap="round" stroke-linejoin="round" />
<path d="M 134.0 110.0 L 134.0 110.0 L 134.0 112.0 L 134.0 116.0 L 134.0 124.0 L 134.0 133.0 " stroke="black" fill="none" stroke-width="5.0" stroke-linecap="round" stroke-linejoin="round" />
<path d="M 110.0 123.0 L 110.0 123.0 L 110.0 123.0 L 109.0 123.0 L 111.0 123.0 L 121.0 123.0 L 137.0 123.0 L 146.0 123.0 " stroke="black" fill="none" stroke-width="5.0" stroke-linecap="round" stroke-linejoin="round" />
<path d="M 108.0 141.0 L 109.0 141.0 L 112.0 141.0 L 119.0 140.0 L 130.0 139.0 L 142.0 138.0 L 144.0 138.0 " stroke="black" fill="none" stroke-width="5.0" stroke-linecap="round" stroke-linejoin="round" />
<path d="M 117.0 156.0 L 117.0 156.0 L 117.0 156.0 L 117.0 156.0 L 117.0 160.0 L 116.0 171.0 L 115.0 187.0 L 115.0 195.0 " stroke="black" fill="none" stroke-width="5.0" stroke-linecap="round" stroke-linejoin="round" />
<path d="M 122.0 151.0 L 122.0 151.0 L 121.0 151.0 L 121.0 151.0 L 121.0 150.0 L 125.0 149.0 L 131.0 149.0 L 135.0 148.0 L 139.0 149.0 L 141.0 151.0 L 142.0 157.0 L 143.0 168.0 L 145.0 180.0 L 147.0 191.0 L 147.0 197.0 L 145.0 200.0 L 140.0 200.0 L 136.0 198.0 " stroke="black" fill="none" stroke-width="5.0" stroke-linecap="round" stroke-linejoin="round" />
<path d="M 121.0 164.0 L 121.0 164.0 L 121.0 165.0 L 120.0 165.0 L 120.0 165.0 L 125.0 165.0 L 133.0 164.0 L 140.0 163.0 L 141.0 163.0 " stroke="black" fill="none" stroke-width="5.0" stroke-linecap="round" stroke-linejoin="round" />
<path d="M 118.0 177.0 L 119.0 178.0 L 122.0 179.0 L 132.0 180.0 L 141.0 178.0 " stroke="black" fill="none" stroke-width="5.0" stroke-linecap="round" stroke-linejoin="round" />
<path d="M 165.0 111.0 L 165.0 111.0 L 165.0 111.0 L 165.0 111.0 L 165.0 113.0 L 163.0 120.0 L 159.0 133.0 L 155.0 144.0 " stroke="black" fill="none" stroke-width="5.0" stroke-linecap="round" stroke-linejoin="round" />
<path d="M 164.0 126.0 L 164.0 126.0 L 164.0 127.0 L 164.0 127.0 L 165.0 127.0 L 168.0 127.0 L 175.0 127.0 L 185.0 127.0 L 189.0 126.0 " stroke="black" fill="none" stroke-width="5.0" stroke-linecap="round" stroke-linejoin="round" />
<path d="M 179.0 131.0 L 179.0 132.0 L 179.0 135.0 L 179.0 139.0 L 178.0 149.0 L 175.0 167.0 L 165.0 191.0 L 161.0 198.0 " stroke="black" fill="none" stroke-width="5.0" stroke-linecap="round" stroke-linejoin="round" />
<path d="M 158.0 153.0 L 158.0 153.0 L 159.0 152.0 L 160.0 153.0 L 164.0 163.0 L 174.0 185.0 L 187.0 205.0 L 190.0 208.0 " stroke="black" fill="none" stroke-width="5.0" stroke-linecap="round" stroke-linejoin="round" />
</svg>