<svg xmlns="http://www.w3.org/2000/svg" width="300" height="300" viewBox="0 0 300 300">
<path d="M 126.0 116.0 L 126.0 116.0 L 126.0 116.0 L 125.0 117.0 L 124.0 118.0 L 124.0 123.0 L 124.0 132.0 L 124.0 147.0 L 123.0 163.0 L 122.0 174.0 L 122.0 179.0 L 124.0 179.0 L 124.0 178.0 " stroke="black" fill="none" stroke-width="5.0" stroke-linecap="round" stroke-linejoin="round" />
<path d="M 129.0 115.0 L 129.0 115.0 L 130.0 115.0 L 131.0 115.0 L 134.0 116.0 L 140.0 116.0 L 148.0 116.0 L 156.0 116.0 L 162.0 116.0 L 167.0 116.0 L 170.0 118.0 L 172.0 121.0 L 174.0 127.0 L 176.0 139.0 L 179.0 155.0 L 181.0 170.0 L 182.0 181.0 L 182.0 187.0 L 182.0 189.0 L 182.0 189.0 " stroke="black" fill="none" stroke-width="5.0" stroke-linecap="round" stroke-linejoin="round" />
<path d="M 131.0 147.0 L 131.0 147.0 L 132.0 147.0 L 134.0 147.0 L 138.0 147.0 L 146.0 148.0 L 155.0 148.0 L 164.0 149.0 L 170.0 151.0 L 170.0 151.0 " stroke="black" fill="none" stroke-width="5.0" stroke-linecap="round" stroke-linejoin="round" />
<path d="M 119.0 183.0 L 120.0 184.0 L 121.0 184.0 L 123.0 185.0 L 129.0 187.0 L 142.0 187.0 L 157.0 188.0 L 168.0 188.0 L 173.0 188.0 L 173.0 188.0 " stroke="black" fill="none" stroke-width="5.0" stroke-linecap="round" stroke-linejoin="round" />
</svg>