<svg xmlns="http://www.w3.org/2000/svg" width="300" height="300" viewBox="0 0 300 300">
<path d="M 130.0 105.0 L 130.0 105.0 L 130.0 105.0 L 131.0 105.0 L 131.0 105.0 L 131.0 108.0 L 132.0 115.0 L 133.0 126.0 L 135.0 134.0 " stroke="black" fill="none" stroke-width="5.0" stroke-linecap="round" stroke-linejoin="round" />
<path d="M 130.0 105.0 L 130.0 104.0 L 130.0 104.0 L 130.0 104.0 L 132.0 104.0 L 138.0 104.0 L 145.0 104.0 L 153.0 105.0 L 158.0 105.0 L 163.0 105.0 L 166.0 109.0 L 168.0 116.0 L 169.0 127.0 L 169.0 137.0 L 169.0 143.0 L 169.0 144.0 " stroke="black" fill="none" stroke-width="5.0" stroke-linecap="round" stroke-linejoin="round" />
<path d="M 137.0 122.0 L 136.0 122.0 L 136.0 123.0 L 137.0 123.0 L 142.0 123.0 L 149.0 123.0 L 158.0 123.0 L 164.0 124.0 L 166.0 124.0 " stroke="black" fill="none" stroke-width="5.0" stroke-linecap="round" stroke-linejoin="round" />
<path d="M 135.0 140.0 L 135.0 140.0 L 135.0 140.0 L 137.0 141.0 L 141.0 142.0 L 151.0 142.0 L 162.0 142.0 L 164.0 143.0 " stroke="black" fill="none" stroke-width="5.0" stroke-linecap="round" stroke-linejoin="round" />
<path d="M 108.0 161.0 L 110.0 162.0 L 112.0 163.0 L 119.0 163.0 L 135.0 163.0 L 155.0 162.0 L 174.0 161.0 L 186.0 162.0 L 190.0 163.0 " stroke="black" fill="none" stroke-width="5.0" stroke-linecap="round" stroke-linejoin="round" />
<path d="M 150.0 142.0 L 150.0 141.0 L 150.0 140.0 L 150.0 140.0 L 151.0 144.0 L 154.0 156.0 L 156.0 175.0 L 157.0 193.0 L 157.0 204.0 " stroke="black" fill="none" stroke-width="5.0" stroke-linecap="round" stroke-linejoin="round" />
</svg>