<svg xmlns="http://www.w3.org/2000/svg" width="300" height="300" viewBox="0 0 300 300">
<path d="M 125.00000000000001 125.71428571428574 L 125.00000000000001 125.71428571428574 L 125.00000000000001 125.71428571428574 L 125.00000000000001 125.71428571428574 L 125.00000000000001 126.42857142857146 L 125.00000000000001 130.00000000000006 L 125.00000000000001 137.14285714285717 L 123.5714285714286 147.8571428571429 L 123.5714285714286 157.8571428571429 L 123.5714285714286 162.8571428571429 L 125.00000000000001 162.8571428571429 L 129.28571428571433 161.42857142857144 L 134.28571428571433 157.14285714285717 L 137.8571428571429 153.5714285714286 " stroke="black" fill="none" stroke-width="5.0" stroke-linecap="round" stroke-linejoin="round" />
<path d="M 139.28571428571433 115.71428571428574 L 139.28571428571433 115.71428571428574 L 138.5714285714286 117.14285714285718 L 138.5714285714286 120.00000000000001 L 138.5714285714286 127.85714285714288 L 139.28571428571433 142.14285714285717 L 140.00000000000006 158.5714285714286 L 140.00000000000006 174.28571428571433 L 140.00000000000006 185.71428571428578 L 140.00000000000006 187.8571428571429 " stroke="black" fill="none" stroke-width="5.0" stroke-linecap="round" stroke-linejoin="round" />
<path d="M 159.28571428571433 109.28571428571432 L 159.28571428571433 109.28571428571432 L 158.5714285714286 110.00000000000001 L 157.8571428571429 112.14285714285718 L 157.14285714285717 117.14285714285718 L 155.00000000000006 126.42857142857146 L 152.14285714285717 139.28571428571433 L 150.00000000000006 143.5714285714286 " stroke="black" fill="none" stroke-width="5.0" stroke-linecap="round" stroke-linejoin="round" />
<path d="M 156.42857142857144 125.00000000000001 L 157.14285714285717 125.00000000000001 L 157.8571428571429 124.28571428571432 L 162.14285714285717 122.85714285714288 L 169.28571428571433 121.42857142857146 L 175.00000000000006 121.42857142857146 L 177.8571428571429 120.71428571428574 " stroke="black" fill="none" stroke-width="5.0" stroke-linecap="round" stroke-linejoin="round" />
<path d="M 175.00000000000006 122.85714285714288 L 175.00000000000006 123.5714285714286 L 174.28571428571433 125.71428571428574 L 173.5714285714286 129.28571428571433 L 172.8571428571429 137.8571428571429 L 170.71428571428572 150.00000000000006 L 166.42857142857144 162.8571428571429 L 161.42857142857144 172.8571428571429 L 158.5714285714286 177.14285714285717 " stroke="black" fill="none" stroke-width="5.0" stroke-linecap="round" stroke-linejoin="round" />
<path d="M 155.00000000000006 137.14285714285717 L 155.00000000000006 137.14285714285717 L 155.71428571428572 137.14285714285717 L 157.14285714285717 139.28571428571433 L 162.14285714285717 148.5714285714286 L 171.42857142857144 162.8571428571429 L 181.42857142857144 175.00000000000006 L 187.8571428571429 182.14285714285717 L 192.14285714285722 185.71428571428578 L 192.8571428571429 187.14285714285717 " stroke="black" fill="none" stroke-width="5.0" stroke-linecap="round" stroke-linejoin="round" />
</svg>