<svg xmlns="http://www.w3.org/2000/svg" width="300" height="300" viewBox="0 0 300 300">
<path d="M 143.5714285714286 105.71428571428574 L 143.5714285714286 105.71428571428574 L 143.5714285714286 105.71428571428574 L 142.8571428571429 105.71428571428574 L 142.8571428571429 105.71428571428574 L 145.71428571428572 109.28571428571432 L 151.42857142857144 115.71428571428574 L 156.42857142857144 120.71428571428574 " stroke="black" fill="none" stroke-width="5.0" stroke-linecap="round" stroke-linejoin="round" />
<path d="M 132.14285714285717 130.00000000000006 L 132.14285714285717 130.71428571428572 L 132.14285714285717 130.71428571428572 L 133.5714285714286 130.71428571428572 L 137.8571428571429 130.00000000000006 L 147.8571428571429 127.85714285714288 L 159.28571428571433 125.71428571428574 L 170.71428571428572 124.28571428571432 L 172.8571428571429 124.28571428571432 " stroke="black" fill="none" stroke-width="5.0" stroke-linecap="round" stroke-linejoin="round" />
<path d="M 167.8571428571429 127.14285714285718 L 167.8571428571429 127.14285714285718 L 168.5714285714286 127.14285714285718 L 168.5714285714286 129.28571428571433 L 166.42857142857144 135.71428571428572 L 162.14285714285717 148.5714285714286 L 155.00000000000006 165.00000000000006 L 147.8571428571429 179.28571428571433 L 143.5714285714286 185.71428571428578 " stroke="black" fill="none" stroke-width="5.0" stroke-linecap="round" stroke-linejoin="round" />
<path d="M 137.8571428571429 145.00000000000006 L 137.8571428571429 145.00000000000006 L 137.8571428571429 145.00000000000006 L 138.5714285714286 145.00000000000006 L 140.00000000000006 147.14285714285717 L 148.5714285714286 155.71428571428572 L 164.28571428571433 172.14285714285717 L 178.5714285714286 185.71428571428578 L 186.42857142857144 193.5714285714286 " stroke="black" fill="none" stroke-width="5.0" stroke-linecap="round" stroke-linejoin="round" />
</svg>