<svg xmlns="http://www.w3.org/2000/svg" width="300" height="300" viewBox="0 0 300 300">
<path d="M 112.0 139.0 L 112.0 138.0 L 112.0 138.0 L 112.0 137.0 L 113.0 137.0 L 115.0 137.0 L 122.0 137.0 L 133.0 137.0 L 141.0 136.0 " stroke="black" fill="none" stroke-width="5.0" stroke-linecap="round" stroke-linejoin="round" />
<path d="M 127.0 122.0 L 127.0 123.0 L 127.0 126.0 L 127.0 129.0 L 126.0 135.0 L 124.0 146.0 L 122.0 159.0 " stroke="black" fill="none" stroke-width="5.0" stroke-linecap="round" stroke-linejoin="round" />
<path d="M 110.0 165.0 L 110.0 167.0 L 110.0 168.0 L 110.0 172.0 L 110.0 179.0 L 111.0 185.0 L 113.0 189.0 L 113.0 189.0 " stroke="black" fill="none" stroke-width="5.0" stroke-linecap="round" stroke-linejoin="round" />
<path d="M 111.0 164.0 L 111.0 164.0 L 111.0 165.0 L 111.0 165.0 L 114.0 165.0 L 120.0 164.0 L 128.0 164.0 L 135.0 164.0 L 140.0 169.0 L 143.0 177.0 L 143.0 185.0 L 144.0 189.0 L 144.0 190.0 " stroke="black" fill="none" stroke-width="5.0" stroke-linecap="round" stroke-linejoin="round" />
<path d="M 115.0 189.0 L 116.0 189.0 L 117.0 189.0 L 122.0 190.0 L 133.0 190.0 L 136.0 190.0 " stroke="black" fill="none" stroke-width="5.0" stroke-linecap="round" stroke-linejoin="round" />
<path d="M 157.0 119.0 L 157.0 119.0 L 157.0 119.0 L 157.0 119.0 L 157.0 122.0 L 156.0 134.0 L 151.0 153.0 L 148.0 162.0 " stroke="black" fill="none" stroke-width="5.0" stroke-linecap="round" stroke-linejoin="round" />
<path d="M 158.0 138.0 L 158.0 137.0 L 161.0 136.0 L 167.0 135.0 L 175.0 135.0 L 182.0 135.0 L 183.0 135.0 " stroke="black" fill="none" stroke-width="5.0" stroke-linecap="round" stroke-linejoin="round" />
<path d="M 175.0 145.0 L 174.0 147.0 L 173.0 149.0 L 173.0 153.0 L 171.0 161.0 L 167.0 174.0 L 162.0 187.0 L 159.0 194.0 L 157.0 196.0 " stroke="black" fill="none" stroke-width="5.0" stroke-linecap="round" stroke-linejoin="round" />
<path d="M 156.0 154.0 L 156.0 154.0 L 157.0 154.0 L 159.0 156.0 L 168.0 167.0 L 182.0 185.0 L 190.0 199.0 L 194.0 207.0 " stroke="black" fill="none" stroke-width="5.0" stroke-linecap="round" stroke-linejoin="round" />
</svg>