<svg xmlns="http://www.w3.org/2000/svg" width="300" height="300" viewBox="0 0 300 300">
<path d="M 144.0 114.0 L 144.0 114.0 L 144.0 115.0 L 144.0 116.0 L 146.0 120.0 L 151.0 126.0 L 153.0 129.0 " stroke="black" fill="none" stroke-width="5.0" stroke-linecap="round" stroke-linejoin="round" />
<path d="M 123.0 139.0 L 123.0 139.0 L 123.0 139.0 L 124.0 139.0 L 129.0 139.0 L 145.0 136.0 L 165.0 133.0 L 175.0 132.0 L 176.0 132.0 " stroke="black" fill="none" stroke-width="5.0" stroke-linecap="round" stroke-linejoin="round" />
<path d="M 143.0 146.0 L 143.0 146.0 L 143.0 146.0 L 142.0 149.0 L 139.0 158.0 L 135.0 175.0 L 131.0 191.0 L 130.0 198.0 L 130.0 198.0 " stroke="black" fill="none" stroke-width="5.0" stroke-linecap="round" stroke-linejoin="round" />
<path d="M 142.0 160.0 L 145.0 159.0 L 148.0 157.0 L 152.0 157.0 L 157.0 156.0 L 163.0 156.0 L 168.0 156.0 L 172.0 156.0 L 177.0 156.0 L 181.0 162.0 L 184.0 174.0 L 186.0 188.0 L 189.0 199.0 L 189.0 203.0 L 189.0 204.0 L 184.0 204.0 L 173.0 204.0 L 166.0 203.0 " stroke="black" fill="none" stroke-width="5.0" stroke-linecap="round" stroke-linejoin="round" />
</svg>