<svg xmlns="http://www.w3.org/2000/svg" width="300" height="300" viewBox="0 0 300 300">
<path d="M 123.0 117.0 L 123.0 118.0 L 123.0 119.0 L 123.0 120.0 L 122.0 125.0 L 122.0 139.0 L 121.0 158.0 L 121.0 171.0 L 121.0 175.0 L 122.0 174.0 " stroke="black" fill="none" stroke-width="5.0" stroke-linecap="round" stroke-linejoin="round" />
<path d="M 138.0 121.0 L 138.0 122.0 L 138.0 125.0 L 138.0 130.0 L 138.0 141.0 L 139.0 155.0 L 140.0 168.0 L 141.0 174.0 " stroke="black" fill="none" stroke-width="5.0" stroke-linecap="round" stroke-linejoin="round" />
<path d="M 114.0 141.0 L 114.0 141.0 L 115.0 140.0 L 119.0 140.0 L 129.0 139.0 L 140.0 139.0 L 147.0 139.0 " stroke="black" fill="none" stroke-width="5.0" stroke-linecap="round" stroke-linejoin="round" />
<path d="M 123.0 150.0 L 126.0 150.0 L 129.0 150.0 L 133.0 150.0 L 138.0 150.0 L 142.0 150.0 " stroke="black" fill="none" stroke-width="5.0" stroke-linecap="round" stroke-linejoin="round" />
<path d="M 119.0 162.0 L 120.0 162.0 L 123.0 163.0 L 128.0 163.0 L 136.0 163.0 L 142.0 163.0 " stroke="black" fill="none" stroke-width="5.0" stroke-linecap="round" stroke-linejoin="round" />
<path d="M 101.0 184.0 L 102.0 184.0 L 106.0 184.0 L 113.0 184.0 L 128.0 183.0 L 144.0 180.0 L 153.0 179.0 L 155.0 179.0 " stroke="black" fill="none" stroke-width="5.0" stroke-linecap="round" stroke-linejoin="round" />
<path d="M 122.0 184.0 L 122.0 184.0 L 122.0 184.0 L 122.0 184.0 L 122.0 186.0 L 121.0 192.0 L 120.0 198.0 L 120.0 200.0 " stroke="black" fill="none" stroke-width="5.0" stroke-linecap="round" stroke-linejoin="round" />
<path d="M 141.0 188.0 L 141.0 187.0 L 142.0 187.0 L 145.0 189.0 L 149.0 193.0 L 151.0 194.0 " stroke="black" fill="none" stroke-width="5.0" stroke-linecap="round" stroke-linejoin="round" />
<path d="M 171.0 119.0 L 171.0 119.0 L 171.0 119.0 L 171.0 119.0 L 170.0 120.0 L 169.0 122.0 L 166.0 125.0 L 162.0 128.0 L 158.0 130.0 L 156.0 132.0 L 155.0 133.0 L 154.0 135.0 L 154.0 141.0 L 154.0 150.0 L 154.0 164.0 L 154.0 180.0 L 154.0 192.0 L 154.0 197.0 " stroke="black" fill="none" stroke-width="5.0" stroke-linecap="round" stroke-linejoin="round" />
<path d="M 157.0 147.0 L 157.0 147.0 L 158.0 146.0 L 159.0 146.0 L 161.0 145.0 L 167.0 145.0 L 177.0 144.0 L 186.0 143.0 L 191.0 143.0 " stroke="black" fill="none" stroke-width="5.0" stroke-linecap="round" stroke-linejoin="round" />
<path d="M 175.0 147.0 L 175.0 148.0 L 174.0 150.0 L 174.0 156.0 L 176.0 169.0 L 181.0 186.0 L 183.0 201.0 L 183.0 208.0 " stroke="black" fill="none" stroke-width="5.0" stroke-linecap="round" stroke-linejoin="round" />
</svg>