<svg xmlns="http://www.w3.org/2000/svg" width="300" height="300" viewBox="0 0 300 300">
<path d="M 121.0 118.0 L 121.0 118.0 L 121.0 118.0 L 121.0 119.0 L 121.0 119.0 L 121.0 119.0 L 124.0 119.0 L 127.0 119.0 L 132.0 118.0 L 136.0 118.0 L 138.0 118.0 L 140.0 118.0 L 141.0 118.0 L 141.0 120.0 L 142.0 126.0 L 142.0 132.0 L 142.0 138.0 L 143.0 142.0 L 143.0 143.0 " stroke="black" fill="none" stroke-width="5.0" stroke-linecap="round" stroke-linejoin="round" />
<path d="M 122.0 133.0 L 122.0 133.0 L 122.0 133.0 L 123.0 133.0 L 125.0 133.0 L 130.0 132.0 L 135.0 132.0 L 137.0 132.0 " stroke="black" fill="none" stroke-width="5.0" stroke-linecap="round" stroke-linejoin="round" />
<path d="M 115.0 148.0 L 116.0 148.0 L 118.0 149.0 L 124.0 148.0 L 132.0 146.0 L 138.0 145.0 " stroke="black" fill="none" stroke-width="5.0" stroke-linecap="round" stroke-linejoin="round" />
<path d="M 120.0 125.0 L 120.0 125.0 L 119.0 125.0 L 119.0 125.0 L 118.0 126.0 L 118.0 131.0 L 117.0 143.0 L 115.0 161.0 L 115.0 176.0 L 115.0 184.0 L 121.0 184.0 L 130.0 181.0 L 139.0 175.0 L 143.0 173.0 " stroke="black" fill="none" stroke-width="5.0" stroke-linecap="round" stroke-linejoin="round" />
<path d="M 141.0 164.0 L 141.0 167.0 L 142.0 171.0 L 144.0 177.0 L 146.0 182.0 " stroke="black" fill="none" stroke-width="5.0" stroke-linecap="round" stroke-linejoin="round" />
<path d="M 155.0 119.0 L 155.0 119.0 L 155.0 119.0 L 156.0 119.0 L 156.0 119.0 L 159.0 119.0 L 164.0 118.0 L 171.0 117.0 L 175.0 117.0 L 176.0 117.0 " stroke="black" fill="none" stroke-width="5.0" stroke-linecap="round" stroke-linejoin="round" />
<path d="M 156.0 126.0 L 156.0 126.0 L 156.0 127.0 L 156.0 127.0 L 156.0 128.0 L 155.0 132.0 L 154.0 139.0 L 153.0 145.0 L 153.0 150.0 L 156.0 151.0 L 164.0 150.0 L 174.0 148.0 L 182.0 146.0 L 183.0 146.0 " stroke="black" fill="none" stroke-width="5.0" stroke-linecap="round" stroke-linejoin="round" />
<path d="M 165.0 126.0 L 165.0 126.0 L 165.0 126.0 L 166.0 125.0 L 166.0 128.0 L 166.0 137.0 L 164.0 151.0 L 161.0 167.0 L 156.0 181.0 L 154.0 185.0 " stroke="black" fill="none" stroke-width="5.0" stroke-linecap="round" stroke-linejoin="round" />
<path d="M 166.0 153.0 L 166.0 152.0 L 166.0 152.0 L 166.0 152.0 L 166.0 152.0 L 167.0 157.0 L 167.0 166.0 L 170.0 178.0 L 174.0 186.0 L 181.0 190.0 L 188.0 191.0 L 193.0 192.0 L 198.0 191.0 L 200.0 189.0 L 201.0 187.0 L 202.0 184.0 L 202.0 179.0 L 202.0 174.0 " stroke="black" fill="none" stroke-width="5.0" stroke-linecap="round" stroke-linejoin="round" />
</svg>