<svg xmlns="http://www.w3.org/2000/svg" width="300" height="300" viewBox="0 0 300 300">
<path d="M 124.0 104.0 L 124.0 104.0 L 124.0 104.0 L 125.0 104.0 L 126.0 106.0 L 130.0 109.0 L 132.0 112.0 " stroke="black" fill="none" stroke-width="5.0" stroke-linecap="round" stroke-linejoin="round" />
<path d="M 109.0 120.0 L 109.0 120.0 L 109.0 120.0 L 110.0 120.0 L 116.0 120.0 L 127.0 120.0 L 138.0 120.0 L 143.0 120.0 L 143.0 120.0 " stroke="black" fill="none" stroke-width="5.0" stroke-linecap="round" stroke-linejoin="round" />
<path d="M 118.0 123.0 L 118.0 123.0 L 118.0 125.0 L 119.0 129.0 L 120.0 135.0 L 122.0 139.0 " stroke="black" fill="none" stroke-width="5.0" stroke-linecap="round" stroke-linejoin="round" />
<path d="M 140.0 120.0 L 140.0 121.0 L 138.0 122.0 L 137.0 126.0 L 136.0 132.0 L 136.0 138.0 L 136.0 140.0 " stroke="black" fill="none" stroke-width="5.0" stroke-linecap="round" stroke-linejoin="round" />
<path d="M 111.0 143.0 L 111.0 143.0 L 111.0 143.0 L 113.0 143.0 L 121.0 143.0 L 132.0 142.0 L 142.0 142.0 L 145.0 142.0 L 145.0 143.0 " stroke="black" fill="none" stroke-width="5.0" stroke-linecap="round" stroke-linejoin="round" />
<path d="M 108.0 163.0 L 108.0 163.0 L 109.0 164.0 L 112.0 164.0 L 120.0 164.0 L 132.0 164.0 L 142.0 164.0 L 145.0 164.0 " stroke="black" fill="none" stroke-width="5.0" stroke-linecap="round" stroke-linejoin="round" />
<path d="M 125.0 145.0 L 125.0 145.0 L 125.0 148.0 L 125.0 154.0 L 126.0 167.0 L 127.0 180.0 L 128.0 189.0 L 128.0 193.0 " stroke="black" fill="none" stroke-width="5.0" stroke-linecap="round" stroke-linejoin="round" />
<path d="M 123.0 171.0 L 123.0 172.0 L 123.0 172.0 L 122.0 173.0 L 119.0 175.0 L 113.0 181.0 L 104.0 189.0 L 99.0 194.0 " stroke="black" fill="none" stroke-width="5.0" stroke-linecap="round" stroke-linejoin="round" />
<path d="M 122.0 174.0 L 122.0 174.0 L 122.0 174.0 L 125.0 177.0 L 133.0 184.0 L 142.0 192.0 L 144.0 194.0 " stroke="black" fill="none" stroke-width="5.0" stroke-linecap="round" stroke-linejoin="round" />
<path d="M 171.0 117.0 L 170.0 118.0 L 169.0 120.0 L 167.0 122.0 L 164.0 124.0 L 161.0 127.0 L 158.0 130.0 L 156.0 131.0 L 155.0 131.0 L 154.0 131.0 L 155.0 133.0 L 155.0 139.0 L 156.0 148.0 L 155.0 162.0 L 154.0 178.0 L 154.0 190.0 L 154.0 194.0 " stroke="black" fill="none" stroke-width="5.0" stroke-linecap="round" stroke-linejoin="round" />
<path d="M 161.0 140.0 L 161.0 140.0 L 161.0 140.0 L 161.0 140.0 L 163.0 140.0 L 170.0 140.0 L 180.0 140.0 L 189.0 140.0 L 192.0 140.0 " stroke="black" fill="none" stroke-width="5.0" stroke-linecap="round" stroke-linejoin="round" />
<path d="M 173.0 142.0 L 173.0 142.0 L 172.0 142.0 L 172.0 142.0 L 172.0 147.0 L 175.0 161.0 L 177.0 184.0 L 178.0 203.0 L 178.0 214.0 L 178.0 216.0 " stroke="black" fill="none" stroke-width="5.0" stroke-linecap="round" stroke-linejoin="round" />
</svg>