<svg xmlns="http://www.w3.org/2000/svg" width="300" height="300" viewBox="0 0 300 300">
<path d="M 118.0 117.0 L 119.0 117.0 L 120.0 118.0 L 122.0 120.0 L 124.0 122.0 L 128.0 126.0 L 129.0 126.0 " stroke="black" fill="none" stroke-width="5.0" stroke-linecap="round" stroke-linejoin="round" />
<path d="M 109.0 138.0 L 110.0 138.0 L 111.0 139.0 L 114.0 139.0 L 120.0 138.0 L 129.0 135.0 L 136.0 134.0 L 141.0 134.0 L 142.0 134.0 L 142.0 134.0 " stroke="black" fill="none" stroke-width="5.0" stroke-linecap="round" stroke-linejoin="round" />
<path d="M 119.0 143.0 L 119.0 143.0 L 119.0 143.0 L 118.0 144.0 L 118.0 148.0 L 118.0 156.0 L 117.0 169.0 L 115.0 181.0 L 114.0 186.0 L 114.0 186.0 " stroke="black" fill="none" stroke-width="5.0" stroke-linecap="round" stroke-linejoin="round" />
<path d="M 122.0 156.0 L 122.0 156.0 L 124.0 156.0 L 125.0 156.0 L 128.0 156.0 L 130.0 156.0 L 133.0 156.0 L 136.0 159.0 L 139.0 163.0 L 143.0 170.0 L 145.0 178.0 L 146.0 185.0 L 147.0 189.0 L 146.0 191.0 L 143.0 191.0 L 138.0 190.0 L 132.0 188.0 " stroke="black" fill="none" stroke-width="5.0" stroke-linecap="round" stroke-linejoin="round" />
<path d="M 162.0 118.0 L 162.0 118.0 L 162.0 118.0 L 162.0 118.0 L 162.0 118.0 L 162.0 118.0 L 160.0 124.0 L 155.0 135.0 L 148.0 145.0 L 147.0 147.0 " stroke="black" fill="none" stroke-width="5.0" stroke-linecap="round" stroke-linejoin="round" />
<path d="M 158.0 131.0 L 158.0 131.0 L 160.0 130.0 L 162.0 130.0 L 166.0 128.0 L 173.0 127.0 L 181.0 126.0 L 186.0 126.0 " stroke="black" fill="none" stroke-width="5.0" stroke-linecap="round" stroke-linejoin="round" />
<path d="M 161.0 146.0 L 161.0 146.0 L 161.0 146.0 L 162.0 146.0 L 166.0 146.0 L 174.0 144.0 L 180.0 144.0 L 183.0 143.0 " stroke="black" fill="none" stroke-width="5.0" stroke-linecap="round" stroke-linejoin="round" />
<path d="M 157.0 158.0 L 158.0 159.0 L 160.0 159.0 L 165.0 159.0 L 171.0 158.0 L 178.0 156.0 L 183.0 155.0 L 185.0 155.0 " stroke="black" fill="none" stroke-width="5.0" stroke-linecap="round" stroke-linejoin="round" />
<path d="M 152.0 173.0 L 153.0 173.0 L 153.0 173.0 L 156.0 173.0 L 164.0 173.0 L 179.0 172.0 L 191.0 170.0 L 194.0 170.0 " stroke="black" fill="none" stroke-width="5.0" stroke-linecap="round" stroke-linejoin="round" />
<path d="M 171.0 152.0 L 171.0 152.0 L 171.0 152.0 L 170.0 153.0 L 170.0 157.0 L 170.0 163.0 L 171.0 175.0 L 174.0 188.0 L 177.0 196.0 L 181.0 199.0 L 185.0 199.0 L 193.0 199.0 L 201.0 199.0 L 208.0 199.0 L 212.0 199.0 L 214.0 199.0 L 214.0 195.0 L 214.0 188.0 L 213.0 186.0 " stroke="black" fill="none" stroke-width="5.0" stroke-linecap="round" stroke-linejoin="round" />
</svg>