<svg xmlns="http://www.w3.org/2000/svg" width="300" height="300" viewBox="0 0 300 300">
<path d="M 117.0 119.0 L 117.0 119.0 L 118.0 119.0 L 118.0 119.0 L 120.0 119.0 L 123.0 119.0 L 130.0 118.0 L 138.0 117.0 L 141.0 117.0 " stroke="black" fill="none" stroke-width="5.0" stroke-linecap="round" stroke-linejoin="round" />
<path d="M 112.0 136.0 L 112.0 136.0 L 112.0 136.0 L 112.0 136.0 L 112.0 138.0 L 112.0 141.0 L 114.0 144.0 " stroke="black" fill="none" stroke-width="5.0" stroke-linecap="round" stroke-linejoin="round" />
<path d="M 114.0 134.0 L 115.0 134.0 L 116.0 133.0 L 118.0 132.0 L 123.0 131.0 L 130.0 131.0 L 136.0 131.0 L 140.0 132.0 L 140.0 136.0 L 140.0 140.0 L 137.0 144.0 L 136.0 146.0 " stroke="black" fill="none" stroke-width="5.0" stroke-linecap="round" stroke-linejoin="round" />
<path d="M 112.0 152.0 L 112.0 152.0 L 113.0 151.0 L 115.0 151.0 L 121.0 151.0 L 130.0 151.0 L 138.0 151.0 L 139.0 151.0 " stroke="black" fill="none" stroke-width="5.0" stroke-linecap="round" stroke-linejoin="round" />
<path d="M 123.0 103.0 L 123.0 102.0 L 123.0 102.0 L 123.0 105.0 L 123.0 118.0 L 126.0 142.0 L 128.0 165.0 L 129.0 181.0 L 130.0 189.0 L 130.0 191.0 " stroke="black" fill="none" stroke-width="5.0" stroke-linecap="round" stroke-linejoin="round" />
<path d="M 129.0 155.0 L 129.0 155.0 L 128.0 155.0 L 126.0 155.0 L 124.0 159.0 L 118.0 168.0 L 110.0 180.0 L 105.0 186.0 L 104.0 187.0 " stroke="black" fill="none" stroke-width="5.0" stroke-linecap="round" stroke-linejoin="round" />
<path d="M 124.0 162.0 L 124.0 162.0 L 126.0 164.0 L 132.0 167.0 L 141.0 172.0 L 148.0 176.0 " stroke="black" fill="none" stroke-width="5.0" stroke-linecap="round" stroke-linejoin="round" />
<path d="M 158.0 108.0 L 158.0 108.0 L 158.0 108.0 L 158.0 108.0 L 158.0 109.0 L 156.0 118.0 L 152.0 130.0 L 147.0 141.0 L 146.0 143.0 " stroke="black" fill="none" stroke-width="5.0" stroke-linecap="round" stroke-linejoin="round" />
<path d="M 155.0 122.0 L 156.0 122.0 L 157.0 122.0 L 161.0 122.0 L 168.0 122.0 L 174.0 122.0 L 175.0 122.0 " stroke="black" fill="none" stroke-width="5.0" stroke-linecap="round" stroke-linejoin="round" />
<path d="M 168.0 128.0 L 168.0 130.0 L 167.0 134.0 L 167.0 141.0 L 167.0 153.0 L 165.0 166.0 L 161.0 180.0 L 156.0 190.0 L 155.0 192.0 " stroke="black" fill="none" stroke-width="5.0" stroke-linecap="round" stroke-linejoin="round" />
<path d="M 151.0 144.0 L 151.0 144.0 L 152.0 144.0 L 152.0 144.0 L 157.0 153.0 L 168.0 171.0 L 180.0 189.0 L 185.0 199.0 L 188.0 203.0 " stroke="black" fill="none" stroke-width="5.0" stroke-linecap="round" stroke-linejoin="round" />
</svg>