<svg xmlns="http://www.w3.org/2000/svg" width="300" height="300" viewBox="0 0 300 300">
<path d="M 128.0 112.0 L 128.0 112.0 L 128.0 112.0 L 128.0 112.0 L 128.0 115.0 L 130.0 118.0 L 132.0 120.0 " stroke="black" fill="none" stroke-width="5.0" stroke-linecap="round" stroke-linejoin="round" />
<path d="M 113.0 126.0 L 113.0 126.0 L 113.0 127.0 L 115.0 127.0 L 121.0 127.0 L 131.0 127.0 L 141.0 126.0 " stroke="black" fill="none" stroke-width="5.0" stroke-linecap="round" stroke-linejoin="round" />
<path d="M 122.0 132.0 L 122.0 132.0 L 122.0 133.0 L 122.0 133.0 L 120.0 136.0 L 116.0 140.0 L 114.0 143.0 " stroke="black" fill="none" stroke-width="5.0" stroke-linecap="round" stroke-linejoin="round" />
<path d="M 135.0 135.0 L 135.0 135.0 L 135.0 135.0 L 136.0 136.0 L 140.0 138.0 L 143.0 140.0 " stroke="black" fill="none" stroke-width="5.0" stroke-linecap="round" stroke-linejoin="round" />
<path d="M 138.0 143.0 L 138.0 143.0 L 138.0 143.0 L 138.0 143.0 L 138.0 144.0 L 136.0 153.0 L 128.0 169.0 L 116.0 188.0 L 113.0 191.0 " stroke="black" fill="none" stroke-width="5.0" stroke-linecap="round" stroke-linejoin="round" />
<path d="M 117.0 150.0 L 118.0 150.0 L 121.0 152.0 L 130.0 163.0 L 141.0 180.0 L 148.0 193.0 L 148.0 195.0 " stroke="black" fill="none" stroke-width="5.0" stroke-linecap="round" stroke-linejoin="round" />
<path d="M 158.0 116.0 L 159.0 116.0 L 159.0 116.0 L 160.0 116.0 L 160.0 116.0 L 159.0 121.0 L 155.0 130.0 L 151.0 142.0 " stroke="black" fill="none" stroke-width="5.0" stroke-linecap="round" stroke-linejoin="round" />
<path d="M 157.0 130.0 L 157.0 130.0 L 157.0 130.0 L 157.0 130.0 L 159.0 130.0 L 166.0 130.0 L 175.0 130.0 L 177.0 130.0 " stroke="black" fill="none" stroke-width="5.0" stroke-linecap="round" stroke-linejoin="round" />
<path d="M 170.0 135.0 L 170.0 135.0 L 170.0 135.0 L 170.0 135.0 L 170.0 135.0 L 170.0 144.0 L 169.0 161.0 L 165.0 181.0 L 160.0 193.0 " stroke="black" fill="none" stroke-width="5.0" stroke-linecap="round" stroke-linejoin="round" />
<path d="M 154.0 144.0 L 154.0 144.0 L 155.0 145.0 L 159.0 151.0 L 168.0 166.0 L 177.0 182.0 L 182.0 193.0 L 184.0 198.0 " stroke="black" fill="none" stroke-width="5.0" stroke-linecap="round" stroke-linejoin="round" />
</svg>