<svg xmlns="http://www.w3.org/2000/svg" width="300" height="300" viewBox="0 0 300 300">
<path d="M 140.0 100.0 L 140.0 100.0 L 140.0 100.0 L 140.0 100.0 L 140.0 100.0 L 141.0 103.0 L 144.0 108.0 L 146.0 112.0 " stroke="black" fill="none" stroke-width="5.0" stroke-linecap="round" stroke-linejoin="round" />
<path d="M 168.0 101.0 L 168.0 101.0 L 168.0 100.0 L 168.0 100.0 L 167.0 103.0 L 164.0 108.0 L 163.0 109.0 " stroke="black" fill="none" stroke-width="5.0" stroke-linecap="round" stroke-linejoin="round" />
<path d="M 125.0 123.0 L 125.0 125.0 L 125.0 129.0 L 125.0 133.0 L 125.0 138.0 L 127.0 141.0 L 127.0 142.0 " stroke="black" fill="none" stroke-width="5.0" stroke-linecap="round" stroke-linejoin="round" />
<path d="M 125.0 124.0 L 126.0 124.0 L 126.0 124.0 L 128.0 124.0 L 135.0 124.0 L 148.0 123.0 L 160.0 122.0 L 173.0 121.0 L 182.0 121.0 L 188.0 121.0 L 190.0 122.0 L 190.0 125.0 L 190.0 131.0 L 189.0 137.0 L 188.0 144.0 L 187.0 147.0 " stroke="black" fill="none" stroke-width="5.0" stroke-linecap="round" stroke-linejoin="round" />
<path d="M 139.0 131.0 L 139.0 131.0 L 139.0 131.0 L 140.0 131.0 L 141.0 132.0 L 143.0 134.0 L 144.0 136.0 " stroke="black" fill="none" stroke-width="5.0" stroke-linecap="round" stroke-linejoin="round" />
<path d="M 176.0 131.0 L 176.0 131.0 L 176.0 131.0 L 175.0 132.0 L 174.0 133.0 L 172.0 136.0 L 170.0 138.0 " stroke="black" fill="none" stroke-width="5.0" stroke-linecap="round" stroke-linejoin="round" />
<path d="M 134.0 145.0 L 134.0 145.0 L 135.0 145.0 L 141.0 145.0 L 151.0 145.0 L 163.0 145.0 L 174.0 145.0 L 177.0 145.0 " stroke="black" fill="none" stroke-width="5.0" stroke-linecap="round" stroke-linejoin="round" />
<path d="M 156.0 126.0 L 156.0 126.0 L 156.0 126.0 L 156.0 128.0 L 157.0 132.0 L 158.0 139.0 " stroke="black" fill="none" stroke-width="5.0" stroke-linecap="round" stroke-linejoin="round" />
<path d="M 135.0 158.0 L 135.0 158.0 L 136.0 159.0 L 138.0 159.0 L 142.0 160.0 L 150.0 160.0 L 157.0 160.0 L 165.0 160.0 L 170.0 160.0 L 173.0 160.0 L 174.0 160.0 L 174.0 160.0 L 174.0 162.0 L 176.0 168.0 L 178.0 178.0 L 180.0 187.0 L 182.0 194.0 L 183.0 197.0 L 183.0 197.0 " stroke="black" fill="none" stroke-width="5.0" stroke-linecap="round" stroke-linejoin="round" />
<path d="M 134.0 158.0 L 134.0 158.0 L 133.0 159.0 L 133.0 162.0 L 133.0 171.0 L 134.0 183.0 L 135.0 190.0 " stroke="black" fill="none" stroke-width="5.0" stroke-linecap="round" stroke-linejoin="round" />
<path d="M 139.0 176.0 L 141.0 177.0 L 144.0 178.0 L 150.0 179.0 L 159.0 179.0 L 168.0 180.0 L 174.0 180.0 L 176.0 182.0 L 176.0 182.0 " stroke="black" fill="none" stroke-width="5.0" stroke-linecap="round" stroke-linejoin="round" />
<path d="M 140.0 197.0 L 141.0 197.0 L 143.0 198.0 L 148.0 199.0 L 157.0 199.0 L 167.0 199.0 L 174.0 200.0 " stroke="black" fill="none" stroke-width="5.0" stroke-linecap="round" stroke-linejoin="round" />
</svg>