<svg xmlns="http://www.w3.org/2000/svg" width="300" height="300" viewBox="0 0 300 300">
<path d="M 112.0 125.0 L 112.0 126.0 L 112.0 127.0 L 112.0 129.0 L 112.0 133.0 L 112.0 144.0 L 111.0 155.0 L 111.0 163.0 L 111.0 165.0 " stroke="black" fill="none" stroke-width="5.0" stroke-linecap="round" stroke-linejoin="round" />
<path d="M 112.0 129.0 L 112.0 129.0 L 112.0 129.0 L 113.0 129.0 L 113.0 129.0 L 116.0 129.0 L 121.0 129.0 L 127.0 129.0 L 131.0 129.0 L 134.0 132.0 L 135.0 139.0 L 136.0 150.0 L 138.0 159.0 L 139.0 165.0 L 140.0 167.0 " stroke="black" fill="none" stroke-width="5.0" stroke-linecap="round" stroke-linejoin="round" />
<path d="M 112.0 149.0 L 112.0 149.0 L 112.0 149.0 L 112.0 149.0 L 115.0 149.0 L 121.0 149.0 L 128.0 149.0 L 135.0 150.0 " stroke="black" fill="none" stroke-width="5.0" stroke-linecap="round" stroke-linejoin="round" />
<path d="M 112.0 169.0 L 113.0 169.0 L 115.0 170.0 L 119.0 170.0 L 129.0 171.0 L 133.0 171.0 " stroke="black" fill="none" stroke-width="5.0" stroke-linecap="round" stroke-linejoin="round" />
<path d="M 153.0 113.0 L 154.0 113.0 L 154.0 113.0 L 157.0 113.0 L 161.0 113.0 L 167.0 113.0 L 172.0 113.0 L 176.0 113.0 L 178.0 113.0 L 178.0 114.0 L 179.0 119.0 L 180.0 125.0 L 181.0 133.0 L 182.0 138.0 L 182.0 140.0 L 182.0 140.0 L 181.0 140.0 L 175.0 139.0 L 167.0 139.0 " stroke="black" fill="none" stroke-width="5.0" stroke-linecap="round" stroke-linejoin="round" />
<path d="M 163.0 118.0 L 163.0 118.0 L 163.0 118.0 L 162.0 119.0 L 160.0 126.0 L 156.0 138.0 L 154.0 144.0 " stroke="black" fill="none" stroke-width="5.0" stroke-linecap="round" stroke-linejoin="round" />
<path d="M 154.0 157.0 L 154.0 157.0 L 154.0 157.0 L 154.0 158.0 L 154.0 165.0 L 154.0 174.0 L 155.0 182.0 L 155.0 183.0 " stroke="black" fill="none" stroke-width="5.0" stroke-linecap="round" stroke-linejoin="round" />
<path d="M 154.0 156.0 L 155.0 156.0 L 155.0 156.0 L 155.0 156.0 L 158.0 156.0 L 165.0 156.0 L 175.0 156.0 L 184.0 156.0 L 190.0 157.0 L 192.0 159.0 L 193.0 164.0 L 193.0 173.0 L 193.0 183.0 L 193.0 191.0 L 193.0 194.0 L 193.0 195.0 " stroke="black" fill="none" stroke-width="5.0" stroke-linecap="round" stroke-linejoin="round" />
<path d="M 155.0 191.0 L 155.0 191.0 L 155.0 192.0 L 155.0 192.0 L 160.0 193.0 L 174.0 194.0 L 189.0 194.0 L 198.0 194.0 " stroke="black" fill="none" stroke-width="5.0" stroke-linecap="round" stroke-linejoin="round" />
</svg>