<svg xmlns="http://www.w3.org/2000/svg" width="300" height="300" viewBox="0 0 300 300">
<path d="M 135.71428571428572 108.5714285714286 L 135.71428571428572 108.5714285714286 L 136.42857142857144 107.85714285714288 L 136.42857142857144 107.85714285714288 L 136.42857142857144 107.85714285714288 L 136.42857142857144 107.85714285714288 L 137.14285714285717 110.00000000000001 L 137.14285714285717 115.00000000000001 L 137.14285714285717 119.28571428571432 L 137.8571428571429 120.71428571428574 " stroke="black" fill="none" stroke-width="5.0" stroke-linecap="round" stroke-linejoin="round" />
<path d="M 137.8571428571429 110.00000000000001 L 137.8571428571429 110.00000000000001 L 138.5714285714286 109.28571428571432 L 138.5714285714286 108.5714285714286 L 140.00000000000006 107.85714285714288 L 142.14285714285717 107.14285714285715 L 147.14285714285717 107.14285714285715 L 153.5714285714286 105.71428571428574 L 160.71428571428572 105.00000000000001 L 166.42857142857144 104.28571428571432 L 170.71428571428572 104.28571428571432 L 172.14285714285717 106.42857142857146 L 172.14285714285717 110.00000000000001 L 172.14285714285717 115.00000000000001 L 172.14285714285717 119.28571428571432 L 172.14285714285717 121.42857142857146 " stroke="black" fill="none" stroke-width="5.0" stroke-linecap="round" stroke-linejoin="round" />
<path d="M 142.14285714285717 117.14285714285718 L 142.14285714285717 117.14285714285718 L 142.14285714285717 116.42857142857146 L 143.5714285714286 116.42857142857146 L 147.8571428571429 115.71428571428574 L 155.00000000000006 115.00000000000001 L 163.5714285714286 115.00000000000001 L 169.28571428571433 115.00000000000001 L 170.00000000000006 115.00000000000001 " stroke="black" fill="none" stroke-width="5.0" stroke-linecap="round" stroke-linejoin="round" />
<path d="M 140.00000000000006 127.14285714285718 L 140.00000000000006 127.14285714285718 L 140.00000000000006 127.14285714285718 L 142.8571428571429 127.14285714285718 L 148.5714285714286 127.14285714285718 L 157.14285714285717 125.71428571428574 L 164.28571428571433 125.00000000000001 L 165.71428571428572 125.00000000000001 " stroke="black" fill="none" stroke-width="5.0" stroke-linecap="round" stroke-linejoin="round" />
<path d="M 133.5714285714286 143.5714285714286 L 134.28571428571433 143.5714285714286 L 135.00000000000006 143.5714285714286 L 137.14285714285717 143.5714285714286 L 142.8571428571429 142.8571428571429 L 151.42857142857144 141.42857142857144 L 161.42857142857144 139.28571428571433 L 171.42857142857144 136.42857142857144 L 172.8571428571429 135.71428571428572 " stroke="black" fill="none" stroke-width="5.0" stroke-linecap="round" stroke-linejoin="round" />
<path d="M 137.8571428571429 145.71428571428572 L 137.8571428571429 145.71428571428572 L 137.14285714285717 145.71428571428572 L 136.42857142857144 147.14285714285717 L 135.71428571428572 150.71428571428572 L 133.5714285714286 160.00000000000006 L 130.00000000000006 173.5714285714286 L 125.00000000000001 186.42857142857144 L 123.5714285714286 192.14285714285722 L 123.5714285714286 192.14285714285722 " stroke="black" fill="none" stroke-width="5.0" stroke-linecap="round" stroke-linejoin="round" />
<path d="M 150.71428571428572 151.42857142857144 L 150.71428571428572 151.42857142857144 L 150.71428571428572 150.00000000000006 L 150.71428571428572 150.00000000000006 L 150.71428571428572 150.71428571428572 L 150.71428571428572 157.14285714285717 L 148.5714285714286 167.8571428571429 L 145.00000000000006 181.42857142857144 L 143.5714285714286 186.42857142857144 " stroke="black" fill="none" stroke-width="5.0" stroke-linecap="round" stroke-linejoin="round" />
<path d="M 149.28571428571433 168.5714285714286 L 150.00000000000006 168.5714285714286 L 150.71428571428572 167.8571428571429 L 152.8571428571429 169.28571428571433 L 160.00000000000006 175.71428571428578 L 170.71428571428572 187.14285714285717 L 177.8571428571429 195.00000000000006 L 179.28571428571433 195.71428571428578 " stroke="black" fill="none" stroke-width="5.0" stroke-linecap="round" stroke-linejoin="round" />
</svg>