<svg xmlns="http://www.w3.org/2000/svg" width="300" height="300" viewBox="0 0 300 300">
<path d="M 129.0 117.0 L 129.0 117.0 L 129.0 117.0 L 129.0 117.0 L 129.0 117.0 L 129.0 117.0 L 129.0 117.0 L 130.0 118.0 L 130.0 121.0 L 130.0 126.0 " stroke="black" fill="none" stroke-width="5.0" stroke-linecap="round" stroke-linejoin="round" />
<path d="M 132.0 113.0 L 132.0 113.0 L 132.0 113.0 L 132.0 113.0 L 134.0 113.0 L 138.0 113.0 L 146.0 112.0 L 154.0 111.0 L 159.0 111.0 L 163.0 113.0 L 165.0 115.0 L 166.0 120.0 L 167.0 126.0 L 168.0 132.0 L 168.0 136.0 " stroke="black" fill="none" stroke-width="5.0" stroke-linecap="round" stroke-linejoin="round" />
<path d="M 136.0 124.0 L 136.0 124.0 L 136.0 124.0 L 136.0 124.0 L 136.0 124.0 L 137.0 123.0 L 142.0 123.0 L 150.0 123.0 L 158.0 123.0 L 163.0 124.0 " stroke="black" fill="none" stroke-width="5.0" stroke-linecap="round" stroke-linejoin="round" />
<path d="M 130.0 136.0 L 130.0 136.0 L 130.0 136.0 L 131.0 136.0 L 137.0 136.0 L 147.0 136.0 L 158.0 136.0 L 164.0 137.0 " stroke="black" fill="none" stroke-width="5.0" stroke-linecap="round" stroke-linejoin="round" />
<path d="M 146.0 144.0 L 146.0 145.0 L 147.0 147.0 L 148.0 149.0 " stroke="black" fill="none" stroke-width="5.0" stroke-linecap="round" stroke-linejoin="round" />
<path d="M 124.0 153.0 L 124.0 153.0 L 124.0 153.0 L 125.0 152.0 L 131.0 151.0 L 144.0 150.0 L 159.0 150.0 L 169.0 152.0 L 171.0 154.0 " stroke="black" fill="none" stroke-width="5.0" stroke-linecap="round" stroke-linejoin="round" />
<path d="M 136.0 161.0 L 136.0 161.0 L 136.0 161.0 L 136.0 163.0 L 137.0 167.0 L 138.0 169.0 " stroke="black" fill="none" stroke-width="5.0" stroke-linecap="round" stroke-linejoin="round" />
<path d="M 137.0 160.0 L 138.0 160.0 L 139.0 161.0 L 143.0 161.0 L 149.0 160.0 L 156.0 160.0 L 161.0 161.0 L 164.0 164.0 L 164.0 168.0 L 164.0 172.0 L 164.0 173.0 " stroke="black" fill="none" stroke-width="5.0" stroke-linecap="round" stroke-linejoin="round" />
<path d="M 138.0 176.0 L 138.0 176.0 L 140.0 176.0 L 142.0 176.0 L 148.0 176.0 L 156.0 174.0 L 163.0 174.0 L 165.0 174.0 " stroke="black" fill="none" stroke-width="5.0" stroke-linecap="round" stroke-linejoin="round" />
<path d="M 149.0 178.0 L 149.0 178.0 L 149.0 178.0 L 149.0 181.0 L 151.0 191.0 L 154.0 204.0 L 155.0 213.0 L 156.0 216.0 L 155.0 215.0 L 154.0 213.0 " stroke="black" fill="none" stroke-width="5.0" stroke-linecap="round" stroke-linejoin="round" />
<path d="M 139.0 186.0 L 139.0 186.0 L 137.0 187.0 L 135.0 190.0 L 131.0 194.0 L 124.0 202.0 L 122.0 204.0 " stroke="black" fill="none" stroke-width="5.0" stroke-linecap="round" stroke-linejoin="round" />
<path d="M 170.0 190.0 L 170.0 191.0 L 172.0 198.0 L 174.0 205.0 L 178.0 213.0 L 179.0 215.0 " stroke="black" fill="none" stroke-width="5.0" stroke-linecap="round" stroke-linejoin="round" />
</svg>