<svg xmlns="http://www.w3.org/2000/svg" width="300" height="300" viewBox="0 0 300 300">
<path d="M 126.0 114.0 L 126.0 114.0 L 125.0 113.0 L 125.0 112.0 L 125.0 112.0 L 125.0 114.0 L 125.0 127.0 L 124.0 149.0 L 123.0 169.0 L 123.0 180.0 L 123.0 181.0 " stroke="black" fill="none" stroke-width="5.0" stroke-linecap="round" stroke-linejoin="round" />
<path d="M 130.0 110.0 L 130.0 110.0 L 130.0 110.0 L 130.0 110.0 L 132.0 110.0 L 139.0 109.0 L 150.0 107.0 L 161.0 107.0 L 170.0 106.0 L 173.0 106.0 L 176.0 108.0 L 178.0 114.0 L 181.0 124.0 L 184.0 140.0 L 188.0 156.0 L 189.0 166.0 L 190.0 172.0 L 190.0 175.0 " stroke="black" fill="none" stroke-width="5.0" stroke-linecap="round" stroke-linejoin="round" />
<path d="M 130.0 145.0 L 130.0 145.0 L 131.0 145.0 L 134.0 145.0 L 144.0 143.0 L 160.0 141.0 L 172.0 140.0 L 179.0 140.0 L 181.0 142.0 " stroke="black" fill="none" stroke-width="5.0" stroke-linecap="round" stroke-linejoin="round" />
<path d="M 119.0 181.0 L 119.0 181.0 L 121.0 181.0 L 125.0 181.0 L 135.0 181.0 L 152.0 181.0 L 171.0 179.0 L 186.0 178.0 L 191.0 177.0 " stroke="black" fill="none" stroke-width="5.0" stroke-linecap="round" stroke-linejoin="round" />
</svg>