<svg xmlns="http://www.w3.org/2000/svg" width="300" height="300" viewBox="0 0 300 300">
<path d="M 132.0 110.0 L 132.0 111.0 L 132.0 111.0 L 132.0 112.0 L 132.0 116.0 L 132.0 125.0 L 133.0 135.0 L 133.0 138.0 " stroke="black" fill="none" stroke-width="5.0" stroke-linecap="round" stroke-linejoin="round" />
<path d="M 134.0 107.0 L 134.0 107.0 L 134.0 107.0 L 136.0 106.0 L 142.0 105.0 L 151.0 104.0 L 161.0 104.0 L 168.0 108.0 L 172.0 114.0 L 173.0 123.0 L 174.0 131.0 L 174.0 136.0 " stroke="black" fill="none" stroke-width="5.0" stroke-linecap="round" stroke-linejoin="round" />
<path d="M 135.0 125.0 L 135.0 125.0 L 135.0 125.0 L 137.0 125.0 L 143.0 125.0 L 155.0 125.0 L 167.0 124.0 L 173.0 124.0 " stroke="black" fill="none" stroke-width="5.0" stroke-linecap="round" stroke-linejoin="round" />
<path d="M 132.0 143.0 L 133.0 143.0 L 135.0 145.0 L 141.0 145.0 L 152.0 144.0 L 164.0 141.0 L 170.0 140.0 " stroke="black" fill="none" stroke-width="5.0" stroke-linecap="round" stroke-linejoin="round" />
<path d="M 137.0 150.0 L 137.0 150.0 L 137.0 150.0 L 136.0 150.0 L 135.0 153.0 L 132.0 161.0 L 126.0 172.0 L 124.0 176.0 " stroke="black" fill="none" stroke-width="5.0" stroke-linecap="round" stroke-linejoin="round" />
<path d="M 137.0 159.0 L 137.0 159.0 L 137.0 159.0 L 138.0 159.0 L 144.0 159.0 L 152.0 157.0 L 162.0 156.0 L 171.0 156.0 L 176.0 156.0 L 180.0 158.0 L 182.0 161.0 L 184.0 166.0 L 187.0 174.0 L 190.0 183.0 L 191.0 191.0 L 192.0 197.0 L 191.0 200.0 L 188.0 203.0 L 183.0 204.0 L 179.0 202.0 " stroke="black" fill="none" stroke-width="5.0" stroke-linecap="round" stroke-linejoin="round" />
<path d="M 150.0 159.0 L 150.0 159.0 L 150.0 159.0 L 150.0 160.0 L 149.0 165.0 L 147.0 175.0 L 144.0 187.0 L 143.0 189.0 " stroke="black" fill="none" stroke-width="5.0" stroke-linecap="round" stroke-linejoin="round" />
<path d="M 167.0 163.0 L 167.0 163.0 L 167.0 164.0 L 167.0 167.0 L 167.0 174.0 L 165.0 187.0 L 161.0 196.0 " stroke="black" fill="none" stroke-width="5.0" stroke-linecap="round" stroke-linejoin="round" />
</svg>