<svg xmlns="http://www.w3.org/2000/svg" width="300" height="300" viewBox="0 0 300 300">
<path d="M 122.0 108.0 L 122.0 108.0 L 123.0 108.0 L 124.0 108.0 L 124.0 109.0 L 124.0 112.0 L 124.0 117.0 L 121.0 124.0 L 118.0 130.0 L 115.0 135.0 L 114.0 136.0 " stroke="black" fill="none" stroke-width="5.0" stroke-linecap="round" stroke-linejoin="round" />
<path d="M 125.0 121.0 L 125.0 121.0 L 125.0 121.0 L 125.0 121.0 L 126.0 121.0 L 130.0 121.0 L 134.0 121.0 L 138.0 121.0 L 141.0 121.0 L 142.0 121.0 " stroke="black" fill="none" stroke-width="5.0" stroke-linecap="round" stroke-linejoin="round" />
<path d="M 111.0 146.0 L 111.0 146.0 L 111.0 146.0 L 113.0 146.0 L 120.0 146.0 L 131.0 144.0 L 140.0 144.0 L 145.0 143.0 L 146.0 143.0 " stroke="black" fill="none" stroke-width="5.0" stroke-linecap="round" stroke-linejoin="round" />
<path d="M 131.0 126.0 L 131.0 127.0 L 131.0 128.0 L 131.0 132.0 L 129.0 141.0 L 126.0 152.0 L 123.0 160.0 L 122.0 163.0 " stroke="black" fill="none" stroke-width="5.0" stroke-linecap="round" stroke-linejoin="round" />
<path d="M 132.0 148.0 L 132.0 148.0 L 132.0 148.0 L 133.0 150.0 L 137.0 153.0 L 141.0 157.0 L 145.0 159.0 " stroke="black" fill="none" stroke-width="5.0" stroke-linecap="round" stroke-linejoin="round" />
<path d="M 154.0 131.0 L 154.0 131.0 L 154.0 132.0 L 154.0 133.0 L 154.0 136.0 L 154.0 140.0 L 155.0 144.0 L 155.0 146.0 " stroke="black" fill="none" stroke-width="5.0" stroke-linecap="round" stroke-linejoin="round" />
<path d="M 155.0 128.0 L 155.0 128.0 L 156.0 128.0 L 157.0 128.0 L 160.0 127.0 L 164.0 127.0 L 167.0 127.0 L 170.0 129.0 L 172.0 132.0 L 173.0 137.0 L 174.0 141.0 L 174.0 144.0 " stroke="black" fill="none" stroke-width="5.0" stroke-linecap="round" stroke-linejoin="round" />
<path d="M 157.0 144.0 L 157.0 144.0 L 157.0 144.0 L 158.0 144.0 L 162.0 144.0 L 168.0 144.0 L 172.0 144.0 " stroke="black" fill="none" stroke-width="5.0" stroke-linecap="round" stroke-linejoin="round" />
<path d="M 131.0 170.0 L 131.0 170.0 L 131.0 170.0 L 132.0 170.0 L 134.0 170.0 L 140.0 170.0 L 148.0 170.0 L 156.0 168.0 L 162.0 167.0 L 164.0 167.0 L 166.0 167.0 L 167.0 169.0 L 168.0 174.0 L 170.0 181.0 L 172.0 189.0 L 174.0 194.0 L 175.0 197.0 L 175.0 198.0 " stroke="black" fill="none" stroke-width="5.0" stroke-linecap="round" stroke-linejoin="round" />
<path d="M 130.0 172.0 L 130.0 173.0 L 130.0 178.0 L 130.0 184.0 L 130.0 191.0 L 131.0 196.0 L 131.0 198.0 " stroke="black" fill="none" stroke-width="5.0" stroke-linecap="round" stroke-linejoin="round" />
<path d="M 134.0 185.0 L 134.0 185.0 L 135.0 185.0 L 138.0 185.0 L 143.0 185.0 L 150.0 185.0 L 158.0 185.0 L 164.0 184.0 L 167.0 184.0 L 166.0 185.0 " stroke="black" fill="none" stroke-width="5.0" stroke-linecap="round" stroke-linejoin="round" />
<path d="M 134.0 200.0 L 135.0 200.0 L 135.0 201.0 L 136.0 202.0 L 142.0 202.0 L 153.0 202.0 L 164.0 201.0 L 172.0 201.0 L 176.0 201.0 L 176.0 201.0 " stroke="black" fill="none" stroke-width="5.0" stroke-linecap="round" stroke-linejoin="round" />
</svg>