<svg xmlns="http://www.w3.org/2000/svg" width="300" height="300" viewBox="0 0 300 300">
<path d="M 128.0 105.0 L 129.0 105.0 L 130.0 105.0 L 133.0 105.0 L 139.0 104.0 L 149.0 104.0 L 159.0 104.0 L 167.0 104.0 L 170.0 104.0 L 171.0 104.0 L 170.0 104.0 " stroke="black" fill="none" stroke-width="5.0" stroke-linecap="round" stroke-linejoin="round" />
<path d="M 124.0 120.0 L 124.0 120.0 L 124.0 121.0 L 125.0 123.0 L 125.0 125.0 L 126.0 129.0 L 127.0 133.0 L 127.0 137.0 L 127.0 138.0 L 127.0 139.0 " stroke="black" fill="none" stroke-width="5.0" stroke-linecap="round" stroke-linejoin="round" />
<path d="M 125.0 119.0 L 126.0 119.0 L 127.0 119.0 L 128.0 119.0 L 130.0 119.0 L 134.0 118.0 L 142.0 117.0 L 151.0 116.0 L 159.0 116.0 L 167.0 116.0 L 174.0 117.0 L 179.0 119.0 L 181.0 122.0 L 181.0 126.0 L 181.0 133.0 L 181.0 139.0 L 181.0 143.0 L 181.0 144.0 " stroke="black" fill="none" stroke-width="5.0" stroke-linecap="round" stroke-linejoin="round" />
<path d="M 134.0 128.0 L 134.0 128.0 L 134.0 128.0 L 137.0 128.0 L 144.0 128.0 L 155.0 128.0 L 166.0 128.0 L 173.0 129.0 L 174.0 130.0 " stroke="black" fill="none" stroke-width="5.0" stroke-linecap="round" stroke-linejoin="round" />
<path d="M 144.0 93.0 L 144.0 93.0 L 144.0 94.0 L 144.0 97.0 L 144.0 106.0 L 145.0 121.0 L 146.0 134.0 L 147.0 139.0 L 147.0 141.0 " stroke="black" fill="none" stroke-width="5.0" stroke-linecap="round" stroke-linejoin="round" />
<path d="M 154.0 95.0 L 154.0 95.0 L 154.0 95.0 L 154.0 94.0 L 154.0 100.0 L 156.0 112.0 L 157.0 125.0 L 158.0 131.0 " stroke="black" fill="none" stroke-width="5.0" stroke-linecap="round" stroke-linejoin="round" />
<path d="M 126.0 143.0 L 126.0 143.0 L 126.0 143.0 L 126.0 143.0 L 128.0 142.0 L 136.0 141.0 L 148.0 141.0 L 161.0 141.0 L 171.0 142.0 L 177.0 143.0 L 178.0 144.0 " stroke="black" fill="none" stroke-width="5.0" stroke-linecap="round" stroke-linejoin="round" />
<path d="M 140.0 158.0 L 140.0 158.0 L 139.0 158.0 L 138.0 158.0 L 138.0 158.0 L 137.0 160.0 L 137.0 168.0 L 137.0 181.0 L 138.0 190.0 L 139.0 195.0 L 139.0 195.0 " stroke="black" fill="none" stroke-width="5.0" stroke-linecap="round" stroke-linejoin="round" />
<path d="M 141.0 156.0 L 141.0 156.0 L 141.0 156.0 L 141.0 155.0 L 142.0 155.0 L 144.0 154.0 L 148.0 154.0 L 153.0 154.0 L 160.0 154.0 L 165.0 154.0 L 169.0 155.0 L 171.0 158.0 L 172.0 165.0 L 173.0 177.0 L 174.0 192.0 L 175.0 203.0 L 175.0 208.0 L 175.0 209.0 L 174.0 209.0 " stroke="black" fill="none" stroke-width="5.0" stroke-linecap="round" stroke-linejoin="round" />
<path d="M 144.0 178.0 L 144.0 178.0 L 144.0 178.0 L 144.0 178.0 L 145.0 178.0 L 149.0 178.0 L 157.0 177.0 L 166.0 175.0 L 171.0 174.0 L 171.0 174.0 " stroke="black" fill="none" stroke-width="5.0" stroke-linecap="round" stroke-linejoin="round" />
<path d="M 139.0 202.0 L 140.0 203.0 L 142.0 203.0 L 146.0 204.0 L 153.0 204.0 L 163.0 202.0 L 170.0 200.0 L 172.0 200.0 " stroke="black" fill="none" stroke-width="5.0" stroke-linecap="round" stroke-linejoin="round" />
</svg>