<svg xmlns="http://www.w3.org/2000/svg" width="300" height="300" viewBox="0 0 300 300">
<path d="M 136.0 107.0 L 136.0 107.0 L 136.0 107.0 L 137.0 107.0 L 137.0 107.0 L 137.0 109.0 L 138.0 116.0 L 139.0 128.0 L 139.0 138.0 L 139.0 143.0 L 140.0 143.0 " stroke="black" fill="none" stroke-width="5.0" stroke-linecap="round" stroke-linejoin="round" />
<path d="M 155.0 109.0 L 155.0 109.0 L 155.0 109.0 L 155.0 109.0 L 156.0 112.0 L 157.0 121.0 L 158.0 133.0 L 159.0 142.0 L 159.0 145.0 " stroke="black" fill="none" stroke-width="5.0" stroke-linecap="round" stroke-linejoin="round" />
<path d="M 125.0 127.0 L 125.0 127.0 L 126.0 127.0 L 130.0 127.0 L 138.0 127.0 L 150.0 127.0 L 160.0 127.0 L 167.0 127.0 L 168.0 128.0 L 167.0 129.0 " stroke="black" fill="none" stroke-width="5.0" stroke-linecap="round" stroke-linejoin="round" />
<path d="M 113.0 149.0 L 114.0 149.0 L 118.0 149.0 L 126.0 149.0 L 140.0 151.0 L 153.0 152.0 L 165.0 153.0 L 176.0 154.0 L 181.0 154.0 L 181.0 154.0 " stroke="black" fill="none" stroke-width="5.0" stroke-linecap="round" stroke-linejoin="round" />
<path d="M 137.0 164.0 L 137.0 164.0 L 137.0 164.0 L 137.0 164.0 L 137.0 165.0 L 136.0 166.0 L 136.0 174.0 L 134.0 189.0 L 133.0 202.0 L 133.0 208.0 L 134.0 207.0 " stroke="black" fill="none" stroke-width="5.0" stroke-linecap="round" stroke-linejoin="round" />
<path d="M 136.0 167.0 L 136.0 167.0 L 136.0 167.0 L 136.0 167.0 L 138.0 167.0 L 142.0 167.0 L 149.0 167.0 L 156.0 167.0 L 162.0 167.0 L 166.0 167.0 L 169.0 170.0 L 170.0 176.0 L 172.0 186.0 L 173.0 198.0 L 174.0 207.0 L 174.0 211.0 L 174.0 212.0 L 173.0 210.0 " stroke="black" fill="none" stroke-width="5.0" stroke-linecap="round" stroke-linejoin="round" />
<path d="M 139.0 189.0 L 139.0 189.0 L 139.0 189.0 L 140.0 189.0 L 145.0 189.0 L 153.0 189.0 L 162.0 190.0 L 168.0 190.0 L 170.0 191.0 " stroke="black" fill="none" stroke-width="5.0" stroke-linecap="round" stroke-linejoin="round" />
<path d="M 133.0 213.0 L 134.0 214.0 L 138.0 216.0 L 145.0 217.0 L 153.0 217.0 L 162.0 217.0 L 167.0 216.0 " stroke="black" fill="none" stroke-width="5.0" stroke-linecap="round" stroke-linejoin="round" />
</svg>