<svg xmlns="http://www.w3.org/2000/svg" width="300" height="300" viewBox="0 0 300 300">
<path d="M 115.0 129.0 L 115.0 129.0 L 115.0 129.0 L 115.0 131.0 L 115.0 138.0 L 115.0 152.0 L 115.0 165.0 L 114.0 172.0 L 114.0 172.0 " stroke="black" fill="none" stroke-width="5.0" stroke-linecap="round" stroke-linejoin="round" />
<path d="M 115.0 134.0 L 115.0 134.0 L 115.0 135.0 L 115.0 135.0 L 116.0 135.0 L 120.0 134.0 L 125.0 132.0 L 130.0 132.0 L 133.0 133.0 L 135.0 137.0 L 136.0 144.0 L 138.0 156.0 L 139.0 167.0 L 139.0 172.0 L 139.0 174.0 " stroke="black" fill="none" stroke-width="5.0" stroke-linecap="round" stroke-linejoin="round" />
<path d="M 117.0 156.0 L 117.0 156.0 L 117.0 156.0 L 117.0 157.0 L 120.0 157.0 L 126.0 157.0 L 133.0 157.0 L 136.0 158.0 " stroke="black" fill="none" stroke-width="5.0" stroke-linecap="round" stroke-linejoin="round" />
<path d="M 116.0 173.0 L 117.0 174.0 L 118.0 176.0 L 124.0 176.0 L 135.0 176.0 L 138.0 175.0 " stroke="black" fill="none" stroke-width="5.0" stroke-linecap="round" stroke-linejoin="round" />
<path d="M 156.0 114.0 L 156.0 115.0 L 157.0 116.0 L 157.0 120.0 L 156.0 127.0 L 153.0 136.0 L 148.0 145.0 L 145.0 149.0 " stroke="black" fill="none" stroke-width="5.0" stroke-linecap="round" stroke-linejoin="round" />
<path d="M 155.0 130.0 L 155.0 130.0 L 156.0 130.0 L 157.0 130.0 L 161.0 130.0 L 170.0 129.0 L 178.0 128.0 L 181.0 128.0 " stroke="black" fill="none" stroke-width="5.0" stroke-linecap="round" stroke-linejoin="round" />
<path d="M 157.0 150.0 L 157.0 150.0 L 157.0 150.0 L 158.0 150.0 L 161.0 150.0 L 165.0 150.0 L 171.0 149.0 L 175.0 148.0 L 178.0 148.0 L 181.0 149.0 L 182.0 153.0 L 184.0 159.0 L 186.0 169.0 L 189.0 182.0 L 191.0 195.0 L 191.0 204.0 L 189.0 209.0 L 185.0 210.0 L 178.0 210.0 L 173.0 208.0 " stroke="black" fill="none" stroke-width="5.0" stroke-linecap="round" stroke-linejoin="round" />
<path d="M 154.0 151.0 L 154.0 150.0 L 154.0 149.0 L 154.0 149.0 L 154.0 155.0 L 153.0 166.0 L 153.0 178.0 L 153.0 187.0 L 157.0 191.0 L 163.0 192.0 L 173.0 192.0 L 184.0 192.0 L 191.0 191.0 L 195.0 190.0 " stroke="black" fill="none" stroke-width="5.0" stroke-linecap="round" stroke-linejoin="round" />
<path d="M 149.0 170.0 L 149.0 171.0 L 151.0 172.0 L 156.0 172.0 L 169.0 171.0 L 183.0 171.0 L 192.0 171.0 " stroke="black" fill="none" stroke-width="5.0" stroke-linecap="round" stroke-linejoin="round" />
<path d="M 168.0 157.0 L 168.0 157.0 L 169.0 158.0 L 169.0 159.0 L 170.0 161.0 L 172.0 163.0 L 173.0 164.0 " stroke="black" fill="none" stroke-width="5.0" stroke-linecap="round" stroke-linejoin="round" />
<path d="M 169.0 176.0 L 169.0 177.0 L 168.0 179.0 L 169.0 181.0 L 172.0 185.0 L 175.0 188.0 " stroke="black" fill="none" stroke-width="5.0" stroke-linecap="round" stroke-linejoin="round" />
</svg>