<svg xmlns="http://www.w3.org/2000/svg" width="300" height="300" viewBox="0 0 300 300">
<path d="M 115.0 134.0 L 115.0 134.0 L 116.0 134.0 L 117.0 133.0 L 117.0 133.0 L 117.0 133.0 L 117.0 137.0 L 116.0 145.0 L 114.0 157.0 L 112.0 168.0 L 112.0 175.0 L 112.0 175.0 " stroke="black" fill="none" stroke-width="5.0" stroke-linecap="round" stroke-linejoin="round" />
<path d="M 115.0 136.0 L 115.0 136.0 L 115.0 136.0 L 115.0 136.0 L 115.0 136.0 L 117.0 136.0 L 120.0 136.0 L 124.0 136.0 L 127.0 136.0 L 130.0 136.0 L 131.0 138.0 L 132.0 144.0 L 132.0 153.0 L 133.0 162.0 L 133.0 169.0 L 133.0 173.0 L 133.0 173.0 " stroke="black" fill="none" stroke-width="5.0" stroke-linecap="round" stroke-linejoin="round" />
<path d="M 115.0 157.0 L 116.0 157.0 L 117.0 157.0 L 118.0 157.0 L 122.0 158.0 L 127.0 158.0 L 130.0 158.0 " stroke="black" fill="none" stroke-width="5.0" stroke-linecap="round" stroke-linejoin="round" />
<path d="M 114.0 174.0 L 115.0 175.0 L 116.0 176.0 L 121.0 177.0 L 129.0 177.0 " stroke="black" fill="none" stroke-width="5.0" stroke-linecap="round" stroke-linejoin="round" />
<path d="M 160.0 109.0 L 160.0 109.0 L 160.0 109.0 L 160.0 109.0 L 161.0 110.0 L 164.0 112.0 L 167.0 116.0 L 168.0 117.0 " stroke="black" fill="none" stroke-width="5.0" stroke-linecap="round" stroke-linejoin="round" />
<path d="M 144.0 126.0 L 144.0 126.0 L 144.0 126.0 L 145.0 126.0 L 149.0 126.0 L 160.0 125.0 L 176.0 124.0 L 186.0 123.0 L 189.0 123.0 " stroke="black" fill="none" stroke-width="5.0" stroke-linecap="round" stroke-linejoin="round" />
<path d="M 148.0 128.0 L 148.0 128.0 L 148.0 128.0 L 148.0 130.0 L 147.0 139.0 L 146.0 154.0 L 144.0 173.0 L 140.0 187.0 L 138.0 194.0 L 138.0 195.0 " stroke="black" fill="none" stroke-width="5.0" stroke-linecap="round" stroke-linejoin="round" />
<path d="M 165.0 134.0 L 165.0 134.0 L 165.0 135.0 L 165.0 135.0 L 166.0 137.0 L 166.0 140.0 L 166.0 144.0 L 165.0 147.0 L 166.0 150.0 L 169.0 150.0 L 174.0 150.0 L 177.0 150.0 " stroke="black" fill="none" stroke-width="5.0" stroke-linecap="round" stroke-linejoin="round" />
<path d="M 178.0 136.0 L 178.0 136.0 L 178.0 136.0 L 178.0 137.0 L 178.0 139.0 L 178.0 143.0 L 178.0 148.0 " stroke="black" fill="none" stroke-width="5.0" stroke-linecap="round" stroke-linejoin="round" />
<path d="M 154.0 144.0 L 154.0 144.0 L 154.0 144.0 L 154.0 144.0 L 156.0 144.0 L 162.0 143.0 L 174.0 143.0 L 184.0 142.0 L 190.0 142.0 L 191.0 142.0 " stroke="black" fill="none" stroke-width="5.0" stroke-linecap="round" stroke-linejoin="round" />
<path d="M 155.0 159.0 L 155.0 159.0 L 155.0 159.0 L 157.0 159.0 L 164.0 159.0 L 174.0 158.0 L 182.0 158.0 L 185.0 158.0 " stroke="black" fill="none" stroke-width="5.0" stroke-linecap="round" stroke-linejoin="round" />
<path d="M 155.0 169.0 L 155.0 169.0 L 155.0 170.0 L 155.0 171.0 L 155.0 175.0 L 156.0 179.0 L 156.0 182.0 L 157.0 184.0 " stroke="black" fill="none" stroke-width="5.0" stroke-linecap="round" stroke-linejoin="round" />
<path d="M 156.0 169.0 L 157.0 169.0 L 158.0 169.0 L 160.0 169.0 L 163.0 169.0 L 170.0 169.0 L 176.0 168.0 L 181.0 168.0 L 185.0 169.0 L 186.0 173.0 L 186.0 179.0 L 187.0 183.0 L 187.0 185.0 " stroke="black" fill="none" stroke-width="5.0" stroke-linecap="round" stroke-linejoin="round" />
<path d="M 159.0 178.0 L 160.0 178.0 L 161.0 178.0 L 164.0 178.0 L 169.0 178.0 L 175.0 178.0 L 179.0 178.0 L 180.0 178.0 " stroke="black" fill="none" stroke-width="5.0" stroke-linecap="round" stroke-linejoin="round" />
<path d="M 168.0 169.0 L 168.0 170.0 L 169.0 171.0 L 169.0 173.0 L 170.0 176.0 L 170.0 181.0 L 170.0 182.0 " stroke="black" fill="none" stroke-width="5.0" stroke-linecap="round" stroke-linejoin="round" />
<path d="M 158.0 187.0 L 158.0 187.0 L 160.0 187.0 L 161.0 187.0 L 165.0 187.0 L 172.0 187.0 L 179.0 187.0 L 183.0 187.0 L 183.0 188.0 " stroke="black" fill="none" stroke-width="5.0" stroke-linecap="round" stroke-linejoin="round" />
<path d="M 167.0 194.0 L 167.0 194.0 L 167.0 194.0 L 167.0 194.0 L 167.0 194.0 L 167.0 196.0 L 166.0 200.0 L 163.0 205.0 " stroke="black" fill="none" stroke-width="5.0" stroke-linecap="round" stroke-linejoin="round" />
<path d="M 184.0 194.0 L 184.0 195.0 L 185.0 197.0 L 188.0 199.0 L 191.0 203.0 L 192.0 204.0 " stroke="black" fill="none" stroke-width="5.0" stroke-linecap="round" stroke-linejoin="round" />
</svg>