<svg xmlns="http://www.w3.org/2000/svg" width="300" height="300" viewBox="0 0 300 300">
<path d="M 115.0 125.0 L 115.0 126.0 L 116.0 128.0 L 116.0 131.0 L 116.0 136.0 L 117.0 147.0 L 117.0 159.0 L 117.0 168.0 L 117.0 172.0 " stroke="black" fill="none" stroke-width="5.0" stroke-linecap="round" stroke-linejoin="round" />
<path d="M 122.0 126.0 L 122.0 126.0 L 122.0 126.0 L 122.0 126.0 L 125.0 126.0 L 133.0 124.0 L 143.0 122.0 L 153.0 121.0 L 159.0 121.0 L 163.0 121.0 L 167.0 121.0 L 169.0 122.0 L 171.0 124.0 L 172.0 128.0 L 172.0 136.0 L 173.0 148.0 L 174.0 159.0 L 175.0 166.0 L 176.0 170.0 L 176.0 171.0 " stroke="black" fill="none" stroke-width="5.0" stroke-linecap="round" stroke-linejoin="round" />
<path d="M 124.0 148.0 L 124.0 148.0 L 124.0 148.0 L 124.0 148.0 L 126.0 147.0 L 132.0 146.0 L 144.0 145.0 L 156.0 144.0 L 164.0 143.0 L 165.0 143.0 " stroke="black" fill="none" stroke-width="5.0" stroke-linecap="round" stroke-linejoin="round" />
<path d="M 138.0 105.0 L 138.0 105.0 L 137.0 105.0 L 137.0 106.0 L 137.0 115.0 L 139.0 133.0 L 140.0 152.0 L 140.0 163.0 L 140.0 166.0 " stroke="black" fill="none" stroke-width="5.0" stroke-linecap="round" stroke-linejoin="round" />
<path d="M 153.0 102.0 L 153.0 102.0 L 153.0 103.0 L 152.0 106.0 L 152.0 116.0 L 153.0 136.0 L 154.0 156.0 L 154.0 167.0 " stroke="black" fill="none" stroke-width="5.0" stroke-linecap="round" stroke-linejoin="round" />
<path d="M 117.0 178.0 L 117.0 178.0 L 117.0 178.0 L 119.0 178.0 L 129.0 177.0 L 145.0 174.0 L 158.0 173.0 L 166.0 173.0 L 169.0 173.0 L 169.0 174.0 " stroke="black" fill="none" stroke-width="5.0" stroke-linecap="round" stroke-linejoin="round" />
</svg>