<svg xmlns="http://www.w3.org/2000/svg" width="300" height="300" viewBox="0 0 300 300">
<path d="M 118.0 134.0 L 118.0 134.0 L 118.0 134.0 L 118.0 134.0 L 118.0 137.0 L 118.0 146.0 L 118.0 159.0 L 118.0 170.0 " stroke="black" fill="none" stroke-width="5.0" stroke-linecap="round" stroke-linejoin="round" />
<path d="M 119.0 137.0 L 119.0 137.0 L 119.0 137.0 L 119.0 137.0 L 121.0 137.0 L 125.0 137.0 L 129.0 137.0 L 132.0 141.0 L 135.0 147.0 L 138.0 154.0 L 140.0 161.0 L 140.0 165.0 " stroke="black" fill="none" stroke-width="5.0" stroke-linecap="round" stroke-linejoin="round" />
<path d="M 123.0 153.0 L 123.0 153.0 L 123.0 154.0 L 124.0 154.0 L 128.0 154.0 L 134.0 154.0 L 135.0 154.0 " stroke="black" fill="none" stroke-width="5.0" stroke-linecap="round" stroke-linejoin="round" />
<path d="M 120.0 169.0 L 122.0 170.0 L 126.0 171.0 L 132.0 171.0 L 136.0 171.0 " stroke="black" fill="none" stroke-width="5.0" stroke-linecap="round" stroke-linejoin="round" />
<path d="M 162.0 109.0 L 162.0 109.0 L 162.0 109.0 L 162.0 109.0 L 161.0 113.0 L 157.0 119.0 L 153.0 125.0 " stroke="black" fill="none" stroke-width="5.0" stroke-linecap="round" stroke-linejoin="round" />
<path d="M 156.0 120.0 L 157.0 120.0 L 157.0 120.0 L 160.0 120.0 L 165.0 119.0 L 169.0 118.0 L 171.0 118.0 L 171.0 121.0 L 169.0 126.0 L 165.0 131.0 " stroke="black" fill="none" stroke-width="5.0" stroke-linecap="round" stroke-linejoin="round" />
<path d="M 148.0 141.0 L 148.0 141.0 L 147.0 143.0 L 147.0 145.0 L 147.0 149.0 L 148.0 152.0 " stroke="black" fill="none" stroke-width="5.0" stroke-linecap="round" stroke-linejoin="round" />
<path d="M 148.0 142.0 L 148.0 142.0 L 149.0 142.0 L 153.0 140.0 L 162.0 138.0 L 172.0 137.0 L 181.0 137.0 L 185.0 139.0 L 187.0 145.0 L 187.0 151.0 L 187.0 155.0 L 187.0 158.0 " stroke="black" fill="none" stroke-width="5.0" stroke-linecap="round" stroke-linejoin="round" />
<path d="M 149.0 158.0 L 149.0 158.0 L 149.0 159.0 L 149.0 160.0 L 152.0 160.0 L 161.0 159.0 L 174.0 158.0 L 182.0 157.0 " stroke="black" fill="none" stroke-width="5.0" stroke-linecap="round" stroke-linejoin="round" />
<path d="M 161.0 143.0 L 161.0 143.0 L 161.0 142.0 L 161.0 143.0 L 161.0 151.0 L 158.0 165.0 L 152.0 182.0 L 147.0 193.0 L 146.0 194.0 " stroke="black" fill="none" stroke-width="5.0" stroke-linecap="round" stroke-linejoin="round" />
<path d="M 162.0 165.0 L 163.0 166.0 L 164.0 167.0 L 164.0 169.0 L 165.0 172.0 L 166.0 177.0 L 168.0 185.0 L 173.0 192.0 L 180.0 195.0 L 190.0 194.0 L 197.0 193.0 L 201.0 192.0 L 202.0 192.0 L 202.0 191.0 L 201.0 187.0 " stroke="black" fill="none" stroke-width="5.0" stroke-linecap="round" stroke-linejoin="round" />
</svg>