<svg xmlns="http://www.w3.org/2000/svg" width="300" height="300" viewBox="0 0 300 300">
<path d="M 125.0 114.0 L 125.0 114.0 L 126.0 115.0 L 127.0 117.0 L 129.0 120.0 L 132.0 123.0 L 134.0 126.0 " stroke="black" fill="none" stroke-width="5.0" stroke-linecap="round" stroke-linejoin="round" />
<path d="M 115.0 131.0 L 115.0 131.0 L 115.0 131.0 L 115.0 131.0 L 116.0 132.0 L 120.0 132.0 L 126.0 131.0 L 132.0 130.0 L 136.0 130.0 L 139.0 130.0 L 139.0 130.0 L 139.0 131.0 L 139.0 137.0 L 140.0 144.0 L 141.0 150.0 L 143.0 153.0 " stroke="black" fill="none" stroke-width="5.0" stroke-linecap="round" stroke-linejoin="round" />
<path d="M 118.0 142.0 L 119.0 142.0 L 119.0 142.0 L 121.0 142.0 L 125.0 143.0 L 133.0 143.0 L 139.0 142.0 L 141.0 142.0 " stroke="black" fill="none" stroke-width="5.0" stroke-linecap="round" stroke-linejoin="round" />
<path d="M 114.0 156.0 L 115.0 156.0 L 118.0 158.0 L 124.0 158.0 L 132.0 157.0 L 138.0 155.0 " stroke="black" fill="none" stroke-width="5.0" stroke-linecap="round" stroke-linejoin="round" />
<path d="M 118.0 135.0 L 118.0 135.0 L 119.0 134.0 L 119.0 133.0 L 119.0 134.0 L 118.0 139.0 L 115.0 148.0 L 113.0 161.0 L 111.0 177.0 L 111.0 186.0 L 116.0 189.0 L 126.0 187.0 L 135.0 182.0 L 142.0 178.0 " stroke="black" fill="none" stroke-width="5.0" stroke-linecap="round" stroke-linejoin="round" />
<path d="M 137.0 169.0 L 137.0 170.0 L 139.0 173.0 L 141.0 178.0 L 144.0 184.0 L 145.0 186.0 " stroke="black" fill="none" stroke-width="5.0" stroke-linecap="round" stroke-linejoin="round" />
<path d="M 162.0 120.0 L 162.0 120.0 L 162.0 120.0 L 162.0 120.0 L 162.0 120.0 L 163.0 120.0 L 168.0 120.0 L 174.0 121.0 L 180.0 122.0 L 182.0 123.0 L 184.0 125.0 L 182.0 127.0 L 179.0 131.0 L 178.0 135.0 L 178.0 139.0 L 180.0 142.0 L 183.0 145.0 L 186.0 147.0 L 187.0 149.0 L 186.0 151.0 L 182.0 152.0 L 177.0 152.0 L 176.0 152.0 " stroke="black" fill="none" stroke-width="5.0" stroke-linecap="round" stroke-linejoin="round" />
<path d="M 161.0 123.0 L 161.0 123.0 L 162.0 123.0 L 162.0 124.0 L 162.0 125.0 L 162.0 132.0 L 162.0 151.0 L 163.0 180.0 L 165.0 200.0 L 166.0 207.0 L 166.0 209.0 " stroke="black" fill="none" stroke-width="5.0" stroke-linecap="round" stroke-linejoin="round" />
</svg>