<svg xmlns="http://www.w3.org/2000/svg" width="300" height="300" viewBox="0 0 300 300">
<path d="M 133.0 111.0 L 133.0 111.0 L 133.0 111.0 L 133.0 111.0 L 133.0 111.0 L 132.0 114.0 L 129.0 123.0 L 123.0 138.0 L 117.0 147.0 " stroke="black" fill="none" stroke-width="5.0" stroke-linecap="round" stroke-linejoin="round" />
<path d="M 130.0 128.0 L 130.0 128.0 L 129.0 128.0 L 129.0 128.0 L 131.0 128.0 L 139.0 127.0 L 152.0 125.0 L 163.0 124.0 L 168.0 124.0 " stroke="black" fill="none" stroke-width="5.0" stroke-linecap="round" stroke-linejoin="round" />
<path d="M 115.0 160.0 L 115.0 160.0 L 115.0 160.0 L 116.0 160.0 L 124.0 160.0 L 139.0 159.0 L 157.0 158.0 L 172.0 156.0 L 178.0 155.0 " stroke="black" fill="none" stroke-width="5.0" stroke-linecap="round" stroke-linejoin="round" />
<path d="M 151.0 106.0 L 150.0 106.0 L 150.0 108.0 L 149.0 117.0 L 150.0 139.0 L 151.0 164.0 L 151.0 183.0 L 151.0 193.0 L 151.0 197.0 L 151.0 197.0 " stroke="black" fill="none" stroke-width="5.0" stroke-linecap="round" stroke-linejoin="round" />
<path d="M 148.0 159.0 L 148.0 159.0 L 148.0 159.0 L 148.0 159.0 L 148.0 160.0 L 144.0 163.0 L 136.0 171.0 L 122.0 182.0 L 111.0 191.0 L 108.0 193.0 " stroke="black" fill="none" stroke-width="5.0" stroke-linecap="round" stroke-linejoin="round" />
<path d="M 148.0 162.0 L 149.0 163.0 L 151.0 165.0 L 157.0 172.0 L 169.0 184.0 L 181.0 193.0 L 188.0 199.0 L 189.0 200.0 " stroke="black" fill="none" stroke-width="5.0" stroke-linecap="round" stroke-linejoin="round" />
</svg>