<svg xmlns="http://www.w3.org/2000/svg" width="300" height="300" viewBox="0 0 300 300">
<path d="M 133.0 110.0 L 133.0 110.0 L 132.0 110.0 L 132.0 110.0 L 132.0 110.0 L 133.0 110.0 L 139.0 110.0 L 147.0 110.0 L 154.0 110.0 L 161.0 109.0 L 164.0 109.0 L 165.0 109.0 L 165.0 109.0 L 165.0 111.0 L 163.0 113.0 L 160.0 117.0 L 155.0 121.0 L 151.0 126.0 L 149.0 127.0 " stroke="black" fill="none" stroke-width="5.0" stroke-linecap="round" stroke-linejoin="round" />
<path d="M 141.0 120.0 L 141.0 120.0 L 141.0 120.0 L 141.0 121.0 L 143.0 122.0 L 147.0 125.0 L 150.0 127.0 L 151.0 127.0 " stroke="black" fill="none" stroke-width="5.0" stroke-linecap="round" stroke-linejoin="round" />
<path d="M 120.0 134.0 L 120.0 134.0 L 120.0 134.0 L 124.0 134.0 L 133.0 133.0 L 147.0 132.0 L 162.0 130.0 L 172.0 129.0 L 178.0 129.0 L 179.0 129.0 L 179.0 129.0 L 178.0 131.0 L 176.0 135.0 L 172.0 139.0 L 171.0 140.0 " stroke="black" fill="none" stroke-width="5.0" stroke-linecap="round" stroke-linejoin="round" />
<path d="M 148.0 128.0 L 148.0 128.0 L 148.0 128.0 L 148.0 129.0 L 148.0 131.0 L 149.0 136.0 L 151.0 143.0 L 153.0 151.0 L 155.0 158.0 L 155.0 163.0 L 155.0 164.0 L 155.0 164.0 L 153.0 161.0 L 148.0 157.0 L 147.0 156.0 " stroke="black" fill="none" stroke-width="5.0" stroke-linecap="round" stroke-linejoin="round" />
<path d="M 149.0 132.0 L 149.0 132.0 L 149.0 132.0 L 148.0 133.0 L 147.0 135.0 L 143.0 139.0 L 136.0 146.0 L 124.0 156.0 L 121.0 158.0 " stroke="black" fill="none" stroke-width="5.0" stroke-linecap="round" stroke-linejoin="round" />
<path d="M 114.0 181.0 L 114.0 181.0 L 114.0 181.0 L 116.0 181.0 L 124.0 181.0 L 140.0 181.0 L 155.0 181.0 L 168.0 181.0 L 175.0 181.0 L 177.0 180.0 L 176.0 180.0 " stroke="black" fill="none" stroke-width="5.0" stroke-linecap="round" stroke-linejoin="round" />
<path d="M 143.0 164.0 L 143.0 164.0 L 143.0 164.0 L 143.0 166.0 L 144.0 173.0 L 145.0 184.0 L 146.0 196.0 L 146.0 203.0 L 146.0 206.0 " stroke="black" fill="none" stroke-width="5.0" stroke-linecap="round" stroke-linejoin="round" />
<path d="M 145.0 184.0 L 144.0 184.0 L 143.0 185.0 L 140.0 186.0 L 137.0 189.0 L 132.0 194.0 L 125.0 200.0 L 119.0 204.0 L 118.0 204.0 " stroke="black" fill="none" stroke-width="5.0" stroke-linecap="round" stroke-linejoin="round" />
<path d="M 145.0 185.0 L 147.0 185.0 L 149.0 185.0 L 154.0 187.0 L 163.0 193.0 L 173.0 200.0 L 180.0 206.0 L 182.0 208.0 " stroke="black" fill="none" stroke-width="5.0" stroke-linecap="round" stroke-linejoin="round" />
</svg>