<svg xmlns="http://www.w3.org/2000/svg" width="300" height="300" viewBox="0 0 300 300">
<path d="M 130.0 113.0 L 130.0 113.0 L 130.0 113.0 L 130.0 113.0 L 133.0 113.0 L 142.0 114.0 L 154.0 114.0 L 167.0 115.0 L 177.0 114.0 " stroke="black" fill="none" stroke-width="5.0" stroke-linecap="round" stroke-linejoin="round" />
<path d="M 127.0 136.0 L 127.0 136.0 L 127.0 136.0 L 127.0 136.0 L 128.0 139.0 L 129.0 145.0 L 131.0 150.0 " stroke="black" fill="none" stroke-width="5.0" stroke-linecap="round" stroke-linejoin="round" />
<path d="M 126.0 135.0 L 126.0 135.0 L 128.0 137.0 L 132.0 136.0 L 139.0 135.0 L 149.0 134.0 L 159.0 133.0 L 169.0 133.0 L 175.0 134.0 L 180.0 136.0 L 181.0 140.0 L 181.0 145.0 L 181.0 150.0 L 179.0 152.0 " stroke="black" fill="none" stroke-width="5.0" stroke-linecap="round" stroke-linejoin="round" />
<path d="M 130.0 155.0 L 130.0 155.0 L 130.0 156.0 L 137.0 156.0 L 151.0 155.0 L 166.0 155.0 L 172.0 155.0 " stroke="black" fill="none" stroke-width="5.0" stroke-linecap="round" stroke-linejoin="round" />
<path d="M 152.0 100.0 L 152.0 100.0 L 152.0 100.0 L 152.0 102.0 L 153.0 119.0 L 155.0 150.0 L 156.0 177.0 L 156.0 193.0 L 157.0 198.0 L 157.0 199.0 " stroke="black" fill="none" stroke-width="5.0" stroke-linecap="round" stroke-linejoin="round" />
<path d="M 155.0 160.0 L 155.0 160.0 L 153.0 160.0 L 151.0 161.0 L 146.0 165.0 L 137.0 174.0 L 124.0 183.0 L 115.0 189.0 L 114.0 190.0 " stroke="black" fill="none" stroke-width="5.0" stroke-linecap="round" stroke-linejoin="round" />
<path d="M 154.0 163.0 L 156.0 164.0 L 159.0 166.0 L 168.0 173.0 L 180.0 183.0 L 189.0 191.0 " stroke="black" fill="none" stroke-width="5.0" stroke-linecap="round" stroke-linejoin="round" />
</svg>