<svg xmlns="http://www.w3.org/2000/svg" width="300" height="300" viewBox="0 0 300 300">
<path d="M 125.0 104.0 L 125.0 104.0 L 125.0 104.0 L 125.0 104.0 L 125.0 104.0 L 126.0 104.0 L 128.0 107.0 L 130.0 110.0 L 130.0 111.0 " stroke="black" fill="none" stroke-width="5.0" stroke-linecap="round" stroke-linejoin="round" />
<path d="M 113.0 118.0 L 113.0 118.0 L 113.0 119.0 L 115.0 119.0 L 121.0 119.0 L 132.0 117.0 L 142.0 116.0 L 148.0 115.0 L 148.0 115.0 " stroke="black" fill="none" stroke-width="5.0" stroke-linecap="round" stroke-linejoin="round" />
<path d="M 125.0 121.0 L 125.0 121.0 L 124.0 121.0 L 124.0 121.0 L 123.0 122.0 L 122.0 126.0 L 121.0 134.0 L 120.0 142.0 L 125.0 146.0 L 134.0 147.0 L 145.0 145.0 " stroke="black" fill="none" stroke-width="5.0" stroke-linecap="round" stroke-linejoin="round" />
<path d="M 169.0 102.0 L 169.0 102.0 L 169.0 102.0 L 169.0 102.0 L 169.0 102.0 L 167.0 107.0 L 163.0 116.0 L 156.0 125.0 L 152.0 129.0 " stroke="black" fill="none" stroke-width="5.0" stroke-linecap="round" stroke-linejoin="round" />
<path d="M 163.0 113.0 L 163.0 114.0 L 164.0 114.0 L 166.0 114.0 L 170.0 114.0 L 174.0 115.0 L 178.0 117.0 L 181.0 119.0 L 182.0 122.0 L 181.0 129.0 L 177.0 139.0 L 172.0 148.0 L 167.0 153.0 L 166.0 154.0 " stroke="black" fill="none" stroke-width="5.0" stroke-linecap="round" stroke-linejoin="round" />
<path d="M 161.0 125.0 L 162.0 125.0 L 164.0 126.0 L 166.0 126.0 L 169.0 126.0 L 173.0 127.0 L 175.0 127.0 " stroke="black" fill="none" stroke-width="5.0" stroke-linecap="round" stroke-linejoin="round" />
<path d="M 156.0 139.0 L 157.0 139.0 L 160.0 140.0 L 165.0 140.0 L 172.0 141.0 " stroke="black" fill="none" stroke-width="5.0" stroke-linecap="round" stroke-linejoin="round" />
<path d="M 133.0 162.0 L 134.0 162.0 L 135.0 163.0 L 139.0 163.0 L 147.0 163.0 L 157.0 162.0 L 165.0 162.0 L 169.0 162.0 L 169.0 162.0 " stroke="black" fill="none" stroke-width="5.0" stroke-linecap="round" stroke-linejoin="round" />
<path d="M 139.0 176.0 L 140.0 176.0 L 142.0 176.0 L 145.0 177.0 L 150.0 177.0 L 155.0 177.0 L 160.0 177.0 L 161.0 177.0 " stroke="black" fill="none" stroke-width="5.0" stroke-linecap="round" stroke-linejoin="round" />
<path d="M 119.0 198.0 L 120.0 198.0 L 122.0 199.0 L 128.0 199.0 L 138.0 199.0 L 150.0 199.0 L 163.0 199.0 L 172.0 200.0 L 174.0 200.0 " stroke="black" fill="none" stroke-width="5.0" stroke-linecap="round" stroke-linejoin="round" />
<path d="M 149.0 162.0 L 149.0 163.0 L 150.0 168.0 L 151.0 176.0 L 152.0 185.0 L 152.0 192.0 " stroke="black" fill="none" stroke-width="5.0" stroke-linecap="round" stroke-linejoin="round" />
</svg>