<svg xmlns="http://www.w3.org/2000/svg" width="300" height="300" viewBox="0 0 300 300">
<path d="M 127.0 120.0 L 127.0 120.0 L 127.0 121.0 L 127.0 122.0 L 127.0 122.0 L 131.0 122.0 L 140.0 122.0 L 154.0 121.0 L 165.0 120.0 L 172.0 120.0 L 173.0 120.0 " stroke="black" fill="none" stroke-width="5.0" stroke-linecap="round" stroke-linejoin="round" />
<path d="M 149.0 101.0 L 149.0 101.0 L 149.0 101.0 L 149.0 103.0 L 149.0 110.0 L 150.0 126.0 L 151.0 143.0 L 152.0 152.0 L 152.0 155.0 " stroke="black" fill="none" stroke-width="5.0" stroke-linecap="round" stroke-linejoin="round" />
<path d="M 152.0 124.0 L 152.0 125.0 L 152.0 125.0 L 150.0 126.0 L 147.0 129.0 L 138.0 136.0 L 126.0 146.0 L 115.0 154.0 L 112.0 156.0 " stroke="black" fill="none" stroke-width="5.0" stroke-linecap="round" stroke-linejoin="round" />
<path d="M 152.0 130.0 L 153.0 130.0 L 156.0 132.0 L 163.0 137.0 L 172.0 144.0 L 179.0 149.0 L 180.0 150.0 " stroke="black" fill="none" stroke-width="5.0" stroke-linecap="round" stroke-linejoin="round" />
<path d="M 125.0 165.0 L 125.0 165.0 L 125.0 165.0 L 126.0 166.0 L 126.0 171.0 L 127.0 179.0 L 128.0 187.0 L 129.0 190.0 L 129.0 191.0 " stroke="black" fill="none" stroke-width="5.0" stroke-linecap="round" stroke-linejoin="round" />
<path d="M 126.0 163.0 L 126.0 163.0 L 127.0 163.0 L 128.0 163.0 L 131.0 162.0 L 140.0 160.0 L 151.0 159.0 L 162.0 157.0 L 170.0 157.0 L 173.0 159.0 L 176.0 163.0 L 177.0 170.0 L 177.0 177.0 L 177.0 183.0 L 177.0 187.0 " stroke="black" fill="none" stroke-width="5.0" stroke-linecap="round" stroke-linejoin="round" />
<path d="M 134.0 175.0 L 134.0 175.0 L 134.0 175.0 L 134.0 175.0 L 135.0 175.0 L 141.0 175.0 L 152.0 175.0 L 163.0 175.0 L 169.0 176.0 L 170.0 176.0 L 168.0 176.0 " stroke="black" fill="none" stroke-width="5.0" stroke-linecap="round" stroke-linejoin="round" />
<path d="M 129.0 194.0 L 129.0 194.0 L 129.0 194.0 L 131.0 194.0 L 142.0 194.0 L 156.0 194.0 L 169.0 195.0 L 176.0 196.0 L 178.0 196.0 L 178.0 196.0 " stroke="black" fill="none" stroke-width="5.0" stroke-linecap="round" stroke-linejoin="round" />
</svg>