<svg xmlns="http://www.w3.org/2000/svg" width="300" height="300" viewBox="0 0 300 300">
<path d="M 118.0 109.0 L 118.0 109.0 L 117.0 109.0 L 117.0 109.0 L 117.0 109.0 L 122.0 109.0 L 131.0 108.0 L 140.0 108.0 L 147.0 107.0 L 149.0 107.0 " stroke="black" fill="none" stroke-width="5.0" stroke-linecap="round" stroke-linejoin="round" />
<path d="M 138.0 98.0 L 138.0 98.0 L 138.0 97.0 L 138.0 97.0 L 138.0 97.0 L 138.0 100.0 L 136.0 107.0 L 132.0 116.0 " stroke="black" fill="none" stroke-width="5.0" stroke-linecap="round" stroke-linejoin="round" />
<path d="M 117.0 123.0 L 117.0 123.0 L 117.0 124.0 L 117.0 126.0 L 117.0 128.0 L 118.0 132.0 L 119.0 137.0 L 119.0 140.0 " stroke="black" fill="none" stroke-width="5.0" stroke-linecap="round" stroke-linejoin="round" />
<path d="M 118.0 122.0 L 119.0 122.0 L 120.0 122.0 L 122.0 122.0 L 125.0 122.0 L 131.0 122.0 L 137.0 122.0 L 142.0 122.0 L 146.0 123.0 L 147.0 126.0 L 148.0 132.0 L 148.0 138.0 L 148.0 143.0 " stroke="black" fill="none" stroke-width="5.0" stroke-linecap="round" stroke-linejoin="round" />
<path d="M 121.0 137.0 L 121.0 137.0 L 121.0 137.0 L 122.0 137.0 L 126.0 136.0 L 133.0 135.0 L 140.0 135.0 L 145.0 135.0 L 146.0 135.0 " stroke="black" fill="none" stroke-width="5.0" stroke-linecap="round" stroke-linejoin="round" />
<path d="M 121.0 146.0 L 123.0 146.0 L 126.0 146.0 L 130.0 146.0 L 136.0 146.0 L 142.0 146.0 " stroke="black" fill="none" stroke-width="5.0" stroke-linecap="round" stroke-linejoin="round" />
<path d="M 110.0 165.0 L 110.0 165.0 L 110.0 165.0 L 110.0 165.0 L 110.0 165.0 L 116.0 165.0 L 127.0 165.0 L 140.0 165.0 L 149.0 165.0 L 150.0 165.0 " stroke="black" fill="none" stroke-width="5.0" stroke-linecap="round" stroke-linejoin="round" />
<path d="M 131.0 149.0 L 131.0 150.0 L 131.0 153.0 L 131.0 161.0 L 131.0 174.0 L 132.0 184.0 L 132.0 185.0 " stroke="black" fill="none" stroke-width="5.0" stroke-linecap="round" stroke-linejoin="round" />
<path d="M 161.0 116.0 L 161.0 117.0 L 161.0 119.0 L 161.0 125.0 L 161.0 138.0 L 160.0 154.0 L 159.0 168.0 L 158.0 176.0 L 157.0 176.0 " stroke="black" fill="none" stroke-width="5.0" stroke-linecap="round" stroke-linejoin="round" />
<path d="M 162.0 109.0 L 163.0 109.0 L 164.0 109.0 L 167.0 110.0 L 170.0 110.0 L 175.0 111.0 L 178.0 113.0 L 181.0 117.0 L 184.0 129.0 L 186.0 148.0 L 187.0 166.0 L 189.0 178.0 L 189.0 184.0 L 189.0 186.0 L 186.0 187.0 L 180.0 184.0 L 176.0 179.0 " stroke="black" fill="none" stroke-width="5.0" stroke-linecap="round" stroke-linejoin="round" />
<path d="M 164.0 127.0 L 165.0 127.0 L 166.0 127.0 L 169.0 128.0 L 173.0 129.0 L 178.0 130.0 L 183.0 130.0 L 184.0 130.0 " stroke="black" fill="none" stroke-width="5.0" stroke-linecap="round" stroke-linejoin="round" />
<path d="M 159.0 150.0 L 159.0 150.0 L 159.0 150.0 L 162.0 151.0 L 170.0 152.0 L 181.0 153.0 L 185.0 154.0 " stroke="black" fill="none" stroke-width="5.0" stroke-linecap="round" stroke-linejoin="round" />
</svg>