<svg xmlns="http://www.w3.org/2000/svg" width="300" height="300" viewBox="0 0 300 300">
<path d="M 116.0 128.0 L 116.0 128.0 L 116.0 128.0 L 116.0 128.0 L 116.0 127.0 L 117.0 127.0 L 120.0 127.0 L 127.0 127.0 L 136.0 126.0 L 138.0 126.0 " stroke="black" fill="none" stroke-width="5.0" stroke-linecap="round" stroke-linejoin="round" />
<path d="M 128.0 106.0 L 128.0 106.0 L 127.0 106.0 L 127.0 109.0 L 126.0 116.0 L 128.0 132.0 L 130.0 156.0 L 130.0 179.0 L 130.0 195.0 " stroke="black" fill="none" stroke-width="5.0" stroke-linecap="round" stroke-linejoin="round" />
<path d="M 129.0 136.0 L 129.0 136.0 L 128.0 136.0 L 126.0 137.0 L 124.0 141.0 L 118.0 149.0 L 111.0 159.0 L 106.0 166.0 L 105.0 167.0 " stroke="black" fill="none" stroke-width="5.0" stroke-linecap="round" stroke-linejoin="round" />
<path d="M 130.0 137.0 L 130.0 137.0 L 129.0 138.0 L 132.0 141.0 L 139.0 149.0 L 147.0 160.0 L 149.0 163.0 " stroke="black" fill="none" stroke-width="5.0" stroke-linecap="round" stroke-linejoin="round" />
<path d="M 155.0 127.0 L 155.0 127.0 L 155.0 127.0 L 156.0 127.0 L 161.0 127.0 L 170.0 126.0 L 176.0 126.0 " stroke="black" fill="none" stroke-width="5.0" stroke-linecap="round" stroke-linejoin="round" />
<path d="M 164.0 103.0 L 164.0 103.0 L 164.0 103.0 L 164.0 105.0 L 165.0 117.0 L 167.0 141.0 L 168.0 167.0 L 168.0 186.0 L 168.0 194.0 L 168.0 195.0 " stroke="black" fill="none" stroke-width="5.0" stroke-linecap="round" stroke-linejoin="round" />
<path d="M 163.0 135.0 L 163.0 135.0 L 164.0 136.0 L 164.0 137.0 L 163.0 139.0 L 159.0 146.0 L 154.0 157.0 L 148.0 169.0 L 146.0 172.0 " stroke="black" fill="none" stroke-width="5.0" stroke-linecap="round" stroke-linejoin="round" />
<path d="M 167.0 135.0 L 167.0 135.0 L 168.0 135.0 L 170.0 136.0 L 176.0 146.0 L 185.0 163.0 L 192.0 176.0 L 194.0 179.0 " stroke="black" fill="none" stroke-width="5.0" stroke-linecap="round" stroke-linejoin="round" />
</svg>