<svg xmlns="http://www.w3.org/2000/svg" width="300" height="300" viewBox="0 0 300 300">
<path d="M 130.83333333333331 111.66666666666667 L 130.83333333333331 111.66666666666667 L 130.83333333333331 111.66666666666667 L 130.83333333333331 111.66666666666667 L 131.66666666666669 111.66666666666667 L 138.33333333333331 111.66666666666667 L 150.83333333333331 111.66666666666667 L 165.0 111.66666666666667 L 174.16666666666663 111.66666666666667 " stroke="black" fill="none" stroke-width="5.0" stroke-linecap="round" stroke-linejoin="round" />
<path d="M 150.83333333333331 94.99999999999999 L 150.83333333333331 94.99999999999999 L 150.83333333333331 94.99999999999999 L 150.83333333333331 96.66666666666667 L 150.83333333333331 103.33333333333333 L 152.5 118.33333333333333 L 153.33333333333331 133.33333333333331 L 153.33333333333331 141.66666666666669 L 153.33333333333331 143.33333333333331 " stroke="black" fill="none" stroke-width="5.0" stroke-linecap="round" stroke-linejoin="round" />
<path d="M 155.0 111.66666666666667 L 154.16666666666669 111.66666666666667 L 153.33333333333331 111.66666666666667 L 151.66666666666669 112.49999999999999 L 148.33333333333331 115.83333333333333 L 141.66666666666669 122.49999999999999 L 131.66666666666669 131.66666666666669 L 122.49999999999999 139.16666666666669 L 120.83333333333333 140.0 " stroke="black" fill="none" stroke-width="5.0" stroke-linecap="round" stroke-linejoin="round" />
<path d="M 155.83333333333331 114.99999999999999 L 155.83333333333331 114.99999999999999 L 156.66666666666663 115.83333333333333 L 160.83333333333331 119.16666666666667 L 170.0 125.83333333333333 L 177.5 132.5 " stroke="black" fill="none" stroke-width="5.0" stroke-linecap="round" stroke-linejoin="round" />
<path d="M 143.33333333333331 147.5 L 142.5 147.5 L 142.5 147.5 L 141.66666666666669 147.5 L 145.0 147.5 L 151.66666666666669 146.66666666666669 L 160.0 145.83333333333331 L 166.66666666666663 145.83333333333331 L 170.0 145.83333333333331 L 170.83333333333331 145.83333333333331 L 169.16666666666663 147.5 L 165.0 150.0 L 160.83333333333331 152.5 L 156.66666666666663 155.0 L 154.16666666666669 157.5 L 152.5 160.83333333333331 L 153.33333333333331 163.33333333333331 L 155.83333333333331 166.66666666666663 L 160.0 172.5 L 164.16666666666663 180.0 L 167.5 187.5 L 170.0 193.33333333333331 L 170.83333333333331 195.0 L 170.83333333333331 195.0 L 167.5 195.0 L 160.83333333333331 195.0 L 154.16666666666669 195.83333333333331 L 147.5 195.83333333333331 " stroke="black" fill="none" stroke-width="5.0" stroke-linecap="round" stroke-linejoin="round" />
<path d="M 126.66666666666667 170.83333333333331 L 126.66666666666667 170.83333333333331 L 125.83333333333333 170.83333333333331 L 125.83333333333333 170.0 L 125.83333333333333 170.0 L 127.49999999999999 170.0 L 135.0 169.16666666666663 L 149.16666666666669 169.16666666666663 L 166.66666666666663 169.16666666666663 L 182.5 168.33333333333331 L 192.5 167.5 L 198.33333333333331 165.83333333333331 " stroke="black" fill="none" stroke-width="5.0" stroke-linecap="round" stroke-linejoin="round" />
</svg>