<svg xmlns="http://www.w3.org/2000/svg" width="300" height="300" viewBox="0 0 300 300">
<path d="M 119.28571428571432 120.00000000000001 L 120.00000000000001 120.00000000000001 L 120.00000000000001 120.00000000000001 L 120.00000000000001 120.00000000000001 L 120.00000000000001 120.71428571428574 L 120.00000000000001 125.71428571428574 L 120.00000000000001 139.28571428571433 L 119.28571428571432 158.5714285714286 L 117.14285714285718 176.42857142857144 L 115.00000000000001 185.71428571428578 L 114.28571428571432 186.42857142857144 " stroke="black" fill="none" stroke-width="5.0" stroke-linecap="round" stroke-linejoin="round" />
<path d="M 121.42857142857146 122.14285714285718 L 121.42857142857146 122.14285714285718 L 121.42857142857146 122.14285714285718 L 121.42857142857146 122.14285714285718 L 122.14285714285718 122.14285714285718 L 122.85714285714288 122.14285714285718 L 125.00000000000001 121.42857142857146 L 126.42857142857146 121.42857142857146 L 128.5714285714286 121.42857142857146 L 130.00000000000006 122.14285714285718 L 131.42857142857144 126.42857142857146 L 134.28571428571433 137.14285714285717 L 137.8571428571429 152.8571428571429 L 140.00000000000006 167.14285714285717 L 140.71428571428572 177.14285714285717 L 141.42857142857144 181.42857142857144 L 141.42857142857144 184.28571428571433 L 140.00000000000006 185.71428571428578 L 136.42857142857144 185.71428571428578 L 135.00000000000006 185.71428571428578 " stroke="black" fill="none" stroke-width="5.0" stroke-linecap="round" stroke-linejoin="round" />
<path d="M 121.42857142857146 143.5714285714286 L 121.42857142857146 143.5714285714286 L 121.42857142857146 143.5714285714286 L 123.5714285714286 143.5714285714286 L 129.28571428571433 143.5714285714286 L 133.5714285714286 142.8571428571429 " stroke="black" fill="none" stroke-width="5.0" stroke-linecap="round" stroke-linejoin="round" />
<path d="M 118.5714285714286 162.8571428571429 L 118.5714285714286 162.8571428571429 L 119.28571428571432 162.8571428571429 L 121.42857142857146 162.8571428571429 L 126.42857142857146 162.14285714285717 L 128.5714285714286 162.14285714285717 " stroke="black" fill="none" stroke-width="5.0" stroke-linecap="round" stroke-linejoin="round" />
<path d="M 146.42857142857144 122.85714285714288 L 146.42857142857144 122.85714285714288 L 146.42857142857144 122.85714285714288 L 146.42857142857144 122.85714285714288 L 146.42857142857144 122.14285714285718 L 146.42857142857144 122.14285714285718 L 146.42857142857144 122.14285714285718 L 147.14285714285717 121.42857142857146 L 150.00000000000006 121.42857142857146 L 155.00000000000006 120.71428571428574 L 160.00000000000006 120.71428571428574 L 162.8571428571429 120.71428571428574 L 164.28571428571433 120.71428571428574 L 165.00000000000006 121.42857142857146 L 165.71428571428572 125.00000000000001 L 167.14285714285717 130.71428571428572 L 168.5714285714286 135.71428571428572 L 168.5714285714286 138.5714285714286 L 168.5714285714286 139.28571428571433 L 165.71428571428572 139.28571428571433 L 161.42857142857144 139.28571428571433 " stroke="black" fill="none" stroke-width="5.0" stroke-linecap="round" stroke-linejoin="round" />
<path d="M 150.00000000000006 125.71428571428574 L 149.28571428571433 125.71428571428574 L 147.8571428571429 126.42857142857146 L 147.8571428571429 127.85714285714288 L 148.5714285714286 134.28571428571433 L 151.42857142857144 150.00000000000006 L 153.5714285714286 170.00000000000006 L 153.5714285714286 182.14285714285717 L 154.28571428571433 183.5714285714286 L 154.28571428571433 183.5714285714286 " stroke="black" fill="none" stroke-width="5.0" stroke-linecap="round" stroke-linejoin="round" />
<path d="M 153.5714285714286 152.14285714285717 L 154.28571428571433 152.14285714285717 L 154.28571428571433 152.14285714285717 L 154.28571428571433 152.14285714285717 L 155.00000000000006 152.14285714285717 L 158.5714285714286 150.71428571428572 L 165.71428571428572 148.5714285714286 L 173.5714285714286 147.14285714285717 L 177.8571428571429 147.14285714285717 L 179.28571428571433 147.14285714285717 L 179.28571428571433 150.00000000000006 L 177.8571428571429 155.00000000000006 L 173.5714285714286 163.5714285714286 L 167.8571428571429 175.00000000000006 L 161.42857142857144 185.00000000000006 L 160.71428571428572 186.42857142857144 " stroke="black" fill="none" stroke-width="5.0" stroke-linecap="round" stroke-linejoin="round" />
<path d="M 154.28571428571433 154.28571428571433 L 155.00000000000006 154.28571428571433 L 157.14285714285717 155.00000000000006 L 162.14285714285717 160.00000000000006 L 170.71428571428572 171.42857142857144 L 179.28571428571433 183.5714285714286 L 184.28571428571433 190.71428571428578 " stroke="black" fill="none" stroke-width="5.0" stroke-linecap="round" stroke-linejoin="round" />
</svg>