<svg xmlns="http://www.w3.org/2000/svg" width="300" height="300" viewBox="0 0 300 300">
<path d="M 123.0 116.0 L 124.0 117.0 L 125.0 119.0 L 127.0 122.0 L 129.0 123.0 " stroke="black" fill="none" stroke-width="5.0" stroke-linecap="round" stroke-linejoin="round" />
<path d="M 115.0 140.0 L 117.0 140.0 L 118.0 140.0 L 122.0 140.0 L 129.0 139.0 L 133.0 139.0 " stroke="black" fill="none" stroke-width="5.0" stroke-linecap="round" stroke-linejoin="round" />
<path d="M 112.0 157.0 L 112.0 157.0 L 115.0 156.0 L 123.0 154.0 L 135.0 151.0 " stroke="black" fill="none" stroke-width="5.0" stroke-linecap="round" stroke-linejoin="round" />
<path d="M 149.0 116.0 L 149.0 116.0 L 149.0 116.0 L 149.0 116.0 L 153.0 116.0 L 161.0 115.0 L 169.0 113.0 L 174.0 113.0 L 176.0 118.0 L 174.0 128.0 L 173.0 139.0 L 175.0 145.0 L 180.0 146.0 L 185.0 146.0 " stroke="black" fill="none" stroke-width="5.0" stroke-linecap="round" stroke-linejoin="round" />
<path d="M 162.0 105.0 L 162.0 105.0 L 162.0 104.0 L 162.0 105.0 L 160.0 112.0 L 155.0 130.0 L 148.0 148.0 " stroke="black" fill="none" stroke-width="5.0" stroke-linecap="round" stroke-linejoin="round" />
<path d="M 123.0 173.0 L 123.0 173.0 L 123.0 173.0 L 124.0 173.0 L 131.0 173.0 L 147.0 172.0 L 164.0 170.0 L 175.0 169.0 L 176.0 169.0 " stroke="black" fill="none" stroke-width="5.0" stroke-linecap="round" stroke-linejoin="round" />
<path d="M 150.0 156.0 L 150.0 156.0 L 150.0 156.0 L 150.0 163.0 L 152.0 180.0 L 153.0 198.0 L 153.0 206.0 " stroke="black" fill="none" stroke-width="5.0" stroke-linecap="round" stroke-linejoin="round" />
<path d="M 152.0 175.0 L 152.0 175.0 L 152.0 175.0 L 151.0 175.0 L 148.0 177.0 L 141.0 185.0 L 128.0 196.0 L 115.0 206.0 " stroke="black" fill="none" stroke-width="5.0" stroke-linecap="round" stroke-linejoin="round" />
<path d="M 150.0 176.0 L 151.0 176.0 L 154.0 179.0 L 160.0 184.0 L 170.0 194.0 L 181.0 204.0 L 186.0 207.0 " stroke="black" fill="none" stroke-width="5.0" stroke-linecap="round" stroke-linejoin="round" />
</svg>