<svg xmlns="http://www.w3.org/2000/svg" width="300" height="300" viewBox="0 0 300 300">
<path d="M 132.0 118.0 L 132.0 118.0 L 132.0 118.0 L 132.0 118.0 L 138.0 118.0 L 150.0 118.0 L 164.0 117.0 " stroke="black" fill="none" stroke-width="5.0" stroke-linecap="round" stroke-linejoin="round" />
<path d="M 115.0 148.0 L 115.0 148.0 L 116.0 148.0 L 117.0 148.0 L 124.0 148.0 L 141.0 148.0 L 163.0 147.0 L 180.0 147.0 L 184.0 147.0 " stroke="black" fill="none" stroke-width="5.0" stroke-linecap="round" stroke-linejoin="round" />
<path d="M 149.0 102.0 L 149.0 101.0 L 149.0 101.0 L 149.0 104.0 L 149.0 118.0 L 151.0 143.0 L 154.0 170.0 L 155.0 189.0 L 155.0 198.0 L 155.0 199.0 " stroke="black" fill="none" stroke-width="5.0" stroke-linecap="round" stroke-linejoin="round" />
<path d="M 153.0 147.0 L 153.0 147.0 L 151.0 147.0 L 147.0 149.0 L 141.0 156.0 L 131.0 169.0 L 119.0 182.0 L 111.0 191.0 L 109.0 192.0 " stroke="black" fill="none" stroke-width="5.0" stroke-linecap="round" stroke-linejoin="round" />
<path d="M 149.0 155.0 L 149.0 156.0 L 152.0 159.0 L 158.0 166.0 L 171.0 178.0 L 183.0 189.0 L 191.0 194.0 " stroke="black" fill="none" stroke-width="5.0" stroke-linecap="round" stroke-linejoin="round" />
</svg>