<svg xmlns="http://www.w3.org/2000/svg" width="300" height="300" viewBox="0 0 300 300">
<path d="M 123.0 120.0 L 123.0 120.0 L 124.0 120.0 L 124.0 120.0 L 128.0 120.0 L 142.0 118.0 L 160.0 115.0 L 174.0 114.0 " stroke="black" fill="none" stroke-width="5.0" stroke-linecap="round" stroke-linejoin="round" />
<path d="M 152.0 106.0 L 153.0 106.0 L 153.0 105.0 L 154.0 104.0 L 154.0 104.0 L 153.0 108.0 L 150.0 117.0 L 142.0 132.0 L 128.0 152.0 L 118.0 164.0 " stroke="black" fill="none" stroke-width="5.0" stroke-linecap="round" stroke-linejoin="round" />
<path d="M 136.0 148.0 L 136.0 148.0 L 137.0 147.0 L 137.0 147.0 L 137.0 146.0 L 137.0 147.0 L 138.0 153.0 L 139.0 164.0 L 140.0 176.0 L 140.0 185.0 L 141.0 187.0 " stroke="black" fill="none" stroke-width="5.0" stroke-linecap="round" stroke-linejoin="round" />
<path d="M 142.0 139.0 L 142.0 139.0 L 142.0 139.0 L 142.0 139.0 L 142.0 138.0 L 146.0 137.0 L 153.0 136.0 L 162.0 134.0 L 167.0 134.0 L 170.0 134.0 L 172.0 136.0 L 174.0 140.0 L 178.0 148.0 L 181.0 159.0 L 184.0 172.0 L 184.0 181.0 L 184.0 187.0 L 182.0 189.0 L 179.0 189.0 L 173.0 189.0 L 169.0 187.0 " stroke="black" fill="none" stroke-width="5.0" stroke-linecap="round" stroke-linejoin="round" />
<path d="M 143.0 152.0 L 143.0 152.0 L 142.0 152.0 L 142.0 152.0 L 142.0 151.0 L 148.0 151.0 L 157.0 150.0 L 166.0 150.0 L 172.0 150.0 L 172.0 150.0 " stroke="black" fill="none" stroke-width="5.0" stroke-linecap="round" stroke-linejoin="round" />
<path d="M 141.0 168.0 L 142.0 169.0 L 145.0 170.0 L 150.0 170.0 L 159.0 169.0 L 170.0 168.0 L 178.0 168.0 " stroke="black" fill="none" stroke-width="5.0" stroke-linecap="round" stroke-linejoin="round" />
</svg>