<svg xmlns="http://www.w3.org/2000/svg" width="300" height="300" viewBox="0 0 300 300">
<path d="M 109.0 130.0 L 110.0 130.0 L 110.0 130.0 L 111.0 130.0 L 115.0 130.0 L 125.0 130.0 L 138.0 128.0 L 141.0 128.0 " stroke="black" fill="none" stroke-width="5.0" stroke-linecap="round" stroke-linejoin="round" />
<path d="M 120.0 111.0 L 120.0 111.0 L 120.0 111.0 L 120.0 111.0 L 121.0 112.0 L 122.0 121.0 L 124.0 141.0 L 126.0 162.0 L 128.0 177.0 L 129.0 185.0 L 130.0 187.0 " stroke="black" fill="none" stroke-width="5.0" stroke-linecap="round" stroke-linejoin="round" />
<path d="M 124.0 134.0 L 124.0 134.0 L 124.0 134.0 L 124.0 135.0 L 124.0 136.0 L 121.0 141.0 L 114.0 151.0 L 105.0 163.0 L 102.0 167.0 " stroke="black" fill="none" stroke-width="5.0" stroke-linecap="round" stroke-linejoin="round" />
<path d="M 121.0 142.0 L 122.0 142.0 L 123.0 142.0 L 127.0 145.0 L 133.0 154.0 L 139.0 164.0 L 140.0 166.0 " stroke="black" fill="none" stroke-width="5.0" stroke-linecap="round" stroke-linejoin="round" />
<path d="M 152.0 121.0 L 153.0 121.0 L 153.0 120.0 L 153.0 120.0 L 153.0 120.0 L 152.0 124.0 L 148.0 133.0 L 141.0 144.0 " stroke="black" fill="none" stroke-width="5.0" stroke-linecap="round" stroke-linejoin="round" />
<path d="M 163.0 123.0 L 164.0 123.0 L 165.0 123.0 L 168.0 125.0 L 172.0 129.0 L 177.0 134.0 L 179.0 137.0 " stroke="black" fill="none" stroke-width="5.0" stroke-linecap="round" stroke-linejoin="round" />
<path d="M 159.0 146.0 L 160.0 145.0 L 160.0 144.0 L 160.0 144.0 L 161.0 143.0 L 161.0 144.0 L 160.0 148.0 L 157.0 154.0 L 153.0 162.0 L 151.0 171.0 L 151.0 177.0 L 157.0 178.0 L 167.0 177.0 L 176.0 175.0 L 178.0 175.0 " stroke="black" fill="none" stroke-width="5.0" stroke-linecap="round" stroke-linejoin="round" />
<path d="M 176.0 160.0 L 176.0 160.0 L 177.0 161.0 L 179.0 163.0 L 182.0 170.0 L 186.0 180.0 L 189.0 189.0 L 190.0 190.0 " stroke="black" fill="none" stroke-width="5.0" stroke-linecap="round" stroke-linejoin="round" />
</svg>