<svg xmlns="http://www.w3.org/2000/svg" width="300" height="300" viewBox="0 0 300 300">
<path d="M 132.0 114.0 L 132.0 114.0 L 132.0 114.0 L 134.0 114.0 L 141.0 114.0 L 153.0 114.0 L 164.0 114.0 L 168.0 114.0 " stroke="black" fill="none" stroke-width="5.0" stroke-linecap="round" stroke-linejoin="round" />
<path d="M 126.0 129.0 L 126.0 129.0 L 126.0 129.0 L 126.0 130.0 L 126.0 132.0 L 127.0 136.0 L 128.0 140.0 " stroke="black" fill="none" stroke-width="5.0" stroke-linecap="round" stroke-linejoin="round" />
<path d="M 126.0 130.0 L 126.0 130.0 L 126.0 130.0 L 126.0 129.0 L 127.0 129.0 L 130.0 128.0 L 137.0 127.0 L 147.0 126.0 L 158.0 124.0 L 167.0 124.0 L 173.0 127.0 L 176.0 131.0 L 177.0 137.0 L 177.0 143.0 L 177.0 146.0 " stroke="black" fill="none" stroke-width="5.0" stroke-linecap="round" stroke-linejoin="round" />
<path d="M 133.0 137.0 L 132.0 137.0 L 132.0 137.0 L 131.0 137.0 L 132.0 137.0 L 137.0 137.0 L 146.0 137.0 L 156.0 137.0 L 165.0 137.0 L 171.0 137.0 L 171.0 137.0 " stroke="black" fill="none" stroke-width="5.0" stroke-linecap="round" stroke-linejoin="round" />
<path d="M 127.0 150.0 L 127.0 150.0 L 127.0 150.0 L 129.0 151.0 L 137.0 151.0 L 152.0 151.0 L 166.0 150.0 L 174.0 150.0 " stroke="black" fill="none" stroke-width="5.0" stroke-linecap="round" stroke-linejoin="round" />
<path d="M 151.0 102.0 L 151.0 100.0 L 150.0 100.0 L 150.0 101.0 L 150.0 111.0 L 152.0 128.0 L 154.0 154.0 L 156.0 179.0 L 157.0 195.0 L 158.0 199.0 L 158.0 199.0 " stroke="black" fill="none" stroke-width="5.0" stroke-linecap="round" stroke-linejoin="round" />
<path d="M 153.0 156.0 L 153.0 156.0 L 152.0 158.0 L 150.0 159.0 L 148.0 162.0 L 143.0 166.0 L 134.0 174.0 L 123.0 183.0 L 115.0 189.0 L 114.0 189.0 " stroke="black" fill="none" stroke-width="5.0" stroke-linecap="round" stroke-linejoin="round" />
<path d="M 154.0 160.0 L 155.0 162.0 L 159.0 165.0 L 167.0 174.0 L 178.0 184.0 L 188.0 190.0 L 191.0 192.0 " stroke="black" fill="none" stroke-width="5.0" stroke-linecap="round" stroke-linejoin="round" />
</svg>