<svg xmlns="http://www.w3.org/2000/svg" width="300" height="300" viewBox="0 0 300 300">
<path d="M 124.99999999999999 119.16666666666667 L 124.99999999999999 119.16666666666667 L 124.99999999999999 119.16666666666667 L 125.83333333333333 119.16666666666667 L 127.49999999999999 119.16666666666667 L 134.16666666666669 119.16666666666667 L 146.66666666666669 117.49999999999999 L 161.66666666666663 116.66666666666667 L 173.33333333333331 114.99999999999999 " stroke="black" fill="none" stroke-width="5.0" stroke-linecap="round" stroke-linejoin="round" />
<path d="M 150.0 99.99999999999999 L 150.0 99.99999999999999 L 150.0 99.99999999999999 L 150.0 102.49999999999999 L 150.83333333333331 112.49999999999999 L 151.66666666666669 127.49999999999999 L 153.33333333333331 140.0 L 153.33333333333331 141.66666666666669 " stroke="black" fill="none" stroke-width="5.0" stroke-linecap="round" stroke-linejoin="round" />
<path d="M 151.66666666666669 119.99999999999999 L 151.66666666666669 119.99999999999999 L 151.66666666666669 120.83333333333333 L 151.66666666666669 121.66666666666667 L 150.83333333333331 123.33333333333333 L 145.83333333333331 126.66666666666667 L 136.66666666666669 133.33333333333331 L 124.16666666666667 142.5 L 116.66666666666667 149.16666666666669 L 115.83333333333333 150.0 " stroke="black" fill="none" stroke-width="5.0" stroke-linecap="round" stroke-linejoin="round" />
<path d="M 151.66666666666669 121.66666666666667 L 151.66666666666669 121.66666666666667 L 151.66666666666669 121.66666666666667 L 155.0 124.16666666666667 L 165.0 132.5 L 177.5 142.5 L 183.33333333333331 147.5 " stroke="black" fill="none" stroke-width="5.0" stroke-linecap="round" stroke-linejoin="round" />
<path d="M 144.16666666666669 154.16666666666669 L 144.16666666666669 154.16666666666669 L 144.16666666666669 154.16666666666669 L 144.16666666666669 153.33333333333331 L 147.5 153.33333333333331 L 153.33333333333331 152.5 L 160.83333333333331 151.66666666666669 L 165.83333333333331 151.66666666666669 " stroke="black" fill="none" stroke-width="5.0" stroke-linecap="round" stroke-linejoin="round" />
<path d="M 123.33333333333333 169.16666666666663 L 124.16666666666667 169.16666666666663 L 124.16666666666667 169.16666666666663 L 126.66666666666667 169.16666666666663 L 134.16666666666669 168.33333333333331 L 147.5 165.83333333333331 L 162.5 164.16666666666663 L 175.0 162.5 L 181.66666666666663 161.66666666666663 L 181.66666666666663 161.66666666666663 " stroke="black" fill="none" stroke-width="5.0" stroke-linecap="round" stroke-linejoin="round" />
<path d="M 153.33333333333331 165.83333333333331 L 153.33333333333331 165.83333333333331 L 153.33333333333331 165.83333333333331 L 153.33333333333331 166.66666666666663 L 153.33333333333331 173.33333333333331 L 155.83333333333331 187.5 L 157.5 199.16666666666663 L 159.16666666666663 205.83333333333331 L 159.16666666666663 207.5 L 158.33333333333331 206.66666666666663 L 153.33333333333331 204.16666666666663 L 147.5 200.0 " stroke="black" fill="none" stroke-width="5.0" stroke-linecap="round" stroke-linejoin="round" />
<path d="M 144.16666666666669 177.5 L 143.33333333333331 177.5 L 141.66666666666669 178.33333333333331 L 140.0 179.16666666666663 L 137.5 182.5 L 131.66666666666669 189.16666666666663 L 128.33333333333331 193.33333333333331 " stroke="black" fill="none" stroke-width="5.0" stroke-linecap="round" stroke-linejoin="round" />
<path d="M 178.33333333333331 175.83333333333331 L 180.83333333333331 177.5 L 183.33333333333331 181.66666666666663 L 187.5 190.0 L 190.83333333333331 197.5 L 192.5 200.0 " stroke="black" fill="none" stroke-width="5.0" stroke-linecap="round" stroke-linejoin="round" />
</svg>