<svg xmlns="http://www.w3.org/2000/svg" width="300" height="300" viewBox="0 0 300 300">
<path d="M 117.0 118.0 L 117.0 118.0 L 118.0 118.0 L 118.0 118.0 L 118.0 119.0 L 119.0 119.0 L 121.0 119.0 L 127.0 119.0 L 136.0 117.0 L 138.0 117.0 " stroke="black" fill="none" stroke-width="5.0" stroke-linecap="round" stroke-linejoin="round" />
<path d="M 127.0 99.0 L 127.0 98.0 L 127.0 98.0 L 127.0 99.0 L 127.0 110.0 L 129.0 131.0 L 130.0 156.0 L 130.0 172.0 L 130.0 183.0 L 130.0 188.0 L 130.0 189.0 L 130.0 187.0 " stroke="black" fill="none" stroke-width="5.0" stroke-linecap="round" stroke-linejoin="round" />
<path d="M 124.0 129.0 L 125.0 129.0 L 125.0 129.0 L 125.0 129.0 L 125.0 131.0 L 122.0 140.0 L 115.0 152.0 L 109.0 164.0 L 106.0 170.0 " stroke="black" fill="none" stroke-width="5.0" stroke-linecap="round" stroke-linejoin="round" />
<path d="M 131.0 133.0 L 131.0 133.0 L 131.0 133.0 L 131.0 133.0 L 134.0 137.0 L 141.0 150.0 L 148.0 162.0 L 149.0 165.0 " stroke="black" fill="none" stroke-width="5.0" stroke-linecap="round" stroke-linejoin="round" />
<path d="M 152.0 126.0 L 152.0 126.0 L 152.0 126.0 L 152.0 127.0 L 153.0 129.0 L 153.0 132.0 L 153.0 134.0 " stroke="black" fill="none" stroke-width="5.0" stroke-linecap="round" stroke-linejoin="round" />
<path d="M 153.0 124.0 L 153.0 124.0 L 154.0 124.0 L 155.0 124.0 L 159.0 124.0 L 167.0 124.0 L 177.0 124.0 L 186.0 124.0 L 193.0 124.0 L 196.0 124.0 L 197.0 126.0 L 197.0 129.0 L 197.0 134.0 L 197.0 138.0 L 197.0 139.0 " stroke="black" fill="none" stroke-width="5.0" stroke-linecap="round" stroke-linejoin="round" />
<path d="M 169.0 106.0 L 169.0 106.0 L 169.0 106.0 L 169.0 106.0 L 168.0 113.0 L 167.0 130.0 L 162.0 153.0 L 156.0 169.0 L 150.0 181.0 L 146.0 188.0 " stroke="black" fill="none" stroke-width="5.0" stroke-linecap="round" stroke-linejoin="round" />
<path d="M 173.0 146.0 L 173.0 144.0 L 174.0 144.0 L 174.0 143.0 L 174.0 146.0 L 174.0 152.0 L 174.0 162.0 L 174.0 172.0 L 175.0 181.0 L 179.0 186.0 L 186.0 187.0 L 193.0 187.0 L 199.0 185.0 L 201.0 184.0 L 203.0 183.0 L 204.0 182.0 L 205.0 181.0 L 206.0 175.0 L 206.0 169.0 " stroke="black" fill="none" stroke-width="5.0" stroke-linecap="round" stroke-linejoin="round" />
</svg>