<svg xmlns="http://www.w3.org/2000/svg" width="300" height="300" viewBox="0 0 300 300">
<path d="M 113.0 123.0 L 113.0 123.0 L 114.0 123.0 L 116.0 123.0 L 122.0 122.0 L 131.0 121.0 L 137.0 120.0 L 139.0 120.0 " stroke="black" fill="none" stroke-width="5.0" stroke-linecap="round" stroke-linejoin="round" />
<path d="M 128.0 100.0 L 128.0 100.0 L 127.0 100.0 L 127.0 101.0 L 127.0 106.0 L 128.0 116.0 L 131.0 135.0 L 132.0 156.0 L 132.0 172.0 L 132.0 180.0 L 132.0 183.0 L 132.0 183.0 " stroke="black" fill="none" stroke-width="5.0" stroke-linecap="round" stroke-linejoin="round" />
<path d="M 130.0 132.0 L 130.0 132.0 L 130.0 132.0 L 129.0 132.0 L 128.0 132.0 L 126.0 135.0 L 122.0 143.0 L 115.0 153.0 L 110.0 163.0 L 108.0 166.0 " stroke="black" fill="none" stroke-width="5.0" stroke-linecap="round" stroke-linejoin="round" />
<path d="M 126.0 141.0 L 126.0 140.0 L 127.0 140.0 L 129.0 139.0 L 133.0 142.0 L 139.0 150.0 L 144.0 160.0 L 145.0 162.0 " stroke="black" fill="none" stroke-width="5.0" stroke-linecap="round" stroke-linejoin="round" />
<path d="M 152.0 119.0 L 152.0 119.0 L 152.0 119.0 L 155.0 119.0 L 160.0 119.0 L 167.0 119.0 L 172.0 118.0 L 175.0 117.0 L 175.0 117.0 " stroke="black" fill="none" stroke-width="5.0" stroke-linecap="round" stroke-linejoin="round" />
<path d="M 148.0 131.0 L 148.0 131.0 L 148.0 131.0 L 150.0 131.0 L 158.0 131.0 L 169.0 131.0 L 177.0 130.0 L 181.0 130.0 " stroke="black" fill="none" stroke-width="5.0" stroke-linecap="round" stroke-linejoin="round" />
<path d="M 163.0 108.0 L 163.0 108.0 L 163.0 110.0 L 163.0 113.0 L 165.0 120.0 L 166.0 126.0 " stroke="black" fill="none" stroke-width="5.0" stroke-linecap="round" stroke-linejoin="round" />
<path d="M 154.0 149.0 L 154.0 149.0 L 154.0 149.0 L 156.0 149.0 L 162.0 149.0 L 170.0 148.0 L 177.0 147.0 L 180.0 147.0 " stroke="black" fill="none" stroke-width="5.0" stroke-linecap="round" stroke-linejoin="round" />
<path d="M 147.0 177.0 L 146.0 178.0 L 145.0 179.0 L 147.0 180.0 L 153.0 180.0 L 163.0 180.0 L 176.0 179.0 L 188.0 179.0 L 191.0 179.0 " stroke="black" fill="none" stroke-width="5.0" stroke-linecap="round" stroke-linejoin="round" />
<path d="M 165.0 136.0 L 166.0 138.0 L 167.0 143.0 L 169.0 154.0 L 171.0 165.0 L 172.0 173.0 L 172.0 174.0 " stroke="black" fill="none" stroke-width="5.0" stroke-linecap="round" stroke-linejoin="round" />
</svg>