<svg xmlns="http://www.w3.org/2000/svg" width="300" height="300" viewBox="0 0 300 300">
<path d="M 113.0 137.0 L 113.0 137.0 L 113.0 137.0 L 115.0 137.0 L 124.0 135.0 L 136.0 134.0 L 138.0 134.0 " stroke="black" fill="none" stroke-width="5.0" stroke-linecap="round" stroke-linejoin="round" />
<path d="M 124.0 117.0 L 124.0 117.0 L 122.0 119.0 L 123.0 126.0 L 126.0 143.0 L 127.0 166.0 L 127.0 182.0 L 127.0 189.0 " stroke="black" fill="none" stroke-width="5.0" stroke-linecap="round" stroke-linejoin="round" />
<path d="M 126.0 143.0 L 126.0 143.0 L 127.0 142.0 L 127.0 142.0 L 125.0 145.0 L 119.0 154.0 L 110.0 168.0 L 102.0 179.0 " stroke="black" fill="none" stroke-width="5.0" stroke-linecap="round" stroke-linejoin="round" />
<path d="M 128.0 146.0 L 128.0 147.0 L 132.0 152.0 L 138.0 159.0 L 145.0 168.0 L 146.0 170.0 " stroke="black" fill="none" stroke-width="5.0" stroke-linecap="round" stroke-linejoin="round" />
<path d="M 155.0 116.0 L 155.0 116.0 L 155.0 116.0 L 155.0 116.0 L 158.0 116.0 L 163.0 115.0 L 167.0 115.0 L 171.0 115.0 L 174.0 116.0 L 176.0 120.0 L 178.0 127.0 L 180.0 137.0 L 180.0 144.0 L 180.0 145.0 " stroke="black" fill="none" stroke-width="5.0" stroke-linecap="round" stroke-linejoin="round" />
<path d="M 156.0 129.0 L 156.0 130.0 L 156.0 130.0 L 157.0 131.0 L 160.0 131.0 L 168.0 130.0 L 175.0 130.0 " stroke="black" fill="none" stroke-width="5.0" stroke-linecap="round" stroke-linejoin="round" />
<path d="M 150.0 145.0 L 151.0 145.0 L 154.0 146.0 L 160.0 146.0 L 169.0 144.0 L 174.0 143.0 " stroke="black" fill="none" stroke-width="5.0" stroke-linecap="round" stroke-linejoin="round" />
<path d="M 150.0 123.0 L 149.0 123.0 L 148.0 124.0 L 148.0 128.0 L 148.0 139.0 L 148.0 159.0 L 149.0 180.0 L 152.0 192.0 L 157.0 194.0 L 164.0 191.0 L 171.0 186.0 " stroke="black" fill="none" stroke-width="5.0" stroke-linecap="round" stroke-linejoin="round" />
<path d="M 154.0 155.0 L 154.0 155.0 L 156.0 155.0 L 161.0 161.0 L 171.0 174.0 L 180.0 187.0 L 185.0 193.0 L 186.0 194.0 " stroke="black" fill="none" stroke-width="5.0" stroke-linecap="round" stroke-linejoin="round" />
<path d="M 172.0 181.0 L 172.0 181.0 L 172.0 180.0 L 173.0 180.0 L 175.0 178.0 L 179.0 174.0 L 186.0 168.0 L 188.0 167.0 " stroke="black" fill="none" stroke-width="5.0" stroke-linecap="round" stroke-linejoin="round" />
</svg>