<svg xmlns="http://www.w3.org/2000/svg" width="300" height="300" viewBox="0 0 300 300">
<path d="M 126.0 114.0 L 126.0 113.0 L 126.0 112.0 L 126.0 112.0 L 126.0 115.0 L 126.0 124.0 L 121.0 139.0 L 112.0 158.0 L 102.0 174.0 L 100.0 177.0 " stroke="black" fill="none" stroke-width="5.0" stroke-linecap="round" stroke-linejoin="round" />
<path d="M 117.0 150.0 L 117.0 150.0 L 117.0 150.0 L 117.0 150.0 L 117.0 153.0 L 118.0 163.0 L 119.0 178.0 L 119.0 188.0 " stroke="black" fill="none" stroke-width="5.0" stroke-linecap="round" stroke-linejoin="round" />
<path d="M 134.0 142.0 L 134.0 142.0 L 133.0 142.0 L 133.0 143.0 L 133.0 149.0 L 134.0 162.0 L 135.0 171.0 " stroke="black" fill="none" stroke-width="5.0" stroke-linecap="round" stroke-linejoin="round" />
<path d="M 154.0 110.0 L 155.0 110.0 L 155.0 111.0 L 155.0 114.0 L 154.0 119.0 L 149.0 127.0 L 146.0 133.0 " stroke="black" fill="none" stroke-width="5.0" stroke-linecap="round" stroke-linejoin="round" />
<path d="M 153.0 124.0 L 153.0 124.0 L 153.0 124.0 L 154.0 125.0 L 156.0 125.0 L 163.0 125.0 L 172.0 125.0 L 179.0 126.0 " stroke="black" fill="none" stroke-width="5.0" stroke-linecap="round" stroke-linejoin="round" />
<path d="M 171.0 130.0 L 171.0 130.0 L 171.0 130.0 L 171.0 131.0 L 170.0 133.0 L 166.0 140.0 L 159.0 152.0 L 150.0 163.0 " stroke="black" fill="none" stroke-width="5.0" stroke-linecap="round" stroke-linejoin="round" />
<path d="M 152.0 135.0 L 152.0 135.0 L 154.0 135.0 L 157.0 137.0 L 164.0 144.0 L 173.0 153.0 L 182.0 160.0 L 184.0 162.0 " stroke="black" fill="none" stroke-width="5.0" stroke-linecap="round" stroke-linejoin="round" />
<path d="M 146.0 176.0 L 146.0 176.0 L 146.0 176.0 L 148.0 175.0 L 156.0 173.0 L 170.0 170.0 L 183.0 168.0 L 186.0 168.0 " stroke="black" fill="none" stroke-width="5.0" stroke-linecap="round" stroke-linejoin="round" />
<path d="M 163.0 159.0 L 163.0 158.0 L 163.0 157.0 L 163.0 158.0 L 165.0 167.0 L 167.0 182.0 L 168.0 195.0 L 169.0 201.0 " stroke="black" fill="none" stroke-width="5.0" stroke-linecap="round" stroke-linejoin="round" />
<path d="M 164.0 177.0 L 163.0 177.0 L 161.0 178.0 L 159.0 180.0 L 155.0 184.0 L 148.0 191.0 L 143.0 196.0 " stroke="black" fill="none" stroke-width="5.0" stroke-linecap="round" stroke-linejoin="round" />
<path d="M 167.0 180.0 L 168.0 180.0 L 172.0 180.0 L 181.0 185.0 L 188.0 190.0 " stroke="black" fill="none" stroke-width="5.0" stroke-linecap="round" stroke-linejoin="round" />
</svg>