<svg xmlns="http://www.w3.org/2000/svg" width="300" height="300" viewBox="0 0 300 300">
<path d="M 148.0 107.0 L 148.0 107.0 L 148.0 107.0 L 148.0 108.0 L 148.0 113.0 L 149.0 122.0 L 149.0 130.0 L 149.0 135.0 " stroke="black" fill="none" stroke-width="5.0" stroke-linecap="round" stroke-linejoin="round" />
<path d="M 126.0 119.0 L 126.0 119.0 L 126.0 120.0 L 126.0 121.0 L 127.0 123.0 L 130.0 126.0 L 134.0 128.0 " stroke="black" fill="none" stroke-width="5.0" stroke-linecap="round" stroke-linejoin="round" />
<path d="M 173.0 116.0 L 172.0 118.0 L 169.0 121.0 L 167.0 124.0 L 165.0 128.0 L 164.0 129.0 " stroke="black" fill="none" stroke-width="5.0" stroke-linecap="round" stroke-linejoin="round" />
<path d="M 119.0 143.0 L 119.0 143.0 L 119.0 143.0 L 119.0 144.0 L 119.0 146.0 L 121.0 150.0 L 123.0 154.0 L 123.0 157.0 " stroke="black" fill="none" stroke-width="5.0" stroke-linecap="round" stroke-linejoin="round" />
<path d="M 118.0 142.0 L 118.0 142.0 L 119.0 141.0 L 121.0 140.0 L 127.0 139.0 L 139.0 136.0 L 154.0 133.0 L 165.0 132.0 L 172.0 133.0 L 177.0 136.0 L 179.0 138.0 L 182.0 139.0 L 184.0 142.0 L 185.0 147.0 L 185.0 153.0 L 184.0 154.0 " stroke="black" fill="none" stroke-width="5.0" stroke-linecap="round" stroke-linejoin="round" />
<path d="M 139.0 151.0 L 139.0 151.0 L 139.0 151.0 L 139.0 151.0 L 139.0 153.0 L 140.0 156.0 L 141.0 158.0 " stroke="black" fill="none" stroke-width="5.0" stroke-linecap="round" stroke-linejoin="round" />
<path d="M 141.0 150.0 L 141.0 150.0 L 142.0 150.0 L 143.0 150.0 L 148.0 149.0 L 154.0 148.0 L 160.0 148.0 L 163.0 149.0 L 165.0 154.0 L 164.0 159.0 L 162.0 163.0 " stroke="black" fill="none" stroke-width="5.0" stroke-linecap="round" stroke-linejoin="round" />
<path d="M 142.0 165.0 L 143.0 166.0 L 146.0 166.0 L 152.0 167.0 L 160.0 168.0 L 166.0 168.0 " stroke="black" fill="none" stroke-width="5.0" stroke-linecap="round" stroke-linejoin="round" />
<path d="M 125.0 188.0 L 125.0 187.0 L 125.0 187.0 L 126.0 186.0 L 131.0 186.0 L 142.0 184.0 L 158.0 182.0 L 173.0 180.0 L 179.0 180.0 " stroke="black" fill="none" stroke-width="5.0" stroke-linecap="round" stroke-linejoin="round" />
<path d="M 153.0 170.0 L 153.0 170.0 L 153.0 170.0 L 153.0 170.0 L 154.0 171.0 L 155.0 179.0 L 158.0 194.0 L 159.0 207.0 L 160.0 213.0 " stroke="black" fill="none" stroke-width="5.0" stroke-linecap="round" stroke-linejoin="round" />
<path d="M 155.0 188.0 L 155.0 188.0 L 155.0 188.0 L 154.0 188.0 L 152.0 190.0 L 147.0 195.0 L 139.0 205.0 L 130.0 214.0 L 128.0 216.0 " stroke="black" fill="none" stroke-width="5.0" stroke-linecap="round" stroke-linejoin="round" />
<path d="M 166.0 189.0 L 168.0 190.0 L 172.0 192.0 L 179.0 196.0 L 188.0 202.0 L 193.0 206.0 " stroke="black" fill="none" stroke-width="5.0" stroke-linecap="round" stroke-linejoin="round" />
</svg>