<svg xmlns="http://www.w3.org/2000/svg" width="300" height="300" viewBox="0 0 300 300">
<path d="M 137.0 99.0 L 137.0 100.0 L 136.0 100.0 L 135.0 101.0 L 134.0 103.0 L 129.0 108.0 L 121.0 116.0 L 117.0 120.0 " stroke="black" fill="none" stroke-width="5.0" stroke-linecap="round" stroke-linejoin="round" />
<path d="M 111.0 132.0 L 110.0 134.0 L 110.0 134.0 L 113.0 134.0 L 122.0 132.0 L 135.0 129.0 L 144.0 128.0 " stroke="black" fill="none" stroke-width="5.0" stroke-linecap="round" stroke-linejoin="round" />
<path d="M 128.0 107.0 L 128.0 107.0 L 127.0 107.0 L 127.0 112.0 L 128.0 124.0 L 130.0 139.0 L 130.0 151.0 L 130.0 157.0 L 130.0 159.0 " stroke="black" fill="none" stroke-width="5.0" stroke-linecap="round" stroke-linejoin="round" />
<path d="M 132.0 130.0 L 131.0 130.0 L 130.0 130.0 L 128.0 132.0 L 125.0 136.0 L 119.0 144.0 L 112.0 152.0 L 108.0 157.0 " stroke="black" fill="none" stroke-width="5.0" stroke-linecap="round" stroke-linejoin="round" />
<path d="M 128.0 141.0 L 129.0 142.0 L 132.0 144.0 L 139.0 147.0 L 147.0 151.0 " stroke="black" fill="none" stroke-width="5.0" stroke-linecap="round" stroke-linejoin="round" />
<path d="M 160.0 117.0 L 160.0 117.0 L 160.0 117.0 L 160.0 118.0 L 160.0 122.0 L 160.0 129.0 L 160.0 132.0 " stroke="black" fill="none" stroke-width="5.0" stroke-linecap="round" stroke-linejoin="round" />
<path d="M 174.0 102.0 L 174.0 102.0 L 174.0 102.0 L 174.0 104.0 L 176.0 114.0 L 180.0 133.0 L 183.0 149.0 L 184.0 156.0 L 184.0 159.0 L 182.0 159.0 L 177.0 159.0 L 168.0 157.0 L 165.0 156.0 " stroke="black" fill="none" stroke-width="5.0" stroke-linecap="round" stroke-linejoin="round" />
<path d="M 116.0 177.0 L 116.0 177.0 L 116.0 177.0 L 117.0 177.0 L 120.0 177.0 L 133.0 177.0 L 153.0 176.0 L 172.0 174.0 L 183.0 173.0 L 184.0 173.0 " stroke="black" fill="none" stroke-width="5.0" stroke-linecap="round" stroke-linejoin="round" />
<path d="M 152.0 159.0 L 152.0 159.0 L 152.0 160.0 L 152.0 165.0 L 152.0 178.0 L 152.0 195.0 L 152.0 206.0 L 153.0 209.0 " stroke="black" fill="none" stroke-width="5.0" stroke-linecap="round" stroke-linejoin="round" />
<path d="M 141.0 187.0 L 140.0 187.0 L 139.0 187.0 L 137.0 188.0 L 133.0 189.0 L 127.0 194.0 L 118.0 200.0 L 114.0 203.0 " stroke="black" fill="none" stroke-width="5.0" stroke-linecap="round" stroke-linejoin="round" />
<path d="M 159.0 189.0 L 162.0 189.0 L 165.0 190.0 L 171.0 193.0 L 179.0 200.0 L 187.0 206.0 L 191.0 211.0 " stroke="black" fill="none" stroke-width="5.0" stroke-linecap="round" stroke-linejoin="round" />
</svg>