<svg xmlns="http://www.w3.org/2000/svg" width="300" height="300" viewBox="0 0 300 300">
<path d="M 115.0 110.0 L 115.0 110.0 L 115.0 111.0 L 115.0 112.0 L 116.0 114.0 L 117.0 117.0 L 120.0 120.0 L 122.0 121.0 " stroke="black" fill="none" stroke-width="5.0" stroke-linecap="round" stroke-linejoin="round" />
<path d="M 140.0 106.0 L 140.0 106.0 L 140.0 108.0 L 140.0 110.0 L 139.0 113.0 L 137.0 116.0 L 136.0 119.0 " stroke="black" fill="none" stroke-width="5.0" stroke-linecap="round" stroke-linejoin="round" />
<path d="M 129.0 100.0 L 129.0 101.0 L 129.0 103.0 L 129.0 109.0 L 127.0 118.0 L 123.0 128.0 L 119.0 135.0 " stroke="black" fill="none" stroke-width="5.0" stroke-linecap="round" stroke-linejoin="round" />
<path d="M 123.0 124.0 L 124.0 124.0 L 126.0 126.0 L 129.0 128.0 L 136.0 132.0 L 143.0 136.0 L 147.0 138.0 " stroke="black" fill="none" stroke-width="5.0" stroke-linecap="round" stroke-linejoin="round" />
<path d="M 151.0 111.0 L 151.0 113.0 L 151.0 115.0 L 151.0 117.0 L 153.0 117.0 " stroke="black" fill="none" stroke-width="5.0" stroke-linecap="round" stroke-linejoin="round" />
<path d="M 174.0 105.0 L 174.0 106.0 L 174.0 109.0 L 174.0 112.0 L 174.0 116.0 L 173.0 119.0 L 170.0 121.0 " stroke="black" fill="none" stroke-width="5.0" stroke-linecap="round" stroke-linejoin="round" />
<path d="M 165.0 100.0 L 167.0 100.0 L 167.0 100.0 L 167.0 104.0 L 166.0 110.0 L 162.0 118.0 L 157.0 127.0 L 154.0 131.0 " stroke="black" fill="none" stroke-width="5.0" stroke-linecap="round" stroke-linejoin="round" />
<path d="M 163.0 121.0 L 165.0 122.0 L 166.0 124.0 L 170.0 128.0 L 176.0 133.0 L 179.0 136.0 " stroke="black" fill="none" stroke-width="5.0" stroke-linecap="round" stroke-linejoin="round" />
<path d="M 122.0 148.0 L 122.0 148.0 L 122.0 148.0 L 123.0 148.0 L 123.0 148.0 L 123.0 148.0 L 123.0 148.0 L 123.0 151.0 L 123.0 154.0 L 123.0 157.0 L 123.0 157.0 " stroke="black" fill="none" stroke-width="5.0" stroke-linecap="round" stroke-linejoin="round" />
<path d="M 120.0 150.0 L 120.0 150.0 L 121.0 150.0 L 122.0 149.0 L 124.0 149.0 L 131.0 148.0 L 144.0 145.0 L 158.0 143.0 L 168.0 142.0 L 174.0 142.0 L 177.0 144.0 L 178.0 148.0 L 179.0 153.0 L 179.0 157.0 L 178.0 160.0 " stroke="black" fill="none" stroke-width="5.0" stroke-linecap="round" stroke-linejoin="round" />
<path d="M 124.0 170.0 L 124.0 170.0 L 124.0 170.0 L 124.0 171.0 L 125.0 171.0 L 128.0 171.0 L 135.0 170.0 L 144.0 168.0 L 154.0 167.0 L 161.0 166.0 " stroke="black" fill="none" stroke-width="5.0" stroke-linecap="round" stroke-linejoin="round" />
<path d="M 145.0 152.0 L 145.0 152.0 L 145.0 152.0 L 145.0 153.0 L 146.0 157.0 L 148.0 170.0 L 150.0 189.0 L 152.0 203.0 L 152.0 205.0 " stroke="black" fill="none" stroke-width="5.0" stroke-linecap="round" stroke-linejoin="round" />
<path d="M 148.0 173.0 L 148.0 173.0 L 148.0 173.0 L 148.0 174.0 L 146.0 176.0 L 141.0 182.0 L 132.0 191.0 L 123.0 200.0 L 119.0 203.0 " stroke="black" fill="none" stroke-width="5.0" stroke-linecap="round" stroke-linejoin="round" />
<path d="M 149.0 172.0 L 151.0 174.0 L 156.0 178.0 L 164.0 186.0 L 174.0 197.0 L 181.0 203.0 L 184.0 206.0 L 185.0 206.0 " stroke="black" fill="none" stroke-width="5.0" stroke-linecap="round" stroke-linejoin="round" />
</svg>