<svg xmlns="http://www.w3.org/2000/svg" width="300" height="300" viewBox="0 0 300 300">
<path d="M 112.0 134.0 L 113.0 134.0 L 113.0 134.0 L 113.0 135.0 L 114.0 135.0 L 116.0 135.0 L 121.0 135.0 L 128.0 134.0 L 134.0 133.0 " stroke="black" fill="none" stroke-width="5.0" stroke-linecap="round" stroke-linejoin="round" />
<path d="M 123.0 109.0 L 123.0 108.0 L 123.0 107.0 L 123.0 107.0 L 123.0 109.0 L 123.0 120.0 L 125.0 140.0 L 126.0 164.0 L 126.0 183.0 L 127.0 190.0 L 128.0 192.0 L 128.0 192.0 " stroke="black" fill="none" stroke-width="5.0" stroke-linecap="round" stroke-linejoin="round" />
<path d="M 122.0 143.0 L 122.0 143.0 L 122.0 143.0 L 122.0 143.0 L 120.0 146.0 L 117.0 152.0 L 112.0 161.0 L 107.0 170.0 " stroke="black" fill="none" stroke-width="5.0" stroke-linecap="round" stroke-linejoin="round" />
<path d="M 123.0 147.0 L 123.0 147.0 L 124.0 147.0 L 126.0 149.0 L 132.0 156.0 L 140.0 167.0 L 147.0 176.0 L 149.0 178.0 " stroke="black" fill="none" stroke-width="5.0" stroke-linecap="round" stroke-linejoin="round" />
<path d="M 152.0 121.0 L 152.0 121.0 L 152.0 121.0 L 152.0 121.0 L 154.0 121.0 L 160.0 119.0 L 166.0 118.0 L 169.0 118.0 L 170.0 118.0 " stroke="black" fill="none" stroke-width="5.0" stroke-linecap="round" stroke-linejoin="round" />
<path d="M 157.0 125.0 L 157.0 125.0 L 156.0 125.0 L 156.0 126.0 L 155.0 129.0 L 154.0 134.0 L 153.0 139.0 L 153.0 142.0 L 154.0 143.0 L 157.0 142.0 L 161.0 141.0 L 163.0 141.0 L 166.0 141.0 L 169.0 144.0 L 172.0 151.0 L 176.0 161.0 L 180.0 174.0 L 182.0 184.0 L 183.0 191.0 L 182.0 194.0 L 180.0 194.0 L 175.0 194.0 L 167.0 191.0 L 162.0 189.0 " stroke="black" fill="none" stroke-width="5.0" stroke-linecap="round" stroke-linejoin="round" />
<path d="M 152.0 158.0 L 152.0 158.0 L 152.0 158.0 L 152.0 159.0 L 152.0 160.0 L 152.0 162.0 L 152.0 163.0 " stroke="black" fill="none" stroke-width="5.0" stroke-linecap="round" stroke-linejoin="round" />
<path d="M 153.0 159.0 L 153.0 159.0 L 154.0 158.0 L 154.0 158.0 L 154.0 157.0 L 156.0 157.0 L 158.0 157.0 L 160.0 158.0 L 161.0 161.0 L 161.0 164.0 L 161.0 167.0 " stroke="black" fill="none" stroke-width="5.0" stroke-linecap="round" stroke-linejoin="round" />
<path d="M 152.0 167.0 L 152.0 167.0 L 152.0 167.0 L 153.0 167.0 L 156.0 167.0 L 160.0 167.0 " stroke="black" fill="none" stroke-width="5.0" stroke-linecap="round" stroke-linejoin="round" />
<path d="M 180.0 150.0 L 180.0 150.0 L 181.0 150.0 L 183.0 150.0 L 186.0 150.0 L 189.0 150.0 L 191.0 150.0 L 192.0 154.0 L 192.0 161.0 L 189.0 169.0 L 188.0 173.0 " stroke="black" fill="none" stroke-width="5.0" stroke-linecap="round" stroke-linejoin="round" />
<path d="M 184.0 158.0 L 184.0 159.0 L 186.0 161.0 L 189.0 164.0 L 193.0 166.0 L 195.0 168.0 " stroke="black" fill="none" stroke-width="5.0" stroke-linecap="round" stroke-linejoin="round" />
<path d="M 153.0 200.0 L 153.0 200.0 L 153.0 200.0 L 156.0 200.0 L 167.0 199.0 L 182.0 197.0 L 196.0 195.0 L 202.0 195.0 " stroke="black" fill="none" stroke-width="5.0" stroke-linecap="round" stroke-linejoin="round" />
</svg>