<svg xmlns="http://www.w3.org/2000/svg" width="300" height="300" viewBox="0 0 300 300">
<path d="M 137.0 113.0 L 137.0 113.0 L 137.0 114.0 L 137.0 114.0 L 137.0 115.0 L 138.0 119.0 L 140.0 124.0 L 141.0 130.0 L 141.0 132.0 " stroke="black" fill="none" stroke-width="5.0" stroke-linecap="round" stroke-linejoin="round" />
<path d="M 151.0 117.0 L 151.0 117.0 L 151.0 120.0 L 151.0 123.0 L 151.0 127.0 L 152.0 132.0 " stroke="black" fill="none" stroke-width="5.0" stroke-linecap="round" stroke-linejoin="round" />
<path d="M 130.0 123.0 L 131.0 124.0 L 133.0 125.0 L 136.0 127.0 L 139.0 127.0 " stroke="black" fill="none" stroke-width="5.0" stroke-linecap="round" stroke-linejoin="round" />
<path d="M 163.0 123.0 L 163.0 126.0 L 163.0 128.0 L 161.0 130.0 L 160.0 132.0 " stroke="black" fill="none" stroke-width="5.0" stroke-linecap="round" stroke-linejoin="round" />
<path d="M 124.0 141.0 L 124.0 141.0 L 124.0 141.0 L 125.0 141.0 L 128.0 141.0 L 139.0 140.0 L 152.0 138.0 L 163.0 138.0 L 165.0 138.0 " stroke="black" fill="none" stroke-width="5.0" stroke-linecap="round" stroke-linejoin="round" />
<path d="M 138.0 143.0 L 138.0 143.0 L 138.0 143.0 L 138.0 144.0 L 139.0 146.0 L 141.0 150.0 L 143.0 152.0 " stroke="black" fill="none" stroke-width="5.0" stroke-linecap="round" stroke-linejoin="round" />
<path d="M 155.0 142.0 L 155.0 142.0 L 155.0 142.0 L 155.0 144.0 L 155.0 147.0 L 155.0 149.0 " stroke="black" fill="none" stroke-width="5.0" stroke-linecap="round" stroke-linejoin="round" />
<path d="M 124.0 161.0 L 125.0 161.0 L 126.0 161.0 L 129.0 161.0 L 135.0 161.0 L 146.0 159.0 L 158.0 157.0 L 168.0 155.0 L 172.0 154.0 " stroke="black" fill="none" stroke-width="5.0" stroke-linecap="round" stroke-linejoin="round" />
<path d="M 136.0 177.0 L 137.0 177.0 L 139.0 176.0 L 141.0 176.0 L 147.0 175.0 L 154.0 175.0 L 159.0 175.0 L 162.0 175.0 L 162.0 175.0 " stroke="black" fill="none" stroke-width="5.0" stroke-linecap="round" stroke-linejoin="round" />
<path d="M 129.0 193.0 L 133.0 193.0 L 140.0 193.0 L 149.0 193.0 L 160.0 193.0 L 170.0 192.0 L 173.0 192.0 " stroke="black" fill="none" stroke-width="5.0" stroke-linecap="round" stroke-linejoin="round" />
<path d="M 148.0 160.0 L 148.0 160.0 L 148.0 162.0 L 149.0 170.0 L 152.0 186.0 L 153.0 204.0 L 154.0 216.0 L 154.0 219.0 " stroke="black" fill="none" stroke-width="5.0" stroke-linecap="round" stroke-linejoin="round" />
<path d="M 150.0 196.0 L 150.0 196.0 L 150.0 197.0 L 149.0 198.0 L 147.0 201.0 L 141.0 207.0 L 130.0 216.0 L 118.0 225.0 L 114.0 228.0 " stroke="black" fill="none" stroke-width="5.0" stroke-linecap="round" stroke-linejoin="round" />
<path d="M 153.0 206.0 L 157.0 207.0 L 163.0 209.0 L 172.0 213.0 L 180.0 219.0 L 185.0 225.0 " stroke="black" fill="none" stroke-width="5.0" stroke-linecap="round" stroke-linejoin="round" />
</svg>