<svg xmlns="http://www.w3.org/2000/svg" width="300" height="300" viewBox="0 0 300 300">
<path d="M 115.0 125.0 L 116.0 126.0 L 117.0 126.0 L 119.0 126.0 L 121.0 126.0 L 127.0 126.0 L 135.0 126.0 L 140.0 126.0 " stroke="black" fill="none" stroke-width="5.0" stroke-linecap="round" stroke-linejoin="round" />
<path d="M 126.0 103.0 L 126.0 103.0 L 126.0 103.0 L 126.0 106.0 L 126.0 119.0 L 127.0 141.0 L 128.0 162.0 L 128.0 178.0 L 128.0 187.0 L 127.0 190.0 " stroke="black" fill="none" stroke-width="5.0" stroke-linecap="round" stroke-linejoin="round" />
<path d="M 126.0 135.0 L 126.0 135.0 L 126.0 135.0 L 125.0 136.0 L 122.0 142.0 L 117.0 153.0 L 111.0 163.0 L 106.0 171.0 L 105.0 172.0 " stroke="black" fill="none" stroke-width="5.0" stroke-linecap="round" stroke-linejoin="round" />
<path d="M 126.0 143.0 L 129.0 143.0 L 132.0 143.0 L 137.0 147.0 L 144.0 153.0 L 150.0 160.0 L 151.0 163.0 " stroke="black" fill="none" stroke-width="5.0" stroke-linecap="round" stroke-linejoin="round" />
<path d="M 157.0 110.0 L 157.0 110.0 L 157.0 110.0 L 157.0 110.0 L 157.0 110.0 L 157.0 110.0 L 157.0 114.0 L 157.0 120.0 L 157.0 126.0 L 157.0 131.0 L 160.0 132.0 L 165.0 132.0 L 170.0 131.0 L 174.0 131.0 " stroke="black" fill="none" stroke-width="5.0" stroke-linecap="round" stroke-linejoin="round" />
<path d="M 171.0 109.0 L 172.0 109.0 L 172.0 109.0 L 173.0 111.0 L 173.0 115.0 L 174.0 121.0 L 174.0 127.0 L 174.0 130.0 " stroke="black" fill="none" stroke-width="5.0" stroke-linecap="round" stroke-linejoin="round" />
<path d="M 147.0 121.0 L 147.0 121.0 L 147.0 121.0 L 148.0 121.0 L 154.0 121.0 L 165.0 121.0 L 177.0 119.0 L 184.0 119.0 L 187.0 119.0 L 187.0 120.0 " stroke="black" fill="none" stroke-width="5.0" stroke-linecap="round" stroke-linejoin="round" />
<path d="M 147.0 143.0 L 147.0 143.0 L 147.0 143.0 L 147.0 143.0 L 148.0 143.0 L 155.0 142.0 L 167.0 141.0 L 177.0 141.0 L 182.0 140.0 L 183.0 140.0 " stroke="black" fill="none" stroke-width="5.0" stroke-linecap="round" stroke-linejoin="round" />
<path d="M 153.0 154.0 L 153.0 154.0 L 153.0 154.0 L 153.0 155.0 L 153.0 158.0 L 153.0 163.0 L 153.0 168.0 L 154.0 171.0 L 154.0 171.0 " stroke="black" fill="none" stroke-width="5.0" stroke-linecap="round" stroke-linejoin="round" />
<path d="M 152.0 153.0 L 153.0 153.0 L 153.0 153.0 L 155.0 153.0 L 161.0 152.0 L 168.0 152.0 L 175.0 152.0 L 179.0 153.0 L 182.0 158.0 L 182.0 163.0 L 182.0 168.0 L 182.0 171.0 L 182.0 171.0 " stroke="black" fill="none" stroke-width="5.0" stroke-linecap="round" stroke-linejoin="round" />
<path d="M 154.0 163.0 L 155.0 163.0 L 155.0 163.0 L 157.0 164.0 L 161.0 164.0 L 169.0 164.0 L 174.0 163.0 L 176.0 163.0 " stroke="black" fill="none" stroke-width="5.0" stroke-linecap="round" stroke-linejoin="round" />
<path d="M 163.0 155.0 L 163.0 155.0 L 163.0 155.0 L 163.0 155.0 L 163.0 157.0 L 164.0 161.0 L 164.0 163.0 " stroke="black" fill="none" stroke-width="5.0" stroke-linecap="round" stroke-linejoin="round" />
<path d="M 154.0 172.0 L 154.0 172.0 L 156.0 172.0 L 159.0 172.0 L 164.0 173.0 L 171.0 173.0 L 176.0 173.0 L 178.0 172.0 " stroke="black" fill="none" stroke-width="5.0" stroke-linecap="round" stroke-linejoin="round" />
<path d="M 154.0 182.0 L 155.0 181.0 L 155.0 181.0 L 155.0 181.0 L 154.0 185.0 L 151.0 190.0 L 149.0 194.0 " stroke="black" fill="none" stroke-width="5.0" stroke-linecap="round" stroke-linejoin="round" />
<path d="M 173.0 181.0 L 174.0 181.0 L 176.0 181.0 L 179.0 184.0 L 183.0 189.0 L 187.0 194.0 L 189.0 197.0 " stroke="black" fill="none" stroke-width="5.0" stroke-linecap="round" stroke-linejoin="round" />
</svg>