<svg xmlns="http://www.w3.org/2000/svg" width="300" height="300" viewBox="0 0 300 300">
<path d="M 112.0 123.0 L 112.0 123.0 L 112.0 123.0 L 112.0 123.0 L 112.0 123.0 L 115.0 123.0 L 123.0 123.0 L 131.0 122.0 " stroke="black" fill="none" stroke-width="5.0" stroke-linecap="round" stroke-linejoin="round" />
<path d="M 124.0 101.0 L 124.0 101.0 L 124.0 101.0 L 124.0 103.0 L 124.0 112.0 L 126.0 130.0 L 127.0 153.0 L 126.0 172.0 L 125.0 178.0 " stroke="black" fill="none" stroke-width="5.0" stroke-linecap="round" stroke-linejoin="round" />
<path d="M 123.0 134.0 L 123.0 134.0 L 123.0 134.0 L 122.0 133.0 L 122.0 133.0 L 120.0 136.0 L 115.0 145.0 L 106.0 158.0 L 101.0 166.0 " stroke="black" fill="none" stroke-width="5.0" stroke-linecap="round" stroke-linejoin="round" />
<path d="M 126.0 133.0 L 126.0 133.0 L 126.0 133.0 L 128.0 134.0 L 134.0 142.0 L 143.0 154.0 L 145.0 157.0 " stroke="black" fill="none" stroke-width="5.0" stroke-linecap="round" stroke-linejoin="round" />
<path d="M 154.0 105.0 L 155.0 105.0 L 156.0 105.0 L 156.0 105.0 L 156.0 105.0 L 156.0 106.0 L 155.0 108.0 L 152.0 112.0 L 150.0 115.0 L 148.0 117.0 L 147.0 118.0 L 146.0 119.0 L 147.0 120.0 L 150.0 121.0 " stroke="black" fill="none" stroke-width="5.0" stroke-linecap="round" stroke-linejoin="round" />
<path d="M 159.0 117.0 L 159.0 117.0 L 159.0 117.0 L 159.0 118.0 L 158.0 119.0 L 157.0 121.0 L 154.0 124.0 L 151.0 128.0 L 149.0 131.0 L 149.0 134.0 L 151.0 135.0 L 156.0 135.0 L 161.0 135.0 L 162.0 135.0 " stroke="black" fill="none" stroke-width="5.0" stroke-linecap="round" stroke-linejoin="round" />
<path d="M 165.0 127.0 L 165.0 128.0 L 165.0 128.0 L 165.0 131.0 L 167.0 136.0 L 168.0 140.0 " stroke="black" fill="none" stroke-width="5.0" stroke-linecap="round" stroke-linejoin="round" />
<path d="M 184.0 107.0 L 184.0 107.0 L 184.0 107.0 L 184.0 107.0 L 183.0 107.0 L 182.0 107.0 L 181.0 109.0 L 178.0 111.0 L 176.0 114.0 L 176.0 117.0 L 179.0 118.0 " stroke="black" fill="none" stroke-width="5.0" stroke-linecap="round" stroke-linejoin="round" />
<path d="M 192.0 113.0 L 190.0 114.0 L 189.0 116.0 L 186.0 119.0 L 183.0 122.0 L 180.0 126.0 L 177.0 129.0 L 176.0 132.0 L 176.0 134.0 L 180.0 134.0 L 187.0 134.0 L 193.0 133.0 " stroke="black" fill="none" stroke-width="5.0" stroke-linecap="round" stroke-linejoin="round" />
<path d="M 195.0 126.0 L 195.0 126.0 L 195.0 127.0 L 195.0 129.0 L 196.0 134.0 " stroke="black" fill="none" stroke-width="5.0" stroke-linecap="round" stroke-linejoin="round" />
<path d="M 151.0 148.0 L 151.0 148.0 L 151.0 148.0 L 151.0 149.0 L 153.0 149.0 L 162.0 150.0 L 179.0 149.0 L 192.0 147.0 " stroke="black" fill="none" stroke-width="5.0" stroke-linecap="round" stroke-linejoin="round" />
<path d="M 169.0 108.0 L 169.0 108.0 L 169.0 110.0 L 169.0 117.0 L 174.0 136.0 L 184.0 163.0 L 191.0 187.0 L 193.0 196.0 " stroke="black" fill="none" stroke-width="5.0" stroke-linecap="round" stroke-linejoin="round" />
<path d="M 196.0 163.0 L 195.0 164.0 L 194.0 166.0 L 192.0 167.0 L 189.0 171.0 L 180.0 179.0 L 177.0 182.0 " stroke="black" fill="none" stroke-width="5.0" stroke-linecap="round" stroke-linejoin="round" />
<path d="M 164.0 150.0 L 164.0 150.0 L 164.0 150.0 L 163.0 152.0 L 159.0 158.0 L 153.0 171.0 L 148.0 180.0 " stroke="black" fill="none" stroke-width="5.0" stroke-linecap="round" stroke-linejoin="round" />
<path d="M 157.0 165.0 L 158.0 165.0 L 158.0 165.0 L 160.0 168.0 L 165.0 176.0 L 172.0 185.0 " stroke="black" fill="none" stroke-width="5.0" stroke-linecap="round" stroke-linejoin="round" />
</svg>