<svg xmlns="http://www.w3.org/2000/svg" width="300" height="300" viewBox="0 0 300 300">
<path d="M 139.0 105.0 L 139.0 105.0 L 139.0 105.0 L 138.0 105.0 L 137.0 109.0 L 134.0 118.0 L 126.0 132.0 L 119.0 142.0 " stroke="black" fill="none" stroke-width="5.0" stroke-linecap="round" stroke-linejoin="round" />
<path d="M 136.0 120.0 L 136.0 120.0 L 136.0 120.0 L 136.0 121.0 L 138.0 121.0 L 145.0 121.0 L 156.0 120.0 L 166.0 119.0 L 171.0 119.0 " stroke="black" fill="none" stroke-width="5.0" stroke-linecap="round" stroke-linejoin="round" />
<path d="M 143.0 140.0 L 143.0 140.0 L 143.0 140.0 L 143.0 140.0 L 143.0 140.0 L 144.0 140.0 L 147.0 139.0 L 151.0 139.0 L 155.0 139.0 L 158.0 139.0 L 160.0 139.0 L 162.0 140.0 L 164.0 143.0 L 167.0 151.0 L 170.0 167.0 L 173.0 187.0 L 175.0 201.0 L 175.0 210.0 L 175.0 214.0 L 172.0 215.0 L 166.0 215.0 L 160.0 213.0 " stroke="black" fill="none" stroke-width="5.0" stroke-linecap="round" stroke-linejoin="round" />
<path d="M 137.0 140.0 L 137.0 140.0 L 138.0 140.0 L 138.0 140.0 L 137.0 143.0 L 135.0 151.0 L 131.0 165.0 L 129.0 179.0 L 130.0 185.0 L 136.0 185.0 L 147.0 185.0 L 158.0 185.0 L 169.0 186.0 L 177.0 187.0 L 180.0 187.0 " stroke="black" fill="none" stroke-width="5.0" stroke-linecap="round" stroke-linejoin="round" />
<path d="M 116.0 163.0 L 117.0 163.0 L 117.0 163.0 L 120.0 164.0 L 129.0 164.0 L 144.0 164.0 L 159.0 164.0 L 170.0 164.0 L 172.0 164.0 " stroke="black" fill="none" stroke-width="5.0" stroke-linecap="round" stroke-linejoin="round" />
<path d="M 151.0 148.0 L 151.0 148.0 L 151.0 148.0 L 151.0 148.0 L 152.0 151.0 L 154.0 156.0 " stroke="black" fill="none" stroke-width="5.0" stroke-linecap="round" stroke-linejoin="round" />
<path d="M 148.0 167.0 L 148.0 167.0 L 148.0 168.0 L 149.0 170.0 L 152.0 175.0 L 153.0 177.0 " stroke="black" fill="none" stroke-width="5.0" stroke-linecap="round" stroke-linejoin="round" />
</svg>