<svg xmlns="http://www.w3.org/2000/svg" width="300" height="300" viewBox="0 0 300 300">
<path d="M 156.0 102.0 L 156.0 102.0 L 155.0 103.0 L 154.0 106.0 L 150.0 111.0 L 141.0 120.0 L 131.0 130.0 L 129.0 131.0 " stroke="black" fill="none" stroke-width="5.0" stroke-linecap="round" stroke-linejoin="round" />
<path d="M 138.0 142.0 L 137.0 142.0 L 137.0 142.0 L 136.0 142.0 L 140.0 142.0 L 147.0 140.0 L 154.0 139.0 L 159.0 139.0 " stroke="black" fill="none" stroke-width="5.0" stroke-linecap="round" stroke-linejoin="round" />
<path d="M 117.0 167.0 L 117.0 167.0 L 117.0 167.0 L 121.0 167.0 L 134.0 166.0 L 153.0 162.0 L 168.0 159.0 L 176.0 160.0 " stroke="black" fill="none" stroke-width="5.0" stroke-linecap="round" stroke-linejoin="round" />
<path d="M 147.0 120.0 L 147.0 120.0 L 147.0 120.0 L 147.0 120.0 L 147.0 121.0 L 147.0 128.0 L 147.0 142.0 L 147.0 160.0 L 146.0 177.0 L 146.0 188.0 L 148.0 194.0 L 152.0 198.0 L 156.0 200.0 L 162.0 202.0 L 170.0 204.0 L 178.0 205.0 L 187.0 203.0 L 192.0 200.0 L 195.0 197.0 L 196.0 195.0 L 196.0 192.0 L 196.0 184.0 " stroke="black" fill="none" stroke-width="5.0" stroke-linecap="round" stroke-linejoin="round" />
</svg>