<svg xmlns="http://www.w3.org/2000/svg" width="300" height="300" viewBox="0 0 300 300">
<path d="M 126.0 101.0 L 126.0 101.0 L 127.0 101.0 L 127.0 101.0 L 128.0 101.0 L 128.0 101.0 L 128.0 101.0 L 127.0 104.0 L 125.0 107.0 L 124.0 110.0 L 124.0 112.0 L 124.0 113.0 L 125.0 113.0 L 128.0 113.0 L 132.0 112.0 L 135.0 111.0 L 138.0 111.0 L 140.0 111.0 L 141.0 111.0 L 141.0 112.0 L 142.0 115.0 L 142.0 120.0 L 142.0 122.0 L 142.0 123.0 " stroke="black" fill="none" stroke-width="5.0" stroke-linecap="round" stroke-linejoin="round" />
<path d="M 121.0 125.0 L 121.0 126.0 L 121.0 127.0 L 122.0 127.0 L 123.0 127.0 L 125.0 127.0 L 130.0 127.0 L 134.0 126.0 L 139.0 125.0 L 142.0 125.0 " stroke="black" fill="none" stroke-width="5.0" stroke-linecap="round" stroke-linejoin="round" />
<path d="M 120.0 116.0 L 120.0 116.0 L 120.0 116.0 L 120.0 116.0 L 119.0 117.0 L 119.0 123.0 L 120.0 135.0 L 120.0 147.0 L 121.0 153.0 L 121.0 153.0 " stroke="black" fill="none" stroke-width="5.0" stroke-linecap="round" stroke-linejoin="round" />
<path d="M 120.0 139.0 L 121.0 139.0 L 122.0 139.0 L 123.0 139.0 L 125.0 138.0 L 129.0 138.0 L 133.0 137.0 L 136.0 137.0 L 139.0 137.0 L 141.0 140.0 L 143.0 143.0 L 144.0 146.0 L 144.0 148.0 L 144.0 149.0 L 142.0 150.0 L 138.0 150.0 L 133.0 151.0 L 127.0 151.0 L 122.0 152.0 L 121.0 152.0 " stroke="black" fill="none" stroke-width="5.0" stroke-linecap="round" stroke-linejoin="round" />
<path d="M 135.0 155.0 L 135.0 155.0 L 135.0 156.0 L 135.0 157.0 L 135.0 161.0 L 135.0 168.0 L 136.0 177.0 L 137.0 183.0 L 137.0 185.0 L 138.0 185.0 " stroke="black" fill="none" stroke-width="5.0" stroke-linecap="round" stroke-linejoin="round" />
<path d="M 137.0 171.0 L 137.0 171.0 L 137.0 172.0 L 137.0 172.0 L 140.0 172.0 L 143.0 172.0 L 146.0 172.0 L 147.0 172.0 " stroke="black" fill="none" stroke-width="5.0" stroke-linecap="round" stroke-linejoin="round" />
<path d="M 120.0 167.0 L 120.0 167.0 L 120.0 168.0 L 120.0 171.0 L 121.0 176.0 L 123.0 182.0 L 123.0 186.0 " stroke="black" fill="none" stroke-width="5.0" stroke-linecap="round" stroke-linejoin="round" />
<path d="M 115.0 187.0 L 115.0 187.0 L 116.0 187.0 L 120.0 187.0 L 130.0 187.0 L 142.0 187.0 L 150.0 187.0 L 152.0 187.0 " stroke="black" fill="none" stroke-width="5.0" stroke-linecap="round" stroke-linejoin="round" />
<path d="M 155.0 109.0 L 155.0 109.0 L 155.0 109.0 L 155.0 109.0 L 157.0 108.0 L 161.0 108.0 L 165.0 108.0 L 169.0 108.0 L 172.0 109.0 L 175.0 111.0 L 177.0 114.0 L 178.0 120.0 L 178.0 126.0 L 178.0 129.0 L 178.0 129.0 " stroke="black" fill="none" stroke-width="5.0" stroke-linecap="round" stroke-linejoin="round" />
<path d="M 146.0 121.0 L 145.0 122.0 L 145.0 122.0 L 147.0 122.0 L 156.0 122.0 L 171.0 121.0 L 184.0 121.0 L 190.0 121.0 L 191.0 121.0 L 191.0 122.0 " stroke="black" fill="none" stroke-width="5.0" stroke-linecap="round" stroke-linejoin="round" />
<path d="M 152.0 135.0 L 152.0 135.0 L 153.0 135.0 L 155.0 135.0 L 159.0 135.0 L 167.0 134.0 L 176.0 134.0 L 179.0 135.0 " stroke="black" fill="none" stroke-width="5.0" stroke-linecap="round" stroke-linejoin="round" />
<path d="M 150.0 151.0 L 150.0 151.0 L 150.0 151.0 L 149.0 152.0 L 149.0 153.0 L 149.0 156.0 L 150.0 158.0 " stroke="black" fill="none" stroke-width="5.0" stroke-linecap="round" stroke-linejoin="round" />
<path d="M 150.0 149.0 L 150.0 149.0 L 151.0 149.0 L 153.0 149.0 L 160.0 147.0 L 171.0 145.0 L 179.0 144.0 L 184.0 144.0 L 186.0 147.0 L 187.0 151.0 L 187.0 155.0 L 186.0 158.0 L 186.0 159.0 " stroke="black" fill="none" stroke-width="5.0" stroke-linecap="round" stroke-linejoin="round" />
<path d="M 158.0 161.0 L 158.0 161.0 L 159.0 161.0 L 159.0 163.0 L 160.0 167.0 L 160.0 171.0 L 160.0 171.0 " stroke="black" fill="none" stroke-width="5.0" stroke-linecap="round" stroke-linejoin="round" />
<path d="M 159.0 163.0 L 160.0 162.0 L 161.0 161.0 L 164.0 160.0 L 168.0 159.0 L 172.0 159.0 L 177.0 160.0 L 181.0 162.0 L 184.0 165.0 L 186.0 169.0 L 188.0 175.0 L 188.0 181.0 L 188.0 184.0 L 185.0 184.0 L 181.0 181.0 " stroke="black" fill="none" stroke-width="5.0" stroke-linecap="round" stroke-linejoin="round" />
<path d="M 166.0 146.0 L 166.0 146.0 L 167.0 146.0 L 168.0 150.0 L 171.0 162.0 L 175.0 182.0 L 178.0 196.0 L 179.0 200.0 L 179.0 200.0 " stroke="black" fill="none" stroke-width="5.0" stroke-linecap="round" stroke-linejoin="round" />
</svg>