<svg xmlns="http://www.w3.org/2000/svg" width="300" height="300" viewBox="0 0 300 300">
<path d="M 150.0 100.0 L 150.0 100.0 " stroke="black" fill="none" stroke-width="5.0" stroke-linecap="round" stroke-linejoin="round" />
<path d="M 150.0 98.0 L 150.0 98.0 L 149.0 98.0 L 149.0 101.0 L 149.0 110.0 L 150.0 120.0 L 151.0 129.0 L 151.0 131.0 " stroke="black" fill="none" stroke-width="5.0" stroke-linecap="round" stroke-linejoin="round" />
<path d="M 150.0 114.0 L 150.0 114.0 L 150.0 115.0 L 152.0 116.0 L 158.0 115.0 L 166.0 112.0 L 171.0 111.0 L 172.0 111.0 " stroke="black" fill="none" stroke-width="5.0" stroke-linecap="round" stroke-linejoin="round" />
<path d="M 133.0 113.0 L 133.0 113.0 L 133.0 113.0 L 133.0 116.0 L 133.0 123.0 L 134.0 129.0 L 135.0 131.0 " stroke="black" fill="none" stroke-width="5.0" stroke-linecap="round" stroke-linejoin="round" />
<path d="M 115.0 140.0 L 116.0 140.0 L 118.0 140.0 L 125.0 140.0 L 138.0 140.0 L 155.0 139.0 L 170.0 137.0 L 179.0 135.0 L 181.0 135.0 " stroke="black" fill="none" stroke-width="5.0" stroke-linecap="round" stroke-linejoin="round" />
<path d="M 149.0 144.0 L 149.0 144.0 L 149.0 144.0 L 149.0 143.0 L 149.0 144.0 L 149.0 150.0 L 149.0 160.0 L 150.0 171.0 L 150.0 178.0 L 150.0 180.0 " stroke="black" fill="none" stroke-width="5.0" stroke-linecap="round" stroke-linejoin="round" />
<path d="M 138.0 157.0 L 138.0 157.0 L 138.0 157.0 L 138.0 161.0 L 134.0 165.0 L 128.0 171.0 L 120.0 177.0 L 115.0 180.0 " stroke="black" fill="none" stroke-width="5.0" stroke-linecap="round" stroke-linejoin="round" />
<path d="M 173.0 165.0 L 173.0 165.0 L 173.0 165.0 L 173.0 165.0 L 174.0 165.0 L 174.0 165.0 L 172.0 169.0 L 164.0 178.0 L 148.0 191.0 L 127.0 204.0 L 122.0 206.0 " stroke="black" fill="none" stroke-width="5.0" stroke-linecap="round" stroke-linejoin="round" />
</svg>