<svg xmlns="http://www.w3.org/2000/svg" width="300" height="300" viewBox="0 0 300 300">
<path d="M 125.0 125.0 L 125.0 125.0 L 125.0 126.0 L 129.0 126.0 L 141.0 124.0 L 158.0 121.0 L 173.0 119.0 L 177.0 119.0 " stroke="black" fill="none" stroke-width="5.0" stroke-linecap="round" stroke-linejoin="round" />
<path d="M 152.0 127.0 L 152.0 127.0 L 152.0 128.0 L 152.0 128.0 L 152.0 132.0 L 152.0 141.0 L 155.0 158.0 L 156.0 175.0 L 157.0 184.0 " stroke="black" fill="none" stroke-width="5.0" stroke-linecap="round" stroke-linejoin="round" />
<path d="M 157.0 150.0 L 157.0 150.0 L 158.0 150.0 L 158.0 150.0 L 162.0 150.0 L 173.0 150.0 L 182.0 149.0 " stroke="black" fill="none" stroke-width="5.0" stroke-linecap="round" stroke-linejoin="round" />
<path d="M 135.0 159.0 L 135.0 159.0 L 135.0 159.0 L 135.0 158.0 L 135.0 161.0 L 137.0 173.0 L 139.0 187.0 " stroke="black" fill="none" stroke-width="5.0" stroke-linecap="round" stroke-linejoin="round" />
<path d="M 118.0 196.0 L 119.0 196.0 L 120.0 196.0 L 126.0 195.0 L 145.0 192.0 L 172.0 189.0 L 191.0 188.0 L 197.0 188.0 " stroke="black" fill="none" stroke-width="5.0" stroke-linecap="round" stroke-linejoin="round" />
</svg>