<svg xmlns="http://www.w3.org/2000/svg" width="300" height="300" viewBox="0 0 300 300">
<path d="M 123.0 113.0 L 123.0 113.0 L 123.0 113.0 L 122.0 113.0 L 122.0 113.0 L 122.0 117.0 L 122.0 129.0 L 121.0 147.0 L 120.0 163.0 L 120.0 171.0 " stroke="black" fill="none" stroke-width="5.0" stroke-linecap="round" stroke-linejoin="round" />
<path d="M 140.0 113.0 L 140.0 115.0 L 140.0 120.0 L 140.0 129.0 L 140.0 142.0 L 141.0 155.0 L 141.0 167.0 L 141.0 168.0 " stroke="black" fill="none" stroke-width="5.0" stroke-linecap="round" stroke-linejoin="round" />
<path d="M 118.0 129.0 L 119.0 129.0 L 120.0 129.0 L 122.0 129.0 L 128.0 129.0 L 136.0 129.0 L 143.0 130.0 L 147.0 131.0 L 147.0 132.0 " stroke="black" fill="none" stroke-width="5.0" stroke-linecap="round" stroke-linejoin="round" />
<path d="M 124.0 143.0 L 125.0 143.0 L 125.0 143.0 L 128.0 143.0 L 133.0 143.0 L 138.0 142.0 L 141.0 142.0 L 142.0 143.0 " stroke="black" fill="none" stroke-width="5.0" stroke-linecap="round" stroke-linejoin="round" />
<path d="M 124.0 153.0 L 125.0 153.0 L 127.0 153.0 L 130.0 153.0 L 135.0 153.0 L 139.0 154.0 L 142.0 154.0 " stroke="black" fill="none" stroke-width="5.0" stroke-linecap="round" stroke-linejoin="round" />
<path d="M 109.0 173.0 L 109.0 173.0 L 111.0 174.0 L 115.0 175.0 L 122.0 175.0 L 135.0 175.0 L 145.0 174.0 L 150.0 173.0 " stroke="black" fill="none" stroke-width="5.0" stroke-linecap="round" stroke-linejoin="round" />
<path d="M 127.0 181.0 L 127.0 181.0 L 127.0 181.0 L 127.0 183.0 L 125.0 186.0 L 123.0 190.0 L 121.0 193.0 " stroke="black" fill="none" stroke-width="5.0" stroke-linecap="round" stroke-linejoin="round" />
<path d="M 140.0 182.0 L 140.0 183.0 L 142.0 185.0 L 144.0 188.0 L 147.0 192.0 " stroke="black" fill="none" stroke-width="5.0" stroke-linecap="round" stroke-linejoin="round" />
<path d="M 157.0 117.0 L 157.0 117.0 L 157.0 119.0 L 157.0 122.0 L 157.0 127.0 L 156.0 135.0 L 154.0 141.0 " stroke="black" fill="none" stroke-width="5.0" stroke-linecap="round" stroke-linejoin="round" />
<path d="M 158.0 130.0 L 159.0 130.0 L 161.0 130.0 L 164.0 129.0 L 168.0 129.0 L 173.0 128.0 L 177.0 128.0 L 179.0 128.0 L 180.0 132.0 L 180.0 139.0 L 180.0 146.0 L 179.0 151.0 " stroke="black" fill="none" stroke-width="5.0" stroke-linecap="round" stroke-linejoin="round" />
<path d="M 162.0 143.0 L 163.0 143.0 L 163.0 143.0 L 163.0 143.0 L 163.0 150.0 L 162.0 163.0 L 158.0 179.0 L 154.0 192.0 L 152.0 196.0 " stroke="black" fill="none" stroke-width="5.0" stroke-linecap="round" stroke-linejoin="round" />
<path d="M 160.0 169.0 L 160.0 169.0 L 161.0 169.0 L 164.0 169.0 L 168.0 174.0 L 175.0 182.0 L 182.0 191.0 L 186.0 197.0 L 187.0 199.0 " stroke="black" fill="none" stroke-width="5.0" stroke-linecap="round" stroke-linejoin="round" />
</svg>