<svg xmlns="http://www.w3.org/2000/svg" width="300" height="300" viewBox="0 0 300 300">
<path d="M 115.0 119.0 L 115.0 119.0 L 114.0 120.0 L 115.0 120.0 L 120.0 120.0 L 129.0 120.0 L 138.0 120.0 L 141.0 120.0 " stroke="black" fill="none" stroke-width="5.0" stroke-linecap="round" stroke-linejoin="round" />
<path d="M 133.0 123.0 L 133.0 123.0 L 133.0 123.0 L 133.0 124.0 L 133.0 124.0 L 133.0 125.0 L 133.0 129.0 L 134.0 139.0 L 135.0 150.0 L 136.0 157.0 L 136.0 159.0 L 136.0 159.0 " stroke="black" fill="none" stroke-width="5.0" stroke-linecap="round" stroke-linejoin="round" />
<path d="M 115.0 136.0 L 115.0 136.0 L 114.0 137.0 L 114.0 139.0 L 114.0 141.0 L 114.0 144.0 L 114.0 145.0 " stroke="black" fill="none" stroke-width="5.0" stroke-linecap="round" stroke-linejoin="round" />
<path d="M 115.0 137.0 L 115.0 137.0 L 115.0 136.0 L 116.0 136.0 L 118.0 135.0 L 120.0 135.0 L 122.0 135.0 L 124.0 137.0 L 126.0 138.0 L 126.0 141.0 L 126.0 144.0 L 126.0 146.0 L 125.0 147.0 " stroke="black" fill="none" stroke-width="5.0" stroke-linecap="round" stroke-linejoin="round" />
<path d="M 115.0 144.0 L 115.0 144.0 L 115.0 144.0 L 115.0 144.0 L 116.0 145.0 L 118.0 145.0 L 122.0 145.0 " stroke="black" fill="none" stroke-width="5.0" stroke-linecap="round" stroke-linejoin="round" />
<path d="M 105.0 158.0 L 105.0 158.0 L 105.0 158.0 L 105.0 158.0 L 108.0 159.0 L 118.0 159.0 L 132.0 160.0 L 143.0 160.0 L 147.0 160.0 " stroke="black" fill="none" stroke-width="5.0" stroke-linecap="round" stroke-linejoin="round" />
<path d="M 131.0 160.0 L 131.0 160.0 L 131.0 160.0 L 131.0 160.0 L 131.0 161.0 L 132.0 168.0 L 134.0 181.0 L 135.0 192.0 L 136.0 197.0 L 135.0 198.0 L 132.0 197.0 L 127.0 194.0 L 120.0 190.0 " stroke="black" fill="none" stroke-width="5.0" stroke-linecap="round" stroke-linejoin="round" />
<path d="M 110.0 170.0 L 110.0 170.0 L 110.0 171.0 L 110.0 173.0 L 110.0 175.0 L 110.0 176.0 L 110.0 177.0 " stroke="black" fill="none" stroke-width="5.0" stroke-linecap="round" stroke-linejoin="round" />
<path d="M 111.0 170.0 L 111.0 170.0 L 112.0 170.0 L 112.0 171.0 L 113.0 171.0 L 116.0 171.0 L 119.0 170.0 L 122.0 170.0 L 124.0 172.0 L 126.0 176.0 L 126.0 178.0 L 126.0 180.0 L 125.0 181.0 " stroke="black" fill="none" stroke-width="5.0" stroke-linecap="round" stroke-linejoin="round" />
<path d="M 112.0 178.0 L 113.0 178.0 L 115.0 179.0 L 119.0 179.0 L 123.0 180.0 " stroke="black" fill="none" stroke-width="5.0" stroke-linecap="round" stroke-linejoin="round" />
<path d="M 155.0 120.0 L 155.0 120.0 L 154.0 121.0 L 153.0 123.0 L 152.0 127.0 L 150.0 136.0 L 148.0 144.0 " stroke="black" fill="none" stroke-width="5.0" stroke-linecap="round" stroke-linejoin="round" />
<path d="M 152.0 135.0 L 152.0 135.0 L 152.0 135.0 L 153.0 134.0 L 156.0 133.0 L 163.0 132.0 L 172.0 131.0 L 179.0 131.0 L 182.0 133.0 L 183.0 138.0 L 181.0 145.0 L 179.0 150.0 L 177.0 153.0 " stroke="black" fill="none" stroke-width="5.0" stroke-linecap="round" stroke-linejoin="round" />
<path d="M 161.0 146.0 L 161.0 146.0 L 161.0 146.0 L 161.0 147.0 L 160.0 150.0 L 158.0 159.0 L 154.0 175.0 L 149.0 190.0 L 146.0 195.0 L 145.0 195.0 " stroke="black" fill="none" stroke-width="5.0" stroke-linecap="round" stroke-linejoin="round" />
<path d="M 156.0 166.0 L 156.0 167.0 L 158.0 167.0 L 162.0 171.0 L 171.0 180.0 L 180.0 189.0 L 185.0 192.0 L 186.0 193.0 " stroke="black" fill="none" stroke-width="5.0" stroke-linecap="round" stroke-linejoin="round" />
</svg>