<svg xmlns="http://www.w3.org/2000/svg" width="300" height="300" viewBox="0 0 300 300">
<path d="M 123.0 108.0 L 123.0 108.0 L 123.0 108.0 L 123.0 108.0 L 126.0 109.0 L 135.0 109.0 L 150.0 107.0 L 164.0 105.0 L 171.0 105.0 " stroke="black" fill="none" stroke-width="5.0" stroke-linecap="round" stroke-linejoin="round" />
<path d="M 123.0 116.0 L 124.0 116.0 L 125.0 116.0 L 125.0 119.0 L 124.0 131.0 L 121.0 151.0 L 116.0 174.0 L 113.0 188.0 " stroke="black" fill="none" stroke-width="5.0" stroke-linecap="round" stroke-linejoin="round" />
<path d="M 145.0 118.0 L 145.0 118.0 L 145.0 118.0 L 144.0 118.0 L 143.0 119.0 L 140.0 124.0 " stroke="black" fill="none" stroke-width="5.0" stroke-linecap="round" stroke-linejoin="round" />
<path d="M 130.0 140.0 L 130.0 140.0 L 132.0 140.0 L 134.0 139.0 L 138.0 139.0 L 143.0 138.0 L 150.0 137.0 L 153.0 137.0 " stroke="black" fill="none" stroke-width="5.0" stroke-linecap="round" stroke-linejoin="round" />
<path d="M 143.0 126.0 L 143.0 126.0 L 142.0 126.0 L 142.0 126.0 L 142.0 129.0 L 143.0 140.0 L 145.0 152.0 L 145.0 156.0 " stroke="black" fill="none" stroke-width="5.0" stroke-linecap="round" stroke-linejoin="round" />
<path d="M 145.0 137.0 L 144.0 137.0 L 142.0 137.0 L 141.0 137.0 L 139.0 141.0 L 136.0 148.0 L 131.0 155.0 L 129.0 157.0 " stroke="black" fill="none" stroke-width="5.0" stroke-linecap="round" stroke-linejoin="round" />
<path d="M 143.0 143.0 L 143.0 143.0 L 144.0 144.0 L 148.0 147.0 L 155.0 151.0 " stroke="black" fill="none" stroke-width="5.0" stroke-linecap="round" stroke-linejoin="round" />
<path d="M 163.0 120.0 L 163.0 120.0 L 164.0 120.0 L 165.0 120.0 L 165.0 121.0 L 164.0 123.0 L 160.0 128.0 L 157.0 131.0 " stroke="black" fill="none" stroke-width="5.0" stroke-linecap="round" stroke-linejoin="round" />
<path d="M 153.0 137.0 L 153.0 137.0 L 153.0 138.0 L 154.0 138.0 L 158.0 137.0 L 165.0 135.0 L 172.0 135.0 L 176.0 135.0 " stroke="black" fill="none" stroke-width="5.0" stroke-linecap="round" stroke-linejoin="round" />
<path d="M 165.0 125.0 L 165.0 125.0 L 165.0 125.0 L 165.0 127.0 L 165.0 133.0 L 167.0 143.0 L 169.0 150.0 L 169.0 152.0 " stroke="black" fill="none" stroke-width="5.0" stroke-linecap="round" stroke-linejoin="round" />
<path d="M 166.0 136.0 L 166.0 136.0 L 166.0 135.0 L 166.0 135.0 L 164.0 137.0 L 161.0 144.0 L 157.0 152.0 L 155.0 155.0 " stroke="black" fill="none" stroke-width="5.0" stroke-linecap="round" stroke-linejoin="round" />
<path d="M 167.0 139.0 L 167.0 139.0 L 167.0 139.0 L 169.0 140.0 L 173.0 142.0 L 180.0 147.0 L 181.0 149.0 " stroke="black" fill="none" stroke-width="5.0" stroke-linecap="round" stroke-linejoin="round" />
<path d="M 155.0 163.0 L 156.0 164.0 L 157.0 164.0 L 157.0 166.0 L 158.0 171.0 L 158.0 180.0 L 158.0 182.0 " stroke="black" fill="none" stroke-width="5.0" stroke-linecap="round" stroke-linejoin="round" />
<path d="M 157.0 171.0 L 157.0 171.0 L 157.0 171.0 L 157.0 171.0 L 157.0 171.0 L 159.0 171.0 L 163.0 171.0 L 172.0 171.0 L 177.0 171.0 " stroke="black" fill="none" stroke-width="5.0" stroke-linecap="round" stroke-linejoin="round" />
<path d="M 143.0 170.0 L 143.0 170.0 L 143.0 170.0 L 143.0 171.0 L 143.0 174.0 L 145.0 180.0 " stroke="black" fill="none" stroke-width="5.0" stroke-linecap="round" stroke-linejoin="round" />
<path d="M 131.0 190.0 L 131.0 190.0 L 133.0 190.0 L 135.0 191.0 L 142.0 191.0 L 156.0 190.0 L 175.0 189.0 L 187.0 190.0 " stroke="black" fill="none" stroke-width="5.0" stroke-linecap="round" stroke-linejoin="round" />
</svg>