<svg xmlns="http://www.w3.org/2000/svg" width="300" height="300" viewBox="0 0 300 300">
<path d="M 123.0 111.0 L 123.0 111.0 L 123.0 111.0 L 127.0 111.0 L 139.0 111.0 L 155.0 111.0 L 171.0 111.0 L 182.0 111.0 " stroke="black" fill="none" stroke-width="5.0" stroke-linecap="round" stroke-linejoin="round" />
<path d="M 143.0 117.0 L 143.0 117.0 L 143.0 117.0 L 143.0 117.0 L 141.0 119.0 L 137.0 126.0 L 128.0 140.0 L 117.0 153.0 L 111.0 160.0 " stroke="black" fill="none" stroke-width="5.0" stroke-linecap="round" stroke-linejoin="round" />
<path d="M 135.0 134.0 L 135.0 134.0 L 136.0 134.0 L 137.0 134.0 L 139.0 134.0 L 142.0 134.0 L 144.0 135.0 L 146.0 138.0 L 147.0 143.0 L 147.0 151.0 L 142.0 162.0 L 134.0 174.0 L 127.0 182.0 L 124.0 183.0 " stroke="black" fill="none" stroke-width="5.0" stroke-linecap="round" stroke-linejoin="round" />
<path d="M 124.0 153.0 L 125.0 153.0 L 126.0 153.0 L 127.0 154.0 L 132.0 156.0 L 138.0 157.0 " stroke="black" fill="none" stroke-width="5.0" stroke-linecap="round" stroke-linejoin="round" />
<path d="M 158.0 118.0 L 158.0 118.0 L 158.0 118.0 L 157.0 118.0 L 156.0 119.0 L 156.0 127.0 L 156.0 145.0 L 157.0 163.0 L 160.0 174.0 L 166.0 178.0 L 175.0 179.0 L 184.0 178.0 L 188.0 176.0 " stroke="black" fill="none" stroke-width="5.0" stroke-linecap="round" stroke-linejoin="round" />
<path d="M 158.0 149.0 L 158.0 149.0 L 159.0 149.0 L 163.0 149.0 L 174.0 148.0 L 186.0 146.0 L 191.0 145.0 " stroke="black" fill="none" stroke-width="5.0" stroke-linecap="round" stroke-linejoin="round" />
</svg>