<svg xmlns="http://www.w3.org/2000/svg" width="300" height="300" viewBox="0 0 300 300">
<path d="M 129.0 109.0 L 129.0 109.0 L 130.0 109.0 L 131.0 109.0 L 131.0 110.0 L 131.0 112.0 L 129.0 115.0 L 126.0 120.0 L 121.0 127.0 L 115.0 133.0 L 110.0 137.0 L 109.0 137.0 L 109.0 137.0 L 110.0 137.0 L 111.0 139.0 L 112.0 144.0 L 112.0 153.0 L 110.0 164.0 L 109.0 178.0 L 108.0 190.0 L 108.0 192.0 " stroke="black" fill="none" stroke-width="5.0" stroke-linecap="round" stroke-linejoin="round" />
<path d="M 115.0 149.0 L 115.0 149.0 L 115.0 149.0 L 115.0 149.0 L 122.0 149.0 L 131.0 147.0 L 139.0 146.0 " stroke="black" fill="none" stroke-width="5.0" stroke-linecap="round" stroke-linejoin="round" />
<path d="M 128.0 149.0 L 128.0 149.0 L 126.0 150.0 L 126.0 153.0 L 126.0 164.0 L 129.0 181.0 L 130.0 193.0 " stroke="black" fill="none" stroke-width="5.0" stroke-linecap="round" stroke-linejoin="round" />
<path d="M 153.0 110.0 L 153.0 110.0 L 152.0 112.0 L 152.0 116.0 L 150.0 126.0 L 149.0 131.0 " stroke="black" fill="none" stroke-width="5.0" stroke-linecap="round" stroke-linejoin="round" />
<path d="M 152.0 121.0 L 152.0 121.0 L 152.0 122.0 L 154.0 122.0 L 160.0 120.0 L 168.0 117.0 L 175.0 116.0 L 180.0 117.0 L 183.0 120.0 L 183.0 124.0 L 183.0 132.0 L 179.0 141.0 L 178.0 142.0 " stroke="black" fill="none" stroke-width="5.0" stroke-linecap="round" stroke-linejoin="round" />
<path d="M 161.0 134.0 L 161.0 134.0 L 160.0 135.0 L 159.0 139.0 L 158.0 152.0 L 155.0 173.0 L 151.0 192.0 L 147.0 202.0 " stroke="black" fill="none" stroke-width="5.0" stroke-linecap="round" stroke-linejoin="round" />
<path d="M 158.0 160.0 L 158.0 161.0 L 158.0 162.0 L 165.0 167.0 L 178.0 178.0 L 190.0 191.0 L 195.0 198.0 " stroke="black" fill="none" stroke-width="5.0" stroke-linecap="round" stroke-linejoin="round" />
</svg>