<svg xmlns="http://www.w3.org/2000/svg" width="300" height="300" viewBox="0 0 300 300">
<path d="M 123.0 129.0 L 123.0 129.0 L 123.0 129.0 L 122.0 129.0 L 122.0 129.0 L 125.0 129.0 L 133.0 129.0 L 143.0 128.0 L 145.0 128.0 " stroke="black" fill="none" stroke-width="5.0" stroke-linecap="round" stroke-linejoin="round" />
<path d="M 136.0 132.0 L 136.0 132.0 L 135.0 132.0 L 134.0 133.0 L 132.0 136.0 L 128.0 143.0 L 121.0 153.0 L 115.0 160.0 " stroke="black" fill="none" stroke-width="5.0" stroke-linecap="round" stroke-linejoin="round" />
<path d="M 130.0 145.0 L 130.0 145.0 L 131.0 145.0 L 131.0 145.0 L 132.0 145.0 L 134.0 144.0 L 138.0 144.0 L 141.0 144.0 L 143.0 144.0 L 144.0 146.0 L 145.0 150.0 L 143.0 157.0 L 138.0 165.0 L 132.0 174.0 L 125.0 181.0 " stroke="black" fill="none" stroke-width="5.0" stroke-linecap="round" stroke-linejoin="round" />
<path d="M 126.0 156.0 L 126.0 156.0 L 126.0 156.0 L 126.0 157.0 L 129.0 158.0 L 131.0 159.0 " stroke="black" fill="none" stroke-width="5.0" stroke-linecap="round" stroke-linejoin="round" />
<path d="M 157.0 118.0 L 157.0 118.0 L 157.0 118.0 L 157.0 118.0 L 157.0 119.0 L 156.0 123.0 L 152.0 133.0 L 148.0 142.0 " stroke="black" fill="none" stroke-width="5.0" stroke-linecap="round" stroke-linejoin="round" />
<path d="M 154.0 132.0 L 154.0 132.0 L 154.0 132.0 L 154.0 132.0 L 154.0 131.0 L 156.0 131.0 L 160.0 130.0 L 167.0 128.0 L 174.0 127.0 L 176.0 127.0 " stroke="black" fill="none" stroke-width="5.0" stroke-linecap="round" stroke-linejoin="round" />
<path d="M 149.0 156.0 L 149.0 156.0 L 149.0 156.0 L 149.0 156.0 L 153.0 155.0 L 163.0 153.0 L 175.0 150.0 L 178.0 150.0 " stroke="black" fill="none" stroke-width="5.0" stroke-linecap="round" stroke-linejoin="round" />
<path d="M 165.0 114.0 L 166.0 114.0 L 166.0 114.0 L 166.0 115.0 L 166.0 121.0 L 166.0 138.0 L 166.0 162.0 L 166.0 182.0 L 166.0 191.0 L 166.0 192.0 " stroke="black" fill="none" stroke-width="5.0" stroke-linecap="round" stroke-linejoin="round" />
<path d="M 166.0 155.0 L 166.0 155.0 L 166.0 155.0 L 166.0 155.0 L 164.0 157.0 L 160.0 163.0 L 153.0 176.0 L 145.0 188.0 L 141.0 194.0 " stroke="black" fill="none" stroke-width="5.0" stroke-linecap="round" stroke-linejoin="round" />
<path d="M 168.0 159.0 L 169.0 160.0 L 172.0 162.0 L 180.0 170.0 L 190.0 187.0 L 196.0 199.0 " stroke="black" fill="none" stroke-width="5.0" stroke-linecap="round" stroke-linejoin="round" />
</svg>