<svg xmlns="http://www.w3.org/2000/svg" width="300" height="300" viewBox="0 0 300 300">
<path d="M 116.0 130.0 L 117.0 130.0 L 117.0 131.0 L 119.0 131.0 L 122.0 132.0 L 126.0 133.0 " stroke="black" fill="none" stroke-width="5.0" stroke-linecap="round" stroke-linejoin="round" />
<path d="M 107.0 161.0 L 107.0 161.0 L 108.0 161.0 L 110.0 161.0 L 115.0 159.0 L 120.0 157.0 " stroke="black" fill="none" stroke-width="5.0" stroke-linecap="round" stroke-linejoin="round" />
<path d="M 105.0 185.0 L 106.0 185.0 L 108.0 185.0 L 113.0 183.0 L 122.0 177.0 L 125.0 175.0 " stroke="black" fill="none" stroke-width="5.0" stroke-linecap="round" stroke-linejoin="round" />
<path d="M 160.0 120.0 L 160.0 119.0 L 161.0 118.0 L 161.0 118.0 L 161.0 120.0 L 162.0 128.0 L 163.0 140.0 L 163.0 153.0 L 164.0 162.0 L 164.0 164.0 " stroke="black" fill="none" stroke-width="5.0" stroke-linecap="round" stroke-linejoin="round" />
<path d="M 152.0 139.0 L 152.0 138.0 L 152.0 138.0 L 152.0 138.0 L 150.0 139.0 L 145.0 144.0 L 138.0 150.0 L 134.0 154.0 " stroke="black" fill="none" stroke-width="5.0" stroke-linecap="round" stroke-linejoin="round" />
<path d="M 175.0 136.0 L 175.0 136.0 L 175.0 137.0 L 177.0 139.0 L 179.0 141.0 L 186.0 144.0 L 190.0 147.0 " stroke="black" fill="none" stroke-width="5.0" stroke-linecap="round" stroke-linejoin="round" />
<path d="M 187.0 168.0 L 187.0 168.0 L 187.0 168.0 L 187.0 168.0 L 187.0 169.0 L 184.0 173.0 L 173.0 182.0 L 155.0 194.0 L 141.0 202.0 " stroke="black" fill="none" stroke-width="5.0" stroke-linecap="round" stroke-linejoin="round" />
</svg>