<svg xmlns="http://www.w3.org/2000/svg" width="300" height="300" viewBox="0 0 300 300">
<path d="M 119.0 119.0 L 119.0 119.0 L 119.0 119.0 L 119.0 119.0 L 119.0 119.0 L 119.0 119.0 L 123.0 123.0 L 131.0 127.0 L 135.0 129.0 " stroke="black" fill="none" stroke-width="5.0" stroke-linecap="round" stroke-linejoin="round" />
<path d="M 115.0 152.0 L 115.0 152.0 L 116.0 153.0 L 116.0 153.0 L 117.0 153.0 L 122.0 153.0 L 127.0 153.0 " stroke="black" fill="none" stroke-width="5.0" stroke-linecap="round" stroke-linejoin="round" />
<path d="M 106.0 187.0 L 106.0 187.0 L 106.0 188.0 L 111.0 188.0 L 122.0 184.0 L 126.0 183.0 " stroke="black" fill="none" stroke-width="5.0" stroke-linecap="round" stroke-linejoin="round" />
<path d="M 160.0 111.0 L 160.0 111.0 L 160.0 111.0 L 160.0 113.0 L 161.0 118.0 L 165.0 124.0 L 166.0 125.0 " stroke="black" fill="none" stroke-width="5.0" stroke-linecap="round" stroke-linejoin="round" />
<path d="M 147.0 135.0 L 147.0 135.0 L 147.0 135.0 L 149.0 135.0 L 158.0 134.0 L 170.0 131.0 L 182.0 130.0 L 189.0 130.0 L 190.0 131.0 " stroke="black" fill="none" stroke-width="5.0" stroke-linecap="round" stroke-linejoin="round" />
<path d="M 143.0 156.0 L 143.0 156.0 L 142.0 156.0 L 142.0 156.0 L 142.0 160.0 L 143.0 171.0 L 145.0 183.0 L 147.0 189.0 L 148.0 189.0 " stroke="black" fill="none" stroke-width="5.0" stroke-linecap="round" stroke-linejoin="round" />
<path d="M 151.0 159.0 L 151.0 159.0 L 151.0 159.0 L 151.0 159.0 L 151.0 159.0 L 151.0 159.0 L 151.0 159.0 L 154.0 159.0 L 160.0 159.0 L 171.0 159.0 L 181.0 159.0 L 189.0 158.0 L 194.0 158.0 L 196.0 157.0 L 197.0 157.0 L 197.0 159.0 L 196.0 162.0 L 196.0 167.0 L 196.0 174.0 L 196.0 180.0 L 197.0 187.0 L 197.0 192.0 L 197.0 195.0 L 195.0 196.0 L 193.0 195.0 L 187.0 193.0 L 183.0 191.0 " stroke="black" fill="none" stroke-width="5.0" stroke-linecap="round" stroke-linejoin="round" />
<path d="M 165.0 132.0 L 164.0 134.0 L 164.0 139.0 L 164.0 146.0 L 166.0 158.0 L 167.0 177.0 L 168.0 198.0 L 168.0 210.0 L 168.0 213.0 " stroke="black" fill="none" stroke-width="5.0" stroke-linecap="round" stroke-linejoin="round" />
</svg>