<svg xmlns="http://www.w3.org/2000/svg" width="300" height="300" viewBox="0 0 300 300">
<path d="M 120.0 114.0 L 120.0 114.0 L 121.0 115.0 L 122.0 116.0 L 125.0 118.0 L 130.0 120.0 L 133.0 122.0 " stroke="black" fill="none" stroke-width="5.0" stroke-linecap="round" stroke-linejoin="round" />
<path d="M 112.0 147.0 L 112.0 147.0 L 114.0 147.0 L 116.0 147.0 L 121.0 147.0 L 126.0 147.0 " stroke="black" fill="none" stroke-width="5.0" stroke-linecap="round" stroke-linejoin="round" />
<path d="M 101.0 177.0 L 103.0 177.0 L 106.0 177.0 L 114.0 177.0 L 126.0 174.0 L 132.0 173.0 " stroke="black" fill="none" stroke-width="5.0" stroke-linecap="round" stroke-linejoin="round" />
<path d="M 144.0 132.0 L 144.0 132.0 L 145.0 132.0 L 147.0 132.0 L 152.0 132.0 L 161.0 132.0 L 171.0 132.0 L 176.0 132.0 " stroke="black" fill="none" stroke-width="5.0" stroke-linecap="round" stroke-linejoin="round" />
<path d="M 155.0 105.0 L 155.0 105.0 L 154.0 106.0 L 154.0 108.0 L 155.0 116.0 L 160.0 134.0 L 165.0 157.0 L 167.0 178.0 L 167.0 190.0 L 168.0 195.0 L 169.0 196.0 L 169.0 196.0 " stroke="black" fill="none" stroke-width="5.0" stroke-linecap="round" stroke-linejoin="round" />
<path d="M 158.0 143.0 L 158.0 143.0 L 158.0 143.0 L 156.0 144.0 L 154.0 148.0 L 149.0 157.0 L 142.0 170.0 L 135.0 181.0 L 134.0 184.0 " stroke="black" fill="none" stroke-width="5.0" stroke-linecap="round" stroke-linejoin="round" />
<path d="M 163.0 141.0 L 164.0 141.0 L 167.0 142.0 L 172.0 146.0 L 180.0 156.0 L 189.0 167.0 L 194.0 174.0 L 197.0 178.0 L 199.0 179.0 L 199.0 179.0 " stroke="black" fill="none" stroke-width="5.0" stroke-linecap="round" stroke-linejoin="round" />
</svg>