<svg xmlns="http://www.w3.org/2000/svg" width="300" height="300" viewBox="0 0 300 300">
<path d="M 117.0 125.0 L 117.0 125.0 L 118.0 125.0 L 119.0 125.0 L 119.0 125.0 L 120.0 126.0 L 123.0 127.0 L 128.0 131.0 " stroke="black" fill="none" stroke-width="5.0" stroke-linecap="round" stroke-linejoin="round" />
<path d="M 110.0 151.0 L 111.0 151.0 L 114.0 151.0 L 119.0 151.0 L 124.0 151.0 L 129.0 151.0 " stroke="black" fill="none" stroke-width="5.0" stroke-linecap="round" stroke-linejoin="round" />
<path d="M 103.0 183.0 L 104.0 182.0 L 106.0 182.0 L 111.0 181.0 L 128.0 176.0 L 130.0 175.0 " stroke="black" fill="none" stroke-width="5.0" stroke-linecap="round" stroke-linejoin="round" />
<path d="M 153.0 122.0 L 154.0 123.0 L 154.0 124.0 L 155.0 126.0 L 155.0 131.0 L 157.0 145.0 L 158.0 158.0 L 158.0 166.0 L 159.0 172.0 L 160.0 173.0 L 160.0 173.0 " stroke="black" fill="none" stroke-width="5.0" stroke-linecap="round" stroke-linejoin="round" />
<path d="M 160.0 144.0 L 161.0 144.0 L 162.0 144.0 L 164.0 144.0 L 170.0 144.0 L 177.0 144.0 L 181.0 144.0 " stroke="black" fill="none" stroke-width="5.0" stroke-linecap="round" stroke-linejoin="round" />
<path d="M 144.0 146.0 L 143.0 144.0 L 142.0 144.0 L 141.0 145.0 L 141.0 151.0 L 143.0 161.0 L 146.0 175.0 L 147.0 180.0 " stroke="black" fill="none" stroke-width="5.0" stroke-linecap="round" stroke-linejoin="round" />
<path d="M 134.0 184.0 L 135.0 184.0 L 136.0 184.0 L 139.0 184.0 L 144.0 185.0 L 155.0 185.0 L 165.0 185.0 L 182.0 187.0 L 186.0 188.0 L 187.0 189.0 " stroke="black" fill="none" stroke-width="5.0" stroke-linecap="round" stroke-linejoin="round" />
</svg>