<svg xmlns="http://www.w3.org/2000/svg" width="300" height="300" viewBox="0 0 300 300">
<path d="M 147.8571428571429 115.00000000000001 L 147.8571428571429 115.00000000000001 L 147.8571428571429 115.00000000000001 L 147.8571428571429 115.71428571428574 L 147.8571428571429 118.5714285714286 L 147.8571428571429 125.71428571428574 L 149.28571428571433 137.14285714285717 L 150.00000000000006 150.71428571428572 L 150.71428571428572 162.8571428571429 L 151.42857142857144 172.14285714285717 L 152.14285714285717 178.5714285714286 L 152.14285714285717 183.5714285714286 L 152.14285714285717 187.8571428571429 L 152.14285714285717 190.00000000000006 L 152.14285714285717 190.71428571428578 L 151.42857142857144 189.28571428571433 L 148.5714285714286 187.14285714285717 L 143.5714285714286 185.71428571428578 L 137.8571428571429 185.71428571428578 " stroke="black" fill="none" stroke-width="5.0" stroke-linecap="round" stroke-linejoin="round" />
<path d="M 124.28571428571432 144.28571428571433 L 124.28571428571432 144.28571428571433 L 125.71428571428574 144.28571428571433 L 127.14285714285718 144.28571428571433 L 129.28571428571433 144.28571428571433 L 133.5714285714286 144.28571428571433 L 137.14285714285717 145.00000000000006 L 139.28571428571433 146.42857142857144 L 139.28571428571433 149.28571428571433 L 136.42857142857144 153.5714285714286 L 131.42857142857144 159.28571428571433 L 125.00000000000001 166.42857142857144 L 117.14285714285718 174.28571428571433 L 113.5714285714286 177.14285714285717 " stroke="black" fill="none" stroke-width="5.0" stroke-linecap="round" stroke-linejoin="round" />
<path d="M 161.42857142857144 145.71428571428572 L 161.42857142857144 145.71428571428572 L 161.42857142857144 145.71428571428572 L 162.14285714285717 145.71428571428572 L 165.00000000000006 145.71428571428572 L 171.42857142857144 142.8571428571429 L 177.8571428571429 139.28571428571433 L 180.71428571428578 138.5714285714286 " stroke="black" fill="none" stroke-width="5.0" stroke-linecap="round" stroke-linejoin="round" />
<path d="M 161.42857142857144 147.8571428571429 L 161.42857142857144 147.8571428571429 L 162.14285714285717 147.8571428571429 L 163.5714285714286 150.00000000000006 L 167.14285714285717 156.42857142857144 L 173.5714285714286 165.71428571428572 L 180.00000000000006 175.71428571428578 L 184.28571428571433 181.42857142857144 L 185.71428571428578 182.8571428571429 " stroke="black" fill="none" stroke-width="5.0" stroke-linecap="round" stroke-linejoin="round" />
</svg>