<svg xmlns="http://www.w3.org/2000/svg" width="300" height="300" viewBox="0 0 300 300">
<path d="M 111.0 129.0 L 111.0 130.0 L 111.0 131.0 L 113.0 132.0 L 117.0 134.0 L 120.0 134.0 " stroke="black" fill="none" stroke-width="5.0" stroke-linecap="round" stroke-linejoin="round" />
<path d="M 101.0 159.0 L 103.0 160.0 L 106.0 160.0 L 110.0 160.0 L 116.0 160.0 L 119.0 159.0 " stroke="black" fill="none" stroke-width="5.0" stroke-linecap="round" stroke-linejoin="round" />
<path d="M 96.0 185.0 L 96.0 185.0 L 98.0 185.0 L 102.0 185.0 L 111.0 182.0 L 117.0 180.0 " stroke="black" fill="none" stroke-width="5.0" stroke-linecap="round" stroke-linejoin="round" />
<path d="M 151.0 121.0 L 152.0 121.0 L 152.0 121.0 L 152.0 122.0 L 152.0 124.0 L 148.0 129.0 L 141.0 139.0 L 134.0 147.0 " stroke="black" fill="none" stroke-width="5.0" stroke-linecap="round" stroke-linejoin="round" />
<path d="M 161.0 125.0 L 162.0 125.0 L 164.0 127.0 L 168.0 129.0 L 173.0 133.0 L 180.0 136.0 L 184.0 138.0 " stroke="black" fill="none" stroke-width="5.0" stroke-linecap="round" stroke-linejoin="round" />
<path d="M 156.0 140.0 L 156.0 140.0 L 156.0 140.0 L 155.0 141.0 L 152.0 145.0 L 145.0 153.0 L 135.0 164.0 L 126.0 171.0 L 125.0 172.0 " stroke="black" fill="none" stroke-width="5.0" stroke-linecap="round" stroke-linejoin="round" />
<path d="M 160.0 145.0 L 161.0 145.0 L 163.0 145.0 L 167.0 147.0 L 173.0 151.0 L 182.0 155.0 L 186.0 158.0 " stroke="black" fill="none" stroke-width="5.0" stroke-linecap="round" stroke-linejoin="round" />
<path d="M 145.0 167.0 L 145.0 167.0 L 145.0 167.0 L 144.0 167.0 L 144.0 168.0 L 143.0 174.0 L 143.0 183.0 L 145.0 190.0 L 145.0 192.0 " stroke="black" fill="none" stroke-width="5.0" stroke-linecap="round" stroke-linejoin="round" />
<path d="M 145.0 163.0 L 145.0 163.0 L 145.0 164.0 L 146.0 164.0 L 148.0 164.0 L 154.0 164.0 L 161.0 164.0 L 168.0 164.0 L 173.0 164.0 L 177.0 166.0 L 179.0 171.0 L 180.0 177.0 L 180.0 184.0 L 180.0 190.0 L 179.0 194.0 L 179.0 194.0 " stroke="black" fill="none" stroke-width="5.0" stroke-linecap="round" stroke-linejoin="round" />
<path d="M 144.0 192.0 L 144.0 192.0 L 146.0 193.0 L 152.0 194.0 L 163.0 194.0 L 175.0 194.0 L 177.0 194.0 " stroke="black" fill="none" stroke-width="5.0" stroke-linecap="round" stroke-linejoin="round" />
</svg>