<svg xmlns="http://www.w3.org/2000/svg" width="300" height="300" viewBox="0 0 300 300">
<path d="M 113.0 120.0 L 114.0 120.0 L 115.0 120.0 L 116.0 120.0 L 118.0 121.0 L 120.0 122.0 L 124.0 123.0 L 125.0 124.0 " stroke="black" fill="none" stroke-width="5.0" stroke-linecap="round" stroke-linejoin="round" />
<path d="M 108.0 147.0 L 108.0 147.0 L 109.0 147.0 L 110.0 147.0 L 113.0 147.0 L 118.0 147.0 L 121.0 147.0 " stroke="black" fill="none" stroke-width="5.0" stroke-linecap="round" stroke-linejoin="round" />
<path d="M 103.0 190.0 L 103.0 190.0 L 103.0 190.0 L 103.0 190.0 L 106.0 188.0 L 114.0 182.0 L 120.0 178.0 " stroke="black" fill="none" stroke-width="5.0" stroke-linecap="round" stroke-linejoin="round" />
<path d="M 156.0 103.0 L 156.0 103.0 L 156.0 103.0 L 157.0 103.0 L 158.0 104.0 L 161.0 107.0 L 166.0 112.0 " stroke="black" fill="none" stroke-width="5.0" stroke-linecap="round" stroke-linejoin="round" />
<path d="M 142.0 121.0 L 142.0 121.0 L 142.0 122.0 L 143.0 122.0 L 147.0 123.0 L 157.0 122.0 L 170.0 121.0 L 182.0 121.0 L 189.0 121.0 " stroke="black" fill="none" stroke-width="5.0" stroke-linecap="round" stroke-linejoin="round" />
<path d="M 152.0 131.0 L 152.0 131.0 L 153.0 131.0 L 153.0 131.0 L 153.0 131.0 L 153.0 131.0 L 153.0 135.0 L 149.0 143.0 L 142.0 154.0 L 136.0 162.0 L 135.0 163.0 " stroke="black" fill="none" stroke-width="5.0" stroke-linecap="round" stroke-linejoin="round" />
<path d="M 148.0 147.0 L 148.0 147.0 L 148.0 147.0 L 148.0 147.0 L 148.0 148.0 L 148.0 150.0 L 148.0 159.0 L 148.0 173.0 L 148.0 185.0 L 148.0 190.0 " stroke="black" fill="none" stroke-width="5.0" stroke-linecap="round" stroke-linejoin="round" />
<path d="M 175.0 131.0 L 175.0 131.0 L 175.0 131.0 L 174.0 132.0 L 173.0 134.0 L 171.0 139.0 L 165.0 147.0 L 159.0 154.0 L 157.0 158.0 L 156.0 158.0 " stroke="black" fill="none" stroke-width="5.0" stroke-linecap="round" stroke-linejoin="round" />
<path d="M 171.0 140.0 L 171.0 140.0 L 171.0 140.0 L 171.0 140.0 L 171.0 140.0 L 174.0 141.0 L 178.0 142.0 L 183.0 142.0 L 185.0 143.0 L 187.0 145.0 L 187.0 148.0 L 187.0 153.0 L 184.0 160.0 L 178.0 169.0 L 171.0 179.0 L 164.0 187.0 L 161.0 189.0 " stroke="black" fill="none" stroke-width="5.0" stroke-linecap="round" stroke-linejoin="round" />
<path d="M 167.0 151.0 L 167.0 151.0 L 167.0 153.0 L 169.0 155.0 L 172.0 157.0 L 176.0 160.0 L 178.0 161.0 " stroke="black" fill="none" stroke-width="5.0" stroke-linecap="round" stroke-linejoin="round" />
<path d="M 158.0 164.0 L 159.0 165.0 L 160.0 166.0 L 163.0 169.0 L 170.0 175.0 L 181.0 183.0 L 192.0 190.0 L 200.0 194.0 L 205.0 195.0 " stroke="black" fill="none" stroke-width="5.0" stroke-linecap="round" stroke-linejoin="round" />
</svg>