<svg xmlns="http://www.w3.org/2000/svg" width="300" height="300" viewBox="0 0 300 300">
<path d="M 113.0 117.0 L 114.0 118.0 L 114.0 119.0 L 116.0 120.0 L 120.0 123.0 L 125.0 125.0 L 127.0 125.0 " stroke="black" fill="none" stroke-width="5.0" stroke-linecap="round" stroke-linejoin="round" />
<path d="M 109.0 145.0 L 109.0 145.0 L 111.0 146.0 L 114.0 147.0 L 119.0 148.0 L 125.0 148.0 L 126.0 149.0 " stroke="black" fill="none" stroke-width="5.0" stroke-linecap="round" stroke-linejoin="round" />
<path d="M 102.0 185.0 L 102.0 185.0 L 102.0 185.0 L 105.0 185.0 L 112.0 182.0 L 123.0 177.0 " stroke="black" fill="none" stroke-width="5.0" stroke-linecap="round" stroke-linejoin="round" />
<path d="M 142.0 116.0 L 142.0 116.0 L 141.0 116.0 L 140.0 116.0 L 140.0 118.0 L 140.0 122.0 L 141.0 126.0 L 142.0 128.0 " stroke="black" fill="none" stroke-width="5.0" stroke-linecap="round" stroke-linejoin="round" />
<path d="M 142.0 116.0 L 142.0 116.0 L 142.0 116.0 L 142.0 116.0 L 147.0 116.0 L 154.0 114.0 L 165.0 113.0 L 176.0 113.0 L 185.0 113.0 L 189.0 113.0 L 191.0 115.0 L 192.0 117.0 L 192.0 119.0 L 193.0 122.0 L 193.0 125.0 L 192.0 127.0 " stroke="black" fill="none" stroke-width="5.0" stroke-linecap="round" stroke-linejoin="round" />
<path d="M 160.0 103.0 L 160.0 102.0 L 160.0 101.0 L 161.0 102.0 L 162.0 106.0 L 163.0 109.0 " stroke="black" fill="none" stroke-width="5.0" stroke-linecap="round" stroke-linejoin="round" />
<path d="M 153.0 133.0 L 153.0 133.0 L 153.0 133.0 L 153.0 133.0 L 153.0 133.0 L 155.0 133.0 L 160.0 133.0 L 166.0 132.0 L 172.0 131.0 L 174.0 131.0 " stroke="black" fill="none" stroke-width="5.0" stroke-linecap="round" stroke-linejoin="round" />
<path d="M 142.0 152.0 L 142.0 152.0 L 142.0 152.0 L 143.0 151.0 L 146.0 151.0 L 153.0 150.0 L 165.0 149.0 L 177.0 148.0 L 186.0 148.0 L 189.0 148.0 L 189.0 148.0 L 188.0 148.0 " stroke="black" fill="none" stroke-width="5.0" stroke-linecap="round" stroke-linejoin="round" />
<path d="M 161.0 153.0 L 161.0 153.0 L 162.0 153.0 L 162.0 153.0 L 162.0 156.0 L 163.0 165.0 L 164.0 179.0 L 165.0 190.0 L 166.0 195.0 L 166.0 195.0 L 165.0 194.0 L 165.0 193.0 " stroke="black" fill="none" stroke-width="5.0" stroke-linecap="round" stroke-linejoin="round" />
<path d="M 151.0 164.0 L 151.0 165.0 L 150.0 166.0 L 149.0 168.0 L 147.0 171.0 L 143.0 178.0 L 137.0 188.0 L 134.0 196.0 L 133.0 198.0 " stroke="black" fill="none" stroke-width="5.0" stroke-linecap="round" stroke-linejoin="round" />
<path d="M 182.0 162.0 L 183.0 163.0 L 184.0 164.0 L 187.0 167.0 L 192.0 173.0 L 198.0 180.0 L 204.0 185.0 L 206.0 188.0 " stroke="black" fill="none" stroke-width="5.0" stroke-linecap="round" stroke-linejoin="round" />
</svg>