<svg xmlns="http://www.w3.org/2000/svg" width="300" height="300" viewBox="0 0 300 300">
<path d="M 118.5714285714286 120.71428571428574 L 118.5714285714286 120.71428571428574 L 118.5714285714286 120.71428571428574 L 118.5714285714286 121.42857142857146 L 118.5714285714286 121.42857142857146 L 119.28571428571432 122.14285714285718 L 122.85714285714288 124.28571428571432 L 127.85714285714288 125.71428571428574 " stroke="black" fill="none" stroke-width="5.0" stroke-linecap="round" stroke-linejoin="round" />
<path d="M 115.00000000000001 153.5714285714286 L 115.00000000000001 153.5714285714286 L 115.00000000000001 153.5714285714286 L 115.00000000000001 153.5714285714286 L 115.71428571428574 153.5714285714286 L 120.00000000000001 154.28571428571433 L 123.5714285714286 155.00000000000006 " stroke="black" fill="none" stroke-width="5.0" stroke-linecap="round" stroke-linejoin="round" />
<path d="M 106.42857142857146 187.8571428571429 L 107.85714285714288 187.8571428571429 L 110.71428571428574 187.14285714285717 L 116.42857142857146 185.00000000000006 L 125.71428571428574 180.00000000000006 " stroke="black" fill="none" stroke-width="5.0" stroke-linecap="round" stroke-linejoin="round" />
<path d="M 152.14285714285717 119.28571428571432 L 152.14285714285717 119.28571428571432 L 152.14285714285717 120.71428571428574 L 152.14285714285717 122.85714285714288 L 152.14285714285717 130.00000000000006 L 152.14285714285717 142.14285714285717 L 152.8571428571429 153.5714285714286 L 152.8571428571429 155.00000000000006 " stroke="black" fill="none" stroke-width="5.0" stroke-linecap="round" stroke-linejoin="round" />
<path d="M 168.5714285714286 115.71428571428574 L 168.5714285714286 115.71428571428574 L 168.5714285714286 115.71428571428574 L 168.5714285714286 117.85714285714288 L 169.28571428571433 123.5714285714286 L 171.42857142857144 135.00000000000006 L 172.8571428571429 146.42857142857144 L 173.5714285714286 150.00000000000006 " stroke="black" fill="none" stroke-width="5.0" stroke-linecap="round" stroke-linejoin="round" />
<path d="M 140.00000000000006 140.71428571428572 L 139.28571428571433 140.71428571428572 L 138.5714285714286 140.71428571428572 L 137.8571428571429 140.71428571428572 L 142.8571428571429 139.28571428571433 L 151.42857142857144 137.8571428571429 L 163.5714285714286 135.71428571428572 L 174.28571428571433 134.28571428571433 L 181.42857142857144 133.5714285714286 " stroke="black" fill="none" stroke-width="5.0" stroke-linecap="round" stroke-linejoin="round" />
<path d="M 139.28571428571433 158.5714285714286 L 139.28571428571433 158.5714285714286 L 139.28571428571433 159.28571428571433 L 142.14285714285717 159.28571428571433 L 150.71428571428572 157.8571428571429 L 165.00000000000006 155.71428571428572 L 178.5714285714286 152.8571428571429 L 185.71428571428578 152.14285714285717 " stroke="black" fill="none" stroke-width="5.0" stroke-linecap="round" stroke-linejoin="round" />
<path d="M 156.42857142857144 171.42857142857144 L 156.42857142857144 171.42857142857144 L 156.42857142857144 171.42857142857144 L 156.42857142857144 172.14285714285717 L 156.42857142857144 176.42857142857144 L 155.71428571428572 184.28571428571433 L 153.5714285714286 193.5714285714286 " stroke="black" fill="none" stroke-width="5.0" stroke-linecap="round" stroke-linejoin="round" />
<path d="M 176.42857142857144 175.71428571428578 L 176.42857142857144 175.71428571428578 L 177.14285714285717 175.71428571428578 L 178.5714285714286 177.8571428571429 L 181.42857142857144 185.71428571428578 L 186.42857142857144 195.00000000000006 L 188.5714285714286 198.5714285714286 " stroke="black" fill="none" stroke-width="5.0" stroke-linecap="round" stroke-linejoin="round" />
</svg>