<svg xmlns="http://www.w3.org/2000/svg" width="300" height="300" viewBox="0 0 300 300">
<path d="M 114.0 122.0 L 114.0 122.0 L 114.0 123.0 L 117.0 124.0 L 122.0 127.0 L 129.0 129.0 " stroke="black" fill="none" stroke-width="5.0" stroke-linecap="round" stroke-linejoin="round" />
<path d="M 108.0 155.0 L 108.0 155.0 L 108.0 155.0 L 109.0 156.0 L 111.0 157.0 L 117.0 157.0 L 121.0 156.0 " stroke="black" fill="none" stroke-width="5.0" stroke-linecap="round" stroke-linejoin="round" />
<path d="M 99.0 202.0 L 99.0 202.0 L 100.0 201.0 L 103.0 199.0 L 114.0 194.0 L 122.0 191.0 " stroke="black" fill="none" stroke-width="5.0" stroke-linecap="round" stroke-linejoin="round" />
<path d="M 153.0 123.0 L 153.0 123.0 L 153.0 123.0 L 153.0 124.0 L 152.0 127.0 L 150.0 134.0 L 145.0 143.0 L 142.0 148.0 " stroke="black" fill="none" stroke-width="5.0" stroke-linecap="round" stroke-linejoin="round" />
<path d="M 151.0 139.0 L 151.0 139.0 L 151.0 139.0 L 151.0 139.0 L 151.0 139.0 L 154.0 139.0 L 161.0 139.0 L 171.0 137.0 L 178.0 137.0 " stroke="black" fill="none" stroke-width="5.0" stroke-linecap="round" stroke-linejoin="round" />
<path d="M 142.0 162.0 L 142.0 162.0 L 142.0 161.0 L 145.0 161.0 L 152.0 161.0 L 164.0 161.0 L 177.0 160.0 L 187.0 159.0 " stroke="black" fill="none" stroke-width="5.0" stroke-linecap="round" stroke-linejoin="round" />
<path d="M 166.0 127.0 L 166.0 128.0 L 166.0 131.0 L 167.0 138.0 L 169.0 148.0 L 170.0 153.0 " stroke="black" fill="none" stroke-width="5.0" stroke-linecap="round" stroke-linejoin="round" />
<path d="M 157.0 165.0 L 157.0 166.0 L 157.0 168.0 L 157.0 170.0 L 156.0 174.0 L 155.0 183.0 L 151.0 194.0 L 145.0 204.0 L 143.0 206.0 " stroke="black" fill="none" stroke-width="5.0" stroke-linecap="round" stroke-linejoin="round" />
<path d="M 177.0 166.0 L 177.0 166.0 L 176.0 166.0 L 175.0 166.0 L 175.0 166.0 L 175.0 166.0 L 175.0 167.0 L 175.0 171.0 L 176.0 180.0 L 177.0 190.0 L 179.0 198.0 L 182.0 202.0 L 187.0 203.0 L 193.0 204.0 L 200.0 205.0 L 206.0 205.0 L 211.0 205.0 L 213.0 202.0 L 214.0 198.0 L 214.0 193.0 L 212.0 185.0 L 211.0 183.0 " stroke="black" fill="none" stroke-width="5.0" stroke-linecap="round" stroke-linejoin="round" />
</svg>