<svg xmlns="http://www.w3.org/2000/svg" width="300" height="300" viewBox="0 0 300 300">
<path d="M 115.0 116.0 L 115.0 116.0 L 114.0 116.0 L 114.0 116.0 L 116.0 118.0 L 121.0 120.0 L 127.0 123.0 " stroke="black" fill="none" stroke-width="5.0" stroke-linecap="round" stroke-linejoin="round" />
<path d="M 107.0 144.0 L 107.0 144.0 L 107.0 144.0 L 109.0 144.0 L 113.0 143.0 L 121.0 143.0 L 122.0 143.0 " stroke="black" fill="none" stroke-width="5.0" stroke-linecap="round" stroke-linejoin="round" />
<path d="M 101.0 179.0 L 101.0 179.0 L 101.0 179.0 L 103.0 179.0 L 108.0 177.0 L 119.0 174.0 L 129.0 171.0 " stroke="black" fill="none" stroke-width="5.0" stroke-linecap="round" stroke-linejoin="round" />
<path d="M 153.0 105.0 L 153.0 105.0 L 153.0 105.0 L 153.0 105.0 L 153.0 106.0 L 151.0 108.0 L 148.0 112.0 L 145.0 115.0 L 143.0 118.0 L 142.0 119.0 L 144.0 120.0 L 149.0 120.0 L 156.0 120.0 L 164.0 120.0 L 171.0 120.0 L 176.0 120.0 L 180.0 120.0 L 181.0 120.0 L 181.0 121.0 L 182.0 123.0 L 182.0 126.0 L 182.0 130.0 L 182.0 133.0 L 182.0 136.0 " stroke="black" fill="none" stroke-width="5.0" stroke-linecap="round" stroke-linejoin="round" />
<path d="M 143.0 137.0 L 143.0 137.0 L 143.0 137.0 L 143.0 137.0 L 146.0 137.0 L 155.0 137.0 L 167.0 137.0 L 177.0 137.0 L 181.0 137.0 L 182.0 137.0 " stroke="black" fill="none" stroke-width="5.0" stroke-linecap="round" stroke-linejoin="round" />
<path d="M 146.0 121.0 L 146.0 121.0 L 145.0 121.0 L 145.0 121.0 L 145.0 123.0 L 144.0 132.0 L 142.0 148.0 L 138.0 166.0 L 133.0 179.0 L 131.0 184.0 L 131.0 184.0 " stroke="black" fill="none" stroke-width="5.0" stroke-linecap="round" stroke-linejoin="round" />
<path d="M 150.0 157.0 L 150.0 157.0 L 150.0 157.0 L 151.0 157.0 L 156.0 157.0 L 165.0 156.0 L 175.0 155.0 L 180.0 155.0 L 181.0 155.0 " stroke="black" fill="none" stroke-width="5.0" stroke-linecap="round" stroke-linejoin="round" />
<path d="M 163.0 148.0 L 163.0 148.0 L 163.0 148.0 L 163.0 149.0 L 163.0 154.0 L 161.0 165.0 L 157.0 180.0 L 153.0 188.0 L 152.0 191.0 " stroke="black" fill="none" stroke-width="5.0" stroke-linecap="round" stroke-linejoin="round" />
<path d="M 164.0 159.0 L 164.0 159.0 L 166.0 159.0 L 167.0 159.0 L 170.0 161.0 L 175.0 168.0 L 182.0 178.0 L 188.0 188.0 L 191.0 193.0 " stroke="black" fill="none" stroke-width="5.0" stroke-linecap="round" stroke-linejoin="round" />
<path d="M 176.0 144.0 L 176.0 145.0 L 176.0 146.0 L 178.0 149.0 L 180.0 152.0 " stroke="black" fill="none" stroke-width="5.0" stroke-linecap="round" stroke-linejoin="round" />
</svg>