<svg xmlns="http://www.w3.org/2000/svg" width="300" height="300" viewBox="0 0 300 300">
<path d="M 117.49999999999999 116.66666666666667 L 117.49999999999999 116.66666666666667 L 117.49999999999999 116.66666666666667 L 118.33333333333333 117.49999999999999 L 124.99999999999999 119.99999999999999 L 129.16666666666669 121.66666666666667 " stroke="black" fill="none" stroke-width="5.0" stroke-linecap="round" stroke-linejoin="round" />
<path d="M 110.83333333333333 149.16666666666669 L 110.83333333333333 150.0 L 110.83333333333333 150.0 L 110.83333333333333 150.83333333333331 L 116.66666666666667 152.5 L 120.83333333333333 153.33333333333331 " stroke="black" fill="none" stroke-width="5.0" stroke-linecap="round" stroke-linejoin="round" />
<path d="M 108.33333333333333 195.83333333333331 L 108.33333333333333 195.83333333333331 L 109.16666666666667 195.83333333333331 L 109.99999999999999 195.83333333333331 L 114.16666666666667 194.16666666666663 L 123.33333333333333 188.33333333333331 L 126.66666666666667 186.66666666666663 " stroke="black" fill="none" stroke-width="5.0" stroke-linecap="round" stroke-linejoin="round" />
<path d="M 147.5 117.49999999999999 L 147.5 117.49999999999999 L 147.5 118.33333333333333 L 147.5 119.99999999999999 L 148.33333333333331 123.33333333333333 L 150.0 125.83333333333333 " stroke="black" fill="none" stroke-width="5.0" stroke-linecap="round" stroke-linejoin="round" />
<path d="M 175.83333333333331 109.99999999999999 L 175.83333333333331 109.99999999999999 L 175.83333333333331 109.99999999999999 L 175.83333333333331 110.83333333333333 L 175.0 114.99999999999999 L 172.5 120.83333333333333 L 169.16666666666663 127.49999999999999 L 168.33333333333331 128.33333333333331 " stroke="black" fill="none" stroke-width="5.0" stroke-linecap="round" stroke-linejoin="round" />
<path d="M 163.33333333333331 102.49999999999999 L 164.16666666666663 102.49999999999999 L 164.16666666666663 102.49999999999999 L 164.16666666666663 102.49999999999999 L 164.16666666666663 105.83333333333333 L 161.66666666666663 113.33333333333333 L 156.66666666666663 124.99999999999999 L 149.16666666666669 140.83333333333331 L 141.66666666666669 154.16666666666669 L 140.0 155.83333333333331 " stroke="black" fill="none" stroke-width="5.0" stroke-linecap="round" stroke-linejoin="round" />
<path d="M 155.0 132.5 L 155.0 132.5 L 155.0 132.5 L 157.5 132.5 L 165.0 138.33333333333331 L 177.5 145.0 L 186.66666666666663 148.33333333333331 " stroke="black" fill="none" stroke-width="5.0" stroke-linecap="round" stroke-linejoin="round" />
<path d="M 148.33333333333331 166.66666666666663 L 148.33333333333331 165.83333333333331 L 148.33333333333331 165.83333333333331 L 148.33333333333331 165.83333333333331 L 150.83333333333331 166.66666666666663 L 155.0 170.0 L 159.16666666666663 172.5 " stroke="black" fill="none" stroke-width="5.0" stroke-linecap="round" stroke-linejoin="round" />
<path d="M 180.83333333333331 156.66666666666663 L 180.83333333333331 156.66666666666663 L 180.83333333333331 157.5 L 180.83333333333331 157.5 L 180.83333333333331 159.16666666666663 L 179.16666666666663 162.5 L 175.83333333333331 168.33333333333331 L 173.33333333333331 170.83333333333331 " stroke="black" fill="none" stroke-width="5.0" stroke-linecap="round" stroke-linejoin="round" />
<path d="M 167.5 152.5 L 167.5 153.33333333333331 L 166.66666666666663 155.83333333333331 L 165.83333333333331 161.66666666666663 L 162.5 172.5 L 156.66666666666663 184.16666666666663 L 150.0 195.0 L 145.0 199.16666666666663 " stroke="black" fill="none" stroke-width="5.0" stroke-linecap="round" stroke-linejoin="round" />
<path d="M 157.5 181.66666666666663 L 158.33333333333331 181.66666666666663 L 160.0 181.66666666666663 L 164.16666666666663 182.5 L 171.66666666666663 188.33333333333331 L 181.66666666666663 196.66666666666663 L 190.0 203.33333333333331 L 193.33333333333331 204.16666666666663 " stroke="black" fill="none" stroke-width="5.0" stroke-linecap="round" stroke-linejoin="round" />
</svg>