<svg xmlns="http://www.w3.org/2000/svg" width="300" height="300" viewBox="0 0 300 300">
<path d="M 119.0 125.0 L 119.0 125.0 L 120.0 126.0 L 122.0 128.0 L 127.0 131.0 L 132.0 133.0 " stroke="black" fill="none" stroke-width="5.0" stroke-linecap="round" stroke-linejoin="round" />
<path d="M 111.0 157.0 L 113.0 157.0 L 114.0 157.0 L 118.0 157.0 L 123.0 157.0 " stroke="black" fill="none" stroke-width="5.0" stroke-linecap="round" stroke-linejoin="round" />
<path d="M 109.0 186.0 L 110.0 186.0 L 113.0 186.0 L 121.0 184.0 L 134.0 179.0 L 137.0 178.0 " stroke="black" fill="none" stroke-width="5.0" stroke-linecap="round" stroke-linejoin="round" />
<path d="M 154.0 115.0 L 154.0 115.0 L 154.0 115.0 L 154.0 115.0 L 156.0 117.0 L 158.0 121.0 L 161.0 126.0 L 161.0 127.0 " stroke="black" fill="none" stroke-width="5.0" stroke-linecap="round" stroke-linejoin="round" />
<path d="M 145.0 131.0 L 145.0 131.0 L 146.0 131.0 L 148.0 131.0 L 154.0 131.0 L 163.0 129.0 L 172.0 129.0 L 175.0 129.0 " stroke="black" fill="none" stroke-width="5.0" stroke-linecap="round" stroke-linejoin="round" />
<path d="M 146.0 146.0 L 146.0 146.0 L 146.0 147.0 L 146.0 149.0 L 146.0 152.0 L 146.0 155.0 L 147.0 156.0 " stroke="black" fill="none" stroke-width="5.0" stroke-linecap="round" stroke-linejoin="round" />
<path d="M 147.0 144.0 L 147.0 144.0 L 147.0 144.0 L 148.0 144.0 L 151.0 143.0 L 157.0 142.0 L 164.0 142.0 L 170.0 142.0 L 174.0 145.0 L 176.0 150.0 L 176.0 153.0 L 176.0 155.0 " stroke="black" fill="none" stroke-width="5.0" stroke-linecap="round" stroke-linejoin="round" />
<path d="M 147.0 156.0 L 147.0 157.0 L 148.0 158.0 L 150.0 159.0 L 156.0 159.0 L 164.0 158.0 L 171.0 156.0 L 173.0 155.0 " stroke="black" fill="none" stroke-width="5.0" stroke-linecap="round" stroke-linejoin="round" />
<path d="M 159.0 161.0 L 159.0 162.0 L 159.0 163.0 L 160.0 166.0 L 162.0 171.0 L 164.0 180.0 L 167.0 189.0 L 167.0 195.0 L 167.0 198.0 L 165.0 198.0 L 161.0 196.0 L 155.0 192.0 L 153.0 191.0 " stroke="black" fill="none" stroke-width="5.0" stroke-linecap="round" stroke-linejoin="round" />
<path d="M 151.0 170.0 L 151.0 169.0 L 151.0 169.0 L 151.0 169.0 L 151.0 172.0 L 148.0 179.0 L 144.0 187.0 L 143.0 190.0 " stroke="black" fill="none" stroke-width="5.0" stroke-linecap="round" stroke-linejoin="round" />
<path d="M 179.0 172.0 L 180.0 173.0 L 184.0 176.0 L 188.0 183.0 L 192.0 191.0 " stroke="black" fill="none" stroke-width="5.0" stroke-linecap="round" stroke-linejoin="round" />
</svg>