<svg xmlns="http://www.w3.org/2000/svg" width="300" height="300" viewBox="0 0 300 300">
<path d="M 121.0 125.0 L 121.0 125.0 L 121.0 125.0 L 122.0 125.0 L 122.0 125.0 L 124.0 126.0 L 127.0 128.0 L 130.0 130.0 " stroke="black" fill="none" stroke-width="5.0" stroke-linecap="round" stroke-linejoin="round" />
<path d="M 114.0 153.0 L 114.0 153.0 L 115.0 153.0 L 115.0 153.0 L 118.0 153.0 L 124.0 153.0 " stroke="black" fill="none" stroke-width="5.0" stroke-linecap="round" stroke-linejoin="round" />
<path d="M 107.0 175.0 L 108.0 175.0 L 110.0 175.0 L 116.0 174.0 L 128.0 170.0 L 131.0 169.0 " stroke="black" fill="none" stroke-width="5.0" stroke-linecap="round" stroke-linejoin="round" />
<path d="M 142.0 127.0 L 142.0 127.0 L 142.0 127.0 L 144.0 127.0 L 150.0 126.0 L 161.0 125.0 L 172.0 124.0 " stroke="black" fill="none" stroke-width="5.0" stroke-linecap="round" stroke-linejoin="round" />
<path d="M 157.0 119.0 L 157.0 119.0 L 157.0 119.0 L 157.0 119.0 L 157.0 120.0 L 155.0 122.0 L 152.0 126.0 L 149.0 132.0 L 147.0 137.0 L 148.0 139.0 L 152.0 141.0 L 158.0 141.0 L 166.0 141.0 L 169.0 140.0 " stroke="black" fill="none" stroke-width="5.0" stroke-linecap="round" stroke-linejoin="round" />
<path d="M 171.0 133.0 L 172.0 134.0 L 172.0 135.0 L 174.0 137.0 L 177.0 142.0 L 179.0 145.0 " stroke="black" fill="none" stroke-width="5.0" stroke-linecap="round" stroke-linejoin="round" />
<path d="M 146.0 159.0 L 146.0 159.0 L 146.0 159.0 L 146.0 161.0 L 146.0 166.0 L 145.0 175.0 L 145.0 178.0 " stroke="black" fill="none" stroke-width="5.0" stroke-linecap="round" stroke-linejoin="round" />
<path d="M 157.0 155.0 L 158.0 156.0 L 158.0 158.0 L 158.0 163.0 L 160.0 172.0 L 163.0 180.0 " stroke="black" fill="none" stroke-width="5.0" stroke-linecap="round" stroke-linejoin="round" />
<path d="M 177.0 157.0 L 177.0 157.0 L 177.0 159.0 L 177.0 164.0 L 177.0 173.0 L 183.0 184.0 L 193.0 190.0 L 202.0 191.0 L 206.0 190.0 " stroke="black" fill="none" stroke-width="5.0" stroke-linecap="round" stroke-linejoin="round" />
</svg>