<svg xmlns="http://www.w3.org/2000/svg" width="300" height="300" viewBox="0 0 300 300">
<path d="M 117.0 117.0 L 117.0 117.0 L 118.0 119.0 L 121.0 122.0 L 129.0 127.0 L 135.0 129.0 " stroke="black" fill="none" stroke-width="5.0" stroke-linecap="round" stroke-linejoin="round" />
<path d="M 113.0 155.0 L 113.0 155.0 L 114.0 155.0 L 115.0 155.0 L 121.0 154.0 L 129.0 153.0 " stroke="black" fill="none" stroke-width="5.0" stroke-linecap="round" stroke-linejoin="round" />
<path d="M 106.0 185.0 L 106.0 185.0 L 106.0 185.0 L 108.0 185.0 L 117.0 183.0 L 132.0 180.0 L 135.0 179.0 " stroke="black" fill="none" stroke-width="5.0" stroke-linecap="round" stroke-linejoin="round" />
<path d="M 157.0 114.0 L 157.0 113.0 L 157.0 112.0 L 157.0 111.0 L 157.0 111.0 L 156.0 115.0 L 152.0 126.0 L 147.0 140.0 " stroke="black" fill="none" stroke-width="5.0" stroke-linecap="round" stroke-linejoin="round" />
<path d="M 154.0 124.0 L 154.0 124.0 L 154.0 124.0 L 155.0 124.0 L 158.0 124.0 L 162.0 124.0 L 168.0 124.0 L 172.0 124.0 L 174.0 127.0 L 174.0 133.0 L 168.0 142.0 L 160.0 152.0 L 151.0 161.0 L 149.0 162.0 " stroke="black" fill="none" stroke-width="5.0" stroke-linecap="round" stroke-linejoin="round" />
<path d="M 154.0 139.0 L 154.0 139.0 L 154.0 139.0 L 155.0 139.0 L 161.0 142.0 L 172.0 147.0 L 183.0 153.0 L 188.0 158.0 " stroke="black" fill="none" stroke-width="5.0" stroke-linecap="round" stroke-linejoin="round" />
<path d="M 152.0 169.0 L 152.0 169.0 L 151.0 170.0 L 151.0 174.0 L 152.0 182.0 L 154.0 190.0 L 155.0 194.0 " stroke="black" fill="none" stroke-width="5.0" stroke-linecap="round" stroke-linejoin="round" />
<path d="M 153.0 169.0 L 154.0 169.0 L 154.0 169.0 L 155.0 169.0 L 158.0 169.0 L 163.0 168.0 L 171.0 167.0 L 177.0 167.0 L 181.0 167.0 L 185.0 171.0 L 187.0 177.0 L 189.0 184.0 L 190.0 190.0 L 190.0 193.0 " stroke="black" fill="none" stroke-width="5.0" stroke-linecap="round" stroke-linejoin="round" />
<path d="M 155.0 194.0 L 155.0 194.0 L 155.0 194.0 L 156.0 195.0 L 162.0 195.0 L 174.0 195.0 L 187.0 195.0 L 192.0 194.0 " stroke="black" fill="none" stroke-width="5.0" stroke-linecap="round" stroke-linejoin="round" />
</svg>