<svg xmlns="http://www.w3.org/2000/svg" width="300" height="300" viewBox="0 0 300 300">
<path d="M 116.0 123.0 L 116.0 123.0 L 117.0 124.0 L 118.0 126.0 L 121.0 128.0 L 126.0 130.0 L 128.0 131.0 " stroke="black" fill="none" stroke-width="5.0" stroke-linecap="round" stroke-linejoin="round" />
<path d="M 107.0 152.0 L 107.0 152.0 L 107.0 152.0 L 108.0 152.0 L 112.0 154.0 L 120.0 155.0 L 125.0 156.0 " stroke="black" fill="none" stroke-width="5.0" stroke-linecap="round" stroke-linejoin="round" />
<path d="M 104.0 187.0 L 104.0 187.0 L 105.0 187.0 L 108.0 187.0 L 115.0 183.0 L 125.0 176.0 L 127.0 174.0 " stroke="black" fill="none" stroke-width="5.0" stroke-linecap="round" stroke-linejoin="round" />
<path d="M 148.0 113.0 L 148.0 113.0 L 148.0 113.0 L 148.0 113.0 L 148.0 116.0 L 149.0 119.0 L 151.0 123.0 " stroke="black" fill="none" stroke-width="5.0" stroke-linecap="round" stroke-linejoin="round" />
<path d="M 163.0 111.0 L 163.0 113.0 L 163.0 117.0 L 162.0 123.0 L 159.0 129.0 L 159.0 131.0 " stroke="black" fill="none" stroke-width="5.0" stroke-linecap="round" stroke-linejoin="round" />
<path d="M 138.0 135.0 L 138.0 135.0 L 138.0 135.0 L 138.0 135.0 L 140.0 134.0 L 147.0 134.0 L 157.0 133.0 L 165.0 133.0 L 170.0 132.0 L 171.0 132.0 L 171.0 132.0 L 171.0 133.0 L 171.0 136.0 L 171.0 140.0 L 171.0 145.0 L 171.0 148.0 L 171.0 150.0 L 170.0 151.0 L 167.0 151.0 L 161.0 151.0 L 156.0 150.0 L 150.0 149.0 L 147.0 148.0 L 144.0 148.0 L 143.0 147.0 L 141.0 148.0 L 140.0 150.0 L 140.0 153.0 L 139.0 156.0 L 139.0 160.0 L 139.0 162.0 L 140.0 164.0 L 141.0 165.0 L 144.0 165.0 L 149.0 165.0 L 156.0 165.0 L 165.0 165.0 L 173.0 165.0 L 178.0 166.0 L 182.0 169.0 L 183.0 172.0 L 184.0 177.0 L 185.0 182.0 L 185.0 185.0 L 185.0 187.0 L 184.0 188.0 L 180.0 188.0 L 173.0 188.0 L 166.0 185.0 " stroke="black" fill="none" stroke-width="5.0" stroke-linecap="round" stroke-linejoin="round" />
<path d="M 155.0 132.0 L 155.0 132.0 L 155.0 134.0 L 155.0 139.0 L 157.0 155.0 L 161.0 176.0 L 163.0 191.0 L 164.0 197.0 L 164.0 197.0 " stroke="black" fill="none" stroke-width="5.0" stroke-linecap="round" stroke-linejoin="round" />
<path d="M 157.0 161.0 L 157.0 161.0 L 157.0 161.0 L 157.0 161.0 L 156.0 163.0 L 152.0 169.0 L 142.0 180.0 L 131.0 191.0 L 128.0 194.0 " stroke="black" fill="none" stroke-width="5.0" stroke-linecap="round" stroke-linejoin="round" />
</svg>