<svg xmlns="http://www.w3.org/2000/svg" width="300" height="300" viewBox="0 0 300 300">
<path d="M 120.0 126.0 L 120.0 126.0 L 120.0 126.0 L 120.0 126.0 L 121.0 127.0 L 126.0 129.0 L 132.0 131.0 " stroke="black" fill="none" stroke-width="5.0" stroke-linecap="round" stroke-linejoin="round" />
<path d="M 115.0 160.0 L 117.0 160.0 L 119.0 159.0 L 122.0 158.0 L 127.0 156.0 L 130.0 155.0 " stroke="black" fill="none" stroke-width="5.0" stroke-linecap="round" stroke-linejoin="round" />
<path d="M 105.0 191.0 L 106.0 191.0 L 109.0 191.0 L 116.0 188.0 L 129.0 183.0 " stroke="black" fill="none" stroke-width="5.0" stroke-linecap="round" stroke-linejoin="round" />
<path d="M 147.0 121.0 L 147.0 121.0 L 146.0 121.0 L 145.0 121.0 L 145.0 125.0 L 145.0 137.0 L 145.0 156.0 L 144.0 178.0 L 143.0 192.0 L 143.0 195.0 L 143.0 195.0 " stroke="black" fill="none" stroke-width="5.0" stroke-linecap="round" stroke-linejoin="round" />
<path d="M 154.0 115.0 L 154.0 115.0 L 155.0 115.0 L 156.0 115.0 L 160.0 115.0 L 168.0 115.0 L 178.0 115.0 L 187.0 114.0 L 192.0 114.0 L 195.0 114.0 L 196.0 114.0 L 196.0 114.0 L 196.0 114.0 L 196.0 116.0 L 198.0 122.0 L 200.0 133.0 L 202.0 146.0 L 204.0 160.0 L 206.0 174.0 L 206.0 185.0 L 206.0 191.0 L 204.0 193.0 L 201.0 193.0 L 197.0 192.0 L 188.0 190.0 L 185.0 189.0 " stroke="black" fill="none" stroke-width="5.0" stroke-linecap="round" stroke-linejoin="round" />
<path d="M 163.0 139.0 L 163.0 139.0 L 164.0 139.0 L 165.0 139.0 L 166.0 138.0 L 171.0 138.0 L 178.0 137.0 L 184.0 137.0 " stroke="black" fill="none" stroke-width="5.0" stroke-linecap="round" stroke-linejoin="round" />
<path d="M 158.0 158.0 L 158.0 158.0 L 158.0 158.0 L 158.0 158.0 L 158.0 159.0 L 159.0 163.0 L 160.0 167.0 L 161.0 170.0 L 161.0 170.0 " stroke="black" fill="none" stroke-width="5.0" stroke-linecap="round" stroke-linejoin="round" />
<path d="M 161.0 158.0 L 161.0 158.0 L 161.0 158.0 L 162.0 158.0 L 166.0 157.0 L 173.0 156.0 L 180.0 156.0 L 185.0 158.0 L 187.0 162.0 L 187.0 166.0 L 187.0 169.0 L 187.0 169.0 " stroke="black" fill="none" stroke-width="5.0" stroke-linecap="round" stroke-linejoin="round" />
<path d="M 164.0 172.0 L 165.0 173.0 L 167.0 174.0 L 171.0 175.0 L 179.0 175.0 L 187.0 174.0 " stroke="black" fill="none" stroke-width="5.0" stroke-linecap="round" stroke-linejoin="round" />
</svg>