<svg xmlns="http://www.w3.org/2000/svg" width="300" height="300" viewBox="0 0 300 300">
<path d="M 114.0 117.0 L 114.0 117.0 L 115.0 117.0 L 115.0 117.0 L 117.0 118.0 L 121.0 120.0 L 128.0 124.0 L 129.0 124.0 " stroke="black" fill="none" stroke-width="5.0" stroke-linecap="round" stroke-linejoin="round" />
<path d="M 107.0 146.0 L 107.0 146.0 L 107.0 146.0 L 108.0 146.0 L 108.0 146.0 L 110.0 145.0 L 116.0 145.0 L 118.0 145.0 " stroke="black" fill="none" stroke-width="5.0" stroke-linecap="round" stroke-linejoin="round" />
<path d="M 98.0 178.0 L 98.0 178.0 L 98.0 178.0 L 98.0 178.0 L 100.0 178.0 L 108.0 176.0 L 122.0 173.0 L 129.0 171.0 " stroke="black" fill="none" stroke-width="5.0" stroke-linecap="round" stroke-linejoin="round" />
<path d="M 143.0 113.0 L 143.0 113.0 L 143.0 113.0 L 143.0 113.0 L 143.0 122.0 L 143.0 143.0 L 142.0 167.0 L 137.0 186.0 L 134.0 193.0 " stroke="black" fill="none" stroke-width="5.0" stroke-linecap="round" stroke-linejoin="round" />
<path d="M 148.0 136.0 L 148.0 135.0 L 148.0 134.0 L 148.0 134.0 L 149.0 134.0 L 150.0 134.0 L 151.0 134.0 L 154.0 134.0 L 157.0 134.0 L 160.0 134.0 L 161.0 133.0 L 162.0 132.0 L 162.0 130.0 L 162.0 126.0 L 162.0 122.0 L 161.0 120.0 " stroke="black" fill="none" stroke-width="5.0" stroke-linecap="round" stroke-linejoin="round" />
<path d="M 145.0 166.0 L 145.0 166.0 L 145.0 166.0 L 145.0 166.0 L 145.0 166.0 L 148.0 166.0 L 152.0 165.0 L 157.0 165.0 L 160.0 164.0 L 163.0 167.0 L 165.0 173.0 L 166.0 181.0 L 168.0 188.0 L 169.0 191.0 " stroke="black" fill="none" stroke-width="5.0" stroke-linecap="round" stroke-linejoin="round" />
<path d="M 192.0 118.0 L 192.0 118.0 L 192.0 118.0 L 192.0 118.0 L 192.0 119.0 L 193.0 129.0 L 196.0 150.0 L 198.0 173.0 L 200.0 188.0 L 202.0 195.0 " stroke="black" fill="none" stroke-width="5.0" stroke-linecap="round" stroke-linejoin="round" />
<path d="M 178.0 122.0 L 178.0 122.0 L 178.0 122.0 L 178.0 122.0 L 178.0 123.0 L 178.0 126.0 L 178.0 131.0 L 178.0 135.0 L 183.0 137.0 L 192.0 137.0 L 194.0 137.0 " stroke="black" fill="none" stroke-width="5.0" stroke-linecap="round" stroke-linejoin="round" />
<path d="M 178.0 166.0 L 178.0 166.0 L 178.0 166.0 L 180.0 166.0 L 184.0 166.0 L 190.0 166.0 L 193.0 166.0 " stroke="black" fill="none" stroke-width="5.0" stroke-linecap="round" stroke-linejoin="round" />
<path d="M 182.0 165.0 L 182.0 166.0 L 182.0 168.0 L 182.0 171.0 L 182.0 178.0 L 184.0 187.0 L 185.0 191.0 " stroke="black" fill="none" stroke-width="5.0" stroke-linecap="round" stroke-linejoin="round" />
<path d="M 146.0 153.0 L 146.0 153.0 L 146.0 153.0 L 146.0 153.0 L 148.0 153.0 L 155.0 154.0 L 168.0 154.0 L 183.0 153.0 L 192.0 152.0 " stroke="black" fill="none" stroke-width="5.0" stroke-linecap="round" stroke-linejoin="round" />
</svg>