<svg xmlns="http://www.w3.org/2000/svg" width="300" height="300" viewBox="0 0 300 300">
<path d="M 123.0 122.0 L 124.0 124.0 L 124.0 125.0 L 127.0 126.0 L 130.0 128.0 " stroke="black" fill="none" stroke-width="5.0" stroke-linecap="round" stroke-linejoin="round" />
<path d="M 117.0 152.0 L 118.0 152.0 L 119.0 152.0 L 121.0 152.0 L 124.0 152.0 L 126.0 152.0 " stroke="black" fill="none" stroke-width="5.0" stroke-linecap="round" stroke-linejoin="round" />
<path d="M 105.0 184.0 L 106.0 184.0 L 107.0 183.0 L 111.0 183.0 L 118.0 180.0 L 126.0 177.0 " stroke="black" fill="none" stroke-width="5.0" stroke-linecap="round" stroke-linejoin="round" />
<path d="M 149.0 122.0 L 149.0 122.0 L 149.0 122.0 L 149.0 123.0 L 149.0 124.0 L 149.0 127.0 L 148.0 132.0 L 148.0 138.0 L 148.0 141.0 L 149.0 142.0 L 155.0 143.0 L 163.0 142.0 L 171.0 142.0 L 180.0 142.0 L 188.0 142.0 L 192.0 141.0 L 194.0 140.0 L 194.0 140.0 L 193.0 140.0 " stroke="black" fill="none" stroke-width="5.0" stroke-linecap="round" stroke-linejoin="round" />
<path d="M 162.0 118.0 L 162.0 118.0 L 162.0 119.0 L 162.0 121.0 L 163.0 126.0 L 164.0 132.0 L 164.0 134.0 " stroke="black" fill="none" stroke-width="5.0" stroke-linecap="round" stroke-linejoin="round" />
<path d="M 190.0 120.0 L 190.0 121.0 L 190.0 125.0 L 191.0 130.0 L 192.0 136.0 L 192.0 140.0 " stroke="black" fill="none" stroke-width="5.0" stroke-linecap="round" stroke-linejoin="round" />
<path d="M 150.0 155.0 L 150.0 155.0 L 151.0 155.0 L 155.0 155.0 L 162.0 155.0 L 173.0 155.0 L 181.0 155.0 L 186.0 154.0 L 186.0 154.0 " stroke="black" fill="none" stroke-width="5.0" stroke-linecap="round" stroke-linejoin="round" />
<path d="M 172.0 156.0 L 172.0 156.0 L 171.0 156.0 L 169.0 156.0 L 168.0 156.0 L 165.0 158.0 L 161.0 161.0 " stroke="black" fill="none" stroke-width="5.0" stroke-linecap="round" stroke-linejoin="round" />
<path d="M 150.0 170.0 L 150.0 170.0 L 150.0 170.0 L 150.0 170.0 L 150.0 172.0 L 150.0 177.0 L 150.0 186.0 L 150.0 195.0 L 150.0 199.0 L 151.0 200.0 " stroke="black" fill="none" stroke-width="5.0" stroke-linecap="round" stroke-linejoin="round" />
<path d="M 153.0 169.0 L 154.0 169.0 L 154.0 169.0 L 156.0 168.0 L 161.0 167.0 L 171.0 166.0 L 182.0 166.0 L 190.0 168.0 L 196.0 170.0 L 199.0 173.0 L 202.0 177.0 L 204.0 185.0 L 205.0 195.0 L 206.0 203.0 L 206.0 206.0 L 206.0 206.0 L 203.0 206.0 L 195.0 206.0 L 193.0 206.0 " stroke="black" fill="none" stroke-width="5.0" stroke-linecap="round" stroke-linejoin="round" />
<path d="M 165.0 168.0 L 165.0 169.0 L 165.0 170.0 L 165.0 172.0 L 165.0 179.0 L 167.0 189.0 L 169.0 200.0 L 170.0 204.0 " stroke="black" fill="none" stroke-width="5.0" stroke-linecap="round" stroke-linejoin="round" />
<path d="M 181.0 167.0 L 181.0 167.0 L 181.0 168.0 L 181.0 170.0 L 183.0 178.0 L 185.0 192.0 L 187.0 206.0 L 187.0 211.0 " stroke="black" fill="none" stroke-width="5.0" stroke-linecap="round" stroke-linejoin="round" />
</svg>