<svg xmlns="http://www.w3.org/2000/svg" width="300" height="300" viewBox="0 0 300 300">
<path d="M 120.0 118.0 L 120.0 118.0 L 120.0 118.0 L 120.0 118.0 L 123.0 120.0 L 129.0 123.0 L 134.0 126.0 " stroke="black" fill="none" stroke-width="5.0" stroke-linecap="round" stroke-linejoin="round" />
<path d="M 114.0 159.0 L 114.0 159.0 L 114.0 159.0 L 116.0 159.0 L 123.0 157.0 L 127.0 156.0 " stroke="black" fill="none" stroke-width="5.0" stroke-linecap="round" stroke-linejoin="round" />
<path d="M 110.0 187.0 L 110.0 187.0 L 110.0 187.0 L 113.0 187.0 L 121.0 184.0 L 130.0 180.0 " stroke="black" fill="none" stroke-width="5.0" stroke-linecap="round" stroke-linejoin="round" />
<path d="M 150.0 116.0 L 150.0 116.0 L 150.0 116.0 L 150.0 119.0 L 150.0 127.0 L 150.0 137.0 L 151.0 140.0 " stroke="black" fill="none" stroke-width="5.0" stroke-linecap="round" stroke-linejoin="round" />
<path d="M 149.0 117.0 L 149.0 117.0 L 149.0 117.0 L 151.0 117.0 L 156.0 117.0 L 164.0 116.0 L 171.0 116.0 L 175.0 116.0 L 178.0 120.0 L 180.0 126.0 L 181.0 132.0 L 182.0 137.0 L 182.0 138.0 " stroke="black" fill="none" stroke-width="5.0" stroke-linecap="round" stroke-linejoin="round" />
<path d="M 151.0 130.0 L 151.0 130.0 L 151.0 130.0 L 151.0 130.0 L 155.0 130.0 L 163.0 130.0 L 172.0 130.0 L 179.0 130.0 L 180.0 130.0 " stroke="black" fill="none" stroke-width="5.0" stroke-linecap="round" stroke-linejoin="round" />
<path d="M 161.0 120.0 L 161.0 120.0 L 161.0 120.0 L 161.0 120.0 L 162.0 125.0 L 163.0 132.0 " stroke="black" fill="none" stroke-width="5.0" stroke-linecap="round" stroke-linejoin="round" />
<path d="M 151.0 146.0 L 151.0 146.0 L 151.0 146.0 L 152.0 147.0 L 157.0 147.0 L 167.0 146.0 L 177.0 145.0 L 182.0 145.0 " stroke="black" fill="none" stroke-width="5.0" stroke-linecap="round" stroke-linejoin="round" />
<path d="M 154.0 157.0 L 154.0 157.0 L 154.0 157.0 L 153.0 157.0 L 153.0 159.0 L 153.0 165.0 L 153.0 177.0 L 153.0 189.0 L 153.0 196.0 L 153.0 196.0 " stroke="black" fill="none" stroke-width="5.0" stroke-linecap="round" stroke-linejoin="round" />
<path d="M 152.0 159.0 L 152.0 159.0 L 152.0 159.0 L 152.0 159.0 L 154.0 159.0 L 158.0 159.0 L 165.0 158.0 L 172.0 158.0 L 176.0 158.0 L 179.0 159.0 L 182.0 162.0 L 185.0 168.0 L 188.0 177.0 L 190.0 187.0 L 190.0 194.0 L 190.0 198.0 L 189.0 200.0 L 184.0 200.0 L 178.0 200.0 L 174.0 199.0 " stroke="black" fill="none" stroke-width="5.0" stroke-linecap="round" stroke-linejoin="round" />
<path d="M 154.0 171.0 L 154.0 171.0 L 154.0 171.0 L 155.0 171.0 L 158.0 171.0 L 166.0 171.0 L 174.0 172.0 L 180.0 172.0 L 182.0 172.0 " stroke="black" fill="none" stroke-width="5.0" stroke-linecap="round" stroke-linejoin="round" />
<path d="M 154.0 186.0 L 154.0 186.0 L 154.0 186.0 L 155.0 186.0 L 161.0 186.0 L 174.0 186.0 L 186.0 186.0 " stroke="black" fill="none" stroke-width="5.0" stroke-linecap="round" stroke-linejoin="round" />
</svg>