<svg xmlns="http://www.w3.org/2000/svg" width="300" height="300" viewBox="0 0 300 300">
<path d="M 115.0 112.0 L 115.0 112.0 L 116.0 112.0 L 117.0 112.0 L 117.0 113.0 L 119.0 113.0 L 122.0 114.0 L 126.0 116.0 L 129.0 117.0 " stroke="black" fill="none" stroke-width="5.0" stroke-linecap="round" stroke-linejoin="round" />
<path d="M 111.0 127.0 L 111.0 128.0 L 112.0 128.0 L 113.0 129.0 L 115.0 129.0 L 121.0 129.0 L 126.0 129.0 " stroke="black" fill="none" stroke-width="5.0" stroke-linecap="round" stroke-linejoin="round" />
<path d="M 107.0 144.0 L 107.0 144.0 L 108.0 145.0 L 112.0 145.0 L 120.0 145.0 L 132.0 143.0 " stroke="black" fill="none" stroke-width="5.0" stroke-linecap="round" stroke-linejoin="round" />
<path d="M 147.0 106.0 L 147.0 106.0 L 147.0 106.0 L 147.0 105.0 L 147.0 105.0 L 151.0 105.0 L 158.0 105.0 L 168.0 105.0 L 176.0 105.0 " stroke="black" fill="none" stroke-width="5.0" stroke-linecap="round" stroke-linejoin="round" />
<path d="M 146.0 110.0 L 146.0 110.0 L 146.0 110.0 L 146.0 110.0 L 146.0 111.0 L 145.0 117.0 L 144.0 129.0 L 143.0 142.0 L 143.0 150.0 L 146.0 153.0 L 155.0 154.0 L 166.0 152.0 L 170.0 152.0 " stroke="black" fill="none" stroke-width="5.0" stroke-linecap="round" stroke-linejoin="round" />
<path d="M 150.71428571428572 122.14285714285718 L 150.71428571428572 122.14285714285718 L 150.71428571428572 122.14285714285718 L 150.71428571428572 122.14285714285718 L 150.71428571428572 122.14285714285718 L 150.71428571428572 122.14285714285718 L 152.8571428571429 122.14285714285718 L 156.42857142857144 122.14285714285718 L 162.14285714285717 122.14285714285718 L 168.5714285714286 122.14285714285718 L 172.14285714285717 122.14285714285718 L 173.5714285714286 122.14285714285718 L 174.28571428571433 123.5714285714286 L 174.28571428571433 127.14285714285718 L 174.28571428571433 131.42857142857144 L 174.28571428571433 135.71428571428572 L 175.00000000000006 137.14285714285717 " stroke="black" fill="none" stroke-width="5.0" stroke-linecap="round" stroke-linejoin="round" />
<path d="M 148.5714285714286 133.5714285714286 L 149.28571428571433 133.5714285714286 L 150.00000000000006 133.5714285714286 L 150.71428571428572 133.5714285714286 L 152.8571428571429 133.5714285714286 L 157.8571428571429 133.5714285714286 L 167.8571428571429 133.5714285714286 L 173.5714285714286 133.5714285714286 " stroke="black" fill="none" stroke-width="5.0" stroke-linecap="round" stroke-linejoin="round" />
<path d="M 113.0 170.0 L 113.0 170.0 L 114.0 170.0 L 115.0 170.0 L 117.0 171.0 L 127.0 172.0 L 147.0 172.0 L 169.0 171.0 L 181.0 171.0 " stroke="black" fill="none" stroke-width="5.0" stroke-linecap="round" stroke-linejoin="round" />
<path d="M 147.0 163.0 L 147.0 163.0 L 147.0 165.0 L 147.0 165.0 L 147.0 167.0 L 148.0 169.0 L 148.0 176.0 L 148.0 190.0 L 148.0 201.0 " stroke="black" fill="none" stroke-width="5.0" stroke-linecap="round" stroke-linejoin="round" />
<path d="M 147.0 177.0 L 147.0 177.0 L 146.0 176.0 L 145.0 176.0 L 143.0 176.0 L 138.0 179.0 L 125.0 187.0 L 109.0 198.0 L 102.0 203.0 " stroke="black" fill="none" stroke-width="5.0" stroke-linecap="round" stroke-linejoin="round" />
<path d="M 155.0 176.0 L 155.0 176.0 L 156.0 177.0 L 158.0 178.0 L 166.0 185.0 L 177.0 196.0 L 180.0 200.0 " stroke="black" fill="none" stroke-width="5.0" stroke-linecap="round" stroke-linejoin="round" />
</svg>