<svg xmlns="http://www.w3.org/2000/svg" width="300" height="300" viewBox="0 0 300 300">
<path d="M 120.0 122.0 L 120.0 122.0 L 121.0 122.0 L 122.0 122.0 L 123.0 123.0 L 125.0 124.0 L 129.0 126.0 L 132.0 129.0 " stroke="black" fill="none" stroke-width="5.0" stroke-linecap="round" stroke-linejoin="round" />
<path d="M 114.0 151.0 L 114.0 151.0 L 115.0 151.0 L 117.0 152.0 L 122.0 152.0 L 125.0 152.0 " stroke="black" fill="none" stroke-width="5.0" stroke-linecap="round" stroke-linejoin="round" />
<path d="M 106.0 186.0 L 106.0 186.0 L 106.0 186.0 L 110.0 185.0 L 122.0 181.0 L 134.0 177.0 " stroke="black" fill="none" stroke-width="5.0" stroke-linecap="round" stroke-linejoin="round" />
<path d="M 151.0 116.0 L 151.0 116.0 L 151.0 116.0 L 151.0 117.0 L 151.0 120.0 L 152.0 131.0 L 153.0 132.0 " stroke="black" fill="none" stroke-width="5.0" stroke-linecap="round" stroke-linejoin="round" />
<path d="M 152.0 115.0 L 152.0 115.0 L 153.0 115.0 L 153.0 115.0 L 155.0 115.0 L 159.0 114.0 L 165.0 114.0 L 171.0 114.0 L 177.0 114.0 L 181.0 115.0 L 183.0 117.0 L 183.0 122.0 L 183.0 127.0 L 183.0 132.0 L 183.0 135.0 L 183.0 135.0 " stroke="black" fill="none" stroke-width="5.0" stroke-linecap="round" stroke-linejoin="round" />
<path d="M 166.0 126.0 L 166.0 126.0 L 166.0 127.0 L 166.0 127.0 L 166.0 129.0 L 167.0 131.0 L 167.0 131.0 " stroke="black" fill="none" stroke-width="5.0" stroke-linecap="round" stroke-linejoin="round" />
<path d="M 167.0 125.0 L 168.0 125.0 L 169.0 125.0 L 170.0 126.0 L 172.0 126.0 L 175.0 126.0 L 178.0 126.0 L 180.0 126.0 " stroke="black" fill="none" stroke-width="5.0" stroke-linecap="round" stroke-linejoin="round" />
<path d="M 144.0 139.0 L 143.0 139.0 L 143.0 139.0 L 143.0 139.0 L 143.0 138.0 L 144.0 138.0 L 145.0 138.0 L 148.0 138.0 L 152.0 138.0 L 158.0 138.0 L 165.0 138.0 L 173.0 139.0 L 180.0 139.0 L 185.0 139.0 L 188.0 139.0 L 190.0 140.0 L 191.0 141.0 L 192.0 143.0 L 192.0 145.0 L 192.0 147.0 L 192.0 149.0 L 192.0 149.0 " stroke="black" fill="none" stroke-width="5.0" stroke-linecap="round" stroke-linejoin="round" />
<path d="M 147.0 143.0 L 147.0 143.0 L 147.0 144.0 L 147.0 146.0 L 147.0 148.0 " stroke="black" fill="none" stroke-width="5.0" stroke-linecap="round" stroke-linejoin="round" />
<path d="M 157.0 153.0 L 157.0 153.0 L 156.0 154.0 L 156.0 157.0 L 156.0 164.0 L 157.0 175.0 L 157.0 184.0 L 158.0 189.0 L 158.0 189.0 " stroke="black" fill="none" stroke-width="5.0" stroke-linecap="round" stroke-linejoin="round" />
<path d="M 159.0 153.0 L 159.0 153.0 L 160.0 152.0 L 161.0 152.0 L 163.0 151.0 L 167.0 151.0 L 170.0 151.0 L 174.0 151.0 L 178.0 153.0 L 182.0 159.0 L 185.0 169.0 L 187.0 180.0 L 189.0 189.0 L 189.0 194.0 L 189.0 196.0 L 187.0 196.0 L 182.0 196.0 L 176.0 194.0 L 173.0 192.0 " stroke="black" fill="none" stroke-width="5.0" stroke-linecap="round" stroke-linejoin="round" />
<path d="M 159.0 162.0 L 159.0 162.0 L 159.0 162.0 L 159.0 162.0 L 160.0 162.0 L 163.0 162.0 L 169.0 162.0 L 176.0 162.0 L 179.0 162.0 " stroke="black" fill="none" stroke-width="5.0" stroke-linecap="round" stroke-linejoin="round" />
<path d="M 161.0 176.0 L 161.0 176.0 L 163.0 177.0 L 166.0 177.0 L 173.0 177.0 L 181.0 176.0 L 183.0 175.0 " stroke="black" fill="none" stroke-width="5.0" stroke-linecap="round" stroke-linejoin="round" />
</svg>