<svg xmlns="http://www.w3.org/2000/svg" width="300" height="300" viewBox="0 0 300 300">
<path d="M 112.0 115.0 L 112.0 115.0 L 113.0 116.0 L 116.0 118.0 L 121.0 120.0 L 123.0 121.0 " stroke="black" fill="none" stroke-width="5.0" stroke-linecap="round" stroke-linejoin="round" />
<path d="M 103.0 144.0 L 103.0 144.0 L 104.0 145.0 L 106.0 145.0 L 112.0 145.0 L 119.0 145.0 " stroke="black" fill="none" stroke-width="5.0" stroke-linecap="round" stroke-linejoin="round" />
<path d="M 96.0 180.0 L 97.0 180.0 L 99.0 180.0 L 106.0 176.0 L 119.0 166.0 " stroke="black" fill="none" stroke-width="5.0" stroke-linecap="round" stroke-linejoin="round" />
<path d="M 138.0 111.0 L 138.0 111.0 L 137.0 111.0 L 137.0 111.0 L 137.0 114.0 L 139.0 118.0 L 140.0 122.0 " stroke="black" fill="none" stroke-width="5.0" stroke-linecap="round" stroke-linejoin="round" />
<path d="M 151.0 110.0 L 151.0 110.0 L 151.0 110.0 L 151.0 111.0 L 150.0 114.0 L 149.0 118.0 " stroke="black" fill="none" stroke-width="5.0" stroke-linecap="round" stroke-linejoin="round" />
<path d="M 129.0 130.0 L 130.0 130.0 L 131.0 130.0 L 133.0 130.0 L 136.0 130.0 L 143.0 130.0 L 151.0 129.0 L 157.0 127.0 L 158.0 127.0 " stroke="black" fill="none" stroke-width="5.0" stroke-linecap="round" stroke-linejoin="round" />
<path d="M 132.0 143.0 L 132.0 143.0 L 132.0 143.0 L 132.0 143.0 L 131.0 143.0 L 131.0 144.0 L 131.0 148.0 L 131.0 152.0 L 131.0 156.0 L 135.0 159.0 L 142.0 159.0 L 150.0 159.0 L 157.0 158.0 L 160.0 156.0 L 161.0 155.0 L 161.0 151.0 L 159.0 146.0 " stroke="black" fill="none" stroke-width="5.0" stroke-linecap="round" stroke-linejoin="round" />
<path d="M 146.0 131.0 L 146.0 132.0 L 146.0 133.0 L 145.0 135.0 L 144.0 142.0 L 144.0 156.0 L 142.0 173.0 L 140.0 185.0 L 140.0 187.0 " stroke="black" fill="none" stroke-width="5.0" stroke-linecap="round" stroke-linejoin="round" />
<path d="M 170.0 119.0 L 170.0 119.0 L 170.0 119.0 L 170.0 120.0 L 170.0 125.0 L 170.0 139.0 L 169.0 158.0 L 167.0 173.0 L 166.0 180.0 L 166.0 181.0 L 166.0 178.0 " stroke="black" fill="none" stroke-width="5.0" stroke-linecap="round" stroke-linejoin="round" />
<path d="M 171.0 118.0 L 171.0 118.0 L 171.0 117.0 L 172.0 116.0 L 173.0 115.0 L 175.0 114.0 L 178.0 113.0 L 181.0 114.0 L 184.0 119.0 L 187.0 127.0 L 190.0 143.0 L 193.0 161.0 L 195.0 174.0 L 195.0 181.0 L 195.0 183.0 L 193.0 184.0 L 188.0 184.0 L 183.0 180.0 " stroke="black" fill="none" stroke-width="5.0" stroke-linecap="round" stroke-linejoin="round" />
<path d="M 173.0 137.0 L 174.0 137.0 L 175.0 137.0 L 177.0 137.0 L 181.0 137.0 L 185.0 137.0 L 188.0 137.0 " stroke="black" fill="none" stroke-width="5.0" stroke-linecap="round" stroke-linejoin="round" />
<path d="M 174.0 160.0 L 174.0 160.0 L 174.0 161.0 L 177.0 161.0 L 185.0 161.0 L 188.0 160.0 " stroke="black" fill="none" stroke-width="5.0" stroke-linecap="round" stroke-linejoin="round" />
</svg>