<svg xmlns="http://www.w3.org/2000/svg" width="300" height="300" viewBox="0 0 300 300">
<path d="M 118.0 121.0 L 118.0 121.0 L 120.0 121.0 L 121.0 121.0 L 122.0 122.0 L 123.0 123.0 L 126.0 125.0 L 129.0 126.0 L 130.0 127.0 " stroke="black" fill="none" stroke-width="5.0" stroke-linecap="round" stroke-linejoin="round" />
<path d="M 111.0 148.0 L 111.0 148.0 L 112.0 148.0 L 113.0 148.0 L 118.0 148.0 L 123.0 148.0 L 125.0 148.0 " stroke="black" fill="none" stroke-width="5.0" stroke-linecap="round" stroke-linejoin="round" />
<path d="M 102.0 185.0 L 102.0 185.0 L 102.0 185.0 L 104.0 185.0 L 113.0 183.0 L 127.0 178.0 " stroke="black" fill="none" stroke-width="5.0" stroke-linecap="round" stroke-linejoin="round" />
<path d="M 146.0 125.0 L 146.0 125.0 L 146.0 125.0 L 148.0 125.0 L 155.0 125.0 L 168.0 124.0 L 179.0 123.0 L 184.0 123.0 " stroke="black" fill="none" stroke-width="5.0" stroke-linecap="round" stroke-linejoin="round" />
<path d="M 145.0 128.0 L 144.0 130.0 L 143.0 134.0 L 142.0 144.0 L 141.0 161.0 L 138.0 178.0 L 136.0 189.0 L 135.0 192.0 " stroke="black" fill="none" stroke-width="5.0" stroke-linecap="round" stroke-linejoin="round" />
<path d="M 152.0 146.0 L 152.0 146.0 L 152.0 146.0 L 153.0 146.0 L 155.0 146.0 L 160.0 145.0 L 167.0 144.0 L 170.0 144.0 " stroke="black" fill="none" stroke-width="5.0" stroke-linecap="round" stroke-linejoin="round" />
<path d="M 153.0 155.0 L 153.0 155.0 L 153.0 157.0 L 154.0 158.0 L 156.0 160.0 " stroke="black" fill="none" stroke-width="5.0" stroke-linecap="round" stroke-linejoin="round" />
<path d="M 171.0 153.0 L 171.0 154.0 L 171.0 155.0 L 170.0 157.0 L 168.0 159.0 L 168.0 160.0 " stroke="black" fill="none" stroke-width="5.0" stroke-linecap="round" stroke-linejoin="round" />
<path d="M 161.0 152.0 L 161.0 152.0 L 161.0 152.0 L 161.0 154.0 L 161.0 158.0 L 159.0 165.0 L 156.0 175.0 L 153.0 182.0 L 152.0 185.0 " stroke="black" fill="none" stroke-width="5.0" stroke-linecap="round" stroke-linejoin="round" />
<path d="M 158.0 171.0 L 159.0 172.0 L 160.0 175.0 L 164.0 178.0 L 171.0 180.0 L 174.0 181.0 " stroke="black" fill="none" stroke-width="5.0" stroke-linecap="round" stroke-linejoin="round" />
<path d="M 173.0 108.0 L 173.0 108.0 L 173.0 113.0 L 177.0 126.0 L 182.0 146.0 L 189.0 163.0 L 192.0 175.0 L 194.0 183.0 L 195.0 186.0 " stroke="black" fill="none" stroke-width="5.0" stroke-linecap="round" stroke-linejoin="round" />
<path d="M 197.0 158.0 L 196.0 159.0 L 193.0 162.0 L 190.0 166.0 L 185.0 173.0 L 180.0 179.0 L 178.0 180.0 " stroke="black" fill="none" stroke-width="5.0" stroke-linecap="round" stroke-linejoin="round" />
<path d="M 193.0 107.0 L 193.0 108.0 L 194.0 110.0 L 196.0 115.0 L 197.0 118.0 " stroke="black" fill="none" stroke-width="5.0" stroke-linecap="round" stroke-linejoin="round" />
</svg>