<svg xmlns="http://www.w3.org/2000/svg" width="300" height="300" viewBox="0 0 300 300">
<path d="M 124.0 124.0 L 124.0 124.0 L 124.0 124.0 L 124.0 124.0 L 127.0 127.0 L 133.0 131.0 " stroke="black" fill="none" stroke-width="5.0" stroke-linecap="round" stroke-linejoin="round" />
<path d="M 111.0 160.0 L 111.0 160.0 L 111.0 160.0 L 111.0 160.0 L 112.0 160.0 L 118.0 159.0 L 127.0 158.0 " stroke="black" fill="none" stroke-width="5.0" stroke-linecap="round" stroke-linejoin="round" />
<path d="M 104.0 191.0 L 104.0 191.0 L 104.0 191.0 L 108.0 190.0 L 118.0 187.0 L 128.0 184.0 " stroke="black" fill="none" stroke-width="5.0" stroke-linecap="round" stroke-linejoin="round" />
<path d="M 146.0 128.0 L 146.0 128.0 L 146.0 128.0 L 146.0 129.0 L 150.0 129.0 L 155.0 128.0 " stroke="black" fill="none" stroke-width="5.0" stroke-linecap="round" stroke-linejoin="round" />
<path d="M 146.0 140.0 L 146.0 140.0 L 146.0 140.0 L 147.0 140.0 L 149.0 140.0 L 152.0 140.0 " stroke="black" fill="none" stroke-width="5.0" stroke-linecap="round" stroke-linejoin="round" />
<path d="M 137.0 151.0 L 137.0 151.0 L 140.0 151.0 L 144.0 151.0 L 152.0 151.0 L 161.0 151.0 L 165.0 151.0 " stroke="black" fill="none" stroke-width="5.0" stroke-linecap="round" stroke-linejoin="round" />
<path d="M 150.0 124.0 L 150.0 124.0 L 150.0 124.0 L 150.0 124.0 L 150.0 129.0 L 151.0 142.0 L 153.0 158.0 L 153.0 161.0 " stroke="black" fill="none" stroke-width="5.0" stroke-linecap="round" stroke-linejoin="round" />
<path d="M 165.0 125.0 L 166.0 125.0 L 168.0 125.0 L 170.0 125.0 L 172.0 125.0 L 175.0 125.0 L 178.0 125.0 L 180.0 126.0 L 182.0 128.0 L 184.0 133.0 L 187.0 141.0 L 189.0 149.0 L 189.0 154.0 L 189.0 157.0 L 187.0 157.0 L 183.0 156.0 L 180.0 154.0 " stroke="black" fill="none" stroke-width="5.0" stroke-linecap="round" stroke-linejoin="round" />
<path d="M 170.0 129.0 L 170.0 129.0 L 170.0 130.0 L 170.0 132.0 L 170.0 136.0 L 168.0 143.0 L 168.0 145.0 " stroke="black" fill="none" stroke-width="5.0" stroke-linecap="round" stroke-linejoin="round" />
<path d="M 167.0 162.0 L 168.0 163.0 L 168.0 163.0 L 168.0 164.0 L 168.0 164.0 L 166.0 166.0 L 163.0 168.0 L 158.0 171.0 L 155.0 174.0 L 155.0 176.0 L 157.0 177.0 L 163.0 178.0 L 164.0 178.0 " stroke="black" fill="none" stroke-width="5.0" stroke-linecap="round" stroke-linejoin="round" />
<path d="M 178.0 171.0 L 178.0 171.0 L 178.0 171.0 L 177.0 171.0 L 177.0 171.0 L 176.0 171.0 L 174.0 173.0 L 169.0 177.0 L 162.0 183.0 L 157.0 189.0 L 156.0 191.0 L 157.0 192.0 L 164.0 191.0 L 172.0 189.0 L 180.0 187.0 L 185.0 186.0 " stroke="black" fill="none" stroke-width="5.0" stroke-linecap="round" stroke-linejoin="round" />
<path d="M 184.0 183.0 L 184.0 184.0 L 184.0 185.0 L 184.0 186.0 L 186.0 189.0 L 187.0 191.0 " stroke="black" fill="none" stroke-width="5.0" stroke-linecap="round" stroke-linejoin="round" />
<path d="M 170.0 189.0 L 170.0 189.0 L 170.0 189.0 L 170.0 191.0 L 172.0 199.0 L 175.0 211.0 L 176.0 219.0 L 176.0 221.0 L 174.0 220.0 L 168.0 215.0 L 166.0 214.0 " stroke="black" fill="none" stroke-width="5.0" stroke-linecap="round" stroke-linejoin="round" />
<path d="M 157.0 195.0 L 157.0 195.0 L 157.0 195.0 L 156.0 197.0 L 153.0 203.0 L 151.0 211.0 " stroke="black" fill="none" stroke-width="5.0" stroke-linecap="round" stroke-linejoin="round" />
<path d="M 189.0 200.0 L 189.0 203.0 L 191.0 208.0 L 192.0 214.0 L 194.0 219.0 " stroke="black" fill="none" stroke-width="5.0" stroke-linecap="round" stroke-linejoin="round" />
</svg>