<svg xmlns="http://www.w3.org/2000/svg" width="300" height="300" viewBox="0 0 300 300">
<path d="M 110.0 126.0 L 111.0 126.0 L 111.0 127.0 L 113.0 128.0 L 118.0 129.0 L 122.0 130.0 " stroke="black" fill="none" stroke-width="5.0" stroke-linecap="round" stroke-linejoin="round" />
<path d="M 104.0 155.0 L 104.0 155.0 L 104.0 155.0 L 104.0 155.0 L 106.0 155.0 L 112.0 154.0 L 118.0 153.0 " stroke="black" fill="none" stroke-width="5.0" stroke-linecap="round" stroke-linejoin="round" />
<path d="M 94.0 189.0 L 94.0 189.0 L 96.0 189.0 L 102.0 187.0 L 111.0 183.0 L 122.0 180.0 " stroke="black" fill="none" stroke-width="5.0" stroke-linecap="round" stroke-linejoin="round" />
<path d="M 156.0 110.0 L 156.0 110.0 L 156.0 110.0 L 156.0 110.0 L 156.0 111.0 L 155.0 114.0 L 151.0 120.0 L 145.0 128.0 " stroke="black" fill="none" stroke-width="5.0" stroke-linecap="round" stroke-linejoin="round" />
<path d="M 149.0 123.0 L 149.0 124.0 L 148.0 124.0 L 148.0 125.0 L 149.0 125.0 L 155.0 125.0 L 161.0 124.0 L 165.0 124.0 L 167.0 125.0 L 167.0 128.0 L 162.0 133.0 L 160.0 135.0 " stroke="black" fill="none" stroke-width="5.0" stroke-linecap="round" stroke-linejoin="round" />
<path d="M 135.0 146.0 L 135.0 146.0 L 135.0 146.0 L 135.0 146.0 L 135.0 148.0 L 135.0 154.0 L 137.0 160.0 L 137.0 162.0 " stroke="black" fill="none" stroke-width="5.0" stroke-linecap="round" stroke-linejoin="round" />
<path d="M 138.0 144.0 L 138.0 144.0 L 138.0 143.0 L 139.0 143.0 L 143.0 143.0 L 149.0 142.0 L 157.0 141.0 L 166.0 141.0 L 173.0 141.0 L 178.0 142.0 L 181.0 146.0 L 183.0 153.0 L 184.0 161.0 L 184.0 167.0 L 184.0 170.0 " stroke="black" fill="none" stroke-width="5.0" stroke-linecap="round" stroke-linejoin="round" />
<path d="M 146.0 154.0 L 146.0 154.0 L 146.0 154.0 L 146.0 154.0 L 150.0 154.0 L 159.0 154.0 L 170.0 153.0 L 175.0 153.0 " stroke="black" fill="none" stroke-width="5.0" stroke-linecap="round" stroke-linejoin="round" />
<path d="M 153.0 144.0 L 153.0 144.0 L 153.0 146.0 L 153.0 149.0 L 154.0 155.0 L 155.0 163.0 L 156.0 164.0 " stroke="black" fill="none" stroke-width="5.0" stroke-linecap="round" stroke-linejoin="round" />
<path d="M 140.0 169.0 L 139.0 170.0 L 139.0 170.0 L 141.0 170.0 L 149.0 170.0 L 161.0 169.0 L 173.0 168.0 L 177.0 168.0 " stroke="black" fill="none" stroke-width="5.0" stroke-linecap="round" stroke-linejoin="round" />
<path d="M 136.0 183.0 L 136.0 183.0 L 136.0 183.0 L 136.0 183.0 L 136.0 183.0 L 135.0 183.0 L 135.0 185.0 L 134.0 190.0 L 133.0 194.0 " stroke="black" fill="none" stroke-width="5.0" stroke-linecap="round" stroke-linejoin="round" />
<path d="M 154.0 184.0 L 154.0 184.0 L 154.0 184.0 L 153.0 184.0 L 153.0 187.0 L 154.0 193.0 L 155.0 196.0 " stroke="black" fill="none" stroke-width="5.0" stroke-linecap="round" stroke-linejoin="round" />
<path d="M 171.0 184.0 L 171.0 184.0 L 171.0 184.0 L 172.0 184.0 L 173.0 186.0 L 175.0 191.0 L 177.0 197.0 " stroke="black" fill="none" stroke-width="5.0" stroke-linecap="round" stroke-linejoin="round" />
<path d="M 196.0 183.0 L 196.0 183.0 L 197.0 184.0 L 199.0 187.0 L 202.0 191.0 L 203.0 196.0 " stroke="black" fill="none" stroke-width="5.0" stroke-linecap="round" stroke-linejoin="round" />
</svg>