<svg xmlns="http://www.w3.org/2000/svg" width="300" height="300" viewBox="0 0 300 300">
<path d="M 115.0 122.0 L 117.0 122.0 L 117.0 123.0 L 118.0 123.0 L 120.0 124.0 L 127.0 127.0 L 129.0 128.0 " stroke="black" fill="none" stroke-width="5.0" stroke-linecap="round" stroke-linejoin="round" />
<path d="M 108.0 147.0 L 110.0 147.0 L 111.0 148.0 L 113.0 148.0 L 116.0 149.0 L 122.0 149.0 " stroke="black" fill="none" stroke-width="5.0" stroke-linecap="round" stroke-linejoin="round" />
<path d="M 102.0 186.0 L 102.0 186.0 L 102.0 186.0 L 102.0 186.0 L 113.0 182.0 L 119.0 180.0 L 125.0 179.0 " stroke="black" fill="none" stroke-width="5.0" stroke-linecap="round" stroke-linejoin="round" />
<path d="M 145.0 117.0 L 145.0 117.0 L 145.0 118.0 L 146.0 118.0 L 148.0 118.0 L 151.0 118.0 L 154.0 118.0 L 157.0 118.0 L 158.0 118.0 L 160.0 120.0 L 160.0 125.0 L 161.0 131.0 L 161.0 137.0 L 161.0 141.0 L 161.0 142.0 L 161.0 143.0 " stroke="black" fill="none" stroke-width="5.0" stroke-linecap="round" stroke-linejoin="round" />
<path d="M 146.0 130.0 L 146.0 131.0 L 146.0 131.0 L 147.0 131.0 L 151.0 131.0 L 155.0 131.0 L 156.0 131.0 L 158.0 131.0 " stroke="black" fill="none" stroke-width="5.0" stroke-linecap="round" stroke-linejoin="round" />
<path d="M 144.0 142.0 L 145.0 143.0 L 145.0 143.0 L 148.0 143.0 L 153.0 143.0 L 156.0 143.0 L 158.0 143.0 " stroke="black" fill="none" stroke-width="5.0" stroke-linecap="round" stroke-linejoin="round" />
<path d="M 143.0 120.0 L 143.0 120.0 L 142.0 121.0 L 142.0 124.0 L 141.0 135.0 L 139.0 152.0 L 137.0 171.0 L 136.0 184.0 L 135.0 191.0 L 135.0 194.0 L 136.0 194.0 " stroke="black" fill="none" stroke-width="5.0" stroke-linecap="round" stroke-linejoin="round" />
<path d="M 174.0 119.0 L 174.0 119.0 L 174.0 120.0 L 174.0 120.0 L 176.0 120.0 L 179.0 120.0 L 183.0 121.0 L 187.0 121.0 L 191.0 122.0 L 193.0 122.0 L 194.0 124.0 L 195.0 128.0 L 197.0 137.0 L 198.0 152.0 L 200.0 168.0 L 200.0 182.0 L 200.0 192.0 L 200.0 197.0 L 200.0 198.0 L 198.0 199.0 L 193.0 198.0 L 187.0 195.0 L 184.0 193.0 " stroke="black" fill="none" stroke-width="5.0" stroke-linecap="round" stroke-linejoin="round" />
<path d="M 172.0 121.0 L 172.0 121.0 L 172.0 121.0 L 172.0 121.0 L 172.0 121.0 L 172.0 121.0 L 172.0 123.0 L 172.0 130.0 L 172.0 137.0 L 172.0 143.0 L 175.0 146.0 L 181.0 147.0 L 186.0 147.0 L 188.0 147.0 L 190.0 147.0 " stroke="black" fill="none" stroke-width="5.0" stroke-linecap="round" stroke-linejoin="round" />
<path d="M 173.0 135.0 L 174.0 137.0 L 176.0 137.0 L 178.0 137.0 L 186.0 137.0 L 190.0 137.0 L 193.0 137.0 " stroke="black" fill="none" stroke-width="5.0" stroke-linecap="round" stroke-linejoin="round" />
<path d="M 154.0 159.0 L 154.0 159.0 L 154.0 159.0 L 154.0 159.0 L 154.0 159.0 L 157.0 159.0 L 163.0 159.0 L 169.0 158.0 L 174.0 158.0 L 175.0 159.0 " stroke="black" fill="none" stroke-width="5.0" stroke-linecap="round" stroke-linejoin="round" />
<path d="M 155.0 169.0 L 156.0 169.0 L 156.0 170.0 L 159.0 170.0 L 163.0 170.0 L 169.0 170.0 L 172.0 170.0 L 172.0 170.0 " stroke="black" fill="none" stroke-width="5.0" stroke-linecap="round" stroke-linejoin="round" />
<path d="M 150.0 182.0 L 150.0 182.0 L 151.0 183.0 L 154.0 183.0 L 160.0 183.0 L 168.0 183.0 L 175.0 183.0 L 179.0 183.0 " stroke="black" fill="none" stroke-width="5.0" stroke-linecap="round" stroke-linejoin="round" />
<path d="M 164.0 160.0 L 164.0 160.0 L 164.0 161.0 L 164.0 165.0 L 164.0 170.0 L 164.0 177.0 L 165.0 181.0 " stroke="black" fill="none" stroke-width="5.0" stroke-linecap="round" stroke-linejoin="round" />
</svg>