<svg xmlns="http://www.w3.org/2000/svg" width="300" height="300" viewBox="0 0 300 300">
<path d="M 109.0 118.0 L 109.0 118.0 L 111.0 119.0 L 113.0 120.0 L 117.0 121.0 L 122.0 122.0 L 124.0 122.0 " stroke="black" fill="none" stroke-width="5.0" stroke-linecap="round" stroke-linejoin="round" />
<path d="M 102.0 151.0 L 103.0 151.0 L 105.0 151.0 L 108.0 150.0 L 112.0 149.0 L 116.0 148.0 " stroke="black" fill="none" stroke-width="5.0" stroke-linecap="round" stroke-linejoin="round" />
<path d="M 93.0 186.0 L 93.0 186.0 L 94.0 186.0 L 97.0 186.0 L 103.0 185.0 L 113.0 181.0 L 123.0 176.0 " stroke="black" fill="none" stroke-width="5.0" stroke-linecap="round" stroke-linejoin="round" />
<path d="M 141.0 106.0 L 141.0 106.0 L 141.0 106.0 L 141.0 106.0 L 143.0 106.0 L 148.0 106.0 L 156.0 106.0 L 164.0 106.0 L 169.0 106.0 L 172.0 106.0 L 174.0 107.0 L 175.0 111.0 L 176.0 116.0 L 176.0 120.0 L 177.0 122.0 L 177.0 122.0 " stroke="black" fill="none" stroke-width="5.0" stroke-linecap="round" stroke-linejoin="round" />
<path d="M 139.0 126.0 L 139.0 126.0 L 139.0 126.0 L 140.0 126.0 L 145.0 126.0 L 155.0 125.0 L 167.0 124.0 L 174.0 122.0 L 174.0 122.0 " stroke="black" fill="none" stroke-width="5.0" stroke-linecap="round" stroke-linejoin="round" />
<path d="M 138.0 109.0 L 138.0 109.0 L 138.0 109.0 L 138.0 109.0 L 138.0 113.0 L 138.0 122.0 L 137.0 139.0 L 135.0 161.0 L 132.0 180.0 L 130.0 191.0 L 130.0 192.0 L 131.0 190.0 " stroke="black" fill="none" stroke-width="5.0" stroke-linecap="round" stroke-linejoin="round" />
<path d="M 147.0 142.0 L 147.0 142.0 L 147.0 142.0 L 147.0 142.0 L 149.0 142.0 L 155.0 142.0 L 166.0 141.0 L 174.0 140.0 L 179.0 139.0 L 179.0 139.0 " stroke="black" fill="none" stroke-width="5.0" stroke-linecap="round" stroke-linejoin="round" />
<path d="M 145.0 156.0 L 145.0 156.0 L 144.0 156.0 L 143.0 157.0 L 143.0 161.0 L 143.0 168.0 L 144.0 179.0 L 145.0 188.0 L 145.0 192.0 L 146.0 192.0 " stroke="black" fill="none" stroke-width="5.0" stroke-linecap="round" stroke-linejoin="round" />
<path d="M 147.0 153.0 L 147.0 153.0 L 148.0 153.0 L 148.0 153.0 L 150.0 153.0 L 154.0 153.0 L 162.0 153.0 L 172.0 153.0 L 180.0 154.0 L 186.0 155.0 L 191.0 158.0 L 194.0 162.0 L 196.0 168.0 L 197.0 178.0 L 198.0 189.0 L 199.0 197.0 L 199.0 201.0 L 199.0 202.0 L 196.0 202.0 L 190.0 200.0 L 185.0 197.0 " stroke="black" fill="none" stroke-width="5.0" stroke-linecap="round" stroke-linejoin="round" />
<path d="M 163.0 145.0 L 163.0 144.0 L 164.0 144.0 L 164.0 144.0 L 164.0 147.0 L 165.0 154.0 L 168.0 166.0 L 171.0 180.0 L 173.0 190.0 L 173.0 193.0 L 173.0 193.0 L 173.0 193.0 " stroke="black" fill="none" stroke-width="5.0" stroke-linecap="round" stroke-linejoin="round" />
<path d="M 154.0 165.0 L 154.0 165.0 L 154.0 166.0 L 154.0 167.0 L 155.0 167.0 L 157.0 168.0 L 159.0 170.0 L 159.0 170.0 " stroke="black" fill="none" stroke-width="5.0" stroke-linecap="round" stroke-linejoin="round" />
<path d="M 148.0 184.0 L 148.0 184.0 L 149.0 184.0 L 151.0 184.0 L 154.0 184.0 L 159.0 181.0 L 162.0 180.0 " stroke="black" fill="none" stroke-width="5.0" stroke-linecap="round" stroke-linejoin="round" />
<path d="M 176.0 169.0 L 178.0 169.0 L 178.0 169.0 L 180.0 169.0 L 182.0 168.0 L 184.0 167.0 L 185.0 166.0 " stroke="black" fill="none" stroke-width="5.0" stroke-linecap="round" stroke-linejoin="round" />
<path d="M 180.0 178.0 L 181.0 178.0 L 183.0 180.0 L 186.0 183.0 L 190.0 186.0 L 191.0 188.0 " stroke="black" fill="none" stroke-width="5.0" stroke-linecap="round" stroke-linejoin="round" />
</svg>