<svg xmlns="http://www.w3.org/2000/svg" width="300" height="300" viewBox="0 0 300 300">
<path d="M 109.0 112.0 L 109.0 112.0 L 109.0 112.0 L 109.0 112.0 L 110.0 114.0 L 115.0 117.0 L 121.0 120.0 " stroke="black" fill="none" stroke-width="5.0" stroke-linecap="round" stroke-linejoin="round" />
<path d="M 104.0 149.0 L 105.0 149.0 L 106.0 150.0 L 110.0 150.0 L 116.0 151.0 L 118.0 151.0 " stroke="black" fill="none" stroke-width="5.0" stroke-linecap="round" stroke-linejoin="round" />
<path d="M 98.0 184.0 L 99.0 184.0 L 101.0 183.0 L 108.0 181.0 L 120.0 175.0 L 129.0 170.0 " stroke="black" fill="none" stroke-width="5.0" stroke-linecap="round" stroke-linejoin="round" />
<path d="M 135.0 114.0 L 135.0 114.0 L 135.0 114.0 L 135.0 114.0 L 135.0 114.0 L 135.0 118.0 L 137.0 124.0 L 137.0 126.0 " stroke="black" fill="none" stroke-width="5.0" stroke-linecap="round" stroke-linejoin="round" />
<path d="M 137.0 113.0 L 137.0 113.0 L 138.0 113.0 L 140.0 113.0 L 147.0 112.0 L 158.0 111.0 L 171.0 110.0 L 180.0 110.0 L 187.0 113.0 L 190.0 116.0 L 191.0 120.0 L 192.0 125.0 L 190.0 129.0 L 190.0 129.0 " stroke="black" fill="none" stroke-width="5.0" stroke-linecap="round" stroke-linejoin="round" />
<path d="M 139.0 132.0 L 139.0 132.0 L 139.0 132.0 L 142.0 132.0 L 148.0 132.0 L 161.0 132.0 L 176.0 132.0 L 185.0 132.0 L 187.0 132.0 " stroke="black" fill="none" stroke-width="5.0" stroke-linecap="round" stroke-linejoin="round" />
<path d="M 153.0 116.0 L 153.0 116.0 L 154.0 116.0 L 154.0 117.0 L 154.0 119.0 L 155.0 124.0 L 155.0 127.0 " stroke="black" fill="none" stroke-width="5.0" stroke-linecap="round" stroke-linejoin="round" />
<path d="M 174.0 112.0 L 174.0 112.0 L 174.0 116.0 L 174.0 121.0 L 174.0 129.0 L 174.0 132.0 " stroke="black" fill="none" stroke-width="5.0" stroke-linecap="round" stroke-linejoin="round" />
<path d="M 152.0 144.0 L 152.0 144.0 L 153.0 144.0 L 156.0 144.0 L 162.0 143.0 L 172.0 143.0 L 179.0 143.0 L 180.0 143.0 " stroke="black" fill="none" stroke-width="5.0" stroke-linecap="round" stroke-linejoin="round" />
<path d="M 139.0 155.0 L 139.0 155.0 L 142.0 155.0 L 147.0 156.0 L 157.0 156.0 L 171.0 156.0 L 184.0 156.0 L 191.0 157.0 " stroke="black" fill="none" stroke-width="5.0" stroke-linecap="round" stroke-linejoin="round" />
<path d="M 163.0 137.0 L 163.0 136.0 L 163.0 136.0 L 164.0 136.0 L 165.0 140.0 L 167.0 148.0 L 167.0 153.0 " stroke="black" fill="none" stroke-width="5.0" stroke-linecap="round" stroke-linejoin="round" />
<path d="M 153.0 160.0 L 153.0 160.0 L 153.0 160.0 L 154.0 160.0 L 155.0 163.0 L 157.0 165.0 " stroke="black" fill="none" stroke-width="5.0" stroke-linecap="round" stroke-linejoin="round" />
<path d="M 176.0 159.0 L 176.0 161.0 L 176.0 163.0 L 176.0 166.0 L 176.0 170.0 " stroke="black" fill="none" stroke-width="5.0" stroke-linecap="round" stroke-linejoin="round" />
<path d="M 149.0 171.0 L 149.0 171.0 L 151.0 171.0 L 155.0 171.0 L 164.0 171.0 L 176.0 171.0 L 184.0 171.0 L 186.0 171.0 " stroke="black" fill="none" stroke-width="5.0" stroke-linecap="round" stroke-linejoin="round" />
<path d="M 149.0 185.0 L 149.0 185.0 L 150.0 185.0 L 152.0 185.0 L 160.0 185.0 L 171.0 185.0 L 183.0 186.0 L 189.0 186.0 L 190.0 186.0 " stroke="black" fill="none" stroke-width="5.0" stroke-linecap="round" stroke-linejoin="round" />
<path d="M 166.0 174.0 L 166.0 174.0 L 166.0 174.0 L 167.0 176.0 L 168.0 184.0 L 169.0 196.0 L 171.0 207.0 L 171.0 213.0 L 171.0 213.0 " stroke="black" fill="none" stroke-width="5.0" stroke-linecap="round" stroke-linejoin="round" />
</svg>