<svg xmlns="http://www.w3.org/2000/svg" width="300" height="300" viewBox="0 0 300 300">
<path d="M 120.0 127.0 L 120.0 127.0 L 120.0 127.0 L 121.0 127.0 L 122.0 128.0 L 123.0 128.0 L 128.0 130.0 L 134.0 132.0 L 136.0 133.0 " stroke="black" fill="none" stroke-width="5.0" stroke-linecap="round" stroke-linejoin="round" />
<path d="M 116.0 156.0 L 116.0 156.0 L 116.0 156.0 L 116.0 156.0 L 121.0 156.0 L 130.0 154.0 L 133.0 154.0 " stroke="black" fill="none" stroke-width="5.0" stroke-linecap="round" stroke-linejoin="round" />
<path d="M 102.0 190.0 L 102.0 190.0 L 102.0 190.0 L 103.0 190.0 L 109.0 188.0 L 123.0 182.0 L 131.0 178.0 " stroke="black" fill="none" stroke-width="5.0" stroke-linecap="round" stroke-linejoin="round" />
<path d="M 157.0 119.0 L 157.0 119.0 L 157.0 119.0 L 156.0 119.0 L 156.0 119.0 L 158.0 120.0 L 162.0 120.0 L 166.0 121.0 L 168.0 122.0 L 168.0 126.0 L 166.0 131.0 L 160.0 139.0 L 152.0 147.0 L 146.0 153.0 " stroke="black" fill="none" stroke-width="5.0" stroke-linecap="round" stroke-linejoin="round" />
<path d="M 147.0 131.0 L 147.0 131.0 L 147.0 131.0 L 147.0 131.0 L 150.0 132.0 L 155.0 134.0 L 157.0 135.0 " stroke="black" fill="none" stroke-width="5.0" stroke-linecap="round" stroke-linejoin="round" />
<path d="M 178.0 126.0 L 178.0 126.0 L 178.0 126.0 L 178.0 126.0 L 178.0 128.0 L 183.0 132.0 L 192.0 138.0 L 200.0 143.0 L 203.0 145.0 " stroke="black" fill="none" stroke-width="5.0" stroke-linecap="round" stroke-linejoin="round" />
<path d="M 181.0 127.0 L 181.0 128.0 L 181.0 128.0 L 181.0 128.0 L 181.0 128.0 L 184.0 126.0 L 188.0 122.0 L 191.0 119.0 " stroke="black" fill="none" stroke-width="5.0" stroke-linecap="round" stroke-linejoin="round" />
<path d="M 188.0 135.0 L 188.0 135.0 L 188.0 134.0 L 189.0 134.0 L 192.0 133.0 L 195.0 131.0 L 199.0 129.0 " stroke="black" fill="none" stroke-width="5.0" stroke-linecap="round" stroke-linejoin="round" />
<path d="M 166.0 148.0 L 166.0 148.0 L 166.0 148.0 L 167.0 148.0 L 169.0 148.0 L 175.0 147.0 L 184.0 146.0 L 189.0 146.0 " stroke="black" fill="none" stroke-width="5.0" stroke-linecap="round" stroke-linejoin="round" />
<path d="M 160.0 160.0 L 160.0 160.0 L 160.0 160.0 L 159.0 161.0 L 159.0 163.0 L 160.0 165.0 L 161.0 167.0 " stroke="black" fill="none" stroke-width="5.0" stroke-linecap="round" stroke-linejoin="round" />
<path d="M 159.0 160.0 L 160.0 160.0 L 160.0 160.0 L 164.0 159.0 L 171.0 158.0 L 181.0 156.0 L 189.0 156.0 L 192.0 159.0 L 192.0 163.0 L 192.0 167.0 L 191.0 168.0 " stroke="black" fill="none" stroke-width="5.0" stroke-linecap="round" stroke-linejoin="round" />
<path d="M 157.0 169.0 L 157.0 170.0 L 157.0 170.0 L 159.0 171.0 L 166.0 171.0 L 177.0 171.0 L 179.0 170.0 " stroke="black" fill="none" stroke-width="5.0" stroke-linecap="round" stroke-linejoin="round" />
<path d="M 160.0 173.0 L 161.0 173.0 L 161.0 173.0 L 162.0 176.0 L 165.0 181.0 L 167.0 186.0 " stroke="black" fill="none" stroke-width="5.0" stroke-linecap="round" stroke-linejoin="round" />
<path d="M 187.0 173.0 L 186.0 175.0 L 185.0 178.0 L 184.0 183.0 L 182.0 189.0 L 180.0 194.0 " stroke="black" fill="none" stroke-width="5.0" stroke-linecap="round" stroke-linejoin="round" />
<path d="M 145.0 198.0 L 148.0 198.0 L 153.0 198.0 L 169.0 198.0 L 193.0 199.0 L 213.0 199.0 L 218.0 199.0 " stroke="black" fill="none" stroke-width="5.0" stroke-linecap="round" stroke-linejoin="round" />
</svg>