<svg xmlns="http://www.w3.org/2000/svg" width="300" height="300" viewBox="0 0 300 300">
<path d="M 149.0 107.0 L 149.0 107.0 L 149.0 107.0 L 149.0 108.0 L 149.0 109.0 L 149.0 110.0 L 151.0 113.0 L 152.0 115.0 " stroke="black" fill="none" stroke-width="5.0" stroke-linecap="round" stroke-linejoin="round" />
<path d="M 127.0 123.0 L 127.0 123.0 L 128.0 123.0 L 130.0 123.0 L 137.0 123.0 L 150.0 122.0 L 164.0 121.0 L 174.0 121.0 L 177.0 121.0 " stroke="black" fill="none" stroke-width="5.0" stroke-linecap="round" stroke-linejoin="round" />
<path d="M 139.0 138.0 L 139.0 138.0 L 139.0 137.0 L 139.0 136.0 L 139.0 137.0 L 140.0 140.0 L 141.0 145.0 L 141.0 148.0 " stroke="black" fill="none" stroke-width="5.0" stroke-linecap="round" stroke-linejoin="round" />
<path d="M 138.0 138.0 L 138.0 138.0 L 138.0 138.0 L 139.0 138.0 L 143.0 137.0 L 151.0 136.0 L 158.0 135.0 L 163.0 136.0 L 165.0 140.0 L 166.0 146.0 L 166.0 150.0 L 166.0 152.0 L 165.0 153.0 " stroke="black" fill="none" stroke-width="5.0" stroke-linecap="round" stroke-linejoin="round" />
<path d="M 140.0 150.0 L 140.0 150.0 L 141.0 150.0 L 144.0 151.0 L 150.0 151.0 L 158.0 150.0 L 163.0 150.0 L 164.0 150.0 " stroke="black" fill="none" stroke-width="5.0" stroke-linecap="round" stroke-linejoin="round" />
<path d="M 142.0 162.0 L 142.0 162.0 L 142.0 162.0 L 142.0 162.0 L 143.0 163.0 L 147.0 163.0 L 152.0 164.0 L 157.0 165.0 L 159.0 165.0 L 160.0 167.0 L 157.0 169.0 L 153.0 171.0 L 149.0 174.0 L 147.0 177.0 L 147.0 180.0 L 149.0 184.0 L 153.0 188.0 L 156.0 192.0 L 158.0 196.0 L 159.0 199.0 L 159.0 200.0 L 155.0 200.0 L 149.0 198.0 " stroke="black" fill="none" stroke-width="5.0" stroke-linecap="round" stroke-linejoin="round" />
<path d="M 123.0 202.0 L 124.0 203.0 L 124.0 206.0 L 124.0 212.0 L 124.0 216.0 " stroke="black" fill="none" stroke-width="5.0" stroke-linecap="round" stroke-linejoin="round" />
<path d="M 144.0 206.0 L 144.0 206.0 L 144.0 206.0 L 144.0 206.0 L 144.0 208.0 L 144.0 211.0 L 145.0 214.0 " stroke="black" fill="none" stroke-width="5.0" stroke-linecap="round" stroke-linejoin="round" />
<path d="M 159.0 207.0 L 159.0 207.0 L 159.0 208.0 L 160.0 210.0 L 162.0 213.0 L 162.0 216.0 " stroke="black" fill="none" stroke-width="5.0" stroke-linecap="round" stroke-linejoin="round" />
<path d="M 192.0 203.0 L 192.0 205.0 L 192.0 208.0 L 193.0 211.0 L 194.0 216.0 " stroke="black" fill="none" stroke-width="5.0" stroke-linecap="round" stroke-linejoin="round" />
</svg>