<svg xmlns="http://www.w3.org/2000/svg" width="300" height="300" viewBox="0 0 300 300">
<path d="M 137.0 111.0 L 137.0 111.0 L 137.0 111.0 L 137.0 111.0 L 139.0 112.0 L 145.0 112.0 L 152.0 112.0 L 158.0 112.0 L 161.0 113.0 L 161.0 115.0 L 159.0 118.0 L 156.0 122.0 L 152.0 125.0 L 149.0 127.0 L 147.0 131.0 L 147.0 135.0 L 149.0 140.0 L 152.0 147.0 L 156.0 155.0 L 158.0 163.0 L 159.0 168.0 L 158.0 170.0 L 155.0 171.0 L 150.0 171.0 L 143.0 170.0 " stroke="black" fill="none" stroke-width="5.0" stroke-linecap="round" stroke-linejoin="round" />
<path d="M 127.0 141.0 L 127.0 141.0 L 128.0 141.0 L 129.0 141.0 L 131.0 141.0 L 135.0 141.0 L 139.0 141.0 L 143.0 143.0 L 143.0 145.0 L 140.0 151.0 L 132.0 158.0 L 122.0 165.0 L 114.0 169.0 L 113.0 169.0 " stroke="black" fill="none" stroke-width="5.0" stroke-linecap="round" stroke-linejoin="round" />
<path d="M 163.0 141.0 L 163.0 141.0 L 164.0 141.0 L 171.0 140.0 L 180.0 139.0 L 188.0 137.0 L 192.0 137.0 " stroke="black" fill="none" stroke-width="5.0" stroke-linecap="round" stroke-linejoin="round" />
<path d="M 162.0 145.0 L 162.0 146.0 L 163.0 147.0 L 166.0 152.0 L 174.0 160.0 L 185.0 169.0 L 188.0 172.0 " stroke="black" fill="none" stroke-width="5.0" stroke-linecap="round" stroke-linejoin="round" />
<path d="M 135.0 184.0 L 135.0 184.0 L 135.0 184.0 L 135.0 183.0 L 136.0 183.0 L 142.0 183.0 L 154.0 183.0 L 169.0 181.0 L 181.0 180.0 " stroke="black" fill="none" stroke-width="5.0" stroke-linecap="round" stroke-linejoin="round" />
<path d="M 124.0 197.0 L 124.0 197.0 L 124.0 197.0 L 124.0 197.0 L 124.0 198.0 L 123.0 202.0 L 121.0 211.0 " stroke="black" fill="none" stroke-width="5.0" stroke-linecap="round" stroke-linejoin="round" />
<path d="M 151.0 198.0 L 151.0 198.0 L 151.0 198.0 L 151.0 199.0 L 151.0 202.0 L 152.0 207.0 " stroke="black" fill="none" stroke-width="5.0" stroke-linecap="round" stroke-linejoin="round" />
<path d="M 175.0 195.0 L 175.0 195.0 L 175.0 195.0 L 175.0 196.0 L 176.0 198.0 L 178.0 204.0 L 180.0 210.0 " stroke="black" fill="none" stroke-width="5.0" stroke-linecap="round" stroke-linejoin="round" />
<path d="M 207.0 193.0 L 208.0 193.0 L 211.0 196.0 L 216.0 206.0 L 220.0 214.0 " stroke="black" fill="none" stroke-width="5.0" stroke-linecap="round" stroke-linejoin="round" />
</svg>