<svg xmlns="http://www.w3.org/2000/svg" width="300" height="300" viewBox="0 0 300 300">
<path d="M 129.16666666666669 127.49999999999999 L 129.16666666666669 127.49999999999999 L 129.16666666666669 127.49999999999999 L 129.16666666666669 127.49999999999999 L 132.5 130.83333333333331 L 139.16666666666669 139.16666666666669 L 140.83333333333331 140.83333333333331 " stroke="black" fill="none" stroke-width="5.0" stroke-linecap="round" stroke-linejoin="round" />
<path d="M 170.83333333333331 124.16666666666667 L 170.83333333333331 124.16666666666667 L 171.66666666666663 124.16666666666667 L 171.66666666666663 124.16666666666667 L 171.66666666666663 126.66666666666667 L 169.16666666666663 132.5 L 164.16666666666663 141.66666666666669 " stroke="black" fill="none" stroke-width="5.0" stroke-linecap="round" stroke-linejoin="round" />
<path d="M 156.66666666666663 109.16666666666667 L 156.66666666666663 109.16666666666667 L 157.5 109.16666666666667 L 157.5 109.16666666666667 L 157.5 114.16666666666667 L 157.5 124.16666666666667 L 154.16666666666669 140.83333333333331 L 146.66666666666669 162.5 L 135.83333333333331 183.33333333333331 L 124.16666666666667 198.33333333333331 " stroke="black" fill="none" stroke-width="5.0" stroke-linecap="round" stroke-linejoin="round" />
<path d="M 151.66666666666669 168.33333333333331 L 152.5 168.33333333333331 L 152.5 168.33333333333331 L 155.0 170.0 L 163.33333333333331 175.83333333333331 L 180.83333333333331 188.33333333333331 L 195.83333333333331 199.16666666666663 L 205.83333333333331 204.16666666666663 " stroke="black" fill="none" stroke-width="5.0" stroke-linecap="round" stroke-linejoin="round" />
</svg>