<svg xmlns="http://www.w3.org/2000/svg" width="300" height="300" viewBox="0 0 300 300">
<path d="M 135.0 106.0 L 135.0 107.0 L 136.0 108.0 L 136.0 109.0 L 136.0 115.0 L 132.0 125.0 L 125.0 141.0 L 114.0 153.0 L 113.0 155.0 " stroke="black" fill="none" stroke-width="5.0" stroke-linecap="round" stroke-linejoin="round" />
<path d="M 131.0 130.0 L 131.0 130.0 L 132.0 130.0 L 132.0 130.0 L 137.0 130.0 L 146.0 130.0 L 158.0 130.0 L 168.0 129.0 L 173.0 129.0 " stroke="black" fill="none" stroke-width="5.0" stroke-linecap="round" stroke-linejoin="round" />
<path d="M 135.0 142.0 L 135.0 142.0 L 135.0 142.0 L 134.0 142.0 L 133.0 150.0 L 132.0 165.0 L 132.0 177.0 L 133.0 182.0 " stroke="black" fill="none" stroke-width="5.0" stroke-linecap="round" stroke-linejoin="round" />
<path d="M 147.0 141.0 L 147.0 142.0 L 147.0 144.0 L 147.0 149.0 L 148.0 157.0 L 150.0 168.0 L 151.0 178.0 L 151.0 181.0 " stroke="black" fill="none" stroke-width="5.0" stroke-linecap="round" stroke-linejoin="round" />
<path d="M 160.0 145.0 L 161.0 144.0 L 161.0 144.0 L 162.0 150.0 L 163.0 160.0 L 163.0 176.0 L 163.0 179.0 " stroke="black" fill="none" stroke-width="5.0" stroke-linecap="round" stroke-linejoin="round" />
<path d="M 173.0 151.0 L 173.0 151.0 L 174.0 151.0 L 176.0 154.0 L 176.0 164.0 L 176.0 179.0 L 175.0 185.0 " stroke="black" fill="none" stroke-width="5.0" stroke-linecap="round" stroke-linejoin="round" />
<path d="M 115.0 172.0 L 115.0 172.0 L 117.0 171.0 L 124.0 170.0 L 141.0 169.0 L 160.0 168.0 L 177.0 168.0 L 183.0 170.0 L 184.0 174.0 " stroke="black" fill="none" stroke-width="5.0" stroke-linecap="round" stroke-linejoin="round" />
<path d="M 108.0 193.0 L 109.0 193.0 L 109.0 193.0 L 113.0 193.0 L 131.0 192.0 L 159.0 190.0 L 179.0 187.0 L 185.0 187.0 " stroke="black" fill="none" stroke-width="5.0" stroke-linecap="round" stroke-linejoin="round" />
<path d="M 130.0 204.0 L 130.0 205.0 L 131.0 206.0 L 131.0 210.0 L 132.0 216.0 L 132.0 217.0 " stroke="black" fill="none" stroke-width="5.0" stroke-linecap="round" stroke-linejoin="round" />
<path d="M 147.0 201.0 L 147.0 202.0 L 147.0 204.0 L 147.0 207.0 L 147.0 212.0 L 148.0 218.0 L 149.0 223.0 " stroke="black" fill="none" stroke-width="5.0" stroke-linecap="round" stroke-linejoin="round" />
<path d="M 165.0 203.0 L 166.0 203.0 L 166.0 204.0 L 167.0 206.0 L 168.0 210.0 L 170.0 217.0 L 171.0 221.0 " stroke="black" fill="none" stroke-width="5.0" stroke-linecap="round" stroke-linejoin="round" />
<path d="M 189.0 205.0 L 189.0 206.0 L 189.0 209.0 L 191.0 213.0 L 194.0 219.0 L 195.0 221.0 " stroke="black" fill="none" stroke-width="5.0" stroke-linecap="round" stroke-linejoin="round" />
</svg>