<svg xmlns="http://www.w3.org/2000/svg" width="300" height="300" viewBox="0 0 300 300">
<path d="M 112.0 131.0 L 112.0 132.0 L 113.0 133.0 L 114.0 136.0 L 116.0 141.0 L 118.0 145.0 " stroke="black" fill="none" stroke-width="5.0" stroke-linecap="round" stroke-linejoin="round" />
<path d="M 142.0 124.0 L 142.0 124.0 L 141.0 126.0 L 140.0 129.0 L 139.0 133.0 L 137.0 140.0 L 137.0 142.0 " stroke="black" fill="none" stroke-width="5.0" stroke-linecap="round" stroke-linejoin="round" />
<path d="M 128.0 110.0 L 128.0 110.0 L 127.0 112.0 L 126.0 115.0 L 126.0 125.0 L 125.0 142.0 L 122.0 162.0 L 116.0 181.0 L 110.0 193.0 L 109.0 196.0 " stroke="black" fill="none" stroke-width="5.0" stroke-linecap="round" stroke-linejoin="round" />
<path d="M 122.0 161.0 L 123.0 161.0 L 124.0 163.0 L 127.0 167.0 L 133.0 176.0 L 139.0 185.0 L 141.0 188.0 " stroke="black" fill="none" stroke-width="5.0" stroke-linecap="round" stroke-linejoin="round" />
<path d="M 156.0 111.0 L 156.0 111.0 L 156.0 112.0 L 156.0 112.0 L 158.0 113.0 L 160.0 114.0 L 161.0 115.0 L 162.0 116.0 L 163.0 119.0 L 163.0 123.0 L 160.0 130.0 L 155.0 138.0 L 151.0 145.0 L 148.0 148.0 L 148.0 148.0 " stroke="black" fill="none" stroke-width="5.0" stroke-linecap="round" stroke-linejoin="round" />
<path d="M 151.0 120.0 L 151.0 120.0 L 151.0 121.0 L 152.0 122.0 L 154.0 124.0 L 154.0 125.0 " stroke="black" fill="none" stroke-width="5.0" stroke-linecap="round" stroke-linejoin="round" />
<path d="M 174.0 118.0 L 174.0 119.0 L 174.0 121.0 L 175.0 123.0 L 179.0 127.0 L 186.0 133.0 L 193.0 141.0 L 197.0 146.0 L 198.0 148.0 " stroke="black" fill="none" stroke-width="5.0" stroke-linecap="round" stroke-linejoin="round" />
<path d="M 181.0 122.0 L 181.0 122.0 L 181.0 122.0 L 181.0 122.0 L 184.0 121.0 L 187.0 118.0 L 190.0 116.0 " stroke="black" fill="none" stroke-width="5.0" stroke-linecap="round" stroke-linejoin="round" />
<path d="M 190.0 129.0 L 190.0 129.0 L 190.0 130.0 L 191.0 130.0 L 194.0 129.0 L 197.0 127.0 " stroke="black" fill="none" stroke-width="5.0" stroke-linecap="round" stroke-linejoin="round" />
<path d="M 163.0 142.0 L 163.0 143.0 L 164.0 143.0 L 166.0 144.0 L 172.0 144.0 L 178.0 144.0 L 183.0 144.0 " stroke="black" fill="none" stroke-width="5.0" stroke-linecap="round" stroke-linejoin="round" />
<path d="M 157.0 155.0 L 157.0 155.0 L 157.0 157.0 L 157.0 160.0 L 157.0 162.0 L 158.0 165.0 L 158.0 165.0 " stroke="black" fill="none" stroke-width="5.0" stroke-linecap="round" stroke-linejoin="round" />
<path d="M 158.0 155.0 L 159.0 155.0 L 159.0 155.0 L 162.0 155.0 L 168.0 155.0 L 178.0 154.0 L 186.0 154.0 L 190.0 155.0 L 190.0 158.0 L 189.0 161.0 L 188.0 163.0 " stroke="black" fill="none" stroke-width="5.0" stroke-linecap="round" stroke-linejoin="round" />
<path d="M 161.0 167.0 L 161.0 167.0 L 161.0 167.0 L 161.0 167.0 L 161.0 167.0 L 162.0 167.0 L 166.0 167.0 L 174.0 167.0 L 183.0 167.0 L 185.0 167.0 " stroke="black" fill="none" stroke-width="5.0" stroke-linecap="round" stroke-linejoin="round" />
<path d="M 158.0 171.0 L 159.0 171.0 L 160.0 171.0 L 160.0 172.0 L 161.0 175.0 L 162.0 182.0 L 163.0 189.0 L 164.0 192.0 " stroke="black" fill="none" stroke-width="5.0" stroke-linecap="round" stroke-linejoin="round" />
<path d="M 183.0 166.0 L 183.0 166.0 L 183.0 167.0 L 182.0 168.0 L 181.0 172.0 L 180.0 181.0 L 176.0 192.0 L 175.0 196.0 " stroke="black" fill="none" stroke-width="5.0" stroke-linecap="round" stroke-linejoin="round" />
<path d="M 148.0 200.0 L 148.0 200.0 L 148.0 200.0 L 148.0 200.0 L 148.0 200.0 L 149.0 201.0 L 158.0 201.0 L 174.0 201.0 L 187.0 200.0 L 192.0 200.0 " stroke="black" fill="none" stroke-width="5.0" stroke-linecap="round" stroke-linejoin="round" />
</svg>