<svg xmlns="http://www.w3.org/2000/svg" width="300" height="300" viewBox="0 0 300 300">
<path d="M 113.0 136.0 L 113.0 136.0 L 113.0 136.0 L 113.0 137.0 L 113.0 138.0 L 114.0 140.0 L 117.0 144.0 L 118.0 145.0 " stroke="black" fill="none" stroke-width="5.0" stroke-linecap="round" stroke-linejoin="round" />
<path d="M 141.0 129.0 L 141.0 130.0 L 140.0 131.0 L 140.0 133.0 L 139.0 137.0 L 138.0 141.0 L 137.0 143.0 " stroke="black" fill="none" stroke-width="5.0" stroke-linecap="round" stroke-linejoin="round" />
<path d="M 127.0 115.0 L 127.0 115.0 L 126.0 115.0 L 126.0 117.0 L 126.0 121.0 L 125.0 133.0 L 122.0 151.0 L 116.0 172.0 L 109.0 187.0 L 108.0 190.0 " stroke="black" fill="none" stroke-width="5.0" stroke-linecap="round" stroke-linejoin="round" />
<path d="M 119.0 164.0 L 119.0 165.0 L 120.0 166.0 L 122.0 169.0 L 127.0 174.0 L 134.0 181.0 L 140.0 187.0 " stroke="black" fill="none" stroke-width="5.0" stroke-linecap="round" stroke-linejoin="round" />
<path d="M 156.0 112.0 L 156.0 112.0 L 157.0 112.0 L 159.0 112.0 L 164.0 112.0 L 171.0 112.0 L 178.0 111.0 L 182.0 111.0 L 182.0 111.0 " stroke="black" fill="none" stroke-width="5.0" stroke-linecap="round" stroke-linejoin="round" />
<path d="M 163.0 114.0 L 163.0 115.0 L 163.0 116.0 L 162.0 118.0 L 162.0 122.0 L 162.0 129.0 L 162.0 136.0 L 162.0 140.0 " stroke="black" fill="none" stroke-width="5.0" stroke-linecap="round" stroke-linejoin="round" />
<path d="M 173.0 114.0 L 173.0 114.0 L 173.0 114.0 L 173.0 114.0 L 173.0 114.0 L 173.0 120.0 L 173.0 127.0 L 174.0 135.0 L 176.0 140.0 L 179.0 140.0 L 180.0 140.0 " stroke="black" fill="none" stroke-width="5.0" stroke-linecap="round" stroke-linejoin="round" />
<path d="M 154.0 126.0 L 154.0 126.0 L 154.0 128.0 L 154.0 130.0 L 154.0 134.0 L 154.0 140.0 L 154.0 147.0 L 154.0 152.0 " stroke="black" fill="none" stroke-width="5.0" stroke-linecap="round" stroke-linejoin="round" />
<path d="M 156.0 127.0 L 156.0 127.0 L 156.0 126.0 L 156.0 126.0 L 158.0 126.0 L 160.0 126.0 L 164.0 126.0 L 170.0 126.0 L 175.0 126.0 L 180.0 126.0 L 183.0 126.0 L 185.0 129.0 L 187.0 132.0 L 188.0 138.0 L 189.0 145.0 L 189.0 151.0 L 189.0 154.0 " stroke="black" fill="none" stroke-width="5.0" stroke-linecap="round" stroke-linejoin="round" />
<path d="M 163.0 147.0 L 164.0 147.0 L 166.0 147.0 L 168.0 147.0 L 171.0 146.0 L 174.0 146.0 L 177.0 146.0 L 179.0 146.0 L 180.0 147.0 " stroke="black" fill="none" stroke-width="5.0" stroke-linecap="round" stroke-linejoin="round" />
<path d="M 158.0 156.0 L 159.0 156.0 L 161.0 156.0 L 164.0 156.0 L 170.0 156.0 L 176.0 157.0 L 182.0 157.0 L 183.0 157.0 " stroke="black" fill="none" stroke-width="5.0" stroke-linecap="round" stroke-linejoin="round" />
<path d="M 157.0 175.0 L 158.0 175.0 L 159.0 175.0 L 160.0 176.0 L 163.0 176.0 L 168.0 176.0 L 174.0 176.0 L 179.0 176.0 L 182.0 178.0 " stroke="black" fill="none" stroke-width="5.0" stroke-linecap="round" stroke-linejoin="round" />
<path d="M 144.0 197.0 L 145.0 197.0 L 148.0 198.0 L 155.0 198.0 L 167.0 198.0 L 181.0 197.0 L 191.0 197.0 L 195.0 198.0 L 196.0 199.0 " stroke="black" fill="none" stroke-width="5.0" stroke-linecap="round" stroke-linejoin="round" />
<path d="M 170.0 160.0 L 170.0 160.0 L 170.0 160.0 L 170.0 160.0 L 170.0 160.0 L 169.0 161.0 L 169.0 165.0 L 169.0 175.0 L 169.0 187.0 L 170.0 192.0 " stroke="black" fill="none" stroke-width="5.0" stroke-linecap="round" stroke-linejoin="round" />
</svg>