<svg xmlns="http://www.w3.org/2000/svg" width="300" height="300" viewBox="0 0 300 300">
<path d="M 116.0 135.0 L 116.0 135.0 L 116.0 138.0 L 116.0 141.0 L 119.0 144.0 L 120.0 146.0 " stroke="black" fill="none" stroke-width="5.0" stroke-linecap="round" stroke-linejoin="round" />
<path d="M 137.0 128.0 L 137.0 129.0 L 137.0 130.0 L 137.0 132.0 L 137.0 137.0 L 136.0 143.0 L 134.0 147.0 " stroke="black" fill="none" stroke-width="5.0" stroke-linecap="round" stroke-linejoin="round" />
<path d="M 124.0 113.0 L 124.0 113.0 L 124.0 113.0 L 124.0 115.0 L 124.0 123.0 L 124.0 139.0 L 120.0 158.0 L 115.0 176.0 L 109.0 188.0 " stroke="black" fill="none" stroke-width="5.0" stroke-linecap="round" stroke-linejoin="round" />
<path d="M 120.0 162.0 L 121.0 164.0 L 122.0 168.0 L 128.0 176.0 L 138.0 186.0 L 144.0 191.0 " stroke="black" fill="none" stroke-width="5.0" stroke-linecap="round" stroke-linejoin="round" />
<path d="M 161.0 103.0 L 161.0 103.0 L 161.0 103.0 L 161.0 104.0 L 161.0 105.0 L 161.0 107.0 L 158.0 110.0 L 156.0 113.0 L 154.0 114.0 L 152.0 115.0 L 152.0 117.0 L 152.0 122.0 L 152.0 131.0 L 152.0 140.0 L 153.0 144.0 L 153.0 146.0 " stroke="black" fill="none" stroke-width="5.0" stroke-linecap="round" stroke-linejoin="round" />
<path d="M 153.0 122.0 L 154.0 121.0 L 154.0 120.0 L 155.0 120.0 L 158.0 119.0 L 161.0 119.0 L 167.0 119.0 L 171.0 120.0 L 176.0 123.0 L 180.0 130.0 L 182.0 138.0 L 183.0 144.0 L 183.0 147.0 L 183.0 147.0 " stroke="black" fill="none" stroke-width="5.0" stroke-linecap="round" stroke-linejoin="round" />
<path d="M 154.0 134.0 L 154.0 134.0 L 155.0 134.0 L 156.0 135.0 L 159.0 135.0 L 164.0 135.0 L 170.0 135.0 L 174.0 135.0 L 176.0 137.0 " stroke="black" fill="none" stroke-width="5.0" stroke-linecap="round" stroke-linejoin="round" />
<path d="M 152.0 149.0 L 153.0 149.0 L 155.0 151.0 L 159.0 152.0 L 168.0 152.0 L 178.0 150.0 L 180.0 150.0 " stroke="black" fill="none" stroke-width="5.0" stroke-linecap="round" stroke-linejoin="round" />
<path d="M 154.0 161.0 L 155.0 161.0 L 157.0 161.0 L 162.0 160.0 L 170.0 160.0 L 177.0 159.0 L 181.0 159.0 L 182.0 159.0 " stroke="black" fill="none" stroke-width="5.0" stroke-linecap="round" stroke-linejoin="round" />
<path d="M 156.0 174.0 L 158.0 174.0 L 162.0 175.0 L 168.0 175.0 L 174.0 175.0 L 179.0 174.0 L 182.0 174.0 L 182.0 174.0 " stroke="black" fill="none" stroke-width="5.0" stroke-linecap="round" stroke-linejoin="round" />
<path d="M 145.0 205.0 L 147.0 205.0 L 151.0 205.0 L 158.0 205.0 L 171.0 204.0 L 184.0 203.0 L 191.0 202.0 L 193.0 202.0 " stroke="black" fill="none" stroke-width="5.0" stroke-linecap="round" stroke-linejoin="round" />
<path d="M 166.0 163.0 L 167.0 163.0 L 167.0 165.0 L 167.0 168.0 L 169.0 178.0 L 170.0 193.0 L 170.0 204.0 " stroke="black" fill="none" stroke-width="5.0" stroke-linecap="round" stroke-linejoin="round" />
</svg>