<svg xmlns="http://www.w3.org/2000/svg" width="300" height="300" viewBox="0 0 300 300">
<path d="M 130.0 113.0 L 130.0 113.0 L 130.0 112.0 L 131.0 112.0 L 131.0 112.0 L 131.0 116.0 L 128.0 124.0 L 121.0 138.0 L 112.0 153.0 L 109.0 158.0 " stroke="black" fill="none" stroke-width="5.0" stroke-linecap="round" stroke-linejoin="round" />
<path d="M 129.0 125.0 L 129.0 125.0 L 129.0 125.0 L 130.0 125.0 L 133.0 125.0 L 136.0 125.0 L 139.0 127.0 L 142.0 130.0 L 144.0 135.0 L 144.0 143.0 L 142.0 155.0 L 138.0 170.0 L 134.0 184.0 L 130.0 193.0 L 129.0 195.0 " stroke="black" fill="none" stroke-width="5.0" stroke-linecap="round" stroke-linejoin="round" />
<path d="M 125.0 145.0 L 125.0 145.0 L 126.0 145.0 L 128.0 145.0 L 132.0 146.0 L 134.0 147.0 " stroke="black" fill="none" stroke-width="5.0" stroke-linecap="round" stroke-linejoin="round" />
<path d="M 116.0 163.0 L 117.0 164.0 L 120.0 164.0 L 125.0 165.0 L 132.0 164.0 " stroke="black" fill="none" stroke-width="5.0" stroke-linecap="round" stroke-linejoin="round" />
<path d="M 150.0 146.0 L 150.0 146.0 L 150.0 147.0 L 152.0 148.0 L 159.0 148.0 L 169.0 146.0 L 176.0 145.0 " stroke="black" fill="none" stroke-width="5.0" stroke-linecap="round" stroke-linejoin="round" />
<path d="M 160.0 125.0 L 160.0 125.0 L 160.0 127.0 L 160.0 129.0 L 159.0 137.0 L 158.0 152.0 L 156.0 172.0 L 153.0 188.0 L 152.0 196.0 " stroke="black" fill="none" stroke-width="5.0" stroke-linecap="round" stroke-linejoin="round" />
<path d="M 164.0 163.0 L 165.0 165.0 L 167.0 168.0 L 172.0 175.0 L 177.0 183.0 L 181.0 188.0 " stroke="black" fill="none" stroke-width="5.0" stroke-linecap="round" stroke-linejoin="round" />
<path d="M 183.0 121.0 L 183.0 125.0 L 183.0 132.0 L 185.0 139.0 " stroke="black" fill="none" stroke-width="5.0" stroke-linecap="round" stroke-linejoin="round" />
<path d="M 117.0 197.0 L 117.0 197.0 L 117.0 197.0 L 116.0 199.0 L 116.0 204.0 L 116.0 209.0 " stroke="black" fill="none" stroke-width="5.0" stroke-linecap="round" stroke-linejoin="round" />
<path d="M 149.0 200.0 L 149.0 200.0 L 149.0 201.0 L 149.0 202.0 L 149.0 205.0 L 149.0 209.0 " stroke="black" fill="none" stroke-width="5.0" stroke-linecap="round" stroke-linejoin="round" />
<path d="M 165.0 198.0 L 166.0 198.0 L 167.0 198.0 L 168.0 198.0 L 169.0 200.0 L 170.0 204.0 L 170.0 205.0 " stroke="black" fill="none" stroke-width="5.0" stroke-linecap="round" stroke-linejoin="round" />
<path d="M 196.0 196.0 L 196.0 196.0 L 197.0 197.0 L 198.0 199.0 L 200.0 201.0 L 200.0 205.0 " stroke="black" fill="none" stroke-width="5.0" stroke-linecap="round" stroke-linejoin="round" />
</svg>