<svg xmlns="http://www.w3.org/2000/svg" width="300" height="300" viewBox="0 0 300 300">
<path d="M 114.0 137.0 L 114.0 137.0 L 115.0 139.0 L 115.0 141.0 L 118.0 145.0 L 120.0 147.0 " stroke="black" fill="none" stroke-width="5.0" stroke-linecap="round" stroke-linejoin="round" />
<path d="M 140.0 131.0 L 139.0 132.0 L 138.0 133.0 L 137.0 136.0 L 136.0 140.0 L 135.0 145.0 L 134.0 148.0 " stroke="black" fill="none" stroke-width="5.0" stroke-linecap="round" stroke-linejoin="round" />
<path d="M 126.0 113.0 L 126.0 113.0 L 126.0 114.0 L 126.0 118.0 L 126.0 131.0 L 126.0 151.0 L 122.0 171.0 L 115.0 186.0 L 112.0 191.0 " stroke="black" fill="none" stroke-width="5.0" stroke-linecap="round" stroke-linejoin="round" />
<path d="M 122.0 162.0 L 122.0 162.0 L 123.0 162.0 L 125.0 165.0 L 130.0 172.0 L 135.0 181.0 L 139.0 187.0 " stroke="black" fill="none" stroke-width="5.0" stroke-linecap="round" stroke-linejoin="round" />
<path d="M 155.0 113.0 L 156.0 113.0 L 156.0 114.0 L 157.0 114.0 L 160.0 114.0 L 163.0 114.0 L 167.0 114.0 L 170.0 114.0 L 172.0 115.0 L 173.0 119.0 L 173.0 123.0 L 173.0 126.0 L 173.0 127.0 " stroke="black" fill="none" stroke-width="5.0" stroke-linecap="round" stroke-linejoin="round" />
<path d="M 149.0 128.0 L 149.0 128.0 L 148.0 129.0 L 148.0 129.0 L 150.0 129.0 L 159.0 129.0 L 171.0 128.0 L 182.0 128.0 L 187.0 129.0 L 188.0 130.0 " stroke="black" fill="none" stroke-width="5.0" stroke-linecap="round" stroke-linejoin="round" />
<path d="M 160.0 102.0 L 160.0 106.0 L 160.0 113.0 L 160.0 123.0 L 162.0 131.0 " stroke="black" fill="none" stroke-width="5.0" stroke-linecap="round" stroke-linejoin="round" />
<path d="M 154.0 139.0 L 154.0 139.0 L 154.0 140.0 L 154.0 141.0 L 154.0 143.0 L 155.0 145.0 L 155.0 147.0 L 155.0 148.0 " stroke="black" fill="none" stroke-width="5.0" stroke-linecap="round" stroke-linejoin="round" />
<path d="M 155.0 141.0 L 155.0 140.0 L 155.0 140.0 L 156.0 140.0 L 160.0 139.0 L 167.0 139.0 L 174.0 139.0 L 178.0 139.0 L 180.0 141.0 L 181.0 145.0 L 181.0 149.0 L 180.0 151.0 L 178.0 152.0 " stroke="black" fill="none" stroke-width="5.0" stroke-linecap="round" stroke-linejoin="round" />
<path d="M 156.0 151.0 L 156.0 151.0 L 156.0 151.0 L 156.0 152.0 L 160.0 152.0 L 168.0 152.0 L 175.0 151.0 L 179.0 151.0 " stroke="black" fill="none" stroke-width="5.0" stroke-linecap="round" stroke-linejoin="round" />
<path d="M 147.0 166.0 L 147.0 166.0 L 147.0 166.0 L 147.0 166.0 L 148.0 166.0 L 155.0 166.0 L 165.0 165.0 L 176.0 164.0 L 181.0 164.0 L 181.0 164.0 L 180.0 164.0 " stroke="black" fill="none" stroke-width="5.0" stroke-linecap="round" stroke-linejoin="round" />
<path d="M 151.0 167.0 L 151.0 167.0 L 150.0 168.0 L 150.0 169.0 L 148.0 172.0 L 145.0 176.0 L 143.0 178.0 L 143.0 181.0 L 149.0 182.0 L 159.0 182.0 L 170.0 182.0 L 180.0 182.0 L 186.0 182.0 L 187.0 182.0 " stroke="black" fill="none" stroke-width="5.0" stroke-linecap="round" stroke-linejoin="round" />
<path d="M 163.0 153.0 L 163.0 153.0 L 163.0 153.0 L 164.0 153.0 L 165.0 159.0 L 168.0 177.0 L 171.0 197.0 L 172.0 208.0 L 172.0 209.0 " stroke="black" fill="none" stroke-width="5.0" stroke-linecap="round" stroke-linejoin="round" />
</svg>