<svg xmlns="http://www.w3.org/2000/svg" width="300" height="300" viewBox="0 0 300 300">
<path d="M 118.0 114.0 L 118.0 115.0 L 118.0 115.0 L 118.0 115.0 L 121.0 116.0 L 126.0 116.0 L 133.0 116.0 " stroke="black" fill="none" stroke-width="5.0" stroke-linecap="round" stroke-linejoin="round" />
<path d="M 110.0 129.0 L 111.0 129.0 L 111.0 129.0 L 114.0 129.0 L 119.0 129.0 L 128.0 128.0 L 137.0 128.0 L 141.0 128.0 " stroke="black" fill="none" stroke-width="5.0" stroke-linecap="round" stroke-linejoin="round" />
<path d="M 124.0 107.0 L 124.0 107.0 L 124.0 109.0 L 124.0 112.0 L 124.0 116.0 L 124.0 120.0 " stroke="black" fill="none" stroke-width="5.0" stroke-linecap="round" stroke-linejoin="round" />
<path d="M 118.0 129.0 L 118.0 129.0 L 118.0 130.0 L 118.0 130.0 L 118.0 132.0 L 117.0 136.0 L 115.0 142.0 " stroke="black" fill="none" stroke-width="5.0" stroke-linecap="round" stroke-linejoin="round" />
<path d="M 134.0 130.0 L 134.0 130.0 L 133.0 131.0 L 133.0 134.0 L 133.0 138.0 L 135.0 143.0 L 139.0 146.0 L 142.0 146.0 " stroke="black" fill="none" stroke-width="5.0" stroke-linecap="round" stroke-linejoin="round" />
<path d="M 118.0 150.0 L 118.0 150.0 L 118.0 150.0 L 118.0 150.0 L 120.0 150.0 L 126.0 149.0 L 132.0 149.0 L 133.0 149.0 " stroke="black" fill="none" stroke-width="5.0" stroke-linecap="round" stroke-linejoin="round" />
<path d="M 110.0 160.0 L 110.0 161.0 L 110.0 161.0 L 111.0 161.0 L 116.0 161.0 L 127.0 161.0 L 137.0 160.0 L 139.0 159.0 " stroke="black" fill="none" stroke-width="5.0" stroke-linecap="round" stroke-linejoin="round" />
<path d="M 125.0 143.0 L 125.0 144.0 L 125.0 146.0 L 126.0 151.0 L 126.0 155.0 " stroke="black" fill="none" stroke-width="5.0" stroke-linecap="round" stroke-linejoin="round" />
<path d="M 148.0 124.0 L 148.0 124.0 L 148.0 124.0 L 148.0 124.0 L 152.0 123.0 L 157.0 120.0 L 161.0 119.0 L 163.0 118.0 L 165.0 120.0 L 165.0 126.0 L 165.0 134.0 L 166.0 144.0 L 169.0 151.0 L 173.0 154.0 L 177.0 153.0 L 179.0 151.0 " stroke="black" fill="none" stroke-width="5.0" stroke-linecap="round" stroke-linejoin="round" />
<path d="M 156.0 111.0 L 156.0 111.0 L 156.0 111.0 L 156.0 112.0 L 155.0 119.0 L 153.0 134.0 L 149.0 149.0 L 145.0 159.0 " stroke="black" fill="none" stroke-width="5.0" stroke-linecap="round" stroke-linejoin="round" />
<path d="M 145.0 136.0 L 145.0 136.0 L 146.0 136.0 L 149.0 140.0 L 155.0 147.0 L 159.0 152.0 " stroke="black" fill="none" stroke-width="5.0" stroke-linecap="round" stroke-linejoin="round" />
<path d="M 113.0 174.0 L 113.0 176.0 L 113.0 179.0 L 113.0 183.0 L 113.0 186.0 " stroke="black" fill="none" stroke-width="5.0" stroke-linecap="round" stroke-linejoin="round" />
<path d="M 133.0 175.0 L 133.0 176.0 L 133.0 177.0 L 133.0 180.0 L 134.0 182.0 L 135.0 186.0 L 136.0 189.0 " stroke="black" fill="none" stroke-width="5.0" stroke-linecap="round" stroke-linejoin="round" />
<path d="M 149.0 179.0 L 149.0 179.0 L 150.0 180.0 L 150.0 182.0 L 151.0 185.0 L 152.0 188.0 " stroke="black" fill="none" stroke-width="5.0" stroke-linecap="round" stroke-linejoin="round" />
<path d="M 179.0 177.0 L 180.0 177.0 L 181.0 178.0 L 183.0 181.0 L 185.0 187.0 L 186.0 193.0 " stroke="black" fill="none" stroke-width="5.0" stroke-linecap="round" stroke-linejoin="round" />
</svg>