<svg xmlns="http://www.w3.org/2000/svg" width="300" height="300" viewBox="0 0 300 300">
<path d="M 117.0 119.0 L 117.0 121.0 L 117.0 125.0 L 115.0 133.0 L 112.0 143.0 L 108.0 150.0 L 107.0 152.0 " stroke="black" fill="none" stroke-width="5.0" stroke-linecap="round" stroke-linejoin="round" />
<path d="M 117.0 134.0 L 118.0 134.0 L 119.0 134.0 L 120.0 134.0 L 122.0 134.0 L 126.0 134.0 L 132.0 134.0 L 137.0 134.0 " stroke="black" fill="none" stroke-width="5.0" stroke-linecap="round" stroke-linejoin="round" />
<path d="M 107.0 160.0 L 107.0 160.0 L 107.0 161.0 L 110.0 161.0 L 116.0 160.0 L 126.0 159.0 L 136.0 159.0 L 138.0 159.0 " stroke="black" fill="none" stroke-width="5.0" stroke-linecap="round" stroke-linejoin="round" />
<path d="M 126.0 116.0 L 126.0 116.0 L 126.0 117.0 L 126.0 126.0 L 127.0 146.0 L 128.0 170.0 L 128.0 190.0 L 127.0 194.0 " stroke="black" fill="none" stroke-width="5.0" stroke-linecap="round" stroke-linejoin="round" />
<path d="M 149.0 117.0 L 149.0 117.0 L 149.0 117.0 L 150.0 117.0 L 152.0 117.0 L 159.0 116.0 L 167.0 115.0 L 174.0 115.0 L 175.0 115.0 " stroke="black" fill="none" stroke-width="5.0" stroke-linecap="round" stroke-linejoin="round" />
<path d="M 154.0 127.0 L 154.0 127.0 L 154.0 127.0 L 154.0 127.0 L 157.0 127.0 L 164.0 127.0 L 172.0 127.0 L 174.0 127.0 " stroke="black" fill="none" stroke-width="5.0" stroke-linecap="round" stroke-linejoin="round" />
<path d="M 160.0 105.0 L 160.0 107.0 L 160.0 112.0 L 161.0 121.0 L 162.0 127.0 " stroke="black" fill="none" stroke-width="5.0" stroke-linecap="round" stroke-linejoin="round" />
<path d="M 147.0 139.0 L 147.0 140.0 L 147.0 144.0 L 147.0 147.0 L 147.0 150.0 L 147.0 150.0 " stroke="black" fill="none" stroke-width="5.0" stroke-linecap="round" stroke-linejoin="round" />
<path d="M 148.0 137.0 L 148.0 138.0 L 150.0 139.0 L 154.0 139.0 L 163.0 138.0 L 175.0 135.0 L 184.0 135.0 L 188.0 137.0 L 189.0 142.0 L 188.0 147.0 L 187.0 150.0 " stroke="black" fill="none" stroke-width="5.0" stroke-linecap="round" stroke-linejoin="round" />
<path d="M 147.0 153.0 L 147.0 153.0 L 147.0 153.0 L 150.0 153.0 L 157.0 154.0 L 169.0 154.0 L 179.0 154.0 " stroke="black" fill="none" stroke-width="5.0" stroke-linecap="round" stroke-linejoin="round" />
<path d="M 160.0 139.0 L 160.0 139.0 L 160.0 140.0 L 160.0 144.0 L 161.0 150.0 L 161.0 152.0 " stroke="black" fill="none" stroke-width="5.0" stroke-linecap="round" stroke-linejoin="round" />
<path d="M 176.0 140.0 L 175.0 142.0 L 175.0 146.0 L 175.0 151.0 L 175.0 152.0 " stroke="black" fill="none" stroke-width="5.0" stroke-linecap="round" stroke-linejoin="round" />
<path d="M 153.0 162.0 L 153.0 162.0 L 153.0 163.0 L 153.0 163.0 L 156.0 163.0 L 161.0 163.0 L 167.0 162.0 L 173.0 162.0 L 177.0 161.0 L 178.0 162.0 L 179.0 165.0 L 180.0 171.0 L 182.0 178.0 L 184.0 183.0 L 185.0 185.0 " stroke="black" fill="none" stroke-width="5.0" stroke-linecap="round" stroke-linejoin="round" />
<path d="M 152.0 162.0 L 152.0 163.0 L 152.0 166.0 L 152.0 172.0 L 152.0 182.0 L 152.0 188.0 " stroke="black" fill="none" stroke-width="5.0" stroke-linecap="round" stroke-linejoin="round" />
<path d="M 154.0 174.0 L 155.0 174.0 L 156.0 174.0 L 159.0 174.0 L 164.0 174.0 L 172.0 173.0 L 177.0 173.0 L 178.0 173.0 " stroke="black" fill="none" stroke-width="5.0" stroke-linecap="round" stroke-linejoin="round" />
<path d="M 157.0 182.0 L 158.0 182.0 L 159.0 182.0 L 162.0 182.0 L 167.0 182.0 L 173.0 181.0 L 176.0 181.0 " stroke="black" fill="none" stroke-width="5.0" stroke-linecap="round" stroke-linejoin="round" />
<path d="M 157.0 191.0 L 157.0 191.0 L 160.0 192.0 L 164.0 192.0 L 170.0 192.0 L 174.0 191.0 L 175.0 191.0 " stroke="black" fill="none" stroke-width="5.0" stroke-linecap="round" stroke-linejoin="round" />
<path d="M 161.0 192.0 L 161.0 193.0 L 160.0 196.0 L 159.0 201.0 L 157.0 207.0 L 157.0 207.0 " stroke="black" fill="none" stroke-width="5.0" stroke-linecap="round" stroke-linejoin="round" />
<path d="M 174.0 195.0 L 175.0 197.0 L 178.0 200.0 L 183.0 205.0 L 185.0 207.0 " stroke="black" fill="none" stroke-width="5.0" stroke-linecap="round" stroke-linejoin="round" />
</svg>