<svg xmlns="http://www.w3.org/2000/svg" width="300" height="300" viewBox="0 0 300 300">
<path d="M 124.0 115.0 L 124.0 115.0 L 124.0 115.0 L 123.0 115.0 L 123.0 116.0 L 121.0 123.0 L 117.0 134.0 L 114.0 140.0 " stroke="black" fill="none" stroke-width="5.0" stroke-linecap="round" stroke-linejoin="round" />
<path d="M 124.0 127.0 L 125.0 127.0 L 125.0 127.0 L 126.0 127.0 L 128.0 128.0 L 131.0 128.0 L 136.0 127.0 L 140.0 127.0 " stroke="black" fill="none" stroke-width="5.0" stroke-linecap="round" stroke-linejoin="round" />
<path d="M 111.0 158.0 L 111.0 158.0 L 112.0 159.0 L 116.0 159.0 L 126.0 159.0 L 138.0 156.0 L 147.0 156.0 " stroke="black" fill="none" stroke-width="5.0" stroke-linecap="round" stroke-linejoin="round" />
<path d="M 133.0 113.0 L 132.0 113.0 L 132.0 114.0 L 132.0 121.0 L 133.0 142.0 L 134.0 166.0 L 134.0 185.0 L 134.0 188.0 " stroke="black" fill="none" stroke-width="5.0" stroke-linecap="round" stroke-linejoin="round" />
<path d="M 155.0 121.0 L 155.0 122.0 L 156.0 122.0 L 157.0 123.0 L 162.0 123.0 L 170.0 122.0 L 177.0 121.0 L 181.0 121.0 " stroke="black" fill="none" stroke-width="5.0" stroke-linecap="round" stroke-linejoin="round" />
<path d="M 155.0 142.0 L 155.0 142.0 L 156.0 142.0 L 158.0 143.0 L 165.0 142.0 L 175.0 140.0 L 184.0 139.0 L 185.0 139.0 " stroke="black" fill="none" stroke-width="5.0" stroke-linecap="round" stroke-linejoin="round" />
<path d="M 166.0 109.0 L 166.0 109.0 L 166.0 111.0 L 166.0 122.0 L 168.0 134.0 L 169.0 137.0 " stroke="black" fill="none" stroke-width="5.0" stroke-linecap="round" stroke-linejoin="round" />
<path d="M 149.0 168.0 L 149.0 168.0 L 148.0 168.0 L 148.0 168.0 L 152.0 168.0 L 163.0 167.0 L 178.0 165.0 L 189.0 164.0 L 193.0 164.0 " stroke="black" fill="none" stroke-width="5.0" stroke-linecap="round" stroke-linejoin="round" />
<path d="M 170.0 146.0 L 170.0 146.0 L 170.0 146.0 L 171.0 147.0 L 173.0 153.0 L 179.0 168.0 L 184.0 186.0 L 187.0 197.0 L 187.0 203.0 L 187.0 205.0 L 184.0 205.0 L 179.0 204.0 L 173.0 202.0 " stroke="black" fill="none" stroke-width="5.0" stroke-linecap="round" stroke-linejoin="round" />
<path d="M 155.0 184.0 L 156.0 184.0 L 158.0 184.0 L 163.0 185.0 L 172.0 188.0 " stroke="black" fill="none" stroke-width="5.0" stroke-linecap="round" stroke-linejoin="round" />
</svg>