<svg xmlns="http://www.w3.org/2000/svg" width="300" height="300" viewBox="0 0 300 300">
<path d="M 120.0 113.0 L 120.0 113.0 L 120.0 113.0 L 120.0 113.0 L 120.0 116.0 L 118.0 122.0 L 113.0 134.0 L 108.0 145.0 " stroke="black" fill="none" stroke-width="5.0" stroke-linecap="round" stroke-linejoin="round" />
<path d="M 121.0 128.0 L 121.0 128.0 L 121.0 128.0 L 121.0 128.0 L 122.0 128.0 L 127.0 128.0 L 134.0 127.0 L 140.0 126.0 " stroke="black" fill="none" stroke-width="5.0" stroke-linecap="round" stroke-linejoin="round" />
<path d="M 105.0 163.0 L 105.0 163.0 L 106.0 163.0 L 109.0 163.0 L 117.0 163.0 L 130.0 161.0 L 141.0 161.0 L 142.0 160.0 " stroke="black" fill="none" stroke-width="5.0" stroke-linecap="round" stroke-linejoin="round" />
<path d="M 127.0 112.0 L 127.0 113.0 L 127.0 115.0 L 127.0 124.0 L 128.0 142.0 L 129.0 163.0 L 129.0 181.0 L 129.0 187.0 " stroke="black" fill="none" stroke-width="5.0" stroke-linecap="round" stroke-linejoin="round" />
<path d="M 152.0 108.0 L 152.0 108.0 L 152.0 108.0 L 152.0 111.0 L 151.0 117.0 L 149.0 129.0 L 146.0 140.0 L 145.0 142.0 " stroke="black" fill="none" stroke-width="5.0" stroke-linecap="round" stroke-linejoin="round" />
<path d="M 151.0 126.0 L 151.0 126.0 L 151.0 126.0 L 153.0 126.0 L 158.0 125.0 L 166.0 125.0 L 172.0 125.0 L 173.0 125.0 " stroke="black" fill="none" stroke-width="5.0" stroke-linecap="round" stroke-linejoin="round" />
<path d="M 167.0 128.0 L 167.0 129.0 L 166.0 131.0 L 166.0 134.0 L 165.0 140.0 L 162.0 152.0 L 157.0 167.0 L 152.0 179.0 L 151.0 181.0 " stroke="black" fill="none" stroke-width="5.0" stroke-linecap="round" stroke-linejoin="round" />
<path d="M 151.0 143.0 L 152.0 146.0 L 154.0 151.0 L 161.0 161.0 L 171.0 175.0 L 179.0 185.0 L 183.0 190.0 " stroke="black" fill="none" stroke-width="5.0" stroke-linecap="round" stroke-linejoin="round" />
</svg>