<svg xmlns="http://www.w3.org/2000/svg" width="300" height="300" viewBox="0 0 300 300">
<path d="M 121.0 120.0 L 121.0 120.0 L 121.0 121.0 L 121.0 121.0 L 120.0 121.0 L 120.0 122.0 L 120.0 123.0 L 119.0 127.0 L 118.0 130.0 L 118.0 133.0 L 121.0 134.0 L 128.0 135.0 L 135.0 135.0 L 139.0 135.0 " stroke="black" fill="none" stroke-width="5.0" stroke-linecap="round" stroke-linejoin="round" />
<path d="M 138.0 116.0 L 138.0 116.0 L 138.0 117.0 L 138.0 117.0 L 137.0 121.0 L 137.0 132.0 L 139.0 152.0 L 141.0 176.0 L 142.0 191.0 L 144.0 197.0 L 144.0 198.0 L 144.0 198.0 " stroke="black" fill="none" stroke-width="5.0" stroke-linecap="round" stroke-linejoin="round" />
<path d="M 116.0 159.0 L 116.0 159.0 L 116.0 159.0 L 117.0 159.0 L 120.0 159.0 L 126.0 159.0 L 133.0 159.0 L 137.0 159.0 " stroke="black" fill="none" stroke-width="5.0" stroke-linecap="round" stroke-linejoin="round" />
<path d="M 117.0 161.0 L 117.0 161.0 L 117.0 161.0 L 117.0 162.0 L 116.0 169.0 L 115.0 182.0 L 114.0 193.0 L 114.0 197.0 " stroke="black" fill="none" stroke-width="5.0" stroke-linecap="round" stroke-linejoin="round" />
<path d="M 150.0 144.0 L 150.0 144.0 L 150.0 143.0 L 153.0 143.0 L 160.0 142.0 L 171.0 140.0 L 179.0 139.0 L 180.0 139.0 " stroke="black" fill="none" stroke-width="5.0" stroke-linecap="round" stroke-linejoin="round" />
<path d="M 164.0 120.0 L 164.0 122.0 L 163.0 125.0 L 163.0 132.0 L 163.0 146.0 L 164.0 164.0 L 163.0 181.0 L 161.0 193.0 L 161.0 197.0 " stroke="black" fill="none" stroke-width="5.0" stroke-linecap="round" stroke-linejoin="round" />
<path d="M 167.0 150.0 L 167.0 150.0 L 168.0 149.0 L 170.0 150.0 L 174.0 157.0 L 180.0 172.0 L 186.0 189.0 L 189.0 199.0 L 189.0 202.0 " stroke="black" fill="none" stroke-width="5.0" stroke-linecap="round" stroke-linejoin="round" />
<path d="M 185.0 120.0 L 185.0 122.0 L 185.0 124.0 L 186.0 128.0 L 189.0 133.0 " stroke="black" fill="none" stroke-width="5.0" stroke-linecap="round" stroke-linejoin="round" />
</svg>