<svg xmlns="http://www.w3.org/2000/svg" width="300" height="300" viewBox="0 0 300 300">
<path d="M 111.0 125.0 L 112.0 125.0 L 113.0 126.0 L 118.0 126.0 L 126.0 124.0 L 132.0 123.0 " stroke="black" fill="none" stroke-width="5.0" stroke-linecap="round" stroke-linejoin="round" />
<path d="M 113.0 146.0 L 113.0 146.0 L 113.0 146.0 L 115.0 146.0 L 118.0 147.0 L 123.0 147.0 L 128.0 147.0 L 129.0 147.0 " stroke="black" fill="none" stroke-width="5.0" stroke-linecap="round" stroke-linejoin="round" />
<path d="M 102.0 172.0 L 102.0 173.0 L 104.0 173.0 L 108.0 174.0 L 115.0 175.0 L 125.0 175.0 L 135.0 176.0 " stroke="black" fill="none" stroke-width="5.0" stroke-linecap="round" stroke-linejoin="round" />
<path d="M 118.0 128.0 L 118.0 130.0 L 118.0 135.0 L 119.0 142.0 L 120.0 152.0 L 120.0 162.0 L 120.0 166.0 " stroke="black" fill="none" stroke-width="5.0" stroke-linecap="round" stroke-linejoin="round" />
<path d="M 149.0 114.0 L 149.0 114.0 L 149.0 114.0 L 149.0 115.0 L 150.0 115.0 L 158.0 115.0 L 171.0 115.0 L 184.0 114.0 L 190.0 114.0 L 191.0 114.0 L 191.0 114.0 " stroke="black" fill="none" stroke-width="5.0" stroke-linecap="round" stroke-linejoin="round" />
<path d="M 179.0 117.0 L 179.0 117.0 L 179.0 117.0 L 178.0 118.0 L 178.0 120.0 L 180.0 127.0 L 182.0 142.0 L 185.0 160.0 L 187.0 180.0 L 188.0 194.0 L 189.0 200.0 L 189.0 203.0 L 189.0 203.0 " stroke="black" fill="none" stroke-width="5.0" stroke-linecap="round" stroke-linejoin="round" />
<path d="M 157.0 122.0 L 158.0 122.0 L 158.0 122.0 L 159.0 122.0 L 159.0 124.0 L 159.0 132.0 L 159.0 146.0 L 159.0 158.0 L 159.0 163.0 L 159.0 163.0 " stroke="black" fill="none" stroke-width="5.0" stroke-linecap="round" stroke-linejoin="round" />
<path d="M 160.0 140.0 L 161.0 140.0 L 161.0 140.0 L 163.0 139.0 L 165.0 139.0 L 170.0 139.0 L 175.0 140.0 L 179.0 140.0 L 181.0 141.0 " stroke="black" fill="none" stroke-width="5.0" stroke-linecap="round" stroke-linejoin="round" />
<path d="M 160.0 155.0 L 161.0 155.0 L 163.0 156.0 L 167.0 156.0 L 172.0 156.0 L 178.0 156.0 L 179.0 156.0 " stroke="black" fill="none" stroke-width="5.0" stroke-linecap="round" stroke-linejoin="round" />
<path d="M 139.0 167.0 L 139.0 167.0 L 139.0 167.0 L 141.0 167.0 L 148.0 167.0 L 163.0 168.0 L 180.0 169.0 L 193.0 170.0 L 200.0 170.0 L 201.0 170.0 L 201.0 170.0 L 201.0 170.0 " stroke="black" fill="none" stroke-width="5.0" stroke-linecap="round" stroke-linejoin="round" />
</svg>