<svg xmlns="http://www.w3.org/2000/svg" width="300" height="300" viewBox="0 0 300 300">
<path d="M 129.0 116.0 L 129.0 116.0 L 129.0 116.0 L 129.0 116.0 L 129.0 117.0 L 129.0 120.0 L 126.0 126.0 L 119.0 135.0 L 111.0 142.0 " stroke="black" fill="none" stroke-width="5.0" stroke-linecap="round" stroke-linejoin="round" />
<path d="M 116.0 115.0 L 116.0 115.0 L 117.0 116.0 L 118.0 117.0 L 122.0 125.0 L 128.0 142.0 L 134.0 162.0 L 137.0 180.0 L 139.0 191.0 L 139.0 198.0 L 137.0 202.0 L 132.0 202.0 L 125.0 198.0 L 116.0 190.0 " stroke="black" fill="none" stroke-width="5.0" stroke-linecap="round" stroke-linejoin="round" />
<path d="M 129.0 157.0 L 129.0 157.0 L 129.0 157.0 L 129.0 158.0 L 128.0 160.0 L 125.0 164.0 L 118.0 171.0 L 109.0 180.0 L 107.0 182.0 " stroke="black" fill="none" stroke-width="5.0" stroke-linecap="round" stroke-linejoin="round" />
<path d="M 151.0 115.0 L 151.0 115.0 L 152.0 115.0 L 153.0 115.0 L 157.0 115.0 L 164.0 115.0 L 170.0 115.0 L 173.0 115.0 L 173.0 115.0 " stroke="black" fill="none" stroke-width="5.0" stroke-linecap="round" stroke-linejoin="round" />
<path d="M 141.0 129.0 L 141.0 129.0 L 141.0 129.0 L 143.0 130.0 L 148.0 130.0 L 159.0 129.0 L 172.0 128.0 L 182.0 128.0 L 189.0 128.0 L 189.0 128.0 " stroke="black" fill="none" stroke-width="5.0" stroke-linecap="round" stroke-linejoin="round" />
<path d="M 160.0 107.0 L 161.0 107.0 L 161.0 109.0 L 162.0 114.0 L 163.0 121.0 L 163.0 125.0 " stroke="black" fill="none" stroke-width="5.0" stroke-linecap="round" stroke-linejoin="round" />
<path d="M 148.0 145.0 L 148.0 145.0 L 148.0 145.0 L 148.0 145.0 L 148.0 145.0 L 149.0 147.0 L 150.0 149.0 L 150.0 150.0 " stroke="black" fill="none" stroke-width="5.0" stroke-linecap="round" stroke-linejoin="round" />
<path d="M 148.0 140.0 L 149.0 140.0 L 149.0 140.0 L 151.0 140.0 L 156.0 140.0 L 163.0 139.0 L 171.0 139.0 L 177.0 140.0 L 180.0 142.0 L 181.0 144.0 L 181.0 147.0 L 180.0 149.0 L 179.0 149.0 " stroke="black" fill="none" stroke-width="5.0" stroke-linecap="round" stroke-linejoin="round" />
<path d="M 149.0 153.0 L 149.0 153.0 L 149.0 154.0 L 149.0 154.0 L 152.0 154.0 L 160.0 154.0 L 169.0 154.0 L 176.0 153.0 " stroke="black" fill="none" stroke-width="5.0" stroke-linecap="round" stroke-linejoin="round" />
<path d="M 157.0 160.0 L 157.0 160.0 L 157.0 161.0 L 157.0 162.0 L 157.0 163.0 L 155.0 166.0 L 151.0 170.0 L 145.0 176.0 L 142.0 178.0 " stroke="black" fill="none" stroke-width="5.0" stroke-linecap="round" stroke-linejoin="round" />
<path d="M 154.0 165.0 L 154.0 165.0 L 154.0 166.0 L 154.0 167.0 L 153.0 170.0 L 153.0 176.0 L 155.0 186.0 L 159.0 195.0 L 165.0 198.0 L 173.0 196.0 L 174.0 194.0 " stroke="black" fill="none" stroke-width="5.0" stroke-linecap="round" stroke-linejoin="round" />
<path d="M 192.0 165.0 L 192.0 166.0 L 190.0 168.0 L 188.0 170.0 L 186.0 173.0 L 183.0 177.0 " stroke="black" fill="none" stroke-width="5.0" stroke-linecap="round" stroke-linejoin="round" />
<path d="M 162.0 158.0 L 163.0 158.0 L 163.0 158.0 L 165.0 162.0 L 173.0 172.0 L 184.0 189.0 L 192.0 202.0 L 196.0 211.0 L 198.0 216.0 L 198.0 217.0 L 198.0 217.0 L 198.0 216.0 " stroke="black" fill="none" stroke-width="5.0" stroke-linecap="round" stroke-linejoin="round" />
</svg>