<svg xmlns="http://www.w3.org/2000/svg" width="300" height="300" viewBox="0 0 300 300">
<path d="M 120.71428571428574 128.5714285714286 L 120.71428571428574 128.5714285714286 L 120.71428571428574 129.28571428571433 L 121.42857142857146 130.00000000000006 L 121.42857142857146 130.00000000000006 L 122.14285714285718 130.00000000000006 L 125.71428571428574 130.00000000000006 L 132.8571428571429 129.28571428571433 L 134.28571428571433 128.5714285714286 " stroke="black" fill="none" stroke-width="5.0" stroke-linecap="round" stroke-linejoin="round" />
<path d="M 121.42857142857146 149.28571428571433 L 121.42857142857146 149.28571428571433 L 122.14285714285718 149.28571428571433 L 122.14285714285718 150.00000000000006 L 124.28571428571432 150.00000000000006 L 128.5714285714286 149.28571428571433 L 134.28571428571433 148.5714285714286 L 135.71428571428572 148.5714285714286 " stroke="black" fill="none" stroke-width="5.0" stroke-linecap="round" stroke-linejoin="round" />
<path d="M 115.71428571428574 176.42857142857144 L 116.42857142857146 176.42857142857144 L 117.85714285714288 175.71428571428578 L 122.85714285714288 175.71428571428578 L 133.5714285714286 175.71428571428578 L 145.71428571428572 175.71428571428578 L 147.8571428571429 175.71428571428578 " stroke="black" fill="none" stroke-width="5.0" stroke-linecap="round" stroke-linejoin="round" />
<path d="M 130.00000000000006 135.00000000000006 L 130.71428571428572 138.5714285714286 L 131.42857142857144 145.71428571428572 L 132.8571428571429 158.5714285714286 L 132.8571428571429 167.8571428571429 " stroke="black" fill="none" stroke-width="5.0" stroke-linecap="round" stroke-linejoin="round" />
<path d="M 155.00000000000006 119.28571428571432 L 155.00000000000006 119.28571428571432 L 155.00000000000006 120.71428571428574 L 154.28571428571433 123.5714285714286 L 152.14285714285717 130.00000000000006 L 149.28571428571433 138.5714285714286 L 148.5714285714286 140.71428571428572 " stroke="black" fill="none" stroke-width="5.0" stroke-linecap="round" stroke-linejoin="round" />
<path d="M 155.71428571428572 130.71428571428572 L 155.71428571428572 130.71428571428572 L 155.71428571428572 130.71428571428572 L 156.42857142857144 130.71428571428572 L 160.71428571428572 130.71428571428572 L 168.5714285714286 129.28571428571433 L 177.14285714285717 127.85714285714288 L 180.00000000000006 127.85714285714288 " stroke="black" fill="none" stroke-width="5.0" stroke-linecap="round" stroke-linejoin="round" />
<path d="M 148.5714285714286 151.42857142857144 L 148.5714285714286 151.42857142857144 L 148.5714285714286 151.42857142857144 L 151.42857142857144 151.42857142857144 L 162.8571428571429 150.71428571428572 L 177.14285714285717 150.00000000000006 L 187.14285714285717 150.00000000000006 " stroke="black" fill="none" stroke-width="5.0" stroke-linecap="round" stroke-linejoin="round" />
<path d="M 168.5714285714286 105.00000000000001 L 168.5714285714286 106.42857142857146 L 168.5714285714286 110.00000000000001 L 169.28571428571433 120.00000000000001 L 170.71428571428572 138.5714285714286 L 172.14285714285717 158.5714285714286 L 172.14285714285717 177.8571428571429 L 172.8571428571429 192.14285714285722 L 172.8571428571429 196.4285714285715 " stroke="black" fill="none" stroke-width="5.0" stroke-linecap="round" stroke-linejoin="round" />
<path d="M 170.71428571428572 152.14285714285717 L 170.00000000000006 152.14285714285717 L 167.8571428571429 155.00000000000006 L 165.00000000000006 158.5714285714286 L 162.14285714285717 165.71428571428572 L 157.14285714285717 175.00000000000006 L 152.14285714285717 182.8571428571429 L 151.42857142857144 183.5714285714286 " stroke="black" fill="none" stroke-width="5.0" stroke-linecap="round" stroke-linejoin="round" />
<path d="M 170.00000000000006 157.8571428571429 L 171.42857142857144 159.28571428571433 L 175.71428571428578 162.8571428571429 L 185.00000000000006 172.8571428571429 L 193.5714285714286 184.28571428571433 L 199.28571428571433 190.71428571428578 " stroke="black" fill="none" stroke-width="5.0" stroke-linecap="round" stroke-linejoin="round" />
</svg>