<svg xmlns="http://www.w3.org/2000/svg" width="300" height="300" viewBox="0 0 300 300">
<path d="M 117.0 113.0 L 117.0 113.0 L 117.0 114.0 L 117.0 116.0 L 119.0 120.0 L 122.0 123.0 " stroke="black" fill="none" stroke-width="5.0" stroke-linecap="round" stroke-linejoin="round" />
<path d="M 133.0 110.0 L 133.0 110.0 L 132.0 111.0 L 132.0 114.0 L 131.0 120.0 L 131.0 121.0 " stroke="black" fill="none" stroke-width="5.0" stroke-linecap="round" stroke-linejoin="round" />
<path d="M 108.0 132.0 L 108.0 132.0 L 108.0 132.0 L 112.0 132.0 L 122.0 131.0 L 136.0 128.0 L 145.0 127.0 L 148.0 127.0 " stroke="black" fill="none" stroke-width="5.0" stroke-linecap="round" stroke-linejoin="round" />
<path d="M 121.0 136.0 L 121.0 136.0 L 121.0 135.0 L 121.0 135.0 L 121.0 138.0 L 121.0 145.0 L 121.0 155.0 L 120.0 166.0 L 120.0 168.0 " stroke="black" fill="none" stroke-width="5.0" stroke-linecap="round" stroke-linejoin="round" />
<path d="M 134.0 130.0 L 134.0 130.0 L 134.0 130.0 L 134.0 131.0 L 134.0 134.0 L 134.0 143.0 L 136.0 154.0 L 138.0 162.0 L 142.0 164.0 L 144.0 164.0 " stroke="black" fill="none" stroke-width="5.0" stroke-linecap="round" stroke-linejoin="round" />
<path d="M 108.0 148.0 L 108.0 148.0 L 108.0 148.0 L 108.0 148.0 L 108.0 149.0 L 108.0 155.0 L 109.0 167.0 L 110.0 180.0 L 110.0 185.0 " stroke="black" fill="none" stroke-width="5.0" stroke-linecap="round" stroke-linejoin="round" />
<path d="M 113.0 147.0 L 114.0 147.0 L 115.0 147.0 L 116.0 147.0 L 119.0 146.0 L 125.0 145.0 L 133.0 144.0 L 142.0 144.0 L 148.0 144.0 L 151.0 146.0 L 153.0 147.0 L 154.0 150.0 L 154.0 157.0 L 155.0 167.0 L 155.0 177.0 L 155.0 182.0 " stroke="black" fill="none" stroke-width="5.0" stroke-linecap="round" stroke-linejoin="round" />
<path d="M 124.0 176.0 L 124.0 176.0 L 125.0 176.0 L 126.0 177.0 L 128.0 177.0 L 133.0 177.0 L 140.0 177.0 L 143.0 177.0 " stroke="black" fill="none" stroke-width="5.0" stroke-linecap="round" stroke-linejoin="round" />
<path d="M 112.0 194.0 L 113.0 194.0 L 114.0 196.0 L 117.0 197.0 L 124.0 198.0 L 136.0 196.0 L 143.0 195.0 " stroke="black" fill="none" stroke-width="5.0" stroke-linecap="round" stroke-linejoin="round" />
<path d="M 156.0 139.0 L 156.0 139.0 L 157.0 139.0 L 159.0 139.0 L 166.0 138.0 L 177.0 135.0 L 185.0 134.0 L 187.0 134.0 " stroke="black" fill="none" stroke-width="5.0" stroke-linecap="round" stroke-linejoin="round" />
<path d="M 168.0 112.0 L 168.0 112.0 L 168.0 112.0 L 168.0 114.0 L 169.0 122.0 L 172.0 140.0 L 172.0 163.0 L 172.0 181.0 L 171.0 192.0 L 170.0 196.0 " stroke="black" fill="none" stroke-width="5.0" stroke-linecap="round" stroke-linejoin="round" />
<path d="M 176.0 155.0 L 176.0 155.0 L 178.0 158.0 L 182.0 165.0 L 190.0 177.0 L 196.0 187.0 L 197.0 189.0 " stroke="black" fill="none" stroke-width="5.0" stroke-linecap="round" stroke-linejoin="round" />
<path d="M 195.0 113.0 L 195.0 115.0 L 197.0 121.0 L 199.0 128.0 L 201.0 132.0 " stroke="black" fill="none" stroke-width="5.0" stroke-linecap="round" stroke-linejoin="round" />
</svg>