<svg xmlns="http://www.w3.org/2000/svg" width="300" height="300" viewBox="0 0 300 300">
<path d="M 131.0 117.0 L 131.0 117.0 L 131.0 117.0 L 130.0 117.0 L 130.0 117.0 L 129.0 119.0 L 126.0 125.0 L 118.0 140.0 L 105.0 158.0 L 97.0 167.0 " stroke="black" fill="none" stroke-width="5.0" stroke-linecap="round" stroke-linejoin="round" />
<path d="M 112.0 121.0 L 112.0 121.0 L 112.0 121.0 L 113.0 121.0 L 117.0 129.0 L 125.0 147.0 L 131.0 169.0 L 133.0 186.0 L 132.0 195.0 L 129.0 199.0 L 124.0 200.0 L 118.0 197.0 " stroke="black" fill="none" stroke-width="5.0" stroke-linecap="round" stroke-linejoin="round" />
<path d="M 124.0 153.0 L 124.0 155.0 L 124.0 156.0 L 124.0 160.0 L 120.0 167.0 L 113.0 179.0 L 110.0 182.0 " stroke="black" fill="none" stroke-width="5.0" stroke-linecap="round" stroke-linejoin="round" />
<path d="M 151.0 107.0 L 151.0 108.0 L 151.0 109.0 L 151.0 113.0 L 152.0 119.0 L 153.0 127.0 L 154.0 131.0 " stroke="black" fill="none" stroke-width="5.0" stroke-linecap="round" stroke-linejoin="round" />
<path d="M 139.0 125.0 L 138.0 125.0 L 138.0 126.0 L 140.0 126.0 L 146.0 125.0 L 147.0 124.0 " stroke="black" fill="none" stroke-width="5.0" stroke-linecap="round" stroke-linejoin="round" />
<path d="M 166.0 104.0 L 166.0 104.0 L 166.0 106.0 L 167.0 110.0 L 168.0 118.0 L 169.0 126.0 L 169.0 132.0 " stroke="black" fill="none" stroke-width="5.0" stroke-linecap="round" stroke-linejoin="round" />
<path d="M 167.0 118.0 L 167.0 118.0 L 169.0 118.0 L 172.0 118.0 L 177.0 118.0 L 181.0 118.0 " stroke="black" fill="none" stroke-width="5.0" stroke-linecap="round" stroke-linejoin="round" />
<path d="M 157.0 135.0 L 157.0 135.0 L 157.0 134.0 L 157.0 134.0 L 157.0 136.0 L 153.0 141.0 L 147.0 149.0 L 140.0 157.0 L 138.0 159.0 " stroke="black" fill="none" stroke-width="5.0" stroke-linecap="round" stroke-linejoin="round" />
<path d="M 151.0 147.0 L 151.0 147.0 L 151.0 147.0 L 151.0 147.0 L 151.0 149.0 L 152.0 155.0 L 154.0 162.0 L 154.0 163.0 " stroke="black" fill="none" stroke-width="5.0" stroke-linecap="round" stroke-linejoin="round" />
<path d="M 165.0 134.0 L 165.0 135.0 L 166.0 137.0 L 168.0 139.0 L 171.0 140.0 L 174.0 141.0 " stroke="black" fill="none" stroke-width="5.0" stroke-linecap="round" stroke-linejoin="round" />
<path d="M 156.0 147.0 L 156.0 147.0 L 156.0 147.0 L 159.0 147.0 L 165.0 147.0 L 172.0 146.0 L 178.0 145.0 L 180.0 145.0 L 181.0 146.0 " stroke="black" fill="none" stroke-width="5.0" stroke-linecap="round" stroke-linejoin="round" />
<path d="M 161.0 155.0 L 162.0 155.0 L 163.0 155.0 L 166.0 155.0 L 169.0 155.0 L 174.0 155.0 L 177.0 154.0 L 179.0 154.0 L 179.0 154.0 " stroke="black" fill="none" stroke-width="5.0" stroke-linecap="round" stroke-linejoin="round" />
<path d="M 156.0 162.0 L 156.0 162.0 L 157.0 162.0 L 159.0 163.0 L 164.0 163.0 L 172.0 161.0 L 177.0 161.0 L 179.0 161.0 " stroke="black" fill="none" stroke-width="5.0" stroke-linecap="round" stroke-linejoin="round" />
<path d="M 157.0 171.0 L 158.0 171.0 L 161.0 171.0 L 167.0 171.0 L 175.0 170.0 L 180.0 169.0 " stroke="black" fill="none" stroke-width="5.0" stroke-linecap="round" stroke-linejoin="round" />
<path d="M 169.0 151.0 L 169.0 151.0 L 168.0 153.0 L 168.0 157.0 L 169.0 163.0 L 170.0 165.0 " stroke="black" fill="none" stroke-width="5.0" stroke-linecap="round" stroke-linejoin="round" />
<path d="M 153.0 184.0 L 153.0 184.0 L 153.0 185.0 L 153.0 185.0 L 156.0 185.0 L 164.0 184.0 L 171.0 183.0 L 176.0 182.0 L 177.0 183.0 L 177.0 186.0 L 172.0 191.0 L 166.0 198.0 L 159.0 205.0 L 152.0 210.0 L 150.0 211.0 " stroke="black" fill="none" stroke-width="5.0" stroke-linecap="round" stroke-linejoin="round" />
<path d="M 148.0 191.0 L 148.0 191.0 L 148.0 191.0 L 149.0 191.0 L 156.0 194.0 L 171.0 203.0 L 186.0 213.0 " stroke="black" fill="none" stroke-width="5.0" stroke-linecap="round" stroke-linejoin="round" />
</svg>