<svg xmlns="http://www.w3.org/2000/svg" width="300" height="300" viewBox="0 0 300 300">
<path d="M 135.0 116.0 L 135.0 116.0 L 135.0 116.0 L 135.0 116.0 L 135.0 117.0 L 134.0 119.0 L 130.0 128.0 L 119.0 142.0 L 112.0 150.0 " stroke="black" fill="none" stroke-width="5.0" stroke-linecap="round" stroke-linejoin="round" />
<path d="M 118.0 120.0 L 118.0 120.0 L 118.0 121.0 L 118.0 121.0 L 118.0 123.0 L 122.0 129.0 L 128.0 142.0 L 134.0 159.0 L 136.0 174.0 L 137.0 185.0 L 137.0 192.0 L 136.0 196.0 L 132.0 197.0 L 124.0 196.0 L 118.0 191.0 " stroke="black" fill="none" stroke-width="5.0" stroke-linecap="round" stroke-linejoin="round" />
<path d="M 131.0 152.0 L 131.0 152.0 L 131.0 152.0 L 131.0 153.0 L 129.0 157.0 L 122.0 167.0 L 109.0 182.0 " stroke="black" fill="none" stroke-width="5.0" stroke-linecap="round" stroke-linejoin="round" />
<path d="M 156.0 120.0 L 156.0 120.0 L 156.0 120.0 L 157.0 122.0 L 159.0 128.0 L 161.0 135.0 L 162.0 137.0 " stroke="black" fill="none" stroke-width="5.0" stroke-linecap="round" stroke-linejoin="round" />
<path d="M 177.0 118.0 L 177.0 119.0 L 177.0 121.0 L 177.0 126.0 L 174.0 134.0 L 172.0 139.0 " stroke="black" fill="none" stroke-width="5.0" stroke-linecap="round" stroke-linejoin="round" />
<path d="M 149.0 148.0 L 149.0 148.0 L 149.0 148.0 L 150.0 148.0 L 155.0 148.0 L 168.0 145.0 L 183.0 142.0 L 192.0 141.0 " stroke="black" fill="none" stroke-width="5.0" stroke-linecap="round" stroke-linejoin="round" />
<path d="M 163.0 149.0 L 163.0 149.0 L 163.0 149.0 L 163.0 149.0 L 163.0 149.0 L 164.0 149.0 L 164.0 149.0 L 164.0 150.0 L 163.0 156.0 L 162.0 165.0 L 161.0 171.0 " stroke="black" fill="none" stroke-width="5.0" stroke-linecap="round" stroke-linejoin="round" />
<path d="M 177.0 144.0 L 177.0 144.0 L 176.0 145.0 L 176.0 147.0 L 175.0 152.0 L 175.0 160.0 L 176.0 169.0 L 180.0 175.0 L 184.0 176.0 L 187.0 175.0 " stroke="black" fill="none" stroke-width="5.0" stroke-linecap="round" stroke-linejoin="round" />
<path d="M 151.0 160.0 L 150.0 161.0 L 150.0 163.0 L 149.0 169.0 L 150.0 179.0 L 152.0 187.0 L 154.0 191.0 " stroke="black" fill="none" stroke-width="5.0" stroke-linecap="round" stroke-linejoin="round" />
<path d="M 152.0 160.0 L 152.0 160.0 L 153.0 160.0 L 156.0 160.0 L 163.0 159.0 L 174.0 158.0 L 184.0 157.0 L 189.0 157.0 L 192.0 158.0 L 192.0 161.0 L 194.0 167.0 L 195.0 176.0 L 196.0 184.0 L 197.0 190.0 L 197.0 191.0 " stroke="black" fill="none" stroke-width="5.0" stroke-linecap="round" stroke-linejoin="round" />
<path d="M 154.0 194.0 L 154.0 194.0 L 154.0 194.0 L 155.0 195.0 L 160.0 196.0 L 172.0 196.0 L 187.0 196.0 L 197.0 195.0 " stroke="black" fill="none" stroke-width="5.0" stroke-linecap="round" stroke-linejoin="round" />
</svg>