<svg xmlns="http://www.w3.org/2000/svg" width="300" height="300" viewBox="0 0 300 300">
<path d="M 113.0 127.0 L 113.0 127.0 L 113.0 127.0 L 114.0 128.0 L 119.0 128.0 L 127.0 129.0 L 133.0 130.0 L 135.0 130.0 " stroke="black" fill="none" stroke-width="5.0" stroke-linecap="round" stroke-linejoin="round" />
<path d="M 111.0 151.0 L 111.0 151.0 L 111.0 151.0 L 111.0 151.0 L 114.0 151.0 L 120.0 152.0 L 127.0 153.0 L 132.0 154.0 L 133.0 154.0 " stroke="black" fill="none" stroke-width="5.0" stroke-linecap="round" stroke-linejoin="round" />
<path d="M 99.0 177.0 L 99.0 177.0 L 101.0 177.0 L 104.0 178.0 L 111.0 179.0 L 123.0 179.0 L 134.0 179.0 L 139.0 179.0 " stroke="black" fill="none" stroke-width="5.0" stroke-linecap="round" stroke-linejoin="round" />
<path d="M 122.0 133.0 L 122.0 134.0 L 122.0 136.0 L 122.0 142.0 L 122.0 154.0 L 123.0 166.0 L 123.0 170.0 " stroke="black" fill="none" stroke-width="5.0" stroke-linecap="round" stroke-linejoin="round" />
<path d="M 155.0 114.0 L 155.0 114.0 L 155.0 115.0 L 155.0 116.0 L 153.0 120.0 L 151.0 128.0 L 148.0 137.0 L 147.0 140.0 " stroke="black" fill="none" stroke-width="5.0" stroke-linecap="round" stroke-linejoin="round" />
<path d="M 155.0 124.0 L 156.0 124.0 L 157.0 124.0 L 159.0 125.0 L 162.0 125.0 L 164.0 125.0 L 167.0 126.0 L 168.0 129.0 L 169.0 134.0 L 169.0 142.0 L 166.0 153.0 L 163.0 165.0 L 158.0 178.0 L 153.0 188.0 L 150.0 193.0 L 149.0 193.0 " stroke="black" fill="none" stroke-width="5.0" stroke-linecap="round" stroke-linejoin="round" />
<path d="M 163.0 161.0 L 163.0 161.0 L 163.0 162.0 L 165.0 164.0 L 172.0 170.0 L 181.0 179.0 L 190.0 187.0 L 194.0 191.0 L 195.0 193.0 L 195.0 193.0 L 194.0 193.0 " stroke="black" fill="none" stroke-width="5.0" stroke-linecap="round" stroke-linejoin="round" />
</svg>