<svg xmlns="http://www.w3.org/2000/svg" width="300" height="300" viewBox="0 0 300 300">
<path d="M 137.0 119.0 L 137.0 119.0 L 137.0 119.0 L 138.0 119.0 L 148.0 119.0 L 166.0 118.0 L 182.0 117.0 " stroke="black" fill="none" stroke-width="5.0" stroke-linecap="round" stroke-linejoin="round" />
<path d="M 143.0 152.0 L 144.0 152.0 L 146.0 152.0 L 150.0 152.0 L 159.0 151.0 L 169.0 151.0 L 171.0 151.0 " stroke="black" fill="none" stroke-width="5.0" stroke-linecap="round" stroke-linejoin="round" />
<path d="M 110.0 192.0 L 111.0 192.0 L 115.0 192.0 L 125.0 192.0 L 141.0 191.0 L 160.0 191.0 L 180.0 191.0 L 191.0 191.0 " stroke="black" fill="none" stroke-width="5.0" stroke-linecap="round" stroke-linejoin="round" />
<path d="M 159.0 119.0 L 159.0 120.0 L 159.0 124.0 L 158.0 136.0 L 159.0 158.0 L 161.0 179.0 L 161.0 189.0 " stroke="black" fill="none" stroke-width="5.0" stroke-linecap="round" stroke-linejoin="round" />
</svg>