<svg xmlns="http://www.w3.org/2000/svg" width="300" height="300" viewBox="0 0 300 300">
<path d="M 110.0 125.0 L 110.0 125.0 L 111.0 125.0 L 112.0 126.0 L 116.0 126.0 L 122.0 126.0 L 127.0 125.0 L 129.0 125.0 " stroke="black" fill="none" stroke-width="5.0" stroke-linecap="round" stroke-linejoin="round" />
<path d="M 109.0 145.0 L 109.0 145.0 L 109.0 145.0 L 110.0 145.0 L 112.0 145.0 L 116.0 145.0 L 121.0 145.0 L 125.0 146.0 " stroke="black" fill="none" stroke-width="5.0" stroke-linecap="round" stroke-linejoin="round" />
<path d="M 100.0 174.0 L 101.0 174.0 L 102.0 174.0 L 105.0 174.0 L 111.0 174.0 L 119.0 174.0 L 128.0 174.0 L 135.0 174.0 L 136.0 174.0 " stroke="black" fill="none" stroke-width="5.0" stroke-linecap="round" stroke-linejoin="round" />
<path d="M 117.0 132.0 L 117.0 132.0 L 118.0 132.0 L 118.0 133.0 L 119.0 140.0 L 119.0 153.0 L 119.0 166.0 L 119.0 173.0 L 119.0 174.0 " stroke="black" fill="none" stroke-width="5.0" stroke-linecap="round" stroke-linejoin="round" />
<path d="M 151.0 111.0 L 151.0 112.0 L 151.0 115.0 L 151.0 123.0 L 152.0 135.0 L 153.0 144.0 L 154.0 148.0 L 154.0 149.0 L 154.0 148.0 " stroke="black" fill="none" stroke-width="5.0" stroke-linecap="round" stroke-linejoin="round" />
<path d="M 154.0 132.0 L 154.0 132.0 L 154.0 133.0 L 154.0 133.0 L 159.0 133.0 L 165.0 132.0 L 172.0 132.0 L 174.0 132.0 " stroke="black" fill="none" stroke-width="5.0" stroke-linecap="round" stroke-linejoin="round" />
<path d="M 141.0 156.0 L 141.0 157.0 L 140.0 157.0 L 140.0 161.0 L 141.0 169.0 L 143.0 179.0 L 145.0 185.0 L 147.0 187.0 " stroke="black" fill="none" stroke-width="5.0" stroke-linecap="round" stroke-linejoin="round" />
<path d="M 146.0 155.0 L 146.0 155.0 L 146.0 155.0 L 146.0 156.0 L 148.0 156.0 L 154.0 156.0 L 163.0 156.0 L 172.0 156.0 L 179.0 156.0 L 183.0 157.0 L 185.0 159.0 L 187.0 164.0 L 189.0 172.0 L 191.0 181.0 L 191.0 187.0 L 191.0 191.0 " stroke="black" fill="none" stroke-width="5.0" stroke-linecap="round" stroke-linejoin="round" />
<path d="M 151.0 192.0 L 151.0 192.0 L 152.0 192.0 L 154.0 193.0 L 162.0 193.0 L 175.0 193.0 L 187.0 193.0 L 193.0 194.0 " stroke="black" fill="none" stroke-width="5.0" stroke-linecap="round" stroke-linejoin="round" />
</svg>