<svg xmlns="http://www.w3.org/2000/svg" width="300" height="300" viewBox="0 0 300 300">
<path d="M 118.33333333333333 127.49999999999999 L 118.33333333333333 127.49999999999999 L 118.33333333333333 127.49999999999999 L 118.33333333333333 127.49999999999999 L 118.33333333333333 127.49999999999999 L 119.16666666666667 126.66666666666667 L 119.99999999999999 126.66666666666667 L 124.16666666666667 126.66666666666667 L 130.83333333333331 126.66666666666667 L 132.5 126.66666666666667 " stroke="black" fill="none" stroke-width="5.0" stroke-linecap="round" stroke-linejoin="round" />
<path d="M 116.66666666666667 148.33333333333331 L 117.49999999999999 148.33333333333331 L 118.33333333333333 148.33333333333331 L 119.16666666666667 148.33333333333331 L 121.66666666666667 148.33333333333331 L 125.83333333333333 148.33333333333331 L 131.66666666666669 147.5 L 134.16666666666669 147.5 " stroke="black" fill="none" stroke-width="5.0" stroke-linecap="round" stroke-linejoin="round" />
<path d="M 104.99999999999999 176.66666666666663 L 104.99999999999999 176.66666666666663 L 104.99999999999999 176.66666666666663 L 105.83333333333333 177.5 L 110.83333333333333 177.5 L 120.83333333333333 176.66666666666663 L 135.0 175.83333333333331 L 140.83333333333331 175.83333333333331 " stroke="black" fill="none" stroke-width="5.0" stroke-linecap="round" stroke-linejoin="round" />
<path d="M 124.99999999999999 132.5 L 124.99999999999999 132.5 L 124.99999999999999 132.5 L 124.16666666666667 132.5 L 124.16666666666667 135.83333333333331 L 124.99999999999999 148.33333333333331 L 125.83333333333333 164.16666666666663 L 125.83333333333333 170.83333333333331 " stroke="black" fill="none" stroke-width="5.0" stroke-linecap="round" stroke-linejoin="round" />
<path d="M 165.83333333333331 114.16666666666667 L 165.83333333333331 114.16666666666667 L 165.83333333333331 114.16666666666667 L 165.83333333333331 114.16666666666667 L 165.0 114.99999999999999 L 161.66666666666663 120.83333333333333 L 154.16666666666669 132.5 L 145.0 143.33333333333331 L 144.16666666666669 145.0 " stroke="black" fill="none" stroke-width="5.0" stroke-linecap="round" stroke-linejoin="round" />
<path d="M 165.0 117.49999999999999 L 165.83333333333331 117.49999999999999 L 166.66666666666663 117.49999999999999 L 169.16666666666663 119.99999999999999 L 175.0 124.16666666666667 L 181.66666666666663 129.16666666666669 L 188.33333333333331 132.5 L 189.16666666666663 132.5 " stroke="black" fill="none" stroke-width="5.0" stroke-linecap="round" stroke-linejoin="round" />
<path d="M 174.16666666666663 138.33333333333331 L 174.16666666666663 138.33333333333331 L 174.16666666666663 137.5 L 173.33333333333331 137.5 L 171.66666666666663 140.0 L 168.33333333333331 144.16666666666669 L 161.66666666666663 150.83333333333331 L 155.0 155.83333333333331 " stroke="black" fill="none" stroke-width="5.0" stroke-linecap="round" stroke-linejoin="round" />
<path d="M 181.66666666666663 152.5 L 180.83333333333331 153.33333333333331 L 180.0 154.16666666666669 L 178.33333333333331 155.83333333333331 L 175.83333333333331 158.33333333333331 L 170.83333333333331 162.5 L 163.33333333333331 167.5 " stroke="black" fill="none" stroke-width="5.0" stroke-linecap="round" stroke-linejoin="round" />
<path d="M 189.16666666666663 169.16666666666663 L 190.0 168.33333333333331 L 190.0 168.33333333333331 L 190.83333333333331 167.5 L 190.83333333333331 167.5 L 190.83333333333331 168.33333333333331 L 188.33333333333331 171.66666666666663 L 181.66666666666663 177.5 L 167.5 186.66666666666663 L 155.0 194.16666666666663 " stroke="black" fill="none" stroke-width="5.0" stroke-linecap="round" stroke-linejoin="round" />
</svg>