<svg xmlns="http://www.w3.org/2000/svg" width="300" height="300" viewBox="0 0 300 300">
<path d="M 113.0 124.0 L 113.0 124.0 L 113.0 124.0 L 113.0 124.0 L 114.0 124.0 L 118.0 124.0 L 125.0 124.0 L 132.0 124.0 " stroke="black" fill="none" stroke-width="5.0" stroke-linecap="round" stroke-linejoin="round" />
<path d="M 110.0 153.0 L 110.0 153.0 L 110.0 153.0 L 112.0 153.0 L 117.0 153.0 L 123.0 152.0 L 127.0 152.0 " stroke="black" fill="none" stroke-width="5.0" stroke-linecap="round" stroke-linejoin="round" />
<path d="M 99.0 180.0 L 99.0 180.0 L 100.0 181.0 L 104.0 181.0 L 111.0 180.0 L 121.0 179.0 L 132.0 177.0 L 133.0 177.0 " stroke="black" fill="none" stroke-width="5.0" stroke-linecap="round" stroke-linejoin="round" />
<path d="M 115.0 133.0 L 115.0 133.0 L 116.0 133.0 L 116.0 136.0 L 116.0 143.0 L 116.0 157.0 L 116.0 170.0 L 115.0 175.0 " stroke="black" fill="none" stroke-width="5.0" stroke-linecap="round" stroke-linejoin="round" />
<path d="M 145.0 118.0 L 145.0 118.0 L 145.0 119.0 L 145.0 119.0 L 145.0 120.0 L 145.0 124.0 L 145.0 128.0 " stroke="black" fill="none" stroke-width="5.0" stroke-linecap="round" stroke-linejoin="round" />
<path d="M 145.0 115.0 L 145.0 115.0 L 145.0 115.0 L 145.0 114.0 L 148.0 114.0 L 154.0 115.0 L 164.0 115.0 L 174.0 115.0 L 183.0 116.0 L 188.0 118.0 L 191.0 122.0 L 191.0 127.0 L 191.0 130.0 L 191.0 131.0 " stroke="black" fill="none" stroke-width="5.0" stroke-linecap="round" stroke-linejoin="round" />
<path d="M 147.0 134.0 L 147.0 134.0 L 147.0 134.0 L 147.0 135.0 L 150.0 135.0 L 159.0 135.0 L 171.0 135.0 L 182.0 135.0 L 187.0 136.0 " stroke="black" fill="none" stroke-width="5.0" stroke-linecap="round" stroke-linejoin="round" />
<path d="M 160.0 117.0 L 160.0 117.0 L 160.0 118.0 L 160.0 121.0 L 160.0 126.0 L 161.0 133.0 L 161.0 135.0 " stroke="black" fill="none" stroke-width="5.0" stroke-linecap="round" stroke-linejoin="round" />
<path d="M 176.0 120.0 L 176.0 123.0 L 176.0 127.0 L 175.0 132.0 L 175.0 135.0 " stroke="black" fill="none" stroke-width="5.0" stroke-linecap="round" stroke-linejoin="round" />
<path d="M 153.0 144.0 L 154.0 144.0 L 155.0 145.0 L 158.0 145.0 L 164.0 145.0 L 172.0 144.0 L 179.0 143.0 L 181.0 143.0 " stroke="black" fill="none" stroke-width="5.0" stroke-linecap="round" stroke-linejoin="round" />
<path d="M 151.0 153.0 L 151.0 153.0 L 151.0 154.0 L 150.0 156.0 L 150.0 158.0 L 151.0 160.0 L 151.0 161.0 " stroke="black" fill="none" stroke-width="5.0" stroke-linecap="round" stroke-linejoin="round" />
<path d="M 152.0 155.0 L 153.0 155.0 L 154.0 155.0 L 156.0 155.0 L 160.0 155.0 L 167.0 153.0 L 175.0 153.0 L 180.0 154.0 L 182.0 157.0 L 182.0 161.0 L 182.0 164.0 " stroke="black" fill="none" stroke-width="5.0" stroke-linecap="round" stroke-linejoin="round" />
<path d="M 151.0 165.0 L 151.0 165.0 L 152.0 166.0 L 156.0 166.0 L 165.0 165.0 L 174.0 164.0 L 179.0 164.0 L 179.0 164.0 " stroke="black" fill="none" stroke-width="5.0" stroke-linecap="round" stroke-linejoin="round" />
<path d="M 155.0 169.0 L 155.0 169.0 L 156.0 169.0 L 156.0 169.0 L 156.0 169.0 L 154.0 172.0 L 150.0 177.0 L 145.0 183.0 L 144.0 185.0 " stroke="black" fill="none" stroke-width="5.0" stroke-linecap="round" stroke-linejoin="round" />
<path d="M 154.0 174.0 L 154.0 174.0 L 152.0 176.0 L 150.0 180.0 L 150.0 185.0 L 151.0 191.0 L 155.0 194.0 L 161.0 194.0 L 166.0 191.0 " stroke="black" fill="none" stroke-width="5.0" stroke-linecap="round" stroke-linejoin="round" />
<path d="M 191.0 172.0 L 191.0 173.0 L 190.0 175.0 L 189.0 177.0 L 187.0 180.0 L 184.0 183.0 L 181.0 186.0 " stroke="black" fill="none" stroke-width="5.0" stroke-linecap="round" stroke-linejoin="round" />
<path d="M 162.0 172.0 L 162.0 172.0 L 163.0 173.0 L 168.0 177.0 L 178.0 186.0 L 189.0 198.0 L 197.0 206.0 L 198.0 208.0 " stroke="black" fill="none" stroke-width="5.0" stroke-linecap="round" stroke-linejoin="round" />
</svg>