<svg xmlns="http://www.w3.org/2000/svg" width="300" height="300" viewBox="0 0 300 300">
<path d="M 122.0 125.0 L 122.0 125.0 L 122.0 125.0 L 122.0 125.0 L 125.0 125.0 L 131.0 124.0 L 134.0 123.0 " stroke="black" fill="none" stroke-width="5.0" stroke-linecap="round" stroke-linejoin="round" />
<path d="M 119.0 148.0 L 119.0 148.0 L 119.0 148.0 L 119.0 148.0 L 123.0 148.0 L 130.0 147.0 L 137.0 146.0 L 138.0 145.0 " stroke="black" fill="none" stroke-width="5.0" stroke-linecap="round" stroke-linejoin="round" />
<path d="M 107.0 174.0 L 107.0 174.0 L 107.0 174.0 L 108.0 174.0 L 115.0 174.0 L 128.0 174.0 L 140.0 173.0 L 144.0 173.0 " stroke="black" fill="none" stroke-width="5.0" stroke-linecap="round" stroke-linejoin="round" />
<path d="M 128.0 132.0 L 128.0 132.0 L 128.0 132.0 L 128.0 131.0 L 128.0 132.0 L 129.0 141.0 L 130.0 155.0 L 130.0 168.0 " stroke="black" fill="none" stroke-width="5.0" stroke-linecap="round" stroke-linejoin="round" />
<path d="M 154.0 112.0 L 154.0 112.0 L 154.0 112.0 L 154.0 112.0 L 154.0 112.0 L 154.0 113.0 L 154.0 116.0 L 153.0 120.0 L 153.0 124.0 L 157.0 126.0 L 164.0 127.0 L 174.0 127.0 L 183.0 126.0 L 189.0 125.0 L 191.0 124.0 L 191.0 124.0 " stroke="black" fill="none" stroke-width="5.0" stroke-linecap="round" stroke-linejoin="round" />
<path d="M 173.0 103.0 L 173.0 103.0 L 173.0 104.0 L 173.0 105.0 L 173.0 108.0 L 174.0 113.0 L 174.0 119.0 " stroke="black" fill="none" stroke-width="5.0" stroke-linecap="round" stroke-linejoin="round" />
<path d="M 193.0 108.0 L 193.0 109.0 L 193.0 113.0 L 193.0 117.0 L 193.0 121.0 " stroke="black" fill="none" stroke-width="5.0" stroke-linecap="round" stroke-linejoin="round" />
<path d="M 161.0 137.0 L 161.0 137.0 L 161.0 137.0 L 161.0 137.0 L 161.0 137.0 L 161.0 138.0 L 159.0 142.0 L 155.0 148.0 L 151.0 153.0 L 150.0 154.0 " stroke="black" fill="none" stroke-width="5.0" stroke-linecap="round" stroke-linejoin="round" />
<path d="M 156.0 148.0 L 156.0 148.0 L 156.0 148.0 L 156.0 148.0 L 156.0 148.0 L 156.0 151.0 L 156.0 158.0 L 156.0 171.0 L 157.0 184.0 L 157.0 192.0 L 157.0 194.0 L 157.0 194.0 " stroke="black" fill="none" stroke-width="5.0" stroke-linecap="round" stroke-linejoin="round" />
<path d="M 177.0 136.0 L 177.0 136.0 L 177.0 136.0 L 177.0 137.0 L 177.0 138.0 L 179.0 140.0 L 181.0 144.0 L 183.0 146.0 " stroke="black" fill="none" stroke-width="5.0" stroke-linecap="round" stroke-linejoin="round" />
<path d="M 169.0 151.0 L 169.0 151.0 L 169.0 152.0 L 171.0 152.0 L 176.0 152.0 L 183.0 152.0 L 189.0 150.0 L 193.0 150.0 L 195.0 150.0 L 195.0 150.0 " stroke="black" fill="none" stroke-width="5.0" stroke-linecap="round" stroke-linejoin="round" />
<path d="M 172.0 164.0 L 172.0 164.0 L 172.0 164.0 L 172.0 164.0 L 176.0 164.0 L 180.0 164.0 L 184.0 163.0 L 186.0 163.0 L 187.0 163.0 " stroke="black" fill="none" stroke-width="5.0" stroke-linecap="round" stroke-linejoin="round" />
<path d="M 172.0 176.0 L 173.0 176.0 L 174.0 176.0 L 177.0 176.0 L 181.0 176.0 L 186.0 176.0 L 187.0 176.0 " stroke="black" fill="none" stroke-width="5.0" stroke-linecap="round" stroke-linejoin="round" />
<path d="M 166.0 195.0 L 166.0 195.0 L 167.0 195.0 L 167.0 195.0 L 171.0 195.0 L 178.0 195.0 L 187.0 195.0 L 194.0 195.0 L 199.0 195.0 L 200.0 195.0 L 200.0 195.0 " stroke="black" fill="none" stroke-width="5.0" stroke-linecap="round" stroke-linejoin="round" />
<path d="M 180.0 155.0 L 180.0 155.0 L 180.0 156.0 L 180.0 159.0 L 180.0 165.0 L 181.0 175.0 L 182.0 185.0 L 184.0 190.0 " stroke="black" fill="none" stroke-width="5.0" stroke-linecap="round" stroke-linejoin="round" />
</svg>