<svg xmlns="http://www.w3.org/2000/svg" width="300" height="300" viewBox="0 0 300 300">
<path d="M 114.0 123.0 L 115.0 123.0 L 115.0 123.0 L 116.0 123.0 L 118.0 123.0 L 123.0 123.0 L 129.0 123.0 " stroke="black" fill="none" stroke-width="5.0" stroke-linecap="round" stroke-linejoin="round" />
<path d="M 111.0 148.0 L 111.0 148.0 L 111.0 148.0 L 111.0 148.0 L 115.0 148.0 L 124.0 148.0 L 129.0 148.0 " stroke="black" fill="none" stroke-width="5.0" stroke-linecap="round" stroke-linejoin="round" />
<path d="M 100.0 174.0 L 100.0 174.0 L 101.0 174.0 L 104.0 175.0 L 110.0 175.0 L 123.0 176.0 L 134.0 175.0 " stroke="black" fill="none" stroke-width="5.0" stroke-linecap="round" stroke-linejoin="round" />
<path d="M 117.0 130.0 L 117.0 130.0 L 116.0 131.0 L 116.0 133.0 L 117.0 141.0 L 118.0 156.0 L 118.0 167.0 " stroke="black" fill="none" stroke-width="5.0" stroke-linecap="round" stroke-linejoin="round" />
<path d="M 158.0 108.0 L 158.0 108.0 L 158.0 108.0 L 159.0 110.0 L 160.0 115.0 L 162.0 122.0 L 163.0 127.0 " stroke="black" fill="none" stroke-width="5.0" stroke-linecap="round" stroke-linejoin="round" />
<path d="M 150.0 118.0 L 150.0 119.0 L 152.0 120.0 L 154.0 123.0 L 156.0 125.0 L 158.0 127.0 " stroke="black" fill="none" stroke-width="5.0" stroke-linecap="round" stroke-linejoin="round" />
<path d="M 179.0 118.0 L 178.0 120.0 L 176.0 123.0 L 173.0 127.0 L 171.0 131.0 " stroke="black" fill="none" stroke-width="5.0" stroke-linecap="round" stroke-linejoin="round" />
<path d="M 146.0 134.0 L 146.0 134.0 L 145.0 135.0 L 145.0 138.0 L 145.0 146.0 L 145.0 160.0 L 145.0 178.0 L 144.0 186.0 L 145.0 187.0 " stroke="black" fill="none" stroke-width="5.0" stroke-linecap="round" stroke-linejoin="round" />
<path d="M 150.0 135.0 L 150.0 135.0 L 150.0 135.0 L 150.0 135.0 L 153.0 135.0 L 158.0 137.0 L 167.0 138.0 L 174.0 140.0 L 179.0 141.0 L 181.0 142.0 L 182.0 148.0 L 183.0 157.0 L 185.0 169.0 L 187.0 180.0 L 188.0 186.0 L 189.0 188.0 " stroke="black" fill="none" stroke-width="5.0" stroke-linecap="round" stroke-linejoin="round" />
<path d="M 148.0 152.0 L 149.0 151.0 L 150.0 151.0 L 152.0 151.0 L 157.0 151.0 L 166.0 152.0 L 174.0 153.0 L 180.0 154.0 L 180.0 155.0 " stroke="black" fill="none" stroke-width="5.0" stroke-linecap="round" stroke-linejoin="round" />
<path d="M 152.0 166.0 L 152.0 167.0 L 154.0 168.0 L 157.0 169.0 L 166.0 169.0 L 176.0 168.0 L 182.0 167.0 L 182.0 167.0 " stroke="black" fill="none" stroke-width="5.0" stroke-linecap="round" stroke-linejoin="round" />
<path d="M 145.0 184.0 L 146.0 184.0 L 147.0 185.0 L 153.0 186.0 L 162.0 186.0 L 172.0 186.0 L 180.0 186.0 " stroke="black" fill="none" stroke-width="5.0" stroke-linecap="round" stroke-linejoin="round" />
<path d="M 157.0 189.0 L 157.0 189.0 L 156.0 190.0 L 155.0 191.0 L 154.0 195.0 L 154.0 198.0 " stroke="black" fill="none" stroke-width="5.0" stroke-linecap="round" stroke-linejoin="round" />
<path d="M 172.0 188.0 L 172.0 189.0 L 173.0 191.0 L 174.0 193.0 L 177.0 198.0 L 179.0 204.0 " stroke="black" fill="none" stroke-width="5.0" stroke-linecap="round" stroke-linejoin="round" />
</svg>