<svg xmlns="http://www.w3.org/2000/svg" width="300" height="300" viewBox="0 0 300 300">
<path d="M 105.0 123.0 L 105.0 123.0 L 105.0 123.0 L 105.0 123.0 L 106.0 123.0 L 111.0 123.0 L 117.0 122.0 L 120.0 122.0 " stroke="black" fill="none" stroke-width="5.0" stroke-linecap="round" stroke-linejoin="round" />
<path d="M 105.0 147.0 L 105.0 147.0 L 106.0 147.0 L 106.0 147.0 L 108.0 147.0 L 111.0 146.0 L 116.0 146.0 L 119.0 146.0 " stroke="black" fill="none" stroke-width="5.0" stroke-linecap="round" stroke-linejoin="round" />
<path d="M 96.0 179.0 L 98.0 179.0 L 102.0 179.0 L 108.0 178.0 L 117.0 176.0 L 124.0 174.0 " stroke="black" fill="none" stroke-width="5.0" stroke-linecap="round" stroke-linejoin="round" />
<path d="M 112.0 126.0 L 112.0 126.0 L 112.0 127.0 L 112.0 127.0 L 112.0 131.0 L 112.0 141.0 L 113.0 159.0 L 113.0 173.0 " stroke="black" fill="none" stroke-width="5.0" stroke-linecap="round" stroke-linejoin="round" />
<path d="M 145.0 109.0 L 145.0 109.0 L 145.0 111.0 L 147.0 114.0 L 149.0 118.0 L 149.0 119.0 " stroke="black" fill="none" stroke-width="5.0" stroke-linecap="round" stroke-linejoin="round" />
<path d="M 133.0 124.0 L 133.0 125.0 L 133.0 126.0 L 134.0 126.0 L 137.0 126.0 L 143.0 125.0 L 151.0 124.0 L 157.0 124.0 " stroke="black" fill="none" stroke-width="5.0" stroke-linecap="round" stroke-linejoin="round" />
<path d="M 142.0 127.0 L 142.0 127.0 L 140.0 127.0 L 139.0 129.0 L 138.0 131.0 L 138.0 135.0 L 137.0 145.0 L 135.0 160.0 L 132.0 176.0 L 130.0 187.0 L 130.0 190.0 L 131.0 188.0 " stroke="black" fill="none" stroke-width="5.0" stroke-linecap="round" stroke-linejoin="round" />
<path d="M 143.0 148.0 L 143.0 148.0 L 142.0 148.0 L 141.0 148.0 L 141.0 149.0 L 143.0 149.0 L 146.0 149.0 L 149.0 149.0 L 151.0 149.0 L 153.0 152.0 L 155.0 159.0 L 157.0 168.0 L 159.0 178.0 L 160.0 184.0 L 160.0 187.0 L 156.0 188.0 L 152.0 188.0 L 146.0 188.0 " stroke="black" fill="none" stroke-width="5.0" stroke-linecap="round" stroke-linejoin="round" />
<path d="M 175.0 111.0 L 175.0 111.0 L 174.0 111.0 L 174.0 112.0 L 172.0 117.0 L 168.0 128.0 L 165.0 139.0 L 162.0 144.0 L 162.0 144.0 " stroke="black" fill="none" stroke-width="5.0" stroke-linecap="round" stroke-linejoin="round" />
<path d="M 174.0 122.0 L 174.0 123.0 L 175.0 123.0 L 177.0 124.0 L 183.0 124.0 L 191.0 124.0 L 196.0 124.0 " stroke="black" fill="none" stroke-width="5.0" stroke-linecap="round" stroke-linejoin="round" />
<path d="M 175.0 144.0 L 175.0 144.0 L 175.0 143.0 L 175.0 143.0 L 175.0 143.0 L 178.0 142.0 L 184.0 141.0 L 191.0 140.0 L 196.0 140.0 L 199.0 140.0 L 200.0 141.0 L 200.0 144.0 L 199.0 147.0 L 198.0 150.0 " stroke="black" fill="none" stroke-width="5.0" stroke-linecap="round" stroke-linejoin="round" />
<path d="M 184.0 146.0 L 184.0 146.0 L 183.0 146.0 L 183.0 149.0 L 183.0 158.0 L 185.0 171.0 L 186.0 182.0 L 186.0 187.0 L 186.0 188.0 " stroke="black" fill="none" stroke-width="5.0" stroke-linecap="round" stroke-linejoin="round" />
<path d="M 187.0 168.0 L 187.0 168.0 L 188.0 168.0 L 190.0 168.0 L 193.0 167.0 L 197.0 166.0 L 200.0 165.0 " stroke="black" fill="none" stroke-width="5.0" stroke-linecap="round" stroke-linejoin="round" />
<path d="M 173.0 163.0 L 173.0 163.0 L 173.0 163.0 L 173.0 166.0 L 173.0 174.0 L 173.0 187.0 L 173.0 198.0 L 172.0 203.0 " stroke="black" fill="none" stroke-width="5.0" stroke-linecap="round" stroke-linejoin="round" />
<path d="M 177.0 185.0 L 177.0 185.0 L 179.0 186.0 L 184.0 189.0 L 193.0 194.0 L 203.0 200.0 L 210.0 204.0 " stroke="black" fill="none" stroke-width="5.0" stroke-linecap="round" stroke-linejoin="round" />
</svg>