<svg xmlns="http://www.w3.org/2000/svg" width="300" height="300" viewBox="0 0 300 300">
<path d="M 122.0 111.0 L 122.0 111.0 L 122.0 111.0 L 123.0 111.0 L 125.0 111.0 L 128.0 111.0 L 132.0 111.0 L 136.0 111.0 L 138.0 113.0 L 139.0 116.0 L 139.0 120.0 L 139.0 122.0 L 139.0 123.0 L 136.0 123.0 L 131.0 123.0 L 124.0 124.0 L 117.0 125.0 L 115.0 126.0 " stroke="black" fill="none" stroke-width="5.0" stroke-linecap="round" stroke-linejoin="round" />
<path d="M 115.0 117.0 L 115.0 117.0 L 115.0 119.0 L 114.0 123.0 L 112.0 130.0 L 108.0 140.0 L 103.0 149.0 " stroke="black" fill="none" stroke-width="5.0" stroke-linecap="round" stroke-linejoin="round" />
<path d="M 115.0 134.0 L 115.0 134.0 L 115.0 134.0 L 116.0 134.0 L 116.0 137.0 L 117.0 142.0 L 118.0 148.0 L 118.0 151.0 " stroke="black" fill="none" stroke-width="5.0" stroke-linecap="round" stroke-linejoin="round" />
<path d="M 115.0 138.0 L 117.0 138.0 L 118.0 137.0 L 120.0 137.0 L 125.0 136.0 L 131.0 136.0 L 137.0 136.0 L 141.0 136.0 L 143.0 140.0 L 143.0 145.0 L 143.0 150.0 L 143.0 152.0 " stroke="black" fill="none" stroke-width="5.0" stroke-linecap="round" stroke-linejoin="round" />
<path d="M 115.0 155.0 L 115.0 155.0 L 115.0 156.0 L 121.0 156.0 L 132.0 156.0 L 138.0 155.0 " stroke="black" fill="none" stroke-width="5.0" stroke-linecap="round" stroke-linejoin="round" />
<path d="M 157.0 108.0 L 157.0 108.0 L 157.0 108.0 L 157.0 108.0 L 157.0 108.0 L 158.0 108.0 L 161.0 110.0 L 162.0 111.0 " stroke="black" fill="none" stroke-width="5.0" stroke-linecap="round" stroke-linejoin="round" />
<path d="M 146.0 120.0 L 146.0 120.0 L 146.0 120.0 L 147.0 120.0 L 150.0 120.0 L 158.0 119.0 L 168.0 119.0 L 173.0 119.0 " stroke="black" fill="none" stroke-width="5.0" stroke-linecap="round" stroke-linejoin="round" />
<path d="M 154.0 120.0 L 155.0 120.0 L 155.0 120.0 L 155.0 123.0 L 156.0 126.0 L 156.0 130.0 L 157.0 131.0 " stroke="black" fill="none" stroke-width="5.0" stroke-linecap="round" stroke-linejoin="round" />
<path d="M 165.0 122.0 L 165.0 122.0 L 165.0 125.0 L 165.0 128.0 L 165.0 131.0 L 164.0 133.0 " stroke="black" fill="none" stroke-width="5.0" stroke-linecap="round" stroke-linejoin="round" />
<path d="M 150.0 137.0 L 150.0 137.0 L 150.0 137.0 L 151.0 137.0 L 154.0 137.0 L 162.0 136.0 L 170.0 135.0 L 176.0 135.0 L 176.0 136.0 " stroke="black" fill="none" stroke-width="5.0" stroke-linecap="round" stroke-linejoin="round" />
<path d="M 147.0 147.0 L 147.0 147.0 L 147.0 148.0 L 147.0 148.0 L 151.0 148.0 L 162.0 148.0 L 175.0 148.0 L 182.0 148.0 L 184.0 148.0 " stroke="black" fill="none" stroke-width="5.0" stroke-linecap="round" stroke-linejoin="round" />
<path d="M 160.0 138.0 L 160.0 138.0 L 161.0 138.0 L 162.0 139.0 L 163.0 143.0 L 165.0 151.0 L 167.0 161.0 L 167.0 162.0 " stroke="black" fill="none" stroke-width="5.0" stroke-linecap="round" stroke-linejoin="round" />
<path d="M 127.0 173.0 L 128.0 173.0 L 129.0 174.0 L 131.0 174.0 L 138.0 173.0 L 148.0 171.0 L 158.0 170.0 L 163.0 169.0 L 163.0 169.0 " stroke="black" fill="none" stroke-width="5.0" stroke-linecap="round" stroke-linejoin="round" />
<path d="M 128.0 191.0 L 130.0 190.0 L 134.0 189.0 L 141.0 188.0 L 150.0 187.0 L 158.0 187.0 L 162.0 188.0 L 162.0 189.0 " stroke="black" fill="none" stroke-width="5.0" stroke-linecap="round" stroke-linejoin="round" />
<path d="M 111.0 213.0 L 113.0 214.0 L 116.0 215.0 L 126.0 215.0 L 142.0 213.0 L 161.0 211.0 L 176.0 210.0 L 180.0 211.0 " stroke="black" fill="none" stroke-width="5.0" stroke-linecap="round" stroke-linejoin="round" />
<path d="M 147.0 176.0 L 147.0 175.0 L 146.0 175.0 L 146.0 176.0 L 147.0 184.0 L 150.0 198.0 L 151.0 210.0 " stroke="black" fill="none" stroke-width="5.0" stroke-linecap="round" stroke-linejoin="round" />
<path d="M 175.0 197.0 L 176.0 197.0 L 177.0 199.0 L 180.0 203.0 L 182.0 207.0 " stroke="black" fill="none" stroke-width="5.0" stroke-linecap="round" stroke-linejoin="round" />
</svg>