<svg xmlns="http://www.w3.org/2000/svg" width="300" height="300" viewBox="0 0 300 300">
<path d="M 158.0 108.0 L 158.0 108.0 L 158.0 108.0 L 158.0 108.0 L 158.0 108.0 L 157.0 108.0 L 154.0 112.0 L 148.0 117.0 L 141.0 123.0 L 136.0 126.0 L 134.0 127.0 L 133.0 127.0 L 133.0 130.0 L 133.0 136.0 L 132.0 146.0 L 128.0 161.0 L 124.0 176.0 L 120.0 189.0 L 117.0 196.0 L 116.0 198.0 L 116.0 198.0 " stroke="black" fill="none" stroke-width="5.0" stroke-linecap="round" stroke-linejoin="round" />
<path d="M 150.0 142.0 L 150.0 141.0 L 150.0 141.0 L 150.0 140.0 L 150.0 140.0 L 150.0 142.0 L 149.0 148.0 L 147.0 158.0 L 145.0 171.0 L 145.0 181.0 L 150.0 186.0 L 155.0 186.0 L 161.0 182.0 L 163.0 180.0 " stroke="black" fill="none" stroke-width="5.0" stroke-linecap="round" stroke-linejoin="round" />
<path d="M 169.0 164.0 L 169.0 164.0 L 169.0 167.0 L 170.0 171.0 L 173.0 178.0 L 177.0 187.0 L 181.0 194.0 L 182.0 196.0 " stroke="black" fill="none" stroke-width="5.0" stroke-linecap="round" stroke-linejoin="round" />
<path d="M 174.0 135.0 L 174.0 135.0 L 174.0 135.0 L 174.0 137.0 L 178.0 148.0 L 185.0 168.0 L 192.0 187.0 L 198.0 197.0 L 202.0 200.0 L 203.0 201.0 " stroke="black" fill="none" stroke-width="5.0" stroke-linecap="round" stroke-linejoin="round" />
</svg>