<svg xmlns="http://www.w3.org/2000/svg" width="300" height="300" viewBox="0 0 300 300">
<path d="M 119.0 133.0 L 119.0 133.0 L 119.0 133.0 L 119.0 133.0 L 120.0 134.0 L 124.0 134.0 L 131.0 133.0 L 139.0 132.0 L 143.0 132.0 " stroke="black" fill="none" stroke-width="5.0" stroke-linecap="round" stroke-linejoin="round" />
<path d="M 118.0 154.0 L 119.0 154.0 L 120.0 154.0 L 123.0 154.0 L 128.0 154.0 L 135.0 153.0 L 140.0 153.0 " stroke="black" fill="none" stroke-width="5.0" stroke-linecap="round" stroke-linejoin="round" />
<path d="M 108.0 179.0 L 108.0 179.0 L 111.0 179.0 L 117.0 179.0 L 128.0 178.0 L 139.0 175.0 L 146.0 174.0 L 147.0 174.0 " stroke="black" fill="none" stroke-width="5.0" stroke-linecap="round" stroke-linejoin="round" />
<path d="M 129.0 139.0 L 129.0 138.0 L 129.0 137.0 L 128.0 137.0 L 128.0 139.0 L 129.0 149.0 L 129.0 162.0 L 129.0 170.0 " stroke="black" fill="none" stroke-width="5.0" stroke-linecap="round" stroke-linejoin="round" />
<path d="M 155.0 120.0 L 155.0 120.0 L 155.0 120.0 L 155.0 120.0 L 155.0 121.0 L 155.0 130.0 L 155.0 141.0 L 156.0 149.0 " stroke="black" fill="none" stroke-width="5.0" stroke-linecap="round" stroke-linejoin="round" />
<path d="M 156.0 116.0 L 156.0 116.0 L 156.0 116.0 L 156.0 116.0 L 159.0 116.0 L 165.0 116.0 L 172.0 115.0 L 177.0 116.0 L 180.0 120.0 L 183.0 127.0 L 185.0 135.0 L 185.0 140.0 L 185.0 144.0 " stroke="black" fill="none" stroke-width="5.0" stroke-linecap="round" stroke-linejoin="round" />
<path d="M 159.0 131.0 L 159.0 131.0 L 159.0 131.0 L 159.0 131.0 L 161.0 131.0 L 167.0 131.0 L 175.0 131.0 L 181.0 131.0 L 181.0 132.0 " stroke="black" fill="none" stroke-width="5.0" stroke-linecap="round" stroke-linejoin="round" />
<path d="M 155.0 148.0 L 156.0 149.0 L 159.0 150.0 L 164.0 150.0 L 173.0 149.0 L 179.0 148.0 L 180.0 148.0 " stroke="black" fill="none" stroke-width="5.0" stroke-linecap="round" stroke-linejoin="round" />
<path d="M 168.0 122.0 L 169.0 122.0 L 169.0 125.0 L 169.0 130.0 L 170.0 141.0 L 172.0 159.0 L 173.0 176.0 L 174.0 186.0 L 175.0 190.0 " stroke="black" fill="none" stroke-width="5.0" stroke-linecap="round" stroke-linejoin="round" />
<path d="M 159.0 172.0 L 159.0 172.0 L 160.0 172.0 L 162.0 172.0 L 169.0 171.0 L 179.0 170.0 L 186.0 170.0 L 188.0 170.0 " stroke="black" fill="none" stroke-width="5.0" stroke-linecap="round" stroke-linejoin="round" />
<path d="M 145.0 196.0 L 145.0 196.0 L 147.0 198.0 L 152.0 198.0 L 165.0 197.0 L 180.0 194.0 L 192.0 193.0 L 197.0 193.0 " stroke="black" fill="none" stroke-width="5.0" stroke-linecap="round" stroke-linejoin="round" />
</svg>