<svg xmlns="http://www.w3.org/2000/svg" width="300" height="300" viewBox="0 0 300 300">
<path d="M 131.0 118.0 L 131.0 118.0 L 130.0 118.0 L 130.0 118.0 L 130.0 119.0 L 130.0 123.0 L 131.0 133.0 L 131.0 152.0 L 131.0 173.0 L 131.0 188.0 L 132.0 195.0 L 133.0 196.0 L 133.0 196.0 L 133.0 195.0 L 133.0 195.0 L 134.0 195.0 L 139.0 195.0 L 146.0 196.0 L 155.0 197.0 L 164.0 197.0 L 170.0 197.0 L 172.0 197.0 L 172.0 197.0 " stroke="black" fill="none" stroke-width="5.0" stroke-linecap="round" stroke-linejoin="round" />
<path d="M 165.0 121.0 L 165.0 121.0 L 165.0 121.0 L 165.0 122.0 L 165.0 130.0 L 168.0 151.0 L 170.0 175.0 L 171.0 192.0 L 171.0 197.0 " stroke="black" fill="none" stroke-width="5.0" stroke-linecap="round" stroke-linejoin="round" />
<path d="M 105.0 149.0 L 106.0 149.0 L 107.0 148.0 L 114.0 146.0 L 135.0 143.0 L 159.0 140.0 L 179.0 140.0 L 188.0 142.0 " stroke="black" fill="none" stroke-width="5.0" stroke-linecap="round" stroke-linejoin="round" />
<path d="M 137.0 170.0 L 137.0 170.0 L 138.0 170.0 L 142.0 170.0 L 152.0 169.0 L 162.0 169.0 " stroke="black" fill="none" stroke-width="5.0" stroke-linecap="round" stroke-linejoin="round" />
</svg>