<svg xmlns="http://www.w3.org/2000/svg" width="300" height="300" viewBox="0 0 300 300">
<path d="M 132.0 108.0 L 132.0 108.0 L 132.0 108.0 L 131.0 109.0 L 131.0 111.0 L 131.0 118.0 L 130.0 135.0 L 127.0 158.0 L 122.0 178.0 L 120.0 184.0 " stroke="black" fill="none" stroke-width="5.0" stroke-linecap="round" stroke-linejoin="round" />
<path d="M 137.0 106.0 L 137.0 106.0 L 137.0 106.0 L 137.0 106.0 L 140.0 106.0 L 147.0 105.0 L 154.0 104.0 L 161.0 103.0 L 166.0 103.0 L 170.0 103.0 L 171.0 103.0 L 172.0 105.0 L 174.0 111.0 L 177.0 122.0 L 180.0 138.0 L 183.0 155.0 L 185.0 168.0 L 186.0 176.0 L 186.0 182.0 L 185.0 187.0 L 182.0 187.0 " stroke="black" fill="none" stroke-width="5.0" stroke-linecap="round" stroke-linejoin="round" />
<path d="M 134.0 135.0 L 135.0 135.0 L 137.0 134.0 L 141.0 134.0 L 150.0 134.0 L 161.0 135.0 L 170.0 135.0 " stroke="black" fill="none" stroke-width="5.0" stroke-linecap="round" stroke-linejoin="round" />
<path d="M 135.0 156.0 L 136.0 156.0 L 139.0 157.0 L 146.0 157.0 L 155.0 157.0 L 164.0 156.0 " stroke="black" fill="none" stroke-width="5.0" stroke-linecap="round" stroke-linejoin="round" />
<path d="M 152.0 109.0 L 152.0 109.0 L 151.0 109.0 L 151.0 109.0 L 152.0 117.0 L 154.0 137.0 L 156.0 165.0 L 157.0 186.0 L 158.0 193.0 L 158.0 194.0 " stroke="black" fill="none" stroke-width="5.0" stroke-linecap="round" stroke-linejoin="round" />
</svg>