<svg xmlns="http://www.w3.org/2000/svg" width="300" height="300" viewBox="0 0 300 300">
<path d="M 125.0 123.0 L 125.0 123.0 L 125.0 123.0 L 125.0 123.0 L 125.0 124.0 L 125.0 135.0 L 125.0 157.0 L 125.0 178.0 L 126.0 185.0 " stroke="black" fill="none" stroke-width="5.0" stroke-linecap="round" stroke-linejoin="round" />
<path d="M 130.0 123.0 L 130.0 123.0 L 130.0 123.0 L 131.0 122.0 L 139.0 121.0 L 150.0 119.0 L 161.0 118.0 L 169.0 119.0 L 172.0 122.0 L 176.0 125.0 L 178.0 130.0 L 180.0 139.0 L 180.0 153.0 L 181.0 169.0 L 181.0 180.0 L 182.0 185.0 " stroke="black" fill="none" stroke-width="5.0" stroke-linecap="round" stroke-linejoin="round" />
<path d="M 133.0 153.0 L 133.0 153.0 L 133.0 153.0 L 138.0 153.0 L 152.0 152.0 L 167.0 152.0 L 175.0 152.0 " stroke="black" fill="none" stroke-width="5.0" stroke-linecap="round" stroke-linejoin="round" />
<path d="M 151.0 126.0 L 151.0 126.0 L 150.0 126.0 L 150.0 128.0 L 151.0 139.0 L 153.0 158.0 L 155.0 176.0 " stroke="black" fill="none" stroke-width="5.0" stroke-linecap="round" stroke-linejoin="round" />
<path d="M 128.0 189.0 L 128.0 189.0 L 129.0 190.0 L 134.0 191.0 L 146.0 191.0 L 163.0 189.0 L 176.0 189.0 L 179.0 188.0 " stroke="black" fill="none" stroke-width="5.0" stroke-linecap="round" stroke-linejoin="round" />
</svg>