<svg xmlns="http://www.w3.org/2000/svg" width="300" height="300" viewBox="0 0 300 300">
<path d="M 137.0 103.0 L 137.0 104.0 L 139.0 106.0 L 143.0 109.0 L 147.0 113.0 " stroke="black" fill="none" stroke-width="5.0" stroke-linecap="round" stroke-linejoin="round" />
<path d="M 116.0 122.0 L 118.0 123.0 L 121.0 123.0 L 129.0 123.0 L 142.0 122.0 L 156.0 122.0 L 166.0 121.0 L 171.0 120.0 L 172.0 120.0 " stroke="black" fill="none" stroke-width="5.0" stroke-linecap="round" stroke-linejoin="round" />
<path d="M 118.0 126.0 L 119.0 126.0 L 119.0 125.0 L 119.0 125.0 L 120.0 129.0 L 120.0 142.0 L 118.0 161.0 L 115.0 181.0 L 111.0 194.0 L 110.0 197.0 L 110.0 197.0 " stroke="black" fill="none" stroke-width="5.0" stroke-linecap="round" stroke-linejoin="round" />
<path d="M 106.0 147.0 L 106.0 147.0 L 106.0 147.0 L 105.0 147.0 L 105.0 147.0 L 107.0 148.0 L 109.0 149.0 " stroke="black" fill="none" stroke-width="5.0" stroke-linecap="round" stroke-linejoin="round" />
<path d="M 98.0 166.0 L 100.0 166.0 L 104.0 167.0 L 109.0 167.0 L 115.0 164.0 " stroke="black" fill="none" stroke-width="5.0" stroke-linecap="round" stroke-linejoin="round" />
<path d="M 138.0 138.0 L 138.0 138.0 L 138.0 137.0 L 138.0 137.0 L 139.0 137.0 L 143.0 137.0 L 149.0 137.0 L 154.0 137.0 L 157.0 137.0 L 159.0 137.0 L 160.0 138.0 L 160.0 143.0 L 161.0 149.0 L 161.0 154.0 L 162.0 157.0 L 162.0 158.0 " stroke="black" fill="none" stroke-width="5.0" stroke-linecap="round" stroke-linejoin="round" />
<path d="M 137.0 151.0 L 137.0 151.0 L 137.0 151.0 L 139.0 151.0 L 143.0 151.0 L 149.0 151.0 L 154.0 151.0 L 156.0 151.0 " stroke="black" fill="none" stroke-width="5.0" stroke-linecap="round" stroke-linejoin="round" />
<path d="M 130.0 161.0 L 131.0 161.0 L 133.0 161.0 L 137.0 162.0 L 145.0 162.0 L 153.0 162.0 L 159.0 161.0 " stroke="black" fill="none" stroke-width="5.0" stroke-linecap="round" stroke-linejoin="round" />
<path d="M 130.0 141.0 L 130.0 140.0 L 130.0 140.0 L 130.0 139.0 L 130.0 142.0 L 130.0 152.0 L 128.0 167.0 L 126.0 184.0 L 126.0 194.0 L 131.0 197.0 L 138.0 195.0 L 143.0 190.0 L 144.0 189.0 " stroke="black" fill="none" stroke-width="5.0" stroke-linecap="round" stroke-linejoin="round" />
<path d="M 139.0 169.0 L 139.0 169.0 L 140.0 169.0 L 141.0 171.0 L 144.0 174.0 L 150.0 181.0 L 158.0 189.0 L 166.0 197.0 L 173.0 202.0 L 176.0 204.0 " stroke="black" fill="none" stroke-width="5.0" stroke-linecap="round" stroke-linejoin="round" />
<path d="M 165.0 176.0 L 166.0 176.0 L 166.0 176.0 L 166.0 178.0 L 165.0 181.0 L 162.0 186.0 L 160.0 188.0 " stroke="black" fill="none" stroke-width="5.0" stroke-linecap="round" stroke-linejoin="round" />
</svg>