<svg xmlns="http://www.w3.org/2000/svg" width="300" height="300" viewBox="0 0 300 300">
<path d="M 137.0 113.0 L 137.0 113.0 L 137.0 114.0 L 136.0 117.0 L 136.0 127.0 L 136.0 144.0 L 137.0 162.0 L 138.0 171.0 L 139.0 173.0 " stroke="black" fill="none" stroke-width="5.0" stroke-linecap="round" stroke-linejoin="round" />
<path d="M 160.0 115.0 L 160.0 115.0 L 160.0 117.0 L 160.0 122.0 L 161.0 133.0 L 164.0 148.0 L 166.0 164.0 L 166.0 173.0 L 166.0 175.0 " stroke="black" fill="none" stroke-width="5.0" stroke-linecap="round" stroke-linejoin="round" />
<path d="M 121.0 135.0 L 121.0 135.0 L 122.0 134.0 L 126.0 133.0 L 137.0 132.0 L 152.0 130.0 L 165.0 130.0 L 170.0 131.0 L 170.0 132.0 " stroke="black" fill="none" stroke-width="5.0" stroke-linecap="round" stroke-linejoin="round" />
<path d="M 142.0 147.0 L 142.0 147.0 L 143.0 147.0 L 145.0 147.0 L 150.0 147.0 L 157.0 147.0 L 161.0 147.0 " stroke="black" fill="none" stroke-width="5.0" stroke-linecap="round" stroke-linejoin="round" />
<path d="M 139.0 157.0 L 140.0 157.0 L 142.0 158.0 L 147.0 158.0 L 155.0 158.0 L 164.0 158.0 L 168.0 159.0 L 168.0 160.0 " stroke="black" fill="none" stroke-width="5.0" stroke-linecap="round" stroke-linejoin="round" />
<path d="M 112.0 178.0 L 113.0 179.0 L 116.0 180.0 L 127.0 180.0 L 147.0 180.0 L 166.0 177.0 L 181.0 176.0 L 186.0 175.0 " stroke="black" fill="none" stroke-width="5.0" stroke-linecap="round" stroke-linejoin="round" />
<path d="M 149.0 183.0 L 149.0 183.0 L 149.0 183.0 L 149.0 183.0 L 149.0 183.0 L 149.0 183.0 L 149.0 187.0 L 149.0 195.0 L 147.0 202.0 " stroke="black" fill="none" stroke-width="5.0" stroke-linecap="round" stroke-linejoin="round" />
<path d="M 162.0 183.0 L 163.0 183.0 L 164.0 182.0 L 165.0 182.0 L 165.0 183.0 L 165.0 187.0 L 165.0 194.0 L 167.0 201.0 L 173.0 206.0 L 181.0 206.0 " stroke="black" fill="none" stroke-width="5.0" stroke-linecap="round" stroke-linejoin="round" />
<path d="M 124.0 181.0 L 125.0 180.0 L 126.0 179.0 L 126.0 180.0 L 127.0 190.0 L 127.0 206.0 L 127.0 222.0 L 131.0 231.0 L 142.0 235.0 L 159.0 235.0 L 179.0 233.0 " stroke="black" fill="none" stroke-width="5.0" stroke-linecap="round" stroke-linejoin="round" />
</svg>