<svg xmlns="http://www.w3.org/2000/svg" width="300" height="300" viewBox="0 0 300 300">
<path d="M 129.0 109.0 L 129.0 109.0 L 129.0 109.0 L 129.0 109.0 L 128.0 109.0 L 128.0 113.0 L 129.0 120.0 L 131.0 129.0 L 131.0 133.0 " stroke="black" fill="none" stroke-width="5.0" stroke-linecap="round" stroke-linejoin="round" />
<path d="M 132.0 110.0 L 132.0 110.0 L 132.0 110.0 L 132.0 110.0 L 135.0 109.0 L 142.0 109.0 L 151.0 109.0 L 160.0 109.0 L 166.0 109.0 L 171.0 112.0 L 174.0 118.0 L 175.0 127.0 L 175.0 137.0 L 176.0 142.0 " stroke="black" fill="none" stroke-width="5.0" stroke-linecap="round" stroke-linejoin="round" />
<path d="M 139.0 123.0 L 139.0 123.0 L 139.0 123.0 L 141.0 123.0 L 149.0 123.0 L 158.0 123.0 L 165.0 123.0 L 167.0 123.0 " stroke="black" fill="none" stroke-width="5.0" stroke-linecap="round" stroke-linejoin="round" />
<path d="M 151.0 112.0 L 151.0 113.0 L 151.0 114.0 L 151.0 118.0 L 152.0 127.0 L 154.0 133.0 " stroke="black" fill="none" stroke-width="5.0" stroke-linecap="round" stroke-linejoin="round" />
<path d="M 131.0 142.0 L 131.0 142.0 L 132.0 143.0 L 138.0 143.0 L 151.0 143.0 L 166.0 143.0 L 172.0 144.0 " stroke="black" fill="none" stroke-width="5.0" stroke-linecap="round" stroke-linejoin="round" />
<path d="M 108.0 164.0 L 108.0 164.0 L 108.0 164.0 L 109.0 164.0 L 118.0 163.0 L 140.0 161.0 L 162.0 159.0 L 177.0 156.0 L 183.0 155.0 " stroke="black" fill="none" stroke-width="5.0" stroke-linecap="round" stroke-linejoin="round" />
<path d="M 131.0 167.0 L 131.0 167.0 L 131.0 167.0 L 130.0 169.0 L 129.0 175.0 L 129.0 186.0 L 133.0 195.0 L 141.0 198.0 L 150.0 193.0 " stroke="black" fill="none" stroke-width="5.0" stroke-linecap="round" stroke-linejoin="round" />
<path d="M 184.0 164.0 L 184.0 164.0 L 183.0 164.0 L 182.0 167.0 L 178.0 172.0 L 174.0 180.0 L 173.0 181.0 " stroke="black" fill="none" stroke-width="5.0" stroke-linecap="round" stroke-linejoin="round" />
<path d="M 155.0 164.0 L 155.0 164.0 L 155.0 164.0 L 157.0 167.0 L 167.0 178.0 L 182.0 194.0 L 191.0 207.0 L 193.0 214.0 " stroke="black" fill="none" stroke-width="5.0" stroke-linecap="round" stroke-linejoin="round" />
</svg>