<svg xmlns="http://www.w3.org/2000/svg" width="300" height="300" viewBox="0 0 300 300">
<path d="M 134.0 108.0 L 134.0 108.0 L 135.0 108.0 L 136.0 108.0 L 139.0 108.0 L 145.0 107.0 L 153.0 105.0 L 159.0 103.0 L 163.0 103.0 L 165.0 104.0 L 166.0 108.0 L 167.0 115.0 L 169.0 122.0 L 170.0 125.0 " stroke="black" fill="none" stroke-width="5.0" stroke-linecap="round" stroke-linejoin="round" />
<path d="M 123.0 123.0 L 124.0 123.0 L 125.0 123.0 L 128.0 122.0 L 134.0 121.0 L 148.0 118.0 L 167.0 115.0 L 185.0 114.0 L 190.0 113.0 " stroke="black" fill="none" stroke-width="5.0" stroke-linecap="round" stroke-linejoin="round" />
<path d="M 142.0 134.0 L 143.0 134.0 L 145.0 134.0 L 149.0 134.0 L 157.0 132.0 L 167.0 130.0 L 172.0 130.0 " stroke="black" fill="none" stroke-width="5.0" stroke-linecap="round" stroke-linejoin="round" />
<path d="M 142.0 150.0 L 142.0 150.0 L 144.0 150.0 L 147.0 150.0 L 151.0 149.0 L 157.0 148.0 L 161.0 148.0 " stroke="black" fill="none" stroke-width="5.0" stroke-linecap="round" stroke-linejoin="round" />
<path d="M 127.0 164.0 L 131.0 164.0 L 137.0 164.0 L 147.0 163.0 L 162.0 162.0 L 176.0 161.0 L 179.0 161.0 " stroke="black" fill="none" stroke-width="5.0" stroke-linecap="round" stroke-linejoin="round" />
<path d="M 149.0 102.0 L 149.0 102.0 L 149.0 102.0 L 150.0 102.0 L 150.0 109.0 L 153.0 130.0 L 156.0 150.0 L 157.0 158.0 " stroke="black" fill="none" stroke-width="5.0" stroke-linecap="round" stroke-linejoin="round" />
<path d="M 129.0 177.0 L 129.0 177.0 L 130.0 177.0 L 130.0 178.0 L 130.0 181.0 L 130.0 184.0 " stroke="black" fill="none" stroke-width="5.0" stroke-linecap="round" stroke-linejoin="round" />
<path d="M 147.0 172.0 L 147.0 173.0 L 147.0 175.0 L 147.0 177.0 L 148.0 180.0 L 148.0 181.0 " stroke="black" fill="none" stroke-width="5.0" stroke-linecap="round" stroke-linejoin="round" />
<path d="M 158.0 172.0 L 159.0 174.0 L 161.0 176.0 L 162.0 180.0 L 164.0 183.0 " stroke="black" fill="none" stroke-width="5.0" stroke-linecap="round" stroke-linejoin="round" />
<path d="M 188.0 170.0 L 188.0 171.0 L 189.0 176.0 L 189.0 181.0 L 190.0 182.0 " stroke="black" fill="none" stroke-width="5.0" stroke-linecap="round" stroke-linejoin="round" />
<path d="M 139.0 200.0 L 139.0 200.0 L 139.0 200.0 L 138.0 202.0 L 138.0 205.0 L 139.0 208.0 L 141.0 210.0 " stroke="black" fill="none" stroke-width="5.0" stroke-linecap="round" stroke-linejoin="round" />
<path d="M 138.0 200.0 L 138.0 200.0 L 138.0 200.0 L 140.0 200.0 L 145.0 198.0 L 156.0 196.0 L 169.0 194.0 L 178.0 194.0 L 182.0 197.0 L 183.0 202.0 L 182.0 206.0 L 180.0 209.0 " stroke="black" fill="none" stroke-width="5.0" stroke-linecap="round" stroke-linejoin="round" />
<path d="M 152.0 200.0 L 153.0 202.0 L 154.0 204.0 L 155.0 206.0 " stroke="black" fill="none" stroke-width="5.0" stroke-linecap="round" stroke-linejoin="round" />
<path d="M 174.0 196.0 L 174.0 197.0 L 173.0 202.0 L 171.0 206.0 L 169.0 211.0 L 168.0 211.0 " stroke="black" fill="none" stroke-width="5.0" stroke-linecap="round" stroke-linejoin="round" />
<path d="M 129.0 219.0 L 131.0 219.0 L 136.0 219.0 L 146.0 218.0 L 165.0 216.0 L 186.0 214.0 L 197.0 213.0 L 202.0 212.0 L 202.0 212.0 " stroke="black" fill="none" stroke-width="5.0" stroke-linecap="round" stroke-linejoin="round" />
</svg>