<svg xmlns="http://www.w3.org/2000/svg" width="300" height="300" viewBox="0 0 300 300">
<path d="M 118.0 109.0 L 118.0 108.0 L 118.0 108.0 L 119.0 107.0 L 119.0 107.0 L 119.0 108.0 L 119.0 113.0 L 117.0 121.0 L 115.0 132.0 L 114.0 143.0 L 114.0 149.0 L 119.0 150.0 L 127.0 146.0 L 134.0 141.0 " stroke="black" fill="none" stroke-width="5.0" stroke-linecap="round" stroke-linejoin="round" />
<path d="M 117.0 131.0 L 117.0 131.0 L 117.0 131.0 L 117.0 131.0 L 118.0 131.0 L 125.0 130.0 L 134.0 129.0 " stroke="black" fill="none" stroke-width="5.0" stroke-linecap="round" stroke-linejoin="round" />
<path d="M 149.0 106.0 L 149.0 106.0 L 148.0 106.0 L 148.0 106.0 L 147.0 108.0 L 147.0 116.0 L 147.0 129.0 L 147.0 140.0 L 149.0 148.0 L 153.0 152.0 L 158.0 152.0 L 165.0 151.0 L 171.0 147.0 L 174.0 144.0 L 175.0 141.0 " stroke="black" fill="none" stroke-width="5.0" stroke-linecap="round" stroke-linejoin="round" />
<path d="M 147.0 127.0 L 147.0 127.0 L 149.0 127.0 L 154.0 127.0 L 160.0 128.0 " stroke="black" fill="none" stroke-width="5.0" stroke-linecap="round" stroke-linejoin="round" />
<path d="M 133.0 160.0 L 133.0 160.0 L 134.0 160.0 L 134.0 160.0 L 134.0 160.0 L 134.0 161.0 L 132.0 163.0 L 128.0 167.0 L 122.0 171.0 L 119.0 173.0 L 118.0 174.0 L 119.0 177.0 L 121.0 183.0 L 122.0 191.0 L 122.0 200.0 L 123.0 204.0 L 123.0 204.0 " stroke="black" fill="none" stroke-width="5.0" stroke-linecap="round" stroke-linejoin="round" />
<path d="M 122.0 175.0 L 122.0 175.0 L 122.0 175.0 L 124.0 175.0 L 130.0 174.0 L 141.0 173.0 L 150.0 172.0 L 158.0 172.0 L 161.0 172.0 L 163.0 173.0 L 163.0 180.0 L 163.0 191.0 L 165.0 199.0 L 166.0 204.0 " stroke="black" fill="none" stroke-width="5.0" stroke-linecap="round" stroke-linejoin="round" />
<path d="M 127.0 190.0 L 127.0 190.0 L 127.0 190.0 L 127.0 190.0 L 132.0 190.0 L 141.0 190.0 L 152.0 190.0 L 160.0 189.0 L 161.0 189.0 " stroke="black" fill="none" stroke-width="5.0" stroke-linecap="round" stroke-linejoin="round" />
<path d="M 122.0 208.0 L 124.0 209.0 L 128.0 210.0 L 141.0 211.0 L 154.0 209.0 L 160.0 208.0 " stroke="black" fill="none" stroke-width="5.0" stroke-linecap="round" stroke-linejoin="round" />
</svg>