<svg xmlns="http://www.w3.org/2000/svg" width="300" height="300" viewBox="0 0 300 300">
<path d="M 111.0 105.0 L 112.0 105.0 L 112.0 105.0 L 112.0 104.0 L 113.0 104.0 L 115.0 104.0 L 120.0 104.0 L 128.0 103.0 L 135.0 103.0 L 138.0 102.0 " stroke="black" fill="none" stroke-width="5.0" stroke-linecap="round" stroke-linejoin="round" />
<path d="M 124.0 107.0 L 124.0 108.0 L 124.0 109.0 L 124.0 111.0 L 124.0 113.0 L 124.0 116.0 L 124.0 116.0 " stroke="black" fill="none" stroke-width="5.0" stroke-linecap="round" stroke-linejoin="round" />
<path d="M 111.0 121.0 L 111.0 121.0 L 111.0 121.0 L 111.0 121.0 L 113.0 121.0 L 119.0 120.0 L 128.0 119.0 L 135.0 118.0 L 139.0 118.0 L 141.0 118.0 L 141.0 118.0 L 141.0 121.0 L 140.0 125.0 L 140.0 128.0 L 140.0 131.0 L 140.0 132.0 " stroke="black" fill="none" stroke-width="5.0" stroke-linecap="round" stroke-linejoin="round" />
<path d="M 111.0 135.0 L 111.0 135.0 L 111.0 135.0 L 113.0 135.0 L 116.0 135.0 L 123.0 133.0 L 131.0 132.0 L 135.0 132.0 " stroke="black" fill="none" stroke-width="5.0" stroke-linecap="round" stroke-linejoin="round" />
<path d="M 123.0 137.0 L 123.0 137.0 L 123.0 138.0 L 123.0 139.0 L 124.0 142.0 L 124.0 143.0 " stroke="black" fill="none" stroke-width="5.0" stroke-linecap="round" stroke-linejoin="round" />
<path d="M 112.0 149.0 L 112.0 149.0 L 112.0 149.0 L 114.0 149.0 L 122.0 149.0 L 133.0 148.0 L 136.0 148.0 " stroke="black" fill="none" stroke-width="5.0" stroke-linecap="round" stroke-linejoin="round" />
<path d="M 108.0 107.0 L 108.0 107.0 L 107.0 108.0 L 106.0 112.0 L 106.0 123.0 L 105.0 139.0 L 104.0 150.0 L 104.0 151.0 " stroke="black" fill="none" stroke-width="5.0" stroke-linecap="round" stroke-linejoin="round" />
<path d="M 155.0 110.0 L 155.0 110.0 L 155.0 110.0 L 155.0 111.0 L 155.0 114.0 L 155.0 119.0 L 153.0 126.0 L 150.0 135.0 L 148.0 139.0 " stroke="black" fill="none" stroke-width="5.0" stroke-linecap="round" stroke-linejoin="round" />
<path d="M 156.0 122.0 L 156.0 122.0 L 157.0 122.0 L 158.0 122.0 L 162.0 122.0 L 169.0 122.0 L 176.0 122.0 L 180.0 122.0 L 181.0 122.0 " stroke="black" fill="none" stroke-width="5.0" stroke-linecap="round" stroke-linejoin="round" />
<path d="M 157.0 142.0 L 158.0 142.0 L 160.0 142.0 L 162.0 142.0 L 167.0 142.0 L 174.0 142.0 L 180.0 142.0 L 181.0 142.0 " stroke="black" fill="none" stroke-width="5.0" stroke-linecap="round" stroke-linejoin="round" />
<path d="M 116.0 173.0 L 116.0 173.0 L 116.0 173.0 L 116.0 173.0 L 116.0 175.0 L 116.0 179.0 L 116.0 184.0 L 117.0 186.0 " stroke="black" fill="none" stroke-width="5.0" stroke-linecap="round" stroke-linejoin="round" />
<path d="M 115.0 171.0 L 115.0 171.0 L 115.0 171.0 L 117.0 171.0 L 122.0 171.0 L 133.0 171.0 L 147.0 170.0 L 158.0 169.0 L 165.0 170.0 L 171.0 172.0 L 174.0 175.0 L 175.0 178.0 L 176.0 183.0 L 176.0 189.0 L 174.0 195.0 L 173.0 197.0 " stroke="black" fill="none" stroke-width="5.0" stroke-linecap="round" stroke-linejoin="round" />
<path d="M 134.0 174.0 L 134.0 174.0 L 134.0 174.0 L 134.0 176.0 L 134.0 180.0 L 135.0 182.0 " stroke="black" fill="none" stroke-width="5.0" stroke-linecap="round" stroke-linejoin="round" />
<path d="M 155.0 172.0 L 155.0 173.0 L 155.0 176.0 L 154.0 180.0 L 154.0 186.0 L 153.0 190.0 " stroke="black" fill="none" stroke-width="5.0" stroke-linecap="round" stroke-linejoin="round" />
<path d="M 99.0 198.0 L 99.0 198.0 L 99.0 198.0 L 100.0 198.0 L 111.0 198.0 L 138.0 198.0 L 168.0 197.0 L 189.0 196.0 L 197.0 196.0 L 198.0 197.0 L 198.0 198.0 L 197.0 198.0 " stroke="black" fill="none" stroke-width="5.0" stroke-linecap="round" stroke-linejoin="round" />
</svg>