<svg xmlns="http://www.w3.org/2000/svg" width="300" height="300" viewBox="0 0 300 300">
<path d="M 144.0 102.0 L 144.0 102.0 L 144.0 102.0 L 143.0 102.0 L 143.0 102.0 L 142.0 104.0 L 140.0 108.0 L 137.0 111.0 L 134.0 113.0 L 132.0 114.0 L 131.0 115.0 L 131.0 116.0 L 131.0 120.0 L 132.0 126.0 L 133.0 135.0 L 134.0 142.0 L 134.0 143.0 " stroke="black" fill="none" stroke-width="5.0" stroke-linecap="round" stroke-linejoin="round" />
<path d="M 137.0 117.0 L 137.0 117.0 L 136.0 117.0 L 136.0 117.0 L 137.0 118.0 L 142.0 118.0 L 147.0 117.0 L 153.0 117.0 L 158.0 117.0 L 161.0 117.0 L 163.0 120.0 L 164.0 125.0 L 164.0 133.0 L 164.0 141.0 L 164.0 146.0 " stroke="black" fill="none" stroke-width="5.0" stroke-linecap="round" stroke-linejoin="round" />
<path d="M 139.0 131.0 L 138.0 131.0 L 138.0 132.0 L 138.0 132.0 L 143.0 132.0 L 150.0 131.0 L 157.0 130.0 L 162.0 130.0 L 162.0 131.0 " stroke="black" fill="none" stroke-width="5.0" stroke-linecap="round" stroke-linejoin="round" />
<path d="M 137.0 145.0 L 137.0 145.0 L 138.0 146.0 L 142.0 147.0 L 148.0 147.0 L 156.0 145.0 L 161.0 144.0 " stroke="black" fill="none" stroke-width="5.0" stroke-linecap="round" stroke-linejoin="round" />
<path d="M 112.0 164.0 L 112.0 165.0 L 112.0 166.0 L 114.0 167.0 L 122.0 167.0 L 140.0 165.0 L 163.0 162.0 L 184.0 159.0 L 191.0 158.0 " stroke="black" fill="none" stroke-width="5.0" stroke-linecap="round" stroke-linejoin="round" />
<path d="M 150.0 150.0 L 150.0 150.0 L 150.0 150.0 L 150.0 150.0 L 150.0 151.0 L 147.0 157.0 L 138.0 170.0 L 124.0 188.0 L 119.0 193.0 " stroke="black" fill="none" stroke-width="5.0" stroke-linecap="round" stroke-linejoin="round" />
<path d="M 168.0 166.0 L 168.0 166.0 L 169.0 168.0 L 170.0 169.0 L 173.0 171.0 L 179.0 176.0 L 186.0 182.0 L 189.0 185.0 " stroke="black" fill="none" stroke-width="5.0" stroke-linecap="round" stroke-linejoin="round" />
<path d="M 141.0 189.0 L 141.0 189.0 L 141.0 189.0 L 141.0 189.0 L 141.0 189.0 L 145.0 190.0 L 155.0 190.0 L 166.0 189.0 " stroke="black" fill="none" stroke-width="5.0" stroke-linecap="round" stroke-linejoin="round" />
<path d="M 155.0 174.0 L 155.0 174.0 L 155.0 175.0 L 155.0 178.0 L 155.0 187.0 L 155.0 202.0 L 155.0 209.0 " stroke="black" fill="none" stroke-width="5.0" stroke-linecap="round" stroke-linejoin="round" />
</svg>