<svg xmlns="http://www.w3.org/2000/svg" width="300" height="300" viewBox="0 0 300 300">
<path d="M 130.0 108.0 L 130.0 108.0 L 129.0 107.0 L 129.0 107.0 L 129.0 107.0 L 129.0 107.0 L 132.0 108.0 L 136.0 110.0 L 139.0 111.0 L 142.0 112.0 L 143.0 113.0 L 143.0 115.0 L 141.0 118.0 L 137.0 123.0 L 130.0 131.0 L 120.0 142.0 L 112.0 150.0 L 109.0 153.0 " stroke="black" fill="none" stroke-width="5.0" stroke-linecap="round" stroke-linejoin="round" />
<path d="M 116.0 124.0 L 116.0 124.0 L 116.0 124.0 L 118.0 125.0 L 127.0 128.0 " stroke="black" fill="none" stroke-width="5.0" stroke-linecap="round" stroke-linejoin="round" />
<path d="M 158.0 115.0 L 158.0 115.0 L 158.0 115.0 L 158.0 115.0 L 158.0 115.0 L 161.0 116.0 L 169.0 121.0 L 179.0 128.0 L 187.0 133.0 L 190.0 135.0 " stroke="black" fill="none" stroke-width="5.0" stroke-linecap="round" stroke-linejoin="round" />
<path d="M 165.0 119.0 L 165.0 119.0 L 165.0 119.0 L 165.0 118.0 L 165.0 118.0 L 167.0 116.0 L 171.0 113.0 L 172.0 112.0 " stroke="black" fill="none" stroke-width="5.0" stroke-linecap="round" stroke-linejoin="round" />
<path d="M 172.0 126.0 L 172.0 126.0 L 172.0 126.0 L 172.0 126.0 L 174.0 125.0 L 178.0 122.0 L 183.0 119.0 L 184.0 118.0 " stroke="black" fill="none" stroke-width="5.0" stroke-linecap="round" stroke-linejoin="round" />
<path d="M 139.0 142.0 L 139.0 142.0 L 138.0 141.0 L 138.0 141.0 L 138.0 140.0 L 138.0 140.0 L 140.0 140.0 L 142.0 140.0 L 145.0 141.0 L 147.0 143.0 L 148.0 146.0 L 148.0 150.0 L 148.0 153.0 L 148.0 155.0 L 147.0 156.0 L 145.0 157.0 L 141.0 157.0 L 137.0 157.0 L 134.0 157.0 L 131.0 158.0 L 128.0 160.0 L 127.0 165.0 L 127.0 169.0 L 129.0 173.0 L 133.0 175.0 L 138.0 177.0 L 143.0 180.0 L 145.0 184.0 L 146.0 187.0 L 144.0 190.0 L 131.0 192.0 L 121.0 191.0 L 115.0 190.0 " stroke="black" fill="none" stroke-width="5.0" stroke-linecap="round" stroke-linejoin="round" />
<path d="M 157.0 141.0 L 157.0 141.0 L 157.0 141.0 L 157.0 144.0 L 156.0 149.0 L 156.0 154.0 L 156.0 155.0 " stroke="black" fill="none" stroke-width="5.0" stroke-linecap="round" stroke-linejoin="round" />
<path d="M 158.0 142.0 L 158.0 142.0 L 158.0 141.0 L 159.0 141.0 L 161.0 141.0 L 163.0 141.0 L 164.0 142.0 L 164.0 146.0 L 165.0 150.0 L 167.0 153.0 L 170.0 154.0 L 173.0 155.0 L 175.0 155.0 L 176.0 156.0 " stroke="black" fill="none" stroke-width="5.0" stroke-linecap="round" stroke-linejoin="round" />
<path d="M 154.0 168.0 L 154.0 168.0 L 155.0 168.0 L 157.0 168.0 L 161.0 168.0 L 166.0 168.0 L 170.0 168.0 L 172.0 168.0 L 173.0 170.0 L 172.0 174.0 L 169.0 180.0 L 164.0 188.0 L 159.0 194.0 L 157.0 196.0 " stroke="black" fill="none" stroke-width="5.0" stroke-linecap="round" stroke-linejoin="round" />
<path d="M 153.0 174.0 L 153.0 174.0 L 153.0 174.0 L 157.0 178.0 L 166.0 185.0 L 177.0 194.0 L 183.0 201.0 L 186.0 204.0 L 186.0 205.0 " stroke="black" fill="none" stroke-width="5.0" stroke-linecap="round" stroke-linejoin="round" />
</svg>