<svg xmlns="http://www.w3.org/2000/svg" width="300" height="300" viewBox="0 0 300 300">
<path d="M 131.0 122.0 L 132.0 122.0 L 132.0 122.0 L 134.0 122.0 L 139.0 121.0 L 148.0 121.0 L 157.0 121.0 L 164.0 121.0 L 165.0 121.0 " stroke="black" fill="none" stroke-width="5.0" stroke-linecap="round" stroke-linejoin="round" />
<path d="M 151.0 105.0 L 151.0 105.0 L 151.0 105.0 L 151.0 105.0 L 151.0 106.0 L 151.0 112.0 L 148.0 122.0 L 143.0 136.0 L 142.0 139.0 " stroke="black" fill="none" stroke-width="5.0" stroke-linecap="round" stroke-linejoin="round" />
<path d="M 132.0 143.0 L 132.0 143.0 L 131.0 143.0 L 130.0 143.0 L 130.0 146.0 L 130.0 156.0 L 131.0 173.0 L 132.0 188.0 L 134.0 196.0 L 135.0 197.0 " stroke="black" fill="none" stroke-width="5.0" stroke-linecap="round" stroke-linejoin="round" />
<path d="M 136.0 140.0 L 136.0 140.0 L 136.0 140.0 L 136.0 140.0 L 137.0 140.0 L 142.0 140.0 L 148.0 140.0 L 155.0 139.0 L 160.0 139.0 L 163.0 141.0 L 165.0 146.0 L 168.0 156.0 L 172.0 168.0 L 175.0 180.0 L 176.0 189.0 L 176.0 194.0 L 176.0 195.0 " stroke="black" fill="none" stroke-width="5.0" stroke-linecap="round" stroke-linejoin="round" />
<path d="M 137.0 159.0 L 137.0 159.0 L 137.0 159.0 L 140.0 159.0 L 147.0 159.0 L 155.0 159.0 L 161.0 159.0 L 163.0 159.0 L 164.0 159.0 " stroke="black" fill="none" stroke-width="5.0" stroke-linecap="round" stroke-linejoin="round" />
<path d="M 139.0 172.0 L 140.0 173.0 L 143.0 173.0 L 147.0 173.0 L 154.0 173.0 L 159.0 173.0 L 162.0 173.0 " stroke="black" fill="none" stroke-width="5.0" stroke-linecap="round" stroke-linejoin="round" />
<path d="M 141.0 182.0 L 141.0 182.0 L 142.0 183.0 L 146.0 183.0 L 153.0 183.0 L 161.0 183.0 L 165.0 184.0 L 165.0 184.0 " stroke="black" fill="none" stroke-width="5.0" stroke-linecap="round" stroke-linejoin="round" />
<path d="M 116.0 199.0 L 117.0 199.0 L 121.0 199.0 L 130.0 199.0 L 145.0 199.0 L 161.0 197.0 L 177.0 196.0 L 187.0 196.0 L 191.0 196.0 L 192.0 196.0 L 192.0 196.0 L 191.0 196.0 " stroke="black" fill="none" stroke-width="5.0" stroke-linecap="round" stroke-linejoin="round" />
</svg>