<svg xmlns="http://www.w3.org/2000/svg" width="300" height="300" viewBox="0 0 300 300">
<path d="M 121.0 123.0 L 121.0 124.0 L 122.0 125.0 L 122.0 126.0 L 122.0 129.0 L 119.0 136.0 L 114.0 145.0 L 109.0 154.0 L 108.0 155.0 " stroke="black" fill="none" stroke-width="5.0" stroke-linecap="round" stroke-linejoin="round" />
<path d="M 118.0 139.0 L 118.0 139.0 L 118.0 139.0 L 118.0 139.0 L 119.0 139.0 L 123.0 139.0 L 128.0 139.0 L 134.0 138.0 L 138.0 138.0 " stroke="black" fill="none" stroke-width="5.0" stroke-linecap="round" stroke-linejoin="round" />
<path d="M 106.0 167.0 L 108.0 168.0 L 110.0 168.0 L 115.0 168.0 L 125.0 165.0 L 135.0 163.0 L 141.0 162.0 " stroke="black" fill="none" stroke-width="5.0" stroke-linecap="round" stroke-linejoin="round" />
<path d="M 127.0 143.0 L 127.0 145.0 L 125.0 152.0 L 124.0 164.0 L 121.0 179.0 L 119.0 192.0 L 118.0 196.0 " stroke="black" fill="none" stroke-width="5.0" stroke-linecap="round" stroke-linejoin="round" />
<path d="M 125.0 170.0 L 126.0 170.0 L 126.0 171.0 L 129.0 174.0 L 134.0 181.0 L 139.0 190.0 L 140.0 193.0 " stroke="black" fill="none" stroke-width="5.0" stroke-linecap="round" stroke-linejoin="round" />
<path d="M 152.0 130.0 L 152.0 130.0 L 152.0 131.0 L 153.0 131.0 L 156.0 131.0 L 162.0 131.0 L 172.0 130.0 L 179.0 129.0 L 181.0 128.0 " stroke="black" fill="none" stroke-width="5.0" stroke-linecap="round" stroke-linejoin="round" />
<path d="M 152.0 136.0 L 152.0 136.0 L 152.0 136.0 L 151.0 136.0 L 151.0 138.0 L 151.0 144.0 L 151.0 155.0 L 150.0 169.0 L 150.0 182.0 L 150.0 189.0 L 152.0 191.0 L 157.0 193.0 L 164.0 194.0 L 172.0 195.0 L 179.0 195.0 " stroke="black" fill="none" stroke-width="5.0" stroke-linecap="round" stroke-linejoin="round" />
<circle cx="154.0" cy="149.0" r="2.5" fill="black" />
<path d="M 155.0 151.0 L 155.0 151.0 L 155.0 151.0 L 155.0 152.0 L 156.0 152.0 L 159.0 152.0 L 163.0 152.0 L 169.0 150.0 L 175.0 150.0 L 178.0 150.0 L 179.0 150.0 L 179.0 154.0 L 179.0 156.0 L 179.0 159.0 L 180.0 164.0 L 180.0 167.0 L 180.0 168.0 " stroke="black" fill="none" stroke-width="5.0" stroke-linecap="round" stroke-linejoin="round" />
<path d="M 152.0 168.0 L 152.0 168.0 L 152.0 168.0 L 153.0 169.0 L 156.0 169.0 L 163.0 169.0 L 173.0 169.0 L 179.0 168.0 " stroke="black" fill="none" stroke-width="5.0" stroke-linecap="round" stroke-linejoin="round" />
</svg>