<svg xmlns="http://www.w3.org/2000/svg" width="300" height="300" viewBox="0 0 300 300">
<path d="M 116.0 105.0 L 116.0 105.0 L 116.0 106.0 L 116.0 107.0 L 116.0 112.0 L 117.0 116.0 L 117.0 118.0 " stroke="black" fill="none" stroke-width="5.0" stroke-linecap="round" stroke-linejoin="round" />
<path d="M 117.0 102.0 L 118.0 102.0 L 118.0 102.0 L 120.0 102.0 L 125.0 102.0 L 133.0 101.0 L 145.0 101.0 L 156.0 101.0 L 164.0 101.0 L 170.0 102.0 L 174.0 103.0 L 176.0 105.0 L 177.0 108.0 L 177.0 113.0 L 175.0 119.0 L 173.0 123.0 " stroke="black" fill="none" stroke-width="5.0" stroke-linecap="round" stroke-linejoin="round" />
<path d="M 122.0 122.0 L 122.0 122.0 L 123.0 122.0 L 125.0 122.0 L 134.0 122.0 L 147.0 123.0 L 161.0 124.0 L 170.0 125.0 L 172.0 125.0 " stroke="black" fill="none" stroke-width="5.0" stroke-linecap="round" stroke-linejoin="round" />
<path d="M 138.0 104.0 L 138.0 104.0 L 138.0 105.0 L 138.0 107.0 L 138.0 113.0 L 139.0 119.0 L 140.0 121.0 " stroke="black" fill="none" stroke-width="5.0" stroke-linecap="round" stroke-linejoin="round" />
<path d="M 157.0 102.0 L 157.0 103.0 L 157.0 105.0 L 157.0 108.0 L 157.0 114.0 L 157.0 119.0 " stroke="black" fill="none" stroke-width="5.0" stroke-linecap="round" stroke-linejoin="round" />
<path d="M 150.0 129.0 L 150.0 129.0 L 150.0 129.0 L 150.0 129.0 L 150.0 129.0 L 149.0 130.0 L 146.0 133.0 L 139.0 139.0 L 132.0 145.0 " stroke="black" fill="none" stroke-width="5.0" stroke-linecap="round" stroke-linejoin="round" />
<path d="M 146.0 137.0 L 146.0 137.0 L 146.0 137.0 L 146.0 138.0 L 147.0 144.0 L 149.0 158.0 L 151.0 174.0 L 152.0 184.0 L 152.0 188.0 L 152.0 188.0 L 152.0 187.0 " stroke="black" fill="none" stroke-width="5.0" stroke-linecap="round" stroke-linejoin="round" />
<path d="M 132.0 150.0 L 132.0 150.0 L 132.0 150.0 L 133.0 150.0 L 133.0 151.0 L 131.0 154.0 L 127.0 160.0 L 121.0 167.0 L 118.0 170.0 " stroke="black" fill="none" stroke-width="5.0" stroke-linecap="round" stroke-linejoin="round" />
<path d="M 128.0 162.0 L 128.0 162.0 L 128.0 162.0 L 128.0 162.0 L 130.0 163.0 L 134.0 165.0 L 140.0 169.0 L 141.0 169.0 " stroke="black" fill="none" stroke-width="5.0" stroke-linecap="round" stroke-linejoin="round" />
<path d="M 174.0 146.0 L 174.0 146.0 L 174.0 146.0 L 174.0 146.0 L 174.0 147.0 L 171.0 152.0 L 165.0 160.0 L 158.0 169.0 " stroke="black" fill="none" stroke-width="5.0" stroke-linecap="round" stroke-linejoin="round" />
<path d="M 166.0 159.0 L 167.0 159.0 L 168.0 159.0 L 170.0 160.0 L 174.0 164.0 L 181.0 170.0 L 187.0 176.0 L 191.0 178.0 " stroke="black" fill="none" stroke-width="5.0" stroke-linecap="round" stroke-linejoin="round" />
</svg>