<svg xmlns="http://www.w3.org/2000/svg" width="300" height="300" viewBox="0 0 300 300">
<path d="M 118.0 128.0 L 118.0 128.0 L 118.0 130.0 L 116.0 135.0 L 113.0 146.0 L 107.0 158.0 " stroke="black" fill="none" stroke-width="5.0" stroke-linecap="round" stroke-linejoin="round" />
<path d="M 117.0 144.0 L 117.0 144.0 L 118.0 143.0 L 119.0 143.0 L 122.0 142.0 L 131.0 142.0 L 140.0 142.0 L 143.0 142.0 " stroke="black" fill="none" stroke-width="5.0" stroke-linecap="round" stroke-linejoin="round" />
<path d="M 107.0 165.0 L 107.0 165.0 L 108.0 165.0 L 111.0 165.0 L 122.0 163.0 L 137.0 160.0 L 143.0 159.0 " stroke="black" fill="none" stroke-width="5.0" stroke-linecap="round" stroke-linejoin="round" />
<path d="M 128.0 145.0 L 128.0 145.0 L 128.0 146.0 L 128.0 150.0 L 126.0 160.0 L 122.0 176.0 L 118.0 190.0 L 117.0 193.0 " stroke="black" fill="none" stroke-width="5.0" stroke-linecap="round" stroke-linejoin="round" />
<path d="M 125.0 169.0 L 126.0 169.0 L 127.0 170.0 L 131.0 172.0 L 137.0 180.0 L 143.0 188.0 " stroke="black" fill="none" stroke-width="5.0" stroke-linecap="round" stroke-linejoin="round" />
<path d="M 153.0 125.0 L 154.0 125.0 L 154.0 125.0 L 157.0 125.0 L 164.0 124.0 L 171.0 123.0 L 174.0 123.0 " stroke="black" fill="none" stroke-width="5.0" stroke-linecap="round" stroke-linejoin="round" />
<path d="M 151.0 139.0 L 151.0 139.0 L 151.0 139.0 L 151.0 140.0 L 151.0 143.0 L 152.0 146.0 " stroke="black" fill="none" stroke-width="5.0" stroke-linecap="round" stroke-linejoin="round" />
<path d="M 153.0 138.0 L 153.0 138.0 L 154.0 138.0 L 156.0 137.0 L 160.0 137.0 L 165.0 136.0 L 171.0 136.0 L 176.0 138.0 L 178.0 141.0 L 178.0 145.0 L 177.0 148.0 " stroke="black" fill="none" stroke-width="5.0" stroke-linecap="round" stroke-linejoin="round" />
<path d="M 152.0 151.0 L 152.0 151.0 L 152.0 151.0 L 154.0 151.0 L 160.0 151.0 L 168.0 151.0 L 172.0 151.0 " stroke="black" fill="none" stroke-width="5.0" stroke-linecap="round" stroke-linejoin="round" />
<path d="M 150.0 155.0 L 150.0 155.0 L 150.0 156.0 L 150.0 158.0 L 152.0 164.0 L 154.0 167.0 " stroke="black" fill="none" stroke-width="5.0" stroke-linecap="round" stroke-linejoin="round" />
<path d="M 175.0 154.0 L 175.0 156.0 L 175.0 159.0 L 174.0 165.0 L 172.0 172.0 L 171.0 177.0 " stroke="black" fill="none" stroke-width="5.0" stroke-linecap="round" stroke-linejoin="round" />
<path d="M 147.0 184.0 L 148.0 184.0 L 152.0 185.0 L 162.0 185.0 L 176.0 185.0 L 187.0 185.0 L 192.0 185.0 " stroke="black" fill="none" stroke-width="5.0" stroke-linecap="round" stroke-linejoin="round" />
</svg>