<svg xmlns="http://www.w3.org/2000/svg" width="300" height="300" viewBox="0 0 300 300">
<path d="M 116.0 120.0 L 116.0 120.0 L 116.0 120.0 L 116.0 120.0 L 116.0 121.0 L 116.0 126.0 L 115.0 138.0 L 114.0 154.0 L 113.0 168.0 L 112.0 176.0 L 112.0 178.0 L 112.0 178.0 " stroke="black" fill="none" stroke-width="5.0" stroke-linecap="round" stroke-linejoin="round" />
<path d="M 120.0 119.0 L 120.0 119.0 L 120.0 119.0 L 120.0 119.0 L 122.0 119.0 L 124.0 119.0 L 126.0 120.0 L 128.0 120.0 L 130.0 122.0 L 132.0 127.0 L 134.0 138.0 L 136.0 153.0 L 137.0 166.0 L 138.0 174.0 L 138.0 178.0 L 138.0 180.0 L 138.0 181.0 " stroke="black" fill="none" stroke-width="5.0" stroke-linecap="round" stroke-linejoin="round" />
<path d="M 119.0 144.0 L 119.0 144.0 L 119.0 144.0 L 120.0 144.0 L 123.0 145.0 L 132.0 145.0 L 133.0 146.0 " stroke="black" fill="none" stroke-width="5.0" stroke-linecap="round" stroke-linejoin="round" />
<path d="M 116.0 158.0 L 116.0 158.0 L 117.0 159.0 L 120.0 159.0 L 126.0 159.0 L 131.0 159.0 " stroke="black" fill="none" stroke-width="5.0" stroke-linecap="round" stroke-linejoin="round" />
<path d="M 108.0 177.0 L 109.0 177.0 L 110.0 178.0 L 114.0 179.0 L 120.0 180.0 L 129.0 180.0 L 134.0 180.0 " stroke="black" fill="none" stroke-width="5.0" stroke-linecap="round" stroke-linejoin="round" />
<path d="M 148.0 128.0 L 148.0 128.0 L 148.0 128.0 L 149.0 129.0 L 155.0 129.0 L 163.0 129.0 L 171.0 129.0 L 174.0 129.0 " stroke="black" fill="none" stroke-width="5.0" stroke-linecap="round" stroke-linejoin="round" />
<path d="M 158.0 111.0 L 158.0 111.0 L 158.0 111.0 L 158.0 111.0 L 159.0 115.0 L 161.0 128.0 L 163.0 148.0 L 166.0 169.0 L 167.0 184.0 L 168.0 188.0 L 168.0 191.0 L 169.0 195.0 L 169.0 195.0 " stroke="black" fill="none" stroke-width="5.0" stroke-linecap="round" stroke-linejoin="round" />
<path d="M 154.0 138.0 L 154.0 138.0 L 154.0 138.0 L 153.0 138.0 L 152.0 141.0 L 150.0 145.0 L 147.0 150.0 L 147.0 151.0 " stroke="black" fill="none" stroke-width="5.0" stroke-linecap="round" stroke-linejoin="round" />
<path d="M 151.0 147.0 L 151.0 147.0 L 152.0 147.0 L 154.0 149.0 L 156.0 151.0 " stroke="black" fill="none" stroke-width="5.0" stroke-linecap="round" stroke-linejoin="round" />
<path d="M 173.0 140.0 L 173.0 140.0 L 173.0 141.0 L 173.0 143.0 L 172.0 146.0 L 169.0 151.0 L 166.0 155.0 " stroke="black" fill="none" stroke-width="5.0" stroke-linecap="round" stroke-linejoin="round" />
<path d="M 169.0 148.0 L 169.0 148.0 L 171.0 149.0 L 174.0 151.0 L 178.0 153.0 L 182.0 156.0 L 184.0 157.0 " stroke="black" fill="none" stroke-width="5.0" stroke-linecap="round" stroke-linejoin="round" />
<path d="M 165.0 160.0 L 165.0 160.0 L 165.0 160.0 L 165.0 161.0 L 164.0 163.0 L 161.0 168.0 L 154.0 176.0 L 146.0 186.0 L 139.0 192.0 L 138.0 193.0 " stroke="black" fill="none" stroke-width="5.0" stroke-linecap="round" stroke-linejoin="round" />
<path d="M 163.0 164.0 L 164.0 164.0 L 166.0 165.0 L 170.0 169.0 L 179.0 178.0 L 188.0 188.0 L 194.0 193.0 L 197.0 196.0 L 197.0 197.0 " stroke="black" fill="none" stroke-width="5.0" stroke-linecap="round" stroke-linejoin="round" />
</svg>