<svg xmlns="http://www.w3.org/2000/svg" width="300" height="300" viewBox="0 0 300 300">
<path d="M 106.0 118.0 L 106.0 118.0 L 106.0 118.0 L 106.0 119.0 L 106.0 121.0 L 106.0 124.0 L 106.0 132.0 L 105.0 145.0 L 104.0 158.0 L 104.0 167.0 L 104.0 170.0 L 104.0 170.0 L 104.0 170.0 " stroke="black" fill="none" stroke-width="5.0" stroke-linecap="round" stroke-linejoin="round" />
<path d="M 107.0 119.0 L 107.0 119.0 L 107.0 119.0 L 107.0 119.0 L 108.0 119.0 L 110.0 119.0 L 113.0 119.0 L 117.0 120.0 L 121.0 120.0 L 124.0 121.0 L 126.0 125.0 L 127.0 132.0 L 128.0 143.0 L 129.0 156.0 L 130.0 168.0 L 130.0 174.0 L 130.0 177.0 L 130.0 177.0 L 130.0 177.0 " stroke="black" fill="none" stroke-width="5.0" stroke-linecap="round" stroke-linejoin="round" />
<path d="M 111.0 142.0 L 111.0 142.0 L 111.0 142.0 L 111.0 142.0 L 113.0 142.0 L 117.0 142.0 L 122.0 142.0 L 127.0 142.0 L 130.0 143.0 L 130.0 144.0 " stroke="black" fill="none" stroke-width="5.0" stroke-linecap="round" stroke-linejoin="round" />
<path d="M 113.0 155.0 L 113.0 155.0 L 113.0 156.0 L 113.0 157.0 L 116.0 158.0 L 121.0 158.0 L 127.0 158.0 L 128.0 158.0 " stroke="black" fill="none" stroke-width="5.0" stroke-linecap="round" stroke-linejoin="round" />
<path d="M 106.0 173.0 L 107.0 173.0 L 110.0 174.0 L 114.0 175.0 L 121.0 175.0 L 128.0 175.0 " stroke="black" fill="none" stroke-width="5.0" stroke-linecap="round" stroke-linejoin="round" />
<path d="M 149.0 113.0 L 149.0 113.0 L 149.0 114.0 L 149.0 114.0 L 151.0 114.0 L 156.0 114.0 L 164.0 113.0 L 172.0 113.0 L 177.0 113.0 L 180.0 112.0 L 181.0 112.0 L 181.0 112.0 L 180.0 113.0 L 178.0 113.0 " stroke="black" fill="none" stroke-width="5.0" stroke-linecap="round" stroke-linejoin="round" />
<path d="M 162.0 118.0 L 162.0 118.0 L 162.0 118.0 L 162.0 118.0 L 162.0 119.0 L 162.0 125.0 L 163.0 136.0 L 164.0 146.0 L 165.0 153.0 L 165.0 155.0 L 165.0 155.0 " stroke="black" fill="none" stroke-width="5.0" stroke-linecap="round" stroke-linejoin="round" />
<path d="M 150.0 138.0 L 150.0 138.0 L 150.0 138.0 L 150.0 138.0 L 150.0 138.0 L 150.0 140.0 L 150.0 144.0 L 150.0 148.0 L 150.0 152.0 L 150.0 155.0 L 152.0 156.0 L 157.0 157.0 L 163.0 157.0 L 170.0 157.0 L 176.0 156.0 L 180.0 155.0 L 181.0 155.0 L 181.0 155.0 L 180.0 155.0 L 180.0 155.0 " stroke="black" fill="none" stroke-width="5.0" stroke-linecap="round" stroke-linejoin="round" />
<path d="M 165.0 136.0 L 165.0 136.0 L 165.0 136.0 L 165.0 137.0 L 167.0 137.0 L 173.0 137.0 L 178.0 137.0 L 182.0 137.0 L 185.0 138.0 L 185.0 141.0 L 185.0 146.0 L 187.0 154.0 L 188.0 163.0 L 190.0 172.0 L 191.0 181.0 L 191.0 188.0 L 189.0 191.0 L 186.0 193.0 L 182.0 193.0 L 176.0 193.0 L 167.0 190.0 " stroke="black" fill="none" stroke-width="5.0" stroke-linecap="round" stroke-linejoin="round" />
</svg>