<svg xmlns="http://www.w3.org/2000/svg" width="300" height="300" viewBox="0 0 300 300">
<path d="M 113.0 120.0 L 113.0 120.0 L 114.0 121.0 L 114.0 121.0 L 114.0 121.0 L 114.0 124.0 L 114.0 130.0 L 114.0 143.0 L 113.0 157.0 L 112.0 165.0 L 112.0 168.0 " stroke="black" fill="none" stroke-width="5.0" stroke-linecap="round" stroke-linejoin="round" />
<path d="M 115.0 123.0 L 115.0 123.0 L 115.0 124.0 L 115.0 124.0 L 116.0 124.0 L 118.0 124.0 L 120.0 124.0 L 123.0 123.0 L 125.0 123.0 L 127.0 123.0 L 128.0 127.0 L 130.0 138.0 L 132.0 153.0 L 134.0 165.0 L 135.0 171.0 L 135.0 173.0 L 135.0 173.0 " stroke="black" fill="none" stroke-width="5.0" stroke-linecap="round" stroke-linejoin="round" />
<path d="M 118.0 142.0 L 118.0 142.0 L 118.0 142.0 L 118.0 142.0 L 118.0 142.0 L 120.0 142.0 L 123.0 142.0 L 127.0 142.0 L 129.0 142.0 " stroke="black" fill="none" stroke-width="5.0" stroke-linecap="round" stroke-linejoin="round" />
<path d="M 117.0 153.0 L 118.0 153.0 L 118.0 153.0 L 119.0 153.0 L 122.0 153.0 L 126.0 153.0 L 128.0 153.0 " stroke="black" fill="none" stroke-width="5.0" stroke-linecap="round" stroke-linejoin="round" />
<path d="M 113.0 171.0 L 113.0 171.0 L 114.0 173.0 L 115.0 174.0 L 120.0 174.0 L 128.0 175.0 L 132.0 175.0 " stroke="black" fill="none" stroke-width="5.0" stroke-linecap="round" stroke-linejoin="round" />
<path d="M 167.0 108.0 L 167.0 108.0 L 167.0 108.0 L 166.0 109.0 L 165.0 110.0 L 161.0 113.0 L 154.0 119.0 L 148.0 124.0 " stroke="black" fill="none" stroke-width="5.0" stroke-linecap="round" stroke-linejoin="round" />
<path d="M 141.0 136.0 L 141.0 136.0 L 141.0 136.0 L 141.0 136.0 L 141.0 136.0 L 144.0 136.0 L 152.0 135.0 L 166.0 134.0 L 181.0 132.0 L 186.0 131.0 " stroke="black" fill="none" stroke-width="5.0" stroke-linecap="round" stroke-linejoin="round" />
<path d="M 150.0 146.0 L 150.0 146.0 L 150.0 146.0 L 150.0 146.0 L 150.0 146.0 L 150.0 148.0 L 150.0 154.0 L 151.0 161.0 L 151.0 162.0 " stroke="black" fill="none" stroke-width="5.0" stroke-linecap="round" stroke-linejoin="round" />
<path d="M 143.0 156.0 L 143.0 156.0 L 143.0 156.0 L 143.0 156.0 L 147.0 156.0 L 156.0 156.0 L 168.0 156.0 L 179.0 156.0 L 186.0 155.0 L 187.0 155.0 " stroke="black" fill="none" stroke-width="5.0" stroke-linecap="round" stroke-linejoin="round" />
<path d="M 174.0 145.0 L 174.0 145.0 L 174.0 145.0 L 174.0 147.0 L 175.0 153.0 L 176.0 161.0 L 177.0 168.0 L 177.0 171.0 " stroke="black" fill="none" stroke-width="5.0" stroke-linecap="round" stroke-linejoin="round" />
<path d="M 152.0 168.0 L 152.0 168.0 L 152.0 169.0 L 152.0 169.0 L 156.0 169.0 L 162.0 170.0 L 169.0 170.0 L 174.0 170.0 " stroke="black" fill="none" stroke-width="5.0" stroke-linecap="round" stroke-linejoin="round" />
<path d="M 135.0 189.0 L 135.0 189.0 L 135.0 189.0 L 135.0 189.0 L 139.0 189.0 L 149.0 190.0 L 164.0 191.0 L 181.0 193.0 L 190.0 193.0 " stroke="black" fill="none" stroke-width="5.0" stroke-linecap="round" stroke-linejoin="round" />
<path d="M 160.0 118.0 L 160.0 118.0 L 160.0 119.0 L 161.0 119.0 L 161.0 119.0 L 161.0 120.0 L 161.0 121.0 L 161.0 126.0 L 161.0 135.0 L 162.0 146.0 L 163.0 157.0 L 164.0 164.0 L 164.0 169.0 L 164.0 174.0 L 164.0 177.0 L 164.0 180.0 L 164.0 181.0 L 164.0 181.0 L 164.0 181.0 L 164.0 180.0 L 164.0 180.0 L 164.0 179.0 " stroke="black" fill="none" stroke-width="5.0" stroke-linecap="round" stroke-linejoin="round" />
</svg>