<svg xmlns="http://www.w3.org/2000/svg" width="300" height="300" viewBox="0 0 300 300">
<path d="M 127.0 107.0 L 127.0 107.0 L 127.0 107.0 L 126.0 107.0 L 126.0 107.0 L 128.0 107.0 L 132.0 107.0 L 139.0 107.0 L 149.0 107.0 L 158.0 107.0 L 165.0 106.0 L 169.0 106.0 L 171.0 106.0 L 171.0 106.0 L 171.0 106.0 L 172.0 106.0 L 172.0 106.0 L 173.0 107.0 L 173.0 108.0 L 173.0 109.0 L 174.0 111.0 L 174.0 115.0 L 175.0 120.0 L 175.0 125.0 L 175.0 127.0 " stroke="black" fill="none" stroke-width="5.0" stroke-linecap="round" stroke-linejoin="round" />
<path d="M 150.0 109.0 L 150.0 109.0 L 150.0 110.0 L 150.0 111.0 L 150.0 114.0 L 152.0 120.0 L 152.0 121.0 " stroke="black" fill="none" stroke-width="5.0" stroke-linecap="round" stroke-linejoin="round" />
<path d="M 128.0 127.0 L 128.0 127.0 L 127.0 128.0 L 127.0 128.0 L 132.0 129.0 L 143.0 129.0 L 157.0 129.0 L 169.0 129.0 L 173.0 129.0 " stroke="black" fill="none" stroke-width="5.0" stroke-linecap="round" stroke-linejoin="round" />
<path d="M 126.0 115.0 L 126.0 115.0 L 126.0 115.0 L 126.0 115.0 L 126.0 121.0 L 123.0 137.0 L 118.0 161.0 L 111.0 179.0 L 107.0 187.0 " stroke="black" fill="none" stroke-width="5.0" stroke-linecap="round" stroke-linejoin="round" />
<path d="M 125.0 149.0 L 125.0 149.0 L 125.0 149.0 L 125.0 149.0 L 125.0 152.0 L 127.0 163.0 L 128.0 179.0 L 128.0 194.0 L 129.0 199.0 " stroke="black" fill="none" stroke-width="5.0" stroke-linecap="round" stroke-linejoin="round" />
<path d="M 124.0 148.0 L 124.0 148.0 L 125.0 148.0 L 128.0 148.0 L 134.0 147.0 L 142.0 146.0 L 150.0 145.0 L 157.0 145.0 L 163.0 145.0 L 169.0 145.0 L 172.0 147.0 L 174.0 153.0 L 176.0 164.0 L 179.0 177.0 L 182.0 187.0 L 184.0 193.0 L 184.0 196.0 " stroke="black" fill="none" stroke-width="5.0" stroke-linecap="round" stroke-linejoin="round" />
<path d="M 134.0 163.0 L 134.0 163.0 L 134.0 163.0 L 135.0 163.0 L 142.0 163.0 L 151.0 164.0 L 161.0 164.0 L 167.0 164.0 L 168.0 164.0 " stroke="black" fill="none" stroke-width="5.0" stroke-linecap="round" stroke-linejoin="round" />
<path d="M 137.0 180.0 L 137.0 180.0 L 139.0 180.0 L 143.0 181.0 L 148.0 181.0 L 155.0 181.0 L 163.0 181.0 L 167.0 183.0 " stroke="black" fill="none" stroke-width="5.0" stroke-linecap="round" stroke-linejoin="round" />
<path d="M 128.0 197.0 L 130.0 198.0 L 134.0 198.0 L 143.0 199.0 L 155.0 199.0 L 167.0 200.0 L 176.0 201.0 L 179.0 201.0 " stroke="black" fill="none" stroke-width="5.0" stroke-linecap="round" stroke-linejoin="round" />
</svg>