<svg xmlns="http://www.w3.org/2000/svg" width="300" height="300" viewBox="0 0 300 300">
<path d="M 150.0 111.0 L 150.0 111.0 L 150.0 111.0 L 150.0 111.0 L 151.0 114.0 L 152.0 122.0 L 153.0 134.0 L 154.0 143.0 L 154.0 147.0 " stroke="black" fill="none" stroke-width="5.0" stroke-linecap="round" stroke-linejoin="round" />
<path d="M 141.0 127.0 L 141.0 127.0 L 141.0 128.0 L 141.0 129.0 L 141.0 131.0 L 138.0 135.0 L 134.0 142.0 L 131.0 145.0 " stroke="black" fill="none" stroke-width="5.0" stroke-linecap="round" stroke-linejoin="round" />
<path d="M 174.0 124.0 L 174.0 125.0 L 175.0 126.0 L 177.0 128.0 L 180.0 130.0 L 185.0 134.0 L 187.0 136.0 " stroke="black" fill="none" stroke-width="5.0" stroke-linecap="round" stroke-linejoin="round" />
<path d="M 175.0 143.0 L 175.0 144.0 L 174.0 145.0 L 171.0 147.0 L 166.0 152.0 L 157.0 158.0 L 143.0 167.0 L 127.0 177.0 L 115.0 183.0 L 113.0 184.0 " stroke="black" fill="none" stroke-width="5.0" stroke-linecap="round" stroke-linejoin="round" />
<path d="M 153.0 168.0 L 153.0 168.0 L 154.0 168.0 L 157.0 168.0 L 162.0 168.0 L 169.0 167.0 L 176.0 166.0 L 179.0 166.0 L 181.0 166.0 L 182.0 166.0 L 182.0 170.0 L 184.0 179.0 L 187.0 193.0 L 190.0 205.0 L 192.0 212.0 L 192.0 215.0 " stroke="black" fill="none" stroke-width="5.0" stroke-linecap="round" stroke-linejoin="round" />
<path d="M 146.0 171.0 L 146.0 171.0 L 146.0 172.0 L 146.0 175.0 L 145.0 183.0 L 145.0 193.0 L 145.0 201.0 L 145.0 203.0 " stroke="black" fill="none" stroke-width="5.0" stroke-linecap="round" stroke-linejoin="round" />
<path d="M 147.0 183.0 L 148.0 183.0 L 149.0 183.0 L 152.0 183.0 L 160.0 183.0 L 168.0 183.0 L 175.0 183.0 L 178.0 183.0 " stroke="black" fill="none" stroke-width="5.0" stroke-linecap="round" stroke-linejoin="round" />
<path d="M 150.0 196.0 L 150.0 197.0 L 152.0 198.0 L 156.0 198.0 L 163.0 198.0 L 172.0 197.0 L 178.0 196.0 L 180.0 196.0 " stroke="black" fill="none" stroke-width="5.0" stroke-linecap="round" stroke-linejoin="round" />
<path d="M 151.0 212.0 L 152.0 214.0 L 155.0 215.0 L 160.0 216.0 L 170.0 216.0 L 180.0 214.0 L 188.0 213.0 " stroke="black" fill="none" stroke-width="5.0" stroke-linecap="round" stroke-linejoin="round" />
</svg>