<svg xmlns="http://www.w3.org/2000/svg" width="300" height="300" viewBox="0 0 300 300">
<path d="M 120.0 120.0 L 120.0 120.0 L 120.0 120.0 L 120.0 120.0 L 120.0 120.0 L 121.0 120.0 L 131.0 119.0 L 150.0 116.0 L 165.0 115.0 L 168.0 115.0 " stroke="black" fill="none" stroke-width="5.0" stroke-linecap="round" stroke-linejoin="round" />
<path d="M 139.0 127.0 L 139.0 127.0 L 139.0 127.0 L 139.0 127.0 L 139.0 126.0 L 138.0 126.0 L 136.0 131.0 L 129.0 145.0 L 114.0 167.0 L 101.0 185.0 L 99.0 188.0 " stroke="black" fill="none" stroke-width="5.0" stroke-linecap="round" stroke-linejoin="round" />
<path d="M 129.0 154.0 L 129.0 153.0 L 128.0 153.0 L 128.0 153.0 L 128.0 154.0 L 129.0 162.0 L 130.0 172.0 L 132.0 181.0 L 132.0 183.0 " stroke="black" fill="none" stroke-width="5.0" stroke-linecap="round" stroke-linejoin="round" />
<path d="M 131.0 153.0 L 131.0 153.0 L 131.0 153.0 L 131.0 152.0 L 136.0 150.0 L 145.0 149.0 L 153.0 148.0 L 160.0 148.0 L 164.0 148.0 L 167.0 150.0 L 169.0 155.0 L 170.0 162.0 L 170.0 170.0 L 170.0 176.0 " stroke="black" fill="none" stroke-width="5.0" stroke-linecap="round" stroke-linejoin="round" />
<path d="M 132.0 185.0 L 132.0 185.0 L 131.0 186.0 L 131.0 187.0 L 139.0 187.0 L 151.0 185.0 L 164.0 184.0 L 166.0 184.0 " stroke="black" fill="none" stroke-width="5.0" stroke-linecap="round" stroke-linejoin="round" />
</svg>