<svg xmlns="http://www.w3.org/2000/svg" width="300" height="300" viewBox="0 0 300 300">
<path d="M 119.0 120.0 L 120.0 120.0 L 121.0 120.0 L 121.0 120.0 L 123.0 120.0 L 125.0 120.0 L 129.0 120.0 L 132.0 120.0 L 135.0 120.0 L 138.0 120.0 L 139.0 120.0 L 139.0 123.0 L 135.0 130.0 L 131.0 137.0 L 129.0 140.0 " stroke="black" fill="none" stroke-width="5.0" stroke-linecap="round" stroke-linejoin="round" />
<path d="M 122.0 133.0 L 123.0 133.0 L 124.0 133.0 L 126.0 135.0 L 128.0 138.0 L 131.0 142.0 L 132.0 144.0 " stroke="black" fill="none" stroke-width="5.0" stroke-linecap="round" stroke-linejoin="round" />
<path d="M 108.0 148.0 L 108.0 148.0 L 109.0 148.0 L 111.0 148.0 L 114.0 148.0 L 120.0 148.0 L 130.0 148.0 L 139.0 147.0 L 145.0 147.0 L 145.0 148.0 L 143.0 151.0 L 138.0 155.0 L 136.0 156.0 " stroke="black" fill="none" stroke-width="5.0" stroke-linecap="round" stroke-linejoin="round" />
<path d="M 122.0 145.0 L 122.0 144.0 L 122.0 144.0 L 122.0 144.0 L 123.0 147.0 L 125.0 156.0 L 127.0 171.0 L 129.0 187.0 L 130.0 198.0 L 130.0 204.0 L 128.0 204.0 L 124.0 203.0 L 117.0 199.0 L 113.0 195.0 " stroke="black" fill="none" stroke-width="5.0" stroke-linecap="round" stroke-linejoin="round" />
<path d="M 123.0 155.0 L 123.0 155.0 L 123.0 155.0 L 123.0 155.0 L 123.0 155.0 L 122.0 157.0 L 117.0 166.0 L 107.0 181.0 L 98.0 194.0 " stroke="black" fill="none" stroke-width="5.0" stroke-linecap="round" stroke-linejoin="round" />
<path d="M 165.0 121.0 L 165.0 121.0 L 167.0 122.0 L 167.0 122.0 L 167.0 124.0 L 166.0 126.0 L 163.0 132.0 L 157.0 141.0 L 151.0 151.0 L 147.0 157.0 " stroke="black" fill="none" stroke-width="5.0" stroke-linecap="round" stroke-linejoin="round" />
<path d="M 167.0 121.0 L 167.0 122.0 L 168.0 122.0 L 170.0 125.0 L 176.0 131.0 L 184.0 139.0 L 191.0 146.0 L 193.0 149.0 " stroke="black" fill="none" stroke-width="5.0" stroke-linecap="round" stroke-linejoin="round" />
<path d="M 160.0 152.0 L 160.0 152.0 L 161.0 152.0 L 163.0 152.0 L 168.0 152.0 L 175.0 152.0 L 179.0 151.0 " stroke="black" fill="none" stroke-width="5.0" stroke-linecap="round" stroke-linejoin="round" />
<path d="M 154.0 170.0 L 155.0 170.0 L 156.0 170.0 L 157.0 170.0 L 159.0 170.0 L 164.0 170.0 L 171.0 168.0 L 177.0 167.0 L 180.0 167.0 L 181.0 168.0 L 180.0 175.0 L 177.0 183.0 L 172.0 193.0 L 166.0 200.0 " stroke="black" fill="none" stroke-width="5.0" stroke-linecap="round" stroke-linejoin="round" />
</svg>