<svg xmlns="http://www.w3.org/2000/svg" width="300" height="300" viewBox="0 0 300 300">
<path d="M 107.0 136.0 L 107.0 136.0 L 107.0 136.0 L 107.0 136.0 L 107.0 136.0 L 108.0 135.0 L 110.0 135.0 L 114.0 133.0 L 121.0 132.0 L 126.0 131.0 L 127.0 131.0 " stroke="black" fill="none" stroke-width="5.0" stroke-linecap="round" stroke-linejoin="round" />
<path d="M 115.0 136.0 L 115.0 136.0 L 115.0 135.0 L 115.0 135.0 L 115.0 135.0 L 113.0 139.0 L 110.0 146.0 L 105.0 156.0 L 101.0 163.0 " stroke="black" fill="none" stroke-width="5.0" stroke-linecap="round" stroke-linejoin="round" />
<path d="M 111.0 149.0 L 111.0 149.0 L 111.0 149.0 L 111.0 149.0 L 111.0 150.0 L 111.0 154.0 L 112.0 160.0 L 112.0 166.0 " stroke="black" fill="none" stroke-width="5.0" stroke-linecap="round" stroke-linejoin="round" />
<path d="M 113.0 150.0 L 113.0 150.0 L 113.0 150.0 L 113.0 150.0 L 115.0 150.0 L 119.0 149.0 L 124.0 149.0 L 127.0 149.0 L 130.0 151.0 L 133.0 155.0 L 135.0 160.0 L 136.0 165.0 L 136.0 167.0 " stroke="black" fill="none" stroke-width="5.0" stroke-linecap="round" stroke-linejoin="round" />
<path d="M 113.0 171.0 L 113.0 171.0 L 113.0 172.0 L 114.0 172.0 L 120.0 172.0 L 128.0 170.0 L 131.0 170.0 " stroke="black" fill="none" stroke-width="5.0" stroke-linecap="round" stroke-linejoin="round" />
<path d="M 168.0 108.0 L 168.0 108.0 L 168.0 108.0 L 168.0 108.0 L 166.0 110.0 L 160.0 114.0 L 153.0 121.0 L 148.0 124.0 " stroke="black" fill="none" stroke-width="5.0" stroke-linecap="round" stroke-linejoin="round" />
<path d="M 146.0 129.0 L 146.0 129.0 L 146.0 130.0 L 147.0 131.0 L 149.0 133.0 L 154.0 137.0 L 156.0 138.0 " stroke="black" fill="none" stroke-width="5.0" stroke-linecap="round" stroke-linejoin="round" />
<path d="M 174.0 123.0 L 174.0 124.0 L 174.0 125.0 L 173.0 126.0 L 172.0 129.0 L 169.0 135.0 L 165.0 141.0 " stroke="black" fill="none" stroke-width="5.0" stroke-linecap="round" stroke-linejoin="round" />
<path d="M 140.0 153.0 L 140.0 153.0 L 141.0 153.0 L 144.0 153.0 L 153.0 152.0 L 167.0 150.0 L 178.0 150.0 L 182.0 150.0 " stroke="black" fill="none" stroke-width="5.0" stroke-linecap="round" stroke-linejoin="round" />
<path d="M 161.0 120.0 L 161.0 121.0 L 161.0 122.0 L 161.0 125.0 L 161.0 135.0 L 163.0 150.0 L 164.0 162.0 L 164.0 168.0 " stroke="black" fill="none" stroke-width="5.0" stroke-linecap="round" stroke-linejoin="round" />
<path d="M 162.0 149.0 L 162.0 149.0 L 161.0 150.0 L 160.0 152.0 L 157.0 155.0 L 152.0 160.0 L 145.0 167.0 L 140.0 170.0 " stroke="black" fill="none" stroke-width="5.0" stroke-linecap="round" stroke-linejoin="round" />
<path d="M 164.0 151.0 L 164.0 151.0 L 166.0 151.0 L 170.0 153.0 L 176.0 157.0 L 184.0 162.0 L 187.0 164.0 " stroke="black" fill="none" stroke-width="5.0" stroke-linecap="round" stroke-linejoin="round" />
<path d="M 147.0 176.0 L 147.0 176.0 L 146.0 176.0 L 145.0 178.0 L 145.0 183.0 L 145.0 190.0 L 147.0 196.0 L 147.0 197.0 " stroke="black" fill="none" stroke-width="5.0" stroke-linecap="round" stroke-linejoin="round" />
<path d="M 148.0 171.0 L 148.0 171.0 L 148.0 171.0 L 148.0 172.0 L 152.0 172.0 L 160.0 172.0 L 169.0 171.0 L 176.0 170.0 L 180.0 170.0 L 182.0 171.0 L 184.0 176.0 L 184.0 182.0 L 185.0 189.0 L 185.0 194.0 " stroke="black" fill="none" stroke-width="5.0" stroke-linecap="round" stroke-linejoin="round" />
<path d="M 152.0 187.0 L 152.0 187.0 L 152.0 187.0 L 152.0 187.0 L 157.0 187.0 L 165.0 187.0 L 174.0 187.0 L 177.0 187.0 " stroke="black" fill="none" stroke-width="5.0" stroke-linecap="round" stroke-linejoin="round" />
<path d="M 162.0 176.0 L 162.0 176.0 L 162.0 176.0 L 162.0 177.0 L 163.0 185.0 L 164.0 194.0 L 164.0 196.0 " stroke="black" fill="none" stroke-width="5.0" stroke-linecap="round" stroke-linejoin="round" />
<path d="M 146.0 203.0 L 146.0 203.0 L 146.0 204.0 L 149.0 205.0 L 157.0 205.0 L 171.0 205.0 L 180.0 204.0 L 183.0 204.0 " stroke="black" fill="none" stroke-width="5.0" stroke-linecap="round" stroke-linejoin="round" />
</svg>