<svg xmlns="http://www.w3.org/2000/svg" width="300" height="300" viewBox="0 0 300 300">
<path d="M 145.0 98.0 L 145.0 98.0 L 145.0 98.0 L 145.0 97.0 L 145.0 97.0 L 145.0 97.0 L 146.0 99.0 L 149.0 103.0 L 150.0 104.0 " stroke="black" fill="none" stroke-width="5.0" stroke-linecap="round" stroke-linejoin="round" />
<path d="M 129.0 115.0 L 131.0 115.0 L 132.0 115.0 L 135.0 115.0 L 142.0 114.0 L 155.0 114.0 L 171.0 114.0 L 182.0 113.0 L 183.0 113.0 " stroke="black" fill="none" stroke-width="5.0" stroke-linecap="round" stroke-linejoin="round" />
<path d="M 119.0 121.0 L 119.0 121.0 L 119.0 120.0 L 119.0 120.0 L 119.0 120.0 L 119.0 122.0 L 120.0 131.0 L 119.0 148.0 L 115.0 169.0 L 111.0 188.0 L 107.0 202.0 " stroke="black" fill="none" stroke-width="5.0" stroke-linecap="round" stroke-linejoin="round" />
<path d="M 130.0 130.0 L 130.0 130.0 L 130.0 131.0 L 130.0 132.0 L 130.0 132.0 L 132.0 132.0 L 135.0 132.0 L 140.0 132.0 L 145.0 130.0 L 149.0 129.0 " stroke="black" fill="none" stroke-width="5.0" stroke-linecap="round" stroke-linejoin="round" />
<path d="M 141.0 122.0 L 141.0 122.0 L 141.0 122.0 L 141.0 123.0 L 141.0 128.0 L 141.0 138.0 L 142.0 148.0 L 142.0 155.0 L 143.0 158.0 " stroke="black" fill="none" stroke-width="5.0" stroke-linecap="round" stroke-linejoin="round" />
<path d="M 141.0 137.0 L 140.0 137.0 L 139.0 137.0 L 138.0 138.0 L 136.0 142.0 L 134.0 146.0 L 132.0 150.0 " stroke="black" fill="none" stroke-width="5.0" stroke-linecap="round" stroke-linejoin="round" />
<path d="M 147.0 138.0 L 147.0 138.0 L 147.0 138.0 L 147.0 139.0 L 147.0 143.0 L 147.0 149.0 L 149.0 153.0 " stroke="black" fill="none" stroke-width="5.0" stroke-linecap="round" stroke-linejoin="round" />
<path d="M 156.0 132.0 L 156.0 132.0 L 157.0 132.0 L 159.0 131.0 L 163.0 130.0 L 169.0 129.0 L 174.0 128.0 L 176.0 128.0 " stroke="black" fill="none" stroke-width="5.0" stroke-linecap="round" stroke-linejoin="round" />
<path d="M 164.0 122.0 L 165.0 122.0 L 165.0 122.0 L 165.0 125.0 L 165.0 132.0 L 166.0 141.0 L 168.0 147.0 L 168.0 150.0 " stroke="black" fill="none" stroke-width="5.0" stroke-linecap="round" stroke-linejoin="round" />
<path d="M 163.0 134.0 L 163.0 134.0 L 163.0 134.0 L 162.0 134.0 L 161.0 135.0 L 158.0 140.0 L 154.0 146.0 " stroke="black" fill="none" stroke-width="5.0" stroke-linecap="round" stroke-linejoin="round" />
<path d="M 174.0 139.0 L 174.0 139.0 L 174.0 140.0 L 174.0 143.0 L 177.0 147.0 L 181.0 153.0 L 183.0 154.0 " stroke="black" fill="none" stroke-width="5.0" stroke-linecap="round" stroke-linejoin="round" />
<path d="M 133.0 167.0 L 133.0 167.0 L 132.0 167.0 L 132.0 167.0 L 138.0 167.0 L 150.0 166.0 L 163.0 164.0 L 171.0 164.0 L 174.0 164.0 L 174.0 164.0 " stroke="black" fill="none" stroke-width="5.0" stroke-linecap="round" stroke-linejoin="round" />
<path d="M 152.0 167.0 L 152.0 167.0 L 152.0 167.0 L 152.0 168.0 L 151.0 168.0 L 150.0 170.0 L 145.0 174.0 L 137.0 181.0 L 129.0 187.0 L 126.0 188.0 L 126.0 188.0 " stroke="black" fill="none" stroke-width="5.0" stroke-linecap="round" stroke-linejoin="round" />
<path d="M 143.0 179.0 L 143.0 179.0 L 143.0 179.0 L 142.0 180.0 L 142.0 181.0 L 142.0 185.0 L 142.0 189.0 L 143.0 191.0 " stroke="black" fill="none" stroke-width="5.0" stroke-linecap="round" stroke-linejoin="round" />
<path d="M 145.0 179.0 L 145.0 179.0 L 145.0 179.0 L 147.0 179.0 L 152.0 177.0 L 160.0 177.0 L 167.0 177.0 L 172.0 180.0 L 174.0 184.0 L 176.0 189.0 L 176.0 192.0 L 176.0 195.0 L 176.0 195.0 " stroke="black" fill="none" stroke-width="5.0" stroke-linecap="round" stroke-linejoin="round" />
<path d="M 145.0 196.0 L 145.0 197.0 L 144.0 197.0 L 146.0 198.0 L 152.0 198.0 L 161.0 198.0 L 170.0 198.0 L 174.0 198.0 " stroke="black" fill="none" stroke-width="5.0" stroke-linecap="round" stroke-linejoin="round" />
</svg>