<svg xmlns="http://www.w3.org/2000/svg" width="300" height="300" viewBox="0 0 300 300">
<path d="M 108.0 131.0 L 108.0 131.0 L 108.0 131.0 L 108.0 130.0 L 109.0 130.0 L 113.0 130.0 L 120.0 129.0 L 128.0 128.0 L 132.0 128.0 " stroke="black" fill="none" stroke-width="5.0" stroke-linecap="round" stroke-linejoin="round" />
<path d="M 117.0 134.0 L 117.0 134.0 L 117.0 134.0 L 117.0 134.0 L 117.0 135.0 L 115.0 138.0 L 112.0 145.0 L 104.0 157.0 L 97.0 166.0 L 96.0 168.0 " stroke="black" fill="none" stroke-width="5.0" stroke-linecap="round" stroke-linejoin="round" />
<path d="M 111.0 153.0 L 111.0 153.0 L 111.0 153.0 L 111.0 153.0 L 111.0 153.0 L 111.0 157.0 L 111.0 164.0 L 111.0 172.0 L 112.0 176.0 " stroke="black" fill="none" stroke-width="5.0" stroke-linecap="round" stroke-linejoin="round" />
<path d="M 112.0 154.0 L 112.0 154.0 L 112.0 154.0 L 113.0 154.0 L 116.0 154.0 L 122.0 153.0 L 126.0 152.0 L 130.0 153.0 L 133.0 157.0 L 134.0 163.0 L 134.0 168.0 L 134.0 172.0 " stroke="black" fill="none" stroke-width="5.0" stroke-linecap="round" stroke-linejoin="round" />
<path d="M 111.0 177.0 L 111.0 177.0 L 111.0 177.0 L 112.0 178.0 L 119.0 178.0 L 130.0 176.0 L 132.0 176.0 " stroke="black" fill="none" stroke-width="5.0" stroke-linecap="round" stroke-linejoin="round" />
<path d="M 151.0 116.0 L 151.0 116.0 L 151.0 116.0 L 151.0 116.0 L 151.0 116.0 L 151.0 118.0 L 151.0 124.0 L 151.0 130.0 L 151.0 134.0 " stroke="black" fill="none" stroke-width="5.0" stroke-linecap="round" stroke-linejoin="round" />
<path d="M 150.0 115.0 L 150.0 115.0 L 150.0 115.0 L 151.0 115.0 L 152.0 115.0 L 156.0 115.0 L 162.0 114.0 L 168.0 114.0 L 173.0 115.0 L 176.0 119.0 L 178.0 124.0 L 179.0 128.0 L 179.0 131.0 " stroke="black" fill="none" stroke-width="5.0" stroke-linecap="round" stroke-linejoin="round" />
<path d="M 153.0 124.0 L 153.0 124.0 L 153.0 124.0 L 152.0 124.0 L 153.0 124.0 L 157.0 124.0 L 163.0 124.0 L 169.0 124.0 L 173.0 124.0 L 174.0 124.0 " stroke="black" fill="none" stroke-width="5.0" stroke-linecap="round" stroke-linejoin="round" />
<path d="M 150.0 135.0 L 150.0 136.0 L 153.0 137.0 L 158.0 137.0 L 166.0 136.0 L 174.0 135.0 " stroke="black" fill="none" stroke-width="5.0" stroke-linecap="round" stroke-linejoin="round" />
<path d="M 152.0 142.0 L 152.0 142.0 L 151.0 142.0 L 151.0 143.0 L 149.0 147.0 L 147.0 152.0 L 144.0 158.0 L 143.0 161.0 " stroke="black" fill="none" stroke-width="5.0" stroke-linecap="round" stroke-linejoin="round" />
<path d="M 150.0 150.0 L 150.0 150.0 L 151.0 150.0 L 152.0 150.0 L 155.0 150.0 L 161.0 150.0 L 168.0 149.0 L 175.0 148.0 L 180.0 148.0 L 184.0 147.0 L 186.0 147.0 L 188.0 149.0 L 190.0 155.0 L 192.0 167.0 L 194.0 180.0 L 196.0 190.0 L 197.0 196.0 L 197.0 198.0 L 196.0 198.0 L 192.0 196.0 L 185.0 194.0 L 183.0 193.0 " stroke="black" fill="none" stroke-width="5.0" stroke-linecap="round" stroke-linejoin="round" />
<path d="M 160.0 159.0 L 160.0 159.0 L 160.0 159.0 L 160.0 159.0 L 160.0 159.0 L 160.0 162.0 L 160.0 168.0 L 157.0 175.0 L 156.0 178.0 " stroke="black" fill="none" stroke-width="5.0" stroke-linecap="round" stroke-linejoin="round" />
<path d="M 161.0 169.0 L 161.0 170.0 L 161.0 172.0 L 164.0 174.0 L 170.0 175.0 L 175.0 177.0 L 176.0 177.0 " stroke="black" fill="none" stroke-width="5.0" stroke-linecap="round" stroke-linejoin="round" />
<path d="M 148.0 165.0 L 148.0 165.0 L 148.0 165.0 L 147.0 165.0 L 147.0 166.0 L 147.0 172.0 L 146.0 181.0 L 146.0 189.0 L 146.0 193.0 L 151.0 194.0 L 159.0 192.0 L 168.0 190.0 L 170.0 190.0 " stroke="black" fill="none" stroke-width="5.0" stroke-linecap="round" stroke-linejoin="round" />
</svg>