<svg xmlns="http://www.w3.org/2000/svg" width="300" height="300" viewBox="0 0 300 300">
<path d="M 147.0 101.0 L 147.0 101.0 L 146.0 102.0 L 145.0 104.0 L 142.0 107.0 L 136.0 114.0 L 125.0 124.0 L 113.0 135.0 " stroke="black" fill="none" stroke-width="5.0" stroke-linecap="round" stroke-linejoin="round" />
<path d="M 148.0 105.0 L 148.0 104.0 L 148.0 104.0 L 149.0 103.0 L 152.0 105.0 L 160.0 111.0 L 170.0 116.0 L 179.0 120.0 " stroke="black" fill="none" stroke-width="5.0" stroke-linecap="round" stroke-linejoin="round" />
<path d="M 147.0 119.0 L 147.0 119.0 L 146.0 119.0 L 146.0 119.0 L 147.0 121.0 L 149.0 123.0 L 149.0 124.0 " stroke="black" fill="none" stroke-width="5.0" stroke-linecap="round" stroke-linejoin="round" />
<path d="M 135.0 131.0 L 137.0 131.0 L 139.0 131.0 L 145.0 131.0 L 152.0 130.0 L 161.0 129.0 L 166.0 129.0 L 167.0 129.0 " stroke="black" fill="none" stroke-width="5.0" stroke-linecap="round" stroke-linejoin="round" />
<path d="M 158.0 131.0 L 158.0 131.0 L 158.0 131.0 L 159.0 132.0 L 159.0 134.0 L 158.0 137.0 L 154.0 144.0 L 149.0 151.0 L 147.0 155.0 " stroke="black" fill="none" stroke-width="5.0" stroke-linecap="round" stroke-linejoin="round" />
<path d="M 143.0 141.0 L 143.0 141.0 L 142.0 140.0 L 142.0 140.0 L 142.0 141.0 L 145.0 144.0 L 152.0 150.0 L 160.0 155.0 L 166.0 158.0 " stroke="black" fill="none" stroke-width="5.0" stroke-linecap="round" stroke-linejoin="round" />
<path d="M 126.0 141.0 L 126.0 141.0 L 125.0 141.0 L 125.0 142.0 L 124.0 144.0 L 124.0 149.0 L 124.0 155.0 L 124.0 161.0 L 124.0 165.0 L 125.0 167.0 L 129.0 167.0 L 136.0 166.0 L 145.0 165.0 L 154.0 164.0 L 162.0 164.0 L 170.0 163.0 L 174.0 163.0 L 176.0 163.0 L 176.0 163.0 " stroke="black" fill="none" stroke-width="5.0" stroke-linecap="round" stroke-linejoin="round" />
<path d="M 179.0 136.0 L 179.0 136.0 L 179.0 138.0 L 179.0 143.0 L 180.0 153.0 L 180.0 163.0 " stroke="black" fill="none" stroke-width="5.0" stroke-linecap="round" stroke-linejoin="round" />
<path d="M 152.0 172.0 L 152.0 172.0 L 152.0 172.0 L 152.0 171.0 L 152.0 170.0 L 152.0 170.0 L 152.0 172.0 L 151.0 178.0 L 148.0 186.0 L 146.0 194.0 L 145.0 201.0 L 145.0 203.0 L 149.0 203.0 L 155.0 202.0 L 160.0 201.0 L 163.0 200.0 " stroke="black" fill="none" stroke-width="5.0" stroke-linecap="round" stroke-linejoin="round" />
<path d="M 162.0 193.0 L 162.0 193.0 L 163.0 194.0 L 163.0 197.0 L 165.0 201.0 L 166.0 206.0 L 166.0 209.0 " stroke="black" fill="none" stroke-width="5.0" stroke-linecap="round" stroke-linejoin="round" />
<path d="M 127.0 187.0 L 127.0 187.0 L 127.0 187.0 L 126.0 189.0 L 126.0 196.0 L 126.0 208.0 L 126.0 218.0 L 128.0 222.0 " stroke="black" fill="none" stroke-width="5.0" stroke-linecap="round" stroke-linejoin="round" />
<path d="M 132.0 182.0 L 132.0 182.0 L 132.0 182.0 L 131.0 182.0 L 131.0 183.0 L 136.0 183.0 L 144.0 181.0 L 153.0 180.0 L 163.0 178.0 L 171.0 177.0 L 177.0 176.0 L 180.0 176.0 L 181.0 176.0 L 181.0 176.0 L 182.0 177.0 L 182.0 178.0 L 182.0 180.0 L 183.0 183.0 L 184.0 187.0 L 186.0 193.0 L 188.0 201.0 L 189.0 210.0 L 190.0 218.0 L 191.0 224.0 L 191.0 227.0 L 190.0 229.0 L 187.0 229.0 L 180.0 229.0 L 175.0 229.0 " stroke="black" fill="none" stroke-width="5.0" stroke-linecap="round" stroke-linejoin="round" />
</svg>