<svg xmlns="http://www.w3.org/2000/svg" width="300" height="300" viewBox="0 0 300 300">
<path d="M 135.0 116.0 L 135.0 116.0 L 135.0 116.0 L 134.0 117.0 L 133.0 119.0 L 132.0 121.0 L 128.0 126.0 L 122.0 133.0 " stroke="black" fill="none" stroke-width="5.0" stroke-linecap="round" stroke-linejoin="round" />
<path d="M 113.0 150.0 L 113.0 150.0 L 113.0 150.0 L 113.0 150.0 L 114.0 150.0 L 119.0 150.0 L 129.0 150.0 L 139.0 148.0 L 146.0 148.0 L 149.0 147.0 L 149.0 147.0 " stroke="black" fill="none" stroke-width="5.0" stroke-linecap="round" stroke-linejoin="round" />
<path d="M 133.0 128.0 L 133.0 128.0 L 133.0 129.0 L 133.0 130.0 L 133.0 133.0 L 133.0 142.0 L 134.0 157.0 L 134.0 173.0 L 134.0 185.0 L 134.0 189.0 L 135.0 189.0 L 135.0 188.0 " stroke="black" fill="none" stroke-width="5.0" stroke-linecap="round" stroke-linejoin="round" />
<path d="M 135.0 149.0 L 135.0 149.0 L 134.0 149.0 L 133.0 150.0 L 131.0 152.0 L 126.0 159.0 L 118.0 169.0 L 112.0 177.0 L 111.0 178.0 " stroke="black" fill="none" stroke-width="5.0" stroke-linecap="round" stroke-linejoin="round" />
<path d="M 136.0 156.0 L 136.0 157.0 L 138.0 160.0 L 143.0 165.0 L 149.0 170.0 L 153.0 174.0 " stroke="black" fill="none" stroke-width="5.0" stroke-linecap="round" stroke-linejoin="round" />
<path d="M 158.0 130.0 L 158.0 130.0 L 158.0 130.0 L 158.0 131.0 L 160.0 131.0 L 165.0 131.0 L 174.0 131.0 L 181.0 132.0 L 185.0 132.0 L 186.0 132.0 L 186.0 132.0 " stroke="black" fill="none" stroke-width="5.0" stroke-linecap="round" stroke-linejoin="round" />
<path d="M 163.0 150.0 L 163.0 150.0 L 164.0 150.0 L 165.0 150.0 L 169.0 150.0 L 176.0 150.0 L 184.0 149.0 L 187.0 149.0 " stroke="black" fill="none" stroke-width="5.0" stroke-linecap="round" stroke-linejoin="round" />
<path d="M 173.0 115.0 L 173.0 115.0 L 172.0 116.0 L 172.0 120.0 L 173.0 130.0 L 177.0 148.0 L 178.0 166.0 L 179.0 180.0 L 179.0 185.0 L 180.0 185.0 L 180.0 185.0 " stroke="black" fill="none" stroke-width="5.0" stroke-linecap="round" stroke-linejoin="round" />
<path d="M 175.0 155.0 L 175.0 155.0 L 176.0 154.0 L 176.0 154.0 L 176.0 154.0 L 175.0 157.0 L 171.0 163.0 L 165.0 173.0 L 158.0 182.0 L 153.0 188.0 L 152.0 188.0 " stroke="black" fill="none" stroke-width="5.0" stroke-linecap="round" stroke-linejoin="round" />
<path d="M 180.0 158.0 L 180.0 158.0 L 182.0 158.0 L 185.0 159.0 L 191.0 166.0 L 198.0 176.0 L 205.0 185.0 L 208.0 189.0 " stroke="black" fill="none" stroke-width="5.0" stroke-linecap="round" stroke-linejoin="round" />
</svg>