<svg xmlns="http://www.w3.org/2000/svg" width="300" height="300" viewBox="0 0 300 300">
<path d="M 135.0 115.0 L 135.0 115.0 L 134.0 115.0 L 134.0 116.0 L 133.0 118.0 L 132.0 122.0 L 127.0 130.0 L 120.0 139.0 " stroke="black" fill="none" stroke-width="5.0" stroke-linecap="round" stroke-linejoin="round" />
<path d="M 111.0 160.0 L 111.0 160.0 L 111.0 160.0 L 111.0 160.0 L 113.0 160.0 L 122.0 160.0 L 134.0 158.0 L 143.0 156.0 L 145.0 156.0 " stroke="black" fill="none" stroke-width="5.0" stroke-linecap="round" stroke-linejoin="round" />
<path d="M 132.0 134.0 L 131.0 134.0 L 131.0 137.0 L 131.0 145.0 L 132.0 159.0 L 133.0 176.0 L 133.0 187.0 L 133.0 193.0 L 133.0 194.0 " stroke="black" fill="none" stroke-width="5.0" stroke-linecap="round" stroke-linejoin="round" />
<path d="M 132.0 159.0 L 132.0 159.0 L 131.0 160.0 L 129.0 162.0 L 124.0 168.0 L 118.0 177.0 L 111.0 187.0 " stroke="black" fill="none" stroke-width="5.0" stroke-linecap="round" stroke-linejoin="round" />
<path d="M 132.0 168.0 L 132.0 168.0 L 132.0 168.0 L 136.0 171.0 L 144.0 179.0 L 151.0 187.0 L 153.0 190.0 " stroke="black" fill="none" stroke-width="5.0" stroke-linecap="round" stroke-linejoin="round" />
<path d="M 167.0 131.0 L 167.0 131.0 L 167.0 131.0 L 167.0 133.0 L 167.0 137.0 L 164.0 145.0 L 160.0 155.0 L 157.0 163.0 L 156.0 166.0 L 158.0 167.0 L 163.0 168.0 L 170.0 168.0 L 176.0 168.0 L 181.0 166.0 L 181.0 166.0 " stroke="black" fill="none" stroke-width="5.0" stroke-linecap="round" stroke-linejoin="round" />
<path d="M 180.0 152.0 L 180.0 152.0 L 180.0 152.0 L 180.0 153.0 L 182.0 158.0 L 187.0 168.0 L 192.0 178.0 L 194.0 184.0 " stroke="black" fill="none" stroke-width="5.0" stroke-linecap="round" stroke-linejoin="round" />
</svg>