<svg xmlns="http://www.w3.org/2000/svg" width="300" height="300" viewBox="0 0 300 300">
<path d="M 120.0 111.0 L 121.0 111.0 L 121.0 111.0 L 122.0 113.0 L 124.0 118.0 L 127.0 124.0 L 128.0 126.0 " stroke="black" fill="none" stroke-width="5.0" stroke-linecap="round" stroke-linejoin="round" />
<path d="M 110.0 139.0 L 110.0 139.0 L 110.0 139.0 L 111.0 139.0 L 113.0 139.0 L 119.0 138.0 L 126.0 137.0 L 132.0 137.0 L 135.0 137.0 L 135.0 138.0 L 134.0 141.0 L 129.0 145.0 L 126.0 148.0 L 115.0 159.0 L 107.0 169.0 L 100.0 178.0 L 94.0 183.0 L 93.0 185.0 " stroke="black" fill="none" stroke-width="5.0" stroke-linecap="round" stroke-linejoin="round" />
<path d="M 118.0 161.0 L 118.0 161.0 L 118.0 162.0 L 119.0 163.0 L 119.0 167.0 L 119.0 174.0 L 119.0 183.0 L 118.0 190.0 L 118.0 193.0 " stroke="black" fill="none" stroke-width="5.0" stroke-linecap="round" stroke-linejoin="round" />
<path d="M 121.0 168.0 L 122.0 168.0 L 125.0 167.0 L 130.0 168.0 L 137.0 172.0 L 143.0 175.0 L 144.0 176.0 " stroke="black" fill="none" stroke-width="5.0" stroke-linecap="round" stroke-linejoin="round" />
<path d="M 159.0 114.0 L 159.0 114.0 L 159.0 114.0 L 159.0 113.0 L 159.0 113.0 L 159.0 113.0 L 159.0 116.0 L 158.0 122.0 L 155.0 129.0 L 154.0 135.0 L 154.0 139.0 L 157.0 140.0 L 162.0 139.0 L 165.0 138.0 " stroke="black" fill="none" stroke-width="5.0" stroke-linecap="round" stroke-linejoin="round" />
<path d="M 157.0 128.0 L 157.0 128.0 L 157.0 128.0 L 160.0 128.0 L 165.0 127.0 L 170.0 127.0 L 174.0 128.0 L 175.0 132.0 L 174.0 138.0 L 170.0 143.0 L 166.0 148.0 " stroke="black" fill="none" stroke-width="5.0" stroke-linecap="round" stroke-linejoin="round" />
<path d="M 145.0 154.0 L 145.0 154.0 L 145.0 153.0 L 147.0 153.0 L 151.0 151.0 L 161.0 149.0 L 176.0 146.0 L 187.0 144.0 L 191.0 144.0 L 191.0 144.0 " stroke="black" fill="none" stroke-width="5.0" stroke-linecap="round" stroke-linejoin="round" />
<path d="M 163.0 153.0 L 163.0 152.0 L 163.0 152.0 L 163.0 152.0 L 164.0 155.0 L 167.0 165.0 L 171.0 181.0 L 173.0 196.0 L 174.0 206.0 L 174.0 211.0 L 173.0 212.0 L 169.0 212.0 L 163.0 209.0 L 161.0 208.0 " stroke="black" fill="none" stroke-width="5.0" stroke-linecap="round" stroke-linejoin="round" />
<path d="M 152.0 169.0 L 152.0 169.0 L 152.0 170.0 L 152.0 171.0 L 152.0 172.0 L 154.0 173.0 L 155.0 173.0 " stroke="black" fill="none" stroke-width="5.0" stroke-linecap="round" stroke-linejoin="round" />
<path d="M 148.0 196.0 L 148.0 196.0 L 148.0 196.0 L 148.0 196.0 L 150.0 194.0 L 156.0 190.0 L 160.0 188.0 " stroke="black" fill="none" stroke-width="5.0" stroke-linecap="round" stroke-linejoin="round" />
<path d="M 181.0 174.0 L 181.0 173.0 L 182.0 171.0 L 185.0 168.0 L 188.0 166.0 L 190.0 165.0 L 191.0 165.0 " stroke="black" fill="none" stroke-width="5.0" stroke-linecap="round" stroke-linejoin="round" />
<path d="M 183.0 184.0 L 184.0 185.0 L 185.0 187.0 L 188.0 190.0 L 193.0 193.0 L 195.0 194.0 " stroke="black" fill="none" stroke-width="5.0" stroke-linecap="round" stroke-linejoin="round" />
</svg>