<svg xmlns="http://www.w3.org/2000/svg" width="300" height="300" viewBox="0 0 300 300">
<path d="M 124.0 109.0 L 124.0 109.0 L 124.0 108.0 L 124.0 108.0 L 125.0 110.0 L 128.0 115.0 L 131.0 120.0 L 132.0 123.0 " stroke="black" fill="none" stroke-width="5.0" stroke-linecap="round" stroke-linejoin="round" />
<path d="M 117.0 130.0 L 117.0 130.0 L 117.0 130.0 L 117.0 130.0 L 118.0 130.0 L 123.0 130.0 L 130.0 129.0 L 136.0 129.0 L 139.0 129.0 L 140.0 131.0 L 140.0 133.0 L 137.0 137.0 L 132.0 143.0 L 125.0 150.0 L 115.0 159.0 L 105.0 169.0 L 98.0 175.0 L 98.0 176.0 " stroke="black" fill="none" stroke-width="5.0" stroke-linecap="round" stroke-linejoin="round" />
<path d="M 125.0 155.0 L 125.0 155.0 L 125.0 155.0 L 124.0 155.0 L 124.0 157.0 L 125.0 163.0 L 127.0 173.0 L 128.0 184.0 L 128.0 192.0 L 128.0 194.0 " stroke="black" fill="none" stroke-width="5.0" stroke-linecap="round" stroke-linejoin="round" />
<path d="M 128.0 159.0 L 128.0 159.0 L 129.0 159.0 L 131.0 160.0 L 137.0 162.0 L 145.0 166.0 L 150.0 169.0 " stroke="black" fill="none" stroke-width="5.0" stroke-linecap="round" stroke-linejoin="round" />
<path d="M 154.0 114.0 L 154.0 114.0 L 154.0 114.0 L 154.0 114.0 L 154.0 113.0 L 154.0 113.0 L 154.0 114.0 L 154.0 118.0 L 154.0 124.0 L 154.0 127.0 " stroke="black" fill="none" stroke-width="5.0" stroke-linecap="round" stroke-linejoin="round" />
<path d="M 154.0 113.0 L 154.0 113.0 L 154.0 112.0 L 154.0 112.0 L 157.0 111.0 L 161.0 111.0 L 164.0 113.0 L 167.0 116.0 L 168.0 120.0 L 169.0 123.0 L 169.0 124.0 " stroke="black" fill="none" stroke-width="5.0" stroke-linecap="round" stroke-linejoin="round" />
<path d="M 154.0 129.0 L 154.0 129.0 L 154.0 130.0 L 156.0 130.0 L 160.0 130.0 L 167.0 129.0 " stroke="black" fill="none" stroke-width="5.0" stroke-linecap="round" stroke-linejoin="round" />
<path d="M 175.0 111.0 L 175.0 111.0 L 174.0 110.0 L 174.0 110.0 L 174.0 110.0 L 174.0 115.0 L 174.0 122.0 L 175.0 127.0 L 176.0 129.0 " stroke="black" fill="none" stroke-width="5.0" stroke-linecap="round" stroke-linejoin="round" />
<path d="M 176.0 114.0 L 176.0 113.0 L 176.0 112.0 L 176.0 111.0 L 179.0 111.0 L 182.0 111.0 L 186.0 111.0 L 188.0 113.0 L 190.0 117.0 L 191.0 121.0 L 191.0 125.0 L 191.0 127.0 " stroke="black" fill="none" stroke-width="5.0" stroke-linecap="round" stroke-linejoin="round" />
<path d="M 175.0 130.0 L 176.0 130.0 L 176.0 130.0 L 179.0 130.0 L 184.0 131.0 L 188.0 131.0 " stroke="black" fill="none" stroke-width="5.0" stroke-linecap="round" stroke-linejoin="round" />
<path d="M 154.0 143.0 L 154.0 144.0 L 154.0 146.0 L 154.0 151.0 L 155.0 157.0 L 156.0 160.0 L 157.0 161.0 " stroke="black" fill="none" stroke-width="5.0" stroke-linecap="round" stroke-linejoin="round" />
<path d="M 156.0 142.0 L 156.0 142.0 L 156.0 142.0 L 158.0 142.0 L 164.0 141.0 L 173.0 139.0 L 182.0 139.0 L 187.0 139.0 L 189.0 142.0 L 190.0 146.0 L 191.0 152.0 L 191.0 157.0 L 191.0 160.0 L 190.0 162.0 " stroke="black" fill="none" stroke-width="5.0" stroke-linecap="round" stroke-linejoin="round" />
<path d="M 158.0 154.0 L 158.0 154.0 L 158.0 154.0 L 159.0 154.0 L 163.0 154.0 L 171.0 154.0 L 179.0 154.0 L 185.0 154.0 L 185.0 154.0 L 185.0 155.0 " stroke="black" fill="none" stroke-width="5.0" stroke-linecap="round" stroke-linejoin="round" />
<path d="M 158.0 164.0 L 158.0 165.0 L 158.0 165.0 L 159.0 166.0 L 166.0 166.0 L 178.0 166.0 L 187.0 166.0 L 189.0 166.0 " stroke="black" fill="none" stroke-width="5.0" stroke-linecap="round" stroke-linejoin="round" />
<path d="M 172.0 141.0 L 172.0 141.0 L 172.0 141.0 L 172.0 141.0 L 172.0 149.0 L 173.0 165.0 L 175.0 185.0 L 176.0 198.0 L 177.0 202.0 L 178.0 203.0 " stroke="black" fill="none" stroke-width="5.0" stroke-linecap="round" stroke-linejoin="round" />
<path d="M 147.0 186.0 L 147.0 186.0 L 148.0 186.0 L 155.0 186.0 L 172.0 186.0 L 191.0 185.0 L 200.0 185.0 L 202.0 185.0 " stroke="black" fill="none" stroke-width="5.0" stroke-linecap="round" stroke-linejoin="round" />
</svg>