<svg xmlns="http://www.w3.org/2000/svg" width="300" height="300" viewBox="0 0 300 300">
<path d="M 132.14285714285717 110.00000000000001 L 132.14285714285717 110.00000000000001 L 132.14285714285717 110.00000000000001 L 131.42857142857144 112.85714285714288 L 130.71428571428572 118.5714285714286 L 127.85714285714288 126.42857142857146 L 122.85714285714288 135.00000000000006 L 121.42857142857146 137.14285714285717 " stroke="black" fill="none" stroke-width="5.0" stroke-linecap="round" stroke-linejoin="round" />
<path d="M 114.28571428571432 152.14285714285717 L 114.28571428571432 152.14285714285717 L 115.00000000000001 152.14285714285717 L 116.42857142857146 152.14285714285717 L 121.42857142857146 150.71428571428572 L 130.00000000000006 148.5714285714286 L 140.00000000000006 146.42857142857144 L 143.5714285714286 145.71428571428572 " stroke="black" fill="none" stroke-width="5.0" stroke-linecap="round" stroke-linejoin="round" />
<path d="M 127.85714285714288 128.5714285714286 L 127.85714285714288 130.00000000000006 L 127.85714285714288 130.71428571428572 L 128.5714285714286 134.28571428571433 L 129.28571428571433 143.5714285714286 L 130.71428571428572 157.8571428571429 L 131.42857142857144 171.42857142857144 L 131.42857142857144 179.28571428571433 " stroke="black" fill="none" stroke-width="5.0" stroke-linecap="round" stroke-linejoin="round" />
<path d="M 130.00000000000006 151.42857142857144 L 129.28571428571433 152.14285714285717 L 127.85714285714288 152.8571428571429 L 126.42857142857146 155.00000000000006 L 124.28571428571432 160.00000000000006 L 120.71428571428574 169.28571428571433 L 118.5714285714286 175.00000000000006 " stroke="black" fill="none" stroke-width="5.0" stroke-linecap="round" stroke-linejoin="round" />
<path d="M 127.85714285714288 158.5714285714286 L 127.85714285714288 158.5714285714286 L 130.00000000000006 159.28571428571433 L 135.71428571428572 162.8571428571429 L 141.42857142857144 166.42857142857144 " stroke="black" fill="none" stroke-width="5.0" stroke-linecap="round" stroke-linejoin="round" />
<path d="M 152.8571428571429 133.5714285714286 L 152.8571428571429 133.5714285714286 L 152.8571428571429 133.5714285714286 L 152.8571428571429 133.5714285714286 L 153.5714285714286 133.5714285714286 L 155.00000000000006 136.42857142857144 L 157.14285714285717 140.00000000000006 L 157.8571428571429 141.42857142857144 " stroke="black" fill="none" stroke-width="5.0" stroke-linecap="round" stroke-linejoin="round" />
<path d="M 180.71428571428578 127.14285714285718 L 180.71428571428578 128.5714285714286 L 180.71428571428578 130.00000000000006 L 180.00000000000006 133.5714285714286 L 177.8571428571429 139.28571428571433 L 177.14285714285717 142.14285714285717 " stroke="black" fill="none" stroke-width="5.0" stroke-linecap="round" stroke-linejoin="round" />
<path d="M 171.42857142857144 110.71428571428574 L 171.42857142857144 111.42857142857146 L 170.71428571428572 113.5714285714286 L 170.00000000000006 117.85714285714288 L 169.28571428571433 125.71428571428574 L 167.14285714285717 137.14285714285717 L 163.5714285714286 150.71428571428572 L 157.8571428571429 163.5714285714286 L 151.42857142857144 175.00000000000006 L 150.71428571428572 176.42857142857144 " stroke="black" fill="none" stroke-width="5.0" stroke-linecap="round" stroke-linejoin="round" />
<path d="M 160.71428571428572 160.00000000000006 L 161.42857142857144 161.42857142857144 L 163.5714285714286 165.00000000000006 L 169.28571428571433 170.71428571428572 L 177.8571428571429 177.8571428571429 L 185.71428571428578 182.14285714285717 L 187.14285714285717 182.8571428571429 " stroke="black" fill="none" stroke-width="5.0" stroke-linecap="round" stroke-linejoin="round" />
</svg>