<svg xmlns="http://www.w3.org/2000/svg" width="300" height="300" viewBox="0 0 300 300">
<path d="M 126.0 113.0 L 126.0 113.0 L 126.0 113.0 L 126.0 113.0 L 126.0 113.0 L 125.0 115.0 L 120.0 119.0 L 113.0 126.0 " stroke="black" fill="none" stroke-width="5.0" stroke-linecap="round" stroke-linejoin="round" />
<path d="M 104.0 147.0 L 104.0 147.0 L 104.0 147.0 L 104.0 147.0 L 104.0 147.0 L 108.0 147.0 L 117.0 147.0 L 127.0 147.0 L 135.0 147.0 L 139.0 146.0 " stroke="black" fill="none" stroke-width="5.0" stroke-linecap="round" stroke-linejoin="round" />
<path d="M 119.0 125.0 L 120.0 125.0 L 120.0 125.0 L 120.0 126.0 L 121.0 130.0 L 122.0 142.0 L 123.0 159.0 L 124.0 177.0 L 125.0 187.0 L 125.0 192.0 L 125.0 192.0 L 125.0 192.0 " stroke="black" fill="none" stroke-width="5.0" stroke-linecap="round" stroke-linejoin="round" />
<path d="M 123.0 151.0 L 123.0 151.0 L 123.0 151.0 L 123.0 152.0 L 121.0 154.0 L 117.0 158.0 L 111.0 166.0 L 104.0 175.0 L 99.0 181.0 L 99.0 182.0 " stroke="black" fill="none" stroke-width="5.0" stroke-linecap="round" stroke-linejoin="round" />
<path d="M 125.0 157.0 L 125.0 157.0 L 127.0 157.0 L 130.0 159.0 L 135.0 165.0 L 140.0 171.0 L 143.0 174.0 " stroke="black" fill="none" stroke-width="5.0" stroke-linecap="round" stroke-linejoin="round" />
<path d="M 162.0 114.0 L 163.0 114.0 L 164.0 115.0 L 164.0 118.0 L 166.0 125.0 L 167.0 138.0 L 169.0 149.0 L 170.0 155.0 L 170.0 157.0 L 170.0 157.0 " stroke="black" fill="none" stroke-width="5.0" stroke-linecap="round" stroke-linejoin="round" />
<path d="M 157.0 130.0 L 157.0 130.0 L 157.0 130.0 L 157.0 131.0 L 156.0 131.0 L 154.0 133.0 L 150.0 138.0 L 145.0 143.0 L 145.0 144.0 " stroke="black" fill="none" stroke-width="5.0" stroke-linecap="round" stroke-linejoin="round" />
<path d="M 177.0 135.0 L 178.0 136.0 L 179.0 138.0 L 182.0 141.0 L 187.0 146.0 L 191.0 150.0 L 194.0 153.0 " stroke="black" fill="none" stroke-width="5.0" stroke-linecap="round" stroke-linejoin="round" />
<path d="M 183.0 161.0 L 183.0 162.0 L 182.0 163.0 L 181.0 164.0 L 180.0 166.0 L 177.0 171.0 L 170.0 179.0 L 158.0 189.0 L 147.0 197.0 " stroke="black" fill="none" stroke-width="5.0" stroke-linecap="round" stroke-linejoin="round" />
</svg>