<svg xmlns="http://www.w3.org/2000/svg" width="300" height="300" viewBox="0 0 300 300">
<path d="M 125.0 114.0 L 125.0 115.0 L 125.0 117.0 L 123.0 121.0 L 121.0 127.0 L 116.0 136.0 L 115.0 139.0 " stroke="black" fill="none" stroke-width="5.0" stroke-linecap="round" stroke-linejoin="round" />
<path d="M 122.0 128.0 L 122.0 128.0 L 122.0 129.0 L 122.0 129.0 L 125.0 129.0 L 131.0 128.0 L 139.0 127.0 L 142.0 127.0 " stroke="black" fill="none" stroke-width="5.0" stroke-linecap="round" stroke-linejoin="round" />
<path d="M 133.0 128.0 L 133.0 128.0 L 133.0 128.0 L 133.0 128.0 L 133.0 133.0 L 133.0 148.0 L 133.0 168.0 L 132.0 183.0 L 132.0 186.0 " stroke="black" fill="none" stroke-width="5.0" stroke-linecap="round" stroke-linejoin="round" />
<path d="M 155.0 115.0 L 155.0 115.0 L 155.0 115.0 L 155.0 117.0 L 153.0 126.0 L 150.0 139.0 L 150.0 142.0 " stroke="black" fill="none" stroke-width="5.0" stroke-linecap="round" stroke-linejoin="round" />
<path d="M 154.0 128.0 L 154.0 128.0 L 154.0 128.0 L 155.0 129.0 L 157.0 129.0 L 163.0 129.0 L 172.0 129.0 L 179.0 129.0 L 182.0 129.0 " stroke="black" fill="none" stroke-width="5.0" stroke-linecap="round" stroke-linejoin="round" />
<path d="M 171.0 129.0 L 171.0 129.0 L 171.0 129.0 L 171.0 128.0 L 171.0 128.0 L 171.0 128.0 L 172.0 130.0 L 173.0 139.0 L 176.0 154.0 L 179.0 169.0 L 181.0 181.0 L 181.0 186.0 L 181.0 187.0 L 178.0 187.0 L 173.0 184.0 L 165.0 182.0 L 162.0 182.0 " stroke="black" fill="none" stroke-width="5.0" stroke-linecap="round" stroke-linejoin="round" />
</svg>