<svg xmlns="http://www.w3.org/2000/svg" width="300" height="300" viewBox="0 0 300 300">
<path d="M 118.0 122.0 L 118.0 122.0 L 118.0 122.0 L 118.0 122.0 L 118.0 122.0 L 118.0 124.0 L 119.0 130.0 L 120.0 132.0 " stroke="black" fill="none" stroke-width="5.0" stroke-linecap="round" stroke-linejoin="round" />
<path d="M 120.0 124.0 L 120.0 123.0 L 121.0 122.0 L 124.0 122.0 L 131.0 121.0 L 142.0 119.0 L 155.0 118.0 L 166.0 117.0 L 174.0 119.0 L 177.0 123.0 L 179.0 129.0 L 179.0 135.0 L 179.0 138.0 " stroke="black" fill="none" stroke-width="5.0" stroke-linecap="round" stroke-linejoin="round" />
<path d="M 148.0 103.0 L 148.0 103.0 L 148.0 105.0 L 148.0 109.0 " stroke="black" fill="none" stroke-width="5.0" stroke-linecap="round" stroke-linejoin="round" />
<path d="M 139.0 125.0 L 139.0 125.0 L 139.0 125.0 L 138.0 126.0 L 136.0 134.0 L 132.0 144.0 L 131.0 148.0 " stroke="black" fill="none" stroke-width="5.0" stroke-linecap="round" stroke-linejoin="round" />
<path d="M 156.0 122.0 L 156.0 122.0 L 156.0 123.0 L 156.0 124.0 L 155.0 129.0 L 155.0 138.0 L 158.0 145.0 L 164.0 148.0 L 171.0 147.0 " stroke="black" fill="none" stroke-width="5.0" stroke-linecap="round" stroke-linejoin="round" />
<path d="M 132.0 161.0 L 133.0 162.0 L 138.0 161.0 L 148.0 160.0 L 160.0 159.0 L 167.0 159.0 " stroke="black" fill="none" stroke-width="5.0" stroke-linecap="round" stroke-linejoin="round" />
<path d="M 149.0 162.0 L 149.0 163.0 L 149.0 164.0 L 149.0 167.0 L 149.0 174.0 L 150.0 183.0 " stroke="black" fill="none" stroke-width="5.0" stroke-linecap="round" stroke-linejoin="round" />
<path d="M 127.0 195.0 L 130.0 194.0 L 137.0 194.0 L 149.0 192.0 L 164.0 190.0 L 178.0 189.0 L 187.0 189.0 " stroke="black" fill="none" stroke-width="5.0" stroke-linecap="round" stroke-linejoin="round" />
</svg>