<svg xmlns="http://www.w3.org/2000/svg" width="300" height="300" viewBox="0 0 300 300">
<path d="M 130.0 104.0 L 130.0 104.0 L 130.0 104.0 L 130.0 104.0 L 130.0 103.0 L 131.0 103.0 L 132.0 105.0 L 134.0 109.0 L 135.0 110.0 " stroke="black" fill="none" stroke-width="5.0" stroke-linecap="round" stroke-linejoin="round" />
<path d="M 118.0 120.0 L 118.0 120.0 L 119.0 120.0 L 122.0 120.0 L 127.0 119.0 L 137.0 117.0 L 144.0 116.0 L 146.0 116.0 " stroke="black" fill="none" stroke-width="5.0" stroke-linecap="round" stroke-linejoin="round" />
<path d="M 126.0 118.0 L 126.0 119.0 L 126.0 121.0 L 125.0 124.0 L 125.0 128.0 L 126.0 132.0 L 126.0 134.0 " stroke="black" fill="none" stroke-width="5.0" stroke-linecap="round" stroke-linejoin="round" />
<path d="M 140.0 119.0 L 140.0 119.0 L 140.0 120.0 L 140.0 121.0 L 140.0 123.0 L 140.0 127.0 L 140.0 130.0 " stroke="black" fill="none" stroke-width="5.0" stroke-linecap="round" stroke-linejoin="round" />
<path d="M 114.0 142.0 L 114.0 142.0 L 114.0 142.0 L 116.0 142.0 L 125.0 141.0 L 139.0 138.0 L 150.0 137.0 " stroke="black" fill="none" stroke-width="5.0" stroke-linecap="round" stroke-linejoin="round" />
<path d="M 163.0 102.0 L 163.0 102.0 L 164.0 102.0 L 165.0 103.0 L 166.0 105.0 L 167.0 107.0 " stroke="black" fill="none" stroke-width="5.0" stroke-linecap="round" stroke-linejoin="round" />
<path d="M 154.0 116.0 L 154.0 116.0 L 154.0 116.0 L 154.0 116.0 L 156.0 116.0 L 162.0 116.0 L 172.0 114.0 L 178.0 113.0 L 181.0 113.0 " stroke="black" fill="none" stroke-width="5.0" stroke-linecap="round" stroke-linejoin="round" />
<path d="M 160.0 116.0 L 160.0 116.0 L 160.0 116.0 L 160.0 117.0 L 160.0 118.0 L 160.0 122.0 L 162.0 127.0 L 162.0 130.0 " stroke="black" fill="none" stroke-width="5.0" stroke-linecap="round" stroke-linejoin="round" />
<path d="M 176.0 116.0 L 176.0 116.0 L 176.0 116.0 L 176.0 116.0 L 176.0 118.0 L 176.0 123.0 L 176.0 127.0 " stroke="black" fill="none" stroke-width="5.0" stroke-linecap="round" stroke-linejoin="round" />
<path d="M 157.0 135.0 L 158.0 135.0 L 158.0 135.0 L 160.0 135.0 L 165.0 135.0 L 174.0 134.0 L 184.0 133.0 L 191.0 133.0 " stroke="black" fill="none" stroke-width="5.0" stroke-linecap="round" stroke-linejoin="round" />
<path d="M 121.0 155.0 L 121.0 155.0 L 121.0 155.0 L 121.0 155.0 L 121.0 155.0 L 121.0 155.0 L 122.0 155.0 L 122.0 157.0 L 122.0 160.0 L 122.0 162.0 " stroke="black" fill="none" stroke-width="5.0" stroke-linecap="round" stroke-linejoin="round" />
<path d="M 122.0 155.0 L 123.0 155.0 L 124.0 155.0 L 126.0 154.0 L 130.0 153.0 L 134.0 152.0 L 139.0 151.0 L 142.0 151.0 L 144.0 152.0 L 145.0 155.0 L 145.0 158.0 L 145.0 162.0 L 145.0 163.0 " stroke="black" fill="none" stroke-width="5.0" stroke-linecap="round" stroke-linejoin="round" />
<path d="M 123.0 164.0 L 123.0 165.0 L 123.0 165.0 L 122.0 166.0 L 123.0 167.0 L 130.0 166.0 L 139.0 164.0 L 143.0 163.0 " stroke="black" fill="none" stroke-width="5.0" stroke-linecap="round" stroke-linejoin="round" />
<path d="M 131.0 166.0 L 130.0 168.0 L 128.0 170.0 L 126.0 174.0 L 124.0 181.0 L 124.0 188.0 L 123.0 193.0 L 123.0 194.0 " stroke="black" fill="none" stroke-width="5.0" stroke-linecap="round" stroke-linejoin="round" />
<path d="M 137.0 170.0 L 137.0 170.0 L 137.0 171.0 L 137.0 174.0 L 140.0 180.0 L 145.0 188.0 L 150.0 192.0 " stroke="black" fill="none" stroke-width="5.0" stroke-linecap="round" stroke-linejoin="round" />
<path d="M 166.0 151.0 L 166.0 151.0 L 165.0 152.0 L 165.0 155.0 L 165.0 158.0 L 166.0 161.0 L 166.0 162.0 " stroke="black" fill="none" stroke-width="5.0" stroke-linecap="round" stroke-linejoin="round" />
<path d="M 166.0 150.0 L 166.0 150.0 L 166.0 150.0 L 167.0 150.0 L 170.0 149.0 L 175.0 148.0 L 180.0 148.0 L 184.0 151.0 L 185.0 155.0 L 186.0 158.0 L 186.0 160.0 " stroke="black" fill="none" stroke-width="5.0" stroke-linecap="round" stroke-linejoin="round" />
<path d="M 161.0 162.0 L 161.0 164.0 L 162.0 165.0 L 165.0 165.0 L 173.0 165.0 L 182.0 163.0 L 187.0 162.0 " stroke="black" fill="none" stroke-width="5.0" stroke-linecap="round" stroke-linejoin="round" />
<path d="M 169.0 166.0 L 169.0 166.0 L 169.0 167.0 L 169.0 168.0 L 167.0 172.0 L 165.0 179.0 L 163.0 188.0 L 163.0 193.0 " stroke="black" fill="none" stroke-width="5.0" stroke-linecap="round" stroke-linejoin="round" />
<path d="M 178.0 164.0 L 178.0 166.0 L 178.0 170.0 L 178.0 175.0 L 182.0 182.0 L 187.0 192.0 L 194.0 200.0 L 199.0 202.0 " stroke="black" fill="none" stroke-width="5.0" stroke-linecap="round" stroke-linejoin="round" />
</svg>