<svg xmlns="http://www.w3.org/2000/svg" width="300" height="300" viewBox="0 0 300 300">
<path d="M 128.0 119.0 L 128.0 119.0 L 128.0 120.0 L 128.0 121.0 L 128.0 123.0 L 126.0 125.0 L 122.0 130.0 L 115.0 139.0 " stroke="black" fill="none" stroke-width="5.0" stroke-linecap="round" stroke-linejoin="round" />
<path d="M 107.0 157.0 L 107.0 157.0 L 107.0 158.0 L 109.0 159.0 L 116.0 158.0 L 128.0 156.0 L 137.0 153.0 " stroke="black" fill="none" stroke-width="5.0" stroke-linecap="round" stroke-linejoin="round" />
<path d="M 122.0 136.0 L 122.0 136.0 L 122.0 136.0 L 122.0 136.0 L 122.0 140.0 L 124.0 154.0 L 126.0 175.0 L 127.0 192.0 L 128.0 200.0 L 129.0 201.0 " stroke="black" fill="none" stroke-width="5.0" stroke-linecap="round" stroke-linejoin="round" />
<path d="M 126.0 161.0 L 125.0 161.0 L 124.0 162.0 L 122.0 163.0 L 120.0 167.0 L 116.0 175.0 L 110.0 186.0 L 106.0 193.0 L 105.0 194.0 " stroke="black" fill="none" stroke-width="5.0" stroke-linecap="round" stroke-linejoin="round" />
<path d="M 125.0 166.0 L 126.0 166.0 L 128.0 167.0 L 132.0 170.0 L 139.0 175.0 L 146.0 183.0 L 148.0 186.0 " stroke="black" fill="none" stroke-width="5.0" stroke-linecap="round" stroke-linejoin="round" />
<path d="M 153.0 115.0 L 153.0 115.0 L 153.0 115.0 L 153.0 115.0 L 155.0 115.0 L 159.0 115.0 L 166.0 115.0 L 174.0 114.0 L 178.0 113.0 " stroke="black" fill="none" stroke-width="5.0" stroke-linecap="round" stroke-linejoin="round" />
<path d="M 163.0 102.0 L 163.0 102.0 L 163.0 102.0 L 163.0 102.0 L 163.0 102.0 L 163.0 108.0 L 163.0 119.0 L 160.0 131.0 L 157.0 139.0 " stroke="black" fill="none" stroke-width="5.0" stroke-linecap="round" stroke-linejoin="round" />
<path d="M 169.0 116.0 L 169.0 116.0 L 169.0 117.0 L 169.0 118.0 L 170.0 121.0 L 171.0 128.0 L 174.0 136.0 L 180.0 141.0 L 188.0 142.0 L 195.0 142.0 L 198.0 140.0 L 199.0 137.0 L 199.0 133.0 L 199.0 131.0 " stroke="black" fill="none" stroke-width="5.0" stroke-linecap="round" stroke-linejoin="round" />
<path d="M 181.0 97.0 L 181.0 98.0 L 181.0 100.0 L 182.0 104.0 L 184.0 107.0 " stroke="black" fill="none" stroke-width="5.0" stroke-linecap="round" stroke-linejoin="round" />
<path d="M 157.0 148.0 L 157.0 148.0 L 157.0 148.0 L 157.0 148.0 L 157.0 148.0 L 157.0 149.0 L 157.0 152.0 L 157.0 157.0 L 157.0 164.0 L 160.0 168.0 L 166.0 169.0 L 174.0 168.0 L 179.0 168.0 " stroke="black" fill="none" stroke-width="5.0" stroke-linecap="round" stroke-linejoin="round" />
<path d="M 161.0 155.0 L 161.0 156.0 L 162.0 156.0 L 164.0 157.0 L 169.0 157.0 L 177.0 156.0 L 185.0 155.0 " stroke="black" fill="none" stroke-width="5.0" stroke-linecap="round" stroke-linejoin="round" />
<path d="M 158.0 178.0 L 159.0 178.0 L 161.0 178.0 L 163.0 178.0 L 166.0 178.0 L 171.0 178.0 L 176.0 178.0 L 181.0 177.0 L 185.0 177.0 L 186.0 177.0 L 187.0 180.0 L 188.0 185.0 L 190.0 190.0 L 191.0 196.0 L 192.0 199.0 L 192.0 200.0 " stroke="black" fill="none" stroke-width="5.0" stroke-linecap="round" stroke-linejoin="round" />
<path d="M 157.0 182.0 L 158.0 181.0 L 158.0 181.0 L 158.0 184.0 L 159.0 190.0 L 159.0 196.0 L 160.0 198.0 " stroke="black" fill="none" stroke-width="5.0" stroke-linecap="round" stroke-linejoin="round" />
<path d="M 161.0 189.0 L 162.0 189.0 L 164.0 189.0 L 167.0 189.0 L 171.0 189.0 L 178.0 189.0 L 184.0 189.0 L 188.0 189.0 L 188.0 189.0 " stroke="black" fill="none" stroke-width="5.0" stroke-linecap="round" stroke-linejoin="round" />
<path d="M 162.0 201.0 L 163.0 202.0 L 165.0 204.0 L 172.0 204.0 L 183.0 204.0 L 190.0 202.0 " stroke="black" fill="none" stroke-width="5.0" stroke-linecap="round" stroke-linejoin="round" />
</svg>