<svg xmlns="http://www.w3.org/2000/svg" width="300" height="300" viewBox="0 0 300 300">
<path d="M 135.0 109.0 L 135.0 109.0 L 135.0 110.0 L 134.0 112.0 L 132.0 117.0 L 127.0 125.0 L 121.0 132.0 " stroke="black" fill="none" stroke-width="5.0" stroke-linecap="round" stroke-linejoin="round" />
<path d="M 114.0 146.0 L 114.0 146.0 L 114.0 146.0 L 114.0 146.0 L 117.0 145.0 L 124.0 144.0 L 135.0 143.0 L 140.0 143.0 " stroke="black" fill="none" stroke-width="5.0" stroke-linecap="round" stroke-linejoin="round" />
<path d="M 135.0 126.0 L 134.0 126.0 L 133.0 126.0 L 132.0 126.0 L 132.0 128.0 L 133.0 136.0 L 134.0 151.0 L 135.0 168.0 L 135.0 180.0 " stroke="black" fill="none" stroke-width="5.0" stroke-linecap="round" stroke-linejoin="round" />
<path d="M 132.0 151.0 L 132.0 151.0 L 131.0 152.0 L 130.0 153.0 L 128.0 155.0 L 124.0 160.0 L 117.0 167.0 L 113.0 171.0 " stroke="black" fill="none" stroke-width="5.0" stroke-linecap="round" stroke-linejoin="round" />
<path d="M 132.0 156.0 L 133.0 157.0 L 135.0 158.0 L 140.0 161.0 L 147.0 166.0 L 149.0 167.0 " stroke="black" fill="none" stroke-width="5.0" stroke-linecap="round" stroke-linejoin="round" />
<path d="M 153.0 113.0 L 153.0 113.0 L 154.0 112.0 L 155.0 112.0 L 157.0 111.0 L 162.0 111.0 L 169.0 109.0 L 170.0 109.0 " stroke="black" fill="none" stroke-width="5.0" stroke-linecap="round" stroke-linejoin="round" />
<path d="M 152.0 126.0 L 153.0 126.0 L 154.0 126.0 L 156.0 126.0 L 161.0 126.0 L 168.0 124.0 L 172.0 124.0 " stroke="black" fill="none" stroke-width="5.0" stroke-linecap="round" stroke-linejoin="round" />
<path d="M 146.0 142.0 L 147.0 142.0 L 148.0 141.0 L 152.0 141.0 L 159.0 139.0 L 171.0 137.0 L 181.0 136.0 L 183.0 136.0 " stroke="black" fill="none" stroke-width="5.0" stroke-linecap="round" stroke-linejoin="round" />
<path d="M 156.0 103.0 L 156.0 103.0 L 156.0 103.0 L 157.0 104.0 L 157.0 107.0 L 159.0 114.0 L 160.0 126.0 L 160.0 134.0 " stroke="black" fill="none" stroke-width="5.0" stroke-linecap="round" stroke-linejoin="round" />
<path d="M 154.0 150.0 L 154.0 150.0 L 153.0 149.0 L 153.0 149.0 L 153.0 149.0 L 153.0 151.0 L 153.0 157.0 L 153.0 166.0 L 153.0 173.0 L 153.0 175.0 " stroke="black" fill="none" stroke-width="5.0" stroke-linecap="round" stroke-linejoin="round" />
<path d="M 154.0 150.0 L 154.0 152.0 L 154.0 153.0 L 157.0 153.0 L 161.0 151.0 L 166.0 149.0 L 170.0 149.0 L 173.0 149.0 L 176.0 149.0 L 178.0 151.0 L 180.0 157.0 L 181.0 167.0 L 182.0 177.0 L 183.0 183.0 L 183.0 185.0 " stroke="black" fill="none" stroke-width="5.0" stroke-linecap="round" stroke-linejoin="round" />
<path d="M 155.0 161.0 L 155.0 161.0 L 154.0 161.0 L 154.0 161.0 L 154.0 161.0 L 157.0 161.0 L 163.0 160.0 L 170.0 159.0 L 176.0 159.0 L 178.0 159.0 L 178.0 160.0 " stroke="black" fill="none" stroke-width="5.0" stroke-linecap="round" stroke-linejoin="round" />
<path d="M 156.0 170.0 L 157.0 170.0 L 158.0 170.0 L 162.0 170.0 L 167.0 170.0 L 174.0 170.0 L 178.0 170.0 L 179.0 170.0 " stroke="black" fill="none" stroke-width="5.0" stroke-linecap="round" stroke-linejoin="round" />
<path d="M 151.0 183.0 L 152.0 183.0 L 154.0 184.0 L 157.0 185.0 L 166.0 184.0 L 175.0 183.0 L 180.0 183.0 " stroke="black" fill="none" stroke-width="5.0" stroke-linecap="round" stroke-linejoin="round" />
<path d="M 161.0 189.0 L 161.0 189.0 L 161.0 189.0 L 161.0 189.0 L 160.0 193.0 L 158.0 199.0 L 157.0 201.0 " stroke="black" fill="none" stroke-width="5.0" stroke-linecap="round" stroke-linejoin="round" />
<path d="M 170.0 190.0 L 170.0 190.0 L 171.0 190.0 L 172.0 190.0 L 175.0 193.0 L 179.0 199.0 L 183.0 204.0 " stroke="black" fill="none" stroke-width="5.0" stroke-linecap="round" stroke-linejoin="round" />
</svg>