<svg xmlns="http://www.w3.org/2000/svg" width="300" height="300" viewBox="0 0 300 300">
<path d="M 127.0 114.0 L 127.0 114.0 L 127.0 114.0 L 126.0 114.0 L 126.0 115.0 L 124.0 119.0 L 120.0 128.0 L 111.0 140.0 L 106.0 147.0 " stroke="black" fill="none" stroke-width="5.0" stroke-linecap="round" stroke-linejoin="round" />
<path d="M 102.0 157.0 L 102.0 157.0 L 102.0 157.0 L 102.0 158.0 L 106.0 158.0 L 116.0 156.0 L 128.0 153.0 L 136.0 152.0 L 138.0 152.0 " stroke="black" fill="none" stroke-width="5.0" stroke-linecap="round" stroke-linejoin="round" />
<path d="M 120.0 131.0 L 120.0 131.0 L 120.0 130.0 L 121.0 130.0 L 121.0 134.0 L 121.0 145.0 L 122.0 164.0 L 123.0 185.0 L 124.0 196.0 L 125.0 201.0 L 125.0 201.0 " stroke="black" fill="none" stroke-width="5.0" stroke-linecap="round" stroke-linejoin="round" />
<path d="M 122.0 159.0 L 122.0 159.0 L 122.0 160.0 L 121.0 160.0 L 119.0 162.0 L 116.0 168.0 L 110.0 178.0 L 102.0 190.0 " stroke="black" fill="none" stroke-width="5.0" stroke-linecap="round" stroke-linejoin="round" />
<path d="M 120.0 162.0 L 121.0 164.0 L 124.0 167.0 L 132.0 176.0 L 141.0 185.0 L 144.0 188.0 " stroke="black" fill="none" stroke-width="5.0" stroke-linecap="round" stroke-linejoin="round" />
<path d="M 147.0 113.0 L 147.0 113.0 L 147.0 114.0 L 146.0 118.0 L 146.0 126.0 L 147.0 135.0 L 148.0 140.0 " stroke="black" fill="none" stroke-width="5.0" stroke-linecap="round" stroke-linejoin="round" />
<path d="M 148.0 111.0 L 148.0 111.0 L 148.0 110.0 L 148.0 110.0 L 149.0 109.0 L 153.0 109.0 L 158.0 108.0 L 164.0 109.0 L 169.0 111.0 L 171.0 116.0 L 173.0 123.0 L 175.0 130.0 L 175.0 134.0 " stroke="black" fill="none" stroke-width="5.0" stroke-linecap="round" stroke-linejoin="round" />
<path d="M 151.0 126.0 L 151.0 126.0 L 151.0 126.0 L 151.0 126.0 L 152.0 126.0 L 158.0 126.0 L 164.0 126.0 L 167.0 126.0 " stroke="black" fill="none" stroke-width="5.0" stroke-linecap="round" stroke-linejoin="round" />
<path d="M 155.0 114.0 L 155.0 114.0 L 155.0 115.0 L 155.0 118.0 L 156.0 123.0 L 157.0 130.0 " stroke="black" fill="none" stroke-width="5.0" stroke-linecap="round" stroke-linejoin="round" />
<path d="M 147.0 141.0 L 147.0 141.0 L 147.0 141.0 L 149.0 142.0 L 157.0 142.0 L 167.0 141.0 L 172.0 140.0 " stroke="black" fill="none" stroke-width="5.0" stroke-linecap="round" stroke-linejoin="round" />
<path d="M 154.0 145.0 L 154.0 145.0 L 154.0 145.0 L 154.0 145.0 L 154.0 145.0 L 154.0 148.0 L 152.0 154.0 L 149.0 160.0 L 149.0 162.0 " stroke="black" fill="none" stroke-width="5.0" stroke-linecap="round" stroke-linejoin="round" />
<path d="M 167.0 142.0 L 167.0 141.0 L 167.0 141.0 L 167.0 142.0 L 167.0 146.0 L 169.0 150.0 L 174.0 153.0 L 179.0 154.0 " stroke="black" fill="none" stroke-width="5.0" stroke-linecap="round" stroke-linejoin="round" />
<path d="M 163.0 155.0 L 163.0 155.0 L 163.0 155.0 L 162.0 157.0 L 160.0 160.0 L 156.0 167.0 L 153.0 175.0 L 151.0 177.0 " stroke="black" fill="none" stroke-width="5.0" stroke-linecap="round" stroke-linejoin="round" />
<path d="M 159.0 165.0 L 160.0 165.0 L 161.0 165.0 L 164.0 165.0 L 169.0 165.0 L 173.0 164.0 L 176.0 165.0 L 176.0 170.0 L 174.0 178.0 L 168.0 187.0 L 162.0 195.0 L 159.0 199.0 " stroke="black" fill="none" stroke-width="5.0" stroke-linecap="round" stroke-linejoin="round" />
<path d="M 155.0 173.0 L 156.0 173.0 L 156.0 173.0 L 160.0 176.0 L 169.0 185.0 L 180.0 197.0 L 188.0 206.0 L 190.0 208.0 " stroke="black" fill="none" stroke-width="5.0" stroke-linecap="round" stroke-linejoin="round" />
</svg>