<svg xmlns="http://www.w3.org/2000/svg" width="300" height="300" viewBox="0 0 300 300">
<circle cx="112.0" cy="127.0" r="2.5" fill="black" />
<path d="M 114.0 130.0 L 114.0 130.0 L 115.0 129.0 L 115.0 129.0 L 117.0 132.0 L 120.0 139.0 " stroke="black" fill="none" stroke-width="5.0" stroke-linecap="round" stroke-linejoin="round" />
<path d="M 104.0 148.0 L 104.0 148.0 L 104.0 148.0 L 104.0 148.0 L 104.0 148.0 L 107.0 148.0 L 115.0 147.0 L 126.0 144.0 L 128.0 144.0 " stroke="black" fill="none" stroke-width="5.0" stroke-linecap="round" stroke-linejoin="round" />
<path d="M 109.0 147.0 L 109.0 147.0 L 109.0 149.0 L 110.0 152.0 L 110.0 159.0 L 111.0 168.0 L 113.0 173.0 " stroke="black" fill="none" stroke-width="5.0" stroke-linecap="round" stroke-linejoin="round" />
<path d="M 122.0 148.0 L 123.0 148.0 L 123.0 148.0 L 123.0 148.0 L 124.0 155.0 L 124.0 166.0 L 125.0 174.0 " stroke="black" fill="none" stroke-width="5.0" stroke-linecap="round" stroke-linejoin="round" />
<path d="M 100.0 180.0 L 99.0 180.0 L 99.0 180.0 L 100.0 180.0 L 107.0 180.0 L 122.0 179.0 L 136.0 178.0 " stroke="black" fill="none" stroke-width="5.0" stroke-linecap="round" stroke-linejoin="round" />
<path d="M 152.0 116.0 L 152.0 116.0 L 152.0 116.0 L 152.0 116.0 L 153.0 116.0 L 156.0 120.0 L 160.0 124.0 " stroke="black" fill="none" stroke-width="5.0" stroke-linecap="round" stroke-linejoin="round" />
<path d="M 139.0 135.0 L 139.0 135.0 L 139.0 135.0 L 140.0 135.0 L 145.0 136.0 L 157.0 136.0 L 171.0 134.0 L 181.0 133.0 L 182.0 133.0 " stroke="black" fill="none" stroke-width="5.0" stroke-linecap="round" stroke-linejoin="round" />
<path d="M 149.0 139.0 L 149.0 140.0 L 148.0 142.0 L 148.0 150.0 L 149.0 165.0 L 152.0 180.0 L 154.0 186.0 " stroke="black" fill="none" stroke-width="5.0" stroke-linecap="round" stroke-linejoin="round" />
<path d="M 169.0 139.0 L 169.0 140.0 L 169.0 143.0 L 169.0 151.0 L 171.0 164.0 L 172.0 175.0 " stroke="black" fill="none" stroke-width="5.0" stroke-linecap="round" stroke-linejoin="round" />
<path d="M 133.0 194.0 L 133.0 194.0 L 133.0 194.0 L 133.0 194.0 L 140.0 194.0 L 158.0 193.0 L 182.0 189.0 L 198.0 187.0 L 199.0 187.0 " stroke="black" fill="none" stroke-width="5.0" stroke-linecap="round" stroke-linejoin="round" />
</svg>