<svg xmlns="http://www.w3.org/2000/svg" width="300" height="300" viewBox="0 0 300 300">
<path d="M 122.0 113.0 L 122.0 113.0 L 122.0 113.0 L 122.0 113.0 L 122.0 113.0 L 122.0 113.0 L 121.0 116.0 L 117.0 123.0 L 111.0 131.0 " stroke="black" fill="none" stroke-width="5.0" stroke-linecap="round" stroke-linejoin="round" />
<path d="M 101.0 151.0 L 101.0 151.0 L 101.0 151.0 L 102.0 151.0 L 106.0 151.0 L 114.0 150.0 L 124.0 148.0 L 131.0 147.0 L 134.0 147.0 " stroke="black" fill="none" stroke-width="5.0" stroke-linecap="round" stroke-linejoin="round" />
<path d="M 115.0 128.0 L 115.0 128.0 L 115.0 128.0 L 115.0 128.0 L 115.0 130.0 L 115.0 140.0 L 115.0 159.0 L 115.0 181.0 L 115.0 195.0 L 117.0 201.0 L 117.0 202.0 " stroke="black" fill="none" stroke-width="5.0" stroke-linecap="round" stroke-linejoin="round" />
<path d="M 116.0 153.0 L 116.0 153.0 L 116.0 153.0 L 115.0 153.0 L 114.0 154.0 L 112.0 157.0 L 108.0 164.0 L 100.0 173.0 L 93.0 182.0 L 91.0 184.0 " stroke="black" fill="none" stroke-width="5.0" stroke-linecap="round" stroke-linejoin="round" />
<path d="M 115.0 159.0 L 117.0 159.0 L 119.0 160.0 L 123.0 164.0 L 130.0 173.0 L 137.0 181.0 L 141.0 185.0 " stroke="black" fill="none" stroke-width="5.0" stroke-linecap="round" stroke-linejoin="round" />
<path d="M 146.0 118.0 L 146.0 118.0 L 146.0 118.0 L 147.0 118.0 L 150.0 118.0 L 159.0 117.0 L 170.0 116.0 L 177.0 116.0 L 179.0 116.0 " stroke="black" fill="none" stroke-width="5.0" stroke-linecap="round" stroke-linejoin="round" />
<path d="M 160.0 103.0 L 160.0 103.0 L 160.0 103.0 L 160.0 103.0 L 160.0 107.0 L 162.0 118.0 L 164.0 133.0 L 166.0 145.0 L 166.0 151.0 L 166.0 151.0 " stroke="black" fill="none" stroke-width="5.0" stroke-linecap="round" stroke-linejoin="round" />
<path d="M 150.0 122.0 L 150.0 122.0 L 150.0 122.0 L 150.0 122.0 L 150.0 123.0 L 150.0 127.0 L 149.0 134.0 L 147.0 141.0 L 146.0 142.0 " stroke="black" fill="none" stroke-width="5.0" stroke-linecap="round" stroke-linejoin="round" />
<path d="M 150.0 133.0 L 150.0 133.0 L 150.0 133.0 L 151.0 133.0 L 152.0 134.0 L 156.0 137.0 L 160.0 139.0 " stroke="black" fill="none" stroke-width="5.0" stroke-linecap="round" stroke-linejoin="round" />
<path d="M 179.0 124.0 L 178.0 125.0 L 177.0 128.0 L 176.0 131.0 L 173.0 136.0 L 171.0 141.0 L 169.0 143.0 " stroke="black" fill="none" stroke-width="5.0" stroke-linecap="round" stroke-linejoin="round" />
<path d="M 175.0 132.0 L 175.0 132.0 L 175.0 133.0 L 177.0 134.0 L 180.0 136.0 L 184.0 140.0 L 185.0 140.0 " stroke="black" fill="none" stroke-width="5.0" stroke-linecap="round" stroke-linejoin="round" />
<path d="M 143.0 157.0 L 143.0 157.0 L 142.0 157.0 L 141.0 157.0 L 142.0 158.0 L 149.0 158.0 L 162.0 159.0 L 178.0 158.0 L 190.0 157.0 L 195.0 157.0 L 195.0 157.0 L 195.0 157.0 " stroke="black" fill="none" stroke-width="5.0" stroke-linecap="round" stroke-linejoin="round" />
<path d="M 150.0 171.0 L 150.0 171.0 L 150.0 171.0 L 150.0 171.0 L 150.0 171.0 L 150.0 176.0 L 150.0 185.0 L 150.0 194.0 L 151.0 200.0 L 151.0 200.0 " stroke="black" fill="none" stroke-width="5.0" stroke-linecap="round" stroke-linejoin="round" />
<path d="M 149.0 169.0 L 149.0 169.0 L 149.0 169.0 L 149.0 169.0 L 152.0 169.0 L 158.0 169.0 L 168.0 169.0 L 177.0 168.0 L 183.0 168.0 L 186.0 167.0 L 187.0 168.0 L 188.0 171.0 L 189.0 178.0 L 190.0 187.0 L 191.0 194.0 L 191.0 199.0 L 191.0 200.0 " stroke="black" fill="none" stroke-width="5.0" stroke-linecap="round" stroke-linejoin="round" />
<path d="M 159.0 182.0 L 159.0 182.0 L 159.0 182.0 L 159.0 183.0 L 159.0 184.0 L 160.0 185.0 L 160.0 186.0 " stroke="black" fill="none" stroke-width="5.0" stroke-linecap="round" stroke-linejoin="round" />
<path d="M 160.0 181.0 L 161.0 181.0 L 163.0 181.0 L 164.0 180.0 L 166.0 180.0 L 169.0 180.0 L 172.0 182.0 L 174.0 185.0 L 175.0 189.0 L 175.0 191.0 L 174.0 192.0 " stroke="black" fill="none" stroke-width="5.0" stroke-linecap="round" stroke-linejoin="round" />
<path d="M 161.0 191.0 L 161.0 191.0 L 161.0 191.0 L 162.0 192.0 L 163.0 192.0 L 167.0 193.0 L 171.0 194.0 L 173.0 194.0 " stroke="black" fill="none" stroke-width="5.0" stroke-linecap="round" stroke-linejoin="round" />
<path d="M 152.0 207.0 L 153.0 208.0 L 155.0 208.0 L 160.0 208.0 L 169.0 208.0 L 179.0 208.0 L 186.0 208.0 L 188.0 208.0 " stroke="black" fill="none" stroke-width="5.0" stroke-linecap="round" stroke-linejoin="round" />
</svg>