<svg xmlns="http://www.w3.org/2000/svg" width="300" height="300" viewBox="0 0 300 300">
<path d="M 131.42857142857144 109.28571428571432 L 132.14285714285717 110.00000000000001 L 132.8571428571429 110.00000000000001 L 132.8571428571429 110.71428571428574 L 132.8571428571429 112.14285714285718 L 130.00000000000006 115.00000000000001 L 125.00000000000001 120.71428571428574 L 123.5714285714286 122.85714285714288 " stroke="black" fill="none" stroke-width="5.0" stroke-linecap="round" stroke-linejoin="round" />
<path d="M 115.71428571428574 138.5714285714286 L 115.71428571428574 138.5714285714286 L 116.42857142857146 138.5714285714286 L 117.85714285714288 138.5714285714286 L 120.71428571428574 137.8571428571429 L 127.14285714285718 136.42857142857144 L 136.42857142857144 135.00000000000006 L 143.5714285714286 132.14285714285717 L 145.00000000000006 131.42857142857144 " stroke="black" fill="none" stroke-width="5.0" stroke-linecap="round" stroke-linejoin="round" />
<path d="M 131.42857142857144 118.5714285714286 L 131.42857142857144 118.5714285714286 L 131.42857142857144 118.5714285714286 L 131.42857142857144 118.5714285714286 L 131.42857142857144 120.71428571428574 L 131.42857142857144 130.00000000000006 L 132.14285714285717 147.8571428571429 L 132.8571428571429 164.28571428571433 L 132.8571428571429 175.71428571428578 L 133.5714285714286 179.28571428571433 " stroke="black" fill="none" stroke-width="5.0" stroke-linecap="round" stroke-linejoin="round" />
<path d="M 132.8571428571429 140.00000000000006 L 132.8571428571429 140.00000000000006 L 133.5714285714286 140.00000000000006 L 133.5714285714286 140.71428571428572 L 132.14285714285717 142.8571428571429 L 128.5714285714286 148.5714285714286 L 122.14285714285718 157.14285714285717 L 116.42857142857146 165.00000000000006 L 115.71428571428574 166.42857142857144 " stroke="black" fill="none" stroke-width="5.0" stroke-linecap="round" stroke-linejoin="round" />
<path d="M 132.14285714285717 145.00000000000006 L 132.8571428571429 146.42857142857144 L 135.00000000000006 150.00000000000006 L 140.71428571428572 155.71428571428572 L 147.14285714285717 160.00000000000006 L 148.5714285714286 160.71428571428572 " stroke="black" fill="none" stroke-width="5.0" stroke-linecap="round" stroke-linejoin="round" />
<path d="M 161.42857142857144 105.71428571428574 L 161.42857142857144 105.71428571428574 L 161.42857142857144 105.71428571428574 L 160.00000000000006 107.85714285714288 L 155.71428571428572 112.14285714285718 L 151.42857142857144 116.42857142857146 " stroke="black" fill="none" stroke-width="5.0" stroke-linecap="round" stroke-linejoin="round" />
<path d="M 147.14285714285717 122.14285714285718 L 147.14285714285717 122.14285714285718 L 147.8571428571429 123.5714285714286 L 148.5714285714286 125.00000000000001 L 150.00000000000006 128.5714285714286 L 150.71428571428572 129.28571428571433 " stroke="black" fill="none" stroke-width="5.0" stroke-linecap="round" stroke-linejoin="round" />
<path d="M 158.5714285714286 119.28571428571432 L 158.5714285714286 119.28571428571432 L 158.5714285714286 119.28571428571432 L 158.5714285714286 119.28571428571432 L 158.5714285714286 119.28571428571432 L 158.5714285714286 121.42857142857146 L 159.28571428571433 124.28571428571432 L 160.00000000000006 125.00000000000001 " stroke="black" fill="none" stroke-width="5.0" stroke-linecap="round" stroke-linejoin="round" />
<path d="M 174.28571428571433 115.71428571428574 L 173.5714285714286 115.00000000000001 L 172.14285714285717 115.71428571428574 L 170.71428571428572 120.71428571428574 L 169.28571428571433 126.42857142857146 " stroke="black" fill="none" stroke-width="5.0" stroke-linecap="round" stroke-linejoin="round" />
<path d="M 151.42857142857144 143.5714285714286 L 151.42857142857144 143.5714285714286 L 151.42857142857144 142.8571428571429 L 151.42857142857144 142.8571428571429 L 151.42857142857144 147.14285714285717 L 152.14285714285717 156.42857142857144 L 152.8571428571429 170.71428571428572 L 154.28571428571433 182.14285714285717 L 155.71428571428572 186.42857142857144 L 155.71428571428572 186.42857142857144 " stroke="black" fill="none" stroke-width="5.0" stroke-linecap="round" stroke-linejoin="round" />
<path d="M 152.14285714285717 142.14285714285717 L 152.14285714285717 142.14285714285717 L 152.14285714285717 142.14285714285717 L 151.42857142857144 142.14285714285717 L 152.14285714285717 142.14285714285717 L 156.42857142857144 141.42857142857144 L 162.8571428571429 140.71428571428572 L 169.28571428571433 140.00000000000006 L 173.5714285714286 140.00000000000006 L 176.42857142857144 142.14285714285717 L 177.8571428571429 147.8571428571429 L 179.28571428571433 156.42857142857144 L 181.42857142857144 167.14285714285717 L 183.5714285714286 177.8571428571429 L 185.00000000000006 186.42857142857144 L 185.00000000000006 192.8571428571429 L 185.00000000000006 195.71428571428578 L 182.14285714285717 196.4285714285715 L 177.8571428571429 195.71428571428578 L 171.42857142857144 192.14285714285722 L 170.00000000000006 190.00000000000006 " stroke="black" fill="none" stroke-width="5.0" stroke-linecap="round" stroke-linejoin="round" />
<path d="M 146.42857142857144 162.14285714285717 L 146.42857142857144 162.14285714285717 L 146.42857142857144 162.14285714285717 L 147.8571428571429 162.14285714285717 L 154.28571428571433 162.14285714285717 L 165.71428571428572 162.14285714285717 L 178.5714285714286 162.14285714285717 L 185.71428571428578 162.8571428571429 L 188.5714285714286 162.8571428571429 " stroke="black" fill="none" stroke-width="5.0" stroke-linecap="round" stroke-linejoin="round" />
<path d="M 154.28571428571433 150.00000000000006 L 154.28571428571433 150.00000000000006 L 154.28571428571433 150.00000000000006 L 155.71428571428572 150.00000000000006 L 162.14285714285717 149.28571428571433 L 172.14285714285717 148.5714285714286 L 177.8571428571429 148.5714285714286 " stroke="black" fill="none" stroke-width="5.0" stroke-linecap="round" stroke-linejoin="round" />
<path d="M 163.5714285714286 130.71428571428572 L 163.5714285714286 130.71428571428572 L 163.5714285714286 132.8571428571429 L 163.5714285714286 137.14285714285717 L 165.71428571428572 145.71428571428572 L 167.8571428571429 152.8571428571429 L 168.5714285714286 154.28571428571433 " stroke="black" fill="none" stroke-width="5.0" stroke-linecap="round" stroke-linejoin="round" />
</svg>