<svg xmlns="http://www.w3.org/2000/svg" width="300" height="300" viewBox="0 0 300 300">
<path d="M 147.0 95.0 L 148.0 95.0 L 148.0 95.0 L 148.0 95.0 L 149.0 96.0 L 151.0 100.0 L 154.0 104.0 L 155.0 105.0 " stroke="black" fill="none" stroke-width="5.0" stroke-linecap="round" stroke-linejoin="round" />
<path d="M 129.0 114.0 L 129.0 114.0 L 129.0 114.0 L 132.0 114.0 L 140.0 114.0 L 153.0 114.0 L 167.0 113.0 L 177.0 112.0 L 179.0 112.0 " stroke="black" fill="none" stroke-width="5.0" stroke-linecap="round" stroke-linejoin="round" />
<path d="M 142.0 118.0 L 142.0 118.0 L 142.0 119.0 L 142.0 120.0 L 142.0 123.0 L 143.0 124.0 " stroke="black" fill="none" stroke-width="5.0" stroke-linecap="round" stroke-linejoin="round" />
<path d="M 162.0 115.0 L 162.0 116.0 L 161.0 118.0 L 160.0 120.0 L 159.0 124.0 L 158.0 127.0 " stroke="black" fill="none" stroke-width="5.0" stroke-linecap="round" stroke-linejoin="round" />
<path d="M 121.0 135.0 L 121.0 135.0 L 122.0 135.0 L 130.0 134.0 L 146.0 133.0 L 163.0 132.0 L 176.0 131.0 L 181.0 131.0 L 182.0 131.0 L 181.0 132.0 " stroke="black" fill="none" stroke-width="5.0" stroke-linecap="round" stroke-linejoin="round" />
<path d="M 133.0 150.0 L 133.0 150.0 L 133.0 149.0 L 133.0 149.0 L 133.0 150.0 L 133.0 156.0 L 135.0 163.0 L 136.0 166.0 " stroke="black" fill="none" stroke-width="5.0" stroke-linecap="round" stroke-linejoin="round" />
<path d="M 131.0 148.0 L 131.0 148.0 L 131.0 148.0 L 132.0 148.0 L 137.0 148.0 L 146.0 147.0 L 159.0 146.0 L 169.0 145.0 L 174.0 147.0 L 174.0 153.0 L 174.0 159.0 L 174.0 163.0 L 174.0 166.0 L 174.0 167.0 " stroke="black" fill="none" stroke-width="5.0" stroke-linecap="round" stroke-linejoin="round" />
<path d="M 138.0 160.0 L 138.0 160.0 L 138.0 160.0 L 139.0 160.0 L 144.0 160.0 L 153.0 160.0 L 163.0 159.0 L 169.0 159.0 L 170.0 159.0 L 169.0 159.0 " stroke="black" fill="none" stroke-width="5.0" stroke-linecap="round" stroke-linejoin="round" />
<path d="M 133.0 171.0 L 136.0 171.0 L 139.0 172.0 L 147.0 172.0 L 158.0 173.0 L 169.0 173.0 L 173.0 174.0 L 173.0 174.0 " stroke="black" fill="none" stroke-width="5.0" stroke-linecap="round" stroke-linejoin="round" />
<path d="M 115.0 193.0 L 116.0 193.0 L 118.0 193.0 L 127.0 193.0 L 144.0 193.0 L 161.0 193.0 L 178.0 194.0 L 189.0 195.0 L 196.0 195.0 L 197.0 195.0 " stroke="black" fill="none" stroke-width="5.0" stroke-linecap="round" stroke-linejoin="round" />
<path d="M 152.0 172.0 L 152.0 172.0 L 152.0 172.0 L 153.0 176.0 L 155.0 188.0 L 158.0 205.0 L 160.0 217.0 L 161.0 220.0 " stroke="black" fill="none" stroke-width="5.0" stroke-linecap="round" stroke-linejoin="round" />
</svg>