<svg xmlns="http://www.w3.org/2000/svg" width="300" height="300" viewBox="0 0 300 300">
<path d="M 139.0 110.0 L 139.0 110.0 L 139.0 110.0 L 139.0 110.0 L 140.0 112.0 L 144.0 119.0 L 149.0 128.0 L 150.0 130.0 " stroke="black" fill="none" stroke-width="5.0" stroke-linecap="round" stroke-linejoin="round" />
<path d="M 119.0 141.0 L 120.0 141.0 L 120.0 141.0 L 123.0 140.0 L 134.0 139.0 L 152.0 137.0 L 167.0 136.0 L 176.0 135.0 L 178.0 135.0 " stroke="black" fill="none" stroke-width="5.0" stroke-linecap="round" stroke-linejoin="round" />
<path d="M 137.0 143.0 L 137.0 143.0 L 137.0 145.0 L 137.0 149.0 L 137.0 158.0 L 139.0 168.0 L 140.0 172.0 " stroke="black" fill="none" stroke-width="5.0" stroke-linecap="round" stroke-linejoin="round" />
<path d="M 164.0 142.0 L 164.0 142.0 L 163.0 142.0 L 162.0 144.0 L 162.0 150.0 L 162.0 163.0 L 161.0 171.0 " stroke="black" fill="none" stroke-width="5.0" stroke-linecap="round" stroke-linejoin="round" />
<path d="M 114.0 183.0 L 114.0 183.0 L 114.0 183.0 L 117.0 183.0 L 132.0 182.0 L 155.0 180.0 L 177.0 180.0 L 190.0 180.0 L 195.0 182.0 L 196.0 182.0 L 195.0 183.0 " stroke="black" fill="none" stroke-width="5.0" stroke-linecap="round" stroke-linejoin="round" />
</svg>