<svg xmlns="http://www.w3.org/2000/svg" width="300" height="300" viewBox="0 0 300 300">
<path d="M 126.0 107.0 L 126.0 107.0 L 127.0 107.0 L 127.0 106.0 L 127.0 106.0 L 128.0 106.0 L 128.0 106.0 L 128.0 110.0 L 128.0 115.0 L 125.0 123.0 L 121.0 130.0 " stroke="black" fill="none" stroke-width="5.0" stroke-linecap="round" stroke-linejoin="round" />
<path d="M 127.0 119.0 L 127.0 119.0 L 127.0 119.0 L 127.0 119.0 L 128.0 119.0 L 131.0 119.0 L 136.0 118.0 L 141.0 118.0 L 142.0 118.0 " stroke="black" fill="none" stroke-width="5.0" stroke-linecap="round" stroke-linejoin="round" />
<path d="M 132.0 125.0 L 132.0 125.0 L 132.0 125.0 L 132.0 125.0 L 132.0 126.0 L 134.0 129.0 L 137.0 134.0 L 140.0 136.0 " stroke="black" fill="none" stroke-width="5.0" stroke-linecap="round" stroke-linejoin="round" />
<path d="M 156.0 103.0 L 156.0 105.0 L 156.0 108.0 L 156.0 113.0 L 156.0 120.0 L 154.0 127.0 L 153.0 130.0 " stroke="black" fill="none" stroke-width="5.0" stroke-linecap="round" stroke-linejoin="round" />
<path d="M 156.0 116.0 L 156.0 116.0 L 156.0 116.0 L 156.0 116.0 L 159.0 116.0 L 163.0 115.0 L 167.0 114.0 L 168.0 114.0 " stroke="black" fill="none" stroke-width="5.0" stroke-linecap="round" stroke-linejoin="round" />
<path d="M 164.0 124.0 L 165.0 125.0 L 167.0 127.0 L 170.0 130.0 L 171.0 133.0 " stroke="black" fill="none" stroke-width="5.0" stroke-linecap="round" stroke-linejoin="round" />
<path d="M 124.0 147.0 L 124.0 147.0 L 124.0 147.0 L 124.0 147.0 L 124.0 147.0 L 126.0 147.0 L 129.0 147.0 L 133.0 147.0 L 136.0 147.0 L 139.0 147.0 L 141.0 147.0 L 142.0 147.0 L 143.0 148.0 L 143.0 150.0 L 143.0 155.0 L 143.0 161.0 L 144.0 166.0 L 144.0 169.0 L 144.0 169.0 " stroke="black" fill="none" stroke-width="5.0" stroke-linecap="round" stroke-linejoin="round" />
<path d="M 127.0 157.0 L 127.0 157.0 L 127.0 157.0 L 127.0 157.0 L 130.0 157.0 L 135.0 157.0 L 139.0 157.0 L 141.0 157.0 " stroke="black" fill="none" stroke-width="5.0" stroke-linecap="round" stroke-linejoin="round" />
<path d="M 121.0 170.0 L 121.0 170.0 L 122.0 171.0 L 124.0 171.0 L 128.0 171.0 L 135.0 169.0 L 141.0 167.0 L 142.0 167.0 " stroke="black" fill="none" stroke-width="5.0" stroke-linecap="round" stroke-linejoin="round" />
<path d="M 126.0 152.0 L 126.0 152.0 L 126.0 152.0 L 125.0 152.0 L 125.0 153.0 L 123.0 157.0 L 121.0 167.0 L 118.0 180.0 L 116.0 192.0 L 116.0 198.0 L 118.0 199.0 L 123.0 198.0 L 131.0 194.0 L 137.0 189.0 L 139.0 188.0 " stroke="black" fill="none" stroke-width="5.0" stroke-linecap="round" stroke-linejoin="round" />
<path d="M 134.0 181.0 L 134.0 181.0 L 134.0 180.0 L 134.0 179.0 L 137.0 180.0 L 141.0 185.0 L 145.0 191.0 L 149.0 196.0 " stroke="black" fill="none" stroke-width="5.0" stroke-linecap="round" stroke-linejoin="round" />
<path d="M 156.0 150.0 L 156.0 150.0 L 157.0 150.0 L 158.0 150.0 L 161.0 150.0 L 165.0 150.0 L 170.0 150.0 L 174.0 150.0 L 176.0 150.0 L 178.0 151.0 L 178.0 155.0 L 180.0 162.0 L 181.0 169.0 L 182.0 174.0 L 182.0 175.0 L 181.0 176.0 L 178.0 174.0 L 173.0 172.0 " stroke="black" fill="none" stroke-width="5.0" stroke-linecap="round" stroke-linejoin="round" />
<path d="M 157.0 149.0 L 157.0 149.0 L 156.0 153.0 L 156.0 159.0 L 157.0 174.0 L 159.0 193.0 L 160.0 205.0 L 161.0 210.0 L 160.0 210.0 " stroke="black" fill="none" stroke-width="5.0" stroke-linecap="round" stroke-linejoin="round" />
</svg>