<svg xmlns="http://www.w3.org/2000/svg" width="300" height="300" viewBox="0 0 300 300">
<path d="M 132.0 105.0 L 132.0 105.0 L 132.0 104.0 L 132.0 104.0 L 132.0 104.0 L 132.0 105.0 L 131.0 110.0 L 128.0 117.0 L 123.0 125.0 L 121.0 127.0 " stroke="black" fill="none" stroke-width="5.0" stroke-linecap="round" stroke-linejoin="round" />
<path d="M 129.0 117.0 L 129.0 117.0 L 129.0 117.0 L 129.0 117.0 L 132.0 117.0 L 136.0 116.0 L 141.0 116.0 L 144.0 115.0 " stroke="black" fill="none" stroke-width="5.0" stroke-linecap="round" stroke-linejoin="round" />
<path d="M 137.0 121.0 L 137.0 121.0 L 137.0 121.0 L 137.0 123.0 L 139.0 125.0 L 140.0 126.0 " stroke="black" fill="none" stroke-width="5.0" stroke-linecap="round" stroke-linejoin="round" />
<path d="M 154.0 103.0 L 154.0 103.0 L 154.0 103.0 L 154.0 103.0 L 154.0 104.0 L 154.0 109.0 L 153.0 116.0 L 151.0 120.0 " stroke="black" fill="none" stroke-width="5.0" stroke-linecap="round" stroke-linejoin="round" />
<path d="M 154.0 114.0 L 154.0 114.0 L 155.0 114.0 L 156.0 113.0 L 158.0 112.0 L 161.0 111.0 L 163.0 111.0 L 164.0 111.0 " stroke="black" fill="none" stroke-width="5.0" stroke-linecap="round" stroke-linejoin="round" />
<path d="M 160.0 119.0 L 160.0 120.0 L 160.0 122.0 L 162.0 124.0 L 164.0 127.0 L 164.0 128.0 " stroke="black" fill="none" stroke-width="5.0" stroke-linecap="round" stroke-linejoin="round" />
<path d="M 132.0 139.0 L 132.0 139.0 L 132.0 139.0 L 132.0 139.0 L 136.0 139.0 L 145.0 138.0 L 153.0 137.0 L 158.0 137.0 L 159.0 137.0 " stroke="black" fill="none" stroke-width="5.0" stroke-linecap="round" stroke-linejoin="round" />
<path d="M 129.0 155.0 L 129.0 155.0 L 129.0 156.0 L 129.0 159.0 L 129.0 166.0 L 130.0 173.0 L 130.0 177.0 L 131.0 178.0 " stroke="black" fill="none" stroke-width="5.0" stroke-linecap="round" stroke-linejoin="round" />
<path d="M 130.0 155.0 L 130.0 154.0 L 131.0 154.0 L 133.0 153.0 L 139.0 152.0 L 147.0 151.0 L 153.0 151.0 L 158.0 151.0 L 162.0 155.0 L 165.0 161.0 L 167.0 167.0 L 167.0 172.0 L 167.0 175.0 L 165.0 176.0 L 161.0 176.0 L 160.0 176.0 " stroke="black" fill="none" stroke-width="5.0" stroke-linecap="round" stroke-linejoin="round" />
<path d="M 143.0 122.0 L 143.0 122.0 L 143.0 123.0 L 142.0 128.0 L 145.0 143.0 L 149.0 164.0 L 151.0 184.0 L 152.0 194.0 L 152.0 197.0 " stroke="black" fill="none" stroke-width="5.0" stroke-linecap="round" stroke-linejoin="round" />
<path d="M 148.0 169.0 L 147.0 169.0 L 147.0 169.0 L 146.0 169.0 L 144.0 170.0 L 141.0 175.0 L 134.0 183.0 L 126.0 192.0 L 121.0 196.0 " stroke="black" fill="none" stroke-width="5.0" stroke-linecap="round" stroke-linejoin="round" />
<path d="M 148.0 175.0 L 149.0 176.0 L 153.0 178.0 L 159.0 183.0 L 166.0 190.0 L 172.0 195.0 L 175.0 198.0 " stroke="black" fill="none" stroke-width="5.0" stroke-linecap="round" stroke-linejoin="round" />
</svg>