<svg xmlns="http://www.w3.org/2000/svg" width="300" height="300" viewBox="0 0 300 300">
<path d="M 120.0 105.0 L 121.0 104.0 L 121.0 104.0 L 122.0 104.0 L 122.0 108.0 L 122.0 113.0 L 119.0 120.0 L 115.0 128.0 L 111.0 134.0 L 109.0 136.0 " stroke="black" fill="none" stroke-width="5.0" stroke-linecap="round" stroke-linejoin="round" />
<path d="M 119.0 120.0 L 119.0 120.0 L 119.0 120.0 L 120.0 120.0 L 123.0 120.0 L 127.0 120.0 L 132.0 120.0 L 136.0 119.0 " stroke="black" fill="none" stroke-width="5.0" stroke-linecap="round" stroke-linejoin="round" />
<path d="M 125.0 124.0 L 125.0 125.0 L 125.0 125.0 L 126.0 126.0 L 127.0 128.0 L 130.0 131.0 L 132.0 133.0 " stroke="black" fill="none" stroke-width="5.0" stroke-linecap="round" stroke-linejoin="round" />
<path d="M 150.0 106.0 L 150.0 106.0 L 150.0 106.0 L 150.0 106.0 L 150.0 106.0 L 149.0 112.0 L 146.0 122.0 L 143.0 129.0 " stroke="black" fill="none" stroke-width="5.0" stroke-linecap="round" stroke-linejoin="round" />
<path d="M 149.0 115.0 L 149.0 114.0 L 149.0 114.0 L 150.0 114.0 L 152.0 113.0 L 156.0 112.0 L 160.0 111.0 L 164.0 111.0 L 165.0 111.0 " stroke="black" fill="none" stroke-width="5.0" stroke-linecap="round" stroke-linejoin="round" />
<path d="M 156.0 120.0 L 157.0 121.0 L 158.0 123.0 L 160.0 126.0 L 163.0 130.0 L 165.0 133.0 " stroke="black" fill="none" stroke-width="5.0" stroke-linecap="round" stroke-linejoin="round" />
<path d="M 112.0 149.0 L 112.0 149.0 L 112.0 150.0 L 112.0 152.0 L 112.0 156.0 L 113.0 159.0 L 114.0 160.0 " stroke="black" fill="none" stroke-width="5.0" stroke-linecap="round" stroke-linejoin="round" />
<path d="M 114.0 148.0 L 114.0 148.0 L 115.0 148.0 L 117.0 148.0 L 124.0 147.0 L 136.0 146.0 L 148.0 145.0 L 156.0 144.0 L 162.0 144.0 L 167.0 143.0 L 171.0 143.0 L 175.0 143.0 L 177.0 144.0 L 179.0 146.0 L 180.0 149.0 L 181.0 152.0 L 181.0 154.0 L 181.0 156.0 " stroke="black" fill="none" stroke-width="5.0" stroke-linecap="round" stroke-linejoin="round" />
<path d="M 134.0 158.0 L 134.0 158.0 L 134.0 158.0 L 135.0 158.0 L 136.0 158.0 L 139.0 158.0 L 144.0 158.0 L 149.0 158.0 L 153.0 158.0 L 156.0 158.0 L 157.0 158.0 L 158.0 160.0 L 159.0 163.0 L 160.0 167.0 L 160.0 170.0 L 160.0 171.0 " stroke="black" fill="none" stroke-width="5.0" stroke-linecap="round" stroke-linejoin="round" />
<path d="M 137.0 170.0 L 137.0 170.0 L 137.0 170.0 L 138.0 171.0 L 141.0 171.0 L 147.0 172.0 L 154.0 172.0 L 160.0 172.0 " stroke="black" fill="none" stroke-width="5.0" stroke-linecap="round" stroke-linejoin="round" />
<path d="M 134.0 160.0 L 134.0 162.0 L 134.0 165.0 L 134.0 170.0 L 134.0 180.0 L 134.0 190.0 L 134.0 198.0 L 134.0 201.0 L 134.0 202.0 " stroke="black" fill="none" stroke-width="5.0" stroke-linecap="round" stroke-linejoin="round" />
<path d="M 135.0 186.0 L 135.0 186.0 L 135.0 186.0 L 136.0 186.0 L 138.0 186.0 L 143.0 185.0 L 150.0 185.0 L 156.0 185.0 L 160.0 185.0 L 163.0 185.0 L 165.0 186.0 L 167.0 190.0 L 168.0 194.0 L 169.0 198.0 L 169.0 201.0 L 169.0 202.0 L 169.0 202.0 " stroke="black" fill="none" stroke-width="5.0" stroke-linecap="round" stroke-linejoin="round" />
<path d="M 138.0 205.0 L 138.0 206.0 L 139.0 206.0 L 141.0 207.0 L 146.0 207.0 L 154.0 207.0 L 162.0 205.0 L 168.0 205.0 L 171.0 205.0 L 171.0 205.0 " stroke="black" fill="none" stroke-width="5.0" stroke-linecap="round" stroke-linejoin="round" />
</svg>