<svg xmlns="http://www.w3.org/2000/svg" width="300" height="300" viewBox="0 0 300 300">
<path d="M 124.0 109.0 L 124.0 109.0 L 124.0 109.0 L 124.0 110.0 L 123.0 113.0 L 121.0 119.0 L 117.0 130.0 L 115.0 133.0 " stroke="black" fill="none" stroke-width="5.0" stroke-linecap="round" stroke-linejoin="round" />
<path d="M 124.0 122.0 L 124.0 122.0 L 124.0 122.0 L 124.0 122.0 L 124.0 122.0 L 126.0 122.0 L 132.0 121.0 L 141.0 120.0 L 143.0 120.0 " stroke="black" fill="none" stroke-width="5.0" stroke-linecap="round" stroke-linejoin="round" />
<path d="M 133.0 125.0 L 133.0 126.0 L 133.0 126.0 L 133.0 130.0 L 136.0 134.0 L 138.0 138.0 " stroke="black" fill="none" stroke-width="5.0" stroke-linecap="round" stroke-linejoin="round" />
<path d="M 155.0 105.0 L 155.0 106.0 L 155.0 106.0 L 154.0 108.0 L 153.0 111.0 L 151.0 119.0 L 148.0 128.0 L 146.0 134.0 " stroke="black" fill="none" stroke-width="5.0" stroke-linecap="round" stroke-linejoin="round" />
<path d="M 154.0 119.0 L 155.0 118.0 L 157.0 117.0 L 160.0 116.0 L 165.0 114.0 L 169.0 114.0 L 170.0 114.0 " stroke="black" fill="none" stroke-width="5.0" stroke-linecap="round" stroke-linejoin="round" />
<path d="M 159.0 124.0 L 159.0 125.0 L 159.0 126.0 L 160.0 128.0 L 163.0 133.0 L 166.0 137.0 " stroke="black" fill="none" stroke-width="5.0" stroke-linecap="round" stroke-linejoin="round" />
<path d="M 137.0 149.0 L 137.0 149.0 L 137.0 149.0 L 137.0 149.0 L 137.0 149.0 L 136.0 150.0 L 132.0 155.0 L 124.0 164.0 L 122.0 167.0 " stroke="black" fill="none" stroke-width="5.0" stroke-linecap="round" stroke-linejoin="round" />
<path d="M 131.0 163.0 L 132.0 163.0 L 133.0 163.0 L 135.0 162.0 L 139.0 161.0 L 146.0 160.0 L 153.0 159.0 L 159.0 159.0 L 161.0 159.0 " stroke="black" fill="none" stroke-width="5.0" stroke-linecap="round" stroke-linejoin="round" />
<path d="M 129.0 181.0 L 130.0 181.0 L 132.0 180.0 L 135.0 180.0 L 141.0 179.0 L 148.0 178.0 L 154.0 178.0 L 157.0 178.0 L 157.0 179.0 " stroke="black" fill="none" stroke-width="5.0" stroke-linecap="round" stroke-linejoin="round" />
<path d="M 110.0 206.0 L 110.0 206.0 L 111.0 207.0 L 113.0 207.0 L 122.0 208.0 L 140.0 205.0 L 157.0 204.0 L 168.0 205.0 L 171.0 207.0 " stroke="black" fill="none" stroke-width="5.0" stroke-linecap="round" stroke-linejoin="round" />
<path d="M 145.0 144.0 L 145.0 144.0 L 145.0 146.0 L 145.0 153.0 L 147.0 171.0 L 149.0 190.0 L 149.0 202.0 L 149.0 205.0 " stroke="black" fill="none" stroke-width="5.0" stroke-linecap="round" stroke-linejoin="round" />
</svg>