<svg xmlns="http://www.w3.org/2000/svg" width="300" height="300" viewBox="0 0 300 300">
<path d="M 130.0 97.0 L 130.0 97.0 L 130.0 97.0 L 130.0 98.0 L 130.0 101.0 L 130.0 107.0 L 130.0 113.0 L 130.0 117.0 L 130.0 118.0 " stroke="black" fill="none" stroke-width="5.0" stroke-linecap="round" stroke-linejoin="round" />
<path d="M 130.0 110.0 L 130.0 110.0 L 130.0 110.0 L 130.0 110.0 L 130.0 110.0 L 131.0 110.0 L 135.0 109.0 L 140.0 109.0 L 143.0 108.0 L 144.0 108.0 " stroke="black" fill="none" stroke-width="5.0" stroke-linecap="round" stroke-linejoin="round" />
<path d="M 117.0 117.0 L 117.0 117.0 L 117.0 118.0 L 116.0 119.0 L 114.0 121.0 L 112.0 125.0 L 108.0 130.0 L 104.0 134.0 " stroke="black" fill="none" stroke-width="5.0" stroke-linecap="round" stroke-linejoin="round" />
<path d="M 115.0 122.0 L 116.0 122.0 L 117.0 122.0 L 118.0 123.0 L 120.0 123.0 L 123.0 123.0 L 126.0 123.0 L 129.0 124.0 L 131.0 125.0 L 132.0 126.0 L 132.0 128.0 L 130.0 132.0 L 126.0 137.0 L 120.0 142.0 L 113.0 147.0 L 109.0 150.0 " stroke="black" fill="none" stroke-width="5.0" stroke-linecap="round" stroke-linejoin="round" />
<path d="M 110.0 134.0 L 110.0 134.0 L 111.0 134.0 L 112.0 135.0 L 115.0 137.0 L 120.0 138.0 L 121.0 139.0 " stroke="black" fill="none" stroke-width="5.0" stroke-linecap="round" stroke-linejoin="round" />
<path d="M 160.0 112.0 L 160.0 112.0 L 160.0 112.0 L 160.0 112.0 L 161.0 112.0 L 163.0 112.0 L 166.0 112.0 L 170.0 112.0 L 172.0 112.0 L 173.0 115.0 L 172.0 119.0 L 168.0 125.0 L 162.0 133.0 L 156.0 139.0 L 150.0 144.0 " stroke="black" fill="none" stroke-width="5.0" stroke-linecap="round" stroke-linejoin="round" />
<path d="M 153.0 120.0 L 154.0 121.0 L 155.0 121.0 L 159.0 124.0 L 167.0 128.0 L 178.0 135.0 L 187.0 140.0 L 191.0 142.0 L 191.0 143.0 " stroke="black" fill="none" stroke-width="5.0" stroke-linecap="round" stroke-linejoin="round" />
<path d="M 110.0 178.0 L 110.0 178.0 L 110.0 178.0 L 111.0 178.0 L 113.0 178.0 L 120.0 177.0 L 135.0 176.0 L 152.0 176.0 L 163.0 176.0 L 171.0 176.0 L 173.0 176.0 " stroke="black" fill="none" stroke-width="5.0" stroke-linecap="round" stroke-linejoin="round" />
<path d="M 143.0 154.0 L 143.0 154.0 L 143.0 154.0 L 143.0 154.0 L 143.0 158.0 L 145.0 172.0 L 147.0 188.0 L 148.0 198.0 L 148.0 202.0 L 148.0 202.0 " stroke="black" fill="none" stroke-width="5.0" stroke-linecap="round" stroke-linejoin="round" />
<path d="M 129.0 159.0 L 129.0 160.0 L 130.0 163.0 L 132.0 168.0 L 134.0 170.0 " stroke="black" fill="none" stroke-width="5.0" stroke-linecap="round" stroke-linejoin="round" />
<path d="M 158.0 165.0 L 158.0 165.0 L 158.0 166.0 L 156.0 168.0 L 154.0 172.0 L 153.0 174.0 " stroke="black" fill="none" stroke-width="5.0" stroke-linecap="round" stroke-linejoin="round" />
<path d="M 135.0 185.0 L 135.0 185.0 L 134.0 185.0 L 133.0 186.0 L 131.0 187.0 L 127.0 191.0 L 121.0 196.0 L 117.0 199.0 " stroke="black" fill="none" stroke-width="5.0" stroke-linecap="round" stroke-linejoin="round" />
<path d="M 152.0 186.0 L 154.0 186.0 L 158.0 188.0 L 166.0 194.0 L 176.0 201.0 L 180.0 204.0 " stroke="black" fill="none" stroke-width="5.0" stroke-linecap="round" stroke-linejoin="round" />
</svg>