<svg xmlns="http://www.w3.org/2000/svg" width="300" height="300" viewBox="0 0 300 300">
<path d="M 105.0 152.0 L 106.0 152.0 L 108.0 152.0 L 111.0 152.0 L 118.0 152.0 L 127.0 151.0 L 130.0 150.0 " stroke="black" fill="none" stroke-width="5.0" stroke-linecap="round" stroke-linejoin="round" />
<path d="M 115.0 120.0 L 115.0 120.0 L 114.0 121.0 L 114.0 123.0 L 115.0 130.0 L 118.0 144.0 L 119.0 161.0 L 119.0 177.0 L 119.0 187.0 " stroke="black" fill="none" stroke-width="5.0" stroke-linecap="round" stroke-linejoin="round" />
<path d="M 106.0 135.0 L 106.0 134.0 L 107.0 134.0 L 108.0 134.0 L 110.0 138.0 L 114.0 142.0 " stroke="black" fill="none" stroke-width="5.0" stroke-linecap="round" stroke-linejoin="round" />
<path d="M 132.0 132.0 L 132.0 133.0 L 132.0 134.0 L 132.0 136.0 L 130.0 140.0 L 127.0 145.0 L 126.0 147.0 " stroke="black" fill="none" stroke-width="5.0" stroke-linecap="round" stroke-linejoin="round" />
<path d="M 114.0 160.0 L 114.0 160.0 L 114.0 160.0 L 114.0 160.0 L 114.0 160.0 L 114.0 160.0 L 112.0 163.0 L 107.0 171.0 L 102.0 180.0 " stroke="black" fill="none" stroke-width="5.0" stroke-linecap="round" stroke-linejoin="round" />
<path d="M 123.0 162.0 L 123.0 163.0 L 124.0 164.0 L 128.0 167.0 L 133.0 171.0 L 139.0 176.0 " stroke="black" fill="none" stroke-width="5.0" stroke-linecap="round" stroke-linejoin="round" />
<path d="M 146.0 123.0 L 146.0 124.0 L 146.0 124.0 L 146.0 124.0 L 148.0 124.0 L 151.0 124.0 L 155.0 123.0 L 159.0 123.0 L 160.0 123.0 " stroke="black" fill="none" stroke-width="5.0" stroke-linecap="round" stroke-linejoin="round" />
<path d="M 145.0 137.0 L 145.0 137.0 L 147.0 138.0 L 149.0 138.0 L 152.0 138.0 L 156.0 137.0 L 160.0 136.0 L 161.0 136.0 L 161.0 136.0 " stroke="black" fill="none" stroke-width="5.0" stroke-linecap="round" stroke-linejoin="round" />
<path d="M 140.0 150.0 L 140.0 150.0 L 140.0 151.0 L 142.0 152.0 L 149.0 152.0 L 158.0 151.0 L 166.0 150.0 L 167.0 150.0 " stroke="black" fill="none" stroke-width="5.0" stroke-linecap="round" stroke-linejoin="round" />
<path d="M 151.0 115.0 L 151.0 115.0 L 151.0 115.0 L 151.0 116.0 L 151.0 122.0 L 152.0 135.0 L 153.0 147.0 " stroke="black" fill="none" stroke-width="5.0" stroke-linecap="round" stroke-linejoin="round" />
<path d="M 146.0 162.0 L 146.0 162.0 L 146.0 162.0 L 146.0 162.0 L 146.0 165.0 L 146.0 173.0 L 146.0 183.0 L 146.0 189.0 L 146.0 191.0 " stroke="black" fill="none" stroke-width="5.0" stroke-linecap="round" stroke-linejoin="round" />
<path d="M 147.0 160.0 L 148.0 160.0 L 148.0 160.0 L 149.0 160.0 L 151.0 159.0 L 155.0 157.0 L 159.0 156.0 L 163.0 155.0 L 165.0 155.0 L 168.0 159.0 L 171.0 167.0 L 174.0 173.0 L 177.0 182.0 L 178.0 190.0 L 179.0 195.0 L 178.0 197.0 L 175.0 198.0 L 170.0 196.0 L 169.0 196.0 " stroke="black" fill="none" stroke-width="5.0" stroke-linecap="round" stroke-linejoin="round" />
<path d="M 148.0 168.0 L 148.0 168.0 L 148.0 168.0 L 148.0 168.0 L 149.0 168.0 L 153.0 168.0 L 160.0 168.0 L 167.0 168.0 L 170.0 168.0 L 171.0 168.0 " stroke="black" fill="none" stroke-width="5.0" stroke-linecap="round" stroke-linejoin="round" />
<path d="M 150.0 181.0 L 150.0 181.0 L 152.0 181.0 L 156.0 181.0 L 164.0 181.0 L 173.0 180.0 L 174.0 180.0 " stroke="black" fill="none" stroke-width="5.0" stroke-linecap="round" stroke-linejoin="round" />
</svg>