<svg xmlns="http://www.w3.org/2000/svg" width="300" height="300" viewBox="0 0 300 300">
<path d="M 130.0 126.0 L 130.0 126.0 L 130.0 126.0 L 131.0 126.0 L 131.0 126.0 L 131.0 126.0 L 131.0 127.0 L 131.0 130.0 L 127.0 136.0 L 122.0 143.0 L 117.0 149.0 L 116.0 152.0 L 118.0 153.0 L 123.0 153.0 L 129.0 152.0 " stroke="black" fill="none" stroke-width="5.0" stroke-linecap="round" stroke-linejoin="round" />
<path d="M 141.0 143.0 L 141.0 143.0 L 141.0 143.0 L 140.0 143.0 L 140.0 143.0 L 139.0 143.0 L 136.0 148.0 L 129.0 157.0 L 120.0 169.0 L 115.0 178.0 L 115.0 180.0 L 117.0 180.0 L 122.0 179.0 L 128.0 178.0 L 133.0 177.0 L 139.0 176.0 L 144.0 175.0 L 148.0 174.0 L 149.0 174.0 " stroke="black" fill="none" stroke-width="5.0" stroke-linecap="round" stroke-linejoin="round" />
<path d="M 115.0 194.0 L 115.0 194.0 L 115.0 194.0 L 114.0 194.0 L 115.0 197.0 L 117.0 202.0 L 118.0 203.0 " stroke="black" fill="none" stroke-width="5.0" stroke-linecap="round" stroke-linejoin="round" />
<path d="M 126.0 189.0 L 126.0 189.0 L 126.0 188.0 L 127.0 188.0 L 129.0 193.0 L 132.0 200.0 L 135.0 206.0 L 135.0 207.0 " stroke="black" fill="none" stroke-width="5.0" stroke-linecap="round" stroke-linejoin="round" />
<path d="M 141.0 189.0 L 141.0 189.0 L 141.0 189.0 L 141.0 189.0 L 142.0 193.0 L 145.0 199.0 " stroke="black" fill="none" stroke-width="5.0" stroke-linecap="round" stroke-linejoin="round" />
<path d="M 170.0 125.0 L 170.0 125.0 L 170.0 125.0 L 170.0 125.0 L 170.0 125.0 L 169.0 126.0 L 166.0 130.0 L 161.0 135.0 L 159.0 140.0 L 160.0 144.0 L 165.0 145.0 L 171.0 145.0 " stroke="black" fill="none" stroke-width="5.0" stroke-linecap="round" stroke-linejoin="round" />
<path d="M 186.0 132.0 L 185.0 133.0 L 184.0 133.0 L 182.0 135.0 L 179.0 138.0 L 175.0 144.0 L 168.0 153.0 L 161.0 161.0 L 160.0 165.0 L 161.0 165.0 L 168.0 165.0 L 176.0 162.0 L 182.0 161.0 L 187.0 161.0 L 188.0 161.0 " stroke="black" fill="none" stroke-width="5.0" stroke-linecap="round" stroke-linejoin="round" />
<path d="M 186.0 152.0 L 186.0 152.0 L 186.0 153.0 L 187.0 157.0 L 188.0 165.0 L 189.0 169.0 " stroke="black" fill="none" stroke-width="5.0" stroke-linecap="round" stroke-linejoin="round" />
<path d="M 176.0 166.0 L 176.0 166.0 L 176.0 166.0 L 176.0 166.0 L 176.0 171.0 L 178.0 182.0 L 180.0 195.0 L 181.0 205.0 L 181.0 209.0 L 181.0 210.0 L 179.0 207.0 L 174.0 203.0 L 173.0 202.0 " stroke="black" fill="none" stroke-width="5.0" stroke-linecap="round" stroke-linejoin="round" />
<path d="M 166.0 177.0 L 166.0 177.0 L 166.0 178.0 L 164.0 180.0 L 163.0 185.0 L 160.0 194.0 L 159.0 196.0 " stroke="black" fill="none" stroke-width="5.0" stroke-linecap="round" stroke-linejoin="round" />
<path d="M 191.0 187.0 L 192.0 189.0 L 193.0 194.0 L 196.0 200.0 L 198.0 207.0 L 199.0 209.0 " stroke="black" fill="none" stroke-width="5.0" stroke-linecap="round" stroke-linejoin="round" />
</svg>