<svg xmlns="http://www.w3.org/2000/svg" width="300" height="300" viewBox="0 0 300 300">
<path d="M 123.0 118.0 L 124.0 118.0 L 124.0 118.0 L 125.0 120.0 L 125.0 123.0 L 124.0 127.0 L 122.0 132.0 L 119.0 136.0 L 116.0 139.0 L 114.0 142.0 L 114.0 146.0 L 116.0 147.0 L 121.0 148.0 L 123.0 148.0 " stroke="black" fill="none" stroke-width="5.0" stroke-linecap="round" stroke-linejoin="round" />
<path d="M 133.0 137.0 L 133.0 137.0 L 133.0 138.0 L 133.0 139.0 L 131.0 143.0 L 126.0 150.0 L 119.0 158.0 L 113.0 165.0 L 111.0 169.0 L 113.0 171.0 L 118.0 172.0 L 126.0 171.0 L 133.0 169.0 " stroke="black" fill="none" stroke-width="5.0" stroke-linecap="round" stroke-linejoin="round" />
<path d="M 136.0 163.0 L 136.0 163.0 L 136.0 166.0 L 137.0 170.0 L 138.0 176.0 L 140.0 181.0 " stroke="black" fill="none" stroke-width="5.0" stroke-linecap="round" stroke-linejoin="round" />
<path d="M 110.0 189.0 L 111.0 190.0 L 111.0 193.0 L 112.0 198.0 L 113.0 202.0 " stroke="black" fill="none" stroke-width="5.0" stroke-linecap="round" stroke-linejoin="round" />
<path d="M 118.0 186.0 L 118.0 187.0 L 119.0 189.0 L 120.0 192.0 L 122.0 197.0 L 124.0 201.0 L 124.0 202.0 " stroke="black" fill="none" stroke-width="5.0" stroke-linecap="round" stroke-linejoin="round" />
<path d="M 130.0 185.0 L 130.0 186.0 L 131.0 189.0 L 133.0 194.0 L 136.0 200.0 " stroke="black" fill="none" stroke-width="5.0" stroke-linecap="round" stroke-linejoin="round" />
<path d="M 155.0 120.0 L 155.0 120.0 L 156.0 123.0 L 157.0 126.0 L 160.0 130.0 L 160.0 131.0 " stroke="black" fill="none" stroke-width="5.0" stroke-linecap="round" stroke-linejoin="round" />
<path d="M 143.0 140.0 L 144.0 140.0 L 147.0 140.0 L 155.0 139.0 L 169.0 136.0 L 179.0 134.0 L 182.0 134.0 L 182.0 135.0 " stroke="black" fill="none" stroke-width="5.0" stroke-linecap="round" stroke-linejoin="round" />
<path d="M 157.0 142.0 L 157.0 142.0 L 157.0 142.0 L 157.0 142.0 L 156.0 147.0 L 156.0 159.0 L 156.0 179.0 L 154.0 196.0 L 154.0 203.0 " stroke="black" fill="none" stroke-width="5.0" stroke-linecap="round" stroke-linejoin="round" />
<path d="M 163.0 156.0 L 163.0 156.0 L 164.0 156.0 L 165.0 156.0 L 168.0 156.0 L 172.0 156.0 L 176.0 155.0 L 179.0 155.0 L 182.0 155.0 L 185.0 157.0 L 188.0 165.0 L 192.0 177.0 L 194.0 188.0 L 194.0 194.0 L 194.0 196.0 L 190.0 196.0 L 181.0 195.0 L 178.0 194.0 " stroke="black" fill="none" stroke-width="5.0" stroke-linecap="round" stroke-linejoin="round" />
</svg>