<svg xmlns="http://www.w3.org/2000/svg" width="300" height="300" viewBox="0 0 300 300">
<path d="M 123.0 116.0 L 123.0 116.0 L 124.0 116.0 L 124.0 117.0 L 124.0 119.0 L 123.0 123.0 L 119.0 129.0 L 114.0 137.0 L 110.0 143.0 L 108.0 145.0 L 107.0 146.0 L 110.0 148.0 L 114.0 150.0 L 119.0 151.0 " stroke="black" fill="none" stroke-width="5.0" stroke-linecap="round" stroke-linejoin="round" />
<path d="M 130.0 140.0 L 130.0 140.0 L 130.0 140.0 L 130.0 140.0 L 130.0 140.0 L 129.0 140.0 L 124.0 147.0 L 116.0 158.0 L 109.0 169.0 L 106.0 175.0 L 107.0 177.0 L 113.0 177.0 L 121.0 177.0 L 130.0 173.0 L 131.0 172.0 " stroke="black" fill="none" stroke-width="5.0" stroke-linecap="round" stroke-linejoin="round" />
<path d="M 132.0 162.0 L 132.0 163.0 L 132.0 164.0 L 133.0 167.0 L 135.0 173.0 L 137.0 178.0 " stroke="black" fill="none" stroke-width="5.0" stroke-linecap="round" stroke-linejoin="round" />
<path d="M 102.0 188.0 L 102.0 188.0 L 102.0 188.0 L 102.0 188.0 L 102.0 188.0 L 102.0 190.0 L 104.0 194.0 L 105.0 196.0 " stroke="black" fill="none" stroke-width="5.0" stroke-linecap="round" stroke-linejoin="round" />
<path d="M 114.0 186.0 L 114.0 186.0 L 115.0 186.0 L 115.0 188.0 L 117.0 191.0 L 120.0 195.0 L 121.0 198.0 " stroke="black" fill="none" stroke-width="5.0" stroke-linecap="round" stroke-linejoin="round" />
<path d="M 128.0 189.0 L 130.0 193.0 L 131.0 196.0 L 134.0 200.0 " stroke="black" fill="none" stroke-width="5.0" stroke-linecap="round" stroke-linejoin="round" />
<path d="M 157.0 113.0 L 157.0 113.0 L 157.0 113.0 L 156.0 114.0 L 155.0 115.0 L 152.0 119.0 L 148.0 125.0 L 144.0 130.0 L 143.0 131.0 " stroke="black" fill="none" stroke-width="5.0" stroke-linecap="round" stroke-linejoin="round" />
<path d="M 152.0 123.0 L 152.0 123.0 L 152.0 123.0 L 152.0 123.0 L 153.0 123.0 L 157.0 122.0 L 162.0 121.0 L 165.0 121.0 L 166.0 121.0 L 166.0 124.0 L 164.0 129.0 L 162.0 133.0 " stroke="black" fill="none" stroke-width="5.0" stroke-linecap="round" stroke-linejoin="round" />
<path d="M 147.0 140.0 L 147.0 140.0 L 146.0 140.0 L 146.0 140.0 L 146.0 140.0 L 149.0 140.0 L 158.0 139.0 L 169.0 138.0 L 177.0 137.0 L 182.0 137.0 L 183.0 137.0 L 183.0 137.0 L 183.0 141.0 L 184.0 147.0 L 185.0 152.0 L 185.0 154.0 " stroke="black" fill="none" stroke-width="5.0" stroke-linecap="round" stroke-linejoin="round" />
<path d="M 164.0 139.0 L 164.0 141.0 L 164.0 144.0 L 164.0 148.0 L 165.0 152.0 L 165.0 154.0 " stroke="black" fill="none" stroke-width="5.0" stroke-linecap="round" stroke-linejoin="round" />
<path d="M 148.0 157.0 L 148.0 157.0 L 148.0 157.0 L 148.0 157.0 L 148.0 157.0 L 150.0 157.0 L 157.0 157.0 L 170.0 156.0 L 182.0 155.0 " stroke="black" fill="none" stroke-width="5.0" stroke-linecap="round" stroke-linejoin="round" />
<path d="M 149.0 143.0 L 149.0 143.0 L 149.0 143.0 L 149.0 143.0 L 149.0 144.0 L 150.0 153.0 L 152.0 170.0 L 152.0 186.0 L 153.0 197.0 L 157.0 202.0 L 165.0 204.0 L 177.0 205.0 L 187.0 206.0 L 195.0 206.0 L 199.0 204.0 L 202.0 201.0 L 203.0 198.0 L 203.0 195.0 L 202.0 188.0 " stroke="black" fill="none" stroke-width="5.0" stroke-linecap="round" stroke-linejoin="round" />
</svg>