<svg xmlns="http://www.w3.org/2000/svg" width="300" height="300" viewBox="0 0 300 300">
<path d="M 129.0 126.0 L 129.0 128.0 L 129.0 130.0 L 128.0 132.0 L 126.0 135.0 L 122.0 139.0 L 117.0 144.0 L 113.0 149.0 L 113.0 151.0 L 115.0 151.0 L 122.0 151.0 L 126.0 151.0 " stroke="black" fill="none" stroke-width="5.0" stroke-linecap="round" stroke-linejoin="round" />
<path d="M 135.0 144.0 L 135.0 144.0 L 134.0 145.0 L 133.0 147.0 L 130.0 149.0 L 127.0 154.0 L 122.0 159.0 L 117.0 165.0 L 115.0 169.0 L 114.0 171.0 L 117.0 172.0 L 124.0 171.0 L 131.0 169.0 L 136.0 168.0 " stroke="black" fill="none" stroke-width="5.0" stroke-linecap="round" stroke-linejoin="round" />
<path d="M 138.0 161.0 L 138.0 161.0 L 137.0 162.0 L 137.0 163.0 L 137.0 166.0 L 140.0 170.0 L 142.0 175.0 L 143.0 176.0 " stroke="black" fill="none" stroke-width="5.0" stroke-linecap="round" stroke-linejoin="round" />
<path d="M 110.0 189.0 L 110.0 189.0 L 110.0 189.0 L 110.0 190.0 L 110.0 192.0 L 112.0 195.0 " stroke="black" fill="none" stroke-width="5.0" stroke-linecap="round" stroke-linejoin="round" />
<path d="M 119.0 185.0 L 120.0 185.0 L 120.0 185.0 L 121.0 187.0 L 122.0 190.0 L 124.0 194.0 L 125.0 195.0 " stroke="black" fill="none" stroke-width="5.0" stroke-linecap="round" stroke-linejoin="round" />
<path d="M 131.0 185.0 L 131.0 185.0 L 131.0 185.0 L 132.0 186.0 L 133.0 189.0 L 135.0 193.0 L 136.0 194.0 " stroke="black" fill="none" stroke-width="5.0" stroke-linecap="round" stroke-linejoin="round" />
<path d="M 154.0 118.0 L 154.0 118.0 L 154.0 118.0 L 154.0 118.0 L 154.0 122.0 L 151.0 132.0 L 146.0 145.0 " stroke="black" fill="none" stroke-width="5.0" stroke-linecap="round" stroke-linejoin="round" />
<path d="M 149.0 136.0 L 149.0 136.0 L 150.0 136.0 L 152.0 135.0 L 157.0 134.0 L 163.0 133.0 L 168.0 133.0 L 169.0 137.0 L 168.0 145.0 L 163.0 154.0 L 157.0 164.0 L 151.0 172.0 L 149.0 174.0 " stroke="black" fill="none" stroke-width="5.0" stroke-linecap="round" stroke-linejoin="round" />
<path d="M 153.0 145.0 L 153.0 145.0 L 153.0 145.0 L 157.0 149.0 L 166.0 158.0 L 178.0 168.0 L 184.0 176.0 L 186.0 180.0 " stroke="black" fill="none" stroke-width="5.0" stroke-linecap="round" stroke-linejoin="round" />
<path d="M 163.0 176.0 L 163.0 176.0 L 164.0 177.0 L 166.0 179.0 L 169.0 181.0 L 172.0 183.0 " stroke="black" fill="none" stroke-width="5.0" stroke-linecap="round" stroke-linejoin="round" />
<path d="M 161.0 187.0 L 162.0 187.0 L 163.0 189.0 L 166.0 191.0 L 168.0 192.0 " stroke="black" fill="none" stroke-width="5.0" stroke-linecap="round" stroke-linejoin="round" />
</svg>