<svg xmlns="http://www.w3.org/2000/svg" width="300" height="300" viewBox="0 0 300 300">
<path d="M 127.0 117.0 L 127.0 117.0 L 127.0 118.0 L 127.0 119.0 L 127.0 120.0 L 125.0 123.0 L 122.0 129.0 L 118.0 135.0 L 115.0 141.0 L 114.0 144.0 L 114.0 145.0 L 117.0 145.0 L 121.0 145.0 L 124.0 145.0 " stroke="black" fill="none" stroke-width="5.0" stroke-linecap="round" stroke-linejoin="round" />
<path d="M 136.0 135.0 L 136.0 135.0 L 135.0 135.0 L 134.0 136.0 L 133.0 137.0 L 132.0 140.0 L 128.0 145.0 L 122.0 153.0 L 116.0 164.0 L 112.0 172.0 L 111.0 175.0 L 115.0 175.0 L 121.0 173.0 L 128.0 170.0 L 133.0 169.0 " stroke="black" fill="none" stroke-width="5.0" stroke-linecap="round" stroke-linejoin="round" />
<path d="M 137.0 160.0 L 137.0 162.0 L 137.0 164.0 L 137.0 168.0 L 140.0 173.0 L 140.0 175.0 " stroke="black" fill="none" stroke-width="5.0" stroke-linecap="round" stroke-linejoin="round" />
<path d="M 110.0 188.0 L 110.0 188.0 L 110.0 189.0 L 110.0 190.0 L 110.0 194.0 L 112.0 198.0 " stroke="black" fill="none" stroke-width="5.0" stroke-linecap="round" stroke-linejoin="round" />
<path d="M 122.0 186.0 L 123.0 186.0 L 123.0 188.0 L 124.0 191.0 L 125.0 195.0 L 126.0 199.0 " stroke="black" fill="none" stroke-width="5.0" stroke-linecap="round" stroke-linejoin="round" />
<path d="M 135.0 188.0 L 135.0 188.0 L 135.0 188.0 L 136.0 191.0 L 139.0 195.0 " stroke="black" fill="none" stroke-width="5.0" stroke-linecap="round" stroke-linejoin="round" />
<path d="M 147.0 125.0 L 147.0 125.0 L 147.0 125.0 L 147.0 125.0 L 149.0 125.0 L 155.0 124.0 L 164.0 122.0 L 169.0 121.0 " stroke="black" fill="none" stroke-width="5.0" stroke-linecap="round" stroke-linejoin="round" />
<path d="M 160.0 109.0 L 160.0 109.0 L 160.0 110.0 L 160.0 112.0 L 160.0 116.0 L 158.0 124.0 L 155.0 136.0 L 153.0 144.0 " stroke="black" fill="none" stroke-width="5.0" stroke-linecap="round" stroke-linejoin="round" />
<path d="M 161.0 121.0 L 161.0 121.0 L 162.0 121.0 L 163.0 122.0 L 165.0 127.0 L 169.0 136.0 L 174.0 144.0 " stroke="black" fill="none" stroke-width="5.0" stroke-linecap="round" stroke-linejoin="round" />
<path d="M 143.0 152.0 L 143.0 152.0 L 143.0 152.0 L 145.0 152.0 L 152.0 151.0 L 165.0 148.0 L 179.0 146.0 L 189.0 144.0 L 192.0 144.0 L 192.0 144.0 " stroke="black" fill="none" stroke-width="5.0" stroke-linecap="round" stroke-linejoin="round" />
<path d="M 176.0 147.0 L 176.0 147.0 L 176.0 147.0 L 176.0 149.0 L 178.0 156.0 L 181.0 169.0 L 184.0 183.0 L 185.0 191.0 L 186.0 197.0 L 186.0 201.0 L 186.0 203.0 L 183.0 204.0 L 178.0 204.0 L 172.0 203.0 " stroke="black" fill="none" stroke-width="5.0" stroke-linecap="round" stroke-linejoin="round" />
<path d="M 154.0 170.0 L 154.0 170.0 L 154.0 170.0 L 154.0 170.0 L 154.0 172.0 L 155.0 176.0 L 156.0 181.0 L 156.0 181.0 " stroke="black" fill="none" stroke-width="5.0" stroke-linecap="round" stroke-linejoin="round" />
<path d="M 157.0 170.0 L 157.0 170.0 L 158.0 170.0 L 159.0 170.0 L 160.0 169.0 L 162.0 169.0 L 164.0 169.0 L 166.0 169.0 L 169.0 170.0 L 171.0 173.0 L 173.0 177.0 L 174.0 181.0 L 174.0 184.0 L 174.0 184.0 " stroke="black" fill="none" stroke-width="5.0" stroke-linecap="round" stroke-linejoin="round" />
<path d="M 158.0 186.0 L 158.0 186.0 L 158.0 186.0 L 159.0 186.0 L 163.0 186.0 L 171.0 184.0 " stroke="black" fill="none" stroke-width="5.0" stroke-linecap="round" stroke-linejoin="round" />
</svg>