<svg xmlns="http://www.w3.org/2000/svg" width="300" height="300" viewBox="0 0 300 300">
<path d="M 132.0 113.0 L 132.0 113.0 L 132.0 114.0 L 134.0 115.0 L 138.0 115.0 L 149.0 114.0 L 158.0 112.0 " stroke="black" fill="none" stroke-width="5.0" stroke-linecap="round" stroke-linejoin="round" />
<path d="M 150.0 104.0 L 150.0 104.0 L 150.0 104.0 L 150.0 104.0 L 150.0 104.0 L 150.0 108.0 L 149.0 118.0 L 148.0 124.0 " stroke="black" fill="none" stroke-width="5.0" stroke-linecap="round" stroke-linejoin="round" />
<path d="M 110.0 135.0 L 110.0 134.0 L 110.0 133.0 L 110.0 133.0 L 110.0 133.0 L 110.0 134.0 L 111.0 140.0 L 111.0 146.0 " stroke="black" fill="none" stroke-width="5.0" stroke-linecap="round" stroke-linejoin="round" />
<path d="M 116.0 131.0 L 116.0 131.0 L 116.0 131.0 L 116.0 131.0 L 120.0 131.0 L 130.0 129.0 L 145.0 127.0 L 160.0 126.0 L 171.0 125.0 L 179.0 125.0 L 184.0 126.0 L 187.0 126.0 L 188.0 128.0 L 189.0 131.0 L 190.0 136.0 L 191.0 141.0 L 191.0 146.0 " stroke="black" fill="none" stroke-width="5.0" stroke-linecap="round" stroke-linejoin="round" />
<path d="M 152.0 142.0 L 153.0 142.0 L 154.0 142.0 L 154.0 142.0 L 154.0 142.0 L 154.0 142.0 L 154.0 144.0 L 150.0 146.0 L 146.0 150.0 L 141.0 153.0 L 139.0 155.0 L 140.0 158.0 L 146.0 158.0 L 150.0 158.0 " stroke="black" fill="none" stroke-width="5.0" stroke-linecap="round" stroke-linejoin="round" />
<path d="M 160.0 153.0 L 160.0 153.0 L 160.0 155.0 L 160.0 156.0 L 158.0 158.0 L 154.0 161.0 L 150.0 165.0 L 145.0 170.0 L 142.0 174.0 L 141.0 177.0 L 143.0 178.0 L 150.0 178.0 L 159.0 177.0 L 161.0 176.0 " stroke="black" fill="none" stroke-width="5.0" stroke-linecap="round" stroke-linejoin="round" />
<path d="M 165.0 168.0 L 165.0 168.0 L 165.0 169.0 L 166.0 171.0 L 167.0 177.0 L 170.0 185.0 " stroke="black" fill="none" stroke-width="5.0" stroke-linecap="round" stroke-linejoin="round" />
<path d="M 153.0 178.0 L 153.0 178.0 L 153.0 178.0 L 153.0 177.0 L 153.0 178.0 L 154.0 185.0 L 154.0 197.0 L 155.0 209.0 L 155.0 217.0 L 155.0 219.0 L 154.0 218.0 L 150.0 213.0 L 149.0 211.0 " stroke="black" fill="none" stroke-width="5.0" stroke-linecap="round" stroke-linejoin="round" />
<path d="M 139.0 193.0 L 139.0 193.0 L 139.0 193.0 L 138.0 193.0 L 138.0 193.0 L 135.0 196.0 L 129.0 205.0 " stroke="black" fill="none" stroke-width="5.0" stroke-linecap="round" stroke-linejoin="round" />
<path d="M 173.0 194.0 L 173.0 194.0 L 173.0 194.0 L 174.0 194.0 L 177.0 198.0 L 183.0 205.0 L 186.0 209.0 " stroke="black" fill="none" stroke-width="5.0" stroke-linecap="round" stroke-linejoin="round" />
</svg>