<svg xmlns="http://www.w3.org/2000/svg" width="300" height="300" viewBox="0 0 300 300">
<path d="M 123.0 121.0 L 123.0 121.0 L 123.0 122.0 L 124.0 122.0 L 124.0 123.0 L 124.0 126.0 L 123.0 131.0 L 120.0 139.0 L 117.0 146.0 L 115.0 151.0 L 115.0 152.0 L 116.0 153.0 L 120.0 153.0 L 125.0 153.0 L 126.0 153.0 " stroke="black" fill="none" stroke-width="5.0" stroke-linecap="round" stroke-linejoin="round" />
<path d="M 135.0 141.0 L 135.0 141.0 L 134.0 141.0 L 134.0 141.0 L 133.0 141.0 L 132.0 144.0 L 129.0 151.0 L 124.0 160.0 L 120.0 170.0 L 117.0 177.0 L 117.0 180.0 L 121.0 180.0 L 128.0 179.0 L 135.0 176.0 L 138.0 174.0 " stroke="black" fill="none" stroke-width="5.0" stroke-linecap="round" stroke-linejoin="round" />
<path d="M 140.0 164.0 L 140.0 164.0 L 140.0 166.0 L 140.0 169.0 L 142.0 175.0 L 145.0 181.0 L 145.0 182.0 " stroke="black" fill="none" stroke-width="5.0" stroke-linecap="round" stroke-linejoin="round" />
<path d="M 110.0 194.0 L 110.0 195.0 L 110.0 197.0 L 110.0 200.0 L 111.0 202.0 " stroke="black" fill="none" stroke-width="5.0" stroke-linecap="round" stroke-linejoin="round" />
<path d="M 124.0 191.0 L 124.0 191.0 L 125.0 192.0 L 125.0 193.0 L 127.0 195.0 L 128.0 198.0 L 129.0 200.0 " stroke="black" fill="none" stroke-width="5.0" stroke-linecap="round" stroke-linejoin="round" />
<path d="M 135.0 190.0 L 135.0 190.0 L 135.0 190.0 L 136.0 190.0 L 138.0 193.0 L 139.0 197.0 L 140.0 199.0 " stroke="black" fill="none" stroke-width="5.0" stroke-linecap="round" stroke-linejoin="round" />
<path d="M 154.0 121.0 L 154.0 121.0 L 154.0 121.0 L 154.0 121.0 L 155.0 121.0 L 160.0 121.0 L 168.0 121.0 L 176.0 121.0 L 178.0 121.0 " stroke="black" fill="none" stroke-width="5.0" stroke-linecap="round" stroke-linejoin="round" />
<path d="M 155.0 135.0 L 155.0 135.0 L 155.0 135.0 L 155.0 135.0 L 155.0 137.0 L 153.0 140.0 L 152.0 144.0 L 151.0 147.0 L 151.0 150.0 L 154.0 151.0 " stroke="black" fill="none" stroke-width="5.0" stroke-linecap="round" stroke-linejoin="round" />
<path d="M 173.0 135.0 L 173.0 135.0 L 171.0 136.0 L 169.0 137.0 L 167.0 140.0 L 165.0 144.0 L 164.0 149.0 L 165.0 152.0 L 169.0 152.0 " stroke="black" fill="none" stroke-width="5.0" stroke-linecap="round" stroke-linejoin="round" />
<path d="M 187.0 141.0 L 185.0 142.0 L 184.0 144.0 L 182.0 146.0 L 180.0 149.0 L 180.0 152.0 L 180.0 154.0 L 184.0 155.0 L 185.0 155.0 " stroke="black" fill="none" stroke-width="5.0" stroke-linecap="round" stroke-linejoin="round" />
<path d="M 155.0 169.0 L 155.0 169.0 L 155.0 169.0 L 155.0 170.0 L 159.0 170.0 L 166.0 170.0 L 174.0 169.0 L 182.0 168.0 L 183.0 168.0 " stroke="black" fill="none" stroke-width="5.0" stroke-linecap="round" stroke-linejoin="round" />
<path d="M 170.0 173.0 L 170.0 173.0 L 170.0 173.0 L 170.0 173.0 L 170.0 173.0 L 170.0 175.0 L 171.0 181.0 L 172.0 189.0 " stroke="black" fill="none" stroke-width="5.0" stroke-linecap="round" stroke-linejoin="round" />
<path d="M 154.0 199.0 L 154.0 199.0 L 154.0 199.0 L 155.0 199.0 L 159.0 198.0 L 170.0 196.0 L 185.0 196.0 L 196.0 196.0 L 198.0 196.0 " stroke="black" fill="none" stroke-width="5.0" stroke-linecap="round" stroke-linejoin="round" />
</svg>