<svg xmlns="http://www.w3.org/2000/svg" width="300" height="300" viewBox="0 0 300 300">
<path d="M 126.0 124.0 L 126.0 124.0 L 126.0 124.0 L 126.0 124.0 L 126.0 124.0 L 124.0 126.0 L 121.0 131.0 L 116.0 138.0 L 112.0 144.0 L 111.0 148.0 L 113.0 150.0 L 118.0 151.0 L 124.0 152.0 L 125.0 152.0 " stroke="black" fill="none" stroke-width="5.0" stroke-linecap="round" stroke-linejoin="round" />
<path d="M 136.0 142.0 L 136.0 142.0 L 135.0 142.0 L 134.0 142.0 L 132.0 144.0 L 128.0 149.0 L 121.0 156.0 L 114.0 163.0 L 109.0 169.0 L 109.0 173.0 L 112.0 174.0 L 120.0 174.0 L 128.0 171.0 L 135.0 168.0 " stroke="black" fill="none" stroke-width="5.0" stroke-linecap="round" stroke-linejoin="round" />
<path d="M 136.0 160.0 L 136.0 160.0 L 136.0 161.0 L 137.0 164.0 L 139.0 169.0 L 141.0 177.0 " stroke="black" fill="none" stroke-width="5.0" stroke-linecap="round" stroke-linejoin="round" />
<path d="M 108.0 186.0 L 108.0 187.0 L 108.0 188.0 L 108.0 190.0 L 109.0 194.0 L 110.0 197.0 " stroke="black" fill="none" stroke-width="5.0" stroke-linecap="round" stroke-linejoin="round" />
<path d="M 119.0 185.0 L 119.0 185.0 L 119.0 186.0 L 120.0 187.0 L 121.0 190.0 L 121.0 194.0 L 122.0 196.0 " stroke="black" fill="none" stroke-width="5.0" stroke-linecap="round" stroke-linejoin="round" />
<path d="M 129.0 185.0 L 130.0 185.0 L 131.0 186.0 L 133.0 190.0 L 134.0 191.0 " stroke="black" fill="none" stroke-width="5.0" stroke-linecap="round" stroke-linejoin="round" />
<path d="M 164.0 110.0 L 164.0 110.0 L 165.0 110.0 L 165.0 110.0 L 165.0 112.0 L 161.0 116.0 L 155.0 123.0 L 153.0 125.0 " stroke="black" fill="none" stroke-width="5.0" stroke-linecap="round" stroke-linejoin="round" />
<path d="M 149.0 135.0 L 149.0 135.0 L 149.0 135.0 L 150.0 137.0 L 151.0 140.0 L 152.0 142.0 L 153.0 143.0 " stroke="black" fill="none" stroke-width="5.0" stroke-linecap="round" stroke-linejoin="round" />
<path d="M 161.0 127.0 L 162.0 127.0 L 163.0 128.0 L 163.0 130.0 L 164.0 134.0 L 164.0 139.0 L 164.0 141.0 " stroke="black" fill="none" stroke-width="5.0" stroke-linecap="round" stroke-linejoin="round" />
<path d="M 176.0 124.0 L 176.0 127.0 L 176.0 131.0 L 175.0 137.0 L 174.0 143.0 " stroke="black" fill="none" stroke-width="5.0" stroke-linecap="round" stroke-linejoin="round" />
<path d="M 162.0 156.0 L 163.0 156.0 L 163.0 157.0 L 163.0 159.0 L 162.0 164.0 L 160.0 172.0 L 157.0 180.0 L 155.0 186.0 L 154.0 190.0 L 154.0 192.0 L 161.0 194.0 L 171.0 195.0 L 181.0 195.0 L 184.0 195.0 " stroke="black" fill="none" stroke-width="5.0" stroke-linecap="round" stroke-linejoin="round" />
<path d="M 176.0 163.0 L 176.0 164.0 L 175.0 167.0 L 173.0 172.0 L 171.0 183.0 L 167.0 195.0 L 164.0 205.0 L 163.0 206.0 " stroke="black" fill="none" stroke-width="5.0" stroke-linecap="round" stroke-linejoin="round" />
<path d="M 146.0 181.0 L 146.0 181.0 L 147.0 181.0 L 150.0 181.0 L 161.0 180.0 L 181.0 175.0 L 193.0 172.0 " stroke="black" fill="none" stroke-width="5.0" stroke-linecap="round" stroke-linejoin="round" />
</svg>