<svg xmlns="http://www.w3.org/2000/svg" width="300" height="300" viewBox="0 0 300 300">
<path d="M 121.0 118.0 L 121.0 118.0 L 122.0 118.0 L 122.0 118.0 L 122.0 118.0 L 122.0 119.0 L 122.0 122.0 L 119.0 128.0 L 114.0 136.0 L 110.0 142.0 L 109.0 145.0 L 108.0 146.0 L 110.0 146.0 L 113.0 147.0 L 117.0 147.0 " stroke="black" fill="none" stroke-width="5.0" stroke-linecap="round" stroke-linejoin="round" />
<path d="M 131.0 136.0 L 131.0 136.0 L 130.0 136.0 L 129.0 136.0 L 128.0 138.0 L 125.0 141.0 L 121.0 148.0 L 115.0 156.0 L 110.0 163.0 L 109.0 167.0 L 110.0 169.0 L 114.0 169.0 L 120.0 168.0 L 126.0 166.0 L 127.0 166.0 " stroke="black" fill="none" stroke-width="5.0" stroke-linecap="round" stroke-linejoin="round" />
<path d="M 131.0 159.0 L 131.0 160.0 L 131.0 163.0 L 131.0 167.0 L 134.0 172.0 L 135.0 174.0 " stroke="black" fill="none" stroke-width="5.0" stroke-linecap="round" stroke-linejoin="round" />
<path d="M 107.0 186.0 L 107.0 186.0 L 107.0 186.0 L 107.0 187.0 L 107.0 190.0 L 107.0 195.0 L 108.0 196.0 " stroke="black" fill="none" stroke-width="5.0" stroke-linecap="round" stroke-linejoin="round" />
<path d="M 116.0 182.0 L 117.0 183.0 L 117.0 185.0 L 118.0 188.0 L 119.0 191.0 L 120.0 193.0 " stroke="black" fill="none" stroke-width="5.0" stroke-linecap="round" stroke-linejoin="round" />
<path d="M 127.0 183.0 L 127.0 183.0 L 128.0 185.0 L 129.0 188.0 L 132.0 192.0 " stroke="black" fill="none" stroke-width="5.0" stroke-linecap="round" stroke-linejoin="round" />
<path d="M 148.0 118.0 L 148.0 118.0 L 147.0 120.0 L 146.0 123.0 L 144.0 129.0 L 141.0 136.0 L 138.0 144.0 L 137.0 145.0 " stroke="black" fill="none" stroke-width="5.0" stroke-linecap="round" stroke-linejoin="round" />
<path d="M 144.0 131.0 L 144.0 131.0 L 144.0 131.0 L 144.0 131.0 L 147.0 131.0 L 152.0 131.0 L 159.0 131.0 L 164.0 130.0 L 168.0 130.0 L 171.0 130.0 L 172.0 131.0 L 174.0 133.0 L 176.0 137.0 L 178.0 147.0 L 181.0 160.0 L 183.0 173.0 L 185.0 183.0 L 185.0 189.0 L 185.0 192.0 L 183.0 192.0 L 178.0 192.0 L 170.0 192.0 " stroke="black" fill="none" stroke-width="5.0" stroke-linecap="round" stroke-linejoin="round" />
<path d="M 150.0 155.0 L 150.0 155.0 L 151.0 157.0 L 154.0 160.0 L 159.0 165.0 L 162.0 167.0 " stroke="black" fill="none" stroke-width="5.0" stroke-linecap="round" stroke-linejoin="round" />
</svg>