<svg xmlns="http://www.w3.org/2000/svg" width="300" height="300" viewBox="0 0 300 300">
<path d="M 121.0 116.0 L 121.0 118.0 L 120.0 119.0 L 118.0 122.0 L 116.0 125.0 L 113.0 130.0 L 109.0 136.0 L 106.0 140.0 L 106.0 143.0 L 107.0 145.0 L 112.0 146.0 L 116.0 147.0 " stroke="black" fill="none" stroke-width="5.0" stroke-linecap="round" stroke-linejoin="round" />
<path d="M 126.0 137.0 L 126.0 137.0 L 126.0 138.0 L 126.0 139.0 L 124.0 142.0 L 119.0 147.0 L 113.0 154.0 L 105.0 163.0 L 102.0 169.0 L 102.0 171.0 L 108.0 171.0 L 116.0 170.0 L 124.0 169.0 L 125.0 169.0 " stroke="black" fill="none" stroke-width="5.0" stroke-linecap="round" stroke-linejoin="round" />
<path d="M 129.0 158.0 L 129.0 158.0 L 129.0 160.0 L 129.0 163.0 L 130.0 168.0 L 132.0 174.0 L 134.0 178.0 " stroke="black" fill="none" stroke-width="5.0" stroke-linecap="round" stroke-linejoin="round" />
<path d="M 97.0 183.0 L 97.0 183.0 L 97.0 183.0 L 97.0 184.0 L 97.0 189.0 L 98.0 194.0 L 99.0 198.0 " stroke="black" fill="none" stroke-width="5.0" stroke-linecap="round" stroke-linejoin="round" />
<path d="M 109.0 184.0 L 109.0 184.0 L 110.0 184.0 L 110.0 185.0 L 112.0 189.0 L 113.0 193.0 " stroke="black" fill="none" stroke-width="5.0" stroke-linecap="round" stroke-linejoin="round" />
<path d="M 122.0 184.0 L 122.0 185.0 L 123.0 188.0 L 124.0 192.0 L 126.0 196.0 " stroke="black" fill="none" stroke-width="5.0" stroke-linecap="round" stroke-linejoin="round" />
<path d="M 148.0 124.0 L 149.0 124.0 L 150.0 124.0 L 153.0 124.0 L 160.0 124.0 L 168.0 124.0 L 174.0 124.0 " stroke="black" fill="none" stroke-width="5.0" stroke-linecap="round" stroke-linejoin="round" />
<path d="M 141.0 148.0 L 141.0 148.0 L 142.0 148.0 L 145.0 148.0 L 152.0 147.0 L 163.0 147.0 L 174.0 147.0 L 182.0 148.0 L 183.0 149.0 " stroke="black" fill="none" stroke-width="5.0" stroke-linecap="round" stroke-linejoin="round" />
<path d="M 161.0 130.0 L 161.0 130.0 L 161.0 129.0 L 161.0 128.0 L 161.0 128.0 L 161.0 130.0 L 162.0 136.0 L 163.0 148.0 L 164.0 168.0 L 165.0 188.0 L 165.0 201.0 L 165.0 205.0 L 163.0 206.0 L 158.0 203.0 L 149.0 197.0 " stroke="black" fill="none" stroke-width="5.0" stroke-linecap="round" stroke-linejoin="round" />
</svg>