<svg xmlns="http://www.w3.org/2000/svg" width="300" height="300" viewBox="0 0 300 300">
<path d="M 126.0 118.0 L 126.0 118.0 L 126.0 118.0 L 125.0 120.0 L 125.0 122.0 L 123.0 126.0 L 120.0 131.0 L 117.0 136.0 L 115.0 140.0 L 114.0 142.0 L 115.0 143.0 L 119.0 144.0 L 124.0 144.0 L 126.0 144.0 " stroke="black" fill="none" stroke-width="5.0" stroke-linecap="round" stroke-linejoin="round" />
<path d="M 137.0 133.0 L 136.0 133.0 L 135.0 134.0 L 134.0 135.0 L 131.0 139.0 L 126.0 145.0 L 120.0 153.0 L 115.0 162.0 L 113.0 168.0 L 112.0 171.0 L 115.0 172.0 L 121.0 172.0 L 128.0 170.0 L 133.0 167.0 L 134.0 166.0 " stroke="black" fill="none" stroke-width="5.0" stroke-linecap="round" stroke-linejoin="round" />
<path d="M 137.0 158.0 L 137.0 159.0 L 137.0 159.0 L 137.0 161.0 L 138.0 165.0 L 140.0 172.0 L 141.0 175.0 " stroke="black" fill="none" stroke-width="5.0" stroke-linecap="round" stroke-linejoin="round" />
<path d="M 107.0 185.0 L 107.0 185.0 L 107.0 185.0 L 107.0 187.0 L 107.0 190.0 L 109.0 195.0 " stroke="black" fill="none" stroke-width="5.0" stroke-linecap="round" stroke-linejoin="round" />
<path d="M 118.0 183.0 L 118.0 183.0 L 118.0 184.0 L 119.0 187.0 L 121.0 191.0 L 122.0 194.0 " stroke="black" fill="none" stroke-width="5.0" stroke-linecap="round" stroke-linejoin="round" />
<path d="M 132.0 182.0 L 132.0 185.0 L 132.0 189.0 L 134.0 193.0 L 136.0 197.0 " stroke="black" fill="none" stroke-width="5.0" stroke-linecap="round" stroke-linejoin="round" />
<path d="M 158.0 110.0 L 158.0 110.0 L 158.0 110.0 L 158.0 110.0 L 158.0 113.0 L 158.0 120.0 L 158.0 129.0 L 158.0 135.0 L 158.0 136.0 " stroke="black" fill="none" stroke-width="5.0" stroke-linecap="round" stroke-linejoin="round" />
<path d="M 162.0 120.0 L 162.0 120.0 L 162.0 120.0 L 163.0 120.0 L 163.0 121.0 L 166.0 121.0 L 171.0 121.0 L 176.0 121.0 L 178.0 121.0 " stroke="black" fill="none" stroke-width="5.0" stroke-linecap="round" stroke-linejoin="round" />
<path d="M 146.0 141.0 L 146.0 141.0 L 146.0 142.0 L 146.0 145.0 L 147.0 150.0 L 149.0 157.0 L 150.0 161.0 " stroke="black" fill="none" stroke-width="5.0" stroke-linecap="round" stroke-linejoin="round" />
<path d="M 148.0 142.0 L 148.0 142.0 L 148.0 142.0 L 149.0 142.0 L 153.0 142.0 L 159.0 140.0 L 167.0 140.0 L 173.0 140.0 L 178.0 140.0 L 181.0 144.0 L 182.0 151.0 L 182.0 157.0 L 183.0 162.0 L 183.0 163.0 " stroke="black" fill="none" stroke-width="5.0" stroke-linecap="round" stroke-linejoin="round" />
<path d="M 151.0 152.0 L 151.0 152.0 L 151.0 152.0 L 151.0 153.0 L 155.0 153.0 L 164.0 153.0 L 173.0 153.0 L 179.0 153.0 L 180.0 154.0 L 180.0 154.0 " stroke="black" fill="none" stroke-width="5.0" stroke-linecap="round" stroke-linejoin="round" />
<path d="M 152.0 163.0 L 152.0 164.0 L 154.0 165.0 L 157.0 165.0 L 164.0 165.0 L 173.0 165.0 L 180.0 165.0 L 183.0 165.0 " stroke="black" fill="none" stroke-width="5.0" stroke-linecap="round" stroke-linejoin="round" />
<path d="M 146.0 183.0 L 146.0 183.0 L 146.0 183.0 L 146.0 183.0 L 146.0 183.0 L 152.0 184.0 L 163.0 185.0 L 175.0 186.0 L 185.0 186.0 L 189.0 185.0 L 189.0 185.0 " stroke="black" fill="none" stroke-width="5.0" stroke-linecap="round" stroke-linejoin="round" />
<path d="M 166.0 165.0 L 166.0 165.0 L 166.0 165.0 L 166.0 165.0 L 166.0 166.0 L 166.0 171.0 L 168.0 183.0 L 170.0 198.0 L 170.0 205.0 " stroke="black" fill="none" stroke-width="5.0" stroke-linecap="round" stroke-linejoin="round" />
</svg>