<svg xmlns="http://www.w3.org/2000/svg" width="300" height="300" viewBox="0 0 300 300">
<path d="M 129.0 123.0 L 129.0 123.0 L 129.0 123.0 L 128.0 123.0 L 127.0 124.0 L 126.0 127.0 L 123.0 132.0 L 118.0 138.0 L 115.0 143.0 L 113.0 145.0 L 113.0 146.0 L 116.0 146.0 L 120.0 146.0 L 121.0 146.0 " stroke="black" fill="none" stroke-width="5.0" stroke-linecap="round" stroke-linejoin="round" />
<path d="M 135.0 140.0 L 135.0 140.0 L 135.0 140.0 L 135.0 140.0 L 135.0 139.0 L 135.0 139.0 L 133.0 142.0 L 129.0 147.0 L 123.0 153.0 L 116.0 161.0 L 113.0 166.0 L 113.0 168.0 L 118.0 168.0 L 126.0 167.0 L 134.0 166.0 L 137.0 165.0 " stroke="black" fill="none" stroke-width="5.0" stroke-linecap="round" stroke-linejoin="round" />
<path d="M 136.0 160.0 L 136.0 161.0 L 136.0 162.0 L 136.0 166.0 L 139.0 170.0 " stroke="black" fill="none" stroke-width="5.0" stroke-linecap="round" stroke-linejoin="round" />
<path d="M 109.0 185.0 L 109.0 185.0 L 109.0 185.0 L 110.0 185.0 L 110.0 186.0 L 112.0 189.0 L 113.0 192.0 " stroke="black" fill="none" stroke-width="5.0" stroke-linecap="round" stroke-linejoin="round" />
<path d="M 121.0 181.0 L 122.0 181.0 L 124.0 182.0 L 125.0 184.0 L 126.0 188.0 L 127.0 189.0 " stroke="black" fill="none" stroke-width="5.0" stroke-linecap="round" stroke-linejoin="round" />
<path d="M 134.0 179.0 L 135.0 179.0 L 136.0 180.0 L 137.0 182.0 L 139.0 186.0 " stroke="black" fill="none" stroke-width="5.0" stroke-linecap="round" stroke-linejoin="round" />
<path d="M 160.0 111.0 L 160.0 111.0 L 161.0 111.0 L 161.0 112.0 L 161.0 113.0 L 161.0 114.0 L 159.0 117.0 L 157.0 120.0 L 155.0 124.0 L 154.0 126.0 L 153.0 129.0 L 157.0 130.0 L 159.0 130.0 " stroke="black" fill="none" stroke-width="5.0" stroke-linecap="round" stroke-linejoin="round" />
<path d="M 158.0 121.0 L 159.0 121.0 L 159.0 122.0 L 159.0 122.0 L 161.0 123.0 L 165.0 123.0 L 172.0 122.0 L 176.0 122.0 L 179.0 122.0 L 179.0 122.0 L 178.0 126.0 L 176.0 131.0 L 172.0 137.0 " stroke="black" fill="none" stroke-width="5.0" stroke-linecap="round" stroke-linejoin="round" />
<path d="M 149.0 143.0 L 149.0 143.0 L 149.0 142.0 L 149.0 142.0 L 152.0 141.0 L 162.0 140.0 L 175.0 138.0 L 185.0 138.0 L 189.0 138.0 " stroke="black" fill="none" stroke-width="5.0" stroke-linecap="round" stroke-linejoin="round" />
<path d="M 170.0 143.0 L 170.0 143.0 L 171.0 143.0 L 171.0 143.0 L 170.0 145.0 L 166.0 149.0 L 160.0 154.0 L 154.0 159.0 L 152.0 160.0 " stroke="black" fill="none" stroke-width="5.0" stroke-linecap="round" stroke-linejoin="round" />
<path d="M 167.0 150.0 L 167.0 150.0 L 167.0 150.0 L 167.0 150.0 L 169.0 153.0 L 175.0 163.0 L 181.0 178.0 L 185.0 190.0 L 185.0 195.0 L 183.0 197.0 L 179.0 198.0 L 174.0 196.0 L 169.0 193.0 " stroke="black" fill="none" stroke-width="5.0" stroke-linecap="round" stroke-linejoin="round" />
<path d="M 174.0 160.0 L 174.0 161.0 L 174.0 161.0 L 173.0 163.0 L 171.0 164.0 L 168.0 167.0 L 161.0 172.0 L 153.0 179.0 L 150.0 181.0 " stroke="black" fill="none" stroke-width="5.0" stroke-linecap="round" stroke-linejoin="round" />
<path d="M 176.0 170.0 L 175.0 172.0 L 173.0 173.0 L 171.0 176.0 L 167.0 180.0 L 160.0 187.0 L 152.0 194.0 L 150.0 195.0 " stroke="black" fill="none" stroke-width="5.0" stroke-linecap="round" stroke-linejoin="round" />
<path d="M 172.0 177.0 L 173.0 176.0 L 174.0 174.0 L 178.0 171.0 L 184.0 168.0 L 191.0 165.0 L 195.0 163.0 " stroke="black" fill="none" stroke-width="5.0" stroke-linecap="round" stroke-linejoin="round" />
<path d="M 181.0 174.0 L 184.0 176.0 L 188.0 180.0 L 195.0 186.0 L 202.0 193.0 L 207.0 196.0 " stroke="black" fill="none" stroke-width="5.0" stroke-linecap="round" stroke-linejoin="round" />
</svg>