<svg xmlns="http://www.w3.org/2000/svg" width="300" height="300" viewBox="0 0 300 300">
<path d="M 129.0 115.0 L 129.0 115.0 L 129.0 115.0 L 129.0 115.0 L 130.0 115.0 L 134.0 115.0 L 144.0 114.0 L 155.0 113.0 L 163.0 113.0 L 166.0 113.0 L 166.0 113.0 " stroke="black" fill="none" stroke-width="5.0" stroke-linecap="round" stroke-linejoin="round" />
<path d="M 138.0 126.0 L 138.0 126.0 L 138.0 127.0 L 139.0 127.0 L 142.0 127.0 L 148.0 127.0 L 154.0 126.0 L 159.0 126.0 L 159.0 126.0 " stroke="black" fill="none" stroke-width="5.0" stroke-linecap="round" stroke-linejoin="round" />
<path d="M 123.0 144.0 L 124.0 144.0 L 125.0 144.0 L 130.0 144.0 L 140.0 144.0 L 153.0 143.0 L 163.0 143.0 L 169.0 143.0 L 169.0 143.0 " stroke="black" fill="none" stroke-width="5.0" stroke-linecap="round" stroke-linejoin="round" />
<path d="M 148.0 99.0 L 148.0 99.0 L 148.0 102.0 L 148.0 109.0 L 150.0 120.0 L 151.0 131.0 L 151.0 136.0 " stroke="black" fill="none" stroke-width="5.0" stroke-linecap="round" stroke-linejoin="round" />
<path d="M 148.0 146.0 L 148.0 146.0 L 148.0 146.0 L 147.0 146.0 L 146.0 148.0 L 144.0 150.0 L 141.0 154.0 L 137.0 157.0 L 134.0 159.0 L 133.0 160.0 L 134.0 161.0 L 139.0 162.0 L 144.0 162.0 L 147.0 162.0 " stroke="black" fill="none" stroke-width="5.0" stroke-linecap="round" stroke-linejoin="round" />
<path d="M 156.0 156.0 L 156.0 156.0 L 156.0 156.0 L 155.0 156.0 L 154.0 158.0 L 151.0 160.0 L 146.0 164.0 L 140.0 169.0 L 136.0 173.0 L 133.0 175.0 L 133.0 176.0 L 136.0 176.0 L 141.0 176.0 L 149.0 176.0 L 155.0 174.0 L 160.0 174.0 " stroke="black" fill="none" stroke-width="5.0" stroke-linecap="round" stroke-linejoin="round" />
<path d="M 160.0 166.0 L 161.0 167.0 L 162.0 169.0 L 164.0 173.0 L 167.0 177.0 L 169.0 181.0 L 169.0 182.0 " stroke="black" fill="none" stroke-width="5.0" stroke-linecap="round" stroke-linejoin="round" />
<path d="M 150.0 177.0 L 150.0 177.0 L 150.0 177.0 L 150.0 179.0 L 151.0 184.0 L 153.0 192.0 L 155.0 198.0 L 156.0 202.0 L 156.0 203.0 L 154.0 203.0 L 150.0 201.0 L 148.0 200.0 " stroke="black" fill="none" stroke-width="5.0" stroke-linecap="round" stroke-linejoin="round" />
<path d="M 136.0 188.0 L 136.0 188.0 L 136.0 188.0 L 136.0 188.0 L 135.0 188.0 L 133.0 190.0 L 129.0 194.0 L 126.0 197.0 " stroke="black" fill="none" stroke-width="5.0" stroke-linecap="round" stroke-linejoin="round" />
<path d="M 165.0 187.0 L 165.0 187.0 L 166.0 188.0 L 167.0 191.0 L 171.0 194.0 L 176.0 198.0 " stroke="black" fill="none" stroke-width="5.0" stroke-linecap="round" stroke-linejoin="round" />
</svg>