<svg xmlns="http://www.w3.org/2000/svg" width="300" height="300" viewBox="0 0 300 300">
<path d="M 125.71428571428574 115.71428571428574 L 127.14285714285718 115.71428571428574 L 127.85714285714288 115.71428571428574 L 127.85714285714288 115.71428571428574 L 127.85714285714288 117.14285714285718 L 125.71428571428574 120.00000000000001 L 123.5714285714286 124.28571428571432 L 120.00000000000001 130.00000000000006 L 117.14285714285718 135.00000000000006 L 115.00000000000001 138.5714285714286 L 115.71428571428574 139.28571428571433 L 118.5714285714286 139.28571428571433 L 122.85714285714288 139.28571428571433 L 124.28571428571432 138.5714285714286 " stroke="black" fill="none" stroke-width="5.0" stroke-linecap="round" stroke-linejoin="round" />
<path d="M 133.5714285714286 132.14285714285717 L 133.5714285714286 132.14285714285717 L 133.5714285714286 132.14285714285717 L 132.8571428571429 132.14285714285717 L 131.42857142857144 134.28571428571433 L 128.5714285714286 139.28571428571433 L 125.71428571428574 147.14285714285717 L 122.14285714285718 155.00000000000006 L 120.00000000000001 161.42857142857144 L 120.00000000000001 163.5714285714286 L 121.42857142857146 164.28571428571433 L 124.28571428571432 164.28571428571433 L 127.85714285714288 163.5714285714286 L 132.14285714285717 162.14285714285717 L 135.71428571428572 160.71428571428572 " stroke="black" fill="none" stroke-width="5.0" stroke-linecap="round" stroke-linejoin="round" />
<path d="M 140.00000000000006 154.28571428571433 L 140.00000000000006 155.71428571428572 L 140.71428571428572 157.8571428571429 L 142.14285714285717 162.14285714285717 L 144.28571428571433 166.42857142857144 L 144.28571428571433 167.14285714285717 " stroke="black" fill="none" stroke-width="5.0" stroke-linecap="round" stroke-linejoin="round" />
<path d="M 114.28571428571432 180.71428571428578 L 114.28571428571432 180.71428571428578 L 114.28571428571432 180.71428571428578 L 113.5714285714286 181.42857142857144 L 113.5714285714286 184.28571428571433 L 115.00000000000001 188.5714285714286 L 117.14285714285718 191.42857142857144 " stroke="black" fill="none" stroke-width="5.0" stroke-linecap="round" stroke-linejoin="round" />
<path d="M 122.85714285714288 178.5714285714286 L 122.85714285714288 178.5714285714286 L 123.5714285714286 178.5714285714286 L 124.28571428571432 179.28571428571433 L 125.00000000000001 182.14285714285717 L 126.42857142857146 186.42857142857144 L 127.85714285714288 190.00000000000006 L 127.85714285714288 191.42857142857144 " stroke="black" fill="none" stroke-width="5.0" stroke-linecap="round" stroke-linejoin="round" />
<path d="M 135.71428571428572 177.8571428571429 L 136.42857142857144 180.00000000000006 L 137.8571428571429 183.5714285714286 L 139.28571428571433 187.14285714285717 L 140.71428571428572 189.28571428571433 " stroke="black" fill="none" stroke-width="5.0" stroke-linecap="round" stroke-linejoin="round" />
<path d="M 150.71428571428572 125.71428571428574 L 151.42857142857144 125.71428571428574 L 153.5714285714286 125.71428571428574 L 157.14285714285717 124.28571428571432 L 163.5714285714286 123.5714285714286 L 170.00000000000006 122.14285714285718 L 170.71428571428572 122.14285714285718 " stroke="black" fill="none" stroke-width="5.0" stroke-linecap="round" stroke-linejoin="round" />
<path d="M 152.14285714285717 141.42857142857144 L 152.8571428571429 141.42857142857144 L 152.8571428571429 141.42857142857144 L 154.28571428571433 141.42857142857144 L 158.5714285714286 140.71428571428572 L 165.71428571428572 140.00000000000006 L 172.8571428571429 138.5714285714286 L 174.28571428571433 138.5714285714286 " stroke="black" fill="none" stroke-width="5.0" stroke-linecap="round" stroke-linejoin="round" />
<path d="M 161.42857142857144 110.00000000000001 L 161.42857142857144 110.00000000000001 L 160.71428571428572 110.00000000000001 L 160.71428571428572 115.00000000000001 L 163.5714285714286 127.14285714285718 L 165.71428571428572 137.8571428571429 L 165.71428571428572 140.00000000000006 " stroke="black" fill="none" stroke-width="5.0" stroke-linecap="round" stroke-linejoin="round" />
<path d="M 153.5714285714286 157.8571428571429 L 153.5714285714286 157.8571428571429 L 153.5714285714286 157.8571428571429 L 153.5714285714286 160.00000000000006 L 155.00000000000006 166.42857142857144 L 155.71428571428572 174.28571428571433 L 157.14285714285717 178.5714285714286 L 157.8571428571429 179.28571428571433 " stroke="black" fill="none" stroke-width="5.0" stroke-linecap="round" stroke-linejoin="round" />
<path d="M 155.71428571428572 157.14285714285717 L 155.71428571428572 157.14285714285717 L 156.42857142857144 157.14285714285717 L 158.5714285714286 156.42857142857144 L 162.8571428571429 155.71428571428572 L 168.5714285714286 155.00000000000006 L 173.5714285714286 154.28571428571433 L 176.42857142857144 154.28571428571433 L 179.28571428571433 155.00000000000006 L 180.71428571428578 157.14285714285717 L 182.14285714285717 160.71428571428572 L 183.5714285714286 166.42857142857144 L 184.28571428571433 171.42857142857144 L 184.28571428571433 175.00000000000006 L 184.28571428571433 175.71428571428578 " stroke="black" fill="none" stroke-width="5.0" stroke-linecap="round" stroke-linejoin="round" />
<path d="M 160.00000000000006 182.14285714285717 L 159.28571428571433 182.8571428571429 L 158.5714285714286 183.5714285714286 L 159.28571428571433 183.5714285714286 L 165.00000000000006 182.8571428571429 L 172.14285714285717 181.42857142857144 L 179.28571428571433 181.42857142857144 L 184.28571428571433 180.71428571428578 L 185.71428571428578 180.71428571428578 L 185.71428571428578 180.00000000000006 " stroke="black" fill="none" stroke-width="5.0" stroke-linecap="round" stroke-linejoin="round" />
</svg>