<svg xmlns="http://www.w3.org/2000/svg" width="300" height="300" viewBox="0 0 300 300">
<path d="M 129.0 122.0 L 129.0 122.0 L 129.0 122.0 L 129.0 122.0 L 129.0 122.0 L 129.0 123.0 L 129.0 123.0 L 129.0 124.0 L 126.0 128.0 L 122.0 133.0 L 119.0 139.0 L 117.0 142.0 L 116.0 144.0 L 119.0 145.0 L 125.0 145.0 L 128.0 145.0 " stroke="black" fill="none" stroke-width="5.0" stroke-linecap="round" stroke-linejoin="round" />
<path d="M 141.0 135.0 L 141.0 135.0 L 140.0 135.0 L 139.0 135.0 L 138.0 136.0 L 135.0 140.0 L 129.0 146.0 L 121.0 156.0 L 115.0 163.0 L 113.0 167.0 L 115.0 167.0 L 122.0 167.0 L 132.0 165.0 L 140.0 164.0 " stroke="black" fill="none" stroke-width="5.0" stroke-linecap="round" stroke-linejoin="round" />
<path d="M 142.0 156.0 L 142.0 156.0 L 141.0 158.0 L 141.0 162.0 L 144.0 168.0 L 145.0 169.0 " stroke="black" fill="none" stroke-width="5.0" stroke-linecap="round" stroke-linejoin="round" />
<path d="M 109.0 183.0 L 109.0 183.0 L 109.0 183.0 L 109.0 185.0 L 109.0 187.0 L 111.0 191.0 L 111.0 192.0 " stroke="black" fill="none" stroke-width="5.0" stroke-linecap="round" stroke-linejoin="round" />
<path d="M 121.0 181.0 L 122.0 181.0 L 122.0 181.0 L 123.0 180.0 L 123.0 180.0 L 124.0 180.0 L 125.0 182.0 L 126.0 186.0 L 128.0 191.0 " stroke="black" fill="none" stroke-width="5.0" stroke-linecap="round" stroke-linejoin="round" />
<path d="M 138.0 181.0 L 138.0 181.0 L 138.0 182.0 L 139.0 186.0 L 140.0 187.0 " stroke="black" fill="none" stroke-width="5.0" stroke-linecap="round" stroke-linejoin="round" />
<path d="M 159.0 114.0 L 159.0 115.0 L 158.0 116.0 L 157.0 120.0 L 154.0 128.0 L 150.0 140.0 L 147.0 148.0 " stroke="black" fill="none" stroke-width="5.0" stroke-linecap="round" stroke-linejoin="round" />
<path d="M 156.0 133.0 L 156.0 133.0 L 156.0 134.0 L 155.0 134.0 L 155.0 137.0 L 157.0 145.0 L 160.0 159.0 L 163.0 174.0 L 163.0 177.0 " stroke="black" fill="none" stroke-width="5.0" stroke-linecap="round" stroke-linejoin="round" />
<path d="M 172.0 121.0 L 172.0 121.0 L 172.0 121.0 L 174.0 123.0 L 178.0 128.0 " stroke="black" fill="none" stroke-width="5.0" stroke-linecap="round" stroke-linejoin="round" />
<path d="M 168.0 142.0 L 168.0 142.0 L 169.0 142.0 L 170.0 142.0 L 175.0 141.0 L 183.0 140.0 L 190.0 139.0 L 192.0 139.0 " stroke="black" fill="none" stroke-width="5.0" stroke-linecap="round" stroke-linejoin="round" />
<path d="M 175.0 154.0 L 176.0 154.0 L 178.0 154.0 L 182.0 153.0 L 186.0 153.0 L 190.0 153.0 " stroke="black" fill="none" stroke-width="5.0" stroke-linecap="round" stroke-linejoin="round" />
<path d="M 173.0 168.0 L 174.0 168.0 L 178.0 168.0 L 184.0 168.0 L 190.0 167.0 L 195.0 167.0 " stroke="black" fill="none" stroke-width="5.0" stroke-linecap="round" stroke-linejoin="round" />
<path d="M 162.0 193.0 L 163.0 193.0 L 168.0 193.0 L 179.0 193.0 L 193.0 190.0 L 203.0 190.0 " stroke="black" fill="none" stroke-width="5.0" stroke-linecap="round" stroke-linejoin="round" />
<path d="M 182.0 146.0 L 181.0 145.0 L 181.0 145.0 L 181.0 147.0 L 183.0 160.0 L 187.0 183.0 L 187.0 189.0 " stroke="black" fill="none" stroke-width="5.0" stroke-linecap="round" stroke-linejoin="round" />
</svg>