<svg xmlns="http://www.w3.org/2000/svg" width="300" height="300" viewBox="0 0 300 300">
<path d="M 122.0 120.0 L 122.0 120.0 L 122.0 120.0 L 122.0 120.0 L 123.0 120.0 L 123.0 120.0 L 122.0 123.0 L 118.0 129.0 L 113.0 137.0 L 108.0 144.0 L 107.0 149.0 L 109.0 152.0 L 115.0 153.0 L 119.0 151.0 L 120.0 151.0 " stroke="black" fill="none" stroke-width="5.0" stroke-linecap="round" stroke-linejoin="round" />
<path d="M 129.0 135.0 L 129.0 135.0 L 128.0 136.0 L 126.0 138.0 L 123.0 141.0 L 119.0 147.0 L 113.0 155.0 L 109.0 162.0 L 108.0 168.0 L 110.0 171.0 L 115.0 172.0 L 122.0 169.0 L 124.0 168.0 " stroke="black" fill="none" stroke-width="5.0" stroke-linecap="round" stroke-linejoin="round" />
<path d="M 129.0 156.0 L 129.0 156.0 L 129.0 156.0 L 129.0 159.0 L 131.0 165.0 L 135.0 173.0 " stroke="black" fill="none" stroke-width="5.0" stroke-linecap="round" stroke-linejoin="round" />
<path d="M 106.0 185.0 L 106.0 185.0 L 106.0 185.0 L 105.0 186.0 L 105.0 188.0 L 106.0 191.0 L 108.0 196.0 " stroke="black" fill="none" stroke-width="5.0" stroke-linecap="round" stroke-linejoin="round" />
<path d="M 116.0 185.0 L 116.0 185.0 L 117.0 186.0 L 118.0 190.0 L 119.0 195.0 L 119.0 196.0 " stroke="black" fill="none" stroke-width="5.0" stroke-linecap="round" stroke-linejoin="round" />
<path d="M 126.0 184.0 L 128.0 185.0 L 129.0 188.0 L 131.0 193.0 L 132.0 195.0 " stroke="black" fill="none" stroke-width="5.0" stroke-linecap="round" stroke-linejoin="round" />
<path d="M 153.0 114.0 L 153.0 114.0 L 152.0 115.0 L 151.0 118.0 L 150.0 123.0 L 145.0 132.0 L 140.0 142.0 " stroke="black" fill="none" stroke-width="5.0" stroke-linecap="round" stroke-linejoin="round" />
<path d="M 161.0 113.0 L 162.0 114.0 L 164.0 116.0 L 170.0 119.0 L 178.0 125.0 L 183.0 131.0 " stroke="black" fill="none" stroke-width="5.0" stroke-linecap="round" stroke-linejoin="round" />
<path d="M 149.0 143.0 L 149.0 143.0 L 149.0 143.0 L 150.0 143.0 L 152.0 142.0 L 157.0 141.0 L 162.0 140.0 L 167.0 140.0 L 171.0 144.0 L 175.0 152.0 L 179.0 164.0 L 183.0 176.0 L 185.0 184.0 L 185.0 189.0 L 185.0 190.0 L 180.0 190.0 L 174.0 189.0 " stroke="black" fill="none" stroke-width="5.0" stroke-linecap="round" stroke-linejoin="round" />
<path d="M 161.0 143.0 L 161.0 143.0 L 159.0 143.0 L 158.0 146.0 L 155.0 157.0 L 150.0 180.0 L 144.0 197.0 " stroke="black" fill="none" stroke-width="5.0" stroke-linecap="round" stroke-linejoin="round" />
</svg>