<svg xmlns="http://www.w3.org/2000/svg" width="300" height="300" viewBox="0 0 300 300">
<path d="M 123.0 121.0 L 123.0 121.0 L 123.0 121.0 L 123.0 122.0 L 123.0 122.0 L 122.0 124.0 L 120.0 127.0 L 117.0 133.0 L 114.0 139.0 L 111.0 143.0 L 111.0 145.0 L 113.0 146.0 L 118.0 147.0 L 120.0 147.0 " stroke="black" fill="none" stroke-width="5.0" stroke-linecap="round" stroke-linejoin="round" />
<path d="M 131.0 137.0 L 131.0 137.0 L 131.0 137.0 L 131.0 137.0 L 130.0 139.0 L 126.0 144.0 L 120.0 152.0 L 112.0 163.0 L 108.0 171.0 L 107.0 175.0 L 109.0 176.0 L 115.0 176.0 L 124.0 173.0 L 130.0 171.0 " stroke="black" fill="none" stroke-width="5.0" stroke-linecap="round" stroke-linejoin="round" />
<path d="M 135.0 163.0 L 135.0 163.0 L 135.0 165.0 L 135.0 169.0 L 137.0 174.0 " stroke="black" fill="none" stroke-width="5.0" stroke-linecap="round" stroke-linejoin="round" />
<path d="M 104.0 193.0 L 104.0 196.0 L 104.0 200.0 L 104.0 204.0 L 105.0 205.0 " stroke="black" fill="none" stroke-width="5.0" stroke-linecap="round" stroke-linejoin="round" />
<path d="M 113.0 192.0 L 113.0 192.0 L 113.0 193.0 L 114.0 194.0 L 115.0 198.0 L 116.0 201.0 " stroke="black" fill="none" stroke-width="5.0" stroke-linecap="round" stroke-linejoin="round" />
<path d="M 126.0 190.0 L 126.0 191.0 L 126.0 193.0 L 127.0 197.0 L 130.0 201.0 L 131.0 201.0 " stroke="black" fill="none" stroke-width="5.0" stroke-linecap="round" stroke-linejoin="round" />
<path d="M 154.0 115.0 L 154.0 115.0 L 154.0 116.0 L 154.0 117.0 L 154.0 118.0 L 152.0 120.0 L 150.0 122.0 L 149.0 123.0 L 148.0 124.0 L 147.0 125.0 L 147.0 128.0 L 147.0 134.0 L 148.0 143.0 L 149.0 150.0 L 150.0 155.0 L 150.0 156.0 " stroke="black" fill="none" stroke-width="5.0" stroke-linecap="round" stroke-linejoin="round" />
<path d="M 147.0 132.0 L 147.0 132.0 L 147.0 132.0 L 147.0 131.0 L 150.0 130.0 L 156.0 129.0 L 164.0 128.0 L 171.0 128.0 L 176.0 129.0 L 179.0 133.0 L 180.0 138.0 L 181.0 144.0 L 181.0 148.0 L 181.0 150.0 " stroke="black" fill="none" stroke-width="5.0" stroke-linecap="round" stroke-linejoin="round" />
<path d="M 152.0 141.0 L 152.0 141.0 L 152.0 142.0 L 152.0 142.0 L 153.0 142.0 L 159.0 142.0 L 166.0 142.0 L 172.0 142.0 L 174.0 142.0 L 174.0 142.0 " stroke="black" fill="none" stroke-width="5.0" stroke-linecap="round" stroke-linejoin="round" />
<path d="M 149.0 156.0 L 150.0 156.0 L 152.0 157.0 L 156.0 157.0 L 164.0 157.0 L 171.0 158.0 L 172.0 158.0 " stroke="black" fill="none" stroke-width="5.0" stroke-linecap="round" stroke-linejoin="round" />
<path d="M 146.0 175.0 L 146.0 175.0 L 145.0 175.0 L 145.0 176.0 L 145.0 179.0 L 147.0 185.0 L 148.0 190.0 L 149.0 191.0 " stroke="black" fill="none" stroke-width="5.0" stroke-linecap="round" stroke-linejoin="round" />
<path d="M 147.0 172.0 L 147.0 172.0 L 149.0 172.0 L 151.0 171.0 L 155.0 170.0 L 161.0 169.0 L 169.0 169.0 L 177.0 169.0 L 183.0 172.0 L 187.0 177.0 L 188.0 183.0 L 189.0 189.0 L 189.0 193.0 L 189.0 196.0 L 188.0 198.0 L 185.0 198.0 L 181.0 198.0 " stroke="black" fill="none" stroke-width="5.0" stroke-linecap="round" stroke-linejoin="round" />
<path d="M 160.0 157.0 L 160.0 157.0 L 161.0 158.0 L 161.0 165.0 L 164.0 183.0 L 167.0 202.0 L 169.0 214.0 L 171.0 217.0 L 171.0 217.0 " stroke="black" fill="none" stroke-width="5.0" stroke-linecap="round" stroke-linejoin="round" />
</svg>