<svg xmlns="http://www.w3.org/2000/svg" width="300" height="300" viewBox="0 0 300 300">
<path d="M 122.0 116.0 L 122.0 116.0 L 122.0 116.0 L 122.0 117.0 L 122.0 118.0 L 122.0 120.0 L 121.0 123.0 L 117.0 127.0 L 112.0 133.0 L 108.0 137.0 L 107.0 140.0 L 107.0 142.0 L 110.0 143.0 L 115.0 143.0 L 118.0 143.0 " stroke="black" fill="none" stroke-width="5.0" stroke-linecap="round" stroke-linejoin="round" />
<path d="M 127.0 134.0 L 127.0 134.0 L 127.0 134.0 L 127.0 134.0 L 127.0 134.0 L 127.0 135.0 L 126.0 138.0 L 122.0 143.0 L 115.0 152.0 L 108.0 162.0 L 105.0 168.0 L 106.0 169.0 L 112.0 168.0 L 120.0 165.0 L 127.0 163.0 " stroke="black" fill="none" stroke-width="5.0" stroke-linecap="round" stroke-linejoin="round" />
<path d="M 130.0 155.0 L 130.0 155.0 L 130.0 156.0 L 131.0 160.0 L 133.0 166.0 L 135.0 170.0 " stroke="black" fill="none" stroke-width="5.0" stroke-linecap="round" stroke-linejoin="round" />
<path d="M 102.0 184.0 L 102.0 184.0 L 102.0 184.0 L 102.0 184.0 L 102.0 186.0 L 104.0 189.0 L 104.0 191.0 " stroke="black" fill="none" stroke-width="5.0" stroke-linecap="round" stroke-linejoin="round" />
<path d="M 113.0 180.0 L 114.0 181.0 L 114.0 183.0 L 115.0 186.0 L 116.0 190.0 L 117.0 191.0 " stroke="black" fill="none" stroke-width="5.0" stroke-linecap="round" stroke-linejoin="round" />
<path d="M 127.0 181.0 L 128.0 183.0 L 130.0 187.0 L 131.0 190.0 " stroke="black" fill="none" stroke-width="5.0" stroke-linecap="round" stroke-linejoin="round" />
<path d="M 154.0 117.0 L 154.0 118.0 L 155.0 120.0 L 156.0 125.0 L 160.0 134.0 L 164.0 143.0 L 166.0 148.0 L 167.0 149.0 " stroke="black" fill="none" stroke-width="5.0" stroke-linecap="round" stroke-linejoin="round" />
<path d="M 158.0 132.0 L 158.0 133.0 L 158.0 133.0 L 156.0 135.0 L 154.0 137.0 L 151.0 141.0 L 147.0 147.0 L 146.0 149.0 " stroke="black" fill="none" stroke-width="5.0" stroke-linecap="round" stroke-linejoin="round" />
<path d="M 140.0 135.0 L 139.0 135.0 L 138.0 135.0 L 137.0 136.0 L 137.0 138.0 L 138.0 146.0 L 140.0 159.0 L 141.0 174.0 L 141.0 183.0 L 142.0 185.0 L 143.0 185.0 " stroke="black" fill="none" stroke-width="5.0" stroke-linecap="round" stroke-linejoin="round" />
<path d="M 145.0 132.0 L 145.0 132.0 L 145.0 131.0 L 145.0 131.0 L 147.0 131.0 L 151.0 131.0 L 157.0 131.0 L 163.0 131.0 L 168.0 132.0 L 172.0 134.0 L 175.0 137.0 L 179.0 144.0 L 183.0 155.0 L 186.0 168.0 L 189.0 181.0 L 191.0 189.0 L 191.0 193.0 L 190.0 194.0 L 187.0 195.0 L 181.0 195.0 L 176.0 195.0 " stroke="black" fill="none" stroke-width="5.0" stroke-linecap="round" stroke-linejoin="round" />
</svg>