<svg xmlns="http://www.w3.org/2000/svg" width="300" height="300" viewBox="0 0 300 300">
<path d="M 122.0 123.0 L 122.0 123.0 L 122.0 123.0 L 123.0 123.0 L 123.0 123.0 L 123.0 124.0 L 123.0 125.0 L 122.0 128.0 L 120.0 133.0 L 117.0 137.0 L 116.0 139.0 L 115.0 141.0 L 116.0 143.0 L 119.0 144.0 L 121.0 144.0 L 122.0 144.0 " stroke="black" fill="none" stroke-width="5.0" stroke-linecap="round" stroke-linejoin="round" />
<path d="M 131.0 135.0 L 131.0 135.0 L 131.0 135.0 L 130.0 135.0 L 129.0 135.0 L 126.0 139.0 L 122.0 146.0 L 116.0 154.0 L 112.0 160.0 L 111.0 164.0 L 112.0 166.0 L 116.0 166.0 L 121.0 166.0 L 124.0 165.0 " stroke="black" fill="none" stroke-width="5.0" stroke-linecap="round" stroke-linejoin="round" />
<path d="M 127.0 156.0 L 128.0 158.0 L 128.0 160.0 L 130.0 165.0 L 132.0 170.0 L 134.0 172.0 " stroke="black" fill="none" stroke-width="5.0" stroke-linecap="round" stroke-linejoin="round" />
<path d="M 106.0 178.0 L 106.0 178.0 L 106.0 179.0 L 106.0 181.0 L 107.0 183.0 L 108.0 187.0 L 108.0 190.0 L 109.0 191.0 " stroke="black" fill="none" stroke-width="5.0" stroke-linecap="round" stroke-linejoin="round" />
<path d="M 117.0 180.0 L 118.0 182.0 L 118.0 185.0 L 119.0 187.0 " stroke="black" fill="none" stroke-width="5.0" stroke-linecap="round" stroke-linejoin="round" />
<path d="M 126.0 179.0 L 126.0 179.0 L 127.0 182.0 L 128.0 185.0 L 129.0 190.0 " stroke="black" fill="none" stroke-width="5.0" stroke-linecap="round" stroke-linejoin="round" />
<path d="M 145.0 121.0 L 145.0 121.0 L 145.0 122.0 L 146.0 122.0 L 150.0 122.0 L 158.0 121.0 L 167.0 120.0 L 174.0 120.0 L 178.0 120.0 L 179.0 121.0 " stroke="black" fill="none" stroke-width="5.0" stroke-linecap="round" stroke-linejoin="round" />
<path d="M 160.0 110.0 L 160.0 110.0 L 160.0 111.0 L 160.0 112.0 L 160.0 116.0 L 158.0 122.0 L 154.0 133.0 L 150.0 143.0 L 146.0 149.0 L 145.0 149.0 " stroke="black" fill="none" stroke-width="5.0" stroke-linecap="round" stroke-linejoin="round" />
<path d="M 170.0 126.0 L 171.0 126.0 L 171.0 127.0 L 172.0 127.0 L 174.0 129.0 L 178.0 133.0 L 185.0 140.0 L 192.0 145.0 L 196.0 148.0 L 197.0 149.0 " stroke="black" fill="none" stroke-width="5.0" stroke-linecap="round" stroke-linejoin="round" />
<path d="M 146.0 131.0 L 146.0 131.0 L 147.0 132.0 L 149.0 134.0 L 151.0 136.0 " stroke="black" fill="none" stroke-width="5.0" stroke-linecap="round" stroke-linejoin="round" />
<path d="M 190.0 130.0 L 190.0 130.0 L 190.0 130.0 L 190.0 131.0 L 190.0 132.0 L 188.0 134.0 " stroke="black" fill="none" stroke-width="5.0" stroke-linecap="round" stroke-linejoin="round" />
<path d="M 155.0 144.0 L 155.0 144.0 L 155.0 144.0 L 155.0 144.0 L 155.0 148.0 L 155.0 154.0 L 156.0 160.0 L 157.0 162.0 " stroke="black" fill="none" stroke-width="5.0" stroke-linecap="round" stroke-linejoin="round" />
<path d="M 158.0 142.0 L 159.0 142.0 L 160.0 141.0 L 162.0 141.0 L 166.0 141.0 L 171.0 141.0 L 175.0 141.0 L 179.0 141.0 L 181.0 145.0 L 181.0 151.0 L 182.0 157.0 L 183.0 161.0 L 183.0 161.0 " stroke="black" fill="none" stroke-width="5.0" stroke-linecap="round" stroke-linejoin="round" />
<path d="M 158.0 150.0 L 159.0 150.0 L 159.0 150.0 L 160.0 151.0 L 163.0 151.0 L 168.0 151.0 L 173.0 151.0 L 176.0 151.0 " stroke="black" fill="none" stroke-width="5.0" stroke-linecap="round" stroke-linejoin="round" />
<path d="M 155.0 163.0 L 156.0 164.0 L 158.0 165.0 L 160.0 165.0 L 166.0 165.0 L 173.0 165.0 L 178.0 165.0 L 180.0 164.0 " stroke="black" fill="none" stroke-width="5.0" stroke-linecap="round" stroke-linejoin="round" />
<path d="M 166.0 164.0 L 167.0 166.0 L 167.0 168.0 L 168.0 172.0 L 170.0 179.0 L 172.0 187.0 L 173.0 194.0 L 173.0 196.0 L 171.0 197.0 L 167.0 196.0 L 164.0 195.0 " stroke="black" fill="none" stroke-width="5.0" stroke-linecap="round" stroke-linejoin="round" />
<path d="M 152.0 174.0 L 152.0 174.0 L 152.0 174.0 L 152.0 175.0 L 152.0 176.0 L 150.0 179.0 L 147.0 186.0 L 146.0 191.0 " stroke="black" fill="none" stroke-width="5.0" stroke-linecap="round" stroke-linejoin="round" />
<path d="M 186.0 178.0 L 187.0 179.0 L 188.0 180.0 L 190.0 181.0 L 193.0 183.0 L 196.0 187.0 L 198.0 191.0 L 200.0 194.0 " stroke="black" fill="none" stroke-width="5.0" stroke-linecap="round" stroke-linejoin="round" />
</svg>