<svg xmlns="http://www.w3.org/2000/svg" width="300" height="300" viewBox="0 0 300 300">
<path d="M 121.0 115.0 L 121.0 115.0 L 122.0 115.0 L 122.0 115.0 L 123.0 116.0 L 123.0 118.0 L 123.0 122.0 L 119.0 129.0 L 115.0 136.0 L 112.0 141.0 L 110.0 144.0 L 110.0 145.0 L 112.0 146.0 L 116.0 146.0 L 119.0 146.0 " stroke="black" fill="none" stroke-width="5.0" stroke-linecap="round" stroke-linejoin="round" />
<path d="M 130.0 139.0 L 130.0 139.0 L 130.0 139.0 L 129.0 139.0 L 129.0 139.0 L 127.0 142.0 L 122.0 147.0 L 116.0 156.0 L 109.0 167.0 L 104.0 175.0 L 104.0 179.0 L 108.0 180.0 L 115.0 178.0 L 122.0 175.0 L 126.0 174.0 " stroke="black" fill="none" stroke-width="5.0" stroke-linecap="round" stroke-linejoin="round" />
<path d="M 129.0 166.0 L 129.0 167.0 L 129.0 170.0 L 130.0 174.0 L 132.0 180.0 L 133.0 183.0 " stroke="black" fill="none" stroke-width="5.0" stroke-linecap="round" stroke-linejoin="round" />
<path d="M 103.0 193.0 L 103.0 193.0 L 102.0 193.0 L 102.0 195.0 L 102.0 199.0 L 104.0 204.0 L 104.0 206.0 " stroke="black" fill="none" stroke-width="5.0" stroke-linecap="round" stroke-linejoin="round" />
<path d="M 111.0 193.0 L 111.0 193.0 L 111.0 193.0 L 112.0 194.0 L 112.0 196.0 L 113.0 199.0 L 114.0 201.0 " stroke="black" fill="none" stroke-width="5.0" stroke-linecap="round" stroke-linejoin="round" />
<path d="M 123.0 191.0 L 124.0 191.0 L 124.0 193.0 L 126.0 197.0 L 128.0 202.0 L 128.0 203.0 " stroke="black" fill="none" stroke-width="5.0" stroke-linecap="round" stroke-linejoin="round" />
<path d="M 146.0 118.0 L 146.0 119.0 L 145.0 122.0 L 145.0 128.0 L 145.0 136.0 L 146.0 142.0 L 147.0 146.0 " stroke="black" fill="none" stroke-width="5.0" stroke-linecap="round" stroke-linejoin="round" />
<path d="M 146.0 118.0 L 146.0 118.0 L 146.0 118.0 L 146.0 119.0 L 147.0 119.0 L 149.0 119.0 L 151.0 119.0 L 153.0 121.0 L 156.0 125.0 L 159.0 131.0 L 160.0 138.0 L 161.0 143.0 L 161.0 144.0 " stroke="black" fill="none" stroke-width="5.0" stroke-linecap="round" stroke-linejoin="round" />
<path d="M 147.0 133.0 L 147.0 133.0 L 147.0 133.0 L 147.0 133.0 L 147.0 133.0 L 150.0 133.0 L 153.0 133.0 L 155.0 133.0 L 156.0 133.0 " stroke="black" fill="none" stroke-width="5.0" stroke-linecap="round" stroke-linejoin="round" />
<path d="M 148.0 140.0 L 147.0 140.0 L 147.0 140.0 L 147.0 141.0 L 150.0 141.0 L 153.0 141.0 L 154.0 141.0 " stroke="black" fill="none" stroke-width="5.0" stroke-linecap="round" stroke-linejoin="round" />
<path d="M 146.0 150.0 L 146.0 150.0 L 146.0 150.0 L 146.0 150.0 L 149.0 150.0 L 154.0 150.0 L 156.0 150.0 " stroke="black" fill="none" stroke-width="5.0" stroke-linecap="round" stroke-linejoin="round" />
<path d="M 151.0 149.0 L 151.0 149.0 L 151.0 149.0 L 151.0 150.0 L 151.0 155.0 L 151.0 159.0 L 150.0 160.0 " stroke="black" fill="none" stroke-width="5.0" stroke-linecap="round" stroke-linejoin="round" />
<path d="M 157.0 152.0 L 158.0 153.0 L 158.0 154.0 L 160.0 156.0 L 163.0 159.0 L 164.0 160.0 " stroke="black" fill="none" stroke-width="5.0" stroke-linecap="round" stroke-linejoin="round" />
<path d="M 169.0 122.0 L 169.0 123.0 L 169.0 126.0 L 169.0 132.0 L 169.0 141.0 L 169.0 148.0 L 169.0 151.0 L 169.0 151.0 " stroke="black" fill="none" stroke-width="5.0" stroke-linecap="round" stroke-linejoin="round" />
<path d="M 169.0 121.0 L 169.0 121.0 L 170.0 121.0 L 171.0 121.0 L 173.0 121.0 L 176.0 121.0 L 178.0 121.0 L 180.0 123.0 L 183.0 128.0 L 185.0 136.0 L 186.0 142.0 L 187.0 147.0 L 187.0 150.0 L 187.0 150.0 " stroke="black" fill="none" stroke-width="5.0" stroke-linecap="round" stroke-linejoin="round" />
<path d="M 170.0 135.0 L 170.0 135.0 L 171.0 135.0 L 171.0 135.0 L 173.0 135.0 L 176.0 135.0 L 180.0 135.0 L 182.0 135.0 L 184.0 135.0 L 184.0 136.0 " stroke="black" fill="none" stroke-width="5.0" stroke-linecap="round" stroke-linejoin="round" />
<path d="M 169.0 144.0 L 169.0 144.0 L 169.0 144.0 L 171.0 145.0 L 173.0 145.0 L 177.0 145.0 L 181.0 145.0 L 184.0 145.0 L 184.0 145.0 " stroke="black" fill="none" stroke-width="5.0" stroke-linecap="round" stroke-linejoin="round" />
<path d="M 166.0 153.0 L 167.0 154.0 L 167.0 155.0 L 170.0 155.0 L 175.0 155.0 L 181.0 154.0 L 184.0 154.0 L 185.0 154.0 " stroke="black" fill="none" stroke-width="5.0" stroke-linecap="round" stroke-linejoin="round" />
<path d="M 176.0 152.0 L 176.0 152.0 L 175.0 152.0 L 175.0 152.0 L 175.0 156.0 L 174.0 161.0 L 173.0 165.0 L 173.0 166.0 " stroke="black" fill="none" stroke-width="5.0" stroke-linecap="round" stroke-linejoin="round" />
<path d="M 181.0 154.0 L 181.0 155.0 L 182.0 156.0 L 183.0 158.0 L 185.0 160.0 L 186.0 161.0 " stroke="black" fill="none" stroke-width="5.0" stroke-linecap="round" stroke-linejoin="round" />
<path d="M 160.0 168.0 L 160.0 168.0 L 160.0 168.0 L 161.0 168.0 L 161.0 168.0 L 161.0 168.0 L 161.0 168.0 L 161.0 171.0 L 161.0 177.0 L 157.0 186.0 L 153.0 194.0 L 152.0 198.0 L 152.0 199.0 L 156.0 199.0 L 163.0 199.0 L 172.0 199.0 L 180.0 200.0 L 183.0 200.0 " stroke="black" fill="none" stroke-width="5.0" stroke-linecap="round" stroke-linejoin="round" />
<path d="M 178.0 173.0 L 178.0 173.0 L 178.0 173.0 L 177.0 174.0 L 176.0 179.0 L 175.0 189.0 L 172.0 200.0 L 169.0 209.0 L 168.0 210.0 " stroke="black" fill="none" stroke-width="5.0" stroke-linecap="round" stroke-linejoin="round" />
<path d="M 145.0 187.0 L 145.0 187.0 L 144.0 187.0 L 144.0 187.0 L 148.0 186.0 L 162.0 185.0 L 180.0 183.0 L 192.0 183.0 L 196.0 183.0 " stroke="black" fill="none" stroke-width="5.0" stroke-linecap="round" stroke-linejoin="round" />
</svg>