<svg xmlns="http://www.w3.org/2000/svg" width="300" height="300" viewBox="0 0 300 300">
<path d="M 125.0 100.0 L 125.0 100.0 L 126.0 101.0 L 126.0 102.0 L 125.0 105.0 L 122.0 111.0 L 117.0 118.0 L 112.0 124.0 " stroke="black" fill="none" stroke-width="5.0" stroke-linecap="round" stroke-linejoin="round" />
<path d="M 120.0 111.0 L 120.0 111.0 L 121.0 111.0 L 123.0 111.0 L 129.0 111.0 L 137.0 110.0 L 142.0 109.0 L 146.0 108.0 L 146.0 108.0 " stroke="black" fill="none" stroke-width="5.0" stroke-linecap="round" stroke-linejoin="round" />
<path d="M 125.0 123.0 L 125.0 123.0 L 126.0 123.0 L 127.0 123.0 L 129.0 123.0 L 133.0 123.0 L 138.0 123.0 L 141.0 123.0 L 143.0 123.0 L 144.0 124.0 L 145.0 128.0 L 147.0 136.0 L 148.0 146.0 L 149.0 154.0 L 149.0 159.0 L 149.0 161.0 L 147.0 161.0 L 143.0 161.0 L 138.0 159.0 L 133.0 155.0 " stroke="black" fill="none" stroke-width="5.0" stroke-linecap="round" stroke-linejoin="round" />
<path d="M 124.0 124.0 L 124.0 124.0 L 124.0 124.0 L 123.0 125.0 L 122.0 127.0 L 120.0 130.0 L 118.0 135.0 L 117.0 140.0 L 117.0 144.0 L 121.0 146.0 L 131.0 147.0 L 142.0 146.0 L 151.0 146.0 L 155.0 146.0 L 155.0 146.0 L 154.0 146.0 " stroke="black" fill="none" stroke-width="5.0" stroke-linecap="round" stroke-linejoin="round" />
<path d="M 109.0 133.0 L 109.0 133.0 L 110.0 134.0 L 113.0 135.0 L 122.0 136.0 L 135.0 136.0 L 146.0 136.0 L 150.0 136.0 L 150.0 136.0 " stroke="black" fill="none" stroke-width="5.0" stroke-linecap="round" stroke-linejoin="round" />
<path d="M 133.0 126.0 L 133.0 126.0 L 132.0 127.0 L 131.0 128.0 L 131.0 130.0 L 132.0 134.0 L 133.0 137.0 " stroke="black" fill="none" stroke-width="5.0" stroke-linecap="round" stroke-linejoin="round" />
<path d="M 132.0 140.0 L 132.0 140.0 L 133.0 140.0 L 134.0 141.0 L 135.0 143.0 " stroke="black" fill="none" stroke-width="5.0" stroke-linecap="round" stroke-linejoin="round" />
<path d="M 163.0 105.0 L 163.0 105.0 L 164.0 105.0 L 165.0 105.0 L 165.0 107.0 L 164.0 113.0 L 160.0 122.0 L 156.0 130.0 L 155.0 133.0 " stroke="black" fill="none" stroke-width="5.0" stroke-linecap="round" stroke-linejoin="round" />
<path d="M 163.0 118.0 L 164.0 118.0 L 166.0 118.0 L 170.0 118.0 L 176.0 117.0 L 182.0 116.0 " stroke="black" fill="none" stroke-width="5.0" stroke-linecap="round" stroke-linejoin="round" />
<path d="M 178.0 121.0 L 178.0 122.0 L 177.0 126.0 L 175.0 132.0 L 172.0 140.0 L 168.0 148.0 L 164.0 152.0 " stroke="black" fill="none" stroke-width="5.0" stroke-linecap="round" stroke-linejoin="round" />
<path d="M 162.0 129.0 L 163.0 129.0 L 164.0 132.0 L 168.0 136.0 L 174.0 141.0 L 181.0 145.0 L 183.0 147.0 " stroke="black" fill="none" stroke-width="5.0" stroke-linecap="round" stroke-linejoin="round" />
<path d="M 156.0 155.0 L 156.0 155.0 L 156.0 155.0 L 157.0 155.0 L 157.0 156.0 L 157.0 157.0 L 154.0 160.0 L 150.0 165.0 L 145.0 169.0 L 144.0 172.0 L 146.0 173.0 L 151.0 172.0 L 155.0 171.0 L 158.0 170.0 L 159.0 170.0 L 158.0 171.0 L 155.0 173.0 L 150.0 176.0 L 145.0 180.0 L 141.0 183.0 L 139.0 186.0 L 139.0 188.0 L 143.0 188.0 L 149.0 188.0 L 155.0 187.0 L 161.0 186.0 L 164.0 186.0 " stroke="black" fill="none" stroke-width="5.0" stroke-linecap="round" stroke-linejoin="round" />
<path d="M 150.0 186.0 L 150.0 186.0 L 150.0 186.0 L 150.0 186.0 L 151.0 191.0 L 152.0 200.0 L 153.0 209.0 L 154.0 213.0 L 154.0 214.0 L 152.0 213.0 L 151.0 212.0 " stroke="black" fill="none" stroke-width="5.0" stroke-linecap="round" stroke-linejoin="round" />
<path d="M 137.0 195.0 L 137.0 195.0 L 135.0 197.0 L 132.0 201.0 L 128.0 206.0 L 125.0 210.0 L 124.0 211.0 " stroke="black" fill="none" stroke-width="5.0" stroke-linecap="round" stroke-linejoin="round" />
<path d="M 171.0 195.0 L 172.0 195.0 L 175.0 197.0 L 177.0 201.0 L 181.0 205.0 L 184.0 210.0 L 184.0 211.0 " stroke="black" fill="none" stroke-width="5.0" stroke-linecap="round" stroke-linejoin="round" />
</svg>