<svg xmlns="http://www.w3.org/2000/svg" width="300" height="300" viewBox="0 0 300 300">
<path d="M 126.0 119.0 L 126.0 119.0 L 127.0 120.0 L 127.0 121.0 L 128.0 122.0 L 128.0 122.0 L 128.0 124.0 L 127.0 126.0 L 125.0 131.0 L 122.0 136.0 L 120.0 139.0 L 119.0 142.0 L 119.0 144.0 L 121.0 145.0 L 124.0 146.0 L 125.0 146.0 " stroke="black" fill="none" stroke-width="5.0" stroke-linecap="round" stroke-linejoin="round" />
<path d="M 134.0 136.0 L 134.0 136.0 L 133.0 137.0 L 132.0 138.0 L 131.0 140.0 L 128.0 144.0 L 124.0 151.0 L 119.0 160.0 L 116.0 168.0 L 115.0 172.0 L 119.0 173.0 L 125.0 172.0 L 132.0 168.0 " stroke="black" fill="none" stroke-width="5.0" stroke-linecap="round" stroke-linejoin="round" />
<path d="M 137.0 161.0 L 137.0 161.0 L 137.0 163.0 L 137.0 164.0 L 139.0 168.0 L 141.0 173.0 L 142.0 176.0 " stroke="black" fill="none" stroke-width="5.0" stroke-linecap="round" stroke-linejoin="round" />
<path d="M 111.0 186.0 L 111.0 186.0 L 111.0 186.0 L 112.0 187.0 L 113.0 189.0 L 114.0 192.0 L 115.0 193.0 " stroke="black" fill="none" stroke-width="5.0" stroke-linecap="round" stroke-linejoin="round" />
<path d="M 121.0 186.0 L 122.0 186.0 L 122.0 187.0 L 123.0 190.0 L 125.0 193.0 L 126.0 195.0 " stroke="black" fill="none" stroke-width="5.0" stroke-linecap="round" stroke-linejoin="round" />
<path d="M 132.0 183.0 L 132.0 185.0 L 132.0 188.0 L 133.0 191.0 L 136.0 195.0 L 137.0 196.0 " stroke="black" fill="none" stroke-width="5.0" stroke-linecap="round" stroke-linejoin="round" />
<path d="M 148.0 116.0 L 148.0 116.0 L 147.0 117.0 L 147.0 118.0 L 147.0 120.0 L 148.0 123.0 L 148.0 124.0 " stroke="black" fill="none" stroke-width="5.0" stroke-linecap="round" stroke-linejoin="round" />
<path d="M 148.0 117.0 L 148.0 117.0 L 148.0 117.0 L 149.0 117.0 L 153.0 116.0 L 161.0 114.0 L 172.0 113.0 L 181.0 113.0 L 187.0 113.0 L 191.0 114.0 L 193.0 116.0 L 193.0 119.0 L 193.0 124.0 L 193.0 128.0 L 192.0 129.0 " stroke="black" fill="none" stroke-width="5.0" stroke-linecap="round" stroke-linejoin="round" />
<path d="M 153.0 129.0 L 153.0 129.0 L 153.0 130.0 L 153.0 131.0 L 156.0 131.0 L 163.0 130.0 L 173.0 129.0 L 180.0 129.0 L 184.0 129.0 " stroke="black" fill="none" stroke-width="5.0" stroke-linecap="round" stroke-linejoin="round" />
<path d="M 162.0 117.0 L 162.0 117.0 L 162.0 117.0 L 162.0 119.0 L 163.0 125.0 L 163.0 131.0 L 163.0 133.0 " stroke="black" fill="none" stroke-width="5.0" stroke-linecap="round" stroke-linejoin="round" />
<path d="M 172.0 118.0 L 172.0 118.0 L 172.0 120.0 L 172.0 123.0 L 173.0 129.0 L 173.0 130.0 " stroke="black" fill="none" stroke-width="5.0" stroke-linecap="round" stroke-linejoin="round" />
<path d="M 157.0 143.0 L 157.0 143.0 L 157.0 143.0 L 157.0 143.0 L 157.0 143.0 L 159.0 143.0 L 163.0 143.0 L 171.0 143.0 L 180.0 142.0 L 186.0 141.0 L 188.0 141.0 L 188.0 141.0 " stroke="black" fill="none" stroke-width="5.0" stroke-linecap="round" stroke-linejoin="round" />
<path d="M 158.0 155.0 L 158.0 155.0 L 158.0 156.0 L 158.0 157.0 L 158.0 158.0 L 158.0 160.0 L 159.0 162.0 " stroke="black" fill="none" stroke-width="5.0" stroke-linecap="round" stroke-linejoin="round" />
<path d="M 158.0 154.0 L 158.0 154.0 L 158.0 154.0 L 159.0 154.0 L 162.0 154.0 L 169.0 154.0 L 177.0 154.0 L 184.0 154.0 L 186.0 155.0 L 187.0 157.0 L 188.0 159.0 L 188.0 161.0 L 187.0 162.0 " stroke="black" fill="none" stroke-width="5.0" stroke-linecap="round" stroke-linejoin="round" />
<path d="M 161.0 165.0 L 161.0 165.0 L 161.0 166.0 L 165.0 166.0 L 174.0 166.0 L 182.0 165.0 L 187.0 165.0 " stroke="black" fill="none" stroke-width="5.0" stroke-linecap="round" stroke-linejoin="round" />
<path d="M 165.0 172.0 L 165.0 172.0 L 165.0 172.0 L 166.0 173.0 L 166.0 173.0 L 164.0 175.0 L 160.0 179.0 L 155.0 183.0 " stroke="black" fill="none" stroke-width="5.0" stroke-linecap="round" stroke-linejoin="round" />
<path d="M 163.0 176.0 L 163.0 176.0 L 163.0 176.0 L 163.0 177.0 L 162.0 180.0 L 161.0 185.0 L 161.0 189.0 L 162.0 192.0 L 167.0 192.0 L 176.0 189.0 " stroke="black" fill="none" stroke-width="5.0" stroke-linecap="round" stroke-linejoin="round" />
<path d="M 195.0 170.0 L 195.0 170.0 L 195.0 170.0 L 195.0 171.0 L 194.0 173.0 L 192.0 176.0 L 190.0 179.0 " stroke="black" fill="none" stroke-width="5.0" stroke-linecap="round" stroke-linejoin="round" />
<path d="M 175.0 169.0 L 175.0 169.0 L 176.0 170.0 L 179.0 174.0 L 187.0 182.0 L 196.0 192.0 L 202.0 200.0 L 205.0 203.0 L 205.0 203.0 L 204.0 203.0 " stroke="black" fill="none" stroke-width="5.0" stroke-linecap="round" stroke-linejoin="round" />
</svg>