<svg xmlns="http://www.w3.org/2000/svg" width="300" height="300" viewBox="0 0 300 300">
<path d="M 120.0 120.0 L 121.0 120.0 L 121.0 120.0 L 122.0 120.0 L 123.0 122.0 L 123.0 125.0 L 122.0 129.0 L 119.0 135.0 L 116.0 141.0 L 112.0 147.0 L 109.0 151.0 L 108.0 154.0 L 112.0 156.0 L 117.0 157.0 L 120.0 157.0 " stroke="black" fill="none" stroke-width="5.0" stroke-linecap="round" stroke-linejoin="round" />
<path d="M 130.0 145.0 L 130.0 145.0 L 130.0 145.0 L 130.0 145.0 L 128.0 147.0 L 125.0 151.0 L 119.0 159.0 L 113.0 169.0 L 110.0 177.0 L 110.0 180.0 L 116.0 178.0 L 124.0 174.0 L 125.0 174.0 " stroke="black" fill="none" stroke-width="5.0" stroke-linecap="round" stroke-linejoin="round" />
<path d="M 133.0 166.0 L 133.0 167.0 L 134.0 172.0 L 134.0 177.0 L 135.0 181.0 " stroke="black" fill="none" stroke-width="5.0" stroke-linecap="round" stroke-linejoin="round" />
<path d="M 108.0 194.0 L 108.0 194.0 L 109.0 197.0 L 110.0 201.0 L 110.0 205.0 L 111.0 207.0 " stroke="black" fill="none" stroke-width="5.0" stroke-linecap="round" stroke-linejoin="round" />
<path d="M 117.0 192.0 L 118.0 192.0 L 119.0 194.0 L 120.0 199.0 L 121.0 203.0 L 121.0 205.0 " stroke="black" fill="none" stroke-width="5.0" stroke-linecap="round" stroke-linejoin="round" />
<path d="M 127.0 191.0 L 128.0 193.0 L 128.0 197.0 L 130.0 202.0 L 131.0 205.0 " stroke="black" fill="none" stroke-width="5.0" stroke-linecap="round" stroke-linejoin="round" />
<path d="M 149.0 115.0 L 149.0 115.0 L 149.0 115.0 L 150.0 116.0 L 151.0 116.0 L 155.0 116.0 L 162.0 116.0 L 167.0 115.0 " stroke="black" fill="none" stroke-width="5.0" stroke-linecap="round" stroke-linejoin="round" />
<path d="M 149.0 129.0 L 150.0 129.0 L 150.0 130.0 L 152.0 130.0 L 154.0 130.0 L 160.0 129.0 L 166.0 130.0 L 167.0 130.0 " stroke="black" fill="none" stroke-width="5.0" stroke-linecap="round" stroke-linejoin="round" />
<path d="M 157.0 107.0 L 157.0 109.0 L 157.0 113.0 L 157.0 119.0 L 158.0 126.0 " stroke="black" fill="none" stroke-width="5.0" stroke-linecap="round" stroke-linejoin="round" />
<path d="M 143.0 138.0 L 143.0 138.0 L 143.0 138.0 L 143.0 139.0 L 143.0 143.0 L 145.0 147.0 L 146.0 149.0 " stroke="black" fill="none" stroke-width="5.0" stroke-linecap="round" stroke-linejoin="round" />
<path d="M 144.0 139.0 L 144.0 139.0 L 144.0 139.0 L 145.0 138.0 L 147.0 137.0 L 154.0 137.0 L 165.0 136.0 L 176.0 136.0 L 185.0 138.0 L 190.0 140.0 L 190.0 144.0 L 190.0 148.0 L 189.0 150.0 " stroke="black" fill="none" stroke-width="5.0" stroke-linecap="round" stroke-linejoin="round" />
<path d="M 150.0 149.0 L 150.0 149.0 L 150.0 149.0 L 150.0 149.0 L 152.0 150.0 L 160.0 150.0 L 170.0 150.0 L 178.0 150.0 L 180.0 150.0 " stroke="black" fill="none" stroke-width="5.0" stroke-linecap="round" stroke-linejoin="round" />
<path d="M 158.0 140.0 L 158.0 140.0 L 158.0 140.0 L 158.0 141.0 L 159.0 144.0 L 160.0 147.0 L 160.0 149.0 " stroke="black" fill="none" stroke-width="5.0" stroke-linecap="round" stroke-linejoin="round" />
<path d="M 171.0 141.0 L 171.0 141.0 L 171.0 141.0 L 170.0 143.0 L 170.0 147.0 " stroke="black" fill="none" stroke-width="5.0" stroke-linecap="round" stroke-linejoin="round" />
<path d="M 155.0 164.0 L 155.0 164.0 L 156.0 164.0 L 156.0 164.0 L 158.0 164.0 L 161.0 163.0 L 167.0 162.0 L 172.0 161.0 L 175.0 161.0 L 177.0 161.0 L 178.0 161.0 L 179.0 163.0 L 180.0 170.0 L 182.0 180.0 L 184.0 190.0 L 185.0 195.0 L 185.0 196.0 L 185.0 196.0 " stroke="black" fill="none" stroke-width="5.0" stroke-linecap="round" stroke-linejoin="round" />
<path d="M 154.0 164.0 L 154.0 164.0 L 154.0 165.0 L 154.0 170.0 L 154.0 178.0 L 155.0 185.0 L 156.0 189.0 L 156.0 189.0 " stroke="black" fill="none" stroke-width="5.0" stroke-linecap="round" stroke-linejoin="round" />
<path d="M 156.0 174.0 L 156.0 174.0 L 158.0 174.0 L 161.0 173.0 L 165.0 173.0 L 171.0 173.0 L 176.0 174.0 L 179.0 175.0 L 180.0 175.0 " stroke="black" fill="none" stroke-width="5.0" stroke-linecap="round" stroke-linejoin="round" />
<path d="M 155.0 184.0 L 156.0 184.0 L 158.0 186.0 L 164.0 186.0 L 172.0 186.0 L 179.0 185.0 L 182.0 184.0 L 182.0 185.0 " stroke="black" fill="none" stroke-width="5.0" stroke-linecap="round" stroke-linejoin="round" />
<path d="M 156.0 197.0 L 156.0 198.0 L 157.0 198.0 L 161.0 199.0 L 169.0 198.0 L 176.0 197.0 L 181.0 197.0 L 182.0 197.0 " stroke="black" fill="none" stroke-width="5.0" stroke-linecap="round" stroke-linejoin="round" />
<path d="M 168.0 198.0 L 168.0 198.0 L 168.0 199.0 L 168.0 200.0 L 168.0 201.0 L 168.0 204.0 L 167.0 210.0 L 167.0 212.0 " stroke="black" fill="none" stroke-width="5.0" stroke-linecap="round" stroke-linejoin="round" />
<path d="M 184.0 200.0 L 184.0 200.0 L 184.0 200.0 L 184.0 200.0 L 184.0 201.0 L 187.0 205.0 L 192.0 212.0 " stroke="black" fill="none" stroke-width="5.0" stroke-linecap="round" stroke-linejoin="round" />
</svg>