<svg xmlns="http://www.w3.org/2000/svg" width="300" height="300" viewBox="0 0 300 300">
<path d="M 144.0 106.0 L 144.0 106.0 L 144.0 106.0 L 144.0 106.0 L 144.0 107.0 L 144.0 110.0 L 146.0 113.0 " stroke="black" fill="none" stroke-width="5.0" stroke-linecap="round" stroke-linejoin="round" />
<path d="M 160.0 100.0 L 160.0 100.0 L 161.0 101.0 L 161.0 103.0 L 161.0 108.0 L 158.0 113.0 L 158.0 114.0 " stroke="black" fill="none" stroke-width="5.0" stroke-linecap="round" stroke-linejoin="round" />
<path d="M 126.0 124.0 L 126.0 124.0 L 126.0 124.0 L 127.0 124.0 L 134.0 124.0 L 148.0 124.0 L 162.0 123.0 L 171.0 122.0 L 176.0 122.0 L 176.0 122.0 L 175.0 122.0 L 174.0 122.0 " stroke="black" fill="none" stroke-width="5.0" stroke-linecap="round" stroke-linejoin="round" />
<path d="M 127.0 134.0 L 127.0 134.0 L 127.0 134.0 L 127.0 134.0 L 126.0 135.0 L 126.0 139.0 L 126.0 145.0 L 125.0 152.0 L 125.0 156.0 L 125.0 157.0 L 125.0 157.0 " stroke="black" fill="none" stroke-width="5.0" stroke-linecap="round" stroke-linejoin="round" />
<path d="M 127.0 135.0 L 127.0 135.0 L 127.0 135.0 L 127.0 135.0 L 127.0 135.0 L 129.0 135.0 L 131.0 135.0 L 134.0 135.0 L 137.0 135.0 L 140.0 137.0 L 143.0 139.0 L 145.0 143.0 L 147.0 148.0 L 147.0 154.0 L 147.0 158.0 L 147.0 160.0 L 147.0 161.0 L 145.0 162.0 L 142.0 161.0 L 141.0 161.0 " stroke="black" fill="none" stroke-width="5.0" stroke-linecap="round" stroke-linejoin="round" />
<path d="M 128.0 144.0 L 128.0 144.0 L 128.0 144.0 L 129.0 144.0 L 131.0 144.0 L 134.0 144.0 L 138.0 144.0 L 141.0 144.0 L 142.0 144.0 " stroke="black" fill="none" stroke-width="5.0" stroke-linecap="round" stroke-linejoin="round" />
<path d="M 128.0 151.0 L 129.0 151.0 L 131.0 151.0 L 135.0 151.0 L 141.0 151.0 L 147.0 151.0 " stroke="black" fill="none" stroke-width="5.0" stroke-linecap="round" stroke-linejoin="round" />
<path d="M 155.0 136.0 L 155.0 136.0 L 155.0 136.0 L 155.0 136.0 L 155.0 138.0 L 155.0 142.0 L 155.0 145.0 " stroke="black" fill="none" stroke-width="5.0" stroke-linecap="round" stroke-linejoin="round" />
<path d="M 165.0 133.0 L 165.0 133.0 L 166.0 133.0 L 167.0 133.0 L 168.0 136.0 L 169.0 140.0 L 170.0 147.0 L 172.0 154.0 L 173.0 159.0 L 173.0 161.0 L 172.0 162.0 L 169.0 162.0 L 164.0 162.0 L 162.0 161.0 " stroke="black" fill="none" stroke-width="5.0" stroke-linecap="round" stroke-linejoin="round" />
<path d="M 126.0 173.0 L 126.0 173.0 L 126.0 174.0 L 127.0 174.0 L 128.0 174.0 L 131.0 174.0 L 135.0 174.0 L 140.0 174.0 L 143.0 174.0 L 144.0 173.0 L 145.0 173.0 L 145.0 174.0 L 145.0 178.0 L 146.0 185.0 L 148.0 194.0 L 149.0 202.0 L 149.0 207.0 L 149.0 209.0 L 149.0 210.0 L 147.0 209.0 L 142.0 208.0 L 136.0 207.0 " stroke="black" fill="none" stroke-width="5.0" stroke-linecap="round" stroke-linejoin="round" />
<path d="M 124.0 186.0 L 126.0 186.0 L 128.0 186.0 L 130.0 186.0 L 133.0 186.0 L 136.0 187.0 L 138.0 187.0 " stroke="black" fill="none" stroke-width="5.0" stroke-linecap="round" stroke-linejoin="round" />
<path d="M 119.0 198.0 L 121.0 199.0 L 123.0 199.0 L 127.0 199.0 L 133.0 199.0 L 135.0 199.0 " stroke="black" fill="none" stroke-width="5.0" stroke-linecap="round" stroke-linejoin="round" />
<path d="M 158.0 173.0 L 159.0 173.0 L 160.0 174.0 L 161.0 174.0 L 163.0 174.0 L 166.0 174.0 L 168.0 173.0 L 171.0 173.0 L 173.0 173.0 L 174.0 174.0 L 176.0 178.0 L 179.0 187.0 L 181.0 196.0 L 182.0 204.0 L 183.0 209.0 L 183.0 210.0 L 181.0 211.0 L 177.0 211.0 L 172.0 210.0 L 167.0 209.0 " stroke="black" fill="none" stroke-width="5.0" stroke-linecap="round" stroke-linejoin="round" />
<path d="M 160.0 184.0 L 160.0 184.0 L 160.0 184.0 L 160.0 184.0 L 161.0 185.0 L 165.0 185.0 L 169.0 186.0 L 172.0 186.0 " stroke="black" fill="none" stroke-width="5.0" stroke-linecap="round" stroke-linejoin="round" />
<path d="M 157.0 198.0 L 158.0 199.0 L 160.0 199.0 L 165.0 199.0 L 173.0 198.0 L 176.0 198.0 " stroke="black" fill="none" stroke-width="5.0" stroke-linecap="round" stroke-linejoin="round" />
</svg>