<svg xmlns="http://www.w3.org/2000/svg" width="300" height="300" viewBox="0 0 300 300">
<path d="M 114.16666666666667 119.16666666666667 L 114.16666666666667 119.16666666666667 L 114.16666666666667 119.16666666666667 L 114.99999999999999 119.16666666666667 L 116.66666666666667 119.16666666666667 L 121.66666666666667 119.16666666666667 L 127.49999999999999 118.33333333333333 L 133.33333333333331 117.49999999999999 L 135.83333333333331 117.49999999999999 L 136.66666666666669 117.49999999999999 L 136.66666666666669 117.49999999999999 L 136.66666666666669 118.33333333333333 L 136.66666666666669 124.16666666666667 L 138.33333333333331 135.83333333333331 L 140.83333333333331 151.66666666666669 L 141.66666666666669 165.83333333333331 L 142.5 177.5 L 143.33333333333331 185.83333333333331 L 143.33333333333331 189.16666666666663 L 140.83333333333331 189.16666666666663 L 136.66666666666669 188.33333333333331 L 128.33333333333331 185.83333333333331 L 123.33333333333333 185.0 " stroke="black" fill="none" stroke-width="5.0" stroke-linecap="round" stroke-linejoin="round" />
<path d="M 121.66666666666667 140.0 L 121.66666666666667 140.0 L 121.66666666666667 140.0 L 122.49999999999999 140.0 L 124.99999999999999 140.83333333333331 L 130.0 143.33333333333331 L 135.0 145.83333333333331 " stroke="black" fill="none" stroke-width="5.0" stroke-linecap="round" stroke-linejoin="round" />
<path d="M 114.99999999999999 171.66666666666663 L 114.99999999999999 171.66666666666663 L 114.99999999999999 171.66666666666663 L 114.99999999999999 171.66666666666663 L 119.16666666666667 170.0 L 130.0 163.33333333333331 L 134.16666666666669 160.83333333333331 " stroke="black" fill="none" stroke-width="5.0" stroke-linecap="round" stroke-linejoin="round" />
<path d="M 152.5 115.83333333333333 L 153.33333333333331 115.83333333333333 L 153.33333333333331 116.66666666666667 L 154.16666666666669 116.66666666666667 L 155.0 116.66666666666667 L 158.33333333333331 116.66666666666667 L 162.5 116.66666666666667 L 167.5 116.66666666666667 L 170.0 115.83333333333333 L 171.66666666666663 115.83333333333333 L 172.5 117.49999999999999 L 174.16666666666663 124.99999999999999 L 177.5 138.33333333333331 L 180.83333333333331 151.66666666666669 L 183.33333333333331 164.16666666666663 L 185.0 174.16666666666663 L 185.0 181.66666666666663 L 184.16666666666663 188.33333333333331 L 181.66666666666663 190.83333333333331 L 178.33333333333331 190.0 L 170.83333333333331 185.83333333333331 " stroke="black" fill="none" stroke-width="5.0" stroke-linecap="round" stroke-linejoin="round" />
<path d="M 155.83333333333331 135.0 L 157.5 135.0 L 158.33333333333331 135.0 L 159.16666666666663 135.0 L 161.66666666666663 135.0 L 165.0 135.83333333333331 L 167.5 135.83333333333331 " stroke="black" fill="none" stroke-width="5.0" stroke-linecap="round" stroke-linejoin="round" />
<path d="M 153.33333333333331 160.83333333333331 L 153.33333333333331 160.83333333333331 L 153.33333333333331 160.83333333333331 L 156.66666666666663 160.0 L 166.66666666666663 155.83333333333331 " stroke="black" fill="none" stroke-width="5.0" stroke-linecap="round" stroke-linejoin="round" />
</svg>