<svg xmlns="http://www.w3.org/2000/svg" width="300" height="300" viewBox="0 0 300 300">
<path d="M 123.0 110.0 L 123.0 110.0 L 123.0 110.0 L 123.0 110.0 L 123.0 110.0 L 122.0 110.0 L 122.0 112.0 L 120.0 115.0 L 118.0 120.0 L 115.0 124.0 L 114.0 127.0 L 114.0 127.0 L 116.0 128.0 L 119.0 128.0 L 125.0 126.0 L 131.0 125.0 L 136.0 124.0 L 139.0 123.0 L 139.0 122.0 L 139.0 122.0 L 139.0 124.0 L 140.0 129.0 L 140.0 133.0 L 141.0 138.0 L 141.0 141.0 L 141.0 143.0 " stroke="black" fill="none" stroke-width="5.0" stroke-linecap="round" stroke-linejoin="round" />
<path d="M 112.0 145.0 L 112.0 145.0 L 112.0 145.0 L 113.0 145.0 L 116.0 145.0 L 124.0 144.0 L 135.0 143.0 L 142.0 142.0 L 143.0 142.0 " stroke="black" fill="none" stroke-width="5.0" stroke-linecap="round" stroke-linejoin="round" />
<path d="M 114.0 131.0 L 114.0 131.0 L 114.0 132.0 L 114.0 132.0 L 114.0 133.0 L 114.0 138.0 L 113.0 149.0 L 109.0 166.0 L 103.0 182.0 L 99.0 191.0 L 97.0 193.0 L 97.0 193.0 " stroke="black" fill="none" stroke-width="5.0" stroke-linecap="round" stroke-linejoin="round" />
<path d="M 113.0 161.0 L 113.0 161.0 L 113.0 162.0 L 114.0 163.0 L 114.0 165.0 L 115.0 170.0 L 116.0 180.0 L 116.0 189.0 L 116.0 193.0 L 117.0 194.0 L 117.0 193.0 " stroke="black" fill="none" stroke-width="5.0" stroke-linecap="round" stroke-linejoin="round" />
<path d="M 114.0 159.0 L 114.0 159.0 L 115.0 159.0 L 115.0 159.0 L 115.0 159.0 L 118.0 159.0 L 123.0 158.0 L 130.0 157.0 L 137.0 157.0 L 142.0 156.0 L 146.0 156.0 L 148.0 158.0 L 150.0 161.0 L 151.0 167.0 L 152.0 176.0 L 153.0 184.0 L 153.0 190.0 L 153.0 192.0 L 153.0 193.0 L 150.0 193.0 L 145.0 191.0 " stroke="black" fill="none" stroke-width="5.0" stroke-linecap="round" stroke-linejoin="round" />
<path d="M 116.0 175.0 L 116.0 175.0 L 117.0 175.0 L 121.0 175.0 L 129.0 174.0 L 137.0 174.0 L 143.0 174.0 " stroke="black" fill="none" stroke-width="5.0" stroke-linecap="round" stroke-linejoin="round" />
<path d="M 127.0 161.0 L 127.0 161.0 L 127.0 161.0 L 127.0 164.0 L 127.0 173.0 L 129.0 182.0 L 130.0 189.0 L 131.0 191.0 " stroke="black" fill="none" stroke-width="5.0" stroke-linecap="round" stroke-linejoin="round" />
<path d="M 136.0 162.0 L 136.0 163.0 L 136.0 166.0 L 137.0 173.0 L 139.0 182.0 L 140.0 189.0 L 141.0 191.0 " stroke="black" fill="none" stroke-width="5.0" stroke-linecap="round" stroke-linejoin="round" />
<path d="M 155.0 121.0 L 155.0 121.0 L 155.0 122.0 L 156.0 122.0 L 156.0 122.0 L 158.0 122.0 L 160.0 123.0 L 162.0 123.0 L 164.0 124.0 L 166.0 127.0 L 168.0 133.0 L 170.0 143.0 L 174.0 159.0 L 177.0 174.0 L 178.0 185.0 L 178.0 191.0 L 178.0 193.0 L 175.0 194.0 L 170.0 194.0 L 163.0 192.0 " stroke="black" fill="none" stroke-width="5.0" stroke-linecap="round" stroke-linejoin="round" />
<path d="M 154.0 147.0 L 154.0 147.0 L 154.0 147.0 L 154.0 147.0 L 155.0 147.0 L 159.0 148.0 L 163.0 149.0 L 166.0 149.0 " stroke="black" fill="none" stroke-width="5.0" stroke-linecap="round" stroke-linejoin="round" />
<path d="M 156.0 164.0 L 156.0 164.0 L 156.0 164.0 L 157.0 165.0 L 161.0 165.0 L 167.0 165.0 " stroke="black" fill="none" stroke-width="5.0" stroke-linecap="round" stroke-linejoin="round" />
<path d="M 184.0 123.0 L 184.0 123.0 L 183.0 123.0 L 183.0 124.0 L 183.0 124.0 L 183.0 124.0 L 185.0 125.0 L 188.0 125.0 L 190.0 126.0 L 192.0 127.0 L 194.0 131.0 L 196.0 138.0 L 198.0 148.0 L 200.0 162.0 L 202.0 176.0 L 204.0 188.0 L 204.0 195.0 L 204.0 198.0 L 204.0 199.0 L 201.0 199.0 L 196.0 199.0 L 192.0 198.0 " stroke="black" fill="none" stroke-width="5.0" stroke-linecap="round" stroke-linejoin="round" />
<path d="M 186.0 151.0 L 186.0 151.0 L 186.0 151.0 L 186.0 151.0 L 187.0 151.0 L 189.0 152.0 L 192.0 154.0 " stroke="black" fill="none" stroke-width="5.0" stroke-linecap="round" stroke-linejoin="round" />
<path d="M 187.0 170.0 L 187.0 170.0 L 187.0 170.0 L 189.0 171.0 L 193.0 171.0 L 194.0 171.0 " stroke="black" fill="none" stroke-width="5.0" stroke-linecap="round" stroke-linejoin="round" />
</svg>