<svg xmlns="http://www.w3.org/2000/svg" width="300" height="300" viewBox="0 0 300 300">
<path d="M 121.66666666666667 114.99999999999999 L 122.49999999999999 115.83333333333333 L 122.49999999999999 115.83333333333333 L 122.49999999999999 116.66666666666667 L 123.33333333333333 118.33333333333333 L 124.16666666666667 119.99999999999999 L 125.83333333333333 122.49999999999999 " stroke="black" fill="none" stroke-width="5.0" stroke-linecap="round" stroke-linejoin="round" />
<path d="M 138.33333333333331 112.49999999999999 L 138.33333333333331 112.49999999999999 L 137.5 113.33333333333333 L 136.66666666666669 114.16666666666667 L 136.66666666666669 116.66666666666667 L 135.83333333333331 119.99999999999999 L 135.0 121.66666666666667 " stroke="black" fill="none" stroke-width="5.0" stroke-linecap="round" stroke-linejoin="round" />
<path d="M 117.49999999999999 134.16666666666669 L 117.49999999999999 134.16666666666669 L 117.49999999999999 134.16666666666669 L 118.33333333333333 134.16666666666669 L 120.83333333333333 134.16666666666669 L 128.33333333333331 134.16666666666669 L 137.5 132.5 " stroke="black" fill="none" stroke-width="5.0" stroke-linecap="round" stroke-linejoin="round" />
<path d="M 122.49999999999999 150.83333333333331 L 122.49999999999999 150.83333333333331 L 122.49999999999999 150.83333333333331 L 124.16666666666667 150.83333333333331 L 126.66666666666667 150.0 L 132.5 150.0 L 137.5 149.16666666666669 L 140.0 150.0 " stroke="black" fill="none" stroke-width="5.0" stroke-linecap="round" stroke-linejoin="round" />
<path d="M 116.66666666666667 164.16666666666663 L 116.66666666666667 164.16666666666663 L 116.66666666666667 164.16666666666663 L 119.16666666666667 165.0 L 124.99999999999999 165.0 L 134.16666666666669 163.33333333333331 L 143.33333333333331 162.5 L 146.66666666666669 162.5 " stroke="black" fill="none" stroke-width="5.0" stroke-linecap="round" stroke-linejoin="round" />
<path d="M 131.66666666666669 137.5 L 131.66666666666669 137.5 L 131.66666666666669 137.5 L 131.66666666666669 139.16666666666669 L 131.66666666666669 146.66666666666669 L 130.83333333333331 162.5 L 128.33333333333331 180.0 L 123.33333333333333 190.0 " stroke="black" fill="none" stroke-width="5.0" stroke-linecap="round" stroke-linejoin="round" />
<path d="M 152.5 123.33333333333333 L 152.5 123.33333333333333 L 152.5 124.16666666666667 L 152.5 124.99999999999999 L 153.33333333333331 124.99999999999999 L 155.83333333333331 124.99999999999999 L 158.33333333333331 124.99999999999999 L 161.66666666666663 124.16666666666667 L 163.33333333333331 124.16666666666667 L 165.0 124.16666666666667 L 165.83333333333331 127.49999999999999 L 168.33333333333331 135.0 L 171.66666666666663 148.33333333333331 L 174.16666666666663 162.5 L 175.0 174.16666666666663 L 175.0 180.83333333333331 L 175.0 184.16666666666663 L 171.66666666666663 185.0 L 166.66666666666663 185.0 L 159.16666666666663 183.33333333333331 L 157.5 181.66666666666663 " stroke="black" fill="none" stroke-width="5.0" stroke-linecap="round" stroke-linejoin="round" />
<path d="M 155.0 143.33333333333331 L 155.0 143.33333333333331 L 155.83333333333331 142.5 L 156.66666666666663 142.5 L 160.0 143.33333333333331 L 165.0 143.33333333333331 L 168.33333333333331 144.16666666666669 " stroke="black" fill="none" stroke-width="5.0" stroke-linecap="round" stroke-linejoin="round" />
<path d="M 154.16666666666669 165.0 L 154.16666666666669 165.0 L 154.16666666666669 165.83333333333331 L 156.66666666666663 166.66666666666663 L 162.5 165.0 L 166.66666666666663 163.33333333333331 " stroke="black" fill="none" stroke-width="5.0" stroke-linecap="round" stroke-linejoin="round" />
<path d="M 181.66666666666663 123.33333333333333 L 180.83333333333331 123.33333333333333 L 180.0 124.16666666666667 L 180.0 124.99999999999999 L 181.66666666666663 125.83333333333333 L 184.16666666666663 125.83333333333333 L 186.66666666666663 126.66666666666667 L 189.16666666666663 126.66666666666667 L 190.0 128.33333333333331 L 191.66666666666663 133.33333333333331 L 193.33333333333331 143.33333333333331 L 195.83333333333331 155.83333333333331 L 197.5 167.5 L 198.33333333333331 175.83333333333331 L 198.33333333333331 182.5 L 198.33333333333331 185.0 L 196.66666666666663 186.66666666666663 L 191.66666666666663 186.66666666666663 L 185.83333333333331 185.83333333333331 L 184.16666666666663 185.0 " stroke="black" fill="none" stroke-width="5.0" stroke-linecap="round" stroke-linejoin="round" />
<path d="M 180.83333333333331 145.0 L 180.83333333333331 145.0 L 180.83333333333331 145.0 L 180.83333333333331 145.0 L 181.66666666666663 145.0 L 185.0 145.0 L 190.0 145.0 L 190.83333333333331 145.0 " stroke="black" fill="none" stroke-width="5.0" stroke-linecap="round" stroke-linejoin="round" />
<path d="M 180.0 166.66666666666663 L 180.0 166.66666666666663 L 180.83333333333331 165.83333333333331 L 184.16666666666663 165.0 L 189.16666666666663 163.33333333333331 L 190.0 163.33333333333331 " stroke="black" fill="none" stroke-width="5.0" stroke-linecap="round" stroke-linejoin="round" />
</svg>