<svg xmlns="http://www.w3.org/2000/svg" width="300" height="300" viewBox="0 0 300 300">
<path d="M 117.0 110.0 L 117.0 111.0 L 118.0 111.0 L 118.0 114.0 L 118.0 117.0 L 119.0 121.0 L 119.0 122.0 " stroke="black" fill="none" stroke-width="5.0" stroke-linecap="round" stroke-linejoin="round" />
<path d="M 119.0 108.0 L 119.0 108.0 L 120.0 108.0 L 122.0 107.0 L 128.0 106.0 L 139.0 104.0 L 150.0 103.0 L 160.0 103.0 L 167.0 103.0 L 174.0 103.0 L 178.0 104.0 L 181.0 105.0 L 183.0 107.0 L 183.0 111.0 L 183.0 116.0 L 182.0 122.0 L 180.0 126.0 L 180.0 127.0 " stroke="black" fill="none" stroke-width="5.0" stroke-linecap="round" stroke-linejoin="round" />
<path d="M 124.0 126.0 L 124.0 126.0 L 124.0 126.0 L 124.0 126.0 L 127.0 126.0 L 137.0 126.0 L 152.0 126.0 L 166.0 127.0 L 176.0 127.0 L 179.0 127.0 " stroke="black" fill="none" stroke-width="5.0" stroke-linecap="round" stroke-linejoin="round" />
<path d="M 143.0 108.0 L 143.0 108.0 L 143.0 108.0 L 143.0 107.0 L 143.0 108.0 L 144.0 113.0 L 145.0 120.0 " stroke="black" fill="none" stroke-width="5.0" stroke-linecap="round" stroke-linejoin="round" />
<path d="M 160.0 107.0 L 160.0 107.0 L 161.0 108.0 L 162.0 110.0 L 162.0 115.0 L 162.0 121.0 " stroke="black" fill="none" stroke-width="5.0" stroke-linecap="round" stroke-linejoin="round" />
<path d="M 138.0 140.0 L 138.0 140.0 L 138.0 140.0 L 138.0 141.0 L 138.0 142.0 L 136.0 144.0 L 134.0 147.0 L 131.0 150.0 L 129.0 152.0 L 128.0 154.0 L 131.0 155.0 L 138.0 155.0 L 145.0 155.0 " stroke="black" fill="none" stroke-width="5.0" stroke-linecap="round" stroke-linejoin="round" />
<path d="M 147.0 147.0 L 147.0 148.0 L 148.0 149.0 L 149.0 153.0 L 151.0 157.0 L 152.0 159.0 " stroke="black" fill="none" stroke-width="5.0" stroke-linecap="round" stroke-linejoin="round" />
<path d="M 126.0 171.0 L 126.0 171.0 L 126.0 171.0 L 126.0 171.0 L 127.0 173.0 L 127.0 180.0 L 128.0 190.0 L 129.0 197.0 L 129.0 199.0 " stroke="black" fill="none" stroke-width="5.0" stroke-linecap="round" stroke-linejoin="round" />
<path d="M 126.0 167.0 L 127.0 167.0 L 128.0 167.0 L 129.0 166.0 L 131.0 166.0 L 134.0 165.0 L 137.0 165.0 L 140.0 165.0 L 143.0 166.0 L 147.0 168.0 L 150.0 173.0 L 154.0 181.0 L 155.0 190.0 L 156.0 197.0 L 156.0 201.0 L 155.0 201.0 L 153.0 201.0 L 148.0 201.0 L 144.0 200.0 " stroke="black" fill="none" stroke-width="5.0" stroke-linecap="round" stroke-linejoin="round" />
<path d="M 134.0 175.0 L 134.0 175.0 L 134.0 175.0 L 134.0 175.0 L 138.0 175.0 L 143.0 176.0 L 149.0 176.0 L 150.0 176.0 " stroke="black" fill="none" stroke-width="5.0" stroke-linecap="round" stroke-linejoin="round" />
<path d="M 131.0 187.0 L 132.0 187.0 L 134.0 187.0 L 140.0 187.0 L 149.0 185.0 L 151.0 184.0 " stroke="black" fill="none" stroke-width="5.0" stroke-linecap="round" stroke-linejoin="round" />
<path d="M 161.0 141.0 L 161.0 141.0 L 161.0 140.0 L 161.0 140.0 L 161.0 144.0 L 161.0 152.0 L 165.0 161.0 L 172.0 165.0 L 178.0 166.0 " stroke="black" fill="none" stroke-width="5.0" stroke-linecap="round" stroke-linejoin="round" />
<path d="M 166.0 152.0 L 166.0 152.0 L 166.0 152.0 L 167.0 152.0 L 172.0 152.0 L 178.0 151.0 L 180.0 151.0 " stroke="black" fill="none" stroke-width="5.0" stroke-linecap="round" stroke-linejoin="round" />
<path d="M 168.0 176.0 L 168.0 176.0 L 168.0 175.0 L 168.0 174.0 L 168.0 174.0 L 168.0 174.0 L 168.0 177.0 L 168.0 182.0 L 168.0 189.0 L 169.0 197.0 L 174.0 202.0 L 185.0 204.0 L 196.0 203.0 L 198.0 202.0 " stroke="black" fill="none" stroke-width="5.0" stroke-linecap="round" stroke-linejoin="round" />
<path d="M 173.0 184.0 L 173.0 184.0 L 174.0 184.0 L 177.0 184.0 L 184.0 184.0 L 193.0 184.0 L 195.0 183.0 " stroke="black" fill="none" stroke-width="5.0" stroke-linecap="round" stroke-linejoin="round" />
</svg>