<svg xmlns="http://www.w3.org/2000/svg" width="300" height="300" viewBox="0 0 300 300">
<path d="M 120.0 102.0 L 120.0 102.0 L 121.0 102.0 L 121.0 102.0 L 122.0 103.0 L 124.0 103.0 L 126.0 103.0 L 130.0 103.0 L 132.0 103.0 L 134.0 103.0 L 136.0 104.0 L 138.0 108.0 L 140.0 115.0 L 142.0 124.0 L 143.0 131.0 L 143.0 136.0 L 143.0 138.0 L 140.0 139.0 L 135.0 139.0 L 129.0 139.0 " stroke="black" fill="none" stroke-width="5.0" stroke-linecap="round" stroke-linejoin="round" />
<path d="M 121.0 116.0 L 121.0 116.0 L 122.0 116.0 L 123.0 116.0 L 126.0 116.0 L 132.0 116.0 L 133.0 116.0 " stroke="black" fill="none" stroke-width="5.0" stroke-linecap="round" stroke-linejoin="round" />
<path d="M 117.0 127.0 L 118.0 127.0 L 119.0 128.0 L 123.0 128.0 L 131.0 128.0 L 136.0 128.0 " stroke="black" fill="none" stroke-width="5.0" stroke-linecap="round" stroke-linejoin="round" />
<path d="M 154.0 105.0 L 154.0 105.0 L 154.0 105.0 L 154.0 105.0 L 154.0 105.0 L 156.0 105.0 L 159.0 106.0 L 163.0 106.0 L 166.0 106.0 L 168.0 109.0 L 171.0 114.0 L 173.0 123.0 L 175.0 132.0 L 176.0 138.0 L 176.0 140.0 L 173.0 140.0 L 168.0 140.0 L 162.0 139.0 " stroke="black" fill="none" stroke-width="5.0" stroke-linecap="round" stroke-linejoin="round" />
<path d="M 154.0 116.0 L 154.0 116.0 L 155.0 117.0 L 156.0 118.0 L 160.0 118.0 L 164.0 118.0 L 165.0 118.0 " stroke="black" fill="none" stroke-width="5.0" stroke-linecap="round" stroke-linejoin="round" />
<path d="M 154.0 126.0 L 154.0 126.0 L 156.0 126.0 L 159.0 126.0 L 162.0 126.0 " stroke="black" fill="none" stroke-width="5.0" stroke-linecap="round" stroke-linejoin="round" />
<path d="M 151.0 146.0 L 151.0 146.0 L 151.0 146.0 L 151.0 146.0 L 152.0 148.0 " stroke="black" fill="none" stroke-width="5.0" stroke-linecap="round" stroke-linejoin="round" />
<path d="M 121.0 159.0 L 121.0 159.0 L 122.0 159.0 L 123.0 159.0 L 131.0 158.0 L 149.0 157.0 L 171.0 154.0 L 188.0 152.0 " stroke="black" fill="none" stroke-width="5.0" stroke-linecap="round" stroke-linejoin="round" />
<path d="M 141.0 161.0 L 141.0 161.0 L 140.0 161.0 L 140.0 161.0 L 140.0 163.0 L 138.0 169.0 L 134.0 178.0 L 130.0 184.0 " stroke="black" fill="none" stroke-width="5.0" stroke-linecap="round" stroke-linejoin="round" />
<path d="M 139.0 170.0 L 140.0 170.0 L 141.0 170.0 L 143.0 171.0 L 145.0 173.0 L 149.0 175.0 " stroke="black" fill="none" stroke-width="5.0" stroke-linecap="round" stroke-linejoin="round" />
<path d="M 168.0 161.0 L 168.0 162.0 L 168.0 164.0 L 168.0 166.0 L 168.0 170.0 L 167.0 174.0 L 164.0 178.0 " stroke="black" fill="none" stroke-width="5.0" stroke-linecap="round" stroke-linejoin="round" />
<path d="M 165.0 169.0 L 167.0 170.0 L 169.0 171.0 L 172.0 173.0 L 177.0 175.0 L 182.0 178.0 L 183.0 179.0 " stroke="black" fill="none" stroke-width="5.0" stroke-linecap="round" stroke-linejoin="round" />
<path d="M 124.0 197.0 L 125.0 197.0 L 128.0 197.0 L 134.0 196.0 L 147.0 194.0 L 165.0 193.0 L 183.0 193.0 " stroke="black" fill="none" stroke-width="5.0" stroke-linecap="round" stroke-linejoin="round" />
<path d="M 154.0 179.0 L 154.0 179.0 L 156.0 179.0 L 156.0 180.0 L 157.0 185.0 L 158.0 199.0 L 158.0 216.0 " stroke="black" fill="none" stroke-width="5.0" stroke-linecap="round" stroke-linejoin="round" />
</svg>