<svg xmlns="http://www.w3.org/2000/svg" width="300" height="300" viewBox="0 0 300 300">
<path d="M 135.0 113.0 L 135.0 113.0 L 135.0 113.0 L 135.0 113.0 L 136.0 116.0 L 139.0 122.0 L 140.0 123.0 " stroke="black" fill="none" stroke-width="5.0" stroke-linecap="round" stroke-linejoin="round" />
<path d="M 158.0 111.0 L 158.0 111.0 L 158.0 113.0 L 156.0 117.0 L 154.0 122.0 L 153.0 125.0 " stroke="black" fill="none" stroke-width="5.0" stroke-linecap="round" stroke-linejoin="round" />
<path d="M 127.0 134.0 L 127.0 134.0 L 127.0 134.0 L 127.0 134.0 L 131.0 133.0 L 140.0 132.0 L 153.0 129.0 L 163.0 127.0 L 167.0 127.0 L 166.0 128.0 " stroke="black" fill="none" stroke-width="5.0" stroke-linecap="round" stroke-linejoin="round" />
<path d="M 134.0 146.0 L 134.0 146.0 L 135.0 146.0 L 136.0 146.0 L 140.0 146.0 L 147.0 143.0 L 155.0 141.0 L 160.0 140.0 " stroke="black" fill="none" stroke-width="5.0" stroke-linecap="round" stroke-linejoin="round" />
<path d="M 114.0 162.0 L 115.0 162.0 L 116.0 163.0 L 120.0 163.0 L 131.0 163.0 L 147.0 161.0 L 161.0 159.0 L 170.0 158.0 L 171.0 158.0 " stroke="black" fill="none" stroke-width="5.0" stroke-linecap="round" stroke-linejoin="round" />
<path d="M 146.0 134.0 L 146.0 135.0 L 146.0 138.0 L 146.0 146.0 L 149.0 156.0 L 150.0 158.0 " stroke="black" fill="none" stroke-width="5.0" stroke-linecap="round" stroke-linejoin="round" />
<path d="M 120.0 183.0 L 122.0 183.0 L 122.0 183.0 L 125.0 183.0 L 135.0 183.0 L 150.0 181.0 L 164.0 178.0 L 175.0 176.0 L 177.0 175.0 " stroke="black" fill="none" stroke-width="5.0" stroke-linecap="round" stroke-linejoin="round" />
<path d="M 149.0 166.0 L 149.0 166.0 L 148.0 166.0 L 148.0 167.0 L 146.0 172.0 L 143.0 183.0 L 137.0 198.0 L 130.0 209.0 " stroke="black" fill="none" stroke-width="5.0" stroke-linecap="round" stroke-linejoin="round" />
<path d="M 150.0 186.0 L 150.0 186.0 L 152.0 186.0 L 156.0 190.0 L 166.0 197.0 L 176.0 207.0 L 180.0 213.0 " stroke="black" fill="none" stroke-width="5.0" stroke-linecap="round" stroke-linejoin="round" />
</svg>