<svg xmlns="http://www.w3.org/2000/svg" width="300" height="300" viewBox="0 0 300 300">
<path d="M 138.0 111.0 L 138.0 111.0 L 138.0 111.0 L 138.0 111.0 L 138.0 111.0 L 139.0 113.0 L 141.0 118.0 L 141.0 119.0 " stroke="black" fill="none" stroke-width="5.0" stroke-linecap="round" stroke-linejoin="round" />
<path d="M 159.0 109.0 L 160.0 109.0 L 160.0 110.0 L 161.0 111.0 L 161.0 115.0 L 160.0 118.0 " stroke="black" fill="none" stroke-width="5.0" stroke-linecap="round" stroke-linejoin="round" />
<path d="M 130.0 132.0 L 129.0 132.0 L 129.0 132.0 L 129.0 132.0 L 136.0 132.0 L 148.0 131.0 L 161.0 130.0 L 170.0 130.0 " stroke="black" fill="none" stroke-width="5.0" stroke-linecap="round" stroke-linejoin="round" />
<path d="M 140.0 150.0 L 140.0 150.0 L 140.0 150.0 L 141.0 150.0 L 144.0 150.0 L 152.0 149.0 L 159.0 148.0 " stroke="black" fill="none" stroke-width="5.0" stroke-linecap="round" stroke-linejoin="round" />
<path d="M 121.0 170.0 L 123.0 170.0 L 127.0 170.0 L 136.0 169.0 L 150.0 168.0 L 165.0 167.0 L 176.0 166.0 " stroke="black" fill="none" stroke-width="5.0" stroke-linecap="round" stroke-linejoin="round" />
<path d="M 151.0 132.0 L 151.0 133.0 L 151.0 138.0 L 152.0 150.0 L 152.0 165.0 L 153.0 168.0 " stroke="black" fill="none" stroke-width="5.0" stroke-linecap="round" stroke-linejoin="round" />
<path d="M 122.0 185.0 L 122.0 185.0 L 122.0 185.0 L 122.0 185.0 L 122.0 186.0 L 122.0 188.0 L 122.0 192.0 L 122.0 194.0 " stroke="black" fill="none" stroke-width="5.0" stroke-linecap="round" stroke-linejoin="round" />
<path d="M 143.0 185.0 L 143.0 186.0 L 143.0 187.0 L 143.0 189.0 L 143.0 192.0 L 144.0 194.0 " stroke="black" fill="none" stroke-width="5.0" stroke-linecap="round" stroke-linejoin="round" />
<path d="M 160.0 185.0 L 160.0 186.0 L 161.0 187.0 L 162.0 190.0 L 162.0 194.0 " stroke="black" fill="none" stroke-width="5.0" stroke-linecap="round" stroke-linejoin="round" />
<path d="M 184.0 186.0 L 184.0 187.0 L 184.0 189.0 L 184.0 192.0 L 186.0 195.0 L 188.0 198.0 " stroke="black" fill="none" stroke-width="5.0" stroke-linecap="round" stroke-linejoin="round" />
</svg>