<svg xmlns="http://www.w3.org/2000/svg" width="300" height="300" viewBox="0 0 300 300">
<path d="M 122.0 116.0 L 122.0 116.0 L 122.0 116.0 L 122.0 116.0 L 121.0 116.0 L 120.0 116.0 L 120.0 116.0 L 120.0 116.0 L 122.0 116.0 L 127.0 116.0 L 132.0 116.0 L 136.0 116.0 L 139.0 116.0 L 141.0 116.0 L 141.0 119.0 L 142.0 125.0 L 142.0 131.0 L 143.0 137.0 L 143.0 140.0 " stroke="black" fill="none" stroke-width="5.0" stroke-linecap="round" stroke-linejoin="round" />
<path d="M 108.0 132.0 L 108.0 132.0 L 108.0 132.0 L 111.0 132.0 L 120.0 131.0 L 134.0 130.0 L 144.0 130.0 L 148.0 132.0 L 149.0 133.0 " stroke="black" fill="none" stroke-width="5.0" stroke-linecap="round" stroke-linejoin="round" />
<path d="M 113.0 146.0 L 113.0 146.0 L 113.0 146.0 L 113.0 146.0 L 118.0 146.0 L 128.0 146.0 L 137.0 144.0 L 142.0 144.0 " stroke="black" fill="none" stroke-width="5.0" stroke-linecap="round" stroke-linejoin="round" />
<path d="M 130.0 125.0 L 130.0 125.0 L 129.0 125.0 L 128.0 126.0 L 127.0 130.0 L 124.0 140.0 L 119.0 155.0 L 112.0 171.0 L 104.0 184.0 L 101.0 189.0 " stroke="black" fill="none" stroke-width="5.0" stroke-linecap="round" stroke-linejoin="round" />
<path d="M 118.0 166.0 L 118.0 166.0 L 118.0 166.0 L 118.0 166.0 L 118.0 170.0 L 120.0 177.0 L 121.0 184.0 L 122.0 188.0 " stroke="black" fill="none" stroke-width="5.0" stroke-linecap="round" stroke-linejoin="round" />
<path d="M 119.0 164.0 L 120.0 164.0 L 121.0 164.0 L 123.0 164.0 L 126.0 163.0 L 130.0 163.0 L 134.0 163.0 L 138.0 163.0 L 141.0 164.0 L 143.0 168.0 L 145.0 173.0 L 145.0 179.0 L 145.0 182.0 " stroke="black" fill="none" stroke-width="5.0" stroke-linecap="round" stroke-linejoin="round" />
<path d="M 120.0 185.0 L 120.0 185.0 L 121.0 186.0 L 123.0 187.0 L 129.0 187.0 L 137.0 187.0 L 141.0 185.0 " stroke="black" fill="none" stroke-width="5.0" stroke-linecap="round" stroke-linejoin="round" />
<path d="M 160.0 115.0 L 160.0 115.0 L 160.0 117.0 L 161.0 120.0 L 162.0 123.0 L 163.0 124.0 " stroke="black" fill="none" stroke-width="5.0" stroke-linecap="round" stroke-linejoin="round" />
<path d="M 174.0 112.0 L 174.0 112.0 L 174.0 113.0 L 174.0 115.0 L 173.0 119.0 L 171.0 125.0 L 169.0 129.0 " stroke="black" fill="none" stroke-width="5.0" stroke-linecap="round" stroke-linejoin="round" />
<path d="M 154.0 139.0 L 154.0 139.0 L 154.0 138.0 L 154.0 138.0 L 157.0 137.0 L 163.0 136.0 L 172.0 135.0 L 179.0 135.0 L 182.0 135.0 L 182.0 136.0 " stroke="black" fill="none" stroke-width="5.0" stroke-linecap="round" stroke-linejoin="round" />
<path d="M 156.0 154.0 L 156.0 154.0 L 157.0 155.0 L 160.0 155.0 L 166.0 154.0 L 173.0 153.0 L 177.0 153.0 L 177.0 153.0 " stroke="black" fill="none" stroke-width="5.0" stroke-linecap="round" stroke-linejoin="round" />
<path d="M 147.0 173.0 L 148.0 173.0 L 150.0 174.0 L 155.0 174.0 L 166.0 174.0 L 179.0 173.0 L 188.0 173.0 " stroke="black" fill="none" stroke-width="5.0" stroke-linecap="round" stroke-linejoin="round" />
<path d="M 166.0 136.0 L 166.0 136.0 L 165.0 139.0 L 165.0 145.0 L 168.0 159.0 L 172.0 178.0 L 174.0 196.0 L 175.0 206.0 L 174.0 210.0 " stroke="black" fill="none" stroke-width="5.0" stroke-linecap="round" stroke-linejoin="round" />
</svg>