<svg xmlns="http://www.w3.org/2000/svg" width="300" height="300" viewBox="0 0 300 300">
<path d="M 139.0 110.0 L 139.0 110.0 L 139.0 109.0 L 139.0 111.0 L 142.0 119.0 L 147.0 126.0 " stroke="black" fill="none" stroke-width="5.0" stroke-linecap="round" stroke-linejoin="round" />
<path d="M 164.0 111.0 L 164.0 112.0 L 163.0 114.0 L 162.0 119.0 L 160.0 125.0 L 159.0 130.0 " stroke="black" fill="none" stroke-width="5.0" stroke-linecap="round" stroke-linejoin="round" />
<path d="M 134.0 135.0 L 134.0 135.0 L 134.0 135.0 L 134.0 134.0 L 139.0 133.0 L 151.0 131.0 L 166.0 130.0 L 172.0 130.0 " stroke="black" fill="none" stroke-width="5.0" stroke-linecap="round" stroke-linejoin="round" />
<path d="M 138.0 150.0 L 141.0 150.0 L 144.0 149.0 L 150.0 149.0 L 158.0 148.0 L 165.0 148.0 " stroke="black" fill="none" stroke-width="5.0" stroke-linecap="round" stroke-linejoin="round" />
<path d="M 121.0 172.0 L 124.0 173.0 L 129.0 173.0 L 141.0 172.0 L 158.0 169.0 L 176.0 167.0 L 179.0 167.0 " stroke="black" fill="none" stroke-width="5.0" stroke-linecap="round" stroke-linejoin="round" />
<path d="M 152.0 135.0 L 152.0 137.0 L 152.0 143.0 L 152.0 156.0 L 154.0 179.0 L 156.0 201.0 L 157.0 207.0 " stroke="black" fill="none" stroke-width="5.0" stroke-linecap="round" stroke-linejoin="round" />
</svg>