<svg xmlns="http://www.w3.org/2000/svg" width="300" height="300" viewBox="0 0 300 300">
<path d="M 119.0 108.0 L 119.0 108.0 L 120.0 108.0 L 121.0 109.0 L 121.0 113.0 L 121.0 118.0 L 121.0 122.0 L 121.0 123.0 " stroke="black" fill="none" stroke-width="5.0" stroke-linecap="round" stroke-linejoin="round" />
<path d="M 120.0 109.0 L 120.0 109.0 L 120.0 109.0 L 121.0 109.0 L 123.0 108.0 L 130.0 107.0 L 140.0 106.0 L 152.0 105.0 L 162.0 105.0 L 169.0 105.0 L 174.0 106.0 L 178.0 108.0 L 179.0 109.0 L 179.0 113.0 L 179.0 118.0 L 179.0 123.0 L 179.0 127.0 L 179.0 127.0 " stroke="black" fill="none" stroke-width="5.0" stroke-linecap="round" stroke-linejoin="round" />
<path d="M 125.0 132.0 L 125.0 132.0 L 125.0 132.0 L 126.0 132.0 L 129.0 132.0 L 139.0 132.0 L 153.0 132.0 L 165.0 132.0 L 170.0 132.0 " stroke="black" fill="none" stroke-width="5.0" stroke-linecap="round" stroke-linejoin="round" />
<path d="M 142.0 113.0 L 142.0 113.0 L 141.0 113.0 L 141.0 117.0 L 141.0 123.0 L 143.0 130.0 " stroke="black" fill="none" stroke-width="5.0" stroke-linecap="round" stroke-linejoin="round" />
<path d="M 159.0 112.0 L 159.0 112.0 L 159.0 112.0 L 159.0 112.0 L 159.0 114.0 L 159.0 123.0 L 159.0 126.0 " stroke="black" fill="none" stroke-width="5.0" stroke-linecap="round" stroke-linejoin="round" />
<path d="M 137.0 146.0 L 137.0 146.0 L 137.0 146.0 L 137.0 146.0 L 137.0 146.0 L 137.0 148.0 L 135.0 151.0 L 130.0 157.0 L 123.0 165.0 L 119.0 169.0 L 118.0 172.0 L 120.0 172.0 L 125.0 171.0 L 131.0 169.0 " stroke="black" fill="none" stroke-width="5.0" stroke-linecap="round" stroke-linejoin="round" />
<path d="M 141.0 164.0 L 141.0 164.0 L 141.0 164.0 L 141.0 164.0 L 141.0 165.0 L 140.0 166.0 L 137.0 171.0 L 131.0 179.0 L 125.0 186.0 L 122.0 190.0 L 122.0 192.0 L 126.0 192.0 L 134.0 191.0 L 141.0 189.0 L 143.0 188.0 " stroke="black" fill="none" stroke-width="5.0" stroke-linecap="round" stroke-linejoin="round" />
<path d="M 146.0 181.0 L 146.0 181.0 L 146.0 183.0 L 146.0 187.0 L 148.0 192.0 L 148.0 194.0 " stroke="black" fill="none" stroke-width="5.0" stroke-linecap="round" stroke-linejoin="round" />
<path d="M 118.0 202.0 L 118.0 203.0 L 118.0 204.0 L 118.0 207.0 L 120.0 210.0 L 121.0 211.0 " stroke="black" fill="none" stroke-width="5.0" stroke-linecap="round" stroke-linejoin="round" />
<path d="M 127.0 204.0 L 128.0 204.0 L 128.0 205.0 L 128.0 206.0 L 129.0 208.0 L 130.0 211.0 L 131.0 212.0 " stroke="black" fill="none" stroke-width="5.0" stroke-linecap="round" stroke-linejoin="round" />
<path d="M 138.0 202.0 L 138.0 203.0 L 139.0 204.0 L 140.0 207.0 L 141.0 209.0 " stroke="black" fill="none" stroke-width="5.0" stroke-linecap="round" stroke-linejoin="round" />
<path d="M 160.0 148.0 L 160.0 148.0 L 160.0 148.0 L 160.0 148.0 L 160.0 149.0 L 159.0 152.0 L 157.0 160.0 L 153.0 169.0 L 148.0 177.0 L 147.0 178.0 " stroke="black" fill="none" stroke-width="5.0" stroke-linecap="round" stroke-linejoin="round" />
<path d="M 156.0 163.0 L 157.0 163.0 L 157.0 163.0 L 158.0 164.0 L 158.0 167.0 L 159.0 176.0 L 160.0 189.0 L 160.0 200.0 L 160.0 204.0 " stroke="black" fill="none" stroke-width="5.0" stroke-linecap="round" stroke-linejoin="round" />
<path d="M 172.0 146.0 L 173.0 146.0 L 174.0 147.0 L 175.0 150.0 L 178.0 153.0 L 180.0 155.0 " stroke="black" fill="none" stroke-width="5.0" stroke-linecap="round" stroke-linejoin="round" />
<path d="M 167.0 162.0 L 167.0 162.0 L 167.0 162.0 L 168.0 162.0 L 172.0 162.0 L 178.0 160.0 L 183.0 159.0 L 187.0 158.0 " stroke="black" fill="none" stroke-width="5.0" stroke-linecap="round" stroke-linejoin="round" />
<path d="M 171.0 175.0 L 172.0 175.0 L 173.0 175.0 L 176.0 174.0 L 178.0 174.0 L 181.0 173.0 L 184.0 172.0 L 185.0 172.0 L 185.0 172.0 " stroke="black" fill="none" stroke-width="5.0" stroke-linecap="round" stroke-linejoin="round" />
<path d="M 169.0 190.0 L 171.0 190.0 L 173.0 189.0 L 177.0 189.0 L 181.0 187.0 L 186.0 186.0 L 189.0 186.0 L 189.0 186.0 " stroke="black" fill="none" stroke-width="5.0" stroke-linecap="round" stroke-linejoin="round" />
<path d="M 163.0 212.0 L 166.0 213.0 L 171.0 213.0 L 180.0 212.0 L 189.0 210.0 L 195.0 208.0 L 196.0 208.0 " stroke="black" fill="none" stroke-width="5.0" stroke-linecap="round" stroke-linejoin="round" />
<path d="M 177.0 162.0 L 177.0 162.0 L 177.0 165.0 L 177.0 171.0 L 179.0 184.0 L 180.0 198.0 L 181.0 205.0 " stroke="black" fill="none" stroke-width="5.0" stroke-linecap="round" stroke-linejoin="round" />
</svg>