<svg xmlns="http://www.w3.org/2000/svg" width="300" height="300" viewBox="0 0 300 300">
<path d="M 114.0 117.0 L 114.0 117.0 L 114.0 117.0 L 114.0 117.0 L 119.0 117.0 L 130.0 116.0 L 139.0 115.0 L 141.0 115.0 " stroke="black" fill="none" stroke-width="5.0" stroke-linecap="round" stroke-linejoin="round" />
<path d="M 130.0 116.0 L 130.0 116.0 L 129.0 117.0 L 128.0 118.0 L 128.0 120.0 L 129.0 128.0 L 132.0 140.0 L 134.0 156.0 L 135.0 173.0 L 135.0 186.0 L 135.0 191.0 L 135.0 191.0 " stroke="black" fill="none" stroke-width="5.0" stroke-linecap="round" stroke-linejoin="round" />
<path d="M 118.0 122.0 L 118.0 122.0 L 118.0 122.0 L 118.0 122.0 L 119.0 122.0 L 119.0 128.0 L 119.0 141.0 L 119.0 152.0 L 119.0 156.0 " stroke="black" fill="none" stroke-width="5.0" stroke-linecap="round" stroke-linejoin="round" />
<path d="M 118.0 139.0 L 118.0 138.0 L 119.0 138.0 L 119.0 137.0 L 120.0 137.0 L 123.0 137.0 L 127.0 137.0 L 130.0 137.0 " stroke="black" fill="none" stroke-width="5.0" stroke-linecap="round" stroke-linejoin="round" />
<path d="M 121.0 145.0 L 121.0 145.0 L 122.0 146.0 L 122.0 146.0 L 124.0 147.0 L 129.0 147.0 L 130.0 147.0 " stroke="black" fill="none" stroke-width="5.0" stroke-linecap="round" stroke-linejoin="round" />
<path d="M 106.0 162.0 L 106.0 162.0 L 106.0 163.0 L 107.0 164.0 L 115.0 164.0 L 129.0 164.0 " stroke="black" fill="none" stroke-width="5.0" stroke-linecap="round" stroke-linejoin="round" />
<path d="M 157.0 110.0 L 157.0 110.0 L 157.0 111.0 L 158.0 112.0 L 159.0 114.0 L 160.0 117.0 L 161.0 119.0 L 162.0 119.0 " stroke="black" fill="none" stroke-width="5.0" stroke-linecap="round" stroke-linejoin="round" />
<path d="M 147.0 124.0 L 147.0 124.0 L 147.0 124.0 L 147.0 124.0 L 147.0 124.0 L 151.0 124.0 L 158.0 124.0 L 164.0 124.0 L 166.0 125.0 " stroke="black" fill="none" stroke-width="5.0" stroke-linecap="round" stroke-linejoin="round" />
<path d="M 152.0 127.0 L 152.0 127.0 L 152.0 127.0 L 152.0 127.0 L 152.0 129.0 L 152.0 132.0 L 152.0 134.0 " stroke="black" fill="none" stroke-width="5.0" stroke-linecap="round" stroke-linejoin="round" />
<path d="M 164.0 126.0 L 164.0 126.0 L 164.0 128.0 L 164.0 129.0 L 163.0 131.0 L 163.0 134.0 L 163.0 136.0 " stroke="black" fill="none" stroke-width="5.0" stroke-linecap="round" stroke-linejoin="round" />
<path d="M 145.0 143.0 L 145.0 143.0 L 145.0 143.0 L 145.0 143.0 L 150.0 143.0 L 162.0 142.0 L 178.0 141.0 L 188.0 141.0 L 191.0 142.0 " stroke="black" fill="none" stroke-width="5.0" stroke-linecap="round" stroke-linejoin="round" />
<path d="M 173.0 114.0 L 173.0 114.0 L 172.0 115.0 L 172.0 117.0 L 173.0 126.0 L 179.0 145.0 L 187.0 166.0 L 192.0 180.0 L 195.0 188.0 L 196.0 189.0 " stroke="black" fill="none" stroke-width="5.0" stroke-linecap="round" stroke-linejoin="round" />
<path d="M 198.0 154.0 L 198.0 154.0 L 196.0 154.0 L 193.0 156.0 L 190.0 159.0 L 184.0 165.0 L 179.0 169.0 " stroke="black" fill="none" stroke-width="5.0" stroke-linecap="round" stroke-linejoin="round" />
<path d="M 188.0 116.0 L 188.0 116.0 L 188.0 116.0 L 188.0 117.0 L 189.0 122.0 L 190.0 124.0 " stroke="black" fill="none" stroke-width="5.0" stroke-linecap="round" stroke-linejoin="round" />
<path d="M 151.0 150.0 L 151.0 150.0 L 151.0 150.0 L 151.0 150.0 L 152.0 150.0 L 155.0 150.0 L 160.0 150.0 L 163.0 150.0 L 166.0 150.0 L 167.0 152.0 L 169.0 157.0 L 171.0 165.0 L 174.0 173.0 L 175.0 180.0 L 175.0 182.0 " stroke="black" fill="none" stroke-width="5.0" stroke-linecap="round" stroke-linejoin="round" />
<path d="M 153.0 154.0 L 153.0 154.0 L 153.0 153.0 L 153.0 153.0 L 152.0 157.0 L 152.0 165.0 L 152.0 174.0 L 152.0 176.0 " stroke="black" fill="none" stroke-width="5.0" stroke-linecap="round" stroke-linejoin="round" />
<path d="M 153.0 166.0 L 153.0 166.0 L 153.0 165.0 L 153.0 165.0 L 156.0 165.0 L 161.0 165.0 L 166.0 165.0 L 169.0 166.0 L 170.0 167.0 " stroke="black" fill="none" stroke-width="5.0" stroke-linecap="round" stroke-linejoin="round" />
<path d="M 152.0 181.0 L 152.0 181.0 L 152.0 182.0 L 152.0 183.0 L 155.0 185.0 L 165.0 186.0 L 176.0 186.0 " stroke="black" fill="none" stroke-width="5.0" stroke-linecap="round" stroke-linejoin="round" />
</svg>