<svg xmlns="http://www.w3.org/2000/svg" width="300" height="300" viewBox="0 0 300 300">
<path d="M 117.0 111.0 L 117.0 111.0 L 117.0 111.0 L 117.0 111.0 L 118.0 111.0 L 121.0 111.0 L 128.0 111.0 L 136.0 110.0 L 139.0 110.0 " stroke="black" fill="none" stroke-width="5.0" stroke-linecap="round" stroke-linejoin="round" />
<path d="M 117.0 113.0 L 117.0 113.0 L 117.0 113.0 L 117.0 113.0 L 117.0 114.0 L 117.0 122.0 L 117.0 135.0 L 118.0 146.0 L 118.0 148.0 " stroke="black" fill="none" stroke-width="5.0" stroke-linecap="round" stroke-linejoin="round" />
<path d="M 121.0 124.0 L 121.0 124.0 L 121.0 125.0 L 121.0 125.0 L 125.0 125.0 L 131.0 123.0 L 138.0 122.0 L 141.0 122.0 " stroke="black" fill="none" stroke-width="5.0" stroke-linecap="round" stroke-linejoin="round" />
<path d="M 119.0 139.0 L 121.0 139.0 L 123.0 138.0 L 127.0 138.0 L 135.0 138.0 L 143.0 137.0 " stroke="black" fill="none" stroke-width="5.0" stroke-linecap="round" stroke-linejoin="round" />
<path d="M 104.0 156.0 L 104.0 156.0 L 104.0 156.0 L 104.0 156.0 L 106.0 156.0 L 116.0 154.0 L 132.0 151.0 L 146.0 149.0 L 149.0 149.0 " stroke="black" fill="none" stroke-width="5.0" stroke-linecap="round" stroke-linejoin="round" />
<path d="M 123.0 160.0 L 123.0 160.0 L 124.0 160.0 L 124.0 160.0 L 124.0 162.0 L 121.0 165.0 L 117.0 171.0 L 113.0 178.0 L 112.0 184.0 L 115.0 186.0 L 124.0 185.0 L 135.0 181.0 L 139.0 180.0 " stroke="black" fill="none" stroke-width="5.0" stroke-linecap="round" stroke-linejoin="round" />
<path d="M 141.0 167.0 L 141.0 167.0 L 141.0 167.0 L 143.0 171.0 L 146.0 178.0 L 148.0 185.0 " stroke="black" fill="none" stroke-width="5.0" stroke-linecap="round" stroke-linejoin="round" />
<path d="M 161.0 111.0 L 162.0 111.0 L 163.0 110.0 L 164.0 110.0 L 166.0 109.0 L 170.0 107.0 L 174.0 106.0 L 177.0 106.0 L 180.0 106.0 L 182.0 106.0 L 184.0 110.0 L 186.0 117.0 L 187.0 124.0 L 188.0 129.0 " stroke="black" fill="none" stroke-width="5.0" stroke-linecap="round" stroke-linejoin="round" />
<path d="M 154.0 122.0 L 154.0 122.0 L 153.0 123.0 L 154.0 123.0 L 162.0 122.0 L 174.0 120.0 L 186.0 118.0 L 193.0 118.0 L 194.0 118.0 " stroke="black" fill="none" stroke-width="5.0" stroke-linecap="round" stroke-linejoin="round" />
<path d="M 160.0 137.0 L 160.0 137.0 L 161.0 137.0 L 162.0 137.0 L 168.0 136.0 L 177.0 135.0 L 184.0 133.0 L 188.0 133.0 L 188.0 133.0 " stroke="black" fill="none" stroke-width="5.0" stroke-linecap="round" stroke-linejoin="round" />
<path d="M 162.0 153.0 L 162.0 153.0 L 163.0 153.0 L 165.0 154.0 L 172.0 153.0 L 182.0 152.0 L 189.0 152.0 " stroke="black" fill="none" stroke-width="5.0" stroke-linecap="round" stroke-linejoin="round" />
<path d="M 154.0 172.0 L 154.0 172.0 L 154.0 173.0 L 157.0 173.0 L 169.0 173.0 L 186.0 171.0 L 197.0 169.0 L 199.0 169.0 " stroke="black" fill="none" stroke-width="5.0" stroke-linecap="round" stroke-linejoin="round" />
<path d="M 172.0 95.0 L 171.0 95.0 L 171.0 95.0 L 171.0 101.0 L 175.0 124.0 L 182.0 159.0 L 186.0 189.0 L 187.0 207.0 L 188.0 213.0 " stroke="black" fill="none" stroke-width="5.0" stroke-linecap="round" stroke-linejoin="round" />
</svg>