<svg xmlns="http://www.w3.org/2000/svg" width="300" height="300" viewBox="0 0 300 300">
<path d="M 113.0 115.0 L 113.0 115.0 L 114.0 115.0 L 115.0 115.0 L 121.0 115.0 L 131.0 115.0 L 142.0 115.0 L 147.0 114.0 " stroke="black" fill="none" stroke-width="5.0" stroke-linecap="round" stroke-linejoin="round" />
<path d="M 131.0 120.0 L 131.0 120.0 L 131.0 120.0 L 131.0 120.0 L 131.0 120.0 L 131.0 122.0 L 132.0 132.0 L 132.0 153.0 L 133.0 177.0 L 134.0 192.0 L 134.0 198.0 L 134.0 198.0 " stroke="black" fill="none" stroke-width="5.0" stroke-linecap="round" stroke-linejoin="round" />
<path d="M 118.0 126.0 L 118.0 126.0 L 118.0 126.0 L 118.0 125.0 L 118.0 125.0 L 118.0 125.0 L 118.0 131.0 L 117.0 144.0 L 116.0 156.0 L 116.0 157.0 " stroke="black" fill="none" stroke-width="5.0" stroke-linecap="round" stroke-linejoin="round" />
<path d="M 118.0 136.0 L 118.0 136.0 L 119.0 136.0 L 119.0 137.0 L 121.0 137.0 L 123.0 137.0 L 128.0 137.0 L 133.0 137.0 " stroke="black" fill="none" stroke-width="5.0" stroke-linecap="round" stroke-linejoin="round" />
<path d="M 117.0 150.0 L 119.0 150.0 L 122.0 149.0 L 126.0 147.0 L 131.0 146.0 L 134.0 146.0 " stroke="black" fill="none" stroke-width="5.0" stroke-linecap="round" stroke-linejoin="round" />
<path d="M 103.0 161.0 L 103.0 161.0 L 105.0 161.0 L 109.0 161.0 L 119.0 161.0 L 132.0 161.0 L 137.0 161.0 " stroke="black" fill="none" stroke-width="5.0" stroke-linecap="round" stroke-linejoin="round" />
<path d="M 108.0 173.0 L 108.0 173.0 L 108.0 173.0 L 108.0 173.0 L 108.0 173.0 L 109.0 173.0 L 113.0 173.0 L 118.0 173.0 L 121.0 173.0 " stroke="black" fill="none" stroke-width="5.0" stroke-linecap="round" stroke-linejoin="round" />
<path d="M 108.0 183.0 L 108.0 183.0 L 109.0 183.0 L 111.0 183.0 L 115.0 182.0 L 120.0 182.0 L 123.0 181.0 L 124.0 181.0 " stroke="black" fill="none" stroke-width="5.0" stroke-linecap="round" stroke-linejoin="round" />
<path d="M 101.0 194.0 L 101.0 194.0 L 101.0 195.0 L 101.0 195.0 L 106.0 195.0 L 115.0 194.0 L 125.0 194.0 L 127.0 194.0 " stroke="black" fill="none" stroke-width="5.0" stroke-linecap="round" stroke-linejoin="round" />
<path d="M 113.0 181.0 L 113.0 181.0 L 113.0 181.0 L 113.0 181.0 L 114.0 182.0 L 114.0 187.0 " stroke="black" fill="none" stroke-width="5.0" stroke-linecap="round" stroke-linejoin="round" />
<path d="M 154.0 127.0 L 154.0 128.0 L 153.0 128.0 L 152.0 129.0 L 152.0 129.0 L 155.0 129.0 L 161.0 129.0 L 169.0 128.0 L 173.0 128.0 " stroke="black" fill="none" stroke-width="5.0" stroke-linecap="round" stroke-linejoin="round" />
<path d="M 165.0 121.0 L 165.0 121.0 L 165.0 121.0 L 165.0 121.0 L 165.0 124.0 L 163.0 131.0 L 162.0 138.0 " stroke="black" fill="none" stroke-width="5.0" stroke-linecap="round" stroke-linejoin="round" />
<path d="M 146.0 144.0 L 146.0 144.0 L 145.0 144.0 L 144.0 145.0 L 144.0 147.0 L 145.0 150.0 " stroke="black" fill="none" stroke-width="5.0" stroke-linecap="round" stroke-linejoin="round" />
<path d="M 147.0 143.0 L 147.0 142.0 L 148.0 142.0 L 150.0 141.0 L 156.0 140.0 L 165.0 140.0 L 173.0 142.0 L 180.0 144.0 L 185.0 147.0 L 188.0 149.0 L 188.0 151.0 " stroke="black" fill="none" stroke-width="5.0" stroke-linecap="round" stroke-linejoin="round" />
<path d="M 148.0 155.0 L 148.0 155.0 L 148.0 156.0 L 151.0 156.0 L 159.0 156.0 L 170.0 156.0 L 177.0 156.0 " stroke="black" fill="none" stroke-width="5.0" stroke-linecap="round" stroke-linejoin="round" />
<path d="M 156.0 145.0 L 156.0 144.0 L 156.0 144.0 L 156.0 147.0 L 156.0 153.0 L 157.0 155.0 " stroke="black" fill="none" stroke-width="5.0" stroke-linecap="round" stroke-linejoin="round" />
<path d="M 168.0 146.0 L 169.0 146.0 L 169.0 146.0 L 169.0 148.0 L 169.0 152.0 L 169.0 156.0 " stroke="black" fill="none" stroke-width="5.0" stroke-linecap="round" stroke-linejoin="round" />
<path d="M 150.0 170.0 L 150.0 170.0 L 150.0 170.0 L 151.0 171.0 L 156.0 171.0 L 164.0 170.0 L 172.0 169.0 " stroke="black" fill="none" stroke-width="5.0" stroke-linecap="round" stroke-linejoin="round" />
<path d="M 151.0 180.0 L 151.0 180.0 L 151.0 180.0 L 151.0 180.0 L 150.0 182.0 L 148.0 186.0 L 145.0 191.0 L 143.0 195.0 " stroke="black" fill="none" stroke-width="5.0" stroke-linecap="round" stroke-linejoin="round" />
<path d="M 160.0 185.0 L 160.0 185.0 L 160.0 185.0 L 160.0 185.0 L 160.0 185.0 L 160.0 187.0 L 159.0 191.0 L 159.0 195.0 L 160.0 199.0 L 164.0 201.0 L 171.0 203.0 L 180.0 204.0 L 189.0 204.0 L 194.0 203.0 L 196.0 200.0 L 196.0 198.0 L 195.0 195.0 L 194.0 193.0 " stroke="black" fill="none" stroke-width="5.0" stroke-linecap="round" stroke-linejoin="round" />
<path d="M 174.0 179.0 L 174.0 179.0 L 175.0 180.0 L 176.0 182.0 L 177.0 187.0 " stroke="black" fill="none" stroke-width="5.0" stroke-linecap="round" stroke-linejoin="round" />
<path d="M 200.0 182.0 L 200.0 186.0 L 201.0 192.0 L 202.0 196.0 " stroke="black" fill="none" stroke-width="5.0" stroke-linecap="round" stroke-linejoin="round" />
</svg>