<svg xmlns="http://www.w3.org/2000/svg" width="300" height="300" viewBox="0 0 300 300">
<path d="M 131.0 106.0 L 131.0 105.0 L 131.0 105.0 L 131.0 105.0 L 131.0 109.0 L 132.0 119.0 L 133.0 130.0 L 134.0 135.0 " stroke="black" fill="none" stroke-width="5.0" stroke-linecap="round" stroke-linejoin="round" />
<path d="M 118.0 120.0 L 118.0 120.0 L 119.0 121.0 L 121.0 121.0 L 128.0 121.0 L 135.0 120.0 " stroke="black" fill="none" stroke-width="5.0" stroke-linecap="round" stroke-linejoin="round" />
<path d="M 108.0 142.0 L 108.0 142.0 L 108.0 142.0 L 110.0 142.0 L 119.0 141.0 L 134.0 139.0 " stroke="black" fill="none" stroke-width="5.0" stroke-linecap="round" stroke-linejoin="round" />
<path d="M 158.0 104.0 L 158.0 104.0 L 157.0 103.0 L 157.0 103.0 L 157.0 106.0 L 156.0 113.0 L 156.0 126.0 L 157.0 137.0 L 163.0 143.0 L 172.0 143.0 L 178.0 140.0 " stroke="black" fill="none" stroke-width="5.0" stroke-linecap="round" stroke-linejoin="round" />
<path d="M 155.0 122.0 L 155.0 122.0 L 155.0 123.0 L 156.0 123.0 L 161.0 123.0 L 171.0 122.0 L 178.0 122.0 " stroke="black" fill="none" stroke-width="5.0" stroke-linecap="round" stroke-linejoin="round" />
<path d="M 136.0 165.0 L 136.0 165.0 L 135.0 165.0 L 134.0 165.0 L 134.0 166.0 L 134.0 172.0 L 134.0 185.0 L 133.0 200.0 L 133.0 207.0 " stroke="black" fill="none" stroke-width="5.0" stroke-linecap="round" stroke-linejoin="round" />
<path d="M 136.0 161.0 L 136.0 161.0 L 136.0 161.0 L 136.0 161.0 L 138.0 160.0 L 143.0 160.0 L 149.0 159.0 L 155.0 159.0 L 160.0 159.0 L 163.0 161.0 L 167.0 165.0 L 170.0 172.0 L 174.0 182.0 L 177.0 194.0 L 178.0 203.0 L 178.0 208.0 L 176.0 211.0 L 172.0 212.0 L 167.0 211.0 " stroke="black" fill="none" stroke-width="5.0" stroke-linecap="round" stroke-linejoin="round" />
<path d="M 139.0 175.0 L 139.0 175.0 L 139.0 174.0 L 139.0 174.0 L 145.0 174.0 L 154.0 174.0 L 163.0 174.0 L 168.0 175.0 " stroke="black" fill="none" stroke-width="5.0" stroke-linecap="round" stroke-linejoin="round" />
<path d="M 137.0 193.0 L 138.0 193.0 L 141.0 193.0 L 147.0 193.0 L 159.0 194.0 L 171.0 196.0 " stroke="black" fill="none" stroke-width="5.0" stroke-linecap="round" stroke-linejoin="round" />
</svg>