<svg xmlns="http://www.w3.org/2000/svg" width="300" height="300" viewBox="0 0 300 300">
<path d="M 117.0 112.0 L 117.0 112.0 L 117.0 112.0 L 117.0 113.0 L 120.0 113.0 L 126.0 113.0 L 134.0 111.0 L 142.0 110.0 L 146.0 110.0 L 147.0 110.0 L 147.0 110.0 " stroke="black" fill="none" stroke-width="5.0" stroke-linecap="round" stroke-linejoin="round" />
<path d="M 135.0 113.0 L 135.0 113.0 L 135.0 113.0 L 135.0 113.0 L 135.0 114.0 L 137.0 120.0 L 139.0 133.0 L 142.0 151.0 L 144.0 170.0 L 145.0 185.0 L 146.0 193.0 L 146.0 196.0 L 146.0 195.0 " stroke="black" fill="none" stroke-width="5.0" stroke-linecap="round" stroke-linejoin="round" />
<path d="M 123.0 116.0 L 123.0 116.0 L 123.0 116.0 L 122.0 117.0 L 122.0 120.0 L 123.0 131.0 L 123.0 143.0 L 123.0 151.0 L 123.0 154.0 L 123.0 154.0 " stroke="black" fill="none" stroke-width="5.0" stroke-linecap="round" stroke-linejoin="round" />
<path d="M 124.0 133.0 L 126.0 133.0 L 127.0 133.0 L 129.0 133.0 L 131.0 133.0 L 134.0 133.0 L 138.0 134.0 L 140.0 134.0 L 140.0 134.0 " stroke="black" fill="none" stroke-width="5.0" stroke-linecap="round" stroke-linejoin="round" />
<path d="M 124.0 145.0 L 124.0 146.0 L 124.0 147.0 L 125.0 147.0 L 127.0 148.0 L 132.0 148.0 L 136.0 148.0 " stroke="black" fill="none" stroke-width="5.0" stroke-linecap="round" stroke-linejoin="round" />
<path d="M 109.0 164.0 L 109.0 164.0 L 110.0 165.0 L 112.0 165.0 L 119.0 165.0 L 129.0 164.0 L 134.0 163.0 " stroke="black" fill="none" stroke-width="5.0" stroke-linecap="round" stroke-linejoin="round" />
<path d="M 163.0 112.0 L 164.0 112.0 L 164.0 112.0 L 165.0 112.0 L 165.0 112.0 L 164.0 113.0 L 162.0 116.0 L 158.0 120.0 L 156.0 124.0 L 155.0 126.0 L 156.0 128.0 L 159.0 129.0 L 161.0 129.0 " stroke="black" fill="none" stroke-width="5.0" stroke-linecap="round" stroke-linejoin="round" />
<path d="M 170.0 119.0 L 170.0 119.0 L 170.0 120.0 L 169.0 120.0 L 167.0 122.0 L 165.0 125.0 L 161.0 129.0 L 157.0 134.0 L 154.0 138.0 L 154.0 141.0 L 156.0 142.0 L 162.0 141.0 L 168.0 140.0 L 169.0 140.0 " stroke="black" fill="none" stroke-width="5.0" stroke-linecap="round" stroke-linejoin="round" />
<path d="M 174.0 130.0 L 174.0 130.0 L 174.0 132.0 L 174.0 135.0 L 175.0 139.0 L 176.0 144.0 L 177.0 145.0 " stroke="black" fill="none" stroke-width="5.0" stroke-linecap="round" stroke-linejoin="round" />
<path d="M 193.0 115.0 L 193.0 115.0 L 193.0 116.0 L 192.0 116.0 L 191.0 118.0 L 189.0 120.0 L 187.0 122.0 L 186.0 124.0 L 186.0 125.0 L 186.0 126.0 L 188.0 127.0 " stroke="black" fill="none" stroke-width="5.0" stroke-linecap="round" stroke-linejoin="round" />
<path d="M 200.0 121.0 L 200.0 121.0 L 198.0 122.0 L 196.0 123.0 L 194.0 125.0 L 192.0 128.0 L 189.0 132.0 L 186.0 136.0 L 185.0 138.0 L 185.0 139.0 L 187.0 140.0 L 191.0 140.0 L 196.0 139.0 L 199.0 137.0 L 202.0 136.0 L 203.0 135.0 L 203.0 135.0 L 204.0 135.0 L 205.0 136.0 L 206.0 139.0 L 207.0 143.0 " stroke="black" fill="none" stroke-width="5.0" stroke-linecap="round" stroke-linejoin="round" />
<path d="M 156.0 152.0 L 156.0 152.0 L 156.0 153.0 L 156.0 155.0 L 156.0 156.0 L 156.0 157.0 L 156.0 159.0 L 156.0 160.0 L 157.0 160.0 L 160.0 160.0 L 163.0 160.0 " stroke="black" fill="none" stroke-width="5.0" stroke-linecap="round" stroke-linejoin="round" />
<path d="M 167.0 151.0 L 167.0 151.0 L 167.0 151.0 L 167.0 151.0 L 168.0 152.0 L 168.0 155.0 L 169.0 165.0 L 170.0 177.0 L 171.0 186.0 L 171.0 189.0 " stroke="black" fill="none" stroke-width="5.0" stroke-linecap="round" stroke-linejoin="round" />
<path d="M 187.0 153.0 L 187.0 153.0 L 186.0 153.0 L 186.0 153.0 L 186.0 153.0 L 186.0 157.0 L 188.0 165.0 L 188.0 174.0 L 189.0 181.0 L 189.0 185.0 L 189.0 186.0 " stroke="black" fill="none" stroke-width="5.0" stroke-linecap="round" stroke-linejoin="round" />
<path d="M 191.0 160.0 L 191.0 160.0 L 192.0 161.0 L 194.0 161.0 L 196.0 162.0 L 199.0 163.0 L 201.0 163.0 L 203.0 163.0 L 204.0 163.0 L 205.0 161.0 L 205.0 158.0 L 205.0 156.0 L 205.0 152.0 " stroke="black" fill="none" stroke-width="5.0" stroke-linecap="round" stroke-linejoin="round" />
</svg>