<svg xmlns="http://www.w3.org/2000/svg" width="300" height="300" viewBox="0 0 300 300">
<path d="M 114.0 114.0 L 115.0 114.0 L 116.0 114.0 L 121.0 114.0 L 131.0 112.0 L 142.0 111.0 L 146.0 111.0 " stroke="black" fill="none" stroke-width="5.0" stroke-linecap="round" stroke-linejoin="round" />
<path d="M 137.0 114.0 L 137.0 113.0 L 137.0 113.0 L 137.0 113.0 L 137.0 114.0 L 139.0 122.0 L 141.0 137.0 L 144.0 150.0 L 145.0 154.0 " stroke="black" fill="none" stroke-width="5.0" stroke-linecap="round" stroke-linejoin="round" />
<path d="M 123.0 120.0 L 123.0 120.0 L 123.0 120.0 L 123.0 120.0 L 122.0 120.0 L 122.0 123.0 L 122.0 129.0 L 122.0 136.0 " stroke="black" fill="none" stroke-width="5.0" stroke-linecap="round" stroke-linejoin="round" />
<path d="M 122.0 126.0 L 122.0 126.0 L 122.0 126.0 L 122.0 126.0 L 125.0 126.0 L 129.0 126.0 L 134.0 125.0 L 136.0 125.0 " stroke="black" fill="none" stroke-width="5.0" stroke-linecap="round" stroke-linejoin="round" />
<path d="M 120.0 137.0 L 120.0 137.0 L 122.0 137.0 L 125.0 137.0 L 131.0 137.0 L 136.0 136.0 " stroke="black" fill="none" stroke-width="5.0" stroke-linecap="round" stroke-linejoin="round" />
<path d="M 108.0 152.0 L 111.0 152.0 L 117.0 150.0 L 129.0 147.0 L 140.0 143.0 L 143.0 142.0 " stroke="black" fill="none" stroke-width="5.0" stroke-linecap="round" stroke-linejoin="round" />
<path d="M 151.0 125.0 L 151.0 125.0 L 151.0 126.0 L 150.0 128.0 L 150.0 133.0 L 151.0 139.0 " stroke="black" fill="none" stroke-width="5.0" stroke-linecap="round" stroke-linejoin="round" />
<path d="M 151.0 125.0 L 151.0 125.0 L 151.0 125.0 L 152.0 124.0 L 155.0 122.0 L 160.0 122.0 L 164.0 123.0 L 168.0 128.0 L 170.0 136.0 L 171.0 138.0 " stroke="black" fill="none" stroke-width="5.0" stroke-linecap="round" stroke-linejoin="round" />
<path d="M 152.0 142.0 L 152.0 142.0 L 152.0 141.0 L 152.0 141.0 L 155.0 141.0 L 161.0 141.0 L 168.0 141.0 " stroke="black" fill="none" stroke-width="5.0" stroke-linecap="round" stroke-linejoin="round" />
<path d="M 132.0 165.0 L 132.0 165.0 L 132.0 165.0 L 136.0 165.0 L 146.0 165.0 L 160.0 164.0 L 170.0 162.0 " stroke="black" fill="none" stroke-width="5.0" stroke-linecap="round" stroke-linejoin="round" />
<path d="M 138.0 181.0 L 139.0 181.0 L 141.0 181.0 L 146.0 181.0 L 153.0 181.0 L 160.0 181.0 " stroke="black" fill="none" stroke-width="5.0" stroke-linecap="round" stroke-linejoin="round" />
<path d="M 118.0 201.0 L 121.0 202.0 L 127.0 202.0 L 140.0 202.0 L 157.0 201.0 L 170.0 200.0 L 173.0 199.0 " stroke="black" fill="none" stroke-width="5.0" stroke-linecap="round" stroke-linejoin="round" />
<path d="M 148.0 169.0 L 148.0 170.0 L 149.0 171.0 L 150.0 176.0 L 153.0 187.0 L 154.0 194.0 " stroke="black" fill="none" stroke-width="5.0" stroke-linecap="round" stroke-linejoin="round" />
</svg>