<svg xmlns="http://www.w3.org/2000/svg" width="300" height="300" viewBox="0 0 300 300">
<path d="M 118.0 107.0 L 118.0 107.0 L 118.0 107.0 L 118.0 107.0 L 119.0 107.0 L 124.0 107.0 L 134.0 107.0 L 143.0 107.0 L 149.0 107.0 L 150.0 107.0 " stroke="black" fill="none" stroke-width="5.0" stroke-linecap="round" stroke-linejoin="round" />
<path d="M 140.0 107.0 L 140.0 107.0 L 139.0 107.0 L 139.0 109.0 L 139.0 114.0 L 140.0 123.0 L 142.0 135.0 L 143.0 144.0 L 143.0 149.0 L 143.0 150.0 " stroke="black" fill="none" stroke-width="5.0" stroke-linecap="round" stroke-linejoin="round" />
<path d="M 126.0 111.0 L 125.0 111.0 L 124.0 111.0 L 123.0 113.0 L 123.0 118.0 L 122.0 127.0 L 121.0 135.0 L 121.0 136.0 " stroke="black" fill="none" stroke-width="5.0" stroke-linecap="round" stroke-linejoin="round" />
<path d="M 125.0 121.0 L 126.0 121.0 L 127.0 121.0 L 128.0 121.0 L 131.0 121.0 L 134.0 121.0 L 137.0 121.0 L 139.0 122.0 " stroke="black" fill="none" stroke-width="5.0" stroke-linecap="round" stroke-linejoin="round" />
<path d="M 122.0 131.0 L 123.0 132.0 L 124.0 133.0 L 129.0 133.0 L 135.0 133.0 L 140.0 133.0 " stroke="black" fill="none" stroke-width="5.0" stroke-linecap="round" stroke-linejoin="round" />
<path d="M 111.0 143.0 L 111.0 143.0 L 113.0 143.0 L 116.0 144.0 L 123.0 144.0 L 135.0 144.0 L 140.0 143.0 " stroke="black" fill="none" stroke-width="5.0" stroke-linecap="round" stroke-linejoin="round" />
<path d="M 159.0 118.0 L 159.0 118.0 L 159.0 118.0 L 159.0 118.0 L 160.0 118.0 L 165.0 118.0 L 169.0 119.0 L 173.0 120.0 L 174.0 124.0 L 172.0 131.0 L 167.0 139.0 L 162.0 146.0 L 158.0 150.0 " stroke="black" fill="none" stroke-width="5.0" stroke-linecap="round" stroke-linejoin="round" />
<path d="M 157.0 127.0 L 158.0 128.0 L 160.0 130.0 L 165.0 133.0 L 173.0 139.0 L 180.0 145.0 L 182.0 148.0 " stroke="black" fill="none" stroke-width="5.0" stroke-linecap="round" stroke-linejoin="round" />
<path d="M 162.0 154.0 L 162.0 154.0 L 162.0 154.0 L 162.0 154.0 L 162.0 154.0 L 161.0 156.0 L 156.0 160.0 L 147.0 166.0 L 134.0 173.0 L 127.0 176.0 " stroke="black" fill="none" stroke-width="5.0" stroke-linecap="round" stroke-linejoin="round" />
<path d="M 148.0 168.0 L 148.0 168.0 L 148.0 170.0 L 148.0 172.0 L 148.0 178.0 L 149.0 190.0 L 150.0 202.0 L 150.0 210.0 " stroke="black" fill="none" stroke-width="5.0" stroke-linecap="round" stroke-linejoin="round" />
<path d="M 136.0 180.0 L 136.0 180.0 L 136.0 180.0 L 135.0 180.0 L 134.0 181.0 L 132.0 185.0 L 129.0 192.0 L 124.0 198.0 L 120.0 201.0 " stroke="black" fill="none" stroke-width="5.0" stroke-linecap="round" stroke-linejoin="round" />
<path d="M 130.0 192.0 L 130.0 192.0 L 130.0 192.0 L 130.0 192.0 L 132.0 194.0 L 137.0 197.0 L 143.0 201.0 " stroke="black" fill="none" stroke-width="5.0" stroke-linecap="round" stroke-linejoin="round" />
<path d="M 167.0 175.0 L 167.0 175.0 L 167.0 175.0 L 167.0 176.0 L 167.0 177.0 L 167.0 182.0 L 164.0 190.0 L 160.0 197.0 L 159.0 199.0 " stroke="black" fill="none" stroke-width="5.0" stroke-linecap="round" stroke-linejoin="round" />
<path d="M 165.0 191.0 L 165.0 191.0 L 166.0 192.0 L 170.0 194.0 L 178.0 197.0 L 185.0 202.0 L 190.0 205.0 " stroke="black" fill="none" stroke-width="5.0" stroke-linecap="round" stroke-linejoin="round" />
</svg>