<svg xmlns="http://www.w3.org/2000/svg" width="300" height="300" viewBox="0 0 300 300">
<path d="M 127.0 113.0 L 127.0 113.0 L 127.0 113.0 L 129.0 113.0 L 138.0 114.0 L 155.0 114.0 L 175.0 115.0 L 188.0 115.0 L 191.0 115.0 " stroke="black" fill="none" stroke-width="5.0" stroke-linecap="round" stroke-linejoin="round" />
<path d="M 172.0 117.0 L 172.0 118.0 L 171.0 121.0 L 171.0 132.0 L 173.0 153.0 L 176.0 175.0 L 177.0 189.0 L 178.0 196.0 " stroke="black" fill="none" stroke-width="5.0" stroke-linecap="round" stroke-linejoin="round" />
<path d="M 142.0 123.0 L 141.0 123.0 L 141.0 123.0 L 141.0 123.0 L 141.0 125.0 L 141.0 135.0 L 141.0 152.0 L 140.0 164.0 " stroke="black" fill="none" stroke-width="5.0" stroke-linecap="round" stroke-linejoin="round" />
<path d="M 146.0 135.0 L 146.0 135.0 L 147.0 135.0 L 150.0 135.0 L 157.0 135.0 L 165.0 135.0 L 170.0 135.0 " stroke="black" fill="none" stroke-width="5.0" stroke-linecap="round" stroke-linejoin="round" />
<path d="M 149.0 150.0 L 150.0 150.0 L 153.0 150.0 L 158.0 150.0 L 165.0 150.0 L 170.0 152.0 " stroke="black" fill="none" stroke-width="5.0" stroke-linecap="round" stroke-linejoin="round" />
<path d="M 108.0 171.0 L 109.0 172.0 L 112.0 174.0 L 130.0 174.0 L 157.0 173.0 L 182.0 171.0 L 194.0 172.0 " stroke="black" fill="none" stroke-width="5.0" stroke-linecap="round" stroke-linejoin="round" />
</svg>