<svg xmlns="http://www.w3.org/2000/svg" width="300" height="300" viewBox="0 0 300 300">
<path d="M 133.0 109.0 L 133.0 109.0 L 134.0 109.0 L 135.0 108.0 L 135.0 108.0 L 135.0 108.0 L 135.0 109.0 L 132.0 113.0 L 127.0 119.0 L 122.0 126.0 L 119.0 131.0 L 120.0 134.0 L 127.0 134.0 L 137.0 132.0 L 146.0 131.0 L 147.0 130.0 " stroke="black" fill="none" stroke-width="5.0" stroke-linecap="round" stroke-linejoin="round" />
<path d="M 145.0 123.0 L 145.0 123.0 L 145.0 125.0 L 145.0 128.0 L 147.0 133.0 L 149.0 138.0 " stroke="black" fill="none" stroke-width="5.0" stroke-linecap="round" stroke-linejoin="round" />
<path d="M 117.0 154.0 L 118.0 154.0 L 118.0 154.0 L 118.0 154.0 L 118.0 155.0 L 118.0 159.0 L 115.0 171.0 L 112.0 185.0 L 110.0 193.0 " stroke="black" fill="none" stroke-width="5.0" stroke-linecap="round" stroke-linejoin="round" />
<path d="M 119.0 152.0 L 119.0 152.0 L 119.0 152.0 L 120.0 152.0 L 121.0 152.0 L 125.0 151.0 L 131.0 150.0 L 137.0 150.0 L 141.0 150.0 L 144.0 152.0 L 146.0 158.0 L 148.0 168.0 L 149.0 179.0 L 150.0 188.0 L 150.0 193.0 L 149.0 195.0 L 145.0 195.0 L 138.0 194.0 L 131.0 193.0 " stroke="black" fill="none" stroke-width="5.0" stroke-linecap="round" stroke-linejoin="round" />
<path d="M 118.0 163.0 L 120.0 163.0 L 121.0 163.0 L 124.0 164.0 L 129.0 164.0 L 137.0 164.0 L 145.0 164.0 L 150.0 165.0 " stroke="black" fill="none" stroke-width="5.0" stroke-linecap="round" stroke-linejoin="round" />
<path d="M 117.0 176.0 L 118.0 176.0 L 120.0 176.0 L 126.0 177.0 L 139.0 177.0 L 149.0 176.0 " stroke="black" fill="none" stroke-width="5.0" stroke-linecap="round" stroke-linejoin="round" />
<path d="M 168.0 104.0 L 168.0 104.0 L 168.0 104.0 L 168.0 105.0 L 168.0 110.0 L 166.0 119.0 L 166.0 129.0 L 169.0 136.0 L 178.0 138.0 L 187.0 136.0 L 189.0 135.0 " stroke="black" fill="none" stroke-width="5.0" stroke-linecap="round" stroke-linejoin="round" />
<path d="M 168.0 116.0 L 168.0 116.0 L 168.0 116.0 L 169.0 117.0 L 176.0 118.0 L 187.0 118.0 " stroke="black" fill="none" stroke-width="5.0" stroke-linecap="round" stroke-linejoin="round" />
<path d="M 167.0 154.0 L 168.0 154.0 L 169.0 153.0 L 169.0 153.0 L 170.0 153.0 L 170.0 156.0 L 168.0 163.0 L 168.0 173.0 L 168.0 185.0 L 175.0 192.0 L 184.0 193.0 L 192.0 191.0 L 196.0 187.0 L 196.0 186.0 " stroke="black" fill="none" stroke-width="5.0" stroke-linecap="round" stroke-linejoin="round" />
<path d="M 168.0 169.0 L 168.0 169.0 L 169.0 169.0 L 172.0 168.0 L 181.0 167.0 L 190.0 165.0 " stroke="black" fill="none" stroke-width="5.0" stroke-linecap="round" stroke-linejoin="round" />
</svg>