<svg xmlns="http://www.w3.org/2000/svg" width="300" height="300" viewBox="0 0 300 300">
<path d="M 113.0 113.0 L 113.0 113.0 L 113.0 113.0 L 112.0 114.0 L 112.0 116.0 L 112.0 123.0 L 111.0 138.0 L 109.0 158.0 L 106.0 176.0 L 104.0 189.0 L 103.0 191.0 L 103.0 191.0 " stroke="black" fill="none" stroke-width="5.0" stroke-linecap="round" stroke-linejoin="round" />
<path d="M 114.0 115.0 L 114.0 115.0 L 114.0 115.0 L 114.0 115.0 L 114.0 115.0 L 115.0 115.0 L 116.0 114.0 L 118.0 114.0 L 120.0 114.0 L 122.0 114.0 L 125.0 116.0 L 127.0 121.0 L 130.0 132.0 L 132.0 147.0 L 133.0 164.0 L 133.0 177.0 L 133.0 187.0 L 133.0 191.0 L 132.0 192.0 L 128.0 192.0 L 121.0 192.0 L 115.0 189.0 " stroke="black" fill="none" stroke-width="5.0" stroke-linecap="round" stroke-linejoin="round" />
<path d="M 115.0 140.0 L 115.0 140.0 L 116.0 140.0 L 117.0 140.0 L 121.0 140.0 L 128.0 139.0 L 132.0 139.0 " stroke="black" fill="none" stroke-width="5.0" stroke-linecap="round" stroke-linejoin="round" />
<path d="M 110.0 158.0 L 112.0 160.0 L 117.0 160.0 L 126.0 158.0 L 133.0 156.0 " stroke="black" fill="none" stroke-width="5.0" stroke-linecap="round" stroke-linejoin="round" />
<path d="M 142.0 127.0 L 142.0 127.0 L 142.0 127.0 L 141.0 127.0 L 141.0 129.0 L 141.0 133.0 L 142.0 136.0 L 143.0 137.0 " stroke="black" fill="none" stroke-width="5.0" stroke-linecap="round" stroke-linejoin="round" />
<path d="M 142.0 126.0 L 142.0 126.0 L 144.0 125.0 L 147.0 124.0 L 155.0 123.0 L 165.0 121.0 L 175.0 120.0 L 184.0 120.0 L 191.0 120.0 L 195.0 121.0 L 197.0 123.0 L 197.0 127.0 L 196.0 131.0 L 194.0 136.0 L 193.0 138.0 " stroke="black" fill="none" stroke-width="5.0" stroke-linecap="round" stroke-linejoin="round" />
<path d="M 168.0 109.0 L 168.0 109.0 L 168.0 109.0 L 168.0 111.0 L 169.0 115.0 " stroke="black" fill="none" stroke-width="5.0" stroke-linecap="round" stroke-linejoin="round" />
<path d="M 157.0 136.0 L 157.0 136.0 L 157.0 137.0 L 157.0 138.0 L 157.0 141.0 L 155.0 145.0 L 151.0 150.0 L 148.0 154.0 " stroke="black" fill="none" stroke-width="5.0" stroke-linecap="round" stroke-linejoin="round" />
<path d="M 154.0 144.0 L 154.0 144.0 L 154.0 144.0 L 156.0 144.0 L 157.0 144.0 L 160.0 144.0 L 162.0 144.0 L 163.0 145.0 L 165.0 148.0 L 165.0 153.0 L 165.0 160.0 L 164.0 169.0 L 161.0 178.0 L 158.0 185.0 L 156.0 188.0 L 156.0 188.0 " stroke="black" fill="none" stroke-width="5.0" stroke-linecap="round" stroke-linejoin="round" />
<path d="M 153.0 155.0 L 153.0 155.0 L 153.0 155.0 L 153.0 155.0 L 153.0 155.0 L 155.0 156.0 L 158.0 157.0 L 161.0 158.0 L 161.0 158.0 " stroke="black" fill="none" stroke-width="5.0" stroke-linecap="round" stroke-linejoin="round" />
<path d="M 151.0 166.0 L 151.0 167.0 L 151.0 168.0 L 152.0 168.0 L 156.0 169.0 L 161.0 169.0 " stroke="black" fill="none" stroke-width="5.0" stroke-linecap="round" stroke-linejoin="round" />
<path d="M 175.0 140.0 L 175.0 140.0 L 175.0 140.0 L 176.0 140.0 L 178.0 140.0 L 181.0 140.0 L 185.0 140.0 L 188.0 140.0 L 190.0 145.0 L 191.0 152.0 L 191.0 159.0 L 190.0 163.0 L 189.0 165.0 L 186.0 165.0 L 182.0 163.0 L 179.0 161.0 " stroke="black" fill="none" stroke-width="5.0" stroke-linecap="round" stroke-linejoin="round" />
<path d="M 174.0 145.0 L 174.0 145.0 L 174.0 146.0 L 173.0 148.0 L 173.0 152.0 L 174.0 160.0 L 176.0 171.0 L 178.0 181.0 L 181.0 189.0 L 186.0 193.0 L 193.0 194.0 L 201.0 194.0 L 208.0 194.0 L 213.0 194.0 L 215.0 193.0 L 216.0 190.0 L 216.0 184.0 L 215.0 178.0 " stroke="black" fill="none" stroke-width="5.0" stroke-linecap="round" stroke-linejoin="round" />
</svg>