<svg xmlns="http://www.w3.org/2000/svg" width="300" height="300" viewBox="0 0 300 300">
<path d="M 120.0 114.0 L 120.0 114.0 L 120.0 114.0 L 120.0 114.0 L 119.0 114.0 L 119.0 117.0 L 117.0 130.0 L 112.0 155.0 L 107.0 180.0 L 105.0 191.0 L 105.0 191.0 " stroke="black" fill="none" stroke-width="5.0" stroke-linecap="round" stroke-linejoin="round" />
<path d="M 119.0 115.0 L 119.0 115.0 L 119.0 115.0 L 120.0 116.0 L 121.0 116.0 L 122.0 116.0 L 124.0 116.0 L 127.0 116.0 L 130.0 117.0 L 132.0 120.0 L 134.0 125.0 L 137.0 136.0 L 138.0 155.0 L 139.0 177.0 L 139.0 192.0 L 139.0 198.0 L 139.0 199.0 L 134.0 198.0 L 126.0 193.0 " stroke="black" fill="none" stroke-width="5.0" stroke-linecap="round" stroke-linejoin="round" />
<path d="M 117.0 143.0 L 117.0 143.0 L 117.0 143.0 L 117.0 143.0 L 121.0 143.0 L 129.0 143.0 L 133.0 143.0 " stroke="black" fill="none" stroke-width="5.0" stroke-linecap="round" stroke-linejoin="round" />
<path d="M 118.0 162.0 L 119.0 163.0 L 120.0 164.0 L 124.0 165.0 L 133.0 164.0 " stroke="black" fill="none" stroke-width="5.0" stroke-linecap="round" stroke-linejoin="round" />
<path d="M 157.0 114.0 L 157.0 114.0 L 157.0 114.0 L 156.0 115.0 L 156.0 118.0 L 156.0 125.0 L 156.0 132.0 " stroke="black" fill="none" stroke-width="5.0" stroke-linecap="round" stroke-linejoin="round" />
<path d="M 157.0 114.0 L 157.0 114.0 L 157.0 114.0 L 159.0 114.0 L 163.0 113.0 L 170.0 113.0 L 176.0 114.0 L 181.0 116.0 L 183.0 122.0 L 184.0 131.0 L 184.0 139.0 L 184.0 142.0 L 184.0 143.0 " stroke="black" fill="none" stroke-width="5.0" stroke-linecap="round" stroke-linejoin="round" />
<path d="M 157.0 127.0 L 158.0 127.0 L 158.0 127.0 L 159.0 127.0 L 161.0 127.0 L 165.0 127.0 L 172.0 127.0 L 179.0 128.0 L 181.0 129.0 " stroke="black" fill="none" stroke-width="5.0" stroke-linecap="round" stroke-linejoin="round" />
<path d="M 152.0 138.0 L 152.0 138.0 L 153.0 139.0 L 156.0 140.0 L 164.0 141.0 L 175.0 141.0 L 182.0 140.0 " stroke="black" fill="none" stroke-width="5.0" stroke-linecap="round" stroke-linejoin="round" />
<path d="M 144.0 154.0 L 144.0 154.0 L 144.0 153.0 L 143.0 153.0 L 143.0 152.0 L 147.0 152.0 L 158.0 153.0 L 174.0 154.0 L 190.0 154.0 L 197.0 152.0 " stroke="black" fill="none" stroke-width="5.0" stroke-linecap="round" stroke-linejoin="round" />
<path d="M 156.0 156.0 L 156.0 156.0 L 156.0 156.0 L 156.0 158.0 L 156.0 161.0 L 152.0 168.0 L 148.0 177.0 L 148.0 179.0 " stroke="black" fill="none" stroke-width="5.0" stroke-linecap="round" stroke-linejoin="round" />
<path d="M 156.0 167.0 L 156.0 167.0 L 156.0 167.0 L 159.0 167.0 L 164.0 166.0 L 172.0 166.0 L 180.0 166.0 L 185.0 167.0 L 189.0 169.0 L 192.0 171.0 L 193.0 175.0 L 194.0 185.0 L 194.0 196.0 L 194.0 204.0 L 194.0 207.0 L 193.0 208.0 L 187.0 207.0 L 179.0 204.0 " stroke="black" fill="none" stroke-width="5.0" stroke-linecap="round" stroke-linejoin="round" />
<path d="M 165.0 169.0 L 165.0 169.0 L 165.0 170.0 L 164.0 170.0 L 163.0 173.0 L 161.0 182.0 L 158.0 190.0 " stroke="black" fill="none" stroke-width="5.0" stroke-linecap="round" stroke-linejoin="round" />
<path d="M 180.0 168.0 L 180.0 169.0 L 179.0 171.0 L 178.0 174.0 L 177.0 180.0 L 171.0 193.0 L 160.0 209.0 " stroke="black" fill="none" stroke-width="5.0" stroke-linecap="round" stroke-linejoin="round" />
</svg>