<svg xmlns="http://www.w3.org/2000/svg" width="300" height="300" viewBox="0 0 300 300">
<path d="M 140.0 102.0 L 140.0 102.0 L 140.0 102.0 L 140.0 103.0 L 140.0 107.0 L 137.0 113.0 L 134.0 120.0 L 129.0 125.0 L 128.0 126.0 " stroke="black" fill="none" stroke-width="5.0" stroke-linecap="round" stroke-linejoin="round" />
<path d="M 127.0 128.0 L 127.0 128.0 L 127.0 128.0 L 127.0 128.0 L 127.0 130.0 L 128.0 136.0 L 129.0 149.0 L 131.0 167.0 L 132.0 182.0 L 133.0 191.0 L 133.0 192.0 " stroke="black" fill="none" stroke-width="5.0" stroke-linecap="round" stroke-linejoin="round" />
<path d="M 126.0 129.0 L 126.0 129.0 L 126.0 129.0 L 126.0 129.0 L 126.0 129.0 L 127.0 129.0 L 131.0 129.0 L 137.0 129.0 L 146.0 128.0 L 156.0 127.0 L 164.0 126.0 L 169.0 126.0 L 171.0 126.0 L 171.0 126.0 L 171.0 126.0 L 171.0 126.0 L 171.0 126.0 L 171.0 126.0 L 171.0 126.0 L 172.0 128.0 L 173.0 134.0 L 174.0 146.0 L 176.0 164.0 L 177.0 183.0 L 178.0 194.0 L 178.0 198.0 L 178.0 198.0 " stroke="black" fill="none" stroke-width="5.0" stroke-linecap="round" stroke-linejoin="round" />
<path d="M 135.0 160.0 L 135.0 160.0 L 135.0 160.0 L 135.0 160.0 L 136.0 160.0 L 142.0 159.0 L 154.0 158.0 L 168.0 157.0 L 173.0 157.0 " stroke="black" fill="none" stroke-width="5.0" stroke-linecap="round" stroke-linejoin="round" />
<path d="M 141.0 176.0 L 141.0 176.0 L 141.0 176.0 L 142.0 176.0 L 148.0 176.0 L 158.0 176.0 L 169.0 176.0 L 174.0 176.0 " stroke="black" fill="none" stroke-width="5.0" stroke-linecap="round" stroke-linejoin="round" />
<path d="M 131.0 201.0 L 132.0 201.0 L 135.0 201.0 L 143.0 201.0 L 157.0 201.0 L 172.0 200.0 L 176.0 200.0 " stroke="black" fill="none" stroke-width="5.0" stroke-linecap="round" stroke-linejoin="round" />
</svg>