<svg xmlns="http://www.w3.org/2000/svg" width="300" height="300" viewBox="0 0 300 300">
<path d="M 117.0 114.0 L 117.0 114.0 L 117.0 114.0 L 117.0 114.0 L 117.0 116.0 L 116.0 127.0 L 113.0 152.0 L 110.0 174.0 L 108.0 183.0 L 108.0 184.0 " stroke="black" fill="none" stroke-width="5.0" stroke-linecap="round" stroke-linejoin="round" />
<path d="M 118.0 110.0 L 118.0 110.0 L 118.0 110.0 L 118.0 110.0 L 119.0 109.0 L 121.0 109.0 L 124.0 109.0 L 128.0 110.0 L 131.0 113.0 L 134.0 120.0 L 137.0 136.0 L 141.0 157.0 L 143.0 174.0 L 144.0 184.0 L 143.0 188.0 L 139.0 189.0 L 134.0 188.0 L 130.0 186.0 " stroke="black" fill="none" stroke-width="5.0" stroke-linecap="round" stroke-linejoin="round" />
<path d="M 118.0 138.0 L 119.0 138.0 L 119.0 138.0 L 121.0 138.0 L 125.0 138.0 L 131.0 138.0 L 140.0 138.0 " stroke="black" fill="none" stroke-width="5.0" stroke-linecap="round" stroke-linejoin="round" />
<path d="M 119.0 157.0 L 120.0 157.0 L 123.0 157.0 L 132.0 157.0 L 135.0 156.0 " stroke="black" fill="none" stroke-width="5.0" stroke-linecap="round" stroke-linejoin="round" />
<path d="M 158.0 102.0 L 158.0 102.0 L 158.0 104.0 L 158.0 106.0 L 159.0 109.0 L 161.0 113.0 " stroke="black" fill="none" stroke-width="5.0" stroke-linecap="round" stroke-linejoin="round" />
<path d="M 173.0 101.0 L 173.0 101.0 L 173.0 101.0 L 173.0 101.0 L 173.0 105.0 L 171.0 114.0 L 170.0 119.0 " stroke="black" fill="none" stroke-width="5.0" stroke-linecap="round" stroke-linejoin="round" />
<path d="M 150.0 120.0 L 150.0 120.0 L 150.0 120.0 L 150.0 120.0 L 153.0 120.0 L 164.0 119.0 L 178.0 118.0 L 187.0 117.0 L 188.0 117.0 " stroke="black" fill="none" stroke-width="5.0" stroke-linecap="round" stroke-linejoin="round" />
<path d="M 153.0 131.0 L 153.0 131.0 L 154.0 132.0 L 158.0 132.0 L 165.0 131.0 L 174.0 129.0 L 178.0 129.0 " stroke="black" fill="none" stroke-width="5.0" stroke-linecap="round" stroke-linejoin="round" />
<path d="M 147.0 148.0 L 151.0 149.0 L 157.0 149.0 L 168.0 149.0 L 180.0 147.0 L 189.0 146.0 L 191.0 146.0 " stroke="black" fill="none" stroke-width="5.0" stroke-linecap="round" stroke-linejoin="round" />
<path d="M 164.0 118.0 L 165.0 119.0 L 165.0 124.0 L 167.0 134.0 L 169.0 145.0 " stroke="black" fill="none" stroke-width="5.0" stroke-linecap="round" stroke-linejoin="round" />
<path d="M 160.0 147.0 L 160.0 148.0 L 161.0 149.0 L 161.0 152.0 L 163.0 155.0 L 164.0 157.0 " stroke="black" fill="none" stroke-width="5.0" stroke-linecap="round" stroke-linejoin="round" />
<path d="M 182.0 148.0 L 182.0 148.0 L 180.0 149.0 L 179.0 152.0 L 178.0 155.0 L 177.0 157.0 " stroke="black" fill="none" stroke-width="5.0" stroke-linecap="round" stroke-linejoin="round" />
<path d="M 149.0 163.0 L 149.0 163.0 L 149.0 164.0 L 153.0 164.0 L 163.0 163.0 L 178.0 160.0 L 190.0 159.0 L 194.0 159.0 L 194.0 160.0 " stroke="black" fill="none" stroke-width="5.0" stroke-linecap="round" stroke-linejoin="round" />
<path d="M 159.0 178.0 L 159.0 178.0 L 159.0 178.0 L 159.0 181.0 L 159.0 186.0 L 160.0 190.0 L 160.0 191.0 " stroke="black" fill="none" stroke-width="5.0" stroke-linecap="round" stroke-linejoin="round" />
<path d="M 159.0 174.0 L 159.0 174.0 L 160.0 174.0 L 161.0 174.0 L 164.0 174.0 L 172.0 174.0 L 182.0 174.0 L 190.0 175.0 L 194.0 178.0 L 195.0 183.0 L 195.0 188.0 L 193.0 192.0 " stroke="black" fill="none" stroke-width="5.0" stroke-linecap="round" stroke-linejoin="round" />
<path d="M 162.0 193.0 L 162.0 193.0 L 163.0 193.0 L 165.0 193.0 L 174.0 193.0 L 187.0 191.0 L 192.0 190.0 " stroke="black" fill="none" stroke-width="5.0" stroke-linecap="round" stroke-linejoin="round" />
</svg>