<svg xmlns="http://www.w3.org/2000/svg" width="300" height="300" viewBox="0 0 300 300">
<path d="M 116.0 112.0 L 116.0 112.0 L 116.0 111.0 L 116.0 111.0 L 117.0 110.0 L 117.0 110.0 L 117.0 115.0 L 117.0 128.0 L 116.0 147.0 L 114.0 168.0 L 113.0 183.0 L 113.0 188.0 L 114.0 189.0 " stroke="black" fill="none" stroke-width="5.0" stroke-linecap="round" stroke-linejoin="round" />
<path d="M 122.0 114.0 L 122.0 114.0 L 122.0 114.0 L 122.0 114.0 L 124.0 114.0 L 127.0 114.0 L 131.0 115.0 L 133.0 116.0 L 135.0 117.0 L 137.0 121.0 L 139.0 129.0 L 141.0 144.0 L 143.0 162.0 L 143.0 177.0 L 144.0 185.0 L 145.0 188.0 L 144.0 188.0 L 141.0 188.0 L 134.0 187.0 L 125.0 185.0 " stroke="black" fill="none" stroke-width="5.0" stroke-linecap="round" stroke-linejoin="round" />
<path d="M 121.0 140.0 L 121.0 140.0 L 121.0 140.0 L 121.0 140.0 L 122.0 140.0 L 126.0 140.0 L 132.0 140.0 L 135.0 140.0 " stroke="black" fill="none" stroke-width="5.0" stroke-linecap="round" stroke-linejoin="round" />
<path d="M 117.0 161.0 L 117.0 161.0 L 117.0 162.0 L 119.0 162.0 L 124.0 162.0 L 134.0 162.0 " stroke="black" fill="none" stroke-width="5.0" stroke-linecap="round" stroke-linejoin="round" />
<path d="M 152.0 112.0 L 152.0 111.0 L 152.0 111.0 L 151.0 111.0 L 151.0 111.0 L 151.0 116.0 L 151.0 126.0 L 151.0 138.0 L 152.0 145.0 L 157.0 147.0 L 164.0 148.0 L 171.0 146.0 L 173.0 145.0 " stroke="black" fill="none" stroke-width="5.0" stroke-linecap="round" stroke-linejoin="round" />
<path d="M 155.0 125.0 L 155.0 125.0 L 154.0 125.0 L 154.0 125.0 L 154.0 125.0 L 158.0 125.0 L 166.0 125.0 L 174.0 126.0 L 178.0 127.0 " stroke="black" fill="none" stroke-width="5.0" stroke-linecap="round" stroke-linejoin="round" />
<path d="M 154.0 162.0 L 154.0 162.0 L 154.0 162.0 L 154.0 162.0 L 154.0 162.0 L 154.0 162.0 L 154.0 166.0 L 154.0 175.0 L 155.0 184.0 L 156.0 189.0 L 157.0 189.0 " stroke="black" fill="none" stroke-width="5.0" stroke-linecap="round" stroke-linejoin="round" />
<path d="M 156.0 161.0 L 156.0 161.0 L 156.0 161.0 L 156.0 161.0 L 157.0 161.0 L 159.0 161.0 L 163.0 161.0 L 168.0 160.0 L 172.0 160.0 L 176.0 160.0 L 178.0 160.0 L 180.0 161.0 L 182.0 164.0 L 183.0 171.0 L 185.0 179.0 L 186.0 186.0 L 187.0 190.0 L 187.0 191.0 L 187.0 191.0 " stroke="black" fill="none" stroke-width="5.0" stroke-linecap="round" stroke-linejoin="round" />
<path d="M 161.0 172.0 L 161.0 172.0 L 162.0 173.0 L 162.0 173.0 L 164.0 173.0 L 167.0 173.0 L 172.0 172.0 L 178.0 172.0 L 182.0 172.0 " stroke="black" fill="none" stroke-width="5.0" stroke-linecap="round" stroke-linejoin="round" />
<path d="M 159.0 193.0 L 159.0 193.0 L 159.0 194.0 L 160.0 195.0 L 166.0 195.0 L 176.0 193.0 L 185.0 192.0 L 188.0 192.0 " stroke="black" fill="none" stroke-width="5.0" stroke-linecap="round" stroke-linejoin="round" />
</svg>