<svg xmlns="http://www.w3.org/2000/svg" width="300" height="300" viewBox="0 0 300 300">
<path d="M 112.0 119.0 L 112.0 119.0 L 112.0 119.0 L 112.0 119.0 L 112.0 119.0 L 112.0 119.0 L 111.0 119.0 L 111.0 119.0 L 111.0 119.0 L 111.0 119.0 L 114.0 118.0 L 118.0 118.0 L 127.0 118.0 L 136.0 117.0 L 141.0 117.0 L 142.0 117.0 " stroke="black" fill="none" stroke-width="5.0" stroke-linecap="round" stroke-linejoin="round" />
<path d="M 125.0 122.0 L 125.0 122.0 L 125.0 122.0 L 125.0 122.0 L 126.0 122.0 L 126.0 123.0 L 126.0 125.0 L 126.0 128.0 L 126.0 132.0 " stroke="black" fill="none" stroke-width="5.0" stroke-linecap="round" stroke-linejoin="round" />
<path d="M 111.0 139.0 L 111.0 139.0 L 111.0 139.0 L 111.0 139.0 L 111.0 139.0 L 114.0 138.0 L 120.0 137.0 L 129.0 136.0 L 137.0 136.0 L 141.0 136.0 L 143.0 136.0 L 143.0 137.0 L 143.0 141.0 L 143.0 146.0 L 144.0 151.0 " stroke="black" fill="none" stroke-width="5.0" stroke-linecap="round" stroke-linejoin="round" />
<path d="M 110.0 154.0 L 110.0 154.0 L 110.0 154.0 L 111.0 154.0 L 111.0 154.0 L 115.0 154.0 L 126.0 153.0 L 140.0 151.0 L 146.0 150.0 " stroke="black" fill="none" stroke-width="5.0" stroke-linecap="round" stroke-linejoin="round" />
<path d="M 127.0 158.0 L 127.0 159.0 L 128.0 160.0 L 129.0 162.0 L 130.0 166.0 L 130.0 168.0 " stroke="black" fill="none" stroke-width="5.0" stroke-linecap="round" stroke-linejoin="round" />
<path d="M 110.0 174.0 L 110.0 174.0 L 112.0 174.0 L 117.0 174.0 L 131.0 173.0 L 145.0 171.0 " stroke="black" fill="none" stroke-width="5.0" stroke-linecap="round" stroke-linejoin="round" />
<path d="M 106.0 124.0 L 106.0 124.0 L 106.0 124.0 L 106.0 123.0 L 106.0 123.0 L 106.0 128.0 L 106.0 140.0 L 106.0 158.0 L 106.0 172.0 L 106.0 174.0 " stroke="black" fill="none" stroke-width="5.0" stroke-linecap="round" stroke-linejoin="round" />
<path d="M 161.0 100.0 L 161.0 100.0 L 161.0 100.0 L 161.0 100.0 L 160.0 104.0 L 158.0 111.0 L 154.0 122.0 L 150.0 129.0 " stroke="black" fill="none" stroke-width="5.0" stroke-linecap="round" stroke-linejoin="round" />
<path d="M 156.0 118.0 L 156.0 118.0 L 156.0 118.0 L 156.0 119.0 L 156.0 119.0 L 157.0 119.0 L 163.0 119.0 L 174.0 119.0 L 185.0 117.0 L 187.0 117.0 " stroke="black" fill="none" stroke-width="5.0" stroke-linecap="round" stroke-linejoin="round" />
<path d="M 158.0 134.0 L 159.0 134.0 L 159.0 134.0 L 160.0 134.0 L 161.0 137.0 L 161.0 140.0 L 161.0 144.0 L 161.0 145.0 " stroke="black" fill="none" stroke-width="5.0" stroke-linecap="round" stroke-linejoin="round" />
<path d="M 160.0 132.0 L 161.0 132.0 L 162.0 132.0 L 164.0 132.0 L 166.0 132.0 L 170.0 131.0 L 174.0 131.0 L 178.0 131.0 L 180.0 132.0 L 182.0 134.0 L 183.0 139.0 L 183.0 142.0 L 183.0 143.0 " stroke="black" fill="none" stroke-width="5.0" stroke-linecap="round" stroke-linejoin="round" />
<path d="M 160.0 148.0 L 160.0 148.0 L 160.0 148.0 L 163.0 148.0 L 170.0 148.0 L 178.0 148.0 L 180.0 148.0 " stroke="black" fill="none" stroke-width="5.0" stroke-linecap="round" stroke-linejoin="round" />
<path d="M 154.0 164.0 L 154.0 164.0 L 154.0 164.0 L 153.0 164.0 L 153.0 166.0 L 153.0 173.0 L 153.0 176.0 " stroke="black" fill="none" stroke-width="5.0" stroke-linecap="round" stroke-linejoin="round" />
<path d="M 154.0 161.0 L 155.0 161.0 L 155.0 161.0 L 156.0 161.0 L 158.0 161.0 L 161.0 160.0 L 164.0 159.0 L 167.0 159.0 L 170.0 159.0 L 172.0 159.0 L 174.0 159.0 L 174.0 161.0 L 174.0 165.0 L 174.0 172.0 L 174.0 177.0 L 174.0 180.0 " stroke="black" fill="none" stroke-width="5.0" stroke-linecap="round" stroke-linejoin="round" />
<path d="M 151.0 180.0 L 152.0 180.0 L 153.0 180.0 L 156.0 180.0 L 163.0 180.0 L 171.0 180.0 " stroke="black" fill="none" stroke-width="5.0" stroke-linecap="round" stroke-linejoin="round" />
<path d="M 185.0 162.0 L 185.0 162.0 L 185.0 162.0 L 185.0 162.0 L 185.0 162.0 L 185.0 164.0 L 185.0 169.0 L 186.0 174.0 L 186.0 176.0 " stroke="black" fill="none" stroke-width="5.0" stroke-linecap="round" stroke-linejoin="round" />
<path d="M 185.0 160.0 L 185.0 159.0 L 187.0 159.0 L 188.0 159.0 L 190.0 159.0 L 194.0 159.0 L 198.0 159.0 L 201.0 160.0 L 203.0 163.0 L 205.0 167.0 L 206.0 172.0 L 206.0 175.0 " stroke="black" fill="none" stroke-width="5.0" stroke-linecap="round" stroke-linejoin="round" />
<path d="M 187.0 179.0 L 186.0 180.0 L 186.0 180.0 L 188.0 180.0 L 195.0 180.0 L 201.0 180.0 " stroke="black" fill="none" stroke-width="5.0" stroke-linecap="round" stroke-linejoin="round" />
</svg>