<svg xmlns="http://www.w3.org/2000/svg" width="300" height="300" viewBox="0 0 300 300">
<path d="M 122.0 114.0 L 122.0 114.0 L 122.0 114.0 L 123.0 114.0 L 127.0 114.0 L 136.0 114.0 L 147.0 113.0 L 156.0 112.0 L 163.0 112.0 L 169.0 112.0 L 174.0 112.0 L 175.0 112.0 L 175.0 114.0 L 174.0 119.0 L 172.0 126.0 L 171.0 130.0 " stroke="black" fill="none" stroke-width="5.0" stroke-linecap="round" stroke-linejoin="round" />
<path d="M 120.0 117.0 L 120.0 117.0 L 120.0 117.0 L 120.0 117.0 L 120.0 118.0 L 120.0 120.0 L 120.0 127.0 L 119.0 139.0 L 116.0 156.0 L 111.0 172.0 L 107.0 185.0 L 106.0 188.0 " stroke="black" fill="none" stroke-width="5.0" stroke-linecap="round" stroke-linejoin="round" />
<path d="M 145.0 87.0 L 145.0 87.0 L 145.0 88.0 L 145.0 89.0 L 145.0 90.0 L 145.0 93.0 L 145.0 98.0 L 145.0 104.0 L 145.0 109.0 " stroke="black" fill="none" stroke-width="5.0" stroke-linecap="round" stroke-linejoin="round" />
<path d="M 145.0 98.0 L 145.0 98.0 L 145.0 98.0 L 145.0 98.0 L 147.0 97.0 L 150.0 96.0 L 154.0 96.0 L 158.0 96.0 " stroke="black" fill="none" stroke-width="5.0" stroke-linecap="round" stroke-linejoin="round" />
<path d="M 146.0 111.0 L 146.0 111.0 L 146.0 111.0 L 146.0 111.0 L 146.0 111.0 L 146.0 111.0 L 146.0 113.0 L 146.0 118.0 L 146.0 124.0 L 147.0 128.0 L 151.0 130.0 L 154.0 131.0 " stroke="black" fill="none" stroke-width="5.0" stroke-linecap="round" stroke-linejoin="round" />
<path d="M 135.0 124.0 L 135.0 124.0 L 135.0 124.0 L 139.0 124.0 L 147.0 124.0 L 155.0 123.0 L 161.0 123.0 L 165.0 123.0 L 165.0 123.0 " stroke="black" fill="none" stroke-width="5.0" stroke-linecap="round" stroke-linejoin="round" />
<path d="M 132.0 139.0 L 132.0 139.0 L 132.0 139.0 L 131.0 140.0 L 131.0 142.0 L 131.0 145.0 L 132.0 149.0 L 132.0 151.0 " stroke="black" fill="none" stroke-width="5.0" stroke-linecap="round" stroke-linejoin="round" />
<path d="M 135.0 138.0 L 135.0 138.0 L 135.0 138.0 L 135.0 138.0 L 135.0 137.0 L 136.0 137.0 L 140.0 136.0 L 146.0 136.0 L 154.0 136.0 L 162.0 136.0 L 167.0 136.0 L 170.0 136.0 L 171.0 137.0 L 171.0 139.0 L 171.0 144.0 L 170.0 151.0 L 169.0 156.0 L 169.0 157.0 " stroke="black" fill="none" stroke-width="5.0" stroke-linecap="round" stroke-linejoin="round" />
<path d="M 138.0 146.0 L 138.0 146.0 L 138.0 146.0 L 138.0 146.0 L 141.0 146.0 L 148.0 146.0 L 156.0 146.0 L 162.0 146.0 L 162.0 146.0 " stroke="black" fill="none" stroke-width="5.0" stroke-linecap="round" stroke-linejoin="round" />
<path d="M 148.0 138.0 L 148.0 138.0 L 147.0 138.0 L 147.0 138.0 L 147.0 139.0 L 147.0 142.0 L 148.0 148.0 L 148.0 150.0 " stroke="black" fill="none" stroke-width="5.0" stroke-linecap="round" stroke-linejoin="round" />
<path d="M 134.0 153.0 L 134.0 153.0 L 134.0 153.0 L 134.0 153.0 L 136.0 153.0 L 142.0 153.0 L 151.0 153.0 L 159.0 153.0 L 165.0 154.0 L 166.0 155.0 " stroke="black" fill="none" stroke-width="5.0" stroke-linecap="round" stroke-linejoin="round" />
<path d="M 139.0 163.0 L 139.0 163.0 L 139.0 163.0 L 139.0 162.0 L 139.0 163.0 L 139.0 168.0 L 137.0 179.0 L 136.0 188.0 L 135.0 193.0 L 135.0 194.0 " stroke="black" fill="none" stroke-width="5.0" stroke-linecap="round" stroke-linejoin="round" />
<path d="M 142.0 161.0 L 142.0 161.0 L 142.0 161.0 L 142.0 161.0 L 142.0 162.0 L 143.0 162.0 L 145.0 162.0 L 150.0 162.0 L 155.0 162.0 L 159.0 162.0 L 161.0 162.0 L 162.0 162.0 L 163.0 162.0 L 165.0 165.0 L 167.0 170.0 L 169.0 178.0 L 170.0 186.0 L 171.0 193.0 L 171.0 196.0 L 170.0 198.0 L 169.0 198.0 L 167.0 198.0 L 160.0 199.0 L 158.0 198.0 " stroke="black" fill="none" stroke-width="5.0" stroke-linecap="round" stroke-linejoin="round" />
<path d="M 144.0 171.0 L 144.0 171.0 L 144.0 171.0 L 144.0 171.0 L 144.0 171.0 L 145.0 171.0 L 150.0 171.0 L 157.0 172.0 L 160.0 173.0 " stroke="black" fill="none" stroke-width="5.0" stroke-linecap="round" stroke-linejoin="round" />
<path d="M 141.0 182.0 L 141.0 182.0 L 141.0 182.0 L 142.0 182.0 L 146.0 182.0 L 153.0 182.0 L 155.0 182.0 " stroke="black" fill="none" stroke-width="5.0" stroke-linecap="round" stroke-linejoin="round" />
</svg>