<svg xmlns="http://www.w3.org/2000/svg" width="300" height="300" viewBox="0 0 300 300">
<path d="M 129.0 108.0 L 129.0 108.0 L 129.0 108.0 L 129.0 108.0 L 130.0 107.0 L 139.0 106.0 L 151.0 104.0 L 162.0 103.0 L 168.0 103.0 L 170.0 103.0 L 170.0 103.0 L 169.0 103.0 " stroke="black" fill="none" stroke-width="5.0" stroke-linecap="round" stroke-linejoin="round" />
<path d="M 149.0 110.0 L 149.0 110.0 L 149.0 110.0 L 149.0 110.0 L 148.0 110.0 L 145.0 113.0 L 140.0 121.0 L 134.0 130.0 L 132.0 135.0 L 135.0 137.0 L 143.0 136.0 L 152.0 135.0 L 158.0 133.0 L 159.0 133.0 " stroke="black" fill="none" stroke-width="5.0" stroke-linecap="round" stroke-linejoin="round" />
<path d="M 163.0 125.0 L 164.0 127.0 L 166.0 131.0 L 168.0 136.0 L 171.0 141.0 L 172.0 144.0 " stroke="black" fill="none" stroke-width="5.0" stroke-linecap="round" stroke-linejoin="round" />
<path d="M 133.0 153.0 L 133.0 153.0 L 133.0 153.0 L 134.0 153.0 L 137.0 153.0 L 144.0 152.0 L 153.0 151.0 L 159.0 151.0 " stroke="black" fill="none" stroke-width="5.0" stroke-linecap="round" stroke-linejoin="round" />
<path d="M 119.0 177.0 L 120.0 177.0 L 123.0 177.0 L 129.0 178.0 L 141.0 178.0 L 155.0 178.0 L 167.0 177.0 L 177.0 176.0 L 182.0 176.0 " stroke="black" fill="none" stroke-width="5.0" stroke-linecap="round" stroke-linejoin="round" />
<path d="M 145.0 142.0 L 145.0 142.0 L 145.0 141.0 L 145.0 142.0 L 146.0 148.0 L 147.0 159.0 L 148.0 170.0 L 148.0 172.0 " stroke="black" fill="none" stroke-width="5.0" stroke-linecap="round" stroke-linejoin="round" />
</svg>