<svg xmlns="http://www.w3.org/2000/svg" width="300" height="300" viewBox="0 0 300 300">
<path d="M 137.0 110.0 L 137.0 110.0 L 137.0 110.0 L 136.0 110.0 L 136.0 111.0 L 137.0 115.0 L 138.0 121.0 L 139.0 127.0 " stroke="black" fill="none" stroke-width="5.0" stroke-linecap="round" stroke-linejoin="round" />
<path d="M 123.0 121.0 L 123.0 121.0 L 123.0 121.0 L 123.0 121.0 L 125.0 121.0 L 132.0 121.0 L 144.0 120.0 L 159.0 120.0 L 172.0 119.0 L 180.0 119.0 L 181.0 118.0 " stroke="black" fill="none" stroke-width="5.0" stroke-linecap="round" stroke-linejoin="round" />
<path d="M 160.0 106.0 L 161.0 106.0 L 161.0 106.0 L 162.0 108.0 L 163.0 115.0 L 164.0 124.0 L 165.0 131.0 " stroke="black" fill="none" stroke-width="5.0" stroke-linecap="round" stroke-linejoin="round" />
<path d="M 136.0 143.0 L 136.0 143.0 L 135.0 143.0 L 135.0 143.0 L 135.0 143.0 L 139.0 143.0 L 147.0 143.0 L 156.0 143.0 L 165.0 143.0 L 166.0 143.0 " stroke="black" fill="none" stroke-width="5.0" stroke-linecap="round" stroke-linejoin="round" />
<path d="M 119.0 165.0 L 119.0 165.0 L 123.0 166.0 L 133.0 166.0 L 148.0 166.0 L 162.0 166.0 L 172.0 167.0 L 180.0 168.0 L 182.0 168.0 " stroke="black" fill="none" stroke-width="5.0" stroke-linecap="round" stroke-linejoin="round" />
<path d="M 152.0 130.0 L 152.0 130.0 L 152.0 129.0 L 152.0 129.0 L 152.0 129.0 L 152.0 131.0 L 151.0 140.0 L 147.0 155.0 L 134.0 178.0 L 120.0 195.0 L 118.0 197.0 " stroke="black" fill="none" stroke-width="5.0" stroke-linecap="round" stroke-linejoin="round" />
<path d="M 156.0 182.0 L 156.0 181.0 L 158.0 181.0 L 160.0 181.0 L 165.0 185.0 L 175.0 194.0 L 186.0 206.0 L 193.0 213.0 " stroke="black" fill="none" stroke-width="5.0" stroke-linecap="round" stroke-linejoin="round" />
</svg>