<svg xmlns="http://www.w3.org/2000/svg" width="300" height="300" viewBox="0 0 300 300">
<path d="M 142.0 98.0 L 142.0 98.0 L 141.0 98.0 L 140.0 98.0 L 140.0 99.0 L 138.0 103.0 L 137.0 109.0 L 136.0 114.0 L 136.0 116.0 L 139.0 117.0 L 144.0 117.0 L 150.0 117.0 L 155.0 117.0 L 158.0 117.0 L 160.0 117.0 L 161.0 117.0 L 162.0 117.0 L 163.0 123.0 L 164.0 135.0 L 166.0 150.0 L 168.0 165.0 L 169.0 176.0 L 170.0 183.0 L 170.0 188.0 L 168.0 189.0 L 165.0 189.0 L 159.0 187.0 L 155.0 183.0 " stroke="black" fill="none" stroke-width="5.0" stroke-linecap="round" stroke-linejoin="round" />
<path d="M 137.0 119.0 L 137.0 119.0 L 137.0 119.0 L 137.0 119.0 L 136.0 123.0 L 135.0 137.0 L 133.0 157.0 L 130.0 173.0 L 127.0 182.0 L 127.0 182.0 L 127.0 180.0 " stroke="black" fill="none" stroke-width="5.0" stroke-linecap="round" stroke-linejoin="round" />
<path d="M 118.0 148.0 L 120.0 148.0 L 122.0 148.0 L 127.0 149.0 L 138.0 149.0 L 154.0 149.0 L 168.0 149.0 L 176.0 149.0 L 179.0 149.0 L 179.0 149.0 L 178.0 149.0 " stroke="black" fill="none" stroke-width="5.0" stroke-linecap="round" stroke-linejoin="round" />
<path d="M 148.0 128.0 L 148.0 128.0 L 148.0 128.0 L 147.0 129.0 L 147.0 131.0 L 148.0 136.0 L 150.0 142.0 " stroke="black" fill="none" stroke-width="5.0" stroke-linecap="round" stroke-linejoin="round" />
<path d="M 148.0 160.0 L 148.0 162.0 L 148.0 165.0 L 151.0 170.0 L 154.0 174.0 L 157.0 175.0 " stroke="black" fill="none" stroke-width="5.0" stroke-linecap="round" stroke-linejoin="round" />
</svg>