<svg xmlns="http://www.w3.org/2000/svg" width="300" height="300" viewBox="0 0 300 300">
<path d="M 135.0 112.0 L 135.0 112.0 L 135.0 112.0 L 135.0 113.0 L 135.0 116.0 L 137.0 123.0 L 139.0 132.0 L 140.0 139.0 L 140.0 141.0 " stroke="black" fill="none" stroke-width="5.0" stroke-linecap="round" stroke-linejoin="round" />
<path d="M 121.0 131.0 L 121.0 131.0 L 121.0 131.0 L 123.0 130.0 L 134.0 129.0 L 149.0 125.0 L 162.0 123.0 L 170.0 122.0 L 175.0 122.0 L 176.0 123.0 " stroke="black" fill="none" stroke-width="5.0" stroke-linecap="round" stroke-linejoin="round" />
<path d="M 158.0 110.0 L 158.0 110.0 L 157.0 110.0 L 157.0 113.0 L 158.0 122.0 L 159.0 132.0 L 159.0 134.0 " stroke="black" fill="none" stroke-width="5.0" stroke-linecap="round" stroke-linejoin="round" />
<path d="M 148.0 147.0 L 148.0 147.0 L 148.0 147.0 L 148.0 148.0 L 148.0 149.0 L 150.0 152.0 " stroke="black" fill="none" stroke-width="5.0" stroke-linecap="round" stroke-linejoin="round" />
<path d="M 132.0 165.0 L 132.0 165.0 L 132.0 165.0 L 136.0 165.0 L 144.0 164.0 L 154.0 163.0 L 161.0 162.0 L 164.0 162.0 L 164.0 162.0 L 163.0 164.0 L 161.0 169.0 L 157.0 175.0 L 153.0 182.0 L 148.0 188.0 L 146.0 191.0 " stroke="black" fill="none" stroke-width="5.0" stroke-linecap="round" stroke-linejoin="round" />
<path d="M 125.0 198.0 L 125.0 198.0 L 126.0 198.0 L 126.0 198.0 L 126.0 198.0 L 128.0 198.0 L 131.0 197.0 L 135.0 196.0 L 140.0 194.0 L 145.0 194.0 L 150.0 194.0 L 156.0 195.0 L 163.0 198.0 L 171.0 200.0 L 179.0 201.0 L 186.0 201.0 L 191.0 201.0 " stroke="black" fill="none" stroke-width="5.0" stroke-linecap="round" stroke-linejoin="round" />
</svg>