<svg xmlns="http://www.w3.org/2000/svg" width="300" height="300" viewBox="0 0 300 300">
<path d="M 152.0 101.0 L 152.0 101.0 L 152.0 101.0 L 152.0 101.0 L 152.0 101.0 L 151.0 102.0 L 149.0 106.0 L 144.0 114.0 L 136.0 124.0 " stroke="black" fill="none" stroke-width="5.0" stroke-linecap="round" stroke-linejoin="round" />
<path d="M 147.0 115.0 L 147.0 115.0 L 147.0 115.0 L 147.0 115.0 L 147.0 115.0 L 150.0 115.0 L 154.0 115.0 L 158.0 116.0 L 162.0 116.0 L 164.0 118.0 L 164.0 121.0 L 161.0 125.0 L 157.0 130.0 L 156.0 131.0 " stroke="black" fill="none" stroke-width="5.0" stroke-linecap="round" stroke-linejoin="round" />
<path d="M 127.0 139.0 L 127.0 139.0 L 127.0 139.0 L 127.0 139.0 L 127.0 139.0 L 129.0 139.0 L 135.0 139.0 L 145.0 138.0 L 156.0 136.0 L 166.0 134.0 L 172.0 133.0 L 174.0 133.0 L 175.0 134.0 L 175.0 139.0 L 176.0 147.0 L 177.0 155.0 L 177.0 156.0 " stroke="black" fill="none" stroke-width="5.0" stroke-linecap="round" stroke-linejoin="round" />
<path d="M 152.0 142.0 L 152.0 142.0 L 151.0 142.0 L 151.0 145.0 L 151.0 150.0 L 152.0 153.0 " stroke="black" fill="none" stroke-width="5.0" stroke-linecap="round" stroke-linejoin="round" />
<path d="M 126.0 163.0 L 127.0 163.0 L 128.0 163.0 L 131.0 163.0 L 140.0 163.0 L 154.0 163.0 L 167.0 162.0 L 173.0 162.0 L 174.0 162.0 " stroke="black" fill="none" stroke-width="5.0" stroke-linecap="round" stroke-linejoin="round" />
<path d="M 124.0 141.0 L 124.0 141.0 L 123.0 142.0 L 122.0 148.0 L 122.0 160.0 L 124.0 176.0 L 125.0 188.0 L 128.0 196.0 L 132.0 200.0 L 137.0 200.0 L 145.0 200.0 L 155.0 200.0 L 166.0 201.0 L 178.0 201.0 L 187.0 201.0 L 191.0 198.0 L 193.0 195.0 L 194.0 192.0 L 194.0 189.0 L 195.0 185.0 L 195.0 179.0 " stroke="black" fill="none" stroke-width="5.0" stroke-linecap="round" stroke-linejoin="round" />
</svg>