<svg xmlns="http://www.w3.org/2000/svg" width="300" height="300" viewBox="0 0 300 300">
<path d="M 133.0 95.0 L 133.0 96.0 L 132.0 97.0 L 132.0 98.0 L 130.0 101.0 L 127.0 109.0 L 120.0 121.0 L 114.0 130.0 " stroke="black" fill="none" stroke-width="5.0" stroke-linecap="round" stroke-linejoin="round" />
<path d="M 128.0 113.0 L 129.0 113.0 L 130.0 113.0 L 133.0 113.0 L 138.0 112.0 L 149.0 111.0 L 161.0 111.0 L 169.0 110.0 L 173.0 110.0 " stroke="black" fill="none" stroke-width="5.0" stroke-linecap="round" stroke-linejoin="round" />
<path d="M 130.0 126.0 L 130.0 126.0 L 130.0 126.0 L 130.0 126.0 L 130.0 128.0 L 130.0 137.0 L 130.0 146.0 L 131.0 149.0 " stroke="black" fill="none" stroke-width="5.0" stroke-linecap="round" stroke-linejoin="round" />
<path d="M 144.0 123.0 L 144.0 123.0 L 144.0 125.0 L 144.0 128.0 L 144.0 133.0 L 145.0 140.0 L 145.0 141.0 " stroke="black" fill="none" stroke-width="5.0" stroke-linecap="round" stroke-linejoin="round" />
<path d="M 154.0 119.0 L 154.0 119.0 L 154.0 119.0 L 155.0 120.0 L 155.0 125.0 L 157.0 136.0 L 158.0 146.0 L 158.0 148.0 " stroke="black" fill="none" stroke-width="5.0" stroke-linecap="round" stroke-linejoin="round" />
<path d="M 168.0 121.0 L 168.0 123.0 L 169.0 126.0 L 170.0 133.0 L 171.0 142.0 L 171.0 146.0 " stroke="black" fill="none" stroke-width="5.0" stroke-linecap="round" stroke-linejoin="round" />
<path d="M 119.0 139.0 L 120.0 139.0 L 120.0 139.0 L 123.0 139.0 L 133.0 138.0 L 149.0 136.0 L 164.0 135.0 L 176.0 135.0 L 181.0 137.0 " stroke="black" fill="none" stroke-width="5.0" stroke-linecap="round" stroke-linejoin="round" />
<path d="M 115.0 155.0 L 115.0 155.0 L 115.0 155.0 L 117.0 155.0 L 126.0 154.0 L 142.0 152.0 L 161.0 150.0 L 176.0 148.0 L 184.0 146.0 L 185.0 146.0 L 185.0 146.0 " stroke="black" fill="none" stroke-width="5.0" stroke-linecap="round" stroke-linejoin="round" />
<path d="M 136.0 163.0 L 136.0 163.0 L 136.0 163.0 L 136.0 163.0 L 136.0 164.0 L 134.0 167.0 L 129.0 173.0 L 122.0 181.0 L 118.0 185.0 " stroke="black" fill="none" stroke-width="5.0" stroke-linecap="round" stroke-linejoin="round" />
<path d="M 133.0 172.0 L 133.0 172.0 L 136.0 172.0 L 139.0 171.0 L 141.0 171.0 L 143.0 171.0 L 143.0 172.0 L 143.0 176.0 L 142.0 181.0 L 139.0 187.0 L 134.0 195.0 L 127.0 202.0 L 124.0 206.0 " stroke="black" fill="none" stroke-width="5.0" stroke-linecap="round" stroke-linejoin="round" />
<path d="M 121.0 184.0 L 122.0 184.0 L 122.0 184.0 L 123.0 184.0 L 125.0 184.0 L 131.0 185.0 " stroke="black" fill="none" stroke-width="5.0" stroke-linecap="round" stroke-linejoin="round" />
<path d="M 154.0 169.0 L 154.0 169.0 L 154.0 170.0 L 156.0 170.0 L 161.0 170.0 L 169.0 169.0 L 174.0 169.0 L 176.0 169.0 L 176.0 169.0 " stroke="black" fill="none" stroke-width="5.0" stroke-linecap="round" stroke-linejoin="round" />
<path d="M 155.0 173.0 L 155.0 173.0 L 155.0 174.0 L 155.0 176.0 L 154.0 179.0 L 153.0 184.0 L 152.0 188.0 L 152.0 191.0 L 157.0 192.0 L 166.0 191.0 L 176.0 189.0 L 179.0 189.0 " stroke="black" fill="none" stroke-width="5.0" stroke-linecap="round" stroke-linejoin="round" />
<path d="M 162.0 157.0 L 162.0 157.0 L 162.0 156.0 L 163.0 158.0 L 166.0 171.0 L 169.0 192.0 L 171.0 209.0 L 171.0 215.0 L 171.0 215.0 " stroke="black" fill="none" stroke-width="5.0" stroke-linecap="round" stroke-linejoin="round" />
</svg>