<svg xmlns="http://www.w3.org/2000/svg" width="300" height="300" viewBox="0 0 300 300">
<path d="M 127.0 102.0 L 127.0 103.0 L 127.0 103.0 L 127.0 103.0 L 127.0 105.0 L 126.0 106.0 L 125.0 107.0 L 123.0 109.0 L 121.0 111.0 L 120.0 112.0 L 119.0 113.0 L 119.0 114.0 L 119.0 117.0 L 119.0 121.0 L 119.0 127.0 L 120.0 135.0 L 121.0 143.0 L 122.0 147.0 L 123.0 147.0 " stroke="black" fill="none" stroke-width="5.0" stroke-linecap="round" stroke-linejoin="round" />
<path d="M 119.0 123.0 L 120.0 123.0 L 120.0 124.0 L 121.0 124.0 L 123.0 125.0 L 128.0 124.0 L 132.0 123.0 L 132.0 123.0 " stroke="black" fill="none" stroke-width="5.0" stroke-linecap="round" stroke-linejoin="round" />
<path d="M 120.0 134.0 L 120.0 135.0 L 121.0 136.0 L 122.0 137.0 L 126.0 137.0 L 132.0 135.0 " stroke="black" fill="none" stroke-width="5.0" stroke-linecap="round" stroke-linejoin="round" />
<path d="M 145.0 102.0 L 145.0 102.0 L 145.0 103.0 L 144.0 105.0 L 143.0 108.0 L 143.0 112.0 L 142.0 115.0 L 142.0 118.0 L 143.0 118.0 L 144.0 118.0 L 147.0 118.0 L 149.0 117.0 L 151.0 117.0 L 153.0 117.0 L 154.0 120.0 L 155.0 125.0 L 156.0 133.0 L 156.0 140.0 L 156.0 145.0 L 155.0 146.0 L 152.0 146.0 L 147.0 145.0 L 145.0 144.0 " stroke="black" fill="none" stroke-width="5.0" stroke-linecap="round" stroke-linejoin="round" />
<path d="M 144.0 118.0 L 143.0 119.0 L 142.0 120.0 L 141.0 123.0 L 140.0 131.0 L 138.0 142.0 L 137.0 144.0 " stroke="black" fill="none" stroke-width="5.0" stroke-linecap="round" stroke-linejoin="round" />
<path d="M 146.0 108.0 L 146.0 108.0 L 147.0 108.0 L 149.0 108.0 L 153.0 107.0 " stroke="black" fill="none" stroke-width="5.0" stroke-linecap="round" stroke-linejoin="round" />
<path d="M 160.0 108.0 L 161.0 108.0 L 162.0 109.0 L 164.0 109.0 L 166.0 109.0 L 168.0 110.0 L 171.0 110.0 L 172.0 110.0 L 174.0 113.0 L 175.0 119.0 L 176.0 129.0 L 176.0 140.0 L 176.0 148.0 L 176.0 151.0 L 176.0 152.0 L 174.0 151.0 " stroke="black" fill="none" stroke-width="5.0" stroke-linecap="round" stroke-linejoin="round" />
<path d="M 165.0 124.0 L 166.0 125.0 L 168.0 125.0 L 170.0 125.0 L 173.0 125.0 L 175.0 125.0 " stroke="black" fill="none" stroke-width="5.0" stroke-linecap="round" stroke-linejoin="round" />
<path d="M 166.0 136.0 L 167.0 136.0 L 170.0 137.0 L 174.0 137.0 L 176.0 138.0 " stroke="black" fill="none" stroke-width="5.0" stroke-linecap="round" stroke-linejoin="round" />
<path d="M 100.0 152.0 L 100.0 152.0 L 99.0 153.0 L 100.0 153.0 L 108.0 152.0 L 126.0 151.0 L 151.0 150.0 L 172.0 149.0 L 185.0 148.0 L 190.0 148.0 " stroke="black" fill="none" stroke-width="5.0" stroke-linecap="round" stroke-linejoin="round" />
<path d="M 133.0 151.0 L 133.0 151.0 L 133.0 151.0 L 132.0 153.0 L 128.0 157.0 L 121.0 163.0 L 117.0 167.0 " stroke="black" fill="none" stroke-width="5.0" stroke-linecap="round" stroke-linejoin="round" />
<path d="M 159.0 152.0 L 159.0 152.0 L 159.0 152.0 L 159.0 153.0 L 161.0 155.0 L 167.0 158.0 L 175.0 165.0 L 181.0 173.0 L 182.0 174.0 " stroke="black" fill="none" stroke-width="5.0" stroke-linecap="round" stroke-linejoin="round" />
<path d="M 142.0 163.0 L 142.0 163.0 L 142.0 164.0 L 142.0 165.0 L 145.0 165.0 L 150.0 165.0 L 156.0 165.0 L 159.0 165.0 " stroke="black" fill="none" stroke-width="5.0" stroke-linecap="round" stroke-linejoin="round" />
<path d="M 120.0 183.0 L 120.0 184.0 L 123.0 185.0 L 132.0 185.0 L 148.0 184.0 L 162.0 183.0 L 172.0 183.0 L 174.0 183.0 " stroke="black" fill="none" stroke-width="5.0" stroke-linecap="round" stroke-linejoin="round" />
<path d="M 149.0 157.0 L 149.0 159.0 L 149.0 161.0 L 150.0 167.0 L 152.0 179.0 L 153.0 195.0 L 154.0 209.0 " stroke="black" fill="none" stroke-width="5.0" stroke-linecap="round" stroke-linejoin="round" />
</svg>