<svg xmlns="http://www.w3.org/2000/svg" width="300" height="300" viewBox="0 0 300 300">
<path d="M 135.0 106.0 L 135.0 106.0 L 135.0 106.0 L 135.0 106.0 L 135.0 107.0 L 135.0 109.0 L 136.0 115.0 L 137.0 123.0 L 137.0 131.0 L 137.0 134.0 " stroke="black" fill="none" stroke-width="5.0" stroke-linecap="round" stroke-linejoin="round" />
<path d="M 162.0 106.0 L 162.0 106.0 L 162.0 106.0 L 162.0 106.0 L 162.0 106.0 L 162.0 106.0 L 162.0 111.0 L 163.0 120.0 L 163.0 129.0 L 164.0 131.0 " stroke="black" fill="none" stroke-width="5.0" stroke-linecap="round" stroke-linejoin="round" />
<path d="M 117.0 121.0 L 117.0 121.0 L 117.0 121.0 L 119.0 121.0 L 130.0 120.0 L 147.0 118.0 L 164.0 118.0 L 174.0 118.0 L 180.0 118.0 L 182.0 119.0 L 182.0 119.0 L 182.0 119.0 L 182.0 119.0 " stroke="black" fill="none" stroke-width="5.0" stroke-linecap="round" stroke-linejoin="round" />
<path d="M 150.0 134.0 L 150.0 134.0 L 150.0 134.0 L 151.0 136.0 L 152.0 139.0 L 154.0 142.0 " stroke="black" fill="none" stroke-width="5.0" stroke-linecap="round" stroke-linejoin="round" />
<path d="M 115.0 154.0 L 116.0 154.0 L 117.0 154.0 L 121.0 154.0 L 128.0 153.0 L 139.0 151.0 L 153.0 149.0 L 167.0 148.0 L 176.0 148.0 L 180.0 149.0 L 182.0 150.0 " stroke="black" fill="none" stroke-width="5.0" stroke-linecap="round" stroke-linejoin="round" />
<path d="M 139.0 154.0 L 139.0 154.0 L 139.0 154.0 L 139.0 154.0 L 138.0 159.0 L 136.0 171.0 L 133.0 184.0 L 130.0 191.0 L 129.0 191.0 " stroke="black" fill="none" stroke-width="5.0" stroke-linecap="round" stroke-linejoin="round" />
<path d="M 142.0 163.0 L 142.0 163.0 L 142.0 163.0 L 143.0 163.0 L 145.0 163.0 L 150.0 162.0 L 157.0 161.0 L 163.0 161.0 L 168.0 161.0 L 171.0 162.0 L 172.0 167.0 L 174.0 175.0 L 176.0 185.0 L 178.0 193.0 L 178.0 196.0 L 178.0 196.0 L 177.0 196.0 L 169.0 195.0 L 164.0 194.0 " stroke="black" fill="none" stroke-width="5.0" stroke-linecap="round" stroke-linejoin="round" />
</svg>