<svg xmlns="http://www.w3.org/2000/svg" width="300" height="300" viewBox="0 0 300 300">
<path d="M 144.0 100.0 L 144.0 100.0 L 144.0 100.0 L 144.0 100.0 L 144.0 100.0 L 144.0 100.0 L 146.0 101.0 L 148.0 105.0 " stroke="black" fill="none" stroke-width="5.0" stroke-linecap="round" stroke-linejoin="round" />
<path d="M 134.0 112.0 L 134.0 112.0 L 134.0 112.0 L 134.0 112.0 L 135.0 112.0 L 139.0 112.0 L 146.0 111.0 L 155.0 109.0 L 163.0 107.0 L 168.0 107.0 L 170.0 107.0 L 171.0 107.0 L 171.0 110.0 L 172.0 115.0 L 174.0 122.0 L 175.0 128.0 L 176.0 132.0 " stroke="black" fill="none" stroke-width="5.0" stroke-linecap="round" stroke-linejoin="round" />
<path d="M 139.0 123.0 L 139.0 123.0 L 140.0 123.0 L 142.0 122.0 L 148.0 122.0 L 156.0 121.0 L 165.0 121.0 L 170.0 121.0 " stroke="black" fill="none" stroke-width="5.0" stroke-linecap="round" stroke-linejoin="round" />
<path d="M 138.0 142.0 L 138.0 142.0 L 137.0 142.0 L 137.0 142.0 L 140.0 141.0 L 147.0 140.0 L 157.0 139.0 L 167.0 139.0 L 174.0 139.0 " stroke="black" fill="none" stroke-width="5.0" stroke-linecap="round" stroke-linejoin="round" />
<path d="M 143.0 123.0 L 143.0 123.0 L 142.0 122.0 L 141.0 121.0 L 140.0 123.0 L 138.0 134.0 L 135.0 155.0 L 134.0 177.0 L 134.0 189.0 L 139.0 191.0 L 146.0 189.0 L 150.0 187.0 " stroke="black" fill="none" stroke-width="5.0" stroke-linecap="round" stroke-linejoin="round" />
<path d="M 148.0 144.0 L 148.0 144.0 L 148.0 144.0 L 148.0 144.0 L 151.0 148.0 L 163.0 165.0 L 179.0 185.0 L 189.0 196.0 L 190.0 197.0 " stroke="black" fill="none" stroke-width="5.0" stroke-linecap="round" stroke-linejoin="round" />
<path d="M 183.0 153.0 L 183.0 153.0 L 182.0 154.0 L 181.0 157.0 L 179.0 162.0 L 175.0 169.0 " stroke="black" fill="none" stroke-width="5.0" stroke-linecap="round" stroke-linejoin="round" />
</svg>