<svg xmlns="http://www.w3.org/2000/svg" width="300" height="300" viewBox="0 0 300 300">
<path d="M 127.0 107.0 L 127.0 107.0 L 127.0 107.0 L 127.0 111.0 L 129.0 118.0 L 130.0 126.0 L 131.0 130.0 " stroke="black" fill="none" stroke-width="5.0" stroke-linecap="round" stroke-linejoin="round" />
<path d="M 113.0 123.0 L 114.0 123.0 L 117.0 123.0 L 122.0 121.0 L 133.0 119.0 L 148.0 117.0 L 160.0 116.0 L 167.0 116.0 L 168.0 116.0 " stroke="black" fill="none" stroke-width="5.0" stroke-linecap="round" stroke-linejoin="round" />
<path d="M 152.0 102.0 L 152.0 102.0 L 152.0 101.0 L 152.0 104.0 L 153.0 113.0 L 154.0 124.0 L 154.0 127.0 " stroke="black" fill="none" stroke-width="5.0" stroke-linecap="round" stroke-linejoin="round" />
<path d="M 105.0 155.0 L 105.0 155.0 L 105.0 155.0 L 106.0 154.0 L 115.0 153.0 L 135.0 149.0 L 155.0 147.0 L 164.0 146.0 L 165.0 146.0 " stroke="black" fill="none" stroke-width="5.0" stroke-linecap="round" stroke-linejoin="round" />
<path d="M 142.0 137.0 L 141.0 137.0 L 140.0 137.0 L 138.0 140.0 L 134.0 146.0 L 125.0 157.0 L 112.0 171.0 L 101.0 182.0 " stroke="black" fill="none" stroke-width="5.0" stroke-linecap="round" stroke-linejoin="round" />
<path d="M 116.0 170.0 L 117.0 172.0 L 117.0 175.0 L 117.0 181.0 L 117.0 189.0 L 117.0 195.0 L 117.0 197.0 " stroke="black" fill="none" stroke-width="5.0" stroke-linecap="round" stroke-linejoin="round" />
<path d="M 119.0 168.0 L 119.0 168.0 L 119.0 167.0 L 121.0 167.0 L 126.0 166.0 L 136.0 164.0 L 148.0 164.0 L 156.0 165.0 L 161.0 169.0 L 164.0 176.0 L 165.0 183.0 L 165.0 189.0 L 164.0 191.0 " stroke="black" fill="none" stroke-width="5.0" stroke-linecap="round" stroke-linejoin="round" />
<path d="M 117.0 201.0 L 117.0 201.0 L 117.0 201.0 L 120.0 201.0 L 134.0 201.0 L 154.0 201.0 L 167.0 200.0 " stroke="black" fill="none" stroke-width="5.0" stroke-linecap="round" stroke-linejoin="round" />
</svg>