<svg xmlns="http://www.w3.org/2000/svg" width="300" height="300" viewBox="0 0 300 300">
<path d="M 133.0 108.0 L 133.0 108.0 L 132.0 109.0 L 132.0 112.0 L 134.0 120.0 L 136.0 127.0 L 137.0 131.0 " stroke="black" fill="none" stroke-width="5.0" stroke-linecap="round" stroke-linejoin="round" />
<path d="M 115.0 123.0 L 115.0 123.0 L 115.0 123.0 L 120.0 123.0 L 132.0 122.0 L 147.0 121.0 L 160.0 120.0 L 171.0 120.0 L 178.0 120.0 L 183.0 120.0 " stroke="black" fill="none" stroke-width="5.0" stroke-linecap="round" stroke-linejoin="round" />
<path d="M 161.0 110.0 L 161.0 110.0 L 162.0 110.0 L 162.0 114.0 L 163.0 124.0 L 165.0 134.0 L 165.0 136.0 " stroke="black" fill="none" stroke-width="5.0" stroke-linecap="round" stroke-linejoin="round" />
<path d="M 140.0 147.0 L 140.0 147.0 L 139.0 148.0 L 139.0 149.0 L 136.0 153.0 L 128.0 160.0 L 116.0 171.0 L 106.0 181.0 L 105.0 182.0 " stroke="black" fill="none" stroke-width="5.0" stroke-linecap="round" stroke-linejoin="round" />
<path d="M 132.0 163.0 L 132.0 163.0 L 132.0 163.0 L 132.0 164.0 L 132.0 167.0 L 132.0 177.0 L 132.0 191.0 L 132.0 203.0 L 132.0 205.0 " stroke="black" fill="none" stroke-width="5.0" stroke-linecap="round" stroke-linejoin="round" />
<path d="M 153.0 151.0 L 153.0 151.0 L 152.0 151.0 L 152.0 151.0 L 152.0 152.0 L 152.0 159.0 L 151.0 172.0 L 151.0 186.0 L 153.0 198.0 L 159.0 204.0 L 168.0 205.0 L 179.0 204.0 L 187.0 202.0 L 190.0 202.0 " stroke="black" fill="none" stroke-width="5.0" stroke-linecap="round" stroke-linejoin="round" />
<path d="M 153.0 172.0 L 153.0 172.0 L 153.0 172.0 L 155.0 172.0 L 163.0 172.0 L 176.0 172.0 L 184.0 172.0 " stroke="black" fill="none" stroke-width="5.0" stroke-linecap="round" stroke-linejoin="round" />
</svg>