<svg xmlns="http://www.w3.org/2000/svg" width="300" height="300" viewBox="0 0 300 300">
<path d="M 139.16666666666669 101.66666666666667 L 139.16666666666669 101.66666666666667 L 139.16666666666669 101.66666666666667 L 139.16666666666669 101.66666666666667 L 139.16666666666669 104.16666666666667 L 139.16666666666669 111.66666666666667 L 140.0 119.99999999999999 L 140.0 121.66666666666667 " stroke="black" fill="none" stroke-width="5.0" stroke-linecap="round" stroke-linejoin="round" />
<path d="M 121.66666666666667 114.16666666666667 L 122.49999999999999 114.16666666666667 L 124.16666666666667 114.16666666666667 L 125.83333333333333 114.16666666666667 L 130.0 113.33333333333333 L 139.16666666666669 112.49999999999999 L 153.33333333333331 110.83333333333333 L 168.33333333333331 109.99999999999999 L 179.16666666666663 109.99999999999999 L 184.16666666666663 111.66666666666667 " stroke="black" fill="none" stroke-width="5.0" stroke-linecap="round" stroke-linejoin="round" />
<path d="M 166.66666666666663 97.49999999999999 L 166.66666666666663 97.49999999999999 L 166.66666666666663 98.33333333333333 L 166.66666666666663 100.83333333333333 L 167.5 109.16666666666667 L 168.33333333333331 116.66666666666667 " stroke="black" fill="none" stroke-width="5.0" stroke-linecap="round" stroke-linejoin="round" />
<path d="M 173.33333333333331 123.33333333333333 L 173.33333333333331 123.33333333333333 L 172.5 123.33333333333333 L 172.5 124.16666666666667 L 170.83333333333331 124.16666666666667 L 167.5 124.99999999999999 L 160.83333333333331 128.33333333333331 L 147.5 134.16666666666669 L 130.0 141.66666666666669 L 119.99999999999999 145.0 " stroke="black" fill="none" stroke-width="5.0" stroke-linecap="round" stroke-linejoin="round" />
<path d="M 138.33333333333331 145.0 L 138.33333333333331 145.0 L 138.33333333333331 144.16666666666669 L 138.33333333333331 145.0 L 139.16666666666669 148.33333333333331 L 141.66666666666669 152.5 L 142.5 153.33333333333331 " stroke="black" fill="none" stroke-width="5.0" stroke-linecap="round" stroke-linejoin="round" />
<path d="M 155.0 140.83333333333331 L 155.0 140.83333333333331 L 155.83333333333331 140.83333333333331 L 155.83333333333331 141.66666666666669 L 156.66666666666663 145.83333333333331 L 157.5 148.33333333333331 " stroke="black" fill="none" stroke-width="5.0" stroke-linecap="round" stroke-linejoin="round" />
<path d="M 169.16666666666663 139.16666666666669 L 169.16666666666663 139.16666666666669 L 169.16666666666663 139.16666666666669 L 169.16666666666663 140.83333333333331 L 168.33333333333331 145.0 L 166.66666666666663 151.66666666666669 L 165.83333333333331 153.33333333333331 " stroke="black" fill="none" stroke-width="5.0" stroke-linecap="round" stroke-linejoin="round" />
<path d="M 130.0 170.0 L 130.0 170.0 L 130.0 170.0 L 131.66666666666669 170.0 L 136.66666666666669 170.0 L 148.33333333333331 169.16666666666663 L 161.66666666666663 168.33333333333331 L 173.33333333333331 169.16666666666663 L 178.33333333333331 170.0 L 179.16666666666663 170.0 " stroke="black" fill="none" stroke-width="5.0" stroke-linecap="round" stroke-linejoin="round" />
<path d="M 155.83333333333331 154.16666666666669 L 155.83333333333331 154.16666666666669 L 155.83333333333331 154.16666666666669 L 155.83333333333331 155.83333333333331 L 155.83333333333331 163.33333333333331 L 157.5 176.66666666666663 L 158.33333333333331 188.33333333333331 L 158.33333333333331 195.0 " stroke="black" fill="none" stroke-width="5.0" stroke-linecap="round" stroke-linejoin="round" />
<path d="M 158.33333333333331 171.66666666666663 L 158.33333333333331 171.66666666666663 L 155.83333333333331 171.66666666666663 L 154.16666666666669 171.66666666666663 L 151.66666666666669 172.5 L 147.5 175.83333333333331 L 140.0 183.33333333333331 L 128.33333333333331 191.66666666666663 L 122.49999999999999 195.83333333333331 L 121.66666666666667 195.83333333333331 " stroke="black" fill="none" stroke-width="5.0" stroke-linecap="round" stroke-linejoin="round" />
<path d="M 158.33333333333331 172.5 L 160.83333333333331 174.16666666666663 L 165.0 177.5 L 172.5 182.5 L 179.16666666666663 189.16666666666663 L 184.16666666666663 193.33333333333331 L 185.0 193.33333333333331 " stroke="black" fill="none" stroke-width="5.0" stroke-linecap="round" stroke-linejoin="round" />
</svg>