<svg xmlns="http://www.w3.org/2000/svg" width="300" height="300" viewBox="0 0 300 300">
<path d="M 136.0 110.0 L 136.0 110.0 L 136.0 111.0 L 136.0 112.0 L 136.0 116.0 L 136.0 124.0 L 137.0 133.0 L 138.0 139.0 " stroke="black" fill="none" stroke-width="5.0" stroke-linecap="round" stroke-linejoin="round" />
<path d="M 118.0 126.0 L 118.0 126.0 L 118.0 126.0 L 119.0 126.0 L 122.0 126.0 L 132.0 126.0 L 147.0 126.0 L 161.0 125.0 L 173.0 125.0 L 180.0 125.0 L 183.0 124.0 L 183.0 124.0 " stroke="black" fill="none" stroke-width="5.0" stroke-linecap="round" stroke-linejoin="round" />
<path d="M 160.0 113.0 L 160.0 113.0 L 160.0 113.0 L 160.0 113.0 L 160.0 115.0 L 160.0 124.0 L 159.0 137.0 L 159.0 143.0 " stroke="black" fill="none" stroke-width="5.0" stroke-linecap="round" stroke-linejoin="round" />
<path d="M 120.0 151.0 L 120.0 151.0 L 120.0 151.0 L 120.0 152.0 L 120.0 152.0 L 123.0 154.0 L 127.0 156.0 L 130.0 157.0 " stroke="black" fill="none" stroke-width="5.0" stroke-linecap="round" stroke-linejoin="round" />
<path d="M 110.0 178.0 L 110.0 178.0 L 111.0 178.0 L 113.0 178.0 L 117.0 178.0 L 122.0 177.0 " stroke="black" fill="none" stroke-width="5.0" stroke-linecap="round" stroke-linejoin="round" />
<path d="M 107.0 197.0 L 108.0 197.0 L 110.0 197.0 L 115.0 197.0 L 122.0 194.0 " stroke="black" fill="none" stroke-width="5.0" stroke-linecap="round" stroke-linejoin="round" />
<path d="M 150.0 153.0 L 150.0 153.0 L 149.0 153.0 L 148.0 153.0 L 148.0 153.0 L 149.0 154.0 L 151.0 158.0 L 153.0 162.0 " stroke="black" fill="none" stroke-width="5.0" stroke-linecap="round" stroke-linejoin="round" />
<path d="M 133.0 170.0 L 133.0 170.0 L 134.0 171.0 L 136.0 171.0 L 143.0 171.0 L 155.0 169.0 L 166.0 167.0 L 171.0 166.0 L 172.0 166.0 " stroke="black" fill="none" stroke-width="5.0" stroke-linecap="round" stroke-linejoin="round" />
<path d="M 146.0 177.0 L 146.0 177.0 L 146.0 176.0 L 146.0 177.0 L 145.0 181.0 L 143.0 188.0 L 142.0 196.0 L 143.0 201.0 L 149.0 203.0 L 158.0 202.0 L 168.0 201.0 L 174.0 201.0 " stroke="black" fill="none" stroke-width="5.0" stroke-linecap="round" stroke-linejoin="round" />
</svg>