<svg xmlns="http://www.w3.org/2000/svg" width="300" height="300" viewBox="0 0 300 300">
<path d="M 138.0 105.0 L 138.0 105.0 L 138.0 104.0 L 138.0 103.0 L 138.0 103.0 L 139.0 108.0 L 141.0 117.0 L 141.0 119.0 " stroke="black" fill="none" stroke-width="5.0" stroke-linecap="round" stroke-linejoin="round" />
<path d="M 120.0 116.0 L 121.0 116.0 L 122.0 115.0 L 127.0 115.0 L 140.0 113.0 L 160.0 111.0 L 177.0 109.0 L 182.0 109.0 " stroke="black" fill="none" stroke-width="5.0" stroke-linecap="round" stroke-linejoin="round" />
<path d="M 163.0 102.0 L 163.0 102.0 L 163.0 103.0 L 163.0 106.0 L 163.0 115.0 L 163.0 120.0 " stroke="black" fill="none" stroke-width="5.0" stroke-linecap="round" stroke-linejoin="round" />
<path d="M 128.0 137.0 L 128.0 137.0 L 128.0 137.0 L 128.0 138.0 L 128.0 142.0 L 129.0 146.0 " stroke="black" fill="none" stroke-width="5.0" stroke-linecap="round" stroke-linejoin="round" />
<path d="M 129.0 133.0 L 130.0 133.0 L 131.0 133.0 L 135.0 133.0 L 142.0 133.0 L 152.0 133.0 L 162.0 132.0 L 169.0 132.0 L 173.0 132.0 L 176.0 133.0 L 177.0 137.0 L 178.0 141.0 L 179.0 146.0 L 179.0 151.0 L 179.0 152.0 " stroke="black" fill="none" stroke-width="5.0" stroke-linecap="round" stroke-linejoin="round" />
<path d="M 136.0 145.0 L 136.0 145.0 L 136.0 145.0 L 136.0 145.0 L 140.0 145.0 L 150.0 144.0 L 163.0 144.0 L 173.0 144.0 L 177.0 144.0 L 177.0 145.0 " stroke="black" fill="none" stroke-width="5.0" stroke-linecap="round" stroke-linejoin="round" />
<path d="M 134.0 156.0 L 134.0 156.0 L 135.0 156.0 L 139.0 156.0 L 150.0 157.0 L 164.0 157.0 L 174.0 156.0 L 176.0 156.0 " stroke="black" fill="none" stroke-width="5.0" stroke-linecap="round" stroke-linejoin="round" />
<path d="M 113.0 178.0 L 113.0 178.0 L 114.0 178.0 L 120.0 177.0 L 136.0 176.0 L 156.0 176.0 L 172.0 174.0 L 182.0 173.0 L 185.0 173.0 " stroke="black" fill="none" stroke-width="5.0" stroke-linecap="round" stroke-linejoin="round" />
<path d="M 152.0 156.0 L 152.0 156.0 L 152.0 156.0 L 152.0 156.0 L 150.0 160.0 L 146.0 173.0 L 139.0 193.0 L 130.0 207.0 L 128.0 210.0 " stroke="black" fill="none" stroke-width="5.0" stroke-linecap="round" stroke-linejoin="round" />
<path d="M 148.0 184.0 L 149.0 183.0 L 150.0 183.0 L 156.0 185.0 L 166.0 195.0 L 177.0 209.0 L 182.0 218.0 " stroke="black" fill="none" stroke-width="5.0" stroke-linecap="round" stroke-linejoin="round" />
</svg>