<svg xmlns="http://www.w3.org/2000/svg" width="300" height="300" viewBox="0 0 300 300">
<path d="M 134.0 112.0 L 134.0 112.0 L 134.0 112.0 L 134.0 112.0 L 134.0 112.0 L 134.0 112.0 L 135.0 117.0 L 136.0 126.0 L 137.0 131.0 " stroke="black" fill="none" stroke-width="5.0" stroke-linecap="round" stroke-linejoin="round" />
<path d="M 116.0 126.0 L 116.0 126.0 L 116.0 126.0 L 116.0 126.0 L 120.0 126.0 L 130.0 124.0 L 147.0 122.0 L 162.0 120.0 L 173.0 119.0 L 177.0 118.0 " stroke="black" fill="none" stroke-width="5.0" stroke-linecap="round" stroke-linejoin="round" />
<path d="M 155.0 110.0 L 155.0 111.0 L 154.0 113.0 L 154.0 119.0 L 155.0 128.0 L 155.0 131.0 " stroke="black" fill="none" stroke-width="5.0" stroke-linecap="round" stroke-linejoin="round" />
<path d="M 119.0 149.0 L 119.0 149.0 L 119.0 149.0 L 119.0 149.0 L 120.0 149.0 L 120.0 150.0 L 119.0 152.0 L 118.0 156.0 L 117.0 162.0 L 118.0 163.0 L 125.0 163.0 L 132.0 161.0 L 137.0 159.0 L 138.0 159.0 " stroke="black" fill="none" stroke-width="5.0" stroke-linecap="round" stroke-linejoin="round" />
<path d="M 138.0 144.0 L 138.0 144.0 L 138.0 145.0 L 138.0 151.0 L 139.0 164.0 L 141.0 182.0 L 142.0 197.0 L 143.0 203.0 L 143.0 204.0 " stroke="black" fill="none" stroke-width="5.0" stroke-linecap="round" stroke-linejoin="round" />
<path d="M 117.0 182.0 L 117.0 182.0 L 118.0 182.0 L 120.0 182.0 L 126.0 182.0 L 134.0 180.0 L 139.0 180.0 " stroke="black" fill="none" stroke-width="5.0" stroke-linecap="round" stroke-linejoin="round" />
<path d="M 113.0 184.0 L 114.0 185.0 L 114.0 189.0 L 115.0 198.0 L 115.0 208.0 L 115.0 213.0 " stroke="black" fill="none" stroke-width="5.0" stroke-linecap="round" stroke-linejoin="round" />
<path d="M 151.0 166.0 L 152.0 166.0 L 153.0 166.0 L 155.0 166.0 L 160.0 166.0 L 169.0 164.0 L 177.0 164.0 L 180.0 164.0 " stroke="black" fill="none" stroke-width="5.0" stroke-linecap="round" stroke-linejoin="round" />
<path d="M 154.0 192.0 L 154.0 193.0 L 155.0 193.0 L 160.0 194.0 L 169.0 193.0 L 179.0 193.0 L 184.0 193.0 " stroke="black" fill="none" stroke-width="5.0" stroke-linecap="round" stroke-linejoin="round" />
<path d="M 164.0 149.0 L 164.0 147.0 L 165.0 146.0 L 166.0 151.0 L 169.0 164.0 L 169.0 179.0 L 169.0 190.0 L 169.0 192.0 " stroke="black" fill="none" stroke-width="5.0" stroke-linecap="round" stroke-linejoin="round" />
</svg>