<svg xmlns="http://www.w3.org/2000/svg" width="300" height="300" viewBox="0 0 300 300">
<path d="M 137.14285714285717 104.28571428571432 L 137.14285714285717 104.28571428571432 L 137.14285714285717 104.28571428571432 L 137.14285714285717 104.28571428571432 L 137.14285714285717 105.00000000000001 L 137.14285714285717 108.5714285714286 L 137.8571428571429 115.71428571428574 L 138.5714285714286 123.5714285714286 L 139.28571428571433 125.00000000000001 " stroke="black" fill="none" stroke-width="5.0" stroke-linecap="round" stroke-linejoin="round" />
<path d="M 121.42857142857146 120.00000000000001 L 121.42857142857146 120.00000000000001 L 121.42857142857146 120.00000000000001 L 121.42857142857146 120.00000000000001 L 126.42857142857146 119.28571428571432 L 138.5714285714286 117.85714285714288 L 155.71428571428572 114.28571428571432 L 172.14285714285717 112.14285714285718 L 182.14285714285717 111.42857142857146 L 187.8571428571429 110.71428571428574 " stroke="black" fill="none" stroke-width="5.0" stroke-linecap="round" stroke-linejoin="round" />
<path d="M 162.14285714285717 100.71428571428574 L 163.5714285714286 100.71428571428574 L 163.5714285714286 101.42857142857146 L 163.5714285714286 105.71428571428574 L 163.5714285714286 114.28571428571432 L 163.5714285714286 122.85714285714288 " stroke="black" fill="none" stroke-width="5.0" stroke-linecap="round" stroke-linejoin="round" />
<path d="M 150.00000000000006 129.28571428571433 L 150.00000000000006 129.28571428571433 L 150.00000000000006 130.71428571428572 L 150.71428571428572 132.8571428571429 L 152.8571428571429 135.71428571428572 L 153.5714285714286 137.8571428571429 " stroke="black" fill="none" stroke-width="5.0" stroke-linecap="round" stroke-linejoin="round" />
<path d="M 126.42857142857146 147.14285714285717 L 126.42857142857146 147.14285714285717 L 127.14285714285718 147.14285714285717 L 130.00000000000006 147.14285714285717 L 140.71428571428572 145.71428571428572 L 155.71428571428572 142.14285714285717 L 167.14285714285717 139.28571428571433 L 174.28571428571433 138.5714285714286 L 175.00000000000006 138.5714285714286 " stroke="black" fill="none" stroke-width="5.0" stroke-linecap="round" stroke-linejoin="round" />
<path d="M 142.14285714285717 146.42857142857144 L 142.14285714285717 146.42857142857144 L 140.71428571428572 147.14285714285717 L 140.00000000000006 149.28571428571433 L 139.28571428571433 154.28571428571433 L 139.28571428571433 159.28571428571433 L 141.42857142857144 162.8571428571429 L 146.42857142857144 164.28571428571433 L 153.5714285714286 163.5714285714286 L 162.8571428571429 160.71428571428572 L 172.14285714285717 158.5714285714286 " stroke="black" fill="none" stroke-width="5.0" stroke-linecap="round" stroke-linejoin="round" />
<path d="M 138.5714285714286 177.8571428571429 L 138.5714285714286 177.8571428571429 L 138.5714285714286 177.8571428571429 L 138.5714285714286 177.8571428571429 L 138.5714285714286 180.00000000000006 L 138.5714285714286 185.71428571428578 L 137.8571428571429 194.28571428571433 L 137.14285714285717 200.00000000000006 " stroke="black" fill="none" stroke-width="5.0" stroke-linecap="round" stroke-linejoin="round" />
<path d="M 152.8571428571429 178.5714285714286 L 152.8571428571429 178.5714285714286 L 152.8571428571429 179.28571428571433 L 152.8571428571429 180.71428571428578 L 153.5714285714286 185.00000000000006 L 154.28571428571433 190.71428571428578 L 155.00000000000006 197.14285714285722 L 155.00000000000006 197.8571428571429 " stroke="black" fill="none" stroke-width="5.0" stroke-linecap="round" stroke-linejoin="round" />
<path d="M 175.00000000000006 172.14285714285717 L 175.00000000000006 172.14285714285717 L 174.28571428571433 172.8571428571429 L 174.28571428571433 174.28571428571433 L 174.28571428571433 179.28571428571433 L 174.28571428571433 185.71428571428578 L 175.71428571428578 192.8571428571429 L 179.28571428571433 197.14285714285722 L 184.28571428571433 198.5714285714286 L 190.71428571428578 197.14285714285722 L 194.28571428571433 196.4285714285715 " stroke="black" fill="none" stroke-width="5.0" stroke-linecap="round" stroke-linejoin="round" />
</svg>