<svg xmlns="http://www.w3.org/2000/svg" width="300" height="300" viewBox="0 0 300 300">
<path d="M 139.0 103.0 L 138.0 103.0 L 138.0 103.0 L 136.0 103.0 L 136.0 103.0 L 136.0 103.0 L 137.0 105.0 L 138.0 110.0 L 139.0 118.0 L 141.0 127.0 L 141.0 129.0 " stroke="black" fill="none" stroke-width="5.0" stroke-linecap="round" stroke-linejoin="round" />
<path d="M 117.0 117.0 L 117.0 117.0 L 118.0 117.0 L 121.0 117.0 L 128.0 116.0 L 141.0 114.0 L 156.0 112.0 L 167.0 111.0 L 173.0 111.0 L 173.0 111.0 " stroke="black" fill="none" stroke-width="5.0" stroke-linecap="round" stroke-linejoin="round" />
<path d="M 154.0 101.0 L 154.0 101.0 L 154.0 104.0 L 155.0 110.0 L 157.0 123.0 L 158.0 132.0 " stroke="black" fill="none" stroke-width="5.0" stroke-linecap="round" stroke-linejoin="round" />
<path d="M 119.0 138.0 L 119.0 139.0 L 119.0 143.0 L 120.0 148.0 L 121.0 152.0 L 121.0 153.0 " stroke="black" fill="none" stroke-width="5.0" stroke-linecap="round" stroke-linejoin="round" />
<path d="M 117.0 139.0 L 118.0 139.0 L 119.0 139.0 L 121.0 139.0 L 127.0 139.0 L 138.0 137.0 L 152.0 135.0 L 166.0 133.0 L 175.0 132.0 L 180.0 134.0 L 183.0 139.0 L 184.0 144.0 L 184.0 149.0 L 182.0 152.0 " stroke="black" fill="none" stroke-width="5.0" stroke-linecap="round" stroke-linejoin="round" />
<path d="M 139.0 151.0 L 139.0 151.0 L 140.0 151.0 L 141.0 150.0 L 143.0 150.0 L 147.0 150.0 L 154.0 149.0 L 160.0 149.0 L 161.0 149.0 " stroke="black" fill="none" stroke-width="5.0" stroke-linecap="round" stroke-linejoin="round" />
<path d="M 129.0 164.0 L 129.0 164.0 L 131.0 164.0 L 139.0 163.0 L 150.0 162.0 L 159.0 162.0 L 165.0 162.0 L 168.0 162.0 L 168.0 162.0 " stroke="black" fill="none" stroke-width="5.0" stroke-linecap="round" stroke-linejoin="round" />
<path d="M 151.0 165.0 L 151.0 165.0 L 151.0 165.0 L 150.0 165.0 L 149.0 166.0 L 147.0 168.0 L 141.0 172.0 L 133.0 177.0 L 128.0 181.0 L 127.0 181.0 " stroke="black" fill="none" stroke-width="5.0" stroke-linecap="round" stroke-linejoin="round" />
<path d="M 151.0 165.0 L 151.0 165.0 L 151.0 166.0 L 151.0 167.0 L 152.0 174.0 L 156.0 188.0 L 159.0 203.0 L 160.0 213.0 L 160.0 217.0 L 157.0 218.0 L 152.0 215.0 L 151.0 214.0 " stroke="black" fill="none" stroke-width="5.0" stroke-linecap="round" stroke-linejoin="round" />
<path d="M 150.0 179.0 L 150.0 179.0 L 150.0 179.0 L 150.0 179.0 L 149.0 180.0 L 148.0 181.0 L 145.0 185.0 L 139.0 190.0 L 136.0 192.0 " stroke="black" fill="none" stroke-width="5.0" stroke-linecap="round" stroke-linejoin="round" />
<path d="M 153.0 189.0 L 153.0 189.0 L 153.0 189.0 L 154.0 189.0 L 154.0 190.0 L 153.0 192.0 L 150.0 195.0 L 143.0 202.0 L 132.0 210.0 L 123.0 217.0 " stroke="black" fill="none" stroke-width="5.0" stroke-linecap="round" stroke-linejoin="round" />
<path d="M 158.0 186.0 L 159.0 186.0 L 159.0 186.0 L 161.0 186.0 L 167.0 184.0 L 176.0 181.0 L 183.0 179.0 L 184.0 178.0 " stroke="black" fill="none" stroke-width="5.0" stroke-linecap="round" stroke-linejoin="round" />
<path d="M 157.0 192.0 L 158.0 190.0 L 158.0 190.0 " stroke="black" fill="none" stroke-width="5.0" stroke-linecap="round" stroke-linejoin="round" />
<path d="M 159.0 192.0 L 165.0 195.0 L 174.0 201.0 L 185.0 208.0 L 193.0 213.0 L 194.0 214.0 " stroke="black" fill="none" stroke-width="5.0" stroke-linecap="round" stroke-linejoin="round" />
</svg>