<svg xmlns="http://www.w3.org/2000/svg" width="300" height="300" viewBox="0 0 300 300">
<path d="M 137.0 113.0 L 137.0 113.0 L 137.0 113.0 L 137.0 113.0 L 136.0 114.0 L 136.0 118.0 L 138.0 126.0 L 139.0 128.0 " stroke="black" fill="none" stroke-width="5.0" stroke-linecap="round" stroke-linejoin="round" />
<path d="M 122.0 121.0 L 122.0 121.0 L 123.0 121.0 L 124.0 121.0 L 128.0 121.0 L 138.0 121.0 L 152.0 119.0 L 167.0 118.0 L 177.0 117.0 L 179.0 117.0 " stroke="black" fill="none" stroke-width="5.0" stroke-linecap="round" stroke-linejoin="round" />
<path d="M 158.0 110.0 L 158.0 110.0 L 158.0 110.0 L 158.0 114.0 L 159.0 122.0 L 159.0 125.0 " stroke="black" fill="none" stroke-width="5.0" stroke-linecap="round" stroke-linejoin="round" />
<path d="M 138.0 144.0 L 138.0 144.0 L 138.0 144.0 L 141.0 144.0 L 149.0 143.0 L 159.0 142.0 L 163.0 142.0 " stroke="black" fill="none" stroke-width="5.0" stroke-linecap="round" stroke-linejoin="round" />
<path d="M 129.0 160.0 L 131.0 160.0 L 134.0 160.0 L 142.0 160.0 L 153.0 158.0 L 166.0 156.0 L 174.0 156.0 L 176.0 156.0 " stroke="black" fill="none" stroke-width="5.0" stroke-linecap="round" stroke-linejoin="round" />
<path d="M 150.0 134.0 L 150.0 134.0 L 150.0 134.0 L 150.0 134.0 L 151.0 140.0 L 152.0 151.0 L 153.0 154.0 " stroke="black" fill="none" stroke-width="5.0" stroke-linecap="round" stroke-linejoin="round" />
<path d="M 154.0 161.0 L 154.0 161.0 L 154.0 162.0 L 154.0 164.0 L 153.0 165.0 L 151.0 169.0 L 147.0 173.0 L 143.0 179.0 L 141.0 183.0 L 141.0 185.0 L 147.0 185.0 L 155.0 183.0 L 164.0 180.0 L 170.0 179.0 " stroke="black" fill="none" stroke-width="5.0" stroke-linecap="round" stroke-linejoin="round" />
<path d="M 167.0 170.0 L 168.0 171.0 L 169.0 173.0 L 169.0 175.0 L 172.0 180.0 L 176.0 186.0 L 177.0 189.0 " stroke="black" fill="none" stroke-width="5.0" stroke-linecap="round" stroke-linejoin="round" />
<path d="M 134.0 199.0 L 134.0 199.0 L 134.0 199.0 L 134.0 201.0 L 135.0 205.0 L 137.0 210.0 " stroke="black" fill="none" stroke-width="5.0" stroke-linecap="round" stroke-linejoin="round" />
<path d="M 136.0 200.0 L 136.0 200.0 L 137.0 200.0 L 140.0 199.0 L 148.0 198.0 L 159.0 196.0 L 169.0 195.0 L 176.0 195.0 L 179.0 198.0 L 180.0 202.0 L 181.0 205.0 L 181.0 208.0 " stroke="black" fill="none" stroke-width="5.0" stroke-linecap="round" stroke-linejoin="round" />
<path d="M 148.0 201.0 L 148.0 201.0 L 148.0 202.0 L 148.0 204.0 L 148.0 204.0 " stroke="black" fill="none" stroke-width="5.0" stroke-linecap="round" stroke-linejoin="round" />
<path d="M 162.0 197.0 L 162.0 199.0 L 163.0 202.0 L 162.0 206.0 L 160.0 209.0 " stroke="black" fill="none" stroke-width="5.0" stroke-linecap="round" stroke-linejoin="round" />
<path d="M 125.0 218.0 L 125.0 218.0 L 126.0 218.0 L 132.0 217.0 L 148.0 214.0 L 170.0 210.0 L 187.0 209.0 L 196.0 208.0 L 198.0 207.0 " stroke="black" fill="none" stroke-width="5.0" stroke-linecap="round" stroke-linejoin="round" />
</svg>