<svg xmlns="http://www.w3.org/2000/svg" width="300" height="300" viewBox="0 0 300 300">
<path d="M 132.0 102.0 L 132.0 102.0 L 132.0 102.0 L 132.0 102.0 L 132.0 103.0 L 132.0 105.0 L 133.0 110.0 L 135.0 116.0 L 135.0 122.0 L 135.0 123.0 " stroke="black" fill="none" stroke-width="5.0" stroke-linecap="round" stroke-linejoin="round" />
<path d="M 119.0 113.0 L 119.0 113.0 L 120.0 113.0 L 121.0 113.0 L 126.0 113.0 L 136.0 113.0 L 150.0 113.0 L 162.0 113.0 L 172.0 113.0 L 178.0 113.0 L 180.0 113.0 L 179.0 113.0 L 179.0 113.0 " stroke="black" fill="none" stroke-width="5.0" stroke-linecap="round" stroke-linejoin="round" />
<path d="M 156.0 98.0 L 156.0 98.0 L 157.0 99.0 L 157.0 101.0 L 158.0 108.0 L 160.0 116.0 L 161.0 122.0 " stroke="black" fill="none" stroke-width="5.0" stroke-linecap="round" stroke-linejoin="round" />
<path d="M 134.0 137.0 L 134.0 137.0 L 135.0 136.0 L 137.0 136.0 L 142.0 135.0 L 148.0 135.0 L 152.0 135.0 L 154.0 135.0 " stroke="black" fill="none" stroke-width="5.0" stroke-linecap="round" stroke-linejoin="round" />
<path d="M 113.0 153.0 L 113.0 153.0 L 114.0 154.0 L 117.0 154.0 L 126.0 155.0 L 143.0 155.0 L 159.0 155.0 L 170.0 155.0 L 177.0 154.0 L 178.0 154.0 " stroke="black" fill="none" stroke-width="5.0" stroke-linecap="round" stroke-linejoin="round" />
<path d="M 141.0 129.0 L 141.0 129.0 L 141.0 129.0 L 142.0 131.0 L 143.0 138.0 L 144.0 148.0 L 145.0 156.0 L 145.0 157.0 " stroke="black" fill="none" stroke-width="5.0" stroke-linecap="round" stroke-linejoin="round" />
<path d="M 163.0 135.0 L 164.0 135.0 L 164.0 135.0 L 164.0 135.0 L 161.0 138.0 L 157.0 143.0 L 149.0 151.0 L 137.0 160.0 L 124.0 169.0 L 114.0 176.0 L 110.0 180.0 " stroke="black" fill="none" stroke-width="5.0" stroke-linecap="round" stroke-linejoin="round" />
<path d="M 137.0 167.0 L 137.0 167.0 L 137.0 167.0 L 137.0 168.0 L 137.0 168.0 L 139.0 168.0 L 143.0 168.0 L 150.0 168.0 L 157.0 168.0 L 161.0 168.0 L 165.0 168.0 L 168.0 171.0 L 170.0 177.0 L 173.0 185.0 L 176.0 193.0 L 178.0 198.0 L 178.0 200.0 L 178.0 201.0 " stroke="black" fill="none" stroke-width="5.0" stroke-linecap="round" stroke-linejoin="round" />
<path d="M 135.0 170.0 L 135.0 170.0 L 135.0 171.0 L 134.0 171.0 L 133.0 173.0 L 133.0 179.0 L 133.0 188.0 L 134.0 195.0 L 135.0 198.0 " stroke="black" fill="none" stroke-width="5.0" stroke-linecap="round" stroke-linejoin="round" />
<path d="M 136.0 183.0 L 136.0 183.0 L 137.0 183.0 L 138.0 183.0 L 142.0 183.0 L 148.0 183.0 L 157.0 183.0 L 163.0 183.0 L 166.0 184.0 " stroke="black" fill="none" stroke-width="5.0" stroke-linecap="round" stroke-linejoin="round" />
<path d="M 134.0 202.0 L 135.0 203.0 L 138.0 204.0 L 143.0 205.0 L 151.0 205.0 L 160.0 205.0 L 167.0 206.0 L 168.0 206.0 " stroke="black" fill="none" stroke-width="5.0" stroke-linecap="round" stroke-linejoin="round" />
</svg>