<svg xmlns="http://www.w3.org/2000/svg" width="300" height="300" viewBox="0 0 300 300">
<path d="M 140.0 113.0 L 140.0 113.0 L 140.0 114.0 L 139.0 115.0 L 139.0 120.0 L 139.0 127.0 L 139.0 129.0 " stroke="black" fill="none" stroke-width="5.0" stroke-linecap="round" stroke-linejoin="round" />
<path d="M 124.0 125.0 L 126.0 125.0 L 129.0 125.0 L 136.0 124.0 L 148.0 121.0 L 161.0 118.0 L 170.0 116.0 L 172.0 116.0 " stroke="black" fill="none" stroke-width="5.0" stroke-linecap="round" stroke-linejoin="round" />
<path d="M 157.0 110.0 L 157.0 110.0 L 157.0 110.0 L 157.0 110.0 L 157.0 115.0 L 157.0 127.0 " stroke="black" fill="none" stroke-width="5.0" stroke-linecap="round" stroke-linejoin="round" />
<path d="M 132.0 145.0 L 132.0 145.0 L 132.0 145.0 L 131.0 148.0 L 132.0 154.0 L 133.0 161.0 L 134.0 165.0 " stroke="black" fill="none" stroke-width="5.0" stroke-linecap="round" stroke-linejoin="round" />
<path d="M 134.0 148.0 L 135.0 148.0 L 137.0 147.0 L 141.0 145.0 L 149.0 142.0 L 159.0 140.0 L 166.0 140.0 L 169.0 150.0 L 169.0 157.0 L 169.0 162.0 L 169.0 165.0 " stroke="black" fill="none" stroke-width="5.0" stroke-linecap="round" stroke-linejoin="round" />
<path d="M 140.0 159.0 L 141.0 159.0 L 143.0 159.0 L 146.0 159.0 L 151.0 158.0 L 158.0 156.0 L 164.0 155.0 L 165.0 155.0 " stroke="black" fill="none" stroke-width="5.0" stroke-linecap="round" stroke-linejoin="round" />
<path d="M 140.0 171.0 L 140.0 171.0 L 143.0 172.0 L 148.0 172.0 L 154.0 172.0 L 160.0 172.0 " stroke="black" fill="none" stroke-width="5.0" stroke-linecap="round" stroke-linejoin="round" />
<path d="M 153.0 147.0 L 153.0 147.0 L 152.0 149.0 L 151.0 154.0 L 151.0 166.0 L 153.0 182.0 L 154.0 189.0 " stroke="black" fill="none" stroke-width="5.0" stroke-linecap="round" stroke-linejoin="round" />
<path d="M 134.0 196.0 L 134.0 196.0 L 134.0 196.0 L 137.0 196.0 L 146.0 194.0 L 157.0 193.0 L 166.0 192.0 " stroke="black" fill="none" stroke-width="5.0" stroke-linecap="round" stroke-linejoin="round" />
<path d="M 169.0 184.0 L 169.0 184.0 L 170.0 185.0 L 171.0 188.0 L 173.0 194.0 L 175.0 201.0 L 176.0 204.0 " stroke="black" fill="none" stroke-width="5.0" stroke-linecap="round" stroke-linejoin="round" />
<path d="M 130.0 186.0 L 130.0 187.0 L 128.0 191.0 L 127.0 199.0 L 128.0 211.0 L 130.0 218.0 L 131.0 218.0 " stroke="black" fill="none" stroke-width="5.0" stroke-linecap="round" stroke-linejoin="round" />
<path d="M 133.0 185.0 L 134.0 184.0 L 136.0 184.0 L 141.0 182.0 L 151.0 179.0 L 164.0 176.0 L 175.0 174.0 L 182.0 175.0 L 186.0 182.0 L 189.0 190.0 L 193.0 200.0 L 196.0 208.0 L 196.0 213.0 L 195.0 217.0 L 189.0 219.0 L 180.0 220.0 L 174.0 220.0 " stroke="black" fill="none" stroke-width="5.0" stroke-linecap="round" stroke-linejoin="round" />
</svg>