<svg xmlns="http://www.w3.org/2000/svg" width="300" height="300" viewBox="0 0 300 300">
<path d="M 109.0 134.0 L 109.0 134.0 L 110.0 135.0 L 111.0 138.0 L 113.0 142.0 L 113.0 145.0 " stroke="black" fill="none" stroke-width="5.0" stroke-linecap="round" stroke-linejoin="round" />
<path d="M 104.0 158.0 L 104.0 158.0 L 104.0 158.0 L 104.0 158.0 L 104.0 158.0 L 105.0 158.0 L 106.0 158.0 L 109.0 159.0 L 111.0 161.0 L 111.0 163.0 L 111.0 166.0 L 109.0 169.0 L 107.0 172.0 L 106.0 174.0 L 106.0 177.0 L 106.0 181.0 L 107.0 185.0 L 108.0 189.0 L 109.0 191.0 " stroke="black" fill="none" stroke-width="5.0" stroke-linecap="round" stroke-linejoin="round" />
<path d="M 96.0 201.0 L 96.0 201.0 L 96.0 201.0 L 96.0 201.0 L 96.0 201.0 L 96.0 201.0 L 100.0 200.0 L 107.0 199.0 L 118.0 198.0 L 132.0 200.0 L 148.0 204.0 L 164.0 207.0 L 179.0 209.0 L 190.0 209.0 L 195.0 206.0 " stroke="black" fill="none" stroke-width="5.0" stroke-linecap="round" stroke-linejoin="round" />
<path d="M 136.0 93.0 L 136.0 93.0 L 136.0 94.0 L 136.0 95.0 L 136.0 98.0 L 137.0 103.0 L 138.0 108.0 L 138.0 111.0 " stroke="black" fill="none" stroke-width="5.0" stroke-linecap="round" stroke-linejoin="round" />
<path d="M 124.0 104.0 L 124.0 104.0 L 124.0 103.0 L 123.0 103.0 L 126.0 102.0 L 135.0 102.0 L 148.0 101.0 L 162.0 100.0 L 171.0 100.0 L 176.0 101.0 L 177.0 102.0 " stroke="black" fill="none" stroke-width="5.0" stroke-linecap="round" stroke-linejoin="round" />
<path d="M 161.0 86.0 L 161.0 87.0 L 161.0 87.0 L 161.0 90.0 L 162.0 99.0 L 163.0 109.0 L 163.0 114.0 " stroke="black" fill="none" stroke-width="5.0" stroke-linecap="round" stroke-linejoin="round" />
<path d="M 151.0 120.0 L 151.0 120.0 L 151.0 120.0 L 151.0 120.0 L 151.0 121.0 L 150.0 122.0 L 147.0 127.0 L 140.0 135.0 L 133.0 143.0 L 132.0 144.0 " stroke="black" fill="none" stroke-width="5.0" stroke-linecap="round" stroke-linejoin="round" />
<path d="M 145.0 127.0 L 145.0 127.0 L 145.0 128.0 L 145.0 128.0 L 147.0 128.0 L 152.0 128.0 L 158.0 128.0 L 163.0 128.0 L 166.0 129.0 L 166.0 129.0 L 165.0 133.0 L 160.0 138.0 L 153.0 145.0 L 145.0 151.0 L 135.0 156.0 L 126.0 159.0 L 125.0 159.0 " stroke="black" fill="none" stroke-width="5.0" stroke-linecap="round" stroke-linejoin="round" />
<path d="M 143.0 137.0 L 143.0 137.0 L 143.0 137.0 L 145.0 137.0 L 149.0 137.0 L 157.0 140.0 L 168.0 143.0 L 176.0 146.0 L 181.0 147.0 " stroke="black" fill="none" stroke-width="5.0" stroke-linecap="round" stroke-linejoin="round" />
<path d="M 148.0 155.0 L 148.0 155.0 L 149.0 155.0 L 150.0 155.0 L 152.0 155.0 L 157.0 155.0 L 162.0 155.0 L 166.0 155.0 L 168.0 155.0 " stroke="black" fill="none" stroke-width="5.0" stroke-linecap="round" stroke-linejoin="round" />
<path d="M 148.0 163.0 L 148.0 163.0 L 148.0 163.0 L 149.0 164.0 L 152.0 164.0 L 157.0 164.0 L 162.0 164.0 L 164.0 165.0 " stroke="black" fill="none" stroke-width="5.0" stroke-linecap="round" stroke-linejoin="round" />
<path d="M 137.0 178.0 L 137.0 178.0 L 137.0 178.0 L 139.0 179.0 L 145.0 179.0 L 157.0 180.0 L 172.0 179.0 L 179.0 178.0 " stroke="black" fill="none" stroke-width="5.0" stroke-linecap="round" stroke-linejoin="round" />
<path d="M 155.0 146.0 L 155.0 146.0 L 155.0 146.0 L 155.0 146.0 L 157.0 153.0 L 160.0 170.0 L 161.0 189.0 L 161.0 198.0 " stroke="black" fill="none" stroke-width="5.0" stroke-linecap="round" stroke-linejoin="round" />
</svg>