<svg xmlns="http://www.w3.org/2000/svg" width="300" height="300" viewBox="0 0 300 300">
<path d="M 137.0 107.0 L 137.0 107.0 L 137.0 107.0 L 137.0 107.0 L 137.0 107.0 L 137.0 109.0 L 137.0 114.0 L 138.0 122.0 L 139.0 123.0 " stroke="black" fill="none" stroke-width="5.0" stroke-linecap="round" stroke-linejoin="round" />
<path d="M 122.0 120.0 L 122.0 120.0 L 122.0 120.0 L 123.0 120.0 L 128.0 120.0 L 141.0 118.0 L 158.0 116.0 L 172.0 115.0 L 180.0 115.0 L 183.0 115.0 L 183.0 115.0 L 183.0 115.0 " stroke="black" fill="none" stroke-width="5.0" stroke-linecap="round" stroke-linejoin="round" />
<path d="M 164.0 102.0 L 165.0 102.0 L 165.0 102.0 L 166.0 104.0 L 167.0 111.0 L 167.0 121.0 L 167.0 128.0 " stroke="black" fill="none" stroke-width="5.0" stroke-linecap="round" stroke-linejoin="round" />
<path d="M 129.0 145.0 L 129.0 145.0 L 129.0 145.0 L 130.0 145.0 L 138.0 145.0 L 153.0 145.0 L 169.0 145.0 L 180.0 146.0 L 183.0 148.0 " stroke="black" fill="none" stroke-width="5.0" stroke-linecap="round" stroke-linejoin="round" />
<path d="M 152.0 128.0 L 152.0 128.0 L 152.0 129.0 L 152.0 135.0 L 154.0 153.0 L 155.0 175.0 L 156.0 192.0 L 156.0 202.0 L 156.0 206.0 L 156.0 208.0 " stroke="black" fill="none" stroke-width="5.0" stroke-linecap="round" stroke-linejoin="round" />
<path d="M 143.0 153.0 L 143.0 153.0 L 143.0 153.0 L 143.0 153.0 L 142.0 153.0 L 142.0 156.0 L 139.0 161.0 L 133.0 168.0 L 131.0 171.0 " stroke="black" fill="none" stroke-width="5.0" stroke-linecap="round" stroke-linejoin="round" />
<path d="M 140.0 160.0 L 140.0 160.0 L 140.0 161.0 L 140.0 161.0 L 144.0 163.0 L 147.0 164.0 " stroke="black" fill="none" stroke-width="5.0" stroke-linecap="round" stroke-linejoin="round" />
<path d="M 167.0 151.0 L 167.0 151.0 L 167.0 151.0 L 166.0 151.0 L 165.0 153.0 L 161.0 159.0 L 156.0 167.0 " stroke="black" fill="none" stroke-width="5.0" stroke-linecap="round" stroke-linejoin="round" />
<path d="M 160.0 160.0 L 161.0 160.0 L 161.0 161.0 L 163.0 162.0 L 168.0 163.0 L 174.0 165.0 L 178.0 167.0 " stroke="black" fill="none" stroke-width="5.0" stroke-linecap="round" stroke-linejoin="round" />
<path d="M 153.0 168.0 L 153.0 168.0 L 153.0 168.0 L 152.0 169.0 L 149.0 172.0 L 141.0 180.0 L 129.0 190.0 L 118.0 197.0 L 115.0 198.0 " stroke="black" fill="none" stroke-width="5.0" stroke-linecap="round" stroke-linejoin="round" />
<path d="M 153.0 174.0 L 153.0 174.0 L 156.0 174.0 L 161.0 175.0 L 170.0 180.0 L 182.0 186.0 L 193.0 191.0 L 198.0 193.0 " stroke="black" fill="none" stroke-width="5.0" stroke-linecap="round" stroke-linejoin="round" />
</svg>