<svg xmlns="http://www.w3.org/2000/svg" width="300" height="300" viewBox="0 0 300 300">
<path d="M 137.0 100.0 L 137.0 100.0 L 137.0 100.0 L 137.0 100.0 L 137.0 100.0 L 137.0 104.0 L 137.0 112.0 L 138.0 118.0 L 138.0 120.0 " stroke="black" fill="none" stroke-width="5.0" stroke-linecap="round" stroke-linejoin="round" />
<path d="M 120.0 112.0 L 120.0 112.0 L 121.0 112.0 L 122.0 112.0 L 126.0 112.0 L 136.0 112.0 L 151.0 111.0 L 165.0 111.0 L 174.0 111.0 L 178.0 111.0 L 178.0 111.0 " stroke="black" fill="none" stroke-width="5.0" stroke-linecap="round" stroke-linejoin="round" />
<path d="M 162.0 100.0 L 162.0 100.0 L 162.0 100.0 L 163.0 102.0 L 163.0 109.0 L 164.0 118.0 L 164.0 123.0 " stroke="black" fill="none" stroke-width="5.0" stroke-linecap="round" stroke-linejoin="round" />
<path d="M 123.0 137.0 L 123.0 137.0 L 123.0 137.0 L 123.0 137.0 L 123.0 137.0 L 125.0 137.0 L 129.0 137.0 L 133.0 137.0 L 136.0 139.0 L 138.0 140.0 L 139.0 140.0 L 138.0 142.0 L 135.0 144.0 L 133.0 147.0 L 132.0 152.0 L 133.0 155.0 L 137.0 159.0 L 140.0 161.0 L 142.0 164.0 L 142.0 166.0 L 139.0 167.0 L 134.0 168.0 L 132.0 168.0 " stroke="black" fill="none" stroke-width="5.0" stroke-linecap="round" stroke-linejoin="round" />
<path d="M 121.0 138.0 L 121.0 139.0 L 120.0 141.0 L 119.0 148.0 L 119.0 161.0 L 120.0 177.0 L 121.0 191.0 L 121.0 199.0 L 121.0 201.0 L 121.0 200.0 " stroke="black" fill="none" stroke-width="5.0" stroke-linecap="round" stroke-linejoin="round" />
<path d="M 156.0 134.0 L 156.0 134.0 L 156.0 134.0 L 156.0 134.0 L 156.0 134.0 L 156.0 135.0 L 154.0 138.0 L 150.0 142.0 L 146.0 146.0 L 145.0 146.0 " stroke="black" fill="none" stroke-width="5.0" stroke-linecap="round" stroke-linejoin="round" />
<path d="M 158.0 134.0 L 158.0 134.0 L 159.0 134.0 L 160.0 134.0 L 163.0 135.0 L 169.0 138.0 L 175.0 141.0 L 179.0 144.0 L 180.0 146.0 " stroke="black" fill="none" stroke-width="5.0" stroke-linecap="round" stroke-linejoin="round" />
<path d="M 152.0 150.0 L 152.0 150.0 L 153.0 150.0 L 154.0 150.0 L 157.0 150.0 L 161.0 150.0 L 166.0 149.0 L 168.0 149.0 L 169.0 149.0 " stroke="black" fill="none" stroke-width="5.0" stroke-linecap="round" stroke-linejoin="round" />
<path d="M 151.0 158.0 L 152.0 158.0 L 153.0 158.0 L 155.0 158.0 L 157.0 158.0 L 161.0 158.0 L 166.0 157.0 L 169.0 157.0 L 170.0 157.0 L 170.0 159.0 L 166.0 164.0 L 162.0 167.0 L 160.0 168.0 " stroke="black" fill="none" stroke-width="5.0" stroke-linecap="round" stroke-linejoin="round" />
<path d="M 150.0 173.0 L 150.0 173.0 L 150.0 173.0 L 150.0 173.0 L 151.0 173.0 L 155.0 173.0 L 162.0 173.0 L 169.0 172.0 L 172.0 172.0 L 172.0 172.0 " stroke="black" fill="none" stroke-width="5.0" stroke-linecap="round" stroke-linejoin="round" />
<path d="M 145.0 183.0 L 145.0 183.0 L 145.0 182.0 L 147.0 182.0 L 153.0 181.0 L 162.0 181.0 L 171.0 180.0 L 174.0 180.0 L 175.0 180.0 " stroke="black" fill="none" stroke-width="5.0" stroke-linecap="round" stroke-linejoin="round" />
<path d="M 159.0 183.0 L 159.0 183.0 L 159.0 183.0 L 159.0 183.0 L 158.0 184.0 L 155.0 187.0 L 153.0 191.0 L 152.0 196.0 L 152.0 200.0 L 158.0 202.0 L 167.0 202.0 L 176.0 200.0 L 181.0 199.0 L 183.0 199.0 " stroke="black" fill="none" stroke-width="5.0" stroke-linecap="round" stroke-linejoin="round" />
<path d="M 182.0 195.0 L 182.0 195.0 L 182.0 196.0 L 183.0 198.0 L 186.0 201.0 L 189.0 205.0 L 190.0 208.0 " stroke="black" fill="none" stroke-width="5.0" stroke-linecap="round" stroke-linejoin="round" />
</svg>