<svg xmlns="http://www.w3.org/2000/svg" width="300" height="300" viewBox="0 0 300 300">
<path d="M 137.0 103.0 L 137.0 103.0 L 137.0 103.0 L 137.0 103.0 L 137.0 102.0 L 137.0 104.0 L 138.0 109.0 L 139.0 117.0 L 140.0 123.0 " stroke="black" fill="none" stroke-width="5.0" stroke-linecap="round" stroke-linejoin="round" />
<path d="M 123.0 116.0 L 124.0 116.0 L 124.0 116.0 L 125.0 116.0 L 131.0 116.0 L 143.0 114.0 L 158.0 112.0 L 170.0 111.0 L 175.0 111.0 L 176.0 111.0 " stroke="black" fill="none" stroke-width="5.0" stroke-linecap="round" stroke-linejoin="round" />
<path d="M 159.0 99.0 L 159.0 100.0 L 159.0 101.0 L 159.0 105.0 L 160.0 113.0 L 160.0 122.0 L 160.0 124.0 " stroke="black" fill="none" stroke-width="5.0" stroke-linecap="round" stroke-linejoin="round" />
<path d="M 124.0 143.0 L 124.0 143.0 L 124.0 143.0 L 124.0 143.0 L 126.0 143.0 L 128.0 145.0 L 132.0 148.0 L 133.0 148.0 " stroke="black" fill="none" stroke-width="5.0" stroke-linecap="round" stroke-linejoin="round" />
<path d="M 119.0 166.0 L 119.0 166.0 L 120.0 166.0 L 121.0 166.0 L 124.0 166.0 L 127.0 166.0 " stroke="black" fill="none" stroke-width="5.0" stroke-linecap="round" stroke-linejoin="round" />
<path d="M 112.0 189.0 L 113.0 189.0 L 114.0 189.0 L 118.0 189.0 L 126.0 186.0 L 135.0 183.0 " stroke="black" fill="none" stroke-width="5.0" stroke-linecap="round" stroke-linejoin="round" />
<path d="M 160.0 134.0 L 161.0 134.0 L 161.0 134.0 L 161.0 134.0 L 161.0 134.0 L 160.0 134.0 L 157.0 137.0 L 156.0 138.0 " stroke="black" fill="none" stroke-width="5.0" stroke-linecap="round" stroke-linejoin="round" />
<path d="M 146.0 147.0 L 146.0 147.0 L 146.0 147.0 L 146.0 148.0 L 147.0 149.0 L 148.0 150.0 " stroke="black" fill="none" stroke-width="5.0" stroke-linecap="round" stroke-linejoin="round" />
<path d="M 163.0 144.0 L 163.0 144.0 L 163.0 144.0 L 163.0 144.0 L 162.0 145.0 L 162.0 148.0 L 161.0 148.0 " stroke="black" fill="none" stroke-width="5.0" stroke-linecap="round" stroke-linejoin="round" />
<path d="M 143.0 159.0 L 143.0 160.0 L 143.0 160.0 L 144.0 161.0 L 147.0 161.0 L 153.0 160.0 L 161.0 159.0 L 167.0 158.0 L 170.0 158.0 " stroke="black" fill="none" stroke-width="5.0" stroke-linecap="round" stroke-linejoin="round" />
<path d="M 155.0 146.0 L 155.0 146.0 L 154.0 146.0 L 154.0 146.0 L 154.0 150.0 L 155.0 160.0 L 157.0 170.0 L 157.0 177.0 " stroke="black" fill="none" stroke-width="5.0" stroke-linecap="round" stroke-linejoin="round" />
<path d="M 156.0 160.0 L 156.0 160.0 L 156.0 160.0 L 156.0 161.0 L 154.0 162.0 L 152.0 166.0 L 147.0 172.0 L 143.0 177.0 " stroke="black" fill="none" stroke-width="5.0" stroke-linecap="round" stroke-linejoin="round" />
<path d="M 157.0 165.0 L 158.0 165.0 L 160.0 165.0 L 163.0 167.0 L 168.0 169.0 L 174.0 171.0 L 178.0 174.0 L 178.0 175.0 " stroke="black" fill="none" stroke-width="5.0" stroke-linecap="round" stroke-linejoin="round" />
<path d="M 143.0 183.0 L 143.0 183.0 L 143.0 183.0 L 142.0 185.0 L 142.0 188.0 L 143.0 193.0 L 144.0 197.0 " stroke="black" fill="none" stroke-width="5.0" stroke-linecap="round" stroke-linejoin="round" />
<path d="M 146.0 183.0 L 146.0 182.0 L 147.0 182.0 L 149.0 181.0 L 154.0 180.0 L 162.0 179.0 L 169.0 179.0 L 174.0 181.0 L 177.0 184.0 L 179.0 187.0 L 180.0 192.0 L 180.0 196.0 L 180.0 199.0 " stroke="black" fill="none" stroke-width="5.0" stroke-linecap="round" stroke-linejoin="round" />
<path d="M 150.0 192.0 L 150.0 192.0 L 150.0 192.0 L 150.0 192.0 L 153.0 192.0 L 160.0 192.0 L 167.0 192.0 L 169.0 192.0 " stroke="black" fill="none" stroke-width="5.0" stroke-linecap="round" stroke-linejoin="round" />
<path d="M 156.0 183.0 L 156.0 183.0 L 156.0 183.0 L 156.0 183.0 L 157.0 187.0 L 158.0 192.0 " stroke="black" fill="none" stroke-width="5.0" stroke-linecap="round" stroke-linejoin="round" />
<path d="M 149.0 201.0 L 149.0 201.0 L 150.0 201.0 L 154.0 202.0 L 164.0 202.0 L 174.0 202.0 L 178.0 202.0 " stroke="black" fill="none" stroke-width="5.0" stroke-linecap="round" stroke-linejoin="round" />
</svg>