<svg xmlns="http://www.w3.org/2000/svg" width="300" height="300" viewBox="0 0 300 300">
<path d="M 142.14285714285717 112.14285714285718 L 142.14285714285717 112.14285714285718 L 142.14285714285717 112.14285714285718 L 142.14285714285717 112.14285714285718 L 142.14285714285717 114.28571428571432 L 142.8571428571429 120.71428571428574 L 143.5714285714286 130.00000000000006 L 143.5714285714286 134.28571428571433 " stroke="black" fill="none" stroke-width="5.0" stroke-linecap="round" stroke-linejoin="round" />
<path d="M 123.5714285714286 129.28571428571433 L 124.28571428571432 129.28571428571433 L 125.00000000000001 129.28571428571433 L 127.14285714285718 129.28571428571433 L 132.8571428571429 127.14285714285718 L 145.00000000000006 124.28571428571432 L 160.00000000000006 122.14285714285718 L 172.14285714285717 120.00000000000001 L 176.42857142857144 119.28571428571432 " stroke="black" fill="none" stroke-width="5.0" stroke-linecap="round" stroke-linejoin="round" />
<path d="M 162.8571428571429 107.14285714285715 L 162.8571428571429 110.00000000000001 L 162.8571428571429 115.00000000000001 L 162.8571428571429 124.28571428571432 L 162.14285714285717 134.28571428571433 L 161.42857142857144 135.71428571428572 " stroke="black" fill="none" stroke-width="5.0" stroke-linecap="round" stroke-linejoin="round" />
<path d="M 130.00000000000006 148.5714285714286 L 130.00000000000006 148.5714285714286 L 130.71428571428572 148.5714285714286 L 135.00000000000006 148.5714285714286 L 146.42857142857144 147.8571428571429 L 160.71428571428572 145.71428571428572 L 174.28571428571433 145.00000000000006 L 177.14285714285717 145.00000000000006 " stroke="black" fill="none" stroke-width="5.0" stroke-linecap="round" stroke-linejoin="round" />
<path d="M 132.8571428571429 150.71428571428572 L 132.8571428571429 150.71428571428572 L 132.8571428571429 150.71428571428572 L 132.8571428571429 151.42857142857144 L 132.8571428571429 155.71428571428572 L 132.14285714285717 165.71428571428572 L 130.71428571428572 179.28571428571433 L 128.5714285714286 191.42857142857144 L 126.42857142857146 200.00000000000006 L 126.42857142857146 202.14285714285722 " stroke="black" fill="none" stroke-width="5.0" stroke-linecap="round" stroke-linejoin="round" />
<path d="M 122.85714285714288 157.14285714285717 L 122.85714285714288 157.14285714285717 L 123.5714285714286 157.14285714285717 L 123.5714285714286 157.8571428571429 L 123.5714285714286 159.28571428571433 L 123.5714285714286 162.14285714285717 L 122.14285714285718 167.14285714285717 L 121.42857142857146 170.71428571428572 L 122.14285714285718 172.14285714285717 L 125.71428571428574 171.42857142857144 L 129.28571428571433 169.28571428571433 " stroke="black" fill="none" stroke-width="5.0" stroke-linecap="round" stroke-linejoin="round" />
<path d="M 117.14285714285718 177.8571428571429 L 117.14285714285718 177.8571428571429 L 117.14285714285718 178.5714285714286 L 118.5714285714286 178.5714285714286 L 122.14285714285718 178.5714285714286 L 126.42857142857146 177.8571428571429 L 127.85714285714288 177.8571428571429 " stroke="black" fill="none" stroke-width="5.0" stroke-linecap="round" stroke-linejoin="round" />
<path d="M 116.42857142857146 180.71428571428578 L 115.71428571428574 181.42857142857144 L 115.00000000000001 182.8571428571429 L 114.28571428571432 185.00000000000006 L 114.28571428571432 190.71428571428578 L 114.28571428571432 197.14285714285722 " stroke="black" fill="none" stroke-width="5.0" stroke-linecap="round" stroke-linejoin="round" />
<path d="M 140.71428571428572 160.71428571428572 L 140.71428571428572 160.71428571428572 L 140.71428571428572 160.71428571428572 L 140.71428571428572 161.42857142857144 L 141.42857142857144 161.42857142857144 L 145.00000000000006 161.42857142857144 L 149.28571428571433 161.42857142857144 L 150.71428571428572 161.42857142857144 " stroke="black" fill="none" stroke-width="5.0" stroke-linecap="round" stroke-linejoin="round" />
<path d="M 147.14285714285717 162.14285714285717 L 147.14285714285717 162.8571428571429 L 147.14285714285717 164.28571428571433 L 146.42857142857144 165.71428571428572 L 146.42857142857144 167.8571428571429 L 146.42857142857144 170.71428571428572 " stroke="black" fill="none" stroke-width="5.0" stroke-linecap="round" stroke-linejoin="round" />
<path d="M 139.28571428571433 173.5714285714286 L 139.28571428571433 173.5714285714286 L 139.28571428571433 174.28571428571433 L 140.00000000000006 175.00000000000006 L 142.8571428571429 175.00000000000006 L 146.42857142857144 174.28571428571433 L 150.00000000000006 174.28571428571433 L 151.42857142857144 174.28571428571433 L 152.14285714285717 175.00000000000006 L 152.14285714285717 176.42857142857144 L 151.42857142857144 177.8571428571429 L 149.28571428571433 180.00000000000006 L 146.42857142857144 181.42857142857144 L 142.8571428571429 182.8571428571429 L 140.00000000000006 183.5714285714286 L 140.00000000000006 183.5714285714286 " stroke="black" fill="none" stroke-width="5.0" stroke-linecap="round" stroke-linejoin="round" />
<path d="M 145.71428571428572 184.28571428571433 L 145.71428571428572 184.28571428571433 L 145.71428571428572 185.00000000000006 L 145.71428571428572 186.42857142857144 L 146.42857142857144 189.28571428571433 L 146.42857142857144 190.71428571428578 " stroke="black" fill="none" stroke-width="5.0" stroke-linecap="round" stroke-linejoin="round" />
<path d="M 136.42857142857144 194.28571428571433 L 137.14285714285717 195.00000000000006 L 140.00000000000006 195.71428571428578 L 145.00000000000006 195.71428571428578 L 151.42857142857144 194.28571428571433 L 154.28571428571433 193.5714285714286 " stroke="black" fill="none" stroke-width="5.0" stroke-linecap="round" stroke-linejoin="round" />
<path d="M 140.00000000000006 161.42857142857144 L 140.00000000000006 162.8571428571429 L 140.00000000000006 165.00000000000006 L 140.00000000000006 170.00000000000006 L 139.28571428571433 179.28571428571433 L 139.28571428571433 185.71428571428578 " stroke="black" fill="none" stroke-width="5.0" stroke-linecap="round" stroke-linejoin="round" />
<path d="M 157.8571428571429 140.71428571428572 L 158.5714285714286 140.71428571428572 L 158.5714285714286 140.00000000000006 L 158.5714285714286 139.28571428571433 L 158.5714285714286 139.28571428571433 L 158.5714285714286 141.42857142857144 L 160.00000000000006 148.5714285714286 L 164.28571428571433 162.14285714285717 L 171.42857142857144 179.28571428571433 L 176.42857142857144 192.14285714285722 L 179.28571428571433 198.5714285714286 L 180.00000000000006 200.00000000000006 " stroke="black" fill="none" stroke-width="5.0" stroke-linecap="round" stroke-linejoin="round" />
<path d="M 180.71428571428578 172.14285714285717 L 179.28571428571433 172.14285714285717 L 177.8571428571429 172.8571428571429 L 175.00000000000006 175.71428571428578 L 170.00000000000006 182.14285714285717 L 162.14285714285717 188.5714285714286 L 158.5714285714286 190.71428571428578 " stroke="black" fill="none" stroke-width="5.0" stroke-linecap="round" stroke-linejoin="round" />
<path d="M 178.5714285714286 131.42857142857144 L 178.5714285714286 132.14285714285717 L 178.5714285714286 132.8571428571429 L 178.5714285714286 134.28571428571433 L 180.00000000000006 136.42857142857144 L 182.14285714285717 137.8571428571429 " stroke="black" fill="none" stroke-width="5.0" stroke-linecap="round" stroke-linejoin="round" />
</svg>