<svg xmlns="http://www.w3.org/2000/svg" width="300" height="300" viewBox="0 0 300 300">
<path d="M 135.0 107.0 L 135.0 107.0 L 135.0 107.0 L 135.0 107.0 L 135.0 109.0 L 135.0 114.0 L 136.0 121.0 L 137.0 127.0 L 137.0 128.0 " stroke="black" fill="none" stroke-width="5.0" stroke-linecap="round" stroke-linejoin="round" />
<path d="M 117.0 119.0 L 117.0 119.0 L 117.0 119.0 L 117.0 119.0 L 121.0 119.0 L 133.0 117.0 L 150.0 113.0 L 165.0 111.0 L 175.0 110.0 L 179.0 110.0 " stroke="black" fill="none" stroke-width="5.0" stroke-linecap="round" stroke-linejoin="round" />
<path d="M 157.0 101.0 L 157.0 101.0 L 157.0 102.0 L 157.0 104.0 L 158.0 111.0 L 158.0 120.0 L 159.0 123.0 " stroke="black" fill="none" stroke-width="5.0" stroke-linecap="round" stroke-linejoin="round" />
<path d="M 120.0 141.0 L 120.0 141.0 L 120.0 141.0 L 121.0 141.0 L 124.0 141.0 L 130.0 141.0 L 135.0 141.0 L 136.0 141.0 " stroke="black" fill="none" stroke-width="5.0" stroke-linecap="round" stroke-linejoin="round" />
<path d="M 110.0 156.0 L 110.0 156.0 L 112.0 156.0 L 116.0 156.0 L 124.0 156.0 L 134.0 155.0 L 142.0 155.0 L 143.0 155.0 " stroke="black" fill="none" stroke-width="5.0" stroke-linecap="round" stroke-linejoin="round" />
<path d="M 124.0 132.0 L 124.0 133.0 L 124.0 134.0 L 124.0 137.0 L 125.0 143.0 L 127.0 149.0 L 127.0 150.0 " stroke="black" fill="none" stroke-width="5.0" stroke-linecap="round" stroke-linejoin="round" />
<path d="M 120.0 157.0 L 120.0 157.0 L 120.0 157.0 L 120.0 157.0 L 120.0 160.0 L 119.0 164.0 L 117.0 170.0 L 116.0 173.0 " stroke="black" fill="none" stroke-width="5.0" stroke-linecap="round" stroke-linejoin="round" />
<path d="M 135.0 155.0 L 135.0 155.0 L 135.0 155.0 L 135.0 156.0 L 135.0 158.0 L 135.0 161.0 L 136.0 165.0 L 140.0 167.0 L 144.0 168.0 " stroke="black" fill="none" stroke-width="5.0" stroke-linecap="round" stroke-linejoin="round" />
<path d="M 121.0 175.0 L 122.0 175.0 L 124.0 175.0 L 127.0 175.0 L 130.0 175.0 L 134.0 175.0 L 136.0 175.0 " stroke="black" fill="none" stroke-width="5.0" stroke-linecap="round" stroke-linejoin="round" />
<path d="M 112.0 187.0 L 112.0 187.0 L 113.0 187.0 L 115.0 187.0 L 120.0 187.0 L 130.0 187.0 L 139.0 186.0 L 144.0 186.0 " stroke="black" fill="none" stroke-width="5.0" stroke-linecap="round" stroke-linejoin="round" />
<path d="M 126.0 169.0 L 127.0 169.0 L 128.0 169.0 L 128.0 172.0 L 129.0 179.0 L 130.0 187.0 " stroke="black" fill="none" stroke-width="5.0" stroke-linecap="round" stroke-linejoin="round" />
<path d="M 151.0 150.0 L 151.0 150.0 L 151.0 150.0 L 151.0 150.0 L 152.0 150.0 L 155.0 150.0 L 160.0 149.0 L 165.0 149.0 L 168.0 149.0 L 169.0 153.0 L 170.0 161.0 L 172.0 170.0 L 175.0 176.0 L 179.0 179.0 L 182.0 179.0 L 182.0 179.0 " stroke="black" fill="none" stroke-width="5.0" stroke-linecap="round" stroke-linejoin="round" />
<path d="M 157.0 141.0 L 157.0 140.0 L 157.0 140.0 L 156.0 141.0 L 156.0 149.0 L 154.0 163.0 L 151.0 178.0 L 148.0 188.0 " stroke="black" fill="none" stroke-width="5.0" stroke-linecap="round" stroke-linejoin="round" />
<path d="M 147.0 165.0 L 147.0 165.0 L 148.0 166.0 L 151.0 169.0 L 158.0 176.0 L 166.0 181.0 L 167.0 182.0 " stroke="black" fill="none" stroke-width="5.0" stroke-linecap="round" stroke-linejoin="round" />
<path d="M 129.0 194.0 L 130.0 194.0 L 131.0 195.0 L 133.0 195.0 L 137.0 195.0 L 143.0 195.0 L 151.0 195.0 L 156.0 194.0 " stroke="black" fill="none" stroke-width="5.0" stroke-linecap="round" stroke-linejoin="round" />
<path d="M 118.0 207.0 L 118.0 207.0 L 120.0 207.0 L 123.0 207.0 L 130.0 206.0 L 142.0 205.0 L 155.0 204.0 L 164.0 204.0 L 167.0 204.0 " stroke="black" fill="none" stroke-width="5.0" stroke-linecap="round" stroke-linejoin="round" />
<path d="M 143.0 208.0 L 143.0 208.0 L 143.0 208.0 L 143.0 209.0 L 143.0 210.0 L 140.0 212.0 L 136.0 216.0 L 130.0 222.0 L 127.0 226.0 L 126.0 229.0 L 131.0 230.0 L 140.0 230.0 L 151.0 229.0 L 161.0 226.0 L 164.0 226.0 " stroke="black" fill="none" stroke-width="5.0" stroke-linecap="round" stroke-linejoin="round" />
<path d="M 164.0 217.0 L 165.0 217.0 L 166.0 217.0 L 168.0 219.0 L 171.0 225.0 L 175.0 233.0 L 177.0 238.0 " stroke="black" fill="none" stroke-width="5.0" stroke-linecap="round" stroke-linejoin="round" />
</svg>