<svg xmlns="http://www.w3.org/2000/svg" width="300" height="300" viewBox="0 0 300 300">
<path d="M 135.0 102.49999999999999 L 135.0 106.66666666666667 L 135.0 111.66666666666667 L 135.0 115.83333333333333 L 135.0 119.99999999999999 " stroke="black" fill="none" stroke-width="5.0" stroke-linecap="round" stroke-linejoin="round" />
<path d="M 120.83333333333333 112.49999999999999 L 120.83333333333333 112.49999999999999 L 120.83333333333333 112.49999999999999 L 123.33333333333333 112.49999999999999 L 131.66666666666669 112.49999999999999 L 145.0 111.66666666666667 L 159.16666666666663 110.83333333333333 L 170.83333333333331 109.16666666666667 L 177.5 109.16666666666667 L 180.83333333333331 109.16666666666667 L 182.5 109.16666666666667 " stroke="black" fill="none" stroke-width="5.0" stroke-linecap="round" stroke-linejoin="round" />
<path d="M 163.33333333333331 100.83333333333333 L 163.33333333333331 100.83333333333333 L 163.33333333333331 100.83333333333333 L 164.16666666666663 101.66666666666667 L 164.16666666666663 106.66666666666667 L 165.0 114.99999999999999 L 165.0 117.49999999999999 " stroke="black" fill="none" stroke-width="5.0" stroke-linecap="round" stroke-linejoin="round" />
<path d="M 114.99999999999999 130.83333333333331 L 114.99999999999999 130.83333333333331 L 114.99999999999999 130.83333333333331 L 116.66666666666667 130.83333333333331 L 121.66666666666667 130.83333333333331 L 134.16666666666669 130.83333333333331 L 151.66666666666669 130.83333333333331 L 168.33333333333331 130.83333333333331 L 182.5 130.0 L 188.33333333333331 130.0 L 189.16666666666663 130.0 L 188.33333333333331 130.0 L 187.5 130.0 L 186.66666666666663 130.0 " stroke="black" fill="none" stroke-width="5.0" stroke-linecap="round" stroke-linejoin="round" />
<path d="M 132.5 144.16666666666669 L 133.33333333333331 144.16666666666669 L 134.16666666666669 144.16666666666669 L 135.0 144.16666666666669 L 135.0 145.0 L 135.83333333333331 149.16666666666669 L 135.83333333333331 155.83333333333331 L 136.66666666666669 161.66666666666663 L 137.5 164.16666666666663 L 137.5 164.16666666666663 " stroke="black" fill="none" stroke-width="5.0" stroke-linecap="round" stroke-linejoin="round" />
<path d="M 135.0 140.83333333333331 L 135.0 140.83333333333331 L 135.0 140.83333333333331 L 135.0 140.0 L 135.0 140.0 L 136.66666666666669 140.0 L 140.0 140.0 L 147.5 139.16666666666669 L 156.66666666666663 139.16666666666669 L 166.66666666666663 139.16666666666669 L 173.33333333333331 139.16666666666669 L 175.83333333333331 139.16666666666669 L 175.83333333333331 139.16666666666669 L 175.83333333333331 142.5 L 175.83333333333331 148.33333333333331 L 176.66666666666663 155.0 L 177.5 159.16666666666663 L 177.5 160.83333333333331 L 177.5 160.83333333333331 " stroke="black" fill="none" stroke-width="5.0" stroke-linecap="round" stroke-linejoin="round" />
<path d="M 141.66666666666669 150.83333333333331 L 141.66666666666669 150.83333333333331 L 141.66666666666669 150.83333333333331 L 141.66666666666669 150.83333333333331 L 143.33333333333331 150.83333333333331 L 147.5 150.83333333333331 L 155.83333333333331 150.83333333333331 L 165.0 150.0 L 171.66666666666663 150.0 L 175.0 150.0 L 175.0 150.0 L 172.5 150.0 L 171.66666666666663 150.83333333333331 " stroke="black" fill="none" stroke-width="5.0" stroke-linecap="round" stroke-linejoin="round" />
<path d="M 136.66666666666669 160.0 L 136.66666666666669 161.66666666666663 L 136.66666666666669 162.5 L 140.0 163.33333333333331 L 147.5 163.33333333333331 L 157.5 161.66666666666663 L 167.5 160.0 L 174.16666666666663 160.0 L 175.83333333333331 160.83333333333331 L 175.83333333333331 161.66666666666663 " stroke="black" fill="none" stroke-width="5.0" stroke-linecap="round" stroke-linejoin="round" />
<path d="M 155.83333333333331 143.33333333333331 L 155.83333333333331 143.33333333333331 L 155.83333333333331 143.33333333333331 L 155.83333333333331 143.33333333333331 L 156.66666666666663 146.66666666666669 L 158.33333333333331 155.0 L 158.33333333333331 159.16666666666663 " stroke="black" fill="none" stroke-width="5.0" stroke-linecap="round" stroke-linejoin="round" />
<path d="M 115.83333333333333 175.0 L 115.83333333333333 175.0 L 115.83333333333333 175.0 L 115.83333333333333 175.0 L 117.49999999999999 175.0 L 121.66666666666667 174.16666666666663 L 132.5 173.33333333333331 L 145.83333333333331 172.5 L 160.83333333333331 171.66666666666663 L 175.0 170.83333333333331 L 186.66666666666663 170.0 L 191.66666666666663 170.0 L 193.33333333333331 170.0 L 193.33333333333331 170.83333333333331 L 193.33333333333331 170.83333333333331 L 193.33333333333331 170.83333333333331 " stroke="black" fill="none" stroke-width="5.0" stroke-linecap="round" stroke-linejoin="round" />
<path d="M 138.33333333333331 183.33333333333331 L 138.33333333333331 183.33333333333331 L 137.5 183.33333333333331 L 136.66666666666669 183.33333333333331 L 135.83333333333331 184.16666666666663 L 135.83333333333331 189.16666666666663 L 136.66666666666669 195.0 L 138.33333333333331 198.33333333333331 L 140.0 199.16666666666663 L 140.0 199.16666666666663 " stroke="black" fill="none" stroke-width="5.0" stroke-linecap="round" stroke-linejoin="round" />
<path d="M 135.83333333333331 182.5 L 135.83333333333331 182.5 L 135.83333333333331 182.5 L 137.5 181.66666666666663 L 142.5 181.66666666666663 L 150.83333333333331 180.0 L 160.0 180.0 L 168.33333333333331 180.0 L 173.33333333333331 180.83333333333331 L 176.66666666666663 182.5 L 177.5 186.66666666666663 L 178.33333333333331 191.66666666666663 L 178.33333333333331 196.66666666666663 L 178.33333333333331 199.16666666666663 L 178.33333333333331 200.83333333333331 L 178.33333333333331 200.83333333333331 " stroke="black" fill="none" stroke-width="5.0" stroke-linecap="round" stroke-linejoin="round" />
<path d="M 143.33333333333331 193.33333333333331 L 143.33333333333331 193.33333333333331 L 143.33333333333331 193.33333333333331 L 143.33333333333331 193.33333333333331 L 144.16666666666669 193.33333333333331 L 150.0 193.33333333333331 L 158.33333333333331 192.5 L 167.5 190.83333333333331 L 175.0 190.83333333333331 L 176.66666666666663 190.83333333333331 L 176.66666666666663 190.83333333333331 " stroke="black" fill="none" stroke-width="5.0" stroke-linecap="round" stroke-linejoin="round" />
<path d="M 153.33333333333331 182.5 L 153.33333333333331 182.5 L 153.33333333333331 182.5 L 153.33333333333331 182.5 L 155.0 186.66666666666663 L 155.83333333333331 195.0 L 156.66666666666663 198.33333333333331 " stroke="black" fill="none" stroke-width="5.0" stroke-linecap="round" stroke-linejoin="round" />
<path d="M 140.83333333333331 202.5 L 140.83333333333331 203.33333333333331 L 140.83333333333331 203.33333333333331 L 141.66666666666669 204.16666666666663 L 147.5 204.16666666666663 L 157.5 204.16666666666663 L 167.5 203.33333333333331 L 175.0 204.16666666666663 L 177.5 204.16666666666663 L 177.5 205.0 " stroke="black" fill="none" stroke-width="5.0" stroke-linecap="round" stroke-linejoin="round" />
<path d="M 114.16666666666667 216.66666666666663 L 114.16666666666667 216.66666666666663 L 114.16666666666667 216.66666666666663 L 114.16666666666667 217.5 L 114.99999999999999 217.5 L 119.99999999999999 217.5 L 130.83333333333331 217.5 L 146.66666666666669 216.66666666666663 L 164.16666666666663 215.0 L 180.0 213.33333333333331 L 191.66666666666663 212.5 L 197.5 211.66666666666663 L 200.83333333333331 211.66666666666663 L 200.83333333333331 211.66666666666663 L 200.83333333333331 211.66666666666663 L 200.83333333333331 211.66666666666663 L 200.83333333333331 211.66666666666663 L 200.83333333333331 211.66666666666663 L 200.83333333333331 211.66666666666663 L 200.83333333333331 211.66666666666663 L 200.83333333333331 211.66666666666663 " stroke="black" fill="none" stroke-width="5.0" stroke-linecap="round" stroke-linejoin="round" />
</svg>