<svg xmlns="http://www.w3.org/2000/svg" width="300" height="300" viewBox="0 0 300 300">
<path d="M 131.0 105.0 L 131.0 105.0 L 131.0 104.0 L 131.0 104.0 L 131.0 104.0 L 132.0 104.0 L 133.0 109.0 L 133.0 115.0 L 134.0 121.0 L 134.0 122.0 " stroke="black" fill="none" stroke-width="5.0" stroke-linecap="round" stroke-linejoin="round" />
<path d="M 115.0 118.0 L 115.0 118.0 L 116.0 118.0 L 117.0 118.0 L 118.0 118.0 L 137.0 114.0 L 153.0 112.0 L 165.0 111.0 L 172.0 110.0 L 175.0 110.0 L 176.0 110.0 L 176.0 110.0 L 176.0 110.0 " stroke="black" fill="none" stroke-width="5.0" stroke-linecap="round" stroke-linejoin="round" />
<path d="M 159.0 101.0 L 159.0 101.0 L 159.0 101.0 L 159.0 103.0 L 159.0 107.0 L 160.0 113.0 L 161.0 119.0 L 161.0 121.0 " stroke="black" fill="none" stroke-width="5.0" stroke-linecap="round" stroke-linejoin="round" />
<path d="M 118.0 145.0 L 118.0 145.0 L 118.0 146.0 L 118.0 147.0 L 118.0 151.0 L 118.0 161.0 L 118.0 174.0 L 117.0 185.0 L 116.0 190.0 L 116.0 190.0 " stroke="black" fill="none" stroke-width="5.0" stroke-linecap="round" stroke-linejoin="round" />
<path d="M 117.0 147.0 L 117.0 147.0 L 117.0 147.0 L 118.0 146.0 L 120.0 146.0 L 123.0 146.0 L 128.0 146.0 L 133.0 146.0 L 137.0 146.0 L 141.0 146.0 L 144.0 146.0 L 146.0 146.0 L 148.0 149.0 L 148.0 157.0 L 149.0 169.0 L 150.0 183.0 L 151.0 193.0 L 151.0 198.0 L 151.0 200.0 L 151.0 200.0 L 147.0 201.0 L 140.0 201.0 L 139.0 201.0 " stroke="black" fill="none" stroke-width="5.0" stroke-linecap="round" stroke-linejoin="round" />
<path d="M 124.0 134.0 L 124.0 135.0 L 124.0 136.0 L 124.0 137.0 L 126.0 139.0 " stroke="black" fill="none" stroke-width="5.0" stroke-linecap="round" stroke-linejoin="round" />
<path d="M 145.0 132.0 L 145.0 132.0 L 145.0 132.0 L 145.0 133.0 L 144.0 135.0 L 143.0 138.0 L 143.0 140.0 " stroke="black" fill="none" stroke-width="5.0" stroke-linecap="round" stroke-linejoin="round" />
<path d="M 136.0 131.0 L 135.0 131.0 L 134.0 131.0 L 134.0 132.0 L 134.0 136.0 L 134.0 146.0 L 136.0 163.0 L 137.0 178.0 L 137.0 186.0 L 138.0 189.0 L 138.0 188.0 " stroke="black" fill="none" stroke-width="5.0" stroke-linecap="round" stroke-linejoin="round" />
<path d="M 133.0 157.0 L 133.0 157.0 L 132.0 158.0 L 131.0 160.0 L 129.0 165.0 L 126.0 171.0 L 121.0 178.0 L 119.0 181.0 " stroke="black" fill="none" stroke-width="5.0" stroke-linecap="round" stroke-linejoin="round" />
<path d="M 137.0 164.0 L 137.0 164.0 L 137.0 166.0 L 137.0 168.0 L 141.0 172.0 L 145.0 176.0 L 146.0 177.0 " stroke="black" fill="none" stroke-width="5.0" stroke-linecap="round" stroke-linejoin="round" />
<path d="M 159.0 133.0 L 159.0 133.0 L 159.0 133.0 L 159.0 132.0 L 159.0 132.0 L 159.0 137.0 L 157.0 145.0 L 153.0 155.0 L 151.0 160.0 " stroke="black" fill="none" stroke-width="5.0" stroke-linecap="round" stroke-linejoin="round" />
<path d="M 158.0 145.0 L 158.0 145.0 L 158.0 145.0 L 159.0 144.0 L 163.0 144.0 L 170.0 143.0 L 177.0 142.0 L 181.0 142.0 L 181.0 142.0 " stroke="black" fill="none" stroke-width="5.0" stroke-linecap="round" stroke-linejoin="round" />
<path d="M 177.0 146.0 L 177.0 146.0 L 176.0 146.0 L 175.0 146.0 L 175.0 148.0 L 175.0 153.0 L 175.0 163.0 L 174.0 177.0 L 171.0 189.0 L 169.0 195.0 L 168.0 196.0 " stroke="black" fill="none" stroke-width="5.0" stroke-linecap="round" stroke-linejoin="round" />
<path d="M 158.0 157.0 L 158.0 157.0 L 159.0 157.0 L 160.0 158.0 L 164.0 163.0 L 173.0 175.0 L 183.0 188.0 L 189.0 196.0 L 192.0 199.0 L 193.0 200.0 " stroke="black" fill="none" stroke-width="5.0" stroke-linecap="round" stroke-linejoin="round" />
</svg>