<svg xmlns="http://www.w3.org/2000/svg" width="300" height="300" viewBox="0 0 300 300">
<path d="M 131.0 99.0 L 131.0 99.0 L 131.0 98.0 L 132.0 98.0 L 132.0 103.0 L 133.0 110.0 L 133.0 117.0 L 133.0 122.0 " stroke="black" fill="none" stroke-width="5.0" stroke-linecap="round" stroke-linejoin="round" />
<path d="M 112.0 111.0 L 113.0 111.0 L 115.0 111.0 L 118.0 111.0 L 128.0 110.0 L 141.0 109.0 L 155.0 108.0 L 167.0 107.0 L 176.0 106.0 L 180.0 106.0 L 180.0 106.0 " stroke="black" fill="none" stroke-width="5.0" stroke-linecap="round" stroke-linejoin="round" />
<path d="M 159.0 96.0 L 160.0 96.0 L 161.0 96.0 L 161.0 99.0 L 161.0 105.0 L 159.0 112.0 L 158.0 117.0 L 157.0 119.0 " stroke="black" fill="none" stroke-width="5.0" stroke-linecap="round" stroke-linejoin="round" />
<path d="M 143.0 118.0 L 143.0 118.0 L 143.0 118.0 L 143.0 119.0 L 143.0 120.0 L 144.0 123.0 L 146.0 126.0 L 147.0 126.0 " stroke="black" fill="none" stroke-width="5.0" stroke-linecap="round" stroke-linejoin="round" />
<path d="M 111.0 139.0 L 111.0 139.0 L 112.0 139.0 L 114.0 139.0 L 121.0 138.0 L 136.0 137.0 L 152.0 136.0 L 166.0 135.0 L 172.0 134.0 L 175.0 134.0 L 175.0 134.0 L 174.0 134.0 " stroke="black" fill="none" stroke-width="5.0" stroke-linecap="round" stroke-linejoin="round" />
<path d="M 115.0 142.0 L 115.0 142.0 L 116.0 141.0 L 116.0 141.0 L 116.0 145.0 L 115.0 153.0 L 113.0 166.0 L 110.0 181.0 L 107.0 192.0 L 106.0 198.0 L 105.0 200.0 " stroke="black" fill="none" stroke-width="5.0" stroke-linecap="round" stroke-linejoin="round" />
<path d="M 121.0 150.0 L 121.0 150.0 L 122.0 150.0 L 123.0 150.0 L 126.0 150.0 L 132.0 149.0 L 141.0 148.0 L 151.0 147.0 L 158.0 147.0 L 163.0 148.0 L 165.0 149.0 L 166.0 151.0 L 167.0 153.0 L 168.0 157.0 L 168.0 160.0 L 168.0 163.0 L 168.0 164.0 " stroke="black" fill="none" stroke-width="5.0" stroke-linecap="round" stroke-linejoin="round" />
<path d="M 116.0 165.0 L 118.0 165.0 L 120.0 165.0 L 126.0 165.0 L 135.0 164.0 L 147.0 164.0 L 158.0 164.0 L 166.0 163.0 L 169.0 163.0 L 169.0 163.0 L 167.0 163.0 " stroke="black" fill="none" stroke-width="5.0" stroke-linecap="round" stroke-linejoin="round" />
<path d="M 138.0 141.0 L 138.0 141.0 L 138.0 141.0 L 138.0 142.0 L 138.0 148.0 L 138.0 156.0 L 139.0 162.0 L 140.0 163.0 " stroke="black" fill="none" stroke-width="5.0" stroke-linecap="round" stroke-linejoin="round" />
<path d="M 153.0 141.0 L 153.0 141.0 L 153.0 143.0 L 153.0 147.0 L 153.0 153.0 L 153.0 158.0 " stroke="black" fill="none" stroke-width="5.0" stroke-linecap="round" stroke-linejoin="round" />
<path d="M 128.0 168.0 L 128.0 168.0 L 128.0 169.0 L 128.0 170.0 L 128.0 172.0 L 128.0 175.0 L 128.0 178.0 L 128.0 180.0 L 128.0 182.0 L 130.0 183.0 L 134.0 184.0 L 140.0 184.0 L 147.0 183.0 L 154.0 182.0 L 159.0 182.0 L 163.0 182.0 L 167.0 182.0 L 169.0 185.0 L 172.0 190.0 L 174.0 194.0 L 175.0 199.0 L 176.0 203.0 L 175.0 206.0 L 174.0 208.0 L 170.0 208.0 L 164.0 207.0 L 157.0 204.0 L 156.0 203.0 " stroke="black" fill="none" stroke-width="5.0" stroke-linecap="round" stroke-linejoin="round" />
<path d="M 134.0 176.0 L 134.0 176.0 L 135.0 176.0 L 137.0 176.0 L 139.0 176.0 L 144.0 176.0 L 150.0 175.0 L 154.0 175.0 " stroke="black" fill="none" stroke-width="5.0" stroke-linecap="round" stroke-linejoin="round" />
<path d="M 121.0 192.0 L 121.0 192.0 L 121.0 192.0 L 121.0 193.0 L 121.0 195.0 L 121.0 197.0 L 121.0 200.0 L 122.0 201.0 " stroke="black" fill="none" stroke-width="5.0" stroke-linecap="round" stroke-linejoin="round" />
<path d="M 133.0 192.0 L 133.0 192.0 L 134.0 193.0 L 134.0 194.0 L 134.0 196.0 L 135.0 197.0 L 135.0 199.0 L 135.0 200.0 " stroke="black" fill="none" stroke-width="5.0" stroke-linecap="round" stroke-linejoin="round" />
<path d="M 145.0 191.0 L 145.0 192.0 L 145.0 192.0 L 145.0 193.0 L 145.0 194.0 L 145.0 196.0 L 145.0 197.0 " stroke="black" fill="none" stroke-width="5.0" stroke-linecap="round" stroke-linejoin="round" />
<path d="M 160.0 190.0 L 160.0 190.0 L 160.0 192.0 L 160.0 193.0 L 160.0 196.0 L 161.0 198.0 " stroke="black" fill="none" stroke-width="5.0" stroke-linecap="round" stroke-linejoin="round" />
</svg>