<svg xmlns="http://www.w3.org/2000/svg" width="300" height="300" viewBox="0 0 300 300">
<path d="M 136.0 112.0 L 136.0 112.0 L 136.0 112.0 L 136.0 112.0 L 136.0 112.0 L 136.0 115.0 L 137.0 120.0 L 138.0 127.0 L 139.0 131.0 " stroke="black" fill="none" stroke-width="5.0" stroke-linecap="round" stroke-linejoin="round" />
<path d="M 121.0 122.0 L 121.0 122.0 L 121.0 122.0 L 121.0 122.0 L 126.0 122.0 L 139.0 120.0 L 157.0 119.0 L 171.0 120.0 L 177.0 120.0 " stroke="black" fill="none" stroke-width="5.0" stroke-linecap="round" stroke-linejoin="round" />
<path d="M 160.0 110.0 L 160.0 110.0 L 160.0 111.0 L 160.0 112.0 L 161.0 115.0 L 161.0 122.0 L 161.0 128.0 " stroke="black" fill="none" stroke-width="5.0" stroke-linecap="round" stroke-linejoin="round" />
<path d="M 122.0 144.0 L 122.0 144.0 L 123.0 144.0 L 124.0 144.0 L 124.0 144.0 L 126.0 144.0 L 129.0 144.0 L 133.0 144.0 L 136.0 144.0 L 138.0 144.0 L 140.0 144.0 L 141.0 145.0 L 142.0 149.0 L 142.0 153.0 L 142.0 158.0 L 142.0 158.0 " stroke="black" fill="none" stroke-width="5.0" stroke-linecap="round" stroke-linejoin="round" />
<path d="M 121.0 154.0 L 121.0 154.0 L 121.0 154.0 L 122.0 154.0 L 123.0 154.0 L 126.0 154.0 L 133.0 153.0 L 139.0 153.0 L 141.0 153.0 " stroke="black" fill="none" stroke-width="5.0" stroke-linecap="round" stroke-linejoin="round" />
<path d="M 116.0 163.0 L 118.0 163.0 L 122.0 163.0 L 129.0 163.0 L 138.0 162.0 L 144.0 161.0 " stroke="black" fill="none" stroke-width="5.0" stroke-linecap="round" stroke-linejoin="round" />
<path d="M 120.0 148.0 L 120.0 147.0 L 121.0 147.0 L 121.0 147.0 L 121.0 157.0 L 120.0 175.0 L 117.0 195.0 L 116.0 204.0 " stroke="black" fill="none" stroke-width="5.0" stroke-linecap="round" stroke-linejoin="round" />
<path d="M 156.0 140.0 L 156.0 140.0 L 156.0 140.0 L 156.0 140.0 L 158.0 140.0 L 161.0 139.0 L 166.0 138.0 L 170.0 138.0 L 172.0 138.0 L 174.0 139.0 L 177.0 144.0 L 181.0 153.0 L 185.0 167.0 L 187.0 182.0 L 188.0 195.0 L 188.0 202.0 L 188.0 204.0 L 186.0 203.0 L 179.0 199.0 L 174.0 197.0 " stroke="black" fill="none" stroke-width="5.0" stroke-linecap="round" stroke-linejoin="round" />
<path d="M 156.0 145.0 L 156.0 145.0 L 155.0 145.0 L 154.0 145.0 L 153.0 145.0 L 153.0 146.0 L 153.0 150.0 L 154.0 154.0 L 157.0 158.0 L 162.0 161.0 L 166.0 162.0 " stroke="black" fill="none" stroke-width="5.0" stroke-linecap="round" stroke-linejoin="round" />
<path d="M 155.0 152.0 L 155.0 152.0 L 155.0 152.0 L 156.0 152.0 L 159.0 152.0 L 167.0 152.0 L 176.0 151.0 " stroke="black" fill="none" stroke-width="5.0" stroke-linecap="round" stroke-linejoin="round" />
<path d="M 141.0 175.0 L 141.0 175.0 L 141.0 175.0 L 141.0 176.0 L 143.0 176.0 L 147.0 175.0 L 153.0 174.0 L 158.0 173.0 L 160.0 173.0 " stroke="black" fill="none" stroke-width="5.0" stroke-linecap="round" stroke-linejoin="round" />
<path d="M 137.0 186.0 L 137.0 186.0 L 137.0 187.0 L 137.0 189.0 L 137.0 191.0 L 139.0 192.0 L 139.0 192.0 " stroke="black" fill="none" stroke-width="5.0" stroke-linecap="round" stroke-linejoin="round" />
<path d="M 139.0 185.0 L 139.0 185.0 L 139.0 185.0 L 139.0 185.0 L 140.0 185.0 L 143.0 184.0 L 150.0 183.0 L 157.0 183.0 L 163.0 184.0 L 165.0 187.0 L 166.0 189.0 L 165.0 191.0 " stroke="black" fill="none" stroke-width="5.0" stroke-linecap="round" stroke-linejoin="round" />
<path d="M 143.0 188.0 L 143.0 188.0 L 143.0 189.0 L 143.0 190.0 L 145.0 190.0 L 146.0 191.0 " stroke="black" fill="none" stroke-width="5.0" stroke-linecap="round" stroke-linejoin="round" />
<path d="M 157.0 187.0 L 157.0 189.0 L 157.0 190.0 L 157.0 192.0 L 156.0 193.0 " stroke="black" fill="none" stroke-width="5.0" stroke-linecap="round" stroke-linejoin="round" />
<path d="M 140.0 196.0 L 139.0 197.0 L 139.0 197.0 L 142.0 198.0 L 149.0 198.0 L 159.0 196.0 L 160.0 196.0 " stroke="black" fill="none" stroke-width="5.0" stroke-linecap="round" stroke-linejoin="round" />
<path d="M 150.0 173.0 L 150.0 173.0 L 150.0 173.0 L 150.0 174.0 L 150.0 181.0 L 152.0 194.0 L 153.0 205.0 L 153.0 209.0 " stroke="black" fill="none" stroke-width="5.0" stroke-linecap="round" stroke-linejoin="round" />
<path d="M 151.0 197.0 L 151.0 197.0 L 151.0 197.0 L 151.0 198.0 L 150.0 198.0 L 147.0 201.0 L 141.0 206.0 L 135.0 211.0 L 133.0 212.0 " stroke="black" fill="none" stroke-width="5.0" stroke-linecap="round" stroke-linejoin="round" />
<path d="M 152.0 199.0 L 153.0 200.0 L 155.0 201.0 L 160.0 204.0 L 167.0 207.0 L 174.0 211.0 " stroke="black" fill="none" stroke-width="5.0" stroke-linecap="round" stroke-linejoin="round" />
</svg>