<svg xmlns="http://www.w3.org/2000/svg" width="300" height="300" viewBox="0 0 300 300">
<path d="M 123.0 120.0 L 123.0 120.0 L 122.0 120.0 L 122.0 120.0 L 122.0 120.0 L 125.0 120.0 L 134.0 120.0 L 147.0 119.0 L 160.0 117.0 L 170.0 116.0 L 176.0 116.0 L 178.0 116.0 L 178.0 116.0 L 178.0 116.0 L 177.0 118.0 L 176.0 121.0 L 175.0 126.0 L 173.0 130.0 L 173.0 133.0 " stroke="black" fill="none" stroke-width="5.0" stroke-linecap="round" stroke-linejoin="round" />
<path d="M 124.0 121.0 L 124.0 121.0 L 124.0 121.0 L 124.0 122.0 L 123.0 130.0 L 121.0 149.0 L 117.0 172.0 L 114.0 187.0 L 114.0 188.0 " stroke="black" fill="none" stroke-width="5.0" stroke-linecap="round" stroke-linejoin="round" />
<path d="M 145.0 105.0 L 145.0 105.0 L 144.0 106.0 L 144.0 107.0 L 143.0 110.0 L 143.0 114.0 " stroke="black" fill="none" stroke-width="5.0" stroke-linecap="round" stroke-linejoin="round" />
<path d="M 144.0 113.0 L 144.0 113.0 L 144.0 113.0 L 144.0 113.0 L 145.0 112.0 L 149.0 110.0 L 154.0 109.0 L 157.0 109.0 " stroke="black" fill="none" stroke-width="5.0" stroke-linecap="round" stroke-linejoin="round" />
<path d="M 146.0 119.0 L 146.0 119.0 L 146.0 119.0 L 145.0 119.0 L 145.0 119.0 L 145.0 121.0 L 145.0 126.0 L 146.0 132.0 L 148.0 138.0 L 151.0 140.0 L 153.0 140.0 " stroke="black" fill="none" stroke-width="5.0" stroke-linecap="round" stroke-linejoin="round" />
<path d="M 135.0 134.0 L 135.0 134.0 L 135.0 133.0 L 138.0 132.0 L 146.0 130.0 L 156.0 128.0 L 164.0 127.0 L 167.0 127.0 L 167.0 127.0 " stroke="black" fill="none" stroke-width="5.0" stroke-linecap="round" stroke-linejoin="round" />
<path d="M 140.0 152.0 L 140.0 152.0 L 141.0 152.0 L 141.0 152.0 L 142.0 152.0 L 142.0 154.0 L 143.0 156.0 L 143.0 157.0 " stroke="black" fill="none" stroke-width="5.0" stroke-linecap="round" stroke-linejoin="round" />
<path d="M 141.0 152.0 L 141.0 152.0 L 141.0 152.0 L 140.0 152.0 L 142.0 152.0 L 146.0 151.0 L 152.0 150.0 L 158.0 150.0 L 161.0 150.0 L 163.0 151.0 L 164.0 153.0 L 164.0 156.0 L 163.0 159.0 " stroke="black" fill="none" stroke-width="5.0" stroke-linecap="round" stroke-linejoin="round" />
<path d="M 144.0 163.0 L 144.0 163.0 L 144.0 163.0 L 144.0 163.0 L 145.0 163.0 L 150.0 162.0 L 155.0 161.0 L 160.0 160.0 L 161.0 159.0 " stroke="black" fill="none" stroke-width="5.0" stroke-linecap="round" stroke-linejoin="round" />
<path d="M 135.0 165.0 L 134.0 165.0 L 134.0 165.0 L 133.0 165.0 L 132.0 167.0 L 131.0 170.0 L 130.0 174.0 L 130.0 176.0 L 134.0 176.0 L 142.0 174.0 L 151.0 171.0 L 158.0 169.0 L 164.0 168.0 L 167.0 167.0 L 168.0 169.0 L 168.0 174.0 L 166.0 178.0 L 166.0 179.0 " stroke="black" fill="none" stroke-width="5.0" stroke-linecap="round" stroke-linejoin="round" />
<path d="M 138.0 187.0 L 138.0 187.0 L 139.0 187.0 L 142.0 187.0 L 146.0 185.0 L 154.0 182.0 L 162.0 181.0 L 166.0 181.0 L 167.0 182.0 " stroke="black" fill="none" stroke-width="5.0" stroke-linecap="round" stroke-linejoin="round" />
<path d="M 151.0 174.0 L 151.0 174.0 L 151.0 173.0 L 151.0 173.0 L 151.0 176.0 L 148.0 185.0 L 145.0 197.0 L 142.0 205.0 " stroke="black" fill="none" stroke-width="5.0" stroke-linecap="round" stroke-linejoin="round" />
<path d="M 150.0 191.0 L 151.0 191.0 L 151.0 191.0 L 152.0 193.0 L 159.0 197.0 L 168.0 204.0 L 171.0 206.0 " stroke="black" fill="none" stroke-width="5.0" stroke-linecap="round" stroke-linejoin="round" />
</svg>