<svg xmlns="http://www.w3.org/2000/svg" width="300" height="300" viewBox="0 0 300 300">
<path d="M 136.0 111.0 L 136.0 111.0 L 136.0 111.0 L 136.0 111.0 L 139.0 110.0 L 145.0 110.0 L 152.0 110.0 L 158.0 109.0 L 161.0 109.0 L 161.0 112.0 L 161.0 118.0 L 157.0 127.0 L 152.0 136.0 L 143.0 146.0 L 132.0 156.0 L 123.0 161.0 " stroke="black" fill="none" stroke-width="5.0" stroke-linecap="round" stroke-linejoin="round" />
<path d="M 128.0 128.0 L 128.0 128.0 L 128.0 129.0 L 134.0 135.0 L 150.0 145.0 L 174.0 154.0 L 190.0 158.0 L 194.0 159.0 " stroke="black" fill="none" stroke-width="5.0" stroke-linecap="round" stroke-linejoin="round" />
<path d="M 146.0 120.0 L 146.0 122.0 L 146.0 125.0 L 148.0 128.0 " stroke="black" fill="none" stroke-width="5.0" stroke-linecap="round" stroke-linejoin="round" />
<path d="M 118.0 140.0 L 120.0 140.0 L 122.0 142.0 L 126.0 146.0 " stroke="black" fill="none" stroke-width="5.0" stroke-linecap="round" stroke-linejoin="round" />
<path d="M 137.0 171.0 L 137.0 172.0 L 137.0 175.0 L 138.0 179.0 L 139.0 183.0 L 139.0 184.0 " stroke="black" fill="none" stroke-width="5.0" stroke-linecap="round" stroke-linejoin="round" />
<path d="M 137.0 171.0 L 138.0 171.0 L 139.0 171.0 L 142.0 171.0 L 149.0 170.0 L 158.0 169.0 L 167.0 169.0 L 171.0 174.0 L 172.0 181.0 L 172.0 186.0 L 169.0 188.0 " stroke="black" fill="none" stroke-width="5.0" stroke-linecap="round" stroke-linejoin="round" />
<path d="M 139.0 188.0 L 140.0 188.0 L 143.0 189.0 L 150.0 188.0 L 160.0 186.0 L 168.0 184.0 L 170.0 184.0 " stroke="black" fill="none" stroke-width="5.0" stroke-linecap="round" stroke-linejoin="round" />
<path d="M 149.0 154.0 L 149.0 154.0 L 149.0 154.0 L 149.0 159.0 L 151.0 174.0 L 154.0 191.0 L 156.0 200.0 " stroke="black" fill="none" stroke-width="5.0" stroke-linecap="round" stroke-linejoin="round" />
<path d="M 137.0 204.0 L 137.0 205.0 L 141.0 206.0 L 149.0 205.0 L 161.0 202.0 L 174.0 199.0 L 176.0 199.0 " stroke="black" fill="none" stroke-width="5.0" stroke-linecap="round" stroke-linejoin="round" />
<path d="M 184.0 194.0 L 184.0 196.0 L 184.0 199.0 L 187.0 204.0 L 191.0 210.0 " stroke="black" fill="none" stroke-width="5.0" stroke-linecap="round" stroke-linejoin="round" />
</svg>