<svg xmlns="http://www.w3.org/2000/svg" width="300" height="300" viewBox="0 0 300 300">
<path d="M 122.0 117.0 L 122.0 117.0 L 122.0 117.0 L 122.0 117.0 L 126.0 117.0 L 136.0 116.0 L 149.0 114.0 L 160.0 112.0 L 167.0 112.0 L 170.0 112.0 L 171.0 113.0 L 171.0 114.0 L 171.0 117.0 L 171.0 121.0 L 170.0 124.0 L 169.0 127.0 " stroke="black" fill="none" stroke-width="5.0" stroke-linecap="round" stroke-linejoin="round" />
<path d="M 123.0 119.0 L 123.0 119.0 L 122.0 120.0 L 121.0 124.0 L 120.0 136.0 L 119.0 155.0 L 117.0 174.0 L 115.0 185.0 L 114.0 189.0 L 114.0 189.0 " stroke="black" fill="none" stroke-width="5.0" stroke-linecap="round" stroke-linejoin="round" />
<path d="M 144.0 93.0 L 144.0 93.0 L 143.0 94.0 L 143.0 96.0 L 143.0 101.0 L 144.0 105.0 L 145.0 106.0 " stroke="black" fill="none" stroke-width="5.0" stroke-linecap="round" stroke-linejoin="round" />
<path d="M 145.0 102.0 L 145.0 102.0 L 145.0 101.0 L 147.0 101.0 L 149.0 100.0 L 153.0 100.0 L 155.0 100.0 L 156.0 100.0 " stroke="black" fill="none" stroke-width="5.0" stroke-linecap="round" stroke-linejoin="round" />
<path d="M 146.0 113.0 L 146.0 113.0 L 146.0 113.0 L 146.0 113.0 L 145.0 114.0 L 145.0 117.0 L 145.0 124.0 L 145.0 131.0 L 147.0 137.0 L 150.0 139.0 L 154.0 139.0 L 156.0 138.0 " stroke="black" fill="none" stroke-width="5.0" stroke-linecap="round" stroke-linejoin="round" />
<path d="M 136.0 129.0 L 136.0 129.0 L 136.0 130.0 L 137.0 130.0 L 143.0 130.0 L 152.0 128.0 L 158.0 127.0 L 161.0 127.0 " stroke="black" fill="none" stroke-width="5.0" stroke-linecap="round" stroke-linejoin="round" />
<path d="M 147.0 146.0 L 147.0 146.0 L 147.0 146.0 L 147.0 146.0 L 147.0 146.0 L 147.0 147.0 L 150.0 148.0 L 152.0 149.0 " stroke="black" fill="none" stroke-width="5.0" stroke-linecap="round" stroke-linejoin="round" />
<path d="M 135.0 156.0 L 135.0 156.0 L 135.0 157.0 L 135.0 157.0 L 141.0 157.0 L 150.0 157.0 L 158.0 157.0 L 164.0 156.0 L 166.0 156.0 L 166.0 156.0 " stroke="black" fill="none" stroke-width="5.0" stroke-linecap="round" stroke-linejoin="round" />
<path d="M 156.0 157.0 L 156.0 157.0 L 156.0 157.0 L 155.0 158.0 L 154.0 160.0 L 153.0 165.0 L 149.0 173.0 L 142.0 183.0 L 135.0 189.0 " stroke="black" fill="none" stroke-width="5.0" stroke-linecap="round" stroke-linejoin="round" />
<path d="M 131.0 165.0 L 131.0 165.0 L 132.0 165.0 L 133.0 165.0 L 136.0 167.0 L 143.0 174.0 L 156.0 183.0 L 171.0 191.0 L 179.0 194.0 L 184.0 195.0 L 185.0 195.0 L 185.0 194.0 " stroke="black" fill="none" stroke-width="5.0" stroke-linecap="round" stroke-linejoin="round" />
</svg>