<svg xmlns="http://www.w3.org/2000/svg" width="300" height="300" viewBox="0 0 300 300">
<path d="M 116.42857142857146 111.42857142857146 L 116.42857142857146 111.42857142857146 L 116.42857142857146 111.42857142857146 L 116.42857142857146 111.42857142857146 L 115.71428571428574 114.28571428571432 L 115.71428571428574 119.28571428571432 L 115.71428571428574 125.00000000000001 L 116.42857142857146 127.85714285714288 L 117.14285714285718 128.5714285714286 " stroke="black" fill="none" stroke-width="5.0" stroke-linecap="round" stroke-linejoin="round" />
<path d="M 117.85714285714288 110.00000000000001 L 117.85714285714288 110.00000000000001 L 117.85714285714288 110.00000000000001 L 117.85714285714288 110.00000000000001 L 117.85714285714288 110.00000000000001 L 118.5714285714286 109.28571428571432 L 120.71428571428574 109.28571428571432 L 122.85714285714288 109.28571428571432 L 125.71428571428574 110.71428571428574 L 128.5714285714286 113.5714285714286 L 130.00000000000006 117.85714285714288 L 130.71428571428572 122.85714285714288 L 130.71428571428572 126.42857142857146 L 130.71428571428572 127.85714285714288 " stroke="black" fill="none" stroke-width="5.0" stroke-linecap="round" stroke-linejoin="round" />
<path d="M 117.85714285714288 127.14285714285718 L 117.85714285714288 127.85714285714288 L 117.85714285714288 128.5714285714286 L 117.85714285714288 128.5714285714286 L 120.00000000000001 128.5714285714286 L 124.28571428571432 128.5714285714286 L 127.85714285714288 128.5714285714286 " stroke="black" fill="none" stroke-width="5.0" stroke-linecap="round" stroke-linejoin="round" />
<path d="M 112.85714285714288 140.71428571428572 L 112.85714285714288 140.71428571428572 L 113.5714285714286 140.71428571428572 L 114.28571428571432 140.71428571428572 L 117.85714285714288 140.00000000000006 L 123.5714285714286 138.5714285714286 L 128.5714285714286 137.14285714285717 L 131.42857142857144 136.42857142857144 L 131.42857142857144 136.42857142857144 " stroke="black" fill="none" stroke-width="5.0" stroke-linecap="round" stroke-linejoin="round" />
<path d="M 122.14285714285718 140.71428571428572 L 122.14285714285718 140.71428571428572 L 122.14285714285718 140.71428571428572 L 122.14285714285718 141.42857142857144 L 121.42857142857146 143.5714285714286 L 120.71428571428574 147.14285714285717 L 120.00000000000001 150.71428571428572 L 120.00000000000001 152.8571428571429 L 120.00000000000001 153.5714285714286 L 122.85714285714288 153.5714285714286 L 125.71428571428574 152.8571428571429 L 127.85714285714288 152.8571428571429 L 130.00000000000006 153.5714285714286 L 131.42857142857144 155.71428571428572 L 132.8571428571429 160.00000000000006 L 134.28571428571433 165.71428571428572 L 135.00000000000006 172.8571428571429 L 135.00000000000006 179.28571428571433 L 134.28571428571433 182.8571428571429 L 132.14285714285717 183.5714285714286 L 127.85714285714288 183.5714285714286 L 121.42857142857146 180.71428571428578 L 118.5714285714286 178.5714285714286 " stroke="black" fill="none" stroke-width="5.0" stroke-linecap="round" stroke-linejoin="round" />
<path d="M 143.5714285714286 110.71428571428574 L 143.5714285714286 110.00000000000001 L 143.5714285714286 109.28571428571432 L 144.28571428571433 108.5714285714286 L 147.14285714285717 107.14285714285715 L 152.14285714285717 106.42857142857146 L 157.8571428571429 105.71428571428574 L 163.5714285714286 105.71428571428574 L 167.14285714285717 106.42857142857146 L 169.28571428571433 107.14285714285715 L 169.28571428571433 108.5714285714286 L 169.28571428571433 111.42857142857146 L 168.5714285714286 115.00000000000001 L 168.5714285714286 117.14285714285718 " stroke="black" fill="none" stroke-width="5.0" stroke-linecap="round" stroke-linejoin="round" />
<path d="M 146.42857142857144 111.42857142857146 L 146.42857142857144 110.71428571428574 L 145.71428571428572 110.71428571428574 L 145.71428571428572 113.5714285714286 L 145.71428571428572 122.14285714285718 L 145.71428571428572 137.14285714285717 L 145.00000000000006 155.00000000000006 L 143.5714285714286 168.5714285714286 L 142.8571428571429 173.5714285714286 L 143.5714285714286 174.28571428571433 " stroke="black" fill="none" stroke-width="5.0" stroke-linecap="round" stroke-linejoin="round" />
<path d="M 153.5714285714286 91.42857142857146 L 153.5714285714286 93.5714285714286 L 152.8571428571429 96.42857142857146 L 152.8571428571429 102.85714285714288 L 153.5714285714286 108.5714285714286 " stroke="black" fill="none" stroke-width="5.0" stroke-linecap="round" stroke-linejoin="round" />
<path d="M 152.8571428571429 98.5714285714286 L 152.8571428571429 99.28571428571432 L 152.8571428571429 99.28571428571432 L 152.14285714285717 100.00000000000001 L 154.28571428571433 100.00000000000001 L 158.5714285714286 98.5714285714286 L 163.5714285714286 97.14285714285715 L 167.14285714285717 96.42857142857146 " stroke="black" fill="none" stroke-width="5.0" stroke-linecap="round" stroke-linejoin="round" />
<path d="M 152.8571428571429 104.28571428571432 L 152.8571428571429 104.28571428571432 L 152.8571428571429 103.5714285714286 L 152.8571428571429 103.5714285714286 L 152.8571428571429 103.5714285714286 L 152.8571428571429 106.42857142857146 L 152.8571428571429 112.85714285714288 L 154.28571428571433 122.85714285714288 L 156.42857142857144 131.42857142857144 L 159.28571428571433 135.00000000000006 L 165.00000000000006 133.5714285714286 L 167.14285714285717 130.71428571428572 " stroke="black" fill="none" stroke-width="5.0" stroke-linecap="round" stroke-linejoin="round" />
<path d="M 150.71428571428572 124.28571428571432 L 150.71428571428572 124.28571428571432 L 150.71428571428572 124.28571428571432 L 152.8571428571429 123.5714285714286 L 159.28571428571433 121.42857142857146 L 162.8571428571429 120.71428571428574 " stroke="black" fill="none" stroke-width="5.0" stroke-linecap="round" stroke-linejoin="round" />
<path d="M 155.71428571428572 147.14285714285717 L 155.71428571428572 147.14285714285717 L 155.71428571428572 147.14285714285717 L 156.42857142857144 147.14285714285717 L 156.42857142857144 149.28571428571433 L 156.42857142857144 154.28571428571433 L 156.42857142857144 162.14285714285717 L 156.42857142857144 167.14285714285717 " stroke="black" fill="none" stroke-width="5.0" stroke-linecap="round" stroke-linejoin="round" />
<path d="M 165.71428571428572 145.71428571428572 L 165.71428571428572 145.71428571428572 L 165.71428571428572 145.71428571428572 L 165.71428571428572 147.14285714285717 L 166.42857142857144 152.14285714285717 L 167.8571428571429 160.71428571428572 L 171.42857142857144 168.5714285714286 L 175.71428571428578 172.8571428571429 L 180.71428571428578 173.5714285714286 L 183.5714285714286 172.14285714285717 L 185.00000000000006 169.28571428571433 L 185.00000000000006 165.71428571428572 L 185.00000000000006 162.8571428571429 " stroke="black" fill="none" stroke-width="5.0" stroke-linecap="round" stroke-linejoin="round" />
</svg>