<svg xmlns="http://www.w3.org/2000/svg" width="300" height="300" viewBox="0 0 300 300">
<path d="M 120.0 112.0 L 120.0 112.0 L 120.0 112.0 L 120.0 113.0 L 120.0 118.0 L 122.0 124.0 L 123.0 128.0 " stroke="black" fill="none" stroke-width="5.0" stroke-linecap="round" stroke-linejoin="round" />
<path d="M 122.0 111.0 L 122.0 111.0 L 123.0 111.0 L 126.0 111.0 L 132.0 110.0 L 141.0 110.0 L 152.0 109.0 L 163.0 108.0 L 171.0 108.0 L 177.0 108.0 L 180.0 110.0 L 180.0 114.0 L 180.0 119.0 L 178.0 124.0 L 177.0 127.0 L 177.0 127.0 " stroke="black" fill="none" stroke-width="5.0" stroke-linecap="round" stroke-linejoin="round" />
<path d="M 126.0 133.0 L 126.0 133.0 L 126.0 133.0 L 126.0 133.0 L 127.0 133.0 L 132.0 133.0 L 143.0 133.0 L 156.0 133.0 L 167.0 131.0 L 168.0 131.0 " stroke="black" fill="none" stroke-width="5.0" stroke-linecap="round" stroke-linejoin="round" />
<path d="M 141.0 115.0 L 141.0 115.0 L 141.0 115.0 L 141.0 115.0 L 141.0 117.0 L 141.0 124.0 L 142.0 133.0 " stroke="black" fill="none" stroke-width="5.0" stroke-linecap="round" stroke-linejoin="round" />
<path d="M 157.0 115.0 L 157.0 115.0 L 157.0 115.0 L 157.0 115.0 L 158.0 117.0 L 158.0 124.0 L 158.0 127.0 " stroke="black" fill="none" stroke-width="5.0" stroke-linecap="round" stroke-linejoin="round" />
<path d="M 144.0 137.0 L 144.0 136.0 L 144.0 136.0 L 145.0 135.0 L 145.0 134.0 L 145.0 134.0 L 145.0 134.0 L 143.0 136.0 L 140.0 140.0 L 134.0 149.0 L 126.0 159.0 L 123.0 162.0 " stroke="black" fill="none" stroke-width="5.0" stroke-linecap="round" stroke-linejoin="round" />
<path d="M 137.0 149.0 L 137.0 149.0 L 137.0 149.0 L 138.0 149.0 L 141.0 149.0 L 148.0 149.0 L 156.0 149.0 L 163.0 149.0 L 169.0 149.0 L 172.0 149.0 L 175.0 149.0 L 177.0 148.0 L 178.0 148.0 L 178.0 149.0 L 179.0 151.0 L 180.0 155.0 L 182.0 161.0 L 185.0 170.0 L 188.0 182.0 L 190.0 194.0 L 191.0 201.0 L 191.0 204.0 L 191.0 204.0 L 187.0 204.0 L 178.0 201.0 L 172.0 199.0 " stroke="black" fill="none" stroke-width="5.0" stroke-linecap="round" stroke-linejoin="round" />
<path d="M 134.0 168.0 L 134.0 168.0 L 134.0 169.0 L 134.0 169.0 L 134.0 170.0 L 134.0 173.0 L 134.0 176.0 L 134.0 178.0 " stroke="black" fill="none" stroke-width="5.0" stroke-linecap="round" stroke-linejoin="round" />
<path d="M 134.0 169.0 L 134.0 169.0 L 134.0 169.0 L 135.0 169.0 L 137.0 168.0 L 143.0 168.0 L 151.0 168.0 L 156.0 168.0 L 160.0 169.0 L 161.0 173.0 L 161.0 177.0 L 160.0 181.0 L 159.0 181.0 " stroke="black" fill="none" stroke-width="5.0" stroke-linecap="round" stroke-linejoin="round" />
<path d="M 130.0 184.0 L 131.0 185.0 L 133.0 185.0 L 138.0 185.0 L 146.0 184.0 L 154.0 183.0 L 156.0 183.0 " stroke="black" fill="none" stroke-width="5.0" stroke-linecap="round" stroke-linejoin="round" />
<path d="M 148.0 157.0 L 147.0 157.0 L 146.0 157.0 L 145.0 160.0 L 146.0 168.0 L 149.0 182.0 L 151.0 193.0 L 151.0 195.0 " stroke="black" fill="none" stroke-width="5.0" stroke-linecap="round" stroke-linejoin="round" />
<path d="M 130.0 197.0 L 130.0 198.0 L 131.0 199.0 L 134.0 199.0 L 141.0 199.0 L 151.0 198.0 L 159.0 198.0 L 161.0 198.0 " stroke="black" fill="none" stroke-width="5.0" stroke-linecap="round" stroke-linejoin="round" />
<path d="M 164.0 191.0 L 164.0 191.0 L 164.0 193.0 L 165.0 195.0 L 166.0 198.0 L 167.0 199.0 " stroke="black" fill="none" stroke-width="5.0" stroke-linecap="round" stroke-linejoin="round" />
</svg>