<svg xmlns="http://www.w3.org/2000/svg" width="300" height="300" viewBox="0 0 300 300">
<path d="M 122.0 118.0 L 122.0 118.0 L 123.0 119.0 L 123.0 119.0 L 124.0 119.0 L 124.0 120.0 L 122.0 123.0 L 117.0 129.0 L 109.0 137.0 L 105.0 141.0 " stroke="black" fill="none" stroke-width="5.0" stroke-linecap="round" stroke-linejoin="round" />
<path d="M 126.0 135.0 L 126.0 135.0 L 127.0 135.0 L 127.0 135.0 L 127.0 137.0 L 125.0 140.0 L 120.0 146.0 L 112.0 156.0 L 102.0 166.0 L 96.0 172.0 L 95.0 173.0 " stroke="black" fill="none" stroke-width="5.0" stroke-linecap="round" stroke-linejoin="round" />
<path d="M 116.0 154.0 L 116.0 154.0 L 116.0 154.0 L 116.0 156.0 L 117.0 163.0 L 118.0 175.0 L 118.0 190.0 L 118.0 200.0 L 118.0 203.0 " stroke="black" fill="none" stroke-width="5.0" stroke-linecap="round" stroke-linejoin="round" />
<path d="M 139.0 122.0 L 139.0 123.0 L 139.0 123.0 L 141.0 123.0 L 145.0 123.0 L 150.0 123.0 L 155.0 122.0 L 158.0 122.0 " stroke="black" fill="none" stroke-width="5.0" stroke-linecap="round" stroke-linejoin="round" />
<path d="M 134.0 141.0 L 134.0 141.0 L 135.0 141.0 L 138.0 141.0 L 145.0 141.0 L 154.0 141.0 L 162.0 141.0 L 166.0 141.0 " stroke="black" fill="none" stroke-width="5.0" stroke-linecap="round" stroke-linejoin="round" />
<path d="M 148.0 115.0 L 148.0 116.0 L 148.0 118.0 L 148.0 121.0 L 149.0 129.0 L 150.0 133.0 " stroke="black" fill="none" stroke-width="5.0" stroke-linecap="round" stroke-linejoin="round" />
<path d="M 138.0 159.0 L 138.0 159.0 L 138.0 159.0 L 140.0 159.0 L 144.0 159.0 L 151.0 159.0 L 157.0 159.0 " stroke="black" fill="none" stroke-width="5.0" stroke-linecap="round" stroke-linejoin="round" />
<path d="M 130.0 186.0 L 130.0 186.0 L 130.0 186.0 L 133.0 186.0 L 140.0 186.0 L 151.0 185.0 L 160.0 185.0 L 162.0 185.0 " stroke="black" fill="none" stroke-width="5.0" stroke-linecap="round" stroke-linejoin="round" />
<path d="M 146.0 152.0 L 146.0 153.0 L 146.0 154.0 L 146.0 158.0 L 146.0 166.0 L 148.0 175.0 L 148.0 177.0 " stroke="black" fill="none" stroke-width="5.0" stroke-linecap="round" stroke-linejoin="round" />
<path d="M 174.0 124.0 L 174.0 124.0 L 175.0 125.0 L 177.0 126.0 L 181.0 126.0 L 187.0 126.0 L 192.0 126.0 L 196.0 125.0 " stroke="black" fill="none" stroke-width="5.0" stroke-linecap="round" stroke-linejoin="round" />
<path d="M 172.0 141.0 L 173.0 141.0 L 175.0 141.0 L 178.0 142.0 L 184.0 142.0 L 190.0 142.0 L 195.0 141.0 L 197.0 141.0 " stroke="black" fill="none" stroke-width="5.0" stroke-linecap="round" stroke-linejoin="round" />
<path d="M 185.0 145.0 L 185.0 145.0 L 185.0 145.0 L 185.0 147.0 L 186.0 154.0 L 188.0 165.0 L 191.0 179.0 L 191.0 191.0 L 191.0 198.0 L 189.0 202.0 L 185.0 202.0 L 179.0 202.0 L 170.0 198.0 L 168.0 197.0 " stroke="black" fill="none" stroke-width="5.0" stroke-linecap="round" stroke-linejoin="round" />
</svg>