<svg xmlns="http://www.w3.org/2000/svg" width="300" height="300" viewBox="0 0 300 300">
<path d="M 129.0 120.0 L 129.0 120.0 L 129.0 120.0 L 128.0 122.0 L 127.0 125.0 L 123.0 133.0 L 116.0 144.0 L 112.0 149.0 " stroke="black" fill="none" stroke-width="5.0" stroke-linecap="round" stroke-linejoin="round" />
<path d="M 134.0 136.0 L 134.0 135.0 L 134.0 135.0 L 134.0 135.0 L 134.0 135.0 L 133.0 137.0 L 130.0 142.0 L 124.0 151.0 L 116.0 163.0 L 108.0 172.0 L 106.0 173.0 " stroke="black" fill="none" stroke-width="5.0" stroke-linecap="round" stroke-linejoin="round" />
<path d="M 125.0 153.0 L 125.0 153.0 L 125.0 154.0 L 125.0 157.0 L 126.0 165.0 L 127.0 177.0 L 128.0 186.0 L 128.0 188.0 " stroke="black" fill="none" stroke-width="5.0" stroke-linecap="round" stroke-linejoin="round" />
<path d="M 150.0 111.0 L 150.0 111.0 L 149.0 111.0 L 149.0 112.0 L 148.0 114.0 L 146.0 118.0 L 144.0 124.0 L 143.0 127.0 " stroke="black" fill="none" stroke-width="5.0" stroke-linecap="round" stroke-linejoin="round" />
<path d="M 147.0 119.0 L 147.0 119.0 L 148.0 119.0 L 149.0 119.0 L 151.0 119.0 L 153.0 119.0 L 155.0 119.0 L 156.0 119.0 L 157.0 120.0 L 156.0 124.0 L 153.0 130.0 L 152.0 131.0 " stroke="black" fill="none" stroke-width="5.0" stroke-linecap="round" stroke-linejoin="round" />
<path d="M 140.0 139.0 L 140.0 139.0 L 139.0 140.0 L 138.0 142.0 L 138.0 147.0 L 138.0 152.0 L 139.0 156.0 " stroke="black" fill="none" stroke-width="5.0" stroke-linecap="round" stroke-linejoin="round" />
<path d="M 141.0 138.0 L 141.0 136.0 L 142.0 135.0 L 144.0 134.0 L 148.0 134.0 L 152.0 133.0 L 156.0 132.0 L 159.0 132.0 L 160.0 132.0 L 162.0 133.0 L 163.0 136.0 L 164.0 141.0 L 165.0 146.0 L 166.0 152.0 L 166.0 156.0 L 166.0 157.0 " stroke="black" fill="none" stroke-width="5.0" stroke-linecap="round" stroke-linejoin="round" />
<path d="M 146.0 150.0 L 145.0 150.0 L 145.0 150.0 L 145.0 150.0 L 147.0 150.0 L 152.0 150.0 L 157.0 148.0 L 158.0 148.0 " stroke="black" fill="none" stroke-width="5.0" stroke-linecap="round" stroke-linejoin="round" />
<path d="M 150.0 139.0 L 150.0 139.0 L 150.0 139.0 L 150.0 139.0 L 150.0 144.0 L 151.0 151.0 L 151.0 153.0 " stroke="black" fill="none" stroke-width="5.0" stroke-linecap="round" stroke-linejoin="round" />
<path d="M 141.0 163.0 L 141.0 163.0 L 141.0 164.0 L 142.0 165.0 L 147.0 165.0 L 153.0 164.0 L 156.0 163.0 " stroke="black" fill="none" stroke-width="5.0" stroke-linecap="round" stroke-linejoin="round" />
<path d="M 137.0 177.0 L 137.0 177.0 L 137.0 177.0 L 138.0 177.0 L 143.0 176.0 L 151.0 174.0 L 158.0 173.0 L 160.0 172.0 " stroke="black" fill="none" stroke-width="5.0" stroke-linecap="round" stroke-linejoin="round" />
<path d="M 151.0 164.0 L 151.0 164.0 L 151.0 165.0 L 150.0 169.0 L 150.0 176.0 L 148.0 185.0 L 147.0 191.0 " stroke="black" fill="none" stroke-width="5.0" stroke-linecap="round" stroke-linejoin="round" />
<path d="M 153.0 179.0 L 153.0 179.0 L 154.0 181.0 L 156.0 183.0 L 159.0 185.0 L 163.0 187.0 " stroke="black" fill="none" stroke-width="5.0" stroke-linecap="round" stroke-linejoin="round" />
<path d="M 179.0 123.0 L 179.0 123.0 L 179.0 123.0 L 179.0 123.0 L 181.0 123.0 L 186.0 122.0 L 190.0 122.0 L 193.0 122.0 L 194.0 122.0 " stroke="black" fill="none" stroke-width="5.0" stroke-linecap="round" stroke-linejoin="round" />
<path d="M 175.0 139.0 L 175.0 139.0 L 175.0 140.0 L 179.0 140.0 L 185.0 139.0 L 193.0 137.0 L 197.0 137.0 L 198.0 137.0 L 198.0 138.0 " stroke="black" fill="none" stroke-width="5.0" stroke-linecap="round" stroke-linejoin="round" />
<path d="M 188.0 139.0 L 187.0 138.0 L 186.0 138.0 L 186.0 138.0 L 186.0 140.0 L 189.0 148.0 L 191.0 160.0 L 193.0 175.0 L 195.0 187.0 L 195.0 192.0 L 195.0 194.0 L 192.0 194.0 L 186.0 193.0 L 179.0 192.0 " stroke="black" fill="none" stroke-width="5.0" stroke-linecap="round" stroke-linejoin="round" />
</svg>