<svg xmlns="http://www.w3.org/2000/svg" width="300" height="300" viewBox="0 0 300 300">
<path d="M 128.0 120.0 L 128.0 120.0 L 128.0 122.0 L 126.0 124.0 L 123.0 127.0 L 119.0 133.0 " stroke="black" fill="none" stroke-width="5.0" stroke-linecap="round" stroke-linejoin="round" />
<path d="M 135.0 133.0 L 135.0 133.0 L 135.0 133.0 L 135.0 133.0 L 136.0 132.0 L 136.0 132.0 L 136.0 132.0 L 134.0 136.0 L 125.0 146.0 L 113.0 161.0 L 106.0 167.0 " stroke="black" fill="none" stroke-width="5.0" stroke-linecap="round" stroke-linejoin="round" />
<path d="M 127.0 147.0 L 128.0 147.0 L 128.0 146.0 L 128.0 146.0 L 128.0 149.0 L 129.0 159.0 L 129.0 173.0 L 128.0 179.0 " stroke="black" fill="none" stroke-width="5.0" stroke-linecap="round" stroke-linejoin="round" />
<path d="M 150.0 120.0 L 150.0 120.0 L 149.0 120.0 L 148.0 120.0 L 149.0 120.0 L 155.0 119.0 L 164.0 118.0 L 172.0 117.0 L 173.0 117.0 " stroke="black" fill="none" stroke-width="5.0" stroke-linecap="round" stroke-linejoin="round" />
<path d="M 146.0 137.0 L 146.0 137.0 L 146.0 137.0 L 147.0 137.0 L 154.0 136.0 L 168.0 133.0 L 180.0 132.0 L 183.0 132.0 " stroke="black" fill="none" stroke-width="5.0" stroke-linecap="round" stroke-linejoin="round" />
<path d="M 162.0 137.0 L 162.0 137.0 L 162.0 137.0 L 162.0 138.0 L 164.0 145.0 L 168.0 159.0 L 173.0 176.0 L 175.0 189.0 L 176.0 194.0 L 175.0 195.0 L 171.0 194.0 L 164.0 192.0 " stroke="black" fill="none" stroke-width="5.0" stroke-linecap="round" stroke-linejoin="round" />
</svg>