<svg xmlns="http://www.w3.org/2000/svg" width="300" height="300" viewBox="0 0 300 300">
<path d="M 127.0 115.0 L 127.0 115.0 L 127.0 117.0 L 127.0 119.0 L 128.0 121.0 L 128.0 122.0 " stroke="black" fill="none" stroke-width="5.0" stroke-linecap="round" stroke-linejoin="round" />
<path d="M 116.0 131.0 L 116.0 131.0 L 117.0 132.0 L 119.0 132.0 L 124.0 132.0 L 129.0 132.0 L 133.0 131.0 L 135.0 131.0 L 136.0 131.0 L 136.0 132.0 L 134.0 135.0 L 131.0 140.0 L 126.0 146.0 L 120.0 154.0 L 112.0 163.0 L 105.0 169.0 L 102.0 172.0 L 102.0 172.0 " stroke="black" fill="none" stroke-width="5.0" stroke-linecap="round" stroke-linejoin="round" />
<path d="M 122.0 153.0 L 122.0 153.0 L 122.0 153.0 L 122.0 153.0 L 122.0 155.0 L 122.0 161.0 L 123.0 171.0 L 123.0 181.0 L 124.0 186.0 L 124.0 188.0 L 124.0 188.0 " stroke="black" fill="none" stroke-width="5.0" stroke-linecap="round" stroke-linejoin="round" />
<path d="M 125.0 158.0 L 126.0 158.0 L 126.0 159.0 L 128.0 160.0 L 132.0 161.0 L 137.0 164.0 L 141.0 166.0 L 144.0 167.0 " stroke="black" fill="none" stroke-width="5.0" stroke-linecap="round" stroke-linejoin="round" />
<path d="M 137.0 155.0 L 137.0 155.0 L 136.0 156.0 L 136.0 157.0 L 135.0 160.0 L 135.0 162.0 " stroke="black" fill="none" stroke-width="5.0" stroke-linecap="round" stroke-linejoin="round" />
<path d="M 158.0 126.0 L 158.0 126.0 L 158.0 126.0 L 158.0 126.0 L 158.0 126.0 L 161.0 126.0 L 166.0 127.0 L 172.0 127.0 L 175.0 128.0 " stroke="black" fill="none" stroke-width="5.0" stroke-linecap="round" stroke-linejoin="round" />
<path d="M 149.0 144.0 L 150.0 144.0 L 151.0 144.0 L 154.0 144.0 L 162.0 144.0 L 174.0 144.0 L 182.0 144.0 L 187.0 144.0 L 187.0 144.0 " stroke="black" fill="none" stroke-width="5.0" stroke-linecap="round" stroke-linejoin="round" />
<path d="M 164.0 118.0 L 164.0 118.0 L 164.0 119.0 L 165.0 123.0 L 165.0 131.0 L 165.0 137.0 " stroke="black" fill="none" stroke-width="5.0" stroke-linecap="round" stroke-linejoin="round" />
<path d="M 155.0 164.0 L 155.0 165.0 L 155.0 165.0 L 158.0 165.0 L 163.0 165.0 L 170.0 165.0 L 176.0 165.0 L 178.0 166.0 " stroke="black" fill="none" stroke-width="5.0" stroke-linecap="round" stroke-linejoin="round" />
<path d="M 145.0 187.0 L 145.0 187.0 L 145.0 187.0 L 148.0 187.0 L 155.0 187.0 L 166.0 187.0 L 178.0 187.0 L 185.0 187.0 L 188.0 188.0 " stroke="black" fill="none" stroke-width="5.0" stroke-linecap="round" stroke-linejoin="round" />
<path d="M 163.0 153.0 L 163.0 153.0 L 163.0 153.0 L 164.0 155.0 L 165.0 161.0 L 165.0 171.0 L 165.0 181.0 L 165.0 183.0 " stroke="black" fill="none" stroke-width="5.0" stroke-linecap="round" stroke-linejoin="round" />
</svg>