<svg xmlns="http://www.w3.org/2000/svg" width="300" height="300" viewBox="0 0 300 300">
<path d="M 129.0 119.0 L 129.0 119.0 L 129.0 119.0 L 129.0 119.0 L 129.0 119.0 L 133.0 119.0 L 145.0 117.0 L 160.0 115.0 L 170.0 113.0 " stroke="black" fill="none" stroke-width="5.0" stroke-linecap="round" stroke-linejoin="round" />
<path d="M 140.0 132.0 L 140.0 132.0 L 141.0 132.0 L 144.0 132.0 L 149.0 131.0 L 157.0 131.0 L 161.0 131.0 " stroke="black" fill="none" stroke-width="5.0" stroke-linecap="round" stroke-linejoin="round" />
<path d="M 118.0 156.0 L 119.0 156.0 L 124.0 157.0 L 137.0 155.0 L 154.0 152.0 L 170.0 151.0 L 175.0 151.0 " stroke="black" fill="none" stroke-width="5.0" stroke-linecap="round" stroke-linejoin="round" />
<path d="M 148.0 110.0 L 148.0 110.0 L 148.0 109.0 L 149.0 118.0 L 152.0 137.0 L 153.0 147.0 " stroke="black" fill="none" stroke-width="5.0" stroke-linecap="round" stroke-linejoin="round" />
<path d="M 143.0 155.0 L 143.0 155.0 L 143.0 156.0 L 142.0 158.0 L 139.0 161.0 L 134.0 167.0 L 127.0 174.0 L 125.0 176.0 " stroke="black" fill="none" stroke-width="5.0" stroke-linecap="round" stroke-linejoin="round" />
<path d="M 140.0 168.0 L 137.0 171.0 L 134.0 174.0 L 133.0 180.0 L 133.0 188.0 L 137.0 195.0 L 144.0 197.0 L 148.0 197.0 " stroke="black" fill="none" stroke-width="5.0" stroke-linecap="round" stroke-linejoin="round" />
<path d="M 182.0 165.0 L 181.0 166.0 L 177.0 171.0 L 174.0 175.0 L 171.0 180.0 L 170.0 181.0 " stroke="black" fill="none" stroke-width="5.0" stroke-linecap="round" stroke-linejoin="round" />
<path d="M 151.0 161.0 L 151.0 161.0 L 151.0 163.0 L 158.0 172.0 L 170.0 188.0 L 179.0 202.0 L 181.0 206.0 " stroke="black" fill="none" stroke-width="5.0" stroke-linecap="round" stroke-linejoin="round" />
</svg>