<svg xmlns="http://www.w3.org/2000/svg" width="300" height="300" viewBox="0 0 300 300">
<path d="M 153.0 96.0 L 153.0 96.0 L 152.0 96.0 L 151.0 96.0 L 149.0 99.0 L 143.0 104.0 L 133.0 113.0 L 121.0 122.0 L 114.0 127.0 L 114.0 127.0 " stroke="black" fill="none" stroke-width="5.0" stroke-linecap="round" stroke-linejoin="round" />
<path d="M 154.0 98.0 L 154.0 98.0 L 154.0 98.0 L 156.0 99.0 L 161.0 102.0 L 172.0 107.0 L 181.0 111.0 L 187.0 114.0 L 189.0 115.0 " stroke="black" fill="none" stroke-width="5.0" stroke-linecap="round" stroke-linejoin="round" />
<path d="M 143.0 117.0 L 143.0 117.0 L 143.0 117.0 L 144.0 118.0 L 146.0 118.0 L 151.0 118.0 L 156.0 118.0 L 161.0 117.0 L 163.0 117.0 " stroke="black" fill="none" stroke-width="5.0" stroke-linecap="round" stroke-linejoin="round" />
<path d="M 140.0 127.0 L 140.0 127.0 L 140.0 128.0 L 142.0 129.0 L 147.0 129.0 L 154.0 128.0 L 160.0 127.0 L 164.0 127.0 L 165.0 127.0 L 165.0 129.0 L 162.0 132.0 L 158.0 137.0 L 154.0 141.0 L 152.0 144.0 " stroke="black" fill="none" stroke-width="5.0" stroke-linecap="round" stroke-linejoin="round" />
<path d="M 148.0 146.0 L 148.0 146.0 L 149.0 148.0 L 150.0 149.0 L 153.0 151.0 L 153.0 152.0 " stroke="black" fill="none" stroke-width="5.0" stroke-linecap="round" stroke-linejoin="round" />
<path d="M 116.0 159.0 L 116.0 159.0 L 117.0 160.0 L 119.0 160.0 L 126.0 160.0 L 143.0 159.0 L 161.0 156.0 L 176.0 153.0 L 182.0 153.0 L 182.0 153.0 " stroke="black" fill="none" stroke-width="5.0" stroke-linecap="round" stroke-linejoin="round" />
<path d="M 136.0 163.0 L 137.0 164.0 L 137.0 164.0 L 137.0 165.0 L 135.0 167.0 L 131.0 171.0 L 124.0 178.0 L 118.0 186.0 L 115.0 188.0 " stroke="black" fill="none" stroke-width="5.0" stroke-linecap="round" stroke-linejoin="round" />
<path d="M 133.0 167.0 L 133.0 167.0 L 133.0 167.0 L 132.0 167.0 L 132.0 167.0 L 131.0 169.0 L 131.0 175.0 L 130.0 185.0 L 130.0 194.0 L 131.0 199.0 L 133.0 200.0 L 137.0 199.0 L 145.0 194.0 L 147.0 192.0 " stroke="black" fill="none" stroke-width="5.0" stroke-linecap="round" stroke-linejoin="round" />
<path d="M 180.0 162.0 L 179.0 162.0 L 179.0 162.0 L 177.0 163.0 L 173.0 168.0 L 168.0 174.0 L 164.0 178.0 L 164.0 179.0 " stroke="black" fill="none" stroke-width="5.0" stroke-linecap="round" stroke-linejoin="round" />
<path d="M 151.0 167.0 L 151.0 167.0 L 149.0 167.0 L 148.0 166.0 L 147.0 166.0 L 149.0 168.0 L 158.0 176.0 L 169.0 186.0 L 182.0 194.0 L 188.0 198.0 " stroke="black" fill="none" stroke-width="5.0" stroke-linecap="round" stroke-linejoin="round" />
</svg>