<svg xmlns="http://www.w3.org/2000/svg" width="300" height="300" viewBox="0 0 300 300">
<path d="M 151.42857142857144 103.5714285714286 L 151.42857142857144 103.5714285714286 L 152.14285714285717 103.5714285714286 L 152.14285714285717 105.00000000000001 L 152.14285714285717 110.00000000000001 L 152.8571428571429 117.14285714285718 L 152.8571428571429 118.5714285714286 " stroke="black" fill="none" stroke-width="5.0" stroke-linecap="round" stroke-linejoin="round" />
<path d="M 139.28571428571433 112.14285714285718 L 139.28571428571433 112.14285714285718 L 139.28571428571433 111.42857142857146 L 140.00000000000006 111.42857142857146 L 141.42857142857144 113.5714285714286 L 142.8571428571429 115.00000000000001 " stroke="black" fill="none" stroke-width="5.0" stroke-linecap="round" stroke-linejoin="round" />
<path d="M 167.8571428571429 110.71428571428574 L 167.8571428571429 110.71428571428574 L 167.8571428571429 111.42857142857146 L 166.42857142857144 112.85714285714288 L 165.00000000000006 115.00000000000001 " stroke="black" fill="none" stroke-width="5.0" stroke-linecap="round" stroke-linejoin="round" />
<path d="M 130.71428571428572 124.28571428571432 L 130.71428571428572 124.28571428571432 L 130.71428571428572 124.28571428571432 L 130.71428571428572 124.28571428571432 L 130.71428571428572 125.71428571428574 L 131.42857142857144 129.28571428571433 L 132.14285714285717 132.8571428571429 L 132.14285714285717 133.5714285714286 " stroke="black" fill="none" stroke-width="5.0" stroke-linecap="round" stroke-linejoin="round" />
<path d="M 130.71428571428572 125.00000000000001 L 130.71428571428572 125.00000000000001 L 131.42857142857144 125.00000000000001 L 131.42857142857144 125.00000000000001 L 133.5714285714286 125.00000000000001 L 140.00000000000006 123.5714285714286 L 149.28571428571433 122.85714285714288 L 158.5714285714286 121.42857142857146 L 166.42857142857144 120.71428571428574 L 171.42857142857144 120.71428571428574 L 173.5714285714286 120.71428571428574 L 174.28571428571433 122.14285714285718 L 175.00000000000006 123.5714285714286 L 175.00000000000006 125.71428571428574 L 175.00000000000006 128.5714285714286 L 175.00000000000006 132.14285714285717 " stroke="black" fill="none" stroke-width="5.0" stroke-linecap="round" stroke-linejoin="round" />
<path d="M 144.28571428571433 135.00000000000006 L 144.28571428571433 135.00000000000006 L 144.28571428571433 135.00000000000006 L 144.28571428571433 135.00000000000006 L 144.28571428571433 135.00000000000006 L 144.28571428571433 137.8571428571429 L 145.00000000000006 140.00000000000006 " stroke="black" fill="none" stroke-width="5.0" stroke-linecap="round" stroke-linejoin="round" />
<path d="M 143.5714285714286 133.5714285714286 L 143.5714285714286 133.5714285714286 L 143.5714285714286 133.5714285714286 L 143.5714285714286 133.5714285714286 L 143.5714285714286 133.5714285714286 L 146.42857142857144 133.5714285714286 L 150.00000000000006 132.8571428571429 L 155.00000000000006 132.8571428571429 L 159.28571428571433 132.14285714285717 L 161.42857142857144 132.14285714285717 L 163.5714285714286 132.8571428571429 L 164.28571428571433 135.71428571428572 L 165.00000000000006 138.5714285714286 L 165.00000000000006 141.42857142857144 L 165.00000000000006 142.8571428571429 " stroke="black" fill="none" stroke-width="5.0" stroke-linecap="round" stroke-linejoin="round" />
<path d="M 143.5714285714286 145.71428571428572 L 143.5714285714286 145.71428571428572 L 143.5714285714286 145.71428571428572 L 143.5714285714286 145.71428571428572 L 145.71428571428572 145.71428571428572 L 152.14285714285717 145.71428571428572 L 157.8571428571429 145.71428571428572 " stroke="black" fill="none" stroke-width="5.0" stroke-linecap="round" stroke-linejoin="round" />
<path d="M 149.28571428571433 150.71428571428572 L 149.28571428571433 150.00000000000006 L 149.28571428571433 148.5714285714286 L 149.28571428571433 148.5714285714286 L 149.28571428571433 148.5714285714286 L 147.8571428571429 150.71428571428572 L 145.00000000000006 155.00000000000006 L 139.28571428571433 160.71428571428572 L 132.8571428571429 166.42857142857144 " stroke="black" fill="none" stroke-width="5.0" stroke-linecap="round" stroke-linejoin="round" />
<path d="M 145.71428571428572 158.5714285714286 L 145.00000000000006 158.5714285714286 L 145.00000000000006 158.5714285714286 L 144.28571428571433 158.5714285714286 L 144.28571428571433 158.5714285714286 L 143.5714285714286 160.00000000000006 L 142.14285714285717 166.42857142857144 L 141.42857142857144 177.14285714285717 L 142.8571428571429 185.71428571428578 L 147.8571428571429 187.8571428571429 L 152.8571428571429 186.42857142857144 " stroke="black" fill="none" stroke-width="5.0" stroke-linecap="round" stroke-linejoin="round" />
<path d="M 180.00000000000006 155.00000000000006 L 180.00000000000006 156.42857142857144 L 179.28571428571433 157.8571428571429 L 177.8571428571429 160.71428571428572 L 175.00000000000006 165.00000000000006 L 173.5714285714286 166.42857142857144 " stroke="black" fill="none" stroke-width="5.0" stroke-linecap="round" stroke-linejoin="round" />
<path d="M 152.14285714285717 154.28571428571433 L 152.14285714285717 154.28571428571433 L 152.14285714285717 153.5714285714286 L 153.5714285714286 155.71428571428572 L 160.71428571428572 167.8571428571429 L 174.28571428571433 188.5714285714286 L 183.5714285714286 202.8571428571429 L 184.28571428571433 204.28571428571433 " stroke="black" fill="none" stroke-width="5.0" stroke-linecap="round" stroke-linejoin="round" />
</svg>