<svg xmlns="http://www.w3.org/2000/svg" width="300" height="300" viewBox="0 0 300 300">
<path d="M 126.0 114.0 L 126.0 115.0 L 126.0 118.0 L 126.0 121.0 L 127.0 125.0 L 127.0 126.0 " stroke="black" fill="none" stroke-width="5.0" stroke-linecap="round" stroke-linejoin="round" />
<path d="M 118.0 133.0 L 118.0 133.0 L 118.0 134.0 L 120.0 134.0 L 125.0 134.0 L 129.0 134.0 L 132.0 133.0 L 134.0 133.0 L 134.0 135.0 L 132.0 139.0 L 127.0 144.0 L 120.0 152.0 L 112.0 161.0 L 105.0 169.0 L 100.0 173.0 L 98.0 174.0 L 97.0 174.0 " stroke="black" fill="none" stroke-width="5.0" stroke-linecap="round" stroke-linejoin="round" />
<path d="M 120.0 153.0 L 121.0 153.0 L 122.0 155.0 L 122.0 158.0 L 122.0 163.0 L 122.0 171.0 L 122.0 180.0 L 122.0 186.0 L 122.0 188.0 L 122.0 188.0 " stroke="black" fill="none" stroke-width="5.0" stroke-linecap="round" stroke-linejoin="round" />
<path d="M 126.0 155.0 L 126.0 155.0 L 127.0 157.0 L 128.0 158.0 L 132.0 161.0 L 138.0 163.0 L 141.0 164.0 " stroke="black" fill="none" stroke-width="5.0" stroke-linecap="round" stroke-linejoin="round" />
<path d="M 137.0 149.0 L 137.0 149.0 L 137.0 149.0 L 137.0 150.0 L 137.0 153.0 L 135.0 156.0 L 135.0 157.0 " stroke="black" fill="none" stroke-width="5.0" stroke-linecap="round" stroke-linejoin="round" />
<path d="M 162.0 119.0 L 162.0 119.0 L 162.0 120.0 L 160.0 123.0 L 157.0 128.0 L 152.0 135.0 L 146.0 141.0 L 144.0 142.0 " stroke="black" fill="none" stroke-width="5.0" stroke-linecap="round" stroke-linejoin="round" />
<path d="M 161.0 122.0 L 161.0 122.0 L 161.0 122.0 L 162.0 123.0 L 166.0 126.0 L 173.0 131.0 L 180.0 137.0 L 184.0 140.0 L 186.0 142.0 " stroke="black" fill="none" stroke-width="5.0" stroke-linecap="round" stroke-linejoin="round" />
<path d="M 152.0 142.0 L 152.0 142.0 L 153.0 142.0 L 155.0 142.0 L 160.0 142.0 L 167.0 142.0 L 173.0 142.0 L 176.0 142.0 " stroke="black" fill="none" stroke-width="5.0" stroke-linecap="round" stroke-linejoin="round" />
<path d="M 152.0 157.0 L 152.0 157.0 L 154.0 157.0 L 155.0 157.0 L 159.0 157.0 L 164.0 157.0 L 169.0 157.0 L 173.0 156.0 L 175.0 156.0 L 176.0 158.0 L 175.0 162.0 L 172.0 168.0 L 167.0 176.0 L 161.0 183.0 L 157.0 189.0 L 156.0 189.0 " stroke="black" fill="none" stroke-width="5.0" stroke-linecap="round" stroke-linejoin="round" />
</svg>