<svg xmlns="http://www.w3.org/2000/svg" width="300" height="300" viewBox="0 0 300 300">
<path d="M 132.0 101.0 L 132.0 101.0 L 132.0 101.0 L 131.0 104.0 L 128.0 110.0 L 123.0 120.0 L 116.0 129.0 L 111.0 134.0 L 110.0 135.0 " stroke="black" fill="none" stroke-width="5.0" stroke-linecap="round" stroke-linejoin="round" />
<path d="M 126.0 120.0 L 126.0 120.0 L 126.0 122.0 L 127.0 124.0 L 127.0 128.0 L 127.0 135.0 L 127.0 143.0 L 127.0 148.0 " stroke="black" fill="none" stroke-width="5.0" stroke-linecap="round" stroke-linejoin="round" />
<path d="M 145.0 116.0 L 145.0 116.0 L 145.0 116.0 L 145.0 116.0 L 148.0 116.0 L 155.0 116.0 L 164.0 115.0 L 171.0 115.0 L 175.0 114.0 L 175.0 114.0 " stroke="black" fill="none" stroke-width="5.0" stroke-linecap="round" stroke-linejoin="round" />
<path d="M 156.0 100.0 L 156.0 100.0 L 156.0 100.0 L 157.0 100.0 L 158.0 106.0 L 161.0 117.0 L 165.0 133.0 L 169.0 145.0 L 175.0 152.0 L 180.0 152.0 L 185.0 146.0 L 186.0 143.0 " stroke="black" fill="none" stroke-width="5.0" stroke-linecap="round" stroke-linejoin="round" />
<path d="M 169.0 98.0 L 169.0 99.0 L 171.0 101.0 L 172.0 105.0 L 174.0 109.0 " stroke="black" fill="none" stroke-width="5.0" stroke-linecap="round" stroke-linejoin="round" />
<path d="M 147.0 143.0 L 147.0 144.0 L 147.0 145.0 L 149.0 148.0 L 151.0 152.0 L 151.0 153.0 " stroke="black" fill="none" stroke-width="5.0" stroke-linecap="round" stroke-linejoin="round" />
<path d="M 114.0 161.0 L 114.0 162.0 L 114.0 162.0 L 115.0 162.0 L 122.0 162.0 L 137.0 162.0 L 154.0 162.0 L 169.0 162.0 L 177.0 161.0 L 179.0 161.0 L 178.0 161.0 " stroke="black" fill="none" stroke-width="5.0" stroke-linecap="round" stroke-linejoin="round" />
<path d="M 136.0 166.0 L 136.0 166.0 L 136.0 167.0 L 135.0 168.0 L 133.0 170.0 L 129.0 175.0 L 123.0 181.0 L 117.0 187.0 L 111.0 191.0 " stroke="black" fill="none" stroke-width="5.0" stroke-linecap="round" stroke-linejoin="round" />
<path d="M 132.0 180.0 L 132.0 180.0 L 131.0 181.0 L 131.0 182.0 L 130.0 184.0 L 130.0 189.0 L 131.0 195.0 L 134.0 200.0 L 141.0 201.0 L 151.0 197.0 L 153.0 196.0 " stroke="black" fill="none" stroke-width="5.0" stroke-linecap="round" stroke-linejoin="round" />
<path d="M 176.0 176.0 L 176.0 176.0 L 176.0 176.0 L 176.0 176.0 L 176.0 176.0 L 176.0 177.0 L 172.0 180.0 L 168.0 185.0 " stroke="black" fill="none" stroke-width="5.0" stroke-linecap="round" stroke-linejoin="round" />
<path d="M 148.0 170.0 L 148.0 170.0 L 148.0 170.0 L 148.0 170.0 L 152.0 174.0 L 160.0 182.0 L 172.0 192.0 L 180.0 198.0 L 185.0 200.0 L 186.0 201.0 L 186.0 201.0 L 186.0 200.0 " stroke="black" fill="none" stroke-width="5.0" stroke-linecap="round" stroke-linejoin="round" />
</svg>