<svg xmlns="http://www.w3.org/2000/svg" width="300" height="300" viewBox="0 0 300 300">
<path d="M 144.0 104.0 L 144.0 104.0 L 144.0 104.0 L 145.0 106.0 L 147.0 109.0 L 149.0 114.0 " stroke="black" fill="none" stroke-width="5.0" stroke-linecap="round" stroke-linejoin="round" />
<path d="M 119.0 122.0 L 119.0 122.0 L 119.0 122.0 L 121.0 122.0 L 127.0 122.0 L 141.0 122.0 L 156.0 122.0 L 168.0 122.0 L 174.0 122.0 L 177.0 122.0 L 178.0 122.0 L 177.0 122.0 " stroke="black" fill="none" stroke-width="5.0" stroke-linecap="round" stroke-linejoin="round" />
<path d="M 128.0 137.0 L 128.0 137.0 L 128.0 137.0 L 128.0 139.0 L 128.0 142.0 L 129.0 147.0 L 130.0 149.0 " stroke="black" fill="none" stroke-width="5.0" stroke-linecap="round" stroke-linejoin="round" />
<path d="M 129.0 138.0 L 130.0 138.0 L 130.0 137.0 L 133.0 137.0 L 140.0 136.0 L 149.0 135.0 L 159.0 134.0 L 167.0 134.0 L 172.0 136.0 L 174.0 139.0 L 175.0 143.0 L 175.0 147.0 L 175.0 150.0 L 174.0 152.0 " stroke="black" fill="none" stroke-width="5.0" stroke-linecap="round" stroke-linejoin="round" />
<path d="M 132.0 158.0 L 132.0 158.0 L 132.0 158.0 L 132.0 158.0 L 136.0 158.0 L 145.0 157.0 L 158.0 156.0 L 166.0 156.0 L 169.0 156.0 L 169.0 156.0 " stroke="black" fill="none" stroke-width="5.0" stroke-linecap="round" stroke-linejoin="round" />
<path d="M 149.0 124.0 L 149.0 125.0 L 149.0 128.0 L 150.0 134.0 L 151.0 144.0 L 151.0 146.0 " stroke="black" fill="none" stroke-width="5.0" stroke-linecap="round" stroke-linejoin="round" />
<path d="M 143.0 160.0 L 143.0 160.0 L 142.0 160.0 L 141.0 161.0 L 140.0 163.0 L 137.0 167.0 L 133.0 173.0 L 126.0 181.0 L 121.0 186.0 " stroke="black" fill="none" stroke-width="5.0" stroke-linecap="round" stroke-linejoin="round" />
<path d="M 140.0 170.0 L 140.0 170.0 L 140.0 170.0 L 140.0 170.0 L 139.0 170.0 L 139.0 170.0 L 139.0 175.0 L 138.0 187.0 L 137.0 199.0 L 141.0 203.0 L 150.0 200.0 " stroke="black" fill="none" stroke-width="5.0" stroke-linecap="round" stroke-linejoin="round" />
<path d="M 178.0 166.0 L 178.0 166.0 L 176.0 167.0 L 175.0 168.0 L 173.0 171.0 L 170.0 175.0 L 169.0 177.0 " stroke="black" fill="none" stroke-width="5.0" stroke-linecap="round" stroke-linejoin="round" />
<path d="M 150.0 165.0 L 150.0 165.0 L 150.0 165.0 L 150.0 165.0 L 155.0 171.0 L 167.0 185.0 L 180.0 201.0 L 188.0 210.0 L 191.0 213.0 " stroke="black" fill="none" stroke-width="5.0" stroke-linecap="round" stroke-linejoin="round" />
</svg>