<svg xmlns="http://www.w3.org/2000/svg" width="300" height="300" viewBox="0 0 300 300">
<path d="M 132.0 113.0 L 132.0 113.0 L 132.0 113.0 L 132.0 114.0 L 133.0 117.0 L 134.0 121.0 " stroke="black" fill="none" stroke-width="5.0" stroke-linecap="round" stroke-linejoin="round" />
<path d="M 121.0 130.0 L 121.0 130.0 L 121.0 131.0 L 121.0 132.0 L 123.0 132.0 L 131.0 132.0 L 140.0 130.0 L 147.0 129.0 L 150.0 129.0 L 150.0 129.0 L 148.0 130.0 L 144.0 135.0 L 139.0 142.0 L 131.0 153.0 L 118.0 166.0 L 104.0 179.0 L 97.0 185.0 L 96.0 185.0 " stroke="black" fill="none" stroke-width="5.0" stroke-linecap="round" stroke-linejoin="round" />
<path d="M 129.0 155.0 L 129.0 155.0 L 130.0 155.0 L 130.0 157.0 L 131.0 161.0 L 132.0 171.0 L 132.0 183.0 L 132.0 188.0 " stroke="black" fill="none" stroke-width="5.0" stroke-linecap="round" stroke-linejoin="round" />
<path d="M 135.0 161.0 L 135.0 161.0 L 135.0 162.0 L 138.0 165.0 L 144.0 171.0 L 151.0 178.0 " stroke="black" fill="none" stroke-width="5.0" stroke-linecap="round" stroke-linejoin="round" />
<path d="M 159.0 131.0 L 159.0 131.0 L 159.0 131.0 L 159.0 132.0 L 160.0 132.0 L 165.0 132.0 L 174.0 130.0 L 181.0 129.0 L 186.0 129.0 L 187.0 131.0 L 187.0 135.0 L 186.0 139.0 L 184.0 142.0 " stroke="black" fill="none" stroke-width="5.0" stroke-linecap="round" stroke-linejoin="round" />
<path d="M 155.0 138.0 L 155.0 138.0 L 155.0 138.0 L 155.0 138.0 L 155.0 142.0 L 155.0 155.0 L 155.0 173.0 L 154.0 188.0 L 154.0 192.0 " stroke="black" fill="none" stroke-width="5.0" stroke-linecap="round" stroke-linejoin="round" />
<path d="M 168.0 117.0 L 168.0 117.0 L 169.0 118.0 L 169.0 119.0 L 170.0 123.0 L 172.0 131.0 L 173.0 140.0 " stroke="black" fill="none" stroke-width="5.0" stroke-linecap="round" stroke-linejoin="round" />
<path d="M 163.0 159.0 L 163.0 159.0 L 164.0 159.0 L 168.0 158.0 L 175.0 157.0 L 182.0 157.0 L 187.0 157.0 L 189.0 158.0 L 189.0 161.0 L 186.0 169.0 L 179.0 182.0 L 172.0 195.0 L 167.0 202.0 " stroke="black" fill="none" stroke-width="5.0" stroke-linecap="round" stroke-linejoin="round" />
<path d="M 162.0 162.0 L 162.0 162.0 L 162.0 162.0 L 165.0 164.0 L 177.0 178.0 L 191.0 199.0 L 197.0 214.0 L 197.0 219.0 " stroke="black" fill="none" stroke-width="5.0" stroke-linecap="round" stroke-linejoin="round" />
</svg>