<svg xmlns="http://www.w3.org/2000/svg" width="300" height="300" viewBox="0 0 300 300">
<path d="M 138.0 117.0 L 138.0 118.0 L 137.0 119.0 L 136.0 120.0 L 134.0 122.0 L 131.0 125.0 L 126.0 128.0 L 123.0 130.0 L 121.0 131.0 L 120.0 132.0 L 120.0 134.0 L 120.0 137.0 L 122.0 144.0 L 123.0 154.0 L 124.0 163.0 L 124.0 169.0 L 125.0 173.0 L 125.0 173.0 " stroke="black" fill="none" stroke-width="5.0" stroke-linecap="round" stroke-linejoin="round" />
<path d="M 127.0 135.0 L 127.0 135.0 L 127.0 135.0 L 128.0 135.0 L 129.0 135.0 L 132.0 135.0 L 139.0 135.0 L 149.0 134.0 L 160.0 134.0 L 169.0 134.0 L 177.0 134.0 L 182.0 135.0 L 185.0 137.0 L 186.0 139.0 L 186.0 143.0 L 186.0 151.0 L 187.0 161.0 L 187.0 172.0 L 187.0 180.0 L 187.0 184.0 L 187.0 184.0 " stroke="black" fill="none" stroke-width="5.0" stroke-linecap="round" stroke-linejoin="round" />
<path d="M 146.0 142.0 L 146.0 142.0 L 145.0 142.0 L 145.0 142.0 L 145.0 147.0 L 145.0 157.0 L 147.0 167.0 " stroke="black" fill="none" stroke-width="5.0" stroke-linecap="round" stroke-linejoin="round" />
<path d="M 161.0 138.0 L 161.0 138.0 L 161.0 140.0 L 161.0 143.0 L 162.0 152.0 L 162.0 165.0 L 162.0 175.0 " stroke="black" fill="none" stroke-width="5.0" stroke-linecap="round" stroke-linejoin="round" />
<path d="M 103.0 183.0 L 103.0 183.0 L 103.0 183.0 L 103.0 183.0 L 108.0 183.0 L 121.0 182.0 L 141.0 184.0 L 161.0 187.0 L 180.0 188.0 L 194.0 188.0 L 203.0 188.0 L 206.0 188.0 L 206.0 188.0 " stroke="black" fill="none" stroke-width="5.0" stroke-linecap="round" stroke-linejoin="round" />
</svg>