<svg xmlns="http://www.w3.org/2000/svg" width="300" height="300" viewBox="0 0 300 300">
<path d="M 119.0 113.0 L 119.0 113.0 L 119.0 114.0 L 119.0 116.0 L 120.0 119.0 L 122.0 124.0 L 122.0 126.0 " stroke="black" fill="none" stroke-width="5.0" stroke-linecap="round" stroke-linejoin="round" />
<path d="M 112.0 135.0 L 112.0 135.0 L 112.0 135.0 L 113.0 135.0 L 117.0 134.0 L 122.0 134.0 L 126.0 134.0 L 128.0 134.0 L 129.0 135.0 L 128.0 137.0 L 128.0 139.0 L 121.0 148.0 L 115.0 156.0 L 106.0 166.0 L 98.0 174.0 L 94.0 177.0 L 95.0 176.0 " stroke="black" fill="none" stroke-width="5.0" stroke-linecap="round" stroke-linejoin="round" />
<path d="M 115.0 157.0 L 115.0 157.0 L 115.0 157.0 L 115.0 157.0 L 115.0 157.0 L 116.0 161.0 L 117.0 169.0 L 117.0 178.0 L 118.0 186.0 L 119.0 188.0 " stroke="black" fill="none" stroke-width="5.0" stroke-linecap="round" stroke-linejoin="round" />
<path d="M 118.0 162.0 L 118.0 162.0 L 119.0 162.0 L 120.0 162.0 L 122.0 162.0 L 127.0 165.0 L 133.0 168.0 L 138.0 170.0 L 140.0 172.0 " stroke="black" fill="none" stroke-width="5.0" stroke-linecap="round" stroke-linejoin="round" />
<path d="M 133.0 151.0 L 133.0 151.0 L 133.0 151.0 L 132.0 152.0 L 132.0 154.0 L 130.0 161.0 L 128.0 164.0 " stroke="black" fill="none" stroke-width="5.0" stroke-linecap="round" stroke-linejoin="round" />
<path d="M 152.0 111.0 L 152.0 111.0 L 152.0 113.0 L 152.0 114.0 L 152.0 118.0 L 153.0 124.0 L 153.0 129.0 L 153.0 130.0 " stroke="black" fill="none" stroke-width="5.0" stroke-linecap="round" stroke-linejoin="round" />
<path d="M 141.0 123.0 L 141.0 123.0 L 141.0 124.0 L 141.0 124.0 L 143.0 124.0 L 147.0 124.0 L 148.0 124.0 " stroke="black" fill="none" stroke-width="5.0" stroke-linecap="round" stroke-linejoin="round" />
<path d="M 165.0 112.0 L 165.0 112.0 L 165.0 112.0 L 166.0 114.0 L 166.0 117.0 L 167.0 122.0 L 167.0 127.0 L 167.0 131.0 L 167.0 133.0 " stroke="black" fill="none" stroke-width="5.0" stroke-linecap="round" stroke-linejoin="round" />
<path d="M 166.0 120.0 L 166.0 120.0 L 167.0 120.0 L 168.0 120.0 L 171.0 120.0 L 175.0 120.0 L 179.0 120.0 L 179.0 120.0 " stroke="black" fill="none" stroke-width="5.0" stroke-linecap="round" stroke-linejoin="round" />
<path d="M 145.0 138.0 L 145.0 138.0 L 145.0 138.0 L 144.0 139.0 L 144.0 142.0 L 144.0 146.0 L 145.0 150.0 L 146.0 152.0 L 146.0 152.0 " stroke="black" fill="none" stroke-width="5.0" stroke-linecap="round" stroke-linejoin="round" />
<path d="M 145.0 138.0 L 145.0 138.0 L 145.0 138.0 L 147.0 139.0 L 150.0 139.0 L 158.0 139.0 L 166.0 138.0 L 174.0 138.0 L 180.0 138.0 L 184.0 138.0 L 185.0 141.0 L 185.0 145.0 L 185.0 148.0 L 185.0 151.0 " stroke="black" fill="none" stroke-width="5.0" stroke-linecap="round" stroke-linejoin="round" />
<path d="M 149.0 154.0 L 149.0 154.0 L 149.0 154.0 L 149.0 154.0 L 152.0 154.0 L 158.0 154.0 L 167.0 153.0 L 173.0 153.0 L 176.0 153.0 " stroke="black" fill="none" stroke-width="5.0" stroke-linecap="round" stroke-linejoin="round" />
<path d="M 156.0 142.0 L 156.0 142.0 L 156.0 142.0 L 156.0 142.0 L 156.0 146.0 L 156.0 150.0 L 156.0 151.0 " stroke="black" fill="none" stroke-width="5.0" stroke-linecap="round" stroke-linejoin="round" />
<path d="M 168.0 139.0 L 168.0 140.0 L 168.0 143.0 L 168.0 148.0 L 168.0 153.0 L 168.0 154.0 " stroke="black" fill="none" stroke-width="5.0" stroke-linecap="round" stroke-linejoin="round" />
<path d="M 150.0 164.0 L 150.0 164.0 L 150.0 164.0 L 150.0 165.0 L 153.0 165.0 L 160.0 166.0 L 171.0 166.0 L 179.0 166.0 L 183.0 166.0 " stroke="black" fill="none" stroke-width="5.0" stroke-linecap="round" stroke-linejoin="round" />
<path d="M 149.0 169.0 L 149.0 169.0 L 149.0 170.0 L 148.0 171.0 L 148.0 176.0 L 146.0 185.0 L 144.0 195.0 L 143.0 201.0 L 143.0 202.0 " stroke="black" fill="none" stroke-width="5.0" stroke-linecap="round" stroke-linejoin="round" />
<path d="M 152.0 184.0 L 152.0 184.0 L 152.0 184.0 L 153.0 185.0 L 154.0 187.0 L 156.0 188.0 " stroke="black" fill="none" stroke-width="5.0" stroke-linecap="round" stroke-linejoin="round" />
<path d="M 165.0 157.0 L 165.0 157.0 L 166.0 159.0 L 168.0 165.0 L 172.0 176.0 L 178.0 191.0 L 185.0 202.0 L 189.0 207.0 L 192.0 209.0 " stroke="black" fill="none" stroke-width="5.0" stroke-linecap="round" stroke-linejoin="round" />
<path d="M 192.0 189.0 L 191.0 189.0 L 190.0 189.0 L 188.0 191.0 L 184.0 195.0 L 178.0 200.0 L 174.0 203.0 " stroke="black" fill="none" stroke-width="5.0" stroke-linecap="round" stroke-linejoin="round" />
<path d="M 188.0 156.0 L 188.0 156.0 L 189.0 157.0 L 190.0 158.0 L 192.0 160.0 L 192.0 160.0 " stroke="black" fill="none" stroke-width="5.0" stroke-linecap="round" stroke-linejoin="round" />
</svg>