<svg xmlns="http://www.w3.org/2000/svg" width="300" height="300" viewBox="0 0 300 300">
<path d="M 131.0 126.0 L 130.0 126.0 L 129.0 126.0 L 129.0 126.0 L 134.0 126.0 L 145.0 126.0 L 158.0 125.0 L 172.0 124.0 L 180.0 124.0 L 182.0 124.0 " stroke="black" fill="none" stroke-width="5.0" stroke-linecap="round" stroke-linejoin="round" />
<path d="M 143.0 131.0 L 143.0 131.0 L 143.0 131.0 L 143.0 131.0 L 143.0 134.0 L 143.0 142.0 L 142.0 156.0 L 139.0 169.0 L 139.0 174.0 " stroke="black" fill="none" stroke-width="5.0" stroke-linecap="round" stroke-linejoin="round" />
<path d="M 158.0 132.0 L 158.0 132.0 L 158.0 132.0 L 159.0 132.0 L 159.0 134.0 L 160.0 142.0 L 161.0 154.0 L 164.0 166.0 L 170.0 172.0 L 177.0 171.0 " stroke="black" fill="none" stroke-width="5.0" stroke-linecap="round" stroke-linejoin="round" />
<path d="M 123.0 152.0 L 123.0 152.0 L 122.0 152.0 L 122.0 152.0 L 122.0 154.0 L 122.0 163.0 L 123.0 178.0 L 124.0 190.0 L 125.0 194.0 L 125.0 194.0 " stroke="black" fill="none" stroke-width="5.0" stroke-linecap="round" stroke-linejoin="round" />
<path d="M 125.0 154.0 L 125.0 154.0 L 126.0 154.0 L 128.0 154.0 L 133.0 153.0 L 143.0 151.0 L 155.0 151.0 L 166.0 150.0 L 175.0 150.0 L 181.0 151.0 L 185.0 153.0 L 188.0 157.0 L 190.0 163.0 L 192.0 174.0 L 193.0 185.0 L 193.0 192.0 L 193.0 195.0 " stroke="black" fill="none" stroke-width="5.0" stroke-linecap="round" stroke-linejoin="round" />
<path d="M 126.0 196.0 L 126.0 196.0 L 124.0 196.0 L 123.0 196.0 L 125.0 197.0 L 135.0 198.0 L 150.0 197.0 L 168.0 196.0 L 185.0 196.0 L 194.0 197.0 L 195.0 198.0 L 195.0 198.0 " stroke="black" fill="none" stroke-width="5.0" stroke-linecap="round" stroke-linejoin="round" />
</svg>