<svg xmlns="http://www.w3.org/2000/svg" width="300" height="300" viewBox="0 0 300 300">
<path d="M 118.0 116.0 L 119.0 116.0 L 119.0 116.0 L 119.0 117.0 L 121.0 117.0 L 124.0 117.0 L 130.0 117.0 L 137.0 116.0 L 142.0 116.0 L 143.0 116.0 " stroke="black" fill="none" stroke-width="5.0" stroke-linecap="round" stroke-linejoin="round" />
<path d="M 121.0 133.0 L 121.0 133.0 L 123.0 133.0 L 125.0 133.0 L 129.0 133.0 L 134.0 132.0 L 140.0 131.0 L 141.0 131.0 " stroke="black" fill="none" stroke-width="5.0" stroke-linecap="round" stroke-linejoin="round" />
<path d="M 129.0 105.0 L 129.0 105.0 L 130.0 105.0 L 130.0 105.0 L 130.0 105.0 L 131.0 107.0 L 132.0 115.0 L 132.0 124.0 L 132.0 129.0 " stroke="black" fill="none" stroke-width="5.0" stroke-linecap="round" stroke-linejoin="round" />
<path d="M 109.0 141.0 L 109.0 141.0 L 110.0 142.0 L 110.0 145.0 L 110.0 148.0 L 110.0 151.0 L 110.0 152.0 " stroke="black" fill="none" stroke-width="5.0" stroke-linecap="round" stroke-linejoin="round" />
<path d="M 110.0 143.0 L 110.0 143.0 L 111.0 142.0 L 113.0 142.0 L 118.0 141.0 L 127.0 139.0 L 137.0 139.0 L 144.0 139.0 L 147.0 140.0 L 149.0 141.0 L 149.0 142.0 L 149.0 144.0 L 149.0 147.0 L 147.0 151.0 L 147.0 152.0 " stroke="black" fill="none" stroke-width="5.0" stroke-linecap="round" stroke-linejoin="round" />
<path d="M 109.0 154.0 L 109.0 154.0 L 109.0 154.0 L 110.0 154.0 L 113.0 154.0 L 122.0 154.0 L 134.0 153.0 L 142.0 153.0 L 144.0 153.0 " stroke="black" fill="none" stroke-width="5.0" stroke-linecap="round" stroke-linejoin="round" />
<path d="M 122.0 140.0 L 122.0 140.0 L 122.0 140.0 L 121.0 140.0 L 121.0 143.0 L 121.0 147.0 L 122.0 151.0 " stroke="black" fill="none" stroke-width="5.0" stroke-linecap="round" stroke-linejoin="round" />
<path d="M 136.0 141.0 L 136.0 141.0 L 135.0 141.0 L 135.0 143.0 L 135.0 146.0 L 134.0 152.0 L 134.0 153.0 " stroke="black" fill="none" stroke-width="5.0" stroke-linecap="round" stroke-linejoin="round" />
<path d="M 118.0 161.0 L 118.0 161.0 L 118.0 162.0 L 118.0 162.0 L 119.0 162.0 L 121.0 163.0 L 127.0 162.0 L 134.0 161.0 L 140.0 160.0 L 143.0 160.0 L 144.0 160.0 L 144.0 161.0 L 144.0 164.0 L 145.0 170.0 L 146.0 179.0 L 147.0 187.0 L 148.0 192.0 L 148.0 193.0 L 148.0 193.0 " stroke="black" fill="none" stroke-width="5.0" stroke-linecap="round" stroke-linejoin="round" />
<path d="M 117.0 160.0 L 117.0 160.0 L 117.0 160.0 L 116.0 163.0 L 116.0 169.0 L 116.0 178.0 L 117.0 184.0 L 117.0 185.0 " stroke="black" fill="none" stroke-width="5.0" stroke-linecap="round" stroke-linejoin="round" />
<path d="M 121.0 169.0 L 121.0 169.0 L 121.0 169.0 L 122.0 169.0 L 124.0 169.0 L 131.0 169.0 L 138.0 169.0 L 143.0 169.0 L 146.0 169.0 " stroke="black" fill="none" stroke-width="5.0" stroke-linecap="round" stroke-linejoin="round" />
<path d="M 121.0 179.0 L 121.0 179.0 L 123.0 180.0 L 126.0 180.0 L 131.0 180.0 L 137.0 180.0 L 141.0 179.0 " stroke="black" fill="none" stroke-width="5.0" stroke-linecap="round" stroke-linejoin="round" />
<path d="M 120.0 187.0 L 120.0 187.0 L 120.0 189.0 L 121.0 190.0 L 126.0 190.0 L 134.0 189.0 L 141.0 188.0 L 145.0 188.0 L 145.0 188.0 " stroke="black" fill="none" stroke-width="5.0" stroke-linecap="round" stroke-linejoin="round" />
<path d="M 129.0 193.0 L 129.0 193.0 L 129.0 193.0 L 129.0 193.0 L 129.0 194.0 L 128.0 198.0 L 128.0 202.0 " stroke="black" fill="none" stroke-width="5.0" stroke-linecap="round" stroke-linejoin="round" />
<path d="M 139.0 193.0 L 139.0 193.0 L 139.0 193.0 L 140.0 195.0 L 143.0 198.0 L 145.0 200.0 " stroke="black" fill="none" stroke-width="5.0" stroke-linecap="round" stroke-linejoin="round" />
<path d="M 160.0 109.0 L 160.0 109.0 L 160.0 110.0 L 159.0 113.0 L 159.0 124.0 L 159.0 141.0 L 159.0 158.0 L 159.0 165.0 L 160.0 167.0 L 160.0 165.0 " stroke="black" fill="none" stroke-width="5.0" stroke-linecap="round" stroke-linejoin="round" />
<path d="M 161.0 114.0 L 161.0 114.0 L 161.0 114.0 L 161.0 114.0 L 162.0 113.0 L 164.0 113.0 L 169.0 113.0 L 174.0 114.0 L 179.0 115.0 L 183.0 117.0 L 185.0 119.0 L 187.0 125.0 L 188.0 136.0 L 190.0 149.0 L 191.0 160.0 L 192.0 166.0 L 193.0 168.0 L 193.0 169.0 " stroke="black" fill="none" stroke-width="5.0" stroke-linecap="round" stroke-linejoin="round" />
<path d="M 163.0 132.0 L 163.0 132.0 L 163.0 132.0 L 163.0 132.0 L 166.0 132.0 L 171.0 132.0 L 178.0 132.0 L 183.0 133.0 L 185.0 134.0 L 186.0 134.0 " stroke="black" fill="none" stroke-width="5.0" stroke-linecap="round" stroke-linejoin="round" />
<path d="M 165.0 147.0 L 165.0 147.0 L 166.0 148.0 L 168.0 148.0 L 172.0 148.0 L 179.0 148.0 L 186.0 148.0 L 189.0 148.0 " stroke="black" fill="none" stroke-width="5.0" stroke-linecap="round" stroke-linejoin="round" />
<path d="M 163.0 166.0 L 163.0 167.0 L 165.0 168.0 L 169.0 168.0 L 177.0 168.0 L 185.0 167.0 L 189.0 167.0 L 191.0 167.0 " stroke="black" fill="none" stroke-width="5.0" stroke-linecap="round" stroke-linejoin="round" />
<path d="M 172.0 170.0 L 172.0 170.0 L 172.0 170.0 L 172.0 171.0 L 171.0 174.0 L 169.0 180.0 L 166.0 189.0 L 165.0 196.0 L 165.0 197.0 " stroke="black" fill="none" stroke-width="5.0" stroke-linecap="round" stroke-linejoin="round" />
<path d="M 182.0 170.0 L 182.0 170.0 L 182.0 170.0 L 182.0 170.0 L 182.0 172.0 L 182.0 176.0 L 184.0 183.0 L 187.0 190.0 L 192.0 193.0 L 198.0 194.0 L 204.0 194.0 L 208.0 192.0 L 209.0 191.0 L 209.0 190.0 L 209.0 187.0 L 209.0 177.0 " stroke="black" fill="none" stroke-width="5.0" stroke-linecap="round" stroke-linejoin="round" />
</svg>