<svg xmlns="http://www.w3.org/2000/svg" width="300" height="300" viewBox="0 0 300 300">
<path d="M 126.0 103.0 L 126.0 103.0 L 126.0 103.0 L 127.0 103.0 L 132.0 103.0 L 142.0 103.0 L 153.0 103.0 L 163.0 103.0 L 169.0 103.0 L 170.0 103.0 L 169.0 104.0 L 168.0 104.0 " stroke="black" fill="none" stroke-width="5.0" stroke-linecap="round" stroke-linejoin="round" />
<path d="M 115.0 118.0 L 115.0 118.0 L 115.0 120.0 L 115.0 122.0 L 116.0 125.0 L 117.0 129.0 L 119.0 131.0 L 119.0 132.0 " stroke="black" fill="none" stroke-width="5.0" stroke-linecap="round" stroke-linejoin="round" />
<path d="M 118.0 116.0 L 118.0 116.0 L 119.0 116.0 L 120.0 116.0 L 127.0 116.0 L 139.0 116.0 L 152.0 116.0 L 164.0 116.0 L 173.0 116.0 L 181.0 117.0 L 185.0 118.0 L 187.0 120.0 L 187.0 126.0 L 187.0 133.0 L 187.0 137.0 L 187.0 139.0 " stroke="black" fill="none" stroke-width="5.0" stroke-linecap="round" stroke-linejoin="round" />
<path d="M 116.0 136.0 L 116.0 136.0 L 117.0 136.0 L 117.0 136.0 L 122.0 137.0 L 135.0 137.0 L 152.0 137.0 L 167.0 138.0 L 176.0 138.0 L 179.0 138.0 " stroke="black" fill="none" stroke-width="5.0" stroke-linecap="round" stroke-linejoin="round" />
<path d="M 139.0 109.0 L 139.0 109.0 L 139.0 108.0 L 139.0 108.0 L 139.0 108.0 L 140.0 114.0 L 141.0 124.0 L 141.0 132.0 L 141.0 133.0 " stroke="black" fill="none" stroke-width="5.0" stroke-linecap="round" stroke-linejoin="round" />
<path d="M 154.0 107.0 L 154.0 107.0 L 154.0 109.0 L 154.0 112.0 L 154.0 119.0 L 154.0 128.0 L 154.0 133.0 " stroke="black" fill="none" stroke-width="5.0" stroke-linecap="round" stroke-linejoin="round" />
<path d="M 134.0 148.0 L 134.0 148.0 L 134.0 148.0 L 135.0 148.0 L 135.0 150.0 L 133.0 153.0 L 129.0 157.0 L 122.0 164.0 L 116.0 169.0 L 114.0 171.0 " stroke="black" fill="none" stroke-width="5.0" stroke-linecap="round" stroke-linejoin="round" />
<path d="M 137.0 162.0 L 137.0 163.0 L 137.0 164.0 L 137.0 165.0 L 135.0 167.0 L 131.0 170.0 L 125.0 175.0 L 117.0 182.0 L 110.0 188.0 L 108.0 191.0 L 108.0 191.0 " stroke="black" fill="none" stroke-width="5.0" stroke-linecap="round" stroke-linejoin="round" />
<path d="M 127.0 171.0 L 127.0 171.0 L 127.0 172.0 L 127.0 173.0 L 127.0 176.0 L 127.0 182.0 L 127.0 191.0 L 127.0 200.0 L 126.0 203.0 " stroke="black" fill="none" stroke-width="5.0" stroke-linecap="round" stroke-linejoin="round" />
<path d="M 153.0 142.0 L 153.0 142.0 L 153.0 142.0 L 153.0 142.0 L 153.0 142.0 L 153.0 145.0 L 151.0 151.0 L 148.0 157.0 L 146.0 161.0 " stroke="black" fill="none" stroke-width="5.0" stroke-linecap="round" stroke-linejoin="round" />
<path d="M 152.0 149.0 L 152.0 150.0 L 152.0 150.0 L 152.0 151.0 L 155.0 151.0 L 161.0 151.0 L 167.0 150.0 L 171.0 149.0 L 173.0 149.0 L 173.0 149.0 " stroke="black" fill="none" stroke-width="5.0" stroke-linecap="round" stroke-linejoin="round" />
<path d="M 149.0 160.0 L 149.0 160.0 L 149.0 160.0 L 149.0 160.0 L 149.0 160.0 L 150.0 163.0 L 150.0 167.0 L 150.0 170.0 L 150.0 171.0 L 150.0 172.0 " stroke="black" fill="none" stroke-width="5.0" stroke-linecap="round" stroke-linejoin="round" />
<path d="M 151.0 160.0 L 151.0 160.0 L 151.0 161.0 L 152.0 161.0 L 154.0 161.0 L 157.0 161.0 L 161.0 160.0 L 165.0 160.0 L 169.0 160.0 L 172.0 160.0 L 174.0 162.0 L 175.0 166.0 L 175.0 170.0 L 174.0 172.0 L 173.0 173.0 " stroke="black" fill="none" stroke-width="5.0" stroke-linecap="round" stroke-linejoin="round" />
<path d="M 153.0 165.0 L 154.0 165.0 L 156.0 165.0 L 157.0 165.0 L 160.0 166.0 L 164.0 166.0 L 167.0 166.0 L 169.0 166.0 L 169.0 166.0 " stroke="black" fill="none" stroke-width="5.0" stroke-linecap="round" stroke-linejoin="round" />
<path d="M 151.0 172.0 L 151.0 172.0 L 153.0 174.0 L 155.0 174.0 L 159.0 175.0 L 165.0 175.0 L 169.0 174.0 L 171.0 173.0 " stroke="black" fill="none" stroke-width="5.0" stroke-linecap="round" stroke-linejoin="round" />
<path d="M 154.0 175.0 L 154.0 175.0 L 154.0 176.0 L 153.0 177.0 L 152.0 180.0 L 150.0 183.0 L 147.0 186.0 L 143.0 190.0 " stroke="black" fill="none" stroke-width="5.0" stroke-linecap="round" stroke-linejoin="round" />
<path d="M 153.0 182.0 L 153.0 182.0 L 154.0 182.0 L 157.0 183.0 L 161.0 183.0 L 167.0 183.0 L 171.0 183.0 L 173.0 184.0 L 173.0 187.0 L 172.0 191.0 L 167.0 195.0 L 162.0 200.0 L 155.0 205.0 L 150.0 209.0 L 146.0 209.0 " stroke="black" fill="none" stroke-width="5.0" stroke-linecap="round" stroke-linejoin="round" />
<path d="M 139.0 179.0 L 139.0 179.0 L 139.0 179.0 L 140.0 179.0 L 144.0 182.0 L 155.0 192.0 L 168.0 203.0 L 178.0 210.0 L 182.0 213.0 L 184.0 214.0 L 184.0 214.0 " stroke="black" fill="none" stroke-width="5.0" stroke-linecap="round" stroke-linejoin="round" />
</svg>