<svg xmlns="http://www.w3.org/2000/svg" width="300" height="300" viewBox="0 0 300 300">
<path d="M 115.0 104.0 L 115.0 104.0 L 115.0 103.0 L 116.0 103.0 L 116.0 103.0 L 117.0 108.0 L 117.0 115.0 L 117.0 121.0 " stroke="black" fill="none" stroke-width="5.0" stroke-linecap="round" stroke-linejoin="round" />
<path d="M 106.0 116.0 L 106.0 116.0 L 106.0 116.0 L 106.0 116.0 L 106.0 116.0 L 108.0 116.0 L 112.0 116.0 L 114.0 116.0 " stroke="black" fill="none" stroke-width="5.0" stroke-linecap="round" stroke-linejoin="round" />
<path d="M 126.0 103.0 L 126.0 103.0 L 126.0 102.0 L 126.0 102.0 L 126.0 104.0 L 126.0 112.0 L 126.0 120.0 L 126.0 126.0 " stroke="black" fill="none" stroke-width="5.0" stroke-linecap="round" stroke-linejoin="round" />
<path d="M 127.0 111.0 L 127.0 111.0 L 127.0 111.0 L 129.0 111.0 L 132.0 111.0 L 136.0 111.0 " stroke="black" fill="none" stroke-width="5.0" stroke-linecap="round" stroke-linejoin="round" />
<path d="M 109.0 134.0 L 109.0 134.0 L 109.0 134.0 L 109.0 134.0 L 108.0 134.0 L 108.0 137.0 L 109.0 139.0 L 109.0 140.0 " stroke="black" fill="none" stroke-width="5.0" stroke-linecap="round" stroke-linejoin="round" />
<path d="M 109.0 134.0 L 110.0 134.0 L 110.0 133.0 L 111.0 132.0 L 112.0 132.0 L 114.0 131.0 L 117.0 131.0 L 119.0 132.0 L 120.0 135.0 L 121.0 138.0 L 121.0 140.0 " stroke="black" fill="none" stroke-width="5.0" stroke-linecap="round" stroke-linejoin="round" />
<path d="M 110.0 143.0 L 110.0 143.0 L 111.0 143.0 L 112.0 143.0 L 113.0 143.0 L 116.0 143.0 L 117.0 143.0 " stroke="black" fill="none" stroke-width="5.0" stroke-linecap="round" stroke-linejoin="round" />
<path d="M 123.0 133.0 L 123.0 133.0 L 123.0 133.0 L 123.0 133.0 L 123.0 133.0 L 124.0 136.0 L 125.0 139.0 L 125.0 142.0 " stroke="black" fill="none" stroke-width="5.0" stroke-linecap="round" stroke-linejoin="round" />
<path d="M 125.0 132.0 L 125.0 132.0 L 126.0 131.0 L 127.0 131.0 L 129.0 130.0 L 131.0 130.0 L 133.0 130.0 L 135.0 132.0 L 137.0 135.0 L 137.0 137.0 L 138.0 139.0 " stroke="black" fill="none" stroke-width="5.0" stroke-linecap="round" stroke-linejoin="round" />
<path d="M 125.0 142.0 L 125.0 142.0 L 125.0 142.0 L 126.0 142.0 L 130.0 143.0 L 134.0 144.0 " stroke="black" fill="none" stroke-width="5.0" stroke-linecap="round" stroke-linejoin="round" />
<path d="M 116.0 151.0 L 116.0 151.0 L 116.0 151.0 L 116.0 152.0 L 116.0 154.0 L 113.0 161.0 L 108.0 171.0 L 101.0 181.0 L 98.0 184.0 " stroke="black" fill="none" stroke-width="5.0" stroke-linecap="round" stroke-linejoin="round" />
<path d="M 112.0 166.0 L 112.0 167.0 L 112.0 167.0 L 112.0 168.0 L 113.0 173.0 L 113.0 183.0 L 113.0 192.0 L 113.0 193.0 " stroke="black" fill="none" stroke-width="5.0" stroke-linecap="round" stroke-linejoin="round" />
<path d="M 127.0 150.0 L 127.0 150.0 L 127.0 150.0 L 127.0 150.0 L 128.0 150.0 L 129.0 153.0 L 132.0 156.0 L 134.0 159.0 " stroke="black" fill="none" stroke-width="5.0" stroke-linecap="round" stroke-linejoin="round" />
<path d="M 119.0 164.0 L 119.0 164.0 L 119.0 165.0 L 119.0 165.0 L 122.0 165.0 L 128.0 165.0 L 135.0 164.0 L 141.0 163.0 L 143.0 163.0 " stroke="black" fill="none" stroke-width="5.0" stroke-linecap="round" stroke-linejoin="round" />
<path d="M 124.0 172.0 L 125.0 172.0 L 126.0 174.0 L 126.0 174.0 L 128.0 175.0 L 132.0 175.0 L 135.0 174.0 L 139.0 173.0 L 140.0 173.0 " stroke="black" fill="none" stroke-width="5.0" stroke-linecap="round" stroke-linejoin="round" />
<path d="M 123.0 183.0 L 123.0 183.0 L 123.0 183.0 L 124.0 183.0 L 128.0 183.0 L 134.0 183.0 L 139.0 182.0 L 141.0 182.0 " stroke="black" fill="none" stroke-width="5.0" stroke-linecap="round" stroke-linejoin="round" />
<path d="M 118.0 196.0 L 119.0 197.0 L 121.0 197.0 L 127.0 198.0 L 135.0 197.0 L 141.0 196.0 " stroke="black" fill="none" stroke-width="5.0" stroke-linecap="round" stroke-linejoin="round" />
<path d="M 130.0 170.0 L 130.0 170.0 L 129.0 170.0 L 129.0 171.0 L 129.0 174.0 L 131.0 182.0 L 132.0 189.0 " stroke="black" fill="none" stroke-width="5.0" stroke-linecap="round" stroke-linejoin="round" />
<path d="M 151.0 113.0 L 151.0 113.0 L 151.0 113.0 L 151.0 113.0 L 151.0 114.0 L 151.0 123.0 L 151.0 142.0 L 151.0 164.0 L 151.0 176.0 L 151.0 178.0 " stroke="black" fill="none" stroke-width="5.0" stroke-linecap="round" stroke-linejoin="round" />
<path d="M 152.0 120.0 L 152.0 120.0 L 153.0 120.0 L 153.0 121.0 L 155.0 121.0 L 158.0 121.0 L 162.0 121.0 L 166.0 121.0 L 169.0 121.0 L 171.0 122.0 L 173.0 127.0 L 176.0 139.0 L 178.0 154.0 L 180.0 166.0 L 181.0 173.0 L 181.0 175.0 " stroke="black" fill="none" stroke-width="5.0" stroke-linecap="round" stroke-linejoin="round" />
<path d="M 153.0 140.0 L 153.0 140.0 L 153.0 140.0 L 153.0 140.0 L 155.0 140.0 L 160.0 140.0 L 167.0 140.0 L 172.0 140.0 L 174.0 141.0 " stroke="black" fill="none" stroke-width="5.0" stroke-linecap="round" stroke-linejoin="round" />
<path d="M 154.0 154.0 L 155.0 155.0 L 156.0 156.0 L 160.0 156.0 L 168.0 156.0 L 174.0 155.0 L 175.0 155.0 " stroke="black" fill="none" stroke-width="5.0" stroke-linecap="round" stroke-linejoin="round" />
<path d="M 150.0 174.0 L 150.0 174.0 L 151.0 175.0 L 155.0 175.0 L 164.0 173.0 L 173.0 171.0 L 175.0 171.0 " stroke="black" fill="none" stroke-width="5.0" stroke-linecap="round" stroke-linejoin="round" />
<path d="M 159.0 177.0 L 159.0 177.0 L 159.0 177.0 L 159.0 177.0 L 159.0 177.0 L 159.0 179.0 L 157.0 186.0 L 155.0 195.0 L 154.0 199.0 " stroke="black" fill="none" stroke-width="5.0" stroke-linecap="round" stroke-linejoin="round" />
<path d="M 171.0 175.0 L 171.0 175.0 L 171.0 175.0 L 171.0 176.0 L 171.0 176.0 L 171.0 180.0 L 172.0 188.0 L 176.0 197.0 L 182.0 200.0 L 190.0 198.0 L 193.0 194.0 " stroke="black" fill="none" stroke-width="5.0" stroke-linecap="round" stroke-linejoin="round" />
</svg>