<svg xmlns="http://www.w3.org/2000/svg" width="300" height="300" viewBox="0 0 300 300">
<path d="M 117.0 115.0 L 117.0 116.0 L 118.0 117.0 L 118.0 119.0 L 120.0 122.0 L 122.0 125.0 L 123.0 126.0 " stroke="black" fill="none" stroke-width="5.0" stroke-linecap="round" stroke-linejoin="round" />
<path d="M 110.0 137.0 L 110.0 137.0 L 111.0 137.0 L 112.0 137.0 L 116.0 137.0 L 122.0 136.0 L 127.0 136.0 L 129.0 136.0 L 129.0 136.0 " stroke="black" fill="none" stroke-width="5.0" stroke-linecap="round" stroke-linejoin="round" />
<path d="M 110.0 150.0 L 111.0 150.0 L 111.0 150.0 L 112.0 150.0 L 115.0 150.0 L 122.0 150.0 L 128.0 150.0 L 129.0 150.0 " stroke="black" fill="none" stroke-width="5.0" stroke-linecap="round" stroke-linejoin="round" />
<path d="M 108.0 166.0 L 109.0 167.0 L 110.0 167.0 L 113.0 167.0 L 117.0 167.0 L 122.0 167.0 L 127.0 167.0 " stroke="black" fill="none" stroke-width="5.0" stroke-linecap="round" stroke-linejoin="round" />
<path d="M 103.0 188.0 L 103.0 189.0 L 103.0 191.0 L 103.0 194.0 L 103.0 198.0 " stroke="black" fill="none" stroke-width="5.0" stroke-linecap="round" stroke-linejoin="round" />
<path d="M 104.0 188.0 L 104.0 187.0 L 105.0 187.0 L 106.0 186.0 L 109.0 186.0 L 116.0 185.0 L 124.0 185.0 L 129.0 186.0 L 131.0 191.0 L 131.0 197.0 L 129.0 201.0 L 127.0 202.0 " stroke="black" fill="none" stroke-width="5.0" stroke-linecap="round" stroke-linejoin="round" />
<path d="M 108.0 201.0 L 108.0 201.0 L 109.0 201.0 L 112.0 202.0 L 118.0 202.0 L 128.0 202.0 " stroke="black" fill="none" stroke-width="5.0" stroke-linecap="round" stroke-linejoin="round" />
<path d="M 159.0 118.0 L 159.0 118.0 L 159.0 118.0 L 159.0 120.0 L 161.0 125.0 L 162.0 126.0 " stroke="black" fill="none" stroke-width="5.0" stroke-linecap="round" stroke-linejoin="round" />
<path d="M 150.0 140.0 L 150.0 140.0 L 151.0 141.0 L 152.0 141.0 L 156.0 141.0 L 161.0 141.0 L 165.0 141.0 L 167.0 141.0 L 167.0 141.0 L 168.0 144.0 L 170.0 151.0 L 173.0 161.0 L 176.0 173.0 L 178.0 184.0 L 179.0 191.0 L 179.0 195.0 L 178.0 196.0 L 174.0 196.0 L 167.0 194.0 L 165.0 194.0 " stroke="black" fill="none" stroke-width="5.0" stroke-linecap="round" stroke-linejoin="round" />
<path d="M 147.0 162.0 L 147.0 162.0 L 147.0 163.0 L 147.0 163.0 L 149.0 163.0 L 153.0 163.0 L 157.0 163.0 L 160.0 163.0 L 161.0 164.0 L 161.0 168.0 L 157.0 174.0 L 151.0 183.0 L 141.0 195.0 L 133.0 202.0 " stroke="black" fill="none" stroke-width="5.0" stroke-linecap="round" stroke-linejoin="round" />
<path d="M 173.0 159.0 L 174.0 159.0 L 175.0 160.0 L 179.0 160.0 L 187.0 157.0 L 195.0 154.0 L 201.0 152.0 L 202.0 151.0 " stroke="black" fill="none" stroke-width="5.0" stroke-linecap="round" stroke-linejoin="round" />
<path d="M 182.0 158.0 L 182.0 158.0 L 181.0 160.0 L 181.0 162.0 L 186.0 169.0 L 196.0 182.0 L 204.0 198.0 L 208.0 210.0 " stroke="black" fill="none" stroke-width="5.0" stroke-linecap="round" stroke-linejoin="round" />
</svg>