<svg xmlns="http://www.w3.org/2000/svg" width="300" height="300" viewBox="0 0 300 300">
<path d="M 124.0 112.0 L 124.0 112.0 L 124.0 112.0 L 125.0 112.0 L 125.0 112.0 L 127.0 112.0 L 130.0 112.0 L 135.0 112.0 L 140.0 112.0 L 143.0 112.0 " stroke="black" fill="none" stroke-width="5.0" stroke-linecap="round" stroke-linejoin="round" />
<path d="M 131.0 101.0 L 131.0 101.0 L 131.0 101.0 L 131.0 101.0 L 131.0 102.0 L 131.0 107.0 L 132.0 118.0 L 133.0 132.0 L 134.0 143.0 L 135.0 148.0 L 135.0 148.0 L 135.0 148.0 L 134.0 147.0 L 127.0 145.0 L 124.0 144.0 " stroke="black" fill="none" stroke-width="5.0" stroke-linecap="round" stroke-linejoin="round" />
<path d="M 111.0 129.0 L 111.0 129.0 L 111.0 129.0 L 112.0 129.0 L 117.0 128.0 L 128.0 126.0 L 139.0 125.0 L 142.0 124.0 " stroke="black" fill="none" stroke-width="5.0" stroke-linecap="round" stroke-linejoin="round" />
<path d="M 161.0 103.0 L 161.0 103.0 L 161.0 103.0 L 162.0 102.0 L 162.0 102.0 L 162.0 102.0 L 161.0 104.0 L 158.0 107.0 L 155.0 110.0 L 152.0 112.0 L 151.0 113.0 L 150.0 114.0 L 150.0 116.0 L 149.0 122.0 L 149.0 131.0 L 148.0 140.0 L 148.0 145.0 L 148.0 146.0 L 148.0 146.0 " stroke="black" fill="none" stroke-width="5.0" stroke-linecap="round" stroke-linejoin="round" />
<path d="M 150.0 121.0 L 151.0 121.0 L 152.0 120.0 L 155.0 120.0 L 160.0 120.0 L 166.0 119.0 L 172.0 119.0 L 174.0 120.0 L 174.0 120.0 " stroke="black" fill="none" stroke-width="5.0" stroke-linecap="round" stroke-linejoin="round" />
<path d="M 163.0 120.0 L 163.0 121.0 L 164.0 122.0 L 164.0 124.0 L 165.0 131.0 L 167.0 138.0 L 168.0 146.0 L 168.0 147.0 " stroke="black" fill="none" stroke-width="5.0" stroke-linecap="round" stroke-linejoin="round" />
<path d="M 141.0 152.0 L 141.0 152.0 L 141.0 152.0 L 141.0 152.0 L 141.0 153.0 L 143.0 155.0 L 145.0 157.0 L 146.0 158.0 " stroke="black" fill="none" stroke-width="5.0" stroke-linecap="round" stroke-linejoin="round" />
<path d="M 117.0 162.0 L 118.0 162.0 L 119.0 162.0 L 120.0 162.0 L 126.0 162.0 L 138.0 162.0 L 154.0 162.0 L 167.0 162.0 L 173.0 162.0 L 174.0 163.0 L 173.0 164.0 L 172.0 165.0 " stroke="black" fill="none" stroke-width="5.0" stroke-linecap="round" stroke-linejoin="round" />
<path d="M 130.0 174.0 L 130.0 174.0 L 130.0 175.0 L 132.0 175.0 L 135.0 175.0 L 142.0 175.0 L 150.0 175.0 L 156.0 174.0 L 158.0 174.0 L 158.0 174.0 " stroke="black" fill="none" stroke-width="5.0" stroke-linecap="round" stroke-linejoin="round" />
<path d="M 131.0 184.0 L 131.0 184.0 L 132.0 184.0 L 133.0 184.0 L 138.0 184.0 L 145.0 184.0 L 151.0 184.0 L 155.0 184.0 L 156.0 185.0 " stroke="black" fill="none" stroke-width="5.0" stroke-linecap="round" stroke-linejoin="round" />
<path d="M 124.0 197.0 L 124.0 197.0 L 124.0 197.0 L 124.0 198.0 L 125.0 199.0 L 126.0 200.0 L 127.0 203.0 L 128.0 206.0 L 128.0 206.0 " stroke="black" fill="none" stroke-width="5.0" stroke-linecap="round" stroke-linejoin="round" />
<path d="M 125.0 197.0 L 125.0 197.0 L 126.0 197.0 L 127.0 197.0 L 132.0 197.0 L 140.0 196.0 L 149.0 196.0 L 156.0 196.0 L 160.0 199.0 L 161.0 202.0 L 162.0 204.0 L 162.0 207.0 L 162.0 209.0 L 162.0 209.0 " stroke="black" fill="none" stroke-width="5.0" stroke-linecap="round" stroke-linejoin="round" />
<path d="M 129.0 208.0 L 129.0 209.0 L 129.0 210.0 L 130.0 210.0 L 135.0 211.0 L 145.0 211.0 L 154.0 211.0 L 161.0 211.0 " stroke="black" fill="none" stroke-width="5.0" stroke-linecap="round" stroke-linejoin="round" />
</svg>