<svg xmlns="http://www.w3.org/2000/svg" width="300" height="300" viewBox="0 0 300 300">
<path d="M 120.0 115.0 L 120.0 115.0 L 121.0 116.0 L 122.0 118.0 L 124.0 120.0 L 126.0 123.0 L 127.0 125.0 " stroke="black" fill="none" stroke-width="5.0" stroke-linecap="round" stroke-linejoin="round" />
<path d="M 109.0 137.0 L 110.0 137.0 L 110.0 137.0 L 111.0 137.0 L 115.0 137.0 L 121.0 136.0 L 129.0 134.0 L 134.0 133.0 L 135.0 133.0 " stroke="black" fill="none" stroke-width="5.0" stroke-linecap="round" stroke-linejoin="round" />
<path d="M 112.0 153.0 L 112.0 153.0 L 113.0 153.0 L 113.0 153.0 L 114.0 152.0 L 118.0 152.0 L 124.0 151.0 L 130.0 150.0 L 133.0 150.0 L 134.0 150.0 " stroke="black" fill="none" stroke-width="5.0" stroke-linecap="round" stroke-linejoin="round" />
<path d="M 113.0 165.0 L 114.0 165.0 L 117.0 165.0 L 121.0 165.0 L 126.0 164.0 L 130.0 163.0 L 132.0 163.0 " stroke="black" fill="none" stroke-width="5.0" stroke-linecap="round" stroke-linejoin="round" />
<path d="M 110.0 180.0 L 110.0 181.0 L 110.0 182.0 L 110.0 184.0 L 110.0 187.0 L 111.0 191.0 L 111.0 191.0 " stroke="black" fill="none" stroke-width="5.0" stroke-linecap="round" stroke-linejoin="round" />
<path d="M 111.0 179.0 L 111.0 179.0 L 111.0 178.0 L 112.0 178.0 L 114.0 177.0 L 119.0 176.0 L 131.0 175.0 L 135.0 176.0 L 137.0 179.0 L 139.0 183.0 L 140.0 186.0 L 140.0 188.0 L 140.0 189.0 " stroke="black" fill="none" stroke-width="5.0" stroke-linecap="round" stroke-linejoin="round" />
<path d="M 115.0 195.0 L 115.0 195.0 L 117.0 195.0 L 121.0 196.0 L 128.0 196.0 L 137.0 196.0 L 139.0 195.0 " stroke="black" fill="none" stroke-width="5.0" stroke-linecap="round" stroke-linejoin="round" />
<path d="M 153.0 120.0 L 154.0 121.0 L 155.0 121.0 L 157.0 121.0 L 162.0 120.0 L 167.0 120.0 L 171.0 119.0 L 173.0 119.0 L 174.0 119.0 L 174.0 119.0 " stroke="black" fill="none" stroke-width="5.0" stroke-linecap="round" stroke-linejoin="round" />
<path d="M 152.0 132.0 L 153.0 133.0 L 154.0 133.0 L 157.0 133.0 L 163.0 133.0 L 170.0 133.0 L 174.0 132.0 L 175.0 133.0 " stroke="black" fill="none" stroke-width="5.0" stroke-linecap="round" stroke-linejoin="round" />
<path d="M 146.0 147.0 L 147.0 147.0 L 150.0 148.0 L 156.0 148.0 L 166.0 148.0 L 176.0 147.0 L 181.0 146.0 " stroke="black" fill="none" stroke-width="5.0" stroke-linecap="round" stroke-linejoin="round" />
<path d="M 159.0 109.0 L 160.0 109.0 L 160.0 110.0 L 161.0 112.0 L 162.0 121.0 L 164.0 133.0 L 164.0 141.0 " stroke="black" fill="none" stroke-width="5.0" stroke-linecap="round" stroke-linejoin="round" />
<path d="M 150.0 165.0 L 150.0 165.0 L 150.0 165.0 L 150.0 165.0 L 150.0 165.0 L 150.0 167.0 L 150.0 174.0 L 150.0 185.0 L 150.0 194.0 L 151.0 198.0 L 151.0 199.0 " stroke="black" fill="none" stroke-width="5.0" stroke-linecap="round" stroke-linejoin="round" />
<path d="M 152.0 160.0 L 152.0 160.0 L 152.0 160.0 L 153.0 160.0 L 155.0 159.0 L 159.0 158.0 L 165.0 157.0 L 172.0 157.0 L 178.0 157.0 L 181.0 159.0 L 184.0 164.0 L 187.0 172.0 L 189.0 183.0 L 191.0 191.0 L 191.0 197.0 L 191.0 199.0 L 189.0 200.0 L 182.0 199.0 L 176.0 196.0 " stroke="black" fill="none" stroke-width="5.0" stroke-linecap="round" stroke-linejoin="round" />
<path d="M 157.0 168.0 L 157.0 168.0 L 158.0 168.0 L 158.0 169.0 L 160.0 169.0 L 166.0 169.0 L 174.0 168.0 L 180.0 168.0 L 182.0 167.0 L 182.0 167.0 " stroke="black" fill="none" stroke-width="5.0" stroke-linecap="round" stroke-linejoin="round" />
<path d="M 154.0 182.0 L 155.0 183.0 L 156.0 184.0 L 159.0 184.0 L 168.0 184.0 L 180.0 181.0 L 184.0 181.0 " stroke="black" fill="none" stroke-width="5.0" stroke-linecap="round" stroke-linejoin="round" />
</svg>