<svg xmlns="http://www.w3.org/2000/svg" width="300" height="300" viewBox="0 0 300 300">
<path d="M 118.0 116.0 L 118.0 116.0 L 118.0 116.0 L 118.0 116.0 L 118.0 116.0 L 119.0 116.0 L 121.0 118.0 L 122.0 121.0 " stroke="black" fill="none" stroke-width="5.0" stroke-linecap="round" stroke-linejoin="round" />
<path d="M 115.0 137.0 L 115.0 137.0 L 115.0 137.0 L 115.0 137.0 L 114.0 137.0 L 115.0 137.0 L 120.0 137.0 L 127.0 137.0 L 132.0 137.0 " stroke="black" fill="none" stroke-width="5.0" stroke-linecap="round" stroke-linejoin="round" />
<path d="M 117.0 152.0 L 117.0 152.0 L 118.0 152.0 L 119.0 152.0 L 121.0 152.0 L 124.0 152.0 L 129.0 152.0 L 131.0 152.0 " stroke="black" fill="none" stroke-width="5.0" stroke-linecap="round" stroke-linejoin="round" />
<path d="M 116.0 164.0 L 118.0 166.0 L 121.0 166.0 L 125.0 166.0 L 128.0 166.0 " stroke="black" fill="none" stroke-width="5.0" stroke-linecap="round" stroke-linejoin="round" />
<path d="M 109.0 184.0 L 109.0 184.0 L 109.0 185.0 L 109.0 186.0 L 109.0 189.0 L 110.0 193.0 L 111.0 197.0 " stroke="black" fill="none" stroke-width="5.0" stroke-linecap="round" stroke-linejoin="round" />
<path d="M 110.0 184.0 L 110.0 184.0 L 110.0 184.0 L 111.0 184.0 L 117.0 183.0 L 125.0 183.0 L 131.0 183.0 L 135.0 185.0 L 136.0 191.0 L 136.0 196.0 L 135.0 198.0 " stroke="black" fill="none" stroke-width="5.0" stroke-linecap="round" stroke-linejoin="round" />
<path d="M 114.0 199.0 L 114.0 199.0 L 114.0 199.0 L 115.0 199.0 L 119.0 200.0 L 128.0 200.0 L 130.0 199.0 " stroke="black" fill="none" stroke-width="5.0" stroke-linecap="round" stroke-linejoin="round" />
<path d="M 157.0 117.0 L 157.0 117.0 L 157.0 117.0 L 157.0 116.0 L 157.0 116.0 L 157.0 117.0 L 154.0 124.0 L 147.0 135.0 L 140.0 143.0 " stroke="black" fill="none" stroke-width="5.0" stroke-linecap="round" stroke-linejoin="round" />
<path d="M 161.0 116.0 L 161.0 116.0 L 163.0 116.0 L 165.0 118.0 L 171.0 122.0 L 180.0 128.0 L 188.0 134.0 L 191.0 136.0 " stroke="black" fill="none" stroke-width="5.0" stroke-linecap="round" stroke-linejoin="round" />
<path d="M 154.0 142.0 L 154.0 142.0 L 154.0 142.0 L 154.0 142.0 L 155.0 142.0 L 161.0 141.0 L 170.0 141.0 L 174.0 141.0 " stroke="black" fill="none" stroke-width="5.0" stroke-linecap="round" stroke-linejoin="round" />
<path d="M 149.0 163.0 L 149.0 164.0 L 148.0 166.0 L 148.0 173.0 L 148.0 185.0 L 149.0 195.0 L 151.0 200.0 L 151.0 200.0 " stroke="black" fill="none" stroke-width="5.0" stroke-linecap="round" stroke-linejoin="round" />
<path d="M 151.0 154.0 L 151.0 154.0 L 152.0 154.0 L 154.0 154.0 L 159.0 153.0 L 166.0 152.0 L 174.0 152.0 L 180.0 152.0 L 184.0 157.0 L 188.0 167.0 L 192.0 180.0 L 194.0 189.0 L 194.0 196.0 L 193.0 201.0 L 189.0 204.0 L 184.0 205.0 L 179.0 203.0 " stroke="black" fill="none" stroke-width="5.0" stroke-linecap="round" stroke-linejoin="round" />
<path d="M 152.0 172.0 L 152.0 172.0 L 152.0 172.0 L 153.0 172.0 L 162.0 172.0 L 174.0 170.0 L 183.0 169.0 L 186.0 169.0 " stroke="black" fill="none" stroke-width="5.0" stroke-linecap="round" stroke-linejoin="round" />
<path d="M 161.0 155.0 L 161.0 155.0 L 161.0 155.0 L 161.0 155.0 L 162.0 164.0 L 163.0 182.0 L 163.0 198.0 L 164.0 205.0 L 164.0 205.0 " stroke="black" fill="none" stroke-width="5.0" stroke-linecap="round" stroke-linejoin="round" />
<path d="M 172.0 153.0 L 172.0 153.0 L 173.0 152.0 L 174.0 152.0 L 175.0 157.0 L 177.0 172.0 L 178.0 192.0 L 178.0 204.0 " stroke="black" fill="none" stroke-width="5.0" stroke-linecap="round" stroke-linejoin="round" />
</svg>