<svg xmlns="http://www.w3.org/2000/svg" width="300" height="300" viewBox="0 0 300 300">
<path d="M 122.0 119.0 L 122.0 119.0 L 123.0 120.0 L 124.0 120.0 L 124.0 122.0 L 126.0 124.0 L 128.0 127.0 L 129.0 129.0 " stroke="black" fill="none" stroke-width="5.0" stroke-linecap="round" stroke-linejoin="round" />
<path d="M 113.0 139.0 L 113.0 139.0 L 113.0 139.0 L 114.0 139.0 L 117.0 139.0 L 123.0 138.0 L 130.0 137.0 L 134.0 137.0 " stroke="black" fill="none" stroke-width="5.0" stroke-linecap="round" stroke-linejoin="round" />
<path d="M 111.0 151.0 L 111.0 151.0 L 111.0 152.0 L 112.0 152.0 L 115.0 153.0 L 120.0 153.0 L 127.0 151.0 L 132.0 150.0 L 132.0 150.0 " stroke="black" fill="none" stroke-width="5.0" stroke-linecap="round" stroke-linejoin="round" />
<path d="M 108.0 164.0 L 108.0 164.0 L 108.0 164.0 L 109.0 164.0 L 112.0 164.0 L 119.0 164.0 L 126.0 164.0 L 129.0 164.0 " stroke="black" fill="none" stroke-width="5.0" stroke-linecap="round" stroke-linejoin="round" />
<path d="M 105.0 180.0 L 105.0 181.0 L 104.0 181.0 L 104.0 183.0 L 104.0 187.0 L 105.0 191.0 L 105.0 193.0 " stroke="black" fill="none" stroke-width="5.0" stroke-linecap="round" stroke-linejoin="round" />
<path d="M 104.0 181.0 L 105.0 181.0 L 105.0 181.0 L 106.0 181.0 L 111.0 180.0 L 118.0 179.0 L 127.0 178.0 L 133.0 180.0 L 135.0 185.0 L 135.0 190.0 L 134.0 194.0 L 133.0 195.0 " stroke="black" fill="none" stroke-width="5.0" stroke-linecap="round" stroke-linejoin="round" />
<path d="M 107.0 199.0 L 107.0 199.0 L 107.0 199.0 L 109.0 199.0 L 117.0 199.0 L 128.0 199.0 " stroke="black" fill="none" stroke-width="5.0" stroke-linecap="round" stroke-linejoin="round" />
<path d="M 142.0 144.0 L 142.0 144.0 L 142.0 144.0 L 143.0 143.0 L 150.0 143.0 L 162.0 141.0 L 174.0 140.0 L 179.0 140.0 L 179.0 140.0 " stroke="black" fill="none" stroke-width="5.0" stroke-linecap="round" stroke-linejoin="round" />
<path d="M 143.0 151.0 L 143.0 151.0 L 142.0 151.0 L 142.0 151.0 L 142.0 152.0 L 142.0 160.0 L 142.0 175.0 L 141.0 191.0 L 141.0 199.0 L 141.0 200.0 " stroke="black" fill="none" stroke-width="5.0" stroke-linecap="round" stroke-linejoin="round" />
<path d="M 147.0 163.0 L 147.0 163.0 L 147.0 163.0 L 147.0 163.0 L 147.0 163.0 L 149.0 163.0 L 152.0 164.0 L 157.0 169.0 L 162.0 177.0 L 164.0 187.0 L 165.0 194.0 L 165.0 197.0 L 164.0 197.0 L 160.0 195.0 L 159.0 193.0 " stroke="black" fill="none" stroke-width="5.0" stroke-linecap="round" stroke-linejoin="round" />
<path d="M 153.0 128.0 L 153.0 128.0 L 153.0 128.0 L 157.0 135.0 L 168.0 156.0 L 178.0 180.0 L 186.0 196.0 L 190.0 203.0 " stroke="black" fill="none" stroke-width="5.0" stroke-linecap="round" stroke-linejoin="round" />
<path d="M 192.0 180.0 L 192.0 180.0 L 190.0 181.0 L 189.0 182.0 L 186.0 187.0 L 181.0 194.0 " stroke="black" fill="none" stroke-width="5.0" stroke-linecap="round" stroke-linejoin="round" />
<path d="M 183.0 114.0 L 183.0 118.0 L 187.0 124.0 L 191.0 133.0 L 194.0 138.0 " stroke="black" fill="none" stroke-width="5.0" stroke-linecap="round" stroke-linejoin="round" />
</svg>