<svg xmlns="http://www.w3.org/2000/svg" width="300" height="300" viewBox="0 0 300 300">
<path d="M 124.0 115.0 L 124.0 115.0 L 125.0 115.0 L 126.0 115.0 L 127.0 115.0 L 127.0 118.0 L 128.0 122.0 L 128.0 123.0 " stroke="black" fill="none" stroke-width="5.0" stroke-linecap="round" stroke-linejoin="round" />
<path d="M 115.0 133.0 L 115.0 133.0 L 115.0 133.0 L 117.0 133.0 L 120.0 133.0 L 126.0 133.0 L 132.0 133.0 L 135.0 133.0 " stroke="black" fill="none" stroke-width="5.0" stroke-linecap="round" stroke-linejoin="round" />
<path d="M 116.0 148.0 L 117.0 148.0 L 118.0 148.0 L 119.0 148.0 L 121.0 148.0 L 124.0 148.0 L 128.0 148.0 L 131.0 148.0 L 132.0 148.0 " stroke="black" fill="none" stroke-width="5.0" stroke-linecap="round" stroke-linejoin="round" />
<path d="M 112.0 163.0 L 113.0 164.0 L 114.0 164.0 L 117.0 164.0 L 121.0 164.0 L 126.0 163.0 L 130.0 163.0 " stroke="black" fill="none" stroke-width="5.0" stroke-linecap="round" stroke-linejoin="round" />
<path d="M 108.0 181.0 L 108.0 181.0 L 108.0 181.0 L 108.0 182.0 L 108.0 183.0 L 108.0 185.0 L 109.0 190.0 L 110.0 193.0 " stroke="black" fill="none" stroke-width="5.0" stroke-linecap="round" stroke-linejoin="round" />
<path d="M 109.0 178.0 L 109.0 178.0 L 109.0 178.0 L 110.0 178.0 L 111.0 178.0 L 115.0 177.0 L 123.0 177.0 L 130.0 177.0 L 135.0 177.0 L 137.0 180.0 L 138.0 185.0 L 138.0 190.0 L 138.0 194.0 L 138.0 196.0 " stroke="black" fill="none" stroke-width="5.0" stroke-linecap="round" stroke-linejoin="round" />
<path d="M 111.0 197.0 L 111.0 197.0 L 111.0 197.0 L 112.0 197.0 L 115.0 197.0 L 122.0 197.0 L 131.0 197.0 L 133.0 197.0 " stroke="black" fill="none" stroke-width="5.0" stroke-linecap="round" stroke-linejoin="round" />
<path d="M 153.0 126.0 L 153.0 126.0 L 153.0 126.0 L 153.0 126.0 L 153.0 126.0 L 155.0 126.0 L 162.0 125.0 L 172.0 123.0 L 179.0 123.0 L 179.0 123.0 " stroke="black" fill="none" stroke-width="5.0" stroke-linecap="round" stroke-linejoin="round" />
<path d="M 147.0 143.0 L 147.0 143.0 L 147.0 143.0 L 149.0 143.0 L 156.0 143.0 L 169.0 142.0 L 183.0 140.0 L 192.0 139.0 L 195.0 139.0 " stroke="black" fill="none" stroke-width="5.0" stroke-linecap="round" stroke-linejoin="round" />
<path d="M 165.0 110.0 L 165.0 110.0 L 165.0 110.0 L 165.0 112.0 L 166.0 120.0 L 168.0 129.0 L 168.0 137.0 " stroke="black" fill="none" stroke-width="5.0" stroke-linecap="round" stroke-linejoin="round" />
<path d="M 187.0 109.0 L 186.0 109.0 L 186.0 109.0 L 184.0 111.0 L 182.0 118.0 L 176.0 129.0 L 169.0 143.0 L 158.0 157.0 L 151.0 165.0 " stroke="black" fill="none" stroke-width="5.0" stroke-linecap="round" stroke-linejoin="round" />
<path d="M 162.0 155.0 L 162.0 155.0 L 162.0 156.0 L 163.0 157.0 L 164.0 157.0 L 167.0 157.0 L 173.0 156.0 L 178.0 155.0 L 183.0 154.0 L 186.0 153.0 L 188.0 153.0 L 190.0 153.0 L 192.0 155.0 L 193.0 161.0 L 195.0 171.0 L 197.0 181.0 L 198.0 189.0 L 199.0 192.0 L 199.0 192.0 " stroke="black" fill="none" stroke-width="5.0" stroke-linecap="round" stroke-linejoin="round" />
<path d="M 165.0 161.0 L 165.0 161.0 L 165.0 160.0 L 165.0 160.0 L 165.0 161.0 L 165.0 169.0 L 165.0 182.0 L 165.0 193.0 L 165.0 198.0 " stroke="black" fill="none" stroke-width="5.0" stroke-linecap="round" stroke-linejoin="round" />
<path d="M 168.0 176.0 L 169.0 176.0 L 169.0 176.0 L 172.0 175.0 L 176.0 175.0 L 183.0 174.0 L 190.0 174.0 L 194.0 175.0 L 195.0 176.0 " stroke="black" fill="none" stroke-width="5.0" stroke-linecap="round" stroke-linejoin="round" />
<path d="M 166.0 199.0 L 167.0 199.0 L 168.0 200.0 L 173.0 200.0 L 182.0 200.0 L 192.0 200.0 L 195.0 199.0 " stroke="black" fill="none" stroke-width="5.0" stroke-linecap="round" stroke-linejoin="round" />
</svg>