<svg xmlns="http://www.w3.org/2000/svg" width="300" height="300" viewBox="0 0 300 300">
<path d="M 123.0 108.0 L 123.0 108.0 L 123.0 108.0 L 123.0 108.0 L 124.0 114.0 L 128.0 121.0 L 129.0 123.0 " stroke="black" fill="none" stroke-width="5.0" stroke-linecap="round" stroke-linejoin="round" />
<path d="M 113.0 131.0 L 113.0 131.0 L 113.0 131.0 L 112.0 131.0 L 111.0 131.0 L 114.0 131.0 L 121.0 130.0 L 129.0 129.0 L 134.0 129.0 " stroke="black" fill="none" stroke-width="5.0" stroke-linecap="round" stroke-linejoin="round" />
<path d="M 115.0 146.0 L 115.0 146.0 L 116.0 146.0 L 117.0 146.0 L 121.0 146.0 L 127.0 145.0 L 132.0 145.0 L 133.0 145.0 " stroke="black" fill="none" stroke-width="5.0" stroke-linecap="round" stroke-linejoin="round" />
<path d="M 113.0 161.0 L 114.0 161.0 L 116.0 162.0 L 120.0 163.0 L 126.0 163.0 L 132.0 163.0 L 134.0 163.0 " stroke="black" fill="none" stroke-width="5.0" stroke-linecap="round" stroke-linejoin="round" />
<path d="M 110.0 182.0 L 110.0 174.0 L 110.0 180.0 L 111.0 186.0 L 113.0 190.0 L 114.0 194.0 L 114.0 195.0 " stroke="black" fill="none" stroke-width="5.0" stroke-linecap="round" stroke-linejoin="round" />
<path d="M 111.0 177.0 L 111.0 177.0 L 112.0 177.0 L 115.0 177.0 L 121.0 176.0 L 129.0 176.0 L 136.0 176.0 L 140.0 179.0 L 142.0 183.0 L 142.0 186.0 L 141.0 189.0 " stroke="black" fill="none" stroke-width="5.0" stroke-linecap="round" stroke-linejoin="round" />
<path d="M 115.0 196.0 L 115.0 196.0 L 116.0 197.0 L 119.0 197.0 L 127.0 197.0 L 133.0 196.0 " stroke="black" fill="none" stroke-width="5.0" stroke-linecap="round" stroke-linejoin="round" />
<path d="M 157.0 119.0 L 157.0 121.0 L 157.0 122.0 L 157.0 126.0 L 156.0 132.0 L 152.0 140.0 L 149.0 147.0 " stroke="black" fill="none" stroke-width="5.0" stroke-linecap="round" stroke-linejoin="round" />
<path d="M 155.0 136.0 L 155.0 136.0 L 156.0 136.0 L 158.0 135.0 L 164.0 135.0 L 173.0 134.0 L 180.0 134.0 L 184.0 136.0 " stroke="black" fill="none" stroke-width="5.0" stroke-linecap="round" stroke-linejoin="round" />
<path d="M 148.0 162.0 L 148.0 162.0 L 149.0 163.0 L 154.0 164.0 L 166.0 163.0 L 180.0 161.0 L 189.0 159.0 " stroke="black" fill="none" stroke-width="5.0" stroke-linecap="round" stroke-linejoin="round" />
<path d="M 169.0 113.0 L 169.0 113.0 L 168.0 115.0 L 168.0 124.0 L 171.0 148.0 L 174.0 174.0 L 174.0 193.0 L 175.0 202.0 L 175.0 204.0 " stroke="black" fill="none" stroke-width="5.0" stroke-linecap="round" stroke-linejoin="round" />
<path d="M 170.0 166.0 L 170.0 167.0 L 167.0 170.0 L 164.0 174.0 L 158.0 180.0 L 152.0 188.0 L 147.0 194.0 L 146.0 196.0 " stroke="black" fill="none" stroke-width="5.0" stroke-linecap="round" stroke-linejoin="round" />
<path d="M 167.0 174.0 L 170.0 173.0 L 175.0 172.0 L 182.0 174.0 L 189.0 181.0 L 197.0 191.0 L 201.0 198.0 " stroke="black" fill="none" stroke-width="5.0" stroke-linecap="round" stroke-linejoin="round" />
</svg>