<svg xmlns="http://www.w3.org/2000/svg" width="300" height="300" viewBox="0 0 300 300">
<path d="M 129.0 96.0 L 129.0 96.0 L 129.0 96.0 L 129.0 96.0 L 129.0 96.0 L 130.0 96.0 L 130.0 96.0 L 130.0 97.0 L 129.0 100.0 L 126.0 103.0 L 123.0 107.0 L 121.0 110.0 L 119.0 111.0 L 119.0 112.0 L 119.0 113.0 L 119.0 115.0 L 119.0 120.0 L 119.0 127.0 L 120.0 136.0 L 120.0 144.0 L 121.0 147.0 L 121.0 148.0 " stroke="black" fill="none" stroke-width="5.0" stroke-linecap="round" stroke-linejoin="round" />
<path d="M 122.0 120.0 L 123.0 120.0 L 123.0 120.0 L 124.0 121.0 L 127.0 121.0 L 131.0 120.0 " stroke="black" fill="none" stroke-width="5.0" stroke-linecap="round" stroke-linejoin="round" />
<path d="M 121.0 133.0 L 122.0 133.0 L 124.0 133.0 L 127.0 133.0 L 132.0 132.0 L 134.0 132.0 " stroke="black" fill="none" stroke-width="5.0" stroke-linecap="round" stroke-linejoin="round" />
<path d="M 146.0 103.0 L 145.0 103.0 L 145.0 102.0 L 145.0 102.0 L 145.0 101.0 L 145.0 102.0 L 144.0 105.0 L 144.0 109.0 L 143.0 112.0 L 143.0 114.0 L 143.0 115.0 L 144.0 115.0 L 146.0 115.0 L 148.0 114.0 L 150.0 114.0 L 152.0 114.0 L 154.0 114.0 L 155.0 115.0 L 156.0 118.0 L 157.0 121.0 L 157.0 125.0 L 157.0 129.0 L 157.0 133.0 L 157.0 135.0 L 156.0 136.0 L 154.0 136.0 L 150.0 136.0 L 149.0 136.0 " stroke="black" fill="none" stroke-width="5.0" stroke-linecap="round" stroke-linejoin="round" />
<path d="M 145.0 116.0 L 145.0 116.0 L 145.0 116.0 L 145.0 116.0 L 145.0 118.0 L 144.0 124.0 L 142.0 132.0 " stroke="black" fill="none" stroke-width="5.0" stroke-linecap="round" stroke-linejoin="round" />
<path d="M 150.0 109.0 L 150.0 109.0 L 150.0 109.0 L 149.0 109.0 L 149.0 108.0 L 150.0 108.0 L 153.0 107.0 L 154.0 107.0 " stroke="black" fill="none" stroke-width="5.0" stroke-linecap="round" stroke-linejoin="round" />
<path d="M 164.0 104.0 L 164.0 104.0 L 165.0 104.0 L 166.0 104.0 L 167.0 104.0 L 169.0 104.0 L 171.0 105.0 L 172.0 106.0 L 174.0 109.0 L 175.0 116.0 L 175.0 125.0 L 175.0 134.0 L 175.0 140.0 L 175.0 141.0 L 175.0 141.0 " stroke="black" fill="none" stroke-width="5.0" stroke-linecap="round" stroke-linejoin="round" />
<path d="M 163.0 120.0 L 163.0 120.0 L 163.0 121.0 L 164.0 122.0 L 167.0 122.0 L 170.0 122.0 L 172.0 122.0 L 173.0 122.0 " stroke="black" fill="none" stroke-width="5.0" stroke-linecap="round" stroke-linejoin="round" />
<path d="M 165.0 130.0 L 166.0 131.0 L 168.0 132.0 L 171.0 132.0 L 175.0 133.0 " stroke="black" fill="none" stroke-width="5.0" stroke-linecap="round" stroke-linejoin="round" />
<path d="M 107.0 150.0 L 107.0 150.0 L 107.0 150.0 L 107.0 150.0 L 110.0 150.0 L 123.0 150.0 L 146.0 148.0 L 165.0 146.0 L 177.0 145.0 L 182.0 145.0 L 183.0 146.0 L 182.0 148.0 " stroke="black" fill="none" stroke-width="5.0" stroke-linecap="round" stroke-linejoin="round" />
<path d="M 141.0 153.0 L 141.0 153.0 L 141.0 153.0 L 141.0 153.0 L 141.0 153.0 L 140.0 155.0 L 135.0 160.0 L 126.0 168.0 L 121.0 172.0 " stroke="black" fill="none" stroke-width="5.0" stroke-linecap="round" stroke-linejoin="round" />
<path d="M 160.0 151.0 L 160.0 151.0 L 161.0 151.0 L 162.0 152.0 L 165.0 155.0 L 169.0 159.0 L 174.0 163.0 L 175.0 164.0 " stroke="black" fill="none" stroke-width="5.0" stroke-linecap="round" stroke-linejoin="round" />
<path d="M 150.0 159.0 L 150.0 159.0 L 150.0 159.0 L 150.0 160.0 L 151.0 160.0 L 152.0 162.0 L 154.0 163.0 " stroke="black" fill="none" stroke-width="5.0" stroke-linecap="round" stroke-linejoin="round" />
<path d="M 138.0 175.0 L 138.0 175.0 L 138.0 175.0 L 141.0 175.0 L 146.0 175.0 L 154.0 173.0 L 160.0 172.0 L 164.0 171.0 L 165.0 171.0 L 164.0 171.0 L 163.0 171.0 " stroke="black" fill="none" stroke-width="5.0" stroke-linecap="round" stroke-linejoin="round" />
<path d="M 143.0 184.0 L 143.0 184.0 L 144.0 184.0 L 145.0 184.0 L 147.0 184.0 L 151.0 184.0 L 155.0 183.0 L 158.0 183.0 L 160.0 183.0 L 160.0 183.0 " stroke="black" fill="none" stroke-width="5.0" stroke-linecap="round" stroke-linejoin="round" />
<path d="M 142.0 193.0 L 142.0 193.0 L 143.0 193.0 L 145.0 193.0 L 150.0 193.0 L 156.0 192.0 L 159.0 192.0 " stroke="black" fill="none" stroke-width="5.0" stroke-linecap="round" stroke-linejoin="round" />
<path d="M 134.0 202.0 L 134.0 203.0 L 135.0 204.0 L 135.0 206.0 L 136.0 210.0 L 137.0 213.0 L 137.0 213.0 " stroke="black" fill="none" stroke-width="5.0" stroke-linecap="round" stroke-linejoin="round" />
<path d="M 136.0 204.0 L 136.0 204.0 L 136.0 204.0 L 137.0 203.0 L 141.0 202.0 L 148.0 200.0 L 156.0 200.0 L 162.0 200.0 L 165.0 203.0 L 167.0 207.0 L 167.0 209.0 L 166.0 210.0 " stroke="black" fill="none" stroke-width="5.0" stroke-linecap="round" stroke-linejoin="round" />
<path d="M 139.0 214.0 L 140.0 214.0 L 143.0 214.0 L 148.0 214.0 L 156.0 213.0 L 165.0 211.0 L 168.0 211.0 " stroke="black" fill="none" stroke-width="5.0" stroke-linecap="round" stroke-linejoin="round" />
</svg>