<svg xmlns="http://www.w3.org/2000/svg" width="300" height="300" viewBox="0 0 300 300">
<path d="M 119.0 112.0 L 119.0 112.0 L 119.0 115.0 L 121.0 119.0 L 123.0 123.0 L 124.0 125.0 " stroke="black" fill="none" stroke-width="5.0" stroke-linecap="round" stroke-linejoin="round" />
<path d="M 108.0 134.0 L 108.0 134.0 L 108.0 134.0 L 108.0 134.0 L 111.0 134.0 L 118.0 133.0 L 128.0 131.0 L 134.0 131.0 L 136.0 131.0 " stroke="black" fill="none" stroke-width="5.0" stroke-linecap="round" stroke-linejoin="round" />
<path d="M 114.0 146.0 L 116.0 146.0 L 117.0 147.0 L 121.0 147.0 L 127.0 146.0 L 132.0 145.0 L 134.0 145.0 " stroke="black" fill="none" stroke-width="5.0" stroke-linecap="round" stroke-linejoin="round" />
<path d="M 114.0 162.0 L 114.0 162.0 L 116.0 163.0 L 119.0 163.0 L 124.0 163.0 L 131.0 162.0 L 135.0 162.0 " stroke="black" fill="none" stroke-width="5.0" stroke-linecap="round" stroke-linejoin="round" />
<path d="M 110.0 181.0 L 110.0 182.0 L 110.0 186.0 L 111.0 191.0 L 112.0 195.0 L 112.0 196.0 " stroke="black" fill="none" stroke-width="5.0" stroke-linecap="round" stroke-linejoin="round" />
<path d="M 111.0 179.0 L 112.0 179.0 L 113.0 179.0 L 115.0 178.0 L 119.0 178.0 L 125.0 177.0 L 130.0 177.0 L 135.0 178.0 L 137.0 182.0 L 139.0 187.0 L 139.0 192.0 L 139.0 194.0 " stroke="black" fill="none" stroke-width="5.0" stroke-linecap="round" stroke-linejoin="round" />
<path d="M 113.0 195.0 L 114.0 196.0 L 116.0 197.0 L 120.0 199.0 L 127.0 199.0 L 135.0 198.0 " stroke="black" fill="none" stroke-width="5.0" stroke-linecap="round" stroke-linejoin="round" />
<path d="M 155.0 112.0 L 155.0 112.0 L 155.0 112.0 L 155.0 112.0 L 155.0 113.0 L 156.0 115.0 L 156.0 119.0 L 157.0 126.0 L 157.0 133.0 L 158.0 137.0 L 159.0 139.0 L 162.0 140.0 L 167.0 139.0 L 172.0 138.0 L 173.0 137.0 " stroke="black" fill="none" stroke-width="5.0" stroke-linecap="round" stroke-linejoin="round" />
<path d="M 172.0 113.0 L 172.0 113.0 L 172.0 113.0 L 172.0 113.0 L 172.0 117.0 L 173.0 124.0 L 174.0 132.0 L 174.0 138.0 " stroke="black" fill="none" stroke-width="5.0" stroke-linecap="round" stroke-linejoin="round" />
<path d="M 146.0 127.0 L 146.0 127.0 L 146.0 127.0 L 146.0 127.0 L 150.0 127.0 L 161.0 126.0 L 174.0 125.0 L 184.0 125.0 L 188.0 125.0 L 188.0 125.0 " stroke="black" fill="none" stroke-width="5.0" stroke-linecap="round" stroke-linejoin="round" />
<path d="M 151.0 149.0 L 151.0 149.0 L 151.0 149.0 L 151.0 149.0 L 151.0 150.0 L 151.0 153.0 L 152.0 157.0 L 153.0 160.0 " stroke="black" fill="none" stroke-width="5.0" stroke-linecap="round" stroke-linejoin="round" />
<path d="M 152.0 150.0 L 152.0 150.0 L 153.0 150.0 L 154.0 150.0 L 157.0 150.0 L 164.0 149.0 L 172.0 148.0 L 179.0 147.0 L 183.0 148.0 L 184.0 151.0 L 184.0 155.0 L 184.0 157.0 " stroke="black" fill="none" stroke-width="5.0" stroke-linecap="round" stroke-linejoin="round" />
<path d="M 153.0 160.0 L 153.0 160.0 L 153.0 160.0 L 154.0 160.0 L 157.0 160.0 L 164.0 159.0 L 172.0 158.0 L 177.0 158.0 L 180.0 158.0 " stroke="black" fill="none" stroke-width="5.0" stroke-linecap="round" stroke-linejoin="round" />
<path d="M 154.0 171.0 L 154.0 171.0 L 154.0 171.0 L 155.0 171.0 L 156.0 171.0 L 159.0 170.0 L 165.0 169.0 L 171.0 168.0 L 175.0 168.0 L 176.0 168.0 L 177.0 168.0 " stroke="black" fill="none" stroke-width="5.0" stroke-linecap="round" stroke-linejoin="round" />
<path d="M 156.0 181.0 L 156.0 181.0 L 157.0 181.0 L 159.0 181.0 L 161.0 182.0 L 165.0 182.0 L 169.0 181.0 L 173.0 181.0 L 174.0 181.0 " stroke="black" fill="none" stroke-width="5.0" stroke-linecap="round" stroke-linejoin="round" />
<path d="M 148.0 194.0 L 148.0 194.0 L 149.0 195.0 L 151.0 195.0 L 157.0 196.0 L 167.0 195.0 L 178.0 194.0 L 186.0 193.0 L 188.0 193.0 " stroke="black" fill="none" stroke-width="5.0" stroke-linecap="round" stroke-linejoin="round" />
<path d="M 166.0 143.0 L 166.0 143.0 L 166.0 143.0 L 166.0 146.0 L 167.0 156.0 L 169.0 172.0 L 169.0 186.0 L 169.0 193.0 " stroke="black" fill="none" stroke-width="5.0" stroke-linecap="round" stroke-linejoin="round" />
</svg>