<svg xmlns="http://www.w3.org/2000/svg" width="300" height="300" viewBox="0 0 300 300">
<path d="M 119.0 103.0 L 119.0 103.0 L 119.0 104.0 L 119.0 106.0 L 119.0 110.0 L 119.0 114.0 L 119.0 118.0 L 120.0 121.0 L 120.0 122.0 " stroke="black" fill="none" stroke-width="5.0" stroke-linecap="round" stroke-linejoin="round" />
<path d="M 107.0 114.0 L 107.0 114.0 L 107.0 114.0 L 107.0 114.0 L 108.0 114.0 L 111.0 114.0 L 115.0 115.0 L 117.0 115.0 " stroke="black" fill="none" stroke-width="5.0" stroke-linecap="round" stroke-linejoin="round" />
<path d="M 130.0 106.0 L 130.0 106.0 L 130.0 106.0 L 130.0 106.0 L 130.0 106.0 L 130.0 106.0 L 130.0 110.0 L 130.0 115.0 L 130.0 120.0 L 130.0 123.0 " stroke="black" fill="none" stroke-width="5.0" stroke-linecap="round" stroke-linejoin="round" />
<path d="M 131.0 113.0 L 131.0 113.0 L 132.0 112.0 L 133.0 112.0 L 136.0 112.0 L 139.0 112.0 L 141.0 113.0 " stroke="black" fill="none" stroke-width="5.0" stroke-linecap="round" stroke-linejoin="round" />
<path d="M 110.0 124.0 L 110.0 124.0 L 110.0 124.0 L 110.0 124.0 L 110.0 124.0 L 110.0 126.0 L 109.0 130.0 L 108.0 133.0 L 108.0 135.0 " stroke="black" fill="none" stroke-width="5.0" stroke-linecap="round" stroke-linejoin="round" />
<path d="M 111.0 129.0 L 112.0 129.0 L 114.0 129.0 L 117.0 129.0 L 121.0 128.0 L 127.0 128.0 L 132.0 127.0 L 136.0 127.0 L 140.0 129.0 L 141.0 134.0 L 142.0 139.0 L 143.0 145.0 L 144.0 150.0 L 144.0 154.0 L 143.0 157.0 L 141.0 158.0 L 137.0 158.0 L 132.0 155.0 L 128.0 153.0 " stroke="black" fill="none" stroke-width="5.0" stroke-linecap="round" stroke-linejoin="round" />
<path d="M 115.0 144.0 L 115.0 144.0 L 115.0 144.0 L 115.0 144.0 L 115.0 143.0 L 116.0 142.0 L 118.0 140.0 L 122.0 140.0 L 126.0 140.0 L 129.0 143.0 L 130.0 146.0 L 130.0 148.0 L 127.0 149.0 L 122.0 149.0 L 119.0 148.0 " stroke="black" fill="none" stroke-width="5.0" stroke-linecap="round" stroke-linejoin="round" />
<path d="M 152.0 111.0 L 152.0 111.0 L 152.0 111.0 L 152.0 112.0 L 152.0 115.0 L 151.0 119.0 L 148.0 124.0 L 145.0 129.0 L 144.0 130.0 " stroke="black" fill="none" stroke-width="5.0" stroke-linecap="round" stroke-linejoin="round" />
<path d="M 150.0 120.0 L 151.0 121.0 L 152.0 121.0 L 155.0 121.0 L 159.0 121.0 L 163.0 120.0 L 167.0 120.0 " stroke="black" fill="none" stroke-width="5.0" stroke-linecap="round" stroke-linejoin="round" />
<path d="M 161.0 121.0 L 161.0 122.0 L 161.0 122.0 L 161.0 124.0 L 161.0 128.0 L 160.0 135.0 L 157.0 144.0 L 153.0 152.0 L 149.0 157.0 L 149.0 157.0 " stroke="black" fill="none" stroke-width="5.0" stroke-linecap="round" stroke-linejoin="round" />
<path d="M 148.0 134.0 L 148.0 133.0 L 149.0 133.0 L 152.0 136.0 L 158.0 143.0 L 165.0 150.0 L 168.0 154.0 " stroke="black" fill="none" stroke-width="5.0" stroke-linecap="round" stroke-linejoin="round" />
<path d="M 146.0 161.0 L 146.0 161.0 L 146.0 162.0 L 147.0 163.0 L 148.0 165.0 L 150.0 167.0 L 150.0 168.0 " stroke="black" fill="none" stroke-width="5.0" stroke-linecap="round" stroke-linejoin="round" />
<path d="M 124.0 170.0 L 124.0 170.0 L 124.0 170.0 L 125.0 170.0 L 131.0 170.0 L 142.0 169.0 L 153.0 169.0 L 160.0 169.0 L 164.0 170.0 L 164.0 171.0 L 164.0 171.0 " stroke="black" fill="none" stroke-width="5.0" stroke-linecap="round" stroke-linejoin="round" />
<path d="M 134.0 178.0 L 134.0 178.0 L 134.0 177.0 L 136.0 177.0 L 141.0 177.0 L 148.0 177.0 L 154.0 177.0 L 157.0 178.0 L 157.0 178.0 " stroke="black" fill="none" stroke-width="5.0" stroke-linecap="round" stroke-linejoin="round" />
<path d="M 133.0 186.0 L 134.0 186.0 L 137.0 187.0 L 141.0 188.0 L 146.0 188.0 L 152.0 188.0 L 155.0 187.0 L 156.0 187.0 " stroke="black" fill="none" stroke-width="5.0" stroke-linecap="round" stroke-linejoin="round" />
<path d="M 127.0 198.0 L 127.0 199.0 L 127.0 201.0 L 127.0 204.0 L 128.0 207.0 L 129.0 209.0 L 130.0 209.0 " stroke="black" fill="none" stroke-width="5.0" stroke-linecap="round" stroke-linejoin="round" />
<path d="M 131.0 198.0 L 131.0 198.0 L 134.0 198.0 L 137.0 197.0 L 141.0 197.0 L 148.0 196.0 L 155.0 196.0 L 160.0 198.0 L 163.0 202.0 L 164.0 206.0 L 164.0 208.0 L 164.0 209.0 " stroke="black" fill="none" stroke-width="5.0" stroke-linecap="round" stroke-linejoin="round" />
<path d="M 136.0 212.0 L 137.0 213.0 L 140.0 215.0 L 144.0 215.0 L 151.0 215.0 L 160.0 215.0 L 167.0 215.0 L 169.0 215.0 " stroke="black" fill="none" stroke-width="5.0" stroke-linecap="round" stroke-linejoin="round" />
</svg>