<svg xmlns="http://www.w3.org/2000/svg" width="300" height="300" viewBox="0 0 300 300">
<path d="M 129.0 111.0 L 129.0 111.0 L 129.0 111.0 L 129.0 112.0 L 130.0 112.0 L 131.0 114.0 L 133.0 117.0 L 134.0 121.0 L 135.0 122.0 " stroke="black" fill="none" stroke-width="5.0" stroke-linecap="round" stroke-linejoin="round" />
<path d="M 119.0 133.0 L 119.0 133.0 L 119.0 133.0 L 120.0 133.0 L 122.0 133.0 L 127.0 133.0 L 132.0 133.0 L 137.0 134.0 L 138.0 134.0 " stroke="black" fill="none" stroke-width="5.0" stroke-linecap="round" stroke-linejoin="round" />
<path d="M 117.0 147.0 L 117.0 147.0 L 117.0 147.0 L 118.0 147.0 L 121.0 147.0 L 126.0 147.0 L 132.0 146.0 L 135.0 146.0 L 136.0 146.0 " stroke="black" fill="none" stroke-width="5.0" stroke-linecap="round" stroke-linejoin="round" />
<path d="M 115.0 158.0 L 115.0 158.0 L 115.0 159.0 L 116.0 159.0 L 119.0 159.0 L 124.0 159.0 L 129.0 158.0 L 130.0 158.0 " stroke="black" fill="none" stroke-width="5.0" stroke-linecap="round" stroke-linejoin="round" />
<path d="M 108.0 176.0 L 109.0 176.0 L 109.0 176.0 L 110.0 177.0 L 110.0 180.0 L 110.0 183.0 L 110.0 187.0 L 110.0 189.0 " stroke="black" fill="none" stroke-width="5.0" stroke-linecap="round" stroke-linejoin="round" />
<path d="M 109.0 174.0 L 109.0 174.0 L 110.0 174.0 L 111.0 174.0 L 113.0 173.0 L 117.0 173.0 L 122.0 172.0 L 127.0 172.0 L 131.0 174.0 L 133.0 178.0 L 134.0 183.0 L 134.0 188.0 L 134.0 191.0 L 133.0 192.0 " stroke="black" fill="none" stroke-width="5.0" stroke-linecap="round" stroke-linejoin="round" />
<path d="M 112.0 191.0 L 113.0 191.0 L 114.0 192.0 L 117.0 193.0 L 123.0 193.0 L 130.0 192.0 " stroke="black" fill="none" stroke-width="5.0" stroke-linecap="round" stroke-linejoin="round" />
<path d="M 155.0 118.0 L 156.0 118.0 L 157.0 118.0 L 157.0 119.0 L 158.0 119.0 L 158.0 121.0 L 157.0 123.0 L 155.0 126.0 L 152.0 130.0 L 150.0 132.0 L 149.0 134.0 L 150.0 136.0 L 153.0 136.0 L 154.0 136.0 " stroke="black" fill="none" stroke-width="5.0" stroke-linecap="round" stroke-linejoin="round" />
<path d="M 163.0 127.0 L 163.0 128.0 L 162.0 129.0 L 160.0 131.0 L 157.0 135.0 L 153.0 139.0 L 149.0 144.0 L 146.0 148.0 L 145.0 150.0 L 146.0 151.0 L 150.0 151.0 L 156.0 149.0 L 160.0 148.0 " stroke="black" fill="none" stroke-width="5.0" stroke-linecap="round" stroke-linejoin="round" />
<path d="M 164.0 140.0 L 164.0 141.0 L 164.0 143.0 L 165.0 146.0 L 167.0 149.0 L 168.0 150.0 " stroke="black" fill="none" stroke-width="5.0" stroke-linecap="round" stroke-linejoin="round" />
<path d="M 189.0 120.0 L 189.0 120.0 L 188.0 120.0 L 188.0 121.0 L 187.0 122.0 L 187.0 122.0 L 185.0 124.0 L 184.0 126.0 L 182.0 128.0 L 181.0 130.0 L 182.0 130.0 L 185.0 130.0 L 188.0 130.0 " stroke="black" fill="none" stroke-width="5.0" stroke-linecap="round" stroke-linejoin="round" />
<path d="M 195.0 125.0 L 195.0 125.0 L 195.0 126.0 L 195.0 126.0 L 195.0 127.0 L 193.0 129.0 L 191.0 132.0 L 187.0 137.0 L 185.0 141.0 L 184.0 143.0 L 184.0 145.0 L 185.0 146.0 L 189.0 146.0 L 194.0 145.0 L 195.0 145.0 " stroke="black" fill="none" stroke-width="5.0" stroke-linecap="round" stroke-linejoin="round" />
<path d="M 199.0 140.0 L 199.0 140.0 L 199.0 140.0 L 199.0 142.0 L 200.0 144.0 L 201.0 147.0 " stroke="black" fill="none" stroke-width="5.0" stroke-linecap="round" stroke-linejoin="round" />
<path d="M 144.0 166.0 L 144.0 166.0 L 144.0 166.0 L 144.0 166.0 L 148.0 166.0 L 161.0 165.0 L 181.0 163.0 L 195.0 161.0 L 202.0 160.0 L 202.0 159.0 " stroke="black" fill="none" stroke-width="5.0" stroke-linecap="round" stroke-linejoin="round" />
<path d="M 176.0 122.0 L 176.0 122.0 L 175.0 123.0 L 175.0 128.0 L 177.0 143.0 L 184.0 165.0 L 190.0 186.0 L 194.0 197.0 L 196.0 203.0 " stroke="black" fill="none" stroke-width="5.0" stroke-linecap="round" stroke-linejoin="round" />
<path d="M 198.0 173.0 L 198.0 173.0 L 198.0 174.0 L 198.0 176.0 L 196.0 178.0 L 193.0 183.0 L 187.0 191.0 L 184.0 194.0 " stroke="black" fill="none" stroke-width="5.0" stroke-linecap="round" stroke-linejoin="round" />
<path d="M 163.0 170.0 L 163.0 170.0 L 163.0 169.0 L 163.0 169.0 L 163.0 169.0 L 161.0 173.0 L 158.0 180.0 L 153.0 189.0 L 149.0 196.0 " stroke="black" fill="none" stroke-width="5.0" stroke-linecap="round" stroke-linejoin="round" />
<path d="M 158.0 186.0 L 159.0 188.0 L 162.0 191.0 L 169.0 195.0 L 176.0 199.0 L 178.0 200.0 " stroke="black" fill="none" stroke-width="5.0" stroke-linecap="round" stroke-linejoin="round" />
</svg>