<svg xmlns="http://www.w3.org/2000/svg" width="300" height="300" viewBox="0 0 300 300">
<path d="M 117.0 107.0 L 117.0 107.0 L 117.0 107.0 L 118.0 107.0 L 118.0 107.0 L 119.0 109.0 L 121.0 113.0 L 122.0 117.0 " stroke="black" fill="none" stroke-width="5.0" stroke-linecap="round" stroke-linejoin="round" />
<path d="M 109.0 125.0 L 109.0 125.0 L 109.0 125.0 L 111.0 125.0 L 115.0 125.0 L 121.0 125.0 L 128.0 124.0 L 130.0 124.0 " stroke="black" fill="none" stroke-width="5.0" stroke-linecap="round" stroke-linejoin="round" />
<path d="M 111.0 140.0 L 111.0 140.0 L 112.0 139.0 L 113.0 139.0 L 116.0 139.0 L 119.0 139.0 L 122.0 139.0 " stroke="black" fill="none" stroke-width="5.0" stroke-linecap="round" stroke-linejoin="round" />
<path d="M 107.0 154.0 L 108.0 154.0 L 111.0 155.0 L 117.0 155.0 L 122.0 153.0 L 125.0 153.0 " stroke="black" fill="none" stroke-width="5.0" stroke-linecap="round" stroke-linejoin="round" />
<path d="M 106.0 173.0 L 106.0 173.0 L 106.0 175.0 L 106.0 179.0 L 106.0 183.0 L 107.0 187.0 " stroke="black" fill="none" stroke-width="5.0" stroke-linecap="round" stroke-linejoin="round" />
<path d="M 107.0 175.0 L 107.0 175.0 L 108.0 174.0 L 110.0 173.0 L 115.0 172.0 L 121.0 172.0 L 127.0 173.0 L 131.0 177.0 L 133.0 183.0 L 134.0 187.0 L 134.0 190.0 " stroke="black" fill="none" stroke-width="5.0" stroke-linecap="round" stroke-linejoin="round" />
<path d="M 109.0 193.0 L 109.0 194.0 L 111.0 196.0 L 117.0 196.0 L 128.0 195.0 L 130.0 195.0 " stroke="black" fill="none" stroke-width="5.0" stroke-linecap="round" stroke-linejoin="round" />
<path d="M 149.0 115.0 L 149.0 115.0 L 149.0 115.0 L 149.0 115.0 L 151.0 115.0 L 155.0 115.0 L 162.0 115.0 L 167.0 115.0 L 169.0 115.0 " stroke="black" fill="none" stroke-width="5.0" stroke-linecap="round" stroke-linejoin="round" />
<path d="M 148.0 125.0 L 149.0 126.0 L 151.0 126.0 L 154.0 126.0 L 160.0 126.0 L 166.0 124.0 L 168.0 124.0 " stroke="black" fill="none" stroke-width="5.0" stroke-linecap="round" stroke-linejoin="round" />
<path d="M 156.0 101.0 L 156.0 103.0 L 156.0 107.0 L 157.0 114.0 L 157.0 116.0 " stroke="black" fill="none" stroke-width="5.0" stroke-linecap="round" stroke-linejoin="round" />
<path d="M 144.0 137.0 L 144.0 137.0 L 143.0 140.0 L 143.0 144.0 L 145.0 146.0 " stroke="black" fill="none" stroke-width="5.0" stroke-linecap="round" stroke-linejoin="round" />
<path d="M 146.0 135.0 L 146.0 135.0 L 148.0 135.0 L 150.0 135.0 L 155.0 135.0 L 163.0 133.0 L 173.0 132.0 L 180.0 134.0 L 183.0 138.0 L 184.0 143.0 " stroke="black" fill="none" stroke-width="5.0" stroke-linecap="round" stroke-linejoin="round" />
<path d="M 149.0 149.0 L 149.0 149.0 L 149.0 149.0 L 151.0 149.0 L 159.0 149.0 L 169.0 149.0 L 177.0 148.0 " stroke="black" fill="none" stroke-width="5.0" stroke-linecap="round" stroke-linejoin="round" />
<path d="M 155.0 136.0 L 155.0 136.0 L 155.0 136.0 L 155.0 137.0 L 156.0 139.0 L 158.0 144.0 L 158.0 146.0 " stroke="black" fill="none" stroke-width="5.0" stroke-linecap="round" stroke-linejoin="round" />
<path d="M 166.0 137.0 L 166.0 137.0 L 166.0 139.0 L 167.0 141.0 L 167.0 145.0 " stroke="black" fill="none" stroke-width="5.0" stroke-linecap="round" stroke-linejoin="round" />
<path d="M 153.0 159.0 L 153.0 159.0 L 153.0 159.0 L 154.0 159.0 L 159.0 159.0 L 166.0 158.0 L 174.0 157.0 L 178.0 157.0 L 180.0 157.0 L 181.0 159.0 L 182.0 164.0 L 183.0 170.0 L 184.0 177.0 L 184.0 181.0 L 184.0 183.0 " stroke="black" fill="none" stroke-width="5.0" stroke-linecap="round" stroke-linejoin="round" />
<path d="M 156.0 164.0 L 156.0 166.0 L 156.0 168.0 L 156.0 172.0 L 156.0 179.0 L 156.0 182.0 " stroke="black" fill="none" stroke-width="5.0" stroke-linecap="round" stroke-linejoin="round" />
<path d="M 160.0 168.0 L 160.0 168.0 L 161.0 168.0 L 163.0 168.0 L 168.0 168.0 L 174.0 168.0 L 179.0 168.0 L 180.0 168.0 L 180.0 168.0 " stroke="black" fill="none" stroke-width="5.0" stroke-linecap="round" stroke-linejoin="round" />
<path d="M 159.0 177.0 L 160.0 177.0 L 163.0 178.0 L 168.0 178.0 L 174.0 176.0 L 179.0 176.0 L 181.0 177.0 " stroke="black" fill="none" stroke-width="5.0" stroke-linecap="round" stroke-linejoin="round" />
<path d="M 156.0 188.0 L 156.0 188.0 L 157.0 188.0 L 160.0 188.0 L 167.0 188.0 L 176.0 187.0 L 182.0 187.0 L 182.0 187.0 " stroke="black" fill="none" stroke-width="5.0" stroke-linecap="round" stroke-linejoin="round" />
<path d="M 165.0 190.0 L 165.0 190.0 L 165.0 191.0 L 165.0 193.0 L 165.0 196.0 L 164.0 200.0 L 164.0 201.0 " stroke="black" fill="none" stroke-width="5.0" stroke-linecap="round" stroke-linejoin="round" />
<path d="M 177.0 190.0 L 178.0 191.0 L 180.0 194.0 L 185.0 199.0 L 191.0 205.0 " stroke="black" fill="none" stroke-width="5.0" stroke-linecap="round" stroke-linejoin="round" />
</svg>