<svg xmlns="http://www.w3.org/2000/svg" width="300" height="300" viewBox="0 0 300 300">
<path d="M 121.0 115.0 L 121.0 115.0 L 121.0 115.0 L 122.0 117.0 L 125.0 122.0 L 128.0 125.0 " stroke="black" fill="none" stroke-width="5.0" stroke-linecap="round" stroke-linejoin="round" />
<path d="M 110.0 137.0 L 110.0 137.0 L 110.0 137.0 L 110.0 137.0 L 110.0 136.0 L 115.0 135.0 L 122.0 135.0 L 131.0 135.0 L 137.0 135.0 " stroke="black" fill="none" stroke-width="5.0" stroke-linecap="round" stroke-linejoin="round" />
<path d="M 112.0 152.0 L 112.0 152.0 L 113.0 152.0 L 114.0 152.0 L 117.0 152.0 L 123.0 152.0 L 129.0 152.0 L 131.0 152.0 " stroke="black" fill="none" stroke-width="5.0" stroke-linecap="round" stroke-linejoin="round" />
<path d="M 111.0 166.0 L 111.0 166.0 L 112.0 166.0 L 113.0 166.0 L 116.0 166.0 L 122.0 166.0 L 129.0 166.0 L 133.0 167.0 " stroke="black" fill="none" stroke-width="5.0" stroke-linecap="round" stroke-linejoin="round" />
<path d="M 105.0 184.0 L 105.0 184.0 L 105.0 184.0 L 105.0 185.0 L 105.0 186.0 L 106.0 189.0 L 107.0 192.0 L 107.0 192.0 " stroke="black" fill="none" stroke-width="5.0" stroke-linecap="round" stroke-linejoin="round" />
<path d="M 106.0 183.0 L 106.0 183.0 L 107.0 183.0 L 109.0 182.0 L 112.0 182.0 L 118.0 182.0 L 124.0 182.0 L 129.0 183.0 L 132.0 185.0 L 133.0 188.0 L 134.0 192.0 L 135.0 195.0 " stroke="black" fill="none" stroke-width="5.0" stroke-linecap="round" stroke-linejoin="round" />
<path d="M 111.0 197.0 L 112.0 197.0 L 115.0 197.0 L 119.0 197.0 L 127.0 198.0 L 131.0 198.0 " stroke="black" fill="none" stroke-width="5.0" stroke-linecap="round" stroke-linejoin="round" />
<path d="M 153.0 113.0 L 153.0 113.0 L 153.0 113.0 L 153.0 114.0 L 154.0 116.0 L 156.0 119.0 L 156.0 119.0 " stroke="black" fill="none" stroke-width="5.0" stroke-linecap="round" stroke-linejoin="round" />
<path d="M 143.0 127.0 L 143.0 127.0 L 143.0 127.0 L 144.0 127.0 L 150.0 127.0 L 161.0 125.0 L 174.0 123.0 L 182.0 123.0 L 183.0 123.0 " stroke="black" fill="none" stroke-width="5.0" stroke-linecap="round" stroke-linejoin="round" />
<path d="M 150.0 141.0 L 150.0 141.0 L 150.0 141.0 L 150.0 141.0 L 150.0 141.0 L 150.0 141.0 L 150.0 143.0 L 150.0 144.0 " stroke="black" fill="none" stroke-width="5.0" stroke-linecap="round" stroke-linejoin="round" />
<path d="M 150.0 141.0 L 150.0 141.0 L 150.0 140.0 L 150.0 139.0 L 151.0 139.0 L 153.0 138.0 L 155.0 138.0 L 158.0 138.0 L 160.0 140.0 L 162.0 142.0 L 163.0 144.0 L 163.0 145.0 " stroke="black" fill="none" stroke-width="5.0" stroke-linecap="round" stroke-linejoin="round" />
<path d="M 150.0 151.0 L 150.0 151.0 L 150.0 151.0 L 150.0 151.0 L 151.0 150.0 L 154.0 150.0 L 158.0 150.0 L 159.0 150.0 " stroke="black" fill="none" stroke-width="5.0" stroke-linecap="round" stroke-linejoin="round" />
<path d="M 165.0 141.0 L 166.0 140.0 L 166.0 140.0 L 167.0 140.0 L 167.0 141.0 L 167.0 144.0 L 167.0 148.0 L 167.0 149.0 " stroke="black" fill="none" stroke-width="5.0" stroke-linecap="round" stroke-linejoin="round" />
<path d="M 166.0 140.0 L 167.0 139.0 L 169.0 139.0 L 170.0 138.0 L 173.0 138.0 L 176.0 138.0 L 178.0 139.0 L 179.0 142.0 L 179.0 146.0 L 180.0 148.0 L 180.0 149.0 " stroke="black" fill="none" stroke-width="5.0" stroke-linecap="round" stroke-linejoin="round" />
<path d="M 164.0 151.0 L 165.0 151.0 L 166.0 150.0 L 169.0 150.0 L 173.0 150.0 L 177.0 151.0 L 178.0 151.0 " stroke="black" fill="none" stroke-width="5.0" stroke-linecap="round" stroke-linejoin="round" />
<path d="M 152.0 161.0 L 152.0 161.0 L 153.0 161.0 L 154.0 161.0 L 158.0 161.0 L 165.0 160.0 L 173.0 159.0 L 176.0 159.0 L 176.0 159.0 " stroke="black" fill="none" stroke-width="5.0" stroke-linecap="round" stroke-linejoin="round" />
<path d="M 151.0 168.0 L 152.0 168.0 L 154.0 169.0 L 157.0 169.0 L 162.0 169.0 L 170.0 169.0 L 176.0 168.0 L 177.0 168.0 " stroke="black" fill="none" stroke-width="5.0" stroke-linecap="round" stroke-linejoin="round" />
<path d="M 146.0 180.0 L 147.0 180.0 L 150.0 179.0 L 155.0 179.0 L 165.0 178.0 L 178.0 176.0 L 182.0 176.0 " stroke="black" fill="none" stroke-width="5.0" stroke-linecap="round" stroke-linejoin="round" />
<path d="M 155.0 158.0 L 155.0 158.0 L 155.0 158.0 L 156.0 160.0 L 158.0 167.0 L 160.0 177.0 L 161.0 183.0 " stroke="black" fill="none" stroke-width="5.0" stroke-linecap="round" stroke-linejoin="round" />
<path d="M 169.0 155.0 L 170.0 155.0 L 171.0 155.0 L 172.0 157.0 L 173.0 162.0 L 173.0 169.0 " stroke="black" fill="none" stroke-width="5.0" stroke-linecap="round" stroke-linejoin="round" />
<path d="M 162.0 178.0 L 162.0 178.0 L 162.0 179.0 L 160.0 181.0 L 157.0 185.0 L 152.0 191.0 L 150.0 193.0 " stroke="black" fill="none" stroke-width="5.0" stroke-linecap="round" stroke-linejoin="round" />
<path d="M 160.0 185.0 L 160.0 185.0 L 159.0 185.0 L 158.0 184.0 L 157.0 186.0 L 156.0 191.0 L 156.0 198.0 L 158.0 203.0 L 164.0 203.0 L 166.0 202.0 " stroke="black" fill="none" stroke-width="5.0" stroke-linecap="round" stroke-linejoin="round" />
<path d="M 192.0 182.0 L 193.0 182.0 L 193.0 181.0 L 193.0 181.0 L 191.0 182.0 L 188.0 187.0 L 186.0 189.0 " stroke="black" fill="none" stroke-width="5.0" stroke-linecap="round" stroke-linejoin="round" />
<path d="M 167.0 186.0 L 167.0 186.0 L 168.0 187.0 L 171.0 189.0 L 178.0 195.0 L 187.0 205.0 L 192.0 212.0 L 194.0 215.0 L 194.0 215.0 " stroke="black" fill="none" stroke-width="5.0" stroke-linecap="round" stroke-linejoin="round" />
</svg>