<svg xmlns="http://www.w3.org/2000/svg" width="300" height="300" viewBox="0 0 300 300">
<path d="M 106.0 109.0 L 106.0 109.0 L 106.0 109.0 L 106.0 109.0 L 106.0 110.0 L 106.0 112.0 L 106.0 117.0 L 106.0 125.0 L 106.0 134.0 L 105.0 141.0 L 104.0 144.0 L 104.0 145.0 L 104.0 145.0 L 106.0 145.0 L 110.0 145.0 L 117.0 146.0 L 126.0 146.0 L 134.0 146.0 L 138.0 146.0 L 139.0 146.0 L 139.0 146.0 " stroke="black" fill="none" stroke-width="5.0" stroke-linecap="round" stroke-linejoin="round" />
<path d="M 114.0 113.0 L 114.0 113.0 L 114.0 113.0 L 114.0 114.0 L 114.0 114.0 L 116.0 114.0 L 118.0 114.0 L 118.0 114.0 " stroke="black" fill="none" stroke-width="5.0" stroke-linecap="round" stroke-linejoin="round" />
<path d="M 113.0 122.0 L 114.0 122.0 L 115.0 122.0 L 117.0 122.0 L 119.0 122.0 L 120.0 123.0 L 121.0 123.0 " stroke="black" fill="none" stroke-width="5.0" stroke-linecap="round" stroke-linejoin="round" />
<path d="M 112.0 132.0 L 112.0 132.0 L 112.0 133.0 L 113.0 134.0 L 117.0 134.0 L 121.0 134.0 " stroke="black" fill="none" stroke-width="5.0" stroke-linecap="round" stroke-linejoin="round" />
<path d="M 117.0 104.0 L 117.0 104.0 L 116.0 105.0 L 116.0 107.0 L 116.0 114.0 L 118.0 125.0 L 119.0 136.0 L 119.0 141.0 " stroke="black" fill="none" stroke-width="5.0" stroke-linecap="round" stroke-linejoin="round" />
<path d="M 128.0 106.0 L 128.0 106.0 L 128.0 106.0 L 128.0 107.0 L 128.0 109.0 L 128.0 116.0 L 128.0 130.0 L 128.0 142.0 L 128.0 145.0 " stroke="black" fill="none" stroke-width="5.0" stroke-linecap="round" stroke-linejoin="round" />
<path d="M 137.0 114.0 L 137.0 114.0 L 137.0 114.0 L 137.0 114.0 L 139.0 114.0 L 142.0 114.0 L 145.0 114.0 L 146.0 115.0 " stroke="black" fill="none" stroke-width="5.0" stroke-linecap="round" stroke-linejoin="round" />
<path d="M 137.0 123.0 L 138.0 123.0 L 139.0 123.0 L 141.0 123.0 L 143.0 123.0 L 144.0 123.0 " stroke="black" fill="none" stroke-width="5.0" stroke-linecap="round" stroke-linejoin="round" />
<path d="M 136.0 131.0 L 136.0 132.0 L 136.0 133.0 L 138.0 134.0 L 144.0 134.0 L 146.0 133.0 " stroke="black" fill="none" stroke-width="5.0" stroke-linecap="round" stroke-linejoin="round" />
<path d="M 143.0 107.0 L 142.0 107.0 L 141.0 108.0 L 141.0 112.0 L 141.0 119.0 L 141.0 129.0 L 141.0 132.0 " stroke="black" fill="none" stroke-width="5.0" stroke-linecap="round" stroke-linejoin="round" />
<path d="M 152.0 109.0 L 152.0 109.0 L 152.0 111.0 L 151.0 114.0 L 151.0 120.0 L 151.0 131.0 L 151.0 143.0 L 151.0 152.0 L 151.0 153.0 " stroke="black" fill="none" stroke-width="5.0" stroke-linecap="round" stroke-linejoin="round" />
<path d="M 114.0 159.0 L 116.0 159.0 L 117.0 159.0 L 121.0 159.0 L 127.0 159.0 L 134.0 159.0 L 138.0 158.0 L 139.0 158.0 " stroke="black" fill="none" stroke-width="5.0" stroke-linecap="round" stroke-linejoin="round" />
<path d="M 113.0 170.0 L 113.0 170.0 L 113.0 170.0 L 113.0 171.0 L 113.0 173.0 L 114.0 176.0 L 115.0 178.0 " stroke="black" fill="none" stroke-width="5.0" stroke-linecap="round" stroke-linejoin="round" />
<path d="M 115.0 168.0 L 116.0 168.0 L 117.0 168.0 L 121.0 168.0 L 128.0 168.0 L 136.0 167.0 L 141.0 167.0 L 143.0 170.0 L 143.0 174.0 L 142.0 177.0 L 141.0 178.0 " stroke="black" fill="none" stroke-width="5.0" stroke-linecap="round" stroke-linejoin="round" />
<path d="M 114.0 180.0 L 114.0 180.0 L 115.0 180.0 L 117.0 180.0 L 121.0 180.0 L 128.0 180.0 L 135.0 179.0 L 139.0 179.0 " stroke="black" fill="none" stroke-width="5.0" stroke-linecap="round" stroke-linejoin="round" />
<path d="M 117.0 183.0 L 118.0 183.0 L 119.0 183.0 L 120.0 184.0 L 121.0 187.0 L 122.0 192.0 L 123.0 194.0 " stroke="black" fill="none" stroke-width="5.0" stroke-linecap="round" stroke-linejoin="round" />
<path d="M 141.0 181.0 L 141.0 181.0 L 140.0 181.0 L 140.0 181.0 L 140.0 182.0 L 139.0 186.0 L 136.0 191.0 L 135.0 193.0 " stroke="black" fill="none" stroke-width="5.0" stroke-linecap="round" stroke-linejoin="round" />
<path d="M 109.0 196.0 L 109.0 196.0 L 109.0 196.0 L 111.0 196.0 L 118.0 196.0 L 132.0 196.0 L 144.0 196.0 L 150.0 196.0 " stroke="black" fill="none" stroke-width="5.0" stroke-linecap="round" stroke-linejoin="round" />
<path d="M 168.0 123.0 L 168.0 123.0 L 167.0 123.0 L 167.0 123.0 L 167.0 123.0 L 171.0 123.0 L 177.0 123.0 L 182.0 123.0 L 187.0 122.0 L 188.0 122.0 " stroke="black" fill="none" stroke-width="5.0" stroke-linecap="round" stroke-linejoin="round" />
<path d="M 160.0 137.0 L 160.0 137.0 L 162.0 137.0 L 166.0 137.0 L 173.0 137.0 L 182.0 135.0 L 190.0 134.0 L 194.0 134.0 " stroke="black" fill="none" stroke-width="5.0" stroke-linecap="round" stroke-linejoin="round" />
<path d="M 177.0 111.0 L 177.0 111.0 L 177.0 111.0 L 177.0 111.0 L 177.0 115.0 L 178.0 123.0 L 179.0 127.0 " stroke="black" fill="none" stroke-width="5.0" stroke-linecap="round" stroke-linejoin="round" />
<path d="M 179.0 138.0 L 179.0 138.0 L 179.0 137.0 L 178.0 137.0 L 176.0 138.0 L 173.0 141.0 L 168.0 146.0 L 163.0 152.0 L 160.0 157.0 L 159.0 160.0 L 161.0 160.0 L 168.0 161.0 L 177.0 161.0 L 186.0 159.0 L 193.0 155.0 " stroke="black" fill="none" stroke-width="5.0" stroke-linecap="round" stroke-linejoin="round" />
<path d="M 195.0 150.0 L 195.0 151.0 L 195.0 154.0 L 197.0 159.0 L 198.0 162.0 " stroke="black" fill="none" stroke-width="5.0" stroke-linecap="round" stroke-linejoin="round" />
<path d="M 160.0 175.0 L 160.0 175.0 L 160.0 176.0 L 160.0 178.0 L 160.0 183.0 L 161.0 189.0 L 161.0 192.0 " stroke="black" fill="none" stroke-width="5.0" stroke-linecap="round" stroke-linejoin="round" />
<path d="M 162.0 176.0 L 162.0 176.0 L 163.0 176.0 L 164.0 176.0 L 170.0 175.0 L 179.0 174.0 L 188.0 173.0 L 192.0 173.0 L 194.0 175.0 L 195.0 178.0 L 195.0 183.0 L 195.0 187.0 L 194.0 191.0 " stroke="black" fill="none" stroke-width="5.0" stroke-linecap="round" stroke-linejoin="round" />
<path d="M 170.0 175.0 L 170.0 175.0 L 171.0 177.0 L 171.0 180.0 L 171.0 182.0 " stroke="black" fill="none" stroke-width="5.0" stroke-linecap="round" stroke-linejoin="round" />
<path d="M 185.0 179.0 L 184.0 182.0 L 183.0 184.0 L 182.0 187.0 L 181.0 190.0 " stroke="black" fill="none" stroke-width="5.0" stroke-linecap="round" stroke-linejoin="round" />
<path d="M 154.0 196.0 L 155.0 196.0 L 156.0 196.0 L 158.0 196.0 L 165.0 196.0 L 177.0 196.0 L 191.0 196.0 L 202.0 195.0 L 206.0 195.0 L 207.0 195.0 L 206.0 195.0 L 206.0 195.0 " stroke="black" fill="none" stroke-width="5.0" stroke-linecap="round" stroke-linejoin="round" />
</svg>