<svg xmlns="http://www.w3.org/2000/svg" width="300" height="300" viewBox="0 0 300 300">
<path d="M 117.0 118.0 L 117.0 118.0 L 118.0 118.0 L 119.0 118.0 L 119.0 120.0 L 119.0 127.0 L 119.0 142.0 L 117.0 161.0 L 116.0 175.0 L 116.0 178.0 " stroke="black" fill="none" stroke-width="5.0" stroke-linecap="round" stroke-linejoin="round" />
<path d="M 119.0 122.0 L 119.0 122.0 L 119.0 122.0 L 120.0 122.0 L 121.0 122.0 L 122.0 121.0 L 126.0 121.0 L 129.0 120.0 L 133.0 120.0 L 136.0 120.0 L 138.0 120.0 L 140.0 124.0 L 141.0 133.0 L 143.0 147.0 L 145.0 161.0 L 146.0 170.0 L 147.0 174.0 L 147.0 175.0 " stroke="black" fill="none" stroke-width="5.0" stroke-linecap="round" stroke-linejoin="round" />
<path d="M 124.0 145.0 L 124.0 145.0 L 124.0 145.0 L 124.0 145.0 L 125.0 145.0 L 129.0 145.0 L 135.0 145.0 L 140.0 145.0 L 142.0 146.0 " stroke="black" fill="none" stroke-width="5.0" stroke-linecap="round" stroke-linejoin="round" />
<path d="M 125.0 160.0 L 127.0 161.0 L 130.0 161.0 L 135.0 161.0 L 138.0 161.0 L 141.0 161.0 L 142.0 161.0 " stroke="black" fill="none" stroke-width="5.0" stroke-linecap="round" stroke-linejoin="round" />
<path d="M 119.0 177.0 L 120.0 178.0 L 122.0 179.0 L 127.0 179.0 L 134.0 178.0 L 139.0 177.0 L 141.0 177.0 " stroke="black" fill="none" stroke-width="5.0" stroke-linecap="round" stroke-linejoin="round" />
<path d="M 127.0 179.0 L 128.0 179.0 L 128.0 179.0 L 128.0 180.0 L 128.0 184.0 L 125.0 190.0 L 123.0 196.0 " stroke="black" fill="none" stroke-width="5.0" stroke-linecap="round" stroke-linejoin="round" />
<path d="M 137.0 180.0 L 138.0 181.0 L 140.0 185.0 L 143.0 190.0 L 146.0 195.0 " stroke="black" fill="none" stroke-width="5.0" stroke-linecap="round" stroke-linejoin="round" />
<path d="M 170.0 118.0 L 170.0 118.0 L 170.0 118.0 L 170.0 118.0 L 170.0 119.0 L 169.0 122.0 L 166.0 128.0 L 162.0 136.0 L 160.0 141.0 L 160.0 144.0 L 165.0 144.0 L 173.0 143.0 L 182.0 142.0 L 188.0 141.0 L 189.0 141.0 " stroke="black" fill="none" stroke-width="5.0" stroke-linecap="round" stroke-linejoin="round" />
<path d="M 185.0 133.0 L 185.0 133.0 L 185.0 133.0 L 187.0 135.0 L 189.0 140.0 L 192.0 148.0 L 194.0 153.0 " stroke="black" fill="none" stroke-width="5.0" stroke-linecap="round" stroke-linejoin="round" />
<path d="M 161.0 161.0 L 162.0 161.0 L 163.0 162.0 L 163.0 164.0 L 163.0 170.0 L 163.0 180.0 L 163.0 187.0 L 163.0 188.0 " stroke="black" fill="none" stroke-width="5.0" stroke-linecap="round" stroke-linejoin="round" />
<path d="M 162.0 161.0 L 162.0 161.0 L 162.0 161.0 L 163.0 161.0 L 164.0 161.0 L 169.0 161.0 L 176.0 161.0 L 184.0 161.0 L 188.0 161.0 L 190.0 162.0 L 191.0 164.0 L 191.0 169.0 L 191.0 176.0 L 191.0 183.0 L 191.0 186.0 " stroke="black" fill="none" stroke-width="5.0" stroke-linecap="round" stroke-linejoin="round" />
<path d="M 162.0 187.0 L 163.0 187.0 L 163.0 188.0 L 164.0 188.0 L 169.0 188.0 L 178.0 188.0 L 187.0 188.0 L 191.0 188.0 " stroke="black" fill="none" stroke-width="5.0" stroke-linecap="round" stroke-linejoin="round" />
</svg>