<svg xmlns="http://www.w3.org/2000/svg" width="300" height="300" viewBox="0 0 300 300">
<path d="M 127.0 121.0 L 127.0 121.0 L 127.0 120.0 L 128.0 120.0 L 128.0 120.0 L 128.0 121.0 L 128.0 125.0 L 128.0 130.0 L 127.0 135.0 L 127.0 139.0 L 127.0 140.0 L 131.0 140.0 L 138.0 139.0 L 150.0 138.0 L 164.0 136.0 L 175.0 135.0 L 177.0 134.0 " stroke="black" fill="none" stroke-width="5.0" stroke-linecap="round" stroke-linejoin="round" />
<path d="M 153.0 112.0 L 154.0 112.0 L 154.0 112.0 L 155.0 114.0 L 155.0 120.0 L 156.0 129.0 L 156.0 133.0 " stroke="black" fill="none" stroke-width="5.0" stroke-linecap="round" stroke-linejoin="round" />
<path d="M 184.0 120.0 L 184.0 120.0 L 184.0 120.0 L 184.0 121.0 L 185.0 124.0 L 186.0 130.0 L 186.0 134.0 " stroke="black" fill="none" stroke-width="5.0" stroke-linecap="round" stroke-linejoin="round" />
<path d="M 128.0 158.0 L 129.0 158.0 L 129.0 158.0 L 130.0 158.0 L 134.0 158.0 L 145.0 156.0 L 162.0 154.0 L 179.0 152.0 L 190.0 150.0 L 192.0 150.0 " stroke="black" fill="none" stroke-width="5.0" stroke-linecap="round" stroke-linejoin="round" />
<path d="M 140.0 173.0 L 140.0 173.0 L 140.0 173.0 L 140.0 173.0 L 140.0 175.0 L 141.0 178.0 L 142.0 180.0 " stroke="black" fill="none" stroke-width="5.0" stroke-linecap="round" stroke-linejoin="round" />
<path d="M 141.0 172.0 L 142.0 172.0 L 144.0 172.0 L 149.0 171.0 L 157.0 170.0 L 168.0 168.0 L 177.0 167.0 L 182.0 168.0 L 183.0 171.0 L 183.0 176.0 L 182.0 181.0 L 182.0 182.0 " stroke="black" fill="none" stroke-width="5.0" stroke-linecap="round" stroke-linejoin="round" />
<path d="M 143.0 190.0 L 143.0 190.0 L 144.0 190.0 L 146.0 190.0 L 150.0 189.0 L 161.0 188.0 L 174.0 187.0 L 181.0 187.0 " stroke="black" fill="none" stroke-width="5.0" stroke-linecap="round" stroke-linejoin="round" />
<path d="M 148.0 193.0 L 148.0 194.0 L 148.0 197.0 L 150.0 201.0 L 150.0 203.0 " stroke="black" fill="none" stroke-width="5.0" stroke-linecap="round" stroke-linejoin="round" />
<path d="M 175.0 192.0 L 175.0 193.0 L 174.0 194.0 L 173.0 197.0 L 172.0 202.0 L 169.0 208.0 " stroke="black" fill="none" stroke-width="5.0" stroke-linecap="round" stroke-linejoin="round" />
<path d="M 128.0 220.0 L 129.0 220.0 L 131.0 219.0 L 139.0 217.0 L 155.0 215.0 L 174.0 214.0 L 190.0 214.0 L 196.0 214.0 L 197.0 215.0 L 197.0 215.0 L 196.0 215.0 L 194.0 215.0 " stroke="black" fill="none" stroke-width="5.0" stroke-linecap="round" stroke-linejoin="round" />
</svg>