<svg xmlns="http://www.w3.org/2000/svg" width="300" height="300" viewBox="0 0 300 300">
<path d="M 152.0 100.0 L 152.0 100.0 L 152.0 101.0 L 152.0 102.0 L 152.0 106.0 L 152.0 112.0 L 152.0 117.0 " stroke="black" fill="none" stroke-width="5.0" stroke-linecap="round" stroke-linejoin="round" />
<path d="M 139.0 105.0 L 139.0 105.0 L 139.0 106.0 L 141.0 109.0 L 143.0 112.0 L 144.0 113.0 " stroke="black" fill="none" stroke-width="5.0" stroke-linecap="round" stroke-linejoin="round" />
<path d="M 172.0 105.0 L 172.0 106.0 L 171.0 106.0 L 171.0 108.0 L 170.0 111.0 L 167.0 114.0 L 166.0 115.0 " stroke="black" fill="none" stroke-width="5.0" stroke-linecap="round" stroke-linejoin="round" />
<path d="M 125.0 124.0 L 125.0 124.0 L 125.0 125.0 L 125.0 126.0 L 126.0 129.0 L 127.0 134.0 L 128.0 138.0 L 128.0 139.0 " stroke="black" fill="none" stroke-width="5.0" stroke-linecap="round" stroke-linejoin="round" />
<path d="M 126.0 124.0 L 127.0 124.0 L 128.0 124.0 L 130.0 124.0 L 134.0 124.0 L 143.0 122.0 L 153.0 120.0 L 164.0 118.0 L 172.0 118.0 L 178.0 118.0 L 182.0 119.0 L 184.0 120.0 L 185.0 123.0 L 186.0 127.0 L 186.0 133.0 L 187.0 138.0 " stroke="black" fill="none" stroke-width="5.0" stroke-linecap="round" stroke-linejoin="round" />
<path d="M 145.0 135.0 L 145.0 135.0 L 145.0 135.0 L 145.0 135.0 L 145.0 135.0 L 145.0 137.0 L 146.0 140.0 L 147.0 142.0 " stroke="black" fill="none" stroke-width="5.0" stroke-linecap="round" stroke-linejoin="round" />
<path d="M 147.0 135.0 L 147.0 135.0 L 147.0 135.0 L 148.0 134.0 L 149.0 134.0 L 152.0 134.0 L 157.0 133.0 L 162.0 133.0 L 165.0 135.0 L 167.0 138.0 L 167.0 142.0 L 167.0 144.0 " stroke="black" fill="none" stroke-width="5.0" stroke-linecap="round" stroke-linejoin="round" />
<path d="M 149.0 146.0 L 149.0 146.0 L 150.0 146.0 L 151.0 146.0 L 154.0 146.0 L 158.0 146.0 L 162.0 146.0 " stroke="black" fill="none" stroke-width="5.0" stroke-linecap="round" stroke-linejoin="round" />
<path d="M 142.0 159.0 L 142.0 159.0 L 142.0 159.0 L 142.0 159.0 L 143.0 159.0 L 147.0 159.0 L 153.0 159.0 L 160.0 158.0 L 166.0 158.0 L 169.0 158.0 L 171.0 158.0 L 172.0 158.0 L 173.0 158.0 L 174.0 160.0 L 176.0 165.0 L 178.0 173.0 L 179.0 182.0 L 180.0 189.0 L 181.0 192.0 " stroke="black" fill="none" stroke-width="5.0" stroke-linecap="round" stroke-linejoin="round" />
<path d="M 139.0 161.0 L 139.0 161.0 L 138.0 162.0 L 137.0 164.0 L 137.0 169.0 L 137.0 178.0 L 137.0 188.0 L 138.0 193.0 L 138.0 194.0 " stroke="black" fill="none" stroke-width="5.0" stroke-linecap="round" stroke-linejoin="round" />
<path d="M 139.0 170.0 L 139.0 170.0 L 139.0 170.0 L 139.0 170.0 L 142.0 170.0 L 149.0 171.0 L 159.0 172.0 L 167.0 172.0 L 170.0 172.0 L 170.0 172.0 " stroke="black" fill="none" stroke-width="5.0" stroke-linecap="round" stroke-linejoin="round" />
<path d="M 143.0 183.0 L 143.0 183.0 L 144.0 183.0 L 146.0 183.0 L 150.0 183.0 L 156.0 183.0 L 162.0 183.0 L 165.0 183.0 " stroke="black" fill="none" stroke-width="5.0" stroke-linecap="round" stroke-linejoin="round" />
<path d="M 138.0 196.0 L 139.0 196.0 L 142.0 197.0 L 147.0 197.0 L 154.0 197.0 L 162.0 197.0 L 167.0 197.0 L 168.0 197.0 " stroke="black" fill="none" stroke-width="5.0" stroke-linecap="round" stroke-linejoin="round" />
<path d="M 151.0 200.0 L 151.0 200.0 L 151.0 200.0 L 150.0 200.0 L 150.0 201.0 L 148.0 205.0 L 146.0 211.0 " stroke="black" fill="none" stroke-width="5.0" stroke-linecap="round" stroke-linejoin="round" />
<path d="M 165.0 199.0 L 165.0 199.0 L 167.0 201.0 L 170.0 203.0 L 173.0 208.0 L 176.0 212.0 " stroke="black" fill="none" stroke-width="5.0" stroke-linecap="round" stroke-linejoin="round" />
</svg>