<svg xmlns="http://www.w3.org/2000/svg" width="300" height="300" viewBox="0 0 300 300">
<path d="M 112.0 118.0 L 112.0 118.0 L 112.0 118.0 L 112.0 119.0 L 111.0 122.0 L 111.0 128.0 L 111.0 143.0 L 110.0 163.0 L 109.0 174.0 L 109.0 176.0 " stroke="black" fill="none" stroke-width="5.0" stroke-linecap="round" stroke-linejoin="round" />
<path d="M 113.0 120.0 L 114.0 120.0 L 115.0 120.0 L 116.0 120.0 L 119.0 120.0 L 121.0 120.0 L 124.0 120.0 L 126.0 120.0 L 128.0 120.0 L 129.0 124.0 L 130.0 132.0 L 132.0 145.0 L 135.0 159.0 L 137.0 170.0 L 138.0 175.0 L 138.0 176.0 " stroke="black" fill="none" stroke-width="5.0" stroke-linecap="round" stroke-linejoin="round" />
<path d="M 114.0 142.0 L 114.0 142.0 L 114.0 142.0 L 114.0 143.0 L 119.0 143.0 L 125.0 143.0 L 129.0 143.0 " stroke="black" fill="none" stroke-width="5.0" stroke-linecap="round" stroke-linejoin="round" />
<path d="M 112.0 157.0 L 113.0 157.0 L 114.0 158.0 L 118.0 159.0 L 123.0 159.0 L 129.0 159.0 L 130.0 163.0 " stroke="black" fill="none" stroke-width="5.0" stroke-linecap="round" stroke-linejoin="round" />
<path d="M 110.0 178.0 L 113.0 179.0 L 117.0 180.0 L 122.0 180.0 L 128.0 180.0 L 131.0 180.0 " stroke="black" fill="none" stroke-width="5.0" stroke-linecap="round" stroke-linejoin="round" />
<path d="M 117.0 183.0 L 118.0 183.0 L 118.0 184.0 L 118.0 186.0 L 117.0 189.0 L 115.0 193.0 L 113.0 196.0 L 113.0 196.0 " stroke="black" fill="none" stroke-width="5.0" stroke-linecap="round" stroke-linejoin="round" />
<path d="M 124.0 183.0 L 125.0 183.0 L 127.0 185.0 L 129.0 189.0 L 133.0 194.0 L 134.0 197.0 " stroke="black" fill="none" stroke-width="5.0" stroke-linecap="round" stroke-linejoin="round" />
<path d="M 146.0 135.0 L 146.0 135.0 L 146.0 135.0 L 146.0 136.0 L 150.0 137.0 L 159.0 137.0 L 171.0 135.0 L 179.0 135.0 L 181.0 135.0 " stroke="black" fill="none" stroke-width="5.0" stroke-linecap="round" stroke-linejoin="round" />
<path d="M 163.0 115.0 L 163.0 119.0 L 164.0 129.0 L 169.0 149.0 L 177.0 172.0 L 184.0 191.0 L 189.0 201.0 L 192.0 203.0 " stroke="black" fill="none" stroke-width="5.0" stroke-linecap="round" stroke-linejoin="round" />
<path d="M 193.0 166.0 L 192.0 166.0 L 190.0 168.0 L 187.0 170.0 L 181.0 176.0 L 172.0 186.0 L 166.0 191.0 " stroke="black" fill="none" stroke-width="5.0" stroke-linecap="round" stroke-linejoin="round" />
<path d="M 149.0 168.0 L 149.0 168.0 L 149.0 168.0 L 150.0 169.0 L 152.0 169.0 L 156.0 169.0 L 163.0 169.0 L 164.0 169.0 " stroke="black" fill="none" stroke-width="5.0" stroke-linecap="round" stroke-linejoin="round" />
<path d="M 155.0 153.0 L 155.0 153.0 L 155.0 153.0 L 155.0 155.0 L 156.0 165.0 L 156.0 180.0 L 154.0 190.0 " stroke="black" fill="none" stroke-width="5.0" stroke-linecap="round" stroke-linejoin="round" />
<path d="M 185.0 120.0 L 186.0 123.0 L 189.0 129.0 L 192.0 135.0 " stroke="black" fill="none" stroke-width="5.0" stroke-linecap="round" stroke-linejoin="round" />
</svg>