<svg xmlns="http://www.w3.org/2000/svg" width="300" height="300" viewBox="0 0 300 300">
<path d="M 114.0 117.0 L 114.0 117.0 L 114.0 117.0 L 114.0 117.0 L 114.0 117.0 L 114.0 118.0 L 114.0 120.0 L 114.0 130.0 L 114.0 148.0 L 114.0 165.0 L 114.0 175.0 L 116.0 178.0 L 117.0 178.0 " stroke="black" fill="none" stroke-width="5.0" stroke-linecap="round" stroke-linejoin="round" />
<path d="M 117.0 120.0 L 117.0 120.0 L 116.0 120.0 L 117.0 120.0 L 119.0 120.0 L 122.0 120.0 L 125.0 121.0 L 128.0 123.0 L 130.0 129.0 L 134.0 141.0 L 136.0 155.0 L 138.0 167.0 L 139.0 175.0 L 139.0 180.0 L 139.0 180.0 " stroke="black" fill="none" stroke-width="5.0" stroke-linecap="round" stroke-linejoin="round" />
<path d="M 121.0 143.0 L 121.0 143.0 L 121.0 143.0 L 121.0 143.0 L 122.0 143.0 L 125.0 143.0 L 129.0 143.0 L 132.0 143.0 " stroke="black" fill="none" stroke-width="5.0" stroke-linecap="round" stroke-linejoin="round" />
<path d="M 121.0 157.0 L 122.0 158.0 L 124.0 158.0 L 128.0 159.0 L 132.0 159.0 L 134.0 159.0 " stroke="black" fill="none" stroke-width="5.0" stroke-linecap="round" stroke-linejoin="round" />
<path d="M 118.0 179.0 L 118.0 179.0 L 118.0 179.0 L 118.0 179.0 L 118.0 180.0 L 118.0 180.0 L 120.0 181.0 L 125.0 181.0 L 135.0 181.0 L 141.0 181.0 " stroke="black" fill="none" stroke-width="5.0" stroke-linecap="round" stroke-linejoin="round" />
<path d="M 122.0 187.0 L 122.0 187.0 L 122.0 187.0 L 121.0 189.0 L 119.0 192.0 L 118.0 197.0 L 118.0 198.0 " stroke="black" fill="none" stroke-width="5.0" stroke-linecap="round" stroke-linejoin="round" />
<path d="M 131.0 183.0 L 131.0 183.0 L 132.0 184.0 L 133.0 187.0 L 136.0 193.0 L 137.0 196.0 " stroke="black" fill="none" stroke-width="5.0" stroke-linecap="round" stroke-linejoin="round" />
<path d="M 148.0 113.0 L 148.0 113.0 L 147.0 113.0 L 147.0 113.0 L 147.0 113.0 L 147.0 115.0 L 148.0 122.0 L 149.0 128.0 " stroke="black" fill="none" stroke-width="5.0" stroke-linecap="round" stroke-linejoin="round" />
<path d="M 152.0 108.0 L 152.0 108.0 L 152.0 108.0 L 152.0 108.0 L 154.0 108.0 L 159.0 108.0 L 166.0 108.0 L 173.0 108.0 L 178.0 109.0 L 182.0 111.0 L 185.0 116.0 L 186.0 121.0 L 187.0 126.0 L 187.0 131.0 L 187.0 132.0 " stroke="black" fill="none" stroke-width="5.0" stroke-linecap="round" stroke-linejoin="round" />
<path d="M 154.0 120.0 L 154.0 120.0 L 155.0 120.0 L 156.0 120.0 L 160.0 120.0 L 169.0 120.0 L 178.0 120.0 L 183.0 121.0 L 185.0 122.0 " stroke="black" fill="none" stroke-width="5.0" stroke-linecap="round" stroke-linejoin="round" />
<path d="M 152.0 134.0 L 152.0 134.0 L 153.0 134.0 L 155.0 134.0 L 163.0 135.0 L 174.0 135.0 L 183.0 136.0 " stroke="black" fill="none" stroke-width="5.0" stroke-linecap="round" stroke-linejoin="round" />
<path d="M 157.0 142.0 L 157.0 142.0 L 157.0 143.0 L 156.0 144.0 L 155.0 146.0 L 154.0 151.0 L 151.0 158.0 L 150.0 161.0 " stroke="black" fill="none" stroke-width="5.0" stroke-linecap="round" stroke-linejoin="round" />
<path d="M 155.0 153.0 L 155.0 153.0 L 156.0 153.0 L 158.0 153.0 L 162.0 153.0 L 169.0 153.0 L 175.0 153.0 L 181.0 153.0 L 186.0 154.0 L 189.0 157.0 L 191.0 164.0 L 193.0 176.0 L 194.0 188.0 L 194.0 196.0 L 194.0 201.0 L 193.0 203.0 L 190.0 203.0 L 184.0 201.0 L 178.0 197.0 " stroke="black" fill="none" stroke-width="5.0" stroke-linecap="round" stroke-linejoin="round" />
<path d="M 163.0 156.0 L 163.0 156.0 L 163.0 156.0 L 163.0 156.0 L 163.0 156.0 L 162.0 162.0 L 159.0 173.0 L 155.0 183.0 L 154.0 185.0 " stroke="black" fill="none" stroke-width="5.0" stroke-linecap="round" stroke-linejoin="round" />
<path d="M 177.0 155.0 L 178.0 155.0 L 178.0 156.0 L 178.0 158.0 L 178.0 165.0 L 177.0 178.0 L 171.0 195.0 L 166.0 202.0 " stroke="black" fill="none" stroke-width="5.0" stroke-linecap="round" stroke-linejoin="round" />
</svg>