<svg xmlns="http://www.w3.org/2000/svg" width="300" height="300" viewBox="0 0 300 300">
<path d="M 117.0 114.0 L 117.0 114.0 L 117.0 114.0 L 116.0 114.0 L 116.0 117.0 L 116.0 124.0 L 116.0 137.0 L 115.0 151.0 L 115.0 162.0 L 115.0 168.0 L 115.0 169.0 L 115.0 168.0 L 115.0 166.0 " stroke="black" fill="none" stroke-width="5.0" stroke-linecap="round" stroke-linejoin="round" />
<path d="M 120.0 114.0 L 120.0 114.0 L 120.0 114.0 L 120.0 114.0 L 122.0 114.0 L 126.0 114.0 L 130.0 114.0 L 133.0 115.0 L 135.0 116.0 L 136.0 118.0 L 137.0 122.0 L 138.0 133.0 L 138.0 148.0 L 139.0 163.0 L 140.0 171.0 L 140.0 175.0 L 140.0 175.0 L 140.0 174.0 " stroke="black" fill="none" stroke-width="5.0" stroke-linecap="round" stroke-linejoin="round" />
<path d="M 121.0 137.0 L 121.0 137.0 L 121.0 137.0 L 121.0 137.0 L 124.0 137.0 L 128.0 138.0 L 133.0 139.0 L 137.0 140.0 L 138.0 140.0 " stroke="black" fill="none" stroke-width="5.0" stroke-linecap="round" stroke-linejoin="round" />
<path d="M 119.0 153.0 L 119.0 153.0 L 119.0 153.0 L 119.0 153.0 L 120.0 154.0 L 123.0 154.0 L 127.0 154.0 L 132.0 154.0 L 133.0 154.0 " stroke="black" fill="none" stroke-width="5.0" stroke-linecap="round" stroke-linejoin="round" />
<path d="M 116.0 172.0 L 116.0 172.0 L 117.0 172.0 L 119.0 172.0 L 123.0 172.0 L 129.0 173.0 L 135.0 173.0 L 136.0 173.0 " stroke="black" fill="none" stroke-width="5.0" stroke-linecap="round" stroke-linejoin="round" />
<path d="M 123.0 173.0 L 123.0 173.0 L 123.0 173.0 L 122.0 173.0 L 122.0 175.0 L 122.0 179.0 L 122.0 184.0 L 121.0 189.0 " stroke="black" fill="none" stroke-width="5.0" stroke-linecap="round" stroke-linejoin="round" />
<path d="M 130.0 180.0 L 130.0 180.0 L 130.0 180.0 L 131.0 180.0 L 134.0 183.0 L 137.0 188.0 L 140.0 192.0 " stroke="black" fill="none" stroke-width="5.0" stroke-linecap="round" stroke-linejoin="round" />
<path d="M 150.0 131.0 L 150.0 131.0 L 150.0 132.0 L 150.0 132.0 L 153.0 133.0 L 162.0 133.0 L 175.0 133.0 L 184.0 133.0 L 187.0 133.0 L 187.0 133.0 " stroke="black" fill="none" stroke-width="5.0" stroke-linecap="round" stroke-linejoin="round" />
<path d="M 169.0 115.0 L 169.0 115.0 L 169.0 117.0 L 169.0 120.0 L 170.0 130.0 L 174.0 147.0 L 178.0 167.0 L 182.0 183.0 L 185.0 189.0 L 190.0 190.0 L 193.0 187.0 L 195.0 180.0 L 195.0 178.0 " stroke="black" fill="none" stroke-width="5.0" stroke-linecap="round" stroke-linejoin="round" />
<path d="M 157.0 144.0 L 157.0 144.0 L 157.0 144.0 L 156.0 144.0 L 156.0 146.0 L 156.0 153.0 L 157.0 166.0 L 157.0 175.0 L 158.0 178.0 " stroke="black" fill="none" stroke-width="5.0" stroke-linecap="round" stroke-linejoin="round" />
<path d="M 158.0 159.0 L 158.0 159.0 L 159.0 159.0 L 159.0 159.0 L 161.0 159.0 L 164.0 159.0 L 168.0 159.0 " stroke="black" fill="none" stroke-width="5.0" stroke-linecap="round" stroke-linejoin="round" />
<path d="M 148.0 155.0 L 148.0 155.0 L 148.0 155.0 L 148.0 157.0 L 148.0 161.0 L 148.0 169.0 L 148.0 171.0 " stroke="black" fill="none" stroke-width="5.0" stroke-linecap="round" stroke-linejoin="round" />
<path d="M 143.0 185.0 L 143.0 185.0 L 143.0 185.0 L 146.0 185.0 L 154.0 184.0 L 160.0 183.0 " stroke="black" fill="none" stroke-width="5.0" stroke-linecap="round" stroke-linejoin="round" />
<path d="M 154.0 120.0 L 154.0 120.0 L 154.0 121.0 L 154.0 121.0 L 154.0 121.0 L 158.0 121.0 L 160.0 121.0 " stroke="black" fill="none" stroke-width="5.0" stroke-linecap="round" stroke-linejoin="round" />
<path d="M 190.0 114.0 L 190.0 116.0 L 191.0 119.0 L 192.0 122.0 L 195.0 125.0 L 196.0 126.0 " stroke="black" fill="none" stroke-width="5.0" stroke-linecap="round" stroke-linejoin="round" />
</svg>