<svg xmlns="http://www.w3.org/2000/svg" width="300" height="300" viewBox="0 0 300 300">
<path d="M 110.0 116.0 L 110.0 116.0 L 110.0 116.0 L 110.0 116.0 L 110.0 115.0 L 110.0 115.0 L 110.0 116.0 L 110.0 120.0 L 110.0 131.0 L 109.0 152.0 L 108.0 170.0 L 108.0 176.0 " stroke="black" fill="none" stroke-width="5.0" stroke-linecap="round" stroke-linejoin="round" />
<path d="M 115.0 119.0 L 115.0 119.0 L 115.0 119.0 L 115.0 120.0 L 115.0 120.0 L 116.0 120.0 L 119.0 120.0 L 122.0 120.0 L 124.0 120.0 L 126.0 120.0 L 128.0 120.0 L 130.0 126.0 L 131.0 137.0 L 132.0 151.0 L 133.0 162.0 L 134.0 169.0 L 134.0 170.0 L 134.0 170.0 " stroke="black" fill="none" stroke-width="5.0" stroke-linecap="round" stroke-linejoin="round" />
<path d="M 116.0 138.0 L 116.0 138.0 L 116.0 138.0 L 116.0 138.0 L 116.0 138.0 L 118.0 138.0 L 122.0 138.0 L 128.0 138.0 L 130.0 138.0 " stroke="black" fill="none" stroke-width="5.0" stroke-linecap="round" stroke-linejoin="round" />
<path d="M 114.0 153.0 L 114.0 153.0 L 115.0 153.0 L 117.0 154.0 L 122.0 154.0 L 128.0 154.0 L 131.0 154.0 " stroke="black" fill="none" stroke-width="5.0" stroke-linecap="round" stroke-linejoin="round" />
<path d="M 111.0 174.0 L 111.0 174.0 L 111.0 175.0 L 112.0 175.0 L 116.0 175.0 L 123.0 175.0 L 129.0 174.0 L 130.0 174.0 " stroke="black" fill="none" stroke-width="5.0" stroke-linecap="round" stroke-linejoin="round" />
<path d="M 120.0 174.0 L 120.0 174.0 L 120.0 173.0 L 120.0 173.0 L 120.0 173.0 L 119.0 177.0 L 117.0 183.0 L 114.0 189.0 " stroke="black" fill="none" stroke-width="5.0" stroke-linecap="round" stroke-linejoin="round" />
<path d="M 127.0 176.0 L 128.0 176.0 L 130.0 177.0 L 132.0 180.0 L 134.0 184.0 " stroke="black" fill="none" stroke-width="5.0" stroke-linecap="round" stroke-linejoin="round" />
<path d="M 145.0 127.0 L 145.0 127.0 L 145.0 127.0 L 146.0 127.0 L 150.0 127.0 L 157.0 124.0 L 165.0 122.0 L 170.0 121.0 L 170.0 121.0 " stroke="black" fill="none" stroke-width="5.0" stroke-linecap="round" stroke-linejoin="round" />
<path d="M 155.0 110.0 L 155.0 110.0 L 155.0 110.0 L 155.0 111.0 L 157.0 119.0 L 163.0 136.0 L 169.0 149.0 L 173.0 154.0 L 174.0 154.0 " stroke="black" fill="none" stroke-width="5.0" stroke-linecap="round" stroke-linejoin="round" />
<path d="M 176.0 131.0 L 174.0 132.0 L 170.0 134.0 L 165.0 138.0 L 158.0 144.0 L 152.0 149.0 " stroke="black" fill="none" stroke-width="5.0" stroke-linecap="round" stroke-linejoin="round" />
<path d="M 170.0 110.0 L 171.0 110.0 L 172.0 111.0 L 173.0 114.0 L 174.0 118.0 " stroke="black" fill="none" stroke-width="5.0" stroke-linecap="round" stroke-linejoin="round" />
<path d="M 149.0 169.0 L 149.0 169.0 L 149.0 169.0 L 149.0 170.0 L 149.0 170.0 L 154.0 171.0 L 166.0 169.0 L 178.0 166.0 L 184.0 164.0 " stroke="black" fill="none" stroke-width="5.0" stroke-linecap="round" stroke-linejoin="round" />
<path d="M 160.0 157.0 L 160.0 157.0 L 160.0 158.0 L 161.0 164.0 L 166.0 176.0 L 172.0 185.0 L 176.0 190.0 " stroke="black" fill="none" stroke-width="5.0" stroke-linecap="round" stroke-linejoin="round" />
<path d="M 179.0 173.0 L 179.0 173.0 L 177.0 175.0 L 175.0 175.0 L 172.0 177.0 L 167.0 181.0 L 160.0 187.0 L 158.0 188.0 " stroke="black" fill="none" stroke-width="5.0" stroke-linecap="round" stroke-linejoin="round" />
<path d="M 183.0 154.0 L 184.0 156.0 L 186.0 158.0 L 187.0 159.0 " stroke="black" fill="none" stroke-width="5.0" stroke-linecap="round" stroke-linejoin="round" />
</svg>