<svg xmlns="http://www.w3.org/2000/svg" width="300" height="300" viewBox="0 0 300 300">
<path d="M 123.0 126.0 L 123.0 126.0 L 122.0 126.0 L 122.0 126.0 L 121.0 126.0 L 124.0 126.0 L 132.0 126.0 L 139.0 126.0 " stroke="black" fill="none" stroke-width="5.0" stroke-linecap="round" stroke-linejoin="round" />
<path d="M 117.0 144.0 L 117.0 144.0 L 117.0 144.0 L 117.0 144.0 L 117.0 147.0 L 118.0 152.0 L 118.0 155.0 L 118.0 156.0 " stroke="black" fill="none" stroke-width="5.0" stroke-linecap="round" stroke-linejoin="round" />
<path d="M 118.0 142.0 L 118.0 141.0 L 119.0 141.0 L 119.0 140.0 L 122.0 139.0 L 128.0 138.0 L 136.0 138.0 L 143.0 138.0 L 146.0 140.0 L 147.0 145.0 L 147.0 149.0 L 147.0 152.0 " stroke="black" fill="none" stroke-width="5.0" stroke-linecap="round" stroke-linejoin="round" />
<path d="M 118.0 156.0 L 118.0 156.0 L 119.0 157.0 L 124.0 157.0 L 135.0 157.0 L 145.0 155.0 " stroke="black" fill="none" stroke-width="5.0" stroke-linecap="round" stroke-linejoin="round" />
<path d="M 131.0 117.0 L 131.0 118.0 L 131.0 120.0 L 132.0 130.0 L 133.0 152.0 L 133.0 176.0 L 133.0 194.0 L 134.0 200.0 L 134.0 200.0 " stroke="black" fill="none" stroke-width="5.0" stroke-linecap="round" stroke-linejoin="round" />
<path d="M 134.0 163.0 L 133.0 164.0 L 130.0 166.0 L 127.0 169.0 L 122.0 175.0 L 115.0 185.0 L 110.0 191.0 " stroke="black" fill="none" stroke-width="5.0" stroke-linecap="round" stroke-linejoin="round" />
<path d="M 134.0 167.0 L 135.0 168.0 L 139.0 171.0 L 145.0 176.0 L 152.0 181.0 L 154.0 183.0 " stroke="black" fill="none" stroke-width="5.0" stroke-linecap="round" stroke-linejoin="round" />
<path d="M 153.0 112.0 L 153.0 112.0 L 153.0 112.0 L 154.0 112.0 L 158.0 112.0 L 163.0 112.0 L 167.0 113.0 L 170.0 114.0 L 172.0 118.0 L 175.0 125.0 L 177.0 134.0 L 178.0 141.0 L 178.0 144.0 L 176.0 144.0 L 173.0 144.0 L 167.0 143.0 L 165.0 143.0 " stroke="black" fill="none" stroke-width="5.0" stroke-linecap="round" stroke-linejoin="round" />
<path d="M 162.0 119.0 L 162.0 119.0 L 162.0 119.0 L 162.0 119.0 L 160.0 125.0 L 156.0 138.0 L 155.0 141.0 " stroke="black" fill="none" stroke-width="5.0" stroke-linecap="round" stroke-linejoin="round" />
<path d="M 152.0 152.0 L 152.0 152.0 L 153.0 152.0 L 154.0 151.0 L 157.0 150.0 L 163.0 149.0 L 170.0 149.0 L 176.0 149.0 L 180.0 149.0 L 182.0 149.0 L 182.0 151.0 L 183.0 155.0 L 185.0 163.0 L 186.0 171.0 L 188.0 179.0 L 189.0 183.0 L 189.0 183.0 " stroke="black" fill="none" stroke-width="5.0" stroke-linecap="round" stroke-linejoin="round" />
<path d="M 154.0 153.0 L 154.0 154.0 L 154.0 158.0 L 154.0 166.0 L 155.0 178.0 L 156.0 187.0 " stroke="black" fill="none" stroke-width="5.0" stroke-linecap="round" stroke-linejoin="round" />
<path d="M 159.0 164.0 L 159.0 164.0 L 160.0 164.0 L 164.0 164.0 L 172.0 163.0 L 179.0 161.0 L 184.0 161.0 L 184.0 161.0 " stroke="black" fill="none" stroke-width="5.0" stroke-linecap="round" stroke-linejoin="round" />
<path d="M 157.0 175.0 L 157.0 175.0 L 157.0 175.0 L 160.0 175.0 L 167.0 175.0 L 177.0 174.0 L 182.0 174.0 L 183.0 174.0 " stroke="black" fill="none" stroke-width="5.0" stroke-linecap="round" stroke-linejoin="round" />
<path d="M 157.0 188.0 L 158.0 189.0 L 161.0 190.0 L 168.0 191.0 L 178.0 188.0 L 184.0 186.0 L 185.0 186.0 " stroke="black" fill="none" stroke-width="5.0" stroke-linecap="round" stroke-linejoin="round" />
<path d="M 168.0 190.0 L 167.0 191.0 L 165.0 193.0 L 163.0 197.0 L 161.0 204.0 L 157.0 211.0 L 156.0 213.0 " stroke="black" fill="none" stroke-width="5.0" stroke-linecap="round" stroke-linejoin="round" />
<path d="M 177.0 190.0 L 177.0 190.0 L 178.0 193.0 L 182.0 202.0 L 189.0 217.0 L 193.0 225.0 " stroke="black" fill="none" stroke-width="5.0" stroke-linecap="round" stroke-linejoin="round" />
</svg>