<svg xmlns="http://www.w3.org/2000/svg" width="300" height="300" viewBox="0 0 300 300">
<path d="M 117.0 129.0 L 119.0 129.0 L 120.0 129.0 L 122.0 129.0 L 126.0 129.0 L 131.0 129.0 L 136.0 129.0 " stroke="black" fill="none" stroke-width="5.0" stroke-linecap="round" stroke-linejoin="round" />
<path d="M 109.0 150.0 L 109.0 150.0 L 109.0 150.0 L 109.0 150.0 L 111.0 150.0 L 120.0 150.0 L 131.0 150.0 L 141.0 149.0 " stroke="black" fill="none" stroke-width="5.0" stroke-linecap="round" stroke-linejoin="round" />
<path d="M 124.0 119.0 L 124.0 119.0 L 124.0 120.0 L 124.0 123.0 L 124.0 130.0 L 126.0 141.0 L 127.0 151.0 L 128.0 160.0 L 128.0 168.0 L 128.0 175.0 L 128.0 181.0 L 127.0 184.0 L 127.0 184.0 L 127.0 184.0 " stroke="black" fill="none" stroke-width="5.0" stroke-linecap="round" stroke-linejoin="round" />
<path d="M 131.0 169.0 L 131.0 169.0 L 132.0 169.0 L 132.0 169.0 L 135.0 169.0 L 139.0 169.0 L 143.0 169.0 L 145.0 169.0 " stroke="black" fill="none" stroke-width="5.0" stroke-linecap="round" stroke-linejoin="round" />
<path d="M 113.0 166.0 L 113.0 166.0 L 113.0 166.0 L 113.0 166.0 L 114.0 167.0 L 114.0 174.0 L 112.0 183.0 L 110.0 192.0 L 109.0 194.0 " stroke="black" fill="none" stroke-width="5.0" stroke-linecap="round" stroke-linejoin="round" />
<path d="M 114.0 184.0 L 115.0 184.0 L 115.0 184.0 L 118.0 184.0 L 126.0 186.0 L 141.0 191.0 L 159.0 195.0 L 175.0 198.0 L 184.0 199.0 L 188.0 199.0 " stroke="black" fill="none" stroke-width="5.0" stroke-linecap="round" stroke-linejoin="round" />
<path d="M 167.0 114.0 L 167.0 114.0 L 167.0 114.0 L 167.0 114.0 L 167.0 115.0 L 168.0 123.0 L 170.0 135.0 L 170.0 144.0 L 170.0 145.0 " stroke="black" fill="none" stroke-width="5.0" stroke-linecap="round" stroke-linejoin="round" />
<path d="M 156.0 129.0 L 156.0 129.0 L 156.0 129.0 L 156.0 129.0 L 158.0 132.0 L 160.0 133.0 " stroke="black" fill="none" stroke-width="5.0" stroke-linecap="round" stroke-linejoin="round" />
<path d="M 183.0 131.0 L 183.0 131.0 L 182.0 131.0 L 182.0 133.0 L 180.0 136.0 L 178.0 142.0 L 177.0 143.0 " stroke="black" fill="none" stroke-width="5.0" stroke-linecap="round" stroke-linejoin="round" />
<path d="M 156.0 150.0 L 155.0 150.0 L 154.0 150.0 L 154.0 151.0 L 154.0 157.0 L 155.0 169.0 L 156.0 181.0 L 157.0 187.0 L 157.0 189.0 " stroke="black" fill="none" stroke-width="5.0" stroke-linecap="round" stroke-linejoin="round" />
<path d="M 156.0 151.0 L 156.0 151.0 L 156.0 150.0 L 157.0 149.0 L 160.0 148.0 L 164.0 147.0 L 170.0 147.0 L 176.0 147.0 L 180.0 148.0 L 184.0 151.0 L 187.0 156.0 L 189.0 165.0 L 191.0 175.0 L 192.0 183.0 L 193.0 188.0 L 192.0 189.0 L 190.0 190.0 L 186.0 190.0 L 179.0 188.0 " stroke="black" fill="none" stroke-width="5.0" stroke-linecap="round" stroke-linejoin="round" />
<path d="M 160.0 157.0 L 160.0 157.0 L 161.0 157.0 L 162.0 157.0 L 167.0 157.0 L 173.0 157.0 L 179.0 157.0 L 182.0 158.0 L 183.0 159.0 L 183.0 159.0 " stroke="black" fill="none" stroke-width="5.0" stroke-linecap="round" stroke-linejoin="round" />
<path d="M 159.0 171.0 L 160.0 171.0 L 163.0 171.0 L 171.0 171.0 L 182.0 171.0 L 186.0 171.0 " stroke="black" fill="none" stroke-width="5.0" stroke-linecap="round" stroke-linejoin="round" />
</svg>