<svg xmlns="http://www.w3.org/2000/svg" width="300" height="300" viewBox="0 0 300 300">
<path d="M 126.0 103.0 L 126.0 103.0 L 126.0 103.0 L 126.0 103.0 L 126.0 106.0 L 124.0 112.0 L 120.0 120.0 " stroke="black" fill="none" stroke-width="5.0" stroke-linecap="round" stroke-linejoin="round" />
<path d="M 126.0 114.0 L 128.0 114.0 L 130.0 114.0 L 133.0 113.0 L 137.0 113.0 L 142.0 112.0 L 142.0 112.0 " stroke="black" fill="none" stroke-width="5.0" stroke-linecap="round" stroke-linejoin="round" />
<path d="M 118.0 130.0 L 119.0 130.0 L 121.0 129.0 L 128.0 127.0 L 138.0 125.0 L 148.0 124.0 L 151.0 124.0 " stroke="black" fill="none" stroke-width="5.0" stroke-linecap="round" stroke-linejoin="round" />
<path d="M 138.0 106.0 L 138.0 106.0 L 138.0 106.0 L 137.0 106.0 L 137.0 111.0 L 137.0 114.0 " stroke="black" fill="none" stroke-width="5.0" stroke-linecap="round" stroke-linejoin="round" />
<path d="M 130.0 127.0 L 130.0 128.0 L 130.0 130.0 L 129.0 132.0 L 128.0 138.0 L 127.0 144.0 " stroke="black" fill="none" stroke-width="5.0" stroke-linecap="round" stroke-linejoin="round" />
<path d="M 142.0 127.0 L 142.0 128.0 L 141.0 128.0 L 140.0 132.0 L 140.0 139.0 L 143.0 146.0 L 148.0 149.0 L 150.0 149.0 " stroke="black" fill="none" stroke-width="5.0" stroke-linecap="round" stroke-linejoin="round" />
<path d="M 163.0 104.0 L 163.0 104.0 L 164.0 103.0 L 164.0 103.0 L 164.0 106.0 L 161.0 113.0 L 158.0 119.0 " stroke="black" fill="none" stroke-width="5.0" stroke-linecap="round" stroke-linejoin="round" />
<path d="M 162.0 114.0 L 162.0 114.0 L 163.0 114.0 L 166.0 113.0 L 172.0 111.0 L 178.0 110.0 L 182.0 111.0 L 183.0 112.0 " stroke="black" fill="none" stroke-width="5.0" stroke-linecap="round" stroke-linejoin="round" />
<path d="M 152.0 131.0 L 153.0 131.0 L 154.0 131.0 L 159.0 130.0 L 170.0 127.0 L 182.0 125.0 L 186.0 125.0 " stroke="black" fill="none" stroke-width="5.0" stroke-linecap="round" stroke-linejoin="round" />
<path d="M 172.0 107.0 L 172.0 107.0 L 172.0 107.0 L 172.0 110.0 L 172.0 118.0 L 172.0 122.0 " stroke="black" fill="none" stroke-width="5.0" stroke-linecap="round" stroke-linejoin="round" />
<path d="M 165.0 130.0 L 165.0 130.0 L 166.0 130.0 L 166.0 130.0 L 166.0 131.0 L 165.0 134.0 L 162.0 139.0 L 161.0 141.0 " stroke="black" fill="none" stroke-width="5.0" stroke-linecap="round" stroke-linejoin="round" />
<path d="M 178.0 127.0 L 178.0 127.0 L 178.0 128.0 L 178.0 131.0 L 178.0 138.0 L 182.0 145.0 L 188.0 148.0 " stroke="black" fill="none" stroke-width="5.0" stroke-linecap="round" stroke-linejoin="round" />
<path d="M 140.0 159.0 L 140.0 159.0 L 140.0 159.0 L 140.0 159.0 L 141.0 159.0 L 145.0 159.0 L 151.0 160.0 L 159.0 161.0 L 167.0 161.0 L 172.0 161.0 L 174.0 160.0 L 174.0 159.0 L 174.0 162.0 L 175.0 167.0 L 178.0 176.0 L 181.0 185.0 L 182.0 193.0 " stroke="black" fill="none" stroke-width="5.0" stroke-linecap="round" stroke-linejoin="round" />
<path d="M 138.0 166.0 L 138.0 166.0 L 138.0 166.0 L 138.0 167.0 L 138.0 174.0 L 138.0 186.0 L 140.0 192.0 " stroke="black" fill="none" stroke-width="5.0" stroke-linecap="round" stroke-linejoin="round" />
<path d="M 144.0 173.0 L 144.0 173.0 L 144.0 173.0 L 144.0 174.0 L 146.0 174.0 L 153.0 172.0 L 163.0 170.0 L 172.0 170.0 L 176.0 171.0 L 176.0 173.0 " stroke="black" fill="none" stroke-width="5.0" stroke-linecap="round" stroke-linejoin="round" />
<path d="M 146.0 185.0 L 146.0 185.0 L 148.0 185.0 L 151.0 185.0 L 158.0 184.0 L 167.0 184.0 L 173.0 183.0 L 175.0 184.0 " stroke="black" fill="none" stroke-width="5.0" stroke-linecap="round" stroke-linejoin="round" />
<path d="M 140.0 198.0 L 141.0 199.0 L 144.0 199.0 L 149.0 199.0 L 158.0 198.0 L 168.0 197.0 L 174.0 197.0 L 174.0 197.0 " stroke="black" fill="none" stroke-width="5.0" stroke-linecap="round" stroke-linejoin="round" />
<path d="M 155.0 197.0 L 155.0 197.0 L 155.0 197.0 L 155.0 198.0 L 154.0 204.0 L 152.0 214.0 " stroke="black" fill="none" stroke-width="5.0" stroke-linecap="round" stroke-linejoin="round" />
<path d="M 168.0 200.0 L 168.0 201.0 L 168.0 204.0 L 170.0 210.0 L 174.0 217.0 L 177.0 220.0 " stroke="black" fill="none" stroke-width="5.0" stroke-linecap="round" stroke-linejoin="round" />
</svg>