<svg xmlns="http://www.w3.org/2000/svg" width="300" height="300" viewBox="0 0 300 300">
<path d="M 112.0 126.0 L 112.0 127.0 L 112.0 127.0 L 112.0 128.0 L 112.0 132.0 L 112.0 137.0 L 112.0 141.0 L 113.0 143.0 " stroke="black" fill="none" stroke-width="5.0" stroke-linecap="round" stroke-linejoin="round" />
<path d="M 112.0 125.0 L 112.0 125.0 L 112.0 125.0 L 113.0 125.0 L 114.0 125.0 L 116.0 125.0 L 120.0 125.0 L 125.0 125.0 L 129.0 125.0 L 132.0 125.0 L 134.0 127.0 L 135.0 132.0 L 135.0 139.0 L 135.0 144.0 L 134.0 147.0 L 133.0 148.0 " stroke="black" fill="none" stroke-width="5.0" stroke-linecap="round" stroke-linejoin="round" />
<path d="M 113.0 148.0 L 113.0 148.0 L 114.0 148.0 L 114.0 148.0 L 117.0 148.0 L 124.0 148.0 L 131.0 148.0 L 136.0 148.0 " stroke="black" fill="none" stroke-width="5.0" stroke-linecap="round" stroke-linejoin="round" />
<path d="M 125.0 151.0 L 125.0 151.0 L 125.0 151.0 L 125.0 151.0 L 125.0 154.0 L 126.0 163.0 L 126.0 174.0 L 127.0 182.0 L 128.0 185.0 L 128.0 183.0 " stroke="black" fill="none" stroke-width="5.0" stroke-linecap="round" stroke-linejoin="round" />
<path d="M 127.0 165.0 L 127.0 165.0 L 127.0 166.0 L 128.0 166.0 L 131.0 166.0 L 135.0 166.0 L 140.0 166.0 L 143.0 165.0 L 144.0 165.0 " stroke="black" fill="none" stroke-width="5.0" stroke-linecap="round" stroke-linejoin="round" />
<path d="M 115.0 166.0 L 115.0 167.0 L 115.0 171.0 L 115.0 177.0 L 116.0 183.0 L 116.0 186.0 " stroke="black" fill="none" stroke-width="5.0" stroke-linecap="round" stroke-linejoin="round" />
<path d="M 109.0 189.0 L 109.0 189.0 L 110.0 189.0 L 111.0 189.0 L 117.0 190.0 L 126.0 190.0 L 136.0 190.0 L 140.0 190.0 " stroke="black" fill="none" stroke-width="5.0" stroke-linecap="round" stroke-linejoin="round" />
<path d="M 159.0 107.0 L 160.0 107.0 L 161.0 110.0 L 163.0 112.0 L 165.0 115.0 L 167.0 116.0 " stroke="black" fill="none" stroke-width="5.0" stroke-linecap="round" stroke-linejoin="round" />
<path d="M 150.0 119.0 L 150.0 120.0 L 150.0 120.0 L 152.0 120.0 L 159.0 119.0 L 170.0 117.0 L 181.0 116.0 L 188.0 116.0 L 191.0 116.0 L 191.0 116.0 L 191.0 116.0 " stroke="black" fill="none" stroke-width="5.0" stroke-linecap="round" stroke-linejoin="round" />
<path d="M 152.0 122.0 L 152.0 122.0 L 152.0 123.0 L 152.0 124.0 L 152.0 131.0 L 152.0 147.0 L 152.0 167.0 L 150.0 182.0 L 149.0 190.0 L 148.0 192.0 L 148.0 193.0 " stroke="black" fill="none" stroke-width="5.0" stroke-linecap="round" stroke-linejoin="round" />
<path d="M 157.0 135.0 L 157.0 135.0 L 158.0 135.0 L 159.0 135.0 L 160.0 135.0 L 162.0 135.0 L 165.0 134.0 L 168.0 134.0 L 170.0 134.0 L 171.0 134.0 " stroke="black" fill="none" stroke-width="5.0" stroke-linecap="round" stroke-linejoin="round" />
<path d="M 156.0 145.0 L 156.0 145.0 L 157.0 145.0 L 158.0 146.0 L 160.0 146.0 L 164.0 146.0 L 168.0 145.0 L 169.0 145.0 " stroke="black" fill="none" stroke-width="5.0" stroke-linecap="round" stroke-linejoin="round" />
<path d="M 162.0 128.0 L 162.0 128.0 L 163.0 128.0 L 163.0 128.0 L 164.0 130.0 L 164.0 134.0 L 165.0 140.0 L 165.0 143.0 " stroke="black" fill="none" stroke-width="5.0" stroke-linecap="round" stroke-linejoin="round" />
<path d="M 160.0 155.0 L 160.0 155.0 L 160.0 155.0 L 160.0 155.0 L 160.0 155.0 L 160.0 157.0 L 161.0 160.0 L 161.0 162.0 L 162.0 162.0 " stroke="black" fill="none" stroke-width="5.0" stroke-linecap="round" stroke-linejoin="round" />
<path d="M 161.0 154.0 L 161.0 154.0 L 161.0 154.0 L 162.0 154.0 L 164.0 154.0 L 167.0 154.0 L 171.0 154.0 L 174.0 154.0 L 176.0 156.0 L 176.0 159.0 L 176.0 161.0 L 175.0 162.0 L 174.0 162.0 " stroke="black" fill="none" stroke-width="5.0" stroke-linecap="round" stroke-linejoin="round" />
<path d="M 163.0 162.0 L 163.0 162.0 L 163.0 163.0 L 164.0 163.0 L 167.0 164.0 L 170.0 164.0 L 174.0 163.0 " stroke="black" fill="none" stroke-width="5.0" stroke-linecap="round" stroke-linejoin="round" />
<path d="M 161.0 163.0 L 161.0 164.0 L 162.0 165.0 L 163.0 167.0 L 163.0 171.0 L 164.0 176.0 L 165.0 178.0 L 165.0 178.0 " stroke="black" fill="none" stroke-width="5.0" stroke-linecap="round" stroke-linejoin="round" />
<path d="M 174.0 165.0 L 174.0 166.0 L 174.0 169.0 L 174.0 172.0 L 174.0 175.0 L 173.0 179.0 L 172.0 181.0 " stroke="black" fill="none" stroke-width="5.0" stroke-linecap="round" stroke-linejoin="round" />
<path d="M 159.0 181.0 L 159.0 181.0 L 159.0 181.0 L 161.0 181.0 L 165.0 181.0 L 173.0 182.0 L 177.0 182.0 " stroke="black" fill="none" stroke-width="5.0" stroke-linecap="round" stroke-linejoin="round" />
<path d="M 178.0 145.0 L 178.0 145.0 L 178.0 145.0 L 179.0 144.0 L 182.0 144.0 L 188.0 143.0 L 193.0 143.0 L 197.0 143.0 L 198.0 143.0 " stroke="black" fill="none" stroke-width="5.0" stroke-linecap="round" stroke-linejoin="round" />
<path d="M 185.0 133.0 L 184.0 133.0 L 184.0 132.0 L 184.0 132.0 L 185.0 136.0 L 190.0 148.0 L 195.0 164.0 L 198.0 177.0 L 199.0 184.0 L 199.0 186.0 L 199.0 186.0 L 197.0 185.0 L 192.0 183.0 L 187.0 179.0 " stroke="black" fill="none" stroke-width="5.0" stroke-linecap="round" stroke-linejoin="round" />
<path d="M 182.0 162.0 L 184.0 162.0 L 186.0 163.0 L 190.0 165.0 L 194.0 167.0 L 194.0 167.0 " stroke="black" fill="none" stroke-width="5.0" stroke-linecap="round" stroke-linejoin="round" />
</svg>