<svg xmlns="http://www.w3.org/2000/svg" width="300" height="300" viewBox="0 0 300 300">
<path d="M 114.0 120.0 L 114.0 122.0 L 114.0 123.0 L 114.0 127.0 L 114.0 131.0 L 114.0 135.0 L 115.0 137.0 " stroke="black" fill="none" stroke-width="5.0" stroke-linecap="round" stroke-linejoin="round" />
<path d="M 114.0 120.0 L 115.0 120.0 L 115.0 120.0 L 115.0 120.0 L 116.0 120.0 L 119.0 120.0 L 122.0 120.0 L 126.0 120.0 L 129.0 122.0 L 131.0 125.0 L 132.0 129.0 L 133.0 134.0 L 133.0 137.0 L 133.0 138.0 " stroke="black" fill="none" stroke-width="5.0" stroke-linecap="round" stroke-linejoin="round" />
<path d="M 115.0 139.0 L 115.0 139.0 L 115.0 140.0 L 115.0 140.0 L 116.0 141.0 L 118.0 141.0 L 123.0 141.0 L 129.0 141.0 L 132.0 141.0 " stroke="black" fill="none" stroke-width="5.0" stroke-linecap="round" stroke-linejoin="round" />
<path d="M 123.0 144.0 L 123.0 144.0 L 124.0 144.0 L 124.0 145.0 L 125.0 148.0 L 125.0 155.0 L 126.0 164.0 L 126.0 173.0 L 126.0 178.0 L 126.0 180.0 " stroke="black" fill="none" stroke-width="5.0" stroke-linecap="round" stroke-linejoin="round" />
<path d="M 124.0 161.0 L 124.0 161.0 L 124.0 161.0 L 125.0 161.0 L 126.0 161.0 L 130.0 162.0 L 134.0 162.0 L 137.0 163.0 L 137.0 163.0 " stroke="black" fill="none" stroke-width="5.0" stroke-linecap="round" stroke-linejoin="round" />
<path d="M 113.0 159.0 L 113.0 159.0 L 114.0 160.0 L 114.0 164.0 L 115.0 170.0 L 115.0 174.0 " stroke="black" fill="none" stroke-width="5.0" stroke-linecap="round" stroke-linejoin="round" />
<path d="M 106.0 183.0 L 106.0 183.0 L 107.0 183.0 L 108.0 183.0 L 114.0 183.0 L 126.0 183.0 L 139.0 183.0 L 145.0 183.0 " stroke="black" fill="none" stroke-width="5.0" stroke-linecap="round" stroke-linejoin="round" />
<path d="M 151.0 120.0 L 151.0 120.0 L 150.0 120.0 L 150.0 120.0 L 151.0 120.0 L 157.0 120.0 L 165.0 119.0 L 172.0 119.0 L 176.0 119.0 L 177.0 119.0 " stroke="black" fill="none" stroke-width="5.0" stroke-linecap="round" stroke-linejoin="round" />
<path d="M 160.0 107.0 L 160.0 107.0 L 160.0 107.0 L 160.0 112.0 L 164.0 123.0 L 170.0 138.0 L 177.0 150.0 L 181.0 155.0 L 183.0 156.0 " stroke="black" fill="none" stroke-width="5.0" stroke-linecap="round" stroke-linejoin="round" />
<path d="M 186.0 135.0 L 185.0 135.0 L 183.0 135.0 L 180.0 136.0 L 177.0 139.0 L 171.0 144.0 L 163.0 150.0 L 159.0 153.0 " stroke="black" fill="none" stroke-width="5.0" stroke-linecap="round" stroke-linejoin="round" />
<path d="M 179.0 106.0 L 179.0 106.0 L 179.0 107.0 L 180.0 111.0 L 181.0 114.0 " stroke="black" fill="none" stroke-width="5.0" stroke-linecap="round" stroke-linejoin="round" />
<path d="M 151.0 170.0 L 151.0 170.0 L 152.0 170.0 L 156.0 170.0 L 164.0 169.0 L 173.0 168.0 L 181.0 167.0 L 184.0 167.0 L 184.0 167.0 " stroke="black" fill="none" stroke-width="5.0" stroke-linecap="round" stroke-linejoin="round" />
<path d="M 163.0 157.0 L 163.0 157.0 L 163.0 157.0 L 165.0 159.0 L 169.0 169.0 L 175.0 184.0 L 180.0 194.0 L 184.0 198.0 L 186.0 198.0 " stroke="black" fill="none" stroke-width="5.0" stroke-linecap="round" stroke-linejoin="round" />
<path d="M 189.0 179.0 L 187.0 179.0 L 185.0 180.0 L 183.0 181.0 L 178.0 185.0 L 172.0 190.0 L 166.0 193.0 " stroke="black" fill="none" stroke-width="5.0" stroke-linecap="round" stroke-linejoin="round" />
<path d="M 193.0 155.0 L 194.0 156.0 L 195.0 158.0 L 197.0 160.0 " stroke="black" fill="none" stroke-width="5.0" stroke-linecap="round" stroke-linejoin="round" />
</svg>