<svg xmlns="http://www.w3.org/2000/svg" width="300" height="300" viewBox="0 0 300 300">
<path d="M 120.0 115.0 L 120.0 119.0 L 119.0 124.0 L 119.0 128.0 L 119.0 129.0 " stroke="black" fill="none" stroke-width="5.0" stroke-linecap="round" stroke-linejoin="round" />
<path d="M 122.0 111.0 L 122.0 111.0 L 122.0 111.0 L 122.0 111.0 L 122.0 111.0 L 125.0 111.0 L 132.0 111.0 L 144.0 111.0 L 156.0 110.0 L 166.0 109.0 L 174.0 109.0 L 179.0 109.0 L 182.0 109.0 L 183.0 110.0 L 184.0 112.0 L 184.0 115.0 L 185.0 119.0 L 185.0 123.0 L 185.0 126.0 " stroke="black" fill="none" stroke-width="5.0" stroke-linecap="round" stroke-linejoin="round" />
<path d="M 139.0 127.0 L 139.0 127.0 L 139.0 128.0 L 139.0 128.0 L 140.0 128.0 L 144.0 128.0 L 150.0 128.0 L 157.0 127.0 L 163.0 127.0 L 166.0 127.0 L 167.0 127.0 " stroke="black" fill="none" stroke-width="5.0" stroke-linecap="round" stroke-linejoin="round" />
<path d="M 130.0 148.0 L 130.0 148.0 L 129.0 149.0 L 128.0 150.0 L 128.0 154.0 L 129.0 159.0 L 131.0 163.0 L 131.0 165.0 " stroke="black" fill="none" stroke-width="5.0" stroke-linecap="round" stroke-linejoin="round" />
<path d="M 132.0 144.0 L 132.0 144.0 L 132.0 144.0 L 133.0 144.0 L 135.0 144.0 L 141.0 143.0 L 150.0 142.0 L 159.0 141.0 L 166.0 140.0 L 171.0 141.0 L 172.0 144.0 L 173.0 149.0 L 174.0 154.0 L 174.0 159.0 L 174.0 162.0 L 174.0 163.0 " stroke="black" fill="none" stroke-width="5.0" stroke-linecap="round" stroke-linejoin="round" />
<path d="M 138.0 153.0 L 138.0 153.0 L 138.0 153.0 L 138.0 154.0 L 142.0 154.0 L 150.0 154.0 L 159.0 154.0 L 165.0 154.0 L 168.0 154.0 L 168.0 154.0 " stroke="black" fill="none" stroke-width="5.0" stroke-linecap="round" stroke-linejoin="round" />
<path d="M 133.0 168.0 L 133.0 168.0 L 134.0 169.0 L 138.0 170.0 L 146.0 170.0 L 157.0 169.0 L 166.0 168.0 L 169.0 167.0 " stroke="black" fill="none" stroke-width="5.0" stroke-linecap="round" stroke-linejoin="round" />
<path d="M 152.0 120.0 L 152.0 120.0 L 152.0 120.0 L 152.0 120.0 L 152.0 124.0 L 153.0 137.0 L 153.0 157.0 L 153.0 177.0 L 154.0 188.0 L 155.0 193.0 L 155.0 195.0 " stroke="black" fill="none" stroke-width="5.0" stroke-linecap="round" stroke-linejoin="round" />
<path d="M 119.0 185.0 L 119.0 185.0 L 119.0 185.0 L 120.0 184.0 L 120.0 184.0 L 120.0 184.0 L 121.0 184.0 L 128.0 184.0 L 141.0 184.0 L 159.0 183.0 L 176.0 182.0 L 186.0 182.0 L 189.0 182.0 " stroke="black" fill="none" stroke-width="5.0" stroke-linecap="round" stroke-linejoin="round" />
</svg>