<svg xmlns="http://www.w3.org/2000/svg" width="300" height="300" viewBox="0 0 300 300">
<path d="M 117.0 117.0 L 117.0 118.0 L 117.0 119.0 L 117.0 121.0 L 117.0 123.0 L 117.0 127.0 L 117.0 130.0 " stroke="black" fill="none" stroke-width="5.0" stroke-linecap="round" stroke-linejoin="round" />
<path d="M 119.0 115.0 L 120.0 115.0 L 120.0 115.0 L 121.0 116.0 L 122.0 116.0 L 125.0 116.0 L 128.0 116.0 L 131.0 116.0 L 133.0 117.0 L 134.0 120.0 L 135.0 126.0 L 135.0 131.0 L 135.0 134.0 L 135.0 134.0 " stroke="black" fill="none" stroke-width="5.0" stroke-linecap="round" stroke-linejoin="round" />
<path d="M 116.0 134.0 L 116.0 134.0 L 115.0 135.0 L 115.0 136.0 L 117.0 136.0 L 124.0 136.0 L 132.0 135.0 L 135.0 135.0 " stroke="black" fill="none" stroke-width="5.0" stroke-linecap="round" stroke-linejoin="round" />
<path d="M 125.0 139.0 L 125.0 139.0 L 126.0 139.0 L 126.0 139.0 L 127.0 141.0 L 127.0 147.0 L 128.0 157.0 L 128.0 168.0 L 129.0 176.0 L 130.0 178.0 L 130.0 178.0 " stroke="black" fill="none" stroke-width="5.0" stroke-linecap="round" stroke-linejoin="round" />
<path d="M 129.0 157.0 L 129.0 157.0 L 129.0 158.0 L 130.0 158.0 L 133.0 158.0 L 138.0 158.0 L 141.0 158.0 " stroke="black" fill="none" stroke-width="5.0" stroke-linecap="round" stroke-linejoin="round" />
<path d="M 115.0 153.0 L 115.0 153.0 L 115.0 154.0 L 115.0 156.0 L 115.0 162.0 L 117.0 170.0 L 118.0 178.0 L 118.0 181.0 " stroke="black" fill="none" stroke-width="5.0" stroke-linecap="round" stroke-linejoin="round" />
<path d="M 109.0 185.0 L 110.0 185.0 L 111.0 185.0 L 114.0 185.0 L 122.0 185.0 L 134.0 185.0 L 143.0 184.0 L 145.0 184.0 " stroke="black" fill="none" stroke-width="5.0" stroke-linecap="round" stroke-linejoin="round" />
<path d="M 156.0 109.0 L 156.0 109.0 L 156.0 109.0 L 157.0 109.0 L 157.0 109.0 L 158.0 109.0 L 159.0 108.0 L 164.0 108.0 L 171.0 108.0 L 177.0 108.0 L 181.0 108.0 L 181.0 108.0 " stroke="black" fill="none" stroke-width="5.0" stroke-linecap="round" stroke-linejoin="round" />
<path d="M 161.0 121.0 L 161.0 121.0 L 162.0 121.0 L 163.0 121.0 L 167.0 121.0 L 172.0 121.0 L 176.0 121.0 " stroke="black" fill="none" stroke-width="5.0" stroke-linecap="round" stroke-linejoin="round" />
<path d="M 168.0 101.0 L 168.0 101.0 L 168.0 101.0 L 168.0 103.0 L 169.0 108.0 L 170.0 114.0 L 170.0 115.0 " stroke="black" fill="none" stroke-width="5.0" stroke-linecap="round" stroke-linejoin="round" />
<path d="M 148.0 132.0 L 148.0 132.0 L 148.0 132.0 L 148.0 132.0 L 151.0 132.0 L 159.0 131.0 L 173.0 129.0 L 185.0 128.0 L 192.0 127.0 L 195.0 127.0 L 196.0 129.0 L 196.0 133.0 L 195.0 137.0 L 194.0 140.0 L 194.0 141.0 " stroke="black" fill="none" stroke-width="5.0" stroke-linecap="round" stroke-linejoin="round" />
<path d="M 160.0 139.0 L 160.0 139.0 L 160.0 139.0 L 161.0 139.0 L 163.0 140.0 L 167.0 140.0 L 174.0 139.0 L 180.0 137.0 L 180.0 137.0 " stroke="black" fill="none" stroke-width="5.0" stroke-linecap="round" stroke-linejoin="round" />
<path d="M 169.0 139.0 L 169.0 139.0 L 169.0 139.0 L 170.0 141.0 L 171.0 144.0 L 172.0 147.0 L 172.0 147.0 " stroke="black" fill="none" stroke-width="5.0" stroke-linecap="round" stroke-linejoin="round" />
<path d="M 156.0 147.0 L 156.0 147.0 L 156.0 148.0 L 157.0 148.0 L 162.0 148.0 L 171.0 148.0 L 179.0 147.0 L 186.0 147.0 L 188.0 147.0 L 188.0 147.0 " stroke="black" fill="none" stroke-width="5.0" stroke-linecap="round" stroke-linejoin="round" />
<path d="M 153.0 160.0 L 153.0 160.0 L 153.0 160.0 L 153.0 161.0 L 153.0 163.0 L 153.0 167.0 L 154.0 171.0 L 154.0 172.0 " stroke="black" fill="none" stroke-width="5.0" stroke-linecap="round" stroke-linejoin="round" />
<path d="M 155.0 160.0 L 155.0 160.0 L 155.0 160.0 L 156.0 160.0 L 157.0 160.0 L 160.0 160.0 L 163.0 160.0 L 165.0 161.0 L 167.0 163.0 L 168.0 167.0 L 168.0 170.0 L 168.0 172.0 " stroke="black" fill="none" stroke-width="5.0" stroke-linecap="round" stroke-linejoin="round" />
<path d="M 155.0 172.0 L 155.0 173.0 L 155.0 174.0 L 158.0 175.0 L 163.0 176.0 L 165.0 175.0 " stroke="black" fill="none" stroke-width="5.0" stroke-linecap="round" stroke-linejoin="round" />
<path d="M 178.0 160.0 L 178.0 160.0 L 178.0 161.0 L 178.0 161.0 L 180.0 161.0 L 185.0 161.0 L 191.0 161.0 L 196.0 161.0 L 199.0 161.0 " stroke="black" fill="none" stroke-width="5.0" stroke-linecap="round" stroke-linejoin="round" />
<path d="M 189.0 153.0 L 189.0 153.0 L 188.0 155.0 L 188.0 157.0 L 189.0 163.0 L 192.0 171.0 L 195.0 179.0 L 196.0 185.0 L 196.0 187.0 L 195.0 188.0 L 191.0 188.0 L 185.0 188.0 L 180.0 187.0 " stroke="black" fill="none" stroke-width="5.0" stroke-linecap="round" stroke-linejoin="round" />
<path d="M 175.0 171.0 L 175.0 171.0 L 175.0 171.0 L 175.0 171.0 L 177.0 172.0 L 180.0 173.0 L 181.0 173.0 " stroke="black" fill="none" stroke-width="5.0" stroke-linecap="round" stroke-linejoin="round" />
</svg>