<svg xmlns="http://www.w3.org/2000/svg" width="300" height="300" viewBox="0 0 300 300">
<path d="M 124.0 107.0 L 124.0 107.0 L 124.0 107.0 L 124.0 107.0 L 124.0 107.0 L 125.0 107.0 L 128.0 107.0 L 133.0 107.0 L 138.0 107.0 L 139.0 107.0 " stroke="black" fill="none" stroke-width="5.0" stroke-linecap="round" stroke-linejoin="round" />
<path d="M 114.0 123.0 L 117.0 123.0 L 120.0 123.0 L 126.0 123.0 L 134.0 122.0 L 143.0 121.0 L 147.0 120.0 " stroke="black" fill="none" stroke-width="5.0" stroke-linecap="round" stroke-linejoin="round" />
<path d="M 131.0 99.0 L 131.0 99.0 L 131.0 99.0 L 131.0 100.0 L 131.0 103.0 L 130.0 112.0 L 127.0 125.0 L 121.0 140.0 L 116.0 150.0 " stroke="black" fill="none" stroke-width="5.0" stroke-linecap="round" stroke-linejoin="round" />
<path d="M 133.0 125.0 L 133.0 125.0 L 134.0 125.0 L 136.0 127.0 L 141.0 133.0 L 146.0 139.0 L 147.0 140.0 " stroke="black" fill="none" stroke-width="5.0" stroke-linecap="round" stroke-linejoin="round" />
<path d="M 158.0 107.0 L 159.0 107.0 L 159.0 107.0 L 159.0 107.0 L 161.0 107.0 L 165.0 107.0 L 169.0 107.0 L 173.0 107.0 " stroke="black" fill="none" stroke-width="5.0" stroke-linecap="round" stroke-linejoin="round" />
<path d="M 151.0 123.0 L 151.0 123.0 L 152.0 123.0 L 154.0 123.0 L 160.0 123.0 L 167.0 122.0 L 174.0 122.0 L 178.0 122.0 " stroke="black" fill="none" stroke-width="5.0" stroke-linecap="round" stroke-linejoin="round" />
<path d="M 166.0 98.0 L 166.0 98.0 L 166.0 99.0 L 165.0 101.0 L 165.0 107.0 L 163.0 117.0 L 160.0 129.0 L 155.0 139.0 L 153.0 142.0 " stroke="black" fill="none" stroke-width="5.0" stroke-linecap="round" stroke-linejoin="round" />
<path d="M 164.0 125.0 L 164.0 125.0 L 166.0 127.0 L 170.0 130.0 L 175.0 135.0 L 178.0 139.0 " stroke="black" fill="none" stroke-width="5.0" stroke-linecap="round" stroke-linejoin="round" />
<path d="M 134.0 152.0 L 134.0 152.0 L 134.0 152.0 L 134.0 152.0 L 137.0 152.0 L 145.0 151.0 L 154.0 149.0 L 161.0 149.0 L 163.0 149.0 " stroke="black" fill="none" stroke-width="5.0" stroke-linecap="round" stroke-linejoin="round" />
<path d="M 128.0 171.0 L 128.0 171.0 L 128.0 171.0 L 128.0 171.0 L 128.0 172.0 L 129.0 175.0 L 130.0 179.0 L 131.0 182.0 L 131.0 185.0 " stroke="black" fill="none" stroke-width="5.0" stroke-linecap="round" stroke-linejoin="round" />
<path d="M 130.0 167.0 L 130.0 167.0 L 131.0 167.0 L 133.0 167.0 L 136.0 167.0 L 142.0 166.0 L 150.0 165.0 L 156.0 164.0 L 162.0 164.0 L 166.0 165.0 L 168.0 169.0 L 169.0 175.0 L 169.0 182.0 L 169.0 187.0 L 169.0 189.0 " stroke="black" fill="none" stroke-width="5.0" stroke-linecap="round" stroke-linejoin="round" />
<path d="M 135.0 178.0 L 135.0 178.0 L 135.0 178.0 L 135.0 178.0 L 139.0 178.0 L 146.0 177.0 L 154.0 176.0 L 160.0 176.0 L 163.0 176.0 L 163.0 178.0 " stroke="black" fill="none" stroke-width="5.0" stroke-linecap="round" stroke-linejoin="round" />
<path d="M 130.0 190.0 L 131.0 191.0 L 134.0 192.0 L 140.0 192.0 L 150.0 192.0 L 161.0 190.0 L 166.0 189.0 " stroke="black" fill="none" stroke-width="5.0" stroke-linecap="round" stroke-linejoin="round" />
<path d="M 149.0 143.0 L 149.0 143.0 L 149.0 143.0 L 148.0 144.0 L 148.0 150.0 L 151.0 165.0 L 153.0 186.0 L 154.0 204.0 L 154.0 214.0 L 154.0 217.0 " stroke="black" fill="none" stroke-width="5.0" stroke-linecap="round" stroke-linejoin="round" />
<path d="M 122.0 208.0 L 122.0 208.0 L 122.0 208.0 L 124.0 208.0 L 132.0 207.0 L 147.0 206.0 L 163.0 205.0 L 172.0 205.0 L 176.0 205.0 L 177.0 206.0 " stroke="black" fill="none" stroke-width="5.0" stroke-linecap="round" stroke-linejoin="round" />
</svg>