<svg xmlns="http://www.w3.org/2000/svg" width="300" height="300" viewBox="0 0 300 300">
<path d="M 120.0 107.0 L 120.0 108.0 L 121.0 110.0 L 122.0 112.0 L 124.0 116.0 L 126.0 119.0 L 127.0 121.0 " stroke="black" fill="none" stroke-width="5.0" stroke-linecap="round" stroke-linejoin="round" />
<path d="M 105.0 127.0 L 105.0 127.0 L 106.0 128.0 L 107.0 128.0 L 109.0 128.0 L 115.0 128.0 L 124.0 126.0 L 132.0 125.0 L 135.0 125.0 " stroke="black" fill="none" stroke-width="5.0" stroke-linecap="round" stroke-linejoin="round" />
<path d="M 113.0 132.0 L 113.0 132.0 L 113.0 132.0 L 113.0 133.0 L 113.0 136.0 L 115.0 141.0 L 116.0 147.0 " stroke="black" fill="none" stroke-width="5.0" stroke-linecap="round" stroke-linejoin="round" />
<path d="M 130.0 130.0 L 130.0 133.0 L 129.0 137.0 L 129.0 142.0 L 129.0 148.0 L 129.0 152.0 " stroke="black" fill="none" stroke-width="5.0" stroke-linecap="round" stroke-linejoin="round" />
<path d="M 106.0 152.0 L 106.0 152.0 L 106.0 152.0 L 106.0 152.0 L 108.0 152.0 L 115.0 152.0 L 126.0 151.0 L 135.0 151.0 L 138.0 151.0 " stroke="black" fill="none" stroke-width="5.0" stroke-linecap="round" stroke-linejoin="round" />
<path d="M 105.0 168.0 L 106.0 168.0 L 108.0 169.0 L 113.0 169.0 L 123.0 169.0 L 133.0 168.0 L 140.0 168.0 L 142.0 168.0 " stroke="black" fill="none" stroke-width="5.0" stroke-linecap="round" stroke-linejoin="round" />
<path d="M 121.0 153.0 L 121.0 153.0 L 121.0 153.0 L 121.0 154.0 L 122.0 162.0 L 123.0 177.0 L 122.0 191.0 L 121.0 195.0 " stroke="black" fill="none" stroke-width="5.0" stroke-linecap="round" stroke-linejoin="round" />
<path d="M 148.0 145.0 L 149.0 146.0 L 150.0 148.0 L 153.0 149.0 L 154.0 149.0 " stroke="black" fill="none" stroke-width="5.0" stroke-linecap="round" stroke-linejoin="round" />
<path d="M 157.0 113.0 L 157.0 114.0 L 157.0 117.0 L 158.0 127.0 L 159.0 146.0 L 160.0 169.0 L 159.0 187.0 L 157.0 196.0 " stroke="black" fill="none" stroke-width="5.0" stroke-linecap="round" stroke-linejoin="round" />
<path d="M 178.0 118.0 L 178.0 118.0 L 178.0 119.0 L 179.0 119.0 L 181.0 121.0 L 183.0 124.0 L 185.0 126.0 " stroke="black" fill="none" stroke-width="5.0" stroke-linecap="round" stroke-linejoin="round" />
<path d="M 164.0 134.0 L 165.0 134.0 L 166.0 134.0 L 169.0 134.0 L 176.0 133.0 L 187.0 131.0 L 194.0 131.0 L 197.0 131.0 " stroke="black" fill="none" stroke-width="5.0" stroke-linecap="round" stroke-linejoin="round" />
<path d="M 175.0 133.0 L 175.0 133.0 L 176.0 133.0 L 176.0 133.0 L 178.0 137.0 L 179.0 143.0 L 181.0 148.0 L 181.0 149.0 " stroke="black" fill="none" stroke-width="5.0" stroke-linecap="round" stroke-linejoin="round" />
<path d="M 191.0 132.0 L 190.0 133.0 L 189.0 134.0 L 189.0 137.0 L 189.0 141.0 L 189.0 146.0 " stroke="black" fill="none" stroke-width="5.0" stroke-linecap="round" stroke-linejoin="round" />
<path d="M 172.0 153.0 L 172.0 153.0 L 172.0 153.0 L 173.0 153.0 L 177.0 152.0 L 185.0 151.0 L 193.0 150.0 L 197.0 150.0 L 197.0 150.0 " stroke="black" fill="none" stroke-width="5.0" stroke-linecap="round" stroke-linejoin="round" />
<path d="M 170.0 168.0 L 170.0 168.0 L 172.0 169.0 L 176.0 170.0 L 185.0 169.0 L 193.0 168.0 L 199.0 168.0 L 200.0 168.0 " stroke="black" fill="none" stroke-width="5.0" stroke-linecap="round" stroke-linejoin="round" />
<path d="M 185.0 150.0 L 185.0 150.0 L 185.0 150.0 L 185.0 152.0 L 187.0 163.0 L 190.0 182.0 L 191.0 201.0 L 191.0 210.0 L 191.0 212.0 " stroke="black" fill="none" stroke-width="5.0" stroke-linecap="round" stroke-linejoin="round" />
</svg>