<svg xmlns="http://www.w3.org/2000/svg" width="300" height="300" viewBox="0 0 300 300">
<path d="M 128.0 102.0 L 128.0 102.0 L 128.0 102.0 L 128.0 102.0 L 128.0 102.0 L 128.0 102.0 L 129.0 102.0 L 130.0 102.0 L 132.0 102.0 L 138.0 102.0 L 147.0 101.0 L 157.0 100.0 L 164.0 98.0 L 166.0 98.0 " stroke="black" fill="none" stroke-width="5.0" stroke-linecap="round" stroke-linejoin="round" />
<path d="M 126.0 104.0 L 126.0 104.0 L 126.0 105.0 L 126.0 105.0 L 126.0 105.0 L 126.0 105.0 L 126.0 105.0 L 126.0 105.0 L 126.0 105.0 L 126.0 107.0 L 126.0 112.0 L 126.0 123.0 L 124.0 137.0 L 120.0 149.0 L 118.0 154.0 " stroke="black" fill="none" stroke-width="5.0" stroke-linecap="round" stroke-linejoin="round" />
<path d="M 131.0 116.0 L 131.0 116.0 L 131.0 116.0 L 132.0 115.0 L 136.0 115.0 L 145.0 115.0 L 154.0 115.0 L 161.0 115.0 L 163.0 115.0 " stroke="black" fill="none" stroke-width="5.0" stroke-linecap="round" stroke-linejoin="round" />
<path d="M 127.0 130.0 L 127.0 130.0 L 127.0 130.0 L 127.0 130.0 L 129.0 130.0 L 133.0 130.0 L 142.0 129.0 L 153.0 128.0 L 161.0 128.0 L 164.0 128.0 " stroke="black" fill="none" stroke-width="5.0" stroke-linecap="round" stroke-linejoin="round" />
<path d="M 139.0 131.0 L 139.0 131.0 L 139.0 131.0 L 139.0 131.0 L 139.0 131.0 L 139.0 132.0 L 139.0 133.0 L 138.0 138.0 L 138.0 146.0 L 137.0 153.0 L 139.0 157.0 L 144.0 156.0 L 150.0 152.0 " stroke="black" fill="none" stroke-width="5.0" stroke-linecap="round" stroke-linejoin="round" />
<path d="M 173.0 138.0 L 173.0 138.0 L 173.0 138.0 L 172.0 138.0 L 172.0 138.0 L 170.0 139.0 L 166.0 142.0 L 165.0 143.0 " stroke="black" fill="none" stroke-width="5.0" stroke-linecap="round" stroke-linejoin="round" />
<path d="M 150.0 139.0 L 150.0 139.0 L 150.0 139.0 L 150.0 139.0 L 155.0 142.0 L 163.0 147.0 L 169.0 151.0 " stroke="black" fill="none" stroke-width="5.0" stroke-linecap="round" stroke-linejoin="round" />
<path d="M 118.0 173.0 L 118.0 173.0 L 118.0 173.0 L 122.0 174.0 L 132.0 174.0 L 149.0 174.0 L 166.0 174.0 L 178.0 175.0 L 181.0 175.0 " stroke="black" fill="none" stroke-width="5.0" stroke-linecap="round" stroke-linejoin="round" />
<path d="M 158.0 160.0 L 158.0 160.0 L 158.0 160.0 L 158.0 161.0 L 158.0 166.0 L 160.0 178.0 L 163.0 191.0 L 165.0 201.0 L 165.0 205.0 L 165.0 207.0 L 163.0 207.0 L 158.0 205.0 L 152.0 201.0 L 148.0 200.0 " stroke="black" fill="none" stroke-width="5.0" stroke-linecap="round" stroke-linejoin="round" />
<path d="M 130.0 187.0 L 131.0 187.0 L 131.0 187.0 L 134.0 187.0 L 141.0 189.0 L 145.0 189.0 " stroke="black" fill="none" stroke-width="5.0" stroke-linecap="round" stroke-linejoin="round" />
</svg>