<svg xmlns="http://www.w3.org/2000/svg" width="300" height="300" viewBox="0 0 300 300">
<path d="M 120.0 119.0 L 121.0 121.0 L 122.0 124.0 L 123.0 127.0 L 124.0 129.0 L 124.0 131.0 " stroke="black" fill="none" stroke-width="5.0" stroke-linecap="round" stroke-linejoin="round" />
<path d="M 115.0 143.0 L 116.0 143.0 L 119.0 143.0 L 121.0 143.0 L 124.0 143.0 L 127.0 143.0 L 129.0 144.0 L 130.0 145.0 L 130.0 148.0 L 127.0 151.0 L 123.0 155.0 L 121.0 157.0 L 119.0 160.0 L 119.0 163.0 L 119.0 166.0 L 119.0 171.0 L 120.0 175.0 L 121.0 179.0 L 121.0 180.0 " stroke="black" fill="none" stroke-width="5.0" stroke-linecap="round" stroke-linejoin="round" />
<path d="M 103.0 192.0 L 103.0 192.0 L 102.0 192.0 L 102.0 192.0 L 106.0 190.0 L 114.0 188.0 L 127.0 186.0 L 138.0 185.0 L 148.0 189.0 L 157.0 193.0 L 166.0 197.0 L 176.0 199.0 L 184.0 199.0 L 190.0 199.0 L 194.0 197.0 " stroke="black" fill="none" stroke-width="5.0" stroke-linecap="round" stroke-linejoin="round" />
<path d="M 150.0 120.0 L 150.0 120.0 L 150.0 121.0 L 151.0 122.0 L 153.0 122.0 L 160.0 122.0 L 170.0 120.0 L 178.0 119.0 L 182.0 119.0 L 183.0 122.0 L 183.0 129.0 L 183.0 140.0 L 185.0 153.0 L 189.0 164.0 L 194.0 170.0 L 198.0 172.0 L 200.0 171.0 L 201.0 168.0 " stroke="black" fill="none" stroke-width="5.0" stroke-linecap="round" stroke-linejoin="round" />
<path d="M 159.0 122.0 L 159.0 122.0 L 161.0 123.0 L 161.0 124.0 L 161.0 129.0 L 160.0 141.0 L 156.0 155.0 L 152.0 168.0 L 149.0 174.0 L 149.0 174.0 " stroke="black" fill="none" stroke-width="5.0" stroke-linecap="round" stroke-linejoin="round" />
<path d="M 140.0 153.0 L 140.0 153.0 L 140.0 153.0 L 141.0 154.0 L 145.0 154.0 L 153.0 155.0 L 163.0 154.0 L 168.0 154.0 " stroke="black" fill="none" stroke-width="5.0" stroke-linecap="round" stroke-linejoin="round" />
</svg>