<svg xmlns="http://www.w3.org/2000/svg" width="300" height="300" viewBox="0 0 300 300">
<path d="M 121.0 116.0 L 121.0 117.0 L 121.0 119.0 L 121.0 122.0 L 121.0 128.0 L 121.0 133.0 L 121.0 136.0 " stroke="black" fill="none" stroke-width="5.0" stroke-linecap="round" stroke-linejoin="round" />
<path d="M 121.0 113.0 L 122.0 113.0 L 122.0 113.0 L 123.0 113.0 L 129.0 112.0 L 140.0 111.0 L 152.0 110.0 L 162.0 109.0 L 169.0 110.0 L 174.0 112.0 L 177.0 116.0 L 179.0 123.0 L 180.0 132.0 L 180.0 138.0 L 180.0 142.0 " stroke="black" fill="none" stroke-width="5.0" stroke-linecap="round" stroke-linejoin="round" />
<path d="M 129.0 127.0 L 129.0 127.0 L 130.0 127.0 L 132.0 127.0 L 135.0 128.0 L 145.0 128.0 L 156.0 128.0 L 166.0 129.0 L 170.0 130.0 L 170.0 131.0 " stroke="black" fill="none" stroke-width="5.0" stroke-linecap="round" stroke-linejoin="round" />
<path d="M 124.0 146.0 L 124.0 146.0 L 127.0 146.0 L 134.0 147.0 L 144.0 147.0 L 156.0 147.0 L 165.0 147.0 L 166.0 147.0 " stroke="black" fill="none" stroke-width="5.0" stroke-linecap="round" stroke-linejoin="round" />
<path d="M 142.0 95.0 L 142.0 95.0 L 142.0 95.0 L 142.0 95.0 L 142.0 95.0 L 142.0 95.0 L 142.0 100.0 L 142.0 115.0 L 142.0 130.0 L 142.0 138.0 " stroke="black" fill="none" stroke-width="5.0" stroke-linecap="round" stroke-linejoin="round" />
<path d="M 155.0 94.0 L 155.0 94.0 L 155.0 94.0 L 155.0 94.0 L 155.0 94.0 L 156.0 99.0 L 157.0 112.0 L 159.0 129.0 L 159.0 141.0 " stroke="black" fill="none" stroke-width="5.0" stroke-linecap="round" stroke-linejoin="round" />
<path d="M 129.0 161.0 L 129.0 161.0 L 129.0 161.0 L 129.0 162.0 L 128.0 163.0 L 128.0 163.0 L 130.0 163.0 L 138.0 163.0 L 152.0 161.0 L 167.0 160.0 L 176.0 160.0 L 179.0 160.0 L 179.0 160.0 " stroke="black" fill="none" stroke-width="5.0" stroke-linecap="round" stroke-linejoin="round" />
<path d="M 128.0 166.0 L 128.0 166.0 L 128.0 166.0 L 128.0 167.0 L 127.0 175.0 L 123.0 189.0 L 118.0 206.0 L 114.0 218.0 L 114.0 220.0 " stroke="black" fill="none" stroke-width="5.0" stroke-linecap="round" stroke-linejoin="round" />
<path d="M 132.0 175.0 L 132.0 175.0 L 132.0 175.0 L 133.0 175.0 L 135.0 174.0 L 141.0 173.0 L 150.0 172.0 L 159.0 170.0 L 164.0 170.0 L 166.0 171.0 L 165.0 171.0 " stroke="black" fill="none" stroke-width="5.0" stroke-linecap="round" stroke-linejoin="round" />
<path d="M 127.0 188.0 L 127.0 188.0 L 128.0 187.0 L 130.0 187.0 L 136.0 187.0 L 149.0 187.0 L 161.0 186.0 L 168.0 185.0 L 169.0 185.0 " stroke="black" fill="none" stroke-width="5.0" stroke-linecap="round" stroke-linejoin="round" />
<path d="M 140.0 190.0 L 140.0 190.0 L 139.0 189.0 L 139.0 189.0 L 138.0 190.0 L 137.0 197.0 L 136.0 208.0 L 137.0 218.0 L 142.0 220.0 L 150.0 217.0 L 151.0 215.0 " stroke="black" fill="none" stroke-width="5.0" stroke-linecap="round" stroke-linejoin="round" />
<path d="M 172.0 189.0 L 172.0 190.0 L 171.0 191.0 L 169.0 193.0 L 166.0 196.0 L 162.0 202.0 L 161.0 203.0 " stroke="black" fill="none" stroke-width="5.0" stroke-linecap="round" stroke-linejoin="round" />
<path d="M 149.0 197.0 L 149.0 197.0 L 149.0 197.0 L 152.0 199.0 L 160.0 207.0 L 171.0 217.0 L 180.0 226.0 L 182.0 231.0 L 182.0 232.0 " stroke="black" fill="none" stroke-width="5.0" stroke-linecap="round" stroke-linejoin="round" />
</svg>