<svg xmlns="http://www.w3.org/2000/svg" width="300" height="300" viewBox="0 0 300 300">
<path d="M 115.0 122.0 L 115.0 122.0 L 115.0 123.0 L 116.0 123.0 L 120.0 123.0 L 126.0 123.0 L 131.0 122.0 L 134.0 122.0 " stroke="black" fill="none" stroke-width="5.0" stroke-linecap="round" stroke-linejoin="round" />
<path d="M 111.0 138.0 L 111.0 138.0 L 111.0 139.0 L 111.0 141.0 L 111.0 144.0 L 112.0 148.0 L 113.0 151.0 " stroke="black" fill="none" stroke-width="5.0" stroke-linecap="round" stroke-linejoin="round" />
<path d="M 112.0 139.0 L 112.0 139.0 L 112.0 139.0 L 113.0 139.0 L 117.0 138.0 L 122.0 137.0 L 127.0 137.0 L 132.0 136.0 L 135.0 136.0 L 137.0 140.0 L 138.0 146.0 L 138.0 152.0 L 138.0 157.0 L 138.0 158.0 " stroke="black" fill="none" stroke-width="5.0" stroke-linecap="round" stroke-linejoin="round" />
<path d="M 113.0 150.0 L 113.0 150.0 L 113.0 150.0 L 114.0 150.0 L 117.0 150.0 L 124.0 150.0 L 130.0 149.0 L 134.0 149.0 L 134.0 149.0 " stroke="black" fill="none" stroke-width="5.0" stroke-linecap="round" stroke-linejoin="round" />
<path d="M 111.0 160.0 L 111.0 161.0 L 111.0 163.0 L 114.0 164.0 L 121.0 164.0 L 131.0 162.0 L 137.0 161.0 L 138.0 160.0 " stroke="black" fill="none" stroke-width="5.0" stroke-linecap="round" stroke-linejoin="round" />
<path d="M 122.0 114.0 L 122.0 114.0 L 122.0 114.0 L 121.0 114.0 L 122.0 123.0 L 125.0 142.0 L 126.0 164.0 L 127.0 182.0 L 127.0 189.0 " stroke="black" fill="none" stroke-width="5.0" stroke-linecap="round" stroke-linejoin="round" />
<path d="M 109.0 180.0 L 109.0 180.0 L 109.0 180.0 L 115.0 180.0 L 126.0 177.0 L 137.0 174.0 L 139.0 174.0 " stroke="black" fill="none" stroke-width="5.0" stroke-linecap="round" stroke-linejoin="round" />
<path d="M 150.0 118.0 L 150.0 118.0 L 149.0 118.0 L 149.0 118.0 L 149.0 118.0 L 153.0 118.0 L 159.0 118.0 L 164.0 117.0 L 167.0 117.0 " stroke="black" fill="none" stroke-width="5.0" stroke-linecap="round" stroke-linejoin="round" />
<path d="M 152.0 126.0 L 151.0 126.0 L 150.0 127.0 L 149.0 129.0 L 147.0 132.0 L 145.0 136.0 L 144.0 141.0 L 144.0 145.0 L 147.0 147.0 L 152.0 147.0 L 154.0 147.0 " stroke="black" fill="none" stroke-width="5.0" stroke-linecap="round" stroke-linejoin="round" />
<path d="M 165.0 128.0 L 164.0 130.0 L 163.0 132.0 L 162.0 135.0 L 161.0 139.0 L 160.0 144.0 L 161.0 146.0 L 163.0 147.0 " stroke="black" fill="none" stroke-width="5.0" stroke-linecap="round" stroke-linejoin="round" />
<path d="M 178.0 131.0 L 177.0 132.0 L 175.0 134.0 L 173.0 137.0 L 172.0 141.0 L 173.0 146.0 L 176.0 148.0 L 178.0 149.0 " stroke="black" fill="none" stroke-width="5.0" stroke-linecap="round" stroke-linejoin="round" />
<path d="M 147.0 161.0 L 147.0 161.0 L 147.0 162.0 L 148.0 162.0 L 153.0 162.0 L 162.0 161.0 L 170.0 161.0 L 172.0 160.0 " stroke="black" fill="none" stroke-width="5.0" stroke-linecap="round" stroke-linejoin="round" />
<path d="M 160.0 164.0 L 160.0 165.0 L 160.0 166.0 L 160.0 168.0 L 160.0 171.0 L 160.0 175.0 L 160.0 178.0 " stroke="black" fill="none" stroke-width="5.0" stroke-linecap="round" stroke-linejoin="round" />
<path d="M 142.0 188.0 L 142.0 188.0 L 142.0 188.0 L 145.0 188.0 L 153.0 188.0 L 165.0 185.0 L 178.0 184.0 L 186.0 184.0 L 189.0 184.0 " stroke="black" fill="none" stroke-width="5.0" stroke-linecap="round" stroke-linejoin="round" />
</svg>