<svg xmlns="http://www.w3.org/2000/svg" width="300" height="300" viewBox="0 0 300 300">
<path d="M 119.0 127.0 L 119.0 127.0 L 119.0 129.0 L 119.0 132.0 L 121.0 135.0 L 121.0 136.0 " stroke="black" fill="none" stroke-width="5.0" stroke-linecap="round" stroke-linejoin="round" />
<path d="M 114.0 155.0 L 114.0 155.0 L 115.0 155.0 L 115.0 155.0 L 117.0 155.0 L 120.0 155.0 L 123.0 155.0 L 125.0 155.0 L 126.0 157.0 L 126.0 160.0 L 123.0 164.0 L 120.0 168.0 L 118.0 172.0 L 116.0 176.0 L 116.0 178.0 L 116.0 181.0 L 116.0 183.0 L 116.0 184.0 " stroke="black" fill="none" stroke-width="5.0" stroke-linecap="round" stroke-linejoin="round" />
<path d="M 105.0 195.0 L 105.0 195.0 L 105.0 195.0 L 104.0 194.0 L 106.0 193.0 L 111.0 190.0 L 119.0 189.0 L 130.0 188.0 L 143.0 189.0 L 167.0 195.0 L 176.0 197.0 L 185.0 196.0 L 187.0 195.0 " stroke="black" fill="none" stroke-width="5.0" stroke-linecap="round" stroke-linejoin="round" />
<path d="M 150.0 116.0 L 149.0 118.0 L 147.0 120.0 L 146.0 122.0 L 145.0 124.0 L 144.0 126.0 L 144.0 127.0 L 145.0 127.0 L 147.0 127.0 L 151.0 127.0 L 155.0 127.0 L 160.0 127.0 L 164.0 126.0 L 167.0 126.0 L 170.0 126.0 L 171.0 128.0 L 172.0 131.0 L 173.0 134.0 L 173.0 137.0 L 173.0 137.0 " stroke="black" fill="none" stroke-width="5.0" stroke-linecap="round" stroke-linejoin="round" />
<path d="M 144.0 143.0 L 146.0 144.0 L 150.0 144.0 L 156.0 144.0 L 163.0 142.0 L 169.0 141.0 L 172.0 140.0 L 172.0 140.0 " stroke="black" fill="none" stroke-width="5.0" stroke-linecap="round" stroke-linejoin="round" />
<path d="M 145.0 129.0 L 145.0 130.0 L 143.0 131.0 L 143.0 135.0 L 143.0 144.0 L 143.0 157.0 L 144.0 166.0 L 146.0 169.0 L 146.0 170.0 " stroke="black" fill="none" stroke-width="5.0" stroke-linecap="round" stroke-linejoin="round" />
<path d="M 147.0 153.0 L 147.0 153.0 L 148.0 153.0 L 150.0 153.0 L 153.0 153.0 L 159.0 153.0 L 164.0 152.0 L 169.0 152.0 L 173.0 153.0 L 176.0 155.0 L 178.0 159.0 L 179.0 163.0 L 180.0 166.0 L 180.0 168.0 L 180.0 168.0 " stroke="black" fill="none" stroke-width="5.0" stroke-linecap="round" stroke-linejoin="round" />
<path d="M 147.0 171.0 L 148.0 172.0 L 149.0 173.0 L 152.0 173.0 L 159.0 173.0 L 170.0 173.0 L 178.0 171.0 L 181.0 171.0 " stroke="black" fill="none" stroke-width="5.0" stroke-linecap="round" stroke-linejoin="round" />
</svg>