<svg xmlns="http://www.w3.org/2000/svg" width="300" height="300" viewBox="0 0 300 300">
<path d="M 119.0 121.0 L 119.0 121.0 L 119.0 122.0 L 119.0 124.0 L 120.0 126.0 L 122.0 130.0 " stroke="black" fill="none" stroke-width="5.0" stroke-linecap="round" stroke-linejoin="round" />
<path d="M 111.0 139.0 L 111.0 139.0 L 112.0 139.0 L 112.0 139.0 L 112.0 139.0 L 114.0 139.0 L 117.0 139.0 L 120.0 139.0 L 123.0 140.0 L 125.0 141.0 L 125.0 143.0 L 124.0 146.0 L 122.0 148.0 L 119.0 150.0 L 117.0 151.0 L 116.0 152.0 L 115.0 154.0 L 115.0 158.0 L 116.0 161.0 L 117.0 166.0 L 118.0 170.0 L 119.0 174.0 L 119.0 175.0 " stroke="black" fill="none" stroke-width="5.0" stroke-linecap="round" stroke-linejoin="round" />
<path d="M 105.0 184.0 L 105.0 184.0 L 106.0 183.0 L 107.0 182.0 L 108.0 182.0 L 110.0 181.0 L 112.0 181.0 L 116.0 183.0 L 121.0 186.0 L 128.0 190.0 L 138.0 195.0 L 150.0 199.0 L 169.0 199.0 L 191.0 199.0 L 199.0 198.0 " stroke="black" fill="none" stroke-width="5.0" stroke-linecap="round" stroke-linejoin="round" />
<path d="M 164.0 112.0 L 164.0 113.0 L 164.0 114.0 L 164.0 114.0 L 163.0 116.0 L 161.0 118.0 L 158.0 120.0 L 154.0 122.0 L 149.0 124.0 L 147.0 125.0 L 146.0 126.0 L 145.0 126.0 L 145.0 126.0 L 145.0 126.0 L 146.0 127.0 L 146.0 131.0 L 146.0 136.0 L 146.0 145.0 L 144.0 156.0 L 142.0 166.0 L 141.0 170.0 " stroke="black" fill="none" stroke-width="5.0" stroke-linecap="round" stroke-linejoin="round" />
<path d="M 150.0 139.0 L 150.0 139.0 L 150.0 139.0 L 150.0 139.0 L 151.0 138.0 L 154.0 138.0 L 161.0 137.0 L 168.0 137.0 L 175.0 137.0 L 178.0 137.0 " stroke="black" fill="none" stroke-width="5.0" stroke-linecap="round" stroke-linejoin="round" />
<path d="M 164.0 140.0 L 164.0 140.0 L 165.0 141.0 L 165.0 143.0 L 165.0 148.0 L 165.0 156.0 L 165.0 169.0 L 166.0 184.0 L 166.0 191.0 " stroke="black" fill="none" stroke-width="5.0" stroke-linecap="round" stroke-linejoin="round" />
</svg>