<svg xmlns="http://www.w3.org/2000/svg" width="300" height="300" viewBox="0 0 300 300">
<path d="M 115.0 118.0 L 115.0 118.0 L 115.0 118.0 L 116.0 118.0 L 119.0 119.0 L 125.0 119.0 L 132.0 119.0 L 136.0 119.0 L 138.0 119.0 L 137.0 119.0 L 137.0 120.0 " stroke="black" fill="none" stroke-width="5.0" stroke-linecap="round" stroke-linejoin="round" />
<path d="M 110.0 134.0 L 110.0 134.0 L 110.0 134.0 L 111.0 134.0 L 111.0 137.0 L 111.0 144.0 L 111.0 152.0 L 111.0 157.0 L 111.0 159.0 " stroke="black" fill="none" stroke-width="5.0" stroke-linecap="round" stroke-linejoin="round" />
<path d="M 113.0 136.0 L 113.0 136.0 L 115.0 136.0 L 116.0 136.0 L 119.0 136.0 L 122.0 136.0 L 127.0 136.0 L 132.0 135.0 L 136.0 135.0 L 139.0 137.0 L 141.0 139.0 L 142.0 144.0 L 142.0 151.0 L 143.0 158.0 L 143.0 163.0 L 143.0 165.0 L 143.0 166.0 " stroke="black" fill="none" stroke-width="5.0" stroke-linecap="round" stroke-linejoin="round" />
<path d="M 115.0 150.0 L 115.0 150.0 L 115.0 150.0 L 117.0 150.0 L 122.0 150.0 L 129.0 150.0 L 135.0 150.0 " stroke="black" fill="none" stroke-width="5.0" stroke-linecap="round" stroke-linejoin="round" />
<path d="M 112.0 162.0 L 114.0 163.0 L 117.0 163.0 L 123.0 164.0 L 132.0 164.0 L 139.0 164.0 L 140.0 164.0 " stroke="black" fill="none" stroke-width="5.0" stroke-linecap="round" stroke-linejoin="round" />
<path d="M 125.0 106.0 L 125.0 105.0 L 125.0 105.0 L 125.0 105.0 L 125.0 113.0 L 127.0 129.0 L 129.0 151.0 L 130.0 169.0 L 131.0 182.0 L 132.0 189.0 L 132.0 192.0 L 132.0 192.0 L 131.0 192.0 " stroke="black" fill="none" stroke-width="5.0" stroke-linecap="round" stroke-linejoin="round" />
<path d="M 108.0 176.0 L 109.0 176.0 L 110.0 176.0 L 111.0 177.0 L 116.0 177.0 L 126.0 177.0 L 137.0 177.0 L 144.0 178.0 L 147.0 178.0 L 147.0 178.0 L 147.0 178.0 " stroke="black" fill="none" stroke-width="5.0" stroke-linecap="round" stroke-linejoin="round" />
<path d="M 157.0 120.0 L 157.0 120.0 L 156.0 120.0 L 157.0 120.0 L 162.0 120.0 L 170.0 120.0 L 177.0 120.0 L 181.0 120.0 L 182.0 120.0 L 182.0 120.0 " stroke="black" fill="none" stroke-width="5.0" stroke-linecap="round" stroke-linejoin="round" />
<path d="M 157.0 135.0 L 156.0 136.0 L 155.0 136.0 L 155.0 138.0 L 155.0 143.0 L 155.0 152.0 L 156.0 166.0 L 156.0 179.0 L 157.0 189.0 L 158.0 191.0 L 159.0 191.0 " stroke="black" fill="none" stroke-width="5.0" stroke-linecap="round" stroke-linejoin="round" />
<path d="M 158.0 136.0 L 158.0 136.0 L 158.0 135.0 L 158.0 135.0 L 161.0 135.0 L 167.0 135.0 L 173.0 135.0 L 178.0 136.0 L 182.0 138.0 L 185.0 142.0 L 187.0 148.0 L 190.0 158.0 L 192.0 169.0 L 194.0 181.0 L 194.0 189.0 L 194.0 193.0 L 194.0 195.0 L 192.0 196.0 L 187.0 197.0 L 182.0 196.0 " stroke="black" fill="none" stroke-width="5.0" stroke-linecap="round" stroke-linejoin="round" />
<path d="M 160.0 149.0 L 160.0 149.0 L 161.0 149.0 L 162.0 150.0 L 166.0 150.0 L 173.0 151.0 L 180.0 152.0 L 183.0 153.0 L 183.0 153.0 " stroke="black" fill="none" stroke-width="5.0" stroke-linecap="round" stroke-linejoin="round" />
<path d="M 159.0 164.0 L 160.0 164.0 L 161.0 165.0 L 165.0 165.0 L 174.0 166.0 L 184.0 166.0 L 186.0 166.0 " stroke="black" fill="none" stroke-width="5.0" stroke-linecap="round" stroke-linejoin="round" />
<path d="M 170.0 110.0 L 170.0 110.0 L 170.0 110.0 L 170.0 114.0 L 170.0 124.0 L 172.0 144.0 L 172.0 168.0 L 173.0 188.0 L 174.0 195.0 L 174.0 196.0 L 174.0 195.0 " stroke="black" fill="none" stroke-width="5.0" stroke-linecap="round" stroke-linejoin="round" />
<path d="M 189.0 106.0 L 189.0 106.0 L 189.0 106.0 L 190.0 107.0 L 191.0 111.0 L 193.0 115.0 " stroke="black" fill="none" stroke-width="5.0" stroke-linecap="round" stroke-linejoin="round" />
</svg>