<svg xmlns="http://www.w3.org/2000/svg" width="300" height="300" viewBox="0 0 300 300">
<path d="M 117.0 130.0 L 117.0 130.0 L 117.0 130.0 L 118.0 131.0 L 118.0 133.0 L 120.0 136.0 " stroke="black" fill="none" stroke-width="5.0" stroke-linecap="round" stroke-linejoin="round" />
<path d="M 111.0 158.0 L 111.0 158.0 L 111.0 158.0 L 112.0 158.0 L 116.0 158.0 L 121.0 158.0 L 125.0 159.0 L 127.0 159.0 L 126.0 162.0 L 123.0 165.0 L 119.0 168.0 L 117.0 170.0 L 116.0 172.0 L 116.0 176.0 L 116.0 180.0 L 116.0 184.0 L 117.0 186.0 " stroke="black" fill="none" stroke-width="5.0" stroke-linecap="round" stroke-linejoin="round" />
<path d="M 105.0 195.0 L 104.0 195.0 L 104.0 195.0 L 103.0 195.0 L 105.0 194.0 L 111.0 190.0 L 121.0 187.0 L 131.0 186.0 L 142.0 189.0 L 152.0 193.0 L 165.0 197.0 L 180.0 198.0 L 191.0 197.0 L 201.0 192.0 L 202.0 190.0 " stroke="black" fill="none" stroke-width="5.0" stroke-linecap="round" stroke-linejoin="round" />
<path d="M 153.0 115.0 L 153.0 115.0 L 153.0 115.0 L 153.0 115.0 L 153.0 115.0 L 152.0 120.0 L 147.0 129.0 L 141.0 139.0 " stroke="black" fill="none" stroke-width="5.0" stroke-linecap="round" stroke-linejoin="round" />
<path d="M 152.0 125.0 L 152.0 125.0 L 152.0 125.0 L 152.0 125.0 L 154.0 125.0 L 159.0 125.0 L 169.0 125.0 L 179.0 125.0 L 184.0 125.0 L 186.0 125.0 " stroke="black" fill="none" stroke-width="5.0" stroke-linecap="round" stroke-linejoin="round" />
<path d="M 145.0 150.0 L 145.0 150.0 L 145.0 150.0 L 145.0 150.0 L 145.0 150.0 L 149.0 150.0 L 158.0 150.0 L 170.0 149.0 L 180.0 148.0 L 185.0 148.0 L 186.0 148.0 L 186.0 149.0 L 186.0 153.0 L 186.0 158.0 L 185.0 163.0 L 183.0 166.0 " stroke="black" fill="none" stroke-width="5.0" stroke-linecap="round" stroke-linejoin="round" />
<path d="M 170.0 140.0 L 171.0 140.0 L 171.0 142.0 L 171.0 147.0 L 170.0 155.0 L 168.0 161.0 L 168.0 164.0 " stroke="black" fill="none" stroke-width="5.0" stroke-linecap="round" stroke-linejoin="round" />
<path d="M 154.0 139.0 L 154.0 139.0 L 154.0 139.0 L 154.0 140.0 L 154.0 142.0 L 153.0 148.0 L 152.0 157.0 L 152.0 166.0 L 152.0 173.0 L 155.0 177.0 L 160.0 179.0 L 169.0 180.0 L 180.0 180.0 L 190.0 180.0 L 197.0 180.0 L 199.0 178.0 L 199.0 176.0 L 199.0 172.0 L 199.0 165.0 " stroke="black" fill="none" stroke-width="5.0" stroke-linecap="round" stroke-linejoin="round" />
</svg>