<svg xmlns="http://www.w3.org/2000/svg" width="300" height="300" viewBox="0 0 300 300">
<path d="M 122.0 127.0 L 122.0 128.0 L 122.0 130.0 L 123.0 134.0 L 124.0 137.0 L 125.0 141.0 L 125.0 143.0 " stroke="black" fill="none" stroke-width="5.0" stroke-linecap="round" stroke-linejoin="round" />
<path d="M 115.0 155.0 L 115.0 155.0 L 115.0 156.0 L 116.0 156.0 L 117.0 156.0 L 121.0 156.0 L 125.0 155.0 L 128.0 155.0 L 130.0 156.0 L 130.0 158.0 L 129.0 160.0 L 127.0 163.0 L 124.0 166.0 L 121.0 168.0 L 119.0 171.0 L 118.0 173.0 L 118.0 175.0 L 118.0 177.0 L 119.0 179.0 L 120.0 181.0 L 120.0 183.0 L 120.0 184.0 " stroke="black" fill="none" stroke-width="5.0" stroke-linecap="round" stroke-linejoin="round" />
<path d="M 107.0 195.0 L 107.0 195.0 L 107.0 195.0 L 107.0 195.0 L 107.0 194.0 L 111.0 193.0 L 117.0 191.0 L 126.0 191.0 L 135.0 192.0 L 144.0 196.0 L 153.0 200.0 L 164.0 202.0 L 176.0 203.0 L 186.0 203.0 L 193.0 201.0 L 195.0 199.0 " stroke="black" fill="none" stroke-width="5.0" stroke-linecap="round" stroke-linejoin="round" />
<path d="M 162.0 129.0 L 162.0 129.0 L 162.0 129.0 L 162.0 129.0 L 162.0 131.0 L 162.0 133.0 L 159.0 137.0 L 156.0 140.0 L 154.0 142.0 L 152.0 144.0 L 151.0 147.0 L 151.0 152.0 L 151.0 159.0 L 151.0 166.0 L 151.0 170.0 L 151.0 172.0 L 152.0 172.0 " stroke="black" fill="none" stroke-width="5.0" stroke-linecap="round" stroke-linejoin="round" />
<path d="M 153.0 148.0 L 153.0 148.0 L 153.0 148.0 L 154.0 148.0 L 157.0 148.0 L 164.0 147.0 L 173.0 146.0 L 180.0 146.0 L 184.0 146.0 L 186.0 148.0 L 187.0 154.0 L 187.0 163.0 L 188.0 172.0 L 189.0 177.0 L 189.0 179.0 L 189.0 178.0 " stroke="black" fill="none" stroke-width="5.0" stroke-linecap="round" stroke-linejoin="round" />
<path d="M 154.0 159.0 L 154.0 159.0 L 154.0 160.0 L 155.0 160.0 L 159.0 160.0 L 167.0 160.0 L 177.0 160.0 L 181.0 160.0 L 182.0 161.0 L 182.0 162.0 " stroke="black" fill="none" stroke-width="5.0" stroke-linecap="round" stroke-linejoin="round" />
<path d="M 150.0 178.0 L 151.0 178.0 L 153.0 179.0 L 157.0 180.0 L 167.0 181.0 L 179.0 181.0 L 188.0 180.0 L 191.0 179.0 " stroke="black" fill="none" stroke-width="5.0" stroke-linecap="round" stroke-linejoin="round" />
</svg>