<svg xmlns="http://www.w3.org/2000/svg" width="300" height="300" viewBox="0 0 300 300">
<path d="M 118.0 118.0 L 118.0 118.0 L 119.0 118.0 L 120.0 118.0 L 123.0 118.0 L 129.0 118.0 L 137.0 118.0 " stroke="black" fill="none" stroke-width="5.0" stroke-linecap="round" stroke-linejoin="round" />
<path d="M 115.0 135.0 L 115.0 135.0 L 115.0 136.0 L 114.0 140.0 L 114.0 145.0 L 115.0 149.0 L 116.0 150.0 " stroke="black" fill="none" stroke-width="5.0" stroke-linecap="round" stroke-linejoin="round" />
<path d="M 115.0 133.0 L 115.0 133.0 L 116.0 133.0 L 117.0 133.0 L 118.0 133.0 L 120.0 133.0 L 124.0 133.0 L 129.0 132.0 L 134.0 132.0 L 138.0 132.0 L 141.0 135.0 L 142.0 142.0 L 143.0 148.0 L 143.0 152.0 " stroke="black" fill="none" stroke-width="5.0" stroke-linecap="round" stroke-linejoin="round" />
<path d="M 116.0 147.0 L 116.0 146.0 L 117.0 146.0 L 118.0 146.0 L 122.0 146.0 L 128.0 145.0 L 134.0 145.0 L 139.0 145.0 " stroke="black" fill="none" stroke-width="5.0" stroke-linecap="round" stroke-linejoin="round" />
<path d="M 113.0 159.0 L 113.0 160.0 L 117.0 161.0 L 127.0 161.0 L 137.0 159.0 " stroke="black" fill="none" stroke-width="5.0" stroke-linecap="round" stroke-linejoin="round" />
<path d="M 124.0 106.0 L 124.0 106.0 L 124.0 106.0 L 123.0 106.0 L 123.0 111.0 L 126.0 126.0 L 131.0 150.0 L 134.0 171.0 L 134.0 186.0 L 135.0 193.0 L 136.0 194.0 " stroke="black" fill="none" stroke-width="5.0" stroke-linecap="round" stroke-linejoin="round" />
<path d="M 112.0 176.0 L 113.0 176.0 L 114.0 175.0 L 117.0 175.0 L 125.0 174.0 L 138.0 174.0 L 148.0 174.0 " stroke="black" fill="none" stroke-width="5.0" stroke-linecap="round" stroke-linejoin="round" />
<path d="M 154.0 111.0 L 154.0 111.0 L 154.0 111.0 L 155.0 111.0 L 156.0 111.0 L 160.0 111.0 L 167.0 110.0 L 174.0 110.0 L 176.0 110.0 " stroke="black" fill="none" stroke-width="5.0" stroke-linecap="round" stroke-linejoin="round" />
<path d="M 151.0 122.0 L 151.0 123.0 L 151.0 123.0 L 151.0 124.0 L 151.0 127.0 L 152.0 130.0 " stroke="black" fill="none" stroke-width="5.0" stroke-linecap="round" stroke-linejoin="round" />
<path d="M 151.0 122.0 L 151.0 122.0 L 151.0 122.0 L 151.0 122.0 L 152.0 122.0 L 156.0 122.0 L 161.0 121.0 L 168.0 120.0 L 174.0 120.0 L 178.0 120.0 L 181.0 122.0 L 182.0 126.0 L 183.0 133.0 L 183.0 138.0 " stroke="black" fill="none" stroke-width="5.0" stroke-linecap="round" stroke-linejoin="round" />
<path d="M 153.0 132.0 L 153.0 132.0 L 153.0 132.0 L 153.0 132.0 L 154.0 132.0 L 159.0 131.0 L 166.0 131.0 L 172.0 131.0 L 176.0 131.0 L 176.0 131.0 " stroke="black" fill="none" stroke-width="5.0" stroke-linecap="round" stroke-linejoin="round" />
<path d="M 151.0 142.0 L 151.0 142.0 L 151.0 142.0 L 152.0 142.0 L 154.0 142.0 L 162.0 142.0 L 173.0 142.0 L 180.0 141.0 " stroke="black" fill="none" stroke-width="5.0" stroke-linecap="round" stroke-linejoin="round" />
<path d="M 161.0 104.0 L 161.0 103.0 L 161.0 103.0 L 161.0 103.0 L 163.0 111.0 L 166.0 127.0 L 168.0 145.0 L 170.0 156.0 L 170.0 159.0 " stroke="black" fill="none" stroke-width="5.0" stroke-linecap="round" stroke-linejoin="round" />
<path d="M 151.0 157.0 L 151.0 157.0 L 151.0 157.0 L 152.0 157.0 L 158.0 156.0 L 170.0 155.0 L 180.0 154.0 " stroke="black" fill="none" stroke-width="5.0" stroke-linecap="round" stroke-linejoin="round" />
<path d="M 188.0 149.0 L 188.0 149.0 L 188.0 151.0 L 189.0 156.0 L 191.0 160.0 L 191.0 161.0 " stroke="black" fill="none" stroke-width="5.0" stroke-linecap="round" stroke-linejoin="round" />
<path d="M 158.0 175.0 L 158.0 175.0 L 158.0 175.0 L 158.0 175.0 L 158.0 175.0 L 162.0 175.0 L 172.0 174.0 L 185.0 172.0 L 194.0 172.0 L 196.0 172.0 " stroke="black" fill="none" stroke-width="5.0" stroke-linecap="round" stroke-linejoin="round" />
<path d="M 178.0 161.0 L 178.0 163.0 L 178.0 166.0 L 180.0 173.0 L 183.0 183.0 L 185.0 194.0 L 186.0 202.0 L 186.0 205.0 L 185.0 205.0 L 181.0 203.0 L 174.0 201.0 L 169.0 200.0 " stroke="black" fill="none" stroke-width="5.0" stroke-linecap="round" stroke-linejoin="round" />
<path d="M 158.0 185.0 L 159.0 185.0 L 162.0 185.0 L 167.0 186.0 L 172.0 187.0 " stroke="black" fill="none" stroke-width="5.0" stroke-linecap="round" stroke-linejoin="round" />
</svg>