<svg xmlns="http://www.w3.org/2000/svg" width="300" height="300" viewBox="0 0 300 300">
<path d="M 116.0 130.0 L 116.0 130.0 L 116.0 130.0 L 116.0 131.0 L 117.0 133.0 L 119.0 136.0 L 121.0 141.0 " stroke="black" fill="none" stroke-width="5.0" stroke-linecap="round" stroke-linejoin="round" />
<path d="M 110.0 155.0 L 110.0 155.0 L 111.0 155.0 L 111.0 155.0 L 113.0 155.0 L 116.0 156.0 L 119.0 156.0 L 120.0 157.0 L 120.0 158.0 L 118.0 161.0 L 116.0 164.0 L 114.0 166.0 L 113.0 168.0 L 112.0 172.0 L 112.0 175.0 L 113.0 179.0 L 113.0 183.0 L 113.0 183.0 " stroke="black" fill="none" stroke-width="5.0" stroke-linecap="round" stroke-linejoin="round" />
<path d="M 98.0 194.0 L 98.0 194.0 L 97.0 195.0 L 96.0 195.0 L 96.0 195.0 L 99.0 195.0 L 103.0 193.0 L 109.0 192.0 L 116.0 191.0 L 123.0 191.0 L 132.0 195.0 L 143.0 202.0 L 155.0 209.0 L 168.0 211.0 L 184.0 209.0 L 198.0 202.0 " stroke="black" fill="none" stroke-width="5.0" stroke-linecap="round" stroke-linejoin="round" />
<path d="M 153.0 116.0 L 153.0 116.0 L 153.0 116.0 L 153.0 116.0 L 154.0 116.0 L 155.0 118.0 L 156.0 121.0 L 157.0 121.0 " stroke="black" fill="none" stroke-width="5.0" stroke-linecap="round" stroke-linejoin="round" />
<path d="M 169.0 111.0 L 169.0 111.0 L 169.0 111.0 L 169.0 111.0 L 169.0 112.0 L 169.0 117.0 L 166.0 126.0 L 165.0 128.0 " stroke="black" fill="none" stroke-width="5.0" stroke-linecap="round" stroke-linejoin="round" />
<path d="M 145.0 139.0 L 145.0 139.0 L 145.0 139.0 L 145.0 138.0 L 150.0 137.0 L 161.0 136.0 L 173.0 134.0 L 182.0 133.0 L 183.0 133.0 " stroke="black" fill="none" stroke-width="5.0" stroke-linecap="round" stroke-linejoin="round" />
<path d="M 163.0 141.0 L 163.0 141.0 L 164.0 141.0 L 164.0 141.0 L 164.0 141.0 L 163.0 142.0 L 159.0 146.0 L 152.0 152.0 L 145.0 157.0 L 143.0 159.0 " stroke="black" fill="none" stroke-width="5.0" stroke-linecap="round" stroke-linejoin="round" />
<path d="M 159.0 146.0 L 159.0 146.0 L 159.0 146.0 L 160.0 147.0 L 164.0 152.0 L 170.0 162.0 L 173.0 173.0 L 174.0 182.0 L 174.0 187.0 L 171.0 188.0 L 167.0 188.0 L 162.0 184.0 " stroke="black" fill="none" stroke-width="5.0" stroke-linecap="round" stroke-linejoin="round" />
<path d="M 164.0 154.0 L 164.0 154.0 L 164.0 154.0 L 164.0 154.0 L 164.0 154.0 L 164.0 154.0 L 163.0 156.0 L 157.0 161.0 L 150.0 167.0 L 148.0 168.0 " stroke="black" fill="none" stroke-width="5.0" stroke-linecap="round" stroke-linejoin="round" />
<path d="M 166.0 163.0 L 166.0 163.0 L 166.0 163.0 L 165.0 164.0 L 163.0 166.0 L 160.0 169.0 L 154.0 174.0 L 147.0 180.0 L 144.0 183.0 " stroke="black" fill="none" stroke-width="5.0" stroke-linecap="round" stroke-linejoin="round" />
<path d="M 168.0 159.0 L 169.0 159.0 L 169.0 159.0 L 170.0 158.0 L 174.0 157.0 L 180.0 154.0 L 188.0 151.0 L 190.0 150.0 " stroke="black" fill="none" stroke-width="5.0" stroke-linecap="round" stroke-linejoin="round" />
<path d="M 169.0 162.0 L 170.0 162.0 L 170.0 162.0 L 174.0 164.0 L 183.0 172.0 L 194.0 184.0 L 202.0 192.0 L 206.0 196.0 " stroke="black" fill="none" stroke-width="5.0" stroke-linecap="round" stroke-linejoin="round" />
</svg>