<svg xmlns="http://www.w3.org/2000/svg" width="300" height="300" viewBox="0 0 300 300">
<path d="M 118.0 122.0 L 118.0 122.0 L 118.0 122.0 L 118.0 122.0 L 119.0 124.0 L 120.0 127.0 " stroke="black" fill="none" stroke-width="5.0" stroke-linecap="round" stroke-linejoin="round" />
<path d="M 110.0 140.0 L 110.0 140.0 L 111.0 140.0 L 111.0 140.0 L 112.0 140.0 L 112.0 140.0 L 113.0 140.0 L 115.0 140.0 L 120.0 140.0 L 124.0 140.0 L 127.0 140.0 L 128.0 140.0 L 128.0 142.0 L 125.0 145.0 L 122.0 148.0 L 119.0 150.0 L 117.0 151.0 L 116.0 152.0 L 116.0 152.0 L 116.0 152.0 L 116.0 154.0 L 117.0 156.0 L 117.0 159.0 L 119.0 162.0 L 120.0 166.0 L 120.0 169.0 L 121.0 170.0 L 121.0 171.0 " stroke="black" fill="none" stroke-width="5.0" stroke-linecap="round" stroke-linejoin="round" />
<path d="M 105.0 186.0 L 105.0 186.0 L 105.0 186.0 L 105.0 185.0 L 106.0 184.0 L 108.0 183.0 L 113.0 182.0 L 119.0 182.0 L 129.0 182.0 L 141.0 183.0 L 155.0 187.0 L 169.0 191.0 L 183.0 191.0 L 188.0 190.0 " stroke="black" fill="none" stroke-width="5.0" stroke-linecap="round" stroke-linejoin="round" />
<path d="M 148.0 112.0 L 148.0 112.0 L 149.0 112.0 L 152.0 112.0 L 161.0 111.0 L 170.0 111.0 " stroke="black" fill="none" stroke-width="5.0" stroke-linecap="round" stroke-linejoin="round" />
<path d="M 143.0 126.0 L 143.0 126.0 L 143.0 127.0 L 142.0 129.0 L 142.0 133.0 L 143.0 137.0 L 144.0 142.0 L 144.0 143.0 " stroke="black" fill="none" stroke-width="5.0" stroke-linecap="round" stroke-linejoin="round" />
<path d="M 144.0 124.0 L 144.0 124.0 L 144.0 124.0 L 145.0 124.0 L 148.0 123.0 L 152.0 123.0 L 160.0 123.0 L 168.0 123.0 L 175.0 121.0 L 179.0 121.0 L 181.0 124.0 L 181.0 133.0 L 181.0 142.0 L 181.0 148.0 L 181.0 152.0 " stroke="black" fill="none" stroke-width="5.0" stroke-linecap="round" stroke-linejoin="round" />
<path d="M 145.0 135.0 L 145.0 135.0 L 145.0 135.0 L 146.0 135.0 L 149.0 134.0 L 157.0 134.0 L 167.0 134.0 L 175.0 134.0 L 177.0 134.0 L 177.0 135.0 " stroke="black" fill="none" stroke-width="5.0" stroke-linecap="round" stroke-linejoin="round" />
<path d="M 146.0 150.0 L 147.0 150.0 L 151.0 151.0 L 158.0 151.0 L 168.0 151.0 L 178.0 150.0 L 179.0 150.0 " stroke="black" fill="none" stroke-width="5.0" stroke-linecap="round" stroke-linejoin="round" />
<path d="M 158.0 95.0 L 158.0 95.0 L 159.0 96.0 L 159.0 100.0 L 160.0 115.0 L 162.0 137.0 L 164.0 156.0 L 165.0 168.0 L 165.0 174.0 L 165.0 177.0 " stroke="black" fill="none" stroke-width="5.0" stroke-linecap="round" stroke-linejoin="round" />
<path d="M 142.0 161.0 L 142.0 161.0 L 144.0 161.0 L 151.0 161.0 L 167.0 160.0 L 183.0 159.0 L 190.0 159.0 " stroke="black" fill="none" stroke-width="5.0" stroke-linecap="round" stroke-linejoin="round" />
</svg>