<svg xmlns="http://www.w3.org/2000/svg" width="300" height="300" viewBox="0 0 300 300">
<path d="M 117.0 113.0 L 118.0 113.0 L 118.0 113.0 L 119.0 113.0 L 122.0 113.0 L 128.0 112.0 L 137.0 112.0 L 141.0 112.0 " stroke="black" fill="none" stroke-width="5.0" stroke-linecap="round" stroke-linejoin="round" />
<path d="M 106.0 137.0 L 107.0 137.0 L 108.0 137.0 L 112.0 137.0 L 121.0 135.0 L 135.0 133.0 L 147.0 133.0 L 149.0 133.0 " stroke="black" fill="none" stroke-width="5.0" stroke-linecap="round" stroke-linejoin="round" />
<path d="M 129.0 102.0 L 129.0 102.0 L 129.0 102.0 L 129.0 102.0 L 130.0 106.0 L 131.0 116.0 L 131.0 126.0 " stroke="black" fill="none" stroke-width="5.0" stroke-linecap="round" stroke-linejoin="round" />
<path d="M 147.0 105.0 L 147.0 105.0 L 146.0 107.0 L 145.0 110.0 L 142.0 115.0 L 136.0 125.0 L 126.0 141.0 L 113.0 157.0 L 107.0 165.0 " stroke="black" fill="none" stroke-width="5.0" stroke-linecap="round" stroke-linejoin="round" />
<path d="M 123.0 152.0 L 123.0 152.0 L 122.0 152.0 L 121.0 152.0 L 122.0 152.0 L 126.0 152.0 L 131.0 152.0 L 135.0 151.0 L 139.0 151.0 L 142.0 151.0 L 143.0 151.0 L 144.0 153.0 L 145.0 162.0 L 147.0 174.0 L 149.0 187.0 L 150.0 194.0 L 151.0 195.0 " stroke="black" fill="none" stroke-width="5.0" stroke-linecap="round" stroke-linejoin="round" />
<path d="M 124.0 157.0 L 124.0 157.0 L 123.0 157.0 L 122.0 157.0 L 121.0 160.0 L 121.0 170.0 L 122.0 183.0 L 123.0 190.0 " stroke="black" fill="none" stroke-width="5.0" stroke-linecap="round" stroke-linejoin="round" />
<path d="M 125.0 171.0 L 125.0 171.0 L 124.0 171.0 L 124.0 171.0 L 129.0 171.0 L 137.0 171.0 L 145.0 170.0 L 148.0 170.0 " stroke="black" fill="none" stroke-width="5.0" stroke-linecap="round" stroke-linejoin="round" />
<path d="M 125.0 189.0 L 127.0 189.0 L 130.0 189.0 L 136.0 189.0 L 145.0 189.0 " stroke="black" fill="none" stroke-width="5.0" stroke-linecap="round" stroke-linejoin="round" />
<path d="M 161.0 113.0 L 161.0 113.0 L 161.0 113.0 L 161.0 113.0 L 162.0 113.0 L 167.0 113.0 L 175.0 112.0 L 182.0 111.0 L 186.0 111.0 L 187.0 112.0 L 186.0 114.0 L 184.0 117.0 L 181.0 120.0 L 179.0 124.0 L 178.0 127.0 L 178.0 131.0 L 180.0 134.0 L 185.0 136.0 L 189.0 137.0 L 191.0 138.0 L 192.0 139.0 L 190.0 140.0 L 185.0 143.0 L 182.0 145.0 " stroke="black" fill="none" stroke-width="5.0" stroke-linecap="round" stroke-linejoin="round" />
<path d="M 163.0 115.0 L 163.0 115.0 L 163.0 114.0 L 162.0 113.0 L 162.0 113.0 L 162.0 120.0 L 165.0 137.0 L 168.0 162.0 L 170.0 185.0 L 171.0 199.0 L 171.0 203.0 L 170.0 202.0 " stroke="black" fill="none" stroke-width="5.0" stroke-linecap="round" stroke-linejoin="round" />
</svg>