<svg xmlns="http://www.w3.org/2000/svg" width="300" height="300" viewBox="0 0 300 300">
<path d="M 118.0 124.0 L 118.0 124.0 L 118.0 124.0 L 119.0 126.0 L 120.0 130.0 L 121.0 131.0 " stroke="black" fill="none" stroke-width="5.0" stroke-linecap="round" stroke-linejoin="round" />
<path d="M 111.0 144.0 L 111.0 144.0 L 111.0 144.0 L 111.0 144.0 L 111.0 144.0 L 113.0 144.0 L 117.0 144.0 L 121.0 144.0 L 124.0 145.0 L 125.0 147.0 L 124.0 150.0 L 121.0 153.0 L 119.0 155.0 L 117.0 157.0 L 115.0 159.0 L 114.0 162.0 L 114.0 165.0 L 115.0 168.0 L 117.0 171.0 L 117.0 173.0 " stroke="black" fill="none" stroke-width="5.0" stroke-linecap="round" stroke-linejoin="round" />
<path d="M 103.0 186.0 L 103.0 186.0 L 102.0 186.0 L 102.0 186.0 L 102.0 185.0 L 104.0 184.0 L 111.0 181.0 L 119.0 179.0 L 129.0 179.0 L 137.0 181.0 L 146.0 185.0 L 155.0 189.0 L 166.0 192.0 L 177.0 193.0 L 186.0 193.0 L 188.0 193.0 " stroke="black" fill="none" stroke-width="5.0" stroke-linecap="round" stroke-linejoin="round" />
<path d="M 159.0 117.0 L 159.0 117.0 L 158.0 118.0 L 157.0 119.0 L 155.0 122.0 L 150.0 128.0 L 143.0 136.0 L 140.0 139.0 " stroke="black" fill="none" stroke-width="5.0" stroke-linecap="round" stroke-linejoin="round" />
<path d="M 160.0 122.0 L 160.0 122.0 L 161.0 123.0 L 162.0 123.0 L 165.0 125.0 L 172.0 129.0 L 179.0 134.0 L 184.0 138.0 " stroke="black" fill="none" stroke-width="5.0" stroke-linecap="round" stroke-linejoin="round" />
<path d="M 152.0 140.0 L 152.0 140.0 L 152.0 140.0 L 152.0 141.0 L 156.0 141.0 L 162.0 141.0 L 168.0 141.0 L 173.0 142.0 L 173.0 143.0 " stroke="black" fill="none" stroke-width="5.0" stroke-linecap="round" stroke-linejoin="round" />
<path d="M 146.0 154.0 L 146.0 154.0 L 146.0 154.0 L 148.0 154.0 L 151.0 154.0 L 159.0 154.0 L 169.0 154.0 L 178.0 155.0 L 182.0 156.0 L 182.0 156.0 " stroke="black" fill="none" stroke-width="5.0" stroke-linecap="round" stroke-linejoin="round" />
<path d="M 161.0 145.0 L 161.0 145.0 L 161.0 145.0 L 162.0 146.0 L 164.0 153.0 L 167.0 165.0 L 169.0 176.0 L 170.0 183.0 L 170.0 185.0 L 167.0 185.0 L 163.0 182.0 L 159.0 181.0 " stroke="black" fill="none" stroke-width="5.0" stroke-linecap="round" stroke-linejoin="round" />
<path d="M 151.0 162.0 L 151.0 162.0 L 151.0 162.0 L 150.0 162.0 L 148.0 165.0 L 146.0 169.0 L 145.0 172.0 " stroke="black" fill="none" stroke-width="5.0" stroke-linecap="round" stroke-linejoin="round" />
<path d="M 180.0 172.0 L 183.0 174.0 L 186.0 177.0 L 189.0 179.0 L 190.0 180.0 " stroke="black" fill="none" stroke-width="5.0" stroke-linecap="round" stroke-linejoin="round" />
</svg>