<svg xmlns="http://www.w3.org/2000/svg" width="300" height="300" viewBox="0 0 300 300">
<path d="M 120.0 129.0 L 120.0 129.0 L 120.0 131.0 L 121.0 133.0 L 124.0 139.0 L 125.0 142.0 " stroke="black" fill="none" stroke-width="5.0" stroke-linecap="round" stroke-linejoin="round" />
<path d="M 116.0 152.0 L 116.0 152.0 L 116.0 152.0 L 116.0 151.0 L 116.0 151.0 L 116.0 151.0 L 116.0 151.0 L 117.0 151.0 L 119.0 150.0 L 124.0 150.0 L 129.0 150.0 L 132.0 152.0 L 134.0 153.0 L 134.0 154.0 L 132.0 156.0 L 129.0 159.0 L 125.0 160.0 L 123.0 162.0 L 122.0 163.0 L 121.0 164.0 L 121.0 167.0 L 123.0 173.0 L 125.0 179.0 L 126.0 185.0 L 127.0 189.0 L 127.0 189.0 " stroke="black" fill="none" stroke-width="5.0" stroke-linecap="round" stroke-linejoin="round" />
<path d="M 108.0 196.0 L 108.0 196.0 L 108.0 196.0 L 108.0 196.0 L 108.0 196.0 L 109.0 195.0 L 111.0 194.0 L 117.0 192.0 L 127.0 192.0 L 141.0 193.0 L 156.0 196.0 L 172.0 198.0 L 189.0 198.0 L 196.0 198.0 " stroke="black" fill="none" stroke-width="5.0" stroke-linecap="round" stroke-linejoin="round" />
<path d="M 152.0 129.0 L 152.0 129.0 L 152.0 129.0 L 153.0 129.0 L 156.0 129.0 L 163.0 129.0 L 172.0 127.0 L 180.0 125.0 L 181.0 125.0 " stroke="black" fill="none" stroke-width="5.0" stroke-linecap="round" stroke-linejoin="round" />
<path d="M 168.0 129.0 L 168.0 129.0 L 168.0 129.0 L 168.0 130.0 L 166.0 132.0 L 162.0 136.0 L 155.0 143.0 L 148.0 150.0 L 146.0 151.0 " stroke="black" fill="none" stroke-width="5.0" stroke-linecap="round" stroke-linejoin="round" />
<path d="M 165.0 138.0 L 165.0 138.0 L 165.0 138.0 L 165.0 138.0 L 165.0 138.0 L 166.0 139.0 L 169.0 145.0 L 174.0 159.0 L 178.0 173.0 L 179.0 183.0 L 179.0 187.0 L 175.0 187.0 L 169.0 184.0 " stroke="black" fill="none" stroke-width="5.0" stroke-linecap="round" stroke-linejoin="round" />
<path d="M 167.0 149.0 L 168.0 149.0 L 168.0 149.0 L 168.0 149.0 L 168.0 150.0 L 166.0 153.0 L 161.0 159.0 L 157.0 162.0 " stroke="black" fill="none" stroke-width="5.0" stroke-linecap="round" stroke-linejoin="round" />
<path d="M 173.0 158.0 L 173.0 158.0 L 173.0 158.0 L 173.0 158.0 L 172.0 159.0 L 171.0 161.0 L 167.0 167.0 L 161.0 176.0 L 156.0 181.0 " stroke="black" fill="none" stroke-width="5.0" stroke-linecap="round" stroke-linejoin="round" />
<path d="M 175.0 156.0 L 175.0 156.0 L 175.0 156.0 L 175.0 156.0 L 176.0 156.0 L 179.0 155.0 L 184.0 153.0 L 189.0 149.0 L 193.0 146.0 " stroke="black" fill="none" stroke-width="5.0" stroke-linecap="round" stroke-linejoin="round" />
<path d="M 174.0 161.0 L 174.0 161.0 L 174.0 162.0 L 175.0 163.0 L 181.0 166.0 L 190.0 172.0 L 197.0 180.0 L 198.0 182.0 " stroke="black" fill="none" stroke-width="5.0" stroke-linecap="round" stroke-linejoin="round" />
</svg>