<svg xmlns="http://www.w3.org/2000/svg" width="300" height="300" viewBox="0 0 300 300">
<path d="M 111.0 128.0 L 111.0 128.0 L 111.0 129.0 L 112.0 129.0 L 113.0 130.0 L 118.0 130.0 L 126.0 130.0 L 135.0 129.0 L 137.0 129.0 " stroke="black" fill="none" stroke-width="5.0" stroke-linecap="round" stroke-linejoin="round" />
<path d="M 124.0 135.0 L 124.0 135.0 L 124.0 135.0 L 124.0 134.0 L 124.0 134.0 L 124.0 136.0 L 124.0 144.0 L 124.0 156.0 L 125.0 165.0 L 126.0 169.0 L 126.0 170.0 " stroke="black" fill="none" stroke-width="5.0" stroke-linecap="round" stroke-linejoin="round" />
<path d="M 108.0 174.0 L 108.0 174.0 L 108.0 175.0 L 109.0 176.0 L 113.0 176.0 L 121.0 175.0 L 130.0 174.0 L 136.0 173.0 L 140.0 173.0 L 140.0 173.0 " stroke="black" fill="none" stroke-width="5.0" stroke-linecap="round" stroke-linejoin="round" />
<path d="M 160.0 118.0 L 160.0 118.0 L 161.0 118.0 L 161.0 118.0 L 161.0 118.0 L 162.0 118.0 L 165.0 118.0 L 169.0 118.0 L 173.0 119.0 L 176.0 120.0 L 177.0 122.0 L 177.0 125.0 L 175.0 129.0 L 174.0 134.0 L 174.0 139.0 L 177.0 143.0 L 182.0 148.0 L 187.0 152.0 L 190.0 156.0 L 191.0 159.0 L 187.0 161.0 L 180.0 164.0 L 172.0 166.0 L 169.0 166.0 " stroke="black" fill="none" stroke-width="5.0" stroke-linecap="round" stroke-linejoin="round" />
<path d="M 156.0 122.0 L 156.0 122.0 L 156.0 122.0 L 157.0 122.0 L 157.0 122.0 L 157.0 123.0 L 157.0 128.0 L 157.0 145.0 L 157.0 172.0 L 157.0 194.0 L 156.0 204.0 L 156.0 206.0 L 156.0 203.0 " stroke="black" fill="none" stroke-width="5.0" stroke-linecap="round" stroke-linejoin="round" />
</svg>