<svg xmlns="http://www.w3.org/2000/svg" width="300" height="300" viewBox="0 0 300 300">
<path d="M 114.375 130.0 L 114.375 130.625 L 114.375 131.875 L 115.0 133.75 L 116.875 136.875 L 117.5 137.5 " stroke="black" fill="none" stroke-width="5.0" stroke-linecap="round" stroke-linejoin="round" />
<path d="M 111.875 149.375 L 111.875 149.375 L 111.875 149.375 L 111.875 149.375 L 112.5 149.375 L 115.625 149.375 L 118.125 149.375 L 120.625 150.625 L 120.625 151.875 L 120.0 153.75 L 117.5 156.25 L 115.0 158.75 L 113.125 160.625 L 112.5 163.125 L 112.5 165.625 L 114.375 168.75 L 115.625 171.875 L 116.875 175.0 L 116.875 176.875 " stroke="black" fill="none" stroke-width="5.0" stroke-linecap="round" stroke-linejoin="round" />
<path d="M 105.625 184.375 L 105.625 185.625 L 105.0 186.25 L 104.375 186.25 L 106.25 186.25 L 110.625 185.625 L 116.875 185.0 L 123.125 185.0 L 129.375 187.5 L 135.625 190.0 L 143.125 191.875 L 153.125 193.75 L 165.625 194.375 L 179.375 194.375 L 185.625 192.5 " stroke="black" fill="none" stroke-width="5.0" stroke-linecap="round" stroke-linejoin="round" />
<path d="M 145.0 113.75 L 145.0 113.75 L 145.0 113.75 L 145.0 114.375 L 145.0 115.625 L 145.0 117.5 L 145.625 120.625 L 146.25 121.875 " stroke="black" fill="none" stroke-width="5.0" stroke-linecap="round" stroke-linejoin="round" />
<path d="M 145.625 114.375 L 145.625 114.375 L 145.625 114.375 L 146.875 114.375 L 150.0 113.75 L 155.625 112.5 L 162.5 112.5 L 166.875 113.125 L 169.375 116.875 L 169.375 121.25 L 168.75 123.75 L 168.125 125.0 " stroke="black" fill="none" stroke-width="5.0" stroke-linecap="round" stroke-linejoin="round" />
<path d="M 146.875 125.625 L 146.875 125.625 L 146.875 126.25 L 146.875 126.25 L 148.125 126.875 L 153.75 126.875 L 161.875 126.875 L 166.25 126.25 " stroke="black" fill="none" stroke-width="5.0" stroke-linecap="round" stroke-linejoin="round" />
<path d="M 154.375 104.375 L 154.375 105.0 L 153.75 106.25 L 153.75 109.375 L 155.0 116.875 L 156.25 125.0 L 156.875 131.25 " stroke="black" fill="none" stroke-width="5.0" stroke-linecap="round" stroke-linejoin="round" />
<path d="M 136.25 136.875 L 136.25 136.875 L 136.25 136.875 L 136.875 136.875 L 140.625 136.875 L 150.0 136.875 L 163.125 135.625 L 173.125 135.0 L 176.875 135.0 L 176.875 135.625 " stroke="black" fill="none" stroke-width="5.0" stroke-linecap="round" stroke-linejoin="round" />
<path d="M 148.125 145.0 L 148.125 145.0 L 148.125 145.0 L 148.125 145.0 L 148.75 145.0 L 151.25 145.0 L 155.625 143.75 L 160.625 143.75 L 164.375 143.125 L 166.25 145.0 L 166.875 147.5 L 166.875 150.0 L 166.875 151.25 L 166.875 151.875 " stroke="black" fill="none" stroke-width="5.0" stroke-linecap="round" stroke-linejoin="round" />
<path d="M 148.125 153.75 L 148.125 153.75 L 148.75 153.75 L 150.625 153.75 L 154.375 153.75 L 160.625 153.125 L 165.0 151.875 L 166.875 151.875 " stroke="black" fill="none" stroke-width="5.0" stroke-linecap="round" stroke-linejoin="round" />
<path d="M 146.875 148.125 L 146.875 148.75 L 146.25 150.0 L 145.625 153.75 L 145.625 160.625 L 145.625 169.375 L 145.625 175.0 L 145.625 175.625 " stroke="black" fill="none" stroke-width="5.0" stroke-linecap="round" stroke-linejoin="round" />
<path d="M 147.5 164.375 L 147.5 164.375 L 147.5 164.375 L 147.5 164.375 L 147.5 165.0 L 149.375 165.0 L 153.125 164.375 L 158.125 163.75 L 161.875 163.75 L 164.375 166.25 L 165.625 170.0 L 166.25 173.125 L 166.25 175.0 L 166.25 175.625 " stroke="black" fill="none" stroke-width="5.0" stroke-linecap="round" stroke-linejoin="round" />
<path d="M 149.375 176.25 L 149.375 176.25 L 148.75 176.25 L 148.75 176.25 L 149.375 176.25 L 153.125 176.25 L 159.375 176.25 L 161.25 175.625 " stroke="black" fill="none" stroke-width="5.0" stroke-linecap="round" stroke-linejoin="round" />
</svg>