<svg xmlns="http://www.w3.org/2000/svg" width="300" height="300" viewBox="0 0 300 300">
<path d="M 119.0 127.0 L 119.0 127.0 L 119.0 127.0 L 120.0 127.0 L 121.0 129.0 L 122.0 131.0 " stroke="black" fill="none" stroke-width="5.0" stroke-linecap="round" stroke-linejoin="round" />
<path d="M 116.0 145.0 L 116.0 145.0 L 116.0 145.0 L 116.0 145.0 L 116.0 146.0 L 118.0 146.0 L 121.0 147.0 L 123.0 147.0 L 124.0 148.0 L 124.0 151.0 L 122.0 153.0 L 120.0 156.0 L 118.0 158.0 L 117.0 161.0 L 117.0 163.0 L 117.0 166.0 L 117.0 167.0 " stroke="black" fill="none" stroke-width="5.0" stroke-linecap="round" stroke-linejoin="round" />
<path d="M 108.0 184.0 L 108.0 184.0 L 109.0 184.0 L 110.0 184.0 L 110.0 184.0 L 112.0 183.0 L 114.0 182.0 L 117.0 181.0 L 122.0 180.0 L 128.0 180.0 L 134.0 180.0 L 140.0 183.0 L 147.0 188.0 L 155.0 193.0 L 164.0 196.0 L 175.0 198.0 L 184.0 198.0 L 187.0 198.0 " stroke="black" fill="none" stroke-width="5.0" stroke-linecap="round" stroke-linejoin="round" />
<path d="M 152.0 114.0 L 152.0 114.0 L 152.0 114.0 L 152.0 115.0 L 152.0 115.0 L 153.0 115.0 L 157.0 115.0 L 163.0 114.0 L 168.0 114.0 L 171.0 114.0 L 173.0 114.0 L 174.0 114.0 L 172.0 117.0 L 169.0 120.0 L 164.0 125.0 L 162.0 127.0 " stroke="black" fill="none" stroke-width="5.0" stroke-linecap="round" stroke-linejoin="round" />
<path d="M 153.0 124.0 L 153.0 124.0 L 153.0 124.0 L 153.0 124.0 L 154.0 125.0 L 156.0 127.0 L 159.0 130.0 L 160.0 130.0 " stroke="black" fill="none" stroke-width="5.0" stroke-linecap="round" stroke-linejoin="round" />
<path d="M 144.0 136.0 L 144.0 136.0 L 144.0 136.0 L 145.0 136.0 L 148.0 136.0 L 155.0 135.0 L 164.0 134.0 L 172.0 133.0 L 176.0 133.0 L 178.0 133.0 L 178.0 133.0 L 178.0 134.0 L 179.0 134.0 L 180.0 136.0 L 182.0 142.0 L 185.0 151.0 L 189.0 161.0 L 192.0 171.0 L 194.0 177.0 L 194.0 178.0 L 193.0 179.0 L 188.0 178.0 L 181.0 176.0 L 176.0 175.0 " stroke="black" fill="none" stroke-width="5.0" stroke-linecap="round" stroke-linejoin="round" />
<path d="M 147.0 138.0 L 147.0 138.0 L 147.0 137.0 L 147.0 137.0 L 146.0 140.0 L 146.0 147.0 L 145.0 158.0 L 144.0 168.0 L 144.0 169.0 " stroke="black" fill="none" stroke-width="5.0" stroke-linecap="round" stroke-linejoin="round" />
<path d="M 150.0 149.0 L 150.0 149.0 L 150.0 149.0 L 152.0 148.0 L 158.0 147.0 L 167.0 146.0 L 175.0 146.0 L 179.0 146.0 L 180.0 146.0 " stroke="black" fill="none" stroke-width="5.0" stroke-linecap="round" stroke-linejoin="round" />
<path d="M 152.0 161.0 L 152.0 161.0 L 152.0 162.0 L 155.0 162.0 L 163.0 162.0 L 174.0 161.0 L 182.0 159.0 " stroke="black" fill="none" stroke-width="5.0" stroke-linecap="round" stroke-linejoin="round" />
<path d="M 162.0 133.0 L 162.0 133.0 L 162.0 133.0 L 162.0 133.0 L 163.0 137.0 L 165.0 149.0 L 168.0 168.0 L 170.0 183.0 L 171.0 188.0 L 171.0 188.0 " stroke="black" fill="none" stroke-width="5.0" stroke-linecap="round" stroke-linejoin="round" />
</svg>