<svg xmlns="http://www.w3.org/2000/svg" width="300" height="300" viewBox="0 0 300 300">
<path d="M 115.0 122.0 L 116.0 122.0 L 116.0 123.0 L 117.0 125.0 L 119.0 130.0 L 121.0 135.0 L 122.0 136.0 " stroke="black" fill="none" stroke-width="5.0" stroke-linecap="round" stroke-linejoin="round" />
<path d="M 111.0 147.0 L 111.0 147.0 L 111.0 147.0 L 113.0 147.0 L 116.0 147.0 L 121.0 147.0 L 124.0 148.0 L 126.0 150.0 L 126.0 153.0 L 122.0 156.0 L 119.0 158.0 L 116.0 159.0 L 114.0 160.0 L 113.0 161.0 L 113.0 164.0 L 115.0 168.0 L 117.0 173.0 L 119.0 179.0 L 120.0 183.0 L 120.0 185.0 L 120.0 185.0 " stroke="black" fill="none" stroke-width="5.0" stroke-linecap="round" stroke-linejoin="round" />
<path d="M 105.0 193.0 L 105.0 193.0 L 105.0 192.0 L 106.0 192.0 L 108.0 191.0 L 112.0 190.0 L 119.0 189.0 L 127.0 189.0 L 136.0 191.0 L 145.0 194.0 L 155.0 196.0 L 166.0 197.0 L 175.0 198.0 L 183.0 198.0 L 188.0 196.0 L 191.0 194.0 " stroke="black" fill="none" stroke-width="5.0" stroke-linecap="round" stroke-linejoin="round" />
<path d="M 144.0 115.0 L 144.0 115.0 L 144.0 115.0 L 145.0 115.0 L 146.0 115.0 L 149.0 115.0 L 154.0 115.0 L 160.0 115.0 L 164.0 114.0 L 166.0 114.0 L 166.0 114.0 " stroke="black" fill="none" stroke-width="5.0" stroke-linecap="round" stroke-linejoin="round" />
<path d="M 147.0 129.0 L 147.0 129.0 L 147.0 129.0 L 148.0 129.0 L 149.0 129.0 L 153.0 129.0 L 159.0 129.0 L 165.0 128.0 L 168.0 128.0 " stroke="black" fill="none" stroke-width="5.0" stroke-linecap="round" stroke-linejoin="round" />
<path d="M 154.0 108.0 L 154.0 108.0 L 154.0 108.0 L 155.0 108.0 L 156.0 111.0 L 157.0 118.0 L 158.0 124.0 " stroke="black" fill="none" stroke-width="5.0" stroke-linecap="round" stroke-linejoin="round" />
<path d="M 154.0 134.0 L 154.0 134.0 L 154.0 134.0 L 154.0 134.0 L 154.0 134.0 L 154.0 136.0 L 156.0 138.0 L 156.0 140.0 " stroke="black" fill="none" stroke-width="5.0" stroke-linecap="round" stroke-linejoin="round" />
<path d="M 145.0 147.0 L 145.0 147.0 L 145.0 147.0 L 145.0 147.0 L 148.0 147.0 L 154.0 147.0 L 160.0 147.0 L 163.0 147.0 L 163.0 147.0 " stroke="black" fill="none" stroke-width="5.0" stroke-linecap="round" stroke-linejoin="round" />
<path d="M 150.0 150.0 L 150.0 150.0 L 149.0 151.0 L 149.0 153.0 L 149.0 157.0 L 149.0 163.0 L 148.0 170.0 L 147.0 175.0 L 146.0 177.0 L 146.0 177.0 " stroke="black" fill="none" stroke-width="5.0" stroke-linecap="round" stroke-linejoin="round" />
<path d="M 149.0 161.0 L 150.0 161.0 L 151.0 160.0 L 153.0 159.0 L 154.0 159.0 L 156.0 159.0 L 159.0 159.0 L 161.0 161.0 L 164.0 164.0 L 167.0 169.0 L 169.0 175.0 L 169.0 180.0 L 169.0 183.0 L 168.0 184.0 L 164.0 185.0 L 159.0 184.0 L 156.0 182.0 " stroke="black" fill="none" stroke-width="5.0" stroke-linecap="round" stroke-linejoin="round" />
<path d="M 184.0 123.0 L 184.0 123.0 L 184.0 123.0 L 184.0 123.0 L 184.0 123.0 L 183.0 125.0 L 181.0 133.0 L 176.0 144.0 L 173.0 150.0 " stroke="black" fill="none" stroke-width="5.0" stroke-linecap="round" stroke-linejoin="round" />
<path d="M 183.0 135.0 L 183.0 135.0 L 184.0 135.0 L 187.0 135.0 L 192.0 135.0 L 198.0 135.0 L 201.0 135.0 " stroke="black" fill="none" stroke-width="5.0" stroke-linecap="round" stroke-linejoin="round" />
<path d="M 197.0 139.0 L 197.0 139.0 L 196.0 140.0 L 196.0 141.0 L 195.0 144.0 L 195.0 151.0 L 193.0 160.0 L 189.0 170.0 L 185.0 178.0 L 184.0 179.0 " stroke="black" fill="none" stroke-width="5.0" stroke-linecap="round" stroke-linejoin="round" />
<path d="M 184.0 148.0 L 184.0 148.0 L 184.0 148.0 L 187.0 152.0 L 193.0 162.0 L 203.0 176.0 L 210.0 184.0 L 213.0 187.0 " stroke="black" fill="none" stroke-width="5.0" stroke-linecap="round" stroke-linejoin="round" />
</svg>