<svg xmlns="http://www.w3.org/2000/svg" width="300" height="300" viewBox="0 0 300 300">
<path d="M 115.0 127.0 L 115.0 128.0 L 116.0 128.0 L 116.0 128.0 L 116.0 130.0 L 118.0 132.0 L 119.0 134.0 " stroke="black" fill="none" stroke-width="5.0" stroke-linecap="round" stroke-linejoin="round" />
<path d="M 111.0 145.0 L 113.0 145.0 L 114.0 144.0 L 116.0 144.0 L 117.0 144.0 L 119.0 144.0 L 121.0 145.0 L 122.0 147.0 L 122.0 150.0 L 121.0 151.0 L 116.0 157.0 L 112.0 161.0 L 110.0 163.0 L 109.0 165.0 L 109.0 167.0 L 111.0 169.0 L 112.0 170.0 L 113.0 172.0 L 114.0 174.0 " stroke="black" fill="none" stroke-width="5.0" stroke-linecap="round" stroke-linejoin="round" />
<path d="M 101.0 186.0 L 100.0 186.0 L 99.0 186.0 L 99.0 185.0 L 101.0 185.0 L 106.0 184.0 L 114.0 184.0 L 123.0 185.0 L 129.0 186.0 L 143.0 191.0 L 155.0 194.0 L 164.0 195.0 L 174.0 196.0 L 180.0 196.0 L 184.0 194.0 " stroke="black" fill="none" stroke-width="5.0" stroke-linecap="round" stroke-linejoin="round" />
<path d="M 140.0 113.0 L 139.0 113.0 L 139.0 113.0 L 138.0 114.0 L 138.0 117.0 L 139.0 120.0 L 140.0 124.0 L 140.0 125.0 " stroke="black" fill="none" stroke-width="5.0" stroke-linecap="round" stroke-linejoin="round" />
<path d="M 141.0 113.0 L 141.0 113.0 L 142.0 113.0 L 144.0 113.0 L 150.0 113.0 L 159.0 113.0 L 169.0 113.0 L 177.0 113.0 L 182.0 114.0 L 184.0 117.0 L 184.0 121.0 L 184.0 127.0 L 184.0 130.0 L 184.0 131.0 " stroke="black" fill="none" stroke-width="5.0" stroke-linecap="round" stroke-linejoin="round" />
<path d="M 143.0 131.0 L 143.0 131.0 L 143.0 131.0 L 143.0 131.0 L 143.0 131.0 L 143.0 131.0 L 144.0 131.0 L 147.0 131.0 L 153.0 131.0 L 169.0 131.0 L 178.0 131.0 L 184.0 131.0 L 184.0 131.0 L 184.0 131.0 " stroke="black" fill="none" stroke-width="5.0" stroke-linecap="round" stroke-linejoin="round" />
<path d="M 155.0 116.0 L 155.0 116.0 L 156.0 116.0 L 156.0 116.0 L 156.0 123.0 L 156.0 127.0 L 156.0 131.0 " stroke="black" fill="none" stroke-width="5.0" stroke-linecap="round" stroke-linejoin="round" />
<path d="M 167.0 116.0 L 168.0 116.0 L 169.0 116.0 L 169.0 123.0 L 169.0 130.0 L 168.0 133.0 " stroke="black" fill="none" stroke-width="5.0" stroke-linecap="round" stroke-linejoin="round" />
<path d="M 155.0 140.0 L 155.0 139.0 L 155.0 139.0 L 156.0 139.0 L 156.0 139.0 L 156.0 144.0 L 156.0 151.0 L 157.0 165.0 L 157.0 178.0 L 157.0 181.0 " stroke="black" fill="none" stroke-width="5.0" stroke-linecap="round" stroke-linejoin="round" />
<path d="M 141.0 149.0 L 141.0 149.0 L 141.0 149.0 L 142.0 149.0 L 143.0 151.0 L 145.0 152.0 " stroke="black" fill="none" stroke-width="5.0" stroke-linecap="round" stroke-linejoin="round" />
<path d="M 130.0 172.0 L 130.0 172.0 L 130.0 173.0 L 131.0 174.0 L 135.0 174.0 L 142.0 170.0 L 148.0 167.0 L 151.0 164.0 " stroke="black" fill="none" stroke-width="5.0" stroke-linecap="round" stroke-linejoin="round" />
<path d="M 173.0 148.0 L 174.0 148.0 L 174.0 147.0 L 174.0 147.0 L 174.0 147.0 L 173.0 149.0 L 170.0 152.0 L 167.0 154.0 " stroke="black" fill="none" stroke-width="5.0" stroke-linecap="round" stroke-linejoin="round" />
<path d="M 161.0 163.0 L 163.0 164.0 L 163.0 164.0 L 164.0 164.0 L 173.0 170.0 L 180.0 173.0 L 186.0 176.0 " stroke="black" fill="none" stroke-width="5.0" stroke-linecap="round" stroke-linejoin="round" />
</svg>