<svg xmlns="http://www.w3.org/2000/svg" width="300" height="300" viewBox="0 0 300 300">
<path d="M 122.0 131.0 L 122.0 131.0 L 123.0 131.0 L 123.0 131.0 L 125.0 133.0 L 126.0 136.0 L 128.0 139.0 L 129.0 140.0 " stroke="black" fill="none" stroke-width="5.0" stroke-linecap="round" stroke-linejoin="round" />
<path d="M 120.0 153.0 L 120.0 153.0 L 122.0 153.0 L 123.0 153.0 L 125.0 153.0 L 126.0 154.0 L 128.0 154.0 L 129.0 155.0 L 130.0 157.0 L 130.0 159.0 L 127.0 162.0 L 124.0 165.0 L 121.0 168.0 L 119.0 170.0 L 119.0 173.0 L 119.0 175.0 L 120.0 176.0 L 121.0 178.0 L 121.0 179.0 " stroke="black" fill="none" stroke-width="5.0" stroke-linecap="round" stroke-linejoin="round" />
<path d="M 107.0 193.0 L 107.0 193.0 L 106.0 193.0 L 106.0 192.0 L 106.0 191.0 L 109.0 190.0 L 114.0 189.0 L 121.0 187.0 L 129.0 187.0 L 140.0 187.0 L 151.0 189.0 L 162.0 192.0 L 174.0 195.0 L 185.0 196.0 L 193.0 196.0 L 197.0 194.0 " stroke="black" fill="none" stroke-width="5.0" stroke-linecap="round" stroke-linejoin="round" />
<path d="M 162.0 114.0 L 162.0 114.0 L 162.0 114.0 L 162.0 114.0 L 161.0 117.0 L 158.0 123.0 L 153.0 131.0 L 148.0 138.0 L 147.0 139.0 " stroke="black" fill="none" stroke-width="5.0" stroke-linecap="round" stroke-linejoin="round" />
<path d="M 157.0 123.0 L 158.0 123.0 L 158.0 123.0 L 161.0 123.0 L 166.0 123.0 L 172.0 124.0 L 176.0 125.0 L 178.0 126.0 L 178.0 129.0 L 177.0 133.0 L 172.0 138.0 L 165.0 144.0 L 157.0 148.0 L 151.0 151.0 L 150.0 152.0 " stroke="black" fill="none" stroke-width="5.0" stroke-linecap="round" stroke-linejoin="round" />
<path d="M 157.0 134.0 L 158.0 134.0 L 160.0 134.0 L 163.0 135.0 L 169.0 138.0 L 177.0 141.0 L 184.0 143.0 L 187.0 144.0 L 188.0 144.0 " stroke="black" fill="none" stroke-width="5.0" stroke-linecap="round" stroke-linejoin="round" />
<path d="M 161.0 152.0 L 161.0 152.0 L 162.0 152.0 L 163.0 152.0 L 166.0 152.0 L 170.0 152.0 L 174.0 152.0 L 178.0 152.0 L 179.0 152.0 L 178.0 152.0 " stroke="black" fill="none" stroke-width="5.0" stroke-linecap="round" stroke-linejoin="round" />
<path d="M 159.0 159.0 L 161.0 159.0 L 163.0 160.0 L 167.0 161.0 L 171.0 161.0 L 175.0 161.0 L 178.0 161.0 L 178.0 162.0 L 177.0 162.0 " stroke="black" fill="none" stroke-width="5.0" stroke-linecap="round" stroke-linejoin="round" />
<path d="M 152.0 170.0 L 152.0 170.0 L 153.0 171.0 L 156.0 172.0 L 163.0 173.0 L 174.0 173.0 L 183.0 173.0 L 188.0 172.0 " stroke="black" fill="none" stroke-width="5.0" stroke-linecap="round" stroke-linejoin="round" />
<path d="M 168.0 144.0 L 168.0 144.0 L 168.0 144.0 L 168.0 143.0 L 168.0 143.0 L 169.0 148.0 L 171.0 160.0 L 173.0 175.0 L 174.0 185.0 L 174.0 187.0 " stroke="black" fill="none" stroke-width="5.0" stroke-linecap="round" stroke-linejoin="round" />
</svg>