<svg xmlns="http://www.w3.org/2000/svg" width="300" height="300" viewBox="0 0 300 300">
<path d="M 113.0 124.0 L 113.0 124.0 L 113.0 125.0 L 114.0 128.0 L 116.0 132.0 L 117.0 135.0 " stroke="black" fill="none" stroke-width="5.0" stroke-linecap="round" stroke-linejoin="round" />
<path d="M 110.0 148.0 L 110.0 148.0 L 110.0 148.0 L 110.0 148.0 L 110.0 148.0 L 111.0 148.0 L 113.0 149.0 L 116.0 150.0 L 118.0 152.0 L 119.0 153.0 L 119.0 157.0 L 117.0 159.0 L 115.0 161.0 L 113.0 163.0 L 112.0 164.0 L 112.0 167.0 L 113.0 171.0 L 114.0 176.0 L 115.0 181.0 L 116.0 185.0 L 116.0 185.0 " stroke="black" fill="none" stroke-width="5.0" stroke-linecap="round" stroke-linejoin="round" />
<path d="M 104.0 192.0 L 106.0 191.0 L 108.0 191.0 L 111.0 191.0 L 115.0 191.0 L 121.0 191.0 L 132.0 192.0 L 145.0 195.0 L 158.0 198.0 L 172.0 199.0 L 187.0 196.0 " stroke="black" fill="none" stroke-width="5.0" stroke-linecap="round" stroke-linejoin="round" />
<path d="M 155.0 111.0 L 155.0 111.0 L 155.0 111.0 L 155.0 111.0 L 155.0 115.0 L 156.0 123.0 L 157.0 132.0 L 157.0 136.0 " stroke="black" fill="none" stroke-width="5.0" stroke-linecap="round" stroke-linejoin="round" />
<path d="M 145.0 119.0 L 145.0 119.0 L 145.0 119.0 L 145.0 120.0 L 145.0 121.0 L 148.0 124.0 " stroke="black" fill="none" stroke-width="5.0" stroke-linecap="round" stroke-linejoin="round" />
<path d="M 172.0 121.0 L 172.0 121.0 L 171.0 121.0 L 170.0 122.0 L 168.0 125.0 L 165.0 130.0 L 164.0 132.0 " stroke="black" fill="none" stroke-width="5.0" stroke-linecap="round" stroke-linejoin="round" />
<path d="M 144.0 141.0 L 144.0 141.0 L 144.0 141.0 L 143.0 141.0 L 143.0 141.0 L 143.0 148.0 L 142.0 162.0 L 142.0 176.0 L 142.0 182.0 L 142.0 182.0 " stroke="black" fill="none" stroke-width="5.0" stroke-linecap="round" stroke-linejoin="round" />
<path d="M 148.0 140.0 L 148.0 140.0 L 148.0 140.0 L 148.0 139.0 L 148.0 139.0 L 152.0 138.0 L 156.0 137.0 L 161.0 137.0 L 166.0 137.0 L 169.0 137.0 L 172.0 139.0 L 175.0 146.0 L 178.0 157.0 L 180.0 167.0 L 182.0 175.0 L 182.0 180.0 L 179.0 181.0 L 174.0 182.0 L 166.0 182.0 L 161.0 180.0 " stroke="black" fill="none" stroke-width="5.0" stroke-linecap="round" stroke-linejoin="round" />
<path d="M 149.0 151.0 L 149.0 151.0 L 148.0 151.0 L 152.0 152.0 L 160.0 152.0 L 169.0 152.0 L 175.0 153.0 L 175.0 153.0 " stroke="black" fill="none" stroke-width="5.0" stroke-linecap="round" stroke-linejoin="round" />
<path d="M 150.0 163.0 L 151.0 163.0 L 152.0 164.0 L 156.0 165.0 L 165.0 165.0 L 177.0 163.0 " stroke="black" fill="none" stroke-width="5.0" stroke-linecap="round" stroke-linejoin="round" />
</svg>