<svg xmlns="http://www.w3.org/2000/svg" width="300" height="300" viewBox="0 0 300 300">
<path d="M 119.0 121.0 L 119.0 122.0 L 119.0 122.0 L 119.0 124.0 L 120.0 127.0 L 121.0 130.0 " stroke="black" fill="none" stroke-width="5.0" stroke-linecap="round" stroke-linejoin="round" />
<path d="M 112.0 149.0 L 112.0 149.0 L 114.0 149.0 L 116.0 149.0 L 120.0 150.0 L 124.0 151.0 L 128.0 152.0 L 129.0 155.0 L 127.0 159.0 L 123.0 163.0 L 119.0 165.0 L 117.0 167.0 L 115.0 170.0 L 115.0 173.0 L 116.0 178.0 L 118.0 184.0 L 120.0 188.0 L 122.0 192.0 L 122.0 193.0 L 122.0 193.0 " stroke="black" fill="none" stroke-width="5.0" stroke-linecap="round" stroke-linejoin="round" />
<path d="M 107.0 198.0 L 106.0 198.0 L 105.0 198.0 L 105.0 198.0 L 107.0 197.0 L 113.0 196.0 L 121.0 195.0 L 130.0 194.0 L 138.0 195.0 L 146.0 198.0 L 155.0 202.0 L 165.0 205.0 L 175.0 208.0 L 182.0 210.0 L 189.0 210.0 L 194.0 208.0 L 195.0 206.0 " stroke="black" fill="none" stroke-width="5.0" stroke-linecap="round" stroke-linejoin="round" />
<path d="M 148.0 120.0 L 148.0 120.0 L 148.0 120.0 L 148.0 120.0 L 148.0 120.0 L 148.0 120.0 L 148.0 125.0 L 148.0 140.0 L 147.0 159.0 L 146.0 174.0 L 145.0 182.0 L 145.0 183.0 L 145.0 183.0 " stroke="black" fill="none" stroke-width="5.0" stroke-linecap="round" stroke-linejoin="round" />
<path d="M 150.0 116.0 L 150.0 116.0 L 150.0 116.0 L 150.0 116.0 L 153.0 116.0 L 160.0 116.0 L 170.0 116.0 L 178.0 116.0 L 183.0 117.0 L 186.0 119.0 L 188.0 123.0 L 191.0 133.0 L 194.0 147.0 L 197.0 163.0 L 199.0 176.0 L 200.0 184.0 L 200.0 187.0 L 199.0 188.0 L 195.0 188.0 L 188.0 188.0 L 177.0 188.0 L 175.0 187.0 " stroke="black" fill="none" stroke-width="5.0" stroke-linecap="round" stroke-linejoin="round" />
<path d="M 161.0 133.0 L 161.0 133.0 L 161.0 133.0 L 161.0 133.0 L 162.0 134.0 L 167.0 134.0 L 175.0 134.0 L 180.0 134.0 L 182.0 135.0 " stroke="black" fill="none" stroke-width="5.0" stroke-linecap="round" stroke-linejoin="round" />
<path d="M 159.0 149.0 L 161.0 149.0 L 164.0 149.0 L 169.0 149.0 L 176.0 149.0 L 181.0 149.0 " stroke="black" fill="none" stroke-width="5.0" stroke-linecap="round" stroke-linejoin="round" />
<path d="M 169.0 126.0 L 169.0 126.0 L 169.0 126.0 L 169.0 126.0 L 169.0 130.0 L 170.0 139.0 L 172.0 151.0 L 172.0 153.0 " stroke="black" fill="none" stroke-width="5.0" stroke-linecap="round" stroke-linejoin="round" />
<path d="M 157.0 164.0 L 157.0 164.0 L 157.0 164.0 L 157.0 165.0 L 157.0 167.0 L 158.0 170.0 L 159.0 173.0 L 159.0 174.0 " stroke="black" fill="none" stroke-width="5.0" stroke-linecap="round" stroke-linejoin="round" />
<path d="M 160.0 162.0 L 161.0 162.0 L 162.0 162.0 L 165.0 162.0 L 169.0 162.0 L 175.0 162.0 L 180.0 163.0 L 184.0 166.0 L 187.0 170.0 L 188.0 173.0 L 188.0 176.0 L 187.0 176.0 " stroke="black" fill="none" stroke-width="5.0" stroke-linecap="round" stroke-linejoin="round" />
<path d="M 164.0 177.0 L 164.0 177.0 L 166.0 177.0 L 168.0 178.0 L 172.0 178.0 L 179.0 178.0 L 182.0 178.0 " stroke="black" fill="none" stroke-width="5.0" stroke-linecap="round" stroke-linejoin="round" />
</svg>