<svg xmlns="http://www.w3.org/2000/svg" width="300" height="300" viewBox="0 0 300 300">
<path d="M 121.0 122.0 L 121.0 122.0 L 121.0 123.0 L 122.0 125.0 L 122.0 127.0 " stroke="black" fill="none" stroke-width="5.0" stroke-linecap="round" stroke-linejoin="round" />
<path d="M 116.0 145.0 L 116.0 145.0 L 117.0 145.0 L 117.0 145.0 L 119.0 145.0 L 123.0 145.0 L 128.0 145.0 L 131.0 145.0 L 132.0 146.0 L 132.0 148.0 L 128.0 151.0 L 124.0 156.0 L 122.0 160.0 L 120.0 164.0 L 120.0 168.0 L 121.0 171.0 L 122.0 174.0 L 122.0 175.0 " stroke="black" fill="none" stroke-width="5.0" stroke-linecap="round" stroke-linejoin="round" />
<path d="M 106.0 189.0 L 106.0 189.0 L 106.0 188.0 L 107.0 187.0 L 112.0 185.0 L 120.0 182.0 L 129.0 181.0 L 137.0 182.0 L 145.0 187.0 L 155.0 192.0 L 169.0 194.0 L 184.0 194.0 L 193.0 190.0 " stroke="black" fill="none" stroke-width="5.0" stroke-linecap="round" stroke-linejoin="round" />
<path d="M 156.0 108.0 L 156.0 108.0 L 156.0 108.0 L 156.0 110.0 L 157.0 113.0 L 159.0 117.0 " stroke="black" fill="none" stroke-width="5.0" stroke-linecap="round" stroke-linejoin="round" />
<path d="M 177.0 110.0 L 177.0 110.0 L 177.0 111.0 L 176.0 112.0 L 174.0 115.0 L 171.0 119.0 " stroke="black" fill="none" stroke-width="5.0" stroke-linecap="round" stroke-linejoin="round" />
<path d="M 147.0 125.0 L 147.0 125.0 L 148.0 125.0 L 149.0 125.0 L 154.0 125.0 L 163.0 123.0 L 175.0 122.0 L 182.0 122.0 L 184.0 123.0 " stroke="black" fill="none" stroke-width="5.0" stroke-linecap="round" stroke-linejoin="round" />
<path d="M 164.0 128.0 L 164.0 128.0 L 165.0 128.0 L 164.0 129.0 L 162.0 130.0 L 159.0 133.0 L 155.0 136.0 L 153.0 139.0 L 152.0 140.0 L 152.0 140.0 L 155.0 140.0 L 161.0 140.0 L 167.0 140.0 L 175.0 140.0 L 181.0 139.0 L 183.0 139.0 L 184.0 140.0 L 184.0 147.0 L 186.0 158.0 L 189.0 170.0 L 192.0 179.0 L 194.0 184.0 L 194.0 184.0 " stroke="black" fill="none" stroke-width="5.0" stroke-linecap="round" stroke-linejoin="round" />
<path d="M 151.0 142.0 L 151.0 142.0 L 151.0 143.0 L 151.0 147.0 L 151.0 156.0 L 151.0 169.0 L 152.0 174.0 " stroke="black" fill="none" stroke-width="5.0" stroke-linecap="round" stroke-linejoin="round" />
<path d="M 155.0 150.0 L 157.0 150.0 L 159.0 150.0 L 164.0 150.0 L 173.0 150.0 L 181.0 150.0 L 184.0 151.0 L 184.0 151.0 " stroke="black" fill="none" stroke-width="5.0" stroke-linecap="round" stroke-linejoin="round" />
<path d="M 154.0 161.0 L 155.0 161.0 L 157.0 161.0 L 162.0 162.0 L 170.0 162.0 L 178.0 162.0 L 181.0 163.0 " stroke="black" fill="none" stroke-width="5.0" stroke-linecap="round" stroke-linejoin="round" />
<path d="M 150.0 175.0 L 152.0 175.0 L 155.0 176.0 L 160.0 176.0 L 169.0 177.0 L 181.0 178.0 L 190.0 179.0 " stroke="black" fill="none" stroke-width="5.0" stroke-linecap="round" stroke-linejoin="round" />
</svg>