<svg xmlns="http://www.w3.org/2000/svg" width="300" height="300" viewBox="0 0 300 300">
<path d="M 115.0 133.0 L 115.0 133.0 L 115.0 133.0 L 115.0 133.0 L 115.0 134.0 L 116.0 136.0 L 119.0 139.0 " stroke="black" fill="none" stroke-width="5.0" stroke-linecap="round" stroke-linejoin="round" />
<path d="M 113.0 159.0 L 113.0 159.0 L 113.0 159.0 L 113.0 159.0 L 113.0 159.0 L 114.0 159.0 L 117.0 159.0 L 120.0 160.0 L 123.0 161.0 L 124.0 162.0 L 124.0 164.0 L 121.0 166.0 L 118.0 169.0 L 116.0 172.0 L 114.0 174.0 L 113.0 177.0 L 113.0 181.0 L 115.0 185.0 L 116.0 189.0 L 117.0 191.0 " stroke="black" fill="none" stroke-width="5.0" stroke-linecap="round" stroke-linejoin="round" />
<path d="M 105.0 199.0 L 105.0 199.0 L 104.0 199.0 L 103.0 199.0 L 103.0 199.0 L 107.0 197.0 L 113.0 196.0 L 122.0 195.0 L 134.0 195.0 L 147.0 197.0 L 159.0 200.0 L 173.0 202.0 L 187.0 202.0 L 194.0 202.0 " stroke="black" fill="none" stroke-width="5.0" stroke-linecap="round" stroke-linejoin="round" />
<path d="M 152.0 121.0 L 152.0 121.0 L 152.0 121.0 L 153.0 121.0 L 155.0 121.0 L 160.0 122.0 L 166.0 122.0 L 171.0 122.0 " stroke="black" fill="none" stroke-width="5.0" stroke-linecap="round" stroke-linejoin="round" />
<path d="M 141.0 137.0 L 141.0 137.0 L 141.0 137.0 L 142.0 137.0 L 146.0 137.0 L 155.0 137.0 L 166.0 136.0 L 176.0 136.0 L 179.0 136.0 " stroke="black" fill="none" stroke-width="5.0" stroke-linecap="round" stroke-linejoin="round" />
<path d="M 159.0 111.0 L 159.0 111.0 L 159.0 111.0 L 159.0 111.0 L 159.0 111.0 L 160.0 115.0 L 162.0 124.0 L 162.0 126.0 " stroke="black" fill="none" stroke-width="5.0" stroke-linecap="round" stroke-linejoin="round" />
<path d="M 150.0 140.0 L 150.0 140.0 L 150.0 139.0 L 150.0 139.0 L 151.0 140.0 L 152.0 142.0 L 154.0 146.0 " stroke="black" fill="none" stroke-width="5.0" stroke-linecap="round" stroke-linejoin="round" />
<path d="M 170.0 138.0 L 170.0 139.0 L 169.0 140.0 L 168.0 143.0 L 167.0 147.0 L 167.0 148.0 " stroke="black" fill="none" stroke-width="5.0" stroke-linecap="round" stroke-linejoin="round" />
<path d="M 148.0 155.0 L 148.0 155.0 L 148.0 155.0 L 148.0 155.0 L 150.0 155.0 L 155.0 155.0 L 165.0 155.0 L 174.0 154.0 L 180.0 154.0 L 181.0 154.0 " stroke="black" fill="none" stroke-width="5.0" stroke-linecap="round" stroke-linejoin="round" />
<path d="M 143.0 170.0 L 143.0 170.0 L 143.0 171.0 L 143.0 171.0 L 147.0 171.0 L 158.0 171.0 L 171.0 170.0 L 181.0 168.0 L 186.0 167.0 " stroke="black" fill="none" stroke-width="5.0" stroke-linecap="round" stroke-linejoin="round" />
<path d="M 159.0 158.0 L 159.0 158.0 L 159.0 158.0 L 159.0 158.0 L 159.0 158.0 L 160.0 163.0 L 162.0 177.0 L 163.0 191.0 L 164.0 200.0 " stroke="black" fill="none" stroke-width="5.0" stroke-linecap="round" stroke-linejoin="round" />
</svg>