<svg xmlns="http://www.w3.org/2000/svg" width="300" height="300" viewBox="0 0 300 300">
<path d="M 117.14285714285718 132.14285714285717 L 117.14285714285718 132.14285714285717 L 116.42857142857146 132.8571428571429 L 116.42857142857146 134.28571428571433 L 117.85714285714288 137.8571428571429 L 120.71428571428574 141.42857142857144 " stroke="black" fill="none" stroke-width="5.0" stroke-linecap="round" stroke-linejoin="round" />
<path d="M 110.71428571428574 153.5714285714286 L 110.71428571428574 153.5714285714286 L 110.00000000000001 153.5714285714286 L 110.00000000000001 153.5714285714286 L 110.71428571428574 153.5714285714286 L 113.5714285714286 153.5714285714286 L 116.42857142857146 154.28571428571433 L 119.28571428571432 155.00000000000006 L 120.00000000000001 156.42857142857144 L 120.00000000000001 157.8571428571429 L 119.28571428571432 159.28571428571433 L 117.14285714285718 161.42857142857144 L 115.71428571428574 162.8571428571429 L 114.28571428571432 165.00000000000006 L 113.5714285714286 167.14285714285717 L 113.5714285714286 169.28571428571433 L 114.28571428571432 172.14285714285717 L 115.71428571428574 176.42857142857144 L 117.14285714285718 182.14285714285717 L 117.85714285714288 187.8571428571429 L 117.85714285714288 189.28571428571433 " stroke="black" fill="none" stroke-width="5.0" stroke-linecap="round" stroke-linejoin="round" />
<path d="M 100.00000000000001 199.28571428571433 L 100.71428571428574 198.5714285714286 L 101.42857142857146 198.5714285714286 L 102.85714285714288 197.14285714285722 L 107.85714285714288 195.71428571428578 L 115.00000000000001 195.00000000000006 L 123.5714285714286 195.00000000000006 L 131.42857142857144 196.4285714285715 L 140.71428571428572 199.28571428571433 L 152.14285714285717 203.5714285714286 L 164.28571428571433 205.71428571428578 L 178.5714285714286 206.4285714285715 L 188.5714285714286 204.28571428571433 " stroke="black" fill="none" stroke-width="5.0" stroke-linecap="round" stroke-linejoin="round" />
<path d="M 168.5714285714286 108.5714285714286 L 168.5714285714286 108.5714285714286 L 168.5714285714286 108.5714285714286 L 168.5714285714286 108.5714285714286 L 168.5714285714286 109.28571428571432 L 165.71428571428572 111.42857142857146 L 159.28571428571433 117.14285714285718 L 150.00000000000006 125.00000000000001 L 140.71428571428572 130.00000000000006 L 139.28571428571433 130.71428571428572 " stroke="black" fill="none" stroke-width="5.0" stroke-linecap="round" stroke-linejoin="round" />
<path d="M 162.14285714285717 117.85714285714288 L 162.14285714285717 117.85714285714288 L 162.14285714285717 117.85714285714288 L 162.14285714285717 117.85714285714288 L 163.5714285714286 118.5714285714286 L 165.71428571428572 118.5714285714286 L 168.5714285714286 120.00000000000001 L 171.42857142857144 121.42857142857146 L 172.8571428571429 124.28571428571432 L 172.8571428571429 127.14285714285718 L 167.8571428571429 132.14285714285717 L 160.00000000000006 138.5714285714286 L 150.71428571428572 145.00000000000006 L 146.42857142857144 147.14285714285717 " stroke="black" fill="none" stroke-width="5.0" stroke-linecap="round" stroke-linejoin="round" />
<path d="M 156.42857142857144 124.28571428571432 L 156.42857142857144 124.28571428571432 L 157.14285714285717 124.28571428571432 L 159.28571428571433 125.00000000000001 L 162.14285714285717 125.71428571428574 L 162.14285714285717 126.42857142857146 " stroke="black" fill="none" stroke-width="5.0" stroke-linecap="round" stroke-linejoin="round" />
<path d="M 147.8571428571429 132.8571428571429 L 147.8571428571429 132.8571428571429 L 148.5714285714286 133.5714285714286 L 150.71428571428572 133.5714285714286 L 155.71428571428572 133.5714285714286 L 160.71428571428572 133.5714285714286 " stroke="black" fill="none" stroke-width="5.0" stroke-linecap="round" stroke-linejoin="round" />
<path d="M 158.5714285714286 142.14285714285717 L 159.28571428571433 141.42857142857144 L 159.28571428571433 141.42857142857144 L 159.28571428571433 140.71428571428572 L 159.28571428571433 142.14285714285717 L 157.14285714285717 145.71428571428572 L 152.14285714285717 152.14285714285717 L 145.00000000000006 158.5714285714286 " stroke="black" fill="none" stroke-width="5.0" stroke-linecap="round" stroke-linejoin="round" />
<path d="M 154.28571428571433 151.42857142857144 L 155.00000000000006 151.42857142857144 L 155.71428571428572 151.42857142857144 L 156.42857142857144 151.42857142857144 L 157.14285714285717 151.42857142857144 L 157.8571428571429 151.42857142857144 L 161.42857142857144 151.42857142857144 L 166.42857142857144 151.42857142857144 L 172.8571428571429 150.00000000000006 L 174.28571428571433 150.00000000000006 " stroke="black" fill="none" stroke-width="5.0" stroke-linecap="round" stroke-linejoin="round" />
<path d="M 141.42857142857144 169.28571428571433 L 141.42857142857144 169.28571428571433 L 141.42857142857144 169.28571428571433 L 142.14285714285717 169.28571428571433 L 147.14285714285717 169.28571428571433 L 156.42857142857144 167.8571428571429 L 167.14285714285717 165.71428571428572 L 176.42857142857144 164.28571428571433 L 180.00000000000006 163.5714285714286 " stroke="black" fill="none" stroke-width="5.0" stroke-linecap="round" stroke-linejoin="round" />
<path d="M 162.14285714285717 156.42857142857144 L 162.14285714285717 156.42857142857144 L 162.14285714285717 156.42857142857144 L 162.14285714285717 156.42857142857144 L 162.14285714285717 159.28571428571433 L 162.14285714285717 166.42857142857144 L 162.14285714285717 175.71428571428578 L 162.14285714285717 181.42857142857144 " stroke="black" fill="none" stroke-width="5.0" stroke-linecap="round" stroke-linejoin="round" />
<path d="M 146.42857142857144 177.8571428571429 L 146.42857142857144 177.8571428571429 L 146.42857142857144 178.5714285714286 L 146.42857142857144 179.28571428571433 L 146.42857142857144 180.71428571428578 L 146.42857142857144 182.8571428571429 L 147.8571428571429 185.71428571428578 L 149.28571428571433 188.5714285714286 L 150.71428571428572 190.00000000000006 L 154.28571428571433 190.71428571428578 L 160.71428571428572 190.71428571428578 L 168.5714285714286 190.00000000000006 L 175.00000000000006 189.28571428571433 L 179.28571428571433 189.28571428571433 L 180.71428571428578 187.8571428571429 L 182.14285714285717 184.28571428571433 L 182.8571428571429 179.28571428571433 L 182.8571428571429 175.00000000000006 " stroke="black" fill="none" stroke-width="5.0" stroke-linecap="round" stroke-linejoin="round" />
</svg>