<svg xmlns="http://www.w3.org/2000/svg" width="300" height="300" viewBox="0 0 300 300">
<path d="M 115.0 131.0 L 116.0 133.0 L 117.0 135.0 L 118.0 139.0 L 119.0 141.0 " stroke="black" fill="none" stroke-width="5.0" stroke-linecap="round" stroke-linejoin="round" />
<path d="M 107.0 154.0 L 107.0 154.0 L 107.0 154.0 L 108.0 154.0 L 109.0 154.0 L 111.0 154.0 L 116.0 154.0 L 121.0 154.0 L 124.0 154.0 L 124.0 157.0 L 120.0 161.0 L 116.0 165.0 L 113.0 168.0 L 113.0 171.0 L 113.0 175.0 L 113.0 179.0 L 114.0 183.0 L 114.0 184.0 " stroke="black" fill="none" stroke-width="5.0" stroke-linecap="round" stroke-linejoin="round" />
<path d="M 97.0 192.0 L 97.0 192.0 L 97.0 191.0 L 98.0 190.0 L 101.0 189.0 L 108.0 186.0 L 119.0 184.0 L 132.0 184.0 L 145.0 189.0 L 157.0 195.0 L 170.0 199.0 L 182.0 200.0 L 190.0 198.0 " stroke="black" fill="none" stroke-width="5.0" stroke-linecap="round" stroke-linejoin="round" />
<path d="M 146.0 120.0 L 146.0 120.0 L 146.0 120.0 L 146.0 120.0 L 146.0 120.0 L 146.0 122.0 L 147.0 127.0 L 148.0 132.0 " stroke="black" fill="none" stroke-width="5.0" stroke-linecap="round" stroke-linejoin="round" />
<path d="M 148.0 115.0 L 148.0 114.0 L 148.0 114.0 L 149.0 113.0 L 152.0 112.0 L 158.0 111.0 L 165.0 111.0 L 171.0 111.0 L 175.0 112.0 L 178.0 115.0 L 179.0 122.0 L 180.0 131.0 L 181.0 137.0 L 181.0 141.0 " stroke="black" fill="none" stroke-width="5.0" stroke-linecap="round" stroke-linejoin="round" />
<path d="M 164.0 139.0 L 164.0 139.0 L 164.0 138.0 L 164.0 137.0 L 164.0 136.0 L 164.0 135.0 L 163.0 133.0 L 163.0 132.0 L 162.0 130.0 L 161.0 130.0 L 161.0 129.0 L 161.0 129.0 L 163.0 129.0 L 168.0 129.0 L 173.0 130.0 L 178.0 131.0 L 181.0 132.0 " stroke="black" fill="none" stroke-width="5.0" stroke-linecap="round" stroke-linejoin="round" />
<path d="M 140.0 141.0 L 140.0 141.0 L 140.0 141.0 L 140.0 141.0 L 140.0 142.0 L 141.0 150.0 L 141.0 162.0 L 141.0 172.0 L 142.0 176.0 L 142.0 176.0 " stroke="black" fill="none" stroke-width="5.0" stroke-linecap="round" stroke-linejoin="round" />
<path d="M 140.0 142.0 L 140.0 142.0 L 140.0 142.0 L 140.0 141.0 L 142.0 141.0 L 148.0 141.0 L 156.0 140.0 L 166.0 140.0 L 174.0 139.0 L 180.0 139.0 L 185.0 139.0 L 188.0 140.0 L 189.0 142.0 L 190.0 146.0 L 191.0 152.0 L 193.0 160.0 L 195.0 168.0 L 196.0 174.0 L 196.0 177.0 L 195.0 178.0 L 191.0 179.0 L 184.0 179.0 L 172.0 179.0 " stroke="black" fill="none" stroke-width="5.0" stroke-linecap="round" stroke-linejoin="round" />
<path d="M 154.0 157.0 L 154.0 157.0 L 155.0 157.0 L 155.0 157.0 L 155.0 157.0 L 156.0 160.0 L 156.0 164.0 L 157.0 165.0 " stroke="black" fill="none" stroke-width="5.0" stroke-linecap="round" stroke-linejoin="round" />
<path d="M 156.0 157.0 L 157.0 157.0 L 158.0 157.0 L 159.0 157.0 L 161.0 157.0 L 164.0 156.0 L 167.0 156.0 L 170.0 157.0 L 172.0 160.0 L 174.0 165.0 L 175.0 168.0 L 175.0 169.0 " stroke="black" fill="none" stroke-width="5.0" stroke-linecap="round" stroke-linejoin="round" />
<path d="M 155.0 169.0 L 156.0 170.0 L 156.0 171.0 L 159.0 171.0 L 166.0 171.0 L 174.0 171.0 " stroke="black" fill="none" stroke-width="5.0" stroke-linecap="round" stroke-linejoin="round" />
</svg>