<svg xmlns="http://www.w3.org/2000/svg" width="300" height="300" viewBox="0 0 300 300">
<path d="M 113.0 124.0 L 113.0 125.0 L 114.0 127.0 L 115.0 132.0 L 117.0 137.0 L 118.0 139.0 " stroke="black" fill="none" stroke-width="5.0" stroke-linecap="round" stroke-linejoin="round" />
<path d="M 107.0 155.0 L 107.0 155.0 L 107.0 155.0 L 107.0 156.0 L 108.0 156.0 L 108.0 156.0 L 110.0 157.0 L 112.0 157.0 L 113.0 158.0 L 114.0 159.0 L 114.0 160.0 L 113.0 162.0 L 111.0 165.0 L 110.0 167.0 L 110.0 171.0 L 110.0 176.0 L 110.0 182.0 L 111.0 187.0 L 112.0 189.0 " stroke="black" fill="none" stroke-width="5.0" stroke-linecap="round" stroke-linejoin="round" />
<path d="M 101.0 197.0 L 101.0 197.0 L 100.0 198.0 L 100.0 198.0 L 101.0 198.0 L 108.0 197.0 L 118.0 197.0 L 132.0 199.0 L 148.0 204.0 L 163.0 207.0 L 178.0 209.0 L 192.0 210.0 L 195.0 209.0 " stroke="black" fill="none" stroke-width="5.0" stroke-linecap="round" stroke-linejoin="round" />
<path d="M 148.0 107.0 L 148.0 107.0 L 148.0 107.0 L 148.0 107.0 L 148.0 107.0 L 148.0 107.0 L 152.0 107.0 L 158.0 107.0 L 165.0 107.0 L 172.0 107.0 L 177.0 107.0 L 180.0 108.0 L 182.0 109.0 L 182.0 109.0 L 182.0 111.0 L 183.0 114.0 L 183.0 118.0 L 183.0 122.0 L 183.0 126.0 L 183.0 130.0 " stroke="black" fill="none" stroke-width="5.0" stroke-linecap="round" stroke-linejoin="round" />
<path d="M 149.0 122.0 L 148.0 123.0 L 148.0 123.0 L 148.0 123.0 L 154.0 124.0 L 165.0 124.0 L 176.0 124.0 L 183.0 124.0 " stroke="black" fill="none" stroke-width="5.0" stroke-linecap="round" stroke-linejoin="round" />
<path d="M 145.0 111.0 L 145.0 111.0 L 144.0 113.0 L 143.0 115.0 L 143.0 121.0 L 143.0 133.0 L 139.0 151.0 L 134.0 168.0 L 129.0 179.0 L 126.0 183.0 " stroke="black" fill="none" stroke-width="5.0" stroke-linecap="round" stroke-linejoin="round" />
<path d="M 167.0 126.0 L 167.0 127.0 L 167.0 130.0 L 167.0 132.0 L 168.0 137.0 L 168.0 142.0 L 169.0 148.0 L 169.0 152.0 " stroke="black" fill="none" stroke-width="5.0" stroke-linecap="round" stroke-linejoin="round" />
<path d="M 154.0 134.0 L 154.0 134.0 L 155.0 135.0 L 156.0 136.0 L 158.0 137.0 L 160.0 137.0 L 161.0 137.0 " stroke="black" fill="none" stroke-width="5.0" stroke-linecap="round" stroke-linejoin="round" />
<path d="M 150.0 146.0 L 150.0 146.0 L 150.0 146.0 L 150.0 146.0 L 152.0 145.0 L 156.0 143.0 " stroke="black" fill="none" stroke-width="5.0" stroke-linecap="round" stroke-linejoin="round" />
<path d="M 173.0 137.0 L 173.0 137.0 L 174.0 136.0 L 175.0 135.0 L 177.0 133.0 L 180.0 133.0 L 181.0 133.0 " stroke="black" fill="none" stroke-width="5.0" stroke-linecap="round" stroke-linejoin="round" />
<path d="M 177.0 144.0 L 177.0 145.0 L 178.0 148.0 L 181.0 150.0 L 184.0 152.0 L 185.0 153.0 " stroke="black" fill="none" stroke-width="5.0" stroke-linecap="round" stroke-linejoin="round" />
<path d="M 158.0 156.0 L 158.0 156.0 L 158.0 156.0 L 158.0 156.0 L 158.0 158.0 L 157.0 161.0 L 154.0 167.0 L 151.0 172.0 " stroke="black" fill="none" stroke-width="5.0" stroke-linecap="round" stroke-linejoin="round" />
<path d="M 155.0 167.0 L 156.0 167.0 L 158.0 168.0 L 162.0 168.0 L 168.0 168.0 L 174.0 168.0 L 178.0 168.0 L 179.0 168.0 " stroke="black" fill="none" stroke-width="5.0" stroke-linecap="round" stroke-linejoin="round" />
<path d="M 148.0 183.0 L 148.0 183.0 L 149.0 184.0 L 153.0 184.0 L 162.0 184.0 L 175.0 183.0 L 183.0 182.0 L 184.0 182.0 " stroke="black" fill="none" stroke-width="5.0" stroke-linecap="round" stroke-linejoin="round" />
<path d="M 166.0 160.0 L 166.0 160.0 L 166.0 160.0 L 166.0 160.0 L 166.0 164.0 L 166.0 173.0 L 167.0 186.0 L 167.0 198.0 L 166.0 199.0 " stroke="black" fill="none" stroke-width="5.0" stroke-linecap="round" stroke-linejoin="round" />
</svg>