<svg xmlns="http://www.w3.org/2000/svg" width="300" height="300" viewBox="0 0 300 300">
<path d="M 118.0 126.0 L 119.0 127.0 L 119.0 127.0 L 119.0 127.0 L 120.0 128.0 L 122.0 134.0 L 122.0 137.0 " stroke="black" fill="none" stroke-width="5.0" stroke-linecap="round" stroke-linejoin="round" />
<path d="M 114.0 151.0 L 115.0 151.0 L 117.0 151.0 L 119.0 151.0 L 121.0 152.0 L 123.0 152.0 L 125.0 154.0 L 126.0 155.0 L 123.0 160.0 L 121.0 161.0 L 116.0 166.0 L 115.0 168.0 L 113.0 170.0 L 113.0 173.0 L 114.0 176.0 L 115.0 181.0 L 116.0 184.0 L 116.0 187.0 " stroke="black" fill="none" stroke-width="5.0" stroke-linecap="round" stroke-linejoin="round" />
<path d="M 104.0 195.0 L 104.0 195.0 L 104.0 194.0 L 104.0 194.0 L 105.0 193.0 L 111.0 191.0 L 121.0 191.0 L 129.0 191.0 L 143.0 194.0 L 152.0 197.0 L 170.0 199.0 L 176.0 199.0 L 187.0 197.0 L 190.0 195.0 " stroke="black" fill="none" stroke-width="5.0" stroke-linecap="round" stroke-linejoin="round" />
<path d="M 138.0 133.0 L 138.0 133.0 L 138.0 133.0 L 138.0 133.0 L 138.0 134.0 L 142.0 134.0 L 147.0 135.0 L 152.0 135.0 L 154.0 135.0 " stroke="black" fill="none" stroke-width="5.0" stroke-linecap="round" stroke-linejoin="round" />
<path d="M 143.0 117.0 L 142.0 117.0 L 142.0 117.0 L 142.0 119.0 L 142.0 123.0 L 146.0 144.0 L 148.0 158.0 L 149.0 176.0 L 149.0 182.0 L 149.0 183.0 L 148.0 183.0 L 145.0 182.0 L 136.0 176.0 L 134.0 173.0 L 132.0 172.0 " stroke="black" fill="none" stroke-width="5.0" stroke-linecap="round" stroke-linejoin="round" />
<path d="M 130.0 157.0 L 131.0 157.0 L 131.0 157.0 L 137.0 158.0 L 140.0 158.0 L 152.0 156.0 L 158.0 154.0 L 159.0 153.0 " stroke="black" fill="none" stroke-width="5.0" stroke-linecap="round" stroke-linejoin="round" />
<path d="M 173.0 123.0 L 173.0 123.0 L 173.0 123.0 L 173.0 123.0 L 173.0 125.0 L 173.0 128.0 L 171.0 131.0 L 168.0 135.0 L 165.0 137.0 L 163.0 138.0 L 162.0 139.0 L 161.0 140.0 L 161.0 148.0 L 161.0 153.0 L 160.0 167.0 L 160.0 175.0 L 160.0 183.0 L 160.0 184.0 " stroke="black" fill="none" stroke-width="5.0" stroke-linecap="round" stroke-linejoin="round" />
<path d="M 163.0 147.0 L 166.0 147.0 L 168.0 147.0 L 173.0 147.0 L 179.0 146.0 L 183.0 145.0 L 186.0 145.0 L 187.0 145.0 " stroke="black" fill="none" stroke-width="5.0" stroke-linecap="round" stroke-linejoin="round" />
<path d="M 176.0 148.0 L 176.0 151.0 L 176.0 155.0 L 176.0 162.0 L 180.0 177.0 L 182.0 185.0 L 182.0 189.0 " stroke="black" fill="none" stroke-width="5.0" stroke-linecap="round" stroke-linejoin="round" />
</svg>