<svg xmlns="http://www.w3.org/2000/svg" width="300" height="300" viewBox="0 0 300 300">
<path d="M 115.0 136.0 L 115.0 136.0 L 115.0 136.0 L 115.0 136.0 L 115.0 138.0 L 116.0 141.0 L 117.0 143.0 " stroke="black" fill="none" stroke-width="5.0" stroke-linecap="round" stroke-linejoin="round" />
<path d="M 108.0 160.0 L 108.0 160.0 L 108.0 160.0 L 108.0 160.0 L 109.0 160.0 L 112.0 160.0 L 116.0 160.0 L 120.0 160.0 L 122.0 160.0 L 121.0 162.0 L 117.0 166.0 L 114.0 169.0 L 112.0 173.0 L 110.0 176.0 L 110.0 181.0 L 109.0 185.0 L 109.0 188.0 " stroke="black" fill="none" stroke-width="5.0" stroke-linecap="round" stroke-linejoin="round" />
<path d="M 96.0 198.0 L 95.0 198.0 L 94.0 199.0 L 94.0 199.0 L 100.0 197.0 L 107.0 195.0 L 116.0 194.0 L 125.0 195.0 L 136.0 198.0 L 150.0 203.0 L 165.0 206.0 L 177.0 207.0 L 182.0 206.0 " stroke="black" fill="none" stroke-width="5.0" stroke-linecap="round" stroke-linejoin="round" />
<path d="M 140.0 125.0 L 140.0 125.0 L 140.0 125.0 L 140.0 125.0 L 140.0 125.0 L 141.0 125.0 L 142.0 125.0 L 144.0 125.0 L 146.0 125.0 L 148.0 125.0 L 149.0 126.0 L 150.0 128.0 L 152.0 132.0 L 152.0 138.0 L 153.0 144.0 L 153.0 146.0 L 153.0 147.0 " stroke="black" fill="none" stroke-width="5.0" stroke-linecap="round" stroke-linejoin="round" />
<path d="M 137.0 148.0 L 137.0 148.0 L 136.0 148.0 L 136.0 148.0 L 139.0 148.0 L 145.0 148.0 L 151.0 148.0 " stroke="black" fill="none" stroke-width="5.0" stroke-linecap="round" stroke-linejoin="round" />
<path d="M 136.0 132.0 L 135.0 133.0 L 135.0 136.0 L 135.0 143.0 L 136.0 156.0 L 137.0 173.0 L 139.0 186.0 L 140.0 190.0 " stroke="black" fill="none" stroke-width="5.0" stroke-linecap="round" stroke-linejoin="round" />
<path d="M 139.0 163.0 L 139.0 163.0 L 139.0 163.0 L 139.0 163.0 L 141.0 163.0 L 146.0 163.0 L 152.0 163.0 L 154.0 163.0 " stroke="black" fill="none" stroke-width="5.0" stroke-linecap="round" stroke-linejoin="round" />
<path d="M 138.0 175.0 L 137.0 175.0 L 137.0 176.0 L 140.0 177.0 L 149.0 177.0 " stroke="black" fill="none" stroke-width="5.0" stroke-linecap="round" stroke-linejoin="round" />
<path d="M 165.0 129.0 L 166.0 129.0 L 167.0 129.0 L 168.0 129.0 L 169.0 129.0 L 171.0 130.0 L 174.0 131.0 L 176.0 132.0 L 177.0 135.0 L 178.0 138.0 L 179.0 141.0 L 181.0 144.0 L 181.0 147.0 L 181.0 148.0 L 180.0 148.0 L 177.0 148.0 L 172.0 148.0 L 168.0 148.0 " stroke="black" fill="none" stroke-width="5.0" stroke-linecap="round" stroke-linejoin="round" />
<path d="M 165.0 160.0 L 165.0 160.0 L 167.0 161.0 L 169.0 162.0 L 174.0 162.0 L 178.0 163.0 L 182.0 163.0 L 183.0 165.0 L 183.0 169.0 L 180.0 176.0 L 175.0 184.0 L 169.0 191.0 L 165.0 194.0 " stroke="black" fill="none" stroke-width="5.0" stroke-linecap="round" stroke-linejoin="round" />
<path d="M 161.0 171.0 L 162.0 171.0 L 165.0 172.0 L 172.0 176.0 L 183.0 184.0 L 194.0 192.0 L 199.0 197.0 L 199.0 198.0 " stroke="black" fill="none" stroke-width="5.0" stroke-linecap="round" stroke-linejoin="round" />
</svg>