<svg xmlns="http://www.w3.org/2000/svg" width="300" height="300" viewBox="0 0 300 300">
<path d="M 119.0 126.0 L 119.0 126.0 L 119.0 127.0 L 119.0 129.0 L 121.0 132.0 L 121.0 133.0 " stroke="black" fill="none" stroke-width="5.0" stroke-linecap="round" stroke-linejoin="round" />
<path d="M 111.0 152.0 L 111.0 152.0 L 111.0 152.0 L 111.0 152.0 L 111.0 151.0 L 111.0 151.0 L 113.0 151.0 L 116.0 151.0 L 120.0 152.0 L 123.0 153.0 L 125.0 154.0 L 125.0 156.0 L 124.0 158.0 L 121.0 161.0 L 118.0 164.0 L 116.0 166.0 L 114.0 168.0 L 114.0 169.0 L 114.0 172.0 L 115.0 176.0 L 116.0 181.0 L 117.0 186.0 L 118.0 188.0 " stroke="black" fill="none" stroke-width="5.0" stroke-linecap="round" stroke-linejoin="round" />
<path d="M 106.0 204.0 L 106.0 205.0 L 106.0 205.0 L 107.0 205.0 L 108.0 205.0 L 110.0 203.0 L 115.0 200.0 L 122.0 199.0 L 130.0 198.0 L 138.0 200.0 L 146.0 203.0 L 156.0 207.0 L 169.0 209.0 L 181.0 210.0 L 191.0 210.0 L 196.0 209.0 " stroke="black" fill="none" stroke-width="5.0" stroke-linecap="round" stroke-linejoin="round" />
<path d="M 159.0 115.0 L 159.0 115.0 L 159.0 115.0 L 159.0 115.0 L 159.0 116.0 L 158.0 118.0 L 156.0 121.0 L 153.0 124.0 " stroke="black" fill="none" stroke-width="5.0" stroke-linecap="round" stroke-linejoin="round" />
<path d="M 157.0 122.0 L 157.0 122.0 L 157.0 122.0 L 157.0 123.0 L 158.0 123.0 L 161.0 123.0 L 165.0 123.0 L 169.0 123.0 L 172.0 124.0 L 174.0 126.0 L 173.0 129.0 L 169.0 134.0 L 162.0 140.0 " stroke="black" fill="none" stroke-width="5.0" stroke-linecap="round" stroke-linejoin="round" />
<path d="M 144.0 144.0 L 144.0 144.0 L 143.0 144.0 L 143.0 144.0 L 143.0 144.0 L 143.0 146.0 L 143.0 150.0 L 145.0 153.0 L 145.0 154.0 " stroke="black" fill="none" stroke-width="5.0" stroke-linecap="round" stroke-linejoin="round" />
<path d="M 144.0 143.0 L 144.0 143.0 L 143.0 143.0 L 143.0 143.0 L 144.0 142.0 L 148.0 142.0 L 155.0 142.0 L 164.0 141.0 L 174.0 141.0 L 182.0 141.0 L 187.0 142.0 L 190.0 146.0 L 190.0 151.0 L 190.0 156.0 L 190.0 157.0 " stroke="black" fill="none" stroke-width="5.0" stroke-linecap="round" stroke-linejoin="round" />
<path d="M 144.0 159.0 L 144.0 159.0 L 143.0 159.0 L 143.0 159.0 L 143.0 159.0 L 147.0 159.0 L 155.0 159.0 L 166.0 158.0 L 178.0 157.0 L 182.0 157.0 " stroke="black" fill="none" stroke-width="5.0" stroke-linecap="round" stroke-linejoin="round" />
<path d="M 160.0 145.0 L 160.0 145.0 L 160.0 145.0 L 160.0 146.0 L 160.0 150.0 L 159.0 159.0 L 155.0 172.0 L 150.0 183.0 L 147.0 189.0 " stroke="black" fill="none" stroke-width="5.0" stroke-linecap="round" stroke-linejoin="round" />
<path d="M 167.0 160.0 L 167.0 160.0 L 167.0 160.0 L 167.0 160.0 L 166.0 160.0 L 166.0 163.0 L 166.0 169.0 L 166.0 178.0 L 167.0 185.0 L 170.0 190.0 L 175.0 193.0 L 183.0 194.0 L 191.0 194.0 L 197.0 194.0 L 201.0 192.0 L 201.0 190.0 L 201.0 189.0 L 201.0 188.0 " stroke="black" fill="none" stroke-width="5.0" stroke-linecap="round" stroke-linejoin="round" />
<path d="M 184.0 170.0 L 184.0 170.0 L 184.0 171.0 L 184.0 175.0 L 185.0 178.0 " stroke="black" fill="none" stroke-width="5.0" stroke-linecap="round" stroke-linejoin="round" />
</svg>