<svg xmlns="http://www.w3.org/2000/svg" width="300" height="300" viewBox="0 0 300 300">
<path d="M 115.0 119.0 L 116.0 119.0 L 116.0 119.0 L 117.0 119.0 L 118.0 119.0 L 119.0 121.0 L 120.0 124.0 L 122.0 127.0 L 122.0 128.0 " stroke="black" fill="none" stroke-width="5.0" stroke-linecap="round" stroke-linejoin="round" />
<path d="M 112.0 140.0 L 113.0 140.0 L 115.0 140.0 L 117.0 140.0 L 120.0 140.0 L 124.0 140.0 L 128.0 140.0 L 131.0 140.0 L 131.0 142.0 L 130.0 145.0 L 125.0 148.0 L 121.0 151.0 L 117.0 153.0 L 115.0 154.0 L 114.0 156.0 L 114.0 159.0 L 116.0 163.0 L 118.0 168.0 L 119.0 174.0 L 120.0 178.0 L 121.0 180.0 L 121.0 181.0 " stroke="black" fill="none" stroke-width="5.0" stroke-linecap="round" stroke-linejoin="round" />
<path d="M 103.0 187.0 L 103.0 186.0 L 103.0 186.0 L 105.0 185.0 L 107.0 184.0 L 111.0 183.0 L 119.0 183.0 L 130.0 184.0 L 141.0 188.0 L 154.0 191.0 L 166.0 192.0 L 179.0 193.0 L 190.0 193.0 L 198.0 192.0 L 201.0 190.0 " stroke="black" fill="none" stroke-width="5.0" stroke-linecap="round" stroke-linejoin="round" />
<path d="M 147.0 106.0 L 147.0 106.0 L 147.0 106.0 L 147.0 106.0 L 147.0 106.0 L 147.0 106.0 L 147.0 108.0 L 148.0 112.0 L 149.0 116.0 L 149.0 116.0 " stroke="black" fill="none" stroke-width="5.0" stroke-linecap="round" stroke-linejoin="round" />
<path d="M 147.0 105.0 L 147.0 105.0 L 147.0 105.0 L 147.0 105.0 L 148.0 105.0 L 151.0 105.0 L 157.0 104.0 L 166.0 104.0 L 174.0 104.0 L 180.0 104.0 L 183.0 106.0 L 184.0 109.0 L 184.0 113.0 L 183.0 117.0 L 183.0 120.0 L 183.0 120.0 " stroke="black" fill="none" stroke-width="5.0" stroke-linecap="round" stroke-linejoin="round" />
<path d="M 150.0 118.0 L 150.0 118.0 L 150.0 118.0 L 150.0 118.0 L 151.0 118.0 L 157.0 118.0 L 168.0 117.0 L 177.0 116.0 L 182.0 116.0 " stroke="black" fill="none" stroke-width="5.0" stroke-linecap="round" stroke-linejoin="round" />
<path d="M 161.0 96.0 L 161.0 95.0 L 162.0 95.0 L 163.0 95.0 L 163.0 102.0 L 164.0 113.0 L 165.0 122.0 L 166.0 125.0 " stroke="black" fill="none" stroke-width="5.0" stroke-linecap="round" stroke-linejoin="round" />
<path d="M 141.0 126.0 L 140.0 126.0 L 140.0 127.0 L 139.0 127.0 L 141.0 127.0 L 149.0 127.0 L 161.0 127.0 L 174.0 127.0 L 185.0 127.0 L 189.0 127.0 L 190.0 127.0 L 189.0 127.0 " stroke="black" fill="none" stroke-width="5.0" stroke-linecap="round" stroke-linejoin="round" />
<path d="M 153.0 139.0 L 153.0 139.0 L 153.0 139.0 L 153.0 139.0 L 153.0 139.0 L 156.0 139.0 L 162.0 139.0 L 170.0 139.0 L 177.0 139.0 L 181.0 138.0 L 182.0 138.0 L 183.0 138.0 L 183.0 140.0 L 184.0 145.0 L 185.0 153.0 L 187.0 162.0 L 189.0 169.0 L 190.0 172.0 L 190.0 172.0 " stroke="black" fill="none" stroke-width="5.0" stroke-linecap="round" stroke-linejoin="round" />
<path d="M 150.0 140.0 L 149.0 140.0 L 148.0 141.0 L 148.0 143.0 L 148.0 150.0 L 148.0 159.0 L 148.0 165.0 L 148.0 166.0 " stroke="black" fill="none" stroke-width="5.0" stroke-linecap="round" stroke-linejoin="round" />
<path d="M 150.0 148.0 L 151.0 148.0 L 151.0 148.0 L 151.0 148.0 L 153.0 148.0 L 159.0 148.0 L 168.0 148.0 L 177.0 148.0 L 183.0 149.0 L 185.0 150.0 L 185.0 150.0 " stroke="black" fill="none" stroke-width="5.0" stroke-linecap="round" stroke-linejoin="round" />
<path d="M 153.0 159.0 L 154.0 160.0 L 157.0 161.0 L 163.0 161.0 L 171.0 161.0 L 178.0 161.0 L 182.0 161.0 L 182.0 161.0 " stroke="black" fill="none" stroke-width="5.0" stroke-linecap="round" stroke-linejoin="round" />
<path d="M 151.0 171.0 L 151.0 172.0 L 153.0 173.0 L 156.0 174.0 L 163.0 174.0 L 172.0 174.0 L 178.0 173.0 L 180.0 174.0 " stroke="black" fill="none" stroke-width="5.0" stroke-linecap="round" stroke-linejoin="round" />
<path d="M 162.0 176.0 L 162.0 176.0 L 162.0 176.0 L 162.0 177.0 L 161.0 181.0 L 160.0 185.0 " stroke="black" fill="none" stroke-width="5.0" stroke-linecap="round" stroke-linejoin="round" />
<path d="M 177.0 176.0 L 178.0 176.0 L 179.0 178.0 L 180.0 181.0 L 183.0 185.0 L 185.0 189.0 " stroke="black" fill="none" stroke-width="5.0" stroke-linecap="round" stroke-linejoin="round" />
</svg>