<svg xmlns="http://www.w3.org/2000/svg" width="300" height="300" viewBox="0 0 300 300">
<path d="M 118.0 123.0 L 119.0 123.0 L 119.0 124.0 L 119.0 125.0 L 120.0 128.0 L 122.0 132.0 L 123.0 134.0 " stroke="black" fill="none" stroke-width="5.0" stroke-linecap="round" stroke-linejoin="round" />
<path d="M 113.0 149.0 L 113.0 149.0 L 113.0 149.0 L 113.0 149.0 L 113.0 149.0 L 115.0 149.0 L 119.0 149.0 L 122.0 149.0 L 123.0 150.0 L 124.0 152.0 L 122.0 155.0 L 120.0 157.0 L 119.0 159.0 L 118.0 162.0 L 117.0 167.0 L 117.0 171.0 L 117.0 176.0 L 118.0 181.0 L 118.0 184.0 L 118.0 185.0 " stroke="black" fill="none" stroke-width="5.0" stroke-linecap="round" stroke-linejoin="round" />
<path d="M 108.0 200.0 L 108.0 200.0 L 107.0 200.0 L 107.0 200.0 L 107.0 200.0 L 107.0 200.0 L 109.0 198.0 L 113.0 197.0 L 121.0 195.0 L 130.0 194.0 L 141.0 194.0 L 152.0 196.0 L 165.0 202.0 L 179.0 206.0 L 194.0 206.0 " stroke="black" fill="none" stroke-width="5.0" stroke-linecap="round" stroke-linejoin="round" />
<path d="M 149.0 116.0 L 149.0 116.0 L 149.0 116.0 L 150.0 116.0 L 152.0 116.0 L 158.0 115.0 L 166.0 114.0 L 169.0 114.0 " stroke="black" fill="none" stroke-width="5.0" stroke-linecap="round" stroke-linejoin="round" />
<path d="M 148.0 129.0 L 148.0 129.0 L 148.0 129.0 L 148.0 131.0 L 148.0 135.0 L 149.0 139.0 L 150.0 140.0 " stroke="black" fill="none" stroke-width="5.0" stroke-linecap="round" stroke-linejoin="round" />
<path d="M 149.0 127.0 L 149.0 127.0 L 149.0 127.0 L 150.0 127.0 L 151.0 127.0 L 153.0 127.0 L 158.0 127.0 L 164.0 126.0 L 169.0 126.0 L 173.0 127.0 L 175.0 130.0 L 176.0 134.0 L 176.0 138.0 L 176.0 139.0 " stroke="black" fill="none" stroke-width="5.0" stroke-linecap="round" stroke-linejoin="round" />
<path d="M 153.0 141.0 L 153.0 141.0 L 152.0 141.0 L 153.0 141.0 L 158.0 141.0 L 165.0 141.0 L 170.0 141.0 " stroke="black" fill="none" stroke-width="5.0" stroke-linecap="round" stroke-linejoin="round" />
<path d="M 144.0 156.0 L 144.0 157.0 L 144.0 158.0 L 144.0 162.0 L 144.0 171.0 L 145.0 180.0 L 146.0 185.0 " stroke="black" fill="none" stroke-width="5.0" stroke-linecap="round" stroke-linejoin="round" />
<path d="M 145.0 154.0 L 145.0 154.0 L 145.0 154.0 L 146.0 154.0 L 150.0 154.0 L 156.0 152.0 L 164.0 151.0 L 171.0 151.0 L 178.0 152.0 L 182.0 154.0 L 185.0 158.0 L 187.0 165.0 L 188.0 173.0 L 189.0 179.0 L 189.0 180.0 " stroke="black" fill="none" stroke-width="5.0" stroke-linecap="round" stroke-linejoin="round" />
<path d="M 150.0 167.0 L 150.0 167.0 L 150.0 168.0 L 152.0 168.0 L 160.0 168.0 L 170.0 166.0 L 179.0 164.0 " stroke="black" fill="none" stroke-width="5.0" stroke-linecap="round" stroke-linejoin="round" />
<path d="M 163.0 155.0 L 163.0 155.0 L 163.0 155.0 L 163.0 155.0 L 164.0 161.0 L 165.0 172.0 L 166.0 180.0 " stroke="black" fill="none" stroke-width="5.0" stroke-linecap="round" stroke-linejoin="round" />
<path d="M 149.0 188.0 L 149.0 188.0 L 149.0 189.0 L 150.0 189.0 L 156.0 189.0 L 169.0 188.0 L 183.0 186.0 L 192.0 184.0 " stroke="black" fill="none" stroke-width="5.0" stroke-linecap="round" stroke-linejoin="round" />
</svg>