<svg xmlns="http://www.w3.org/2000/svg" width="300" height="300" viewBox="0 0 300 300">
<path d="M 135.0 109.0 L 135.0 109.0 L 135.0 109.0 L 135.0 109.0 L 135.0 109.0 L 134.0 109.0 L 134.0 111.0 L 131.0 115.0 L 126.0 122.0 L 121.0 127.0 " stroke="black" fill="none" stroke-width="5.0" stroke-linecap="round" stroke-linejoin="round" />
<path d="M 113.0 139.0 L 113.0 139.0 L 114.0 139.0 L 115.0 139.0 L 118.0 141.0 L 122.0 144.0 L 123.0 144.0 " stroke="black" fill="none" stroke-width="5.0" stroke-linecap="round" stroke-linejoin="round" />
<path d="M 143.0 131.0 L 142.0 131.0 L 142.0 133.0 L 141.0 135.0 L 139.0 141.0 L 137.0 146.0 " stroke="black" fill="none" stroke-width="5.0" stroke-linecap="round" stroke-linejoin="round" />
<path d="M 108.0 163.0 L 108.0 163.0 L 108.0 164.0 L 110.0 164.0 L 115.0 165.0 L 127.0 163.0 L 141.0 160.0 L 143.0 160.0 " stroke="black" fill="none" stroke-width="5.0" stroke-linecap="round" stroke-linejoin="round" />
<path d="M 130.0 128.0 L 130.0 128.0 L 129.0 130.0 L 129.0 138.0 L 131.0 154.0 L 133.0 175.0 L 133.0 191.0 L 133.0 197.0 " stroke="black" fill="none" stroke-width="5.0" stroke-linecap="round" stroke-linejoin="round" />
<path d="M 131.0 164.0 L 131.0 165.0 L 130.0 166.0 L 128.0 168.0 L 126.0 171.0 L 121.0 176.0 L 114.0 184.0 L 109.0 191.0 " stroke="black" fill="none" stroke-width="5.0" stroke-linecap="round" stroke-linejoin="round" />
<path d="M 135.0 170.0 L 137.0 172.0 L 142.0 178.0 L 148.0 183.0 L 149.0 185.0 " stroke="black" fill="none" stroke-width="5.0" stroke-linecap="round" stroke-linejoin="round" />
<path d="M 150.0 114.0 L 150.0 114.0 L 150.0 115.0 L 150.0 117.0 L 151.0 120.0 L 152.0 123.0 L 152.0 125.0 " stroke="black" fill="none" stroke-width="5.0" stroke-linecap="round" stroke-linejoin="round" />
<path d="M 151.0 112.0 L 151.0 112.0 L 150.0 112.0 L 150.0 112.0 L 153.0 111.0 L 159.0 111.0 L 169.0 110.0 L 178.0 110.0 L 185.0 113.0 L 188.0 117.0 L 188.0 122.0 L 188.0 126.0 L 187.0 127.0 " stroke="black" fill="none" stroke-width="5.0" stroke-linecap="round" stroke-linejoin="round" />
<path d="M 150.0 128.0 L 150.0 129.0 L 149.0 130.0 L 149.0 130.0 L 152.0 130.0 L 160.0 129.0 L 170.0 127.0 L 180.0 126.0 " stroke="black" fill="none" stroke-width="5.0" stroke-linecap="round" stroke-linejoin="round" />
<path d="M 161.0 112.0 L 161.0 113.0 L 161.0 114.0 L 162.0 118.0 L 163.0 125.0 L 163.0 126.0 " stroke="black" fill="none" stroke-width="5.0" stroke-linecap="round" stroke-linejoin="round" />
<path d="M 177.0 115.0 L 177.0 116.0 L 177.0 119.0 L 177.0 122.0 " stroke="black" fill="none" stroke-width="5.0" stroke-linecap="round" stroke-linejoin="round" />
<path d="M 157.0 141.0 L 157.0 141.0 L 157.0 141.0 L 158.0 141.0 L 161.0 141.0 L 166.0 141.0 L 172.0 141.0 L 173.0 141.0 " stroke="black" fill="none" stroke-width="5.0" stroke-linecap="round" stroke-linejoin="round" />
<path d="M 153.0 154.0 L 153.0 155.0 L 156.0 155.0 L 162.0 155.0 L 171.0 155.0 L 181.0 153.0 " stroke="black" fill="none" stroke-width="5.0" stroke-linecap="round" stroke-linejoin="round" />
<path d="M 166.0 126.0 L 166.0 126.0 L 167.0 128.0 L 168.0 133.0 L 169.0 142.0 L 171.0 153.0 L 171.0 155.0 " stroke="black" fill="none" stroke-width="5.0" stroke-linecap="round" stroke-linejoin="round" />
<path d="M 160.0 157.0 L 160.0 157.0 L 160.0 159.0 L 161.0 163.0 L 164.0 166.0 " stroke="black" fill="none" stroke-width="5.0" stroke-linecap="round" stroke-linejoin="round" />
<path d="M 177.0 156.0 L 176.0 159.0 L 175.0 162.0 L 174.0 166.0 L 174.0 169.0 " stroke="black" fill="none" stroke-width="5.0" stroke-linecap="round" stroke-linejoin="round" />
<path d="M 154.0 172.0 L 154.0 172.0 L 154.0 172.0 L 155.0 173.0 L 159.0 173.0 L 167.0 171.0 L 178.0 169.0 L 186.0 169.0 L 189.0 170.0 " stroke="black" fill="none" stroke-width="5.0" stroke-linecap="round" stroke-linejoin="round" />
<path d="M 158.0 185.0 L 158.0 185.0 L 161.0 185.0 L 167.0 185.0 L 175.0 184.0 L 184.0 182.0 L 186.0 182.0 " stroke="black" fill="none" stroke-width="5.0" stroke-linecap="round" stroke-linejoin="round" />
<path d="M 172.0 168.0 L 172.0 170.0 L 172.0 176.0 L 174.0 186.0 L 176.0 198.0 L 178.0 207.0 L 178.0 209.0 " stroke="black" fill="none" stroke-width="5.0" stroke-linecap="round" stroke-linejoin="round" />
</svg>