<svg xmlns="http://www.w3.org/2000/svg" width="300" height="300" viewBox="0 0 300 300">
<path d="M 113.0 125.0 L 113.0 125.0 L 113.0 125.0 L 113.0 125.0 L 113.0 126.0 L 111.0 128.0 L 108.0 132.0 L 105.0 139.0 L 102.0 145.0 L 102.0 148.0 L 105.0 150.0 L 110.0 150.0 L 111.0 150.0 " stroke="black" fill="none" stroke-width="5.0" stroke-linecap="round" stroke-linejoin="round" />
<path d="M 119.0 140.0 L 120.0 140.0 L 120.0 140.0 L 121.0 140.0 L 121.0 140.0 L 120.0 141.0 L 117.0 144.0 L 113.0 150.0 L 108.0 158.0 L 104.0 166.0 L 103.0 172.0 L 103.0 175.0 L 108.0 176.0 L 113.0 175.0 L 119.0 173.0 L 122.0 173.0 " stroke="black" fill="none" stroke-width="5.0" stroke-linecap="round" stroke-linejoin="round" />
<path d="M 124.0 160.0 L 124.0 160.0 L 125.0 160.0 L 126.0 160.0 L 126.0 160.0 L 126.0 165.0 L 124.0 174.0 L 119.0 189.0 L 111.0 202.0 L 109.0 204.0 " stroke="black" fill="none" stroke-width="5.0" stroke-linecap="round" stroke-linejoin="round" />
<path d="M 141.0 116.0 L 141.0 116.0 L 142.0 118.0 L 143.0 120.0 L 144.0 122.0 L 145.0 123.0 " stroke="black" fill="none" stroke-width="5.0" stroke-linecap="round" stroke-linejoin="round" />
<path d="M 134.0 127.0 L 134.0 127.0 L 134.0 127.0 L 135.0 127.0 L 138.0 127.0 L 144.0 127.0 L 149.0 127.0 L 154.0 127.0 L 157.0 127.0 L 159.0 127.0 L 159.0 127.0 L 159.0 127.0 L 159.0 129.0 L 159.0 134.0 L 160.0 141.0 L 161.0 146.0 L 162.0 151.0 L 162.0 153.0 L 161.0 153.0 " stroke="black" fill="none" stroke-width="5.0" stroke-linecap="round" stroke-linejoin="round" />
<path d="M 141.0 142.0 L 141.0 142.0 L 140.0 142.0 L 140.0 143.0 L 142.0 143.0 L 146.0 143.0 L 152.0 143.0 L 157.0 143.0 L 159.0 143.0 " stroke="black" fill="none" stroke-width="5.0" stroke-linecap="round" stroke-linejoin="round" />
<path d="M 138.0 153.0 L 138.0 154.0 L 140.0 155.0 L 143.0 155.0 L 148.0 155.0 L 154.0 154.0 L 155.0 153.0 " stroke="black" fill="none" stroke-width="5.0" stroke-linecap="round" stroke-linejoin="round" />
<path d="M 142.0 130.0 L 142.0 130.0 L 142.0 131.0 L 141.0 132.0 L 140.0 137.0 L 139.0 148.0 L 138.0 165.0 L 138.0 183.0 L 138.0 192.0 L 141.0 195.0 L 145.0 196.0 L 150.0 195.0 L 154.0 191.0 " stroke="black" fill="none" stroke-width="5.0" stroke-linecap="round" stroke-linejoin="round" />
<path d="M 154.0 179.0 L 154.0 180.0 L 155.0 184.0 L 157.0 188.0 L 160.0 194.0 L 164.0 198.0 L 165.0 199.0 " stroke="black" fill="none" stroke-width="5.0" stroke-linecap="round" stroke-linejoin="round" />
<path d="M 174.0 124.0 L 174.0 124.0 L 174.0 124.0 L 175.0 124.0 L 177.0 124.0 L 181.0 124.0 L 185.0 124.0 L 189.0 125.0 L 192.0 126.0 L 195.0 130.0 L 197.0 138.0 L 198.0 147.0 L 199.0 155.0 L 199.0 159.0 L 198.0 161.0 L 195.0 161.0 L 191.0 160.0 L 189.0 158.0 " stroke="black" fill="none" stroke-width="5.0" stroke-linecap="round" stroke-linejoin="round" />
<path d="M 176.0 131.0 L 176.0 131.0 L 176.0 131.0 L 176.0 131.0 L 176.0 136.0 L 179.0 155.0 L 182.0 181.0 L 185.0 200.0 L 186.0 208.0 L 186.0 209.0 L 186.0 207.0 L 186.0 203.0 " stroke="black" fill="none" stroke-width="5.0" stroke-linecap="round" stroke-linejoin="round" />
</svg>