<svg xmlns="http://www.w3.org/2000/svg" width="300" height="300" viewBox="0 0 300 300">
<path d="M 157.5 105.83333333333333 L 157.5 105.83333333333333 L 157.5 105.83333333333333 L 156.66666666666663 105.83333333333333 L 155.83333333333331 106.66666666666667 L 152.5 109.99999999999999 L 145.0 118.33333333333333 L 142.5 119.99999999999999 " stroke="black" fill="none" stroke-width="5.0" stroke-linecap="round" stroke-linejoin="round" />
<path d="M 132.5 133.33333333333331 L 132.5 133.33333333333331 L 132.5 134.16666666666669 L 133.33333333333331 134.16666666666669 L 136.66666666666669 134.16666666666669 L 145.83333333333331 131.66666666666669 L 156.66666666666663 129.16666666666669 L 165.83333333333331 127.49999999999999 L 168.33333333333331 127.49999999999999 " stroke="black" fill="none" stroke-width="5.0" stroke-linecap="round" stroke-linejoin="round" />
<path d="M 135.0 146.66666666666669 L 135.0 146.66666666666669 L 134.16666666666669 145.83333333333331 L 134.16666666666669 145.83333333333331 L 134.16666666666669 147.5 L 135.0 152.5 L 136.66666666666669 158.33333333333331 L 137.5 162.5 L 138.33333333333331 163.33333333333331 " stroke="black" fill="none" stroke-width="5.0" stroke-linecap="round" stroke-linejoin="round" />
<path d="M 138.33333333333331 145.83333333333331 L 138.33333333333331 145.83333333333331 L 139.16666666666669 145.0 L 140.83333333333331 145.0 L 145.0 145.0 L 151.66666666666669 144.16666666666669 L 158.33333333333331 144.16666666666669 L 164.16666666666663 143.33333333333331 L 168.33333333333331 143.33333333333331 L 170.0 145.83333333333331 L 170.0 151.66666666666669 L 170.0 159.16666666666663 L 170.0 165.0 L 170.0 167.5 L 170.0 167.5 " stroke="black" fill="none" stroke-width="5.0" stroke-linecap="round" stroke-linejoin="round" />
<path d="M 143.33333333333331 155.83333333333331 L 143.33333333333331 155.83333333333331 L 143.33333333333331 155.83333333333331 L 143.33333333333331 155.83333333333331 L 145.0 155.83333333333331 L 150.0 155.83333333333331 L 159.16666666666663 155.83333333333331 L 166.66666666666663 155.0 L 169.16666666666663 155.0 L 169.16666666666663 155.0 " stroke="black" fill="none" stroke-width="5.0" stroke-linecap="round" stroke-linejoin="round" />
<path d="M 141.66666666666669 167.5 L 144.16666666666669 168.33333333333331 L 148.33333333333331 169.16666666666663 L 156.66666666666663 169.16666666666663 L 165.83333333333331 169.16666666666663 L 170.83333333333331 167.5 " stroke="black" fill="none" stroke-width="5.0" stroke-linecap="round" stroke-linejoin="round" />
<path d="M 151.66666666666669 119.16666666666667 L 151.66666666666669 119.16666666666667 L 150.83333333333331 119.16666666666667 L 150.83333333333331 121.66666666666667 L 151.66666666666669 130.83333333333331 L 154.16666666666669 148.33333333333331 L 155.83333333333331 173.33333333333331 L 155.83333333333331 194.16666666666663 L 155.83333333333331 204.16666666666663 L 156.66666666666663 207.5 L 156.66666666666663 206.66666666666663 " stroke="black" fill="none" stroke-width="5.0" stroke-linecap="round" stroke-linejoin="round" />
<path d="M 134.16666666666669 186.66666666666663 L 134.16666666666669 186.66666666666663 L 135.83333333333331 187.5 L 142.5 187.5 L 155.83333333333331 187.5 L 169.16666666666663 186.66666666666663 L 176.66666666666663 185.83333333333331 L 177.5 187.5 L 176.66666666666663 188.33333333333331 " stroke="black" fill="none" stroke-width="5.0" stroke-linecap="round" stroke-linejoin="round" />
<path d="M 123.33333333333333 206.66666666666663 L 123.33333333333333 206.66666666666663 L 124.99999999999999 207.5 L 130.0 207.5 L 142.5 207.5 L 160.0 206.66666666666663 L 178.33333333333331 206.66666666666663 L 188.33333333333331 206.66666666666663 L 192.5 206.66666666666663 L 193.33333333333331 207.5 L 193.33333333333331 207.5 " stroke="black" fill="none" stroke-width="5.0" stroke-linecap="round" stroke-linejoin="round" />
</svg>