<svg xmlns="http://www.w3.org/2000/svg" width="300" height="300" viewBox="0 0 300 300">
<path d="M 110.0 116.0 L 110.0 116.0 L 110.0 116.0 L 110.0 118.0 L 110.0 123.0 L 110.0 133.0 L 111.0 141.0 " stroke="black" fill="none" stroke-width="5.0" stroke-linecap="round" stroke-linejoin="round" />
<path d="M 112.0 115.0 L 112.0 115.0 L 112.0 115.0 L 112.0 115.0 L 115.0 115.0 L 121.0 114.0 L 129.0 114.0 L 134.0 115.0 L 138.0 117.0 L 140.0 121.0 L 141.0 128.0 L 141.0 135.0 L 141.0 142.0 " stroke="black" fill="none" stroke-width="5.0" stroke-linecap="round" stroke-linejoin="round" />
<path d="M 114.0 129.0 L 114.0 129.0 L 114.0 130.0 L 115.0 130.0 L 119.0 130.0 L 128.0 130.0 L 136.0 130.0 L 140.0 132.0 " stroke="black" fill="none" stroke-width="5.0" stroke-linecap="round" stroke-linejoin="round" />
<path d="M 112.0 145.0 L 112.0 146.0 L 113.0 147.0 L 117.0 148.0 L 126.0 147.0 L 136.0 146.0 L 137.0 146.0 " stroke="black" fill="none" stroke-width="5.0" stroke-linecap="round" stroke-linejoin="round" />
<path d="M 124.0 121.0 L 124.0 121.0 L 124.0 120.0 L 123.0 119.0 L 123.0 120.0 L 123.0 129.0 L 124.0 145.0 L 126.0 163.0 L 126.0 178.0 L 126.0 184.0 " stroke="black" fill="none" stroke-width="5.0" stroke-linecap="round" stroke-linejoin="round" />
<path d="M 113.0 166.0 L 113.0 166.0 L 113.0 166.0 L 114.0 166.0 L 119.0 166.0 L 128.0 165.0 L 136.0 165.0 L 139.0 166.0 " stroke="black" fill="none" stroke-width="5.0" stroke-linecap="round" stroke-linejoin="round" />
<path d="M 104.0 190.0 L 104.0 191.0 L 106.0 191.0 L 112.0 192.0 L 127.0 190.0 L 138.0 188.0 " stroke="black" fill="none" stroke-width="5.0" stroke-linecap="round" stroke-linejoin="round" />
<path d="M 159.0 113.0 L 159.0 113.0 L 159.0 113.0 L 159.0 113.0 L 160.0 113.0 L 165.0 113.0 L 171.0 113.0 L 176.0 113.0 L 179.0 113.0 L 180.0 113.0 L 180.0 115.0 L 177.0 118.0 L 172.0 123.0 L 170.0 126.0 " stroke="black" fill="none" stroke-width="5.0" stroke-linecap="round" stroke-linejoin="round" />
<path d="M 160.0 125.0 L 161.0 126.0 L 162.0 126.0 L 164.0 128.0 L 168.0 130.0 L 169.0 131.0 " stroke="black" fill="none" stroke-width="5.0" stroke-linecap="round" stroke-linejoin="round" />
<path d="M 149.0 140.0 L 149.0 140.0 L 150.0 140.0 L 153.0 140.0 L 163.0 139.0 L 176.0 136.0 L 185.0 136.0 L 189.0 137.0 L 189.0 140.0 L 188.0 143.0 L 186.0 146.0 " stroke="black" fill="none" stroke-width="5.0" stroke-linecap="round" stroke-linejoin="round" />
<path d="M 166.0 140.0 L 166.0 139.0 L 166.0 139.0 L 166.0 139.0 L 167.0 147.0 L 171.0 163.0 L 174.0 184.0 L 177.0 200.0 L 177.0 210.0 L 177.0 213.0 L 174.0 214.0 L 167.0 211.0 L 156.0 205.0 L 151.0 202.0 " stroke="black" fill="none" stroke-width="5.0" stroke-linecap="round" stroke-linejoin="round" />
</svg>