<svg xmlns="http://www.w3.org/2000/svg" width="300" height="300" viewBox="0 0 300 300">
<path d="M 113.0 118.0 L 113.0 118.0 L 113.0 118.0 L 114.0 118.0 L 121.0 118.0 L 132.0 117.0 L 142.0 116.0 " stroke="black" fill="none" stroke-width="5.0" stroke-linecap="round" stroke-linejoin="round" />
<path d="M 123.0 121.0 L 123.0 121.0 L 123.0 121.0 L 123.0 122.0 L 123.0 125.0 L 123.0 136.0 L 123.0 153.0 L 121.0 166.0 L 121.0 168.0 " stroke="black" fill="none" stroke-width="5.0" stroke-linecap="round" stroke-linejoin="round" />
<path d="M 133.0 122.0 L 133.0 122.0 L 132.0 122.0 L 132.0 124.0 L 132.0 129.0 L 133.0 138.0 L 134.0 150.0 L 136.0 163.0 L 140.0 170.0 L 146.0 171.0 L 150.0 170.0 " stroke="black" fill="none" stroke-width="5.0" stroke-linecap="round" stroke-linejoin="round" />
<path d="M 113.0 148.0 L 113.0 148.0 L 112.0 149.0 L 111.0 151.0 L 111.0 158.0 L 113.0 169.0 L 114.0 178.0 L 114.0 180.0 " stroke="black" fill="none" stroke-width="5.0" stroke-linecap="round" stroke-linejoin="round" />
<path d="M 116.0 147.0 L 116.0 147.0 L 118.0 147.0 L 119.0 147.0 L 123.0 147.0 L 129.0 147.0 L 136.0 146.0 L 142.0 146.0 L 146.0 146.0 L 147.0 149.0 L 149.0 155.0 L 151.0 165.0 L 153.0 176.0 L 153.0 184.0 L 153.0 189.0 L 153.0 190.0 " stroke="black" fill="none" stroke-width="5.0" stroke-linecap="round" stroke-linejoin="round" />
<path d="M 123.0 178.0 L 123.0 178.0 L 124.0 178.0 L 128.0 177.0 L 135.0 177.0 L 142.0 177.0 L 143.0 177.0 " stroke="black" fill="none" stroke-width="5.0" stroke-linecap="round" stroke-linejoin="round" />
<path d="M 115.0 192.0 L 116.0 192.0 L 119.0 192.0 L 124.0 192.0 L 134.0 192.0 L 146.0 192.0 L 150.0 192.0 " stroke="black" fill="none" stroke-width="5.0" stroke-linecap="round" stroke-linejoin="round" />
<path d="M 161.0 95.0 L 161.0 95.0 L 161.0 95.0 L 161.0 96.0 L 163.0 100.0 L 167.0 105.0 L 168.0 108.0 " stroke="black" fill="none" stroke-width="5.0" stroke-linecap="round" stroke-linejoin="round" />
<path d="M 151.0 115.0 L 151.0 115.0 L 151.0 116.0 L 153.0 116.0 L 160.0 116.0 L 172.0 114.0 L 183.0 113.0 L 188.0 113.0 " stroke="black" fill="none" stroke-width="5.0" stroke-linecap="round" stroke-linejoin="round" />
<path d="M 160.0 124.0 L 160.0 124.0 L 160.0 124.0 L 160.0 125.0 L 160.0 126.0 L 160.0 129.0 L 157.0 137.0 L 154.0 146.0 L 153.0 147.0 " stroke="black" fill="none" stroke-width="5.0" stroke-linecap="round" stroke-linejoin="round" />
<path d="M 158.0 138.0 L 159.0 138.0 L 160.0 138.0 L 161.0 138.0 L 165.0 140.0 L 170.0 144.0 L 174.0 148.0 " stroke="black" fill="none" stroke-width="5.0" stroke-linecap="round" stroke-linejoin="round" />
<path d="M 184.0 126.0 L 183.0 128.0 L 182.0 131.0 L 182.0 134.0 L 180.0 138.0 L 177.0 143.0 L 176.0 144.0 " stroke="black" fill="none" stroke-width="5.0" stroke-linecap="round" stroke-linejoin="round" />
<path d="M 182.0 138.0 L 183.0 138.0 L 185.0 139.0 L 188.0 141.0 L 193.0 145.0 L 195.0 147.0 " stroke="black" fill="none" stroke-width="5.0" stroke-linecap="round" stroke-linejoin="round" />
<path d="M 155.0 168.0 L 156.0 168.0 L 157.0 168.0 L 161.0 168.0 L 170.0 168.0 L 183.0 168.0 L 194.0 169.0 L 201.0 169.0 L 203.0 169.0 " stroke="black" fill="none" stroke-width="5.0" stroke-linecap="round" stroke-linejoin="round" />
<path d="M 180.0 152.0 L 180.0 153.0 L 180.0 154.0 L 180.0 159.0 L 183.0 169.0 L 186.0 184.0 L 188.0 198.0 L 189.0 204.0 L 189.0 204.0 " stroke="black" fill="none" stroke-width="5.0" stroke-linecap="round" stroke-linejoin="round" />
</svg>