<svg xmlns="http://www.w3.org/2000/svg" width="300" height="300" viewBox="0 0 300 300">
<path d="M 125.0 115.0 L 126.0 114.0 L 126.0 114.0 L 127.0 114.0 L 127.0 114.0 L 127.0 115.0 L 125.0 119.0 L 121.0 127.0 L 114.0 137.0 L 111.0 142.0 " stroke="black" fill="none" stroke-width="5.0" stroke-linecap="round" stroke-linejoin="round" />
<path d="M 130.0 117.0 L 130.0 117.0 L 131.0 117.0 L 132.0 118.0 L 133.0 119.0 L 137.0 122.0 L 142.0 126.0 L 145.0 129.0 " stroke="black" fill="none" stroke-width="5.0" stroke-linecap="round" stroke-linejoin="round" />
<path d="M 124.0 144.0 L 124.0 144.0 L 125.0 143.0 L 127.0 143.0 L 130.0 143.0 L 135.0 143.0 L 139.0 142.0 L 141.0 142.0 " stroke="black" fill="none" stroke-width="5.0" stroke-linecap="round" stroke-linejoin="round" />
<path d="M 122.0 158.0 L 123.0 158.0 L 126.0 158.0 L 129.0 158.0 L 134.0 157.0 L 138.0 157.0 L 139.0 157.0 " stroke="black" fill="none" stroke-width="5.0" stroke-linecap="round" stroke-linejoin="round" />
<path d="M 112.0 185.0 L 113.0 186.0 L 117.0 186.0 L 125.0 186.0 L 136.0 184.0 L 145.0 182.0 L 148.0 182.0 " stroke="black" fill="none" stroke-width="5.0" stroke-linecap="round" stroke-linejoin="round" />
<path d="M 132.0 144.0 L 132.0 144.0 L 131.0 146.0 L 131.0 151.0 L 132.0 162.0 L 135.0 173.0 L 135.0 179.0 " stroke="black" fill="none" stroke-width="5.0" stroke-linecap="round" stroke-linejoin="round" />
<path d="M 119.0 170.0 L 120.0 170.0 L 121.0 172.0 L 123.0 174.0 L 124.0 176.0 " stroke="black" fill="none" stroke-width="5.0" stroke-linecap="round" stroke-linejoin="round" />
<path d="M 148.0 167.0 L 147.0 169.0 L 147.0 171.0 L 146.0 174.0 L 144.0 178.0 " stroke="black" fill="none" stroke-width="5.0" stroke-linecap="round" stroke-linejoin="round" />
<path d="M 170.0 109.0 L 170.0 109.0 L 170.0 109.0 L 170.0 108.0 L 170.0 108.0 L 170.0 109.0 L 168.0 114.0 L 161.0 123.0 L 154.0 133.0 L 152.0 135.0 " stroke="black" fill="none" stroke-width="5.0" stroke-linecap="round" stroke-linejoin="round" />
<path d="M 164.0 119.0 L 165.0 120.0 L 166.0 120.0 L 168.0 121.0 L 171.0 122.0 L 174.0 123.0 L 177.0 124.0 L 179.0 125.0 L 180.0 126.0 L 180.0 129.0 L 178.0 132.0 L 172.0 139.0 L 163.0 148.0 L 156.0 155.0 L 154.0 156.0 " stroke="black" fill="none" stroke-width="5.0" stroke-linecap="round" stroke-linejoin="round" />
<path d="M 160.0 135.0 L 160.0 136.0 L 161.0 137.0 L 161.0 140.0 L 162.0 141.0 " stroke="black" fill="none" stroke-width="5.0" stroke-linecap="round" stroke-linejoin="round" />
<path d="M 159.0 156.0 L 159.0 156.0 L 159.0 156.0 L 159.0 156.0 L 159.0 160.0 L 159.0 167.0 L 160.0 176.0 L 160.0 180.0 L 160.0 181.0 " stroke="black" fill="none" stroke-width="5.0" stroke-linecap="round" stroke-linejoin="round" />
<path d="M 162.0 152.0 L 163.0 152.0 L 164.0 151.0 L 165.0 150.0 L 169.0 150.0 L 174.0 150.0 L 180.0 149.0 L 186.0 149.0 L 190.0 149.0 L 193.0 149.0 L 195.0 150.0 L 195.0 154.0 L 196.0 160.0 L 197.0 168.0 L 197.0 175.0 L 197.0 180.0 L 197.0 181.0 " stroke="black" fill="none" stroke-width="5.0" stroke-linecap="round" stroke-linejoin="round" />
<path d="M 165.0 185.0 L 165.0 185.0 L 164.0 185.0 L 164.0 185.0 L 166.0 185.0 L 174.0 185.0 L 182.0 184.0 L 190.0 184.0 L 193.0 184.0 " stroke="black" fill="none" stroke-width="5.0" stroke-linecap="round" stroke-linejoin="round" />
</svg>