<svg xmlns="http://www.w3.org/2000/svg" width="300" height="300" viewBox="0 0 300 300">
<path d="M 128.0 115.0 L 128.0 115.0 L 128.0 116.0 L 128.0 116.0 L 128.0 117.0 L 128.0 118.0 L 126.0 122.0 L 121.0 129.0 L 113.0 139.0 L 106.0 147.0 " stroke="black" fill="none" stroke-width="5.0" stroke-linecap="round" stroke-linejoin="round" />
<path d="M 132.0 119.0 L 132.0 120.0 L 132.0 121.0 L 134.0 124.0 L 139.0 130.0 L 143.0 135.0 " stroke="black" fill="none" stroke-width="5.0" stroke-linecap="round" stroke-linejoin="round" />
<path d="M 121.0 148.0 L 121.0 148.0 L 121.0 148.0 L 122.0 148.0 L 125.0 148.0 L 130.0 148.0 L 135.0 148.0 L 137.0 148.0 " stroke="black" fill="none" stroke-width="5.0" stroke-linecap="round" stroke-linejoin="round" />
<path d="M 117.0 162.0 L 117.0 162.0 L 118.0 163.0 L 120.0 163.0 L 124.0 163.0 L 129.0 163.0 L 133.0 162.0 L 134.0 162.0 " stroke="black" fill="none" stroke-width="5.0" stroke-linecap="round" stroke-linejoin="round" />
<path d="M 107.0 184.0 L 108.0 185.0 L 110.0 186.0 L 116.0 186.0 L 126.0 186.0 L 136.0 185.0 L 144.0 184.0 L 145.0 184.0 " stroke="black" fill="none" stroke-width="5.0" stroke-linecap="round" stroke-linejoin="round" />
<path d="M 129.0 151.0 L 129.0 151.0 L 128.0 151.0 L 128.0 151.0 L 128.0 153.0 L 128.0 159.0 L 129.0 170.0 L 130.0 179.0 " stroke="black" fill="none" stroke-width="5.0" stroke-linecap="round" stroke-linejoin="round" />
<path d="M 118.0 169.0 L 118.0 171.0 L 119.0 174.0 L 120.0 178.0 L 121.0 180.0 " stroke="black" fill="none" stroke-width="5.0" stroke-linecap="round" stroke-linejoin="round" />
<path d="M 142.0 170.0 L 142.0 171.0 L 142.0 172.0 L 141.0 174.0 L 140.0 177.0 L 139.0 180.0 " stroke="black" fill="none" stroke-width="5.0" stroke-linecap="round" stroke-linejoin="round" />
<path d="M 166.0 112.0 L 167.0 112.0 L 167.0 113.0 L 167.0 115.0 L 165.0 119.0 L 160.0 126.0 L 153.0 137.0 L 147.0 145.0 " stroke="black" fill="none" stroke-width="5.0" stroke-linecap="round" stroke-linejoin="round" />
<path d="M 166.0 116.0 L 166.0 116.0 L 167.0 117.0 L 168.0 117.0 L 170.0 119.0 L 174.0 122.0 L 180.0 128.0 L 185.0 134.0 L 189.0 138.0 " stroke="black" fill="none" stroke-width="5.0" stroke-linecap="round" stroke-linejoin="round" />
<path d="M 160.0 142.0 L 160.0 142.0 L 161.0 142.0 L 162.0 142.0 L 166.0 142.0 L 171.0 141.0 L 175.0 141.0 L 177.0 141.0 " stroke="black" fill="none" stroke-width="5.0" stroke-linecap="round" stroke-linejoin="round" />
<path d="M 156.0 155.0 L 156.0 155.0 L 156.0 156.0 L 156.0 156.0 L 160.0 156.0 L 167.0 154.0 L 175.0 153.0 L 182.0 153.0 L 185.0 153.0 L 186.0 153.0 L 186.0 156.0 L 184.0 161.0 L 181.0 168.0 L 177.0 175.0 L 174.0 180.0 L 173.0 181.0 " stroke="black" fill="none" stroke-width="5.0" stroke-linecap="round" stroke-linejoin="round" />
<path d="M 158.0 175.0 L 158.0 175.0 L 158.0 175.0 L 158.0 176.0 L 159.0 176.0 L 164.0 180.0 L 172.0 184.0 L 180.0 189.0 L 186.0 192.0 L 188.0 193.0 " stroke="black" fill="none" stroke-width="5.0" stroke-linecap="round" stroke-linejoin="round" />
</svg>