<svg xmlns="http://www.w3.org/2000/svg" width="300" height="300" viewBox="0 0 300 300">
<path d="M 122.0 120.0 L 122.0 120.0 L 123.0 121.0 L 123.0 123.0 L 123.0 124.0 L 123.0 127.0 L 120.0 131.0 L 114.0 138.0 L 107.0 146.0 L 101.0 153.0 L 100.0 154.0 " stroke="black" fill="none" stroke-width="5.0" stroke-linecap="round" stroke-linejoin="round" />
<path d="M 125.0 123.0 L 125.0 123.0 L 125.0 124.0 L 126.0 125.0 L 128.0 127.0 L 133.0 132.0 L 139.0 137.0 L 144.0 141.0 L 146.0 144.0 L 147.0 144.0 " stroke="black" fill="none" stroke-width="5.0" stroke-linecap="round" stroke-linejoin="round" />
<path d="M 114.0 152.0 L 114.0 152.0 L 115.0 152.0 L 117.0 152.0 L 122.0 152.0 L 129.0 152.0 L 134.0 151.0 L 136.0 151.0 " stroke="black" fill="none" stroke-width="5.0" stroke-linecap="round" stroke-linejoin="round" />
<path d="M 116.0 168.0 L 116.0 169.0 L 118.0 169.0 L 120.0 169.0 L 125.0 169.0 L 131.0 169.0 L 135.0 169.0 L 136.0 169.0 " stroke="black" fill="none" stroke-width="5.0" stroke-linecap="round" stroke-linejoin="round" />
<path d="M 103.0 194.0 L 105.0 195.0 L 108.0 196.0 L 115.0 197.0 L 125.0 197.0 L 137.0 197.0 L 144.0 197.0 L 147.0 197.0 " stroke="black" fill="none" stroke-width="5.0" stroke-linecap="round" stroke-linejoin="round" />
<path d="M 125.0 157.0 L 125.0 157.0 L 125.0 157.0 L 125.0 157.0 L 126.0 158.0 L 128.0 167.0 L 129.0 180.0 L 130.0 189.0 L 130.0 193.0 " stroke="black" fill="none" stroke-width="5.0" stroke-linecap="round" stroke-linejoin="round" />
<path d="M 115.0 179.0 L 115.0 181.0 L 116.0 184.0 L 117.0 187.0 L 118.0 187.0 " stroke="black" fill="none" stroke-width="5.0" stroke-linecap="round" stroke-linejoin="round" />
<path d="M 142.0 177.0 L 142.0 177.0 L 142.0 179.0 L 142.0 180.0 L 141.0 183.0 L 140.0 186.0 L 139.0 187.0 " stroke="black" fill="none" stroke-width="5.0" stroke-linecap="round" stroke-linejoin="round" />
<path d="M 150.0 126.0 L 150.0 126.0 L 150.0 126.0 L 152.0 126.0 L 155.0 126.0 L 161.0 124.0 L 169.0 123.0 L 173.0 122.0 L 175.0 121.0 " stroke="black" fill="none" stroke-width="5.0" stroke-linecap="round" stroke-linejoin="round" />
<path d="M 156.0 113.0 L 156.0 113.0 L 156.0 113.0 L 156.0 118.0 L 161.0 129.0 L 170.0 144.0 L 179.0 154.0 L 185.0 157.0 L 188.0 157.0 L 189.0 154.0 " stroke="black" fill="none" stroke-width="5.0" stroke-linecap="round" stroke-linejoin="round" />
<path d="M 183.0 140.0 L 183.0 140.0 L 182.0 140.0 L 181.0 140.0 L 179.0 141.0 L 176.0 143.0 L 170.0 149.0 L 166.0 152.0 " stroke="black" fill="none" stroke-width="5.0" stroke-linecap="round" stroke-linejoin="round" />
<path d="M 171.0 109.0 L 171.0 109.0 L 172.0 109.0 L 173.0 110.0 L 176.0 115.0 L 178.0 119.0 " stroke="black" fill="none" stroke-width="5.0" stroke-linecap="round" stroke-linejoin="round" />
<path d="M 151.0 175.0 L 151.0 175.0 L 152.0 176.0 L 154.0 176.0 L 163.0 176.0 L 174.0 174.0 L 183.0 173.0 L 187.0 172.0 L 187.0 172.0 " stroke="black" fill="none" stroke-width="5.0" stroke-linecap="round" stroke-linejoin="round" />
<path d="M 164.0 160.0 L 164.0 160.0 L 163.0 160.0 L 163.0 162.0 L 165.0 171.0 L 171.0 184.0 L 179.0 196.0 L 186.0 201.0 L 190.0 201.0 L 192.0 200.0 L 193.0 198.0 " stroke="black" fill="none" stroke-width="5.0" stroke-linecap="round" stroke-linejoin="round" />
<path d="M 189.0 184.0 L 189.0 184.0 L 188.0 184.0 L 187.0 184.0 L 185.0 186.0 L 182.0 189.0 L 176.0 194.0 L 170.0 198.0 " stroke="black" fill="none" stroke-width="5.0" stroke-linecap="round" stroke-linejoin="round" />
<path d="M 178.0 163.0 L 178.0 163.0 L 179.0 163.0 L 180.0 164.0 L 183.0 167.0 L 185.0 169.0 " stroke="black" fill="none" stroke-width="5.0" stroke-linecap="round" stroke-linejoin="round" />
</svg>