<svg xmlns="http://www.w3.org/2000/svg" width="300" height="300" viewBox="0 0 300 300">
<path d="M 128.0 110.0 L 128.0 110.0 L 128.0 112.0 L 128.0 113.0 L 127.0 116.0 L 124.0 121.0 L 119.0 127.0 L 114.0 133.0 L 111.0 135.0 " stroke="black" fill="none" stroke-width="5.0" stroke-linecap="round" stroke-linejoin="round" />
<path d="M 129.0 111.0 L 130.0 111.0 L 131.0 111.0 L 133.0 113.0 L 136.0 117.0 L 141.0 122.0 L 145.0 126.0 L 147.0 128.0 " stroke="black" fill="none" stroke-width="5.0" stroke-linecap="round" stroke-linejoin="round" />
<path d="M 118.0 137.0 L 121.0 137.0 L 122.0 137.0 L 125.0 137.0 L 130.0 137.0 L 135.0 137.0 L 139.0 137.0 L 140.0 137.0 " stroke="black" fill="none" stroke-width="5.0" stroke-linecap="round" stroke-linejoin="round" />
<path d="M 117.0 156.0 L 117.0 157.0 L 118.0 157.0 L 120.0 158.0 L 125.0 158.0 L 132.0 158.0 L 137.0 157.0 L 138.0 157.0 " stroke="black" fill="none" stroke-width="5.0" stroke-linecap="round" stroke-linejoin="round" />
<path d="M 106.0 185.0 L 106.0 185.0 L 107.0 186.0 L 110.0 187.0 L 118.0 187.0 L 131.0 187.0 L 142.0 186.0 L 146.0 186.0 " stroke="black" fill="none" stroke-width="5.0" stroke-linecap="round" stroke-linejoin="round" />
<path d="M 125.0 146.0 L 125.0 146.0 L 125.0 146.0 L 125.0 148.0 L 125.0 155.0 L 127.0 166.0 L 128.0 176.0 L 128.0 180.0 " stroke="black" fill="none" stroke-width="5.0" stroke-linecap="round" stroke-linejoin="round" />
<path d="M 112.0 167.0 L 112.0 168.0 L 113.0 171.0 L 114.0 173.0 L 115.0 175.0 " stroke="black" fill="none" stroke-width="5.0" stroke-linecap="round" stroke-linejoin="round" />
<path d="M 143.0 168.0 L 143.0 169.0 L 143.0 171.0 L 142.0 172.0 L 140.0 175.0 L 139.0 177.0 " stroke="black" fill="none" stroke-width="5.0" stroke-linecap="round" stroke-linejoin="round" />
<path d="M 156.0 114.0 L 157.0 114.0 L 158.0 115.0 L 161.0 116.0 L 166.0 117.0 L 171.0 117.0 L 176.0 118.0 L 176.0 118.0 " stroke="black" fill="none" stroke-width="5.0" stroke-linecap="round" stroke-linejoin="round" />
<path d="M 173.0 107.0 L 173.0 107.0 L 173.0 108.0 L 171.0 111.0 L 168.0 118.0 L 164.0 126.0 L 164.0 127.0 " stroke="black" fill="none" stroke-width="5.0" stroke-linecap="round" stroke-linejoin="round" />
<path d="M 154.0 134.0 L 154.0 134.0 L 154.0 134.0 L 154.0 134.0 L 154.0 134.0 L 155.0 134.0 L 155.0 139.0 L 155.0 149.0 L 155.0 160.0 L 155.0 169.0 L 155.0 172.0 L 156.0 172.0 " stroke="black" fill="none" stroke-width="5.0" stroke-linecap="round" stroke-linejoin="round" />
<path d="M 156.0 135.0 L 156.0 135.0 L 157.0 135.0 L 157.0 135.0 L 160.0 134.0 L 164.0 134.0 L 170.0 134.0 L 174.0 135.0 L 177.0 136.0 L 180.0 138.0 L 182.0 143.0 L 185.0 152.0 L 187.0 162.0 L 189.0 172.0 L 189.0 176.0 L 189.0 177.0 " stroke="black" fill="none" stroke-width="5.0" stroke-linecap="round" stroke-linejoin="round" />
<path d="M 161.0 148.0 L 161.0 148.0 L 161.0 148.0 L 162.0 148.0 L 163.0 148.0 L 167.0 148.0 L 172.0 148.0 L 177.0 148.0 L 180.0 148.0 L 180.0 148.0 " stroke="black" fill="none" stroke-width="5.0" stroke-linecap="round" stroke-linejoin="round" />
<path d="M 161.0 156.0 L 162.0 156.0 L 163.0 157.0 L 166.0 158.0 L 170.0 158.0 L 174.0 158.0 L 177.0 158.0 L 177.0 158.0 " stroke="black" fill="none" stroke-width="5.0" stroke-linecap="round" stroke-linejoin="round" />
<path d="M 159.0 164.0 L 159.0 165.0 L 161.0 165.0 L 164.0 166.0 L 169.0 166.0 L 175.0 166.0 L 180.0 166.0 L 181.0 167.0 " stroke="black" fill="none" stroke-width="5.0" stroke-linecap="round" stroke-linejoin="round" />
<path d="M 153.0 179.0 L 155.0 179.0 L 157.0 180.0 L 162.0 180.0 L 170.0 180.0 L 179.0 180.0 L 187.0 180.0 L 193.0 180.0 L 196.0 180.0 L 196.0 180.0 " stroke="black" fill="none" stroke-width="5.0" stroke-linecap="round" stroke-linejoin="round" />
<path d="M 171.0 186.0 L 171.0 187.0 L 170.0 188.0 L 169.0 191.0 L 167.0 195.0 L 166.0 198.0 L 166.0 199.0 " stroke="black" fill="none" stroke-width="5.0" stroke-linecap="round" stroke-linejoin="round" />
<path d="M 181.0 187.0 L 183.0 188.0 L 185.0 190.0 L 188.0 193.0 L 191.0 198.0 L 192.0 201.0 " stroke="black" fill="none" stroke-width="5.0" stroke-linecap="round" stroke-linejoin="round" />
</svg>