<svg xmlns="http://www.w3.org/2000/svg" width="300" height="300" viewBox="0 0 300 300">
<path d="M 122.0 116.0 L 122.0 116.0 L 121.0 116.0 L 121.0 116.0 L 121.0 116.0 L 127.0 116.0 L 135.0 114.0 L 142.0 113.0 L 148.0 113.0 L 149.0 113.0 " stroke="black" fill="none" stroke-width="5.0" stroke-linecap="round" stroke-linejoin="round" />
<path d="M 135.0 117.0 L 135.0 117.0 L 135.0 117.0 L 135.0 117.0 L 135.0 118.0 L 135.0 120.0 L 135.0 123.0 " stroke="black" fill="none" stroke-width="5.0" stroke-linecap="round" stroke-linejoin="round" />
<path d="M 123.0 128.0 L 123.0 128.0 L 123.0 129.0 L 124.0 129.0 L 127.0 129.0 L 132.0 128.0 L 138.0 127.0 L 143.0 126.0 L 146.0 126.0 L 147.0 126.0 L 148.0 126.0 L 148.0 128.0 L 148.0 130.0 L 148.0 133.0 L 148.0 135.0 " stroke="black" fill="none" stroke-width="5.0" stroke-linecap="round" stroke-linejoin="round" />
<path d="M 123.0 138.0 L 124.0 138.0 L 126.0 138.0 L 129.0 137.0 L 132.0 137.0 L 137.0 136.0 L 143.0 135.0 L 147.0 135.0 L 148.0 135.0 " stroke="black" fill="none" stroke-width="5.0" stroke-linecap="round" stroke-linejoin="round" />
<path d="M 134.0 141.0 L 134.0 141.0 L 134.0 141.0 L 134.0 141.0 L 134.0 143.0 L 135.0 146.0 L 136.0 150.0 " stroke="black" fill="none" stroke-width="5.0" stroke-linecap="round" stroke-linejoin="round" />
<path d="M 121.0 151.0 L 122.0 152.0 L 124.0 152.0 L 129.0 153.0 L 136.0 153.0 L 144.0 151.0 L 146.0 151.0 " stroke="black" fill="none" stroke-width="5.0" stroke-linecap="round" stroke-linejoin="round" />
<path d="M 120.0 121.0 L 120.0 120.0 L 120.0 120.0 L 121.0 119.0 L 121.0 119.0 L 122.0 124.0 L 122.0 137.0 L 122.0 150.0 L 122.0 152.0 " stroke="black" fill="none" stroke-width="5.0" stroke-linecap="round" stroke-linejoin="round" />
<path d="M 170.0 107.0 L 170.0 107.0 L 170.0 107.0 L 170.0 107.0 L 169.0 109.0 L 167.0 114.0 L 162.0 121.0 L 158.0 128.0 " stroke="black" fill="none" stroke-width="5.0" stroke-linecap="round" stroke-linejoin="round" />
<path d="M 168.0 118.0 L 168.0 118.0 L 168.0 118.0 L 170.0 118.0 L 174.0 118.0 L 180.0 117.0 L 185.0 117.0 L 187.0 117.0 L 187.0 118.0 " stroke="black" fill="none" stroke-width="5.0" stroke-linecap="round" stroke-linejoin="round" />
<path d="M 164.0 134.0 L 165.0 134.0 L 166.0 134.0 L 168.0 134.0 L 172.0 134.0 L 178.0 133.0 L 183.0 133.0 L 186.0 133.0 " stroke="black" fill="none" stroke-width="5.0" stroke-linecap="round" stroke-linejoin="round" />
<path d="M 155.0 146.0 L 155.0 146.0 L 156.0 147.0 L 157.0 150.0 L 158.0 152.0 L 159.0 154.0 " stroke="black" fill="none" stroke-width="5.0" stroke-linecap="round" stroke-linejoin="round" />
<path d="M 158.0 145.0 L 159.0 145.0 L 160.0 145.0 L 164.0 144.0 L 172.0 143.0 L 182.0 143.0 L 189.0 142.0 L 192.0 144.0 L 193.0 147.0 L 193.0 150.0 L 192.0 152.0 " stroke="black" fill="none" stroke-width="5.0" stroke-linecap="round" stroke-linejoin="round" />
<path d="M 161.0 153.0 L 161.0 154.0 L 162.0 154.0 L 166.0 154.0 L 174.0 154.0 L 182.0 154.0 L 187.0 154.0 " stroke="black" fill="none" stroke-width="5.0" stroke-linecap="round" stroke-linejoin="round" />
<path d="M 172.0 144.0 L 172.0 144.0 L 172.0 146.0 L 172.0 148.0 L 173.0 152.0 " stroke="black" fill="none" stroke-width="5.0" stroke-linecap="round" stroke-linejoin="round" />
<path d="M 182.0 146.0 L 182.0 148.0 L 181.0 150.0 L 181.0 154.0 L 181.0 157.0 " stroke="black" fill="none" stroke-width="5.0" stroke-linecap="round" stroke-linejoin="round" />
<path d="M 152.0 160.0 L 152.0 160.0 L 152.0 160.0 L 152.0 160.0 L 152.0 160.0 L 151.0 161.0 L 148.0 165.0 L 139.0 174.0 L 125.0 185.0 L 118.0 190.0 " stroke="black" fill="none" stroke-width="5.0" stroke-linecap="round" stroke-linejoin="round" />
<path d="M 155.0 159.0 L 155.0 159.0 L 156.0 159.0 L 157.0 159.0 L 163.0 163.0 L 173.0 169.0 L 184.0 175.0 L 191.0 180.0 L 192.0 180.0 " stroke="black" fill="none" stroke-width="5.0" stroke-linecap="round" stroke-linejoin="round" />
<path d="M 150.0 180.0 L 150.0 180.0 L 150.0 180.0 L 151.0 179.0 L 154.0 179.0 L 161.0 178.0 L 169.0 178.0 L 174.0 178.0 L 174.0 178.0 " stroke="black" fill="none" stroke-width="5.0" stroke-linecap="round" stroke-linejoin="round" />
<path d="M 149.0 193.0 L 150.0 193.0 L 152.0 194.0 L 154.0 194.0 L 158.0 194.0 L 163.0 194.0 L 165.0 194.0 " stroke="black" fill="none" stroke-width="5.0" stroke-linecap="round" stroke-linejoin="round" />
<path d="M 124.0 208.0 L 125.0 209.0 L 126.0 210.0 L 126.0 211.0 L 126.0 211.0 L 129.0 211.0 L 139.0 212.0 L 155.0 212.0 L 176.0 211.0 L 192.0 210.0 L 194.0 210.0 " stroke="black" fill="none" stroke-width="5.0" stroke-linecap="round" stroke-linejoin="round" />
<path d="M 156.0 180.0 L 156.0 180.0 L 156.0 180.0 L 156.0 179.0 L 157.0 181.0 L 158.0 188.0 L 158.0 200.0 L 159.0 202.0 " stroke="black" fill="none" stroke-width="5.0" stroke-linecap="round" stroke-linejoin="round" />
<path d="M 142.0 199.0 L 142.0 199.0 L 142.0 200.0 L 143.0 201.0 L 144.0 202.0 " stroke="black" fill="none" stroke-width="5.0" stroke-linecap="round" stroke-linejoin="round" />
<path d="M 176.0 194.0 L 176.0 194.0 L 176.0 195.0 L 176.0 195.0 L 175.0 198.0 L 172.0 202.0 L 171.0 204.0 " stroke="black" fill="none" stroke-width="5.0" stroke-linecap="round" stroke-linejoin="round" />
</svg>