<svg xmlns="http://www.w3.org/2000/svg" width="300" height="300" viewBox="0 0 300 300">
<path d="M 125.0 115.0 L 125.0 115.0 L 125.0 116.0 L 125.0 117.0 L 124.0 120.0 L 122.0 125.0 L 117.0 133.0 L 110.0 142.0 L 107.0 146.0 " stroke="black" fill="none" stroke-width="5.0" stroke-linecap="round" stroke-linejoin="round" />
<path d="M 128.0 119.0 L 128.0 119.0 L 128.0 119.0 L 128.0 119.0 L 128.0 119.0 L 130.0 121.0 L 135.0 125.0 L 141.0 131.0 L 143.0 134.0 " stroke="black" fill="none" stroke-width="5.0" stroke-linecap="round" stroke-linejoin="round" />
<path d="M 120.0 145.0 L 120.0 145.0 L 120.0 145.0 L 120.0 145.0 L 120.0 145.0 L 121.0 145.0 L 125.0 145.0 L 130.0 145.0 L 135.0 145.0 L 136.0 145.0 " stroke="black" fill="none" stroke-width="5.0" stroke-linecap="round" stroke-linejoin="round" />
<path d="M 114.0 165.0 L 114.0 165.0 L 114.0 165.0 L 115.0 166.0 L 117.0 166.0 L 122.0 166.0 L 129.0 166.0 L 135.0 166.0 L 137.0 166.0 " stroke="black" fill="none" stroke-width="5.0" stroke-linecap="round" stroke-linejoin="round" />
<path d="M 103.0 196.0 L 103.0 196.0 L 106.0 196.0 L 111.0 196.0 L 120.0 195.0 L 132.0 194.0 L 144.0 194.0 L 147.0 194.0 " stroke="black" fill="none" stroke-width="5.0" stroke-linecap="round" stroke-linejoin="round" />
<path d="M 126.0 152.0 L 126.0 152.0 L 126.0 152.0 L 126.0 155.0 L 127.0 164.0 L 129.0 175.0 L 129.0 181.0 " stroke="black" fill="none" stroke-width="5.0" stroke-linecap="round" stroke-linejoin="round" />
<path d="M 116.0 179.0 L 118.0 179.0 L 119.0 180.0 L 121.0 182.0 L 124.0 186.0 L 126.0 188.0 " stroke="black" fill="none" stroke-width="5.0" stroke-linecap="round" stroke-linejoin="round" />
<path d="M 145.0 177.0 L 144.0 178.0 L 143.0 179.0 L 143.0 182.0 L 141.0 187.0 L 140.0 189.0 " stroke="black" fill="none" stroke-width="5.0" stroke-linecap="round" stroke-linejoin="round" />
<path d="M 160.0 111.0 L 160.0 111.0 L 161.0 111.0 L 161.0 112.0 L 163.0 113.0 L 164.0 115.0 L 165.0 116.0 " stroke="black" fill="none" stroke-width="5.0" stroke-linecap="round" stroke-linejoin="round" />
<path d="M 149.0 124.0 L 149.0 124.0 L 148.0 124.0 L 148.0 124.0 L 148.0 124.0 L 151.0 124.0 L 157.0 124.0 L 165.0 124.0 L 173.0 124.0 L 177.0 124.0 " stroke="black" fill="none" stroke-width="5.0" stroke-linecap="round" stroke-linejoin="round" />
<path d="M 154.0 127.0 L 154.0 127.0 L 154.0 127.0 L 153.0 127.0 L 153.0 129.0 L 154.0 133.0 L 155.0 138.0 L 156.0 140.0 " stroke="black" fill="none" stroke-width="5.0" stroke-linecap="round" stroke-linejoin="round" />
<path d="M 167.0 128.0 L 167.0 128.0 L 167.0 130.0 L 167.0 131.0 L 167.0 133.0 L 167.0 136.0 L 166.0 139.0 " stroke="black" fill="none" stroke-width="5.0" stroke-linecap="round" stroke-linejoin="round" />
<path d="M 144.0 147.0 L 143.0 147.0 L 143.0 147.0 L 144.0 147.0 L 150.0 147.0 L 162.0 145.0 L 175.0 144.0 L 183.0 144.0 L 185.0 144.0 " stroke="black" fill="none" stroke-width="5.0" stroke-linecap="round" stroke-linejoin="round" />
<path d="M 153.0 159.0 L 153.0 159.0 L 152.0 160.0 L 152.0 160.0 L 152.0 162.0 L 152.0 165.0 L 153.0 170.0 L 153.0 174.0 L 153.0 175.0 " stroke="black" fill="none" stroke-width="5.0" stroke-linecap="round" stroke-linejoin="round" />
<path d="M 154.0 157.0 L 154.0 157.0 L 154.0 158.0 L 155.0 158.0 L 157.0 158.0 L 160.0 158.0 L 166.0 158.0 L 172.0 158.0 L 177.0 158.0 L 181.0 158.0 L 182.0 158.0 L 183.0 161.0 L 184.0 165.0 L 184.0 171.0 L 184.0 176.0 L 184.0 178.0 " stroke="black" fill="none" stroke-width="5.0" stroke-linecap="round" stroke-linejoin="round" />
<path d="M 156.0 172.0 L 157.0 172.0 L 157.0 172.0 L 158.0 172.0 L 161.0 172.0 L 168.0 172.0 L 176.0 172.0 L 181.0 172.0 L 182.0 172.0 L 182.0 172.0 " stroke="black" fill="none" stroke-width="5.0" stroke-linecap="round" stroke-linejoin="round" />
<path d="M 156.0 182.0 L 156.0 182.0 L 157.0 183.0 L 158.0 183.0 L 164.0 184.0 L 173.0 184.0 L 181.0 183.0 L 182.0 183.0 " stroke="black" fill="none" stroke-width="5.0" stroke-linecap="round" stroke-linejoin="round" />
<path d="M 168.0 160.0 L 168.0 161.0 L 167.0 161.0 L 167.0 163.0 L 167.0 169.0 L 169.0 180.0 L 170.0 191.0 L 171.0 199.0 L 171.0 202.0 " stroke="black" fill="none" stroke-width="5.0" stroke-linecap="round" stroke-linejoin="round" />
<path d="M 155.0 195.0 L 155.0 195.0 L 155.0 195.0 L 156.0 195.0 L 160.0 194.0 L 170.0 194.0 L 179.0 193.0 L 185.0 193.0 L 186.0 194.0 " stroke="black" fill="none" stroke-width="5.0" stroke-linecap="round" stroke-linejoin="round" />
<path d="M 148.0 206.0 L 148.0 206.0 L 149.0 206.0 L 154.0 206.0 L 163.0 206.0 L 177.0 206.0 L 189.0 206.0 L 194.0 206.0 L 196.0 206.0 L 196.0 206.0 " stroke="black" fill="none" stroke-width="5.0" stroke-linecap="round" stroke-linejoin="round" />
</svg>