<svg xmlns="http://www.w3.org/2000/svg" width="300" height="300" viewBox="0 0 300 300">
<path d="M 117.0 110.0 L 117.0 110.0 L 118.0 110.0 L 119.0 110.0 L 120.0 110.0 L 122.0 110.0 L 124.0 110.0 L 127.0 110.0 L 130.0 109.0 L 132.0 109.0 L 133.0 109.0 L 135.0 115.0 L 135.0 118.0 L 136.0 123.0 L 137.0 127.0 L 137.0 130.0 " stroke="black" fill="none" stroke-width="5.0" stroke-linecap="round" stroke-linejoin="round" />
<path d="M 118.0 122.0 L 119.0 122.0 L 120.0 123.0 L 122.0 123.0 L 126.0 123.0 L 131.0 122.0 L 136.0 121.0 L 138.0 121.0 " stroke="black" fill="none" stroke-width="5.0" stroke-linecap="round" stroke-linejoin="round" />
<path d="M 114.0 135.0 L 114.0 135.0 L 115.0 136.0 L 118.0 137.0 L 123.0 137.0 L 130.0 136.0 L 132.0 136.0 " stroke="black" fill="none" stroke-width="5.0" stroke-linecap="round" stroke-linejoin="round" />
<path d="M 114.0 113.0 L 114.0 113.0 L 114.0 114.0 L 113.0 117.0 L 113.0 126.0 L 113.0 171.0 L 113.0 187.0 L 113.0 192.0 L 113.0 192.0 " stroke="black" fill="none" stroke-width="5.0" stroke-linecap="round" stroke-linejoin="round" />
<path d="M 152.0 110.0 L 152.0 110.0 L 152.0 110.0 L 152.0 110.0 L 154.0 110.0 L 158.0 110.0 L 164.0 110.0 L 169.0 110.0 L 173.0 110.0 L 175.0 110.0 L 177.0 112.0 L 179.0 118.0 L 182.0 130.0 L 185.0 146.0 L 187.0 160.0 L 189.0 173.0 L 190.0 183.0 L 190.0 188.0 L 189.0 190.0 L 186.0 190.0 L 178.0 189.0 L 172.0 187.0 " stroke="black" fill="none" stroke-width="5.0" stroke-linecap="round" stroke-linejoin="round" />
<path d="M 154.0 114.0 L 154.0 114.0 L 154.0 114.0 L 154.0 115.0 L 154.0 117.0 L 154.0 121.0 L 153.0 126.0 L 154.0 132.0 L 157.0 137.0 L 164.0 137.0 L 171.0 137.0 L 175.0 137.0 " stroke="black" fill="none" stroke-width="5.0" stroke-linecap="round" stroke-linejoin="round" />
<path d="M 158.0 122.0 L 158.0 122.0 L 159.0 123.0 L 161.0 124.0 L 165.0 124.0 L 171.0 124.0 L 175.0 124.0 " stroke="black" fill="none" stroke-width="5.0" stroke-linecap="round" stroke-linejoin="round" />
<path d="M 142.0 151.0 L 142.0 151.0 L 143.0 151.0 L 145.0 151.0 L 151.0 150.0 L 157.0 150.0 " stroke="black" fill="none" stroke-width="5.0" stroke-linecap="round" stroke-linejoin="round" />
<path d="M 136.0 161.0 L 137.0 161.0 L 138.0 162.0 L 141.0 163.0 L 148.0 164.0 L 156.0 163.0 L 162.0 161.0 L 165.0 161.0 " stroke="black" fill="none" stroke-width="5.0" stroke-linecap="round" stroke-linejoin="round" />
<path d="M 150.0 144.0 L 150.0 144.0 L 150.0 144.0 L 150.0 147.0 L 151.0 153.0 L 151.0 158.0 " stroke="black" fill="none" stroke-width="5.0" stroke-linecap="round" stroke-linejoin="round" />
<path d="M 139.0 177.0 L 141.0 177.0 L 143.0 176.0 L 147.0 176.0 L 152.0 176.0 L 156.0 176.0 L 156.0 176.0 " stroke="black" fill="none" stroke-width="5.0" stroke-linecap="round" stroke-linejoin="round" />
<path d="M 131.0 189.0 L 132.0 189.0 L 134.0 190.0 L 138.0 190.0 L 146.0 191.0 L 154.0 191.0 L 161.0 191.0 L 163.0 191.0 " stroke="black" fill="none" stroke-width="5.0" stroke-linecap="round" stroke-linejoin="round" />
<path d="M 147.0 168.0 L 147.0 170.0 L 147.0 173.0 L 147.0 179.0 L 148.0 185.0 L 148.0 187.0 " stroke="black" fill="none" stroke-width="5.0" stroke-linecap="round" stroke-linejoin="round" />
</svg>