<svg xmlns="http://www.w3.org/2000/svg" width="300" height="300" viewBox="0 0 300 300">
<path d="M 113.0 107.0 L 113.0 107.0 L 113.0 107.0 L 114.0 107.0 L 115.0 107.0 L 118.0 107.0 L 122.0 107.0 L 126.0 107.0 L 130.0 107.0 L 132.0 107.0 L 134.0 108.0 L 135.0 112.0 L 136.0 118.0 L 137.0 124.0 L 137.0 130.0 " stroke="black" fill="none" stroke-width="5.0" stroke-linecap="round" stroke-linejoin="round" />
<path d="M 116.0 120.0 L 117.0 120.0 L 118.0 120.0 L 119.0 120.0 L 122.0 120.0 L 127.0 120.0 L 133.0 120.0 L 136.0 120.0 " stroke="black" fill="none" stroke-width="5.0" stroke-linecap="round" stroke-linejoin="round" />
<path d="M 109.0 138.0 L 110.0 138.0 L 112.0 137.0 L 116.0 135.0 L 124.0 134.0 L 131.0 133.0 L 132.0 133.0 " stroke="black" fill="none" stroke-width="5.0" stroke-linecap="round" stroke-linejoin="round" />
<path d="M 114.0 112.0 L 114.0 112.0 L 114.0 111.0 L 113.0 111.0 L 113.0 117.0 L 114.0 133.0 L 115.0 155.0 L 115.0 177.0 L 115.0 191.0 L 115.0 194.0 " stroke="black" fill="none" stroke-width="5.0" stroke-linecap="round" stroke-linejoin="round" />
<path d="M 161.0 109.0 L 162.0 109.0 L 162.0 109.0 L 163.0 109.0 L 165.0 110.0 L 168.0 110.0 L 172.0 109.0 L 176.0 109.0 L 178.0 108.0 L 180.0 108.0 L 182.0 109.0 L 185.0 112.0 L 188.0 121.0 L 191.0 135.0 L 195.0 152.0 L 198.0 166.0 L 199.0 176.0 L 200.0 183.0 L 200.0 187.0 L 196.0 188.0 L 190.0 189.0 L 185.0 189.0 " stroke="black" fill="none" stroke-width="5.0" stroke-linecap="round" stroke-linejoin="round" />
<path d="M 161.0 112.0 L 161.0 112.0 L 161.0 112.0 L 161.0 112.0 L 161.0 113.0 L 160.0 117.0 L 158.0 124.0 L 158.0 132.0 L 159.0 137.0 L 165.0 140.0 L 173.0 140.0 L 178.0 139.0 " stroke="black" fill="none" stroke-width="5.0" stroke-linecap="round" stroke-linejoin="round" />
<path d="M 162.0 124.0 L 162.0 124.0 L 163.0 124.0 L 164.0 124.0 L 169.0 124.0 L 178.0 123.0 L 181.0 122.0 " stroke="black" fill="none" stroke-width="5.0" stroke-linecap="round" stroke-linejoin="round" />
<path d="M 139.0 158.0 L 139.0 158.0 L 139.0 159.0 L 139.0 159.0 L 143.0 159.0 L 152.0 159.0 L 162.0 158.0 L 168.0 157.0 " stroke="black" fill="none" stroke-width="5.0" stroke-linecap="round" stroke-linejoin="round" />
<path d="M 153.0 145.0 L 153.0 145.0 L 152.0 146.0 L 152.0 149.0 L 153.0 160.0 L 155.0 177.0 L 157.0 191.0 L 157.0 198.0 " stroke="black" fill="none" stroke-width="5.0" stroke-linecap="round" stroke-linejoin="round" />
<path d="M 153.0 166.0 L 153.0 166.0 L 152.0 166.0 L 150.0 167.0 L 147.0 170.0 L 140.0 177.0 L 133.0 186.0 L 130.0 189.0 " stroke="black" fill="none" stroke-width="5.0" stroke-linecap="round" stroke-linejoin="round" />
<path d="M 154.0 163.0 L 155.0 163.0 L 158.0 164.0 L 162.0 167.0 L 169.0 175.0 L 176.0 183.0 L 178.0 185.0 " stroke="black" fill="none" stroke-width="5.0" stroke-linecap="round" stroke-linejoin="round" />
</svg>