<svg xmlns="http://www.w3.org/2000/svg" width="300" height="300" viewBox="0 0 300 300">
<path d="M 119.0 110.0 L 119.0 110.0 L 120.0 110.0 L 121.0 110.0 L 125.0 110.0 L 130.0 110.0 L 135.0 110.0 L 138.0 110.0 L 139.0 110.0 L 139.0 110.0 L 139.0 110.0 L 140.0 113.0 L 140.0 118.0 L 141.0 125.0 L 142.0 131.0 L 143.0 135.0 L 143.0 135.0 " stroke="black" fill="none" stroke-width="5.0" stroke-linecap="round" stroke-linejoin="round" />
<path d="M 122.0 123.0 L 122.0 123.0 L 122.0 123.0 L 122.0 123.0 L 124.0 123.0 L 128.0 123.0 L 134.0 123.0 L 137.0 123.0 L 139.0 123.0 L 139.0 123.0 " stroke="black" fill="none" stroke-width="5.0" stroke-linecap="round" stroke-linejoin="round" />
<path d="M 117.0 136.0 L 117.0 137.0 L 119.0 137.0 L 124.0 138.0 L 133.0 138.0 L 140.0 138.0 L 141.0 138.0 " stroke="black" fill="none" stroke-width="5.0" stroke-linecap="round" stroke-linejoin="round" />
<path d="M 116.0 113.0 L 116.0 113.0 L 115.0 113.0 L 115.0 113.0 L 115.0 118.0 L 115.0 133.0 L 117.0 157.0 L 117.0 175.0 L 116.0 187.0 L 115.0 193.0 L 115.0 194.0 " stroke="black" fill="none" stroke-width="5.0" stroke-linecap="round" stroke-linejoin="round" />
<path d="M 155.0 110.0 L 155.0 110.0 L 155.0 110.0 L 154.0 111.0 L 154.0 111.0 L 156.0 111.0 L 160.0 111.0 L 164.0 111.0 L 168.0 111.0 L 170.0 111.0 L 171.0 111.0 L 172.0 111.0 L 173.0 113.0 L 174.0 119.0 L 177.0 132.0 L 180.0 147.0 L 183.0 163.0 L 185.0 177.0 L 186.0 187.0 L 186.0 193.0 L 186.0 195.0 L 185.0 195.0 L 181.0 194.0 L 174.0 193.0 L 169.0 193.0 " stroke="black" fill="none" stroke-width="5.0" stroke-linecap="round" stroke-linejoin="round" />
<path d="M 153.0 114.0 L 152.0 114.0 L 152.0 114.0 L 152.0 114.0 L 152.0 114.0 L 151.0 120.0 L 151.0 129.0 L 151.0 139.0 L 155.0 145.0 L 161.0 146.0 L 168.0 144.0 L 170.0 143.0 " stroke="black" fill="none" stroke-width="5.0" stroke-linecap="round" stroke-linejoin="round" />
<path d="M 153.0 131.0 L 154.0 131.0 L 155.0 131.0 L 158.0 131.0 L 165.0 131.0 L 174.0 131.0 " stroke="black" fill="none" stroke-width="5.0" stroke-linecap="round" stroke-linejoin="round" />
</svg>