<svg xmlns="http://www.w3.org/2000/svg" width="300" height="300" viewBox="0 0 300 300">
<path d="M 125.00000000000001 117.85714285714288 L 125.71428571428574 117.85714285714288 L 126.42857142857146 117.85714285714288 L 127.14285714285718 117.85714285714288 L 130.00000000000006 117.14285714285718 L 133.5714285714286 116.42857142857146 L 137.8571428571429 115.71428571428574 L 141.42857142857144 115.00000000000001 L 142.8571428571429 115.00000000000001 L 143.5714285714286 115.00000000000001 L 143.5714285714286 117.14285714285718 L 143.5714285714286 120.71428571428574 L 143.5714285714286 126.42857142857146 L 143.5714285714286 132.8571428571429 L 142.8571428571429 137.14285714285717 L 142.8571428571429 138.5714285714286 " stroke="black" fill="none" stroke-width="5.0" stroke-linecap="round" stroke-linejoin="round" />
<path d="M 125.00000000000001 129.28571428571433 L 125.00000000000001 129.28571428571433 L 125.71428571428574 129.28571428571433 L 126.42857142857146 130.00000000000006 L 129.28571428571433 130.00000000000006 L 135.00000000000006 129.28571428571433 L 141.42857142857144 127.85714285714288 L 145.00000000000006 126.42857142857146 " stroke="black" fill="none" stroke-width="5.0" stroke-linecap="round" stroke-linejoin="round" />
<path d="M 123.5714285714286 143.5714285714286 L 125.00000000000001 143.5714285714286 L 127.14285714285718 144.28571428571433 L 132.8571428571429 144.28571428571433 L 139.28571428571433 142.8571428571429 L 142.14285714285717 142.14285714285717 " stroke="black" fill="none" stroke-width="5.0" stroke-linecap="round" stroke-linejoin="round" />
<path d="M 122.85714285714288 117.85714285714288 L 122.85714285714288 117.85714285714288 L 122.85714285714288 117.14285714285718 L 122.14285714285718 117.85714285714288 L 122.14285714285718 124.28571428571432 L 122.14285714285718 139.28571428571433 L 122.14285714285718 160.71428571428572 L 121.42857142857146 180.00000000000006 L 121.42857142857146 192.8571428571429 L 122.14285714285718 197.8571428571429 " stroke="black" fill="none" stroke-width="5.0" stroke-linecap="round" stroke-linejoin="round" />
<path d="M 155.71428571428572 115.71428571428574 L 155.71428571428572 115.71428571428574 L 155.71428571428572 115.71428571428574 L 155.71428571428572 115.71428571428574 L 157.14285714285717 115.71428571428574 L 160.00000000000006 115.00000000000001 L 163.5714285714286 115.00000000000001 L 167.14285714285717 114.28571428571432 L 169.28571428571433 114.28571428571432 L 170.71428571428572 114.28571428571432 L 171.42857142857144 114.28571428571432 L 171.42857142857144 115.71428571428574 L 171.42857142857144 120.71428571428574 L 172.8571428571429 129.28571428571433 L 175.00000000000006 142.14285714285717 L 177.14285714285717 157.8571428571429 L 179.28571428571433 172.14285714285717 L 180.71428571428578 182.8571428571429 L 181.42857142857144 189.28571428571433 L 181.42857142857144 192.8571428571429 L 180.71428571428578 194.28571428571433 L 178.5714285714286 195.00000000000006 L 174.28571428571433 194.28571428571433 L 169.28571428571433 192.14285714285722 " stroke="black" fill="none" stroke-width="5.0" stroke-linecap="round" stroke-linejoin="round" />
<path d="M 152.14285714285717 119.28571428571432 L 152.14285714285717 117.85714285714288 L 152.14285714285717 116.42857142857146 L 152.14285714285717 116.42857142857146 L 152.14285714285717 119.28571428571432 L 152.14285714285717 125.71428571428574 L 152.14285714285717 134.28571428571433 L 152.8571428571429 142.14285714285717 L 155.00000000000006 145.71428571428572 L 160.71428571428572 145.71428571428572 L 165.71428571428572 142.14285714285717 L 167.14285714285717 139.28571428571433 " stroke="black" fill="none" stroke-width="5.0" stroke-linecap="round" stroke-linejoin="round" />
<path d="M 155.00000000000006 130.71428571428572 L 155.00000000000006 130.71428571428572 L 155.71428571428572 130.71428571428572 L 158.5714285714286 130.00000000000006 L 163.5714285714286 129.28571428571433 L 170.00000000000006 127.85714285714288 L 172.14285714285717 127.85714285714288 " stroke="black" fill="none" stroke-width="5.0" stroke-linecap="round" stroke-linejoin="round" />
<path d="M 140.71428571428572 161.42857142857144 L 140.71428571428572 162.14285714285717 L 140.71428571428572 162.14285714285717 L 141.42857142857144 162.14285714285717 L 144.28571428571433 162.14285714285717 L 150.00000000000006 160.71428571428572 L 156.42857142857144 159.28571428571433 L 159.28571428571433 159.28571428571433 " stroke="black" fill="none" stroke-width="5.0" stroke-linecap="round" stroke-linejoin="round" />
<path d="M 142.8571428571429 169.28571428571433 L 142.8571428571429 170.00000000000006 L 142.8571428571429 170.71428571428572 L 142.8571428571429 170.71428571428572 L 145.71428571428572 170.71428571428572 L 150.71428571428572 170.00000000000006 L 156.42857142857144 169.28571428571433 " stroke="black" fill="none" stroke-width="5.0" stroke-linecap="round" stroke-linejoin="round" />
<path d="M 137.8571428571429 181.42857142857144 L 139.28571428571433 182.14285714285717 L 142.8571428571429 182.8571428571429 L 148.5714285714286 182.8571428571429 L 156.42857142857144 182.14285714285717 L 163.5714285714286 180.00000000000006 " stroke="black" fill="none" stroke-width="5.0" stroke-linecap="round" stroke-linejoin="round" />
<path d="M 149.28571428571433 160.00000000000006 L 149.28571428571433 160.00000000000006 L 149.28571428571433 160.00000000000006 L 149.28571428571433 160.00000000000006 L 149.28571428571433 161.42857142857144 L 150.00000000000006 166.42857142857144 L 150.71428571428572 175.00000000000006 L 150.71428571428572 177.14285714285717 " stroke="black" fill="none" stroke-width="5.0" stroke-linecap="round" stroke-linejoin="round" />
</svg>