<svg xmlns="http://www.w3.org/2000/svg" width="300" height="300" viewBox="0 0 300 300">
<path d="M 130.0 117.0 L 130.0 117.0 L 131.0 117.0 L 134.0 117.0 L 145.0 116.0 L 160.0 114.0 L 173.0 113.0 L 174.0 113.0 " stroke="black" fill="none" stroke-width="5.0" stroke-linecap="round" stroke-linejoin="round" />
<path d="M 141.0 119.0 L 141.0 119.0 L 141.0 119.0 L 141.0 119.0 L 141.0 123.0 L 141.0 137.0 L 141.0 155.0 L 142.0 159.0 " stroke="black" fill="none" stroke-width="5.0" stroke-linecap="round" stroke-linejoin="round" />
<path d="M 148.0 133.0 L 148.0 133.0 L 150.0 133.0 L 153.0 132.0 L 159.0 132.0 L 167.0 131.0 L 169.0 131.0 " stroke="black" fill="none" stroke-width="5.0" stroke-linecap="round" stroke-linejoin="round" />
<path d="M 146.0 147.0 L 146.0 147.0 L 147.0 147.0 L 149.0 147.0 L 153.0 147.0 L 162.0 146.0 L 168.0 146.0 " stroke="black" fill="none" stroke-width="5.0" stroke-linecap="round" stroke-linejoin="round" />
<path d="M 115.0 169.0 L 115.0 169.0 L 115.0 169.0 L 117.0 168.0 L 130.0 166.0 L 151.0 163.0 L 170.0 161.0 L 180.0 162.0 " stroke="black" fill="none" stroke-width="5.0" stroke-linecap="round" stroke-linejoin="round" />
<path d="M 138.0 170.0 L 138.0 170.0 L 137.0 170.0 L 135.0 174.0 L 134.0 185.0 L 134.0 197.0 L 139.0 203.0 L 149.0 201.0 L 152.0 199.0 " stroke="black" fill="none" stroke-width="5.0" stroke-linecap="round" stroke-linejoin="round" />
<path d="M 188.0 166.0 L 187.0 167.0 L 184.0 169.0 L 181.0 174.0 L 177.0 181.0 L 176.0 183.0 " stroke="black" fill="none" stroke-width="5.0" stroke-linecap="round" stroke-linejoin="round" />
<path d="M 154.0 165.0 L 154.0 165.0 L 155.0 166.0 L 161.0 178.0 L 176.0 199.0 L 190.0 213.0 L 193.0 217.0 " stroke="black" fill="none" stroke-width="5.0" stroke-linecap="round" stroke-linejoin="round" />
</svg>