<svg xmlns="http://www.w3.org/2000/svg" width="300" height="300" viewBox="0 0 300 300">
<path d="M 145.0 104.0 L 145.0 104.0 L 144.0 104.0 L 144.0 105.0 L 143.0 105.0 L 142.0 107.0 L 140.0 110.0 L 136.0 114.0 L 133.0 117.0 " stroke="black" fill="none" stroke-width="5.0" stroke-linecap="round" stroke-linejoin="round" />
<path d="M 134.0 121.0 L 134.0 121.0 L 134.0 122.0 L 135.0 122.0 L 137.0 122.0 L 142.0 122.0 L 147.0 121.0 L 152.0 120.0 L 155.0 120.0 L 158.0 119.0 L 160.0 119.0 L 161.0 119.0 L 161.0 119.0 L 162.0 119.0 L 162.0 120.0 L 162.0 123.0 L 162.0 126.0 L 162.0 130.0 L 162.0 133.0 L 162.0 134.0 " stroke="black" fill="none" stroke-width="5.0" stroke-linecap="round" stroke-linejoin="round" />
<path d="M 135.0 137.0 L 134.0 137.0 L 134.0 137.0 L 134.0 137.0 L 139.0 137.0 L 148.0 137.0 L 156.0 136.0 L 161.0 135.0 L 161.0 135.0 " stroke="black" fill="none" stroke-width="5.0" stroke-linecap="round" stroke-linejoin="round" />
<path d="M 137.0 124.0 L 137.0 124.0 L 137.0 124.0 L 136.0 124.0 L 136.0 126.0 L 135.0 134.0 L 135.0 148.0 L 135.0 159.0 L 135.0 165.0 L 135.0 166.0 " stroke="black" fill="none" stroke-width="5.0" stroke-linecap="round" stroke-linejoin="round" />
<path d="M 137.0 149.0 L 137.0 149.0 L 137.0 149.0 L 137.0 149.0 L 137.0 150.0 L 141.0 150.0 L 147.0 149.0 L 153.0 148.0 L 158.0 147.0 L 161.0 146.0 L 163.0 146.0 L 163.0 146.0 L 164.0 149.0 L 164.0 153.0 L 165.0 157.0 L 165.0 160.0 L 164.0 162.0 L 164.0 162.0 " stroke="black" fill="none" stroke-width="5.0" stroke-linecap="round" stroke-linejoin="round" />
<path d="M 136.0 164.0 L 136.0 164.0 L 136.0 165.0 L 138.0 165.0 L 143.0 165.0 L 149.0 165.0 L 155.0 165.0 L 159.0 165.0 L 160.0 164.0 " stroke="black" fill="none" stroke-width="5.0" stroke-linecap="round" stroke-linejoin="round" />
<path d="M 119.0 180.0 L 119.0 180.0 L 119.0 180.0 L 119.0 180.0 L 120.0 180.0 L 122.0 180.0 L 128.0 180.0 L 140.0 180.0 L 155.0 180.0 L 168.0 180.0 L 177.0 179.0 L 180.0 179.0 L 180.0 179.0 L 180.0 179.0 " stroke="black" fill="none" stroke-width="5.0" stroke-linecap="round" stroke-linejoin="round" />
<path d="M 150.0 168.0 L 150.0 168.0 L 150.0 168.0 L 149.0 169.0 L 149.0 173.0 L 150.0 183.0 L 151.0 195.0 L 152.0 204.0 L 152.0 207.0 L 151.0 207.0 " stroke="black" fill="none" stroke-width="5.0" stroke-linecap="round" stroke-linejoin="round" />
</svg>