<svg xmlns="http://www.w3.org/2000/svg" width="300" height="300" viewBox="0 0 300 300">
<path d="M 122.0 103.0 L 122.0 103.0 L 122.0 103.0 L 122.0 103.0 L 124.0 103.0 L 124.0 103.0 L 127.0 108.0 L 128.0 110.0 " stroke="black" fill="none" stroke-width="5.0" stroke-linecap="round" stroke-linejoin="round" />
<path d="M 109.0 117.0 L 109.0 117.0 L 109.0 117.0 L 109.0 117.0 L 113.0 117.0 L 122.0 117.0 L 133.0 116.0 L 141.0 115.0 L 144.0 115.0 L 144.0 115.0 " stroke="black" fill="none" stroke-width="5.0" stroke-linecap="round" stroke-linejoin="round" />
<path d="M 115.0 122.0 L 115.0 122.0 L 115.0 122.0 L 115.0 123.0 L 115.0 125.0 L 114.0 130.0 L 111.0 138.0 L 108.0 144.0 " stroke="black" fill="none" stroke-width="5.0" stroke-linecap="round" stroke-linejoin="round" />
<path d="M 113.0 136.0 L 113.0 137.0 L 114.0 138.0 L 115.0 138.0 L 118.0 140.0 L 123.0 142.0 L 125.0 143.0 L 125.0 143.0 " stroke="black" fill="none" stroke-width="5.0" stroke-linecap="round" stroke-linejoin="round" />
<path d="M 139.0 122.0 L 139.0 122.0 L 139.0 122.0 L 138.0 122.0 L 138.0 122.0 L 138.0 123.0 L 137.0 130.0 L 135.0 136.0 L 133.0 141.0 L 131.0 144.0 " stroke="black" fill="none" stroke-width="5.0" stroke-linecap="round" stroke-linejoin="round" />
<path d="M 138.0 135.0 L 138.0 135.0 L 138.0 135.0 L 140.0 135.0 L 143.0 137.0 L 145.0 139.0 L 146.0 141.0 " stroke="black" fill="none" stroke-width="5.0" stroke-linecap="round" stroke-linejoin="round" />
<path d="M 106.0 157.0 L 106.0 158.0 L 106.0 159.0 L 107.0 159.0 L 108.0 159.0 L 118.0 159.0 L 130.0 158.0 L 141.0 158.0 L 145.0 158.0 L 147.0 158.0 L 147.0 158.0 " stroke="black" fill="none" stroke-width="5.0" stroke-linecap="round" stroke-linejoin="round" />
<path d="M 125.0 145.0 L 125.0 145.0 L 125.0 144.0 L 126.0 148.0 L 127.0 155.0 L 128.0 166.0 L 129.0 177.0 L 130.0 191.0 L 131.0 193.0 L 131.0 192.0 " stroke="black" fill="none" stroke-width="5.0" stroke-linecap="round" stroke-linejoin="round" />
<path d="M 127.0 159.0 L 127.0 159.0 L 126.0 160.0 L 125.0 161.0 L 124.0 162.0 L 121.0 166.0 L 115.0 172.0 L 109.0 180.0 L 106.0 184.0 " stroke="black" fill="none" stroke-width="5.0" stroke-linecap="round" stroke-linejoin="round" />
<path d="M 129.0 162.0 L 129.0 162.0 L 131.0 163.0 L 134.0 167.0 L 140.0 173.0 L 143.0 176.0 L 148.0 182.0 " stroke="black" fill="none" stroke-width="5.0" stroke-linecap="round" stroke-linejoin="round" />
<path d="M 163.0 117.0 L 164.0 117.0 L 164.0 117.0 L 164.0 118.0 L 163.0 126.0 L 160.0 132.0 L 156.0 139.0 L 147.0 152.0 L 145.0 154.0 " stroke="black" fill="none" stroke-width="5.0" stroke-linecap="round" stroke-linejoin="round" />
<path d="M 156.0 140.0 L 156.0 140.0 L 157.0 141.0 L 157.0 143.0 L 157.0 146.0 L 158.0 151.0 L 159.0 164.0 L 159.0 177.0 L 159.0 183.0 L 159.0 188.0 " stroke="black" fill="none" stroke-width="5.0" stroke-linecap="round" stroke-linejoin="round" />
<path d="M 176.0 121.0 L 176.0 121.0 L 176.0 121.0 L 176.0 121.0 L 178.0 122.0 L 180.0 127.0 L 181.0 129.0 L 182.0 131.0 " stroke="black" fill="none" stroke-width="5.0" stroke-linecap="round" stroke-linejoin="round" />
<path d="M 169.0 140.0 L 170.0 140.0 L 172.0 139.0 L 175.0 139.0 L 178.0 139.0 L 186.0 139.0 L 191.0 139.0 L 192.0 139.0 L 193.0 140.0 " stroke="black" fill="none" stroke-width="5.0" stroke-linecap="round" stroke-linejoin="round" />
<path d="M 173.0 152.0 L 173.0 152.0 L 174.0 152.0 L 176.0 152.0 L 179.0 152.0 L 181.0 152.0 L 184.0 152.0 L 186.0 152.0 " stroke="black" fill="none" stroke-width="5.0" stroke-linecap="round" stroke-linejoin="round" />
<path d="M 174.0 162.0 L 174.0 163.0 L 175.0 163.0 L 178.0 164.0 L 180.0 164.0 L 184.0 164.0 L 188.0 164.0 L 189.0 164.0 " stroke="black" fill="none" stroke-width="5.0" stroke-linecap="round" stroke-linejoin="round" />
<path d="M 157.0 190.0 L 160.0 191.0 L 161.0 191.0 L 166.0 191.0 L 175.0 191.0 L 182.0 191.0 L 192.0 190.0 L 195.0 190.0 " stroke="black" fill="none" stroke-width="5.0" stroke-linecap="round" stroke-linejoin="round" />
<path d="M 178.0 142.0 L 176.0 141.0 L 175.0 141.0 L 175.0 143.0 L 177.0 150.0 L 179.0 162.0 L 180.0 175.0 L 181.0 183.0 L 181.0 186.0 " stroke="black" fill="none" stroke-width="5.0" stroke-linecap="round" stroke-linejoin="round" />
</svg>