<svg xmlns="http://www.w3.org/2000/svg" width="300" height="300" viewBox="0 0 300 300">
<path d="M 115.0 119.0 L 115.0 120.0 L 115.0 120.0 L 115.0 121.0 L 115.0 122.0 L 118.0 123.0 L 122.0 123.0 L 127.0 123.0 L 131.0 123.0 L 133.0 123.0 L 133.0 124.0 L 132.0 127.0 L 129.0 131.0 L 127.0 134.0 L 126.0 136.0 L 125.0 138.0 L 127.0 140.0 L 130.0 143.0 L 134.0 146.0 L 137.0 149.0 L 139.0 151.0 L 138.0 153.0 L 134.0 156.0 L 127.0 158.0 " stroke="black" fill="none" stroke-width="5.0" stroke-linecap="round" stroke-linejoin="round" />
<path d="M 115.0 120.0 L 115.0 120.0 L 115.0 120.0 L 115.0 121.0 L 115.0 126.0 L 116.0 146.0 L 119.0 173.0 L 120.0 194.0 L 120.0 202.0 " stroke="black" fill="none" stroke-width="5.0" stroke-linecap="round" stroke-linejoin="round" />
<path d="M 151.0 119.0 L 151.0 120.0 L 151.0 121.0 L 153.0 121.0 L 158.0 121.0 L 166.0 119.0 L 175.0 118.0 L 179.0 117.0 " stroke="black" fill="none" stroke-width="5.0" stroke-linecap="round" stroke-linejoin="round" />
<path d="M 148.0 137.0 L 148.0 137.0 L 148.0 136.0 L 148.0 136.0 L 148.0 137.0 L 148.0 143.0 L 149.0 151.0 L 150.0 156.0 L 151.0 157.0 " stroke="black" fill="none" stroke-width="5.0" stroke-linecap="round" stroke-linejoin="round" />
<path d="M 150.0 134.0 L 150.0 134.0 L 151.0 134.0 L 152.0 133.0 L 154.0 133.0 L 160.0 132.0 L 167.0 132.0 L 173.0 132.0 L 178.0 134.0 L 180.0 140.0 L 182.0 148.0 L 183.0 154.0 L 183.0 158.0 " stroke="black" fill="none" stroke-width="5.0" stroke-linecap="round" stroke-linejoin="round" />
<path d="M 156.0 144.0 L 156.0 145.0 L 157.0 146.0 L 160.0 146.0 L 166.0 147.0 L 174.0 145.0 L 178.0 145.0 " stroke="black" fill="none" stroke-width="5.0" stroke-linecap="round" stroke-linejoin="round" />
<path d="M 153.0 158.0 L 154.0 158.0 L 158.0 159.0 L 166.0 159.0 L 176.0 158.0 L 182.0 158.0 " stroke="black" fill="none" stroke-width="5.0" stroke-linecap="round" stroke-linejoin="round" />
<path d="M 164.0 108.0 L 164.0 108.0 L 164.0 110.0 L 163.0 119.0 L 166.0 141.0 L 170.0 168.0 L 172.0 190.0 L 174.0 202.0 L 174.0 206.0 " stroke="black" fill="none" stroke-width="5.0" stroke-linecap="round" stroke-linejoin="round" />
<path d="M 166.0 160.0 L 166.0 160.0 L 165.0 161.0 L 163.0 162.0 L 160.0 166.0 L 154.0 174.0 L 145.0 186.0 L 137.0 193.0 L 135.0 194.0 " stroke="black" fill="none" stroke-width="5.0" stroke-linecap="round" stroke-linejoin="round" />
<path d="M 166.0 161.0 L 167.0 161.0 L 169.0 162.0 L 175.0 166.0 L 188.0 178.0 L 199.0 191.0 L 202.0 199.0 " stroke="black" fill="none" stroke-width="5.0" stroke-linecap="round" stroke-linejoin="round" />
</svg>