<svg xmlns="http://www.w3.org/2000/svg" width="300" height="300" viewBox="0 0 300 300">
<path d="M 127.14285714285718 117.14285714285718 L 127.85714285714288 117.14285714285718 L 127.85714285714288 117.14285714285718 L 127.85714285714288 117.14285714285718 L 129.28571428571433 117.14285714285718 L 131.42857142857144 117.14285714285718 L 135.00000000000006 117.14285714285718 L 138.5714285714286 117.14285714285718 L 140.71428571428572 117.85714285714288 L 140.71428571428572 119.28571428571432 L 140.00000000000006 121.42857142857146 L 137.8571428571429 124.28571428571432 L 136.42857142857144 127.14285714285718 L 135.71428571428572 130.00000000000006 L 135.71428571428572 132.14285714285717 L 137.14285714285717 134.28571428571433 L 140.00000000000006 135.71428571428572 L 142.8571428571429 137.8571428571429 L 145.00000000000006 140.00000000000006 L 145.71428571428572 141.42857142857144 L 145.71428571428572 142.8571428571429 L 142.8571428571429 142.8571428571429 L 138.5714285714286 143.5714285714286 " stroke="black" fill="none" stroke-width="5.0" stroke-linecap="round" stroke-linejoin="round" />
<path d="M 126.42857142857146 122.14285714285718 L 126.42857142857146 122.14285714285718 L 126.42857142857146 122.14285714285718 L 126.42857142857146 125.71428571428574 L 127.14285714285718 135.71428571428572 L 128.5714285714286 151.42857142857144 L 130.00000000000006 167.8571428571429 L 130.71428571428572 180.71428571428578 L 130.71428571428572 182.8571428571429 " stroke="black" fill="none" stroke-width="5.0" stroke-linecap="round" stroke-linejoin="round" />
<path d="M 151.42857142857144 119.28571428571432 L 151.42857142857144 119.28571428571432 L 151.42857142857144 119.28571428571432 L 152.14285714285717 121.42857142857146 L 152.14285714285717 126.42857142857146 L 152.8571428571429 133.5714285714286 L 152.8571428571429 139.28571428571433 " stroke="black" fill="none" stroke-width="5.0" stroke-linecap="round" stroke-linejoin="round" />
<path d="M 153.5714285714286 119.28571428571432 L 153.5714285714286 119.28571428571432 L 154.28571428571433 118.5714285714286 L 154.28571428571433 117.85714285714288 L 156.42857142857144 117.14285714285718 L 160.00000000000006 115.71428571428574 L 164.28571428571433 115.00000000000001 L 167.8571428571429 115.00000000000001 L 170.71428571428572 117.14285714285718 L 173.5714285714286 120.00000000000001 L 175.00000000000006 125.00000000000001 L 176.42857142857144 131.42857142857144 L 177.14285714285717 136.42857142857144 L 177.14285714285717 137.8571428571429 " stroke="black" fill="none" stroke-width="5.0" stroke-linecap="round" stroke-linejoin="round" />
<path d="M 155.71428571428572 132.14285714285717 L 155.71428571428572 132.14285714285717 L 155.71428571428572 132.14285714285717 L 155.71428571428572 132.14285714285717 L 155.71428571428572 132.14285714285717 L 158.5714285714286 130.71428571428572 L 162.8571428571429 130.00000000000006 L 168.5714285714286 129.28571428571433 L 172.8571428571429 128.5714285714286 L 175.71428571428578 128.5714285714286 " stroke="black" fill="none" stroke-width="5.0" stroke-linecap="round" stroke-linejoin="round" />
<path d="M 152.8571428571429 143.5714285714286 L 153.5714285714286 143.5714285714286 L 154.28571428571433 143.5714285714286 L 155.71428571428572 143.5714285714286 L 159.28571428571433 143.5714285714286 L 165.71428571428572 142.14285714285717 L 171.42857142857144 142.14285714285717 " stroke="black" fill="none" stroke-width="5.0" stroke-linecap="round" stroke-linejoin="round" />
<path d="M 144.28571428571433 155.71428571428572 L 144.28571428571433 155.71428571428572 L 144.28571428571433 155.71428571428572 L 144.28571428571433 156.42857142857144 L 147.14285714285717 156.42857142857144 L 155.71428571428572 154.28571428571433 L 166.42857142857144 152.14285714285717 L 175.00000000000006 150.71428571428572 L 177.14285714285717 150.00000000000006 " stroke="black" fill="none" stroke-width="5.0" stroke-linecap="round" stroke-linejoin="round" />
<path d="M 153.5714285714286 156.42857142857144 L 153.5714285714286 157.14285714285717 L 153.5714285714286 157.8571428571429 L 152.8571428571429 160.00000000000006 L 151.42857142857144 163.5714285714286 L 148.5714285714286 170.00000000000006 L 147.14285714285717 175.00000000000006 " stroke="black" fill="none" stroke-width="5.0" stroke-linecap="round" stroke-linejoin="round" />
<path d="M 153.5714285714286 162.14285714285717 L 153.5714285714286 162.14285714285717 L 153.5714285714286 163.5714285714286 L 153.5714285714286 164.28571428571433 L 154.28571428571433 164.28571428571433 L 155.00000000000006 164.28571428571433 L 157.14285714285717 164.28571428571433 L 160.71428571428572 163.5714285714286 L 166.42857142857144 162.8571428571429 L 172.8571428571429 162.14285714285717 L 178.5714285714286 161.42857142857144 L 182.14285714285717 160.71428571428572 L 182.8571428571429 160.00000000000006 L 182.8571428571429 160.00000000000006 L 182.8571428571429 160.00000000000006 L 183.5714285714286 162.14285714285717 L 184.28571428571433 165.71428571428572 L 185.71428571428578 172.14285714285717 L 187.8571428571429 179.28571428571433 L 189.28571428571433 185.71428571428578 L 189.28571428571433 189.28571428571433 L 189.28571428571433 190.71428571428578 L 187.8571428571429 190.71428571428578 L 183.5714285714286 190.00000000000006 L 179.28571428571433 189.28571428571433 " stroke="black" fill="none" stroke-width="5.0" stroke-linecap="round" stroke-linejoin="round" />
<path d="M 162.14285714285717 165.00000000000006 L 162.14285714285717 165.00000000000006 L 161.42857142857144 165.00000000000006 L 161.42857142857144 165.71428571428572 L 160.71428571428572 167.14285714285717 L 159.28571428571433 170.71428571428572 L 157.14285714285717 177.8571428571429 L 155.71428571428572 182.14285714285717 " stroke="black" fill="none" stroke-width="5.0" stroke-linecap="round" stroke-linejoin="round" />
<path d="M 174.28571428571433 164.28571428571433 L 174.28571428571433 164.28571428571433 L 174.28571428571433 164.28571428571433 L 173.5714285714286 165.71428571428572 L 172.8571428571429 170.00000000000006 L 170.00000000000006 180.00000000000006 L 165.71428571428572 188.5714285714286 " stroke="black" fill="none" stroke-width="5.0" stroke-linecap="round" stroke-linejoin="round" />
</svg>