<svg xmlns="http://www.w3.org/2000/svg" width="300" height="300" viewBox="0 0 300 300">
<path d="M 121.0 101.0 L 121.0 101.0 L 121.0 101.0 L 122.0 101.0 L 122.0 102.0 L 124.0 105.0 L 129.0 110.0 L 131.0 113.0 " stroke="black" fill="none" stroke-width="5.0" stroke-linecap="round" stroke-linejoin="round" />
<path d="M 112.0 120.0 L 112.0 120.0 L 112.0 120.0 L 114.0 120.0 L 121.0 120.0 L 132.0 119.0 L 141.0 119.0 " stroke="black" fill="none" stroke-width="5.0" stroke-linecap="round" stroke-linejoin="round" />
<path d="M 118.0 130.0 L 118.0 130.0 L 118.0 130.0 L 118.0 130.0 L 120.0 132.0 L 124.0 136.0 L 130.0 141.0 L 132.0 144.0 " stroke="black" fill="none" stroke-width="5.0" stroke-linecap="round" stroke-linejoin="round" />
<path d="M 136.0 130.0 L 136.0 130.0 L 136.0 130.0 L 136.0 130.0 L 133.0 133.0 L 128.0 140.0 L 125.0 144.0 " stroke="black" fill="none" stroke-width="5.0" stroke-linecap="round" stroke-linejoin="round" />
<path d="M 110.0 130.0 L 110.0 130.0 L 110.0 130.0 L 110.0 130.0 L 110.0 130.0 L 110.0 135.0 L 110.0 143.0 L 110.0 152.0 L 110.0 156.0 L 112.0 157.0 L 118.0 157.0 L 127.0 155.0 L 137.0 155.0 L 144.0 154.0 L 145.0 154.0 " stroke="black" fill="none" stroke-width="5.0" stroke-linecap="round" stroke-linejoin="round" />
<path d="M 142.0 130.0 L 142.0 130.0 L 142.0 130.0 L 142.0 130.0 L 142.0 133.0 L 143.0 141.0 L 145.0 151.0 L 146.0 156.0 " stroke="black" fill="none" stroke-width="5.0" stroke-linecap="round" stroke-linejoin="round" />
<path d="M 132.0 154.0 L 132.0 154.0 L 132.0 154.0 L 132.0 153.0 L 133.0 153.0 L 133.0 153.0 L 133.0 153.0 L 133.0 157.0 L 131.0 165.0 L 128.0 175.0 L 125.0 183.0 L 124.0 187.0 L 125.0 187.0 L 129.0 187.0 L 135.0 186.0 L 142.0 184.0 L 143.0 183.0 " stroke="black" fill="none" stroke-width="5.0" stroke-linecap="round" stroke-linejoin="round" />
<path d="M 144.0 174.0 L 143.0 174.0 L 143.0 174.0 L 142.0 175.0 L 142.0 177.0 L 143.0 182.0 L 145.0 189.0 L 146.0 193.0 " stroke="black" fill="none" stroke-width="5.0" stroke-linecap="round" stroke-linejoin="round" />
<path d="M 112.0 175.0 L 112.0 175.0 L 112.0 176.0 L 111.0 180.0 L 110.0 188.0 L 109.0 199.0 L 108.0 207.0 L 108.0 208.0 " stroke="black" fill="none" stroke-width="5.0" stroke-linecap="round" stroke-linejoin="round" />
<path d="M 113.0 170.0 L 114.0 170.0 L 115.0 169.0 L 117.0 168.0 L 123.0 166.0 L 131.0 165.0 L 138.0 164.0 L 144.0 164.0 L 148.0 164.0 L 151.0 165.0 L 153.0 169.0 L 156.0 175.0 L 158.0 184.0 L 160.0 194.0 L 161.0 202.0 L 161.0 207.0 L 160.0 209.0 L 155.0 209.0 L 153.0 208.0 " stroke="black" fill="none" stroke-width="5.0" stroke-linecap="round" stroke-linejoin="round" />
<path d="M 165.0 112.0 L 165.0 112.0 L 165.0 112.0 L 165.0 112.0 L 165.0 112.0 L 165.0 114.0 L 164.0 121.0 L 159.0 134.0 L 152.0 147.0 L 150.0 150.0 " stroke="black" fill="none" stroke-width="5.0" stroke-linecap="round" stroke-linejoin="round" />
<path d="M 162.0 136.0 L 162.0 136.0 L 162.0 136.0 L 162.0 136.0 L 162.0 136.0 L 163.0 139.0 L 166.0 151.0 L 169.0 171.0 L 172.0 189.0 L 173.0 195.0 " stroke="black" fill="none" stroke-width="5.0" stroke-linecap="round" stroke-linejoin="round" />
<path d="M 180.0 121.0 L 180.0 121.0 L 180.0 121.0 L 180.0 121.0 L 182.0 123.0 L 185.0 128.0 L 186.0 129.0 " stroke="black" fill="none" stroke-width="5.0" stroke-linecap="round" stroke-linejoin="round" />
<path d="M 172.0 141.0 L 173.0 141.0 L 174.0 141.0 L 177.0 140.0 L 181.0 139.0 L 188.0 138.0 L 195.0 138.0 L 198.0 138.0 " stroke="black" fill="none" stroke-width="5.0" stroke-linecap="round" stroke-linejoin="round" />
<path d="M 180.0 154.0 L 181.0 154.0 L 184.0 154.0 L 187.0 154.0 L 191.0 153.0 L 194.0 153.0 L 195.0 153.0 " stroke="black" fill="none" stroke-width="5.0" stroke-linecap="round" stroke-linejoin="round" />
<path d="M 180.0 166.0 L 183.0 167.0 L 186.0 167.0 L 191.0 167.0 L 196.0 167.0 L 197.0 167.0 " stroke="black" fill="none" stroke-width="5.0" stroke-linecap="round" stroke-linejoin="round" />
<path d="M 177.0 197.0 L 180.0 197.0 L 186.0 197.0 L 194.0 197.0 L 201.0 197.0 L 205.0 197.0 " stroke="black" fill="none" stroke-width="5.0" stroke-linecap="round" stroke-linejoin="round" />
<path d="M 184.0 139.0 L 184.0 139.0 L 184.0 139.0 L 184.0 140.0 L 184.0 143.0 L 187.0 156.0 L 189.0 177.0 L 189.0 190.0 L 189.0 192.0 " stroke="black" fill="none" stroke-width="5.0" stroke-linecap="round" stroke-linejoin="round" />
</svg>