<svg xmlns="http://www.w3.org/2000/svg" width="300" height="300" viewBox="0 0 300 300">
<path d="M 127.0 107.0 L 128.0 107.0 L 129.0 107.0 L 130.0 107.0 L 131.0 107.0 L 133.0 107.0 L 139.0 107.0 L 147.0 106.0 L 156.0 106.0 L 163.0 106.0 L 164.0 106.0 " stroke="black" fill="none" stroke-width="5.0" stroke-linecap="round" stroke-linejoin="round" />
<path d="M 114.0 121.0 L 114.0 122.0 L 115.0 123.0 L 115.0 125.0 L 115.0 129.0 L 115.0 133.0 L 115.0 136.0 " stroke="black" fill="none" stroke-width="5.0" stroke-linecap="round" stroke-linejoin="round" />
<path d="M 115.0 120.0 L 117.0 120.0 L 118.0 121.0 L 119.0 121.0 L 121.0 121.0 L 127.0 121.0 L 136.0 121.0 L 147.0 121.0 L 157.0 121.0 L 165.0 121.0 L 172.0 121.0 L 176.0 121.0 L 179.0 121.0 L 180.0 122.0 L 180.0 124.0 L 180.0 130.0 L 180.0 137.0 L 179.0 141.0 " stroke="black" fill="none" stroke-width="5.0" stroke-linecap="round" stroke-linejoin="round" />
<path d="M 146.0 110.0 L 146.0 110.0 L 146.0 110.0 L 146.0 110.0 L 146.0 110.0 L 146.0 114.0 L 146.0 122.0 L 147.0 132.0 L 148.0 139.0 L 148.0 141.0 " stroke="black" fill="none" stroke-width="5.0" stroke-linecap="round" stroke-linejoin="round" />
<path d="M 129.0 131.0 L 129.0 132.0 L 130.0 133.0 L 131.0 134.0 L 134.0 134.0 L 138.0 134.0 " stroke="black" fill="none" stroke-width="5.0" stroke-linecap="round" stroke-linejoin="round" />
<path d="M 126.0 141.0 L 126.0 141.0 L 127.0 141.0 L 129.0 141.0 L 132.0 140.0 L 134.0 140.0 " stroke="black" fill="none" stroke-width="5.0" stroke-linecap="round" stroke-linejoin="round" />
<path d="M 155.0 133.0 L 155.0 133.0 L 155.0 133.0 L 156.0 133.0 L 158.0 133.0 L 161.0 132.0 L 164.0 132.0 L 165.0 132.0 " stroke="black" fill="none" stroke-width="5.0" stroke-linecap="round" stroke-linejoin="round" />
<path d="M 158.0 138.0 L 158.0 138.0 L 159.0 138.0 L 160.0 138.0 L 163.0 140.0 L 166.0 141.0 " stroke="black" fill="none" stroke-width="5.0" stroke-linecap="round" stroke-linejoin="round" />
<path d="M 128.0 158.0 L 128.0 158.0 L 128.0 158.0 L 128.0 159.0 L 130.0 159.0 L 137.0 159.0 L 147.0 159.0 L 157.0 157.0 L 164.0 157.0 L 167.0 157.0 L 168.0 157.0 L 169.0 160.0 L 171.0 167.0 L 172.0 176.0 L 174.0 183.0 L 175.0 187.0 L 175.0 188.0 " stroke="black" fill="none" stroke-width="5.0" stroke-linecap="round" stroke-linejoin="round" />
<path d="M 108.0 169.0 L 108.0 169.0 L 109.0 169.0 L 109.0 169.0 L 112.0 169.0 L 122.0 170.0 L 141.0 170.0 L 160.0 169.0 L 176.0 167.0 L 186.0 166.0 L 188.0 166.0 " stroke="black" fill="none" stroke-width="5.0" stroke-linecap="round" stroke-linejoin="round" />
<path d="M 124.0 190.0 L 126.0 190.0 L 128.0 190.0 L 135.0 190.0 L 148.0 189.0 L 163.0 187.0 L 177.0 185.0 L 179.0 185.0 " stroke="black" fill="none" stroke-width="5.0" stroke-linecap="round" stroke-linejoin="round" />
</svg>