<svg xmlns="http://www.w3.org/2000/svg" width="300" height="300" viewBox="0 0 300 300">
<path d="M 115.0 112.0 L 115.0 112.0 L 115.0 112.0 L 116.0 112.0 L 121.0 112.0 L 128.0 112.0 L 133.0 113.0 L 136.0 115.0 L 137.0 116.0 L 137.0 119.0 L 134.0 122.0 L 131.0 127.0 L 129.0 133.0 L 129.0 139.0 L 131.0 144.0 L 135.0 149.0 L 140.0 153.0 L 143.0 156.0 L 144.0 158.0 L 144.0 159.0 L 142.0 160.0 L 137.0 160.0 L 131.0 160.0 L 129.0 160.0 " stroke="black" fill="none" stroke-width="5.0" stroke-linecap="round" stroke-linejoin="round" />
<path d="M 115.0 119.0 L 115.0 119.0 L 114.0 120.0 L 114.0 123.0 L 114.0 133.0 L 115.0 152.0 L 117.0 175.0 L 118.0 194.0 L 118.0 204.0 L 119.0 208.0 L 119.0 209.0 " stroke="black" fill="none" stroke-width="5.0" stroke-linecap="round" stroke-linejoin="round" />
<path d="M 153.0 123.0 L 153.0 123.0 L 153.0 123.0 L 153.0 124.0 L 153.0 124.0 L 155.0 124.0 L 161.0 124.0 L 168.0 124.0 L 174.0 124.0 L 177.0 124.0 " stroke="black" fill="none" stroke-width="5.0" stroke-linecap="round" stroke-linejoin="round" />
<path d="M 144.0 141.0 L 144.0 141.0 L 146.0 141.0 L 153.0 141.0 L 166.0 140.0 L 179.0 140.0 L 188.0 141.0 L 191.0 142.0 L 191.0 143.0 " stroke="black" fill="none" stroke-width="5.0" stroke-linecap="round" stroke-linejoin="round" />
<path d="M 163.0 111.0 L 163.0 113.0 L 163.0 118.0 L 165.0 127.0 L 167.0 137.0 L 168.0 141.0 " stroke="black" fill="none" stroke-width="5.0" stroke-linecap="round" stroke-linejoin="round" />
<path d="M 160.0 146.0 L 160.0 146.0 L 160.0 146.0 L 160.0 146.0 L 160.0 147.0 L 159.0 151.0 L 157.0 158.0 L 154.0 165.0 L 154.0 168.0 " stroke="black" fill="none" stroke-width="5.0" stroke-linecap="round" stroke-linejoin="round" />
<path d="M 178.0 142.0 L 178.0 142.0 L 178.0 141.0 L 178.0 141.0 L 178.0 143.0 L 178.0 149.0 L 180.0 156.0 L 183.0 163.0 L 188.0 167.0 L 193.0 167.0 L 195.0 167.0 " stroke="black" fill="none" stroke-width="5.0" stroke-linecap="round" stroke-linejoin="round" />
<path d="M 159.0 179.0 L 159.0 179.0 L 159.0 179.0 L 163.0 179.0 L 170.0 179.0 L 179.0 179.0 L 185.0 180.0 L 186.0 182.0 " stroke="black" fill="none" stroke-width="5.0" stroke-linecap="round" stroke-linejoin="round" />
<path d="M 146.0 200.0 L 146.0 200.0 L 147.0 200.0 L 148.0 201.0 L 151.0 201.0 L 159.0 201.0 L 172.0 201.0 L 186.0 202.0 L 197.0 202.0 L 201.0 203.0 L 201.0 203.0 L 200.0 203.0 " stroke="black" fill="none" stroke-width="5.0" stroke-linecap="round" stroke-linejoin="round" />
<path d="M 169.0 163.0 L 169.0 163.0 L 169.0 163.0 L 169.0 163.0 L 169.0 167.0 L 171.0 178.0 L 174.0 191.0 L 174.0 197.0 " stroke="black" fill="none" stroke-width="5.0" stroke-linecap="round" stroke-linejoin="round" />
</svg>