<svg xmlns="http://www.w3.org/2000/svg" width="300" height="300" viewBox="0 0 300 300">
<path d="M 118.0 114.0 L 117.0 114.0 L 116.0 114.0 L 115.0 114.0 L 116.0 115.0 L 119.0 115.0 L 126.0 115.0 L 132.0 114.0 L 137.0 114.0 L 139.0 114.0 L 139.0 116.0 L 135.0 119.0 L 132.0 123.0 L 130.0 127.0 L 129.0 130.0 L 130.0 134.0 L 133.0 138.0 L 135.0 141.0 L 137.0 144.0 L 137.0 145.0 L 135.0 146.0 L 130.0 147.0 L 128.0 147.0 " stroke="black" fill="none" stroke-width="5.0" stroke-linecap="round" stroke-linejoin="round" />
<path d="M 116.0 120.0 L 116.0 120.0 L 116.0 121.0 L 116.0 122.0 L 116.0 123.0 L 116.0 129.0 L 117.0 145.0 L 119.0 172.0 L 119.0 192.0 L 119.0 199.0 " stroke="black" fill="none" stroke-width="5.0" stroke-linecap="round" stroke-linejoin="round" />
<path d="M 150.0 113.0 L 150.0 113.0 L 149.0 114.0 L 149.0 115.0 L 148.0 117.0 L 148.0 122.0 L 148.0 130.0 L 148.0 139.0 L 149.0 144.0 L 152.0 145.0 L 156.0 143.0 " stroke="black" fill="none" stroke-width="5.0" stroke-linecap="round" stroke-linejoin="round" />
<path d="M 148.0 130.0 L 148.0 130.0 L 148.0 130.0 L 148.0 130.0 L 153.0 129.0 L 159.0 128.0 L 161.0 127.0 " stroke="black" fill="none" stroke-width="5.0" stroke-linecap="round" stroke-linejoin="round" />
<path d="M 169.0 114.0 L 169.0 114.0 L 169.0 114.0 L 168.0 114.0 L 168.0 115.0 L 168.0 120.0 L 168.0 130.0 L 170.0 142.0 L 174.0 150.0 L 179.0 152.0 L 183.0 149.0 " stroke="black" fill="none" stroke-width="5.0" stroke-linecap="round" stroke-linejoin="round" />
<path d="M 169.0 133.0 L 169.0 133.0 L 170.0 133.0 L 171.0 133.0 L 175.0 132.0 L 180.0 131.0 L 185.0 131.0 " stroke="black" fill="none" stroke-width="5.0" stroke-linecap="round" stroke-linejoin="round" />
<path d="M 154.0 159.0 L 154.0 159.0 L 154.0 159.0 L 154.0 159.0 L 153.0 161.0 L 151.0 163.0 L 149.0 165.0 L 147.0 166.0 L 145.0 167.0 L 145.0 168.0 L 144.0 169.0 L 144.0 174.0 L 144.0 181.0 L 145.0 188.0 L 146.0 193.0 L 147.0 193.0 " stroke="black" fill="none" stroke-width="5.0" stroke-linecap="round" stroke-linejoin="round" />
<path d="M 146.0 171.0 L 146.0 171.0 L 146.0 171.0 L 147.0 171.0 L 150.0 171.0 L 155.0 170.0 L 162.0 169.0 L 169.0 168.0 L 173.0 168.0 L 175.0 169.0 L 176.0 172.0 L 177.0 177.0 L 178.0 184.0 L 179.0 192.0 L 179.0 196.0 L 179.0 198.0 " stroke="black" fill="none" stroke-width="5.0" stroke-linecap="round" stroke-linejoin="round" />
<path d="M 151.0 186.0 L 151.0 185.0 L 151.0 185.0 L 151.0 185.0 L 156.0 184.0 L 164.0 184.0 L 171.0 184.0 L 175.0 185.0 L 176.0 186.0 " stroke="black" fill="none" stroke-width="5.0" stroke-linecap="round" stroke-linejoin="round" />
<path d="M 148.0 201.0 L 149.0 202.0 L 152.0 203.0 L 159.0 203.0 L 169.0 202.0 L 178.0 200.0 " stroke="black" fill="none" stroke-width="5.0" stroke-linecap="round" stroke-linejoin="round" />
</svg>