<svg xmlns="http://www.w3.org/2000/svg" width="300" height="300" viewBox="0 0 300 300">
<path d="M 119.0 101.0 L 119.0 101.0 L 119.0 101.0 L 119.0 101.0 L 119.0 101.0 L 119.0 101.0 L 119.0 102.0 L 119.0 106.0 L 115.0 111.0 L 111.0 118.0 L 109.0 121.0 " stroke="black" fill="none" stroke-width="5.0" stroke-linecap="round" stroke-linejoin="round" />
<path d="M 116.0 108.0 L 116.0 108.0 L 116.0 108.0 L 116.0 108.0 L 117.0 108.0 L 121.0 108.0 L 127.0 108.0 L 133.0 107.0 L 137.0 107.0 L 139.0 107.0 L 140.0 108.0 L 141.0 111.0 L 142.0 117.0 L 144.0 125.0 L 145.0 134.0 L 146.0 141.0 L 146.0 146.0 L 146.0 148.0 L 143.0 148.0 L 139.0 148.0 L 133.0 146.0 L 129.0 145.0 " stroke="black" fill="none" stroke-width="5.0" stroke-linecap="round" stroke-linejoin="round" />
<path d="M 113.0 119.0 L 114.0 119.0 L 115.0 119.0 L 115.0 120.0 L 115.0 122.0 L 115.0 124.0 L 115.0 126.0 L 115.0 127.0 L 116.0 129.0 L 119.0 130.0 L 125.0 131.0 L 130.0 131.0 L 133.0 131.0 L 135.0 129.0 L 135.0 126.0 L 135.0 124.0 " stroke="black" fill="none" stroke-width="5.0" stroke-linecap="round" stroke-linejoin="round" />
<path d="M 125.0 116.0 L 125.0 116.0 L 126.0 116.0 L 126.0 117.0 L 126.0 119.0 L 125.0 124.0 L 121.0 133.0 L 119.0 135.0 " stroke="black" fill="none" stroke-width="5.0" stroke-linecap="round" stroke-linejoin="round" />
<path d="M 116.0 150.0 L 116.0 150.0 L 116.0 150.0 L 116.0 151.0 L 116.0 151.0 L 115.0 155.0 L 112.0 161.0 L 108.0 167.0 L 107.0 169.0 " stroke="black" fill="none" stroke-width="5.0" stroke-linecap="round" stroke-linejoin="round" />
<path d="M 113.0 159.0 L 113.0 159.0 L 113.0 159.0 L 114.0 159.0 L 117.0 159.0 L 124.0 158.0 L 131.0 157.0 L 137.0 157.0 L 139.0 157.0 L 141.0 159.0 L 143.0 166.0 L 146.0 177.0 L 148.0 186.0 L 149.0 193.0 L 150.0 197.0 L 150.0 198.0 L 147.0 199.0 L 141.0 199.0 L 133.0 197.0 L 128.0 196.0 " stroke="black" fill="none" stroke-width="5.0" stroke-linecap="round" stroke-linejoin="round" />
<path d="M 112.0 170.0 L 113.0 170.0 L 113.0 170.0 L 114.0 171.0 L 114.0 172.0 L 114.0 174.0 L 114.0 178.0 L 114.0 180.0 L 114.0 183.0 L 118.0 183.0 L 122.0 183.0 L 128.0 182.0 L 132.0 181.0 L 134.0 180.0 L 135.0 177.0 L 135.0 176.0 " stroke="black" fill="none" stroke-width="5.0" stroke-linecap="round" stroke-linejoin="round" />
<path d="M 124.0 166.0 L 124.0 167.0 L 125.0 169.0 L 125.0 173.0 L 125.0 177.0 L 123.0 183.0 L 120.0 190.0 " stroke="black" fill="none" stroke-width="5.0" stroke-linecap="round" stroke-linejoin="round" />
<path d="M 161.0 108.0 L 161.0 109.0 L 161.0 111.0 L 161.0 113.0 L 160.0 117.0 L 159.0 123.0 L 156.0 133.0 L 151.0 145.0 L 147.0 153.0 L 145.0 154.0 " stroke="black" fill="none" stroke-width="5.0" stroke-linecap="round" stroke-linejoin="round" />
<path d="M 155.0 132.0 L 155.0 133.0 L 155.0 134.0 L 155.0 137.0 L 155.0 144.0 L 156.0 155.0 L 157.0 170.0 L 157.0 183.0 L 157.0 190.0 L 157.0 191.0 " stroke="black" fill="none" stroke-width="5.0" stroke-linecap="round" stroke-linejoin="round" />
<path d="M 173.0 112.0 L 173.0 112.0 L 174.0 113.0 L 174.0 115.0 L 176.0 120.0 L 179.0 125.0 L 180.0 129.0 L 180.0 130.0 " stroke="black" fill="none" stroke-width="5.0" stroke-linecap="round" stroke-linejoin="round" />
<path d="M 164.0 131.0 L 165.0 131.0 L 166.0 131.0 L 169.0 132.0 L 175.0 132.0 L 184.0 132.0 L 190.0 132.0 L 192.0 132.0 L 192.0 132.0 L 192.0 133.0 " stroke="black" fill="none" stroke-width="5.0" stroke-linecap="round" stroke-linejoin="round" />
<path d="M 168.0 147.0 L 169.0 148.0 L 170.0 148.0 L 173.0 149.0 L 179.0 149.0 L 186.0 149.0 L 190.0 148.0 L 191.0 148.0 " stroke="black" fill="none" stroke-width="5.0" stroke-linecap="round" stroke-linejoin="round" />
<path d="M 167.0 162.0 L 169.0 163.0 L 171.0 164.0 L 175.0 165.0 L 180.0 165.0 L 185.0 165.0 L 189.0 165.0 L 190.0 165.0 " stroke="black" fill="none" stroke-width="5.0" stroke-linecap="round" stroke-linejoin="round" />
<path d="M 162.0 193.0 L 163.0 193.0 L 166.0 193.0 L 172.0 194.0 L 182.0 194.0 L 191.0 194.0 L 196.0 194.0 " stroke="black" fill="none" stroke-width="5.0" stroke-linecap="round" stroke-linejoin="round" />
<path d="M 175.0 135.0 L 175.0 135.0 L 176.0 135.0 L 176.0 137.0 L 177.0 144.0 L 179.0 159.0 L 180.0 174.0 L 180.0 185.0 L 179.0 187.0 " stroke="black" fill="none" stroke-width="5.0" stroke-linecap="round" stroke-linejoin="round" />
</svg>