<svg xmlns="http://www.w3.org/2000/svg" width="300" height="300" viewBox="0 0 300 300">
<path d="M 116.0 116.0 L 116.0 116.0 L 117.0 116.0 L 117.0 116.0 L 117.0 117.0 L 118.0 117.0 L 120.0 117.0 L 125.0 117.0 L 130.0 117.0 L 133.0 118.0 L 135.0 118.0 L 136.0 119.0 L 135.0 120.0 L 134.0 121.0 L 131.0 124.0 L 130.0 127.0 L 128.0 130.0 L 128.0 133.0 L 130.0 137.0 L 132.0 141.0 L 135.0 145.0 L 136.0 148.0 L 137.0 150.0 L 135.0 151.0 L 132.0 151.0 L 128.0 151.0 " stroke="black" fill="none" stroke-width="5.0" stroke-linecap="round" stroke-linejoin="round" />
<path d="M 117.0 123.0 L 117.0 123.0 L 117.0 123.0 L 117.0 123.0 L 117.0 123.0 L 117.0 131.0 L 120.0 150.0 L 123.0 173.0 L 125.0 190.0 L 126.0 198.0 L 126.0 200.0 L 126.0 200.0 " stroke="black" fill="none" stroke-width="5.0" stroke-linecap="round" stroke-linejoin="round" />
<path d="M 152.0 115.0 L 152.0 115.0 L 152.0 115.0 L 152.0 115.0 L 152.0 118.0 L 152.0 126.0 L 152.0 138.0 L 153.0 146.0 L 156.0 149.0 L 160.0 148.0 L 162.0 146.0 " stroke="black" fill="none" stroke-width="5.0" stroke-linecap="round" stroke-linejoin="round" />
<path d="M 152.0 135.0 L 152.0 135.0 L 152.0 135.0 L 152.0 135.0 L 153.0 135.0 L 159.0 133.0 L 164.0 132.0 " stroke="black" fill="none" stroke-width="5.0" stroke-linecap="round" stroke-linejoin="round" />
<path d="M 173.0 115.0 L 173.0 115.0 L 173.0 115.0 L 172.0 115.0 L 172.0 116.0 L 172.0 120.0 L 172.0 128.0 L 173.0 141.0 L 176.0 150.0 L 181.0 153.0 L 187.0 153.0 L 188.0 153.0 " stroke="black" fill="none" stroke-width="5.0" stroke-linecap="round" stroke-linejoin="round" />
<path d="M 175.0 130.0 L 175.0 130.0 L 175.0 130.0 L 175.0 130.0 L 178.0 130.0 L 183.0 130.0 " stroke="black" fill="none" stroke-width="5.0" stroke-linecap="round" stroke-linejoin="round" />
<path d="M 156.0 167.0 L 156.0 167.0 L 157.0 168.0 L 158.0 168.0 L 160.0 168.0 L 164.0 168.0 L 169.0 168.0 L 174.0 168.0 " stroke="black" fill="none" stroke-width="5.0" stroke-linecap="round" stroke-linejoin="round" />
<path d="M 141.0 195.0 L 142.0 195.0 L 142.0 195.0 L 142.0 194.0 L 143.0 194.0 L 147.0 194.0 L 156.0 193.0 L 171.0 193.0 L 186.0 192.0 L 189.0 192.0 " stroke="black" fill="none" stroke-width="5.0" stroke-linecap="round" stroke-linejoin="round" />
<path d="M 164.0 155.0 L 164.0 155.0 L 164.0 155.0 L 164.0 156.0 L 165.0 164.0 L 167.0 181.0 L 168.0 194.0 " stroke="black" fill="none" stroke-width="5.0" stroke-linecap="round" stroke-linejoin="round" />
</svg>