<svg xmlns="http://www.w3.org/2000/svg" width="300" height="300" viewBox="0 0 300 300">
<path d="M 138.5714285714286 105.00000000000001 L 138.5714285714286 105.00000000000001 L 138.5714285714286 105.00000000000001 L 138.5714285714286 105.00000000000001 L 142.14285714285717 105.00000000000001 L 150.00000000000006 102.85714285714288 L 160.00000000000006 100.71428571428574 L 166.42857142857144 100.00000000000001 " stroke="black" fill="none" stroke-width="5.0" stroke-linecap="round" stroke-linejoin="round" />
<path d="M 125.00000000000001 123.5714285714286 L 125.00000000000001 123.5714285714286 L 125.00000000000001 123.5714285714286 L 125.00000000000001 124.28571428571432 L 125.00000000000001 127.14285714285718 L 125.00000000000001 131.42857142857144 L 125.71428571428574 134.28571428571433 " stroke="black" fill="none" stroke-width="5.0" stroke-linecap="round" stroke-linejoin="round" />
<path d="M 125.00000000000001 122.85714285714288 L 125.71428571428574 122.85714285714288 L 125.71428571428574 122.85714285714288 L 127.14285714285718 122.85714285714288 L 130.00000000000006 122.14285714285718 L 137.14285714285717 120.00000000000001 L 146.42857142857144 118.5714285714286 L 155.71428571428572 117.85714285714288 L 165.00000000000006 116.42857142857146 L 172.8571428571429 115.00000000000001 L 178.5714285714286 115.00000000000001 L 180.71428571428578 115.71428571428574 L 181.42857142857144 117.85714285714288 L 182.14285714285717 121.42857142857146 L 182.14285714285717 125.71428571428574 L 182.14285714285717 130.71428571428572 L 180.71428571428578 135.00000000000006 L 180.71428571428578 136.42857142857144 " stroke="black" fill="none" stroke-width="5.0" stroke-linecap="round" stroke-linejoin="round" />
<path d="M 150.71428571428572 103.5714285714286 L 150.71428571428572 104.28571428571432 L 150.71428571428572 106.42857142857146 L 151.42857142857144 115.00000000000001 L 152.14285714285717 125.71428571428574 L 152.8571428571429 132.8571428571429 L 152.8571428571429 135.71428571428572 " stroke="black" fill="none" stroke-width="5.0" stroke-linecap="round" stroke-linejoin="round" />
<path d="M 141.42857142857144 127.14285714285718 L 141.42857142857144 127.14285714285718 L 141.42857142857144 127.14285714285718 L 142.14285714285717 127.14285714285718 L 142.8571428571429 127.14285714285718 " stroke="black" fill="none" stroke-width="5.0" stroke-linecap="round" stroke-linejoin="round" />
<path d="M 136.42857142857144 136.42857142857144 L 136.42857142857144 136.42857142857144 L 136.42857142857144 136.42857142857144 L 136.42857142857144 136.42857142857144 L 137.14285714285717 136.42857142857144 L 141.42857142857144 134.28571428571433 L 142.14285714285717 133.5714285714286 " stroke="black" fill="none" stroke-width="5.0" stroke-linecap="round" stroke-linejoin="round" />
<path d="M 157.14285714285717 128.5714285714286 L 160.00000000000006 127.85714285714288 L 162.14285714285717 126.42857142857146 L 165.00000000000006 125.71428571428574 L 166.42857142857144 125.00000000000001 " stroke="black" fill="none" stroke-width="5.0" stroke-linecap="round" stroke-linejoin="round" />
<path d="M 162.14285714285717 130.71428571428572 L 164.28571428571433 132.14285714285717 L 165.71428571428572 132.8571428571429 L 167.8571428571429 134.28571428571433 L 170.71428571428572 135.00000000000006 " stroke="black" fill="none" stroke-width="5.0" stroke-linecap="round" stroke-linejoin="round" />
<path d="M 142.14285714285717 152.14285714285717 L 142.14285714285717 152.14285714285717 L 141.42857142857144 152.14285714285717 L 141.42857142857144 152.14285714285717 L 144.28571428571433 151.42857142857144 L 150.00000000000006 150.00000000000006 L 156.42857142857144 148.5714285714286 L 161.42857142857144 147.8571428571429 L 162.14285714285717 147.8571428571429 " stroke="black" fill="none" stroke-width="5.0" stroke-linecap="round" stroke-linejoin="round" />
<path d="M 132.8571428571429 165.71428571428572 L 132.8571428571429 166.42857142857144 L 133.5714285714286 167.14285714285717 L 135.71428571428572 167.14285714285717 L 142.14285714285717 166.42857142857144 L 151.42857142857144 163.5714285714286 L 161.42857142857144 160.71428571428572 L 169.28571428571433 159.28571428571433 L 173.5714285714286 159.28571428571433 L 174.28571428571433 159.28571428571433 " stroke="black" fill="none" stroke-width="5.0" stroke-linecap="round" stroke-linejoin="round" />
<path d="M 152.8571428571429 166.42857142857144 L 152.8571428571429 166.42857142857144 L 152.8571428571429 166.42857142857144 L 152.14285714285717 167.14285714285717 L 150.71428571428572 169.28571428571433 L 147.8571428571429 173.5714285714286 L 144.28571428571433 179.28571428571433 L 141.42857142857144 185.00000000000006 L 140.71428571428572 187.14285714285717 L 142.8571428571429 187.8571428571429 L 147.8571428571429 187.14285714285717 L 153.5714285714286 185.00000000000006 L 162.14285714285717 182.8571428571429 L 170.00000000000006 180.71428571428578 L 177.14285714285717 179.28571428571433 " stroke="black" fill="none" stroke-width="5.0" stroke-linecap="round" stroke-linejoin="round" />
<path d="M 174.28571428571433 171.42857142857144 L 174.28571428571433 171.42857142857144 L 175.71428571428578 171.42857142857144 L 177.14285714285717 174.28571428571433 L 180.71428571428578 180.71428571428578 L 183.5714285714286 187.14285714285717 L 185.00000000000006 190.71428571428578 " stroke="black" fill="none" stroke-width="5.0" stroke-linecap="round" stroke-linejoin="round" />
</svg>