<svg xmlns="http://www.w3.org/2000/svg" width="300" height="300" viewBox="0 0 300 300">
<path d="M 124.0 121.0 L 124.0 121.0 L 125.0 122.0 L 125.0 122.0 L 126.0 123.0 L 126.0 124.0 L 126.0 127.0 L 126.0 132.0 L 126.0 139.0 L 126.0 143.0 L 127.0 145.0 L 131.0 146.0 L 135.0 146.0 L 138.0 144.0 L 140.0 143.0 L 140.0 143.0 L 140.0 142.0 L 140.0 141.0 L 140.0 138.0 L 140.0 133.0 L 140.0 127.0 " stroke="black" fill="none" stroke-width="5.0" stroke-linecap="round" stroke-linejoin="round" />
<path d="M 116.0 136.0 L 117.0 136.0 L 117.0 136.0 L 120.0 136.0 L 128.0 134.0 L 139.0 132.0 L 148.0 131.0 L 150.0 131.0 " stroke="black" fill="none" stroke-width="5.0" stroke-linecap="round" stroke-linejoin="round" />
<path d="M 120.0 155.0 L 121.0 155.0 L 122.0 155.0 L 122.0 155.0 L 122.0 156.0 L 123.0 159.0 L 124.0 162.0 L 124.0 163.0 " stroke="black" fill="none" stroke-width="5.0" stroke-linecap="round" stroke-linejoin="round" />
<path d="M 119.0 154.0 L 119.0 154.0 L 120.0 154.0 L 120.0 154.0 L 121.0 154.0 L 122.0 155.0 L 122.0 155.0 L 123.0 155.0 L 126.0 155.0 L 131.0 155.0 L 139.0 154.0 L 144.0 154.0 L 148.0 155.0 L 149.0 158.0 L 149.0 163.0 L 149.0 166.0 " stroke="black" fill="none" stroke-width="5.0" stroke-linecap="round" stroke-linejoin="round" />
<path d="M 121.0 167.0 L 122.0 167.0 L 123.0 167.0 L 124.0 168.0 L 125.0 168.0 L 129.0 169.0 L 136.0 169.0 L 145.0 168.0 L 149.0 167.0 " stroke="black" fill="none" stroke-width="5.0" stroke-linecap="round" stroke-linejoin="round" />
<path d="M 121.0 179.0 L 122.0 178.0 L 122.0 178.0 L 123.0 178.0 L 126.0 178.0 L 132.0 177.0 L 139.0 176.0 L 144.0 176.0 L 146.0 176.0 L 146.0 176.0 " stroke="black" fill="none" stroke-width="5.0" stroke-linecap="round" stroke-linejoin="round" />
<path d="M 121.0 187.0 L 124.0 186.0 L 128.0 186.0 L 133.0 185.0 L 140.0 185.0 L 146.0 185.0 L 148.0 185.0 " stroke="black" fill="none" stroke-width="5.0" stroke-linecap="round" stroke-linejoin="round" />
<path d="M 112.0 197.0 L 113.0 198.0 L 115.0 198.0 L 123.0 199.0 L 137.0 198.0 L 149.0 196.0 L 154.0 195.0 " stroke="black" fill="none" stroke-width="5.0" stroke-linecap="round" stroke-linejoin="round" />
<path d="M 135.0 149.0 L 135.0 149.0 L 135.0 149.0 L 135.0 150.0 L 134.0 158.0 L 134.0 178.0 L 131.0 200.0 L 129.0 213.0 L 128.0 215.0 " stroke="black" fill="none" stroke-width="5.0" stroke-linecap="round" stroke-linejoin="round" />
<path d="M 139.0 201.0 L 140.0 201.0 L 143.0 202.0 L 148.0 204.0 L 152.0 207.0 " stroke="black" fill="none" stroke-width="5.0" stroke-linecap="round" stroke-linejoin="round" />
<path d="M 164.0 129.0 L 165.0 128.0 L 165.0 128.0 L 165.0 128.0 L 165.0 130.0 L 163.0 139.0 L 157.0 154.0 L 148.0 172.0 L 146.0 176.0 " stroke="black" fill="none" stroke-width="5.0" stroke-linecap="round" stroke-linejoin="round" />
<path d="M 156.0 157.0 L 156.0 156.0 L 157.0 156.0 L 157.0 156.0 L 158.0 161.0 L 160.0 174.0 L 162.0 191.0 L 163.0 201.0 " stroke="black" fill="none" stroke-width="5.0" stroke-linecap="round" stroke-linejoin="round" />
<path d="M 177.0 121.0 L 177.0 121.0 L 177.0 122.0 L 177.0 122.0 L 179.0 125.0 L 182.0 128.0 " stroke="black" fill="none" stroke-width="5.0" stroke-linecap="round" stroke-linejoin="round" />
<path d="M 167.0 145.0 L 168.0 145.0 L 169.0 146.0 L 176.0 146.0 L 187.0 145.0 L 193.0 145.0 " stroke="black" fill="none" stroke-width="5.0" stroke-linecap="round" stroke-linejoin="round" />
<path d="M 169.0 162.0 L 171.0 162.0 L 174.0 162.0 L 179.0 162.0 L 186.0 160.0 L 191.0 160.0 L 192.0 160.0 " stroke="black" fill="none" stroke-width="5.0" stroke-linecap="round" stroke-linejoin="round" />
<path d="M 168.0 174.0 L 168.0 174.0 L 170.0 176.0 L 173.0 176.0 L 180.0 176.0 L 189.0 176.0 L 194.0 176.0 " stroke="black" fill="none" stroke-width="5.0" stroke-linecap="round" stroke-linejoin="round" />
<path d="M 162.0 204.0 L 162.0 204.0 L 162.0 204.0 L 162.0 204.0 L 170.0 204.0 L 186.0 201.0 L 201.0 199.0 L 205.0 198.0 " stroke="black" fill="none" stroke-width="5.0" stroke-linecap="round" stroke-linejoin="round" />
<path d="M 179.0 150.0 L 179.0 149.0 L 178.0 148.0 L 178.0 148.0 L 179.0 155.0 L 182.0 176.0 L 184.0 198.0 " stroke="black" fill="none" stroke-width="5.0" stroke-linecap="round" stroke-linejoin="round" />
</svg>