<svg xmlns="http://www.w3.org/2000/svg" width="300" height="300" viewBox="0 0 300 300">
<path d="M 135.0 104.0 L 135.0 104.0 L 135.0 104.0 L 136.0 104.0 L 142.0 104.0 L 150.0 103.0 L 159.0 101.0 L 160.0 101.0 " stroke="black" fill="none" stroke-width="5.0" stroke-linecap="round" stroke-linejoin="round" />
<path d="M 116.0 124.0 L 116.0 124.0 L 116.0 125.0 L 116.0 126.0 L 117.0 129.0 L 118.0 132.0 " stroke="black" fill="none" stroke-width="5.0" stroke-linecap="round" stroke-linejoin="round" />
<path d="M 119.0 122.0 L 119.0 122.0 L 119.0 122.0 L 121.0 122.0 L 127.0 122.0 L 137.0 120.0 L 149.0 119.0 L 160.0 118.0 L 169.0 117.0 L 176.0 117.0 L 180.0 118.0 L 183.0 119.0 L 184.0 122.0 L 184.0 127.0 L 183.0 133.0 L 183.0 138.0 L 182.0 140.0 " stroke="black" fill="none" stroke-width="5.0" stroke-linecap="round" stroke-linejoin="round" />
<path d="M 147.0 106.0 L 147.0 106.0 L 147.0 106.0 L 147.0 106.0 L 147.0 106.0 L 148.0 110.0 L 149.0 119.0 L 150.0 130.0 L 151.0 137.0 " stroke="black" fill="none" stroke-width="5.0" stroke-linecap="round" stroke-linejoin="round" />
<path d="M 130.0 127.0 L 130.0 127.0 L 130.0 128.0 L 130.0 129.0 L 132.0 129.0 L 136.0 130.0 L 137.0 130.0 " stroke="black" fill="none" stroke-width="5.0" stroke-linecap="round" stroke-linejoin="round" />
<path d="M 127.0 139.0 L 127.0 139.0 L 128.0 139.0 L 130.0 139.0 L 132.0 139.0 L 135.0 138.0 L 136.0 138.0 " stroke="black" fill="none" stroke-width="5.0" stroke-linecap="round" stroke-linejoin="round" />
<path d="M 158.0 131.0 L 158.0 131.0 L 158.0 131.0 L 158.0 131.0 L 159.0 131.0 L 163.0 129.0 L 167.0 127.0 L 168.0 126.0 " stroke="black" fill="none" stroke-width="5.0" stroke-linecap="round" stroke-linejoin="round" />
<path d="M 159.0 138.0 L 159.0 138.0 L 160.0 138.0 L 162.0 139.0 L 165.0 139.0 L 167.0 140.0 " stroke="black" fill="none" stroke-width="5.0" stroke-linecap="round" stroke-linejoin="round" />
<path d="M 133.0 156.0 L 133.0 156.0 L 132.0 157.0 L 132.0 158.0 L 132.0 161.0 L 132.0 167.0 L 132.0 174.0 L 133.0 178.0 L 133.0 178.0 " stroke="black" fill="none" stroke-width="5.0" stroke-linecap="round" stroke-linejoin="round" />
<path d="M 133.0 155.0 L 133.0 155.0 L 133.0 155.0 L 134.0 154.0 L 137.0 154.0 L 143.0 153.0 L 151.0 152.0 L 158.0 152.0 L 163.0 152.0 L 166.0 153.0 L 167.0 158.0 L 168.0 165.0 L 168.0 173.0 L 169.0 177.0 L 169.0 180.0 L 169.0 180.0 " stroke="black" fill="none" stroke-width="5.0" stroke-linecap="round" stroke-linejoin="round" />
<path d="M 137.0 167.0 L 137.0 167.0 L 137.0 168.0 L 139.0 168.0 L 142.0 168.0 L 148.0 168.0 L 156.0 166.0 L 160.0 166.0 " stroke="black" fill="none" stroke-width="5.0" stroke-linecap="round" stroke-linejoin="round" />
<path d="M 137.0 181.0 L 138.0 181.0 L 140.0 182.0 L 145.0 183.0 L 154.0 182.0 L 161.0 181.0 " stroke="black" fill="none" stroke-width="5.0" stroke-linecap="round" stroke-linejoin="round" />
<path d="M 145.0 146.0 L 145.0 146.0 L 145.0 146.0 L 145.0 146.0 L 145.0 148.0 L 145.0 155.0 L 146.0 169.0 L 147.0 187.0 L 148.0 201.0 L 150.0 208.0 L 154.0 212.0 L 161.0 212.0 L 170.0 212.0 L 179.0 212.0 L 186.0 211.0 L 189.0 209.0 L 191.0 207.0 L 191.0 202.0 L 191.0 193.0 " stroke="black" fill="none" stroke-width="5.0" stroke-linecap="round" stroke-linejoin="round" />
</svg>