<svg xmlns="http://www.w3.org/2000/svg" width="300" height="300" viewBox="0 0 300 300">
<path d="M 122.0 101.0 L 122.0 101.0 L 123.0 101.0 L 124.0 101.0 L 124.0 101.0 L 124.0 103.0 L 121.0 109.0 L 116.0 118.0 L 110.0 127.0 L 106.0 132.0 " stroke="black" fill="none" stroke-width="5.0" stroke-linecap="round" stroke-linejoin="round" />
<path d="M 117.0 117.0 L 117.0 117.0 L 117.0 117.0 L 117.0 118.0 L 117.0 119.0 L 117.0 124.0 L 117.0 134.0 L 117.0 144.0 L 117.0 149.0 " stroke="black" fill="none" stroke-width="5.0" stroke-linecap="round" stroke-linejoin="round" />
<path d="M 138.0 105.0 L 138.0 105.0 L 138.0 105.0 L 138.0 105.0 L 138.0 106.0 L 138.0 108.0 L 140.0 110.0 L 140.0 111.0 " stroke="black" fill="none" stroke-width="5.0" stroke-linecap="round" stroke-linejoin="round" />
<path d="M 129.0 116.0 L 129.0 116.0 L 129.0 116.0 L 129.0 116.0 L 131.0 116.0 L 136.0 116.0 L 143.0 116.0 L 148.0 116.0 L 150.0 116.0 " stroke="black" fill="none" stroke-width="5.0" stroke-linecap="round" stroke-linejoin="round" />
<path d="M 131.0 126.0 L 131.0 126.0 L 131.0 126.0 L 131.0 127.0 L 132.0 127.0 L 136.0 127.0 L 141.0 127.0 L 146.0 128.0 L 148.0 128.0 L 148.0 128.0 " stroke="black" fill="none" stroke-width="5.0" stroke-linecap="round" stroke-linejoin="round" />
<path d="M 132.0 138.0 L 132.0 138.0 L 133.0 138.0 L 135.0 137.0 L 139.0 137.0 L 143.0 137.0 L 147.0 137.0 L 148.0 137.0 " stroke="black" fill="none" stroke-width="5.0" stroke-linecap="round" stroke-linejoin="round" />
<path d="M 124.0 149.0 L 124.0 149.0 L 125.0 150.0 L 127.0 150.0 L 134.0 150.0 L 143.0 151.0 L 151.0 151.0 " stroke="black" fill="none" stroke-width="5.0" stroke-linecap="round" stroke-linejoin="round" />
<path d="M 139.0 121.0 L 139.0 121.0 L 139.0 121.0 L 139.0 122.0 L 139.0 126.0 L 139.0 136.0 L 139.0 145.0 " stroke="black" fill="none" stroke-width="5.0" stroke-linecap="round" stroke-linejoin="round" />
<path d="M 164.0 107.0 L 165.0 107.0 L 166.0 107.0 L 166.0 107.0 L 166.0 109.0 L 163.0 116.0 L 158.0 124.0 L 152.0 133.0 L 149.0 137.0 " stroke="black" fill="none" stroke-width="5.0" stroke-linecap="round" stroke-linejoin="round" />
<path d="M 160.0 122.0 L 160.0 122.0 L 160.0 122.0 L 160.0 122.0 L 160.0 122.0 L 160.0 125.0 L 160.0 133.0 L 160.0 144.0 L 160.0 151.0 L 160.0 152.0 " stroke="black" fill="none" stroke-width="5.0" stroke-linecap="round" stroke-linejoin="round" />
<path d="M 175.0 111.0 L 175.0 111.0 L 175.0 111.0 L 175.0 111.0 L 175.0 112.0 L 175.0 114.0 L 177.0 117.0 L 179.0 120.0 " stroke="black" fill="none" stroke-width="5.0" stroke-linecap="round" stroke-linejoin="round" />
<path d="M 168.0 124.0 L 169.0 124.0 L 170.0 124.0 L 171.0 124.0 L 174.0 124.0 L 180.0 124.0 L 186.0 124.0 L 189.0 124.0 L 190.0 124.0 " stroke="black" fill="none" stroke-width="5.0" stroke-linecap="round" stroke-linejoin="round" />
<path d="M 171.0 133.0 L 172.0 133.0 L 173.0 133.0 L 175.0 133.0 L 178.0 133.0 L 181.0 133.0 L 184.0 133.0 L 185.0 134.0 " stroke="black" fill="none" stroke-width="5.0" stroke-linecap="round" stroke-linejoin="round" />
<path d="M 169.0 143.0 L 169.0 143.0 L 169.0 143.0 L 171.0 143.0 L 176.0 143.0 L 181.0 143.0 L 185.0 144.0 L 185.0 144.0 " stroke="black" fill="none" stroke-width="5.0" stroke-linecap="round" stroke-linejoin="round" />
<path d="M 161.0 155.0 L 161.0 156.0 L 163.0 156.0 L 169.0 156.0 L 181.0 156.0 L 190.0 155.0 L 193.0 155.0 " stroke="black" fill="none" stroke-width="5.0" stroke-linecap="round" stroke-linejoin="round" />
<path d="M 176.0 129.0 L 176.0 129.0 L 176.0 129.0 L 176.0 132.0 L 177.0 140.0 L 177.0 149.0 L 177.0 151.0 " stroke="black" fill="none" stroke-width="5.0" stroke-linecap="round" stroke-linejoin="round" />
<path d="M 134.0 165.0 L 134.0 165.0 L 134.0 165.0 L 135.0 165.0 L 142.0 166.0 L 151.0 167.0 L 159.0 168.0 L 163.0 169.0 L 164.0 170.0 L 164.0 171.0 L 162.0 175.0 L 159.0 180.0 L 154.0 188.0 L 146.0 196.0 L 137.0 204.0 L 132.0 207.0 " stroke="black" fill="none" stroke-width="5.0" stroke-linecap="round" stroke-linejoin="round" />
<path d="M 131.0 172.0 L 131.0 172.0 L 131.0 173.0 L 135.0 178.0 L 145.0 187.0 L 159.0 196.0 L 170.0 201.0 L 175.0 204.0 L 176.0 205.0 " stroke="black" fill="none" stroke-width="5.0" stroke-linecap="round" stroke-linejoin="round" />
</svg>