<svg xmlns="http://www.w3.org/2000/svg" width="300" height="300" viewBox="0 0 300 300">
<path d="M 109.0 122.0 L 109.0 122.0 L 109.0 122.0 L 109.0 122.0 L 110.0 124.0 L 110.0 129.0 L 111.0 133.0 " stroke="black" fill="none" stroke-width="5.0" stroke-linecap="round" stroke-linejoin="round" />
<path d="M 111.0 121.0 L 113.0 121.0 L 114.0 121.0 L 115.0 121.0 L 118.0 121.0 L 121.0 121.0 L 124.0 120.0 L 127.0 120.0 L 130.0 121.0 L 131.0 125.0 L 132.0 129.0 L 132.0 133.0 L 131.0 135.0 " stroke="black" fill="none" stroke-width="5.0" stroke-linecap="round" stroke-linejoin="round" />
<path d="M 113.0 137.0 L 113.0 137.0 L 115.0 137.0 L 117.0 137.0 L 123.0 137.0 L 129.0 136.0 L 132.0 136.0 " stroke="black" fill="none" stroke-width="5.0" stroke-linecap="round" stroke-linejoin="round" />
<path d="M 109.0 154.0 L 109.0 154.0 L 110.0 154.0 L 110.0 155.0 L 110.0 158.0 L 111.0 162.0 L 111.0 165.0 L 112.0 165.0 " stroke="black" fill="none" stroke-width="5.0" stroke-linecap="round" stroke-linejoin="round" />
<path d="M 110.0 154.0 L 110.0 153.0 L 111.0 152.0 L 112.0 152.0 L 115.0 151.0 L 121.0 151.0 L 127.0 151.0 L 131.0 152.0 L 134.0 155.0 L 135.0 160.0 L 134.0 165.0 L 131.0 167.0 " stroke="black" fill="none" stroke-width="5.0" stroke-linecap="round" stroke-linejoin="round" />
<path d="M 110.0 166.0 L 110.0 166.0 L 111.0 166.0 L 115.0 167.0 L 122.0 167.0 L 130.0 167.0 L 131.0 166.0 " stroke="black" fill="none" stroke-width="5.0" stroke-linecap="round" stroke-linejoin="round" />
<path d="M 121.0 140.0 L 121.0 140.0 L 121.0 140.0 L 121.0 140.0 L 121.0 143.0 L 122.0 154.0 L 124.0 168.0 L 124.0 179.0 L 124.0 185.0 L 124.0 185.0 " stroke="black" fill="none" stroke-width="5.0" stroke-linecap="round" stroke-linejoin="round" />
<path d="M 110.0 187.0 L 111.0 187.0 L 111.0 187.0 L 112.0 187.0 L 115.0 188.0 L 122.0 187.0 L 130.0 186.0 L 135.0 185.0 " stroke="black" fill="none" stroke-width="5.0" stroke-linecap="round" stroke-linejoin="round" />
<path d="M 141.0 177.0 L 141.0 178.0 L 141.0 181.0 L 143.0 184.0 L 145.0 187.0 L 147.0 190.0 " stroke="black" fill="none" stroke-width="5.0" stroke-linecap="round" stroke-linejoin="round" />
<path d="M 159.0 114.0 L 159.0 115.0 L 159.0 118.0 L 158.0 122.0 L 156.0 131.0 L 153.0 145.0 L 148.0 157.0 L 144.0 163.0 " stroke="black" fill="none" stroke-width="5.0" stroke-linecap="round" stroke-linejoin="round" />
<path d="M 153.0 139.0 L 153.0 139.0 L 153.0 139.0 L 154.0 140.0 L 156.0 149.0 L 159.0 169.0 L 161.0 189.0 L 162.0 196.0 L 163.0 197.0 " stroke="black" fill="none" stroke-width="5.0" stroke-linecap="round" stroke-linejoin="round" />
<path d="M 174.0 114.0 L 174.0 114.0 L 174.0 114.0 L 174.0 115.0 L 175.0 116.0 L 178.0 118.0 L 180.0 119.0 " stroke="black" fill="none" stroke-width="5.0" stroke-linecap="round" stroke-linejoin="round" />
<path d="M 170.0 135.0 L 171.0 135.0 L 172.0 135.0 L 175.0 135.0 L 180.0 135.0 L 186.0 133.0 L 191.0 133.0 L 192.0 133.0 " stroke="black" fill="none" stroke-width="5.0" stroke-linecap="round" stroke-linejoin="round" />
<path d="M 172.0 149.0 L 173.0 149.0 L 174.0 149.0 L 176.0 149.0 L 181.0 148.0 L 186.0 148.0 L 190.0 148.0 L 193.0 148.0 L 193.0 148.0 " stroke="black" fill="none" stroke-width="5.0" stroke-linecap="round" stroke-linejoin="round" />
<path d="M 171.0 162.0 L 172.0 162.0 L 173.0 162.0 L 177.0 163.0 L 182.0 163.0 L 187.0 162.0 L 191.0 161.0 L 191.0 161.0 " stroke="black" fill="none" stroke-width="5.0" stroke-linecap="round" stroke-linejoin="round" />
<path d="M 166.0 188.0 L 167.0 188.0 L 168.0 188.0 L 171.0 188.0 L 179.0 188.0 L 190.0 187.0 L 200.0 186.0 L 202.0 187.0 " stroke="black" fill="none" stroke-width="5.0" stroke-linecap="round" stroke-linejoin="round" />
<path d="M 179.0 134.0 L 179.0 135.0 L 179.0 139.0 L 181.0 148.0 L 184.0 164.0 L 187.0 178.0 L 187.0 184.0 L 188.0 184.0 " stroke="black" fill="none" stroke-width="5.0" stroke-linecap="round" stroke-linejoin="round" />
</svg>