<svg xmlns="http://www.w3.org/2000/svg" width="300" height="300" viewBox="0 0 300 300">
<path d="M 136.42857142857144 103.5714285714286 L 136.42857142857144 103.5714285714286 L 136.42857142857144 103.5714285714286 L 138.5714285714286 103.5714285714286 L 146.42857142857144 101.42857142857146 L 158.5714285714286 97.85714285714288 L 167.14285714285717 96.42857142857146 " stroke="black" fill="none" stroke-width="5.0" stroke-linecap="round" stroke-linejoin="round" />
<path d="M 120.71428571428574 121.42857142857146 L 120.71428571428574 121.42857142857146 L 120.71428571428574 122.14285714285718 L 120.71428571428574 124.28571428571432 L 121.42857142857146 128.5714285714286 L 122.14285714285718 133.5714285714286 " stroke="black" fill="none" stroke-width="5.0" stroke-linecap="round" stroke-linejoin="round" />
<path d="M 128.5714285714286 122.14285714285718 L 128.5714285714286 122.14285714285718 L 128.5714285714286 122.14285714285718 L 128.5714285714286 122.14285714285718 L 128.5714285714286 122.14285714285718 L 130.00000000000006 122.14285714285718 L 133.5714285714286 121.42857142857146 L 139.28571428571433 120.00000000000001 L 145.71428571428572 119.28571428571432 L 151.42857142857144 117.85714285714288 L 156.42857142857144 117.14285714285718 L 162.14285714285717 115.71428571428574 L 167.14285714285717 114.28571428571432 L 171.42857142857144 113.5714285714286 L 175.00000000000006 113.5714285714286 L 177.14285714285717 113.5714285714286 L 180.00000000000006 113.5714285714286 L 183.5714285714286 113.5714285714286 L 185.71428571428578 113.5714285714286 L 187.8571428571429 112.85714285714288 L 189.28571428571433 112.85714285714288 L 190.00000000000006 112.85714285714288 L 190.00000000000006 112.85714285714288 L 190.71428571428578 112.85714285714288 L 190.71428571428578 112.85714285714288 L 190.71428571428578 112.85714285714288 L 190.71428571428578 112.85714285714288 L 190.71428571428578 112.85714285714288 L 190.71428571428578 114.28571428571432 L 190.71428571428578 117.14285714285718 L 190.71428571428578 122.14285714285718 L 190.00000000000006 127.14285714285718 L 189.28571428571433 129.28571428571433 " stroke="black" fill="none" stroke-width="5.0" stroke-linecap="round" stroke-linejoin="round" />
<path d="M 150.00000000000006 103.5714285714286 L 150.00000000000006 103.5714285714286 L 150.00000000000006 103.5714285714286 L 150.00000000000006 103.5714285714286 L 150.00000000000006 103.5714285714286 L 151.42857142857144 107.14285714285715 L 152.8571428571429 115.71428571428574 L 154.28571428571433 124.28571428571432 L 155.71428571428572 127.85714285714288 " stroke="black" fill="none" stroke-width="5.0" stroke-linecap="round" stroke-linejoin="round" />
<path d="M 137.8571428571429 128.5714285714286 L 137.8571428571429 128.5714285714286 L 137.14285714285717 128.5714285714286 L 136.42857142857144 128.5714285714286 L 137.14285714285717 128.5714285714286 L 140.71428571428572 128.5714285714286 L 142.14285714285717 128.5714285714286 " stroke="black" fill="none" stroke-width="5.0" stroke-linecap="round" stroke-linejoin="round" />
<path d="M 135.71428571428572 136.42857142857144 L 135.71428571428572 136.42857142857144 L 135.71428571428572 136.42857142857144 L 138.5714285714286 135.00000000000006 L 144.28571428571433 132.8571428571429 L 146.42857142857144 132.14285714285717 " stroke="black" fill="none" stroke-width="5.0" stroke-linecap="round" stroke-linejoin="round" />
<path d="M 165.00000000000006 123.5714285714286 L 165.00000000000006 122.85714285714288 L 165.71428571428572 122.14285714285718 L 167.14285714285717 121.42857142857146 L 169.28571428571433 120.71428571428574 L 170.00000000000006 120.71428571428574 " stroke="black" fill="none" stroke-width="5.0" stroke-linecap="round" stroke-linejoin="round" />
<path d="M 167.14285714285717 126.42857142857146 L 167.14285714285717 127.14285714285718 L 167.14285714285717 127.14285714285718 L 168.5714285714286 127.85714285714288 L 170.71428571428572 129.28571428571433 L 172.8571428571429 130.71428571428572 " stroke="black" fill="none" stroke-width="5.0" stroke-linecap="round" stroke-linejoin="round" />
<path d="M 128.5714285714286 156.42857142857144 L 128.5714285714286 156.42857142857144 L 128.5714285714286 156.42857142857144 L 128.5714285714286 156.42857142857144 L 128.5714285714286 156.42857142857144 L 128.5714285714286 158.5714285714286 L 130.00000000000006 160.71428571428572 L 130.00000000000006 161.42857142857144 " stroke="black" fill="none" stroke-width="5.0" stroke-linecap="round" stroke-linejoin="round" />
<path d="M 130.00000000000006 154.28571428571433 L 130.00000000000006 154.28571428571433 L 130.71428571428572 154.28571428571433 L 132.14285714285717 153.5714285714286 L 134.28571428571433 152.8571428571429 L 137.8571428571429 152.14285714285717 L 141.42857142857144 151.42857142857144 L 144.28571428571433 151.42857142857144 L 145.71428571428572 152.8571428571429 L 145.71428571428572 157.14285714285717 L 145.71428571428572 160.71428571428572 L 145.71428571428572 162.8571428571429 L 145.71428571428572 163.5714285714286 " stroke="black" fill="none" stroke-width="5.0" stroke-linecap="round" stroke-linejoin="round" />
<path d="M 130.00000000000006 164.28571428571433 L 130.00000000000006 165.00000000000006 L 130.00000000000006 165.71428571428572 L 130.71428571428572 165.71428571428572 L 135.00000000000006 165.71428571428572 L 141.42857142857144 163.5714285714286 L 146.42857142857144 162.14285714285717 " stroke="black" fill="none" stroke-width="5.0" stroke-linecap="round" stroke-linejoin="round" />
<path d="M 137.8571428571429 165.71428571428572 L 137.8571428571429 165.71428571428572 L 137.8571428571429 165.71428571428572 L 138.5714285714286 165.71428571428572 L 138.5714285714286 167.8571428571429 L 139.28571428571433 173.5714285714286 L 140.00000000000006 181.42857142857144 L 140.71428571428572 187.14285714285717 L 141.42857142857144 187.8571428571429 " stroke="black" fill="none" stroke-width="5.0" stroke-linecap="round" stroke-linejoin="round" />
<path d="M 140.71428571428572 174.28571428571433 L 140.71428571428572 174.28571428571433 L 140.71428571428572 174.28571428571433 L 142.14285714285717 174.28571428571433 L 144.28571428571433 174.28571428571433 L 147.8571428571429 173.5714285714286 L 150.00000000000006 172.8571428571429 " stroke="black" fill="none" stroke-width="5.0" stroke-linecap="round" stroke-linejoin="round" />
<path d="M 129.28571428571433 175.00000000000006 L 129.28571428571433 175.00000000000006 L 129.28571428571433 175.71428571428578 L 130.00000000000006 180.00000000000006 L 132.14285714285717 185.71428571428578 L 132.14285714285717 187.14285714285717 " stroke="black" fill="none" stroke-width="5.0" stroke-linecap="round" stroke-linejoin="round" />
<path d="M 125.00000000000001 190.00000000000006 L 126.42857142857146 190.71428571428578 L 129.28571428571433 190.71428571428578 L 138.5714285714286 190.71428571428578 L 150.00000000000006 190.00000000000006 L 152.14285714285717 190.00000000000006 " stroke="black" fill="none" stroke-width="5.0" stroke-linecap="round" stroke-linejoin="round" />
<path d="M 162.8571428571429 140.71428571428572 L 162.8571428571429 140.71428571428572 L 162.8571428571429 140.71428571428572 L 162.14285714285717 140.71428571428572 L 162.14285714285717 142.14285714285717 L 160.71428571428572 147.14285714285717 L 157.8571428571429 154.28571428571433 L 156.42857142857144 155.71428571428572 " stroke="black" fill="none" stroke-width="5.0" stroke-linecap="round" stroke-linejoin="round" />
<path d="M 160.71428571428572 150.00000000000006 L 160.71428571428572 150.00000000000006 L 161.42857142857144 149.28571428571433 L 165.00000000000006 147.8571428571429 L 170.71428571428572 146.42857142857144 L 175.71428571428578 145.71428571428572 L 177.8571428571429 145.71428571428572 L 177.8571428571429 145.71428571428572 L 177.8571428571429 147.14285714285717 L 176.42857142857144 150.00000000000006 L 175.00000000000006 154.28571428571433 L 173.5714285714286 160.00000000000006 L 168.5714285714286 167.14285714285717 L 162.8571428571429 173.5714285714286 L 160.71428571428572 175.00000000000006 " stroke="black" fill="none" stroke-width="5.0" stroke-linecap="round" stroke-linejoin="round" />
<path d="M 161.42857142857144 155.71428571428572 L 162.8571428571429 155.71428571428572 L 165.00000000000006 156.42857142857144 L 170.00000000000006 158.5714285714286 L 176.42857142857144 162.14285714285717 L 183.5714285714286 166.42857142857144 L 185.71428571428578 167.8571428571429 " stroke="black" fill="none" stroke-width="5.0" stroke-linecap="round" stroke-linejoin="round" />
<path d="M 164.28571428571433 180.00000000000006 L 164.28571428571433 180.00000000000006 L 165.00000000000006 180.00000000000006 L 165.71428571428572 180.71428571428578 L 166.42857142857144 184.28571428571433 L 167.14285714285717 188.5714285714286 L 167.14285714285717 190.00000000000006 " stroke="black" fill="none" stroke-width="5.0" stroke-linecap="round" stroke-linejoin="round" />
<path d="M 165.00000000000006 177.8571428571429 L 165.00000000000006 177.8571428571429 L 165.71428571428572 176.42857142857144 L 167.14285714285717 175.71428571428578 L 170.00000000000006 175.71428571428578 L 173.5714285714286 175.71428571428578 L 177.14285714285717 175.71428571428578 L 180.00000000000006 175.71428571428578 L 182.14285714285717 175.71428571428578 L 183.5714285714286 177.8571428571429 L 185.00000000000006 182.14285714285717 L 185.00000000000006 186.42857142857144 L 185.71428571428578 190.00000000000006 L 185.71428571428578 190.71428571428578 " stroke="black" fill="none" stroke-width="5.0" stroke-linecap="round" stroke-linejoin="round" />
<path d="M 166.42857142857144 192.14285714285722 L 167.14285714285717 192.14285714285722 L 167.8571428571429 192.8571428571429 L 170.00000000000006 192.8571428571429 L 175.71428571428578 192.8571428571429 L 180.71428571428578 192.14285714285722 " stroke="black" fill="none" stroke-width="5.0" stroke-linecap="round" stroke-linejoin="round" />
</svg>