<svg xmlns="http://www.w3.org/2000/svg" width="300" height="300" viewBox="0 0 300 300">
<path d="M 130.0 107.0 L 132.0 107.0 L 134.0 107.0 L 139.0 107.0 L 149.0 106.0 L 159.0 105.0 L 167.0 105.0 L 170.0 105.0 " stroke="black" fill="none" stroke-width="5.0" stroke-linecap="round" stroke-linejoin="round" />
<path d="M 123.0 127.0 L 123.0 127.0 L 124.0 127.0 L 124.0 127.0 L 124.0 129.0 L 124.0 132.0 L 125.0 135.0 L 126.0 138.0 L 126.0 138.0 " stroke="black" fill="none" stroke-width="5.0" stroke-linecap="round" stroke-linejoin="round" />
<path d="M 123.0 127.0 L 123.0 127.0 L 123.0 127.0 L 124.0 127.0 L 125.0 127.0 L 131.0 127.0 L 141.0 126.0 L 153.0 124.0 L 165.0 123.0 L 173.0 123.0 L 179.0 124.0 L 182.0 126.0 L 183.0 129.0 L 184.0 133.0 L 184.0 137.0 L 183.0 140.0 L 183.0 140.0 " stroke="black" fill="none" stroke-width="5.0" stroke-linecap="round" stroke-linejoin="round" />
<path d="M 149.0 111.0 L 149.0 110.0 L 149.0 109.0 L 148.0 109.0 L 148.0 111.0 L 150.0 117.0 L 152.0 126.0 L 154.0 135.0 L 155.0 142.0 L 155.0 143.0 " stroke="black" fill="none" stroke-width="5.0" stroke-linecap="round" stroke-linejoin="round" />
<path d="M 137.0 131.0 L 137.0 131.0 L 137.0 131.0 L 137.0 131.0 L 139.0 132.0 L 141.0 133.0 " stroke="black" fill="none" stroke-width="5.0" stroke-linecap="round" stroke-linejoin="round" />
<path d="M 134.0 142.0 L 134.0 142.0 L 135.0 142.0 L 137.0 142.0 L 139.0 142.0 L 142.0 142.0 " stroke="black" fill="none" stroke-width="5.0" stroke-linecap="round" stroke-linejoin="round" />
<path d="M 161.0 134.0 L 161.0 134.0 L 161.0 134.0 L 161.0 134.0 L 163.0 133.0 L 167.0 132.0 L 169.0 132.0 L 170.0 132.0 " stroke="black" fill="none" stroke-width="5.0" stroke-linecap="round" stroke-linejoin="round" />
<path d="M 164.0 140.0 L 165.0 140.0 L 167.0 142.0 L 170.0 143.0 L 173.0 144.0 " stroke="black" fill="none" stroke-width="5.0" stroke-linecap="round" stroke-linejoin="round" />
<path d="M 134.0 153.0 L 134.0 153.0 L 134.0 153.0 L 134.0 153.0 L 135.0 153.0 L 135.0 155.0 L 135.0 158.0 L 134.0 162.0 L 134.0 166.0 L 135.0 168.0 L 138.0 169.0 L 142.0 169.0 L 144.0 169.0 " stroke="black" fill="none" stroke-width="5.0" stroke-linecap="round" stroke-linejoin="round" />
<path d="M 144.0 154.0 L 144.0 154.0 L 143.0 154.0 L 143.0 154.0 L 143.0 155.0 L 143.0 159.0 L 144.0 165.0 " stroke="black" fill="none" stroke-width="5.0" stroke-linecap="round" stroke-linejoin="round" />
<path d="M 124.0 161.0 L 124.0 161.0 L 124.0 161.0 L 125.0 162.0 L 128.0 162.0 L 135.0 162.0 L 144.0 160.0 L 151.0 160.0 L 154.0 160.0 " stroke="black" fill="none" stroke-width="5.0" stroke-linecap="round" stroke-linejoin="round" />
<path d="M 129.0 179.0 L 129.0 179.0 L 130.0 180.0 L 130.0 180.0 L 130.0 181.0 L 131.0 183.0 L 131.0 184.0 L 131.0 185.0 " stroke="black" fill="none" stroke-width="5.0" stroke-linecap="round" stroke-linejoin="round" />
<path d="M 129.0 178.0 L 129.0 178.0 L 130.0 178.0 L 131.0 178.0 L 134.0 177.0 L 139.0 176.0 L 144.0 176.0 L 148.0 176.0 L 151.0 179.0 L 152.0 182.0 L 152.0 184.0 L 152.0 186.0 " stroke="black" fill="none" stroke-width="5.0" stroke-linecap="round" stroke-linejoin="round" />
<path d="M 132.0 186.0 L 132.0 186.0 L 132.0 186.0 L 133.0 186.0 L 134.0 186.0 L 138.0 186.0 L 143.0 186.0 L 147.0 186.0 L 149.0 186.0 L 149.0 186.0 " stroke="black" fill="none" stroke-width="5.0" stroke-linecap="round" stroke-linejoin="round" />
<path d="M 125.0 197.0 L 125.0 197.0 L 126.0 197.0 L 128.0 198.0 L 134.0 198.0 L 143.0 196.0 L 151.0 195.0 L 154.0 195.0 L 155.0 195.0 " stroke="black" fill="none" stroke-width="5.0" stroke-linecap="round" stroke-linejoin="round" />
<path d="M 141.0 173.0 L 141.0 173.0 L 140.0 173.0 L 139.0 173.0 L 139.0 175.0 L 141.0 184.0 L 143.0 199.0 L 144.0 211.0 L 145.0 217.0 L 145.0 217.0 " stroke="black" fill="none" stroke-width="5.0" stroke-linecap="round" stroke-linejoin="round" />
<path d="M 160.0 161.0 L 160.0 161.0 L 160.0 161.0 L 160.0 160.0 L 160.0 160.0 L 160.0 162.0 L 161.0 172.0 L 162.0 187.0 L 162.0 201.0 L 163.0 209.0 L 163.0 210.0 " stroke="black" fill="none" stroke-width="5.0" stroke-linecap="round" stroke-linejoin="round" />
<path d="M 160.0 160.0 L 160.0 160.0 L 161.0 160.0 L 162.0 160.0 L 164.0 160.0 L 166.0 159.0 L 168.0 159.0 L 171.0 159.0 L 173.0 161.0 L 176.0 166.0 L 179.0 176.0 L 182.0 189.0 L 184.0 201.0 L 186.0 208.0 L 186.0 213.0 L 185.0 214.0 L 183.0 214.0 L 179.0 212.0 L 176.0 210.0 " stroke="black" fill="none" stroke-width="5.0" stroke-linecap="round" stroke-linejoin="round" />
<path d="M 162.0 176.0 L 162.0 176.0 L 163.0 176.0 L 163.0 175.0 L 166.0 175.0 L 172.0 175.0 L 177.0 175.0 L 179.0 175.0 " stroke="black" fill="none" stroke-width="5.0" stroke-linecap="round" stroke-linejoin="round" />
<path d="M 162.0 190.0 L 163.0 192.0 L 165.0 193.0 L 172.0 193.0 L 181.0 192.0 " stroke="black" fill="none" stroke-width="5.0" stroke-linecap="round" stroke-linejoin="round" />
</svg>