<svg xmlns="http://www.w3.org/2000/svg" width="300" height="300" viewBox="0 0 300 300">
<path d="M 133.0 114.0 L 133.0 114.0 L 133.0 116.0 L 134.0 119.0 L 135.0 129.0 L 136.0 148.0 L 136.0 171.0 L 133.0 186.0 " stroke="black" fill="none" stroke-width="5.0" stroke-linecap="round" stroke-linejoin="round" />
<path d="M 117.0 134.0 L 117.0 134.0 L 117.0 134.0 L 118.0 133.0 L 120.0 133.0 L 130.0 133.0 L 135.0 133.0 " stroke="black" fill="none" stroke-width="5.0" stroke-linecap="round" stroke-linejoin="round" />
<path d="M 116.0 149.0 L 117.0 149.0 L 117.0 149.0 L 119.0 149.0 L 125.0 149.0 L 134.0 150.0 " stroke="black" fill="none" stroke-width="5.0" stroke-linecap="round" stroke-linejoin="round" />
<path d="M 111.0 169.0 L 111.0 169.0 L 111.0 169.0 L 111.0 169.0 L 112.0 169.0 L 116.0 169.0 L 126.0 168.0 L 130.0 167.0 " stroke="black" fill="none" stroke-width="5.0" stroke-linecap="round" stroke-linejoin="round" />
<path d="M 151.0 112.0 L 151.0 112.0 L 151.0 112.0 L 151.0 112.0 L 151.0 115.0 L 151.0 126.0 L 154.0 148.0 L 157.0 171.0 L 159.0 187.0 L 160.0 190.0 " stroke="black" fill="none" stroke-width="5.0" stroke-linecap="round" stroke-linejoin="round" />
<path d="M 158.0 130.0 L 158.0 130.0 L 158.0 130.0 L 160.0 130.0 L 166.0 130.0 L 173.0 131.0 " stroke="black" fill="none" stroke-width="5.0" stroke-linecap="round" stroke-linejoin="round" />
<path d="M 158.0 151.0 L 158.0 151.0 L 159.0 152.0 L 163.0 152.0 L 172.0 151.0 L 182.0 151.0 " stroke="black" fill="none" stroke-width="5.0" stroke-linecap="round" stroke-linejoin="round" />
<path d="M 159.0 174.0 L 163.0 174.0 L 169.0 175.0 L 181.0 175.0 L 193.0 175.0 L 199.0 175.0 " stroke="black" fill="none" stroke-width="5.0" stroke-linecap="round" stroke-linejoin="round" />
</svg>