<svg xmlns="http://www.w3.org/2000/svg" width="300" height="300" viewBox="0 0 300 300">
<path d="M 112.0 121.0 L 112.0 121.0 L 112.0 121.0 L 113.0 121.0 L 117.0 121.0 L 125.0 120.0 L 134.0 120.0 L 138.0 119.0 " stroke="black" fill="none" stroke-width="5.0" stroke-linecap="round" stroke-linejoin="round" />
<path d="M 130.0 109.0 L 130.0 109.0 L 130.0 109.0 L 130.0 109.0 L 129.0 109.0 L 129.0 111.0 L 127.0 117.0 L 123.0 127.0 " stroke="black" fill="none" stroke-width="5.0" stroke-linecap="round" stroke-linejoin="round" />
<path d="M 110.0 137.0 L 110.0 137.0 L 110.0 137.0 L 110.0 137.0 L 110.0 140.0 L 110.0 147.0 L 110.0 153.0 L 111.0 156.0 " stroke="black" fill="none" stroke-width="5.0" stroke-linecap="round" stroke-linejoin="round" />
<path d="M 111.0 137.0 L 111.0 137.0 L 111.0 137.0 L 111.0 137.0 L 112.0 137.0 L 115.0 136.0 L 120.0 135.0 L 125.0 135.0 L 130.0 135.0 L 133.0 136.0 L 136.0 140.0 L 137.0 145.0 L 138.0 151.0 L 138.0 155.0 L 138.0 157.0 " stroke="black" fill="none" stroke-width="5.0" stroke-linecap="round" stroke-linejoin="round" />
<path d="M 113.0 149.0 L 113.0 149.0 L 113.0 149.0 L 113.0 149.0 L 115.0 149.0 L 121.0 149.0 L 127.0 148.0 L 132.0 148.0 L 134.0 148.0 " stroke="black" fill="none" stroke-width="5.0" stroke-linecap="round" stroke-linejoin="round" />
<path d="M 114.0 159.0 L 114.0 159.0 L 114.0 160.0 L 115.0 160.0 L 118.0 160.0 L 126.0 158.0 L 131.0 158.0 " stroke="black" fill="none" stroke-width="5.0" stroke-linecap="round" stroke-linejoin="round" />
<path d="M 106.0 177.0 L 106.0 177.0 L 107.0 177.0 L 109.0 177.0 L 115.0 177.0 L 125.0 176.0 L 135.0 176.0 L 142.0 176.0 " stroke="black" fill="none" stroke-width="5.0" stroke-linecap="round" stroke-linejoin="round" />
<path d="M 121.0 159.0 L 121.0 159.0 L 121.0 160.0 L 121.0 162.0 L 123.0 169.0 L 125.0 179.0 L 127.0 188.0 " stroke="black" fill="none" stroke-width="5.0" stroke-linecap="round" stroke-linejoin="round" />
<path d="M 150.0 118.0 L 150.0 118.0 L 149.0 118.0 L 149.0 118.0 L 149.0 118.0 L 151.0 118.0 L 155.0 118.0 L 159.0 118.0 L 162.0 118.0 L 165.0 118.0 L 167.0 118.0 L 168.0 120.0 L 169.0 124.0 L 169.0 127.0 L 169.0 129.0 " stroke="black" fill="none" stroke-width="5.0" stroke-linecap="round" stroke-linejoin="round" />
<path d="M 142.0 136.0 L 142.0 136.0 L 142.0 136.0 L 142.0 136.0 L 146.0 136.0 L 155.0 135.0 L 166.0 134.0 L 174.0 134.0 L 177.0 134.0 " stroke="black" fill="none" stroke-width="5.0" stroke-linecap="round" stroke-linejoin="round" />
<path d="M 154.0 107.0 L 154.0 107.0 L 154.0 106.0 L 154.0 106.0 L 155.0 109.0 L 156.0 118.0 L 156.0 128.0 L 156.0 130.0 " stroke="black" fill="none" stroke-width="5.0" stroke-linecap="round" stroke-linejoin="round" />
<path d="M 148.0 145.0 L 148.0 145.0 L 147.0 146.0 L 147.0 148.0 L 147.0 151.0 L 148.0 154.0 " stroke="black" fill="none" stroke-width="5.0" stroke-linecap="round" stroke-linejoin="round" />
<path d="M 149.0 144.0 L 149.0 144.0 L 150.0 144.0 L 150.0 144.0 L 153.0 143.0 L 157.0 142.0 L 163.0 142.0 L 168.0 142.0 L 172.0 142.0 L 174.0 145.0 L 175.0 148.0 L 175.0 150.0 L 175.0 152.0 " stroke="black" fill="none" stroke-width="5.0" stroke-linecap="round" stroke-linejoin="round" />
<path d="M 151.0 154.0 L 151.0 154.0 L 151.0 154.0 L 152.0 154.0 L 155.0 154.0 L 161.0 154.0 L 168.0 154.0 L 174.0 154.0 L 176.0 154.0 " stroke="black" fill="none" stroke-width="5.0" stroke-linecap="round" stroke-linejoin="round" />
<path d="M 149.0 164.0 L 149.0 164.0 L 149.0 164.0 L 150.0 164.0 L 152.0 164.0 L 157.0 164.0 L 166.0 163.0 L 173.0 162.0 L 178.0 162.0 L 179.0 162.0 " stroke="black" fill="none" stroke-width="5.0" stroke-linecap="round" stroke-linejoin="round" />
<path d="M 153.0 167.0 L 153.0 167.0 L 152.0 167.0 L 150.0 169.0 L 149.0 170.0 L 148.0 174.0 L 147.0 177.0 L 147.0 180.0 L 148.0 181.0 L 153.0 182.0 L 161.0 181.0 L 171.0 180.0 L 179.0 179.0 L 182.0 179.0 " stroke="black" fill="none" stroke-width="5.0" stroke-linecap="round" stroke-linejoin="round" />
<path d="M 161.0 157.0 L 161.0 157.0 L 160.0 157.0 L 160.0 157.0 L 160.0 159.0 L 162.0 165.0 L 165.0 177.0 L 167.0 191.0 L 168.0 200.0 L 169.0 204.0 L 169.0 204.0 L 169.0 203.0 " stroke="black" fill="none" stroke-width="5.0" stroke-linecap="round" stroke-linejoin="round" />
</svg>