<svg xmlns="http://www.w3.org/2000/svg" width="300" height="300" viewBox="0 0 300 300">
<path d="M 135.0 114.0 L 135.0 114.0 L 135.0 114.0 L 137.0 114.0 L 143.0 113.0 L 154.0 112.0 L 164.0 111.0 L 169.0 111.0 L 169.0 111.0 " stroke="black" fill="none" stroke-width="5.0" stroke-linecap="round" stroke-linejoin="round" />
<path d="M 142.0 129.0 L 143.0 129.0 L 144.0 129.0 L 146.0 129.0 L 151.0 129.0 L 157.0 128.0 L 162.0 127.0 L 165.0 127.0 L 165.0 128.0 " stroke="black" fill="none" stroke-width="5.0" stroke-linecap="round" stroke-linejoin="round" />
<path d="M 128.0 150.0 L 131.0 150.0 L 135.0 150.0 L 144.0 150.0 L 157.0 149.0 L 171.0 147.0 L 181.0 146.0 L 182.0 146.0 " stroke="black" fill="none" stroke-width="5.0" stroke-linecap="round" stroke-linejoin="round" />
<path d="M 152.0 93.0 L 152.0 93.0 L 152.0 94.0 L 153.0 106.0 L 156.0 128.0 L 157.0 140.0 " stroke="black" fill="none" stroke-width="5.0" stroke-linecap="round" stroke-linejoin="round" />
<path d="M 140.0 168.0 L 140.0 168.0 L 140.0 168.0 L 140.0 169.0 L 139.0 173.0 L 138.0 184.0 L 137.0 198.0 L 136.0 207.0 L 136.0 208.0 " stroke="black" fill="none" stroke-width="5.0" stroke-linecap="round" stroke-linejoin="round" />
<path d="M 142.0 160.0 L 143.0 160.0 L 145.0 159.0 L 148.0 159.0 L 153.0 158.0 L 160.0 157.0 L 167.0 157.0 L 171.0 157.0 L 174.0 159.0 L 176.0 165.0 L 178.0 177.0 L 180.0 190.0 L 182.0 200.0 L 182.0 207.0 L 182.0 210.0 L 179.0 211.0 L 173.0 210.0 L 167.0 207.0 " stroke="black" fill="none" stroke-width="5.0" stroke-linecap="round" stroke-linejoin="round" />
<path d="M 143.0 170.0 L 143.0 170.0 L 143.0 170.0 L 146.0 170.0 L 153.0 170.0 L 163.0 169.0 L 171.0 169.0 L 173.0 170.0 L 173.0 171.0 " stroke="black" fill="none" stroke-width="5.0" stroke-linecap="round" stroke-linejoin="round" />
<path d="M 143.0 190.0 L 144.0 192.0 L 148.0 193.0 L 160.0 193.0 L 177.0 190.0 L 182.0 189.0 " stroke="black" fill="none" stroke-width="5.0" stroke-linecap="round" stroke-linejoin="round" />
</svg>