<svg xmlns="http://www.w3.org/2000/svg" width="300" height="300" viewBox="0 0 300 300">
<path d="M 132.0 110.0 L 132.0 110.0 L 132.0 110.0 L 132.0 110.0 L 133.0 110.0 L 138.0 110.0 L 147.0 110.0 L 157.0 110.0 L 165.0 110.0 L 169.0 110.0 L 169.0 110.0 " stroke="black" fill="none" stroke-width="5.0" stroke-linecap="round" stroke-linejoin="round" />
<path d="M 117.0 126.0 L 117.0 127.0 L 117.0 129.0 L 117.0 132.0 L 118.0 136.0 L 119.0 141.0 L 119.0 143.0 " stroke="black" fill="none" stroke-width="5.0" stroke-linecap="round" stroke-linejoin="round" />
<path d="M 119.0 125.0 L 119.0 125.0 L 120.0 126.0 L 122.0 126.0 L 127.0 126.0 L 137.0 125.0 L 149.0 124.0 L 160.0 123.0 L 168.0 123.0 L 175.0 123.0 L 179.0 123.0 L 181.0 124.0 L 181.0 127.0 L 181.0 133.0 L 180.0 138.0 L 180.0 142.0 L 179.0 145.0 L 179.0 146.0 " stroke="black" fill="none" stroke-width="5.0" stroke-linecap="round" stroke-linejoin="round" />
<path d="M 148.0 112.0 L 148.0 112.0 L 148.0 112.0 L 147.0 112.0 L 147.0 114.0 L 148.0 123.0 L 150.0 133.0 L 150.0 141.0 L 151.0 145.0 " stroke="black" fill="none" stroke-width="5.0" stroke-linecap="round" stroke-linejoin="round" />
<path d="M 133.0 134.0 L 133.0 134.0 L 133.0 134.0 L 133.0 134.0 L 134.0 135.0 L 135.0 135.0 L 137.0 136.0 " stroke="black" fill="none" stroke-width="5.0" stroke-linecap="round" stroke-linejoin="round" />
<path d="M 128.0 144.0 L 129.0 144.0 L 129.0 144.0 L 130.0 145.0 L 133.0 145.0 L 137.0 143.0 " stroke="black" fill="none" stroke-width="5.0" stroke-linecap="round" stroke-linejoin="round" />
<path d="M 162.0 132.0 L 162.0 132.0 L 162.0 132.0 L 162.0 132.0 L 162.0 133.0 L 162.0 134.0 L 161.0 135.0 L 160.0 136.0 " stroke="black" fill="none" stroke-width="5.0" stroke-linecap="round" stroke-linejoin="round" />
<path d="M 158.0 142.0 L 158.0 142.0 L 159.0 142.0 L 160.0 142.0 L 162.0 143.0 L 165.0 144.0 L 165.0 144.0 " stroke="black" fill="none" stroke-width="5.0" stroke-linecap="round" stroke-linejoin="round" />
<path d="M 124.0 158.0 L 124.0 158.0 L 124.0 158.0 L 124.0 158.0 L 124.0 158.0 L 126.0 158.0 L 130.0 158.0 L 134.0 158.0 L 137.0 158.0 L 138.0 158.0 L 139.0 158.0 L 140.0 159.0 L 140.0 162.0 L 140.0 165.0 L 140.0 168.0 L 140.0 169.0 " stroke="black" fill="none" stroke-width="5.0" stroke-linecap="round" stroke-linejoin="round" />
<path d="M 121.0 172.0 L 122.0 172.0 L 123.0 173.0 L 124.0 173.0 L 128.0 174.0 L 132.0 174.0 L 136.0 174.0 L 139.0 173.0 L 139.0 173.0 " stroke="black" fill="none" stroke-width="5.0" stroke-linecap="round" stroke-linejoin="round" />
<path d="M 122.0 161.0 L 122.0 161.0 L 121.0 162.0 L 121.0 165.0 L 120.0 173.0 L 120.0 184.0 L 120.0 196.0 L 120.0 204.0 L 120.0 207.0 L 120.0 207.0 " stroke="black" fill="none" stroke-width="5.0" stroke-linecap="round" stroke-linejoin="round" />
<path d="M 123.0 185.0 L 123.0 185.0 L 124.0 185.0 L 125.0 185.0 L 127.0 185.0 L 132.0 185.0 L 137.0 185.0 L 140.0 185.0 L 141.0 185.0 L 141.0 185.0 " stroke="black" fill="none" stroke-width="5.0" stroke-linecap="round" stroke-linejoin="round" />
<path d="M 121.0 194.0 L 121.0 194.0 L 121.0 195.0 L 122.0 196.0 L 127.0 196.0 L 137.0 195.0 L 139.0 194.0 " stroke="black" fill="none" stroke-width="5.0" stroke-linecap="round" stroke-linejoin="round" />
<path d="M 158.0 157.0 L 158.0 157.0 L 158.0 157.0 L 158.0 157.0 L 158.0 157.0 L 159.0 157.0 L 160.0 157.0 L 161.0 158.0 L 163.0 158.0 L 165.0 159.0 L 167.0 161.0 L 168.0 165.0 L 169.0 168.0 L 170.0 171.0 L 170.0 173.0 L 167.0 174.0 L 163.0 174.0 L 158.0 174.0 L 153.0 173.0 L 150.0 174.0 " stroke="black" fill="none" stroke-width="5.0" stroke-linecap="round" stroke-linejoin="round" />
<path d="M 150.0 187.0 L 150.0 187.0 L 150.0 187.0 L 150.0 187.0 L 152.0 187.0 L 156.0 187.0 L 162.0 186.0 L 165.0 186.0 L 167.0 186.0 L 167.0 189.0 L 165.0 196.0 L 161.0 202.0 L 157.0 208.0 L 152.0 212.0 " stroke="black" fill="none" stroke-width="5.0" stroke-linecap="round" stroke-linejoin="round" />
<path d="M 146.0 194.0 L 146.0 194.0 L 147.0 194.0 L 147.0 194.0 L 149.0 194.0 L 152.0 197.0 L 159.0 203.0 L 167.0 209.0 L 175.0 213.0 L 178.0 215.0 L 179.0 215.0 " stroke="black" fill="none" stroke-width="5.0" stroke-linecap="round" stroke-linejoin="round" />
</svg>