<svg xmlns="http://www.w3.org/2000/svg" width="300" height="300" viewBox="0 0 300 300">
<path d="M 115.0 116.0 L 115.0 116.0 L 115.0 116.0 L 115.0 116.0 L 115.0 116.0 L 115.0 117.0 L 115.0 119.0 L 115.0 123.0 L 115.0 128.0 L 115.0 132.0 L 115.0 135.0 L 117.0 136.0 L 121.0 137.0 L 127.0 136.0 L 132.0 135.0 " stroke="black" fill="none" stroke-width="5.0" stroke-linecap="round" stroke-linejoin="round" />
<path d="M 132.0 113.0 L 132.0 113.0 L 132.0 114.0 L 132.0 116.0 L 132.0 120.0 L 132.0 126.0 L 133.0 133.0 L 133.0 134.0 " stroke="black" fill="none" stroke-width="5.0" stroke-linecap="round" stroke-linejoin="round" />
<path d="M 109.0 128.0 L 109.0 128.0 L 109.0 128.0 L 110.0 128.0 L 113.0 128.0 L 122.0 128.0 L 134.0 128.0 L 139.0 128.0 " stroke="black" fill="none" stroke-width="5.0" stroke-linecap="round" stroke-linejoin="round" />
<path d="M 111.0 151.0 L 111.0 151.0 L 111.0 151.0 L 111.0 151.0 L 111.0 151.0 L 111.0 151.0 L 111.0 151.0 L 111.0 152.0 L 111.0 154.0 L 111.0 156.0 L 111.0 156.0 " stroke="black" fill="none" stroke-width="5.0" stroke-linecap="round" stroke-linejoin="round" />
<path d="M 110.0 150.0 L 111.0 150.0 L 112.0 150.0 L 114.0 149.0 L 117.0 148.0 L 123.0 147.0 L 130.0 146.0 L 136.0 146.0 L 140.0 146.0 L 143.0 148.0 L 144.0 151.0 L 144.0 156.0 L 143.0 160.0 L 143.0 160.0 " stroke="black" fill="none" stroke-width="5.0" stroke-linecap="round" stroke-linejoin="round" />
<path d="M 113.0 160.0 L 113.0 160.0 L 114.0 159.0 L 115.0 159.0 L 117.0 159.0 L 124.0 159.0 L 133.0 159.0 L 140.0 159.0 L 143.0 159.0 " stroke="black" fill="none" stroke-width="5.0" stroke-linecap="round" stroke-linejoin="round" />
<path d="M 108.0 178.0 L 108.0 178.0 L 109.0 178.0 L 111.0 178.0 L 115.0 178.0 L 124.0 178.0 L 133.0 177.0 L 139.0 177.0 " stroke="black" fill="none" stroke-width="5.0" stroke-linecap="round" stroke-linejoin="round" />
<path d="M 124.0 139.0 L 124.0 139.0 L 124.0 138.0 L 124.0 139.0 L 125.0 146.0 L 127.0 160.0 L 129.0 179.0 L 130.0 194.0 L 129.0 200.0 L 129.0 202.0 " stroke="black" fill="none" stroke-width="5.0" stroke-linecap="round" stroke-linejoin="round" />
<path d="M 159.0 116.0 L 159.0 117.0 L 159.0 118.0 L 157.0 121.0 L 155.0 127.0 L 152.0 135.0 L 152.0 137.0 " stroke="black" fill="none" stroke-width="5.0" stroke-linecap="round" stroke-linejoin="round" />
<path d="M 156.0 127.0 L 156.0 127.0 L 157.0 127.0 L 159.0 127.0 L 162.0 127.0 L 167.0 127.0 L 173.0 127.0 L 178.0 127.0 L 180.0 128.0 L 182.0 131.0 L 184.0 138.0 L 186.0 148.0 L 189.0 160.0 L 192.0 173.0 L 193.0 183.0 L 193.0 188.0 L 193.0 190.0 L 189.0 190.0 L 182.0 190.0 L 173.0 189.0 " stroke="black" fill="none" stroke-width="5.0" stroke-linecap="round" stroke-linejoin="round" />
<path d="M 153.0 156.0 L 153.0 156.0 L 153.0 156.0 L 153.0 156.0 L 153.0 156.0 L 157.0 156.0 L 165.0 156.0 L 172.0 156.0 L 178.0 157.0 " stroke="black" fill="none" stroke-width="5.0" stroke-linecap="round" stroke-linejoin="round" />
<path d="M 163.0 139.0 L 164.0 139.0 L 164.0 139.0 L 165.0 142.0 L 166.0 151.0 L 168.0 164.0 L 169.0 177.0 L 170.0 184.0 L 170.0 186.0 " stroke="black" fill="none" stroke-width="5.0" stroke-linecap="round" stroke-linejoin="round" />
<path d="M 156.0 147.0 L 156.0 147.0 L 156.0 147.0 L 156.0 147.0 L 158.0 148.0 L 159.0 149.0 " stroke="black" fill="none" stroke-width="5.0" stroke-linecap="round" stroke-linejoin="round" />
<path d="M 181.0 143.0 L 180.0 145.0 L 178.0 147.0 L 174.0 152.0 L 171.0 156.0 " stroke="black" fill="none" stroke-width="5.0" stroke-linecap="round" stroke-linejoin="round" />
<path d="M 163.0 165.0 L 163.0 165.0 L 163.0 165.0 L 162.0 166.0 L 160.0 168.0 L 157.0 172.0 L 155.0 175.0 " stroke="black" fill="none" stroke-width="5.0" stroke-linecap="round" stroke-linejoin="round" />
<path d="M 175.0 163.0 L 176.0 164.0 L 179.0 166.0 L 185.0 170.0 L 191.0 175.0 L 192.0 176.0 " stroke="black" fill="none" stroke-width="5.0" stroke-linecap="round" stroke-linejoin="round" />
</svg>