<svg xmlns="http://www.w3.org/2000/svg" width="300" height="300" viewBox="0 0 300 300">
<path d="M 135.00000000000006 112.14285714285718 L 135.00000000000006 112.14285714285718 L 134.28571428571433 112.14285714285718 L 134.28571428571433 112.14285714285718 L 136.42857142857144 112.14285714285718 L 144.28571428571433 110.00000000000001 L 154.28571428571433 107.85714285714288 L 162.14285714285717 105.71428571428574 L 163.5714285714286 105.71428571428574 " stroke="black" fill="none" stroke-width="5.0" stroke-linecap="round" stroke-linejoin="round" />
<path d="M 129.28571428571433 127.85714285714288 L 130.00000000000006 129.28571428571433 L 130.00000000000006 131.42857142857144 L 130.00000000000006 135.71428571428572 L 130.71428571428572 138.5714285714286 L 130.71428571428572 139.28571428571433 " stroke="black" fill="none" stroke-width="5.0" stroke-linecap="round" stroke-linejoin="round" />
<path d="M 130.71428571428572 127.85714285714288 L 131.42857142857144 127.85714285714288 L 132.14285714285717 127.14285714285718 L 132.8571428571429 127.14285714285718 L 134.28571428571433 126.42857142857146 L 138.5714285714286 125.71428571428574 L 145.00000000000006 123.5714285714286 L 152.14285714285717 122.14285714285718 L 158.5714285714286 120.71428571428574 L 164.28571428571433 120.71428571428574 L 168.5714285714286 120.00000000000001 L 172.8571428571429 119.28571428571432 L 176.42857142857144 119.28571428571432 L 177.8571428571429 119.28571428571432 L 177.8571428571429 121.42857142857146 L 178.5714285714286 124.28571428571432 L 178.5714285714286 127.85714285714288 L 178.5714285714286 131.42857142857144 L 178.5714285714286 135.71428571428572 " stroke="black" fill="none" stroke-width="5.0" stroke-linecap="round" stroke-linejoin="round" />
<path d="M 152.8571428571429 113.5714285714286 L 152.8571428571429 113.5714285714286 L 152.8571428571429 112.14285714285718 L 152.8571428571429 111.42857142857146 L 152.8571428571429 111.42857142857146 L 152.8571428571429 112.14285714285718 L 153.5714285714286 117.85714285714288 L 155.00000000000006 127.85714285714288 L 156.42857142857144 140.00000000000006 L 157.14285714285717 147.14285714285717 L 157.14285714285717 147.8571428571429 " stroke="black" fill="none" stroke-width="5.0" stroke-linecap="round" stroke-linejoin="round" />
<path d="M 142.8571428571429 132.8571428571429 L 142.8571428571429 132.8571428571429 L 142.8571428571429 133.5714285714286 L 142.8571428571429 133.5714285714286 L 142.8571428571429 133.5714285714286 L 144.28571428571433 134.28571428571433 " stroke="black" fill="none" stroke-width="5.0" stroke-linecap="round" stroke-linejoin="round" />
<path d="M 139.28571428571433 143.5714285714286 L 139.28571428571433 143.5714285714286 L 139.28571428571433 143.5714285714286 L 139.28571428571433 142.8571428571429 L 141.42857142857144 142.14285714285717 L 142.8571428571429 142.14285714285717 " stroke="black" fill="none" stroke-width="5.0" stroke-linecap="round" stroke-linejoin="round" />
<path d="M 161.42857142857144 131.42857142857144 L 161.42857142857144 131.42857142857144 L 162.14285714285717 131.42857142857144 L 162.8571428571429 131.42857142857144 L 164.28571428571433 130.00000000000006 L 165.71428571428572 129.28571428571433 L 167.14285714285717 128.5714285714286 " stroke="black" fill="none" stroke-width="5.0" stroke-linecap="round" stroke-linejoin="round" />
<path d="M 162.14285714285717 137.14285714285717 L 162.14285714285717 137.14285714285717 L 162.14285714285717 137.8571428571429 L 162.8571428571429 138.5714285714286 L 164.28571428571433 139.28571428571433 L 166.42857142857144 140.71428571428572 " stroke="black" fill="none" stroke-width="5.0" stroke-linecap="round" stroke-linejoin="round" />
<path d="M 130.00000000000006 165.00000000000006 L 130.00000000000006 165.00000000000006 L 130.71428571428572 165.00000000000006 L 130.71428571428572 164.28571428571433 L 132.14285714285717 164.28571428571433 L 137.14285714285717 163.5714285714286 L 145.00000000000006 162.8571428571429 L 151.42857142857144 162.14285714285717 " stroke="black" fill="none" stroke-width="5.0" stroke-linecap="round" stroke-linejoin="round" />
<path d="M 144.28571428571433 150.00000000000006 L 144.28571428571433 150.00000000000006 L 143.5714285714286 150.00000000000006 L 143.5714285714286 150.00000000000006 L 143.5714285714286 152.14285714285717 L 145.00000000000006 160.00000000000006 L 147.14285714285717 175.00000000000006 L 147.8571428571429 187.8571428571429 L 148.5714285714286 192.14285714285722 L 148.5714285714286 192.14285714285722 " stroke="black" fill="none" stroke-width="5.0" stroke-linecap="round" stroke-linejoin="round" />
<path d="M 145.71428571428572 167.8571428571429 L 145.00000000000006 167.8571428571429 L 143.5714285714286 167.8571428571429 L 142.14285714285717 168.5714285714286 L 140.71428571428572 172.14285714285717 L 137.14285714285717 178.5714285714286 L 132.8571428571429 185.71428571428578 L 130.00000000000006 189.28571428571433 " stroke="black" fill="none" stroke-width="5.0" stroke-linecap="round" stroke-linejoin="round" />
<path d="M 144.28571428571433 174.28571428571433 L 145.71428571428572 173.5714285714286 L 148.5714285714286 173.5714285714286 L 152.8571428571429 175.71428571428578 L 157.14285714285717 177.8571428571429 L 157.8571428571429 178.5714285714286 " stroke="black" fill="none" stroke-width="5.0" stroke-linecap="round" stroke-linejoin="round" />
<path d="M 162.14285714285717 155.00000000000006 L 162.14285714285717 155.00000000000006 L 162.14285714285717 155.00000000000006 L 162.14285714285717 156.42857142857144 L 162.14285714285717 163.5714285714286 L 163.5714285714286 177.14285714285717 L 164.28571428571433 187.8571428571429 L 164.28571428571433 192.14285714285722 L 165.00000000000006 192.14285714285722 " stroke="black" fill="none" stroke-width="5.0" stroke-linecap="round" stroke-linejoin="round" />
<path d="M 165.00000000000006 152.14285714285717 L 165.71428571428572 152.14285714285717 L 165.71428571428572 152.14285714285717 L 167.14285714285717 151.42857142857144 L 169.28571428571433 150.71428571428572 L 172.8571428571429 149.28571428571433 L 175.71428571428578 148.5714285714286 L 177.8571428571429 148.5714285714286 L 180.00000000000006 149.28571428571433 L 182.14285714285717 153.5714285714286 L 183.5714285714286 160.71428571428572 L 186.42857142857144 170.71428571428572 L 188.5714285714286 180.00000000000006 L 189.28571428571433 185.71428571428578 L 190.00000000000006 188.5714285714286 L 189.28571428571433 188.5714285714286 " stroke="black" fill="none" stroke-width="5.0" stroke-linecap="round" stroke-linejoin="round" />
<path d="M 165.71428571428572 165.00000000000006 L 165.71428571428572 165.00000000000006 L 165.71428571428572 165.00000000000006 L 166.42857142857144 165.00000000000006 L 170.00000000000006 165.00000000000006 L 175.71428571428578 164.28571428571433 L 181.42857142857144 162.8571428571429 L 183.5714285714286 162.8571428571429 " stroke="black" fill="none" stroke-width="5.0" stroke-linecap="round" stroke-linejoin="round" />
<path d="M 169.28571428571433 177.14285714285717 L 170.00000000000006 176.42857142857144 L 171.42857142857144 176.42857142857144 L 174.28571428571433 175.71428571428578 L 178.5714285714286 175.00000000000006 L 183.5714285714286 175.00000000000006 L 186.42857142857144 176.42857142857144 " stroke="black" fill="none" stroke-width="5.0" stroke-linecap="round" stroke-linejoin="round" />
<path d="M 165.00000000000006 191.42857142857144 L 165.71428571428572 192.14285714285722 L 167.14285714285717 192.8571428571429 L 171.42857142857144 192.8571428571429 L 178.5714285714286 192.8571428571429 L 185.71428571428578 190.71428571428578 L 187.8571428571429 190.00000000000006 " stroke="black" fill="none" stroke-width="5.0" stroke-linecap="round" stroke-linejoin="round" />
</svg>