<svg xmlns="http://www.w3.org/2000/svg" width="300" height="300" viewBox="0 0 300 300">
<path d="M 133.0 102.0 L 133.0 102.0 L 133.0 102.0 L 134.0 102.0 L 135.0 102.0 L 137.0 102.0 L 144.0 102.0 L 153.0 101.0 L 160.0 101.0 L 163.0 101.0 L 163.0 101.0 " stroke="black" fill="none" stroke-width="5.0" stroke-linecap="round" stroke-linejoin="round" />
<path d="M 118.0 117.0 L 118.0 118.0 L 118.0 120.0 L 118.0 123.0 L 119.0 127.0 L 120.0 131.0 L 120.0 132.0 " stroke="black" fill="none" stroke-width="5.0" stroke-linecap="round" stroke-linejoin="round" />
<path d="M 119.0 118.0 L 119.0 118.0 L 119.0 118.0 L 119.0 118.0 L 123.0 118.0 L 134.0 116.0 L 149.0 114.0 L 162.0 113.0 L 172.0 113.0 L 177.0 114.0 L 180.0 116.0 L 181.0 118.0 L 182.0 120.0 L 182.0 122.0 L 182.0 126.0 L 181.0 132.0 L 179.0 136.0 " stroke="black" fill="none" stroke-width="5.0" stroke-linecap="round" stroke-linejoin="round" />
<path d="M 146.0 108.0 L 146.0 108.0 L 146.0 108.0 L 146.0 108.0 L 146.0 108.0 L 146.0 109.0 L 146.0 116.0 L 148.0 124.0 L 149.0 132.0 " stroke="black" fill="none" stroke-width="5.0" stroke-linecap="round" stroke-linejoin="round" />
<path d="M 135.0 123.0 L 135.0 123.0 L 135.0 123.0 L 135.0 124.0 L 135.0 124.0 L 137.0 125.0 L 139.0 126.0 " stroke="black" fill="none" stroke-width="5.0" stroke-linecap="round" stroke-linejoin="round" />
<path d="M 129.0 133.0 L 129.0 133.0 L 130.0 133.0 L 131.0 133.0 L 133.0 133.0 L 138.0 133.0 " stroke="black" fill="none" stroke-width="5.0" stroke-linecap="round" stroke-linejoin="round" />
<path d="M 157.0 125.0 L 157.0 125.0 L 157.0 125.0 L 157.0 125.0 L 157.0 125.0 L 158.0 125.0 L 160.0 124.0 L 162.0 123.0 " stroke="black" fill="none" stroke-width="5.0" stroke-linecap="round" stroke-linejoin="round" />
<path d="M 158.0 127.0 L 158.0 128.0 L 158.0 128.0 L 159.0 129.0 L 161.0 130.0 L 163.0 132.0 " stroke="black" fill="none" stroke-width="5.0" stroke-linecap="round" stroke-linejoin="round" />
<path d="M 126.0 149.0 L 126.0 149.0 L 126.0 149.0 L 126.0 149.0 L 128.0 149.0 L 131.0 149.0 L 135.0 149.0 L 137.0 149.0 L 139.0 149.0 L 140.0 149.0 L 140.0 150.0 L 139.0 153.0 L 136.0 157.0 L 132.0 161.0 " stroke="black" fill="none" stroke-width="5.0" stroke-linecap="round" stroke-linejoin="round" />
<path d="M 123.0 161.0 L 123.0 161.0 L 123.0 161.0 L 123.0 161.0 L 124.0 161.0 L 126.0 162.0 L 129.0 164.0 L 130.0 164.0 " stroke="black" fill="none" stroke-width="5.0" stroke-linecap="round" stroke-linejoin="round" />
<path d="M 112.0 166.0 L 112.0 166.0 L 112.0 166.0 L 113.0 167.0 L 116.0 167.0 L 127.0 166.0 L 140.0 164.0 L 149.0 164.0 L 152.0 164.0 L 152.0 164.0 L 150.0 166.0 L 145.0 171.0 L 143.0 174.0 " stroke="black" fill="none" stroke-width="5.0" stroke-linecap="round" stroke-linejoin="round" />
<path d="M 128.0 166.0 L 128.0 166.0 L 128.0 166.0 L 129.0 166.0 L 129.0 166.0 L 130.0 172.0 L 133.0 184.0 L 134.0 197.0 L 134.0 205.0 L 134.0 206.0 L 134.0 206.0 L 127.0 202.0 L 120.0 198.0 " stroke="black" fill="none" stroke-width="5.0" stroke-linecap="round" stroke-linejoin="round" />
<path d="M 129.0 167.0 L 129.0 167.0 L 130.0 167.0 L 130.0 167.0 L 130.0 168.0 L 126.0 174.0 L 117.0 184.0 L 108.0 195.0 L 106.0 197.0 " stroke="black" fill="none" stroke-width="5.0" stroke-linecap="round" stroke-linejoin="round" />
<path d="M 156.0 146.0 L 156.0 146.0 L 156.0 146.0 L 156.0 146.0 L 157.0 146.0 L 157.0 146.0 L 156.0 151.0 L 154.0 158.0 L 152.0 163.0 " stroke="black" fill="none" stroke-width="5.0" stroke-linecap="round" stroke-linejoin="round" />
<path d="M 157.0 152.0 L 157.0 152.0 L 157.0 152.0 L 158.0 152.0 L 160.0 152.0 L 165.0 152.0 L 171.0 152.0 L 175.0 153.0 " stroke="black" fill="none" stroke-width="5.0" stroke-linecap="round" stroke-linejoin="round" />
<path d="M 168.0 154.0 L 168.0 154.0 L 168.0 154.0 L 168.0 154.0 L 168.0 155.0 L 168.0 158.0 L 165.0 165.0 L 160.0 174.0 L 155.0 181.0 " stroke="black" fill="none" stroke-width="5.0" stroke-linecap="round" stroke-linejoin="round" />
<path d="M 156.0 161.0 L 156.0 161.0 L 156.0 161.0 L 156.0 161.0 L 158.0 161.0 L 163.0 164.0 L 171.0 169.0 L 177.0 175.0 L 179.0 177.0 " stroke="black" fill="none" stroke-width="5.0" stroke-linecap="round" stroke-linejoin="round" />
<path d="M 144.0 193.0 L 144.0 193.0 L 144.0 193.0 L 144.0 193.0 L 148.0 193.0 L 157.0 192.0 L 168.0 191.0 L 176.0 190.0 L 180.0 190.0 L 182.0 192.0 L 183.0 194.0 L 184.0 199.0 L 184.0 204.0 L 184.0 209.0 L 184.0 212.0 L 184.0 213.0 L 182.0 214.0 L 176.0 214.0 L 172.0 213.0 " stroke="black" fill="none" stroke-width="5.0" stroke-linecap="round" stroke-linejoin="round" />
<path d="M 164.0 179.0 L 164.0 179.0 L 164.0 179.0 L 164.0 179.0 L 164.0 178.0 L 163.0 181.0 L 158.0 194.0 L 150.0 211.0 " stroke="black" fill="none" stroke-width="5.0" stroke-linecap="round" stroke-linejoin="round" />
</svg>