<svg xmlns="http://www.w3.org/2000/svg" width="300" height="300" viewBox="0 0 300 300">
<path d="M 148.0 100.0 L 148.0 100.0 L 148.0 100.0 L 148.0 99.0 L 148.0 99.0 L 148.0 99.0 L 149.0 102.0 L 151.0 105.0 L 151.0 106.0 " stroke="black" fill="none" stroke-width="5.0" stroke-linecap="round" stroke-linejoin="round" />
<path d="M 130.0 117.0 L 130.0 117.0 L 130.0 118.0 L 130.0 119.0 L 130.0 119.0 L 134.0 119.0 L 144.0 118.0 L 156.0 117.0 L 165.0 116.0 L 170.0 116.0 " stroke="black" fill="none" stroke-width="5.0" stroke-linecap="round" stroke-linejoin="round" />
<path d="M 144.0 120.0 L 144.0 120.0 L 144.0 120.0 L 143.0 120.0 L 143.0 122.0 L 143.0 125.0 L 144.0 131.0 L 146.0 136.0 " stroke="black" fill="none" stroke-width="5.0" stroke-linecap="round" stroke-linejoin="round" />
<path d="M 159.0 121.0 L 159.0 121.0 L 159.0 123.0 L 158.0 126.0 L 158.0 129.0 L 157.0 133.0 L 157.0 134.0 " stroke="black" fill="none" stroke-width="5.0" stroke-linecap="round" stroke-linejoin="round" />
<path d="M 118.0 145.0 L 118.0 145.0 L 118.0 145.0 L 118.0 145.0 L 124.0 144.0 L 137.0 143.0 L 155.0 140.0 L 173.0 138.0 L 182.0 138.0 L 185.0 138.0 L 185.0 139.0 " stroke="black" fill="none" stroke-width="5.0" stroke-linecap="round" stroke-linejoin="round" />
<path d="M 139.0 161.0 L 139.0 161.0 L 139.0 161.0 L 139.0 161.0 L 141.0 161.0 L 147.0 161.0 L 156.0 161.0 L 164.0 160.0 L 169.0 160.0 L 171.0 160.0 L 172.0 160.0 L 172.0 161.0 L 172.0 165.0 L 173.0 172.0 L 175.0 182.0 L 176.0 191.0 L 177.0 196.0 L 178.0 198.0 " stroke="black" fill="none" stroke-width="5.0" stroke-linecap="round" stroke-linejoin="round" />
<path d="M 138.0 160.0 L 138.0 162.0 L 136.0 167.0 L 135.0 173.0 L 134.0 181.0 L 134.0 189.0 L 135.0 190.0 " stroke="black" fill="none" stroke-width="5.0" stroke-linecap="round" stroke-linejoin="round" />
<path d="M 140.0 175.0 L 141.0 175.0 L 143.0 176.0 L 148.0 176.0 L 156.0 176.0 L 164.0 176.0 L 168.0 176.0 L 169.0 176.0 L 169.0 176.0 " stroke="black" fill="none" stroke-width="5.0" stroke-linecap="round" stroke-linejoin="round" />
<path d="M 130.0 197.0 L 130.0 198.0 L 132.0 199.0 L 140.0 200.0 L 154.0 199.0 L 170.0 197.0 L 179.0 196.0 L 181.0 196.0 " stroke="black" fill="none" stroke-width="5.0" stroke-linecap="round" stroke-linejoin="round" />
</svg>