<svg xmlns="http://www.w3.org/2000/svg" width="300" height="300" viewBox="0 0 300 300">
<path d="M 113.0 132.0 L 113.0 132.0 L 114.0 133.0 L 115.0 133.0 L 119.0 133.0 L 126.0 133.0 L 133.0 132.0 " stroke="black" fill="none" stroke-width="5.0" stroke-linecap="round" stroke-linejoin="round" />
<path d="M 112.0 149.0 L 112.0 149.0 L 112.0 149.0 L 112.0 149.0 L 112.0 149.0 L 112.0 151.0 L 112.0 154.0 L 112.0 158.0 L 113.0 161.0 L 118.0 163.0 L 126.0 163.0 L 134.0 163.0 L 138.0 162.0 " stroke="black" fill="none" stroke-width="5.0" stroke-linecap="round" stroke-linejoin="round" />
<path d="M 138.0 147.0 L 138.0 148.0 L 138.0 149.0 L 138.0 152.0 L 138.0 157.0 " stroke="black" fill="none" stroke-width="5.0" stroke-linecap="round" stroke-linejoin="round" />
<path d="M 125.0 119.0 L 125.0 120.0 L 125.0 122.0 L 125.0 125.0 L 124.0 132.0 L 123.0 148.0 L 122.0 169.0 L 122.0 186.0 L 128.0 190.0 L 137.0 184.0 L 139.0 181.0 " stroke="black" fill="none" stroke-width="5.0" stroke-linecap="round" stroke-linejoin="round" />
<path d="M 151.0 113.0 L 151.0 113.0 L 151.0 113.0 L 152.0 113.0 L 154.0 113.0 L 158.0 113.0 L 165.0 112.0 L 169.0 112.0 " stroke="black" fill="none" stroke-width="5.0" stroke-linecap="round" stroke-linejoin="round" />
<path d="M 164.0 115.0 L 164.0 116.0 L 164.0 117.0 L 163.0 119.0 L 159.0 123.0 L 155.0 128.0 L 153.0 131.0 L 152.0 132.0 L 154.0 133.0 L 158.0 133.0 L 163.0 133.0 L 168.0 133.0 L 171.0 133.0 L 174.0 134.0 L 176.0 136.0 L 179.0 143.0 L 182.0 154.0 L 185.0 167.0 L 187.0 177.0 L 189.0 181.0 L 189.0 182.0 " stroke="black" fill="none" stroke-width="5.0" stroke-linecap="round" stroke-linejoin="round" />
<path d="M 153.0 132.0 L 153.0 132.0 L 153.0 134.0 L 152.0 140.0 L 152.0 153.0 L 152.0 165.0 L 152.0 171.0 L 152.0 171.0 " stroke="black" fill="none" stroke-width="5.0" stroke-linecap="round" stroke-linejoin="round" />
<path d="M 155.0 149.0 L 155.0 149.0 L 156.0 149.0 L 158.0 149.0 L 161.0 148.0 L 168.0 148.0 L 175.0 148.0 L 179.0 148.0 L 180.0 148.0 " stroke="black" fill="none" stroke-width="5.0" stroke-linecap="round" stroke-linejoin="round" />
<path d="M 155.0 160.0 L 156.0 160.0 L 156.0 161.0 L 158.0 162.0 L 163.0 162.0 L 171.0 162.0 L 178.0 162.0 " stroke="black" fill="none" stroke-width="5.0" stroke-linecap="round" stroke-linejoin="round" />
<path d="M 153.0 177.0 L 154.0 178.0 L 155.0 178.0 L 158.0 179.0 L 165.0 179.0 L 175.0 180.0 L 182.0 181.0 L 183.0 182.0 " stroke="black" fill="none" stroke-width="5.0" stroke-linecap="round" stroke-linejoin="round" />
<path d="M 164.0 182.0 L 164.0 182.0 L 163.0 183.0 L 161.0 187.0 L 159.0 193.0 L 158.0 199.0 L 157.0 201.0 " stroke="black" fill="none" stroke-width="5.0" stroke-linecap="round" stroke-linejoin="round" />
<path d="M 171.0 188.0 L 172.0 188.0 L 173.0 188.0 L 177.0 190.0 L 183.0 195.0 L 185.0 197.0 " stroke="black" fill="none" stroke-width="5.0" stroke-linecap="round" stroke-linejoin="round" />
</svg>