<svg xmlns="http://www.w3.org/2000/svg" width="300" height="300" viewBox="0 0 300 300">
<path d="M 117.0 115.0 L 117.0 115.0 L 118.0 115.0 L 118.0 115.0 L 118.0 116.0 L 118.0 119.0 L 118.0 126.0 L 117.0 140.0 L 114.0 160.0 L 109.0 182.0 L 104.0 196.0 L 103.0 198.0 " stroke="black" fill="none" stroke-width="5.0" stroke-linecap="round" stroke-linejoin="round" />
<path d="M 119.0 112.0 L 119.0 112.0 L 120.0 112.0 L 120.0 112.0 L 121.0 112.0 L 124.0 111.0 L 131.0 110.0 L 141.0 109.0 L 152.0 109.0 L 161.0 110.0 L 167.0 111.0 L 170.0 113.0 L 171.0 115.0 L 171.0 118.0 L 171.0 124.0 L 171.0 133.0 L 171.0 148.0 L 172.0 164.0 L 174.0 180.0 L 180.0 191.0 L 188.0 197.0 L 195.0 198.0 L 196.0 198.0 " stroke="black" fill="none" stroke-width="5.0" stroke-linecap="round" stroke-linejoin="round" />
<path d="M 138.0 128.0 L 138.0 128.0 L 137.0 128.0 L 136.0 129.0 L 136.0 129.0 L 138.0 129.0 L 143.0 127.0 L 149.0 127.0 L 154.0 126.0 " stroke="black" fill="none" stroke-width="5.0" stroke-linecap="round" stroke-linejoin="round" />
<path d="M 132.0 143.0 L 132.0 143.0 L 132.0 143.0 L 132.0 143.0 L 132.0 145.0 L 133.0 148.0 L 134.0 151.0 " stroke="black" fill="none" stroke-width="5.0" stroke-linecap="round" stroke-linejoin="round" />
<path d="M 133.0 143.0 L 134.0 143.0 L 135.0 142.0 L 138.0 142.0 L 142.0 142.0 L 147.0 142.0 L 152.0 142.0 L 156.0 143.0 L 158.0 146.0 L 158.0 150.0 L 156.0 154.0 " stroke="black" fill="none" stroke-width="5.0" stroke-linecap="round" stroke-linejoin="round" />
<path d="M 134.0 154.0 L 134.0 154.0 L 135.0 155.0 L 139.0 157.0 L 146.0 157.0 L 153.0 157.0 " stroke="black" fill="none" stroke-width="5.0" stroke-linecap="round" stroke-linejoin="round" />
<path d="M 145.0 130.0 L 145.0 130.0 L 145.0 130.0 L 144.0 130.0 L 144.0 133.0 L 144.0 144.0 L 145.0 158.0 L 146.0 169.0 L 146.0 171.0 " stroke="black" fill="none" stroke-width="5.0" stroke-linecap="round" stroke-linejoin="round" />
<path d="M 125.0 182.0 L 126.0 182.0 L 127.0 181.0 L 130.0 181.0 L 136.0 181.0 L 146.0 181.0 L 155.0 182.0 L 159.0 183.0 " stroke="black" fill="none" stroke-width="5.0" stroke-linecap="round" stroke-linejoin="round" />
<path d="M 158.0 174.0 L 159.0 176.0 L 160.0 178.0 L 162.0 183.0 L 165.0 188.0 L 165.0 190.0 " stroke="black" fill="none" stroke-width="5.0" stroke-linecap="round" stroke-linejoin="round" />
</svg>