<svg xmlns="http://www.w3.org/2000/svg" width="300" height="300" viewBox="0 0 300 300">
<path d="M 125.0 118.0 L 126.0 114.0 L 126.0 113.0 L 126.0 114.0 L 125.0 119.0 L 123.0 124.0 L 118.0 132.0 L 111.0 141.0 L 103.0 150.0 L 100.0 153.0 " stroke="black" fill="none" stroke-width="5.0" stroke-linecap="round" stroke-linejoin="round" />
<path d="M 128.0 121.0 L 128.0 121.0 L 129.0 121.0 L 131.0 121.0 L 134.0 125.0 L 139.0 132.0 L 145.0 138.0 L 147.0 140.0 " stroke="black" fill="none" stroke-width="5.0" stroke-linecap="round" stroke-linejoin="round" />
<path d="M 116.0 144.0 L 117.0 144.0 L 118.0 144.0 L 119.0 144.0 L 121.0 144.0 L 124.0 143.0 L 128.0 142.0 L 133.0 142.0 L 137.0 141.0 L 137.0 141.0 " stroke="black" fill="none" stroke-width="5.0" stroke-linecap="round" stroke-linejoin="round" />
<path d="M 114.0 156.0 L 115.0 156.0 L 115.0 157.0 L 117.0 157.0 L 120.0 157.0 L 126.0 156.0 L 132.0 155.0 L 135.0 154.0 L 137.0 154.0 L 138.0 157.0 L 139.0 163.0 L 140.0 177.0 L 140.0 180.0 " stroke="black" fill="none" stroke-width="5.0" stroke-linecap="round" stroke-linejoin="round" />
<path d="M 114.0 168.0 L 114.0 168.0 L 115.0 169.0 L 117.0 170.0 L 121.0 170.0 L 129.0 170.0 L 137.0 169.0 L 140.0 169.0 L 140.0 169.0 " stroke="black" fill="none" stroke-width="5.0" stroke-linecap="round" stroke-linejoin="round" />
<path d="M 108.0 182.0 L 109.0 182.0 L 111.0 183.0 L 116.0 183.0 L 124.0 183.0 L 133.0 181.0 L 137.0 181.0 " stroke="black" fill="none" stroke-width="5.0" stroke-linecap="round" stroke-linejoin="round" />
<path d="M 115.0 161.0 L 116.0 161.0 L 116.0 161.0 L 116.0 162.0 L 116.0 165.0 L 113.0 177.0 L 110.0 193.0 L 108.0 204.0 L 108.0 208.0 L 114.0 207.0 L 122.0 204.0 L 130.0 201.0 L 135.0 199.0 " stroke="black" fill="none" stroke-width="5.0" stroke-linecap="round" stroke-linejoin="round" />
<path d="M 134.0 192.0 L 134.0 195.0 L 135.0 199.0 L 139.0 204.0 L 144.0 207.0 " stroke="black" fill="none" stroke-width="5.0" stroke-linecap="round" stroke-linejoin="round" />
<path d="M 177.0 126.0 L 176.0 130.0 L 175.0 134.0 L 172.0 138.0 L 167.0 144.0 L 163.0 149.0 " stroke="black" fill="none" stroke-width="5.0" stroke-linecap="round" stroke-linejoin="round" />
<path d="M 147.0 166.0 L 147.0 167.0 L 147.0 167.0 L 150.0 167.0 L 163.0 165.0 L 179.0 163.0 L 190.0 161.0 L 191.0 161.0 " stroke="black" fill="none" stroke-width="5.0" stroke-linecap="round" stroke-linejoin="round" />
<path d="M 172.0 143.0 L 172.0 143.0 L 172.0 143.0 L 172.0 143.0 L 171.0 149.0 L 168.0 163.0 L 162.0 183.0 L 155.0 200.0 L 152.0 206.0 " stroke="black" fill="none" stroke-width="5.0" stroke-linecap="round" stroke-linejoin="round" />
<path d="M 166.0 167.0 L 167.0 167.0 L 169.0 168.0 L 174.0 174.0 L 182.0 190.0 L 191.0 205.0 L 196.0 213.0 L 196.0 214.0 " stroke="black" fill="none" stroke-width="5.0" stroke-linecap="round" stroke-linejoin="round" />
</svg>