<svg xmlns="http://www.w3.org/2000/svg" width="300" height="300" viewBox="0 0 300 300">
<path d="M 129.0 104.0 L 129.0 104.0 L 129.0 104.0 L 129.0 104.0 L 129.0 104.0 L 128.0 104.0 L 127.0 106.0 L 124.0 110.0 L 121.0 116.0 L 117.0 121.0 L 115.0 124.0 L 115.0 124.0 L 116.0 124.0 L 120.0 124.0 L 123.0 124.0 L 128.0 123.0 L 132.0 123.0 L 137.0 123.0 L 140.0 122.0 L 142.0 122.0 L 143.0 122.0 L 143.0 123.0 L 143.0 127.0 L 144.0 133.0 L 146.0 139.0 L 147.0 143.0 " stroke="black" fill="none" stroke-width="5.0" stroke-linecap="round" stroke-linejoin="round" />
<path d="M 115.0 137.0 L 115.0 137.0 L 115.0 138.0 L 115.0 139.0 L 118.0 139.0 L 126.0 139.0 L 137.0 139.0 L 142.0 138.0 " stroke="black" fill="none" stroke-width="5.0" stroke-linecap="round" stroke-linejoin="round" />
<path d="M 113.0 131.0 L 114.0 132.0 L 115.0 133.0 L 115.0 136.0 L 115.0 142.0 L 113.0 155.0 L 109.0 174.0 L 104.0 189.0 L 102.0 193.0 " stroke="black" fill="none" stroke-width="5.0" stroke-linecap="round" stroke-linejoin="round" />
<path d="M 125.0 153.0 L 125.0 153.0 L 125.0 153.0 L 125.0 153.0 L 125.0 153.0 L 125.0 154.0 L 123.0 161.0 L 116.0 175.0 L 109.0 189.0 L 107.0 192.0 " stroke="black" fill="none" stroke-width="5.0" stroke-linecap="round" stroke-linejoin="round" />
<path d="M 122.0 168.0 L 122.0 168.0 L 122.0 168.0 L 122.0 172.0 L 124.0 180.0 L 126.0 192.0 L 127.0 200.0 " stroke="black" fill="none" stroke-width="5.0" stroke-linecap="round" stroke-linejoin="round" />
<path d="M 136.0 149.0 L 136.0 150.0 L 136.0 151.0 L 137.0 153.0 L 139.0 155.0 L 140.0 156.0 " stroke="black" fill="none" stroke-width="5.0" stroke-linecap="round" stroke-linejoin="round" />
<path d="M 132.0 164.0 L 132.0 164.0 L 133.0 164.0 L 135.0 165.0 L 139.0 165.0 L 144.0 164.0 L 148.0 163.0 L 149.0 163.0 " stroke="black" fill="none" stroke-width="5.0" stroke-linecap="round" stroke-linejoin="round" />
<path d="M 134.0 176.0 L 134.0 176.0 L 135.0 176.0 L 137.0 176.0 L 139.0 176.0 L 143.0 175.0 L 146.0 175.0 L 146.0 175.0 " stroke="black" fill="none" stroke-width="5.0" stroke-linecap="round" stroke-linejoin="round" />
<path d="M 133.0 186.0 L 135.0 186.0 L 138.0 186.0 L 142.0 186.0 L 147.0 186.0 L 150.0 186.0 " stroke="black" fill="none" stroke-width="5.0" stroke-linecap="round" stroke-linejoin="round" />
<path d="M 130.0 205.0 L 131.0 205.0 L 133.0 206.0 L 138.0 207.0 L 147.0 206.0 L 152.0 206.0 " stroke="black" fill="none" stroke-width="5.0" stroke-linecap="round" stroke-linejoin="round" />
<path d="M 140.0 169.0 L 140.0 170.0 L 141.0 174.0 L 143.0 184.0 L 144.0 196.0 " stroke="black" fill="none" stroke-width="5.0" stroke-linecap="round" stroke-linejoin="round" />
<path d="M 154.0 113.0 L 154.0 113.0 L 154.0 113.0 L 155.0 113.0 L 160.0 113.0 L 168.0 112.0 L 175.0 112.0 L 177.0 112.0 " stroke="black" fill="none" stroke-width="5.0" stroke-linecap="round" stroke-linejoin="round" />
<path d="M 164.0 117.0 L 164.0 118.0 L 164.0 119.0 L 164.0 120.0 L 164.0 121.0 L 162.0 124.0 L 159.0 127.0 L 158.0 131.0 L 158.0 133.0 L 164.0 134.0 L 171.0 133.0 L 177.0 132.0 L 180.0 132.0 L 182.0 132.0 L 184.0 135.0 L 186.0 142.0 L 189.0 152.0 L 191.0 162.0 L 193.0 168.0 L 193.0 169.0 " stroke="black" fill="none" stroke-width="5.0" stroke-linecap="round" stroke-linejoin="round" />
<path d="M 157.0 137.0 L 157.0 137.0 L 158.0 134.0 " stroke="black" fill="none" stroke-width="5.0" stroke-linecap="round" stroke-linejoin="round" />
<path d="M 158.0 131.0 L 158.0 134.0 L 159.0 142.0 L 161.0 155.0 L 162.0 169.0 L 163.0 178.0 L 163.0 179.0 " stroke="black" fill="none" stroke-width="5.0" stroke-linecap="round" stroke-linejoin="round" />
<path d="M 163.0 148.0 L 165.0 148.0 L 168.0 148.0 L 172.0 148.0 L 178.0 148.0 L 184.0 147.0 L 188.0 147.0 L 189.0 147.0 " stroke="black" fill="none" stroke-width="5.0" stroke-linecap="round" stroke-linejoin="round" />
<path d="M 166.0 164.0 L 166.0 164.0 L 166.0 164.0 L 166.0 165.0 L 167.0 165.0 L 169.0 165.0 L 172.0 165.0 L 178.0 164.0 L 183.0 164.0 " stroke="black" fill="none" stroke-width="5.0" stroke-linecap="round" stroke-linejoin="round" />
<path d="M 162.0 179.0 L 163.0 179.0 L 164.0 179.0 L 167.0 179.0 L 172.0 179.0 L 180.0 178.0 L 188.0 177.0 L 193.0 177.0 " stroke="black" fill="none" stroke-width="5.0" stroke-linecap="round" stroke-linejoin="round" />
<path d="M 178.0 183.0 L 178.0 183.0 L 177.0 183.0 L 177.0 184.0 L 176.0 189.0 L 175.0 198.0 L 174.0 207.0 L 174.0 208.0 " stroke="black" fill="none" stroke-width="5.0" stroke-linecap="round" stroke-linejoin="round" />
<path d="M 189.0 184.0 L 190.0 187.0 L 193.0 192.0 L 197.0 199.0 L 200.0 204.0 " stroke="black" fill="none" stroke-width="5.0" stroke-linecap="round" stroke-linejoin="round" />
</svg>