<svg xmlns="http://www.w3.org/2000/svg" width="300" height="300" viewBox="0 0 300 300">
<path d="M 116.0 122.0 L 116.0 123.0 L 116.0 123.0 L 118.0 123.0 L 125.0 123.0 L 134.0 123.0 L 141.0 123.0 L 142.0 123.0 " stroke="black" fill="none" stroke-width="5.0" stroke-linecap="round" stroke-linejoin="round" />
<path d="M 117.0 129.0 L 117.0 130.0 L 116.0 132.0 L 115.0 136.0 L 115.0 145.0 L 115.0 158.0 L 115.0 168.0 L 115.0 172.0 " stroke="black" fill="none" stroke-width="5.0" stroke-linecap="round" stroke-linejoin="round" />
<path d="M 119.0 143.0 L 120.0 143.0 L 121.0 143.0 L 123.0 143.0 L 125.0 143.0 L 129.0 143.0 L 135.0 143.0 L 141.0 143.0 L 145.0 143.0 " stroke="black" fill="none" stroke-width="5.0" stroke-linecap="round" stroke-linejoin="round" />
<path d="M 117.0 158.0 L 117.0 158.0 L 118.0 159.0 L 123.0 159.0 L 133.0 159.0 L 143.0 159.0 L 148.0 159.0 " stroke="black" fill="none" stroke-width="5.0" stroke-linecap="round" stroke-linejoin="round" />
<path d="M 132.0 130.0 L 132.0 130.0 L 132.0 133.0 L 132.0 139.0 L 132.0 151.0 L 135.0 172.0 " stroke="black" fill="none" stroke-width="5.0" stroke-linecap="round" stroke-linejoin="round" />
<path d="M 116.0 171.0 L 116.0 172.0 L 116.0 173.0 L 118.0 174.0 L 125.0 174.0 L 136.0 172.0 L 145.0 170.0 L 150.0 170.0 L 152.0 170.0 L 152.0 171.0 L 152.0 175.0 L 153.0 184.0 L 155.0 194.0 L 156.0 204.0 L 157.0 210.0 L 157.0 212.0 L 155.0 211.0 L 150.0 209.0 L 148.0 208.0 " stroke="black" fill="none" stroke-width="5.0" stroke-linecap="round" stroke-linejoin="round" />
<path d="M 107.0 188.0 L 107.0 188.0 L 107.0 188.0 L 107.0 190.0 L 108.0 193.0 L 109.0 194.0 " stroke="black" fill="none" stroke-width="5.0" stroke-linecap="round" stroke-linejoin="round" />
<path d="M 119.0 185.0 L 119.0 185.0 L 119.0 185.0 L 120.0 186.0 L 121.0 189.0 L 122.0 193.0 L 123.0 195.0 " stroke="black" fill="none" stroke-width="5.0" stroke-linecap="round" stroke-linejoin="round" />
<path d="M 129.0 189.0 L 129.0 189.0 L 129.0 189.0 L 130.0 190.0 L 131.0 192.0 L 131.0 194.0 " stroke="black" fill="none" stroke-width="5.0" stroke-linecap="round" stroke-linejoin="round" />
<path d="M 142.0 189.0 L 142.0 190.0 L 142.0 193.0 L 142.0 197.0 L 144.0 199.0 " stroke="black" fill="none" stroke-width="5.0" stroke-linecap="round" stroke-linejoin="round" />
<path d="M 163.0 126.0 L 162.0 126.0 L 161.0 128.0 L 159.0 131.0 L 156.0 138.0 L 153.0 147.0 L 152.0 149.0 " stroke="black" fill="none" stroke-width="5.0" stroke-linecap="round" stroke-linejoin="round" />
<path d="M 157.0 142.0 L 158.0 141.0 L 158.0 141.0 L 160.0 140.0 L 166.0 139.0 L 173.0 139.0 L 180.0 139.0 L 185.0 139.0 L 187.0 139.0 L 189.0 140.0 L 190.0 143.0 L 190.0 152.0 L 192.0 165.0 L 193.0 181.0 L 194.0 193.0 L 196.0 201.0 L 197.0 205.0 L 197.0 206.0 L 193.0 207.0 L 186.0 206.0 L 179.0 205.0 " stroke="black" fill="none" stroke-width="5.0" stroke-linecap="round" stroke-linejoin="round" />
<path d="M 160.0 164.0 L 160.0 165.0 L 160.0 165.0 L 160.0 166.0 L 160.0 168.0 L 160.0 171.0 L 160.0 174.0 " stroke="black" fill="none" stroke-width="5.0" stroke-linecap="round" stroke-linejoin="round" />
<path d="M 162.0 164.0 L 162.0 164.0 L 163.0 164.0 L 164.0 164.0 L 165.0 163.0 L 168.0 163.0 L 171.0 163.0 L 174.0 166.0 L 176.0 171.0 L 178.0 175.0 L 179.0 178.0 " stroke="black" fill="none" stroke-width="5.0" stroke-linecap="round" stroke-linejoin="round" />
<path d="M 162.0 177.0 L 162.0 177.0 L 162.0 177.0 L 164.0 178.0 L 170.0 178.0 L 178.0 178.0 L 179.0 178.0 " stroke="black" fill="none" stroke-width="5.0" stroke-linecap="round" stroke-linejoin="round" />
</svg>