<svg xmlns="http://www.w3.org/2000/svg" width="300" height="300" viewBox="0 0 300 300">
<path d="M 122.0 115.0 L 122.0 115.0 L 122.0 115.0 L 122.0 115.0 L 122.0 115.0 L 125.0 115.0 L 130.0 115.0 L 136.0 115.0 L 141.0 114.0 L 144.0 114.0 " stroke="black" fill="none" stroke-width="5.0" stroke-linecap="round" stroke-linejoin="round" />
<path d="M 121.0 119.0 L 121.0 119.0 L 121.0 119.0 L 120.0 119.0 L 120.0 121.0 L 120.0 127.0 L 120.0 140.0 L 120.0 154.0 L 120.0 163.0 L 120.0 165.0 L 120.0 165.0 L 120.0 162.0 " stroke="black" fill="none" stroke-width="5.0" stroke-linecap="round" stroke-linejoin="round" />
<path d="M 123.0 132.0 L 123.0 132.0 L 122.0 132.0 L 122.0 132.0 L 125.0 132.0 L 131.0 132.0 L 137.0 132.0 L 141.0 132.0 L 143.0 132.0 " stroke="black" fill="none" stroke-width="5.0" stroke-linecap="round" stroke-linejoin="round" />
<path d="M 122.0 150.0 L 122.0 150.0 L 124.0 151.0 L 126.0 152.0 L 132.0 152.0 L 140.0 152.0 L 145.0 151.0 " stroke="black" fill="none" stroke-width="5.0" stroke-linecap="round" stroke-linejoin="round" />
<path d="M 134.0 118.0 L 134.0 118.0 L 133.0 117.0 L 133.0 117.0 L 133.0 120.0 L 134.0 129.0 L 134.0 142.0 L 135.0 153.0 L 135.0 160.0 L 136.0 163.0 " stroke="black" fill="none" stroke-width="5.0" stroke-linecap="round" stroke-linejoin="round" />
<path d="M 119.0 167.0 L 119.0 168.0 L 119.0 169.0 L 120.0 170.0 L 122.0 171.0 L 127.0 170.0 L 134.0 169.0 L 140.0 168.0 L 144.0 167.0 L 146.0 167.0 L 147.0 169.0 L 147.0 172.0 L 148.0 178.0 L 148.0 185.0 L 149.0 190.0 L 149.0 194.0 L 149.0 196.0 L 148.0 197.0 L 146.0 197.0 L 142.0 196.0 L 135.0 192.0 " stroke="black" fill="none" stroke-width="5.0" stroke-linecap="round" stroke-linejoin="round" />
<path d="M 110.0 181.0 L 110.0 181.0 L 110.0 181.0 L 110.0 182.0 L 111.0 184.0 L 112.0 187.0 " stroke="black" fill="none" stroke-width="5.0" stroke-linecap="round" stroke-linejoin="round" />
<path d="M 120.0 181.0 L 120.0 181.0 L 120.0 181.0 L 120.0 182.0 L 120.0 183.0 L 121.0 184.0 L 121.0 185.0 " stroke="black" fill="none" stroke-width="5.0" stroke-linecap="round" stroke-linejoin="round" />
<path d="M 127.0 177.0 L 127.0 177.0 L 127.0 177.0 L 127.0 177.0 L 127.0 178.0 L 127.0 180.0 L 128.0 183.0 L 129.0 183.0 " stroke="black" fill="none" stroke-width="5.0" stroke-linecap="round" stroke-linejoin="round" />
<path d="M 135.0 178.0 L 135.0 178.0 L 135.0 178.0 L 135.0 178.0 L 136.0 180.0 " stroke="black" fill="none" stroke-width="5.0" stroke-linecap="round" stroke-linejoin="round" />
<path d="M 160.0 133.0 L 160.0 133.0 L 160.0 133.0 L 160.0 133.0 L 159.0 136.0 L 159.0 143.0 L 159.0 155.0 L 159.0 167.0 L 160.0 172.0 L 161.0 173.0 " stroke="black" fill="none" stroke-width="5.0" stroke-linecap="round" stroke-linejoin="round" />
<path d="M 162.0 127.0 L 162.0 127.0 L 163.0 127.0 L 164.0 127.0 L 168.0 127.0 L 175.0 127.0 L 184.0 128.0 L 190.0 129.0 L 195.0 130.0 L 197.0 132.0 L 199.0 137.0 L 200.0 146.0 L 202.0 157.0 L 203.0 167.0 L 204.0 174.0 L 204.0 178.0 L 203.0 179.0 " stroke="black" fill="none" stroke-width="5.0" stroke-linecap="round" stroke-linejoin="round" />
<path d="M 174.0 130.0 L 174.0 131.0 L 174.0 133.0 L 174.0 137.0 L 174.0 145.0 L 174.0 152.0 L 174.0 155.0 " stroke="black" fill="none" stroke-width="5.0" stroke-linecap="round" stroke-linejoin="round" />
<path d="M 189.0 129.0 L 189.0 131.0 L 188.0 133.0 L 188.0 136.0 L 188.0 141.0 L 188.0 148.0 L 190.0 153.0 L 192.0 157.0 L 195.0 158.0 " stroke="black" fill="none" stroke-width="5.0" stroke-linecap="round" stroke-linejoin="round" />
<path d="M 161.0 177.0 L 161.0 177.0 L 161.0 178.0 L 161.0 179.0 L 161.0 180.0 L 167.0 180.0 L 179.0 180.0 L 190.0 180.0 L 198.0 181.0 L 200.0 181.0 L 200.0 181.0 L 199.0 181.0 " stroke="black" fill="none" stroke-width="5.0" stroke-linecap="round" stroke-linejoin="round" />
</svg>