<svg xmlns="http://www.w3.org/2000/svg" width="300" height="300" viewBox="0 0 300 300">
<circle cx="119.0" cy="103.0" r="2.5" fill="black" />
<path d="M 121.0 99.0 L 121.0 99.0 L 121.0 98.0 L 121.0 98.0 L 123.0 98.0 L 129.0 98.0 L 136.0 98.0 L 142.0 98.0 L 143.0 98.0 " stroke="black" fill="none" stroke-width="5.0" stroke-linecap="round" stroke-linejoin="round" />
<path d="M 119.0 100.0 L 119.0 100.0 L 119.0 100.0 L 119.0 100.0 L 119.0 103.0 L 119.0 111.0 L 120.0 119.0 L 121.0 124.0 L 121.0 126.0 " stroke="black" fill="none" stroke-width="5.0" stroke-linecap="round" stroke-linejoin="round" />
<path d="M 122.0 108.0 L 122.0 108.0 L 122.0 108.0 L 123.0 108.0 L 125.0 108.0 L 129.0 108.0 L 134.0 107.0 L 138.0 107.0 L 140.0 107.0 " stroke="black" fill="none" stroke-width="5.0" stroke-linecap="round" stroke-linejoin="round" />
<path d="M 122.0 117.0 L 122.0 117.0 L 122.0 126.0 L 123.0 120.0 L 128.0 118.0 L 135.0 117.0 L 140.0 117.0 L 142.0 117.0 " stroke="black" fill="none" stroke-width="5.0" stroke-linecap="round" stroke-linejoin="round" />
<path d="M 111.0 128.0 L 112.0 128.0 L 115.0 128.0 L 120.0 128.0 L 128.0 127.0 L 138.0 126.0 L 144.0 125.0 L 145.0 125.0 " stroke="black" fill="none" stroke-width="5.0" stroke-linecap="round" stroke-linejoin="round" />
<path d="M 126.0 128.0 L 126.0 129.0 L 125.0 129.0 L 123.0 131.0 L 121.0 133.0 L 118.0 137.0 L 115.0 141.0 L 115.0 145.0 L 120.0 147.0 L 129.0 147.0 L 138.0 146.0 L 143.0 146.0 " stroke="black" fill="none" stroke-width="5.0" stroke-linecap="round" stroke-linejoin="round" />
<path d="M 142.0 140.0 L 141.0 140.0 L 141.0 140.0 L 141.0 141.0 L 144.0 144.0 L 146.0 148.0 " stroke="black" fill="none" stroke-width="5.0" stroke-linecap="round" stroke-linejoin="round" />
<path d="M 168.0 103.0 L 168.0 103.0 L 168.0 104.0 L 168.0 105.0 L 167.0 106.0 L 166.0 108.0 L 164.0 111.0 L 160.0 116.0 " stroke="black" fill="none" stroke-width="5.0" stroke-linecap="round" stroke-linejoin="round" />
<path d="M 178.0 113.0 L 178.0 113.0 L 178.0 113.0 L 178.0 113.0 L 178.0 113.0 L 177.0 113.0 L 175.0 116.0 L 169.0 122.0 L 162.0 129.0 " stroke="black" fill="none" stroke-width="5.0" stroke-linecap="round" stroke-linejoin="round" />
<path d="M 184.0 128.0 L 183.0 129.0 L 182.0 130.0 L 182.0 131.0 L 180.0 133.0 L 175.0 137.0 L 165.0 142.0 " stroke="black" fill="none" stroke-width="5.0" stroke-linecap="round" stroke-linejoin="round" />
<path d="M 122.0 164.0 L 122.0 164.0 L 120.0 164.0 L 119.0 164.0 L 119.0 164.0 L 127.0 164.0 L 142.0 164.0 L 159.0 164.0 L 174.0 163.0 L 182.0 163.0 L 184.0 164.0 " stroke="black" fill="none" stroke-width="5.0" stroke-linecap="round" stroke-linejoin="round" />
<path d="M 141.0 154.0 L 141.0 154.0 L 141.0 154.0 L 141.0 156.0 L 139.0 160.0 L 134.0 169.0 L 127.0 178.0 L 123.0 182.0 " stroke="black" fill="none" stroke-width="5.0" stroke-linecap="round" stroke-linejoin="round" />
<path d="M 167.0 176.0 L 167.0 176.0 L 168.0 177.0 L 169.0 178.0 L 169.0 178.0 L 169.0 178.0 L 166.0 183.0 L 158.0 192.0 L 146.0 204.0 L 130.0 215.0 L 121.0 218.0 " stroke="black" fill="none" stroke-width="5.0" stroke-linecap="round" stroke-linejoin="round" />
<path d="M 136.0 174.0 L 136.0 174.0 L 136.0 176.0 L 140.0 181.0 L 151.0 194.0 L 167.0 206.0 L 183.0 212.0 L 191.0 215.0 " stroke="black" fill="none" stroke-width="5.0" stroke-linecap="round" stroke-linejoin="round" />
</svg>