<svg xmlns="http://www.w3.org/2000/svg" width="300" height="300" viewBox="0 0 300 300">
<path d="M 134.0 104.0 L 134.0 104.0 L 134.0 104.0 L 134.0 104.0 L 133.0 105.0 L 133.0 108.0 L 133.0 113.0 L 133.0 120.0 L 133.0 126.0 L 133.0 129.0 " stroke="black" fill="none" stroke-width="5.0" stroke-linecap="round" stroke-linejoin="round" />
<path d="M 137.0 99.0 L 137.0 99.0 L 137.0 99.0 L 137.0 99.0 L 137.0 99.0 L 140.0 99.0 L 145.0 99.0 L 152.0 99.0 L 158.0 99.0 L 163.0 99.0 L 166.0 99.0 L 168.0 99.0 L 169.0 100.0 L 170.0 104.0 L 170.0 110.0 L 170.0 117.0 L 170.0 124.0 L 170.0 130.0 L 170.0 132.0 " stroke="black" fill="none" stroke-width="5.0" stroke-linecap="round" stroke-linejoin="round" />
<path d="M 150.0 116.0 L 150.0 116.0 L 150.0 116.0 L 150.0 117.0 L 150.0 118.0 L 150.0 120.0 L 150.0 123.0 L 151.0 125.0 L 151.0 126.0 " stroke="black" fill="none" stroke-width="5.0" stroke-linecap="round" stroke-linejoin="round" />
<path d="M 151.0 115.0 L 151.0 115.0 L 152.0 116.0 L 152.0 116.0 L 154.0 116.0 L 157.0 116.0 L 160.0 116.0 L 164.0 116.0 L 166.0 116.0 L 168.0 116.0 L 169.0 116.0 " stroke="black" fill="none" stroke-width="5.0" stroke-linecap="round" stroke-linejoin="round" />
<path d="M 114.0 132.0 L 114.0 132.0 L 114.0 132.0 L 114.0 132.0 L 114.0 132.0 L 115.0 132.0 L 117.0 133.0 L 122.0 133.0 L 129.0 133.0 L 138.0 133.0 L 145.0 133.0 L 151.0 133.0 L 157.0 133.0 L 162.0 133.0 L 166.0 133.0 L 170.0 133.0 L 173.0 133.0 L 175.0 133.0 L 178.0 133.0 L 181.0 133.0 L 184.0 133.0 L 186.0 133.0 L 188.0 133.0 L 190.0 133.0 L 191.0 133.0 L 192.0 133.0 L 192.0 133.0 L 192.0 133.0 L 192.0 133.0 L 192.0 134.0 L 192.0 136.0 L 192.0 139.0 L 192.0 142.0 L 192.0 146.0 L 192.0 150.0 L 192.0 150.0 " stroke="black" fill="none" stroke-width="5.0" stroke-linecap="round" stroke-linejoin="round" />
<path d="M 110.0 135.0 L 110.0 135.0 L 110.0 135.0 L 110.0 135.0 L 111.0 135.0 L 111.0 139.0 L 111.0 145.0 L 111.0 146.0 " stroke="black" fill="none" stroke-width="5.0" stroke-linecap="round" stroke-linejoin="round" />
<path d="M 135.0 150.0 L 135.0 150.0 L 135.0 150.0 L 135.0 150.0 L 135.0 150.0 L 135.0 150.0 L 135.0 152.0 L 135.0 158.0 L 133.0 170.0 L 130.0 183.0 L 129.0 189.0 L 129.0 190.0 " stroke="black" fill="none" stroke-width="5.0" stroke-linecap="round" stroke-linejoin="round" />
<path d="M 137.0 149.0 L 137.0 149.0 L 137.0 149.0 L 137.0 149.0 L 138.0 149.0 L 143.0 149.0 L 148.0 149.0 L 153.0 149.0 L 156.0 149.0 L 159.0 150.0 L 162.0 153.0 L 165.0 158.0 L 169.0 166.0 L 171.0 176.0 L 172.0 185.0 L 173.0 192.0 L 172.0 195.0 L 170.0 197.0 L 167.0 198.0 L 161.0 197.0 L 159.0 197.0 " stroke="black" fill="none" stroke-width="5.0" stroke-linecap="round" stroke-linejoin="round" />
<path d="M 139.0 162.0 L 139.0 163.0 L 139.0 163.0 L 142.0 163.0 L 148.0 163.0 L 155.0 163.0 L 160.0 163.0 L 162.0 164.0 L 162.0 164.0 " stroke="black" fill="none" stroke-width="5.0" stroke-linecap="round" stroke-linejoin="round" />
<path d="M 138.0 178.0 L 139.0 179.0 L 141.0 180.0 L 148.0 180.0 L 158.0 178.0 L 161.0 178.0 " stroke="black" fill="none" stroke-width="5.0" stroke-linecap="round" stroke-linejoin="round" />
</svg>