<svg xmlns="http://www.w3.org/2000/svg" width="300" height="300" viewBox="0 0 300 300">
<path d="M 115.0 118.0 L 115.0 118.0 L 115.0 118.0 L 115.0 118.0 L 116.0 118.0 L 120.0 118.0 L 126.0 118.0 L 130.0 118.0 L 132.0 118.0 " stroke="black" fill="none" stroke-width="5.0" stroke-linecap="round" stroke-linejoin="round" />
<path d="M 114.0 120.0 L 114.0 120.0 L 114.0 120.0 L 114.0 120.0 L 114.0 122.0 L 114.0 127.0 L 114.0 138.0 L 113.0 153.0 L 113.0 164.0 L 113.0 167.0 L 113.0 167.0 " stroke="black" fill="none" stroke-width="5.0" stroke-linecap="round" stroke-linejoin="round" />
<path d="M 115.0 134.0 L 115.0 134.0 L 115.0 134.0 L 115.0 134.0 L 117.0 134.0 L 121.0 134.0 L 127.0 134.0 L 131.0 135.0 L 131.0 135.0 " stroke="black" fill="none" stroke-width="5.0" stroke-linecap="round" stroke-linejoin="round" />
<path d="M 113.0 148.0 L 113.0 148.0 L 114.0 148.0 L 115.0 148.0 L 119.0 148.0 L 127.0 148.0 L 133.0 148.0 " stroke="black" fill="none" stroke-width="5.0" stroke-linecap="round" stroke-linejoin="round" />
<path d="M 122.0 120.0 L 122.0 120.0 L 122.0 120.0 L 122.0 120.0 L 122.0 121.0 L 122.0 127.0 L 124.0 140.0 L 125.0 155.0 L 126.0 164.0 L 127.0 166.0 " stroke="black" fill="none" stroke-width="5.0" stroke-linecap="round" stroke-linejoin="round" />
<path d="M 111.0 166.0 L 111.0 166.0 L 111.0 167.0 L 112.0 168.0 L 116.0 169.0 L 124.0 169.0 L 133.0 167.0 L 139.0 166.0 L 141.0 166.0 L 142.0 169.0 L 142.0 175.0 L 143.0 182.0 L 144.0 190.0 L 145.0 197.0 L 146.0 201.0 L 146.0 203.0 L 143.0 203.0 L 137.0 201.0 L 133.0 199.0 " stroke="black" fill="none" stroke-width="5.0" stroke-linecap="round" stroke-linejoin="round" />
<path d="M 107.0 181.0 L 107.0 181.0 L 107.0 181.0 L 107.0 181.0 L 107.0 182.0 L 107.0 185.0 L 107.0 189.0 L 108.0 190.0 " stroke="black" fill="none" stroke-width="5.0" stroke-linecap="round" stroke-linejoin="round" />
<path d="M 116.0 180.0 L 117.0 180.0 L 117.0 181.0 L 118.0 184.0 L 119.0 188.0 L 119.0 190.0 " stroke="black" fill="none" stroke-width="5.0" stroke-linecap="round" stroke-linejoin="round" />
<path d="M 124.0 180.0 L 124.0 180.0 L 124.0 182.0 L 125.0 184.0 L 125.0 187.0 L 126.0 189.0 " stroke="black" fill="none" stroke-width="5.0" stroke-linecap="round" stroke-linejoin="round" />
<path d="M 133.0 181.0 L 133.0 182.0 L 134.0 185.0 L 136.0 188.0 L 137.0 190.0 " stroke="black" fill="none" stroke-width="5.0" stroke-linecap="round" stroke-linejoin="round" />
<path d="M 156.0 123.0 L 156.0 124.0 L 156.0 127.0 L 156.0 136.0 L 157.0 152.0 L 158.0 168.0 L 158.0 180.0 L 157.0 188.0 L 156.0 191.0 " stroke="black" fill="none" stroke-width="5.0" stroke-linecap="round" stroke-linejoin="round" />
<path d="M 145.0 140.0 L 145.0 140.0 L 145.0 140.0 L 146.0 140.0 L 148.0 139.0 L 152.0 139.0 L 155.0 139.0 L 155.0 139.0 " stroke="black" fill="none" stroke-width="5.0" stroke-linecap="round" stroke-linejoin="round" />
<path d="M 146.0 154.0 L 146.0 154.0 L 147.0 155.0 L 149.0 155.0 L 152.0 155.0 L 153.0 155.0 " stroke="black" fill="none" stroke-width="5.0" stroke-linecap="round" stroke-linejoin="round" />
<path d="M 145.0 167.0 L 145.0 168.0 L 146.0 169.0 L 150.0 170.0 L 156.0 170.0 L 157.0 169.0 " stroke="black" fill="none" stroke-width="5.0" stroke-linecap="round" stroke-linejoin="round" />
<path d="M 167.0 118.0 L 167.0 118.0 L 167.0 118.0 L 167.0 121.0 L 169.0 132.0 L 172.0 154.0 L 174.0 176.0 L 175.0 190.0 L 176.0 197.0 L 177.0 197.0 L 177.0 196.0 " stroke="black" fill="none" stroke-width="5.0" stroke-linecap="round" stroke-linejoin="round" />
<path d="M 171.0 134.0 L 171.0 134.0 L 172.0 134.0 L 172.0 134.0 L 174.0 134.0 L 178.0 134.0 L 182.0 134.0 L 185.0 135.0 L 185.0 136.0 " stroke="black" fill="none" stroke-width="5.0" stroke-linecap="round" stroke-linejoin="round" />
<path d="M 176.0 152.0 L 178.0 152.0 L 180.0 152.0 L 183.0 152.0 L 187.0 152.0 L 190.0 152.0 L 191.0 152.0 " stroke="black" fill="none" stroke-width="5.0" stroke-linecap="round" stroke-linejoin="round" />
<path d="M 176.0 173.0 L 176.0 174.0 L 179.0 175.0 L 183.0 176.0 L 190.0 176.0 L 197.0 176.0 L 199.0 176.0 " stroke="black" fill="none" stroke-width="5.0" stroke-linecap="round" stroke-linejoin="round" />
</svg>