<svg xmlns="http://www.w3.org/2000/svg" width="300" height="300" viewBox="0 0 300 300">
<path d="M 121.0 105.0 L 121.0 105.0 L 122.0 105.0 L 123.0 105.0 L 125.0 105.0 L 129.0 105.0 L 134.0 105.0 L 138.0 105.0 L 141.0 105.0 L 141.0 105.0 " stroke="black" fill="none" stroke-width="5.0" stroke-linecap="round" stroke-linejoin="round" />
<path d="M 120.0 107.0 L 120.0 107.0 L 119.0 107.0 L 119.0 108.0 L 119.0 113.0 L 119.0 121.0 L 119.0 127.0 L 119.0 132.0 L 119.0 133.0 L 119.0 133.0 " stroke="black" fill="none" stroke-width="5.0" stroke-linecap="round" stroke-linejoin="round" />
<path d="M 122.0 115.0 L 123.0 115.0 L 123.0 116.0 L 125.0 116.0 L 127.0 116.0 L 132.0 116.0 L 136.0 116.0 L 140.0 115.0 L 142.0 115.0 L 142.0 115.0 " stroke="black" fill="none" stroke-width="5.0" stroke-linecap="round" stroke-linejoin="round" />
<path d="M 122.0 126.0 L 122.0 126.0 L 122.0 127.0 L 124.0 127.0 L 128.0 127.0 L 135.0 127.0 L 140.0 127.0 L 142.0 127.0 " stroke="black" fill="none" stroke-width="5.0" stroke-linecap="round" stroke-linejoin="round" />
<path d="M 110.0 138.0 L 110.0 138.0 L 110.0 139.0 L 112.0 139.0 L 120.0 139.0 L 132.0 139.0 L 142.0 138.0 L 146.0 137.0 L 147.0 137.0 L 146.0 138.0 " stroke="black" fill="none" stroke-width="5.0" stroke-linecap="round" stroke-linejoin="round" />
<path d="M 127.0 142.0 L 127.0 141.0 L 127.0 140.0 L 127.0 140.0 L 127.0 140.0 L 124.0 143.0 L 121.0 148.0 L 119.0 153.0 L 118.0 156.0 L 119.0 157.0 L 124.0 158.0 L 132.0 158.0 L 138.0 157.0 L 143.0 155.0 L 144.0 155.0 " stroke="black" fill="none" stroke-width="5.0" stroke-linecap="round" stroke-linejoin="round" />
<path d="M 143.0 150.0 L 143.0 150.0 L 144.0 150.0 L 145.0 152.0 L 147.0 155.0 L 149.0 160.0 L 150.0 161.0 " stroke="black" fill="none" stroke-width="5.0" stroke-linecap="round" stroke-linejoin="round" />
<path d="M 161.0 110.0 L 161.0 110.0 L 161.0 110.0 L 161.0 110.0 L 161.0 112.0 L 160.0 115.0 L 157.0 120.0 " stroke="black" fill="none" stroke-width="5.0" stroke-linecap="round" stroke-linejoin="round" />
<path d="M 168.0 119.0 L 168.0 119.0 L 168.0 120.0 L 169.0 120.0 L 169.0 120.0 L 169.0 122.0 L 167.0 125.0 L 164.0 129.0 L 162.0 131.0 " stroke="black" fill="none" stroke-width="5.0" stroke-linecap="round" stroke-linejoin="round" />
<path d="M 177.0 131.0 L 177.0 131.0 L 177.0 133.0 L 177.0 134.0 L 176.0 136.0 L 176.0 139.0 L 173.0 143.0 L 168.0 149.0 L 165.0 151.0 " stroke="black" fill="none" stroke-width="5.0" stroke-linecap="round" stroke-linejoin="round" />
<path d="M 148.0 170.0 L 148.0 170.0 L 148.0 170.0 L 148.0 170.0 L 148.0 170.0 L 150.0 172.0 L 152.0 174.0 " stroke="black" fill="none" stroke-width="5.0" stroke-linecap="round" stroke-linejoin="round" />
<path d="M 124.0 183.0 L 124.0 183.0 L 124.0 183.0 L 124.0 183.0 L 126.0 183.0 L 135.0 183.0 L 148.0 182.0 L 160.0 180.0 L 168.0 179.0 L 171.0 179.0 L 171.0 179.0 L 169.0 180.0 " stroke="black" fill="none" stroke-width="5.0" stroke-linecap="round" stroke-linejoin="round" />
<path d="M 140.0 187.0 L 140.0 187.0 L 140.0 186.0 L 140.0 186.0 L 140.0 186.0 L 140.0 187.0 L 140.0 192.0 L 138.0 200.0 L 136.0 207.0 L 136.0 209.0 " stroke="black" fill="none" stroke-width="5.0" stroke-linecap="round" stroke-linejoin="round" />
<path d="M 145.0 193.0 L 146.0 193.0 L 146.0 193.0 L 148.0 193.0 L 150.0 193.0 L 153.0 193.0 L 158.0 193.0 L 159.0 193.0 L 166.0 195.0 L 170.0 197.0 L 173.0 201.0 L 175.0 206.0 L 177.0 213.0 L 177.0 217.0 L 177.0 218.0 L 176.0 218.0 L 171.0 218.0 L 165.0 217.0 " stroke="black" fill="none" stroke-width="5.0" stroke-linecap="round" stroke-linejoin="round" />
</svg>