<svg xmlns="http://www.w3.org/2000/svg" width="300" height="300" viewBox="0 0 300 300">
<path d="M 110.71428571428574 110.00000000000001 L 110.71428571428574 110.00000000000001 L 110.71428571428574 110.00000000000001 L 112.85714285714288 110.00000000000001 L 118.5714285714286 110.00000000000001 L 127.85714285714288 110.00000000000001 L 135.71428571428572 110.00000000000001 " stroke="black" fill="none" stroke-width="5.0" stroke-linecap="round" stroke-linejoin="round" />
<path d="M 110.71428571428574 115.71428571428574 L 110.71428571428574 115.71428571428574 L 110.00000000000001 115.71428571428574 L 110.00000000000001 117.85714285714288 L 110.00000000000001 125.00000000000001 L 110.00000000000001 136.42857142857144 L 110.00000000000001 149.28571428571433 L 110.00000000000001 158.5714285714286 L 109.28571428571432 164.28571428571433 L 109.28571428571432 164.28571428571433 " stroke="black" fill="none" stroke-width="5.0" stroke-linecap="round" stroke-linejoin="round" />
<path d="M 115.00000000000001 128.5714285714286 L 115.00000000000001 128.5714285714286 L 115.00000000000001 128.5714285714286 L 115.00000000000001 128.5714285714286 L 115.00000000000001 128.5714285714286 L 117.14285714285718 128.5714285714286 L 122.14285714285718 128.5714285714286 L 128.5714285714286 128.5714285714286 L 130.00000000000006 128.5714285714286 " stroke="black" fill="none" stroke-width="5.0" stroke-linecap="round" stroke-linejoin="round" />
<path d="M 114.28571428571432 145.71428571428572 L 114.28571428571432 145.71428571428572 L 114.28571428571432 145.71428571428572 L 117.14285714285718 145.71428571428572 L 125.00000000000001 145.71428571428572 L 134.28571428571433 145.71428571428572 L 137.8571428571429 145.71428571428572 " stroke="black" fill="none" stroke-width="5.0" stroke-linecap="round" stroke-linejoin="round" />
<path d="M 125.71428571428574 116.42857142857146 L 125.71428571428574 116.42857142857146 L 125.71428571428574 116.42857142857146 L 125.71428571428574 117.14285714285718 L 125.71428571428574 120.71428571428574 L 127.14285714285718 130.71428571428572 L 127.85714285714288 145.71428571428572 L 127.85714285714288 157.14285714285717 L 127.85714285714288 159.28571428571433 " stroke="black" fill="none" stroke-width="5.0" stroke-linecap="round" stroke-linejoin="round" />
<path d="M 114.28571428571432 164.28571428571433 L 114.28571428571432 164.28571428571433 L 115.00000000000001 164.28571428571433 L 115.71428571428574 164.28571428571433 L 117.85714285714288 165.00000000000006 L 120.71428571428574 165.00000000000006 L 126.42857142857146 164.28571428571433 L 132.14285714285717 163.5714285714286 L 136.42857142857144 162.8571428571429 L 139.28571428571433 162.8571428571429 L 140.71428571428572 164.28571428571433 L 141.42857142857144 167.8571428571429 L 142.14285714285717 172.14285714285717 L 142.8571428571429 177.14285714285717 L 144.28571428571433 182.8571428571429 L 144.28571428571433 187.14285714285717 L 144.28571428571433 191.42857142857144 L 143.5714285714286 193.5714285714286 L 140.71428571428572 193.5714285714286 L 135.00000000000006 193.5714285714286 L 132.8571428571429 193.5714285714286 " stroke="black" fill="none" stroke-width="5.0" stroke-linecap="round" stroke-linejoin="round" />
<path d="M 103.5714285714286 176.42857142857144 L 103.5714285714286 176.42857142857144 L 102.85714285714288 176.42857142857144 L 102.14285714285715 177.14285714285717 L 102.14285714285715 180.71428571428578 L 103.5714285714286 184.28571428571433 " stroke="black" fill="none" stroke-width="5.0" stroke-linecap="round" stroke-linejoin="round" />
<path d="M 113.5714285714286 177.8571428571429 L 113.5714285714286 177.8571428571429 L 113.5714285714286 179.28571428571433 L 112.85714285714288 180.71428571428578 L 113.5714285714286 182.8571428571429 L 114.28571428571432 185.00000000000006 " stroke="black" fill="none" stroke-width="5.0" stroke-linecap="round" stroke-linejoin="round" />
<path d="M 117.85714285714288 177.8571428571429 L 117.85714285714288 177.8571428571429 L 117.85714285714288 177.8571428571429 L 117.85714285714288 178.5714285714286 L 118.5714285714286 180.00000000000006 L 119.28571428571432 182.8571428571429 L 120.00000000000001 185.71428571428578 " stroke="black" fill="none" stroke-width="5.0" stroke-linecap="round" stroke-linejoin="round" />
<path d="M 125.00000000000001 180.00000000000006 L 125.71428571428574 180.00000000000006 L 126.42857142857146 181.42857142857144 L 127.14285714285718 182.8571428571429 L 127.85714285714288 184.28571428571433 " stroke="black" fill="none" stroke-width="5.0" stroke-linecap="round" stroke-linejoin="round" />
<path d="M 151.42857142857144 108.5714285714286 L 151.42857142857144 108.5714285714286 L 151.42857142857144 108.5714285714286 L 151.42857142857144 108.5714285714286 L 152.14285714285717 108.5714285714286 L 155.71428571428572 108.5714285714286 L 162.14285714285717 109.28571428571432 L 163.5714285714286 109.28571428571432 " stroke="black" fill="none" stroke-width="5.0" stroke-linecap="round" stroke-linejoin="round" />
<path d="M 147.8571428571429 118.5714285714286 L 147.8571428571429 118.5714285714286 L 147.14285714285717 118.5714285714286 L 147.14285714285717 118.5714285714286 L 147.14285714285717 118.5714285714286 L 147.14285714285717 120.71428571428574 L 147.14285714285717 125.71428571428574 L 147.14285714285717 131.42857142857144 L 147.8571428571429 132.14285714285717 " stroke="black" fill="none" stroke-width="5.0" stroke-linecap="round" stroke-linejoin="round" />
<path d="M 148.5714285714286 117.14285714285718 L 148.5714285714286 117.14285714285718 L 148.5714285714286 117.14285714285718 L 148.5714285714286 117.14285714285718 L 148.5714285714286 117.14285714285718 L 151.42857142857144 116.42857142857146 L 155.71428571428572 116.42857142857146 L 160.00000000000006 116.42857142857146 L 163.5714285714286 117.14285714285718 L 166.42857142857144 117.85714285714288 L 169.28571428571433 120.00000000000001 L 170.71428571428572 122.85714285714288 L 170.71428571428572 126.42857142857146 L 170.71428571428572 130.00000000000006 L 170.71428571428572 131.42857142857144 " stroke="black" fill="none" stroke-width="5.0" stroke-linecap="round" stroke-linejoin="round" />
<path d="M 157.14285714285717 122.85714285714288 L 157.14285714285717 122.85714285714288 L 157.8571428571429 122.85714285714288 L 158.5714285714286 124.28571428571432 L 160.71428571428572 125.71428571428574 " stroke="black" fill="none" stroke-width="5.0" stroke-linecap="round" stroke-linejoin="round" />
<path d="M 175.00000000000006 111.42857142857146 L 175.00000000000006 111.42857142857146 L 175.00000000000006 111.42857142857146 L 175.71428571428578 111.42857142857146 L 176.42857142857144 110.71428571428574 L 180.00000000000006 110.71428571428574 L 185.71428571428578 110.71428571428574 L 190.71428571428578 111.42857142857146 L 192.8571428571429 112.14285714285718 " stroke="black" fill="none" stroke-width="5.0" stroke-linecap="round" stroke-linejoin="round" />
<path d="M 177.8571428571429 120.71428571428574 L 177.8571428571429 120.71428571428574 L 177.14285714285717 120.71428571428574 L 177.14285714285717 120.71428571428574 L 177.14285714285717 122.85714285714288 L 177.14285714285717 127.14285714285718 L 177.8571428571429 132.14285714285717 L 178.5714285714286 134.28571428571433 " stroke="black" fill="none" stroke-width="5.0" stroke-linecap="round" stroke-linejoin="round" />
<path d="M 178.5714285714286 120.71428571428574 L 178.5714285714286 120.71428571428574 L 179.28571428571433 120.00000000000001 L 180.00000000000006 120.00000000000001 L 181.42857142857144 119.28571428571432 L 184.28571428571433 119.28571428571432 L 188.5714285714286 119.28571428571432 L 192.14285714285722 120.00000000000001 L 195.00000000000006 123.5714285714286 L 196.4285714285715 128.5714285714286 L 196.4285714285715 132.8571428571429 L 196.4285714285715 134.28571428571433 " stroke="black" fill="none" stroke-width="5.0" stroke-linecap="round" stroke-linejoin="round" />
<path d="M 185.00000000000006 123.5714285714286 L 185.00000000000006 123.5714285714286 L 185.00000000000006 126.42857142857146 L 186.42857142857144 128.5714285714286 L 187.14285714285717 130.71428571428572 " stroke="black" fill="none" stroke-width="5.0" stroke-linecap="round" stroke-linejoin="round" />
<path d="M 169.28571428571433 139.28571428571433 L 169.28571428571433 139.28571428571433 L 170.00000000000006 139.28571428571433 L 171.42857142857144 139.28571428571433 L 172.8571428571429 140.00000000000006 " stroke="black" fill="none" stroke-width="5.0" stroke-linecap="round" stroke-linejoin="round" />
<path d="M 150.00000000000006 145.71428571428572 L 150.00000000000006 145.71428571428572 L 150.71428571428572 145.71428571428572 L 152.8571428571429 145.00000000000006 L 158.5714285714286 145.00000000000006 L 170.71428571428572 144.28571428571433 L 183.5714285714286 143.5714285714286 L 191.42857142857144 143.5714285714286 L 193.5714285714286 143.5714285714286 L 194.28571428571433 143.5714285714286 " stroke="black" fill="none" stroke-width="5.0" stroke-linecap="round" stroke-linejoin="round" />
<path d="M 152.8571428571429 147.8571428571429 L 152.8571428571429 147.8571428571429 L 152.14285714285717 148.5714285714286 L 151.42857142857144 152.14285714285717 L 151.42857142857144 163.5714285714286 L 151.42857142857144 180.00000000000006 L 150.00000000000006 190.71428571428578 L 149.28571428571433 195.00000000000006 " stroke="black" fill="none" stroke-width="5.0" stroke-linecap="round" stroke-linejoin="round" />
<path d="M 158.5714285714286 155.00000000000006 L 158.5714285714286 155.00000000000006 L 158.5714285714286 155.71428571428572 L 158.5714285714286 155.71428571428572 L 160.00000000000006 155.71428571428572 L 165.00000000000006 155.00000000000006 L 172.14285714285717 153.5714285714286 L 178.5714285714286 153.5714285714286 L 182.14285714285717 153.5714285714286 L 184.28571428571433 154.28571428571433 L 185.00000000000006 155.71428571428572 L 185.71428571428578 159.28571428571433 L 185.71428571428578 163.5714285714286 L 185.71428571428578 164.28571428571433 " stroke="black" fill="none" stroke-width="5.0" stroke-linecap="round" stroke-linejoin="round" />
<path d="M 155.00000000000006 163.5714285714286 L 155.00000000000006 163.5714285714286 L 156.42857142857144 164.28571428571433 L 159.28571428571433 164.28571428571433 L 165.71428571428572 164.28571428571433 L 176.42857142857144 164.28571428571433 L 184.28571428571433 163.5714285714286 L 186.42857142857144 163.5714285714286 " stroke="black" fill="none" stroke-width="5.0" stroke-linecap="round" stroke-linejoin="round" />
<path d="M 163.5714285714286 147.14285714285717 L 163.5714285714286 147.14285714285717 L 163.5714285714286 147.14285714285717 L 163.5714285714286 148.5714285714286 L 164.28571428571433 153.5714285714286 L 166.42857142857144 159.28571428571433 L 166.42857142857144 160.00000000000006 " stroke="black" fill="none" stroke-width="5.0" stroke-linecap="round" stroke-linejoin="round" />
<path d="M 175.71428571428578 145.00000000000006 L 175.71428571428578 145.00000000000006 L 175.71428571428578 145.00000000000006 L 175.71428571428578 147.14285714285717 L 176.42857142857144 152.8571428571429 L 176.42857142857144 154.28571428571433 " stroke="black" fill="none" stroke-width="5.0" stroke-linecap="round" stroke-linejoin="round" />
<path d="M 162.14285714285717 166.42857142857144 L 162.14285714285717 167.14285714285717 L 161.42857142857144 167.8571428571429 L 161.42857142857144 169.28571428571433 L 160.71428571428572 173.5714285714286 L 160.00000000000006 180.00000000000006 L 160.00000000000006 189.28571428571433 L 162.14285714285717 194.28571428571433 L 166.42857142857144 195.71428571428578 L 172.14285714285717 192.8571428571429 " stroke="black" fill="none" stroke-width="5.0" stroke-linecap="round" stroke-linejoin="round" />
<path d="M 162.8571428571429 180.00000000000006 L 162.8571428571429 180.00000000000006 L 163.5714285714286 179.28571428571433 L 165.71428571428572 179.28571428571433 L 170.00000000000006 179.28571428571433 L 174.28571428571433 179.28571428571433 " stroke="black" fill="none" stroke-width="5.0" stroke-linecap="round" stroke-linejoin="round" />
<path d="M 181.42857142857144 165.71428571428572 L 181.42857142857144 165.71428571428572 L 181.42857142857144 165.71428571428572 L 180.71428571428578 166.42857142857144 L 180.71428571428578 168.5714285714286 L 180.71428571428578 176.42857142857144 L 182.14285714285717 187.14285714285717 L 185.71428571428578 195.00000000000006 L 191.42857142857144 197.14285714285722 L 195.71428571428578 194.28571428571433 " stroke="black" fill="none" stroke-width="5.0" stroke-linecap="round" stroke-linejoin="round" />
<path d="M 182.8571428571429 182.14285714285717 L 182.8571428571429 182.14285714285717 L 185.00000000000006 182.14285714285717 L 189.28571428571433 181.42857142857144 L 195.71428571428578 180.71428571428578 L 198.5714285714286 180.00000000000006 " stroke="black" fill="none" stroke-width="5.0" stroke-linecap="round" stroke-linejoin="round" />
</svg>