<svg xmlns="http://www.w3.org/2000/svg" width="300" height="300" viewBox="0 0 300 300">
<path d="M 118.0 105.0 L 119.0 105.0 L 120.0 105.0 L 121.0 105.0 L 125.0 105.0 L 131.0 104.0 L 139.0 103.0 L 145.0 101.0 L 147.0 101.0 " stroke="black" fill="none" stroke-width="5.0" stroke-linecap="round" stroke-linejoin="round" />
<path d="M 121.0 108.0 L 121.0 108.0 L 121.0 108.0 L 120.0 109.0 L 120.0 111.0 L 120.0 116.0 L 120.0 122.0 L 120.0 127.0 L 120.0 129.0 L 120.0 129.0 " stroke="black" fill="none" stroke-width="5.0" stroke-linecap="round" stroke-linejoin="round" />
<path d="M 124.0 113.0 L 124.0 113.0 L 124.0 113.0 L 125.0 114.0 L 127.0 114.0 L 131.0 114.0 L 136.0 114.0 L 141.0 114.0 L 143.0 114.0 L 144.0 114.0 " stroke="black" fill="none" stroke-width="5.0" stroke-linecap="round" stroke-linejoin="round" />
<path d="M 120.0 123.0 L 121.0 123.0 L 122.0 124.0 L 123.0 124.0 L 126.0 125.0 L 131.0 125.0 L 137.0 123.0 L 142.0 122.0 " stroke="black" fill="none" stroke-width="5.0" stroke-linecap="round" stroke-linejoin="round" />
<path d="M 110.0 137.0 L 111.0 137.0 L 113.0 137.0 L 118.0 136.0 L 128.0 134.0 L 139.0 132.0 L 148.0 131.0 L 150.0 131.0 " stroke="black" fill="none" stroke-width="5.0" stroke-linecap="round" stroke-linejoin="round" />
<path d="M 122.0 137.0 L 122.0 137.0 L 122.0 137.0 L 121.0 137.0 L 120.0 137.0 L 119.0 139.0 L 117.0 142.0 L 116.0 145.0 L 116.0 147.0 L 122.0 148.0 L 131.0 147.0 L 140.0 145.0 L 143.0 144.0 " stroke="black" fill="none" stroke-width="5.0" stroke-linecap="round" stroke-linejoin="round" />
<path d="M 141.0 139.0 L 141.0 139.0 L 141.0 139.0 L 143.0 140.0 L 145.0 144.0 L 148.0 150.0 L 149.0 152.0 " stroke="black" fill="none" stroke-width="5.0" stroke-linecap="round" stroke-linejoin="round" />
<path d="M 165.0 106.0 L 165.0 106.0 L 165.0 106.0 L 164.0 107.0 L 163.0 109.0 L 161.0 111.0 L 159.0 114.0 " stroke="black" fill="none" stroke-width="5.0" stroke-linecap="round" stroke-linejoin="round" />
<path d="M 169.0 118.0 L 169.0 118.0 L 169.0 119.0 L 169.0 120.0 L 167.0 122.0 L 164.0 126.0 L 163.0 128.0 " stroke="black" fill="none" stroke-width="5.0" stroke-linecap="round" stroke-linejoin="round" />
<path d="M 178.0 128.0 L 178.0 129.0 L 178.0 130.0 L 178.0 132.0 L 178.0 134.0 L 176.0 137.0 L 171.0 141.0 " stroke="black" fill="none" stroke-width="5.0" stroke-linecap="round" stroke-linejoin="round" />
<path d="M 120.0 166.0 L 120.0 166.0 L 120.0 167.0 L 120.0 167.0 L 121.0 168.0 L 128.0 168.0 L 140.0 168.0 L 154.0 167.0 L 166.0 165.0 L 173.0 164.0 L 175.0 163.0 L 176.0 163.0 L 175.0 163.0 L 174.0 163.0 " stroke="black" fill="none" stroke-width="5.0" stroke-linecap="round" stroke-linejoin="round" />
<path d="M 136.0 182.0 L 136.0 182.0 L 138.0 182.0 L 141.0 182.0 L 148.0 182.0 L 156.0 180.0 L 165.0 179.0 L 170.0 178.0 L 170.0 178.0 " stroke="black" fill="none" stroke-width="5.0" stroke-linecap="round" stroke-linejoin="round" />
<path d="M 149.0 161.0 L 149.0 161.0 L 149.0 162.0 L 149.0 165.0 L 149.0 172.0 L 150.0 182.0 " stroke="black" fill="none" stroke-width="5.0" stroke-linecap="round" stroke-linejoin="round" />
<path d="M 125.0 194.0 L 125.0 194.0 L 125.0 195.0 L 125.0 197.0 L 125.0 201.0 L 126.0 206.0 L 127.0 209.0 " stroke="black" fill="none" stroke-width="5.0" stroke-linecap="round" stroke-linejoin="round" />
<path d="M 127.0 194.0 L 127.0 194.0 L 127.0 194.0 L 127.0 194.0 L 132.0 194.0 L 142.0 193.0 L 154.0 192.0 L 164.0 192.0 L 170.0 192.0 L 173.0 194.0 L 173.0 198.0 L 174.0 203.0 L 175.0 207.0 L 175.0 210.0 L 175.0 211.0 " stroke="black" fill="none" stroke-width="5.0" stroke-linecap="round" stroke-linejoin="round" />
<path d="M 135.0 210.0 L 135.0 210.0 L 135.0 210.0 L 136.0 210.0 L 142.0 210.0 L 152.0 210.0 L 163.0 210.0 L 172.0 210.0 L 175.0 210.0 " stroke="black" fill="none" stroke-width="5.0" stroke-linecap="round" stroke-linejoin="round" />
</svg>