<svg xmlns="http://www.w3.org/2000/svg" width="300" height="300" viewBox="0 0 300 300">
<path d="M 126.0 104.0 L 126.0 103.0 L 127.0 103.0 L 127.0 103.0 L 127.0 103.0 L 125.0 108.0 L 120.0 116.0 L 115.0 123.0 " stroke="black" fill="none" stroke-width="5.0" stroke-linecap="round" stroke-linejoin="round" />
<path d="M 122.0 116.0 L 124.0 116.0 L 124.0 116.0 L 126.0 116.0 L 130.0 116.0 L 133.0 116.0 L 135.0 116.0 L 137.0 116.0 L 139.0 117.0 L 139.0 120.0 L 135.0 126.0 L 127.0 137.0 L 124.0 140.0 " stroke="black" fill="none" stroke-width="5.0" stroke-linecap="round" stroke-linejoin="round" />
<path d="M 111.0 142.0 L 111.0 142.0 L 111.0 142.0 L 111.0 143.0 L 111.0 143.0 L 111.0 147.0 L 111.0 152.0 L 111.0 159.0 L 110.0 167.0 L 110.0 170.0 L 110.0 170.0 " stroke="black" fill="none" stroke-width="5.0" stroke-linecap="round" stroke-linejoin="round" />
<path d="M 110.0 143.0 L 110.0 143.0 L 111.0 143.0 L 112.0 143.0 L 113.0 143.0 L 115.0 143.0 L 121.0 143.0 L 128.0 143.0 L 133.0 143.0 L 137.0 143.0 L 141.0 144.0 L 142.0 146.0 L 143.0 150.0 L 144.0 156.0 L 146.0 168.0 L 147.0 176.0 L 147.0 177.0 " stroke="black" fill="none" stroke-width="5.0" stroke-linecap="round" stroke-linejoin="round" />
<path d="M 114.0 156.0 L 115.0 156.0 L 116.0 156.0 L 117.0 156.0 L 120.0 156.0 L 125.0 156.0 L 132.0 156.0 L 139.0 157.0 " stroke="black" fill="none" stroke-width="5.0" stroke-linecap="round" stroke-linejoin="round" />
<path d="M 125.0 146.0 L 125.0 146.0 L 125.0 146.0 L 126.0 150.0 L 126.0 156.0 L 128.0 169.0 L 128.0 170.0 " stroke="black" fill="none" stroke-width="5.0" stroke-linecap="round" stroke-linejoin="round" />
<path d="M 110.0 173.0 L 110.0 173.0 L 111.0 174.0 L 114.0 175.0 L 118.0 175.0 L 132.0 175.0 L 142.0 175.0 L 146.0 176.0 L 146.0 176.0 " stroke="black" fill="none" stroke-width="5.0" stroke-linecap="round" stroke-linejoin="round" />
<path d="M 108.0 188.0 L 108.0 187.0 L 109.0 187.0 L 109.0 187.0 L 109.0 187.0 L 109.0 191.0 L 108.0 199.0 L 108.0 201.0 " stroke="black" fill="none" stroke-width="5.0" stroke-linecap="round" stroke-linejoin="round" />
<path d="M 122.0 190.0 L 122.0 189.0 L 122.0 189.0 L 122.0 190.0 L 122.0 193.0 L 123.0 197.0 L 124.0 200.0 " stroke="black" fill="none" stroke-width="5.0" stroke-linecap="round" stroke-linejoin="round" />
<path d="M 134.0 190.0 L 134.0 190.0 L 134.0 190.0 L 134.0 190.0 L 134.0 190.0 L 135.0 193.0 L 135.0 196.0 " stroke="black" fill="none" stroke-width="5.0" stroke-linecap="round" stroke-linejoin="round" />
<path d="M 144.0 189.0 L 144.0 189.0 L 144.0 189.0 L 145.0 189.0 L 146.0 193.0 L 147.0 199.0 L 148.0 200.0 " stroke="black" fill="none" stroke-width="5.0" stroke-linecap="round" stroke-linejoin="round" />
<path d="M 160.0 105.0 L 161.0 105.0 L 162.0 105.0 L 163.0 105.0 L 165.0 108.0 L 167.0 111.0 L 168.0 113.0 " stroke="black" fill="none" stroke-width="5.0" stroke-linecap="round" stroke-linejoin="round" />
<path d="M 148.0 120.0 L 148.0 120.0 L 149.0 122.0 L 152.0 122.0 L 156.0 123.0 L 165.0 123.0 L 178.0 122.0 L 185.0 120.0 L 186.0 120.0 " stroke="black" fill="none" stroke-width="5.0" stroke-linecap="round" stroke-linejoin="round" />
<path d="M 152.0 138.0 L 152.0 138.0 L 153.0 138.0 L 153.0 139.0 L 154.0 142.0 L 154.0 148.0 L 155.0 150.0 L 155.0 151.0 " stroke="black" fill="none" stroke-width="5.0" stroke-linecap="round" stroke-linejoin="round" />
<path d="M 153.0 137.0 L 153.0 137.0 L 154.0 137.0 L 155.0 137.0 L 156.0 137.0 L 166.0 136.0 L 172.0 136.0 L 178.0 136.0 L 182.0 137.0 L 186.0 140.0 L 187.0 146.0 L 187.0 148.0 L 187.0 151.0 " stroke="black" fill="none" stroke-width="5.0" stroke-linecap="round" stroke-linejoin="round" />
<path d="M 154.0 153.0 L 154.0 153.0 L 154.0 153.0 L 155.0 153.0 L 156.0 152.0 L 158.0 152.0 L 165.0 153.0 L 176.0 153.0 L 183.0 152.0 L 186.0 152.0 " stroke="black" fill="none" stroke-width="5.0" stroke-linecap="round" stroke-linejoin="round" />
<path d="M 169.0 156.0 L 169.0 155.0 L 169.0 155.0 L 169.0 155.0 L 169.0 155.0 L 173.0 162.0 L 177.0 173.0 L 180.0 184.0 L 182.0 196.0 L 182.0 202.0 L 181.0 203.0 L 178.0 203.0 L 172.0 200.0 L 167.0 196.0 " stroke="black" fill="none" stroke-width="5.0" stroke-linecap="round" stroke-linejoin="round" />
<path d="M 161.0 166.0 L 161.0 166.0 L 161.0 166.0 L 161.0 166.0 L 159.0 174.0 L 157.0 181.0 L 156.0 187.0 " stroke="black" fill="none" stroke-width="5.0" stroke-linecap="round" stroke-linejoin="round" />
<path d="M 186.0 170.0 L 187.0 171.0 L 189.0 173.0 L 191.0 177.0 L 194.0 181.0 L 199.0 189.0 L 201.0 195.0 " stroke="black" fill="none" stroke-width="5.0" stroke-linecap="round" stroke-linejoin="round" />
</svg>