<svg xmlns="http://www.w3.org/2000/svg" width="300" height="300" viewBox="0 0 300 300">
<path d="M 130.0 106.0 L 130.0 106.0 L 130.0 106.0 L 130.0 105.0 L 130.0 105.0 L 129.0 106.0 L 127.0 109.0 L 119.0 118.0 L 113.0 124.0 " stroke="black" fill="none" stroke-width="5.0" stroke-linecap="round" stroke-linejoin="round" />
<path d="M 108.0 137.0 L 108.0 137.0 L 108.0 137.0 L 110.0 137.0 L 114.0 137.0 L 123.0 134.0 L 133.0 131.0 L 139.0 130.0 L 139.0 130.0 " stroke="black" fill="none" stroke-width="5.0" stroke-linecap="round" stroke-linejoin="round" />
<path d="M 124.0 118.0 L 124.0 118.0 L 124.0 118.0 L 124.0 119.0 L 125.0 121.0 L 126.0 128.0 L 127.0 140.0 L 128.0 153.0 L 128.0 160.0 L 128.0 162.0 " stroke="black" fill="none" stroke-width="5.0" stroke-linecap="round" stroke-linejoin="round" />
<path d="M 127.0 137.0 L 127.0 137.0 L 126.0 137.0 L 125.0 138.0 L 123.0 140.0 L 120.0 144.0 L 115.0 150.0 L 110.0 156.0 " stroke="black" fill="none" stroke-width="5.0" stroke-linecap="round" stroke-linejoin="round" />
<path d="M 127.0 141.0 L 129.0 141.0 L 132.0 142.0 L 137.0 144.0 L 144.0 147.0 L 149.0 150.0 " stroke="black" fill="none" stroke-width="5.0" stroke-linecap="round" stroke-linejoin="round" />
<path d="M 122.0 164.0 L 122.0 164.0 L 122.0 164.0 L 122.0 164.0 L 122.0 164.0 L 122.0 167.0 L 121.0 172.0 L 117.0 181.0 L 113.0 188.0 L 111.0 193.0 L 110.0 194.0 L 115.0 195.0 L 123.0 195.0 L 132.0 195.0 L 138.0 196.0 L 139.0 196.0 " stroke="black" fill="none" stroke-width="5.0" stroke-linecap="round" stroke-linejoin="round" />
<path d="M 134.0 170.0 L 134.0 170.0 L 134.0 170.0 L 133.0 171.0 L 133.0 175.0 L 133.0 184.0 L 130.0 195.0 L 128.0 204.0 L 127.0 205.0 " stroke="black" fill="none" stroke-width="5.0" stroke-linecap="round" stroke-linejoin="round" />
<path d="M 110.0 187.0 L 111.0 187.0 L 113.0 186.0 L 117.0 185.0 L 127.0 182.0 L 137.0 179.0 L 142.0 178.0 " stroke="black" fill="none" stroke-width="5.0" stroke-linecap="round" stroke-linejoin="round" />
<path d="M 165.0 112.0 L 165.0 112.0 L 165.0 112.0 L 165.0 112.0 L 165.0 112.0 L 164.0 113.0 L 162.0 116.0 L 158.0 119.0 L 155.0 121.0 L 153.0 123.0 L 152.0 124.0 L 152.0 125.0 L 153.0 129.0 L 154.0 135.0 L 155.0 142.0 L 156.0 147.0 L 157.0 150.0 L 158.0 150.0 " stroke="black" fill="none" stroke-width="5.0" stroke-linecap="round" stroke-linejoin="round" />
<path d="M 156.0 126.0 L 156.0 126.0 L 157.0 126.0 L 158.0 126.0 L 159.0 126.0 L 163.0 126.0 L 169.0 125.0 L 176.0 124.0 L 183.0 123.0 L 187.0 124.0 L 189.0 129.0 L 190.0 137.0 L 191.0 145.0 L 191.0 151.0 L 191.0 153.0 " stroke="black" fill="none" stroke-width="5.0" stroke-linecap="round" stroke-linejoin="round" />
<path d="M 161.0 139.0 L 161.0 140.0 L 162.0 141.0 L 164.0 141.0 L 169.0 141.0 L 177.0 140.0 L 183.0 140.0 L 185.0 140.0 " stroke="black" fill="none" stroke-width="5.0" stroke-linecap="round" stroke-linejoin="round" />
<path d="M 158.0 155.0 L 161.0 156.0 L 165.0 156.0 L 173.0 156.0 L 183.0 154.0 L 187.0 153.0 " stroke="black" fill="none" stroke-width="5.0" stroke-linecap="round" stroke-linejoin="round" />
<path d="M 169.0 134.0 L 169.0 134.0 L 170.0 134.0 L 170.0 135.0 L 170.0 141.0 L 169.0 153.0 L 165.0 169.0 L 160.0 185.0 L 153.0 198.0 L 149.0 206.0 L 148.0 206.0 " stroke="black" fill="none" stroke-width="5.0" stroke-linecap="round" stroke-linejoin="round" />
<path d="M 169.0 166.0 L 169.0 166.0 L 169.0 165.0 L 169.0 165.0 L 169.0 165.0 L 170.0 167.0 L 170.0 174.0 L 170.0 185.0 L 171.0 196.0 L 175.0 203.0 L 184.0 205.0 L 194.0 204.0 L 203.0 201.0 L 208.0 199.0 L 209.0 197.0 L 209.0 197.0 " stroke="black" fill="none" stroke-width="5.0" stroke-linecap="round" stroke-linejoin="round" />
<path d="M 186.0 171.0 L 186.0 171.0 L 185.0 171.0 L 185.0 171.0 L 184.0 172.0 L 183.0 174.0 L 182.0 178.0 L 181.0 181.0 L 181.0 184.0 L 184.0 185.0 L 189.0 185.0 L 194.0 184.0 L 195.0 184.0 " stroke="black" fill="none" stroke-width="5.0" stroke-linecap="round" stroke-linejoin="round" />
<path d="M 196.0 176.0 L 196.0 178.0 L 197.0 179.0 L 198.0 183.0 L 200.0 187.0 L 201.0 190.0 " stroke="black" fill="none" stroke-width="5.0" stroke-linecap="round" stroke-linejoin="round" />
</svg>