<svg xmlns="http://www.w3.org/2000/svg" width="300" height="300" viewBox="0 0 300 300">
<path d="M 114.99999999999999 113.33333333333333 L 114.99999999999999 113.33333333333333 L 114.99999999999999 113.33333333333333 L 115.83333333333333 113.33333333333333 L 119.16666666666667 113.33333333333333 L 125.83333333333333 113.33333333333333 L 130.83333333333331 113.33333333333333 " stroke="black" fill="none" stroke-width="5.0" stroke-linecap="round" stroke-linejoin="round" />
<path d="M 123.33333333333333 97.49999999999999 L 123.33333333333333 96.66666666666667 L 122.49999999999999 96.66666666666667 L 121.66666666666667 95.83333333333333 L 121.66666666666667 99.16666666666667 L 123.33333333333333 109.99999999999999 L 124.99999999999999 125.83333333333333 L 125.83333333333333 140.0 L 126.66666666666667 148.33333333333331 L 126.66666666666667 149.16666666666669 " stroke="black" fill="none" stroke-width="5.0" stroke-linecap="round" stroke-linejoin="round" />
<path d="M 124.16666666666667 119.99999999999999 L 124.16666666666667 119.99999999999999 L 123.33333333333333 119.99999999999999 L 122.49999999999999 119.99999999999999 L 121.66666666666667 121.66666666666667 L 119.16666666666667 125.83333333333333 L 114.99999999999999 132.5 L 110.83333333333333 139.16666666666669 L 109.99999999999999 140.0 " stroke="black" fill="none" stroke-width="5.0" stroke-linecap="round" stroke-linejoin="round" />
<path d="M 124.16666666666667 124.16666666666667 L 124.16666666666667 124.16666666666667 L 124.99999999999999 124.16666666666667 L 126.66666666666667 125.83333333333333 L 133.33333333333331 130.0 L 140.83333333333331 134.16666666666669 L 141.66666666666669 135.0 " stroke="black" fill="none" stroke-width="5.0" stroke-linecap="round" stroke-linejoin="round" />
<path d="M 150.0 97.49999999999999 L 150.0 97.49999999999999 L 150.0 98.33333333333333 L 149.16666666666669 98.33333333333333 L 148.33333333333331 100.83333333333333 L 145.83333333333331 104.99999999999999 L 142.5 110.83333333333333 L 139.16666666666669 114.16666666666667 " stroke="black" fill="none" stroke-width="5.0" stroke-linecap="round" stroke-linejoin="round" />
<path d="M 144.16666666666669 110.83333333333333 L 143.33333333333331 110.83333333333333 L 143.33333333333331 109.99999999999999 L 143.33333333333331 109.16666666666667 L 144.16666666666669 109.16666666666667 L 147.5 109.16666666666667 L 150.83333333333331 109.16666666666667 L 154.16666666666669 109.16666666666667 L 156.66666666666663 109.16666666666667 " stroke="black" fill="none" stroke-width="5.0" stroke-linecap="round" stroke-linejoin="round" />
<path d="M 137.5 122.49999999999999 L 137.5 122.49999999999999 L 137.5 122.49999999999999 L 138.33333333333331 122.49999999999999 L 140.83333333333331 122.49999999999999 L 145.83333333333331 122.49999999999999 L 152.5 122.49999999999999 L 158.33333333333331 122.49999999999999 L 161.66666666666663 122.49999999999999 " stroke="black" fill="none" stroke-width="5.0" stroke-linecap="round" stroke-linejoin="round" />
<path d="M 150.0 109.99999999999999 L 150.0 109.99999999999999 L 150.0 109.99999999999999 L 150.0 112.49999999999999 L 150.0 119.99999999999999 L 150.83333333333331 130.0 L 151.66666666666669 136.66666666666669 " stroke="black" fill="none" stroke-width="5.0" stroke-linecap="round" stroke-linejoin="round" />
<path d="M 141.66666666666669 129.16666666666669 L 141.66666666666669 129.16666666666669 L 141.66666666666669 129.16666666666669 L 142.5 130.0 L 142.5 133.33333333333331 L 143.33333333333331 138.33333333333331 L 144.16666666666669 144.16666666666669 L 146.66666666666669 147.5 L 150.0 148.33333333333331 L 155.83333333333331 147.5 L 160.0 145.83333333333331 L 162.5 144.16666666666669 L 163.33333333333331 140.83333333333331 L 163.33333333333331 139.16666666666669 " stroke="black" fill="none" stroke-width="5.0" stroke-linecap="round" stroke-linejoin="round" />
<path d="M 167.5 117.49999999999999 L 167.5 117.49999999999999 L 167.5 117.49999999999999 L 168.33333333333331 117.49999999999999 L 170.0 118.33333333333333 L 175.0 118.33333333333333 L 180.0 118.33333333333333 " stroke="black" fill="none" stroke-width="5.0" stroke-linecap="round" stroke-linejoin="round" />
<path d="M 173.33333333333331 103.33333333333333 L 172.5 103.33333333333333 L 171.66666666666663 103.33333333333333 L 171.66666666666663 105.83333333333333 L 173.33333333333331 114.16666666666667 L 175.0 126.66666666666667 L 175.83333333333331 137.5 L 175.83333333333331 142.5 " stroke="black" fill="none" stroke-width="5.0" stroke-linecap="round" stroke-linejoin="round" />
<path d="M 176.66666666666663 119.99999999999999 L 175.83333333333331 119.99999999999999 L 174.16666666666663 119.99999999999999 L 173.33333333333331 119.99999999999999 L 170.83333333333331 122.49999999999999 L 166.66666666666663 130.0 L 160.83333333333331 137.5 L 158.33333333333331 140.83333333333331 " stroke="black" fill="none" stroke-width="5.0" stroke-linecap="round" stroke-linejoin="round" />
<path d="M 172.5 127.49999999999999 L 173.33333333333331 127.49999999999999 L 175.0 128.33333333333331 L 178.33333333333331 130.83333333333331 L 182.5 135.0 " stroke="black" fill="none" stroke-width="5.0" stroke-linecap="round" stroke-linejoin="round" />
<path d="M 111.66666666666667 155.83333333333331 L 111.66666666666667 155.83333333333331 L 111.66666666666667 155.83333333333331 L 111.66666666666667 155.83333333333331 L 111.66666666666667 157.5 L 111.66666666666667 160.83333333333331 L 112.49999999999999 165.83333333333331 L 112.49999999999999 166.66666666666663 " stroke="black" fill="none" stroke-width="5.0" stroke-linecap="round" stroke-linejoin="round" />
<path d="M 111.66666666666667 160.0 L 111.66666666666667 160.0 L 111.66666666666667 160.0 L 111.66666666666667 160.0 L 111.66666666666667 160.0 L 114.16666666666667 160.0 L 120.83333333333333 159.16666666666663 L 131.66666666666669 157.5 L 145.0 156.66666666666663 L 154.16666666666669 156.66666666666663 L 161.66666666666663 155.83333333333331 L 168.33333333333331 155.83333333333331 L 173.33333333333331 155.83333333333331 L 176.66666666666663 155.83333333333331 L 178.33333333333331 157.5 L 179.16666666666663 159.16666666666663 L 180.83333333333331 161.66666666666663 L 181.66666666666663 164.16666666666663 L 181.66666666666663 166.66666666666663 L 180.83333333333331 169.16666666666663 " stroke="black" fill="none" stroke-width="5.0" stroke-linecap="round" stroke-linejoin="round" />
<path d="M 128.33333333333331 166.66666666666663 L 128.33333333333331 166.66666666666663 L 128.33333333333331 166.66666666666663 L 128.33333333333331 166.66666666666663 L 128.33333333333331 166.66666666666663 L 128.33333333333331 166.66666666666663 L 128.33333333333331 166.66666666666663 L 128.33333333333331 166.66666666666663 L 128.33333333333331 166.66666666666663 L 130.0 168.33333333333331 L 134.16666666666669 174.16666666666663 L 140.83333333333331 180.0 L 146.66666666666669 184.16666666666663 L 148.33333333333331 185.83333333333331 " stroke="black" fill="none" stroke-width="5.0" stroke-linecap="round" stroke-linejoin="round" />
<path d="M 144.16666666666669 166.66666666666663 L 144.16666666666669 166.66666666666663 L 143.33333333333331 166.66666666666663 L 142.5 167.5 L 141.66666666666669 168.33333333333331 L 140.0 170.0 L 135.83333333333331 174.16666666666663 L 130.0 180.0 L 126.66666666666667 183.33333333333331 " stroke="black" fill="none" stroke-width="5.0" stroke-linecap="round" stroke-linejoin="round" />
<path d="M 135.83333333333331 162.5 L 135.83333333333331 162.5 L 135.83333333333331 163.33333333333331 L 135.83333333333331 164.16666666666663 L 135.83333333333331 165.83333333333331 L 135.83333333333331 166.66666666666663 " stroke="black" fill="none" stroke-width="5.0" stroke-linecap="round" stroke-linejoin="round" />
<path d="M 123.33333333333333 172.5 L 123.33333333333333 172.5 L 124.16666666666667 174.16666666666663 L 124.99999999999999 175.83333333333331 L 126.66666666666667 176.66666666666663 " stroke="black" fill="none" stroke-width="5.0" stroke-linecap="round" stroke-linejoin="round" />
<path d="M 145.83333333333331 173.33333333333331 L 145.83333333333331 174.16666666666663 L 145.83333333333331 175.0 L 145.83333333333331 176.66666666666663 L 145.83333333333331 177.5 " stroke="black" fill="none" stroke-width="5.0" stroke-linecap="round" stroke-linejoin="round" />
<path d="M 134.16666666666669 185.0 L 135.0 186.66666666666663 L 135.83333333333331 188.33333333333331 L 137.5 190.83333333333331 L 138.33333333333331 190.83333333333331 " stroke="black" fill="none" stroke-width="5.0" stroke-linecap="round" stroke-linejoin="round" />
<path d="M 117.49999999999999 173.33333333333331 L 117.49999999999999 172.5 L 117.49999999999999 171.66666666666663 L 118.33333333333333 171.66666666666663 L 118.33333333333333 171.66666666666663 L 118.33333333333333 174.16666666666663 L 118.33333333333333 179.16666666666663 L 118.33333333333333 184.16666666666663 L 118.33333333333333 189.16666666666663 L 121.66666666666667 191.66666666666663 L 127.49999999999999 192.5 L 136.66666666666669 191.66666666666663 L 145.0 190.0 L 150.83333333333331 189.16666666666663 L 153.33333333333331 188.33333333333331 L 153.33333333333331 187.5 L 153.33333333333331 186.66666666666663 " stroke="black" fill="none" stroke-width="5.0" stroke-linecap="round" stroke-linejoin="round" />
<path d="M 127.49999999999999 195.0 L 127.49999999999999 195.0 L 127.49999999999999 195.0 L 127.49999999999999 195.0 L 126.66666666666667 197.5 L 125.83333333333333 202.5 L 124.99999999999999 208.33333333333331 L 127.49999999999999 212.5 L 133.33333333333331 213.33333333333331 L 140.0 210.0 L 144.16666666666669 207.5 " stroke="black" fill="none" stroke-width="5.0" stroke-linecap="round" stroke-linejoin="round" />
<path d="M 130.0 200.83333333333331 L 130.0 200.83333333333331 L 130.0 200.83333333333331 L 132.5 200.83333333333331 L 138.33333333333331 199.16666666666663 L 145.0 197.5 " stroke="black" fill="none" stroke-width="5.0" stroke-linecap="round" stroke-linejoin="round" />
<path d="M 166.66666666666663 170.83333333333331 L 166.66666666666663 171.66666666666663 L 165.83333333333331 172.5 L 165.83333333333331 173.33333333333331 L 164.16666666666663 175.0 L 160.0 177.5 L 159.16666666666663 179.16666666666663 " stroke="black" fill="none" stroke-width="5.0" stroke-linecap="round" stroke-linejoin="round" />
<path d="M 167.5 182.5 L 167.5 182.5 L 167.5 182.5 L 167.5 183.33333333333331 L 167.5 185.0 L 165.0 187.5 L 161.66666666666663 190.83333333333331 " stroke="black" fill="none" stroke-width="5.0" stroke-linecap="round" stroke-linejoin="round" />
<path d="M 177.5 196.66666666666663 L 177.5 197.5 L 176.66666666666663 198.33333333333331 L 175.83333333333331 199.16666666666663 L 174.16666666666663 202.5 L 168.33333333333331 208.33333333333331 L 162.5 212.5 " stroke="black" fill="none" stroke-width="5.0" stroke-linecap="round" stroke-linejoin="round" />
</svg>