<svg xmlns="http://www.w3.org/2000/svg" width="300" height="300" viewBox="0 0 300 300">
<path d="M 123.125 95.625 L 123.125 95.625 L 123.125 95.625 L 124.375 95.625 L 129.375 95.625 L 137.5 95.0 L 142.5 94.375 L 145.0 94.375 " stroke="black" fill="none" stroke-width="5.0" stroke-linecap="round" stroke-linejoin="round" />
<path d="M 121.875 100.625 L 121.25 100.625 L 121.25 100.625 L 120.625 101.25 L 120.625 103.75 L 120.625 111.25 L 121.25 120.625 L 121.875 125.625 L 121.875 126.25 " stroke="black" fill="none" stroke-width="5.0" stroke-linecap="round" stroke-linejoin="round" />
<path d="M 124.375 108.125 L 125.0 108.125 L 125.0 108.125 L 126.25 107.5 L 128.75 106.875 L 134.375 106.25 L 140.0 106.25 L 143.75 106.875 L 145.0 108.125 " stroke="black" fill="none" stroke-width="5.0" stroke-linecap="round" stroke-linejoin="round" />
<path d="M 124.375 115.0 L 124.375 115.0 L 125.0 115.625 L 126.25 116.25 L 131.875 116.25 L 138.125 115.0 L 143.125 114.375 L 143.75 114.375 " stroke="black" fill="none" stroke-width="5.0" stroke-linecap="round" stroke-linejoin="round" />
<path d="M 115.625 126.875 L 116.875 126.875 L 119.375 126.25 L 126.875 124.375 L 137.5 123.125 L 146.875 122.5 L 151.25 122.5 L 151.25 122.5 " stroke="black" fill="none" stroke-width="5.0" stroke-linecap="round" stroke-linejoin="round" />
<path d="M 131.875 127.5 L 131.875 127.5 L 131.25 127.5 L 130.625 127.5 L 129.375 128.125 L 127.5 129.375 L 125.625 131.875 L 123.75 135.0 L 123.125 136.875 L 126.875 137.5 L 133.75 137.5 L 140.625 135.625 L 146.25 134.375 L 146.875 134.375 " stroke="black" fill="none" stroke-width="5.0" stroke-linecap="round" stroke-linejoin="round" />
<path d="M 146.25 130.625 L 146.25 131.25 L 146.875 132.5 L 148.125 134.375 L 150.0 137.5 L 151.25 139.375 " stroke="black" fill="none" stroke-width="5.0" stroke-linecap="round" stroke-linejoin="round" />
<path d="M 160.625 99.375 L 160.625 99.375 L 161.25 99.375 L 161.25 100.0 L 161.25 101.875 L 159.375 104.375 L 157.5 106.25 " stroke="black" fill="none" stroke-width="5.0" stroke-linecap="round" stroke-linejoin="round" />
<path d="M 164.375 108.75 L 165.0 110.0 L 165.0 111.25 L 165.0 112.5 L 162.5 115.0 L 160.0 117.5 " stroke="black" fill="none" stroke-width="5.0" stroke-linecap="round" stroke-linejoin="round" />
<path d="M 171.25 120.0 L 171.25 121.25 L 170.625 122.5 L 170.625 123.75 L 169.375 125.625 L 166.25 128.125 L 165.0 129.375 " stroke="black" fill="none" stroke-width="5.0" stroke-linecap="round" stroke-linejoin="round" />
<path d="M 115.625 150.0 L 115.625 150.0 L 115.625 150.0 L 115.625 150.625 L 116.25 152.5 " stroke="black" fill="none" stroke-width="5.0" stroke-linecap="round" stroke-linejoin="round" />
<path d="M 117.5 150.625 L 117.5 150.625 L 118.125 150.0 L 120.625 150.0 L 125.625 148.75 L 134.375 148.125 L 143.75 146.875 L 151.25 146.25 L 156.875 146.25 L 161.25 146.25 L 165.625 146.25 L 169.375 146.875 L 171.25 148.125 L 171.875 150.625 L 171.875 152.5 L 171.875 155.0 L 171.25 156.25 " stroke="black" fill="none" stroke-width="5.0" stroke-linecap="round" stroke-linejoin="round" />
<path d="M 143.75 140.625 L 143.75 140.625 L 143.75 140.625 L 143.75 140.625 L 143.75 141.25 " stroke="black" fill="none" stroke-width="5.0" stroke-linecap="round" stroke-linejoin="round" />
<path d="M 131.25 158.125 L 131.875 158.125 L 133.75 158.125 L 138.125 156.875 L 145.625 155.0 L 153.125 153.75 L 156.875 153.75 L 157.5 153.75 " stroke="black" fill="none" stroke-width="5.0" stroke-linecap="round" stroke-linejoin="round" />
<path d="M 146.25 156.875 L 146.25 157.5 L 146.25 158.75 L 146.25 160.0 L 146.25 161.875 L 146.25 165.0 L 146.875 166.25 " stroke="black" fill="none" stroke-width="5.0" stroke-linecap="round" stroke-linejoin="round" />
<path d="M 140.0 161.875 L 140.0 161.875 L 139.375 161.875 L 138.75 162.5 L 138.125 163.125 L 136.875 165.0 L 135.625 166.875 " stroke="black" fill="none" stroke-width="5.0" stroke-linecap="round" stroke-linejoin="round" />
<path d="M 158.125 160.625 L 158.125 160.625 L 158.125 161.25 L 158.125 161.875 L 156.875 162.5 L 153.75 164.375 L 147.5 167.5 L 138.125 171.875 L 128.125 175.625 L 122.5 176.25 L 121.875 176.25 " stroke="black" fill="none" stroke-width="5.0" stroke-linecap="round" stroke-linejoin="round" />
<path d="M 146.25 169.375 L 146.25 169.375 L 147.5 169.375 L 149.375 169.375 L 151.875 169.375 L 155.0 168.75 L 158.125 168.125 L 160.0 168.125 L 161.25 168.125 L 162.5 170.0 L 163.75 173.125 L 165.0 178.75 L 166.875 185.0 L 167.5 189.375 L 168.125 191.875 L 168.125 192.5 " stroke="black" fill="none" stroke-width="5.0" stroke-linecap="round" stroke-linejoin="round" />
<path d="M 138.125 173.125 L 138.125 173.125 L 137.5 174.375 L 136.875 176.875 L 137.5 181.875 L 138.125 186.25 L 138.75 190.0 " stroke="black" fill="none" stroke-width="5.0" stroke-linecap="round" stroke-linejoin="round" />
<path d="M 142.5 179.375 L 143.75 179.375 L 146.25 179.375 L 149.375 178.75 L 153.75 177.5 L 158.125 177.5 L 160.625 177.5 L 161.25 178.125 " stroke="black" fill="none" stroke-width="5.0" stroke-linecap="round" stroke-linejoin="round" />
<path d="M 143.125 185.0 L 143.125 185.0 L 143.125 185.625 L 144.375 186.25 L 149.375 186.25 L 157.5 185.0 L 162.5 183.75 " stroke="black" fill="none" stroke-width="5.0" stroke-linecap="round" stroke-linejoin="round" />
<path d="M 140.625 194.375 L 141.25 194.375 L 142.5 194.375 L 146.25 194.375 L 153.125 194.375 L 160.0 194.375 " stroke="black" fill="none" stroke-width="5.0" stroke-linecap="round" stroke-linejoin="round" />
<path d="M 147.5 197.5 L 147.5 197.5 L 147.5 197.5 L 147.5 197.5 L 146.875 197.5 L 146.875 198.75 L 145.625 202.5 " stroke="black" fill="none" stroke-width="5.0" stroke-linecap="round" stroke-linejoin="round" />
<path d="M 159.375 199.375 L 160.625 199.375 L 161.875 199.375 L 165.0 201.25 L 167.5 204.375 L 170.0 208.75 " stroke="black" fill="none" stroke-width="5.0" stroke-linecap="round" stroke-linejoin="round" />
</svg>