<svg xmlns="http://www.w3.org/2000/svg" width="300" height="300" viewBox="0 0 300 300">
<path d="M 120.0 110.0 L 120.0 111.0 L 120.0 111.0 L 119.0 113.0 L 117.0 116.0 L 115.0 120.0 L 112.0 125.0 L 110.0 129.0 " stroke="black" fill="none" stroke-width="5.0" stroke-linecap="round" stroke-linejoin="round" />
<path d="M 116.0 120.0 L 117.0 120.0 L 117.0 120.0 L 119.0 121.0 L 121.0 121.0 L 123.0 121.0 L 125.0 121.0 L 127.0 122.0 L 128.0 126.0 L 128.0 129.0 L 126.0 134.0 L 124.0 138.0 " stroke="black" fill="none" stroke-width="5.0" stroke-linecap="round" stroke-linejoin="round" />
<path d="M 121.0 141.0 L 120.0 141.0 L 120.0 141.0 " stroke="black" fill="none" stroke-width="5.0" stroke-linecap="round" stroke-linejoin="round" />
<path d="M 106.0 147.0 L 106.0 147.0 L 105.0 147.0 L 105.0 147.0 L 105.0 150.0 L 105.0 161.0 L 105.0 168.0 L 106.0 173.0 L 106.0 175.0 L 106.0 175.0 " stroke="black" fill="none" stroke-width="5.0" stroke-linecap="round" stroke-linejoin="round" />
<path d="M 106.0 146.0 L 106.0 145.0 L 106.0 145.0 L 106.0 144.0 L 108.0 144.0 L 111.0 144.0 L 115.0 144.0 L 122.0 144.0 L 127.0 145.0 L 130.0 146.0 L 133.0 148.0 L 135.0 155.0 L 136.0 162.0 L 137.0 169.0 L 137.0 174.0 L 137.0 175.0 L 137.0 175.0 " stroke="black" fill="none" stroke-width="5.0" stroke-linecap="round" stroke-linejoin="round" />
<path d="M 108.0 159.0 L 109.0 159.0 L 110.0 159.0 L 111.0 159.0 L 114.0 159.0 L 121.0 160.0 L 126.0 160.0 L 128.0 160.0 " stroke="black" fill="none" stroke-width="5.0" stroke-linecap="round" stroke-linejoin="round" />
<path d="M 116.0 147.0 L 116.0 147.0 L 116.0 147.0 L 117.0 147.0 L 117.0 150.0 L 119.0 160.0 L 119.0 166.0 " stroke="black" fill="none" stroke-width="5.0" stroke-linecap="round" stroke-linejoin="round" />
<path d="M 106.0 178.0 L 106.0 179.0 L 106.0 181.0 L 108.0 182.0 L 111.0 182.0 L 119.0 181.0 L 128.0 179.0 L 131.0 179.0 " stroke="black" fill="none" stroke-width="5.0" stroke-linecap="round" stroke-linejoin="round" />
<path d="M 105.0 191.0 L 105.0 191.0 L 105.0 190.0 L 105.0 190.0 L 105.0 190.0 L 105.0 195.0 L 105.0 198.0 L 105.0 202.0 L 105.0 203.0 " stroke="black" fill="none" stroke-width="5.0" stroke-linecap="round" stroke-linejoin="round" />
<path d="M 114.0 191.0 L 115.0 191.0 L 115.0 191.0 L 116.0 193.0 L 116.0 195.0 L 116.0 198.0 " stroke="black" fill="none" stroke-width="5.0" stroke-linecap="round" stroke-linejoin="round" />
<path d="M 123.0 191.0 L 123.0 191.0 L 123.0 191.0 L 123.0 191.0 L 123.0 193.0 L 124.0 196.0 L 125.0 199.0 " stroke="black" fill="none" stroke-width="5.0" stroke-linecap="round" stroke-linejoin="round" />
<path d="M 133.0 190.0 L 133.0 190.0 L 133.0 190.0 L 133.0 190.0 L 135.0 193.0 L 137.0 199.0 L 137.0 200.0 " stroke="black" fill="none" stroke-width="5.0" stroke-linecap="round" stroke-linejoin="round" />
<path d="M 153.0 113.0 L 154.0 113.0 L 155.0 113.0 L 155.0 114.0 L 155.0 114.0 L 154.0 116.0 L 152.0 117.0 L 151.0 119.0 L 148.0 120.0 L 147.0 122.0 L 146.0 123.0 L 146.0 129.0 L 146.0 136.0 L 146.0 142.0 L 147.0 150.0 L 147.0 151.0 L 148.0 151.0 " stroke="black" fill="none" stroke-width="5.0" stroke-linecap="round" stroke-linejoin="round" />
<path d="M 147.0 132.0 L 147.0 132.0 L 147.0 133.0 L 148.0 133.0 L 150.0 133.0 L 152.0 134.0 L 157.0 134.0 L 158.0 134.0 " stroke="black" fill="none" stroke-width="5.0" stroke-linecap="round" stroke-linejoin="round" />
<path d="M 171.0 119.0 L 171.0 119.0 L 171.0 119.0 L 171.0 119.0 L 171.0 119.0 L 173.0 119.0 L 176.0 119.0 L 178.0 119.0 L 181.0 120.0 L 184.0 126.0 L 185.0 131.0 L 186.0 137.0 L 188.0 146.0 L 189.0 150.0 L 189.0 150.0 L 189.0 150.0 " stroke="black" fill="none" stroke-width="5.0" stroke-linecap="round" stroke-linejoin="round" />
<path d="M 167.0 136.0 L 167.0 136.0 L 168.0 136.0 L 169.0 136.0 L 174.0 136.0 L 179.0 135.0 L 185.0 135.0 L 186.0 136.0 " stroke="black" fill="none" stroke-width="5.0" stroke-linecap="round" stroke-linejoin="round" />
<path d="M 150.0 153.0 L 150.0 153.0 L 151.0 154.0 L 152.0 154.0 L 163.0 155.0 L 169.0 155.0 L 183.0 154.0 L 187.0 154.0 " stroke="black" fill="none" stroke-width="5.0" stroke-linecap="round" stroke-linejoin="round" />
<path d="M 159.0 161.0 L 159.0 161.0 L 159.0 161.0 L 160.0 161.0 L 160.0 162.0 L 160.0 166.0 L 159.0 172.0 L 157.0 185.0 L 156.0 192.0 L 154.0 197.0 " stroke="black" fill="none" stroke-width="5.0" stroke-linecap="round" stroke-linejoin="round" />
<path d="M 169.0 158.0 L 169.0 158.0 L 169.0 158.0 L 169.0 157.0 L 169.0 159.0 L 171.0 165.0 L 172.0 173.0 L 174.0 187.0 L 178.0 196.0 L 183.0 200.0 L 189.0 201.0 L 195.0 201.0 L 199.0 200.0 L 202.0 197.0 L 203.0 194.0 L 203.0 190.0 L 203.0 183.0 L 203.0 177.0 " stroke="black" fill="none" stroke-width="5.0" stroke-linecap="round" stroke-linejoin="round" />
</svg>