<svg xmlns="http://www.w3.org/2000/svg" width="300" height="300" viewBox="0 0 300 300">
<path d="M 132.14285714285717 95.71428571428574 L 132.14285714285717 95.71428571428574 L 132.14285714285717 96.42857142857146 L 132.14285714285717 97.14285714285715 L 132.14285714285717 97.85714285714288 L 130.71428571428572 100.71428571428574 L 127.14285714285718 105.00000000000001 L 122.14285714285718 110.71428571428574 L 119.28571428571432 114.28571428571432 " stroke="black" fill="none" stroke-width="5.0" stroke-linecap="round" stroke-linejoin="round" />
<path d="M 129.28571428571433 101.42857142857146 L 129.28571428571433 101.42857142857146 L 130.00000000000006 101.42857142857146 L 130.71428571428572 101.42857142857146 L 131.42857142857144 101.42857142857146 L 133.5714285714286 102.14285714285715 L 136.42857142857144 102.85714285714288 L 138.5714285714286 103.5714285714286 L 140.71428571428572 105.71428571428574 L 140.71428571428572 107.85714285714288 L 140.71428571428572 112.14285714285718 L 137.8571428571429 117.85714285714288 L 132.8571428571429 125.00000000000001 L 125.00000000000001 132.8571428571429 L 117.14285714285718 139.28571428571433 L 114.28571428571432 140.71428571428572 " stroke="black" fill="none" stroke-width="5.0" stroke-linecap="round" stroke-linejoin="round" />
<path d="M 126.42857142857146 110.00000000000001 L 126.42857142857146 110.00000000000001 L 126.42857142857146 110.00000000000001 L 127.14285714285718 110.71428571428574 L 128.5714285714286 111.42857142857146 L 130.71428571428572 112.14285714285718 L 132.14285714285717 112.85714285714288 " stroke="black" fill="none" stroke-width="5.0" stroke-linecap="round" stroke-linejoin="round" />
<path d="M 117.85714285714288 122.85714285714288 L 117.85714285714288 122.85714285714288 L 118.5714285714286 122.85714285714288 L 120.71428571428574 122.85714285714288 L 126.42857142857146 122.85714285714288 L 133.5714285714286 122.85714285714288 " stroke="black" fill="none" stroke-width="5.0" stroke-linecap="round" stroke-linejoin="round" />
<path d="M 152.8571428571429 100.71428571428574 L 152.8571428571429 100.71428571428574 L 152.8571428571429 100.71428571428574 L 153.5714285714286 100.71428571428574 L 154.28571428571433 100.71428571428574 L 156.42857142857144 100.71428571428574 L 160.00000000000006 100.71428571428574 L 162.8571428571429 100.71428571428574 L 165.00000000000006 100.71428571428574 L 167.14285714285717 101.42857142857146 L 169.28571428571433 104.28571428571432 L 170.71428571428572 107.85714285714288 L 171.42857142857144 112.85714285714288 L 171.42857142857144 117.14285714285718 L 171.42857142857144 119.28571428571432 L 170.71428571428572 120.00000000000001 L 167.14285714285717 120.00000000000001 L 162.14285714285717 118.5714285714286 L 158.5714285714286 117.14285714285718 " stroke="black" fill="none" stroke-width="5.0" stroke-linecap="round" stroke-linejoin="round" />
<path d="M 152.14285714285717 102.85714285714288 L 152.14285714285717 102.85714285714288 L 152.14285714285717 103.5714285714286 L 152.14285714285717 104.28571428571432 L 152.14285714285717 105.71428571428574 L 152.14285714285717 107.14285714285715 L 152.14285714285717 110.71428571428574 L 152.14285714285717 116.42857142857146 L 152.14285714285717 124.28571428571432 L 152.14285714285717 130.00000000000006 L 154.28571428571433 133.5714285714286 L 157.14285714285717 135.71428571428572 L 162.14285714285717 137.14285714285717 L 167.8571428571429 137.8571428571429 L 174.28571428571433 138.5714285714286 L 179.28571428571433 138.5714285714286 L 182.14285714285717 137.14285714285717 L 184.28571428571433 134.28571428571433 L 184.28571428571433 130.71428571428572 L 184.28571428571433 127.14285714285718 L 184.28571428571433 121.42857142857146 " stroke="black" fill="none" stroke-width="5.0" stroke-linecap="round" stroke-linejoin="round" />
<path d="M 143.5714285714286 141.42857142857144 L 143.5714285714286 141.42857142857144 L 143.5714285714286 141.42857142857144 L 143.5714285714286 142.14285714285717 L 142.8571428571429 142.8571428571429 L 142.14285714285717 144.28571428571433 L 140.71428571428572 147.14285714285717 L 139.28571428571433 150.00000000000006 L 137.8571428571429 151.42857142857144 " stroke="black" fill="none" stroke-width="5.0" stroke-linecap="round" stroke-linejoin="round" />
<path d="M 135.00000000000006 155.00000000000006 L 135.71428571428572 155.00000000000006 L 137.14285714285717 155.00000000000006 L 138.5714285714286 155.00000000000006 L 140.71428571428572 155.00000000000006 L 145.00000000000006 154.28571428571433 L 150.71428571428572 152.8571428571429 L 156.42857142857144 152.14285714285717 L 160.71428571428572 152.14285714285717 L 163.5714285714286 152.14285714285717 L 165.00000000000006 152.8571428571429 L 165.71428571428572 154.28571428571433 L 167.8571428571429 158.5714285714286 L 168.5714285714286 162.8571428571429 L 169.28571428571433 166.42857142857144 L 169.28571428571433 168.5714285714286 " stroke="black" fill="none" stroke-width="5.0" stroke-linecap="round" stroke-linejoin="round" />
<path d="M 139.28571428571433 163.5714285714286 L 139.28571428571433 163.5714285714286 L 139.28571428571433 163.5714285714286 L 140.71428571428572 163.5714285714286 L 145.71428571428572 162.8571428571429 L 152.8571428571429 162.14285714285717 L 159.28571428571433 161.42857142857144 L 163.5714285714286 161.42857142857144 L 163.5714285714286 161.42857142857144 " stroke="black" fill="none" stroke-width="5.0" stroke-linecap="round" stroke-linejoin="round" />
<path d="M 134.28571428571433 174.28571428571433 L 134.28571428571433 174.28571428571433 L 135.71428571428572 175.00000000000006 L 140.00000000000006 175.00000000000006 L 148.5714285714286 173.5714285714286 L 157.8571428571429 172.14285714285717 L 165.00000000000006 171.42857142857144 L 165.71428571428572 171.42857142857144 " stroke="black" fill="none" stroke-width="5.0" stroke-linecap="round" stroke-linejoin="round" />
<path d="M 137.14285714285717 157.8571428571429 L 137.14285714285717 157.8571428571429 L 136.42857142857144 157.8571428571429 L 135.71428571428572 158.5714285714286 L 135.71428571428572 162.8571428571429 L 135.71428571428572 172.14285714285717 L 135.71428571428572 183.5714285714286 L 134.28571428571433 191.42857142857144 L 134.28571428571433 194.28571428571433 L 134.28571428571433 194.28571428571433 L 137.14285714285717 194.28571428571433 L 140.71428571428572 194.28571428571433 L 146.42857142857144 194.28571428571433 L 152.8571428571429 193.5714285714286 L 159.28571428571433 192.14285714285722 L 164.28571428571433 191.42857142857144 L 169.28571428571433 191.42857142857144 L 172.8571428571429 192.8571428571429 L 175.00000000000006 196.4285714285715 L 175.00000000000006 200.71428571428578 L 175.00000000000006 204.28571428571433 L 175.00000000000006 207.14285714285722 L 174.28571428571433 208.5714285714286 L 172.8571428571429 209.28571428571433 L 168.5714285714286 210.00000000000006 L 167.14285714285717 210.00000000000006 " stroke="black" fill="none" stroke-width="5.0" stroke-linecap="round" stroke-linejoin="round" />
<path d="M 140.00000000000006 181.42857142857144 L 140.00000000000006 181.42857142857144 L 139.28571428571433 181.42857142857144 L 139.28571428571433 181.42857142857144 L 140.71428571428572 181.42857142857144 L 146.42857142857144 181.42857142857144 L 152.8571428571429 181.42857142857144 L 156.42857142857144 181.42857142857144 " stroke="black" fill="none" stroke-width="5.0" stroke-linecap="round" stroke-linejoin="round" />
<path d="M 124.28571428571432 202.14285714285722 L 124.28571428571432 202.14285714285722 L 125.00000000000001 202.8571428571429 L 125.00000000000001 203.5714285714286 L 125.71428571428574 205.00000000000006 L 125.71428571428574 206.4285714285715 " stroke="black" fill="none" stroke-width="5.0" stroke-linecap="round" stroke-linejoin="round" />
<path d="M 137.14285714285717 202.8571428571429 L 137.14285714285717 202.8571428571429 L 137.14285714285717 202.8571428571429 L 137.14285714285717 203.5714285714286 L 137.14285714285717 204.28571428571433 L 137.8571428571429 205.71428571428578 " stroke="black" fill="none" stroke-width="5.0" stroke-linecap="round" stroke-linejoin="round" />
<path d="M 147.8571428571429 202.8571428571429 L 147.8571428571429 203.5714285714286 L 147.8571428571429 205.00000000000006 L 147.8571428571429 206.4285714285715 L 147.8571428571429 207.14285714285722 " stroke="black" fill="none" stroke-width="5.0" stroke-linecap="round" stroke-linejoin="round" />
<path d="M 159.28571428571433 200.00000000000006 L 160.00000000000006 200.71428571428578 L 160.00000000000006 202.8571428571429 L 160.00000000000006 205.71428571428578 L 160.00000000000006 207.14285714285722 " stroke="black" fill="none" stroke-width="5.0" stroke-linecap="round" stroke-linejoin="round" />
</svg>