<svg xmlns="http://www.w3.org/2000/svg" width="300" height="300" viewBox="0 0 300 300">
<path d="M 141.0 99.0 L 141.0 99.0 L 142.0 99.0 L 143.0 100.0 L 145.0 103.0 L 147.0 107.0 L 150.0 111.0 L 151.0 112.0 " stroke="black" fill="none" stroke-width="5.0" stroke-linecap="round" stroke-linejoin="round" />
<path d="M 123.0 119.0 L 123.0 119.0 L 123.0 119.0 L 124.0 119.0 L 128.0 119.0 L 137.0 118.0 L 150.0 117.0 L 163.0 116.0 L 174.0 116.0 L 180.0 116.0 " stroke="black" fill="none" stroke-width="5.0" stroke-linecap="round" stroke-linejoin="round" />
<path d="M 123.0 124.0 L 123.0 124.0 L 124.0 124.0 L 124.0 125.0 L 124.0 125.0 L 124.0 128.0 L 123.0 139.0 L 120.0 159.0 L 114.0 183.0 L 109.0 202.0 L 106.0 211.0 L 106.0 213.0 L 106.0 213.0 " stroke="black" fill="none" stroke-width="5.0" stroke-linecap="round" stroke-linejoin="round" />
<path d="M 143.0 126.0 L 143.0 126.0 L 143.0 126.0 L 143.0 126.0 L 143.0 127.0 L 143.0 129.0 L 141.0 133.0 L 136.0 140.0 L 130.0 148.0 L 128.0 151.0 " stroke="black" fill="none" stroke-width="5.0" stroke-linecap="round" stroke-linejoin="round" />
<path d="M 139.0 139.0 L 139.0 139.0 L 139.0 140.0 L 139.0 142.0 L 139.0 147.0 L 139.0 153.0 L 139.0 157.0 L 139.0 158.0 " stroke="black" fill="none" stroke-width="5.0" stroke-linecap="round" stroke-linejoin="round" />
<path d="M 154.0 127.0 L 154.0 127.0 L 154.0 127.0 L 154.0 127.0 L 155.0 127.0 L 155.0 127.0 L 154.0 129.0 L 152.0 134.0 L 146.0 142.0 L 142.0 148.0 " stroke="black" fill="none" stroke-width="5.0" stroke-linecap="round" stroke-linejoin="round" />
<path d="M 152.0 139.0 L 152.0 139.0 L 152.0 139.0 L 152.0 139.0 L 152.0 141.0 L 152.0 146.0 L 152.0 152.0 L 152.0 157.0 " stroke="black" fill="none" stroke-width="5.0" stroke-linecap="round" stroke-linejoin="round" />
<path d="M 164.0 125.0 L 166.0 126.0 L 167.0 127.0 L 168.0 128.0 L 170.0 129.0 L 172.0 130.0 L 174.0 130.0 L 175.0 131.0 " stroke="black" fill="none" stroke-width="5.0" stroke-linecap="round" stroke-linejoin="round" />
<path d="M 161.0 134.0 L 162.0 134.0 L 162.0 135.0 L 163.0 135.0 L 165.0 135.0 L 170.0 135.0 L 174.0 134.0 L 178.0 134.0 L 179.0 134.0 L 179.0 134.0 " stroke="black" fill="none" stroke-width="5.0" stroke-linecap="round" stroke-linejoin="round" />
<path d="M 162.0 144.0 L 163.0 144.0 L 163.0 144.0 L 166.0 144.0 L 169.0 144.0 L 174.0 144.0 L 178.0 143.0 L 180.0 143.0 L 181.0 143.0 L 181.0 144.0 " stroke="black" fill="none" stroke-width="5.0" stroke-linecap="round" stroke-linejoin="round" />
<path d="M 163.0 149.0 L 163.0 149.0 L 163.0 150.0 L 164.0 150.0 L 167.0 150.0 L 171.0 150.0 L 176.0 150.0 L 177.0 150.0 " stroke="black" fill="none" stroke-width="5.0" stroke-linecap="round" stroke-linejoin="round" />
<path d="M 156.0 159.0 L 157.0 160.0 L 158.0 161.0 L 160.0 161.0 L 167.0 161.0 L 174.0 160.0 L 180.0 160.0 L 182.0 160.0 " stroke="black" fill="none" stroke-width="5.0" stroke-linecap="round" stroke-linejoin="round" />
<path d="M 170.0 140.0 L 170.0 140.0 L 170.0 140.0 L 171.0 141.0 L 172.0 146.0 L 172.0 152.0 L 172.0 156.0 " stroke="black" fill="none" stroke-width="5.0" stroke-linecap="round" stroke-linejoin="round" />
<path d="M 145.0 165.0 L 145.0 165.0 L 145.0 165.0 L 145.0 165.0 L 145.0 165.0 L 145.0 165.0 L 145.0 165.0 L 145.0 165.0 L 145.0 165.0 L 144.0 166.0 L 143.0 167.0 L 142.0 169.0 L 142.0 170.0 L 141.0 171.0 L 141.0 172.0 L 142.0 172.0 L 144.0 172.0 L 147.0 172.0 L 151.0 172.0 L 155.0 172.0 L 157.0 172.0 L 159.0 172.0 L 161.0 174.0 L 162.0 178.0 L 163.0 181.0 L 164.0 185.0 L 164.0 187.0 L 164.0 188.0 " stroke="black" fill="none" stroke-width="5.0" stroke-linecap="round" stroke-linejoin="round" />
<path d="M 140.0 180.0 L 140.0 180.0 L 141.0 180.0 L 143.0 180.0 L 147.0 180.0 L 152.0 180.0 L 157.0 180.0 L 160.0 180.0 L 161.0 180.0 L 160.0 181.0 " stroke="black" fill="none" stroke-width="5.0" stroke-linecap="round" stroke-linejoin="round" />
<path d="M 143.0 188.0 L 145.0 188.0 L 148.0 188.0 L 151.0 188.0 L 155.0 188.0 L 159.0 188.0 L 160.0 188.0 " stroke="black" fill="none" stroke-width="5.0" stroke-linecap="round" stroke-linejoin="round" />
<path d="M 141.0 171.0 L 141.0 171.0 L 141.0 171.0 L 141.0 171.0 L 141.0 171.0 L 140.0 171.0 L 140.0 174.0 L 140.0 178.0 L 140.0 184.0 L 140.0 190.0 L 140.0 194.0 L 140.0 197.0 L 140.0 200.0 L 140.0 201.0 L 141.0 202.0 L 141.0 202.0 L 141.0 202.0 L 143.0 201.0 L 144.0 200.0 L 146.0 200.0 L 148.0 200.0 L 150.0 200.0 L 153.0 200.0 L 157.0 200.0 L 161.0 200.0 L 165.0 200.0 L 168.0 201.0 L 171.0 201.0 L 174.0 203.0 L 175.0 205.0 L 177.0 209.0 L 178.0 213.0 L 179.0 216.0 L 179.0 219.0 L 179.0 219.0 L 178.0 219.0 L 173.0 219.0 L 169.0 219.0 " stroke="black" fill="none" stroke-width="5.0" stroke-linecap="round" stroke-linejoin="round" />
<path d="M 146.0 193.0 L 146.0 193.0 L 146.0 194.0 L 146.0 195.0 L 146.0 195.0 L 148.0 195.0 L 151.0 194.0 L 155.0 194.0 L 158.0 193.0 " stroke="black" fill="none" stroke-width="5.0" stroke-linecap="round" stroke-linejoin="round" />
<path d="M 137.0 205.0 L 137.0 205.0 L 137.0 205.0 L 137.0 205.0 L 137.0 206.0 L 137.0 208.0 L 137.0 211.0 L 137.0 211.0 " stroke="black" fill="none" stroke-width="5.0" stroke-linecap="round" stroke-linejoin="round" />
<path d="M 147.0 206.0 L 147.0 207.0 L 147.0 207.0 L 148.0 208.0 L 148.0 209.0 L 148.0 210.0 L 149.0 212.0 " stroke="black" fill="none" stroke-width="5.0" stroke-linecap="round" stroke-linejoin="round" />
<path d="M 153.0 207.0 L 153.0 208.0 L 153.0 208.0 L 153.0 208.0 L 153.0 210.0 L 154.0 213.0 L 154.0 213.0 " stroke="black" fill="none" stroke-width="5.0" stroke-linecap="round" stroke-linejoin="round" />
<path d="M 162.0 207.0 L 162.0 208.0 L 162.0 209.0 L 163.0 210.0 L 164.0 213.0 L 165.0 215.0 " stroke="black" fill="none" stroke-width="5.0" stroke-linecap="round" stroke-linejoin="round" />
</svg>