<svg xmlns="http://www.w3.org/2000/svg" width="300" height="300" viewBox="0 0 300 300">
<path d="M 112.0 120.0 L 112.0 121.0 L 112.0 122.0 L 112.0 123.0 L 112.0 126.0 L 112.0 130.0 L 112.0 133.0 L 112.0 133.0 " stroke="black" fill="none" stroke-width="5.0" stroke-linecap="round" stroke-linejoin="round" />
<path d="M 112.0 120.0 L 113.0 121.0 L 114.0 121.0 L 117.0 121.0 L 122.0 121.0 L 130.0 121.0 L 138.0 120.0 L 145.0 120.0 L 149.0 120.0 L 152.0 121.0 L 154.0 124.0 L 154.0 128.0 L 153.0 133.0 L 152.0 137.0 " stroke="black" fill="none" stroke-width="5.0" stroke-linecap="round" stroke-linejoin="round" />
<path d="M 135.0 104.0 L 135.0 104.0 L 135.0 104.0 L 134.0 104.0 L 134.0 105.0 L 134.0 109.0 L 132.0 119.0 L 125.0 136.0 L 115.0 155.0 L 106.0 168.0 L 102.0 172.0 " stroke="black" fill="none" stroke-width="5.0" stroke-linecap="round" stroke-linejoin="round" />
<path d="M 119.0 155.0 L 119.0 155.0 L 120.0 155.0 L 120.0 154.0 L 120.0 155.0 L 120.0 159.0 L 120.0 170.0 L 118.0 185.0 L 117.0 195.0 L 117.0 196.0 " stroke="black" fill="none" stroke-width="5.0" stroke-linecap="round" stroke-linejoin="round" />
<path d="M 137.0 140.0 L 137.0 140.0 L 137.0 140.0 L 137.0 141.0 L 138.0 143.0 L 140.0 145.0 L 141.0 146.0 " stroke="black" fill="none" stroke-width="5.0" stroke-linecap="round" stroke-linejoin="round" />
<path d="M 128.0 155.0 L 128.0 155.0 L 128.0 156.0 L 128.0 156.0 L 133.0 156.0 L 140.0 154.0 L 146.0 153.0 L 150.0 153.0 L 151.0 153.0 " stroke="black" fill="none" stroke-width="5.0" stroke-linecap="round" stroke-linejoin="round" />
<path d="M 133.0 165.0 L 133.0 165.0 L 134.0 165.0 L 135.0 165.0 L 138.0 165.0 L 142.0 164.0 L 145.0 163.0 L 147.0 163.0 " stroke="black" fill="none" stroke-width="5.0" stroke-linecap="round" stroke-linejoin="round" />
<path d="M 132.0 177.0 L 132.0 177.0 L 133.0 178.0 L 135.0 178.0 L 139.0 178.0 L 144.0 176.0 L 148.0 175.0 L 150.0 175.0 " stroke="black" fill="none" stroke-width="5.0" stroke-linecap="round" stroke-linejoin="round" />
<path d="M 128.0 195.0 L 128.0 195.0 L 130.0 196.0 L 134.0 197.0 L 142.0 196.0 L 149.0 194.0 L 151.0 193.0 " stroke="black" fill="none" stroke-width="5.0" stroke-linecap="round" stroke-linejoin="round" />
<path d="M 139.0 159.0 L 139.0 162.0 L 138.0 165.0 L 138.0 171.0 L 140.0 178.0 L 140.0 181.0 " stroke="black" fill="none" stroke-width="5.0" stroke-linecap="round" stroke-linejoin="round" />
<path d="M 171.0 98.0 L 171.0 98.0 L 171.0 98.0 L 171.0 98.0 L 170.0 99.0 L 169.0 101.0 L 167.0 106.0 L 165.0 111.0 L 164.0 114.0 L 164.0 116.0 L 166.0 117.0 L 171.0 117.0 L 176.0 117.0 L 181.0 116.0 L 184.0 116.0 L 186.0 116.0 L 188.0 116.0 L 188.0 117.0 L 189.0 120.0 L 189.0 126.0 L 190.0 131.0 L 190.0 135.0 " stroke="black" fill="none" stroke-width="5.0" stroke-linecap="round" stroke-linejoin="round" />
<path d="M 168.0 127.0 L 168.0 127.0 L 168.0 127.0 L 168.0 127.0 L 170.0 127.0 L 174.0 127.0 L 179.0 127.0 L 184.0 127.0 L 186.0 127.0 " stroke="black" fill="none" stroke-width="5.0" stroke-linecap="round" stroke-linejoin="round" />
<path d="M 165.0 140.0 L 165.0 140.0 L 165.0 140.0 L 165.0 140.0 L 169.0 140.0 L 177.0 139.0 L 185.0 139.0 L 189.0 139.0 " stroke="black" fill="none" stroke-width="5.0" stroke-linecap="round" stroke-linejoin="round" />
<path d="M 166.0 119.0 L 166.0 119.0 L 166.0 120.0 L 166.0 121.0 L 167.0 125.0 L 167.0 134.0 L 167.0 147.0 L 167.0 158.0 L 166.0 165.0 L 166.0 168.0 L 168.0 170.0 L 170.0 170.0 L 172.0 170.0 L 177.0 170.0 L 182.0 170.0 L 188.0 169.0 L 193.0 168.0 L 197.0 167.0 L 199.0 167.0 L 200.0 169.0 L 200.0 174.0 L 201.0 179.0 L 202.0 185.0 L 203.0 191.0 L 203.0 196.0 L 203.0 199.0 L 202.0 200.0 L 198.0 200.0 L 190.0 200.0 L 187.0 199.0 " stroke="black" fill="none" stroke-width="5.0" stroke-linecap="round" stroke-linejoin="round" />
<path d="M 169.0 153.0 L 169.0 153.0 L 169.0 154.0 L 172.0 154.0 L 178.0 154.0 L 184.0 153.0 L 187.0 152.0 " stroke="black" fill="none" stroke-width="5.0" stroke-linecap="round" stroke-linejoin="round" />
<path d="M 163.0 181.0 L 163.0 181.0 L 163.0 181.0 L 163.0 181.0 L 163.0 181.0 L 163.0 183.0 L 163.0 185.0 L 163.0 187.0 " stroke="black" fill="none" stroke-width="5.0" stroke-linecap="round" stroke-linejoin="round" />
<path d="M 173.0 179.0 L 173.0 179.0 L 173.0 180.0 L 173.0 181.0 L 173.0 183.0 L 173.0 186.0 L 174.0 189.0 " stroke="black" fill="none" stroke-width="5.0" stroke-linecap="round" stroke-linejoin="round" />
<path d="M 181.0 180.0 L 181.0 180.0 L 181.0 180.0 L 182.0 180.0 L 182.0 180.0 L 183.0 182.0 L 184.0 186.0 L 184.0 187.0 " stroke="black" fill="none" stroke-width="5.0" stroke-linecap="round" stroke-linejoin="round" />
<path d="M 192.0 181.0 L 192.0 181.0 L 192.0 182.0 L 192.0 184.0 L 193.0 187.0 L 193.0 188.0 " stroke="black" fill="none" stroke-width="5.0" stroke-linecap="round" stroke-linejoin="round" />
</svg>