<svg xmlns="http://www.w3.org/2000/svg" width="300" height="300" viewBox="0 0 300 300">
<path d="M 111.0 122.0 L 111.0 122.0 L 111.0 125.0 L 110.0 129.0 L 110.0 135.0 L 110.0 138.0 " stroke="black" fill="none" stroke-width="5.0" stroke-linecap="round" stroke-linejoin="round" />
<path d="M 112.0 121.0 L 112.0 121.0 L 112.0 121.0 L 112.0 121.0 L 115.0 121.0 L 123.0 120.0 L 132.0 118.0 L 140.0 118.0 L 145.0 118.0 L 148.0 120.0 L 148.0 124.0 L 149.0 129.0 L 148.0 134.0 L 147.0 138.0 L 147.0 140.0 " stroke="black" fill="none" stroke-width="5.0" stroke-linecap="round" stroke-linejoin="round" />
<path d="M 119.0 129.0 L 119.0 129.0 L 120.0 129.0 L 120.0 129.0 L 121.0 129.0 L 123.0 130.0 L 125.0 130.0 " stroke="black" fill="none" stroke-width="5.0" stroke-linecap="round" stroke-linejoin="round" />
<path d="M 140.0 129.0 L 140.0 129.0 L 140.0 131.0 L 140.0 132.0 L 139.0 134.0 L 138.0 135.0 L 138.0 136.0 " stroke="black" fill="none" stroke-width="5.0" stroke-linecap="round" stroke-linejoin="round" />
<path d="M 111.0 144.0 L 111.0 144.0 L 111.0 144.0 L 114.0 144.0 L 123.0 144.0 L 134.0 142.0 L 140.0 142.0 L 143.0 142.0 " stroke="black" fill="none" stroke-width="5.0" stroke-linecap="round" stroke-linejoin="round" />
<path d="M 128.0 123.0 L 128.0 123.0 L 128.0 124.0 L 128.0 125.0 L 128.0 129.0 L 128.0 139.0 L 130.0 151.0 L 131.0 161.0 L 132.0 166.0 L 132.0 167.0 " stroke="black" fill="none" stroke-width="5.0" stroke-linecap="round" stroke-linejoin="round" />
<path d="M 119.0 154.0 L 119.0 154.0 L 119.0 154.0 L 120.0 154.0 L 124.0 154.0 L 131.0 154.0 L 137.0 153.0 L 141.0 153.0 L 142.0 153.0 " stroke="black" fill="none" stroke-width="5.0" stroke-linecap="round" stroke-linejoin="round" />
<path d="M 112.0 169.0 L 113.0 169.0 L 115.0 170.0 L 120.0 170.0 L 129.0 169.0 L 137.0 167.0 L 142.0 167.0 L 143.0 167.0 " stroke="black" fill="none" stroke-width="5.0" stroke-linecap="round" stroke-linejoin="round" />
<path d="M 113.0 181.0 L 113.0 182.0 L 113.0 183.0 L 113.0 186.0 L 113.0 190.0 L 113.0 191.0 " stroke="black" fill="none" stroke-width="5.0" stroke-linecap="round" stroke-linejoin="round" />
<path d="M 122.0 178.0 L 123.0 178.0 L 123.0 179.0 L 124.0 180.0 L 125.0 183.0 L 125.0 187.0 L 125.0 191.0 " stroke="black" fill="none" stroke-width="5.0" stroke-linecap="round" stroke-linejoin="round" />
<path d="M 132.0 180.0 L 132.0 180.0 L 132.0 180.0 L 132.0 181.0 L 132.0 184.0 L 133.0 189.0 " stroke="black" fill="none" stroke-width="5.0" stroke-linecap="round" stroke-linejoin="round" />
<path d="M 141.0 181.0 L 141.0 181.0 L 141.0 182.0 L 142.0 185.0 L 143.0 190.0 L 145.0 193.0 " stroke="black" fill="none" stroke-width="5.0" stroke-linecap="round" stroke-linejoin="round" />
<path d="M 158.0 119.0 L 158.0 119.0 L 158.0 120.0 L 158.0 121.0 L 158.0 125.0 L 158.0 130.0 L 158.0 136.0 L 159.0 141.0 L 161.0 143.0 L 166.0 143.0 L 173.0 142.0 L 180.0 140.0 L 185.0 138.0 L 186.0 138.0 " stroke="black" fill="none" stroke-width="5.0" stroke-linecap="round" stroke-linejoin="round" />
<path d="M 189.0 119.0 L 189.0 119.0 L 189.0 120.0 L 189.0 121.0 L 189.0 125.0 L 190.0 131.0 L 191.0 138.0 L 191.0 139.0 " stroke="black" fill="none" stroke-width="5.0" stroke-linecap="round" stroke-linejoin="round" />
<path d="M 156.0 163.0 L 156.0 163.0 L 156.0 163.0 L 156.0 163.0 L 156.0 166.0 L 156.0 172.0 L 156.0 179.0 L 156.0 186.0 L 158.0 189.0 L 162.0 191.0 L 171.0 189.0 L 182.0 186.0 L 189.0 184.0 L 190.0 184.0 " stroke="black" fill="none" stroke-width="5.0" stroke-linecap="round" stroke-linejoin="round" />
<path d="M 193.0 166.0 L 193.0 166.0 L 193.0 166.0 L 193.0 167.0 L 193.0 170.0 L 194.0 176.0 L 194.0 184.0 L 194.0 185.0 " stroke="black" fill="none" stroke-width="5.0" stroke-linecap="round" stroke-linejoin="round" />
<path d="M 167.0 110.0 L 167.0 109.0 L 167.0 109.0 L 167.0 110.0 L 169.0 118.0 L 170.0 136.0 L 172.0 157.0 L 173.0 173.0 L 173.0 183.0 L 173.0 186.0 L 173.0 186.0 " stroke="black" fill="none" stroke-width="5.0" stroke-linecap="round" stroke-linejoin="round" />
</svg>