<svg xmlns="http://www.w3.org/2000/svg" width="300" height="300" viewBox="0 0 300 300">
<path d="M 108.0 116.0 L 108.0 117.0 L 108.0 117.0 L 108.0 119.0 L 108.0 122.0 L 109.0 128.0 L 111.0 132.0 " stroke="black" fill="none" stroke-width="5.0" stroke-linecap="round" stroke-linejoin="round" />
<path d="M 111.0 114.0 L 111.0 114.0 L 111.0 114.0 L 112.0 114.0 L 113.0 114.0 L 118.0 114.0 L 126.0 112.0 L 134.0 111.0 L 140.0 111.0 L 143.0 111.0 L 146.0 113.0 L 147.0 115.0 L 147.0 121.0 L 147.0 128.0 L 145.0 134.0 " stroke="black" fill="none" stroke-width="5.0" stroke-linecap="round" stroke-linejoin="round" />
<path d="M 118.0 122.0 L 118.0 123.0 L 118.0 124.0 L 118.0 124.0 " stroke="black" fill="none" stroke-width="5.0" stroke-linecap="round" stroke-linejoin="round" />
<path d="M 140.0 123.0 L 140.0 123.0 L 139.0 124.0 L 138.0 125.0 L 137.0 126.0 " stroke="black" fill="none" stroke-width="5.0" stroke-linecap="round" stroke-linejoin="round" />
<path d="M 111.0 137.0 L 111.0 137.0 L 111.0 136.0 L 111.0 136.0 L 113.0 136.0 L 120.0 136.0 L 131.0 135.0 L 143.0 135.0 L 149.0 135.0 " stroke="black" fill="none" stroke-width="5.0" stroke-linecap="round" stroke-linejoin="round" />
<path d="M 126.0 114.0 L 126.0 114.0 L 126.0 114.0 L 126.0 114.0 L 126.0 118.0 L 126.0 128.0 L 127.0 144.0 L 128.0 161.0 L 128.0 172.0 L 128.0 175.0 " stroke="black" fill="none" stroke-width="5.0" stroke-linecap="round" stroke-linejoin="round" />
<path d="M 118.0 156.0 L 118.0 156.0 L 118.0 156.0 L 118.0 156.0 L 119.0 156.0 L 122.0 156.0 L 129.0 155.0 L 136.0 154.0 L 138.0 154.0 " stroke="black" fill="none" stroke-width="5.0" stroke-linecap="round" stroke-linejoin="round" />
<path d="M 110.0 178.0 L 110.0 178.0 L 110.0 178.0 L 111.0 179.0 L 115.0 179.0 L 125.0 178.0 L 138.0 177.0 L 146.0 177.0 L 147.0 178.0 " stroke="black" fill="none" stroke-width="5.0" stroke-linecap="round" stroke-linejoin="round" />
<path d="M 108.0 196.0 L 108.0 196.0 L 108.0 197.0 L 108.0 198.0 L 108.0 201.0 L 108.0 204.0 L 108.0 206.0 " stroke="black" fill="none" stroke-width="5.0" stroke-linecap="round" stroke-linejoin="round" />
<path d="M 118.0 194.0 L 118.0 194.0 L 118.0 194.0 L 118.0 195.0 L 119.0 198.0 L 120.0 201.0 L 121.0 205.0 L 121.0 206.0 " stroke="black" fill="none" stroke-width="5.0" stroke-linecap="round" stroke-linejoin="round" />
<path d="M 131.0 194.0 L 131.0 196.0 L 131.0 200.0 L 131.0 204.0 L 132.0 206.0 " stroke="black" fill="none" stroke-width="5.0" stroke-linecap="round" stroke-linejoin="round" />
<path d="M 145.0 191.0 L 145.0 194.0 L 146.0 198.0 L 147.0 202.0 L 148.0 204.0 " stroke="black" fill="none" stroke-width="5.0" stroke-linecap="round" stroke-linejoin="round" />
<path d="M 157.0 142.0 L 158.0 142.0 L 158.0 141.0 L 160.0 141.0 L 165.0 140.0 L 174.0 138.0 L 182.0 138.0 L 183.0 138.0 " stroke="black" fill="none" stroke-width="5.0" stroke-linecap="round" stroke-linejoin="round" />
<path d="M 172.0 117.0 L 172.0 117.0 L 171.0 117.0 L 171.0 117.0 L 170.0 121.0 L 171.0 134.0 L 172.0 160.0 L 172.0 186.0 L 171.0 200.0 L 172.0 202.0 " stroke="black" fill="none" stroke-width="5.0" stroke-linecap="round" stroke-linejoin="round" />
<path d="M 175.0 147.0 L 175.0 146.0 L 175.0 145.0 L 177.0 145.0 L 181.0 153.0 L 189.0 169.0 L 195.0 185.0 L 199.0 197.0 " stroke="black" fill="none" stroke-width="5.0" stroke-linecap="round" stroke-linejoin="round" />
<path d="M 196.0 117.0 L 197.0 117.0 L 197.0 118.0 L 199.0 120.0 L 202.0 126.0 L 203.0 128.0 " stroke="black" fill="none" stroke-width="5.0" stroke-linecap="round" stroke-linejoin="round" />
</svg>