<svg xmlns="http://www.w3.org/2000/svg" width="300" height="300" viewBox="0 0 300 300">
<path d="M 135.0 91.0 L 135.0 91.0 L 135.0 91.0 L 135.0 92.0 L 135.0 94.0 L 135.0 98.0 L 135.0 106.0 L 134.0 115.0 L 134.0 123.0 L 134.0 126.0 L 135.0 127.0 L 140.0 127.0 L 147.0 126.0 L 153.0 125.0 L 155.0 124.0 " stroke="black" fill="none" stroke-width="8.0" stroke-linecap="round" stroke-linejoin="round" />
<path d="M 160.0 95.0 L 160.0 95.0 L 160.0 94.0 L 160.0 93.0 L 161.0 95.0 L 161.0 103.0 L 162.0 114.0 L 162.0 120.0 " stroke="black" fill="none" stroke-width="8.0" stroke-linecap="round" stroke-linejoin="round" />
<path d="M 108.0 117.0 L 108.0 117.0 L 108.0 118.0 L 108.0 118.0 L 114.0 117.0 L 134.0 114.0 L 160.0 110.0 L 180.0 108.0 L 188.0 108.0 " stroke="black" fill="none" stroke-width="8.0" stroke-linecap="round" stroke-linejoin="round" />
<path d="M 117.0 150.0 L 121.0 150.0 L 127.0 149.0 L 141.0 147.0 L 159.0 143.0 L 176.0 139.0 L 185.0 138.0 " stroke="black" fill="none" stroke-width="8.0" stroke-linecap="round" stroke-linejoin="round" />
<path d="M 134.0 168.0 L 134.0 169.0 L 133.0 174.0 L 133.0 180.0 L 134.0 186.0 L 134.0 187.0 " stroke="black" fill="none" stroke-width="8.0" stroke-linecap="round" stroke-linejoin="round" />
<path d="M 130.0 167.0 L 130.0 167.0 L 130.0 167.0 L 131.0 167.0 L 138.0 165.0 L 150.0 163.0 L 162.0 160.0 L 171.0 160.0 L 175.0 162.0 L 176.0 167.0 L 176.0 173.0 L 176.0 178.0 L 176.0 180.0 " stroke="black" fill="none" stroke-width="8.0" stroke-linecap="round" stroke-linejoin="round" />
<path d="M 139.0 181.0 L 139.0 181.0 L 139.0 181.0 L 140.0 181.0 L 146.0 180.0 L 156.0 177.0 L 165.0 175.0 L 167.0 175.0 " stroke="black" fill="none" stroke-width="8.0" stroke-linecap="round" stroke-linejoin="round" />
<path d="M 150.0 164.0 L 150.0 164.0 L 150.0 165.0 L 150.0 169.0 L 151.0 177.0 " stroke="black" fill="none" stroke-width="8.0" stroke-linecap="round" stroke-linejoin="round" />
<path d="M 137.0 193.0 L 138.0 193.0 L 140.0 193.0 L 146.0 193.0 L 156.0 190.0 L 169.0 186.0 L 174.0 185.0 " stroke="black" fill="none" stroke-width="8.0" stroke-linecap="round" stroke-linejoin="round" />
<path d="M 150.0 192.0 L 150.0 193.0 L 149.0 194.0 L 147.0 197.0 L 146.0 202.0 L 145.0 207.0 L 144.0 209.0 " stroke="black" fill="none" stroke-width="8.0" stroke-linecap="round" stroke-linejoin="round" />
<path d="M 163.0 194.0 L 163.0 194.0 L 165.0 195.0 L 170.0 198.0 L 178.0 204.0 L 183.0 212.0 " stroke="black" fill="none" stroke-width="8.0" stroke-linecap="round" stroke-linejoin="round" />
</svg>