<svg xmlns="http://www.w3.org/2000/svg" width="300" height="300" viewBox="0 0 300 300">
<path d="M 138.0 98.0 L 138.0 98.0 L 138.0 98.0 L 138.0 98.0 L 138.0 98.0 L 138.0 98.0 L 136.0 101.0 L 130.0 107.0 L 126.0 111.0 " stroke="black" fill="none" stroke-width="5.0" stroke-linecap="round" stroke-linejoin="round" />
<path d="M 116.0 126.0 L 116.0 126.0 L 115.0 127.0 L 114.0 127.0 L 115.0 127.0 L 122.0 125.0 L 132.0 123.0 L 141.0 122.0 L 147.0 122.0 " stroke="black" fill="none" stroke-width="5.0" stroke-linecap="round" stroke-linejoin="round" />
<path d="M 134.0 110.0 L 134.0 109.0 L 133.0 108.0 L 133.0 109.0 L 133.0 116.0 L 135.0 128.0 L 137.0 141.0 L 137.0 149.0 " stroke="black" fill="none" stroke-width="5.0" stroke-linecap="round" stroke-linejoin="round" />
<path d="M 135.0 125.0 L 133.0 125.0 L 132.0 126.0 L 130.0 127.0 L 127.0 130.0 L 121.0 138.0 L 117.0 143.0 " stroke="black" fill="none" stroke-width="5.0" stroke-linecap="round" stroke-linejoin="round" />
<path d="M 132.0 131.0 L 132.0 131.0 L 133.0 131.0 L 137.0 133.0 L 144.0 138.0 L 150.0 143.0 " stroke="black" fill="none" stroke-width="5.0" stroke-linecap="round" stroke-linejoin="round" />
<path d="M 158.0 102.0 L 158.0 102.0 L 158.0 100.0 L 159.0 99.0 L 159.0 100.0 L 157.0 106.0 L 154.0 113.0 L 153.0 115.0 " stroke="black" fill="none" stroke-width="5.0" stroke-linecap="round" stroke-linejoin="round" />
<path d="M 154.0 110.0 L 155.0 110.0 L 155.0 110.0 L 155.0 110.0 L 159.0 109.0 L 167.0 109.0 L 175.0 109.0 L 180.0 109.0 L 182.0 109.0 L 183.0 114.0 L 184.0 122.0 L 187.0 133.0 L 189.0 142.0 L 189.0 148.0 L 189.0 150.0 L 187.0 150.0 L 181.0 147.0 L 173.0 143.0 " stroke="black" fill="none" stroke-width="5.0" stroke-linecap="round" stroke-linejoin="round" />
<path d="M 166.0 108.0 L 166.0 109.0 L 166.0 109.0 L 166.0 111.0 L 165.0 117.0 L 163.0 128.0 L 157.0 143.0 L 156.0 145.0 " stroke="black" fill="none" stroke-width="5.0" stroke-linecap="round" stroke-linejoin="round" />
<path d="M 153.0 153.0 L 153.0 153.0 L 153.0 153.0 L 154.0 153.0 L 154.0 152.0 L 154.0 152.0 L 154.0 153.0 L 150.0 156.0 L 141.0 163.0 L 125.0 174.0 L 117.0 180.0 " stroke="black" fill="none" stroke-width="5.0" stroke-linecap="round" stroke-linejoin="round" />
<path d="M 155.0 159.0 L 155.0 159.0 L 156.0 159.0 L 157.0 159.0 L 164.0 162.0 L 178.0 170.0 L 190.0 179.0 " stroke="black" fill="none" stroke-width="5.0" stroke-linecap="round" stroke-linejoin="round" />
<path d="M 152.0 170.0 L 152.0 170.0 L 152.0 169.0 L 152.0 168.0 L 152.0 168.0 L 153.0 170.0 L 155.0 180.0 L 157.0 196.0 L 159.0 211.0 L 160.0 219.0 L 160.0 219.0 L 159.0 218.0 L 154.0 213.0 L 152.0 212.0 " stroke="black" fill="none" stroke-width="5.0" stroke-linecap="round" stroke-linejoin="round" />
<path d="M 141.0 184.0 L 141.0 184.0 L 141.0 184.0 L 141.0 184.0 L 141.0 184.0 L 144.0 186.0 " stroke="black" fill="none" stroke-width="5.0" stroke-linecap="round" stroke-linejoin="round" />
<path d="M 130.0 204.0 L 130.0 204.0 L 131.0 204.0 L 133.0 204.0 L 139.0 203.0 L 146.0 201.0 " stroke="black" fill="none" stroke-width="5.0" stroke-linecap="round" stroke-linejoin="round" />
<path d="M 166.0 192.0 L 166.0 192.0 L 166.0 192.0 L 166.0 192.0 L 168.0 191.0 L 171.0 189.0 L 178.0 185.0 L 181.0 184.0 " stroke="black" fill="none" stroke-width="5.0" stroke-linecap="round" stroke-linejoin="round" />
<path d="M 166.0 199.0 L 166.0 199.0 L 166.0 200.0 L 166.0 200.0 L 168.0 201.0 L 175.0 205.0 L 184.0 209.0 L 188.0 212.0 " stroke="black" fill="none" stroke-width="5.0" stroke-linecap="round" stroke-linejoin="round" />
</svg>