<svg xmlns="http://www.w3.org/2000/svg" width="300" height="300" viewBox="0 0 300 300">
<path d="M 116.0 117.0 L 116.0 117.0 L 116.0 119.0 L 117.0 121.0 L 117.0 124.0 L 117.0 128.0 L 118.0 131.0 L 118.0 131.0 " stroke="black" fill="none" stroke-width="5.0" stroke-linecap="round" stroke-linejoin="round" />
<path d="M 118.0 117.0 L 119.0 117.0 L 119.0 117.0 L 121.0 117.0 L 124.0 117.0 L 129.0 116.0 L 136.0 115.0 L 142.0 115.0 L 146.0 115.0 L 148.0 117.0 L 149.0 120.0 L 149.0 125.0 L 149.0 128.0 L 149.0 130.0 L 149.0 131.0 L 149.0 131.0 " stroke="black" fill="none" stroke-width="5.0" stroke-linecap="round" stroke-linejoin="round" />
<path d="M 125.0 122.0 L 127.0 123.0 L 128.0 125.0 L 130.0 127.0 L 132.0 128.0 L 132.0 129.0 " stroke="black" fill="none" stroke-width="5.0" stroke-linecap="round" stroke-linejoin="round" />
<path d="M 142.0 125.0 L 142.0 126.0 L 141.0 127.0 L 141.0 129.0 L 141.0 130.0 L 140.0 132.0 " stroke="black" fill="none" stroke-width="5.0" stroke-linecap="round" stroke-linejoin="round" />
<path d="M 121.0 133.0 L 122.0 133.0 L 124.0 133.0 L 126.0 134.0 L 131.0 134.0 L 136.0 135.0 L 141.0 135.0 L 144.0 135.0 L 144.0 135.0 " stroke="black" fill="none" stroke-width="5.0" stroke-linecap="round" stroke-linejoin="round" />
<path d="M 131.0 120.0 L 131.0 120.0 L 131.0 120.0 L 131.0 120.0 L 131.0 120.0 L 131.0 120.0 L 131.0 124.0 L 132.0 136.0 L 133.0 149.0 L 133.0 158.0 L 133.0 161.0 L 133.0 160.0 L 133.0 159.0 " stroke="black" fill="none" stroke-width="5.0" stroke-linecap="round" stroke-linejoin="round" />
<path d="M 117.0 148.0 L 117.0 148.0 L 118.0 148.0 L 119.0 148.0 L 122.0 148.0 L 128.0 148.0 L 136.0 147.0 L 141.0 147.0 L 143.0 147.0 L 144.0 148.0 L 144.0 148.0 " stroke="black" fill="none" stroke-width="5.0" stroke-linecap="round" stroke-linejoin="round" />
<path d="M 114.0 161.0 L 115.0 161.0 L 118.0 161.0 L 121.0 161.0 L 127.0 161.0 L 136.0 161.0 L 145.0 161.0 L 149.0 162.0 L 150.0 162.0 " stroke="black" fill="none" stroke-width="5.0" stroke-linecap="round" stroke-linejoin="round" />
<path d="M 113.0 174.0 L 113.0 174.0 L 114.0 174.0 L 114.0 175.0 L 114.0 178.0 L 114.0 182.0 L 114.0 185.0 L 115.0 186.0 " stroke="black" fill="none" stroke-width="5.0" stroke-linecap="round" stroke-linejoin="round" />
<path d="M 122.0 172.0 L 123.0 172.0 L 124.0 173.0 L 124.0 175.0 L 125.0 178.0 L 126.0 181.0 L 126.0 184.0 " stroke="black" fill="none" stroke-width="5.0" stroke-linecap="round" stroke-linejoin="round" />
<path d="M 134.0 172.0 L 134.0 173.0 L 135.0 175.0 L 135.0 177.0 L 136.0 180.0 L 136.0 182.0 " stroke="black" fill="none" stroke-width="5.0" stroke-linecap="round" stroke-linejoin="round" />
<path d="M 142.0 172.0 L 142.0 172.0 L 143.0 172.0 L 143.0 173.0 L 144.0 176.0 L 145.0 180.0 " stroke="black" fill="none" stroke-width="5.0" stroke-linecap="round" stroke-linejoin="round" />
<path d="M 170.0 114.0 L 170.0 114.0 L 171.0 115.0 L 171.0 118.0 L 171.0 127.0 L 171.0 140.0 L 171.0 151.0 L 172.0 155.0 L 172.0 155.0 " stroke="black" fill="none" stroke-width="5.0" stroke-linecap="round" stroke-linejoin="round" />
<path d="M 173.0 138.0 L 173.0 138.0 L 174.0 138.0 L 176.0 138.0 L 180.0 138.0 L 185.0 138.0 L 189.0 138.0 L 191.0 139.0 " stroke="black" fill="none" stroke-width="5.0" stroke-linecap="round" stroke-linejoin="round" />
<path d="M 156.0 160.0 L 156.0 160.0 L 156.0 161.0 L 156.0 163.0 L 156.0 169.0 L 157.0 178.0 L 158.0 185.0 L 159.0 187.0 L 159.0 187.0 " stroke="black" fill="none" stroke-width="5.0" stroke-linecap="round" stroke-linejoin="round" />
<path d="M 158.0 160.0 L 160.0 160.0 L 161.0 160.0 L 164.0 160.0 L 168.0 160.0 L 175.0 160.0 L 181.0 160.0 L 186.0 161.0 L 190.0 165.0 L 192.0 172.0 L 193.0 180.0 L 194.0 186.0 L 195.0 189.0 L 195.0 189.0 " stroke="black" fill="none" stroke-width="5.0" stroke-linecap="round" stroke-linejoin="round" />
<path d="M 159.0 192.0 L 160.0 192.0 L 161.0 192.0 L 165.0 192.0 L 172.0 193.0 L 182.0 193.0 L 190.0 193.0 L 194.0 193.0 " stroke="black" fill="none" stroke-width="5.0" stroke-linecap="round" stroke-linejoin="round" />
</svg>