<svg xmlns="http://www.w3.org/2000/svg" width="300" height="300" viewBox="0 0 300 300">
<path d="M 138.5714285714286 106.42857142857146 L 138.5714285714286 106.42857142857146 L 138.5714285714286 106.42857142857146 L 138.5714285714286 106.42857142857146 L 139.28571428571433 109.28571428571432 L 140.00000000000006 115.00000000000001 L 140.71428571428572 123.5714285714286 L 140.71428571428572 130.71428571428572 L 140.71428571428572 134.28571428571433 L 141.42857142857144 135.00000000000006 L 141.42857142857144 134.28571428571433 L 143.5714285714286 133.5714285714286 L 145.71428571428572 132.8571428571429 L 149.28571428571433 132.14285714285717 L 152.8571428571429 132.14285714285717 L 156.42857142857144 132.14285714285717 L 157.14285714285717 132.14285714285717 " stroke="black" fill="none" stroke-width="5.0" stroke-linecap="round" stroke-linejoin="round" />
<path d="M 159.28571428571433 104.28571428571432 L 160.00000000000006 105.71428571428574 L 160.00000000000006 107.85714285714288 L 160.71428571428572 112.14285714285718 L 161.42857142857144 119.28571428571432 L 162.14285714285717 126.42857142857146 L 162.14285714285717 129.28571428571433 " stroke="black" fill="none" stroke-width="5.0" stroke-linecap="round" stroke-linejoin="round" />
<path d="M 114.28571428571432 126.42857142857146 L 114.28571428571432 126.42857142857146 L 114.28571428571432 125.71428571428574 L 116.42857142857146 125.00000000000001 L 124.28571428571432 123.5714285714286 L 140.71428571428572 120.71428571428574 L 159.28571428571433 118.5714285714286 L 172.8571428571429 117.14285714285718 L 180.71428571428578 116.42857142857146 L 183.5714285714286 115.71428571428574 " stroke="black" fill="none" stroke-width="5.0" stroke-linecap="round" stroke-linejoin="round" />
<path d="M 128.5714285714286 150.00000000000006 L 127.85714285714288 150.00000000000006 L 127.85714285714288 150.00000000000006 L 127.14285714285718 150.00000000000006 L 130.71428571428572 150.00000000000006 L 142.14285714285717 150.00000000000006 L 157.8571428571429 149.28571428571433 L 172.8571428571429 148.5714285714286 L 175.71428571428578 148.5714285714286 " stroke="black" fill="none" stroke-width="5.0" stroke-linecap="round" stroke-linejoin="round" />
<path d="M 140.00000000000006 161.42857142857144 L 140.00000000000006 163.5714285714286 L 140.00000000000006 166.42857142857144 L 140.00000000000006 171.42857142857144 L 141.42857142857144 176.42857142857144 L 142.8571428571429 180.00000000000006 L 143.5714285714286 180.00000000000006 " stroke="black" fill="none" stroke-width="5.0" stroke-linecap="round" stroke-linejoin="round" />
<path d="M 140.00000000000006 161.42857142857144 L 140.00000000000006 161.42857142857144 L 139.28571428571433 161.42857142857144 L 140.71428571428572 161.42857142857144 L 145.71428571428572 161.42857142857144 L 152.8571428571429 160.71428571428572 L 160.00000000000006 160.71428571428572 L 165.71428571428572 160.71428571428572 L 170.00000000000006 163.5714285714286 L 172.8571428571429 169.28571428571433 L 174.28571428571433 174.28571428571433 L 174.28571428571433 177.8571428571429 L 174.28571428571433 178.5714285714286 " stroke="black" fill="none" stroke-width="5.0" stroke-linecap="round" stroke-linejoin="round" />
<path d="M 146.42857142857144 171.42857142857144 L 146.42857142857144 171.42857142857144 L 146.42857142857144 171.42857142857144 L 147.14285714285717 171.42857142857144 L 151.42857142857144 171.42857142857144 L 159.28571428571433 171.42857142857144 L 164.28571428571433 170.71428571428572 " stroke="black" fill="none" stroke-width="5.0" stroke-linecap="round" stroke-linejoin="round" />
<path d="M 152.8571428571429 160.71428571428572 L 152.8571428571429 162.14285714285717 L 152.14285714285717 164.28571428571433 L 152.8571428571429 167.8571428571429 L 154.28571428571433 173.5714285714286 L 155.00000000000006 175.00000000000006 " stroke="black" fill="none" stroke-width="5.0" stroke-linecap="round" stroke-linejoin="round" />
<path d="M 142.8571428571429 183.5714285714286 L 142.8571428571429 183.5714285714286 L 142.8571428571429 184.28571428571433 L 145.71428571428572 184.28571428571433 L 152.8571428571429 182.8571428571429 L 162.14285714285717 182.14285714285717 L 170.00000000000006 181.42857142857144 L 172.14285714285717 181.42857142857144 " stroke="black" fill="none" stroke-width="5.0" stroke-linecap="round" stroke-linejoin="round" />
<path d="M 152.8571428571429 186.42857142857144 L 152.8571428571429 186.42857142857144 L 152.8571428571429 186.42857142857144 L 152.8571428571429 187.14285714285717 L 152.8571428571429 189.28571428571433 L 151.42857142857144 194.28571428571433 L 150.00000000000006 200.71428571428578 L 150.00000000000006 202.8571428571429 " stroke="black" fill="none" stroke-width="5.0" stroke-linecap="round" stroke-linejoin="round" />
<path d="M 166.42857142857144 189.28571428571433 L 167.14285714285717 189.28571428571433 L 169.28571428571433 190.71428571428578 L 173.5714285714286 194.28571428571433 L 177.8571428571429 200.71428571428578 L 180.71428571428578 205.00000000000006 " stroke="black" fill="none" stroke-width="5.0" stroke-linecap="round" stroke-linejoin="round" />
</svg>