<svg xmlns="http://www.w3.org/2000/svg" width="300" height="300" viewBox="0 0 300 300">
<path d="M 146.0 101.0 L 146.0 101.0 L 146.0 100.0 L 146.0 100.0 L 146.0 100.0 L 147.0 101.0 L 150.0 107.0 " stroke="black" fill="none" stroke-width="5.0" stroke-linecap="round" stroke-linejoin="round" />
<path d="M 113.0 118.0 L 114.0 119.0 L 115.0 120.0 L 117.0 120.0 L 120.0 120.0 L 130.0 120.0 L 141.0 119.0 L 159.0 117.0 L 174.0 115.0 L 183.0 114.0 L 187.0 114.0 L 187.0 114.0 L 187.0 115.0 " stroke="black" fill="none" stroke-width="5.0" stroke-linecap="round" stroke-linejoin="round" />
<path d="M 143.0 130.0 L 143.0 130.0 L 143.0 130.0 L 143.0 130.0 L 143.0 130.0 L 144.0 131.0 L 145.0 133.0 L 147.0 137.0 L 147.0 137.0 " stroke="black" fill="none" stroke-width="5.0" stroke-linecap="round" stroke-linejoin="round" />
<path d="M 156.0 130.0 L 157.0 130.0 L 157.0 130.0 L 157.0 130.0 L 156.0 132.0 L 155.0 133.0 L 153.0 135.0 L 151.0 136.0 L 150.0 137.0 L 150.0 137.0 L 149.0 138.0 L 148.0 139.0 L 148.0 140.0 L 148.0 141.0 L 149.0 143.0 L 150.0 148.0 L 150.0 151.0 L 151.0 153.0 L 152.0 154.0 " stroke="black" fill="none" stroke-width="5.0" stroke-linecap="round" stroke-linejoin="round" />
<path d="M 120.0 134.0 L 120.0 134.0 L 120.0 134.0 L 121.0 134.0 L 121.0 134.0 L 122.0 133.0 L 124.0 133.0 L 125.0 133.0 L 128.0 133.0 L 132.0 133.0 L 134.0 133.0 L 135.0 134.0 L 137.0 137.0 L 138.0 143.0 L 139.0 145.0 L 139.0 148.0 L 139.0 150.0 L 139.0 150.0 L 135.0 149.0 L 131.0 147.0 " stroke="black" fill="none" stroke-width="5.0" stroke-linecap="round" stroke-linejoin="round" />
<path d="M 130.0 135.0 L 130.0 138.0 L 130.0 139.0 L 128.0 139.0 L 126.0 141.0 L 121.0 146.0 L 115.0 153.0 " stroke="black" fill="none" stroke-width="5.0" stroke-linecap="round" stroke-linejoin="round" />
<path d="M 171.0 130.0 L 172.0 129.0 L 172.0 129.0 L 173.0 129.0 L 173.0 128.0 L 173.0 128.0 L 172.0 129.0 L 170.0 131.0 L 167.0 133.0 L 165.0 134.0 L 164.0 136.0 L 163.0 138.0 L 163.0 140.0 L 163.0 143.0 L 162.0 147.0 L 162.0 152.0 L 162.0 153.0 L 164.0 154.0 L 172.0 152.0 L 175.0 150.0 " stroke="black" fill="none" stroke-width="5.0" stroke-linecap="round" stroke-linejoin="round" />
<path d="M 166.0 137.0 L 167.0 137.0 L 168.0 137.0 L 170.0 140.0 L 174.0 144.0 L 178.0 149.0 L 182.0 152.0 L 184.0 154.0 L 184.0 154.0 " stroke="black" fill="none" stroke-width="5.0" stroke-linecap="round" stroke-linejoin="round" />
<path d="M 136.0 165.0 L 136.0 165.0 L 136.0 165.0 L 136.0 165.0 L 136.0 169.0 L 136.0 175.0 L 136.0 182.0 L 132.0 198.0 L 130.0 203.0 " stroke="black" fill="none" stroke-width="5.0" stroke-linecap="round" stroke-linejoin="round" />
<path d="M 137.0 176.0 L 137.0 176.0 L 137.0 176.0 L 138.0 176.0 L 139.0 176.0 L 144.0 176.0 L 151.0 176.0 L 158.0 176.0 L 164.0 176.0 L 166.0 177.0 " stroke="black" fill="none" stroke-width="5.0" stroke-linecap="round" stroke-linejoin="round" />
<path d="M 140.0 193.0 L 140.0 193.0 L 141.0 193.0 L 142.0 193.0 L 145.0 193.0 L 149.0 193.0 L 157.0 193.0 L 166.0 193.0 L 169.0 193.0 " stroke="black" fill="none" stroke-width="5.0" stroke-linecap="round" stroke-linejoin="round" />
<path d="M 168.0 172.0 L 168.0 172.0 L 169.0 173.0 L 169.0 174.0 L 170.0 177.0 L 172.0 184.0 L 174.0 194.0 L 175.0 202.0 L 175.0 205.0 L 175.0 208.0 " stroke="black" fill="none" stroke-width="5.0" stroke-linecap="round" stroke-linejoin="round" />
</svg>