<svg xmlns="http://www.w3.org/2000/svg" width="300" height="300" viewBox="0 0 300 300">
<path d="M 102.0 96.0 L 102.0 96.0 L 102.0 96.0 L 102.0 96.0 L 103.0 96.0 L 104.0 97.0 L 106.0 98.0 L 109.0 99.0 L 113.0 100.0 L 118.0 102.0 L 123.0 104.0 L 129.0 106.0 L 135.0 108.0 L 142.0 109.0 L 147.0 110.0 L 152.0 111.0 L 155.0 111.0 L 159.0 111.0 L 163.0 111.0 L 167.0 111.0 L 172.0 110.0 L 176.0 109.0 L 181.0 108.0 L 186.0 106.0 L 190.0 105.0 L 193.0 104.0 L 195.0 102.0 L 198.0 101.0 L 200.0 100.0 L 201.0 99.0 L 203.0 97.0 L 204.0 96.0 L 205.0 96.0 L 205.0 95.0 L 205.0 95.0 " stroke="black" fill="none" stroke-width="5.0" stroke-linecap="round" stroke-linejoin="round" />
</svg>