<svg xmlns="http://www.w3.org/2000/svg" width="300" height="300" viewBox="0 0 300 300">
<path d="M 133.0 170.0 L 134.0 170.0 L 134.0 170.0 L 136.0 171.0 L 138.0 171.0 L 143.0 171.0 L 150.0 171.0 L 157.0 171.0 L 164.0 171.0 L 170.0 171.0 L 176.0 170.0 L 180.0 170.0 L 183.0 170.0 L 187.0 170.0 L 190.0 170.0 L 192.0 171.0 L 195.0 171.0 L 197.0 171.0 L 198.0 171.0 L 200.0 171.0 L 200.0 171.0 L 201.0 171.0 L 201.0 172.0 L 202.0 172.0 L 202.0 173.0 L 203.0 174.0 L 203.0 176.0 L 204.0 179.0 L 204.0 183.0 L 205.0 188.0 L 206.0 195.0 L 207.0 203.0 L 208.0 208.0 L 209.0 212.0 L 209.0 214.0 L 209.0 214.0 L 209.0 214.0 " stroke="black" fill="none" stroke-width="5.0" stroke-linecap="round" stroke-linejoin="round" />
<path d="M 135.0 174.0 L 135.0 174.0 L 135.0 174.0 L 135.0 174.0 L 135.0 174.0 L 135.0 174.0 L 135.0 176.0 L 135.0 180.0 L 136.0 183.0 L 136.0 185.0 L 138.0 186.0 L 140.0 187.0 L 144.0 187.0 L 148.0 187.0 L 152.0 187.0 L 157.0 187.0 L 161.0 187.0 L 165.0 187.0 L 168.0 187.0 L 171.0 187.0 L 174.0 187.0 L 176.0 186.0 L 178.0 186.0 L 180.0 186.0 L 181.0 186.0 L 182.0 186.0 L 183.0 186.0 L 183.0 186.0 L 183.0 186.0 L 183.0 186.0 L 183.0 186.0 L 183.0 186.0 L 184.0 187.0 L 185.0 189.0 L 185.0 193.0 L 186.0 197.0 L 186.0 201.0 L 187.0 205.0 L 188.0 207.0 L 188.0 209.0 L 189.0 209.0 L 189.0 210.0 L 190.0 210.0 L 190.0 211.0 L 190.0 212.0 L 190.0 212.0 L 191.0 213.0 L 191.0 213.0 L 192.0 213.0 L 193.0 213.0 L 194.0 213.0 L 196.0 214.0 L 199.0 214.0 L 201.0 214.0 L 204.0 215.0 L 206.0 215.0 L 208.0 215.0 L 209.0 215.0 L 209.0 215.0 " stroke="black" fill="none" stroke-width="5.0" stroke-linecap="round" stroke-linejoin="round" />
</svg>