<svg xmlns="http://www.w3.org/2000/svg" width="300" height="300" viewBox="0 0 300 300">
<path d="M 93.0 92.0 L 93.0 92.0 L 93.0 92.0 L 94.0 93.0 L 96.0 94.0 L 99.0 95.0 L 103.0 98.0 L 108.0 101.0 L 113.0 104.0 L 118.0 107.0 L 122.0 109.0 L 126.0 112.0 L 129.0 113.0 L 132.0 115.0 L 135.0 116.0 L 137.0 117.0 L 139.0 117.0 L 141.0 118.0 L 142.0 118.0 L 144.0 119.0 L 145.0 120.0 L 147.0 122.0 L 148.0 122.0 L 149.0 123.0 L 149.0 123.0 L 150.0 123.0 L 150.0 123.0 L 150.0 123.0 L 150.0 123.0 L 150.0 123.0 L 150.0 123.0 L 150.0 123.0 L 150.0 123.0 L 150.0 123.0 L 150.0 123.0 L 151.0 123.0 L 153.0 121.0 L 156.0 119.0 L 161.0 116.0 L 168.0 112.0 L 175.0 109.0 L 181.0 106.0 L 186.0 103.0 L 190.0 100.0 L 194.0 98.0 L 197.0 96.0 L 200.0 94.0 L 202.0 93.0 L 203.0 93.0 L 205.0 92.0 L 206.0 91.0 L 208.0 90.0 L 209.0 89.0 L 210.0 89.0 L 210.0 88.0 L 211.0 88.0 L 211.0 88.0 L 211.0 88.0 " stroke="black" fill="none" stroke-width="5.0" stroke-linecap="round" stroke-linejoin="round" />
</svg>