<svg xmlns="http://www.w3.org/2000/svg" width="300" height="300" viewBox="0 0 300 300">
<path d="M 94.0 210.0 L 94.0 210.0 L 94.0 210.0 L 94.0 210.0 L 94.0 211.0 L 94.0 211.0 L 97.0 210.0 L 100.0 207.0 L 105.0 204.0 L 109.0 201.0 L 114.0 197.0 L 119.0 194.0 L 124.0 191.0 L 128.0 189.0 L 131.0 187.0 L 134.0 186.0 L 136.0 185.0 L 137.0 184.0 L 139.0 183.0 L 140.0 183.0 L 141.0 182.0 L 143.0 182.0 L 144.0 181.0 L 144.0 180.0 L 145.0 180.0 L 145.0 180.0 L 145.0 180.0 L 145.0 180.0 L 145.0 180.0 L 145.0 180.0 L 146.0 180.0 L 146.0 180.0 L 147.0 180.0 L 149.0 182.0 L 152.0 184.0 L 155.0 187.0 L 159.0 189.0 L 164.0 192.0 L 168.0 195.0 L 173.0 198.0 L 177.0 200.0 L 181.0 201.0 L 185.0 203.0 L 188.0 204.0 L 190.0 206.0 L 193.0 207.0 L 195.0 208.0 L 196.0 209.0 L 198.0 210.0 L 199.0 211.0 L 200.0 212.0 L 201.0 213.0 L 201.0 213.0 L 202.0 213.0 L 202.0 213.0 " stroke="black" fill="none" stroke-width="5.0" stroke-linecap="round" stroke-linejoin="round" />
</svg>