<svg xmlns="http://www.w3.org/2000/svg" width="300" height="300" viewBox="0 0 300 300">
<path d="M 128.0 106.0 L 128.0 106.0 L 128.0 106.0 L 127.0 106.0 L 126.0 107.0 L 124.0 107.0 L 122.0 109.0 L 121.0 114.0 L 121.0 120.0 L 124.0 126.0 L 130.0 129.0 L 138.0 129.0 L 144.0 126.0 L 146.0 121.0 L 147.0 115.0 L 146.0 110.0 L 142.0 106.0 L 137.0 105.0 L 133.0 105.0 L 130.0 105.0 L 129.0 105.0 " stroke="black" fill="none" stroke-width="5.0" stroke-linecap="round" stroke-linejoin="round" />
<path d="M 179.0 112.0 L 179.0 112.0 L 179.0 112.0 L 179.0 111.0 L 179.0 111.0 L 178.0 111.0 L 176.0 114.0 L 170.0 122.0 L 160.0 136.0 L 149.0 153.0 L 139.0 167.0 L 131.0 179.0 L 125.0 188.0 L 121.0 193.0 L 119.0 195.0 L 118.0 196.0 " stroke="black" fill="none" stroke-width="5.0" stroke-linecap="round" stroke-linejoin="round" />
<path d="M 170.0 173.0 L 170.0 173.0 L 170.0 173.0 L 169.0 174.0 L 168.0 176.0 L 168.0 180.0 L 168.0 186.0 L 170.0 192.0 L 175.0 195.0 L 183.0 195.0 L 189.0 190.0 L 192.0 185.0 L 193.0 179.0 L 193.0 174.0 L 190.0 170.0 L 185.0 167.0 L 179.0 166.0 L 174.0 167.0 L 171.0 167.0 " stroke="black" fill="none" stroke-width="5.0" stroke-linecap="round" stroke-linejoin="round" />
</svg>