<svg xmlns="http://www.w3.org/2000/svg" width="300" height="300" viewBox="0 0 300 300">
<path d="M 100.0 90.0 L 100.0 90.0 L 100.0 91.0 L 99.0 92.0 L 98.0 94.0 L 97.0 98.0 L 96.0 102.0 L 95.0 107.0 L 94.0 112.0 L 94.0 118.0 L 94.0 123.0 L 96.0 128.0 L 97.0 131.0 L 99.0 134.0 L 101.0 137.0 L 102.0 139.0 L 103.0 142.0 L 102.0 144.0 L 101.0 147.0 L 99.0 150.0 L 97.0 153.0 L 95.0 157.0 L 94.0 161.0 L 94.0 165.0 L 94.0 169.0 L 94.0 173.0 L 95.0 177.0 L 97.0 180.0 L 98.0 183.0 L 100.0 186.0 L 101.0 189.0 L 101.0 191.0 L 101.0 194.0 L 100.0 198.0 L 100.0 201.0 L 99.0 205.0 L 99.0 209.0 L 100.0 211.0 L 101.0 212.0 " stroke="black" fill="none" stroke-width="5.0" stroke-linecap="round" stroke-linejoin="round" />
</svg>