<svg xmlns="http://www.w3.org/2000/svg" width="300" height="300" viewBox="0 0 300 300">
<path d="M 101.0 190.0 L 101.0 190.0 L 101.0 190.0 L 101.0 190.0 L 101.0 190.0 L 103.0 190.0 L 107.0 190.0 L 114.0 190.0 L 122.0 190.0 L 131.0 189.0 L 140.0 189.0 L 147.0 188.0 L 153.0 188.0 L 158.0 187.0 L 162.0 187.0 L 165.0 188.0 L 169.0 188.0 L 172.0 189.0 L 175.0 189.0 L 179.0 189.0 L 182.0 189.0 L 185.0 189.0 L 187.0 189.0 L 190.0 189.0 L 192.0 189.0 L 194.0 190.0 L 196.0 190.0 L 198.0 190.0 L 199.0 190.0 L 201.0 190.0 L 202.0 191.0 L 204.0 191.0 L 205.0 191.0 L 205.0 191.0 L 206.0 192.0 L 206.0 193.0 L 207.0 195.0 L 207.0 197.0 L 208.0 201.0 L 208.0 205.0 L 209.0 209.0 L 209.0 212.0 L 209.0 212.0 " stroke="black" fill="none" stroke-width="5.0" stroke-linecap="round" stroke-linejoin="round" />
</svg>