<svg xmlns="http://www.w3.org/2000/svg" width="300" height="300" viewBox="0 0 300 300">
<path d="M 166.0 117.0 L 165.0 117.0 L 165.0 117.0 L 164.0 117.0 L 163.0 117.0 L 159.0 117.0 L 153.0 119.0 L 144.0 124.0 L 136.0 132.0 L 131.0 139.0 L 130.0 146.0 L 133.0 153.0 L 138.0 159.0 L 145.0 163.0 L 152.0 168.0 L 159.0 171.0 L 165.0 175.0 L 170.0 179.0 L 171.0 183.0 L 170.0 187.0 L 167.0 191.0 L 163.0 194.0 L 158.0 197.0 L 153.0 197.0 L 146.0 197.0 L 137.0 197.0 L 129.0 195.0 L 127.0 194.0 " stroke="black" fill="none" stroke-width="5.0" stroke-linecap="round" stroke-linejoin="round" />
<path d="M 148.0 101.0 L 147.0 101.0 L 147.0 102.0 L 147.0 111.0 L 148.0 130.0 L 151.0 159.0 L 154.0 186.0 L 155.0 204.0 L 155.0 212.0 L 156.0 215.0 L 156.0 215.0 L 156.0 213.0 " stroke="black" fill="none" stroke-width="5.0" stroke-linecap="round" stroke-linejoin="round" />
</svg>