<svg xmlns="http://www.w3.org/2000/svg" width="300" height="300" viewBox="0 0 300 300">
<path d="M 93.0 215.0 L 93.0 215.0 L 93.0 215.0 L 93.0 215.0 L 93.0 215.0 L 93.0 214.0 L 93.0 213.0 L 94.0 211.0 L 95.0 208.0 L 97.0 205.0 L 99.0 201.0 L 100.0 197.0 L 102.0 195.0 L 102.0 193.0 L 103.0 192.0 L 103.0 192.0 L 104.0 192.0 L 105.0 192.0 L 107.0 192.0 L 110.0 192.0 L 113.0 192.0 L 117.0 192.0 L 122.0 192.0 L 128.0 191.0 L 134.0 191.0 L 140.0 191.0 L 144.0 191.0 L 153.0 191.0 L 156.0 191.0 L 160.0 191.0 L 163.0 191.0 L 166.0 191.0 L 169.0 191.0 L 172.0 191.0 L 174.0 191.0 L 176.0 191.0 L 178.0 191.0 L 179.0 191.0 L 180.0 191.0 L 181.0 191.0 L 181.0 191.0 L 182.0 191.0 L 182.0 191.0 L 182.0 192.0 L 183.0 193.0 L 185.0 195.0 L 186.0 198.0 L 188.0 202.0 L 190.0 206.0 L 192.0 209.0 L 192.0 211.0 L 193.0 212.0 " stroke="black" fill="none" stroke-width="5.0" stroke-linecap="round" stroke-linejoin="round" />
</svg>