<svg xmlns="http://www.w3.org/2000/svg" width="300" height="300" viewBox="0 0 300 300">
<path d="M 95.0 210.0 L 95.0 210.0 L 95.0 210.0 L 95.0 210.0 L 95.0 210.0 L 95.0 210.0 L 95.0 210.0 L 95.0 209.0 L 96.0 208.0 L 96.0 208.0 L 97.0 206.0 L 98.0 205.0 L 99.0 203.0 L 100.0 202.0 L 102.0 201.0 L 103.0 200.0 L 105.0 199.0 L 107.0 198.0 L 109.0 198.0 L 111.0 198.0 L 113.0 198.0 L 115.0 198.0 L 117.0 198.0 L 118.0 198.0 L 120.0 198.0 L 122.0 199.0 L 124.0 199.0 L 126.0 200.0 L 128.0 200.0 L 130.0 200.0 L 132.0 200.0 L 133.0 200.0 L 135.0 200.0 L 136.0 200.0 L 137.0 199.0 L 138.0 199.0 L 139.0 198.0 L 139.0 198.0 L 140.0 197.0 L 140.0 196.0 L 141.0 195.0 L 142.0 193.0 L 142.0 191.0 L 143.0 189.0 L 143.0 188.0 L 144.0 186.0 L 144.0 184.0 L 145.0 183.0 L 145.0 182.0 L 146.0 181.0 L 146.0 180.0 L 147.0 180.0 L 147.0 180.0 L 147.0 180.0 L 148.0 181.0 L 149.0 183.0 L 150.0 185.0 L 150.0 188.0 L 151.0 191.0 L 152.0 194.0 L 153.0 196.0 L 153.0 198.0 L 154.0 199.0 L 154.0 199.0 L 155.0 200.0 L 156.0 200.0 L 157.0 200.0 L 159.0 200.0 L 161.0 200.0 L 166.0 200.0 L 168.0 200.0 L 171.0 200.0 L 174.0 200.0 L 176.0 200.0 L 178.0 200.0 L 181.0 200.0 L 183.0 201.0 L 186.0 201.0 L 188.0 201.0 L 191.0 201.0 L 193.0 202.0 L 194.0 202.0 L 196.0 202.0 L 197.0 203.0 L 199.0 203.0 L 200.0 204.0 L 201.0 204.0 L 202.0 205.0 L 203.0 205.0 L 204.0 206.0 L 206.0 207.0 L 207.0 208.0 L 208.0 209.0 L 209.0 210.0 L 210.0 212.0 L 211.0 212.0 L 211.0 213.0 L 211.0 214.0 L 211.0 214.0 " stroke="black" fill="none" stroke-width="5.0" stroke-linecap="round" stroke-linejoin="round" />
</svg>