<svg xmlns="http://www.w3.org/2000/svg" width="300" height="300" viewBox="0 0 300 300">
<path d="M 104.0 210.0 L 104.0 210.0 L 103.0 210.0 L 103.0 210.0 L 103.0 210.0 L 103.0 210.0 L 104.0 210.0 L 107.0 208.0 L 112.0 205.0 L 118.0 202.0 L 125.0 199.0 L 132.0 197.0 L 138.0 197.0 L 144.0 196.0 L 149.0 195.0 L 153.0 195.0 L 157.0 195.0 L 161.0 195.0 L 166.0 195.0 L 170.0 195.0 L 175.0 196.0 L 179.0 197.0 L 182.0 199.0 L 186.0 200.0 L 189.0 202.0 L 192.0 205.0 L 194.0 207.0 L 195.0 208.0 L 196.0 209.0 L 197.0 209.0 L 197.0 209.0 L 197.0 209.0 L 197.0 209.0 " stroke="black" fill="none" stroke-width="5.0" stroke-linecap="round" stroke-linejoin="round" />
</svg>