<svg xmlns="http://www.w3.org/2000/svg" width="300" height="300" viewBox="0 0 300 300">
<path d="M 139.0 103.0 L 139.0 103.0 L 139.0 103.0 L 139.0 103.0 L 139.0 103.0 L 139.0 103.0 L 140.0 103.0 L 141.0 103.0 L 143.0 103.0 L 146.0 104.0 L 148.0 106.0 L 150.0 108.0 L 152.0 110.0 L 153.0 113.0 L 154.0 117.0 L 154.0 121.0 L 154.0 125.0 L 154.0 128.0 L 155.0 132.0 L 155.0 135.0 L 155.0 138.0 L 155.0 141.0 L 155.0 143.0 L 155.0 145.0 L 155.0 147.0 L 156.0 148.0 L 156.0 150.0 L 157.0 151.0 L 157.0 152.0 L 158.0 153.0 L 158.0 153.0 L 160.0 154.0 L 161.0 154.0 L 163.0 155.0 L 165.0 156.0 L 166.0 157.0 L 167.0 158.0 L 168.0 158.0 L 168.0 159.0 L 168.0 161.0 L 168.0 162.0 L 166.0 164.0 L 165.0 165.0 L 163.0 166.0 L 161.0 168.0 L 160.0 169.0 L 159.0 170.0 L 158.0 171.0 L 158.0 173.0 L 158.0 174.0 L 158.0 177.0 L 158.0 179.0 L 158.0 182.0 L 158.0 184.0 L 159.0 187.0 L 159.0 190.0 L 159.0 193.0 L 159.0 196.0 L 159.0 199.0 L 159.0 201.0 L 158.0 203.0 L 157.0 206.0 L 156.0 208.0 L 154.0 210.0 L 153.0 211.0 L 150.0 211.0 L 145.0 211.0 " stroke="black" fill="none" stroke-width="5.0" stroke-linecap="round" stroke-linejoin="round" />
</svg>