<svg xmlns="http://www.w3.org/2000/svg" width="300" height="300" viewBox="0 0 300 300">
<path d="M 150.0 113.0 L 150.0 113.0 L 150.0 113.0 L 150.0 113.0 L 151.0 113.0 L 151.0 113.0 L 151.0 114.0 L 151.0 115.0 L 150.0 115.0 L 148.0 115.0 L 147.0 115.0 L 146.0 113.0 L 146.0 111.0 L 146.0 110.0 L 147.0 108.0 L 148.0 108.0 L 150.0 108.0 L 151.0 109.0 L 152.0 112.0 L 152.0 114.0 L 152.0 115.0 L 150.0 116.0 L 149.0 116.0 L 148.0 114.0 L 148.0 112.0 L 148.0 110.0 L 149.0 110.0 L 150.0 110.0 L 151.0 110.0 L 151.0 111.0 L 151.0 111.0 " stroke="black" fill="none" stroke-width="5.0" stroke-linecap="round" stroke-linejoin="round" />
<path d="M 150.0 185.0 L 150.0 185.0 L 150.0 185.0 L 150.0 185.0 L 151.0 184.0 L 151.0 184.0 L 151.0 184.0 L 151.0 185.0 L 151.0 186.0 L 151.0 186.0 L 150.0 186.0 L 150.0 186.0 L 150.0 185.0 L 150.0 184.0 L 150.0 184.0 L 151.0 183.0 L 152.0 183.0 L 153.0 185.0 L 153.0 187.0 L 153.0 188.0 L 152.0 189.0 L 151.0 189.0 L 150.0 189.0 L 149.0 189.0 L 149.0 188.0 L 149.0 188.0 L 149.0 188.0 L 149.0 187.0 L 149.0 187.0 L 149.0 187.0 L 149.0 187.0 L 149.0 186.0 L 149.0 186.0 L 149.0 185.0 L 149.0 184.0 L 149.0 184.0 L 150.0 184.0 L 151.0 184.0 L 152.0 185.0 L 152.0 186.0 L 152.0 187.0 L 152.0 188.0 L 151.0 188.0 L 150.0 188.0 L 149.0 188.0 L 149.0 188.0 L 149.0 187.0 L 149.0 187.0 L 150.0 186.0 L 150.0 186.0 L 151.0 186.0 L 151.0 186.0 L 151.0 186.0 L 151.0 186.0 L 150.0 186.0 L 150.0 186.0 L 150.0 186.0 L 150.0 185.0 L 150.0 184.0 L 150.0 184.0 L 151.0 184.0 L 152.0 184.0 L 153.0 184.0 L 154.0 187.0 L 154.0 190.0 L 154.0 195.0 L 151.0 200.0 L 148.0 203.0 " stroke="black" fill="none" stroke-width="5.0" stroke-linecap="round" stroke-linejoin="round" />
</svg>