<svg xmlns="http://www.w3.org/2000/svg" width="300" height="300" viewBox="0 0 300 300">
<path d="M 156.0 109.0 L 156.0 109.0 L 156.0 109.0 L 157.0 109.0 L 157.0 109.0 L 157.0 109.0 L 157.0 109.0 L 157.0 109.0 L 156.0 110.0 L 154.0 111.0 L 152.0 112.0 L 149.0 114.0 L 147.0 117.0 L 145.0 119.0 L 144.0 122.0 L 143.0 125.0 L 143.0 129.0 L 143.0 133.0 L 143.0 138.0 L 143.0 141.0 L 143.0 145.0 L 144.0 147.0 L 144.0 150.0 L 144.0 151.0 L 144.0 151.0 L 144.0 151.0 L 144.0 151.0 L 144.0 151.0 L 144.0 151.0 L 144.0 151.0 L 143.0 152.0 L 142.0 153.0 L 140.0 154.0 L 138.0 155.0 L 136.0 156.0 L 135.0 157.0 L 134.0 159.0 L 134.0 160.0 L 133.0 161.0 L 133.0 162.0 L 134.0 163.0 L 136.0 164.0 L 138.0 165.0 L 139.0 166.0 L 141.0 166.0 L 142.0 167.0 L 143.0 168.0 L 143.0 170.0 L 144.0 172.0 L 144.0 175.0 L 144.0 178.0 L 144.0 182.0 L 144.0 185.0 L 144.0 188.0 L 144.0 191.0 L 144.0 194.0 L 144.0 197.0 L 144.0 199.0 L 144.0 202.0 L 145.0 204.0 L 146.0 206.0 L 147.0 208.0 L 149.0 210.0 L 151.0 213.0 L 153.0 214.0 L 156.0 215.0 L 158.0 215.0 " stroke="black" fill="none" stroke-width="5.0" stroke-linecap="round" stroke-linejoin="round" />
</svg>