<svg xmlns="http://www.w3.org/2000/svg" width="300" height="300" viewBox="0 0 300 300">
<path d="M 205.0 206.0 L 205.0 206.0 L 205.0 206.0 L 205.0 206.0 L 205.0 206.0 L 205.0 206.0 L 203.0 206.0 L 200.0 205.0 L 196.0 204.0 L 192.0 204.0 L 186.0 204.0 L 181.0 204.0 L 177.0 205.0 L 172.0 207.0 L 168.0 209.0 L 164.0 210.0 L 161.0 211.0 L 159.0 211.0 L 157.0 211.0 L 155.0 210.0 L 152.0 208.0 L 150.0 207.0 L 148.0 206.0 L 146.0 205.0 L 144.0 205.0 L 141.0 204.0 L 138.0 204.0 L 135.0 205.0 L 132.0 206.0 L 130.0 207.0 L 127.0 208.0 L 124.0 209.0 L 122.0 209.0 L 120.0 209.0 L 117.0 209.0 L 114.0 208.0 L 110.0 207.0 L 106.0 207.0 L 102.0 207.0 L 99.0 207.0 L 95.0 209.0 L 91.0 211.0 L 89.0 213.0 L 88.0 214.0 L 88.0 214.0 " stroke="black" fill="none" stroke-width="5.0" stroke-linecap="round" stroke-linejoin="round" />
</svg>