<svg xmlns="http://www.w3.org/2000/svg" width="300" height="300" viewBox="0 0 300 300">
<path d="M 129.0 114.0 L 129.0 114.0 L 129.0 114.0 L 129.0 113.0 L 133.0 112.0 L 141.0 110.0 L 151.0 110.0 L 160.0 112.0 L 167.0 116.0 L 172.0 122.0 L 175.0 128.0 L 176.0 134.0 L 176.0 140.0 L 174.0 145.0 L 170.0 149.0 L 164.0 153.0 L 159.0 157.0 L 154.0 161.0 L 151.0 166.0 L 150.0 170.0 L 150.0 175.0 L 150.0 180.0 L 151.0 183.0 L 152.0 185.0 " stroke="black" fill="none" stroke-width="5.0" stroke-linecap="round" stroke-linejoin="round" />
<path d="M 151.0 204.0 L 151.0 204.0 L 151.0 204.0 L 151.0 204.0 L 151.0 204.0 L 150.0 205.0 L 150.0 205.0 L 149.0 204.0 L 149.0 203.0 L 149.0 202.0 L 149.0 201.0 L 150.0 200.0 L 152.0 200.0 L 153.0 200.0 L 153.0 202.0 L 153.0 204.0 L 153.0 205.0 L 151.0 206.0 L 150.0 206.0 L 150.0 206.0 L 149.0 206.0 L 150.0 205.0 L 151.0 204.0 L 152.0 203.0 L 153.0 203.0 L 153.0 203.0 L 153.0 203.0 L 152.0 204.0 L 151.0 204.0 L 150.0 204.0 L 149.0 204.0 L 149.0 204.0 L 149.0 204.0 L 149.0 204.0 L 149.0 204.0 L 150.0 204.0 " stroke="black" fill="none" stroke-width="5.0" stroke-linecap="round" stroke-linejoin="round" />
</svg>