<svg xmlns="http://www.w3.org/2000/svg" width="300" height="300" viewBox="0 0 300 300">
<path d="M 150.0 120.0 L 150.0 121.0 L 150.0 122.0 L 150.0 123.0 L 150.0 124.0 L 150.0 125.0 L 150.0 126.0 L 149.0 127.0 L 148.0 127.0 L 147.0 126.0 L 147.0 124.0 L 147.0 121.0 L 148.0 120.0 L 150.0 119.0 L 151.0 119.0 L 152.0 120.0 L 153.0 123.0 L 153.0 124.0 L 153.0 125.0 L 151.0 125.0 L 150.0 125.0 L 149.0 123.0 L 149.0 122.0 L 149.0 122.0 L 150.0 122.0 L 151.0 122.0 L 152.0 122.0 L 152.0 123.0 L 152.0 124.0 L 152.0 124.0 " stroke="black" fill="none" stroke-width="5.0" stroke-linecap="round" stroke-linejoin="round" />
<path d="M 152.0 189.0 L 152.0 189.0 L 152.0 189.0 L 152.0 189.0 L 152.0 189.0 L 152.0 189.0 L 151.0 189.0 L 151.0 189.0 L 150.0 189.0 L 150.0 189.0 L 149.0 189.0 L 149.0 188.0 L 149.0 186.0 L 150.0 186.0 L 152.0 185.0 L 154.0 186.0 L 155.0 187.0 L 155.0 189.0 L 155.0 190.0 L 154.0 191.0 L 152.0 191.0 L 151.0 191.0 L 150.0 189.0 L 150.0 188.0 L 150.0 186.0 L 151.0 185.0 L 153.0 185.0 L 153.0 185.0 L 154.0 186.0 L 154.0 187.0 L 153.0 188.0 L 152.0 188.0 L 152.0 188.0 L 151.0 187.0 L 151.0 187.0 L 151.0 186.0 L 151.0 186.0 " stroke="black" fill="none" stroke-width="5.0" stroke-linecap="round" stroke-linejoin="round" />
</svg>