<svg xmlns="http://www.w3.org/2000/svg" width="300" height="300" viewBox="0 0 300 300">
<path d="M 94.0 90.0 L 94.0 90.0 L 94.0 90.0 L 94.0 89.0 L 94.0 89.0 L 94.0 89.0 L 95.0 89.0 L 95.0 90.0 L 97.0 92.0 L 98.0 94.0 L 99.0 95.0 L 101.0 97.0 L 103.0 98.0 L 105.0 100.0 L 107.0 100.0 L 109.0 101.0 L 111.0 102.0 L 113.0 102.0 L 115.0 102.0 L 117.0 102.0 L 119.0 102.0 L 122.0 102.0 L 124.0 102.0 L 126.0 102.0 L 128.0 102.0 L 129.0 102.0 L 131.0 102.0 L 133.0 103.0 L 135.0 103.0 L 136.0 103.0 L 137.0 103.0 L 138.0 103.0 L 138.0 103.0 L 138.0 103.0 L 138.0 103.0 L 139.0 104.0 L 139.0 104.0 L 140.0 105.0 L 140.0 106.0 L 141.0 108.0 L 142.0 110.0 L 143.0 112.0 L 144.0 114.0 L 145.0 116.0 L 146.0 118.0 L 147.0 119.0 L 148.0 120.0 L 149.0 120.0 L 150.0 120.0 L 151.0 120.0 L 152.0 119.0 L 153.0 118.0 L 154.0 117.0 L 155.0 116.0 L 156.0 114.0 L 157.0 113.0 L 158.0 111.0 L 159.0 110.0 L 160.0 108.0 L 160.0 107.0 L 161.0 107.0 L 161.0 106.0 L 161.0 106.0 L 162.0 106.0 L 163.0 106.0 L 165.0 106.0 L 166.0 106.0 L 169.0 106.0 L 171.0 106.0 L 174.0 106.0 L 177.0 107.0 L 180.0 107.0 L 182.0 107.0 L 185.0 107.0 L 187.0 106.0 L 189.0 106.0 L 191.0 105.0 L 193.0 105.0 L 194.0 104.0 L 196.0 104.0 L 197.0 103.0 L 198.0 103.0 L 200.0 102.0 L 201.0 102.0 L 202.0 101.0 L 202.0 101.0 L 203.0 100.0 L 204.0 100.0 L 204.0 99.0 L 205.0 99.0 L 205.0 98.0 L 206.0 97.0 L 207.0 95.0 L 207.0 93.0 L 208.0 91.0 L 208.0 90.0 L 209.0 88.0 L 209.0 87.0 L 209.0 86.0 " stroke="black" fill="none" stroke-width="5.0" stroke-linecap="round" stroke-linejoin="round" />
</svg>