<svg xmlns="http://www.w3.org/2000/svg" width="300" height="300" viewBox="0 0 300 300">
<path d="M 141.0 109.0 L 141.0 109.0 L 141.0 109.0 L 141.0 109.0 L 141.0 109.0 L 141.0 109.0 L 143.0 111.0 L 146.0 113.0 L 150.0 116.0 L 153.0 118.0 L 155.0 120.0 L 157.0 121.0 L 158.0 122.0 L 159.0 122.0 L 159.0 122.0 L 159.0 122.0 L 158.0 124.0 L 158.0 126.0 L 157.0 130.0 L 157.0 136.0 L 157.0 141.0 L 157.0 147.0 L 157.0 152.0 L 157.0 158.0 L 157.0 163.0 L 157.0 167.0 L 157.0 171.0 L 157.0 175.0 L 157.0 179.0 L 157.0 183.0 L 157.0 186.0 L 157.0 189.0 L 157.0 191.0 L 157.0 193.0 L 158.0 195.0 L 158.0 197.0 L 158.0 199.0 L 158.0 200.0 L 158.0 201.0 L 158.0 202.0 L 158.0 202.0 L 158.0 202.0 L 158.0 202.0 L 158.0 202.0 L 158.0 202.0 L 158.0 202.0 L 158.0 202.0 L 158.0 202.0 L 156.0 203.0 L 153.0 204.0 L 148.0 207.0 L 143.0 210.0 " stroke="black" fill="none" stroke-width="5.0" stroke-linecap="round" stroke-linejoin="round" />
</svg>