<svg xmlns="http://www.w3.org/2000/svg" width="300" height="300" viewBox="0 0 300 300">
<path d="M 96.0 86.0 L 96.0 86.0 L 96.0 86.0 L 96.0 87.0 L 99.0 87.0 L 104.0 87.0 L 110.0 87.0 L 116.0 87.0 L 121.0 86.0 L 123.0 86.0 " stroke="black" fill="none" stroke-width="5.0" stroke-linecap="round" stroke-linejoin="round" />
<path d="M 137.0 84.0 L 137.0 84.0 L 137.0 84.0 L 137.0 85.0 L 139.0 85.0 L 143.0 85.0 L 150.0 85.0 L 159.0 86.0 L 166.0 86.0 L 167.0 86.0 " stroke="black" fill="none" stroke-width="5.0" stroke-linecap="round" stroke-linejoin="round" />
<path d="M 178.0 84.0 L 178.0 84.0 L 179.0 84.0 L 181.0 85.0 L 183.0 85.0 L 189.0 85.0 L 196.0 85.0 L 202.0 85.0 L 204.0 85.0 " stroke="black" fill="none" stroke-width="5.0" stroke-linecap="round" stroke-linejoin="round" />
</svg>