<svg xmlns="http://www.w3.org/2000/svg" width="300" height="300" viewBox="0 0 300 300">
<path d="M 99.0 85.0 L 99.0 85.0 L 99.0 85.0 L 99.0 85.0 L 98.0 85.0 L 98.0 85.0 L 100.0 85.0 L 104.0 85.0 L 112.0 85.0 L 120.0 84.0 L 127.0 84.0 L 130.0 84.0 " stroke="black" fill="none" stroke-width="5.0" stroke-linecap="round" stroke-linejoin="round" />
<path d="M 150.0 84.0 L 150.0 84.0 L 149.0 84.0 L 149.0 84.0 L 149.0 85.0 " stroke="black" fill="none" stroke-width="5.0" stroke-linecap="round" stroke-linejoin="round" />
<path d="M 172.0 87.0 L 172.0 87.0 L 172.0 87.0 L 173.0 87.0 L 173.0 87.0 L 175.0 87.0 L 178.0 87.0 L 182.0 86.0 L 189.0 86.0 L 196.0 85.0 L 202.0 84.0 L 206.0 83.0 L 208.0 83.0 L 208.0 82.0 L 208.0 82.0 " stroke="black" fill="none" stroke-width="5.0" stroke-linecap="round" stroke-linejoin="round" />
</svg>