<svg xmlns="http://www.w3.org/2000/svg" width="300" height="300" viewBox="0 0 300 300">
<path d="M 122.0 109.0 L 122.0 109.0 L 122.0 109.0 L 122.0 109.0 L 123.0 110.0 L 123.0 113.0 L 123.0 122.0 L 123.0 139.0 L 122.0 163.0 L 120.0 183.0 L 119.0 195.0 L 119.0 197.0 L 119.0 197.0 " stroke="black" fill="none" stroke-width="5.0" stroke-linecap="round" stroke-linejoin="round" />
<path d="M 124.0 157.0 L 124.0 157.0 L 124.0 157.0 L 124.0 157.0 L 126.0 158.0 L 136.0 158.0 L 151.0 158.0 L 164.0 158.0 L 172.0 158.0 L 173.0 158.0 " stroke="black" fill="none" stroke-width="5.0" stroke-linecap="round" stroke-linejoin="round" />
<path d="M 172.0 114.0 L 172.0 114.0 L 172.0 114.0 L 172.0 114.0 L 173.0 120.0 L 175.0 137.0 L 177.0 162.0 L 178.0 182.0 L 179.0 192.0 L 180.0 196.0 L 180.0 196.0 L 180.0 195.0 " stroke="black" fill="none" stroke-width="5.0" stroke-linecap="round" stroke-linejoin="round" />
</svg>