<svg xmlns="http://www.w3.org/2000/svg" width="300" height="300" viewBox="0 0 300 300">
<path d="M 151.0 155.0 L 151.0 155.0 L 151.0 155.0 L 151.0 155.0 L 151.0 155.0 L 151.0 155.0 L 151.0 155.0 L 151.0 155.0 L 150.0 155.0 L 150.0 155.0 L 149.0 155.0 L 148.0 155.0 L 148.0 153.0 L 148.0 151.0 L 148.0 149.0 L 150.0 147.0 L 152.0 146.0 L 154.0 146.0 L 156.0 147.0 L 157.0 149.0 L 158.0 152.0 L 158.0 156.0 L 158.0 159.0 L 156.0 161.0 L 153.0 163.0 L 151.0 163.0 L 148.0 162.0 L 147.0 159.0 L 146.0 157.0 L 146.0 155.0 L 146.0 153.0 L 148.0 151.0 L 150.0 150.0 L 152.0 149.0 L 155.0 150.0 L 156.0 152.0 L 157.0 154.0 L 157.0 157.0 L 156.0 159.0 L 153.0 160.0 L 151.0 160.0 L 149.0 159.0 L 148.0 158.0 L 148.0 156.0 L 149.0 155.0 L 151.0 154.0 L 153.0 154.0 L 154.0 154.0 L 155.0 155.0 L 155.0 157.0 L 154.0 158.0 L 153.0 159.0 L 151.0 159.0 L 150.0 157.0 L 150.0 155.0 L 150.0 154.0 L 150.0 153.0 L 152.0 153.0 L 153.0 153.0 L 153.0 153.0 L 154.0 154.0 L 154.0 156.0 L 154.0 157.0 L 153.0 157.0 " stroke="black" fill="none" stroke-width="5.0" stroke-linecap="round" stroke-linejoin="round" />
</svg>