<svg xmlns="http://www.w3.org/2000/svg" width="300" height="300" viewBox="0 0 300 300">
<path d="M 132.0 120.0 L 132.0 120.0 L 132.0 120.0 L 132.0 120.0 L 132.0 120.0 L 131.0 121.0 L 131.0 126.0 L 131.0 141.0 L 130.0 160.0 L 130.0 172.0 L 131.0 176.0 L 131.0 176.0 " stroke="black" fill="none" stroke-width="5.0" stroke-linecap="round" stroke-linejoin="round" />
<path d="M 138.0 116.0 L 137.0 116.0 L 137.0 117.0 L 137.0 117.0 L 141.0 117.0 L 146.0 116.0 L 151.0 116.0 L 155.0 115.0 L 157.0 115.0 L 158.0 115.0 L 159.0 117.0 L 159.0 122.0 L 159.0 133.0 L 159.0 149.0 L 159.0 162.0 L 159.0 170.0 L 159.0 173.0 L 159.0 174.0 L 159.0 173.0 " stroke="black" fill="none" stroke-width="5.0" stroke-linecap="round" stroke-linejoin="round" />
<path d="M 129.0 178.0 L 130.0 178.0 L 132.0 179.0 L 138.0 180.0 L 145.0 180.0 L 152.0 180.0 L 156.0 179.0 " stroke="black" fill="none" stroke-width="5.0" stroke-linecap="round" stroke-linejoin="round" />
</svg>