<svg xmlns="http://www.w3.org/2000/svg" width="300" height="300" viewBox="0 0 300 300">
<path d="M 129.0 132.0 L 129.0 132.0 L 129.0 132.0 L 129.0 132.0 L 129.0 132.0 L 129.0 132.0 L 129.0 133.0 L 129.0 133.0 L 129.0 135.0 L 126.0 138.0 L 122.0 143.0 L 118.0 147.0 L 116.0 150.0 L 115.0 151.0 L 115.0 153.0 L 118.0 156.0 L 122.0 160.0 L 126.0 164.0 L 130.0 169.0 L 133.0 173.0 L 134.0 176.0 L 134.0 176.0 " stroke="black" fill="none" stroke-width="5.0" stroke-linecap="round" stroke-linejoin="round" />
<path d="M 118.0 148.0 L 118.0 148.0 L 118.0 148.0 L 118.0 148.0 L 118.0 149.0 L 120.0 150.0 L 127.0 150.0 L 137.0 150.0 L 147.0 150.0 L 155.0 150.0 L 161.0 150.0 L 165.0 150.0 L 167.0 150.0 L 167.0 150.0 L 167.0 150.0 L 167.0 150.0 L 166.0 150.0 L 166.0 150.0 " stroke="black" fill="none" stroke-width="5.0" stroke-linecap="round" stroke-linejoin="round" />
</svg>