<svg xmlns="http://www.w3.org/2000/svg" width="300" height="300" viewBox="0 0 300 300">
<path d="M 135.0 118.0 L 135.0 118.0 L 134.0 118.0 L 134.0 122.0 L 134.0 136.0 L 134.0 158.0 L 133.0 179.0 L 132.0 194.0 L 132.0 201.0 L 132.0 203.0 L 132.0 203.0 " stroke="black" fill="none" stroke-width="5.0" stroke-linecap="round" stroke-linejoin="round" />
<path d="M 137.0 134.0 L 137.0 134.0 L 137.0 132.0 L 137.0 130.0 L 139.0 127.0 L 143.0 123.0 L 148.0 121.0 L 154.0 119.0 L 160.0 120.0 L 165.0 126.0 L 169.0 134.0 L 170.0 142.0 L 169.0 150.0 L 165.0 156.0 L 159.0 160.0 L 152.0 162.0 L 143.0 163.0 L 136.0 158.0 " stroke="black" fill="none" stroke-width="5.0" stroke-linecap="round" stroke-linejoin="round" />
</svg>