<svg xmlns="http://www.w3.org/2000/svg" width="300" height="300" viewBox="0 0 300 300">
<path d="M 152.0 120.0 L 152.0 120.0 L 152.0 120.0 L 152.0 121.0 L 153.0 121.0 L 153.0 121.0 L 153.0 121.0 L 153.0 121.0 L 151.0 122.0 L 150.0 122.0 L 148.0 121.0 L 147.0 119.0 L 147.0 116.0 L 147.0 113.0 L 149.0 111.0 L 151.0 111.0 L 154.0 112.0 L 155.0 115.0 L 156.0 119.0 L 156.0 121.0 L 155.0 123.0 L 152.0 123.0 L 150.0 123.0 L 148.0 120.0 L 147.0 118.0 L 147.0 116.0 L 147.0 113.0 L 149.0 112.0 L 152.0 112.0 L 154.0 113.0 L 156.0 116.0 L 157.0 119.0 L 157.0 122.0 L 155.0 123.0 L 153.0 124.0 L 151.0 122.0 L 150.0 120.0 L 150.0 118.0 L 150.0 116.0 L 151.0 115.0 L 152.0 115.0 L 152.0 116.0 " stroke="black" fill="none" stroke-width="5.0" stroke-linecap="round" stroke-linejoin="round" />
<path d="M 151.0 181.0 L 151.0 181.0 L 151.0 181.0 L 151.0 181.0 L 151.0 181.0 L 152.0 181.0 L 152.0 182.0 L 152.0 182.0 L 152.0 183.0 L 151.0 183.0 L 150.0 183.0 L 149.0 183.0 L 148.0 181.0 L 148.0 179.0 L 148.0 177.0 L 148.0 174.0 L 149.0 173.0 L 151.0 173.0 L 153.0 174.0 L 155.0 177.0 L 155.0 181.0 L 155.0 185.0 L 154.0 187.0 L 153.0 188.0 L 151.0 187.0 L 149.0 184.0 L 148.0 181.0 L 148.0 178.0 L 148.0 176.0 L 149.0 174.0 L 151.0 174.0 L 152.0 174.0 L 153.0 177.0 L 154.0 180.0 L 154.0 182.0 L 154.0 183.0 L 153.0 183.0 L 153.0 180.0 L 153.0 179.0 L 152.0 178.0 L 152.0 178.0 " stroke="black" fill="none" stroke-width="5.0" stroke-linecap="round" stroke-linejoin="round" />
</svg>