<svg xmlns="http://www.w3.org/2000/svg" width="300" height="300" viewBox="0 0 300 300">
<path d="M 130.0 104.0 L 130.0 104.0 L 130.0 106.0 L 130.0 113.0 L 130.0 129.0 L 130.0 154.0 L 129.0 174.0 L 128.0 187.0 L 127.0 191.0 L 127.0 192.0 " stroke="black" fill="none" stroke-width="5.0" stroke-linecap="round" stroke-linejoin="round" />
<path d="M 165.0 123.0 L 165.0 123.0 L 165.0 123.0 L 165.0 124.0 L 165.0 126.0 L 163.0 130.0 L 157.0 138.0 L 149.0 147.0 L 140.0 156.0 L 134.0 159.0 L 132.0 160.0 L 132.0 160.0 L 135.0 160.0 L 140.0 162.0 L 145.0 166.0 L 151.0 173.0 L 160.0 184.0 L 171.0 193.0 L 179.0 197.0 L 181.0 199.0 L 182.0 200.0 " stroke="black" fill="none" stroke-width="5.0" stroke-linecap="round" stroke-linejoin="round" />
</svg>