<svg xmlns="http://www.w3.org/2000/svg" width="300" height="300" viewBox="0 0 300 300">
<path d="M 151.0 119.0 L 151.0 119.0 L 151.0 118.0 L 150.0 118.0 L 148.0 118.0 L 145.0 119.0 L 140.0 122.0 L 132.0 129.0 L 123.0 141.0 L 117.0 155.0 L 116.0 169.0 L 121.0 180.0 L 131.0 188.0 L 144.0 192.0 L 157.0 192.0 L 168.0 186.0 L 177.0 178.0 L 182.0 169.0 L 183.0 161.0 L 183.0 151.0 L 180.0 142.0 L 176.0 133.0 L 171.0 126.0 L 164.0 120.0 L 158.0 117.0 L 152.0 115.0 L 147.0 115.0 L 144.0 118.0 " stroke="black" fill="none" stroke-width="5.0" stroke-linecap="round" stroke-linejoin="round" />
<path d="M 162.0 173.0 L 162.0 172.0 L 162.0 172.0 L 163.0 171.0 L 165.0 172.0 L 172.0 178.0 L 182.0 186.0 L 188.0 191.0 " stroke="black" fill="none" stroke-width="5.0" stroke-linecap="round" stroke-linejoin="round" />
</svg>