<svg xmlns="http://www.w3.org/2000/svg" width="300" height="300" viewBox="0 0 300 300">
<path d="M 162.0 138.0 L 162.0 138.0 L 162.0 138.0 L 162.0 137.0 L 162.0 136.0 L 161.0 134.0 L 158.0 132.0 L 154.0 130.0 L 149.0 128.0 L 142.0 128.0 L 137.0 131.0 L 131.0 139.0 L 127.0 151.0 L 126.0 165.0 L 128.0 176.0 L 134.0 183.0 L 141.0 184.0 L 149.0 182.0 L 156.0 175.0 L 160.0 167.0 L 163.0 158.0 L 164.0 149.0 L 165.0 142.0 L 165.0 139.0 L 164.0 139.0 L 164.0 143.0 L 166.0 152.0 L 170.0 161.0 L 175.0 169.0 L 181.0 175.0 L 187.0 177.0 " stroke="black" fill="none" stroke-width="5.0" stroke-linecap="round" stroke-linejoin="round" />
</svg>