<svg xmlns="http://www.w3.org/2000/svg" width="300" height="300" viewBox="0 0 300 300">
<path d="M 206.0 99.0 L 206.0 99.0 L 206.0 99.0 L 205.0 99.0 L 204.0 101.0 L 202.0 104.0 L 199.0 110.0 L 196.0 116.0 L 193.0 124.0 L 192.0 134.0 L 191.0 144.0 L 191.0 154.0 L 192.0 163.0 L 195.0 174.0 L 199.0 185.0 L 205.0 194.0 L 211.0 199.0 L 213.0 199.0 " stroke="black" fill="none" stroke-width="5.0" stroke-linecap="round" stroke-linejoin="round" />
<path d="M 192.0 91.0 L 192.0 92.0 L 192.0 93.0 L 191.0 94.0 L 190.0 95.0 L 190.0 96.0 L 189.0 97.0 L 188.0 99.0 L 187.0 101.0 L 185.0 103.0 L 184.0 106.0 L 183.0 108.0 L 182.0 111.0 L 181.0 113.0 L 180.0 116.0 L 179.0 118.0 L 178.0 120.0 L 177.0 123.0 L 177.0 125.0 L 176.0 127.0 L 176.0 130.0 L 175.0 133.0 L 174.0 136.0 L 174.0 139.0 L 174.0 141.0 L 174.0 143.0 L 174.0 146.0 L 174.0 147.0 L 174.0 149.0 L 174.0 151.0 L 174.0 153.0 L 175.0 155.0 L 175.0 157.0 L 176.0 159.0 L 177.0 161.0 L 178.0 164.0 L 179.0 166.0 L 180.0 169.0 L 181.0 171.0 L 182.0 175.0 L 184.0 180.0 L 186.0 185.0 L 187.0 190.0 L 189.0 194.0 L 191.0 197.0 L 193.0 200.0 L 195.0 201.0 L 196.0 202.0 " stroke="black" fill="none" stroke-width="5.0" stroke-linecap="round" stroke-linejoin="round" />
</svg>