<svg xmlns="http://www.w3.org/2000/svg" width="300" height="300" viewBox="0 0 300 300">
<path d="M 136.0 118.0 L 136.0 118.0 L 136.0 118.0 L 137.0 118.0 L 138.0 118.0 L 140.0 118.0 L 145.0 118.0 L 149.0 117.0 L 153.0 116.0 L 155.0 116.0 L 156.0 116.0 L 157.0 118.0 L 158.0 123.0 L 158.0 133.0 L 159.0 149.0 L 161.0 163.0 L 162.0 174.0 L 163.0 180.0 L 163.0 182.0 L 163.0 182.0 L 161.0 181.0 " stroke="black" fill="none" stroke-width="5.0" stroke-linecap="round" stroke-linejoin="round" />
<path d="M 136.0 153.0 L 136.0 153.0 L 135.0 153.0 L 134.0 153.0 L 136.0 153.0 L 142.0 153.0 L 149.0 154.0 L 155.0 155.0 L 157.0 155.0 " stroke="black" fill="none" stroke-width="5.0" stroke-linecap="round" stroke-linejoin="round" />
<path d="M 124.0 181.0 L 125.0 181.0 L 127.0 181.0 L 130.0 182.0 L 137.0 182.0 L 146.0 182.0 L 155.0 182.0 L 162.0 182.0 L 167.0 183.0 L 168.0 183.0 " stroke="black" fill="none" stroke-width="5.0" stroke-linecap="round" stroke-linejoin="round" />
</svg>