<svg xmlns="http://www.w3.org/2000/svg" width="300" height="300" viewBox="0 0 300 300">
<path d="M 146.0 104.0 L 146.0 104.0 L 146.0 104.0 L 145.0 104.0 L 145.0 106.0 L 145.0 117.0 L 146.0 135.0 L 148.0 155.0 L 148.0 168.0 L 149.0 174.0 L 149.0 176.0 L 149.0 176.0 " stroke="black" fill="none" stroke-width="5.0" stroke-linecap="round" stroke-linejoin="round" />
<path d="M 148.0 198.0 L 148.0 198.0 L 148.0 198.0 L 148.0 198.0 L 149.0 198.0 L 149.0 199.0 L 149.0 200.0 L 149.0 201.0 L 149.0 201.0 L 149.0 201.0 L 149.0 200.0 L 149.0 199.0 L 149.0 199.0 L 149.0 199.0 L 150.0 199.0 L 150.0 199.0 L 150.0 199.0 L 150.0 199.0 L 150.0 199.0 L 150.0 199.0 L 150.0 199.0 L 150.0 199.0 L 150.0 198.0 L 150.0 198.0 L 150.0 198.0 L 150.0 198.0 L 150.0 199.0 L 150.0 200.0 L 150.0 201.0 L 150.0 201.0 L 149.0 201.0 L 149.0 201.0 L 149.0 201.0 " stroke="black" fill="none" stroke-width="5.0" stroke-linecap="round" stroke-linejoin="round" />
</svg>