<svg xmlns="http://www.w3.org/2000/svg" width="300" height="300" viewBox="0 0 300 300">
<path d="M 133.0 110.0 L 133.0 110.0 L 133.0 110.0 L 134.0 111.0 L 137.0 111.0 L 144.0 111.0 L 155.0 111.0 L 163.0 111.0 L 163.0 111.0 " stroke="black" fill="none" stroke-width="5.0" stroke-linecap="round" stroke-linejoin="round" />
<path d="M 149.0 117.0 L 149.0 117.0 L 149.0 117.0 L 149.0 117.0 L 148.0 118.0 L 148.0 126.0 L 149.0 144.0 L 150.0 166.0 L 150.0 181.0 L 151.0 189.0 L 151.0 191.0 L 151.0 191.0 " stroke="black" fill="none" stroke-width="5.0" stroke-linecap="round" stroke-linejoin="round" />
<path d="M 124.0 194.0 L 124.0 194.0 L 124.0 194.0 L 130.0 194.0 L 143.0 194.0 L 158.0 194.0 L 170.0 193.0 L 177.0 194.0 L 179.0 195.0 L 179.0 195.0 L 179.0 195.0 " stroke="black" fill="none" stroke-width="5.0" stroke-linecap="round" stroke-linejoin="round" />
</svg>