<svg xmlns="http://www.w3.org/2000/svg" width="300" height="300" viewBox="0 0 300 300">
<path d="M 97.0 94.0 L 97.0 94.0 L 97.0 94.0 L 97.0 94.0 L 97.0 94.0 L 97.0 94.0 L 97.0 94.0 L 100.0 94.0 L 102.0 95.0 L 105.0 95.0 L 107.0 95.0 L 108.0 95.0 L 109.0 97.0 L 109.0 100.0 L 109.0 104.0 L 109.0 108.0 L 108.0 114.0 L 108.0 122.0 L 108.0 132.0 L 108.0 141.0 L 108.0 149.0 L 108.0 156.0 L 108.0 161.0 L 108.0 167.0 L 108.0 173.0 L 108.0 179.0 L 108.0 185.0 L 108.0 189.0 L 108.0 192.0 L 108.0 194.0 L 108.0 195.0 L 108.0 197.0 L 108.0 198.0 L 108.0 200.0 L 108.0 200.0 L 108.0 201.0 L 108.0 201.0 L 108.0 201.0 L 107.0 201.0 L 105.0 200.0 L 103.0 200.0 L 99.0 200.0 " stroke="black" fill="none" stroke-width="5.0" stroke-linecap="round" stroke-linejoin="round" />
</svg>