<svg xmlns="http://www.w3.org/2000/svg" width="300" height="300" viewBox="0 0 300 300">
<path d="M 130.0 108.0 L 133.0 108.0 L 136.0 108.0 L 142.0 107.0 L 149.0 106.0 L 155.0 105.0 L 160.0 105.0 L 162.0 104.0 L 162.0 104.0 " stroke="black" fill="none" stroke-width="5.0" stroke-linecap="round" stroke-linejoin="round" />
<path d="M 130.0 116.0 L 130.0 116.0 L 130.0 117.0 L 130.0 119.0 L 130.0 125.0 L 130.0 134.0 L 130.0 142.0 L 130.0 145.0 L 132.0 146.0 L 137.0 146.0 L 146.0 145.0 L 155.0 147.0 L 162.0 154.0 L 166.0 161.0 L 168.0 168.0 L 168.0 174.0 L 167.0 180.0 L 164.0 186.0 L 159.0 192.0 L 152.0 196.0 L 145.0 198.0 L 137.0 197.0 L 128.0 190.0 L 119.0 181.0 L 118.0 179.0 " stroke="black" fill="none" stroke-width="5.0" stroke-linecap="round" stroke-linejoin="round" />
</svg>