<svg xmlns="http://www.w3.org/2000/svg" width="300" height="300" viewBox="0 0 300 300">
<path d="M 116.0 124.0 L 118.0 124.0 L 118.0 124.0 L 119.0 126.0 L 119.0 132.0 L 119.0 144.0 L 122.0 161.0 L 125.0 176.0 L 129.0 184.0 L 132.0 185.0 L 136.0 181.0 L 141.0 172.0 L 146.0 161.0 L 150.0 150.0 L 154.0 141.0 L 155.0 136.0 L 155.0 135.0 L 155.0 135.0 L 155.0 137.0 L 155.0 143.0 L 158.0 153.0 L 162.0 164.0 L 167.0 174.0 L 172.0 180.0 L 177.0 180.0 L 181.0 172.0 L 183.0 161.0 L 186.0 148.0 L 187.0 132.0 L 189.0 121.0 L 190.0 119.0 L 190.0 121.0 L 190.0 122.0 L 190.0 123.0 " stroke="black" fill="none" stroke-width="5.0" stroke-linecap="round" stroke-linejoin="round" />
<path d="M 104.0 154.0 L 104.0 154.0 L 104.0 154.0 L 104.0 154.0 L 107.0 154.0 L 119.0 154.0 L 142.0 154.0 L 165.0 154.0 L 185.0 153.0 L 195.0 152.0 L 197.0 151.0 L 197.0 151.0 L 197.0 151.0 L 196.0 151.0 L 196.0 151.0 " stroke="black" fill="none" stroke-width="5.0" stroke-linecap="round" stroke-linejoin="round" />
</svg>