<svg xmlns="http://www.w3.org/2000/svg" width="300" height="300" viewBox="0 0 300 300">
<path d="M 134.0 130.0 L 134.0 130.0 L 134.0 131.0 L 134.0 131.0 L 139.0 129.0 L 146.0 126.0 L 152.0 122.0 L 156.0 120.0 L 159.0 120.0 L 159.0 121.0 L 160.0 124.0 L 160.0 130.0 L 159.0 138.0 L 157.0 150.0 L 155.0 164.0 L 153.0 175.0 L 153.0 180.0 L 153.0 180.0 " stroke="black" fill="none" stroke-width="5.0" stroke-linecap="round" stroke-linejoin="round" />
<path d="M 126.0 184.0 L 126.0 184.0 L 127.0 184.0 L 128.0 183.0 L 133.0 183.0 L 142.0 183.0 L 154.0 184.0 L 166.0 184.0 L 173.0 183.0 L 174.0 182.0 L 174.0 182.0 " stroke="black" fill="none" stroke-width="5.0" stroke-linecap="round" stroke-linejoin="round" />
</svg>