<svg xmlns="http://www.w3.org/2000/svg" width="300" height="300" viewBox="0 0 300 300">
<path d="M 118.0 187.0 L 118.0 187.0 L 118.0 187.0 L 119.0 187.0 L 119.0 185.0 L 120.0 181.0 L 120.0 172.0 L 121.0 158.0 L 122.0 142.0 L 123.0 129.0 L 124.0 122.0 L 124.0 119.0 L 125.0 117.0 L 125.0 116.0 L 127.0 116.0 L 131.0 119.0 L 135.0 127.0 L 142.0 141.0 L 150.0 158.0 L 158.0 174.0 L 164.0 186.0 L 169.0 190.0 L 171.0 190.0 L 173.0 187.0 L 173.0 179.0 L 173.0 166.0 L 173.0 151.0 L 174.0 134.0 L 174.0 122.0 L 174.0 115.0 L 173.0 115.0 L 173.0 115.0 L 173.0 117.0 " stroke="black" fill="none" stroke-width="5.0" stroke-linecap="round" stroke-linejoin="round" />
</svg>