<svg xmlns="http://www.w3.org/2000/svg" width="300" height="300" viewBox="0 0 300 300">
<path d="M 138.0 112.0 L 138.0 112.0 L 138.0 112.0 L 139.0 112.0 L 145.0 114.0 L 155.0 119.0 L 164.0 126.0 L 168.0 134.0 L 169.0 140.0 L 165.0 145.0 L 160.0 149.0 L 153.0 151.0 L 147.0 152.0 L 141.0 152.0 L 138.0 152.0 L 138.0 152.0 L 143.0 153.0 L 152.0 155.0 L 160.0 158.0 L 168.0 163.0 L 173.0 171.0 L 175.0 179.0 L 174.0 187.0 L 170.0 194.0 L 164.0 198.0 L 157.0 201.0 L 148.0 201.0 L 138.0 198.0 L 127.0 193.0 L 120.0 188.0 " stroke="black" fill="none" stroke-width="5.0" stroke-linecap="round" stroke-linejoin="round" />
</svg>