<svg xmlns="http://www.w3.org/2000/svg" width="300" height="300" viewBox="0 0 300 300">
<path d="M 205.0 89.0 L 205.0 89.0 L 206.0 89.0 L 206.0 89.0 L 206.0 89.0 L 206.0 89.0 L 206.0 89.0 L 204.0 90.0 L 202.0 91.0 L 200.0 92.0 L 199.0 93.0 L 197.0 95.0 L 196.0 96.0 L 196.0 98.0 L 196.0 101.0 L 196.0 104.0 L 196.0 108.0 L 196.0 112.0 L 196.0 115.0 L 196.0 118.0 L 196.0 121.0 L 196.0 123.0 L 196.0 126.0 L 196.0 129.0 L 196.0 131.0 L 196.0 133.0 L 196.0 135.0 L 196.0 137.0 L 196.0 139.0 L 196.0 140.0 L 196.0 140.0 L 196.0 140.0 L 196.0 140.0 L 196.0 140.0 L 196.0 140.0 L 196.0 139.0 L 196.0 139.0 L 196.0 139.0 L 195.0 139.0 L 194.0 140.0 L 193.0 141.0 L 191.0 142.0 L 190.0 144.0 L 188.0 146.0 L 186.0 147.0 L 185.0 148.0 L 185.0 149.0 L 185.0 150.0 L 185.0 150.0 L 185.0 152.0 L 186.0 152.0 L 188.0 153.0 L 189.0 154.0 L 191.0 155.0 L 192.0 156.0 L 193.0 157.0 L 194.0 157.0 L 194.0 158.0 L 194.0 158.0 L 195.0 160.0 L 195.0 162.0 L 195.0 164.0 L 195.0 168.0 L 195.0 173.0 L 195.0 178.0 L 195.0 183.0 L 195.0 187.0 L 196.0 191.0 L 196.0 193.0 L 196.0 196.0 L 197.0 199.0 L 197.0 202.0 L 197.0 204.0 L 197.0 206.0 L 198.0 208.0 L 199.0 210.0 L 200.0 211.0 L 202.0 213.0 L 204.0 213.0 L 208.0 214.0 L 213.0 214.0 L 216.0 214.0 " stroke="black" fill="none" stroke-width="5.0" stroke-linecap="round" stroke-linejoin="round" />
</svg>