<svg xmlns="http://www.w3.org/2000/svg" width="300" height="300" viewBox="0 0 300 300">
<path d="M 136.0 106.0 L 136.0 106.0 L 136.0 106.0 L 135.0 106.0 L 135.0 106.0 L 134.0 112.0 L 134.0 127.0 L 135.0 150.0 L 135.0 168.0 L 134.0 180.0 L 133.0 186.0 L 133.0 187.0 L 133.0 187.0 L 133.0 184.0 L 136.0 178.0 L 139.0 173.0 L 143.0 168.0 L 149.0 165.0 L 156.0 162.0 L 163.0 163.0 L 169.0 167.0 L 172.0 173.0 L 173.0 181.0 L 171.0 189.0 L 167.0 196.0 L 161.0 200.0 L 154.0 202.0 L 147.0 202.0 L 139.0 198.0 L 133.0 194.0 L 133.0 191.0 " stroke="black" fill="none" stroke-width="5.0" stroke-linecap="round" stroke-linejoin="round" />
</svg>