<svg xmlns="http://www.w3.org/2000/svg" width="300" height="300" viewBox="0 0 300 300">
<path d="M 150.0 102.0 L 150.0 102.0 L 150.0 104.0 L 150.0 105.0 L 150.0 107.0 L 150.0 111.0 L 150.0 117.0 L 151.0 126.0 L 151.0 138.0 L 151.0 149.0 L 151.0 157.0 L 151.0 164.0 L 151.0 171.0 L 151.0 179.0 L 151.0 187.0 L 151.0 194.0 L 151.0 198.0 L 151.0 202.0 L 151.0 205.0 L 151.0 207.0 L 151.0 209.0 L 151.0 212.0 L 151.0 213.0 L 151.0 213.0 L 151.0 213.0 " stroke="black" fill="none" stroke-width="5.0" stroke-linecap="round" stroke-linejoin="round" />
<path d="M 102.0 133.0 L 105.0 134.0 L 109.0 138.0 L 121.0 145.0 L 144.0 156.0 L 163.0 169.0 L 184.0 181.0 L 194.0 187.0 L 196.0 189.0 " stroke="black" fill="none" stroke-width="5.0" stroke-linecap="round" stroke-linejoin="round" />
<path d="M 192.0 135.0 L 192.0 135.0 L 192.0 135.0 L 191.0 136.0 L 190.0 136.0 L 189.0 137.0 L 187.0 139.0 L 182.0 142.0 L 172.0 148.0 L 159.0 154.0 L 146.0 161.0 L 135.0 170.0 L 119.0 178.0 L 110.0 183.0 L 108.0 185.0 L 108.0 185.0 L 108.0 185.0 " stroke="black" fill="none" stroke-width="5.0" stroke-linecap="round" stroke-linejoin="round" />
</svg>