<svg xmlns="http://www.w3.org/2000/svg" width="300" height="300" viewBox="0 0 300 300">
<path d="M 126.0 112.0 L 126.0 112.0 L 126.0 112.0 L 126.0 112.0 L 126.0 113.0 L 130.0 113.0 L 142.0 113.0 L 158.0 113.0 L 169.0 112.0 L 172.0 112.0 L 173.0 112.0 " stroke="black" fill="none" stroke-width="5.0" stroke-linecap="round" stroke-linejoin="round" />
<path d="M 131.0 118.0 L 131.0 118.0 L 130.0 118.0 L 129.0 118.0 L 128.0 118.0 L 128.0 120.0 L 129.0 133.0 L 131.0 159.0 L 131.0 186.0 L 133.0 202.0 L 135.0 206.0 L 136.0 206.0 L 136.0 205.0 " stroke="black" fill="none" stroke-width="5.0" stroke-linecap="round" stroke-linejoin="round" />
<path d="M 135.0 156.0 L 135.0 156.0 L 135.0 156.0 L 135.0 156.0 L 141.0 156.0 L 153.0 156.0 L 166.0 156.0 L 174.0 156.0 L 176.0 156.0 L 176.0 156.0 " stroke="black" fill="none" stroke-width="5.0" stroke-linecap="round" stroke-linejoin="round" />
</svg>