<svg xmlns="http://www.w3.org/2000/svg" width="300" height="300" viewBox="0 0 300 300">
<path d="M 158.0 111.0 L 158.0 111.0 L 158.0 111.0 L 158.0 111.0 L 157.0 111.0 L 156.0 111.0 L 155.0 110.0 L 152.0 109.0 L 148.0 106.0 L 145.0 105.0 L 142.0 104.0 L 141.0 106.0 L 141.0 114.0 L 142.0 129.0 L 143.0 149.0 L 144.0 167.0 L 145.0 183.0 L 146.0 193.0 L 147.0 197.0 L 147.0 198.0 L 147.0 198.0 " stroke="black" fill="none" stroke-width="5.0" stroke-linecap="round" stroke-linejoin="round" />
<path d="M 114.0 156.0 L 114.0 156.0 L 114.0 156.0 L 117.0 156.0 L 127.0 156.0 L 144.0 156.0 L 159.0 156.0 L 168.0 156.0 L 170.0 156.0 L 170.0 156.0 L 168.0 156.0 " stroke="black" fill="none" stroke-width="5.0" stroke-linecap="round" stroke-linejoin="round" />
</svg>