<svg xmlns="http://www.w3.org/2000/svg" width="300" height="300" viewBox="0 0 300 300">
<path d="M 135.0 117.0 L 135.0 117.0 L 135.0 117.0 L 136.0 117.0 L 141.0 117.0 L 150.0 117.0 L 160.0 117.0 L 167.0 117.0 L 168.0 117.0 " stroke="black" fill="none" stroke-width="5.0" stroke-linecap="round" stroke-linejoin="round" />
<path d="M 150.0 124.0 L 150.0 124.0 L 150.0 124.0 L 150.0 124.0 L 150.0 125.0 L 150.0 130.0 L 150.0 142.0 L 150.0 158.0 L 150.0 171.0 L 150.0 175.0 L 150.0 176.0 " stroke="black" fill="none" stroke-width="5.0" stroke-linecap="round" stroke-linejoin="round" />
<path d="M 126.0 182.0 L 126.0 182.0 L 126.0 182.0 L 128.0 182.0 L 136.0 183.0 L 150.0 184.0 L 165.0 185.0 L 174.0 184.0 L 176.0 184.0 " stroke="black" fill="none" stroke-width="5.0" stroke-linecap="round" stroke-linejoin="round" />
</svg>