<svg xmlns="http://www.w3.org/2000/svg" width="300" height="300" viewBox="0 0 300 300">
<path d="M 129.0 111.0 L 129.0 111.0 L 130.0 113.0 L 132.0 115.0 L 136.0 120.0 L 142.0 125.0 L 147.0 130.0 L 149.0 131.0 " stroke="black" fill="none" stroke-width="5.0" stroke-linecap="round" stroke-linejoin="round" />
<path d="M 168.0 114.0 L 168.0 114.0 L 167.0 114.0 L 166.0 115.0 L 164.0 117.0 L 161.0 120.0 L 157.0 123.0 L 154.0 126.0 L 152.0 128.0 L 151.0 129.0 L 151.0 129.0 L 151.0 129.0 L 151.0 130.0 L 151.0 131.0 L 150.0 135.0 L 150.0 142.0 L 150.0 153.0 L 151.0 167.0 L 153.0 179.0 L 154.0 185.0 L 154.0 186.0 L 154.0 184.0 " stroke="black" fill="none" stroke-width="5.0" stroke-linecap="round" stroke-linejoin="round" />
<path d="M 135.0 135.0 L 135.0 135.0 L 135.0 135.0 L 137.0 135.0 L 142.0 135.0 L 150.0 135.0 L 159.0 134.0 L 164.0 133.0 L 166.0 133.0 L 166.0 133.0 " stroke="black" fill="none" stroke-width="5.0" stroke-linecap="round" stroke-linejoin="round" />
<path d="M 135.0 152.0 L 135.0 152.0 L 136.0 152.0 L 138.0 152.0 L 144.0 152.0 L 153.0 152.0 L 163.0 152.0 L 171.0 151.0 L 174.0 150.0 L 174.0 150.0 " stroke="black" fill="none" stroke-width="5.0" stroke-linecap="round" stroke-linejoin="round" />
</svg>