<svg xmlns="http://www.w3.org/2000/svg" width="300" height="300" viewBox="0 0 300 300">
<path d="M 160.0 117.0 L 160.0 117.0 L 160.0 117.0 L 161.0 117.0 L 162.0 117.0 L 162.0 116.0 L 162.0 114.0 L 161.0 111.0 L 157.0 108.0 L 153.0 106.0 L 147.0 105.0 L 142.0 104.0 L 136.0 105.0 L 132.0 109.0 L 128.0 117.0 L 127.0 129.0 L 128.0 139.0 L 134.0 144.0 L 140.0 145.0 L 147.0 143.0 L 153.0 138.0 L 159.0 133.0 L 162.0 131.0 L 165.0 129.0 L 166.0 129.0 L 166.0 133.0 L 166.0 142.0 L 166.0 156.0 L 167.0 172.0 L 167.0 187.0 L 169.0 196.0 L 170.0 197.0 L 171.0 197.0 L 172.0 195.0 " stroke="black" fill="none" stroke-width="5.0" stroke-linecap="round" stroke-linejoin="round" />
</svg>