<svg xmlns="http://www.w3.org/2000/svg" width="300" height="300" viewBox="0 0 300 300">
<path d="M 114.0 124.0 L 114.0 124.0 L 115.0 124.0 L 115.0 124.0 L 116.0 127.0 L 120.0 136.0 L 126.0 150.0 L 132.0 166.0 L 138.0 179.0 L 141.0 186.0 L 144.0 191.0 L 147.0 195.0 L 148.0 196.0 L 150.0 196.0 L 152.0 194.0 L 154.0 190.0 L 156.0 184.0 L 158.0 178.0 L 160.0 172.0 L 163.0 162.0 L 167.0 151.0 L 170.0 140.0 L 172.0 132.0 L 173.0 128.0 L 174.0 127.0 L 174.0 127.0 L 174.0 127.0 L 174.0 127.0 L 174.0 127.0 " stroke="black" fill="none" stroke-width="5.0" stroke-linecap="round" stroke-linejoin="round" />
</svg>