<svg xmlns="http://www.w3.org/2000/svg" width="300" height="300" viewBox="0 0 300 300">
<path d="M 155.0 126.0 L 155.0 126.0 L 155.0 126.0 L 156.0 126.0 L 156.0 125.0 L 156.0 124.0 L 154.0 122.0 L 151.0 120.0 L 146.0 119.0 L 140.0 119.0 L 133.0 124.0 L 128.0 132.0 L 126.0 141.0 L 126.0 152.0 L 130.0 160.0 L 138.0 164.0 L 148.0 164.0 L 157.0 160.0 L 159.0 157.0 " stroke="black" fill="none" stroke-width="5.0" stroke-linecap="round" stroke-linejoin="round" />
<path d="M 161.0 119.0 L 161.0 118.0 L 161.0 117.0 L 161.0 117.0 L 161.0 121.0 L 162.0 135.0 L 163.0 157.0 L 163.0 181.0 L 163.0 198.0 L 163.0 206.0 L 164.0 209.0 L 164.0 208.0 " stroke="black" fill="none" stroke-width="5.0" stroke-linecap="round" stroke-linejoin="round" />
</svg>