<svg xmlns="http://www.w3.org/2000/svg" width="300" height="300" viewBox="0 0 300 300">
<path d="M 151.0 115.0 L 151.0 116.0 L 151.0 117.0 L 151.0 118.0 L 151.0 118.0 L 151.0 119.0 L 150.0 119.0 L 148.0 118.0 L 147.0 117.0 L 146.0 115.0 L 146.0 113.0 L 146.0 111.0 L 147.0 109.0 L 149.0 108.0 L 151.0 108.0 L 153.0 110.0 L 155.0 113.0 L 156.0 116.0 L 156.0 119.0 L 154.0 120.0 L 152.0 121.0 L 150.0 120.0 L 148.0 119.0 L 147.0 117.0 L 147.0 114.0 L 147.0 112.0 L 147.0 111.0 L 151.0 110.0 L 153.0 112.0 L 154.0 115.0 L 155.0 117.0 L 155.0 119.0 L 154.0 120.0 L 152.0 120.0 L 150.0 119.0 L 149.0 117.0 L 149.0 115.0 L 149.0 113.0 L 151.0 112.0 L 153.0 112.0 L 155.0 114.0 L 156.0 115.0 L 156.0 117.0 L 156.0 118.0 " stroke="black" fill="none" stroke-width="5.0" stroke-linecap="round" stroke-linejoin="round" />
<path d="M 149.0 174.0 L 149.0 174.0 L 149.0 174.0 L 150.0 174.0 L 150.0 174.0 L 150.0 174.0 L 151.0 174.0 L 151.0 175.0 L 151.0 176.0 L 150.0 177.0 L 149.0 178.0 L 148.0 178.0 L 147.0 176.0 L 147.0 174.0 L 147.0 172.0 L 148.0 170.0 L 150.0 170.0 L 152.0 171.0 L 153.0 174.0 L 153.0 177.0 L 153.0 179.0 L 153.0 181.0 L 151.0 181.0 L 148.0 180.0 L 147.0 177.0 L 147.0 175.0 L 147.0 173.0 L 148.0 172.0 L 150.0 172.0 L 151.0 174.0 L 152.0 177.0 L 152.0 180.0 L 152.0 182.0 L 151.0 182.0 L 150.0 182.0 L 149.0 180.0 L 148.0 178.0 L 148.0 177.0 L 148.0 176.0 L 148.0 176.0 L 148.0 176.0 L 148.0 176.0 L 149.0 176.0 L 149.0 176.0 L 149.0 176.0 L 149.0 175.0 L 150.0 175.0 L 150.0 174.0 L 151.0 174.0 L 152.0 174.0 L 152.0 176.0 L 153.0 180.0 L 153.0 184.0 L 152.0 189.0 L 148.0 194.0 " stroke="black" fill="none" stroke-width="5.0" stroke-linecap="round" stroke-linejoin="round" />
</svg>