<svg xmlns="http://www.w3.org/2000/svg" width="300" height="300" viewBox="0 0 300 300">
<path d="M 140.0 110.0 L 140.0 112.0 L 140.0 114.0 L 142.0 119.0 L 145.0 127.0 L 147.0 130.0 " stroke="black" fill="none" stroke-width="5.0" stroke-linecap="round" stroke-linejoin="round" />
<path d="M 129.0 143.0 L 129.0 143.0 L 130.0 143.0 L 132.0 143.0 L 137.0 143.0 L 144.0 141.0 L 151.0 140.0 L 156.0 140.0 L 157.0 140.0 L 156.0 141.0 L 153.0 146.0 L 147.0 152.0 L 140.0 161.0 L 132.0 171.0 L 124.0 180.0 L 118.0 185.0 L 118.0 185.0 " stroke="black" fill="none" stroke-width="5.0" stroke-linecap="round" stroke-linejoin="round" />
<path d="M 141.0 162.0 L 141.0 162.0 L 141.0 162.0 L 141.0 162.0 L 142.0 163.0 L 142.0 168.0 L 144.0 178.0 L 145.0 189.0 L 145.0 197.0 L 146.0 199.0 " stroke="black" fill="none" stroke-width="5.0" stroke-linecap="round" stroke-linejoin="round" />
<path d="M 147.0 168.0 L 147.0 168.0 L 148.0 168.0 L 150.0 169.0 L 156.0 174.0 L 164.0 180.0 L 165.0 181.0 " stroke="black" fill="none" stroke-width="5.0" stroke-linecap="round" stroke-linejoin="round" />
</svg>