<svg xmlns="http://www.w3.org/2000/svg" width="300" height="300" viewBox="0 0 300 300">
<path d="M 101.0 97.0 L 101.0 97.0 L 101.0 97.0 L 101.0 97.0 L 102.0 97.0 L 105.0 98.0 L 111.0 98.0 L 120.0 98.0 L 130.0 98.0 L 138.0 98.0 L 145.0 98.0 L 152.0 97.0 L 157.0 96.0 L 162.0 96.0 L 168.0 95.0 L 173.0 95.0 L 177.0 95.0 L 181.0 95.0 L 185.0 94.0 L 188.0 94.0 L 190.0 94.0 L 193.0 94.0 L 194.0 94.0 L 196.0 94.0 L 197.0 94.0 L 198.0 94.0 L 199.0 94.0 L 200.0 93.0 L 200.0 93.0 L 200.0 93.0 L 200.0 93.0 " stroke="black" fill="none" stroke-width="5.0" stroke-linecap="round" stroke-linejoin="round" />
</svg>