<svg xmlns="http://www.w3.org/2000/svg" width="300" height="300" viewBox="0 0 300 300">
<path d="M 107.0 181.0 L 107.0 181.0 L 107.0 181.0 L 107.0 182.0 L 107.0 182.0 L 107.0 180.0 L 108.0 174.0 L 111.0 164.0 L 114.0 150.0 L 117.0 138.0 L 118.0 129.0 L 120.0 123.0 L 121.0 120.0 L 122.0 119.0 L 124.0 119.0 L 127.0 121.0 L 131.0 127.0 L 136.0 136.0 L 141.0 148.0 L 146.0 161.0 L 150.0 172.0 L 151.0 179.0 L 152.0 181.0 L 152.0 181.0 L 152.0 178.0 L 152.0 171.0 L 152.0 161.0 L 153.0 150.0 L 155.0 140.0 L 159.0 130.0 L 162.0 122.0 L 165.0 118.0 L 167.0 118.0 L 169.0 118.0 L 171.0 121.0 L 176.0 130.0 L 181.0 143.0 L 187.0 159.0 L 192.0 171.0 L 194.0 179.0 L 195.0 182.0 L 195.0 182.0 " stroke="black" fill="none" stroke-width="5.0" stroke-linecap="round" stroke-linejoin="round" />
</svg>