<svg xmlns="http://www.w3.org/2000/svg" width="300" height="300" viewBox="0 0 300 300">
<path d="M 136.0 114.0 L 136.0 114.0 L 136.0 115.0 L 136.0 115.0 L 138.0 115.0 L 144.0 116.0 L 153.0 115.0 L 160.0 115.0 L 162.0 115.0 " stroke="black" fill="none" stroke-width="5.0" stroke-linecap="round" stroke-linejoin="round" />
<path d="M 124.0 153.0 L 124.0 153.0 L 126.0 153.0 L 133.0 153.0 L 146.0 153.0 L 157.0 153.0 L 162.0 153.0 " stroke="black" fill="none" stroke-width="5.0" stroke-linecap="round" stroke-linejoin="round" />
<path d="M 147.0 123.0 L 147.0 123.0 L 147.0 122.0 L 147.0 122.0 L 146.0 122.0 L 146.0 125.0 L 144.0 134.0 L 142.0 151.0 L 141.0 170.0 L 141.0 184.0 L 143.0 192.0 L 147.0 196.0 L 152.0 199.0 L 158.0 200.0 L 164.0 201.0 L 168.0 201.0 L 170.0 200.0 L 170.0 196.0 L 170.0 192.0 " stroke="black" fill="none" stroke-width="5.0" stroke-linecap="round" stroke-linejoin="round" />
</svg>