<svg xmlns="http://www.w3.org/2000/svg" width="300" height="300" viewBox="0 0 300 300">
<path d="M 137.0 108.0 L 138.0 108.0 L 140.0 107.0 L 143.0 107.0 L 148.0 107.0 L 155.0 108.0 L 163.0 111.0 L 168.0 115.0 L 170.0 121.0 L 164.0 136.0 L 158.0 142.0 L 153.0 147.0 L 148.0 152.0 L 146.0 159.0 L 146.0 165.0 L 147.0 166.0 L 148.0 166.0 " stroke="black" fill="none" stroke-width="5.0" stroke-linecap="round" stroke-linejoin="round" />
<path d="M 147.0 193.0 L 147.0 193.0 L 148.0 193.0 L 148.0 193.0 L 148.0 193.0 L 148.0 194.0 L 148.0 195.0 L 148.0 195.0 L 147.0 195.0 L 146.0 195.0 L 146.0 194.0 L 146.0 193.0 L 146.0 193.0 L 147.0 193.0 L 148.0 193.0 L 149.0 194.0 L 149.0 195.0 L 149.0 196.0 L 148.0 196.0 L 146.0 196.0 L 145.0 195.0 L 145.0 193.0 L 147.0 192.0 L 149.0 191.0 L 150.0 191.0 L 151.0 193.0 L 151.0 196.0 L 150.0 198.0 L 149.0 198.0 " stroke="black" fill="none" stroke-width="5.0" stroke-linecap="round" stroke-linejoin="round" />
</svg>