<svg xmlns="http://www.w3.org/2000/svg" width="300" height="300" viewBox="0 0 300 300">
<path d="M 124.0 111.0 L 124.0 111.0 L 124.0 111.0 L 123.0 111.0 L 122.0 111.0 L 121.0 113.0 L 120.0 122.0 L 120.0 143.0 L 118.0 169.0 L 117.0 191.0 L 117.0 201.0 L 117.0 202.0 " stroke="black" fill="none" stroke-width="5.0" stroke-linecap="round" stroke-linejoin="round" />
<path d="M 128.0 113.0 L 128.0 113.0 L 129.0 112.0 L 130.0 112.0 L 136.0 112.0 L 146.0 116.0 L 157.0 124.0 L 165.0 131.0 L 167.0 139.0 L 168.0 146.0 L 166.0 152.0 L 162.0 157.0 L 156.0 161.0 L 149.0 164.0 L 139.0 165.0 L 130.0 165.0 L 123.0 165.0 L 122.0 165.0 L 122.0 165.0 L 123.0 164.0 L 125.0 164.0 L 131.0 167.0 L 141.0 172.0 L 152.0 180.0 L 164.0 187.0 L 174.0 193.0 L 181.0 196.0 L 183.0 197.0 L 184.0 197.0 L 184.0 197.0 L 183.0 197.0 " stroke="black" fill="none" stroke-width="5.0" stroke-linecap="round" stroke-linejoin="round" />
</svg>