<svg xmlns="http://www.w3.org/2000/svg" width="300" height="300" viewBox="0 0 300 300">
<path d="M 150.0 111.0 L 150.0 111.0 L 150.0 111.0 L 151.0 111.0 L 151.0 111.0 L 151.0 112.0 L 150.0 116.0 L 145.0 126.0 L 136.0 140.0 L 126.0 154.0 L 117.0 162.0 L 113.0 164.0 L 113.0 165.0 L 122.0 166.0 L 138.0 166.0 L 155.0 166.0 L 170.0 165.0 L 178.0 165.0 L 181.0 166.0 L 181.0 166.0 " stroke="black" fill="none" stroke-width="5.0" stroke-linecap="round" stroke-linejoin="round" />
<path d="M 152.0 112.0 L 152.0 112.0 L 152.0 111.0 L 152.0 111.0 L 153.0 114.0 L 154.0 125.0 L 156.0 147.0 L 158.0 174.0 L 160.0 193.0 L 161.0 201.0 L 161.0 204.0 L 161.0 204.0 L 161.0 204.0 " stroke="black" fill="none" stroke-width="5.0" stroke-linecap="round" stroke-linejoin="round" />
</svg>