<svg xmlns="http://www.w3.org/2000/svg" width="300" height="300" viewBox="0 0 300 300">
<path d="M 139.0 113.0 L 139.0 113.0 L 139.0 113.0 L 139.0 113.0 L 139.0 113.0 L 139.0 114.0 L 137.0 119.0 L 133.0 126.0 L 124.0 136.0 L 121.0 139.0 " stroke="black" fill="none" stroke-width="5.0" stroke-linecap="round" stroke-linejoin="round" />
<path d="M 112.0 155.0 L 112.0 155.0 L 112.0 155.0 L 113.0 155.0 L 118.0 155.0 L 134.0 155.0 L 155.0 153.0 L 174.0 152.0 L 183.0 151.0 " stroke="black" fill="none" stroke-width="5.0" stroke-linecap="round" stroke-linejoin="round" />
<path d="M 136.0 128.0 L 135.0 127.0 L 134.0 127.0 L 133.0 127.0 L 134.0 136.0 L 136.0 154.0 L 137.0 176.0 L 137.0 191.0 L 137.0 193.0 " stroke="black" fill="none" stroke-width="5.0" stroke-linecap="round" stroke-linejoin="round" />
<path d="M 158.0 113.0 L 158.0 114.0 L 158.0 117.0 L 158.0 125.0 L 161.0 145.0 L 164.0 173.0 L 166.0 195.0 L 167.0 206.0 " stroke="black" fill="none" stroke-width="5.0" stroke-linecap="round" stroke-linejoin="round" />
</svg>