<svg xmlns="http://www.w3.org/2000/svg" width="300" height="300" viewBox="0 0 300 300">
<path d="M 159.0 105.0 L 159.0 105.0 L 159.0 105.0 L 159.0 105.0 L 159.0 105.0 L 159.0 108.0 L 159.0 119.0 L 161.0 140.0 L 162.0 160.0 L 163.0 174.0 L 164.0 183.0 L 165.0 187.0 L 165.0 187.0 L 165.0 187.0 L 164.0 184.0 L 162.0 180.0 L 160.0 177.0 L 157.0 174.0 L 155.0 171.0 L 152.0 168.0 L 149.0 164.0 L 144.0 161.0 L 140.0 159.0 L 135.0 159.0 L 131.0 159.0 L 128.0 161.0 L 125.0 165.0 L 123.0 172.0 L 123.0 182.0 L 128.0 191.0 L 135.0 197.0 L 142.0 199.0 L 151.0 197.0 L 157.0 193.0 " stroke="black" fill="none" stroke-width="5.0" stroke-linecap="round" stroke-linejoin="round" />
</svg>