<svg xmlns="http://www.w3.org/2000/svg" width="300" height="300" viewBox="0 0 300 300">
<path d="M 128.0 109.0 L 128.0 109.0 L 128.0 109.0 L 128.0 109.0 L 128.0 109.0 L 128.0 117.0 L 128.0 135.0 L 128.0 159.0 L 128.0 175.0 L 127.0 184.0 L 127.0 187.0 L 128.0 185.0 " stroke="black" fill="none" stroke-width="5.0" stroke-linecap="round" stroke-linejoin="round" />
<path d="M 133.0 111.0 L 133.0 111.0 L 133.0 111.0 L 135.0 111.0 L 141.0 112.0 L 158.0 116.0 L 171.0 124.0 L 179.0 134.0 L 181.0 143.0 L 181.0 151.0 L 180.0 159.0 L 177.0 166.0 L 172.0 174.0 L 163.0 183.0 L 153.0 191.0 L 144.0 195.0 L 135.0 195.0 L 130.0 193.0 " stroke="black" fill="none" stroke-width="5.0" stroke-linecap="round" stroke-linejoin="round" />
</svg>