<svg xmlns="http://www.w3.org/2000/svg" width="300" height="300" viewBox="0 0 300 300">
<path d="M 129.0 120.0 L 129.0 120.0 L 129.0 120.0 L 129.0 120.0 L 132.0 120.0 L 138.0 120.0 L 146.0 119.0 L 155.0 118.0 L 161.0 118.0 L 166.0 117.0 L 167.0 117.0 L 167.0 118.0 L 167.0 120.0 L 167.0 123.0 L 168.0 127.0 L 168.0 131.0 L 168.0 135.0 L 168.0 137.0 L 168.0 138.0 L 166.0 138.0 L 163.0 138.0 L 158.0 138.0 L 153.0 138.0 L 148.0 138.0 L 142.0 138.0 L 135.0 139.0 L 130.0 139.0 L 126.0 141.0 L 125.0 142.0 L 124.0 143.0 L 124.0 144.0 L 123.0 147.0 L 122.0 151.0 L 121.0 155.0 L 121.0 159.0 L 121.0 161.0 L 124.0 161.0 L 130.0 161.0 L 137.0 160.0 L 147.0 160.0 L 157.0 159.0 L 165.0 159.0 L 172.0 161.0 L 178.0 166.0 L 182.0 173.0 L 184.0 179.0 L 185.0 183.0 L 185.0 185.0 L 184.0 187.0 L 180.0 188.0 L 173.0 188.0 L 164.0 187.0 L 162.0 186.0 " stroke="black" fill="none" stroke-width="5.0" stroke-linecap="round" stroke-linejoin="round" />
<path d="M 141.0 103.0 L 141.0 103.0 L 141.0 103.0 L 141.0 103.0 L 140.0 105.0 L 140.0 118.0 L 140.0 144.0 L 139.0 170.0 L 136.0 185.0 L 136.0 190.0 L 136.0 190.0 L 136.0 190.0 " stroke="black" fill="none" stroke-width="5.0" stroke-linecap="round" stroke-linejoin="round" />
<path d="M 152.0 95.0 L 152.0 94.0 L 152.0 93.0 L 152.0 97.0 L 153.0 112.0 L 155.0 142.0 L 156.0 170.0 L 157.0 187.0 L 157.0 194.0 L 157.0 196.0 L 157.0 195.0 L 157.0 194.0 " stroke="black" fill="none" stroke-width="5.0" stroke-linecap="round" stroke-linejoin="round" />
</svg>