<svg xmlns="http://www.w3.org/2000/svg" width="300" height="300" viewBox="0 0 300 300">
<path d="M 137.0 108.0 L 137.0 108.0 L 137.0 110.0 L 137.0 113.0 L 138.0 118.0 L 140.0 123.0 L 141.0 124.0 " stroke="black" fill="none" stroke-width="5.0" stroke-linecap="round" stroke-linejoin="round" />
<path d="M 158.0 108.0 L 158.0 108.0 L 158.0 108.0 L 158.0 108.0 L 158.0 111.0 L 157.0 116.0 L 156.0 120.0 " stroke="black" fill="none" stroke-width="5.0" stroke-linecap="round" stroke-linejoin="round" />
<path d="M 126.0 132.0 L 126.0 132.0 L 126.0 132.0 L 125.0 132.0 L 127.0 132.0 L 135.0 132.0 L 148.0 131.0 L 161.0 130.0 L 170.0 129.0 L 171.0 130.0 " stroke="black" fill="none" stroke-width="5.0" stroke-linecap="round" stroke-linejoin="round" />
<path d="M 132.0 150.0 L 132.0 151.0 L 133.0 152.0 L 136.0 153.0 L 144.0 153.0 L 153.0 153.0 L 161.0 153.0 " stroke="black" fill="none" stroke-width="5.0" stroke-linecap="round" stroke-linejoin="round" />
<path d="M 115.0 170.0 L 117.0 172.0 L 120.0 172.0 L 129.0 172.0 L 145.0 172.0 L 161.0 172.0 L 171.0 172.0 L 176.0 172.0 " stroke="black" fill="none" stroke-width="5.0" stroke-linecap="round" stroke-linejoin="round" />
<path d="M 146.0 134.0 L 146.0 135.0 L 146.0 138.0 L 146.0 144.0 L 146.0 156.0 L 147.0 167.0 L 147.0 168.0 " stroke="black" fill="none" stroke-width="5.0" stroke-linecap="round" stroke-linejoin="round" />
<path d="M 137.0 175.0 L 137.0 175.0 L 136.0 175.0 L 135.0 175.0 L 135.0 175.0 L 135.0 177.0 L 134.0 184.0 L 130.0 195.0 L 127.0 203.0 L 126.0 205.0 " stroke="black" fill="none" stroke-width="5.0" stroke-linecap="round" stroke-linejoin="round" />
<path d="M 154.0 178.0 L 154.0 177.0 L 154.0 177.0 L 154.0 177.0 L 154.0 177.0 L 155.0 180.0 L 155.0 186.0 L 156.0 195.0 L 159.0 201.0 L 165.0 204.0 L 174.0 205.0 L 185.0 205.0 L 192.0 205.0 L 197.0 203.0 L 200.0 200.0 L 201.0 196.0 L 201.0 191.0 L 201.0 187.0 " stroke="black" fill="none" stroke-width="5.0" stroke-linecap="round" stroke-linejoin="round" />
</svg>