<svg xmlns="http://www.w3.org/2000/svg" width="300" height="300" viewBox="0 0 300 300">
<path d="M 125.0 113.0 L 125.0 113.0 L 125.0 113.0 L 125.0 113.0 L 125.0 113.0 L 125.0 113.0 L 125.0 113.0 L 124.0 116.0 L 119.0 124.0 L 111.0 137.0 L 109.0 139.0 " stroke="black" fill="none" stroke-width="5.0" stroke-linecap="round" stroke-linejoin="round" />
<path d="M 131.0 127.0 L 130.0 127.0 L 130.0 128.0 L 129.0 129.0 L 127.0 131.0 L 123.0 137.0 L 115.0 149.0 L 105.0 163.0 L 98.0 173.0 L 97.0 174.0 " stroke="black" fill="none" stroke-width="5.0" stroke-linecap="round" stroke-linejoin="round" />
<path d="M 118.0 148.0 L 118.0 148.0 L 118.0 148.0 L 118.0 150.0 L 118.0 156.0 L 118.0 168.0 L 118.0 183.0 L 116.0 194.0 L 116.0 195.0 " stroke="black" fill="none" stroke-width="5.0" stroke-linecap="round" stroke-linejoin="round" />
<path d="M 144.0 113.0 L 144.0 113.0 L 144.0 113.0 L 143.0 113.0 L 143.0 115.0 L 143.0 117.0 L 141.0 124.0 L 138.0 132.0 L 137.0 136.0 " stroke="black" fill="none" stroke-width="5.0" stroke-linecap="round" stroke-linejoin="round" />
<path d="M 144.0 124.0 L 144.0 124.0 L 144.0 124.0 L 144.0 124.0 L 144.0 124.0 L 146.0 124.0 L 150.0 124.0 L 153.0 124.0 L 155.0 124.0 " stroke="black" fill="none" stroke-width="5.0" stroke-linecap="round" stroke-linejoin="round" />
<path d="M 132.0 150.0 L 132.0 150.0 L 132.0 150.0 L 133.0 150.0 L 137.0 150.0 L 146.0 149.0 L 155.0 148.0 L 161.0 148.0 L 164.0 148.0 L 164.0 148.0 L 163.0 148.0 " stroke="black" fill="none" stroke-width="5.0" stroke-linecap="round" stroke-linejoin="round" />
<path d="M 146.0 130.0 L 146.0 130.0 L 146.0 130.0 L 146.0 130.0 L 146.0 131.0 L 146.0 138.0 L 146.0 150.0 L 147.0 164.0 L 148.0 174.0 L 148.0 178.0 L 149.0 178.0 L 149.0 175.0 L 149.0 174.0 " stroke="black" fill="none" stroke-width="5.0" stroke-linecap="round" stroke-linejoin="round" />
<path d="M 150.0 161.0 L 150.0 161.0 L 150.0 161.0 L 150.0 161.0 L 150.0 162.0 L 153.0 162.0 L 157.0 162.0 L 159.0 162.0 L 160.0 162.0 " stroke="black" fill="none" stroke-width="5.0" stroke-linecap="round" stroke-linejoin="round" />
<path d="M 137.0 161.0 L 137.0 161.0 L 137.0 161.0 L 136.0 161.0 L 136.0 164.0 L 136.0 171.0 L 137.0 179.0 L 137.0 184.0 " stroke="black" fill="none" stroke-width="5.0" stroke-linecap="round" stroke-linejoin="round" />
<path d="M 130.0 185.0 L 130.0 185.0 L 130.0 185.0 L 132.0 185.0 L 140.0 185.0 L 150.0 185.0 L 159.0 184.0 L 162.0 183.0 L 162.0 183.0 " stroke="black" fill="none" stroke-width="5.0" stroke-linecap="round" stroke-linejoin="round" />
<path d="M 172.0 124.0 L 172.0 124.0 L 172.0 124.0 L 172.0 124.0 L 173.0 124.0 L 177.0 124.0 L 182.0 124.0 L 187.0 124.0 L 190.0 124.0 L 192.0 127.0 L 193.0 134.0 L 193.0 143.0 L 193.0 149.0 L 193.0 153.0 L 192.0 153.0 L 190.0 153.0 L 185.0 151.0 " stroke="black" fill="none" stroke-width="5.0" stroke-linecap="round" stroke-linejoin="round" />
<path d="M 173.0 123.0 L 173.0 123.0 L 172.0 123.0 L 171.0 123.0 L 171.0 128.0 L 175.0 143.0 L 178.0 165.0 L 179.0 183.0 L 179.0 191.0 L 179.0 192.0 L 179.0 192.0 L 179.0 191.0 L 179.0 189.0 " stroke="black" fill="none" stroke-width="5.0" stroke-linecap="round" stroke-linejoin="round" />
</svg>