<svg xmlns="http://www.w3.org/2000/svg" width="300" height="300" viewBox="0 0 300 300">
<path d="M 130.0 123.0 L 130.0 123.0 L 130.0 124.0 L 132.0 125.0 L 139.0 125.0 L 150.0 125.0 L 162.0 125.0 L 171.0 125.0 L 177.0 125.0 L 178.0 125.0 L 178.0 125.0 L 176.0 125.0 " stroke="black" fill="none" stroke-width="5.0" stroke-linecap="round" stroke-linejoin="round" />
<path d="M 160.0 114.0 L 160.0 114.0 L 160.0 115.0 L 160.0 116.0 L 159.0 118.0 L 157.0 123.0 L 152.0 133.0 L 145.0 144.0 " stroke="black" fill="none" stroke-width="5.0" stroke-linecap="round" stroke-linejoin="round" />
<path d="M 133.0 152.0 L 133.0 152.0 L 133.0 152.0 L 133.0 152.0 L 132.0 153.0 L 133.0 158.0 L 134.0 169.0 L 135.0 180.0 L 136.0 187.0 L 136.0 188.0 " stroke="black" fill="none" stroke-width="5.0" stroke-linecap="round" stroke-linejoin="round" />
<path d="M 134.0 151.0 L 134.0 151.0 L 134.0 151.0 L 134.0 151.0 L 137.0 151.0 L 145.0 150.0 L 155.0 149.0 L 165.0 149.0 L 172.0 149.0 L 175.0 150.0 L 177.0 152.0 L 178.0 156.0 L 179.0 163.0 L 180.0 172.0 L 182.0 182.0 L 182.0 189.0 L 182.0 192.0 L 182.0 193.0 " stroke="black" fill="none" stroke-width="5.0" stroke-linecap="round" stroke-linejoin="round" />
<path d="M 142.0 191.0 L 142.0 191.0 L 142.0 191.0 L 142.0 192.0 L 144.0 193.0 L 151.0 194.0 L 163.0 194.0 L 174.0 194.0 L 179.0 194.0 " stroke="black" fill="none" stroke-width="5.0" stroke-linecap="round" stroke-linejoin="round" />
</svg>