<svg xmlns="http://www.w3.org/2000/svg" width="300" height="300" viewBox="0 0 300 300">
<path d="M 116.0 115.0 L 116.0 115.0 L 116.0 115.0 L 116.0 115.0 L 116.0 115.0 L 116.0 116.0 L 117.0 119.0 L 118.0 123.0 L 118.0 123.0 " stroke="black" fill="none" stroke-width="5.0" stroke-linecap="round" stroke-linejoin="round" />
<path d="M 118.0 113.0 L 118.0 113.0 L 120.0 113.0 L 122.0 113.0 L 127.0 113.0 L 136.0 113.0 L 148.0 111.0 L 160.0 110.0 L 171.0 109.0 L 177.0 109.0 L 182.0 109.0 L 186.0 111.0 L 188.0 112.0 L 190.0 113.0 L 190.0 116.0 L 190.0 120.0 L 188.0 124.0 L 187.0 125.0 " stroke="black" fill="none" stroke-width="5.0" stroke-linecap="round" stroke-linejoin="round" />
<path d="M 148.0 99.0 L 148.0 99.0 L 149.0 100.0 L 151.0 103.0 L 152.0 106.0 " stroke="black" fill="none" stroke-width="5.0" stroke-linecap="round" stroke-linejoin="round" />
<path d="M 136.0 126.0 L 136.0 126.0 L 136.0 127.0 L 136.0 128.0 L 136.0 132.0 L 136.0 139.0 L 137.0 145.0 L 137.0 147.0 " stroke="black" fill="none" stroke-width="5.0" stroke-linecap="round" stroke-linejoin="round" />
<path d="M 138.0 124.0 L 138.0 124.0 L 138.0 124.0 L 140.0 124.0 L 143.0 124.0 L 148.0 124.0 L 154.0 124.0 L 160.0 124.0 L 164.0 124.0 L 166.0 127.0 L 168.0 132.0 L 168.0 139.0 L 167.0 144.0 L 167.0 148.0 L 166.0 148.0 " stroke="black" fill="none" stroke-width="5.0" stroke-linecap="round" stroke-linejoin="round" />
<path d="M 119.0 137.0 L 119.0 137.0 L 120.0 137.0 L 122.0 137.0 L 130.0 136.0 L 143.0 136.0 L 155.0 136.0 L 166.0 137.0 L 176.0 139.0 L 181.0 140.0 L 182.0 141.0 L 182.0 141.0 " stroke="black" fill="none" stroke-width="5.0" stroke-linecap="round" stroke-linejoin="round" />
<path d="M 133.0 148.0 L 134.0 148.0 L 135.0 148.0 L 138.0 147.0 L 144.0 147.0 L 152.0 147.0 L 161.0 147.0 L 166.0 147.0 L 167.0 147.0 " stroke="black" fill="none" stroke-width="5.0" stroke-linecap="round" stroke-linejoin="round" />
<path d="M 153.0 125.0 L 153.0 125.0 L 153.0 125.0 L 153.0 125.0 L 153.0 127.0 L 153.0 133.0 L 154.0 140.0 L 154.0 145.0 " stroke="black" fill="none" stroke-width="5.0" stroke-linecap="round" stroke-linejoin="round" />
<path d="M 133.0 158.0 L 133.0 158.0 L 133.0 159.0 L 133.0 159.0 L 135.0 160.0 L 139.0 160.0 L 148.0 161.0 L 157.0 161.0 L 164.0 160.0 L 169.0 159.0 L 171.0 159.0 L 171.0 159.0 L 171.0 161.0 L 172.0 165.0 L 174.0 171.0 L 177.0 178.0 L 179.0 185.0 L 180.0 189.0 L 180.0 190.0 L 179.0 190.0 " stroke="black" fill="none" stroke-width="5.0" stroke-linecap="round" stroke-linejoin="round" />
<path d="M 133.0 162.0 L 133.0 162.0 L 132.0 163.0 L 132.0 166.0 L 132.0 172.0 L 132.0 181.0 L 132.0 187.0 L 132.0 188.0 " stroke="black" fill="none" stroke-width="5.0" stroke-linecap="round" stroke-linejoin="round" />
<path d="M 136.0 171.0 L 136.0 171.0 L 137.0 171.0 L 140.0 171.0 L 145.0 172.0 L 153.0 172.0 L 161.0 172.0 L 167.0 172.0 L 170.0 173.0 L 169.0 174.0 " stroke="black" fill="none" stroke-width="5.0" stroke-linecap="round" stroke-linejoin="round" />
<path d="M 137.0 183.0 L 137.0 183.0 L 137.0 183.0 L 139.0 183.0 L 144.0 183.0 L 154.0 183.0 L 163.0 183.0 L 167.0 183.0 L 167.0 183.0 " stroke="black" fill="none" stroke-width="5.0" stroke-linecap="round" stroke-linejoin="round" />
<path d="M 133.0 191.0 L 134.0 191.0 L 136.0 191.0 L 141.0 192.0 L 149.0 193.0 L 158.0 193.0 L 166.0 193.0 L 167.0 193.0 " stroke="black" fill="none" stroke-width="5.0" stroke-linecap="round" stroke-linejoin="round" />
<path d="M 149.0 196.0 L 148.0 196.0 L 147.0 197.0 L 145.0 199.0 L 142.0 202.0 L 141.0 206.0 " stroke="black" fill="none" stroke-width="5.0" stroke-linecap="round" stroke-linejoin="round" />
<path d="M 159.0 196.0 L 159.0 196.0 L 161.0 196.0 L 163.0 198.0 L 167.0 203.0 L 171.0 209.0 L 172.0 210.0 " stroke="black" fill="none" stroke-width="5.0" stroke-linecap="round" stroke-linejoin="round" />
</svg>