<svg xmlns="http://www.w3.org/2000/svg" width="300" height="300" viewBox="0 0 300 300">
<path d="M 130.0 112.0 L 130.0 112.0 L 130.0 112.0 L 130.0 112.0 L 130.0 112.0 L 130.0 112.0 L 128.0 116.0 L 122.0 128.0 L 114.0 143.0 L 106.0 157.0 L 101.0 164.0 L 100.0 165.0 " stroke="black" fill="none" stroke-width="5.0" stroke-linecap="round" stroke-linejoin="round" />
<path d="M 117.0 140.0 L 118.0 140.0 L 118.0 140.0 L 118.0 140.0 L 119.0 141.0 L 119.0 148.0 L 120.0 162.0 L 120.0 178.0 L 120.0 189.0 L 120.0 193.0 L 120.0 193.0 " stroke="black" fill="none" stroke-width="5.0" stroke-linecap="round" stroke-linejoin="round" />
<path d="M 142.0 123.0 L 142.0 123.0 L 142.0 123.0 L 141.0 123.0 L 141.0 124.0 L 141.0 131.0 L 142.0 144.0 L 143.0 158.0 L 144.0 169.0 L 145.0 172.0 " stroke="black" fill="none" stroke-width="5.0" stroke-linecap="round" stroke-linejoin="round" />
<path d="M 130.0 176.0 L 130.0 176.0 L 130.0 177.0 L 129.0 178.0 L 131.0 178.0 L 139.0 176.0 L 150.0 172.0 L 156.0 169.0 " stroke="black" fill="none" stroke-width="5.0" stroke-linecap="round" stroke-linejoin="round" />
<path d="M 155.0 143.0 L 155.0 143.0 L 155.0 143.0 L 155.0 144.0 L 157.0 147.0 L 160.0 150.0 " stroke="black" fill="none" stroke-width="5.0" stroke-linecap="round" stroke-linejoin="round" />
<path d="M 171.0 116.0 L 171.0 116.0 L 171.0 116.0 L 172.0 116.0 L 172.0 118.0 L 173.0 131.0 L 173.0 152.0 L 168.0 173.0 L 163.0 185.0 L 159.0 189.0 " stroke="black" fill="none" stroke-width="5.0" stroke-linecap="round" stroke-linejoin="round" />
<path d="M 172.0 159.0 L 172.0 159.0 L 173.0 160.0 L 178.0 162.0 L 187.0 166.0 L 195.0 171.0 L 199.0 177.0 " stroke="black" fill="none" stroke-width="5.0" stroke-linecap="round" stroke-linejoin="round" />
</svg>