<svg xmlns="http://www.w3.org/2000/svg" width="300" height="300" viewBox="0 0 300 300">
<path d="M 127.0 105.0 L 128.0 104.0 L 129.0 104.0 L 129.0 104.0 L 129.0 104.0 L 129.0 108.0 L 126.0 114.0 L 120.0 126.0 L 111.0 142.0 L 103.0 155.0 L 99.0 160.0 L 99.0 160.0 " stroke="black" fill="none" stroke-width="5.0" stroke-linecap="round" stroke-linejoin="round" />
<path d="M 116.0 137.0 L 116.0 137.0 L 116.0 136.0 L 116.0 136.0 L 116.0 141.0 L 116.0 151.0 L 116.0 168.0 L 115.0 182.0 L 115.0 188.0 L 115.0 189.0 " stroke="black" fill="none" stroke-width="5.0" stroke-linecap="round" stroke-linejoin="round" />
<path d="M 140.0 123.0 L 140.0 123.0 L 140.0 123.0 L 140.0 123.0 L 140.0 124.0 L 140.0 127.0 L 140.0 137.0 L 141.0 152.0 L 141.0 164.0 L 142.0 169.0 " stroke="black" fill="none" stroke-width="5.0" stroke-linecap="round" stroke-linejoin="round" />
<path d="M 125.0 179.0 L 126.0 179.0 L 127.0 179.0 L 130.0 178.0 L 138.0 178.0 L 147.0 177.0 L 156.0 174.0 " stroke="black" fill="none" stroke-width="5.0" stroke-linecap="round" stroke-linejoin="round" />
<path d="M 157.0 140.0 L 157.0 140.0 L 158.0 140.0 L 160.0 143.0 L 163.0 147.0 L 164.0 148.0 " stroke="black" fill="none" stroke-width="5.0" stroke-linecap="round" stroke-linejoin="round" />
<path d="M 175.0 120.0 L 175.0 121.0 L 175.0 123.0 L 175.0 127.0 L 175.0 136.0 L 175.0 152.0 L 172.0 170.0 L 167.0 186.0 L 162.0 194.0 L 161.0 195.0 " stroke="black" fill="none" stroke-width="5.0" stroke-linecap="round" stroke-linejoin="round" />
<path d="M 176.0 171.0 L 178.0 171.0 L 180.0 173.0 L 186.0 178.0 L 194.0 185.0 L 203.0 193.0 L 206.0 196.0 " stroke="black" fill="none" stroke-width="5.0" stroke-linecap="round" stroke-linejoin="round" />
</svg>