<svg xmlns="http://www.w3.org/2000/svg" width="300" height="300" viewBox="0 0 300 300">
<path d="M 123.0 106.0 L 123.0 106.0 L 123.0 106.0 L 123.0 107.0 L 124.0 110.0 L 126.0 115.0 L 128.0 120.0 L 129.0 122.0 " stroke="black" fill="none" stroke-width="5.0" stroke-linecap="round" stroke-linejoin="round" />
<path d="M 115.0 125.0 L 116.0 126.0 L 116.0 126.0 L 117.0 127.0 L 119.0 127.0 L 124.0 127.0 L 130.0 126.0 L 134.0 126.0 L 137.0 126.0 L 137.0 127.0 L 136.0 129.0 L 131.0 133.0 L 126.0 139.0 L 118.0 147.0 L 109.0 157.0 L 101.0 165.0 L 98.0 168.0 L 100.0 167.0 " stroke="black" fill="none" stroke-width="5.0" stroke-linecap="round" stroke-linejoin="round" />
<path d="M 120.0 147.0 L 120.0 147.0 L 120.0 147.0 L 120.0 148.0 L 120.0 153.0 L 122.0 162.0 L 124.0 173.0 L 125.0 181.0 L 125.0 184.0 " stroke="black" fill="none" stroke-width="5.0" stroke-linecap="round" stroke-linejoin="round" />
<path d="M 122.0 155.0 L 123.0 155.0 L 124.0 155.0 L 129.0 157.0 L 136.0 159.0 L 141.0 161.0 " stroke="black" fill="none" stroke-width="5.0" stroke-linecap="round" stroke-linejoin="round" />
<path d="M 137.0 147.0 L 137.0 147.0 L 136.0 147.0 L 136.0 147.0 L 135.0 149.0 L 135.0 151.0 " stroke="black" fill="none" stroke-width="5.0" stroke-linecap="round" stroke-linejoin="round" />
<path d="M 146.0 117.0 L 146.0 117.0 L 146.0 117.0 L 145.0 117.0 L 145.0 120.0 L 146.0 126.0 L 147.0 134.0 L 147.0 139.0 L 147.0 140.0 " stroke="black" fill="none" stroke-width="5.0" stroke-linecap="round" stroke-linejoin="round" />
<path d="M 146.0 118.0 L 146.0 117.0 L 146.0 116.0 L 147.0 116.0 L 150.0 115.0 L 156.0 115.0 L 162.0 115.0 L 168.0 116.0 L 172.0 118.0 L 175.0 121.0 L 176.0 125.0 L 176.0 132.0 L 176.0 138.0 L 176.0 142.0 L 176.0 144.0 " stroke="black" fill="none" stroke-width="5.0" stroke-linecap="round" stroke-linejoin="round" />
<path d="M 150.0 128.0 L 150.0 128.0 L 151.0 128.0 L 152.0 128.0 L 157.0 128.0 L 163.0 128.0 L 169.0 128.0 L 172.0 129.0 L 172.0 130.0 " stroke="black" fill="none" stroke-width="5.0" stroke-linecap="round" stroke-linejoin="round" />
<path d="M 148.0 138.0 L 148.0 138.0 L 148.0 139.0 L 149.0 140.0 L 155.0 140.0 L 165.0 140.0 L 169.0 140.0 " stroke="black" fill="none" stroke-width="5.0" stroke-linecap="round" stroke-linejoin="round" />
<path d="M 154.0 106.0 L 154.0 106.0 L 154.0 106.0 L 153.0 106.0 L 153.0 111.0 L 154.0 123.0 L 154.0 136.0 L 154.0 144.0 " stroke="black" fill="none" stroke-width="5.0" stroke-linecap="round" stroke-linejoin="round" />
<path d="M 163.0 106.0 L 163.0 106.0 L 163.0 107.0 L 163.0 111.0 L 163.0 122.0 L 163.0 133.0 L 163.0 138.0 " stroke="black" fill="none" stroke-width="5.0" stroke-linecap="round" stroke-linejoin="round" />
<path d="M 151.0 152.0 L 151.0 152.0 L 151.0 152.0 L 152.0 152.0 L 154.0 152.0 L 159.0 152.0 L 164.0 152.0 L 168.0 152.0 L 169.0 152.0 " stroke="black" fill="none" stroke-width="5.0" stroke-linecap="round" stroke-linejoin="round" />
<path d="M 150.0 161.0 L 150.0 161.0 L 149.0 161.0 L 149.0 161.0 L 149.0 162.0 L 149.0 165.0 L 151.0 168.0 " stroke="black" fill="none" stroke-width="5.0" stroke-linecap="round" stroke-linejoin="round" />
<path d="M 152.0 161.0 L 153.0 161.0 L 154.0 161.0 L 156.0 161.0 L 161.0 161.0 L 167.0 160.0 L 172.0 162.0 L 175.0 166.0 L 175.0 169.0 L 173.0 172.0 L 171.0 172.0 " stroke="black" fill="none" stroke-width="5.0" stroke-linecap="round" stroke-linejoin="round" />
<path d="M 152.0 171.0 L 152.0 171.0 L 151.0 171.0 L 151.0 171.0 L 155.0 172.0 L 163.0 172.0 L 170.0 173.0 L 173.0 173.0 " stroke="black" fill="none" stroke-width="5.0" stroke-linecap="round" stroke-linejoin="round" />
<path d="M 152.0 171.0 L 152.0 172.0 L 152.0 174.0 L 153.0 177.0 L 154.0 180.0 L 155.0 181.0 " stroke="black" fill="none" stroke-width="5.0" stroke-linecap="round" stroke-linejoin="round" />
<path d="M 172.0 172.0 L 172.0 173.0 L 170.0 175.0 L 169.0 178.0 L 166.0 183.0 L 165.0 187.0 " stroke="black" fill="none" stroke-width="5.0" stroke-linecap="round" stroke-linejoin="round" />
<path d="M 146.0 188.0 L 146.0 188.0 L 149.0 188.0 L 155.0 189.0 L 166.0 189.0 L 178.0 188.0 L 185.0 188.0 L 186.0 190.0 " stroke="black" fill="none" stroke-width="5.0" stroke-linecap="round" stroke-linejoin="round" />
</svg>