<svg xmlns="http://www.w3.org/2000/svg" width="300" height="300" viewBox="0 0 300 300">
<path d="M 152.0 107.0 L 152.0 106.0 L 152.0 105.0 L 152.0 105.0 L 152.0 105.0 L 152.0 107.0 L 152.0 113.0 L 152.0 121.0 L 152.0 129.0 L 152.0 133.0 L 153.0 134.0 " stroke="black" fill="none" stroke-width="5.0" stroke-linecap="round" stroke-linejoin="round" />
<path d="M 153.0 122.0 L 153.0 123.0 L 153.0 123.0 L 154.0 123.0 L 158.0 123.0 L 166.0 123.0 L 174.0 122.0 L 179.0 122.0 " stroke="black" fill="none" stroke-width="5.0" stroke-linecap="round" stroke-linejoin="round" />
<path d="M 135.0 115.0 L 135.0 116.0 L 135.0 118.0 L 135.0 123.0 L 135.0 129.0 L 135.0 135.0 L 136.0 136.0 " stroke="black" fill="none" stroke-width="5.0" stroke-linecap="round" stroke-linejoin="round" />
<path d="M 115.0 139.0 L 116.0 139.0 L 116.0 140.0 L 119.0 141.0 L 127.0 141.0 L 140.0 141.0 L 155.0 141.0 L 169.0 141.0 L 178.0 141.0 L 184.0 141.0 L 186.0 141.0 " stroke="black" fill="none" stroke-width="5.0" stroke-linecap="round" stroke-linejoin="round" />
<path d="M 152.0 144.0 L 152.0 144.0 L 152.0 144.0 L 152.0 147.0 L 152.0 155.0 L 152.0 165.0 L 153.0 174.0 L 153.0 178.0 L 153.0 178.0 " stroke="black" fill="none" stroke-width="5.0" stroke-linecap="round" stroke-linejoin="round" />
<path d="M 139.0 156.0 L 139.0 156.0 L 138.0 157.0 L 136.0 158.0 L 132.0 161.0 L 124.0 165.0 L 118.0 168.0 L 117.0 169.0 " stroke="black" fill="none" stroke-width="5.0" stroke-linecap="round" stroke-linejoin="round" />
<path d="M 178.0 169.0 L 178.0 169.0 L 178.0 170.0 L 179.0 171.0 L 179.0 173.0 L 179.0 175.0 L 174.0 180.0 L 162.0 187.0 L 146.0 194.0 L 129.0 199.0 " stroke="black" fill="none" stroke-width="5.0" stroke-linecap="round" stroke-linejoin="round" />
</svg>