<svg xmlns="http://www.w3.org/2000/svg" width="300" height="300" viewBox="0 0 300 300">
<path d="M 146.0 105.0 L 146.0 105.0 L 146.0 105.0 L 145.0 107.0 L 145.0 115.0 L 146.0 126.0 L 147.0 135.0 L 147.0 137.0 " stroke="black" fill="none" stroke-width="5.0" stroke-linecap="round" stroke-linejoin="round" />
<path d="M 147.0 122.0 L 147.0 122.0 L 147.0 122.0 L 147.0 122.0 L 148.0 122.0 L 153.0 122.0 L 160.0 122.0 L 167.0 122.0 " stroke="black" fill="none" stroke-width="5.0" stroke-linecap="round" stroke-linejoin="round" />
<path d="M 132.0 115.0 L 132.0 115.0 L 132.0 116.0 L 132.0 117.0 L 132.0 119.0 L 132.0 128.0 L 132.0 139.0 L 133.0 145.0 " stroke="black" fill="none" stroke-width="5.0" stroke-linecap="round" stroke-linejoin="round" />
<path d="M 112.0 150.0 L 114.0 150.0 L 116.0 150.0 L 119.0 149.0 L 126.0 149.0 L 139.0 148.0 L 156.0 147.0 L 170.0 147.0 L 177.0 146.0 L 178.0 146.0 L 178.0 146.0 " stroke="black" fill="none" stroke-width="5.0" stroke-linecap="round" stroke-linejoin="round" />
<path d="M 145.0 151.0 L 145.0 151.0 L 145.0 150.0 L 144.0 150.0 L 144.0 152.0 L 145.0 159.0 L 147.0 168.0 L 147.0 177.0 L 148.0 180.0 " stroke="black" fill="none" stroke-width="5.0" stroke-linecap="round" stroke-linejoin="round" />
<path d="M 136.0 163.0 L 136.0 164.0 L 136.0 165.0 L 135.0 166.0 L 131.0 169.0 L 124.0 174.0 L 117.0 180.0 L 112.0 183.0 " stroke="black" fill="none" stroke-width="5.0" stroke-linecap="round" stroke-linejoin="round" />
<path d="M 166.0 169.0 L 166.0 169.0 L 167.0 170.0 L 167.0 171.0 L 167.0 174.0 L 163.0 180.0 L 154.0 190.0 L 141.0 202.0 L 124.0 210.0 L 117.0 210.0 " stroke="black" fill="none" stroke-width="5.0" stroke-linecap="round" stroke-linejoin="round" />
</svg>