<svg xmlns="http://www.w3.org/2000/svg" width="300" height="300" viewBox="0 0 300 300">
<path d="M 149.0 105.0 L 149.0 105.0 L 149.0 105.0 L 149.0 105.0 L 149.0 107.0 L 150.0 113.0 L 151.0 124.0 L 152.0 133.0 L 153.0 137.0 " stroke="black" fill="none" stroke-width="5.0" stroke-linecap="round" stroke-linejoin="round" />
<path d="M 151.0 120.0 L 151.0 120.0 L 151.0 120.0 L 151.0 120.0 L 153.0 121.0 L 160.0 121.0 L 169.0 120.0 L 176.0 120.0 " stroke="black" fill="none" stroke-width="5.0" stroke-linecap="round" stroke-linejoin="round" />
<path d="M 135.0 123.0 L 135.0 123.0 L 135.0 123.0 L 135.0 124.0 L 135.0 126.0 L 137.0 132.0 L 138.0 138.0 " stroke="black" fill="none" stroke-width="5.0" stroke-linecap="round" stroke-linejoin="round" />
<path d="M 120.0 143.0 L 121.0 142.0 L 123.0 142.0 L 126.0 142.0 L 132.0 141.0 L 143.0 141.0 L 156.0 141.0 L 172.0 141.0 L 185.0 141.0 L 190.0 141.0 " stroke="black" fill="none" stroke-width="5.0" stroke-linecap="round" stroke-linejoin="round" />
<path d="M 152.0 144.0 L 152.0 144.0 L 152.0 145.0 L 152.0 148.0 L 152.0 154.0 L 153.0 163.0 L 153.0 171.0 L 153.0 174.0 " stroke="black" fill="none" stroke-width="5.0" stroke-linecap="round" stroke-linejoin="round" />
<path d="M 138.0 156.0 L 138.0 156.0 L 137.0 156.0 L 136.0 157.0 L 133.0 160.0 L 128.0 164.0 L 125.0 166.0 " stroke="black" fill="none" stroke-width="5.0" stroke-linecap="round" stroke-linejoin="round" />
<path d="M 178.0 163.0 L 178.0 163.0 L 178.0 164.0 L 178.0 165.0 L 178.0 166.0 L 178.0 167.0 L 178.0 170.0 L 171.0 176.0 L 158.0 186.0 L 138.0 196.0 L 122.0 200.0 " stroke="black" fill="none" stroke-width="5.0" stroke-linecap="round" stroke-linejoin="round" />
</svg>