<svg xmlns="http://www.w3.org/2000/svg" width="300" height="300" viewBox="0 0 300 300">
<path d="M 135.0 111.0 L 135.0 111.0 L 135.0 111.0 L 135.0 111.0 L 136.0 111.0 L 141.0 111.0 L 149.0 111.0 L 161.0 111.0 L 170.0 110.0 L 176.0 108.0 L 178.0 107.0 L 178.0 107.0 L 176.0 107.0 L 175.0 108.0 " stroke="black" fill="none" stroke-width="5.0" stroke-linecap="round" stroke-linejoin="round" />
<path d="M 133.0 127.0 L 133.0 127.0 L 133.0 127.0 L 133.0 127.0 L 133.0 130.0 L 134.0 135.0 L 135.0 140.0 L 136.0 141.0 " stroke="black" fill="none" stroke-width="5.0" stroke-linecap="round" stroke-linejoin="round" />
<path d="M 134.0 127.0 L 134.0 127.0 L 134.0 127.0 L 134.0 127.0 L 137.0 127.0 L 145.0 126.0 L 155.0 125.0 L 165.0 124.0 L 173.0 124.0 L 177.0 127.0 L 178.0 132.0 L 178.0 137.0 L 178.0 141.0 L 178.0 144.0 L 176.0 144.0 " stroke="black" fill="none" stroke-width="5.0" stroke-linecap="round" stroke-linejoin="round" />
<path d="M 136.0 145.0 L 136.0 145.0 L 136.0 145.0 L 136.0 146.0 L 138.0 146.0 L 146.0 146.0 L 159.0 146.0 L 170.0 145.0 L 175.0 144.0 L 176.0 144.0 L 174.0 145.0 " stroke="black" fill="none" stroke-width="5.0" stroke-linecap="round" stroke-linejoin="round" />
<path d="M 136.0 160.0 L 136.0 160.0 L 137.0 160.0 L 140.0 160.0 L 148.0 160.0 L 158.0 159.0 L 165.0 159.0 L 171.0 159.0 L 173.0 160.0 L 175.0 162.0 L 176.0 165.0 L 177.0 170.0 L 178.0 174.0 L 178.0 178.0 L 178.0 179.0 L 178.0 179.0 " stroke="black" fill="none" stroke-width="5.0" stroke-linecap="round" stroke-linejoin="round" />
<path d="M 117.0 172.0 L 117.0 172.0 L 119.0 172.0 L 121.0 172.0 L 128.0 172.0 L 141.0 172.0 L 156.0 172.0 L 170.0 171.0 L 181.0 171.0 L 186.0 171.0 L 187.0 172.0 L 187.0 173.0 " stroke="black" fill="none" stroke-width="5.0" stroke-linecap="round" stroke-linejoin="round" />
<path d="M 133.0 183.0 L 133.0 183.0 L 133.0 183.0 L 134.0 183.0 L 141.0 182.0 L 154.0 181.0 L 169.0 180.0 L 179.0 180.0 L 181.0 180.0 " stroke="black" fill="none" stroke-width="5.0" stroke-linecap="round" stroke-linejoin="round" />
<path d="M 155.0 93.0 L 155.0 93.0 L 156.0 93.0 L 156.0 93.0 L 156.0 93.0 L 156.0 94.0 L 157.0 101.0 L 158.0 118.0 L 159.0 142.0 L 160.0 163.0 L 161.0 176.0 L 163.0 184.0 L 163.0 189.0 L 163.0 194.0 L 163.0 201.0 L 162.0 206.0 L 161.0 206.0 L 161.0 206.0 L 161.0 206.0 L 158.0 203.0 L 156.0 200.0 L 152.0 198.0 L 148.0 197.0 L 145.0 196.0 " stroke="black" fill="none" stroke-width="5.0" stroke-linecap="round" stroke-linejoin="round" />
</svg>