<svg xmlns="http://www.w3.org/2000/svg" width="300" height="300" viewBox="0 0 300 300">
<path d="M 117.0 100.0 L 117.0 100.0 L 117.0 100.0 L 117.0 100.0 L 118.0 100.0 L 122.0 100.0 L 130.0 100.0 L 137.0 99.0 L 142.0 99.0 " stroke="black" fill="none" stroke-width="5.0" stroke-linecap="round" stroke-linejoin="round" />
<path d="M 119.0 104.0 L 119.0 104.0 L 119.0 104.0 L 119.0 104.0 L 119.0 105.0 L 120.0 109.0 L 120.0 114.0 L 120.0 118.0 L 120.0 118.0 " stroke="black" fill="none" stroke-width="5.0" stroke-linecap="round" stroke-linejoin="round" />
<path d="M 123.0 109.0 L 123.0 109.0 L 124.0 109.0 L 125.0 109.0 L 128.0 109.0 L 133.0 109.0 L 137.0 108.0 L 139.0 108.0 L 140.0 108.0 " stroke="black" fill="none" stroke-width="5.0" stroke-linecap="round" stroke-linejoin="round" />
<path d="M 121.0 115.0 L 121.0 115.0 L 121.0 116.0 L 122.0 116.0 L 127.0 116.0 L 134.0 116.0 L 140.0 115.0 L 141.0 115.0 " stroke="black" fill="none" stroke-width="5.0" stroke-linecap="round" stroke-linejoin="round" />
<path d="M 110.0 126.0 L 111.0 126.0 L 113.0 126.0 L 117.0 126.0 L 125.0 125.0 L 134.0 124.0 L 141.0 124.0 L 144.0 124.0 " stroke="black" fill="none" stroke-width="5.0" stroke-linecap="round" stroke-linejoin="round" />
<path d="M 123.0 124.0 L 123.0 124.0 L 123.0 125.0 L 123.0 126.0 L 123.0 127.0 L 121.0 128.0 L 119.0 131.0 L 117.0 133.0 L 116.0 135.0 L 118.0 138.0 L 124.0 139.0 L 133.0 139.0 L 141.0 137.0 L 143.0 137.0 " stroke="black" fill="none" stroke-width="5.0" stroke-linecap="round" stroke-linejoin="round" />
<path d="M 140.0 131.0 L 140.0 131.0 L 140.0 132.0 L 140.0 133.0 L 141.0 135.0 L 144.0 138.0 L 144.0 139.0 " stroke="black" fill="none" stroke-width="5.0" stroke-linecap="round" stroke-linejoin="round" />
<path d="M 161.0 103.0 L 161.0 103.0 L 161.0 103.0 L 161.0 103.0 L 160.0 105.0 L 157.0 109.0 " stroke="black" fill="none" stroke-width="5.0" stroke-linecap="round" stroke-linejoin="round" />
<path d="M 167.0 112.0 L 167.0 112.0 L 168.0 113.0 L 168.0 113.0 L 168.0 113.0 L 167.0 115.0 L 164.0 118.0 L 162.0 119.0 " stroke="black" fill="none" stroke-width="5.0" stroke-linecap="round" stroke-linejoin="round" />
<path d="M 173.0 121.0 L 173.0 121.0 L 173.0 122.0 L 173.0 122.0 L 172.0 123.0 L 171.0 124.0 L 168.0 127.0 " stroke="black" fill="none" stroke-width="5.0" stroke-linecap="round" stroke-linejoin="round" />
<path d="M 118.0 153.0 L 118.0 153.0 L 118.0 153.0 L 118.0 154.0 L 118.0 156.0 L 119.0 159.0 L 120.0 161.0 L 120.0 162.0 " stroke="black" fill="none" stroke-width="5.0" stroke-linecap="round" stroke-linejoin="round" />
<path d="M 120.0 152.0 L 121.0 152.0 L 123.0 152.0 L 126.0 152.0 L 131.0 151.0 L 141.0 150.0 L 153.0 150.0 L 164.0 148.0 L 173.0 148.0 L 177.0 148.0 L 178.0 149.0 L 179.0 151.0 L 179.0 155.0 L 179.0 160.0 L 178.0 163.0 " stroke="black" fill="none" stroke-width="5.0" stroke-linecap="round" stroke-linejoin="round" />
<path d="M 152.0 138.0 L 152.0 138.0 L 152.0 138.0 L 152.0 139.0 L 153.0 142.0 L 153.0 144.0 " stroke="black" fill="none" stroke-width="5.0" stroke-linecap="round" stroke-linejoin="round" />
<path d="M 135.0 160.0 L 135.0 160.0 L 135.0 160.0 L 136.0 160.0 L 139.0 160.0 L 144.0 160.0 L 151.0 160.0 L 156.0 159.0 L 159.0 159.0 L 160.0 159.0 L 160.0 159.0 " stroke="black" fill="none" stroke-width="5.0" stroke-linecap="round" stroke-linejoin="round" />
<path d="M 146.0 160.0 L 146.0 160.0 L 146.0 160.0 L 147.0 161.0 L 147.0 164.0 L 148.0 167.0 L 148.0 169.0 " stroke="black" fill="none" stroke-width="5.0" stroke-linecap="round" stroke-linejoin="round" />
<path d="M 141.0 165.0 L 141.0 166.0 L 140.0 166.0 L 139.0 167.0 L 137.0 168.0 L 132.0 171.0 L 130.0 173.0 " stroke="black" fill="none" stroke-width="5.0" stroke-linecap="round" stroke-linejoin="round" />
<path d="M 158.0 165.0 L 158.0 165.0 L 158.0 166.0 L 158.0 167.0 L 158.0 168.0 L 156.0 169.0 L 152.0 172.0 L 141.0 178.0 L 128.0 184.0 L 117.0 188.0 L 114.0 188.0 " stroke="black" fill="none" stroke-width="5.0" stroke-linecap="round" stroke-linejoin="round" />
<path d="M 145.0 179.0 L 145.0 179.0 L 145.0 179.0 L 145.0 179.0 L 145.0 179.0 L 148.0 179.0 L 152.0 179.0 L 156.0 178.0 L 160.0 178.0 L 162.0 177.0 L 163.0 177.0 L 165.0 178.0 L 166.0 180.0 L 167.0 184.0 L 169.0 191.0 L 169.0 198.0 L 170.0 202.0 L 170.0 203.0 " stroke="black" fill="none" stroke-width="5.0" stroke-linecap="round" stroke-linejoin="round" />
<path d="M 143.0 181.0 L 143.0 181.0 L 143.0 182.0 L 143.0 183.0 L 142.0 187.0 L 142.0 192.0 L 141.0 198.0 L 141.0 199.0 " stroke="black" fill="none" stroke-width="5.0" stroke-linecap="round" stroke-linejoin="round" />
<path d="M 145.0 189.0 L 145.0 189.0 L 145.0 189.0 L 147.0 188.0 L 151.0 188.0 L 156.0 188.0 L 160.0 188.0 L 163.0 189.0 L 163.0 189.0 " stroke="black" fill="none" stroke-width="5.0" stroke-linecap="round" stroke-linejoin="round" />
<path d="M 147.0 196.0 L 147.0 196.0 L 148.0 197.0 L 150.0 197.0 L 155.0 197.0 L 161.0 196.0 L 164.0 196.0 " stroke="black" fill="none" stroke-width="5.0" stroke-linecap="round" stroke-linejoin="round" />
<path d="M 147.0 204.0 L 147.0 204.0 L 147.0 204.0 L 147.0 205.0 L 147.0 205.0 L 147.0 205.0 L 148.0 205.0 L 153.0 205.0 L 160.0 205.0 L 167.0 205.0 L 169.0 206.0 " stroke="black" fill="none" stroke-width="5.0" stroke-linecap="round" stroke-linejoin="round" />
<path d="M 152.0 207.0 L 152.0 207.0 L 152.0 207.0 L 152.0 207.0 L 152.0 207.0 L 152.0 208.0 L 150.0 213.0 L 150.0 213.0 " stroke="black" fill="none" stroke-width="5.0" stroke-linecap="round" stroke-linejoin="round" />
<path d="M 162.0 209.0 L 162.0 209.0 L 163.0 210.0 L 163.0 211.0 L 165.0 213.0 L 167.0 214.0 " stroke="black" fill="none" stroke-width="5.0" stroke-linecap="round" stroke-linejoin="round" />
</svg>