<svg xmlns="http://www.w3.org/2000/svg" width="300" height="300" viewBox="0 0 300 300">
<path d="M 105.0 141.0 L 105.0 142.0 L 105.0 142.0 L 105.0 143.0 L 104.0 146.0 L 104.0 153.0 L 104.0 165.0 L 104.0 178.0 L 104.0 187.0 L 104.0 192.0 L 106.0 194.0 L 108.0 194.0 L 112.0 194.0 L 119.0 194.0 L 129.0 195.0 L 141.0 195.0 L 152.0 196.0 L 163.0 196.0 L 173.0 196.0 L 180.0 196.0 L 184.0 196.0 L 185.0 196.0 L 185.0 196.0 L 185.0 196.0 " stroke="black" fill="none" stroke-width="5.0" stroke-linecap="round" stroke-linejoin="round" />
<path d="M 128.0 136.0 L 128.0 136.0 L 128.0 136.0 L 128.0 136.0 L 128.0 136.0 L 128.0 136.0 L 128.0 136.0 L 126.0 138.0 L 123.0 141.0 L 121.0 145.0 L 119.0 149.0 L 119.0 153.0 L 119.0 155.0 L 122.0 155.0 L 123.0 155.0 " stroke="black" fill="none" stroke-width="5.0" stroke-linecap="round" stroke-linejoin="round" />
<path d="M 134.0 144.0 L 134.0 144.0 L 134.0 144.0 L 133.0 145.0 L 132.0 147.0 L 129.0 150.0 L 125.0 155.0 L 119.0 161.0 L 116.0 166.0 L 115.0 169.0 L 117.0 171.0 L 122.0 171.0 L 128.0 169.0 L 133.0 167.0 " stroke="black" fill="none" stroke-width="5.0" stroke-linecap="round" stroke-linejoin="round" />
<path d="M 134.0 161.0 L 134.0 161.0 L 134.0 162.0 L 134.0 163.0 L 135.0 166.0 L 137.0 170.0 L 138.0 173.0 " stroke="black" fill="none" stroke-width="5.0" stroke-linecap="round" stroke-linejoin="round" />
<path d="M 149.0 121.0 L 149.0 123.0 L 149.0 126.0 L 149.0 132.0 L 149.0 145.0 L 149.0 161.0 L 149.0 175.0 L 149.0 184.0 L 150.0 186.0 L 150.0 186.0 " stroke="black" fill="none" stroke-width="5.0" stroke-linecap="round" stroke-linejoin="round" />
<path d="M 169.0 137.0 L 169.0 136.0 L 169.0 136.0 L 169.0 136.0 L 169.0 136.0 L 167.0 138.0 L 166.0 140.0 L 164.0 142.0 L 163.0 145.0 L 162.0 148.0 L 162.0 150.0 L 164.0 152.0 L 166.0 152.0 " stroke="black" fill="none" stroke-width="5.0" stroke-linecap="round" stroke-linejoin="round" />
<path d="M 178.0 146.0 L 177.0 146.0 L 176.0 146.0 L 175.0 146.0 L 173.0 148.0 L 170.0 152.0 L 166.0 157.0 L 164.0 163.0 L 163.0 167.0 L 163.0 170.0 L 166.0 172.0 L 171.0 172.0 L 176.0 172.0 L 177.0 171.0 " stroke="black" fill="none" stroke-width="5.0" stroke-linecap="round" stroke-linejoin="round" />
<path d="M 181.0 162.0 L 181.0 165.0 L 181.0 168.0 L 181.0 172.0 L 183.0 176.0 L 183.0 177.0 " stroke="black" fill="none" stroke-width="5.0" stroke-linecap="round" stroke-linejoin="round" />
<path d="M 190.0 146.0 L 190.0 147.0 L 190.0 148.0 L 190.0 152.0 L 191.0 160.0 L 192.0 173.0 L 193.0 185.0 L 194.0 195.0 L 194.0 199.0 L 194.0 200.0 L 194.0 200.0 " stroke="black" fill="none" stroke-width="5.0" stroke-linecap="round" stroke-linejoin="round" />
</svg>