<svg xmlns="http://www.w3.org/2000/svg" width="300" height="300" viewBox="0 0 300 300">
<path d="M 115.0 115.0 L 115.0 115.0 L 115.0 115.0 L 116.0 115.0 L 119.0 116.0 L 125.0 116.0 L 132.0 117.0 L 137.0 118.0 L 138.0 118.0 " stroke="black" fill="none" stroke-width="5.0" stroke-linecap="round" stroke-linejoin="round" />
<path d="M 125.0 103.0 L 125.0 102.0 L 125.0 101.0 L 125.0 102.0 L 125.0 110.0 L 126.0 124.0 L 128.0 138.0 L 128.0 145.0 L 128.0 146.0 L 128.0 145.0 " stroke="black" fill="none" stroke-width="5.0" stroke-linecap="round" stroke-linejoin="round" />
<path d="M 125.0 119.0 L 125.0 119.0 L 125.0 120.0 L 124.0 122.0 L 122.0 125.0 L 119.0 129.0 L 113.0 135.0 L 107.0 142.0 L 105.0 144.0 " stroke="black" fill="none" stroke-width="5.0" stroke-linecap="round" stroke-linejoin="round" />
<path d="M 124.0 126.0 L 125.0 126.0 L 126.0 126.0 L 129.0 128.0 L 135.0 132.0 L 142.0 137.0 L 145.0 139.0 " stroke="black" fill="none" stroke-width="5.0" stroke-linecap="round" stroke-linejoin="round" />
<path d="M 148.0 107.0 L 148.0 107.0 L 148.0 107.0 L 148.0 107.0 L 148.0 111.0 L 148.0 123.0 L 148.0 138.0 L 149.0 147.0 L 150.0 148.0 " stroke="black" fill="none" stroke-width="5.0" stroke-linecap="round" stroke-linejoin="round" />
<path d="M 149.0 108.0 L 149.0 108.0 L 149.0 108.0 L 149.0 108.0 L 152.0 107.0 L 161.0 107.0 L 164.0 107.0 L 168.0 110.0 L 172.0 119.0 L 174.0 132.0 L 176.0 143.0 L 177.0 149.0 L 178.0 150.0 L 176.0 150.0 " stroke="black" fill="none" stroke-width="5.0" stroke-linecap="round" stroke-linejoin="round" />
<path d="M 151.0 121.0 L 151.0 121.0 L 151.0 121.0 L 153.0 121.0 L 158.0 122.0 L 164.0 122.0 L 168.0 122.0 L 170.0 122.0 " stroke="black" fill="none" stroke-width="5.0" stroke-linecap="round" stroke-linejoin="round" />
<path d="M 150.0 133.0 L 152.0 134.0 L 154.0 135.0 L 158.0 135.0 L 164.0 135.0 L 170.0 135.0 L 172.0 136.0 " stroke="black" fill="none" stroke-width="5.0" stroke-linecap="round" stroke-linejoin="round" />
<path d="M 149.0 147.0 L 149.0 148.0 L 150.0 149.0 L 154.0 150.0 L 161.0 150.0 L 170.0 150.0 L 173.0 150.0 " stroke="black" fill="none" stroke-width="5.0" stroke-linecap="round" stroke-linejoin="round" />
<path d="M 122.0 165.0 L 122.0 166.0 L 122.0 169.0 L 120.0 172.0 L 115.0 180.0 L 111.0 186.0 " stroke="black" fill="none" stroke-width="5.0" stroke-linecap="round" stroke-linejoin="round" />
<path d="M 136.0 172.0 L 136.0 172.0 L 136.0 171.0 L 136.0 171.0 L 135.0 171.0 L 135.0 173.0 L 135.0 179.0 L 134.0 186.0 L 135.0 192.0 L 140.0 195.0 L 148.0 197.0 L 158.0 197.0 L 169.0 197.0 L 178.0 197.0 L 182.0 197.0 L 184.0 195.0 L 184.0 194.0 L 183.0 191.0 L 181.0 188.0 " stroke="black" fill="none" stroke-width="5.0" stroke-linecap="round" stroke-linejoin="round" />
<path d="M 157.0 166.0 L 157.0 166.0 L 157.0 166.0 L 157.0 169.0 L 157.0 175.0 L 160.0 182.0 L 161.0 184.0 " stroke="black" fill="none" stroke-width="5.0" stroke-linecap="round" stroke-linejoin="round" />
<path d="M 191.0 164.0 L 192.0 166.0 L 194.0 169.0 L 196.0 175.0 L 199.0 182.0 L 200.0 183.0 " stroke="black" fill="none" stroke-width="5.0" stroke-linecap="round" stroke-linejoin="round" />
</svg>