<svg xmlns="http://www.w3.org/2000/svg" width="300" height="300" viewBox="0 0 300 300">
<path d="M 134.0 105.0 L 134.0 105.0 L 133.0 106.0 L 132.0 108.0 L 131.0 111.0 L 128.0 117.0 L 121.0 128.0 L 109.0 146.0 L 100.0 157.0 " stroke="black" fill="none" stroke-width="5.0" stroke-linecap="round" stroke-linejoin="round" />
<path d="M 118.0 135.0 L 119.0 133.0 L 120.0 133.0 L 120.0 137.0 L 120.0 145.0 L 120.0 156.0 L 121.0 170.0 L 121.0 182.0 L 121.0 187.0 " stroke="black" fill="none" stroke-width="5.0" stroke-linecap="round" stroke-linejoin="round" />
<path d="M 141.0 119.0 L 141.0 119.0 L 141.0 120.0 L 140.0 120.0 L 141.0 120.0 L 144.0 119.0 L 150.0 118.0 L 157.0 118.0 L 162.0 117.0 L 164.0 117.0 " stroke="black" fill="none" stroke-width="5.0" stroke-linecap="round" stroke-linejoin="round" />
<path d="M 142.0 137.0 L 141.0 137.0 L 141.0 137.0 L 141.0 137.0 L 146.0 136.0 L 152.0 136.0 L 160.0 135.0 L 164.0 135.0 " stroke="black" fill="none" stroke-width="5.0" stroke-linecap="round" stroke-linejoin="round" />
<path d="M 149.0 107.0 L 149.0 107.0 L 149.0 107.0 L 149.0 106.0 L 149.0 108.0 L 151.0 115.0 L 154.0 127.0 L 155.0 135.0 " stroke="black" fill="none" stroke-width="5.0" stroke-linecap="round" stroke-linejoin="round" />
<path d="M 130.0 154.0 L 130.0 154.0 L 130.0 154.0 L 131.0 155.0 L 138.0 155.0 L 151.0 154.0 L 166.0 152.0 L 177.0 152.0 L 181.0 152.0 L 182.0 153.0 " stroke="black" fill="none" stroke-width="5.0" stroke-linecap="round" stroke-linejoin="round" />
<path d="M 157.0 143.0 L 157.0 143.0 L 157.0 143.0 L 157.0 145.0 L 161.0 154.0 L 167.0 168.0 L 171.0 182.0 L 173.0 189.0 L 173.0 191.0 L 172.0 192.0 L 168.0 192.0 L 161.0 192.0 L 152.0 191.0 L 147.0 191.0 " stroke="black" fill="none" stroke-width="5.0" stroke-linecap="round" stroke-linejoin="round" />
<path d="M 145.0 172.0 L 145.0 172.0 L 147.0 174.0 L 150.0 175.0 L 157.0 176.0 L 161.0 176.0 " stroke="black" fill="none" stroke-width="5.0" stroke-linecap="round" stroke-linejoin="round" />
</svg>