<svg xmlns="http://www.w3.org/2000/svg" width="300" height="300" viewBox="0 0 300 300">
<path d="M 132.0 111.0 L 132.0 111.0 L 132.0 111.0 L 132.0 112.0 L 131.0 113.0 L 130.0 116.0 L 126.0 123.0 L 118.0 139.0 L 106.0 157.0 L 101.0 164.0 " stroke="black" fill="none" stroke-width="5.0" stroke-linecap="round" stroke-linejoin="round" />
<path d="M 120.0 139.0 L 120.0 139.0 L 120.0 140.0 L 120.0 141.0 L 120.0 142.0 L 120.0 146.0 L 120.0 155.0 L 120.0 170.0 L 120.0 185.0 L 120.0 193.0 L 120.0 194.0 L 120.0 194.0 " stroke="black" fill="none" stroke-width="5.0" stroke-linecap="round" stroke-linejoin="round" />
<path d="M 146.0 120.0 L 146.0 120.0 L 146.0 121.0 L 146.0 121.0 L 146.0 122.0 L 148.0 122.0 L 153.0 122.0 L 161.0 122.0 L 170.0 122.0 L 177.0 122.0 L 181.0 123.0 L 181.0 123.0 " stroke="black" fill="none" stroke-width="5.0" stroke-linecap="round" stroke-linejoin="round" />
<path d="M 152.0 138.0 L 152.0 138.0 L 152.0 138.0 L 152.0 138.0 L 152.0 138.0 L 152.0 138.0 L 152.0 138.0 L 154.0 138.0 L 159.0 138.0 L 166.0 138.0 L 172.0 139.0 L 176.0 140.0 " stroke="black" fill="none" stroke-width="5.0" stroke-linecap="round" stroke-linejoin="round" />
<path d="M 162.0 111.0 L 162.0 111.0 L 162.0 111.0 L 162.0 111.0 L 162.0 113.0 L 162.0 118.0 L 163.0 128.0 L 164.0 132.0 " stroke="black" fill="none" stroke-width="5.0" stroke-linecap="round" stroke-linejoin="round" />
<path d="M 140.0 154.0 L 140.0 154.0 L 139.0 154.0 L 139.0 154.0 L 139.0 154.0 L 140.0 154.0 L 145.0 154.0 L 155.0 154.0 L 168.0 154.0 L 182.0 156.0 L 191.0 158.0 L 194.0 159.0 " stroke="black" fill="none" stroke-width="5.0" stroke-linecap="round" stroke-linejoin="round" />
<path d="M 169.0 146.0 L 169.0 145.0 L 169.0 144.0 L 169.0 144.0 L 169.0 143.0 L 169.0 145.0 L 170.0 152.0 L 172.0 163.0 L 176.0 180.0 L 179.0 194.0 L 180.0 201.0 L 180.0 203.0 L 177.0 202.0 L 171.0 198.0 L 166.0 194.0 " stroke="black" fill="none" stroke-width="5.0" stroke-linecap="round" stroke-linejoin="round" />
<path d="M 147.0 170.0 L 147.0 171.0 L 147.0 172.0 L 148.0 174.0 L 151.0 178.0 " stroke="black" fill="none" stroke-width="5.0" stroke-linecap="round" stroke-linejoin="round" />
</svg>