<svg xmlns="http://www.w3.org/2000/svg" width="300" height="300" viewBox="0 0 300 300">
<path d="M 137.0 110.0 L 137.0 110.0 L 136.0 111.0 L 136.0 111.0 L 135.0 112.0 L 135.0 114.0 L 133.0 120.0 L 127.0 133.0 L 115.0 151.0 L 104.0 165.0 L 101.0 167.0 " stroke="black" fill="none" stroke-width="5.0" stroke-linecap="round" stroke-linejoin="round" />
<path d="M 126.0 139.0 L 126.0 139.0 L 125.0 141.0 L 125.0 148.0 L 125.0 160.0 L 124.0 176.0 L 122.0 188.0 L 122.0 191.0 " stroke="black" fill="none" stroke-width="5.0" stroke-linecap="round" stroke-linejoin="round" />
<path d="M 150.0 124.0 L 150.0 124.0 L 151.0 125.0 L 152.0 125.0 L 154.0 125.0 L 158.0 125.0 L 165.0 123.0 L 172.0 122.0 L 176.0 122.0 " stroke="black" fill="none" stroke-width="5.0" stroke-linecap="round" stroke-linejoin="round" />
<path d="M 151.0 142.0 L 151.0 142.0 L 152.0 143.0 L 155.0 143.0 L 163.0 141.0 L 174.0 139.0 L 178.0 139.0 " stroke="black" fill="none" stroke-width="5.0" stroke-linecap="round" stroke-linejoin="round" />
<path d="M 161.0 112.0 L 161.0 112.0 L 161.0 113.0 L 162.0 114.0 L 164.0 118.0 L 167.0 127.0 L 167.0 130.0 " stroke="black" fill="none" stroke-width="5.0" stroke-linecap="round" stroke-linejoin="round" />
<path d="M 140.0 161.0 L 140.0 161.0 L 140.0 161.0 L 144.0 161.0 L 153.0 160.0 L 170.0 158.0 L 185.0 157.0 L 191.0 157.0 " stroke="black" fill="none" stroke-width="5.0" stroke-linecap="round" stroke-linejoin="round" />
<path d="M 168.0 148.0 L 168.0 148.0 L 168.0 148.0 L 168.0 148.0 L 168.0 148.0 L 169.0 149.0 L 172.0 159.0 L 176.0 178.0 L 179.0 192.0 L 180.0 199.0 L 179.0 199.0 L 175.0 199.0 L 168.0 199.0 L 159.0 199.0 L 151.0 198.0 " stroke="black" fill="none" stroke-width="5.0" stroke-linecap="round" stroke-linejoin="round" />
<path d="M 147.0 176.0 L 147.0 176.0 L 147.0 176.0 L 147.0 177.0 L 151.0 178.0 L 153.0 178.0 " stroke="black" fill="none" stroke-width="5.0" stroke-linecap="round" stroke-linejoin="round" />
</svg>