<svg xmlns="http://www.w3.org/2000/svg" width="300" height="300" viewBox="0 0 300 300">
<path d="M 135.0 111.0 L 135.0 111.0 L 135.0 111.0 L 135.0 111.0 L 137.0 111.0 L 144.0 111.0 L 156.0 109.0 L 167.0 108.0 L 174.0 108.0 L 174.0 108.0 " stroke="black" fill="none" stroke-width="5.0" stroke-linecap="round" stroke-linejoin="round" />
<path d="M 125.0 130.0 L 125.0 130.0 L 125.0 131.0 L 125.0 132.0 L 126.0 134.0 L 126.0 137.0 L 127.0 138.0 " stroke="black" fill="none" stroke-width="5.0" stroke-linecap="round" stroke-linejoin="round" />
<path d="M 124.0 127.0 L 124.0 127.0 L 125.0 127.0 L 126.0 127.0 L 131.0 127.0 L 142.0 126.0 L 154.0 124.0 L 165.0 123.0 L 174.0 123.0 L 181.0 124.0 L 185.0 124.0 L 187.0 126.0 L 187.0 130.0 L 187.0 134.0 L 186.0 138.0 L 186.0 139.0 " stroke="black" fill="none" stroke-width="5.0" stroke-linecap="round" stroke-linejoin="round" />
<path d="M 128.0 146.0 L 128.0 146.0 L 129.0 146.0 L 131.0 146.0 L 139.0 146.0 L 152.0 146.0 L 165.0 146.0 L 173.0 146.0 L 175.0 146.0 " stroke="black" fill="none" stroke-width="5.0" stroke-linecap="round" stroke-linejoin="round" />
<path d="M 144.0 114.0 L 144.0 114.0 L 144.0 114.0 L 144.0 116.0 L 144.0 121.0 L 145.0 129.0 L 146.0 138.0 L 146.0 141.0 " stroke="black" fill="none" stroke-width="5.0" stroke-linecap="round" stroke-linejoin="round" />
<path d="M 157.0 113.0 L 157.0 114.0 L 157.0 117.0 L 157.0 124.0 L 159.0 133.0 L 160.0 139.0 " stroke="black" fill="none" stroke-width="5.0" stroke-linecap="round" stroke-linejoin="round" />
<path d="M 146.0 149.0 L 146.0 149.0 L 146.0 149.0 L 146.0 149.0 L 146.0 153.0 L 144.0 159.0 L 140.0 168.0 L 137.0 176.0 L 134.0 181.0 L 134.0 183.0 L 135.0 186.0 L 141.0 188.0 L 150.0 190.0 L 159.0 192.0 L 169.0 193.0 L 173.0 194.0 L 174.0 195.0 " stroke="black" fill="none" stroke-width="5.0" stroke-linecap="round" stroke-linejoin="round" />
<path d="M 161.0 156.0 L 161.0 156.0 L 161.0 156.0 L 161.0 156.0 L 161.0 158.0 L 161.0 164.0 L 160.0 176.0 L 157.0 189.0 L 154.0 197.0 L 153.0 198.0 " stroke="black" fill="none" stroke-width="5.0" stroke-linecap="round" stroke-linejoin="round" />
<path d="M 117.0 171.0 L 117.0 171.0 L 117.0 171.0 L 118.0 171.0 L 128.0 171.0 L 147.0 171.0 L 167.0 171.0 L 182.0 171.0 L 189.0 171.0 L 192.0 171.0 L 192.0 172.0 L 192.0 172.0 " stroke="black" fill="none" stroke-width="5.0" stroke-linecap="round" stroke-linejoin="round" />
</svg>