<svg xmlns="http://www.w3.org/2000/svg" width="300" height="300" viewBox="0 0 300 300">
<path d="M 112.0 128.0 L 112.0 128.0 L 112.0 128.0 L 112.0 128.0 L 112.0 129.0 L 112.0 130.0 L 113.0 135.0 L 113.0 138.0 L 113.0 139.0 " stroke="black" fill="none" stroke-width="5.0" stroke-linecap="round" stroke-linejoin="round" />
<path d="M 115.0 122.0 L 117.0 123.0 L 118.0 123.0 L 119.0 123.0 L 125.0 123.0 L 131.0 123.0 L 147.0 122.0 L 157.0 121.0 L 166.0 121.0 L 173.0 121.0 L 178.0 123.0 L 181.0 124.0 L 184.0 129.0 L 184.0 128.0 L 184.0 130.0 L 183.0 135.0 L 179.0 143.0 L 178.0 147.0 L 178.0 148.0 " stroke="black" fill="none" stroke-width="5.0" stroke-linecap="round" stroke-linejoin="round" />
<path d="M 143.0 105.0 L 143.0 105.0 L 143.0 105.0 " stroke="black" fill="none" stroke-width="5.0" stroke-linecap="round" stroke-linejoin="round" />
<path d="M 143.0 107.0 L 145.0 114.0 L 148.0 120.0 L 150.0 124.0 " stroke="black" fill="none" stroke-width="5.0" stroke-linecap="round" stroke-linejoin="round" />
<path d="M 136.0 141.0 L 136.0 141.0 L 136.0 142.0 L 137.0 143.0 L 140.0 143.0 L 146.0 144.0 L 150.0 144.0 L 156.0 144.0 L 157.0 144.0 L 156.0 147.0 L 150.0 151.0 L 148.0 153.0 L 143.0 157.0 L 142.0 160.0 L 142.0 167.0 L 146.0 174.0 L 149.0 180.0 L 154.0 190.0 L 156.0 195.0 L 156.0 200.0 L 156.0 202.0 L 152.0 202.0 L 147.0 202.0 L 142.0 200.0 L 141.0 199.0 " stroke="black" fill="none" stroke-width="5.0" stroke-linecap="round" stroke-linejoin="round" />
<path d="M 111.0 177.0 L 111.0 177.0 L 111.0 176.0 L 111.0 176.0 L 113.0 176.0 L 128.0 175.0 L 137.0 175.0 L 161.0 175.0 L 171.0 175.0 L 182.0 174.0 L 185.0 174.0 L 185.0 174.0 L 184.0 172.0 " stroke="black" fill="none" stroke-width="5.0" stroke-linecap="round" stroke-linejoin="round" />
</svg>