<svg xmlns="http://www.w3.org/2000/svg" width="300" height="300" viewBox="0 0 300 300">
<path d="M 117.85714285714288 118.5714285714286 L 117.85714285714288 118.5714285714286 L 117.85714285714288 118.5714285714286 L 117.85714285714288 118.5714285714286 L 117.85714285714288 120.00000000000001 L 117.85714285714288 124.28571428571432 L 118.5714285714286 125.71428571428574 " stroke="black" fill="none" stroke-width="5.0" stroke-linecap="round" stroke-linejoin="round" />
<path d="M 123.5714285714286 117.14285714285718 L 123.5714285714286 117.14285714285718 L 123.5714285714286 117.14285714285718 L 123.5714285714286 116.42857142857146 L 127.14285714285718 115.71428571428574 L 135.00000000000006 115.00000000000001 L 145.71428571428572 115.00000000000001 L 155.00000000000006 115.00000000000001 L 165.00000000000006 115.00000000000001 L 172.8571428571429 115.00000000000001 L 176.42857142857144 115.00000000000001 L 177.14285714285717 115.71428571428574 L 177.14285714285717 118.5714285714286 L 176.42857142857144 123.5714285714286 L 176.42857142857144 128.5714285714286 L 176.42857142857144 130.00000000000006 " stroke="black" fill="none" stroke-width="5.0" stroke-linecap="round" stroke-linejoin="round" />
<path d="M 148.5714285714286 100.00000000000001 L 148.5714285714286 100.00000000000001 L 148.5714285714286 100.00000000000001 L 148.5714285714286 102.14285714285715 L 149.28571428571433 108.5714285714286 " stroke="black" fill="none" stroke-width="5.0" stroke-linecap="round" stroke-linejoin="round" />
<path d="M 142.14285714285717 134.28571428571433 L 141.42857142857144 134.28571428571433 L 140.71428571428572 134.28571428571433 L 140.71428571428572 134.28571428571433 L 142.14285714285717 133.5714285714286 L 147.14285714285717 133.5714285714286 L 155.00000000000006 132.8571428571429 L 161.42857142857144 132.8571428571429 L 164.28571428571433 133.5714285714286 L 162.8571428571429 137.14285714285717 L 157.14285714285717 141.42857142857144 L 152.14285714285717 145.00000000000006 L 148.5714285714286 147.8571428571429 L 147.14285714285717 150.71428571428572 L 147.8571428571429 153.5714285714286 L 151.42857142857144 157.8571428571429 L 155.71428571428572 164.28571428571433 L 160.71428571428572 172.8571428571429 L 164.28571428571433 182.14285714285717 L 166.42857142857144 187.14285714285717 L 166.42857142857144 189.28571428571433 L 162.8571428571429 190.71428571428578 L 157.8571428571429 191.42857142857144 L 151.42857142857144 191.42857142857144 L 150.00000000000006 190.71428571428578 " stroke="black" fill="none" stroke-width="5.0" stroke-linecap="round" stroke-linejoin="round" />
<path d="M 122.85714285714288 169.28571428571433 L 122.85714285714288 168.5714285714286 L 122.85714285714288 168.5714285714286 L 126.42857142857146 167.14285714285717 L 140.71428571428572 165.00000000000006 L 161.42857142857144 160.71428571428572 L 178.5714285714286 156.42857142857144 L 183.5714285714286 155.00000000000006 " stroke="black" fill="none" stroke-width="5.0" stroke-linecap="round" stroke-linejoin="round" />
</svg>