<svg xmlns="http://www.w3.org/2000/svg" width="300" height="300" viewBox="0 0 300 300">
<path d="M 139.0 103.0 L 139.0 103.0 L 139.0 103.0 L 139.0 104.0 L 140.0 106.0 L 142.0 109.0 L 144.0 111.0 " stroke="black" fill="none" stroke-width="5.0" stroke-linecap="round" stroke-linejoin="round" />
<path d="M 158.0 101.0 L 158.0 101.0 L 158.0 101.0 L 158.0 103.0 L 157.0 106.0 L 156.0 110.0 " stroke="black" fill="none" stroke-width="5.0" stroke-linecap="round" stroke-linejoin="round" />
<path d="M 130.0 119.0 L 130.0 119.0 L 130.0 119.0 L 131.0 119.0 L 134.0 119.0 L 142.0 118.0 L 152.0 118.0 L 162.0 117.0 L 170.0 117.0 L 172.0 117.0 L 173.0 117.0 L 171.0 117.0 " stroke="black" fill="none" stroke-width="5.0" stroke-linecap="round" stroke-linejoin="round" />
<path d="M 146.0 121.0 L 146.0 121.0 L 146.0 122.0 L 146.0 123.0 L 145.0 127.0 L 145.0 135.0 L 144.0 142.0 L 143.0 148.0 L 143.0 150.0 " stroke="black" fill="none" stroke-width="5.0" stroke-linecap="round" stroke-linejoin="round" />
<path d="M 156.0 121.0 L 156.0 121.0 L 156.0 121.0 L 156.0 122.0 L 156.0 124.0 L 156.0 130.0 L 156.0 138.0 L 158.0 145.0 L 161.0 148.0 L 164.0 148.0 L 165.0 147.0 " stroke="black" fill="none" stroke-width="5.0" stroke-linecap="round" stroke-linejoin="round" />
<path d="M 125.0 136.0 L 125.0 136.0 L 126.0 136.0 L 126.0 135.0 L 126.0 136.0 L 127.0 141.0 L 127.0 151.0 L 128.0 160.0 L 128.0 165.0 L 130.0 166.0 L 130.0 164.0 " stroke="black" fill="none" stroke-width="5.0" stroke-linecap="round" stroke-linejoin="round" />
<path d="M 128.0 135.0 L 128.0 135.0 L 130.0 134.0 L 133.0 134.0 L 139.0 133.0 L 148.0 133.0 L 157.0 133.0 L 165.0 133.0 L 170.0 134.0 L 174.0 134.0 L 175.0 137.0 L 176.0 142.0 L 178.0 150.0 L 179.0 157.0 L 180.0 163.0 L 180.0 166.0 L 180.0 168.0 " stroke="black" fill="none" stroke-width="5.0" stroke-linecap="round" stroke-linejoin="round" />
<path d="M 144.0 156.0 L 144.0 156.0 L 145.0 156.0 L 147.0 157.0 L 151.0 157.0 L 158.0 157.0 L 163.0 157.0 L 165.0 157.0 " stroke="black" fill="none" stroke-width="5.0" stroke-linecap="round" stroke-linejoin="round" />
<path d="M 131.0 168.0 L 132.0 169.0 L 134.0 169.0 L 140.0 169.0 L 151.0 169.0 L 163.0 169.0 L 173.0 168.0 L 178.0 168.0 L 178.0 168.0 " stroke="black" fill="none" stroke-width="5.0" stroke-linecap="round" stroke-linejoin="round" />
<path d="M 124.0 182.0 L 125.0 182.0 L 126.0 182.0 L 131.0 182.0 L 141.0 182.0 L 155.0 182.0 L 171.0 182.0 L 184.0 180.0 L 190.0 178.0 L 191.0 178.0 L 191.0 179.0 " stroke="black" fill="none" stroke-width="5.0" stroke-linecap="round" stroke-linejoin="round" />
<path d="M 167.0 172.0 L 167.0 172.0 L 167.0 173.0 L 167.0 174.0 L 167.0 177.0 L 169.0 185.0 L 171.0 196.0 L 173.0 207.0 L 173.0 213.0 L 173.0 214.0 L 171.0 213.0 L 165.0 210.0 L 156.0 207.0 " stroke="black" fill="none" stroke-width="5.0" stroke-linecap="round" stroke-linejoin="round" />
<path d="M 137.0 193.0 L 139.0 193.0 L 142.0 194.0 L 148.0 195.0 L 155.0 197.0 L 159.0 198.0 " stroke="black" fill="none" stroke-width="5.0" stroke-linecap="round" stroke-linejoin="round" />
</svg>