<svg xmlns="http://www.w3.org/2000/svg" width="300" height="300" viewBox="0 0 300 300">
<path d="M 137.0 105.0 L 137.0 105.0 L 137.0 106.0 L 137.0 107.0 L 138.0 110.0 L 141.0 115.0 L 143.0 118.0 " stroke="black" fill="none" stroke-width="5.0" stroke-linecap="round" stroke-linejoin="round" />
<path d="M 158.0 104.0 L 158.0 105.0 L 158.0 106.0 L 158.0 107.0 L 158.0 111.0 L 156.0 117.0 L 154.0 123.0 " stroke="black" fill="none" stroke-width="5.0" stroke-linecap="round" stroke-linejoin="round" />
<path d="M 127.0 124.0 L 127.0 124.0 L 129.0 124.0 L 134.0 124.0 L 144.0 124.0 L 158.0 123.0 L 170.0 122.0 L 176.0 122.0 L 177.0 122.0 L 176.0 122.0 L 175.0 122.0 " stroke="black" fill="none" stroke-width="5.0" stroke-linecap="round" stroke-linejoin="round" />
<path d="M 140.0 128.0 L 140.0 129.0 L 140.0 130.0 L 140.0 132.0 L 140.0 135.0 L 140.0 141.0 L 139.0 148.0 L 139.0 153.0 " stroke="black" fill="none" stroke-width="5.0" stroke-linecap="round" stroke-linejoin="round" />
<path d="M 154.0 125.0 L 155.0 125.0 L 155.0 125.0 L 156.0 125.0 L 156.0 126.0 L 156.0 131.0 L 156.0 138.0 L 156.0 146.0 L 159.0 149.0 L 165.0 150.0 L 169.0 149.0 " stroke="black" fill="none" stroke-width="5.0" stroke-linecap="round" stroke-linejoin="round" />
<path d="M 125.0 139.0 L 126.0 139.0 L 126.0 139.0 L 126.0 142.0 L 127.0 149.0 L 128.0 158.0 L 129.0 164.0 L 130.0 166.0 L 130.0 165.0 " stroke="black" fill="none" stroke-width="5.0" stroke-linecap="round" stroke-linejoin="round" />
<path d="M 129.0 137.0 L 130.0 137.0 L 132.0 137.0 L 135.0 137.0 L 143.0 137.0 L 153.0 136.0 L 163.0 135.0 L 170.0 135.0 L 175.0 135.0 L 178.0 137.0 L 180.0 142.0 L 181.0 150.0 L 182.0 158.0 L 183.0 164.0 L 183.0 167.0 L 183.0 167.0 " stroke="black" fill="none" stroke-width="5.0" stroke-linecap="round" stroke-linejoin="round" />
<path d="M 144.0 157.0 L 145.0 157.0 L 145.0 157.0 L 148.0 157.0 L 152.0 157.0 L 159.0 158.0 L 163.0 159.0 L 164.0 159.0 " stroke="black" fill="none" stroke-width="5.0" stroke-linecap="round" stroke-linejoin="round" />
<path d="M 131.0 169.0 L 132.0 170.0 L 135.0 171.0 L 141.0 172.0 L 151.0 172.0 L 161.0 172.0 L 169.0 172.0 L 172.0 172.0 " stroke="black" fill="none" stroke-width="5.0" stroke-linecap="round" stroke-linejoin="round" />
<path d="M 122.0 186.0 L 123.0 186.0 L 123.0 186.0 L 125.0 186.0 L 132.0 186.0 L 145.0 186.0 L 161.0 186.0 L 176.0 186.0 L 187.0 186.0 L 191.0 185.0 L 192.0 187.0 L 192.0 188.0 " stroke="black" fill="none" stroke-width="5.0" stroke-linecap="round" stroke-linejoin="round" />
<path d="M 160.0 172.0 L 160.0 172.0 L 160.0 174.0 L 161.0 179.0 L 162.0 188.0 L 165.0 198.0 L 166.0 208.0 L 167.0 213.0 L 167.0 214.0 L 163.0 214.0 L 158.0 211.0 L 151.0 207.0 L 149.0 207.0 " stroke="black" fill="none" stroke-width="5.0" stroke-linecap="round" stroke-linejoin="round" />
<path d="M 132.0 196.0 L 133.0 197.0 L 135.0 198.0 L 141.0 200.0 L 149.0 200.0 L 153.0 200.0 " stroke="black" fill="none" stroke-width="5.0" stroke-linecap="round" stroke-linejoin="round" />
</svg>