<svg xmlns="http://www.w3.org/2000/svg" width="300" height="300" viewBox="0 0 300 300">
<path d="M 127.0 104.0 L 127.0 104.0 L 127.0 104.0 L 128.0 105.0 L 127.0 106.0 L 125.0 109.0 L 121.0 113.0 L 116.0 117.0 L 112.0 119.0 L 111.0 120.0 L 111.0 120.0 L 111.0 121.0 L 112.0 124.0 L 112.0 130.0 L 111.0 138.0 L 110.0 146.0 L 109.0 151.0 L 109.0 154.0 L 111.0 154.0 L 115.0 154.0 L 121.0 151.0 L 128.0 147.0 " stroke="black" fill="none" stroke-width="5.0" stroke-linecap="round" stroke-linejoin="round" />
<path d="M 127.0 132.0 L 127.0 132.0 L 127.0 132.0 L 127.0 135.0 L 131.0 145.0 L 134.0 155.0 L 135.0 157.0 " stroke="black" fill="none" stroke-width="5.0" stroke-linecap="round" stroke-linejoin="round" />
<path d="M 146.0 115.0 L 146.0 115.0 L 147.0 115.0 L 148.0 115.0 L 149.0 114.0 L 151.0 114.0 L 155.0 114.0 L 159.0 114.0 L 163.0 114.0 L 167.0 119.0 L 170.0 128.0 L 172.0 141.0 L 173.0 152.0 L 173.0 156.0 L 173.0 157.0 L 171.0 156.0 L 166.0 152.0 L 160.0 149.0 " stroke="black" fill="none" stroke-width="5.0" stroke-linecap="round" stroke-linejoin="round" />
<path d="M 157.0 116.0 L 157.0 116.0 L 157.0 116.0 L 157.0 117.0 L 156.0 124.0 L 152.0 136.0 L 150.0 140.0 " stroke="black" fill="none" stroke-width="5.0" stroke-linecap="round" stroke-linejoin="round" />
<path d="M 117.0 175.0 L 117.0 175.0 L 117.0 175.0 L 117.0 175.0 L 117.0 176.0 L 117.0 180.0 L 119.0 192.0 L 120.0 206.0 L 122.0 212.0 L 124.0 212.0 " stroke="black" fill="none" stroke-width="5.0" stroke-linecap="round" stroke-linejoin="round" />
<path d="M 121.0 170.0 L 122.0 170.0 L 123.0 170.0 L 126.0 170.0 L 133.0 170.0 L 143.0 169.0 L 151.0 169.0 L 157.0 170.0 L 162.0 170.0 L 165.0 171.0 L 167.0 172.0 L 169.0 178.0 L 170.0 188.0 L 171.0 199.0 L 172.0 207.0 L 172.0 210.0 L 172.0 211.0 L 171.0 210.0 " stroke="black" fill="none" stroke-width="5.0" stroke-linecap="round" stroke-linejoin="round" />
<path d="M 125.0 185.0 L 125.0 185.0 L 126.0 185.0 L 128.0 185.0 L 135.0 186.0 L 146.0 186.0 L 157.0 185.0 L 160.0 185.0 " stroke="black" fill="none" stroke-width="5.0" stroke-linecap="round" stroke-linejoin="round" />
<path d="M 144.0 169.0 L 144.0 169.0 L 144.0 170.0 L 144.0 174.0 L 144.0 188.0 L 145.0 202.0 L 146.0 207.0 " stroke="black" fill="none" stroke-width="5.0" stroke-linecap="round" stroke-linejoin="round" />
<path d="M 118.0 212.0 L 118.0 213.0 L 120.0 214.0 L 123.0 215.0 L 130.0 215.0 L 142.0 214.0 L 155.0 212.0 L 165.0 211.0 L 166.0 211.0 " stroke="black" fill="none" stroke-width="5.0" stroke-linecap="round" stroke-linejoin="round" />
</svg>