<svg xmlns="http://www.w3.org/2000/svg" width="300" height="300" viewBox="0 0 300 300">
<path d="M 139.0 107.0 L 139.0 107.0 L 139.0 108.0 L 141.0 111.0 L 145.0 115.0 L 148.0 119.0 " stroke="black" fill="none" stroke-width="5.0" stroke-linecap="round" stroke-linejoin="round" />
<path d="M 129.0 123.0 L 129.0 123.0 L 131.0 123.0 L 134.0 123.0 L 140.0 123.0 L 148.0 123.0 L 155.0 123.0 L 162.0 123.0 L 167.0 123.0 L 169.0 122.0 L 170.0 122.0 L 170.0 122.0 L 169.0 124.0 L 170.0 129.0 L 172.0 137.0 L 173.0 145.0 L 174.0 150.0 L 174.0 152.0 " stroke="black" fill="none" stroke-width="5.0" stroke-linecap="round" stroke-linejoin="round" />
<path d="M 134.0 138.0 L 134.0 138.0 L 134.0 137.0 L 136.0 137.0 L 141.0 137.0 L 152.0 137.0 L 163.0 137.0 L 169.0 137.0 L 171.0 138.0 " stroke="black" fill="none" stroke-width="5.0" stroke-linecap="round" stroke-linejoin="round" />
<path d="M 128.0 153.0 L 128.0 153.0 L 128.0 153.0 L 130.0 154.0 L 136.0 155.0 L 149.0 155.0 L 160.0 153.0 L 165.0 153.0 " stroke="black" fill="none" stroke-width="5.0" stroke-linecap="round" stroke-linejoin="round" />
<path d="M 129.0 123.0 L 129.0 123.0 L 129.0 124.0 L 129.0 127.0 L 128.0 138.0 L 126.0 155.0 L 123.0 174.0 L 120.0 192.0 L 121.0 203.0 L 126.0 205.0 L 136.0 202.0 L 146.0 194.0 " stroke="black" fill="none" stroke-width="5.0" stroke-linecap="round" stroke-linejoin="round" />
<path d="M 135.0 163.0 L 135.0 163.0 L 135.0 163.0 L 135.0 163.0 L 137.0 164.0 L 146.0 173.0 L 160.0 187.0 L 173.0 198.0 L 179.0 202.0 L 181.0 203.0 L 182.0 202.0 " stroke="black" fill="none" stroke-width="5.0" stroke-linecap="round" stroke-linejoin="round" />
<path d="M 176.0 171.0 L 176.0 172.0 L 176.0 173.0 L 176.0 175.0 L 174.0 178.0 L 170.0 183.0 L 167.0 187.0 " stroke="black" fill="none" stroke-width="5.0" stroke-linecap="round" stroke-linejoin="round" />
</svg>