<svg xmlns="http://www.w3.org/2000/svg" width="300" height="300" viewBox="0 0 300 300">
<path d="M 130.0 117.0 L 130.0 117.0 L 130.0 117.0 L 130.0 118.0 L 130.0 119.0 L 129.0 122.0 L 124.0 128.0 L 119.0 136.0 L 115.0 141.0 L 114.0 144.0 L 117.0 144.0 L 123.0 143.0 L 127.0 142.0 " stroke="black" fill="none" stroke-width="5.0" stroke-linecap="round" stroke-linejoin="round" />
<path d="M 136.0 135.0 L 135.0 135.0 L 133.0 135.0 L 132.0 136.0 L 130.0 139.0 L 126.0 144.0 L 121.0 152.0 L 115.0 160.0 L 112.0 167.0 L 110.0 170.0 L 112.0 171.0 L 118.0 171.0 L 126.0 169.0 L 132.0 167.0 L 133.0 167.0 " stroke="black" fill="none" stroke-width="5.0" stroke-linecap="round" stroke-linejoin="round" />
<path d="M 135.0 161.0 L 135.0 163.0 L 135.0 165.0 L 137.0 168.0 L 139.0 173.0 L 140.0 177.0 " stroke="black" fill="none" stroke-width="5.0" stroke-linecap="round" stroke-linejoin="round" />
<path d="M 108.0 180.0 L 108.0 181.0 L 107.0 183.0 L 107.0 187.0 L 108.0 193.0 L 110.0 198.0 " stroke="black" fill="none" stroke-width="5.0" stroke-linecap="round" stroke-linejoin="round" />
<path d="M 119.0 181.0 L 119.0 181.0 L 119.0 181.0 L 120.0 181.0 L 120.0 184.0 L 121.0 189.0 L 122.0 194.0 L 122.0 196.0 " stroke="black" fill="none" stroke-width="5.0" stroke-linecap="round" stroke-linejoin="round" />
<path d="M 128.0 184.0 L 128.0 184.0 L 128.0 185.0 L 129.0 188.0 L 132.0 193.0 L 132.0 194.0 " stroke="black" fill="none" stroke-width="5.0" stroke-linecap="round" stroke-linejoin="round" />
<path d="M 149.0 123.0 L 149.0 123.0 L 149.0 124.0 L 150.0 124.0 L 152.0 124.0 L 157.0 124.0 L 163.0 125.0 L 167.0 125.0 L 170.0 125.0 L 171.0 125.0 " stroke="black" fill="none" stroke-width="5.0" stroke-linecap="round" stroke-linejoin="round" />
<path d="M 152.0 134.0 L 152.0 134.0 L 152.0 135.0 L 152.0 137.0 L 150.0 140.0 L 148.0 143.0 L 146.0 146.0 L 146.0 149.0 L 148.0 150.0 L 152.0 151.0 " stroke="black" fill="none" stroke-width="5.0" stroke-linecap="round" stroke-linejoin="round" />
<path d="M 165.0 135.0 L 165.0 135.0 L 164.0 136.0 L 163.0 138.0 L 161.0 140.0 L 160.0 144.0 L 159.0 147.0 L 160.0 149.0 L 160.0 150.0 " stroke="black" fill="none" stroke-width="5.0" stroke-linecap="round" stroke-linejoin="round" />
<path d="M 176.0 137.0 L 176.0 138.0 L 175.0 139.0 L 174.0 141.0 L 173.0 143.0 L 173.0 146.0 L 174.0 149.0 " stroke="black" fill="none" stroke-width="5.0" stroke-linecap="round" stroke-linejoin="round" />
<path d="M 150.0 164.0 L 150.0 165.0 L 150.0 165.0 L 151.0 165.0 L 156.0 165.0 L 164.0 164.0 L 172.0 162.0 L 177.0 161.0 L 177.0 161.0 L 177.0 161.0 " stroke="black" fill="none" stroke-width="5.0" stroke-linecap="round" stroke-linejoin="round" />
<path d="M 160.0 166.0 L 160.0 166.0 L 160.0 167.0 L 160.0 168.0 L 160.0 170.0 L 161.0 174.0 L 162.0 181.0 L 163.0 188.0 L 163.0 191.0 " stroke="black" fill="none" stroke-width="5.0" stroke-linecap="round" stroke-linejoin="round" />
<path d="M 144.0 198.0 L 146.0 198.0 L 149.0 199.0 L 156.0 199.0 L 167.0 199.0 L 180.0 198.0 L 189.0 197.0 L 194.0 197.0 L 195.0 196.0 L 195.0 196.0 " stroke="black" fill="none" stroke-width="5.0" stroke-linecap="round" stroke-linejoin="round" />
</svg>