<svg xmlns="http://www.w3.org/2000/svg" width="300" height="300" viewBox="0 0 300 300">
<path d="M 126.0 115.0 L 126.0 115.0 L 127.0 115.0 L 127.0 115.0 L 128.0 115.0 L 128.0 115.0 L 127.0 118.0 L 124.0 123.0 L 120.0 130.0 L 117.0 134.0 L 115.0 137.0 L 116.0 138.0 L 119.0 140.0 L 122.0 142.0 L 124.0 142.0 " stroke="black" fill="none" stroke-width="5.0" stroke-linecap="round" stroke-linejoin="round" />
<path d="M 136.0 131.0 L 135.0 131.0 L 134.0 131.0 L 134.0 132.0 L 133.0 133.0 L 131.0 136.0 L 126.0 143.0 L 120.0 153.0 L 116.0 162.0 L 115.0 167.0 L 116.0 168.0 L 121.0 168.0 L 127.0 166.0 L 135.0 164.0 L 137.0 164.0 " stroke="black" fill="none" stroke-width="5.0" stroke-linecap="round" stroke-linejoin="round" />
<path d="M 139.0 155.0 L 139.0 155.0 L 139.0 155.0 L 139.0 156.0 L 140.0 161.0 L 143.0 169.0 L 145.0 174.0 " stroke="black" fill="none" stroke-width="5.0" stroke-linecap="round" stroke-linejoin="round" />
<path d="M 110.0 182.0 L 110.0 182.0 L 110.0 182.0 L 111.0 185.0 L 111.0 191.0 L 113.0 197.0 " stroke="black" fill="none" stroke-width="5.0" stroke-linecap="round" stroke-linejoin="round" />
<path d="M 121.0 184.0 L 121.0 184.0 L 121.0 184.0 L 122.0 185.0 L 124.0 188.0 L 126.0 193.0 " stroke="black" fill="none" stroke-width="5.0" stroke-linecap="round" stroke-linejoin="round" />
<path d="M 133.0 182.0 L 133.0 182.0 L 133.0 184.0 L 133.0 187.0 L 136.0 193.0 L 137.0 195.0 " stroke="black" fill="none" stroke-width="5.0" stroke-linecap="round" stroke-linejoin="round" />
<path d="M 152.0 117.0 L 152.0 117.0 L 152.0 118.0 L 152.0 118.0 L 153.0 118.0 L 157.0 118.0 L 163.0 117.0 L 170.0 116.0 L 174.0 116.0 L 175.0 116.0 " stroke="black" fill="none" stroke-width="5.0" stroke-linecap="round" stroke-linejoin="round" />
<path d="M 155.0 129.0 L 155.0 129.0 L 155.0 129.0 L 155.0 130.0 L 154.0 131.0 L 153.0 134.0 L 151.0 138.0 L 150.0 143.0 L 150.0 147.0 L 153.0 149.0 L 155.0 149.0 " stroke="black" fill="none" stroke-width="5.0" stroke-linecap="round" stroke-linejoin="round" />
<path d="M 173.0 127.0 L 172.0 128.0 L 171.0 129.0 L 169.0 131.0 L 167.0 134.0 L 166.0 138.0 L 166.0 142.0 L 167.0 144.0 L 171.0 145.0 L 174.0 145.0 " stroke="black" fill="none" stroke-width="5.0" stroke-linecap="round" stroke-linejoin="round" />
<path d="M 187.0 129.0 L 187.0 129.0 L 186.0 130.0 L 185.0 130.0 L 184.0 132.0 L 183.0 136.0 L 183.0 141.0 L 185.0 146.0 L 187.0 148.0 " stroke="black" fill="none" stroke-width="5.0" stroke-linecap="round" stroke-linejoin="round" />
<path d="M 156.0 160.0 L 156.0 160.0 L 156.0 160.0 L 157.0 160.0 L 160.0 160.0 L 167.0 160.0 L 176.0 158.0 L 182.0 158.0 L 185.0 158.0 " stroke="black" fill="none" stroke-width="5.0" stroke-linecap="round" stroke-linejoin="round" />
<path d="M 169.0 160.0 L 169.0 160.0 L 169.0 160.0 L 169.0 160.0 L 171.0 167.0 L 173.0 177.0 L 175.0 186.0 L 176.0 191.0 " stroke="black" fill="none" stroke-width="5.0" stroke-linecap="round" stroke-linejoin="round" />
<path d="M 152.0 197.0 L 152.0 197.0 L 152.0 198.0 L 154.0 198.0 L 160.0 198.0 L 175.0 198.0 L 191.0 198.0 L 201.0 198.0 L 205.0 198.0 L 205.0 199.0 L 205.0 199.0 L 205.0 199.0 " stroke="black" fill="none" stroke-width="5.0" stroke-linecap="round" stroke-linejoin="round" />
</svg>