<svg xmlns="http://www.w3.org/2000/svg" width="300" height="300" viewBox="0 0 300 300">
<path d="M 127.0 118.0 L 127.0 118.0 L 128.0 118.0 L 129.0 118.0 L 129.0 119.0 L 128.0 121.0 L 126.0 125.0 L 122.0 129.0 L 119.0 133.0 L 117.0 136.0 L 117.0 139.0 L 119.0 140.0 L 123.0 140.0 " stroke="black" fill="none" stroke-width="5.0" stroke-linecap="round" stroke-linejoin="round" />
<path d="M 137.0 131.0 L 137.0 131.0 L 135.0 132.0 L 134.0 133.0 L 131.0 135.0 L 127.0 140.0 L 122.0 146.0 L 117.0 153.0 L 114.0 160.0 L 113.0 163.0 L 114.0 165.0 L 119.0 165.0 L 125.0 164.0 L 130.0 162.0 " stroke="black" fill="none" stroke-width="5.0" stroke-linecap="round" stroke-linejoin="round" />
<path d="M 136.0 152.0 L 136.0 153.0 L 136.0 154.0 L 136.0 158.0 L 138.0 163.0 L 140.0 169.0 L 141.0 172.0 " stroke="black" fill="none" stroke-width="5.0" stroke-linecap="round" stroke-linejoin="round" />
<path d="M 108.0 178.0 L 108.0 178.0 L 108.0 180.0 L 108.0 183.0 L 109.0 187.0 L 110.0 192.0 L 110.0 193.0 " stroke="black" fill="none" stroke-width="5.0" stroke-linecap="round" stroke-linejoin="round" />
<path d="M 118.0 177.0 L 119.0 177.0 L 120.0 178.0 L 120.0 181.0 L 121.0 185.0 L 123.0 190.0 L 124.0 193.0 L 124.0 194.0 " stroke="black" fill="none" stroke-width="5.0" stroke-linecap="round" stroke-linejoin="round" />
<path d="M 131.0 178.0 L 131.0 178.0 L 132.0 180.0 L 133.0 184.0 L 135.0 190.0 L 136.0 193.0 " stroke="black" fill="none" stroke-width="5.0" stroke-linecap="round" stroke-linejoin="round" />
<path d="M 151.0 117.0 L 151.0 117.0 L 151.0 117.0 L 151.0 117.0 L 152.0 118.0 L 157.0 118.0 L 165.0 119.0 L 174.0 119.0 L 180.0 119.0 L 182.0 118.0 " stroke="black" fill="none" stroke-width="5.0" stroke-linecap="round" stroke-linejoin="round" />
<path d="M 155.0 129.0 L 155.0 129.0 L 155.0 129.0 L 155.0 129.0 L 155.0 129.0 L 154.0 130.0 L 152.0 133.0 L 151.0 138.0 L 150.0 142.0 L 150.0 146.0 L 152.0 148.0 L 155.0 148.0 " stroke="black" fill="none" stroke-width="5.0" stroke-linecap="round" stroke-linejoin="round" />
<path d="M 172.0 131.0 L 172.0 131.0 L 171.0 131.0 L 170.0 132.0 L 168.0 134.0 L 166.0 137.0 L 165.0 142.0 L 165.0 146.0 L 167.0 148.0 " stroke="black" fill="none" stroke-width="5.0" stroke-linecap="round" stroke-linejoin="round" />
<path d="M 185.0 132.0 L 184.0 133.0 L 182.0 135.0 L 181.0 137.0 L 180.0 139.0 L 180.0 143.0 L 181.0 148.0 L 184.0 150.0 " stroke="black" fill="none" stroke-width="5.0" stroke-linecap="round" stroke-linejoin="round" />
<path d="M 150.0 161.0 L 150.0 161.0 L 150.0 162.0 L 150.0 162.0 L 154.0 162.0 L 164.0 162.0 L 174.0 162.0 L 181.0 162.0 L 182.0 162.0 " stroke="black" fill="none" stroke-width="5.0" stroke-linecap="round" stroke-linejoin="round" />
<path d="M 163.0 166.0 L 164.0 167.0 L 164.0 167.0 L 164.0 168.0 L 165.0 173.0 L 165.0 181.0 L 166.0 190.0 L 167.0 194.0 " stroke="black" fill="none" stroke-width="5.0" stroke-linecap="round" stroke-linejoin="round" />
<path d="M 142.0 198.0 L 142.0 198.0 L 142.0 199.0 L 147.0 199.0 L 158.0 199.0 L 174.0 199.0 L 188.0 198.0 L 195.0 197.0 L 196.0 197.0 L 196.0 197.0 " stroke="black" fill="none" stroke-width="5.0" stroke-linecap="round" stroke-linejoin="round" />
</svg>