<svg xmlns="http://www.w3.org/2000/svg" width="300" height="300" viewBox="0 0 300 300">
<path d="M 126.0 121.0 L 126.0 121.0 L 126.0 122.0 L 126.0 122.0 L 126.0 123.0 L 126.0 125.0 L 123.0 130.0 L 119.0 137.0 L 114.0 143.0 L 112.0 147.0 L 113.0 149.0 L 117.0 149.0 L 121.0 149.0 L 123.0 149.0 " stroke="black" fill="none" stroke-width="5.0" stroke-linecap="round" stroke-linejoin="round" />
<path d="M 132.0 141.0 L 132.0 142.0 L 130.0 143.0 L 128.0 145.0 L 126.0 147.0 L 122.0 151.0 L 118.0 157.0 L 116.0 162.0 L 115.0 166.0 L 117.0 168.0 L 123.0 168.0 L 130.0 166.0 L 133.0 165.0 " stroke="black" fill="none" stroke-width="5.0" stroke-linecap="round" stroke-linejoin="round" />
<path d="M 137.0 157.0 L 137.0 157.0 L 137.0 159.0 L 137.0 163.0 L 138.0 167.0 L 139.0 172.0 " stroke="black" fill="none" stroke-width="5.0" stroke-linecap="round" stroke-linejoin="round" />
<path d="M 113.0 185.0 L 113.0 187.0 L 113.0 191.0 L 114.0 195.0 L 114.0 198.0 " stroke="black" fill="none" stroke-width="5.0" stroke-linecap="round" stroke-linejoin="round" />
<path d="M 124.0 183.0 L 124.0 184.0 L 124.0 186.0 L 125.0 188.0 L 126.0 191.0 L 126.0 192.0 " stroke="black" fill="none" stroke-width="5.0" stroke-linecap="round" stroke-linejoin="round" />
<path d="M 133.0 184.0 L 133.0 184.0 L 133.0 185.0 L 134.0 186.0 L 135.0 189.0 L 136.0 191.0 " stroke="black" fill="none" stroke-width="5.0" stroke-linecap="round" stroke-linejoin="round" />
<path d="M 150.0 119.0 L 150.0 119.0 L 150.0 119.0 L 150.0 120.0 L 151.0 120.0 L 156.0 120.0 L 166.0 120.0 L 174.0 120.0 L 180.0 119.0 L 181.0 119.0 " stroke="black" fill="none" stroke-width="5.0" stroke-linecap="round" stroke-linejoin="round" />
<path d="M 155.0 131.0 L 155.0 131.0 L 155.0 132.0 L 155.0 133.0 L 154.0 134.0 L 154.0 135.0 L 152.0 138.0 L 151.0 142.0 L 150.0 146.0 L 150.0 149.0 L 153.0 150.0 L 156.0 150.0 " stroke="black" fill="none" stroke-width="5.0" stroke-linecap="round" stroke-linejoin="round" />
<path d="M 173.0 131.0 L 173.0 131.0 L 172.0 131.0 L 172.0 131.0 L 171.0 131.0 L 169.0 132.0 L 167.0 135.0 L 164.0 141.0 L 163.0 146.0 L 165.0 148.0 L 170.0 148.0 " stroke="black" fill="none" stroke-width="5.0" stroke-linecap="round" stroke-linejoin="round" />
<path d="M 186.0 133.0 L 185.0 134.0 L 182.0 137.0 L 180.0 141.0 L 179.0 145.0 L 179.0 149.0 L 182.0 150.0 L 186.0 151.0 " stroke="black" fill="none" stroke-width="5.0" stroke-linecap="round" stroke-linejoin="round" />
<path d="M 155.0 163.0 L 155.0 163.0 L 156.0 164.0 L 159.0 165.0 L 164.0 165.0 L 172.0 164.0 L 179.0 163.0 L 181.0 163.0 " stroke="black" fill="none" stroke-width="5.0" stroke-linecap="round" stroke-linejoin="round" />
<path d="M 168.0 164.0 L 168.0 165.0 L 168.0 167.0 L 168.0 169.0 L 168.0 174.0 L 168.0 181.0 L 169.0 186.0 L 169.0 189.0 " stroke="black" fill="none" stroke-width="5.0" stroke-linecap="round" stroke-linejoin="round" />
<path d="M 148.0 195.0 L 147.0 195.0 L 147.0 195.0 L 146.0 195.0 L 146.0 196.0 L 145.0 196.0 L 151.0 196.0 L 163.0 196.0 L 180.0 195.0 L 192.0 194.0 L 196.0 194.0 " stroke="black" fill="none" stroke-width="5.0" stroke-linecap="round" stroke-linejoin="round" />
</svg>