<svg xmlns="http://www.w3.org/2000/svg" width="300" height="300" viewBox="0 0 300 300">
<path d="M 134.0 114.0 L 134.0 114.0 L 134.0 114.0 L 135.0 114.0 L 137.0 114.0 L 142.0 114.0 L 152.0 113.0 L 161.0 112.0 L 166.0 112.0 L 167.0 112.0 " stroke="black" fill="none" stroke-width="5.0" stroke-linecap="round" stroke-linejoin="round" />
<path d="M 135.0 119.0 L 135.0 119.0 L 134.0 119.0 L 133.0 120.0 L 133.0 124.0 L 133.0 134.0 L 133.0 149.0 L 133.0 160.0 L 133.0 163.0 L 134.0 163.0 " stroke="black" fill="none" stroke-width="5.0" stroke-linecap="round" stroke-linejoin="round" />
<path d="M 137.0 133.0 L 137.0 133.0 L 138.0 133.0 L 139.0 133.0 L 141.0 133.0 L 146.0 133.0 L 153.0 133.0 L 158.0 133.0 L 161.0 134.0 L 161.0 134.0 " stroke="black" fill="none" stroke-width="5.0" stroke-linecap="round" stroke-linejoin="round" />
<path d="M 136.0 146.0 L 136.0 146.0 L 136.0 146.0 L 137.0 147.0 L 142.0 147.0 L 151.0 147.0 L 159.0 147.0 L 162.0 148.0 " stroke="black" fill="none" stroke-width="5.0" stroke-linecap="round" stroke-linejoin="round" />
<path d="M 118.0 166.0 L 118.0 166.0 L 118.0 166.0 L 124.0 167.0 L 137.0 167.0 L 152.0 166.0 L 162.0 165.0 L 166.0 164.0 L 166.0 164.0 " stroke="black" fill="none" stroke-width="5.0" stroke-linecap="round" stroke-linejoin="round" />
<path d="M 132.0 167.0 L 132.0 167.0 L 131.0 167.0 L 130.0 169.0 L 128.0 176.0 L 127.0 190.0 L 128.0 201.0 L 132.0 205.0 L 140.0 203.0 L 144.0 199.0 " stroke="black" fill="none" stroke-width="5.0" stroke-linecap="round" stroke-linejoin="round" />
<path d="M 170.0 174.0 L 170.0 175.0 L 170.0 175.0 L 169.0 176.0 L 168.0 178.0 L 165.0 182.0 L 162.0 187.0 L 160.0 190.0 " stroke="black" fill="none" stroke-width="5.0" stroke-linecap="round" stroke-linejoin="round" />
<path d="M 136.0 168.0 L 135.0 168.0 L 134.0 168.0 L 136.0 171.0 L 146.0 181.0 L 159.0 196.0 L 171.0 205.0 L 178.0 209.0 L 180.0 209.0 L 180.0 209.0 L 180.0 209.0 L 179.0 207.0 " stroke="black" fill="none" stroke-width="5.0" stroke-linecap="round" stroke-linejoin="round" />
</svg>