<svg xmlns="http://www.w3.org/2000/svg" width="300" height="300" viewBox="0 0 300 300">
<path d="M 130.0 108.0 L 130.0 108.0 L 130.0 108.0 L 130.0 108.0 L 135.0 108.0 L 146.0 108.0 L 158.0 108.0 L 164.0 108.0 L 167.0 109.0 L 167.0 109.0 L 166.0 109.0 L 163.0 109.0 " stroke="black" fill="none" stroke-width="5.0" stroke-linecap="round" stroke-linejoin="round" />
<path d="M 129.0 117.0 L 129.0 117.0 L 129.0 117.0 L 129.0 117.0 L 129.0 117.0 L 129.0 124.0 L 129.0 138.0 L 129.0 151.0 L 129.0 157.0 L 130.0 158.0 L 130.0 156.0 " stroke="black" fill="none" stroke-width="5.0" stroke-linecap="round" stroke-linejoin="round" />
<path d="M 133.0 126.0 L 133.0 126.0 L 133.0 126.0 L 133.0 126.0 L 133.0 126.0 L 137.0 126.0 L 145.0 126.0 L 154.0 126.0 L 161.0 126.0 L 164.0 126.0 L 164.0 126.0 L 163.0 127.0 " stroke="black" fill="none" stroke-width="5.0" stroke-linecap="round" stroke-linejoin="round" />
<path d="M 134.0 142.0 L 134.0 142.0 L 134.0 142.0 L 135.0 142.0 L 138.0 143.0 L 146.0 143.0 L 155.0 143.0 L 163.0 143.0 L 166.0 143.0 L 166.0 143.0 " stroke="black" fill="none" stroke-width="5.0" stroke-linecap="round" stroke-linejoin="round" />
<path d="M 112.0 161.0 L 112.0 161.0 L 112.0 161.0 L 116.0 161.0 L 132.0 161.0 L 151.0 159.0 L 163.0 158.0 L 168.0 158.0 L 169.0 158.0 L 167.0 158.0 L 166.0 159.0 " stroke="black" fill="none" stroke-width="5.0" stroke-linecap="round" stroke-linejoin="round" />
<path d="M 131.0 164.0 L 131.0 164.0 L 130.0 165.0 L 128.0 170.0 L 126.0 180.0 L 126.0 190.0 L 126.0 196.0 L 132.0 197.0 L 141.0 195.0 L 144.0 194.0 " stroke="black" fill="none" stroke-width="5.0" stroke-linecap="round" stroke-linejoin="round" />
<path d="M 179.0 166.0 L 178.0 168.0 L 176.0 170.0 L 173.0 172.0 L 169.0 176.0 L 164.0 181.0 " stroke="black" fill="none" stroke-width="5.0" stroke-linecap="round" stroke-linejoin="round" />
<path d="M 139.0 166.0 L 140.0 167.0 L 142.0 170.0 L 150.0 178.0 L 162.0 189.0 L 174.0 198.0 L 179.0 203.0 L 180.0 205.0 L 180.0 205.0 " stroke="black" fill="none" stroke-width="5.0" stroke-linecap="round" stroke-linejoin="round" />
</svg>