<svg xmlns="http://www.w3.org/2000/svg" width="300" height="300" viewBox="0 0 300 300">
<path d="M 136.0 109.0 L 136.0 109.0 L 137.0 109.0 L 139.0 109.0 L 144.0 109.0 L 153.0 108.0 L 162.0 108.0 L 169.0 108.0 L 170.0 108.0 " stroke="black" fill="none" stroke-width="5.0" stroke-linecap="round" stroke-linejoin="round" />
<path d="M 136.0 114.0 L 136.0 114.0 L 135.0 114.0 L 135.0 120.0 L 136.0 136.0 L 136.0 153.0 L 137.0 160.0 L 137.0 160.0 " stroke="black" fill="none" stroke-width="5.0" stroke-linecap="round" stroke-linejoin="round" />
<path d="M 138.0 130.0 L 138.0 130.0 L 138.0 130.0 L 138.0 130.0 L 138.0 130.0 L 140.0 130.0 L 146.0 130.0 L 155.0 130.0 L 164.0 128.0 L 168.0 128.0 " stroke="black" fill="none" stroke-width="5.0" stroke-linecap="round" stroke-linejoin="round" />
<path d="M 139.0 147.0 L 139.0 147.0 L 139.0 147.0 L 140.0 147.0 L 144.0 147.0 L 151.0 146.0 L 159.0 146.0 L 161.0 146.0 " stroke="black" fill="none" stroke-width="5.0" stroke-linecap="round" stroke-linejoin="round" />
<path d="M 120.0 163.0 L 120.0 163.0 L 120.0 164.0 L 122.0 165.0 L 132.0 166.0 L 147.0 166.0 L 163.0 164.0 L 174.0 162.0 L 179.0 162.0 L 179.0 163.0 " stroke="black" fill="none" stroke-width="5.0" stroke-linecap="round" stroke-linejoin="round" />
<path d="M 141.0 171.0 L 141.0 171.0 L 141.0 172.0 L 140.0 173.0 L 139.0 174.0 L 138.0 174.0 L 136.0 177.0 L 132.0 182.0 L 126.0 189.0 L 120.0 195.0 L 119.0 200.0 L 125.0 202.0 L 137.0 203.0 L 149.0 202.0 L 159.0 200.0 L 161.0 199.0 " stroke="black" fill="none" stroke-width="5.0" stroke-linecap="round" stroke-linejoin="round" />
<path d="M 162.0 186.0 L 163.0 186.0 L 164.0 186.0 L 165.0 187.0 L 168.0 194.0 L 173.0 205.0 L 176.0 213.0 " stroke="black" fill="none" stroke-width="5.0" stroke-linecap="round" stroke-linejoin="round" />
</svg>