<svg xmlns="http://www.w3.org/2000/svg" width="300" height="300" viewBox="0 0 300 300">
<path d="M 133.0 105.0 L 133.0 105.0 L 134.0 105.0 L 136.0 105.0 L 141.0 104.0 L 149.0 103.0 L 158.0 102.0 L 165.0 101.0 L 167.0 101.0 " stroke="black" fill="none" stroke-width="5.0" stroke-linecap="round" stroke-linejoin="round" />
<path d="M 132.0 112.0 L 132.0 112.0 L 132.0 112.0 L 132.0 112.0 L 132.0 112.0 L 132.0 118.0 L 131.0 133.0 L 131.0 150.0 L 131.0 158.0 L 131.0 159.0 " stroke="black" fill="none" stroke-width="5.0" stroke-linecap="round" stroke-linejoin="round" />
<path d="M 136.0 123.0 L 136.0 123.0 L 136.0 123.0 L 136.0 123.0 L 140.0 123.0 L 148.0 123.0 L 157.0 123.0 L 163.0 122.0 L 165.0 122.0 " stroke="black" fill="none" stroke-width="5.0" stroke-linecap="round" stroke-linejoin="round" />
<path d="M 137.0 139.0 L 138.0 139.0 L 139.0 140.0 L 143.0 141.0 L 149.0 141.0 L 157.0 139.0 L 159.0 139.0 " stroke="black" fill="none" stroke-width="5.0" stroke-linecap="round" stroke-linejoin="round" />
<path d="M 118.0 162.0 L 120.0 163.0 L 126.0 164.0 L 139.0 162.0 L 155.0 158.0 L 165.0 155.0 L 170.0 155.0 " stroke="black" fill="none" stroke-width="5.0" stroke-linecap="round" stroke-linejoin="round" />
<path d="M 135.0 165.0 L 134.0 167.0 L 132.0 170.0 L 130.0 180.0 L 129.0 192.0 L 131.0 199.0 L 139.0 200.0 L 146.0 196.0 " stroke="black" fill="none" stroke-width="5.0" stroke-linecap="round" stroke-linejoin="round" />
<path d="M 175.0 163.0 L 175.0 164.0 L 173.0 166.0 L 172.0 169.0 L 170.0 174.0 L 167.0 179.0 L 165.0 182.0 " stroke="black" fill="none" stroke-width="5.0" stroke-linecap="round" stroke-linejoin="round" />
<path d="M 136.0 160.0 L 136.0 160.0 L 137.0 160.0 L 139.0 162.0 L 147.0 172.0 L 160.0 190.0 L 172.0 202.0 L 179.0 207.0 L 180.0 208.0 " stroke="black" fill="none" stroke-width="5.0" stroke-linecap="round" stroke-linejoin="round" />
</svg>