<svg xmlns="http://www.w3.org/2000/svg" width="300" height="300" viewBox="0 0 300 300">
<path d="M 128.0 109.0 L 128.0 109.0 L 128.0 109.0 L 129.0 109.0 L 133.0 109.0 L 142.0 109.0 L 152.0 109.0 L 161.0 109.0 L 165.0 109.0 L 166.0 109.0 L 166.0 109.0 L 164.0 109.0 " stroke="black" fill="none" stroke-width="5.0" stroke-linecap="round" stroke-linejoin="round" />
<path d="M 131.0 116.0 L 131.0 116.0 L 131.0 116.0 L 131.0 116.0 L 131.0 120.0 L 131.0 132.0 L 131.0 147.0 L 131.0 157.0 L 131.0 162.0 L 132.0 162.0 " stroke="black" fill="none" stroke-width="5.0" stroke-linecap="round" stroke-linejoin="round" />
<path d="M 133.0 131.0 L 133.0 131.0 L 133.0 131.0 L 133.0 131.0 L 134.0 131.0 L 140.0 132.0 L 150.0 132.0 L 160.0 132.0 L 166.0 132.0 L 168.0 132.0 L 166.0 133.0 " stroke="black" fill="none" stroke-width="5.0" stroke-linecap="round" stroke-linejoin="round" />
<path d="M 136.0 150.0 L 136.0 150.0 L 136.0 150.0 L 136.0 150.0 L 139.0 150.0 L 145.0 151.0 L 154.0 151.0 L 162.0 151.0 L 163.0 151.0 " stroke="black" fill="none" stroke-width="5.0" stroke-linecap="round" stroke-linejoin="round" />
<path d="M 111.0 167.0 L 112.0 167.0 L 113.0 168.0 L 114.0 168.0 L 120.0 168.0 L 134.0 169.0 L 151.0 169.0 L 165.0 169.0 L 172.0 170.0 L 176.0 170.0 L 176.0 170.0 " stroke="black" fill="none" stroke-width="5.0" stroke-linecap="round" stroke-linejoin="round" />
<path d="M 129.0 170.0 L 129.0 170.0 L 129.0 170.0 L 129.0 170.0 L 128.0 173.0 L 126.0 182.0 L 125.0 193.0 L 125.0 200.0 L 130.0 202.0 L 134.0 202.0 " stroke="black" fill="none" stroke-width="5.0" stroke-linecap="round" stroke-linejoin="round" />
<path d="M 170.0 178.0 L 170.0 178.0 L 170.0 178.0 L 169.0 179.0 L 167.0 181.0 L 163.0 187.0 " stroke="black" fill="none" stroke-width="5.0" stroke-linecap="round" stroke-linejoin="round" />
<path d="M 133.0 172.0 L 133.0 172.0 L 133.0 172.0 L 133.0 172.0 L 135.0 172.0 L 141.0 176.0 L 154.0 184.0 L 168.0 193.0 L 179.0 200.0 L 183.0 203.0 L 184.0 204.0 " stroke="black" fill="none" stroke-width="5.0" stroke-linecap="round" stroke-linejoin="round" />
</svg>