<svg xmlns="http://www.w3.org/2000/svg" width="300" height="300" viewBox="0 0 300 300">
<path d="M 127.0 113.0 L 127.0 113.0 L 127.0 114.0 L 126.0 115.0 L 125.0 117.0 L 122.0 121.0 L 119.0 125.0 L 116.0 127.0 L 114.0 128.0 L 113.0 129.0 L 112.0 131.0 L 112.0 134.0 L 112.0 138.0 L 113.0 144.0 L 113.0 153.0 L 113.0 163.0 L 113.0 171.0 L 113.0 175.0 L 114.0 175.0 " stroke="black" fill="none" stroke-width="5.0" stroke-linecap="round" stroke-linejoin="round" />
<path d="M 115.0 132.0 L 115.0 132.0 L 115.0 132.0 L 115.0 132.0 L 115.0 133.0 L 117.0 133.0 L 120.0 133.0 L 122.0 133.0 L 125.0 133.0 L 127.0 134.0 L 129.0 135.0 L 131.0 140.0 L 132.0 148.0 L 133.0 157.0 L 135.0 166.0 L 136.0 172.0 L 137.0 174.0 L 137.0 174.0 " stroke="black" fill="none" stroke-width="5.0" stroke-linecap="round" stroke-linejoin="round" />
<path d="M 117.0 152.0 L 117.0 152.0 L 117.0 153.0 L 118.0 154.0 L 121.0 154.0 L 125.0 154.0 L 130.0 154.0 L 133.0 154.0 L 134.0 155.0 " stroke="black" fill="none" stroke-width="5.0" stroke-linecap="round" stroke-linejoin="round" />
<path d="M 113.0 173.0 L 112.0 175.0 L 112.0 177.0 L 114.0 178.0 L 122.0 179.0 L 131.0 179.0 L 136.0 179.0 " stroke="black" fill="none" stroke-width="5.0" stroke-linecap="round" stroke-linejoin="round" />
<path d="M 159.0 110.0 L 159.0 110.0 L 159.0 110.0 L 160.0 110.0 L 160.0 110.0 L 160.0 110.0 L 159.0 112.0 L 156.0 115.0 L 153.0 117.0 L 150.0 119.0 L 148.0 121.0 L 147.0 123.0 L 147.0 127.0 L 148.0 134.0 L 148.0 143.0 L 149.0 151.0 L 149.0 155.0 L 150.0 156.0 L 150.0 156.0 " stroke="black" fill="none" stroke-width="5.0" stroke-linecap="round" stroke-linejoin="round" />
<path d="M 154.0 124.0 L 154.0 124.0 L 154.0 124.0 L 154.0 125.0 L 154.0 125.0 L 157.0 125.0 L 165.0 125.0 L 174.0 124.0 L 181.0 123.0 L 184.0 122.0 L 185.0 124.0 L 186.0 131.0 L 187.0 141.0 L 188.0 151.0 L 189.0 158.0 L 189.0 161.0 L 189.0 161.0 " stroke="black" fill="none" stroke-width="5.0" stroke-linecap="round" stroke-linejoin="round" />
<path d="M 154.0 138.0 L 154.0 138.0 L 154.0 138.0 L 154.0 138.0 L 154.0 138.0 L 157.0 139.0 L 165.0 139.0 L 174.0 139.0 L 178.0 139.0 " stroke="black" fill="none" stroke-width="5.0" stroke-linecap="round" stroke-linejoin="round" />
<path d="M 148.0 158.0 L 148.0 158.0 L 149.0 159.0 L 153.0 159.0 L 161.0 159.0 L 173.0 158.0 L 177.0 158.0 " stroke="black" fill="none" stroke-width="5.0" stroke-linecap="round" stroke-linejoin="round" />
<path d="M 162.0 131.0 L 162.0 131.0 L 162.0 131.0 L 162.0 133.0 L 162.0 139.0 L 161.0 150.0 L 157.0 165.0 L 151.0 180.0 L 144.0 190.0 L 139.0 194.0 " stroke="black" fill="none" stroke-width="5.0" stroke-linecap="round" stroke-linejoin="round" />
<path d="M 166.0 160.0 L 166.0 160.0 L 167.0 160.0 L 167.0 161.0 L 167.0 161.0 L 167.0 163.0 L 167.0 167.0 L 166.0 172.0 L 165.0 178.0 L 165.0 183.0 L 167.0 186.0 L 171.0 189.0 L 175.0 191.0 L 181.0 194.0 L 186.0 195.0 L 193.0 196.0 L 199.0 196.0 L 202.0 195.0 L 204.0 193.0 L 205.0 191.0 L 205.0 188.0 L 205.0 184.0 " stroke="black" fill="none" stroke-width="5.0" stroke-linecap="round" stroke-linejoin="round" />
<path d="M 184.0 168.0 L 184.0 168.0 L 183.0 169.0 L 183.0 169.0 L 182.0 170.0 L 181.0 171.0 L 180.0 173.0 L 180.0 175.0 L 180.0 177.0 L 183.0 178.0 L 187.0 178.0 L 188.0 178.0 " stroke="black" fill="none" stroke-width="5.0" stroke-linecap="round" stroke-linejoin="round" />
<path d="M 193.0 172.0 L 193.0 172.0 L 194.0 173.0 L 194.0 176.0 L 195.0 180.0 L 196.0 182.0 " stroke="black" fill="none" stroke-width="5.0" stroke-linecap="round" stroke-linejoin="round" />
</svg>