<svg xmlns="http://www.w3.org/2000/svg" width="300" height="300" viewBox="0 0 300 300">
<path d="M 119.0 117.0 L 119.0 118.0 L 119.0 118.0 L 120.0 118.0 L 121.0 120.0 L 124.0 122.0 L 128.0 124.0 L 130.0 124.0 " stroke="black" fill="none" stroke-width="5.0" stroke-linecap="round" stroke-linejoin="round" />
<path d="M 110.0 151.0 L 110.0 152.0 L 111.0 153.0 L 113.0 154.0 L 118.0 154.0 L 124.0 153.0 " stroke="black" fill="none" stroke-width="5.0" stroke-linecap="round" stroke-linejoin="round" />
<path d="M 103.0 193.0 L 103.0 193.0 L 104.0 193.0 L 107.0 192.0 L 116.0 188.0 L 133.0 181.0 " stroke="black" fill="none" stroke-width="5.0" stroke-linecap="round" stroke-linejoin="round" />
<path d="M 157.0 109.0 L 157.0 109.0 L 157.0 109.0 L 157.0 109.0 L 157.0 109.0 L 157.0 112.0 L 155.0 115.0 L 153.0 119.0 L 152.0 121.0 L 152.0 123.0 L 154.0 123.0 L 158.0 123.0 L 165.0 123.0 L 172.0 123.0 L 178.0 122.0 L 185.0 121.0 L 186.0 120.0 L 186.0 121.0 L 186.0 124.0 L 187.0 128.0 L 188.0 134.0 L 189.0 139.0 L 189.0 142.0 L 189.0 142.0 " stroke="black" fill="none" stroke-width="5.0" stroke-linecap="round" stroke-linejoin="round" />
<path d="M 151.0 143.0 L 151.0 143.0 L 151.0 143.0 L 151.0 143.0 L 153.0 143.0 L 161.0 143.0 L 172.0 143.0 L 181.0 143.0 L 185.0 143.0 " stroke="black" fill="none" stroke-width="5.0" stroke-linecap="round" stroke-linejoin="round" />
<path d="M 152.0 123.0 L 151.0 125.0 L 150.0 128.0 L 150.0 136.0 L 149.0 150.0 L 147.0 168.0 L 143.0 187.0 L 139.0 201.0 L 139.0 204.0 " stroke="black" fill="none" stroke-width="5.0" stroke-linecap="round" stroke-linejoin="round" />
<path d="M 153.0 171.0 L 153.0 171.0 L 154.0 171.0 L 155.0 171.0 L 158.0 171.0 L 166.0 171.0 L 178.0 171.0 L 187.0 170.0 L 189.0 170.0 " stroke="black" fill="none" stroke-width="5.0" stroke-linecap="round" stroke-linejoin="round" />
<path d="M 169.0 158.0 L 169.0 158.0 L 169.0 159.0 L 168.0 164.0 L 168.0 175.0 L 165.0 189.0 L 162.0 202.0 L 159.0 208.0 " stroke="black" fill="none" stroke-width="5.0" stroke-linecap="round" stroke-linejoin="round" />
<path d="M 172.0 181.0 L 174.0 181.0 L 175.0 182.0 L 179.0 188.0 L 184.0 197.0 L 188.0 205.0 L 189.0 206.0 " stroke="black" fill="none" stroke-width="5.0" stroke-linecap="round" stroke-linejoin="round" />
<path d="M 178.0 155.0 L 178.0 155.0 L 179.0 156.0 L 180.0 157.0 L 183.0 160.0 L 184.0 162.0 " stroke="black" fill="none" stroke-width="5.0" stroke-linecap="round" stroke-linejoin="round" />
</svg>