<svg xmlns="http://www.w3.org/2000/svg" width="300" height="300" viewBox="0 0 300 300">
<path d="M 125.0 117.0 L 125.0 117.0 L 125.0 118.0 L 125.0 118.0 L 126.0 118.0 L 132.0 118.0 L 143.0 117.0 L 157.0 116.0 L 169.0 115.0 L 176.0 114.0 L 179.0 114.0 L 179.0 115.0 L 179.0 115.0 L 179.0 116.0 L 179.0 117.0 L 179.0 120.0 L 178.0 126.0 L 177.0 129.0 " stroke="black" fill="none" stroke-width="5.0" stroke-linecap="round" stroke-linejoin="round" />
<path d="M 123.0 119.0 L 123.0 119.0 L 124.0 119.0 L 124.0 119.0 L 124.0 122.0 L 124.0 130.0 L 123.0 147.0 L 119.0 169.0 L 114.0 187.0 L 113.0 193.0 " stroke="black" fill="none" stroke-width="5.0" stroke-linecap="round" stroke-linejoin="round" />
<path d="M 151.0 92.0 L 151.0 92.0 L 151.0 92.0 L 151.0 93.0 L 151.0 98.0 L 151.0 104.0 L 151.0 108.0 " stroke="black" fill="none" stroke-width="5.0" stroke-linecap="round" stroke-linejoin="round" />
<path d="M 150.0 99.0 L 150.0 99.0 L 150.0 99.0 L 150.0 99.0 L 150.0 99.0 L 153.0 99.0 L 158.0 99.0 L 162.0 99.0 " stroke="black" fill="none" stroke-width="5.0" stroke-linecap="round" stroke-linejoin="round" />
<path d="M 151.0 117.0 L 151.0 117.0 L 151.0 118.0 L 151.0 118.0 L 151.0 118.0 L 150.0 119.0 L 150.0 123.0 L 150.0 128.0 L 150.0 135.0 L 150.0 140.0 L 152.0 143.0 L 156.0 145.0 L 160.0 146.0 L 165.0 145.0 L 165.0 145.0 " stroke="black" fill="none" stroke-width="5.0" stroke-linecap="round" stroke-linejoin="round" />
<path d="M 139.0 134.0 L 139.0 134.0 L 139.0 134.0 L 139.0 134.0 L 140.0 134.0 L 146.0 134.0 L 157.0 134.0 L 168.0 133.0 L 174.0 133.0 " stroke="black" fill="none" stroke-width="5.0" stroke-linecap="round" stroke-linejoin="round" />
<path d="M 138.0 156.0 L 138.0 156.0 L 138.0 156.0 L 137.0 156.0 L 137.0 156.0 L 137.0 156.0 L 136.0 159.0 L 134.0 164.0 L 131.0 172.0 " stroke="black" fill="none" stroke-width="5.0" stroke-linecap="round" stroke-linejoin="round" />
<path d="M 137.0 161.0 L 137.0 161.0 L 137.0 161.0 L 137.0 161.0 L 137.0 161.0 L 139.0 161.0 L 143.0 161.0 L 146.0 162.0 L 149.0 162.0 L 149.0 165.0 L 148.0 172.0 L 143.0 181.0 L 139.0 188.0 L 135.0 192.0 L 135.0 192.0 " stroke="black" fill="none" stroke-width="5.0" stroke-linecap="round" stroke-linejoin="round" />
<path d="M 134.0 172.0 L 134.0 172.0 L 135.0 172.0 L 136.0 172.0 L 141.0 174.0 L 151.0 178.0 L 165.0 183.0 L 178.0 187.0 L 185.0 188.0 L 188.0 188.0 " stroke="black" fill="none" stroke-width="5.0" stroke-linecap="round" stroke-linejoin="round" />
<path d="M 164.0 156.0 L 164.0 156.0 L 164.0 156.0 L 164.0 156.0 L 164.0 157.0 L 163.0 162.0 L 162.0 168.0 L 161.0 171.0 " stroke="black" fill="none" stroke-width="5.0" stroke-linecap="round" stroke-linejoin="round" />
<path d="M 167.0 155.0 L 168.0 155.0 L 168.0 155.0 L 169.0 155.0 L 171.0 155.0 L 173.0 155.0 L 176.0 157.0 L 178.0 159.0 L 180.0 164.0 L 181.0 169.0 L 182.0 174.0 L 185.0 178.0 L 190.0 179.0 L 194.0 178.0 L 195.0 176.0 " stroke="black" fill="none" stroke-width="5.0" stroke-linecap="round" stroke-linejoin="round" />
</svg>