<svg xmlns="http://www.w3.org/2000/svg" width="300" height="300" viewBox="0 0 300 300">
<path d="M 123.0 114.0 L 123.0 114.0 L 123.0 114.0 L 123.0 114.0 L 125.0 115.0 L 130.0 114.0 L 140.0 113.0 L 151.0 111.0 L 160.0 110.0 L 166.0 110.0 L 171.0 110.0 L 175.0 111.0 L 176.0 111.0 L 176.0 112.0 L 174.0 116.0 L 171.0 121.0 L 169.0 126.0 " stroke="black" fill="none" stroke-width="5.0" stroke-linecap="round" stroke-linejoin="round" />
<path d="M 121.0 116.0 L 121.0 116.0 L 121.0 116.0 L 121.0 116.0 L 121.0 116.0 L 120.0 116.0 L 119.0 118.0 L 117.0 133.0 L 111.0 162.0 L 104.0 187.0 L 99.0 200.0 " stroke="black" fill="none" stroke-width="5.0" stroke-linecap="round" stroke-linejoin="round" />
<path d="M 145.0 88.0 L 145.0 88.0 L 145.0 88.0 L 145.0 88.0 L 145.0 89.0 L 145.0 94.0 L 145.0 101.0 L 145.0 105.0 " stroke="black" fill="none" stroke-width="5.0" stroke-linecap="round" stroke-linejoin="round" />
<path d="M 146.0 96.0 L 146.0 96.0 L 146.0 96.0 L 145.0 96.0 L 145.0 96.0 L 145.0 96.0 L 148.0 96.0 L 152.0 95.0 L 155.0 95.0 " stroke="black" fill="none" stroke-width="5.0" stroke-linecap="round" stroke-linejoin="round" />
<path d="M 144.0 110.0 L 144.0 110.0 L 144.0 110.0 L 144.0 110.0 L 144.0 110.0 L 144.0 110.0 L 143.0 114.0 L 143.0 121.0 L 143.0 127.0 L 146.0 131.0 L 153.0 131.0 L 156.0 129.0 " stroke="black" fill="none" stroke-width="5.0" stroke-linecap="round" stroke-linejoin="round" />
<path d="M 136.0 124.0 L 136.0 124.0 L 136.0 124.0 L 136.0 124.0 L 138.0 124.0 L 143.0 123.0 L 151.0 122.0 L 154.0 121.0 " stroke="black" fill="none" stroke-width="5.0" stroke-linecap="round" stroke-linejoin="round" />
<path d="M 130.0 151.0 L 130.0 151.0 L 130.0 151.0 L 130.0 152.0 L 130.0 153.0 L 128.0 156.0 L 126.0 162.0 L 122.0 170.0 L 122.0 171.0 " stroke="black" fill="none" stroke-width="5.0" stroke-linecap="round" stroke-linejoin="round" />
<path d="M 129.0 160.0 L 129.0 160.0 L 130.0 160.0 L 131.0 160.0 L 133.0 161.0 L 136.0 161.0 L 139.0 162.0 L 141.0 162.0 L 142.0 164.0 L 142.0 167.0 L 139.0 173.0 L 134.0 180.0 L 130.0 187.0 L 125.0 192.0 L 124.0 193.0 " stroke="black" fill="none" stroke-width="5.0" stroke-linecap="round" stroke-linejoin="round" />
<path d="M 124.0 176.0 L 125.0 176.0 L 125.0 176.0 L 127.0 176.0 L 130.0 177.0 L 138.0 180.0 L 154.0 184.0 L 170.0 188.0 L 180.0 190.0 L 184.0 191.0 " stroke="black" fill="none" stroke-width="5.0" stroke-linecap="round" stroke-linejoin="round" />
<path d="M 150.0 155.0 L 150.0 155.0 L 150.0 155.0 L 150.0 155.0 L 150.0 155.0 L 150.0 159.0 L 150.0 166.0 L 150.0 171.0 " stroke="black" fill="none" stroke-width="5.0" stroke-linecap="round" stroke-linejoin="round" />
<path d="M 154.0 151.0 L 155.0 150.0 L 157.0 150.0 L 158.0 149.0 L 161.0 149.0 L 163.0 149.0 L 166.0 151.0 L 167.0 155.0 L 169.0 161.0 L 170.0 168.0 L 174.0 173.0 L 180.0 174.0 L 184.0 173.0 L 187.0 170.0 L 187.0 169.0 " stroke="black" fill="none" stroke-width="5.0" stroke-linecap="round" stroke-linejoin="round" />
</svg>