<svg xmlns="http://www.w3.org/2000/svg" width="300" height="300" viewBox="0 0 300 300">
<path d="M 124.0 114.0 L 124.0 114.0 L 124.0 114.0 L 124.0 114.0 L 126.0 114.0 L 133.0 114.0 L 145.0 111.0 L 159.0 109.0 L 171.0 108.0 L 179.0 108.0 L 181.0 108.0 L 182.0 108.0 L 181.0 109.0 L 179.0 113.0 L 178.0 117.0 L 176.0 121.0 L 175.0 123.0 " stroke="black" fill="none" stroke-width="5.0" stroke-linecap="round" stroke-linejoin="round" />
<path d="M 130.0 114.0 L 130.0 114.0 L 130.0 114.0 L 130.0 114.0 L 130.0 121.0 L 127.0 142.0 L 121.0 167.0 L 118.0 178.0 " stroke="black" fill="none" stroke-width="5.0" stroke-linecap="round" stroke-linejoin="round" />
<path d="M 151.0 87.0 L 151.0 88.0 L 151.0 90.0 L 151.0 95.0 L 151.0 103.0 L 151.0 107.0 " stroke="black" fill="none" stroke-width="5.0" stroke-linecap="round" stroke-linejoin="round" />
<path d="M 148.0 100.0 L 148.0 99.0 L 149.0 98.0 L 151.0 97.0 L 154.0 96.0 L 159.0 95.0 L 162.0 95.0 " stroke="black" fill="none" stroke-width="5.0" stroke-linecap="round" stroke-linejoin="round" />
<path d="M 149.0 111.0 L 149.0 111.0 L 149.0 110.0 L 149.0 110.0 L 149.0 109.0 L 149.0 110.0 L 149.0 117.0 L 150.0 127.0 L 155.0 135.0 L 160.0 137.0 L 161.0 137.0 " stroke="black" fill="none" stroke-width="5.0" stroke-linecap="round" stroke-linejoin="round" />
<path d="M 140.0 129.0 L 140.0 129.0 L 142.0 130.0 L 146.0 130.0 L 155.0 129.0 L 164.0 127.0 L 170.0 127.0 " stroke="black" fill="none" stroke-width="5.0" stroke-linecap="round" stroke-linejoin="round" />
<path d="M 142.0 145.0 L 142.0 145.0 L 142.0 145.0 L 142.0 145.0 L 142.0 145.0 L 141.0 149.0 L 139.0 155.0 L 136.0 162.0 " stroke="black" fill="none" stroke-width="5.0" stroke-linecap="round" stroke-linejoin="round" />
<path d="M 140.0 154.0 L 139.0 154.0 L 139.0 154.0 L 139.0 154.0 L 143.0 153.0 L 147.0 153.0 L 150.0 153.0 L 152.0 155.0 L 153.0 159.0 L 153.0 166.0 L 150.0 173.0 L 147.0 181.0 L 143.0 187.0 " stroke="black" fill="none" stroke-width="5.0" stroke-linecap="round" stroke-linejoin="round" />
<path d="M 138.0 166.0 L 138.0 166.0 L 138.0 166.0 L 140.0 166.0 L 144.0 169.0 L 154.0 175.0 L 169.0 181.0 L 182.0 184.0 L 188.0 186.0 " stroke="black" fill="none" stroke-width="5.0" stroke-linecap="round" stroke-linejoin="round" />
<path d="M 163.0 152.0 L 163.0 152.0 L 163.0 152.0 L 163.0 152.0 L 163.0 157.0 L 163.0 163.0 L 163.0 166.0 " stroke="black" fill="none" stroke-width="5.0" stroke-linecap="round" stroke-linejoin="round" />
<path d="M 165.0 152.0 L 166.0 152.0 L 168.0 151.0 L 171.0 150.0 L 175.0 149.0 L 179.0 149.0 L 181.0 152.0 L 183.0 157.0 L 184.0 162.0 L 186.0 166.0 L 188.0 169.0 L 190.0 171.0 L 193.0 171.0 " stroke="black" fill="none" stroke-width="5.0" stroke-linecap="round" stroke-linejoin="round" />
</svg>