<svg xmlns="http://www.w3.org/2000/svg" width="300" height="300" viewBox="0 0 300 300">
<path d="M 119.0 107.0 L 120.0 108.0 L 120.0 108.0 L 121.0 108.0 L 122.0 108.0 L 124.0 108.0 L 128.0 108.0 L 133.0 108.0 L 137.0 107.0 L 139.0 107.0 L 140.0 106.0 L 141.0 107.0 L 141.0 111.0 L 141.0 117.0 L 142.0 124.0 L 143.0 130.0 L 143.0 133.0 L 143.0 133.0 " stroke="black" fill="none" stroke-width="5.0" stroke-linecap="round" stroke-linejoin="round" />
<path d="M 119.0 120.0 L 121.0 120.0 L 122.0 120.0 L 122.0 120.0 L 124.0 120.0 L 128.0 120.0 L 132.0 120.0 L 136.0 120.0 L 137.0 120.0 " stroke="black" fill="none" stroke-width="5.0" stroke-linecap="round" stroke-linejoin="round" />
<path d="M 115.0 134.0 L 115.0 134.0 L 116.0 133.0 L 120.0 132.0 L 128.0 132.0 L 137.0 132.0 L 139.0 132.0 " stroke="black" fill="none" stroke-width="5.0" stroke-linecap="round" stroke-linejoin="round" />
<path d="M 115.0 110.0 L 115.0 110.0 L 116.0 109.0 L 116.0 109.0 L 116.0 111.0 L 116.0 123.0 L 114.0 144.0 L 112.0 168.0 L 110.0 186.0 L 110.0 193.0 L 110.0 196.0 L 110.0 196.0 L 110.0 193.0 " stroke="black" fill="none" stroke-width="5.0" stroke-linecap="round" stroke-linejoin="round" />
<path d="M 158.0 106.0 L 158.0 106.0 L 158.0 106.0 L 159.0 106.0 L 161.0 106.0 L 164.0 107.0 L 168.0 107.0 L 172.0 107.0 L 175.0 107.0 L 177.0 107.0 L 178.0 108.0 L 180.0 109.0 L 181.0 111.0 L 182.0 114.0 L 184.0 123.0 L 185.0 137.0 L 186.0 155.0 L 187.0 174.0 L 187.0 186.0 L 189.0 194.0 L 189.0 199.0 L 189.0 201.0 L 185.0 202.0 L 179.0 202.0 L 168.0 196.0 " stroke="black" fill="none" stroke-width="5.0" stroke-linecap="round" stroke-linejoin="round" />
<path d="M 160.0 105.0 L 160.0 105.0 L 161.0 105.0 L 161.0 105.0 L 161.0 105.0 L 161.0 109.0 L 158.0 118.0 L 156.0 128.0 L 155.0 133.0 L 157.0 135.0 L 165.0 136.0 L 174.0 136.0 L 179.0 136.0 " stroke="black" fill="none" stroke-width="5.0" stroke-linecap="round" stroke-linejoin="round" />
<path d="M 160.0 122.0 L 160.0 122.0 L 160.0 122.0 L 160.0 122.0 L 161.0 122.0 L 168.0 122.0 L 175.0 122.0 " stroke="black" fill="none" stroke-width="5.0" stroke-linecap="round" stroke-linejoin="round" />
<path d="M 133.0 147.0 L 133.0 147.0 L 133.0 147.0 L 133.0 147.0 L 133.0 147.0 L 133.0 147.0 L 134.0 149.0 L 134.0 149.0 " stroke="black" fill="none" stroke-width="5.0" stroke-linecap="round" stroke-linejoin="round" />
<path d="M 144.0 145.0 L 144.0 145.0 L 144.0 145.0 L 144.0 145.0 L 144.0 145.0 L 143.0 148.0 L 143.0 151.0 " stroke="black" fill="none" stroke-width="5.0" stroke-linecap="round" stroke-linejoin="round" />
<path d="M 125.0 158.0 L 125.0 158.0 L 125.0 158.0 L 126.0 158.0 L 126.0 158.0 L 129.0 158.0 L 135.0 158.0 L 143.0 157.0 L 148.0 157.0 L 151.0 157.0 L 151.0 157.0 " stroke="black" fill="none" stroke-width="5.0" stroke-linecap="round" stroke-linejoin="round" />
<path d="M 132.0 164.0 L 132.0 164.0 L 132.0 164.0 L 132.0 164.0 L 132.0 164.0 L 132.0 165.0 L 132.0 167.0 L 132.0 171.0 L 132.0 174.0 L 132.0 177.0 L 134.0 179.0 L 137.0 180.0 L 143.0 180.0 L 147.0 180.0 L 150.0 179.0 L 151.0 179.0 L 151.0 178.0 L 152.0 175.0 L 152.0 173.0 " stroke="black" fill="none" stroke-width="5.0" stroke-linecap="round" stroke-linejoin="round" />
<path d="M 142.0 160.0 L 142.0 160.0 L 142.0 160.0 L 142.0 160.0 L 142.0 162.0 L 142.0 169.0 L 140.0 181.0 L 138.0 189.0 " stroke="black" fill="none" stroke-width="5.0" stroke-linecap="round" stroke-linejoin="round" />
<path d="M 161.0 147.0 L 161.0 147.0 L 161.0 147.0 L 160.0 147.0 L 160.0 149.0 L 158.0 154.0 L 158.0 156.0 " stroke="black" fill="none" stroke-width="5.0" stroke-linecap="round" stroke-linejoin="round" />
<path d="M 160.0 151.0 L 160.0 151.0 L 161.0 151.0 L 162.0 151.0 L 165.0 151.0 L 168.0 150.0 L 171.0 150.0 L 172.0 150.0 L 174.0 151.0 L 174.0 154.0 L 174.0 159.0 L 174.0 162.0 " stroke="black" fill="none" stroke-width="5.0" stroke-linecap="round" stroke-linejoin="round" />
<path d="M 163.0 160.0 L 163.0 160.0 L 163.0 160.0 L 163.0 160.0 L 163.0 160.0 L 163.0 162.0 L 163.0 168.0 L 160.0 177.0 L 157.0 185.0 L 156.0 187.0 " stroke="black" fill="none" stroke-width="5.0" stroke-linecap="round" stroke-linejoin="round" />
<path d="M 163.0 170.0 L 163.0 170.0 L 163.0 170.0 L 164.0 171.0 L 168.0 174.0 L 174.0 179.0 L 180.0 184.0 " stroke="black" fill="none" stroke-width="5.0" stroke-linecap="round" stroke-linejoin="round" />
</svg>