<svg xmlns="http://www.w3.org/2000/svg" width="300" height="300" viewBox="0 0 300 300">
<path d="M 120.0 110.0 L 120.0 110.0 L 120.0 110.0 L 120.0 110.0 L 121.0 110.0 L 123.0 110.0 L 127.0 110.0 L 133.0 110.0 L 138.0 109.0 L 141.0 108.0 L 143.0 108.0 L 143.0 108.0 L 143.0 111.0 L 143.0 116.0 L 144.0 123.0 L 145.0 129.0 L 145.0 133.0 " stroke="black" fill="none" stroke-width="5.0" stroke-linecap="round" stroke-linejoin="round" />
<path d="M 122.0 121.0 L 124.0 122.0 L 125.0 122.0 L 127.0 123.0 L 131.0 123.0 L 136.0 123.0 L 140.0 123.0 " stroke="black" fill="none" stroke-width="5.0" stroke-linecap="round" stroke-linejoin="round" />
<path d="M 115.0 135.0 L 116.0 135.0 L 116.0 135.0 L 119.0 136.0 L 126.0 136.0 L 135.0 135.0 L 137.0 135.0 " stroke="black" fill="none" stroke-width="5.0" stroke-linecap="round" stroke-linejoin="round" />
<path d="M 116.0 114.0 L 116.0 114.0 L 115.0 114.0 L 115.0 115.0 L 115.0 120.0 L 116.0 135.0 L 117.0 158.0 L 116.0 178.0 L 115.0 190.0 L 114.0 193.0 L 114.0 193.0 " stroke="black" fill="none" stroke-width="5.0" stroke-linecap="round" stroke-linejoin="round" />
<path d="M 157.0 113.0 L 157.0 113.0 L 157.0 113.0 L 156.0 113.0 L 156.0 113.0 L 158.0 113.0 L 163.0 113.0 L 169.0 113.0 L 174.0 113.0 L 178.0 113.0 L 180.0 113.0 L 181.0 113.0 L 181.0 115.0 L 183.0 122.0 L 184.0 133.0 L 187.0 148.0 L 189.0 163.0 L 191.0 176.0 L 193.0 185.0 L 195.0 191.0 L 195.0 196.0 L 195.0 200.0 L 193.0 203.0 L 191.0 205.0 L 187.0 205.0 L 180.0 202.0 " stroke="black" fill="none" stroke-width="5.0" stroke-linecap="round" stroke-linejoin="round" />
<path d="M 155.0 114.0 L 155.0 114.0 L 155.0 114.0 L 156.0 114.0 L 156.0 115.0 L 156.0 118.0 L 156.0 124.0 L 156.0 132.0 L 156.0 138.0 L 160.0 142.0 L 164.0 143.0 L 169.0 143.0 L 172.0 142.0 L 175.0 141.0 " stroke="black" fill="none" stroke-width="5.0" stroke-linecap="round" stroke-linejoin="round" />
<path d="M 157.0 129.0 L 157.0 129.0 L 157.0 129.0 L 159.0 129.0 L 165.0 129.0 L 173.0 130.0 L 181.0 132.0 " stroke="black" fill="none" stroke-width="5.0" stroke-linecap="round" stroke-linejoin="round" />
<path d="M 135.0 149.0 L 135.0 149.0 L 135.0 149.0 L 134.0 150.0 L 134.0 152.0 L 135.0 154.0 L 137.0 156.0 L 137.0 156.0 " stroke="black" fill="none" stroke-width="5.0" stroke-linecap="round" stroke-linejoin="round" />
<path d="M 144.0 150.0 L 144.0 150.0 L 144.0 150.0 L 144.0 150.0 L 144.0 152.0 L 144.0 154.0 " stroke="black" fill="none" stroke-width="5.0" stroke-linecap="round" stroke-linejoin="round" />
<path d="M 130.0 159.0 L 130.0 160.0 L 130.0 160.0 L 130.0 160.0 L 132.0 161.0 L 136.0 161.0 L 142.0 161.0 L 146.0 161.0 L 148.0 161.0 " stroke="black" fill="none" stroke-width="5.0" stroke-linecap="round" stroke-linejoin="round" />
<path d="M 131.0 170.0 L 131.0 170.0 L 131.0 170.0 L 131.0 170.0 L 131.0 170.0 L 131.0 172.0 L 131.0 175.0 L 131.0 177.0 L 133.0 180.0 L 135.0 181.0 L 139.0 182.0 L 144.0 183.0 L 148.0 183.0 L 151.0 183.0 L 152.0 182.0 L 152.0 180.0 L 151.0 177.0 " stroke="black" fill="none" stroke-width="5.0" stroke-linecap="round" stroke-linejoin="round" />
<path d="M 141.0 163.0 L 141.0 164.0 L 140.0 165.0 L 139.0 167.0 L 139.0 173.0 L 139.0 182.0 L 140.0 190.0 L 140.0 193.0 " stroke="black" fill="none" stroke-width="5.0" stroke-linecap="round" stroke-linejoin="round" />
<path d="M 155.0 153.0 L 156.0 153.0 L 156.0 153.0 L 156.0 152.0 L 156.0 154.0 L 156.0 158.0 L 155.0 163.0 L 154.0 165.0 " stroke="black" fill="none" stroke-width="5.0" stroke-linecap="round" stroke-linejoin="round" />
<path d="M 155.0 158.0 L 155.0 158.0 L 155.0 158.0 L 156.0 158.0 L 160.0 157.0 L 164.0 156.0 L 169.0 156.0 L 171.0 156.0 L 173.0 157.0 L 174.0 159.0 L 174.0 162.0 L 173.0 166.0 L 172.0 169.0 " stroke="black" fill="none" stroke-width="5.0" stroke-linecap="round" stroke-linejoin="round" />
<path d="M 162.0 163.0 L 162.0 163.0 L 162.0 164.0 L 162.0 164.0 L 161.0 167.0 L 161.0 174.0 L 159.0 184.0 L 156.0 193.0 L 155.0 195.0 " stroke="black" fill="none" stroke-width="5.0" stroke-linecap="round" stroke-linejoin="round" />
<path d="M 161.0 181.0 L 161.0 181.0 L 161.0 181.0 L 162.0 181.0 L 167.0 184.0 L 174.0 187.0 L 180.0 191.0 " stroke="black" fill="none" stroke-width="5.0" stroke-linecap="round" stroke-linejoin="round" />
</svg>