<svg xmlns="http://www.w3.org/2000/svg" width="300" height="300" viewBox="0 0 300 300">
<path d="M 119.0 121.0 L 119.0 122.0 L 119.0 123.0 L 119.0 126.0 L 119.0 137.0 L 119.0 157.0 L 119.0 166.0 L 119.0 176.0 L 118.0 176.0 L 118.0 176.0 L 117.0 175.0 " stroke="black" fill="none" stroke-width="5.0" stroke-linecap="round" stroke-linejoin="round" />
<path d="M 103.0 181.0 L 103.0 181.0 L 103.0 181.0 L 104.0 181.0 L 108.0 181.0 L 119.0 180.0 L 135.0 179.0 L 143.0 177.0 " stroke="black" fill="none" stroke-width="5.0" stroke-linecap="round" stroke-linejoin="round" />
<path d="M 145.0 144.0 L 145.0 144.0 L 144.0 144.0 L 144.0 144.0 L 144.0 144.0 L 145.0 146.0 L 149.0 149.0 L 150.0 150.0 " stroke="black" fill="none" stroke-width="5.0" stroke-linecap="round" stroke-linejoin="round" />
<path d="M 168.0 118.0 L 168.0 118.0 L 168.0 118.0 L 168.0 120.0 L 168.0 127.0 L 168.0 143.0 L 164.0 163.0 L 157.0 183.0 L 149.0 194.0 L 145.0 198.0 " stroke="black" fill="none" stroke-width="5.0" stroke-linecap="round" stroke-linejoin="round" />
<path d="M 166.0 169.0 L 167.0 169.0 L 169.0 171.0 L 173.0 174.0 L 181.0 180.0 L 191.0 186.0 L 198.0 189.0 L 200.0 191.0 " stroke="black" fill="none" stroke-width="5.0" stroke-linecap="round" stroke-linejoin="round" />
</svg>