<svg xmlns="http://www.w3.org/2000/svg" width="300" height="300" viewBox="0 0 300 300">
<path d="M 122.0 117.0 L 122.0 117.0 L 122.0 117.0 L 122.0 118.0 L 122.0 121.0 L 122.0 129.0 L 122.0 145.0 L 121.0 162.0 L 120.0 173.0 L 121.0 175.0 " stroke="black" fill="none" stroke-width="5.0" stroke-linecap="round" stroke-linejoin="round" />
<path d="M 108.0 183.0 L 108.0 183.0 L 109.0 183.0 L 111.0 183.0 L 116.0 183.0 L 127.0 181.0 L 137.0 177.0 " stroke="black" fill="none" stroke-width="5.0" stroke-linecap="round" stroke-linejoin="round" />
<path d="M 146.0 140.0 L 146.0 140.0 L 146.0 140.0 L 146.0 140.0 L 146.0 143.0 L 149.0 146.0 " stroke="black" fill="none" stroke-width="5.0" stroke-linecap="round" stroke-linejoin="round" />
<path d="M 166.0 116.0 L 166.0 117.0 L 167.0 118.0 L 167.0 122.0 L 168.0 129.0 L 168.0 144.0 L 166.0 163.0 L 160.0 181.0 L 155.0 191.0 " stroke="black" fill="none" stroke-width="5.0" stroke-linecap="round" stroke-linejoin="round" />
<path d="M 169.0 168.0 L 170.0 168.0 L 172.0 168.0 L 176.0 169.0 L 183.0 174.0 L 192.0 182.0 L 200.0 188.0 L 205.0 192.0 L 205.0 192.0 " stroke="black" fill="none" stroke-width="5.0" stroke-linecap="round" stroke-linejoin="round" />
</svg>