<svg xmlns="http://www.w3.org/2000/svg" width="300" height="300" viewBox="0 0 300 300">
<path d="M 126.0 116.0 L 126.0 116.0 L 125.0 116.0 L 124.0 116.0 L 124.0 116.0 L 124.0 120.0 L 124.0 133.0 L 124.0 151.0 L 123.0 167.0 L 122.0 175.0 L 122.0 176.0 L 122.0 176.0 " stroke="black" fill="none" stroke-width="5.0" stroke-linecap="round" stroke-linejoin="round" />
<path d="M 106.0 178.0 L 106.0 178.0 L 106.0 179.0 L 106.0 179.0 L 109.0 179.0 L 118.0 178.0 L 131.0 173.0 L 138.0 171.0 " stroke="black" fill="none" stroke-width="5.0" stroke-linecap="round" stroke-linejoin="round" />
<path d="M 146.0 139.0 L 145.0 139.0 L 145.0 139.0 L 144.0 139.0 L 145.0 143.0 L 149.0 148.0 L 150.0 151.0 " stroke="black" fill="none" stroke-width="5.0" stroke-linecap="round" stroke-linejoin="round" />
<path d="M 167.0 118.0 L 167.0 118.0 L 167.0 119.0 L 167.0 120.0 L 167.0 124.0 L 167.0 135.0 L 165.0 152.0 L 160.0 169.0 L 148.0 188.0 " stroke="black" fill="none" stroke-width="5.0" stroke-linecap="round" stroke-linejoin="round" />
<path d="M 164.0 161.0 L 166.0 163.0 L 169.0 166.0 L 176.0 172.0 L 184.0 180.0 L 193.0 188.0 L 197.0 192.0 " stroke="black" fill="none" stroke-width="5.0" stroke-linecap="round" stroke-linejoin="round" />
</svg>