<svg xmlns="http://www.w3.org/2000/svg" width="300" height="300" viewBox="0 0 300 300">
<path d="M 122.0 118.0 L 122.0 118.0 L 122.0 119.0 L 122.0 120.0 L 122.0 126.0 L 123.0 140.0 L 124.0 155.0 L 124.0 164.0 L 124.0 168.0 " stroke="black" fill="none" stroke-width="5.0" stroke-linecap="round" stroke-linejoin="round" />
<path d="M 111.0 168.0 L 111.0 168.0 L 111.0 168.0 L 111.0 169.0 L 115.0 169.0 L 125.0 168.0 L 137.0 165.0 " stroke="black" fill="none" stroke-width="5.0" stroke-linecap="round" stroke-linejoin="round" />
<path d="M 145.0 138.0 L 145.0 138.0 L 145.0 139.0 L 147.0 141.0 L 149.0 144.0 " stroke="black" fill="none" stroke-width="5.0" stroke-linecap="round" stroke-linejoin="round" />
<path d="M 164.0 114.0 L 165.0 114.0 L 165.0 116.0 L 166.0 120.0 L 166.0 129.0 L 166.0 144.0 L 163.0 161.0 L 157.0 176.0 L 154.0 182.0 " stroke="black" fill="none" stroke-width="5.0" stroke-linecap="round" stroke-linejoin="round" />
<path d="M 166.0 161.0 L 167.0 161.0 L 168.0 163.0 L 173.0 166.0 L 181.0 170.0 L 191.0 175.0 L 197.0 179.0 " stroke="black" fill="none" stroke-width="5.0" stroke-linecap="round" stroke-linejoin="round" />
</svg>