<svg xmlns="http://www.w3.org/2000/svg" width="300" height="300" viewBox="0 0 300 300">
<path d="M 123.0 114.0 L 123.0 114.0 L 123.0 114.0 L 123.0 114.0 L 123.0 116.0 L 123.0 124.0 L 123.0 142.0 L 122.0 162.0 L 122.0 173.0 L 122.0 175.0 " stroke="black" fill="none" stroke-width="5.0" stroke-linecap="round" stroke-linejoin="round" />
<path d="M 107.0 185.0 L 108.0 186.0 L 110.0 186.0 L 113.0 186.0 L 120.0 186.0 L 132.0 183.0 L 143.0 180.0 " stroke="black" fill="none" stroke-width="5.0" stroke-linecap="round" stroke-linejoin="round" />
<path d="M 143.0 142.0 L 143.0 142.0 L 145.0 143.0 L 148.0 146.0 L 153.0 152.0 L 154.0 154.0 " stroke="black" fill="none" stroke-width="5.0" stroke-linecap="round" stroke-linejoin="round" />
<path d="M 181.0 116.0 L 181.0 116.0 L 180.0 117.0 L 180.0 121.0 L 180.0 130.0 L 178.0 144.0 L 172.0 160.0 L 164.0 176.0 L 156.0 187.0 " stroke="black" fill="none" stroke-width="5.0" stroke-linecap="round" stroke-linejoin="round" />
<path d="M 175.0 161.0 L 176.0 162.0 L 178.0 165.0 L 184.0 170.0 L 194.0 178.0 L 205.0 185.0 L 213.0 188.0 L 215.0 188.0 " stroke="black" fill="none" stroke-width="5.0" stroke-linecap="round" stroke-linejoin="round" />
</svg>