<svg xmlns="http://www.w3.org/2000/svg" width="300" height="300" viewBox="0 0 300 300">
<path d="M 127.0 112.0 L 127.0 112.0 L 127.0 114.0 L 127.0 119.0 L 126.0 130.0 L 124.0 148.0 L 123.0 164.0 L 122.0 174.0 L 122.0 176.0 " stroke="black" fill="none" stroke-width="5.0" stroke-linecap="round" stroke-linejoin="round" />
<path d="M 110.0 176.0 L 110.0 176.0 L 110.0 176.0 L 111.0 176.0 L 115.0 177.0 L 125.0 178.0 L 139.0 178.0 L 145.0 178.0 " stroke="black" fill="none" stroke-width="5.0" stroke-linecap="round" stroke-linejoin="round" />
<path d="M 150.0 142.0 L 150.0 142.0 L 150.0 145.0 L 151.0 148.0 L 153.0 151.0 L 157.0 153.0 L 158.0 154.0 " stroke="black" fill="none" stroke-width="5.0" stroke-linecap="round" stroke-linejoin="round" />
<path d="M 173.0 115.0 L 173.0 117.0 L 173.0 121.0 L 173.0 129.0 L 173.0 143.0 L 172.0 159.0 L 167.0 175.0 L 159.0 189.0 L 153.0 196.0 " stroke="black" fill="none" stroke-width="5.0" stroke-linecap="round" stroke-linejoin="round" />
<path d="M 172.0 170.0 L 173.0 172.0 L 174.0 176.0 L 179.0 181.0 L 187.0 188.0 L 195.0 193.0 L 199.0 196.0 " stroke="black" fill="none" stroke-width="5.0" stroke-linecap="round" stroke-linejoin="round" />
</svg>