<svg xmlns="http://www.w3.org/2000/svg" width="300" height="300" viewBox="0 0 300 300">
<path d="M 120.0 120.0 L 120.0 120.0 L 121.0 122.0 L 121.0 125.0 L 121.0 132.0 L 120.0 141.0 L 119.0 153.0 L 119.0 166.0 L 119.0 174.0 L 119.0 176.0 " stroke="black" fill="none" stroke-width="5.0" stroke-linecap="round" stroke-linejoin="round" />
<path d="M 100.0 187.0 L 101.0 186.0 L 102.0 185.0 L 108.0 185.0 L 117.0 185.0 L 126.0 183.0 L 137.0 180.0 L 139.0 179.0 " stroke="black" fill="none" stroke-width="5.0" stroke-linecap="round" stroke-linejoin="round" />
<path d="M 148.0 141.0 L 148.0 141.0 L 148.0 141.0 L 149.0 142.0 L 151.0 144.0 L 153.0 146.0 L 154.0 146.0 " stroke="black" fill="none" stroke-width="5.0" stroke-linecap="round" stroke-linejoin="round" />
<path d="M 167.0 116.0 L 168.0 118.0 L 169.0 120.0 L 169.0 122.0 L 169.0 130.0 L 168.0 146.0 L 164.0 162.0 L 160.0 174.0 L 155.0 184.0 L 152.0 188.0 L 152.0 188.0 " stroke="black" fill="none" stroke-width="5.0" stroke-linecap="round" stroke-linejoin="round" />
<path d="M 161.0 163.0 L 164.0 163.0 L 168.0 168.0 L 174.0 173.0 L 183.0 180.0 L 189.0 183.0 L 196.0 187.0 L 197.0 189.0 L 198.0 189.0 " stroke="black" fill="none" stroke-width="5.0" stroke-linecap="round" stroke-linejoin="round" />
</svg>