<svg xmlns="http://www.w3.org/2000/svg" width="300" height="300" viewBox="0 0 300 300">
<path d="M 119.0 117.0 L 119.0 117.0 L 119.0 117.0 L 119.0 117.0 L 119.0 120.0 L 119.0 129.0 L 119.0 145.0 L 119.0 160.0 L 118.0 171.0 L 118.0 174.0 " stroke="black" fill="none" stroke-width="5.0" stroke-linecap="round" stroke-linejoin="round" />
<path d="M 106.0 178.0 L 106.0 178.0 L 107.0 178.0 L 109.0 177.0 L 118.0 175.0 L 130.0 172.0 L 138.0 170.0 " stroke="black" fill="none" stroke-width="5.0" stroke-linecap="round" stroke-linejoin="round" />
<path d="M 143.0 139.0 L 143.0 139.0 L 143.0 139.0 L 143.0 139.0 L 146.0 142.0 L 147.0 144.0 " stroke="black" fill="none" stroke-width="5.0" stroke-linecap="round" stroke-linejoin="round" />
<path d="M 165.0 114.0 L 165.0 115.0 L 165.0 118.0 L 165.0 125.0 L 165.0 138.0 L 163.0 154.0 L 158.0 170.0 L 152.0 184.0 L 150.0 189.0 " stroke="black" fill="none" stroke-width="5.0" stroke-linecap="round" stroke-linejoin="round" />
<path d="M 162.0 165.0 L 162.0 166.0 L 164.0 168.0 L 169.0 172.0 L 177.0 179.0 L 185.0 186.0 L 189.0 189.0 L 190.0 190.0 " stroke="black" fill="none" stroke-width="5.0" stroke-linecap="round" stroke-linejoin="round" />
</svg>