<svg xmlns="http://www.w3.org/2000/svg" width="300" height="300" viewBox="0 0 300 300">
<path d="M 137.0 115.0 L 137.0 115.0 L 137.0 115.0 L 136.0 116.0 L 136.0 116.0 L 139.0 116.0 L 145.0 116.0 L 153.0 116.0 L 159.0 116.0 L 163.0 115.0 L 164.0 115.0 L 164.0 115.0 L 163.0 115.0 " stroke="black" fill="none" stroke-width="5.0" stroke-linecap="round" stroke-linejoin="round" />
<path d="M 118.0 135.0 L 119.0 135.0 L 119.0 135.0 L 119.0 137.0 L 119.0 141.0 L 119.0 146.0 L 119.0 149.0 L 119.0 150.0 " stroke="black" fill="none" stroke-width="5.0" stroke-linecap="round" stroke-linejoin="round" />
<path d="M 119.0 134.0 L 121.0 134.0 L 122.0 134.0 L 124.0 133.0 L 127.0 133.0 L 133.0 133.0 L 142.0 132.0 L 152.0 132.0 L 161.0 132.0 L 168.0 132.0 L 174.0 132.0 L 178.0 132.0 L 182.0 132.0 L 183.0 134.0 L 183.0 138.0 L 183.0 144.0 L 183.0 150.0 L 182.0 154.0 L 182.0 156.0 L 182.0 156.0 " stroke="black" fill="none" stroke-width="5.0" stroke-linecap="round" stroke-linejoin="round" />
<path d="M 149.0 119.0 L 149.0 119.0 L 149.0 119.0 L 148.0 119.0 L 148.0 120.0 L 148.0 126.0 L 150.0 136.0 L 151.0 145.0 L 152.0 150.0 L 152.0 151.0 " stroke="black" fill="none" stroke-width="5.0" stroke-linecap="round" stroke-linejoin="round" />
<path d="M 134.0 138.0 L 134.0 138.0 L 134.0 138.0 L 134.0 138.0 L 134.0 138.0 L 135.0 138.0 L 137.0 138.0 " stroke="black" fill="none" stroke-width="5.0" stroke-linecap="round" stroke-linejoin="round" />
<path d="M 130.0 147.0 L 131.0 147.0 L 132.0 147.0 L 133.0 147.0 L 134.0 147.0 L 137.0 146.0 L 139.0 146.0 " stroke="black" fill="none" stroke-width="5.0" stroke-linecap="round" stroke-linejoin="round" />
<path d="M 152.0 144.0 L 152.0 144.0 L 153.0 143.0 L 154.0 142.0 L 157.0 141.0 L 161.0 140.0 L 162.0 140.0 " stroke="black" fill="none" stroke-width="5.0" stroke-linecap="round" stroke-linejoin="round" />
<path d="M 161.0 146.0 L 161.0 146.0 L 161.0 147.0 L 163.0 149.0 L 166.0 150.0 L 166.0 150.0 " stroke="black" fill="none" stroke-width="5.0" stroke-linecap="round" stroke-linejoin="round" />
<path d="M 134.0 163.0 L 134.0 163.0 L 134.0 164.0 L 134.0 165.0 L 134.0 165.0 L 137.0 166.0 L 143.0 166.0 L 151.0 166.0 L 159.0 166.0 L 165.0 166.0 L 169.0 166.0 L 170.0 166.0 L 170.0 166.0 L 170.0 166.0 L 171.0 169.0 L 172.0 174.0 L 173.0 181.0 L 173.0 187.0 L 174.0 190.0 L 174.0 191.0 " stroke="black" fill="none" stroke-width="5.0" stroke-linecap="round" stroke-linejoin="round" />
<path d="M 114.0 177.0 L 114.0 177.0 L 115.0 177.0 L 116.0 177.0 L 120.0 177.0 L 130.0 177.0 L 144.0 178.0 L 156.0 179.0 L 167.0 180.0 L 177.0 180.0 L 183.0 180.0 L 185.0 179.0 L 185.0 179.0 L 185.0 181.0 " stroke="black" fill="none" stroke-width="5.0" stroke-linecap="round" stroke-linejoin="round" />
<path d="M 129.0 193.0 L 130.0 193.0 L 131.0 193.0 L 134.0 194.0 L 140.0 195.0 L 150.0 196.0 L 162.0 196.0 L 170.0 196.0 L 173.0 196.0 L 174.0 195.0 L 173.0 195.0 " stroke="black" fill="none" stroke-width="5.0" stroke-linecap="round" stroke-linejoin="round" />
</svg>