<svg xmlns="http://www.w3.org/2000/svg" width="300" height="300" viewBox="0 0 300 300">
<path d="M 117.0 121.0 L 118.0 122.0 L 118.0 122.0 L 119.0 122.0 L 120.0 124.0 L 123.0 125.0 L 127.0 127.0 L 129.0 127.0 " stroke="black" fill="none" stroke-width="5.0" stroke-linecap="round" stroke-linejoin="round" />
<path d="M 110.0 150.0 L 110.0 150.0 L 110.0 150.0 L 110.0 150.0 L 112.0 150.0 L 117.0 150.0 L 123.0 150.0 " stroke="black" fill="none" stroke-width="5.0" stroke-linecap="round" stroke-linejoin="round" />
<path d="M 102.0 179.0 L 102.0 179.0 L 104.0 179.0 L 107.0 179.0 L 115.0 178.0 L 126.0 176.0 L 129.0 175.0 " stroke="black" fill="none" stroke-width="5.0" stroke-linecap="round" stroke-linejoin="round" />
<path d="M 145.0 124.0 L 145.0 124.0 L 145.0 125.0 L 145.0 125.0 L 148.0 125.0 L 153.0 125.0 L 162.0 125.0 L 169.0 125.0 L 172.0 125.0 L 173.0 125.0 " stroke="black" fill="none" stroke-width="5.0" stroke-linecap="round" stroke-linejoin="round" />
<path d="M 151.0 131.0 L 151.0 131.0 L 151.0 132.0 L 151.0 133.0 L 151.0 135.0 L 151.0 141.0 L 151.0 149.0 L 150.0 158.0 L 149.0 163.0 L 149.0 163.0 " stroke="black" fill="none" stroke-width="5.0" stroke-linecap="round" stroke-linejoin="round" />
<path d="M 163.0 128.0 L 163.0 128.0 L 163.0 129.0 L 163.0 130.0 L 163.0 133.0 L 163.0 141.0 L 164.0 152.0 L 166.0 159.0 L 171.0 162.0 L 176.0 161.0 L 177.0 160.0 " stroke="black" fill="none" stroke-width="5.0" stroke-linecap="round" stroke-linejoin="round" />
<path d="M 138.0 148.0 L 138.0 148.0 L 138.0 148.0 L 137.0 148.0 L 137.0 149.0 L 137.0 157.0 L 138.0 170.0 L 139.0 180.0 L 139.0 183.0 L 141.0 183.0 L 141.0 180.0 " stroke="black" fill="none" stroke-width="5.0" stroke-linecap="round" stroke-linejoin="round" />
<path d="M 143.0 146.0 L 144.0 146.0 L 146.0 146.0 L 149.0 145.0 L 154.0 145.0 L 162.0 145.0 L 171.0 145.0 L 176.0 145.0 L 180.0 147.0 L 183.0 153.0 L 185.0 162.0 L 187.0 174.0 L 189.0 185.0 L 190.0 189.0 L 190.0 191.0 L 189.0 191.0 " stroke="black" fill="none" stroke-width="5.0" stroke-linecap="round" stroke-linejoin="round" />
<path d="M 150.0 172.0 L 150.0 172.0 L 150.0 172.0 L 150.0 172.0 L 154.0 173.0 L 162.0 173.0 L 171.0 173.0 L 176.0 173.0 L 176.0 173.0 " stroke="black" fill="none" stroke-width="5.0" stroke-linecap="round" stroke-linejoin="round" />
<path d="M 145.0 192.0 L 145.0 192.0 L 145.0 192.0 L 145.0 192.0 L 145.0 192.0 L 151.0 192.0 L 161.0 192.0 L 172.0 193.0 L 180.0 193.0 L 184.0 193.0 L 185.0 193.0 L 185.0 192.0 L 184.0 192.0 L 184.0 192.0 " stroke="black" fill="none" stroke-width="5.0" stroke-linecap="round" stroke-linejoin="round" />
</svg>