<svg xmlns="http://www.w3.org/2000/svg" width="300" height="300" viewBox="0 0 300 300">
<path d="M 124.0 121.0 L 124.0 121.0 L 124.0 124.0 L 124.0 127.0 L 123.0 133.0 L 122.0 141.0 L 119.0 152.0 L 116.0 166.0 L 113.0 175.0 L 113.0 178.0 L 114.0 179.0 L 119.0 180.0 L 125.0 183.0 L 131.0 186.0 L 137.0 187.0 L 140.0 187.0 " stroke="black" fill="none" stroke-width="5.0" stroke-linecap="round" stroke-linejoin="round" />
<path d="M 135.0 140.0 L 135.0 140.0 L 135.0 140.0 L 134.0 141.0 L 133.0 145.0 L 131.0 156.0 L 125.0 174.0 L 119.0 191.0 L 116.0 195.0 " stroke="black" fill="none" stroke-width="5.0" stroke-linecap="round" stroke-linejoin="round" />
<path d="M 107.0 160.0 L 107.0 160.0 L 108.0 160.0 L 113.0 161.0 L 124.0 161.0 L 135.0 159.0 L 139.0 159.0 " stroke="black" fill="none" stroke-width="5.0" stroke-linecap="round" stroke-linejoin="round" />
<path d="M 151.0 127.0 L 151.0 127.0 L 151.0 127.0 L 152.0 127.0 L 153.0 127.0 L 157.0 127.0 L 162.0 128.0 L 165.0 129.0 L 167.0 132.0 L 168.0 137.0 L 168.0 141.0 L 168.0 146.0 L 167.0 149.0 L 165.0 150.0 L 161.0 151.0 L 157.0 151.0 L 154.0 151.0 L 152.0 151.0 L 150.0 151.0 L 150.0 152.0 L 149.0 155.0 L 148.0 161.0 L 147.0 169.0 L 146.0 179.0 L 146.0 189.0 L 149.0 195.0 L 154.0 199.0 L 163.0 201.0 L 174.0 202.0 L 183.0 202.0 L 189.0 201.0 L 191.0 199.0 L 192.0 195.0 L 192.0 189.0 L 192.0 182.0 " stroke="black" fill="none" stroke-width="5.0" stroke-linecap="round" stroke-linejoin="round" />
</svg>