<svg xmlns="http://www.w3.org/2000/svg" width="300" height="300" viewBox="0 0 300 300">
<path d="M 134.0 103.0 L 134.0 105.0 L 134.0 109.0 L 133.0 115.0 L 133.0 123.0 L 134.0 129.0 L 135.0 131.0 " stroke="black" fill="none" stroke-width="5.0" stroke-linecap="round" stroke-linejoin="round" />
<path d="M 115.0 119.0 L 115.0 119.0 L 116.0 119.0 L 117.0 119.0 L 120.0 119.0 L 128.0 118.0 L 141.0 116.0 L 155.0 114.0 L 165.0 113.0 L 172.0 113.0 L 174.0 113.0 L 174.0 113.0 " stroke="black" fill="none" stroke-width="5.0" stroke-linecap="round" stroke-linejoin="round" />
<path d="M 160.0 100.0 L 160.0 101.0 L 160.0 103.0 L 161.0 109.0 L 161.0 117.0 L 161.0 124.0 L 161.0 125.0 " stroke="black" fill="none" stroke-width="5.0" stroke-linecap="round" stroke-linejoin="round" />
<path d="M 117.0 147.0 L 118.0 147.0 L 119.0 148.0 L 120.0 148.0 L 122.0 149.0 L 126.0 150.0 L 130.0 150.0 L 131.0 150.0 " stroke="black" fill="none" stroke-width="5.0" stroke-linecap="round" stroke-linejoin="round" />
<path d="M 112.0 166.0 L 112.0 166.0 L 112.0 166.0 L 113.0 166.0 L 115.0 166.0 L 119.0 166.0 L 124.0 166.0 " stroke="black" fill="none" stroke-width="5.0" stroke-linecap="round" stroke-linejoin="round" />
<path d="M 106.0 192.0 L 107.0 192.0 L 109.0 192.0 L 113.0 192.0 L 122.0 190.0 L 130.0 188.0 " stroke="black" fill="none" stroke-width="5.0" stroke-linecap="round" stroke-linejoin="round" />
<path d="M 145.0 139.0 L 145.0 139.0 L 145.0 139.0 L 147.0 139.0 L 151.0 139.0 L 158.0 139.0 L 163.0 139.0 L 165.0 139.0 L 165.0 139.0 " stroke="black" fill="none" stroke-width="5.0" stroke-linecap="round" stroke-linejoin="round" />
<path d="M 141.0 153.0 L 141.0 154.0 L 140.0 155.0 L 140.0 157.0 L 140.0 161.0 L 140.0 165.0 L 141.0 167.0 L 142.0 168.0 " stroke="black" fill="none" stroke-width="5.0" stroke-linecap="round" stroke-linejoin="round" />
<path d="M 143.0 149.0 L 143.0 149.0 L 144.0 148.0 L 146.0 148.0 L 149.0 148.0 L 153.0 148.0 L 159.0 148.0 L 164.0 149.0 L 169.0 151.0 L 172.0 154.0 L 174.0 158.0 L 176.0 162.0 L 176.0 165.0 L 176.0 168.0 L 173.0 170.0 L 169.0 170.0 L 165.0 170.0 " stroke="black" fill="none" stroke-width="5.0" stroke-linecap="round" stroke-linejoin="round" />
<path d="M 148.0 154.0 L 149.0 154.0 L 150.0 155.0 L 152.0 155.0 L 157.0 155.0 L 161.0 155.0 L 165.0 155.0 L 165.0 155.0 " stroke="black" fill="none" stroke-width="5.0" stroke-linecap="round" stroke-linejoin="round" />
<path d="M 143.0 162.0 L 144.0 163.0 L 146.0 163.0 L 151.0 163.0 L 157.0 163.0 L 163.0 163.0 L 164.0 163.0 " stroke="black" fill="none" stroke-width="5.0" stroke-linecap="round" stroke-linejoin="round" />
<path d="M 153.0 137.0 L 153.0 137.0 L 153.0 138.0 L 153.0 140.0 L 154.0 146.0 L 155.0 157.0 L 155.0 166.0 L 155.0 172.0 L 155.0 172.0 " stroke="black" fill="none" stroke-width="5.0" stroke-linecap="round" stroke-linejoin="round" />
<path d="M 165.0 130.0 L 165.0 132.0 L 166.0 135.0 L 168.0 138.0 L 169.0 138.0 " stroke="black" fill="none" stroke-width="5.0" stroke-linecap="round" stroke-linejoin="round" />
<path d="M 136.0 183.0 L 136.0 183.0 L 136.0 183.0 L 136.0 183.0 L 137.0 183.0 L 143.0 182.0 L 154.0 181.0 L 165.0 180.0 L 172.0 180.0 L 175.0 180.0 L 174.0 180.0 " stroke="black" fill="none" stroke-width="5.0" stroke-linecap="round" stroke-linejoin="round" />
<path d="M 158.0 172.0 L 159.0 172.0 L 159.0 172.0 L 159.0 172.0 L 160.0 172.0 L 162.0 178.0 L 165.0 190.0 L 168.0 201.0 L 169.0 209.0 L 169.0 211.0 L 168.0 212.0 L 163.0 212.0 L 157.0 209.0 L 153.0 207.0 " stroke="black" fill="none" stroke-width="5.0" stroke-linecap="round" stroke-linejoin="round" />
<path d="M 143.0 195.0 L 145.0 196.0 L 148.0 196.0 L 153.0 196.0 L 157.0 196.0 " stroke="black" fill="none" stroke-width="5.0" stroke-linecap="round" stroke-linejoin="round" />
</svg>