<svg xmlns="http://www.w3.org/2000/svg" width="300" height="300" viewBox="0 0 300 300">
<path d="M 134.0 110.0 L 134.0 110.0 L 135.0 109.0 L 135.0 109.0 L 135.0 109.0 L 136.0 112.0 L 136.0 117.0 L 137.0 122.0 L 137.0 128.0 L 137.0 129.0 L 137.0 130.0 " stroke="black" fill="none" stroke-width="5.0" stroke-linecap="round" stroke-linejoin="round" />
<path d="M 119.0 120.0 L 119.0 121.0 L 119.0 122.0 L 120.0 122.0 L 121.0 122.0 L 123.0 122.0 L 131.0 121.0 L 144.0 119.0 L 155.0 118.0 L 165.0 117.0 L 170.0 116.0 L 178.0 116.0 L 184.0 116.0 L 184.0 116.0 L 184.0 116.0 L 183.0 116.0 L 183.0 116.0 " stroke="black" fill="none" stroke-width="5.0" stroke-linecap="round" stroke-linejoin="round" />
<path d="M 163.0 104.0 L 163.0 104.0 L 163.0 104.0 L 164.0 104.0 L 165.0 105.0 L 165.0 107.0 L 165.0 117.0 L 165.0 127.0 L 164.0 129.0 " stroke="black" fill="none" stroke-width="5.0" stroke-linecap="round" stroke-linejoin="round" />
<path d="M 116.0 145.0 L 117.0 145.0 L 118.0 145.0 L 119.0 145.0 L 120.0 146.0 L 124.0 146.0 L 128.0 147.0 L 131.0 147.0 " stroke="black" fill="none" stroke-width="5.0" stroke-linecap="round" stroke-linejoin="round" />
<path d="M 111.0 164.0 L 113.0 165.0 L 114.0 166.0 L 115.0 167.0 L 119.0 168.0 L 125.0 168.0 L 130.0 167.0 L 130.0 167.0 " stroke="black" fill="none" stroke-width="5.0" stroke-linecap="round" stroke-linejoin="round" />
<path d="M 105.0 190.0 L 105.0 190.0 L 105.0 190.0 L 106.0 190.0 L 108.0 190.0 L 113.0 189.0 L 121.0 187.0 " stroke="black" fill="none" stroke-width="5.0" stroke-linecap="round" stroke-linejoin="round" />
<path d="M 147.0 143.0 L 147.0 142.0 L 147.0 142.0 L 147.0 141.0 L 147.0 141.0 L 149.0 141.0 L 152.0 141.0 L 157.0 141.0 L 162.0 141.0 L 166.0 142.0 L 167.0 142.0 L 167.0 142.0 " stroke="black" fill="none" stroke-width="5.0" stroke-linecap="round" stroke-linejoin="round" />
<path d="M 142.0 152.0 L 142.0 152.0 L 141.0 152.0 L 141.0 152.0 L 141.0 152.0 L 141.0 154.0 L 141.0 157.0 L 141.0 160.0 L 142.0 165.0 L 142.0 166.0 L 142.0 167.0 " stroke="black" fill="none" stroke-width="5.0" stroke-linecap="round" stroke-linejoin="round" />
<path d="M 142.0 151.0 L 142.0 151.0 L 142.0 151.0 L 142.0 151.0 L 142.0 151.0 L 145.0 151.0 L 148.0 150.0 L 154.0 150.0 L 160.0 150.0 L 163.0 150.0 L 167.0 151.0 L 170.0 154.0 L 171.0 157.0 L 172.0 165.0 L 172.0 172.0 L 172.0 175.0 L 171.0 178.0 L 169.0 179.0 L 166.0 178.0 L 162.0 177.0 L 159.0 176.0 " stroke="black" fill="none" stroke-width="5.0" stroke-linecap="round" stroke-linejoin="round" />
<path d="M 148.0 158.0 L 148.0 158.0 L 148.0 159.0 L 147.0 160.0 L 148.0 160.0 L 153.0 160.0 L 160.0 160.0 L 164.0 159.0 " stroke="black" fill="none" stroke-width="5.0" stroke-linecap="round" stroke-linejoin="round" />
<path d="M 147.0 165.0 L 147.0 165.0 L 147.0 165.0 L 147.0 165.0 L 147.0 165.0 L 148.0 165.0 L 152.0 165.0 L 158.0 165.0 L 162.0 165.0 " stroke="black" fill="none" stroke-width="5.0" stroke-linecap="round" stroke-linejoin="round" />
<path d="M 155.0 137.0 L 155.0 137.0 L 156.0 137.0 L 156.0 137.0 L 156.0 141.0 L 156.0 151.0 L 156.0 163.0 L 156.0 173.0 L 156.0 176.0 L 156.0 177.0 " stroke="black" fill="none" stroke-width="5.0" stroke-linecap="round" stroke-linejoin="round" />
<path d="M 169.0 135.0 L 169.0 138.0 L 169.0 140.0 L 170.0 138.0 L 171.0 140.0 L 174.0 143.0 L 174.0 144.0 " stroke="black" fill="none" stroke-width="5.0" stroke-linecap="round" stroke-linejoin="round" />
<path d="M 141.0 181.0 L 141.0 181.0 L 141.0 181.0 L 141.0 181.0 L 140.0 181.0 L 141.0 181.0 L 145.0 181.0 L 153.0 181.0 L 165.0 181.0 L 171.0 182.0 L 179.0 183.0 L 180.0 183.0 L 180.0 183.0 " stroke="black" fill="none" stroke-width="5.0" stroke-linecap="round" stroke-linejoin="round" />
<path d="M 159.0 175.0 L 159.0 175.0 L 159.0 175.0 L 160.0 175.0 L 160.0 176.0 L 163.0 182.0 L 166.0 189.0 L 169.0 203.0 L 169.0 211.0 L 169.0 213.0 L 167.0 215.0 L 160.0 213.0 L 153.0 209.0 L 150.0 207.0 " stroke="black" fill="none" stroke-width="5.0" stroke-linecap="round" stroke-linejoin="round" />
<path d="M 141.0 191.0 L 141.0 191.0 L 141.0 191.0 L 143.0 191.0 L 150.0 191.0 L 157.0 192.0 L 158.0 193.0 " stroke="black" fill="none" stroke-width="5.0" stroke-linecap="round" stroke-linejoin="round" />
</svg>