<svg xmlns="http://www.w3.org/2000/svg" width="300" height="300" viewBox="0 0 300 300">
<path d="M 125.0 119.0 L 125.0 119.0 L 125.0 119.0 L 126.0 122.0 L 130.0 127.0 L 135.0 129.0 " stroke="black" fill="none" stroke-width="5.0" stroke-linecap="round" stroke-linejoin="round" />
<path d="M 114.0 153.0 L 115.0 153.0 L 116.0 153.0 L 118.0 153.0 L 121.0 154.0 L 127.0 154.0 L 130.0 155.0 " stroke="black" fill="none" stroke-width="5.0" stroke-linecap="round" stroke-linejoin="round" />
<path d="M 104.0 190.0 L 104.0 190.0 L 104.0 191.0 L 104.0 191.0 L 111.0 189.0 L 125.0 183.0 L 133.0 179.0 " stroke="black" fill="none" stroke-width="5.0" stroke-linecap="round" stroke-linejoin="round" />
<path d="M 148.0 129.0 L 148.0 129.0 L 147.0 129.0 L 147.0 130.0 L 146.0 133.0 L 146.0 140.0 L 147.0 145.0 L 148.0 147.0 " stroke="black" fill="none" stroke-width="5.0" stroke-linecap="round" stroke-linejoin="round" />
<path d="M 150.0 129.0 L 150.0 129.0 L 150.0 129.0 L 152.0 129.0 L 158.0 129.0 L 170.0 129.0 L 181.0 127.0 L 189.0 127.0 L 192.0 130.0 L 192.0 136.0 L 192.0 143.0 L 192.0 148.0 " stroke="black" fill="none" stroke-width="5.0" stroke-linecap="round" stroke-linejoin="round" />
<path d="M 162.0 132.0 L 162.0 132.0 L 162.0 132.0 L 162.0 133.0 L 162.0 137.0 L 162.0 145.0 L 161.0 151.0 " stroke="black" fill="none" stroke-width="5.0" stroke-linecap="round" stroke-linejoin="round" />
<path d="M 178.0 131.0 L 178.0 131.0 L 177.0 133.0 L 177.0 137.0 L 177.0 144.0 L 179.0 150.0 L 183.0 153.0 L 184.0 153.0 " stroke="black" fill="none" stroke-width="5.0" stroke-linecap="round" stroke-linejoin="round" />
<path d="M 148.0 167.0 L 148.0 167.0 L 148.0 167.0 L 148.0 167.0 L 152.0 167.0 L 164.0 168.0 L 179.0 168.0 L 191.0 168.0 L 195.0 168.0 " stroke="black" fill="none" stroke-width="5.0" stroke-linecap="round" stroke-linejoin="round" />
<path d="M 169.0 155.0 L 169.0 155.0 L 169.0 155.0 L 169.0 155.0 L 169.0 157.0 L 170.0 168.0 L 173.0 182.0 L 175.0 194.0 L 175.0 198.0 " stroke="black" fill="none" stroke-width="5.0" stroke-linecap="round" stroke-linejoin="round" />
<path d="M 170.0 168.0 L 170.0 169.0 L 170.0 170.0 L 168.0 172.0 L 165.0 177.0 L 159.0 185.0 L 150.0 194.0 L 144.0 200.0 " stroke="black" fill="none" stroke-width="5.0" stroke-linecap="round" stroke-linejoin="round" />
<path d="M 172.0 169.0 L 173.0 172.0 L 176.0 177.0 L 185.0 185.0 L 196.0 195.0 L 206.0 203.0 L 208.0 204.0 " stroke="black" fill="none" stroke-width="5.0" stroke-linecap="round" stroke-linejoin="round" />
</svg>