<svg xmlns="http://www.w3.org/2000/svg" width="300" height="300" viewBox="0 0 300 300">
<path d="M 117.0 118.0 L 117.0 118.0 L 117.0 118.0 L 117.0 118.0 L 117.0 118.0 L 118.0 119.0 L 121.0 121.0 L 127.0 123.0 L 130.0 124.0 " stroke="black" fill="none" stroke-width="5.0" stroke-linecap="round" stroke-linejoin="round" />
<path d="M 110.0 148.0 L 110.0 148.0 L 110.0 148.0 L 111.0 148.0 L 115.0 148.0 L 122.0 147.0 L 129.0 147.0 " stroke="black" fill="none" stroke-width="5.0" stroke-linecap="round" stroke-linejoin="round" />
<path d="M 102.0 181.0 L 102.0 181.0 L 102.0 181.0 L 102.0 181.0 L 104.0 181.0 L 112.0 179.0 L 122.0 174.0 " stroke="black" fill="none" stroke-width="5.0" stroke-linecap="round" stroke-linejoin="round" />
<path d="M 144.0 122.0 L 144.0 122.0 L 143.0 122.0 L 143.0 122.0 L 142.0 123.0 L 142.0 127.0 L 142.0 132.0 L 143.0 138.0 L 143.0 139.0 " stroke="black" fill="none" stroke-width="5.0" stroke-linecap="round" stroke-linejoin="round" />
<path d="M 145.0 121.0 L 145.0 121.0 L 145.0 121.0 L 146.0 121.0 L 149.0 120.0 L 155.0 119.0 L 164.0 117.0 L 174.0 116.0 L 182.0 116.0 L 187.0 116.0 L 189.0 118.0 L 190.0 122.0 L 190.0 127.0 L 191.0 131.0 L 191.0 133.0 " stroke="black" fill="none" stroke-width="5.0" stroke-linecap="round" stroke-linejoin="round" />
<path d="M 157.0 122.0 L 157.0 122.0 L 157.0 123.0 L 157.0 124.0 L 157.0 126.0 L 157.0 131.0 L 155.0 137.0 L 153.0 144.0 L 153.0 145.0 " stroke="black" fill="none" stroke-width="5.0" stroke-linecap="round" stroke-linejoin="round" />
<path d="M 170.0 122.0 L 170.0 123.0 L 171.0 123.0 L 171.0 124.0 L 171.0 127.0 L 171.0 132.0 L 171.0 138.0 L 174.0 143.0 L 179.0 145.0 L 183.0 145.0 " stroke="black" fill="none" stroke-width="5.0" stroke-linecap="round" stroke-linejoin="round" />
<path d="M 143.0 162.0 L 143.0 162.0 L 144.0 162.0 L 145.0 162.0 L 148.0 162.0 L 154.0 162.0 L 163.0 161.0 L 174.0 161.0 L 183.0 161.0 L 187.0 160.0 " stroke="black" fill="none" stroke-width="5.0" stroke-linecap="round" stroke-linejoin="round" />
<path d="M 161.0 148.0 L 161.0 148.0 L 161.0 150.0 L 162.0 155.0 L 163.0 164.0 L 164.0 176.0 L 164.0 185.0 L 164.0 190.0 L 164.0 190.0 " stroke="black" fill="none" stroke-width="5.0" stroke-linecap="round" stroke-linejoin="round" />
<path d="M 164.0 162.0 L 164.0 162.0 L 163.0 162.0 L 161.0 163.0 L 158.0 165.0 L 154.0 171.0 L 147.0 180.0 L 139.0 187.0 L 135.0 191.0 L 135.0 191.0 " stroke="black" fill="none" stroke-width="5.0" stroke-linecap="round" stroke-linejoin="round" />
<path d="M 165.0 168.0 L 167.0 170.0 L 171.0 174.0 L 178.0 181.0 L 186.0 189.0 L 192.0 194.0 L 195.0 196.0 L 196.0 197.0 " stroke="black" fill="none" stroke-width="5.0" stroke-linecap="round" stroke-linejoin="round" />
</svg>