<svg xmlns="http://www.w3.org/2000/svg" width="300" height="300" viewBox="0 0 300 300">
<path d="M 132.0 112.0 L 132.0 113.0 L 132.0 114.0 L 132.0 117.0 L 130.0 124.0 L 126.0 138.0 L 118.0 153.0 L 110.0 165.0 L 104.0 170.0 L 104.0 170.0 " stroke="black" fill="none" stroke-width="5.0" stroke-linecap="round" stroke-linejoin="round" />
<path d="M 124.0 146.0 L 124.0 146.0 L 123.0 147.0 L 123.0 148.0 L 123.0 150.0 L 123.0 157.0 L 124.0 169.0 L 124.0 181.0 L 124.0 190.0 L 123.0 191.0 " stroke="black" fill="none" stroke-width="5.0" stroke-linecap="round" stroke-linejoin="round" />
<path d="M 155.0 108.0 L 155.0 108.0 L 155.0 108.0 L 155.0 109.0 L 158.0 112.0 L 162.0 115.0 L 163.0 116.0 " stroke="black" fill="none" stroke-width="5.0" stroke-linecap="round" stroke-linejoin="round" />
<path d="M 145.0 123.0 L 145.0 124.0 L 146.0 124.0 L 149.0 124.0 L 156.0 124.0 L 168.0 121.0 L 177.0 119.0 L 182.0 118.0 L 182.0 118.0 L 182.0 117.0 L 180.0 117.0 " stroke="black" fill="none" stroke-width="5.0" stroke-linecap="round" stroke-linejoin="round" />
<path d="M 149.0 128.0 L 149.0 128.0 L 149.0 128.0 L 149.0 129.0 L 148.0 133.0 L 147.0 142.0 L 145.0 157.0 L 141.0 174.0 L 137.0 186.0 L 136.0 189.0 L 136.0 189.0 " stroke="black" fill="none" stroke-width="5.0" stroke-linecap="round" stroke-linejoin="round" />
<path d="M 163.0 137.0 L 163.0 137.0 L 164.0 137.0 L 164.0 137.0 L 164.0 141.0 L 161.0 148.0 L 156.0 157.0 L 152.0 164.0 " stroke="black" fill="none" stroke-width="5.0" stroke-linecap="round" stroke-linejoin="round" />
<path d="M 160.0 152.0 L 160.0 152.0 L 159.0 153.0 L 159.0 156.0 L 159.0 163.0 L 159.0 174.0 L 159.0 186.0 L 159.0 192.0 " stroke="black" fill="none" stroke-width="5.0" stroke-linecap="round" stroke-linejoin="round" />
<path d="M 170.0 148.0 L 170.0 148.0 L 171.0 147.0 L 172.0 147.0 L 176.0 147.0 L 183.0 147.0 L 191.0 146.0 L 197.0 145.0 L 199.0 145.0 " stroke="black" fill="none" stroke-width="5.0" stroke-linecap="round" stroke-linejoin="round" />
<path d="M 184.0 136.0 L 184.0 136.0 L 184.0 136.0 L 184.0 140.0 L 186.0 150.0 L 190.0 165.0 L 193.0 181.0 L 194.0 191.0 L 195.0 197.0 L 195.0 198.0 L 192.0 197.0 L 185.0 194.0 L 178.0 191.0 " stroke="black" fill="none" stroke-width="5.0" stroke-linecap="round" stroke-linejoin="round" />
<path d="M 173.0 171.0 L 173.0 171.0 L 174.0 172.0 L 178.0 172.0 L 184.0 172.0 " stroke="black" fill="none" stroke-width="5.0" stroke-linecap="round" stroke-linejoin="round" />
</svg>