<svg xmlns="http://www.w3.org/2000/svg" width="300" height="300" viewBox="0 0 300 300">
<path d="M 123.0 119.0 L 124.0 119.0 L 124.0 120.0 L 125.0 120.0 L 127.0 120.0 L 132.0 120.0 L 143.0 118.0 L 155.0 118.0 L 164.0 117.0 L 169.0 117.0 " stroke="black" fill="none" stroke-width="5.0" stroke-linecap="round" stroke-linejoin="round" />
<path d="M 153.0 100.0 L 153.0 100.0 L 153.0 100.0 L 153.0 102.0 L 153.0 109.0 L 149.0 119.0 L 143.0 130.0 " stroke="black" fill="none" stroke-width="5.0" stroke-linecap="round" stroke-linejoin="round" />
<path d="M 119.0 135.0 L 119.0 135.0 L 120.0 135.0 L 120.0 136.0 L 120.0 144.0 L 119.0 159.0 L 119.0 173.0 L 120.0 183.0 L 122.0 186.0 L 122.0 186.0 " stroke="black" fill="none" stroke-width="5.0" stroke-linecap="round" stroke-linejoin="round" />
<path d="M 122.0 135.0 L 122.0 135.0 L 122.0 136.0 L 121.0 136.0 L 121.0 136.0 L 126.0 136.0 L 135.0 136.0 L 148.0 135.0 L 160.0 134.0 L 169.0 133.0 L 175.0 131.0 L 178.0 131.0 L 178.0 131.0 L 178.0 133.0 L 180.0 139.0 L 183.0 148.0 L 186.0 160.0 L 189.0 171.0 L 189.0 180.0 L 189.0 187.0 L 188.0 192.0 L 184.0 193.0 L 179.0 194.0 L 170.0 191.0 L 163.0 188.0 " stroke="black" fill="none" stroke-width="5.0" stroke-linecap="round" stroke-linejoin="round" />
<path d="M 144.0 137.0 L 144.0 137.0 L 143.0 137.0 L 142.0 137.0 L 143.0 142.0 L 146.0 147.0 L 147.0 148.0 " stroke="black" fill="none" stroke-width="5.0" stroke-linecap="round" stroke-linejoin="round" />
<path d="M 161.0 138.0 L 161.0 138.0 L 161.0 138.0 L 160.0 140.0 L 160.0 142.0 L 159.0 147.0 L 158.0 150.0 " stroke="black" fill="none" stroke-width="5.0" stroke-linecap="round" stroke-linejoin="round" />
<path d="M 133.0 157.0 L 128.0 157.0 L 134.0 157.0 L 137.0 157.0 L 141.0 157.0 L 146.0 157.0 L 154.0 157.0 L 163.0 155.0 L 168.0 154.0 L 168.0 154.0 " stroke="black" fill="none" stroke-width="5.0" stroke-linecap="round" stroke-linejoin="round" />
<path d="M 140.0 174.0 L 140.0 175.0 L 141.0 176.0 L 146.0 176.0 L 154.0 176.0 L 162.0 174.0 L 166.0 173.0 L 167.0 173.0 " stroke="black" fill="none" stroke-width="5.0" stroke-linecap="round" stroke-linejoin="round" />
<path d="M 150.0 168.0 L 150.0 159.0 L 149.0 155.0 L 149.0 158.0 L 151.0 170.0 L 152.0 182.0 L 152.0 188.0 " stroke="black" fill="none" stroke-width="5.0" stroke-linecap="round" stroke-linejoin="round" />
</svg>