<svg xmlns="http://www.w3.org/2000/svg" width="300" height="300" viewBox="0 0 300 300">
<path d="M 120.0 108.0 L 121.0 109.0 L 121.0 110.0 L 121.0 113.0 L 121.0 119.0 L 121.0 125.0 L 122.0 129.0 L 122.0 130.0 " stroke="black" fill="none" stroke-width="5.0" stroke-linecap="round" stroke-linejoin="round" />
<path d="M 109.0 121.0 L 109.0 121.0 L 109.0 121.0 L 110.0 121.0 L 111.0 121.0 L 113.0 121.0 L 117.0 121.0 " stroke="black" fill="none" stroke-width="5.0" stroke-linecap="round" stroke-linejoin="round" />
<path d="M 133.0 111.0 L 133.0 110.0 L 133.0 109.0 L 133.0 109.0 L 133.0 109.0 L 133.0 112.0 L 133.0 117.0 L 133.0 123.0 L 133.0 127.0 L 133.0 129.0 L 133.0 130.0 " stroke="black" fill="none" stroke-width="5.0" stroke-linecap="round" stroke-linejoin="round" />
<path d="M 133.0 117.0 L 133.0 117.0 L 133.0 118.0 L 133.0 118.0 L 135.0 118.0 L 138.0 118.0 L 141.0 118.0 L 143.0 118.0 " stroke="black" fill="none" stroke-width="5.0" stroke-linecap="round" stroke-linejoin="round" />
<path d="M 113.0 139.0 L 113.0 139.0 L 113.0 138.0 L 114.0 138.0 L 114.0 138.0 L 114.0 140.0 L 114.0 143.0 L 114.0 146.0 L 114.0 148.0 L 114.0 148.0 L 114.0 148.0 " stroke="black" fill="none" stroke-width="5.0" stroke-linecap="round" stroke-linejoin="round" />
<path d="M 114.0 140.0 L 114.0 140.0 L 114.0 140.0 L 115.0 139.0 L 115.0 139.0 L 117.0 139.0 L 118.0 139.0 L 120.0 139.0 L 122.0 139.0 L 124.0 141.0 L 126.0 144.0 L 127.0 147.0 L 128.0 149.0 L 128.0 150.0 " stroke="black" fill="none" stroke-width="5.0" stroke-linecap="round" stroke-linejoin="round" />
<path d="M 113.0 150.0 L 114.0 151.0 L 114.0 151.0 L 115.0 152.0 L 117.0 152.0 L 120.0 153.0 L 123.0 153.0 " stroke="black" fill="none" stroke-width="5.0" stroke-linecap="round" stroke-linejoin="round" />
<path d="M 130.0 139.0 L 130.0 139.0 L 129.0 139.0 L 129.0 139.0 L 129.0 141.0 L 129.0 143.0 L 130.0 146.0 L 130.0 148.0 L 130.0 148.0 " stroke="black" fill="none" stroke-width="5.0" stroke-linecap="round" stroke-linejoin="round" />
<path d="M 132.0 137.0 L 132.0 137.0 L 132.0 137.0 L 132.0 137.0 L 133.0 137.0 L 135.0 137.0 L 137.0 137.0 L 140.0 138.0 L 142.0 140.0 L 143.0 144.0 L 144.0 147.0 L 145.0 149.0 " stroke="black" fill="none" stroke-width="5.0" stroke-linecap="round" stroke-linejoin="round" />
<path d="M 129.0 149.0 L 129.0 150.0 L 129.0 150.0 L 129.0 151.0 L 131.0 151.0 L 136.0 151.0 L 141.0 150.0 " stroke="black" fill="none" stroke-width="5.0" stroke-linecap="round" stroke-linejoin="round" />
<path d="M 119.0 158.0 L 119.0 158.0 L 120.0 158.0 L 120.0 159.0 L 120.0 160.0 L 119.0 163.0 L 115.0 169.0 L 110.0 177.0 L 105.0 184.0 L 102.0 188.0 L 102.0 188.0 " stroke="black" fill="none" stroke-width="5.0" stroke-linecap="round" stroke-linejoin="round" />
<path d="M 114.0 169.0 L 114.0 169.0 L 115.0 169.0 L 116.0 170.0 L 116.0 174.0 L 116.0 182.0 L 116.0 189.0 L 116.0 193.0 L 116.0 194.0 " stroke="black" fill="none" stroke-width="5.0" stroke-linecap="round" stroke-linejoin="round" />
<path d="M 128.0 155.0 L 129.0 155.0 L 129.0 155.0 L 130.0 155.0 L 132.0 156.0 L 134.0 157.0 L 136.0 158.0 " stroke="black" fill="none" stroke-width="5.0" stroke-linecap="round" stroke-linejoin="round" />
<path d="M 122.0 165.0 L 123.0 165.0 L 123.0 165.0 L 124.0 166.0 L 127.0 166.0 L 132.0 166.0 L 137.0 166.0 L 141.0 165.0 L 143.0 165.0 L 143.0 165.0 " stroke="black" fill="none" stroke-width="5.0" stroke-linecap="round" stroke-linejoin="round" />
<path d="M 126.0 174.0 L 127.0 174.0 L 128.0 175.0 L 130.0 176.0 L 133.0 176.0 L 137.0 176.0 L 140.0 176.0 L 141.0 176.0 L 141.0 176.0 " stroke="black" fill="none" stroke-width="5.0" stroke-linecap="round" stroke-linejoin="round" />
<path d="M 125.0 182.0 L 126.0 182.0 L 128.0 182.0 L 130.0 182.0 L 135.0 182.0 L 139.0 182.0 L 141.0 182.0 " stroke="black" fill="none" stroke-width="5.0" stroke-linecap="round" stroke-linejoin="round" />
<path d="M 122.0 193.0 L 122.0 193.0 L 124.0 195.0 L 129.0 195.0 L 137.0 195.0 L 145.0 194.0 L 150.0 193.0 L 150.0 193.0 " stroke="black" fill="none" stroke-width="5.0" stroke-linecap="round" stroke-linejoin="round" />
<path d="M 133.0 171.0 L 133.0 172.0 L 133.0 174.0 L 132.0 178.0 L 132.0 185.0 L 132.0 190.0 " stroke="black" fill="none" stroke-width="5.0" stroke-linecap="round" stroke-linejoin="round" />
<path d="M 156.0 114.0 L 156.0 114.0 L 156.0 115.0 L 156.0 117.0 L 156.0 121.0 L 155.0 126.0 L 153.0 133.0 L 151.0 139.0 L 151.0 140.0 " stroke="black" fill="none" stroke-width="5.0" stroke-linecap="round" stroke-linejoin="round" />
<path d="M 155.0 124.0 L 155.0 124.0 L 155.0 124.0 L 155.0 124.0 L 158.0 124.0 L 163.0 124.0 L 169.0 124.0 L 175.0 124.0 L 178.0 124.0 L 179.0 127.0 L 180.0 131.0 L 179.0 135.0 L 178.0 139.0 L 178.0 140.0 " stroke="black" fill="none" stroke-width="5.0" stroke-linecap="round" stroke-linejoin="round" />
<path d="M 164.0 134.0 L 164.0 134.0 L 164.0 134.0 L 164.0 135.0 L 164.0 137.0 L 164.0 144.0 L 164.0 156.0 L 162.0 170.0 L 161.0 182.0 L 160.0 188.0 L 160.0 189.0 " stroke="black" fill="none" stroke-width="5.0" stroke-linecap="round" stroke-linejoin="round" />
<path d="M 164.0 154.0 L 165.0 155.0 L 167.0 157.0 L 171.0 163.0 L 177.0 172.0 L 184.0 183.0 L 190.0 190.0 L 193.0 193.0 L 194.0 195.0 L 194.0 195.0 L 194.0 195.0 " stroke="black" fill="none" stroke-width="5.0" stroke-linecap="round" stroke-linejoin="round" />
</svg>