<svg xmlns="http://www.w3.org/2000/svg" width="300" height="300" viewBox="0 0 300 300">
<path d="M 121.0 110.0 L 121.0 110.0 L 121.0 110.0 L 121.0 110.0 L 121.0 110.0 L 121.0 114.0 L 122.0 122.0 L 122.0 129.0 L 122.0 134.0 " stroke="black" fill="none" stroke-width="5.0" stroke-linecap="round" stroke-linejoin="round" />
<path d="M 110.0 120.0 L 111.0 120.0 L 111.0 120.0 L 112.0 121.0 L 113.0 121.0 L 116.0 121.0 L 119.0 121.0 L 120.0 121.0 " stroke="black" fill="none" stroke-width="5.0" stroke-linecap="round" stroke-linejoin="round" />
<path d="M 131.0 111.0 L 131.0 111.0 L 131.0 111.0 L 131.0 111.0 L 131.0 111.0 L 132.0 117.0 L 134.0 126.0 L 135.0 134.0 L 135.0 138.0 " stroke="black" fill="none" stroke-width="5.0" stroke-linecap="round" stroke-linejoin="round" />
<path d="M 135.0 122.0 L 135.0 122.0 L 134.0 123.0 L 134.0 123.0 L 134.0 124.0 L 137.0 124.0 L 141.0 123.0 L 144.0 123.0 L 145.0 122.0 " stroke="black" fill="none" stroke-width="5.0" stroke-linecap="round" stroke-linejoin="round" />
<path d="M 111.0 137.0 L 111.0 137.0 L 111.0 137.0 L 111.0 137.0 L 111.0 138.0 L 111.0 141.0 L 111.0 144.0 L 111.0 147.0 L 111.0 148.0 " stroke="black" fill="none" stroke-width="5.0" stroke-linecap="round" stroke-linejoin="round" />
<path d="M 113.0 139.0 L 113.0 139.0 L 114.0 139.0 L 114.0 139.0 L 115.0 138.0 L 116.0 138.0 L 118.0 138.0 L 121.0 139.0 L 124.0 141.0 L 126.0 144.0 L 127.0 148.0 L 127.0 150.0 " stroke="black" fill="none" stroke-width="5.0" stroke-linecap="round" stroke-linejoin="round" />
<path d="M 112.0 150.0 L 112.0 150.0 L 112.0 151.0 L 113.0 151.0 L 115.0 152.0 L 119.0 152.0 L 124.0 152.0 " stroke="black" fill="none" stroke-width="5.0" stroke-linecap="round" stroke-linejoin="round" />
<path d="M 131.0 140.0 L 131.0 140.0 L 131.0 140.0 L 130.0 140.0 L 130.0 141.0 L 130.0 143.0 L 131.0 146.0 L 131.0 149.0 " stroke="black" fill="none" stroke-width="5.0" stroke-linecap="round" stroke-linejoin="round" />
<path d="M 131.0 140.0 L 131.0 140.0 L 132.0 141.0 L 133.0 141.0 L 135.0 141.0 L 138.0 141.0 L 142.0 141.0 L 144.0 143.0 L 145.0 147.0 L 145.0 150.0 L 145.0 152.0 " stroke="black" fill="none" stroke-width="5.0" stroke-linecap="round" stroke-linejoin="round" />
<path d="M 130.0 151.0 L 130.0 151.0 L 130.0 151.0 L 131.0 151.0 L 133.0 152.0 L 138.0 152.0 L 139.0 153.0 " stroke="black" fill="none" stroke-width="5.0" stroke-linecap="round" stroke-linejoin="round" />
<path d="M 120.0 156.0 L 120.0 156.0 L 120.0 156.0 L 120.0 157.0 L 119.0 161.0 L 115.0 167.0 L 110.0 176.0 L 103.0 183.0 L 100.0 185.0 " stroke="black" fill="none" stroke-width="5.0" stroke-linecap="round" stroke-linejoin="round" />
<path d="M 113.0 168.0 L 113.0 168.0 L 113.0 168.0 L 114.0 168.0 L 114.0 172.0 L 115.0 181.0 L 116.0 193.0 L 117.0 201.0 L 118.0 203.0 " stroke="black" fill="none" stroke-width="5.0" stroke-linecap="round" stroke-linejoin="round" />
<path d="M 130.0 158.0 L 130.0 158.0 L 130.0 158.0 L 131.0 158.0 L 133.0 159.0 L 137.0 161.0 L 141.0 164.0 L 144.0 166.0 " stroke="black" fill="none" stroke-width="5.0" stroke-linecap="round" stroke-linejoin="round" />
<path d="M 127.0 166.0 L 127.0 167.0 L 129.0 167.0 L 132.0 168.0 L 136.0 168.0 L 141.0 168.0 L 146.0 168.0 L 149.0 168.0 L 149.0 168.0 " stroke="black" fill="none" stroke-width="5.0" stroke-linecap="round" stroke-linejoin="round" />
<path d="M 128.0 178.0 L 128.0 178.0 L 128.0 178.0 L 130.0 179.0 L 134.0 179.0 L 140.0 180.0 L 145.0 180.0 L 147.0 180.0 " stroke="black" fill="none" stroke-width="5.0" stroke-linecap="round" stroke-linejoin="round" />
<path d="M 130.0 189.0 L 131.0 189.0 L 132.0 190.0 L 135.0 190.0 L 140.0 191.0 L 145.0 192.0 L 147.0 192.0 " stroke="black" fill="none" stroke-width="5.0" stroke-linecap="round" stroke-linejoin="round" />
<path d="M 121.0 201.0 L 124.0 203.0 L 130.0 204.0 L 137.0 205.0 L 144.0 205.0 L 147.0 205.0 " stroke="black" fill="none" stroke-width="5.0" stroke-linecap="round" stroke-linejoin="round" />
<path d="M 138.0 176.0 L 138.0 180.0 L 138.0 185.0 L 138.0 191.0 L 139.0 194.0 " stroke="black" fill="none" stroke-width="5.0" stroke-linecap="round" stroke-linejoin="round" />
<path d="M 157.0 111.0 L 157.0 111.0 L 157.0 111.0 L 157.0 111.0 L 157.0 115.0 L 156.0 123.0 L 154.0 133.0 L 153.0 139.0 L 153.0 140.0 " stroke="black" fill="none" stroke-width="5.0" stroke-linecap="round" stroke-linejoin="round" />
<path d="M 158.0 120.0 L 158.0 120.0 L 159.0 120.0 L 161.0 120.0 L 164.0 120.0 L 169.0 120.0 L 174.0 120.0 L 178.0 121.0 L 181.0 122.0 L 183.0 126.0 L 183.0 131.0 L 183.0 137.0 L 183.0 141.0 L 183.0 142.0 " stroke="black" fill="none" stroke-width="5.0" stroke-linecap="round" stroke-linejoin="round" />
<path d="M 165.0 131.0 L 165.0 131.0 L 165.0 132.0 L 165.0 133.0 L 165.0 138.0 L 165.0 149.0 L 165.0 165.0 L 163.0 183.0 L 160.0 200.0 L 157.0 210.0 L 157.0 212.0 " stroke="black" fill="none" stroke-width="5.0" stroke-linecap="round" stroke-linejoin="round" />
<path d="M 166.0 170.0 L 168.0 171.0 L 170.0 173.0 L 174.0 177.0 L 180.0 186.0 L 188.0 195.0 L 193.0 199.0 L 196.0 201.0 " stroke="black" fill="none" stroke-width="5.0" stroke-linecap="round" stroke-linejoin="round" />
</svg>