<svg xmlns="http://www.w3.org/2000/svg" width="300" height="300" viewBox="0 0 300 300">
<path d="M 127.0 104.0 L 127.0 104.0 L 127.0 104.0 L 128.0 104.0 L 128.0 104.0 L 128.0 104.0 L 128.0 105.0 L 127.0 109.0 L 125.0 114.0 L 124.0 117.0 L 124.0 119.0 L 126.0 119.0 L 130.0 117.0 L 134.0 116.0 L 138.0 115.0 L 140.0 115.0 L 142.0 115.0 L 143.0 118.0 L 144.0 125.0 L 145.0 137.0 L 147.0 151.0 L 148.0 161.0 L 149.0 166.0 L 149.0 167.0 L 146.0 167.0 L 141.0 165.0 L 135.0 163.0 " stroke="black" fill="none" stroke-width="5.0" stroke-linecap="round" stroke-linejoin="round" />
<path d="M 124.0 119.0 L 124.0 120.0 L 124.0 122.0 L 124.0 128.0 L 124.0 137.0 L 122.0 147.0 L 121.0 152.0 L 120.0 154.0 " stroke="black" fill="none" stroke-width="5.0" stroke-linecap="round" stroke-linejoin="round" />
<path d="M 109.0 137.0 L 110.0 137.0 L 110.0 137.0 L 112.0 137.0 L 120.0 137.0 L 133.0 137.0 L 146.0 137.0 L 153.0 137.0 L 154.0 137.0 " stroke="black" fill="none" stroke-width="5.0" stroke-linecap="round" stroke-linejoin="round" />
<path d="M 133.0 123.0 L 133.0 124.0 L 133.0 125.0 L 133.0 126.0 L 133.0 130.0 L 133.0 133.0 " stroke="black" fill="none" stroke-width="5.0" stroke-linecap="round" stroke-linejoin="round" />
<path d="M 136.0 141.0 L 136.0 141.0 L 136.0 142.0 L 136.0 144.0 L 137.0 147.0 L 138.0 148.0 " stroke="black" fill="none" stroke-width="5.0" stroke-linecap="round" stroke-linejoin="round" />
<path d="M 158.0 112.0 L 158.0 112.0 L 158.0 113.0 L 158.0 115.0 L 158.0 121.0 L 158.0 127.0 L 158.0 132.0 L 158.0 133.0 " stroke="black" fill="none" stroke-width="5.0" stroke-linecap="round" stroke-linejoin="round" />
<path d="M 160.0 111.0 L 160.0 111.0 L 161.0 111.0 L 161.0 111.0 L 162.0 111.0 L 163.0 111.0 L 166.0 111.0 L 169.0 112.0 L 171.0 115.0 L 173.0 120.0 L 176.0 126.0 L 180.0 130.0 L 184.0 131.0 L 186.0 131.0 " stroke="black" fill="none" stroke-width="5.0" stroke-linecap="round" stroke-linejoin="round" />
<path d="M 161.0 139.0 L 161.0 139.0 L 161.0 139.0 L 163.0 140.0 L 166.0 140.0 L 170.0 140.0 L 174.0 140.0 L 176.0 141.0 L 176.0 146.0 L 172.0 153.0 L 168.0 158.0 L 164.0 161.0 L 163.0 162.0 " stroke="black" fill="none" stroke-width="5.0" stroke-linecap="round" stroke-linejoin="round" />
<path d="M 159.0 144.0 L 160.0 144.0 L 161.0 145.0 L 165.0 147.0 L 170.0 151.0 L 177.0 154.0 L 181.0 155.0 " stroke="black" fill="none" stroke-width="5.0" stroke-linecap="round" stroke-linejoin="round" />
<path d="M 122.0 183.0 L 122.0 185.0 L 123.0 188.0 L 124.0 193.0 L 125.0 197.0 L 127.0 199.0 " stroke="black" fill="none" stroke-width="5.0" stroke-linecap="round" stroke-linejoin="round" />
<path d="M 123.0 180.0 L 123.0 180.0 L 124.0 180.0 L 127.0 180.0 L 137.0 179.0 L 151.0 178.0 L 164.0 178.0 L 172.0 179.0 L 176.0 181.0 L 178.0 184.0 L 178.0 187.0 L 178.0 192.0 L 177.0 197.0 L 175.0 199.0 " stroke="black" fill="none" stroke-width="5.0" stroke-linecap="round" stroke-linejoin="round" />
<path d="M 143.0 179.0 L 143.0 180.0 L 144.0 182.0 L 144.0 185.0 L 146.0 190.0 L 146.0 191.0 " stroke="black" fill="none" stroke-width="5.0" stroke-linecap="round" stroke-linejoin="round" />
<path d="M 159.0 182.0 L 159.0 184.0 L 159.0 187.0 L 159.0 190.0 L 158.0 192.0 " stroke="black" fill="none" stroke-width="5.0" stroke-linecap="round" stroke-linejoin="round" />
<path d="M 110.0 202.0 L 111.0 202.0 L 113.0 202.0 L 122.0 202.0 L 140.0 202.0 L 159.0 202.0 L 176.0 202.0 L 187.0 202.0 L 192.0 201.0 L 193.0 201.0 L 193.0 201.0 L 193.0 201.0 L 193.0 200.0 " stroke="black" fill="none" stroke-width="5.0" stroke-linecap="round" stroke-linejoin="round" />
</svg>