<svg xmlns="http://www.w3.org/2000/svg" width="300" height="300" viewBox="0 0 300 300">
<path d="M 132.0 107.0 L 132.0 107.0 L 132.0 107.0 L 133.0 107.0 L 133.0 107.0 L 133.0 108.0 L 132.0 113.0 L 128.0 122.0 L 120.0 137.0 L 110.0 154.0 L 103.0 165.0 L 98.0 170.0 L 98.0 171.0 " stroke="black" fill="none" stroke-width="5.0" stroke-linecap="round" stroke-linejoin="round" />
<path d="M 120.0 142.0 L 120.0 142.0 L 120.0 142.0 L 121.0 143.0 L 121.0 149.0 L 121.0 160.0 L 121.0 175.0 L 120.0 185.0 L 120.0 189.0 " stroke="black" fill="none" stroke-width="5.0" stroke-linecap="round" stroke-linejoin="round" />
<path d="M 151.0 106.0 L 151.0 106.0 L 151.0 106.0 L 151.0 106.0 L 151.0 106.0 L 150.0 110.0 L 147.0 118.0 L 141.0 133.0 L 137.0 143.0 " stroke="black" fill="none" stroke-width="5.0" stroke-linecap="round" stroke-linejoin="round" />
<path d="M 147.0 123.0 L 147.0 123.0 L 147.0 123.0 L 147.0 123.0 L 150.0 123.0 L 156.0 123.0 L 163.0 122.0 L 169.0 122.0 L 170.0 122.0 " stroke="black" fill="none" stroke-width="5.0" stroke-linecap="round" stroke-linejoin="round" />
<path d="M 154.0 128.0 L 154.0 128.0 L 154.0 129.0 L 154.0 133.0 L 154.0 143.0 L 155.0 160.0 L 156.0 174.0 L 156.0 182.0 L 156.0 184.0 " stroke="black" fill="none" stroke-width="5.0" stroke-linecap="round" stroke-linejoin="round" />
<path d="M 157.0 146.0 L 157.0 146.0 L 157.0 146.0 L 159.0 146.0 L 164.0 146.0 L 170.0 146.0 L 174.0 146.0 L 177.0 147.0 L 178.0 147.0 " stroke="black" fill="none" stroke-width="5.0" stroke-linecap="round" stroke-linejoin="round" />
<path d="M 156.0 164.0 L 156.0 164.0 L 156.0 164.0 L 157.0 164.0 L 163.0 165.0 L 174.0 165.0 L 186.0 165.0 " stroke="black" fill="none" stroke-width="5.0" stroke-linecap="round" stroke-linejoin="round" />
</svg>