<svg xmlns="http://www.w3.org/2000/svg" width="300" height="300" viewBox="0 0 300 300">
<path d="M 134.0 111.0 L 134.0 111.0 L 133.0 114.0 L 132.0 118.0 L 130.0 124.0 L 126.0 133.0 L 119.0 145.0 L 109.0 160.0 L 101.0 169.0 " stroke="black" fill="none" stroke-width="5.0" stroke-linecap="round" stroke-linejoin="round" />
<path d="M 123.0 142.0 L 123.0 142.0 L 123.0 143.0 L 122.0 144.0 L 122.0 146.0 L 122.0 152.0 L 123.0 166.0 L 123.0 182.0 L 123.0 193.0 L 123.0 194.0 " stroke="black" fill="none" stroke-width="5.0" stroke-linecap="round" stroke-linejoin="round" />
<path d="M 154.0 116.0 L 154.0 116.0 L 154.0 116.0 L 153.0 116.0 L 153.0 118.0 L 151.0 126.0 L 146.0 138.0 L 139.0 151.0 L 137.0 154.0 " stroke="black" fill="none" stroke-width="5.0" stroke-linecap="round" stroke-linejoin="round" />
<path d="M 151.0 135.0 L 151.0 135.0 L 151.0 135.0 L 152.0 135.0 L 158.0 133.0 L 167.0 133.0 L 174.0 133.0 L 179.0 133.0 L 179.0 134.0 L 179.0 135.0 " stroke="black" fill="none" stroke-width="5.0" stroke-linecap="round" stroke-linejoin="round" />
<path d="M 159.0 139.0 L 159.0 139.0 L 158.0 139.0 L 158.0 141.0 L 159.0 149.0 L 162.0 163.0 L 163.0 178.0 L 164.0 188.0 L 165.0 192.0 L 165.0 191.0 L 165.0 191.0 " stroke="black" fill="none" stroke-width="5.0" stroke-linecap="round" stroke-linejoin="round" />
<path d="M 161.0 156.0 L 162.0 157.0 L 162.0 158.0 L 163.0 159.0 L 167.0 159.0 L 173.0 157.0 L 181.0 156.0 L 186.0 155.0 L 188.0 155.0 L 188.0 155.0 " stroke="black" fill="none" stroke-width="5.0" stroke-linecap="round" stroke-linejoin="round" />
<path d="M 165.0 173.0 L 165.0 174.0 L 166.0 174.0 L 169.0 175.0 L 176.0 175.0 L 185.0 174.0 L 193.0 173.0 " stroke="black" fill="none" stroke-width="5.0" stroke-linecap="round" stroke-linejoin="round" />
</svg>