<svg xmlns="http://www.w3.org/2000/svg" width="300" height="300" viewBox="0 0 300 300">
<path d="M 118.0 104.0 L 119.0 104.0 L 119.0 104.0 L 119.0 104.0 L 119.0 104.0 L 119.0 105.0 L 119.0 110.0 L 117.0 118.0 L 113.0 128.0 L 110.0 135.0 L 109.0 137.0 " stroke="black" fill="none" stroke-width="5.0" stroke-linecap="round" stroke-linejoin="round" />
<path d="M 118.0 118.0 L 118.0 118.0 L 118.0 118.0 L 118.0 118.0 L 118.0 118.0 L 120.0 118.0 L 124.0 118.0 L 130.0 117.0 L 136.0 116.0 L 139.0 115.0 " stroke="black" fill="none" stroke-width="5.0" stroke-linecap="round" stroke-linejoin="round" />
<path d="M 123.0 125.0 L 124.0 125.0 L 124.0 126.0 L 126.0 127.0 L 127.0 129.0 L 130.0 132.0 L 133.0 134.0 L 134.0 135.0 " stroke="black" fill="none" stroke-width="5.0" stroke-linecap="round" stroke-linejoin="round" />
<path d="M 151.0 102.0 L 151.0 102.0 L 151.0 102.0 L 151.0 102.0 L 150.0 105.0 L 150.0 112.0 L 149.0 122.0 L 147.0 130.0 L 146.0 133.0 L 146.0 133.0 " stroke="black" fill="none" stroke-width="5.0" stroke-linecap="round" stroke-linejoin="round" />
<path d="M 150.0 115.0 L 150.0 115.0 L 150.0 115.0 L 150.0 115.0 L 153.0 115.0 L 158.0 114.0 L 164.0 113.0 L 167.0 113.0 L 168.0 113.0 " stroke="black" fill="none" stroke-width="5.0" stroke-linecap="round" stroke-linejoin="round" />
<path d="M 158.0 119.0 L 158.0 119.0 L 159.0 121.0 L 161.0 123.0 L 164.0 127.0 L 166.0 128.0 " stroke="black" fill="none" stroke-width="5.0" stroke-linecap="round" stroke-linejoin="round" />
<path d="M 117.0 146.0 L 118.0 146.0 L 119.0 146.0 L 120.0 146.0 L 122.0 146.0 L 124.0 146.0 L 128.0 146.0 L 131.0 146.0 L 134.0 146.0 L 136.0 146.0 L 138.0 146.0 L 139.0 146.0 L 139.0 149.0 L 140.0 153.0 L 140.0 157.0 L 140.0 161.0 L 140.0 163.0 " stroke="black" fill="none" stroke-width="5.0" stroke-linecap="round" stroke-linejoin="round" />
<path d="M 118.0 156.0 L 119.0 156.0 L 120.0 156.0 L 121.0 157.0 L 123.0 157.0 L 127.0 157.0 L 132.0 157.0 L 136.0 157.0 L 137.0 157.0 " stroke="black" fill="none" stroke-width="5.0" stroke-linecap="round" stroke-linejoin="round" />
<path d="M 113.0 167.0 L 113.0 167.0 L 113.0 167.0 L 113.0 168.0 L 116.0 168.0 L 124.0 168.0 L 132.0 168.0 L 139.0 167.0 L 141.0 167.0 " stroke="black" fill="none" stroke-width="5.0" stroke-linecap="round" stroke-linejoin="round" />
<path d="M 117.0 150.0 L 117.0 150.0 L 117.0 150.0 L 116.0 150.0 L 115.0 150.0 L 115.0 155.0 L 115.0 166.0 L 114.0 180.0 L 114.0 192.0 L 114.0 198.0 L 117.0 201.0 L 122.0 201.0 L 127.0 198.0 L 133.0 194.0 L 137.0 191.0 L 137.0 191.0 " stroke="black" fill="none" stroke-width="5.0" stroke-linecap="round" stroke-linejoin="round" />
<path d="M 135.0 181.0 L 136.0 181.0 L 137.0 184.0 L 139.0 189.0 L 143.0 194.0 L 146.0 198.0 " stroke="black" fill="none" stroke-width="5.0" stroke-linecap="round" stroke-linejoin="round" />
<path d="M 151.0 144.0 L 151.0 144.0 L 151.0 144.0 L 151.0 144.0 L 152.0 144.0 L 155.0 144.0 L 160.0 143.0 L 164.0 143.0 L 168.0 143.0 L 171.0 143.0 L 174.0 145.0 L 177.0 150.0 L 179.0 155.0 L 181.0 161.0 L 181.0 164.0 L 180.0 165.0 L 177.0 166.0 L 172.0 165.0 L 165.0 162.0 " stroke="black" fill="none" stroke-width="5.0" stroke-linecap="round" stroke-linejoin="round" />
<path d="M 152.0 143.0 L 152.0 143.0 L 152.0 143.0 L 152.0 143.0 L 153.0 148.0 L 155.0 160.0 L 157.0 178.0 L 158.0 192.0 L 158.0 200.0 L 159.0 203.0 L 159.0 202.0 " stroke="black" fill="none" stroke-width="5.0" stroke-linecap="round" stroke-linejoin="round" />
</svg>