<svg xmlns="http://www.w3.org/2000/svg" width="300" height="300" viewBox="0 0 300 300">
<path d="M 114.0 124.0 L 114.0 124.0 L 114.0 125.0 L 115.0 127.0 L 116.0 131.0 L 119.0 136.0 " stroke="black" fill="none" stroke-width="5.0" stroke-linecap="round" stroke-linejoin="round" />
<path d="M 107.0 150.0 L 107.0 150.0 L 107.0 150.0 L 108.0 150.0 L 109.0 150.0 L 111.0 150.0 L 113.0 150.0 L 114.0 152.0 L 114.0 154.0 L 114.0 156.0 L 112.0 158.0 L 111.0 160.0 L 110.0 162.0 L 110.0 165.0 L 110.0 168.0 L 111.0 172.0 L 111.0 177.0 L 112.0 180.0 L 113.0 181.0 " stroke="black" fill="none" stroke-width="5.0" stroke-linecap="round" stroke-linejoin="round" />
<path d="M 98.0 189.0 L 98.0 189.0 L 99.0 187.0 L 101.0 185.0 L 105.0 183.0 L 110.0 182.0 L 116.0 182.0 L 124.0 184.0 L 133.0 187.0 L 144.0 191.0 L 156.0 195.0 L 168.0 197.0 L 180.0 198.0 L 189.0 197.0 L 190.0 196.0 " stroke="black" fill="none" stroke-width="5.0" stroke-linecap="round" stroke-linejoin="round" />
<path d="M 144.0 119.0 L 144.0 119.0 L 144.0 118.0 L 144.0 118.0 L 144.0 117.0 L 144.0 117.0 L 144.0 117.0 L 143.0 120.0 L 141.0 124.0 L 138.0 128.0 L 135.0 132.0 L 133.0 136.0 L 132.0 139.0 L 132.0 143.0 L 132.0 148.0 L 132.0 152.0 L 133.0 157.0 L 134.0 160.0 L 134.0 162.0 L 136.0 163.0 L 141.0 161.0 L 147.0 156.0 L 148.0 154.0 " stroke="black" fill="none" stroke-width="5.0" stroke-linecap="round" stroke-linejoin="round" />
<path d="M 162.0 126.0 L 162.0 126.0 L 162.0 126.0 L 163.0 126.0 L 166.0 126.0 L 169.0 126.0 L 172.0 126.0 L 175.0 126.0 L 177.0 127.0 L 179.0 131.0 L 180.0 137.0 L 181.0 144.0 L 181.0 149.0 L 181.0 151.0 L 180.0 151.0 L 178.0 151.0 L 175.0 151.0 L 171.0 151.0 " stroke="black" fill="none" stroke-width="5.0" stroke-linecap="round" stroke-linejoin="round" />
<path d="M 161.0 127.0 L 161.0 129.0 L 161.0 134.0 L 161.0 142.0 L 162.0 154.0 L 164.0 168.0 L 165.0 179.0 L 166.0 185.0 L 167.0 187.0 L 167.0 187.0 " stroke="black" fill="none" stroke-width="5.0" stroke-linecap="round" stroke-linejoin="round" />
</svg>