<svg xmlns="http://www.w3.org/2000/svg" width="300" height="300" viewBox="0 0 300 300">
<path d="M 117.0 118.0 L 117.0 118.0 L 117.0 118.0 L 119.0 120.0 L 123.0 123.0 L 126.0 125.0 " stroke="black" fill="none" stroke-width="5.0" stroke-linecap="round" stroke-linejoin="round" />
<path d="M 109.0 146.0 L 109.0 146.0 L 110.0 145.0 L 111.0 145.0 L 114.0 146.0 L 119.0 148.0 L 121.0 148.0 " stroke="black" fill="none" stroke-width="5.0" stroke-linecap="round" stroke-linejoin="round" />
<path d="M 98.0 186.0 L 98.0 186.0 L 97.0 186.0 L 97.0 186.0 L 101.0 185.0 L 114.0 180.0 L 122.0 176.0 " stroke="black" fill="none" stroke-width="5.0" stroke-linecap="round" stroke-linejoin="round" />
<path d="M 150.0 114.0 L 150.0 114.0 L 150.0 114.0 L 150.0 114.0 L 150.0 114.0 L 150.0 115.0 L 150.0 119.0 L 151.0 125.0 L 151.0 131.0 L 152.0 136.0 L 155.0 137.0 L 160.0 138.0 L 165.0 137.0 L 169.0 136.0 " stroke="black" fill="none" stroke-width="5.0" stroke-linecap="round" stroke-linejoin="round" />
<path d="M 165.0 115.0 L 165.0 115.0 L 165.0 116.0 L 165.0 116.0 L 165.0 117.0 L 166.0 121.0 L 167.0 128.0 L 168.0 135.0 L 168.0 136.0 " stroke="black" fill="none" stroke-width="5.0" stroke-linecap="round" stroke-linejoin="round" />
<path d="M 141.0 125.0 L 141.0 125.0 L 141.0 125.0 L 142.0 126.0 L 147.0 126.0 L 160.0 126.0 L 173.0 124.0 L 181.0 124.0 L 182.0 124.0 " stroke="black" fill="none" stroke-width="5.0" stroke-linecap="round" stroke-linejoin="round" />
<path d="M 138.0 149.0 L 138.0 149.0 L 138.0 149.0 L 138.0 149.0 L 138.0 150.0 L 139.0 153.0 L 140.0 156.0 L 140.0 157.0 " stroke="black" fill="none" stroke-width="5.0" stroke-linecap="round" stroke-linejoin="round" />
<path d="M 139.0 148.0 L 139.0 148.0 L 139.0 148.0 L 139.0 148.0 L 141.0 148.0 L 149.0 148.0 L 160.0 148.0 L 170.0 148.0 L 176.0 148.0 L 178.0 148.0 L 178.0 149.0 L 179.0 153.0 L 179.0 158.0 L 179.0 163.0 L 179.0 165.0 " stroke="black" fill="none" stroke-width="5.0" stroke-linecap="round" stroke-linejoin="round" />
<path d="M 143.0 160.0 L 143.0 160.0 L 143.0 161.0 L 144.0 161.0 L 148.0 161.0 L 156.0 161.0 L 167.0 161.0 L 176.0 161.0 L 181.0 161.0 L 181.0 161.0 L 181.0 162.0 " stroke="black" fill="none" stroke-width="5.0" stroke-linecap="round" stroke-linejoin="round" />
<path d="M 145.0 167.0 L 145.0 167.0 L 145.0 167.0 L 145.0 167.0 L 148.0 167.0 L 154.0 167.0 L 161.0 167.0 L 167.0 168.0 L 169.0 168.0 L 168.0 169.0 " stroke="black" fill="none" stroke-width="5.0" stroke-linecap="round" stroke-linejoin="round" />
<path d="M 147.0 177.0 L 147.0 177.0 L 149.0 177.0 L 151.0 177.0 L 155.0 177.0 L 162.0 177.0 L 168.0 178.0 L 170.0 180.0 L 170.0 181.0 " stroke="black" fill="none" stroke-width="5.0" stroke-linecap="round" stroke-linejoin="round" />
<path d="M 136.0 188.0 L 137.0 188.0 L 141.0 188.0 L 148.0 189.0 L 158.0 189.0 L 169.0 189.0 L 175.0 189.0 " stroke="black" fill="none" stroke-width="5.0" stroke-linecap="round" stroke-linejoin="round" />
<path d="M 158.0 140.0 L 158.0 140.0 L 158.0 140.0 L 158.0 140.0 L 158.0 144.0 L 157.0 157.0 L 152.0 179.0 L 145.0 199.0 L 140.0 210.0 L 138.0 213.0 " stroke="black" fill="none" stroke-width="5.0" stroke-linecap="round" stroke-linejoin="round" />
<path d="M 161.0 197.0 L 161.0 197.0 L 162.0 197.0 L 164.0 199.0 L 169.0 204.0 L 177.0 210.0 L 184.0 216.0 " stroke="black" fill="none" stroke-width="5.0" stroke-linecap="round" stroke-linejoin="round" />
</svg>