<svg xmlns="http://www.w3.org/2000/svg" width="300" height="300" viewBox="0 0 300 300">
<path d="M 118.0 117.0 L 119.0 117.0 L 120.0 119.0 L 123.0 121.0 L 127.0 123.0 L 132.0 125.0 " stroke="black" fill="none" stroke-width="5.0" stroke-linecap="round" stroke-linejoin="round" />
<path d="M 110.0 146.0 L 111.0 146.0 L 111.0 146.0 L 114.0 146.0 L 121.0 146.0 L 127.0 146.0 " stroke="black" fill="none" stroke-width="5.0" stroke-linecap="round" stroke-linejoin="round" />
<path d="M 104.0 183.0 L 105.0 183.0 L 107.0 183.0 L 112.0 183.0 L 124.0 178.0 " stroke="black" fill="none" stroke-width="5.0" stroke-linecap="round" stroke-linejoin="round" />
<path d="M 149.0 109.0 L 149.0 109.0 L 149.0 109.0 L 149.0 109.0 L 149.0 111.0 L 149.0 115.0 L 148.0 122.0 L 148.0 130.0 L 148.0 135.0 L 150.0 137.0 L 154.0 137.0 L 159.0 136.0 L 162.0 135.0 L 162.0 135.0 " stroke="black" fill="none" stroke-width="5.0" stroke-linecap="round" stroke-linejoin="round" />
<path d="M 162.0 110.0 L 162.0 111.0 L 162.0 114.0 L 162.0 120.0 L 163.0 127.0 L 163.0 132.0 " stroke="black" fill="none" stroke-width="5.0" stroke-linecap="round" stroke-linejoin="round" />
<path d="M 140.0 120.0 L 140.0 120.0 L 139.0 120.0 L 139.0 120.0 L 141.0 120.0 L 147.0 120.0 L 159.0 120.0 L 170.0 120.0 L 175.0 120.0 " stroke="black" fill="none" stroke-width="5.0" stroke-linecap="round" stroke-linejoin="round" />
<path d="M 140.0 145.0 L 140.0 145.0 L 140.0 146.0 L 140.0 150.0 L 140.0 154.0 L 141.0 156.0 " stroke="black" fill="none" stroke-width="5.0" stroke-linecap="round" stroke-linejoin="round" />
<path d="M 140.0 146.0 L 140.0 145.0 L 140.0 144.0 L 142.0 144.0 L 147.0 143.0 L 155.0 142.0 L 165.0 140.0 L 173.0 140.0 L 176.0 143.0 L 176.0 149.0 L 176.0 154.0 L 176.0 156.0 " stroke="black" fill="none" stroke-width="5.0" stroke-linecap="round" stroke-linejoin="round" />
<path d="M 144.0 156.0 L 144.0 156.0 L 143.0 157.0 L 143.0 157.0 L 147.0 157.0 L 155.0 157.0 L 165.0 157.0 L 173.0 157.0 L 177.0 156.0 " stroke="black" fill="none" stroke-width="5.0" stroke-linecap="round" stroke-linejoin="round" />
<path d="M 145.0 165.0 L 145.0 165.0 L 145.0 166.0 L 145.0 166.0 L 148.0 167.0 L 154.0 167.0 L 161.0 167.0 L 166.0 167.0 L 168.0 167.0 " stroke="black" fill="none" stroke-width="5.0" stroke-linecap="round" stroke-linejoin="round" />
<path d="M 146.0 175.0 L 146.0 175.0 L 147.0 176.0 L 149.0 176.0 L 154.0 176.0 L 160.0 176.0 L 163.0 176.0 " stroke="black" fill="none" stroke-width="5.0" stroke-linecap="round" stroke-linejoin="round" />
<path d="M 137.0 185.0 L 137.0 186.0 L 138.0 186.0 L 143.0 187.0 L 151.0 187.0 L 162.0 187.0 L 172.0 185.0 " stroke="black" fill="none" stroke-width="5.0" stroke-linecap="round" stroke-linejoin="round" />
<path d="M 157.0 142.0 L 157.0 142.0 L 158.0 142.0 L 159.0 144.0 L 159.0 150.0 L 159.0 163.0 L 155.0 180.0 L 150.0 196.0 L 145.0 205.0 " stroke="black" fill="none" stroke-width="5.0" stroke-linecap="round" stroke-linejoin="round" />
<path d="M 164.0 192.0 L 164.0 192.0 L 164.0 192.0 L 165.0 192.0 L 166.0 193.0 L 170.0 197.0 L 176.0 203.0 L 180.0 207.0 " stroke="black" fill="none" stroke-width="5.0" stroke-linecap="round" stroke-linejoin="round" />
</svg>