<svg xmlns="http://www.w3.org/2000/svg" width="300" height="300" viewBox="0 0 300 300">
<path d="M 114.0 120.0 L 114.0 120.0 L 114.0 120.0 L 114.0 120.0 L 115.0 121.0 L 120.0 122.0 L 123.0 123.0 " stroke="black" fill="none" stroke-width="5.0" stroke-linecap="round" stroke-linejoin="round" />
<path d="M 110.0 142.0 L 110.0 142.0 L 111.0 142.0 L 112.0 142.0 L 115.0 143.0 L 121.0 146.0 L 123.0 147.0 " stroke="black" fill="none" stroke-width="5.0" stroke-linecap="round" stroke-linejoin="round" />
<path d="M 102.0 182.0 L 102.0 182.0 L 103.0 182.0 L 104.0 182.0 L 110.0 181.0 L 121.0 176.0 L 128.0 173.0 " stroke="black" fill="none" stroke-width="5.0" stroke-linecap="round" stroke-linejoin="round" />
<path d="M 149.0 107.0 L 149.0 106.0 L 149.0 105.0 L 149.0 104.0 L 149.0 104.0 L 149.0 106.0 L 149.0 110.0 L 149.0 116.0 L 149.0 123.0 L 149.0 129.0 L 150.0 131.0 L 153.0 132.0 L 157.0 132.0 L 162.0 131.0 L 163.0 130.0 " stroke="black" fill="none" stroke-width="5.0" stroke-linecap="round" stroke-linejoin="round" />
<path d="M 163.0 108.0 L 163.0 108.0 L 163.0 108.0 L 163.0 107.0 L 163.0 107.0 L 164.0 110.0 L 164.0 116.0 L 165.0 122.0 L 165.0 124.0 " stroke="black" fill="none" stroke-width="5.0" stroke-linecap="round" stroke-linejoin="round" />
<path d="M 136.0 118.0 L 136.0 118.0 L 136.0 118.0 L 139.0 118.0 L 145.0 118.0 L 155.0 118.0 L 166.0 118.0 L 176.0 118.0 L 178.0 118.0 " stroke="black" fill="none" stroke-width="5.0" stroke-linecap="round" stroke-linejoin="round" />
<path d="M 140.0 140.0 L 140.0 140.0 L 140.0 140.0 L 140.0 140.0 L 141.0 141.0 L 141.0 144.0 L 142.0 146.0 " stroke="black" fill="none" stroke-width="5.0" stroke-linecap="round" stroke-linejoin="round" />
<path d="M 141.0 142.0 L 141.0 142.0 L 141.0 142.0 L 141.0 142.0 L 141.0 142.0 L 145.0 141.0 L 152.0 141.0 L 161.0 139.0 L 169.0 139.0 L 176.0 139.0 L 179.0 140.0 L 180.0 144.0 L 180.0 148.0 L 180.0 150.0 L 180.0 151.0 " stroke="black" fill="none" stroke-width="5.0" stroke-linecap="round" stroke-linejoin="round" />
<path d="M 144.0 152.0 L 144.0 152.0 L 144.0 152.0 L 145.0 152.0 L 148.0 152.0 L 155.0 152.0 L 165.0 152.0 L 173.0 152.0 L 176.0 152.0 " stroke="black" fill="none" stroke-width="5.0" stroke-linecap="round" stroke-linejoin="round" />
<path d="M 146.0 160.0 L 146.0 160.0 L 146.0 161.0 L 147.0 161.0 L 150.0 161.0 L 157.0 161.0 L 164.0 161.0 L 169.0 161.0 L 170.0 161.0 " stroke="black" fill="none" stroke-width="5.0" stroke-linecap="round" stroke-linejoin="round" />
<path d="M 141.0 171.0 L 141.0 171.0 L 144.0 172.0 L 150.0 172.0 L 160.0 172.0 L 172.0 170.0 L 177.0 170.0 " stroke="black" fill="none" stroke-width="5.0" stroke-linecap="round" stroke-linejoin="round" />
<path d="M 156.0 135.0 L 156.0 135.0 L 156.0 135.0 L 156.0 138.0 L 156.0 146.0 L 155.0 160.0 L 150.0 179.0 L 144.0 193.0 L 141.0 199.0 " stroke="black" fill="none" stroke-width="5.0" stroke-linecap="round" stroke-linejoin="round" />
<path d="M 165.0 182.0 L 165.0 182.0 L 165.0 182.0 L 167.0 184.0 L 173.0 189.0 L 181.0 195.0 L 187.0 200.0 " stroke="black" fill="none" stroke-width="5.0" stroke-linecap="round" stroke-linejoin="round" />
</svg>