<svg xmlns="http://www.w3.org/2000/svg" width="300" height="300" viewBox="0 0 300 300">
<path d="M 120.0 120.0 L 121.0 120.0 L 121.0 120.0 L 122.0 121.0 L 123.0 123.0 L 127.0 126.0 L 131.0 129.0 " stroke="black" fill="none" stroke-width="5.0" stroke-linecap="round" stroke-linejoin="round" />
<path d="M 113.0 145.0 L 113.0 145.0 L 113.0 145.0 L 113.0 145.0 L 115.0 145.0 L 119.0 147.0 L 126.0 149.0 " stroke="black" fill="none" stroke-width="5.0" stroke-linecap="round" stroke-linejoin="round" />
<path d="M 104.0 186.0 L 104.0 186.0 L 104.0 186.0 L 105.0 186.0 L 112.0 182.0 L 125.0 174.0 L 129.0 171.0 " stroke="black" fill="none" stroke-width="5.0" stroke-linecap="round" stroke-linejoin="round" />
<path d="M 154.0 114.0 L 154.0 114.0 L 155.0 114.0 L 155.0 114.0 L 155.0 114.0 L 155.0 115.0 L 155.0 120.0 L 156.0 126.0 L 156.0 131.0 L 157.0 135.0 L 159.0 136.0 L 164.0 136.0 L 169.0 136.0 L 173.0 136.0 " stroke="black" fill="none" stroke-width="5.0" stroke-linecap="round" stroke-linejoin="round" />
<path d="M 174.0 113.0 L 174.0 113.0 L 174.0 113.0 L 175.0 114.0 L 176.0 118.0 L 176.0 125.0 L 177.0 130.0 L 177.0 132.0 " stroke="black" fill="none" stroke-width="5.0" stroke-linecap="round" stroke-linejoin="round" />
<path d="M 147.0 124.0 L 147.0 124.0 L 147.0 124.0 L 146.0 124.0 L 147.0 124.0 L 153.0 124.0 L 163.0 124.0 L 176.0 123.0 L 185.0 123.0 L 189.0 123.0 L 190.0 124.0 " stroke="black" fill="none" stroke-width="5.0" stroke-linecap="round" stroke-linejoin="round" />
<path d="M 146.0 148.0 L 146.0 148.0 L 146.0 148.0 L 145.0 148.0 L 145.0 148.0 L 145.0 148.0 L 145.0 150.0 L 147.0 154.0 L 148.0 157.0 " stroke="black" fill="none" stroke-width="5.0" stroke-linecap="round" stroke-linejoin="round" />
<path d="M 147.0 146.0 L 147.0 146.0 L 147.0 146.0 L 147.0 146.0 L 149.0 146.0 L 154.0 146.0 L 162.0 146.0 L 171.0 145.0 L 179.0 145.0 L 184.0 145.0 L 186.0 147.0 L 187.0 150.0 L 187.0 153.0 L 186.0 156.0 L 185.0 157.0 " stroke="black" fill="none" stroke-width="5.0" stroke-linecap="round" stroke-linejoin="round" />
<path d="M 150.0 160.0 L 150.0 160.0 L 150.0 160.0 L 150.0 160.0 L 151.0 160.0 L 155.0 160.0 L 163.0 160.0 L 173.0 160.0 L 180.0 160.0 L 183.0 159.0 L 184.0 159.0 " stroke="black" fill="none" stroke-width="5.0" stroke-linecap="round" stroke-linejoin="round" />
<path d="M 148.0 170.0 L 148.0 170.0 L 148.0 170.0 L 148.0 170.0 L 148.0 170.0 L 149.0 170.0 L 154.0 170.0 L 163.0 170.0 L 172.0 170.0 L 178.0 170.0 L 180.0 170.0 L 180.0 171.0 " stroke="black" fill="none" stroke-width="5.0" stroke-linecap="round" stroke-linejoin="round" />
<path d="M 154.0 178.0 L 154.0 178.0 L 156.0 178.0 L 157.0 178.0 L 159.0 179.0 L 163.0 179.0 L 168.0 179.0 L 171.0 179.0 L 172.0 179.0 " stroke="black" fill="none" stroke-width="5.0" stroke-linecap="round" stroke-linejoin="round" />
<path d="M 139.0 189.0 L 139.0 189.0 L 141.0 190.0 L 147.0 190.0 L 158.0 190.0 L 172.0 190.0 L 181.0 189.0 " stroke="black" fill="none" stroke-width="5.0" stroke-linecap="round" stroke-linejoin="round" />
<path d="M 167.0 141.0 L 167.0 141.0 L 167.0 141.0 L 167.0 141.0 L 166.0 141.0 L 165.0 146.0 L 162.0 159.0 L 156.0 178.0 L 150.0 193.0 L 146.0 201.0 L 146.0 202.0 " stroke="black" fill="none" stroke-width="5.0" stroke-linecap="round" stroke-linejoin="round" />
<path d="M 165.0 191.0 L 166.0 191.0 L 167.0 193.0 L 171.0 195.0 L 176.0 198.0 L 183.0 201.0 L 186.0 203.0 " stroke="black" fill="none" stroke-width="5.0" stroke-linecap="round" stroke-linejoin="round" />
</svg>