<svg xmlns="http://www.w3.org/2000/svg" width="300" height="300" viewBox="0 0 300 300">
<path d="M 137.0 109.0 L 137.0 110.0 L 136.0 110.0 L 135.0 111.0 L 133.0 114.0 L 129.0 119.0 L 124.0 125.0 " stroke="black" fill="none" stroke-width="5.0" stroke-linecap="round" stroke-linejoin="round" />
<path d="M 109.0 147.0 L 109.0 147.0 L 109.0 147.0 L 111.0 147.0 L 121.0 147.0 L 140.0 147.0 L 161.0 147.0 L 176.0 148.0 L 181.0 150.0 " stroke="black" fill="none" stroke-width="5.0" stroke-linecap="round" stroke-linejoin="round" />
<path d="M 134.0 122.0 L 134.0 122.0 L 134.0 123.0 L 134.0 124.0 L 134.0 130.0 L 134.0 144.0 L 133.0 161.0 L 129.0 173.0 L 127.0 178.0 " stroke="black" fill="none" stroke-width="5.0" stroke-linecap="round" stroke-linejoin="round" />
<path d="M 152.0 105.0 L 152.0 105.0 L 152.0 105.0 L 152.0 109.0 L 153.0 126.0 L 155.0 153.0 L 157.0 177.0 L 158.0 188.0 L 158.0 193.0 L 158.0 193.0 " stroke="black" fill="none" stroke-width="5.0" stroke-linecap="round" stroke-linejoin="round" />
</svg>