<svg xmlns="http://www.w3.org/2000/svg" width="300" height="300" viewBox="0 0 300 300">
<path d="M 131.0 117.0 L 131.0 117.0 L 131.0 117.0 L 131.0 117.0 L 131.0 117.0 L 131.0 118.0 L 129.0 121.0 L 126.0 126.0 L 122.0 131.0 L 120.0 133.0 L 119.0 134.0 L 119.0 135.0 L 119.0 137.0 L 119.0 142.0 L 120.0 149.0 L 121.0 158.0 L 122.0 165.0 L 123.0 171.0 L 123.0 175.0 L 123.0 176.0 L 123.0 176.0 " stroke="black" fill="none" stroke-width="5.0" stroke-linecap="round" stroke-linejoin="round" />
<path d="M 124.0 146.0 L 124.0 146.0 L 124.0 146.0 L 124.0 146.0 L 128.0 146.0 L 135.0 145.0 L 140.0 144.0 L 141.0 144.0 " stroke="black" fill="none" stroke-width="5.0" stroke-linecap="round" stroke-linejoin="round" />
<path d="M 122.0 161.0 L 122.0 161.0 L 123.0 162.0 L 124.0 162.0 L 128.0 162.0 L 134.0 161.0 L 136.0 161.0 " stroke="black" fill="none" stroke-width="5.0" stroke-linecap="round" stroke-linejoin="round" />
<path d="M 147.0 121.0 L 147.0 121.0 L 147.0 122.0 L 146.0 123.0 L 145.0 125.0 L 145.0 128.0 L 145.0 131.0 L 146.0 133.0 L 148.0 134.0 L 150.0 134.0 L 153.0 133.0 L 156.0 133.0 L 158.0 134.0 L 160.0 138.0 L 162.0 144.0 L 164.0 152.0 L 165.0 162.0 L 166.0 169.0 L 166.0 174.0 L 166.0 176.0 L 163.0 176.0 L 157.0 174.0 L 156.0 173.0 " stroke="black" fill="none" stroke-width="5.0" stroke-linecap="round" stroke-linejoin="round" />
<path d="M 148.0 141.0 L 148.0 140.0 L 147.0 140.0 L 147.0 140.0 L 147.0 142.0 L 147.0 150.0 L 146.0 163.0 L 145.0 170.0 " stroke="black" fill="none" stroke-width="5.0" stroke-linecap="round" stroke-linejoin="round" />
<path d="M 149.0 126.0 L 149.0 126.0 L 149.0 126.0 L 150.0 126.0 L 151.0 126.0 L 154.0 126.0 L 156.0 126.0 " stroke="black" fill="none" stroke-width="5.0" stroke-linecap="round" stroke-linejoin="round" />
<path d="M 168.0 124.0 L 169.0 124.0 L 170.0 125.0 L 172.0 125.0 L 175.0 125.0 L 178.0 126.0 L 180.0 126.0 L 182.0 127.0 L 184.0 131.0 L 186.0 137.0 L 187.0 146.0 L 188.0 155.0 L 189.0 163.0 L 190.0 168.0 L 190.0 169.0 L 189.0 169.0 L 189.0 168.0 " stroke="black" fill="none" stroke-width="5.0" stroke-linecap="round" stroke-linejoin="round" />
<path d="M 174.0 146.0 L 174.0 146.0 L 174.0 146.0 L 174.0 146.0 L 175.0 146.0 L 179.0 146.0 L 182.0 147.0 L 185.0 147.0 L 187.0 148.0 L 187.0 149.0 " stroke="black" fill="none" stroke-width="5.0" stroke-linecap="round" stroke-linejoin="round" />
<path d="M 177.0 157.0 L 177.0 157.0 L 177.0 157.0 L 177.0 157.0 L 180.0 157.0 L 184.0 157.0 " stroke="black" fill="none" stroke-width="5.0" stroke-linecap="round" stroke-linejoin="round" />
<path d="M 109.0 184.0 L 109.0 184.0 L 109.0 184.0 L 109.0 184.0 L 109.0 184.0 L 114.0 184.0 L 130.0 185.0 L 153.0 186.0 L 173.0 186.0 L 186.0 184.0 L 191.0 184.0 L 192.0 184.0 L 192.0 185.0 L 191.0 186.0 " stroke="black" fill="none" stroke-width="5.0" stroke-linecap="round" stroke-linejoin="round" />
<path d="M 147.0 192.0 L 147.0 192.0 L 146.0 192.0 L 146.0 192.0 L 145.0 194.0 L 144.0 198.0 L 143.0 202.0 " stroke="black" fill="none" stroke-width="5.0" stroke-linecap="round" stroke-linejoin="round" />
<path d="M 167.0 195.0 L 167.0 195.0 L 167.0 195.0 L 169.0 197.0 L 172.0 200.0 L 176.0 206.0 L 179.0 210.0 " stroke="black" fill="none" stroke-width="5.0" stroke-linecap="round" stroke-linejoin="round" />
</svg>