<svg xmlns="http://www.w3.org/2000/svg" width="300" height="300" viewBox="0 0 300 300">
<path d="M 134.0 115.0 L 135.0 115.0 L 136.0 115.0 L 139.0 115.0 L 146.0 115.0 L 159.0 115.0 L 163.0 115.0 " stroke="black" fill="none" stroke-width="5.0" stroke-linecap="round" stroke-linejoin="round" />
<path d="M 129.0 135.0 L 129.0 135.0 L 129.0 135.0 L 128.0 135.0 L 128.0 139.0 L 128.0 146.0 L 129.0 152.0 L 130.0 159.0 L 132.0 162.0 " stroke="black" fill="none" stroke-width="5.0" stroke-linecap="round" stroke-linejoin="round" />
<path d="M 130.0 133.0 L 131.0 133.0 L 132.0 132.0 L 135.0 132.0 L 138.0 132.0 L 142.0 131.0 L 150.0 131.0 L 156.0 131.0 L 160.0 131.0 L 165.0 133.0 L 167.0 136.0 L 168.0 140.0 L 168.0 152.0 L 168.0 158.0 L 168.0 162.0 L 169.0 164.0 L 169.0 164.0 " stroke="black" fill="none" stroke-width="5.0" stroke-linecap="round" stroke-linejoin="round" />
<path d="M 135.0 144.0 L 135.0 144.0 L 135.0 145.0 L 135.0 146.0 L 137.0 146.0 L 142.0 146.0 L 153.0 146.0 L 161.0 146.0 L 163.0 146.0 L 164.0 146.0 " stroke="black" fill="none" stroke-width="5.0" stroke-linecap="round" stroke-linejoin="round" />
<path d="M 133.0 163.0 L 134.0 163.0 L 136.0 164.0 L 140.0 165.0 L 150.0 165.0 L 156.0 164.0 L 163.0 162.0 " stroke="black" fill="none" stroke-width="5.0" stroke-linecap="round" stroke-linejoin="round" />
<path d="M 149.0 103.0 L 149.0 102.0 L 148.0 102.0 L 148.0 103.0 L 148.0 112.0 L 149.0 127.0 L 152.0 163.0 L 152.0 184.0 L 152.0 200.0 L 152.0 207.0 L 152.0 208.0 L 152.0 207.0 " stroke="black" fill="none" stroke-width="5.0" stroke-linecap="round" stroke-linejoin="round" />
<path d="M 121.0 187.0 L 122.0 187.0 L 125.0 187.0 L 131.0 187.0 L 137.0 187.0 L 154.0 187.0 L 161.0 188.0 L 177.0 188.0 L 182.0 188.0 " stroke="black" fill="none" stroke-width="5.0" stroke-linecap="round" stroke-linejoin="round" />
</svg>