<svg xmlns="http://www.w3.org/2000/svg" width="300" height="300" viewBox="0 0 300 300">
<path d="M 131.0 114.0 L 131.0 114.0 L 131.0 114.0 L 131.0 114.0 L 133.0 114.0 L 141.0 113.0 L 153.0 111.0 L 166.0 110.0 L 172.0 110.0 L 173.0 110.0 L 171.0 110.0 " stroke="black" fill="none" stroke-width="5.0" stroke-linecap="round" stroke-linejoin="round" />
<path d="M 131.0 133.0 L 131.0 133.0 L 131.0 132.0 L 131.0 132.0 L 131.0 132.0 L 131.0 139.0 L 132.0 150.0 L 132.0 160.0 L 133.0 165.0 L 134.0 166.0 " stroke="black" fill="none" stroke-width="5.0" stroke-linecap="round" stroke-linejoin="round" />
<path d="M 134.0 134.0 L 134.0 134.0 L 134.0 134.0 L 134.0 134.0 L 138.0 133.0 L 146.0 132.0 L 156.0 131.0 L 165.0 131.0 L 171.0 131.0 L 174.0 131.0 L 175.0 133.0 L 176.0 140.0 L 177.0 150.0 L 178.0 159.0 L 178.0 165.0 L 179.0 166.0 L 179.0 166.0 " stroke="black" fill="none" stroke-width="5.0" stroke-linecap="round" stroke-linejoin="round" />
<path d="M 137.0 150.0 L 136.0 150.0 L 136.0 150.0 L 137.0 150.0 L 146.0 150.0 L 158.0 150.0 L 169.0 150.0 L 175.0 150.0 L 176.0 151.0 L 175.0 152.0 " stroke="black" fill="none" stroke-width="5.0" stroke-linecap="round" stroke-linejoin="round" />
<path d="M 135.0 167.0 L 135.0 167.0 L 135.0 168.0 L 140.0 169.0 L 150.0 168.0 L 163.0 164.0 L 174.0 162.0 L 176.0 162.0 " stroke="black" fill="none" stroke-width="5.0" stroke-linecap="round" stroke-linejoin="round" />
<path d="M 149.0 100.0 L 149.0 99.0 L 148.0 99.0 L 148.0 99.0 L 148.0 107.0 L 151.0 128.0 L 155.0 158.0 L 157.0 184.0 L 158.0 201.0 L 160.0 209.0 L 160.0 211.0 L 160.0 209.0 " stroke="black" fill="none" stroke-width="5.0" stroke-linecap="round" stroke-linejoin="round" />
<path d="M 122.0 186.0 L 122.0 186.0 L 123.0 186.0 L 125.0 185.0 L 134.0 185.0 L 153.0 185.0 L 174.0 185.0 L 185.0 184.0 L 188.0 184.0 L 189.0 184.0 L 188.0 184.0 L 188.0 184.0 " stroke="black" fill="none" stroke-width="5.0" stroke-linecap="round" stroke-linejoin="round" />
</svg>