<svg xmlns="http://www.w3.org/2000/svg" width="300" height="300" viewBox="0 0 300 300">
<path d="M 129.0 117.0 L 129.0 118.0 L 129.0 118.0 L 129.0 119.0 L 129.0 120.0 L 128.0 122.0 L 127.0 126.0 L 124.0 131.0 L 121.0 136.0 L 118.0 140.0 L 116.0 142.0 L 115.0 143.0 L 116.0 144.0 L 120.0 145.0 L 124.0 145.0 L 127.0 145.0 " stroke="black" fill="none" stroke-width="5.0" stroke-linecap="round" stroke-linejoin="round" />
<path d="M 138.0 135.0 L 138.0 136.0 L 137.0 138.0 L 135.0 140.0 L 133.0 143.0 L 130.0 147.0 L 125.0 153.0 L 119.0 161.0 L 114.0 168.0 L 113.0 170.0 L 116.0 171.0 L 124.0 170.0 L 132.0 168.0 L 137.0 167.0 " stroke="black" fill="none" stroke-width="5.0" stroke-linecap="round" stroke-linejoin="round" />
<path d="M 141.0 159.0 L 141.0 159.0 L 140.0 159.0 L 140.0 159.0 L 139.0 159.0 L 139.0 162.0 L 141.0 167.0 L 143.0 174.0 " stroke="black" fill="none" stroke-width="5.0" stroke-linecap="round" stroke-linejoin="round" />
<path d="M 110.0 181.0 L 110.0 181.0 L 110.0 183.0 L 110.0 186.0 L 111.0 191.0 L 113.0 195.0 " stroke="black" fill="none" stroke-width="5.0" stroke-linecap="round" stroke-linejoin="round" />
<path d="M 123.0 182.0 L 123.0 182.0 L 124.0 182.0 L 124.0 182.0 L 125.0 185.0 L 126.0 188.0 L 127.0 192.0 " stroke="black" fill="none" stroke-width="5.0" stroke-linecap="round" stroke-linejoin="round" />
<path d="M 136.0 180.0 L 136.0 180.0 L 137.0 182.0 L 137.0 184.0 L 139.0 188.0 L 139.0 189.0 " stroke="black" fill="none" stroke-width="5.0" stroke-linecap="round" stroke-linejoin="round" />
<path d="M 156.0 117.0 L 157.0 117.0 L 157.0 117.0 L 157.0 117.0 L 157.0 117.0 L 157.0 118.0 L 157.0 122.0 L 154.0 133.0 L 150.0 145.0 L 146.0 153.0 L 145.0 154.0 " stroke="black" fill="none" stroke-width="5.0" stroke-linecap="round" stroke-linejoin="round" />
<path d="M 154.0 138.0 L 155.0 138.0 L 156.0 138.0 L 158.0 138.0 L 160.0 138.0 L 165.0 138.0 L 171.0 137.0 L 176.0 136.0 L 179.0 136.0 L 181.0 137.0 L 183.0 139.0 L 184.0 143.0 L 186.0 149.0 L 190.0 167.0 L 191.0 183.0 L 192.0 191.0 L 191.0 200.0 L 189.0 203.0 L 184.0 205.0 L 177.0 205.0 L 169.0 203.0 " stroke="black" fill="none" stroke-width="5.0" stroke-linecap="round" stroke-linejoin="round" />
<path d="M 158.0 160.0 L 160.0 161.0 L 160.0 162.0 L 162.0 166.0 L 163.0 169.0 L 166.0 176.0 L 167.0 179.0 L 167.0 181.0 " stroke="black" fill="none" stroke-width="5.0" stroke-linecap="round" stroke-linejoin="round" />
</svg>