<svg xmlns="http://www.w3.org/2000/svg" width="300" height="300" viewBox="0 0 300 300">
<path d="M 136.0 108.0 L 136.0 108.0 L 136.0 108.0 L 136.0 108.0 L 136.0 108.0 L 136.0 111.0 L 133.0 119.0 L 126.0 134.0 L 116.0 148.0 L 114.0 150.0 " stroke="black" fill="none" stroke-width="5.0" stroke-linecap="round" stroke-linejoin="round" />
<path d="M 133.0 130.0 L 133.0 130.0 L 133.0 130.0 L 134.0 130.0 L 138.0 129.0 L 147.0 128.0 L 159.0 127.0 L 170.0 126.0 L 174.0 126.0 L 175.0 126.0 " stroke="black" fill="none" stroke-width="5.0" stroke-linecap="round" stroke-linejoin="round" />
<path d="M 137.0 151.0 L 137.0 151.0 L 137.0 151.0 L 137.0 151.0 L 138.0 151.0 L 144.0 150.0 L 153.0 149.0 L 161.0 148.0 L 166.0 148.0 L 167.0 148.0 " stroke="black" fill="none" stroke-width="5.0" stroke-linecap="round" stroke-linejoin="round" />
<path d="M 111.0 186.0 L 112.0 186.0 L 114.0 186.0 L 119.0 186.0 L 132.0 185.0 L 152.0 184.0 L 172.0 184.0 L 186.0 184.0 L 191.0 185.0 " stroke="black" fill="none" stroke-width="5.0" stroke-linecap="round" stroke-linejoin="round" />
<path d="M 152.0 106.0 L 152.0 106.0 L 152.0 108.0 L 152.0 114.0 L 154.0 131.0 L 156.0 153.0 L 157.0 172.0 L 157.0 178.0 " stroke="black" fill="none" stroke-width="5.0" stroke-linecap="round" stroke-linejoin="round" />
</svg>