<svg xmlns="http://www.w3.org/2000/svg" width="300" height="300" viewBox="0 0 300 300">
<path d="M 138.0 107.0 L 138.0 107.0 L 137.0 107.0 L 137.0 107.0 L 136.0 109.0 L 134.0 116.0 L 129.0 129.0 L 121.0 144.0 L 118.0 149.0 " stroke="black" fill="none" stroke-width="5.0" stroke-linecap="round" stroke-linejoin="round" />
<path d="M 133.0 129.0 L 133.0 129.0 L 133.0 129.0 L 134.0 129.0 L 136.0 129.0 L 144.0 129.0 L 156.0 128.0 L 166.0 127.0 L 171.0 127.0 " stroke="black" fill="none" stroke-width="5.0" stroke-linecap="round" stroke-linejoin="round" />
<path d="M 135.0 152.0 L 135.0 152.0 L 135.0 153.0 L 139.0 153.0 L 147.0 153.0 L 157.0 153.0 L 165.0 153.0 L 167.0 155.0 " stroke="black" fill="none" stroke-width="5.0" stroke-linecap="round" stroke-linejoin="round" />
<path d="M 109.0 191.0 L 110.0 191.0 L 111.0 191.0 L 114.0 191.0 L 124.0 191.0 L 141.0 191.0 L 159.0 191.0 L 175.0 191.0 L 184.0 191.0 L 185.0 191.0 " stroke="black" fill="none" stroke-width="5.0" stroke-linecap="round" stroke-linejoin="round" />
<path d="M 152.0 115.0 L 152.0 115.0 L 152.0 115.0 L 152.0 115.0 L 152.0 121.0 L 152.0 141.0 L 152.0 168.0 L 151.0 181.0 " stroke="black" fill="none" stroke-width="5.0" stroke-linecap="round" stroke-linejoin="round" />
</svg>