<svg xmlns="http://www.w3.org/2000/svg" width="300" height="300" viewBox="0 0 300 300">
<circle cx="141.0" cy="139.0" r="2.5" fill="black" />
<path d="M 138.0 114.0 L 138.0 114.0 L 138.0 115.0 L 138.0 116.0 L 137.0 120.0 L 133.0 131.0 L 126.0 145.0 L 121.0 152.0 " stroke="black" fill="none" stroke-width="5.0" stroke-linecap="round" stroke-linejoin="round" />
<path d="M 139.0 133.0 L 139.0 133.0 L 139.0 134.0 L 141.0 134.0 L 149.0 134.0 L 160.0 133.0 L 170.0 133.0 L 171.0 133.0 " stroke="black" fill="none" stroke-width="5.0" stroke-linecap="round" stroke-linejoin="round" />
<path d="M 137.0 156.0 L 139.0 156.0 L 142.0 156.0 L 149.0 156.0 L 158.0 155.0 L 165.0 154.0 L 166.0 154.0 " stroke="black" fill="none" stroke-width="5.0" stroke-linecap="round" stroke-linejoin="round" />
<path d="M 110.0 189.0 L 110.0 189.0 L 110.0 189.0 L 111.0 188.0 L 112.0 188.0 L 118.0 188.0 L 136.0 188.0 L 161.0 185.0 L 181.0 184.0 L 185.0 184.0 " stroke="black" fill="none" stroke-width="5.0" stroke-linecap="round" stroke-linejoin="round" />
<path d="M 153.0 112.0 L 153.0 111.0 L 153.0 111.0 L 153.0 111.0 L 153.0 114.0 L 153.0 130.0 L 153.0 158.0 L 153.0 176.0 " stroke="black" fill="none" stroke-width="5.0" stroke-linecap="round" stroke-linejoin="round" />
</svg>