<svg xmlns="http://www.w3.org/2000/svg" width="300" height="300" viewBox="0 0 300 300">
<path d="M 139.0 113.0 L 139.0 113.0 L 139.0 113.0 L 139.0 113.0 L 139.0 113.0 L 139.0 118.0 L 136.0 128.0 L 129.0 142.0 L 122.0 150.0 " stroke="black" fill="none" stroke-width="5.0" stroke-linecap="round" stroke-linejoin="round" />
<path d="M 138.0 136.0 L 138.0 136.0 L 138.0 136.0 L 138.0 136.0 L 143.0 135.0 L 152.0 135.0 L 165.0 135.0 L 176.0 134.0 L 182.0 134.0 L 182.0 133.0 L 182.0 133.0 " stroke="black" fill="none" stroke-width="5.0" stroke-linecap="round" stroke-linejoin="round" />
<path d="M 144.0 154.0 L 144.0 154.0 L 145.0 154.0 L 147.0 154.0 L 154.0 154.0 L 165.0 154.0 L 174.0 154.0 L 179.0 155.0 " stroke="black" fill="none" stroke-width="5.0" stroke-linecap="round" stroke-linejoin="round" />
<path d="M 121.0 189.0 L 122.0 190.0 L 124.0 190.0 L 129.0 191.0 L 147.0 191.0 L 166.0 190.0 L 183.0 190.0 L 193.0 190.0 " stroke="black" fill="none" stroke-width="5.0" stroke-linecap="round" stroke-linejoin="round" />
<path d="M 155.0 111.0 L 155.0 112.0 L 155.0 116.0 L 157.0 129.0 L 160.0 152.0 L 162.0 176.0 L 163.0 189.0 L 162.0 191.0 " stroke="black" fill="none" stroke-width="5.0" stroke-linecap="round" stroke-linejoin="round" />
</svg>