<svg xmlns="http://www.w3.org/2000/svg" width="300" height="300" viewBox="0 0 300 300">
<path d="M 140.0 115.0 L 140.0 117.0 L 139.0 119.0 L 138.0 122.0 L 134.0 129.0 L 127.0 141.0 L 118.0 155.0 L 112.0 163.0 " stroke="black" fill="none" stroke-width="5.0" stroke-linecap="round" stroke-linejoin="round" />
<path d="M 137.0 142.0 L 137.0 141.0 L 137.0 140.0 L 139.0 140.0 L 144.0 140.0 L 153.0 140.0 L 163.0 139.0 L 175.0 138.0 " stroke="black" fill="none" stroke-width="5.0" stroke-linecap="round" stroke-linejoin="round" />
<path d="M 134.0 168.0 L 134.0 168.0 L 136.0 169.0 L 139.0 170.0 L 148.0 168.0 L 159.0 166.0 L 168.0 165.0 L 173.0 166.0 " stroke="black" fill="none" stroke-width="5.0" stroke-linecap="round" stroke-linejoin="round" />
<path d="M 114.0 201.0 L 114.0 201.0 L 116.0 202.0 L 123.0 203.0 L 139.0 203.0 L 158.0 201.0 L 176.0 201.0 L 187.0 201.0 L 190.0 201.0 " stroke="black" fill="none" stroke-width="5.0" stroke-linecap="round" stroke-linejoin="round" />
<path d="M 153.0 116.0 L 153.0 118.0 L 152.0 123.0 L 154.0 141.0 L 155.0 165.0 L 155.0 185.0 L 154.0 194.0 " stroke="black" fill="none" stroke-width="5.0" stroke-linecap="round" stroke-linejoin="round" />
</svg>