<svg xmlns="http://www.w3.org/2000/svg" width="300" height="300" viewBox="0 0 300 300">
<path d="M 114.0 145.0 L 114.0 145.0 L 114.0 145.0 L 116.0 145.0 L 123.0 145.0 L 138.0 143.0 L 153.0 140.0 L 166.0 138.0 L 174.0 137.0 L 178.0 137.0 L 178.0 137.0 L 178.0 137.0 L 178.0 140.0 L 178.0 144.0 L 177.0 150.0 L 174.0 157.0 L 172.0 162.0 " stroke="black" fill="none" stroke-width="5.0" stroke-linecap="round" stroke-linejoin="round" />
<path d="M 154.0 124.0 L 154.0 124.0 L 154.0 125.0 L 154.0 127.0 L 154.0 135.0 L 154.0 147.0 L 154.0 158.0 " stroke="black" fill="none" stroke-width="5.0" stroke-linecap="round" stroke-linejoin="round" />
<path d="M 130.0 120.0 L 130.0 120.0 L 130.0 121.0 L 130.0 123.0 L 130.0 133.0 L 129.0 153.0 L 129.0 174.0 L 129.0 189.0 L 131.0 196.0 L 137.0 200.0 L 146.0 203.0 L 157.0 204.0 L 169.0 205.0 L 181.0 206.0 L 190.0 206.0 L 195.0 205.0 L 197.0 204.0 L 198.0 202.0 L 198.0 199.0 L 198.0 193.0 L 198.0 185.0 " stroke="black" fill="none" stroke-width="5.0" stroke-linecap="round" stroke-linejoin="round" />
</svg>