<svg xmlns="http://www.w3.org/2000/svg" width="300" height="300" viewBox="0 0 300 300">
<path d="M 112.0 105.0 L 112.0 106.0 L 112.0 107.0 L 112.0 107.0 L 116.0 107.0 L 121.0 107.0 L 127.0 107.0 L 131.0 107.0 L 133.0 107.0 L 133.0 107.0 L 132.0 108.0 L 129.0 111.0 L 127.0 115.0 L 126.0 119.0 L 126.0 123.0 L 129.0 126.0 L 132.0 130.0 L 134.0 133.0 L 134.0 135.0 L 134.0 136.0 L 131.0 137.0 L 127.0 138.0 L 125.0 138.0 " stroke="black" fill="none" stroke-width="5.0" stroke-linecap="round" stroke-linejoin="round" />
<path d="M 114.0 105.0 L 114.0 105.0 L 113.0 105.0 L 112.0 106.0 L 112.0 116.0 L 114.0 139.0 L 116.0 166.0 L 116.0 186.0 L 116.0 196.0 L 116.0 198.0 L 116.0 197.0 " stroke="black" fill="none" stroke-width="5.0" stroke-linecap="round" stroke-linejoin="round" />
<path d="M 148.0 111.0 L 148.0 111.0 L 148.0 111.0 L 148.0 111.0 L 149.0 111.0 L 153.0 111.0 L 164.0 111.0 L 176.0 110.0 L 185.0 109.0 L 188.0 109.0 " stroke="black" fill="none" stroke-width="5.0" stroke-linecap="round" stroke-linejoin="round" />
<path d="M 170.0 113.0 L 170.0 113.0 L 170.0 113.0 L 169.0 113.0 L 169.0 115.0 L 172.0 125.0 L 177.0 146.0 L 181.0 167.0 L 182.0 181.0 L 182.0 189.0 L 182.0 194.0 L 181.0 196.0 L 179.0 198.0 L 173.0 198.0 L 165.0 195.0 L 160.0 192.0 " stroke="black" fill="none" stroke-width="5.0" stroke-linecap="round" stroke-linejoin="round" />
<path d="M 140.0 150.0 L 140.0 151.0 L 140.0 152.0 L 140.0 155.0 L 140.0 157.0 L 140.0 158.0 " stroke="black" fill="none" stroke-width="5.0" stroke-linecap="round" stroke-linejoin="round" />
<path d="M 141.0 149.0 L 141.0 148.0 L 141.0 148.0 L 141.0 147.0 L 143.0 147.0 L 146.0 147.0 L 149.0 147.0 L 152.0 148.0 L 154.0 152.0 L 155.0 156.0 L 156.0 160.0 L 156.0 163.0 " stroke="black" fill="none" stroke-width="5.0" stroke-linecap="round" stroke-linejoin="round" />
<path d="M 141.0 165.0 L 141.0 166.0 L 141.0 167.0 L 141.0 168.0 L 145.0 168.0 L 152.0 167.0 L 154.0 167.0 " stroke="black" fill="none" stroke-width="5.0" stroke-linecap="round" stroke-linejoin="round" />
</svg>