<svg xmlns="http://www.w3.org/2000/svg" width="300" height="300" viewBox="0 0 300 300">
<path d="M 127.0 110.0 L 127.0 110.0 L 127.0 110.0 L 126.0 110.0 L 126.0 110.0 L 126.0 110.0 L 129.0 110.0 L 133.0 110.0 L 137.0 110.0 L 140.0 110.0 L 143.0 110.0 L 144.0 110.0 L 145.0 112.0 L 145.0 117.0 L 145.0 125.0 L 145.0 132.0 L 146.0 137.0 L 146.0 139.0 " stroke="black" fill="none" stroke-width="5.0" stroke-linecap="round" stroke-linejoin="round" />
<path d="M 124.0 126.0 L 125.0 126.0 L 126.0 127.0 L 127.0 127.0 L 130.0 127.0 L 137.0 127.0 L 143.0 127.0 L 147.0 126.0 " stroke="black" fill="none" stroke-width="5.0" stroke-linecap="round" stroke-linejoin="round" />
<path d="M 117.0 140.0 L 118.0 141.0 L 119.0 141.0 L 122.0 141.0 L 130.0 141.0 L 140.0 139.0 L 143.0 139.0 " stroke="black" fill="none" stroke-width="5.0" stroke-linecap="round" stroke-linejoin="round" />
<path d="M 122.0 110.0 L 122.0 111.0 L 122.0 113.0 L 122.0 118.0 L 122.0 131.0 L 122.0 152.0 L 121.0 175.0 L 119.0 189.0 L 119.0 193.0 L 119.0 193.0 L 120.0 190.0 L 120.0 189.0 " stroke="black" fill="none" stroke-width="5.0" stroke-linecap="round" stroke-linejoin="round" />
<path d="M 162.0 111.0 L 162.0 111.0 L 162.0 111.0 L 162.0 111.0 L 163.0 111.0 L 166.0 111.0 L 172.0 112.0 L 177.0 112.0 L 180.0 112.0 L 182.0 112.0 L 182.0 112.0 L 184.0 116.0 L 186.0 126.0 L 189.0 141.0 L 191.0 158.0 L 193.0 172.0 L 194.0 183.0 L 194.0 190.0 L 194.0 193.0 L 194.0 193.0 L 194.0 193.0 L 189.0 193.0 L 178.0 192.0 L 173.0 191.0 " stroke="black" fill="none" stroke-width="5.0" stroke-linecap="round" stroke-linejoin="round" />
<path d="M 158.0 115.0 L 158.0 115.0 L 158.0 116.0 L 158.0 116.0 L 158.0 118.0 L 157.0 123.0 L 158.0 131.0 L 160.0 138.0 L 164.0 142.0 L 171.0 143.0 L 177.0 142.0 L 178.0 142.0 " stroke="black" fill="none" stroke-width="5.0" stroke-linecap="round" stroke-linejoin="round" />
<path d="M 164.0 126.0 L 164.0 126.0 L 165.0 126.0 L 167.0 126.0 L 171.0 126.0 L 177.0 126.0 L 181.0 127.0 " stroke="black" fill="none" stroke-width="5.0" stroke-linecap="round" stroke-linejoin="round" />
<path d="M 145.0 154.0 L 145.0 154.0 L 145.0 154.0 L 145.0 154.0 L 144.0 154.0 L 144.0 158.0 L 144.0 164.0 L 144.0 169.0 L 145.0 171.0 L 145.0 171.0 " stroke="black" fill="none" stroke-width="5.0" stroke-linecap="round" stroke-linejoin="round" />
<path d="M 146.0 151.0 L 146.0 150.0 L 146.0 150.0 L 146.0 150.0 L 147.0 150.0 L 150.0 150.0 L 155.0 151.0 L 160.0 151.0 L 163.0 152.0 L 166.0 153.0 L 168.0 158.0 L 170.0 165.0 L 171.0 170.0 L 171.0 174.0 L 171.0 175.0 " stroke="black" fill="none" stroke-width="5.0" stroke-linecap="round" stroke-linejoin="round" />
<path d="M 149.0 160.0 L 149.0 160.0 L 149.0 160.0 L 151.0 160.0 L 155.0 161.0 L 161.0 161.0 L 164.0 161.0 " stroke="black" fill="none" stroke-width="5.0" stroke-linecap="round" stroke-linejoin="round" />
<path d="M 147.0 174.0 L 147.0 174.0 L 147.0 173.0 L 149.0 173.0 L 157.0 173.0 L 168.0 173.0 " stroke="black" fill="none" stroke-width="5.0" stroke-linecap="round" stroke-linejoin="round" />
</svg>