<svg xmlns="http://www.w3.org/2000/svg" width="300" height="300" viewBox="0 0 300 300">
<path d="M 125.0 107.0 L 125.0 107.0 L 125.0 107.0 L 125.0 107.0 L 125.0 107.0 L 125.0 111.0 L 125.0 120.0 L 125.0 138.0 L 125.0 161.0 L 125.0 178.0 L 126.0 185.0 L 126.0 186.0 L 126.0 183.0 " stroke="black" fill="none" stroke-width="5.0" stroke-linecap="round" stroke-linejoin="round" />
<path d="M 118.0 143.0 L 118.0 143.0 L 118.0 143.0 L 118.0 143.0 L 118.0 143.0 L 118.0 145.0 L 115.0 150.0 L 112.0 156.0 L 110.0 160.0 " stroke="black" fill="none" stroke-width="5.0" stroke-linecap="round" stroke-linejoin="round" />
<path d="M 133.0 143.0 L 133.0 143.0 L 133.0 144.0 L 135.0 147.0 L 137.0 152.0 L 140.0 155.0 " stroke="black" fill="none" stroke-width="5.0" stroke-linecap="round" stroke-linejoin="round" />
<path d="M 157.0 103.0 L 157.0 103.0 L 158.0 103.0 L 159.0 104.0 L 160.0 106.0 L 162.0 109.0 L 163.0 110.0 " stroke="black" fill="none" stroke-width="5.0" stroke-linecap="round" stroke-linejoin="round" />
<path d="M 148.0 113.0 L 148.0 113.0 L 148.0 113.0 L 148.0 114.0 L 150.0 114.0 L 159.0 113.0 L 170.0 111.0 L 179.0 111.0 L 184.0 110.0 L 185.0 110.0 L 185.0 110.0 " stroke="black" fill="none" stroke-width="5.0" stroke-linecap="round" stroke-linejoin="round" />
<path d="M 146.0 124.0 L 146.0 124.0 L 146.0 125.0 L 146.0 125.0 L 146.0 127.0 L 146.0 128.0 L 147.0 130.0 " stroke="black" fill="none" stroke-width="5.0" stroke-linecap="round" stroke-linejoin="round" />
<path d="M 148.0 122.0 L 148.0 122.0 L 149.0 122.0 L 152.0 122.0 L 159.0 120.0 L 169.0 120.0 L 177.0 120.0 L 183.0 120.0 L 188.0 121.0 L 190.0 123.0 L 191.0 126.0 L 190.0 130.0 L 188.0 133.0 L 187.0 135.0 " stroke="black" fill="none" stroke-width="5.0" stroke-linecap="round" stroke-linejoin="round" />
<path d="M 149.0 135.0 L 149.0 135.0 L 149.0 135.0 L 149.0 135.0 L 151.0 135.0 L 159.0 135.0 L 171.0 135.0 L 180.0 135.0 L 183.0 135.0 " stroke="black" fill="none" stroke-width="5.0" stroke-linecap="round" stroke-linejoin="round" />
<path d="M 158.0 124.0 L 158.0 124.0 L 159.0 124.0 L 159.0 125.0 L 159.0 129.0 L 160.0 133.0 L 160.0 134.0 " stroke="black" fill="none" stroke-width="5.0" stroke-linecap="round" stroke-linejoin="round" />
<path d="M 171.0 122.0 L 171.0 122.0 L 171.0 123.0 L 171.0 124.0 L 171.0 127.0 L 170.0 131.0 " stroke="black" fill="none" stroke-width="5.0" stroke-linecap="round" stroke-linejoin="round" />
<path d="M 162.0 138.0 L 162.0 138.0 L 163.0 137.0 L 163.0 137.0 L 163.0 138.0 L 164.0 143.0 L 165.0 150.0 L 165.0 155.0 L 166.0 156.0 " stroke="black" fill="none" stroke-width="5.0" stroke-linecap="round" stroke-linejoin="round" />
<path d="M 152.0 144.0 L 152.0 144.0 L 153.0 145.0 L 154.0 146.0 L 155.0 147.0 L 157.0 148.0 " stroke="black" fill="none" stroke-width="5.0" stroke-linecap="round" stroke-linejoin="round" />
<path d="M 149.0 152.0 L 149.0 152.0 L 149.0 152.0 L 149.0 153.0 L 149.0 153.0 L 150.0 153.0 L 152.0 153.0 " stroke="black" fill="none" stroke-width="5.0" stroke-linecap="round" stroke-linejoin="round" />
<path d="M 172.0 144.0 L 172.0 144.0 L 173.0 144.0 L 175.0 143.0 L 176.0 143.0 L 178.0 142.0 L 179.0 142.0 " stroke="black" fill="none" stroke-width="5.0" stroke-linecap="round" stroke-linejoin="round" />
<path d="M 173.0 149.0 L 175.0 151.0 L 176.0 152.0 L 179.0 154.0 L 181.0 155.0 " stroke="black" fill="none" stroke-width="5.0" stroke-linecap="round" stroke-linejoin="round" />
<path d="M 154.0 159.0 L 155.0 159.0 L 155.0 159.0 L 155.0 160.0 L 154.0 162.0 L 150.0 165.0 L 145.0 171.0 L 140.0 176.0 " stroke="black" fill="none" stroke-width="5.0" stroke-linecap="round" stroke-linejoin="round" />
<path d="M 151.0 167.0 L 151.0 167.0 L 151.0 167.0 L 151.0 168.0 L 151.0 171.0 L 150.0 177.0 L 150.0 184.0 L 152.0 188.0 L 158.0 188.0 L 167.0 182.0 L 169.0 180.0 " stroke="black" fill="none" stroke-width="5.0" stroke-linecap="round" stroke-linejoin="round" />
<path d="M 188.0 162.0 L 188.0 162.0 L 186.0 163.0 L 185.0 164.0 L 182.0 166.0 L 180.0 169.0 L 178.0 170.0 " stroke="black" fill="none" stroke-width="5.0" stroke-linecap="round" stroke-linejoin="round" />
<path d="M 162.0 164.0 L 164.0 164.0 L 165.0 165.0 L 169.0 168.0 L 176.0 176.0 L 185.0 185.0 L 191.0 190.0 L 194.0 193.0 L 195.0 193.0 L 194.0 193.0 L 194.0 192.0 " stroke="black" fill="none" stroke-width="5.0" stroke-linecap="round" stroke-linejoin="round" />
</svg>