<svg xmlns="http://www.w3.org/2000/svg" width="300" height="300" viewBox="0 0 300 300">
<path d="M 115.0 109.0 L 115.0 109.0 L 115.0 109.0 L 115.0 109.0 L 115.0 109.0 L 115.0 109.0 L 115.0 109.0 L 115.0 111.0 L 115.0 117.0 L 115.0 124.0 L 115.0 128.0 " stroke="black" fill="none" stroke-width="5.0" stroke-linecap="round" stroke-linejoin="round" />
<path d="M 114.0 108.0 L 114.0 108.0 L 114.0 108.0 L 114.0 108.0 L 114.0 108.0 L 116.0 108.0 L 120.0 107.0 L 124.0 106.0 L 129.0 106.0 L 133.0 106.0 L 135.0 106.0 L 137.0 108.0 L 138.0 113.0 L 140.0 120.0 L 141.0 126.0 L 141.0 131.0 L 141.0 133.0 L 141.0 133.0 " stroke="black" fill="none" stroke-width="5.0" stroke-linecap="round" stroke-linejoin="round" />
<path d="M 129.0 129.0 L 129.0 129.0 L 129.0 129.0 L 129.0 129.0 L 129.0 128.0 L 129.0 128.0 L 129.0 127.0 L 129.0 127.0 L 129.0 126.0 L 128.0 124.0 L 127.0 123.0 L 126.0 123.0 L 126.0 122.0 L 127.0 121.0 L 129.0 121.0 L 132.0 121.0 L 135.0 121.0 L 138.0 122.0 L 139.0 122.0 " stroke="black" fill="none" stroke-width="5.0" stroke-linecap="round" stroke-linejoin="round" />
<path d="M 105.0 135.0 L 105.0 135.0 L 105.0 135.0 L 106.0 135.0 L 111.0 135.0 L 121.0 135.0 L 132.0 135.0 L 141.0 136.0 L 146.0 137.0 L 147.0 138.0 L 147.0 138.0 L 146.0 139.0 L 146.0 142.0 L 145.0 142.0 " stroke="black" fill="none" stroke-width="5.0" stroke-linecap="round" stroke-linejoin="round" />
<path d="M 106.0 138.0 L 106.0 139.0 L 106.0 139.0 L 105.0 141.0 L 104.0 145.0 L 104.0 147.0 " stroke="black" fill="none" stroke-width="5.0" stroke-linecap="round" stroke-linejoin="round" />
<path d="M 115.0 144.0 L 115.0 144.0 L 115.0 144.0 L 115.0 146.0 L 115.0 152.0 L 114.0 163.0 L 113.0 177.0 L 112.0 186.0 L 112.0 189.0 L 112.0 189.0 " stroke="black" fill="none" stroke-width="5.0" stroke-linecap="round" stroke-linejoin="round" />
<path d="M 118.0 145.0 L 118.0 145.0 L 118.0 145.0 L 118.0 145.0 L 120.0 144.0 L 124.0 144.0 L 128.0 144.0 L 132.0 144.0 L 135.0 145.0 L 137.0 147.0 L 140.0 153.0 L 142.0 162.0 L 144.0 174.0 L 145.0 185.0 L 145.0 191.0 L 145.0 193.0 L 144.0 193.0 L 140.0 191.0 L 132.0 187.0 L 129.0 187.0 " stroke="black" fill="none" stroke-width="5.0" stroke-linecap="round" stroke-linejoin="round" />
<path d="M 117.0 154.0 L 118.0 154.0 L 118.0 154.0 L 119.0 154.0 L 123.0 154.0 L 129.0 154.0 L 134.0 154.0 " stroke="black" fill="none" stroke-width="5.0" stroke-linecap="round" stroke-linejoin="round" />
<path d="M 115.0 165.0 L 116.0 165.0 L 118.0 166.0 L 121.0 166.0 L 126.0 166.0 L 134.0 166.0 L 138.0 166.0 " stroke="black" fill="none" stroke-width="5.0" stroke-linecap="round" stroke-linejoin="round" />
<path d="M 153.0 115.0 L 153.0 115.0 L 153.0 115.0 L 153.0 117.0 L 153.0 120.0 L 154.0 126.0 L 156.0 131.0 L 156.0 134.0 " stroke="black" fill="none" stroke-width="5.0" stroke-linecap="round" stroke-linejoin="round" />
<path d="M 155.0 110.0 L 155.0 110.0 L 155.0 110.0 L 155.0 110.0 L 156.0 110.0 L 160.0 110.0 L 167.0 110.0 L 173.0 110.0 L 178.0 110.0 L 181.0 111.0 L 184.0 114.0 L 185.0 120.0 L 186.0 127.0 L 186.0 134.0 L 186.0 138.0 L 186.0 139.0 " stroke="black" fill="none" stroke-width="5.0" stroke-linecap="round" stroke-linejoin="round" />
<path d="M 156.0 121.0 L 156.0 121.0 L 156.0 121.0 L 157.0 121.0 L 161.0 121.0 L 168.0 121.0 L 176.0 121.0 L 181.0 121.0 L 182.0 122.0 " stroke="black" fill="none" stroke-width="5.0" stroke-linecap="round" stroke-linejoin="round" />
<path d="M 156.0 135.0 L 157.0 136.0 L 159.0 137.0 L 163.0 137.0 L 172.0 136.0 L 180.0 135.0 L 182.0 135.0 " stroke="black" fill="none" stroke-width="5.0" stroke-linecap="round" stroke-linejoin="round" />
<path d="M 163.0 98.0 L 163.0 98.0 L 163.0 98.0 L 163.0 99.0 L 164.0 107.0 L 165.0 122.0 L 165.0 134.0 L 166.0 139.0 L 167.0 139.0 " stroke="black" fill="none" stroke-width="5.0" stroke-linecap="round" stroke-linejoin="round" />
<path d="M 173.0 101.0 L 173.0 101.0 L 173.0 101.0 L 173.0 103.0 L 173.0 112.0 L 174.0 125.0 L 174.0 136.0 L 174.0 139.0 " stroke="black" fill="none" stroke-width="5.0" stroke-linecap="round" stroke-linejoin="round" />
<path d="M 154.0 145.0 L 154.0 145.0 L 154.0 145.0 L 156.0 146.0 L 161.0 146.0 L 170.0 146.0 L 178.0 146.0 L 182.0 146.0 L 182.0 146.0 " stroke="black" fill="none" stroke-width="5.0" stroke-linecap="round" stroke-linejoin="round" />
<path d="M 155.0 156.0 L 155.0 156.0 L 155.0 156.0 L 154.0 157.0 L 154.0 159.0 L 155.0 162.0 L 156.0 163.0 " stroke="black" fill="none" stroke-width="5.0" stroke-linecap="round" stroke-linejoin="round" />
<path d="M 157.0 154.0 L 157.0 154.0 L 157.0 155.0 L 159.0 155.0 L 163.0 155.0 L 171.0 155.0 L 179.0 155.0 L 184.0 156.0 L 185.0 159.0 L 186.0 162.0 L 184.0 165.0 L 182.0 166.0 " stroke="black" fill="none" stroke-width="5.0" stroke-linecap="round" stroke-linejoin="round" />
<path d="M 156.0 165.0 L 157.0 165.0 L 158.0 166.0 L 161.0 167.0 L 167.0 167.0 L 175.0 167.0 L 180.0 167.0 " stroke="black" fill="none" stroke-width="5.0" stroke-linecap="round" stroke-linejoin="round" />
<path d="M 158.0 167.0 L 158.0 167.0 L 158.0 168.0 L 158.0 169.0 L 159.0 171.0 L 160.0 176.0 L 161.0 181.0 L 162.0 182.0 " stroke="black" fill="none" stroke-width="5.0" stroke-linecap="round" stroke-linejoin="round" />
<path d="M 181.0 166.0 L 181.0 167.0 L 181.0 167.0 L 180.0 169.0 L 180.0 174.0 L 180.0 179.0 L 179.0 185.0 " stroke="black" fill="none" stroke-width="5.0" stroke-linecap="round" stroke-linejoin="round" />
<path d="M 155.0 186.0 L 156.0 186.0 L 156.0 186.0 L 159.0 186.0 L 167.0 186.0 L 179.0 185.0 L 188.0 185.0 L 193.0 184.0 L 194.0 184.0 L 194.0 184.0 L 194.0 184.0 L 194.0 184.0 " stroke="black" fill="none" stroke-width="5.0" stroke-linecap="round" stroke-linejoin="round" />
</svg>