<svg xmlns="http://www.w3.org/2000/svg" width="300" height="300" viewBox="0 0 300 300">
<path d="M 116.0 112.0 L 116.0 112.0 L 116.0 112.0 L 116.0 111.0 L 116.0 111.0 L 116.0 114.0 L 116.0 121.0 L 116.0 132.0 L 116.0 139.0 L 116.0 142.0 L 116.0 141.0 " stroke="black" fill="none" stroke-width="5.0" stroke-linecap="round" stroke-linejoin="round" />
<path d="M 119.0 108.0 L 119.0 108.0 L 119.0 108.0 L 120.0 108.0 L 121.0 108.0 L 125.0 108.0 L 130.0 108.0 L 136.0 108.0 L 139.0 110.0 L 142.0 114.0 L 143.0 122.0 L 144.0 130.0 L 144.0 137.0 L 144.0 140.0 L 144.0 141.0 " stroke="black" fill="none" stroke-width="5.0" stroke-linecap="round" stroke-linejoin="round" />
<path d="M 126.0 125.0 L 126.0 125.0 L 126.0 126.0 L 126.0 127.0 L 126.0 130.0 L 126.0 133.0 L 127.0 136.0 L 127.0 137.0 " stroke="black" fill="none" stroke-width="5.0" stroke-linecap="round" stroke-linejoin="round" />
<path d="M 126.0 123.0 L 127.0 123.0 L 127.0 124.0 L 127.0 124.0 L 128.0 124.0 L 129.0 124.0 L 133.0 124.0 L 137.0 124.0 L 140.0 124.0 L 141.0 124.0 " stroke="black" fill="none" stroke-width="5.0" stroke-linecap="round" stroke-linejoin="round" />
<path d="M 107.0 143.0 L 107.0 143.0 L 107.0 143.0 L 106.0 143.0 L 106.0 143.0 L 109.0 143.0 L 119.0 143.0 L 131.0 142.0 L 141.0 142.0 L 146.0 142.0 L 148.0 143.0 L 149.0 144.0 L 149.0 145.0 L 149.0 146.0 L 149.0 148.0 L 148.0 150.0 " stroke="black" fill="none" stroke-width="5.0" stroke-linecap="round" stroke-linejoin="round" />
<path d="M 105.0 144.0 L 105.0 144.0 L 105.0 144.0 L 105.0 147.0 L 105.0 152.0 L 106.0 156.0 " stroke="black" fill="none" stroke-width="5.0" stroke-linecap="round" stroke-linejoin="round" />
<path d="M 116.0 151.0 L 116.0 151.0 L 116.0 152.0 L 116.0 153.0 L 116.0 156.0 L 116.0 164.0 L 115.0 178.0 L 114.0 189.0 L 113.0 194.0 L 113.0 195.0 L 114.0 194.0 " stroke="black" fill="none" stroke-width="5.0" stroke-linecap="round" stroke-linejoin="round" />
<path d="M 118.0 153.0 L 118.0 153.0 L 119.0 153.0 L 119.0 152.0 L 121.0 152.0 L 124.0 152.0 L 127.0 152.0 L 130.0 152.0 L 134.0 155.0 L 137.0 159.0 L 140.0 167.0 L 142.0 177.0 L 143.0 185.0 L 143.0 188.0 L 142.0 189.0 L 139.0 189.0 L 132.0 187.0 L 129.0 186.0 " stroke="black" fill="none" stroke-width="5.0" stroke-linecap="round" stroke-linejoin="round" />
<path d="M 117.0 161.0 L 117.0 161.0 L 118.0 161.0 L 118.0 161.0 L 121.0 162.0 L 127.0 162.0 L 131.0 162.0 L 134.0 162.0 " stroke="black" fill="none" stroke-width="5.0" stroke-linecap="round" stroke-linejoin="round" />
<path d="M 116.0 172.0 L 116.0 172.0 L 117.0 173.0 L 119.0 174.0 L 126.0 174.0 L 135.0 174.0 " stroke="black" fill="none" stroke-width="5.0" stroke-linecap="round" stroke-linejoin="round" />
<path d="M 154.0 114.0 L 154.0 114.0 L 154.0 114.0 L 154.0 114.0 L 154.0 114.0 L 154.0 118.0 L 154.0 127.0 L 155.0 134.0 L 155.0 138.0 L 155.0 139.0 " stroke="black" fill="none" stroke-width="5.0" stroke-linecap="round" stroke-linejoin="round" />
<path d="M 155.0 116.0 L 155.0 116.0 L 155.0 115.0 L 156.0 114.0 L 157.0 113.0 L 161.0 113.0 L 166.0 113.0 L 172.0 113.0 L 176.0 114.0 L 179.0 118.0 L 182.0 124.0 L 184.0 132.0 L 186.0 139.0 L 187.0 143.0 L 187.0 143.0 L 187.0 143.0 " stroke="black" fill="none" stroke-width="5.0" stroke-linecap="round" stroke-linejoin="round" />
<path d="M 158.0 129.0 L 158.0 129.0 L 158.0 129.0 L 158.0 129.0 L 160.0 129.0 L 167.0 130.0 L 175.0 130.0 L 179.0 130.0 L 181.0 131.0 L 181.0 132.0 " stroke="black" fill="none" stroke-width="5.0" stroke-linecap="round" stroke-linejoin="round" />
<path d="M 156.0 144.0 L 157.0 145.0 L 161.0 146.0 L 167.0 147.0 L 174.0 147.0 L 179.0 146.0 " stroke="black" fill="none" stroke-width="5.0" stroke-linecap="round" stroke-linejoin="round" />
<path d="M 161.0 102.0 L 161.0 102.0 L 161.0 102.0 L 161.0 102.0 L 161.0 104.0 L 162.0 115.0 L 162.0 132.0 L 162.0 145.0 L 163.0 148.0 " stroke="black" fill="none" stroke-width="5.0" stroke-linecap="round" stroke-linejoin="round" />
<path d="M 171.0 94.0 L 171.0 94.0 L 171.0 94.0 L 171.0 98.0 L 172.0 111.0 L 174.0 127.0 L 174.0 139.0 L 174.0 143.0 " stroke="black" fill="none" stroke-width="5.0" stroke-linecap="round" stroke-linejoin="round" />
<path d="M 155.0 158.0 L 155.0 158.0 L 155.0 158.0 L 155.0 158.0 L 158.0 158.0 L 165.0 158.0 L 173.0 158.0 L 178.0 157.0 L 179.0 157.0 " stroke="black" fill="none" stroke-width="5.0" stroke-linecap="round" stroke-linejoin="round" />
<path d="M 152.0 167.0 L 152.0 167.0 L 152.0 167.0 L 152.0 169.0 L 152.0 172.0 L 153.0 176.0 L 154.0 178.0 " stroke="black" fill="none" stroke-width="5.0" stroke-linecap="round" stroke-linejoin="round" />
<path d="M 155.0 170.0 L 155.0 170.0 L 156.0 171.0 L 160.0 171.0 L 167.0 169.0 L 175.0 168.0 L 180.0 167.0 L 182.0 169.0 L 182.0 174.0 L 180.0 178.0 L 178.0 180.0 " stroke="black" fill="none" stroke-width="5.0" stroke-linecap="round" stroke-linejoin="round" />
<path d="M 154.0 177.0 L 154.0 177.0 L 154.0 177.0 L 155.0 177.0 L 156.0 178.0 L 160.0 178.0 L 167.0 178.0 L 172.0 178.0 L 173.0 179.0 " stroke="black" fill="none" stroke-width="5.0" stroke-linecap="round" stroke-linejoin="round" />
<path d="M 153.0 183.0 L 153.0 183.0 L 153.0 184.0 L 154.0 187.0 L 156.0 190.0 L 157.0 191.0 " stroke="black" fill="none" stroke-width="5.0" stroke-linecap="round" stroke-linejoin="round" />
<path d="M 180.0 177.0 L 180.0 177.0 L 180.0 178.0 L 179.0 179.0 L 178.0 182.0 L 175.0 186.0 " stroke="black" fill="none" stroke-width="5.0" stroke-linecap="round" stroke-linejoin="round" />
<path d="M 150.0 195.0 L 150.0 195.0 L 151.0 195.0 L 152.0 195.0 L 158.0 196.0 L 172.0 196.0 L 186.0 196.0 L 192.0 195.0 L 193.0 195.0 L 192.0 195.0 " stroke="black" fill="none" stroke-width="5.0" stroke-linecap="round" stroke-linejoin="round" />
</svg>