<svg xmlns="http://www.w3.org/2000/svg" width="300" height="300" viewBox="0 0 300 300">
<path d="M 116.0 115.0 L 116.0 115.0 L 116.0 115.0 L 116.0 115.0 L 116.0 115.0 L 116.0 115.0 L 116.0 116.0 L 116.0 120.0 L 116.0 127.0 L 117.0 135.0 L 118.0 136.0 " stroke="black" fill="none" stroke-width="5.0" stroke-linecap="round" stroke-linejoin="round" />
<path d="M 116.0 114.0 L 116.0 114.0 L 117.0 115.0 L 117.0 115.0 L 118.0 115.0 L 120.0 115.0 L 124.0 115.0 L 128.0 114.0 L 132.0 113.0 L 135.0 113.0 L 137.0 114.0 L 139.0 116.0 L 141.0 120.0 L 142.0 127.0 L 142.0 134.0 L 142.0 139.0 L 142.0 139.0 " stroke="black" fill="none" stroke-width="5.0" stroke-linecap="round" stroke-linejoin="round" />
<path d="M 130.0 133.0 L 130.0 133.0 L 129.0 133.0 L 129.0 133.0 L 128.0 133.0 L 128.0 132.0 L 127.0 131.0 L 126.0 129.0 L 126.0 128.0 L 126.0 127.0 L 126.0 126.0 L 127.0 125.0 L 131.0 125.0 L 135.0 125.0 L 139.0 126.0 L 143.0 127.0 L 143.0 127.0 " stroke="black" fill="none" stroke-width="5.0" stroke-linecap="round" stroke-linejoin="round" />
<path d="M 109.0 142.0 L 109.0 142.0 L 109.0 142.0 L 113.0 142.0 L 123.0 142.0 L 135.0 142.0 L 144.0 143.0 L 146.0 146.0 L 146.0 148.0 " stroke="black" fill="none" stroke-width="5.0" stroke-linecap="round" stroke-linejoin="round" />
<path d="M 108.0 147.0 L 108.0 147.0 L 108.0 147.0 L 108.0 148.0 L 108.0 151.0 " stroke="black" fill="none" stroke-width="5.0" stroke-linecap="round" stroke-linejoin="round" />
<path d="M 119.0 151.0 L 119.0 151.0 L 119.0 151.0 L 119.0 151.0 L 119.0 154.0 L 119.0 161.0 L 119.0 174.0 L 118.0 188.0 L 117.0 195.0 L 117.0 196.0 L 118.0 194.0 " stroke="black" fill="none" stroke-width="5.0" stroke-linecap="round" stroke-linejoin="round" />
<path d="M 123.0 152.0 L 124.0 152.0 L 125.0 152.0 L 126.0 151.0 L 128.0 150.0 L 131.0 150.0 L 134.0 151.0 L 137.0 154.0 L 141.0 159.0 L 144.0 166.0 L 147.0 176.0 L 148.0 186.0 L 149.0 192.0 L 149.0 195.0 L 147.0 195.0 L 144.0 195.0 L 138.0 192.0 " stroke="black" fill="none" stroke-width="5.0" stroke-linecap="round" stroke-linejoin="round" />
<path d="M 124.0 163.0 L 124.0 163.0 L 125.0 163.0 L 126.0 163.0 L 129.0 163.0 L 134.0 163.0 L 139.0 164.0 L 140.0 165.0 " stroke="black" fill="none" stroke-width="5.0" stroke-linecap="round" stroke-linejoin="round" />
<path d="M 122.0 175.0 L 123.0 175.0 L 126.0 176.0 L 130.0 176.0 L 137.0 177.0 L 143.0 177.0 " stroke="black" fill="none" stroke-width="5.0" stroke-linecap="round" stroke-linejoin="round" />
<path d="M 153.0 125.0 L 153.0 126.0 L 153.0 127.0 L 153.0 130.0 L 154.0 138.0 L 155.0 147.0 L 156.0 152.0 L 156.0 153.0 " stroke="black" fill="none" stroke-width="5.0" stroke-linecap="round" stroke-linejoin="round" />
<path d="M 154.0 125.0 L 154.0 125.0 L 155.0 125.0 L 158.0 125.0 L 162.0 125.0 L 168.0 125.0 L 174.0 126.0 L 180.0 127.0 L 184.0 129.0 L 187.0 133.0 L 188.0 140.0 L 189.0 147.0 L 189.0 150.0 L 189.0 151.0 " stroke="black" fill="none" stroke-width="5.0" stroke-linecap="round" stroke-linejoin="round" />
<path d="M 156.0 138.0 L 156.0 138.0 L 156.0 138.0 L 156.0 138.0 L 159.0 138.0 L 166.0 138.0 L 176.0 138.0 L 183.0 138.0 L 186.0 138.0 " stroke="black" fill="none" stroke-width="5.0" stroke-linecap="round" stroke-linejoin="round" />
<path d="M 157.0 151.0 L 157.0 151.0 L 158.0 151.0 L 160.0 151.0 L 166.0 151.0 L 175.0 151.0 L 184.0 149.0 L 188.0 148.0 " stroke="black" fill="none" stroke-width="5.0" stroke-linecap="round" stroke-linejoin="round" />
<path d="M 165.0 112.0 L 165.0 112.0 L 165.0 112.0 L 165.0 118.0 L 166.0 132.0 L 166.0 145.0 L 168.0 151.0 L 168.0 151.0 " stroke="black" fill="none" stroke-width="5.0" stroke-linecap="round" stroke-linejoin="round" />
<path d="M 179.0 112.0 L 179.0 113.0 L 178.0 116.0 L 178.0 122.0 L 178.0 131.0 L 178.0 141.0 L 178.0 151.0 " stroke="black" fill="none" stroke-width="5.0" stroke-linecap="round" stroke-linejoin="round" />
<path d="M 162.0 160.0 L 163.0 160.0 L 164.0 160.0 L 165.0 160.0 L 168.0 160.0 L 173.0 160.0 L 179.0 159.0 L 183.0 158.0 L 184.0 158.0 " stroke="black" fill="none" stroke-width="5.0" stroke-linecap="round" stroke-linejoin="round" />
<path d="M 159.0 166.0 L 159.0 167.0 L 160.0 168.0 L 160.0 170.0 L 160.0 172.0 L 161.0 174.0 L 161.0 176.0 L 161.0 176.0 " stroke="black" fill="none" stroke-width="5.0" stroke-linecap="round" stroke-linejoin="round" />
<path d="M 162.0 168.0 L 163.0 168.0 L 164.0 168.0 L 167.0 168.0 L 171.0 167.0 L 176.0 167.0 L 181.0 167.0 L 186.0 168.0 L 187.0 170.0 L 188.0 173.0 L 186.0 177.0 " stroke="black" fill="none" stroke-width="5.0" stroke-linecap="round" stroke-linejoin="round" />
<path d="M 164.0 180.0 L 165.0 180.0 L 165.0 179.0 L 167.0 178.0 L 172.0 178.0 L 178.0 178.0 L 184.0 179.0 L 185.0 179.0 " stroke="black" fill="none" stroke-width="5.0" stroke-linecap="round" stroke-linejoin="round" />
<path d="M 163.0 180.0 L 164.0 181.0 L 165.0 183.0 L 167.0 186.0 L 169.0 188.0 L 169.0 188.0 " stroke="black" fill="none" stroke-width="5.0" stroke-linecap="round" stroke-linejoin="round" />
<path d="M 186.0 177.0 L 186.0 178.0 L 184.0 180.0 L 183.0 183.0 L 181.0 186.0 L 179.0 189.0 L 178.0 191.0 " stroke="black" fill="none" stroke-width="5.0" stroke-linecap="round" stroke-linejoin="round" />
<path d="M 160.0 194.0 L 160.0 194.0 L 161.0 194.0 L 161.0 194.0 L 162.0 193.0 L 164.0 193.0 L 169.0 192.0 L 178.0 191.0 L 190.0 190.0 L 195.0 189.0 " stroke="black" fill="none" stroke-width="5.0" stroke-linecap="round" stroke-linejoin="round" />
</svg>