<svg xmlns="http://www.w3.org/2000/svg" width="300" height="300" viewBox="0 0 300 300">
<path d="M 116.0 120.0 L 118.0 120.0 L 121.0 120.0 L 125.0 120.0 L 131.0 119.0 L 139.0 118.0 L 141.0 118.0 " stroke="black" fill="none" stroke-width="5.0" stroke-linecap="round" stroke-linejoin="round" />
<path d="M 116.0 136.0 L 117.0 136.0 L 119.0 136.0 L 121.0 136.0 L 126.0 136.0 L 134.0 136.0 L 140.0 135.0 " stroke="black" fill="none" stroke-width="5.0" stroke-linecap="round" stroke-linejoin="round" />
<path d="M 127.0 106.0 L 128.0 106.0 L 128.0 109.0 L 129.0 113.0 L 130.0 129.0 L 130.0 131.0 " stroke="black" fill="none" stroke-width="5.0" stroke-linecap="round" stroke-linejoin="round" />
<path d="M 113.0 149.0 L 113.0 149.0 L 112.0 149.0 L 112.0 149.0 L 112.0 152.0 L 113.0 155.0 L 115.0 157.0 " stroke="black" fill="none" stroke-width="5.0" stroke-linecap="round" stroke-linejoin="round" />
<path d="M 114.0 147.0 L 114.0 147.0 L 113.0 146.0 L 113.0 146.0 L 117.0 146.0 L 122.0 146.0 L 128.0 146.0 L 135.0 146.0 L 139.0 146.0 L 141.0 148.0 L 142.0 152.0 L 142.0 155.0 L 141.0 158.0 L 141.0 159.0 " stroke="black" fill="none" stroke-width="5.0" stroke-linecap="round" stroke-linejoin="round" />
<path d="M 115.0 160.0 L 115.0 160.0 L 116.0 161.0 L 120.0 161.0 L 126.0 161.0 L 132.0 160.0 L 137.0 160.0 " stroke="black" fill="none" stroke-width="5.0" stroke-linecap="round" stroke-linejoin="round" />
<path d="M 117.0 161.0 L 117.0 161.0 L 117.0 162.0 L 118.0 165.0 L 118.0 171.0 L 119.0 177.0 L 120.0 179.0 " stroke="black" fill="none" stroke-width="5.0" stroke-linecap="round" stroke-linejoin="round" />
<path d="M 137.0 160.0 L 137.0 161.0 L 138.0 163.0 L 138.0 166.0 L 138.0 171.0 L 138.0 177.0 L 137.0 182.0 " stroke="black" fill="none" stroke-width="5.0" stroke-linecap="round" stroke-linejoin="round" />
<path d="M 110.0 186.0 L 110.0 186.0 L 111.0 186.0 L 113.0 187.0 L 120.0 187.0 L 133.0 187.0 L 144.0 186.0 L 147.0 186.0 " stroke="black" fill="none" stroke-width="5.0" stroke-linecap="round" stroke-linejoin="round" />
<path d="M 152.0 134.0 L 152.0 134.0 L 153.0 134.0 L 154.0 134.0 L 156.0 135.0 L 162.0 135.0 L 169.0 135.0 L 173.0 135.0 " stroke="black" fill="none" stroke-width="5.0" stroke-linecap="round" stroke-linejoin="round" />
<path d="M 162.0 111.0 L 161.0 112.0 L 161.0 113.0 L 161.0 119.0 L 163.0 131.0 L 164.0 144.0 L 164.0 148.0 " stroke="black" fill="none" stroke-width="5.0" stroke-linecap="round" stroke-linejoin="round" />
<path d="M 153.0 155.0 L 153.0 155.0 L 154.0 156.0 L 158.0 157.0 L 166.0 157.0 L 174.0 155.0 L 180.0 155.0 L 182.0 155.0 L 183.0 157.0 L 181.0 163.0 L 178.0 171.0 L 174.0 180.0 L 169.0 188.0 L 166.0 193.0 L 165.0 194.0 " stroke="black" fill="none" stroke-width="5.0" stroke-linecap="round" stroke-linejoin="round" />
<path d="M 154.0 156.0 L 154.0 156.0 L 155.0 158.0 L 158.0 162.0 L 165.0 173.0 L 175.0 188.0 L 183.0 200.0 L 186.0 205.0 L 188.0 207.0 L 188.0 207.0 L 188.0 207.0 " stroke="black" fill="none" stroke-width="5.0" stroke-linecap="round" stroke-linejoin="round" />
</svg>