<svg xmlns="http://www.w3.org/2000/svg" width="300" height="300" viewBox="0 0 300 300">
<path d="M 110.0 115.0 L 110.0 115.0 L 110.0 115.0 L 110.0 115.0 L 111.0 115.0 L 112.0 115.0 L 115.0 115.0 L 119.0 115.0 L 125.0 115.0 L 131.0 115.0 L 135.0 115.0 " stroke="black" fill="none" stroke-width="5.0" stroke-linecap="round" stroke-linejoin="round" />
<path d="M 113.0 132.0 L 113.0 132.0 L 114.0 132.0 L 116.0 132.0 L 118.0 132.0 L 122.0 132.0 L 128.0 132.0 L 133.0 132.0 L 134.0 132.0 " stroke="black" fill="none" stroke-width="5.0" stroke-linecap="round" stroke-linejoin="round" />
<path d="M 119.0 107.0 L 120.0 106.0 L 121.0 106.0 L 121.0 109.0 L 122.0 117.0 L 123.0 125.0 L 123.0 132.0 " stroke="black" fill="none" stroke-width="5.0" stroke-linecap="round" stroke-linejoin="round" />
<path d="M 110.0 146.0 L 110.0 146.0 L 110.0 146.0 L 110.0 148.0 L 111.0 149.0 L 111.0 151.0 L 112.0 153.0 L 113.0 155.0 " stroke="black" fill="none" stroke-width="5.0" stroke-linecap="round" stroke-linejoin="round" />
<path d="M 111.0 146.0 L 112.0 146.0 L 113.0 146.0 L 114.0 146.0 L 116.0 146.0 L 120.0 146.0 L 125.0 145.0 L 130.0 145.0 L 134.0 147.0 L 136.0 150.0 L 137.0 154.0 L 137.0 156.0 L 137.0 157.0 " stroke="black" fill="none" stroke-width="5.0" stroke-linecap="round" stroke-linejoin="round" />
<path d="M 112.0 159.0 L 112.0 159.0 L 112.0 160.0 L 113.0 160.0 L 118.0 160.0 L 125.0 160.0 L 132.0 159.0 L 136.0 159.0 " stroke="black" fill="none" stroke-width="5.0" stroke-linecap="round" stroke-linejoin="round" />
<path d="M 112.0 163.0 L 112.0 163.0 L 113.0 163.0 L 113.0 163.0 L 113.0 164.0 L 114.0 168.0 L 115.0 176.0 L 117.0 182.0 L 117.0 183.0 " stroke="black" fill="none" stroke-width="5.0" stroke-linecap="round" stroke-linejoin="round" />
<path d="M 134.0 163.0 L 134.0 163.0 L 134.0 164.0 L 133.0 165.0 L 133.0 167.0 L 133.0 172.0 L 133.0 181.0 L 133.0 188.0 L 133.0 189.0 " stroke="black" fill="none" stroke-width="5.0" stroke-linecap="round" stroke-linejoin="round" />
<path d="M 109.0 190.0 L 109.0 190.0 L 109.0 191.0 L 110.0 191.0 L 116.0 192.0 L 126.0 192.0 L 137.0 192.0 L 145.0 192.0 L 147.0 192.0 " stroke="black" fill="none" stroke-width="5.0" stroke-linecap="round" stroke-linejoin="round" />
<path d="M 152.0 120.0 L 152.0 120.0 L 153.0 120.0 L 154.0 121.0 L 158.0 121.0 L 163.0 121.0 L 169.0 121.0 L 173.0 120.0 L 174.0 119.0 " stroke="black" fill="none" stroke-width="5.0" stroke-linecap="round" stroke-linejoin="round" />
<path d="M 159.0 113.0 L 159.0 113.0 L 159.0 113.0 L 159.0 114.0 L 160.0 119.0 L 161.0 128.0 L 161.0 132.0 " stroke="black" fill="none" stroke-width="5.0" stroke-linecap="round" stroke-linejoin="round" />
<path d="M 151.0 142.0 L 152.0 142.0 L 153.0 142.0 L 157.0 143.0 L 164.0 144.0 L 171.0 144.0 L 175.0 144.0 L 177.0 144.0 L 178.0 148.0 L 176.0 155.0 L 172.0 165.0 L 168.0 177.0 L 163.0 188.0 L 159.0 194.0 L 158.0 195.0 " stroke="black" fill="none" stroke-width="5.0" stroke-linecap="round" stroke-linejoin="round" />
<path d="M 152.0 145.0 L 153.0 145.0 L 154.0 147.0 L 157.0 151.0 L 163.0 164.0 L 173.0 182.0 L 182.0 198.0 L 186.0 207.0 L 188.0 212.0 L 188.0 213.0 L 187.0 211.0 L 187.0 208.0 " stroke="black" fill="none" stroke-width="5.0" stroke-linecap="round" stroke-linejoin="round" />
</svg>