<svg xmlns="http://www.w3.org/2000/svg" width="300" height="300" viewBox="0 0 300 300">
<path d="M 112.0 115.0 L 112.0 115.0 L 112.0 115.0 L 112.0 115.0 L 113.0 116.0 L 115.0 116.0 L 120.0 116.0 L 130.0 116.0 L 138.0 115.0 L 139.0 115.0 " stroke="black" fill="none" stroke-width="5.0" stroke-linecap="round" stroke-linejoin="round" />
<path d="M 116.0 133.0 L 116.0 133.0 L 116.0 133.0 L 116.0 134.0 L 117.0 134.0 L 122.0 134.0 L 131.0 134.0 L 140.0 134.0 " stroke="black" fill="none" stroke-width="5.0" stroke-linecap="round" stroke-linejoin="round" />
<path d="M 125.0 101.0 L 125.0 101.0 L 125.0 100.0 L 125.0 100.0 L 126.0 107.0 L 127.0 120.0 L 128.0 129.0 " stroke="black" fill="none" stroke-width="5.0" stroke-linecap="round" stroke-linejoin="round" />
<path d="M 114.0 150.0 L 115.0 150.0 L 115.0 151.0 L 115.0 153.0 L 116.0 157.0 L 117.0 161.0 L 117.0 163.0 L 117.0 163.0 " stroke="black" fill="none" stroke-width="5.0" stroke-linecap="round" stroke-linejoin="round" />
<path d="M 114.0 148.0 L 114.0 148.0 L 114.0 148.0 L 114.0 148.0 L 117.0 148.0 L 125.0 148.0 L 136.0 146.0 L 144.0 146.0 L 147.0 148.0 L 147.0 153.0 L 147.0 160.0 L 145.0 164.0 L 145.0 165.0 " stroke="black" fill="none" stroke-width="5.0" stroke-linecap="round" stroke-linejoin="round" />
<path d="M 116.0 167.0 L 116.0 168.0 L 116.0 169.0 L 116.0 170.0 L 120.0 170.0 L 128.0 170.0 L 137.0 168.0 " stroke="black" fill="none" stroke-width="5.0" stroke-linecap="round" stroke-linejoin="round" />
<path d="M 118.0 168.0 L 118.0 168.0 L 118.0 168.0 L 119.0 170.0 L 120.0 177.0 L 121.0 184.0 L 122.0 188.0 " stroke="black" fill="none" stroke-width="5.0" stroke-linecap="round" stroke-linejoin="round" />
<path d="M 142.0 168.0 L 142.0 169.0 L 142.0 172.0 L 141.0 177.0 L 139.0 183.0 L 137.0 190.0 L 136.0 191.0 " stroke="black" fill="none" stroke-width="5.0" stroke-linecap="round" stroke-linejoin="round" />
<path d="M 108.0 192.0 L 108.0 192.0 L 108.0 192.0 L 112.0 192.0 L 123.0 193.0 L 141.0 193.0 L 151.0 191.0 " stroke="black" fill="none" stroke-width="5.0" stroke-linecap="round" stroke-linejoin="round" />
<path d="M 158.0 126.0 L 158.0 126.0 L 156.0 126.0 L 155.0 127.0 L 157.0 127.0 L 164.0 127.0 L 174.0 127.0 L 182.0 127.0 L 184.0 127.0 " stroke="black" fill="none" stroke-width="5.0" stroke-linecap="round" stroke-linejoin="round" />
<path d="M 167.0 110.0 L 167.0 110.0 L 167.0 110.0 L 167.0 110.0 L 167.0 114.0 L 168.0 127.0 L 169.0 142.0 L 169.0 150.0 " stroke="black" fill="none" stroke-width="5.0" stroke-linecap="round" stroke-linejoin="round" />
<path d="M 156.0 156.0 L 156.0 156.0 L 157.0 157.0 L 160.0 157.0 L 169.0 157.0 L 181.0 156.0 L 188.0 154.0 L 190.0 154.0 L 190.0 155.0 L 189.0 160.0 L 186.0 168.0 L 182.0 179.0 L 177.0 190.0 L 171.0 200.0 L 166.0 206.0 L 165.0 206.0 " stroke="black" fill="none" stroke-width="5.0" stroke-linecap="round" stroke-linejoin="round" />
<path d="M 159.0 158.0 L 160.0 159.0 L 161.0 160.0 L 167.0 169.0 L 177.0 186.0 L 184.0 201.0 L 188.0 210.0 L 188.0 214.0 " stroke="black" fill="none" stroke-width="5.0" stroke-linecap="round" stroke-linejoin="round" />
</svg>