<svg xmlns="http://www.w3.org/2000/svg" width="300" height="300" viewBox="0 0 300 300">
<path d="M 116.0 116.0 L 117.0 116.0 L 117.0 116.0 L 118.0 116.0 L 122.0 116.0 L 130.0 116.0 L 138.0 116.0 L 144.0 115.0 " stroke="black" fill="none" stroke-width="5.0" stroke-linecap="round" stroke-linejoin="round" />
<path d="M 121.0 133.0 L 121.0 133.0 L 122.0 134.0 L 124.0 134.0 L 128.0 134.0 L 136.0 134.0 L 142.0 133.0 L 143.0 133.0 " stroke="black" fill="none" stroke-width="5.0" stroke-linecap="round" stroke-linejoin="round" />
<path d="M 130.0 106.0 L 130.0 106.0 L 129.0 108.0 L 130.0 116.0 L 132.0 126.0 L 133.0 130.0 " stroke="black" fill="none" stroke-width="5.0" stroke-linecap="round" stroke-linejoin="round" />
<path d="M 115.0 149.0 L 115.0 150.0 L 115.0 151.0 L 115.0 154.0 L 116.0 157.0 L 117.0 159.0 " stroke="black" fill="none" stroke-width="5.0" stroke-linecap="round" stroke-linejoin="round" />
<path d="M 116.0 149.0 L 116.0 149.0 L 116.0 149.0 L 116.0 149.0 L 119.0 148.0 L 127.0 146.0 L 135.0 146.0 L 145.0 147.0 L 147.0 150.0 L 148.0 153.0 L 148.0 156.0 L 147.0 157.0 " stroke="black" fill="none" stroke-width="5.0" stroke-linecap="round" stroke-linejoin="round" />
<path d="M 117.0 159.0 L 117.0 160.0 L 117.0 161.0 L 120.0 162.0 L 126.0 162.0 L 135.0 161.0 L 140.0 160.0 " stroke="black" fill="none" stroke-width="5.0" stroke-linecap="round" stroke-linejoin="round" />
<path d="M 120.0 161.0 L 120.0 161.0 L 120.0 161.0 L 120.0 162.0 L 121.0 166.0 L 124.0 171.0 L 124.0 172.0 " stroke="black" fill="none" stroke-width="5.0" stroke-linecap="round" stroke-linejoin="round" />
<path d="M 142.0 161.0 L 142.0 161.0 L 141.0 162.0 L 141.0 163.0 L 140.0 167.0 L 139.0 174.0 L 137.0 180.0 " stroke="black" fill="none" stroke-width="5.0" stroke-linecap="round" stroke-linejoin="round" />
<path d="M 111.0 184.0 L 111.0 184.0 L 111.0 184.0 L 111.0 185.0 L 116.0 185.0 L 131.0 184.0 L 149.0 181.0 L 155.0 180.0 " stroke="black" fill="none" stroke-width="5.0" stroke-linecap="round" stroke-linejoin="round" />
<path d="M 159.0 127.0 L 159.0 127.0 L 159.0 127.0 L 162.0 128.0 L 168.0 129.0 L 177.0 129.0 L 182.0 129.0 " stroke="black" fill="none" stroke-width="5.0" stroke-linecap="round" stroke-linejoin="round" />
<path d="M 167.0 116.0 L 167.0 116.0 L 167.0 116.0 L 167.0 118.0 L 168.0 127.0 L 169.0 139.0 L 169.0 149.0 L 169.0 152.0 " stroke="black" fill="none" stroke-width="5.0" stroke-linecap="round" stroke-linejoin="round" />
<path d="M 159.0 151.0 L 159.0 151.0 L 159.0 151.0 L 159.0 152.0 L 162.0 152.0 L 171.0 152.0 L 180.0 151.0 L 186.0 151.0 L 187.0 151.0 L 187.0 152.0 L 184.0 158.0 L 180.0 168.0 L 176.0 178.0 L 171.0 186.0 L 167.0 191.0 " stroke="black" fill="none" stroke-width="5.0" stroke-linecap="round" stroke-linejoin="round" />
<path d="M 158.0 156.0 L 158.0 156.0 L 158.0 157.0 L 159.0 160.0 L 167.0 170.0 L 179.0 187.0 L 187.0 201.0 L 189.0 207.0 " stroke="black" fill="none" stroke-width="5.0" stroke-linecap="round" stroke-linejoin="round" />
</svg>