<svg xmlns="http://www.w3.org/2000/svg" width="300" height="300" viewBox="0 0 300 300">
<path d="M 124.0 119.0 L 124.0 119.0 L 126.0 119.0 L 128.0 119.0 L 135.0 119.0 L 148.0 119.0 L 162.0 118.0 L 174.0 118.0 L 179.0 117.0 " stroke="black" fill="none" stroke-width="5.0" stroke-linecap="round" stroke-linejoin="round" />
<path d="M 151.0 104.0 L 151.0 104.0 L 151.0 104.0 L 151.0 104.0 L 151.0 108.0 L 148.0 118.0 L 140.0 135.0 L 128.0 151.0 L 114.0 163.0 L 112.0 165.0 " stroke="black" fill="none" stroke-width="5.0" stroke-linecap="round" stroke-linejoin="round" />
<path d="M 138.0 150.0 L 138.0 150.0 L 138.0 150.0 L 138.0 150.0 L 141.0 150.0 L 148.0 150.0 L 160.0 150.0 L 172.0 149.0 L 177.0 149.0 L 177.0 150.0 " stroke="black" fill="none" stroke-width="5.0" stroke-linecap="round" stroke-linejoin="round" />
<path d="M 153.0 154.0 L 153.0 154.0 L 153.0 154.0 L 153.0 155.0 L 153.0 157.0 L 154.0 162.0 L 155.0 172.0 L 156.0 179.0 " stroke="black" fill="none" stroke-width="5.0" stroke-linecap="round" stroke-linejoin="round" />
<path d="M 126.0 190.0 L 126.0 190.0 L 127.0 190.0 L 131.0 190.0 L 142.0 190.0 L 156.0 190.0 L 170.0 190.0 L 181.0 190.0 L 187.0 190.0 L 189.0 190.0 L 187.0 190.0 " stroke="black" fill="none" stroke-width="5.0" stroke-linecap="round" stroke-linejoin="round" />
</svg>