<svg xmlns="http://www.w3.org/2000/svg" width="300" height="300" viewBox="0 0 300 300">
<path d="M 130.0 125.0 L 130.0 126.0 L 131.0 128.0 L 132.0 134.0 L 136.0 142.0 L 140.0 147.0 " stroke="black" fill="none" stroke-width="5.0" stroke-linecap="round" stroke-linejoin="round" />
<path d="M 168.0 123.0 L 169.0 124.0 L 169.0 128.0 L 169.0 133.0 L 167.0 140.0 L 165.0 146.0 L 164.0 148.0 " stroke="black" fill="none" stroke-width="5.0" stroke-linecap="round" stroke-linejoin="round" />
<path d="M 154.0 104.0 L 154.0 106.0 L 153.0 110.0 L 152.0 119.0 L 151.0 134.0 L 147.0 151.0 L 139.0 166.0 L 131.0 177.0 L 124.0 182.0 " stroke="black" fill="none" stroke-width="5.0" stroke-linecap="round" stroke-linejoin="round" />
<path d="M 144.0 161.0 L 145.0 162.0 L 146.0 163.0 L 150.0 168.0 L 156.0 178.0 L 167.0 191.0 L 178.0 200.0 L 185.0 203.0 L 188.0 204.0 " stroke="black" fill="none" stroke-width="5.0" stroke-linecap="round" stroke-linejoin="round" />
</svg>