<svg xmlns="http://www.w3.org/2000/svg" width="300" height="300" viewBox="0 0 300 300">
<path d="M 142.0 102.0 L 142.0 104.0 L 144.0 107.0 L 147.0 111.0 L 148.0 113.0 " stroke="black" fill="none" stroke-width="5.0" stroke-linecap="round" stroke-linejoin="round" />
<path d="M 126.0 117.0 L 126.0 117.0 L 126.0 117.0 L 128.0 117.0 L 136.0 117.0 L 148.0 117.0 L 160.0 116.0 L 168.0 115.0 L 169.0 115.0 L 169.0 115.0 " stroke="black" fill="none" stroke-width="5.0" stroke-linecap="round" stroke-linejoin="round" />
<path d="M 139.0 117.0 L 139.0 117.0 L 139.0 117.0 L 139.0 117.0 L 138.0 119.0 L 138.0 124.0 L 138.0 130.0 L 139.0 135.0 L 142.0 138.0 L 149.0 138.0 L 156.0 137.0 " stroke="black" fill="none" stroke-width="5.0" stroke-linecap="round" stroke-linejoin="round" />
<path d="M 118.0 151.0 L 118.0 151.0 L 118.0 151.0 L 118.0 151.0 L 117.0 153.0 L 115.0 158.0 L 111.0 165.0 L 107.0 174.0 L 107.0 175.0 " stroke="black" fill="none" stroke-width="5.0" stroke-linecap="round" stroke-linejoin="round" />
<path d="M 128.0 161.0 L 128.0 162.0 L 128.0 163.0 L 128.0 165.0 L 127.0 167.0 L 127.0 170.0 L 127.0 174.0 L 127.0 178.0 L 131.0 182.0 L 137.0 184.0 L 146.0 185.0 L 157.0 185.0 L 165.0 185.0 L 172.0 184.0 L 176.0 181.0 L 177.0 178.0 L 176.0 175.0 L 172.0 170.0 L 170.0 167.0 " stroke="black" fill="none" stroke-width="5.0" stroke-linecap="round" stroke-linejoin="round" />
<path d="M 150.0 153.0 L 150.0 153.0 L 150.0 154.0 L 150.0 156.0 L 151.0 161.0 L 153.0 165.0 " stroke="black" fill="none" stroke-width="5.0" stroke-linecap="round" stroke-linejoin="round" />
<path d="M 182.0 150.0 L 182.0 150.0 L 182.0 150.0 L 184.0 152.0 L 188.0 158.0 L 192.0 166.0 " stroke="black" fill="none" stroke-width="5.0" stroke-linecap="round" stroke-linejoin="round" />
</svg>