<svg xmlns="http://www.w3.org/2000/svg" width="300" height="300" viewBox="0 0 300 300">
<path d="M 143.0 107.0 L 143.0 107.0 L 143.0 107.0 L 143.0 108.0 L 143.0 111.0 L 148.0 117.0 L 150.0 119.0 " stroke="black" fill="none" stroke-width="5.0" stroke-linecap="round" stroke-linejoin="round" />
<path d="M 117.0 131.0 L 118.0 130.0 L 119.0 130.0 L 121.0 129.0 L 126.0 130.0 L 144.0 129.0 L 154.0 127.0 L 166.0 126.0 L 170.0 126.0 L 170.0 127.0 " stroke="black" fill="none" stroke-width="5.0" stroke-linecap="round" stroke-linejoin="round" />
<path d="M 134.0 134.0 L 134.0 134.0 L 134.0 134.0 L 134.0 133.0 L 134.0 132.0 L 134.0 132.0 L 134.0 133.0 L 134.0 138.0 L 134.0 143.0 L 134.0 149.0 L 135.0 153.0 L 139.0 155.0 L 145.0 155.0 L 152.0 155.0 L 159.0 155.0 L 164.0 155.0 L 166.0 155.0 " stroke="black" fill="none" stroke-width="5.0" stroke-linecap="round" stroke-linejoin="round" />
<path d="M 118.0 168.0 L 119.0 168.0 L 120.0 168.0 L 120.0 168.0 L 120.0 169.0 L 119.0 172.0 L 116.0 177.0 L 110.0 189.0 L 108.0 192.0 L 107.0 193.0 " stroke="black" fill="none" stroke-width="5.0" stroke-linecap="round" stroke-linejoin="round" />
<path d="M 133.0 185.0 L 133.0 185.0 L 133.0 185.0 L 133.0 184.0 L 133.0 184.0 L 133.0 187.0 L 132.0 194.0 L 132.0 201.0 L 132.0 207.0 L 136.0 210.0 L 145.0 212.0 L 157.0 212.0 L 169.0 212.0 L 178.0 212.0 L 182.0 212.0 L 183.0 212.0 L 183.0 212.0 L 182.0 211.0 L 181.0 207.0 L 180.0 201.0 " stroke="black" fill="none" stroke-width="5.0" stroke-linecap="round" stroke-linejoin="round" />
<path d="M 152.0 178.0 L 152.0 178.0 L 152.0 178.0 L 153.0 179.0 L 154.0 182.0 L 155.0 185.0 L 157.0 189.0 " stroke="black" fill="none" stroke-width="5.0" stroke-linecap="round" stroke-linejoin="round" />
<path d="M 184.0 174.0 L 184.0 176.0 L 185.0 178.0 L 188.0 183.0 L 190.0 187.0 L 193.0 191.0 " stroke="black" fill="none" stroke-width="5.0" stroke-linecap="round" stroke-linejoin="round" />
</svg>