<svg xmlns="http://www.w3.org/2000/svg" width="300" height="300" viewBox="0 0 300 300">
<path d="M 124.0 120.0 L 124.0 120.0 L 124.0 122.0 L 124.0 124.0 L 124.0 129.0 L 122.0 140.0 L 120.0 157.0 L 117.0 174.0 L 114.0 185.0 L 114.0 187.0 L 114.0 187.0 " stroke="black" fill="none" stroke-width="5.0" stroke-linecap="round" stroke-linejoin="round" />
<path d="M 128.0 117.0 L 128.0 118.0 L 130.0 118.0 L 134.0 118.0 L 142.0 116.0 L 152.0 115.0 L 161.0 115.0 L 168.0 115.0 L 173.0 115.0 L 176.0 116.0 L 176.0 119.0 L 177.0 127.0 L 178.0 140.0 L 181.0 157.0 L 186.0 174.0 L 193.0 184.0 L 199.0 187.0 L 204.0 188.0 L 208.0 184.0 L 209.0 178.0 " stroke="black" fill="none" stroke-width="5.0" stroke-linecap="round" stroke-linejoin="round" />
<path d="M 139.0 131.0 L 139.0 131.0 L 140.0 131.0 L 141.0 132.0 L 144.0 132.0 L 150.0 132.0 L 157.0 131.0 L 162.0 130.0 L 164.0 129.0 L 165.0 129.0 " stroke="black" fill="none" stroke-width="5.0" stroke-linecap="round" stroke-linejoin="round" />
<path d="M 137.0 141.0 L 136.0 142.0 L 136.0 144.0 L 136.0 146.0 L 136.0 149.0 L 137.0 151.0 L 139.0 152.0 " stroke="black" fill="none" stroke-width="5.0" stroke-linecap="round" stroke-linejoin="round" />
<path d="M 139.0 143.0 L 139.0 143.0 L 139.0 143.0 L 142.0 142.0 L 147.0 142.0 L 154.0 142.0 L 160.0 142.0 L 164.0 142.0 L 166.0 146.0 L 167.0 150.0 L 167.0 154.0 L 166.0 156.0 L 165.0 156.0 " stroke="black" fill="none" stroke-width="5.0" stroke-linecap="round" stroke-linejoin="round" />
<path d="M 137.0 156.0 L 137.0 156.0 L 138.0 157.0 L 141.0 158.0 L 148.0 158.0 L 157.0 157.0 L 164.0 157.0 L 166.0 157.0 " stroke="black" fill="none" stroke-width="5.0" stroke-linecap="round" stroke-linejoin="round" />
<path d="M 152.0 135.0 L 152.0 136.0 L 152.0 138.0 L 152.0 144.0 L 152.0 155.0 L 153.0 165.0 L 154.0 172.0 L 154.0 174.0 " stroke="black" fill="none" stroke-width="5.0" stroke-linecap="round" stroke-linejoin="round" />
<path d="M 134.0 178.0 L 135.0 178.0 L 137.0 179.0 L 142.0 180.0 L 149.0 180.0 L 156.0 180.0 L 164.0 180.0 L 170.0 180.0 " stroke="black" fill="none" stroke-width="5.0" stroke-linecap="round" stroke-linejoin="round" />
<path d="M 174.0 169.0 L 174.0 169.0 L 175.0 171.0 L 177.0 175.0 L 179.0 180.0 L 181.0 185.0 L 182.0 187.0 " stroke="black" fill="none" stroke-width="5.0" stroke-linecap="round" stroke-linejoin="round" />
</svg>