<svg xmlns="http://www.w3.org/2000/svg" width="300" height="300" viewBox="0 0 300 300">
<path d="M 123.0 118.0 L 123.0 118.0 L 123.0 118.0 L 124.0 118.0 L 124.0 118.0 L 124.0 118.0 L 124.0 120.0 L 124.0 127.0 L 121.0 141.0 L 116.0 162.0 L 111.0 180.0 L 110.0 187.0 L 110.0 188.0 " stroke="black" fill="none" stroke-width="5.0" stroke-linecap="round" stroke-linejoin="round" />
<path d="M 128.0 113.0 L 128.0 113.0 L 129.0 113.0 L 131.0 113.0 L 135.0 113.0 L 142.0 112.0 L 151.0 112.0 L 159.0 111.0 L 164.0 111.0 L 168.0 112.0 L 170.0 113.0 L 171.0 114.0 L 171.0 118.0 L 171.0 125.0 L 171.0 136.0 L 173.0 150.0 L 175.0 164.0 L 179.0 176.0 L 183.0 185.0 L 188.0 193.0 L 192.0 198.0 L 195.0 199.0 L 198.0 199.0 L 200.0 195.0 L 203.0 189.0 L 203.0 186.0 " stroke="black" fill="none" stroke-width="5.0" stroke-linecap="round" stroke-linejoin="round" />
<path d="M 139.0 132.0 L 139.0 132.0 L 139.0 132.0 L 139.0 132.0 L 140.0 132.0 L 142.0 132.0 L 147.0 133.0 L 151.0 133.0 L 154.0 133.0 L 155.0 133.0 " stroke="black" fill="none" stroke-width="5.0" stroke-linecap="round" stroke-linejoin="round" />
<path d="M 134.0 144.0 L 134.0 144.0 L 134.0 145.0 L 134.0 145.0 L 134.0 147.0 L 134.0 149.0 L 134.0 151.0 L 134.0 153.0 L 134.0 153.0 " stroke="black" fill="none" stroke-width="5.0" stroke-linecap="round" stroke-linejoin="round" />
<path d="M 135.0 145.0 L 135.0 145.0 L 135.0 145.0 L 135.0 145.0 L 138.0 145.0 L 144.0 144.0 L 150.0 144.0 L 154.0 144.0 L 156.0 147.0 L 157.0 150.0 L 157.0 153.0 L 157.0 155.0 L 157.0 156.0 " stroke="black" fill="none" stroke-width="5.0" stroke-linecap="round" stroke-linejoin="round" />
<path d="M 134.0 156.0 L 134.0 156.0 L 134.0 156.0 L 134.0 157.0 L 137.0 157.0 L 143.0 157.0 L 150.0 157.0 L 154.0 157.0 " stroke="black" fill="none" stroke-width="5.0" stroke-linecap="round" stroke-linejoin="round" />
<path d="M 145.0 137.0 L 145.0 137.0 L 145.0 137.0 L 145.0 137.0 L 145.0 139.0 L 145.0 144.0 L 145.0 154.0 L 146.0 164.0 L 146.0 170.0 L 146.0 172.0 L 146.0 172.0 " stroke="black" fill="none" stroke-width="5.0" stroke-linecap="round" stroke-linejoin="round" />
<path d="M 129.0 173.0 L 130.0 173.0 L 131.0 174.0 L 133.0 175.0 L 139.0 175.0 L 148.0 175.0 L 155.0 173.0 L 160.0 172.0 L 161.0 172.0 " stroke="black" fill="none" stroke-width="5.0" stroke-linecap="round" stroke-linejoin="round" />
<path d="M 163.0 164.0 L 164.0 165.0 L 165.0 168.0 L 166.0 172.0 L 167.0 178.0 L 170.0 183.0 L 172.0 185.0 " stroke="black" fill="none" stroke-width="5.0" stroke-linecap="round" stroke-linejoin="round" />
</svg>