<svg xmlns="http://www.w3.org/2000/svg" width="300" height="300" viewBox="0 0 300 300">
<path d="M 122.0 113.0 L 122.0 113.0 L 122.0 113.0 L 121.0 114.0 L 121.0 119.0 L 120.0 133.0 L 117.0 155.0 L 112.0 175.0 L 108.0 186.0 L 106.0 189.0 " stroke="black" fill="none" stroke-width="5.0" stroke-linecap="round" stroke-linejoin="round" />
<path d="M 125.0 109.0 L 125.0 109.0 L 126.0 109.0 L 127.0 109.0 L 129.0 109.0 L 135.0 107.0 L 146.0 105.0 L 158.0 103.0 L 167.0 102.0 L 172.0 102.0 L 175.0 105.0 L 178.0 111.0 L 180.0 119.0 L 183.0 133.0 L 186.0 152.0 L 191.0 171.0 L 196.0 186.0 L 202.0 192.0 L 208.0 191.0 L 211.0 185.0 " stroke="black" fill="none" stroke-width="5.0" stroke-linecap="round" stroke-linejoin="round" />
<path d="M 139.0 125.0 L 139.0 125.0 L 139.0 125.0 L 140.0 125.0 L 145.0 125.0 L 151.0 125.0 L 155.0 125.0 " stroke="black" fill="none" stroke-width="5.0" stroke-linecap="round" stroke-linejoin="round" />
<path d="M 135.0 139.0 L 134.0 139.0 L 133.0 139.0 L 133.0 141.0 L 134.0 146.0 L 136.0 150.0 L 137.0 152.0 " stroke="black" fill="none" stroke-width="5.0" stroke-linecap="round" stroke-linejoin="round" />
<path d="M 135.0 138.0 L 135.0 138.0 L 135.0 138.0 L 136.0 138.0 L 140.0 138.0 L 147.0 137.0 L 155.0 137.0 L 161.0 138.0 L 164.0 141.0 L 164.0 147.0 L 162.0 152.0 L 160.0 153.0 " stroke="black" fill="none" stroke-width="5.0" stroke-linecap="round" stroke-linejoin="round" />
<path d="M 137.0 155.0 L 137.0 156.0 L 136.0 156.0 L 137.0 156.0 L 144.0 156.0 L 155.0 155.0 L 160.0 154.0 " stroke="black" fill="none" stroke-width="5.0" stroke-linecap="round" stroke-linejoin="round" />
<path d="M 150.0 126.0 L 150.0 126.0 L 150.0 126.0 L 150.0 127.0 L 150.0 135.0 L 151.0 152.0 L 153.0 169.0 L 154.0 177.0 L 154.0 178.0 " stroke="black" fill="none" stroke-width="5.0" stroke-linecap="round" stroke-linejoin="round" />
<path d="M 134.0 181.0 L 133.0 181.0 L 132.0 181.0 L 134.0 182.0 L 143.0 182.0 L 156.0 179.0 L 169.0 176.0 L 173.0 175.0 " stroke="black" fill="none" stroke-width="5.0" stroke-linecap="round" stroke-linejoin="round" />
<path d="M 173.0 165.0 L 174.0 167.0 L 175.0 172.0 L 179.0 182.0 L 183.0 193.0 L 184.0 194.0 " stroke="black" fill="none" stroke-width="5.0" stroke-linecap="round" stroke-linejoin="round" />
</svg>