<svg xmlns="http://www.w3.org/2000/svg" width="300" height="300" viewBox="0 0 300 300">
<path d="M 125.0 113.0 L 125.0 113.0 L 125.0 113.0 L 125.0 113.0 L 125.0 114.0 L 124.0 117.0 L 124.0 126.0 L 123.0 141.0 L 120.0 159.0 L 116.0 176.0 L 112.0 188.0 L 111.0 191.0 " stroke="black" fill="none" stroke-width="5.0" stroke-linecap="round" stroke-linejoin="round" />
<path d="M 131.0 113.0 L 131.0 113.0 L 130.0 113.0 L 130.0 113.0 L 130.0 113.0 L 135.0 113.0 L 146.0 112.0 L 158.0 111.0 L 167.0 112.0 L 172.0 114.0 L 174.0 116.0 L 176.0 118.0 L 177.0 122.0 L 177.0 128.0 L 177.0 140.0 L 177.0 154.0 L 177.0 170.0 L 181.0 185.0 L 185.0 193.0 L 190.0 197.0 L 195.0 197.0 L 198.0 196.0 L 199.0 191.0 L 199.0 189.0 " stroke="black" fill="none" stroke-width="5.0" stroke-linecap="round" stroke-linejoin="round" />
<path d="M 143.0 133.0 L 143.0 133.0 L 143.0 133.0 L 143.0 133.0 L 144.0 133.0 L 149.0 133.0 L 156.0 133.0 L 160.0 133.0 L 160.0 133.0 " stroke="black" fill="none" stroke-width="5.0" stroke-linecap="round" stroke-linejoin="round" />
<path d="M 137.0 150.0 L 137.0 150.0 L 136.0 152.0 L 136.0 155.0 L 136.0 158.0 L 136.0 160.0 L 137.0 160.0 " stroke="black" fill="none" stroke-width="5.0" stroke-linecap="round" stroke-linejoin="round" />
<path d="M 141.0 150.0 L 141.0 150.0 L 142.0 150.0 L 144.0 150.0 L 147.0 150.0 L 152.0 150.0 L 157.0 152.0 L 160.0 155.0 L 161.0 158.0 L 161.0 161.0 L 160.0 163.0 " stroke="black" fill="none" stroke-width="5.0" stroke-linecap="round" stroke-linejoin="round" />
<path d="M 139.0 160.0 L 138.0 161.0 L 137.0 161.0 L 138.0 161.0 L 143.0 162.0 L 150.0 162.0 L 158.0 162.0 L 160.0 162.0 " stroke="black" fill="none" stroke-width="5.0" stroke-linecap="round" stroke-linejoin="round" />
<path d="M 152.0 137.0 L 152.0 137.0 L 152.0 138.0 L 151.0 141.0 L 151.0 150.0 L 151.0 161.0 L 152.0 170.0 L 152.0 177.0 L 152.0 179.0 " stroke="black" fill="none" stroke-width="5.0" stroke-linecap="round" stroke-linejoin="round" />
<path d="M 138.0 177.0 L 137.0 178.0 L 137.0 178.0 L 138.0 179.0 L 143.0 179.0 L 150.0 179.0 L 157.0 179.0 L 159.0 179.0 " stroke="black" fill="none" stroke-width="5.0" stroke-linecap="round" stroke-linejoin="round" />
<path d="M 166.0 176.0 L 167.0 176.0 L 167.0 177.0 L 169.0 179.0 L 172.0 183.0 L 174.0 186.0 " stroke="black" fill="none" stroke-width="5.0" stroke-linecap="round" stroke-linejoin="round" />
</svg>