<svg xmlns="http://www.w3.org/2000/svg" width="300" height="300" viewBox="0 0 300 300">
<path d="M 126.0 122.0 L 126.0 121.0 L 126.0 124.0 L 124.0 130.0 L 123.0 137.0 L 121.0 157.0 L 119.0 178.0 L 118.0 185.0 L 118.0 186.0 L 119.0 184.0 " stroke="black" fill="none" stroke-width="5.0" stroke-linecap="round" stroke-linejoin="round" />
<path d="M 134.0 114.0 L 134.0 114.0 L 135.0 114.0 L 135.0 115.0 L 140.0 115.0 L 145.0 115.0 L 151.0 114.0 L 160.0 113.0 L 164.0 112.0 L 168.0 113.0 L 171.0 120.0 L 171.0 128.0 L 172.0 148.0 L 176.0 166.0 L 181.0 177.0 L 188.0 183.0 L 192.0 184.0 L 196.0 184.0 L 198.0 181.0 L 198.0 180.0 " stroke="black" fill="none" stroke-width="5.0" stroke-linecap="round" stroke-linejoin="round" />
<path d="M 141.0 133.0 L 141.0 133.0 L 141.0 133.0 L 142.0 134.0 L 144.0 134.0 L 148.0 135.0 L 152.0 135.0 L 156.0 136.0 " stroke="black" fill="none" stroke-width="5.0" stroke-linecap="round" stroke-linejoin="round" />
<path d="M 137.0 148.0 L 137.0 148.0 L 137.0 148.0 L 137.0 148.0 L 137.0 148.0 L 137.0 150.0 L 137.0 153.0 L 138.0 155.0 L 138.0 156.0 " stroke="black" fill="none" stroke-width="5.0" stroke-linecap="round" stroke-linejoin="round" />
<path d="M 140.0 147.0 L 140.0 147.0 L 141.0 147.0 L 142.0 147.0 L 145.0 147.0 L 151.0 147.0 L 156.0 147.0 L 158.0 148.0 L 161.0 150.0 L 162.0 155.0 L 162.0 158.0 L 161.0 159.0 " stroke="black" fill="none" stroke-width="5.0" stroke-linecap="round" stroke-linejoin="round" />
<path d="M 141.0 160.0 L 141.0 160.0 L 141.0 160.0 L 141.0 160.0 L 144.0 161.0 L 148.0 161.0 L 159.0 160.0 L 161.0 160.0 " stroke="black" fill="none" stroke-width="5.0" stroke-linecap="round" stroke-linejoin="round" />
<path d="M 150.0 139.0 L 150.0 139.0 L 150.0 139.0 L 150.0 139.0 L 150.0 140.0 L 150.0 150.0 L 150.0 158.0 L 150.0 170.0 L 151.0 175.0 " stroke="black" fill="none" stroke-width="5.0" stroke-linecap="round" stroke-linejoin="round" />
<path d="M 135.0 175.0 L 135.0 176.0 L 135.0 176.0 L 135.0 176.0 L 139.0 176.0 L 144.0 176.0 L 156.0 175.0 L 162.0 174.0 " stroke="black" fill="none" stroke-width="5.0" stroke-linecap="round" stroke-linejoin="round" />
<path d="M 166.0 168.0 L 166.0 168.0 L 167.0 170.0 L 169.0 174.0 L 171.0 177.0 L 172.0 180.0 L 173.0 181.0 " stroke="black" fill="none" stroke-width="5.0" stroke-linecap="round" stroke-linejoin="round" />
</svg>