<svg xmlns="http://www.w3.org/2000/svg" width="300" height="300" viewBox="0 0 300 300">
<path d="M 146.0 89.0 L 146.0 89.0 L 146.0 91.0 L 148.0 93.0 L 149.0 97.0 L 152.0 102.0 " stroke="black" fill="none" stroke-width="5.0" stroke-linecap="round" stroke-linejoin="round" />
<path d="M 125.0 108.0 L 126.0 108.0 L 126.0 108.0 L 128.0 108.0 L 133.0 108.0 L 144.0 108.0 L 159.0 108.0 L 171.0 108.0 L 176.0 108.0 L 176.0 110.0 " stroke="black" fill="none" stroke-width="5.0" stroke-linecap="round" stroke-linejoin="round" />
<path d="M 137.0 125.0 L 137.0 125.0 L 137.0 125.0 L 136.0 125.0 L 136.0 125.0 L 136.0 127.0 L 137.0 131.0 L 139.0 134.0 L 139.0 135.0 " stroke="black" fill="none" stroke-width="5.0" stroke-linecap="round" stroke-linejoin="round" />
<path d="M 139.0 124.0 L 139.0 124.0 L 140.0 124.0 L 141.0 124.0 L 143.0 124.0 L 147.0 124.0 L 153.0 123.0 L 159.0 123.0 L 163.0 124.0 L 165.0 128.0 L 165.0 133.0 L 165.0 138.0 L 163.0 140.0 L 162.0 140.0 " stroke="black" fill="none" stroke-width="5.0" stroke-linecap="round" stroke-linejoin="round" />
<path d="M 142.0 139.0 L 142.0 139.0 L 142.0 139.0 L 143.0 139.0 L 148.0 140.0 L 155.0 140.0 L 158.0 140.0 " stroke="black" fill="none" stroke-width="5.0" stroke-linecap="round" stroke-linejoin="round" />
<path d="M 121.0 154.0 L 121.0 153.0 L 122.0 153.0 L 122.0 154.0 L 122.0 162.0 L 122.0 177.0 L 122.0 190.0 L 122.0 198.0 L 122.0 199.0 L 122.0 198.0 " stroke="black" fill="none" stroke-width="5.0" stroke-linecap="round" stroke-linejoin="round" />
<path d="M 120.0 150.0 L 120.0 150.0 L 121.0 149.0 L 123.0 149.0 L 129.0 148.0 L 141.0 148.0 L 155.0 148.0 L 166.0 148.0 L 173.0 148.0 L 178.0 151.0 L 181.0 156.0 L 185.0 165.0 L 189.0 176.0 L 190.0 184.0 L 191.0 189.0 L 192.0 191.0 L 192.0 191.0 L 192.0 191.0 L 188.0 191.0 L 179.0 191.0 L 176.0 191.0 " stroke="black" fill="none" stroke-width="5.0" stroke-linecap="round" stroke-linejoin="round" />
<path d="M 143.0 168.0 L 142.0 169.0 L 141.0 170.0 L 141.0 171.0 L 141.0 174.0 L 141.0 177.0 L 143.0 179.0 " stroke="black" fill="none" stroke-width="5.0" stroke-linecap="round" stroke-linejoin="round" />
<path d="M 145.0 165.0 L 145.0 165.0 L 145.0 165.0 L 145.0 165.0 L 148.0 165.0 L 153.0 165.0 L 159.0 165.0 L 162.0 166.0 L 165.0 171.0 L 165.0 178.0 L 165.0 182.0 L 165.0 183.0 " stroke="black" fill="none" stroke-width="5.0" stroke-linecap="round" stroke-linejoin="round" />
<path d="M 147.0 180.0 L 147.0 180.0 L 148.0 181.0 L 150.0 182.0 L 157.0 182.0 L 162.0 182.0 " stroke="black" fill="none" stroke-width="5.0" stroke-linecap="round" stroke-linejoin="round" />
</svg>