<svg xmlns="http://www.w3.org/2000/svg" width="300" height="300" viewBox="0 0 300 300">
<path d="M 141.0 104.0 L 141.0 104.0 L 141.0 105.0 L 141.0 107.0 L 144.0 110.0 L 147.0 112.0 L 148.0 113.0 " stroke="black" fill="none" stroke-width="5.0" stroke-linecap="round" stroke-linejoin="round" />
<path d="M 122.0 122.0 L 122.0 122.0 L 123.0 123.0 L 126.0 123.0 L 134.0 123.0 L 146.0 123.0 L 157.0 122.0 L 165.0 122.0 L 169.0 122.0 L 169.0 122.0 L 169.0 121.0 " stroke="black" fill="none" stroke-width="5.0" stroke-linecap="round" stroke-linejoin="round" />
<path d="M 134.0 138.0 L 134.0 138.0 L 134.0 137.0 L 134.0 137.0 L 135.0 137.0 L 135.0 140.0 L 135.0 142.0 L 136.0 144.0 " stroke="black" fill="none" stroke-width="5.0" stroke-linecap="round" stroke-linejoin="round" />
<path d="M 134.0 137.0 L 134.0 137.0 L 134.0 137.0 L 135.0 136.0 L 138.0 136.0 L 144.0 135.0 L 150.0 134.0 L 156.0 134.0 L 160.0 135.0 L 162.0 138.0 L 163.0 142.0 L 163.0 146.0 L 163.0 149.0 L 162.0 150.0 L 161.0 150.0 " stroke="black" fill="none" stroke-width="5.0" stroke-linecap="round" stroke-linejoin="round" />
<path d="M 139.0 150.0 L 139.0 150.0 L 139.0 151.0 L 141.0 151.0 L 147.0 152.0 L 154.0 152.0 L 158.0 153.0 " stroke="black" fill="none" stroke-width="5.0" stroke-linecap="round" stroke-linejoin="round" />
<path d="M 117.0 168.0 L 117.0 168.0 L 118.0 169.0 L 118.0 170.0 L 118.0 174.0 L 118.0 182.0 L 118.0 193.0 L 118.0 202.0 L 119.0 207.0 L 121.0 207.0 L 121.0 205.0 " stroke="black" fill="none" stroke-width="5.0" stroke-linecap="round" stroke-linejoin="round" />
<path d="M 117.0 165.0 L 118.0 165.0 L 118.0 165.0 L 119.0 165.0 L 124.0 165.0 L 133.0 165.0 L 145.0 164.0 L 156.0 164.0 L 164.0 164.0 L 171.0 164.0 L 176.0 166.0 L 180.0 169.0 L 183.0 175.0 L 186.0 183.0 L 189.0 191.0 L 190.0 198.0 L 191.0 203.0 L 191.0 207.0 L 191.0 209.0 L 188.0 212.0 L 182.0 213.0 L 174.0 213.0 L 169.0 212.0 " stroke="black" fill="none" stroke-width="5.0" stroke-linecap="round" stroke-linejoin="round" />
<path d="M 142.0 183.0 L 142.0 183.0 L 141.0 183.0 L 141.0 185.0 L 140.0 188.0 L 141.0 191.0 L 142.0 193.0 L 143.0 193.0 " stroke="black" fill="none" stroke-width="5.0" stroke-linecap="round" stroke-linejoin="round" />
<path d="M 144.0 180.0 L 144.0 180.0 L 143.0 180.0 L 143.0 180.0 L 144.0 179.0 L 147.0 179.0 L 151.0 179.0 L 156.0 181.0 L 160.0 183.0 L 163.0 186.0 L 164.0 189.0 L 165.0 192.0 L 165.0 195.0 L 163.0 196.0 " stroke="black" fill="none" stroke-width="5.0" stroke-linecap="round" stroke-linejoin="round" />
<path d="M 145.0 196.0 L 144.0 196.0 L 144.0 197.0 L 144.0 198.0 L 146.0 198.0 L 151.0 199.0 L 159.0 199.0 L 160.0 199.0 " stroke="black" fill="none" stroke-width="5.0" stroke-linecap="round" stroke-linejoin="round" />
</svg>