<svg xmlns="http://www.w3.org/2000/svg" width="300" height="300" viewBox="0 0 300 300">
<path d="M 129.0 114.0 L 129.0 114.0 " stroke="black" fill="none" stroke-width="5.0" stroke-linecap="round" stroke-linejoin="round" />
<path d="M 129.0 114.0 L 129.0 114.0 L 130.0 114.0 L 130.0 114.0 L 130.0 116.0 L 130.0 116.0 L 130.0 120.0 L 128.0 126.0 L 124.0 133.0 L 115.0 145.0 L 107.0 157.0 L 100.0 162.0 " stroke="black" fill="none" stroke-width="5.0" stroke-linecap="round" stroke-linejoin="round" />
<path d="M 117.0 147.0 L 117.0 147.0 L 118.0 147.0 L 119.0 147.0 L 119.0 147.0 L 119.0 148.0 L 120.0 152.0 L 119.0 169.0 L 118.0 181.0 L 117.0 194.0 L 117.0 195.0 " stroke="black" fill="none" stroke-width="5.0" stroke-linecap="round" stroke-linejoin="round" />
<path d="M 141.0 148.0 L 141.0 148.0 L 142.0 148.0 L 142.0 149.0 L 142.0 156.0 L 141.0 166.0 L 139.0 177.0 L 139.0 185.0 L 139.0 188.0 L 140.0 189.0 L 144.0 189.0 L 154.0 188.0 L 162.0 188.0 L 176.0 187.0 L 183.0 187.0 " stroke="black" fill="none" stroke-width="5.0" stroke-linecap="round" stroke-linejoin="round" />
<path d="M 156.0 122.0 L 156.0 122.0 " stroke="black" fill="none" stroke-width="5.0" stroke-linecap="round" stroke-linejoin="round" />
<path d="M 156.0 123.0 L 157.0 124.0 L 157.0 125.0 L 158.0 127.0 L 158.0 130.0 L 159.0 140.0 L 159.0 149.0 L 159.0 165.0 L 159.0 176.0 L 158.0 181.0 L 158.0 181.0 " stroke="black" fill="none" stroke-width="5.0" stroke-linecap="round" stroke-linejoin="round" />
<path d="M 181.0 145.0 L 181.0 145.0 L 181.0 145.0 L 181.0 145.0 L 182.0 147.0 L 182.0 152.0 L 183.0 163.0 L 184.0 180.0 L 185.0 186.0 L 185.0 189.0 " stroke="black" fill="none" stroke-width="5.0" stroke-linecap="round" stroke-linejoin="round" />
</svg>