<svg xmlns="http://www.w3.org/2000/svg" width="300" height="300" viewBox="0 0 300 300">
<path d="M 132.0 116.0 L 132.0 116.0 L 132.0 116.0 L 132.0 116.0 L 132.0 116.0 L 132.0 116.0 L 131.0 120.0 L 128.0 130.0 L 120.0 147.0 L 111.0 163.0 L 105.0 171.0 L 103.0 172.0 " stroke="black" fill="none" stroke-width="5.0" stroke-linecap="round" stroke-linejoin="round" />
<path d="M 122.0 146.0 L 122.0 146.0 L 122.0 146.0 L 123.0 145.0 L 123.0 145.0 L 123.0 149.0 L 123.0 160.0 L 123.0 174.0 L 123.0 183.0 L 124.0 186.0 " stroke="black" fill="none" stroke-width="5.0" stroke-linecap="round" stroke-linejoin="round" />
<path d="M 144.0 140.0 L 144.0 140.0 L 143.0 140.0 L 143.0 144.0 L 143.0 154.0 L 143.0 167.0 L 143.0 176.0 L 143.0 180.0 L 143.0 180.0 L 146.0 180.0 L 153.0 181.0 L 162.0 181.0 L 172.0 182.0 L 180.0 182.0 L 184.0 181.0 " stroke="black" fill="none" stroke-width="5.0" stroke-linecap="round" stroke-linejoin="round" />
<path d="M 160.0 122.0 L 160.0 122.0 L 160.0 123.0 L 160.0 125.0 L 160.0 136.0 L 161.0 154.0 L 161.0 170.0 L 161.0 175.0 L 161.0 175.0 " stroke="black" fill="none" stroke-width="5.0" stroke-linecap="round" stroke-linejoin="round" />
<path d="M 181.0 144.0 L 181.0 144.0 L 181.0 144.0 L 181.0 144.0 L 181.0 146.0 L 182.0 153.0 L 183.0 166.0 L 184.0 179.0 L 184.0 183.0 " stroke="black" fill="none" stroke-width="5.0" stroke-linecap="round" stroke-linejoin="round" />
</svg>