<svg xmlns="http://www.w3.org/2000/svg" width="300" height="300" viewBox="0 0 300 300">
<path d="M 117.0 121.0 L 118.0 121.0 L 119.0 121.0 L 119.0 122.0 L 119.0 122.0 L 119.0 124.0 L 119.0 128.0 L 119.0 132.0 L 119.0 135.0 L 119.0 137.0 L 119.0 137.0 " stroke="black" fill="none" stroke-width="5.0" stroke-linecap="round" stroke-linejoin="round" />
<path d="M 119.0 117.0 L 119.0 117.0 L 120.0 118.0 L 120.0 118.0 L 121.0 119.0 L 123.0 119.0 L 126.0 119.0 L 130.0 119.0 L 133.0 119.0 L 135.0 119.0 L 136.0 121.0 L 137.0 123.0 L 137.0 127.0 L 137.0 131.0 L 137.0 136.0 L 137.0 139.0 L 137.0 139.0 " stroke="black" fill="none" stroke-width="5.0" stroke-linecap="round" stroke-linejoin="round" />
<path d="M 119.0 142.0 L 119.0 142.0 L 119.0 142.0 L 119.0 142.0 L 120.0 142.0 L 123.0 142.0 L 128.0 142.0 L 133.0 142.0 L 136.0 143.0 L 137.0 143.0 " stroke="black" fill="none" stroke-width="5.0" stroke-linecap="round" stroke-linejoin="round" />
<path d="M 127.0 144.0 L 127.0 144.0 L 127.0 145.0 L 127.0 146.0 L 127.0 149.0 L 128.0 157.0 L 129.0 165.0 L 130.0 173.0 L 130.0 177.0 L 130.0 177.0 L 130.0 176.0 " stroke="black" fill="none" stroke-width="5.0" stroke-linecap="round" stroke-linejoin="round" />
<path d="M 129.0 162.0 L 129.0 162.0 L 129.0 163.0 L 130.0 163.0 L 132.0 163.0 L 134.0 163.0 L 137.0 163.0 L 140.0 163.0 L 141.0 163.0 " stroke="black" fill="none" stroke-width="5.0" stroke-linecap="round" stroke-linejoin="round" />
<path d="M 116.0 154.0 L 116.0 154.0 L 116.0 154.0 L 116.0 154.0 L 116.0 157.0 L 117.0 164.0 L 117.0 173.0 L 118.0 179.0 L 118.0 181.0 " stroke="black" fill="none" stroke-width="5.0" stroke-linecap="round" stroke-linejoin="round" />
<path d="M 110.0 183.0 L 110.0 183.0 L 111.0 183.0 L 113.0 183.0 L 117.0 183.0 L 125.0 183.0 L 134.0 183.0 L 141.0 183.0 L 144.0 183.0 L 145.0 183.0 " stroke="black" fill="none" stroke-width="5.0" stroke-linecap="round" stroke-linejoin="round" />
<path d="M 149.0 120.0 L 149.0 121.0 L 150.0 121.0 L 152.0 121.0 L 156.0 121.0 L 160.0 121.0 L 166.0 120.0 L 171.0 119.0 L 174.0 119.0 L 175.0 119.0 L 175.0 119.0 L 174.0 119.0 " stroke="black" fill="none" stroke-width="5.0" stroke-linecap="round" stroke-linejoin="round" />
<path d="M 157.0 107.0 L 157.0 107.0 L 156.0 108.0 L 155.0 109.0 L 156.0 113.0 L 160.0 122.0 L 167.0 136.0 L 174.0 146.0 L 179.0 152.0 L 181.0 153.0 " stroke="black" fill="none" stroke-width="5.0" stroke-linecap="round" stroke-linejoin="round" />
<path d="M 180.0 133.0 L 180.0 133.0 L 178.0 133.0 L 177.0 133.0 L 174.0 134.0 L 170.0 138.0 L 163.0 144.0 L 159.0 147.0 " stroke="black" fill="none" stroke-width="5.0" stroke-linecap="round" stroke-linejoin="round" />
<path d="M 171.0 110.0 L 171.0 110.0 L 171.0 111.0 L 172.0 114.0 L 174.0 118.0 L 175.0 119.0 " stroke="black" fill="none" stroke-width="5.0" stroke-linecap="round" stroke-linejoin="round" />
<path d="M 153.0 161.0 L 154.0 162.0 L 155.0 162.0 L 158.0 162.0 L 165.0 162.0 L 172.0 161.0 L 177.0 160.0 L 179.0 159.0 " stroke="black" fill="none" stroke-width="5.0" stroke-linecap="round" stroke-linejoin="round" />
<path d="M 160.0 148.0 L 160.0 148.0 L 160.0 148.0 L 160.0 149.0 L 161.0 154.0 L 166.0 167.0 L 172.0 182.0 L 178.0 190.0 L 182.0 192.0 L 184.0 191.0 " stroke="black" fill="none" stroke-width="5.0" stroke-linecap="round" stroke-linejoin="round" />
<path d="M 182.0 170.0 L 181.0 171.0 L 178.0 172.0 L 175.0 173.0 L 171.0 175.0 L 163.0 180.0 L 157.0 183.0 " stroke="black" fill="none" stroke-width="5.0" stroke-linecap="round" stroke-linejoin="round" />
</svg>