<svg xmlns="http://www.w3.org/2000/svg" width="300" height="300" viewBox="0 0 300 300">
<path d="M 150.0 98.0 L 150.0 98.0 L 150.0 98.0 L 149.0 98.0 L 149.0 99.0 L 147.0 102.0 L 142.0 108.0 L 132.0 118.0 L 119.0 129.0 L 110.0 136.0 L 109.0 137.0 " stroke="black" fill="none" stroke-width="5.0" stroke-linecap="round" stroke-linejoin="round" />
<path d="M 149.0 101.0 L 149.0 101.0 L 149.0 101.0 L 150.0 102.0 L 156.0 105.0 L 168.0 112.0 L 180.0 119.0 L 189.0 124.0 L 192.0 126.0 L 192.0 126.0 " stroke="black" fill="none" stroke-width="5.0" stroke-linecap="round" stroke-linejoin="round" />
<path d="M 139.0 123.0 L 139.0 123.0 L 139.0 123.0 L 139.0 123.0 L 142.0 124.0 L 148.0 124.0 L 156.0 123.0 L 163.0 122.0 L 164.0 122.0 " stroke="black" fill="none" stroke-width="5.0" stroke-linecap="round" stroke-linejoin="round" />
<path d="M 130.0 138.0 L 131.0 138.0 L 131.0 140.0 L 131.0 145.0 L 132.0 149.0 L 134.0 151.0 L 134.0 151.0 " stroke="black" fill="none" stroke-width="5.0" stroke-linecap="round" stroke-linejoin="round" />
<path d="M 131.0 139.0 L 131.0 139.0 L 131.0 138.0 L 131.0 137.0 L 133.0 137.0 L 138.0 137.0 L 147.0 136.0 L 158.0 135.0 L 167.0 135.0 L 172.0 135.0 L 175.0 139.0 L 177.0 143.0 L 178.0 147.0 L 179.0 151.0 L 177.0 155.0 " stroke="black" fill="none" stroke-width="5.0" stroke-linecap="round" stroke-linejoin="round" />
<path d="M 140.0 143.0 L 140.0 143.0 L 140.0 143.0 L 140.0 143.0 L 140.0 143.0 L 143.0 145.0 " stroke="black" fill="none" stroke-width="5.0" stroke-linecap="round" stroke-linejoin="round" />
<path d="M 165.0 143.0 L 166.0 143.0 L 166.0 143.0 L 166.0 144.0 L 165.0 145.0 L 163.0 148.0 " stroke="black" fill="none" stroke-width="5.0" stroke-linecap="round" stroke-linejoin="round" />
<path d="M 134.0 155.0 L 134.0 155.0 L 134.0 155.0 L 134.0 155.0 L 139.0 156.0 L 151.0 157.0 L 165.0 157.0 L 172.0 157.0 L 172.0 157.0 " stroke="black" fill="none" stroke-width="5.0" stroke-linecap="round" stroke-linejoin="round" />
<path d="M 152.0 139.0 L 152.0 139.0 L 152.0 139.0 L 152.0 139.0 L 152.0 142.0 L 152.0 149.0 " stroke="black" fill="none" stroke-width="5.0" stroke-linecap="round" stroke-linejoin="round" />
<path d="M 139.0 164.0 L 139.0 164.0 L 139.0 165.0 L 139.0 165.0 L 142.0 165.0 L 147.0 165.0 L 154.0 165.0 L 161.0 165.0 L 166.0 165.0 L 169.0 165.0 L 170.0 166.0 L 172.0 169.0 L 174.0 176.0 L 176.0 184.0 L 177.0 190.0 L 177.0 193.0 L 177.0 193.0 " stroke="black" fill="none" stroke-width="5.0" stroke-linecap="round" stroke-linejoin="round" />
<path d="M 137.0 165.0 L 137.0 165.0 L 135.0 166.0 L 134.0 168.0 L 134.0 174.0 L 134.0 183.0 L 135.0 188.0 L 136.0 190.0 " stroke="black" fill="none" stroke-width="5.0" stroke-linecap="round" stroke-linejoin="round" />
<path d="M 139.0 178.0 L 139.0 178.0 L 140.0 178.0 L 143.0 178.0 L 150.0 179.0 L 158.0 180.0 L 164.0 180.0 L 167.0 180.0 " stroke="black" fill="none" stroke-width="5.0" stroke-linecap="round" stroke-linejoin="round" />
<path d="M 137.0 193.0 L 139.0 194.0 L 143.0 195.0 L 149.0 197.0 L 158.0 198.0 L 168.0 198.0 L 175.0 198.0 L 176.0 199.0 " stroke="black" fill="none" stroke-width="5.0" stroke-linecap="round" stroke-linejoin="round" />
</svg>