<svg xmlns="http://www.w3.org/2000/svg" width="300" height="300" viewBox="0 0 300 300">
<path d="M 160.0 110.0 L 161.0 109.0 L 162.0 109.0 L 163.0 109.0 L 163.0 109.0 L 163.0 111.0 L 162.0 115.0 L 158.0 121.0 L 149.0 131.0 L 138.0 141.0 L 130.0 146.0 L 129.0 146.0 " stroke="black" fill="none" stroke-width="5.0" stroke-linecap="round" stroke-linejoin="round" />
<path d="M 151.0 125.0 L 151.0 125.0 L 151.0 125.0 L 152.0 125.0 L 154.0 125.0 L 159.0 126.0 L 165.0 128.0 L 170.0 130.0 L 173.0 133.0 L 174.0 137.0 L 173.0 143.0 L 169.0 152.0 L 162.0 161.0 L 154.0 170.0 L 145.0 180.0 L 138.0 185.0 L 135.0 185.0 " stroke="black" fill="none" stroke-width="5.0" stroke-linecap="round" stroke-linejoin="round" />
<path d="M 138.0 149.0 L 140.0 149.0 L 141.0 150.0 L 144.0 153.0 L 148.0 156.0 L 153.0 158.0 " stroke="black" fill="none" stroke-width="5.0" stroke-linecap="round" stroke-linejoin="round" />
</svg>