<svg xmlns="http://www.w3.org/2000/svg" width="300" height="300" viewBox="0 0 300 300">
<path d="M 121.0 119.0 L 121.0 120.0 L 120.0 123.0 L 120.0 126.0 L 120.0 130.0 L 120.0 131.0 " stroke="black" fill="none" stroke-width="5.0" stroke-linecap="round" stroke-linejoin="round" />
<path d="M 122.0 117.0 L 122.0 117.0 L 122.0 117.0 L 122.0 117.0 L 126.0 117.0 L 134.0 117.0 L 146.0 117.0 L 157.0 117.0 L 167.0 117.0 L 176.0 116.0 L 185.0 114.0 L 189.0 114.0 L 191.0 115.0 L 191.0 117.0 L 192.0 119.0 L 193.0 122.0 L 193.0 125.0 L 193.0 130.0 L 192.0 132.0 " stroke="black" fill="none" stroke-width="5.0" stroke-linecap="round" stroke-linejoin="round" />
<path d="M 155.0 101.0 L 155.0 101.0 L 155.0 103.0 L 156.0 107.0 L 158.0 112.0 " stroke="black" fill="none" stroke-width="5.0" stroke-linecap="round" stroke-linejoin="round" />
<path d="M 144.0 126.0 L 144.0 126.0 L 144.0 126.0 L 143.0 127.0 L 142.0 128.0 L 140.0 133.0 L 136.0 140.0 L 132.0 145.0 L 130.0 147.0 " stroke="black" fill="none" stroke-width="5.0" stroke-linecap="round" stroke-linejoin="round" />
<path d="M 142.0 134.0 L 142.0 134.0 L 143.0 134.0 L 145.0 135.0 L 147.0 135.0 L 149.0 136.0 L 151.0 137.0 L 152.0 138.0 L 152.0 140.0 L 152.0 143.0 L 144.0 157.0 L 138.0 165.0 L 131.0 170.0 L 127.0 171.0 " stroke="black" fill="none" stroke-width="5.0" stroke-linecap="round" stroke-linejoin="round" />
<path d="M 136.0 144.0 L 136.0 144.0 L 136.0 144.0 L 137.0 145.0 L 140.0 145.0 L 144.0 146.0 L 146.0 147.0 " stroke="black" fill="none" stroke-width="5.0" stroke-linecap="round" stroke-linejoin="round" />
<path d="M 130.0 154.0 L 130.0 154.0 L 131.0 154.0 L 132.0 155.0 L 135.0 155.0 L 141.0 155.0 L 144.0 155.0 " stroke="black" fill="none" stroke-width="5.0" stroke-linecap="round" stroke-linejoin="round" />
<path d="M 166.0 135.0 L 166.0 135.0 L 167.0 135.0 L 168.0 135.0 L 170.0 135.0 L 173.0 135.0 L 176.0 135.0 L 178.0 135.0 L 179.0 137.0 L 179.0 139.0 L 177.0 143.0 L 174.0 146.0 L 173.0 147.0 " stroke="black" fill="none" stroke-width="5.0" stroke-linecap="round" stroke-linejoin="round" />
<path d="M 161.0 143.0 L 161.0 143.0 L 161.0 144.0 L 162.0 145.0 L 168.0 149.0 L 177.0 153.0 L 184.0 158.0 L 188.0 161.0 L 189.0 162.0 " stroke="black" fill="none" stroke-width="5.0" stroke-linecap="round" stroke-linejoin="round" />
<path d="M 151.0 161.0 L 151.0 161.0 L 151.0 161.0 L 152.0 162.0 L 153.0 162.0 L 157.0 162.0 L 163.0 161.0 L 167.0 160.0 L 169.0 160.0 L 169.0 160.0 " stroke="black" fill="none" stroke-width="5.0" stroke-linecap="round" stroke-linejoin="round" />
<path d="M 141.0 176.0 L 141.0 176.0 L 141.0 176.0 L 141.0 176.0 L 145.0 176.0 L 154.0 175.0 L 167.0 173.0 L 177.0 173.0 L 181.0 173.0 L 182.0 173.0 L 181.0 173.0 L 180.0 173.0 " stroke="black" fill="none" stroke-width="5.0" stroke-linecap="round" stroke-linejoin="round" />
<path d="M 160.0 173.0 L 160.0 173.0 L 160.0 173.0 L 160.0 173.0 L 160.0 173.0 L 161.0 176.0 L 163.0 184.0 L 165.0 194.0 L 166.0 200.0 L 166.0 202.0 " stroke="black" fill="none" stroke-width="5.0" stroke-linecap="round" stroke-linejoin="round" />
<path d="M 157.0 181.0 L 157.0 181.0 L 156.0 181.0 L 154.0 183.0 L 152.0 187.0 L 148.0 194.0 L 144.0 200.0 L 143.0 201.0 " stroke="black" fill="none" stroke-width="5.0" stroke-linecap="round" stroke-linejoin="round" />
<path d="M 169.0 185.0 L 170.0 185.0 L 171.0 185.0 L 176.0 187.0 L 182.0 192.0 L 189.0 198.0 L 193.0 203.0 L 194.0 205.0 " stroke="black" fill="none" stroke-width="5.0" stroke-linecap="round" stroke-linejoin="round" />
</svg>