<svg xmlns="http://www.w3.org/2000/svg" width="300" height="300" viewBox="0 0 300 300">
<path d="M 130.0 121.0 L 130.0 121.0 L 131.0 122.0 L 132.0 122.0 L 135.0 122.0 L 144.0 121.0 L 155.0 121.0 L 163.0 120.0 L 168.0 120.0 L 171.0 120.0 L 171.0 120.0 " stroke="black" fill="none" stroke-width="5.0" stroke-linecap="round" stroke-linejoin="round" />
<path d="M 132.0 150.0 L 132.0 150.0 L 133.0 150.0 L 135.0 149.0 L 139.0 149.0 L 146.0 149.0 L 156.0 149.0 L 164.0 149.0 L 168.0 149.0 " stroke="black" fill="none" stroke-width="5.0" stroke-linecap="round" stroke-linejoin="round" />
<path d="M 116.0 179.0 L 116.0 179.0 L 116.0 180.0 L 116.0 180.0 L 122.0 181.0 L 137.0 181.0 L 156.0 181.0 L 171.0 181.0 L 182.0 180.0 L 187.0 179.0 " stroke="black" fill="none" stroke-width="5.0" stroke-linecap="round" stroke-linejoin="round" />
<path d="M 149.0 123.0 L 149.0 123.0 L 148.0 122.0 L 148.0 124.0 L 150.0 135.0 L 152.0 152.0 L 153.0 166.0 L 154.0 172.0 " stroke="black" fill="none" stroke-width="5.0" stroke-linecap="round" stroke-linejoin="round" />
<path d="M 174.0 161.0 L 175.0 161.0 L 177.0 163.0 L 180.0 166.0 L 183.0 170.0 L 183.0 171.0 " stroke="black" fill="none" stroke-width="5.0" stroke-linecap="round" stroke-linejoin="round" />
</svg>