<svg xmlns="http://www.w3.org/2000/svg" width="300" height="300" viewBox="0 0 300 300">
<path d="M 130.0 121.0 L 131.0 121.0 L 133.0 121.0 L 137.0 122.0 L 143.0 122.0 L 152.0 122.0 L 160.0 122.0 L 167.0 122.0 L 171.0 122.0 L 171.0 122.0 L 171.0 122.0 " stroke="black" fill="none" stroke-width="5.0" stroke-linecap="round" stroke-linejoin="round" />
<path d="M 133.0 150.0 L 133.0 150.0 L 134.0 150.0 L 136.0 150.0 L 141.0 150.0 L 148.0 150.0 L 155.0 150.0 L 161.0 150.0 L 163.0 150.0 " stroke="black" fill="none" stroke-width="5.0" stroke-linecap="round" stroke-linejoin="round" />
<path d="M 110.0 181.0 L 110.0 181.0 L 111.0 181.0 L 113.0 181.0 L 122.0 182.0 L 137.0 183.0 L 155.0 183.0 L 170.0 184.0 L 183.0 184.0 L 190.0 184.0 " stroke="black" fill="none" stroke-width="5.0" stroke-linecap="round" stroke-linejoin="round" />
<path d="M 147.0 126.0 L 147.0 126.0 L 147.0 126.0 L 147.0 127.0 L 147.0 133.0 L 149.0 147.0 L 150.0 163.0 L 150.0 175.0 L 150.0 179.0 " stroke="black" fill="none" stroke-width="5.0" stroke-linecap="round" stroke-linejoin="round" />
<path d="M 168.0 163.0 L 168.0 163.0 L 169.0 165.0 L 172.0 168.0 L 177.0 172.0 L 179.0 174.0 " stroke="black" fill="none" stroke-width="5.0" stroke-linecap="round" stroke-linejoin="round" />
</svg>