<svg xmlns="http://www.w3.org/2000/svg" width="300" height="300" viewBox="0 0 300 300">
<path d="M 122.0 116.0 L 122.0 116.0 L 122.0 116.0 L 122.0 116.0 L 124.0 116.0 L 134.0 116.0 L 150.0 115.0 L 163.0 115.0 L 171.0 115.0 L 173.0 116.0 L 174.0 116.0 " stroke="black" fill="none" stroke-width="5.0" stroke-linecap="round" stroke-linejoin="round" />
<path d="M 130.0 149.0 L 130.0 149.0 L 130.0 149.0 L 131.0 149.0 L 133.0 149.0 L 139.0 149.0 L 149.0 149.0 L 160.0 150.0 L 167.0 151.0 " stroke="black" fill="none" stroke-width="5.0" stroke-linecap="round" stroke-linejoin="round" />
<path d="M 109.0 195.0 L 109.0 195.0 L 110.0 195.0 L 118.0 195.0 L 137.0 195.0 L 157.0 195.0 L 172.0 195.0 L 182.0 196.0 " stroke="black" fill="none" stroke-width="5.0" stroke-linecap="round" stroke-linejoin="round" />
<path d="M 147.0 122.0 L 147.0 122.0 L 147.0 123.0 L 147.0 128.0 L 148.0 147.0 L 149.0 168.0 L 149.0 181.0 L 149.0 184.0 " stroke="black" fill="none" stroke-width="5.0" stroke-linecap="round" stroke-linejoin="round" />
<path d="M 172.0 168.0 L 172.0 168.0 L 172.0 169.0 L 174.0 171.0 L 176.0 177.0 L 179.0 183.0 " stroke="black" fill="none" stroke-width="5.0" stroke-linecap="round" stroke-linejoin="round" />
</svg>