<svg xmlns="http://www.w3.org/2000/svg" width="300" height="300" viewBox="0 0 300 300">
<path d="M 123.0 120.0 L 123.0 120.0 L 123.0 120.0 L 124.0 119.0 L 127.0 119.0 L 137.0 119.0 L 150.0 119.0 L 162.0 119.0 L 169.0 119.0 L 172.0 119.0 L 172.0 119.0 L 172.0 119.0 " stroke="black" fill="none" stroke-width="5.0" stroke-linecap="round" stroke-linejoin="round" />
<path d="M 127.0 149.0 L 127.0 149.0 L 128.0 149.0 L 130.0 149.0 L 133.0 150.0 L 140.0 150.0 L 149.0 150.0 L 157.0 150.0 L 161.0 151.0 " stroke="black" fill="none" stroke-width="5.0" stroke-linecap="round" stroke-linejoin="round" />
<path d="M 106.0 184.0 L 106.0 184.0 L 108.0 184.0 L 112.0 184.0 L 124.0 185.0 L 143.0 186.0 L 160.0 187.0 L 174.0 187.0 L 181.0 187.0 L 182.0 187.0 " stroke="black" fill="none" stroke-width="5.0" stroke-linecap="round" stroke-linejoin="round" />
<path d="M 147.0 127.0 L 147.0 127.0 L 147.0 127.0 L 147.0 132.0 L 148.0 146.0 L 150.0 167.0 L 151.0 181.0 L 151.0 185.0 " stroke="black" fill="none" stroke-width="5.0" stroke-linecap="round" stroke-linejoin="round" />
<path d="M 167.0 164.0 L 168.0 167.0 L 170.0 170.0 L 174.0 174.0 L 178.0 176.0 " stroke="black" fill="none" stroke-width="5.0" stroke-linecap="round" stroke-linejoin="round" />
</svg>