<svg xmlns="http://www.w3.org/2000/svg" width="300" height="300" viewBox="0 0 300 300">
<path d="M 118.0 113.0 L 118.0 113.0 L 118.0 113.0 L 119.0 113.0 L 127.0 114.0 L 141.0 114.0 L 155.0 113.0 L 164.0 111.0 L 168.0 110.0 L 171.0 109.0 L 171.0 109.0 " stroke="black" fill="none" stroke-width="5.0" stroke-linecap="round" stroke-linejoin="round" />
<path d="M 133.0 143.0 L 133.0 143.0 L 133.0 143.0 L 133.0 143.0 L 135.0 143.0 L 143.0 143.0 L 152.0 143.0 L 160.0 143.0 L 162.0 143.0 " stroke="black" fill="none" stroke-width="5.0" stroke-linecap="round" stroke-linejoin="round" />
<path d="M 110.0 186.0 L 111.0 186.0 L 111.0 186.0 L 115.0 186.0 L 128.0 185.0 L 148.0 185.0 L 165.0 185.0 L 179.0 185.0 L 185.0 186.0 " stroke="black" fill="none" stroke-width="5.0" stroke-linecap="round" stroke-linejoin="round" />
<path d="M 146.0 118.0 L 146.0 118.0 L 146.0 118.0 L 146.0 118.0 L 146.0 126.0 L 148.0 146.0 L 149.0 167.0 L 149.0 181.0 " stroke="black" fill="none" stroke-width="5.0" stroke-linecap="round" stroke-linejoin="round" />
<path d="M 171.0 155.0 L 171.0 158.0 L 174.0 161.0 L 179.0 168.0 L 185.0 175.0 " stroke="black" fill="none" stroke-width="5.0" stroke-linecap="round" stroke-linejoin="round" />
</svg>