<svg xmlns="http://www.w3.org/2000/svg" width="300" height="300" viewBox="0 0 300 300">
<path d="M 128.0 120.0 L 128.0 120.0 L 128.0 121.0 L 128.0 122.0 L 133.0 122.0 L 144.0 122.0 L 157.0 122.0 L 165.0 122.0 L 168.0 122.0 L 168.0 122.0 " stroke="black" fill="none" stroke-width="5.0" stroke-linecap="round" stroke-linejoin="round" />
<path d="M 133.0 148.0 L 133.0 148.0 L 134.0 148.0 L 137.0 148.0 L 141.0 148.0 L 148.0 148.0 L 155.0 148.0 L 158.0 148.0 " stroke="black" fill="none" stroke-width="5.0" stroke-linecap="round" stroke-linejoin="round" />
<path d="M 108.0 178.0 L 108.0 179.0 L 109.0 180.0 L 113.0 180.0 L 126.0 181.0 L 144.0 182.0 L 161.0 182.0 L 174.0 183.0 L 184.0 183.0 L 186.0 183.0 " stroke="black" fill="none" stroke-width="5.0" stroke-linecap="round" stroke-linejoin="round" />
<path d="M 146.0 125.0 L 146.0 125.0 L 146.0 125.0 L 147.0 130.0 L 148.0 145.0 L 148.0 162.0 L 148.0 171.0 L 148.0 173.0 " stroke="black" fill="none" stroke-width="5.0" stroke-linecap="round" stroke-linejoin="round" />
<path d="M 169.0 161.0 L 169.0 161.0 L 170.0 162.0 L 172.0 164.0 L 175.0 168.0 L 177.0 170.0 " stroke="black" fill="none" stroke-width="5.0" stroke-linecap="round" stroke-linejoin="round" />
</svg>