<svg xmlns="http://www.w3.org/2000/svg" width="300" height="300" viewBox="0 0 300 300">
<path d="M 131.0 119.0 L 131.0 119.0 L 131.0 119.0 L 132.0 119.0 L 135.0 120.0 L 146.0 120.0 L 161.0 120.0 L 173.0 120.0 L 179.0 120.0 L 180.0 120.0 L 179.0 120.0 L 178.0 120.0 L 177.0 120.0 " stroke="black" fill="none" stroke-width="5.0" stroke-linecap="round" stroke-linejoin="round" />
<path d="M 137.0 154.0 L 137.0 154.0 L 136.0 154.0 L 136.0 154.0 L 136.0 154.0 L 139.0 154.0 L 147.0 154.0 L 156.0 154.0 L 164.0 154.0 L 169.0 154.0 L 170.0 154.0 L 170.0 154.0 " stroke="black" fill="none" stroke-width="5.0" stroke-linecap="round" stroke-linejoin="round" />
<path d="M 111.0 192.0 L 111.0 192.0 L 111.0 192.0 L 111.0 192.0 L 115.0 192.0 L 127.0 192.0 L 146.0 193.0 L 165.0 193.0 L 178.0 194.0 L 185.0 194.0 L 187.0 194.0 L 187.0 194.0 L 186.0 195.0 " stroke="black" fill="none" stroke-width="5.0" stroke-linecap="round" stroke-linejoin="round" />
<path d="M 151.0 127.0 L 151.0 127.0 L 150.0 127.0 L 150.0 127.0 L 150.0 127.0 L 150.0 128.0 L 150.0 139.0 L 150.0 160.0 L 150.0 181.0 L 150.0 188.0 L 151.0 188.0 " stroke="black" fill="none" stroke-width="5.0" stroke-linecap="round" stroke-linejoin="round" />
<path d="M 167.0 171.0 L 167.0 171.0 L 168.0 172.0 L 169.0 172.0 L 172.0 176.0 L 178.0 181.0 L 180.0 183.0 " stroke="black" fill="none" stroke-width="5.0" stroke-linecap="round" stroke-linejoin="round" />
</svg>