<svg xmlns="http://www.w3.org/2000/svg" width="300" height="300" viewBox="0 0 300 300">
<path d="M 124.0 120.0 L 125.0 120.0 L 126.0 120.0 L 130.0 120.0 L 136.0 120.0 L 143.0 120.0 L 152.0 120.0 L 161.0 120.0 L 165.0 120.0 L 166.0 120.0 " stroke="black" fill="none" stroke-width="5.0" stroke-linecap="round" stroke-linejoin="round" />
<path d="M 127.0 150.0 L 128.0 150.0 L 129.0 150.0 L 134.0 150.0 L 142.0 150.0 L 152.0 149.0 L 158.0 149.0 L 162.0 149.0 " stroke="black" fill="none" stroke-width="5.0" stroke-linecap="round" stroke-linejoin="round" />
<path d="M 106.0 184.0 L 106.0 184.0 L 106.0 184.0 L 108.0 184.0 L 117.0 184.0 L 138.0 185.0 L 159.0 186.0 L 175.0 187.0 L 182.0 188.0 L 185.0 188.0 " stroke="black" fill="none" stroke-width="5.0" stroke-linecap="round" stroke-linejoin="round" />
<path d="M 145.0 125.0 L 145.0 125.0 L 145.0 128.0 L 144.0 133.0 L 144.0 137.0 L 146.0 153.0 L 146.0 163.0 L 147.0 173.0 " stroke="black" fill="none" stroke-width="5.0" stroke-linecap="round" stroke-linejoin="round" />
<path d="M 164.0 161.0 L 167.0 164.0 L 171.0 168.0 L 174.0 172.0 L 179.0 175.0 L 181.0 177.0 " stroke="black" fill="none" stroke-width="5.0" stroke-linecap="round" stroke-linejoin="round" />
</svg>