<svg xmlns="http://www.w3.org/2000/svg" width="300" height="300" viewBox="0 0 300 300">
<path d="M 152.0 106.0 L 152.0 106.0 L 152.0 106.0 L 152.0 106.0 L 152.0 106.0 L 152.0 106.0 L 152.0 107.0 L 153.0 112.0 L 154.0 120.0 L 154.0 124.0 " stroke="black" fill="none" stroke-width="5.0" stroke-linecap="round" stroke-linejoin="round" />
<path d="M 131.0 117.0 L 131.0 117.0 L 131.0 118.0 L 131.0 118.0 L 133.0 120.0 L 137.0 123.0 L 140.0 124.0 " stroke="black" fill="none" stroke-width="5.0" stroke-linecap="round" stroke-linejoin="round" />
<path d="M 169.0 115.0 L 169.0 115.0 L 169.0 116.0 L 169.0 116.0 L 167.0 119.0 L 164.0 123.0 " stroke="black" fill="none" stroke-width="5.0" stroke-linecap="round" stroke-linejoin="round" />
<path d="M 122.0 137.0 L 123.0 138.0 L 123.0 140.0 L 123.0 143.0 L 123.0 148.0 L 124.0 152.0 L 125.0 153.0 " stroke="black" fill="none" stroke-width="5.0" stroke-linecap="round" stroke-linejoin="round" />
<path d="M 124.0 135.0 L 125.0 135.0 L 126.0 134.0 L 127.0 134.0 L 132.0 134.0 L 144.0 133.0 L 158.0 132.0 L 171.0 132.0 L 181.0 131.0 L 185.0 132.0 L 187.0 134.0 L 188.0 137.0 L 188.0 140.0 L 188.0 144.0 L 187.0 148.0 " stroke="black" fill="none" stroke-width="5.0" stroke-linecap="round" stroke-linejoin="round" />
<path d="M 141.0 148.0 L 141.0 148.0 L 141.0 148.0 L 141.0 148.0 L 141.0 149.0 L 141.0 151.0 L 142.0 152.0 " stroke="black" fill="none" stroke-width="5.0" stroke-linecap="round" stroke-linejoin="round" />
<path d="M 143.0 148.0 L 143.0 148.0 L 143.0 147.0 L 144.0 147.0 L 150.0 146.0 L 158.0 146.0 L 166.0 146.0 L 171.0 146.0 L 173.0 148.0 L 173.0 151.0 L 173.0 153.0 L 171.0 156.0 " stroke="black" fill="none" stroke-width="5.0" stroke-linecap="round" stroke-linejoin="round" />
<path d="M 146.0 158.0 L 146.0 158.0 L 146.0 159.0 L 145.0 159.0 L 148.0 159.0 L 155.0 160.0 L 164.0 161.0 L 170.0 162.0 " stroke="black" fill="none" stroke-width="5.0" stroke-linecap="round" stroke-linejoin="round" />
<path d="M 141.0 173.0 L 141.0 173.0 L 141.0 173.0 L 141.0 173.0 L 143.0 174.0 L 149.0 174.0 L 157.0 174.0 L 164.0 174.0 L 167.0 175.0 " stroke="black" fill="none" stroke-width="5.0" stroke-linecap="round" stroke-linejoin="round" />
<path d="M 128.0 190.0 L 130.0 190.0 L 133.0 190.0 L 141.0 191.0 L 155.0 191.0 L 168.0 192.0 L 180.0 192.0 L 185.0 192.0 " stroke="black" fill="none" stroke-width="5.0" stroke-linecap="round" stroke-linejoin="round" />
<path d="M 155.0 164.0 L 156.0 164.0 L 156.0 163.0 L 156.0 165.0 L 157.0 173.0 L 158.0 184.0 L 158.0 186.0 " stroke="black" fill="none" stroke-width="5.0" stroke-linecap="round" stroke-linejoin="round" />
</svg>