<svg xmlns="http://www.w3.org/2000/svg" width="300" height="300" viewBox="0 0 300 300">
<path d="M 132.0 106.0 L 132.0 106.0 L 132.0 106.0 L 133.0 107.0 L 135.0 109.0 L 138.0 111.0 " stroke="black" fill="none" stroke-width="5.0" stroke-linecap="round" stroke-linejoin="round" />
<path d="M 160.0 102.0 L 160.0 102.0 L 160.0 103.0 L 160.0 105.0 L 158.0 110.0 L 157.0 114.0 " stroke="black" fill="none" stroke-width="5.0" stroke-linecap="round" stroke-linejoin="round" />
<path d="M 115.0 125.0 L 115.0 125.0 L 115.0 125.0 L 118.0 125.0 L 128.0 125.0 L 144.0 125.0 L 160.0 125.0 L 170.0 125.0 L 175.0 125.0 L 176.0 125.0 " stroke="black" fill="none" stroke-width="5.0" stroke-linecap="round" stroke-linejoin="round" />
<path d="M 138.0 140.0 L 138.0 139.0 L 138.0 139.0 L 138.0 138.0 L 138.0 139.0 L 136.0 143.0 L 134.0 148.0 L 133.0 149.0 " stroke="black" fill="none" stroke-width="5.0" stroke-linecap="round" stroke-linejoin="round" />
<path d="M 158.0 139.0 L 159.0 140.0 L 161.0 142.0 L 165.0 146.0 L 170.0 151.0 L 174.0 154.0 L 175.0 155.0 " stroke="black" fill="none" stroke-width="5.0" stroke-linecap="round" stroke-linejoin="round" />
<path d="M 120.0 165.0 L 120.0 165.0 L 120.0 166.0 L 120.0 168.0 L 121.0 173.0 L 123.0 178.0 L 125.0 182.0 L 125.0 182.0 " stroke="black" fill="none" stroke-width="5.0" stroke-linecap="round" stroke-linejoin="round" />
<path d="M 121.0 165.0 L 121.0 165.0 L 122.0 165.0 L 124.0 165.0 L 129.0 165.0 L 140.0 166.0 L 154.0 166.0 L 166.0 167.0 L 175.0 168.0 L 181.0 169.0 L 184.0 171.0 L 185.0 174.0 L 185.0 179.0 L 185.0 185.0 L 184.0 189.0 L 182.0 190.0 " stroke="black" fill="none" stroke-width="5.0" stroke-linecap="round" stroke-linejoin="round" />
<path d="M 144.0 170.0 L 144.0 171.0 L 144.0 172.0 L 145.0 175.0 L 145.0 177.0 " stroke="black" fill="none" stroke-width="5.0" stroke-linecap="round" stroke-linejoin="round" />
<path d="M 162.0 170.0 L 162.0 171.0 L 161.0 174.0 L 160.0 178.0 L 158.0 183.0 " stroke="black" fill="none" stroke-width="5.0" stroke-linecap="round" stroke-linejoin="round" />
<path d="M 107.0 191.0 L 107.0 191.0 L 106.0 191.0 L 106.0 191.0 L 108.0 191.0 L 118.0 191.0 L 138.0 192.0 L 158.0 194.0 L 173.0 196.0 L 186.0 198.0 L 196.0 199.0 L 202.0 198.0 L 206.0 197.0 L 207.0 196.0 L 207.0 196.0 L 206.0 196.0 L 203.0 196.0 " stroke="black" fill="none" stroke-width="5.0" stroke-linecap="round" stroke-linejoin="round" />
</svg>