<svg xmlns="http://www.w3.org/2000/svg" width="300" height="300" viewBox="0 0 300 300">
<path d="M 112.0 123.0 L 112.0 123.0 L 112.0 123.0 L 113.0 123.0 L 117.0 124.0 L 126.0 124.0 L 135.0 123.0 L 139.0 123.0 " stroke="black" fill="none" stroke-width="5.0" stroke-linecap="round" stroke-linejoin="round" />
<path d="M 124.0 107.0 L 124.0 107.0 L 124.0 106.0 L 124.0 106.0 L 124.0 106.0 L 125.0 114.0 L 127.0 130.0 L 130.0 154.0 L 130.0 172.0 L 130.0 183.0 L 130.0 188.0 L 128.0 189.0 L 126.0 189.0 L 119.0 185.0 L 111.0 181.0 L 106.0 179.0 " stroke="black" fill="none" stroke-width="5.0" stroke-linecap="round" stroke-linejoin="round" />
<path d="M 106.0 158.0 L 106.0 158.0 L 106.0 158.0 L 111.0 158.0 L 125.0 155.0 L 141.0 150.0 L 144.0 149.0 " stroke="black" fill="none" stroke-width="5.0" stroke-linecap="round" stroke-linejoin="round" />
<path d="M 152.0 122.0 L 152.0 122.0 L 152.0 122.0 L 153.0 122.0 L 158.0 122.0 L 166.0 120.0 L 173.0 120.0 L 177.0 120.0 " stroke="black" fill="none" stroke-width="5.0" stroke-linecap="round" stroke-linejoin="round" />
<path d="M 154.0 140.0 L 156.0 141.0 L 159.0 141.0 L 165.0 141.0 L 173.0 139.0 L 177.0 138.0 " stroke="black" fill="none" stroke-width="5.0" stroke-linecap="round" stroke-linejoin="round" />
<path d="M 160.0 110.0 L 160.0 111.0 L 160.0 112.0 L 160.0 118.0 L 163.0 128.0 L 165.0 138.0 L 166.0 140.0 " stroke="black" fill="none" stroke-width="5.0" stroke-linecap="round" stroke-linejoin="round" />
<path d="M 146.0 161.0 L 146.0 161.0 L 148.0 161.0 L 153.0 162.0 L 163.0 161.0 L 176.0 160.0 L 185.0 159.0 L 187.0 159.0 " stroke="black" fill="none" stroke-width="5.0" stroke-linecap="round" stroke-linejoin="round" />
<path d="M 166.0 145.0 L 166.0 145.0 L 166.0 145.0 L 166.0 149.0 L 170.0 159.0 L 175.0 175.0 L 178.0 189.0 L 179.0 197.0 L 179.0 200.0 L 177.0 200.0 L 171.0 199.0 L 162.0 197.0 L 160.0 196.0 " stroke="black" fill="none" stroke-width="5.0" stroke-linecap="round" stroke-linejoin="round" />
<path d="M 146.0 176.0 L 147.0 176.0 L 150.0 178.0 L 156.0 179.0 L 165.0 180.0 " stroke="black" fill="none" stroke-width="5.0" stroke-linecap="round" stroke-linejoin="round" />
</svg>