<svg xmlns="http://www.w3.org/2000/svg" width="300" height="300" viewBox="0 0 300 300">
<path d="M 135.0 109.0 L 135.0 109.0 L 134.0 109.0 L 133.0 110.0 L 132.0 112.0 L 127.0 118.0 L 118.0 128.0 L 112.0 135.0 " stroke="black" fill="none" stroke-width="5.0" stroke-linecap="round" stroke-linejoin="round" />
<path d="M 138.0 130.0 L 137.0 131.0 L 136.0 132.0 L 135.0 133.0 L 133.0 136.0 L 129.0 142.0 L 119.0 152.0 L 105.0 166.0 L 97.0 176.0 L 96.0 176.0 " stroke="black" fill="none" stroke-width="5.0" stroke-linecap="round" stroke-linejoin="round" />
<path d="M 122.0 153.0 L 122.0 153.0 L 122.0 153.0 L 122.0 153.0 L 122.0 157.0 L 123.0 168.0 L 123.0 184.0 L 123.0 193.0 " stroke="black" fill="none" stroke-width="5.0" stroke-linecap="round" stroke-linejoin="round" />
<path d="M 152.0 116.0 L 152.0 116.0 L 152.0 116.0 L 153.0 116.0 L 157.0 116.0 L 165.0 115.0 L 174.0 114.0 L 179.0 114.0 " stroke="black" fill="none" stroke-width="5.0" stroke-linecap="round" stroke-linejoin="round" />
<path d="M 143.0 139.0 L 143.0 139.0 L 143.0 139.0 L 146.0 139.0 L 154.0 139.0 L 168.0 138.0 L 181.0 136.0 L 186.0 136.0 L 187.0 137.0 " stroke="black" fill="none" stroke-width="5.0" stroke-linecap="round" stroke-linejoin="round" />
<path d="M 163.0 142.0 L 163.0 142.0 L 163.0 142.0 L 163.0 142.0 L 163.0 145.0 L 167.0 155.0 L 171.0 171.0 L 175.0 185.0 L 177.0 194.0 L 177.0 197.0 L 177.0 197.0 L 171.0 195.0 L 160.0 192.0 L 155.0 190.0 " stroke="black" fill="none" stroke-width="5.0" stroke-linecap="round" stroke-linejoin="round" />
</svg>