<svg xmlns="http://www.w3.org/2000/svg" width="300" height="300" viewBox="0 0 300 300">
<path d="M 132.0 111.0 L 132.0 111.0 L 131.0 111.0 L 130.0 112.0 L 128.0 115.0 L 124.0 120.0 L 116.0 128.0 L 111.0 133.0 " stroke="black" fill="none" stroke-width="5.0" stroke-linecap="round" stroke-linejoin="round" />
<path d="M 138.0 125.0 L 138.0 125.0 L 138.0 125.0 L 138.0 126.0 L 137.0 127.0 L 134.0 132.0 L 127.0 142.0 L 115.0 157.0 L 104.0 170.0 L 100.0 175.0 L 100.0 176.0 " stroke="black" fill="none" stroke-width="5.0" stroke-linecap="round" stroke-linejoin="round" />
<path d="M 123.0 151.0 L 123.0 151.0 L 122.0 152.0 L 122.0 155.0 L 123.0 163.0 L 125.0 176.0 L 125.0 189.0 L 125.0 197.0 L 124.0 198.0 " stroke="black" fill="none" stroke-width="5.0" stroke-linecap="round" stroke-linejoin="round" />
<path d="M 154.0 113.0 L 154.0 113.0 L 154.0 113.0 L 154.0 113.0 L 155.0 113.0 L 160.0 113.0 L 168.0 113.0 L 175.0 113.0 L 178.0 113.0 " stroke="black" fill="none" stroke-width="5.0" stroke-linecap="round" stroke-linejoin="round" />
<path d="M 147.0 138.0 L 147.0 138.0 L 147.0 139.0 L 147.0 139.0 L 151.0 139.0 L 161.0 139.0 L 174.0 138.0 L 185.0 138.0 L 190.0 137.0 L 192.0 137.0 " stroke="black" fill="none" stroke-width="5.0" stroke-linecap="round" stroke-linejoin="round" />
<path d="M 165.0 142.0 L 165.0 142.0 L 165.0 142.0 L 165.0 142.0 L 166.0 142.0 L 168.0 148.0 L 172.0 161.0 L 176.0 179.0 L 179.0 193.0 L 179.0 200.0 L 179.0 202.0 L 177.0 203.0 L 168.0 202.0 L 158.0 199.0 " stroke="black" fill="none" stroke-width="5.0" stroke-linecap="round" stroke-linejoin="round" />
</svg>