<svg xmlns="http://www.w3.org/2000/svg" width="300" height="300" viewBox="0 0 300 300">
<path d="M 130.0 115.0 L 130.0 115.0 L 130.0 115.0 L 130.0 116.0 L 129.0 117.0 L 126.0 121.0 L 119.0 128.0 L 112.0 135.0 " stroke="black" fill="none" stroke-width="5.0" stroke-linecap="round" stroke-linejoin="round" />
<path d="M 135.0 130.0 L 135.0 130.0 L 134.0 131.0 L 133.0 133.0 L 128.0 138.0 L 120.0 148.0 L 109.0 159.0 L 100.0 168.0 L 97.0 170.0 L 98.0 170.0 " stroke="black" fill="none" stroke-width="5.0" stroke-linecap="round" stroke-linejoin="round" />
<path d="M 121.0 151.0 L 121.0 151.0 L 122.0 151.0 L 122.0 151.0 L 122.0 153.0 L 122.0 161.0 L 122.0 175.0 L 122.0 189.0 L 121.0 197.0 L 121.0 198.0 " stroke="black" fill="none" stroke-width="5.0" stroke-linecap="round" stroke-linejoin="round" />
<path d="M 151.0 116.0 L 151.0 116.0 L 152.0 117.0 L 155.0 117.0 L 160.0 117.0 L 167.0 117.0 L 172.0 117.0 L 173.0 117.0 " stroke="black" fill="none" stroke-width="5.0" stroke-linecap="round" stroke-linejoin="round" />
<path d="M 140.0 139.0 L 141.0 139.0 L 143.0 139.0 L 146.0 140.0 L 151.0 140.0 L 160.0 140.0 L 169.0 140.0 L 175.0 140.0 L 178.0 140.0 L 178.0 141.0 " stroke="black" fill="none" stroke-width="5.0" stroke-linecap="round" stroke-linejoin="round" />
<path d="M 163.0 140.0 L 163.0 140.0 L 163.0 140.0 L 163.0 141.0 L 163.0 142.0 L 163.0 146.0 L 164.0 153.0 L 166.0 167.0 L 168.0 182.0 L 169.0 193.0 L 169.0 197.0 L 168.0 198.0 L 165.0 198.0 L 160.0 195.0 L 155.0 192.0 " stroke="black" fill="none" stroke-width="5.0" stroke-linecap="round" stroke-linejoin="round" />
</svg>