<svg xmlns="http://www.w3.org/2000/svg" width="300" height="300" viewBox="0 0 300 300">
<path d="M 109.0 114.0 L 109.0 114.0 L 109.0 114.0 L 109.0 115.0 L 109.0 118.0 L 109.0 122.0 L 109.0 127.0 L 110.0 128.0 " stroke="black" fill="none" stroke-width="5.0" stroke-linecap="round" stroke-linejoin="round" />
<path d="M 111.0 112.0 L 111.0 112.0 L 111.0 112.0 L 112.0 112.0 L 116.0 111.0 L 122.0 109.0 L 132.0 108.0 L 140.0 107.0 L 144.0 107.0 L 147.0 109.0 L 148.0 114.0 L 148.0 120.0 L 148.0 126.0 L 148.0 131.0 L 147.0 132.0 " stroke="black" fill="none" stroke-width="5.0" stroke-linecap="round" stroke-linejoin="round" />
<path d="M 115.0 120.0 L 115.0 121.0 L 116.0 123.0 L 116.0 125.0 L 118.0 127.0 L 120.0 127.0 " stroke="black" fill="none" stroke-width="5.0" stroke-linecap="round" stroke-linejoin="round" />
<path d="M 140.0 120.0 L 140.0 121.0 L 139.0 122.0 L 138.0 123.0 L 138.0 125.0 L 137.0 127.0 L 136.0 129.0 " stroke="black" fill="none" stroke-width="5.0" stroke-linecap="round" stroke-linejoin="round" />
<path d="M 111.0 136.0 L 111.0 136.0 L 111.0 136.0 L 114.0 137.0 L 122.0 137.0 L 133.0 137.0 L 141.0 136.0 L 144.0 136.0 L 144.0 136.0 " stroke="black" fill="none" stroke-width="5.0" stroke-linecap="round" stroke-linejoin="round" />
<path d="M 125.0 114.0 L 125.0 115.0 L 125.0 116.0 L 125.0 119.0 L 127.0 125.0 L 130.0 138.0 L 132.0 153.0 L 133.0 163.0 L 133.0 165.0 L 133.0 165.0 " stroke="black" fill="none" stroke-width="5.0" stroke-linecap="round" stroke-linejoin="round" />
<path d="M 113.0 149.0 L 114.0 149.0 L 114.0 149.0 L 115.0 149.0 L 119.0 150.0 L 128.0 150.0 L 138.0 150.0 L 144.0 150.0 L 146.0 150.0 L 146.0 152.0 " stroke="black" fill="none" stroke-width="5.0" stroke-linecap="round" stroke-linejoin="round" />
<path d="M 108.0 166.0 L 109.0 167.0 L 111.0 168.0 L 116.0 169.0 L 125.0 169.0 L 135.0 167.0 L 143.0 166.0 L 147.0 166.0 L 147.0 166.0 " stroke="black" fill="none" stroke-width="5.0" stroke-linecap="round" stroke-linejoin="round" />
<path d="M 110.0 184.0 L 110.0 184.0 L 110.0 184.0 L 109.0 184.0 L 109.0 184.0 L 109.0 187.0 L 109.0 191.0 L 110.0 194.0 " stroke="black" fill="none" stroke-width="5.0" stroke-linecap="round" stroke-linejoin="round" />
<path d="M 120.0 183.0 L 120.0 183.0 L 120.0 182.0 L 121.0 182.0 L 122.0 184.0 L 123.0 187.0 L 124.0 190.0 L 125.0 191.0 " stroke="black" fill="none" stroke-width="5.0" stroke-linecap="round" stroke-linejoin="round" />
<path d="M 134.0 180.0 L 134.0 181.0 L 134.0 182.0 L 134.0 184.0 L 135.0 186.0 L 136.0 189.0 L 137.0 189.0 " stroke="black" fill="none" stroke-width="5.0" stroke-linecap="round" stroke-linejoin="round" />
<path d="M 146.0 176.0 L 146.0 179.0 L 148.0 184.0 L 149.0 188.0 L 150.0 190.0 " stroke="black" fill="none" stroke-width="5.0" stroke-linecap="round" stroke-linejoin="round" />
<path d="M 163.0 117.0 L 163.0 117.0 L 164.0 119.0 L 164.0 121.0 L 166.0 128.0 L 168.0 142.0 L 171.0 158.0 L 172.0 166.0 L 172.0 168.0 L 172.0 167.0 " stroke="black" fill="none" stroke-width="5.0" stroke-linecap="round" stroke-linejoin="round" />
<path d="M 173.0 149.0 L 173.0 149.0 L 174.0 149.0 L 176.0 149.0 L 181.0 149.0 L 187.0 149.0 L 192.0 149.0 L 193.0 149.0 " stroke="black" fill="none" stroke-width="5.0" stroke-linecap="round" stroke-linejoin="round" />
<path d="M 158.0 172.0 L 158.0 174.0 L 159.0 175.0 L 159.0 179.0 L 159.0 186.0 L 160.0 193.0 L 161.0 197.0 L 161.0 197.0 " stroke="black" fill="none" stroke-width="5.0" stroke-linecap="round" stroke-linejoin="round" />
<path d="M 160.0 171.0 L 161.0 171.0 L 162.0 171.0 L 164.0 170.0 L 168.0 170.0 L 174.0 169.0 L 180.0 169.0 L 185.0 169.0 L 189.0 169.0 L 191.0 170.0 L 192.0 173.0 L 192.0 179.0 L 192.0 187.0 L 192.0 194.0 L 193.0 197.0 L 193.0 198.0 " stroke="black" fill="none" stroke-width="5.0" stroke-linecap="round" stroke-linejoin="round" />
<path d="M 165.0 200.0 L 165.0 201.0 L 165.0 202.0 L 165.0 203.0 L 170.0 203.0 L 179.0 203.0 L 188.0 202.0 L 194.0 202.0 " stroke="black" fill="none" stroke-width="5.0" stroke-linecap="round" stroke-linejoin="round" />
</svg>