<svg xmlns="http://www.w3.org/2000/svg" width="300" height="300" viewBox="0 0 300 300">
<path d="M 139.0 113.0 L 139.0 113.0 L 138.0 113.0 L 138.0 113.0 L 138.0 115.0 L 138.0 120.0 L 139.0 126.0 L 140.0 127.0 " stroke="black" fill="none" stroke-width="5.0" stroke-linecap="round" stroke-linejoin="round" />
<path d="M 122.0 125.0 L 122.0 125.0 L 123.0 125.0 L 126.0 124.0 L 134.0 123.0 L 145.0 122.0 L 157.0 122.0 L 167.0 122.0 L 173.0 122.0 L 177.0 122.0 L 178.0 122.0 L 178.0 122.0 " stroke="black" fill="none" stroke-width="5.0" stroke-linecap="round" stroke-linejoin="round" />
<path d="M 160.0 112.0 L 160.0 112.0 L 160.0 112.0 L 160.0 112.0 L 161.0 116.0 L 161.0 123.0 L 162.0 131.0 L 162.0 133.0 " stroke="black" fill="none" stroke-width="5.0" stroke-linecap="round" stroke-linejoin="round" />
<path d="M 133.0 145.0 L 133.0 145.0 L 134.0 145.0 L 136.0 145.0 L 141.0 145.0 L 149.0 145.0 L 156.0 145.0 L 162.0 145.0 L 163.0 146.0 " stroke="black" fill="none" stroke-width="5.0" stroke-linecap="round" stroke-linejoin="round" />
<path d="M 116.0 168.0 L 116.0 168.0 L 117.0 168.0 L 118.0 169.0 L 124.0 169.0 L 137.0 169.0 L 153.0 169.0 L 167.0 169.0 L 175.0 169.0 L 180.0 169.0 L 180.0 169.0 " stroke="black" fill="none" stroke-width="5.0" stroke-linecap="round" stroke-linejoin="round" />
<path d="M 152.0 136.0 L 152.0 136.0 L 151.0 136.0 L 151.0 136.0 L 150.0 140.0 L 148.0 152.0 L 143.0 170.0 L 136.0 185.0 L 130.0 193.0 L 128.0 195.0 " stroke="black" fill="none" stroke-width="5.0" stroke-linecap="round" stroke-linejoin="round" />
<path d="M 154.0 178.0 L 154.0 178.0 L 155.0 179.0 L 156.0 183.0 L 161.0 189.0 L 168.0 195.0 L 176.0 200.0 L 178.0 201.0 " stroke="black" fill="none" stroke-width="5.0" stroke-linecap="round" stroke-linejoin="round" />
</svg>