<svg xmlns="http://www.w3.org/2000/svg" width="300" height="300" viewBox="0 0 300 300">
<path d="M 121.0 110.0 L 121.0 110.0 L 121.0 110.0 L 121.0 110.0 L 122.0 110.0 L 123.0 110.0 L 124.0 110.0 L 127.0 110.0 L 130.0 110.0 L 133.0 110.0 L 135.0 109.0 L 137.0 109.0 L 137.0 109.0 L 138.0 112.0 L 138.0 117.0 L 139.0 124.0 L 140.0 130.0 L 140.0 134.0 L 140.0 136.0 " stroke="black" fill="none" stroke-width="5.0" stroke-linecap="round" stroke-linejoin="round" />
<path d="M 122.0 124.0 L 122.0 125.0 L 122.0 126.0 L 123.0 126.0 L 126.0 126.0 L 131.0 126.0 L 135.0 126.0 L 138.0 126.0 " stroke="black" fill="none" stroke-width="5.0" stroke-linecap="round" stroke-linejoin="round" />
<path d="M 117.0 139.0 L 117.0 139.0 L 117.0 139.0 L 120.0 140.0 L 126.0 140.0 L 133.0 140.0 L 137.0 140.0 " stroke="black" fill="none" stroke-width="5.0" stroke-linecap="round" stroke-linejoin="round" />
<path d="M 118.0 112.0 L 118.0 112.0 L 118.0 112.0 L 117.0 112.0 L 116.0 114.0 L 116.0 123.0 L 117.0 144.0 L 118.0 189.0 L 118.0 197.0 L 119.0 198.0 L 119.0 197.0 " stroke="black" fill="none" stroke-width="5.0" stroke-linecap="round" stroke-linejoin="round" />
<path d="M 155.0 107.0 L 155.0 107.0 L 155.0 107.0 L 155.0 107.0 L 156.0 107.0 L 156.0 107.0 L 159.0 107.0 L 163.0 107.0 L 168.0 107.0 L 172.0 107.0 L 175.0 107.0 L 176.0 107.0 L 178.0 110.0 L 178.0 117.0 L 181.0 131.0 L 184.0 148.0 L 187.0 166.0 L 189.0 179.0 L 190.0 189.0 L 190.0 195.0 L 190.0 197.0 L 187.0 198.0 L 182.0 197.0 L 175.0 193.0 L 173.0 192.0 " stroke="black" fill="none" stroke-width="5.0" stroke-linecap="round" stroke-linejoin="round" />
<path d="M 154.0 109.0 L 154.0 109.0 L 154.0 109.0 L 153.0 108.0 L 153.0 108.0 L 152.0 109.0 L 152.0 115.0 L 152.0 123.0 L 152.0 131.0 L 155.0 138.0 L 160.0 141.0 L 167.0 140.0 L 172.0 136.0 " stroke="black" fill="none" stroke-width="5.0" stroke-linecap="round" stroke-linejoin="round" />
<path d="M 154.0 123.0 L 154.0 123.0 L 153.0 123.0 L 153.0 124.0 L 156.0 125.0 L 163.0 125.0 L 173.0 125.0 L 178.0 124.0 " stroke="black" fill="none" stroke-width="5.0" stroke-linecap="round" stroke-linejoin="round" />
</svg>