<svg xmlns="http://www.w3.org/2000/svg" width="300" height="300" viewBox="0 0 300 300">
<path d="M 114.0 110.0 L 114.0 110.0 L 115.0 110.0 L 117.0 110.0 L 118.0 111.0 L 121.0 111.0 L 125.0 110.0 L 130.0 110.0 L 133.0 109.0 L 134.0 109.0 L 134.0 109.0 L 135.0 110.0 L 135.0 114.0 L 135.0 120.0 L 136.0 126.0 L 136.0 129.0 L 136.0 130.0 " stroke="black" fill="none" stroke-width="5.0" stroke-linecap="round" stroke-linejoin="round" />
<path d="M 115.0 122.0 L 115.0 122.0 L 115.0 122.0 L 116.0 122.0 L 118.0 123.0 L 123.0 123.0 L 129.0 123.0 L 134.0 123.0 L 134.0 123.0 " stroke="black" fill="none" stroke-width="5.0" stroke-linecap="round" stroke-linejoin="round" />
<path d="M 112.0 136.0 L 112.0 136.0 L 114.0 137.0 L 116.0 138.0 L 121.0 138.0 L 129.0 137.0 L 136.0 135.0 " stroke="black" fill="none" stroke-width="5.0" stroke-linecap="round" stroke-linejoin="round" />
<path d="M 110.0 114.0 L 110.0 114.0 L 110.0 113.0 L 110.0 112.0 L 110.0 112.0 L 111.0 118.0 L 112.0 132.0 L 113.0 155.0 L 114.0 176.0 L 114.0 191.0 L 115.0 197.0 L 116.0 198.0 L 116.0 196.0 " stroke="black" fill="none" stroke-width="5.0" stroke-linecap="round" stroke-linejoin="round" />
<path d="M 150.0 108.0 L 151.0 108.0 L 151.0 108.0 L 152.0 109.0 L 154.0 109.0 L 157.0 110.0 L 161.0 110.0 L 163.0 110.0 L 165.0 110.0 L 167.0 111.0 L 169.0 115.0 L 172.0 124.0 L 177.0 141.0 L 180.0 159.0 L 183.0 173.0 L 185.0 182.0 L 186.0 189.0 L 186.0 194.0 L 186.0 197.0 L 182.0 199.0 L 175.0 199.0 L 167.0 194.0 L 164.0 192.0 " stroke="black" fill="none" stroke-width="5.0" stroke-linecap="round" stroke-linejoin="round" />
<path d="M 150.0 113.0 L 150.0 113.0 L 150.0 113.0 L 150.0 113.0 L 149.0 113.0 L 149.0 115.0 L 149.0 120.0 L 149.0 126.0 L 150.0 131.0 L 153.0 133.0 L 158.0 135.0 L 163.0 135.0 L 165.0 135.0 " stroke="black" fill="none" stroke-width="5.0" stroke-linecap="round" stroke-linejoin="round" />
<path d="M 151.0 123.0 L 151.0 123.0 L 150.0 123.0 L 150.0 123.0 L 152.0 124.0 L 157.0 125.0 L 162.0 126.0 L 164.0 126.0 " stroke="black" fill="none" stroke-width="5.0" stroke-linecap="round" stroke-linejoin="round" />
</svg>