<svg xmlns="http://www.w3.org/2000/svg" width="300" height="300" viewBox="0 0 300 300">
<path d="M 119.0 119.0 L 119.0 119.0 L 119.0 119.0 L 120.0 119.0 L 122.0 119.0 L 126.0 119.0 L 132.0 119.0 L 136.0 119.0 L 138.0 119.0 L 139.0 119.0 L 139.0 121.0 L 139.0 125.0 L 139.0 131.0 L 138.0 137.0 L 138.0 141.0 L 138.0 143.0 L 137.0 144.0 L 135.0 144.0 L 133.0 144.0 L 129.0 143.0 L 126.0 142.0 L 123.0 142.0 L 121.0 142.0 L 120.0 142.0 L 118.0 142.0 L 117.0 143.0 L 116.0 145.0 L 115.0 149.0 L 114.0 152.0 L 114.0 155.0 L 114.0 157.0 L 114.0 157.0 L 116.0 158.0 L 120.0 159.0 L 125.0 160.0 L 131.0 160.0 L 135.0 160.0 L 138.0 160.0 L 139.0 160.0 L 139.0 161.0 L 139.0 166.0 L 140.0 173.0 L 141.0 180.0 L 141.0 185.0 L 141.0 187.0 L 138.0 188.0 L 133.0 189.0 L 125.0 188.0 L 116.0 185.0 L 109.0 183.0 " stroke="black" fill="none" stroke-width="5.0" stroke-linecap="round" stroke-linejoin="round" />
<path d="M 152.0 115.0 L 152.0 115.0 L 152.0 115.0 L 152.0 115.0 L 154.0 115.0 L 158.0 115.0 L 166.0 115.0 L 173.0 115.0 L 177.0 115.0 L 177.0 115.0 " stroke="black" fill="none" stroke-width="5.0" stroke-linecap="round" stroke-linejoin="round" />
<path d="M 153.0 120.0 L 153.0 120.0 L 153.0 120.0 L 153.0 121.0 L 153.0 129.0 L 156.0 155.0 L 157.0 161.0 L 157.0 162.0 " stroke="black" fill="none" stroke-width="5.0" stroke-linecap="round" stroke-linejoin="round" />
<path d="M 156.0 134.0 L 157.0 134.0 L 158.0 134.0 L 160.0 134.0 L 164.0 134.0 L 170.0 134.0 L 175.0 133.0 L 178.0 133.0 L 178.0 133.0 L 178.0 133.0 " stroke="black" fill="none" stroke-width="5.0" stroke-linecap="round" stroke-linejoin="round" />
<path d="M 157.0 145.0 L 158.0 146.0 L 161.0 147.0 L 165.0 147.0 L 172.0 147.0 L 179.0 147.0 L 182.0 147.0 L 183.0 147.0 " stroke="black" fill="none" stroke-width="5.0" stroke-linecap="round" stroke-linejoin="round" />
<path d="M 145.0 162.0 L 146.0 164.0 L 148.0 165.0 L 154.0 165.0 L 166.0 165.0 L 178.0 163.0 L 184.0 162.0 L 185.0 162.0 " stroke="black" fill="none" stroke-width="5.0" stroke-linecap="round" stroke-linejoin="round" />
<path d="M 157.0 165.0 L 157.0 165.0 L 158.0 165.0 L 158.0 165.0 L 158.0 168.0 L 157.0 177.0 L 157.0 190.0 L 159.0 198.0 L 165.0 201.0 L 172.0 198.0 L 176.0 194.0 " stroke="black" fill="none" stroke-width="5.0" stroke-linecap="round" stroke-linejoin="round" />
<path d="M 195.0 168.0 L 194.0 169.0 L 193.0 171.0 L 191.0 174.0 L 189.0 177.0 L 187.0 182.0 L 186.0 183.0 " stroke="black" fill="none" stroke-width="5.0" stroke-linecap="round" stroke-linejoin="round" />
<path d="M 165.0 169.0 L 166.0 170.0 L 167.0 172.0 L 171.0 176.0 L 181.0 185.0 L 191.0 194.0 L 200.0 201.0 L 204.0 205.0 L 205.0 206.0 L 206.0 206.0 L 205.0 206.0 " stroke="black" fill="none" stroke-width="5.0" stroke-linecap="round" stroke-linejoin="round" />
</svg>