<svg xmlns="http://www.w3.org/2000/svg" width="300" height="300" viewBox="0 0 300 300">
<path d="M 148.0 102.0 L 148.0 102.0 L 147.0 103.0 L 146.0 104.0 L 144.0 107.0 L 141.0 112.0 L 136.0 117.0 L 133.0 120.0 " stroke="black" fill="none" stroke-width="5.0" stroke-linecap="round" stroke-linejoin="round" />
<path d="M 145.0 111.0 L 145.0 111.0 L 145.0 111.0 L 145.0 111.0 L 146.0 111.0 L 148.0 111.0 L 152.0 112.0 L 155.0 112.0 L 157.0 113.0 L 157.0 115.0 L 157.0 119.0 L 153.0 124.0 L 149.0 129.0 " stroke="black" fill="none" stroke-width="5.0" stroke-linecap="round" stroke-linejoin="round" />
<path d="M 126.0 133.0 L 126.0 133.0 L 125.0 134.0 L 128.0 134.0 L 135.0 134.0 L 146.0 133.0 L 156.0 132.0 L 164.0 132.0 L 168.0 132.0 L 170.0 132.0 L 170.0 132.0 L 170.0 133.0 L 171.0 139.0 L 171.0 145.0 L 171.0 150.0 L 171.0 152.0 L 171.0 152.0 " stroke="black" fill="none" stroke-width="5.0" stroke-linecap="round" stroke-linejoin="round" />
<path d="M 146.0 136.0 L 146.0 136.0 L 145.0 137.0 L 145.0 140.0 L 145.0 144.0 L 145.0 150.0 L 146.0 153.0 " stroke="black" fill="none" stroke-width="5.0" stroke-linecap="round" stroke-linejoin="round" />
<path d="M 124.0 156.0 L 124.0 156.0 L 124.0 156.0 L 126.0 157.0 L 134.0 157.0 L 145.0 157.0 L 157.0 156.0 L 163.0 155.0 L 165.0 155.0 " stroke="black" fill="none" stroke-width="5.0" stroke-linecap="round" stroke-linejoin="round" />
<path d="M 122.0 137.0 L 122.0 135.0 L 122.0 135.0 L 122.0 137.0 L 121.0 145.0 L 121.0 158.0 L 120.0 172.0 L 119.0 183.0 L 119.0 189.0 L 122.0 192.0 L 128.0 193.0 L 138.0 194.0 L 148.0 195.0 L 159.0 196.0 L 169.0 197.0 L 179.0 198.0 L 184.0 198.0 L 186.0 197.0 L 186.0 194.0 L 186.0 188.0 L 186.0 177.0 " stroke="black" fill="none" stroke-width="5.0" stroke-linecap="round" stroke-linejoin="round" />
</svg>