<svg xmlns="http://www.w3.org/2000/svg" width="300" height="300" viewBox="0 0 300 300">
<path d="M 149.0 103.0 L 149.0 103.0 L 149.0 103.0 L 149.0 104.0 L 147.0 107.0 L 143.0 114.0 L 138.0 122.0 L 137.0 123.0 " stroke="black" fill="none" stroke-width="5.0" stroke-linecap="round" stroke-linejoin="round" />
<path d="M 147.0 118.0 L 147.0 118.0 L 149.0 118.0 L 152.0 118.0 L 155.0 118.0 L 158.0 118.0 L 160.0 118.0 L 160.0 120.0 L 160.0 123.0 L 158.0 128.0 L 154.0 134.0 L 151.0 137.0 " stroke="black" fill="none" stroke-width="5.0" stroke-linecap="round" stroke-linejoin="round" />
<path d="M 128.0 144.0 L 128.0 144.0 L 128.0 144.0 L 128.0 144.0 L 129.0 144.0 L 133.0 144.0 L 139.0 144.0 L 146.0 143.0 L 153.0 143.0 L 159.0 142.0 L 164.0 142.0 L 166.0 142.0 L 168.0 142.0 L 169.0 143.0 L 169.0 144.0 L 170.0 147.0 L 171.0 150.0 L 172.0 154.0 L 173.0 158.0 L 174.0 162.0 L 174.0 164.0 " stroke="black" fill="none" stroke-width="5.0" stroke-linecap="round" stroke-linejoin="round" />
<path d="M 148.0 145.0 L 148.0 145.0 L 148.0 147.0 L 148.0 151.0 L 149.0 156.0 L 149.0 157.0 " stroke="black" fill="none" stroke-width="5.0" stroke-linecap="round" stroke-linejoin="round" />
<path d="M 128.0 166.0 L 128.0 166.0 L 129.0 166.0 L 132.0 166.0 L 138.0 166.0 L 149.0 166.0 L 160.0 166.0 L 169.0 166.0 L 172.0 167.0 " stroke="black" fill="none" stroke-width="5.0" stroke-linecap="round" stroke-linejoin="round" />
<path d="M 123.0 150.0 L 123.0 150.0 L 122.0 150.0 L 122.0 151.0 L 122.0 156.0 L 123.0 165.0 L 124.0 177.0 L 125.0 188.0 L 125.0 196.0 L 126.0 199.0 L 130.0 201.0 L 135.0 203.0 L 141.0 204.0 L 148.0 205.0 L 155.0 206.0 L 163.0 206.0 L 171.0 206.0 L 180.0 206.0 L 187.0 206.0 L 192.0 206.0 L 195.0 205.0 L 195.0 203.0 L 195.0 198.0 L 195.0 187.0 L 194.0 182.0 " stroke="black" fill="none" stroke-width="5.0" stroke-linecap="round" stroke-linejoin="round" />
</svg>