<svg xmlns="http://www.w3.org/2000/svg" width="300" height="300" viewBox="0 0 300 300">
<path d="M 119.0 116.0 L 120.0 116.0 L 120.0 116.0 L 121.0 116.0 L 121.0 117.0 L 121.0 120.0 L 121.0 124.0 L 121.0 128.0 " stroke="black" fill="none" stroke-width="5.0" stroke-linecap="round" stroke-linejoin="round" />
<path d="M 119.0 112.0 L 119.0 112.0 L 119.0 112.0 L 120.0 112.0 L 121.0 112.0 L 125.0 112.0 L 133.0 112.0 L 146.0 111.0 L 159.0 111.0 L 169.0 111.0 L 176.0 110.0 L 180.0 110.0 L 183.0 113.0 L 184.0 118.0 L 185.0 123.0 L 185.0 127.0 L 184.0 130.0 L 184.0 131.0 " stroke="black" fill="none" stroke-width="5.0" stroke-linecap="round" stroke-linejoin="round" />
<path d="M 150.0 96.0 L 150.0 96.0 L 150.0 96.0 L 150.0 98.0 L 152.0 104.0 " stroke="black" fill="none" stroke-width="5.0" stroke-linecap="round" stroke-linejoin="round" />
<path d="M 140.0 134.0 L 140.0 134.0 L 140.0 134.0 L 140.0 134.0 L 141.0 134.0 L 147.0 133.0 L 154.0 133.0 L 160.0 134.0 L 161.0 134.0 " stroke="black" fill="none" stroke-width="5.0" stroke-linecap="round" stroke-linejoin="round" />
<path d="M 116.0 160.0 L 116.0 160.0 L 116.0 160.0 L 116.0 160.0 L 115.0 160.0 L 115.0 160.0 L 116.0 160.0 L 124.0 160.0 L 139.0 160.0 L 159.0 160.0 L 177.0 160.0 L 188.0 161.0 L 189.0 161.0 " stroke="black" fill="none" stroke-width="5.0" stroke-linecap="round" stroke-linejoin="round" />
<path d="M 150.0 136.0 L 150.0 136.0 L 150.0 136.0 L 150.0 136.0 L 150.0 136.0 L 150.0 136.0 L 150.0 137.0 L 150.0 143.0 L 152.0 157.0 L 154.0 174.0 L 156.0 188.0 L 156.0 194.0 L 155.0 197.0 L 153.0 197.0 L 149.0 195.0 L 141.0 190.0 L 139.0 188.0 " stroke="black" fill="none" stroke-width="5.0" stroke-linecap="round" stroke-linejoin="round" />
</svg>