<svg xmlns="http://www.w3.org/2000/svg" width="300" height="300" viewBox="0 0 300 300">
<path d="M 136.0 99.0 L 136.0 99.0 L 136.0 99.0 L 136.0 100.0 L 136.0 104.0 L 137.0 111.0 L 137.0 120.0 L 137.0 126.0 " stroke="black" fill="none" stroke-width="5.0" stroke-linecap="round" stroke-linejoin="round" />
<path d="M 117.0 118.0 L 117.0 118.0 L 117.0 118.0 L 117.0 118.0 L 117.0 118.0 L 121.0 118.0 L 128.0 117.0 L 132.0 117.0 " stroke="black" fill="none" stroke-width="5.0" stroke-linecap="round" stroke-linejoin="round" />
<path d="M 111.0 133.0 L 111.0 133.0 L 112.0 133.0 L 116.0 133.0 L 125.0 132.0 L 135.0 131.0 L 137.0 131.0 " stroke="black" fill="none" stroke-width="5.0" stroke-linecap="round" stroke-linejoin="round" />
<path d="M 153.0 104.0 L 153.0 104.0 L 153.0 103.0 L 153.0 103.0 L 153.0 102.0 L 153.0 102.0 L 153.0 104.0 L 153.0 111.0 L 153.0 122.0 L 153.0 133.0 L 156.0 139.0 L 164.0 139.0 L 170.0 137.0 L 175.0 135.0 L 175.0 135.0 " stroke="black" fill="none" stroke-width="5.0" stroke-linecap="round" stroke-linejoin="round" />
<path d="M 155.0 119.0 L 156.0 120.0 L 157.0 120.0 L 160.0 120.0 L 166.0 120.0 L 168.0 120.0 " stroke="black" fill="none" stroke-width="5.0" stroke-linecap="round" stroke-linejoin="round" />
<path d="M 132.0 154.0 L 132.0 154.0 L 132.0 154.0 L 132.0 154.0 L 132.0 158.0 L 131.0 172.0 L 129.0 189.0 L 127.0 200.0 L 127.0 202.0 L 127.0 201.0 " stroke="black" fill="none" stroke-width="5.0" stroke-linecap="round" stroke-linejoin="round" />
<path d="M 131.0 150.0 L 131.0 150.0 L 131.0 150.0 L 133.0 149.0 L 136.0 149.0 L 143.0 149.0 L 149.0 149.0 L 155.0 149.0 L 159.0 151.0 L 162.0 156.0 L 165.0 165.0 L 168.0 177.0 L 171.0 188.0 L 172.0 195.0 L 172.0 198.0 L 171.0 200.0 L 167.0 201.0 L 160.0 201.0 L 156.0 200.0 " stroke="black" fill="none" stroke-width="5.0" stroke-linecap="round" stroke-linejoin="round" />
<path d="M 137.0 159.0 L 137.0 159.0 L 137.0 159.0 L 138.0 159.0 L 142.0 160.0 L 148.0 160.0 L 154.0 161.0 L 158.0 162.0 L 158.0 162.0 " stroke="black" fill="none" stroke-width="5.0" stroke-linecap="round" stroke-linejoin="round" />
<path d="M 133.0 179.0 L 135.0 179.0 L 139.0 180.0 L 147.0 180.0 L 157.0 180.0 L 163.0 178.0 " stroke="black" fill="none" stroke-width="5.0" stroke-linecap="round" stroke-linejoin="round" />
</svg>