<svg xmlns="http://www.w3.org/2000/svg" width="300" height="300" viewBox="0 0 300 300">
<path d="M 133.0 106.0 L 133.0 106.0 L 133.0 106.0 L 133.0 106.0 L 133.0 106.0 L 132.0 110.0 L 130.0 117.0 L 124.0 128.0 L 116.0 139.0 L 114.0 141.0 " stroke="black" fill="none" stroke-width="5.0" stroke-linecap="round" stroke-linejoin="round" />
<path d="M 133.0 122.0 L 133.0 122.0 L 133.0 122.0 L 134.0 122.0 L 139.0 122.0 L 149.0 120.0 L 160.0 118.0 L 169.0 117.0 L 171.0 117.0 " stroke="black" fill="none" stroke-width="5.0" stroke-linecap="round" stroke-linejoin="round" />
<path d="M 138.0 141.0 L 138.0 141.0 L 138.0 141.0 L 139.0 141.0 L 143.0 140.0 L 149.0 139.0 L 158.0 137.0 L 164.0 136.0 L 164.0 136.0 " stroke="black" fill="none" stroke-width="5.0" stroke-linecap="round" stroke-linejoin="round" />
<path d="M 139.0 145.0 L 139.0 145.0 L 139.0 145.0 L 139.0 146.0 L 139.0 150.0 L 139.0 157.0 L 139.0 161.0 " stroke="black" fill="none" stroke-width="5.0" stroke-linecap="round" stroke-linejoin="round" />
<path d="M 115.0 173.0 L 115.0 173.0 L 116.0 173.0 L 117.0 173.0 L 120.0 173.0 L 128.0 173.0 L 143.0 173.0 L 162.0 173.0 L 179.0 173.0 L 189.0 173.0 " stroke="black" fill="none" stroke-width="5.0" stroke-linecap="round" stroke-linejoin="round" />
<path d="M 152.0 124.0 L 152.0 124.0 L 152.0 124.0 L 151.0 124.0 L 151.0 126.0 L 152.0 138.0 L 153.0 161.0 L 155.0 187.0 L 155.0 202.0 L 155.0 207.0 " stroke="black" fill="none" stroke-width="5.0" stroke-linecap="round" stroke-linejoin="round" />
</svg>