<svg xmlns="http://www.w3.org/2000/svg" width="300" height="300" viewBox="0 0 300 300">
<path d="M 138.0 103.0 L 138.0 103.0 L 137.0 103.0 L 137.0 103.0 L 137.0 104.0 L 136.0 110.0 L 132.0 122.0 L 124.0 137.0 L 121.0 142.0 " stroke="black" fill="none" stroke-width="5.0" stroke-linecap="round" stroke-linejoin="round" />
<path d="M 139.0 122.0 L 139.0 122.0 L 139.0 122.0 L 139.0 122.0 L 140.0 122.0 L 144.0 122.0 L 153.0 122.0 L 163.0 120.0 L 172.0 119.0 L 173.0 119.0 " stroke="black" fill="none" stroke-width="5.0" stroke-linecap="round" stroke-linejoin="round" />
<path d="M 132.0 144.0 L 132.0 144.0 L 132.0 144.0 L 133.0 144.0 L 136.0 144.0 L 143.0 144.0 L 153.0 144.0 L 161.0 144.0 L 163.0 144.0 " stroke="black" fill="none" stroke-width="5.0" stroke-linecap="round" stroke-linejoin="round" />
<path d="M 131.0 150.0 L 132.0 150.0 L 132.0 151.0 L 133.0 155.0 L 133.0 161.0 L 134.0 168.0 " stroke="black" fill="none" stroke-width="5.0" stroke-linecap="round" stroke-linejoin="round" />
<path d="M 110.0 177.0 L 110.0 177.0 L 112.0 178.0 L 121.0 179.0 L 138.0 178.0 L 158.0 178.0 L 176.0 178.0 L 185.0 178.0 " stroke="black" fill="none" stroke-width="5.0" stroke-linecap="round" stroke-linejoin="round" />
<path d="M 149.0 127.0 L 149.0 131.0 L 149.0 140.0 L 152.0 156.0 L 153.0 177.0 L 154.0 195.0 L 154.0 198.0 " stroke="black" fill="none" stroke-width="5.0" stroke-linecap="round" stroke-linejoin="round" />
</svg>