<svg xmlns="http://www.w3.org/2000/svg" width="300" height="300" viewBox="0 0 300 300">
<path d="M 140.0 103.0 L 140.0 103.0 L 139.0 103.0 L 139.0 102.0 L 139.0 102.0 L 138.0 106.0 L 136.0 113.0 L 132.0 124.0 L 124.0 136.0 L 121.0 140.0 " stroke="black" fill="none" stroke-width="5.0" stroke-linecap="round" stroke-linejoin="round" />
<path d="M 136.0 118.0 L 136.0 118.0 L 136.0 118.0 L 136.0 118.0 L 139.0 118.0 L 147.0 118.0 L 158.0 117.0 L 168.0 116.0 L 172.0 116.0 L 173.0 116.0 " stroke="black" fill="none" stroke-width="5.0" stroke-linecap="round" stroke-linejoin="round" />
<path d="M 137.0 142.0 L 137.0 142.0 L 137.0 142.0 L 137.0 142.0 L 140.0 142.0 L 147.0 141.0 L 155.0 139.0 L 160.0 138.0 L 161.0 138.0 " stroke="black" fill="none" stroke-width="5.0" stroke-linecap="round" stroke-linejoin="round" />
<path d="M 137.0 149.0 L 137.0 150.0 L 137.0 153.0 L 137.0 157.0 L 138.0 161.0 L 138.0 163.0 " stroke="black" fill="none" stroke-width="5.0" stroke-linecap="round" stroke-linejoin="round" />
<path d="M 111.0 172.0 L 111.0 172.0 L 112.0 172.0 L 115.0 172.0 L 125.0 172.0 L 143.0 171.0 L 162.0 171.0 L 176.0 171.0 L 184.0 171.0 L 185.0 171.0 " stroke="black" fill="none" stroke-width="5.0" stroke-linecap="round" stroke-linejoin="round" />
<path d="M 151.0 123.0 L 151.0 123.0 L 151.0 124.0 L 151.0 124.0 L 151.0 128.0 L 151.0 139.0 L 151.0 158.0 L 151.0 181.0 L 151.0 196.0 L 151.0 204.0 " stroke="black" fill="none" stroke-width="5.0" stroke-linecap="round" stroke-linejoin="round" />
</svg>