<svg xmlns="http://www.w3.org/2000/svg" width="300" height="300" viewBox="0 0 300 300">
<path d="M 137.0 107.0 L 137.0 107.0 L 137.0 108.0 L 137.0 109.0 L 137.0 111.0 L 135.0 114.0 L 131.0 123.0 L 124.0 137.0 L 116.0 149.0 L 115.0 150.0 " stroke="black" fill="none" stroke-width="5.0" stroke-linecap="round" stroke-linejoin="round" />
<path d="M 135.0 126.0 L 135.0 126.0 L 136.0 126.0 L 138.0 126.0 L 142.0 126.0 L 150.0 126.0 L 160.0 126.0 L 168.0 125.0 L 171.0 125.0 L 170.0 125.0 " stroke="black" fill="none" stroke-width="5.0" stroke-linecap="round" stroke-linejoin="round" />
<path d="M 137.0 143.0 L 137.0 143.0 L 137.0 143.0 L 138.0 143.0 L 142.0 143.0 L 148.0 142.0 L 155.0 142.0 L 160.0 142.0 L 162.0 142.0 L 162.0 142.0 " stroke="black" fill="none" stroke-width="5.0" stroke-linecap="round" stroke-linejoin="round" />
<path d="M 136.0 148.0 L 136.0 148.0 L 136.0 148.0 L 136.0 148.0 L 136.0 150.0 L 136.0 155.0 L 136.0 162.0 L 137.0 165.0 " stroke="black" fill="none" stroke-width="5.0" stroke-linecap="round" stroke-linejoin="round" />
<path d="M 110.0 176.0 L 110.0 177.0 L 111.0 177.0 L 116.0 177.0 L 130.0 177.0 L 149.0 177.0 L 164.0 177.0 L 176.0 177.0 L 184.0 176.0 L 185.0 175.0 " stroke="black" fill="none" stroke-width="5.0" stroke-linecap="round" stroke-linejoin="round" />
<path d="M 150.0 131.0 L 150.0 131.0 L 150.0 131.0 L 150.0 133.0 L 150.0 139.0 L 152.0 156.0 L 154.0 176.0 L 156.0 193.0 L 157.0 200.0 L 157.0 202.0 L 157.0 202.0 L 157.0 202.0 " stroke="black" fill="none" stroke-width="5.0" stroke-linecap="round" stroke-linejoin="round" />
</svg>