<svg xmlns="http://www.w3.org/2000/svg" width="300" height="300" viewBox="0 0 300 300">
<path d="M 135.0 110.0 L 135.0 110.0 L 135.0 111.0 L 135.0 112.0 L 135.0 114.0 L 134.0 116.0 L 133.0 121.0 L 128.0 129.0 L 121.0 140.0 L 114.0 148.0 L 112.0 150.0 " stroke="black" fill="none" stroke-width="5.0" stroke-linecap="round" stroke-linejoin="round" />
<path d="M 133.0 127.0 L 133.0 127.0 L 133.0 128.0 L 132.0 128.0 L 135.0 128.0 L 142.0 128.0 L 153.0 128.0 L 165.0 128.0 L 174.0 128.0 L 179.0 128.0 L 180.0 128.0 L 179.0 128.0 " stroke="black" fill="none" stroke-width="5.0" stroke-linecap="round" stroke-linejoin="round" />
<path d="M 136.0 148.0 L 136.0 148.0 L 136.0 148.0 L 137.0 148.0 L 140.0 148.0 L 148.0 148.0 L 156.0 148.0 L 163.0 148.0 L 166.0 148.0 " stroke="black" fill="none" stroke-width="5.0" stroke-linecap="round" stroke-linejoin="round" />
<path d="M 135.0 156.0 L 135.0 156.0 L 135.0 158.0 L 135.0 160.0 L 135.0 166.0 L 135.0 173.0 " stroke="black" fill="none" stroke-width="5.0" stroke-linecap="round" stroke-linejoin="round" />
<path d="M 116.0 178.0 L 117.0 178.0 L 122.0 178.0 L 129.0 178.0 L 142.0 178.0 L 159.0 178.0 L 174.0 178.0 L 184.0 178.0 L 187.0 178.0 L 187.0 178.0 " stroke="black" fill="none" stroke-width="5.0" stroke-linecap="round" stroke-linejoin="round" />
<path d="M 154.0 127.0 L 154.0 128.0 L 154.0 129.0 L 154.0 133.0 L 156.0 145.0 L 159.0 165.0 L 162.0 186.0 L 163.0 199.0 L 163.0 204.0 L 163.0 205.0 " stroke="black" fill="none" stroke-width="5.0" stroke-linecap="round" stroke-linejoin="round" />
</svg>