<svg xmlns="http://www.w3.org/2000/svg" width="300" height="300" viewBox="0 0 300 300">
<path d="M 197.0 90.0 L 197.0 90.0 L 197.0 90.0 L 197.0 90.0 L 197.0 90.0 L 196.0 91.0 L 196.0 93.0 L 195.0 96.0 L 193.0 100.0 L 191.0 106.0 L 189.0 112.0 L 186.0 118.0 L 184.0 123.0 L 182.0 127.0 L 180.0 131.0 L 178.0 136.0 L 176.0 140.0 L 174.0 144.0 L 172.0 148.0 L 171.0 150.0 L 170.0 153.0 L 168.0 156.0 L 167.0 158.0 L 166.0 159.0 L 166.0 160.0 L 166.0 160.0 L 166.0 160.0 L 166.0 160.0 L 166.0 159.0 L 166.0 159.0 L 166.0 159.0 L 166.0 159.0 L 167.0 160.0 L 168.0 162.0 L 170.0 165.0 L 172.0 169.0 L 174.0 175.0 L 177.0 180.0 L 179.0 186.0 L 182.0 190.0 L 184.0 194.0 L 186.0 198.0 L 187.0 201.0 L 188.0 204.0 L 190.0 206.0 L 191.0 208.0 L 192.0 211.0 L 193.0 213.0 L 194.0 214.0 L 194.0 216.0 L 195.0 217.0 L 195.0 217.0 L 195.0 217.0 L 195.0 217.0 L 195.0 217.0 L 195.0 217.0 L 195.0 217.0 " stroke="black" fill="none" stroke-width="5.0" stroke-linecap="round" stroke-linejoin="round" />
<path d="M 215.0 98.0 L 215.0 98.0 L 215.0 98.0 L 215.0 98.0 L 215.0 99.0 L 214.0 100.0 L 214.0 101.0 L 213.0 103.0 L 212.0 107.0 L 211.0 112.0 L 209.0 118.0 L 206.0 124.0 L 204.0 130.0 L 202.0 134.0 L 201.0 138.0 L 199.0 142.0 L 198.0 145.0 L 197.0 148.0 L 196.0 151.0 L 195.0 154.0 L 194.0 156.0 L 193.0 158.0 L 192.0 160.0 L 191.0 162.0 L 190.0 163.0 L 190.0 164.0 L 190.0 165.0 L 190.0 165.0 L 190.0 165.0 L 190.0 165.0 L 190.0 165.0 L 190.0 166.0 L 192.0 168.0 L 193.0 171.0 L 195.0 175.0 L 198.0 180.0 L 200.0 186.0 L 203.0 191.0 L 205.0 195.0 L 208.0 200.0 L 210.0 204.0 L 212.0 208.0 L 213.0 210.0 L 214.0 212.0 L 214.0 212.0 L 214.0 212.0 L 214.0 212.0 L 214.0 212.0 L 214.0 212.0 L 214.0 212.0 " stroke="black" fill="none" stroke-width="5.0" stroke-linecap="round" stroke-linejoin="round" />
</svg>