<svg xmlns="http://www.w3.org/2000/svg" width="300" height="300" viewBox="0 0 300 300">
<path d="M 117.0 108.0 L 117.0 108.0 L 119.0 108.0 L 119.0 109.0 L 119.0 110.0 L 119.0 113.0 L 119.0 119.0 L 119.0 125.0 L 119.0 129.0 " stroke="black" fill="none" stroke-width="5.0" stroke-linecap="round" stroke-linejoin="round" />
<path d="M 134.0 105.0 L 134.0 105.0 L 134.0 105.0 L 134.0 105.0 L 134.0 110.0 L 135.0 117.0 L 135.0 124.0 L 136.0 128.0 " stroke="black" fill="none" stroke-width="5.0" stroke-linecap="round" stroke-linejoin="round" />
<path d="M 108.0 114.0 L 108.0 115.0 L 108.0 116.0 L 109.0 118.0 L 111.0 120.0 " stroke="black" fill="none" stroke-width="5.0" stroke-linecap="round" stroke-linejoin="round" />
<path d="M 144.0 114.0 L 144.0 114.0 L 143.0 116.0 L 142.0 117.0 L 141.0 119.0 L 140.0 121.0 " stroke="black" fill="none" stroke-width="5.0" stroke-linecap="round" stroke-linejoin="round" />
<path d="M 107.0 132.0 L 108.0 132.0 L 108.0 132.0 L 110.0 132.0 L 117.0 131.0 L 130.0 130.0 L 142.0 129.0 L 145.0 129.0 " stroke="black" fill="none" stroke-width="5.0" stroke-linecap="round" stroke-linejoin="round" />
<path d="M 115.0 136.0 L 115.0 136.0 L 115.0 136.0 L 115.0 136.0 L 115.0 138.0 L 117.0 142.0 L 119.0 147.0 L 119.0 148.0 " stroke="black" fill="none" stroke-width="5.0" stroke-linecap="round" stroke-linejoin="round" />
<path d="M 137.0 133.0 L 137.0 133.0 L 136.0 133.0 L 135.0 135.0 L 134.0 139.0 L 133.0 145.0 L 132.0 151.0 " stroke="black" fill="none" stroke-width="5.0" stroke-linecap="round" stroke-linejoin="round" />
<path d="M 111.0 153.0 L 111.0 153.0 L 111.0 153.0 L 111.0 153.0 L 113.0 153.0 L 121.0 153.0 L 132.0 152.0 L 140.0 152.0 L 145.0 152.0 L 145.0 153.0 " stroke="black" fill="none" stroke-width="5.0" stroke-linecap="round" stroke-linejoin="round" />
<path d="M 115.0 163.0 L 116.0 164.0 L 117.0 165.0 L 120.0 165.0 L 125.0 165.0 L 132.0 165.0 L 137.0 165.0 L 139.0 165.0 L 139.0 165.0 " stroke="black" fill="none" stroke-width="5.0" stroke-linecap="round" stroke-linejoin="round" />
<path d="M 108.0 187.0 L 109.0 187.0 L 109.0 186.0 L 111.0 186.0 L 117.0 185.0 L 128.0 185.0 L 141.0 184.0 L 149.0 182.0 L 150.0 182.0 " stroke="black" fill="none" stroke-width="5.0" stroke-linecap="round" stroke-linejoin="round" />
<path d="M 129.0 154.0 L 129.0 155.0 L 129.0 158.0 L 129.0 164.0 L 129.0 174.0 L 129.0 179.0 " stroke="black" fill="none" stroke-width="5.0" stroke-linecap="round" stroke-linejoin="round" />
<path d="M 152.0 129.0 L 152.0 129.0 L 152.0 130.0 L 154.0 130.0 L 159.0 130.0 L 170.0 130.0 L 182.0 130.0 L 189.0 130.0 L 190.0 131.0 " stroke="black" fill="none" stroke-width="5.0" stroke-linecap="round" stroke-linejoin="round" />
<path d="M 170.0 112.0 L 170.0 112.0 L 170.0 112.0 L 170.0 114.0 L 173.0 126.0 L 177.0 147.0 L 181.0 170.0 L 182.0 187.0 L 182.0 195.0 L 182.0 198.0 L 180.0 199.0 L 175.0 196.0 L 167.0 189.0 " stroke="black" fill="none" stroke-width="5.0" stroke-linecap="round" stroke-linejoin="round" />
<path d="M 155.0 153.0 L 155.0 153.0 L 155.0 153.0 L 156.0 154.0 L 160.0 157.0 L 163.0 158.0 " stroke="black" fill="none" stroke-width="5.0" stroke-linecap="round" stroke-linejoin="round" />
</svg>