<svg xmlns="http://www.w3.org/2000/svg" width="300" height="300" viewBox="0 0 300 300">
<path d="M 137.0 103.0 L 137.0 103.0 L 137.0 104.0 L 137.0 107.0 L 140.0 112.0 L 143.0 116.0 " stroke="black" fill="none" stroke-width="5.0" stroke-linecap="round" stroke-linejoin="round" />
<path d="M 160.0 103.0 L 160.0 104.0 L 159.0 106.0 L 158.0 110.0 L 156.0 116.0 L 154.0 121.0 " stroke="black" fill="none" stroke-width="5.0" stroke-linecap="round" stroke-linejoin="round" />
<path d="M 129.0 124.0 L 129.0 125.0 L 130.0 125.0 L 134.0 125.0 L 145.0 125.0 L 159.0 124.0 L 171.0 123.0 L 178.0 123.0 L 179.0 123.0 L 178.0 123.0 L 176.0 124.0 " stroke="black" fill="none" stroke-width="5.0" stroke-linecap="round" stroke-linejoin="round" />
<path d="M 155.0 129.0 L 155.0 130.0 L 152.0 132.0 L 150.0 134.0 L 148.0 136.0 L 146.0 139.0 L 143.0 142.0 L 141.0 145.0 L 139.0 146.0 L 139.0 146.0 L 142.0 147.0 L 147.0 147.0 L 153.0 147.0 L 158.0 147.0 L 163.0 147.0 L 167.0 147.0 L 170.0 147.0 L 172.0 148.0 L 173.0 152.0 L 174.0 159.0 L 176.0 168.0 L 178.0 180.0 L 181.0 189.0 L 183.0 196.0 L 184.0 200.0 L 184.0 201.0 L 181.0 201.0 " stroke="black" fill="none" stroke-width="5.0" stroke-linecap="round" stroke-linejoin="round" />
<path d="M 134.0 151.0 L 133.0 151.0 L 132.0 151.0 L 132.0 152.0 L 132.0 158.0 L 132.0 170.0 L 131.0 183.0 L 130.0 190.0 L 130.0 190.0 " stroke="black" fill="none" stroke-width="5.0" stroke-linecap="round" stroke-linejoin="round" />
<path d="M 141.0 165.0 L 141.0 165.0 L 143.0 165.0 L 145.0 165.0 L 150.0 165.0 L 158.0 165.0 L 166.0 164.0 L 171.0 164.0 L 172.0 164.0 L 171.0 165.0 " stroke="black" fill="none" stroke-width="5.0" stroke-linecap="round" stroke-linejoin="round" />
<path d="M 141.0 175.0 L 142.0 175.0 L 143.0 176.0 L 147.0 176.0 L 155.0 175.0 L 164.0 175.0 L 169.0 175.0 L 171.0 177.0 L 170.0 178.0 " stroke="black" fill="none" stroke-width="5.0" stroke-linecap="round" stroke-linejoin="round" />
<path d="M 132.0 194.0 L 133.0 195.0 L 135.0 196.0 L 142.0 197.0 L 153.0 198.0 L 166.0 198.0 L 176.0 198.0 L 181.0 200.0 L 181.0 201.0 " stroke="black" fill="none" stroke-width="5.0" stroke-linecap="round" stroke-linejoin="round" />
</svg>