<svg xmlns="http://www.w3.org/2000/svg" width="300" height="300" viewBox="0 0 300 300">
<path d="M 121.0 109.0 L 121.0 109.0 L 121.0 109.0 L 121.0 110.0 L 122.0 110.0 L 122.0 111.0 L 124.0 114.0 L 125.0 116.0 " stroke="black" fill="none" stroke-width="5.0" stroke-linecap="round" stroke-linejoin="round" />
<path d="M 113.0 123.0 L 114.0 124.0 L 115.0 124.0 L 117.0 125.0 L 120.0 125.0 L 125.0 125.0 L 131.0 124.0 L 132.0 124.0 " stroke="black" fill="none" stroke-width="5.0" stroke-linecap="round" stroke-linejoin="round" />
<path d="M 112.0 140.0 L 113.0 140.0 L 114.0 140.0 L 116.0 140.0 L 119.0 140.0 L 123.0 140.0 L 127.0 139.0 L 129.0 139.0 " stroke="black" fill="none" stroke-width="5.0" stroke-linecap="round" stroke-linejoin="round" />
<path d="M 110.0 153.0 L 110.0 153.0 L 111.0 153.0 L 114.0 153.0 L 117.0 153.0 L 123.0 153.0 L 128.0 153.0 L 129.0 153.0 " stroke="black" fill="none" stroke-width="5.0" stroke-linecap="round" stroke-linejoin="round" />
<path d="M 108.0 170.0 L 108.0 171.0 L 108.0 172.0 L 108.0 175.0 L 108.0 179.0 L 108.0 183.0 L 108.0 187.0 L 109.0 187.0 " stroke="black" fill="none" stroke-width="5.0" stroke-linecap="round" stroke-linejoin="round" />
<path d="M 108.0 171.0 L 108.0 171.0 L 108.0 171.0 L 108.0 172.0 L 109.0 172.0 L 111.0 172.0 L 115.0 171.0 L 120.0 171.0 L 125.0 171.0 L 130.0 172.0 L 132.0 174.0 L 134.0 178.0 L 134.0 183.0 L 134.0 188.0 L 134.0 191.0 L 134.0 191.0 " stroke="black" fill="none" stroke-width="5.0" stroke-linecap="round" stroke-linejoin="round" />
<path d="M 111.0 192.0 L 111.0 192.0 L 111.0 192.0 L 111.0 192.0 L 112.0 192.0 L 117.0 192.0 L 125.0 192.0 L 132.0 192.0 " stroke="black" fill="none" stroke-width="5.0" stroke-linecap="round" stroke-linejoin="round" />
<path d="M 148.0 121.0 L 148.0 121.0 L 150.0 121.0 L 152.0 121.0 L 154.0 121.0 L 158.0 121.0 L 163.0 121.0 L 168.0 121.0 L 171.0 121.0 " stroke="black" fill="none" stroke-width="5.0" stroke-linecap="round" stroke-linejoin="round" />
<path d="M 150.0 137.0 L 150.0 137.0 L 150.0 137.0 L 151.0 137.0 L 153.0 137.0 L 156.0 137.0 L 163.0 137.0 L 170.0 137.0 " stroke="black" fill="none" stroke-width="5.0" stroke-linecap="round" stroke-linejoin="round" />
<path d="M 159.0 112.0 L 159.0 112.0 L 159.0 113.0 L 159.0 117.0 L 160.0 127.0 L 162.0 136.0 L 162.0 139.0 " stroke="black" fill="none" stroke-width="5.0" stroke-linecap="round" stroke-linejoin="round" />
<path d="M 143.0 154.0 L 146.0 154.0 L 149.0 154.0 L 152.0 154.0 L 157.0 154.0 L 166.0 155.0 L 177.0 155.0 L 185.0 155.0 L 186.0 154.0 " stroke="black" fill="none" stroke-width="5.0" stroke-linecap="round" stroke-linejoin="round" />
<path d="M 165.0 139.0 L 165.0 139.0 L 165.0 139.0 L 165.0 142.0 L 167.0 150.0 L 170.0 165.0 L 172.0 180.0 L 172.0 189.0 L 172.0 192.0 L 170.0 192.0 L 165.0 191.0 L 158.0 189.0 " stroke="black" fill="none" stroke-width="5.0" stroke-linecap="round" stroke-linejoin="round" />
<path d="M 147.0 168.0 L 148.0 169.0 L 148.0 170.0 L 151.0 172.0 L 156.0 175.0 L 159.0 176.0 " stroke="black" fill="none" stroke-width="5.0" stroke-linecap="round" stroke-linejoin="round" />
</svg>