<svg xmlns="http://www.w3.org/2000/svg" width="300" height="300" viewBox="0 0 300 300">
<path d="M 118.0 136.0 L 118.0 136.0 L 118.0 137.0 L 118.0 137.0 L 120.0 137.0 L 125.0 137.0 L 131.0 137.0 " stroke="black" fill="none" stroke-width="5.0" stroke-linecap="round" stroke-linejoin="round" />
<path d="M 108.0 154.0 L 108.0 154.0 L 108.0 154.0 L 109.0 154.0 L 113.0 154.0 L 120.0 154.0 L 127.0 154.0 L 130.0 154.0 " stroke="black" fill="none" stroke-width="5.0" stroke-linecap="round" stroke-linejoin="round" />
<path d="M 119.0 160.0 L 119.0 160.0 L 119.0 160.0 L 120.0 160.0 L 120.0 160.0 L 120.0 160.0 L 119.0 164.0 L 116.0 170.0 L 114.0 176.0 L 113.0 183.0 L 113.0 186.0 L 117.0 188.0 L 124.0 186.0 L 128.0 183.0 " stroke="black" fill="none" stroke-width="5.0" stroke-linecap="round" stroke-linejoin="round" />
<path d="M 131.0 174.0 L 131.0 174.0 L 131.0 174.0 L 131.0 174.0 L 131.0 174.0 L 133.0 180.0 L 136.0 188.0 L 137.0 192.0 " stroke="black" fill="none" stroke-width="5.0" stroke-linecap="round" stroke-linejoin="round" />
<path d="M 155.0 111.0 L 155.0 111.0 L 155.0 111.0 L 155.0 111.0 L 155.0 112.0 L 154.0 114.0 L 152.0 117.0 L 150.0 120.0 L 148.0 122.0 L 147.0 124.0 L 146.0 125.0 L 146.0 127.0 L 146.0 133.0 L 147.0 141.0 L 148.0 148.0 L 150.0 154.0 L 150.0 155.0 " stroke="black" fill="none" stroke-width="5.0" stroke-linecap="round" stroke-linejoin="round" />
<path d="M 150.0 126.0 L 150.0 126.0 L 150.0 127.0 L 150.0 127.0 L 151.0 127.0 L 154.0 127.0 L 160.0 126.0 L 167.0 125.0 L 173.0 125.0 L 177.0 126.0 L 180.0 131.0 L 181.0 141.0 L 182.0 151.0 L 182.0 158.0 L 182.0 160.0 " stroke="black" fill="none" stroke-width="5.0" stroke-linecap="round" stroke-linejoin="round" />
<path d="M 153.0 143.0 L 153.0 143.0 L 152.0 143.0 L 152.0 143.0 L 151.0 143.0 L 152.0 143.0 L 157.0 143.0 L 165.0 143.0 L 173.0 143.0 L 177.0 143.0 " stroke="black" fill="none" stroke-width="5.0" stroke-linecap="round" stroke-linejoin="round" />
<path d="M 151.0 161.0 L 151.0 161.0 L 151.0 161.0 L 152.0 161.0 L 157.0 161.0 L 165.0 160.0 L 174.0 160.0 L 177.0 160.0 " stroke="black" fill="none" stroke-width="5.0" stroke-linecap="round" stroke-linejoin="round" />
<path d="M 162.0 132.0 L 162.0 132.0 L 162.0 133.0 L 162.0 136.0 L 162.0 144.0 L 161.0 157.0 L 158.0 172.0 L 153.0 187.0 L 147.0 197.0 L 145.0 201.0 " stroke="black" fill="none" stroke-width="5.0" stroke-linecap="round" stroke-linejoin="round" />
<path d="M 165.0 168.0 L 165.0 168.0 L 165.0 169.0 L 165.0 170.0 L 165.0 173.0 L 165.0 177.0 L 166.0 185.0 L 169.0 192.0 L 174.0 198.0 L 182.0 200.0 L 190.0 201.0 L 198.0 201.0 L 204.0 202.0 L 207.0 202.0 L 210.0 199.0 L 211.0 193.0 L 211.0 183.0 L 211.0 181.0 " stroke="black" fill="none" stroke-width="5.0" stroke-linecap="round" stroke-linejoin="round" />
<path d="M 183.0 174.0 L 183.0 174.0 L 182.0 174.0 L 182.0 174.0 L 181.0 176.0 L 179.0 178.0 L 178.0 182.0 L 178.0 185.0 L 181.0 187.0 L 186.0 187.0 L 188.0 187.0 " stroke="black" fill="none" stroke-width="5.0" stroke-linecap="round" stroke-linejoin="round" />
<path d="M 192.0 177.0 L 192.0 178.0 L 192.0 180.0 L 193.0 183.0 L 195.0 189.0 L 196.0 193.0 " stroke="black" fill="none" stroke-width="5.0" stroke-linecap="round" stroke-linejoin="round" />
</svg>