<svg xmlns="http://www.w3.org/2000/svg" width="300" height="300" viewBox="0 0 300 300">
<path d="M 127.0 126.0 L 127.0 126.0 L 128.0 126.0 L 130.0 127.0 L 134.0 127.0 L 142.0 126.0 L 153.0 125.0 L 171.0 124.0 L 175.0 124.0 L 176.0 124.0 L 174.0 124.0 " stroke="black" fill="none" stroke-width="5.0" stroke-linecap="round" stroke-linejoin="round" />
<path d="M 150.0 132.0 L 150.0 132.0 L 150.0 132.0 L 150.0 132.0 L 150.0 132.0 L 148.0 134.0 L 144.0 140.0 L 136.0 150.0 L 125.0 165.0 L 117.0 175.0 L 115.0 178.0 L 115.0 177.0 L 118.0 174.0 L 119.0 172.0 " stroke="black" fill="none" stroke-width="5.0" stroke-linecap="round" stroke-linejoin="round" />
<path d="M 139.0 156.0 L 139.0 156.0 L 138.0 156.0 L 138.0 156.0 L 137.0 159.0 L 137.0 166.0 L 138.0 176.0 L 140.0 183.0 L 141.0 187.0 L 142.0 187.0 L 142.0 187.0 " stroke="black" fill="none" stroke-width="5.0" stroke-linecap="round" stroke-linejoin="round" />
<path d="M 140.0 156.0 L 140.0 156.0 L 140.0 156.0 L 140.0 156.0 L 143.0 156.0 L 150.0 155.0 L 159.0 154.0 L 169.0 153.0 L 176.0 153.0 L 180.0 155.0 L 182.0 159.0 L 182.0 165.0 L 183.0 172.0 L 183.0 179.0 L 183.0 184.0 L 183.0 186.0 " stroke="black" fill="none" stroke-width="5.0" stroke-linecap="round" stroke-linejoin="round" />
<path d="M 141.0 192.0 L 141.0 192.0 L 142.0 193.0 L 145.0 193.0 L 153.0 193.0 L 165.0 191.0 L 176.0 190.0 L 182.0 190.0 L 183.0 190.0 " stroke="black" fill="none" stroke-width="5.0" stroke-linecap="round" stroke-linejoin="round" />
</svg>