<svg xmlns="http://www.w3.org/2000/svg" width="300" height="300" viewBox="0 0 300 300">
<path d="M 121.0 110.0 L 121.0 111.0 L 121.0 111.0 L 122.0 112.0 L 126.0 112.0 L 131.0 112.0 L 135.0 112.0 L 137.0 112.0 L 137.0 113.0 L 134.0 117.0 L 131.0 121.0 L 129.0 125.0 L 128.0 130.0 L 132.0 133.0 L 137.0 137.0 L 141.0 140.0 L 143.0 143.0 L 143.0 146.0 L 141.0 149.0 L 137.0 151.0 L 133.0 152.0 " stroke="black" fill="none" stroke-width="5.0" stroke-linecap="round" stroke-linejoin="round" />
<path d="M 116.0 116.0 L 116.0 116.0 L 116.0 116.0 L 116.0 116.0 L 116.0 120.0 L 117.0 135.0 L 119.0 159.0 L 119.0 182.0 L 117.0 197.0 L 117.0 201.0 L 117.0 202.0 " stroke="black" fill="none" stroke-width="5.0" stroke-linecap="round" stroke-linejoin="round" />
<path d="M 151.0 114.0 L 151.0 114.0 L 150.0 116.0 L 150.0 119.0 L 151.0 124.0 L 152.0 129.0 L 152.0 132.0 " stroke="black" fill="none" stroke-width="5.0" stroke-linecap="round" stroke-linejoin="round" />
<path d="M 152.0 112.0 L 152.0 112.0 L 152.0 112.0 L 153.0 111.0 L 156.0 111.0 L 161.0 110.0 L 167.0 110.0 L 171.0 113.0 L 175.0 117.0 L 177.0 122.0 L 178.0 127.0 L 178.0 132.0 L 178.0 135.0 " stroke="black" fill="none" stroke-width="5.0" stroke-linecap="round" stroke-linejoin="round" />
<path d="M 154.0 123.0 L 156.0 123.0 L 157.0 123.0 L 160.0 123.0 L 165.0 122.0 L 170.0 122.0 L 175.0 122.0 L 176.0 122.0 " stroke="black" fill="none" stroke-width="5.0" stroke-linecap="round" stroke-linejoin="round" />
<path d="M 152.0 137.0 L 153.0 137.0 L 155.0 137.0 L 159.0 137.0 L 166.0 137.0 L 174.0 136.0 " stroke="black" fill="none" stroke-width="5.0" stroke-linecap="round" stroke-linejoin="round" />
<path d="M 149.0 147.0 L 149.0 147.0 L 149.0 148.0 L 149.0 148.0 L 152.0 148.0 L 161.0 148.0 L 174.0 146.0 L 184.0 145.0 L 188.0 145.0 " stroke="black" fill="none" stroke-width="5.0" stroke-linecap="round" stroke-linejoin="round" />
<path d="M 157.0 152.0 L 157.0 152.0 L 157.0 152.0 L 156.0 153.0 L 154.0 155.0 L 152.0 159.0 L 149.0 167.0 L 144.0 176.0 L 141.0 181.0 " stroke="black" fill="none" stroke-width="5.0" stroke-linecap="round" stroke-linejoin="round" />
<path d="M 154.0 163.0 L 154.0 163.0 L 155.0 163.0 L 156.0 164.0 L 160.0 164.0 L 167.0 164.0 L 174.0 164.0 L 180.0 164.0 L 184.0 166.0 L 187.0 168.0 L 190.0 172.0 L 191.0 179.0 L 192.0 187.0 L 192.0 195.0 L 192.0 200.0 L 191.0 203.0 L 190.0 203.0 L 185.0 202.0 L 178.0 199.0 " stroke="black" fill="none" stroke-width="5.0" stroke-linecap="round" stroke-linejoin="round" />
<path d="M 162.0 166.0 L 162.0 166.0 L 162.0 166.0 L 161.0 167.0 L 159.0 169.0 L 157.0 175.0 L 155.0 183.0 L 154.0 189.0 L 154.0 189.0 " stroke="black" fill="none" stroke-width="5.0" stroke-linecap="round" stroke-linejoin="round" />
<path d="M 175.0 165.0 L 175.0 165.0 L 175.0 165.0 L 175.0 165.0 L 175.0 165.0 L 175.0 168.0 L 172.0 177.0 L 165.0 190.0 L 160.0 198.0 " stroke="black" fill="none" stroke-width="5.0" stroke-linecap="round" stroke-linejoin="round" />
</svg>