<svg xmlns="http://www.w3.org/2000/svg" width="300" height="300" viewBox="0 0 300 300">
<path d="M 117.0 113.0 L 117.0 113.0 L 118.0 113.0 L 119.0 113.0 L 121.0 113.0 L 125.0 114.0 L 131.0 114.0 L 137.0 115.0 L 139.0 116.0 L 140.0 116.0 L 139.0 118.0 L 135.0 121.0 L 133.0 124.0 L 131.0 129.0 L 130.0 134.0 L 130.0 139.0 L 133.0 144.0 L 137.0 148.0 L 139.0 150.0 L 140.0 151.0 L 139.0 152.0 L 135.0 153.0 L 128.0 153.0 " stroke="black" fill="none" stroke-width="5.0" stroke-linecap="round" stroke-linejoin="round" />
<path d="M 114.0 120.0 L 114.0 120.0 L 114.0 120.0 L 114.0 120.0 L 114.0 122.0 L 114.0 137.0 L 116.0 165.0 L 117.0 190.0 L 117.0 204.0 L 117.0 209.0 L 117.0 210.0 " stroke="black" fill="none" stroke-width="5.0" stroke-linecap="round" stroke-linejoin="round" />
<path d="M 151.0 117.0 L 151.0 117.0 L 151.0 117.0 L 151.0 117.0 L 151.0 121.0 L 151.0 128.0 L 151.0 135.0 L 152.0 140.0 L 152.0 140.0 " stroke="black" fill="none" stroke-width="5.0" stroke-linecap="round" stroke-linejoin="round" />
<path d="M 151.0 114.0 L 151.0 114.0 L 151.0 114.0 L 151.0 114.0 L 153.0 114.0 L 157.0 114.0 L 162.0 114.0 L 167.0 113.0 L 170.0 114.0 L 173.0 117.0 L 176.0 124.0 L 179.0 140.0 L 180.0 144.0 " stroke="black" fill="none" stroke-width="5.0" stroke-linecap="round" stroke-linejoin="round" />
<path d="M 155.0 129.0 L 155.0 129.0 L 155.0 130.0 L 155.0 130.0 L 157.0 130.0 L 163.0 130.0 L 170.0 130.0 L 175.0 129.0 L 177.0 129.0 L 177.0 129.0 " stroke="black" fill="none" stroke-width="5.0" stroke-linecap="round" stroke-linejoin="round" />
<path d="M 153.0 144.0 L 153.0 144.0 L 154.0 144.0 L 156.0 145.0 L 161.0 145.0 L 170.0 145.0 L 176.0 145.0 " stroke="black" fill="none" stroke-width="5.0" stroke-linecap="round" stroke-linejoin="round" />
<path d="M 145.0 159.0 L 145.0 159.0 L 145.0 159.0 L 145.0 159.0 L 145.0 159.0 L 149.0 159.0 L 159.0 159.0 L 173.0 158.0 L 184.0 157.0 L 188.0 156.0 L 188.0 156.0 L 187.0 156.0 " stroke="black" fill="none" stroke-width="5.0" stroke-linecap="round" stroke-linejoin="round" />
<path d="M 155.0 163.0 L 155.0 163.0 L 155.0 163.0 L 155.0 163.0 L 155.0 164.0 L 154.0 166.0 L 150.0 174.0 L 144.0 185.0 L 141.0 191.0 L 141.0 191.0 " stroke="black" fill="none" stroke-width="5.0" stroke-linecap="round" stroke-linejoin="round" />
<path d="M 156.0 171.0 L 156.0 171.0 L 156.0 171.0 L 158.0 172.0 L 162.0 172.0 L 169.0 173.0 L 176.0 173.0 L 182.0 173.0 L 185.0 173.0 L 186.0 174.0 L 188.0 177.0 L 190.0 184.0 L 192.0 193.0 L 193.0 202.0 L 194.0 208.0 L 194.0 211.0 L 194.0 211.0 L 190.0 211.0 L 180.0 210.0 " stroke="black" fill="none" stroke-width="5.0" stroke-linecap="round" stroke-linejoin="round" />
<path d="M 167.0 175.0 L 167.0 175.0 L 167.0 175.0 L 167.0 175.0 L 167.0 175.0 L 165.0 177.0 L 162.0 186.0 L 157.0 197.0 L 156.0 201.0 " stroke="black" fill="none" stroke-width="5.0" stroke-linecap="round" stroke-linejoin="round" />
<path d="M 179.0 175.0 L 179.0 175.0 L 179.0 175.0 L 179.0 175.0 L 179.0 181.0 L 175.0 193.0 L 169.0 204.0 " stroke="black" fill="none" stroke-width="5.0" stroke-linecap="round" stroke-linejoin="round" />
</svg>