<svg xmlns="http://www.w3.org/2000/svg" width="300" height="300" viewBox="0 0 300 300">
<path d="M 133.0 120.0 L 133.0 120.0 L 133.0 120.0 L 133.0 120.0 L 132.0 121.0 L 132.0 123.0 L 132.0 133.0 L 132.0 152.0 L 132.0 171.0 L 132.0 182.0 L 132.0 184.0 L 132.0 184.0 " stroke="black" fill="none" stroke-width="5.0" stroke-linecap="round" stroke-linejoin="round" />
<path d="M 137.0 118.0 L 137.0 118.0 L 137.0 118.0 L 137.0 118.0 L 140.0 118.0 L 145.0 118.0 L 151.0 118.0 L 156.0 119.0 L 160.0 120.0 L 163.0 122.0 L 165.0 127.0 L 168.0 136.0 L 171.0 150.0 L 173.0 165.0 L 175.0 176.0 L 176.0 183.0 L 177.0 186.0 L 177.0 187.0 L 176.0 187.0 " stroke="black" fill="none" stroke-width="5.0" stroke-linecap="round" stroke-linejoin="round" />
<path d="M 138.0 143.0 L 138.0 143.0 L 138.0 143.0 L 139.0 142.0 L 141.0 142.0 L 145.0 142.0 L 151.0 142.0 L 158.0 142.0 L 164.0 142.0 L 165.0 142.0 " stroke="black" fill="none" stroke-width="5.0" stroke-linecap="round" stroke-linejoin="round" />
<path d="M 137.0 163.0 L 137.0 163.0 L 138.0 164.0 L 140.0 165.0 L 146.0 165.0 L 156.0 164.0 L 165.0 163.0 " stroke="black" fill="none" stroke-width="5.0" stroke-linecap="round" stroke-linejoin="round" />
<path d="M 131.0 187.0 L 131.0 187.0 L 132.0 188.0 L 134.0 189.0 L 141.0 189.0 L 150.0 189.0 L 160.0 189.0 L 167.0 188.0 " stroke="black" fill="none" stroke-width="5.0" stroke-linecap="round" stroke-linejoin="round" />
<path d="M 145.0 195.0 L 145.0 195.0 L 145.0 195.0 L 145.0 195.0 L 145.0 196.0 L 144.0 200.0 L 142.0 207.0 L 139.0 215.0 L 138.0 218.0 " stroke="black" fill="none" stroke-width="5.0" stroke-linecap="round" stroke-linejoin="round" />
<path d="M 157.0 193.0 L 157.0 193.0 L 157.0 193.0 L 157.0 193.0 L 157.0 197.0 L 158.0 204.0 L 160.0 211.0 L 164.0 215.0 L 171.0 217.0 L 181.0 217.0 L 190.0 217.0 L 196.0 217.0 L 198.0 217.0 L 198.0 216.0 L 199.0 211.0 L 199.0 204.0 " stroke="black" fill="none" stroke-width="5.0" stroke-linecap="round" stroke-linejoin="round" />
</svg>