<svg xmlns="http://www.w3.org/2000/svg" width="300" height="300" viewBox="0 0 300 300">
<path d="M 128.0 119.0 L 128.0 119.0 L 128.0 120.0 L 128.0 120.0 L 127.0 121.0 L 127.0 124.0 L 127.0 132.0 L 126.0 149.0 L 124.0 167.0 L 124.0 180.0 " stroke="black" fill="none" stroke-width="5.0" stroke-linecap="round" stroke-linejoin="round" />
<path d="M 135.0 112.0 L 135.0 112.0 L 134.0 112.0 L 134.0 112.0 L 134.0 112.0 L 139.0 112.0 L 146.0 112.0 L 153.0 112.0 L 159.0 112.0 L 162.0 112.0 L 165.0 115.0 L 167.0 124.0 L 171.0 138.0 L 174.0 153.0 L 176.0 164.0 L 177.0 169.0 L 177.0 170.0 L 176.0 170.0 L 176.0 169.0 " stroke="black" fill="none" stroke-width="5.0" stroke-linecap="round" stroke-linejoin="round" />
<path d="M 136.0 141.0 L 136.0 141.0 L 136.0 141.0 L 136.0 141.0 L 139.0 141.0 L 147.0 141.0 L 156.0 140.0 L 165.0 140.0 L 168.0 140.0 L 168.0 141.0 " stroke="black" fill="none" stroke-width="5.0" stroke-linecap="round" stroke-linejoin="round" />
<path d="M 135.0 159.0 L 135.0 159.0 L 136.0 160.0 L 140.0 160.0 L 149.0 160.0 L 159.0 160.0 L 165.0 160.0 L 165.0 160.0 " stroke="black" fill="none" stroke-width="5.0" stroke-linecap="round" stroke-linejoin="round" />
<path d="M 129.0 179.0 L 129.0 180.0 L 130.0 181.0 L 136.0 181.0 L 147.0 180.0 L 159.0 179.0 L 166.0 179.0 L 167.0 180.0 " stroke="black" fill="none" stroke-width="5.0" stroke-linecap="round" stroke-linejoin="round" />
<path d="M 141.0 185.0 L 141.0 185.0 L 141.0 185.0 L 140.0 185.0 L 140.0 186.0 L 138.0 191.0 L 136.0 198.0 L 134.0 205.0 L 134.0 206.0 " stroke="black" fill="none" stroke-width="5.0" stroke-linecap="round" stroke-linejoin="round" />
<path d="M 157.0 184.0 L 157.0 184.0 L 157.0 184.0 L 156.0 185.0 L 156.0 187.0 L 156.0 192.0 L 157.0 197.0 L 159.0 201.0 L 161.0 204.0 L 165.0 206.0 L 174.0 206.0 L 184.0 205.0 L 191.0 202.0 L 195.0 200.0 L 197.0 197.0 L 197.0 194.0 L 197.0 189.0 L 197.0 183.0 " stroke="black" fill="none" stroke-width="5.0" stroke-linecap="round" stroke-linejoin="round" />
</svg>