<svg xmlns="http://www.w3.org/2000/svg" width="300" height="300" viewBox="0 0 300 300">
<path d="M 130.0 107.0 L 130.0 107.0 L 130.0 108.0 L 130.0 111.0 L 130.0 115.0 L 130.0 126.0 L 130.0 143.0 L 130.0 159.0 L 130.0 167.0 L 131.0 168.0 L 131.0 167.0 " stroke="black" fill="none" stroke-width="5.0" stroke-linecap="round" stroke-linejoin="round" />
<path d="M 134.0 108.0 L 134.0 108.0 L 134.0 108.0 L 134.0 107.0 L 137.0 107.0 L 144.0 107.0 L 152.0 106.0 L 158.0 106.0 L 163.0 106.0 L 166.0 107.0 L 168.0 112.0 L 170.0 123.0 L 173.0 140.0 L 175.0 154.0 L 177.0 164.0 L 178.0 168.0 L 178.0 168.0 L 178.0 168.0 " stroke="black" fill="none" stroke-width="5.0" stroke-linecap="round" stroke-linejoin="round" />
<path d="M 135.0 134.0 L 135.0 134.0 L 135.0 134.0 L 135.0 134.0 L 137.0 134.0 L 142.0 134.0 L 151.0 134.0 L 160.0 134.0 L 166.0 134.0 L 168.0 134.0 L 168.0 135.0 " stroke="black" fill="none" stroke-width="5.0" stroke-linecap="round" stroke-linejoin="round" />
<path d="M 137.0 150.0 L 138.0 151.0 L 140.0 153.0 L 144.0 153.0 L 152.0 153.0 L 159.0 152.0 L 163.0 152.0 " stroke="black" fill="none" stroke-width="5.0" stroke-linecap="round" stroke-linejoin="round" />
<path d="M 128.0 173.0 L 129.0 174.0 L 132.0 175.0 L 141.0 175.0 L 153.0 174.0 L 164.0 173.0 L 170.0 173.0 L 170.0 174.0 " stroke="black" fill="none" stroke-width="5.0" stroke-linecap="round" stroke-linejoin="round" />
<path d="M 142.0 182.0 L 142.0 182.0 L 141.0 183.0 L 140.0 184.0 L 139.0 188.0 L 137.0 194.0 L 135.0 198.0 " stroke="black" fill="none" stroke-width="5.0" stroke-linecap="round" stroke-linejoin="round" />
<path d="M 155.0 179.0 L 155.0 179.0 L 156.0 179.0 L 157.0 179.0 L 158.0 182.0 L 159.0 187.0 L 160.0 193.0 L 162.0 198.0 L 167.0 202.0 L 176.0 204.0 L 185.0 205.0 L 193.0 205.0 L 197.0 204.0 L 200.0 202.0 L 202.0 198.0 L 204.0 191.0 L 205.0 181.0 L 205.0 178.0 " stroke="black" fill="none" stroke-width="5.0" stroke-linecap="round" stroke-linejoin="round" />
</svg>