<svg xmlns="http://www.w3.org/2000/svg" width="300" height="300" viewBox="0 0 300 300">
<path d="M 130.0 111.0 L 130.0 111.0 L 130.0 111.0 L 130.0 113.0 L 129.0 120.0 L 128.0 134.0 L 127.0 153.0 L 126.0 165.0 L 126.0 169.0 L 126.0 168.0 " stroke="black" fill="none" stroke-width="5.0" stroke-linecap="round" stroke-linejoin="round" />
<path d="M 129.0 113.0 L 129.0 113.0 L 129.0 113.0 L 129.0 113.0 L 130.0 113.0 L 134.0 113.0 L 141.0 113.0 L 149.0 113.0 L 155.0 113.0 L 157.0 113.0 L 159.0 114.0 L 161.0 120.0 L 163.0 132.0 L 165.0 148.0 L 166.0 162.0 L 167.0 169.0 L 168.0 172.0 L 168.0 172.0 L 166.0 171.0 " stroke="black" fill="none" stroke-width="5.0" stroke-linecap="round" stroke-linejoin="round" />
<path d="M 132.0 135.0 L 132.0 135.0 L 132.0 135.0 L 132.0 135.0 L 132.0 135.0 L 140.0 135.0 L 150.0 135.0 L 159.0 135.0 L 164.0 135.0 L 165.0 135.0 L 163.0 136.0 " stroke="black" fill="none" stroke-width="5.0" stroke-linecap="round" stroke-linejoin="round" />
<path d="M 132.0 151.0 L 132.0 152.0 L 132.0 152.0 L 133.0 152.0 L 138.0 152.0 L 147.0 153.0 L 156.0 153.0 L 160.0 153.0 " stroke="black" fill="none" stroke-width="5.0" stroke-linecap="round" stroke-linejoin="round" />
<path d="M 126.0 172.0 L 129.0 173.0 L 133.0 174.0 L 139.0 175.0 L 147.0 175.0 L 153.0 175.0 L 155.0 175.0 " stroke="black" fill="none" stroke-width="5.0" stroke-linecap="round" stroke-linejoin="round" />
<path d="M 136.0 178.0 L 136.0 178.0 L 135.0 178.0 L 134.0 178.0 L 132.0 183.0 L 130.0 190.0 L 128.0 198.0 L 128.0 202.0 " stroke="black" fill="none" stroke-width="5.0" stroke-linecap="round" stroke-linejoin="round" />
<path d="M 148.0 180.0 L 148.0 180.0 L 148.0 180.0 L 148.0 180.0 L 149.0 180.0 L 150.0 186.0 L 152.0 193.0 L 156.0 199.0 L 165.0 203.0 L 177.0 204.0 L 187.0 204.0 L 193.0 203.0 L 195.0 201.0 L 196.0 198.0 L 196.0 194.0 L 196.0 183.0 " stroke="black" fill="none" stroke-width="5.0" stroke-linecap="round" stroke-linejoin="round" />
</svg>