<svg xmlns="http://www.w3.org/2000/svg" width="300" height="300" viewBox="0 0 300 300">
<path d="M 136.0 120.0 L 136.0 121.0 L 136.0 121.0 L 135.0 123.0 L 133.0 125.0 L 131.0 128.0 L 126.0 134.0 L 120.0 143.0 L 116.0 147.0 " stroke="black" fill="none" stroke-width="5.0" stroke-linecap="round" stroke-linejoin="round" />
<path d="M 139.0 137.0 L 139.0 137.0 L 139.0 137.0 L 139.0 136.0 L 139.0 136.0 L 139.0 137.0 L 137.0 141.0 L 130.0 150.0 L 118.0 164.0 L 107.0 177.0 " stroke="black" fill="none" stroke-width="5.0" stroke-linecap="round" stroke-linejoin="round" />
<path d="M 128.0 156.0 L 128.0 156.0 L 128.0 156.0 L 128.0 156.0 L 128.0 159.0 L 129.0 167.0 L 129.0 178.0 L 129.0 188.0 " stroke="black" fill="none" stroke-width="5.0" stroke-linecap="round" stroke-linejoin="round" />
<path d="M 156.0 119.0 L 156.0 119.0 L 156.0 119.0 L 156.0 119.0 L 156.0 120.0 L 156.0 125.0 L 152.0 136.0 L 146.0 148.0 L 144.0 150.0 " stroke="black" fill="none" stroke-width="5.0" stroke-linecap="round" stroke-linejoin="round" />
<path d="M 154.0 135.0 L 154.0 135.0 L 154.0 135.0 L 154.0 134.0 L 156.0 135.0 L 162.0 139.0 L 168.0 144.0 L 169.0 145.0 " stroke="black" fill="none" stroke-width="5.0" stroke-linecap="round" stroke-linejoin="round" />
<path d="M 184.0 117.0 L 184.0 117.0 L 184.0 117.0 L 183.0 117.0 L 183.0 118.0 L 181.0 124.0 L 177.0 132.0 L 172.0 141.0 L 171.0 142.0 " stroke="black" fill="none" stroke-width="5.0" stroke-linecap="round" stroke-linejoin="round" />
<path d="M 177.0 133.0 L 177.0 133.0 L 177.0 132.0 L 177.0 132.0 L 178.0 131.0 L 182.0 132.0 L 187.0 134.0 L 192.0 137.0 L 194.0 139.0 " stroke="black" fill="none" stroke-width="5.0" stroke-linecap="round" stroke-linejoin="round" />
<path d="M 169.0 153.0 L 169.0 153.0 L 170.0 154.0 L 170.0 154.0 L 171.0 158.0 L 174.0 165.0 L 175.0 175.0 L 175.0 183.0 L 175.0 186.0 " stroke="black" fill="none" stroke-width="5.0" stroke-linecap="round" stroke-linejoin="round" />
<path d="M 175.0 168.0 L 175.0 168.0 L 175.0 168.0 L 176.0 168.0 L 180.0 167.0 L 186.0 166.0 L 192.0 166.0 L 194.0 166.0 " stroke="black" fill="none" stroke-width="5.0" stroke-linecap="round" stroke-linejoin="round" />
<path d="M 154.0 161.0 L 154.0 161.0 L 154.0 162.0 L 154.0 163.0 L 153.0 168.0 L 151.0 177.0 L 149.0 186.0 " stroke="black" fill="none" stroke-width="5.0" stroke-linecap="round" stroke-linejoin="round" />
<path d="M 155.0 174.0 L 155.0 174.0 L 156.0 175.0 L 158.0 177.0 L 167.0 182.0 L 183.0 188.0 L 198.0 192.0 L 206.0 194.0 L 208.0 195.0 " stroke="black" fill="none" stroke-width="5.0" stroke-linecap="round" stroke-linejoin="round" />
</svg>