<svg xmlns="http://www.w3.org/2000/svg" width="300" height="300" viewBox="0 0 300 300">
<path d="M 131.0 115.0 L 131.0 115.0 L 131.0 115.0 L 131.0 115.0 L 131.0 115.0 L 131.0 116.0 L 129.0 119.0 L 121.0 127.0 L 107.0 140.0 L 102.0 145.0 " stroke="black" fill="none" stroke-width="5.0" stroke-linecap="round" stroke-linejoin="round" />
<path d="M 133.0 138.0 L 133.0 138.0 L 132.0 138.0 L 132.0 139.0 L 131.0 140.0 L 129.0 144.0 L 122.0 151.0 L 110.0 163.0 L 97.0 177.0 L 95.0 179.0 " stroke="black" fill="none" stroke-width="5.0" stroke-linecap="round" stroke-linejoin="round" />
<path d="M 119.0 157.0 L 119.0 157.0 L 119.0 158.0 L 119.0 159.0 L 120.0 161.0 L 121.0 170.0 L 121.0 183.0 L 121.0 196.0 " stroke="black" fill="none" stroke-width="5.0" stroke-linecap="round" stroke-linejoin="round" />
<path d="M 154.0 117.0 L 154.0 117.0 L 154.0 117.0 L 154.0 118.0 L 154.0 119.0 L 154.0 120.0 L 153.0 125.0 L 150.0 134.0 L 145.0 143.0 L 143.0 144.0 " stroke="black" fill="none" stroke-width="5.0" stroke-linecap="round" stroke-linejoin="round" />
<path d="M 153.0 132.0 L 153.0 132.0 L 153.0 133.0 L 153.0 133.0 L 155.0 134.0 L 159.0 137.0 L 165.0 139.0 " stroke="black" fill="none" stroke-width="5.0" stroke-linecap="round" stroke-linejoin="round" />
<path d="M 186.0 118.0 L 186.0 120.0 L 186.0 122.0 L 185.0 124.0 L 184.0 128.0 L 180.0 133.0 L 175.0 138.0 L 173.0 140.0 " stroke="black" fill="none" stroke-width="5.0" stroke-linecap="round" stroke-linejoin="round" />
<path d="M 181.0 131.0 L 181.0 131.0 L 181.0 131.0 L 182.0 131.0 L 185.0 133.0 L 189.0 136.0 L 193.0 139.0 " stroke="black" fill="none" stroke-width="5.0" stroke-linecap="round" stroke-linejoin="round" />
<path d="M 168.0 150.0 L 168.0 150.0 L 168.0 150.0 L 168.0 150.0 L 168.0 152.0 L 169.0 160.0 L 171.0 173.0 L 172.0 184.0 L 172.0 185.0 " stroke="black" fill="none" stroke-width="5.0" stroke-linecap="round" stroke-linejoin="round" />
<path d="M 174.0 167.0 L 174.0 167.0 L 174.0 168.0 L 176.0 168.0 L 182.0 169.0 L 188.0 167.0 L 191.0 166.0 " stroke="black" fill="none" stroke-width="5.0" stroke-linecap="round" stroke-linejoin="round" />
<path d="M 148.0 162.0 L 148.0 162.0 L 148.0 162.0 L 148.0 162.0 L 148.0 165.0 L 146.0 173.0 L 141.0 184.0 L 139.0 187.0 " stroke="black" fill="none" stroke-width="5.0" stroke-linecap="round" stroke-linejoin="round" />
<path d="M 145.0 180.0 L 146.0 180.0 L 148.0 180.0 L 152.0 181.0 L 161.0 185.0 L 175.0 192.0 L 189.0 197.0 L 195.0 198.0 L 200.0 199.0 L 202.0 199.0 " stroke="black" fill="none" stroke-width="5.0" stroke-linecap="round" stroke-linejoin="round" />
</svg>