<svg xmlns="http://www.w3.org/2000/svg" width="300" height="300" viewBox="0 0 300 300">
<path d="M 135.0 121.0 L 135.0 121.0 L 135.0 121.0 L 135.0 122.0 L 135.0 122.0 L 138.0 122.0 L 144.0 121.0 L 152.0 119.0 L 158.0 118.0 L 160.0 118.0 " stroke="black" fill="none" stroke-width="5.0" stroke-linecap="round" stroke-linejoin="round" />
<path d="M 113.0 149.0 L 113.0 149.0 L 113.0 149.0 L 115.0 149.0 L 123.0 148.0 L 141.0 146.0 L 158.0 144.0 L 170.0 143.0 L 175.0 144.0 " stroke="black" fill="none" stroke-width="5.0" stroke-linecap="round" stroke-linejoin="round" />
<path d="M 147.0 111.0 L 147.0 111.0 L 147.0 111.0 L 147.0 111.0 L 147.0 113.0 L 148.0 124.0 L 150.0 142.0 L 151.0 146.0 " stroke="black" fill="none" stroke-width="5.0" stroke-linecap="round" stroke-linejoin="round" />
<path d="M 150.0 151.0 L 150.0 151.0 L 150.0 151.0 L 150.0 151.0 L 149.0 151.0 L 147.0 154.0 L 140.0 163.0 L 131.0 175.0 L 126.0 184.0 L 126.0 185.0 L 131.0 185.0 L 142.0 186.0 L 152.0 187.0 L 161.0 187.0 L 166.0 187.0 " stroke="black" fill="none" stroke-width="5.0" stroke-linecap="round" stroke-linejoin="round" />
<path d="M 164.0 170.0 L 165.0 170.0 L 165.0 170.0 L 166.0 171.0 L 171.0 177.0 L 177.0 187.0 L 184.0 197.0 L 186.0 203.0 " stroke="black" fill="none" stroke-width="5.0" stroke-linecap="round" stroke-linejoin="round" />
</svg>