<svg xmlns="http://www.w3.org/2000/svg" width="300" height="300" viewBox="0 0 300 300">
<path d="M 135.0 118.0 L 135.0 118.0 L 135.0 118.0 L 135.0 118.0 L 134.0 119.0 L 136.0 119.0 L 144.0 118.0 L 154.0 116.0 L 162.0 115.0 L 163.0 115.0 " stroke="black" fill="none" stroke-width="5.0" stroke-linecap="round" stroke-linejoin="round" />
<path d="M 117.0 146.0 L 117.0 146.0 L 117.0 146.0 L 119.0 146.0 L 129.0 145.0 L 145.0 143.0 L 160.0 142.0 L 170.0 142.0 L 174.0 143.0 " stroke="black" fill="none" stroke-width="5.0" stroke-linecap="round" stroke-linejoin="round" />
<path d="M 148.0 106.0 L 148.0 106.0 L 148.0 107.0 L 147.0 109.0 L 147.0 113.0 L 147.0 117.0 L 150.0 136.0 L 150.0 143.0 " stroke="black" fill="none" stroke-width="5.0" stroke-linecap="round" stroke-linejoin="round" />
<path d="M 149.0 146.0 L 149.0 147.0 L 148.0 148.0 L 147.0 149.0 L 144.0 152.0 L 139.0 157.0 L 131.0 165.0 L 124.0 173.0 L 122.0 178.0 L 124.0 180.0 L 134.0 181.0 L 146.0 181.0 L 157.0 180.0 L 165.0 179.0 L 165.0 179.0 " stroke="black" fill="none" stroke-width="5.0" stroke-linecap="round" stroke-linejoin="round" />
<path d="M 165.0 164.0 L 165.0 165.0 L 166.0 167.0 L 169.0 173.0 L 180.0 188.0 L 182.0 192.0 L 183.0 193.0 " stroke="black" fill="none" stroke-width="5.0" stroke-linecap="round" stroke-linejoin="round" />
</svg>