<svg xmlns="http://www.w3.org/2000/svg" width="300" height="300" viewBox="0 0 300 300">
<path d="M 131.0 116.0 L 132.0 116.0 L 133.0 117.0 L 134.0 117.0 L 139.0 117.0 L 147.0 117.0 L 155.0 117.0 L 157.0 117.0 " stroke="black" fill="none" stroke-width="5.0" stroke-linecap="round" stroke-linejoin="round" />
<path d="M 109.0 148.0 L 110.0 148.0 L 112.0 148.0 L 117.0 148.0 L 127.0 148.0 L 142.0 148.0 L 155.0 150.0 L 167.0 150.0 L 175.0 150.0 L 176.0 149.0 " stroke="black" fill="none" stroke-width="5.0" stroke-linecap="round" stroke-linejoin="round" />
<path d="M 143.0 105.0 L 143.0 106.0 L 143.0 108.0 L 143.0 118.0 L 143.0 134.0 L 143.0 142.0 " stroke="black" fill="none" stroke-width="5.0" stroke-linecap="round" stroke-linejoin="round" />
<path d="M 142.0 153.0 L 141.0 155.0 L 139.0 156.0 L 136.0 159.0 L 132.0 164.0 L 124.0 172.0 L 116.0 181.0 L 113.0 186.0 L 114.0 189.0 L 124.0 190.0 L 138.0 190.0 L 152.0 190.0 L 162.0 189.0 L 166.0 189.0 " stroke="black" fill="none" stroke-width="5.0" stroke-linecap="round" stroke-linejoin="round" />
<path d="M 162.0 174.0 L 162.0 174.0 L 164.0 176.0 L 166.0 180.0 L 171.0 188.0 L 176.0 195.0 L 179.0 200.0 L 180.0 200.0 " stroke="black" fill="none" stroke-width="5.0" stroke-linecap="round" stroke-linejoin="round" />
</svg>