<svg xmlns="http://www.w3.org/2000/svg" width="300" height="300" viewBox="0 0 300 300">
<path d="M 143.0 106.0 L 143.0 106.0 L 143.0 105.0 L 143.0 105.0 L 144.0 105.0 L 144.0 107.0 L 142.0 113.0 L 136.0 124.0 L 129.0 135.0 L 123.0 141.0 L 123.0 141.0 " stroke="black" fill="none" stroke-width="5.0" stroke-linecap="round" stroke-linejoin="round" />
<path d="M 137.0 123.0 L 137.0 123.0 L 138.0 123.0 L 139.0 123.0 L 141.0 123.0 L 147.0 123.0 L 157.0 123.0 L 168.0 123.0 L 176.0 124.0 L 179.0 124.0 L 179.0 125.0 " stroke="black" fill="none" stroke-width="5.0" stroke-linecap="round" stroke-linejoin="round" />
<path d="M 120.0 155.0 L 123.0 155.0 L 129.0 155.0 L 140.0 155.0 L 153.0 156.0 L 166.0 157.0 L 179.0 158.0 L 187.0 158.0 L 190.0 158.0 " stroke="black" fill="none" stroke-width="5.0" stroke-linecap="round" stroke-linejoin="round" />
<path d="M 157.0 112.0 L 157.0 112.0 L 158.0 114.0 L 158.0 118.0 L 160.0 130.0 L 161.0 143.0 L 161.0 149.0 " stroke="black" fill="none" stroke-width="5.0" stroke-linecap="round" stroke-linejoin="round" />
<path d="M 141.0 160.0 L 141.0 160.0 L 141.0 160.0 L 141.0 161.0 L 140.0 165.0 L 137.0 173.0 L 133.0 184.0 L 130.0 191.0 L 130.0 192.0 " stroke="black" fill="none" stroke-width="5.0" stroke-linecap="round" stroke-linejoin="round" />
<path d="M 163.0 162.0 L 164.0 162.0 L 164.0 163.0 L 165.0 164.0 L 165.0 167.0 L 165.0 173.0 L 165.0 180.0 L 167.0 188.0 L 170.0 192.0 L 176.0 195.0 L 183.0 197.0 L 190.0 198.0 L 196.0 198.0 L 201.0 198.0 L 204.0 196.0 L 205.0 193.0 L 206.0 189.0 L 206.0 182.0 L 206.0 179.0 " stroke="black" fill="none" stroke-width="5.0" stroke-linecap="round" stroke-linejoin="round" />
</svg>