<svg xmlns="http://www.w3.org/2000/svg" width="300" height="300" viewBox="0 0 300 300">
<path d="M 127.0 109.0 L 128.0 109.0 L 128.0 110.0 L 128.0 112.0 L 128.0 116.0 L 127.0 124.0 L 122.0 133.0 L 115.0 142.0 " stroke="black" fill="none" stroke-width="5.0" stroke-linecap="round" stroke-linejoin="round" />
<path d="M 127.0 126.0 L 128.0 126.0 L 129.0 126.0 L 133.0 126.0 L 140.0 126.0 L 149.0 126.0 L 158.0 125.0 L 163.0 125.0 L 164.0 125.0 " stroke="black" fill="none" stroke-width="5.0" stroke-linecap="round" stroke-linejoin="round" />
<path d="M 113.0 155.0 L 113.0 155.0 L 115.0 155.0 L 117.0 155.0 L 122.0 154.0 L 134.0 153.0 L 149.0 152.0 L 161.0 150.0 L 168.0 149.0 L 170.0 149.0 " stroke="black" fill="none" stroke-width="5.0" stroke-linecap="round" stroke-linejoin="round" />
<path d="M 142.0 112.0 L 141.0 112.0 L 140.0 114.0 L 140.0 121.0 L 143.0 133.0 L 146.0 144.0 L 147.0 146.0 " stroke="black" fill="none" stroke-width="5.0" stroke-linecap="round" stroke-linejoin="round" />
<path d="M 129.0 158.0 L 129.0 158.0 L 129.0 159.0 L 129.0 162.0 L 128.0 168.0 L 126.0 178.0 L 123.0 185.0 " stroke="black" fill="none" stroke-width="5.0" stroke-linecap="round" stroke-linejoin="round" />
<path d="M 150.0 155.0 L 150.0 155.0 L 150.0 155.0 L 150.0 155.0 L 150.0 156.0 L 151.0 160.0 L 152.0 168.0 L 154.0 177.0 L 158.0 184.0 L 164.0 188.0 L 172.0 189.0 L 180.0 191.0 L 187.0 191.0 L 191.0 191.0 L 194.0 189.0 L 194.0 185.0 L 194.0 175.0 L 194.0 171.0 " stroke="black" fill="none" stroke-width="5.0" stroke-linecap="round" stroke-linejoin="round" />
</svg>