<svg xmlns="http://www.w3.org/2000/svg" width="300" height="300" viewBox="0 0 300 300">
<path d="M 137.0 110.0 L 137.0 111.0 L 136.0 111.0 L 137.0 112.0 L 141.0 112.0 L 147.0 112.0 L 153.0 113.0 L 157.0 113.0 L 158.0 115.0 L 158.0 117.0 L 155.0 121.0 L 151.0 124.0 L 149.0 127.0 L 147.0 131.0 L 146.0 136.0 L 147.0 144.0 L 149.0 152.0 L 152.0 160.0 L 155.0 169.0 L 156.0 177.0 L 156.0 185.0 L 156.0 191.0 L 156.0 193.0 L 155.0 193.0 L 152.0 192.0 L 147.0 190.0 L 142.0 188.0 L 140.0 187.0 " stroke="black" fill="none" stroke-width="5.0" stroke-linecap="round" stroke-linejoin="round" />
<path d="M 131.0 148.0 L 131.0 148.0 L 131.0 148.0 L 131.0 148.0 L 131.0 148.0 L 134.0 148.0 L 142.0 147.0 L 151.0 146.0 L 158.0 146.0 L 161.0 146.0 L 162.0 146.0 L 161.0 146.0 " stroke="black" fill="none" stroke-width="5.0" stroke-linecap="round" stroke-linejoin="round" />
<path d="M 138.0 162.0 L 138.0 162.0 L 138.0 162.0 L 140.0 162.0 L 145.0 162.0 L 152.0 162.0 L 158.0 162.0 L 162.0 162.0 L 163.0 162.0 " stroke="black" fill="none" stroke-width="5.0" stroke-linecap="round" stroke-linejoin="round" />
<path d="M 136.0 176.0 L 136.0 176.0 L 135.0 176.0 L 135.0 176.0 L 137.0 176.0 L 143.0 176.0 L 153.0 175.0 L 161.0 175.0 L 167.0 175.0 L 168.0 175.0 " stroke="black" fill="none" stroke-width="5.0" stroke-linecap="round" stroke-linejoin="round" />
<path d="M 111.0 156.0 L 111.0 156.0 L 111.0 156.0 L 112.0 156.0 L 114.0 156.0 L 119.0 156.0 L 124.0 156.0 L 128.0 156.0 L 129.0 158.0 L 128.0 162.0 L 122.0 168.0 L 115.0 176.0 L 109.0 184.0 L 105.0 189.0 L 104.0 190.0 " stroke="black" fill="none" stroke-width="5.0" stroke-linecap="round" stroke-linejoin="round" />
<path d="M 185.0 138.0 L 185.0 138.0 L 185.0 138.0 L 185.0 138.0 L 185.0 138.0 L 184.0 139.0 L 181.0 142.0 L 176.0 147.0 L 171.0 151.0 L 168.0 154.0 L 168.0 158.0 L 173.0 163.0 L 181.0 170.0 L 188.0 180.0 L 194.0 187.0 L 198.0 192.0 L 201.0 194.0 L 201.0 194.0 L 201.0 194.0 " stroke="black" fill="none" stroke-width="5.0" stroke-linecap="round" stroke-linejoin="round" />
</svg>