<svg xmlns="http://www.w3.org/2000/svg" width="300" height="300" viewBox="0 0 300 300">
<path d="M 134.0 109.0 L 134.0 109.0 L 133.0 109.0 L 133.0 109.0 L 136.0 109.0 L 143.0 109.0 L 151.0 109.0 L 156.0 109.0 L 158.0 111.0 L 158.0 115.0 L 155.0 118.0 L 151.0 121.0 L 147.0 123.0 L 144.0 127.0 L 142.0 131.0 L 142.0 136.0 L 144.0 141.0 L 147.0 147.0 L 150.0 156.0 L 153.0 169.0 L 156.0 182.0 L 156.0 189.0 L 156.0 193.0 L 156.0 193.0 L 152.0 194.0 L 146.0 194.0 L 136.0 191.0 " stroke="black" fill="none" stroke-width="5.0" stroke-linecap="round" stroke-linejoin="round" />
<path d="M 132.0 148.0 L 132.0 148.0 L 132.0 148.0 L 135.0 148.0 L 145.0 148.0 L 157.0 147.0 L 163.0 147.0 " stroke="black" fill="none" stroke-width="5.0" stroke-linecap="round" stroke-linejoin="round" />
<path d="M 138.0 161.0 L 138.0 161.0 L 138.0 161.0 L 139.0 161.0 L 141.0 161.0 L 147.0 161.0 L 154.0 161.0 L 161.0 161.0 " stroke="black" fill="none" stroke-width="5.0" stroke-linecap="round" stroke-linejoin="round" />
<path d="M 137.0 173.0 L 137.0 173.0 L 137.0 174.0 L 138.0 174.0 L 144.0 175.0 L 155.0 177.0 L 166.0 180.0 L 167.0 181.0 " stroke="black" fill="none" stroke-width="5.0" stroke-linecap="round" stroke-linejoin="round" />
<path d="M 110.0 154.0 L 110.0 154.0 L 110.0 155.0 L 111.0 155.0 L 113.0 155.0 L 116.0 156.0 L 119.0 157.0 L 121.0 159.0 L 122.0 162.0 L 121.0 166.0 L 118.0 171.0 L 112.0 179.0 L 104.0 189.0 L 103.0 192.0 " stroke="black" fill="none" stroke-width="5.0" stroke-linecap="round" stroke-linejoin="round" />
<path d="M 185.0 142.0 L 185.0 142.0 L 185.0 142.0 L 184.0 144.0 L 182.0 146.0 L 179.0 149.0 L 176.0 152.0 L 174.0 156.0 L 174.0 160.0 L 175.0 167.0 L 180.0 178.0 L 187.0 191.0 L 195.0 200.0 L 197.0 203.0 " stroke="black" fill="none" stroke-width="5.0" stroke-linecap="round" stroke-linejoin="round" />
</svg>