<svg xmlns="http://www.w3.org/2000/svg" width="300" height="300" viewBox="0 0 300 300">
<path d="M 139.0 109.0 L 139.0 109.0 L 139.0 109.0 L 139.0 109.0 L 139.0 109.0 L 142.0 109.0 L 149.0 110.0 L 156.0 111.0 L 160.0 113.0 L 161.0 116.0 L 159.0 121.0 L 154.0 125.0 L 151.0 129.0 L 148.0 131.0 L 147.0 134.0 L 147.0 139.0 L 148.0 148.0 L 152.0 157.0 L 157.0 167.0 L 162.0 174.0 L 164.0 181.0 L 164.0 186.0 L 161.0 190.0 L 156.0 193.0 L 150.0 193.0 L 145.0 191.0 " stroke="black" fill="none" stroke-width="5.0" stroke-linecap="round" stroke-linejoin="round" />
<path d="M 133.0 147.0 L 133.0 147.0 L 133.0 147.0 L 133.0 146.0 L 136.0 146.0 L 145.0 144.0 L 156.0 144.0 L 164.0 143.0 " stroke="black" fill="none" stroke-width="5.0" stroke-linecap="round" stroke-linejoin="round" />
<path d="M 138.0 157.0 L 138.0 157.0 L 138.0 158.0 L 138.0 158.0 L 143.0 158.0 L 152.0 158.0 L 162.0 158.0 " stroke="black" fill="none" stroke-width="5.0" stroke-linecap="round" stroke-linejoin="round" />
<path d="M 133.0 176.0 L 135.0 176.0 L 138.0 175.0 L 144.0 174.0 L 153.0 172.0 L 163.0 171.0 L 165.0 171.0 " stroke="black" fill="none" stroke-width="5.0" stroke-linecap="round" stroke-linejoin="round" />
<path d="M 112.0 156.0 L 113.0 156.0 L 114.0 156.0 L 116.0 156.0 L 119.0 156.0 L 123.0 156.0 L 126.0 157.0 L 127.0 160.0 L 126.0 164.0 L 121.0 170.0 L 113.0 178.0 L 106.0 187.0 L 103.0 191.0 " stroke="black" fill="none" stroke-width="5.0" stroke-linecap="round" stroke-linejoin="round" />
<path d="M 186.0 140.0 L 186.0 140.0 L 186.0 140.0 L 186.0 140.0 L 186.0 140.0 L 184.0 141.0 L 181.0 144.0 L 176.0 147.0 L 171.0 149.0 L 168.0 152.0 L 167.0 155.0 L 172.0 164.0 L 181.0 175.0 L 190.0 187.0 L 198.0 195.0 L 200.0 198.0 " stroke="black" fill="none" stroke-width="5.0" stroke-linecap="round" stroke-linejoin="round" />
</svg>