<svg xmlns="http://www.w3.org/2000/svg" width="300" height="300" viewBox="0 0 300 300">
<path d="M 132.0 112.0 L 132.0 112.0 L 132.0 112.0 L 133.0 112.0 L 133.0 112.0 L 134.0 112.0 L 138.0 112.0 L 147.0 112.0 L 160.0 111.0 L 174.0 110.0 L 183.0 110.0 L 185.0 111.0 L 184.0 112.0 " stroke="black" fill="none" stroke-width="5.0" stroke-linecap="round" stroke-linejoin="round" />
<path d="M 152.0 113.0 L 152.0 113.0 L 152.0 113.0 L 151.0 113.0 L 151.0 117.0 L 151.0 131.0 L 152.0 153.0 L 152.0 173.0 L 152.0 185.0 L 152.0 188.0 L 152.0 185.0 " stroke="black" fill="none" stroke-width="5.0" stroke-linecap="round" stroke-linejoin="round" />
<path d="M 152.0 140.0 L 152.0 140.0 L 152.0 140.0 L 152.0 141.0 L 158.0 146.0 L 169.0 154.0 L 181.0 161.0 L 184.0 163.0 " stroke="black" fill="none" stroke-width="5.0" stroke-linecap="round" stroke-linejoin="round" />
</svg>