<svg xmlns="http://www.w3.org/2000/svg" width="300" height="300" viewBox="0 0 300 300">
<path d="M 128.0 124.0 L 128.0 124.0 L 127.0 124.0 L 127.0 124.0 L 126.0 124.0 L 126.0 124.0 L 126.0 132.0 L 127.0 148.0 L 129.0 169.0 L 130.0 170.0 " stroke="black" fill="none" stroke-width="5.0" stroke-linecap="round" stroke-linejoin="round" />
<path d="M 132.0 123.0 L 132.0 123.0 L 132.0 123.0 L 132.0 123.0 L 134.0 123.0 L 139.0 122.0 L 148.0 121.0 L 159.0 121.0 L 167.0 122.0 L 173.0 124.0 L 176.0 127.0 L 176.0 134.0 L 176.0 144.0 L 176.0 155.0 L 176.0 164.0 L 176.0 169.0 L 176.0 170.0 L 175.0 170.0 " stroke="black" fill="none" stroke-width="5.0" stroke-linecap="round" stroke-linejoin="round" />
<path d="M 133.0 172.0 L 133.0 173.0 L 132.0 173.0 L 132.0 174.0 L 140.0 175.0 L 154.0 175.0 L 167.0 174.0 L 174.0 173.0 L 175.0 173.0 L 174.0 174.0 " stroke="black" fill="none" stroke-width="5.0" stroke-linecap="round" stroke-linejoin="round" />
</svg>