<svg xmlns="http://www.w3.org/2000/svg" width="300" height="300" viewBox="0 0 300 300">
<path d="M 138.0 110.0 L 138.0 110.0 L 138.0 111.0 L 139.0 111.0 L 142.0 111.0 L 149.0 111.0 L 157.0 111.0 L 163.0 110.0 " stroke="black" fill="none" stroke-width="5.0" stroke-linecap="round" stroke-linejoin="round" />
<path d="M 124.0 134.0 L 124.0 134.0 L 124.0 134.0 L 126.0 133.0 L 132.0 133.0 L 144.0 132.0 L 159.0 132.0 L 175.0 132.0 L 184.0 132.0 L 187.0 132.0 " stroke="black" fill="none" stroke-width="5.0" stroke-linecap="round" stroke-linejoin="round" />
<path d="M 152.0 96.0 L 152.0 96.0 L 152.0 96.0 L 152.0 100.0 L 152.0 110.0 L 152.0 121.0 L 152.0 123.0 " stroke="black" fill="none" stroke-width="5.0" stroke-linecap="round" stroke-linejoin="round" />
<path d="M 169.0 104.0 L 169.0 104.0 L 167.0 106.0 L 165.0 109.0 L 161.0 116.0 L 154.0 126.0 L 145.0 140.0 L 133.0 152.0 L 120.0 162.0 L 115.0 165.0 " stroke="black" fill="none" stroke-width="5.0" stroke-linecap="round" stroke-linejoin="round" />
<path d="M 141.0 146.0 L 141.0 146.0 L 141.0 146.0 L 141.0 147.0 L 142.0 147.0 L 147.0 147.0 L 153.0 147.0 L 160.0 146.0 L 166.0 145.0 L 170.0 144.0 L 172.0 144.0 L 173.0 146.0 L 175.0 153.0 L 177.0 163.0 L 178.0 172.0 L 180.0 177.0 L 180.0 180.0 L 180.0 180.0 " stroke="black" fill="none" stroke-width="5.0" stroke-linecap="round" stroke-linejoin="round" />
<path d="M 141.0 146.0 L 140.0 146.0 L 139.0 148.0 L 138.0 151.0 L 138.0 159.0 L 138.0 172.0 L 138.0 182.0 L 138.0 185.0 " stroke="black" fill="none" stroke-width="5.0" stroke-linecap="round" stroke-linejoin="round" />
<path d="M 142.0 163.0 L 142.0 163.0 L 142.0 163.0 L 143.0 163.0 L 149.0 163.0 L 160.0 163.0 L 170.0 163.0 L 176.0 163.0 L 177.0 164.0 " stroke="black" fill="none" stroke-width="5.0" stroke-linecap="round" stroke-linejoin="round" />
<path d="M 143.0 184.0 L 143.0 184.0 L 145.0 185.0 L 148.0 186.0 L 155.0 186.0 L 166.0 185.0 L 178.0 184.0 L 183.0 184.0 L 184.0 184.0 " stroke="black" fill="none" stroke-width="5.0" stroke-linecap="round" stroke-linejoin="round" />
</svg>