<svg xmlns="http://www.w3.org/2000/svg" width="300" height="300" viewBox="0 0 300 300">
<path d="M 111.0 126.0 L 111.0 126.0 L 111.0 126.0 L 111.0 126.0 L 112.0 127.0 L 115.0 129.0 L 120.0 133.0 L 121.0 134.0 " stroke="black" fill="none" stroke-width="5.0" stroke-linecap="round" stroke-linejoin="round" />
<path d="M 96.0 177.0 L 97.0 177.0 L 98.0 177.0 L 103.0 177.0 L 111.0 172.0 L 120.0 167.0 " stroke="black" fill="none" stroke-width="5.0" stroke-linecap="round" stroke-linejoin="round" />
<path d="M 140.0 113.0 L 140.0 113.0 L 140.0 113.0 L 140.0 113.0 L 140.0 114.0 L 140.0 119.0 L 139.0 127.0 L 139.0 136.0 L 139.0 141.0 L 143.0 143.0 L 149.0 143.0 L 155.0 139.0 L 156.0 139.0 " stroke="black" fill="none" stroke-width="5.0" stroke-linecap="round" stroke-linejoin="round" />
<path d="M 141.0 124.0 L 141.0 124.0 L 141.0 124.0 L 141.0 124.0 L 143.0 124.0 L 149.0 124.0 L 152.0 124.0 " stroke="black" fill="none" stroke-width="5.0" stroke-linecap="round" stroke-linejoin="round" />
<path d="M 135.0 154.0 L 135.0 154.0 L 135.0 154.0 L 135.0 155.0 L 134.0 158.0 L 131.0 164.0 L 130.0 167.0 " stroke="black" fill="none" stroke-width="5.0" stroke-linecap="round" stroke-linejoin="round" />
<path d="M 138.0 159.0 L 138.0 159.0 L 138.0 159.0 L 138.0 159.0 L 142.0 159.0 L 147.0 159.0 L 153.0 158.0 L 154.0 158.0 " stroke="black" fill="none" stroke-width="5.0" stroke-linecap="round" stroke-linejoin="round" />
<path d="M 127.0 180.0 L 127.0 180.0 L 127.0 180.0 L 129.0 180.0 L 136.0 179.0 L 148.0 177.0 L 158.0 175.0 L 161.0 174.0 " stroke="black" fill="none" stroke-width="5.0" stroke-linecap="round" stroke-linejoin="round" />
<path d="M 145.0 164.0 L 145.0 164.0 L 145.0 164.0 L 145.0 165.0 L 145.0 167.0 L 144.0 174.0 L 141.0 185.0 L 138.0 195.0 L 137.0 197.0 " stroke="black" fill="none" stroke-width="5.0" stroke-linecap="round" stroke-linejoin="round" />
<path d="M 148.0 182.0 L 148.0 182.0 L 148.0 182.0 L 149.0 183.0 L 153.0 187.0 L 160.0 191.0 L 166.0 196.0 " stroke="black" fill="none" stroke-width="5.0" stroke-linecap="round" stroke-linejoin="round" />
<path d="M 171.0 117.0 L 171.0 117.0 L 172.0 118.0 L 172.0 118.0 L 173.0 118.0 L 176.0 118.0 L 181.0 118.0 L 185.0 117.0 L 188.0 117.0 L 189.0 117.0 L 189.0 120.0 L 187.0 127.0 L 184.0 133.0 L 183.0 135.0 " stroke="black" fill="none" stroke-width="5.0" stroke-linecap="round" stroke-linejoin="round" />
<path d="M 170.0 131.0 L 170.0 131.0 L 171.0 131.0 L 171.0 131.0 L 173.0 132.0 L 176.0 134.0 L 181.0 137.0 L 182.0 138.0 " stroke="black" fill="none" stroke-width="5.0" stroke-linecap="round" stroke-linejoin="round" />
<path d="M 163.0 145.0 L 163.0 145.0 L 163.0 145.0 L 164.0 145.0 L 170.0 144.0 L 181.0 142.0 L 192.0 140.0 L 199.0 139.0 L 200.0 139.0 L 200.0 139.0 L 199.0 141.0 L 197.0 146.0 L 194.0 151.0 L 194.0 152.0 " stroke="black" fill="none" stroke-width="5.0" stroke-linecap="round" stroke-linejoin="round" />
<path d="M 180.0 144.0 L 180.0 144.0 L 180.0 144.0 L 180.0 144.0 L 180.0 147.0 L 181.0 157.0 L 183.0 169.0 L 185.0 178.0 L 186.0 180.0 L 186.0 181.0 " stroke="black" fill="none" stroke-width="5.0" stroke-linecap="round" stroke-linejoin="round" />
<path d="M 183.0 163.0 L 183.0 163.0 L 183.0 163.0 L 184.0 163.0 L 188.0 163.0 L 194.0 163.0 L 198.0 163.0 L 199.0 163.0 " stroke="black" fill="none" stroke-width="5.0" stroke-linecap="round" stroke-linejoin="round" />
<path d="M 166.0 161.0 L 166.0 161.0 L 166.0 161.0 L 166.0 161.0 L 166.0 167.0 L 166.0 178.0 L 164.0 188.0 L 163.0 191.0 " stroke="black" fill="none" stroke-width="5.0" stroke-linecap="round" stroke-linejoin="round" />
<path d="M 172.0 176.0 L 172.0 176.0 L 172.0 176.0 L 172.0 176.0 L 175.0 177.0 L 182.0 180.0 L 193.0 186.0 L 202.0 190.0 L 207.0 193.0 L 208.0 194.0 L 207.0 194.0 " stroke="black" fill="none" stroke-width="5.0" stroke-linecap="round" stroke-linejoin="round" />
</svg>