<svg xmlns="http://www.w3.org/2000/svg" width="300" height="300" viewBox="0 0 300 300">
<path d="M 115.0 128.0 L 115.0 128.0 L 116.0 129.0 L 116.0 129.0 L 117.0 130.0 L 119.0 132.0 L 122.0 135.0 L 125.0 139.0 " stroke="black" fill="none" stroke-width="5.0" stroke-linecap="round" stroke-linejoin="round" />
<path d="M 102.0 180.0 L 103.0 180.0 L 105.0 179.0 L 108.0 177.0 L 115.0 173.0 L 125.0 169.0 " stroke="black" fill="none" stroke-width="5.0" stroke-linecap="round" stroke-linejoin="round" />
<path d="M 138.0 116.0 L 138.0 116.0 L 137.0 116.0 L 137.0 116.0 L 136.0 118.0 L 135.0 124.0 L 136.0 133.0 L 140.0 140.0 L 146.0 143.0 L 150.0 143.0 " stroke="black" fill="none" stroke-width="5.0" stroke-linecap="round" stroke-linejoin="round" />
<path d="M 137.0 127.0 L 137.0 127.0 L 136.0 127.0 L 136.0 128.0 L 137.0 128.0 L 143.0 128.0 L 150.0 128.0 L 154.0 128.0 " stroke="black" fill="none" stroke-width="5.0" stroke-linecap="round" stroke-linejoin="round" />
<path d="M 137.0 152.0 L 137.0 152.0 L 137.0 152.0 L 137.0 151.0 L 137.0 151.0 L 136.0 153.0 L 134.0 159.0 L 132.0 164.0 " stroke="black" fill="none" stroke-width="5.0" stroke-linecap="round" stroke-linejoin="round" />
<path d="M 138.0 157.0 L 139.0 157.0 L 140.0 157.0 L 143.0 157.0 L 146.0 157.0 L 150.0 157.0 L 152.0 157.0 " stroke="black" fill="none" stroke-width="5.0" stroke-linecap="round" stroke-linejoin="round" />
<path d="M 126.0 179.0 L 127.0 179.0 L 128.0 180.0 L 132.0 180.0 L 140.0 179.0 L 150.0 177.0 L 155.0 176.0 " stroke="black" fill="none" stroke-width="5.0" stroke-linecap="round" stroke-linejoin="round" />
<path d="M 146.0 160.0 L 145.0 160.0 L 144.0 161.0 L 144.0 163.0 L 143.0 168.0 L 141.0 179.0 L 137.0 191.0 L 134.0 200.0 " stroke="black" fill="none" stroke-width="5.0" stroke-linecap="round" stroke-linejoin="round" />
<path d="M 142.0 184.0 L 142.0 184.0 L 142.0 185.0 L 147.0 189.0 L 155.0 195.0 L 160.0 200.0 " stroke="black" fill="none" stroke-width="5.0" stroke-linecap="round" stroke-linejoin="round" />
<path d="M 167.0 123.0 L 167.0 123.0 L 166.0 124.0 L 166.0 124.0 L 168.0 124.0 L 173.0 124.0 L 178.0 124.0 L 182.0 124.0 L 184.0 124.0 L 184.0 126.0 L 184.0 130.0 L 180.0 136.0 L 179.0 137.0 " stroke="black" fill="none" stroke-width="5.0" stroke-linecap="round" stroke-linejoin="round" />
<path d="M 165.0 137.0 L 165.0 137.0 L 166.0 137.0 L 169.0 138.0 L 173.0 141.0 L 177.0 145.0 " stroke="black" fill="none" stroke-width="5.0" stroke-linecap="round" stroke-linejoin="round" />
<path d="M 157.0 151.0 L 158.0 151.0 L 159.0 151.0 L 163.0 151.0 L 174.0 149.0 L 186.0 147.0 L 193.0 147.0 L 195.0 147.0 L 195.0 150.0 L 193.0 153.0 L 190.0 157.0 " stroke="black" fill="none" stroke-width="5.0" stroke-linecap="round" stroke-linejoin="round" />
<path d="M 174.0 151.0 L 174.0 151.0 L 174.0 151.0 L 174.0 152.0 L 174.0 157.0 L 176.0 169.0 L 178.0 181.0 L 179.0 188.0 L 180.0 189.0 " stroke="black" fill="none" stroke-width="5.0" stroke-linecap="round" stroke-linejoin="round" />
<path d="M 178.0 173.0 L 178.0 173.0 L 178.0 172.0 L 179.0 172.0 L 183.0 171.0 L 189.0 170.0 L 193.0 170.0 L 194.0 171.0 " stroke="black" fill="none" stroke-width="5.0" stroke-linecap="round" stroke-linejoin="round" />
<path d="M 163.0 164.0 L 163.0 164.0 L 163.0 164.0 L 164.0 164.0 L 164.0 167.0 L 165.0 177.0 L 164.0 188.0 L 162.0 194.0 " stroke="black" fill="none" stroke-width="5.0" stroke-linecap="round" stroke-linejoin="round" />
<path d="M 168.0 181.0 L 168.0 181.0 L 168.0 182.0 L 168.0 183.0 L 172.0 185.0 L 181.0 189.0 L 195.0 195.0 L 209.0 200.0 L 211.0 201.0 " stroke="black" fill="none" stroke-width="5.0" stroke-linecap="round" stroke-linejoin="round" />
</svg>