<svg xmlns="http://www.w3.org/2000/svg" width="300" height="300" viewBox="0 0 300 300">
<path d="M 159.0 102.0 L 159.0 102.0 L 160.0 102.0 L 160.0 102.0 L 160.0 102.0 L 160.0 102.0 L 160.0 106.0 L 155.0 112.0 L 146.0 122.0 L 133.0 133.0 L 129.0 135.0 " stroke="black" fill="none" stroke-width="5.0" stroke-linecap="round" stroke-linejoin="round" />
<path d="M 153.0 116.0 L 153.0 116.0 L 153.0 117.0 L 154.0 117.0 L 156.0 118.0 L 161.0 119.0 L 165.0 121.0 L 168.0 123.0 L 169.0 125.0 L 169.0 127.0 L 167.0 131.0 L 162.0 137.0 L 156.0 144.0 L 147.0 152.0 L 136.0 162.0 L 123.0 170.0 L 116.0 172.0 L 115.0 172.0 " stroke="black" fill="none" stroke-width="5.0" stroke-linecap="round" stroke-linejoin="round" />
<path d="M 142.0 139.0 L 142.0 139.0 L 143.0 141.0 L 145.0 144.0 L 148.0 148.0 " stroke="black" fill="none" stroke-width="5.0" stroke-linecap="round" stroke-linejoin="round" />
<path d="M 140.0 161.0 L 140.0 161.0 L 139.0 162.0 L 138.0 166.0 L 139.0 174.0 L 142.0 183.0 L 143.0 190.0 L 144.0 191.0 " stroke="black" fill="none" stroke-width="5.0" stroke-linecap="round" stroke-linejoin="round" />
<path d="M 144.0 159.0 L 144.0 159.0 L 144.0 159.0 L 145.0 158.0 L 149.0 157.0 L 157.0 157.0 L 166.0 157.0 L 173.0 157.0 L 178.0 157.0 L 182.0 158.0 L 183.0 163.0 L 184.0 170.0 L 185.0 179.0 L 185.0 187.0 L 186.0 192.0 L 186.0 194.0 L 186.0 194.0 " stroke="black" fill="none" stroke-width="5.0" stroke-linecap="round" stroke-linejoin="round" />
<path d="M 150.0 196.0 L 150.0 196.0 L 149.0 196.0 L 150.0 197.0 L 154.0 197.0 L 164.0 197.0 L 175.0 197.0 L 182.0 196.0 L 186.0 196.0 " stroke="black" fill="none" stroke-width="5.0" stroke-linecap="round" stroke-linejoin="round" />
</svg>