<svg xmlns="http://www.w3.org/2000/svg" width="300" height="300" viewBox="0 0 300 300">
<path d="M 123.0 110.0 L 123.0 110.0 L 123.0 110.0 L 123.0 110.0 L 123.0 110.0 L 123.0 110.0 L 123.0 110.0 L 124.0 113.0 L 126.0 116.0 " stroke="black" fill="none" stroke-width="5.0" stroke-linecap="round" stroke-linejoin="round" />
<path d="M 113.0 127.0 L 113.0 127.0 L 113.0 127.0 L 113.0 127.0 L 113.0 127.0 L 114.0 127.0 L 117.0 127.0 L 122.0 126.0 L 127.0 126.0 L 131.0 126.0 L 133.0 126.0 L 133.0 126.0 L 133.0 129.0 L 129.0 133.0 L 123.0 139.0 L 115.0 146.0 L 107.0 153.0 L 100.0 159.0 L 96.0 163.0 L 96.0 163.0 " stroke="black" fill="none" stroke-width="5.0" stroke-linecap="round" stroke-linejoin="round" />
<path d="M 119.0 147.0 L 119.0 147.0 L 119.0 146.0 L 119.0 146.0 L 119.0 146.0 L 119.0 146.0 L 119.0 151.0 L 120.0 160.0 L 120.0 171.0 L 120.0 178.0 L 120.0 181.0 " stroke="black" fill="none" stroke-width="5.0" stroke-linecap="round" stroke-linejoin="round" />
<path d="M 123.0 152.0 L 123.0 152.0 L 124.0 152.0 L 124.0 152.0 L 128.0 153.0 L 135.0 156.0 L 143.0 159.0 L 145.0 160.0 " stroke="black" fill="none" stroke-width="5.0" stroke-linecap="round" stroke-linejoin="round" />
<path d="M 148.0 129.0 L 148.0 129.0 L 148.0 129.0 L 148.0 134.0 L 148.0 143.0 L 150.0 153.0 L 150.0 160.0 L 151.0 162.0 " stroke="black" fill="none" stroke-width="5.0" stroke-linecap="round" stroke-linejoin="round" />
<path d="M 148.0 131.0 L 148.0 130.0 L 149.0 130.0 L 150.0 129.0 L 154.0 128.0 L 160.0 127.0 L 165.0 127.0 L 171.0 128.0 L 176.0 131.0 L 179.0 134.0 L 181.0 140.0 L 183.0 147.0 L 184.0 153.0 L 184.0 158.0 L 184.0 160.0 L 184.0 160.0 " stroke="black" fill="none" stroke-width="5.0" stroke-linecap="round" stroke-linejoin="round" />
<path d="M 154.0 143.0 L 154.0 143.0 L 155.0 143.0 L 156.0 142.0 L 161.0 141.0 L 168.0 141.0 L 175.0 141.0 L 179.0 142.0 L 180.0 144.0 " stroke="black" fill="none" stroke-width="5.0" stroke-linecap="round" stroke-linejoin="round" />
<path d="M 147.0 159.0 L 147.0 159.0 L 148.0 160.0 L 153.0 160.0 L 164.0 160.0 L 176.0 159.0 L 178.0 158.0 " stroke="black" fill="none" stroke-width="5.0" stroke-linecap="round" stroke-linejoin="round" />
<path d="M 166.0 104.0 L 166.0 104.0 L 166.0 104.0 L 166.0 104.0 L 166.0 108.0 L 167.0 124.0 L 171.0 155.0 L 173.0 190.0 L 174.0 206.0 L 174.0 213.0 L 175.0 215.0 L 175.0 216.0 " stroke="black" fill="none" stroke-width="5.0" stroke-linecap="round" stroke-linejoin="round" />
</svg>