<svg xmlns="http://www.w3.org/2000/svg" width="300" height="300" viewBox="0 0 300 300">
<path d="M 118.0 111.0 L 118.0 111.0 L 119.0 112.0 L 120.0 114.0 L 121.0 118.0 L 123.0 121.0 L 123.0 122.0 " stroke="black" fill="none" stroke-width="5.0" stroke-linecap="round" stroke-linejoin="round" />
<path d="M 112.0 132.0 L 112.0 132.0 L 113.0 132.0 L 114.0 132.0 L 115.0 132.0 L 118.0 132.0 L 125.0 132.0 L 132.0 131.0 L 136.0 131.0 L 137.0 132.0 L 134.0 138.0 L 128.0 146.0 L 120.0 157.0 L 112.0 169.0 L 104.0 179.0 L 98.0 184.0 L 97.0 184.0 " stroke="black" fill="none" stroke-width="5.0" stroke-linecap="round" stroke-linejoin="round" />
<path d="M 121.0 156.0 L 121.0 156.0 L 121.0 156.0 L 121.0 156.0 L 121.0 159.0 L 122.0 168.0 L 124.0 180.0 L 125.0 189.0 L 125.0 195.0 " stroke="black" fill="none" stroke-width="5.0" stroke-linecap="round" stroke-linejoin="round" />
<path d="M 125.0 166.0 L 125.0 166.0 L 127.0 166.0 L 130.0 167.0 L 135.0 168.0 L 141.0 170.0 L 146.0 172.0 " stroke="black" fill="none" stroke-width="5.0" stroke-linecap="round" stroke-linejoin="round" />
<path d="M 152.0 136.0 L 152.0 136.0 L 152.0 138.0 L 152.0 142.0 L 152.0 152.0 L 152.0 162.0 L 153.0 168.0 L 153.0 169.0 " stroke="black" fill="none" stroke-width="5.0" stroke-linecap="round" stroke-linejoin="round" />
<path d="M 151.0 134.0 L 151.0 134.0 L 151.0 134.0 L 153.0 133.0 L 158.0 132.0 L 166.0 131.0 L 174.0 131.0 L 180.0 132.0 L 184.0 136.0 L 187.0 142.0 L 189.0 151.0 L 190.0 160.0 L 190.0 166.0 L 190.0 168.0 L 190.0 168.0 " stroke="black" fill="none" stroke-width="5.0" stroke-linecap="round" stroke-linejoin="round" />
<path d="M 157.0 150.0 L 158.0 150.0 L 160.0 151.0 L 165.0 151.0 L 173.0 151.0 L 179.0 151.0 L 183.0 152.0 " stroke="black" fill="none" stroke-width="5.0" stroke-linecap="round" stroke-linejoin="round" />
<path d="M 153.0 169.0 L 156.0 171.0 L 161.0 172.0 L 169.0 172.0 L 178.0 169.0 L 181.0 167.0 " stroke="black" fill="none" stroke-width="5.0" stroke-linecap="round" stroke-linejoin="round" />
<path d="M 159.0 103.0 L 160.0 103.0 L 161.0 103.0 L 161.0 106.0 L 163.0 120.0 L 166.0 149.0 L 169.0 177.0 L 170.0 194.0 L 170.0 202.0 L 170.0 206.0 L 170.0 206.0 L 170.0 205.0 L 170.0 203.0 " stroke="black" fill="none" stroke-width="5.0" stroke-linecap="round" stroke-linejoin="round" />
</svg>