<svg xmlns="http://www.w3.org/2000/svg" width="300" height="300" viewBox="0 0 300 300">
<path d="M 123.0 110.0 L 123.0 110.0 L 123.0 111.0 L 124.0 111.0 L 124.0 113.0 L 125.0 116.0 L 126.0 119.0 " stroke="black" fill="none" stroke-width="5.0" stroke-linecap="round" stroke-linejoin="round" />
<path d="M 116.0 131.0 L 117.0 131.0 L 117.0 132.0 L 120.0 132.0 L 126.0 132.0 L 131.0 130.0 L 135.0 130.0 L 136.0 129.0 L 136.0 129.0 L 127.0 144.0 L 120.0 152.0 L 113.0 161.0 L 106.0 170.0 L 103.0 174.0 " stroke="black" fill="none" stroke-width="5.0" stroke-linecap="round" stroke-linejoin="round" />
<path d="M 120.0 153.0 L 121.0 153.0 L 121.0 154.0 L 121.0 156.0 L 123.0 161.0 L 125.0 169.0 L 126.0 177.0 L 127.0 182.0 L 128.0 183.0 " stroke="black" fill="none" stroke-width="5.0" stroke-linecap="round" stroke-linejoin="round" />
<path d="M 125.0 158.0 L 126.0 159.0 L 128.0 161.0 L 132.0 163.0 L 139.0 165.0 L 140.0 165.0 " stroke="black" fill="none" stroke-width="5.0" stroke-linecap="round" stroke-linejoin="round" />
<path d="M 148.0 131.0 L 148.0 131.0 L 147.0 131.0 L 147.0 133.0 L 147.0 141.0 L 148.0 151.0 L 149.0 158.0 L 149.0 159.0 " stroke="black" fill="none" stroke-width="5.0" stroke-linecap="round" stroke-linejoin="round" />
<path d="M 147.0 132.0 L 147.0 132.0 L 148.0 131.0 L 150.0 131.0 L 153.0 130.0 L 160.0 128.0 L 166.0 128.0 L 172.0 128.0 L 176.0 131.0 L 179.0 136.0 L 181.0 144.0 L 182.0 151.0 L 183.0 155.0 L 182.0 158.0 L 182.0 158.0 " stroke="black" fill="none" stroke-width="5.0" stroke-linecap="round" stroke-linejoin="round" />
<path d="M 154.0 143.0 L 154.0 143.0 L 154.0 143.0 L 156.0 143.0 L 161.0 142.0 L 169.0 141.0 L 176.0 141.0 L 178.0 142.0 " stroke="black" fill="none" stroke-width="5.0" stroke-linecap="round" stroke-linejoin="round" />
<path d="M 152.0 157.0 L 152.0 158.0 L 154.0 159.0 L 161.0 159.0 L 170.0 156.0 L 177.0 154.0 " stroke="black" fill="none" stroke-width="5.0" stroke-linecap="round" stroke-linejoin="round" />
<path d="M 160.0 101.0 L 160.0 101.0 L 159.0 101.0 L 158.0 102.0 L 158.0 112.0 L 161.0 138.0 L 165.0 168.0 L 167.0 192.0 L 168.0 204.0 L 168.0 210.0 L 169.0 211.0 L 169.0 208.0 " stroke="black" fill="none" stroke-width="5.0" stroke-linecap="round" stroke-linejoin="round" />
</svg>