<svg xmlns="http://www.w3.org/2000/svg" width="300" height="300" viewBox="0 0 300 300">
<path d="M 133.0 114.0 L 133.0 114.0 L 133.0 114.0 L 133.0 115.0 L 133.0 115.0 L 133.0 118.0 L 131.0 124.0 L 126.0 134.0 L 119.0 144.0 L 117.0 145.0 " stroke="black" fill="none" stroke-width="5.0" stroke-linecap="round" stroke-linejoin="round" />
<path d="M 130.0 131.0 L 130.0 131.0 L 131.0 131.0 L 133.0 131.0 L 140.0 130.0 L 149.0 129.0 L 156.0 129.0 L 160.0 128.0 L 161.0 128.0 " stroke="black" fill="none" stroke-width="5.0" stroke-linecap="round" stroke-linejoin="round" />
<path d="M 116.0 161.0 L 116.0 161.0 L 117.0 161.0 L 119.0 161.0 L 127.0 161.0 L 142.0 159.0 L 157.0 157.0 L 169.0 155.0 L 176.0 155.0 L 177.0 155.0 " stroke="black" fill="none" stroke-width="5.0" stroke-linecap="round" stroke-linejoin="round" />
<path d="M 147.0 115.0 L 147.0 116.0 L 146.0 119.0 L 146.0 126.0 L 149.0 144.0 L 151.0 167.0 L 152.0 184.0 L 152.0 195.0 L 153.0 201.0 L 154.0 202.0 " stroke="black" fill="none" stroke-width="5.0" stroke-linecap="round" stroke-linejoin="round" />
<path d="M 149.0 162.0 L 149.0 162.0 L 148.0 163.0 L 147.0 163.0 L 144.0 166.0 L 138.0 172.0 L 128.0 181.0 L 117.0 189.0 L 113.0 193.0 L 113.0 193.0 " stroke="black" fill="none" stroke-width="5.0" stroke-linecap="round" stroke-linejoin="round" />
<path d="M 150.0 166.0 L 150.0 166.0 L 152.0 167.0 L 154.0 168.0 L 159.0 172.0 L 170.0 179.0 L 182.0 187.0 L 190.0 193.0 L 195.0 196.0 L 196.0 196.0 " stroke="black" fill="none" stroke-width="5.0" stroke-linecap="round" stroke-linejoin="round" />
</svg>