<svg xmlns="http://www.w3.org/2000/svg" width="300" height="300" viewBox="0 0 300 300">
<path d="M 115.0 123.0 L 115.0 123.0 L 115.0 123.0 L 115.0 123.0 L 115.0 126.0 L 115.0 134.0 L 115.0 150.0 L 115.0 164.0 L 116.0 169.0 L 117.0 170.0 " stroke="black" fill="none" stroke-width="5.0" stroke-linecap="round" stroke-linejoin="round" />
<path d="M 121.0 120.0 L 122.0 120.0 L 123.0 120.0 L 126.0 121.0 L 133.0 121.0 L 145.0 121.0 L 159.0 121.0 L 171.0 122.0 L 179.0 124.0 L 183.0 126.0 L 185.0 131.0 L 186.0 141.0 L 187.0 154.0 L 187.0 165.0 L 187.0 170.0 L 187.0 173.0 L 187.0 173.0 " stroke="black" fill="none" stroke-width="5.0" stroke-linecap="round" stroke-linejoin="round" />
<path d="M 126.0 147.0 L 127.0 147.0 L 129.0 147.0 L 132.0 147.0 L 139.0 147.0 L 150.0 147.0 L 164.0 149.0 L 174.0 151.0 L 180.0 153.0 L 180.0 154.0 " stroke="black" fill="none" stroke-width="5.0" stroke-linecap="round" stroke-linejoin="round" />
<path d="M 115.0 179.0 L 116.0 179.0 L 117.0 179.0 L 120.0 179.0 L 129.0 180.0 L 144.0 181.0 L 160.0 182.0 L 172.0 183.0 L 177.0 183.0 L 178.0 184.0 " stroke="black" fill="none" stroke-width="5.0" stroke-linecap="round" stroke-linejoin="round" />
</svg>