<svg xmlns="http://www.w3.org/2000/svg" width="300" height="300" viewBox="0 0 300 300">
<path d="M 121.0 122.0 L 121.0 122.0 L 122.0 123.0 L 122.0 123.0 L 122.0 124.0 L 122.0 125.0 L 122.0 129.0 L 122.0 139.0 L 122.0 153.0 L 122.0 164.0 L 121.0 168.0 " stroke="black" fill="none" stroke-width="5.0" stroke-linecap="round" stroke-linejoin="round" />
<path d="M 126.0 120.0 L 126.0 120.0 L 127.0 120.0 L 129.0 120.0 L 134.0 119.0 L 144.0 118.0 L 153.0 118.0 L 161.0 118.0 L 166.0 118.0 L 170.0 120.0 L 172.0 122.0 L 173.0 126.0 L 173.0 133.0 L 174.0 142.0 L 176.0 152.0 L 177.0 159.0 L 178.0 165.0 L 178.0 168.0 " stroke="black" fill="none" stroke-width="5.0" stroke-linecap="round" stroke-linejoin="round" />
<path d="M 131.0 143.0 L 131.0 143.0 L 131.0 143.0 L 131.0 143.0 L 135.0 143.0 L 145.0 144.0 L 158.0 144.0 L 167.0 144.0 L 172.0 145.0 L 172.0 146.0 " stroke="black" fill="none" stroke-width="5.0" stroke-linecap="round" stroke-linejoin="round" />
<path d="M 123.0 170.0 L 123.0 170.0 L 123.0 171.0 L 122.0 171.0 L 125.0 171.0 L 135.0 172.0 L 148.0 172.0 L 162.0 173.0 L 171.0 173.0 L 175.0 173.0 L 176.0 173.0 " stroke="black" fill="none" stroke-width="5.0" stroke-linecap="round" stroke-linejoin="round" />
</svg>