<svg xmlns="http://www.w3.org/2000/svg" width="300" height="300" viewBox="0 0 300 300">
<path d="M 123.0 127.0 L 123.0 127.0 L 123.0 127.0 L 123.0 128.0 L 123.0 129.0 L 123.0 135.0 L 123.0 147.0 L 122.0 161.0 L 122.0 168.0 L 122.0 169.0 " stroke="black" fill="none" stroke-width="5.0" stroke-linecap="round" stroke-linejoin="round" />
<path d="M 128.0 127.0 L 128.0 127.0 L 128.0 126.0 L 128.0 126.0 L 128.0 126.0 L 132.0 126.0 L 140.0 126.0 L 151.0 125.0 L 161.0 125.0 L 170.0 125.0 L 177.0 125.0 L 180.0 126.0 L 183.0 129.0 L 184.0 134.0 L 186.0 142.0 L 187.0 153.0 L 188.0 163.0 L 189.0 168.0 L 189.0 170.0 L 189.0 171.0 " stroke="black" fill="none" stroke-width="5.0" stroke-linecap="round" stroke-linejoin="round" />
<path d="M 128.0 150.0 L 128.0 150.0 L 128.0 150.0 L 131.0 150.0 L 142.0 150.0 L 159.0 150.0 L 174.0 151.0 L 180.0 152.0 L 181.0 153.0 L 181.0 153.0 " stroke="black" fill="none" stroke-width="5.0" stroke-linecap="round" stroke-linejoin="round" />
<path d="M 127.0 176.0 L 127.0 176.0 L 130.0 177.0 L 135.0 177.0 L 145.0 177.0 L 158.0 177.0 L 171.0 176.0 L 180.0 176.0 L 181.0 176.0 " stroke="black" fill="none" stroke-width="5.0" stroke-linecap="round" stroke-linejoin="round" />
</svg>