<svg xmlns="http://www.w3.org/2000/svg" width="300" height="300" viewBox="0 0 300 300">
<path d="M 116.0 122.0 L 116.0 122.0 L 116.0 122.0 L 117.0 122.0 L 117.0 122.0 L 119.0 122.0 L 124.0 122.0 L 132.0 122.0 L 134.0 122.0 " stroke="black" fill="none" stroke-width="5.0" stroke-linecap="round" stroke-linejoin="round" />
<path d="M 127.0 105.0 L 127.0 105.0 L 127.0 105.0 L 127.0 106.0 L 128.0 115.0 L 129.0 132.0 L 130.0 152.0 L 130.0 168.0 L 130.0 179.0 L 129.0 183.0 " stroke="black" fill="none" stroke-width="5.0" stroke-linecap="round" stroke-linejoin="round" />
<path d="M 128.0 131.0 L 128.0 131.0 L 127.0 132.0 L 126.0 134.0 L 124.0 139.0 L 117.0 148.0 L 110.0 157.0 L 104.0 163.0 " stroke="black" fill="none" stroke-width="5.0" stroke-linecap="round" stroke-linejoin="round" />
<path d="M 130.0 136.0 L 130.0 136.0 L 131.0 137.0 L 134.0 141.0 L 139.0 149.0 L 147.0 159.0 L 152.0 166.0 " stroke="black" fill="none" stroke-width="5.0" stroke-linecap="round" stroke-linejoin="round" />
<path d="M 151.0 107.0 L 151.0 107.0 L 151.0 106.0 L 151.0 106.0 L 151.0 108.0 L 151.0 114.0 L 152.0 121.0 L 152.0 127.0 " stroke="black" fill="none" stroke-width="5.0" stroke-linecap="round" stroke-linejoin="round" />
<path d="M 153.0 105.0 L 153.0 105.0 L 154.0 105.0 L 155.0 105.0 L 157.0 105.0 L 160.0 105.0 L 164.0 105.0 L 168.0 106.0 L 172.0 109.0 L 174.0 114.0 L 176.0 120.0 L 177.0 124.0 L 177.0 128.0 " stroke="black" fill="none" stroke-width="5.0" stroke-linecap="round" stroke-linejoin="round" />
<path d="M 144.0 118.0 L 144.0 118.0 L 143.0 118.0 L 143.0 118.0 L 143.0 117.0 L 148.0 117.0 L 156.0 116.0 L 167.0 115.0 L 178.0 114.0 L 183.0 114.0 " stroke="black" fill="none" stroke-width="5.0" stroke-linecap="round" stroke-linejoin="round" />
<path d="M 150.0 130.0 L 150.0 130.0 L 151.0 130.0 L 155.0 130.0 L 163.0 130.0 L 173.0 129.0 L 175.0 129.0 " stroke="black" fill="none" stroke-width="5.0" stroke-linecap="round" stroke-linejoin="round" />
<path d="M 158.0 98.0 L 158.0 98.0 L 158.0 98.0 L 158.0 98.0 L 158.0 101.0 L 159.0 110.0 L 162.0 124.0 L 164.0 137.0 L 165.0 144.0 " stroke="black" fill="none" stroke-width="5.0" stroke-linecap="round" stroke-linejoin="round" />
<path d="M 148.0 144.0 L 148.0 144.0 L 148.0 144.0 L 148.0 144.0 L 148.0 146.0 L 149.0 148.0 " stroke="black" fill="none" stroke-width="5.0" stroke-linecap="round" stroke-linejoin="round" />
<path d="M 148.0 142.0 L 148.0 142.0 L 148.0 142.0 L 149.0 141.0 L 154.0 140.0 L 161.0 139.0 L 169.0 139.0 L 176.0 140.0 L 181.0 142.0 L 184.0 145.0 L 184.0 148.0 L 184.0 148.0 " stroke="black" fill="none" stroke-width="5.0" stroke-linecap="round" stroke-linejoin="round" />
<path d="M 149.0 151.0 L 149.0 151.0 L 149.0 152.0 L 153.0 152.0 L 162.0 152.0 L 174.0 152.0 L 184.0 152.0 " stroke="black" fill="none" stroke-width="5.0" stroke-linecap="round" stroke-linejoin="round" />
<path d="M 156.0 159.0 L 156.0 159.0 L 156.0 159.0 L 156.0 159.0 L 156.0 159.0 L 156.0 159.0 L 156.0 162.0 L 155.0 169.0 L 154.0 177.0 L 152.0 184.0 L 152.0 188.0 L 154.0 191.0 L 160.0 193.0 L 169.0 193.0 L 178.0 192.0 L 182.0 191.0 " stroke="black" fill="none" stroke-width="5.0" stroke-linecap="round" stroke-linejoin="round" />
<path d="M 176.0 162.0 L 176.0 162.0 L 175.0 162.0 L 174.0 163.0 L 174.0 170.0 L 174.0 182.0 L 172.0 194.0 L 169.0 200.0 " stroke="black" fill="none" stroke-width="5.0" stroke-linecap="round" stroke-linejoin="round" />
<path d="M 145.0 176.0 L 148.0 176.0 L 154.0 175.0 L 167.0 173.0 L 182.0 171.0 L 190.0 170.0 L 192.0 170.0 L 192.0 170.0 " stroke="black" fill="none" stroke-width="5.0" stroke-linecap="round" stroke-linejoin="round" />
</svg>