<svg xmlns="http://www.w3.org/2000/svg" width="300" height="300" viewBox="0 0 300 300">
<path d="M 114.0 125.0 L 114.0 125.0 L 114.0 125.0 L 114.0 125.0 L 114.0 125.0 L 119.0 125.0 L 127.0 125.0 L 135.0 125.0 " stroke="black" fill="none" stroke-width="5.0" stroke-linecap="round" stroke-linejoin="round" />
<path d="M 126.0 108.0 L 126.0 108.0 L 126.0 108.0 L 125.0 108.0 L 125.0 108.0 L 124.0 112.0 L 124.0 128.0 L 124.0 153.0 L 124.0 175.0 L 123.0 187.0 L 123.0 190.0 L 124.0 189.0 " stroke="black" fill="none" stroke-width="5.0" stroke-linecap="round" stroke-linejoin="round" />
<path d="M 125.0 128.0 L 125.0 128.0 L 125.0 128.0 L 125.0 128.0 L 124.0 131.0 L 119.0 138.0 L 111.0 152.0 L 102.0 166.0 L 98.0 172.0 L 98.0 172.0 " stroke="black" fill="none" stroke-width="5.0" stroke-linecap="round" stroke-linejoin="round" />
<path d="M 123.0 135.0 L 124.0 135.0 L 124.0 135.0 L 126.0 139.0 L 130.0 146.0 L 136.0 156.0 L 142.0 163.0 " stroke="black" fill="none" stroke-width="5.0" stroke-linecap="round" stroke-linejoin="round" />
<path d="M 153.0 115.0 L 153.0 117.0 L 152.0 119.0 L 151.0 125.0 L 151.0 131.0 L 152.0 137.0 L 153.0 139.0 " stroke="black" fill="none" stroke-width="5.0" stroke-linecap="round" stroke-linejoin="round" />
<path d="M 152.0 114.0 L 152.0 114.0 L 152.0 114.0 L 153.0 114.0 L 154.0 113.0 L 158.0 112.0 L 165.0 111.0 L 172.0 111.0 L 177.0 111.0 L 180.0 114.0 L 182.0 119.0 L 183.0 126.0 L 183.0 134.0 L 183.0 139.0 L 183.0 142.0 " stroke="black" fill="none" stroke-width="5.0" stroke-linecap="round" stroke-linejoin="round" />
<path d="M 144.0 123.0 L 144.0 123.0 L 144.0 123.0 L 147.0 123.0 L 155.0 123.0 L 168.0 122.0 L 180.0 120.0 L 186.0 118.0 L 188.0 118.0 L 187.0 120.0 " stroke="black" fill="none" stroke-width="5.0" stroke-linecap="round" stroke-linejoin="round" />
<path d="M 151.0 139.0 L 151.0 139.0 L 151.0 139.0 L 151.0 140.0 L 154.0 140.0 L 163.0 139.0 L 175.0 138.0 L 182.0 138.0 " stroke="black" fill="none" stroke-width="5.0" stroke-linecap="round" stroke-linejoin="round" />
<path d="M 165.0 99.0 L 165.0 99.0 L 165.0 100.0 L 165.0 110.0 L 166.0 130.0 L 167.0 146.0 L 168.0 153.0 L 168.0 154.0 " stroke="black" fill="none" stroke-width="5.0" stroke-linecap="round" stroke-linejoin="round" />
<path d="M 149.0 148.0 L 149.0 148.0 L 149.0 148.0 L 149.0 148.0 L 149.0 150.0 L 150.0 154.0 L 151.0 156.0 " stroke="black" fill="none" stroke-width="5.0" stroke-linecap="round" stroke-linejoin="round" />
<path d="M 150.0 149.0 L 151.0 149.0 L 153.0 149.0 L 157.0 148.0 L 166.0 148.0 L 176.0 148.0 L 184.0 148.0 L 189.0 149.0 L 191.0 152.0 L 192.0 155.0 L 192.0 160.0 L 191.0 162.0 " stroke="black" fill="none" stroke-width="5.0" stroke-linecap="round" stroke-linejoin="round" />
<path d="M 149.0 161.0 L 149.0 161.0 L 148.0 162.0 L 149.0 162.0 L 156.0 162.0 L 169.0 162.0 L 181.0 161.0 L 185.0 161.0 " stroke="black" fill="none" stroke-width="5.0" stroke-linecap="round" stroke-linejoin="round" />
<path d="M 158.0 165.0 L 158.0 165.0 L 159.0 165.0 L 159.0 165.0 L 159.0 166.0 L 158.0 171.0 L 155.0 178.0 L 151.0 186.0 L 150.0 191.0 L 150.0 194.0 L 154.0 195.0 L 162.0 196.0 L 172.0 197.0 L 178.0 198.0 " stroke="black" fill="none" stroke-width="5.0" stroke-linecap="round" stroke-linejoin="round" />
<path d="M 173.0 166.0 L 173.0 166.0 L 172.0 166.0 L 172.0 169.0 L 172.0 178.0 L 171.0 190.0 L 168.0 199.0 L 167.0 201.0 " stroke="black" fill="none" stroke-width="5.0" stroke-linecap="round" stroke-linejoin="round" />
<path d="M 144.0 182.0 L 144.0 182.0 L 144.0 182.0 L 146.0 182.0 L 155.0 181.0 L 170.0 181.0 L 183.0 181.0 L 191.0 182.0 L 194.0 183.0 " stroke="black" fill="none" stroke-width="5.0" stroke-linecap="round" stroke-linejoin="round" />
</svg>