<svg xmlns="http://www.w3.org/2000/svg" width="300" height="300" viewBox="0 0 300 300">
<path d="M 146.0 115.0 L 146.0 115.0 L 146.0 115.0 L 146.0 115.0 L 146.0 115.0 L 146.0 119.0 L 147.0 133.0 L 149.0 155.0 L 151.0 176.0 L 152.0 188.0 L 152.0 193.0 L 152.0 193.0 L 149.0 193.0 L 143.0 189.0 L 136.0 185.0 " stroke="black" fill="none" stroke-width="5.0" stroke-linecap="round" stroke-linejoin="round" />
<path d="M 120.0 145.0 L 121.0 145.0 L 122.0 145.0 L 123.0 145.0 L 127.0 145.0 L 132.0 146.0 L 138.0 147.0 L 140.0 149.0 L 140.0 152.0 L 133.0 158.0 L 123.0 167.0 L 113.0 176.0 L 108.0 182.0 " stroke="black" fill="none" stroke-width="5.0" stroke-linecap="round" stroke-linejoin="round" />
<path d="M 158.0 147.0 L 158.0 147.0 L 158.0 146.0 L 161.0 145.0 L 170.0 143.0 L 182.0 140.0 L 189.0 139.0 L 190.0 139.0 " stroke="black" fill="none" stroke-width="5.0" stroke-linecap="round" stroke-linejoin="round" />
<path d="M 160.0 150.0 L 160.0 150.0 L 160.0 150.0 L 161.0 150.0 L 168.0 158.0 L 180.0 172.0 L 191.0 185.0 L 197.0 192.0 L 197.0 193.0 " stroke="black" fill="none" stroke-width="5.0" stroke-linecap="round" stroke-linejoin="round" />
</svg>