<svg xmlns="http://www.w3.org/2000/svg" width="300" height="300" viewBox="0 0 300 300">
<path d="M 131.0 119.0 L 132.0 119.0 L 132.0 119.0 L 133.0 119.0 L 135.0 119.0 L 141.0 119.0 L 149.0 119.0 L 157.0 118.0 L 162.0 118.0 L 164.0 118.0 " stroke="black" fill="none" stroke-width="5.0" stroke-linecap="round" stroke-linejoin="round" />
<path d="M 115.0 149.0 L 115.0 149.0 L 115.0 149.0 L 115.0 149.0 L 117.0 148.0 L 127.0 148.0 L 145.0 148.0 L 164.0 146.0 L 177.0 145.0 L 181.0 145.0 " stroke="black" fill="none" stroke-width="5.0" stroke-linecap="round" stroke-linejoin="round" />
<path d="M 148.0 104.0 L 148.0 104.0 L 148.0 104.0 L 148.0 104.0 L 148.0 109.0 L 150.0 127.0 L 150.0 153.0 L 150.0 176.0 L 150.0 190.0 L 150.0 199.0 L 151.0 202.0 L 152.0 202.0 L 152.0 198.0 " stroke="black" fill="none" stroke-width="5.0" stroke-linecap="round" stroke-linejoin="round" />
<path d="M 152.0 154.0 L 152.0 154.0 L 152.0 154.0 L 152.0 154.0 L 151.0 154.0 L 148.0 157.0 L 142.0 163.0 L 130.0 171.0 L 117.0 180.0 L 109.0 187.0 L 108.0 188.0 " stroke="black" fill="none" stroke-width="5.0" stroke-linecap="round" stroke-linejoin="round" />
<path d="M 151.0 155.0 L 151.0 156.0 L 151.0 157.0 L 153.0 159.0 L 159.0 165.0 L 171.0 174.0 L 182.0 186.0 L 189.0 193.0 L 191.0 196.0 L 192.0 197.0 " stroke="black" fill="none" stroke-width="5.0" stroke-linecap="round" stroke-linejoin="round" />
</svg>