<svg xmlns="http://www.w3.org/2000/svg" width="300" height="300" viewBox="0 0 300 300">
<path d="M 135.0 116.0 L 135.0 116.0 L 136.0 117.0 L 140.0 118.0 L 150.0 118.0 L 161.0 116.0 L 169.0 115.0 L 171.0 115.0 " stroke="black" fill="none" stroke-width="5.0" stroke-linecap="round" stroke-linejoin="round" />
<path d="M 115.0 150.0 L 118.0 150.0 L 124.0 149.0 L 137.0 148.0 L 156.0 146.0 L 175.0 145.0 L 186.0 145.0 L 187.0 145.0 " stroke="black" fill="none" stroke-width="5.0" stroke-linecap="round" stroke-linejoin="round" />
<path d="M 152.0 98.0 L 152.0 100.0 L 151.0 105.0 L 152.0 118.0 L 154.0 142.0 L 155.0 168.0 L 155.0 185.0 L 155.0 193.0 L 154.0 195.0 " stroke="black" fill="none" stroke-width="5.0" stroke-linecap="round" stroke-linejoin="round" />
<path d="M 151.0 150.0 L 151.0 150.0 L 150.0 151.0 L 148.0 153.0 L 145.0 155.0 L 139.0 161.0 L 130.0 169.0 L 119.0 179.0 L 111.0 186.0 L 110.0 187.0 " stroke="black" fill="none" stroke-width="5.0" stroke-linecap="round" stroke-linejoin="round" />
<path d="M 154.0 156.0 L 155.0 156.0 L 158.0 158.0 L 164.0 162.0 L 174.0 170.0 L 185.0 180.0 L 190.0 187.0 L 191.0 190.0 " stroke="black" fill="none" stroke-width="5.0" stroke-linecap="round" stroke-linejoin="round" />
</svg>