<svg xmlns="http://www.w3.org/2000/svg" width="300" height="300" viewBox="0 0 300 300">
<path d="M 134.0 120.0 L 134.0 121.0 L 134.0 121.0 L 137.0 122.0 L 143.0 122.0 L 151.0 122.0 L 157.0 122.0 L 160.0 122.0 L 160.0 124.0 " stroke="black" fill="none" stroke-width="5.0" stroke-linecap="round" stroke-linejoin="round" />
<path d="M 112.0 152.0 L 112.0 152.0 L 113.0 152.0 L 117.0 152.0 L 129.0 152.0 L 146.0 151.0 L 162.0 150.0 L 174.0 150.0 L 180.0 150.0 L 181.0 152.0 L 181.0 153.0 " stroke="black" fill="none" stroke-width="5.0" stroke-linecap="round" stroke-linejoin="round" />
<path d="M 147.0 105.0 L 147.0 105.0 L 146.0 107.0 L 146.0 116.0 L 147.0 136.0 L 148.0 161.0 L 149.0 179.0 L 149.0 191.0 L 149.0 196.0 L 148.0 197.0 " stroke="black" fill="none" stroke-width="5.0" stroke-linecap="round" stroke-linejoin="round" />
<path d="M 147.0 157.0 L 146.0 157.0 L 145.0 157.0 L 144.0 158.0 L 141.0 162.0 L 134.0 171.0 L 122.0 184.0 L 112.0 193.0 L 110.0 195.0 " stroke="black" fill="none" stroke-width="5.0" stroke-linecap="round" stroke-linejoin="round" />
<path d="M 148.0 163.0 L 150.0 163.0 L 153.0 163.0 L 160.0 165.0 L 172.0 174.0 L 183.0 186.0 L 187.0 195.0 L 188.0 196.0 " stroke="black" fill="none" stroke-width="5.0" stroke-linecap="round" stroke-linejoin="round" />
</svg>