<svg xmlns="http://www.w3.org/2000/svg" width="300" height="300" viewBox="0 0 300 300">
<path d="M 135.0 116.0 L 135.0 116.0 L 135.0 116.0 L 135.0 116.0 L 136.0 116.0 L 142.0 116.0 L 153.0 116.0 L 164.0 116.0 L 169.0 116.0 " stroke="black" fill="none" stroke-width="5.0" stroke-linecap="round" stroke-linejoin="round" />
<path d="M 121.0 144.0 L 121.0 143.0 L 121.0 143.0 L 123.0 142.0 L 131.0 142.0 L 146.0 142.0 L 163.0 141.0 L 177.0 140.0 L 184.0 140.0 L 185.0 140.0 " stroke="black" fill="none" stroke-width="5.0" stroke-linecap="round" stroke-linejoin="round" />
<path d="M 154.0 102.0 L 154.0 102.0 L 153.0 103.0 L 153.0 107.0 L 153.0 121.0 L 154.0 144.0 L 154.0 166.0 L 154.0 180.0 L 154.0 187.0 L 154.0 189.0 L 154.0 189.0 L 154.0 185.0 L 154.0 183.0 " stroke="black" fill="none" stroke-width="5.0" stroke-linecap="round" stroke-linejoin="round" />
<path d="M 152.0 145.0 L 152.0 145.0 L 152.0 145.0 L 152.0 145.0 L 150.0 146.0 L 146.0 150.0 L 137.0 159.0 L 126.0 168.0 L 117.0 176.0 L 113.0 180.0 L 113.0 180.0 " stroke="black" fill="none" stroke-width="5.0" stroke-linecap="round" stroke-linejoin="round" />
<path d="M 156.0 148.0 L 156.0 148.0 L 157.0 149.0 L 158.0 151.0 L 164.0 159.0 L 175.0 169.0 L 185.0 179.0 L 190.0 185.0 L 191.0 187.0 L 191.0 188.0 L 191.0 188.0 " stroke="black" fill="none" stroke-width="5.0" stroke-linecap="round" stroke-linejoin="round" />
</svg>