<svg xmlns="http://www.w3.org/2000/svg" width="300" height="300" viewBox="0 0 300 300">
<path d="M 151.0 104.0 L 151.0 104.0 L 151.0 104.0 L 151.0 104.0 L 151.0 105.0 L 150.0 106.0 L 147.0 111.0 L 139.0 122.0 L 126.0 135.0 L 117.0 143.0 L 115.0 144.0 " stroke="black" fill="none" stroke-width="5.0" stroke-linecap="round" stroke-linejoin="round" />
<path d="M 152.0 106.0 L 152.0 107.0 L 152.0 107.0 L 154.0 108.0 L 161.0 111.0 L 174.0 117.0 L 187.0 126.0 L 194.0 131.0 L 195.0 132.0 " stroke="black" fill="none" stroke-width="5.0" stroke-linecap="round" stroke-linejoin="round" />
<path d="M 141.0 140.0 L 141.0 140.0 L 142.0 140.0 L 145.0 140.0 L 152.0 139.0 L 162.0 138.0 L 172.0 138.0 L 176.0 138.0 L 176.0 138.0 " stroke="black" fill="none" stroke-width="5.0" stroke-linecap="round" stroke-linejoin="round" />
<path d="M 137.0 164.0 L 137.0 164.0 L 137.0 165.0 L 140.0 165.0 L 148.0 164.0 L 158.0 163.0 L 167.0 162.0 " stroke="black" fill="none" stroke-width="5.0" stroke-linecap="round" stroke-linejoin="round" />
<path d="M 119.0 196.0 L 119.0 196.0 L 120.0 197.0 L 124.0 197.0 L 138.0 197.0 L 158.0 196.0 L 174.0 195.0 L 183.0 195.0 " stroke="black" fill="none" stroke-width="5.0" stroke-linecap="round" stroke-linejoin="round" />
<path d="M 154.0 148.0 L 154.0 148.0 L 154.0 147.0 L 154.0 147.0 L 154.0 151.0 L 156.0 163.0 L 158.0 179.0 L 158.0 187.0 " stroke="black" fill="none" stroke-width="5.0" stroke-linecap="round" stroke-linejoin="round" />
<path d="M 134.0 174.0 L 134.0 175.0 L 135.0 179.0 L 138.0 184.0 L 141.0 187.0 " stroke="black" fill="none" stroke-width="5.0" stroke-linecap="round" stroke-linejoin="round" />
<path d="M 182.0 174.0 L 182.0 175.0 L 179.0 180.0 L 176.0 184.0 L 171.0 191.0 L 169.0 193.0 " stroke="black" fill="none" stroke-width="5.0" stroke-linecap="round" stroke-linejoin="round" />
</svg>