<svg xmlns="http://www.w3.org/2000/svg" width="300" height="300" viewBox="0 0 300 300">
<path d="M 151.0 101.0 L 151.0 101.0 L 151.0 101.0 L 152.0 101.0 L 152.0 101.0 L 151.0 102.0 L 147.0 107.0 L 135.0 119.0 L 118.0 134.0 L 107.0 145.0 L 105.0 146.0 " stroke="black" fill="none" stroke-width="5.0" stroke-linecap="round" stroke-linejoin="round" />
<path d="M 150.0 103.0 L 150.0 103.0 L 150.0 103.0 L 150.0 103.0 L 154.0 107.0 L 164.0 117.0 L 177.0 127.0 L 185.0 133.0 L 187.0 136.0 " stroke="black" fill="none" stroke-width="5.0" stroke-linecap="round" stroke-linejoin="round" />
<path d="M 133.0 137.0 L 133.0 137.0 L 133.0 137.0 L 134.0 137.0 L 136.0 137.0 L 144.0 137.0 L 156.0 136.0 L 165.0 135.0 L 168.0 135.0 " stroke="black" fill="none" stroke-width="5.0" stroke-linecap="round" stroke-linejoin="round" />
<path d="M 130.0 159.0 L 130.0 159.0 L 130.0 159.0 L 133.0 159.0 L 142.0 159.0 L 153.0 158.0 L 161.0 157.0 L 162.0 157.0 " stroke="black" fill="none" stroke-width="5.0" stroke-linecap="round" stroke-linejoin="round" />
<path d="M 111.0 199.0 L 111.0 199.0 L 111.0 199.0 L 111.0 199.0 L 115.0 199.0 L 128.0 199.0 L 148.0 199.0 L 163.0 199.0 L 174.0 199.0 L 176.0 199.0 " stroke="black" fill="none" stroke-width="5.0" stroke-linecap="round" stroke-linejoin="round" />
<path d="M 147.0 147.0 L 147.0 147.0 L 147.0 147.0 L 147.0 147.0 L 148.0 155.0 L 149.0 170.0 L 150.0 184.0 L 150.0 187.0 " stroke="black" fill="none" stroke-width="5.0" stroke-linecap="round" stroke-linejoin="round" />
<path d="M 126.0 170.0 L 126.0 170.0 L 126.0 170.0 L 126.0 170.0 L 131.0 172.0 L 136.0 174.0 " stroke="black" fill="none" stroke-width="5.0" stroke-linecap="round" stroke-linejoin="round" />
<path d="M 175.0 167.0 L 175.0 168.0 L 175.0 168.0 L 175.0 169.0 L 174.0 172.0 L 170.0 181.0 L 168.0 183.0 " stroke="black" fill="none" stroke-width="5.0" stroke-linecap="round" stroke-linejoin="round" />
</svg>