<svg xmlns="http://www.w3.org/2000/svg" width="300" height="300" viewBox="0 0 300 300">
<path d="M 147.0 105.0 L 147.0 105.0 L 147.0 105.0 L 146.0 105.0 L 145.0 106.0 L 144.0 108.0 L 139.0 114.0 L 125.0 128.0 L 107.0 144.0 L 104.0 146.0 " stroke="black" fill="none" stroke-width="5.0" stroke-linecap="round" stroke-linejoin="round" />
<path d="M 150.0 108.0 L 150.0 108.0 L 150.0 108.0 L 150.0 108.0 L 152.0 108.0 L 157.0 111.0 L 171.0 117.0 L 186.0 126.0 L 195.0 133.0 " stroke="black" fill="none" stroke-width="5.0" stroke-linecap="round" stroke-linejoin="round" />
<path d="M 136.0 146.0 L 136.0 146.0 L 136.0 146.0 L 136.0 146.0 L 137.0 146.0 L 141.0 146.0 L 148.0 145.0 L 157.0 145.0 L 165.0 145.0 " stroke="black" fill="none" stroke-width="5.0" stroke-linecap="round" stroke-linejoin="round" />
<path d="M 136.0 165.0 L 136.0 165.0 L 136.0 165.0 L 136.0 165.0 L 137.0 165.0 L 143.0 165.0 L 152.0 165.0 L 160.0 165.0 L 163.0 165.0 " stroke="black" fill="none" stroke-width="5.0" stroke-linecap="round" stroke-linejoin="round" />
<path d="M 112.0 194.0 L 112.0 194.0 L 114.0 195.0 L 117.0 195.0 L 127.0 196.0 L 145.0 196.0 L 161.0 197.0 L 173.0 197.0 L 176.0 198.0 " stroke="black" fill="none" stroke-width="5.0" stroke-linecap="round" stroke-linejoin="round" />
<path d="M 147.0 151.0 L 147.0 151.0 L 147.0 150.0 L 147.0 150.0 L 147.0 150.0 L 148.0 159.0 L 150.0 173.0 L 151.0 185.0 " stroke="black" fill="none" stroke-width="5.0" stroke-linecap="round" stroke-linejoin="round" />
<path d="M 132.0 177.0 L 132.0 177.0 L 133.0 177.0 L 135.0 179.0 L 138.0 182.0 " stroke="black" fill="none" stroke-width="5.0" stroke-linecap="round" stroke-linejoin="round" />
<path d="M 170.0 177.0 L 170.0 178.0 L 170.0 179.0 L 169.0 182.0 L 167.0 186.0 " stroke="black" fill="none" stroke-width="5.0" stroke-linecap="round" stroke-linejoin="round" />
</svg>