<svg xmlns="http://www.w3.org/2000/svg" width="300" height="300" viewBox="0 0 300 300">
<path d="M 133.0 113.0 L 133.0 113.0 L 133.0 113.0 L 134.0 113.0 L 137.0 113.0 L 144.0 113.0 L 155.0 113.0 L 164.0 113.0 L 170.0 113.0 L 170.0 113.0 " stroke="black" fill="none" stroke-width="5.0" stroke-linecap="round" stroke-linejoin="round" />
<path d="M 122.0 138.0 L 122.0 138.0 L 122.0 138.0 L 122.0 138.0 L 122.0 141.0 L 122.0 154.0 L 122.0 171.0 L 122.0 182.0 L 123.0 184.0 " stroke="black" fill="none" stroke-width="5.0" stroke-linecap="round" stroke-linejoin="round" />
<path d="M 125.0 135.0 L 125.0 135.0 L 125.0 135.0 L 126.0 135.0 L 132.0 135.0 L 142.0 135.0 L 154.0 135.0 L 164.0 135.0 L 171.0 136.0 L 176.0 138.0 L 179.0 141.0 L 182.0 149.0 L 185.0 161.0 L 187.0 173.0 L 189.0 183.0 L 189.0 189.0 L 189.0 190.0 L 188.0 191.0 L 181.0 193.0 L 167.0 193.0 " stroke="black" fill="none" stroke-width="5.0" stroke-linecap="round" stroke-linejoin="round" />
<path d="M 147.0 119.0 L 147.0 119.0 L 146.0 119.0 L 145.0 118.0 L 145.0 120.0 L 147.0 134.0 L 150.0 157.0 L 153.0 177.0 L 154.0 188.0 L 154.0 192.0 L 154.0 192.0 " stroke="black" fill="none" stroke-width="5.0" stroke-linecap="round" stroke-linejoin="round" />
<path d="M 135.0 155.0 L 135.0 155.0 L 135.0 155.0 L 135.0 155.0 L 135.0 155.0 L 135.0 155.0 L 139.0 158.0 L 143.0 161.0 " stroke="black" fill="none" stroke-width="5.0" stroke-linecap="round" stroke-linejoin="round" />
<path d="M 128.0 175.0 L 128.0 176.0 L 129.0 176.0 L 130.0 176.0 L 136.0 174.0 L 140.0 171.0 " stroke="black" fill="none" stroke-width="5.0" stroke-linecap="round" stroke-linejoin="round" />
<path d="M 156.0 161.0 L 156.0 161.0 L 156.0 162.0 L 156.0 162.0 L 159.0 161.0 L 166.0 158.0 L 172.0 155.0 " stroke="black" fill="none" stroke-width="5.0" stroke-linecap="round" stroke-linejoin="round" />
<path d="M 164.0 169.0 L 166.0 172.0 L 168.0 175.0 L 173.0 179.0 L 182.0 183.0 " stroke="black" fill="none" stroke-width="5.0" stroke-linecap="round" stroke-linejoin="round" />
</svg>