<svg xmlns="http://www.w3.org/2000/svg" width="300" height="300" viewBox="0 0 300 300">
<path d="M 131.0 113.0 L 131.0 113.0 L 131.0 113.0 L 131.0 113.0 L 133.0 113.0 L 138.0 113.0 L 147.0 112.0 L 159.0 111.0 L 172.0 110.0 L 179.0 109.0 " stroke="black" fill="none" stroke-width="5.0" stroke-linecap="round" stroke-linejoin="round" />
<path d="M 126.0 131.0 L 126.0 131.0 L 125.0 131.0 L 125.0 131.0 L 124.0 133.0 L 124.0 139.0 L 124.0 152.0 L 123.0 167.0 L 122.0 180.0 L 122.0 183.0 " stroke="black" fill="none" stroke-width="5.0" stroke-linecap="round" stroke-linejoin="round" />
<path d="M 128.0 131.0 L 128.0 131.0 L 128.0 131.0 L 129.0 131.0 L 132.0 131.0 L 139.0 131.0 L 148.0 131.0 L 157.0 130.0 L 164.0 129.0 L 171.0 129.0 L 177.0 129.0 L 182.0 129.0 L 185.0 129.0 L 186.0 130.0 L 187.0 131.0 L 188.0 135.0 L 190.0 140.0 L 192.0 147.0 L 194.0 155.0 L 196.0 166.0 L 198.0 177.0 L 200.0 187.0 L 201.0 192.0 L 201.0 194.0 L 199.0 194.0 L 193.0 193.0 L 191.0 193.0 " stroke="black" fill="none" stroke-width="5.0" stroke-linecap="round" stroke-linejoin="round" />
<path d="M 153.0 116.0 L 153.0 116.0 L 154.0 115.0 L 154.0 115.0 L 154.0 115.0 L 154.0 120.0 L 155.0 135.0 L 157.0 156.0 L 158.0 173.0 L 159.0 181.0 L 159.0 184.0 " stroke="black" fill="none" stroke-width="5.0" stroke-linecap="round" stroke-linejoin="round" />
<path d="M 143.0 147.0 L 143.0 147.0 L 142.0 147.0 L 142.0 146.0 L 143.0 147.0 L 144.0 148.0 L 145.0 150.0 " stroke="black" fill="none" stroke-width="5.0" stroke-linecap="round" stroke-linejoin="round" />
<path d="M 134.0 168.0 L 134.0 168.0 L 134.0 168.0 L 134.0 169.0 L 136.0 169.0 L 142.0 166.0 L 144.0 165.0 " stroke="black" fill="none" stroke-width="5.0" stroke-linecap="round" stroke-linejoin="round" />
<path d="M 165.0 153.0 L 165.0 153.0 L 166.0 153.0 L 167.0 153.0 L 168.0 152.0 L 170.0 152.0 L 171.0 151.0 " stroke="black" fill="none" stroke-width="5.0" stroke-linecap="round" stroke-linejoin="round" />
<path d="M 172.0 164.0 L 172.0 164.0 L 174.0 166.0 L 176.0 168.0 L 179.0 172.0 L 183.0 175.0 " stroke="black" fill="none" stroke-width="5.0" stroke-linecap="round" stroke-linejoin="round" />
</svg>