<svg xmlns="http://www.w3.org/2000/svg" width="300" height="300" viewBox="0 0 300 300">
<path d="M 129.0 113.0 L 129.0 113.0 L 131.0 113.0 L 134.0 113.0 L 140.0 113.0 L 149.0 113.0 L 159.0 113.0 L 166.0 112.0 L 169.0 110.0 " stroke="black" fill="none" stroke-width="5.0" stroke-linecap="round" stroke-linejoin="round" />
<path d="M 123.0 139.0 L 123.0 139.0 L 123.0 139.0 L 123.0 140.0 L 123.0 144.0 L 123.0 155.0 L 123.0 170.0 L 124.0 181.0 L 124.0 185.0 L 125.0 185.0 L 125.0 182.0 " stroke="black" fill="none" stroke-width="5.0" stroke-linecap="round" stroke-linejoin="round" />
<path d="M 128.0 136.0 L 128.0 136.0 L 129.0 136.0 L 131.0 136.0 L 135.0 136.0 L 143.0 136.0 L 153.0 136.0 L 165.0 136.0 L 176.0 136.0 L 182.0 136.0 L 186.0 138.0 L 189.0 142.0 L 191.0 150.0 L 194.0 162.0 L 197.0 173.0 L 199.0 183.0 L 199.0 189.0 L 199.0 191.0 L 196.0 192.0 L 190.0 192.0 L 179.0 188.0 L 176.0 187.0 " stroke="black" fill="none" stroke-width="5.0" stroke-linecap="round" stroke-linejoin="round" />
<path d="M 153.0 118.0 L 153.0 118.0 L 153.0 118.0 L 153.0 118.0 L 154.0 122.0 L 156.0 138.0 L 159.0 160.0 L 160.0 177.0 L 160.0 185.0 L 160.0 185.0 L 160.0 184.0 " stroke="black" fill="none" stroke-width="5.0" stroke-linecap="round" stroke-linejoin="round" />
<path d="M 140.0 152.0 L 140.0 152.0 L 140.0 152.0 L 140.0 153.0 L 140.0 154.0 L 143.0 154.0 L 147.0 155.0 " stroke="black" fill="none" stroke-width="5.0" stroke-linecap="round" stroke-linejoin="round" />
<path d="M 135.0 170.0 L 135.0 171.0 L 136.0 172.0 L 138.0 171.0 L 142.0 168.0 L 148.0 165.0 L 149.0 164.0 " stroke="black" fill="none" stroke-width="5.0" stroke-linecap="round" stroke-linejoin="round" />
<path d="M 170.0 156.0 L 171.0 155.0 L 173.0 155.0 L 175.0 154.0 L 178.0 153.0 L 179.0 152.0 " stroke="black" fill="none" stroke-width="5.0" stroke-linecap="round" stroke-linejoin="round" />
<path d="M 173.0 166.0 L 174.0 167.0 L 177.0 170.0 L 181.0 173.0 L 185.0 175.0 L 187.0 176.0 " stroke="black" fill="none" stroke-width="5.0" stroke-linecap="round" stroke-linejoin="round" />
</svg>