<svg xmlns="http://www.w3.org/2000/svg" width="300" height="300" viewBox="0 0 300 300">
<path d="M 128.0 121.0 L 128.0 121.0 L 128.0 121.0 L 128.0 121.0 L 129.0 121.0 L 130.0 121.0 L 137.0 121.0 L 149.0 121.0 L 163.0 120.0 L 171.0 119.0 L 174.0 119.0 L 174.0 119.0 " stroke="black" fill="none" stroke-width="5.0" stroke-linecap="round" stroke-linejoin="round" />
<path d="M 134.0 150.0 L 134.0 150.0 L 134.0 150.0 L 134.0 150.0 L 137.0 150.0 L 143.0 150.0 L 153.0 150.0 L 161.0 151.0 L 165.0 153.0 " stroke="black" fill="none" stroke-width="5.0" stroke-linecap="round" stroke-linejoin="round" />
<path d="M 113.0 184.0 L 114.0 184.0 L 117.0 183.0 L 121.0 183.0 L 131.0 184.0 L 146.0 185.0 L 162.0 185.0 L 175.0 186.0 L 186.0 185.0 L 187.0 184.0 " stroke="black" fill="none" stroke-width="5.0" stroke-linecap="round" stroke-linejoin="round" />
<path d="M 148.0 123.0 L 148.0 123.0 L 148.0 126.0 L 148.0 135.0 L 149.0 152.0 L 150.0 166.0 L 150.0 174.0 " stroke="black" fill="none" stroke-width="5.0" stroke-linecap="round" stroke-linejoin="round" />
</svg>