<svg xmlns="http://www.w3.org/2000/svg" width="300" height="300" viewBox="0 0 300 300">
<path d="M 130.0 120.0 L 131.0 120.0 L 133.0 121.0 L 138.0 121.0 L 147.0 122.0 L 160.0 122.0 L 172.0 122.0 L 179.0 122.0 L 179.0 122.0 " stroke="black" fill="none" stroke-width="5.0" stroke-linecap="round" stroke-linejoin="round" />
<path d="M 132.0 152.0 L 132.0 152.0 L 132.0 152.0 L 136.0 152.0 L 147.0 152.0 L 158.0 153.0 L 168.0 153.0 L 172.0 153.0 L 173.0 154.0 " stroke="black" fill="none" stroke-width="5.0" stroke-linecap="round" stroke-linejoin="round" />
<path d="M 110.0 187.0 L 110.0 187.0 L 110.0 187.0 L 112.0 188.0 L 121.0 189.0 L 139.0 189.0 L 158.0 190.0 L 173.0 190.0 L 184.0 190.0 L 189.0 191.0 " stroke="black" fill="none" stroke-width="5.0" stroke-linecap="round" stroke-linejoin="round" />
<path d="M 151.0 129.0 L 151.0 129.0 L 151.0 129.0 L 151.0 129.0 L 151.0 135.0 L 152.0 151.0 L 152.0 169.0 L 152.0 181.0 L 152.0 183.0 " stroke="black" fill="none" stroke-width="5.0" stroke-linecap="round" stroke-linejoin="round" />
</svg>