<svg xmlns="http://www.w3.org/2000/svg" width="300" height="300" viewBox="0 0 300 300">
<path d="M 127.0 119.0 L 127.0 119.0 L 127.0 119.0 L 127.0 119.0 L 128.0 120.0 L 135.0 120.0 L 147.0 120.0 L 161.0 119.0 L 172.0 118.0 L 178.0 117.0 " stroke="black" fill="none" stroke-width="5.0" stroke-linecap="round" stroke-linejoin="round" />
<path d="M 129.0 158.0 L 132.0 159.0 L 137.0 160.0 L 147.0 160.0 L 158.0 159.0 L 168.0 158.0 L 170.0 158.0 " stroke="black" fill="none" stroke-width="5.0" stroke-linecap="round" stroke-linejoin="round" />
<path d="M 112.0 194.0 L 115.0 194.0 L 118.0 195.0 L 129.0 196.0 L 147.0 196.0 L 164.0 196.0 L 178.0 195.0 L 181.0 194.0 " stroke="black" fill="none" stroke-width="5.0" stroke-linecap="round" stroke-linejoin="round" />
<path d="M 149.0 122.0 L 149.0 124.0 L 149.0 131.0 L 149.0 144.0 L 150.0 163.0 L 150.0 180.0 L 150.0 182.0 " stroke="black" fill="none" stroke-width="5.0" stroke-linecap="round" stroke-linejoin="round" />
</svg>