<svg xmlns="http://www.w3.org/2000/svg" width="300" height="300" viewBox="0 0 300 300">
<path d="M 122.0 117.0 L 122.0 117.0 L 122.0 118.0 L 124.0 118.0 L 128.0 118.0 L 136.0 117.0 L 147.0 116.0 L 156.0 115.0 L 161.0 115.0 L 162.0 115.0 L 161.0 115.0 " stroke="black" fill="none" stroke-width="5.0" stroke-linecap="round" stroke-linejoin="round" />
<path d="M 126.0 148.0 L 127.0 148.0 L 128.0 148.0 L 130.0 148.0 L 134.0 147.0 L 142.0 146.0 L 149.0 145.0 L 153.0 145.0 L 154.0 145.0 " stroke="black" fill="none" stroke-width="5.0" stroke-linecap="round" stroke-linejoin="round" />
<path d="M 103.0 183.0 L 104.0 183.0 L 105.0 184.0 L 112.0 184.0 L 127.0 182.0 L 146.0 182.0 L 162.0 182.0 L 173.0 181.0 L 178.0 180.0 " stroke="black" fill="none" stroke-width="5.0" stroke-linecap="round" stroke-linejoin="round" />
<path d="M 141.0 122.0 L 141.0 135.0 L 142.0 148.0 L 144.0 161.0 L 145.0 170.0 L 145.0 174.0 " stroke="black" fill="none" stroke-width="5.0" stroke-linecap="round" stroke-linejoin="round" />
</svg>