<svg xmlns="http://www.w3.org/2000/svg" width="300" height="300" viewBox="0 0 300 300">
<path d="M 150.0 109.0 L 150.0 109.0 L 150.0 109.0 L 150.0 109.0 L 150.0 109.0 L 150.0 111.0 L 151.0 117.0 L 153.0 130.0 L 154.0 144.0 L 154.0 149.0 " stroke="black" fill="none" stroke-width="5.0" stroke-linecap="round" stroke-linejoin="round" />
<path d="M 138.0 126.0 L 138.0 126.0 L 139.0 127.0 L 141.0 130.0 L 144.0 135.0 " stroke="black" fill="none" stroke-width="5.0" stroke-linecap="round" stroke-linejoin="round" />
<path d="M 174.0 127.0 L 174.0 128.0 L 173.0 129.0 L 171.0 135.0 L 168.0 141.0 L 167.0 144.0 " stroke="black" fill="none" stroke-width="5.0" stroke-linecap="round" stroke-linejoin="round" />
<path d="M 119.0 152.0 L 120.0 152.0 L 122.0 152.0 L 130.0 152.0 L 146.0 151.0 L 164.0 151.0 L 178.0 151.0 L 184.0 151.0 L 185.0 151.0 " stroke="black" fill="none" stroke-width="5.0" stroke-linecap="round" stroke-linejoin="round" />
<path d="M 139.0 157.0 L 139.0 157.0 L 138.0 158.0 L 137.0 159.0 L 136.0 164.0 L 136.0 173.0 L 134.0 192.0 L 134.0 193.0 " stroke="black" fill="none" stroke-width="5.0" stroke-linecap="round" stroke-linejoin="round" />
<path d="M 159.0 154.0 L 160.0 154.0 L 160.0 154.0 L 160.0 155.0 L 160.0 160.0 L 162.0 169.0 L 164.0 181.0 L 169.0 190.0 L 175.0 193.0 L 184.0 194.0 L 192.0 194.0 L 197.0 194.0 L 200.0 193.0 L 201.0 191.0 L 201.0 186.0 L 201.0 180.0 L 201.0 178.0 " stroke="black" fill="none" stroke-width="5.0" stroke-linecap="round" stroke-linejoin="round" />
</svg>