<svg xmlns="http://www.w3.org/2000/svg" width="300" height="300" viewBox="0 0 300 300">
<path d="M 147.0 105.0 L 147.0 108.0 L 147.0 113.0 L 147.0 122.0 L 147.0 131.0 L 148.0 137.0 L 148.0 139.0 " stroke="black" fill="none" stroke-width="5.0" stroke-linecap="round" stroke-linejoin="round" />
<path d="M 125.0 123.0 L 126.0 123.0 L 128.0 124.0 L 131.0 126.0 L 136.0 129.0 L 137.0 129.0 " stroke="black" fill="none" stroke-width="5.0" stroke-linecap="round" stroke-linejoin="round" />
<path d="M 165.0 121.0 L 166.0 122.0 L 166.0 124.0 L 166.0 127.0 L 164.0 130.0 L 161.0 133.0 " stroke="black" fill="none" stroke-width="5.0" stroke-linecap="round" stroke-linejoin="round" />
<path d="M 116.0 146.0 L 117.0 146.0 L 117.0 147.0 L 120.0 147.0 L 128.0 148.0 L 143.0 148.0 L 160.0 147.0 L 172.0 145.0 L 177.0 144.0 L 178.0 144.0 " stroke="black" fill="none" stroke-width="5.0" stroke-linecap="round" stroke-linejoin="round" />
<path d="M 131.0 157.0 L 131.0 157.0 L 131.0 157.0 L 130.0 157.0 L 130.0 159.0 L 130.0 166.0 L 127.0 178.0 L 124.0 190.0 L 123.0 193.0 " stroke="black" fill="none" stroke-width="5.0" stroke-linecap="round" stroke-linejoin="round" />
<path d="M 152.0 152.0 L 152.0 152.0 L 152.0 152.0 L 153.0 152.0 L 153.0 155.0 L 154.0 161.0 L 154.0 170.0 L 155.0 181.0 L 157.0 190.0 L 160.0 196.0 L 163.0 198.0 L 169.0 199.0 L 177.0 199.0 L 186.0 199.0 L 192.0 199.0 L 196.0 197.0 L 200.0 194.0 L 202.0 192.0 L 203.0 188.0 L 203.0 183.0 L 203.0 179.0 " stroke="black" fill="none" stroke-width="5.0" stroke-linecap="round" stroke-linejoin="round" />
</svg>