<svg xmlns="http://www.w3.org/2000/svg" width="300" height="300" viewBox="0 0 300 300">
<path d="M 151.0 106.0 L 151.0 106.0 L 151.0 106.0 L 151.0 105.0 L 151.0 105.0 L 151.0 113.0 L 151.0 128.0 L 151.0 141.0 L 151.0 144.0 " stroke="black" fill="none" stroke-width="5.0" stroke-linecap="round" stroke-linejoin="round" />
<path d="M 133.0 123.0 L 133.0 123.0 L 133.0 125.0 L 133.0 130.0 L 135.0 134.0 " stroke="black" fill="none" stroke-width="5.0" stroke-linecap="round" stroke-linejoin="round" />
<path d="M 174.0 119.0 L 174.0 121.0 L 173.0 124.0 L 171.0 128.0 L 168.0 134.0 L 165.0 137.0 " stroke="black" fill="none" stroke-width="5.0" stroke-linecap="round" stroke-linejoin="round" />
<path d="M 116.0 149.0 L 117.0 149.0 L 118.0 149.0 L 122.0 149.0 L 137.0 149.0 L 155.0 149.0 L 173.0 149.0 L 185.0 149.0 L 189.0 149.0 " stroke="black" fill="none" stroke-width="5.0" stroke-linecap="round" stroke-linejoin="round" />
<path d="M 138.0 154.0 L 138.0 154.0 L 137.0 154.0 L 137.0 154.0 L 136.0 154.0 L 136.0 161.0 L 132.0 175.0 L 127.0 189.0 L 125.0 192.0 " stroke="black" fill="none" stroke-width="5.0" stroke-linecap="round" stroke-linejoin="round" />
<path d="M 162.0 153.0 L 162.0 153.0 L 162.0 153.0 L 162.0 153.0 L 162.0 156.0 L 163.0 164.0 L 163.0 178.0 L 165.0 188.0 L 171.0 192.0 L 179.0 192.0 L 187.0 192.0 L 193.0 193.0 L 197.0 195.0 L 199.0 195.0 L 202.0 192.0 L 203.0 186.0 L 203.0 177.0 " stroke="black" fill="none" stroke-width="5.0" stroke-linecap="round" stroke-linejoin="round" />
</svg>