<svg xmlns="http://www.w3.org/2000/svg" width="300" height="300" viewBox="0 0 300 300">
<path d="M 150.0 107.0 L 150.0 107.0 L 150.0 108.0 L 150.0 108.0 L 150.0 112.0 L 151.0 120.0 L 152.0 129.0 L 152.0 134.0 " stroke="black" fill="none" stroke-width="5.0" stroke-linecap="round" stroke-linejoin="round" />
<path d="M 134.0 116.0 L 135.0 116.0 L 136.0 116.0 L 137.0 119.0 L 139.0 124.0 L 141.0 127.0 " stroke="black" fill="none" stroke-width="5.0" stroke-linecap="round" stroke-linejoin="round" />
<path d="M 170.0 116.0 L 170.0 119.0 L 168.0 123.0 L 165.0 127.0 " stroke="black" fill="none" stroke-width="5.0" stroke-linecap="round" stroke-linejoin="round" />
<path d="M 114.0 143.0 L 114.0 143.0 L 114.0 143.0 L 114.0 142.0 L 116.0 142.0 L 126.0 142.0 L 147.0 141.0 L 171.0 139.0 L 185.0 139.0 L 187.0 139.0 " stroke="black" fill="none" stroke-width="5.0" stroke-linecap="round" stroke-linejoin="round" />
<path d="M 138.0 150.0 L 138.0 150.0 L 138.0 150.0 L 138.0 150.0 L 138.0 151.0 L 138.0 154.0 L 136.0 163.0 L 132.0 177.0 L 129.0 186.0 " stroke="black" fill="none" stroke-width="5.0" stroke-linecap="round" stroke-linejoin="round" />
<path d="M 158.0 148.0 L 158.0 148.0 L 158.0 148.0 L 158.0 149.0 L 158.0 150.0 L 158.0 152.0 L 158.0 156.0 L 159.0 163.0 L 161.0 172.0 L 165.0 180.0 L 170.0 185.0 L 177.0 186.0 L 184.0 187.0 L 192.0 187.0 L 198.0 187.0 L 202.0 186.0 L 203.0 183.0 L 203.0 180.0 L 203.0 173.0 L 202.0 167.0 " stroke="black" fill="none" stroke-width="5.0" stroke-linecap="round" stroke-linejoin="round" />
</svg>