<svg xmlns="http://www.w3.org/2000/svg" width="300" height="300" viewBox="0 0 300 300">
<path d="M 119.0 124.0 L 119.0 124.0 L 119.0 124.0 L 119.0 124.0 L 119.0 124.0 L 120.0 126.0 L 121.0 130.0 L 122.0 134.0 " stroke="black" fill="none" stroke-width="5.0" stroke-linecap="round" stroke-linejoin="round" />
<path d="M 113.0 148.0 L 114.0 148.0 L 115.0 148.0 L 117.0 149.0 L 119.0 149.0 L 121.0 150.0 L 123.0 152.0 L 124.0 154.0 L 123.0 157.0 L 121.0 160.0 L 118.0 163.0 L 116.0 165.0 L 115.0 168.0 L 114.0 170.0 L 114.0 174.0 L 115.0 177.0 L 116.0 179.0 L 116.0 182.0 " stroke="black" fill="none" stroke-width="5.0" stroke-linecap="round" stroke-linejoin="round" />
<path d="M 106.0 189.0 L 106.0 189.0 L 106.0 187.0 L 106.0 186.0 L 108.0 185.0 L 112.0 184.0 L 119.0 183.0 L 128.0 183.0 L 137.0 185.0 L 148.0 190.0 L 159.0 194.0 L 173.0 196.0 L 186.0 195.0 L 193.0 192.0 " stroke="black" fill="none" stroke-width="5.0" stroke-linecap="round" stroke-linejoin="round" />
<path d="M 152.0 112.0 L 152.0 112.0 L 152.0 112.0 L 152.0 112.0 L 152.0 113.0 L 152.0 114.0 L 152.0 116.0 L 152.0 119.0 L 149.0 123.0 L 146.0 127.0 L 143.0 129.0 L 141.0 130.0 L 141.0 131.0 L 141.0 132.0 L 141.0 136.0 L 141.0 142.0 L 141.0 150.0 L 141.0 159.0 L 141.0 165.0 L 141.0 167.0 L 141.0 168.0 " stroke="black" fill="none" stroke-width="5.0" stroke-linecap="round" stroke-linejoin="round" />
<path d="M 146.0 131.0 L 146.0 131.0 L 146.0 131.0 L 146.0 131.0 L 146.0 131.0 L 149.0 131.0 L 154.0 130.0 L 160.0 130.0 L 166.0 130.0 L 170.0 130.0 L 174.0 130.0 L 176.0 131.0 L 178.0 135.0 L 179.0 143.0 L 181.0 155.0 L 182.0 165.0 L 183.0 170.0 L 184.0 172.0 L 184.0 172.0 " stroke="black" fill="none" stroke-width="5.0" stroke-linecap="round" stroke-linejoin="round" />
<path d="M 145.0 149.0 L 145.0 149.0 L 145.0 149.0 L 146.0 149.0 L 151.0 149.0 L 159.0 149.0 L 168.0 148.0 L 172.0 148.0 L 173.0 149.0 " stroke="black" fill="none" stroke-width="5.0" stroke-linecap="round" stroke-linejoin="round" />
<path d="M 139.0 168.0 L 139.0 170.0 L 139.0 171.0 L 143.0 172.0 L 152.0 172.0 L 163.0 172.0 L 174.0 171.0 L 179.0 171.0 L 180.0 172.0 " stroke="black" fill="none" stroke-width="5.0" stroke-linecap="round" stroke-linejoin="round" />
</svg>