<svg xmlns="http://www.w3.org/2000/svg" width="300" height="300" viewBox="0 0 300 300">
<path d="M 133.0 122.0 L 133.0 122.0 L 133.0 122.0 L 133.0 122.0 L 135.0 122.0 L 141.0 123.0 L 152.0 123.0 L 162.0 122.0 L 166.0 121.0 " stroke="black" fill="none" stroke-width="5.0" stroke-linecap="round" stroke-linejoin="round" />
<path d="M 113.0 148.0 L 113.0 148.0 L 113.0 148.0 L 114.0 148.0 L 124.0 147.0 L 146.0 145.0 L 167.0 144.0 L 180.0 143.0 L 183.0 143.0 " stroke="black" fill="none" stroke-width="5.0" stroke-linecap="round" stroke-linejoin="round" />
<path d="M 149.0 106.0 L 149.0 106.0 L 149.0 106.0 L 149.0 107.0 L 149.0 117.0 L 149.0 132.0 L 149.0 142.0 " stroke="black" fill="none" stroke-width="5.0" stroke-linecap="round" stroke-linejoin="round" />
<path d="M 175.0 110.0 L 175.0 111.0 L 174.0 112.0 L 172.0 114.0 L 170.0 119.0 L 163.0 129.0 L 152.0 146.0 L 138.0 165.0 L 123.0 178.0 L 116.0 182.0 " stroke="black" fill="none" stroke-width="5.0" stroke-linecap="round" stroke-linejoin="round" />
<path d="M 144.0 154.0 L 144.0 154.0 L 143.0 154.0 L 143.0 154.0 L 143.0 156.0 L 142.0 163.0 L 141.0 176.0 L 140.0 189.0 L 140.0 197.0 L 145.0 200.0 L 154.0 201.0 L 163.0 200.0 L 172.0 200.0 L 179.0 199.0 L 184.0 198.0 L 186.0 195.0 L 187.0 190.0 L 186.0 184.0 L 185.0 179.0 " stroke="black" fill="none" stroke-width="5.0" stroke-linecap="round" stroke-linejoin="round" />
<path d="M 145.0 168.0 L 145.0 169.0 L 147.0 170.0 L 154.0 170.0 L 168.0 166.0 L 179.0 163.0 " stroke="black" fill="none" stroke-width="5.0" stroke-linecap="round" stroke-linejoin="round" />
</svg>