<svg xmlns="http://www.w3.org/2000/svg" width="300" height="300" viewBox="0 0 300 300">
<path d="M 135.0 123.0 L 135.0 123.0 L 135.0 123.0 L 137.0 124.0 L 142.0 124.0 L 149.0 124.0 L 157.0 124.0 L 161.0 123.0 L 163.0 123.0 L 163.0 123.0 " stroke="black" fill="none" stroke-width="5.0" stroke-linecap="round" stroke-linejoin="round" />
<path d="M 114.0 151.0 L 116.0 151.0 L 119.0 151.0 L 127.0 151.0 L 142.0 151.0 L 157.0 151.0 L 169.0 151.0 L 178.0 151.0 L 181.0 151.0 " stroke="black" fill="none" stroke-width="5.0" stroke-linecap="round" stroke-linejoin="round" />
<path d="M 149.0 111.0 L 149.0 111.0 L 149.0 112.0 L 149.0 118.0 L 150.0 128.0 L 151.0 138.0 L 151.0 144.0 " stroke="black" fill="none" stroke-width="5.0" stroke-linecap="round" stroke-linejoin="round" />
<path d="M 172.0 120.0 L 171.0 122.0 L 168.0 126.0 L 163.0 132.0 L 155.0 141.0 L 145.0 153.0 L 134.0 164.0 L 124.0 172.0 L 117.0 176.0 L 115.0 178.0 L 115.0 178.0 " stroke="black" fill="none" stroke-width="5.0" stroke-linecap="round" stroke-linejoin="round" />
<path d="M 142.0 160.0 L 142.0 160.0 L 141.0 160.0 L 140.0 160.0 L 139.0 162.0 L 139.0 168.0 L 139.0 178.0 L 139.0 188.0 L 140.0 196.0 L 142.0 200.0 L 147.0 203.0 L 154.0 203.0 L 163.0 203.0 L 172.0 203.0 L 179.0 201.0 L 183.0 198.0 L 184.0 194.0 L 183.0 189.0 L 181.0 184.0 " stroke="black" fill="none" stroke-width="5.0" stroke-linecap="round" stroke-linejoin="round" />
<path d="M 144.0 173.0 L 144.0 173.0 L 144.0 173.0 L 145.0 174.0 L 152.0 174.0 L 163.0 172.0 L 171.0 170.0 " stroke="black" fill="none" stroke-width="5.0" stroke-linecap="round" stroke-linejoin="round" />
</svg>