<svg xmlns="http://www.w3.org/2000/svg" width="300" height="300" viewBox="0 0 300 300">
<path d="M 112.0 113.0 L 113.0 113.0 L 114.0 113.0 L 115.0 114.0 L 116.0 114.0 L 120.0 114.0 L 124.0 114.0 L 129.0 113.0 L 136.0 113.0 " stroke="black" fill="none" stroke-width="5.0" stroke-linecap="round" stroke-linejoin="round" />
<path d="M 113.0 124.0 L 114.0 124.0 L 115.0 124.0 L 117.0 125.0 L 122.0 125.0 L 127.0 125.0 L 134.0 125.0 L 137.0 125.0 " stroke="black" fill="none" stroke-width="5.0" stroke-linecap="round" stroke-linejoin="round" />
<path d="M 121.0 105.0 L 122.0 105.0 L 122.0 106.0 L 123.0 109.0 L 124.0 116.0 L 124.0 120.0 " stroke="black" fill="none" stroke-width="5.0" stroke-linecap="round" stroke-linejoin="round" />
<path d="M 104.0 137.0 L 104.0 137.0 L 104.0 137.0 L 104.0 137.0 L 104.0 137.0 L 104.0 140.0 L 105.0 143.0 L 105.0 144.0 " stroke="black" fill="none" stroke-width="5.0" stroke-linecap="round" stroke-linejoin="round" />
<path d="M 105.0 135.0 L 105.0 135.0 L 106.0 136.0 L 106.0 136.0 L 108.0 136.0 L 114.0 135.0 L 123.0 134.0 L 130.0 134.0 L 138.0 134.0 L 142.0 134.0 L 145.0 137.0 L 145.0 141.0 L 145.0 144.0 L 145.0 147.0 L 145.0 147.0 " stroke="black" fill="none" stroke-width="5.0" stroke-linecap="round" stroke-linejoin="round" />
<path d="M 115.0 145.0 L 116.0 145.0 L 117.0 145.0 L 119.0 145.0 L 122.0 144.0 L 126.0 143.0 L 131.0 143.0 L 132.0 143.0 " stroke="black" fill="none" stroke-width="5.0" stroke-linecap="round" stroke-linejoin="round" />
<path d="M 112.0 155.0 L 113.0 155.0 L 114.0 155.0 L 116.0 155.0 L 119.0 155.0 L 124.0 155.0 L 131.0 155.0 L 136.0 154.0 L 137.0 154.0 " stroke="black" fill="none" stroke-width="5.0" stroke-linecap="round" stroke-linejoin="round" />
<path d="M 112.0 165.0 L 112.0 166.0 L 113.0 167.0 L 113.0 168.0 L 114.0 170.0 L 114.0 173.0 L 115.0 176.0 L 115.0 178.0 L 115.0 178.0 " stroke="black" fill="none" stroke-width="5.0" stroke-linecap="round" stroke-linejoin="round" />
<path d="M 112.0 162.0 L 112.0 162.0 L 114.0 162.0 L 116.0 162.0 L 118.0 162.0 L 122.0 161.0 L 126.0 161.0 L 131.0 161.0 L 135.0 162.0 L 137.0 165.0 L 140.0 168.0 L 141.0 171.0 L 141.0 174.0 L 141.0 176.0 " stroke="black" fill="none" stroke-width="5.0" stroke-linecap="round" stroke-linejoin="round" />
<path d="M 116.0 167.0 L 116.0 168.0 L 118.0 168.0 L 120.0 169.0 L 123.0 169.0 L 129.0 169.0 L 134.0 169.0 L 137.0 169.0 " stroke="black" fill="none" stroke-width="5.0" stroke-linecap="round" stroke-linejoin="round" />
<path d="M 114.0 176.0 L 115.0 176.0 L 118.0 177.0 L 122.0 178.0 L 128.0 178.0 L 133.0 178.0 L 136.0 178.0 " stroke="black" fill="none" stroke-width="5.0" stroke-linecap="round" stroke-linejoin="round" />
<path d="M 124.0 148.0 L 124.0 148.0 L 124.0 150.0 L 124.0 153.0 L 125.0 162.0 L 127.0 175.0 L 128.0 186.0 L 130.0 192.0 L 130.0 194.0 " stroke="black" fill="none" stroke-width="5.0" stroke-linecap="round" stroke-linejoin="round" />
<path d="M 110.0 189.0 L 112.0 188.0 L 115.0 187.0 L 119.0 187.0 L 127.0 186.0 L 136.0 186.0 L 143.0 186.0 L 145.0 187.0 " stroke="black" fill="none" stroke-width="5.0" stroke-linecap="round" stroke-linejoin="round" />
<path d="M 153.0 115.0 L 153.0 115.0 L 154.0 115.0 L 154.0 115.0 L 155.0 118.0 L 155.0 122.0 L 155.0 127.0 L 155.0 135.0 L 155.0 137.0 " stroke="black" fill="none" stroke-width="5.0" stroke-linecap="round" stroke-linejoin="round" />
<path d="M 155.0 116.0 L 156.0 116.0 L 158.0 116.0 L 160.0 115.0 L 164.0 115.0 L 168.0 114.0 L 173.0 114.0 L 175.0 118.0 L 175.0 125.0 L 176.0 133.0 L 179.0 137.0 L 183.0 140.0 L 186.0 140.0 L 188.0 140.0 " stroke="black" fill="none" stroke-width="5.0" stroke-linecap="round" stroke-linejoin="round" />
<path d="M 159.0 151.0 L 160.0 151.0 L 161.0 151.0 L 164.0 152.0 L 168.0 152.0 L 172.0 152.0 L 176.0 153.0 L 179.0 153.0 L 179.0 155.0 L 179.0 161.0 L 176.0 170.0 L 171.0 182.0 L 165.0 193.0 L 160.0 201.0 L 157.0 204.0 " stroke="black" fill="none" stroke-width="5.0" stroke-linecap="round" stroke-linejoin="round" />
<path d="M 151.0 164.0 L 152.0 164.0 L 154.0 165.0 L 157.0 171.0 L 163.0 179.0 L 172.0 189.0 L 187.0 199.0 L 191.0 201.0 L 192.0 202.0 L 192.0 202.0 " stroke="black" fill="none" stroke-width="5.0" stroke-linecap="round" stroke-linejoin="round" />
</svg>