<svg xmlns="http://www.w3.org/2000/svg" width="300" height="300" viewBox="0 0 300 300">
<path d="M 130.0 116.0 L 130.0 116.0 L 130.0 116.0 L 130.0 116.0 L 131.0 116.0 L 131.0 117.0 L 131.0 118.0 L 130.0 121.0 L 126.0 127.0 L 121.0 134.0 L 118.0 139.0 L 117.0 142.0 L 118.0 143.0 L 122.0 143.0 L 124.0 143.0 " stroke="black" fill="none" stroke-width="5.0" stroke-linecap="round" stroke-linejoin="round" />
<path d="M 137.0 136.0 L 137.0 136.0 L 137.0 136.0 L 137.0 137.0 L 136.0 138.0 L 134.0 141.0 L 129.0 147.0 L 123.0 155.0 L 118.0 162.0 L 116.0 167.0 L 118.0 169.0 L 125.0 169.0 L 134.0 167.0 L 140.0 164.0 " stroke="black" fill="none" stroke-width="5.0" stroke-linecap="round" stroke-linejoin="round" />
<path d="M 144.0 157.0 L 144.0 159.0 L 144.0 161.0 L 145.0 165.0 L 147.0 169.0 L 148.0 172.0 " stroke="black" fill="none" stroke-width="5.0" stroke-linecap="round" stroke-linejoin="round" />
<path d="M 111.0 181.0 L 111.0 181.0 L 111.0 182.0 L 111.0 184.0 L 111.0 188.0 L 112.0 193.0 " stroke="black" fill="none" stroke-width="5.0" stroke-linecap="round" stroke-linejoin="round" />
<path d="M 125.0 181.0 L 125.0 181.0 L 125.0 183.0 L 126.0 185.0 L 128.0 189.0 L 130.0 193.0 L 131.0 196.0 " stroke="black" fill="none" stroke-width="5.0" stroke-linecap="round" stroke-linejoin="round" />
<path d="M 139.0 183.0 L 139.0 183.0 L 140.0 185.0 L 142.0 189.0 L 144.0 194.0 L 144.0 195.0 " stroke="black" fill="none" stroke-width="5.0" stroke-linecap="round" stroke-linejoin="round" />
<path d="M 168.0 115.0 L 168.0 115.0 L 168.0 115.0 L 168.0 115.0 L 168.0 117.0 L 165.0 120.0 L 163.0 123.0 L 160.0 126.0 L 160.0 128.0 L 160.0 130.0 L 163.0 132.0 L 164.0 132.0 " stroke="black" fill="none" stroke-width="5.0" stroke-linecap="round" stroke-linejoin="round" />
<path d="M 183.0 124.0 L 182.0 124.0 L 181.0 125.0 L 180.0 126.0 L 179.0 127.0 L 176.0 130.0 L 171.0 135.0 L 165.0 142.0 L 160.0 149.0 L 159.0 153.0 L 161.0 154.0 L 168.0 154.0 L 176.0 153.0 L 181.0 152.0 " stroke="black" fill="none" stroke-width="5.0" stroke-linecap="round" stroke-linejoin="round" />
<path d="M 185.0 140.0 L 185.0 141.0 L 185.0 143.0 L 187.0 146.0 L 189.0 151.0 L 192.0 156.0 L 193.0 157.0 " stroke="black" fill="none" stroke-width="5.0" stroke-linecap="round" stroke-linejoin="round" />
<path d="M 171.0 157.0 L 171.0 157.0 L 171.0 159.0 L 172.0 163.0 L 173.0 172.0 L 175.0 184.0 L 176.0 195.0 L 176.0 200.0 L 176.0 203.0 L 174.0 203.0 L 170.0 202.0 L 165.0 197.0 " stroke="black" fill="none" stroke-width="5.0" stroke-linecap="round" stroke-linejoin="round" />
<path d="M 160.0 171.0 L 160.0 171.0 L 159.0 171.0 L 158.0 172.0 L 158.0 175.0 L 157.0 179.0 L 155.0 185.0 L 154.0 188.0 " stroke="black" fill="none" stroke-width="5.0" stroke-linecap="round" stroke-linejoin="round" />
<path d="M 188.0 174.0 L 188.0 174.0 L 188.0 175.0 L 189.0 177.0 L 192.0 181.0 L 195.0 187.0 L 197.0 194.0 " stroke="black" fill="none" stroke-width="5.0" stroke-linecap="round" stroke-linejoin="round" />
</svg>