<svg xmlns="http://www.w3.org/2000/svg" width="300" height="300" viewBox="0 0 300 300">
<path d="M 120.0 125.0 L 119.0 125.0 L 118.0 125.0 L 118.0 125.0 L 118.0 126.0 L 122.0 126.0 L 129.0 125.0 L 138.0 125.0 L 147.0 125.0 L 156.0 125.0 L 165.0 124.0 L 172.0 123.0 L 176.0 123.0 L 178.0 123.0 L 180.0 123.0 L 181.0 125.0 L 182.0 126.0 L 182.0 127.0 L 182.0 128.0 L 182.0 131.0 L 183.0 137.0 L 185.0 145.0 L 187.0 156.0 L 189.0 167.0 L 190.0 176.0 L 190.0 182.0 L 189.0 184.0 L 188.0 185.0 L 185.0 185.0 L 180.0 183.0 L 169.0 180.0 " stroke="black" fill="none" stroke-width="5.0" stroke-linecap="round" stroke-linejoin="round" />
<path d="M 152.0 104.0 L 151.0 105.0 L 150.0 109.0 L 147.0 119.0 L 142.0 139.0 L 132.0 165.0 L 118.0 188.0 L 111.0 198.0 " stroke="black" fill="none" stroke-width="5.0" stroke-linecap="round" stroke-linejoin="round" />
</svg>