<svg xmlns="http://www.w3.org/2000/svg" width="300" height="300" viewBox="0 0 300 300">
<path d="M 116.0 124.0 L 116.0 124.0 L 116.0 128.0 L 116.0 133.0 L 115.0 138.0 " stroke="black" fill="none" stroke-width="5.0" stroke-linecap="round" stroke-linejoin="round" />
<path d="M 117.0 122.0 L 117.0 122.0 L 118.0 122.0 L 119.0 122.0 L 123.0 121.0 L 133.0 119.0 L 148.0 117.0 L 160.0 115.0 L 171.0 114.0 L 179.0 113.0 L 185.0 113.0 L 187.0 113.0 L 189.0 114.0 L 190.0 118.0 L 191.0 122.0 L 191.0 127.0 L 191.0 131.0 L 190.0 134.0 " stroke="black" fill="none" stroke-width="5.0" stroke-linecap="round" stroke-linejoin="round" />
<path d="M 149.0 100.0 L 149.0 100.0 L 149.0 100.0 L 150.0 103.0 L 152.0 109.0 " stroke="black" fill="none" stroke-width="5.0" stroke-linecap="round" stroke-linejoin="round" />
<path d="M 134.0 149.0 L 133.0 149.0 L 133.0 150.0 L 131.0 152.0 L 130.0 155.0 L 126.0 161.0 L 122.0 169.0 L 120.0 173.0 " stroke="black" fill="none" stroke-width="5.0" stroke-linecap="round" stroke-linejoin="round" />
<path d="M 145.0 164.0 L 145.0 165.0 L 145.0 166.0 L 144.0 168.0 L 144.0 170.0 L 143.0 175.0 L 143.0 179.0 L 144.0 182.0 L 148.0 184.0 L 156.0 184.0 L 167.0 183.0 L 176.0 182.0 L 181.0 182.0 L 183.0 181.0 L 183.0 181.0 L 182.0 181.0 L 180.0 180.0 L 175.0 175.0 " stroke="black" fill="none" stroke-width="5.0" stroke-linecap="round" stroke-linejoin="round" />
<path d="M 156.0 154.0 L 156.0 154.0 L 156.0 155.0 L 157.0 157.0 L 160.0 162.0 L 165.0 167.0 L 167.0 168.0 " stroke="black" fill="none" stroke-width="5.0" stroke-linecap="round" stroke-linejoin="round" />
<path d="M 187.0 158.0 L 188.0 161.0 L 190.0 163.0 L 192.0 166.0 L 193.0 167.0 " stroke="black" fill="none" stroke-width="5.0" stroke-linecap="round" stroke-linejoin="round" />
<path d="M 178.0 149.0 L 178.0 149.0 L 177.0 151.0 L 175.0 154.0 L 172.0 160.0 L 166.0 170.0 L 156.0 183.0 L 142.0 196.0 L 124.0 209.0 " stroke="black" fill="none" stroke-width="5.0" stroke-linecap="round" stroke-linejoin="round" />
</svg>