<svg xmlns="http://www.w3.org/2000/svg" width="300" height="300" viewBox="0 0 300 300">
<path d="M 113.0 129.0 L 113.0 129.0 L 113.0 129.0 L 115.0 129.0 L 119.0 129.0 L 127.0 129.0 L 134.0 129.0 L 138.0 129.0 L 138.0 129.0 " stroke="black" fill="none" stroke-width="5.0" stroke-linecap="round" stroke-linejoin="round" />
<path d="M 123.0 110.0 L 124.0 110.0 L 125.0 110.0 L 125.0 112.0 L 125.0 119.0 L 126.0 131.0 L 126.0 148.0 L 126.0 167.0 L 126.0 183.0 L 126.0 192.0 L 127.0 194.0 L 128.0 193.0 L 127.0 191.0 " stroke="black" fill="none" stroke-width="5.0" stroke-linecap="round" stroke-linejoin="round" />
<path d="M 122.0 139.0 L 123.0 138.0 L 123.0 138.0 L 123.0 138.0 L 120.0 141.0 L 115.0 147.0 L 110.0 156.0 L 105.0 166.0 L 101.0 173.0 L 101.0 175.0 " stroke="black" fill="none" stroke-width="5.0" stroke-linecap="round" stroke-linejoin="round" />
<path d="M 126.0 142.0 L 127.0 142.0 L 128.0 141.0 L 130.0 141.0 L 135.0 147.0 L 142.0 157.0 L 147.0 166.0 L 149.0 170.0 L 149.0 170.0 " stroke="black" fill="none" stroke-width="5.0" stroke-linecap="round" stroke-linejoin="round" />
<path d="M 155.0 121.0 L 155.0 121.0 L 155.0 121.0 L 155.0 121.0 L 155.0 124.0 L 155.0 137.0 L 155.0 159.0 L 155.0 176.0 L 155.0 185.0 L 156.0 186.0 L 156.0 184.0 " stroke="black" fill="none" stroke-width="5.0" stroke-linecap="round" stroke-linejoin="round" />
<path d="M 154.0 122.0 L 154.0 122.0 L 154.0 122.0 L 154.0 122.0 L 156.0 122.0 L 160.0 122.0 L 166.0 122.0 L 172.0 122.0 L 176.0 123.0 L 180.0 126.0 L 183.0 135.0 L 189.0 168.0 L 191.0 182.0 L 192.0 189.0 L 192.0 191.0 L 192.0 190.0 " stroke="black" fill="none" stroke-width="5.0" stroke-linecap="round" stroke-linejoin="round" />
<path d="M 158.0 146.0 L 159.0 146.0 L 161.0 146.0 L 165.0 146.0 L 171.0 146.0 L 178.0 146.0 L 182.0 145.0 L 183.0 145.0 " stroke="black" fill="none" stroke-width="5.0" stroke-linecap="round" stroke-linejoin="round" />
<path d="M 159.0 163.0 L 160.0 163.0 L 162.0 165.0 L 166.0 167.0 L 172.0 167.0 L 180.0 166.0 L 186.0 165.0 L 187.0 165.0 " stroke="black" fill="none" stroke-width="5.0" stroke-linecap="round" stroke-linejoin="round" />
<path d="M 157.0 189.0 L 157.0 189.0 L 159.0 190.0 L 163.0 191.0 L 172.0 191.0 L 184.0 188.0 L 193.0 187.0 L 195.0 187.0 " stroke="black" fill="none" stroke-width="5.0" stroke-linecap="round" stroke-linejoin="round" />
</svg>