<svg xmlns="http://www.w3.org/2000/svg" width="300" height="300" viewBox="0 0 300 300">
<path d="M 131.0 115.0 L 131.0 115.0 L 131.0 116.0 L 131.0 117.0 L 131.0 120.0 L 131.0 126.0 L 131.0 140.0 L 131.0 159.0 L 131.0 174.0 L 131.0 183.0 L 131.0 184.0 L 132.0 181.0 " stroke="black" fill="none" stroke-width="5.0" stroke-linecap="round" stroke-linejoin="round" />
<path d="M 136.0 115.0 L 136.0 115.0 L 136.0 115.0 L 137.0 115.0 L 138.0 115.0 L 143.0 115.0 L 151.0 114.0 L 159.0 114.0 L 165.0 113.0 L 168.0 115.0 L 170.0 121.0 L 171.0 134.0 L 173.0 152.0 L 176.0 168.0 L 178.0 180.0 L 179.0 185.0 L 179.0 188.0 " stroke="black" fill="none" stroke-width="5.0" stroke-linecap="round" stroke-linejoin="round" />
<path d="M 137.0 145.0 L 137.0 145.0 L 137.0 145.0 L 137.0 145.0 L 140.0 145.0 L 149.0 145.0 L 159.0 145.0 L 167.0 145.0 L 169.0 145.0 L 168.0 145.0 " stroke="black" fill="none" stroke-width="5.0" stroke-linecap="round" stroke-linejoin="round" />
<path d="M 141.0 162.0 L 141.0 162.0 L 141.0 163.0 L 143.0 163.0 L 148.0 164.0 L 157.0 164.0 L 165.0 164.0 L 168.0 164.0 " stroke="black" fill="none" stroke-width="5.0" stroke-linecap="round" stroke-linejoin="round" />
<path d="M 111.0 189.0 L 111.0 189.0 L 113.0 189.0 L 118.0 190.0 L 131.0 190.0 L 148.0 190.0 L 180.0 190.0 L 191.0 189.0 L 197.0 188.0 L 197.0 188.0 L 196.0 188.0 " stroke="black" fill="none" stroke-width="5.0" stroke-linecap="round" stroke-linejoin="round" />
</svg>