<svg xmlns="http://www.w3.org/2000/svg" width="300" height="300" viewBox="0 0 300 300">
<path d="M 115.0 131.0 L 115.0 131.0 L 115.0 131.0 L 115.0 131.0 L 115.0 133.0 L 115.0 138.0 L 115.0 147.0 L 116.0 154.0 L 117.0 158.0 " stroke="black" fill="none" stroke-width="5.0" stroke-linecap="round" stroke-linejoin="round" />
<path d="M 115.0 128.0 L 115.0 128.0 L 115.0 128.0 L 117.0 129.0 L 120.0 129.0 L 127.0 129.0 L 132.0 129.0 L 137.0 129.0 L 140.0 133.0 L 142.0 140.0 L 144.0 148.0 L 145.0 156.0 L 146.0 160.0 L 145.0 164.0 L 142.0 165.0 L 139.0 165.0 L 135.0 161.0 " stroke="black" fill="none" stroke-width="5.0" stroke-linecap="round" stroke-linejoin="round" />
<path d="M 125.0 115.0 L 125.0 115.0 L 125.0 115.0 L 125.0 119.0 L 125.0 132.0 L 127.0 152.0 L 127.0 173.0 L 128.0 185.0 L 129.0 189.0 " stroke="black" fill="none" stroke-width="5.0" stroke-linecap="round" stroke-linejoin="round" />
<path d="M 155.0 109.0 L 155.0 109.0 L 156.0 109.0 L 160.0 109.0 L 168.0 109.0 L 176.0 109.0 L 179.0 109.0 " stroke="black" fill="none" stroke-width="5.0" stroke-linecap="round" stroke-linejoin="round" />
<path d="M 158.0 113.0 L 158.0 113.0 L 157.0 114.0 L 156.0 114.0 L 156.0 116.0 L 156.0 121.0 L 157.0 132.0 L 159.0 144.0 L 160.0 152.0 L 161.0 154.0 " stroke="black" fill="none" stroke-width="5.0" stroke-linecap="round" stroke-linejoin="round" />
<path d="M 160.0 126.0 L 160.0 126.0 L 161.0 127.0 L 163.0 127.0 L 169.0 127.0 L 176.0 127.0 L 183.0 126.0 L 186.0 126.0 " stroke="black" fill="none" stroke-width="5.0" stroke-linecap="round" stroke-linejoin="round" />
<path d="M 157.0 140.0 L 157.0 140.0 L 157.0 141.0 L 158.0 142.0 L 164.0 142.0 L 176.0 142.0 L 186.0 140.0 L 191.0 140.0 L 191.0 140.0 " stroke="black" fill="none" stroke-width="5.0" stroke-linecap="round" stroke-linejoin="round" />
<path d="M 152.0 159.0 L 152.0 159.0 L 152.0 159.0 L 152.0 159.0 L 153.0 159.0 L 158.0 159.0 L 169.0 159.0 L 182.0 159.0 L 191.0 159.0 L 195.0 159.0 " stroke="black" fill="none" stroke-width="5.0" stroke-linecap="round" stroke-linejoin="round" />
<path d="M 160.0 163.0 L 161.0 163.0 L 161.0 162.0 L 161.0 162.0 L 161.0 161.0 L 161.0 164.0 L 160.0 172.0 L 159.0 183.0 L 159.0 191.0 L 165.0 192.0 L 174.0 187.0 " stroke="black" fill="none" stroke-width="5.0" stroke-linecap="round" stroke-linejoin="round" />
<path d="M 195.0 167.0 L 195.0 167.0 L 195.0 167.0 L 195.0 167.0 L 194.0 168.0 L 193.0 171.0 L 190.0 174.0 " stroke="black" fill="none" stroke-width="5.0" stroke-linecap="round" stroke-linejoin="round" />
<path d="M 167.0 165.0 L 168.0 165.0 L 169.0 167.0 L 174.0 173.0 L 184.0 185.0 L 195.0 198.0 L 201.0 206.0 L 204.0 209.0 L 204.0 209.0 " stroke="black" fill="none" stroke-width="5.0" stroke-linecap="round" stroke-linejoin="round" />
</svg>