<svg xmlns="http://www.w3.org/2000/svg" width="300" height="300" viewBox="0 0 300 300">
<path d="M 108.0 130.0 L 108.0 131.0 L 108.0 131.0 L 109.0 131.0 L 115.0 131.0 L 125.0 131.0 L 135.0 131.0 L 137.0 131.0 " stroke="black" fill="none" stroke-width="5.0" stroke-linecap="round" stroke-linejoin="round" />
<path d="M 122.0 109.0 L 122.0 109.0 L 122.0 109.0 L 122.0 109.0 L 122.0 113.0 L 122.0 128.0 L 123.0 152.0 L 124.0 177.0 L 124.0 196.0 L 124.0 203.0 L 124.0 205.0 " stroke="black" fill="none" stroke-width="5.0" stroke-linecap="round" stroke-linejoin="round" />
<path d="M 123.0 137.0 L 122.0 137.0 L 121.0 138.0 L 118.0 141.0 L 114.0 148.0 L 108.0 160.0 L 102.0 172.0 L 99.0 178.0 L 99.0 178.0 " stroke="black" fill="none" stroke-width="5.0" stroke-linecap="round" stroke-linejoin="round" />
<path d="M 122.0 143.0 L 122.0 143.0 L 123.0 143.0 L 126.0 146.0 L 133.0 155.0 L 141.0 166.0 L 143.0 170.0 " stroke="black" fill="none" stroke-width="5.0" stroke-linecap="round" stroke-linejoin="round" />
<path d="M 147.0 119.0 L 147.0 119.0 L 147.0 120.0 L 147.0 120.0 L 148.0 121.0 L 154.0 120.0 L 162.0 118.0 L 170.0 117.0 L 173.0 117.0 " stroke="black" fill="none" stroke-width="5.0" stroke-linecap="round" stroke-linejoin="round" />
<path d="M 157.0 121.0 L 157.0 122.0 L 157.0 123.0 L 157.0 127.0 L 157.0 136.0 L 157.0 147.0 L 157.0 153.0 L 157.0 154.0 " stroke="black" fill="none" stroke-width="5.0" stroke-linecap="round" stroke-linejoin="round" />
<path d="M 144.0 137.0 L 144.0 137.0 L 144.0 137.0 L 145.0 137.0 L 150.0 136.0 L 159.0 133.0 L 169.0 132.0 L 175.0 133.0 L 177.0 139.0 L 178.0 146.0 L 178.0 151.0 L 178.0 153.0 " stroke="black" fill="none" stroke-width="5.0" stroke-linecap="round" stroke-linejoin="round" />
<path d="M 139.0 156.0 L 139.0 156.0 L 140.0 156.0 L 142.0 156.0 L 149.0 156.0 L 163.0 156.0 L 181.0 153.0 L 192.0 151.0 " stroke="black" fill="none" stroke-width="5.0" stroke-linecap="round" stroke-linejoin="round" />
<path d="M 151.0 175.0 L 151.0 175.0 L 151.0 176.0 L 151.0 177.0 L 151.0 182.0 L 151.0 191.0 L 151.0 197.0 L 152.0 199.0 " stroke="black" fill="none" stroke-width="5.0" stroke-linecap="round" stroke-linejoin="round" />
<path d="M 152.0 176.0 L 152.0 176.0 L 153.0 176.0 L 155.0 176.0 L 158.0 175.0 L 165.0 174.0 L 173.0 173.0 L 179.0 174.0 L 183.0 178.0 L 184.0 185.0 L 184.0 192.0 L 184.0 197.0 L 184.0 198.0 " stroke="black" fill="none" stroke-width="5.0" stroke-linecap="round" stroke-linejoin="round" />
<path d="M 151.0 195.0 L 151.0 196.0 L 150.0 197.0 L 150.0 198.0 L 155.0 199.0 L 164.0 199.0 L 176.0 198.0 L 181.0 197.0 " stroke="black" fill="none" stroke-width="5.0" stroke-linecap="round" stroke-linejoin="round" />
</svg>