<svg xmlns="http://www.w3.org/2000/svg" width="300" height="300" viewBox="0 0 300 300">
<path d="M 123.0 112.0 L 123.0 112.0 L 123.0 112.0 L 123.0 112.0 L 123.0 112.0 L 122.0 112.0 L 120.0 116.0 L 115.0 126.0 L 107.0 138.0 L 101.0 146.0 L 100.0 148.0 " stroke="black" fill="none" stroke-width="5.0" stroke-linecap="round" stroke-linejoin="round" />
<path d="M 121.0 116.0 L 121.0 116.0 L 121.0 116.0 L 121.0 116.0 L 122.0 117.0 L 127.0 124.0 L 134.0 131.0 L 140.0 137.0 L 143.0 140.0 " stroke="black" fill="none" stroke-width="5.0" stroke-linecap="round" stroke-linejoin="round" />
<path d="M 116.0 147.0 L 116.0 147.0 L 116.0 147.0 L 117.0 147.0 L 117.0 147.0 L 120.0 147.0 L 125.0 147.0 L 130.0 146.0 L 133.0 146.0 " stroke="black" fill="none" stroke-width="5.0" stroke-linecap="round" stroke-linejoin="round" />
<path d="M 111.0 168.0 L 111.0 168.0 L 111.0 168.0 L 112.0 168.0 L 115.0 168.0 L 122.0 167.0 L 128.0 166.0 L 132.0 167.0 " stroke="black" fill="none" stroke-width="5.0" stroke-linecap="round" stroke-linejoin="round" />
<path d="M 102.0 191.0 L 102.0 191.0 L 102.0 191.0 L 102.0 191.0 L 107.0 191.0 L 118.0 192.0 L 132.0 192.0 L 142.0 193.0 L 143.0 193.0 " stroke="black" fill="none" stroke-width="5.0" stroke-linecap="round" stroke-linejoin="round" />
<path d="M 122.0 155.0 L 122.0 154.0 L 122.0 154.0 L 122.0 153.0 L 122.0 153.0 L 122.0 161.0 L 123.0 175.0 L 124.0 189.0 L 124.0 193.0 " stroke="black" fill="none" stroke-width="5.0" stroke-linecap="round" stroke-linejoin="round" />
<path d="M 112.0 175.0 L 112.0 175.0 L 112.0 177.0 L 113.0 179.0 L 115.0 181.0 L 118.0 184.0 " stroke="black" fill="none" stroke-width="5.0" stroke-linecap="round" stroke-linejoin="round" />
<path d="M 142.0 177.0 L 142.0 177.0 L 142.0 177.0 L 142.0 177.0 L 140.0 180.0 L 136.0 187.0 L 135.0 189.0 " stroke="black" fill="none" stroke-width="5.0" stroke-linecap="round" stroke-linejoin="round" />
<path d="M 160.0 133.0 L 160.0 133.0 L 160.0 133.0 L 160.0 133.0 L 160.0 133.0 L 163.0 133.0 L 168.0 133.0 L 174.0 133.0 L 177.0 133.0 L 179.0 133.0 L 180.0 135.0 L 180.0 141.0 L 178.0 152.0 L 171.0 168.0 L 164.0 182.0 L 156.0 192.0 L 152.0 195.0 " stroke="black" fill="none" stroke-width="5.0" stroke-linecap="round" stroke-linejoin="round" />
<path d="M 153.0 151.0 L 153.0 151.0 L 153.0 150.0 L 153.0 150.0 L 154.0 152.0 L 160.0 163.0 L 171.0 178.0 L 182.0 190.0 L 190.0 196.0 L 193.0 198.0 L 194.0 199.0 " stroke="black" fill="none" stroke-width="5.0" stroke-linecap="round" stroke-linejoin="round" />
<path d="M 165.0 146.0 L 165.0 147.0 L 165.0 147.0 L 166.0 149.0 L 169.0 153.0 " stroke="black" fill="none" stroke-width="5.0" stroke-linecap="round" stroke-linejoin="round" />
</svg>