<svg xmlns="http://www.w3.org/2000/svg" width="300" height="300" viewBox="0 0 300 300">
<path d="M 116.0 109.0 L 116.0 109.0 L 116.0 109.0 L 116.0 109.0 L 119.0 109.0 L 127.0 109.0 L 136.0 107.0 L 142.0 107.0 " stroke="black" fill="none" stroke-width="5.0" stroke-linecap="round" stroke-linejoin="round" />
<path d="M 136.0 109.0 L 136.0 110.0 L 136.0 112.0 L 136.0 117.0 L 136.0 128.0 L 138.0 147.0 L 139.0 168.0 L 139.0 183.0 L 139.0 189.0 L 139.0 190.0 L 140.0 187.0 " stroke="black" fill="none" stroke-width="5.0" stroke-linecap="round" stroke-linejoin="round" />
<path d="M 120.0 114.0 L 120.0 114.0 L 120.0 114.0 L 120.0 114.0 L 120.0 116.0 L 120.0 125.0 L 120.0 139.0 L 120.0 149.0 L 119.0 154.0 L 119.0 154.0 " stroke="black" fill="none" stroke-width="5.0" stroke-linecap="round" stroke-linejoin="round" />
<path d="M 122.0 127.0 L 122.0 128.0 L 123.0 128.0 L 124.0 129.0 L 126.0 129.0 L 130.0 129.0 L 134.0 129.0 L 136.0 128.0 " stroke="black" fill="none" stroke-width="5.0" stroke-linecap="round" stroke-linejoin="round" />
<path d="M 123.0 138.0 L 123.0 138.0 L 124.0 139.0 L 127.0 139.0 L 130.0 140.0 L 134.0 140.0 " stroke="black" fill="none" stroke-width="5.0" stroke-linecap="round" stroke-linejoin="round" />
<path d="M 104.0 158.0 L 104.0 158.0 L 105.0 158.0 L 110.0 158.0 L 120.0 158.0 L 132.0 157.0 L 137.0 156.0 " stroke="black" fill="none" stroke-width="5.0" stroke-linecap="round" stroke-linejoin="round" />
<path d="M 154.0 131.0 L 154.0 133.0 L 154.0 137.0 L 155.0 140.0 L 158.0 141.0 " stroke="black" fill="none" stroke-width="5.0" stroke-linecap="round" stroke-linejoin="round" />
<path d="M 181.0 115.0 L 181.0 116.0 L 181.0 121.0 L 180.0 129.0 L 178.0 138.0 L 176.0 145.0 L 175.0 147.0 " stroke="black" fill="none" stroke-width="5.0" stroke-linecap="round" stroke-linejoin="round" />
<path d="M 165.0 106.0 L 165.0 106.0 L 165.0 107.0 L 165.0 109.0 L 165.0 117.0 L 165.0 132.0 L 164.0 152.0 L 159.0 172.0 L 153.0 188.0 L 151.0 193.0 " stroke="black" fill="none" stroke-width="5.0" stroke-linecap="round" stroke-linejoin="round" />
<path d="M 164.0 162.0 L 165.0 164.0 L 168.0 167.0 L 174.0 173.0 L 182.0 183.0 L 190.0 190.0 L 194.0 193.0 " stroke="black" fill="none" stroke-width="5.0" stroke-linecap="round" stroke-linejoin="round" />
</svg>