<svg xmlns="http://www.w3.org/2000/svg" width="300" height="300" viewBox="0 0 300 300">
<path d="M 128.0 114.0 L 128.0 114.0 L 128.0 115.0 L 129.0 116.0 L 129.0 118.0 L 129.0 121.0 L 126.0 127.0 L 119.0 137.0 L 109.0 147.0 L 106.0 150.0 " stroke="black" fill="none" stroke-width="5.0" stroke-linecap="round" stroke-linejoin="round" />
<path d="M 114.0 122.0 L 114.0 122.0 L 114.0 122.0 L 115.0 122.0 L 116.0 122.0 L 118.0 128.0 L 123.0 140.0 L 128.0 158.0 L 132.0 174.0 L 133.0 185.0 L 133.0 189.0 L 130.0 191.0 L 124.0 192.0 L 116.0 188.0 L 111.0 184.0 " stroke="black" fill="none" stroke-width="5.0" stroke-linecap="round" stroke-linejoin="round" />
<path d="M 126.0 153.0 L 126.0 153.0 L 126.0 153.0 L 127.0 154.0 L 127.0 154.0 L 127.0 155.0 L 125.0 158.0 L 118.0 166.0 L 108.0 176.0 L 100.0 183.0 " stroke="black" fill="none" stroke-width="5.0" stroke-linecap="round" stroke-linejoin="round" />
<path d="M 148.0 114.0 L 148.0 114.0 L 148.0 114.0 L 148.0 114.0 L 150.0 114.0 L 153.0 114.0 L 159.0 114.0 L 163.0 114.0 L 165.0 114.0 " stroke="black" fill="none" stroke-width="5.0" stroke-linecap="round" stroke-linejoin="round" />
<path d="M 138.0 129.0 L 138.0 129.0 L 138.0 129.0 L 138.0 129.0 L 141.0 129.0 L 148.0 129.0 L 158.0 129.0 L 169.0 129.0 L 177.0 130.0 L 179.0 130.0 " stroke="black" fill="none" stroke-width="5.0" stroke-linecap="round" stroke-linejoin="round" />
<path d="M 156.0 107.0 L 156.0 108.0 L 156.0 109.0 L 156.0 111.0 L 157.0 116.0 L 158.0 123.0 " stroke="black" fill="none" stroke-width="5.0" stroke-linecap="round" stroke-linejoin="round" />
<path d="M 146.0 140.0 L 146.0 140.0 L 146.0 140.0 L 146.0 140.0 L 146.0 141.0 L 146.0 144.0 L 147.0 147.0 L 148.0 149.0 " stroke="black" fill="none" stroke-width="5.0" stroke-linecap="round" stroke-linejoin="round" />
<path d="M 147.0 140.0 L 148.0 140.0 L 148.0 140.0 L 151.0 140.0 L 157.0 140.0 L 164.0 140.0 L 171.0 140.0 L 174.0 141.0 L 176.0 145.0 L 176.0 149.0 L 176.0 151.0 L 176.0 152.0 " stroke="black" fill="none" stroke-width="5.0" stroke-linecap="round" stroke-linejoin="round" />
<path d="M 148.0 153.0 L 148.0 153.0 L 148.0 153.0 L 148.0 154.0 L 152.0 155.0 L 160.0 155.0 L 169.0 155.0 L 173.0 155.0 " stroke="black" fill="none" stroke-width="5.0" stroke-linecap="round" stroke-linejoin="round" />
<path d="M 154.0 158.0 L 154.0 158.0 L 154.0 158.0 L 154.0 159.0 L 154.0 160.0 L 152.0 162.0 L 148.0 167.0 L 141.0 174.0 L 135.0 182.0 L 134.0 185.0 " stroke="black" fill="none" stroke-width="5.0" stroke-linecap="round" stroke-linejoin="round" />
<path d="M 150.0 169.0 L 150.0 169.0 L 150.0 169.0 L 150.0 169.0 L 150.0 169.0 L 149.0 175.0 L 147.0 185.0 L 147.0 194.0 L 150.0 198.0 L 157.0 194.0 " stroke="black" fill="none" stroke-width="5.0" stroke-linecap="round" stroke-linejoin="round" />
<path d="M 186.0 166.0 L 186.0 166.0 L 185.0 166.0 L 185.0 167.0 L 184.0 168.0 L 182.0 171.0 L 178.0 174.0 " stroke="black" fill="none" stroke-width="5.0" stroke-linecap="round" stroke-linejoin="round" />
<path d="M 159.0 162.0 L 159.0 162.0 L 161.0 163.0 L 165.0 169.0 L 176.0 183.0 L 187.0 197.0 L 195.0 204.0 L 198.0 207.0 L 198.0 207.0 L 198.0 206.0 " stroke="black" fill="none" stroke-width="5.0" stroke-linecap="round" stroke-linejoin="round" />
</svg>