<svg xmlns="http://www.w3.org/2000/svg" width="300" height="300" viewBox="0 0 300 300">
<path d="M 117.0 121.0 L 120.0 123.0 L 123.0 125.0 L 129.0 128.0 L 135.0 130.0 L 136.0 130.0 " stroke="black" fill="none" stroke-width="5.0" stroke-linecap="round" stroke-linejoin="round" />
<path d="M 110.0 147.0 L 111.0 147.0 L 113.0 147.0 L 120.0 147.0 L 126.0 148.0 L 132.0 149.0 L 135.0 149.0 " stroke="black" fill="none" stroke-width="5.0" stroke-linecap="round" stroke-linejoin="round" />
<path d="M 102.0 184.0 L 102.0 184.0 L 103.0 183.0 L 104.0 182.0 L 106.0 182.0 L 120.0 176.0 L 128.0 172.0 " stroke="black" fill="none" stroke-width="5.0" stroke-linecap="round" stroke-linejoin="round" />
<path d="M 148.0 131.0 L 148.0 131.0 L 149.0 131.0 L 152.0 131.0 L 154.0 130.0 L 160.0 130.0 L 165.0 129.0 L 171.0 129.0 L 173.0 131.0 L 173.0 136.0 L 172.0 140.0 L 171.0 142.0 " stroke="black" fill="none" stroke-width="5.0" stroke-linecap="round" stroke-linejoin="round" />
<path d="M 141.0 132.0 L 141.0 132.0 L 141.0 132.0 L 141.0 132.0 L 140.0 138.0 L 139.0 148.0 L 138.0 161.0 L 135.0 181.0 L 135.0 187.0 L 136.0 188.0 " stroke="black" fill="none" stroke-width="5.0" stroke-linecap="round" stroke-linejoin="round" />
<path d="M 155.0 117.0 L 155.0 117.0 L 155.0 117.0 L 155.0 118.0 L 155.0 127.0 L 155.0 136.0 L 156.0 147.0 L 156.0 151.0 " stroke="black" fill="none" stroke-width="5.0" stroke-linecap="round" stroke-linejoin="round" />
<path d="M 148.0 160.0 L 148.0 160.0 L 148.0 160.0 L 148.0 160.0 L 150.0 160.0 L 156.0 160.0 L 162.0 159.0 L 169.0 157.0 L 174.0 157.0 L 175.0 162.0 L 174.0 167.0 L 172.0 172.0 L 169.0 178.0 L 162.0 188.0 L 157.0 194.0 L 154.0 196.0 " stroke="black" fill="none" stroke-width="5.0" stroke-linecap="round" stroke-linejoin="round" />
<path d="M 150.0 163.0 L 150.0 163.0 L 150.0 163.0 L 150.0 163.0 L 150.0 163.0 L 151.0 166.0 L 159.0 175.0 L 168.0 184.0 L 177.0 193.0 L 188.0 201.0 L 189.0 201.0 " stroke="black" fill="none" stroke-width="5.0" stroke-linecap="round" stroke-linejoin="round" />
</svg>