<svg xmlns="http://www.w3.org/2000/svg" width="300" height="300" viewBox="0 0 300 300">
<path d="M 114.0 118.0 L 114.0 118.0 L 115.0 118.0 L 117.0 119.0 L 119.0 120.0 L 125.0 125.0 " stroke="black" fill="none" stroke-width="5.0" stroke-linecap="round" stroke-linejoin="round" />
<path d="M 107.0 141.0 L 108.0 141.0 L 108.0 141.0 L 108.0 141.0 L 115.0 144.0 L 119.0 146.0 " stroke="black" fill="none" stroke-width="5.0" stroke-linecap="round" stroke-linejoin="round" />
<path d="M 91.0 192.0 L 92.0 192.0 L 93.0 192.0 L 96.0 192.0 L 102.0 190.0 L 116.0 181.0 L 122.0 177.0 " stroke="black" fill="none" stroke-width="5.0" stroke-linecap="round" stroke-linejoin="round" />
<path d="M 145.0 125.0 L 145.0 125.0 L 144.0 125.0 L 144.0 125.0 L 144.0 125.0 L 148.0 125.0 L 153.0 124.0 L 160.0 124.0 L 165.0 124.0 L 170.0 124.0 L 172.0 125.0 L 173.0 129.0 L 172.0 135.0 L 170.0 138.0 " stroke="black" fill="none" stroke-width="5.0" stroke-linecap="round" stroke-linejoin="round" />
<path d="M 143.0 129.0 L 143.0 129.0 L 142.0 130.0 L 142.0 132.0 L 141.0 137.0 L 139.0 147.0 L 135.0 167.0 L 132.0 180.0 L 131.0 184.0 L 131.0 186.0 " stroke="black" fill="none" stroke-width="5.0" stroke-linecap="round" stroke-linejoin="round" />
<path d="M 152.0 109.0 L 152.0 109.0 L 152.0 109.0 L 152.0 109.0 L 153.0 115.0 L 154.0 128.0 L 154.0 143.0 L 155.0 150.0 " stroke="black" fill="none" stroke-width="5.0" stroke-linecap="round" stroke-linejoin="round" />
<path d="M 145.0 158.0 L 145.0 158.0 L 145.0 158.0 L 145.0 159.0 L 146.0 159.0 L 151.0 158.0 L 160.0 157.0 L 163.0 157.0 L 168.0 157.0 L 168.0 158.0 L 168.0 162.0 L 165.0 169.0 L 160.0 178.0 L 156.0 184.0 L 150.0 193.0 L 146.0 196.0 L 146.0 196.0 " stroke="black" fill="none" stroke-width="5.0" stroke-linecap="round" stroke-linejoin="round" />
<path d="M 145.0 161.0 L 145.0 161.0 L 145.0 161.0 L 145.0 162.0 L 150.0 169.0 L 157.0 179.0 L 170.0 195.0 L 177.0 203.0 L 180.0 206.0 L 180.0 206.0 L 180.0 206.0 L 180.0 205.0 " stroke="black" fill="none" stroke-width="5.0" stroke-linecap="round" stroke-linejoin="round" />
</svg>