<svg xmlns="http://www.w3.org/2000/svg" width="300" height="300" viewBox="0 0 300 300">
<path d="M 135.0 105.0 L 135.0 105.0 L 135.0 105.0 L 135.0 105.0 L 135.0 106.0 L 133.0 111.0 L 129.0 123.0 L 121.0 138.0 L 112.0 149.0 L 109.0 152.0 " stroke="black" fill="none" stroke-width="5.0" stroke-linecap="round" stroke-linejoin="round" />
<path d="M 124.0 131.0 L 124.0 131.0 L 124.0 132.0 L 124.0 133.0 L 124.0 136.0 L 124.0 143.0 L 124.0 154.0 L 123.0 166.0 L 122.0 176.0 " stroke="black" fill="none" stroke-width="5.0" stroke-linecap="round" stroke-linejoin="round" />
<path d="M 150.0 118.0 L 150.0 118.0 L 150.0 118.0 L 150.0 118.0 L 150.0 119.0 L 149.0 120.0 L 148.0 123.0 L 145.0 127.0 L 143.0 130.0 L 142.0 132.0 L 141.0 134.0 L 140.0 137.0 L 140.0 143.0 L 140.0 152.0 L 140.0 162.0 L 140.0 170.0 L 140.0 176.0 L 141.0 177.0 L 143.0 177.0 L 147.0 177.0 L 150.0 175.0 L 154.0 171.0 " stroke="black" fill="none" stroke-width="5.0" stroke-linecap="round" stroke-linejoin="round" />
<path d="M 164.0 117.0 L 164.0 117.0 L 164.0 117.0 L 164.0 117.0 L 167.0 117.0 L 172.0 117.0 L 176.0 117.0 L 180.0 117.0 L 182.0 117.0 L 184.0 120.0 L 185.0 126.0 L 186.0 135.0 L 187.0 144.0 L 188.0 150.0 L 188.0 153.0 L 188.0 153.0 L 186.0 152.0 L 181.0 149.0 L 179.0 147.0 " stroke="black" fill="none" stroke-width="5.0" stroke-linecap="round" stroke-linejoin="round" />
<path d="M 166.0 116.0 L 166.0 116.0 L 166.0 117.0 L 166.0 124.0 L 167.0 140.0 L 169.0 160.0 L 170.0 179.0 L 171.0 189.0 L 172.0 193.0 L 172.0 194.0 L 172.0 193.0 " stroke="black" fill="none" stroke-width="5.0" stroke-linecap="round" stroke-linejoin="round" />
</svg>