<svg xmlns="http://www.w3.org/2000/svg" width="300" height="300" viewBox="0 0 300 300">
<path d="M 127.0 119.0 L 128.0 119.0 L 128.0 119.0 L 133.0 119.0 L 143.0 118.0 L 156.0 117.0 L 166.0 116.0 L 172.0 115.0 L 174.0 115.0 L 174.0 115.0 " stroke="black" fill="none" stroke-width="5.0" stroke-linecap="round" stroke-linejoin="round" />
<path d="M 156.0 107.0 L 156.0 107.0 L 156.0 108.0 L 155.0 111.0 L 153.0 118.0 L 150.0 127.0 L 148.0 132.0 " stroke="black" fill="none" stroke-width="5.0" stroke-linecap="round" stroke-linejoin="round" />
<path d="M 122.0 143.0 L 122.0 143.0 L 122.0 145.0 L 122.0 149.0 L 122.0 159.0 L 123.0 171.0 L 124.0 180.0 L 125.0 185.0 L 125.0 185.0 " stroke="black" fill="none" stroke-width="5.0" stroke-linecap="round" stroke-linejoin="round" />
<path d="M 123.0 140.0 L 123.0 140.0 L 124.0 140.0 L 127.0 139.0 L 132.0 138.0 L 141.0 136.0 L 152.0 135.0 L 162.0 134.0 L 170.0 134.0 L 176.0 134.0 L 179.0 134.0 L 181.0 136.0 L 182.0 138.0 L 185.0 144.0 L 188.0 154.0 L 191.0 168.0 L 192.0 180.0 L 193.0 187.0 L 193.0 190.0 L 192.0 191.0 L 188.0 191.0 L 180.0 189.0 L 174.0 187.0 " stroke="black" fill="none" stroke-width="5.0" stroke-linecap="round" stroke-linejoin="round" />
<path d="M 144.0 139.0 L 144.0 139.0 L 144.0 139.0 L 144.0 141.0 L 145.0 144.0 L 146.0 147.0 " stroke="black" fill="none" stroke-width="5.0" stroke-linecap="round" stroke-linejoin="round" />
<path d="M 159.0 138.0 L 160.0 139.0 L 160.0 141.0 L 160.0 144.0 L 160.0 149.0 L 159.0 153.0 " stroke="black" fill="none" stroke-width="5.0" stroke-linecap="round" stroke-linejoin="round" />
<path d="M 136.0 158.0 L 136.0 158.0 L 136.0 158.0 L 138.0 158.0 L 144.0 158.0 L 154.0 157.0 L 163.0 155.0 L 168.0 155.0 L 170.0 155.0 L 170.0 155.0 " stroke="black" fill="none" stroke-width="5.0" stroke-linecap="round" stroke-linejoin="round" />
<path d="M 139.0 170.0 L 139.0 171.0 L 139.0 172.0 L 141.0 172.0 L 148.0 172.0 L 158.0 170.0 L 166.0 169.0 L 172.0 169.0 L 173.0 170.0 " stroke="black" fill="none" stroke-width="5.0" stroke-linecap="round" stroke-linejoin="round" />
<path d="M 155.0 158.0 L 155.0 158.0 L 155.0 159.0 L 155.0 162.0 L 155.0 168.0 L 156.0 179.0 L 157.0 189.0 L 158.0 193.0 L 158.0 193.0 " stroke="black" fill="none" stroke-width="5.0" stroke-linecap="round" stroke-linejoin="round" />
</svg>