<svg xmlns="http://www.w3.org/2000/svg" width="300" height="300" viewBox="0 0 300 300">
<path d="M 122.0 121.0 L 122.0 121.0 L 122.0 121.0 L 123.0 122.0 L 125.0 122.0 L 132.0 122.0 L 143.0 122.0 L 153.0 121.0 L 163.0 120.0 L 169.0 119.0 L 169.0 119.0 " stroke="black" fill="none" stroke-width="5.0" stroke-linecap="round" stroke-linejoin="round" />
<path d="M 154.0 104.0 L 154.0 104.0 L 153.0 105.0 L 152.0 108.0 L 150.0 117.0 L 146.0 130.0 L 142.0 139.0 " stroke="black" fill="none" stroke-width="5.0" stroke-linecap="round" stroke-linejoin="round" />
<path d="M 119.0 147.0 L 120.0 147.0 L 120.0 147.0 L 119.0 152.0 L 119.0 163.0 L 119.0 179.0 L 119.0 190.0 L 120.0 195.0 L 120.0 196.0 " stroke="black" fill="none" stroke-width="5.0" stroke-linecap="round" stroke-linejoin="round" />
<path d="M 118.0 147.0 L 118.0 147.0 L 118.0 147.0 L 118.0 147.0 L 122.0 146.0 L 130.0 146.0 L 144.0 145.0 L 157.0 144.0 L 166.0 143.0 L 172.0 143.0 L 177.0 144.0 L 180.0 149.0 L 183.0 157.0 L 187.0 168.0 L 188.0 180.0 L 189.0 189.0 L 189.0 196.0 L 189.0 198.0 L 187.0 199.0 L 183.0 199.0 L 174.0 195.0 L 170.0 193.0 " stroke="black" fill="none" stroke-width="5.0" stroke-linecap="round" stroke-linejoin="round" />
<path d="M 142.0 147.0 L 142.0 148.0 L 142.0 151.0 L 142.0 157.0 L 144.0 163.0 " stroke="black" fill="none" stroke-width="5.0" stroke-linecap="round" stroke-linejoin="round" />
<path d="M 159.0 148.0 L 158.0 150.0 L 157.0 152.0 L 156.0 155.0 L 155.0 160.0 " stroke="black" fill="none" stroke-width="5.0" stroke-linecap="round" stroke-linejoin="round" />
<path d="M 133.0 167.0 L 135.0 167.0 L 140.0 167.0 L 148.0 167.0 L 157.0 165.0 L 164.0 164.0 L 166.0 164.0 " stroke="black" fill="none" stroke-width="5.0" stroke-linecap="round" stroke-linejoin="round" />
<path d="M 134.0 184.0 L 135.0 184.0 L 137.0 184.0 L 143.0 184.0 L 154.0 182.0 L 164.0 180.0 L 165.0 180.0 " stroke="black" fill="none" stroke-width="5.0" stroke-linecap="round" stroke-linejoin="round" />
<path d="M 150.0 167.0 L 150.0 167.0 L 150.0 167.0 L 150.0 167.0 L 150.0 174.0 L 152.0 189.0 L 153.0 207.0 L 153.0 218.0 " stroke="black" fill="none" stroke-width="5.0" stroke-linecap="round" stroke-linejoin="round" />
</svg>