<svg xmlns="http://www.w3.org/2000/svg" width="300" height="300" viewBox="0 0 300 300">
<path d="M 125.0 118.0 L 125.0 118.0 L 124.0 118.0 L 123.0 118.0 L 125.0 117.0 L 135.0 117.0 L 150.0 116.0 L 167.0 116.0 L 181.0 116.0 L 185.0 117.0 " stroke="black" fill="none" stroke-width="5.0" stroke-linecap="round" stroke-linejoin="round" />
<path d="M 156.0 104.0 L 156.0 104.0 L 156.0 103.0 L 156.0 103.0 L 156.0 104.0 L 156.0 110.0 L 152.0 122.0 L 148.0 132.0 " stroke="black" fill="none" stroke-width="5.0" stroke-linecap="round" stroke-linejoin="round" />
<path d="M 112.0 143.0 L 113.0 143.0 L 113.0 143.0 L 113.0 143.0 L 113.0 148.0 L 114.0 161.0 L 114.0 178.0 L 114.0 188.0 L 116.0 189.0 " stroke="black" fill="none" stroke-width="5.0" stroke-linecap="round" stroke-linejoin="round" />
<path d="M 116.0 139.0 L 116.0 139.0 L 116.0 139.0 L 117.0 139.0 L 122.0 139.0 L 132.0 138.0 L 145.0 138.0 L 156.0 138.0 L 165.0 139.0 L 172.0 139.0 L 177.0 139.0 L 181.0 140.0 L 183.0 142.0 L 184.0 146.0 L 187.0 153.0 L 190.0 162.0 L 192.0 172.0 L 194.0 183.0 L 195.0 194.0 L 196.0 203.0 L 196.0 208.0 L 194.0 210.0 L 189.0 210.0 L 180.0 207.0 L 176.0 205.0 " stroke="black" fill="none" stroke-width="5.0" stroke-linecap="round" stroke-linejoin="round" />
<path d="M 136.0 145.0 L 136.0 145.0 L 136.0 145.0 L 137.0 145.0 L 138.0 149.0 L 140.0 155.0 L 142.0 158.0 " stroke="black" fill="none" stroke-width="5.0" stroke-linecap="round" stroke-linejoin="round" />
<path d="M 157.0 146.0 L 157.0 146.0 L 156.0 147.0 L 156.0 149.0 L 155.0 153.0 L 155.0 154.0 " stroke="black" fill="none" stroke-width="5.0" stroke-linecap="round" stroke-linejoin="round" />
<path d="M 132.0 160.0 L 132.0 160.0 L 133.0 160.0 L 133.0 160.0 L 136.0 160.0 L 143.0 160.0 L 153.0 160.0 L 163.0 160.0 L 167.0 160.0 " stroke="black" fill="none" stroke-width="5.0" stroke-linecap="round" stroke-linejoin="round" />
<path d="M 132.0 175.0 L 133.0 175.0 L 134.0 176.0 L 136.0 176.0 L 142.0 177.0 L 151.0 177.0 L 161.0 177.0 L 169.0 178.0 L 171.0 178.0 " stroke="black" fill="none" stroke-width="5.0" stroke-linecap="round" stroke-linejoin="round" />
<path d="M 151.0 158.0 L 151.0 158.0 L 151.0 159.0 L 150.0 164.0 L 152.0 177.0 L 153.0 191.0 L 154.0 201.0 " stroke="black" fill="none" stroke-width="5.0" stroke-linecap="round" stroke-linejoin="round" />
</svg>