<svg xmlns="http://www.w3.org/2000/svg" width="300" height="300" viewBox="0 0 300 300">
<path d="M 127.0 118.0 L 127.0 118.0 L 128.0 118.0 L 130.0 118.0 L 135.0 118.0 L 144.0 118.0 L 154.0 117.0 L 163.0 116.0 L 165.0 116.0 " stroke="black" fill="none" stroke-width="5.0" stroke-linecap="round" stroke-linejoin="round" />
<path d="M 151.0 104.0 L 151.0 104.0 L 150.0 105.0 L 150.0 107.0 L 148.0 111.0 L 146.0 118.0 L 143.0 124.0 " stroke="black" fill="none" stroke-width="5.0" stroke-linecap="round" stroke-linejoin="round" />
<path d="M 114.0 135.0 L 114.0 135.0 L 114.0 135.0 L 114.0 137.0 L 114.0 142.0 L 114.0 151.0 L 114.0 162.0 L 113.0 170.0 L 113.0 171.0 L 113.0 171.0 " stroke="black" fill="none" stroke-width="5.0" stroke-linecap="round" stroke-linejoin="round" />
<path d="M 118.0 133.0 L 119.0 133.0 L 119.0 133.0 L 122.0 133.0 L 129.0 133.0 L 141.0 131.0 L 153.0 129.0 L 163.0 129.0 L 169.0 129.0 L 173.0 130.0 L 176.0 133.0 L 179.0 139.0 L 181.0 147.0 L 183.0 159.0 L 185.0 170.0 L 186.0 178.0 L 186.0 183.0 L 186.0 184.0 L 183.0 185.0 L 177.0 185.0 L 172.0 184.0 " stroke="black" fill="none" stroke-width="5.0" stroke-linecap="round" stroke-linejoin="round" />
<path d="M 132.0 132.0 L 133.0 132.0 L 133.0 132.0 L 134.0 134.0 L 135.0 139.0 L 136.0 144.0 L 137.0 146.0 " stroke="black" fill="none" stroke-width="5.0" stroke-linecap="round" stroke-linejoin="round" />
<path d="M 150.0 131.0 L 150.0 131.0 L 150.0 131.0 L 150.0 132.0 L 150.0 136.0 L 150.0 142.0 " stroke="black" fill="none" stroke-width="5.0" stroke-linecap="round" stroke-linejoin="round" />
<path d="M 130.0 151.0 L 130.0 151.0 L 131.0 151.0 L 134.0 151.0 L 140.0 151.0 L 149.0 150.0 L 157.0 150.0 L 160.0 150.0 L 160.0 151.0 " stroke="black" fill="none" stroke-width="5.0" stroke-linecap="round" stroke-linejoin="round" />
<path d="M 129.0 166.0 L 130.0 166.0 L 131.0 166.0 L 135.0 167.0 L 141.0 167.0 L 150.0 167.0 L 158.0 166.0 L 163.0 166.0 L 164.0 166.0 " stroke="black" fill="none" stroke-width="5.0" stroke-linecap="round" stroke-linejoin="round" />
<path d="M 146.0 149.0 L 146.0 149.0 L 145.0 151.0 L 145.0 156.0 L 147.0 167.0 L 148.0 178.0 L 149.0 186.0 L 150.0 188.0 L 150.0 189.0 " stroke="black" fill="none" stroke-width="5.0" stroke-linecap="round" stroke-linejoin="round" />
</svg>