<svg xmlns="http://www.w3.org/2000/svg" width="300" height="300" viewBox="0 0 300 300">
<path d="M 119.0 117.0 L 119.0 117.0 L 119.0 118.0 L 119.0 118.0 L 119.0 120.0 L 119.0 127.0 L 117.0 141.0 L 114.0 155.0 L 110.0 166.0 L 108.0 171.0 L 108.0 172.0 L 110.0 172.0 L 115.0 173.0 L 122.0 176.0 L 128.0 179.0 L 133.0 180.0 L 134.0 181.0 " stroke="black" fill="none" stroke-width="5.0" stroke-linecap="round" stroke-linejoin="round" />
<path d="M 129.0 139.0 L 129.0 137.0 L 129.0 136.0 L 129.0 136.0 L 129.0 138.0 L 129.0 147.0 L 127.0 160.0 L 123.0 175.0 L 120.0 183.0 L 119.0 184.0 " stroke="black" fill="none" stroke-width="5.0" stroke-linecap="round" stroke-linejoin="round" />
<path d="M 104.0 154.0 L 104.0 154.0 L 106.0 155.0 L 110.0 155.0 L 117.0 155.0 L 128.0 155.0 L 138.0 155.0 L 141.0 155.0 " stroke="black" fill="none" stroke-width="5.0" stroke-linecap="round" stroke-linejoin="round" />
<path d="M 150.0 142.0 L 150.0 142.0 L 150.0 142.0 L 150.0 142.0 L 150.0 146.0 L 150.0 153.0 L 150.0 159.0 L 150.0 162.0 " stroke="black" fill="none" stroke-width="5.0" stroke-linecap="round" stroke-linejoin="round" />
<path d="M 151.0 141.0 L 151.0 141.0 L 151.0 141.0 L 153.0 141.0 L 156.0 141.0 L 161.0 141.0 L 166.0 141.0 L 170.0 143.0 L 172.0 147.0 L 174.0 153.0 L 175.0 158.0 L 176.0 161.0 L 176.0 162.0 " stroke="black" fill="none" stroke-width="5.0" stroke-linecap="round" stroke-linejoin="round" />
<path d="M 149.0 164.0 L 149.0 164.0 L 149.0 165.0 L 149.0 167.0 L 153.0 167.0 L 160.0 167.0 L 169.0 167.0 L 173.0 167.0 " stroke="black" fill="none" stroke-width="5.0" stroke-linecap="round" stroke-linejoin="round" />
</svg>