<svg xmlns="http://www.w3.org/2000/svg" width="300" height="300" viewBox="0 0 300 300">
<path d="M 122.0 117.0 L 122.0 117.0 L 122.0 117.0 L 122.0 117.0 L 122.0 117.0 L 121.0 118.0 L 120.0 126.0 L 118.0 142.0 L 114.0 160.0 L 110.0 173.0 L 109.0 179.0 L 109.0 181.0 L 111.0 183.0 L 115.0 185.0 L 121.0 187.0 L 130.0 189.0 L 136.0 190.0 L 137.0 190.0 " stroke="black" fill="none" stroke-width="5.0" stroke-linecap="round" stroke-linejoin="round" />
<path d="M 133.0 137.0 L 133.0 137.0 L 133.0 138.0 L 133.0 139.0 L 132.0 141.0 L 132.0 148.0 L 129.0 163.0 L 124.0 183.0 L 118.0 199.0 L 115.0 203.0 " stroke="black" fill="none" stroke-width="5.0" stroke-linecap="round" stroke-linejoin="round" />
<path d="M 101.0 160.0 L 102.0 160.0 L 104.0 160.0 L 109.0 161.0 L 117.0 161.0 L 131.0 159.0 L 137.0 158.0 " stroke="black" fill="none" stroke-width="5.0" stroke-linecap="round" stroke-linejoin="round" />
<path d="M 154.0 143.0 L 154.0 143.0 L 154.0 143.0 L 154.0 143.0 L 155.0 143.0 L 155.0 146.0 L 155.0 153.0 L 155.0 163.0 L 155.0 168.0 " stroke="black" fill="none" stroke-width="5.0" stroke-linecap="round" stroke-linejoin="round" />
<path d="M 156.0 141.0 L 157.0 141.0 L 158.0 140.0 L 160.0 140.0 L 163.0 140.0 L 168.0 140.0 L 174.0 140.0 L 179.0 140.0 L 182.0 143.0 L 184.0 149.0 L 184.0 157.0 L 184.0 163.0 L 184.0 167.0 L 184.0 168.0 " stroke="black" fill="none" stroke-width="5.0" stroke-linecap="round" stroke-linejoin="round" />
<path d="M 152.0 169.0 L 152.0 171.0 L 153.0 172.0 L 158.0 173.0 L 169.0 173.0 L 182.0 172.0 L 185.0 171.0 " stroke="black" fill="none" stroke-width="5.0" stroke-linecap="round" stroke-linejoin="round" />
</svg>