<svg xmlns="http://www.w3.org/2000/svg" width="300" height="300" viewBox="0 0 300 300">
<path d="M 128.0 113.0 L 128.0 113.0 L 128.0 114.0 L 127.0 116.0 L 127.0 122.0 L 125.0 134.0 L 120.0 149.0 L 115.0 162.0 L 113.0 167.0 L 113.0 168.0 L 115.0 170.0 L 121.0 174.0 L 126.0 177.0 L 132.0 179.0 L 137.0 180.0 L 141.0 180.0 " stroke="black" fill="none" stroke-width="5.0" stroke-linecap="round" stroke-linejoin="round" />
<path d="M 139.0 132.0 L 139.0 132.0 L 139.0 132.0 L 139.0 132.0 L 138.0 137.0 L 136.0 146.0 L 132.0 161.0 L 126.0 176.0 L 121.0 183.0 L 120.0 184.0 " stroke="black" fill="none" stroke-width="5.0" stroke-linecap="round" stroke-linejoin="round" />
<path d="M 110.0 151.0 L 110.0 151.0 L 110.0 151.0 L 111.0 150.0 L 115.0 150.0 L 128.0 150.0 L 142.0 150.0 L 149.0 149.0 " stroke="black" fill="none" stroke-width="5.0" stroke-linecap="round" stroke-linejoin="round" />
<path d="M 157.0 142.0 L 157.0 142.0 L 157.0 143.0 L 157.0 145.0 L 157.0 149.0 L 157.0 155.0 L 157.0 160.0 L 158.0 162.0 " stroke="black" fill="none" stroke-width="5.0" stroke-linecap="round" stroke-linejoin="round" />
<path d="M 158.0 142.0 L 158.0 142.0 L 158.0 142.0 L 160.0 142.0 L 164.0 141.0 L 170.0 140.0 L 175.0 140.0 L 180.0 142.0 L 182.0 147.0 L 184.0 153.0 L 184.0 157.0 L 184.0 160.0 L 184.0 160.0 " stroke="black" fill="none" stroke-width="5.0" stroke-linecap="round" stroke-linejoin="round" />
<path d="M 157.0 165.0 L 157.0 165.0 L 158.0 166.0 L 161.0 166.0 L 169.0 166.0 L 180.0 166.0 L 182.0 166.0 " stroke="black" fill="none" stroke-width="5.0" stroke-linecap="round" stroke-linejoin="round" />
</svg>