<svg xmlns="http://www.w3.org/2000/svg" width="300" height="300" viewBox="0 0 300 300">
<path d="M 117.0 112.0 L 118.0 112.0 L 118.0 112.0 L 119.0 112.0 L 121.0 112.0 L 124.0 112.0 L 129.0 112.0 L 133.0 112.0 L 136.0 112.0 " stroke="black" fill="none" stroke-width="5.0" stroke-linecap="round" stroke-linejoin="round" />
<path d="M 117.0 125.0 L 120.0 126.0 L 122.0 126.0 L 125.0 126.0 L 129.0 126.0 L 134.0 126.0 L 136.0 126.0 " stroke="black" fill="none" stroke-width="5.0" stroke-linecap="round" stroke-linejoin="round" />
<path d="M 125.0 104.0 L 125.0 104.0 L 126.0 103.0 L 126.0 103.0 L 126.0 103.0 L 127.0 109.0 L 128.0 118.0 L 128.0 122.0 " stroke="black" fill="none" stroke-width="5.0" stroke-linecap="round" stroke-linejoin="round" />
<path d="M 115.0 138.0 L 115.0 138.0 L 115.0 138.0 L 116.0 138.0 L 119.0 138.0 L 125.0 137.0 L 132.0 136.0 L 137.0 136.0 L 140.0 135.0 L 142.0 135.0 L 143.0 137.0 L 144.0 140.0 L 145.0 144.0 L 145.0 148.0 L 145.0 150.0 " stroke="black" fill="none" stroke-width="5.0" stroke-linecap="round" stroke-linejoin="round" />
<path d="M 131.0 139.0 L 131.0 139.0 L 130.0 143.0 L 130.0 146.0 L 130.0 148.0 " stroke="black" fill="none" stroke-width="5.0" stroke-linecap="round" stroke-linejoin="round" />
<path d="M 117.0 152.0 L 117.0 153.0 L 117.0 154.0 L 121.0 155.0 L 130.0 154.0 L 139.0 152.0 L 143.0 152.0 " stroke="black" fill="none" stroke-width="5.0" stroke-linecap="round" stroke-linejoin="round" />
<path d="M 115.0 141.0 L 115.0 140.0 L 116.0 140.0 L 116.0 139.0 L 116.0 140.0 L 115.0 147.0 L 112.0 158.0 L 108.0 170.0 L 106.0 174.0 " stroke="black" fill="none" stroke-width="5.0" stroke-linecap="round" stroke-linejoin="round" />
<path d="M 151.0 111.0 L 151.0 111.0 L 151.0 111.0 L 151.0 110.0 L 151.0 110.0 L 151.0 114.0 L 151.0 120.0 L 151.0 124.0 L 151.0 125.0 " stroke="black" fill="none" stroke-width="5.0" stroke-linecap="round" stroke-linejoin="round" />
<path d="M 152.0 112.0 L 152.0 112.0 L 152.0 112.0 L 152.0 112.0 L 154.0 112.0 L 157.0 112.0 L 161.0 112.0 L 164.0 113.0 L 166.0 115.0 L 167.0 120.0 L 169.0 124.0 L 171.0 127.0 L 175.0 128.0 L 177.0 127.0 " stroke="black" fill="none" stroke-width="5.0" stroke-linecap="round" stroke-linejoin="round" />
<path d="M 152.0 135.0 L 152.0 135.0 L 153.0 135.0 L 153.0 135.0 L 154.0 135.0 L 158.0 135.0 L 161.0 135.0 L 164.0 135.0 L 166.0 137.0 L 166.0 140.0 L 165.0 144.0 L 162.0 149.0 L 157.0 153.0 L 153.0 156.0 " stroke="black" fill="none" stroke-width="5.0" stroke-linecap="round" stroke-linejoin="round" />
<path d="M 151.0 141.0 L 151.0 141.0 L 152.0 141.0 L 152.0 141.0 L 155.0 142.0 L 161.0 146.0 L 168.0 150.0 L 171.0 153.0 " stroke="black" fill="none" stroke-width="5.0" stroke-linecap="round" stroke-linejoin="round" />
<path d="M 127.0 163.0 L 128.0 163.0 L 128.0 164.0 L 131.0 164.0 L 139.0 164.0 L 150.0 164.0 L 158.0 164.0 L 164.0 164.0 L 165.0 164.0 " stroke="black" fill="none" stroke-width="5.0" stroke-linecap="round" stroke-linejoin="round" />
<path d="M 151.0 164.0 L 151.0 164.0 L 152.0 164.0 L 153.0 165.0 L 153.0 170.0 L 153.0 180.0 L 154.0 193.0 L 155.0 202.0 L 155.0 205.0 " stroke="black" fill="none" stroke-width="5.0" stroke-linecap="round" stroke-linejoin="round" />
<path d="M 135.0 165.0 L 134.0 165.0 L 134.0 165.0 L 133.0 166.0 L 133.0 170.0 L 133.0 179.0 L 132.0 187.0 L 131.0 189.0 " stroke="black" fill="none" stroke-width="5.0" stroke-linecap="round" stroke-linejoin="round" />
<path d="M 136.0 173.0 L 136.0 173.0 L 137.0 173.0 L 139.0 174.0 L 143.0 174.0 L 147.0 174.0 L 150.0 175.0 L 152.0 175.0 L 152.0 175.0 " stroke="black" fill="none" stroke-width="5.0" stroke-linecap="round" stroke-linejoin="round" />
<path d="M 136.0 183.0 L 136.0 184.0 L 137.0 184.0 L 141.0 184.0 L 146.0 184.0 L 151.0 185.0 L 152.0 185.0 " stroke="black" fill="none" stroke-width="5.0" stroke-linecap="round" stroke-linejoin="round" />
<path d="M 115.0 192.0 L 115.0 192.0 L 116.0 192.0 L 117.0 192.0 L 119.0 192.0 L 128.0 192.0 L 143.0 192.0 L 158.0 192.0 L 169.0 193.0 L 175.0 193.0 L 178.0 193.0 L 178.0 192.0 L 178.0 192.0 L 177.0 192.0 L 176.0 192.0 " stroke="black" fill="none" stroke-width="5.0" stroke-linecap="round" stroke-linejoin="round" />
</svg>