<svg xmlns="http://www.w3.org/2000/svg" width="300" height="300" viewBox="0 0 300 300">
<path d="M 136.0 114.0 L 136.0 114.0 L 136.0 115.0 L 137.0 116.0 L 137.0 117.0 L 136.0 120.0 L 132.0 127.0 L 125.0 137.0 L 116.0 146.0 L 112.0 149.0 " stroke="black" fill="none" stroke-width="5.0" stroke-linecap="round" stroke-linejoin="round" />
<path d="M 139.0 137.0 L 139.0 137.0 L 138.0 137.0 L 138.0 138.0 L 136.0 141.0 L 132.0 146.0 L 125.0 155.0 L 116.0 166.0 L 107.0 175.0 L 105.0 177.0 " stroke="black" fill="none" stroke-width="5.0" stroke-linecap="round" stroke-linejoin="round" />
<path d="M 126.0 157.0 L 126.0 157.0 L 126.0 159.0 L 126.0 164.0 L 126.0 173.0 L 127.0 183.0 L 127.0 191.0 " stroke="black" fill="none" stroke-width="5.0" stroke-linecap="round" stroke-linejoin="round" />
<path d="M 150.0 121.0 L 150.0 121.0 L 150.0 121.0 L 150.0 123.0 L 150.0 126.0 L 150.0 132.0 L 150.0 138.0 L 150.0 141.0 " stroke="black" fill="none" stroke-width="5.0" stroke-linecap="round" stroke-linejoin="round" />
<path d="M 151.0 119.0 L 152.0 119.0 L 152.0 119.0 L 153.0 119.0 L 156.0 119.0 L 161.0 119.0 L 166.0 118.0 L 171.0 119.0 L 174.0 121.0 L 176.0 126.0 L 178.0 132.0 L 178.0 137.0 L 178.0 141.0 L 178.0 141.0 " stroke="black" fill="none" stroke-width="5.0" stroke-linecap="round" stroke-linejoin="round" />
<path d="M 155.0 130.0 L 156.0 130.0 L 157.0 130.0 L 158.0 131.0 L 161.0 131.0 L 166.0 131.0 L 171.0 131.0 L 174.0 131.0 L 174.0 131.0 " stroke="black" fill="none" stroke-width="5.0" stroke-linecap="round" stroke-linejoin="round" />
<path d="M 150.0 144.0 L 150.0 144.0 L 151.0 144.0 L 154.0 144.0 L 160.0 144.0 L 167.0 144.0 L 172.0 143.0 L 173.0 143.0 " stroke="black" fill="none" stroke-width="5.0" stroke-linecap="round" stroke-linejoin="round" />
<path d="M 148.0 156.0 L 148.0 156.0 L 150.0 156.0 L 154.0 156.0 L 160.0 156.0 L 167.0 154.0 L 172.0 154.0 L 173.0 154.0 L 173.0 154.0 " stroke="black" fill="none" stroke-width="5.0" stroke-linecap="round" stroke-linejoin="round" />
<path d="M 141.0 169.0 L 141.0 169.0 L 143.0 171.0 L 147.0 171.0 L 154.0 171.0 L 165.0 169.0 L 174.0 168.0 L 180.0 167.0 L 181.0 167.0 L 181.0 167.0 " stroke="black" fill="none" stroke-width="5.0" stroke-linecap="round" stroke-linejoin="round" />
<path d="M 163.0 157.0 L 163.0 157.0 L 163.0 158.0 L 163.0 159.0 L 165.0 165.0 L 170.0 176.0 L 174.0 187.0 L 176.0 196.0 L 176.0 200.0 L 176.0 200.0 L 173.0 200.0 L 165.0 197.0 L 160.0 195.0 " stroke="black" fill="none" stroke-width="5.0" stroke-linecap="round" stroke-linejoin="round" />
<path d="M 146.0 180.0 L 146.0 180.0 L 147.0 181.0 L 149.0 182.0 L 153.0 184.0 L 158.0 185.0 " stroke="black" fill="none" stroke-width="5.0" stroke-linecap="round" stroke-linejoin="round" />
</svg>