<svg xmlns="http://www.w3.org/2000/svg" width="300" height="300" viewBox="0 0 300 300">
<path d="M 133.0 110.0 L 133.0 110.0 L 133.0 111.0 L 133.0 111.0 L 133.0 114.0 L 133.0 123.0 L 133.0 142.0 L 132.0 166.0 L 131.0 181.0 L 131.0 184.0 " stroke="black" fill="none" stroke-width="5.0" stroke-linecap="round" stroke-linejoin="round" />
<path d="M 141.0 106.0 L 141.0 106.0 L 140.0 106.0 L 140.0 106.0 L 139.0 106.0 L 141.0 106.0 L 148.0 106.0 L 157.0 105.0 L 167.0 105.0 L 174.0 106.0 L 177.0 107.0 L 179.0 109.0 L 180.0 115.0 L 183.0 127.0 L 186.0 146.0 L 187.0 165.0 L 187.0 177.0 L 187.0 181.0 L 187.0 181.0 " stroke="black" fill="none" stroke-width="5.0" stroke-linecap="round" stroke-linejoin="round" />
<path d="M 144.0 148.0 L 143.0 148.0 L 143.0 148.0 L 142.0 147.0 L 143.0 147.0 L 148.0 147.0 L 158.0 150.0 L 169.0 152.0 L 177.0 154.0 L 180.0 155.0 " stroke="black" fill="none" stroke-width="5.0" stroke-linecap="round" stroke-linejoin="round" />
<path d="M 131.0 185.0 L 132.0 185.0 L 133.0 185.0 L 136.0 185.0 L 145.0 185.0 L 159.0 185.0 L 175.0 185.0 L 184.0 185.0 L 186.0 185.0 " stroke="black" fill="none" stroke-width="5.0" stroke-linecap="round" stroke-linejoin="round" />
</svg>