<svg xmlns="http://www.w3.org/2000/svg" width="300" height="300" viewBox="0 0 300 300">
<path d="M 150.0 112.0 L 150.0 113.0 L 150.0 113.0 L 150.0 116.0 L 151.0 126.0 L 153.0 142.0 L 154.0 157.0 L 154.0 167.0 L 154.0 171.0 L 154.0 171.0 L 154.0 170.0 " stroke="black" fill="none" stroke-width="5.0" stroke-linecap="round" stroke-linejoin="round" />
<path d="M 155.0 141.0 L 156.0 141.0 L 156.0 141.0 L 158.0 141.0 L 161.0 141.0 L 166.0 141.0 L 173.0 142.0 L 179.0 143.0 L 182.0 144.0 L 183.0 145.0 " stroke="black" fill="none" stroke-width="5.0" stroke-linecap="round" stroke-linejoin="round" />
<path d="M 116.0 180.0 L 116.0 180.0 L 116.0 180.0 L 119.0 180.0 L 128.0 181.0 L 145.0 181.0 L 165.0 181.0 L 182.0 182.0 L 192.0 182.0 L 197.0 182.0 L 197.0 182.0 " stroke="black" fill="none" stroke-width="5.0" stroke-linecap="round" stroke-linejoin="round" />
</svg>