<svg xmlns="http://www.w3.org/2000/svg" width="300" height="300" viewBox="0 0 300 300">
<path d="M 150.0 112.0 L 150.0 112.0 L 150.0 112.0 L 150.0 112.0 L 150.0 116.0 L 150.0 129.0 L 152.0 148.0 L 153.0 163.0 L 153.0 171.0 L 153.0 171.0 " stroke="black" fill="none" stroke-width="5.0" stroke-linecap="round" stroke-linejoin="round" />
<path d="M 151.0 139.0 L 151.0 139.0 L 151.0 139.0 L 151.0 139.0 L 151.0 139.0 L 157.0 140.0 L 167.0 140.0 L 176.0 139.0 L 179.0 139.0 " stroke="black" fill="none" stroke-width="5.0" stroke-linecap="round" stroke-linejoin="round" />
<path d="M 115.0 177.0 L 115.0 177.0 L 116.0 178.0 L 119.0 178.0 L 128.0 179.0 L 144.0 179.0 L 163.0 180.0 L 179.0 180.0 L 189.0 180.0 L 193.0 179.0 L 193.0 179.0 L 192.0 179.0 " stroke="black" fill="none" stroke-width="5.0" stroke-linecap="round" stroke-linejoin="round" />
</svg>