<svg xmlns="http://www.w3.org/2000/svg" width="300" height="300" viewBox="0 0 300 300">
<path d="M 113.0 138.0 L 113.0 138.0 L 113.0 138.0 L 113.0 138.0 L 113.0 138.0 L 118.0 138.0 L 127.0 137.0 L 134.0 137.0 " stroke="black" fill="none" stroke-width="5.0" stroke-linecap="round" stroke-linejoin="round" />
<path d="M 106.0 165.0 L 106.0 165.0 L 107.0 165.0 L 108.0 165.0 L 112.0 165.0 L 122.0 165.0 L 134.0 165.0 L 139.0 164.0 " stroke="black" fill="none" stroke-width="5.0" stroke-linecap="round" stroke-linejoin="round" />
<path d="M 124.0 121.0 L 124.0 121.0 L 124.0 121.0 L 124.0 123.0 L 124.0 132.0 L 125.0 147.0 L 125.0 151.0 " stroke="black" fill="none" stroke-width="5.0" stroke-linecap="round" stroke-linejoin="round" />
<path d="M 146.0 147.0 L 146.0 147.0 L 146.0 147.0 L 146.0 147.0 L 149.0 147.0 L 157.0 145.0 L 169.0 144.0 L 179.0 143.0 L 183.0 142.0 L 185.0 142.0 L 185.0 145.0 L 185.0 151.0 L 185.0 158.0 L 183.0 164.0 L 182.0 166.0 " stroke="black" fill="none" stroke-width="5.0" stroke-linecap="round" stroke-linejoin="round" />
<path d="M 170.0 131.0 L 170.0 132.0 L 169.0 135.0 L 169.0 142.0 L 168.0 152.0 L 168.0 157.0 " stroke="black" fill="none" stroke-width="5.0" stroke-linecap="round" stroke-linejoin="round" />
<path d="M 153.0 123.0 L 153.0 123.0 L 153.0 123.0 L 153.0 123.0 L 153.0 123.0 L 153.0 124.0 L 153.0 130.0 L 153.0 146.0 L 152.0 166.0 L 152.0 181.0 L 157.0 190.0 L 165.0 191.0 L 175.0 191.0 L 184.0 190.0 L 191.0 190.0 L 196.0 189.0 L 199.0 186.0 L 200.0 181.0 L 200.0 176.0 L 200.0 169.0 " stroke="black" fill="none" stroke-width="5.0" stroke-linecap="round" stroke-linejoin="round" />
</svg>