<svg xmlns="http://www.w3.org/2000/svg" width="300" height="300" viewBox="0 0 300 300">
<path d="M 116.0 132.0 L 116.0 132.0 L 116.0 132.0 L 116.0 132.0 L 116.0 132.0 L 117.0 132.0 L 123.0 133.0 L 131.0 133.0 L 137.0 133.0 " stroke="black" fill="none" stroke-width="5.0" stroke-linecap="round" stroke-linejoin="round" />
<path d="M 104.0 168.0 L 104.0 168.0 L 104.0 168.0 L 105.0 168.0 L 109.0 168.0 L 117.0 169.0 L 128.0 168.0 L 135.0 167.0 " stroke="black" fill="none" stroke-width="5.0" stroke-linecap="round" stroke-linejoin="round" />
<path d="M 125.0 122.0 L 125.0 122.0 L 125.0 122.0 L 125.0 128.0 L 125.0 139.0 L 125.0 153.0 L 123.0 164.0 L 123.0 167.0 " stroke="black" fill="none" stroke-width="5.0" stroke-linecap="round" stroke-linejoin="round" />
<path d="M 143.0 147.0 L 143.0 147.0 L 143.0 147.0 L 143.0 147.0 L 143.0 147.0 L 146.0 147.0 L 155.0 147.0 L 167.0 145.0 L 177.0 144.0 L 183.0 144.0 L 185.0 145.0 L 186.0 146.0 L 186.0 147.0 L 186.0 150.0 L 186.0 154.0 L 186.0 159.0 L 185.0 162.0 L 185.0 162.0 " stroke="black" fill="none" stroke-width="5.0" stroke-linecap="round" stroke-linejoin="round" />
<path d="M 169.0 128.0 L 169.0 128.0 L 169.0 130.0 L 168.0 134.0 L 167.0 143.0 L 167.0 153.0 L 167.0 162.0 L 167.0 164.0 " stroke="black" fill="none" stroke-width="5.0" stroke-linecap="round" stroke-linejoin="round" />
<path d="M 155.0 120.0 L 155.0 120.0 L 155.0 120.0 L 154.0 121.0 L 153.0 126.0 L 152.0 139.0 L 151.0 159.0 L 150.0 174.0 L 149.0 181.0 L 151.0 185.0 L 155.0 188.0 L 163.0 190.0 L 173.0 191.0 L 184.0 191.0 L 192.0 192.0 L 198.0 192.0 L 202.0 191.0 L 204.0 189.0 L 205.0 187.0 L 205.0 181.0 L 205.0 173.0 " stroke="black" fill="none" stroke-width="5.0" stroke-linecap="round" stroke-linejoin="round" />
</svg>