<svg xmlns="http://www.w3.org/2000/svg" width="300" height="300" viewBox="0 0 300 300">
<path d="M 119.0 137.0 L 119.0 137.0 L 119.0 137.0 L 120.0 137.0 L 121.0 137.0 L 126.0 137.0 L 134.0 137.0 L 139.0 137.0 " stroke="black" fill="none" stroke-width="5.0" stroke-linecap="round" stroke-linejoin="round" />
<path d="M 107.0 174.0 L 108.0 174.0 L 110.0 176.0 L 116.0 176.0 L 129.0 174.0 L 139.0 172.0 " stroke="black" fill="none" stroke-width="5.0" stroke-linecap="round" stroke-linejoin="round" />
<path d="M 126.0 123.0 L 126.0 123.0 L 125.0 123.0 L 125.0 127.0 L 125.0 139.0 L 126.0 156.0 L 125.0 167.0 " stroke="black" fill="none" stroke-width="5.0" stroke-linecap="round" stroke-linejoin="round" />
<path d="M 143.0 151.0 L 142.0 151.0 L 141.0 151.0 L 141.0 151.0 L 144.0 151.0 L 153.0 150.0 L 164.0 148.0 L 176.0 146.0 L 185.0 145.0 L 190.0 145.0 L 191.0 148.0 L 191.0 153.0 L 190.0 159.0 L 188.0 164.0 L 187.0 166.0 " stroke="black" fill="none" stroke-width="5.0" stroke-linecap="round" stroke-linejoin="round" />
<path d="M 173.0 131.0 L 173.0 131.0 L 173.0 131.0 L 172.0 132.0 L 172.0 139.0 L 171.0 150.0 L 171.0 159.0 L 170.0 162.0 " stroke="black" fill="none" stroke-width="5.0" stroke-linecap="round" stroke-linejoin="round" />
<path d="M 157.0 118.0 L 157.0 119.0 L 155.0 120.0 L 154.0 124.0 L 153.0 132.0 L 152.0 146.0 L 151.0 163.0 L 150.0 182.0 L 151.0 194.0 L 156.0 198.0 L 166.0 198.0 L 177.0 198.0 L 188.0 199.0 L 198.0 200.0 L 203.0 200.0 L 205.0 198.0 L 206.0 194.0 L 205.0 183.0 " stroke="black" fill="none" stroke-width="5.0" stroke-linecap="round" stroke-linejoin="round" />
</svg>