<svg xmlns="http://www.w3.org/2000/svg" width="300" height="300" viewBox="0 0 300 300">
<path d="M 139.0 108.0 L 139.0 108.0 L 139.0 108.0 L 139.0 108.0 L 138.0 109.0 L 138.0 110.0 L 138.0 115.0 L 139.0 122.0 L 140.0 131.0 L 140.0 133.0 " stroke="black" fill="none" stroke-width="5.0" stroke-linecap="round" stroke-linejoin="round" />
<path d="M 122.0 122.0 L 124.0 123.0 L 125.0 123.0 L 129.0 123.0 L 138.0 122.0 L 150.0 120.0 L 163.0 119.0 L 173.0 118.0 L 179.0 117.0 L 181.0 117.0 L 181.0 117.0 " stroke="black" fill="none" stroke-width="5.0" stroke-linecap="round" stroke-linejoin="round" />
<path d="M 163.0 105.0 L 163.0 105.0 L 164.0 105.0 L 164.0 106.0 L 165.0 112.0 L 166.0 122.0 L 166.0 132.0 L 166.0 133.0 " stroke="black" fill="none" stroke-width="5.0" stroke-linecap="round" stroke-linejoin="round" />
<path d="M 131.0 145.0 L 131.0 145.0 L 131.0 145.0 L 131.0 145.0 L 131.0 148.0 L 132.0 155.0 L 133.0 162.0 L 135.0 165.0 L 135.0 166.0 " stroke="black" fill="none" stroke-width="5.0" stroke-linecap="round" stroke-linejoin="round" />
<path d="M 131.0 145.0 L 131.0 145.0 L 131.0 145.0 L 133.0 144.0 L 137.0 144.0 L 146.0 143.0 L 156.0 141.0 L 165.0 140.0 L 175.0 141.0 L 177.0 145.0 L 178.0 151.0 L 179.0 156.0 L 179.0 161.0 L 179.0 164.0 L 179.0 164.0 " stroke="black" fill="none" stroke-width="5.0" stroke-linecap="round" stroke-linejoin="round" />
<path d="M 136.0 156.0 L 136.0 156.0 L 136.0 156.0 L 136.0 156.0 L 139.0 156.0 L 146.0 155.0 L 158.0 153.0 L 167.0 151.0 L 171.0 151.0 L 171.0 152.0 " stroke="black" fill="none" stroke-width="5.0" stroke-linecap="round" stroke-linejoin="round" />
<path d="M 137.0 168.0 L 137.0 169.0 L 138.0 169.0 L 141.0 169.0 L 148.0 169.0 L 159.0 166.0 L 169.0 164.0 L 173.0 164.0 " stroke="black" fill="none" stroke-width="5.0" stroke-linecap="round" stroke-linejoin="round" />
<path d="M 125.0 191.0 L 125.0 191.0 L 125.0 190.0 L 125.0 190.0 L 128.0 189.0 L 138.0 189.0 L 153.0 187.0 L 170.0 185.0 L 181.0 183.0 L 185.0 183.0 L 185.0 183.0 " stroke="black" fill="none" stroke-width="5.0" stroke-linecap="round" stroke-linejoin="round" />
<path d="M 155.0 167.0 L 155.0 167.0 L 155.0 167.0 L 155.0 167.0 L 155.0 169.0 L 153.0 177.0 L 149.0 191.0 L 143.0 203.0 L 140.0 209.0 " stroke="black" fill="none" stroke-width="5.0" stroke-linecap="round" stroke-linejoin="round" />
<path d="M 168.0 192.0 L 170.0 193.0 L 174.0 197.0 L 179.0 201.0 L 185.0 205.0 L 190.0 207.0 L 192.0 208.0 " stroke="black" fill="none" stroke-width="5.0" stroke-linecap="round" stroke-linejoin="round" />
</svg>