<svg xmlns="http://www.w3.org/2000/svg" width="300" height="300" viewBox="0 0 300 300">
<path d="M 137.0 111.0 L 137.0 111.0 L 137.0 111.0 L 137.0 111.0 L 136.0 111.0 L 136.0 112.0 L 137.0 117.0 L 138.0 124.0 L 139.0 131.0 L 140.0 134.0 " stroke="black" fill="none" stroke-width="5.0" stroke-linecap="round" stroke-linejoin="round" />
<path d="M 122.0 123.0 L 122.0 123.0 L 122.0 123.0 L 124.0 123.0 L 128.0 124.0 L 138.0 124.0 L 151.0 123.0 L 164.0 122.0 L 174.0 121.0 L 178.0 121.0 L 179.0 121.0 L 178.0 121.0 " stroke="black" fill="none" stroke-width="5.0" stroke-linecap="round" stroke-linejoin="round" />
<path d="M 159.0 107.0 L 159.0 107.0 L 159.0 108.0 L 160.0 110.0 L 160.0 117.0 L 161.0 127.0 L 161.0 134.0 " stroke="black" fill="none" stroke-width="5.0" stroke-linecap="round" stroke-linejoin="round" />
<path d="M 116.0 156.0 L 116.0 156.0 L 116.0 156.0 L 120.0 155.0 L 131.0 155.0 L 148.0 154.0 L 165.0 154.0 L 174.0 153.0 L 177.0 153.0 L 176.0 153.0 L 174.0 154.0 " stroke="black" fill="none" stroke-width="5.0" stroke-linecap="round" stroke-linejoin="round" />
<path d="M 150.0 142.0 L 150.0 142.0 L 150.0 142.0 L 150.0 142.0 L 149.0 144.0 L 146.0 148.0 L 140.0 157.0 L 130.0 170.0 L 120.0 182.0 L 115.0 187.0 L 114.0 187.0 " stroke="black" fill="none" stroke-width="5.0" stroke-linecap="round" stroke-linejoin="round" />
<path d="M 130.0 174.0 L 130.0 174.0 L 130.0 174.0 L 130.0 174.0 L 130.0 177.0 L 131.0 184.0 L 132.0 193.0 L 133.0 198.0 L 133.0 199.0 " stroke="black" fill="none" stroke-width="5.0" stroke-linecap="round" stroke-linejoin="round" />
<path d="M 135.0 172.0 L 135.0 172.0 L 136.0 172.0 L 139.0 172.0 L 145.0 172.0 L 153.0 172.0 L 162.0 172.0 L 167.0 173.0 L 171.0 176.0 L 172.0 181.0 L 173.0 187.0 L 174.0 192.0 L 174.0 195.0 L 172.0 197.0 " stroke="black" fill="none" stroke-width="5.0" stroke-linecap="round" stroke-linejoin="round" />
<path d="M 133.0 200.0 L 133.0 200.0 L 133.0 200.0 L 134.0 200.0 L 143.0 201.0 L 157.0 201.0 L 171.0 199.0 L 176.0 198.0 " stroke="black" fill="none" stroke-width="5.0" stroke-linecap="round" stroke-linejoin="round" />
</svg>