<svg xmlns="http://www.w3.org/2000/svg" width="300" height="300" viewBox="0 0 300 300">
<path d="M 139.0 111.0 L 139.0 111.0 L 138.0 111.0 L 137.0 111.0 L 137.0 113.0 L 137.0 117.0 L 138.0 124.0 L 139.0 131.0 L 139.0 135.0 " stroke="black" fill="none" stroke-width="5.0" stroke-linecap="round" stroke-linejoin="round" />
<path d="M 120.0 125.0 L 120.0 125.0 L 120.0 125.0 L 123.0 125.0 L 132.0 125.0 L 145.0 124.0 L 160.0 124.0 L 169.0 123.0 L 174.0 123.0 L 175.0 123.0 L 175.0 123.0 L 174.0 123.0 " stroke="black" fill="none" stroke-width="5.0" stroke-linecap="round" stroke-linejoin="round" />
<path d="M 156.0 109.0 L 156.0 109.0 L 157.0 108.0 L 157.0 108.0 L 158.0 113.0 L 160.0 122.0 L 161.0 131.0 " stroke="black" fill="none" stroke-width="5.0" stroke-linecap="round" stroke-linejoin="round" />
<path d="M 114.0 157.0 L 114.0 157.0 L 114.0 158.0 L 114.0 158.0 L 122.0 158.0 L 139.0 156.0 L 159.0 153.0 L 171.0 152.0 L 176.0 152.0 L 176.0 152.0 L 175.0 152.0 L 174.0 152.0 " stroke="black" fill="none" stroke-width="5.0" stroke-linecap="round" stroke-linejoin="round" />
<path d="M 149.0 143.0 L 149.0 143.0 L 149.0 143.0 L 149.0 143.0 L 149.0 144.0 L 147.0 147.0 L 141.0 156.0 L 131.0 169.0 L 119.0 181.0 L 111.0 187.0 " stroke="black" fill="none" stroke-width="5.0" stroke-linecap="round" stroke-linejoin="round" />
<path d="M 132.0 171.0 L 132.0 171.0 L 132.0 171.0 L 132.0 172.0 L 133.0 177.0 L 134.0 184.0 L 135.0 190.0 L 136.0 193.0 " stroke="black" fill="none" stroke-width="5.0" stroke-linecap="round" stroke-linejoin="round" />
<path d="M 134.0 172.0 L 134.0 172.0 L 134.0 172.0 L 135.0 171.0 L 141.0 170.0 L 152.0 169.0 L 162.0 168.0 L 169.0 168.0 L 172.0 169.0 L 174.0 174.0 L 174.0 181.0 L 174.0 187.0 L 175.0 192.0 L 175.0 194.0 L 175.0 194.0 " stroke="black" fill="none" stroke-width="5.0" stroke-linecap="round" stroke-linejoin="round" />
<path d="M 139.0 194.0 L 139.0 194.0 L 139.0 194.0 L 140.0 194.0 L 144.0 195.0 L 153.0 195.0 L 164.0 195.0 L 174.0 195.0 " stroke="black" fill="none" stroke-width="5.0" stroke-linecap="round" stroke-linejoin="round" />
</svg>