<svg xmlns="http://www.w3.org/2000/svg" width="300" height="300" viewBox="0 0 300 300">
<path d="M 131.0 106.0 L 131.0 107.0 L 131.0 107.0 L 131.0 108.0 L 131.0 111.0 L 131.0 118.0 L 131.0 122.0 L 131.0 127.0 " stroke="black" fill="none" stroke-width="5.0" stroke-linecap="round" stroke-linejoin="round" />
<path d="M 115.0 117.0 L 115.0 117.0 L 117.0 117.0 L 119.0 118.0 L 122.0 118.0 L 126.0 117.0 L 137.0 116.0 L 147.0 116.0 L 154.0 116.0 L 165.0 115.0 L 171.0 114.0 L 175.0 114.0 L 175.0 114.0 " stroke="black" fill="none" stroke-width="5.0" stroke-linecap="round" stroke-linejoin="round" />
<path d="M 155.0 107.0 L 155.0 107.0 L 157.0 106.0 L 157.0 106.0 L 157.0 109.0 L 157.0 116.0 L 157.0 125.0 L 157.0 126.0 " stroke="black" fill="none" stroke-width="5.0" stroke-linecap="round" stroke-linejoin="round" />
<path d="M 114.0 148.0 L 114.0 148.0 L 115.0 148.0 L 117.0 147.0 L 123.0 147.0 L 139.0 146.0 L 149.0 146.0 L 157.0 146.0 L 166.0 146.0 L 169.0 146.0 L 169.0 146.0 " stroke="black" fill="none" stroke-width="5.0" stroke-linecap="round" stroke-linejoin="round" />
<path d="M 143.0 136.0 L 143.0 135.0 L 142.0 135.0 L 142.0 134.0 L 141.0 137.0 L 140.0 141.0 L 132.0 155.0 L 127.0 161.0 L 115.0 174.0 L 110.0 178.0 L 110.0 178.0 " stroke="black" fill="none" stroke-width="5.0" stroke-linecap="round" stroke-linejoin="round" />
<path d="M 130.0 163.0 L 130.0 163.0 L 130.0 164.0 L 130.0 164.0 L 130.0 164.0 L 130.0 166.0 L 130.0 171.0 L 131.0 178.0 L 132.0 182.0 L 133.0 186.0 L 134.0 186.0 " stroke="black" fill="none" stroke-width="5.0" stroke-linecap="round" stroke-linejoin="round" />
<path d="M 132.0 161.0 L 133.0 161.0 L 135.0 161.0 L 139.0 161.0 L 144.0 161.0 L 154.0 161.0 L 160.0 161.0 L 165.0 161.0 L 167.0 161.0 L 169.0 164.0 L 169.0 170.0 L 170.0 174.0 L 171.0 183.0 L 172.0 189.0 L 173.0 191.0 " stroke="black" fill="none" stroke-width="5.0" stroke-linecap="round" stroke-linejoin="round" />
<path d="M 133.0 194.0 L 133.0 194.0 L 133.0 194.0 L 135.0 194.0 L 145.0 194.0 L 156.0 194.0 L 161.0 194.0 L 169.0 195.0 L 170.0 195.0 " stroke="black" fill="none" stroke-width="5.0" stroke-linecap="round" stroke-linejoin="round" />
</svg>