<svg xmlns="http://www.w3.org/2000/svg" width="300" height="300" viewBox="0 0 300 300">
<path d="M 135.0 112.0 L 135.0 113.0 L 135.0 113.0 L 135.0 115.0 L 134.0 119.0 L 135.0 126.0 L 136.0 133.0 L 137.0 138.0 " stroke="black" fill="none" stroke-width="5.0" stroke-linecap="round" stroke-linejoin="round" />
<path d="M 114.0 128.0 L 115.0 128.0 L 116.0 129.0 L 119.0 129.0 L 127.0 128.0 L 141.0 126.0 L 156.0 124.0 L 169.0 124.0 L 176.0 124.0 L 178.0 124.0 L 178.0 125.0 L 178.0 125.0 " stroke="black" fill="none" stroke-width="5.0" stroke-linecap="round" stroke-linejoin="round" />
<path d="M 157.0 107.0 L 157.0 109.0 L 157.0 113.0 L 158.0 120.0 L 159.0 129.0 L 159.0 136.0 L 159.0 137.0 " stroke="black" fill="none" stroke-width="5.0" stroke-linecap="round" stroke-linejoin="round" />
<path d="M 117.0 157.0 L 117.0 157.0 L 117.0 157.0 L 120.0 158.0 L 130.0 158.0 L 146.0 157.0 L 161.0 155.0 L 171.0 155.0 L 174.0 154.0 L 174.0 154.0 " stroke="black" fill="none" stroke-width="5.0" stroke-linecap="round" stroke-linejoin="round" />
<path d="M 147.0 144.0 L 147.0 144.0 L 147.0 144.0 L 145.0 146.0 L 143.0 151.0 L 137.0 162.0 L 126.0 176.0 L 114.0 188.0 L 109.0 192.0 " stroke="black" fill="none" stroke-width="5.0" stroke-linecap="round" stroke-linejoin="round" />
<path d="M 130.0 177.0 L 130.0 177.0 L 130.0 177.0 L 130.0 177.0 L 130.0 180.0 L 131.0 186.0 L 133.0 194.0 L 134.0 199.0 L 135.0 200.0 " stroke="black" fill="none" stroke-width="5.0" stroke-linecap="round" stroke-linejoin="round" />
<path d="M 133.0 176.0 L 134.0 176.0 L 135.0 175.0 L 139.0 174.0 L 146.0 173.0 L 154.0 173.0 L 161.0 173.0 L 165.0 175.0 L 168.0 179.0 L 169.0 185.0 L 169.0 191.0 L 169.0 197.0 L 169.0 200.0 " stroke="black" fill="none" stroke-width="5.0" stroke-linecap="round" stroke-linejoin="round" />
<path d="M 137.0 204.0 L 137.0 204.0 L 139.0 204.0 L 144.0 205.0 L 155.0 205.0 L 166.0 204.0 L 169.0 203.0 " stroke="black" fill="none" stroke-width="5.0" stroke-linecap="round" stroke-linejoin="round" />
</svg>