<svg xmlns="http://www.w3.org/2000/svg" width="300" height="300" viewBox="0 0 300 300">
<path d="M 135.0 107.0 L 135.0 107.0 L 135.0 107.0 L 134.0 108.0 L 134.0 109.0 L 134.0 113.0 L 134.0 122.0 L 135.0 130.0 " stroke="black" fill="none" stroke-width="5.0" stroke-linecap="round" stroke-linejoin="round" />
<path d="M 116.0 122.0 L 116.0 122.0 L 116.0 122.0 L 116.0 122.0 L 120.0 121.0 L 130.0 120.0 L 145.0 118.0 L 158.0 117.0 L 168.0 117.0 L 175.0 117.0 L 179.0 117.0 L 181.0 117.0 L 181.0 117.0 " stroke="black" fill="none" stroke-width="5.0" stroke-linecap="round" stroke-linejoin="round" />
<path d="M 161.0 102.0 L 161.0 102.0 L 161.0 102.0 L 161.0 104.0 L 162.0 111.0 L 164.0 122.0 L 165.0 132.0 " stroke="black" fill="none" stroke-width="5.0" stroke-linecap="round" stroke-linejoin="round" />
<path d="M 120.0 153.0 L 121.0 153.0 L 123.0 153.0 L 129.0 153.0 L 141.0 152.0 L 156.0 150.0 L 170.0 149.0 L 176.0 149.0 L 179.0 149.0 L 179.0 149.0 " stroke="black" fill="none" stroke-width="5.0" stroke-linecap="round" stroke-linejoin="round" />
<path d="M 149.0 141.0 L 149.0 141.0 L 149.0 141.0 L 149.0 141.0 L 149.0 142.0 L 147.0 145.0 L 143.0 154.0 L 133.0 167.0 L 120.0 181.0 L 111.0 188.0 L 109.0 189.0 " stroke="black" fill="none" stroke-width="5.0" stroke-linecap="round" stroke-linejoin="round" />
<path d="M 132.0 174.0 L 132.0 174.0 L 132.0 174.0 L 132.0 176.0 L 133.0 179.0 L 135.0 186.0 L 137.0 193.0 L 138.0 196.0 " stroke="black" fill="none" stroke-width="5.0" stroke-linecap="round" stroke-linejoin="round" />
<path d="M 136.0 171.0 L 136.0 171.0 L 136.0 171.0 L 139.0 170.0 L 144.0 170.0 L 153.0 170.0 L 163.0 170.0 L 171.0 170.0 L 176.0 170.0 L 179.0 171.0 L 180.0 174.0 L 180.0 180.0 L 180.0 186.0 L 180.0 192.0 L 180.0 195.0 " stroke="black" fill="none" stroke-width="5.0" stroke-linecap="round" stroke-linejoin="round" />
<path d="M 139.0 201.0 L 139.0 201.0 L 141.0 201.0 L 144.0 202.0 L 152.0 202.0 L 165.0 202.0 L 176.0 200.0 L 177.0 200.0 " stroke="black" fill="none" stroke-width="5.0" stroke-linecap="round" stroke-linejoin="round" />
</svg>