<svg xmlns="http://www.w3.org/2000/svg" width="300" height="300" viewBox="0 0 300 300">
<path d="M 133.0 113.0 L 133.0 113.0 L 133.0 113.0 L 133.0 113.0 L 133.0 115.0 L 134.0 121.0 L 136.0 127.0 L 136.0 130.0 " stroke="black" fill="none" stroke-width="5.0" stroke-linecap="round" stroke-linejoin="round" />
<path d="M 119.0 125.0 L 119.0 125.0 L 119.0 125.0 L 120.0 125.0 L 123.0 125.0 L 132.0 125.0 L 146.0 123.0 L 159.0 123.0 L 169.0 123.0 L 177.0 122.0 L 180.0 120.0 L 181.0 120.0 L 181.0 120.0 L 181.0 120.0 " stroke="black" fill="none" stroke-width="5.0" stroke-linecap="round" stroke-linejoin="round" />
<path d="M 161.0 110.0 L 161.0 110.0 L 162.0 111.0 L 162.0 114.0 L 163.0 121.0 L 163.0 131.0 L 162.0 135.0 " stroke="black" fill="none" stroke-width="5.0" stroke-linecap="round" stroke-linejoin="round" />
<path d="M 113.0 155.0 L 113.0 155.0 L 113.0 155.0 L 113.0 155.0 L 115.0 155.0 L 124.0 155.0 L 142.0 155.0 L 159.0 154.0 L 170.0 153.0 L 176.0 152.0 L 177.0 152.0 L 177.0 152.0 " stroke="black" fill="none" stroke-width="5.0" stroke-linecap="round" stroke-linejoin="round" />
<path d="M 146.0 144.0 L 146.0 144.0 L 146.0 144.0 L 145.0 144.0 L 145.0 145.0 L 142.0 149.0 L 137.0 157.0 L 128.0 169.0 L 116.0 182.0 L 108.0 189.0 L 108.0 190.0 " stroke="black" fill="none" stroke-width="5.0" stroke-linecap="round" stroke-linejoin="round" />
<path d="M 128.0 176.0 L 128.0 176.0 L 128.0 176.0 L 128.0 177.0 L 128.0 180.0 L 129.0 186.0 L 131.0 193.0 L 132.0 197.0 " stroke="black" fill="none" stroke-width="5.0" stroke-linecap="round" stroke-linejoin="round" />
<path d="M 133.0 171.0 L 133.0 171.0 L 133.0 171.0 L 135.0 171.0 L 140.0 171.0 L 150.0 170.0 L 160.0 169.0 L 166.0 169.0 L 170.0 170.0 L 172.0 174.0 L 173.0 179.0 L 174.0 186.0 L 174.0 193.0 L 174.0 197.0 L 174.0 198.0 " stroke="black" fill="none" stroke-width="5.0" stroke-linecap="round" stroke-linejoin="round" />
<path d="M 132.0 197.0 L 132.0 198.0 L 132.0 198.0 L 137.0 199.0 L 148.0 199.0 L 162.0 199.0 L 172.0 198.0 L 175.0 198.0 " stroke="black" fill="none" stroke-width="5.0" stroke-linecap="round" stroke-linejoin="round" />
</svg>