<svg xmlns="http://www.w3.org/2000/svg" width="300" height="300" viewBox="0 0 300 300">
<path d="M 135.0 107.0 L 135.0 107.0 L 135.0 107.0 L 135.0 107.0 L 135.0 109.0 L 136.0 114.0 L 137.0 122.0 L 138.0 128.0 L 138.0 130.0 " stroke="black" fill="none" stroke-width="5.0" stroke-linecap="round" stroke-linejoin="round" />
<path d="M 119.0 124.0 L 119.0 124.0 L 119.0 124.0 L 120.0 124.0 L 124.0 124.0 L 135.0 122.0 L 150.0 120.0 L 162.0 118.0 L 171.0 118.0 L 177.0 118.0 L 179.0 118.0 L 179.0 118.0 " stroke="black" fill="none" stroke-width="5.0" stroke-linecap="round" stroke-linejoin="round" />
<path d="M 155.0 104.0 L 155.0 104.0 L 155.0 104.0 L 155.0 106.0 L 155.0 110.0 L 156.0 120.0 L 157.0 130.0 L 157.0 133.0 " stroke="black" fill="none" stroke-width="5.0" stroke-linecap="round" stroke-linejoin="round" />
<path d="M 114.0 152.0 L 115.0 152.0 L 115.0 152.0 L 117.0 152.0 L 124.0 152.0 L 137.0 151.0 L 155.0 149.0 L 168.0 146.0 L 174.0 144.0 L 174.0 144.0 " stroke="black" fill="none" stroke-width="5.0" stroke-linecap="round" stroke-linejoin="round" />
<path d="M 144.0 138.0 L 144.0 138.0 L 144.0 139.0 L 144.0 140.0 L 143.0 142.0 L 139.0 148.0 L 130.0 158.0 L 119.0 170.0 L 108.0 180.0 L 104.0 185.0 " stroke="black" fill="none" stroke-width="5.0" stroke-linecap="round" stroke-linejoin="round" />
<path d="M 126.0 167.0 L 126.0 167.0 L 126.0 167.0 L 127.0 168.0 L 127.0 172.0 L 129.0 178.0 L 130.0 185.0 L 131.0 189.0 L 132.0 191.0 " stroke="black" fill="none" stroke-width="5.0" stroke-linecap="round" stroke-linejoin="round" />
<path d="M 131.0 167.0 L 131.0 167.0 L 132.0 166.0 L 135.0 166.0 L 141.0 166.0 L 149.0 166.0 L 157.0 166.0 L 163.0 165.0 L 167.0 166.0 L 170.0 169.0 L 171.0 175.0 L 171.0 182.0 L 171.0 187.0 L 171.0 190.0 " stroke="black" fill="none" stroke-width="5.0" stroke-linecap="round" stroke-linejoin="round" />
<path d="M 132.0 195.0 L 132.0 195.0 L 134.0 195.0 L 140.0 194.0 L 151.0 194.0 L 164.0 192.0 " stroke="black" fill="none" stroke-width="5.0" stroke-linecap="round" stroke-linejoin="round" />
</svg>