<svg xmlns="http://www.w3.org/2000/svg" width="300" height="300" viewBox="0 0 300 300">
<path d="M 140.0 109.0 L 140.0 109.0 L 139.0 110.0 L 139.0 114.0 L 139.0 121.0 L 140.0 127.0 L 141.0 130.0 " stroke="black" fill="none" stroke-width="5.0" stroke-linecap="round" stroke-linejoin="round" />
<path d="M 127.0 121.0 L 127.0 121.0 L 127.0 121.0 L 128.0 121.0 L 132.0 121.0 L 140.0 120.0 L 153.0 120.0 L 167.0 119.0 L 176.0 118.0 L 180.0 118.0 L 180.0 118.0 L 180.0 118.0 " stroke="black" fill="none" stroke-width="5.0" stroke-linecap="round" stroke-linejoin="round" />
<path d="M 162.0 103.0 L 162.0 103.0 L 162.0 103.0 L 162.0 103.0 L 162.0 107.0 L 162.0 114.0 L 164.0 125.0 L 164.0 130.0 " stroke="black" fill="none" stroke-width="5.0" stroke-linecap="round" stroke-linejoin="round" />
<path d="M 126.0 149.0 L 126.0 149.0 L 126.0 149.0 L 128.0 149.0 L 134.0 149.0 L 147.0 148.0 L 161.0 147.0 L 171.0 146.0 L 176.0 145.0 L 177.0 145.0 L 176.0 145.0 " stroke="black" fill="none" stroke-width="5.0" stroke-linecap="round" stroke-linejoin="round" />
<path d="M 155.0 135.0 L 155.0 135.0 L 154.0 136.0 L 153.0 137.0 L 152.0 139.0 L 149.0 143.0 L 144.0 151.0 L 136.0 162.0 L 125.0 174.0 L 119.0 179.0 L 117.0 179.0 " stroke="black" fill="none" stroke-width="5.0" stroke-linecap="round" stroke-linejoin="round" />
<path d="M 138.0 165.0 L 138.0 167.0 L 138.0 168.0 L 138.0 173.0 L 139.0 180.0 L 141.0 187.0 L 143.0 191.0 " stroke="black" fill="none" stroke-width="5.0" stroke-linecap="round" stroke-linejoin="round" />
<path d="M 141.0 164.0 L 141.0 164.0 L 141.0 164.0 L 144.0 163.0 L 150.0 162.0 L 158.0 162.0 L 166.0 163.0 L 171.0 164.0 L 174.0 166.0 L 176.0 170.0 L 177.0 177.0 L 177.0 183.0 L 177.0 188.0 L 177.0 189.0 " stroke="black" fill="none" stroke-width="5.0" stroke-linecap="round" stroke-linejoin="round" />
<path d="M 142.0 193.0 L 142.0 193.0 L 142.0 193.0 L 142.0 193.0 L 147.0 193.0 L 159.0 193.0 L 173.0 193.0 L 181.0 193.0 L 183.0 193.0 " stroke="black" fill="none" stroke-width="5.0" stroke-linecap="round" stroke-linejoin="round" />
</svg>