<svg xmlns="http://www.w3.org/2000/svg" width="300" height="300" viewBox="0 0 300 300">
<path d="M 133.0 104.0 L 133.0 103.0 L 133.0 103.0 L 133.0 103.0 L 133.0 103.0 L 133.0 105.0 L 134.0 112.0 L 135.0 120.0 L 135.0 126.0 L 135.0 129.0 " stroke="black" fill="none" stroke-width="5.0" stroke-linecap="round" stroke-linejoin="round" />
<path d="M 118.0 116.0 L 119.0 117.0 L 119.0 117.0 L 122.0 118.0 L 129.0 118.0 L 142.0 116.0 L 156.0 115.0 L 167.0 115.0 L 176.0 114.0 L 183.0 114.0 L 185.0 113.0 " stroke="black" fill="none" stroke-width="5.0" stroke-linecap="round" stroke-linejoin="round" />
<path d="M 160.0 102.0 L 160.0 102.0 L 160.0 103.0 L 160.0 107.0 L 160.0 115.0 L 161.0 123.0 L 161.0 125.0 " stroke="black" fill="none" stroke-width="5.0" stroke-linecap="round" stroke-linejoin="round" />
<path d="M 120.0 148.0 L 120.0 148.0 L 120.0 148.0 L 123.0 148.0 L 134.0 148.0 L 150.0 147.0 L 165.0 147.0 L 174.0 147.0 L 177.0 147.0 L 177.0 147.0 " stroke="black" fill="none" stroke-width="5.0" stroke-linecap="round" stroke-linejoin="round" />
<path d="M 149.0 139.0 L 149.0 139.0 L 149.0 138.0 L 149.0 138.0 L 148.0 138.0 L 145.0 143.0 L 139.0 153.0 L 130.0 167.0 L 121.0 179.0 L 116.0 184.0 L 116.0 184.0 " stroke="black" fill="none" stroke-width="5.0" stroke-linecap="round" stroke-linejoin="round" />
<path d="M 133.0 165.0 L 133.0 165.0 L 133.0 166.0 L 133.0 166.0 L 133.0 167.0 L 134.0 170.0 L 135.0 176.0 L 136.0 184.0 L 137.0 189.0 L 139.0 192.0 L 139.0 192.0 " stroke="black" fill="none" stroke-width="5.0" stroke-linecap="round" stroke-linejoin="round" />
<path d="M 137.0 164.0 L 137.0 164.0 L 137.0 165.0 L 139.0 165.0 L 146.0 165.0 L 154.0 164.0 L 162.0 164.0 L 167.0 164.0 L 170.0 166.0 L 172.0 170.0 L 174.0 175.0 L 174.0 181.0 L 174.0 186.0 L 174.0 190.0 L 174.0 191.0 " stroke="black" fill="none" stroke-width="5.0" stroke-linecap="round" stroke-linejoin="round" />
<path d="M 139.0 194.0 L 140.0 195.0 L 143.0 197.0 L 149.0 197.0 L 160.0 197.0 L 171.0 196.0 L 176.0 195.0 " stroke="black" fill="none" stroke-width="5.0" stroke-linecap="round" stroke-linejoin="round" />
</svg>