<svg xmlns="http://www.w3.org/2000/svg" width="300" height="300" viewBox="0 0 300 300">
<path d="M 127.0 112.0 L 127.0 112.0 L 127.0 112.0 L 127.0 113.0 L 128.0 113.0 L 132.0 113.0 L 143.0 112.0 L 155.0 111.0 L 166.0 111.0 L 171.0 111.0 L 171.0 111.0 " stroke="black" fill="none" stroke-width="5.0" stroke-linecap="round" stroke-linejoin="round" />
<path d="M 150.0 113.0 L 150.0 114.0 L 150.0 115.0 L 149.0 116.0 L 148.0 119.0 L 145.0 124.0 L 142.0 127.0 " stroke="black" fill="none" stroke-width="5.0" stroke-linecap="round" stroke-linejoin="round" />
<path d="M 120.0 137.0 L 120.0 137.0 L 120.0 137.0 L 119.0 137.0 L 119.0 138.0 L 119.0 140.0 L 119.0 148.0 L 119.0 162.0 L 119.0 177.0 L 120.0 183.0 L 122.0 184.0 " stroke="black" fill="none" stroke-width="5.0" stroke-linecap="round" stroke-linejoin="round" />
<path d="M 121.0 138.0 L 122.0 137.0 L 123.0 136.0 L 125.0 135.0 L 131.0 134.0 L 140.0 134.0 L 152.0 134.0 L 163.0 134.0 L 173.0 133.0 L 179.0 134.0 L 182.0 137.0 L 184.0 144.0 L 186.0 153.0 L 188.0 164.0 L 189.0 174.0 L 190.0 184.0 L 190.0 189.0 L 187.0 190.0 L 181.0 190.0 L 171.0 188.0 " stroke="black" fill="none" stroke-width="5.0" stroke-linecap="round" stroke-linejoin="round" />
<path d="M 140.0 137.0 L 140.0 137.0 L 139.0 137.0 L 139.0 138.0 L 139.0 143.0 L 139.0 156.0 L 139.0 170.0 L 140.0 177.0 " stroke="black" fill="none" stroke-width="5.0" stroke-linecap="round" stroke-linejoin="round" />
<path d="M 152.0 136.0 L 152.0 136.0 L 152.0 136.0 L 152.0 136.0 L 152.0 140.0 L 154.0 153.0 L 156.0 170.0 L 156.0 182.0 L 156.0 184.0 " stroke="black" fill="none" stroke-width="5.0" stroke-linecap="round" stroke-linejoin="round" />
</svg>