<svg xmlns="http://www.w3.org/2000/svg" width="300" height="300" viewBox="0 0 300 300">
<path d="M 131.0 112.0 L 131.0 112.0 L 131.0 113.0 L 132.0 113.0 L 134.0 113.0 L 140.0 113.0 L 151.0 112.0 L 163.0 111.0 L 172.0 110.0 L 176.0 110.0 L 176.0 110.0 L 175.0 110.0 " stroke="black" fill="none" stroke-width="5.0" stroke-linecap="round" stroke-linejoin="round" />
<path d="M 155.0 116.0 L 156.0 116.0 L 156.0 117.0 L 156.0 117.0 L 156.0 118.0 L 152.0 121.0 L 147.0 126.0 " stroke="black" fill="none" stroke-width="5.0" stroke-linecap="round" stroke-linejoin="round" />
<path d="M 125.0 137.0 L 125.0 137.0 L 125.0 137.0 L 125.0 137.0 L 125.0 138.0 L 125.0 143.0 L 125.0 155.0 L 125.0 172.0 L 126.0 183.0 L 127.0 185.0 L 128.0 182.0 " stroke="black" fill="none" stroke-width="5.0" stroke-linecap="round" stroke-linejoin="round" />
<path d="M 126.0 134.0 L 128.0 134.0 L 129.0 134.0 L 133.0 134.0 L 138.0 134.0 L 147.0 134.0 L 158.0 134.0 L 167.0 134.0 L 173.0 134.0 L 178.0 138.0 L 180.0 145.0 L 183.0 153.0 L 185.0 163.0 L 187.0 173.0 L 188.0 180.0 L 188.0 185.0 L 188.0 188.0 L 186.0 189.0 L 181.0 189.0 L 175.0 185.0 " stroke="black" fill="none" stroke-width="5.0" stroke-linecap="round" stroke-linejoin="round" />
<path d="M 145.0 138.0 L 145.0 138.0 L 145.0 138.0 L 145.0 138.0 L 145.0 143.0 L 145.0 154.0 L 145.0 168.0 L 146.0 177.0 L 146.0 178.0 " stroke="black" fill="none" stroke-width="5.0" stroke-linecap="round" stroke-linejoin="round" />
<path d="M 159.0 135.0 L 159.0 135.0 L 159.0 137.0 L 159.0 141.0 L 161.0 152.0 L 163.0 169.0 L 165.0 182.0 L 165.0 187.0 L 165.0 187.0 " stroke="black" fill="none" stroke-width="5.0" stroke-linecap="round" stroke-linejoin="round" />
</svg>