<svg xmlns="http://www.w3.org/2000/svg" width="300" height="300" viewBox="0 0 300 300">
<path d="M 123.0 111.0 L 123.0 111.0 L 123.0 111.0 L 124.0 111.0 L 132.0 111.0 L 147.0 111.0 L 164.0 111.0 L 176.0 111.0 L 180.0 111.0 L 180.0 111.0 " stroke="black" fill="none" stroke-width="5.0" stroke-linecap="round" stroke-linejoin="round" />
<path d="M 155.0 115.0 L 155.0 116.0 L 155.0 116.0 L 154.0 117.0 L 152.0 119.0 L 148.0 123.0 L 143.0 129.0 " stroke="black" fill="none" stroke-width="5.0" stroke-linecap="round" stroke-linejoin="round" />
<path d="M 117.0 140.0 L 117.0 140.0 L 116.0 142.0 L 115.0 146.0 L 114.0 154.0 L 114.0 168.0 L 115.0 180.0 L 117.0 185.0 L 117.0 185.0 " stroke="black" fill="none" stroke-width="5.0" stroke-linecap="round" stroke-linejoin="round" />
<path d="M 120.0 136.0 L 120.0 136.0 L 122.0 136.0 L 124.0 135.0 L 131.0 135.0 L 142.0 134.0 L 155.0 133.0 L 167.0 133.0 L 175.0 133.0 L 181.0 135.0 L 185.0 140.0 L 188.0 147.0 L 190.0 157.0 L 193.0 170.0 L 195.0 181.0 L 195.0 189.0 L 195.0 192.0 L 193.0 194.0 L 187.0 194.0 L 177.0 192.0 " stroke="black" fill="none" stroke-width="5.0" stroke-linecap="round" stroke-linejoin="round" />
<path d="M 140.0 138.0 L 140.0 138.0 L 139.0 138.0 L 138.0 139.0 L 138.0 147.0 L 140.0 163.0 L 143.0 180.0 L 145.0 188.0 " stroke="black" fill="none" stroke-width="5.0" stroke-linecap="round" stroke-linejoin="round" />
<path d="M 154.0 133.0 L 154.0 133.0 L 154.0 135.0 L 156.0 142.0 L 160.0 159.0 L 164.0 180.0 L 166.0 194.0 L 167.0 198.0 L 167.0 198.0 " stroke="black" fill="none" stroke-width="5.0" stroke-linecap="round" stroke-linejoin="round" />
</svg>