<svg xmlns="http://www.w3.org/2000/svg" width="300" height="300" viewBox="0 0 300 300">
<path d="M 130.0 112.0 L 130.0 112.0 L 130.0 112.0 L 132.0 112.0 L 141.0 112.0 L 152.0 112.0 L 164.0 112.0 L 171.0 111.0 " stroke="black" fill="none" stroke-width="5.0" stroke-linecap="round" stroke-linejoin="round" />
<path d="M 155.0 115.0 L 155.0 115.0 L 155.0 115.0 L 155.0 116.0 L 154.0 117.0 L 152.0 120.0 L 148.0 125.0 " stroke="black" fill="none" stroke-width="5.0" stroke-linecap="round" stroke-linejoin="round" />
<path d="M 123.0 137.0 L 123.0 137.0 L 123.0 138.0 L 123.0 140.0 L 123.0 147.0 L 123.0 164.0 L 123.0 181.0 L 123.0 190.0 L 123.0 191.0 " stroke="black" fill="none" stroke-width="5.0" stroke-linecap="round" stroke-linejoin="round" />
<path d="M 126.0 130.0 L 126.0 130.0 L 126.0 130.0 L 128.0 130.0 L 134.0 130.0 L 144.0 129.0 L 155.0 129.0 L 164.0 129.0 L 169.0 130.0 L 173.0 132.0 L 176.0 135.0 L 180.0 143.0 L 184.0 156.0 L 187.0 169.0 L 189.0 177.0 L 189.0 182.0 L 189.0 184.0 L 186.0 185.0 L 180.0 185.0 L 169.0 183.0 " stroke="black" fill="none" stroke-width="5.0" stroke-linecap="round" stroke-linejoin="round" />
<path d="M 141.0 134.0 L 141.0 134.0 L 140.0 136.0 L 141.0 148.0 L 143.0 168.0 L 143.0 184.0 L 144.0 190.0 " stroke="black" fill="none" stroke-width="5.0" stroke-linecap="round" stroke-linejoin="round" />
<path d="M 155.0 130.0 L 156.0 130.0 L 156.0 130.0 L 157.0 135.0 L 159.0 151.0 L 162.0 171.0 L 163.0 183.0 L 164.0 185.0 " stroke="black" fill="none" stroke-width="5.0" stroke-linecap="round" stroke-linejoin="round" />
</svg>