<svg xmlns="http://www.w3.org/2000/svg" width="300" height="300" viewBox="0 0 300 300">
<path d="M 117.0 120.0 L 117.0 120.0 L 118.0 120.0 L 121.0 120.0 L 130.0 119.0 L 144.0 118.0 L 158.0 116.0 L 165.0 116.0 L 169.0 116.0 L 169.0 117.0 L 169.0 117.0 L 168.0 117.0 " stroke="black" fill="none" stroke-width="5.0" stroke-linecap="round" stroke-linejoin="round" />
<path d="M 148.0 122.0 L 148.0 122.0 L 148.0 122.0 L 148.0 122.0 L 148.0 123.0 L 148.0 126.0 L 144.0 131.0 L 137.0 140.0 L 135.0 142.0 " stroke="black" fill="none" stroke-width="5.0" stroke-linecap="round" stroke-linejoin="round" />
<path d="M 115.0 148.0 L 115.0 148.0 L 115.0 148.0 L 114.0 148.0 L 114.0 148.0 L 114.0 151.0 L 114.0 159.0 L 114.0 174.0 L 114.0 188.0 L 115.0 194.0 L 116.0 194.0 L 117.0 193.0 " stroke="black" fill="none" stroke-width="5.0" stroke-linecap="round" stroke-linejoin="round" />
<path d="M 118.0 149.0 L 118.0 148.0 L 119.0 148.0 L 122.0 146.0 L 129.0 145.0 L 141.0 144.0 L 153.0 144.0 L 162.0 144.0 L 169.0 144.0 L 174.0 144.0 L 176.0 146.0 L 179.0 151.0 L 183.0 160.0 L 186.0 172.0 L 189.0 183.0 L 190.0 191.0 L 190.0 195.0 L 190.0 196.0 L 189.0 197.0 L 183.0 197.0 L 173.0 195.0 L 171.0 193.0 " stroke="black" fill="none" stroke-width="5.0" stroke-linecap="round" stroke-linejoin="round" />
<path d="M 142.0 147.0 L 141.0 147.0 L 140.0 147.0 L 139.0 147.0 L 139.0 153.0 L 141.0 166.0 L 143.0 180.0 L 144.0 188.0 L 145.0 189.0 " stroke="black" fill="none" stroke-width="5.0" stroke-linecap="round" stroke-linejoin="round" />
<path d="M 152.0 150.0 L 152.0 149.0 L 152.0 148.0 L 152.0 147.0 L 152.0 147.0 L 153.0 149.0 L 154.0 155.0 L 154.0 165.0 L 155.0 179.0 L 156.0 190.0 L 157.0 195.0 " stroke="black" fill="none" stroke-width="5.0" stroke-linecap="round" stroke-linejoin="round" />
</svg>