<svg xmlns="http://www.w3.org/2000/svg" width="300" height="300" viewBox="0 0 300 300">
<path d="M 130.0 117.0 L 130.0 117.0 L 130.0 117.0 L 131.0 118.0 L 132.0 118.0 L 136.0 118.0 L 145.0 118.0 L 158.0 118.0 L 168.0 118.0 L 174.0 118.0 L 174.0 117.0 L 173.0 117.0 " stroke="black" fill="none" stroke-width="5.0" stroke-linecap="round" stroke-linejoin="round" />
<path d="M 153.0 125.0 L 153.0 125.0 L 153.0 126.0 L 153.0 126.0 L 153.0 127.0 L 151.0 130.0 L 147.0 134.0 L 145.0 137.0 " stroke="black" fill="none" stroke-width="5.0" stroke-linecap="round" stroke-linejoin="round" />
<path d="M 129.0 149.0 L 129.0 149.0 L 127.0 149.0 L 126.0 150.0 L 125.0 153.0 L 125.0 161.0 L 126.0 172.0 L 127.0 182.0 L 128.0 188.0 L 128.0 189.0 " stroke="black" fill="none" stroke-width="5.0" stroke-linecap="round" stroke-linejoin="round" />
<path d="M 130.0 146.0 L 130.0 146.0 L 130.0 145.0 L 131.0 145.0 L 136.0 145.0 L 146.0 145.0 L 157.0 144.0 L 166.0 143.0 L 173.0 142.0 L 177.0 144.0 L 181.0 147.0 L 184.0 152.0 L 187.0 158.0 L 190.0 167.0 L 192.0 178.0 L 193.0 187.0 L 193.0 192.0 L 193.0 193.0 L 192.0 193.0 L 186.0 193.0 L 176.0 191.0 L 171.0 189.0 " stroke="black" fill="none" stroke-width="5.0" stroke-linecap="round" stroke-linejoin="round" />
<path d="M 147.0 146.0 L 147.0 146.0 L 146.0 148.0 L 145.0 155.0 L 147.0 171.0 L 149.0 186.0 L 151.0 193.0 " stroke="black" fill="none" stroke-width="5.0" stroke-linecap="round" stroke-linejoin="round" />
<path d="M 164.0 145.0 L 164.0 145.0 L 164.0 146.0 L 166.0 154.0 L 169.0 169.0 L 171.0 184.0 L 172.0 193.0 L 172.0 194.0 " stroke="black" fill="none" stroke-width="5.0" stroke-linecap="round" stroke-linejoin="round" />
</svg>