<svg xmlns="http://www.w3.org/2000/svg" width="300" height="300" viewBox="0 0 300 300">
<path d="M 128.0 119.0 L 128.0 119.0 L 128.0 119.0 L 128.0 119.0 L 132.0 119.0 L 141.0 117.0 L 151.0 116.0 L 162.0 115.0 L 169.0 115.0 L 173.0 115.0 L 174.0 114.0 L 174.0 114.0 L 172.0 114.0 L 169.0 114.0 " stroke="black" fill="none" stroke-width="5.0" stroke-linecap="round" stroke-linejoin="round" />
<path d="M 152.0 122.0 L 152.0 122.0 L 152.0 123.0 L 152.0 124.0 L 150.0 126.0 L 148.0 130.0 L 145.0 135.0 " stroke="black" fill="none" stroke-width="5.0" stroke-linecap="round" stroke-linejoin="round" />
<path d="M 123.0 150.0 L 123.0 150.0 L 123.0 150.0 L 123.0 151.0 L 123.0 154.0 L 124.0 165.0 L 125.0 178.0 L 126.0 187.0 L 128.0 190.0 " stroke="black" fill="none" stroke-width="5.0" stroke-linecap="round" stroke-linejoin="round" />
<path d="M 124.0 146.0 L 124.0 146.0 L 125.0 146.0 L 126.0 146.0 L 131.0 145.0 L 142.0 145.0 L 154.0 144.0 L 164.0 143.0 L 170.0 143.0 L 174.0 142.0 L 176.0 142.0 L 178.0 143.0 L 180.0 148.0 L 183.0 156.0 L 185.0 167.0 L 188.0 177.0 L 189.0 185.0 L 189.0 189.0 L 189.0 191.0 L 187.0 191.0 L 182.0 191.0 L 166.0 186.0 " stroke="black" fill="none" stroke-width="5.0" stroke-linecap="round" stroke-linejoin="round" />
<path d="M 143.0 148.0 L 142.0 148.0 L 140.0 148.0 L 140.0 150.0 L 141.0 158.0 L 144.0 171.0 L 145.0 183.0 L 146.0 189.0 " stroke="black" fill="none" stroke-width="5.0" stroke-linecap="round" stroke-linejoin="round" />
<path d="M 158.0 146.0 L 158.0 146.0 L 158.0 147.0 L 158.0 150.0 L 160.0 161.0 L 162.0 178.0 L 164.0 193.0 L 164.0 198.0 " stroke="black" fill="none" stroke-width="5.0" stroke-linecap="round" stroke-linejoin="round" />
</svg>