<svg xmlns="http://www.w3.org/2000/svg" width="300" height="300" viewBox="0 0 300 300">
<path d="M 136.0 110.0 L 136.0 110.0 L 136.0 110.0 L 137.0 112.0 L 141.0 116.0 L 147.0 121.0 L 148.0 123.0 " stroke="black" fill="none" stroke-width="5.0" stroke-linecap="round" stroke-linejoin="round" />
<path d="M 120.0 134.0 L 121.0 134.0 L 123.0 134.0 L 129.0 134.0 L 141.0 133.0 L 155.0 131.0 L 166.0 131.0 L 172.0 132.0 L 173.0 134.0 " stroke="black" fill="none" stroke-width="5.0" stroke-linecap="round" stroke-linejoin="round" />
<path d="M 133.0 160.0 L 133.0 160.0 L 133.0 160.0 L 133.0 160.0 L 134.0 160.0 L 140.0 160.0 L 150.0 160.0 L 160.0 161.0 L 165.0 162.0 " stroke="black" fill="none" stroke-width="5.0" stroke-linecap="round" stroke-linejoin="round" />
<path d="M 107.0 189.0 L 107.0 189.0 L 108.0 189.0 L 111.0 190.0 L 124.0 190.0 L 146.0 191.0 L 165.0 191.0 L 179.0 193.0 L 185.0 194.0 " stroke="black" fill="none" stroke-width="5.0" stroke-linecap="round" stroke-linejoin="round" />
<path d="M 145.0 137.0 L 145.0 137.0 L 144.0 137.0 L 144.0 137.0 L 145.0 146.0 L 148.0 166.0 L 150.0 185.0 L 150.0 188.0 " stroke="black" fill="none" stroke-width="5.0" stroke-linecap="round" stroke-linejoin="round" />
</svg>