<svg xmlns="http://www.w3.org/2000/svg" width="300" height="300" viewBox="0 0 300 300">
<path d="M 132.0 107.0 L 132.0 107.0 L 132.0 107.0 L 132.0 107.0 L 132.0 108.0 L 132.0 111.0 L 128.0 115.0 L 124.0 120.0 L 119.0 124.0 L 116.0 126.0 L 113.0 130.0 L 113.0 137.0 L 112.0 151.0 L 110.0 169.0 L 107.0 185.0 L 104.0 196.0 L 102.0 199.0 L 102.0 199.0 " stroke="black" fill="none" stroke-width="5.0" stroke-linecap="round" stroke-linejoin="round" />
<path d="M 116.0 132.0 L 116.0 132.0 L 117.0 132.0 L 118.0 132.0 L 121.0 132.0 L 125.0 132.0 L 130.0 131.0 L 133.0 131.0 L 135.0 133.0 L 137.0 139.0 L 138.0 145.0 L 139.0 151.0 L 139.0 154.0 " stroke="black" fill="none" stroke-width="5.0" stroke-linecap="round" stroke-linejoin="round" />
<path d="M 111.0 150.0 L 111.0 150.0 L 111.0 150.0 L 111.0 150.0 L 116.0 150.0 L 127.0 150.0 L 139.0 150.0 L 141.0 150.0 " stroke="black" fill="none" stroke-width="5.0" stroke-linecap="round" stroke-linejoin="round" />
<path d="M 161.0 108.0 L 162.0 109.0 L 162.0 109.0 L 162.0 111.0 L 159.0 113.0 L 156.0 116.0 L 153.0 118.0 L 150.0 119.0 L 149.0 120.0 L 149.0 120.0 L 149.0 124.0 L 150.0 133.0 L 151.0 147.0 L 151.0 163.0 L 149.0 177.0 L 149.0 184.0 L 149.0 185.0 " stroke="black" fill="none" stroke-width="5.0" stroke-linecap="round" stroke-linejoin="round" />
<path d="M 155.0 133.0 L 156.0 133.0 L 156.0 133.0 L 159.0 133.0 L 165.0 133.0 L 174.0 133.0 L 181.0 134.0 L 184.0 135.0 L 185.0 136.0 " stroke="black" fill="none" stroke-width="5.0" stroke-linecap="round" stroke-linejoin="round" />
<path d="M 169.0 137.0 L 169.0 137.0 L 169.0 137.0 L 170.0 139.0 L 173.0 151.0 L 177.0 173.0 L 180.0 190.0 L 181.0 196.0 L 182.0 196.0 L 182.0 195.0 " stroke="black" fill="none" stroke-width="5.0" stroke-linecap="round" stroke-linejoin="round" />
</svg>