<svg xmlns="http://www.w3.org/2000/svg" width="300" height="300" viewBox="0 0 300 300">
<path d="M 117.0 109.0 L 117.0 109.0 L 117.0 109.0 L 117.0 109.0 L 117.0 109.0 L 117.0 109.0 L 117.0 109.0 L 119.0 109.0 L 124.0 109.0 L 129.0 109.0 L 133.0 109.0 L 136.0 109.0 L 137.0 109.0 " stroke="black" fill="none" stroke-width="5.0" stroke-linecap="round" stroke-linejoin="round" />
<path d="M 111.0 122.0 L 111.0 122.0 L 111.0 123.0 L 111.0 124.0 L 111.0 125.0 L 111.0 128.0 L 111.0 132.0 L 111.0 134.0 L 111.0 134.0 " stroke="black" fill="none" stroke-width="5.0" stroke-linecap="round" stroke-linejoin="round" />
<path d="M 111.0 122.0 L 111.0 122.0 L 111.0 122.0 L 111.0 122.0 L 113.0 122.0 L 116.0 121.0 L 122.0 121.0 L 128.0 121.0 L 134.0 121.0 L 139.0 121.0 L 143.0 123.0 L 146.0 125.0 L 147.0 127.0 L 147.0 131.0 L 146.0 134.0 L 146.0 135.0 " stroke="black" fill="none" stroke-width="5.0" stroke-linecap="round" stroke-linejoin="round" />
<path d="M 111.0 137.0 L 111.0 137.0 L 111.0 137.0 L 112.0 137.0 L 115.0 137.0 L 122.0 137.0 L 130.0 137.0 L 136.0 137.0 " stroke="black" fill="none" stroke-width="5.0" stroke-linecap="round" stroke-linejoin="round" />
<path d="M 123.0 112.0 L 123.0 112.0 L 124.0 112.0 L 124.0 113.0 L 124.0 114.0 L 124.0 118.0 L 124.0 124.0 L 124.0 130.0 L 123.0 134.0 " stroke="black" fill="none" stroke-width="5.0" stroke-linecap="round" stroke-linejoin="round" />
<path d="M 132.0 111.0 L 132.0 112.0 L 132.0 113.0 L 132.0 115.0 L 132.0 119.0 L 132.0 125.0 L 132.0 131.0 L 132.0 132.0 " stroke="black" fill="none" stroke-width="5.0" stroke-linecap="round" stroke-linejoin="round" />
<path d="M 118.0 147.0 L 119.0 147.0 L 120.0 147.0 L 121.0 147.0 L 124.0 147.0 L 129.0 147.0 L 135.0 147.0 L 137.0 147.0 " stroke="black" fill="none" stroke-width="5.0" stroke-linecap="round" stroke-linejoin="round" />
<path d="M 110.0 159.0 L 110.0 159.0 L 111.0 159.0 L 113.0 159.0 L 118.0 159.0 L 127.0 159.0 L 137.0 160.0 L 145.0 160.0 L 148.0 160.0 L 148.0 160.0 L 148.0 160.0 " stroke="black" fill="none" stroke-width="5.0" stroke-linecap="round" stroke-linejoin="round" />
<path d="M 127.0 158.0 L 127.0 158.0 L 127.0 158.0 L 127.0 158.0 L 127.0 159.0 L 128.0 163.0 L 128.0 172.0 L 128.0 184.0 L 128.0 192.0 L 129.0 197.0 L 129.0 197.0 " stroke="black" fill="none" stroke-width="5.0" stroke-linecap="round" stroke-linejoin="round" />
<path d="M 122.0 166.0 L 122.0 166.0 L 122.0 167.0 L 121.0 167.0 L 120.0 168.0 L 117.0 172.0 L 114.0 179.0 L 111.0 186.0 L 109.0 189.0 " stroke="black" fill="none" stroke-width="5.0" stroke-linecap="round" stroke-linejoin="round" />
<path d="M 129.0 172.0 L 130.0 172.0 L 132.0 172.0 L 136.0 176.0 L 141.0 181.0 L 146.0 187.0 L 147.0 189.0 " stroke="black" fill="none" stroke-width="5.0" stroke-linecap="round" stroke-linejoin="round" />
<path d="M 158.0 115.0 L 158.0 115.0 L 158.0 115.0 L 158.0 116.0 L 158.0 118.0 L 158.0 127.0 L 158.0 144.0 L 156.0 165.0 L 154.0 182.0 L 151.0 190.0 L 151.0 193.0 L 151.0 193.0 " stroke="black" fill="none" stroke-width="5.0" stroke-linecap="round" stroke-linejoin="round" />
<path d="M 161.0 116.0 L 162.0 116.0 L 162.0 116.0 L 164.0 116.0 L 168.0 116.0 L 174.0 116.0 L 182.0 115.0 L 187.0 115.0 L 190.0 116.0 L 192.0 122.0 L 192.0 134.0 L 193.0 150.0 L 195.0 165.0 L 199.0 178.0 L 203.0 184.0 L 207.0 186.0 L 209.0 186.0 L 211.0 183.0 L 211.0 182.0 " stroke="black" fill="none" stroke-width="5.0" stroke-linecap="round" stroke-linejoin="round" />
<path d="M 169.0 131.0 L 170.0 131.0 L 171.0 131.0 L 172.0 131.0 L 174.0 131.0 L 176.0 132.0 L 179.0 132.0 L 182.0 132.0 L 183.0 133.0 " stroke="black" fill="none" stroke-width="5.0" stroke-linecap="round" stroke-linejoin="round" />
<path d="M 167.0 143.0 L 167.0 143.0 L 167.0 143.0 L 167.0 144.0 L 167.0 147.0 L 167.0 151.0 L 167.0 153.0 L 167.0 154.0 " stroke="black" fill="none" stroke-width="5.0" stroke-linecap="round" stroke-linejoin="round" />
<path d="M 168.0 144.0 L 170.0 144.0 L 171.0 144.0 L 173.0 144.0 L 176.0 144.0 L 179.0 144.0 L 182.0 146.0 L 183.0 148.0 L 183.0 150.0 L 181.0 154.0 L 180.0 155.0 " stroke="black" fill="none" stroke-width="5.0" stroke-linecap="round" stroke-linejoin="round" />
<path d="M 170.0 156.0 L 170.0 156.0 L 171.0 156.0 L 172.0 156.0 L 175.0 157.0 L 180.0 157.0 L 183.0 157.0 " stroke="black" fill="none" stroke-width="5.0" stroke-linecap="round" stroke-linejoin="round" />
<path d="M 177.0 137.0 L 177.0 136.0 L 176.0 136.0 L 176.0 137.0 L 175.0 142.0 L 175.0 153.0 L 175.0 164.0 L 175.0 172.0 L 175.0 175.0 L 175.0 175.0 " stroke="black" fill="none" stroke-width="5.0" stroke-linecap="round" stroke-linejoin="round" />
<path d="M 164.0 175.0 L 165.0 176.0 L 165.0 176.0 L 168.0 177.0 L 174.0 177.0 L 182.0 177.0 L 188.0 177.0 L 189.0 177.0 " stroke="black" fill="none" stroke-width="5.0" stroke-linecap="round" stroke-linejoin="round" />
<path d="M 190.0 171.0 L 190.0 171.0 L 190.0 171.0 L 191.0 172.0 L 192.0 175.0 L 194.0 182.0 L 196.0 185.0 " stroke="black" fill="none" stroke-width="5.0" stroke-linecap="round" stroke-linejoin="round" />
</svg>