<svg xmlns="http://www.w3.org/2000/svg" width="300" height="300" viewBox="0 0 300 300">
<path d="M 117.0 111.0 L 119.0 111.0 L 121.0 111.0 L 124.0 110.0 L 128.0 110.0 L 134.0 110.0 L 139.0 110.0 L 142.0 111.0 " stroke="black" fill="none" stroke-width="5.0" stroke-linecap="round" stroke-linejoin="round" />
<path d="M 114.0 127.0 L 114.0 127.0 L 114.0 128.0 L 114.0 130.0 L 114.0 133.0 L 115.0 137.0 L 115.0 139.0 " stroke="black" fill="none" stroke-width="5.0" stroke-linecap="round" stroke-linejoin="round" />
<path d="M 112.0 126.0 L 115.0 126.0 L 117.0 126.0 L 120.0 126.0 L 124.0 125.0 L 131.0 124.0 L 137.0 124.0 L 142.0 124.0 L 144.0 124.0 L 146.0 127.0 L 146.0 131.0 L 146.0 134.0 L 146.0 137.0 " stroke="black" fill="none" stroke-width="5.0" stroke-linecap="round" stroke-linejoin="round" />
<path d="M 111.0 142.0 L 111.0 142.0 L 113.0 142.0 L 114.0 142.0 L 117.0 142.0 L 124.0 142.0 L 132.0 142.0 L 139.0 143.0 L 141.0 143.0 " stroke="black" fill="none" stroke-width="5.0" stroke-linecap="round" stroke-linejoin="round" />
<path d="M 123.0 115.0 L 124.0 115.0 L 124.0 115.0 L 125.0 116.0 L 125.0 123.0 L 125.0 132.0 L 125.0 141.0 L 125.0 144.0 " stroke="black" fill="none" stroke-width="5.0" stroke-linecap="round" stroke-linejoin="round" />
<path d="M 134.0 114.0 L 134.0 118.0 L 134.0 124.0 L 134.0 132.0 L 135.0 138.0 " stroke="black" fill="none" stroke-width="5.0" stroke-linecap="round" stroke-linejoin="round" />
<path d="M 115.0 153.0 L 117.0 153.0 L 118.0 154.0 L 120.0 154.0 L 122.0 154.0 L 128.0 154.0 L 133.0 154.0 L 137.0 154.0 L 138.0 154.0 " stroke="black" fill="none" stroke-width="5.0" stroke-linecap="round" stroke-linejoin="round" />
<path d="M 111.0 163.0 L 112.0 164.0 L 114.0 164.0 L 117.0 165.0 L 122.0 165.0 L 129.0 164.0 L 137.0 163.0 L 142.0 163.0 L 144.0 163.0 L 144.0 163.0 " stroke="black" fill="none" stroke-width="5.0" stroke-linecap="round" stroke-linejoin="round" />
<path d="M 125.0 164.0 L 125.0 164.0 L 126.0 164.0 L 126.0 165.0 L 126.0 166.0 L 126.0 170.0 L 126.0 177.0 L 126.0 187.0 L 127.0 194.0 L 128.0 197.0 L 128.0 196.0 " stroke="black" fill="none" stroke-width="5.0" stroke-linecap="round" stroke-linejoin="round" />
<path d="M 122.0 172.0 L 122.0 172.0 L 124.0 172.0 L 124.0 172.0 L 124.0 173.0 L 121.0 176.0 L 117.0 180.0 L 112.0 186.0 L 110.0 188.0 L 108.0 190.0 L 106.0 192.0 " stroke="black" fill="none" stroke-width="5.0" stroke-linecap="round" stroke-linejoin="round" />
<path d="M 128.0 173.0 L 129.0 173.0 L 132.0 175.0 L 133.0 176.0 L 135.0 177.0 L 140.0 181.0 L 145.0 185.0 L 147.0 187.0 " stroke="black" fill="none" stroke-width="5.0" stroke-linecap="round" stroke-linejoin="round" />
<path d="M 156.0 124.0 L 156.0 124.0 L 157.0 124.0 L 157.0 126.0 L 157.0 131.0 L 157.0 143.0 L 156.0 162.0 L 153.0 180.0 L 150.0 193.0 L 150.0 196.0 " stroke="black" fill="none" stroke-width="5.0" stroke-linecap="round" stroke-linejoin="round" />
<path d="M 157.0 126.0 L 158.0 126.0 L 159.0 125.0 L 160.0 125.0 L 161.0 124.0 L 163.0 124.0 L 166.0 124.0 L 172.0 125.0 L 178.0 126.0 L 184.0 127.0 L 189.0 128.0 L 191.0 129.0 L 192.0 130.0 L 192.0 135.0 L 192.0 145.0 L 192.0 158.0 L 192.0 171.0 L 194.0 182.0 L 197.0 190.0 L 202.0 196.0 L 207.0 199.0 L 211.0 200.0 L 215.0 200.0 L 218.0 198.0 L 220.0 194.0 " stroke="black" fill="none" stroke-width="5.0" stroke-linecap="round" stroke-linejoin="round" />
<path d="M 168.0 143.0 L 168.0 143.0 L 169.0 143.0 L 170.0 143.0 L 172.0 143.0 L 176.0 144.0 L 181.0 144.0 L 184.0 145.0 " stroke="black" fill="none" stroke-width="5.0" stroke-linecap="round" stroke-linejoin="round" />
<path d="M 164.0 154.0 L 164.0 154.0 L 164.0 155.0 L 164.0 156.0 L 164.0 157.0 L 165.0 160.0 L 166.0 162.0 L 166.0 163.0 L 166.0 163.0 L 166.0 163.0 " stroke="black" fill="none" stroke-width="5.0" stroke-linecap="round" stroke-linejoin="round" />
<path d="M 167.0 155.0 L 169.0 155.0 L 171.0 155.0 L 173.0 155.0 L 176.0 155.0 L 180.0 155.0 L 184.0 156.0 L 186.0 157.0 L 187.0 160.0 L 187.0 162.0 L 186.0 165.0 L 185.0 166.0 " stroke="black" fill="none" stroke-width="5.0" stroke-linecap="round" stroke-linejoin="round" />
<path d="M 167.0 166.0 L 168.0 166.0 L 169.0 167.0 L 171.0 168.0 L 173.0 169.0 L 176.0 169.0 L 181.0 169.0 L 182.0 169.0 " stroke="black" fill="none" stroke-width="5.0" stroke-linecap="round" stroke-linejoin="round" />
<path d="M 177.0 149.0 L 177.0 149.0 L 177.0 148.0 L 177.0 148.0 L 177.0 151.0 L 176.0 158.0 L 176.0 168.0 L 176.0 176.0 L 176.0 180.0 " stroke="black" fill="none" stroke-width="5.0" stroke-linecap="round" stroke-linejoin="round" />
<path d="M 163.0 184.0 L 164.0 184.0 L 166.0 184.0 L 167.0 184.0 L 171.0 183.0 L 176.0 183.0 L 181.0 183.0 L 184.0 183.0 " stroke="black" fill="none" stroke-width="5.0" stroke-linecap="round" stroke-linejoin="round" />
<path d="M 184.0 177.0 L 184.0 179.0 L 184.0 182.0 L 184.0 184.0 L 185.0 188.0 L 186.0 192.0 " stroke="black" fill="none" stroke-width="5.0" stroke-linecap="round" stroke-linejoin="round" />
</svg>