<svg xmlns="http://www.w3.org/2000/svg" width="300" height="300" viewBox="0 0 300 300">
<path d="M 116.0 127.0 L 116.0 128.0 L 116.0 128.0 L 116.0 130.0 L 116.0 132.0 L 118.0 134.0 L 118.0 136.0 " stroke="black" fill="none" stroke-width="5.0" stroke-linecap="round" stroke-linejoin="round" />
<path d="M 112.0 152.0 L 113.0 152.0 L 114.0 152.0 L 119.0 152.0 L 122.0 152.0 L 124.0 153.0 L 125.0 156.0 L 124.0 160.0 L 120.0 164.0 L 117.0 167.0 L 115.0 171.0 L 114.0 176.0 L 114.0 180.0 L 114.0 183.0 L 115.0 185.0 L 115.0 186.0 " stroke="black" fill="none" stroke-width="5.0" stroke-linecap="round" stroke-linejoin="round" />
<path d="M 104.0 195.0 L 103.0 195.0 L 103.0 195.0 L 103.0 195.0 L 103.0 194.0 L 107.0 192.0 L 114.0 191.0 L 122.0 190.0 L 131.0 192.0 L 140.0 197.0 L 151.0 202.0 L 164.0 205.0 L 178.0 205.0 L 187.0 203.0 L 193.0 199.0 " stroke="black" fill="none" stroke-width="5.0" stroke-linecap="round" stroke-linejoin="round" />
<path d="M 139.0 137.0 L 139.0 137.0 L 139.0 137.0 L 139.0 137.0 L 141.0 137.0 L 148.0 137.0 L 155.0 137.0 L 157.0 137.0 " stroke="black" fill="none" stroke-width="5.0" stroke-linecap="round" stroke-linejoin="round" />
<path d="M 147.0 120.0 L 147.0 120.0 L 146.0 120.0 L 146.0 122.0 L 146.0 129.0 L 149.0 144.0 L 151.0 162.0 L 152.0 176.0 L 152.0 183.0 L 152.0 184.0 L 152.0 183.0 L 148.0 181.0 L 141.0 177.0 L 134.0 172.0 L 133.0 172.0 " stroke="black" fill="none" stroke-width="5.0" stroke-linecap="round" stroke-linejoin="round" />
<path d="M 135.0 159.0 L 135.0 159.0 L 135.0 159.0 L 135.0 159.0 L 138.0 159.0 L 143.0 157.0 L 149.0 154.0 L 153.0 153.0 " stroke="black" fill="none" stroke-width="5.0" stroke-linecap="round" stroke-linejoin="round" />
<path d="M 180.0 125.0 L 180.0 126.0 L 179.0 127.0 L 178.0 129.0 L 176.0 132.0 L 173.0 134.0 L 170.0 136.0 L 168.0 137.0 L 166.0 137.0 L 166.0 137.0 L 166.0 140.0 L 166.0 146.0 L 165.0 155.0 L 164.0 166.0 L 164.0 176.0 L 163.0 180.0 " stroke="black" fill="none" stroke-width="5.0" stroke-linecap="round" stroke-linejoin="round" />
<path d="M 167.0 148.0 L 167.0 148.0 L 168.0 148.0 L 173.0 148.0 L 181.0 146.0 L 188.0 144.0 L 192.0 144.0 L 193.0 144.0 " stroke="black" fill="none" stroke-width="5.0" stroke-linecap="round" stroke-linejoin="round" />
<path d="M 181.0 147.0 L 181.0 148.0 L 181.0 150.0 L 181.0 155.0 L 182.0 165.0 L 184.0 176.0 L 185.0 185.0 L 186.0 189.0 " stroke="black" fill="none" stroke-width="5.0" stroke-linecap="round" stroke-linejoin="round" />
</svg>