<svg xmlns="http://www.w3.org/2000/svg" width="300" height="300" viewBox="0 0 300 300">
<path d="M 122.0 118.0 L 122.0 118.0 L 122.0 118.0 L 122.0 119.0 L 124.0 119.0 L 128.0 119.0 L 136.0 119.0 L 141.0 119.0 " stroke="black" fill="none" stroke-width="5.0" stroke-linecap="round" stroke-linejoin="round" />
<path d="M 113.0 138.0 L 113.0 138.0 L 113.0 138.0 L 115.0 138.0 L 122.0 138.0 L 134.0 138.0 L 145.0 138.0 L 151.0 138.0 " stroke="black" fill="none" stroke-width="5.0" stroke-linecap="round" stroke-linejoin="round" />
<path d="M 131.0 108.0 L 131.0 108.0 L 131.0 108.0 L 130.0 108.0 L 130.0 112.0 L 131.0 120.0 L 131.0 130.0 L 131.0 134.0 " stroke="black" fill="none" stroke-width="5.0" stroke-linecap="round" stroke-linejoin="round" />
<path d="M 149.0 109.0 L 149.0 109.0 L 149.0 109.0 L 149.0 109.0 L 149.0 110.0 L 146.0 116.0 L 139.0 130.0 L 127.0 147.0 L 115.0 160.0 L 109.0 168.0 L 108.0 168.0 " stroke="black" fill="none" stroke-width="5.0" stroke-linecap="round" stroke-linejoin="round" />
<path d="M 128.0 150.0 L 128.0 150.0 L 128.0 150.0 L 128.0 150.0 L 128.0 150.0 L 130.0 150.0 L 135.0 150.0 L 141.0 150.0 L 144.0 151.0 L 146.0 151.0 L 146.0 153.0 L 143.0 156.0 L 139.0 160.0 L 135.0 164.0 L 134.0 170.0 L 138.0 183.0 L 142.0 189.0 L 145.0 194.0 L 146.0 197.0 L 146.0 198.0 L 143.0 199.0 L 137.0 200.0 L 130.0 197.0 L 128.0 196.0 " stroke="black" fill="none" stroke-width="5.0" stroke-linecap="round" stroke-linejoin="round" />
<path d="M 117.0 179.0 L 117.0 179.0 L 118.0 179.0 L 118.0 179.0 L 120.0 178.0 L 127.0 178.0 L 137.0 178.0 L 147.0 178.0 L 153.0 178.0 L 154.0 178.0 " stroke="black" fill="none" stroke-width="5.0" stroke-linecap="round" stroke-linejoin="round" />
<path d="M 162.0 113.0 L 163.0 112.0 L 163.0 112.0 L 164.0 112.0 L 164.0 112.0 L 164.0 114.0 L 162.0 123.0 L 157.0 137.0 L 152.0 150.0 L 150.0 153.0 " stroke="black" fill="none" stroke-width="5.0" stroke-linecap="round" stroke-linejoin="round" />
<path d="M 159.0 132.0 L 160.0 132.0 L 161.0 132.0 L 162.0 132.0 L 166.0 132.0 L 173.0 132.0 L 182.0 132.0 L 187.0 132.0 L 188.0 134.0 " stroke="black" fill="none" stroke-width="5.0" stroke-linecap="round" stroke-linejoin="round" />
<path d="M 176.0 136.0 L 176.0 136.0 L 175.0 136.0 L 175.0 136.0 L 174.0 144.0 L 170.0 158.0 L 164.0 177.0 L 158.0 189.0 L 154.0 195.0 " stroke="black" fill="none" stroke-width="5.0" stroke-linecap="round" stroke-linejoin="round" />
<path d="M 159.0 153.0 L 159.0 153.0 L 159.0 153.0 L 159.0 153.0 L 162.0 157.0 L 170.0 170.0 L 181.0 186.0 L 189.0 197.0 L 192.0 202.0 L 192.0 204.0 L 192.0 204.0 " stroke="black" fill="none" stroke-width="5.0" stroke-linecap="round" stroke-linejoin="round" />
</svg>