<svg xmlns="http://www.w3.org/2000/svg" width="300" height="300" viewBox="0 0 300 300">
<path d="M 122.0 114.0 L 122.0 114.0 L 122.0 114.0 L 122.0 113.0 L 122.0 113.0 L 126.0 113.0 L 133.0 113.0 L 140.0 113.0 L 144.0 114.0 " stroke="black" fill="none" stroke-width="5.0" stroke-linecap="round" stroke-linejoin="round" />
<path d="M 113.0 133.0 L 113.0 133.0 L 114.0 133.0 L 115.0 133.0 L 122.0 133.0 L 133.0 131.0 L 143.0 130.0 L 149.0 130.0 L 150.0 130.0 " stroke="black" fill="none" stroke-width="5.0" stroke-linecap="round" stroke-linejoin="round" />
<path d="M 132.0 104.0 L 132.0 104.0 L 132.0 104.0 L 132.0 104.0 L 132.0 105.0 L 133.0 113.0 L 133.0 123.0 L 134.0 132.0 " stroke="black" fill="none" stroke-width="5.0" stroke-linecap="round" stroke-linejoin="round" />
<path d="M 150.0 105.0 L 150.0 105.0 L 150.0 105.0 L 149.0 106.0 L 146.0 111.0 L 140.0 121.0 L 129.0 136.0 L 116.0 151.0 L 108.0 161.0 L 106.0 163.0 " stroke="black" fill="none" stroke-width="5.0" stroke-linecap="round" stroke-linejoin="round" />
<path d="M 125.0 142.0 L 125.0 142.0 L 126.0 142.0 L 126.0 142.0 L 126.0 142.0 L 130.0 142.0 L 135.0 142.0 L 141.0 142.0 L 144.0 143.0 L 145.0 144.0 L 143.0 148.0 L 137.0 154.0 L 133.0 159.0 L 131.0 163.0 L 132.0 167.0 L 136.0 173.0 L 140.0 178.0 L 143.0 183.0 L 144.0 185.0 L 144.0 186.0 L 141.0 188.0 L 134.0 188.0 L 125.0 187.0 " stroke="black" fill="none" stroke-width="5.0" stroke-linecap="round" stroke-linejoin="round" />
<path d="M 114.0 168.0 L 114.0 168.0 L 115.0 168.0 L 117.0 168.0 L 125.0 168.0 L 139.0 166.0 L 150.0 164.0 L 152.0 164.0 " stroke="black" fill="none" stroke-width="5.0" stroke-linecap="round" stroke-linejoin="round" />
<path d="M 164.0 105.0 L 164.0 105.0 L 164.0 105.0 L 164.0 105.0 L 163.0 109.0 L 159.0 122.0 L 154.0 139.0 L 152.0 144.0 " stroke="black" fill="none" stroke-width="5.0" stroke-linecap="round" stroke-linejoin="round" />
<path d="M 160.0 123.0 L 160.0 123.0 L 160.0 123.0 L 162.0 123.0 L 168.0 123.0 L 175.0 123.0 L 181.0 124.0 L 183.0 126.0 " stroke="black" fill="none" stroke-width="5.0" stroke-linecap="round" stroke-linejoin="round" />
<path d="M 177.0 132.0 L 177.0 132.0 L 176.0 133.0 L 176.0 133.0 L 176.0 135.0 L 176.0 141.0 L 176.0 153.0 L 174.0 171.0 L 169.0 187.0 L 165.0 195.0 L 164.0 196.0 " stroke="black" fill="none" stroke-width="5.0" stroke-linecap="round" stroke-linejoin="round" />
<path d="M 158.0 151.0 L 158.0 151.0 L 158.0 151.0 L 159.0 151.0 L 166.0 159.0 L 178.0 177.0 L 189.0 192.0 L 195.0 198.0 L 196.0 199.0 L 196.0 199.0 " stroke="black" fill="none" stroke-width="5.0" stroke-linecap="round" stroke-linejoin="round" />
</svg>