<svg xmlns="http://www.w3.org/2000/svg" width="300" height="300" viewBox="0 0 300 300">
<path d="M 134.0 109.0 L 134.0 109.0 L 134.0 109.0 L 134.0 109.0 L 134.0 109.0 L 138.0 109.0 L 148.0 108.0 L 160.0 108.0 L 169.0 108.0 L 171.0 108.0 " stroke="black" fill="none" stroke-width="5.0" stroke-linecap="round" stroke-linejoin="round" />
<path d="M 118.0 125.0 L 118.0 125.0 L 118.0 126.0 L 118.0 130.0 L 118.0 137.0 L 119.0 142.0 L 120.0 144.0 " stroke="black" fill="none" stroke-width="5.0" stroke-linecap="round" stroke-linejoin="round" />
<path d="M 116.0 128.0 L 117.0 128.0 L 118.0 128.0 L 121.0 128.0 L 127.0 127.0 L 140.0 126.0 L 154.0 125.0 L 167.0 125.0 L 177.0 125.0 L 182.0 128.0 L 185.0 131.0 L 187.0 135.0 L 188.0 139.0 L 188.0 143.0 L 186.0 148.0 L 186.0 149.0 " stroke="black" fill="none" stroke-width="5.0" stroke-linecap="round" stroke-linejoin="round" />
<path d="M 149.0 109.0 L 149.0 109.0 L 149.0 109.0 L 149.0 111.0 L 149.0 117.0 L 151.0 129.0 L 152.0 139.0 L 153.0 142.0 " stroke="black" fill="none" stroke-width="5.0" stroke-linecap="round" stroke-linejoin="round" />
<path d="M 133.0 135.0 L 133.0 136.0 L 134.0 136.0 L 135.0 137.0 L 137.0 137.0 L 140.0 138.0 L 142.0 139.0 " stroke="black" fill="none" stroke-width="5.0" stroke-linecap="round" stroke-linejoin="round" />
<path d="M 131.0 148.0 L 131.0 148.0 L 131.0 148.0 L 133.0 148.0 L 137.0 148.0 L 142.0 147.0 " stroke="black" fill="none" stroke-width="5.0" stroke-linecap="round" stroke-linejoin="round" />
<path d="M 159.0 134.0 L 159.0 134.0 L 159.0 135.0 L 160.0 135.0 L 161.0 135.0 L 165.0 135.0 L 169.0 133.0 L 169.0 133.0 " stroke="black" fill="none" stroke-width="5.0" stroke-linecap="round" stroke-linejoin="round" />
<path d="M 163.0 142.0 L 163.0 142.0 L 164.0 143.0 L 166.0 144.0 L 170.0 145.0 L 172.0 146.0 " stroke="black" fill="none" stroke-width="5.0" stroke-linecap="round" stroke-linejoin="round" />
<path d="M 121.0 167.0 L 121.0 167.0 L 121.0 168.0 L 122.0 168.0 L 127.0 169.0 L 136.0 168.0 L 143.0 167.0 " stroke="black" fill="none" stroke-width="5.0" stroke-linecap="round" stroke-linejoin="round" />
<path d="M 133.0 155.0 L 132.0 155.0 L 131.0 156.0 L 130.0 158.0 L 130.0 163.0 L 132.0 175.0 L 133.0 190.0 L 133.0 204.0 L 133.0 211.0 L 133.0 213.0 L 133.0 213.0 " stroke="black" fill="none" stroke-width="5.0" stroke-linecap="round" stroke-linejoin="round" />
<path d="M 133.0 174.0 L 132.0 174.0 L 131.0 174.0 L 129.0 175.0 L 127.0 179.0 L 121.0 186.0 L 113.0 196.0 L 109.0 201.0 " stroke="black" fill="none" stroke-width="5.0" stroke-linecap="round" stroke-linejoin="round" />
<path d="M 137.0 181.0 L 139.0 182.0 L 143.0 186.0 L 150.0 188.0 L 154.0 189.0 " stroke="black" fill="none" stroke-width="5.0" stroke-linecap="round" stroke-linejoin="round" />
<path d="M 159.0 157.0 L 159.0 158.0 L 159.0 160.0 L 159.0 163.0 L 159.0 174.0 L 159.0 189.0 L 159.0 202.0 L 159.0 208.0 L 159.0 208.0 " stroke="black" fill="none" stroke-width="5.0" stroke-linecap="round" stroke-linejoin="round" />
<path d="M 157.0 157.0 L 157.0 157.0 L 158.0 157.0 L 159.0 157.0 L 161.0 157.0 L 165.0 157.0 L 171.0 157.0 L 175.0 157.0 L 178.0 159.0 L 181.0 164.0 L 184.0 173.0 L 187.0 185.0 L 189.0 196.0 L 189.0 201.0 L 190.0 203.0 L 189.0 203.0 " stroke="black" fill="none" stroke-width="5.0" stroke-linecap="round" stroke-linejoin="round" />
<path d="M 159.0 177.0 L 160.0 177.0 L 162.0 176.0 L 165.0 176.0 L 170.0 176.0 L 176.0 175.0 L 180.0 174.0 L 182.0 174.0 " stroke="black" fill="none" stroke-width="5.0" stroke-linecap="round" stroke-linejoin="round" />
<path d="M 161.0 187.0 L 162.0 187.0 L 163.0 187.0 L 165.0 187.0 L 171.0 187.0 L 177.0 187.0 L 181.0 187.0 L 182.0 187.0 " stroke="black" fill="none" stroke-width="5.0" stroke-linecap="round" stroke-linejoin="round" />
<path d="M 155.0 206.0 L 156.0 207.0 L 158.0 208.0 L 163.0 209.0 L 174.0 209.0 L 185.0 208.0 L 190.0 207.0 " stroke="black" fill="none" stroke-width="5.0" stroke-linecap="round" stroke-linejoin="round" />
</svg>