<svg xmlns="http://www.w3.org/2000/svg" width="300" height="300" viewBox="0 0 300 300">
<path d="M 134.0 103.0 L 134.0 103.0 L 135.0 103.0 L 137.0 103.0 L 142.0 103.0 L 150.0 103.0 L 159.0 102.0 L 165.0 102.0 L 166.0 102.0 " stroke="black" fill="none" stroke-width="5.0" stroke-linecap="round" stroke-linejoin="round" />
<path d="M 122.0 121.0 L 122.0 121.0 L 122.0 122.0 L 122.0 123.0 L 122.0 128.0 L 122.0 132.0 L 122.0 133.0 " stroke="black" fill="none" stroke-width="5.0" stroke-linecap="round" stroke-linejoin="round" />
<path d="M 121.0 118.0 L 121.0 118.0 L 122.0 118.0 L 123.0 118.0 L 127.0 118.0 L 135.0 118.0 L 146.0 118.0 L 158.0 118.0 L 166.0 118.0 L 174.0 118.0 L 179.0 118.0 L 181.0 118.0 L 184.0 118.0 L 185.0 119.0 L 186.0 120.0 L 187.0 123.0 L 188.0 128.0 L 189.0 132.0 L 189.0 137.0 L 189.0 139.0 " stroke="black" fill="none" stroke-width="5.0" stroke-linecap="round" stroke-linejoin="round" />
<path d="M 151.0 104.0 L 151.0 104.0 L 151.0 106.0 L 151.0 108.0 L 151.0 114.0 L 152.0 122.0 L 154.0 131.0 L 154.0 133.0 " stroke="black" fill="none" stroke-width="5.0" stroke-linecap="round" stroke-linejoin="round" />
<path d="M 135.0 125.0 L 135.0 126.0 L 135.0 127.0 L 137.0 128.0 L 140.0 128.0 L 143.0 129.0 " stroke="black" fill="none" stroke-width="5.0" stroke-linecap="round" stroke-linejoin="round" />
<path d="M 132.0 138.0 L 132.0 138.0 L 133.0 138.0 L 135.0 138.0 L 140.0 136.0 L 141.0 136.0 " stroke="black" fill="none" stroke-width="5.0" stroke-linecap="round" stroke-linejoin="round" />
<path d="M 166.0 128.0 L 167.0 128.0 L 169.0 129.0 L 170.0 129.0 L 172.0 129.0 L 175.0 127.0 L 177.0 126.0 " stroke="black" fill="none" stroke-width="5.0" stroke-linecap="round" stroke-linejoin="round" />
<path d="M 169.0 132.0 L 171.0 134.0 L 174.0 136.0 L 177.0 137.0 L 181.0 139.0 " stroke="black" fill="none" stroke-width="5.0" stroke-linecap="round" stroke-linejoin="round" />
<path d="M 124.0 157.0 L 124.0 157.0 L 124.0 157.0 L 124.0 157.0 L 129.0 158.0 L 138.0 158.0 L 146.0 159.0 L 149.0 159.0 " stroke="black" fill="none" stroke-width="5.0" stroke-linecap="round" stroke-linejoin="round" />
<path d="M 136.0 146.0 L 136.0 146.0 L 135.0 147.0 L 135.0 150.0 L 135.0 158.0 L 136.0 171.0 L 138.0 186.0 L 138.0 193.0 L 139.0 195.0 L 139.0 194.0 " stroke="black" fill="none" stroke-width="5.0" stroke-linecap="round" stroke-linejoin="round" />
<path d="M 138.0 162.0 L 137.0 162.0 L 136.0 163.0 L 135.0 164.0 L 132.0 168.0 L 127.0 174.0 L 120.0 183.0 L 115.0 189.0 " stroke="black" fill="none" stroke-width="5.0" stroke-linecap="round" stroke-linejoin="round" />
<path d="M 137.0 171.0 L 138.0 171.0 L 139.0 172.0 L 143.0 176.0 L 149.0 180.0 L 154.0 183.0 " stroke="black" fill="none" stroke-width="5.0" stroke-linecap="round" stroke-linejoin="round" />
<path d="M 159.0 148.0 L 159.0 148.0 L 159.0 148.0 L 158.0 153.0 L 158.0 163.0 L 158.0 179.0 L 158.0 190.0 L 158.0 193.0 L 158.0 193.0 " stroke="black" fill="none" stroke-width="5.0" stroke-linecap="round" stroke-linejoin="round" />
<path d="M 156.0 150.0 L 157.0 150.0 L 157.0 150.0 L 159.0 149.0 L 161.0 149.0 L 164.0 149.0 L 167.0 149.0 L 170.0 150.0 L 172.0 153.0 L 175.0 159.0 L 178.0 170.0 L 181.0 183.0 L 183.0 192.0 L 183.0 195.0 L 183.0 195.0 L 182.0 192.0 " stroke="black" fill="none" stroke-width="5.0" stroke-linecap="round" stroke-linejoin="round" />
<path d="M 159.0 165.0 L 159.0 165.0 L 159.0 165.0 L 161.0 165.0 L 166.0 165.0 L 171.0 165.0 L 174.0 165.0 L 175.0 166.0 " stroke="black" fill="none" stroke-width="5.0" stroke-linecap="round" stroke-linejoin="round" />
<path d="M 160.0 178.0 L 160.0 178.0 L 162.0 178.0 L 164.0 179.0 L 167.0 179.0 L 171.0 179.0 L 175.0 180.0 L 176.0 180.0 " stroke="black" fill="none" stroke-width="5.0" stroke-linecap="round" stroke-linejoin="round" />
<path d="M 153.0 200.0 L 154.0 201.0 L 156.0 202.0 L 160.0 204.0 L 168.0 204.0 L 178.0 204.0 L 186.0 203.0 " stroke="black" fill="none" stroke-width="5.0" stroke-linecap="round" stroke-linejoin="round" />
</svg>