<svg xmlns="http://www.w3.org/2000/svg" width="300" height="300" viewBox="0 0 300 300">
<path d="M 132.0 105.0 L 133.0 105.0 L 134.0 106.0 L 135.0 106.0 L 139.0 106.0 L 146.0 106.0 L 152.0 106.0 L 157.0 106.0 L 160.0 105.0 L 160.0 105.0 " stroke="black" fill="none" stroke-width="5.0" stroke-linecap="round" stroke-linejoin="round" />
<path d="M 116.0 122.0 L 116.0 122.0 L 116.0 122.0 L 117.0 123.0 L 117.0 124.0 L 117.0 128.0 L 118.0 132.0 L 119.0 136.0 L 119.0 138.0 " stroke="black" fill="none" stroke-width="5.0" stroke-linecap="round" stroke-linejoin="round" />
<path d="M 117.0 123.0 L 118.0 123.0 L 118.0 123.0 L 119.0 123.0 L 123.0 123.0 L 132.0 123.0 L 144.0 122.0 L 155.0 122.0 L 164.0 122.0 L 172.0 122.0 L 178.0 123.0 L 181.0 124.0 L 183.0 125.0 L 183.0 127.0 L 183.0 130.0 L 183.0 135.0 L 183.0 141.0 L 183.0 145.0 L 183.0 147.0 " stroke="black" fill="none" stroke-width="5.0" stroke-linecap="round" stroke-linejoin="round" />
<path d="M 148.0 109.0 L 148.0 109.0 L 147.0 108.0 L 147.0 108.0 L 147.0 110.0 L 148.0 118.0 L 150.0 129.0 L 152.0 137.0 L 152.0 142.0 " stroke="black" fill="none" stroke-width="5.0" stroke-linecap="round" stroke-linejoin="round" />
<path d="M 133.0 131.0 L 133.0 131.0 L 133.0 132.0 L 133.0 132.0 L 133.0 133.0 L 134.0 133.0 L 136.0 133.0 L 137.0 134.0 " stroke="black" fill="none" stroke-width="5.0" stroke-linecap="round" stroke-linejoin="round" />
<path d="M 130.0 142.0 L 130.0 142.0 L 130.0 142.0 L 130.0 142.0 L 131.0 142.0 L 133.0 142.0 L 137.0 142.0 L 138.0 141.0 " stroke="black" fill="none" stroke-width="5.0" stroke-linecap="round" stroke-linejoin="round" />
<path d="M 158.0 134.0 L 159.0 134.0 L 160.0 134.0 L 161.0 134.0 L 163.0 133.0 L 166.0 133.0 L 169.0 132.0 L 169.0 132.0 " stroke="black" fill="none" stroke-width="5.0" stroke-linecap="round" stroke-linejoin="round" />
<path d="M 162.0 140.0 L 162.0 141.0 L 163.0 142.0 L 164.0 143.0 L 166.0 145.0 L 167.0 146.0 " stroke="black" fill="none" stroke-width="5.0" stroke-linecap="round" stroke-linejoin="round" />
<path d="M 120.0 163.0 L 120.0 163.0 L 121.0 163.0 L 123.0 163.0 L 127.0 163.0 L 134.0 163.0 L 139.0 163.0 L 143.0 163.0 " stroke="black" fill="none" stroke-width="5.0" stroke-linecap="round" stroke-linejoin="round" />
<path d="M 132.0 151.0 L 132.0 151.0 L 132.0 151.0 L 132.0 152.0 L 132.0 153.0 L 132.0 160.0 L 134.0 174.0 L 134.0 189.0 L 134.0 198.0 L 135.0 202.0 L 135.0 202.0 " stroke="black" fill="none" stroke-width="5.0" stroke-linecap="round" stroke-linejoin="round" />
<path d="M 133.0 167.0 L 132.0 168.0 L 130.0 170.0 L 129.0 172.0 L 126.0 174.0 L 124.0 178.0 L 120.0 183.0 L 116.0 187.0 L 115.0 188.0 " stroke="black" fill="none" stroke-width="5.0" stroke-linecap="round" stroke-linejoin="round" />
<path d="M 136.0 174.0 L 138.0 174.0 L 139.0 175.0 L 143.0 179.0 L 147.0 185.0 L 151.0 190.0 L 152.0 192.0 " stroke="black" fill="none" stroke-width="5.0" stroke-linecap="round" stroke-linejoin="round" />
<path d="M 158.0 155.0 L 158.0 155.0 L 158.0 156.0 L 157.0 158.0 L 157.0 165.0 L 157.0 177.0 L 157.0 190.0 L 157.0 198.0 L 157.0 200.0 L 157.0 200.0 " stroke="black" fill="none" stroke-width="5.0" stroke-linecap="round" stroke-linejoin="round" />
<path d="M 156.0 159.0 L 156.0 159.0 L 156.0 159.0 L 156.0 159.0 L 157.0 159.0 L 160.0 159.0 L 164.0 159.0 L 168.0 159.0 L 172.0 161.0 L 175.0 164.0 L 178.0 171.0 L 181.0 182.0 L 183.0 193.0 L 184.0 201.0 L 185.0 205.0 L 185.0 205.0 L 184.0 204.0 " stroke="black" fill="none" stroke-width="5.0" stroke-linecap="round" stroke-linejoin="round" />
<path d="M 158.0 171.0 L 159.0 171.0 L 160.0 171.0 L 161.0 171.0 L 165.0 171.0 L 170.0 172.0 L 175.0 172.0 L 178.0 172.0 L 178.0 173.0 " stroke="black" fill="none" stroke-width="5.0" stroke-linecap="round" stroke-linejoin="round" />
<path d="M 158.0 184.0 L 158.0 184.0 L 159.0 185.0 L 162.0 186.0 L 168.0 186.0 L 174.0 186.0 L 178.0 186.0 L 178.0 186.0 " stroke="black" fill="none" stroke-width="5.0" stroke-linecap="round" stroke-linejoin="round" />
<path d="M 157.0 202.0 L 159.0 203.0 L 161.0 204.0 L 167.0 205.0 L 176.0 206.0 L 185.0 204.0 L 188.0 203.0 " stroke="black" fill="none" stroke-width="5.0" stroke-linecap="round" stroke-linejoin="round" />
</svg>