<svg xmlns="http://www.w3.org/2000/svg" width="300" height="300" viewBox="0 0 300 300">
<path d="M 137.0 105.0 L 137.0 105.0 L 137.0 105.0 L 136.0 106.0 L 136.0 111.0 L 138.0 119.0 L 140.0 126.0 L 141.0 128.0 " stroke="black" fill="none" stroke-width="5.0" stroke-linecap="round" stroke-linejoin="round" />
<path d="M 122.0 118.0 L 122.0 118.0 L 122.0 118.0 L 123.0 118.0 L 129.0 118.0 L 143.0 116.0 L 159.0 115.0 L 174.0 114.0 L 183.0 114.0 L 187.0 114.0 L 188.0 114.0 " stroke="black" fill="none" stroke-width="5.0" stroke-linecap="round" stroke-linejoin="round" />
<path d="M 167.0 100.0 L 167.0 100.0 L 167.0 100.0 L 167.0 99.0 L 167.0 101.0 L 167.0 109.0 L 166.0 122.0 L 165.0 133.0 " stroke="black" fill="none" stroke-width="5.0" stroke-linecap="round" stroke-linejoin="round" />
<path d="M 117.0 146.0 L 117.0 146.0 L 116.0 146.0 L 116.0 148.0 L 116.0 152.0 L 117.0 156.0 L 118.0 158.0 " stroke="black" fill="none" stroke-width="5.0" stroke-linecap="round" stroke-linejoin="round" />
<path d="M 116.0 146.0 L 116.0 146.0 L 117.0 146.0 L 118.0 146.0 L 121.0 145.0 L 127.0 145.0 L 139.0 144.0 L 154.0 142.0 L 168.0 141.0 L 180.0 140.0 L 187.0 140.0 L 191.0 142.0 L 193.0 145.0 L 193.0 149.0 L 193.0 153.0 L 192.0 157.0 L 191.0 158.0 " stroke="black" fill="none" stroke-width="5.0" stroke-linecap="round" stroke-linejoin="round" />
<path d="M 152.0 129.0 L 153.0 129.0 L 153.0 129.0 L 153.0 131.0 L 155.0 133.0 L 156.0 136.0 " stroke="black" fill="none" stroke-width="5.0" stroke-linecap="round" stroke-linejoin="round" />
<path d="M 148.0 154.0 L 148.0 154.0 L 148.0 154.0 L 148.0 154.0 L 148.0 154.0 L 148.0 155.0 L 145.0 159.0 L 137.0 167.0 L 129.0 175.0 L 126.0 178.0 " stroke="black" fill="none" stroke-width="5.0" stroke-linecap="round" stroke-linejoin="round" />
<path d="M 164.0 155.0 L 165.0 155.0 L 167.0 155.0 L 169.0 157.0 L 172.0 159.0 L 178.0 163.0 L 183.0 166.0 L 185.0 167.0 " stroke="black" fill="none" stroke-width="5.0" stroke-linecap="round" stroke-linejoin="round" />
<path d="M 155.0 167.0 L 155.0 167.0 L 156.0 167.0 L 156.0 168.0 L 157.0 168.0 L 157.0 168.0 L 156.0 169.0 L 152.0 173.0 L 143.0 181.0 L 129.0 193.0 L 121.0 199.0 " stroke="black" fill="none" stroke-width="5.0" stroke-linecap="round" stroke-linejoin="round" />
<path d="M 158.0 169.0 L 158.0 169.0 L 159.0 170.0 L 159.0 171.0 L 161.0 172.0 L 167.0 175.0 L 179.0 181.0 L 187.0 186.0 " stroke="black" fill="none" stroke-width="5.0" stroke-linecap="round" stroke-linejoin="round" />
<path d="M 143.0 187.0 L 143.0 189.0 L 143.0 193.0 L 143.0 199.0 L 143.0 205.0 " stroke="black" fill="none" stroke-width="5.0" stroke-linecap="round" stroke-linejoin="round" />
<path d="M 143.0 190.0 L 143.0 190.0 L 143.0 190.0 L 144.0 190.0 L 146.0 189.0 L 151.0 189.0 L 158.0 188.0 L 165.0 188.0 L 172.0 188.0 L 176.0 189.0 L 178.0 193.0 L 178.0 203.0 L 176.0 205.0 L 176.0 207.0 L 176.0 207.0 " stroke="black" fill="none" stroke-width="5.0" stroke-linecap="round" stroke-linejoin="round" />
<path d="M 144.0 209.0 L 143.0 210.0 L 143.0 210.0 L 143.0 210.0 L 146.0 210.0 L 156.0 210.0 L 169.0 210.0 L 171.0 209.0 " stroke="black" fill="none" stroke-width="5.0" stroke-linecap="round" stroke-linejoin="round" />
</svg>