<svg xmlns="http://www.w3.org/2000/svg" width="300" height="300" viewBox="0 0 300 300">
<path d="M 145.0 91.0 L 145.0 91.0 L 144.0 91.0 L 144.0 92.0 L 143.0 95.0 L 141.0 100.0 L 140.0 105.0 L 139.0 107.0 L 139.0 108.0 L 142.0 109.0 L 146.0 109.0 L 151.0 110.0 L 157.0 110.0 L 161.0 110.0 L 165.0 109.0 L 167.0 109.0 L 168.0 109.0 L 170.0 112.0 L 171.0 116.0 L 174.0 122.0 L 176.0 133.0 L 180.0 148.0 L 182.0 164.0 L 184.0 176.0 L 185.0 186.0 L 185.0 193.0 L 184.0 197.0 L 181.0 199.0 L 174.0 200.0 L 162.0 199.0 " stroke="black" fill="none" stroke-width="5.0" stroke-linecap="round" stroke-linejoin="round" />
<path d="M 141.0 110.0 L 141.0 110.0 L 141.0 110.0 L 141.0 110.0 L 141.0 115.0 L 141.0 129.0 L 142.0 144.0 L 142.0 154.0 " stroke="black" fill="none" stroke-width="5.0" stroke-linecap="round" stroke-linejoin="round" />
<path d="M 146.0 134.0 L 146.0 134.0 L 147.0 134.0 L 149.0 134.0 L 153.0 133.0 L 160.0 132.0 L 168.0 132.0 L 172.0 132.0 L 172.0 132.0 " stroke="black" fill="none" stroke-width="5.0" stroke-linecap="round" stroke-linejoin="round" />
<path d="M 144.0 145.0 L 144.0 145.0 L 144.0 145.0 L 147.0 145.0 L 155.0 145.0 L 166.0 145.0 L 173.0 145.0 " stroke="black" fill="none" stroke-width="5.0" stroke-linecap="round" stroke-linejoin="round" />
<path d="M 114.0 160.0 L 114.0 161.0 L 115.0 161.0 L 121.0 161.0 L 136.0 160.0 L 157.0 158.0 L 181.0 158.0 L 198.0 160.0 L 205.0 161.0 " stroke="black" fill="none" stroke-width="5.0" stroke-linecap="round" stroke-linejoin="round" />
<path d="M 204.0 132.0 L 204.0 132.0 L 203.0 133.0 L 202.0 135.0 L 198.0 139.0 L 189.0 148.0 L 169.0 162.0 L 141.0 182.0 L 111.0 200.0 " stroke="black" fill="none" stroke-width="5.0" stroke-linecap="round" stroke-linejoin="round" />
</svg>