<svg xmlns="http://www.w3.org/2000/svg" width="300" height="300" viewBox="0 0 300 300">
<path d="M 118.0 117.0 L 119.0 117.0 L 120.0 118.0 L 122.0 118.0 L 123.0 119.0 L 128.0 119.0 L 130.0 119.0 L 133.0 119.0 L 134.0 119.0 L 135.0 120.0 L 135.0 122.0 L 135.0 126.0 L 137.0 137.0 L 139.0 146.0 L 141.0 163.0 L 142.0 174.0 L 143.0 180.0 L 142.0 183.0 L 140.0 184.0 L 134.0 183.0 L 122.0 180.0 L 117.0 178.0 " stroke="black" fill="none" stroke-width="5.0" stroke-linecap="round" stroke-linejoin="round" />
<path d="M 115.0 140.0 L 115.0 140.0 L 116.0 140.0 L 117.0 140.0 L 122.0 140.0 L 126.0 140.0 L 127.0 140.0 " stroke="black" fill="none" stroke-width="5.0" stroke-linecap="round" stroke-linejoin="round" />
<path d="M 112.0 161.0 L 113.0 161.0 L 114.0 161.0 L 118.0 161.0 L 122.0 160.0 L 128.0 158.0 " stroke="black" fill="none" stroke-width="5.0" stroke-linecap="round" stroke-linejoin="round" />
<path d="M 154.0 122.0 L 154.0 122.0 L 154.0 122.0 L 153.0 122.0 L 153.0 122.0 L 155.0 123.0 L 159.0 124.0 L 163.0 125.0 L 167.0 126.0 L 171.0 129.0 L 174.0 136.0 L 178.0 148.0 L 181.0 163.0 L 182.0 172.0 L 184.0 179.0 L 185.0 186.0 L 183.0 188.0 L 180.0 189.0 L 172.0 189.0 L 167.0 188.0 L 160.0 185.0 " stroke="black" fill="none" stroke-width="5.0" stroke-linecap="round" stroke-linejoin="round" />
<path d="M 151.0 144.0 L 151.0 144.0 L 151.0 144.0 L 151.0 144.0 L 155.0 145.0 L 158.0 146.0 L 160.0 147.0 " stroke="black" fill="none" stroke-width="5.0" stroke-linecap="round" stroke-linejoin="round" />
<path d="M 151.0 166.0 L 151.0 166.0 L 152.0 167.0 L 156.0 167.0 L 164.0 166.0 L 166.0 165.0 " stroke="black" fill="none" stroke-width="5.0" stroke-linecap="round" stroke-linejoin="round" />
</svg>