<svg xmlns="http://www.w3.org/2000/svg" width="300" height="300" viewBox="0 0 300 300">
<path d="M 130.0 109.0 L 130.0 110.0 L 128.0 111.0 L 128.0 116.0 L 128.0 127.0 L 129.0 141.0 L 131.0 151.0 L 132.0 152.0 " stroke="black" fill="none" stroke-width="5.0" stroke-linecap="round" stroke-linejoin="round" />
<path d="M 130.0 113.0 L 131.0 113.0 L 132.0 113.0 L 133.0 113.0 L 136.0 112.0 L 141.0 111.0 L 150.0 110.0 L 158.0 109.0 L 164.0 110.0 L 167.0 114.0 L 168.0 124.0 L 168.0 136.0 L 168.0 147.0 L 168.0 153.0 L 167.0 155.0 " stroke="black" fill="none" stroke-width="5.0" stroke-linecap="round" stroke-linejoin="round" />
<path d="M 136.0 132.0 L 136.0 132.0 L 136.0 132.0 L 138.0 132.0 L 146.0 131.0 L 156.0 130.0 L 162.0 130.0 L 163.0 130.0 " stroke="black" fill="none" stroke-width="5.0" stroke-linecap="round" stroke-linejoin="round" />
<path d="M 149.0 112.0 L 149.0 114.0 L 148.0 118.0 L 148.0 128.0 L 150.0 143.0 L 151.0 152.0 " stroke="black" fill="none" stroke-width="5.0" stroke-linecap="round" stroke-linejoin="round" />
<path d="M 133.0 158.0 L 134.0 160.0 L 136.0 161.0 L 144.0 162.0 L 154.0 160.0 L 161.0 159.0 " stroke="black" fill="none" stroke-width="5.0" stroke-linecap="round" stroke-linejoin="round" />
<path d="M 121.0 169.0 L 121.0 169.0 L 121.0 169.0 L 121.0 170.0 L 120.0 174.0 L 117.0 183.0 L 114.0 194.0 L 113.0 197.0 " stroke="black" fill="none" stroke-width="5.0" stroke-linecap="round" stroke-linejoin="round" />
<path d="M 139.0 182.0 L 138.0 182.0 L 137.0 182.0 L 136.0 183.0 L 136.0 186.0 L 136.0 193.0 L 138.0 202.0 L 143.0 207.0 L 152.0 208.0 L 163.0 207.0 L 172.0 205.0 L 177.0 204.0 L 178.0 202.0 L 176.0 200.0 " stroke="black" fill="none" stroke-width="5.0" stroke-linecap="round" stroke-linejoin="round" />
<path d="M 156.0 175.0 L 156.0 177.0 L 156.0 180.0 L 157.0 185.0 L 159.0 190.0 L 161.0 192.0 " stroke="black" fill="none" stroke-width="5.0" stroke-linecap="round" stroke-linejoin="round" />
<path d="M 187.0 170.0 L 188.0 173.0 L 190.0 178.0 L 192.0 184.0 L 195.0 190.0 " stroke="black" fill="none" stroke-width="5.0" stroke-linecap="round" stroke-linejoin="round" />
</svg>