<svg xmlns="http://www.w3.org/2000/svg" width="300" height="300" viewBox="0 0 300 300">
<path d="M 128.0 107.0 L 128.0 107.0 L 128.0 107.0 L 128.0 109.0 L 128.0 111.0 L 128.0 117.0 L 128.0 127.0 L 128.0 137.0 L 129.0 141.0 " stroke="black" fill="none" stroke-width="5.0" stroke-linecap="round" stroke-linejoin="round" />
<path d="M 132.0 107.0 L 132.0 107.0 L 132.0 107.0 L 132.0 107.0 L 134.0 107.0 L 140.0 107.0 L 149.0 108.0 L 158.0 108.0 L 164.0 108.0 L 166.0 110.0 L 166.0 116.0 L 166.0 125.0 L 165.0 135.0 L 165.0 143.0 L 165.0 144.0 " stroke="black" fill="none" stroke-width="5.0" stroke-linecap="round" stroke-linejoin="round" />
<path d="M 136.0 129.0 L 136.0 129.0 L 136.0 129.0 L 137.0 129.0 L 140.0 129.0 L 149.0 129.0 L 159.0 129.0 " stroke="black" fill="none" stroke-width="5.0" stroke-linecap="round" stroke-linejoin="round" />
<path d="M 149.0 112.0 L 149.0 112.0 L 149.0 112.0 L 148.0 114.0 L 148.0 125.0 L 149.0 140.0 L 150.0 145.0 " stroke="black" fill="none" stroke-width="5.0" stroke-linecap="round" stroke-linejoin="round" />
<path d="M 133.0 148.0 L 134.0 148.0 L 135.0 148.0 L 139.0 149.0 L 147.0 150.0 L 154.0 150.0 " stroke="black" fill="none" stroke-width="5.0" stroke-linecap="round" stroke-linejoin="round" />
<path d="M 115.0 161.0 L 116.0 161.0 L 116.0 161.0 L 116.0 161.0 L 116.0 164.0 L 112.0 171.0 L 108.0 179.0 L 106.0 182.0 " stroke="black" fill="none" stroke-width="5.0" stroke-linecap="round" stroke-linejoin="round" />
<path d="M 129.0 172.0 L 129.0 172.0 L 128.0 174.0 L 127.0 177.0 L 126.0 181.0 L 125.0 185.0 L 126.0 190.0 L 129.0 193.0 L 135.0 195.0 L 143.0 195.0 L 152.0 195.0 L 161.0 196.0 L 168.0 197.0 L 173.0 197.0 L 176.0 196.0 L 175.0 193.0 L 173.0 189.0 L 169.0 184.0 L 168.0 183.0 " stroke="black" fill="none" stroke-width="5.0" stroke-linecap="round" stroke-linejoin="round" />
<path d="M 149.0 164.0 L 149.0 166.0 L 149.0 168.0 L 149.0 172.0 L 150.0 175.0 " stroke="black" fill="none" stroke-width="5.0" stroke-linecap="round" stroke-linejoin="round" />
<path d="M 179.0 167.0 L 181.0 172.0 L 183.0 178.0 L 187.0 185.0 " stroke="black" fill="none" stroke-width="5.0" stroke-linecap="round" stroke-linejoin="round" />
</svg>