<svg xmlns="http://www.w3.org/2000/svg" width="300" height="300" viewBox="0 0 300 300">
<path d="M 118.0 119.0 L 119.0 120.0 L 120.0 121.0 L 123.0 123.0 L 128.0 125.0 L 133.0 127.0 L 134.0 127.0 " stroke="black" fill="none" stroke-width="5.0" stroke-linecap="round" stroke-linejoin="round" />
<path d="M 111.0 145.0 L 111.0 145.0 L 111.0 145.0 L 112.0 146.0 L 116.0 146.0 L 122.0 146.0 L 128.0 146.0 L 130.0 147.0 " stroke="black" fill="none" stroke-width="5.0" stroke-linecap="round" stroke-linejoin="round" />
<path d="M 105.0 176.0 L 105.0 176.0 L 106.0 176.0 L 107.0 176.0 L 113.0 175.0 L 124.0 172.0 L 131.0 170.0 " stroke="black" fill="none" stroke-width="5.0" stroke-linecap="round" stroke-linejoin="round" />
<path d="M 156.0 116.0 L 156.0 116.0 L 156.0 117.0 L 156.0 117.0 L 155.0 118.0 L 154.0 122.0 L 149.0 130.0 L 142.0 140.0 L 137.0 146.0 " stroke="black" fill="none" stroke-width="5.0" stroke-linecap="round" stroke-linejoin="round" />
<path d="M 166.0 119.0 L 167.0 120.0 L 168.0 120.0 L 172.0 123.0 L 178.0 128.0 L 184.0 133.0 L 188.0 136.0 L 189.0 137.0 " stroke="black" fill="none" stroke-width="5.0" stroke-linecap="round" stroke-linejoin="round" />
<path d="M 162.0 136.0 L 162.0 135.0 L 162.0 135.0 L 162.0 136.0 L 160.0 139.0 L 155.0 146.0 L 149.0 155.0 L 143.0 161.0 L 142.0 163.0 L 142.0 163.0 " stroke="black" fill="none" stroke-width="5.0" stroke-linecap="round" stroke-linejoin="round" />
<path d="M 166.0 140.0 L 166.0 140.0 L 168.0 140.0 L 171.0 142.0 L 177.0 146.0 L 183.0 149.0 L 188.0 151.0 L 190.0 152.0 " stroke="black" fill="none" stroke-width="5.0" stroke-linecap="round" stroke-linejoin="round" />
<path d="M 149.0 164.0 L 149.0 164.0 L 149.0 165.0 L 149.0 166.0 L 149.0 170.0 L 149.0 176.0 L 150.0 181.0 L 151.0 184.0 L 152.0 185.0 " stroke="black" fill="none" stroke-width="5.0" stroke-linecap="round" stroke-linejoin="round" />
<path d="M 151.0 163.0 L 151.0 163.0 L 152.0 163.0 L 153.0 163.0 L 156.0 163.0 L 162.0 162.0 L 169.0 161.0 L 175.0 161.0 L 178.0 162.0 L 181.0 166.0 L 182.0 172.0 L 183.0 179.0 L 184.0 184.0 L 184.0 187.0 L 184.0 188.0 " stroke="black" fill="none" stroke-width="5.0" stroke-linecap="round" stroke-linejoin="round" />
<path d="M 153.0 193.0 L 153.0 193.0 L 153.0 194.0 L 155.0 194.0 L 161.0 194.0 L 170.0 194.0 L 178.0 193.0 L 180.0 193.0 " stroke="black" fill="none" stroke-width="5.0" stroke-linecap="round" stroke-linejoin="round" />
</svg>