<svg xmlns="http://www.w3.org/2000/svg" width="300" height="300" viewBox="0 0 300 300">
<path d="M 132.0 121.0 L 133.0 121.0 L 134.0 121.0 L 138.0 121.0 L 144.0 121.0 L 152.0 121.0 L 158.0 121.0 L 159.0 121.0 " stroke="black" fill="none" stroke-width="5.0" stroke-linecap="round" stroke-linejoin="round" />
<path d="M 117.0 147.0 L 119.0 147.0 L 122.0 147.0 L 129.0 147.0 L 142.0 148.0 L 157.0 148.0 L 169.0 148.0 L 172.0 147.0 " stroke="black" fill="none" stroke-width="5.0" stroke-linecap="round" stroke-linejoin="round" />
<path d="M 149.0 107.0 L 149.0 107.0 L 149.0 107.0 L 148.0 110.0 L 146.0 121.0 L 142.0 139.0 L 134.0 157.0 L 125.0 171.0 L 117.0 180.0 L 115.0 182.0 " stroke="black" fill="none" stroke-width="5.0" stroke-linecap="round" stroke-linejoin="round" />
<path d="M 143.0 154.0 L 143.0 154.0 L 144.0 154.0 L 144.0 154.0 L 149.0 159.0 L 160.0 170.0 L 174.0 181.0 L 182.0 188.0 L 184.0 190.0 " stroke="black" fill="none" stroke-width="5.0" stroke-linecap="round" stroke-linejoin="round" />
</svg>