<svg xmlns="http://www.w3.org/2000/svg" width="300" height="300" viewBox="0 0 300 300">
<path d="M 129.0 113.0 L 129.0 114.0 L 129.0 114.0 L 129.0 115.0 L 129.0 117.0 L 126.0 122.0 L 120.0 129.0 L 112.0 137.0 L 110.0 139.0 " stroke="black" fill="none" stroke-width="5.0" stroke-linecap="round" stroke-linejoin="round" />
<path d="M 108.0 150.0 L 108.0 150.0 L 108.0 150.0 L 108.0 150.0 L 112.0 150.0 L 122.0 150.0 L 133.0 148.0 L 139.0 147.0 " stroke="black" fill="none" stroke-width="5.0" stroke-linecap="round" stroke-linejoin="round" />
<path d="M 124.0 124.0 L 124.0 125.0 L 124.0 126.0 L 124.0 127.0 L 124.0 130.0 L 125.0 138.0 L 126.0 151.0 L 127.0 167.0 L 127.0 180.0 L 127.0 186.0 L 127.0 187.0 " stroke="black" fill="none" stroke-width="5.0" stroke-linecap="round" stroke-linejoin="round" />
<path d="M 128.0 151.0 L 128.0 151.0 L 128.0 151.0 L 128.0 152.0 L 126.0 155.0 L 123.0 161.0 L 118.0 170.0 L 112.0 178.0 L 111.0 180.0 " stroke="black" fill="none" stroke-width="5.0" stroke-linecap="round" stroke-linejoin="round" />
<path d="M 129.0 155.0 L 130.0 155.0 L 131.0 155.0 L 134.0 158.0 L 141.0 164.0 L 148.0 170.0 " stroke="black" fill="none" stroke-width="5.0" stroke-linecap="round" stroke-linejoin="round" />
<path d="M 151.0 134.0 L 151.0 134.0 L 151.0 134.0 L 151.0 134.0 L 151.0 135.0 L 153.0 138.0 L 155.0 141.0 " stroke="black" fill="none" stroke-width="5.0" stroke-linecap="round" stroke-linejoin="round" />
<path d="M 172.0 126.0 L 172.0 126.0 L 172.0 128.0 L 172.0 131.0 L 172.0 135.0 L 172.0 140.0 L 170.0 145.0 " stroke="black" fill="none" stroke-width="5.0" stroke-linecap="round" stroke-linejoin="round" />
<path d="M 161.0 113.0 L 161.0 113.0 L 161.0 113.0 L 161.0 116.0 L 161.0 126.0 L 159.0 144.0 L 154.0 164.0 L 148.0 180.0 L 144.0 191.0 L 144.0 192.0 " stroke="black" fill="none" stroke-width="5.0" stroke-linecap="round" stroke-linejoin="round" />
<path d="M 160.0 159.0 L 160.0 159.0 L 161.0 159.0 L 162.0 160.0 L 167.0 165.0 L 177.0 175.0 L 187.0 185.0 L 193.0 191.0 L 194.0 191.0 " stroke="black" fill="none" stroke-width="5.0" stroke-linecap="round" stroke-linejoin="round" />
</svg>