<svg xmlns="http://www.w3.org/2000/svg" width="300" height="300" viewBox="0 0 300 300">
<path d="M 131.0 117.0 L 131.0 117.0 L 132.0 117.0 L 132.0 116.0 L 132.0 116.0 L 132.0 116.0 L 132.0 116.0 L 132.0 117.0 L 128.0 122.0 L 121.0 130.0 L 117.0 134.0 " stroke="black" fill="none" stroke-width="5.0" stroke-linecap="round" stroke-linejoin="round" />
<path d="M 110.0 149.0 L 110.0 149.0 L 110.0 149.0 L 110.0 149.0 L 113.0 149.0 L 120.0 149.0 L 128.0 148.0 L 135.0 147.0 L 138.0 147.0 L 139.0 147.0 " stroke="black" fill="none" stroke-width="5.0" stroke-linecap="round" stroke-linejoin="round" />
<path d="M 124.0 131.0 L 124.0 131.0 L 124.0 131.0 L 124.0 131.0 L 124.0 134.0 L 125.0 143.0 L 127.0 158.0 L 127.0 174.0 L 127.0 185.0 L 127.0 189.0 L 127.0 189.0 L 127.0 187.0 L 127.0 184.0 " stroke="black" fill="none" stroke-width="5.0" stroke-linecap="round" stroke-linejoin="round" />
<path d="M 125.0 154.0 L 125.0 154.0 L 125.0 154.0 L 124.0 154.0 L 123.0 155.0 L 120.0 158.0 L 114.0 164.0 L 108.0 171.0 L 103.0 177.0 L 102.0 178.0 " stroke="black" fill="none" stroke-width="5.0" stroke-linecap="round" stroke-linejoin="round" />
<path d="M 126.0 157.0 L 126.0 157.0 L 129.0 157.0 L 133.0 160.0 L 138.0 165.0 L 143.0 170.0 L 146.0 172.0 " stroke="black" fill="none" stroke-width="5.0" stroke-linecap="round" stroke-linejoin="round" />
<path d="M 152.0 136.0 L 152.0 136.0 L 152.0 136.0 L 153.0 137.0 L 154.0 140.0 L 155.0 144.0 L 156.0 146.0 " stroke="black" fill="none" stroke-width="5.0" stroke-linecap="round" stroke-linejoin="round" />
<path d="M 176.0 134.0 L 176.0 135.0 L 176.0 137.0 L 176.0 140.0 L 176.0 144.0 L 175.0 148.0 L 174.0 150.0 " stroke="black" fill="none" stroke-width="5.0" stroke-linecap="round" stroke-linejoin="round" />
<path d="M 163.0 114.0 L 163.0 114.0 L 163.0 115.0 L 162.0 118.0 L 162.0 128.0 L 162.0 144.0 L 161.0 162.0 L 156.0 177.0 L 152.0 187.0 L 151.0 188.0 L 151.0 187.0 " stroke="black" fill="none" stroke-width="5.0" stroke-linecap="round" stroke-linejoin="round" />
<path d="M 161.0 162.0 L 161.0 163.0 L 162.0 163.0 L 165.0 166.0 L 172.0 174.0 L 182.0 183.0 L 191.0 190.0 L 195.0 194.0 L 197.0 196.0 " stroke="black" fill="none" stroke-width="5.0" stroke-linecap="round" stroke-linejoin="round" />
</svg>