<svg xmlns="http://www.w3.org/2000/svg" width="300" height="300" viewBox="0 0 300 300">
<path d="M 134.0 114.0 L 134.0 114.0 L 134.0 114.0 L 133.0 114.0 L 133.0 114.0 L 130.0 118.0 L 124.0 128.0 L 114.0 139.0 " stroke="black" fill="none" stroke-width="5.0" stroke-linecap="round" stroke-linejoin="round" />
<path d="M 108.0 154.0 L 108.0 154.0 L 108.0 154.0 L 108.0 155.0 L 109.0 155.0 L 115.0 155.0 L 127.0 154.0 L 139.0 153.0 L 145.0 152.0 " stroke="black" fill="none" stroke-width="5.0" stroke-linecap="round" stroke-linejoin="round" />
<path d="M 127.0 130.0 L 127.0 130.0 L 127.0 130.0 L 127.0 130.0 L 127.0 134.0 L 127.0 146.0 L 128.0 164.0 L 128.0 182.0 L 128.0 191.0 L 128.0 195.0 " stroke="black" fill="none" stroke-width="5.0" stroke-linecap="round" stroke-linejoin="round" />
<path d="M 129.0 157.0 L 129.0 157.0 L 129.0 157.0 L 129.0 157.0 L 128.0 158.0 L 125.0 161.0 L 118.0 170.0 L 109.0 181.0 L 106.0 185.0 " stroke="black" fill="none" stroke-width="5.0" stroke-linecap="round" stroke-linejoin="round" />
<path d="M 130.0 163.0 L 130.0 163.0 L 132.0 165.0 L 135.0 168.0 L 142.0 174.0 L 145.0 177.0 " stroke="black" fill="none" stroke-width="5.0" stroke-linecap="round" stroke-linejoin="round" />
<path d="M 152.0 139.0 L 152.0 139.0 L 152.0 139.0 L 152.0 141.0 L 154.0 146.0 L 155.0 148.0 " stroke="black" fill="none" stroke-width="5.0" stroke-linecap="round" stroke-linejoin="round" />
<path d="M 181.0 129.0 L 181.0 131.0 L 180.0 135.0 L 179.0 140.0 L 177.0 148.0 L 174.0 156.0 L 172.0 159.0 " stroke="black" fill="none" stroke-width="5.0" stroke-linecap="round" stroke-linejoin="round" />
<path d="M 163.0 117.0 L 163.0 117.0 L 164.0 117.0 L 164.0 119.0 L 164.0 130.0 L 161.0 149.0 L 156.0 170.0 L 149.0 188.0 L 146.0 195.0 " stroke="black" fill="none" stroke-width="5.0" stroke-linecap="round" stroke-linejoin="round" />
<path d="M 161.0 167.0 L 162.0 167.0 L 164.0 169.0 L 172.0 174.0 L 183.0 185.0 L 193.0 194.0 L 194.0 196.0 " stroke="black" fill="none" stroke-width="5.0" stroke-linecap="round" stroke-linejoin="round" />
</svg>