<svg xmlns="http://www.w3.org/2000/svg" width="300" height="300" viewBox="0 0 300 300">
<path d="M 120.0 110.0 L 120.0 111.0 L 120.0 113.0 L 120.0 116.0 L 120.0 122.0 L 120.0 134.0 L 119.0 152.0 L 118.0 169.0 L 117.0 182.0 L 117.0 188.0 L 117.0 189.0 L 117.0 188.0 " stroke="black" fill="none" stroke-width="5.0" stroke-linecap="round" stroke-linejoin="round" />
<path d="M 130.0 106.0 L 130.0 106.0 L 130.0 106.0 L 131.0 106.0 L 135.0 105.0 L 143.0 104.0 L 153.0 103.0 L 161.0 102.0 L 168.0 102.0 L 172.0 102.0 L 174.0 102.0 L 175.0 102.0 L 176.0 105.0 L 178.0 113.0 L 181.0 128.0 L 184.0 147.0 L 186.0 162.0 L 187.0 172.0 L 188.0 179.0 L 188.0 182.0 L 188.0 183.0 L 188.0 183.0 " stroke="black" fill="none" stroke-width="5.0" stroke-linecap="round" stroke-linejoin="round" />
<path d="M 136.0 127.0 L 136.0 127.0 L 136.0 128.0 L 136.0 128.0 L 137.0 128.0 L 141.0 128.0 L 149.0 127.0 L 158.0 125.0 L 165.0 124.0 L 167.0 123.0 L 167.0 123.0 " stroke="black" fill="none" stroke-width="5.0" stroke-linecap="round" stroke-linejoin="round" />
<path d="M 151.0 116.0 L 151.0 117.0 L 151.0 117.0 L 151.0 119.0 L 153.0 128.0 L 159.0 148.0 L 164.0 165.0 L 168.0 171.0 L 170.0 172.0 L 171.0 172.0 L 171.0 171.0 " stroke="black" fill="none" stroke-width="5.0" stroke-linecap="round" stroke-linejoin="round" />
<path d="M 171.0 141.0 L 171.0 141.0 L 169.0 142.0 L 166.0 145.0 L 162.0 150.0 L 156.0 158.0 L 151.0 165.0 " stroke="black" fill="none" stroke-width="5.0" stroke-linecap="round" stroke-linejoin="round" />
<path d="M 136.0 149.0 L 136.0 149.0 L 136.0 149.0 L 135.0 149.0 L 135.0 149.0 L 135.0 151.0 L 136.0 154.0 L 137.0 157.0 L 138.0 157.0 " stroke="black" fill="none" stroke-width="5.0" stroke-linecap="round" stroke-linejoin="round" />
<path d="M 139.0 147.0 L 139.0 147.0 L 139.0 147.0 L 139.0 147.0 L 139.0 146.0 L 141.0 146.0 L 143.0 146.0 L 147.0 148.0 L 148.0 151.0 L 149.0 155.0 L 149.0 157.0 L 149.0 157.0 " stroke="black" fill="none" stroke-width="5.0" stroke-linecap="round" stroke-linejoin="round" />
<path d="M 137.0 159.0 L 137.0 159.0 L 137.0 159.0 L 137.0 159.0 L 138.0 159.0 L 141.0 159.0 L 144.0 159.0 L 144.0 160.0 " stroke="black" fill="none" stroke-width="5.0" stroke-linecap="round" stroke-linejoin="round" />
<path d="M 132.0 175.0 L 132.0 175.0 L 133.0 175.0 L 134.0 175.0 L 137.0 175.0 L 142.0 174.0 L 146.0 174.0 L 148.0 174.0 " stroke="black" fill="none" stroke-width="5.0" stroke-linecap="round" stroke-linejoin="round" />
<path d="M 121.0 189.0 L 121.0 189.0 L 122.0 189.0 L 122.0 189.0 L 127.0 189.0 L 139.0 189.0 L 154.0 188.0 L 168.0 188.0 L 180.0 187.0 L 186.0 186.0 L 187.0 185.0 " stroke="black" fill="none" stroke-width="5.0" stroke-linecap="round" stroke-linejoin="round" />
<path d="M 165.0 111.0 L 166.0 111.0 L 167.0 112.0 L 168.0 113.0 L 171.0 114.0 L 171.0 115.0 " stroke="black" fill="none" stroke-width="5.0" stroke-linecap="round" stroke-linejoin="round" />
</svg>