<svg xmlns="http://www.w3.org/2000/svg" width="300" height="300" viewBox="0 0 300 300">
<path d="M 122.0 93.0 L 122.0 93.0 L 122.0 93.0 L 122.0 93.0 L 122.0 93.0 L 122.0 94.0 L 120.0 100.0 L 116.0 110.0 L 112.0 119.0 L 110.0 121.0 " stroke="black" fill="none" stroke-width="5.0" stroke-linecap="round" stroke-linejoin="round" />
<path d="M 119.0 103.0 L 119.0 103.0 L 119.0 103.0 L 119.0 103.0 L 120.0 103.0 L 124.0 103.0 L 129.0 102.0 L 135.0 101.0 L 139.0 101.0 L 141.0 101.0 " stroke="black" fill="none" stroke-width="5.0" stroke-linecap="round" stroke-linejoin="round" />
<path d="M 120.0 116.0 L 120.0 116.0 L 120.0 116.0 L 120.0 116.0 L 122.0 116.0 L 125.0 116.0 L 129.0 115.0 L 133.0 114.0 L 135.0 114.0 L 137.0 114.0 L 139.0 115.0 L 140.0 120.0 L 142.0 130.0 L 143.0 141.0 L 144.0 148.0 L 144.0 151.0 L 143.0 151.0 L 140.0 151.0 L 135.0 149.0 L 130.0 147.0 " stroke="black" fill="none" stroke-width="5.0" stroke-linecap="round" stroke-linejoin="round" />
<path d="M 118.0 118.0 L 118.0 118.0 L 117.0 118.0 L 117.0 118.0 L 116.0 120.0 L 115.0 123.0 L 115.0 129.0 L 114.0 135.0 L 114.0 140.0 L 117.0 142.0 L 124.0 143.0 L 133.0 142.0 L 143.0 140.0 L 148.0 139.0 L 150.0 139.0 L 150.0 139.0 " stroke="black" fill="none" stroke-width="5.0" stroke-linecap="round" stroke-linejoin="round" />
<path d="M 112.0 128.0 L 113.0 129.0 L 114.0 129.0 L 116.0 129.0 L 123.0 129.0 L 132.0 127.0 L 140.0 125.0 L 143.0 124.0 " stroke="black" fill="none" stroke-width="5.0" stroke-linecap="round" stroke-linejoin="round" />
<path d="M 127.0 117.0 L 127.0 117.0 L 127.0 117.0 L 127.0 118.0 L 127.0 120.0 L 128.0 122.0 " stroke="black" fill="none" stroke-width="5.0" stroke-linecap="round" stroke-linejoin="round" />
<path d="M 130.0 132.0 L 130.0 133.0 L 131.0 135.0 L 133.0 137.0 L 136.0 139.0 " stroke="black" fill="none" stroke-width="5.0" stroke-linecap="round" stroke-linejoin="round" />
<path d="M 156.0 97.0 L 157.0 97.0 L 157.0 96.0 L 157.0 96.0 L 157.0 100.0 L 156.0 107.0 L 153.0 116.0 L 150.0 123.0 " stroke="black" fill="none" stroke-width="5.0" stroke-linecap="round" stroke-linejoin="round" />
<path d="M 153.0 109.0 L 153.0 109.0 L 154.0 109.0 L 155.0 109.0 L 159.0 109.0 L 165.0 108.0 L 170.0 107.0 L 171.0 107.0 " stroke="black" fill="none" stroke-width="5.0" stroke-linecap="round" stroke-linejoin="round" />
<path d="M 167.0 111.0 L 167.0 111.0 L 167.0 112.0 L 167.0 114.0 L 167.0 116.0 L 165.0 121.0 L 162.0 130.0 L 156.0 140.0 " stroke="black" fill="none" stroke-width="5.0" stroke-linecap="round" stroke-linejoin="round" />
<path d="M 155.0 120.0 L 155.0 120.0 L 155.0 120.0 L 159.0 122.0 L 166.0 128.0 L 174.0 136.0 L 178.0 140.0 " stroke="black" fill="none" stroke-width="5.0" stroke-linecap="round" stroke-linejoin="round" />
<path d="M 152.0 148.0 L 152.0 148.0 L 152.0 148.0 L 152.0 148.0 L 152.0 148.0 L 152.0 148.0 L 150.0 150.0 L 146.0 154.0 L 142.0 159.0 L 139.0 162.0 L 139.0 165.0 L 141.0 166.0 L 144.0 167.0 L 146.0 167.0 " stroke="black" fill="none" stroke-width="5.0" stroke-linecap="round" stroke-linejoin="round" />
<path d="M 157.0 158.0 L 157.0 158.0 L 157.0 158.0 L 157.0 159.0 L 156.0 159.0 L 153.0 161.0 L 149.0 165.0 L 144.0 169.0 L 138.0 174.0 L 134.0 179.0 L 133.0 181.0 L 135.0 182.0 L 141.0 183.0 L 149.0 182.0 L 157.0 180.0 L 164.0 179.0 L 166.0 178.0 " stroke="black" fill="none" stroke-width="5.0" stroke-linecap="round" stroke-linejoin="round" />
<path d="M 162.0 171.0 L 163.0 171.0 L 163.0 172.0 L 165.0 174.0 L 166.0 177.0 L 168.0 182.0 L 170.0 186.0 L 171.0 189.0 " stroke="black" fill="none" stroke-width="5.0" stroke-linecap="round" stroke-linejoin="round" />
<path d="M 149.0 181.0 L 149.0 181.0 L 149.0 182.0 L 149.0 183.0 L 150.0 189.0 L 151.0 196.0 L 153.0 204.0 L 153.0 208.0 L 153.0 209.0 L 152.0 209.0 L 149.0 208.0 " stroke="black" fill="none" stroke-width="5.0" stroke-linecap="round" stroke-linejoin="round" />
<path d="M 136.0 192.0 L 136.0 192.0 L 136.0 192.0 L 134.0 193.0 L 132.0 195.0 L 129.0 199.0 L 127.0 202.0 " stroke="black" fill="none" stroke-width="5.0" stroke-linecap="round" stroke-linejoin="round" />
<path d="M 165.0 194.0 L 166.0 194.0 L 168.0 194.0 L 171.0 196.0 L 175.0 200.0 L 178.0 204.0 L 178.0 205.0 " stroke="black" fill="none" stroke-width="5.0" stroke-linecap="round" stroke-linejoin="round" />
</svg>