<svg xmlns="http://www.w3.org/2000/svg" width="300" height="300" viewBox="0 0 300 300">
<path d="M 124.0 102.0 L 125.0 102.0 L 125.0 102.0 L 125.0 103.0 L 125.0 104.0 L 124.0 108.0 L 121.0 114.0 L 116.0 121.0 L 112.0 126.0 L 111.0 127.0 " stroke="black" fill="none" stroke-width="5.0" stroke-linecap="round" stroke-linejoin="round" />
<path d="M 124.0 111.0 L 125.0 111.0 L 125.0 111.0 L 125.0 111.0 L 127.0 111.0 L 130.0 111.0 L 134.0 110.0 L 138.0 109.0 L 141.0 109.0 L 143.0 109.0 " stroke="black" fill="none" stroke-width="5.0" stroke-linecap="round" stroke-linejoin="round" />
<path d="M 124.0 121.0 L 125.0 122.0 L 125.0 122.0 L 127.0 122.0 L 129.0 122.0 L 132.0 122.0 L 135.0 121.0 L 137.0 120.0 L 139.0 120.0 L 140.0 123.0 L 142.0 129.0 L 144.0 139.0 L 145.0 150.0 L 146.0 157.0 L 146.0 160.0 L 145.0 161.0 L 141.0 161.0 L 135.0 159.0 L 131.0 158.0 " stroke="black" fill="none" stroke-width="5.0" stroke-linecap="round" stroke-linejoin="round" />
<path d="M 121.0 123.0 L 121.0 123.0 L 121.0 123.0 L 120.0 124.0 L 119.0 125.0 L 119.0 129.0 L 118.0 136.0 L 117.0 143.0 L 118.0 147.0 L 124.0 148.0 L 133.0 148.0 L 142.0 147.0 L 147.0 146.0 L 148.0 145.0 " stroke="black" fill="none" stroke-width="5.0" stroke-linecap="round" stroke-linejoin="round" />
<path d="M 110.0 135.0 L 111.0 135.0 L 112.0 135.0 L 116.0 135.0 L 125.0 134.0 L 136.0 132.0 L 143.0 131.0 L 146.0 131.0 " stroke="black" fill="none" stroke-width="5.0" stroke-linecap="round" stroke-linejoin="round" />
<path d="M 128.0 120.0 L 128.0 120.0 L 128.0 122.0 L 129.0 125.0 L 130.0 129.0 " stroke="black" fill="none" stroke-width="5.0" stroke-linecap="round" stroke-linejoin="round" />
<path d="M 129.0 137.0 L 129.0 137.0 L 130.0 140.0 L 131.0 142.0 L 132.0 144.0 " stroke="black" fill="none" stroke-width="5.0" stroke-linecap="round" stroke-linejoin="round" />
<path d="M 153.0 105.0 L 153.0 105.0 L 153.0 105.0 L 153.0 107.0 L 153.0 115.0 L 151.0 124.0 L 149.0 127.0 " stroke="black" fill="none" stroke-width="5.0" stroke-linecap="round" stroke-linejoin="round" />
<path d="M 154.0 117.0 L 154.0 117.0 L 155.0 118.0 L 158.0 118.0 L 164.0 117.0 L 169.0 116.0 L 171.0 116.0 " stroke="black" fill="none" stroke-width="5.0" stroke-linecap="round" stroke-linejoin="round" />
<path d="M 165.0 118.0 L 165.0 120.0 L 165.0 122.0 L 165.0 126.0 L 165.0 133.0 L 162.0 143.0 L 158.0 152.0 L 157.0 154.0 " stroke="black" fill="none" stroke-width="5.0" stroke-linecap="round" stroke-linejoin="round" />
<path d="M 155.0 131.0 L 155.0 131.0 L 156.0 131.0 L 160.0 135.0 L 166.0 143.0 L 171.0 150.0 L 173.0 153.0 " stroke="black" fill="none" stroke-width="5.0" stroke-linecap="round" stroke-linejoin="round" />
<path d="M 156.0 159.0 L 156.0 159.0 L 157.0 159.0 L 157.0 159.0 L 157.0 159.0 L 157.0 160.0 L 156.0 163.0 L 153.0 166.0 L 151.0 169.0 L 150.0 171.0 L 151.0 173.0 L 154.0 173.0 L 156.0 173.0 L 158.0 173.0 L 159.0 172.0 L 159.0 172.0 L 157.0 173.0 L 154.0 175.0 L 149.0 178.0 L 145.0 181.0 L 142.0 185.0 L 141.0 187.0 L 142.0 188.0 L 147.0 188.0 L 153.0 188.0 L 160.0 187.0 L 166.0 187.0 L 168.0 187.0 " stroke="black" fill="none" stroke-width="5.0" stroke-linecap="round" stroke-linejoin="round" />
<path d="M 153.0 190.0 L 154.0 190.0 L 154.0 191.0 L 155.0 195.0 L 156.0 201.0 L 157.0 207.0 L 158.0 212.0 L 158.0 214.0 L 157.0 214.0 L 153.0 214.0 L 150.0 212.0 " stroke="black" fill="none" stroke-width="5.0" stroke-linecap="round" stroke-linejoin="round" />
<path d="M 141.0 199.0 L 141.0 198.0 L 141.0 198.0 L 141.0 198.0 L 139.0 201.0 L 135.0 206.0 L 131.0 212.0 " stroke="black" fill="none" stroke-width="5.0" stroke-linecap="round" stroke-linejoin="round" />
<path d="M 175.0 203.0 L 177.0 205.0 L 180.0 207.0 L 183.0 211.0 L 187.0 214.0 L 190.0 217.0 L 190.0 218.0 " stroke="black" fill="none" stroke-width="5.0" stroke-linecap="round" stroke-linejoin="round" />
</svg>