<svg xmlns="http://www.w3.org/2000/svg" width="300" height="300" viewBox="0 0 300 300">
<path d="M 118.0 114.0 L 119.0 114.0 L 119.0 115.0 L 122.0 115.0 L 133.0 115.0 L 150.0 115.0 L 165.0 113.0 L 175.0 112.0 L 179.0 112.0 L 180.0 112.0 L 180.0 112.0 " stroke="black" fill="none" stroke-width="5.0" stroke-linecap="round" stroke-linejoin="round" />
<path d="M 123.0 120.0 L 123.0 120.0 L 122.0 121.0 L 122.0 123.0 L 121.0 129.0 L 121.0 142.0 L 121.0 160.0 L 121.0 176.0 L 120.0 184.0 L 120.0 187.0 L 122.0 189.0 L 125.0 190.0 L 130.0 192.0 L 138.0 194.0 L 150.0 194.0 L 163.0 194.0 L 175.0 193.0 L 185.0 192.0 L 188.0 191.0 L 189.0 191.0 L 189.0 191.0 " stroke="black" fill="none" stroke-width="5.0" stroke-linecap="round" stroke-linejoin="round" />
<path d="M 149.0 117.0 L 149.0 117.0 L 149.0 117.0 L 150.0 120.0 L 151.0 128.0 L 152.0 139.0 L 154.0 144.0 " stroke="black" fill="none" stroke-width="5.0" stroke-linecap="round" stroke-linejoin="round" />
<path d="M 128.0 144.0 L 128.0 144.0 L 128.0 144.0 L 127.0 144.0 L 127.0 144.0 L 130.0 144.0 L 139.0 144.0 L 150.0 144.0 L 162.0 145.0 L 169.0 145.0 L 172.0 146.0 L 173.0 146.0 L 173.0 147.0 L 173.0 149.0 L 174.0 153.0 L 174.0 157.0 L 175.0 161.0 L 175.0 163.0 " stroke="black" fill="none" stroke-width="5.0" stroke-linecap="round" stroke-linejoin="round" />
<path d="M 129.0 164.0 L 129.0 164.0 L 129.0 164.0 L 132.0 165.0 L 140.0 165.0 L 153.0 165.0 L 166.0 164.0 L 173.0 164.0 L 175.0 164.0 L 175.0 165.0 " stroke="black" fill="none" stroke-width="5.0" stroke-linecap="round" stroke-linejoin="round" />
<path d="M 156.0 168.0 L 156.0 168.0 L 156.0 168.0 L 157.0 168.0 L 157.0 169.0 L 158.0 175.0 L 158.0 185.0 L 158.0 189.0 " stroke="black" fill="none" stroke-width="5.0" stroke-linecap="round" stroke-linejoin="round" />
</svg>