<svg xmlns="http://www.w3.org/2000/svg" width="300" height="300" viewBox="0 0 300 300">
<path d="M 135.0 107.0 L 135.0 107.0 L 134.0 107.0 L 134.0 109.0 L 137.0 113.0 L 141.0 117.0 L 145.0 120.0 " stroke="black" fill="none" stroke-width="5.0" stroke-linecap="round" stroke-linejoin="round" />
<path d="M 120.0 126.0 L 120.0 126.0 L 120.0 126.0 L 120.0 126.0 L 120.0 126.0 L 122.0 126.0 L 130.0 126.0 L 145.0 126.0 L 157.0 124.0 L 165.0 124.0 L 169.0 123.0 L 169.0 123.0 L 167.0 123.0 L 166.0 123.0 " stroke="black" fill="none" stroke-width="5.0" stroke-linecap="round" stroke-linejoin="round" />
<path d="M 134.0 130.0 L 134.0 130.0 L 134.0 130.0 L 134.0 130.0 L 134.0 131.0 L 135.0 133.0 L 136.0 136.0 L 138.0 140.0 L 139.0 142.0 " stroke="black" fill="none" stroke-width="5.0" stroke-linecap="round" stroke-linejoin="round" />
<path d="M 154.0 129.0 L 154.0 129.0 L 154.0 130.0 L 154.0 132.0 L 154.0 137.0 L 154.0 142.0 L 154.0 143.0 " stroke="black" fill="none" stroke-width="5.0" stroke-linecap="round" stroke-linejoin="round" />
<path d="M 108.0 145.0 L 109.0 145.0 L 110.0 145.0 L 111.0 145.0 L 116.0 145.0 L 131.0 145.0 L 151.0 145.0 L 166.0 145.0 L 176.0 144.0 L 179.0 144.0 " stroke="black" fill="none" stroke-width="5.0" stroke-linecap="round" stroke-linejoin="round" />
<path d="M 130.0 161.0 L 130.0 161.0 L 131.0 161.0 L 132.0 161.0 L 136.0 162.0 L 143.0 162.0 L 152.0 162.0 L 160.0 162.0 L 164.0 162.0 L 166.0 162.0 L 167.0 162.0 L 167.0 162.0 L 167.0 163.0 L 168.0 165.0 L 170.0 170.0 L 173.0 178.0 L 176.0 188.0 L 178.0 195.0 L 179.0 199.0 L 179.0 200.0 " stroke="black" fill="none" stroke-width="5.0" stroke-linecap="round" stroke-linejoin="round" />
<path d="M 132.0 163.0 L 132.0 163.0 L 131.0 162.0 L 130.0 161.0 L 130.0 161.0 L 130.0 166.0 L 131.0 175.0 L 131.0 186.0 L 131.0 194.0 L 134.0 197.0 " stroke="black" fill="none" stroke-width="5.0" stroke-linecap="round" stroke-linejoin="round" />
<path d="M 137.0 178.0 L 137.0 178.0 L 137.0 178.0 L 137.0 178.0 L 138.0 178.0 L 144.0 178.0 L 153.0 178.0 L 161.0 178.0 L 167.0 178.0 L 169.0 178.0 " stroke="black" fill="none" stroke-width="5.0" stroke-linecap="round" stroke-linejoin="round" />
<path d="M 135.0 196.0 L 135.0 196.0 L 135.0 197.0 L 137.0 198.0 L 144.0 198.0 L 155.0 198.0 L 166.0 198.0 L 175.0 198.0 L 176.0 199.0 " stroke="black" fill="none" stroke-width="5.0" stroke-linecap="round" stroke-linejoin="round" />
</svg>