<svg xmlns="http://www.w3.org/2000/svg" width="300" height="300" viewBox="0 0 300 300">
<path d="M 121.0 114.0 L 121.0 114.0 L 122.0 114.0 L 122.0 114.0 L 122.0 115.0 L 122.0 117.0 L 122.0 120.0 L 122.0 126.0 L 122.0 128.0 " stroke="black" fill="none" stroke-width="5.0" stroke-linecap="round" stroke-linejoin="round" />
<path d="M 122.0 114.0 L 122.0 114.0 L 124.0 114.0 L 125.0 114.0 L 126.0 114.0 L 132.0 115.0 L 140.0 115.0 L 147.0 115.0 L 162.0 114.0 L 166.0 114.0 L 178.0 115.0 L 182.0 115.0 L 184.0 115.0 L 186.0 117.0 L 186.0 119.0 L 186.0 123.0 L 186.0 128.0 L 186.0 131.0 L 186.0 132.0 " stroke="black" fill="none" stroke-width="5.0" stroke-linecap="round" stroke-linejoin="round" />
<path d="M 154.0 101.0 L 154.0 101.0 L 155.0 103.0 L 156.0 107.0 L 158.0 111.0 L 158.0 112.0 " stroke="black" fill="none" stroke-width="5.0" stroke-linecap="round" stroke-linejoin="round" />
<path d="M 147.0 127.0 L 147.0 127.0 L 147.0 128.0 L 147.0 129.0 L 146.0 130.0 L 144.0 132.0 L 139.0 137.0 L 132.0 143.0 L 131.0 144.0 L 130.0 144.0 " stroke="black" fill="none" stroke-width="5.0" stroke-linecap="round" stroke-linejoin="round" />
<path d="M 161.0 129.0 L 161.0 129.0 L 161.0 129.0 L 161.0 129.0 L 163.0 129.0 L 167.0 131.0 L 171.0 135.0 L 176.0 140.0 L 178.0 144.0 L 178.0 144.0 " stroke="black" fill="none" stroke-width="5.0" stroke-linecap="round" stroke-linejoin="round" />
<path d="M 151.0 139.0 L 151.0 139.0 L 151.0 139.0 L 151.0 139.0 L 150.0 139.0 L 146.0 144.0 L 141.0 149.0 L 134.0 156.0 L 121.0 167.0 L 119.0 168.0 " stroke="black" fill="none" stroke-width="5.0" stroke-linecap="round" stroke-linejoin="round" />
<path d="M 155.0 142.0 L 156.0 142.0 L 156.0 142.0 L 159.0 144.0 L 164.0 148.0 L 176.0 154.0 L 180.0 156.0 L 185.0 161.0 " stroke="black" fill="none" stroke-width="5.0" stroke-linecap="round" stroke-linejoin="round" />
<path d="M 136.0 161.0 L 136.0 161.0 L 136.0 162.0 L 136.0 162.0 L 136.0 164.0 L 136.0 166.0 L 136.0 175.0 L 137.0 184.0 L 138.0 186.0 L 139.0 188.0 " stroke="black" fill="none" stroke-width="5.0" stroke-linecap="round" stroke-linejoin="round" />
<path d="M 138.0 162.0 L 138.0 163.0 L 138.0 164.0 L 138.0 165.0 L 141.0 165.0 L 145.0 164.0 L 153.0 163.0 L 159.0 163.0 L 164.0 163.0 L 169.0 163.0 L 171.0 163.0 L 174.0 165.0 L 176.0 170.0 L 176.0 172.0 L 175.0 182.0 L 175.0 186.0 L 174.0 189.0 L 174.0 191.0 " stroke="black" fill="none" stroke-width="5.0" stroke-linecap="round" stroke-linejoin="round" />
<path d="M 139.0 189.0 L 139.0 189.0 L 140.0 190.0 L 140.0 190.0 L 143.0 191.0 L 147.0 191.0 L 156.0 191.0 L 164.0 191.0 L 167.0 191.0 L 169.0 192.0 L 169.0 193.0 " stroke="black" fill="none" stroke-width="5.0" stroke-linecap="round" stroke-linejoin="round" />
</svg>