<svg xmlns="http://www.w3.org/2000/svg" width="300" height="300" viewBox="0 0 300 300">
<path d="M 119.0 116.0 L 120.0 116.0 L 120.0 117.0 L 120.0 118.0 L 121.0 121.0 L 121.0 125.0 L 121.0 126.0 " stroke="black" fill="none" stroke-width="5.0" stroke-linecap="round" stroke-linejoin="round" />
<path d="M 123.0 114.0 L 123.0 114.0 L 123.0 114.0 L 123.0 114.0 L 124.0 114.0 L 128.0 114.0 L 136.0 113.0 L 147.0 112.0 L 156.0 112.0 L 163.0 112.0 L 168.0 112.0 L 171.0 112.0 L 173.0 112.0 L 174.0 113.0 L 175.0 114.0 L 176.0 115.0 L 176.0 118.0 L 176.0 121.0 L 175.0 125.0 L 173.0 127.0 " stroke="black" fill="none" stroke-width="5.0" stroke-linecap="round" stroke-linejoin="round" />
<path d="M 147.0 98.0 L 147.0 98.0 L 147.0 99.0 L 147.0 102.0 L 147.0 107.0 L 148.0 109.0 " stroke="black" fill="none" stroke-width="5.0" stroke-linecap="round" stroke-linejoin="round" />
<path d="M 144.0 125.0 L 144.0 125.0 L 144.0 126.0 L 143.0 126.0 L 142.0 128.0 L 139.0 131.0 L 134.0 138.0 L 128.0 145.0 L 125.0 148.0 " stroke="black" fill="none" stroke-width="5.0" stroke-linecap="round" stroke-linejoin="round" />
<path d="M 157.0 129.0 L 157.0 129.0 L 157.0 129.0 L 157.0 130.0 L 158.0 131.0 L 162.0 133.0 L 165.0 135.0 L 168.0 138.0 " stroke="black" fill="none" stroke-width="5.0" stroke-linecap="round" stroke-linejoin="round" />
<path d="M 148.0 141.0 L 148.0 142.0 L 147.0 142.0 L 145.0 144.0 L 142.0 147.0 L 138.0 152.0 L 130.0 158.0 L 122.0 165.0 L 116.0 169.0 " stroke="black" fill="none" stroke-width="5.0" stroke-linecap="round" stroke-linejoin="round" />
<path d="M 153.0 146.0 L 153.0 146.0 L 154.0 147.0 L 157.0 149.0 L 163.0 151.0 L 172.0 154.0 L 181.0 157.0 L 185.0 159.0 " stroke="black" fill="none" stroke-width="5.0" stroke-linecap="round" stroke-linejoin="round" />
<path d="M 135.0 162.0 L 135.0 162.0 L 135.0 163.0 L 134.0 165.0 L 134.0 171.0 L 135.0 179.0 L 137.0 185.0 L 138.0 188.0 " stroke="black" fill="none" stroke-width="5.0" stroke-linecap="round" stroke-linejoin="round" />
<path d="M 140.0 161.0 L 140.0 161.0 L 141.0 162.0 L 143.0 162.0 L 147.0 162.0 L 154.0 162.0 L 161.0 161.0 L 167.0 161.0 L 171.0 162.0 L 173.0 165.0 L 175.0 170.0 L 176.0 177.0 L 176.0 183.0 L 177.0 187.0 L 177.0 188.0 " stroke="black" fill="none" stroke-width="5.0" stroke-linecap="round" stroke-linejoin="round" />
<path d="M 144.0 189.0 L 145.0 189.0 L 147.0 189.0 L 151.0 190.0 L 160.0 191.0 L 169.0 191.0 L 175.0 191.0 " stroke="black" fill="none" stroke-width="5.0" stroke-linecap="round" stroke-linejoin="round" />
</svg>