<svg xmlns="http://www.w3.org/2000/svg" width="300" height="300" viewBox="0 0 300 300">
<path d="M 118.0 116.0 L 119.0 117.0 L 119.0 118.0 L 119.0 121.0 L 119.0 125.0 L 119.0 129.0 L 120.0 130.0 " stroke="black" fill="none" stroke-width="5.0" stroke-linecap="round" stroke-linejoin="round" />
<path d="M 119.0 114.0 L 119.0 114.0 L 119.0 114.0 L 121.0 114.0 L 127.0 114.0 L 139.0 113.0 L 152.0 113.0 L 162.0 113.0 L 170.0 113.0 L 176.0 113.0 L 179.0 113.0 L 181.0 115.0 L 181.0 120.0 L 181.0 126.0 L 181.0 131.0 L 180.0 133.0 " stroke="black" fill="none" stroke-width="5.0" stroke-linecap="round" stroke-linejoin="round" />
<path d="M 148.0 95.0 L 148.0 95.0 L 148.0 95.0 L 148.0 95.0 L 148.0 99.0 L 151.0 108.0 " stroke="black" fill="none" stroke-width="5.0" stroke-linecap="round" stroke-linejoin="round" />
<path d="M 144.0 129.0 L 144.0 129.0 L 144.0 129.0 L 143.0 129.0 L 143.0 129.0 L 142.0 130.0 L 139.0 134.0 L 130.0 142.0 L 122.0 150.0 L 119.0 153.0 L 121.0 152.0 " stroke="black" fill="none" stroke-width="5.0" stroke-linecap="round" stroke-linejoin="round" />
<path d="M 156.0 129.0 L 156.0 129.0 L 156.0 129.0 L 157.0 129.0 L 160.0 131.0 L 166.0 135.0 L 173.0 140.0 L 177.0 144.0 L 179.0 146.0 " stroke="black" fill="none" stroke-width="5.0" stroke-linecap="round" stroke-linejoin="round" />
<path d="M 151.0 140.0 L 151.0 140.0 L 151.0 140.0 L 151.0 140.0 L 151.0 140.0 L 148.0 142.0 L 140.0 150.0 L 124.0 164.0 L 113.0 173.0 L 112.0 173.0 L 114.0 171.0 " stroke="black" fill="none" stroke-width="5.0" stroke-linecap="round" stroke-linejoin="round" />
<path d="M 153.0 143.0 L 153.0 143.0 L 153.0 143.0 L 153.0 143.0 L 153.0 143.0 L 156.0 144.0 L 164.0 148.0 L 173.0 154.0 L 181.0 158.0 L 185.0 159.0 L 185.0 159.0 " stroke="black" fill="none" stroke-width="5.0" stroke-linecap="round" stroke-linejoin="round" />
<path d="M 136.0 160.0 L 136.0 160.0 L 136.0 160.0 L 136.0 160.0 L 136.0 163.0 L 138.0 172.0 L 139.0 181.0 L 140.0 187.0 " stroke="black" fill="none" stroke-width="5.0" stroke-linecap="round" stroke-linejoin="round" />
<path d="M 142.0 157.0 L 142.0 157.0 L 142.0 157.0 L 142.0 157.0 L 143.0 157.0 L 149.0 157.0 L 158.0 159.0 L 166.0 161.0 L 170.0 162.0 L 172.0 163.0 L 174.0 166.0 L 174.0 172.0 L 175.0 180.0 L 175.0 187.0 L 175.0 191.0 L 175.0 191.0 " stroke="black" fill="none" stroke-width="5.0" stroke-linecap="round" stroke-linejoin="round" />
<path d="M 141.0 189.0 L 140.0 189.0 L 139.0 190.0 L 142.0 191.0 L 152.0 192.0 L 168.0 192.0 L 180.0 191.0 L 182.0 191.0 " stroke="black" fill="none" stroke-width="5.0" stroke-linecap="round" stroke-linejoin="round" />
</svg>