<svg xmlns="http://www.w3.org/2000/svg" width="300" height="300" viewBox="0 0 300 300">
<path d="M 118.0 118.0 L 118.0 118.0 L 119.0 119.0 L 119.0 119.0 L 120.0 119.0 L 124.0 119.0 L 129.0 118.0 L 134.0 118.0 L 138.0 118.0 L 139.0 118.0 " stroke="black" fill="none" stroke-width="5.0" stroke-linecap="round" stroke-linejoin="round" />
<path d="M 131.0 108.0 L 131.0 108.0 L 131.0 108.0 L 131.0 108.0 L 131.0 109.0 L 130.0 113.0 L 128.0 118.0 L 126.0 126.0 L 125.0 127.0 " stroke="black" fill="none" stroke-width="5.0" stroke-linecap="round" stroke-linejoin="round" />
<path d="M 113.0 135.0 L 113.0 135.0 L 113.0 135.0 L 113.0 136.0 L 113.0 140.0 L 113.0 145.0 L 113.0 151.0 L 114.0 154.0 L 114.0 154.0 " stroke="black" fill="none" stroke-width="5.0" stroke-linecap="round" stroke-linejoin="round" />
<path d="M 116.0 134.0 L 116.0 134.0 L 118.0 133.0 L 120.0 133.0 L 122.0 133.0 L 126.0 132.0 L 131.0 132.0 L 135.0 132.0 L 137.0 132.0 L 140.0 135.0 L 142.0 140.0 L 143.0 146.0 L 144.0 152.0 L 145.0 155.0 L 145.0 157.0 L 145.0 157.0 " stroke="black" fill="none" stroke-width="5.0" stroke-linecap="round" stroke-linejoin="round" />
<path d="M 117.0 144.0 L 118.0 144.0 L 118.0 144.0 L 121.0 144.0 L 126.0 145.0 L 133.0 145.0 L 138.0 145.0 L 139.0 146.0 " stroke="black" fill="none" stroke-width="5.0" stroke-linecap="round" stroke-linejoin="round" />
<path d="M 115.0 159.0 L 115.0 159.0 L 119.0 159.0 L 123.0 160.0 L 128.0 160.0 L 134.0 160.0 L 138.0 160.0 L 139.0 160.0 " stroke="black" fill="none" stroke-width="5.0" stroke-linecap="round" stroke-linejoin="round" />
<path d="M 106.0 176.0 L 107.0 176.0 L 109.0 176.0 L 112.0 176.0 L 119.0 176.0 L 130.0 175.0 L 142.0 175.0 L 148.0 174.0 L 149.0 174.0 " stroke="black" fill="none" stroke-width="5.0" stroke-linecap="round" stroke-linejoin="round" />
<path d="M 127.0 160.0 L 127.0 161.0 L 127.0 164.0 L 127.0 171.0 L 128.0 183.0 L 129.0 193.0 L 130.0 196.0 " stroke="black" fill="none" stroke-width="5.0" stroke-linecap="round" stroke-linejoin="round" />
<path d="M 153.0 118.0 L 153.0 118.0 L 154.0 118.0 L 154.0 118.0 L 154.0 118.0 L 155.0 123.0 L 155.0 138.0 L 155.0 160.0 L 154.0 178.0 L 154.0 187.0 L 154.0 189.0 L 155.0 188.0 " stroke="black" fill="none" stroke-width="5.0" stroke-linecap="round" stroke-linejoin="round" />
<path d="M 155.0 119.0 L 155.0 119.0 L 156.0 119.0 L 156.0 119.0 L 157.0 119.0 L 159.0 119.0 L 162.0 119.0 L 166.0 119.0 L 171.0 121.0 L 175.0 127.0 L 180.0 140.0 L 185.0 158.0 L 187.0 175.0 L 189.0 186.0 L 189.0 192.0 L 188.0 194.0 L 184.0 195.0 L 178.0 193.0 L 172.0 188.0 " stroke="black" fill="none" stroke-width="5.0" stroke-linecap="round" stroke-linejoin="round" />
<path d="M 158.0 142.0 L 159.0 142.0 L 161.0 142.0 L 163.0 142.0 L 167.0 142.0 L 173.0 142.0 L 177.0 143.0 L 179.0 144.0 L 179.0 144.0 " stroke="black" fill="none" stroke-width="5.0" stroke-linecap="round" stroke-linejoin="round" />
<path d="M 157.0 159.0 L 158.0 160.0 L 160.0 161.0 L 166.0 162.0 L 174.0 163.0 L 181.0 163.0 " stroke="black" fill="none" stroke-width="5.0" stroke-linecap="round" stroke-linejoin="round" />
</svg>