<svg xmlns="http://www.w3.org/2000/svg" width="300" height="300" viewBox="0 0 300 300">
<path d="M 115.0 116.0 L 115.0 116.0 L 115.0 116.0 L 116.0 116.0 L 116.0 116.0 L 119.0 117.0 L 123.0 117.0 L 130.0 116.0 L 137.0 116.0 L 140.0 115.0 " stroke="black" fill="none" stroke-width="5.0" stroke-linecap="round" stroke-linejoin="round" />
<path d="M 133.0 104.0 L 133.0 104.0 L 133.0 104.0 L 133.0 104.0 L 133.0 104.0 L 132.0 107.0 L 130.0 114.0 L 126.0 124.0 L 125.0 127.0 " stroke="black" fill="none" stroke-width="5.0" stroke-linecap="round" stroke-linejoin="round" />
<path d="M 114.0 133.0 L 114.0 133.0 L 114.0 134.0 L 114.0 134.0 L 113.0 136.0 L 113.0 141.0 L 114.0 147.0 L 114.0 151.0 L 115.0 153.0 " stroke="black" fill="none" stroke-width="5.0" stroke-linecap="round" stroke-linejoin="round" />
<path d="M 115.0 133.0 L 116.0 133.0 L 117.0 133.0 L 119.0 133.0 L 123.0 132.0 L 129.0 132.0 L 135.0 131.0 L 139.0 131.0 L 141.0 136.0 L 143.0 143.0 L 143.0 152.0 L 143.0 157.0 L 143.0 159.0 L 143.0 159.0 " stroke="black" fill="none" stroke-width="5.0" stroke-linecap="round" stroke-linejoin="round" />
<path d="M 116.0 143.0 L 116.0 143.0 L 117.0 142.0 L 119.0 142.0 L 123.0 142.0 L 130.0 142.0 L 136.0 142.0 L 140.0 143.0 L 141.0 144.0 " stroke="black" fill="none" stroke-width="5.0" stroke-linecap="round" stroke-linejoin="round" />
<path d="M 116.0 154.0 L 118.0 155.0 L 121.0 156.0 L 125.0 157.0 L 131.0 157.0 L 136.0 156.0 L 140.0 156.0 " stroke="black" fill="none" stroke-width="5.0" stroke-linecap="round" stroke-linejoin="round" />
<path d="M 109.0 172.0 L 110.0 172.0 L 111.0 172.0 L 115.0 172.0 L 122.0 172.0 L 133.0 171.0 L 141.0 171.0 L 145.0 171.0 L 145.0 171.0 " stroke="black" fill="none" stroke-width="5.0" stroke-linecap="round" stroke-linejoin="round" />
<path d="M 129.0 160.0 L 129.0 160.0 L 129.0 160.0 L 129.0 161.0 L 130.0 166.0 L 132.0 176.0 L 132.0 188.0 L 132.0 196.0 L 132.0 198.0 " stroke="black" fill="none" stroke-width="5.0" stroke-linecap="round" stroke-linejoin="round" />
<path d="M 157.0 117.0 L 157.0 117.0 L 157.0 117.0 L 157.0 119.0 L 157.0 125.0 L 157.0 138.0 L 157.0 155.0 L 157.0 169.0 L 157.0 177.0 L 157.0 179.0 L 157.0 179.0 " stroke="black" fill="none" stroke-width="5.0" stroke-linecap="round" stroke-linejoin="round" />
<path d="M 159.0 114.0 L 160.0 114.0 L 161.0 114.0 L 163.0 114.0 L 166.0 115.0 L 170.0 115.0 L 175.0 116.0 L 178.0 119.0 L 181.0 126.0 L 184.0 139.0 L 187.0 154.0 L 189.0 168.0 L 189.0 178.0 L 189.0 183.0 L 189.0 186.0 L 185.0 188.0 L 179.0 188.0 L 170.0 187.0 " stroke="black" fill="none" stroke-width="5.0" stroke-linecap="round" stroke-linejoin="round" />
<path d="M 161.0 137.0 L 161.0 136.0 L 161.0 136.0 L 162.0 136.0 L 164.0 136.0 L 170.0 136.0 L 178.0 136.0 L 182.0 137.0 L 183.0 138.0 " stroke="black" fill="none" stroke-width="5.0" stroke-linecap="round" stroke-linejoin="round" />
<path d="M 158.0 157.0 L 158.0 158.0 L 158.0 158.0 L 161.0 158.0 L 170.0 157.0 L 181.0 156.0 L 186.0 155.0 " stroke="black" fill="none" stroke-width="5.0" stroke-linecap="round" stroke-linejoin="round" />
</svg>