<svg xmlns="http://www.w3.org/2000/svg" width="300" height="300" viewBox="0 0 300 300">
<path d="M 114.0 113.0 L 114.0 113.0 L 114.0 113.0 L 114.0 113.0 L 115.0 113.0 L 120.0 113.0 L 128.0 113.0 L 137.0 112.0 L 143.0 112.0 " stroke="black" fill="none" stroke-width="5.0" stroke-linecap="round" stroke-linejoin="round" />
<path d="M 134.0 100.0 L 134.0 100.0 L 133.0 101.0 L 133.0 104.0 L 132.0 109.0 L 129.0 117.0 L 127.0 121.0 " stroke="black" fill="none" stroke-width="5.0" stroke-linecap="round" stroke-linejoin="round" />
<path d="M 114.0 128.0 L 114.0 128.0 L 114.0 128.0 L 115.0 129.0 L 115.0 131.0 L 115.0 135.0 L 116.0 141.0 L 116.0 147.0 L 116.0 150.0 " stroke="black" fill="none" stroke-width="5.0" stroke-linecap="round" stroke-linejoin="round" />
<path d="M 115.0 126.0 L 115.0 126.0 L 115.0 126.0 L 115.0 126.0 L 118.0 126.0 L 125.0 125.0 L 133.0 124.0 L 139.0 124.0 L 143.0 124.0 L 144.0 125.0 L 146.0 130.0 L 147.0 138.0 L 147.0 145.0 L 148.0 150.0 L 148.0 152.0 " stroke="black" fill="none" stroke-width="5.0" stroke-linecap="round" stroke-linejoin="round" />
<path d="M 120.0 139.0 L 120.0 139.0 L 120.0 139.0 L 122.0 139.0 L 129.0 139.0 L 137.0 139.0 L 143.0 139.0 L 145.0 140.0 " stroke="black" fill="none" stroke-width="5.0" stroke-linecap="round" stroke-linejoin="round" />
<path d="M 120.0 150.0 L 121.0 150.0 L 125.0 151.0 L 131.0 152.0 L 139.0 152.0 L 146.0 153.0 " stroke="black" fill="none" stroke-width="5.0" stroke-linecap="round" stroke-linejoin="round" />
<path d="M 108.0 171.0 L 108.0 171.0 L 108.0 172.0 L 111.0 173.0 L 121.0 173.0 L 134.0 172.0 L 145.0 171.0 L 151.0 172.0 " stroke="black" fill="none" stroke-width="5.0" stroke-linecap="round" stroke-linejoin="round" />
<path d="M 133.0 155.0 L 133.0 155.0 L 132.0 157.0 L 131.0 159.0 L 131.0 165.0 L 133.0 174.0 L 135.0 185.0 L 135.0 187.0 " stroke="black" fill="none" stroke-width="5.0" stroke-linecap="round" stroke-linejoin="round" />
<path d="M 159.0 111.0 L 159.0 111.0 L 159.0 112.0 L 159.0 114.0 L 159.0 123.0 L 159.0 141.0 L 158.0 163.0 L 155.0 181.0 L 152.0 188.0 L 152.0 188.0 " stroke="black" fill="none" stroke-width="5.0" stroke-linecap="round" stroke-linejoin="round" />
<path d="M 160.0 113.0 L 160.0 113.0 L 161.0 113.0 L 161.0 113.0 L 163.0 113.0 L 166.0 113.0 L 171.0 113.0 L 175.0 116.0 L 179.0 123.0 L 183.0 136.0 L 185.0 152.0 L 187.0 167.0 L 188.0 179.0 L 188.0 188.0 L 187.0 194.0 L 184.0 196.0 L 177.0 197.0 L 171.0 194.0 " stroke="black" fill="none" stroke-width="5.0" stroke-linecap="round" stroke-linejoin="round" />
<path d="M 160.0 134.0 L 161.0 134.0 L 163.0 134.0 L 166.0 134.0 L 172.0 134.0 L 179.0 134.0 L 182.0 134.0 " stroke="black" fill="none" stroke-width="5.0" stroke-linecap="round" stroke-linejoin="round" />
<path d="M 160.0 156.0 L 161.0 156.0 L 163.0 156.0 L 169.0 156.0 L 177.0 156.0 L 185.0 155.0 " stroke="black" fill="none" stroke-width="5.0" stroke-linecap="round" stroke-linejoin="round" />
</svg>