<svg xmlns="http://www.w3.org/2000/svg" width="300" height="300" viewBox="0 0 300 300">
<path d="M 115.0 113.0 L 116.0 113.0 L 116.0 113.0 L 116.0 113.0 L 117.0 113.0 L 117.0 115.0 L 116.0 121.0 L 112.0 133.0 L 106.0 143.0 " stroke="black" fill="none" stroke-width="5.0" stroke-linecap="round" stroke-linejoin="round" />
<path d="M 115.0 127.0 L 116.0 127.0 L 117.0 127.0 L 119.0 128.0 L 122.0 128.0 L 128.0 127.0 L 135.0 125.0 L 139.0 124.0 L 141.0 124.0 " stroke="black" fill="none" stroke-width="5.0" stroke-linecap="round" stroke-linejoin="round" />
<path d="M 107.0 152.0 L 107.0 153.0 L 107.0 153.0 L 110.0 153.0 L 117.0 152.0 L 128.0 150.0 L 137.0 148.0 L 143.0 147.0 L 144.0 147.0 " stroke="black" fill="none" stroke-width="5.0" stroke-linecap="round" stroke-linejoin="round" />
<path d="M 124.0 132.0 L 124.0 131.0 L 124.0 131.0 L 124.0 130.0 L 125.0 132.0 L 125.0 140.0 L 123.0 154.0 L 120.0 169.0 L 117.0 180.0 L 116.0 184.0 L 114.0 185.0 " stroke="black" fill="none" stroke-width="5.0" stroke-linecap="round" stroke-linejoin="round" />
<path d="M 127.0 155.0 L 127.0 155.0 L 128.0 155.0 L 129.0 155.0 L 132.0 159.0 L 137.0 168.0 L 142.0 176.0 L 145.0 180.0 L 146.0 181.0 " stroke="black" fill="none" stroke-width="5.0" stroke-linecap="round" stroke-linejoin="round" />
<path d="M 159.0 137.0 L 159.0 137.0 L 159.0 137.0 L 159.0 138.0 L 160.0 141.0 L 160.0 147.0 L 160.0 154.0 L 161.0 159.0 L 161.0 161.0 L 161.0 160.0 " stroke="black" fill="none" stroke-width="5.0" stroke-linecap="round" stroke-linejoin="round" />
<path d="M 160.0 139.0 L 160.0 139.0 L 161.0 138.0 L 161.0 137.0 L 163.0 137.0 L 166.0 137.0 L 170.0 139.0 L 174.0 140.0 L 178.0 141.0 L 182.0 143.0 L 184.0 147.0 L 186.0 153.0 L 186.0 159.0 L 186.0 164.0 L 185.0 165.0 " stroke="black" fill="none" stroke-width="5.0" stroke-linecap="round" stroke-linejoin="round" />
<path d="M 159.0 166.0 L 159.0 166.0 L 160.0 167.0 L 162.0 168.0 L 168.0 168.0 L 177.0 167.0 L 180.0 167.0 " stroke="black" fill="none" stroke-width="5.0" stroke-linecap="round" stroke-linejoin="round" />
</svg>