<svg xmlns="http://www.w3.org/2000/svg" width="300" height="300" viewBox="0 0 300 300">
<path d="M 122.0 115.0 L 122.0 116.0 L 122.0 117.0 L 122.0 118.0 L 122.0 122.0 L 120.0 130.0 L 117.0 139.0 L 113.0 146.0 L 110.0 150.0 " stroke="black" fill="none" stroke-width="5.0" stroke-linecap="round" stroke-linejoin="round" />
<path d="M 119.0 136.0 L 121.0 136.0 L 122.0 136.0 L 124.0 136.0 L 127.0 136.0 L 132.0 135.0 L 137.0 135.0 L 140.0 135.0 L 141.0 135.0 " stroke="black" fill="none" stroke-width="5.0" stroke-linecap="round" stroke-linejoin="round" />
<path d="M 108.0 162.0 L 109.0 162.0 L 109.0 163.0 L 114.0 163.0 L 124.0 162.0 L 134.0 160.0 L 141.0 160.0 L 143.0 161.0 L 143.0 161.0 " stroke="black" fill="none" stroke-width="5.0" stroke-linecap="round" stroke-linejoin="round" />
<path d="M 127.0 140.0 L 127.0 140.0 L 127.0 140.0 L 126.0 140.0 L 126.0 145.0 L 124.0 157.0 L 121.0 174.0 L 117.0 185.0 L 115.0 190.0 " stroke="black" fill="none" stroke-width="5.0" stroke-linecap="round" stroke-linejoin="round" />
<path d="M 126.0 170.0 L 127.0 170.0 L 128.0 171.0 L 132.0 175.0 L 139.0 181.0 L 145.0 189.0 L 147.0 192.0 " stroke="black" fill="none" stroke-width="5.0" stroke-linecap="round" stroke-linejoin="round" />
<path d="M 154.0 148.0 L 154.0 148.0 L 154.0 148.0 L 155.0 150.0 L 155.0 156.0 L 155.0 162.0 L 155.0 165.0 L 155.0 165.0 " stroke="black" fill="none" stroke-width="5.0" stroke-linecap="round" stroke-linejoin="round" />
<path d="M 154.0 147.0 L 156.0 147.0 L 158.0 147.0 L 161.0 147.0 L 166.0 147.0 L 172.0 147.0 L 177.0 149.0 L 181.0 152.0 L 184.0 157.0 L 185.0 162.0 L 185.0 165.0 L 185.0 167.0 L 185.0 167.0 " stroke="black" fill="none" stroke-width="5.0" stroke-linecap="round" stroke-linejoin="round" />
<path d="M 156.0 170.0 L 157.0 170.0 L 158.0 171.0 L 159.0 172.0 L 163.0 173.0 L 170.0 173.0 L 179.0 173.0 L 185.0 173.0 " stroke="black" fill="none" stroke-width="5.0" stroke-linecap="round" stroke-linejoin="round" />
</svg>