<svg xmlns="http://www.w3.org/2000/svg" width="300" height="300" viewBox="0 0 300 300">
<path d="M 115.0 118.0 L 116.0 118.0 L 117.0 119.0 L 119.0 119.0 L 122.0 119.0 L 128.0 119.0 L 133.0 119.0 L 136.0 119.0 L 137.0 119.0 " stroke="black" fill="none" stroke-width="5.0" stroke-linecap="round" stroke-linejoin="round" />
<path d="M 127.0 119.0 L 127.0 119.0 L 127.0 121.0 L 127.0 123.0 L 127.0 126.0 L 127.0 131.0 L 127.0 134.0 L 127.0 136.0 " stroke="black" fill="none" stroke-width="5.0" stroke-linecap="round" stroke-linejoin="round" />
<path d="M 108.0 138.0 L 109.0 138.0 L 110.0 138.0 L 111.0 138.0 L 114.0 138.0 L 123.0 138.0 L 134.0 139.0 L 144.0 139.0 L 149.0 140.0 L 149.0 140.0 L 148.0 140.0 L 148.0 140.0 " stroke="black" fill="none" stroke-width="5.0" stroke-linecap="round" stroke-linejoin="round" />
<path d="M 136.0 141.0 L 136.0 141.0 L 136.0 141.0 L 135.0 141.0 L 135.0 142.0 L 135.0 146.0 L 136.0 156.0 L 137.0 171.0 L 138.0 186.0 L 138.0 196.0 L 138.0 201.0 L 138.0 203.0 L 138.0 203.0 L 138.0 200.0 " stroke="black" fill="none" stroke-width="5.0" stroke-linecap="round" stroke-linejoin="round" />
<path d="M 118.0 144.0 L 119.0 144.0 L 119.0 144.0 L 119.0 144.0 L 119.0 145.0 L 119.0 149.0 L 119.0 157.0 L 118.0 165.0 L 117.0 170.0 L 117.0 171.0 " stroke="black" fill="none" stroke-width="5.0" stroke-linecap="round" stroke-linejoin="round" />
<path d="M 120.0 154.0 L 120.0 154.0 L 120.0 154.0 L 121.0 154.0 L 124.0 155.0 L 128.0 155.0 L 132.0 155.0 L 133.0 155.0 " stroke="black" fill="none" stroke-width="5.0" stroke-linecap="round" stroke-linejoin="round" />
<path d="M 120.0 163.0 L 121.0 163.0 L 123.0 164.0 L 125.0 165.0 L 128.0 165.0 L 132.0 165.0 L 133.0 165.0 " stroke="black" fill="none" stroke-width="5.0" stroke-linecap="round" stroke-linejoin="round" />
<path d="M 104.0 177.0 L 104.0 178.0 L 105.0 179.0 L 108.0 180.0 L 114.0 180.0 L 124.0 180.0 L 133.0 180.0 L 134.0 180.0 " stroke="black" fill="none" stroke-width="5.0" stroke-linecap="round" stroke-linejoin="round" />
<path d="M 153.0 119.0 L 153.0 119.0 L 153.0 119.0 L 153.0 120.0 L 153.0 126.0 L 152.0 137.0 L 149.0 148.0 L 147.0 154.0 " stroke="black" fill="none" stroke-width="5.0" stroke-linecap="round" stroke-linejoin="round" />
<path d="M 152.0 136.0 L 153.0 135.0 L 154.0 135.0 L 155.0 135.0 L 159.0 134.0 L 165.0 134.0 L 171.0 134.0 L 175.0 134.0 L 175.0 135.0 " stroke="black" fill="none" stroke-width="5.0" stroke-linecap="round" stroke-linejoin="round" />
<path d="M 169.0 139.0 L 169.0 139.0 L 169.0 139.0 L 170.0 138.0 L 170.0 139.0 L 170.0 144.0 L 169.0 156.0 L 165.0 173.0 L 157.0 191.0 L 152.0 200.0 L 151.0 202.0 L 151.0 202.0 " stroke="black" fill="none" stroke-width="5.0" stroke-linecap="round" stroke-linejoin="round" />
<path d="M 149.0 167.0 L 149.0 167.0 L 149.0 167.0 L 150.0 169.0 L 156.0 177.0 L 167.0 189.0 L 179.0 197.0 L 186.0 201.0 L 189.0 203.0 L 189.0 204.0 " stroke="black" fill="none" stroke-width="5.0" stroke-linecap="round" stroke-linejoin="round" />
</svg>