<svg xmlns="http://www.w3.org/2000/svg" width="300" height="300" viewBox="0 0 300 300">
<path d="M 117.0 130.0 L 117.0 130.0 L 117.0 130.0 L 117.0 130.0 L 117.0 133.0 L 117.0 140.0 L 117.0 152.0 L 117.0 161.0 L 117.0 167.0 L 117.0 167.0 " stroke="black" fill="none" stroke-width="5.0" stroke-linecap="round" stroke-linejoin="round" />
<path d="M 116.0 131.0 L 116.0 131.0 L 116.0 131.0 L 116.0 131.0 L 117.0 131.0 L 121.0 131.0 L 126.0 131.0 L 130.0 131.0 L 133.0 131.0 L 136.0 132.0 L 137.0 137.0 L 138.0 147.0 L 140.0 159.0 L 141.0 167.0 L 141.0 170.0 L 141.0 171.0 " stroke="black" fill="none" stroke-width="5.0" stroke-linecap="round" stroke-linejoin="round" />
<path d="M 119.0 151.0 L 119.0 151.0 L 120.0 151.0 L 123.0 151.0 L 129.0 151.0 L 135.0 152.0 L 139.0 152.0 L 140.0 153.0 " stroke="black" fill="none" stroke-width="5.0" stroke-linecap="round" stroke-linejoin="round" />
<path d="M 118.0 172.0 L 120.0 173.0 L 123.0 174.0 L 131.0 175.0 L 141.0 174.0 L 143.0 174.0 " stroke="black" fill="none" stroke-width="5.0" stroke-linecap="round" stroke-linejoin="round" />
<path d="M 156.0 120.0 L 156.0 120.0 L 156.0 120.0 L 156.0 120.0 L 156.0 120.0 L 156.0 125.0 L 156.0 138.0 L 155.0 159.0 L 153.0 181.0 L 152.0 193.0 L 151.0 196.0 L 151.0 196.0 " stroke="black" fill="none" stroke-width="5.0" stroke-linecap="round" stroke-linejoin="round" />
<path d="M 155.0 117.0 L 155.0 117.0 L 156.0 117.0 L 156.0 117.0 L 158.0 117.0 L 162.0 117.0 L 169.0 116.0 L 175.0 116.0 L 180.0 119.0 L 183.0 124.0 L 186.0 133.0 L 189.0 149.0 L 192.0 167.0 L 193.0 183.0 L 194.0 194.0 L 194.0 198.0 L 191.0 198.0 L 185.0 198.0 L 180.0 196.0 " stroke="black" fill="none" stroke-width="5.0" stroke-linecap="round" stroke-linejoin="round" />
<path d="M 159.0 141.0 L 159.0 141.0 L 159.0 141.0 L 159.0 141.0 L 163.0 142.0 L 171.0 142.0 L 180.0 142.0 L 184.0 144.0 " stroke="black" fill="none" stroke-width="5.0" stroke-linecap="round" stroke-linejoin="round" />
<path d="M 158.0 162.0 L 160.0 162.0 L 163.0 163.0 L 169.0 164.0 L 179.0 165.0 L 184.0 165.0 " stroke="black" fill="none" stroke-width="5.0" stroke-linecap="round" stroke-linejoin="round" />
</svg>