<svg xmlns="http://www.w3.org/2000/svg" width="300" height="300" viewBox="0 0 300 300">
<path d="M 113.0 126.0 L 113.0 126.0 L 113.0 128.0 L 113.0 132.0 L 113.0 138.0 L 113.0 147.0 L 113.0 156.0 L 113.0 163.0 L 112.0 164.0 " stroke="black" fill="none" stroke-width="5.0" stroke-linecap="round" stroke-linejoin="round" />
<path d="M 113.0 126.0 L 114.0 127.0 L 114.0 127.0 L 115.0 127.0 L 117.0 127.0 L 121.0 127.0 L 125.0 127.0 L 129.0 127.0 L 132.0 128.0 L 134.0 131.0 L 135.0 140.0 L 136.0 151.0 L 137.0 161.0 L 138.0 166.0 L 138.0 166.0 L 138.0 166.0 " stroke="black" fill="none" stroke-width="5.0" stroke-linecap="round" stroke-linejoin="round" />
<path d="M 115.0 150.0 L 115.0 150.0 L 115.0 150.0 L 116.0 150.0 L 117.0 150.0 L 122.0 150.0 L 128.0 150.0 L 133.0 150.0 " stroke="black" fill="none" stroke-width="5.0" stroke-linecap="round" stroke-linejoin="round" />
<path d="M 112.0 168.0 L 112.0 168.0 L 112.0 169.0 L 112.0 169.0 L 117.0 170.0 L 126.0 170.0 L 129.0 170.0 " stroke="black" fill="none" stroke-width="5.0" stroke-linecap="round" stroke-linejoin="round" />
<path d="M 154.0 116.0 L 154.0 116.0 L 153.0 116.0 L 152.0 117.0 L 152.0 120.0 L 152.0 133.0 L 152.0 156.0 L 151.0 177.0 L 148.0 191.0 L 147.0 196.0 L 147.0 196.0 " stroke="black" fill="none" stroke-width="5.0" stroke-linecap="round" stroke-linejoin="round" />
<path d="M 152.0 116.0 L 152.0 116.0 L 152.0 116.0 L 153.0 116.0 L 156.0 116.0 L 162.0 116.0 L 169.0 116.0 L 174.0 116.0 L 178.0 120.0 L 181.0 127.0 L 185.0 140.0 L 188.0 157.0 L 191.0 173.0 L 192.0 183.0 L 192.0 190.0 L 191.0 193.0 L 188.0 194.0 L 180.0 194.0 L 167.0 190.0 " stroke="black" fill="none" stroke-width="5.0" stroke-linecap="round" stroke-linejoin="round" />
<path d="M 152.0 136.0 L 152.0 136.0 L 152.0 137.0 L 153.0 137.0 L 160.0 137.0 L 170.0 137.0 L 178.0 137.0 L 183.0 137.0 L 183.0 138.0 " stroke="black" fill="none" stroke-width="5.0" stroke-linecap="round" stroke-linejoin="round" />
<path d="M 154.0 156.0 L 155.0 157.0 L 158.0 158.0 L 163.0 159.0 L 174.0 159.0 L 186.0 159.0 L 189.0 158.0 " stroke="black" fill="none" stroke-width="5.0" stroke-linecap="round" stroke-linejoin="round" />
</svg>