<svg xmlns="http://www.w3.org/2000/svg" width="300" height="300" viewBox="0 0 300 300">
<path d="M 136.0 105.0 L 136.0 105.0 L 136.0 104.0 L 136.0 104.0 L 136.0 104.0 L 136.0 104.0 L 135.0 106.0 L 132.0 109.0 L 130.0 113.0 L 127.0 115.0 L 125.0 117.0 L 125.0 117.0 L 125.0 119.0 L 125.0 122.0 L 126.0 127.0 L 127.0 135.0 L 127.0 141.0 L 128.0 145.0 L 128.0 146.0 L 129.0 145.0 " stroke="black" fill="none" stroke-width="5.0" stroke-linecap="round" stroke-linejoin="round" />
<path d="M 129.0 118.0 L 129.0 118.0 L 130.0 119.0 L 131.0 119.0 L 132.0 119.0 L 136.0 119.0 L 142.0 119.0 L 148.0 118.0 L 154.0 118.0 L 158.0 118.0 L 160.0 118.0 L 162.0 121.0 L 163.0 127.0 L 164.0 136.0 L 165.0 143.0 L 165.0 148.0 L 165.0 149.0 L 165.0 149.0 " stroke="black" fill="none" stroke-width="5.0" stroke-linecap="round" stroke-linejoin="round" />
<path d="M 132.0 135.0 L 132.0 135.0 L 134.0 135.0 L 137.0 135.0 L 141.0 135.0 L 147.0 135.0 L 153.0 134.0 L 156.0 134.0 L 157.0 134.0 L 157.0 135.0 " stroke="black" fill="none" stroke-width="5.0" stroke-linecap="round" stroke-linejoin="round" />
<path d="M 128.0 149.0 L 131.0 150.0 L 134.0 151.0 L 140.0 152.0 L 148.0 152.0 L 155.0 150.0 L 158.0 150.0 " stroke="black" fill="none" stroke-width="5.0" stroke-linecap="round" stroke-linejoin="round" />
<path d="M 127.0 166.0 L 127.0 166.0 L 127.0 167.0 L 128.0 167.0 L 131.0 167.0 L 139.0 167.0 L 150.0 166.0 L 160.0 164.0 L 166.0 162.0 L 168.0 161.0 L 167.0 161.0 " stroke="black" fill="none" stroke-width="5.0" stroke-linecap="round" stroke-linejoin="round" />
<path d="M 133.0 181.0 L 135.0 181.0 L 138.0 181.0 L 143.0 181.0 L 149.0 181.0 L 155.0 181.0 L 158.0 181.0 L 158.0 181.0 " stroke="black" fill="none" stroke-width="5.0" stroke-linecap="round" stroke-linejoin="round" />
<path d="M 115.0 200.0 L 115.0 200.0 L 119.0 202.0 L 125.0 202.0 L 136.0 202.0 L 150.0 201.0 L 162.0 200.0 L 172.0 199.0 L 177.0 199.0 " stroke="black" fill="none" stroke-width="5.0" stroke-linecap="round" stroke-linejoin="round" />
<path d="M 147.0 168.0 L 147.0 169.0 L 147.0 170.0 L 148.0 174.0 L 149.0 182.0 L 150.0 190.0 L 151.0 196.0 L 151.0 197.0 " stroke="black" fill="none" stroke-width="5.0" stroke-linecap="round" stroke-linejoin="round" />
</svg>