<svg xmlns="http://www.w3.org/2000/svg" width="300" height="300" viewBox="0 0 300 300">
<path d="M 118.0 116.0 L 119.0 117.0 L 120.0 117.0 L 121.0 118.0 L 123.0 119.0 L 127.0 121.0 L 132.0 124.0 L 133.0 124.0 " stroke="black" fill="none" stroke-width="5.0" stroke-linecap="round" stroke-linejoin="round" />
<path d="M 110.0 145.0 L 110.0 145.0 L 110.0 145.0 L 111.0 145.0 L 115.0 145.0 L 122.0 145.0 L 126.0 144.0 " stroke="black" fill="none" stroke-width="5.0" stroke-linecap="round" stroke-linejoin="round" />
<path d="M 101.0 179.0 L 101.0 179.0 L 101.0 179.0 L 102.0 179.0 L 107.0 178.0 L 117.0 174.0 L 126.0 171.0 " stroke="black" fill="none" stroke-width="5.0" stroke-linecap="round" stroke-linejoin="round" />
<path d="M 141.0 114.0 L 141.0 114.0 L 141.0 114.0 L 141.0 114.0 L 141.0 115.0 L 141.0 118.0 L 141.0 123.0 L 141.0 125.0 " stroke="black" fill="none" stroke-width="5.0" stroke-linecap="round" stroke-linejoin="round" />
<path d="M 144.0 115.0 L 144.0 115.0 L 144.0 115.0 L 144.0 115.0 L 145.0 115.0 L 151.0 114.0 L 161.0 112.0 L 172.0 112.0 L 180.0 112.0 L 185.0 112.0 L 187.0 114.0 L 188.0 116.0 L 188.0 119.0 L 188.0 124.0 L 187.0 130.0 L 187.0 131.0 " stroke="black" fill="none" stroke-width="5.0" stroke-linecap="round" stroke-linejoin="round" />
<path d="M 144.0 132.0 L 144.0 132.0 L 144.0 132.0 L 144.0 131.0 L 146.0 131.0 L 153.0 130.0 L 164.0 129.0 L 174.0 129.0 L 181.0 129.0 L 182.0 129.0 " stroke="black" fill="none" stroke-width="5.0" stroke-linecap="round" stroke-linejoin="round" />
<path d="M 153.0 117.0 L 153.0 117.0 L 153.0 117.0 L 153.0 117.0 L 153.0 118.0 L 153.0 122.0 L 154.0 124.0 " stroke="black" fill="none" stroke-width="5.0" stroke-linecap="round" stroke-linejoin="round" />
<path d="M 170.0 116.0 L 170.0 117.0 L 170.0 117.0 L 170.0 119.0 L 170.0 124.0 " stroke="black" fill="none" stroke-width="5.0" stroke-linecap="round" stroke-linejoin="round" />
<path d="M 150.0 142.0 L 150.0 142.0 L 150.0 142.0 L 150.0 142.0 L 152.0 142.0 L 158.0 142.0 L 167.0 140.0 L 173.0 140.0 L 175.0 140.0 " stroke="black" fill="none" stroke-width="5.0" stroke-linecap="round" stroke-linejoin="round" />
<path d="M 141.0 152.0 L 141.0 152.0 L 143.0 152.0 L 148.0 152.0 L 156.0 152.0 L 169.0 151.0 L 180.0 150.0 L 186.0 149.0 L 187.0 149.0 " stroke="black" fill="none" stroke-width="5.0" stroke-linecap="round" stroke-linejoin="round" />
<path d="M 162.0 133.0 L 163.0 133.0 L 163.0 132.0 L 163.0 132.0 L 164.0 137.0 L 164.0 144.0 L 164.0 148.0 " stroke="black" fill="none" stroke-width="5.0" stroke-linecap="round" stroke-linejoin="round" />
<path d="M 155.0 153.0 L 155.0 153.0 L 155.0 153.0 L 156.0 153.0 L 156.0 153.0 L 157.0 153.0 L 157.0 155.0 L 158.0 158.0 L 158.0 160.0 " stroke="black" fill="none" stroke-width="5.0" stroke-linecap="round" stroke-linejoin="round" />
<path d="M 171.0 152.0 L 171.0 153.0 L 171.0 154.0 L 171.0 155.0 L 171.0 159.0 L 169.0 163.0 " stroke="black" fill="none" stroke-width="5.0" stroke-linecap="round" stroke-linejoin="round" />
<path d="M 145.0 168.0 L 145.0 168.0 L 145.0 168.0 L 145.0 168.0 L 152.0 167.0 L 164.0 166.0 L 177.0 165.0 L 183.0 165.0 L 184.0 165.0 L 184.0 165.0 " stroke="black" fill="none" stroke-width="5.0" stroke-linecap="round" stroke-linejoin="round" />
<path d="M 141.0 183.0 L 142.0 183.0 L 143.0 183.0 L 145.0 183.0 L 151.0 182.0 L 162.0 181.0 L 176.0 179.0 L 186.0 178.0 L 190.0 178.0 L 189.0 178.0 " stroke="black" fill="none" stroke-width="5.0" stroke-linecap="round" stroke-linejoin="round" />
<path d="M 161.0 166.0 L 161.0 166.0 L 161.0 166.0 L 161.0 166.0 L 161.0 165.0 L 161.0 168.0 L 163.0 177.0 L 165.0 189.0 L 166.0 200.0 L 166.0 204.0 L 166.0 205.0 L 166.0 205.0 " stroke="black" fill="none" stroke-width="5.0" stroke-linecap="round" stroke-linejoin="round" />
</svg>