<svg xmlns="http://www.w3.org/2000/svg" width="300" height="300" viewBox="0 0 300 300">
<path d="M 126.0 111.0 L 126.0 111.0 L 127.0 112.0 L 127.0 113.0 L 127.0 115.0 L 125.0 118.0 L 122.0 122.0 L 117.0 129.0 L 112.0 134.0 L 108.0 138.0 " stroke="black" fill="none" stroke-width="5.0" stroke-linecap="round" stroke-linejoin="round" />
<path d="M 128.0 111.0 L 130.0 111.0 L 131.0 111.0 L 135.0 114.0 L 139.0 119.0 L 144.0 124.0 L 147.0 127.0 L 148.0 129.0 " stroke="black" fill="none" stroke-width="5.0" stroke-linecap="round" stroke-linejoin="round" />
<path d="M 120.0 138.0 L 120.0 138.0 L 122.0 137.0 L 124.0 137.0 L 129.0 137.0 L 133.0 137.0 L 136.0 137.0 L 140.0 137.0 " stroke="black" fill="none" stroke-width="5.0" stroke-linecap="round" stroke-linejoin="round" />
<path d="M 116.0 150.0 L 119.0 150.0 L 120.0 150.0 L 121.0 150.0 L 123.0 150.0 L 128.0 149.0 L 134.0 149.0 L 137.0 149.0 L 138.0 149.0 L 140.0 149.0 L 140.0 152.0 L 137.0 157.0 L 134.0 162.0 L 129.0 169.0 L 127.0 172.0 L 126.0 173.0 " stroke="black" fill="none" stroke-width="5.0" stroke-linecap="round" stroke-linejoin="round" />
<path d="M 115.0 165.0 L 115.0 165.0 L 116.0 165.0 L 117.0 166.0 L 120.0 171.0 L 126.0 176.0 L 133.0 181.0 L 137.0 183.0 " stroke="black" fill="none" stroke-width="5.0" stroke-linecap="round" stroke-linejoin="round" />
<path d="M 157.0 107.0 L 157.0 107.0 L 157.0 107.0 L 157.0 107.0 L 160.0 107.0 L 164.0 107.0 L 169.0 107.0 L 171.0 107.0 " stroke="black" fill="none" stroke-width="5.0" stroke-linecap="round" stroke-linejoin="round" />
<path d="M 163.0 113.0 L 163.0 113.0 L 163.0 114.0 L 164.0 114.0 L 164.0 115.0 L 163.0 117.0 L 161.0 120.0 L 160.0 123.0 L 160.0 125.0 L 162.0 126.0 L 164.0 126.0 L 166.0 126.0 L 171.0 126.0 L 175.0 126.0 L 178.0 126.0 L 180.0 128.0 L 183.0 135.0 L 187.0 145.0 L 189.0 157.0 L 191.0 166.0 L 192.0 171.0 L 192.0 172.0 " stroke="black" fill="none" stroke-width="5.0" stroke-linecap="round" stroke-linejoin="round" />
<path d="M 155.0 130.0 L 156.0 130.0 L 156.0 130.0 L 156.0 132.0 L 156.0 139.0 L 155.0 151.0 L 154.0 161.0 L 154.0 165.0 " stroke="black" fill="none" stroke-width="5.0" stroke-linecap="round" stroke-linejoin="round" />
<path d="M 157.0 139.0 L 158.0 139.0 L 161.0 139.0 L 162.0 139.0 L 164.0 139.0 L 169.0 139.0 L 175.0 139.0 L 180.0 139.0 L 183.0 140.0 L 184.0 141.0 " stroke="black" fill="none" stroke-width="5.0" stroke-linecap="round" stroke-linejoin="round" />
<path d="M 158.0 151.0 L 161.0 151.0 L 163.0 151.0 L 168.0 152.0 L 173.0 152.0 L 179.0 152.0 L 183.0 152.0 " stroke="black" fill="none" stroke-width="5.0" stroke-linecap="round" stroke-linejoin="round" />
<path d="M 151.0 174.0 L 152.0 174.0 L 154.0 175.0 L 157.0 175.0 L 164.0 175.0 L 173.0 175.0 L 182.0 174.0 L 190.0 174.0 " stroke="black" fill="none" stroke-width="5.0" stroke-linecap="round" stroke-linejoin="round" />
<path d="M 161.0 181.0 L 162.0 181.0 L 162.0 181.0 L 162.0 181.0 L 161.0 185.0 L 159.0 190.0 L 158.0 194.0 L 157.0 195.0 " stroke="black" fill="none" stroke-width="5.0" stroke-linecap="round" stroke-linejoin="round" />
<path d="M 175.0 184.0 L 176.0 183.0 L 177.0 183.0 L 180.0 185.0 L 182.0 188.0 L 186.0 195.0 L 189.0 202.0 " stroke="black" fill="none" stroke-width="5.0" stroke-linecap="round" stroke-linejoin="round" />
</svg>