<svg xmlns="http://www.w3.org/2000/svg" width="300" height="300" viewBox="0 0 300 300">
<path d="M 189.0 100.0 L 189.0 100.0 L 189.0 100.0 L 189.0 100.0 L 189.0 99.0 L 189.0 98.0 L 191.0 98.0 L 194.0 98.0 L 200.0 97.0 L 205.0 97.0 " stroke="black" fill="none" stroke-width="5.0" stroke-linecap="round" stroke-linejoin="round" />
<path d="M 187.0 103.0 L 187.0 103.0 L 187.0 103.0 L 187.0 103.0 L 186.0 103.0 L 186.0 106.0 L 186.0 112.0 L 186.0 120.0 L 186.0 130.0 L 186.0 138.0 L 186.0 146.0 L 186.0 153.0 L 186.0 158.0 L 186.0 164.0 L 186.0 169.0 L 186.0 174.0 L 186.0 179.0 L 186.0 184.0 L 186.0 188.0 L 186.0 192.0 L 186.0 195.0 L 186.0 197.0 L 186.0 198.0 L 186.0 198.0 L 186.0 198.0 L 186.0 198.0 L 186.0 198.0 L 187.0 198.0 L 188.0 198.0 L 190.0 198.0 L 193.0 198.0 L 196.0 199.0 L 200.0 199.0 L 201.0 199.0 " stroke="black" fill="none" stroke-width="5.0" stroke-linecap="round" stroke-linejoin="round" />
</svg>