<svg xmlns="http://www.w3.org/2000/svg" width="300" height="300" viewBox="0 0 300 300">
<path d="M 128.0 105.0 L 128.0 105.0 L 128.0 105.0 L 127.0 106.0 L 126.0 109.0 L 126.0 117.0 L 127.0 127.0 L 127.0 132.0 " stroke="black" fill="none" stroke-width="5.0" stroke-linecap="round" stroke-linejoin="round" />
<path d="M 128.0 104.0 L 128.0 103.0 L 128.0 103.0 L 130.0 102.0 L 135.0 101.0 L 144.0 101.0 L 153.0 101.0 L 160.0 101.0 L 165.0 101.0 L 167.0 103.0 L 169.0 108.0 L 171.0 119.0 L 171.0 130.0 L 171.0 139.0 L 171.0 143.0 L 171.0 143.0 " stroke="black" fill="none" stroke-width="5.0" stroke-linecap="round" stroke-linejoin="round" />
<path d="M 139.0 119.0 L 139.0 119.0 L 139.0 119.0 L 139.0 119.0 L 142.0 119.0 L 149.0 119.0 L 156.0 119.0 L 158.0 119.0 " stroke="black" fill="none" stroke-width="5.0" stroke-linecap="round" stroke-linejoin="round" />
<path d="M 150.0 111.0 L 150.0 111.0 L 150.0 111.0 L 150.0 111.0 L 150.0 112.0 L 149.0 118.0 L 145.0 131.0 L 143.0 140.0 " stroke="black" fill="none" stroke-width="5.0" stroke-linecap="round" stroke-linejoin="round" />
<path d="M 151.0 125.0 L 151.0 125.0 L 151.0 125.0 L 152.0 126.0 L 155.0 129.0 L 161.0 134.0 L 163.0 137.0 " stroke="black" fill="none" stroke-width="5.0" stroke-linecap="round" stroke-linejoin="round" />
<path d="M 130.0 143.0 L 131.0 143.0 L 132.0 143.0 L 138.0 143.0 L 148.0 143.0 L 157.0 143.0 L 163.0 143.0 L 165.0 144.0 " stroke="black" fill="none" stroke-width="5.0" stroke-linecap="round" stroke-linejoin="round" />
<path d="M 119.0 159.0 L 119.0 159.0 L 119.0 159.0 L 119.0 159.0 L 119.0 163.0 L 118.0 170.0 L 114.0 179.0 L 113.0 181.0 " stroke="black" fill="none" stroke-width="5.0" stroke-linecap="round" stroke-linejoin="round" />
<path d="M 135.0 167.0 L 135.0 167.0 L 135.0 168.0 L 135.0 168.0 L 134.0 171.0 L 134.0 177.0 L 134.0 184.0 L 134.0 189.0 L 137.0 192.0 L 145.0 193.0 L 155.0 194.0 L 165.0 195.0 L 172.0 195.0 L 178.0 194.0 L 179.0 193.0 L 179.0 193.0 L 178.0 191.0 L 174.0 187.0 " stroke="black" fill="none" stroke-width="5.0" stroke-linecap="round" stroke-linejoin="round" />
<path d="M 154.0 162.0 L 154.0 162.0 L 154.0 163.0 L 154.0 165.0 L 157.0 171.0 L 158.0 173.0 " stroke="black" fill="none" stroke-width="5.0" stroke-linecap="round" stroke-linejoin="round" />
<path d="M 193.0 159.0 L 193.0 160.0 L 194.0 163.0 L 196.0 168.0 L 199.0 174.0 L 201.0 178.0 " stroke="black" fill="none" stroke-width="5.0" stroke-linecap="round" stroke-linejoin="round" />
</svg>