<svg xmlns="http://www.w3.org/2000/svg" width="300" height="300" viewBox="0 0 300 300">
<path d="M 135.0 116.0 L 135.0 116.0 L 135.0 116.0 L 135.0 117.0 L 134.0 118.0 L 131.0 122.0 L 125.0 130.0 L 116.0 140.0 L 114.0 142.0 " stroke="black" fill="none" stroke-width="5.0" stroke-linecap="round" stroke-linejoin="round" />
<path d="M 139.0 136.0 L 139.0 136.0 L 139.0 136.0 L 139.0 136.0 L 138.0 136.0 L 135.0 140.0 L 128.0 148.0 L 116.0 161.0 L 105.0 174.0 L 100.0 180.0 L 99.0 180.0 " stroke="black" fill="none" stroke-width="5.0" stroke-linecap="round" stroke-linejoin="round" />
<path d="M 125.0 156.0 L 125.0 156.0 L 125.0 157.0 L 125.0 158.0 L 125.0 161.0 L 125.0 171.0 L 125.0 183.0 L 123.0 193.0 " stroke="black" fill="none" stroke-width="5.0" stroke-linecap="round" stroke-linejoin="round" />
<path d="M 154.0 113.0 L 154.0 113.0 L 154.0 114.0 L 153.0 116.0 L 152.0 121.0 L 148.0 131.0 L 143.0 141.0 L 142.0 144.0 " stroke="black" fill="none" stroke-width="5.0" stroke-linecap="round" stroke-linejoin="round" />
<path d="M 152.0 124.0 L 152.0 124.0 L 152.0 124.0 L 152.0 124.0 L 155.0 124.0 L 162.0 123.0 L 170.0 123.0 L 175.0 123.0 L 176.0 123.0 " stroke="black" fill="none" stroke-width="5.0" stroke-linecap="round" stroke-linejoin="round" />
<path d="M 149.0 141.0 L 149.0 141.0 L 149.0 141.0 L 149.0 142.0 L 149.0 145.0 L 149.0 151.0 L 149.0 156.0 L 149.0 157.0 " stroke="black" fill="none" stroke-width="5.0" stroke-linecap="round" stroke-linejoin="round" />
<path d="M 152.0 141.0 L 152.0 140.0 L 152.0 140.0 L 153.0 139.0 L 156.0 139.0 L 160.0 138.0 L 165.0 138.0 L 170.0 140.0 L 172.0 143.0 L 174.0 147.0 L 174.0 153.0 L 174.0 156.0 L 173.0 158.0 " stroke="black" fill="none" stroke-width="5.0" stroke-linecap="round" stroke-linejoin="round" />
<path d="M 153.0 148.0 L 153.0 148.0 L 154.0 148.0 L 155.0 148.0 L 158.0 148.0 L 163.0 148.0 L 167.0 148.0 L 169.0 148.0 L 169.0 149.0 " stroke="black" fill="none" stroke-width="5.0" stroke-linecap="round" stroke-linejoin="round" />
<path d="M 149.0 159.0 L 150.0 160.0 L 152.0 161.0 L 155.0 161.0 L 160.0 161.0 L 166.0 161.0 L 168.0 161.0 " stroke="black" fill="none" stroke-width="5.0" stroke-linecap="round" stroke-linejoin="round" />
<path d="M 150.0 165.0 L 150.0 165.0 L 151.0 166.0 L 151.0 167.0 L 150.0 170.0 L 146.0 176.0 L 142.0 181.0 L 140.0 185.0 L 139.0 186.0 " stroke="black" fill="none" stroke-width="5.0" stroke-linecap="round" stroke-linejoin="round" />
<path d="M 149.0 172.0 L 149.0 172.0 L 149.0 173.0 L 149.0 174.0 L 151.0 174.0 L 159.0 174.0 L 166.0 173.0 L 172.0 173.0 L 174.0 174.0 L 173.0 179.0 L 168.0 186.0 L 162.0 193.0 L 156.0 199.0 L 150.0 203.0 L 149.0 204.0 " stroke="black" fill="none" stroke-width="5.0" stroke-linecap="round" stroke-linejoin="round" />
<path d="M 145.0 179.0 L 145.0 180.0 L 147.0 181.0 L 152.0 184.0 L 161.0 189.0 L 176.0 198.0 L 187.0 206.0 L 192.0 210.0 L 192.0 210.0 L 192.0 210.0 " stroke="black" fill="none" stroke-width="5.0" stroke-linecap="round" stroke-linejoin="round" />
</svg>