<svg xmlns="http://www.w3.org/2000/svg" width="300" height="300" viewBox="0 0 300 300">
<path d="M 119.0 113.0 L 119.0 113.0 L 119.0 113.0 L 119.0 113.0 L 119.0 113.0 L 122.0 113.0 L 127.0 113.0 L 132.0 113.0 L 137.0 113.0 L 139.0 114.0 L 141.0 114.0 L 141.0 115.0 L 142.0 117.0 L 142.0 121.0 L 142.0 127.0 L 143.0 134.0 L 143.0 139.0 L 143.0 142.0 L 143.0 142.0 L 142.0 142.0 L 139.0 141.0 L 135.0 140.0 L 132.0 139.0 " stroke="black" fill="none" stroke-width="5.0" stroke-linecap="round" stroke-linejoin="round" />
<path d="M 132.0 103.0 L 132.0 103.0 L 132.0 103.0 L 131.0 103.0 L 130.0 107.0 L 126.0 118.0 L 120.0 133.0 L 117.0 139.0 " stroke="black" fill="none" stroke-width="5.0" stroke-linecap="round" stroke-linejoin="round" />
<path d="M 154.0 116.0 L 154.0 117.0 L 154.0 118.0 L 154.0 120.0 L 154.0 125.0 L 154.0 129.0 L 154.0 131.0 " stroke="black" fill="none" stroke-width="5.0" stroke-linecap="round" stroke-linejoin="round" />
<path d="M 155.0 117.0 L 155.0 117.0 L 155.0 117.0 L 156.0 117.0 L 158.0 117.0 L 162.0 117.0 L 166.0 117.0 L 170.0 118.0 L 173.0 120.0 L 175.0 125.0 L 176.0 130.0 L 176.0 133.0 L 176.0 134.0 L 175.0 134.0 " stroke="black" fill="none" stroke-width="5.0" stroke-linecap="round" stroke-linejoin="round" />
<path d="M 155.0 134.0 L 155.0 134.0 L 156.0 134.0 L 157.0 135.0 L 162.0 135.0 L 169.0 135.0 L 174.0 135.0 " stroke="black" fill="none" stroke-width="5.0" stroke-linecap="round" stroke-linejoin="round" />
<path d="M 130.0 150.0 L 130.0 150.0 L 130.0 150.0 L 130.0 150.0 L 133.0 150.0 L 141.0 150.0 L 153.0 150.0 L 163.0 149.0 L 169.0 148.0 L 170.0 148.0 L 170.0 148.0 " stroke="black" fill="none" stroke-width="5.0" stroke-linecap="round" stroke-linejoin="round" />
<path d="M 134.0 155.0 L 134.0 155.0 L 134.0 155.0 L 134.0 154.0 L 133.0 154.0 L 133.0 158.0 L 133.0 166.0 L 133.0 176.0 L 132.0 184.0 L 132.0 187.0 L 132.0 187.0 " stroke="black" fill="none" stroke-width="5.0" stroke-linecap="round" stroke-linejoin="round" />
<path d="M 136.0 163.0 L 136.0 163.0 L 136.0 163.0 L 136.0 163.0 L 136.0 163.0 L 139.0 163.0 L 145.0 163.0 L 153.0 163.0 L 160.0 163.0 L 163.0 163.0 L 164.0 163.0 L 164.0 163.0 " stroke="black" fill="none" stroke-width="5.0" stroke-linecap="round" stroke-linejoin="round" />
<path d="M 136.0 177.0 L 136.0 177.0 L 135.0 177.0 L 135.0 177.0 L 136.0 177.0 L 142.0 177.0 L 149.0 176.0 L 157.0 176.0 L 163.0 176.0 L 165.0 176.0 L 165.0 177.0 " stroke="black" fill="none" stroke-width="5.0" stroke-linecap="round" stroke-linejoin="round" />
<path d="M 150.0 157.0 L 150.0 157.0 L 149.0 157.0 L 149.0 157.0 L 149.0 158.0 L 149.0 163.0 L 150.0 172.0 L 151.0 181.0 L 152.0 187.0 " stroke="black" fill="none" stroke-width="5.0" stroke-linecap="round" stroke-linejoin="round" />
<path d="M 134.0 189.0 L 134.0 189.0 L 134.0 189.0 L 134.0 189.0 L 137.0 189.0 L 145.0 189.0 L 154.0 189.0 L 164.0 189.0 L 170.0 189.0 L 173.0 189.0 L 175.0 190.0 L 176.0 193.0 L 178.0 197.0 L 180.0 203.0 L 181.0 208.0 L 181.0 212.0 L 181.0 214.0 L 181.0 215.0 L 178.0 215.0 L 173.0 215.0 L 167.0 214.0 " stroke="black" fill="none" stroke-width="5.0" stroke-linecap="round" stroke-linejoin="round" />
<path d="M 126.0 197.0 L 126.0 197.0 L 126.0 197.0 L 126.0 197.0 L 127.0 197.0 L 127.0 199.0 L 128.0 202.0 " stroke="black" fill="none" stroke-width="5.0" stroke-linecap="round" stroke-linejoin="round" />
<path d="M 140.0 198.0 L 140.0 198.0 L 140.0 198.0 L 140.0 199.0 L 141.0 202.0 L 142.0 205.0 L 143.0 206.0 " stroke="black" fill="none" stroke-width="5.0" stroke-linecap="round" stroke-linejoin="round" />
<path d="M 149.0 199.0 L 149.0 199.0 L 149.0 199.0 L 149.0 199.0 L 149.0 200.0 L 150.0 201.0 " stroke="black" fill="none" stroke-width="5.0" stroke-linecap="round" stroke-linejoin="round" />
<path d="M 161.0 199.0 L 161.0 200.0 L 161.0 200.0 L 161.0 202.0 L 163.0 204.0 L 163.0 205.0 " stroke="black" fill="none" stroke-width="5.0" stroke-linecap="round" stroke-linejoin="round" />
</svg>