<svg xmlns="http://www.w3.org/2000/svg" width="300" height="300" viewBox="0 0 300 300">
<path d="M 110.0 113.0 L 110.0 113.0 L 110.0 113.0 L 110.0 113.0 L 110.0 113.0 L 111.0 113.0 L 115.0 112.0 L 122.0 111.0 L 131.0 111.0 L 137.0 111.0 L 140.0 111.0 L 142.0 112.0 L 142.0 113.0 L 143.0 114.0 L 143.0 117.0 L 142.0 119.0 " stroke="black" fill="none" stroke-width="5.0" stroke-linecap="round" stroke-linejoin="round" />
<path d="M 107.0 120.0 L 107.0 120.0 L 107.0 120.0 L 107.0 120.0 L 107.0 120.0 L 107.0 122.0 L 107.0 134.0 L 105.0 157.0 L 102.0 181.0 L 98.0 196.0 L 96.0 200.0 " stroke="black" fill="none" stroke-width="5.0" stroke-linecap="round" stroke-linejoin="round" />
<path d="M 121.0 93.0 L 121.0 92.0 L 121.0 91.0 L 122.0 91.0 L 122.0 93.0 L 122.0 99.0 L 123.0 105.0 L 123.0 109.0 " stroke="black" fill="none" stroke-width="5.0" stroke-linecap="round" stroke-linejoin="round" />
<path d="M 121.0 100.0 L 121.0 100.0 L 122.0 100.0 L 122.0 100.0 L 125.0 100.0 L 130.0 98.0 L 134.0 98.0 L 135.0 98.0 " stroke="black" fill="none" stroke-width="5.0" stroke-linecap="round" stroke-linejoin="round" />
<path d="M 120.0 113.0 L 121.0 113.0 L 122.0 112.0 L 122.0 112.0 L 122.0 112.0 L 122.0 114.0 L 122.0 118.0 L 122.0 123.0 L 122.0 129.0 L 122.0 135.0 L 124.0 139.0 L 129.0 141.0 L 135.0 141.0 L 138.0 139.0 " stroke="black" fill="none" stroke-width="5.0" stroke-linecap="round" stroke-linejoin="round" />
<path d="M 114.0 127.0 L 114.0 127.0 L 114.0 127.0 L 114.0 127.0 L 115.0 127.0 L 122.0 127.0 L 129.0 127.0 L 133.0 127.0 " stroke="black" fill="none" stroke-width="5.0" stroke-linecap="round" stroke-linejoin="round" />
<path d="M 116.0 153.0 L 117.0 153.0 L 119.0 153.0 L 120.0 152.0 L 122.0 152.0 L 126.0 152.0 L 129.0 152.0 L 132.0 152.0 L 134.0 151.0 L 135.0 151.0 L 135.0 151.0 " stroke="black" fill="none" stroke-width="5.0" stroke-linecap="round" stroke-linejoin="round" />
<path d="M 114.0 160.0 L 115.0 161.0 L 115.0 162.0 L 116.0 163.0 L 116.0 165.0 L 117.0 167.0 L 117.0 167.0 " stroke="black" fill="none" stroke-width="5.0" stroke-linecap="round" stroke-linejoin="round" />
<path d="M 117.0 158.0 L 118.0 158.0 L 119.0 159.0 L 121.0 159.0 L 125.0 159.0 L 130.0 159.0 L 134.0 159.0 L 137.0 159.0 L 138.0 161.0 L 138.0 164.0 L 135.0 166.0 L 135.0 167.0 " stroke="black" fill="none" stroke-width="5.0" stroke-linecap="round" stroke-linejoin="round" />
<path d="M 115.0 169.0 L 115.0 170.0 L 115.0 170.0 L 116.0 170.0 L 121.0 171.0 L 127.0 171.0 L 133.0 170.0 L 134.0 169.0 " stroke="black" fill="none" stroke-width="5.0" stroke-linecap="round" stroke-linejoin="round" />
<path d="M 117.0 171.0 L 117.0 171.0 L 118.0 171.0 L 118.0 171.0 L 118.0 174.0 L 119.0 178.0 L 119.0 180.0 " stroke="black" fill="none" stroke-width="5.0" stroke-linecap="round" stroke-linejoin="round" />
<path d="M 133.0 169.0 L 133.0 170.0 L 132.0 171.0 L 132.0 173.0 L 132.0 176.0 L 132.0 179.0 L 131.0 183.0 " stroke="black" fill="none" stroke-width="5.0" stroke-linecap="round" stroke-linejoin="round" />
<path d="M 112.0 188.0 L 112.0 188.0 L 113.0 188.0 L 116.0 188.0 L 123.0 188.0 L 134.0 187.0 L 141.0 186.0 L 144.0 186.0 " stroke="black" fill="none" stroke-width="5.0" stroke-linecap="round" stroke-linejoin="round" />
<path d="M 151.0 121.0 L 152.0 121.0 L 153.0 122.0 L 155.0 122.0 L 160.0 122.0 L 167.0 121.0 L 172.0 121.0 L 175.0 120.0 " stroke="black" fill="none" stroke-width="5.0" stroke-linecap="round" stroke-linejoin="round" />
<path d="M 158.0 103.0 L 158.0 103.0 L 158.0 106.0 L 159.0 114.0 L 166.0 137.0 L 174.0 163.0 L 181.0 180.0 L 186.0 190.0 L 190.0 194.0 L 190.0 195.0 " stroke="black" fill="none" stroke-width="5.0" stroke-linecap="round" stroke-linejoin="round" />
<path d="M 187.0 156.0 L 187.0 156.0 L 185.0 157.0 L 182.0 159.0 L 175.0 166.0 L 165.0 176.0 L 156.0 183.0 " stroke="black" fill="none" stroke-width="5.0" stroke-linecap="round" stroke-linejoin="round" />
<path d="M 181.0 104.0 L 183.0 108.0 L 186.0 112.0 L 189.0 114.0 " stroke="black" fill="none" stroke-width="5.0" stroke-linecap="round" stroke-linejoin="round" />
</svg>