<svg xmlns="http://www.w3.org/2000/svg" width="300" height="300" viewBox="0 0 300 300">
<path d="M 112.0 118.0 L 112.0 118.0 L 112.0 118.0 L 112.0 119.0 L 112.0 119.0 L 114.0 119.0 L 118.0 119.0 L 124.0 119.0 L 129.0 119.0 " stroke="black" fill="none" stroke-width="5.0" stroke-linecap="round" stroke-linejoin="round" />
<path d="M 103.0 137.0 L 103.0 137.0 L 103.0 137.0 L 103.0 137.0 L 104.0 137.0 L 109.0 137.0 L 119.0 137.0 L 130.0 137.0 L 139.0 137.0 L 141.0 137.0 " stroke="black" fill="none" stroke-width="5.0" stroke-linecap="round" stroke-linejoin="round" />
<path d="M 118.0 107.0 L 118.0 107.0 L 118.0 107.0 L 117.0 107.0 L 117.0 109.0 L 118.0 115.0 L 119.0 128.0 L 121.0 144.0 L 122.0 158.0 L 124.0 166.0 L 125.0 168.0 L 125.0 168.0 " stroke="black" fill="none" stroke-width="5.0" stroke-linecap="round" stroke-linejoin="round" />
<path d="M 124.0 153.0 L 124.0 153.0 L 124.0 153.0 L 124.0 153.0 L 126.0 153.0 L 131.0 153.0 L 137.0 152.0 L 142.0 152.0 L 143.0 152.0 " stroke="black" fill="none" stroke-width="5.0" stroke-linecap="round" stroke-linejoin="round" />
<path d="M 110.0 148.0 L 110.0 148.0 L 109.0 148.0 L 109.0 150.0 L 109.0 153.0 L 108.0 161.0 L 105.0 170.0 L 103.0 176.0 " stroke="black" fill="none" stroke-width="5.0" stroke-linecap="round" stroke-linejoin="round" />
<path d="M 105.0 167.0 L 106.0 167.0 L 106.0 167.0 L 108.0 168.0 L 113.0 170.0 L 122.0 173.0 L 135.0 177.0 L 150.0 181.0 L 162.0 184.0 L 171.0 186.0 L 175.0 187.0 " stroke="black" fill="none" stroke-width="5.0" stroke-linecap="round" stroke-linejoin="round" />
<path d="M 153.0 118.0 L 153.0 118.0 L 153.0 119.0 L 153.0 119.0 L 153.0 119.0 L 156.0 119.0 L 159.0 119.0 L 162.0 119.0 L 165.0 119.0 L 168.0 119.0 L 169.0 119.0 L 171.0 120.0 L 172.0 123.0 L 173.0 127.0 L 173.0 133.0 L 173.0 137.0 L 173.0 139.0 " stroke="black" fill="none" stroke-width="5.0" stroke-linecap="round" stroke-linejoin="round" />
<path d="M 152.0 140.0 L 152.0 140.0 L 153.0 140.0 L 154.0 140.0 L 159.0 140.0 L 166.0 140.0 L 171.0 141.0 " stroke="black" fill="none" stroke-width="5.0" stroke-linecap="round" stroke-linejoin="round" />
<path d="M 151.0 124.0 L 151.0 124.0 L 151.0 124.0 L 151.0 124.0 L 151.0 125.0 L 151.0 127.0 L 151.0 135.0 L 151.0 147.0 L 151.0 158.0 L 152.0 165.0 L 155.0 169.0 L 161.0 170.0 L 169.0 171.0 L 178.0 171.0 L 185.0 171.0 L 191.0 170.0 L 193.0 168.0 L 193.0 166.0 L 193.0 164.0 L 192.0 160.0 L 192.0 159.0 " stroke="black" fill="none" stroke-width="5.0" stroke-linecap="round" stroke-linejoin="round" />
</svg>