<svg xmlns="http://www.w3.org/2000/svg" width="300" height="300" viewBox="0 0 300 300">
<path d="M 118.0 122.0 L 119.0 122.0 L 119.0 122.0 L 119.0 123.0 L 120.0 123.0 L 122.0 123.0 L 127.0 124.0 L 133.0 124.0 L 140.0 124.0 " stroke="black" fill="none" stroke-width="5.0" stroke-linecap="round" stroke-linejoin="round" />
<path d="M 108.0 144.0 L 108.0 144.0 L 108.0 145.0 L 110.0 145.0 L 116.0 145.0 L 126.0 145.0 L 137.0 144.0 L 145.0 144.0 " stroke="black" fill="none" stroke-width="5.0" stroke-linecap="round" stroke-linejoin="round" />
<path d="M 129.0 114.0 L 129.0 114.0 L 129.0 113.0 L 129.0 113.0 L 129.0 113.0 L 129.0 115.0 L 129.0 124.0 L 129.0 142.0 L 129.0 162.0 L 128.0 178.0 L 127.0 185.0 L 129.0 183.0 L 129.0 180.0 " stroke="black" fill="none" stroke-width="5.0" stroke-linecap="round" stroke-linejoin="round" />
<path d="M 127.0 165.0 L 127.0 165.0 L 128.0 165.0 L 129.0 165.0 L 133.0 165.0 L 139.0 165.0 L 143.0 165.0 " stroke="black" fill="none" stroke-width="5.0" stroke-linecap="round" stroke-linejoin="round" />
<path d="M 118.0 158.0 L 118.0 158.0 L 118.0 159.0 L 118.0 159.0 L 116.0 162.0 L 114.0 171.0 L 110.0 184.0 L 108.0 190.0 " stroke="black" fill="none" stroke-width="5.0" stroke-linecap="round" stroke-linejoin="round" />
<path d="M 114.0 183.0 L 115.0 183.0 L 116.0 183.0 L 120.0 185.0 L 131.0 189.0 L 149.0 194.0 L 167.0 198.0 L 182.0 200.0 L 190.0 201.0 " stroke="black" fill="none" stroke-width="5.0" stroke-linecap="round" stroke-linejoin="round" />
<path d="M 157.0 139.0 L 157.0 139.0 L 157.0 139.0 L 157.0 139.0 L 158.0 139.0 L 162.0 139.0 L 168.0 139.0 L 172.0 139.0 L 174.0 139.0 L 176.0 141.0 L 176.0 147.0 L 176.0 153.0 L 176.0 158.0 L 176.0 159.0 " stroke="black" fill="none" stroke-width="5.0" stroke-linecap="round" stroke-linejoin="round" />
<path d="M 157.0 156.0 L 157.0 156.0 L 157.0 157.0 L 158.0 157.0 L 162.0 158.0 L 169.0 158.0 L 175.0 158.0 " stroke="black" fill="none" stroke-width="5.0" stroke-linecap="round" stroke-linejoin="round" />
<path d="M 157.0 142.0 L 157.0 142.0 L 157.0 142.0 L 157.0 142.0 L 157.0 142.0 L 157.0 146.0 L 156.0 153.0 L 156.0 163.0 L 156.0 172.0 L 157.0 177.0 L 161.0 179.0 L 167.0 180.0 L 176.0 180.0 L 184.0 180.0 L 191.0 181.0 L 196.0 180.0 L 198.0 177.0 L 199.0 174.0 L 199.0 170.0 L 199.0 165.0 L 200.0 158.0 " stroke="black" fill="none" stroke-width="5.0" stroke-linecap="round" stroke-linejoin="round" />
</svg>