<svg xmlns="http://www.w3.org/2000/svg" width="300" height="300" viewBox="0 0 300 300">
<path d="M 141.0 108.0 L 141.0 108.0 L 141.0 108.0 L 142.0 109.0 L 144.0 114.0 L 148.0 120.0 L 150.0 122.0 " stroke="black" fill="none" stroke-width="5.0" stroke-linecap="round" stroke-linejoin="round" />
<path d="M 136.0 132.0 L 137.0 132.0 L 137.0 132.0 L 138.0 132.0 L 140.0 132.0 L 144.0 132.0 L 148.0 132.0 L 151.0 132.0 L 153.0 135.0 L 154.0 141.0 L 155.0 153.0 L 157.0 170.0 L 159.0 184.0 L 161.0 194.0 L 161.0 198.0 L 161.0 199.0 L 157.0 199.0 L 149.0 198.0 L 147.0 197.0 " stroke="black" fill="none" stroke-width="5.0" stroke-linecap="round" stroke-linejoin="round" />
<path d="M 128.0 155.0 L 128.0 155.0 L 128.0 155.0 L 129.0 155.0 L 131.0 156.0 L 135.0 157.0 L 139.0 158.0 L 142.0 160.0 L 143.0 163.0 L 141.0 168.0 L 133.0 176.0 L 124.0 184.0 L 116.0 190.0 L 112.0 191.0 " stroke="black" fill="none" stroke-width="5.0" stroke-linecap="round" stroke-linejoin="round" />
<path d="M 181.0 139.0 L 181.0 140.0 L 180.0 142.0 L 179.0 144.0 L 177.0 146.0 L 174.0 149.0 L 171.0 151.0 L 169.0 153.0 L 167.0 155.0 L 167.0 158.0 L 169.0 163.0 L 175.0 171.0 L 182.0 181.0 L 189.0 191.0 L 195.0 199.0 L 199.0 204.0 L 200.0 208.0 " stroke="black" fill="none" stroke-width="5.0" stroke-linecap="round" stroke-linejoin="round" />
</svg>