<svg xmlns="http://www.w3.org/2000/svg" width="300" height="300" viewBox="0 0 300 300">
<path d="M 139.0 115.0 L 139.0 115.0 L 139.0 116.0 L 139.0 117.0 L 140.0 120.0 L 141.0 122.0 L 145.0 126.0 L 145.0 126.0 " stroke="black" fill="none" stroke-width="5.0" stroke-linecap="round" stroke-linejoin="round" />
<path d="M 133.0 135.0 L 133.0 135.0 L 133.0 135.0 L 134.0 135.0 L 135.0 135.0 L 138.0 135.0 L 141.0 135.0 L 144.0 135.0 L 146.0 135.0 L 147.0 135.0 L 148.0 135.0 L 149.0 139.0 L 151.0 147.0 L 153.0 157.0 L 154.0 174.0 L 155.0 183.0 L 155.0 190.0 L 155.0 191.0 L 154.0 191.0 L 150.0 191.0 L 144.0 190.0 L 134.0 187.0 L 132.0 187.0 " stroke="black" fill="none" stroke-width="5.0" stroke-linecap="round" stroke-linejoin="round" />
<path d="M 127.0 153.0 L 127.0 153.0 L 128.0 153.0 L 130.0 153.0 L 131.0 153.0 L 135.0 153.0 L 138.0 153.0 L 139.0 155.0 L 139.0 158.0 L 135.0 165.0 L 129.0 172.0 L 118.0 182.0 L 109.0 187.0 " stroke="black" fill="none" stroke-width="5.0" stroke-linecap="round" stroke-linejoin="round" />
<path d="M 162.0 148.0 L 164.0 148.0 L 166.0 148.0 L 170.0 148.0 L 176.0 145.0 L 185.0 141.0 L 191.0 139.0 L 193.0 139.0 " stroke="black" fill="none" stroke-width="5.0" stroke-linecap="round" stroke-linejoin="round" />
<path d="M 166.0 148.0 L 166.0 148.0 L 166.0 148.0 L 167.0 150.0 L 173.0 158.0 L 184.0 173.0 L 195.0 187.0 L 202.0 194.0 L 205.0 196.0 L 205.0 196.0 " stroke="black" fill="none" stroke-width="5.0" stroke-linecap="round" stroke-linejoin="round" />
</svg>