<svg xmlns="http://www.w3.org/2000/svg" width="300" height="300" viewBox="0 0 300 300">
<path d="M 140.0 103.0 L 140.0 103.0 L 140.0 103.0 L 140.0 103.0 L 140.0 104.0 L 140.0 108.0 L 141.0 114.0 L 141.0 122.0 L 142.0 126.0 L 142.0 127.0 " stroke="black" fill="none" stroke-width="5.0" stroke-linecap="round" stroke-linejoin="round" />
<path d="M 123.0 118.0 L 123.0 118.0 L 124.0 118.0 L 126.0 119.0 L 131.0 119.0 L 142.0 119.0 L 155.0 118.0 L 166.0 117.0 L 174.0 117.0 L 179.0 117.0 L 179.0 117.0 L 179.0 117.0 L 177.0 117.0 L 176.0 117.0 " stroke="black" fill="none" stroke-width="5.0" stroke-linecap="round" stroke-linejoin="round" />
<path d="M 163.0 106.0 L 163.0 106.0 L 164.0 105.0 L 165.0 105.0 L 165.0 110.0 L 165.0 117.0 L 165.0 126.0 L 165.0 129.0 " stroke="black" fill="none" stroke-width="5.0" stroke-linecap="round" stroke-linejoin="round" />
<path d="M 128.0 140.0 L 129.0 140.0 L 130.0 140.0 L 130.0 140.0 L 131.0 140.0 L 131.0 140.0 L 131.0 142.0 L 131.0 146.0 L 131.0 152.0 L 131.0 158.0 L 131.0 161.0 L 132.0 162.0 L 132.0 161.0 L 132.0 159.0 " stroke="black" fill="none" stroke-width="5.0" stroke-linecap="round" stroke-linejoin="round" />
<path d="M 130.0 140.0 L 130.0 139.0 L 131.0 138.0 L 132.0 138.0 L 135.0 138.0 L 142.0 138.0 L 151.0 138.0 L 158.0 138.0 L 164.0 138.0 L 168.0 138.0 L 171.0 140.0 L 172.0 144.0 L 174.0 151.0 L 176.0 156.0 L 177.0 160.0 L 177.0 161.0 L 176.0 162.0 " stroke="black" fill="none" stroke-width="5.0" stroke-linecap="round" stroke-linejoin="round" />
<path d="M 138.0 152.0 L 138.0 152.0 L 138.0 152.0 L 138.0 152.0 L 140.0 152.0 L 145.0 152.0 L 153.0 152.0 L 161.0 152.0 L 166.0 152.0 L 167.0 152.0 L 165.0 153.0 " stroke="black" fill="none" stroke-width="5.0" stroke-linecap="round" stroke-linejoin="round" />
<path d="M 137.0 165.0 L 138.0 166.0 L 142.0 167.0 L 148.0 167.0 L 155.0 167.0 L 162.0 166.0 L 166.0 166.0 L 167.0 166.0 " stroke="black" fill="none" stroke-width="5.0" stroke-linecap="round" stroke-linejoin="round" />
<path d="M 152.0 142.0 L 152.0 142.0 L 152.0 142.0 L 151.0 142.0 L 151.0 145.0 L 151.0 155.0 L 153.0 168.0 L 154.0 180.0 L 155.0 185.0 L 155.0 187.0 L 155.0 187.0 " stroke="black" fill="none" stroke-width="5.0" stroke-linecap="round" stroke-linejoin="round" />
<path d="M 128.0 193.0 L 128.0 193.0 L 128.0 193.0 L 128.0 193.0 L 130.0 194.0 L 136.0 194.0 L 147.0 193.0 L 158.0 191.0 L 166.0 191.0 L 169.0 191.0 L 169.0 191.0 " stroke="black" fill="none" stroke-width="5.0" stroke-linecap="round" stroke-linejoin="round" />
<path d="M 172.0 185.0 L 172.0 185.0 L 173.0 187.0 L 175.0 191.0 L 178.0 196.0 L 180.0 200.0 L 181.0 203.0 " stroke="black" fill="none" stroke-width="5.0" stroke-linecap="round" stroke-linejoin="round" />
<path d="M 117.0 180.0 L 117.0 181.0 L 117.0 183.0 L 117.0 189.0 L 119.0 198.0 L 121.0 207.0 L 123.0 212.0 L 124.0 212.0 L 124.0 209.0 " stroke="black" fill="none" stroke-width="5.0" stroke-linecap="round" stroke-linejoin="round" />
<path d="M 121.0 178.0 L 124.0 178.0 L 127.0 177.0 L 132.0 177.0 L 140.0 177.0 L 151.0 177.0 L 162.0 178.0 L 173.0 178.0 L 183.0 178.0 L 188.0 179.0 L 190.0 181.0 L 192.0 186.0 L 194.0 190.0 L 196.0 195.0 L 199.0 202.0 L 201.0 206.0 L 202.0 209.0 L 202.0 210.0 L 202.0 211.0 L 197.0 212.0 L 190.0 213.0 L 185.0 213.0 " stroke="black" fill="none" stroke-width="5.0" stroke-linecap="round" stroke-linejoin="round" />
</svg>