<svg xmlns="http://www.w3.org/2000/svg" width="300" height="300" viewBox="0 0 300 300">
<path d="M 120.0 129.0 L 120.0 129.0 L 120.0 129.0 L 120.0 129.0 L 120.0 129.0 L 120.0 129.0 L 126.0 129.0 L 134.0 128.0 L 138.0 127.0 " stroke="black" fill="none" stroke-width="5.0" stroke-linecap="round" stroke-linejoin="round" />
<path d="M 130.0 108.0 L 130.0 108.0 L 130.0 110.0 L 130.0 115.0 L 130.0 127.0 L 132.0 145.0 L 133.0 164.0 L 133.0 181.0 L 133.0 190.0 L 133.0 193.0 L 131.0 193.0 L 126.0 191.0 L 117.0 187.0 " stroke="black" fill="none" stroke-width="5.0" stroke-linecap="round" stroke-linejoin="round" />
<path d="M 110.0 159.0 L 110.0 159.0 L 111.0 159.0 L 117.0 159.0 L 130.0 156.0 L 144.0 152.0 L 149.0 150.0 " stroke="black" fill="none" stroke-width="5.0" stroke-linecap="round" stroke-linejoin="round" />
<path d="M 161.0 107.0 L 161.0 107.0 L 161.0 107.0 L 161.0 107.0 L 161.0 107.0 L 161.0 108.0 L 161.0 110.0 L 163.0 113.0 L 165.0 115.0 " stroke="black" fill="none" stroke-width="5.0" stroke-linecap="round" stroke-linejoin="round" />
<path d="M 151.0 120.0 L 151.0 121.0 L 151.0 122.0 L 154.0 122.0 L 161.0 122.0 L 171.0 122.0 L 179.0 122.0 L 183.0 122.0 L 183.0 122.0 " stroke="black" fill="none" stroke-width="5.0" stroke-linecap="round" stroke-linejoin="round" />
<path d="M 158.0 125.0 L 159.0 126.0 L 159.0 127.0 L 160.0 130.0 L 160.0 134.0 L 161.0 137.0 L 161.0 137.0 " stroke="black" fill="none" stroke-width="5.0" stroke-linecap="round" stroke-linejoin="round" />
<path d="M 172.0 123.0 L 172.0 126.0 L 172.0 130.0 L 171.0 135.0 L 171.0 139.0 " stroke="black" fill="none" stroke-width="5.0" stroke-linecap="round" stroke-linejoin="round" />
<path d="M 147.0 142.0 L 147.0 143.0 L 148.0 144.0 L 151.0 145.0 L 160.0 145.0 L 172.0 143.0 L 182.0 142.0 L 187.0 142.0 L 187.0 143.0 " stroke="black" fill="none" stroke-width="5.0" stroke-linecap="round" stroke-linejoin="round" />
<path d="M 159.0 153.0 L 159.0 153.0 L 159.0 153.0 L 159.0 154.0 L 159.0 158.0 L 156.0 165.0 L 153.0 173.0 L 151.0 181.0 L 150.0 186.0 L 153.0 187.0 L 160.0 187.0 L 169.0 187.0 L 177.0 188.0 L 180.0 189.0 " stroke="black" fill="none" stroke-width="5.0" stroke-linecap="round" stroke-linejoin="round" />
<path d="M 173.0 157.0 L 173.0 157.0 L 173.0 157.0 L 173.0 158.0 L 172.0 166.0 L 169.0 178.0 L 165.0 190.0 L 163.0 193.0 " stroke="black" fill="none" stroke-width="5.0" stroke-linecap="round" stroke-linejoin="round" />
<path d="M 144.0 170.0 L 144.0 170.0 L 145.0 170.0 L 147.0 169.0 L 156.0 168.0 L 171.0 166.0 L 186.0 164.0 L 194.0 164.0 L 195.0 165.0 L 195.0 165.0 " stroke="black" fill="none" stroke-width="5.0" stroke-linecap="round" stroke-linejoin="round" />
</svg>