<svg xmlns="http://www.w3.org/2000/svg" width="300" height="300" viewBox="0 0 300 300">
<path d="M 120.0 118.0 L 120.0 118.0 L 121.0 118.0 L 121.0 118.0 L 123.0 118.0 L 126.0 119.0 L 131.0 119.0 L 137.0 119.0 " stroke="black" fill="none" stroke-width="5.0" stroke-linecap="round" stroke-linejoin="round" />
<path d="M 106.0 140.0 L 106.0 140.0 L 106.0 140.0 L 107.0 140.0 L 114.0 141.0 L 127.0 142.0 L 142.0 143.0 L 150.0 144.0 " stroke="black" fill="none" stroke-width="5.0" stroke-linecap="round" stroke-linejoin="round" />
<path d="M 125.0 110.0 L 125.0 110.0 L 125.0 110.0 L 125.0 111.0 L 125.0 117.0 L 126.0 131.0 L 126.0 145.0 " stroke="black" fill="none" stroke-width="5.0" stroke-linecap="round" stroke-linejoin="round" />
<path d="M 147.0 114.0 L 147.0 114.0 L 146.0 115.0 L 145.0 117.0 L 143.0 121.0 L 138.0 130.0 L 128.0 142.0 L 114.0 156.0 L 102.0 170.0 L 100.0 173.0 " stroke="black" fill="none" stroke-width="5.0" stroke-linecap="round" stroke-linejoin="round" />
<path d="M 117.0 160.0 L 117.0 160.0 L 117.0 160.0 L 119.0 160.0 L 122.0 160.0 L 128.0 160.0 L 135.0 161.0 L 139.0 162.0 L 143.0 162.0 L 145.0 163.0 L 146.0 166.0 L 147.0 173.0 L 147.0 182.0 L 148.0 190.0 L 149.0 193.0 " stroke="black" fill="none" stroke-width="5.0" stroke-linecap="round" stroke-linejoin="round" />
<path d="M 117.0 163.0 L 117.0 164.0 L 116.0 165.0 L 115.0 168.0 L 115.0 174.0 L 115.0 182.0 L 115.0 191.0 L 115.0 193.0 " stroke="black" fill="none" stroke-width="5.0" stroke-linecap="round" stroke-linejoin="round" />
<path d="M 117.0 178.0 L 118.0 178.0 L 120.0 178.0 L 123.0 178.0 L 130.0 179.0 L 137.0 180.0 L 142.0 182.0 " stroke="black" fill="none" stroke-width="5.0" stroke-linecap="round" stroke-linejoin="round" />
<path d="M 114.0 197.0 L 115.0 197.0 L 119.0 198.0 L 126.0 199.0 L 136.0 199.0 L 141.0 199.0 " stroke="black" fill="none" stroke-width="5.0" stroke-linecap="round" stroke-linejoin="round" />
<path d="M 168.0 117.0 L 168.0 117.0 L 167.0 117.0 L 167.0 117.0 L 168.0 118.0 L 174.0 119.0 L 180.0 121.0 L 186.0 123.0 L 189.0 125.0 L 189.0 126.0 L 187.0 127.0 L 184.0 130.0 L 180.0 132.0 L 179.0 135.0 L 179.0 139.0 L 183.0 143.0 L 188.0 147.0 L 193.0 151.0 L 195.0 155.0 L 196.0 158.0 L 193.0 160.0 L 188.0 162.0 L 182.0 162.0 L 181.0 162.0 " stroke="black" fill="none" stroke-width="5.0" stroke-linecap="round" stroke-linejoin="round" />
<path d="M 166.0 127.0 L 166.0 126.0 L 166.0 125.0 L 166.0 124.0 L 166.0 123.0 L 166.0 122.0 L 166.0 122.0 L 165.0 128.0 L 165.0 142.0 L 164.0 164.0 L 164.0 191.0 L 164.0 206.0 L 165.0 210.0 L 165.0 210.0 " stroke="black" fill="none" stroke-width="5.0" stroke-linecap="round" stroke-linejoin="round" />
</svg>