<svg xmlns="http://www.w3.org/2000/svg" width="300" height="300" viewBox="0 0 300 300">
<path d="M 122.0 114.0 L 122.0 114.0 L 124.0 114.0 L 124.0 114.0 L 126.0 114.0 L 128.0 114.0 L 133.0 114.0 L 139.0 114.0 L 141.0 114.0 " stroke="black" fill="none" stroke-width="5.0" stroke-linecap="round" stroke-linejoin="round" />
<path d="M 110.0 131.0 L 110.0 131.0 L 110.0 131.0 L 110.0 132.0 L 116.0 132.0 L 128.0 132.0 L 140.0 132.0 L 148.0 131.0 L 151.0 131.0 " stroke="black" fill="none" stroke-width="5.0" stroke-linecap="round" stroke-linejoin="round" />
<path d="M 132.0 106.0 L 132.0 106.0 L 132.0 106.0 L 132.0 107.0 L 133.0 113.0 L 133.0 121.0 L 133.0 127.0 L 133.0 128.0 " stroke="black" fill="none" stroke-width="5.0" stroke-linecap="round" stroke-linejoin="round" />
<path d="M 147.0 108.0 L 147.0 108.0 L 146.0 109.0 L 144.0 111.0 L 143.0 114.0 L 139.0 121.0 L 132.0 132.0 L 122.0 145.0 L 113.0 155.0 L 111.0 157.0 " stroke="black" fill="none" stroke-width="5.0" stroke-linecap="round" stroke-linejoin="round" />
<path d="M 126.0 146.0 L 126.0 146.0 L 127.0 146.0 L 129.0 146.0 L 132.0 146.0 L 137.0 146.0 L 142.0 146.0 L 145.0 146.0 L 148.0 146.0 L 149.0 146.0 L 150.0 147.0 L 151.0 154.0 L 152.0 162.0 L 154.0 170.0 L 155.0 177.0 L 156.0 181.0 " stroke="black" fill="none" stroke-width="5.0" stroke-linecap="round" stroke-linejoin="round" />
<path d="M 125.0 149.0 L 124.0 151.0 L 123.0 154.0 L 122.0 160.0 L 122.0 168.0 L 122.0 176.0 L 124.0 181.0 L 124.0 181.0 " stroke="black" fill="none" stroke-width="5.0" stroke-linecap="round" stroke-linejoin="round" />
<path d="M 125.0 162.0 L 126.0 162.0 L 127.0 163.0 L 130.0 163.0 L 136.0 163.0 L 143.0 163.0 L 147.0 163.0 L 149.0 164.0 " stroke="black" fill="none" stroke-width="5.0" stroke-linecap="round" stroke-linejoin="round" />
<path d="M 124.0 177.0 L 126.0 178.0 L 130.0 179.0 L 139.0 179.0 L 152.0 178.0 " stroke="black" fill="none" stroke-width="5.0" stroke-linecap="round" stroke-linejoin="round" />
<path d="M 164.0 107.0 L 164.0 107.0 L 164.0 107.0 L 164.0 107.0 L 168.0 109.0 L 173.0 110.0 L 179.0 112.0 L 182.0 113.0 L 183.0 114.0 L 183.0 115.0 L 180.0 119.0 L 178.0 123.0 L 178.0 128.0 L 179.0 132.0 L 182.0 137.0 L 184.0 140.0 L 185.0 143.0 L 184.0 144.0 L 180.0 144.0 L 175.0 144.0 " stroke="black" fill="none" stroke-width="5.0" stroke-linecap="round" stroke-linejoin="round" />
<path d="M 158.0 115.0 L 157.0 115.0 L 156.0 115.0 L 156.0 116.0 L 157.0 125.0 L 161.0 146.0 L 165.0 168.0 L 167.0 184.0 L 167.0 190.0 L 167.0 192.0 L 167.0 192.0 L 167.0 190.0 " stroke="black" fill="none" stroke-width="5.0" stroke-linecap="round" stroke-linejoin="round" />
</svg>