<svg xmlns="http://www.w3.org/2000/svg" width="300" height="300" viewBox="0 0 300 300">
<path d="M 140.0 104.0 L 140.0 104.0 L 140.0 104.0 L 140.0 105.0 L 141.0 107.0 L 144.0 111.0 L 147.0 114.0 " stroke="black" fill="none" stroke-width="5.0" stroke-linecap="round" stroke-linejoin="round" />
<path d="M 126.0 121.0 L 126.0 121.0 L 126.0 121.0 L 126.0 121.0 L 129.0 121.0 L 138.0 121.0 L 150.0 121.0 L 162.0 121.0 L 169.0 121.0 L 170.0 121.0 " stroke="black" fill="none" stroke-width="5.0" stroke-linecap="round" stroke-linejoin="round" />
<path d="M 134.0 137.0 L 134.0 137.0 L 134.0 137.0 L 134.0 137.0 L 134.0 140.0 L 134.0 145.0 L 135.0 152.0 L 136.0 155.0 L 137.0 155.0 " stroke="black" fill="none" stroke-width="5.0" stroke-linecap="round" stroke-linejoin="round" />
<path d="M 136.0 136.0 L 136.0 136.0 L 136.0 136.0 L 136.0 136.0 L 140.0 136.0 L 147.0 134.0 L 154.0 133.0 L 159.0 133.0 L 161.0 133.0 L 163.0 136.0 L 164.0 141.0 L 164.0 146.0 L 164.0 152.0 L 164.0 156.0 L 164.0 157.0 " stroke="black" fill="none" stroke-width="5.0" stroke-linecap="round" stroke-linejoin="round" />
<path d="M 137.0 156.0 L 137.0 156.0 L 137.0 157.0 L 139.0 158.0 L 145.0 158.0 L 153.0 157.0 L 160.0 156.0 L 164.0 156.0 " stroke="black" fill="none" stroke-width="5.0" stroke-linecap="round" stroke-linejoin="round" />
<path d="M 149.0 160.0 L 149.0 160.0 L 148.0 160.0 L 148.0 161.0 L 150.0 168.0 L 153.0 181.0 L 155.0 193.0 L 156.0 199.0 L 156.0 201.0 L 155.0 200.0 L 150.0 198.0 L 142.0 195.0 " stroke="black" fill="none" stroke-width="5.0" stroke-linecap="round" stroke-linejoin="round" />
<path d="M 130.0 172.0 L 130.0 172.0 L 130.0 173.0 L 130.0 174.0 L 128.0 177.0 L 124.0 183.0 L 120.0 190.0 " stroke="black" fill="none" stroke-width="5.0" stroke-linecap="round" stroke-linejoin="round" />
<path d="M 166.0 175.0 L 166.0 175.0 L 167.0 176.0 L 170.0 179.0 L 177.0 188.0 L 184.0 201.0 L 186.0 207.0 " stroke="black" fill="none" stroke-width="5.0" stroke-linecap="round" stroke-linejoin="round" />
</svg>