<svg xmlns="http://www.w3.org/2000/svg" width="300" height="300" viewBox="0 0 300 300">
<path d="M 141.0 98.0 L 141.0 100.0 L 142.0 103.0 L 145.0 106.0 L 148.0 110.0 L 150.0 111.0 " stroke="black" fill="none" stroke-width="5.0" stroke-linecap="round" stroke-linejoin="round" />
<path d="M 121.0 121.0 L 123.0 121.0 L 126.0 121.0 L 132.0 121.0 L 144.0 120.0 L 158.0 119.0 L 167.0 118.0 L 171.0 118.0 L 171.0 118.0 " stroke="black" fill="none" stroke-width="5.0" stroke-linecap="round" stroke-linejoin="round" />
<path d="M 119.0 127.0 L 119.0 127.0 L 119.0 127.0 L 118.0 129.0 L 117.0 135.0 L 115.0 147.0 L 112.0 164.0 L 109.0 182.0 L 106.0 196.0 L 105.0 202.0 L 105.0 203.0 " stroke="black" fill="none" stroke-width="5.0" stroke-linecap="round" stroke-linejoin="round" />
<path d="M 121.0 136.0 L 121.0 136.0 L 124.0 136.0 L 132.0 135.0 L 139.0 135.0 L 148.0 134.0 L 157.0 133.0 L 162.0 133.0 L 165.0 133.0 L 166.0 134.0 L 167.0 135.0 L 168.0 137.0 L 168.0 141.0 L 169.0 145.0 L 169.0 147.0 " stroke="black" fill="none" stroke-width="5.0" stroke-linecap="round" stroke-linejoin="round" />
<path d="M 117.0 149.0 L 119.0 149.0 L 122.0 150.0 L 130.0 150.0 L 142.0 150.0 L 154.0 149.0 L 162.0 149.0 L 165.0 149.0 L 165.0 149.0 " stroke="black" fill="none" stroke-width="5.0" stroke-linecap="round" stroke-linejoin="round" />
<path d="M 136.0 125.0 L 136.0 125.0 L 135.0 125.0 L 135.0 125.0 L 134.0 129.0 L 135.0 138.0 L 136.0 147.0 L 136.0 152.0 " stroke="black" fill="none" stroke-width="5.0" stroke-linecap="round" stroke-linejoin="round" />
<path d="M 153.0 123.0 L 153.0 123.0 L 153.0 125.0 L 153.0 130.0 L 153.0 138.0 L 153.0 144.0 " stroke="black" fill="none" stroke-width="5.0" stroke-linecap="round" stroke-linejoin="round" />
<path d="M 124.0 154.0 L 124.0 154.0 L 124.0 154.0 L 124.0 154.0 L 124.0 155.0 L 124.0 158.0 L 124.0 163.0 L 124.0 168.0 L 126.0 173.0 L 130.0 174.0 L 135.0 174.0 L 140.0 172.0 " stroke="black" fill="none" stroke-width="5.0" stroke-linecap="round" stroke-linejoin="round" />
<path d="M 127.0 162.0 L 128.0 162.0 L 129.0 162.0 L 132.0 162.0 L 138.0 162.0 L 144.0 162.0 " stroke="black" fill="none" stroke-width="5.0" stroke-linecap="round" stroke-linejoin="round" />
<path d="M 155.0 149.0 L 156.0 149.0 L 156.0 149.0 L 157.0 150.0 L 157.0 153.0 L 157.0 160.0 L 159.0 167.0 L 162.0 172.0 L 166.0 172.0 L 170.0 170.0 L 170.0 169.0 " stroke="black" fill="none" stroke-width="5.0" stroke-linecap="round" stroke-linejoin="round" />
<path d="M 156.0 159.0 L 157.0 160.0 L 159.0 160.0 L 161.0 160.0 L 165.0 160.0 L 168.0 160.0 " stroke="black" fill="none" stroke-width="5.0" stroke-linecap="round" stroke-linejoin="round" />
<path d="M 134.0 183.0 L 135.0 183.0 L 136.0 183.0 L 139.0 183.0 L 143.0 183.0 L 150.0 183.0 L 155.0 183.0 L 159.0 183.0 L 159.0 183.0 " stroke="black" fill="none" stroke-width="5.0" stroke-linecap="round" stroke-linejoin="round" />
<path d="M 118.0 201.0 L 120.0 202.0 L 124.0 203.0 L 135.0 203.0 L 149.0 203.0 L 163.0 203.0 L 173.0 203.0 L 179.0 203.0 L 180.0 203.0 " stroke="black" fill="none" stroke-width="5.0" stroke-linecap="round" stroke-linejoin="round" />
<path d="M 151.0 170.0 L 151.0 170.0 L 151.0 172.0 L 151.0 176.0 L 151.0 185.0 L 152.0 195.0 L 153.0 201.0 " stroke="black" fill="none" stroke-width="5.0" stroke-linecap="round" stroke-linejoin="round" />
</svg>