<svg xmlns="http://www.w3.org/2000/svg" width="300" height="300" viewBox="0 0 300 300">
<path d="M 141.0 100.0 L 141.0 100.0 L 141.0 100.0 L 141.0 100.0 L 141.0 101.0 L 142.0 105.0 L 146.0 111.0 L 147.0 112.0 " stroke="black" fill="none" stroke-width="5.0" stroke-linecap="round" stroke-linejoin="round" />
<path d="M 118.0 119.0 L 118.0 119.0 L 119.0 119.0 L 121.0 119.0 L 130.0 119.0 L 147.0 119.0 L 162.0 119.0 L 171.0 119.0 L 174.0 119.0 L 174.0 119.0 L 173.0 119.0 " stroke="black" fill="none" stroke-width="5.0" stroke-linecap="round" stroke-linejoin="round" />
<path d="M 116.0 127.0 L 117.0 127.0 L 118.0 127.0 L 118.0 127.0 L 118.0 129.0 L 117.0 136.0 L 115.0 152.0 L 111.0 172.0 L 106.0 189.0 L 105.0 195.0 L 105.0 196.0 L 105.0 195.0 " stroke="black" fill="none" stroke-width="5.0" stroke-linecap="round" stroke-linejoin="round" />
<path d="M 124.0 136.0 L 124.0 136.0 L 125.0 136.0 L 125.0 136.0 L 126.0 136.0 L 129.0 135.0 L 137.0 135.0 L 147.0 134.0 L 157.0 134.0 L 163.0 133.0 L 166.0 133.0 L 167.0 133.0 L 168.0 135.0 L 169.0 139.0 L 169.0 145.0 L 169.0 150.0 L 170.0 153.0 L 170.0 154.0 " stroke="black" fill="none" stroke-width="5.0" stroke-linecap="round" stroke-linejoin="round" />
<path d="M 115.0 153.0 L 115.0 153.0 L 116.0 153.0 L 124.0 153.0 L 138.0 152.0 L 153.0 151.0 L 165.0 150.0 L 169.0 150.0 L 168.0 150.0 " stroke="black" fill="none" stroke-width="5.0" stroke-linecap="round" stroke-linejoin="round" />
<path d="M 136.0 124.0 L 136.0 124.0 L 136.0 125.0 L 136.0 128.0 L 136.0 137.0 L 136.0 146.0 L 137.0 151.0 " stroke="black" fill="none" stroke-width="5.0" stroke-linecap="round" stroke-linejoin="round" />
<path d="M 150.0 124.0 L 150.0 125.0 L 150.0 125.0 L 151.0 127.0 L 151.0 134.0 L 152.0 144.0 " stroke="black" fill="none" stroke-width="5.0" stroke-linecap="round" stroke-linejoin="round" />
<path d="M 133.0 153.0 L 133.0 153.0 L 133.0 153.0 L 133.0 153.0 L 133.0 153.0 L 132.0 154.0 L 131.0 158.0 L 130.0 165.0 L 129.0 171.0 L 130.0 175.0 L 135.0 176.0 L 141.0 175.0 L 143.0 175.0 " stroke="black" fill="none" stroke-width="5.0" stroke-linecap="round" stroke-linejoin="round" />
<path d="M 133.0 166.0 L 133.0 167.0 L 132.0 167.0 L 132.0 167.0 L 134.0 167.0 L 139.0 167.0 L 143.0 167.0 " stroke="black" fill="none" stroke-width="5.0" stroke-linecap="round" stroke-linejoin="round" />
<path d="M 156.0 156.0 L 156.0 156.0 L 156.0 156.0 L 156.0 156.0 L 156.0 157.0 L 155.0 161.0 L 155.0 169.0 L 155.0 176.0 L 158.0 181.0 L 165.0 182.0 L 172.0 181.0 L 174.0 180.0 " stroke="black" fill="none" stroke-width="5.0" stroke-linecap="round" stroke-linejoin="round" />
<path d="M 155.0 166.0 L 155.0 166.0 L 155.0 166.0 L 158.0 167.0 L 163.0 167.0 L 170.0 167.0 L 172.0 167.0 " stroke="black" fill="none" stroke-width="5.0" stroke-linecap="round" stroke-linejoin="round" />
<path d="M 134.0 194.0 L 134.0 194.0 L 134.0 194.0 L 134.0 194.0 L 138.0 194.0 L 144.0 194.0 L 150.0 194.0 L 154.0 194.0 L 155.0 194.0 " stroke="black" fill="none" stroke-width="5.0" stroke-linecap="round" stroke-linejoin="round" />
<path d="M 121.0 204.0 L 121.0 204.0 L 121.0 204.0 L 123.0 205.0 L 129.0 205.0 L 143.0 205.0 L 158.0 205.0 L 169.0 204.0 L 173.0 204.0 " stroke="black" fill="none" stroke-width="5.0" stroke-linecap="round" stroke-linejoin="round" />
<path d="M 147.0 185.0 L 147.0 185.0 L 147.0 185.0 L 147.0 186.0 L 148.0 193.0 L 148.0 197.0 " stroke="black" fill="none" stroke-width="5.0" stroke-linecap="round" stroke-linejoin="round" />
</svg>