<svg xmlns="http://www.w3.org/2000/svg" width="300" height="300" viewBox="0 0 300 300">
<path d="M 119.0 119.0 L 119.0 119.0 L 119.0 119.0 L 119.0 120.0 L 119.0 123.0 L 119.0 130.0 L 119.0 136.0 " stroke="black" fill="none" stroke-width="5.0" stroke-linecap="round" stroke-linejoin="round" />
<path d="M 118.0 123.0 L 118.0 123.0 L 119.0 123.0 L 120.0 123.0 L 122.0 123.0 L 128.0 122.0 L 138.0 121.0 L 149.0 120.0 L 160.0 120.0 L 168.0 120.0 L 174.0 121.0 L 178.0 122.0 L 179.0 125.0 L 179.0 129.0 L 178.0 135.0 L 177.0 139.0 L 176.0 141.0 " stroke="black" fill="none" stroke-width="5.0" stroke-linecap="round" stroke-linejoin="round" />
<path d="M 149.0 103.0 L 149.0 103.0 L 149.0 101.0 L 149.0 108.0 L 152.0 120.0 L 152.0 122.0 " stroke="black" fill="none" stroke-width="5.0" stroke-linecap="round" stroke-linejoin="round" />
<path d="M 137.0 134.0 L 137.0 134.0 L 137.0 134.0 L 138.0 134.0 L 146.0 134.0 L 156.0 134.0 L 163.0 133.0 L 165.0 133.0 " stroke="black" fill="none" stroke-width="5.0" stroke-linecap="round" stroke-linejoin="round" />
<path d="M 152.0 140.0 L 151.0 140.0 L 150.0 140.0 L 149.0 141.0 L 146.0 144.0 L 140.0 151.0 L 131.0 159.0 L 123.0 164.0 L 121.0 165.0 " stroke="black" fill="none" stroke-width="5.0" stroke-linecap="round" stroke-linejoin="round" />
<path d="M 147.0 150.0 L 147.0 150.0 L 147.0 150.0 L 148.0 151.0 L 151.0 156.0 L 155.0 166.0 L 159.0 179.0 L 161.0 189.0 L 161.0 196.0 L 158.0 198.0 L 154.0 198.0 L 149.0 194.0 L 148.0 193.0 " stroke="black" fill="none" stroke-width="5.0" stroke-linecap="round" stroke-linejoin="round" />
<circle cx="145.0" cy="189.0" r="2.5" fill="black" />
<path d="M 151.0 159.0 L 151.0 159.0 L 151.0 159.0 L 151.0 158.0 L 150.0 159.0 L 146.0 163.0 L 140.0 170.0 L 131.0 178.0 L 126.0 183.0 " stroke="black" fill="none" stroke-width="5.0" stroke-linecap="round" stroke-linejoin="round" />
<path d="M 155.0 167.0 L 153.0 169.0 L 151.0 171.0 L 149.0 173.0 L 146.0 177.0 L 140.0 183.0 L 133.0 191.0 L 125.0 196.0 L 120.0 197.0 " stroke="black" fill="none" stroke-width="5.0" stroke-linecap="round" stroke-linejoin="round" />
<path d="M 152.0 164.0 L 152.0 164.0 L 153.0 164.0 L 156.0 162.0 L 164.0 159.0 L 171.0 156.0 L 174.0 155.0 L 174.0 155.0 " stroke="black" fill="none" stroke-width="5.0" stroke-linecap="round" stroke-linejoin="round" />
<path d="M 158.0 163.0 L 158.0 164.0 L 159.0 166.0 L 164.0 171.0 L 175.0 182.0 L 187.0 193.0 L 193.0 198.0 L 194.0 200.0 " stroke="black" fill="none" stroke-width="5.0" stroke-linecap="round" stroke-linejoin="round" />
</svg>