<svg xmlns="http://www.w3.org/2000/svg" width="300" height="300" viewBox="0 0 300 300">
<path d="M 121.0 130.0 L 121.0 130.0 L 121.0 131.0 L 121.0 131.0 L 122.0 132.0 L 128.0 132.0 L 139.0 132.0 L 152.0 131.0 L 161.0 131.0 L 167.0 131.0 L 169.0 131.0 L 169.0 132.0 L 168.0 136.0 L 167.0 143.0 L 166.0 153.0 L 166.0 165.0 L 167.0 176.0 L 172.0 183.0 L 180.0 185.0 L 187.0 184.0 L 192.0 179.0 " stroke="black" fill="none" stroke-width="5.0" stroke-linecap="round" stroke-linejoin="round" />
<path d="M 148.0 111.0 L 148.0 111.0 L 147.0 111.0 L 145.0 115.0 L 143.0 126.0 L 138.0 148.0 L 129.0 175.0 L 119.0 196.0 " stroke="black" fill="none" stroke-width="5.0" stroke-linecap="round" stroke-linejoin="round" />
</svg>