<svg xmlns="http://www.w3.org/2000/svg" width="300" height="300" viewBox="0 0 300 300">
<path d="M 137.0 105.0 L 137.0 105.0 L 137.0 105.0 L 136.0 105.0 L 136.0 105.0 L 136.0 108.0 L 136.0 114.0 L 137.0 121.0 L 138.0 124.0 " stroke="black" fill="none" stroke-width="5.0" stroke-linecap="round" stroke-linejoin="round" />
<path d="M 120.0 113.0 L 120.0 113.0 L 120.0 113.0 L 120.0 113.0 L 122.0 113.0 L 132.0 113.0 L 147.0 111.0 L 160.0 110.0 L 169.0 110.0 L 171.0 110.0 " stroke="black" fill="none" stroke-width="5.0" stroke-linecap="round" stroke-linejoin="round" />
<path d="M 155.0 97.0 L 155.0 97.0 L 155.0 97.0 L 155.0 98.0 L 155.0 104.0 L 156.0 114.0 L 158.0 124.0 L 158.0 128.0 " stroke="black" fill="none" stroke-width="5.0" stroke-linecap="round" stroke-linejoin="round" />
<path d="M 121.0 141.0 L 122.0 141.0 L 123.0 142.0 L 125.0 144.0 L 128.0 146.0 L 132.0 147.0 " stroke="black" fill="none" stroke-width="5.0" stroke-linecap="round" stroke-linejoin="round" />
<path d="M 119.0 163.0 L 120.0 163.0 L 121.0 163.0 L 122.0 163.0 L 126.0 163.0 L 128.0 163.0 " stroke="black" fill="none" stroke-width="5.0" stroke-linecap="round" stroke-linejoin="round" />
<path d="M 110.0 188.0 L 110.0 188.0 L 110.0 189.0 L 111.0 189.0 L 117.0 187.0 L 129.0 183.0 L 132.0 182.0 " stroke="black" fill="none" stroke-width="5.0" stroke-linecap="round" stroke-linejoin="round" />
<path d="M 151.0 133.0 L 151.0 133.0 L 152.0 134.0 L 152.0 134.0 L 152.0 137.0 L 149.0 144.0 L 142.0 152.0 L 140.0 160.0 " stroke="black" fill="none" stroke-width="5.0" stroke-linecap="round" stroke-linejoin="round" />
<path d="M 149.0 143.0 L 149.0 143.0 L 149.0 143.0 L 151.0 143.0 L 156.0 142.0 L 162.0 142.0 L 167.0 142.0 L 169.0 142.0 L 169.0 147.0 L 164.0 154.0 L 156.0 163.0 L 147.0 171.0 L 139.0 176.0 L 138.0 176.0 " stroke="black" fill="none" stroke-width="5.0" stroke-linecap="round" stroke-linejoin="round" />
<path d="M 148.0 152.0 L 149.0 152.0 L 151.0 153.0 L 158.0 155.0 L 169.0 158.0 L 179.0 162.0 L 185.0 164.0 " stroke="black" fill="none" stroke-width="5.0" stroke-linecap="round" stroke-linejoin="round" />
<path d="M 150.0 181.0 L 150.0 180.0 L 150.0 180.0 L 150.0 180.0 L 150.0 184.0 L 150.0 191.0 L 151.0 196.0 L 151.0 197.0 " stroke="black" fill="none" stroke-width="5.0" stroke-linecap="round" stroke-linejoin="round" />
<path d="M 149.0 177.0 L 148.0 176.0 L 148.0 176.0 L 149.0 175.0 L 154.0 174.0 L 161.0 172.0 L 170.0 172.0 L 176.0 173.0 L 180.0 179.0 L 182.0 187.0 L 183.0 194.0 L 184.0 197.0 L 184.0 197.0 " stroke="black" fill="none" stroke-width="5.0" stroke-linecap="round" stroke-linejoin="round" />
<path d="M 152.0 200.0 L 153.0 201.0 L 154.0 203.0 L 160.0 203.0 L 172.0 202.0 L 184.0 201.0 L 186.0 201.0 " stroke="black" fill="none" stroke-width="5.0" stroke-linecap="round" stroke-linejoin="round" />
</svg>