<svg xmlns="http://www.w3.org/2000/svg" width="300" height="300" viewBox="0 0 300 300">
<path d="M 125.0 107.0 L 126.0 107.0 L 126.0 107.0 L 128.0 110.0 L 130.0 115.0 L 132.0 119.0 " stroke="black" fill="none" stroke-width="5.0" stroke-linecap="round" stroke-linejoin="round" />
<path d="M 118.0 123.0 L 118.0 123.0 L 118.0 124.0 L 118.0 124.0 L 121.0 124.0 L 127.0 124.0 L 134.0 123.0 L 138.0 122.0 L 141.0 122.0 L 142.0 123.0 L 143.0 126.0 L 143.0 131.0 L 144.0 137.0 L 144.0 143.0 L 144.0 148.0 L 144.0 150.0 " stroke="black" fill="none" stroke-width="5.0" stroke-linecap="round" stroke-linejoin="round" />
<path d="M 122.0 138.0 L 123.0 138.0 L 124.0 138.0 L 125.0 138.0 L 128.0 137.0 L 133.0 137.0 L 138.0 137.0 L 142.0 137.0 L 143.0 137.0 " stroke="black" fill="none" stroke-width="5.0" stroke-linecap="round" stroke-linejoin="round" />
<path d="M 115.0 150.0 L 116.0 150.0 L 116.0 151.0 L 119.0 152.0 L 126.0 152.0 L 136.0 152.0 L 143.0 151.0 " stroke="black" fill="none" stroke-width="5.0" stroke-linecap="round" stroke-linejoin="round" />
<path d="M 122.0 126.0 L 122.0 126.0 L 122.0 128.0 L 121.0 131.0 L 119.0 139.0 L 117.0 152.0 L 115.0 167.0 L 115.0 179.0 L 116.0 184.0 L 120.0 186.0 L 127.0 185.0 L 134.0 183.0 L 140.0 179.0 " stroke="black" fill="none" stroke-width="5.0" stroke-linecap="round" stroke-linejoin="round" />
<path d="M 138.0 168.0 L 138.0 168.0 L 138.0 168.0 L 140.0 171.0 L 143.0 176.0 L 147.0 183.0 L 148.0 187.0 " stroke="black" fill="none" stroke-width="5.0" stroke-linecap="round" stroke-linejoin="round" />
<path d="M 157.0 122.0 L 157.0 122.0 L 157.0 122.0 L 157.0 122.0 L 157.0 122.0 L 157.0 123.0 L 157.0 131.0 L 158.0 148.0 L 158.0 170.0 L 157.0 186.0 L 157.0 193.0 L 157.0 193.0 L 157.0 192.0 " stroke="black" fill="none" stroke-width="5.0" stroke-linecap="round" stroke-linejoin="round" />
<path d="M 158.0 120.0 L 158.0 120.0 L 158.0 120.0 L 158.0 120.0 L 159.0 120.0 L 160.0 120.0 L 163.0 120.0 L 166.0 120.0 L 170.0 121.0 L 173.0 123.0 L 175.0 128.0 L 178.0 137.0 L 181.0 150.0 L 183.0 165.0 L 184.0 179.0 L 185.0 189.0 L 185.0 193.0 L 185.0 195.0 L 181.0 195.0 L 175.0 193.0 L 173.0 192.0 " stroke="black" fill="none" stroke-width="5.0" stroke-linecap="round" stroke-linejoin="round" />
<path d="M 163.0 143.0 L 163.0 143.0 L 163.0 143.0 L 165.0 144.0 L 171.0 144.0 L 177.0 144.0 L 182.0 145.0 " stroke="black" fill="none" stroke-width="5.0" stroke-linecap="round" stroke-linejoin="round" />
<path d="M 159.0 161.0 L 160.0 161.0 L 163.0 162.0 L 170.0 162.0 L 179.0 160.0 L 181.0 160.0 " stroke="black" fill="none" stroke-width="5.0" stroke-linecap="round" stroke-linejoin="round" />
</svg>