<svg xmlns="http://www.w3.org/2000/svg" width="300" height="300" viewBox="0 0 300 300">
<path d="M 121.0 115.0 L 122.0 115.0 L 122.0 115.0 L 127.0 115.0 L 140.0 115.0 L 157.0 113.0 L 171.0 112.0 L 181.0 112.0 " stroke="black" fill="none" stroke-width="5.0" stroke-linecap="round" stroke-linejoin="round" />
<path d="M 152.0 119.0 L 152.0 119.0 L 152.0 119.0 L 153.0 119.0 L 153.0 120.0 L 149.0 125.0 L 142.0 133.0 L 140.0 136.0 " stroke="black" fill="none" stroke-width="5.0" stroke-linecap="round" stroke-linejoin="round" />
<path d="M 124.0 145.0 L 124.0 145.0 L 123.0 145.0 L 122.0 145.0 L 122.0 145.0 L 122.0 151.0 L 123.0 165.0 L 124.0 182.0 L 125.0 193.0 L 127.0 196.0 L 128.0 196.0 " stroke="black" fill="none" stroke-width="5.0" stroke-linecap="round" stroke-linejoin="round" />
<path d="M 130.0 140.0 L 131.0 140.0 L 132.0 140.0 L 133.0 139.0 L 135.0 139.0 L 139.0 139.0 L 146.0 140.0 L 154.0 141.0 L 162.0 142.0 L 167.0 145.0 L 169.0 149.0 L 171.0 158.0 L 174.0 172.0 L 177.0 187.0 L 179.0 196.0 L 179.0 198.0 L 179.0 199.0 " stroke="black" fill="none" stroke-width="5.0" stroke-linecap="round" stroke-linejoin="round" />
<path d="M 132.0 167.0 L 132.0 167.0 L 133.0 167.0 L 134.0 167.0 L 136.0 167.0 L 144.0 167.0 L 156.0 167.0 L 166.0 168.0 L 169.0 170.0 " stroke="black" fill="none" stroke-width="5.0" stroke-linecap="round" stroke-linejoin="round" />
<path d="M 128.0 194.0 L 130.0 195.0 L 134.0 197.0 L 143.0 198.0 L 156.0 197.0 L 168.0 197.0 " stroke="black" fill="none" stroke-width="5.0" stroke-linecap="round" stroke-linejoin="round" />
</svg>