<svg xmlns="http://www.w3.org/2000/svg" width="300" height="300" viewBox="0 0 300 300">
<path d="M 126.0 111.0 L 126.0 111.0 L 126.0 111.0 L 127.0 111.0 L 133.0 111.0 L 145.0 111.0 L 158.0 110.0 L 168.0 109.0 L 173.0 109.0 L 174.0 109.0 L 173.0 109.0 " stroke="black" fill="none" stroke-width="5.0" stroke-linecap="round" stroke-linejoin="round" />
<path d="M 154.0 115.0 L 154.0 115.0 L 154.0 115.0 L 154.0 115.0 L 153.0 116.0 L 151.0 118.0 L 146.0 124.0 L 139.0 132.0 " stroke="black" fill="none" stroke-width="5.0" stroke-linecap="round" stroke-linejoin="round" />
<path d="M 125.0 140.0 L 125.0 140.0 L 125.0 140.0 L 125.0 140.0 L 125.0 141.0 L 125.0 149.0 L 125.0 164.0 L 125.0 181.0 L 125.0 191.0 L 125.0 194.0 L 125.0 194.0 " stroke="black" fill="none" stroke-width="5.0" stroke-linecap="round" stroke-linejoin="round" />
<path d="M 129.0 140.0 L 129.0 140.0 L 129.0 139.0 L 129.0 139.0 L 131.0 138.0 L 136.0 138.0 L 145.0 139.0 L 155.0 139.0 L 162.0 139.0 L 166.0 139.0 L 169.0 140.0 L 172.0 143.0 L 175.0 150.0 L 178.0 163.0 L 181.0 181.0 L 184.0 194.0 L 186.0 202.0 L 186.0 204.0 L 186.0 204.0 " stroke="black" fill="none" stroke-width="5.0" stroke-linecap="round" stroke-linejoin="round" />
<path d="M 134.0 166.0 L 134.0 166.0 L 136.0 166.0 L 141.0 167.0 L 151.0 169.0 L 163.0 170.0 L 170.0 170.0 L 173.0 172.0 L 173.0 174.0 " stroke="black" fill="none" stroke-width="5.0" stroke-linecap="round" stroke-linejoin="round" />
<path d="M 127.0 196.0 L 127.0 196.0 L 127.0 198.0 L 129.0 200.0 L 135.0 202.0 L 148.0 204.0 L 163.0 205.0 L 175.0 206.0 L 182.0 206.0 L 183.0 206.0 " stroke="black" fill="none" stroke-width="5.0" stroke-linecap="round" stroke-linejoin="round" />
</svg>