<svg xmlns="http://www.w3.org/2000/svg" width="300" height="300" viewBox="0 0 300 300">
<path d="M 126.0 132.0 L 126.0 131.0 L 126.0 130.0 L 126.0 130.0 L 126.0 130.0 L 126.0 133.0 L 126.0 141.0 L 127.0 154.0 L 128.0 165.0 L 130.0 170.0 L 131.0 170.0 " stroke="black" fill="none" stroke-width="5.0" stroke-linecap="round" stroke-linejoin="round" />
<path d="M 127.0 130.0 L 127.0 130.0 L 128.0 130.0 L 129.0 130.0 L 132.0 130.0 L 138.0 129.0 L 148.0 129.0 L 159.0 128.0 L 167.0 128.0 L 171.0 130.0 L 173.0 136.0 L 174.0 146.0 L 174.0 155.0 L 174.0 163.0 L 174.0 167.0 L 174.0 169.0 L 174.0 169.0 " stroke="black" fill="none" stroke-width="5.0" stroke-linecap="round" stroke-linejoin="round" />
<path d="M 137.0 150.0 L 137.0 150.0 L 137.0 150.0 L 137.0 150.0 L 139.0 150.0 L 148.0 150.0 L 159.0 151.0 L 168.0 151.0 L 173.0 152.0 L 172.0 152.0 " stroke="black" fill="none" stroke-width="5.0" stroke-linecap="round" stroke-linejoin="round" />
<path d="M 133.0 169.0 L 133.0 170.0 L 134.0 172.0 L 140.0 174.0 L 151.0 174.0 L 165.0 173.0 L 173.0 169.0 L 173.0 169.0 " stroke="black" fill="none" stroke-width="5.0" stroke-linecap="round" stroke-linejoin="round" />
<path d="M 148.0 102.0 L 148.0 103.0 L 148.0 105.0 L 148.0 112.0 L 150.0 133.0 L 153.0 162.0 L 155.0 185.0 L 156.0 199.0 L 156.0 204.0 L 157.0 205.0 L 157.0 204.0 " stroke="black" fill="none" stroke-width="5.0" stroke-linecap="round" stroke-linejoin="round" />
</svg>