<svg xmlns="http://www.w3.org/2000/svg" width="300" height="300" viewBox="0 0 300 300">
<path d="M 126.0 117.0 L 126.0 117.0 L 126.0 117.0 L 130.0 117.0 L 141.0 116.0 L 158.0 114.0 L 173.0 113.0 L 179.0 112.0 " stroke="black" fill="none" stroke-width="5.0" stroke-linecap="round" stroke-linejoin="round" />
<path d="M 146.0 123.0 L 146.0 123.0 L 145.0 123.0 L 145.0 125.0 L 144.0 134.0 L 143.0 151.0 L 142.0 166.0 L 141.0 171.0 " stroke="black" fill="none" stroke-width="5.0" stroke-linecap="round" stroke-linejoin="round" />
<path d="M 161.0 119.0 L 161.0 119.0 L 161.0 119.0 L 161.0 119.0 L 161.0 119.0 L 161.0 123.0 L 161.0 133.0 L 161.0 146.0 L 163.0 157.0 L 166.0 164.0 L 172.0 164.0 L 174.0 163.0 " stroke="black" fill="none" stroke-width="5.0" stroke-linecap="round" stroke-linejoin="round" />
<path d="M 123.0 148.0 L 123.0 148.0 L 122.0 150.0 L 122.0 154.0 L 123.0 166.0 L 126.0 183.0 L 128.0 193.0 L 129.0 194.0 " stroke="black" fill="none" stroke-width="5.0" stroke-linecap="round" stroke-linejoin="round" />
<path d="M 124.0 143.0 L 124.0 143.0 L 125.0 143.0 L 127.0 143.0 L 135.0 142.0 L 148.0 140.0 L 160.0 140.0 L 172.0 140.0 L 181.0 140.0 L 186.0 140.0 L 189.0 143.0 L 191.0 152.0 L 192.0 163.0 L 192.0 174.0 L 193.0 183.0 L 193.0 187.0 L 193.0 188.0 " stroke="black" fill="none" stroke-width="5.0" stroke-linecap="round" stroke-linejoin="round" />
<path d="M 131.0 192.0 L 131.0 192.0 L 129.0 194.0 L 129.0 195.0 L 138.0 195.0 L 153.0 195.0 L 171.0 195.0 L 185.0 195.0 L 191.0 196.0 L 192.0 197.0 " stroke="black" fill="none" stroke-width="5.0" stroke-linecap="round" stroke-linejoin="round" />
</svg>