<svg xmlns="http://www.w3.org/2000/svg" width="300" height="300" viewBox="0 0 300 300">
<path d="M 129.0 117.0 L 129.0 117.0 L 129.0 117.0 L 129.0 117.0 L 129.0 117.0 L 130.0 117.0 L 135.0 117.0 L 146.0 118.0 L 157.0 118.0 L 165.0 118.0 L 167.0 118.0 L 167.0 118.0 " stroke="black" fill="none" stroke-width="5.0" stroke-linecap="round" stroke-linejoin="round" />
<path d="M 141.0 122.0 L 141.0 122.0 L 141.0 122.0 L 141.0 123.0 L 140.0 127.0 L 139.0 139.0 L 138.0 153.0 L 137.0 163.0 L 137.0 165.0 " stroke="black" fill="none" stroke-width="5.0" stroke-linecap="round" stroke-linejoin="round" />
<path d="M 155.0 121.0 L 156.0 121.0 L 156.0 121.0 L 156.0 122.0 L 156.0 124.0 L 155.0 129.0 L 154.0 140.0 L 154.0 150.0 L 154.0 157.0 L 157.0 160.0 L 161.0 160.0 L 167.0 160.0 L 171.0 157.0 " stroke="black" fill="none" stroke-width="5.0" stroke-linecap="round" stroke-linejoin="round" />
<path d="M 117.0 140.0 L 117.0 140.0 L 118.0 140.0 L 119.0 140.0 L 119.0 147.0 L 119.0 160.0 L 119.0 174.0 L 119.0 180.0 L 120.0 181.0 L 121.0 179.0 " stroke="black" fill="none" stroke-width="5.0" stroke-linecap="round" stroke-linejoin="round" />
<path d="M 119.0 136.0 L 119.0 136.0 L 119.0 136.0 L 120.0 136.0 L 124.0 136.0 L 135.0 136.0 L 149.0 136.0 L 161.0 137.0 L 171.0 138.0 L 176.0 139.0 L 179.0 142.0 L 180.0 147.0 L 182.0 156.0 L 184.0 167.0 L 186.0 176.0 L 187.0 182.0 L 188.0 186.0 L 187.0 187.0 " stroke="black" fill="none" stroke-width="5.0" stroke-linecap="round" stroke-linejoin="round" />
<path d="M 123.0 189.0 L 123.0 189.0 L 124.0 190.0 L 130.0 190.0 L 139.0 191.0 L 153.0 191.0 L 169.0 190.0 L 182.0 190.0 L 191.0 190.0 L 195.0 190.0 L 195.0 190.0 L 193.0 190.0 " stroke="black" fill="none" stroke-width="5.0" stroke-linecap="round" stroke-linejoin="round" />
</svg>