<svg xmlns="http://www.w3.org/2000/svg" width="300" height="300" viewBox="0 0 300 300">
<path d="M 122.0 117.0 L 122.0 117.0 L 123.0 118.0 L 124.0 119.0 L 130.0 119.0 L 142.0 119.0 L 157.0 118.0 L 169.0 118.0 L 176.0 119.0 " stroke="black" fill="none" stroke-width="5.0" stroke-linecap="round" stroke-linejoin="round" />
<path d="M 140.0 124.0 L 140.0 124.0 L 140.0 124.0 L 139.0 124.0 L 139.0 127.0 L 139.0 138.0 L 136.0 155.0 L 132.0 169.0 L 131.0 171.0 " stroke="black" fill="none" stroke-width="5.0" stroke-linecap="round" stroke-linejoin="round" />
<path d="M 155.0 121.0 L 155.0 121.0 L 155.0 121.0 L 155.0 121.0 L 156.0 121.0 L 156.0 123.0 L 155.0 133.0 L 155.0 148.0 L 155.0 160.0 L 160.0 164.0 L 168.0 165.0 L 173.0 163.0 " stroke="black" fill="none" stroke-width="5.0" stroke-linecap="round" stroke-linejoin="round" />
<path d="M 117.0 146.0 L 117.0 146.0 L 117.0 146.0 L 117.0 146.0 L 117.0 149.0 L 117.0 158.0 L 118.0 174.0 L 118.0 186.0 L 119.0 189.0 " stroke="black" fill="none" stroke-width="5.0" stroke-linecap="round" stroke-linejoin="round" />
<path d="M 117.0 147.0 L 118.0 147.0 L 120.0 146.0 L 123.0 146.0 L 130.0 146.0 L 139.0 146.0 L 149.0 146.0 L 159.0 146.0 L 168.0 146.0 L 175.0 146.0 L 179.0 146.0 L 181.0 149.0 L 181.0 154.0 L 182.0 161.0 L 184.0 168.0 L 186.0 176.0 L 188.0 185.0 L 188.0 191.0 L 188.0 193.0 " stroke="black" fill="none" stroke-width="5.0" stroke-linecap="round" stroke-linejoin="round" />
<path d="M 128.0 193.0 L 128.0 193.0 L 127.0 193.0 L 127.0 193.0 L 127.0 193.0 L 127.0 193.0 L 132.0 194.0 L 142.0 194.0 L 157.0 196.0 L 172.0 198.0 L 182.0 199.0 L 186.0 200.0 " stroke="black" fill="none" stroke-width="5.0" stroke-linecap="round" stroke-linejoin="round" />
</svg>