<svg xmlns="http://www.w3.org/2000/svg" width="300" height="300" viewBox="0 0 300 300">
<path d="M 137.0 125.0 L 137.0 125.0 L 137.0 125.0 L 137.0 125.0 L 137.0 125.0 L 138.0 124.0 L 140.0 122.0 L 144.0 120.0 L 147.0 117.0 L 150.0 116.0 L 153.0 116.0 L 157.0 121.0 L 163.0 133.0 L 173.0 150.0 L 183.0 167.0 L 190.0 180.0 L 195.0 188.0 L 197.0 192.0 L 197.0 193.0 L 196.0 192.0 L 196.0 191.0 " stroke="black" fill="none" stroke-width="5.0" stroke-linecap="round" stroke-linejoin="round" />
<path d="M 160.0 131.0 L 161.0 131.0 L 161.0 130.0 L 161.0 130.0 L 161.0 130.0 L 161.0 132.0 L 158.0 137.0 L 152.0 146.0 L 140.0 160.0 L 126.0 176.0 L 117.0 186.0 L 117.0 186.0 " stroke="black" fill="none" stroke-width="5.0" stroke-linecap="round" stroke-linejoin="round" />
</svg>