<svg xmlns="http://www.w3.org/2000/svg" width="300" height="300" viewBox="0 0 300 300">
<path d="M 137.0 105.0 L 137.0 105.0 L 136.0 104.0 L 136.0 103.0 L 136.0 103.0 L 136.0 103.0 L 136.0 106.0 L 137.0 112.0 L 138.0 118.0 L 139.0 122.0 " stroke="black" fill="none" stroke-width="5.0" stroke-linecap="round" stroke-linejoin="round" />
<path d="M 116.0 116.0 L 116.0 116.0 L 116.0 116.0 L 117.0 116.0 L 124.0 116.0 L 138.0 115.0 L 152.0 114.0 L 164.0 113.0 L 173.0 112.0 L 177.0 112.0 L 177.0 111.0 L 177.0 111.0 L 175.0 111.0 L 175.0 111.0 " stroke="black" fill="none" stroke-width="5.0" stroke-linecap="round" stroke-linejoin="round" />
<path d="M 159.0 100.0 L 159.0 100.0 L 159.0 100.0 L 160.0 103.0 L 161.0 110.0 L 161.0 118.0 L 161.0 120.0 " stroke="black" fill="none" stroke-width="5.0" stroke-linecap="round" stroke-linejoin="round" />
<path d="M 122.0 141.0 L 122.0 141.0 L 122.0 141.0 L 122.0 141.0 L 122.0 141.0 L 128.0 141.0 L 141.0 141.0 L 156.0 140.0 L 167.0 138.0 L 172.0 137.0 L 173.0 137.0 L 173.0 137.0 L 172.0 137.0 L 171.0 137.0 " stroke="black" fill="none" stroke-width="5.0" stroke-linecap="round" stroke-linejoin="round" />
<path d="M 120.0 146.0 L 120.0 146.0 L 120.0 146.0 L 119.0 146.0 L 119.0 149.0 L 118.0 157.0 L 116.0 170.0 L 113.0 182.0 L 111.0 188.0 L 111.0 189.0 " stroke="black" fill="none" stroke-width="5.0" stroke-linecap="round" stroke-linejoin="round" />
<path d="M 148.0 127.0 L 148.0 127.0 L 148.0 127.0 L 148.0 129.0 L 151.0 135.0 L 156.0 149.0 L 163.0 166.0 L 171.0 179.0 L 178.0 186.0 L 182.0 188.0 L 184.0 188.0 " stroke="black" fill="none" stroke-width="5.0" stroke-linecap="round" stroke-linejoin="round" />
<path d="M 182.0 163.0 L 180.0 164.0 L 178.0 166.0 L 176.0 169.0 L 170.0 176.0 L 161.0 185.0 L 157.0 188.0 " stroke="black" fill="none" stroke-width="5.0" stroke-linecap="round" stroke-linejoin="round" />
<path d="M 177.0 122.0 L 177.0 122.0 L 178.0 122.0 L 179.0 124.0 L 181.0 126.0 " stroke="black" fill="none" stroke-width="5.0" stroke-linecap="round" stroke-linejoin="round" />
</svg>