<svg xmlns="http://www.w3.org/2000/svg" width="300" height="300" viewBox="0 0 300 300">
<path d="M 115.0 118.0 L 118.0 119.0 L 119.0 120.0 L 121.0 120.0 L 126.0 120.0 L 132.0 120.0 L 137.0 119.0 L 138.0 119.0 " stroke="black" fill="none" stroke-width="5.0" stroke-linecap="round" stroke-linejoin="round" />
<path d="M 111.0 136.0 L 111.0 136.0 L 111.0 136.0 L 111.0 135.0 L 111.0 137.0 L 111.0 142.0 L 111.0 147.0 L 112.0 151.0 L 112.0 151.0 " stroke="black" fill="none" stroke-width="5.0" stroke-linecap="round" stroke-linejoin="round" />
<path d="M 113.0 135.0 L 113.0 135.0 L 113.0 135.0 L 113.0 135.0 L 115.0 135.0 L 120.0 133.0 L 127.0 133.0 L 135.0 132.0 L 139.0 133.0 L 142.0 136.0 L 143.0 141.0 L 143.0 146.0 L 143.0 153.0 L 143.0 156.0 L 143.0 157.0 " stroke="black" fill="none" stroke-width="5.0" stroke-linecap="round" stroke-linejoin="round" />
<path d="M 117.0 145.0 L 117.0 145.0 L 117.0 145.0 L 116.0 145.0 L 120.0 145.0 L 127.0 145.0 L 135.0 145.0 L 139.0 145.0 " stroke="black" fill="none" stroke-width="5.0" stroke-linecap="round" stroke-linejoin="round" />
<path d="M 116.0 158.0 L 117.0 158.0 L 119.0 159.0 L 124.0 159.0 L 131.0 159.0 L 138.0 158.0 " stroke="black" fill="none" stroke-width="5.0" stroke-linecap="round" stroke-linejoin="round" />
<path d="M 128.0 112.0 L 128.0 112.0 L 128.0 112.0 L 128.0 112.0 L 128.0 113.0 L 128.0 122.0 L 130.0 142.0 L 130.0 165.0 L 130.0 180.0 L 130.0 186.0 L 130.0 187.0 L 130.0 185.0 " stroke="black" fill="none" stroke-width="5.0" stroke-linecap="round" stroke-linejoin="round" />
<path d="M 110.0 173.0 L 110.0 173.0 L 111.0 173.0 L 115.0 173.0 L 124.0 173.0 L 137.0 174.0 L 145.0 174.0 L 147.0 174.0 " stroke="black" fill="none" stroke-width="5.0" stroke-linecap="round" stroke-linejoin="round" />
<path d="M 156.0 114.0 L 156.0 114.0 L 156.0 114.0 L 156.0 114.0 L 157.0 114.0 L 162.0 114.0 L 169.0 114.0 L 175.0 114.0 L 176.0 114.0 " stroke="black" fill="none" stroke-width="5.0" stroke-linecap="round" stroke-linejoin="round" />
<path d="M 151.0 128.0 L 151.0 128.0 L 150.0 128.0 L 150.0 129.0 L 150.0 133.0 L 150.0 139.0 L 151.0 145.0 L 152.0 148.0 " stroke="black" fill="none" stroke-width="5.0" stroke-linecap="round" stroke-linejoin="round" />
<path d="M 152.0 129.0 L 152.0 129.0 L 152.0 129.0 L 155.0 129.0 L 159.0 128.0 L 166.0 127.0 L 172.0 126.0 L 178.0 126.0 L 181.0 128.0 L 183.0 132.0 L 184.0 136.0 L 184.0 141.0 L 184.0 145.0 L 184.0 146.0 " stroke="black" fill="none" stroke-width="5.0" stroke-linecap="round" stroke-linejoin="round" />
<path d="M 157.0 138.0 L 157.0 138.0 L 157.0 138.0 L 157.0 138.0 L 160.0 138.0 L 167.0 137.0 L 175.0 137.0 L 179.0 137.0 " stroke="black" fill="none" stroke-width="5.0" stroke-linecap="round" stroke-linejoin="round" />
<path d="M 157.0 146.0 L 158.0 146.0 L 159.0 147.0 L 163.0 148.0 L 170.0 148.0 L 178.0 146.0 L 182.0 146.0 " stroke="black" fill="none" stroke-width="5.0" stroke-linecap="round" stroke-linejoin="round" />
<path d="M 166.0 106.0 L 166.0 106.0 L 166.0 106.0 L 166.0 106.0 L 166.0 107.0 L 167.0 116.0 L 169.0 131.0 L 170.0 146.0 L 171.0 153.0 L 171.0 154.0 " stroke="black" fill="none" stroke-width="5.0" stroke-linecap="round" stroke-linejoin="round" />
<path d="M 152.0 158.0 L 152.0 158.0 L 152.0 158.0 L 154.0 159.0 L 160.0 159.0 L 171.0 158.0 L 182.0 157.0 L 189.0 157.0 L 189.0 157.0 " stroke="black" fill="none" stroke-width="5.0" stroke-linecap="round" stroke-linejoin="round" />
<path d="M 188.0 152.0 L 188.0 152.0 L 187.0 152.0 L 187.0 153.0 L 188.0 156.0 L 189.0 161.0 L 189.0 164.0 " stroke="black" fill="none" stroke-width="5.0" stroke-linecap="round" stroke-linejoin="round" />
<path d="M 153.0 168.0 L 153.0 168.0 L 153.0 169.0 L 153.0 169.0 L 157.0 169.0 L 168.0 169.0 L 180.0 169.0 L 188.0 169.0 L 190.0 170.0 L 190.0 171.0 " stroke="black" fill="none" stroke-width="5.0" stroke-linecap="round" stroke-linejoin="round" />
<path d="M 174.0 160.0 L 174.0 160.0 L 174.0 160.0 L 174.0 160.0 L 174.0 163.0 L 177.0 172.0 L 180.0 184.0 L 182.0 193.0 L 182.0 198.0 L 182.0 199.0 L 179.0 199.0 L 174.0 199.0 L 167.0 197.0 " stroke="black" fill="none" stroke-width="5.0" stroke-linecap="round" stroke-linejoin="round" />
<path d="M 153.0 184.0 L 153.0 184.0 L 154.0 185.0 L 158.0 185.0 L 167.0 185.0 L 171.0 185.0 " stroke="black" fill="none" stroke-width="5.0" stroke-linecap="round" stroke-linejoin="round" />
</svg>