<svg xmlns="http://www.w3.org/2000/svg" width="300" height="300" viewBox="0 0 300 300">
<path d="M 116.0 116.0 L 116.0 116.0 L 116.0 116.0 L 117.0 116.0 L 119.0 116.0 L 124.0 116.0 L 130.0 116.0 L 134.0 116.0 L 135.0 116.0 " stroke="black" fill="none" stroke-width="5.0" stroke-linecap="round" stroke-linejoin="round" />
<path d="M 110.0 130.0 L 110.0 130.0 L 110.0 130.0 L 111.0 130.0 L 111.0 130.0 L 111.0 133.0 L 111.0 139.0 L 111.0 145.0 L 111.0 150.0 L 111.0 152.0 " stroke="black" fill="none" stroke-width="5.0" stroke-linecap="round" stroke-linejoin="round" />
<path d="M 112.0 129.0 L 112.0 129.0 L 112.0 129.0 L 113.0 129.0 L 114.0 128.0 L 117.0 128.0 L 122.0 128.0 L 128.0 128.0 L 134.0 128.0 L 138.0 128.0 L 140.0 130.0 L 141.0 134.0 L 141.0 141.0 L 141.0 147.0 L 141.0 151.0 L 141.0 152.0 " stroke="black" fill="none" stroke-width="5.0" stroke-linecap="round" stroke-linejoin="round" />
<path d="M 114.0 142.0 L 114.0 142.0 L 114.0 142.0 L 115.0 142.0 L 117.0 142.0 L 121.0 142.0 L 127.0 142.0 L 133.0 142.0 L 135.0 142.0 " stroke="black" fill="none" stroke-width="5.0" stroke-linecap="round" stroke-linejoin="round" />
<path d="M 111.0 155.0 L 111.0 155.0 L 111.0 155.0 L 113.0 156.0 L 117.0 156.0 L 127.0 156.0 L 137.0 155.0 " stroke="black" fill="none" stroke-width="5.0" stroke-linecap="round" stroke-linejoin="round" />
<path d="M 124.0 109.0 L 124.0 109.0 L 124.0 109.0 L 124.0 109.0 L 124.0 114.0 L 125.0 130.0 L 125.0 153.0 L 125.0 171.0 L 125.0 182.0 L 125.0 187.0 L 125.0 188.0 L 125.0 187.0 L 125.0 186.0 " stroke="black" fill="none" stroke-width="5.0" stroke-linecap="round" stroke-linejoin="round" />
<path d="M 107.0 172.0 L 107.0 173.0 L 107.0 174.0 L 107.0 174.0 L 108.0 175.0 L 114.0 175.0 L 126.0 175.0 L 135.0 174.0 L 141.0 174.0 L 141.0 174.0 " stroke="black" fill="none" stroke-width="5.0" stroke-linecap="round" stroke-linejoin="round" />
<path d="M 155.0 110.0 L 155.0 110.0 L 155.0 110.0 L 155.0 110.0 L 155.0 110.0 L 155.0 110.0 L 155.0 110.0 L 156.0 110.0 L 159.0 110.0 L 164.0 110.0 L 169.0 110.0 L 174.0 110.0 L 176.0 110.0 L 177.0 110.0 L 177.0 110.0 " stroke="black" fill="none" stroke-width="5.0" stroke-linecap="round" stroke-linejoin="round" />
<path d="M 151.0 120.0 L 151.0 121.0 L 151.0 122.0 L 151.0 123.0 L 151.0 124.0 L 152.0 127.0 L 152.0 131.0 L 152.0 136.0 L 153.0 139.0 L 153.0 140.0 L 153.0 139.0 L 153.0 138.0 " stroke="black" fill="none" stroke-width="5.0" stroke-linecap="round" stroke-linejoin="round" />
<path d="M 154.0 120.0 L 154.0 120.0 L 154.0 120.0 L 154.0 120.0 L 154.0 120.0 L 156.0 120.0 L 159.0 120.0 L 163.0 120.0 L 168.0 119.0 L 173.0 119.0 L 176.0 118.0 L 179.0 118.0 L 180.0 118.0 L 181.0 118.0 L 181.0 120.0 L 181.0 124.0 L 181.0 129.0 L 181.0 134.0 L 182.0 138.0 L 182.0 141.0 L 182.0 142.0 " stroke="black" fill="none" stroke-width="5.0" stroke-linecap="round" stroke-linejoin="round" />
<path d="M 157.0 128.0 L 157.0 128.0 L 157.0 128.0 L 157.0 128.0 L 159.0 128.0 L 163.0 128.0 L 168.0 128.0 L 173.0 128.0 L 176.0 128.0 L 176.0 128.0 " stroke="black" fill="none" stroke-width="5.0" stroke-linecap="round" stroke-linejoin="round" />
<path d="M 153.0 140.0 L 153.0 140.0 L 154.0 140.0 L 156.0 141.0 L 160.0 142.0 L 167.0 142.0 L 175.0 142.0 L 181.0 142.0 L 184.0 142.0 " stroke="black" fill="none" stroke-width="5.0" stroke-linecap="round" stroke-linejoin="round" />
<path d="M 167.0 102.0 L 167.0 102.0 L 167.0 102.0 L 167.0 103.0 L 167.0 111.0 L 167.0 124.0 L 168.0 137.0 L 169.0 144.0 L 169.0 148.0 L 169.0 150.0 " stroke="black" fill="none" stroke-width="5.0" stroke-linecap="round" stroke-linejoin="round" />
<path d="M 150.0 152.0 L 150.0 152.0 L 150.0 152.0 L 150.0 153.0 L 151.0 153.0 L 157.0 153.0 L 168.0 152.0 L 180.0 151.0 L 189.0 150.0 L 193.0 151.0 L 193.0 151.0 L 193.0 151.0 " stroke="black" fill="none" stroke-width="5.0" stroke-linecap="round" stroke-linejoin="round" />
<path d="M 191.0 145.0 L 191.0 145.0 L 191.0 146.0 L 191.0 148.0 L 192.0 152.0 L 194.0 157.0 L 195.0 159.0 " stroke="black" fill="none" stroke-width="5.0" stroke-linecap="round" stroke-linejoin="round" />
<path d="M 151.0 164.0 L 151.0 164.0 L 151.0 164.0 L 152.0 165.0 L 156.0 165.0 L 166.0 165.0 L 180.0 164.0 L 191.0 163.0 L 196.0 163.0 L 197.0 163.0 L 197.0 163.0 " stroke="black" fill="none" stroke-width="5.0" stroke-linecap="round" stroke-linejoin="round" />
<path d="M 177.0 154.0 L 178.0 155.0 L 178.0 156.0 L 179.0 161.0 L 181.0 172.0 L 184.0 186.0 L 185.0 196.0 L 186.0 201.0 L 186.0 202.0 L 183.0 202.0 L 177.0 200.0 L 173.0 199.0 " stroke="black" fill="none" stroke-width="5.0" stroke-linecap="round" stroke-linejoin="round" />
<path d="M 153.0 180.0 L 154.0 180.0 L 156.0 180.0 L 161.0 181.0 L 170.0 181.0 L 172.0 181.0 " stroke="black" fill="none" stroke-width="5.0" stroke-linecap="round" stroke-linejoin="round" />
</svg>