<svg xmlns="http://www.w3.org/2000/svg" width="300" height="300" viewBox="0 0 300 300">
<path d="M 139.0 104.0 L 139.0 104.0 L 139.0 104.0 L 139.0 106.0 L 139.0 112.0 L 140.0 119.0 L 140.0 127.0 L 140.0 131.0 " stroke="black" fill="none" stroke-width="5.0" stroke-linecap="round" stroke-linejoin="round" />
<path d="M 117.0 122.0 L 117.0 122.0 L 117.0 122.0 L 121.0 122.0 L 132.0 121.0 L 148.0 119.0 L 164.0 117.0 L 175.0 116.0 L 184.0 116.0 L 189.0 115.0 L 191.0 115.0 L 191.0 115.0 L 191.0 115.0 " stroke="black" fill="none" stroke-width="5.0" stroke-linecap="round" stroke-linejoin="round" />
<path d="M 167.0 103.0 L 167.0 103.0 L 167.0 103.0 L 167.0 105.0 L 167.0 113.0 L 168.0 122.0 L 169.0 131.0 " stroke="black" fill="none" stroke-width="5.0" stroke-linecap="round" stroke-linejoin="round" />
<path d="M 115.0 148.0 L 116.0 148.0 L 117.0 148.0 L 121.0 147.0 L 133.0 146.0 L 150.0 145.0 L 167.0 145.0 L 182.0 144.0 L 190.0 142.0 L 193.0 141.0 L 193.0 141.0 L 191.0 141.0 L 191.0 141.0 " stroke="black" fill="none" stroke-width="5.0" stroke-linecap="round" stroke-linejoin="round" />
<path d="M 138.0 161.0 L 138.0 161.0 L 138.0 163.0 L 137.0 164.0 L 137.0 167.0 L 137.0 172.0 L 139.0 177.0 " stroke="black" fill="none" stroke-width="5.0" stroke-linecap="round" stroke-linejoin="round" />
<path d="M 125.0 170.0 L 125.0 170.0 L 125.0 170.0 L 127.0 170.0 L 136.0 170.0 L 151.0 169.0 L 167.0 169.0 L 180.0 169.0 L 187.0 168.0 L 189.0 168.0 L 190.0 168.0 L 189.0 168.0 L 189.0 168.0 " stroke="black" fill="none" stroke-width="5.0" stroke-linecap="round" stroke-linejoin="round" />
<path d="M 169.0 155.0 L 169.0 155.0 L 169.0 155.0 L 169.0 156.0 L 169.0 159.0 L 170.0 167.0 L 171.0 176.0 L 171.0 183.0 " stroke="black" fill="none" stroke-width="5.0" stroke-linecap="round" stroke-linejoin="round" />
<path d="M 130.0 187.0 L 130.0 187.0 L 130.0 187.0 L 130.0 186.0 L 133.0 186.0 L 141.0 186.0 L 154.0 185.0 L 169.0 184.0 L 179.0 184.0 L 183.0 184.0 L 183.0 185.0 L 182.0 185.0 L 181.0 186.0 " stroke="black" fill="none" stroke-width="5.0" stroke-linecap="round" stroke-linejoin="round" />
<path d="M 142.0 199.0 L 142.0 199.0 L 142.0 199.0 L 142.0 199.0 L 148.0 199.0 L 160.0 199.0 L 172.0 199.0 L 179.0 199.0 " stroke="black" fill="none" stroke-width="5.0" stroke-linecap="round" stroke-linejoin="round" />
<path d="M 154.0 146.0 L 154.0 146.0 L 154.0 146.0 L 154.0 146.0 L 154.0 149.0 L 157.0 163.0 L 160.0 185.0 L 163.0 203.0 L 163.0 210.0 L 163.0 212.0 L 163.0 212.0 " stroke="black" fill="none" stroke-width="5.0" stroke-linecap="round" stroke-linejoin="round" />
</svg>