<svg xmlns="http://www.w3.org/2000/svg" width="300" height="300" viewBox="0 0 300 300">
<path d="M 141.0 104.0 L 141.0 104.0 L 141.0 104.0 L 141.0 105.0 L 140.0 106.0 L 138.0 109.0 L 135.0 113.0 L 131.0 119.0 L 126.0 123.0 L 124.0 125.0 L 123.0 126.0 L 123.0 127.0 L 122.0 130.0 L 122.0 135.0 L 121.0 144.0 L 121.0 158.0 L 121.0 174.0 L 121.0 187.0 L 121.0 194.0 L 121.0 195.0 L 121.0 195.0 " stroke="black" fill="none" stroke-width="5.0" stroke-linecap="round" stroke-linejoin="round" />
<path d="M 124.0 127.0 L 124.0 127.0 L 124.0 127.0 L 125.0 127.0 L 130.0 127.0 L 139.0 126.0 L 149.0 125.0 L 157.0 125.0 L 162.0 125.0 L 164.0 125.0 L 166.0 126.0 L 167.0 131.0 L 170.0 143.0 L 173.0 157.0 L 176.0 171.0 L 178.0 180.0 L 180.0 186.0 L 180.0 188.0 L 180.0 189.0 " stroke="black" fill="none" stroke-width="5.0" stroke-linecap="round" stroke-linejoin="round" />
<path d="M 131.0 149.0 L 131.0 149.0 L 131.0 149.0 L 133.0 149.0 L 141.0 149.0 L 153.0 148.0 L 163.0 147.0 L 168.0 147.0 L 169.0 147.0 L 167.0 148.0 " stroke="black" fill="none" stroke-width="5.0" stroke-linecap="round" stroke-linejoin="round" />
<path d="M 131.0 167.0 L 131.0 168.0 L 132.0 170.0 L 134.0 172.0 L 141.0 172.0 L 152.0 170.0 L 163.0 167.0 L 168.0 167.0 L 168.0 168.0 " stroke="black" fill="none" stroke-width="5.0" stroke-linecap="round" stroke-linejoin="round" />
<path d="M 125.0 199.0 L 125.0 199.0 L 126.0 200.0 L 132.0 201.0 L 143.0 201.0 L 159.0 200.0 L 174.0 199.0 L 184.0 200.0 L 185.0 200.0 " stroke="black" fill="none" stroke-width="5.0" stroke-linecap="round" stroke-linejoin="round" />
</svg>