<svg xmlns="http://www.w3.org/2000/svg" width="300" height="300" viewBox="0 0 300 300">
<path d="M 128.0 119.0 L 128.0 119.0 L 128.0 119.0 L 128.0 119.0 L 128.0 119.0 L 133.0 119.0 L 144.0 119.0 L 158.0 118.0 L 170.0 116.0 L 174.0 116.0 L 171.0 116.0 " stroke="black" fill="none" stroke-width="5.0" stroke-linecap="round" stroke-linejoin="round" />
<path d="M 152.0 106.0 L 152.0 106.0 L 152.0 106.0 L 152.0 106.0 L 152.0 111.0 L 150.0 122.0 L 148.0 130.0 " stroke="black" fill="none" stroke-width="5.0" stroke-linecap="round" stroke-linejoin="round" />
<path d="M 130.0 141.0 L 129.0 142.0 L 128.0 144.0 L 128.0 151.0 L 129.0 158.0 L 132.0 162.0 L 133.0 163.0 " stroke="black" fill="none" stroke-width="5.0" stroke-linecap="round" stroke-linejoin="round" />
<path d="M 133.0 141.0 L 133.0 141.0 L 133.0 141.0 L 132.0 141.0 L 134.0 140.0 L 141.0 140.0 L 151.0 139.0 L 161.0 139.0 L 169.0 139.0 L 173.0 140.0 L 175.0 144.0 L 175.0 150.0 L 175.0 156.0 L 175.0 160.0 L 175.0 161.0 " stroke="black" fill="none" stroke-width="5.0" stroke-linecap="round" stroke-linejoin="round" />
<path d="M 134.0 160.0 L 134.0 160.0 L 134.0 161.0 L 138.0 162.0 L 148.0 162.0 L 161.0 162.0 L 170.0 161.0 L 173.0 161.0 " stroke="black" fill="none" stroke-width="5.0" stroke-linecap="round" stroke-linejoin="round" />
<path d="M 143.0 167.0 L 143.0 167.0 L 143.0 167.0 L 143.0 168.0 L 143.0 171.0 L 140.0 178.0 L 136.0 189.0 L 132.0 198.0 L 130.0 201.0 " stroke="black" fill="none" stroke-width="5.0" stroke-linecap="round" stroke-linejoin="round" />
<path d="M 157.0 163.0 L 157.0 163.0 L 157.0 163.0 L 157.0 164.0 L 157.0 167.0 L 158.0 174.0 L 159.0 185.0 L 162.0 195.0 L 166.0 201.0 L 173.0 202.0 L 182.0 202.0 L 190.0 201.0 L 195.0 199.0 L 200.0 197.0 L 203.0 193.0 L 205.0 190.0 L 206.0 185.0 L 206.0 176.0 L 204.0 169.0 " stroke="black" fill="none" stroke-width="5.0" stroke-linecap="round" stroke-linejoin="round" />
</svg>