<svg xmlns="http://www.w3.org/2000/svg" width="300" height="300" viewBox="0 0 300 300">
<path d="M 121.0 118.0 L 121.0 118.0 L 122.0 119.0 L 122.0 119.0 L 125.0 119.0 L 130.0 119.0 L 136.0 119.0 L 140.0 119.0 L 141.0 119.0 " stroke="black" fill="none" stroke-width="5.0" stroke-linecap="round" stroke-linejoin="round" />
<path d="M 118.0 120.0 L 118.0 120.0 L 118.0 120.0 L 117.0 120.0 L 117.0 122.0 L 117.0 127.0 L 117.0 139.0 L 117.0 153.0 L 117.0 163.0 L 117.0 165.0 L 118.0 165.0 " stroke="black" fill="none" stroke-width="5.0" stroke-linecap="round" stroke-linejoin="round" />
<path d="M 119.0 136.0 L 119.0 136.0 L 119.0 136.0 L 119.0 136.0 L 120.0 136.0 L 125.0 136.0 L 133.0 136.0 L 139.0 136.0 L 143.0 136.0 L 143.0 136.0 " stroke="black" fill="none" stroke-width="5.0" stroke-linecap="round" stroke-linejoin="round" />
<path d="M 120.0 150.0 L 121.0 150.0 L 122.0 150.0 L 124.0 151.0 L 128.0 151.0 L 134.0 151.0 L 138.0 151.0 " stroke="black" fill="none" stroke-width="5.0" stroke-linecap="round" stroke-linejoin="round" />
<path d="M 131.0 122.0 L 131.0 122.0 L 131.0 122.0 L 131.0 123.0 L 131.0 126.0 L 132.0 136.0 L 134.0 148.0 L 135.0 157.0 L 136.0 162.0 " stroke="black" fill="none" stroke-width="5.0" stroke-linecap="round" stroke-linejoin="round" />
<path d="M 119.0 164.0 L 119.0 164.0 L 120.0 164.0 L 120.0 165.0 L 122.0 165.0 L 127.0 165.0 L 134.0 164.0 L 141.0 163.0 L 145.0 163.0 L 147.0 164.0 L 148.0 165.0 L 148.0 169.0 L 149.0 175.0 L 150.0 182.0 L 151.0 188.0 L 151.0 192.0 L 151.0 194.0 L 149.0 194.0 L 145.0 193.0 L 140.0 191.0 " stroke="black" fill="none" stroke-width="5.0" stroke-linecap="round" stroke-linejoin="round" />
<path d="M 111.0 176.0 L 111.0 176.0 L 111.0 176.0 L 111.0 177.0 L 111.0 180.0 L 111.0 183.0 " stroke="black" fill="none" stroke-width="5.0" stroke-linecap="round" stroke-linejoin="round" />
<path d="M 120.0 175.0 L 120.0 175.0 L 120.0 176.0 L 120.0 178.0 L 121.0 180.0 L 122.0 181.0 " stroke="black" fill="none" stroke-width="5.0" stroke-linecap="round" stroke-linejoin="round" />
<path d="M 129.0 172.0 L 129.0 172.0 L 129.0 172.0 L 129.0 173.0 L 130.0 175.0 L 130.0 178.0 " stroke="black" fill="none" stroke-width="5.0" stroke-linecap="round" stroke-linejoin="round" />
<path d="M 137.0 175.0 L 137.0 175.0 L 137.0 176.0 L 137.0 177.0 L 137.0 179.0 L 137.0 180.0 " stroke="black" fill="none" stroke-width="5.0" stroke-linecap="round" stroke-linejoin="round" />
<path d="M 160.0 112.0 L 161.0 112.0 L 161.0 114.0 L 163.0 118.0 L 165.0 122.0 L 166.0 123.0 " stroke="black" fill="none" stroke-width="5.0" stroke-linecap="round" stroke-linejoin="round" />
<path d="M 152.0 126.0 L 152.0 126.0 L 152.0 126.0 L 152.0 126.0 L 154.0 126.0 L 159.0 126.0 L 167.0 126.0 L 174.0 126.0 L 178.0 126.0 L 179.0 126.0 " stroke="black" fill="none" stroke-width="5.0" stroke-linecap="round" stroke-linejoin="round" />
<path d="M 161.0 133.0 L 162.0 133.0 L 162.0 133.0 L 162.0 133.0 L 162.0 133.0 L 162.0 133.0 L 162.0 134.0 L 160.0 137.0 L 156.0 142.0 L 153.0 147.0 L 152.0 150.0 L 152.0 153.0 L 154.0 154.0 L 160.0 155.0 L 162.0 154.0 " stroke="black" fill="none" stroke-width="5.0" stroke-linecap="round" stroke-linejoin="round" />
<path d="M 180.0 140.0 L 180.0 140.0 L 180.0 140.0 L 180.0 140.0 L 179.0 141.0 L 178.0 144.0 L 173.0 152.0 L 167.0 162.0 L 160.0 172.0 L 155.0 178.0 L 154.0 179.0 " stroke="black" fill="none" stroke-width="5.0" stroke-linecap="round" stroke-linejoin="round" />
<path d="M 184.0 156.0 L 184.0 156.0 L 184.0 156.0 L 184.0 157.0 L 184.0 158.0 L 182.0 162.0 L 177.0 170.0 L 170.0 180.0 L 163.0 187.0 L 162.0 189.0 " stroke="black" fill="none" stroke-width="5.0" stroke-linecap="round" stroke-linejoin="round" />
<path d="M 175.0 174.0 L 175.0 174.0 L 175.0 174.0 L 176.0 175.0 L 181.0 179.0 L 189.0 186.0 L 196.0 194.0 L 199.0 198.0 " stroke="black" fill="none" stroke-width="5.0" stroke-linecap="round" stroke-linejoin="round" />
</svg>