<svg xmlns="http://www.w3.org/2000/svg" width="300" height="300" viewBox="0 0 300 300">
<path d="M 133.0 100.0 L 133.0 100.0 L 133.0 100.0 L 133.0 100.0 L 133.0 101.0 L 133.0 106.0 L 133.0 109.0 L 133.0 117.0 L 133.0 121.0 L 133.0 121.0 " stroke="black" fill="none" stroke-width="5.0" stroke-linecap="round" stroke-linejoin="round" />
<path d="M 134.0 109.0 L 134.0 109.0 L 134.0 110.0 L 134.0 111.0 L 135.0 111.0 L 137.0 112.0 L 140.0 112.0 L 142.0 112.0 L 144.0 112.0 " stroke="black" fill="none" stroke-width="5.0" stroke-linecap="round" stroke-linejoin="round" />
<path d="M 122.0 113.0 L 122.0 113.0 L 123.0 113.0 L 123.0 113.0 L 123.0 113.0 L 123.0 116.0 L 120.0 121.0 L 115.0 129.0 L 110.0 137.0 L 109.0 138.0 " stroke="black" fill="none" stroke-width="5.0" stroke-linecap="round" stroke-linejoin="round" />
<path d="M 122.0 121.0 L 122.0 121.0 L 123.0 122.0 L 125.0 122.0 L 127.0 122.0 L 132.0 122.0 L 137.0 122.0 L 140.0 122.0 L 142.0 124.0 L 143.0 126.0 L 141.0 131.0 L 137.0 137.0 L 130.0 145.0 L 123.0 151.0 L 117.0 154.0 L 116.0 154.0 " stroke="black" fill="none" stroke-width="5.0" stroke-linecap="round" stroke-linejoin="round" />
<path d="M 120.0 131.0 L 120.0 131.0 L 121.0 132.0 L 123.0 133.0 L 128.0 134.0 L 131.0 134.0 " stroke="black" fill="none" stroke-width="5.0" stroke-linecap="round" stroke-linejoin="round" />
<path d="M 158.0 112.0 L 158.0 112.0 L 158.0 112.0 L 158.0 112.0 L 158.0 112.0 L 160.0 112.0 L 164.0 112.0 L 168.0 112.0 L 171.0 113.0 L 173.0 115.0 L 174.0 117.0 L 173.0 120.0 L 169.0 124.0 L 166.0 128.0 L 165.0 129.0 " stroke="black" fill="none" stroke-width="5.0" stroke-linecap="round" stroke-linejoin="round" />
<path d="M 153.0 123.0 L 153.0 123.0 L 152.0 123.0 L 152.0 123.0 L 152.0 123.0 L 156.0 125.0 L 164.0 129.0 L 174.0 133.0 L 182.0 136.0 L 186.0 138.0 L 187.0 138.0 L 186.0 138.0 " stroke="black" fill="none" stroke-width="5.0" stroke-linecap="round" stroke-linejoin="round" />
<path d="M 151.0 135.0 L 151.0 135.0 L 151.0 135.0 L 151.0 135.0 L 151.0 136.0 L 150.0 138.0 L 148.0 140.0 L 144.0 146.0 L 136.0 155.0 L 125.0 164.0 L 117.0 170.0 L 114.0 171.0 L 114.0 171.0 " stroke="black" fill="none" stroke-width="5.0" stroke-linecap="round" stroke-linejoin="round" />
<path d="M 152.0 140.0 L 152.0 140.0 L 152.0 140.0 L 153.0 140.0 L 156.0 141.0 L 161.0 145.0 L 169.0 150.0 L 177.0 155.0 L 180.0 157.0 L 182.0 159.0 L 182.0 159.0 " stroke="black" fill="none" stroke-width="5.0" stroke-linecap="round" stroke-linejoin="round" />
<path d="M 141.0 154.0 L 141.0 154.0 L 141.0 154.0 L 141.0 154.0 L 144.0 154.0 L 150.0 154.0 L 155.0 154.0 L 159.0 154.0 L 160.0 154.0 " stroke="black" fill="none" stroke-width="5.0" stroke-linecap="round" stroke-linejoin="round" />
<path d="M 138.0 165.0 L 138.0 165.0 L 138.0 165.0 L 138.0 166.0 L 140.0 166.0 L 144.0 166.0 L 150.0 165.0 L 156.0 164.0 L 160.0 164.0 L 163.0 164.0 L 164.0 164.0 L 165.0 167.0 L 166.0 171.0 L 167.0 176.0 L 167.0 180.0 L 168.0 182.0 L 168.0 182.0 " stroke="black" fill="none" stroke-width="5.0" stroke-linecap="round" stroke-linejoin="round" />
<path d="M 140.0 175.0 L 140.0 175.0 L 140.0 175.0 L 141.0 175.0 L 145.0 175.0 L 151.0 175.0 L 158.0 175.0 L 162.0 175.0 L 163.0 176.0 " stroke="black" fill="none" stroke-width="5.0" stroke-linecap="round" stroke-linejoin="round" />
<path d="M 137.0 186.0 L 138.0 186.0 L 139.0 185.0 L 142.0 185.0 L 147.0 185.0 L 154.0 185.0 L 161.0 185.0 L 164.0 185.0 " stroke="black" fill="none" stroke-width="5.0" stroke-linecap="round" stroke-linejoin="round" />
<path d="M 143.0 166.0 L 143.0 166.0 L 143.0 166.0 L 143.0 166.0 L 143.0 167.0 L 143.0 168.0 L 142.0 174.0 L 139.0 185.0 L 137.0 198.0 L 136.0 207.0 L 138.0 212.0 L 144.0 212.0 L 151.0 208.0 L 153.0 206.0 " stroke="black" fill="none" stroke-width="5.0" stroke-linecap="round" stroke-linejoin="round" />
<path d="M 147.0 189.0 L 148.0 190.0 L 150.0 193.0 L 154.0 198.0 L 161.0 204.0 L 168.0 209.0 L 173.0 212.0 L 174.0 213.0 L 174.0 213.0 " stroke="black" fill="none" stroke-width="5.0" stroke-linecap="round" stroke-linejoin="round" />
<path d="M 164.0 203.0 L 164.0 203.0 L 164.0 203.0 L 165.0 203.0 L 168.0 202.0 L 174.0 198.0 L 180.0 194.0 " stroke="black" fill="none" stroke-width="5.0" stroke-linecap="round" stroke-linejoin="round" />
</svg>