<svg xmlns="http://www.w3.org/2000/svg" width="300" height="300" viewBox="0 0 300 300">
<path d="M 138.0 113.0 L 138.0 113.0 L 138.0 113.0 L 138.0 113.0 L 138.0 114.0 L 137.0 122.0 L 135.0 138.0 L 131.0 156.0 L 126.0 168.0 L 123.0 174.0 L 122.0 177.0 L 122.0 178.0 L 125.0 179.0 L 130.0 182.0 L 137.0 184.0 L 147.0 187.0 L 157.0 191.0 L 166.0 194.0 L 172.0 196.0 L 173.0 197.0 " stroke="black" fill="none" stroke-width="5.0" stroke-linecap="round" stroke-linejoin="round" />
<path d="M 161.0 127.0 L 161.0 128.0 L 161.0 129.0 L 161.0 132.0 L 160.0 141.0 L 157.0 156.0 L 153.0 174.0 L 147.0 191.0 L 145.0 197.0 " stroke="black" fill="none" stroke-width="5.0" stroke-linecap="round" stroke-linejoin="round" />
<path d="M 112.0 155.0 L 112.0 155.0 L 112.0 155.0 L 117.0 155.0 L 134.0 153.0 L 156.0 150.0 L 173.0 149.0 L 180.0 149.0 " stroke="black" fill="none" stroke-width="5.0" stroke-linecap="round" stroke-linejoin="round" />
</svg>