<svg xmlns="http://www.w3.org/2000/svg" width="300" height="300" viewBox="0 0 300 300">
<path d="M 141.0 114.0 L 141.0 114.0 L 140.0 114.0 L 140.0 114.0 L 139.0 114.0 L 139.0 116.0 L 138.0 124.0 L 135.0 144.0 L 132.0 167.0 L 131.0 177.0 L 131.0 178.0 L 137.0 179.0 L 146.0 183.0 L 157.0 187.0 L 167.0 192.0 L 170.0 194.0 " stroke="black" fill="none" stroke-width="5.0" stroke-linecap="round" stroke-linejoin="round" />
<path d="M 157.0 133.0 L 158.0 133.0 L 158.0 135.0 L 158.0 141.0 L 158.0 154.0 L 156.0 175.0 L 152.0 195.0 L 152.0 198.0 " stroke="black" fill="none" stroke-width="5.0" stroke-linecap="round" stroke-linejoin="round" />
<path d="M 108.0 157.0 L 108.0 157.0 L 109.0 157.0 L 112.0 157.0 L 126.0 156.0 L 154.0 157.0 L 179.0 158.0 L 193.0 157.0 " stroke="black" fill="none" stroke-width="5.0" stroke-linecap="round" stroke-linejoin="round" />
</svg>