<svg xmlns="http://www.w3.org/2000/svg" width="300" height="300" viewBox="0 0 300 300">
<path d="M 139.0 112.0 L 139.0 112.0 L 139.0 112.0 L 139.0 112.0 L 139.0 113.0 L 139.0 119.0 L 137.0 131.0 L 134.0 146.0 L 130.0 158.0 L 126.0 165.0 L 124.0 169.0 L 125.0 170.0 L 129.0 172.0 L 135.0 173.0 L 141.0 174.0 L 149.0 177.0 L 158.0 180.0 L 165.0 182.0 L 169.0 182.0 L 169.0 182.0 " stroke="black" fill="none" stroke-width="5.0" stroke-linecap="round" stroke-linejoin="round" />
<path d="M 162.0 126.0 L 162.0 126.0 L 162.0 127.0 L 162.0 128.0 L 163.0 129.0 L 163.0 133.0 L 161.0 144.0 L 156.0 160.0 L 150.0 176.0 L 145.0 185.0 L 144.0 186.0 " stroke="black" fill="none" stroke-width="5.0" stroke-linecap="round" stroke-linejoin="round" />
<path d="M 112.0 148.0 L 113.0 148.0 L 113.0 148.0 L 116.0 148.0 L 125.0 148.0 L 143.0 148.0 L 163.0 148.0 L 175.0 148.0 L 182.0 148.0 L 183.0 148.0 L 183.0 148.0 " stroke="black" fill="none" stroke-width="5.0" stroke-linecap="round" stroke-linejoin="round" />
</svg>