<svg xmlns="http://www.w3.org/2000/svg" width="300" height="300" viewBox="0 0 300 300">
<path d="M 126.0 118.0 L 129.0 118.0 L 132.0 118.0 L 135.0 118.0 L 140.0 118.0 L 145.0 118.0 L 146.0 119.0 " stroke="black" fill="none" stroke-width="5.0" stroke-linecap="round" stroke-linejoin="round" />
<path d="M 111.0 135.0 L 112.0 135.0 L 113.0 136.0 L 116.0 136.0 L 133.0 137.0 L 146.0 137.0 L 167.0 137.0 L 178.0 137.0 L 186.0 136.0 L 190.0 137.0 L 190.0 138.0 " stroke="black" fill="none" stroke-width="5.0" stroke-linecap="round" stroke-linejoin="round" />
<path d="M 136.0 107.0 L 136.0 107.0 L 136.0 107.0 L 136.0 111.0 L 136.0 119.0 L 137.0 128.0 L 138.0 134.0 " stroke="black" fill="none" stroke-width="5.0" stroke-linecap="round" stroke-linejoin="round" />
<path d="M 155.0 106.0 L 155.0 106.0 L 155.0 106.0 L 155.0 108.0 L 156.0 118.0 L 163.0 135.0 L 172.0 155.0 L 181.0 174.0 L 186.0 181.0 L 188.0 184.0 L 189.0 184.0 " stroke="black" fill="none" stroke-width="5.0" stroke-linecap="round" stroke-linejoin="round" />
<path d="M 188.0 153.0 L 187.0 153.0 L 185.0 154.0 L 180.0 157.0 L 172.0 165.0 L 163.0 172.0 L 157.0 177.0 " stroke="black" fill="none" stroke-width="5.0" stroke-linecap="round" stroke-linejoin="round" />
<path d="M 173.0 114.0 L 173.0 116.0 L 173.0 118.0 L 175.0 122.0 L 177.0 125.0 " stroke="black" fill="none" stroke-width="5.0" stroke-linecap="round" stroke-linejoin="round" />
<path d="M 119.0 150.0 L 119.0 150.0 L 119.0 150.0 L 120.0 150.0 L 122.0 150.0 L 125.0 150.0 L 131.0 150.0 L 137.0 150.0 L 140.0 150.0 " stroke="black" fill="none" stroke-width="5.0" stroke-linecap="round" stroke-linejoin="round" />
<path d="M 115.0 161.0 L 115.0 161.0 L 116.0 161.0 L 116.0 162.0 L 116.0 164.0 L 117.0 166.0 L 117.0 170.0 L 118.0 172.0 L 118.0 172.0 " stroke="black" fill="none" stroke-width="5.0" stroke-linecap="round" stroke-linejoin="round" />
<path d="M 117.0 159.0 L 120.0 159.0 L 122.0 159.0 L 125.0 159.0 L 129.0 159.0 L 135.0 159.0 L 139.0 159.0 L 143.0 159.0 L 145.0 162.0 L 146.0 166.0 L 147.0 170.0 L 147.0 172.0 " stroke="black" fill="none" stroke-width="5.0" stroke-linecap="round" stroke-linejoin="round" />
<path d="M 121.0 166.0 L 121.0 166.0 L 122.0 166.0 L 123.0 166.0 L 124.0 166.0 L 128.0 166.0 L 133.0 166.0 L 138.0 166.0 L 140.0 166.0 " stroke="black" fill="none" stroke-width="5.0" stroke-linecap="round" stroke-linejoin="round" />
<path d="M 117.0 175.0 L 117.0 175.0 L 117.0 175.0 L 119.0 175.0 L 127.0 175.0 L 136.0 175.0 L 140.0 174.0 " stroke="black" fill="none" stroke-width="5.0" stroke-linecap="round" stroke-linejoin="round" />
<path d="M 127.0 145.0 L 127.0 145.0 L 127.0 145.0 L 127.0 147.0 L 128.0 153.0 L 131.0 166.0 L 133.0 181.0 L 133.0 189.0 L 133.0 192.0 L 133.0 193.0 " stroke="black" fill="none" stroke-width="5.0" stroke-linecap="round" stroke-linejoin="round" />
<path d="M 114.0 184.0 L 114.0 184.0 L 115.0 184.0 L 119.0 184.0 L 128.0 183.0 L 140.0 183.0 L 149.0 183.0 L 152.0 183.0 L 153.0 183.0 " stroke="black" fill="none" stroke-width="5.0" stroke-linecap="round" stroke-linejoin="round" />
</svg>