<svg xmlns="http://www.w3.org/2000/svg" width="300" height="300" viewBox="0 0 300 300">
<path d="M 107.0 132.0 L 107.0 131.0 L 107.0 131.0 L 107.0 131.0 L 108.0 130.0 L 108.0 130.0 L 108.0 134.0 L 108.0 143.0 L 108.0 157.0 L 108.0 168.0 L 108.0 172.0 " stroke="black" fill="none" stroke-width="5.0" stroke-linecap="round" stroke-linejoin="round" />
<path d="M 107.0 129.0 L 108.0 129.0 L 108.0 129.0 L 109.0 129.0 L 110.0 129.0 L 111.0 129.0 L 113.0 129.0 L 116.0 129.0 L 119.0 131.0 L 121.0 135.0 L 124.0 142.0 L 126.0 153.0 L 128.0 164.0 L 130.0 172.0 L 130.0 176.0 " stroke="black" fill="none" stroke-width="5.0" stroke-linecap="round" stroke-linejoin="round" />
<path d="M 110.0 153.0 L 110.0 153.0 L 111.0 153.0 L 112.0 153.0 L 113.0 153.0 L 116.0 153.0 L 120.0 153.0 " stroke="black" fill="none" stroke-width="5.0" stroke-linecap="round" stroke-linejoin="round" />
<path d="M 109.0 177.0 L 109.0 177.0 L 111.0 177.0 L 115.0 178.0 L 120.0 178.0 L 128.0 179.0 " stroke="black" fill="none" stroke-width="5.0" stroke-linecap="round" stroke-linejoin="round" />
<path d="M 142.0 113.0 L 142.0 113.0 L 141.0 113.0 L 141.0 113.0 L 146.0 113.0 L 155.0 113.0 L 167.0 111.0 L 177.0 110.0 L 179.0 109.0 " stroke="black" fill="none" stroke-width="5.0" stroke-linecap="round" stroke-linejoin="round" />
<path d="M 150.0 130.0 L 150.0 130.0 L 150.0 130.0 L 150.0 130.0 L 152.0 130.0 L 156.0 130.0 L 165.0 129.0 L 173.0 128.0 L 176.0 128.0 " stroke="black" fill="none" stroke-width="5.0" stroke-linecap="round" stroke-linejoin="round" />
<path d="M 159.0 103.0 L 159.0 103.0 L 159.0 103.0 L 159.0 103.0 L 160.0 108.0 L 163.0 116.0 L 164.0 122.0 " stroke="black" fill="none" stroke-width="5.0" stroke-linecap="round" stroke-linejoin="round" />
<path d="M 143.0 148.0 L 143.0 148.0 L 143.0 148.0 L 143.0 148.0 L 148.0 148.0 L 159.0 146.0 L 176.0 146.0 L 188.0 146.0 L 194.0 147.0 L 195.0 147.0 " stroke="black" fill="none" stroke-width="5.0" stroke-linecap="round" stroke-linejoin="round" />
<path d="M 169.0 134.0 L 169.0 133.0 L 169.0 133.0 L 169.0 133.0 L 172.0 139.0 L 176.0 152.0 L 181.0 170.0 L 184.0 185.0 L 185.0 191.0 L 185.0 192.0 L 183.0 192.0 L 177.0 192.0 L 164.0 191.0 " stroke="black" fill="none" stroke-width="5.0" stroke-linecap="round" stroke-linejoin="round" />
<path d="M 151.0 164.0 L 152.0 164.0 L 153.0 165.0 L 155.0 167.0 L 160.0 171.0 L 167.0 175.0 L 169.0 176.0 " stroke="black" fill="none" stroke-width="5.0" stroke-linecap="round" stroke-linejoin="round" />
</svg>