<svg xmlns="http://www.w3.org/2000/svg" width="300" height="300" viewBox="0 0 300 300">
<path d="M 119.0 129.0 L 119.0 129.0 L 119.0 129.0 L 119.0 129.0 L 119.0 129.0 L 119.0 132.0 L 119.0 139.0 L 118.0 153.0 L 117.0 167.0 L 116.0 176.0 L 116.0 178.0 L 117.0 177.0 L 118.0 173.0 " stroke="black" fill="none" stroke-width="5.0" stroke-linecap="round" stroke-linejoin="round" />
<path d="M 119.0 130.0 L 119.0 130.0 L 120.0 131.0 L 121.0 131.0 L 122.0 131.0 L 124.0 131.0 L 127.0 131.0 L 130.0 131.0 L 132.0 131.0 L 133.0 131.0 L 134.0 135.0 L 135.0 144.0 L 136.0 157.0 L 137.0 170.0 L 137.0 178.0 L 137.0 180.0 L 137.0 181.0 L 137.0 179.0 " stroke="black" fill="none" stroke-width="5.0" stroke-linecap="round" stroke-linejoin="round" />
<path d="M 122.0 153.0 L 123.0 153.0 L 124.0 153.0 L 124.0 153.0 L 126.0 153.0 L 129.0 154.0 L 134.0 154.0 L 138.0 155.0 " stroke="black" fill="none" stroke-width="5.0" stroke-linecap="round" stroke-linejoin="round" />
<path d="M 119.0 180.0 L 119.0 180.0 L 119.0 181.0 L 119.0 181.0 L 121.0 182.0 L 127.0 182.0 L 136.0 182.0 " stroke="black" fill="none" stroke-width="5.0" stroke-linecap="round" stroke-linejoin="round" />
<path d="M 150.0 126.0 L 150.0 127.0 L 150.0 127.0 L 150.0 128.0 L 152.0 128.0 L 157.0 128.0 L 164.0 127.0 L 171.0 126.0 L 175.0 126.0 L 176.0 126.0 " stroke="black" fill="none" stroke-width="5.0" stroke-linecap="round" stroke-linejoin="round" />
<path d="M 149.0 147.0 L 149.0 147.0 L 149.0 147.0 L 149.0 147.0 L 152.0 147.0 L 161.0 147.0 L 174.0 146.0 L 178.0 146.0 " stroke="black" fill="none" stroke-width="5.0" stroke-linecap="round" stroke-linejoin="round" />
<path d="M 159.0 115.0 L 159.0 115.0 L 160.0 115.0 L 160.0 117.0 L 161.0 123.0 L 162.0 134.0 L 163.0 144.0 L 163.0 147.0 " stroke="black" fill="none" stroke-width="5.0" stroke-linecap="round" stroke-linejoin="round" />
<path d="M 143.0 164.0 L 143.0 165.0 L 143.0 165.0 L 143.0 165.0 L 146.0 165.0 L 155.0 165.0 L 170.0 165.0 L 185.0 163.0 L 191.0 162.0 L 192.0 162.0 " stroke="black" fill="none" stroke-width="5.0" stroke-linecap="round" stroke-linejoin="round" />
<path d="M 168.0 148.0 L 168.0 148.0 L 168.0 148.0 L 169.0 152.0 L 172.0 162.0 L 177.0 178.0 L 179.0 189.0 L 180.0 196.0 L 180.0 199.0 L 180.0 200.0 L 180.0 200.0 L 176.0 200.0 L 169.0 200.0 L 164.0 200.0 " stroke="black" fill="none" stroke-width="5.0" stroke-linecap="round" stroke-linejoin="round" />
<path d="M 149.0 181.0 L 149.0 181.0 L 149.0 181.0 L 151.0 181.0 L 158.0 182.0 L 169.0 183.0 L 172.0 183.0 " stroke="black" fill="none" stroke-width="5.0" stroke-linecap="round" stroke-linejoin="round" />
</svg>