<svg xmlns="http://www.w3.org/2000/svg" width="300" height="300" viewBox="0 0 300 300">
<path d="M 112.0 122.0 L 112.0 122.0 L 112.0 122.0 L 112.0 122.0 L 111.0 123.0 L 111.0 125.0 L 111.0 132.0 L 111.0 145.0 L 111.0 161.0 L 111.0 174.0 L 111.0 180.0 L 111.0 181.0 L 111.0 179.0 " stroke="black" fill="none" stroke-width="5.0" stroke-linecap="round" stroke-linejoin="round" />
<path d="M 114.0 125.0 L 114.0 125.0 L 114.0 126.0 L 114.0 126.0 L 114.0 127.0 L 117.0 127.0 L 122.0 127.0 L 126.0 127.0 L 129.0 128.0 L 131.0 132.0 L 133.0 140.0 L 135.0 153.0 L 137.0 166.0 L 138.0 177.0 L 139.0 183.0 L 140.0 183.0 L 138.0 182.0 " stroke="black" fill="none" stroke-width="5.0" stroke-linecap="round" stroke-linejoin="round" />
<path d="M 115.0 152.0 L 115.0 152.0 L 116.0 152.0 L 119.0 152.0 L 124.0 153.0 L 131.0 155.0 L 136.0 156.0 L 138.0 156.0 " stroke="black" fill="none" stroke-width="5.0" stroke-linecap="round" stroke-linejoin="round" />
<path d="M 113.0 181.0 L 115.0 181.0 L 116.0 181.0 L 121.0 182.0 L 129.0 182.0 L 134.0 182.0 " stroke="black" fill="none" stroke-width="5.0" stroke-linecap="round" stroke-linejoin="round" />
<path d="M 144.0 124.0 L 144.0 124.0 L 144.0 124.0 L 145.0 125.0 L 150.0 126.0 L 158.0 126.0 L 167.0 126.0 L 174.0 125.0 L 176.0 124.0 " stroke="black" fill="none" stroke-width="5.0" stroke-linecap="round" stroke-linejoin="round" />
<path d="M 147.0 146.0 L 148.0 146.0 L 150.0 147.0 L 156.0 147.0 L 165.0 146.0 L 175.0 145.0 L 178.0 145.0 " stroke="black" fill="none" stroke-width="5.0" stroke-linecap="round" stroke-linejoin="round" />
<path d="M 157.0 113.0 L 157.0 113.0 L 156.0 113.0 L 156.0 117.0 L 159.0 126.0 L 162.0 138.0 L 164.0 146.0 " stroke="black" fill="none" stroke-width="5.0" stroke-linecap="round" stroke-linejoin="round" />
<path d="M 144.0 162.0 L 144.0 162.0 L 144.0 163.0 L 143.0 163.0 L 147.0 164.0 L 157.0 164.0 L 170.0 162.0 L 181.0 161.0 L 186.0 161.0 L 187.0 161.0 " stroke="black" fill="none" stroke-width="5.0" stroke-linecap="round" stroke-linejoin="round" />
<path d="M 167.0 149.0 L 167.0 149.0 L 167.0 149.0 L 168.0 152.0 L 171.0 162.0 L 177.0 177.0 L 181.0 191.0 L 184.0 199.0 L 184.0 204.0 L 183.0 206.0 L 180.0 206.0 L 174.0 205.0 L 164.0 202.0 L 161.0 201.0 " stroke="black" fill="none" stroke-width="5.0" stroke-linecap="round" stroke-linejoin="round" />
<path d="M 151.0 182.0 L 151.0 182.0 L 151.0 183.0 L 153.0 184.0 L 159.0 186.0 L 169.0 188.0 L 170.0 188.0 " stroke="black" fill="none" stroke-width="5.0" stroke-linecap="round" stroke-linejoin="round" />
</svg>