<svg xmlns="http://www.w3.org/2000/svg" width="300" height="300" viewBox="0 0 300 300">
<path d="M 132.0 102.0 L 132.0 102.0 L 133.0 102.0 L 133.0 102.0 L 133.0 102.0 L 133.0 106.0 L 132.0 112.0 L 127.0 121.0 L 121.0 131.0 L 114.0 141.0 L 112.0 143.0 " stroke="black" fill="none" stroke-width="5.0" stroke-linecap="round" stroke-linejoin="round" />
<path d="M 130.0 119.0 L 130.0 119.0 L 130.0 119.0 L 130.0 119.0 L 136.0 119.0 L 145.0 118.0 L 155.0 117.0 L 163.0 116.0 L 167.0 116.0 L 168.0 116.0 " stroke="black" fill="none" stroke-width="5.0" stroke-linecap="round" stroke-linejoin="round" />
<path d="M 134.0 133.0 L 134.0 133.0 L 133.0 133.0 L 133.0 133.0 L 133.0 139.0 L 133.0 148.0 L 133.0 157.0 L 133.0 163.0 L 133.0 166.0 " stroke="black" fill="none" stroke-width="5.0" stroke-linecap="round" stroke-linejoin="round" />
<path d="M 147.0 133.0 L 147.0 133.0 L 147.0 133.0 L 147.0 134.0 L 147.0 138.0 L 147.0 147.0 L 147.0 157.0 L 148.0 164.0 L 148.0 167.0 L 149.0 167.0 " stroke="black" fill="none" stroke-width="5.0" stroke-linecap="round" stroke-linejoin="round" />
<path d="M 159.0 136.0 L 160.0 136.0 L 160.0 135.0 L 161.0 135.0 L 161.0 139.0 L 162.0 149.0 L 162.0 158.0 L 162.0 165.0 L 162.0 168.0 L 162.0 168.0 " stroke="black" fill="none" stroke-width="5.0" stroke-linecap="round" stroke-linejoin="round" />
<path d="M 171.0 135.0 L 171.0 136.0 L 172.0 138.0 L 172.0 142.0 L 173.0 150.0 L 173.0 158.0 L 174.0 165.0 L 174.0 167.0 " stroke="black" fill="none" stroke-width="5.0" stroke-linecap="round" stroke-linejoin="round" />
<path d="M 119.0 150.0 L 119.0 150.0 L 119.0 150.0 L 119.0 150.0 L 125.0 150.0 L 139.0 149.0 L 154.0 149.0 L 167.0 149.0 L 174.0 149.0 L 177.0 149.0 L 178.0 150.0 " stroke="black" fill="none" stroke-width="5.0" stroke-linecap="round" stroke-linejoin="round" />
<path d="M 116.0 170.0 L 116.0 170.0 L 117.0 170.0 L 118.0 170.0 L 123.0 170.0 L 135.0 169.0 L 151.0 168.0 L 164.0 168.0 L 173.0 168.0 L 179.0 169.0 L 181.0 170.0 L 181.0 171.0 L 181.0 171.0 " stroke="black" fill="none" stroke-width="5.0" stroke-linecap="round" stroke-linejoin="round" />
<path d="M 127.0 179.0 L 127.0 179.0 L 127.0 179.0 L 127.0 179.0 L 127.0 182.0 L 127.0 188.0 L 127.0 192.0 " stroke="black" fill="none" stroke-width="5.0" stroke-linecap="round" stroke-linejoin="round" />
<path d="M 143.0 180.0 L 143.0 180.0 L 143.0 180.0 L 143.0 180.0 L 144.0 182.0 L 145.0 187.0 L 146.0 193.0 L 147.0 194.0 " stroke="black" fill="none" stroke-width="5.0" stroke-linecap="round" stroke-linejoin="round" />
<path d="M 154.0 183.0 L 154.0 183.0 L 154.0 183.0 L 154.0 183.0 L 154.0 184.0 L 156.0 187.0 L 156.0 192.0 " stroke="black" fill="none" stroke-width="5.0" stroke-linecap="round" stroke-linejoin="round" />
<path d="M 171.0 183.0 L 171.0 183.0 L 171.0 183.0 L 172.0 185.0 L 174.0 189.0 L 176.0 195.0 L 177.0 197.0 " stroke="black" fill="none" stroke-width="5.0" stroke-linecap="round" stroke-linejoin="round" />
</svg>