<svg xmlns="http://www.w3.org/2000/svg" width="300" height="300" viewBox="0 0 300 300">
<path d="M 133.0 103.0 L 133.0 103.0 L 133.0 102.0 L 133.0 100.0 L 133.0 99.0 L 134.0 98.0 L 134.0 98.0 L 134.0 98.0 L 134.0 98.0 L 134.0 99.0 L 134.0 103.0 L 129.0 112.0 L 120.0 126.0 L 114.0 134.0 " stroke="black" fill="none" stroke-width="5.0" stroke-linecap="round" stroke-linejoin="round" />
<path d="M 133.0 116.0 L 133.0 116.0 L 134.0 116.0 L 135.0 116.0 L 139.0 116.0 L 146.0 116.0 L 156.0 115.0 L 167.0 115.0 L 177.0 114.0 L 184.0 114.0 L 186.0 114.0 " stroke="black" fill="none" stroke-width="5.0" stroke-linecap="round" stroke-linejoin="round" />
<path d="M 134.0 133.0 L 134.0 133.0 L 133.0 132.0 L 133.0 132.0 L 133.0 134.0 L 133.0 144.0 L 134.0 158.0 L 134.0 170.0 L 135.0 174.0 " stroke="black" fill="none" stroke-width="5.0" stroke-linecap="round" stroke-linejoin="round" />
<path d="M 151.0 133.0 L 151.0 133.0 L 151.0 133.0 L 151.0 134.0 L 151.0 136.0 L 151.0 144.0 L 152.0 158.0 L 153.0 171.0 L 153.0 175.0 " stroke="black" fill="none" stroke-width="5.0" stroke-linecap="round" stroke-linejoin="round" />
<path d="M 166.0 137.0 L 166.0 137.0 L 166.0 137.0 L 166.0 138.0 L 167.0 143.0 L 168.0 153.0 L 169.0 164.0 L 169.0 172.0 L 170.0 174.0 " stroke="black" fill="none" stroke-width="5.0" stroke-linecap="round" stroke-linejoin="round" />
<path d="M 182.0 138.0 L 181.0 139.0 L 181.0 140.0 L 181.0 143.0 L 182.0 150.0 L 184.0 163.0 L 184.0 176.0 L 185.0 182.0 " stroke="black" fill="none" stroke-width="5.0" stroke-linecap="round" stroke-linejoin="round" />
<path d="M 117.0 157.0 L 119.0 157.0 L 122.0 157.0 L 129.0 156.0 L 142.0 156.0 L 163.0 156.0 L 182.0 159.0 L 193.0 162.0 L 194.0 164.0 " stroke="black" fill="none" stroke-width="5.0" stroke-linecap="round" stroke-linejoin="round" />
<path d="M 114.0 179.0 L 114.0 179.0 L 117.0 180.0 L 124.0 180.0 L 140.0 180.0 L 161.0 180.0 L 179.0 183.0 L 190.0 187.0 L 195.0 189.0 L 196.0 190.0 " stroke="black" fill="none" stroke-width="5.0" stroke-linecap="round" stroke-linejoin="round" />
<path d="M 129.0 190.0 L 129.0 190.0 L 129.0 191.0 L 129.0 191.0 L 129.0 192.0 L 129.0 195.0 L 129.0 197.0 " stroke="black" fill="none" stroke-width="5.0" stroke-linecap="round" stroke-linejoin="round" />
<path d="M 147.0 194.0 L 147.0 194.0 L 147.0 194.0 L 148.0 196.0 L 149.0 200.0 L 150.0 203.0 " stroke="black" fill="none" stroke-width="5.0" stroke-linecap="round" stroke-linejoin="round" />
<path d="M 161.0 194.0 L 161.0 194.0 L 161.0 194.0 L 162.0 195.0 L 163.0 197.0 L 165.0 200.0 " stroke="black" fill="none" stroke-width="5.0" stroke-linecap="round" stroke-linejoin="round" />
<path d="M 180.0 197.0 L 180.0 197.0 L 180.0 199.0 L 182.0 201.0 L 183.0 203.0 " stroke="black" fill="none" stroke-width="5.0" stroke-linecap="round" stroke-linejoin="round" />
</svg>