<svg xmlns="http://www.w3.org/2000/svg" width="300" height="300" viewBox="0 0 300 300">
<path d="M 135.0 107.0 L 135.0 107.0 L 135.0 107.0 L 135.0 107.0 L 136.0 107.0 L 136.0 107.0 L 135.0 109.0 L 132.0 118.0 L 125.0 132.0 L 118.0 143.0 L 116.0 146.0 " stroke="black" fill="none" stroke-width="5.0" stroke-linecap="round" stroke-linejoin="round" />
<path d="M 137.0 119.0 L 137.0 119.0 L 137.0 120.0 L 138.0 120.0 L 144.0 120.0 L 155.0 119.0 L 168.0 116.0 L 176.0 115.0 L 179.0 115.0 L 179.0 115.0 " stroke="black" fill="none" stroke-width="5.0" stroke-linecap="round" stroke-linejoin="round" />
<path d="M 137.0 137.0 L 137.0 137.0 L 136.0 137.0 L 136.0 139.0 L 136.0 148.0 L 136.0 163.0 L 136.0 175.0 L 136.0 180.0 L 136.0 180.0 " stroke="black" fill="none" stroke-width="5.0" stroke-linecap="round" stroke-linejoin="round" />
<path d="M 152.0 137.0 L 152.0 138.0 L 151.0 138.0 L 151.0 140.0 L 151.0 146.0 L 152.0 156.0 L 153.0 167.0 L 154.0 173.0 L 154.0 174.0 " stroke="black" fill="none" stroke-width="5.0" stroke-linecap="round" stroke-linejoin="round" />
<path d="M 164.0 136.0 L 164.0 136.0 L 164.0 137.0 L 164.0 141.0 L 164.0 150.0 L 166.0 161.0 L 167.0 172.0 L 168.0 177.0 L 168.0 178.0 " stroke="black" fill="none" stroke-width="5.0" stroke-linecap="round" stroke-linejoin="round" />
<path d="M 178.0 135.0 L 178.0 135.0 L 179.0 137.0 L 180.0 144.0 L 182.0 155.0 L 183.0 166.0 L 183.0 173.0 L 183.0 176.0 " stroke="black" fill="none" stroke-width="5.0" stroke-linecap="round" stroke-linejoin="round" />
<path d="M 123.0 154.0 L 123.0 154.0 L 125.0 154.0 L 128.0 154.0 L 136.0 154.0 L 149.0 154.0 L 166.0 154.0 L 181.0 155.0 L 190.0 156.0 L 192.0 156.0 L 192.0 156.0 L 190.0 156.0 " stroke="black" fill="none" stroke-width="5.0" stroke-linecap="round" stroke-linejoin="round" />
<path d="M 115.0 185.0 L 117.0 185.0 L 122.0 185.0 L 129.0 185.0 L 143.0 185.0 L 159.0 185.0 L 176.0 185.0 L 186.0 185.0 L 190.0 185.0 L 190.0 185.0 " stroke="black" fill="none" stroke-width="5.0" stroke-linecap="round" stroke-linejoin="round" />
<path d="M 130.0 199.0 L 130.0 199.0 L 130.0 200.0 L 129.0 200.0 L 129.0 203.0 L 129.0 208.0 L 129.0 209.0 " stroke="black" fill="none" stroke-width="5.0" stroke-linecap="round" stroke-linejoin="round" />
<path d="M 150.0 195.0 L 150.0 195.0 L 150.0 195.0 L 150.0 196.0 L 150.0 199.0 L 151.0 203.0 L 151.0 206.0 " stroke="black" fill="none" stroke-width="5.0" stroke-linecap="round" stroke-linejoin="round" />
<path d="M 162.0 198.0 L 162.0 198.0 L 162.0 198.0 L 163.0 199.0 L 163.0 200.0 L 165.0 205.0 L 167.0 211.0 " stroke="black" fill="none" stroke-width="5.0" stroke-linecap="round" stroke-linejoin="round" />
<path d="M 190.0 201.0 L 191.0 201.0 L 191.0 203.0 L 193.0 206.0 L 195.0 211.0 L 196.0 215.0 " stroke="black" fill="none" stroke-width="5.0" stroke-linecap="round" stroke-linejoin="round" />
</svg>