<svg xmlns="http://www.w3.org/2000/svg" width="300" height="300" viewBox="0 0 300 300">
<path d="M 137.0 105.0 L 137.0 105.0 L 137.0 104.0 L 137.0 104.0 L 137.0 104.0 L 137.0 107.0 L 135.0 115.0 L 130.0 127.0 L 122.0 140.0 L 117.0 146.0 " stroke="black" fill="none" stroke-width="5.0" stroke-linecap="round" stroke-linejoin="round" />
<path d="M 136.0 121.0 L 136.0 121.0 L 136.0 121.0 L 136.0 121.0 L 137.0 121.0 L 143.0 121.0 L 152.0 121.0 L 163.0 120.0 L 171.0 120.0 L 176.0 120.0 L 177.0 119.0 L 177.0 119.0 L 176.0 119.0 " stroke="black" fill="none" stroke-width="5.0" stroke-linecap="round" stroke-linejoin="round" />
<path d="M 143.0 137.0 L 143.0 137.0 L 143.0 137.0 L 142.0 137.0 L 142.0 137.0 L 142.0 140.0 L 142.0 148.0 L 142.0 157.0 L 142.0 164.0 L 143.0 167.0 L 143.0 167.0 " stroke="black" fill="none" stroke-width="5.0" stroke-linecap="round" stroke-linejoin="round" />
<path d="M 154.0 135.0 L 154.0 135.0 L 154.0 135.0 L 154.0 135.0 L 154.0 136.0 L 155.0 142.0 L 156.0 152.0 L 156.0 162.0 L 157.0 167.0 L 157.0 167.0 " stroke="black" fill="none" stroke-width="5.0" stroke-linecap="round" stroke-linejoin="round" />
<path d="M 165.0 135.0 L 165.0 135.0 L 165.0 135.0 L 165.0 135.0 L 165.0 138.0 L 167.0 144.0 L 168.0 152.0 L 169.0 161.0 L 169.0 167.0 L 169.0 168.0 " stroke="black" fill="none" stroke-width="5.0" stroke-linecap="round" stroke-linejoin="round" />
<path d="M 182.0 138.0 L 182.0 138.0 L 182.0 139.0 L 182.0 144.0 L 183.0 152.0 L 184.0 162.0 L 185.0 170.0 L 185.0 174.0 " stroke="black" fill="none" stroke-width="5.0" stroke-linecap="round" stroke-linejoin="round" />
<path d="M 125.0 153.0 L 125.0 153.0 L 125.0 153.0 L 127.0 153.0 L 134.0 153.0 L 149.0 153.0 L 165.0 153.0 L 179.0 153.0 L 186.0 153.0 L 187.0 154.0 L 187.0 155.0 " stroke="black" fill="none" stroke-width="5.0" stroke-linecap="round" stroke-linejoin="round" />
<path d="M 127.0 177.0 L 127.0 177.0 L 127.0 177.0 L 129.0 177.0 L 137.0 177.0 L 151.0 177.0 L 168.0 177.0 L 182.0 178.0 L 189.0 178.0 L 190.0 178.0 L 190.0 179.0 " stroke="black" fill="none" stroke-width="5.0" stroke-linecap="round" stroke-linejoin="round" />
<path d="M 127.0 191.0 L 127.0 190.0 L 128.0 190.0 L 128.0 190.0 L 128.0 190.0 L 128.0 193.0 L 128.0 198.0 L 128.0 200.0 " stroke="black" fill="none" stroke-width="5.0" stroke-linecap="round" stroke-linejoin="round" />
<path d="M 144.0 190.0 L 144.0 190.0 L 144.0 190.0 L 144.0 191.0 L 145.0 193.0 L 147.0 197.0 L 148.0 200.0 L 149.0 201.0 " stroke="black" fill="none" stroke-width="5.0" stroke-linecap="round" stroke-linejoin="round" />
<path d="M 162.0 189.0 L 162.0 189.0 L 162.0 189.0 L 163.0 190.0 L 164.0 194.0 L 166.0 200.0 L 167.0 203.0 " stroke="black" fill="none" stroke-width="5.0" stroke-linecap="round" stroke-linejoin="round" />
<path d="M 186.0 191.0 L 186.0 192.0 L 186.0 193.0 L 188.0 195.0 L 189.0 199.0 L 191.0 202.0 " stroke="black" fill="none" stroke-width="5.0" stroke-linecap="round" stroke-linejoin="round" />
</svg>