<svg xmlns="http://www.w3.org/2000/svg" width="300" height="300" viewBox="0 0 300 300">
<path d="M 136.0 107.0 L 136.0 107.0 L 136.0 107.0 L 136.0 107.0 L 135.0 107.0 L 135.0 109.0 L 135.0 116.0 L 135.0 127.0 L 136.0 137.0 L 137.0 141.0 L 138.0 141.0 " stroke="black" fill="none" stroke-width="5.0" stroke-linecap="round" stroke-linejoin="round" />
<path d="M 135.0 107.0 L 136.0 107.0 L 137.0 107.0 L 138.0 107.0 L 141.0 107.0 L 147.0 106.0 L 153.0 105.0 L 160.0 104.0 L 164.0 104.0 L 167.0 104.0 L 169.0 107.0 L 169.0 113.0 L 169.0 123.0 L 169.0 131.0 L 169.0 137.0 L 169.0 140.0 L 168.0 140.0 " stroke="black" fill="none" stroke-width="5.0" stroke-linecap="round" stroke-linejoin="round" />
<path d="M 141.0 124.0 L 141.0 124.0 L 140.0 125.0 L 139.0 125.0 L 139.0 125.0 L 144.0 125.0 L 151.0 125.0 L 157.0 124.0 L 162.0 124.0 L 165.0 124.0 L 165.0 124.0 " stroke="black" fill="none" stroke-width="5.0" stroke-linecap="round" stroke-linejoin="round" />
<path d="M 136.0 141.0 L 136.0 142.0 L 138.0 142.0 L 143.0 142.0 L 153.0 142.0 L 161.0 140.0 L 166.0 140.0 " stroke="black" fill="none" stroke-width="5.0" stroke-linecap="round" stroke-linejoin="round" />
<path d="M 142.0 146.0 L 142.0 146.0 L 141.0 146.0 L 141.0 146.0 L 140.0 148.0 L 137.0 155.0 L 132.0 165.0 L 125.0 176.0 L 121.0 181.0 " stroke="black" fill="none" stroke-width="5.0" stroke-linecap="round" stroke-linejoin="round" />
<path d="M 138.0 163.0 L 138.0 163.0 L 138.0 163.0 L 139.0 163.0 L 142.0 163.0 L 150.0 162.0 L 160.0 160.0 L 168.0 159.0 L 172.0 159.0 L 172.0 158.0 " stroke="black" fill="none" stroke-width="5.0" stroke-linecap="round" stroke-linejoin="round" />
<path d="M 141.0 179.0 L 141.0 179.0 L 141.0 179.0 L 141.0 179.0 L 143.0 179.0 L 149.0 179.0 L 157.0 179.0 L 163.0 178.0 L 166.0 178.0 " stroke="black" fill="none" stroke-width="5.0" stroke-linecap="round" stroke-linejoin="round" />
<path d="M 116.0 206.0 L 117.0 207.0 L 118.0 208.0 L 118.0 208.0 L 120.0 208.0 L 125.0 208.0 L 137.0 208.0 L 155.0 207.0 L 174.0 206.0 L 188.0 205.0 L 190.0 205.0 " stroke="black" fill="none" stroke-width="5.0" stroke-linecap="round" stroke-linejoin="round" />
<path d="M 152.0 147.0 L 152.0 147.0 L 151.0 147.0 L 150.0 149.0 L 150.0 157.0 L 152.0 172.0 L 154.0 186.0 L 154.0 197.0 L 154.0 201.0 " stroke="black" fill="none" stroke-width="5.0" stroke-linecap="round" stroke-linejoin="round" />
</svg>