<svg xmlns="http://www.w3.org/2000/svg" width="300" height="300" viewBox="0 0 300 300">
<path d="M 128.0 110.0 L 128.0 110.0 L 128.0 110.0 L 128.0 110.0 L 128.0 110.0 L 128.0 110.0 L 126.0 112.0 L 122.0 118.0 L 119.0 125.0 L 117.0 131.0 L 119.0 133.0 L 126.0 134.0 L 134.0 132.0 L 140.0 130.0 L 141.0 129.0 " stroke="black" fill="none" stroke-width="5.0" stroke-linecap="round" stroke-linejoin="round" />
<path d="M 139.0 119.0 L 139.0 121.0 L 140.0 123.0 L 141.0 127.0 L 144.0 131.0 L 146.0 135.0 " stroke="black" fill="none" stroke-width="5.0" stroke-linecap="round" stroke-linejoin="round" />
<path d="M 118.0 147.0 L 119.0 147.0 L 119.0 148.0 L 119.0 150.0 L 118.0 155.0 L 118.0 165.0 L 117.0 175.0 L 117.0 182.0 L 116.0 183.0 " stroke="black" fill="none" stroke-width="5.0" stroke-linecap="round" stroke-linejoin="round" />
<path d="M 118.0 144.0 L 118.0 144.0 L 118.0 144.0 L 119.0 144.0 L 120.0 143.0 L 124.0 143.0 L 128.0 143.0 L 133.0 143.0 L 137.0 144.0 L 140.0 149.0 L 143.0 158.0 L 146.0 171.0 L 148.0 181.0 L 148.0 187.0 L 148.0 188.0 L 147.0 188.0 L 143.0 187.0 L 136.0 183.0 " stroke="black" fill="none" stroke-width="5.0" stroke-linecap="round" stroke-linejoin="round" />
<path d="M 118.0 154.0 L 119.0 154.0 L 121.0 154.0 L 124.0 155.0 L 130.0 155.0 L 136.0 155.0 L 139.0 155.0 " stroke="black" fill="none" stroke-width="5.0" stroke-linecap="round" stroke-linejoin="round" />
<path d="M 118.0 165.0 L 119.0 166.0 L 120.0 167.0 L 125.0 168.0 L 134.0 168.0 L 141.0 168.0 " stroke="black" fill="none" stroke-width="5.0" stroke-linecap="round" stroke-linejoin="round" />
<path d="M 158.0 110.0 L 158.0 110.0 L 158.0 110.0 L 159.0 110.0 L 159.0 110.0 L 159.0 110.0 L 159.0 113.0 L 159.0 119.0 L 160.0 126.0 L 162.0 132.0 L 166.0 134.0 L 170.0 135.0 L 174.0 134.0 L 178.0 133.0 L 178.0 133.0 " stroke="black" fill="none" stroke-width="5.0" stroke-linecap="round" stroke-linejoin="round" />
<path d="M 158.0 122.0 L 159.0 122.0 L 160.0 122.0 L 162.0 123.0 L 167.0 123.0 L 174.0 122.0 L 179.0 122.0 " stroke="black" fill="none" stroke-width="5.0" stroke-linecap="round" stroke-linejoin="round" />
<path d="M 159.0 146.0 L 159.0 146.0 L 159.0 146.0 L 159.0 147.0 L 159.0 151.0 L 159.0 158.0 L 159.0 169.0 L 160.0 180.0 L 165.0 186.0 L 172.0 187.0 L 178.0 185.0 L 179.0 184.0 " stroke="black" fill="none" stroke-width="5.0" stroke-linecap="round" stroke-linejoin="round" />
<path d="M 160.0 164.0 L 161.0 164.0 L 162.0 165.0 L 165.0 166.0 L 172.0 166.0 L 183.0 164.0 L 190.0 163.0 " stroke="black" fill="none" stroke-width="5.0" stroke-linecap="round" stroke-linejoin="round" />
</svg>