<svg xmlns="http://www.w3.org/2000/svg" width="300" height="300" viewBox="0 0 300 300">
<path d="M 124.0 106.0 L 124.0 106.0 L 124.0 106.0 L 124.0 106.0 L 124.0 106.0 L 124.0 106.0 L 123.0 107.0 L 120.0 111.0 L 115.0 117.0 L 112.0 122.0 L 111.0 125.0 L 115.0 126.0 L 122.0 126.0 L 130.0 126.0 L 137.0 125.0 " stroke="black" fill="none" stroke-width="5.0" stroke-linecap="round" stroke-linejoin="round" />
<path d="M 137.0 115.0 L 137.0 115.0 L 137.0 115.0 L 137.0 116.0 L 137.0 120.0 L 139.0 126.0 L 142.0 132.0 L 143.0 133.0 " stroke="black" fill="none" stroke-width="5.0" stroke-linecap="round" stroke-linejoin="round" />
<path d="M 116.0 143.0 L 116.0 143.0 L 116.0 143.0 L 116.0 143.0 L 115.0 145.0 L 115.0 154.0 L 114.0 169.0 L 113.0 181.0 L 113.0 186.0 L 113.0 186.0 " stroke="black" fill="none" stroke-width="5.0" stroke-linecap="round" stroke-linejoin="round" />
<path d="M 118.0 141.0 L 118.0 141.0 L 118.0 140.0 L 118.0 140.0 L 119.0 140.0 L 122.0 139.0 L 126.0 139.0 L 131.0 139.0 L 134.0 139.0 L 136.0 141.0 L 138.0 147.0 L 141.0 156.0 L 144.0 168.0 L 147.0 177.0 L 148.0 183.0 L 148.0 186.0 L 146.0 187.0 L 141.0 187.0 L 133.0 186.0 L 131.0 185.0 " stroke="black" fill="none" stroke-width="5.0" stroke-linecap="round" stroke-linejoin="round" />
<path d="M 119.0 153.0 L 119.0 153.0 L 119.0 153.0 L 120.0 153.0 L 124.0 153.0 L 130.0 153.0 L 136.0 154.0 " stroke="black" fill="none" stroke-width="5.0" stroke-linecap="round" stroke-linejoin="round" />
<path d="M 117.0 167.0 L 117.0 167.0 L 117.0 168.0 L 119.0 168.0 L 127.0 168.0 L 134.0 167.0 " stroke="black" fill="none" stroke-width="5.0" stroke-linecap="round" stroke-linejoin="round" />
<path d="M 153.0 112.0 L 153.0 112.0 L 153.0 112.0 L 153.0 112.0 L 152.0 112.0 L 152.0 116.0 L 152.0 123.0 L 154.0 132.0 L 156.0 139.0 L 160.0 143.0 L 166.0 142.0 L 169.0 140.0 " stroke="black" fill="none" stroke-width="5.0" stroke-linecap="round" stroke-linejoin="round" />
<path d="M 154.0 124.0 L 154.0 124.0 L 155.0 124.0 L 157.0 124.0 L 162.0 124.0 L 169.0 125.0 " stroke="black" fill="none" stroke-width="5.0" stroke-linecap="round" stroke-linejoin="round" />
<path d="M 154.0 155.0 L 154.0 154.0 L 154.0 153.0 L 154.0 152.0 L 154.0 152.0 L 154.0 151.0 L 154.0 153.0 L 155.0 158.0 L 156.0 167.0 L 158.0 177.0 L 160.0 184.0 L 165.0 188.0 L 172.0 186.0 L 177.0 183.0 " stroke="black" fill="none" stroke-width="5.0" stroke-linecap="round" stroke-linejoin="round" />
<path d="M 156.0 166.0 L 156.0 166.0 L 156.0 166.0 L 158.0 166.0 L 162.0 166.0 L 172.0 165.0 L 179.0 164.0 " stroke="black" fill="none" stroke-width="5.0" stroke-linecap="round" stroke-linejoin="round" />
</svg>