<svg xmlns="http://www.w3.org/2000/svg" width="300" height="300" viewBox="0 0 300 300">
<path d="M 122.0 110.0 L 122.0 110.0 L 122.0 110.0 L 123.0 112.0 L 124.0 114.0 L 125.0 119.0 L 127.0 124.0 L 128.0 127.0 " stroke="black" fill="none" stroke-width="5.0" stroke-linecap="round" stroke-linejoin="round" />
<path d="M 110.0 133.0 L 110.0 133.0 L 110.0 133.0 L 111.0 133.0 L 114.0 133.0 L 120.0 132.0 L 127.0 132.0 L 133.0 132.0 L 136.0 132.0 L 137.0 132.0 " stroke="black" fill="none" stroke-width="5.0" stroke-linecap="round" stroke-linejoin="round" />
<path d="M 113.0 150.0 L 113.0 150.0 L 113.0 149.0 L 115.0 149.0 L 117.0 149.0 L 120.0 149.0 L 125.0 149.0 L 128.0 148.0 L 129.0 148.0 " stroke="black" fill="none" stroke-width="5.0" stroke-linecap="round" stroke-linejoin="round" />
<path d="M 111.0 160.0 L 112.0 160.0 L 113.0 161.0 L 117.0 161.0 L 122.0 161.0 L 128.0 161.0 L 132.0 161.0 L 133.0 161.0 " stroke="black" fill="none" stroke-width="5.0" stroke-linecap="round" stroke-linejoin="round" />
<path d="M 107.0 179.0 L 107.0 179.0 L 107.0 180.0 L 107.0 183.0 L 107.0 188.0 L 108.0 193.0 L 109.0 196.0 L 109.0 197.0 " stroke="black" fill="none" stroke-width="5.0" stroke-linecap="round" stroke-linejoin="round" />
<path d="M 109.0 175.0 L 111.0 175.0 L 112.0 175.0 L 114.0 175.0 L 120.0 175.0 L 125.0 175.0 L 130.0 175.0 L 134.0 176.0 L 138.0 180.0 L 140.0 186.0 L 141.0 191.0 L 142.0 195.0 L 142.0 195.0 " stroke="black" fill="none" stroke-width="5.0" stroke-linecap="round" stroke-linejoin="round" />
<path d="M 111.0 197.0 L 111.0 197.0 L 113.0 198.0 L 116.0 198.0 L 123.0 198.0 L 130.0 198.0 L 132.0 198.0 " stroke="black" fill="none" stroke-width="5.0" stroke-linecap="round" stroke-linejoin="round" />
<path d="M 149.0 123.0 L 149.0 123.0 L 149.0 123.0 L 150.0 123.0 L 154.0 123.0 L 161.0 123.0 L 167.0 123.0 L 171.0 123.0 L 172.0 124.0 L 172.0 124.0 " stroke="black" fill="none" stroke-width="5.0" stroke-linecap="round" stroke-linejoin="round" />
<path d="M 156.0 125.0 L 157.0 126.0 L 158.0 127.0 L 158.0 130.0 L 158.0 135.0 L 158.0 141.0 L 158.0 148.0 L 158.0 151.0 L 157.0 153.0 " stroke="black" fill="none" stroke-width="5.0" stroke-linecap="round" stroke-linejoin="round" />
<path d="M 148.0 139.0 L 148.0 139.0 L 148.0 139.0 L 148.0 139.0 L 149.0 139.0 L 151.0 139.0 L 157.0 139.0 L 164.0 138.0 L 170.0 138.0 L 174.0 138.0 L 176.0 140.0 L 178.0 145.0 L 178.0 150.0 L 179.0 154.0 L 179.0 156.0 L 179.0 156.0 " stroke="black" fill="none" stroke-width="5.0" stroke-linecap="round" stroke-linejoin="round" />
<path d="M 144.0 158.0 L 144.0 158.0 L 144.0 158.0 L 144.0 158.0 L 145.0 158.0 L 152.0 158.0 L 167.0 158.0 L 182.0 158.0 L 190.0 158.0 L 192.0 158.0 L 192.0 159.0 " stroke="black" fill="none" stroke-width="5.0" stroke-linecap="round" stroke-linejoin="round" />
<path d="M 152.0 172.0 L 152.0 172.0 L 152.0 172.0 L 152.0 174.0 L 152.0 178.0 L 152.0 184.0 L 152.0 190.0 L 153.0 193.0 L 153.0 193.0 " stroke="black" fill="none" stroke-width="5.0" stroke-linecap="round" stroke-linejoin="round" />
<path d="M 152.0 171.0 L 153.0 171.0 L 153.0 171.0 L 154.0 171.0 L 158.0 170.0 L 164.0 170.0 L 172.0 169.0 L 178.0 169.0 L 182.0 171.0 L 185.0 174.0 L 187.0 180.0 L 187.0 186.0 L 187.0 191.0 L 187.0 193.0 " stroke="black" fill="none" stroke-width="5.0" stroke-linecap="round" stroke-linejoin="round" />
<path d="M 152.0 195.0 L 153.0 195.0 L 154.0 196.0 L 156.0 196.0 L 162.0 196.0 L 171.0 197.0 L 180.0 197.0 L 185.0 198.0 " stroke="black" fill="none" stroke-width="5.0" stroke-linecap="round" stroke-linejoin="round" />
</svg>