<svg xmlns="http://www.w3.org/2000/svg" width="300" height="300" viewBox="0 0 300 300">
<path d="M 118.0 118.0 L 118.0 118.0 L 118.0 118.0 L 118.0 118.0 L 118.0 118.0 L 120.0 120.0 L 125.0 123.0 L 128.0 124.0 " stroke="black" fill="none" stroke-width="5.0" stroke-linecap="round" stroke-linejoin="round" />
<path d="M 111.0 150.0 L 111.0 149.0 L 111.0 149.0 L 112.0 149.0 L 115.0 149.0 L 120.0 150.0 L 124.0 151.0 " stroke="black" fill="none" stroke-width="5.0" stroke-linecap="round" stroke-linejoin="round" />
<path d="M 101.0 190.0 L 101.0 190.0 L 102.0 190.0 L 108.0 187.0 L 121.0 180.0 L 128.0 175.0 " stroke="black" fill="none" stroke-width="5.0" stroke-linecap="round" stroke-linejoin="round" />
<path d="M 144.0 113.0 L 144.0 113.0 L 144.0 113.0 L 143.0 113.0 L 143.0 113.0 L 143.0 113.0 L 143.0 119.0 L 143.0 131.0 L 142.0 149.0 L 139.0 170.0 L 134.0 186.0 L 132.0 193.0 L 131.0 195.0 L 131.0 194.0 " stroke="black" fill="none" stroke-width="5.0" stroke-linecap="round" stroke-linejoin="round" />
<path d="M 146.0 132.0 L 145.0 133.0 L 145.0 133.0 L 145.0 134.0 L 146.0 134.0 L 151.0 134.0 L 156.0 134.0 L 160.0 134.0 L 162.0 132.0 L 163.0 130.0 L 163.0 126.0 L 163.0 122.0 L 162.0 117.0 L 162.0 114.0 " stroke="black" fill="none" stroke-width="5.0" stroke-linecap="round" stroke-linejoin="round" />
<path d="M 145.0 167.0 L 145.0 167.0 L 145.0 167.0 L 145.0 167.0 L 146.0 167.0 L 149.0 167.0 L 152.0 167.0 L 155.0 167.0 L 156.0 167.0 L 158.0 168.0 L 159.0 175.0 L 161.0 184.0 L 163.0 193.0 L 165.0 198.0 L 165.0 198.0 " stroke="black" fill="none" stroke-width="5.0" stroke-linecap="round" stroke-linejoin="round" />
<path d="M 188.0 117.0 L 188.0 117.0 L 187.0 118.0 L 187.0 119.0 L 187.0 125.0 L 188.0 138.0 L 191.0 158.0 L 193.0 177.0 L 195.0 189.0 L 195.0 193.0 L 195.0 193.0 " stroke="black" fill="none" stroke-width="5.0" stroke-linecap="round" stroke-linejoin="round" />
<path d="M 174.0 119.0 L 174.0 119.0 L 173.0 119.0 L 173.0 119.0 L 173.0 121.0 L 173.0 125.0 L 173.0 130.0 L 173.0 136.0 L 175.0 140.0 L 180.0 142.0 L 186.0 142.0 " stroke="black" fill="none" stroke-width="5.0" stroke-linecap="round" stroke-linejoin="round" />
<path d="M 170.0 169.0 L 170.0 169.0 L 171.0 170.0 L 172.0 170.0 L 175.0 170.0 L 179.0 170.0 L 184.0 169.0 L 186.0 168.0 " stroke="black" fill="none" stroke-width="5.0" stroke-linecap="round" stroke-linejoin="round" />
<path d="M 174.0 172.0 L 174.0 172.0 L 173.0 172.0 L 173.0 173.0 L 173.0 178.0 L 175.0 186.0 L 177.0 194.0 L 178.0 198.0 " stroke="black" fill="none" stroke-width="5.0" stroke-linecap="round" stroke-linejoin="round" />
<path d="M 149.0 152.0 L 149.0 152.0 L 148.0 152.0 L 148.0 152.0 L 152.0 153.0 L 163.0 154.0 L 176.0 154.0 L 185.0 155.0 L 187.0 155.0 " stroke="black" fill="none" stroke-width="5.0" stroke-linecap="round" stroke-linejoin="round" />
</svg>