<svg xmlns="http://www.w3.org/2000/svg" width="300" height="300" viewBox="0 0 300 300">
<path d="M 128.0 123.0 L 128.0 123.0 L 128.0 123.0 L 128.0 123.0 L 128.0 124.0 L 128.0 125.0 L 127.0 129.0 L 123.0 134.0 L 120.0 140.0 L 118.0 144.0 L 118.0 146.0 L 120.0 147.0 L 124.0 147.0 " stroke="black" fill="none" stroke-width="5.0" stroke-linecap="round" stroke-linejoin="round" />
<path d="M 135.0 139.0 L 135.0 139.0 L 135.0 139.0 L 134.0 140.0 L 133.0 140.0 L 132.0 142.0 L 128.0 147.0 L 123.0 155.0 L 117.0 164.0 L 113.0 171.0 L 112.0 173.0 L 113.0 174.0 L 118.0 174.0 L 124.0 174.0 L 129.0 174.0 L 130.0 174.0 " stroke="black" fill="none" stroke-width="5.0" stroke-linecap="round" stroke-linejoin="round" />
<path d="M 133.0 166.0 L 133.0 166.0 L 134.0 168.0 L 134.0 170.0 L 136.0 174.0 L 138.0 179.0 L 139.0 181.0 " stroke="black" fill="none" stroke-width="5.0" stroke-linecap="round" stroke-linejoin="round" />
<path d="M 108.0 189.0 L 108.0 189.0 L 108.0 190.0 L 109.0 192.0 L 110.0 196.0 L 111.0 198.0 " stroke="black" fill="none" stroke-width="5.0" stroke-linecap="round" stroke-linejoin="round" />
<path d="M 119.0 189.0 L 119.0 190.0 L 120.0 192.0 L 122.0 194.0 L 124.0 196.0 " stroke="black" fill="none" stroke-width="5.0" stroke-linecap="round" stroke-linejoin="round" />
<path d="M 131.0 189.0 L 131.0 191.0 L 132.0 194.0 L 133.0 197.0 L 134.0 198.0 " stroke="black" fill="none" stroke-width="5.0" stroke-linecap="round" stroke-linejoin="round" />
<path d="M 152.0 114.0 L 152.0 115.0 L 152.0 117.0 L 152.0 121.0 L 153.0 127.0 L 154.0 134.0 L 155.0 139.0 L 155.0 140.0 " stroke="black" fill="none" stroke-width="5.0" stroke-linecap="round" stroke-linejoin="round" />
<path d="M 153.0 126.0 L 154.0 126.0 L 155.0 126.0 L 156.0 126.0 L 159.0 126.0 L 164.0 126.0 L 167.0 126.0 L 169.0 126.0 " stroke="black" fill="none" stroke-width="5.0" stroke-linecap="round" stroke-linejoin="round" />
<path d="M 141.0 144.0 L 141.0 144.0 L 141.0 144.0 L 141.0 146.0 L 141.0 150.0 L 142.0 155.0 L 143.0 159.0 L 144.0 160.0 " stroke="black" fill="none" stroke-width="5.0" stroke-linecap="round" stroke-linejoin="round" />
<path d="M 141.0 144.0 L 141.0 144.0 L 141.0 143.0 L 143.0 143.0 L 147.0 142.0 L 155.0 140.0 L 163.0 139.0 L 170.0 139.0 L 173.0 139.0 L 175.0 142.0 L 176.0 146.0 L 177.0 152.0 L 177.0 157.0 L 177.0 160.0 L 177.0 161.0 " stroke="black" fill="none" stroke-width="5.0" stroke-linecap="round" stroke-linejoin="round" />
<path d="M 148.0 153.0 L 148.0 153.0 L 148.0 153.0 L 148.0 153.0 L 151.0 153.0 L 157.0 153.0 L 164.0 152.0 L 168.0 152.0 L 169.0 152.0 " stroke="black" fill="none" stroke-width="5.0" stroke-linecap="round" stroke-linejoin="round" />
<path d="M 150.0 163.0 L 151.0 164.0 L 153.0 165.0 L 157.0 165.0 L 164.0 165.0 L 171.0 163.0 L 174.0 163.0 " stroke="black" fill="none" stroke-width="5.0" stroke-linecap="round" stroke-linejoin="round" />
<path d="M 141.0 180.0 L 143.0 180.0 L 145.0 180.0 L 149.0 180.0 L 155.0 180.0 L 165.0 180.0 L 176.0 179.0 L 182.0 178.0 L 184.0 178.0 " stroke="black" fill="none" stroke-width="5.0" stroke-linecap="round" stroke-linejoin="round" />
<path d="M 161.0 163.0 L 161.0 163.0 L 161.0 164.0 L 161.0 164.0 L 162.0 169.0 L 165.0 180.0 L 168.0 194.0 L 170.0 204.0 L 170.0 207.0 L 170.0 207.0 " stroke="black" fill="none" stroke-width="5.0" stroke-linecap="round" stroke-linejoin="round" />
</svg>