<svg xmlns="http://www.w3.org/2000/svg" width="300" height="300" viewBox="0 0 300 300">
<path d="M 128.0 112.0 L 128.0 112.0 L 128.0 112.0 L 128.0 112.0 L 129.0 116.0 L 129.0 131.0 L 129.0 156.0 L 129.0 180.0 L 129.0 193.0 L 130.0 198.0 L 130.0 199.0 L 130.0 198.0 " stroke="black" fill="none" stroke-width="5.0" stroke-linecap="round" stroke-linejoin="round" />
<path d="M 119.0 145.0 L 120.0 145.0 L 121.0 145.0 L 121.0 145.0 L 121.0 146.0 L 119.0 152.0 L 114.0 160.0 L 109.0 169.0 L 105.0 174.0 " stroke="black" fill="none" stroke-width="5.0" stroke-linecap="round" stroke-linejoin="round" />
<path d="M 131.0 150.0 L 131.0 150.0 L 132.0 150.0 L 134.0 152.0 L 138.0 157.0 L 143.0 164.0 L 145.0 166.0 " stroke="black" fill="none" stroke-width="5.0" stroke-linecap="round" stroke-linejoin="round" />
<path d="M 150.0 116.0 L 150.0 116.0 L 150.0 116.0 L 150.0 117.0 L 151.0 117.0 L 156.0 117.0 L 163.0 116.0 L 171.0 114.0 L 175.0 114.0 " stroke="black" fill="none" stroke-width="5.0" stroke-linecap="round" stroke-linejoin="round" />
<path d="M 153.0 127.0 L 153.0 127.0 L 154.0 127.0 L 154.0 127.0 L 157.0 127.0 L 161.0 127.0 L 167.0 127.0 L 172.0 127.0 L 173.0 127.0 " stroke="black" fill="none" stroke-width="5.0" stroke-linecap="round" stroke-linejoin="round" />
<path d="M 144.0 141.0 L 144.0 141.0 L 145.0 141.0 L 147.0 141.0 L 157.0 141.0 L 171.0 140.0 L 183.0 139.0 L 185.0 139.0 " stroke="black" fill="none" stroke-width="5.0" stroke-linecap="round" stroke-linejoin="round" />
<path d="M 160.0 105.0 L 160.0 105.0 L 160.0 105.0 L 160.0 106.0 L 161.0 117.0 L 163.0 131.0 L 163.0 135.0 " stroke="black" fill="none" stroke-width="5.0" stroke-linecap="round" stroke-linejoin="round" />
<path d="M 155.0 159.0 L 155.0 159.0 L 155.0 159.0 L 155.0 159.0 L 155.0 160.0 L 154.0 167.0 L 153.0 180.0 L 152.0 193.0 L 152.0 199.0 L 152.0 199.0 " stroke="black" fill="none" stroke-width="5.0" stroke-linecap="round" stroke-linejoin="round" />
<path d="M 154.0 157.0 L 154.0 157.0 L 154.0 157.0 L 154.0 157.0 L 155.0 157.0 L 159.0 156.0 L 166.0 154.0 L 173.0 153.0 L 178.0 152.0 L 181.0 152.0 L 184.0 152.0 L 186.0 158.0 L 189.0 168.0 L 191.0 181.0 L 193.0 193.0 L 194.0 200.0 L 194.0 202.0 L 194.0 202.0 L 193.0 201.0 L 184.0 199.0 L 175.0 196.0 " stroke="black" fill="none" stroke-width="5.0" stroke-linecap="round" stroke-linejoin="round" />
<path d="M 161.0 166.0 L 161.0 166.0 L 161.0 166.0 L 162.0 166.0 L 166.0 166.0 L 172.0 166.0 L 180.0 167.0 L 185.0 167.0 L 186.0 168.0 " stroke="black" fill="none" stroke-width="5.0" stroke-linecap="round" stroke-linejoin="round" />
<path d="M 158.0 182.0 L 158.0 182.0 L 159.0 182.0 L 161.0 183.0 L 167.0 183.0 L 179.0 183.0 L 189.0 182.0 " stroke="black" fill="none" stroke-width="5.0" stroke-linecap="round" stroke-linejoin="round" />
</svg>