<svg xmlns="http://www.w3.org/2000/svg" width="300" height="300" viewBox="0 0 300 300">
<path d="M 121.0 111.0 L 121.0 111.0 L 121.0 111.0 L 122.0 111.0 L 122.0 111.0 L 123.0 115.0 L 125.0 130.0 L 126.0 154.0 L 126.0 172.0 L 127.0 182.0 L 128.0 184.0 L 128.0 184.0 L 128.0 182.0 " stroke="black" fill="none" stroke-width="5.0" stroke-linecap="round" stroke-linejoin="round" />
<path d="M 120.0 142.0 L 120.0 142.0 L 121.0 142.0 L 121.0 142.0 L 121.0 142.0 L 119.0 145.0 L 115.0 153.0 L 108.0 162.0 L 105.0 167.0 " stroke="black" fill="none" stroke-width="5.0" stroke-linecap="round" stroke-linejoin="round" />
<path d="M 129.0 148.0 L 129.0 148.0 L 129.0 148.0 L 129.0 148.0 L 132.0 151.0 L 137.0 157.0 L 138.0 159.0 " stroke="black" fill="none" stroke-width="5.0" stroke-linecap="round" stroke-linejoin="round" />
<path d="M 146.0 109.0 L 146.0 109.0 L 146.0 109.0 L 146.0 109.0 L 147.0 109.0 L 149.0 109.0 L 153.0 109.0 L 160.0 109.0 L 166.0 108.0 L 170.0 108.0 L 170.0 108.0 " stroke="black" fill="none" stroke-width="5.0" stroke-linecap="round" stroke-linejoin="round" />
<path d="M 146.0 121.0 L 146.0 121.0 L 146.0 121.0 L 147.0 121.0 L 150.0 121.0 L 157.0 121.0 L 163.0 120.0 L 167.0 120.0 L 167.0 120.0 " stroke="black" fill="none" stroke-width="5.0" stroke-linecap="round" stroke-linejoin="round" />
<path d="M 141.0 134.0 L 141.0 134.0 L 141.0 134.0 L 142.0 134.0 L 148.0 134.0 L 160.0 134.0 L 172.0 134.0 L 179.0 134.0 " stroke="black" fill="none" stroke-width="5.0" stroke-linecap="round" stroke-linejoin="round" />
<path d="M 156.0 104.0 L 156.0 104.0 L 156.0 104.0 L 156.0 104.0 L 156.0 104.0 L 157.0 111.0 L 158.0 120.0 L 158.0 126.0 " stroke="black" fill="none" stroke-width="5.0" stroke-linecap="round" stroke-linejoin="round" />
<path d="M 148.0 150.0 L 148.0 150.0 L 148.0 149.0 L 148.0 149.0 L 148.0 150.0 L 149.0 157.0 L 149.0 168.0 L 149.0 180.0 L 148.0 186.0 L 148.0 188.0 " stroke="black" fill="none" stroke-width="5.0" stroke-linecap="round" stroke-linejoin="round" />
<path d="M 151.0 143.0 L 151.0 143.0 L 151.0 143.0 L 151.0 143.0 L 154.0 143.0 L 160.0 142.0 L 166.0 141.0 L 172.0 141.0 L 175.0 142.0 L 178.0 146.0 L 181.0 155.0 L 183.0 166.0 L 185.0 176.0 L 185.0 183.0 L 185.0 185.0 L 183.0 186.0 L 177.0 186.0 L 167.0 184.0 " stroke="black" fill="none" stroke-width="5.0" stroke-linecap="round" stroke-linejoin="round" />
<path d="M 154.0 154.0 L 154.0 154.0 L 154.0 154.0 L 155.0 154.0 L 160.0 154.0 L 168.0 154.0 L 175.0 154.0 L 177.0 154.0 " stroke="black" fill="none" stroke-width="5.0" stroke-linecap="round" stroke-linejoin="round" />
<path d="M 151.0 168.0 L 151.0 168.0 L 151.0 168.0 L 152.0 168.0 L 158.0 168.0 L 171.0 168.0 L 178.0 168.0 " stroke="black" fill="none" stroke-width="5.0" stroke-linecap="round" stroke-linejoin="round" />
</svg>