<svg xmlns="http://www.w3.org/2000/svg" width="300" height="300" viewBox="0 0 300 300">
<path d="M 126.0 109.0 L 126.0 108.0 L 126.0 108.0 L 126.0 107.0 L 126.0 106.0 L 126.0 105.0 L 126.0 105.0 L 126.0 110.0 L 126.0 124.0 L 125.0 145.0 L 125.0 167.0 L 124.0 185.0 L 124.0 194.0 L 124.0 196.0 L 124.0 196.0 L 123.0 192.0 " stroke="black" fill="none" stroke-width="5.0" stroke-linecap="round" stroke-linejoin="round" />
<path d="M 120.0 149.0 L 120.0 149.0 L 120.0 149.0 L 120.0 149.0 L 119.0 150.0 L 117.0 154.0 L 113.0 162.0 L 107.0 171.0 L 105.0 173.0 " stroke="black" fill="none" stroke-width="5.0" stroke-linecap="round" stroke-linejoin="round" />
<path d="M 129.0 151.0 L 129.0 151.0 L 131.0 153.0 L 135.0 158.0 L 140.0 164.0 L 143.0 169.0 " stroke="black" fill="none" stroke-width="5.0" stroke-linecap="round" stroke-linejoin="round" />
<path d="M 152.0 114.0 L 153.0 114.0 L 155.0 114.0 L 157.0 114.0 L 161.0 114.0 L 166.0 114.0 L 170.0 113.0 L 172.0 113.0 " stroke="black" fill="none" stroke-width="5.0" stroke-linecap="round" stroke-linejoin="round" />
<path d="M 152.0 126.0 L 153.0 126.0 L 154.0 127.0 L 157.0 128.0 L 163.0 128.0 L 169.0 128.0 L 172.0 128.0 " stroke="black" fill="none" stroke-width="5.0" stroke-linecap="round" stroke-linejoin="round" />
<path d="M 145.0 141.0 L 146.0 141.0 L 148.0 142.0 L 153.0 142.0 L 163.0 143.0 L 174.0 143.0 L 181.0 143.0 " stroke="black" fill="none" stroke-width="5.0" stroke-linecap="round" stroke-linejoin="round" />
<path d="M 161.0 105.0 L 161.0 105.0 L 161.0 107.0 L 161.0 114.0 L 161.0 127.0 L 162.0 140.0 L 162.0 142.0 " stroke="black" fill="none" stroke-width="5.0" stroke-linecap="round" stroke-linejoin="round" />
<path d="M 151.0 158.0 L 151.0 158.0 L 150.0 159.0 L 150.0 161.0 L 149.0 168.0 L 148.0 181.0 L 148.0 195.0 L 147.0 202.0 L 147.0 203.0 L 147.0 201.0 " stroke="black" fill="none" stroke-width="5.0" stroke-linecap="round" stroke-linejoin="round" />
<path d="M 151.0 156.0 L 152.0 156.0 L 153.0 156.0 L 155.0 156.0 L 158.0 156.0 L 162.0 155.0 L 166.0 154.0 L 171.0 154.0 L 174.0 155.0 L 178.0 160.0 L 182.0 169.0 L 184.0 180.0 L 185.0 190.0 L 185.0 197.0 L 184.0 200.0 L 182.0 201.0 L 178.0 201.0 L 170.0 198.0 L 167.0 197.0 " stroke="black" fill="none" stroke-width="5.0" stroke-linecap="round" stroke-linejoin="round" />
<path d="M 153.0 168.0 L 153.0 168.0 L 153.0 168.0 L 154.0 168.0 L 159.0 168.0 L 167.0 168.0 L 175.0 168.0 L 179.0 168.0 " stroke="black" fill="none" stroke-width="5.0" stroke-linecap="round" stroke-linejoin="round" />
<path d="M 152.0 185.0 L 152.0 185.0 L 153.0 185.0 L 155.0 186.0 L 162.0 186.0 L 174.0 185.0 L 178.0 185.0 " stroke="black" fill="none" stroke-width="5.0" stroke-linecap="round" stroke-linejoin="round" />
</svg>