<svg xmlns="http://www.w3.org/2000/svg" width="300" height="300" viewBox="0 0 300 300">
<path d="M 134.0 109.0 L 134.0 109.0 L 134.0 109.0 L 135.0 110.0 L 136.0 110.0 L 141.0 110.0 L 148.0 111.0 L 155.0 112.0 L 159.0 114.0 L 161.0 115.0 L 162.0 118.0 L 160.0 121.0 L 156.0 125.0 L 152.0 129.0 L 148.0 132.0 L 145.0 136.0 L 144.0 139.0 L 144.0 144.0 L 148.0 151.0 L 152.0 158.0 L 156.0 166.0 L 159.0 174.0 L 160.0 181.0 L 160.0 186.0 L 158.0 190.0 L 155.0 191.0 L 152.0 191.0 L 147.0 191.0 L 143.0 190.0 " stroke="black" fill="none" stroke-width="5.0" stroke-linecap="round" stroke-linejoin="round" />
<path d="M 112.0 157.0 L 112.0 157.0 L 112.0 157.0 L 113.0 157.0 L 115.0 158.0 L 120.0 158.0 L 131.0 159.0 L 146.0 159.0 L 160.0 159.0 L 172.0 159.0 L 182.0 159.0 L 189.0 160.0 L 193.0 161.0 L 194.0 161.0 L 194.0 161.0 L 194.0 161.0 L 193.0 161.0 L 192.0 161.0 " stroke="black" fill="none" stroke-width="5.0" stroke-linecap="round" stroke-linejoin="round" />
</svg>