<svg xmlns="http://www.w3.org/2000/svg" width="300" height="300" viewBox="0 0 300 300">
<path d="M 136.0 111.0 L 136.0 111.0 L 136.0 112.0 L 135.0 112.0 L 137.0 112.0 L 143.0 112.0 L 150.0 112.0 L 157.0 112.0 L 160.0 113.0 L 161.0 113.0 L 161.0 114.0 L 159.0 117.0 L 155.0 122.0 L 151.0 127.0 L 147.0 131.0 L 145.0 134.0 L 145.0 138.0 L 148.0 145.0 L 152.0 155.0 L 157.0 166.0 L 160.0 178.0 L 161.0 188.0 L 161.0 193.0 L 160.0 195.0 L 156.0 196.0 L 150.0 194.0 L 144.0 190.0 L 142.0 189.0 " stroke="black" fill="none" stroke-width="5.0" stroke-linecap="round" stroke-linejoin="round" />
<path d="M 114.0 156.0 L 115.0 156.0 L 118.0 156.0 L 125.0 156.0 L 139.0 156.0 L 156.0 155.0 L 175.0 152.0 L 185.0 149.0 L 187.0 148.0 L 187.0 148.0 L 186.0 148.0 " stroke="black" fill="none" stroke-width="5.0" stroke-linecap="round" stroke-linejoin="round" />
</svg>