<svg xmlns="http://www.w3.org/2000/svg" width="300" height="300" viewBox="0 0 300 300">
<path d="M 118.0 109.0 L 118.0 109.0 L 118.0 110.0 L 118.0 112.0 L 120.0 116.0 L 122.0 120.0 L 123.0 122.0 " stroke="black" fill="none" stroke-width="5.0" stroke-linecap="round" stroke-linejoin="round" />
<path d="M 110.0 132.0 L 110.0 132.0 L 111.0 132.0 L 113.0 133.0 L 118.0 133.0 L 123.0 132.0 L 127.0 131.0 L 130.0 131.0 L 130.0 131.0 L 129.0 132.0 L 126.0 136.0 L 121.0 142.0 L 115.0 149.0 L 109.0 158.0 L 103.0 167.0 L 99.0 172.0 L 97.0 175.0 L 97.0 175.0 " stroke="black" fill="none" stroke-width="5.0" stroke-linecap="round" stroke-linejoin="round" />
<path d="M 114.0 152.0 L 114.0 152.0 L 115.0 152.0 L 116.0 152.0 L 116.0 154.0 L 117.0 160.0 L 117.0 170.0 L 117.0 180.0 L 117.0 186.0 L 117.0 188.0 L 117.0 188.0 " stroke="black" fill="none" stroke-width="5.0" stroke-linecap="round" stroke-linejoin="round" />
<path d="M 118.0 156.0 L 118.0 156.0 L 119.0 156.0 L 120.0 157.0 L 123.0 159.0 L 128.0 162.0 L 133.0 164.0 L 135.0 165.0 " stroke="black" fill="none" stroke-width="5.0" stroke-linecap="round" stroke-linejoin="round" />
<path d="M 132.0 148.0 L 132.0 148.0 L 132.0 148.0 L 131.0 149.0 L 131.0 151.0 L 130.0 155.0 L 128.0 159.0 " stroke="black" fill="none" stroke-width="5.0" stroke-linecap="round" stroke-linejoin="round" />
<path d="M 147.0 127.0 L 147.0 127.0 L 147.0 127.0 L 147.0 128.0 L 149.0 128.0 L 153.0 128.0 L 158.0 127.0 L 162.0 127.0 L 163.0 127.0 " stroke="black" fill="none" stroke-width="5.0" stroke-linecap="round" stroke-linejoin="round" />
<path d="M 153.0 115.0 L 153.0 115.0 L 153.0 115.0 L 153.0 116.0 L 153.0 120.0 L 154.0 131.0 L 155.0 142.0 L 155.0 149.0 L 155.0 151.0 " stroke="black" fill="none" stroke-width="5.0" stroke-linecap="round" stroke-linejoin="round" />
<path d="M 154.0 131.0 L 154.0 131.0 L 154.0 132.0 L 153.0 133.0 L 152.0 135.0 L 148.0 141.0 L 144.0 147.0 L 141.0 152.0 " stroke="black" fill="none" stroke-width="5.0" stroke-linecap="round" stroke-linejoin="round" />
<path d="M 155.0 135.0 L 155.0 135.0 L 155.0 136.0 L 156.0 136.0 L 160.0 139.0 L 165.0 142.0 L 166.0 142.0 " stroke="black" fill="none" stroke-width="5.0" stroke-linecap="round" stroke-linejoin="round" />
<path d="M 168.0 125.0 L 168.0 125.0 L 168.0 126.0 L 168.0 126.0 L 169.0 126.0 L 174.0 126.0 L 181.0 126.0 L 186.0 126.0 L 187.0 126.0 " stroke="black" fill="none" stroke-width="5.0" stroke-linecap="round" stroke-linejoin="round" />
<path d="M 175.0 112.0 L 175.0 112.0 L 175.0 113.0 L 175.0 115.0 L 175.0 122.0 L 177.0 135.0 L 178.0 146.0 L 178.0 152.0 L 179.0 153.0 " stroke="black" fill="none" stroke-width="5.0" stroke-linecap="round" stroke-linejoin="round" />
<path d="M 179.0 127.0 L 179.0 127.0 L 178.0 127.0 L 177.0 128.0 L 176.0 129.0 L 173.0 132.0 L 169.0 139.0 L 165.0 145.0 L 164.0 146.0 " stroke="black" fill="none" stroke-width="5.0" stroke-linecap="round" stroke-linejoin="round" />
<path d="M 178.0 130.0 L 178.0 131.0 L 179.0 132.0 L 180.0 135.0 L 185.0 140.0 L 189.0 145.0 " stroke="black" fill="none" stroke-width="5.0" stroke-linecap="round" stroke-linejoin="round" />
<path d="M 155.0 159.0 L 155.0 159.0 L 155.0 159.0 L 157.0 160.0 L 161.0 160.0 L 167.0 160.0 L 171.0 160.0 L 172.0 161.0 " stroke="black" fill="none" stroke-width="5.0" stroke-linecap="round" stroke-linejoin="round" />
<path d="M 146.0 170.0 L 148.0 170.0 L 150.0 170.0 L 154.0 171.0 L 162.0 171.0 L 173.0 170.0 L 180.0 169.0 L 182.0 169.0 L 182.0 169.0 " stroke="black" fill="none" stroke-width="5.0" stroke-linecap="round" stroke-linejoin="round" />
<path d="M 160.0 169.0 L 160.0 170.0 L 161.0 170.0 L 161.0 172.0 L 163.0 178.0 L 164.0 187.0 L 164.0 196.0 L 164.0 202.0 L 164.0 203.0 L 164.0 203.0 " stroke="black" fill="none" stroke-width="5.0" stroke-linecap="round" stroke-linejoin="round" />
<path d="M 154.0 177.0 L 154.0 178.0 L 153.0 179.0 L 152.0 181.0 L 148.0 185.0 L 143.0 191.0 L 137.0 197.0 L 136.0 199.0 " stroke="black" fill="none" stroke-width="5.0" stroke-linecap="round" stroke-linejoin="round" />
<path d="M 170.0 183.0 L 173.0 186.0 L 178.0 189.0 L 184.0 194.0 L 189.0 199.0 L 192.0 203.0 L 192.0 203.0 " stroke="black" fill="none" stroke-width="5.0" stroke-linecap="round" stroke-linejoin="round" />
</svg>