<svg xmlns="http://www.w3.org/2000/svg" width="300" height="300" viewBox="0 0 300 300">
<path d="M 128.0 113.0 L 128.0 113.0 L 128.0 113.0 L 128.0 113.0 L 132.0 113.0 L 143.0 113.0 L 160.0 111.0 L 173.0 110.0 L 178.0 109.0 L 178.0 109.0 " stroke="black" fill="none" stroke-width="5.0" stroke-linecap="round" stroke-linejoin="round" />
<path d="M 161.0 116.0 L 161.0 117.0 L 160.0 117.0 L 159.0 118.0 L 157.0 120.0 L 154.0 124.0 L 147.0 133.0 L 136.0 144.0 L 123.0 153.0 L 114.0 159.0 " stroke="black" fill="none" stroke-width="5.0" stroke-linecap="round" stroke-linejoin="round" />
<path d="M 150.0 135.0 L 150.0 135.0 L 150.0 135.0 L 150.0 134.0 L 150.0 134.0 L 151.0 136.0 L 153.0 146.0 L 157.0 173.0 L 158.0 179.0 L 158.0 179.0 " stroke="black" fill="none" stroke-width="5.0" stroke-linecap="round" stroke-linejoin="round" />
<path d="M 156.0 141.0 L 157.0 141.0 L 158.0 141.0 L 162.0 142.0 L 171.0 146.0 L 182.0 150.0 L 191.0 155.0 L 196.0 158.0 L 196.0 159.0 " stroke="black" fill="none" stroke-width="5.0" stroke-linecap="round" stroke-linejoin="round" />
</svg>