<svg xmlns="http://www.w3.org/2000/svg" width="300" height="300" viewBox="0 0 300 300">
<path d="M 128.0 110.0 L 128.0 110.0 L 128.0 110.0 L 128.0 110.0 L 135.0 110.0 L 150.0 110.0 L 167.0 109.0 L 180.0 109.0 L 186.0 109.0 L 187.0 109.0 " stroke="black" fill="none" stroke-width="5.0" stroke-linecap="round" stroke-linejoin="round" />
<path d="M 162.0 114.0 L 162.0 114.0 L 162.0 114.0 L 161.0 115.0 L 159.0 117.0 L 154.0 123.0 L 144.0 134.0 L 129.0 148.0 L 116.0 158.0 L 113.0 160.0 " stroke="black" fill="none" stroke-width="5.0" stroke-linecap="round" stroke-linejoin="round" />
<path d="M 150.0 136.0 L 150.0 136.0 L 150.0 136.0 L 150.0 137.0 L 150.0 139.0 L 150.0 146.0 L 150.0 159.0 L 150.0 172.0 L 151.0 181.0 L 151.0 182.0 " stroke="black" fill="none" stroke-width="5.0" stroke-linecap="round" stroke-linejoin="round" />
<path d="M 154.0 146.0 L 154.0 146.0 L 154.0 146.0 L 157.0 146.0 L 165.0 150.0 L 176.0 157.0 L 186.0 163.0 L 192.0 166.0 " stroke="black" fill="none" stroke-width="5.0" stroke-linecap="round" stroke-linejoin="round" />
</svg>