<svg xmlns="http://www.w3.org/2000/svg" width="300" height="300" viewBox="0 0 300 300">
<path d="M 131.0 121.0 L 131.0 121.0 L 131.0 121.0 L 134.0 121.0 L 143.0 121.0 L 157.0 121.0 L 170.0 122.0 L 179.0 123.0 L 182.0 123.0 " stroke="black" fill="none" stroke-width="5.0" stroke-linecap="round" stroke-linejoin="round" />
<path d="M 162.0 122.0 L 162.0 123.0 L 163.0 123.0 L 163.0 124.0 L 161.0 127.0 L 157.0 133.0 L 147.0 144.0 L 131.0 157.0 L 118.0 166.0 L 112.0 168.0 " stroke="black" fill="none" stroke-width="5.0" stroke-linecap="round" stroke-linejoin="round" />
<path d="M 151.0 147.0 L 151.0 147.0 L 151.0 147.0 L 151.0 149.0 L 151.0 154.0 L 151.0 165.0 L 152.0 178.0 L 152.0 188.0 L 152.0 191.0 " stroke="black" fill="none" stroke-width="5.0" stroke-linecap="round" stroke-linejoin="round" />
<path d="M 154.0 157.0 L 154.0 157.0 L 154.0 157.0 L 156.0 158.0 L 163.0 163.0 L 173.0 170.0 L 182.0 175.0 L 186.0 177.0 " stroke="black" fill="none" stroke-width="5.0" stroke-linecap="round" stroke-linejoin="round" />
</svg>