<svg xmlns="http://www.w3.org/2000/svg" width="300" height="300" viewBox="0 0 300 300">
<path d="M 127.0 114.0 L 128.0 114.0 L 131.0 114.0 L 136.0 114.0 L 145.0 114.0 L 156.0 114.0 L 167.0 115.0 L 172.0 115.0 L 173.0 115.0 " stroke="black" fill="none" stroke-width="5.0" stroke-linecap="round" stroke-linejoin="round" />
<path d="M 155.0 119.0 L 155.0 119.0 L 156.0 119.0 L 156.0 119.0 L 156.0 120.0 L 155.0 122.0 L 151.0 127.0 L 142.0 136.0 L 128.0 148.0 L 116.0 157.0 L 113.0 160.0 L 113.0 160.0 " stroke="black" fill="none" stroke-width="5.0" stroke-linecap="round" stroke-linejoin="round" />
<path d="M 146.0 137.0 L 146.0 137.0 L 146.0 137.0 L 146.0 137.0 L 146.0 140.0 L 146.0 150.0 L 147.0 166.0 L 147.0 178.0 L 147.0 183.0 L 148.0 183.0 " stroke="black" fill="none" stroke-width="5.0" stroke-linecap="round" stroke-linejoin="round" />
<path d="M 151.0 150.0 L 151.0 150.0 L 151.0 150.0 L 151.0 150.0 L 153.0 151.0 L 161.0 154.0 L 173.0 157.0 L 182.0 161.0 L 187.0 163.0 L 187.0 164.0 L 187.0 164.0 " stroke="black" fill="none" stroke-width="5.0" stroke-linecap="round" stroke-linejoin="round" />
</svg>