<svg xmlns="http://www.w3.org/2000/svg" width="300" height="300" viewBox="0 0 300 300">
<path d="M 135.0 118.0 L 137.0 119.0 L 141.0 119.0 L 148.0 118.0 L 157.0 116.0 L 168.0 115.0 L 173.0 115.0 " stroke="black" fill="none" stroke-width="5.0" stroke-linecap="round" stroke-linejoin="round" />
<path d="M 158.0 119.0 L 158.0 119.0 L 158.0 120.0 L 157.0 123.0 L 154.0 131.0 L 145.0 144.0 L 130.0 160.0 L 115.0 171.0 L 108.0 175.0 " stroke="black" fill="none" stroke-width="5.0" stroke-linecap="round" stroke-linejoin="round" />
<path d="M 150.0 139.0 L 150.0 139.0 L 150.0 139.0 L 150.0 139.0 L 150.0 143.0 L 152.0 153.0 L 153.0 172.0 L 154.0 189.0 L 154.0 196.0 L 154.0 196.0 " stroke="black" fill="none" stroke-width="5.0" stroke-linecap="round" stroke-linejoin="round" />
<path d="M 153.0 155.0 L 155.0 155.0 L 157.0 156.0 L 161.0 159.0 L 172.0 164.0 L 184.0 170.0 L 192.0 174.0 L 195.0 177.0 " stroke="black" fill="none" stroke-width="5.0" stroke-linecap="round" stroke-linejoin="round" />
</svg>