<svg xmlns="http://www.w3.org/2000/svg" width="300" height="300" viewBox="0 0 300 300">
<path d="M 134.0 112.0 L 134.0 112.0 L 134.0 112.0 L 133.0 112.0 L 132.0 112.0 L 132.0 112.0 L 135.0 112.0 L 146.0 113.0 L 163.0 113.0 L 176.0 113.0 " stroke="black" fill="none" stroke-width="5.0" stroke-linecap="round" stroke-linejoin="round" />
<path d="M 159.0 116.0 L 159.0 116.0 L 159.0 117.0 L 159.0 119.0 L 156.0 123.0 L 150.0 133.0 L 139.0 146.0 L 126.0 159.0 L 117.0 166.0 " stroke="black" fill="none" stroke-width="5.0" stroke-linecap="round" stroke-linejoin="round" />
<path d="M 149.0 137.0 L 149.0 137.0 L 149.0 137.0 L 149.0 138.0 L 149.0 142.0 L 149.0 154.0 L 150.0 171.0 L 150.0 187.0 L 150.0 196.0 L 150.0 197.0 " stroke="black" fill="none" stroke-width="5.0" stroke-linecap="round" stroke-linejoin="round" />
<path d="M 151.0 153.0 L 152.0 153.0 L 154.0 153.0 L 159.0 157.0 L 170.0 163.0 L 183.0 167.0 L 193.0 170.0 L 194.0 170.0 " stroke="black" fill="none" stroke-width="5.0" stroke-linecap="round" stroke-linejoin="round" />
</svg>