<svg xmlns="http://www.w3.org/2000/svg" width="300" height="300" viewBox="0 0 300 300">
<path d="M 131.0 113.0 L 131.0 114.0 L 130.0 115.0 L 130.0 115.0 L 131.0 115.0 L 137.0 114.0 L 147.0 113.0 L 161.0 113.0 L 175.0 113.0 L 183.0 114.0 " stroke="black" fill="none" stroke-width="5.0" stroke-linecap="round" stroke-linejoin="round" />
<path d="M 164.0 117.0 L 164.0 118.0 L 164.0 119.0 L 162.0 121.0 L 159.0 125.0 L 152.0 133.0 L 142.0 145.0 L 129.0 156.0 L 119.0 163.0 L 117.0 165.0 " stroke="black" fill="none" stroke-width="5.0" stroke-linecap="round" stroke-linejoin="round" />
<path d="M 150.0 143.0 L 150.0 143.0 L 150.0 142.0 L 150.0 141.0 L 150.0 141.0 L 150.0 144.0 L 150.0 153.0 L 150.0 168.0 L 149.0 181.0 L 148.0 188.0 L 148.0 189.0 " stroke="black" fill="none" stroke-width="5.0" stroke-linecap="round" stroke-linejoin="round" />
<path d="M 151.0 155.0 L 152.0 155.0 L 153.0 155.0 L 157.0 156.0 L 166.0 160.0 L 178.0 166.0 L 187.0 172.0 L 191.0 175.0 " stroke="black" fill="none" stroke-width="5.0" stroke-linecap="round" stroke-linejoin="round" />
</svg>