<svg xmlns="http://www.w3.org/2000/svg" width="300" height="300" viewBox="0 0 300 300">
<path d="M 120.0 114.0 L 120.0 114.0 L 121.0 115.0 L 121.0 115.0 L 121.0 115.0 L 122.0 115.0 L 127.0 114.0 L 140.0 111.0 L 158.0 108.0 L 174.0 105.0 L 184.0 104.0 L 187.0 104.0 " stroke="black" fill="none" stroke-width="5.0" stroke-linecap="round" stroke-linejoin="round" />
<path d="M 159.0 115.0 L 159.0 115.0 L 160.0 115.0 L 161.0 115.0 L 161.0 115.0 L 161.0 116.0 L 157.0 120.0 L 149.0 131.0 L 135.0 148.0 L 118.0 165.0 L 110.0 172.0 L 110.0 172.0 " stroke="black" fill="none" stroke-width="5.0" stroke-linecap="round" stroke-linejoin="round" />
<path d="M 151.0 136.0 L 151.0 135.0 L 151.0 135.0 L 151.0 134.0 L 151.0 137.0 L 154.0 149.0 L 157.0 168.0 L 159.0 183.0 L 160.0 189.0 L 160.0 190.0 " stroke="black" fill="none" stroke-width="5.0" stroke-linecap="round" stroke-linejoin="round" />
<path d="M 157.0 147.0 L 157.0 147.0 L 159.0 148.0 L 165.0 149.0 L 178.0 154.0 L 191.0 162.0 L 198.0 169.0 L 199.0 170.0 " stroke="black" fill="none" stroke-width="5.0" stroke-linecap="round" stroke-linejoin="round" />
</svg>