<svg xmlns="http://www.w3.org/2000/svg" width="300" height="300" viewBox="0 0 300 300">
<path d="M 124.0 120.0 L 126.0 120.0 L 130.0 120.0 L 137.0 120.0 L 148.0 119.0 L 159.0 118.0 L 168.0 116.0 L 172.0 115.0 L 172.0 115.0 " stroke="black" fill="none" stroke-width="5.0" stroke-linecap="round" stroke-linejoin="round" />
<path d="M 154.0 121.0 L 154.0 121.0 L 154.0 122.0 L 153.0 123.0 L 151.0 126.0 L 146.0 133.0 L 137.0 142.0 L 125.0 153.0 L 116.0 160.0 L 113.0 162.0 " stroke="black" fill="none" stroke-width="5.0" stroke-linecap="round" stroke-linejoin="round" />
<path d="M 147.0 140.0 L 147.0 140.0 L 147.0 140.0 L 147.0 140.0 L 147.0 143.0 L 148.0 151.0 L 150.0 163.0 L 151.0 176.0 L 152.0 184.0 L 153.0 186.0 L 153.0 185.0 " stroke="black" fill="none" stroke-width="5.0" stroke-linecap="round" stroke-linejoin="round" />
<path d="M 150.0 147.0 L 150.0 147.0 L 151.0 147.0 L 152.0 147.0 L 157.0 148.0 L 167.0 153.0 L 178.0 158.0 L 187.0 160.0 L 191.0 161.0 L 191.0 161.0 L 191.0 160.0 " stroke="black" fill="none" stroke-width="5.0" stroke-linecap="round" stroke-linejoin="round" />
</svg>