<svg xmlns="http://www.w3.org/2000/svg" width="300" height="300" viewBox="0 0 300 300">
<path d="M 126.0 116.0 L 126.0 117.0 L 127.0 118.0 L 129.0 118.0 L 135.0 118.0 L 147.0 118.0 L 162.0 116.0 L 175.0 116.0 L 182.0 116.0 L 183.0 116.0 " stroke="black" fill="none" stroke-width="5.0" stroke-linecap="round" stroke-linejoin="round" />
<path d="M 158.0 121.0 L 158.0 121.0 L 158.0 121.0 L 159.0 120.0 L 159.0 120.0 L 159.0 121.0 L 157.0 129.0 L 148.0 142.0 L 133.0 158.0 L 117.0 171.0 L 111.0 176.0 " stroke="black" fill="none" stroke-width="5.0" stroke-linecap="round" stroke-linejoin="round" />
<path d="M 147.0 146.0 L 147.0 146.0 L 147.0 146.0 L 147.0 149.0 L 148.0 158.0 L 149.0 174.0 L 150.0 186.0 L 150.0 193.0 L 150.0 194.0 " stroke="black" fill="none" stroke-width="5.0" stroke-linecap="round" stroke-linejoin="round" />
<path d="M 150.0 151.0 L 150.0 151.0 L 151.0 151.0 L 155.0 153.0 L 166.0 157.0 L 180.0 161.0 L 188.0 163.0 " stroke="black" fill="none" stroke-width="5.0" stroke-linecap="round" stroke-linejoin="round" />
</svg>