<svg xmlns="http://www.w3.org/2000/svg" width="300" height="300" viewBox="0 0 300 300">
<path d="M 137.0 109.0 L 137.0 109.0 L 137.0 109.0 L 137.0 109.0 L 138.0 109.0 L 140.0 111.0 L 144.0 116.0 L 146.0 120.0 " stroke="black" fill="none" stroke-width="5.0" stroke-linecap="round" stroke-linejoin="round" />
<path d="M 117.0 128.0 L 117.0 128.0 L 117.0 128.0 L 118.0 128.0 L 126.0 129.0 L 141.0 129.0 L 156.0 130.0 L 167.0 130.0 L 175.0 130.0 L 178.0 130.0 L 179.0 130.0 " stroke="black" fill="none" stroke-width="5.0" stroke-linecap="round" stroke-linejoin="round" />
<path d="M 133.0 152.0 L 133.0 152.0 L 133.0 153.0 L 133.0 157.0 L 131.0 167.0 L 127.0 178.0 L 125.0 183.0 " stroke="black" fill="none" stroke-width="5.0" stroke-linecap="round" stroke-linejoin="round" />
<path d="M 160.0 156.0 L 161.0 156.0 L 163.0 156.0 L 166.0 159.0 L 171.0 167.0 L 177.0 177.0 L 182.0 185.0 L 185.0 191.0 L 185.0 191.0 " stroke="black" fill="none" stroke-width="5.0" stroke-linecap="round" stroke-linejoin="round" />
</svg>