<svg xmlns="http://www.w3.org/2000/svg" width="300" height="300" viewBox="0 0 300 300">
<path d="M 115.0 113.0 L 115.0 113.0 L 115.0 113.0 L 115.0 113.0 L 115.0 113.0 L 117.0 113.0 L 124.0 113.0 L 134.0 113.0 L 141.0 113.0 L 144.0 113.0 L 145.0 113.0 " stroke="black" fill="none" stroke-width="5.0" stroke-linecap="round" stroke-linejoin="round" />
<path d="M 132.0 117.0 L 132.0 117.0 L 132.0 118.0 L 132.0 118.0 L 132.0 120.0 L 133.0 128.0 L 135.0 144.0 L 137.0 165.0 L 137.0 183.0 L 137.0 194.0 L 137.0 198.0 L 137.0 199.0 L 137.0 198.0 " stroke="black" fill="none" stroke-width="5.0" stroke-linecap="round" stroke-linejoin="round" />
<path d="M 114.0 123.0 L 114.0 123.0 L 115.0 123.0 L 115.0 123.0 L 116.0 127.0 L 116.0 137.0 L 116.0 150.0 L 116.0 159.0 L 116.0 161.0 L 115.0 161.0 " stroke="black" fill="none" stroke-width="5.0" stroke-linecap="round" stroke-linejoin="round" />
<path d="M 117.0 140.0 L 117.0 140.0 L 118.0 140.0 L 119.0 140.0 L 122.0 140.0 L 127.0 140.0 L 132.0 140.0 L 134.0 140.0 " stroke="black" fill="none" stroke-width="5.0" stroke-linecap="round" stroke-linejoin="round" />
<path d="M 117.0 152.0 L 118.0 152.0 L 119.0 152.0 L 121.0 152.0 L 125.0 152.0 L 130.0 153.0 L 130.0 153.0 " stroke="black" fill="none" stroke-width="5.0" stroke-linecap="round" stroke-linejoin="round" />
<path d="M 103.0 168.0 L 104.0 169.0 L 105.0 169.0 L 108.0 170.0 L 115.0 170.0 L 126.0 169.0 L 129.0 168.0 " stroke="black" fill="none" stroke-width="5.0" stroke-linecap="round" stroke-linejoin="round" />
<path d="M 150.0 138.0 L 150.0 138.0 L 150.0 138.0 L 150.0 138.0 L 152.0 138.0 L 155.0 137.0 L 162.0 136.0 L 168.0 136.0 L 171.0 136.0 L 173.0 136.0 L 173.0 141.0 L 171.0 148.0 L 168.0 158.0 L 164.0 167.0 L 159.0 174.0 L 155.0 179.0 " stroke="black" fill="none" stroke-width="5.0" stroke-linecap="round" stroke-linejoin="round" />
<path d="M 154.0 150.0 L 154.0 150.0 L 154.0 150.0 L 154.0 150.0 L 157.0 153.0 L 167.0 165.0 L 180.0 179.0 L 189.0 187.0 L 192.0 191.0 L 192.0 191.0 L 192.0 190.0 " stroke="black" fill="none" stroke-width="5.0" stroke-linecap="round" stroke-linejoin="round" />
</svg>