<svg xmlns="http://www.w3.org/2000/svg" width="300" height="300" viewBox="0 0 300 300">
<path d="M 111.0 113.0 L 111.0 113.0 L 111.0 113.0 L 111.0 113.0 L 111.0 113.0 L 111.0 113.0 L 111.0 114.0 L 111.0 118.0 L 111.0 125.0 L 110.0 133.0 L 109.0 139.0 L 109.0 142.0 L 109.0 143.0 L 112.0 144.0 L 117.0 144.0 L 124.0 144.0 L 131.0 144.0 L 137.0 144.0 L 141.0 144.0 L 142.0 144.0 " stroke="black" fill="none" stroke-width="5.0" stroke-linecap="round" stroke-linejoin="round" />
<path d="M 122.0 113.0 L 122.0 113.0 L 122.0 113.0 L 122.0 113.0 L 123.0 113.0 L 123.0 113.0 L 124.0 113.0 L 126.0 113.0 L 128.0 113.0 L 129.0 113.0 " stroke="black" fill="none" stroke-width="5.0" stroke-linecap="round" stroke-linejoin="round" />
<path d="M 118.0 123.0 L 119.0 123.0 L 119.0 124.0 L 121.0 124.0 L 123.0 125.0 L 126.0 125.0 L 128.0 125.0 " stroke="black" fill="none" stroke-width="5.0" stroke-linecap="round" stroke-linejoin="round" />
<path d="M 115.0 130.0 L 115.0 131.0 L 116.0 131.0 L 118.0 131.0 L 122.0 131.0 L 127.0 131.0 L 128.0 131.0 " stroke="black" fill="none" stroke-width="5.0" stroke-linecap="round" stroke-linejoin="round" />
<path d="M 125.0 106.0 L 125.0 106.0 L 125.0 107.0 L 124.0 112.0 L 124.0 120.0 L 122.0 131.0 L 122.0 135.0 " stroke="black" fill="none" stroke-width="5.0" stroke-linecap="round" stroke-linejoin="round" />
<path d="M 138.0 109.0 L 138.0 109.0 L 137.0 110.0 L 137.0 111.0 L 137.0 115.0 L 136.0 123.0 L 135.0 133.0 L 135.0 139.0 L 135.0 140.0 " stroke="black" fill="none" stroke-width="5.0" stroke-linecap="round" stroke-linejoin="round" />
<path d="M 144.0 114.0 L 144.0 114.0 L 144.0 114.0 L 144.0 114.0 L 145.0 114.0 L 147.0 115.0 L 150.0 115.0 L 151.0 115.0 " stroke="black" fill="none" stroke-width="5.0" stroke-linecap="round" stroke-linejoin="round" />
<path d="M 143.0 125.0 L 144.0 125.0 L 146.0 126.0 L 148.0 126.0 L 151.0 126.0 " stroke="black" fill="none" stroke-width="5.0" stroke-linecap="round" stroke-linejoin="round" />
<path d="M 140.0 133.0 L 140.0 133.0 L 141.0 134.0 L 144.0 134.0 L 148.0 134.0 L 150.0 134.0 " stroke="black" fill="none" stroke-width="5.0" stroke-linecap="round" stroke-linejoin="round" />
<path d="M 149.0 108.0 L 149.0 108.0 L 149.0 109.0 L 148.0 112.0 L 148.0 120.0 L 148.0 130.0 L 148.0 139.0 " stroke="black" fill="none" stroke-width="5.0" stroke-linecap="round" stroke-linejoin="round" />
<path d="M 159.0 117.0 L 159.0 118.0 L 159.0 119.0 L 158.0 122.0 L 158.0 127.0 L 158.0 136.0 L 157.0 145.0 L 156.0 147.0 " stroke="black" fill="none" stroke-width="5.0" stroke-linecap="round" stroke-linejoin="round" />
<path d="M 119.0 154.0 L 119.0 154.0 L 120.0 154.0 L 121.0 154.0 L 124.0 154.0 L 132.0 154.0 L 139.0 154.0 L 143.0 154.0 L 144.0 154.0 " stroke="black" fill="none" stroke-width="5.0" stroke-linecap="round" stroke-linejoin="round" />
<path d="M 118.0 163.0 L 118.0 164.0 L 118.0 166.0 L 118.0 168.0 L 118.0 170.0 L 118.0 171.0 " stroke="black" fill="none" stroke-width="5.0" stroke-linecap="round" stroke-linejoin="round" />
<path d="M 122.0 162.0 L 122.0 162.0 L 122.0 162.0 L 124.0 162.0 L 129.0 162.0 L 137.0 162.0 L 143.0 162.0 L 147.0 162.0 L 148.0 165.0 L 148.0 168.0 L 148.0 172.0 L 147.0 174.0 " stroke="black" fill="none" stroke-width="5.0" stroke-linecap="round" stroke-linejoin="round" />
<path d="M 118.0 175.0 L 118.0 175.0 L 118.0 175.0 L 119.0 175.0 L 124.0 175.0 L 132.0 175.0 L 138.0 175.0 L 141.0 175.0 " stroke="black" fill="none" stroke-width="5.0" stroke-linecap="round" stroke-linejoin="round" />
<path d="M 120.0 177.0 L 120.0 177.0 L 120.0 179.0 L 121.0 181.0 L 122.0 185.0 L 124.0 188.0 " stroke="black" fill="none" stroke-width="5.0" stroke-linecap="round" stroke-linejoin="round" />
<path d="M 143.0 178.0 L 143.0 178.0 L 142.0 178.0 L 142.0 179.0 L 141.0 182.0 L 141.0 186.0 L 140.0 188.0 " stroke="black" fill="none" stroke-width="5.0" stroke-linecap="round" stroke-linejoin="round" />
<path d="M 111.0 191.0 L 111.0 191.0 L 111.0 191.0 L 111.0 191.0 L 115.0 191.0 L 126.0 191.0 L 142.0 190.0 L 152.0 189.0 L 155.0 189.0 " stroke="black" fill="none" stroke-width="5.0" stroke-linecap="round" stroke-linejoin="round" />
<path d="M 174.0 122.0 L 174.0 122.0 L 174.0 122.0 L 174.0 122.0 L 175.0 122.0 L 178.0 122.0 L 184.0 122.0 L 188.0 122.0 L 190.0 121.0 " stroke="black" fill="none" stroke-width="5.0" stroke-linecap="round" stroke-linejoin="round" />
<path d="M 168.0 133.0 L 168.0 133.0 L 169.0 133.0 L 172.0 133.0 L 178.0 133.0 L 186.0 133.0 L 192.0 133.0 L 194.0 133.0 " stroke="black" fill="none" stroke-width="5.0" stroke-linecap="round" stroke-linejoin="round" />
<path d="M 183.0 114.0 L 183.0 114.0 L 183.0 114.0 L 183.0 114.0 L 182.0 116.0 L 182.0 122.0 L 183.0 130.0 " stroke="black" fill="none" stroke-width="5.0" stroke-linecap="round" stroke-linejoin="round" />
<path d="M 184.0 138.0 L 183.0 138.0 L 182.0 138.0 L 180.0 140.0 L 177.0 142.0 L 174.0 145.0 L 171.0 149.0 L 167.0 154.0 L 166.0 157.0 L 166.0 159.0 L 171.0 160.0 L 178.0 160.0 L 186.0 160.0 L 189.0 159.0 " stroke="black" fill="none" stroke-width="5.0" stroke-linecap="round" stroke-linejoin="round" />
<path d="M 194.0 152.0 L 194.0 152.0 L 194.0 152.0 L 194.0 154.0 L 195.0 156.0 L 198.0 160.0 L 200.0 163.0 " stroke="black" fill="none" stroke-width="5.0" stroke-linecap="round" stroke-linejoin="round" />
<path d="M 163.0 175.0 L 163.0 175.0 L 163.0 175.0 L 163.0 176.0 L 163.0 180.0 L 163.0 186.0 L 164.0 191.0 L 164.0 192.0 " stroke="black" fill="none" stroke-width="5.0" stroke-linecap="round" stroke-linejoin="round" />
<path d="M 165.0 175.0 L 165.0 175.0 L 165.0 175.0 L 167.0 175.0 L 171.0 175.0 L 180.0 174.0 L 190.0 173.0 L 197.0 173.0 L 199.0 174.0 L 200.0 178.0 L 200.0 182.0 L 199.0 187.0 L 199.0 191.0 L 198.0 193.0 " stroke="black" fill="none" stroke-width="5.0" stroke-linecap="round" stroke-linejoin="round" />
<path d="M 178.0 176.0 L 178.0 177.0 L 178.0 181.0 L 177.0 186.0 L 177.0 189.0 " stroke="black" fill="none" stroke-width="5.0" stroke-linecap="round" stroke-linejoin="round" />
<path d="M 189.0 178.0 L 189.0 178.0 L 188.0 180.0 L 187.0 182.0 L 187.0 185.0 L 187.0 188.0 " stroke="black" fill="none" stroke-width="5.0" stroke-linecap="round" stroke-linejoin="round" />
<path d="M 154.0 197.0 L 155.0 197.0 L 157.0 197.0 L 163.0 197.0 L 174.0 197.0 L 189.0 197.0 L 201.0 197.0 L 207.0 197.0 L 209.0 197.0 L 209.0 197.0 L 209.0 197.0 L 209.0 197.0 " stroke="black" fill="none" stroke-width="5.0" stroke-linecap="round" stroke-linejoin="round" />
</svg>