<svg xmlns="http://www.w3.org/2000/svg" width="300" height="300" viewBox="0 0 300 300">
<path d="M 123.0 119.0 L 123.0 119.0 L 124.0 119.0 L 130.0 118.0 L 145.0 117.0 L 163.0 116.0 L 175.0 116.0 L 179.0 118.0 " stroke="black" fill="none" stroke-width="5.0" stroke-linecap="round" stroke-linejoin="round" />
<path d="M 167.0 123.0 L 167.0 123.0 L 167.0 124.0 L 167.0 124.0 L 167.0 125.0 L 168.0 126.0 L 169.0 128.0 L 170.0 135.0 L 172.0 146.0 L 174.0 162.0 L 176.0 178.0 L 177.0 189.0 L 177.0 196.0 L 177.0 200.0 L 177.0 201.0 L 175.0 201.0 L 170.0 199.0 L 161.0 195.0 L 153.0 192.0 " stroke="black" fill="none" stroke-width="5.0" stroke-linecap="round" stroke-linejoin="round" />
<path d="M 132.0 149.0 L 132.0 149.0 L 132.0 149.0 L 132.0 149.0 L 132.0 150.0 L 133.0 153.0 L 133.0 157.0 L 133.0 159.0 " stroke="black" fill="none" stroke-width="5.0" stroke-linecap="round" stroke-linejoin="round" />
<path d="M 134.0 146.0 L 134.0 146.0 L 134.0 146.0 L 135.0 146.0 L 137.0 146.0 L 141.0 146.0 L 145.0 146.0 L 149.0 146.0 L 152.0 146.0 L 154.0 148.0 L 155.0 152.0 L 156.0 158.0 L 156.0 163.0 L 156.0 163.0 " stroke="black" fill="none" stroke-width="5.0" stroke-linecap="round" stroke-linejoin="round" />
<path d="M 134.0 165.0 L 134.0 165.0 L 134.0 165.0 L 136.0 166.0 L 143.0 167.0 L 150.0 167.0 " stroke="black" fill="none" stroke-width="5.0" stroke-linecap="round" stroke-linejoin="round" />
</svg>