<svg xmlns="http://www.w3.org/2000/svg" width="300" height="300" viewBox="0 0 300 300">
<path d="M 124.0 127.0 L 125.0 127.0 L 126.0 127.0 L 128.0 127.0 L 133.0 127.0 L 145.0 127.0 L 161.0 126.0 L 174.0 124.0 L 181.0 124.0 L 182.0 123.0 L 182.0 123.0 L 180.0 123.0 " stroke="black" fill="none" stroke-width="5.0" stroke-linecap="round" stroke-linejoin="round" />
<path d="M 166.0 135.0 L 166.0 135.0 L 166.0 136.0 L 166.0 136.0 L 167.0 139.0 L 168.0 147.0 L 171.0 163.0 L 173.0 181.0 L 174.0 194.0 L 174.0 202.0 L 174.0 205.0 L 173.0 205.0 L 170.0 205.0 L 164.0 203.0 L 156.0 198.0 " stroke="black" fill="none" stroke-width="5.0" stroke-linecap="round" stroke-linejoin="round" />
<path d="M 127.0 159.0 L 127.0 159.0 L 127.0 159.0 L 127.0 160.0 L 127.0 163.0 L 128.0 166.0 L 129.0 169.0 L 130.0 170.0 L 130.0 170.0 " stroke="black" fill="none" stroke-width="5.0" stroke-linecap="round" stroke-linejoin="round" />
<path d="M 131.0 157.0 L 131.0 157.0 L 131.0 157.0 L 131.0 157.0 L 132.0 157.0 L 135.0 156.0 L 141.0 155.0 L 146.0 155.0 L 151.0 156.0 L 154.0 158.0 L 156.0 162.0 L 156.0 166.0 L 156.0 169.0 L 155.0 172.0 L 155.0 172.0 " stroke="black" fill="none" stroke-width="5.0" stroke-linecap="round" stroke-linejoin="round" />
<path d="M 135.0 175.0 L 135.0 175.0 L 135.0 176.0 L 136.0 177.0 L 140.0 178.0 L 148.0 178.0 L 155.0 176.0 " stroke="black" fill="none" stroke-width="5.0" stroke-linecap="round" stroke-linejoin="round" />
</svg>