<svg xmlns="http://www.w3.org/2000/svg" width="300" height="300" viewBox="0 0 300 300">
<path d="M 132.0 109.0 L 132.0 109.0 L 132.0 109.0 L 132.0 109.0 L 132.0 109.0 L 133.0 109.0 L 137.0 109.0 L 145.0 109.0 L 154.0 110.0 L 160.0 110.0 L 163.0 110.0 L 164.0 111.0 L 164.0 111.0 L 164.0 112.0 L 164.0 116.0 L 164.0 121.0 L 164.0 127.0 L 164.0 132.0 L 164.0 133.0 " stroke="black" fill="none" stroke-width="5.0" stroke-linecap="round" stroke-linejoin="round" />
<path d="M 116.0 120.0 L 116.0 120.0 L 116.0 120.0 L 118.0 120.0 L 126.0 120.0 L 140.0 121.0 L 156.0 121.0 L 169.0 122.0 L 177.0 122.0 L 179.0 122.0 L 179.0 122.0 L 177.0 122.0 L 176.0 122.0 " stroke="black" fill="none" stroke-width="5.0" stroke-linecap="round" stroke-linejoin="round" />
<path d="M 131.0 134.0 L 131.0 134.0 L 131.0 134.0 L 131.0 134.0 L 132.0 134.0 L 138.0 134.0 L 148.0 135.0 L 158.0 135.0 L 164.0 136.0 L 165.0 136.0 L 165.0 137.0 " stroke="black" fill="none" stroke-width="5.0" stroke-linecap="round" stroke-linejoin="round" />
<path d="M 134.0 145.0 L 134.0 145.0 L 134.0 145.0 L 136.0 145.0 L 141.0 145.0 L 148.0 146.0 L 156.0 146.0 L 160.0 146.0 L 161.0 147.0 L 160.0 148.0 " stroke="black" fill="none" stroke-width="5.0" stroke-linecap="round" stroke-linejoin="round" />
<path d="M 121.0 156.0 L 122.0 157.0 L 124.0 157.0 L 129.0 158.0 L 141.0 158.0 L 158.0 158.0 L 171.0 158.0 L 180.0 158.0 L 180.0 158.0 " stroke="black" fill="none" stroke-width="5.0" stroke-linecap="round" stroke-linejoin="round" />
<path d="M 149.0 99.0 L 149.0 99.0 L 149.0 99.0 L 149.0 101.0 L 151.0 119.0 L 153.0 142.0 L 154.0 154.0 " stroke="black" fill="none" stroke-width="5.0" stroke-linecap="round" stroke-linejoin="round" />
<path d="M 122.0 166.0 L 123.0 166.0 L 123.0 167.0 L 123.0 168.0 L 123.0 170.0 L 122.0 173.0 L 121.0 174.0 " stroke="black" fill="none" stroke-width="5.0" stroke-linecap="round" stroke-linejoin="round" />
<path d="M 140.0 166.0 L 140.0 166.0 L 140.0 166.0 L 140.0 167.0 L 141.0 169.0 L 142.0 172.0 L 143.0 177.0 L 144.0 180.0 " stroke="black" fill="none" stroke-width="5.0" stroke-linecap="round" stroke-linejoin="round" />
<path d="M 153.0 167.0 L 153.0 167.0 L 153.0 168.0 L 154.0 170.0 L 155.0 173.0 L 157.0 178.0 " stroke="black" fill="none" stroke-width="5.0" stroke-linecap="round" stroke-linejoin="round" />
<path d="M 180.0 168.0 L 180.0 171.0 L 181.0 173.0 L 183.0 176.0 L 184.0 178.0 " stroke="black" fill="none" stroke-width="5.0" stroke-linecap="round" stroke-linejoin="round" />
<path d="M 126.0 188.0 L 126.0 188.0 L 126.0 189.0 L 126.0 194.0 L 128.0 200.0 L 129.0 204.0 " stroke="black" fill="none" stroke-width="5.0" stroke-linecap="round" stroke-linejoin="round" />
<path d="M 129.0 187.0 L 129.0 187.0 L 130.0 187.0 L 132.0 187.0 L 140.0 187.0 L 153.0 186.0 L 166.0 186.0 L 174.0 187.0 L 178.0 189.0 L 179.0 192.0 L 179.0 195.0 L 180.0 199.0 L 180.0 202.0 " stroke="black" fill="none" stroke-width="5.0" stroke-linecap="round" stroke-linejoin="round" />
<path d="M 144.0 190.0 L 144.0 191.0 L 144.0 194.0 L 145.0 200.0 L 146.0 204.0 " stroke="black" fill="none" stroke-width="5.0" stroke-linecap="round" stroke-linejoin="round" />
<path d="M 161.0 193.0 L 161.0 193.0 L 161.0 193.0 L 161.0 193.0 L 161.0 193.0 L 160.0 196.0 L 160.0 197.0 " stroke="black" fill="none" stroke-width="5.0" stroke-linecap="round" stroke-linejoin="round" />
<path d="M 113.0 205.0 L 113.0 205.0 L 113.0 205.0 L 115.0 205.0 L 124.0 205.0 L 143.0 206.0 L 163.0 206.0 L 179.0 207.0 L 190.0 207.0 L 194.0 207.0 L 195.0 207.0 L 195.0 207.0 L 194.0 207.0 " stroke="black" fill="none" stroke-width="5.0" stroke-linecap="round" stroke-linejoin="round" />
</svg>