<svg xmlns="http://www.w3.org/2000/svg" width="300" height="300" viewBox="0 0 300 300">
<path d="M 165.0 106.0 L 165.0 106.0 L 165.0 106.0 L 165.0 106.0 L 165.0 106.0 L 164.0 106.0 L 160.0 109.0 L 149.0 117.0 L 133.0 128.0 L 127.0 132.0 " stroke="black" fill="none" stroke-width="5.0" stroke-linecap="round" stroke-linejoin="round" />
<path d="M 132.0 134.0 L 132.0 134.0 L 132.0 134.0 L 133.0 136.0 L 136.0 139.0 L 140.0 143.0 L 141.0 144.0 " stroke="black" fill="none" stroke-width="5.0" stroke-linecap="round" stroke-linejoin="round" />
<path d="M 169.0 125.0 L 169.0 125.0 L 169.0 126.0 L 169.0 127.0 L 168.0 132.0 L 165.0 138.0 L 162.0 142.0 " stroke="black" fill="none" stroke-width="5.0" stroke-linecap="round" stroke-linejoin="round" />
<path d="M 119.0 159.0 L 119.0 159.0 L 119.0 159.0 L 120.0 159.0 L 127.0 159.0 L 144.0 158.0 L 164.0 155.0 L 180.0 154.0 L 185.0 154.0 L 186.0 154.0 " stroke="black" fill="none" stroke-width="5.0" stroke-linecap="round" stroke-linejoin="round" />
<path d="M 149.0 120.0 L 149.0 120.0 L 149.0 120.0 L 149.0 120.0 L 150.0 124.0 L 153.0 136.0 L 157.0 156.0 L 159.0 175.0 L 160.0 185.0 L 160.0 189.0 L 159.0 192.0 L 156.0 194.0 L 150.0 194.0 L 141.0 193.0 L 129.0 188.0 " stroke="black" fill="none" stroke-width="5.0" stroke-linecap="round" stroke-linejoin="round" />
</svg>