<svg xmlns="http://www.w3.org/2000/svg" width="300" height="300" viewBox="0 0 300 300">
<path d="M 118.0 109.0 L 118.0 109.0 L 118.0 109.0 L 118.0 109.0 L 120.0 109.0 L 126.0 109.0 L 134.0 109.0 L 142.0 108.0 L 144.0 108.0 " stroke="black" fill="none" stroke-width="5.0" stroke-linecap="round" stroke-linejoin="round" />
<path d="M 115.0 113.0 L 115.0 113.0 L 114.0 113.0 L 113.0 118.0 L 112.0 130.0 L 109.0 147.0 L 105.0 163.0 L 102.0 173.0 L 101.0 178.0 L 101.0 179.0 " stroke="black" fill="none" stroke-width="5.0" stroke-linecap="round" stroke-linejoin="round" />
<path d="M 129.0 113.0 L 129.0 113.0 L 128.0 113.0 L 128.0 113.0 L 128.0 114.0 L 128.0 116.0 L 130.0 120.0 L 131.0 124.0 L 131.0 125.0 " stroke="black" fill="none" stroke-width="5.0" stroke-linecap="round" stroke-linejoin="round" />
<path d="M 118.0 124.0 L 119.0 125.0 L 119.0 126.0 L 119.0 128.0 L 119.0 131.0 L 120.0 136.0 L 121.0 141.0 L 122.0 143.0 L 122.0 144.0 " stroke="black" fill="none" stroke-width="5.0" stroke-linecap="round" stroke-linejoin="round" />
<path d="M 122.0 126.0 L 122.0 126.0 L 123.0 126.0 L 124.0 126.0 L 128.0 126.0 L 133.0 126.0 L 139.0 126.0 L 144.0 127.0 L 147.0 129.0 L 148.0 133.0 L 149.0 138.0 L 149.0 143.0 L 149.0 147.0 L 149.0 147.0 " stroke="black" fill="none" stroke-width="5.0" stroke-linecap="round" stroke-linejoin="round" />
<path d="M 125.0 136.0 L 125.0 136.0 L 126.0 136.0 L 128.0 136.0 L 131.0 136.0 L 136.0 137.0 L 142.0 137.0 L 146.0 138.0 L 147.0 139.0 " stroke="black" fill="none" stroke-width="5.0" stroke-linecap="round" stroke-linejoin="round" />
<path d="M 123.0 148.0 L 124.0 148.0 L 125.0 149.0 L 130.0 149.0 L 137.0 150.0 L 143.0 150.0 L 147.0 150.0 L 148.0 150.0 " stroke="black" fill="none" stroke-width="5.0" stroke-linecap="round" stroke-linejoin="round" />
<path d="M 132.0 150.0 L 132.0 150.0 L 132.0 150.0 L 132.0 150.0 L 133.0 153.0 L 134.0 161.0 L 135.0 172.0 L 136.0 181.0 L 136.0 186.0 L 136.0 187.0 L 135.0 186.0 L 131.0 183.0 L 124.0 178.0 " stroke="black" fill="none" stroke-width="5.0" stroke-linecap="round" stroke-linejoin="round" />
<path d="M 124.0 158.0 L 124.0 158.0 L 124.0 158.0 L 124.0 159.0 L 122.0 163.0 L 120.0 169.0 L 117.0 175.0 L 117.0 176.0 " stroke="black" fill="none" stroke-width="5.0" stroke-linecap="round" stroke-linejoin="round" />
<path d="M 141.0 163.0 L 142.0 164.0 L 144.0 166.0 L 146.0 170.0 L 148.0 174.0 L 151.0 179.0 " stroke="black" fill="none" stroke-width="5.0" stroke-linecap="round" stroke-linejoin="round" />
<path d="M 158.0 109.0 L 158.0 109.0 L 158.0 109.0 L 159.0 109.0 L 162.0 109.0 L 167.0 109.0 L 173.0 109.0 L 176.0 109.0 " stroke="black" fill="none" stroke-width="5.0" stroke-linecap="round" stroke-linejoin="round" />
<path d="M 164.0 113.0 L 164.0 114.0 L 163.0 114.0 L 162.0 115.0 L 160.0 118.0 L 159.0 120.0 L 158.0 123.0 L 158.0 125.0 L 159.0 126.0 L 163.0 127.0 L 167.0 128.0 L 172.0 128.0 L 176.0 128.0 L 178.0 128.0 L 180.0 129.0 L 182.0 133.0 L 184.0 141.0 L 187.0 152.0 L 189.0 161.0 L 190.0 167.0 L 191.0 169.0 L 191.0 170.0 L 190.0 170.0 " stroke="black" fill="none" stroke-width="5.0" stroke-linecap="round" stroke-linejoin="round" />
<path d="M 157.0 129.0 L 157.0 129.0 L 157.0 129.0 L 156.0 130.0 L 155.0 139.0 L 155.0 153.0 L 155.0 164.0 L 155.0 168.0 " stroke="black" fill="none" stroke-width="5.0" stroke-linecap="round" stroke-linejoin="round" />
<path d="M 157.0 140.0 L 158.0 140.0 L 158.0 140.0 L 160.0 140.0 L 165.0 140.0 L 172.0 140.0 L 178.0 141.0 L 182.0 142.0 L 182.0 142.0 " stroke="black" fill="none" stroke-width="5.0" stroke-linecap="round" stroke-linejoin="round" />
<path d="M 156.0 153.0 L 156.0 154.0 L 157.0 155.0 L 160.0 156.0 L 167.0 156.0 L 175.0 156.0 L 181.0 156.0 L 182.0 157.0 " stroke="black" fill="none" stroke-width="5.0" stroke-linecap="round" stroke-linejoin="round" />
<path d="M 156.0 169.0 L 156.0 169.0 L 157.0 170.0 L 160.0 170.0 L 167.0 170.0 L 176.0 170.0 L 182.0 170.0 L 183.0 170.0 " stroke="black" fill="none" stroke-width="5.0" stroke-linecap="round" stroke-linejoin="round" />
<path d="M 163.0 172.0 L 163.0 172.0 L 163.0 172.0 L 162.0 173.0 L 161.0 176.0 L 161.0 183.0 L 159.0 191.0 L 159.0 193.0 " stroke="black" fill="none" stroke-width="5.0" stroke-linecap="round" stroke-linejoin="round" />
<path d="M 176.0 175.0 L 176.0 176.0 L 176.0 177.0 L 178.0 180.0 L 182.0 186.0 L 186.0 194.0 L 189.0 199.0 " stroke="black" fill="none" stroke-width="5.0" stroke-linecap="round" stroke-linejoin="round" />
</svg>