<svg xmlns="http://www.w3.org/2000/svg" width="300" height="300" viewBox="0 0 300 300">
<path d="M 145.0 102.0 L 145.0 102.0 L 145.0 102.0 L 144.0 102.0 L 144.0 103.0 L 144.0 106.0 L 148.0 112.0 L 150.0 114.0 " stroke="black" fill="none" stroke-width="5.0" stroke-linecap="round" stroke-linejoin="round" />
<path d="M 116.0 126.0 L 116.0 126.0 L 116.0 126.0 L 116.0 126.0 L 119.0 126.0 L 130.0 125.0 L 148.0 122.0 L 164.0 120.0 L 174.0 119.0 L 179.0 119.0 L 180.0 119.0 " stroke="black" fill="none" stroke-width="5.0" stroke-linecap="round" stroke-linejoin="round" />
<path d="M 137.0 131.0 L 137.0 131.0 L 137.0 131.0 L 136.0 131.0 L 135.0 132.0 L 133.0 135.0 L 127.0 144.0 L 116.0 159.0 L 106.0 171.0 L 103.0 177.0 " stroke="black" fill="none" stroke-width="5.0" stroke-linecap="round" stroke-linejoin="round" />
<path d="M 129.0 154.0 L 129.0 154.0 L 129.0 154.0 L 129.0 154.0 L 129.0 155.0 L 129.0 161.0 L 129.0 173.0 L 130.0 183.0 L 136.0 187.0 L 148.0 183.0 L 151.0 180.0 " stroke="black" fill="none" stroke-width="5.0" stroke-linecap="round" stroke-linejoin="round" />
<path d="M 185.0 135.0 L 184.0 135.0 L 183.0 136.0 L 182.0 137.0 L 179.0 140.0 L 175.0 145.0 L 170.0 151.0 " stroke="black" fill="none" stroke-width="5.0" stroke-linecap="round" stroke-linejoin="round" />
<path d="M 146.0 135.0 L 146.0 134.0 L 146.0 134.0 L 147.0 134.0 L 155.0 144.0 L 171.0 164.0 L 185.0 183.0 L 191.0 193.0 L 193.0 197.0 L 194.0 198.0 L 195.0 197.0 " stroke="black" fill="none" stroke-width="5.0" stroke-linecap="round" stroke-linejoin="round" />
</svg>