<svg xmlns="http://www.w3.org/2000/svg" width="300" height="300" viewBox="0 0 300 300">
<path d="M 141.0 102.0 L 141.0 102.0 L 141.0 102.0 L 141.0 102.0 L 141.0 102.0 L 143.0 103.0 L 148.0 107.0 L 154.0 111.0 L 155.0 113.0 " stroke="black" fill="none" stroke-width="5.0" stroke-linecap="round" stroke-linejoin="round" />
<path d="M 117.0 125.0 L 118.0 125.0 L 119.0 125.0 L 124.0 126.0 L 136.0 125.0 L 154.0 122.0 L 168.0 122.0 L 174.0 122.0 L 175.0 123.0 " stroke="black" fill="none" stroke-width="5.0" stroke-linecap="round" stroke-linejoin="round" />
<path d="M 140.0 128.0 L 140.0 128.0 L 140.0 128.0 L 140.0 128.0 L 140.0 129.0 L 137.0 135.0 L 128.0 148.0 L 116.0 163.0 L 109.0 171.0 " stroke="black" fill="none" stroke-width="5.0" stroke-linecap="round" stroke-linejoin="round" />
<path d="M 130.0 154.0 L 130.0 154.0 L 130.0 154.0 L 130.0 154.0 L 130.0 155.0 L 129.0 158.0 L 129.0 165.0 L 129.0 174.0 L 130.0 181.0 L 133.0 185.0 L 139.0 186.0 L 147.0 181.0 L 149.0 179.0 " stroke="black" fill="none" stroke-width="5.0" stroke-linecap="round" stroke-linejoin="round" />
<path d="M 186.0 148.0 L 185.0 148.0 L 184.0 148.0 L 183.0 149.0 L 180.0 152.0 L 176.0 157.0 " stroke="black" fill="none" stroke-width="5.0" stroke-linecap="round" stroke-linejoin="round" />
<path d="M 151.0 131.0 L 151.0 131.0 L 150.0 131.0 L 150.0 131.0 L 153.0 137.0 L 164.0 157.0 L 178.0 182.0 L 186.0 196.0 L 188.0 201.0 L 189.0 202.0 L 189.0 201.0 " stroke="black" fill="none" stroke-width="5.0" stroke-linecap="round" stroke-linejoin="round" />
</svg>