<svg xmlns="http://www.w3.org/2000/svg" width="300" height="300" viewBox="0 0 300 300">
<path d="M 140.0 106.0 L 140.0 106.0 L 141.0 107.0 L 142.0 107.0 L 143.0 110.0 L 147.0 116.0 L 151.0 122.0 L 151.0 123.0 " stroke="black" fill="none" stroke-width="5.0" stroke-linecap="round" stroke-linejoin="round" />
<path d="M 111.0 127.0 L 112.0 128.0 L 113.0 128.0 L 120.0 129.0 L 134.0 129.0 L 152.0 129.0 L 165.0 130.0 L 173.0 131.0 L 175.0 132.0 L 175.0 132.0 " stroke="black" fill="none" stroke-width="5.0" stroke-linecap="round" stroke-linejoin="round" />
<path d="M 130.0 138.0 L 130.0 138.0 L 130.0 138.0 L 130.0 138.0 L 130.0 138.0 L 129.0 140.0 L 122.0 149.0 L 112.0 164.0 L 101.0 177.0 L 99.0 181.0 " stroke="black" fill="none" stroke-width="5.0" stroke-linecap="round" stroke-linejoin="round" />
<path d="M 121.0 155.0 L 121.0 155.0 L 122.0 155.0 L 122.0 155.0 L 122.0 158.0 L 121.0 165.0 L 121.0 174.0 L 121.0 183.0 L 125.0 187.0 L 131.0 186.0 L 139.0 181.0 L 143.0 178.0 " stroke="black" fill="none" stroke-width="5.0" stroke-linecap="round" stroke-linejoin="round" />
<path d="M 179.0 148.0 L 178.0 148.0 L 177.0 150.0 L 175.0 151.0 L 172.0 155.0 L 167.0 159.0 L 166.0 160.0 " stroke="black" fill="none" stroke-width="5.0" stroke-linecap="round" stroke-linejoin="round" />
<path d="M 142.0 136.0 L 142.0 136.0 L 143.0 138.0 L 147.0 146.0 L 156.0 162.0 L 168.0 181.0 L 177.0 194.0 L 182.0 202.0 L 185.0 207.0 L 185.0 208.0 L 185.0 208.0 " stroke="black" fill="none" stroke-width="5.0" stroke-linecap="round" stroke-linejoin="round" />
</svg>