<svg xmlns="http://www.w3.org/2000/svg" width="300" height="300" viewBox="0 0 300 300">
<path d="M 121.0 109.0 L 121.0 109.0 L 122.0 109.0 L 122.0 108.0 L 122.0 108.0 L 122.0 108.0 L 122.0 111.0 L 123.0 121.0 L 123.0 140.0 L 123.0 162.0 L 123.0 180.0 L 123.0 188.0 L 123.0 190.0 L 123.0 190.0 L 122.0 188.0 " stroke="black" fill="none" stroke-width="5.0" stroke-linecap="round" stroke-linejoin="round" />
<path d="M 119.0 146.0 L 119.0 147.0 L 118.0 149.0 L 116.0 153.0 L 113.0 158.0 L 109.0 165.0 L 107.0 169.0 " stroke="black" fill="none" stroke-width="5.0" stroke-linecap="round" stroke-linejoin="round" />
<path d="M 130.0 152.0 L 131.0 152.0 L 133.0 153.0 L 136.0 156.0 L 140.0 161.0 L 142.0 163.0 " stroke="black" fill="none" stroke-width="5.0" stroke-linecap="round" stroke-linejoin="round" />
<path d="M 149.0 108.0 L 149.0 108.0 L 149.0 108.0 L 149.0 108.0 L 148.0 109.0 L 148.0 112.0 L 148.0 117.0 L 148.0 124.0 L 149.0 128.0 L 149.0 130.0 L 149.0 129.0 " stroke="black" fill="none" stroke-width="5.0" stroke-linecap="round" stroke-linejoin="round" />
<path d="M 150.0 105.0 L 150.0 105.0 L 150.0 105.0 L 151.0 105.0 L 152.0 105.0 L 153.0 105.0 L 156.0 105.0 L 158.0 105.0 L 161.0 108.0 L 163.0 114.0 L 166.0 122.0 L 168.0 129.0 L 169.0 133.0 L 169.0 134.0 L 168.0 134.0 " stroke="black" fill="none" stroke-width="5.0" stroke-linecap="round" stroke-linejoin="round" />
<path d="M 151.0 115.0 L 151.0 115.0 L 151.0 115.0 L 151.0 115.0 L 152.0 115.0 L 155.0 115.0 L 159.0 115.0 L 162.0 115.0 L 164.0 115.0 L 164.0 115.0 " stroke="black" fill="none" stroke-width="5.0" stroke-linecap="round" stroke-linejoin="round" />
<path d="M 152.0 124.0 L 152.0 124.0 L 152.0 125.0 L 153.0 125.0 L 156.0 126.0 L 159.0 126.0 L 162.0 126.0 L 163.0 126.0 " stroke="black" fill="none" stroke-width="5.0" stroke-linecap="round" stroke-linejoin="round" />
<path d="M 150.0 136.0 L 150.0 136.0 L 150.0 137.0 L 153.0 137.0 L 158.0 137.0 L 164.0 137.0 " stroke="black" fill="none" stroke-width="5.0" stroke-linecap="round" stroke-linejoin="round" />
<path d="M 173.0 108.0 L 173.0 108.0 L 173.0 108.0 L 173.0 108.0 L 173.0 109.0 L 173.0 114.0 L 174.0 124.0 L 175.0 133.0 L 175.0 139.0 L 176.0 140.0 L 176.0 138.0 " stroke="black" fill="none" stroke-width="5.0" stroke-linecap="round" stroke-linejoin="round" />
<path d="M 173.0 105.0 L 173.0 105.0 L 174.0 105.0 L 175.0 105.0 L 176.0 105.0 L 179.0 105.0 L 181.0 105.0 L 184.0 106.0 L 186.0 107.0 L 188.0 111.0 L 190.0 118.0 L 192.0 126.0 L 193.0 131.0 L 194.0 135.0 L 194.0 135.0 L 194.0 135.0 " stroke="black" fill="none" stroke-width="5.0" stroke-linecap="round" stroke-linejoin="round" />
<path d="M 176.0 117.0 L 176.0 117.0 L 175.0 118.0 L 175.0 118.0 L 177.0 118.0 L 182.0 118.0 L 186.0 118.0 L 189.0 118.0 L 191.0 118.0 " stroke="black" fill="none" stroke-width="5.0" stroke-linecap="round" stroke-linejoin="round" />
<path d="M 179.0 123.0 L 179.0 124.0 L 180.0 125.0 L 181.0 125.0 L 183.0 126.0 L 186.0 126.0 L 189.0 126.0 L 189.0 126.0 " stroke="black" fill="none" stroke-width="5.0" stroke-linecap="round" stroke-linejoin="round" />
<path d="M 176.0 136.0 L 176.0 136.0 L 177.0 136.0 L 180.0 136.0 L 184.0 136.0 L 190.0 136.0 L 191.0 136.0 " stroke="black" fill="none" stroke-width="5.0" stroke-linecap="round" stroke-linejoin="round" />
<path d="M 161.0 144.0 L 161.0 144.0 L 162.0 144.0 L 162.0 144.0 L 162.0 144.0 L 162.0 145.0 L 160.0 150.0 L 156.0 158.0 L 151.0 168.0 L 146.0 177.0 L 143.0 181.0 L 143.0 181.0 " stroke="black" fill="none" stroke-width="5.0" stroke-linecap="round" stroke-linejoin="round" />
<path d="M 157.0 158.0 L 157.0 158.0 L 158.0 159.0 L 158.0 159.0 L 158.0 162.0 L 158.0 170.0 L 158.0 182.0 L 159.0 192.0 L 159.0 195.0 L 159.0 195.0 " stroke="black" fill="none" stroke-width="5.0" stroke-linecap="round" stroke-linejoin="round" />
<path d="M 174.0 145.0 L 174.0 145.0 L 174.0 145.0 L 174.0 145.0 L 176.0 145.0 L 179.0 147.0 L 183.0 148.0 L 184.0 149.0 " stroke="black" fill="none" stroke-width="5.0" stroke-linecap="round" stroke-linejoin="round" />
<path d="M 166.0 156.0 L 167.0 156.0 L 167.0 157.0 L 170.0 157.0 L 175.0 157.0 L 182.0 157.0 L 189.0 156.0 L 192.0 156.0 L 192.0 156.0 " stroke="black" fill="none" stroke-width="5.0" stroke-linecap="round" stroke-linejoin="round" />
<path d="M 169.0 167.0 L 170.0 167.0 L 171.0 167.0 L 174.0 168.0 L 180.0 168.0 L 186.0 167.0 L 190.0 166.0 L 191.0 166.0 L 191.0 166.0 " stroke="black" fill="none" stroke-width="5.0" stroke-linecap="round" stroke-linejoin="round" />
<path d="M 172.0 175.0 L 173.0 176.0 L 174.0 176.0 L 177.0 176.0 L 182.0 176.0 L 188.0 176.0 L 191.0 176.0 L 192.0 176.0 " stroke="black" fill="none" stroke-width="5.0" stroke-linecap="round" stroke-linejoin="round" />
<path d="M 165.0 192.0 L 167.0 192.0 L 170.0 193.0 L 175.0 193.0 L 184.0 193.0 L 193.0 192.0 L 199.0 191.0 L 201.0 191.0 " stroke="black" fill="none" stroke-width="5.0" stroke-linecap="round" stroke-linejoin="round" />
<path d="M 181.0 158.0 L 180.0 158.0 L 180.0 160.0 L 180.0 166.0 L 182.0 175.0 L 184.0 184.0 L 185.0 189.0 " stroke="black" fill="none" stroke-width="5.0" stroke-linecap="round" stroke-linejoin="round" />
</svg>