<svg xmlns="http://www.w3.org/2000/svg" width="300" height="300" viewBox="0 0 300 300">
<path d="M 121.0 109.0 L 121.0 109.0 L 121.0 110.0 L 121.0 112.0 L 121.0 116.0 L 121.0 127.0 L 121.0 146.0 L 120.0 167.0 L 119.0 182.0 L 118.0 189.0 L 117.0 190.0 L 117.0 190.0 " stroke="black" fill="none" stroke-width="5.0" stroke-linecap="round" stroke-linejoin="round" />
<path d="M 115.0 145.0 L 115.0 146.0 L 114.0 147.0 L 113.0 149.0 L 111.0 153.0 L 109.0 159.0 L 108.0 162.0 " stroke="black" fill="none" stroke-width="5.0" stroke-linecap="round" stroke-linejoin="round" />
<path d="M 127.0 144.0 L 127.0 144.0 L 128.0 144.0 L 130.0 145.0 L 133.0 149.0 L 137.0 155.0 " stroke="black" fill="none" stroke-width="5.0" stroke-linecap="round" stroke-linejoin="round" />
<path d="M 140.0 113.0 L 140.0 113.0 L 140.0 113.0 L 140.0 113.0 L 140.0 115.0 L 140.0 122.0 L 140.0 130.0 L 141.0 136.0 L 141.0 138.0 " stroke="black" fill="none" stroke-width="5.0" stroke-linecap="round" stroke-linejoin="round" />
<path d="M 141.0 113.0 L 141.0 113.0 L 141.0 113.0 L 141.0 113.0 L 141.0 113.0 L 143.0 113.0 L 145.0 112.0 L 147.0 112.0 L 149.0 112.0 L 151.0 113.0 L 153.0 117.0 L 155.0 125.0 L 157.0 134.0 L 157.0 139.0 L 157.0 141.0 " stroke="black" fill="none" stroke-width="5.0" stroke-linecap="round" stroke-linejoin="round" />
<path d="M 143.0 122.0 L 143.0 122.0 L 142.0 122.0 L 142.0 122.0 L 143.0 123.0 L 146.0 123.0 L 149.0 123.0 L 150.0 123.0 " stroke="black" fill="none" stroke-width="5.0" stroke-linecap="round" stroke-linejoin="round" />
<path d="M 141.0 130.0 L 141.0 130.0 L 141.0 131.0 L 141.0 131.0 L 143.0 131.0 L 147.0 131.0 L 150.0 131.0 " stroke="black" fill="none" stroke-width="5.0" stroke-linecap="round" stroke-linejoin="round" />
<path d="M 140.0 143.0 L 140.0 143.0 L 141.0 143.0 L 143.0 143.0 L 147.0 143.0 L 149.0 144.0 " stroke="black" fill="none" stroke-width="5.0" stroke-linecap="round" stroke-linejoin="round" />
<path d="M 163.0 114.0 L 163.0 114.0 L 163.0 114.0 L 164.0 114.0 L 164.0 115.0 L 164.0 121.0 L 165.0 131.0 L 165.0 141.0 L 165.0 146.0 L 165.0 147.0 " stroke="black" fill="none" stroke-width="5.0" stroke-linecap="round" stroke-linejoin="round" />
<path d="M 163.0 115.0 L 163.0 115.0 L 164.0 115.0 L 165.0 115.0 L 167.0 115.0 L 169.0 115.0 L 172.0 115.0 L 174.0 115.0 L 177.0 117.0 L 180.0 123.0 L 182.0 131.0 L 183.0 140.0 L 183.0 145.0 L 183.0 146.0 " stroke="black" fill="none" stroke-width="5.0" stroke-linecap="round" stroke-linejoin="round" />
<path d="M 167.0 126.0 L 167.0 126.0 L 167.0 126.0 L 167.0 126.0 L 169.0 126.0 L 172.0 127.0 L 177.0 127.0 L 179.0 127.0 " stroke="black" fill="none" stroke-width="5.0" stroke-linecap="round" stroke-linejoin="round" />
<path d="M 168.0 136.0 L 169.0 135.0 L 170.0 135.0 L 173.0 135.0 L 176.0 135.0 L 181.0 135.0 " stroke="black" fill="none" stroke-width="5.0" stroke-linecap="round" stroke-linejoin="round" />
<path d="M 164.0 147.0 L 165.0 147.0 L 167.0 148.0 L 171.0 149.0 L 178.0 150.0 L 182.0 150.0 " stroke="black" fill="none" stroke-width="5.0" stroke-linecap="round" stroke-linejoin="round" />
<path d="M 152.0 154.0 L 152.0 154.0 L 152.0 154.0 L 152.0 155.0 L 152.0 156.0 L 152.0 159.0 L 148.0 166.0 L 142.0 175.0 L 135.0 183.0 L 132.0 186.0 " stroke="black" fill="none" stroke-width="5.0" stroke-linecap="round" stroke-linejoin="round" />
<path d="M 150.0 167.0 L 150.0 167.0 L 150.0 168.0 L 150.0 169.0 L 150.0 173.0 L 151.0 180.0 L 152.0 187.0 L 153.0 191.0 " stroke="black" fill="none" stroke-width="5.0" stroke-linecap="round" stroke-linejoin="round" />
<path d="M 163.0 157.0 L 163.0 158.0 L 164.0 159.0 L 166.0 160.0 L 169.0 161.0 L 171.0 162.0 " stroke="black" fill="none" stroke-width="5.0" stroke-linecap="round" stroke-linejoin="round" />
<path d="M 159.0 167.0 L 160.0 168.0 L 161.0 168.0 L 164.0 168.0 L 170.0 167.0 L 177.0 166.0 L 182.0 165.0 L 182.0 165.0 " stroke="black" fill="none" stroke-width="5.0" stroke-linecap="round" stroke-linejoin="round" />
<path d="M 164.0 176.0 L 164.0 176.0 L 165.0 176.0 L 167.0 176.0 L 171.0 175.0 L 175.0 174.0 L 178.0 174.0 L 179.0 174.0 " stroke="black" fill="none" stroke-width="5.0" stroke-linecap="round" stroke-linejoin="round" />
<path d="M 163.0 185.0 L 163.0 185.0 L 164.0 185.0 L 167.0 184.0 L 173.0 183.0 L 179.0 183.0 L 181.0 183.0 " stroke="black" fill="none" stroke-width="5.0" stroke-linecap="round" stroke-linejoin="round" />
<path d="M 157.0 197.0 L 158.0 197.0 L 160.0 198.0 L 165.0 198.0 L 175.0 198.0 L 186.0 198.0 L 188.0 198.0 " stroke="black" fill="none" stroke-width="5.0" stroke-linecap="round" stroke-linejoin="round" />
<path d="M 170.0 168.0 L 170.0 168.0 L 170.0 169.0 L 170.0 171.0 L 171.0 177.0 L 173.0 188.0 L 174.0 195.0 " stroke="black" fill="none" stroke-width="5.0" stroke-linecap="round" stroke-linejoin="round" />
</svg>