<svg xmlns="http://www.w3.org/2000/svg" width="300" height="300" viewBox="0 0 300 300">
<path d="M 117.0 120.0 L 117.0 120.0 L 117.0 120.0 L 118.0 121.0 L 118.0 122.0 L 120.0 123.0 L 124.0 125.0 L 131.0 129.0 L 134.0 131.0 " stroke="black" fill="none" stroke-width="5.0" stroke-linecap="round" stroke-linejoin="round" />
<path d="M 109.0 150.0 L 109.0 150.0 L 110.0 150.0 L 112.0 150.0 L 117.0 150.0 L 123.0 150.0 " stroke="black" fill="none" stroke-width="5.0" stroke-linecap="round" stroke-linejoin="round" />
<path d="M 101.0 185.0 L 102.0 185.0 L 103.0 185.0 L 109.0 183.0 L 119.0 176.0 L 125.0 172.0 " stroke="black" fill="none" stroke-width="5.0" stroke-linecap="round" stroke-linejoin="round" />
<path d="M 146.0 125.0 L 146.0 125.0 L 146.0 125.0 L 146.0 125.0 L 150.0 125.0 L 159.0 124.0 L 169.0 123.0 L 174.0 122.0 " stroke="black" fill="none" stroke-width="5.0" stroke-linecap="round" stroke-linejoin="round" />
<path d="M 164.0 111.0 L 164.0 111.0 L 164.0 111.0 L 164.0 111.0 L 163.0 111.0 L 162.0 112.0 L 160.0 117.0 L 155.0 125.0 L 151.0 137.0 L 149.0 145.0 L 150.0 148.0 L 155.0 148.0 L 163.0 145.0 L 172.0 142.0 L 178.0 140.0 " stroke="black" fill="none" stroke-width="5.0" stroke-linecap="round" stroke-linejoin="round" />
<path d="M 177.0 133.0 L 177.0 133.0 L 177.0 133.0 L 177.0 134.0 L 179.0 138.0 L 183.0 145.0 L 186.0 152.0 L 187.0 154.0 " stroke="black" fill="none" stroke-width="5.0" stroke-linecap="round" stroke-linejoin="round" />
<path d="M 145.0 160.0 L 145.0 160.0 L 145.0 161.0 L 145.0 163.0 L 145.0 170.0 L 145.0 178.0 L 144.0 185.0 " stroke="black" fill="none" stroke-width="5.0" stroke-linecap="round" stroke-linejoin="round" />
<path d="M 160.0 159.0 L 160.0 159.0 L 160.0 159.0 L 160.0 162.0 L 160.0 169.0 L 160.0 179.0 L 161.0 187.0 L 162.0 189.0 " stroke="black" fill="none" stroke-width="5.0" stroke-linecap="round" stroke-linejoin="round" />
<path d="M 173.0 160.0 L 173.0 160.0 L 173.0 160.0 L 173.0 160.0 L 173.0 163.0 L 174.0 171.0 L 176.0 182.0 L 180.0 190.0 L 186.0 194.0 L 194.0 195.0 L 199.0 195.0 " stroke="black" fill="none" stroke-width="5.0" stroke-linecap="round" stroke-linejoin="round" />
</svg>