<svg xmlns="http://www.w3.org/2000/svg" width="300" height="300" viewBox="0 0 300 300">
<path d="M 115.0 127.0 L 115.0 127.0 L 117.0 127.0 L 119.0 127.0 L 122.0 127.0 L 126.0 127.0 L 132.0 127.0 L 136.0 127.0 " stroke="black" fill="none" stroke-width="5.0" stroke-linecap="round" stroke-linejoin="round" />
<path d="M 107.0 142.0 L 108.0 142.0 L 110.0 142.0 L 112.0 142.0 L 118.0 142.0 L 124.0 142.0 L 132.0 141.0 L 139.0 141.0 " stroke="black" fill="none" stroke-width="5.0" stroke-linecap="round" stroke-linejoin="round" />
<path d="M 124.0 115.0 L 124.0 115.0 L 125.0 115.0 L 125.0 115.0 L 125.0 118.0 L 126.0 129.0 L 128.0 148.0 L 128.0 163.0 L 128.0 174.0 L 128.0 177.0 L 129.0 178.0 L 129.0 178.0 L 129.0 178.0 " stroke="black" fill="none" stroke-width="5.0" stroke-linecap="round" stroke-linejoin="round" />
<path d="M 127.0 161.0 L 128.0 161.0 L 130.0 161.0 L 133.0 161.0 L 135.0 161.0 L 139.0 161.0 L 143.0 161.0 " stroke="black" fill="none" stroke-width="5.0" stroke-linecap="round" stroke-linejoin="round" />
<path d="M 108.0 153.0 L 109.0 153.0 L 110.0 152.0 L 110.0 153.0 L 110.0 157.0 L 109.0 169.0 L 107.0 180.0 L 106.0 185.0 L 105.0 188.0 " stroke="black" fill="none" stroke-width="5.0" stroke-linecap="round" stroke-linejoin="round" />
<path d="M 109.0 176.0 L 109.0 176.0 L 109.0 176.0 L 109.0 175.0 L 111.0 176.0 L 117.0 180.0 L 136.0 189.0 L 160.0 196.0 L 172.0 200.0 L 176.0 201.0 L 177.0 201.0 " stroke="black" fill="none" stroke-width="5.0" stroke-linecap="round" stroke-linejoin="round" />
<path d="M 154.0 135.0 L 155.0 135.0 L 156.0 136.0 L 158.0 136.0 L 163.0 136.0 L 172.0 135.0 L 179.0 134.0 L 186.0 133.0 L 189.0 133.0 L 189.0 133.0 " stroke="black" fill="none" stroke-width="5.0" stroke-linecap="round" stroke-linejoin="round" />
<path d="M 154.0 138.0 L 154.0 138.0 L 155.0 139.0 L 155.0 140.0 L 154.0 143.0 L 153.0 149.0 L 152.0 161.0 L 152.0 170.0 L 154.0 173.0 L 158.0 174.0 L 165.0 168.0 L 168.0 165.0 " stroke="black" fill="none" stroke-width="5.0" stroke-linecap="round" stroke-linejoin="round" />
<path d="M 165.0 120.0 L 165.0 120.0 L 165.0 120.0 L 165.0 122.0 L 168.0 128.0 L 177.0 150.0 L 187.0 172.0 L 192.0 183.0 L 195.0 190.0 L 196.0 191.0 " stroke="black" fill="none" stroke-width="5.0" stroke-linecap="round" stroke-linejoin="round" />
<path d="M 196.0 163.0 L 196.0 163.0 L 196.0 164.0 L 195.0 165.0 L 192.0 169.0 L 182.0 181.0 L 177.0 186.0 " stroke="black" fill="none" stroke-width="5.0" stroke-linecap="round" stroke-linejoin="round" />
<path d="M 186.0 118.0 L 186.0 119.0 L 188.0 122.0 L 189.0 124.0 L 192.0 128.0 " stroke="black" fill="none" stroke-width="5.0" stroke-linecap="round" stroke-linejoin="round" />
</svg>