<svg xmlns="http://www.w3.org/2000/svg" width="300" height="300" viewBox="0 0 300 300">
<path d="M 121.0 100.0 L 121.0 100.0 L 121.0 100.0 L 121.0 100.0 L 121.0 100.0 L 122.0 100.0 L 125.0 100.0 L 129.0 100.0 L 133.0 99.0 L 136.0 99.0 L 138.0 100.0 L 139.0 104.0 L 141.0 111.0 L 142.0 120.0 L 143.0 131.0 L 143.0 139.0 L 143.0 144.0 L 142.0 145.0 L 139.0 145.0 L 132.0 142.0 L 126.0 139.0 " stroke="black" fill="none" stroke-width="5.0" stroke-linecap="round" stroke-linejoin="round" />
<path d="M 119.0 115.0 L 120.0 115.0 L 120.0 115.0 L 121.0 115.0 L 122.0 115.0 L 124.0 115.0 L 129.0 115.0 L 132.0 115.0 " stroke="black" fill="none" stroke-width="5.0" stroke-linecap="round" stroke-linejoin="round" />
<path d="M 119.0 126.0 L 119.0 126.0 L 119.0 127.0 L 120.0 127.0 L 124.0 128.0 L 131.0 128.0 " stroke="black" fill="none" stroke-width="5.0" stroke-linecap="round" stroke-linejoin="round" />
<path d="M 155.0 101.0 L 156.0 101.0 L 157.0 101.0 L 158.0 101.0 L 160.0 101.0 L 163.0 101.0 L 166.0 101.0 L 168.0 102.0 L 169.0 107.0 L 171.0 116.0 L 173.0 129.0 L 174.0 139.0 L 175.0 146.0 L 174.0 148.0 L 171.0 149.0 L 166.0 148.0 L 162.0 146.0 " stroke="black" fill="none" stroke-width="5.0" stroke-linecap="round" stroke-linejoin="round" />
<path d="M 155.0 119.0 L 155.0 120.0 L 155.0 121.0 L 156.0 122.0 L 160.0 122.0 L 165.0 122.0 L 166.0 122.0 " stroke="black" fill="none" stroke-width="5.0" stroke-linecap="round" stroke-linejoin="round" />
<path d="M 158.0 134.0 L 161.0 134.0 L 165.0 134.0 L 167.0 134.0 " stroke="black" fill="none" stroke-width="5.0" stroke-linecap="round" stroke-linejoin="round" />
<path d="M 149.0 153.0 L 149.0 153.0 L 149.0 153.0 L 149.0 153.0 L 150.0 154.0 L 151.0 156.0 " stroke="black" fill="none" stroke-width="5.0" stroke-linecap="round" stroke-linejoin="round" />
<path d="M 114.0 164.0 L 114.0 165.0 L 114.0 165.0 L 114.0 165.0 L 120.0 165.0 L 135.0 164.0 L 154.0 163.0 L 170.0 162.0 L 180.0 163.0 L 184.0 164.0 L 184.0 164.0 L 183.0 164.0 L 182.0 164.0 " stroke="black" fill="none" stroke-width="5.0" stroke-linecap="round" stroke-linejoin="round" />
<path d="M 138.0 168.0 L 138.0 168.0 L 138.0 168.0 L 137.0 168.0 L 136.0 170.0 L 133.0 174.0 L 129.0 179.0 L 129.0 180.0 " stroke="black" fill="none" stroke-width="5.0" stroke-linecap="round" stroke-linejoin="round" />
<path d="M 136.0 174.0 L 136.0 174.0 L 137.0 176.0 L 138.0 177.0 L 141.0 178.0 L 145.0 180.0 " stroke="black" fill="none" stroke-width="5.0" stroke-linecap="round" stroke-linejoin="round" />
<path d="M 165.0 169.0 L 165.0 170.0 L 165.0 172.0 L 165.0 173.0 L 164.0 175.0 L 162.0 177.0 " stroke="black" fill="none" stroke-width="5.0" stroke-linecap="round" stroke-linejoin="round" />
<path d="M 162.0 175.0 L 163.0 176.0 L 164.0 178.0 L 166.0 179.0 L 170.0 180.0 L 172.0 181.0 L 172.0 181.0 " stroke="black" fill="none" stroke-width="5.0" stroke-linecap="round" stroke-linejoin="round" />
<path d="M 112.0 195.0 L 112.0 195.0 L 112.0 195.0 L 116.0 195.0 L 130.0 195.0 L 151.0 194.0 L 167.0 194.0 L 178.0 196.0 L 183.0 198.0 L 184.0 198.0 L 183.0 199.0 " stroke="black" fill="none" stroke-width="5.0" stroke-linecap="round" stroke-linejoin="round" />
<path d="M 153.0 178.0 L 153.0 178.0 L 153.0 178.0 L 154.0 183.0 L 155.0 194.0 L 155.0 205.0 L 155.0 207.0 " stroke="black" fill="none" stroke-width="5.0" stroke-linecap="round" stroke-linejoin="round" />
</svg>