<svg xmlns="http://www.w3.org/2000/svg" width="300" height="300" viewBox="0 0 300 300">
<path d="M 119.0 119.0 L 119.0 120.0 L 120.0 121.0 L 120.0 123.0 L 123.0 125.0 L 127.0 128.0 " stroke="black" fill="none" stroke-width="5.0" stroke-linecap="round" stroke-linejoin="round" />
<path d="M 109.0 150.0 L 111.0 151.0 L 114.0 152.0 L 120.0 152.0 L 128.0 152.0 " stroke="black" fill="none" stroke-width="5.0" stroke-linecap="round" stroke-linejoin="round" />
<path d="M 106.0 184.0 L 106.0 184.0 L 106.0 184.0 L 106.0 185.0 L 112.0 183.0 L 124.0 177.0 " stroke="black" fill="none" stroke-width="5.0" stroke-linecap="round" stroke-linejoin="round" />
<path d="M 169.0 112.0 L 169.0 112.0 L 169.0 112.0 L 169.0 112.0 L 168.0 112.0 L 165.0 115.0 L 158.0 120.0 L 153.0 123.0 " stroke="black" fill="none" stroke-width="5.0" stroke-linecap="round" stroke-linejoin="round" />
<path d="M 148.0 132.0 L 148.0 132.0 L 149.0 132.0 L 149.0 133.0 L 150.0 136.0 L 152.0 140.0 L 153.0 142.0 " stroke="black" fill="none" stroke-width="5.0" stroke-linecap="round" stroke-linejoin="round" />
<path d="M 163.0 126.0 L 164.0 127.0 L 165.0 128.0 L 165.0 131.0 L 165.0 135.0 L 165.0 138.0 L 165.0 139.0 " stroke="black" fill="none" stroke-width="5.0" stroke-linecap="round" stroke-linejoin="round" />
<path d="M 181.0 120.0 L 181.0 120.0 L 180.0 121.0 L 179.0 124.0 L 177.0 130.0 L 176.0 134.0 " stroke="black" fill="none" stroke-width="5.0" stroke-linecap="round" stroke-linejoin="round" />
<path d="M 150.0 149.0 L 150.0 149.0 L 150.0 150.0 L 152.0 150.0 L 157.0 150.0 L 166.0 150.0 L 172.0 149.0 L 174.0 148.0 L 174.0 149.0 L 169.0 152.0 L 164.0 156.0 L 160.0 159.0 L 158.0 163.0 L 159.0 168.0 L 162.0 175.0 L 166.0 182.0 L 170.0 190.0 L 172.0 195.0 L 173.0 198.0 L 171.0 199.0 L 167.0 200.0 L 161.0 200.0 L 155.0 198.0 " stroke="black" fill="none" stroke-width="5.0" stroke-linecap="round" stroke-linejoin="round" />
<path d="M 138.0 177.0 L 139.0 177.0 L 140.0 177.0 L 147.0 177.0 L 160.0 176.0 L 176.0 175.0 L 188.0 173.0 L 193.0 173.0 L 193.0 173.0 L 192.0 173.0 L 192.0 173.0 " stroke="black" fill="none" stroke-width="5.0" stroke-linecap="round" stroke-linejoin="round" />
</svg>