<svg xmlns="http://www.w3.org/2000/svg" width="300" height="300" viewBox="0 0 300 300">
<path d="M 116.0 118.0 L 117.0 119.0 L 117.0 121.0 L 117.0 124.0 L 117.0 128.0 L 117.0 133.0 L 117.0 133.0 " stroke="black" fill="none" stroke-width="5.0" stroke-linecap="round" stroke-linejoin="round" />
<path d="M 118.0 118.0 L 118.0 118.0 L 118.0 118.0 L 118.0 118.0 L 123.0 118.0 L 135.0 117.0 L 151.0 115.0 L 163.0 113.0 L 172.0 113.0 L 178.0 113.0 L 181.0 114.0 L 182.0 116.0 L 182.0 120.0 L 182.0 125.0 L 182.0 129.0 " stroke="black" fill="none" stroke-width="5.0" stroke-linecap="round" stroke-linejoin="round" />
<path d="M 147.0 94.0 L 147.0 94.0 L 147.0 94.0 L 147.0 94.0 L 147.0 97.0 L 149.0 102.0 " stroke="black" fill="none" stroke-width="5.0" stroke-linecap="round" stroke-linejoin="round" />
<path d="M 148.0 125.0 L 148.0 125.0 L 148.0 125.0 L 148.0 125.0 L 148.0 126.0 L 148.0 130.0 L 150.0 136.0 L 151.0 143.0 L 152.0 146.0 " stroke="black" fill="none" stroke-width="5.0" stroke-linecap="round" stroke-linejoin="round" />
<path d="M 136.0 135.0 L 136.0 135.0 L 136.0 135.0 L 137.0 136.0 L 139.0 139.0 " stroke="black" fill="none" stroke-width="5.0" stroke-linecap="round" stroke-linejoin="round" />
<path d="M 166.0 132.0 L 166.0 132.0 L 166.0 133.0 L 165.0 135.0 L 162.0 139.0 L 160.0 141.0 " stroke="black" fill="none" stroke-width="5.0" stroke-linecap="round" stroke-linejoin="round" />
<path d="M 134.0 155.0 L 134.0 155.0 L 134.0 157.0 L 134.0 161.0 L 133.0 171.0 L 131.0 185.0 L 130.0 197.0 L 130.0 202.0 L 130.0 202.0 " stroke="black" fill="none" stroke-width="5.0" stroke-linecap="round" stroke-linejoin="round" />
<path d="M 135.0 147.0 L 135.0 147.0 L 136.0 146.0 L 138.0 146.0 L 142.0 146.0 L 147.0 146.0 L 153.0 146.0 L 160.0 146.0 L 164.0 146.0 L 168.0 148.0 L 171.0 153.0 L 175.0 163.0 L 179.0 175.0 L 182.0 186.0 L 184.0 194.0 L 184.0 199.0 L 183.0 202.0 L 180.0 204.0 L 173.0 205.0 L 162.0 204.0 " stroke="black" fill="none" stroke-width="5.0" stroke-linecap="round" stroke-linejoin="round" />
<path d="M 140.0 159.0 L 140.0 159.0 L 140.0 159.0 L 140.0 159.0 L 142.0 159.0 L 149.0 161.0 L 158.0 162.0 L 165.0 162.0 " stroke="black" fill="none" stroke-width="5.0" stroke-linecap="round" stroke-linejoin="round" />
<path d="M 135.0 183.0 L 135.0 184.0 L 136.0 186.0 L 142.0 187.0 L 152.0 186.0 L 164.0 184.0 L 169.0 184.0 " stroke="black" fill="none" stroke-width="5.0" stroke-linecap="round" stroke-linejoin="round" />
</svg>