<svg xmlns="http://www.w3.org/2000/svg" width="300" height="300" viewBox="0 0 300 300">
<path d="M 123.0 119.0 L 123.0 119.0 L 123.0 120.0 L 122.0 121.0 L 123.0 121.0 L 129.0 121.0 L 142.0 120.0 L 157.0 119.0 L 167.0 119.0 L 173.0 119.0 L 173.0 119.0 L 172.0 119.0 " stroke="black" fill="none" stroke-width="5.0" stroke-linecap="round" stroke-linejoin="round" />
<path d="M 126.0 153.0 L 127.0 153.0 L 128.0 153.0 L 130.0 153.0 L 134.0 153.0 L 142.0 153.0 L 152.0 153.0 L 159.0 153.0 L 161.0 153.0 L 161.0 153.0 " stroke="black" fill="none" stroke-width="5.0" stroke-linecap="round" stroke-linejoin="round" />
<path d="M 104.0 185.0 L 104.0 185.0 L 106.0 186.0 L 111.0 187.0 L 124.0 187.0 L 142.0 186.0 L 160.0 185.0 L 173.0 185.0 L 183.0 185.0 L 187.0 185.0 L 187.0 185.0 " stroke="black" fill="none" stroke-width="5.0" stroke-linecap="round" stroke-linejoin="round" />
</svg>