<svg xmlns="http://www.w3.org/2000/svg" width="300" height="300" viewBox="0 0 300 300">
<path d="M 125.0 109.0 L 125.0 109.0 L 126.0 109.0 L 127.0 109.0 L 129.0 109.0 L 136.0 108.0 L 148.0 106.0 L 160.0 104.0 L 168.0 103.0 L 170.0 103.0 L 169.0 103.0 L 167.0 104.0 " stroke="black" fill="none" stroke-width="5.0" stroke-linecap="round" stroke-linejoin="round" />
<path d="M 135.0 121.0 L 135.0 121.0 L 135.0 122.0 L 135.0 122.0 L 136.0 122.0 L 140.0 121.0 L 147.0 120.0 L 154.0 119.0 L 158.0 118.0 L 160.0 118.0 " stroke="black" fill="none" stroke-width="5.0" stroke-linecap="round" stroke-linejoin="round" />
<path d="M 117.0 143.0 L 117.0 143.0 L 117.0 143.0 " stroke="black" fill="none" stroke-width="5.0" stroke-linecap="round" stroke-linejoin="round" />
<path d="M 121.0 141.0 L 130.0 140.0 L 142.0 139.0 L 156.0 137.0 L 169.0 136.0 L 179.0 136.0 L 183.0 136.0 L 183.0 136.0 " stroke="black" fill="none" stroke-width="5.0" stroke-linecap="round" stroke-linejoin="round" />
<path d="M 148.0 92.0 L 148.0 93.0 L 148.0 95.0 L 148.0 98.0 L 147.0 104.0 L 146.0 113.0 L 142.0 127.0 L 135.0 143.0 L 124.0 157.0 L 116.0 164.0 L 113.0 166.0 " stroke="black" fill="none" stroke-width="5.0" stroke-linecap="round" stroke-linejoin="round" />
<path d="M 164.0 140.0 L 165.0 140.0 L 165.0 140.0 L 167.0 141.0 L 170.0 143.0 L 175.0 147.0 L 182.0 151.0 L 189.0 155.0 L 190.0 156.0 " stroke="black" fill="none" stroke-width="5.0" stroke-linecap="round" stroke-linejoin="round" />
<path d="M 140.0 158.0 L 140.0 158.0 L 140.0 158.0 L 140.0 158.0 L 140.0 158.0 L 144.0 158.0 L 150.0 158.0 L 156.0 157.0 L 160.0 157.0 L 161.0 157.0 " stroke="black" fill="none" stroke-width="5.0" stroke-linecap="round" stroke-linejoin="round" />
<path d="M 122.0 176.0 L 122.0 177.0 L 123.0 177.0 L 125.0 177.0 L 133.0 177.0 L 146.0 175.0 L 159.0 174.0 L 168.0 173.0 L 171.0 173.0 L 171.0 173.0 " stroke="black" fill="none" stroke-width="5.0" stroke-linecap="round" stroke-linejoin="round" />
<path d="M 149.0 142.0 L 149.0 142.0 L 149.0 142.0 L 149.0 143.0 L 150.0 150.0 L 152.0 164.0 L 153.0 180.0 L 154.0 191.0 L 154.0 196.0 L 154.0 196.0 L 154.0 195.0 " stroke="black" fill="none" stroke-width="5.0" stroke-linecap="round" stroke-linejoin="round" />
</svg>