<svg xmlns="http://www.w3.org/2000/svg" width="300" height="300" viewBox="0 0 300 300">
<path d="M 132.0 109.0 L 132.0 109.0 L 133.0 109.0 L 133.0 109.0 L 133.0 109.0 L 133.0 110.0 L 131.0 114.0 L 124.0 123.0 L 116.0 132.0 L 110.0 138.0 L 109.0 139.0 " stroke="black" fill="none" stroke-width="5.0" stroke-linecap="round" stroke-linejoin="round" />
<path d="M 136.0 126.0 L 136.0 126.0 L 136.0 126.0 L 136.0 126.0 L 135.0 128.0 L 134.0 131.0 L 128.0 139.0 L 119.0 151.0 L 109.0 163.0 L 102.0 171.0 L 100.0 172.0 " stroke="black" fill="none" stroke-width="5.0" stroke-linecap="round" stroke-linejoin="round" />
<path d="M 123.0 149.0 L 124.0 149.0 L 124.0 150.0 L 124.0 154.0 L 124.0 162.0 L 124.0 174.0 L 124.0 185.0 L 124.0 191.0 L 124.0 192.0 " stroke="black" fill="none" stroke-width="5.0" stroke-linecap="round" stroke-linejoin="round" />
<path d="M 148.0 109.0 L 149.0 109.0 L 150.0 109.0 L 153.0 110.0 L 158.0 110.0 L 171.0 111.0 L 173.0 111.0 L 174.0 111.0 " stroke="black" fill="none" stroke-width="5.0" stroke-linecap="round" stroke-linejoin="round" />
<path d="M 163.0 103.0 L 163.0 104.0 L 163.0 105.0 L 162.0 108.0 L 162.0 112.0 L 161.0 116.0 L 160.0 118.0 " stroke="black" fill="none" stroke-width="5.0" stroke-linecap="round" stroke-linejoin="round" />
<path d="M 143.0 123.0 L 143.0 123.0 L 143.0 123.0 L 143.0 124.0 L 143.0 125.0 L 145.0 129.0 L 146.0 132.0 L 146.0 133.0 " stroke="black" fill="none" stroke-width="5.0" stroke-linecap="round" stroke-linejoin="round" />
<path d="M 145.0 121.0 L 145.0 121.0 L 146.0 121.0 L 149.0 121.0 L 155.0 121.0 L 163.0 121.0 L 171.0 121.0 L 178.0 122.0 L 182.0 124.0 L 185.0 126.0 L 186.0 130.0 L 186.0 134.0 L 185.0 138.0 L 184.0 139.0 " stroke="black" fill="none" stroke-width="5.0" stroke-linecap="round" stroke-linejoin="round" />
<path d="M 145.0 137.0 L 145.0 137.0 L 146.0 138.0 L 147.0 139.0 L 151.0 139.0 L 158.0 140.0 L 167.0 140.0 L 174.0 140.0 L 175.0 140.0 " stroke="black" fill="none" stroke-width="5.0" stroke-linecap="round" stroke-linejoin="round" />
<path d="M 155.0 125.0 L 156.0 125.0 L 156.0 126.0 L 156.0 128.0 L 157.0 132.0 L 157.0 137.0 L 158.0 139.0 " stroke="black" fill="none" stroke-width="5.0" stroke-linecap="round" stroke-linejoin="round" />
<path d="M 167.0 125.0 L 168.0 127.0 L 168.0 129.0 L 168.0 133.0 L 168.0 137.0 " stroke="black" fill="none" stroke-width="5.0" stroke-linecap="round" stroke-linejoin="round" />
<path d="M 146.0 153.0 L 146.0 153.0 L 146.0 153.0 L 146.0 153.0 L 149.0 153.0 L 157.0 153.0 L 167.0 153.0 L 174.0 153.0 L 176.0 153.0 " stroke="black" fill="none" stroke-width="5.0" stroke-linecap="round" stroke-linejoin="round" />
<path d="M 139.0 164.0 L 139.0 164.0 L 139.0 165.0 L 139.0 167.0 L 138.0 170.0 L 135.0 176.0 L 132.0 182.0 L 131.0 184.0 " stroke="black" fill="none" stroke-width="5.0" stroke-linecap="round" stroke-linejoin="round" />
<path d="M 148.0 173.0 L 148.0 173.0 L 147.0 175.0 L 146.0 176.0 L 146.0 178.0 L 145.0 180.0 L 145.0 183.0 L 145.0 187.0 L 148.0 191.0 L 154.0 194.0 L 164.0 195.0 L 176.0 195.0 L 184.0 196.0 L 188.0 196.0 L 188.0 196.0 L 188.0 194.0 L 185.0 191.0 " stroke="black" fill="none" stroke-width="5.0" stroke-linecap="round" stroke-linejoin="round" />
<path d="M 164.0 170.0 L 164.0 170.0 L 165.0 170.0 L 165.0 172.0 L 168.0 176.0 L 170.0 182.0 " stroke="black" fill="none" stroke-width="5.0" stroke-linecap="round" stroke-linejoin="round" />
<path d="M 191.0 171.0 L 192.0 173.0 L 195.0 177.0 L 197.0 181.0 L 199.0 185.0 L 199.0 188.0 " stroke="black" fill="none" stroke-width="5.0" stroke-linecap="round" stroke-linejoin="round" />
</svg>