<svg xmlns="http://www.w3.org/2000/svg" width="300" height="300" viewBox="0 0 300 300">
<path d="M 113.0 112.0 L 113.0 112.0 L 113.0 114.0 L 113.0 115.0 L 113.0 118.0 L 113.0 122.0 L 113.0 125.0 L 114.0 126.0 " stroke="black" fill="none" stroke-width="5.0" stroke-linecap="round" stroke-linejoin="round" />
<path d="M 114.0 111.0 L 114.0 111.0 L 114.0 111.0 L 115.0 111.0 L 116.0 111.0 L 119.0 111.0 L 122.0 110.0 L 126.0 110.0 L 129.0 111.0 L 131.0 114.0 L 132.0 119.0 L 132.0 124.0 L 132.0 128.0 L 132.0 129.0 L 132.0 130.0 " stroke="black" fill="none" stroke-width="5.0" stroke-linecap="round" stroke-linejoin="round" />
<path d="M 115.0 129.0 L 115.0 130.0 L 115.0 130.0 L 117.0 130.0 L 122.0 130.0 L 128.0 130.0 L 130.0 130.0 " stroke="black" fill="none" stroke-width="5.0" stroke-linecap="round" stroke-linejoin="round" />
<path d="M 109.0 143.0 L 109.0 143.0 L 110.0 143.0 L 112.0 143.0 L 117.0 143.0 L 125.0 142.0 L 131.0 141.0 L 134.0 141.0 L 134.0 141.0 " stroke="black" fill="none" stroke-width="5.0" stroke-linecap="round" stroke-linejoin="round" />
<path d="M 120.0 148.0 L 120.0 148.0 L 120.0 148.0 L 120.0 148.0 L 120.0 148.0 L 118.0 151.0 L 117.0 157.0 L 115.0 162.0 L 115.0 165.0 L 115.0 167.0 L 119.0 167.0 L 124.0 167.0 L 129.0 166.0 L 133.0 166.0 L 135.0 166.0 L 136.0 168.0 L 136.0 174.0 L 136.0 184.0 L 137.0 192.0 L 137.0 196.0 L 136.0 198.0 L 132.0 198.0 L 124.0 197.0 L 115.0 193.0 L 112.0 193.0 " stroke="black" fill="none" stroke-width="5.0" stroke-linecap="round" stroke-linejoin="round" />
<path d="M 147.0 114.0 L 147.0 114.0 L 148.0 114.0 L 149.0 114.0 L 153.0 114.0 L 160.0 114.0 L 168.0 113.0 L 174.0 113.0 L 178.0 114.0 L 179.0 115.0 L 179.0 117.0 L 179.0 119.0 L 178.0 122.0 L 177.0 124.0 " stroke="black" fill="none" stroke-width="5.0" stroke-linecap="round" stroke-linejoin="round" />
<path d="M 148.0 117.0 L 148.0 117.0 L 148.0 118.0 L 148.0 120.0 L 148.0 129.0 L 148.0 146.0 L 148.0 164.0 L 147.0 179.0 L 146.0 186.0 L 146.0 189.0 L 146.0 189.0 " stroke="black" fill="none" stroke-width="5.0" stroke-linecap="round" stroke-linejoin="round" />
<path d="M 160.0 95.0 L 161.0 95.0 L 161.0 95.0 L 161.0 95.0 L 161.0 97.0 L 162.0 104.0 L 162.0 112.0 L 162.0 117.0 L 162.0 117.0 " stroke="black" fill="none" stroke-width="5.0" stroke-linecap="round" stroke-linejoin="round" />
<path d="M 163.0 104.0 L 163.0 104.0 L 163.0 105.0 L 163.0 105.0 L 166.0 105.0 L 170.0 104.0 L 174.0 104.0 L 177.0 104.0 L 178.0 104.0 " stroke="black" fill="none" stroke-width="5.0" stroke-linecap="round" stroke-linejoin="round" />
<path d="M 161.0 112.0 L 161.0 112.0 L 162.0 112.0 L 162.0 112.0 L 163.0 112.0 L 163.0 113.0 L 163.0 120.0 L 163.0 130.0 L 164.0 139.0 L 168.0 143.0 L 173.0 143.0 L 175.0 140.0 " stroke="black" fill="none" stroke-width="5.0" stroke-linecap="round" stroke-linejoin="round" />
<path d="M 153.0 128.0 L 153.0 128.0 L 154.0 128.0 L 154.0 128.0 L 155.0 128.0 L 160.0 128.0 L 167.0 128.0 L 173.0 128.0 L 173.0 128.0 " stroke="black" fill="none" stroke-width="5.0" stroke-linecap="round" stroke-linejoin="round" />
<path d="M 158.0 156.0 L 158.0 156.0 L 159.0 157.0 L 159.0 159.0 L 159.0 163.0 L 159.0 169.0 L 158.0 177.0 L 157.0 183.0 L 157.0 185.0 L 156.0 186.0 " stroke="black" fill="none" stroke-width="5.0" stroke-linecap="round" stroke-linejoin="round" />
<path d="M 167.0 153.0 L 167.0 153.0 L 167.0 153.0 L 168.0 155.0 L 169.0 160.0 L 171.0 168.0 L 174.0 179.0 L 177.0 186.0 L 181.0 190.0 L 186.0 191.0 L 192.0 191.0 L 196.0 189.0 L 198.0 188.0 L 199.0 186.0 L 199.0 184.0 L 199.0 178.0 L 198.0 175.0 " stroke="black" fill="none" stroke-width="5.0" stroke-linecap="round" stroke-linejoin="round" />
</svg>