<svg xmlns="http://www.w3.org/2000/svg" width="300" height="300" viewBox="0 0 300 300">
<path d="M 126.0 122.0 L 126.0 122.0 L 126.0 122.0 L 127.0 122.0 L 135.0 122.0 L 148.0 121.0 L 162.0 119.0 L 171.0 119.0 L 173.0 119.0 " stroke="black" fill="none" stroke-width="5.0" stroke-linecap="round" stroke-linejoin="round" />
<path d="M 146.0 123.0 L 146.0 123.0 L 145.0 123.0 L 145.0 123.0 L 145.0 123.0 L 145.0 126.0 L 145.0 139.0 L 144.0 162.0 L 141.0 183.0 L 139.0 192.0 " stroke="black" fill="none" stroke-width="5.0" stroke-linecap="round" stroke-linejoin="round" />
<path d="M 128.0 153.0 L 129.0 153.0 L 130.0 153.0 L 133.0 153.0 L 139.0 152.0 L 147.0 152.0 L 156.0 151.0 L 162.0 150.0 L 164.0 150.0 L 164.0 149.0 L 164.0 149.0 L 164.0 154.0 L 166.0 163.0 L 168.0 172.0 L 170.0 179.0 L 170.0 181.0 " stroke="black" fill="none" stroke-width="5.0" stroke-linecap="round" stroke-linejoin="round" />
<path d="M 116.0 189.0 L 117.0 189.0 L 117.0 189.0 L 119.0 189.0 L 130.0 189.0 L 147.0 188.0 L 166.0 187.0 L 181.0 186.0 L 187.0 184.0 " stroke="black" fill="none" stroke-width="5.0" stroke-linecap="round" stroke-linejoin="round" />
</svg>