<svg xmlns="http://www.w3.org/2000/svg" width="300" height="300" viewBox="0 0 300 300">
<path d="M 116.0 121.0 L 117.0 122.0 L 118.0 122.0 L 123.0 122.0 L 135.0 121.0 L 151.0 120.0 L 164.0 119.0 L 170.0 118.0 L 171.0 119.0 L 170.0 119.0 " stroke="black" fill="none" stroke-width="5.0" stroke-linecap="round" stroke-linejoin="round" />
<path d="M 136.0 129.0 L 136.0 129.0 L 136.0 129.0 L 136.0 129.0 L 136.0 129.0 L 136.0 135.0 L 136.0 149.0 L 135.0 166.0 L 134.0 177.0 L 133.0 180.0 L 134.0 179.0 " stroke="black" fill="none" stroke-width="5.0" stroke-linecap="round" stroke-linejoin="round" />
<path d="M 118.0 150.0 L 119.0 150.0 L 120.0 150.0 L 123.0 150.0 L 131.0 150.0 L 143.0 150.0 L 153.0 149.0 L 161.0 147.0 L 165.0 147.0 L 166.0 150.0 L 167.0 157.0 L 168.0 166.0 L 170.0 173.0 L 170.0 178.0 L 170.0 180.0 " stroke="black" fill="none" stroke-width="5.0" stroke-linecap="round" stroke-linejoin="round" />
<path d="M 104.0 188.0 L 106.0 188.0 L 112.0 189.0 L 122.0 189.0 L 138.0 189.0 L 156.0 190.0 L 171.0 190.0 L 183.0 189.0 L 189.0 188.0 L 190.0 187.0 L 190.0 187.0 L 189.0 187.0 " stroke="black" fill="none" stroke-width="5.0" stroke-linecap="round" stroke-linejoin="round" />
</svg>