<svg xmlns="http://www.w3.org/2000/svg" width="300" height="300" viewBox="0 0 300 300">
<path d="M 122.0 116.0 L 123.0 117.0 L 124.0 119.0 L 126.0 121.0 L 131.0 124.0 L 136.0 126.0 " stroke="black" fill="none" stroke-width="5.0" stroke-linecap="round" stroke-linejoin="round" />
<path d="M 116.0 146.0 L 116.0 146.0 L 116.0 146.0 L 117.0 146.0 L 122.0 146.0 L 128.0 145.0 L 134.0 145.0 L 135.0 145.0 " stroke="black" fill="none" stroke-width="5.0" stroke-linecap="round" stroke-linejoin="round" />
<path d="M 103.0 178.0 L 103.0 178.0 L 103.0 179.0 L 106.0 179.0 L 114.0 177.0 L 126.0 173.0 L 134.0 170.0 " stroke="black" fill="none" stroke-width="5.0" stroke-linecap="round" stroke-linejoin="round" />
<path d="M 148.0 117.0 L 148.0 118.0 L 148.0 120.0 L 147.0 122.0 L 147.0 126.0 L 147.0 137.0 L 147.0 154.0 L 145.0 175.0 L 144.0 190.0 L 144.0 194.0 L 145.0 193.0 L 145.0 192.0 " stroke="black" fill="none" stroke-width="5.0" stroke-linecap="round" stroke-linejoin="round" />
<path d="M 150.0 111.0 L 150.0 111.0 L 151.0 111.0 L 151.0 111.0 L 152.0 111.0 L 155.0 111.0 L 160.0 112.0 L 168.0 113.0 L 176.0 115.0 L 182.0 116.0 L 185.0 117.0 L 187.0 119.0 L 189.0 125.0 L 191.0 136.0 L 194.0 152.0 L 196.0 167.0 L 197.0 181.0 L 199.0 192.0 L 199.0 197.0 L 199.0 200.0 L 197.0 200.0 L 193.0 199.0 L 184.0 195.0 L 178.0 193.0 " stroke="black" fill="none" stroke-width="5.0" stroke-linecap="round" stroke-linejoin="round" />
<path d="M 158.0 140.0 L 158.0 139.0 L 160.0 138.0 L 160.0 138.0 L 162.0 138.0 L 165.0 138.0 L 170.0 138.0 L 175.0 138.0 L 178.0 138.0 L 178.0 138.0 " stroke="black" fill="none" stroke-width="5.0" stroke-linecap="round" stroke-linejoin="round" />
<path d="M 156.0 154.0 L 156.0 154.0 L 156.0 155.0 L 156.0 155.0 L 156.0 157.0 L 157.0 160.0 L 158.0 163.0 L 158.0 163.0 " stroke="black" fill="none" stroke-width="5.0" stroke-linecap="round" stroke-linejoin="round" />
<path d="M 157.0 153.0 L 158.0 153.0 L 158.0 153.0 L 159.0 153.0 L 161.0 153.0 L 166.0 153.0 L 172.0 153.0 L 176.0 153.0 L 179.0 155.0 L 182.0 158.0 L 183.0 162.0 L 183.0 165.0 L 183.0 166.0 L 183.0 166.0 " stroke="black" fill="none" stroke-width="5.0" stroke-linecap="round" stroke-linejoin="round" />
<path d="M 160.0 168.0 L 161.0 170.0 L 162.0 171.0 L 166.0 172.0 L 174.0 171.0 L 183.0 169.0 L 187.0 168.0 " stroke="black" fill="none" stroke-width="5.0" stroke-linecap="round" stroke-linejoin="round" />
</svg>