<svg xmlns="http://www.w3.org/2000/svg" width="300" height="300" viewBox="0 0 300 300">
<path d="M 112.0 141.0 L 112.0 141.0 L 112.0 141.0 L 113.0 141.0 L 113.0 143.0 L 113.0 147.0 L 113.0 154.0 L 112.0 162.0 L 112.0 168.0 L 111.0 170.0 L 111.0 171.0 L 112.0 171.0 L 116.0 171.0 L 123.0 171.0 L 130.0 171.0 L 135.0 170.0 L 138.0 170.0 " stroke="black" fill="none" stroke-width="5.0" stroke-linecap="round" stroke-linejoin="round" />
<path d="M 126.0 130.0 L 126.0 130.0 L 125.0 131.0 L 125.0 132.0 L 125.0 137.0 L 125.0 146.0 L 125.0 157.0 L 125.0 165.0 L 125.0 167.0 " stroke="black" fill="none" stroke-width="5.0" stroke-linecap="round" stroke-linejoin="round" />
<path d="M 139.0 141.0 L 139.0 142.0 L 139.0 144.0 L 139.0 149.0 L 140.0 157.0 L 140.0 164.0 L 140.0 166.0 " stroke="black" fill="none" stroke-width="5.0" stroke-linecap="round" stroke-linejoin="round" />
<path d="M 161.0 119.0 L 161.0 119.0 L 161.0 120.0 L 161.0 122.0 L 160.0 126.0 L 157.0 134.0 L 152.0 144.0 L 149.0 150.0 " stroke="black" fill="none" stroke-width="5.0" stroke-linecap="round" stroke-linejoin="round" />
<path d="M 158.0 135.0 L 158.0 135.0 L 158.0 135.0 L 159.0 136.0 L 160.0 138.0 L 163.0 148.0 L 166.0 165.0 L 168.0 182.0 L 168.0 191.0 L 167.0 195.0 L 166.0 195.0 L 161.0 193.0 L 153.0 187.0 L 149.0 184.0 " stroke="black" fill="none" stroke-width="5.0" stroke-linecap="round" stroke-linejoin="round" />
<path d="M 150.0 159.0 L 150.0 159.0 L 152.0 159.0 L 157.0 158.0 L 166.0 158.0 L 179.0 157.0 L 189.0 155.0 L 193.0 155.0 " stroke="black" fill="none" stroke-width="5.0" stroke-linecap="round" stroke-linejoin="round" />
<path d="M 171.0 131.0 L 171.0 131.0 L 171.0 131.0 L 171.0 132.0 L 173.0 141.0 L 179.0 160.0 L 183.0 181.0 L 187.0 195.0 L 189.0 200.0 L 190.0 200.0 " stroke="black" fill="none" stroke-width="5.0" stroke-linecap="round" stroke-linejoin="round" />
<path d="M 194.0 170.0 L 193.0 171.0 L 192.0 172.0 L 190.0 174.0 L 186.0 178.0 L 177.0 185.0 L 175.0 187.0 " stroke="black" fill="none" stroke-width="5.0" stroke-linecap="round" stroke-linejoin="round" />
<path d="M 147.0 178.0 L 147.0 178.0 L 149.0 178.0 L 153.0 178.0 L 162.0 175.0 L 169.0 173.0 " stroke="black" fill="none" stroke-width="5.0" stroke-linecap="round" stroke-linejoin="round" />
<path d="M 190.0 134.0 L 190.0 135.0 L 191.0 137.0 L 193.0 141.0 L 195.0 144.0 " stroke="black" fill="none" stroke-width="5.0" stroke-linecap="round" stroke-linejoin="round" />
</svg>