<svg xmlns="http://www.w3.org/2000/svg" width="300" height="300" viewBox="0 0 300 300">
<path d="M 134.0 114.0 L 134.0 114.0 L 135.0 114.0 L 140.0 113.0 L 148.0 112.0 L 157.0 111.0 L 163.0 111.0 " stroke="black" fill="none" stroke-width="5.0" stroke-linecap="round" stroke-linejoin="round" />
<path d="M 113.0 149.0 L 114.0 149.0 L 116.0 149.0 L 122.0 148.0 L 134.0 146.0 L 150.0 145.0 L 165.0 144.0 L 176.0 144.0 L 178.0 143.0 " stroke="black" fill="none" stroke-width="5.0" stroke-linecap="round" stroke-linejoin="round" />
<path d="M 148.0 120.0 L 148.0 121.0 L 148.0 122.0 L 148.0 124.0 L 147.0 131.0 L 143.0 146.0 L 135.0 170.0 L 125.0 189.0 L 120.0 195.0 " stroke="black" fill="none" stroke-width="5.0" stroke-linecap="round" stroke-linejoin="round" />
<path d="M 145.0 150.0 L 145.0 150.0 L 145.0 150.0 L 147.0 150.0 L 156.0 159.0 L 175.0 175.0 L 191.0 189.0 L 198.0 196.0 " stroke="black" fill="none" stroke-width="5.0" stroke-linecap="round" stroke-linejoin="round" />
</svg>