<svg xmlns="http://www.w3.org/2000/svg" width="300" height="300" viewBox="0 0 300 300">
<path d="M 132.0 117.0 L 132.0 117.0 L 132.0 117.0 L 133.0 118.0 L 136.0 118.0 L 143.0 118.0 L 154.0 118.0 L 163.0 118.0 L 169.0 118.0 L 169.0 118.0 L 169.0 119.0 " stroke="black" fill="none" stroke-width="5.0" stroke-linecap="round" stroke-linejoin="round" />
<path d="M 115.0 148.0 L 116.0 148.0 L 116.0 148.0 L 117.0 148.0 L 122.0 148.0 L 136.0 148.0 L 153.0 148.0 L 166.0 148.0 L 171.0 149.0 L 173.0 151.0 " stroke="black" fill="none" stroke-width="5.0" stroke-linecap="round" stroke-linejoin="round" />
<path d="M 148.0 123.0 L 148.0 124.0 L 148.0 124.0 L 147.0 125.0 L 146.0 132.0 L 142.0 148.0 L 134.0 169.0 L 125.0 184.0 L 120.0 191.0 L 118.0 192.0 " stroke="black" fill="none" stroke-width="5.0" stroke-linecap="round" stroke-linejoin="round" />
<path d="M 142.0 151.0 L 142.0 151.0 L 142.0 151.0 L 145.0 155.0 L 154.0 166.0 L 166.0 180.0 L 177.0 190.0 L 182.0 194.0 L 183.0 195.0 " stroke="black" fill="none" stroke-width="5.0" stroke-linecap="round" stroke-linejoin="round" />
</svg>