<svg xmlns="http://www.w3.org/2000/svg" width="300" height="300" viewBox="0 0 300 300">
<path d="M 130.0 116.0 L 130.0 116.0 L 130.0 116.0 L 130.0 117.0 L 137.0 118.0 L 151.0 119.0 L 166.0 119.0 L 175.0 119.0 L 176.0 119.0 " stroke="black" fill="none" stroke-width="5.0" stroke-linecap="round" stroke-linejoin="round" />
<path d="M 115.0 155.0 L 118.0 155.0 L 124.0 155.0 L 136.0 156.0 L 152.0 156.0 L 167.0 157.0 L 178.0 157.0 L 182.0 157.0 " stroke="black" fill="none" stroke-width="5.0" stroke-linecap="round" stroke-linejoin="round" />
<path d="M 153.0 125.0 L 153.0 125.0 L 153.0 125.0 L 152.0 127.0 L 150.0 137.0 L 145.0 156.0 L 136.0 178.0 L 127.0 194.0 L 121.0 200.0 L 120.0 200.0 " stroke="black" fill="none" stroke-width="5.0" stroke-linecap="round" stroke-linejoin="round" />
<path d="M 147.0 166.0 L 148.0 166.0 L 149.0 167.0 L 153.0 171.0 L 163.0 182.0 L 175.0 194.0 L 184.0 202.0 L 186.0 205.0 " stroke="black" fill="none" stroke-width="5.0" stroke-linecap="round" stroke-linejoin="round" />
</svg>