<svg xmlns="http://www.w3.org/2000/svg" width="300" height="300" viewBox="0 0 300 300">
<path d="M 135.0 114.0 L 135.0 114.0 L 135.0 114.0 L 136.0 114.0 L 143.0 114.0 L 155.0 114.0 L 168.0 113.0 L 176.0 112.0 " stroke="black" fill="none" stroke-width="5.0" stroke-linecap="round" stroke-linejoin="round" />
<path d="M 116.0 146.0 L 116.0 146.0 L 115.0 146.0 L 115.0 146.0 L 124.0 146.0 L 141.0 146.0 L 158.0 146.0 L 171.0 146.0 L 181.0 146.0 " stroke="black" fill="none" stroke-width="5.0" stroke-linecap="round" stroke-linejoin="round" />
<path d="M 152.0 119.0 L 152.0 119.0 L 152.0 119.0 L 152.0 119.0 L 152.0 122.0 L 150.0 134.0 L 142.0 156.0 L 131.0 176.0 L 126.0 185.0 L 125.0 187.0 L 125.0 187.0 " stroke="black" fill="none" stroke-width="5.0" stroke-linecap="round" stroke-linejoin="round" />
<path d="M 146.0 153.0 L 146.0 153.0 L 146.0 153.0 L 147.0 153.0 L 150.0 156.0 L 161.0 171.0 L 177.0 187.0 L 189.0 196.0 L 191.0 197.0 " stroke="black" fill="none" stroke-width="5.0" stroke-linecap="round" stroke-linejoin="round" />
</svg>