<svg xmlns="http://www.w3.org/2000/svg" width="300" height="300" viewBox="0 0 300 300">
<path d="M 134.0 127.0 L 134.0 127.0 L 134.0 127.0 L 137.0 127.0 L 143.0 127.0 L 152.0 127.0 L 162.0 127.0 L 167.0 126.0 L 170.0 126.0 L 170.0 126.0 " stroke="black" fill="none" stroke-width="5.0" stroke-linecap="round" stroke-linejoin="round" />
<path d="M 123.0 158.0 L 124.0 158.0 L 125.0 158.0 L 131.0 158.0 L 143.0 157.0 L 158.0 156.0 L 171.0 156.0 L 179.0 156.0 L 182.0 156.0 L 182.0 156.0 " stroke="black" fill="none" stroke-width="5.0" stroke-linecap="round" stroke-linejoin="round" />
<path d="M 154.0 133.0 L 154.0 134.0 L 154.0 137.0 L 153.0 142.0 L 151.0 150.0 L 148.0 163.0 L 144.0 178.0 L 139.0 188.0 L 135.0 192.0 L 133.0 192.0 " stroke="black" fill="none" stroke-width="5.0" stroke-linecap="round" stroke-linejoin="round" />
<path d="M 151.0 163.0 L 152.0 163.0 L 154.0 164.0 L 158.0 166.0 L 165.0 173.0 L 176.0 182.0 L 187.0 190.0 L 194.0 194.0 L 197.0 195.0 L 198.0 195.0 " stroke="black" fill="none" stroke-width="5.0" stroke-linecap="round" stroke-linejoin="round" />
</svg>