<svg xmlns="http://www.w3.org/2000/svg" width="300" height="300" viewBox="0 0 300 300">
<path d="M 130.0 115.0 L 130.0 116.0 L 130.0 116.0 L 131.0 117.0 L 135.0 117.0 L 142.0 117.0 L 152.0 116.0 L 160.0 114.0 L 165.0 114.0 L 165.0 114.0 " stroke="black" fill="none" stroke-width="5.0" stroke-linecap="round" stroke-linejoin="round" />
<path d="M 115.0 147.0 L 115.0 147.0 L 116.0 147.0 L 118.0 147.0 L 126.0 147.0 L 140.0 147.0 L 154.0 147.0 L 164.0 146.0 L 170.0 146.0 L 172.0 146.0 " stroke="black" fill="none" stroke-width="5.0" stroke-linecap="round" stroke-linejoin="round" />
<path d="M 148.0 118.0 L 147.0 118.0 L 146.0 118.0 L 145.0 119.0 L 144.0 124.0 L 143.0 134.0 L 139.0 151.0 L 135.0 168.0 L 130.0 181.0 L 127.0 188.0 L 126.0 189.0 L 126.0 189.0 " stroke="black" fill="none" stroke-width="5.0" stroke-linecap="round" stroke-linejoin="round" />
<path d="M 143.0 152.0 L 143.0 152.0 L 143.0 152.0 L 143.0 152.0 L 146.0 157.0 L 154.0 168.0 L 166.0 182.0 L 175.0 190.0 L 179.0 193.0 L 180.0 193.0 L 178.0 192.0 " stroke="black" fill="none" stroke-width="5.0" stroke-linecap="round" stroke-linejoin="round" />
</svg>