<svg xmlns="http://www.w3.org/2000/svg" width="300" height="300" viewBox="0 0 300 300">
<path d="M 125.0 105.0 L 125.0 105.0 L 124.0 105.0 L 124.0 105.0 L 129.0 105.0 L 144.0 103.0 L 168.0 97.0 L 178.0 95.0 " stroke="black" fill="none" stroke-width="8.0" stroke-linecap="round" stroke-linejoin="round" />
<path d="M 104.0 150.0 L 105.0 150.0 L 107.0 150.0 L 112.0 150.0 L 128.0 148.0 L 154.0 144.0 L 182.0 140.0 L 195.0 139.0 " stroke="black" fill="none" stroke-width="8.0" stroke-linecap="round" stroke-linejoin="round" />
<path d="M 155.0 105.0 L 155.0 105.0 L 155.0 105.0 L 155.0 105.0 L 154.0 114.0 L 147.0 137.0 L 134.0 170.0 L 121.0 198.0 L 115.0 207.0 " stroke="black" fill="none" stroke-width="8.0" stroke-linecap="round" stroke-linejoin="round" />
<path d="M 145.0 147.0 L 145.0 147.0 L 146.0 148.0 L 149.0 152.0 L 158.0 161.0 L 179.0 181.0 L 201.0 203.0 L 212.0 214.0 " stroke="black" fill="none" stroke-width="8.0" stroke-linecap="round" stroke-linejoin="round" />
</svg>