<svg xmlns="http://www.w3.org/2000/svg" width="300" height="300" viewBox="0 0 300 300">
<path d="M 131.0 120.0 L 131.0 120.0 L 130.0 120.0 L 130.0 120.0 L 134.0 121.0 L 144.0 122.0 L 158.0 122.0 L 167.0 123.0 " stroke="black" fill="none" stroke-width="5.0" stroke-linecap="round" stroke-linejoin="round" />
<path d="M 118.0 153.0 L 118.0 153.0 L 118.0 153.0 L 122.0 153.0 L 135.0 153.0 L 153.0 154.0 L 168.0 155.0 L 177.0 155.0 " stroke="black" fill="none" stroke-width="5.0" stroke-linecap="round" stroke-linejoin="round" />
<path d="M 149.0 128.0 L 149.0 128.0 L 149.0 128.0 L 149.0 129.0 L 148.0 131.0 L 147.0 140.0 L 142.0 157.0 L 133.0 176.0 L 123.0 190.0 L 119.0 195.0 " stroke="black" fill="none" stroke-width="5.0" stroke-linecap="round" stroke-linejoin="round" />
<path d="M 146.0 162.0 L 146.0 162.0 L 146.0 162.0 L 149.0 165.0 L 155.0 173.0 L 165.0 183.0 L 176.0 189.0 L 182.0 192.0 " stroke="black" fill="none" stroke-width="5.0" stroke-linecap="round" stroke-linejoin="round" />
</svg>