<svg xmlns="http://www.w3.org/2000/svg" width="300" height="300" viewBox="0 0 300 300">
<path d="M 102.0 91.0 L 102.0 91.0 L 102.0 91.0 L 102.0 91.0 L 104.0 91.0 L 112.0 91.0 L 132.0 90.0 L 157.0 89.0 L 183.0 89.0 L 206.0 89.0 " stroke="black" fill="none" stroke-width="5.0" stroke-linecap="round" stroke-linejoin="round" />
<path d="M 75.0 163.0 L 75.0 163.0 L 76.0 163.0 L 82.0 163.0 L 103.0 163.0 L 138.0 161.0 L 174.0 161.0 L 205.0 161.0 L 221.0 163.0 " stroke="black" fill="none" stroke-width="5.0" stroke-linecap="round" stroke-linejoin="round" />
<path d="M 160.0 99.0 L 161.0 97.0 L 161.0 97.0 L 161.0 98.0 L 158.0 105.0 L 153.0 120.0 L 143.0 145.0 L 125.0 180.0 L 103.0 216.0 L 85.0 238.0 " stroke="black" fill="none" stroke-width="5.0" stroke-linecap="round" stroke-linejoin="round" />
<path d="M 143.0 163.0 L 143.0 163.0 L 143.0 163.0 L 143.0 163.0 L 147.0 173.0 L 162.0 199.0 L 187.0 233.0 L 210.0 256.0 L 220.0 262.0 " stroke="black" fill="none" stroke-width="5.0" stroke-linecap="round" stroke-linejoin="round" />
</svg>