<svg xmlns="http://www.w3.org/2000/svg" width="300" height="300" viewBox="0 0 300 300">
<path d="M 130.0 119.0 L 130.0 119.0 L 130.0 120.0 L 132.0 121.0 L 137.0 121.0 L 149.0 121.0 L 164.0 119.0 L 176.0 118.0 " stroke="black" fill="none" stroke-width="5.0" stroke-linecap="round" stroke-linejoin="round" />
<path d="M 117.0 156.0 L 117.0 156.0 L 117.0 156.0 L 118.0 156.0 L 127.0 156.0 L 145.0 155.0 L 164.0 154.0 L 178.0 154.0 " stroke="black" fill="none" stroke-width="5.0" stroke-linecap="round" stroke-linejoin="round" />
<path d="M 152.0 124.0 L 152.0 124.0 L 152.0 124.0 L 152.0 128.0 L 149.0 142.0 L 142.0 163.0 L 133.0 183.0 L 124.0 198.0 L 119.0 205.0 L 117.0 205.0 " stroke="black" fill="none" stroke-width="5.0" stroke-linecap="round" stroke-linejoin="round" />
<path d="M 147.0 161.0 L 147.0 161.0 L 147.0 162.0 L 148.0 166.0 L 155.0 176.0 L 167.0 190.0 L 179.0 200.0 L 185.0 204.0 " stroke="black" fill="none" stroke-width="5.0" stroke-linecap="round" stroke-linejoin="round" />
</svg>