<svg xmlns="http://www.w3.org/2000/svg" width="300" height="300" viewBox="0 0 300 300">
<path d="M 124.0 115.0 L 124.0 115.0 L 126.0 115.0 L 127.0 115.0 L 131.0 115.0 L 139.0 115.0 L 150.0 115.0 L 161.0 115.0 L 168.0 115.0 L 170.0 115.0 L 170.0 115.0 L 171.0 115.0 " stroke="black" fill="none" stroke-width="5.0" stroke-linecap="round" stroke-linejoin="round" />
<path d="M 107.0 153.0 L 107.0 153.0 L 111.0 153.0 L 116.0 153.0 L 126.0 153.0 L 142.0 153.0 L 158.0 152.0 L 171.0 152.0 L 178.0 152.0 L 179.0 153.0 L 179.0 153.0 " stroke="black" fill="none" stroke-width="5.0" stroke-linecap="round" stroke-linejoin="round" />
<path d="M 146.0 120.0 L 146.0 120.0 L 146.0 121.0 L 146.0 121.0 L 146.0 123.0 L 146.0 128.0 L 142.0 142.0 L 124.0 180.0 L 115.0 191.0 L 112.0 194.0 " stroke="black" fill="none" stroke-width="5.0" stroke-linecap="round" stroke-linejoin="round" />
<path d="M 144.0 161.0 L 144.0 161.0 L 145.0 162.0 L 147.0 165.0 L 153.0 171.0 L 164.0 182.0 L 176.0 193.0 L 183.0 200.0 L 187.0 204.0 L 187.0 205.0 " stroke="black" fill="none" stroke-width="5.0" stroke-linecap="round" stroke-linejoin="round" />
</svg>