<svg xmlns="http://www.w3.org/2000/svg" width="300" height="300" viewBox="0 0 300 300">
<path d="M 117.0 111.0 L 117.0 111.0 L 117.0 111.0 L 117.0 111.0 L 117.0 111.0 L 118.0 112.0 L 121.0 113.0 L 126.0 115.0 L 131.0 117.0 L 133.0 118.0 L 133.0 120.0 L 128.0 123.0 L 125.0 128.0 L 122.0 133.0 L 121.0 139.0 L 122.0 146.0 L 125.0 156.0 L 129.0 166.0 L 133.0 175.0 L 135.0 182.0 L 135.0 186.0 L 134.0 188.0 L 129.0 188.0 L 122.0 188.0 L 117.0 188.0 " stroke="black" fill="none" stroke-width="5.0" stroke-linecap="round" stroke-linejoin="round" />
<path d="M 105.0 159.0 L 105.0 159.0 L 105.0 159.0 L 104.0 160.0 L 106.0 160.0 L 115.0 159.0 L 129.0 156.0 L 137.0 154.0 " stroke="black" fill="none" stroke-width="5.0" stroke-linecap="round" stroke-linejoin="round" />
<path d="M 162.0 111.0 L 162.0 111.0 L 162.0 111.0 L 162.0 111.0 L 162.0 111.0 L 162.0 112.0 L 160.0 115.0 L 157.0 118.0 L 153.0 121.0 L 151.0 124.0 L 150.0 127.0 L 150.0 134.0 L 150.0 148.0 L 150.0 167.0 L 150.0 184.0 L 150.0 194.0 L 150.0 198.0 L 150.0 199.0 " stroke="black" fill="none" stroke-width="5.0" stroke-linecap="round" stroke-linejoin="round" />
<path d="M 162.0 136.0 L 162.0 136.0 L 162.0 136.0 L 162.0 136.0 L 161.0 139.0 L 161.0 147.0 L 161.0 163.0 L 161.0 180.0 L 161.0 190.0 L 165.0 194.0 L 169.0 194.0 L 174.0 189.0 L 177.0 184.0 " stroke="black" fill="none" stroke-width="5.0" stroke-linecap="round" stroke-linejoin="round" />
<path d="M 177.0 170.0 L 177.0 170.0 L 176.0 171.0 L 177.0 175.0 L 180.0 183.0 L 184.0 193.0 L 187.0 200.0 " stroke="black" fill="none" stroke-width="5.0" stroke-linecap="round" stroke-linejoin="round" />
<path d="M 177.0 126.0 L 177.0 127.0 L 177.0 129.0 L 177.0 134.0 L 182.0 150.0 L 191.0 174.0 L 198.0 195.0 L 203.0 202.0 " stroke="black" fill="none" stroke-width="5.0" stroke-linecap="round" stroke-linejoin="round" />
</svg>