<svg xmlns="http://www.w3.org/2000/svg" width="300" height="300" viewBox="0 0 300 300">
<path d="M 122.0 126.0 L 122.0 127.0 L 122.0 127.0 L 122.0 129.0 L 122.0 134.0 L 122.0 141.0 L 123.0 146.0 L 123.0 148.0 " stroke="black" fill="none" stroke-width="5.0" stroke-linecap="round" stroke-linejoin="round" />
<path d="M 123.0 127.0 L 125.0 127.0 L 127.0 128.0 L 131.0 128.0 L 136.0 128.0 L 144.0 128.0 L 153.0 128.0 L 160.0 128.0 L 166.0 128.0 L 170.0 131.0 L 171.0 136.0 L 172.0 142.0 L 172.0 147.0 L 172.0 150.0 L 171.0 151.0 " stroke="black" fill="none" stroke-width="5.0" stroke-linecap="round" stroke-linejoin="round" />
<path d="M 126.0 153.0 L 127.0 153.0 L 129.0 154.0 L 136.0 154.0 L 147.0 154.0 L 157.0 152.0 L 162.0 151.0 " stroke="black" fill="none" stroke-width="5.0" stroke-linecap="round" stroke-linejoin="round" />
<path d="M 148.0 111.0 L 148.0 113.0 L 147.0 118.0 L 147.0 131.0 L 146.0 149.0 L 143.0 165.0 L 138.0 178.0 L 132.0 187.0 L 127.0 192.0 L 124.0 193.0 " stroke="black" fill="none" stroke-width="5.0" stroke-linecap="round" stroke-linejoin="round" />
<path d="M 114.0 168.0 L 115.0 169.0 L 116.0 172.0 L 122.0 176.0 L 135.0 183.0 L 152.0 191.0 L 166.0 198.0 L 178.0 202.0 L 186.0 205.0 L 191.0 206.0 L 192.0 206.0 L 193.0 205.0 " stroke="black" fill="none" stroke-width="5.0" stroke-linecap="round" stroke-linejoin="round" />
</svg>