<svg xmlns="http://www.w3.org/2000/svg" width="300" height="300" viewBox="0 0 300 300">
<path d="M 126.0 108.0 L 126.0 108.0 L 126.0 108.0 L 126.0 108.0 L 126.0 108.0 L 126.0 112.0 L 126.0 124.0 L 126.0 145.0 L 126.0 167.0 L 125.0 182.0 L 125.0 192.0 L 125.0 196.0 L 126.0 197.0 L 126.0 196.0 " stroke="black" fill="none" stroke-width="5.0" stroke-linecap="round" stroke-linejoin="round" />
<path d="M 121.0 145.0 L 121.0 145.0 L 121.0 145.0 L 120.0 147.0 L 117.0 152.0 L 113.0 160.0 L 109.0 167.0 L 108.0 169.0 " stroke="black" fill="none" stroke-width="5.0" stroke-linecap="round" stroke-linejoin="round" />
<path d="M 129.0 148.0 L 129.0 148.0 L 130.0 148.0 L 132.0 149.0 L 134.0 154.0 L 137.0 161.0 L 139.0 168.0 L 140.0 169.0 " stroke="black" fill="none" stroke-width="5.0" stroke-linecap="round" stroke-linejoin="round" />
<path d="M 150.0 119.0 L 150.0 119.0 L 151.0 119.0 L 152.0 119.0 L 155.0 119.0 L 159.0 119.0 L 163.0 119.0 L 165.0 119.0 L 168.0 121.0 L 170.0 127.0 L 172.0 135.0 L 173.0 142.0 L 174.0 146.0 L 174.0 147.0 " stroke="black" fill="none" stroke-width="5.0" stroke-linecap="round" stroke-linejoin="round" />
<path d="M 151.0 134.0 L 152.0 134.0 L 154.0 135.0 L 157.0 135.0 L 162.0 134.0 L 167.0 133.0 L 169.0 133.0 " stroke="black" fill="none" stroke-width="5.0" stroke-linecap="round" stroke-linejoin="round" />
<path d="M 149.0 148.0 L 151.0 149.0 L 154.0 150.0 L 159.0 150.0 L 165.0 150.0 L 170.0 149.0 " stroke="black" fill="none" stroke-width="5.0" stroke-linecap="round" stroke-linejoin="round" />
<path d="M 152.0 121.0 L 152.0 121.0 L 152.0 121.0 L 151.0 122.0 L 151.0 128.0 L 151.0 146.0 L 150.0 170.0 L 149.0 186.0 L 149.0 193.0 L 151.0 196.0 L 155.0 198.0 L 160.0 197.0 L 166.0 191.0 L 168.0 187.0 " stroke="black" fill="none" stroke-width="5.0" stroke-linecap="round" stroke-linejoin="round" />
<path d="M 157.0 156.0 L 157.0 156.0 L 158.0 159.0 L 162.0 164.0 L 168.0 175.0 L 177.0 190.0 L 184.0 199.0 L 188.0 201.0 L 189.0 201.0 " stroke="black" fill="none" stroke-width="5.0" stroke-linecap="round" stroke-linejoin="round" />
<path d="M 177.0 182.0 L 177.0 182.0 L 176.0 181.0 L 176.0 181.0 L 177.0 179.0 L 182.0 173.0 L 188.0 165.0 L 189.0 164.0 " stroke="black" fill="none" stroke-width="5.0" stroke-linecap="round" stroke-linejoin="round" />
</svg>