<svg xmlns="http://www.w3.org/2000/svg" width="300" height="300" viewBox="0 0 300 300">
<path d="M 132.0 111.0 L 132.0 111.0 L 132.0 111.0 L 132.0 111.0 L 132.0 113.0 L 128.0 119.0 L 122.0 131.0 L 117.0 139.0 " stroke="black" fill="none" stroke-width="5.0" stroke-linecap="round" stroke-linejoin="round" />
<path d="M 169.0 111.0 L 169.0 111.0 L 169.0 112.0 L 171.0 113.0 L 178.0 119.0 L 186.0 127.0 L 189.0 130.0 " stroke="black" fill="none" stroke-width="5.0" stroke-linecap="round" stroke-linejoin="round" />
<path d="M 172.0 126.0 L 172.0 127.0 L 171.0 128.0 L 171.0 130.0 L 169.0 134.0 L 164.0 142.0 L 152.0 157.0 L 132.0 176.0 L 113.0 189.0 L 103.0 194.0 " stroke="black" fill="none" stroke-width="5.0" stroke-linecap="round" stroke-linejoin="round" />
<path d="M 127.0 142.0 L 127.0 142.0 L 127.0 142.0 L 127.0 142.0 L 130.0 145.0 L 142.0 158.0 L 162.0 181.0 L 181.0 201.0 L 190.0 211.0 L 190.0 212.0 " stroke="black" fill="none" stroke-width="5.0" stroke-linecap="round" stroke-linejoin="round" />
</svg>