<svg xmlns="http://www.w3.org/2000/svg" width="300" height="300" viewBox="0 0 300 300">
<path d="M 127.0 105.0 L 127.0 105.0 L 127.0 105.0 L 127.0 105.0 L 127.0 105.0 L 127.0 107.0 L 124.0 112.0 L 117.0 121.0 L 107.0 133.0 L 105.0 135.0 " stroke="black" fill="none" stroke-width="5.0" stroke-linecap="round" stroke-linejoin="round" />
<path d="M 115.0 124.0 L 115.0 124.0 L 115.0 124.0 L 115.0 124.0 L 116.0 125.0 L 116.0 126.0 L 118.0 129.0 L 120.0 134.0 L 122.0 137.0 " stroke="black" fill="none" stroke-width="5.0" stroke-linecap="round" stroke-linejoin="round" />
<path d="M 122.0 119.0 L 123.0 119.0 L 123.0 119.0 L 124.0 120.0 L 125.0 122.0 L 126.0 127.0 L 129.0 133.0 " stroke="black" fill="none" stroke-width="5.0" stroke-linecap="round" stroke-linejoin="round" />
<path d="M 139.0 120.0 L 139.0 120.0 L 138.0 121.0 L 138.0 122.0 L 136.0 124.0 L 133.0 129.0 L 126.0 139.0 L 116.0 151.0 L 107.0 160.0 L 105.0 162.0 " stroke="black" fill="none" stroke-width="5.0" stroke-linecap="round" stroke-linejoin="round" />
<path d="M 124.0 144.0 L 124.0 144.0 L 124.0 144.0 L 124.0 144.0 L 124.0 144.0 L 124.0 146.0 L 127.0 153.0 L 131.0 164.0 L 133.0 176.0 L 133.0 185.0 L 133.0 189.0 L 130.0 190.0 L 123.0 190.0 L 118.0 187.0 " stroke="black" fill="none" stroke-width="5.0" stroke-linecap="round" stroke-linejoin="round" />
<path d="M 125.0 153.0 L 125.0 153.0 L 125.0 153.0 L 125.0 153.0 L 125.0 153.0 L 125.0 153.0 L 124.0 155.0 L 121.0 159.0 L 113.0 168.0 L 108.0 174.0 " stroke="black" fill="none" stroke-width="5.0" stroke-linecap="round" stroke-linejoin="round" />
<path d="M 130.0 163.0 L 130.0 163.0 L 130.0 164.0 L 130.0 164.0 L 130.0 164.0 L 128.0 166.0 L 122.0 172.0 L 112.0 182.0 L 109.0 185.0 " stroke="black" fill="none" stroke-width="5.0" stroke-linecap="round" stroke-linejoin="round" />
<path d="M 153.0 112.0 L 153.0 112.0 L 153.0 112.0 L 153.0 112.0 L 153.0 112.0 L 152.0 115.0 L 150.0 118.0 L 147.0 121.0 L 145.0 122.0 L 144.0 125.0 L 144.0 128.0 L 144.0 134.0 L 144.0 141.0 L 145.0 146.0 L 145.0 149.0 L 145.0 149.0 " stroke="black" fill="none" stroke-width="5.0" stroke-linecap="round" stroke-linejoin="round" />
<path d="M 146.0 125.0 L 146.0 126.0 L 146.0 126.0 L 147.0 126.0 L 152.0 126.0 L 158.0 125.0 L 164.0 124.0 L 168.0 124.0 L 171.0 126.0 L 173.0 132.0 L 174.0 140.0 L 174.0 146.0 L 174.0 151.0 L 173.0 154.0 L 172.0 154.0 " stroke="black" fill="none" stroke-width="5.0" stroke-linecap="round" stroke-linejoin="round" />
<path d="M 147.0 140.0 L 147.0 140.0 L 147.0 140.0 L 147.0 141.0 L 151.0 141.0 L 158.0 140.0 L 167.0 139.0 L 173.0 139.0 L 175.0 140.0 L 175.0 140.0 " stroke="black" fill="none" stroke-width="5.0" stroke-linecap="round" stroke-linejoin="round" />
<path d="M 147.0 152.0 L 146.0 153.0 L 146.0 153.0 L 146.0 153.0 L 151.0 153.0 L 160.0 153.0 L 169.0 152.0 L 175.0 153.0 " stroke="black" fill="none" stroke-width="5.0" stroke-linecap="round" stroke-linejoin="round" />
<path d="M 154.0 157.0 L 154.0 157.0 L 155.0 157.0 L 155.0 157.0 L 156.0 157.0 L 156.0 160.0 L 154.0 168.0 L 152.0 179.0 L 150.0 187.0 L 150.0 188.0 " stroke="black" fill="none" stroke-width="5.0" stroke-linecap="round" stroke-linejoin="round" />
<path d="M 163.0 153.0 L 163.0 153.0 L 163.0 153.0 L 163.0 153.0 L 163.0 154.0 L 164.0 159.0 L 165.0 168.0 L 167.0 179.0 L 169.0 187.0 L 173.0 192.0 L 179.0 193.0 L 185.0 193.0 L 191.0 191.0 L 194.0 189.0 L 196.0 188.0 L 197.0 186.0 L 197.0 180.0 L 197.0 172.0 " stroke="black" fill="none" stroke-width="5.0" stroke-linecap="round" stroke-linejoin="round" />
</svg>