<svg xmlns="http://www.w3.org/2000/svg" width="300" height="300" viewBox="0 0 300 300">
<path d="M 145.0 98.0 L 145.0 98.0 L 145.0 98.0 L 145.0 98.0 L 146.0 99.0 L 149.0 104.0 L 150.0 107.0 " stroke="black" fill="none" stroke-width="5.0" stroke-linecap="round" stroke-linejoin="round" />
<path d="M 117.0 115.0 L 117.0 115.0 L 117.0 115.0 L 119.0 115.0 L 127.0 115.0 L 143.0 115.0 L 158.0 115.0 L 170.0 115.0 L 175.0 115.0 " stroke="black" fill="none" stroke-width="5.0" stroke-linecap="round" stroke-linejoin="round" />
<path d="M 125.0 132.0 L 125.0 132.0 L 125.0 132.0 L 125.0 133.0 L 125.0 135.0 L 126.0 139.0 L 126.0 142.0 L 126.0 144.0 L 126.0 145.0 " stroke="black" fill="none" stroke-width="5.0" stroke-linecap="round" stroke-linejoin="round" />
<path d="M 123.0 130.0 L 123.0 129.0 L 124.0 129.0 L 124.0 129.0 L 128.0 129.0 L 135.0 129.0 L 144.0 129.0 L 152.0 129.0 L 159.0 129.0 L 162.0 129.0 L 164.0 132.0 L 165.0 138.0 L 166.0 144.0 L 166.0 148.0 L 167.0 150.0 L 167.0 150.0 " stroke="black" fill="none" stroke-width="5.0" stroke-linecap="round" stroke-linejoin="round" />
<path d="M 132.0 150.0 L 132.0 150.0 L 133.0 150.0 L 139.0 150.0 L 149.0 150.0 L 157.0 150.0 L 159.0 150.0 " stroke="black" fill="none" stroke-width="5.0" stroke-linecap="round" stroke-linejoin="round" />
<path d="M 137.0 154.0 L 137.0 154.0 L 137.0 154.0 L 136.0 154.0 L 134.0 155.0 L 131.0 158.0 L 124.0 166.0 L 115.0 178.0 L 107.0 187.0 " stroke="black" fill="none" stroke-width="5.0" stroke-linecap="round" stroke-linejoin="round" />
<path d="M 128.0 167.0 L 128.0 167.0 L 128.0 167.0 L 127.0 167.0 L 127.0 169.0 L 127.0 175.0 L 127.0 183.0 L 131.0 189.0 L 137.0 190.0 L 141.0 189.0 " stroke="black" fill="none" stroke-width="5.0" stroke-linecap="round" stroke-linejoin="round" />
<path d="M 176.0 156.0 L 176.0 157.0 L 175.0 159.0 L 173.0 162.0 L 169.0 166.0 L 166.0 169.0 " stroke="black" fill="none" stroke-width="5.0" stroke-linecap="round" stroke-linejoin="round" />
<path d="M 145.0 157.0 L 145.0 157.0 L 146.0 157.0 L 148.0 159.0 L 155.0 167.0 L 166.0 180.0 L 177.0 192.0 L 182.0 198.0 L 184.0 201.0 L 185.0 201.0 L 185.0 200.0 " stroke="black" fill="none" stroke-width="5.0" stroke-linecap="round" stroke-linejoin="round" />
</svg>