<svg xmlns="http://www.w3.org/2000/svg" width="300" height="300" viewBox="0 0 300 300">
<path d="M 131.0 111.0 L 131.0 111.0 L 131.0 111.0 L 132.0 111.0 L 137.0 111.0 L 147.0 111.0 L 156.0 111.0 L 162.0 111.0 L 166.0 111.0 L 167.0 111.0 L 166.0 111.0 " stroke="black" fill="none" stroke-width="5.0" stroke-linecap="round" stroke-linejoin="round" />
<path d="M 123.0 129.0 L 123.0 129.0 L 123.0 129.0 L 123.0 129.0 L 123.0 132.0 L 123.0 138.0 L 124.0 144.0 " stroke="black" fill="none" stroke-width="5.0" stroke-linecap="round" stroke-linejoin="round" />
<path d="M 124.0 129.0 L 124.0 129.0 L 125.0 129.0 L 126.0 129.0 L 133.0 129.0 L 144.0 128.0 L 156.0 127.0 L 166.0 126.0 L 172.0 126.0 L 176.0 127.0 L 178.0 130.0 L 179.0 135.0 L 179.0 142.0 L 179.0 147.0 L 178.0 151.0 " stroke="black" fill="none" stroke-width="5.0" stroke-linecap="round" stroke-linejoin="round" />
<path d="M 138.0 139.0 L 138.0 139.0 L 138.0 139.0 L 139.0 139.0 L 145.0 139.0 L 155.0 139.0 L 163.0 139.0 L 168.0 139.0 L 169.0 139.0 " stroke="black" fill="none" stroke-width="5.0" stroke-linecap="round" stroke-linejoin="round" />
<path d="M 131.0 152.0 L 132.0 152.0 L 134.0 153.0 L 140.0 153.0 L 151.0 152.0 L 164.0 151.0 L 171.0 150.0 L 172.0 151.0 " stroke="black" fill="none" stroke-width="5.0" stroke-linecap="round" stroke-linejoin="round" />
<path d="M 147.0 102.0 L 147.0 102.0 L 146.0 102.0 L 146.0 107.0 L 148.0 122.0 L 151.0 146.0 L 153.0 168.0 L 154.0 182.0 L 155.0 190.0 L 155.0 192.0 L 155.0 192.0 " stroke="black" fill="none" stroke-width="5.0" stroke-linecap="round" stroke-linejoin="round" />
<path d="M 151.0 156.0 L 151.0 156.0 L 151.0 157.0 L 151.0 157.0 L 150.0 158.0 L 147.0 161.0 L 141.0 168.0 L 132.0 177.0 L 122.0 186.0 L 117.0 190.0 " stroke="black" fill="none" stroke-width="5.0" stroke-linecap="round" stroke-linejoin="round" />
<path d="M 152.0 159.0 L 152.0 159.0 L 153.0 159.0 L 156.0 162.0 L 166.0 170.0 L 178.0 182.0 L 186.0 191.0 L 190.0 195.0 " stroke="black" fill="none" stroke-width="5.0" stroke-linecap="round" stroke-linejoin="round" />
</svg>