<svg xmlns="http://www.w3.org/2000/svg" width="300" height="300" viewBox="0 0 300 300">
<path d="M 129.0 115.0 L 129.0 115.0 L 129.0 115.0 L 129.0 115.0 L 129.0 115.0 L 129.0 115.0 L 137.0 115.0 L 148.0 114.0 L 160.0 112.0 L 169.0 111.0 L 172.0 111.0 L 172.0 111.0 L 170.0 112.0 " stroke="black" fill="none" stroke-width="5.0" stroke-linecap="round" stroke-linejoin="round" />
<path d="M 124.0 135.0 L 124.0 135.0 L 124.0 135.0 L 125.0 137.0 L 126.0 141.0 L 126.0 145.0 L 127.0 148.0 " stroke="black" fill="none" stroke-width="5.0" stroke-linecap="round" stroke-linejoin="round" />
<path d="M 125.0 133.0 L 125.0 133.0 L 126.0 133.0 L 129.0 132.0 L 138.0 130.0 L 151.0 127.0 L 162.0 126.0 L 171.0 126.0 L 177.0 126.0 L 180.0 128.0 L 181.0 132.0 L 181.0 138.0 L 181.0 144.0 L 180.0 148.0 L 180.0 149.0 " stroke="black" fill="none" stroke-width="5.0" stroke-linecap="round" stroke-linejoin="round" />
<path d="M 136.0 139.0 L 136.0 139.0 L 136.0 139.0 L 136.0 139.0 L 141.0 139.0 L 151.0 139.0 L 162.0 137.0 L 169.0 137.0 L 171.0 136.0 " stroke="black" fill="none" stroke-width="5.0" stroke-linecap="round" stroke-linejoin="round" />
<path d="M 130.0 153.0 L 130.0 153.0 L 132.0 153.0 L 137.0 153.0 L 145.0 153.0 L 157.0 151.0 L 167.0 149.0 L 170.0 148.0 " stroke="black" fill="none" stroke-width="5.0" stroke-linecap="round" stroke-linejoin="round" />
<path d="M 153.0 96.0 L 153.0 95.0 L 154.0 95.0 L 154.0 95.0 L 154.0 97.0 L 154.0 107.0 L 154.0 128.0 L 154.0 154.0 L 154.0 173.0 L 154.0 184.0 L 154.0 189.0 L 154.0 191.0 L 154.0 189.0 " stroke="black" fill="none" stroke-width="5.0" stroke-linecap="round" stroke-linejoin="round" />
<path d="M 153.0 156.0 L 153.0 156.0 L 154.0 156.0 L 154.0 156.0 L 154.0 157.0 L 152.0 159.0 L 146.0 164.0 L 135.0 173.0 L 120.0 184.0 L 111.0 191.0 L 110.0 192.0 " stroke="black" fill="none" stroke-width="5.0" stroke-linecap="round" stroke-linejoin="round" />
<path d="M 154.0 159.0 L 154.0 159.0 L 155.0 159.0 L 156.0 160.0 L 162.0 165.0 L 173.0 176.0 L 184.0 186.0 L 189.0 193.0 L 190.0 195.0 " stroke="black" fill="none" stroke-width="5.0" stroke-linecap="round" stroke-linejoin="round" />
</svg>