<svg xmlns="http://www.w3.org/2000/svg" width="300" height="300" viewBox="0 0 300 300">
<path d="M 130.0 117.0 L 130.0 117.0 L 129.0 118.0 L 129.0 118.0 L 132.0 118.0 L 142.0 118.0 L 156.0 120.0 L 169.0 120.0 L 177.0 121.0 L 179.0 121.0 L 179.0 121.0 L 177.0 121.0 " stroke="black" fill="none" stroke-width="5.0" stroke-linecap="round" stroke-linejoin="round" />
<path d="M 123.0 138.0 L 124.0 140.0 L 124.0 144.0 L 124.0 150.0 L 124.0 154.0 " stroke="black" fill="none" stroke-width="5.0" stroke-linecap="round" stroke-linejoin="round" />
<path d="M 124.0 134.0 L 124.0 134.0 L 125.0 135.0 L 130.0 135.0 L 139.0 135.0 L 151.0 133.0 L 162.0 132.0 L 171.0 132.0 L 177.0 133.0 L 179.0 135.0 L 180.0 141.0 L 180.0 148.0 L 180.0 155.0 L 180.0 158.0 L 180.0 159.0 " stroke="black" fill="none" stroke-width="5.0" stroke-linecap="round" stroke-linejoin="round" />
<path d="M 132.0 146.0 L 132.0 146.0 L 131.0 146.0 L 132.0 147.0 L 139.0 147.0 L 151.0 147.0 L 163.0 147.0 L 171.0 147.0 L 172.0 148.0 " stroke="black" fill="none" stroke-width="5.0" stroke-linecap="round" stroke-linejoin="round" />
<path d="M 130.0 157.0 L 130.0 157.0 L 131.0 158.0 L 134.0 159.0 L 143.0 159.0 L 158.0 158.0 L 170.0 157.0 L 174.0 158.0 " stroke="black" fill="none" stroke-width="5.0" stroke-linecap="round" stroke-linejoin="round" />
<path d="M 154.0 107.0 L 154.0 107.0 L 154.0 107.0 L 153.0 107.0 L 153.0 112.0 L 154.0 133.0 L 156.0 162.0 L 157.0 183.0 L 157.0 192.0 L 157.0 194.0 L 157.0 194.0 " stroke="black" fill="none" stroke-width="5.0" stroke-linecap="round" stroke-linejoin="round" />
<path d="M 153.0 158.0 L 153.0 158.0 L 153.0 159.0 L 152.0 161.0 L 149.0 163.0 L 144.0 167.0 L 135.0 174.0 L 123.0 181.0 L 113.0 185.0 L 110.0 187.0 " stroke="black" fill="none" stroke-width="5.0" stroke-linecap="round" stroke-linejoin="round" />
<path d="M 157.0 162.0 L 157.0 164.0 L 158.0 166.0 L 163.0 169.0 L 174.0 177.0 L 187.0 187.0 L 195.0 194.0 L 197.0 198.0 " stroke="black" fill="none" stroke-width="5.0" stroke-linecap="round" stroke-linejoin="round" />
</svg>