<svg xmlns="http://www.w3.org/2000/svg" width="300" height="300" viewBox="0 0 300 300">
<path d="M 125.0 114.0 L 125.0 114.0 L 125.0 114.0 L 126.0 114.0 L 127.0 114.0 L 130.0 114.0 L 137.0 114.0 L 146.0 114.0 L 155.0 114.0 L 162.0 114.0 L 166.0 114.0 L 167.0 114.0 " stroke="black" fill="none" stroke-width="5.0" stroke-linecap="round" stroke-linejoin="round" />
<path d="M 118.0 131.0 L 119.0 131.0 L 119.0 131.0 L 120.0 132.0 L 120.0 137.0 L 121.0 142.0 L 122.0 148.0 L 122.0 150.0 " stroke="black" fill="none" stroke-width="5.0" stroke-linecap="round" stroke-linejoin="round" />
<path d="M 120.0 130.0 L 120.0 130.0 L 121.0 130.0 L 122.0 130.0 L 126.0 130.0 L 135.0 130.0 L 147.0 128.0 L 158.0 127.0 L 167.0 126.0 L 172.0 126.0 L 175.0 128.0 L 176.0 133.0 L 177.0 139.0 L 177.0 146.0 L 178.0 149.0 L 178.0 150.0 " stroke="black" fill="none" stroke-width="5.0" stroke-linecap="round" stroke-linejoin="round" />
<path d="M 129.0 140.0 L 129.0 140.0 L 131.0 139.0 L 132.0 139.0 L 137.0 139.0 L 146.0 138.0 L 156.0 138.0 L 166.0 137.0 L 171.0 137.0 L 172.0 137.0 L 169.0 139.0 " stroke="black" fill="none" stroke-width="5.0" stroke-linecap="round" stroke-linejoin="round" />
<path d="M 122.0 155.0 L 122.0 155.0 L 125.0 155.0 L 132.0 155.0 L 145.0 154.0 L 159.0 152.0 L 170.0 151.0 L 174.0 151.0 " stroke="black" fill="none" stroke-width="5.0" stroke-linecap="round" stroke-linejoin="round" />
<path d="M 147.0 98.0 L 147.0 98.0 L 147.0 98.0 L 147.0 98.0 L 147.0 105.0 L 149.0 127.0 L 151.0 156.0 L 151.0 176.0 L 151.0 188.0 L 152.0 194.0 L 152.0 196.0 L 152.0 196.0 " stroke="black" fill="none" stroke-width="5.0" stroke-linecap="round" stroke-linejoin="round" />
<path d="M 147.0 159.0 L 147.0 159.0 L 147.0 159.0 L 146.0 159.0 L 143.0 161.0 L 136.0 167.0 L 125.0 176.0 L 114.0 184.0 L 108.0 189.0 " stroke="black" fill="none" stroke-width="5.0" stroke-linecap="round" stroke-linejoin="round" />
<path d="M 151.0 161.0 L 152.0 161.0 L 154.0 162.0 L 158.0 164.0 L 165.0 169.0 L 175.0 177.0 L 185.0 184.0 L 191.0 188.0 L 192.0 191.0 L 192.0 192.0 " stroke="black" fill="none" stroke-width="5.0" stroke-linecap="round" stroke-linejoin="round" />
</svg>