<svg xmlns="http://www.w3.org/2000/svg" width="300" height="300" viewBox="0 0 300 300">
<path d="M 112.0 127.0 L 113.0 127.0 L 113.0 127.0 L 114.0 127.0 L 117.0 127.0 L 122.0 127.0 L 129.0 127.0 L 132.0 127.0 " stroke="black" fill="none" stroke-width="5.0" stroke-linecap="round" stroke-linejoin="round" />
<path d="M 125.0 110.0 L 125.0 110.0 L 125.0 110.0 L 125.0 111.0 L 125.0 115.0 L 125.0 127.0 L 123.0 146.0 L 121.0 167.0 L 120.0 181.0 L 120.0 187.0 L 120.0 188.0 L 120.0 188.0 " stroke="black" fill="none" stroke-width="5.0" stroke-linecap="round" stroke-linejoin="round" />
<path d="M 124.0 137.0 L 124.0 137.0 L 124.0 137.0 L 124.0 137.0 L 124.0 137.0 L 123.0 138.0 L 120.0 143.0 L 113.0 152.0 L 104.0 165.0 L 98.0 175.0 L 98.0 176.0 " stroke="black" fill="none" stroke-width="5.0" stroke-linecap="round" stroke-linejoin="round" />
<path d="M 123.0 137.0 L 124.0 137.0 L 125.0 138.0 L 128.0 143.0 L 132.0 155.0 L 137.0 167.0 L 141.0 174.0 L 142.0 175.0 " stroke="black" fill="none" stroke-width="5.0" stroke-linecap="round" stroke-linejoin="round" />
<path d="M 159.0 123.0 L 159.0 124.0 L 159.0 126.0 L 159.0 131.0 L 160.0 142.0 L 160.0 157.0 L 157.0 175.0 L 153.0 187.0 L 147.0 194.0 L 143.0 195.0 " stroke="black" fill="none" stroke-width="5.0" stroke-linecap="round" stroke-linejoin="round" />
<path d="M 148.0 144.0 L 148.0 144.0 L 148.0 144.0 L 149.0 144.0 L 151.0 145.0 L 154.0 148.0 L 156.0 150.0 " stroke="black" fill="none" stroke-width="5.0" stroke-linecap="round" stroke-linejoin="round" />
<path d="M 144.0 165.0 L 145.0 165.0 L 148.0 166.0 L 152.0 166.0 L 157.0 164.0 L 158.0 164.0 " stroke="black" fill="none" stroke-width="5.0" stroke-linecap="round" stroke-linejoin="round" />
<path d="M 177.0 124.0 L 177.0 124.0 L 177.0 124.0 L 177.0 124.0 L 177.0 124.0 L 177.0 124.0 L 177.0 131.0 L 176.0 145.0 L 175.0 164.0 L 176.0 179.0 L 180.0 188.0 L 184.0 191.0 L 187.0 192.0 L 193.0 193.0 L 199.0 194.0 L 205.0 194.0 L 209.0 191.0 L 210.0 188.0 L 210.0 185.0 L 208.0 180.0 L 207.0 177.0 " stroke="black" fill="none" stroke-width="5.0" stroke-linecap="round" stroke-linejoin="round" />
<path d="M 180.0 148.0 L 180.0 148.0 L 180.0 149.0 L 181.0 149.0 L 184.0 147.0 L 189.0 143.0 L 194.0 140.0 L 195.0 140.0 " stroke="black" fill="none" stroke-width="5.0" stroke-linecap="round" stroke-linejoin="round" />
<path d="M 183.0 160.0 L 183.0 160.0 L 183.0 162.0 L 185.0 164.0 L 190.0 167.0 L 196.0 170.0 " stroke="black" fill="none" stroke-width="5.0" stroke-linecap="round" stroke-linejoin="round" />
</svg>