<svg xmlns="http://www.w3.org/2000/svg" width="300" height="300" viewBox="0 0 300 300">
<path d="M 117.0 141.0 L 117.0 141.0 L 117.0 142.0 L 114.0 150.0 L 111.0 158.0 L 108.0 166.0 " stroke="black" fill="none" stroke-width="5.0" stroke-linecap="round" stroke-linejoin="round" />
<path d="M 128.0 155.0 L 128.0 155.0 L 128.0 156.0 L 128.0 157.0 L 128.0 159.0 L 128.0 164.0 L 128.0 170.0 L 131.0 177.0 L 138.0 182.0 L 149.0 183.0 L 162.0 183.0 L 174.0 183.0 L 182.0 182.0 L 186.0 180.0 L 186.0 177.0 L 186.0 174.0 L 185.0 170.0 L 182.0 163.0 L 181.0 161.0 " stroke="black" fill="none" stroke-width="5.0" stroke-linecap="round" stroke-linejoin="round" />
<path d="M 153.0 131.0 L 153.0 132.0 L 153.0 135.0 L 153.0 142.0 L 155.0 151.0 L 157.0 155.0 " stroke="black" fill="none" stroke-width="5.0" stroke-linecap="round" stroke-linejoin="round" />
<path d="M 192.0 137.0 L 193.0 138.0 L 194.0 142.0 L 197.0 148.0 L 200.0 154.0 L 202.0 157.0 " stroke="black" fill="none" stroke-width="5.0" stroke-linecap="round" stroke-linejoin="round" />
</svg>