<svg xmlns="http://www.w3.org/2000/svg" width="300" height="300" viewBox="0 0 300 300">
<path d="M 115.0 132.0 L 115.0 132.0 L 115.0 133.0 L 115.0 134.0 L 114.0 136.0 L 112.0 142.0 L 108.0 149.0 L 106.0 153.0 " stroke="black" fill="none" stroke-width="5.0" stroke-linecap="round" stroke-linejoin="round" />
<path d="M 128.0 148.0 L 128.0 148.0 L 128.0 148.0 L 128.0 148.0 L 128.0 150.0 L 128.0 154.0 L 127.0 160.0 L 127.0 166.0 L 129.0 170.0 L 137.0 173.0 L 146.0 173.0 L 156.0 174.0 L 164.0 174.0 L 172.0 174.0 L 178.0 173.0 L 182.0 172.0 L 183.0 172.0 L 183.0 171.0 L 183.0 170.0 L 181.0 164.0 L 179.0 160.0 " stroke="black" fill="none" stroke-width="5.0" stroke-linecap="round" stroke-linejoin="round" />
<path d="M 150.0 136.0 L 150.0 136.0 L 150.0 136.0 L 150.0 136.0 L 150.0 141.0 L 152.0 148.0 " stroke="black" fill="none" stroke-width="5.0" stroke-linecap="round" stroke-linejoin="round" />
<path d="M 183.0 135.0 L 183.0 135.0 L 183.0 136.0 L 186.0 138.0 L 190.0 142.0 L 192.0 145.0 " stroke="black" fill="none" stroke-width="5.0" stroke-linecap="round" stroke-linejoin="round" />
</svg>