<svg xmlns="http://www.w3.org/2000/svg" width="300" height="300" viewBox="0 0 300 300">
<path d="M 121.0 139.0 L 121.0 139.0 L 120.0 140.0 L 119.0 142.0 L 117.0 147.0 L 113.0 155.0 L 112.0 157.0 " stroke="black" fill="none" stroke-width="5.0" stroke-linecap="round" stroke-linejoin="round" />
<path d="M 132.0 161.0 L 132.0 161.0 L 132.0 161.0 L 132.0 161.0 L 132.0 162.0 L 132.0 165.0 L 132.0 170.0 L 133.0 175.0 L 137.0 180.0 L 147.0 182.0 L 159.0 183.0 L 172.0 185.0 L 183.0 185.0 L 189.0 185.0 L 191.0 184.0 L 191.0 183.0 L 190.0 181.0 L 187.0 176.0 L 183.0 169.0 " stroke="black" fill="none" stroke-width="5.0" stroke-linecap="round" stroke-linejoin="round" />
<path d="M 151.0 140.0 L 151.0 140.0 L 151.0 140.0 L 151.0 140.0 L 152.0 143.0 L 156.0 150.0 L 157.0 152.0 " stroke="black" fill="none" stroke-width="5.0" stroke-linecap="round" stroke-linejoin="round" />
<path d="M 192.0 141.0 L 192.0 141.0 L 194.0 144.0 L 197.0 150.0 L 201.0 159.0 L 203.0 166.0 " stroke="black" fill="none" stroke-width="5.0" stroke-linecap="round" stroke-linejoin="round" />
</svg>