<svg xmlns="http://www.w3.org/2000/svg" width="300" height="300" viewBox="0 0 300 300">
<path d="M 113.0 138.0 L 113.0 137.0 L 113.0 136.0 L 113.0 136.0 L 113.0 137.0 L 111.0 143.0 L 106.0 153.0 L 103.0 160.0 " stroke="black" fill="none" stroke-width="5.0" stroke-linecap="round" stroke-linejoin="round" />
<path d="M 129.0 153.0 L 129.0 153.0 L 129.0 153.0 L 129.0 154.0 L 128.0 157.0 L 127.0 164.0 L 127.0 173.0 L 128.0 180.0 L 135.0 183.0 L 146.0 184.0 L 159.0 185.0 L 169.0 186.0 L 178.0 187.0 L 182.0 187.0 L 183.0 186.0 L 183.0 184.0 L 181.0 179.0 L 178.0 171.0 " stroke="black" fill="none" stroke-width="5.0" stroke-linecap="round" stroke-linejoin="round" />
<path d="M 151.0 137.0 L 151.0 137.0 L 151.0 137.0 L 151.0 137.0 L 153.0 143.0 L 156.0 154.0 L 159.0 158.0 " stroke="black" fill="none" stroke-width="5.0" stroke-linecap="round" stroke-linejoin="round" />
<path d="M 193.0 132.0 L 194.0 136.0 L 196.0 143.0 L 200.0 153.0 L 203.0 161.0 L 204.0 164.0 " stroke="black" fill="none" stroke-width="5.0" stroke-linecap="round" stroke-linejoin="round" />
</svg>