<svg xmlns="http://www.w3.org/2000/svg" width="300" height="300" viewBox="0 0 300 300">
<path d="M 113.0 140.0 L 113.0 140.0 L 113.0 140.0 L 113.0 141.0 L 113.0 144.0 L 110.0 151.0 L 106.0 159.0 L 104.0 161.0 " stroke="black" fill="none" stroke-width="5.0" stroke-linecap="round" stroke-linejoin="round" />
<path d="M 130.0 151.0 L 130.0 151.0 L 131.0 151.0 L 131.0 151.0 L 131.0 152.0 L 131.0 156.0 L 130.0 163.0 L 130.0 172.0 L 131.0 178.0 L 139.0 181.0 L 152.0 182.0 L 166.0 183.0 L 176.0 183.0 L 184.0 184.0 L 186.0 183.0 L 186.0 181.0 L 185.0 178.0 L 182.0 172.0 L 178.0 165.0 L 177.0 163.0 " stroke="black" fill="none" stroke-width="5.0" stroke-linecap="round" stroke-linejoin="round" />
<path d="M 151.0 135.0 L 151.0 135.0 L 151.0 137.0 L 151.0 143.0 L 152.0 152.0 L 154.0 157.0 " stroke="black" fill="none" stroke-width="5.0" stroke-linecap="round" stroke-linejoin="round" />
<path d="M 187.0 142.0 L 187.0 142.0 L 189.0 142.0 L 191.0 149.0 L 195.0 160.0 L 197.0 167.0 " stroke="black" fill="none" stroke-width="5.0" stroke-linecap="round" stroke-linejoin="round" />
</svg>