<svg xmlns="http://www.w3.org/2000/svg" width="300" height="300" viewBox="0 0 300 300">
<path d="M 134.0 110.0 L 134.0 110.0 L 134.0 109.0 L 133.0 109.0 L 133.0 111.0 L 134.0 121.0 L 134.0 135.0 L 135.0 146.0 L 136.0 150.0 L 136.0 150.0 " stroke="black" fill="none" stroke-width="5.0" stroke-linecap="round" stroke-linejoin="round" />
<path d="M 135.0 117.0 L 134.0 117.0 L 134.0 117.0 L 134.0 117.0 L 136.0 117.0 L 141.0 115.0 L 149.0 114.0 L 156.0 114.0 L 162.0 114.0 L 165.0 116.0 L 168.0 120.0 L 169.0 128.0 L 169.0 137.0 L 169.0 144.0 L 169.0 147.0 L 169.0 148.0 " stroke="black" fill="none" stroke-width="5.0" stroke-linecap="round" stroke-linejoin="round" />
<path d="M 133.0 152.0 L 134.0 152.0 L 136.0 152.0 L 141.0 152.0 L 151.0 151.0 L 160.0 150.0 L 164.0 150.0 " stroke="black" fill="none" stroke-width="5.0" stroke-linecap="round" stroke-linejoin="round" />
<path d="M 152.0 157.0 L 152.0 158.0 L 153.0 159.0 L 153.0 163.0 L 154.0 172.0 L 154.0 184.0 L 155.0 193.0 L 156.0 195.0 L 156.0 194.0 " stroke="black" fill="none" stroke-width="5.0" stroke-linecap="round" stroke-linejoin="round" />
<path d="M 158.0 175.0 L 159.0 175.0 L 160.0 175.0 L 165.0 175.0 L 170.0 175.0 L 173.0 175.0 " stroke="black" fill="none" stroke-width="5.0" stroke-linecap="round" stroke-linejoin="round" />
<path d="M 132.0 165.0 L 132.0 165.0 L 130.0 165.0 L 128.0 170.0 L 125.0 184.0 L 121.0 200.0 L 118.0 210.0 L 117.0 212.0 " stroke="black" fill="none" stroke-width="5.0" stroke-linecap="round" stroke-linejoin="round" />
<path d="M 131.0 191.0 L 131.0 191.0 L 132.0 193.0 L 135.0 195.0 L 144.0 200.0 L 157.0 206.0 L 172.0 208.0 L 185.0 209.0 L 191.0 209.0 L 193.0 209.0 L 192.0 208.0 " stroke="black" fill="none" stroke-width="5.0" stroke-linecap="round" stroke-linejoin="round" />
</svg>