<svg xmlns="http://www.w3.org/2000/svg" width="300" height="300" viewBox="0 0 300 300">
<path d="M 134.0 121.0 L 134.0 121.0 L 134.0 121.0 L 133.0 122.0 L 133.0 125.0 L 133.0 133.0 L 134.0 142.0 L 135.0 144.0 " stroke="black" fill="none" stroke-width="5.0" stroke-linecap="round" stroke-linejoin="round" />
<path d="M 134.0 118.0 L 134.0 118.0 L 134.0 117.0 L 135.0 117.0 L 138.0 116.0 L 145.0 115.0 L 152.0 115.0 L 159.0 115.0 L 163.0 115.0 L 166.0 118.0 L 168.0 123.0 L 169.0 129.0 L 169.0 136.0 L 169.0 141.0 L 168.0 144.0 " stroke="black" fill="none" stroke-width="5.0" stroke-linecap="round" stroke-linejoin="round" />
<path d="M 134.0 143.0 L 136.0 143.0 L 139.0 143.0 L 145.0 143.0 L 153.0 143.0 L 160.0 142.0 L 166.0 142.0 " stroke="black" fill="none" stroke-width="5.0" stroke-linecap="round" stroke-linejoin="round" />
<path d="M 149.0 153.0 L 149.0 153.0 L 149.0 153.0 L 148.0 153.0 L 148.0 155.0 L 149.0 160.0 L 151.0 171.0 L 152.0 183.0 L 152.0 191.0 L 153.0 194.0 " stroke="black" fill="none" stroke-width="5.0" stroke-linecap="round" stroke-linejoin="round" />
<path d="M 153.0 168.0 L 154.0 168.0 L 155.0 168.0 L 156.0 168.0 L 158.0 168.0 L 161.0 168.0 L 167.0 168.0 L 172.0 168.0 L 173.0 168.0 " stroke="black" fill="none" stroke-width="5.0" stroke-linecap="round" stroke-linejoin="round" />
<path d="M 125.0 170.0 L 125.0 170.0 L 125.0 170.0 L 124.0 170.0 L 123.0 175.0 L 120.0 184.0 L 115.0 198.0 L 112.0 204.0 " stroke="black" fill="none" stroke-width="5.0" stroke-linecap="round" stroke-linejoin="round" />
<path d="M 121.0 188.0 L 121.0 188.0 L 123.0 188.0 L 126.0 190.0 L 133.0 193.0 L 145.0 197.0 L 160.0 201.0 L 174.0 203.0 L 182.0 203.0 " stroke="black" fill="none" stroke-width="5.0" stroke-linecap="round" stroke-linejoin="round" />
</svg>