<svg xmlns="http://www.w3.org/2000/svg" width="300" height="300" viewBox="0 0 300 300">
<path d="M 134.0 114.0 L 134.0 114.0 L 134.0 114.0 L 134.0 114.0 L 134.0 114.0 L 134.0 114.0 L 131.0 122.0 L 125.0 139.0 L 115.0 159.0 L 106.0 171.0 L 105.0 173.0 " stroke="black" fill="none" stroke-width="5.0" stroke-linecap="round" stroke-linejoin="round" />
<path d="M 123.0 146.0 L 123.0 146.0 L 123.0 145.0 L 123.0 145.0 L 123.0 145.0 L 123.0 149.0 L 125.0 161.0 L 126.0 180.0 L 127.0 195.0 L 129.0 198.0 " stroke="black" fill="none" stroke-width="5.0" stroke-linecap="round" stroke-linejoin="round" />
<path d="M 152.0 113.0 L 152.0 113.0 L 152.0 115.0 L 153.0 117.0 L 155.0 119.0 L 158.0 122.0 L 159.0 124.0 " stroke="black" fill="none" stroke-width="5.0" stroke-linecap="round" stroke-linejoin="round" />
<path d="M 143.0 133.0 L 142.0 133.0 L 141.0 133.0 L 142.0 134.0 L 147.0 134.0 L 154.0 132.0 L 161.0 131.0 L 167.0 131.0 L 170.0 130.0 L 170.0 130.0 " stroke="black" fill="none" stroke-width="5.0" stroke-linecap="round" stroke-linejoin="round" />
<path d="M 146.0 147.0 L 146.0 147.0 L 146.0 147.0 L 148.0 147.0 L 150.0 147.0 L 156.0 146.0 L 163.0 145.0 L 168.0 144.0 L 169.0 144.0 L 169.0 144.0 " stroke="black" fill="none" stroke-width="5.0" stroke-linecap="round" stroke-linejoin="round" />
<path d="M 147.0 158.0 L 148.0 158.0 L 149.0 159.0 L 152.0 159.0 L 158.0 159.0 L 164.0 158.0 L 169.0 158.0 L 170.0 158.0 " stroke="black" fill="none" stroke-width="5.0" stroke-linecap="round" stroke-linejoin="round" />
<path d="M 143.0 175.0 L 143.0 176.0 L 142.0 177.0 L 142.0 180.0 L 142.0 185.0 L 144.0 191.0 L 146.0 195.0 L 146.0 196.0 " stroke="black" fill="none" stroke-width="5.0" stroke-linecap="round" stroke-linejoin="round" />
<path d="M 144.0 176.0 L 144.0 176.0 L 147.0 176.0 L 153.0 174.0 L 162.0 173.0 L 169.0 173.0 L 174.0 173.0 L 178.0 176.0 L 180.0 181.0 L 182.0 187.0 L 183.0 193.0 L 183.0 196.0 " stroke="black" fill="none" stroke-width="5.0" stroke-linecap="round" stroke-linejoin="round" />
<path d="M 149.0 200.0 L 151.0 201.0 L 153.0 202.0 L 159.0 202.0 L 169.0 200.0 L 179.0 199.0 L 180.0 199.0 " stroke="black" fill="none" stroke-width="5.0" stroke-linecap="round" stroke-linejoin="round" />
</svg>