<svg xmlns="http://www.w3.org/2000/svg" width="300" height="300" viewBox="0 0 300 300">
<path d="M 121.0 126.0 L 121.0 127.0 L 122.0 127.0 L 124.0 128.0 L 134.0 128.0 L 152.0 125.0 L 170.0 122.0 L 179.0 122.0 L 180.0 122.0 " stroke="black" fill="none" stroke-width="5.0" stroke-linecap="round" stroke-linejoin="round" />
<path d="M 122.0 130.0 L 122.0 130.0 L 122.0 130.0 L 122.0 130.0 L 121.0 133.0 L 121.0 144.0 L 119.0 164.0 L 115.0 185.0 L 111.0 196.0 L 111.0 197.0 " stroke="black" fill="none" stroke-width="5.0" stroke-linecap="round" stroke-linejoin="round" />
<path d="M 125.0 158.0 L 125.0 158.0 L 125.0 158.0 L 125.0 157.0 L 125.0 157.0 L 126.0 156.0 L 128.0 156.0 L 132.0 156.0 L 136.0 156.0 L 139.0 157.0 L 143.0 160.0 L 146.0 166.0 L 148.0 174.0 L 148.0 180.0 L 148.0 185.0 L 146.0 187.0 L 142.0 188.0 L 137.0 187.0 L 135.0 186.0 " stroke="black" fill="none" stroke-width="5.0" stroke-linecap="round" stroke-linejoin="round" />
<path d="M 144.0 104.0 L 144.0 103.0 L 143.0 101.0 L 144.0 101.0 L 147.0 111.0 L 152.0 129.0 L 161.0 155.0 L 172.0 180.0 L 179.0 196.0 L 182.0 202.0 " stroke="black" fill="none" stroke-width="5.0" stroke-linecap="round" stroke-linejoin="round" />
<path d="M 187.0 166.0 L 186.0 166.0 L 185.0 167.0 L 183.0 171.0 L 178.0 181.0 L 166.0 194.0 " stroke="black" fill="none" stroke-width="5.0" stroke-linecap="round" stroke-linejoin="round" />
<path d="M 176.0 99.0 L 176.0 99.0 L 177.0 101.0 L 181.0 105.0 L 184.0 107.0 " stroke="black" fill="none" stroke-width="5.0" stroke-linecap="round" stroke-linejoin="round" />
</svg>