<svg xmlns="http://www.w3.org/2000/svg" width="300" height="300" viewBox="0 0 300 300">
<path d="M 112.0 114.0 L 112.0 115.0 L 112.0 115.0 L 115.0 115.0 L 122.0 115.0 L 132.0 113.0 L 137.0 113.0 " stroke="black" fill="none" stroke-width="5.0" stroke-linecap="round" stroke-linejoin="round" />
<path d="M 113.0 116.0 L 113.0 116.0 L 113.0 117.0 L 112.0 119.0 L 112.0 127.0 L 112.0 141.0 L 112.0 157.0 L 112.0 167.0 L 112.0 168.0 L 112.0 167.0 " stroke="black" fill="none" stroke-width="5.0" stroke-linecap="round" stroke-linejoin="round" />
<path d="M 116.0 131.0 L 117.0 131.0 L 117.0 131.0 L 118.0 131.0 L 121.0 132.0 L 128.0 132.0 L 135.0 132.0 L 140.0 133.0 " stroke="black" fill="none" stroke-width="5.0" stroke-linecap="round" stroke-linejoin="round" />
<path d="M 116.0 148.0 L 117.0 148.0 L 118.0 148.0 L 122.0 149.0 L 130.0 150.0 L 137.0 150.0 " stroke="black" fill="none" stroke-width="5.0" stroke-linecap="round" stroke-linejoin="round" />
<path d="M 126.0 117.0 L 126.0 117.0 L 126.0 117.0 L 126.0 118.0 L 126.0 120.0 L 127.0 129.0 L 130.0 143.0 L 132.0 154.0 L 133.0 158.0 " stroke="black" fill="none" stroke-width="5.0" stroke-linecap="round" stroke-linejoin="round" />
<path d="M 115.0 160.0 L 115.0 162.0 L 115.0 164.0 L 115.0 165.0 L 119.0 166.0 L 126.0 166.0 L 134.0 164.0 L 140.0 163.0 L 144.0 163.0 L 146.0 164.0 L 147.0 169.0 L 148.0 176.0 L 150.0 184.0 L 152.0 196.0 L 152.0 199.0 L 151.0 200.0 L 146.0 199.0 L 141.0 197.0 " stroke="black" fill="none" stroke-width="5.0" stroke-linecap="round" stroke-linejoin="round" />
<path d="M 109.0 177.0 L 109.0 177.0 L 109.0 177.0 L 109.0 177.0 L 109.0 179.0 L 109.0 183.0 L 110.0 188.0 L 110.0 190.0 " stroke="black" fill="none" stroke-width="5.0" stroke-linecap="round" stroke-linejoin="round" />
<path d="M 117.0 178.0 L 117.0 178.0 L 118.0 178.0 L 119.0 180.0 L 119.0 183.0 L 121.0 186.0 L 121.0 188.0 " stroke="black" fill="none" stroke-width="5.0" stroke-linecap="round" stroke-linejoin="round" />
<path d="M 124.0 177.0 L 125.0 177.0 L 127.0 179.0 L 129.0 181.0 L 129.0 184.0 L 129.0 186.0 " stroke="black" fill="none" stroke-width="5.0" stroke-linecap="round" stroke-linejoin="round" />
<path d="M 135.0 175.0 L 135.0 175.0 L 135.0 177.0 L 136.0 179.0 L 137.0 182.0 L 138.0 183.0 " stroke="black" fill="none" stroke-width="5.0" stroke-linecap="round" stroke-linejoin="round" />
<path d="M 154.0 140.0 L 154.0 140.0 L 156.0 140.0 L 160.0 140.0 L 168.0 139.0 L 178.0 137.0 L 185.0 136.0 L 190.0 136.0 L 192.0 137.0 L 193.0 140.0 L 193.0 144.0 L 192.0 149.0 L 191.0 153.0 L 191.0 154.0 " stroke="black" fill="none" stroke-width="5.0" stroke-linecap="round" stroke-linejoin="round" />
<path d="M 177.0 126.0 L 177.0 126.0 L 177.0 126.0 L 177.0 129.0 L 177.0 138.0 L 178.0 149.0 L 178.0 157.0 " stroke="black" fill="none" stroke-width="5.0" stroke-linecap="round" stroke-linejoin="round" />
<path d="M 160.0 117.0 L 160.0 117.0 L 160.0 118.0 L 159.0 120.0 L 158.0 128.0 L 158.0 143.0 L 159.0 163.0 L 162.0 179.0 L 166.0 185.0 L 174.0 188.0 L 184.0 189.0 L 192.0 189.0 L 198.0 189.0 L 202.0 188.0 L 204.0 183.0 L 205.0 176.0 L 205.0 168.0 " stroke="black" fill="none" stroke-width="5.0" stroke-linecap="round" stroke-linejoin="round" />
</svg>